<?xml version="1.0" encoding="utf-8" standalone="no"?>
<!DOCTYPE svg PUBLIC "-//W3C//DTD SVG 1.1//EN"
  "http://www.w3.org/Graphics/SVG/1.1/DTD/svg11.dtd">
<svg xmlns:xlink="http://www.w3.org/1999/xlink" width="576pt" height="432pt" viewBox="0 0 576 432" xmlns="http://www.w3.org/2000/svg" version="1.1">
 <metadata>
  <rdf:RDF xmlns:dc="http://purl.org/dc/elements/1.1/" xmlns:cc="http://creativecommons.org/ns#" xmlns:rdf="http://www.w3.org/1999/02/22-rdf-syntax-ns#">
   <cc:Work>
    <dc:type rdf:resource="http://purl.org/dc/dcmitype/StillImage"/>
    <dc:date>2026-03-13T22:47:57.349386</dc:date>
    <dc:format>image/svg+xml</dc:format>
    <dc:creator>
     <cc:Agent>
      <dc:title>Matplotlib v3.10.6, https://matplotlib.org/</dc:title>
     </cc:Agent>
    </dc:creator>
   </cc:Work>
  </rdf:RDF>
 </metadata>
 <defs>
  <style type="text/css">*{stroke-linejoin: round; stroke-linecap: butt}</style>
 </defs>
 <g id="figure_1">
  <g id="patch_1">
   <path d="M 0 432 
L 576 432 
L 576 0 
L 0 0 
L 0 432 
z
" style="fill: none; opacity: 0"/>
  </g>
  <g id="axes_1">
   <g id="patch_2">
    <path d="M 23.76 381.56 
L 542.675368 381.56 
L 542.675368 52.81875 
L 23.76 52.81875 
L 23.76 381.56 
z
" style="fill: none"/>
   </g>
   <g id="matplotlib.axis_1">
    <g id="xtick_1">
     <g id="line2d_1">
      <path d="M 65.32868 381.56 
L 65.32868 52.81875 
" clip-path="url(#p0b21cdc4f1)" style="fill: none; stroke: #cccccc; stroke-opacity: 0.4; stroke-linecap: round"/>
     </g>
     <g id="line2d_2"/>
     <g id="text_1">
      <text style="font-size: 20px; font-family: 'DejaVu Serif', 'Times New Roman', serif; text-anchor: middle; fill: #262626" x="65.32868" y="403.756875" transform="rotate(-0 65.32868 403.756875)">0.635</text>
     </g>
    </g>
    <g id="xtick_2">
     <g id="line2d_3">
      <path d="M 141.191753 381.56 
L 141.191753 52.81875 
" clip-path="url(#p0b21cdc4f1)" style="fill: none; stroke: #cccccc; stroke-opacity: 0.4; stroke-linecap: round"/>
     </g>
     <g id="line2d_4"/>
     <g id="text_2">
      <text style="font-size: 20px; font-family: 'DejaVu Serif', 'Times New Roman', serif; text-anchor: middle; fill: #262626" x="141.191753" y="403.756875" transform="rotate(-0 141.191753 403.756875)">0.640</text>
     </g>
    </g>
    <g id="xtick_3">
     <g id="line2d_5">
      <path d="M 217.054826 381.56 
L 217.054826 52.81875 
" clip-path="url(#p0b21cdc4f1)" style="fill: none; stroke: #cccccc; stroke-opacity: 0.4; stroke-linecap: round"/>
     </g>
     <g id="line2d_6"/>
     <g id="text_3">
      <text style="font-size: 20px; font-family: 'DejaVu Serif', 'Times New Roman', serif; text-anchor: middle; fill: #262626" x="217.054826" y="403.756875" transform="rotate(-0 217.054826 403.756875)">0.645</text>
     </g>
    </g>
    <g id="xtick_4">
     <g id="line2d_7">
      <path d="M 292.917899 381.56 
L 292.917899 52.81875 
" clip-path="url(#p0b21cdc4f1)" style="fill: none; stroke: #cccccc; stroke-opacity: 0.4; stroke-linecap: round"/>
     </g>
     <g id="line2d_8"/>
     <g id="text_4">
      <text style="font-size: 20px; font-family: 'DejaVu Serif', 'Times New Roman', serif; text-anchor: middle; fill: #262626" x="292.917899" y="403.756875" transform="rotate(-0 292.917899 403.756875)">0.650</text>
     </g>
    </g>
    <g id="xtick_5">
     <g id="line2d_9">
      <path d="M 368.780972 381.56 
L 368.780972 52.81875 
" clip-path="url(#p0b21cdc4f1)" style="fill: none; stroke: #cccccc; stroke-opacity: 0.4; stroke-linecap: round"/>
     </g>
     <g id="line2d_10"/>
     <g id="text_5">
      <text style="font-size: 20px; font-family: 'DejaVu Serif', 'Times New Roman', serif; text-anchor: middle; fill: #262626" x="368.780972" y="403.756875" transform="rotate(-0 368.780972 403.756875)">0.655</text>
     </g>
    </g>
    <g id="xtick_6">
     <g id="line2d_11">
      <path d="M 444.644045 381.56 
L 444.644045 52.81875 
" clip-path="url(#p0b21cdc4f1)" style="fill: none; stroke: #cccccc; stroke-opacity: 0.4; stroke-linecap: round"/>
     </g>
     <g id="line2d_12"/>
     <g id="text_6">
      <text style="font-size: 20px; font-family: 'DejaVu Serif', 'Times New Roman', serif; text-anchor: middle; fill: #262626" x="444.644045" y="403.756875" transform="rotate(-0 444.644045 403.756875)">0.660</text>
     </g>
    </g>
    <g id="xtick_7">
     <g id="line2d_13">
      <path d="M 520.507117 381.56 
L 520.507117 52.81875 
" clip-path="url(#p0b21cdc4f1)" style="fill: none; stroke: #cccccc; stroke-opacity: 0.4; stroke-linecap: round"/>
     </g>
     <g id="line2d_14"/>
     <g id="text_7">
      <text style="font-size: 20px; font-family: 'DejaVu Serif', 'Times New Roman', serif; text-anchor: middle; fill: #262626" x="520.507117" y="403.756875" transform="rotate(-0 520.507117 403.756875)">0.665</text>
     </g>
    </g>
   </g>
   <g id="matplotlib.axis_2">
    <g id="ytick_1">
     <g id="line2d_15">
      <path d="M 23.76 369.201549 
L 542.675368 369.201549 
" clip-path="url(#p0b21cdc4f1)" style="fill: none; stroke: #cccccc; stroke-opacity: 0.4; stroke-linecap: round"/>
     </g>
    </g>
    <g id="ytick_2">
     <g id="line2d_16">
      <path d="M 23.76 306.4962 
L 542.675368 306.4962 
" clip-path="url(#p0b21cdc4f1)" style="fill: none; stroke: #cccccc; stroke-opacity: 0.4; stroke-linecap: round"/>
     </g>
    </g>
    <g id="ytick_3">
     <g id="line2d_17">
      <path d="M 23.76 243.79085 
L 542.675368 243.79085 
" clip-path="url(#p0b21cdc4f1)" style="fill: none; stroke: #cccccc; stroke-opacity: 0.4; stroke-linecap: round"/>
     </g>
    </g>
    <g id="ytick_4">
     <g id="line2d_18">
      <path d="M 23.76 181.085501 
L 542.675368 181.085501 
" clip-path="url(#p0b21cdc4f1)" style="fill: none; stroke: #cccccc; stroke-opacity: 0.4; stroke-linecap: round"/>
     </g>
    </g>
    <g id="ytick_5">
     <g id="line2d_19">
      <path d="M 23.76 118.380152 
L 542.675368 118.380152 
" clip-path="url(#p0b21cdc4f1)" style="fill: none; stroke: #cccccc; stroke-opacity: 0.4; stroke-linecap: round"/>
     </g>
    </g>
    <g id="ytick_6">
     <g id="line2d_20">
      <path d="M 23.76 55.674802 
L 542.675368 55.674802 
" clip-path="url(#p0b21cdc4f1)" style="fill: none; stroke: #cccccc; stroke-opacity: 0.4; stroke-linecap: round"/>
     </g>
    </g>
   </g>
   <g id="line2d_21">
    <path d="M 66.351982 365.894052 
L 78.566751 365.653499 
L 83.452658 365.292536 
L 88.338565 364.682856 
L 92.410155 363.920858 
L 95.667427 363.130919 
L 98.924698 362.105662 
L 101.367652 361.14761 
L 104.624924 359.659521 
L 107.067877 358.372904 
L 110.325149 356.331175 
L 113.582421 353.967528 
L 116.839692 351.279795 
L 120.096964 348.289887 
L 123.354235 345.002831 
L 127.425825 340.481926 
L 131.497414 335.584686 
L 135.569004 330.325978 
L 140.454911 323.57165 
L 146.155137 314.994885 
L 150.226726 308.3811 
L 154.298316 301.297985 
L 158.369905 293.820106 
L 163.255813 284.241577 
L 168.14172 274.020954 
L 172.21331 265.048318 
L 177.099217 253.879864 
L 186.871032 231.113314 
L 195.828529 210.313899 
L 208.857616 180.5621 
L 226.77261 140.282525 
L 232.472835 128.189343 
L 238.17306 116.83283 
L 243.058968 107.798328 
L 247.130557 100.797055 
L 249.573511 96.9988 
L 252.016465 93.663245 
L 253.645101 91.625879 
L 256.088054 88.902897 
L 257.71669 87.402188 
L 259.345326 86.19232 
L 260.973962 85.192398 
L 262.602597 84.525374 
L 264.231233 84.124509 
L 265.859869 84.018567 
L 267.488505 84.209647 
L 269.117141 84.70781 
L 270.745777 85.509449 
L 272.374412 86.5791 
L 274.817366 88.65845 
L 277.26032 91.220508 
L 279.703274 94.181833 
L 283.774863 99.844233 
L 287.032135 104.734423 
L 297.618267 121.156682 
L 302.504175 128.550009 
L 305.761447 133.623828 
L 311.461672 143.15402 
L 317.161897 153.741967 
L 322.047805 163.767691 
L 326.119394 172.711991 
L 331.005302 183.841298 
L 339.962799 204.16835 
L 345.663024 216.503368 
L 357.063475 240.268455 
L 361.949382 250.524632 
L 368.463925 264.552935 
L 377.421422 284.434292 
L 383.935966 298.646246 
L 388.007555 307.028195 
L 391.264827 313.343772 
L 394.522098 319.248944 
L 397.77937 324.739142 
L 401.036642 329.728047 
L 403.479595 333.122708 
L 405.922549 336.247086 
L 408.365503 339.045743 
L 410.808457 341.618524 
L 413.25141 343.939144 
L 416.508682 346.626207 
L 419.765954 349.058711 
L 423.023225 351.138175 
L 427.909133 353.875388 
L 431.980722 355.83754 
L 438.495265 358.6484 
L 444.195491 360.744006 
L 449.081398 362.247786 
L 453.152988 363.23529 
L 456.410259 363.834866 
L 459.667531 364.275769 
L 463.73912 364.582633 
L 467.81071 364.694615 
L 482.468432 364.475347 
L 482.468432 364.475347 
" clip-path="url(#p0b21cdc4f1)" style="fill: none; stroke: #7570b3; stroke-width: 1.3125; stroke-linecap: round"/>
   </g>
   <g id="line2d_22">
    <path d="M 47.347062 362.839213 
L 63.040998 362.763252 
L 67.656861 362.444012 
L 71.349552 361.979513 
L 74.11907 361.457006 
L 77.811761 360.491482 
L 81.504452 359.200619 
L 84.27397 358.041301 
L 87.96666 356.214081 
L 91.659351 354.120535 
L 97.198387 350.736025 
L 105.506942 345.62721 
L 111.045978 342.592902 
L 116.585014 339.908839 
L 125.816741 335.652195 
L 128.586259 334.163348 
L 132.27895 331.806851 
L 134.125295 330.444148 
L 136.894813 328.133115 
L 139.664331 325.493037 
L 142.433849 322.47508 
L 145.203367 319.103488 
L 147.972885 315.398097 
L 150.742403 311.353789 
L 153.511921 306.989248 
L 157.204612 300.713006 
L 159.97413 295.649247 
L 163.666821 288.611577 
L 167.359512 281.139051 
L 172.898548 269.383476 
L 183.053447 246.370304 
L 186.746138 237.697076 
L 191.362002 226.547064 
L 198.747383 208.225423 
L 207.055937 187.266607 
L 214.441319 169.375285 
L 218.13401 161.084137 
L 221.8267 153.341769 
L 224.596218 147.931961 
L 227.365736 142.778269 
L 230.135255 138.026615 
L 233.827945 132.228509 
L 236.597463 128.264586 
L 238.443809 125.864698 
L 241.213327 122.525458 
L 243.059672 120.531863 
L 245.82919 117.901954 
L 247.675536 116.374863 
L 249.521881 115.063845 
L 251.368226 113.933884 
L 255.060917 112.071955 
L 257.830435 111.075416 
L 260.599953 110.352507 
L 265.215817 109.679163 
L 269.83168 109.381183 
L 279.063407 109.043974 
L 282.756098 109.162315 
L 285.525616 109.407025 
L 289.218307 110.073756 
L 292.910997 111.135093 
L 295.680515 112.336712 
L 297.526861 113.308111 
L 300.296379 115.115274 
L 302.142724 116.529919 
L 303.98907 118.154502 
L 306.758588 120.932508 
L 308.604933 123.150275 
L 310.451278 125.59472 
L 312.297624 128.27447 
L 314.143969 131.263611 
L 316.913487 136.351256 
L 319.683005 142.194359 
L 322.452523 148.742096 
L 325.222041 155.904893 
L 327.99156 163.678765 
L 331.68425 174.719639 
L 344.608668 214.330256 
L 347.378186 221.970854 
L 350.147704 229.105191 
L 352.917222 235.659594 
L 355.68674 241.719861 
L 359.379431 249.115387 
L 364.918467 259.49977 
L 374.150194 276.69806 
L 378.766057 285.940092 
L 393.53682 316.163792 
L 397.229511 322.805655 
L 399.999029 327.366331 
L 402.768547 331.543144 
L 405.538065 335.300451 
L 408.307583 338.646176 
L 411.077102 341.677293 
L 414.769792 345.206891 
L 417.53931 347.563587 
L 420.308828 349.701789 
L 424.001519 352.27496 
L 427.69421 354.469847 
L 431.386901 356.416155 
L 436.002764 358.528462 
L 439.695455 359.909945 
L 443.388146 361.021751 
L 446.157664 361.743808 
L 449.850354 362.487992 
L 454.466218 363.177434 
L 460.928427 363.81682 
L 468.313808 364.303267 
L 478.468708 365.020665 
L 494.162644 366.237073 
L 500.624852 366.514261 
L 508.010234 366.617216 
L 519.088306 366.55699 
L 519.088306 366.55699 
" clip-path="url(#p0b21cdc4f1)" style="fill: none; stroke-dasharray: 1.3125,2.165625; stroke-dashoffset: 0; stroke: #7570b3; stroke-width: 1.3125"/>
   </g>
   <g id="line2d_23">
    <path d="M 72.773566 361.201401 
L 76.957215 361.09102 
L 81.140865 360.741691 
L 84.487785 360.293603 
L 89.508165 359.350434 
L 95.365275 357.954198 
L 100.385654 356.501395 
L 108.752954 354.099905 
L 113.773334 352.44483 
L 116.283524 351.444904 
L 118.793713 350.293314 
L 121.303903 348.938831 
L 123.814093 347.299732 
L 125.487553 346.02918 
L 127.997743 343.853625 
L 130.507933 341.298706 
L 133.018123 338.40001 
L 135.528313 335.20112 
L 138.875233 330.449459 
L 142.222152 325.315801 
L 147.242532 317.178561 
L 164.813861 288.073925 
L 168.160781 281.955151 
L 170.670971 276.958294 
L 174.017891 269.710637 
L 176.528081 263.758984 
L 179.875001 255.163273 
L 183.22192 245.817801 
L 186.56884 235.80916 
L 190.75249 222.690018 
L 199.95652 193.234181 
L 203.303439 183.230303 
L 206.650359 173.704512 
L 209.997279 164.95178 
L 212.507469 158.823821 
L 215.854389 151.368138 
L 219.201309 144.471792 
L 223.384958 136.529498 
L 228.405338 127.561269 
L 240.956288 105.974545 
L 243.466478 102.102433 
L 245.976667 98.643466 
L 248.486857 95.624464 
L 250.160317 93.925138 
L 251.833777 92.492738 
L 253.507237 91.316513 
L 255.180697 90.440114 
L 256.017427 90.047894 
L 257.690887 89.605234 
L 259.364347 89.473652 
L 261.037807 89.602221 
L 262.711267 89.969271 
L 264.384727 90.520746 
L 266.058186 91.404118 
L 267.731646 92.381184 
L 269.405106 93.598836 
L 272.752026 96.388104 
L 275.262216 98.869575 
L 278.609136 102.613289 
L 281.119326 105.664661 
L 286.139706 112.460484 
L 291.996815 121.425529 
L 296.180465 128.232378 
L 300.364115 135.090227 
L 303.711035 140.438576 
L 307.057955 145.457048 
L 311.241604 151.412652 
L 317.935444 160.306132 
L 321.282364 164.633009 
L 324.629284 169.26761 
L 327.139474 172.932876 
L 330.486393 178.254965 
L 332.996583 182.571821 
L 335.506773 187.353241 
L 338.016963 192.390825 
L 341.363883 199.664499 
L 344.710803 207.427351 
L 348.894453 217.805489 
L 354.751562 233.128582 
L 367.302512 265.683344 
L 371.486161 275.616908 
L 373.996351 281.197865 
L 378.180001 289.839777 
L 381.526921 296.183783 
L 384.873841 302.003675 
L 388.220761 307.393613 
L 392.40441 313.664195 
L 395.75133 318.382821 
L 401.60844 326.122192 
L 408.30228 334.481257 
L 413.322659 340.434385 
L 415.832849 343.224328 
L 420.016499 347.537568 
L 423.363419 350.62801 
L 426.710339 353.3924 
L 430.057259 355.727204 
L 432.567449 357.254573 
L 435.914368 358.911953 
L 438.424558 359.955526 
L 441.771478 361.051417 
L 444.281668 361.705384 
L 447.628588 362.391134 
L 452.648968 363.101994 
L 456.832617 363.525875 
L 470.220297 364.523441 
L 483.607976 365.253038 
L 493.648736 365.542011 
L 500.342575 365.577136 
L 500.342575 365.577136 
" clip-path="url(#p0b21cdc4f1)" style="fill: none; stroke-dasharray: 4.85625,2.1; stroke-dashoffset: 0; stroke: #7570b3; stroke-width: 1.3125"/>
   </g>
   <g id="line2d_24">
    <path d="M 58.074169 364.847858 
L 64.559567 364.728045 
L 70.234289 364.438337 
L 75.909012 363.941646 
L 81.583735 363.219319 
L 87.258457 362.306308 
L 91.311831 361.583688 
L 101.850601 359.331554 
L 105.903974 358.220557 
L 109.146673 357.160843 
L 112.389372 355.879072 
L 115.63207 354.36031 
L 119.685444 352.083879 
L 123.738817 349.409597 
L 129.41354 345.281868 
L 139.141636 337.932531 
L 149.680406 330.131519 
L 152.923105 327.363302 
L 155.355129 324.961677 
L 157.787153 322.275196 
L 159.408502 320.251365 
L 161.840526 316.746995 
L 164.27255 312.750424 
L 166.704574 308.20421 
L 169.136598 303.016516 
L 171.568622 297.310096 
L 174.000646 291.044519 
L 176.43267 284.305992 
L 179.675369 274.628075 
L 183.728742 261.779706 
L 191.835489 235.375315 
L 196.699537 220.511105 
L 199.131561 213.548891 
L 202.37426 204.91229 
L 205.616958 196.970607 
L 208.859657 189.510197 
L 221.830452 161.139934 
L 225.07315 153.131777 
L 228.315849 144.486518 
L 232.369222 132.765512 
L 242.097318 103.86881 
L 245.340017 95.081758 
L 247.772041 89.153207 
L 250.204065 83.735977 
L 251.825414 80.574836 
L 253.446764 77.750249 
L 255.068113 75.285324 
L 256.689462 73.15851 
L 258.310812 71.483614 
L 259.932161 70.102295 
L 261.55351 69.035365 
L 263.17486 68.291053 
L 264.796209 67.882304 
L 266.417558 67.761534 
L 268.038908 67.893883 
L 269.660257 68.236548 
L 272.092281 69.141084 
L 273.71363 69.993659 
L 276.145654 71.651018 
L 278.577678 73.628772 
L 281.820377 76.590905 
L 285.87375 80.824894 
L 291.548473 87.303158 
L 297.223196 94.377802 
L 299.65522 97.719452 
L 302.087244 101.208534 
L 304.519268 104.96473 
L 307.761966 110.546336 
L 311.004665 116.857415 
L 314.247364 124.252545 
L 316.679388 130.384151 
L 319.111412 137.19433 
L 321.543436 144.569722 
L 324.786134 155.214875 
L 329.650182 172.274635 
L 335.324905 192.350236 
L 339.378278 205.97298 
L 342.620977 215.877361 
L 345.053001 222.69727 
L 347.485025 228.900279 
L 349.917049 234.569439 
L 352.349073 239.682397 
L 355.591772 245.852361 
L 360.45582 254.057406 
L 372.61594 273.326819 
L 375.047964 277.455548 
L 379.101337 284.629581 
L 390.450782 305.781067 
L 393.693481 311.634139 
L 396.93618 317.183524 
L 401.800228 324.978626 
L 405.042926 329.768995 
L 409.0963 335.294939 
L 413.149673 340.256264 
L 416.392372 343.837578 
L 419.63507 347.106425 
L 422.877769 350.047868 
L 426.120468 352.630972 
L 428.552492 354.312087 
L 430.984516 355.775959 
L 434.227214 357.433978 
L 436.659238 358.510808 
L 439.901937 359.685918 
L 443.144636 360.605066 
L 446.387334 361.258213 
L 449.630033 361.668717 
L 452.872732 361.870232 
L 456.926105 361.862783 
L 465.843526 361.213018 
L 470.707574 360.960384 
L 472.328923 360.942797 
L 472.328923 360.942797 
" clip-path="url(#p0b21cdc4f1)" style="fill: none; stroke-dasharray: 8.4,2.1,1.3125,2.1; stroke-dashoffset: 0; stroke: #7570b3; stroke-width: 1.3125"/>
   </g>
   <g id="patch_3">
    <path d="M 23.76 381.56 
L 542.675368 381.56 
" style="fill: none; stroke: #333333; stroke-width: 1.5; stroke-linejoin: miter; stroke-linecap: square"/>
   </g>
   <g id="text_8">
    <!-- $C$ -->
    <g style="fill: #262626" transform="translate(272.717684 46.579687)">
     <text>
      <tspan x="0" y="-0.734375" style="font-style: oblique; font-size: 30px; font-family: 'DejaVu Sans'; fill: #262626">C</tspan>
     </text>
    </g>
   </g>
  </g>
 </g>
 <defs>
  <clipPath id="p0b21cdc4f1">
   <rect x="23.76" y="52.81875" width="518.915368" height="328.74125"/>
  </clipPath>
 </defs>
</svg>
