<?xml version="1.0" encoding="utf-8" standalone="no"?>
<!DOCTYPE svg PUBLIC "-//W3C//DTD SVG 1.1//EN"
  "http://www.w3.org/Graphics/SVG/1.1/DTD/svg11.dtd">
<svg xmlns:xlink="http://www.w3.org/1999/xlink" width="576pt" height="432pt" viewBox="0 0 576 432" xmlns="http://www.w3.org/2000/svg" version="1.1">
 <metadata>
  <rdf:RDF xmlns:dc="http://purl.org/dc/elements/1.1/" xmlns:cc="http://creativecommons.org/ns#" xmlns:rdf="http://www.w3.org/1999/02/22-rdf-syntax-ns#">
   <cc:Work>
    <dc:type rdf:resource="http://purl.org/dc/dcmitype/StillImage"/>
    <dc:date>2026-03-13T22:47:56.720141</dc:date>
    <dc:format>image/svg+xml</dc:format>
    <dc:creator>
     <cc:Agent>
      <dc:title>Matplotlib v3.10.6, https://matplotlib.org/</dc:title>
     </cc:Agent>
    </dc:creator>
   </cc:Work>
  </rdf:RDF>
 </metadata>
 <defs>
  <style type="text/css">*{stroke-linejoin: round; stroke-linecap: butt}</style>
 </defs>
 <g id="figure_1">
  <g id="patch_1">
   <path d="M 0 432 
L 576 432 
L 576 0 
L 0 0 
L 0 432 
z
" style="fill: none; opacity: 0"/>
  </g>
  <g id="axes_1">
   <g id="patch_2">
    <path d="M 23.76 381.56 
L 547.375099 381.56 
L 547.375099 52.81875 
L 23.76 52.81875 
L 23.76 381.56 
z
" style="fill: none"/>
   </g>
   <g id="matplotlib.axis_1">
    <g id="xtick_1">
     <g id="line2d_1">
      <path d="M 60.053132 381.56 
L 60.053132 52.81875 
" clip-path="url(#p8298938ddd)" style="fill: none; stroke: #cccccc; stroke-opacity: 0.4; stroke-linecap: round"/>
     </g>
     <g id="line2d_2"/>
     <g id="text_1">
      <text style="font-size: 20px; font-family: 'DejaVu Serif', 'Times New Roman', serif; text-anchor: middle; fill: #262626" x="60.053132" y="403.756875" transform="rotate(-0 60.053132 403.756875)">0.130</text>
     </g>
    </g>
    <g id="xtick_2">
     <g id="line2d_3">
      <path d="M 174.913203 381.56 
L 174.913203 52.81875 
" clip-path="url(#p8298938ddd)" style="fill: none; stroke: #cccccc; stroke-opacity: 0.4; stroke-linecap: round"/>
     </g>
     <g id="line2d_4"/>
     <g id="text_2">
      <text style="font-size: 20px; font-family: 'DejaVu Serif', 'Times New Roman', serif; text-anchor: middle; fill: #262626" x="174.913203" y="403.756875" transform="rotate(-0 174.913203 403.756875)">0.132</text>
     </g>
    </g>
    <g id="xtick_3">
     <g id="line2d_5">
      <path d="M 289.773275 381.56 
L 289.773275 52.81875 
" clip-path="url(#p8298938ddd)" style="fill: none; stroke: #cccccc; stroke-opacity: 0.4; stroke-linecap: round"/>
     </g>
     <g id="line2d_6"/>
     <g id="text_3">
      <text style="font-size: 20px; font-family: 'DejaVu Serif', 'Times New Roman', serif; text-anchor: middle; fill: #262626" x="289.773275" y="403.756875" transform="rotate(-0 289.773275 403.756875)">0.134</text>
     </g>
    </g>
    <g id="xtick_4">
     <g id="line2d_7">
      <path d="M 404.633346 381.56 
L 404.633346 52.81875 
" clip-path="url(#p8298938ddd)" style="fill: none; stroke: #cccccc; stroke-opacity: 0.4; stroke-linecap: round"/>
     </g>
     <g id="line2d_8"/>
     <g id="text_4">
      <text style="font-size: 20px; font-family: 'DejaVu Serif', 'Times New Roman', serif; text-anchor: middle; fill: #262626" x="404.633346" y="403.756875" transform="rotate(-0 404.633346 403.756875)">0.136</text>
     </g>
    </g>
    <g id="xtick_5">
     <g id="line2d_9">
      <path d="M 519.493417 381.56 
L 519.493417 52.81875 
" clip-path="url(#p8298938ddd)" style="fill: none; stroke: #cccccc; stroke-opacity: 0.4; stroke-linecap: round"/>
     </g>
     <g id="line2d_10"/>
     <g id="text_5">
      <text style="font-size: 20px; font-family: 'DejaVu Serif', 'Times New Roman', serif; text-anchor: middle; fill: #262626" x="519.493417" y="403.756875" transform="rotate(-0 519.493417 403.756875)">0.138</text>
     </g>
    </g>
   </g>
   <g id="matplotlib.axis_2">
    <g id="ytick_1">
     <g id="line2d_11">
      <path d="M 23.76 370.891592 
L 547.375099 370.891592 
" clip-path="url(#p8298938ddd)" style="fill: none; stroke: #cccccc; stroke-opacity: 0.4; stroke-linecap: round"/>
     </g>
    </g>
    <g id="ytick_2">
     <g id="line2d_12">
      <path d="M 23.76 322.626087 
L 547.375099 322.626087 
" clip-path="url(#p8298938ddd)" style="fill: none; stroke: #cccccc; stroke-opacity: 0.4; stroke-linecap: round"/>
     </g>
    </g>
    <g id="ytick_3">
     <g id="line2d_13">
      <path d="M 23.76 274.360583 
L 547.375099 274.360583 
" clip-path="url(#p8298938ddd)" style="fill: none; stroke: #cccccc; stroke-opacity: 0.4; stroke-linecap: round"/>
     </g>
    </g>
    <g id="ytick_4">
     <g id="line2d_14">
      <path d="M 23.76 226.095078 
L 547.375099 226.095078 
" clip-path="url(#p8298938ddd)" style="fill: none; stroke: #cccccc; stroke-opacity: 0.4; stroke-linecap: round"/>
     </g>
    </g>
    <g id="ytick_5">
     <g id="line2d_15">
      <path d="M 23.76 177.829574 
L 547.375099 177.829574 
" clip-path="url(#p8298938ddd)" style="fill: none; stroke: #cccccc; stroke-opacity: 0.4; stroke-linecap: round"/>
     </g>
    </g>
    <g id="ytick_6">
     <g id="line2d_16">
      <path d="M 23.76 129.564069 
L 547.375099 129.564069 
" clip-path="url(#p8298938ddd)" style="fill: none; stroke: #cccccc; stroke-opacity: 0.4; stroke-linecap: round"/>
     </g>
    </g>
    <g id="ytick_7">
     <g id="line2d_17">
      <path d="M 23.76 81.298564 
L 547.375099 81.298564 
" clip-path="url(#p8298938ddd)" style="fill: none; stroke: #cccccc; stroke-opacity: 0.4; stroke-linecap: round"/>
     </g>
    </g>
   </g>
   <g id="line2d_18">
    <path d="M 47.560686 366.617216 
L 53.009951 366.393608 
L 57.551006 365.897705 
L 61.183849 365.271129 
L 63.908482 364.676362 
L 68.449536 363.381884 
L 72.082379 362.115566 
L 77.531645 359.799773 
L 82.072699 357.547474 
L 88.430175 354.057134 
L 104.77797 344.469446 
L 111.135446 340.623075 
L 115.676501 337.663043 
L 119.309344 335.107255 
L 123.850398 331.565129 
L 126.575031 329.165232 
L 130.207874 325.731134 
L 133.840718 321.846191 
L 136.56535 318.667065 
L 139.289983 315.181993 
L 143.831037 308.879188 
L 147.463881 303.26963 
L 152.004935 295.650043 
L 154.729568 290.725908 
L 158.362411 283.831751 
L 162.903465 274.637263 
L 167.44452 264.944366 
L 175.618417 246.513038 
L 190.149791 212.893502 
L 198.323689 194.757243 
L 202.864743 185.200304 
L 206.497587 177.842446 
L 211.038641 169.16874 
L 214.671484 162.571862 
L 219.212539 154.78221 
L 221.937171 150.349689 
L 227.386436 141.967883 
L 230.111069 138.002534 
L 233.743912 132.982352 
L 238.284967 127.069845 
L 241.009599 123.787632 
L 244.642443 119.7412 
L 247.367075 117.048341 
L 249.183497 115.354313 
L 251.908129 113.119738 
L 254.632762 111.287762 
L 256.449184 110.294828 
L 258.265605 109.458269 
L 260.990238 108.520381 
L 262.80666 108.112797 
L 265.531292 107.85937 
L 267.347714 107.827128 
L 270.072347 108.050744 
L 271.888768 108.325777 
L 275.521612 109.183375 
L 281.879088 111.065889 
L 297.318672 115.908386 
L 300.951516 117.307354 
L 302.767938 118.14083 
L 306.400781 120.170764 
L 310.033624 122.70737 
L 312.758257 124.893518 
L 315.48289 127.386103 
L 317.299311 129.283616 
L 320.023944 132.397287 
L 323.656787 137.075558 
L 328.197842 143.612696 
L 331.830685 149.4729 
L 336.371739 157.223262 
L 340.004583 163.987391 
L 344.545637 173.11128 
L 348.17848 180.809819 
L 351.811324 188.940596 
L 357.260589 201.725122 
L 374.516595 243.024163 
L 378.149439 251.044834 
L 381.782282 258.587721 
L 385.415126 265.59039 
L 389.047969 272.11334 
L 391.772602 276.680933 
L 395.405445 282.400858 
L 399.946499 288.899196 
L 402.671132 292.504133 
L 407.212186 298.204968 
L 411.753241 303.548569 
L 416.294295 308.526928 
L 423.559982 315.931232 
L 427.192825 319.2706 
L 430.825669 322.284574 
L 435.366723 325.649356 
L 438.999566 328.053207 
L 442.63241 330.13291 
L 446.265253 331.892136 
L 449.898097 333.364979 
L 455.347362 335.283298 
L 464.42947 338.202515 
L 472.603368 341.113586 
L 479.869055 344.18622 
L 491.675796 349.452615 
L 495.30864 350.834756 
L 499.849694 352.294484 
L 504.390748 353.354825 
L 508.023592 353.906583 
L 510.748224 354.110931 
L 511.656435 354.142701 
L 511.656435 354.142701 
" clip-path="url(#p8298938ddd)" style="fill: none; stroke: #7570b3; stroke-width: 1.3125; stroke-linecap: round"/>
   </g>
   <g id="line2d_19">
    <path d="M 54.894209 362.596377 
L 58.51039 362.485453 
L 63.030616 362.107802 
L 67.550842 361.464801 
L 72.071068 360.565704 
L 76.591294 359.39796 
L 82.91961 357.251783 
L 87.439836 355.462235 
L 91.960062 353.384605 
L 97.384333 350.712825 
L 105.520739 346.203924 
L 110.040965 343.354654 
L 113.657146 340.871528 
L 116.369281 338.907741 
L 121.793553 334.343137 
L 126.313778 329.89144 
L 129.929959 325.875901 
L 133.54614 321.42614 
L 137.162321 316.525427 
L 140.778501 311.334937 
L 148.010863 300.102182 
L 162.475586 276.834133 
L 172.420083 261.128546 
L 178.748399 250.792003 
L 182.36458 244.643665 
L 186.884805 236.522864 
L 190.500986 229.620826 
L 195.021212 220.680804 
L 202.253573 205.541071 
L 209.485935 189.581028 
L 226.662793 151.206004 
L 232.087064 140.215879 
L 234.7992 135.065821 
L 237.511335 130.128186 
L 241.127516 124.01249 
L 243.839652 119.83086 
L 247.455832 114.73365 
L 252.880104 107.830624 
L 255.592239 104.619406 
L 261.01651 98.65048 
L 265.536736 94.256908 
L 269.152917 91.076297 
L 271.865052 88.991391 
L 274.577188 87.295831 
L 276.385278 86.34449 
L 279.097414 85.256582 
L 280.905504 84.783541 
L 283.61764 84.60015 
L 285.42573 84.749163 
L 287.23382 85.156848 
L 289.041911 85.75258 
L 291.754046 87.133548 
L 293.562137 88.314598 
L 295.370227 89.718202 
L 298.986408 92.989053 
L 301.698543 95.817289 
L 305.314724 99.895262 
L 314.355176 110.677908 
L 322.491582 120.289748 
L 327.011808 125.921795 
L 329.723944 129.59666 
L 332.436079 133.560262 
L 336.05226 139.538809 
L 338.764396 144.562356 
L 342.380576 152.049334 
L 345.996757 160.452474 
L 349.612938 169.673863 
L 353.229118 179.655827 
L 357.749344 192.761838 
L 369.501932 227.058123 
L 374.022158 239.68281 
L 378.542383 251.630713 
L 383.062609 262.750526 
L 387.582835 273.110521 
L 391.199016 280.833326 
L 394.815197 287.895915 
L 398.431377 294.367956 
L 401.143513 298.782417 
L 403.855648 302.770094 
L 407.471829 307.602931 
L 409.27992 309.79691 
L 412.8961 313.766009 
L 415.608236 316.363818 
L 419.224416 319.511479 
L 423.744642 322.981283 
L 428.264868 326.191879 
L 439.11341 333.120161 
L 444.537682 336.460299 
L 451.770043 340.997808 
L 458.098359 345.006839 
L 465.330721 349.604455 
L 469.850947 352.347311 
L 473.467127 354.433248 
L 477.987353 356.78435 
L 481.603534 358.369212 
L 485.219715 359.71951 
L 488.835895 360.76928 
L 492.452076 361.56342 
L 496.068257 362.090061 
L 501.492528 362.503022 
L 506.916799 362.610215 
L 516.861296 362.498022 
L 516.861296 362.498022 
" clip-path="url(#p8298938ddd)" style="fill: none; stroke-dasharray: 1.3125,2.165625; stroke-dashoffset: 0; stroke: #7570b3; stroke-width: 1.3125"/>
   </g>
   <g id="line2d_20">
    <path d="M 66.303571 362.055972 
L 70.777845 361.891753 
L 75.25212 361.413007 
L 79.726394 360.637725 
L 83.305813 359.718111 
L 87.780088 358.227389 
L 92.254362 356.283781 
L 95.833782 354.460728 
L 99.413201 352.321386 
L 103.887476 349.229772 
L 107.466895 346.419287 
L 111.046315 343.308996 
L 115.520589 338.989713 
L 119.994863 334.27229 
L 124.469138 329.103117 
L 128.048557 324.737488 
L 133.417686 317.774422 
L 137.891961 311.58924 
L 143.26109 303.738271 
L 148.630219 295.474948 
L 153.104494 288.263065 
L 158.473623 279.02776 
L 162.947897 270.957285 
L 167.422172 262.456566 
L 172.791301 251.801137 
L 177.265575 242.563989 
L 186.214124 223.799677 
L 193.372963 209.283694 
L 197.847238 200.865381 
L 202.321512 193.086406 
L 207.690641 184.519734 
L 211.270061 179.35763 
L 215.744335 173.414622 
L 219.323755 168.829295 
L 229.167158 156.647373 
L 231.851723 153.30637 
L 241.695126 140.135808 
L 252.433385 125.457025 
L 256.012804 121.016153 
L 258.697369 117.943121 
L 261.381934 115.234052 
L 263.171643 113.619427 
L 265.856208 111.540792 
L 267.645918 110.413011 
L 269.435628 109.57283 
L 271.225337 108.926359 
L 273.909902 108.425293 
L 275.699612 108.411475 
L 277.489322 108.625667 
L 280.173886 109.461442 
L 281.963596 110.293111 
L 283.753306 111.340812 
L 286.43787 113.414001 
L 289.122435 115.936599 
L 291.807 118.7953 
L 295.386419 123.100805 
L 298.965839 127.734367 
L 312.388662 145.381975 
L 317.757791 151.722176 
L 324.021775 158.338869 
L 331.180614 165.270443 
L 336.549743 170.46936 
L 345.498292 179.662554 
L 349.972566 184.776726 
L 355.341696 191.370758 
L 361.60568 199.632518 
L 367.869664 208.6316 
L 373.238793 216.731098 
L 378.607922 225.14999 
L 383.082197 232.290914 
L 393.820455 249.593814 
L 405.453569 267.771864 
L 411.717553 277.114934 
L 418.876392 287.392101 
L 426.930086 298.471577 
L 433.19407 306.907581 
L 439.458054 315.008302 
L 445.722038 322.648578 
L 450.196313 327.769116 
L 453.775732 331.626568 
L 458.250006 336.049631 
L 463.619136 340.818679 
L 468.09341 344.312272 
L 472.567684 347.468528 
L 477.041959 350.247556 
L 482.411088 353.223301 
L 487.780217 355.949536 
L 493.149347 358.360894 
L 499.413331 360.840859 
L 502.99275 362.024738 
L 507.467025 363.275638 
L 512.836154 364.45251 
L 516.415573 364.949104 
L 519.994993 365.266442 
L 523.574412 365.401751 
L 523.574412 365.401751 
" clip-path="url(#p8298938ddd)" style="fill: none; stroke-dasharray: 4.85625,2.1; stroke-dashoffset: 0; stroke: #7570b3; stroke-width: 1.3125"/>
   </g>
   <g id="line2d_21">
    <path d="M 85.799561 356.306478 
L 88.353919 356.205462 
L 91.759729 355.836791 
L 94.314087 355.351322 
L 96.868445 354.690965 
L 100.274255 353.549807 
L 102.828613 352.456418 
L 106.234423 350.708386 
L 109.640233 348.689638 
L 114.748949 345.180816 
L 127.520737 335.301669 
L 139.441073 325.631152 
L 144.549788 320.804257 
L 146.252694 319.01794 
L 150.509956 314.062383 
L 153.915767 309.456282 
L 156.470124 305.675426 
L 159.024482 301.551832 
L 162.430292 295.57287 
L 166.687555 287.468589 
L 170.944818 278.640067 
L 174.350628 271.077919 
L 178.607891 260.867141 
L 182.013701 252.136507 
L 185.419512 242.77692 
L 189.676774 230.308789 
L 193.934037 216.814746 
L 199.894205 196.806815 
L 210.963089 159.530779 
L 216.923257 140.801433 
L 221.180519 128.248957 
L 225.437782 116.309578 
L 229.695045 104.907134 
L 233.952308 94.302054 
L 236.506666 88.4436 
L 239.061023 83.124199 
L 241.615381 78.403675 
L 243.318286 75.684916 
L 245.021191 73.277421 
L 246.724096 71.337402 
L 248.427002 69.821429 
L 250.129907 68.737423 
L 251.832812 68.028423 
L 252.684264 67.822986 
L 254.387169 67.774525 
L 255.238622 67.894695 
L 256.941527 68.423956 
L 258.644432 69.32205 
L 260.347337 70.544623 
L 262.050243 72.079293 
L 264.6046 74.789129 
L 267.158958 77.868028 
L 271.416221 83.445565 
L 277.376389 91.308314 
L 283.336557 98.714272 
L 290.99963 107.696196 
L 296.959798 114.267367 
L 306.325776 124.055503 
L 309.731586 127.100503 
L 313.988849 130.526509 
L 319.949017 134.694125 
L 324.20628 137.374225 
L 328.463543 140.344136 
L 331.869353 143.061606 
L 333.572258 144.620007 
L 336.126616 147.249481 
L 337.829521 149.335813 
L 340.383879 152.779669 
L 342.086784 155.385502 
L 344.641142 159.807319 
L 347.195499 164.762678 
L 349.749857 170.372518 
L 353.155667 178.604245 
L 357.41293 190.038835 
L 360.81874 199.780915 
L 369.333266 224.413134 
L 372.739076 233.587033 
L 375.293434 240.063759 
L 378.699244 248.04204 
L 381.253602 253.528284 
L 383.80796 258.639983 
L 387.21377 265.053672 
L 392.322485 273.979818 
L 395.728295 279.643657 
L 400.837011 288.262179 
L 411.905894 306.776546 
L 416.163157 313.349417 
L 419.568967 318.118253 
L 422.123325 321.367851 
L 425.529135 325.32727 
L 428.934946 328.793396 
L 432.340756 331.973984 
L 437.449471 336.219751 
L 447.666902 344.258669 
L 456.181428 350.678585 
L 461.290143 354.098584 
L 463.844501 355.594682 
L 467.250311 357.313991 
L 471.507574 359.071505 
L 474.913384 360.206685 
L 479.170647 361.304112 
L 485.130815 362.496659 
L 493.645341 363.769554 
L 503.862771 365.014717 
L 511.525845 365.60895 
L 517.486012 365.825986 
L 520.891823 365.872316 
L 520.891823 365.872316 
" clip-path="url(#p8298938ddd)" style="fill: none; stroke-dasharray: 8.4,2.1,1.3125,2.1; stroke-dashoffset: 0; stroke: #7570b3; stroke-width: 1.3125"/>
   </g>
   <g id="patch_3">
    <path d="M 23.76 381.56 
L 547.375099 381.56 
" style="fill: none; stroke: #333333; stroke-width: 1.5; stroke-linejoin: miter; stroke-linecap: square"/>
   </g>
   <g id="text_6">
    <!-- $\sigma$ -->
    <g style="fill: #262626" transform="translate(275.967549 46.579687)">
     <text>
      <tspan x="0" y="-0.578125" style="font-style: oblique; font-size: 30px; font-family: 'DejaVu Sans'; fill: #262626">σ</tspan>
     </text>
    </g>
   </g>
  </g>
 </g>
 <defs>
  <clipPath id="p8298938ddd">
   <rect x="23.76" y="52.81875" width="523.615099" height="328.74125"/>
  </clipPath>
 </defs>
</svg>
