<?xml version="1.0" encoding="utf-8" standalone="no"?>
<!DOCTYPE svg PUBLIC "-//W3C//DTD SVG 1.1//EN"
  "http://www.w3.org/Graphics/SVG/1.1/DTD/svg11.dtd">
<svg xmlns:xlink="http://www.w3.org/1999/xlink" width="576pt" height="432pt" viewBox="0 0 576 432" xmlns="http://www.w3.org/2000/svg" version="1.1">
 <metadata>
  <rdf:RDF xmlns:dc="http://purl.org/dc/elements/1.1/" xmlns:cc="http://creativecommons.org/ns#" xmlns:rdf="http://www.w3.org/1999/02/22-rdf-syntax-ns#">
   <cc:Work>
    <dc:type rdf:resource="http://purl.org/dc/dcmitype/StillImage"/>
    <dc:date>2026-03-13T22:47:57.556530</dc:date>
    <dc:format>image/svg+xml</dc:format>
    <dc:creator>
     <cc:Agent>
      <dc:title>Matplotlib v3.10.6, https://matplotlib.org/</dc:title>
     </cc:Agent>
    </dc:creator>
   </cc:Work>
  </rdf:RDF>
 </metadata>
 <defs>
  <style type="text/css">*{stroke-linejoin: round; stroke-linecap: butt}</style>
 </defs>
 <g id="figure_1">
  <g id="patch_1">
   <path d="M 0 432 
L 576 432 
L 576 0 
L 0 0 
L 0 432 
z
" style="fill: none; opacity: 0"/>
  </g>
  <g id="axes_1">
   <g id="patch_2">
    <path d="M 23.76 381.56 
L 552.24 381.56 
L 552.24 59.928 
L 23.76 59.928 
L 23.76 381.56 
z
" style="fill: none"/>
   </g>
   <g id="matplotlib.axis_1">
    <g id="xtick_1">
     <g id="line2d_1">
      <path d="M 98.211467 381.56 
L 98.211467 59.928 
" clip-path="url(#pf65866fbac)" style="fill: none; stroke: #cccccc; stroke-opacity: 0.4; stroke-linecap: round"/>
     </g>
     <g id="line2d_2"/>
     <g id="text_1">
      <text style="font-size: 20px; font-family: 'DejaVu Serif', 'Times New Roman', serif; text-anchor: middle; fill: #262626" x="98.211467" y="403.756875" transform="rotate(-0 98.211467 403.756875)">−0.27</text>
     </g>
    </g>
    <g id="xtick_2">
     <g id="line2d_3">
      <path d="M 181.756874 381.56 
L 181.756874 59.928 
" clip-path="url(#pf65866fbac)" style="fill: none; stroke: #cccccc; stroke-opacity: 0.4; stroke-linecap: round"/>
     </g>
     <g id="line2d_4"/>
     <g id="text_2">
      <text style="font-size: 20px; font-family: 'DejaVu Serif', 'Times New Roman', serif; text-anchor: middle; fill: #262626" x="181.756874" y="403.756875" transform="rotate(-0 181.756874 403.756875)">−0.26</text>
     </g>
    </g>
    <g id="xtick_3">
     <g id="line2d_5">
      <path d="M 265.302282 381.56 
L 265.302282 59.928 
" clip-path="url(#pf65866fbac)" style="fill: none; stroke: #cccccc; stroke-opacity: 0.4; stroke-linecap: round"/>
     </g>
     <g id="line2d_6"/>
     <g id="text_3">
      <text style="font-size: 20px; font-family: 'DejaVu Serif', 'Times New Roman', serif; text-anchor: middle; fill: #262626" x="265.302282" y="403.756875" transform="rotate(-0 265.302282 403.756875)">−0.25</text>
     </g>
    </g>
    <g id="xtick_4">
     <g id="line2d_7">
      <path d="M 348.84769 381.56 
L 348.84769 59.928 
" clip-path="url(#pf65866fbac)" style="fill: none; stroke: #cccccc; stroke-opacity: 0.4; stroke-linecap: round"/>
     </g>
     <g id="line2d_8"/>
     <g id="text_4">
      <text style="font-size: 20px; font-family: 'DejaVu Serif', 'Times New Roman', serif; text-anchor: middle; fill: #262626" x="348.84769" y="403.756875" transform="rotate(-0 348.84769 403.756875)">−0.24</text>
     </g>
    </g>
    <g id="xtick_5">
     <g id="line2d_9">
      <path d="M 432.393097 381.56 
L 432.393097 59.928 
" clip-path="url(#pf65866fbac)" style="fill: none; stroke: #cccccc; stroke-opacity: 0.4; stroke-linecap: round"/>
     </g>
     <g id="line2d_10"/>
     <g id="text_5">
      <text style="font-size: 20px; font-family: 'DejaVu Serif', 'Times New Roman', serif; text-anchor: middle; fill: #262626" x="432.393097" y="403.756875" transform="rotate(-0 432.393097 403.756875)">−0.23</text>
     </g>
    </g>
    <g id="xtick_6">
     <g id="line2d_11">
      <path d="M 515.938505 381.56 
L 515.938505 59.928 
" clip-path="url(#pf65866fbac)" style="fill: none; stroke: #cccccc; stroke-opacity: 0.4; stroke-linecap: round"/>
     </g>
     <g id="line2d_12"/>
     <g id="text_6">
      <text style="font-size: 20px; font-family: 'DejaVu Serif', 'Times New Roman', serif; text-anchor: middle; fill: #262626" x="515.938505" y="403.756875" transform="rotate(-0 515.938505 403.756875)">−0.22</text>
     </g>
    </g>
   </g>
   <g id="matplotlib.axis_2">
    <g id="ytick_1">
     <g id="line2d_13">
      <path d="M 23.76 367.696062 
L 552.24 367.696062 
" clip-path="url(#pf65866fbac)" style="fill: none; stroke: #cccccc; stroke-opacity: 0.4; stroke-linecap: round"/>
     </g>
    </g>
    <g id="ytick_2">
     <g id="line2d_14">
      <path d="M 23.76 312.789007 
L 552.24 312.789007 
" clip-path="url(#pf65866fbac)" style="fill: none; stroke: #cccccc; stroke-opacity: 0.4; stroke-linecap: round"/>
     </g>
    </g>
    <g id="ytick_3">
     <g id="line2d_15">
      <path d="M 23.76 257.881951 
L 552.24 257.881951 
" clip-path="url(#pf65866fbac)" style="fill: none; stroke: #cccccc; stroke-opacity: 0.4; stroke-linecap: round"/>
     </g>
    </g>
    <g id="ytick_4">
     <g id="line2d_16">
      <path d="M 23.76 202.974896 
L 552.24 202.974896 
" clip-path="url(#pf65866fbac)" style="fill: none; stroke: #cccccc; stroke-opacity: 0.4; stroke-linecap: round"/>
     </g>
    </g>
    <g id="ytick_5">
     <g id="line2d_17">
      <path d="M 23.76 148.06784 
L 552.24 148.06784 
" clip-path="url(#pf65866fbac)" style="fill: none; stroke: #cccccc; stroke-opacity: 0.4; stroke-linecap: round"/>
     </g>
    </g>
    <g id="ytick_6">
     <g id="line2d_18">
      <path d="M 23.76 93.160785 
L 552.24 93.160785 
" clip-path="url(#pf65866fbac)" style="fill: none; stroke: #cccccc; stroke-opacity: 0.4; stroke-linecap: round"/>
     </g>
    </g>
   </g>
   <g id="line2d_19">
    <path d="M 51.985646 362.878014 
L 56.142292 362.778459 
L 61.130268 362.363803 
L 65.286914 361.789768 
L 69.443561 360.951849 
L 75.262866 359.422393 
L 79.419512 358.082611 
L 83.576159 356.537881 
L 89.395464 354.058872 
L 94.383439 351.534685 
L 98.540086 349.109372 
L 102.696732 346.342478 
L 106.022049 343.77752 
L 109.347367 340.834742 
L 112.672684 337.590182 
L 115.998001 333.932972 
L 119.323318 329.905646 
L 121.817306 326.638053 
L 125.973952 320.809487 
L 130.961928 313.034599 
L 135.118575 306.088324 
L 140.10655 297.245584 
L 145.094526 288.090285 
L 154.239148 270.736085 
L 160.058453 259.762499 
L 165.046429 250.679406 
L 170.034405 242.210738 
L 175.022381 234.269612 
L 189.986308 211.28243 
L 192.480296 207.010503 
L 195.805613 200.977801 
L 199.13093 194.532662 
L 204.118906 183.964413 
L 217.420174 154.611906 
L 220.745492 147.945884 
L 223.239479 143.403931 
L 226.564797 137.885184 
L 229.058784 134.230426 
L 231.552772 130.951253 
L 234.04676 128.032595 
L 236.540748 125.521184 
L 239.866065 122.479101 
L 244.022712 119.209187 
L 247.348029 116.823031 
L 250.673346 114.53756 
L 256.492651 110.611845 
L 261.480627 107.627108 
L 263.974615 106.355668 
L 266.468603 105.315874 
L 268.131261 104.821329 
L 269.79392 104.488292 
L 272.287908 104.341792 
L 273.950566 104.455671 
L 275.613225 104.792821 
L 277.275883 105.34993 
L 279.769871 106.667534 
L 281.43253 107.800239 
L 283.095188 109.129143 
L 284.757847 110.763287 
L 287.251835 113.634077 
L 289.745823 117.00135 
L 292.239811 120.910653 
L 293.902469 123.675053 
L 297.227786 129.890812 
L 299.721774 135.100564 
L 303.878421 144.517298 
L 307.203738 152.699543 
L 313.023043 167.962864 
L 319.673677 185.96385 
L 324.661653 199.332154 
L 329.649629 212.132361 
L 336.300263 228.249393 
L 343.782227 245.199794 
L 349.601532 257.745188 
L 355.420837 269.783801 
L 362.9028 284.543531 
L 367.059447 292.309154 
L 372.047423 301.363113 
L 377.866728 311.351508 
L 383.686033 320.726536 
L 387.842679 326.958225 
L 391.167996 331.608144 
L 395.324643 336.768829 
L 398.64996 340.419098 
L 401.975277 343.653107 
L 404.469265 345.762299 
L 406.963253 347.607545 
L 410.28857 349.727811 
L 413.613887 351.46142 
L 417.770534 353.228358 
L 421.92718 354.711024 
L 428.577814 356.625132 
L 443.541742 360.540564 
L 449.361047 361.77215 
L 453.517693 362.445756 
L 458.505669 362.983672 
L 463.493645 363.278599 
L 470.144279 363.422252 
L 476.794913 363.433662 
L 476.794913 363.433662 
" clip-path="url(#pf65866fbac)" style="fill: none; stroke: #7570b3; stroke-width: 1.3125; stroke-linecap: round"/>
   </g>
   <g id="line2d_20">
    <path d="M 62.656259 359.332088 
L 68.191424 359.206877 
L 72.145114 358.890554 
L 76.889541 358.17846 
L 80.052493 357.521715 
L 85.587658 355.79312 
L 87.959872 354.855201 
L 91.122824 353.402159 
L 95.076514 351.226773 
L 97.448727 349.68155 
L 100.611679 347.358201 
L 102.983893 345.404878 
L 106.937582 341.714064 
L 109.309796 339.199415 
L 111.68201 336.420688 
L 114.844962 332.434575 
L 118.007913 328.026409 
L 121.170865 323.243062 
L 125.915293 315.627029 
L 137.776361 296.149055 
L 144.893003 285.235554 
L 160.707761 261.630629 
L 165.452189 253.757798 
L 168.615141 248.10877 
L 173.359568 239.406965 
L 181.266947 224.266149 
L 192.337278 201.780263 
L 197.081706 191.333903 
L 200.244658 184.019819 
L 203.407609 176.282084 
L 207.361299 166.151939 
L 211.314989 155.557157 
L 218.43163 136.569677 
L 221.594582 128.653422 
L 223.966795 123.064006 
L 227.129747 116.237165 
L 229.501961 111.631737 
L 231.083437 108.877548 
L 232.664913 106.335111 
L 235.037126 103.099905 
L 236.618602 101.147782 
L 238.200078 99.545975 
L 240.572292 97.554792 
L 242.944506 96.070777 
L 245.316719 95.08903 
L 246.898195 94.710642 
L 249.270409 94.423775 
L 250.851885 94.401655 
L 253.224099 94.641359 
L 257.177788 95.680904 
L 260.34074 97.011002 
L 262.712954 98.233086 
L 265.085167 99.720495 
L 267.457381 101.483496 
L 270.620333 104.164295 
L 274.574023 108.291008 
L 277.736974 112.195582 
L 280.109188 115.60316 
L 282.481402 119.341907 
L 284.853616 123.458324 
L 287.225829 128.01814 
L 290.388781 134.658643 
L 294.342471 143.744852 
L 296.714684 149.654594 
L 301.459112 162.249704 
L 305.412802 173.325627 
L 316.483133 204.679215 
L 320.436822 215.100829 
L 324.390512 224.766966 
L 327.553464 231.8464 
L 329.925677 236.770332 
L 333.088629 242.812983 
L 335.460843 247.001304 
L 338.623795 252.146894 
L 342.577484 258.109295 
L 348.903388 266.839545 
L 363.13667 286.094218 
L 378.951429 308.451708 
L 383.695856 314.711493 
L 387.649546 319.634023 
L 393.184711 326.020874 
L 398.719877 332.017078 
L 403.464304 336.86233 
L 407.417994 340.707714 
L 412.953159 345.831903 
L 416.116111 348.531022 
L 420.069801 351.541844 
L 424.02349 354.189384 
L 427.186442 356.005103 
L 430.349394 357.532987 
L 433.512346 358.861792 
L 436.675297 359.953398 
L 439.047511 360.609997 
L 443.001201 361.472511 
L 446.95489 362.080251 
L 452.490056 362.631134 
L 459.606697 362.940683 
L 466.723338 362.991102 
L 466.723338 362.991102 
" clip-path="url(#pf65866fbac)" style="fill: none; stroke-dasharray: 1.3125,2.165625; stroke-dashoffset: 0; stroke: #7570b3; stroke-width: 1.3125"/>
   </g>
   <g id="line2d_21">
    <path d="M 51.755456 356.974942 
L 58.990491 356.852678 
L 64.617741 356.650596 
L 71.048884 356.180401 
L 76.676134 355.455868 
L 80.695598 354.72673 
L 84.715062 353.750824 
L 87.930634 352.720589 
L 90.342312 351.75728 
L 93.557884 350.242383 
L 96.773455 348.445286 
L 100.792919 345.712085 
L 103.204598 343.836552 
L 106.420169 341.071372 
L 109.63574 337.942855 
L 112.851312 334.530106 
L 116.066883 330.776632 
L 120.086347 325.611752 
L 123.301919 321.17138 
L 126.51749 316.394646 
L 130.536954 310.011331 
L 135.360312 301.659941 
L 140.987561 291.285125 
L 149.02649 276.32031 
L 154.65374 266.433936 
L 160.28099 257.248379 
L 166.712132 247.159648 
L 173.143275 236.888865 
L 177.162739 230.095534 
L 181.986096 221.302848 
L 185.201668 215.094857 
L 190.828918 203.549486 
L 194.848382 194.897921 
L 200.475632 182.344687 
L 210.926239 158.861105 
L 214.945703 150.395561 
L 220.572953 139.627759 
L 223.788524 134.054214 
L 228.611881 126.382736 
L 235.846917 115.875955 
L 240.670274 109.414971 
L 243.081953 106.341608 
L 247.101417 101.631284 
L 248.709203 100.002326 
L 251.120881 97.856569 
L 252.728667 96.625458 
L 254.336452 95.621287 
L 255.944238 94.902009 
L 257.552024 94.421759 
L 259.15981 94.276602 
L 260.767595 94.373011 
L 262.375381 94.772677 
L 263.983167 95.418027 
L 265.590952 96.425552 
L 267.198738 97.723793 
L 268.806524 99.242346 
L 270.414309 101.013385 
L 272.825988 104.14553 
L 275.237666 107.733573 
L 277.649345 111.716192 
L 280.864916 117.656957 
L 284.080488 124.185742 
L 288.099952 132.871387 
L 292.923309 143.930684 
L 302.570023 166.216589 
L 306.589487 175.087625 
L 310.608952 183.564759 
L 315.432309 193.141167 
L 329.098487 219.699736 
L 333.921844 229.721359 
L 339.549094 242.004518 
L 353.215272 271.956914 
L 357.234737 280.091509 
L 360.450308 286.324644 
L 364.469772 293.67724 
L 368.489236 300.637134 
L 371.704808 305.873311 
L 376.528165 313.346255 
L 381.351522 320.274549 
L 384.567093 324.58204 
L 388.586557 329.577258 
L 391.802129 333.2459 
L 395.0177 336.589246 
L 398.233272 339.653447 
L 402.252736 343.054614 
L 404.664414 344.86048 
L 407.076093 346.527564 
L 411.89945 349.518222 
L 415.115021 351.2637 
L 420.742271 354.024075 
L 425.565628 356.045028 
L 429.585092 357.521791 
L 433.604557 358.733756 
L 436.820128 359.484871 
L 440.035699 360.070383 
L 444.055164 360.49355 
L 448.074628 360.656887 
L 453.701878 360.577228 
L 462.544699 360.374162 
L 462.544699 360.374162 
" clip-path="url(#pf65866fbac)" style="fill: none; stroke-dasharray: 4.85625,2.1; stroke-dashoffset: 0; stroke: #7570b3; stroke-width: 1.3125"/>
   </g>
   <g id="line2d_22">
    <path d="M 47.781818 364.701447 
L 53.42295 364.572431 
L 59.064081 364.178366 
L 62.824835 363.595064 
L 65.645401 362.975832 
L 68.465967 362.139724 
L 71.286533 361.064869 
L 75.047287 359.302456 
L 78.808041 357.205706 
L 84.449173 353.69603 
L 90.090304 350.17522 
L 94.791247 347.560674 
L 99.49219 345.28716 
L 108.894076 340.748941 
L 111.714642 339.023999 
L 113.595019 337.682245 
L 116.415584 335.283854 
L 118.295962 333.455144 
L 121.116527 330.213074 
L 122.996904 327.769606 
L 124.877282 325.044399 
L 127.697847 320.579258 
L 130.518413 315.615174 
L 134.279167 308.462108 
L 139.920299 296.816905 
L 150.262373 275.007894 
L 154.023128 267.494803 
L 157.783882 260.376086 
L 161.544636 253.690211 
L 165.30539 247.565316 
L 169.066145 241.882452 
L 172.826899 236.515764 
L 177.527842 230.140212 
L 180.348408 226.272677 
L 183.168973 222.17902 
L 185.989539 217.697652 
L 187.869916 214.463917 
L 190.690482 209.186523 
L 192.570859 205.23335 
L 195.391425 198.67107 
L 198.211991 191.444017 
L 201.032556 183.556312 
L 204.793311 172.274507 
L 209.494254 157.297236 
L 215.135385 139.393512 
L 219.836328 125.512104 
L 222.656894 117.882077 
L 225.47746 110.877033 
L 227.357837 106.541736 
L 230.178402 100.567293 
L 232.05878 96.945361 
L 234.879345 92.076673 
L 237.699911 87.778113 
L 239.580288 85.244047 
L 242.400854 81.900802 
L 244.281231 80.027253 
L 246.161608 78.401978 
L 248.041985 77.085384 
L 249.922363 75.996783 
L 251.80274 75.20359 
L 253.683117 74.698867 
L 255.563494 74.547636 
L 257.443871 74.707966 
L 258.38406 74.890939 
L 260.264437 75.570961 
L 262.144814 76.590369 
L 264.025191 78.022211 
L 265.905568 79.85366 
L 267.785946 82.117888 
L 269.666323 84.813321 
L 272.486888 89.484008 
L 274.367266 93.184136 
L 276.247643 97.18805 
L 279.068209 103.809378 
L 282.828963 113.702004 
L 285.649529 121.593535 
L 290.350471 135.251205 
L 294.111226 146.176191 
L 298.812169 159.389036 
L 311.03462 192.441989 
L 316.675752 207.85341 
L 324.19726 228.325206 
L 328.898203 240.299413 
L 332.658957 248.851612 
L 334.539335 252.785913 
L 337.3599 258.083472 
L 339.240278 261.305681 
L 341.120655 264.223252 
L 343.94122 268.210462 
L 346.761786 271.798162 
L 350.52254 276.21827 
L 356.163672 282.541051 
L 359.924426 287.043174 
L 363.685181 291.887954 
L 367.445935 297.246335 
L 372.146878 304.619595 
L 379.668386 317.249315 
L 384.369329 324.967281 
L 387.189895 329.347833 
L 390.950649 334.699259 
L 393.771215 338.338589 
L 396.591781 341.583403 
L 399.412347 344.481708 
L 403.173101 347.840974 
L 406.933855 350.740089 
L 409.754421 352.689292 
L 413.515175 355.082907 
L 418.216118 357.756047 
L 422.917061 360.157475 
L 426.677815 361.848905 
L 430.43857 363.308128 
L 434.199324 364.538389 
L 437.960078 365.487863 
L 440.780644 366.017799 
L 444.541398 366.514938 
L 449.242341 366.85109 
L 454.883473 366.929601 
L 463.34517 366.719433 
L 469.92649 366.520264 
L 477.447999 366.453789 
L 492.491016 366.452351 
L 498.132147 366.226012 
L 504.713467 365.734491 
L 523.517239 364.109377 
L 528.218182 363.990337 
L 528.218182 363.990337 
" clip-path="url(#pf65866fbac)" style="fill: none; stroke-dasharray: 8.4,2.1,1.3125,2.1; stroke-dashoffset: 0; stroke: #7570b3; stroke-width: 1.3125"/>
   </g>
   <g id="patch_3">
    <path d="M 23.76 381.56 
L 552.24 381.56 
" style="fill: none; stroke: #333333; stroke-width: 1.5; stroke-linejoin: miter; stroke-linecap: square"/>
   </g>
   <g id="text_7">
    <!-- $x_1^2x_3$ -->
    <g style="fill: #262626" transform="translate(255.3 51.528)">
     <text>
      <tspan x="0" y="-0.929688" style="font-style: oblique; font-size: 30px; font-family: 'DejaVu Sans'; fill: #262626">x</tspan>
      <tspan x="33.274902" y="-0.929688" style="font-style: oblique; font-size: 30px; font-family: 'DejaVu Sans'; fill: #262626">x</tspan>
      <tspan x="17.753906" y="7.273438" style="font-size: 21px; font-family: 'DejaVu Sans'; fill: #262626">1</tspan>
      <tspan x="19.09375" y="-12.414063" style="font-size: 21px; font-family: 'DejaVu Sans'; fill: #262626">2</tspan>
      <tspan x="51.028809" y="3.992188" style="font-size: 21px; font-family: 'DejaVu Sans'; fill: #262626">3</tspan>
     </text>
    </g>
   </g>
  </g>
 </g>
 <defs>
  <clipPath id="pf65866fbac">
   <rect x="23.76" y="59.928" width="528.48" height="321.632"/>
  </clipPath>
 </defs>
</svg>
