<?xml version="1.0" encoding="utf-8" standalone="no"?>
<!DOCTYPE svg PUBLIC "-//W3C//DTD SVG 1.1//EN"
  "http://www.w3.org/Graphics/SVG/1.1/DTD/svg11.dtd">
<svg xmlns:xlink="http://www.w3.org/1999/xlink" width="576pt" height="432pt" viewBox="0 0 576 432" xmlns="http://www.w3.org/2000/svg" version="1.1">
 <metadata>
  <rdf:RDF xmlns:dc="http://purl.org/dc/elements/1.1/" xmlns:cc="http://creativecommons.org/ns#" xmlns:rdf="http://www.w3.org/1999/02/22-rdf-syntax-ns#">
   <cc:Work>
    <dc:type rdf:resource="http://purl.org/dc/dcmitype/StillImage"/>
    <dc:date>2026-03-13T22:47:57.627010</dc:date>
    <dc:format>image/svg+xml</dc:format>
    <dc:creator>
     <cc:Agent>
      <dc:title>Matplotlib v3.10.6, https://matplotlib.org/</dc:title>
     </cc:Agent>
    </dc:creator>
   </cc:Work>
  </rdf:RDF>
 </metadata>
 <defs>
  <style type="text/css">*{stroke-linejoin: round; stroke-linecap: butt}</style>
 </defs>
 <g id="figure_1">
  <g id="patch_1">
   <path d="M 0 432 
L 576 432 
L 576 0 
L 0 0 
L 0 432 
z
" style="fill: none; opacity: 0"/>
  </g>
  <g id="axes_1">
   <g id="patch_2">
    <path d="M 23.76 381.56 
L 552.24 381.56 
L 552.24 59.928 
L 23.76 59.928 
L 23.76 381.56 
z
" style="fill: none"/>
   </g>
   <g id="matplotlib.axis_1">
    <g id="xtick_1">
     <g id="line2d_1">
      <path d="M 101.061311 381.56 
L 101.061311 59.928 
" clip-path="url(#pa67a4f3c74)" style="fill: none; stroke: #cccccc; stroke-opacity: 0.4; stroke-linecap: round"/>
     </g>
     <g id="line2d_2"/>
     <g id="text_1">
      <text style="font-size: 20px; font-family: 'DejaVu Serif', 'Times New Roman', serif; text-anchor: middle; fill: #262626" x="101.061311" y="403.756875" transform="rotate(-0 101.061311 403.756875)">−1.02</text>
     </g>
    </g>
    <g id="xtick_2">
     <g id="line2d_3">
      <path d="M 183.922474 381.56 
L 183.922474 59.928 
" clip-path="url(#pa67a4f3c74)" style="fill: none; stroke: #cccccc; stroke-opacity: 0.4; stroke-linecap: round"/>
     </g>
     <g id="line2d_4"/>
     <g id="text_2">
      <text style="font-size: 20px; font-family: 'DejaVu Serif', 'Times New Roman', serif; text-anchor: middle; fill: #262626" x="183.922474" y="403.756875" transform="rotate(-0 183.922474 403.756875)">−1.01</text>
     </g>
    </g>
    <g id="xtick_3">
     <g id="line2d_5">
      <path d="M 266.783638 381.56 
L 266.783638 59.928 
" clip-path="url(#pa67a4f3c74)" style="fill: none; stroke: #cccccc; stroke-opacity: 0.4; stroke-linecap: round"/>
     </g>
     <g id="line2d_6"/>
     <g id="text_3">
      <text style="font-size: 20px; font-family: 'DejaVu Serif', 'Times New Roman', serif; text-anchor: middle; fill: #262626" x="266.783638" y="403.756875" transform="rotate(-0 266.783638 403.756875)">−1.00</text>
     </g>
    </g>
    <g id="xtick_4">
     <g id="line2d_7">
      <path d="M 349.644801 381.56 
L 349.644801 59.928 
" clip-path="url(#pa67a4f3c74)" style="fill: none; stroke: #cccccc; stroke-opacity: 0.4; stroke-linecap: round"/>
     </g>
     <g id="line2d_8"/>
     <g id="text_4">
      <text style="font-size: 20px; font-family: 'DejaVu Serif', 'Times New Roman', serif; text-anchor: middle; fill: #262626" x="349.644801" y="403.756875" transform="rotate(-0 349.644801 403.756875)">−0.99</text>
     </g>
    </g>
    <g id="xtick_5">
     <g id="line2d_9">
      <path d="M 432.505964 381.56 
L 432.505964 59.928 
" clip-path="url(#pa67a4f3c74)" style="fill: none; stroke: #cccccc; stroke-opacity: 0.4; stroke-linecap: round"/>
     </g>
     <g id="line2d_10"/>
     <g id="text_5">
      <text style="font-size: 20px; font-family: 'DejaVu Serif', 'Times New Roman', serif; text-anchor: middle; fill: #262626" x="432.505964" y="403.756875" transform="rotate(-0 432.505964 403.756875)">−0.98</text>
     </g>
    </g>
    <g id="xtick_6">
     <g id="line2d_11">
      <path d="M 515.367128 381.56 
L 515.367128 59.928 
" clip-path="url(#pa67a4f3c74)" style="fill: none; stroke: #cccccc; stroke-opacity: 0.4; stroke-linecap: round"/>
     </g>
     <g id="line2d_12"/>
     <g id="text_6">
      <text style="font-size: 20px; font-family: 'DejaVu Serif', 'Times New Roman', serif; text-anchor: middle; fill: #262626" x="515.367128" y="403.756875" transform="rotate(-0 515.367128 403.756875)">−0.97</text>
     </g>
    </g>
   </g>
   <g id="matplotlib.axis_2">
    <g id="ytick_1">
     <g id="line2d_13">
      <path d="M 23.76 367.112351 
L 552.24 367.112351 
" clip-path="url(#pa67a4f3c74)" style="fill: none; stroke: #cccccc; stroke-opacity: 0.4; stroke-linecap: round"/>
     </g>
    </g>
    <g id="ytick_2">
     <g id="line2d_14">
      <path d="M 23.76 317.641361 
L 552.24 317.641361 
" clip-path="url(#pa67a4f3c74)" style="fill: none; stroke: #cccccc; stroke-opacity: 0.4; stroke-linecap: round"/>
     </g>
    </g>
    <g id="ytick_3">
     <g id="line2d_15">
      <path d="M 23.76 268.17037 
L 552.24 268.17037 
" clip-path="url(#pa67a4f3c74)" style="fill: none; stroke: #cccccc; stroke-opacity: 0.4; stroke-linecap: round"/>
     </g>
    </g>
    <g id="ytick_4">
     <g id="line2d_16">
      <path d="M 23.76 218.69938 
L 552.24 218.69938 
" clip-path="url(#pa67a4f3c74)" style="fill: none; stroke: #cccccc; stroke-opacity: 0.4; stroke-linecap: round"/>
     </g>
    </g>
    <g id="ytick_5">
     <g id="line2d_17">
      <path d="M 23.76 169.228389 
L 552.24 169.228389 
" clip-path="url(#pa67a4f3c74)" style="fill: none; stroke: #cccccc; stroke-opacity: 0.4; stroke-linecap: round"/>
     </g>
    </g>
    <g id="ytick_6">
     <g id="line2d_18">
      <path d="M 23.76 119.757399 
L 552.24 119.757399 
" clip-path="url(#pa67a4f3c74)" style="fill: none; stroke: #cccccc; stroke-opacity: 0.4; stroke-linecap: round"/>
     </g>
    </g>
    <g id="ytick_7">
     <g id="line2d_19">
      <path d="M 23.76 70.286408 
L 552.24 70.286408 
" clip-path="url(#pa67a4f3c74)" style="fill: none; stroke: #cccccc; stroke-opacity: 0.4; stroke-linecap: round"/>
     </g>
    </g>
   </g>
   <g id="line2d_20">
    <path d="M 111.616967 362.782496 
L 119.701191 362.679084 
L 123.375838 362.399775 
L 126.315556 361.968535 
L 129.255274 361.277417 
L 132.194992 360.360085 
L 135.134709 359.196825 
L 138.074427 357.814803 
L 142.484004 355.500316 
L 160.122311 345.47513 
L 163.062029 343.587879 
L 166.001747 341.375618 
L 168.206535 339.441059 
L 170.411324 337.216285 
L 172.616112 334.667935 
L 174.8209 331.844343 
L 177.025689 328.698354 
L 179.965407 324.098804 
L 184.374983 316.171692 
L 188.049631 308.831563 
L 190.989349 302.257896 
L 193.929066 295.079936 
L 196.868784 287.254994 
L 201.278361 274.74989 
L 204.953008 264.439503 
L 207.157797 258.811093 
L 209.362585 253.770539 
L 210.832444 250.837168 
L 212.302303 248.200728 
L 213.772162 245.936195 
L 215.242021 243.9868 
L 217.446809 241.590946 
L 219.651598 239.428002 
L 221.856386 237.418734 
L 223.326245 235.876532 
L 224.796104 234.198493 
L 227.000892 230.9858 
L 228.470751 228.429366 
L 229.205681 227.037846 
L 231.410469 222.036823 
L 233.615257 216.115337 
L 235.085116 211.664201 
L 237.289905 204.352748 
L 240.229622 193.523791 
L 243.16934 181.809712 
L 251.253564 148.127365 
L 254.193282 136.994335 
L 256.398071 129.531803 
L 257.86793 125.248072 
L 259.337789 121.545842 
L 260.807647 118.416672 
L 262.277506 116.118664 
L 263.747365 114.504983 
L 264.482295 113.923269 
L 265.217224 113.578408 
L 265.952154 113.375234 
L 266.687083 113.391295 
L 267.422013 113.531792 
L 268.891872 114.236314 
L 270.36173 115.500381 
L 271.831589 117.158304 
L 273.301448 119.142823 
L 278.445955 126.27678 
L 279.915813 127.733511 
L 281.385672 128.889228 
L 282.120602 129.243247 
L 282.855531 129.471812 
L 283.590461 129.558116 
L 285.06032 129.233376 
L 286.530179 128.387173 
L 288.000038 127.034198 
L 288.734967 126.150961 
L 292.409614 120.58534 
L 295.349332 115.74957 
L 297.554121 112.779338 
L 299.023979 111.27976 
L 300.493838 110.235721 
L 301.228768 109.967242 
L 301.963697 109.87607 
L 302.698627 109.92266 
L 303.433556 110.101985 
L 304.168486 110.450383 
L 305.638345 111.601082 
L 307.108204 113.307271 
L 308.578062 115.415495 
L 311.51778 120.649478 
L 316.662287 130.717052 
L 318.867075 134.636366 
L 321.071863 138.117191 
L 323.276652 141.237511 
L 332.095805 153.335539 
L 336.505382 160.71218 
L 342.384818 170.926441 
L 345.324536 175.382716 
L 348.999183 180.34211 
L 352.67383 185.126893 
L 354.878619 188.606931 
L 356.348477 191.280748 
L 357.818336 194.429775 
L 360.023125 200.08378 
L 361.492984 204.467838 
L 363.697772 212.025126 
L 366.63749 223.381705 
L 372.516926 247.081476 
L 374.721714 254.718145 
L 376.191573 259.201413 
L 377.661432 263.075761 
L 379.131291 266.332391 
L 380.60115 269.038141 
L 382.071009 271.193355 
L 383.540868 272.950494 
L 385.010726 274.439559 
L 390.155233 278.975211 
L 391.625092 280.624156 
L 393.094951 282.635366 
L 394.564809 284.892808 
L 396.034668 287.584619 
L 398.239457 292.132574 
L 400.444245 297.343861 
L 407.79354 314.918759 
L 409.998328 319.378547 
L 412.203117 323.17097 
L 413.672975 325.318062 
L 415.877764 328.018248 
L 418.082552 330.15032 
L 420.287341 331.872165 
L 422.492129 333.325925 
L 428.371565 336.821099 
L 433.516071 340.442736 
L 437.190718 343.449195 
L 448.21466 352.80967 
L 451.889308 355.441019 
L 454.829025 357.249635 
L 457.768743 358.865244 
L 461.443391 360.513815 
L 465.118038 361.817363 
L 468.057756 362.616361 
L 470.997474 363.194528 
L 474.672121 363.619875 
L 478.346768 363.773646 
L 487.165922 363.656146 
L 487.165922 363.656146 
" clip-path="url(#pa67a4f3c74)" style="fill: none; stroke: #7570b3; stroke-width: 1.3125; stroke-linecap: round"/>
   </g>
   <g id="line2d_21">
    <path d="M 87.550776 363.931002 
L 93.805226 363.899496 
L 101.623289 363.620508 
L 106.314126 363.147068 
L 110.223158 362.532784 
L 114.132189 361.661279 
L 117.259414 360.779052 
L 121.950252 359.164523 
L 128.986509 356.38155 
L 136.022765 353.519168 
L 146.186247 349.65695 
L 152.440697 346.801531 
L 155.567922 345.01488 
L 158.695147 342.936429 
L 161.822372 340.445468 
L 164.949597 337.555924 
L 168.076822 334.220351 
L 171.204048 330.538439 
L 175.113079 325.465634 
L 179.803917 318.795891 
L 184.494754 311.609172 
L 188.403786 305.430664 
L 192.312817 299.018849 
L 197.003655 290.890568 
L 200.912686 283.625905 
L 204.821718 275.739028 
L 208.730749 267.141904 
L 212.63978 257.831096 
L 216.548812 247.943634 
L 222.021456 233.610637 
L 225.148681 225.541963 
L 229.839518 214.079527 
L 234.530356 203.486951 
L 238.439388 195.453329 
L 241.566613 189.403082 
L 247.039257 179.377229 
L 262.675382 151.377521 
L 265.802607 146.338039 
L 269.711639 140.443528 
L 273.62067 135.206075 
L 277.529701 130.443219 
L 281.438733 125.996322 
L 290.820408 115.927757 
L 292.384021 114.395119 
L 294.72944 112.321547 
L 296.293052 111.097326 
L 298.638471 109.637489 
L 300.202084 108.959881 
L 301.765696 108.565945 
L 303.329309 108.396769 
L 304.892921 108.595457 
L 306.456534 109.096956 
L 308.020146 109.97651 
L 309.583759 111.175594 
L 311.147371 112.700821 
L 312.710984 114.627884 
L 314.274597 116.802764 
L 316.620015 120.636919 
L 318.965434 125.007249 
L 321.310853 129.602158 
L 332.256141 152.227234 
L 335.383366 158.09112 
L 338.510591 163.454385 
L 342.419623 169.714804 
L 351.019492 183.216392 
L 354.146717 188.630914 
L 356.492136 193.126776 
L 358.837554 198.069622 
L 361.96478 205.250753 
L 364.310198 211.133981 
L 367.437423 219.726599 
L 371.346455 231.222536 
L 384.637162 271.173891 
L 387.764387 279.424342 
L 390.891612 286.948953 
L 394.018837 293.663047 
L 396.364256 298.261827 
L 399.491481 303.802364 
L 402.618706 308.825461 
L 405.745931 313.368768 
L 408.873156 317.556239 
L 412.000381 321.415445 
L 415.127606 325.036978 
L 419.818444 329.971643 
L 422.163863 332.247972 
L 426.854701 336.357539 
L 429.981926 338.791553 
L 434.672763 342.136933 
L 437.799989 344.205851 
L 446.399858 349.464083 
L 452.654308 353.043214 
L 458.126952 355.883856 
L 462.817789 358.046465 
L 466.726821 359.490001 
L 470.635852 360.663959 
L 474.544884 361.542526 
L 479.235721 362.235217 
L 483.926559 362.600942 
L 487.053784 362.656837 
L 487.053784 362.656837 
" clip-path="url(#pa67a4f3c74)" style="fill: none; stroke-dasharray: 1.3125,2.165625; stroke-dashoffset: 0; stroke: #7570b3; stroke-width: 1.3125"/>
   </g>
   <g id="line2d_22">
    <path d="M 81.903851 365.012539 
L 92.77769 365.166585 
L 98.632834 365.142657 
L 102.81508 364.912822 
L 106.160876 364.517194 
L 109.506673 363.929216 
L 113.688919 362.905262 
L 117.871164 361.617244 
L 122.889859 359.833846 
L 140.455291 353.301067 
L 146.310435 351.062598 
L 149.656232 349.571207 
L 153.002029 347.848212 
L 155.511376 346.374748 
L 158.020724 344.720117 
L 160.530071 342.797614 
L 163.039418 340.641681 
L 164.712317 339.040956 
L 168.058113 335.497222 
L 170.567461 332.50548 
L 173.076808 329.23444 
L 176.422605 324.301808 
L 179.768401 318.8681 
L 183.114198 312.851969 
L 186.459995 306.353811 
L 190.64224 297.564616 
L 194.824486 288.131422 
L 203.188978 268.256409 
L 209.880571 252.456442 
L 215.735715 239.399703 
L 219.917961 230.603622 
L 224.936656 220.56848 
L 238.319842 193.679325 
L 244.174986 181.008247 
L 250.03013 168.245224 
L 254.212376 159.688196 
L 256.721723 154.939608 
L 259.231071 150.541423 
L 260.903969 147.930828 
L 263.413317 144.355345 
L 265.086215 142.284935 
L 267.595562 139.649085 
L 269.268461 138.119981 
L 271.777808 136.183325 
L 273.450706 135.115549 
L 275.123605 134.256416 
L 276.796503 133.593832 
L 280.1423 132.488291 
L 283.488096 131.804303 
L 294.361935 129.938592 
L 298.544181 128.87198 
L 306.072223 126.458551 
L 309.41802 125.651427 
L 311.927367 125.300398 
L 313.600266 125.264481 
L 315.273164 125.433362 
L 316.946062 125.802765 
L 318.618961 126.435284 
L 320.291859 127.330437 
L 321.964757 128.485459 
L 323.637656 129.888228 
L 325.310554 131.633625 
L 326.983452 133.661829 
L 329.4928 137.13813 
L 332.002147 141.249777 
L 334.511494 145.794311 
L 337.020842 150.812116 
L 340.366639 158.045408 
L 344.548884 167.819828 
L 350.404028 182.650466 
L 354.586274 193.773996 
L 362.950766 217.106291 
L 369.642359 235.536521 
L 373.824605 246.454361 
L 377.170401 254.602421 
L 381.352647 264.087274 
L 385.534893 272.827368 
L 390.553588 282.607742 
L 395.572283 291.929703 
L 400.590977 300.906394 
L 404.773223 308.106563 
L 408.11902 313.497913 
L 411.464816 318.516184 
L 414.810613 323.133616 
L 418.15641 327.196196 
L 420.665757 329.941725 
L 424.011554 333.230789 
L 427.35735 336.103806 
L 431.539596 339.282741 
L 436.558291 342.788432 
L 449.941477 351.694107 
L 456.633071 355.818691 
L 460.815316 358.118388 
L 464.997562 360.153511 
L 468.343359 361.5746 
L 471.689155 362.78319 
L 475.871401 364.000885 
L 479.217198 364.693591 
L 483.399443 365.258062 
L 487.581689 365.536006 
L 491.763935 365.575986 
L 499.291977 365.337601 
L 506.82002 365.093779 
L 509.329367 365.069635 
L 509.329367 365.069635 
" clip-path="url(#pa67a4f3c74)" style="fill: none; stroke-dasharray: 4.85625,2.1; stroke-dashoffset: 0; stroke: #7570b3; stroke-width: 1.3125"/>
   </g>
   <g id="line2d_23">
    <path d="M 47.781818 364.564026 
L 53.42295 364.698195 
L 79.74823 365.741657 
L 95.731436 366.088111 
L 102.312756 365.947534 
L 109.834264 365.562265 
L 119.23615 364.782485 
L 125.81747 363.974672 
L 130.518413 363.141484 
L 133.338979 362.463279 
L 137.099733 361.328359 
L 140.860487 359.832929 
L 144.621242 357.962448 
L 148.381996 355.687017 
L 151.202562 353.752109 
L 155.903505 350.190524 
L 162.484825 344.757311 
L 169.066145 339.335314 
L 176.587653 333.169987 
L 180.348408 330.015344 
L 185.049351 325.476274 
L 186.929728 323.465129 
L 189.750294 320.036644 
L 192.570859 316.159194 
L 194.451236 313.237249 
L 196.331614 310.049478 
L 199.152179 304.807808 
L 201.972745 298.808736 
L 204.793311 292.20078 
L 207.613877 284.837171 
L 211.374631 274.250989 
L 216.075574 260.124017 
L 225.47746 231.299094 
L 241.460665 183.508858 
L 246.161608 168.336563 
L 256.503683 134.297996 
L 260.264437 123.011846 
L 263.085003 115.279952 
L 265.905568 108.063996 
L 267.785946 103.623383 
L 271.5467 95.670498 
L 273.427077 92.050008 
L 275.307454 88.794672 
L 278.12802 84.307223 
L 280.948586 80.535987 
L 282.828963 78.515967 
L 284.70934 76.816196 
L 285.649529 76.114987 
L 287.529906 75.12443 
L 288.470094 74.791407 
L 289.410283 74.581312 
L 290.350471 74.547636 
L 291.29066 74.65063 
L 292.230849 74.916175 
L 293.171037 75.341914 
L 295.051414 76.677361 
L 296.931791 78.540547 
L 298.812169 81.015323 
L 299.752357 82.413812 
L 301.632734 85.747518 
L 303.513112 89.571781 
L 306.333677 96.053022 
L 309.154243 103.207562 
L 314.795374 118.238754 
L 321.376695 135.499849 
L 329.838392 157.01546 
L 340.180466 184.890097 
L 343.94122 195.003369 
L 346.761786 202.046238 
L 350.52254 210.335733 
L 353.343106 215.816594 
L 355.223483 219.065128 
L 358.044049 223.33273 
L 359.924426 225.922048 
L 371.206689 239.996376 
L 374.027255 244.013802 
L 377.788009 249.916216 
L 381.548764 256.424504 
L 385.309518 263.540313 
L 390.010461 273.243725 
L 393.771215 281.504053 
L 399.412347 294.58327 
L 407.874044 314.354431 
L 411.634798 322.461002 
L 414.455364 328.057274 
L 417.27593 333.026689 
L 420.096495 337.333842 
L 421.976872 339.868604 
L 423.85725 342.068666 
L 425.737627 344.00993 
L 427.618004 345.674103 
L 430.43857 347.695908 
L 432.318947 348.749324 
L 435.139513 350.105138 
L 438.900267 351.371045 
L 447.361964 353.985575 
L 454.883473 357.025495 
L 461.464793 360.190518 
L 465.225547 361.927618 
L 468.986301 363.431969 
L 472.747056 364.648112 
L 476.50781 365.544774 
L 480.268564 366.172779 
L 484.029319 366.587062 
L 489.67045 366.884112 
L 496.25177 366.919843 
L 502.83309 366.686214 
L 509.41441 366.205441 
L 525.397616 364.843177 
L 528.218182 364.781135 
L 528.218182 364.781135 
" clip-path="url(#pa67a4f3c74)" style="fill: none; stroke-dasharray: 8.4,2.1,1.3125,2.1; stroke-dashoffset: 0; stroke: #7570b3; stroke-width: 1.3125"/>
   </g>
   <g id="patch_3">
    <path d="M 23.76 381.56 
L 552.24 381.56 
" style="fill: none; stroke: #333333; stroke-width: 1.5; stroke-linejoin: miter; stroke-linecap: square"/>
   </g>
   <g id="text_7">
    <!-- $x_1^2$ -->
    <g style="fill: #262626" transform="translate(271.35 51.528)">
     <text>
      <tspan x="0" y="-0.929688" style="font-style: oblique; font-size: 30px; font-family: 'DejaVu Sans'; fill: #262626">x</tspan>
      <tspan x="17.753906" y="7.273438" style="font-size: 21px; font-family: 'DejaVu Sans'; fill: #262626">1</tspan>
      <tspan x="19.09375" y="-12.414063" style="font-size: 21px; font-family: 'DejaVu Sans'; fill: #262626">2</tspan>
     </text>
    </g>
   </g>
  </g>
 </g>
 <defs>
  <clipPath id="pa67a4f3c74">
   <rect x="23.76" y="59.928" width="528.48" height="321.632"/>
  </clipPath>
 </defs>
</svg>
