<?xml version="1.0" encoding="utf-8" standalone="no"?>
<!DOCTYPE svg PUBLIC "-//W3C//DTD SVG 1.1//EN"
  "http://www.w3.org/Graphics/SVG/1.1/DTD/svg11.dtd">
<svg xmlns:xlink="http://www.w3.org/1999/xlink" width="576pt" height="432pt" viewBox="0 0 576 432" xmlns="http://www.w3.org/2000/svg" version="1.1">
 <metadata>
  <rdf:RDF xmlns:dc="http://purl.org/dc/elements/1.1/" xmlns:cc="http://creativecommons.org/ns#" xmlns:rdf="http://www.w3.org/1999/02/22-rdf-syntax-ns#">
   <cc:Work>
    <dc:type rdf:resource="http://purl.org/dc/dcmitype/StillImage"/>
    <dc:date>2026-03-13T22:47:57.421656</dc:date>
    <dc:format>image/svg+xml</dc:format>
    <dc:creator>
     <cc:Agent>
      <dc:title>Matplotlib v3.10.6, https://matplotlib.org/</dc:title>
     </cc:Agent>
    </dc:creator>
   </cc:Work>
  </rdf:RDF>
 </metadata>
 <defs>
  <style type="text/css">*{stroke-linejoin: round; stroke-linecap: butt}</style>
 </defs>
 <g id="figure_1">
  <g id="patch_1">
   <path d="M 0 432 
L 576 432 
L 576 0 
L 0 0 
L 0 432 
z
" style="fill: none; opacity: 0"/>
  </g>
  <g id="axes_1">
   <g id="patch_2">
    <path d="M 44.476544 381.56 
L 552.24 381.56 
L 552.24 60.048 
L 44.476544 60.048 
L 44.476544 381.56 
z
" style="fill: none"/>
   </g>
   <g id="matplotlib.axis_1">
    <g id="xtick_1">
     <g id="line2d_1">
      <path d="M 53.483494 381.56 
L 53.483494 60.048 
" clip-path="url(#p605e9c85e0)" style="fill: none; stroke: #cccccc; stroke-opacity: 0.4; stroke-linecap: round"/>
     </g>
     <g id="line2d_2"/>
     <g id="text_1">
      <text style="font-size: 20px; font-family: 'DejaVu Serif', 'Times New Roman', serif; text-anchor: middle; fill: #262626" x="53.483494" y="403.756875" transform="rotate(-0 53.483494 403.756875)">0.085</text>
     </g>
    </g>
    <g id="xtick_2">
     <g id="line2d_3">
      <path d="M 140.057244 381.56 
L 140.057244 60.048 
" clip-path="url(#p605e9c85e0)" style="fill: none; stroke: #cccccc; stroke-opacity: 0.4; stroke-linecap: round"/>
     </g>
     <g id="line2d_4"/>
     <g id="text_2">
      <text style="font-size: 20px; font-family: 'DejaVu Serif', 'Times New Roman', serif; text-anchor: middle; fill: #262626" x="140.057244" y="403.756875" transform="rotate(-0 140.057244 403.756875)">0.090</text>
     </g>
    </g>
    <g id="xtick_3">
     <g id="line2d_5">
      <path d="M 226.630993 381.56 
L 226.630993 60.048 
" clip-path="url(#p605e9c85e0)" style="fill: none; stroke: #cccccc; stroke-opacity: 0.4; stroke-linecap: round"/>
     </g>
     <g id="line2d_6"/>
     <g id="text_3">
      <text style="font-size: 20px; font-family: 'DejaVu Serif', 'Times New Roman', serif; text-anchor: middle; fill: #262626" x="226.630993" y="403.756875" transform="rotate(-0 226.630993 403.756875)">0.095</text>
     </g>
    </g>
    <g id="xtick_4">
     <g id="line2d_7">
      <path d="M 313.204742 381.56 
L 313.204742 60.048 
" clip-path="url(#p605e9c85e0)" style="fill: none; stroke: #cccccc; stroke-opacity: 0.4; stroke-linecap: round"/>
     </g>
     <g id="line2d_8"/>
     <g id="text_4">
      <text style="font-size: 20px; font-family: 'DejaVu Serif', 'Times New Roman', serif; text-anchor: middle; fill: #262626" x="313.204742" y="403.756875" transform="rotate(-0 313.204742 403.756875)">0.100</text>
     </g>
    </g>
    <g id="xtick_5">
     <g id="line2d_9">
      <path d="M 399.778491 381.56 
L 399.778491 60.048 
" clip-path="url(#p605e9c85e0)" style="fill: none; stroke: #cccccc; stroke-opacity: 0.4; stroke-linecap: round"/>
     </g>
     <g id="line2d_10"/>
     <g id="text_5">
      <text style="font-size: 20px; font-family: 'DejaVu Serif', 'Times New Roman', serif; text-anchor: middle; fill: #262626" x="399.778491" y="403.756875" transform="rotate(-0 399.778491 403.756875)">0.105</text>
     </g>
    </g>
    <g id="xtick_6">
     <g id="line2d_11">
      <path d="M 486.352241 381.56 
L 486.352241 60.048 
" clip-path="url(#p605e9c85e0)" style="fill: none; stroke: #cccccc; stroke-opacity: 0.4; stroke-linecap: round"/>
     </g>
     <g id="line2d_12"/>
     <g id="text_6">
      <text style="font-size: 20px; font-family: 'DejaVu Serif', 'Times New Roman', serif; text-anchor: middle; fill: #262626" x="486.352241" y="403.756875" transform="rotate(-0 486.352241 403.756875)">0.110</text>
     </g>
    </g>
   </g>
   <g id="matplotlib.axis_2">
    <g id="ytick_1">
     <g id="line2d_13">
      <path d="M 44.476544 368.870907 
L 552.24 368.870907 
" clip-path="url(#p605e9c85e0)" style="fill: none; stroke: #cccccc; stroke-opacity: 0.4; stroke-linecap: round"/>
     </g>
    </g>
    <g id="ytick_2">
     <g id="line2d_14">
      <path d="M 44.476544 313.683249 
L 552.24 313.683249 
" clip-path="url(#p605e9c85e0)" style="fill: none; stroke: #cccccc; stroke-opacity: 0.4; stroke-linecap: round"/>
     </g>
    </g>
    <g id="ytick_3">
     <g id="line2d_15">
      <path d="M 44.476544 258.495591 
L 552.24 258.495591 
" clip-path="url(#p605e9c85e0)" style="fill: none; stroke: #cccccc; stroke-opacity: 0.4; stroke-linecap: round"/>
     </g>
    </g>
    <g id="ytick_4">
     <g id="line2d_16">
      <path d="M 44.476544 203.307933 
L 552.24 203.307933 
" clip-path="url(#p605e9c85e0)" style="fill: none; stroke: #cccccc; stroke-opacity: 0.4; stroke-linecap: round"/>
     </g>
    </g>
    <g id="ytick_5">
     <g id="line2d_17">
      <path d="M 44.476544 148.120275 
L 552.24 148.120275 
" clip-path="url(#p605e9c85e0)" style="fill: none; stroke: #cccccc; stroke-opacity: 0.4; stroke-linecap: round"/>
     </g>
    </g>
    <g id="ytick_6">
     <g id="line2d_18">
      <path d="M 44.476544 92.932617 
L 552.24 92.932617 
" clip-path="url(#p605e9c85e0)" style="fill: none; stroke: #cccccc; stroke-opacity: 0.4; stroke-linecap: round"/>
     </g>
    </g>
   </g>
   <g id="line2d_19">
    <path d="M 86.028592 359.874318 
L 92.098883 359.828422 
L 98.169174 359.622977 
L 102.505097 359.269657 
L 105.973834 358.778784 
L 109.442572 358.091848 
L 113.778494 356.936363 
L 118.981601 355.176807 
L 126.786261 351.964483 
L 134.590921 348.327969 
L 139.794028 345.719532 
L 144.12995 343.302571 
L 147.598688 341.228111 
L 151.93461 338.247741 
L 155.403348 335.593074 
L 158.872085 332.706306 
L 162.340823 329.591606 
L 166.676745 325.285342 
L 170.145483 321.565068 
L 173.614221 317.484763 
L 177.082959 313.103491 
L 180.551697 308.264018 
L 183.15325 304.302228 
L 186.621988 298.492249 
L 189.223541 293.693027 
L 192.692279 286.734104 
L 196.161017 279.145207 
L 199.629754 270.994804 
L 203.098492 262.322799 
L 206.56723 253.263422 
L 213.504705 234.432996 
L 221.309365 213.375676 
L 226.512472 200.040175 
L 230.848394 189.393221 
L 235.184317 179.415638 
L 237.78587 173.742488 
L 255.129559 136.849551 
L 269.871694 103.023137 
L 272.473248 97.686247 
L 275.074801 92.874686 
L 276.80917 90.089078 
L 278.543539 87.588873 
L 280.277908 85.516175 
L 282.012276 83.745749 
L 283.746645 82.47417 
L 285.481014 81.603803 
L 287.215383 81.186964 
L 288.949752 81.201453 
L 290.684121 81.564065 
L 292.41849 82.413311 
L 294.152859 83.554763 
L 295.887228 85.062916 
L 297.621596 86.828786 
L 299.355965 88.914393 
L 302.824703 93.629684 
L 307.160625 100.30532 
L 316.699654 115.598485 
L 320.168392 120.741523 
L 323.63713 125.465891 
L 329.707421 133.146154 
L 334.043343 138.617353 
L 338.379265 144.638287 
L 341.848003 150.16917 
L 344.449556 154.6531 
L 347.05111 159.745878 
L 349.652663 165.349895 
L 353.121401 173.58322 
L 356.590139 182.400436 
L 362.66043 198.941717 
L 368.730721 215.280305 
L 371.332274 221.886873 
L 373.933827 228.181463 
L 377.402565 235.930557 
L 380.871303 242.918702 
L 383.472856 247.752616 
L 386.941594 253.624441 
L 389.543147 257.795352 
L 401.68373 276.458818 
L 406.886836 285.179884 
L 412.089943 294.650394 
L 425.09771 319.189259 
L 428.566447 325.225851 
L 432.035185 330.792551 
L 435.503923 335.786053 
L 438.105476 339.139267 
L 440.70703 342.215984 
L 443.308583 344.936898 
L 445.910136 347.382848 
L 448.51169 349.58436 
L 451.113243 351.540229 
L 453.714796 353.260813 
L 456.31635 354.781335 
L 460.652272 356.939444 
L 464.988194 358.786373 
L 470.191301 360.596384 
L 475.394407 362.052228 
L 478.863145 362.872173 
L 484.066252 363.833073 
L 486.667805 364.214616 
L 491.870912 364.720101 
L 497.074018 364.950103 
L 503.14431 364.957762 
L 514.417707 364.683829 
L 525.691105 364.416429 
L 529.159843 364.388701 
L 529.159843 364.388701 
" clip-path="url(#p605e9c85e0)" style="fill: none; stroke: #7570b3; stroke-width: 1.3125; stroke-linecap: round"/>
   </g>
   <g id="line2d_20">
    <path d="M 67.556701 366.478362 
L 74.062328 366.595582 
L 84.633973 366.935166 
L 91.1396 366.870577 
L 96.018821 366.528789 
L 100.084838 366.014176 
L 105.777262 365.020341 
L 111.469686 363.649019 
L 115.535703 362.446798 
L 118.788516 361.264379 
L 122.04133 359.94342 
L 125.294144 358.321973 
L 128.546957 356.460155 
L 130.986568 354.841358 
L 134.239381 352.443071 
L 136.678992 350.434326 
L 139.931805 347.520139 
L 143.997823 343.486742 
L 148.06384 339.063489 
L 152.129857 334.325664 
L 157.009077 328.264128 
L 162.701501 320.658004 
L 166.767518 314.798703 
L 170.833536 308.582818 
L 174.899553 301.918599 
L 179.778773 293.481619 
L 185.471197 282.888432 
L 190.350418 273.295721 
L 195.229638 263.098841 
L 200.922062 250.776625 
L 207.42769 235.978658 
L 220.438944 206.526122 
L 229.384182 187.788881 
L 234.263403 177.548269 
L 239.142623 166.503008 
L 242.395437 158.635375 
L 245.64825 150.225781 
L 251.340674 134.745197 
L 258.659505 114.716619 
L 261.912319 106.431699 
L 265.165133 98.814266 
L 267.604743 93.680104 
L 270.044353 89.151908 
L 272.483963 85.203181 
L 274.923574 81.789741 
L 277.363184 78.963048 
L 278.989591 77.514163 
L 280.615998 76.325523 
L 282.242405 75.432607 
L 283.055608 75.10306 
L 284.682015 74.75175 
L 286.308422 74.662182 
L 287.121625 74.727125 
L 288.748032 75.158244 
L 290.374439 75.919591 
L 292.000846 76.978296 
L 293.627252 78.358569 
L 295.253659 80.051505 
L 296.880066 82.064569 
L 299.319676 85.401495 
L 302.57249 90.625712 
L 305.825304 96.57094 
L 317.210152 118.669832 
L 320.462965 124.461679 
L 325.342186 132.4037 
L 333.47422 144.813824 
L 336.727034 149.834869 
L 339.979848 155.320346 
L 342.419458 159.704624 
L 344.859068 164.525319 
L 348.111882 171.460671 
L 350.551492 177.22564 
L 353.804306 185.403035 
L 357.05712 194.196458 
L 366.002357 219.713503 
L 371.694781 235.523261 
L 374.947595 243.993931 
L 379.013612 254.014845 
L 383.079629 263.32147 
L 387.145646 271.927454 
L 392.024867 281.592071 
L 396.090884 289.182607 
L 400.156901 296.481446 
L 405.849325 306.033596 
L 409.102139 311.060804 
L 412.354952 315.769377 
L 415.607766 320.022686 
L 418.047376 322.943191 
L 420.486987 325.592461 
L 423.7398 328.798478 
L 426.179411 330.895002 
L 429.432224 333.322292 
L 431.871834 334.888118 
L 435.124648 336.759615 
L 439.190665 338.757298 
L 445.696293 341.63014 
L 457.894344 346.803376 
L 462.773565 348.883559 
L 469.279192 351.358944 
L 473.345209 352.595839 
L 476.598023 353.355368 
L 479.037633 353.760226 
L 481.477243 354.012593 
L 483.10365 354.092223 
L 483.10365 354.092223 
" clip-path="url(#p605e9c85e0)" style="fill: none; stroke-dasharray: 1.3125,2.165625; stroke-dashoffset: 0; stroke: #7570b3; stroke-width: 1.3125"/>
   </g>
   <g id="line2d_21">
    <path d="M 80.340292 364.365442 
L 89.652575 363.946999 
L 93.885431 363.51103 
L 99.81143 362.5555 
L 103.197715 361.740511 
L 107.430571 360.470574 
L 110.816856 359.13326 
L 114.20314 357.541 
L 117.589425 355.680122 
L 121.822281 352.909251 
L 126.055137 349.76334 
L 130.287993 346.295055 
L 134.520849 342.608862 
L 147.219417 330.822975 
L 155.685129 322.730693 
L 159.071414 319.3599 
L 163.30427 315.046243 
L 169.230269 308.634416 
L 172.616554 304.712173 
L 176.002838 300.496772 
L 179.389123 295.857947 
L 181.928837 291.983205 
L 184.46855 287.799179 
L 187.008264 283.200046 
L 190.394549 276.393447 
L 193.780834 268.742972 
L 196.320547 262.538955 
L 199.706832 253.659353 
L 203.939688 241.874353 
L 218.331399 200.960408 
L 222.564255 190.190893 
L 226.797111 180.158755 
L 230.183395 172.644383 
L 233.56968 165.679954 
L 236.955965 159.1325 
L 241.188821 151.437074 
L 245.421677 144.3997 
L 248.807962 139.194098 
L 253.040818 133.228498 
L 255.580532 129.886099 
L 260.659959 123.789602 
L 271.665385 111.532568 
L 285.210524 96.652149 
L 287.750237 94.369893 
L 289.44338 93.085299 
L 291.983093 91.379719 
L 293.676236 90.584916 
L 295.369378 90.010323 
L 297.062521 89.744944 
L 298.755663 89.837558 
L 300.448806 90.203004 
L 302.141948 90.889126 
L 303.83509 91.931727 
L 305.528233 93.345065 
L 307.221375 95.034876 
L 308.914518 97.098791 
L 310.60766 99.461577 
L 313.147374 103.567532 
L 315.687087 108.265936 
L 319.073372 115.274529 
L 323.306228 124.721492 
L 337.697939 158.017834 
L 343.623937 170.635634 
L 356.322505 197.325978 
L 360.555361 206.506699 
L 378.333356 245.47675 
L 385.105926 259.452324 
L 396.111352 282.064148 
L 405.423635 301.156165 
L 410.503062 310.968468 
L 413.889347 316.982853 
L 417.275632 322.555545 
L 420.661917 327.532504 
L 424.048202 331.955585 
L 427.434486 335.884507 
L 429.9742 338.538418 
L 433.360485 341.670378 
L 437.593341 345.053808 
L 440.979626 347.378816 
L 444.36591 349.42897 
L 448.598766 351.620454 
L 451.985051 353.101256 
L 455.371336 354.364063 
L 460.450763 355.922739 
L 464.683619 356.991673 
L 469.763047 358.141977 
L 484.154757 361.035708 
L 491.773898 362.297364 
L 497.699896 363.006497 
L 504.472466 363.492748 
L 510.398464 363.686179 
L 512.938178 363.711449 
L 512.938178 363.711449 
" clip-path="url(#p605e9c85e0)" style="fill: none; stroke-dasharray: 4.85625,2.1; stroke-dashoffset: 0; stroke: #7570b3; stroke-width: 1.3125"/>
   </g>
   <g id="line2d_22">
    <path d="M 89.186187 361.985677 
L 93.702386 361.941301 
L 98.971285 361.626397 
L 103.487484 361.066387 
L 107.250983 360.345227 
L 110.261782 359.551813 
L 114.025281 358.317961 
L 119.29418 356.215095 
L 144.133274 344.891672 
L 147.144073 343.16947 
L 149.402172 341.648814 
L 151.660272 339.926024 
L 153.918371 337.961694 
L 156.176471 335.712087 
L 158.43457 333.175193 
L 160.692669 330.340267 
L 162.950769 327.224734 
L 166.714268 321.534115 
L 171.230467 313.969195 
L 185.531763 289.227502 
L 199.08036 267.086183 
L 202.843859 259.950954 
L 205.854658 253.664806 
L 208.865457 246.6598 
L 211.123557 240.966451 
L 214.134356 232.86853 
L 217.145155 224.157343 
L 222.414054 208.110945 
L 229.188352 187.196652 
L 233.704551 173.940614 
L 237.46805 163.697388 
L 240.47885 156.224487 
L 243.489649 149.253384 
L 246.500448 142.96331 
L 249.511247 137.268655 
L 253.274746 130.824525 
L 257.038246 125.0468 
L 260.049045 120.716839 
L 267.576043 110.655017 
L 273.597641 103.364036 
L 276.608441 100.157784 
L 278.11384 98.720013 
L 281.12464 96.162784 
L 283.382739 94.741234 
L 286.393538 93.182436 
L 288.651638 92.37919 
L 290.157037 92.017615 
L 294.673236 91.356942 
L 303.705634 90.517091 
L 310.479932 89.41136 
L 312.738032 89.22326 
L 314.996131 89.22545 
L 316.501531 89.433285 
L 318.00693 89.846345 
L 319.51233 90.469528 
L 321.01773 91.305176 
L 322.523129 92.45599 
L 324.028529 93.90352 
L 325.533929 95.659061 
L 327.039328 97.713435 
L 328.544728 100.092399 
L 330.802827 104.336116 
L 333.060927 109.282618 
L 335.319026 114.986117 
L 337.577126 121.305861 
L 341.340625 133.101283 
L 345.104124 146.165054 
L 348.867623 159.928729 
L 356.394621 187.8853 
L 360.91082 203.502198 
L 363.921619 213.076571 
L 366.179719 219.718468 
L 369.190518 227.805147 
L 371.448617 233.356613 
L 374.459416 240.17988 
L 378.222916 247.814964 
L 384.244514 259.04324 
L 391.018812 271.79954 
L 394.782311 279.216787 
L 399.29851 288.389363 
L 406.072809 302.373264 
L 410.589008 311.279872 
L 414.352507 318.18413 
L 417.363306 323.311577 
L 420.374105 327.969951 
L 422.632205 331.184665 
L 425.643004 335.02131 
L 428.653803 338.401878 
L 430.911902 340.590388 
L 433.922702 343.119584 
L 436.180801 344.76419 
L 438.438901 346.175589 
L 441.4497 347.708869 
L 443.707799 348.619639 
L 447.471298 349.78408 
L 449.729398 350.327809 
L 453.492897 350.950092 
L 455.750996 351.175906 
L 460.267195 351.459136 
L 464.783394 351.55804 
L 473.815792 351.635091 
L 473.815792 351.635091 
" clip-path="url(#p605e9c85e0)" style="fill: none; stroke-dasharray: 8.4,2.1,1.3125,2.1; stroke-dashoffset: 0; stroke: #7570b3; stroke-width: 1.3125"/>
   </g>
   <g id="patch_3">
    <path d="M 44.476544 381.56 
L 552.24 381.56 
" style="fill: none; stroke: #333333; stroke-width: 1.5; stroke-linejoin: miter; stroke-linecap: square"/>
   </g>
   <g id="text_7">
    <!-- $x_1^3x_3$ -->
    <g style="fill: #262626" transform="translate(265.658272 51.648)">
     <text>
      <tspan x="0" y="-0.929688" style="font-style: oblique; font-size: 30px; font-family: 'DejaVu Sans'; fill: #262626">x</tspan>
      <tspan x="33.274902" y="-0.929688" style="font-style: oblique; font-size: 30px; font-family: 'DejaVu Sans'; fill: #262626">x</tspan>
      <tspan x="17.753906" y="7.273438" style="font-size: 21px; font-family: 'DejaVu Sans'; fill: #262626">1</tspan>
      <tspan x="19.09375" y="-12.414063" style="font-size: 21px; font-family: 'DejaVu Sans'; fill: #262626">3</tspan>
      <tspan x="51.028809" y="3.992188" style="font-size: 21px; font-family: 'DejaVu Sans'; fill: #262626">3</tspan>
     </text>
    </g>
   </g>
  </g>
 </g>
 <defs>
  <clipPath id="p605e9c85e0">
   <rect x="44.476544" y="60.048" width="507.763456" height="321.512"/>
  </clipPath>
 </defs>
</svg>
