<?xml version="1.0" encoding="utf-8" standalone="no"?>
<!DOCTYPE svg PUBLIC "-//W3C//DTD SVG 1.1//EN"
  "http://www.w3.org/Graphics/SVG/1.1/DTD/svg11.dtd">
<svg xmlns:xlink="http://www.w3.org/1999/xlink" width="576pt" height="432pt" viewBox="0 0 576 432" xmlns="http://www.w3.org/2000/svg" version="1.1">
 <metadata>
  <rdf:RDF xmlns:dc="http://purl.org/dc/elements/1.1/" xmlns:cc="http://creativecommons.org/ns#" xmlns:rdf="http://www.w3.org/1999/02/22-rdf-syntax-ns#">
   <cc:Work>
    <dc:type rdf:resource="http://purl.org/dc/dcmitype/StillImage"/>
    <dc:date>2026-03-13T22:47:57.845945</dc:date>
    <dc:format>image/svg+xml</dc:format>
    <dc:creator>
     <cc:Agent>
      <dc:title>Matplotlib v3.10.6, https://matplotlib.org/</dc:title>
     </cc:Agent>
    </dc:creator>
   </cc:Work>
  </rdf:RDF>
 </metadata>
 <defs>
  <style type="text/css">*{stroke-linejoin: round; stroke-linecap: butt}</style>
 </defs>
 <g id="figure_1">
  <g id="patch_1">
   <path d="M 0 432 
L 576 432 
L 576 0 
L 0 0 
L 0 432 
z
" style="fill: none; opacity: 0"/>
  </g>
  <g id="axes_1">
   <g id="patch_2">
    <path d="M 23.76 381.56 
L 541.65918 381.56 
L 541.65918 60.072 
L 23.76 60.072 
L 23.76 381.56 
z
" style="fill: none"/>
   </g>
   <g id="matplotlib.axis_1">
    <g id="xtick_1">
     <g id="line2d_1">
      <path d="M 103.559963 381.56 
L 103.559963 60.072 
" clip-path="url(#p90ccb51924)" style="fill: none; stroke: #cccccc; stroke-opacity: 0.4; stroke-linecap: round"/>
     </g>
     <g id="line2d_2"/>
     <g id="text_1">
      <text style="font-size: 20px; font-family: 'DejaVu Serif', 'Times New Roman', serif; text-anchor: middle; fill: #262626" x="103.559963" y="403.756875" transform="rotate(-0 103.559963 403.756875)">−0.04</text>
     </g>
    </g>
    <g id="xtick_2">
     <g id="line2d_3">
      <path d="M 188.466363 381.56 
L 188.466363 60.072 
" clip-path="url(#p90ccb51924)" style="fill: none; stroke: #cccccc; stroke-opacity: 0.4; stroke-linecap: round"/>
     </g>
     <g id="line2d_4"/>
     <g id="text_2">
      <text style="font-size: 20px; font-family: 'DejaVu Serif', 'Times New Roman', serif; text-anchor: middle; fill: #262626" x="188.466363" y="403.756875" transform="rotate(-0 188.466363 403.756875)">−0.02</text>
     </g>
    </g>
    <g id="xtick_3">
     <g id="line2d_5">
      <path d="M 273.372763 381.56 
L 273.372763 60.072 
" clip-path="url(#p90ccb51924)" style="fill: none; stroke: #cccccc; stroke-opacity: 0.4; stroke-linecap: round"/>
     </g>
     <g id="line2d_6"/>
     <g id="text_3">
      <text style="font-size: 20px; font-family: 'DejaVu Serif', 'Times New Roman', serif; text-anchor: middle; fill: #262626" x="273.372763" y="403.756875" transform="rotate(-0 273.372763 403.756875)">0.00</text>
     </g>
    </g>
    <g id="xtick_4">
     <g id="line2d_7">
      <path d="M 358.279162 381.56 
L 358.279162 60.072 
" clip-path="url(#p90ccb51924)" style="fill: none; stroke: #cccccc; stroke-opacity: 0.4; stroke-linecap: round"/>
     </g>
     <g id="line2d_8"/>
     <g id="text_4">
      <text style="font-size: 20px; font-family: 'DejaVu Serif', 'Times New Roman', serif; text-anchor: middle; fill: #262626" x="358.279162" y="403.756875" transform="rotate(-0 358.279162 403.756875)">0.02</text>
     </g>
    </g>
    <g id="xtick_5">
     <g id="line2d_9">
      <path d="M 443.185562 381.56 
L 443.185562 60.072 
" clip-path="url(#p90ccb51924)" style="fill: none; stroke: #cccccc; stroke-opacity: 0.4; stroke-linecap: round"/>
     </g>
     <g id="line2d_10"/>
     <g id="text_5">
      <text style="font-size: 20px; font-family: 'DejaVu Serif', 'Times New Roman', serif; text-anchor: middle; fill: #262626" x="443.185562" y="403.756875" transform="rotate(-0 443.185562 403.756875)">0.04</text>
     </g>
    </g>
    <g id="xtick_6">
     <g id="line2d_11">
      <path d="M 528.091962 381.56 
L 528.091962 60.072 
" clip-path="url(#p90ccb51924)" style="fill: none; stroke: #cccccc; stroke-opacity: 0.4; stroke-linecap: round"/>
     </g>
     <g id="line2d_12"/>
     <g id="text_6">
      <text style="font-size: 20px; font-family: 'DejaVu Serif', 'Times New Roman', serif; text-anchor: middle; fill: #262626" x="528.091962" y="403.756875" transform="rotate(-0 528.091962 403.756875)">0.06</text>
     </g>
    </g>
   </g>
   <g id="matplotlib.axis_2">
    <g id="ytick_1">
     <g id="line2d_13">
      <path d="M 23.76 371.586477 
L 541.65918 371.586477 
" clip-path="url(#p90ccb51924)" style="fill: none; stroke: #cccccc; stroke-opacity: 0.4; stroke-linecap: round"/>
     </g>
    </g>
    <g id="ytick_2">
     <g id="line2d_14">
      <path d="M 23.76 315.000779 
L 541.65918 315.000779 
" clip-path="url(#p90ccb51924)" style="fill: none; stroke: #cccccc; stroke-opacity: 0.4; stroke-linecap: round"/>
     </g>
    </g>
    <g id="ytick_3">
     <g id="line2d_15">
      <path d="M 23.76 258.415082 
L 541.65918 258.415082 
" clip-path="url(#p90ccb51924)" style="fill: none; stroke: #cccccc; stroke-opacity: 0.4; stroke-linecap: round"/>
     </g>
    </g>
    <g id="ytick_4">
     <g id="line2d_16">
      <path d="M 23.76 201.829384 
L 541.65918 201.829384 
" clip-path="url(#p90ccb51924)" style="fill: none; stroke: #cccccc; stroke-opacity: 0.4; stroke-linecap: round"/>
     </g>
    </g>
    <g id="ytick_5">
     <g id="line2d_17">
      <path d="M 23.76 145.243687 
L 541.65918 145.243687 
" clip-path="url(#p90ccb51924)" style="fill: none; stroke: #cccccc; stroke-opacity: 0.4; stroke-linecap: round"/>
     </g>
    </g>
    <g id="ytick_6">
     <g id="line2d_18">
      <path d="M 23.76 88.657989 
L 541.65918 88.657989 
" clip-path="url(#p90ccb51924)" style="fill: none; stroke: #cccccc; stroke-opacity: 0.4; stroke-linecap: round"/>
     </g>
    </g>
   </g>
   <g id="line2d_19">
    <path d="M 57.7292 358.28075 
L 62.512859 358.425607 
L 72.080177 359.144617 
L 76.863836 359.527668 
L 84.039324 359.781874 
L 87.22843 359.672344 
L 91.214813 359.280304 
L 94.403919 358.76883 
L 97.593025 357.994998 
L 99.984854 357.249017 
L 103.971236 355.67504 
L 106.363066 354.488853 
L 110.349448 352.221839 
L 113.538554 350.06965 
L 116.72766 347.596634 
L 120.714043 344.113219 
L 124.700425 340.19968 
L 129.484084 334.78911 
L 132.67319 330.804979 
L 135.862296 326.401372 
L 138.254125 322.876242 
L 141.443231 317.765726 
L 144.632337 312.177382 
L 147.024167 307.627841 
L 150.213273 301.214294 
L 154.199655 292.61545 
L 158.186038 283.482688 
L 164.56425 268.125559 
L 174.928844 242.935776 
L 184.496162 219.965542 
L 198.049862 188.472345 
L 202.036245 179.768874 
L 208.414456 166.625301 
L 218.779051 146.382127 
L 225.157263 133.754751 
L 229.940922 124.137735 
L 237.913686 108.408428 
L 242.697345 99.712322 
L 247.481004 91.909659 
L 249.872834 88.499923 
L 252.264663 85.380465 
L 253.859216 83.471404 
L 257.048322 80.153442 
L 258.642875 78.734212 
L 261.034705 77.043982 
L 262.629258 76.116963 
L 264.223811 75.434337 
L 265.818364 74.975753 
L 267.412917 74.72288 
L 269.00747 74.749482 
L 270.602022 75.032624 
L 272.196575 75.632627 
L 273.791128 76.482511 
L 275.385681 77.655461 
L 276.980234 79.133954 
L 278.574787 80.982099 
L 280.16934 83.098142 
L 282.56117 86.801473 
L 284.952999 91.252535 
L 287.344829 96.352603 
L 288.939382 100.093141 
L 292.128488 108.23071 
L 295.317594 117.116341 
L 300.898529 133.709133 
L 306.479464 150.295289 
L 310.465847 161.566045 
L 313.654953 170.129403 
L 316.844059 178.167876 
L 323.222271 193.536341 
L 336.775971 225.144768 
L 344.748736 243.886472 
L 349.532395 254.510048 
L 353.518777 262.68326 
L 356.707883 268.828072 
L 361.491542 277.482431 
L 368.667031 289.373176 
L 389.396219 322.090254 
L 394.179878 329.285752 
L 398.166261 334.94694 
L 401.355367 339.156887 
L 404.544472 343.029075 
L 407.733578 346.485041 
L 410.922684 349.526986 
L 413.314514 351.52416 
L 416.50362 353.823366 
L 419.692726 355.822269 
L 422.881832 357.523159 
L 427.665491 359.698795 
L 433.246426 361.876593 
L 438.827361 363.659279 
L 442.016467 364.503437 
L 446.800126 365.515209 
L 449.989232 365.993191 
L 453.975615 366.349853 
L 458.759274 366.574213 
L 465.137486 366.654839 
L 465.137486 366.654839 
" clip-path="url(#p90ccb51924)" style="fill: none; stroke: #7570b3; stroke-width: 1.3125; stroke-linecap: round"/>
   </g>
   <g id="line2d_20">
    <path d="M 63.9741 361.020003 
L 69.306517 360.830376 
L 74.638934 360.369147 
L 79.082615 359.712952 
L 82.63756 358.924509 
L 86.192505 357.907419 
L 88.858714 357.015334 
L 93.302395 355.137437 
L 95.968604 353.796325 
L 98.634812 352.308411 
L 103.078493 349.338141 
L 107.522174 345.887454 
L 110.188383 343.519771 
L 112.854592 340.927837 
L 116.409537 337.100827 
L 119.964481 332.857678 
L 123.519426 328.281613 
L 127.074371 323.334005 
L 130.629316 318.054468 
L 135.072997 310.963442 
L 140.405415 301.895765 
L 145.737832 292.268022 
L 154.625194 275.325494 
L 162.62382 259.56271 
L 175.954863 233.153192 
L 182.176017 220.555896 
L 190.174643 203.834951 
L 198.173269 187.300592 
L 203.505686 176.824911 
L 207.949367 168.766479 
L 211.504312 162.844101 
L 215.059257 157.324343 
L 217.725466 153.39809 
L 224.835356 143.676205 
L 230.167773 136.903218 
L 235.50019 130.496775 
L 238.166399 127.501507 
L 241.721344 123.92342 
L 244.387552 121.573171 
L 247.053761 119.681886 
L 248.831233 118.659101 
L 251.497442 117.501174 
L 254.163651 116.734881 
L 255.941123 116.492995 
L 258.607332 116.52092 
L 260.384804 116.741544 
L 263.051013 117.399036 
L 265.717222 118.443165 
L 268.38343 119.62283 
L 271.049639 121.044468 
L 274.604584 123.211413 
L 281.714474 128.068717 
L 284.380682 130.237162 
L 287.046891 132.517035 
L 291.490572 136.724653 
L 295.934253 141.705984 
L 299.489198 146.120368 
L 303.044143 150.860265 
L 307.487824 157.161058 
L 329.70623 190.102044 
L 335.038647 198.833796 
L 337.704856 203.604031 
L 341.2598 210.429034 
L 344.814745 217.8919 
L 347.480954 223.888029 
L 351.924635 234.656705 
L 356.368316 245.98517 
L 370.588096 282.987716 
L 375.031777 293.636351 
L 378.586722 301.539147 
L 382.141667 308.925244 
L 384.807875 314.12474 
L 388.36282 320.485728 
L 391.029029 324.90967 
L 394.583974 330.340637 
L 398.138919 335.153296 
L 401.693863 339.469077 
L 405.248808 343.303691 
L 407.915017 345.860012 
L 410.581226 348.133781 
L 414.136171 350.867677 
L 417.691115 353.194205 
L 422.134797 355.625226 
L 426.578478 357.651567 
L 430.133423 359.022915 
L 434.577104 360.540683 
L 439.909521 362.023799 
L 444.353202 363.050048 
L 450.574356 364.200075 
L 455.018037 364.832837 
L 460.350454 365.408035 
L 469.237816 365.981442 
L 483.457596 366.460609 
L 502.121056 366.899155 
L 518.118308 366.945843 
L 518.118308 366.945843 
" clip-path="url(#p90ccb51924)" style="fill: none; stroke-dasharray: 1.3125,2.165625; stroke-dashoffset: 0; stroke: #7570b3; stroke-width: 1.3125"/>
   </g>
   <g id="line2d_21">
    <path d="M 47.300872 365.33961 
L 55.415929 365.230695 
L 60.284964 364.979541 
L 64.342492 364.572548 
L 69.211527 363.770783 
L 73.269056 362.833291 
L 79.761101 360.993636 
L 94.368205 356.651086 
L 101.671756 354.894573 
L 104.917779 354.095451 
L 108.975308 352.885285 
L 112.221331 351.678139 
L 114.655848 350.54119 
L 117.090365 349.19369 
L 120.336388 346.989378 
L 123.582411 344.319157 
L 126.016929 341.982882 
L 128.451446 339.319639 
L 130.885963 336.296747 
L 134.131986 331.799898 
L 137.378009 326.769559 
L 139.812526 322.68936 
L 142.247043 318.297774 
L 146.304572 310.361272 
L 150.362101 301.669474 
L 154.41963 292.383268 
L 159.288664 280.623443 
L 165.78071 264.048801 
L 178.764802 229.627774 
L 186.068353 210.324657 
L 193.371905 191.642606 
L 198.24094 179.857286 
L 201.486962 172.341331 
L 205.544491 163.414366 
L 209.60202 155.213006 
L 212.848043 149.204017 
L 216.094066 143.66234 
L 219.340089 138.481754 
L 221.774606 134.908734 
L 224.209123 131.552237 
L 228.266652 126.420767 
L 230.701169 123.578569 
L 234.758698 119.159549 
L 238.004721 116.120578 
L 240.439238 114.001473 
L 243.685261 111.441934 
L 246.931284 109.223609 
L 249.365801 107.942688 
L 251.800318 106.955192 
L 254.234836 106.289806 
L 255.857847 106.063636 
L 257.480859 106.01595 
L 259.915376 106.256335 
L 261.538387 106.553122 
L 263.161399 107.031886 
L 265.595916 108.035419 
L 268.030433 109.371545 
L 269.653445 110.46723 
L 272.899468 113.033484 
L 276.145491 116.015028 
L 280.203019 120.235208 
L 285.072054 125.900258 
L 287.506571 128.849363 
L 293.187111 136.290698 
L 298.867651 144.4357 
L 302.92518 150.667403 
L 308.60572 159.981888 
L 337.819927 211.305366 
L 342.688961 220.637142 
L 346.74649 228.866789 
L 350.804019 237.62387 
L 354.861547 246.748084 
L 365.411122 270.627838 
L 371.903168 284.194493 
L 375.149191 290.449021 
L 379.20672 297.728004 
L 383.264248 304.403581 
L 388.133283 311.788445 
L 392.190811 317.506266 
L 397.059846 323.921933 
L 401.117375 328.888177 
L 404.363398 332.614611 
L 408.420926 336.915376 
L 412.478455 340.865738 
L 416.535984 344.430128 
L 421.405018 348.208144 
L 424.651041 350.442054 
L 428.70857 352.937037 
L 431.954593 354.682241 
L 436.012121 356.51784 
L 439.258144 357.774041 
L 442.504167 358.766398 
L 445.75019 359.558626 
L 448.996213 360.183415 
L 453.865248 360.720967 
L 459.545788 361.053372 
L 461.980305 361.105496 
L 461.980305 361.105496 
" clip-path="url(#p90ccb51924)" style="fill: none; stroke-dasharray: 4.85625,2.1; stroke-dashoffset: 0; stroke: #7570b3; stroke-width: 1.3125"/>
   </g>
   <g id="line2d_22">
    <path d="M 61.461062 359.023522 
L 63.845521 358.876743 
L 66.229981 358.577085 
L 69.40926 357.945667 
L 72.58854 357.075604 
L 76.562639 355.619116 
L 80.536738 353.856236 
L 84.510837 351.858702 
L 87.690116 350.157863 
L 94.843495 345.873347 
L 103.586513 340.272769 
L 109.945071 336.002099 
L 119.482909 329.288394 
L 122.662188 326.842342 
L 126.636288 323.488827 
L 129.020747 321.301191 
L 132.200026 318.090028 
L 135.379306 314.551975 
L 139.353405 309.617432 
L 141.737864 306.411528 
L 145.711963 300.657404 
L 148.891243 295.767591 
L 152.070522 290.652744 
L 156.839441 282.648336 
L 162.40318 272.976785 
L 165.582459 267.143553 
L 170.351378 257.563701 
L 173.530657 250.614069 
L 176.709936 243.086065 
L 179.889216 234.876847 
L 183.068495 226.050536 
L 186.247774 216.653957 
L 190.221874 204.431564 
L 195.785612 187.149865 
L 198.964892 177.71224 
L 202.144171 168.874087 
L 205.32345 160.863799 
L 207.70791 155.542485 
L 210.092369 150.780517 
L 212.476829 146.555805 
L 214.066468 144.080142 
L 217.245748 139.688852 
L 219.630207 136.913626 
L 222.014666 134.503998 
L 224.399126 132.310231 
L 229.168045 128.522471 
L 240.295522 120.917393 
L 244.269622 118.503021 
L 251.423 114.719886 
L 255.397099 113.004797 
L 259.371198 111.68375 
L 263.345297 110.758363 
L 266.524577 110.256833 
L 269.703856 110.014378 
L 272.883135 110.168652 
L 274.472775 110.401605 
L 277.652054 111.260731 
L 279.241694 111.854368 
L 280.831333 112.63572 
L 282.420973 113.577872 
L 284.805433 115.311857 
L 287.189892 117.521851 
L 289.574352 120.164263 
L 291.163991 122.202628 
L 293.548451 125.646552 
L 296.72773 131.031038 
L 299.112189 135.640906 
L 303.086289 144.232323 
L 306.265568 151.8961 
L 309.444847 159.953846 
L 317.393045 180.712133 
L 321.367144 190.552976 
L 324.546424 197.83519 
L 327.725703 204.512964 
L 330.110163 209.104448 
L 333.289442 214.76547 
L 338.853181 223.72757 
L 345.211739 233.852557 
L 348.391019 239.400073 
L 351.570298 245.430752 
L 354.749577 251.94613 
L 358.723676 260.924742 
L 364.287415 274.212544 
L 369.851154 287.374315 
L 373.825253 296.138764 
L 376.209712 301.018004 
L 378.594172 305.604295 
L 381.773451 311.190239 
L 384.95273 316.263008 
L 387.33719 319.766865 
L 390.516469 324.046332 
L 393.695748 328.077845 
L 399.259487 334.598584 
L 404.823226 340.585441 
L 408.797325 344.443002 
L 411.976604 347.344067 
L 415.155884 349.88054 
L 417.540343 351.611274 
L 420.719623 353.631677 
L 423.104082 354.967548 
L 426.283361 356.521102 
L 429.462641 357.83911 
L 434.23156 359.450529 
L 439.795298 360.974431 
L 445.359037 362.255467 
L 453.307235 363.678889 
L 459.665794 364.384698 
L 463.639893 364.659714 
L 467.613992 364.748744 
L 467.613992 364.748744 
" clip-path="url(#p90ccb51924)" style="fill: none; stroke-dasharray: 8.4,2.1,1.3125,2.1; stroke-dashoffset: 0; stroke: #7570b3; stroke-width: 1.3125"/>
   </g>
   <g id="patch_3">
    <path d="M 23.76 381.56 
L 541.65918 381.56 
" style="fill: none; stroke: #333333; stroke-width: 1.5; stroke-linejoin: miter; stroke-linecap: square"/>
   </g>
   <g id="text_7">
    <!-- $x_2^2x_3^2$ -->
    <g style="fill: #262626" transform="translate(249.40959 51.372)">
     <text>
      <tspan x="0" y="-0.929688" style="font-style: oblique; font-size: 30px; font-family: 'DejaVu Sans'; fill: #262626">x</tspan>
      <tspan x="33.274902" y="-0.929688" style="font-style: oblique; font-size: 30px; font-family: 'DejaVu Sans'; fill: #262626">x</tspan>
      <tspan x="17.753906" y="7.273438" style="font-size: 21px; font-family: 'DejaVu Sans'; fill: #262626">2</tspan>
      <tspan x="19.09375" y="-12.414063" style="font-size: 21px; font-family: 'DejaVu Sans'; fill: #262626">2</tspan>
      <tspan x="51.028809" y="7.273438" style="font-size: 21px; font-family: 'DejaVu Sans'; fill: #262626">3</tspan>
      <tspan x="52.368652" y="-12.414063" style="font-size: 21px; font-family: 'DejaVu Sans'; fill: #262626">2</tspan>
     </text>
    </g>
   </g>
  </g>
 </g>
 <defs>
  <clipPath id="p90ccb51924">
   <rect x="23.76" y="60.072" width="517.89918" height="321.488"/>
  </clipPath>
 </defs>
</svg>
