<?xml version="1.0" encoding="utf-8" standalone="no"?>
<!DOCTYPE svg PUBLIC "-//W3C//DTD SVG 1.1//EN"
  "http://www.w3.org/Graphics/SVG/1.1/DTD/svg11.dtd">
<svg xmlns:xlink="http://www.w3.org/1999/xlink" width="576pt" height="432pt" viewBox="0 0 576 432" xmlns="http://www.w3.org/2000/svg" version="1.1">
 <metadata>
  <rdf:RDF xmlns:dc="http://purl.org/dc/elements/1.1/" xmlns:cc="http://creativecommons.org/ns#" xmlns:rdf="http://www.w3.org/1999/02/22-rdf-syntax-ns#">
   <cc:Work>
    <dc:type rdf:resource="http://purl.org/dc/dcmitype/StillImage"/>
    <dc:date>2026-03-13T22:47:57.693486</dc:date>
    <dc:format>image/svg+xml</dc:format>
    <dc:creator>
     <cc:Agent>
      <dc:title>Matplotlib v3.10.6, https://matplotlib.org/</dc:title>
     </cc:Agent>
    </dc:creator>
   </cc:Work>
  </rdf:RDF>
 </metadata>
 <defs>
  <style type="text/css">*{stroke-linejoin: round; stroke-linecap: butt}</style>
 </defs>
 <g id="figure_1">
  <g id="patch_1">
   <path d="M 0 432 
L 576 432 
L 576 0 
L 0 0 
L 0 432 
z
" style="fill: none; opacity: 0"/>
  </g>
  <g id="axes_1">
   <g id="patch_2">
    <path d="M 23.76 381.56 
L 552.24 381.56 
L 552.24 59.928 
L 23.76 59.928 
L 23.76 381.56 
z
" style="fill: none"/>
   </g>
   <g id="matplotlib.axis_1">
    <g id="xtick_1">
     <g id="line2d_1">
      <path d="M 145.294143 381.56 
L 145.294143 59.928 
" clip-path="url(#pba73647301)" style="fill: none; stroke: #cccccc; stroke-opacity: 0.4; stroke-linecap: round"/>
     </g>
     <g id="line2d_2"/>
     <g id="text_1">
      <text style="font-size: 20px; font-family: 'DejaVu Serif', 'Times New Roman', serif; text-anchor: middle; fill: #262626" x="145.294143" y="403.756875" transform="rotate(-0 145.294143 403.756875)">−0.30</text>
     </g>
    </g>
    <g id="xtick_2">
     <g id="line2d_3">
      <path d="M 266.978709 381.56 
L 266.978709 59.928 
" clip-path="url(#pba73647301)" style="fill: none; stroke: #cccccc; stroke-opacity: 0.4; stroke-linecap: round"/>
     </g>
     <g id="line2d_4"/>
     <g id="text_2">
      <text style="font-size: 20px; font-family: 'DejaVu Serif', 'Times New Roman', serif; text-anchor: middle; fill: #262626" x="266.978709" y="403.756875" transform="rotate(-0 266.978709 403.756875)">−0.25</text>
     </g>
    </g>
    <g id="xtick_3">
     <g id="line2d_5">
      <path d="M 388.663275 381.56 
L 388.663275 59.928 
" clip-path="url(#pba73647301)" style="fill: none; stroke: #cccccc; stroke-opacity: 0.4; stroke-linecap: round"/>
     </g>
     <g id="line2d_6"/>
     <g id="text_3">
      <text style="font-size: 20px; font-family: 'DejaVu Serif', 'Times New Roman', serif; text-anchor: middle; fill: #262626" x="388.663275" y="403.756875" transform="rotate(-0 388.663275 403.756875)">−0.20</text>
     </g>
    </g>
    <g id="xtick_4">
     <g id="line2d_7">
      <path d="M 510.34784 381.56 
L 510.34784 59.928 
" clip-path="url(#pba73647301)" style="fill: none; stroke: #cccccc; stroke-opacity: 0.4; stroke-linecap: round"/>
     </g>
     <g id="line2d_8"/>
     <g id="text_4">
      <text style="font-size: 20px; font-family: 'DejaVu Serif', 'Times New Roman', serif; text-anchor: middle; fill: #262626" x="510.34784" y="403.756875" transform="rotate(-0 510.34784 403.756875)">−0.15</text>
     </g>
    </g>
   </g>
   <g id="matplotlib.axis_2">
    <g id="ytick_1">
     <g id="line2d_9">
      <path d="M 23.76 368.70066 
L 552.24 368.70066 
" clip-path="url(#pba73647301)" style="fill: none; stroke: #cccccc; stroke-opacity: 0.4; stroke-linecap: round"/>
     </g>
    </g>
    <g id="ytick_2">
     <g id="line2d_10">
      <path d="M 23.76 321.069736 
L 552.24 321.069736 
" clip-path="url(#pba73647301)" style="fill: none; stroke: #cccccc; stroke-opacity: 0.4; stroke-linecap: round"/>
     </g>
    </g>
    <g id="ytick_3">
     <g id="line2d_11">
      <path d="M 23.76 273.438811 
L 552.24 273.438811 
" clip-path="url(#pba73647301)" style="fill: none; stroke: #cccccc; stroke-opacity: 0.4; stroke-linecap: round"/>
     </g>
    </g>
    <g id="ytick_4">
     <g id="line2d_12">
      <path d="M 23.76 225.807887 
L 552.24 225.807887 
" clip-path="url(#pba73647301)" style="fill: none; stroke: #cccccc; stroke-opacity: 0.4; stroke-linecap: round"/>
     </g>
    </g>
    <g id="ytick_5">
     <g id="line2d_13">
      <path d="M 23.76 178.176962 
L 552.24 178.176962 
" clip-path="url(#pba73647301)" style="fill: none; stroke: #cccccc; stroke-opacity: 0.4; stroke-linecap: round"/>
     </g>
    </g>
    <g id="ytick_6">
     <g id="line2d_14">
      <path d="M 23.76 130.546038 
L 552.24 130.546038 
" clip-path="url(#pba73647301)" style="fill: none; stroke: #cccccc; stroke-opacity: 0.4; stroke-linecap: round"/>
     </g>
    </g>
    <g id="ytick_7">
     <g id="line2d_15">
      <path d="M 23.76 82.915113 
L 552.24 82.915113 
" clip-path="url(#pba73647301)" style="fill: none; stroke: #cccccc; stroke-opacity: 0.4; stroke-linecap: round"/>
     </g>
    </g>
   </g>
   <g id="line2d_16">
    <path d="M 64.265053 365.917463 
L 76.903477 365.820239 
L 81.958847 365.544827 
L 88.699341 364.727019 
L 93.75471 363.754211 
L 97.967519 362.744057 
L 103.86545 361.041014 
L 108.92082 359.310148 
L 113.97619 357.416509 
L 119.874122 354.933587 
L 125.772053 352.128669 
L 129.1423 350.356127 
L 134.19767 347.383862 
L 136.725355 345.703395 
L 139.25304 343.827733 
L 142.623286 340.98673 
L 145.993533 337.670168 
L 148.521218 334.93332 
L 151.891464 330.869755 
L 154.419149 327.527223 
L 157.789396 322.714458 
L 161.159643 317.516873 
L 164.529889 311.935547 
L 169.585259 302.760188 
L 173.798067 294.529243 
L 178.010876 285.778782 
L 182.223684 276.427326 
L 186.436492 266.388442 
L 190.6493 255.913843 
L 200.76004 229.372126 
L 209.185657 207.145775 
L 213.398465 196.466683 
L 219.296397 182.464112 
L 224.351766 171.223042 
L 230.249698 158.293985 
L 235.305068 146.91204 
L 240.360438 134.845784 
L 244.573246 124.282835 
L 253.841424 101.06252 
L 257.211671 93.564465 
L 259.739356 88.484515 
L 261.424479 85.525543 
L 263.109602 82.877967 
L 264.794726 80.584734 
L 267.322411 77.823777 
L 269.850096 75.871395 
L 271.535219 75.015865 
L 273.220342 74.616819 
L 274.905466 74.551423 
L 276.590589 74.830907 
L 278.275712 75.467396 
L 279.960836 76.419779 
L 281.645959 77.673032 
L 284.173644 80.00021 
L 286.701329 82.855743 
L 289.229014 85.951722 
L 291.756699 89.379261 
L 294.284384 92.92691 
L 303.552562 107.208872 
L 309.450493 117.252806 
L 312.82074 123.598184 
L 317.033548 132.336569 
L 320.403795 140.058448 
L 322.93148 146.156088 
L 327.144288 157.037225 
L 334.727343 177.402139 
L 340.625274 193.358953 
L 346.523206 208.542455 
L 352.421138 222.816952 
L 357.476508 234.224999 
L 362.531877 245.077222 
L 372.642617 265.791897 
L 390.336412 301.316973 
L 395.391782 310.519123 
L 398.762028 316.209668 
L 402.132275 321.496902 
L 405.502522 326.349225 
L 408.030207 329.668639 
L 410.557892 332.728638 
L 413.085577 335.516199 
L 416.455823 338.860206 
L 418.983508 341.03863 
L 422.353755 343.607782 
L 424.88144 345.283627 
L 428.251686 347.26277 
L 431.621933 348.931946 
L 434.99218 350.421984 
L 445.102919 354.526362 
L 455.213659 358.651414 
L 458.583906 360.00375 
L 464.481837 362.060623 
L 468.694646 363.259243 
L 472.064892 364.022569 
L 477.120262 364.84189 
L 482.175632 365.329662 
L 488.073564 365.546061 
L 494.814057 365.60598 
L 494.814057 365.60598 
" clip-path="url(#pba73647301)" style="fill: none; stroke: #7570b3; stroke-width: 1.3125; stroke-linecap: round"/>
   </g>
   <g id="line2d_17">
    <path d="M 47.781818 360.081995 
L 55.241631 360.265598 
L 64.359181 360.762535 
L 71.818994 361.123601 
L 76.792203 361.175195 
L 80.936543 361.009993 
L 85.080884 360.662339 
L 90.054093 360.015215 
L 95.85617 359.003797 
L 106.631456 356.634035 
L 113.262401 354.876683 
L 119.893346 352.780878 
L 123.208818 351.543875 
L 128.182027 349.352159 
L 132.326368 347.173523 
L 135.64184 345.121556 
L 138.128445 343.339408 
L 141.443917 340.609667 
L 143.930521 338.25951 
L 146.417126 335.604031 
L 148.90373 332.693189 
L 152.219203 328.346247 
L 154.705807 324.664568 
L 157.192412 320.672037 
L 159.679016 316.315925 
L 162.16562 311.604 
L 165.481093 304.820231 
L 168.796565 297.416204 
L 172.940906 287.422112 
L 176.256379 278.751778 
L 180.400719 267.295936 
L 186.202796 250.57728 
L 191.176005 236.263121 
L 194.491477 227.045847 
L 197.80695 218.527661 
L 200.293554 212.671017 
L 202.780159 207.34307 
L 205.266763 202.60767 
L 207.753368 198.311211 
L 210.239972 194.579187 
L 212.726576 191.235438 
L 216.870917 186.185411 
L 221.015258 181.214931 
L 223.501862 178.000801 
L 225.988466 174.43372 
L 228.475071 170.504016 
L 230.961675 166.138758 
L 233.44828 161.238233 
L 236.763752 154.253674 
L 241.736961 142.934198 
L 246.71017 131.810248 
L 249.196774 126.712843 
L 251.683379 122.067758 
L 254.169983 118.038097 
L 255.827719 115.705338 
L 257.485455 113.704828 
L 259.143192 112.004442 
L 260.800928 110.653372 
L 262.458664 109.544746 
L 264.116401 108.771455 
L 265.774137 108.396057 
L 267.431873 108.281654 
L 269.089609 108.469361 
L 270.747346 108.886014 
L 272.405082 109.571953 
L 274.062818 110.502089 
L 276.549422 112.197714 
L 279.864895 114.868483 
L 287.324708 121.785375 
L 291.469049 125.326348 
L 293.955653 127.197436 
L 298.928862 130.495801 
L 307.217543 135.445404 
L 310.533016 137.924159 
L 312.190752 139.436076 
L 314.677357 141.969438 
L 317.163961 145.027143 
L 319.650565 148.521255 
L 322.13717 152.505528 
L 325.452642 158.480298 
L 330.425851 168.310459 
L 341.201137 190.13654 
L 345.345477 197.879463 
L 353.634159 211.873635 
L 361.093972 223.995293 
L 366.067181 232.604573 
L 369.382653 238.790256 
L 373.526994 246.896962 
L 378.500203 257.250566 
L 383.473411 268.125764 
L 392.590961 288.563129 
L 397.56417 299.463723 
L 402.537378 309.840939 
L 405.852851 316.26273 
L 409.168324 322.239313 
L 412.483796 327.631531 
L 414.9704 331.277583 
L 417.457005 334.569043 
L 420.772477 338.355066 
L 423.259082 340.706321 
L 425.745686 342.807371 
L 428.232291 344.588544 
L 431.547763 346.620579 
L 436.520972 349.19792 
L 440.665313 351.071485 
L 446.467389 353.623966 
L 455.584939 357.439213 
L 459.72928 358.900361 
L 462.215884 359.619538 
L 466.360225 360.500899 
L 469.675697 360.907416 
L 471.333433 361.000258 
L 471.333433 361.000258 
" clip-path="url(#pba73647301)" style="fill: none; stroke-dasharray: 1.3125,2.165625; stroke-dashoffset: 0; stroke: #7570b3; stroke-width: 1.3125"/>
   </g>
   <g id="line2d_18">
    <path d="M 67.144853 363.493189 
L 83.386184 363.473956 
L 86.093072 363.292118 
L 90.604553 362.710375 
L 95.116034 361.763173 
L 98.725218 360.769261 
L 102.334403 359.575901 
L 106.845884 357.811315 
L 112.25966 355.275176 
L 115.868845 353.288803 
L 119.47803 351.061376 
L 123.98951 347.80863 
L 127.598695 344.862466 
L 131.207879 341.636122 
L 133.914768 339.033005 
L 137.523952 335.291809 
L 142.035433 330.31388 
L 144.742322 327.122664 
L 148.351506 322.545552 
L 151.960691 317.533867 
L 155.569875 312.000638 
L 158.276764 307.492643 
L 162.788244 299.040906 
L 165.495133 293.402991 
L 169.104317 285.258599 
L 173.615798 274.042656 
L 177.224983 264.537116 
L 188.954832 233.248161 
L 191.661721 226.747157 
L 194.368609 220.731396 
L 197.075498 215.368676 
L 199.782386 210.562005 
L 202.489275 206.372248 
L 205.196163 202.780223 
L 207.903051 199.652887 
L 209.707644 197.780788 
L 220.535197 187.34729 
L 223.242086 184.229232 
L 225.948974 180.783997 
L 227.753567 178.204313 
L 230.460455 174.023381 
L 233.167343 169.43393 
L 235.874232 164.486539 
L 250.31097 136.472429 
L 253.017859 131.774535 
L 255.724747 127.412559 
L 257.529339 124.819722 
L 259.333932 122.477763 
L 261.138524 120.395671 
L 262.943116 118.697426 
L 264.747708 117.225458 
L 266.552301 116.010403 
L 268.356893 115.127504 
L 271.063781 114.370104 
L 272.868374 114.16803 
L 276.477558 114.326905 
L 279.184447 114.83248 
L 287.305112 116.755325 
L 290.914296 117.323322 
L 293.621185 117.525141 
L 298.132666 117.34347 
L 303.546442 116.96694 
L 305.351035 116.98541 
L 308.057923 117.192442 
L 309.862515 117.630597 
L 311.667108 118.306094 
L 313.4717 119.235469 
L 315.276292 120.433707 
L 317.080885 122.053932 
L 318.885477 123.995232 
L 320.690069 126.289667 
L 323.396958 130.429138 
L 325.20155 133.628423 
L 327.006142 137.221977 
L 329.713031 143.213482 
L 332.419919 149.901079 
L 335.126807 157.100892 
L 340.540584 172.618698 
L 355.879619 216.611445 
L 362.195692 233.642457 
L 371.218653 257.821347 
L 383.850799 292.424404 
L 387.459984 301.845247 
L 391.069168 310.591781 
L 393.776057 316.593703 
L 396.482945 322.090751 
L 399.189834 327.029226 
L 401.896722 331.41299 
L 404.60361 335.182324 
L 406.408203 337.360397 
L 409.115091 340.118616 
L 410.919683 341.700432 
L 412.724276 343.060889 
L 415.431164 344.680414 
L 418.138053 345.961325 
L 420.844941 346.963503 
L 424.454125 347.963943 
L 428.965606 348.925921 
L 435.281679 350.11178 
L 438.890864 350.947709 
L 443.402344 352.238915 
L 447.011529 353.496583 
L 451.52301 355.266777 
L 457.839083 357.989867 
L 463.25286 360.311411 
L 468.666636 362.404386 
L 473.178117 363.887369 
L 476.787302 364.863251 
L 481.298782 365.816246 
L 485.810263 366.445985 
L 490.321744 366.805719 
L 493.930928 366.9279 
L 499.344705 366.865311 
L 504.758482 366.591659 
L 523.706701 365.422134 
L 528.218182 365.352404 
L 528.218182 365.352404 
" clip-path="url(#pba73647301)" style="fill: none; stroke-dasharray: 4.85625,2.1; stroke-dashoffset: 0; stroke: #7570b3; stroke-width: 1.3125"/>
   </g>
   <g id="line2d_19">
    <path d="M 77.765004 362.342144 
L 83.179921 362.214427 
L 91.689078 361.394467 
L 95.556876 360.760405 
L 99.424675 359.938344 
L 103.292473 358.867857 
L 107.160272 357.602125 
L 111.02807 356.129877 
L 114.122309 354.798785 
L 119.537227 352.235772 
L 123.405025 350.254695 
L 131.914182 345.146407 
L 136.55554 341.836982 
L 139.649779 339.298628 
L 141.970458 337.204846 
L 145.064696 334.095585 
L 148.158935 330.644485 
L 151.253174 326.79795 
L 155.120972 321.394515 
L 158.988771 315.49806 
L 163.630129 307.895944 
L 167.497927 301.231907 
L 174.459965 288.815705 
L 183.742681 271.267296 
L 189.157599 260.331417 
L 193.798957 250.184987 
L 198.440315 239.452029 
L 201.534554 231.866589 
L 209.270151 211.738481 
L 217.005747 190.347843 
L 227.835583 160.214933 
L 233.250501 146.226864 
L 235.57118 140.781818 
L 237.891859 135.646748 
L 240.212538 130.93175 
L 242.533217 126.758706 
L 244.853896 123.033204 
L 246.401016 120.839391 
L 247.948135 118.951739 
L 249.495254 117.290761 
L 251.042374 115.902955 
L 252.589493 114.74666 
L 254.136612 113.857271 
L 255.683732 113.212263 
L 257.230851 112.780535 
L 258.777971 112.598242 
L 260.32509 112.585897 
L 261.872209 112.706495 
L 264.192888 113.125893 
L 266.513567 113.724785 
L 274.249164 116.105794 
L 276.569843 116.530927 
L 279.664082 116.86264 
L 282.758321 116.754025 
L 285.85256 116.189806 
L 288.173239 115.657575 
L 291.267477 114.707667 
L 293.588157 113.989542 
L 297.455955 113.179366 
L 300.550194 113.010413 
L 302.097313 113.137252 
L 303.644432 113.455968 
L 305.965112 114.379651 
L 308.285791 115.739365 
L 310.60647 117.558918 
L 312.927149 119.891515 
L 314.474268 121.776874 
L 316.021387 123.869118 
L 318.342067 127.373083 
L 320.662746 131.352808 
L 322.983425 135.783813 
L 325.304104 140.582283 
L 328.398342 147.520253 
L 331.492581 155.088738 
L 336.133939 167.314232 
L 340.775297 180.388612 
L 345.416656 194.077372 
L 353.152252 217.64707 
L 360.11429 238.586362 
L 363.208528 247.461598 
L 367.076327 258.085068 
L 370.170566 266.006373 
L 373.264804 273.333194 
L 376.359043 280.026353 
L 378.679722 284.563771 
L 381.773961 290.037891 
L 384.8682 294.759962 
L 387.188879 297.852068 
L 389.509558 300.650816 
L 391.830237 303.067531 
L 394.924476 305.946204 
L 397.245155 307.838772 
L 401.112953 310.62215 
L 413.489908 319.309737 
L 420.451945 325.109024 
L 428.187542 332.017113 
L 433.60246 336.714345 
L 439.790938 341.627675 
L 443.658736 344.328383 
L 448.300094 347.234571 
L 452.941452 349.789206 
L 457.58281 351.95978 
L 460.677049 353.133589 
L 463.771288 354.104473 
L 466.865527 354.846218 
L 469.186206 355.214439 
L 473.054004 355.475461 
L 473.054004 355.475461 
" clip-path="url(#pba73647301)" style="fill: none; stroke-dasharray: 8.4,2.1,1.3125,2.1; stroke-dashoffset: 0; stroke: #7570b3; stroke-width: 1.3125"/>
   </g>
   <g id="patch_3">
    <path d="M 23.76 381.56 
L 552.24 381.56 
" style="fill: none; stroke: #333333; stroke-width: 1.5; stroke-linejoin: miter; stroke-linecap: square"/>
   </g>
   <g id="text_5">
    <!-- $x_2^2x_3$ -->
    <g style="fill: #262626" transform="translate(255.3 51.528)">
     <text>
      <tspan x="0" y="-0.929688" style="font-style: oblique; font-size: 30px; font-family: 'DejaVu Sans'; fill: #262626">x</tspan>
      <tspan x="33.274902" y="-0.929688" style="font-style: oblique; font-size: 30px; font-family: 'DejaVu Sans'; fill: #262626">x</tspan>
      <tspan x="17.753906" y="7.273438" style="font-size: 21px; font-family: 'DejaVu Sans'; fill: #262626">2</tspan>
      <tspan x="19.09375" y="-12.414063" style="font-size: 21px; font-family: 'DejaVu Sans'; fill: #262626">2</tspan>
      <tspan x="51.028809" y="3.992188" style="font-size: 21px; font-family: 'DejaVu Sans'; fill: #262626">3</tspan>
     </text>
    </g>
   </g>
  </g>
 </g>
 <defs>
  <clipPath id="pba73647301">
   <rect x="23.76" y="59.928" width="528.48" height="321.632"/>
  </clipPath>
 </defs>
</svg>
