<?xml version="1.0" encoding="utf-8" standalone="no"?>
<!DOCTYPE svg PUBLIC "-//W3C//DTD SVG 1.1//EN"
  "http://www.w3.org/Graphics/SVG/1.1/DTD/svg11.dtd">
<svg xmlns:xlink="http://www.w3.org/1999/xlink" width="576pt" height="432pt" viewBox="0 0 576 432" xmlns="http://www.w3.org/2000/svg" version="1.1">
 <metadata>
  <rdf:RDF xmlns:dc="http://purl.org/dc/elements/1.1/" xmlns:cc="http://creativecommons.org/ns#" xmlns:rdf="http://www.w3.org/1999/02/22-rdf-syntax-ns#">
   <cc:Work>
    <dc:type rdf:resource="http://purl.org/dc/dcmitype/StillImage"/>
    <dc:date>2026-03-13T22:47:57.768088</dc:date>
    <dc:format>image/svg+xml</dc:format>
    <dc:creator>
     <cc:Agent>
      <dc:title>Matplotlib v3.10.6, https://matplotlib.org/</dc:title>
     </cc:Agent>
    </dc:creator>
   </cc:Work>
  </rdf:RDF>
 </metadata>
 <defs>
  <style type="text/css">*{stroke-linejoin: round; stroke-linecap: butt}</style>
 </defs>
 <g id="figure_1">
  <g id="patch_1">
   <path d="M 0 432 
L 576 432 
L 576 0 
L 0 0 
L 0 432 
z
" style="fill: none; opacity: 0"/>
  </g>
  <g id="axes_1">
   <g id="patch_2">
    <path d="M 23.76 381.56 
L 542.029436 381.56 
L 542.029436 59.928 
L 23.76 59.928 
L 23.76 381.56 
z
" style="fill: none"/>
   </g>
   <g id="matplotlib.axis_1">
    <g id="xtick_1">
     <g id="line2d_1">
      <path d="M 61.649529 381.56 
L 61.649529 59.928 
" clip-path="url(#p37d24cb151)" style="fill: none; stroke: #cccccc; stroke-opacity: 0.4; stroke-linecap: round"/>
     </g>
     <g id="line2d_2"/>
     <g id="text_1">
      <text style="font-size: 20px; font-family: 'DejaVu Serif', 'Times New Roman', serif; text-anchor: middle; fill: #262626" x="61.649529" y="403.756875" transform="rotate(-0 61.649529 403.756875)">−1.03</text>
     </g>
    </g>
    <g id="xtick_2">
     <g id="line2d_3">
      <path d="M 137.755888 381.56 
L 137.755888 59.928 
" clip-path="url(#p37d24cb151)" style="fill: none; stroke: #cccccc; stroke-opacity: 0.4; stroke-linecap: round"/>
     </g>
     <g id="line2d_4"/>
     <g id="text_2">
      <text style="font-size: 20px; font-family: 'DejaVu Serif', 'Times New Roman', serif; text-anchor: middle; fill: #262626" x="137.755888" y="403.756875" transform="rotate(-0 137.755888 403.756875)">−1.02</text>
     </g>
    </g>
    <g id="xtick_3">
     <g id="line2d_5">
      <path d="M 213.862247 381.56 
L 213.862247 59.928 
" clip-path="url(#p37d24cb151)" style="fill: none; stroke: #cccccc; stroke-opacity: 0.4; stroke-linecap: round"/>
     </g>
     <g id="line2d_6"/>
     <g id="text_3">
      <text style="font-size: 20px; font-family: 'DejaVu Serif', 'Times New Roman', serif; text-anchor: middle; fill: #262626" x="213.862247" y="403.756875" transform="rotate(-0 213.862247 403.756875)">−1.01</text>
     </g>
    </g>
    <g id="xtick_4">
     <g id="line2d_7">
      <path d="M 289.968607 381.56 
L 289.968607 59.928 
" clip-path="url(#p37d24cb151)" style="fill: none; stroke: #cccccc; stroke-opacity: 0.4; stroke-linecap: round"/>
     </g>
     <g id="line2d_8"/>
     <g id="text_4">
      <text style="font-size: 20px; font-family: 'DejaVu Serif', 'Times New Roman', serif; text-anchor: middle; fill: #262626" x="289.968607" y="403.756875" transform="rotate(-0 289.968607 403.756875)">−1.00</text>
     </g>
    </g>
    <g id="xtick_5">
     <g id="line2d_9">
      <path d="M 366.074966 381.56 
L 366.074966 59.928 
" clip-path="url(#p37d24cb151)" style="fill: none; stroke: #cccccc; stroke-opacity: 0.4; stroke-linecap: round"/>
     </g>
     <g id="line2d_10"/>
     <g id="text_5">
      <text style="font-size: 20px; font-family: 'DejaVu Serif', 'Times New Roman', serif; text-anchor: middle; fill: #262626" x="366.074966" y="403.756875" transform="rotate(-0 366.074966 403.756875)">−0.99</text>
     </g>
    </g>
    <g id="xtick_6">
     <g id="line2d_11">
      <path d="M 442.181326 381.56 
L 442.181326 59.928 
" clip-path="url(#p37d24cb151)" style="fill: none; stroke: #cccccc; stroke-opacity: 0.4; stroke-linecap: round"/>
     </g>
     <g id="line2d_12"/>
     <g id="text_6">
      <text style="font-size: 20px; font-family: 'DejaVu Serif', 'Times New Roman', serif; text-anchor: middle; fill: #262626" x="442.181326" y="403.756875" transform="rotate(-0 442.181326 403.756875)">−0.98</text>
     </g>
    </g>
    <g id="xtick_7">
     <g id="line2d_13">
      <path d="M 518.287685 381.56 
L 518.287685 59.928 
" clip-path="url(#p37d24cb151)" style="fill: none; stroke: #cccccc; stroke-opacity: 0.4; stroke-linecap: round"/>
     </g>
     <g id="line2d_14"/>
     <g id="text_7">
      <text style="font-size: 20px; font-family: 'DejaVu Serif', 'Times New Roman', serif; text-anchor: middle; fill: #262626" x="518.287685" y="403.756875" transform="rotate(-0 518.287685 403.756875)">−0.97</text>
     </g>
    </g>
   </g>
   <g id="matplotlib.axis_2">
    <g id="ytick_1">
     <g id="line2d_15">
      <path d="M 23.76 369.035093 
L 542.029436 369.035093 
" clip-path="url(#p37d24cb151)" style="fill: none; stroke: #cccccc; stroke-opacity: 0.4; stroke-linecap: round"/>
     </g>
    </g>
    <g id="ytick_2">
     <g id="line2d_16">
      <path d="M 23.76 307.4502 
L 542.029436 307.4502 
" clip-path="url(#p37d24cb151)" style="fill: none; stroke: #cccccc; stroke-opacity: 0.4; stroke-linecap: round"/>
     </g>
    </g>
    <g id="ytick_3">
     <g id="line2d_17">
      <path d="M 23.76 245.865307 
L 542.029436 245.865307 
" clip-path="url(#p37d24cb151)" style="fill: none; stroke: #cccccc; stroke-opacity: 0.4; stroke-linecap: round"/>
     </g>
    </g>
    <g id="ytick_4">
     <g id="line2d_18">
      <path d="M 23.76 184.280414 
L 542.029436 184.280414 
" clip-path="url(#p37d24cb151)" style="fill: none; stroke: #cccccc; stroke-opacity: 0.4; stroke-linecap: round"/>
     </g>
    </g>
    <g id="ytick_5">
     <g id="line2d_19">
      <path d="M 23.76 122.695521 
L 542.029436 122.695521 
" clip-path="url(#p37d24cb151)" style="fill: none; stroke: #cccccc; stroke-opacity: 0.4; stroke-linecap: round"/>
     </g>
    </g>
    <g id="ytick_6">
     <g id="line2d_20">
      <path d="M 23.76 61.110627 
L 542.029436 61.110627 
" clip-path="url(#p37d24cb151)" style="fill: none; stroke: #cccccc; stroke-opacity: 0.4; stroke-linecap: round"/>
     </g>
    </g>
   </g>
   <g id="line2d_21">
    <path d="M 71.761122 363.266258 
L 95.264016 363.197542 
L 100.571122 362.894936 
L 105.120069 362.337984 
L 109.669017 361.517663 
L 113.459806 360.590408 
L 117.250596 359.488706 
L 123.315859 357.253664 
L 127.106648 355.575748 
L 130.897438 353.748137 
L 135.446385 351.220702 
L 139.237175 348.886342 
L 143.786122 345.700452 
L 146.818754 343.367325 
L 149.851385 340.844787 
L 154.400333 336.604415 
L 156.674806 334.267985 
L 160.465596 330.006519 
L 162.74007 327.21694 
L 166.530859 322.061484 
L 169.563491 317.424298 
L 171.837964 313.607835 
L 174.870596 308.065424 
L 177.903228 301.916944 
L 180.935859 295.259591 
L 184.726649 286.177309 
L 188.517438 276.478378 
L 196.857175 253.83708 
L 201.406123 241.415129 
L 209.74586 219.513067 
L 219.601912 194.866858 
L 230.974281 167.669485 
L 237.039544 154.019003 
L 242.346649 142.826572 
L 247.653755 132.34224 
L 252.202702 123.980662 
L 255.993492 117.554337 
L 262.058755 108.321771 
L 263.575071 106.276383 
L 267.36586 101.641359 
L 270.398492 98.361136 
L 271.914807 96.914858 
L 274.947439 94.372185 
L 277.980071 92.338887 
L 280.254544 91.077577 
L 281.77086 90.399372 
L 285.56165 89.230288 
L 287.077965 88.973601 
L 289.352439 88.78132 
L 292.385071 88.957979 
L 293.901387 89.194832 
L 296.934018 89.983669 
L 299.208492 90.77344 
L 300.724808 91.433811 
L 306.031913 94.336156 
L 308.306387 95.842982 
L 311.339018 98.138823 
L 313.613492 100.096086 
L 316.646124 103.084955 
L 318.920597 105.633147 
L 321.953229 109.59128 
L 324.227703 113.008164 
L 326.502176 116.880412 
L 328.77665 121.172986 
L 331.051124 125.98369 
L 333.325597 131.189279 
L 336.358229 138.798355 
L 339.390861 147.166011 
L 343.939808 160.643859 
L 347.730598 172.606556 
L 360.619282 213.819519 
L 364.410071 225.337257 
L 369.717177 240.541213 
L 373.507966 250.70602 
L 378.056914 262.269609 
L 383.364019 274.976637 
L 388.671124 287.24248 
L 394.736387 300.763268 
L 400.801651 313.528082 
L 404.59244 320.817199 
L 407.625072 326.158768 
L 410.657703 330.887243 
L 412.932177 334.031965 
L 414.448493 335.934888 
L 416.722967 338.469737 
L 418.99744 340.694517 
L 421.271914 342.539991 
L 423.546388 344.144177 
L 425.820861 345.492333 
L 428.853493 346.946813 
L 431.127967 347.768665 
L 436.435072 349.340298 
L 440.984019 350.291385 
L 447.049283 351.281196 
L 451.59823 351.812498 
L 456.147177 352.131192 
L 459.179809 352.21981 
L 459.179809 352.21981 
" clip-path="url(#p37d24cb151)" style="fill: none; stroke: #7570b3; stroke-width: 1.3125; stroke-linecap: round"/>
   </g>
   <g id="line2d_22">
    <path d="M 105.404176 358.653487 
L 109.445933 358.551684 
L 113.48769 358.160745 
L 116.721095 357.525082 
L 119.14615 356.89178 
L 122.379555 355.73265 
L 124.804609 354.593863 
L 127.229664 353.216906 
L 129.654718 351.551413 
L 132.079772 349.643905 
L 134.504826 347.498026 
L 137.738232 344.298952 
L 141.779988 339.819459 
L 145.821745 334.9694 
L 151.480205 327.953325 
L 157.138665 320.937531 
L 171.68899 303.034304 
L 175.730747 297.48115 
L 178.155801 293.809207 
L 182.197558 287.158394 
L 184.622612 282.748913 
L 187.856017 276.40773 
L 190.281072 271.259428 
L 193.514477 264.059719 
L 199.981288 248.74503 
L 208.064802 229.765343 
L 212.106559 220.926915 
L 215.339965 214.235033 
L 220.190073 204.807853 
L 224.23183 197.428458 
L 239.590506 170.002226 
L 249.290723 151.694677 
L 254.949183 140.730062 
L 261.415994 128.82766 
L 265.457751 122.049958 
L 267.882805 118.349137 
L 270.307859 114.919075 
L 272.732913 111.928942 
L 275.966319 108.437036 
L 279.199724 105.530962 
L 283.241481 102.599329 
L 286.474887 100.772916 
L 289.708292 99.123924 
L 294.5584 97.126193 
L 300.21686 95.106469 
L 305.87532 93.667044 
L 308.300374 93.206085 
L 310.725428 93.054832 
L 313.150482 93.181147 
L 315.575536 93.756482 
L 317.192239 94.352824 
L 318.808942 95.151246 
L 320.425645 96.199773 
L 322.850699 98.322237 
L 324.467402 100.038111 
L 326.084105 102.090474 
L 327.700807 104.543871 
L 329.31751 107.366488 
L 330.934213 110.563954 
L 332.550916 114.13443 
L 334.97597 120.18778 
L 337.401024 127.068891 
L 339.826078 134.800191 
L 342.251132 143.266199 
L 344.676186 152.316916 
L 347.909592 165.209182 
L 353.568052 188.987172 
L 359.226511 212.665086 
L 363.268268 228.466264 
L 365.693322 237.340403 
L 368.926728 248.290303 
L 371.351782 255.822136 
L 373.776836 262.68741 
L 376.20189 268.998758 
L 378.626945 274.747518 
L 381.051999 279.935258 
L 384.285404 286.167701 
L 387.51881 291.728774 
L 390.752215 296.855869 
L 393.985621 301.463046 
L 397.219027 305.784639 
L 401.260783 310.787644 
L 406.110892 316.374116 
L 410.961 321.408069 
L 415.002757 325.176631 
L 419.044514 328.571124 
L 422.277919 331.037331 
L 426.319676 333.928634 
L 431.169785 337.081539 
L 448.953515 347.878036 
L 456.228678 351.98541 
L 461.887137 354.813922 
L 466.737246 356.917066 
L 470.779003 358.393812 
L 474.82076 359.721407 
L 479.670868 361.004271 
L 483.712625 361.913452 
L 489.371085 362.902764 
L 495.029544 363.555793 
L 499.879653 363.84005 
L 507.963166 363.926496 
L 518.471734 363.86079 
L 518.471734 363.86079 
" clip-path="url(#p37d24cb151)" style="fill: none; stroke-dasharray: 1.3125,2.165625; stroke-dashoffset: 0; stroke: #7570b3; stroke-width: 1.3125"/>
   </g>
   <g id="line2d_23">
    <path d="M 47.317702 364.648929 
L 51.880262 364.810982 
L 56.442823 365.225048 
L 71.043017 366.830866 
L 74.693065 366.940364 
L 78.343114 366.837517 
L 81.993162 366.514599 
L 85.643211 365.972247 
L 89.293259 365.23782 
L 95.680844 363.613224 
L 108.456014 360.224553 
L 113.931086 359.153893 
L 130.356305 356.444598 
L 133.093841 355.686563 
L 135.831377 354.733655 
L 138.568914 353.453105 
L 142.218962 351.413988 
L 144.956499 349.558874 
L 147.694035 347.398838 
L 150.431571 344.958061 
L 153.169108 342.176557 
L 154.994132 340.15544 
L 158.64418 335.564643 
L 161.381717 331.668595 
L 165.031765 325.903973 
L 167.769302 321.115774 
L 171.41935 313.996438 
L 175.069398 306.199807 
L 177.806935 299.948387 
L 181.456983 291.063543 
L 202.444762 238.127555 
L 208.832347 223.12089 
L 215.219932 208.619782 
L 219.782492 198.659036 
L 225.257565 187.143229 
L 230.732638 176.362648 
L 241.682783 156.021569 
L 244.42032 150.8506 
L 250.807904 138.040732 
L 261.75805 114.709246 
L 267.233123 103.858176 
L 269.970659 99.022392 
L 272.708195 94.753064 
L 274.53322 92.137844 
L 276.358244 89.850981 
L 279.09578 86.838783 
L 280.920804 85.224043 
L 282.745829 83.828828 
L 284.570853 82.752487 
L 286.395877 81.987714 
L 288.220901 81.458854 
L 290.045926 81.184732 
L 291.87095 81.230141 
L 293.695974 81.57156 
L 294.608486 81.821285 
L 296.433511 82.662971 
L 298.258535 83.788864 
L 300.083559 85.306627 
L 301.908583 87.119298 
L 304.64612 90.426999 
L 306.471144 93.05769 
L 308.296168 95.972837 
L 311.946217 102.62567 
L 314.683753 108.240208 
L 318.333801 116.263324 
L 324.721386 131.376282 
L 332.933995 151.162257 
L 361.221871 218.280028 
L 364.87192 226.550135 
L 370.346992 238.112642 
L 373.997041 245.131303 
L 378.559601 253.272202 
L 383.122162 260.816584 
L 392.247283 275.290219 
L 396.809844 283.034013 
L 401.372404 291.331414 
L 405.022453 298.356304 
L 411.410038 311.260082 
L 418.710135 325.751855 
L 422.360183 332.377326 
L 425.097719 336.94015 
L 427.835256 341.093425 
L 430.572792 344.774324 
L 432.397816 347.023267 
L 435.135353 349.936726 
L 437.872889 352.435373 
L 440.610426 354.506765 
L 443.347962 356.25102 
L 446.085498 357.724489 
L 448.823035 358.956297 
L 452.473083 360.327935 
L 457.035644 361.759591 
L 462.510716 363.270261 
L 471.635838 365.340891 
L 477.11091 366.238567 
L 480.760959 366.623483 
L 484.411007 366.812047 
L 488.061056 366.809225 
L 492.623616 366.534252 
L 497.186177 366.052825 
L 508.136322 364.771108 
L 512.698883 364.533527 
L 513.611395 364.520782 
L 513.611395 364.520782 
" clip-path="url(#p37d24cb151)" style="fill: none; stroke-dasharray: 4.85625,2.1; stroke-dashoffset: 0; stroke: #7570b3; stroke-width: 1.3125"/>
   </g>
   <g id="line2d_24">
    <path d="M 114.646463 348.588929 
L 117.606007 348.475377 
L 120.565552 348.158988 
L 124.264982 347.516593 
L 127.224526 346.668395 
L 130.18407 345.558685 
L 132.403728 344.559336 
L 135.363272 342.9465 
L 138.322816 341.074571 
L 142.022246 338.392242 
L 145.721676 335.424539 
L 149.421106 332.209248 
L 153.120537 328.777077 
L 158.299739 323.572496 
L 164.218827 316.9894 
L 167.178371 313.392814 
L 171.617687 307.747717 
L 174.577231 303.751077 
L 179.016547 297.434462 
L 181.976091 293.001801 
L 185.675522 287.148893 
L 188.635066 282.003752 
L 192.334496 274.989353 
L 195.29404 268.821001 
L 198.253584 261.97577 
L 201.213128 254.538029 
L 204.172672 246.334308 
L 207.132216 237.400766 
L 210.831646 225.24983 
L 213.79119 214.810372 
L 217.490621 201.04006 
L 224.149595 175.061287 
L 230.808569 149.366946 
L 233.768113 138.832029 
L 236.727657 129.085099 
L 238.947315 122.287614 
L 241.166973 116.086172 
L 243.386631 110.513945 
L 245.606289 105.529029 
L 247.825947 101.170127 
L 249.30572 98.576358 
L 252.265264 94.095065 
L 254.484922 91.287332 
L 255.964694 89.660736 
L 257.444466 88.234767 
L 259.664124 86.425978 
L 262.623668 84.497729 
L 264.843326 83.328447 
L 267.062984 82.271798 
L 272.982072 80.110724 
L 276.681502 78.726334 
L 281.120818 76.965768 
L 283.340477 76.13545 
L 287.039907 74.955516 
L 289.259565 74.585864 
L 290.739337 74.572646 
L 292.219109 74.677079 
L 293.698881 75.155487 
L 295.178653 75.860262 
L 296.658425 76.874193 
L 298.138197 78.218481 
L 299.617969 79.932719 
L 301.097741 82.006208 
L 302.577513 84.418818 
L 304.797171 88.70712 
L 306.276943 91.929802 
L 308.496601 97.345133 
L 310.716259 103.318918 
L 314.41569 114.098353 
L 322.554436 139.484933 
L 326.993752 153.216555 
L 334.392612 174.82876 
L 338.092042 185.071843 
L 343.271244 198.731323 
L 347.710561 209.674465 
L 351.409991 218.219494 
L 355.109421 226.195055 
L 359.548737 235.157469 
L 363.988053 243.717483 
L 382.485204 278.174659 
L 390.62395 293.981943 
L 396.543038 305.21062 
L 400.242468 311.649612 
L 403.202012 316.400481 
L 405.42167 319.615133 
L 407.641328 322.57648 
L 410.600872 326.075113 
L 413.560417 329.083153 
L 416.519961 331.692869 
L 420.959277 335.193078 
L 437.236769 347.328931 
L 444.63563 352.919997 
L 448.33506 355.448499 
L 452.03449 357.665736 
L 454.994034 359.165381 
L 457.953578 360.444662 
L 460.913122 361.433444 
L 463.872666 362.205504 
L 466.83221 362.748879 
L 469.791754 363.080435 
L 473.491184 363.259296 
L 477.930501 363.219971 
L 492.728221 362.594399 
L 492.728221 362.594399 
" clip-path="url(#p37d24cb151)" style="fill: none; stroke-dasharray: 8.4,2.1,1.3125,2.1; stroke-dashoffset: 0; stroke: #7570b3; stroke-width: 1.3125"/>
   </g>
   <g id="patch_3">
    <path d="M 23.76 381.56 
L 542.029436 381.56 
" style="fill: none; stroke: #333333; stroke-width: 1.5; stroke-linejoin: miter; stroke-linecap: square"/>
   </g>
   <g id="text_8">
    <!-- $x_2^2$ -->
    <g style="fill: #262626" transform="translate(266.244718 51.528)">
     <text>
      <tspan x="0" y="-0.929688" style="font-style: oblique; font-size: 30px; font-family: 'DejaVu Sans'; fill: #262626">x</tspan>
      <tspan x="17.753906" y="7.273438" style="font-size: 21px; font-family: 'DejaVu Sans'; fill: #262626">2</tspan>
      <tspan x="19.09375" y="-12.414063" style="font-size: 21px; font-family: 'DejaVu Sans'; fill: #262626">2</tspan>
     </text>
    </g>
   </g>
  </g>
 </g>
 <defs>
  <clipPath id="p37d24cb151">
   <rect x="23.76" y="59.928" width="518.269436" height="321.632"/>
  </clipPath>
 </defs>
</svg>
