<?xml version="1.0" encoding="utf-8" standalone="no"?>
<!DOCTYPE svg PUBLIC "-//W3C//DTD SVG 1.1//EN"
  "http://www.w3.org/Graphics/SVG/1.1/DTD/svg11.dtd">
<svg xmlns:xlink="http://www.w3.org/1999/xlink" width="576pt" height="432pt" viewBox="0 0 576 432" xmlns="http://www.w3.org/2000/svg" version="1.1">
 <metadata>
  <rdf:RDF xmlns:dc="http://purl.org/dc/elements/1.1/" xmlns:cc="http://creativecommons.org/ns#" xmlns:rdf="http://www.w3.org/1999/02/22-rdf-syntax-ns#">
   <cc:Work>
    <dc:type rdf:resource="http://purl.org/dc/dcmitype/StillImage"/>
    <dc:date>2026-03-13T22:47:57.272381</dc:date>
    <dc:format>image/svg+xml</dc:format>
    <dc:creator>
     <cc:Agent>
      <dc:title>Matplotlib v3.10.6, https://matplotlib.org/</dc:title>
     </cc:Agent>
    </dc:creator>
   </cc:Work>
  </rdf:RDF>
 </metadata>
 <defs>
  <style type="text/css">*{stroke-linejoin: round; stroke-linecap: butt}</style>
 </defs>
 <g id="figure_1">
  <g id="patch_1">
   <path d="M 0 432 
L 576 432 
L 576 0 
L 0 0 
L 0 432 
z
" style="fill: none; opacity: 0"/>
  </g>
  <g id="axes_1">
   <g id="patch_2">
    <path d="M 23.76 381.56 
L 552.24 381.56 
L 552.24 52.81875 
L 23.76 52.81875 
L 23.76 381.56 
z
" style="fill: none"/>
   </g>
   <g id="matplotlib.axis_1">
    <g id="xtick_1">
     <g id="line2d_1">
      <path d="M 55.815131 381.56 
L 55.815131 52.81875 
" clip-path="url(#pc7b5950c3a)" style="fill: none; stroke: #cccccc; stroke-opacity: 0.4; stroke-linecap: round"/>
     </g>
     <g id="line2d_2"/>
     <g id="text_1">
      <text style="font-size: 20px; font-family: 'DejaVu Serif', 'Times New Roman', serif; text-anchor: middle; fill: #262626" x="55.815131" y="403.756875" transform="rotate(-0 55.815131 403.756875)">0.92</text>
     </g>
    </g>
    <g id="xtick_2">
     <g id="line2d_3">
      <path d="M 133.193135 381.56 
L 133.193135 52.81875 
" clip-path="url(#pc7b5950c3a)" style="fill: none; stroke: #cccccc; stroke-opacity: 0.4; stroke-linecap: round"/>
     </g>
     <g id="line2d_4"/>
     <g id="text_2">
      <text style="font-size: 20px; font-family: 'DejaVu Serif', 'Times New Roman', serif; text-anchor: middle; fill: #262626" x="133.193135" y="403.756875" transform="rotate(-0 133.193135 403.756875)">0.93</text>
     </g>
    </g>
    <g id="xtick_3">
     <g id="line2d_5">
      <path d="M 210.571139 381.56 
L 210.571139 52.81875 
" clip-path="url(#pc7b5950c3a)" style="fill: none; stroke: #cccccc; stroke-opacity: 0.4; stroke-linecap: round"/>
     </g>
     <g id="line2d_6"/>
     <g id="text_3">
      <text style="font-size: 20px; font-family: 'DejaVu Serif', 'Times New Roman', serif; text-anchor: middle; fill: #262626" x="210.571139" y="403.756875" transform="rotate(-0 210.571139 403.756875)">0.94</text>
     </g>
    </g>
    <g id="xtick_4">
     <g id="line2d_7">
      <path d="M 287.949143 381.56 
L 287.949143 52.81875 
" clip-path="url(#pc7b5950c3a)" style="fill: none; stroke: #cccccc; stroke-opacity: 0.4; stroke-linecap: round"/>
     </g>
     <g id="line2d_8"/>
     <g id="text_4">
      <text style="font-size: 20px; font-family: 'DejaVu Serif', 'Times New Roman', serif; text-anchor: middle; fill: #262626" x="287.949143" y="403.756875" transform="rotate(-0 287.949143 403.756875)">0.95</text>
     </g>
    </g>
    <g id="xtick_5">
     <g id="line2d_9">
      <path d="M 365.327147 381.56 
L 365.327147 52.81875 
" clip-path="url(#pc7b5950c3a)" style="fill: none; stroke: #cccccc; stroke-opacity: 0.4; stroke-linecap: round"/>
     </g>
     <g id="line2d_10"/>
     <g id="text_5">
      <text style="font-size: 20px; font-family: 'DejaVu Serif', 'Times New Roman', serif; text-anchor: middle; fill: #262626" x="365.327147" y="403.756875" transform="rotate(-0 365.327147 403.756875)">0.96</text>
     </g>
    </g>
    <g id="xtick_6">
     <g id="line2d_11">
      <path d="M 442.705151 381.56 
L 442.705151 52.81875 
" clip-path="url(#pc7b5950c3a)" style="fill: none; stroke: #cccccc; stroke-opacity: 0.4; stroke-linecap: round"/>
     </g>
     <g id="line2d_12"/>
     <g id="text_6">
      <text style="font-size: 20px; font-family: 'DejaVu Serif', 'Times New Roman', serif; text-anchor: middle; fill: #262626" x="442.705151" y="403.756875" transform="rotate(-0 442.705151 403.756875)">0.97</text>
     </g>
    </g>
    <g id="xtick_7">
     <g id="line2d_13">
      <path d="M 520.083155 381.56 
L 520.083155 52.81875 
" clip-path="url(#pc7b5950c3a)" style="fill: none; stroke: #cccccc; stroke-opacity: 0.4; stroke-linecap: round"/>
     </g>
     <g id="line2d_14"/>
     <g id="text_7">
      <text style="font-size: 20px; font-family: 'DejaVu Serif', 'Times New Roman', serif; text-anchor: middle; fill: #262626" x="520.083155" y="403.756875" transform="rotate(-0 520.083155 403.756875)">0.98</text>
     </g>
    </g>
   </g>
   <g id="matplotlib.axis_2">
    <g id="ytick_1">
     <g id="line2d_15">
      <path d="M 23.76 368.715469 
L 552.24 368.715469 
" clip-path="url(#pc7b5950c3a)" style="fill: none; stroke: #cccccc; stroke-opacity: 0.4; stroke-linecap: round"/>
     </g>
    </g>
    <g id="ytick_2">
     <g id="line2d_16">
      <path d="M 23.76 302.302909 
L 552.24 302.302909 
" clip-path="url(#pc7b5950c3a)" style="fill: none; stroke: #cccccc; stroke-opacity: 0.4; stroke-linecap: round"/>
     </g>
    </g>
    <g id="ytick_3">
     <g id="line2d_17">
      <path d="M 23.76 235.89035 
L 552.24 235.89035 
" clip-path="url(#pc7b5950c3a)" style="fill: none; stroke: #cccccc; stroke-opacity: 0.4; stroke-linecap: round"/>
     </g>
    </g>
    <g id="ytick_4">
     <g id="line2d_18">
      <path d="M 23.76 169.47779 
L 552.24 169.47779 
" clip-path="url(#pc7b5950c3a)" style="fill: none; stroke: #cccccc; stroke-opacity: 0.4; stroke-linecap: round"/>
     </g>
    </g>
    <g id="ytick_5">
     <g id="line2d_19">
      <path d="M 23.76 103.065231 
L 552.24 103.065231 
" clip-path="url(#pc7b5950c3a)" style="fill: none; stroke: #cccccc; stroke-opacity: 0.4; stroke-linecap: round"/>
     </g>
    </g>
   </g>
   <g id="line2d_20">
    <path d="M 47.781818 358.971209 
L 53.171037 359.084278 
L 61.254865 359.551751 
L 71.1351 360.076518 
L 75.626116 360.04976 
L 79.218928 359.827891 
L 82.811741 359.385295 
L 87.302757 358.472447 
L 90.895569 357.476011 
L 94.488382 356.212384 
L 97.182991 355.048629 
L 100.775804 353.246133 
L 104.368616 351.109721 
L 107.063226 349.296504 
L 110.656038 346.571523 
L 114.248851 343.528401 
L 117.841664 340.088311 
L 121.434476 336.260952 
L 124.129086 333.173889 
L 127.721898 328.786017 
L 131.314711 323.936197 
L 134.907523 318.757403 
L 137.602133 314.646254 
L 142.093149 307.117963 
L 144.787758 302.315682 
L 149.278774 293.638091 
L 154.667993 282.410415 
L 160.955415 268.268054 
L 166.344633 255.489654 
L 172.632055 240.006972 
L 178.919478 223.924707 
L 187.003306 202.479361 
L 198.679947 171.272482 
L 202.272759 162.303414 
L 206.763775 151.841869 
L 209.458384 146.076472 
L 212.152994 140.602006 
L 215.745807 133.909411 
L 220.236822 126.339946 
L 224.727838 119.386121 
L 229.218854 113.031014 
L 234.608073 105.96796 
L 237.302682 102.74925 
L 240.895495 98.777367 
L 243.590104 96.161122 
L 248.08112 92.427314 
L 250.775729 90.703337 
L 253.470339 89.45721 
L 255.266745 88.823314 
L 257.063151 88.337276 
L 258.859558 88.079422 
L 261.554167 88.041799 
L 263.350573 88.173062 
L 265.14698 88.484475 
L 267.841589 89.189467 
L 272.332605 91.08267 
L 274.129011 92.158309 
L 276.82362 93.864926 
L 279.51823 95.958519 
L 281.314636 97.456137 
L 284.009246 100.026886 
L 286.703855 102.919527 
L 288.500261 105.046677 
L 292.093074 109.744963 
L 295.685887 115.04415 
L 298.380496 119.388453 
L 301.075105 124.120528 
L 305.566121 132.633756 
L 310.057137 141.75856 
L 316.344559 155.307729 
L 328.0212 181.75529 
L 338.799638 206.580256 
L 345.08706 220.530936 
L 348.679872 227.971428 
L 352.272685 234.863155 
L 355.865497 241.228377 
L 358.560107 245.655446 
L 361.254716 249.75514 
L 365.745732 255.905237 
L 370.236748 261.662539 
L 378.320576 272.198178 
L 381.913389 277.430973 
L 384.607998 281.725317 
L 389.099014 289.357419 
L 393.590029 297.622237 
L 406.164873 321.421376 
L 409.757686 327.662754 
L 413.350499 333.329352 
L 416.045108 337.193138 
L 418.739718 340.684153 
L 421.434327 343.850457 
L 424.128936 346.681765 
L 426.823546 349.190111 
L 429.518155 351.41744 
L 433.110968 353.983795 
L 435.805577 355.652432 
L 438.500187 357.132809 
L 442.092999 358.799834 
L 445.685812 360.245998 
L 449.278625 361.488087 
L 454.667843 362.984024 
L 458.260656 363.802264 
L 462.751672 364.653164 
L 469.039094 365.569851 
L 475.326516 366.206809 
L 481.613938 366.54848 
L 487.90136 366.611203 
L 495.985188 366.441924 
L 506.763626 366.238133 
L 506.763626 366.238133 
" clip-path="url(#pc7b5950c3a)" style="fill: none; stroke: #7570b3; stroke-width: 1.3125; stroke-linecap: round"/>
   </g>
   <g id="line2d_21">
    <path d="M 50.892768 362.011915 
L 56.497372 361.946522 
L 62.101975 361.676462 
L 66.772478 361.19788 
L 70.508881 360.575553 
L 74.245283 359.708998 
L 77.981686 358.569121 
L 80.783988 357.537546 
L 84.52039 355.958946 
L 90.124994 353.058849 
L 94.795497 350.289962 
L 98.531899 347.829801 
L 102.268302 345.165869 
L 106.938805 341.495157 
L 109.741107 339.018471 
L 113.477509 335.265626 
L 117.213912 331.10157 
L 120.016213 327.653783 
L 124.686716 321.292987 
L 128.423119 315.64557 
L 132.159521 309.595497 
L 136.830024 301.602407 
L 148.039232 281.362428 
L 165.787143 248.43686 
L 176.996351 226.930855 
L 182.600955 215.493425 
L 186.337357 207.431661 
L 191.00786 196.792891 
L 195.678363 185.434733 
L 200.348866 173.652945 
L 209.689872 150.071916 
L 213.426275 141.327223 
L 216.228577 135.286782 
L 218.096778 131.500291 
L 220.89908 126.386915 
L 222.767281 123.30705 
L 225.569583 119.207098 
L 227.437784 116.870514 
L 230.240086 113.870386 
L 232.108287 112.208089 
L 233.976488 110.823041 
L 235.84469 109.619306 
L 237.712891 108.63762 
L 240.515193 107.457643 
L 242.383394 106.86168 
L 251.7244 104.432612 
L 256.394903 102.669912 
L 258.263104 101.852381 
L 261.065406 100.354722 
L 265.735909 97.6314 
L 267.60411 96.490449 
L 274.142815 93.470148 
L 276.011016 93.065817 
L 277.879217 92.865048 
L 278.813318 92.832374 
L 280.681519 93.067252 
L 282.54972 93.588846 
L 284.417921 94.418451 
L 286.286123 95.651333 
L 288.154324 97.195659 
L 290.022525 99.011798 
L 292.824827 102.257999 
L 295.627129 105.978016 
L 298.429431 110.164821 
L 303.099934 117.736607 
L 306.836336 124.302829 
L 310.572739 131.147388 
L 315.243242 140.325854 
L 318.979644 148.265804 
L 322.716047 156.71026 
L 326.452449 165.744164 
L 330.188852 175.333434 
L 334.859355 187.775178 
L 347.002663 220.451076 
L 352.607266 234.900335 
L 360.080071 253.337226 
L 367.552876 271.323551 
L 374.09158 286.534842 
L 377.827983 294.770741 
L 381.564385 302.502711 
L 385.300788 309.719321 
L 388.10309 314.653321 
L 391.839492 320.598015 
L 394.641794 324.517171 
L 397.444096 328.073037 
L 400.246398 331.189629 
L 403.0487 333.997759 
L 406.785102 337.293967 
L 409.587404 339.485514 
L 413.323806 342.115936 
L 417.994309 345.090975 
L 425.467114 349.261946 
L 432.005819 352.604361 
L 436.676322 354.757271 
L 441.346825 356.695489 
L 446.017328 358.384267 
L 450.687831 359.820268 
L 456.292435 361.21832 
L 461.897038 362.309541 
L 468.435743 363.302027 
L 474.040346 363.959841 
L 481.513151 364.721199 
L 494.59056 365.759214 
L 502.997465 366.175509 
L 510.47027 366.275853 
L 521.679478 366.127053 
L 528.218182 366.075818 
L 528.218182 366.075818 
" clip-path="url(#pc7b5950c3a)" style="fill: none; stroke-dasharray: 1.3125,2.165625; stroke-dashoffset: 0; stroke: #7570b3; stroke-width: 1.3125"/>
   </g>
   <g id="line2d_22">
    <path d="M 71.118952 354.159748 
L 79.615807 353.990795 
L 86.41329 353.540943 
L 90.661717 352.909147 
L 94.060459 352.061189 
L 96.609515 351.21051 
L 99.158572 350.137351 
L 101.707628 348.835648 
L 103.406999 347.816927 
L 105.956055 346.065169 
L 108.505111 344.069393 
L 111.903853 341.025095 
L 114.452909 338.444571 
L 118.701337 333.771751 
L 121.250393 330.75248 
L 124.649135 326.502696 
L 129.747247 319.898868 
L 135.695045 311.93072 
L 139.943472 305.847894 
L 144.191899 299.344388 
L 147.590641 293.647498 
L 150.139697 288.972137 
L 152.688754 283.898469 
L 155.23781 278.343057 
L 157.786866 272.274925 
L 161.185608 263.51208 
L 164.58435 254.03657 
L 168.832777 241.496436 
L 177.329631 216.557078 
L 179.878688 209.679766 
L 182.427744 203.405197 
L 184.9768 197.755434 
L 187.525856 192.667246 
L 190.074913 188.174643 
L 192.623969 184.120075 
L 196.022711 179.241421 
L 203.66988 169.101424 
L 206.218936 165.455807 
L 209.617678 159.919638 
L 212.166734 155.289349 
L 215.565476 148.404928 
L 218.964217 140.78098 
L 223.212645 130.564172 
L 232.559184 107.280698 
L 235.957926 99.670771 
L 238.506982 94.546129 
L 240.206353 91.521731 
L 242.75541 87.706348 
L 244.45478 85.628744 
L 246.154151 83.996161 
L 247.853522 82.712049 
L 248.703208 82.217568 
L 250.402578 81.57577 
L 252.101949 81.301547 
L 253.80132 81.477438 
L 254.651006 81.691816 
L 256.350376 82.402694 
L 258.049747 83.445927 
L 260.598804 85.568081 
L 262.298174 87.3193 
L 264.847231 90.296483 
L 267.396287 93.54625 
L 270.795029 98.030826 
L 280.141569 109.890212 
L 283.54031 113.70658 
L 294.586221 125.292181 
L 298.834648 130.184941 
L 302.23339 134.70154 
L 305.632131 139.691825 
L 309.030873 145.310571 
L 312.429615 151.442086 
L 314.978671 156.404191 
L 323.475526 174.259946 
L 327.723953 183.172842 
L 332.822065 193.353263 
L 336.220807 199.66221 
L 340.469234 207.057697 
L 343.867976 212.543138 
L 355.763572 231.167709 
L 359.162314 236.946898 
L 363.410741 244.730321 
L 365.959797 249.674136 
L 369.358539 256.613397 
L 375.306337 269.463742 
L 388.051618 297.667446 
L 391.45036 304.722611 
L 394.849102 311.275746 
L 398.247844 317.280134 
L 400.7969 321.434556 
L 403.345956 325.236878 
L 405.895012 328.770866 
L 409.293754 332.890048 
L 412.692496 336.489195 
L 414.391867 338.149055 
L 418.640294 341.840834 
L 422.039036 344.388897 
L 427.137148 347.744962 
L 430.53589 349.766319 
L 433.934632 351.586703 
L 437.333373 353.291267 
L 443.281171 355.8768 
L 447.529599 357.434996 
L 451.778026 358.778081 
L 456.026453 359.903348 
L 460.27488 360.816664 
L 465.372993 361.686443 
L 470.471105 362.344623 
L 476.418903 362.868247 
L 484.066072 363.221583 
L 493.412612 363.345626 
L 505.308208 363.34163 
L 505.308208 363.34163 
" clip-path="url(#pc7b5950c3a)" style="fill: none; stroke-dasharray: 4.85625,2.1; stroke-dashoffset: 0; stroke: #7570b3; stroke-width: 1.3125"/>
   </g>
   <g id="line2d_23">
    <path d="M 66.432162 350.728626 
L 69.324866 350.788688 
L 75.110275 351.148066 
L 78.726155 351.415232 
L 82.342036 351.50941 
L 85.23474 351.413058 
L 88.127444 351.048106 
L 90.296972 350.574851 
L 92.4665 349.923519 
L 94.636029 349.037549 
L 96.805557 347.929425 
L 98.975085 346.592584 
L 101.144613 345.024012 
L 103.314141 343.228167 
L 106.206845 340.540871 
L 109.09955 337.474312 
L 112.71543 333.300549 
L 117.054486 327.897996 
L 132.96436 307.413535 
L 148.874233 288.114274 
L 151.766937 284.167389 
L 156.105994 277.523727 
L 159.721874 271.239794 
L 162.614578 265.820261 
L 165.507282 259.992016 
L 169.846339 250.475711 
L 174.908571 238.450542 
L 180.69398 223.91758 
L 190.095268 199.733459 
L 195.157501 186.842765 
L 199.496557 176.285562 
L 203.835614 166.172563 
L 206.728318 159.763855 
L 210.344198 152.286551 
L 214.683254 143.92206 
L 219.745487 134.723536 
L 225.530895 124.541206 
L 229.146776 118.216127 
L 232.762656 111.689785 
L 235.65536 106.350434 
L 239.994416 98.469977 
L 244.333473 90.847431 
L 248.672529 83.878423 
L 252.28841 78.781782 
L 254.457938 76.081885 
L 256.627466 73.795594 
L 258.796994 71.899399 
L 261.689698 69.879537 
L 263.13605 69.06429 
L 265.305579 68.31587 
L 267.475107 67.83585 
L 268.921459 67.761534 
L 271.090987 67.911436 
L 272.537339 68.261396 
L 273.983691 68.848729 
L 275.430043 69.582461 
L 277.599572 71.063342 
L 279.045924 72.246876 
L 280.492276 73.679431 
L 282.661804 76.184632 
L 284.831332 79.069007 
L 286.277684 81.217969 
L 288.447212 84.713038 
L 291.339917 89.954054 
L 294.232621 95.823789 
L 297.848501 103.713972 
L 301.464382 112.133215 
L 308.696142 129.78891 
L 332.560952 191.197037 
L 362.211171 269.579391 
L 365.827051 278.139891 
L 368.719755 284.556833 
L 371.612459 290.358328 
L 374.505164 295.583311 
L 377.397868 300.226007 
L 380.290572 304.282153 
L 383.183276 307.758788 
L 386.075981 310.848417 
L 389.691861 314.320482 
L 393.307741 317.485243 
L 399.816326 323.147919 
L 404.878558 327.874914 
L 409.94079 332.925964 
L 417.172551 340.267472 
L 421.511607 344.209603 
L 423.681136 345.963546 
L 426.57384 348.052487 
L 428.743368 349.283849 
L 430.912896 350.208126 
L 432.359248 350.696745 
L 434.528777 351.173377 
L 435.975129 351.312105 
L 435.975129 351.312105 
" clip-path="url(#pc7b5950c3a)" style="fill: none; stroke-dasharray: 8.4,2.1,1.3125,2.1; stroke-dashoffset: 0; stroke: #7570b3; stroke-width: 1.3125"/>
   </g>
   <g id="patch_3">
    <path d="M 23.76 381.56 
L 552.24 381.56 
" style="fill: none; stroke: #333333; stroke-width: 1.5; stroke-linejoin: miter; stroke-linecap: square"/>
   </g>
   <g id="text_8">
    <!-- $x_3$ -->
    <g style="fill: #262626" transform="translate(271.95 46.579687)">
     <text>
      <tspan x="0" y="-0.59375" style="font-style: oblique; font-size: 30px; font-family: 'DejaVu Sans'; fill: #262626">x</tspan>
      <tspan x="17.753906" y="4.328125" style="font-size: 21px; font-family: 'DejaVu Sans'; fill: #262626">3</tspan>
     </text>
    </g>
   </g>
  </g>
 </g>
 <defs>
  <clipPath id="pc7b5950c3a">
   <rect x="23.76" y="52.81875" width="528.48" height="328.74125"/>
  </clipPath>
 </defs>
</svg>
