<?xml version="1.0" encoding="utf-8" standalone="no"?>
<!DOCTYPE svg PUBLIC "-//W3C//DTD SVG 1.1//EN"
  "http://www.w3.org/Graphics/SVG/1.1/DTD/svg11.dtd">
<svg xmlns:xlink="http://www.w3.org/1999/xlink" width="576pt" height="432pt" viewBox="0 0 576 432" xmlns="http://www.w3.org/2000/svg" version="1.1">
 <metadata>
  <rdf:RDF xmlns:dc="http://purl.org/dc/elements/1.1/" xmlns:cc="http://creativecommons.org/ns#" xmlns:rdf="http://www.w3.org/1999/02/22-rdf-syntax-ns#">
   <cc:Work>
    <dc:type rdf:resource="http://purl.org/dc/dcmitype/StillImage"/>
    <dc:date>2026-03-13T22:47:57.486371</dc:date>
    <dc:format>image/svg+xml</dc:format>
    <dc:creator>
     <cc:Agent>
      <dc:title>Matplotlib v3.10.6, https://matplotlib.org/</dc:title>
     </cc:Agent>
    </dc:creator>
   </cc:Work>
  </rdf:RDF>
 </metadata>
 <defs>
  <style type="text/css">*{stroke-linejoin: round; stroke-linecap: butt}</style>
 </defs>
 <g id="figure_1">
  <g id="patch_1">
   <path d="M 0 432 
L 576 432 
L 576 0 
L 0 0 
L 0 432 
z
" style="fill: none; opacity: 0"/>
  </g>
  <g id="axes_1">
   <g id="patch_2">
    <path d="M 23.76 381.56 
L 552.24 381.56 
L 552.24 60.192 
L 23.76 60.192 
L 23.76 381.56 
z
" style="fill: none"/>
   </g>
   <g id="matplotlib.axis_1">
    <g id="xtick_1">
     <g id="line2d_1">
      <path d="M 124.216113 381.56 
L 124.216113 60.192 
" clip-path="url(#p0fd1c2b7aa)" style="fill: none; stroke: #cccccc; stroke-opacity: 0.4; stroke-linecap: round"/>
     </g>
     <g id="line2d_2"/>
     <g id="text_1">
      <text style="font-size: 20px; font-family: 'DejaVu Serif', 'Times New Roman', serif; text-anchor: middle; fill: #262626" x="124.216113" y="403.756875" transform="rotate(-0 124.216113 403.756875)">−0.340</text>
     </g>
    </g>
    <g id="xtick_2">
     <g id="line2d_3">
      <path d="M 236.596401 381.56 
L 236.596401 60.192 
" clip-path="url(#p0fd1c2b7aa)" style="fill: none; stroke: #cccccc; stroke-opacity: 0.4; stroke-linecap: round"/>
     </g>
     <g id="line2d_4"/>
     <g id="text_2">
      <text style="font-size: 20px; font-family: 'DejaVu Serif', 'Times New Roman', serif; text-anchor: middle; fill: #262626" x="236.596401" y="403.756875" transform="rotate(-0 236.596401 403.756875)">−0.335</text>
     </g>
    </g>
    <g id="xtick_3">
     <g id="line2d_5">
      <path d="M 348.97669 381.56 
L 348.97669 60.192 
" clip-path="url(#p0fd1c2b7aa)" style="fill: none; stroke: #cccccc; stroke-opacity: 0.4; stroke-linecap: round"/>
     </g>
     <g id="line2d_6"/>
     <g id="text_3">
      <text style="font-size: 20px; font-family: 'DejaVu Serif', 'Times New Roman', serif; text-anchor: middle; fill: #262626" x="348.97669" y="403.756875" transform="rotate(-0 348.97669 403.756875)">−0.330</text>
     </g>
    </g>
    <g id="xtick_4">
     <g id="line2d_7">
      <path d="M 461.356978 381.56 
L 461.356978 60.192 
" clip-path="url(#p0fd1c2b7aa)" style="fill: none; stroke: #cccccc; stroke-opacity: 0.4; stroke-linecap: round"/>
     </g>
     <g id="line2d_8"/>
     <g id="text_4">
      <text style="font-size: 20px; font-family: 'DejaVu Serif', 'Times New Roman', serif; text-anchor: middle; fill: #262626" x="461.356978" y="403.756875" transform="rotate(-0 461.356978 403.756875)">−0.325</text>
     </g>
    </g>
   </g>
   <g id="matplotlib.axis_2">
    <g id="ytick_1">
     <g id="line2d_9">
      <path d="M 23.76 368.653603 
L 552.24 368.653603 
" clip-path="url(#p0fd1c2b7aa)" style="fill: none; stroke: #cccccc; stroke-opacity: 0.4; stroke-linecap: round"/>
     </g>
    </g>
    <g id="ytick_2">
     <g id="line2d_10">
      <path d="M 23.76 323.920771 
L 552.24 323.920771 
" clip-path="url(#p0fd1c2b7aa)" style="fill: none; stroke: #cccccc; stroke-opacity: 0.4; stroke-linecap: round"/>
     </g>
    </g>
    <g id="ytick_3">
     <g id="line2d_11">
      <path d="M 23.76 279.18794 
L 552.24 279.18794 
" clip-path="url(#p0fd1c2b7aa)" style="fill: none; stroke: #cccccc; stroke-opacity: 0.4; stroke-linecap: round"/>
     </g>
    </g>
    <g id="ytick_4">
     <g id="line2d_12">
      <path d="M 23.76 234.455108 
L 552.24 234.455108 
" clip-path="url(#p0fd1c2b7aa)" style="fill: none; stroke: #cccccc; stroke-opacity: 0.4; stroke-linecap: round"/>
     </g>
    </g>
    <g id="ytick_5">
     <g id="line2d_13">
      <path d="M 23.76 189.722277 
L 552.24 189.722277 
" clip-path="url(#p0fd1c2b7aa)" style="fill: none; stroke: #cccccc; stroke-opacity: 0.4; stroke-linecap: round"/>
     </g>
    </g>
    <g id="ytick_6">
     <g id="line2d_14">
      <path d="M 23.76 144.989446 
L 552.24 144.989446 
" clip-path="url(#p0fd1c2b7aa)" style="fill: none; stroke: #cccccc; stroke-opacity: 0.4; stroke-linecap: round"/>
     </g>
    </g>
    <g id="ytick_7">
     <g id="line2d_15">
      <path d="M 23.76 100.256614 
L 552.24 100.256614 
" clip-path="url(#p0fd1c2b7aa)" style="fill: none; stroke: #cccccc; stroke-opacity: 0.4; stroke-linecap: round"/>
     </g>
    </g>
   </g>
   <g id="line2d_16">
    <path d="M 100.417349 363.627999 
L 103.766084 363.537595 
L 107.952002 363.079024 
L 111.300736 362.465601 
L 116.323838 361.046121 
L 119.672573 359.81828 
L 122.184123 358.739894 
L 126.370042 356.707285 
L 129.718776 354.812042 
L 133.904694 352.108252 
L 138.090612 349.139885 
L 143.113714 345.12017 
L 146.462449 342.174517 
L 151.48555 337.304176 
L 154.834285 333.792358 
L 159.857387 328.063924 
L 164.880488 321.892173 
L 173.252325 310.921764 
L 182.461345 298.021364 
L 189.158814 288.172192 
L 195.856283 277.740813 
L 200.042201 270.729696 
L 204.228119 263.286106 
L 208.414037 255.321987 
L 212.599955 246.817932 
L 217.623057 235.739254 
L 221.808975 225.945162 
L 240.227015 180.70158 
L 244.412933 171.389025 
L 249.436035 161.140207 
L 254.459136 151.784482 
L 258.645054 144.4323 
L 278.737461 111.446393 
L 282.086196 106.224049 
L 285.43493 101.474503 
L 287.946481 98.270684 
L 290.458032 95.46303 
L 292.969583 93.127723 
L 294.64395 91.854281 
L 296.318318 90.860852 
L 297.992685 90.152958 
L 299.667052 89.7206 
L 301.341419 89.572312 
L 303.015787 89.715661 
L 304.690154 90.099952 
L 307.201705 91.228737 
L 308.876072 92.298816 
L 310.550439 93.57382 
L 312.224806 95.106648 
L 314.736357 97.807224 
L 317.247908 100.807253 
L 321.433826 106.276106 
L 331.48003 119.969645 
L 338.177499 128.544547 
L 342.363417 133.590629 
L 344.874968 136.578269 
L 349.89807 143.087853 
L 354.921171 150.376624 
L 357.432722 154.39145 
L 361.61864 161.819631 
L 364.967375 168.316834 
L 368.316109 175.415684 
L 373.339211 186.790841 
L 377.525129 196.734644 
L 395.105985 239.235242 
L 400.129087 250.610146 
L 404.315005 259.703089 
L 410.175291 271.698197 
L 415.198392 281.264376 
L 421.058678 291.657632 
L 425.244596 298.623301 
L 428.59333 303.868631 
L 433.616432 311.35477 
L 437.80235 317.131044 
L 441.151085 321.452671 
L 445.337003 326.494436 
L 448.685737 330.204995 
L 451.197288 332.838911 
L 456.22039 337.645405 
L 458.731941 339.834928 
L 462.917859 343.120735 
L 467.940961 346.632863 
L 472.126879 349.180941 
L 477.149981 351.823091 
L 482.173082 354.084955 
L 488.033368 356.305646 
L 492.219286 357.690719 
L 498.079571 359.41535 
L 503.102673 360.701399 
L 508.962958 361.981296 
L 514.823244 362.993582 
L 519.009162 363.511652 
L 524.032264 363.895894 
L 528.218182 364.026777 
L 528.218182 364.026777 
" clip-path="url(#p0fd1c2b7aa)" style="fill: none; stroke: #7570b3; stroke-width: 1.3125; stroke-linecap: round"/>
   </g>
   <g id="line2d_17">
    <path d="M 47.781818 362.616353 
L 51.419087 362.716009 
L 55.056356 363.005205 
L 59.602941 363.577601 
L 66.877479 364.791898 
L 74.152016 365.986799 
L 78.698602 366.552671 
L 84.154505 366.907008 
L 87.791774 366.944453 
L 92.33836 366.716358 
L 95.975628 366.30445 
L 99.612897 365.681424 
L 103.250166 364.857602 
L 106.887435 363.847888 
L 111.43402 362.325506 
L 115.980606 360.634736 
L 141.441487 350.06017 
L 145.078756 348.247103 
L 148.716025 346.13726 
L 151.443976 344.331821 
L 155.081245 341.554151 
L 157.809196 339.185253 
L 160.537148 336.620272 
L 163.265099 333.83898 
L 166.902368 329.769366 
L 171.448954 324.272535 
L 175.086223 319.553762 
L 177.814174 315.823137 
L 182.36076 309.227306 
L 185.998029 303.39735 
L 188.72598 298.761737 
L 191.453932 293.877246 
L 195.0912 286.838179 
L 199.637786 277.34881 
L 206.003007 263.061258 
L 211.45891 250.246619 
L 235.101156 195.533016 
L 243.285011 177.523411 
L 248.740914 166.236654 
L 252.378182 159.261941 
L 256.015451 152.824086 
L 259.65272 146.815095 
L 263.289988 141.339087 
L 266.927257 136.37271 
L 269.655209 132.874464 
L 274.201795 127.57674 
L 277.839063 123.556926 
L 286.022918 115.225358 
L 291.478821 110.229526 
L 294.206772 107.957836 
L 296.934724 105.787367 
L 301.48131 102.745429 
L 306.027896 100.321082 
L 308.755847 99.315651 
L 311.483799 98.600386 
L 313.302433 98.318086 
L 315.121067 98.224352 
L 317.849019 98.347968 
L 319.667653 98.669264 
L 322.395605 99.527434 
L 324.214239 100.280196 
L 326.942191 101.796564 
L 329.670142 103.726262 
L 333.307411 106.930886 
L 336.035362 109.73607 
L 338.763314 112.949054 
L 341.491265 116.516924 
L 344.219217 120.510129 
L 346.947169 124.828937 
L 349.67512 129.57036 
L 352.403072 134.719901 
L 355.131023 140.255117 
L 358.768292 148.342761 
L 361.496243 154.888262 
L 365.133512 164.103247 
L 370.589415 178.82343 
L 380.591904 206.521977 
L 384.229173 215.982658 
L 387.866441 224.69882 
L 391.50371 232.795118 
L 395.140979 240.0511 
L 397.86893 245.07584 
L 401.506199 251.24389 
L 404.234151 255.605447 
L 418.783225 278.208659 
L 422.420494 284.284463 
L 426.96708 292.073451 
L 439.69752 314.04324 
L 443.334789 319.747303 
L 446.062741 323.741749 
L 448.790692 327.459695 
L 450.609326 329.758628 
L 453.337278 332.895696 
L 456.065229 335.70791 
L 458.793181 338.171815 
L 462.43045 341.002064 
L 465.158401 342.749178 
L 467.886353 344.242126 
L 471.523621 345.909358 
L 475.16089 347.320129 
L 479.707476 348.814766 
L 487.891331 351.108529 
L 493.347234 352.424701 
L 497.893819 353.348446 
L 501.531088 353.996356 
L 505.168357 354.473472 
L 509.714943 354.82718 
L 512.442894 354.899201 
L 512.442894 354.899201 
" clip-path="url(#p0fd1c2b7aa)" style="fill: none; stroke-dasharray: 1.3125,2.165625; stroke-dashoffset: 0; stroke: #7570b3; stroke-width: 1.3125"/>
   </g>
   <g id="line2d_18">
    <path d="M 55.095365 365.403325 
L 68.622671 365.173647 
L 74.033594 364.822731 
L 78.542696 364.327658 
L 83.051798 363.604138 
L 88.46272 362.400362 
L 92.971823 361.148451 
L 99.284566 359.168035 
L 113.713692 354.521541 
L 120.026435 352.807724 
L 126.339178 351.385483 
L 138.062844 348.953897 
L 141.670126 348.112179 
L 145.277407 347.075286 
L 148.884689 345.657845 
L 151.59015 344.349012 
L 154.295612 342.740453 
L 157.001073 340.826972 
L 159.706534 338.513552 
L 162.411995 335.733667 
L 165.117457 332.507172 
L 166.921098 330.034122 
L 169.626559 325.937603 
L 172.33202 321.352356 
L 175.037481 316.389511 
L 178.644763 309.185875 
L 185.859326 293.870434 
L 189.466608 286.354778 
L 193.07389 279.218135 
L 195.779351 274.177274 
L 199.386633 268.033854 
L 202.993915 262.528998 
L 205.699376 258.640543 
L 219.226682 240.083272 
L 222.833964 234.608833 
L 227.343066 227.185298 
L 230.950348 220.886715 
L 236.36127 210.735364 
L 241.772193 199.908237 
L 248.084936 186.377125 
L 253.495858 174.244816 
L 258.906781 161.750247 
L 279.648651 113.219021 
L 284.157753 103.389243 
L 287.765035 96.022428 
L 290.470496 90.962912 
L 293.175957 86.36806 
L 294.979598 83.720871 
L 296.783239 81.288037 
L 298.58688 79.248758 
L 300.390521 77.60371 
L 302.194161 76.333915 
L 303.997802 75.423779 
L 304.899623 75.109269 
L 306.703264 74.83625 
L 307.605084 74.799636 
L 309.408725 75.068734 
L 310.310545 75.321306 
L 312.114186 76.164075 
L 313.917827 77.303072 
L 315.721468 78.789457 
L 317.525109 80.575306 
L 321.13239 84.918356 
L 322.936031 87.40618 
L 325.641493 91.422529 
L 329.248774 97.317293 
L 332.856056 103.564242 
L 340.97244 118.666508 
L 348.187003 133.101078 
L 354.499746 146.461724 
L 359.008848 156.307281 
L 365.321591 170.674665 
L 368.928873 179.061719 
L 374.339796 191.717009 
L 383.358 212.474933 
L 390.572563 228.06354 
L 395.983486 239.140231 
L 405.90351 258.43265 
L 413.118074 272.586717 
L 420.332637 287.262447 
L 424.841739 296.397204 
L 429.350842 305.250146 
L 432.958123 311.847434 
L 436.565405 317.877599 
L 440.172687 323.397039 
L 443.779968 328.176639 
L 446.48543 331.366738 
L 449.190891 334.250642 
L 452.798173 337.673829 
L 457.307275 341.449377 
L 461.816377 344.771543 
L 465.423659 347.258099 
L 469.03094 349.55455 
L 472.638222 351.641981 
L 476.245504 353.549039 
L 480.754606 355.555159 
L 483.460067 356.580743 
L 487.067349 357.731984 
L 490.674631 358.569936 
L 495.183733 359.29408 
L 498.791014 359.632706 
L 504.201937 359.853664 
L 510.51468 359.851842 
L 515.925603 359.849926 
L 515.925603 359.849926 
" clip-path="url(#p0fd1c2b7aa)" style="fill: none; stroke-dasharray: 4.85625,2.1; stroke-dashoffset: 0; stroke: #7570b3; stroke-width: 1.3125"/>
   </g>
   <g id="line2d_19">
    <path d="M 95.743448 363.478443 
L 100.787919 363.342029 
L 104.150899 363.124434 
L 110.036115 362.31999 
L 113.399095 361.651622 
L 117.602821 360.562129 
L 120.965801 359.402842 
L 124.328781 358.082494 
L 127.691762 356.565162 
L 131.054742 354.857981 
L 135.258467 352.532905 
L 141.143683 348.881217 
L 147.028899 344.89352 
L 155.436349 338.813713 
L 160.48082 334.884065 
L 165.525291 330.569909 
L 169.729016 326.578032 
L 173.091996 323.081251 
L 176.454977 319.325754 
L 179.817957 315.184812 
L 183.180937 310.777898 
L 186.543918 306.074678 
L 190.747643 299.925765 
L 201.677329 282.736722 
L 206.7218 274.325327 
L 210.925525 266.910432 
L 214.288506 260.6081 
L 217.651486 253.762708 
L 220.173721 248.243899 
L 223.536702 240.354908 
L 226.058937 233.982014 
L 229.421917 224.891777 
L 234.466388 210.219399 
L 238.670113 197.361965 
L 250.440544 161.134447 
L 256.32576 144.122487 
L 260.529485 132.667904 
L 264.733211 121.864797 
L 269.777681 110.061 
L 273.140662 103.032896 
L 275.662897 98.216475 
L 277.344387 95.335448 
L 279.866622 91.395828 
L 282.388858 87.881337 
L 284.070348 85.881156 
L 285.751838 84.171592 
L 287.433328 82.739677 
L 289.114818 81.561558 
L 290.796308 80.623938 
L 292.477799 79.922086 
L 294.159289 79.414937 
L 296.681524 79.042874 
L 298.363014 79.052596 
L 300.044504 79.334353 
L 301.725995 79.702063 
L 303.407485 80.282428 
L 306.770465 81.89565 
L 308.451955 82.902351 
L 310.133445 84.068748 
L 312.655681 86.027183 
L 316.018661 89.084977 
L 318.540896 91.64094 
L 321.063132 94.414883 
L 324.426112 98.46484 
L 329.470582 105.185298 
L 332.833563 109.955207 
L 340.400269 121.898163 
L 345.444739 130.576541 
L 348.807719 136.61855 
L 353.011445 144.456543 
L 358.896661 155.906313 
L 363.100386 164.416804 
L 368.144856 174.932407 
L 374.030072 188.123972 
L 380.756033 204.627344 
L 384.959758 215.783276 
L 388.322739 225.042106 
L 395.889444 246.026942 
L 399.252425 254.817974 
L 402.615405 263.066733 
L 405.13764 268.757891 
L 407.659876 273.870756 
L 410.182111 278.48136 
L 412.704346 282.555439 
L 415.226581 286.153852 
L 416.908072 288.301345 
L 420.271052 292.071799 
L 425.315522 297.008288 
L 433.722973 304.935901 
L 438.767444 310.327663 
L 442.971169 315.224946 
L 457.263836 332.463977 
L 460.626816 336.04516 
L 463.989796 339.286676 
L 467.352777 342.239737 
L 470.715757 344.879031 
L 474.919483 347.836199 
L 479.963953 350.945602 
L 484.167679 353.288788 
L 487.530659 354.961084 
L 492.575129 357.159885 
L 496.778855 358.663674 
L 500.98258 359.895265 
L 504.345561 360.643552 
L 508.549286 361.281422 
L 512.753011 361.681248 
L 519.478972 361.968386 
L 525.364188 362.042997 
L 525.364188 362.042997 
" clip-path="url(#p0fd1c2b7aa)" style="fill: none; stroke-dasharray: 8.4,2.1,1.3125,2.1; stroke-dashoffset: 0; stroke: #7570b3; stroke-width: 1.3125"/>
   </g>
   <g id="patch_3">
    <path d="M 23.76 381.56 
L 552.24 381.56 
" style="fill: none; stroke: #333333; stroke-width: 1.5; stroke-linejoin: miter; stroke-linecap: square"/>
   </g>
   <g id="text_5">
    <!-- $x_3^3$ -->
    <g style="fill: #262626" transform="translate(271.35 51.492)">
     <text>
      <tspan x="0" y="-0.929688" style="font-style: oblique; font-size: 30px; font-family: 'DejaVu Sans'; fill: #262626">x</tspan>
      <tspan x="17.753906" y="7.273438" style="font-size: 21px; font-family: 'DejaVu Sans'; fill: #262626">3</tspan>
      <tspan x="19.09375" y="-12.414063" style="font-size: 21px; font-family: 'DejaVu Sans'; fill: #262626">3</tspan>
     </text>
    </g>
   </g>
  </g>
 </g>
 <defs>
  <clipPath id="p0fd1c2b7aa">
   <rect x="23.76" y="60.192" width="528.48" height="321.368"/>
  </clipPath>
 </defs>
</svg>
