<?xml version="1.0" encoding="utf-8" standalone="no"?>
<!DOCTYPE svg PUBLIC "-//W3C//DTD SVG 1.1//EN"
  "http://www.w3.org/Graphics/SVG/1.1/DTD/svg11.dtd">
<svg xmlns:xlink="http://www.w3.org/1999/xlink" width="648pt" height="504pt" viewBox="0 0 648 504" xmlns="http://www.w3.org/2000/svg" version="1.1">
 <metadata>
  <rdf:RDF xmlns:dc="http://purl.org/dc/elements/1.1/" xmlns:cc="http://creativecommons.org/ns#" xmlns:rdf="http://www.w3.org/1999/02/22-rdf-syntax-ns#">
   <cc:Work>
    <dc:type rdf:resource="http://purl.org/dc/dcmitype/StillImage"/>
    <dc:date>2026-02-22T16:15:35.255388</dc:date>
    <dc:format>image/svg+xml</dc:format>
    <dc:creator>
     <cc:Agent>
      <dc:title>Matplotlib v3.10.6, https://matplotlib.org/</dc:title>
     </cc:Agent>
    </dc:creator>
   </cc:Work>
  </rdf:RDF>
 </metadata>
 <defs>
  <style type="text/css">*{stroke-linejoin: round; stroke-linecap: butt}</style>
 </defs>
 <g id="figure_1">
  <g id="patch_1">
   <path d="M 0 504 
L 648 504 
L 648 0 
L 0 0 
L 0 504 
z
" style="fill: none; opacity: 0"/>
  </g>
  <g id="axes_1">
   <g id="patch_2">
    <path d="M 23.76 422.96 
L 622.312645 422.96 
L 622.312645 97.44 
L 23.76 97.44 
L 23.76 422.96 
z
" style="fill: none"/>
   </g>
   <g id="matplotlib.axis_1">
    <g id="xtick_1">
     <g id="line2d_1">
      <path d="M 213.945198 422.96 
L 213.945198 97.44 
" clip-path="url(#p93ee38eb69)" style="fill: none; stroke: #cccccc; stroke-opacity: 0.4; stroke-linecap: round"/>
     </g>
     <g id="line2d_2"/>
     <g id="text_1">
      <text style="font-size: 52px; font-family: 'DejaVu Serif', 'Times New Roman', serif; text-anchor: middle; fill: #262626" x="213.945198" y="469.471875" transform="rotate(-0 213.945198 469.471875)">0.64</text>
     </g>
    </g>
    <g id="xtick_2">
     <g id="line2d_3">
      <path d="M 555.601027 422.96 
L 555.601027 97.44 
" clip-path="url(#p93ee38eb69)" style="fill: none; stroke: #cccccc; stroke-opacity: 0.4; stroke-linecap: round"/>
     </g>
     <g id="line2d_4"/>
     <g id="text_2">
      <text style="font-size: 52px; font-family: 'DejaVu Serif', 'Times New Roman', serif; text-anchor: middle; fill: #262626" x="555.601027" y="469.471875" transform="rotate(-0 555.601027 469.471875)">0.66</text>
     </g>
    </g>
   </g>
   <g id="matplotlib.axis_2">
    <g id="ytick_1">
     <g id="line2d_5">
      <path d="M 23.76 408.64127 
L 622.312645 408.64127 
" clip-path="url(#p93ee38eb69)" style="fill: none; stroke: #cccccc; stroke-opacity: 0.4; stroke-linecap: round"/>
     </g>
    </g>
    <g id="ytick_2">
     <g id="line2d_6">
      <path d="M 23.76 251.420876 
L 622.312645 251.420876 
" clip-path="url(#p93ee38eb69)" style="fill: none; stroke: #cccccc; stroke-opacity: 0.4; stroke-linecap: round"/>
     </g>
    </g>
   </g>
   <g id="line2d_7">
    <path d="M 50.966938 406.310485 
L 56.291193 406.406171 
L 62.680297 406.738493 
L 82.912463 408.015826 
L 90.366419 408.161821 
L 97.820374 408.089069 
L 107.404032 407.759183 
L 121.247092 407.185271 
L 130.83075 406.700239 
L 137.219855 406.225595 
L 144.67381 405.325407 
L 148.933214 404.632799 
L 155.322319 403.336128 
L 159.581722 402.263675 
L 165.970827 400.343693 
L 169.165379 399.190076 
L 173.424783 397.457105 
L 177.684186 395.464262 
L 181.943589 393.166028 
L 188.332694 389.241584 
L 191.527247 387.087473 
L 213.889114 371.412926 
L 217.083666 368.947885 
L 222.40792 364.336534 
L 225.602473 361.198579 
L 228.797025 357.633539 
L 230.926727 355.046199 
L 234.121279 350.721628 
L 236.250981 347.555983 
L 239.445533 342.357405 
L 242.640086 336.707164 
L 246.899489 328.343659 
L 251.158892 319.377115 
L 255.418296 309.895709 
L 272.455909 270.94511 
L 277.780163 259.595548 
L 283.104417 248.744985 
L 299.077179 216.772304 
L 303.336582 207.683119 
L 309.725687 193.412397 
L 317.179643 175.811067 
L 323.568748 160.876679 
L 326.763301 153.820127 
L 331.022704 145.030992 
L 333.152405 140.985843 
L 336.346958 135.341473 
L 338.47666 131.939333 
L 340.606361 128.851732 
L 342.736063 126.053011 
L 345.930615 122.479229 
L 348.060317 120.527579 
L 350.190019 118.8379 
L 352.31972 117.49396 
L 354.449422 116.382869 
L 356.579123 115.565068 
L 357.643974 115.281526 
L 359.773676 115.037036 
L 361.903378 114.996432 
L 364.033079 115.164736 
L 365.09793 115.365641 
L 368.292482 116.448495 
L 371.487035 118.116602 
L 373.616737 119.468721 
L 375.746438 121.100061 
L 378.940991 123.881594 
L 383.200394 128.130683 
L 386.394946 131.781515 
L 392.784051 140.015096 
L 397.043455 146.133519 
L 400.238007 151.119931 
L 403.432559 156.397645 
L 406.627112 162.027247 
L 409.821664 168.083857 
L 414.081068 176.736789 
L 417.27562 183.603237 
L 422.599874 195.885766 
L 426.859277 206.465901 
L 432.183532 220.269711 
L 438.572636 237.23799 
L 443.896891 251.285205 
L 448.156294 262.211917 
L 452.415697 272.527304 
L 456.6751 282.044232 
L 459.869653 288.667753 
L 463.064205 294.872774 
L 466.258758 300.663333 
L 469.45331 306.163766 
L 473.712714 313.005885 
L 489.685476 337.817076 
L 497.139432 349.780231 
L 502.463686 358.128872 
L 505.658238 362.956209 
L 508.852791 367.511297 
L 512.047343 371.755797 
L 515.241895 375.577293 
L 518.436448 379.0199 
L 521.631 382.051737 
L 524.825553 384.656655 
L 528.020105 386.941927 
L 532.279509 389.569545 
L 536.538912 391.717118 
L 540.798315 393.544846 
L 547.18742 395.95488 
L 551.446823 397.388283 
L 556.771077 398.937925 
L 561.030481 400.036929 
L 567.419586 401.443314 
L 573.80869 402.513446 
L 579.132945 403.176233 
L 583.392348 403.574425 
L 589.781453 403.944827 
L 595.105707 404.057999 
L 595.105707 404.057999 
" clip-path="url(#p93ee38eb69)" style="fill: none; stroke: #7570b3; stroke-width: 1.3125; stroke-linecap: round"/>
   </g>
   <g id="line2d_8">
    <path d="M 137.957351 402.102334 
L 141.530355 401.982702 
L 144.210108 401.750763 
L 149.569614 400.899844 
L 153.142618 400.077013 
L 156.715622 398.986404 
L 160.288626 397.633047 
L 163.86163 396.089953 
L 167.434633 394.306234 
L 171.007637 392.295349 
L 176.367143 389.00576 
L 180.833398 386.034167 
L 187.979406 380.922451 
L 192.445661 377.575492 
L 200.48492 371.224913 
L 208.524179 364.018668 
L 212.097183 360.432722 
L 215.670187 356.562889 
L 218.34994 353.380623 
L 221.029693 349.944719 
L 224.602697 344.935706 
L 227.28245 340.840945 
L 230.855453 334.845582 
L 234.428457 328.444332 
L 238.001461 321.573159 
L 245.147469 306.830837 
L 254.079979 288.40881 
L 259.439485 278.195721 
L 263.90574 270.208365 
L 271.944999 256.776484 
L 279.091007 244.591367 
L 282.664011 238.000011 
L 286.237015 230.923035 
L 291.596521 219.406549 
L 295.169524 211.278887 
L 305.888536 186.550868 
L 309.46154 178.804033 
L 313.034544 171.57205 
L 315.714297 166.561809 
L 319.287301 160.435848 
L 323.753556 153.907064 
L 326.433309 150.511321 
L 329.113062 147.614823 
L 331.792815 145.12313 
L 334.472568 142.960516 
L 337.152321 141.138264 
L 339.832074 139.825285 
L 342.511827 138.796573 
L 345.19158 138.079104 
L 346.978082 137.77083 
L 349.657835 137.584795 
L 352.337588 137.59938 
L 356.803843 138.048913 
L 358.590344 138.318294 
L 363.056599 139.426666 
L 365.736352 140.230227 
L 368.416105 141.125062 
L 371.095858 142.107085 
L 375.562113 144.013391 
L 379.135117 146.01235 
L 382.708121 148.340725 
L 387.174376 151.913488 
L 390.74738 155.29347 
L 393.427133 158.141946 
L 396.106886 161.359591 
L 398.786639 164.780774 
L 402.359643 169.854045 
L 405.039396 174.008834 
L 408.6124 180.107269 
L 411.292153 185.042476 
L 414.865157 192.063396 
L 418.438161 199.616971 
L 422.904415 209.835271 
L 428.263921 223.091775 
L 433.623427 237.035262 
L 442.555937 260.643779 
L 447.915443 274.21945 
L 452.381698 284.957547 
L 456.847953 295.060705 
L 459.527706 300.752764 
L 463.993961 309.636067 
L 467.566965 316.206871 
L 471.139969 322.373617 
L 473.819722 326.692847 
L 479.179228 334.851394 
L 482.752232 339.815062 
L 489.004988 347.925993 
L 492.577992 352.209865 
L 496.150996 356.318467 
L 500.617251 361.134835 
L 505.976757 366.43032 
L 510.443012 370.365757 
L 513.122765 372.517621 
L 517.58902 375.667553 
L 521.162024 377.955902 
L 526.52153 380.959535 
L 535.45404 385.407118 
L 548.852804 392.007351 
L 555.998812 395.287819 
L 560.465067 397.108797 
L 564.038071 398.409364 
L 568.504326 399.723633 
L 572.970581 400.781236 
L 577.436836 401.616193 
L 583.689593 402.353377 
L 589.049099 402.687201 
L 594.408605 402.821944 
L 594.408605 402.821944 
" clip-path="url(#p93ee38eb69)" style="fill: none; stroke-dasharray: 1.3125,2.165625; stroke-dashoffset: 0; stroke: #7570b3; stroke-width: 1.3125"/>
   </g>
   <g id="line2d_9">
    <path d="M 160.795259 397.974725 
L 165.773663 397.905367 
L 172.411535 397.392532 
L 175.730471 396.925182 
L 178.219674 396.400152 
L 180.708876 395.683039 
L 184.027812 394.513495 
L 186.517014 393.437037 
L 189.83595 391.660583 
L 192.325152 390.116566 
L 195.644088 387.732086 
L 198.963024 385.0721 
L 203.111694 381.333993 
L 206.43063 378.122041 
L 211.409034 372.967477 
L 217.217173 366.443468 
L 223.025311 359.187423 
L 226.344247 354.714573 
L 229.663183 349.904326 
L 232.982119 344.692612 
L 236.301055 339.180287 
L 240.449725 331.652918 
L 245.428129 321.901379 
L 251.236267 309.830439 
L 257.87414 295.515532 
L 266.17148 277.665968 
L 271.149884 267.383707 
L 276.128288 257.559046 
L 283.595894 243.614417 
L 288.574298 234.488856 
L 295.212171 222.034099 
L 299.360841 213.70336 
L 303.509511 204.898512 
L 307.658181 195.281686 
L 312.636585 183.138516 
L 318.444723 168.497265 
L 322.593393 158.438832 
L 325.912329 151.025622 
L 328.401531 145.937186 
L 331.720467 139.919297 
L 334.20967 135.9471 
L 336.698872 132.496158 
L 339.188074 129.498688 
L 342.50701 126.173477 
L 346.65568 122.844608 
L 349.144882 121.079097 
L 355.782754 117.066658 
L 360.761158 114.558732 
L 365.739562 112.77671 
L 368.228764 112.281809 
L 369.888232 112.240845 
L 371.5477 112.400779 
L 373.207169 112.707666 
L 374.866637 113.333029 
L 376.526105 114.153263 
L 378.185573 115.318437 
L 379.845041 116.754624 
L 383.163977 120.497703 
L 384.823445 122.819913 
L 387.312647 126.816195 
L 389.801849 131.46004 
L 392.291051 136.658557 
L 395.609987 144.446741 
L 399.758657 155.31314 
L 403.077593 164.551757 
L 408.055997 179.091956 
L 415.523604 201.183223 
L 419.672274 213.034448 
L 422.99121 221.888373 
L 426.310146 230.106911 
L 429.629082 237.655652 
L 432.118284 242.850148 
L 435.43722 249.25896 
L 437.926422 253.575256 
L 440.415624 257.67188 
L 445.394028 265.283828 
L 457.010305 282.454756 
L 461.158975 289.102446 
L 465.307645 295.9793 
L 472.775251 308.653831 
L 480.242857 320.809217 
L 485.221261 328.180024 
L 490.199666 334.998988 
L 495.17807 341.475868 
L 503.47541 351.812625 
L 510.943016 360.868552 
L 519.240356 370.725984 
L 522.559292 374.503557 
L 529.197165 381.575135 
L 533.345835 385.622843 
L 537.494505 389.340117 
L 539.983707 391.366494 
L 543.302643 393.821051 
L 546.621579 395.944646 
L 549.940515 397.776688 
L 553.259451 399.313461 
L 556.578387 400.5248 
L 560.727057 401.704302 
L 564.875727 402.532123 
L 569.854132 403.215767 
L 577.321738 403.739515 
L 584.789344 403.875899 
L 584.789344 403.875899 
" clip-path="url(#p93ee38eb69)" style="fill: none; stroke-dasharray: 4.85625,2.1; stroke-dashoffset: 0; stroke: #7570b3; stroke-width: 1.3125"/>
   </g>
   <g id="line2d_10">
    <path d="M 146.271472 398.365665 
L 152.957385 398.164221 
L 157.97182 397.759615 
L 162.150515 397.126412 
L 165.493471 396.435233 
L 168.836428 395.590628 
L 172.179384 394.472827 
L 175.52234 393.117812 
L 178.865297 391.553228 
L 182.208253 389.724782 
L 185.551209 387.634316 
L 188.894166 385.258785 
L 193.072861 381.889042 
L 196.415817 378.841426 
L 199.758774 375.472688 
L 203.937469 370.845954 
L 208.951904 364.758148 
L 215.637816 355.718169 
L 219.816512 349.677254 
L 223.995207 343.361328 
L 229.845381 334.040303 
L 239.038511 318.471804 
L 244.052945 309.467208 
L 261.603466 276.982343 
L 269.125118 263.949321 
L 275.81103 252.751768 
L 280.825465 244.279953 
L 285.00416 236.996598 
L 290.018595 227.788892 
L 294.19729 219.628763 
L 297.540247 212.755286 
L 303.39042 200.216449 
L 310.912072 184.066737 
L 314.255028 177.070434 
L 318.433724 168.926159 
L 322.612419 161.640348 
L 325.119636 157.688915 
L 327.626854 154.021903 
L 330.134071 150.802404 
L 331.805549 148.811371 
L 334.312766 146.183205 
L 336.819984 143.845602 
L 339.327201 141.931094 
L 340.998679 140.732647 
L 346.013114 137.823858 
L 349.35607 136.390844 
L 353.534765 134.910929 
L 358.5492 133.748225 
L 362.727895 133.340573 
L 365.235113 133.419989 
L 367.74233 133.678151 
L 369.413808 134.027988 
L 371.921025 134.816568 
L 373.592503 135.526478 
L 375.263982 136.344787 
L 376.93546 137.322294 
L 379.442677 139.122416 
L 382.785633 142.027011 
L 385.292851 144.610087 
L 387.800068 147.574748 
L 391.143024 151.98308 
L 394.48598 156.834524 
L 396.993198 160.800707 
L 400.336154 166.444329 
L 406.186328 177.028413 
L 410.365023 185.082755 
L 415.379458 195.528238 
L 420.393892 206.709748 
L 425.408327 218.533238 
L 432.094239 235.270016 
L 444.630326 267.535245 
L 448.809021 277.57257 
L 452.151977 285.036782 
L 454.659195 290.219185 
L 458.002151 296.569513 
L 461.345107 302.236378 
L 464.688064 307.396785 
L 467.195281 310.845836 
L 471.373976 316.141606 
L 475.552672 320.939648 
L 479.731367 325.618947 
L 486.41728 333.343384 
L 497.281888 346.746234 
L 503.967801 354.953518 
L 508.146496 359.800526 
L 512.325191 364.379055 
L 515.668148 367.793585 
L 519.846843 371.776458 
L 524.861278 376.224726 
L 529.875712 380.333089 
L 534.054408 383.505276 
L 538.233103 386.497508 
L 543.247537 389.76255 
L 546.590494 391.71302 
L 550.769189 393.87692 
L 553.276406 394.970761 
L 556.619363 396.242199 
L 559.962319 397.29432 
L 563.305275 398.085163 
L 566.648232 398.69255 
L 570.826927 399.140809 
L 573.334145 399.243708 
L 573.334145 399.243708 
" clip-path="url(#p93ee38eb69)" style="fill: none; stroke-dasharray: 8.4,2.1,1.3125,2.1; stroke-dashoffset: 0; stroke: #7570b3; stroke-width: 1.3125"/>
   </g>
   <g id="patch_3">
    <path d="M 23.76 422.96 
L 622.312645 422.96 
" style="fill: none; stroke: #333333; stroke-width: 1.5; stroke-linejoin: miter; stroke-linecap: square"/>
   </g>
   <g id="text_3">
    <!-- $C$ -->
    <g style="fill: #262626" transform="translate(296.436323 81.634375)">
     <text>
      <tspan x="0" y="-0.59375" style="font-style: oblique; font-size: 76px; font-family: 'DejaVu Sans'; fill: #262626">C</tspan>
     </text>
    </g>
   </g>
  </g>
 </g>
 <defs>
  <clipPath id="p93ee38eb69">
   <rect x="23.76" y="97.44" width="598.552645" height="325.52"/>
  </clipPath>
 </defs>
</svg>
