<?xml version="1.0" encoding="utf-8" standalone="no"?>
<!DOCTYPE svg PUBLIC "-//W3C//DTD SVG 1.1//EN"
  "http://www.w3.org/Graphics/SVG/1.1/DTD/svg11.dtd">
<svg xmlns:xlink="http://www.w3.org/1999/xlink" width="648pt" height="504pt" viewBox="0 0 648 504" xmlns="http://www.w3.org/2000/svg" version="1.1">
 <metadata>
  <rdf:RDF xmlns:dc="http://purl.org/dc/elements/1.1/" xmlns:cc="http://creativecommons.org/ns#" xmlns:rdf="http://www.w3.org/1999/02/22-rdf-syntax-ns#">
   <cc:Work>
    <dc:type rdf:resource="http://purl.org/dc/dcmitype/StillImage"/>
    <dc:date>2026-02-22T16:15:33.807461</dc:date>
    <dc:format>image/svg+xml</dc:format>
    <dc:creator>
     <cc:Agent>
      <dc:title>Matplotlib v3.10.6, https://matplotlib.org/</dc:title>
     </cc:Agent>
    </dc:creator>
   </cc:Work>
  </rdf:RDF>
 </metadata>
 <defs>
  <style type="text/css">*{stroke-linejoin: round; stroke-linecap: butt}</style>
 </defs>
 <g id="figure_1">
  <g id="patch_1">
   <path d="M 0 504 
L 648 504 
L 648 0 
L 0 0 
L 0 504 
z
" style="fill: none; opacity: 0"/>
  </g>
  <g id="axes_1">
   <g id="patch_2">
    <path d="M 23.76 422.96 
L 553.891382 422.96 
L 553.891382 97.44 
L 23.76 97.44 
L 23.76 422.96 
z
" style="fill: none"/>
   </g>
   <g id="matplotlib.axis_1">
    <g id="xtick_1">
     <g id="line2d_1">
      <path d="M 263.524689 422.96 
L 263.524689 97.44 
" clip-path="url(#pdef315ac81)" style="fill: none; stroke: #cccccc; stroke-opacity: 0.4; stroke-linecap: round"/>
     </g>
     <g id="line2d_2"/>
     <g id="text_1">
      <text style="font-size: 52px; font-family: 'DejaVu Serif', 'Times New Roman', serif; text-anchor: middle; fill: #262626" x="263.524689" y="469.471875" transform="rotate(-0 263.524689 469.471875)">0.135</text>
     </g>
    </g>
    <g id="xtick_2">
     <g id="line2d_3">
      <path d="M 549.567167 422.96 
L 549.567167 97.44 
" clip-path="url(#pdef315ac81)" style="fill: none; stroke: #cccccc; stroke-opacity: 0.4; stroke-linecap: round"/>
     </g>
     <g id="line2d_4"/>
     <g id="text_2">
      <text style="font-size: 52px; font-family: 'DejaVu Serif', 'Times New Roman', serif; text-anchor: middle; fill: #262626" x="549.567167" y="469.471875" transform="rotate(-0 549.567167 469.471875)">0.140</text>
     </g>
    </g>
   </g>
   <g id="matplotlib.axis_2">
    <g id="ytick_1">
     <g id="line2d_5">
      <path d="M 23.76 412.149089 
L 553.891382 412.149089 
" clip-path="url(#pdef315ac81)" style="fill: none; stroke: #cccccc; stroke-opacity: 0.4; stroke-linecap: round"/>
     </g>
    </g>
    <g id="ytick_2">
     <g id="line2d_6">
      <path d="M 23.76 216.238759 
L 553.891382 216.238759 
" clip-path="url(#pdef315ac81)" style="fill: none; stroke: #cccccc; stroke-opacity: 0.4; stroke-linecap: round"/>
     </g>
    </g>
   </g>
   <g id="line2d_7">
    <path d="M 62.368098 400.914537 
L 68.600928 400.793634 
L 73.943354 400.579838 
L 83.737802 399.69853 
L 89.970632 398.790507 
L 93.53225 398.177957 
L 98.874676 397.087037 
L 105.107506 395.412856 
L 108.669123 394.246431 
L 113.121145 392.470115 
L 115.792358 391.207684 
L 119.353975 389.248524 
L 122.025188 387.551162 
L 124.696401 385.523165 
L 127.367614 383.311042 
L 130.929232 380.000222 
L 133.600445 377.175051 
L 138.052466 371.902262 
L 140.723679 368.432522 
L 144.285297 363.397187 
L 147.846914 357.931007 
L 151.408531 352.046939 
L 154.970149 345.731519 
L 158.531766 339.011688 
L 162.983788 330.11909 
L 166.545405 322.644293 
L 173.66864 307.065698 
L 179.90147 293.404189 
L 184.353492 284.093096 
L 188.805513 275.355105 
L 191.476726 270.44332 
L 195.038344 264.368037 
L 199.490365 257.243408 
L 202.161578 253.192033 
L 213.736835 235.880781 
L 218.188857 228.522409 
L 222.640878 220.478554 
L 227.0929 211.760018 
L 230.654517 204.233831 
L 237.777752 188.358278 
L 245.791391 170.105978 
L 252.024221 156.507105 
L 257.366647 145.628873 
L 260.03786 140.634591 
L 262.709073 135.924373 
L 266.270691 130.155059 
L 268.941904 126.234628 
L 271.613117 122.80114 
L 274.28433 119.768205 
L 276.955543 117.22667 
L 279.626756 115.184735 
L 281.407564 114.081118 
L 283.188373 113.23614 
L 284.969182 112.626115 
L 286.74999 112.282751 
L 288.530799 112.236365 
L 290.311608 112.401738 
L 292.092416 112.883028 
L 293.873225 113.581672 
L 295.654034 114.550223 
L 297.434842 115.708204 
L 299.215651 117.146365 
L 300.99646 118.837446 
L 303.667673 121.822232 
L 305.448481 124.155068 
L 307.22929 126.699614 
L 310.790907 132.325765 
L 313.46212 137.147079 
L 316.133333 142.309061 
L 320.585355 151.594619 
L 325.037377 161.323082 
L 336.612633 186.826418 
L 340.17425 194.020694 
L 343.735868 200.883597 
L 349.078294 210.698921 
L 359.763146 229.960105 
L 363.324763 236.955646 
L 365.995976 242.427681 
L 369.557594 250.22155 
L 374.90002 262.713538 
L 388.256085 294.105741 
L 391.817702 301.485042 
L 394.488915 306.62087 
L 397.160128 311.383235 
L 399.831341 315.835402 
L 403.392958 321.236023 
L 406.954576 326.124811 
L 412.297002 333.046072 
L 418.529832 340.983164 
L 424.762662 349.040961 
L 430.105088 356.110227 
L 436.337919 364.209192 
L 441.680345 370.599382 
L 445.241962 374.449741 
L 448.803579 377.96585 
L 452.365197 381.081235 
L 455.926814 383.833386 
L 458.598027 385.658752 
L 462.159644 387.779452 
L 465.721262 389.631265 
L 469.282879 391.271003 
L 473.734901 393.038536 
L 477.296518 394.222858 
L 484.419753 396.096677 
L 489.762179 397.168594 
L 495.104605 397.959198 
L 500.447031 398.533491 
L 505.789457 398.894698 
L 517.364713 399.17285 
L 517.364713 399.17285 
" clip-path="url(#pdef315ac81)" style="fill: none; stroke: #7570b3; stroke-width: 1.3125; stroke-linecap: round"/>
   </g>
   <g id="line2d_8">
    <path d="M 68.420557 401.9581 
L 73.443128 401.904936 
L 77.628605 401.69456 
L 83.488271 401.156737 
L 87.673747 400.450308 
L 91.859223 399.412235 
L 94.370509 398.568326 
L 96.881795 397.567136 
L 100.230175 395.931813 
L 102.741461 394.476271 
L 105.252747 392.86984 
L 108.601128 390.3911 
L 111.112413 388.32192 
L 115.297889 384.464641 
L 119.483365 380.225702 
L 123.668841 375.628794 
L 129.528508 368.801742 
L 139.573651 356.388583 
L 146.270412 347.633597 
L 157.15265 332.670174 
L 183.102602 296.059248 
L 187.288078 289.473668 
L 189.799363 285.102612 
L 192.310649 280.461349 
L 195.65903 273.624676 
L 198.170316 268.033131 
L 200.681601 261.981053 
L 203.192887 255.495873 
L 205.704173 248.558674 
L 209.889649 236.232174 
L 214.075125 223.234041 
L 221.608982 199.727722 
L 225.794458 187.444304 
L 229.142839 178.372274 
L 231.654124 172.100722 
L 235.002505 164.579835 
L 237.513791 159.54789 
L 240.025076 155.014718 
L 242.536362 151.062869 
L 245.047648 147.543099 
L 247.558933 144.514042 
L 250.070219 141.82221 
L 252.581505 139.508522 
L 255.929885 136.866191 
L 258.441171 135.240711 
L 260.115362 134.242339 
L 262.626647 133.013962 
L 265.137933 132.058751 
L 267.649219 131.256222 
L 270.997599 130.527531 
L 274.34598 130.299811 
L 276.020171 130.316567 
L 277.694361 130.499273 
L 279.368552 130.78669 
L 281.879837 131.416606 
L 284.391123 132.262022 
L 287.739504 133.634572 
L 291.087885 135.340211 
L 295.273361 137.755191 
L 299.458837 140.271127 
L 306.155598 144.626446 
L 312.015265 148.959763 
L 314.526551 151.074553 
L 317.037836 153.324758 
L 319.549122 155.86822 
L 322.897503 159.726448 
L 325.408788 163.126341 
L 328.757169 168.229211 
L 331.268455 172.480042 
L 333.779741 177.131523 
L 337.965217 185.610626 
L 340.476502 191.083419 
L 346.336169 204.499652 
L 358.892597 234.176983 
L 364.752264 247.322175 
L 369.774835 258.054013 
L 377.308692 273.28343 
L 384.842549 287.583908 
L 391.53931 299.701544 
L 398.236072 311.01745 
L 402.421548 317.7195 
L 407.44412 325.424162 
L 412.466691 332.735436 
L 417.489262 339.773281 
L 427.534405 353.080149 
L 435.905357 363.504537 
L 440.927928 369.277299 
L 445.950499 374.592853 
L 449.29888 377.863138 
L 453.484356 381.584968 
L 458.506928 385.534423 
L 462.692404 388.472903 
L 466.87788 391.114223 
L 471.063356 393.45566 
L 475.248832 395.530061 
L 480.271403 397.597914 
L 485.293975 399.212014 
L 487.80526 399.81625 
L 491.153641 400.41932 
L 494.502022 400.768672 
L 496.176212 400.818426 
L 496.176212 400.818426 
" clip-path="url(#pdef315ac81)" style="fill: none; stroke-dasharray: 1.3125,2.165625; stroke-dashoffset: 0; stroke: #7570b3; stroke-width: 1.3125"/>
   </g>
   <g id="line2d_9">
    <path d="M 47.856881 405.038805 
L 59.148266 404.942461 
L 65.734907 404.745308 
L 71.3806 404.26671 
L 75.144395 403.711652 
L 79.849138 402.669562 
L 82.671985 401.801225 
L 85.494831 400.753718 
L 89.258626 398.996487 
L 92.081472 397.451186 
L 94.904318 395.672705 
L 97.727165 393.707259 
L 101.49096 390.781852 
L 106.195703 386.707469 
L 109.959498 383.22457 
L 127.837524 366.256985 
L 143.833653 351.895892 
L 149.479346 346.415343 
L 154.184089 341.453907 
L 157.947884 337.185091 
L 165.475474 327.901785 
L 171.121167 320.434337 
L 174.884962 315.212026 
L 178.648757 309.758912 
L 182.412552 303.95929 
L 186.176347 297.714349 
L 189.940142 290.896353 
L 192.762988 285.371915 
L 196.526783 277.245248 
L 199.349629 270.641011 
L 202.172475 263.593492 
L 205.93627 253.581033 
L 210.641014 240.38728 
L 221.932399 208.238414 
L 224.755245 200.807913 
L 228.51904 191.669068 
L 231.341886 185.422219 
L 234.164733 179.797037 
L 236.987579 174.741269 
L 239.810425 170.283205 
L 242.633271 166.271121 
L 245.456118 162.779522 
L 248.278964 159.632627 
L 251.10181 156.767073 
L 254.865605 153.376346 
L 262.393195 147.103365 
L 274.625529 137.361599 
L 279.330272 133.961624 
L 284.035016 131.162021 
L 286.857862 129.869713 
L 289.680709 128.925543 
L 292.503555 128.39058 
L 294.385452 128.279459 
L 296.26735 128.423731 
L 298.149247 128.750613 
L 300.031145 129.391613 
L 301.913042 130.288741 
L 303.79494 131.436303 
L 305.676837 132.804478 
L 307.558735 134.37258 
L 310.381581 137.299704 
L 313.204427 140.7206 
L 316.027274 144.662098 
L 318.85012 149.066737 
L 321.672966 153.886995 
L 325.436761 160.748659 
L 330.141505 170.007299 
L 336.728146 183.636074 
L 340.491941 191.556129 
L 347.078582 205.207135 
L 354.606172 220.094217 
L 359.310916 228.78087 
L 366.838506 242.081674 
L 378.129891 261.517638 
L 383.775583 271.90613 
L 387.539378 279.365848 
L 391.303173 287.181067 
L 395.066968 295.55473 
L 399.771712 306.467767 
L 412.004046 334.921754 
L 415.767841 342.881868 
L 418.590687 348.402703 
L 421.413533 353.423148 
L 424.236379 357.90156 
L 427.059226 361.899434 
L 429.882072 365.453268 
L 432.704918 368.450398 
L 435.527764 371.019848 
L 437.409662 372.552885 
L 440.232508 374.530692 
L 443.055354 376.225745 
L 446.819149 378.277309 
L 451.523893 380.57706 
L 461.874329 385.606996 
L 469.401919 389.602279 
L 484.457099 397.549288 
L 490.102792 400.097398 
L 493.866587 401.597139 
L 498.57133 403.200478 
L 504.217023 404.785424 
L 507.980818 405.622717 
L 512.685561 406.463855 
L 517.390305 407.059805 
L 522.095049 407.443078 
L 527.740741 407.657637 
L 528.68169 407.658487 
L 528.68169 407.658487 
" clip-path="url(#pdef315ac81)" style="fill: none; stroke-dasharray: 4.85625,2.1; stroke-dashoffset: 0; stroke: #7570b3; stroke-width: 1.3125"/>
   </g>
   <g id="line2d_10">
    <path d="M 50.648593 408.163636 
L 56.274573 408.045203 
L 60.962889 407.712892 
L 66.588868 407.013044 
L 71.277184 406.17504 
L 76.903164 404.819993 
L 81.59148 403.444513 
L 89.092786 400.838613 
L 93.781102 398.987575 
L 98.469418 396.910383 
L 102.220071 395.089703 
L 106.908387 392.501767 
L 111.596703 389.539392 
L 116.285019 386.057773 
L 120.973335 382.087417 
L 124.723988 378.495332 
L 129.412304 373.563157 
L 133.162957 369.205437 
L 137.851273 363.366661 
L 142.539589 357.078784 
L 147.227905 350.406477 
L 153.791548 340.761151 
L 177.233129 305.1776 
L 182.859108 295.971152 
L 186.609761 289.36604 
L 189.42275 284.058663 
L 192.23574 278.450158 
L 195.986393 270.415537 
L 199.737046 261.907241 
L 205.363025 248.169537 
L 218.49031 215.372893 
L 222.240963 206.656347 
L 225.991616 198.443738 
L 229.742269 190.802197 
L 233.492922 183.719636 
L 237.243575 176.989606 
L 241.931891 169.145003 
L 249.433197 157.352364 
L 257.872166 144.637417 
L 261.622819 139.213973 
L 265.373472 133.881117 
L 270.061788 127.872758 
L 272.874777 124.662142 
L 274.750104 122.765511 
L 277.563094 120.31836 
L 279.43842 118.986928 
L 281.313746 117.953597 
L 283.189073 117.222482 
L 285.064399 116.871843 
L 286.939726 116.874722 
L 288.815052 117.260035 
L 290.690379 118.086614 
L 292.565705 119.267232 
L 293.503368 119.959967 
L 295.378695 121.718422 
L 297.254021 123.755494 
L 300.067011 127.373607 
L 302.880001 131.563593 
L 306.630653 137.723027 
L 316.944949 154.935656 
L 321.633265 161.701915 
L 323.508592 164.178813 
L 328.196908 169.745674 
L 338.511203 181.472214 
L 341.324193 185.03972 
L 343.199519 187.588727 
L 346.012509 191.793207 
L 348.825499 196.394805 
L 351.638488 201.42785 
L 355.389141 208.773358 
L 359.139794 216.738631 
L 363.82811 227.277567 
L 368.516426 238.444188 
L 373.204742 249.988992 
L 379.768385 266.421634 
L 391.020344 294.052694 
L 395.70866 304.951696 
L 399.459313 313.397921 
L 404.147629 323.313408 
L 407.898282 330.854349 
L 410.711271 336.260802 
L 416.337251 346.552738 
L 421.025567 354.61706 
L 425.713883 362.183152 
L 430.402199 369.296863 
L 435.090515 375.81114 
L 437.903505 379.405093 
L 440.716495 382.682419 
L 443.529484 385.686484 
L 446.342474 388.381212 
L 449.155464 390.757837 
L 451.968453 392.754924 
L 454.781443 394.461437 
L 457.594433 395.813679 
L 460.407422 396.882093 
L 463.220412 397.689071 
L 466.971065 398.344324 
L 469.784054 398.656196 
L 475.410034 398.907939 
L 489.474982 399.406702 
L 494.163298 399.890311 
L 499.789278 400.768813 
L 513.854226 403.289488 
L 519.480205 404.044792 
L 524.168521 404.45806 
L 528.856838 404.665475 
L 529.794501 404.690408 
L 529.794501 404.690408 
" clip-path="url(#pdef315ac81)" style="fill: none; stroke-dasharray: 8.4,2.1,1.3125,2.1; stroke-dashoffset: 0; stroke: #7570b3; stroke-width: 1.3125"/>
   </g>
   <g id="patch_3">
    <path d="M 23.76 422.96 
L 553.891382 422.96 
" style="fill: none; stroke: #333333; stroke-width: 1.5; stroke-linejoin: miter; stroke-linecap: square"/>
   </g>
   <g id="text_3">
    <!-- $\sigma$ -->
    <g style="fill: #262626" transform="translate(264.505691 81.634375)">
     <text>
      <tspan x="0" y="-0.40625" style="font-style: oblique; font-size: 76px; font-family: 'DejaVu Sans'; fill: #262626">σ</tspan>
     </text>
    </g>
   </g>
  </g>
 </g>
 <defs>
  <clipPath id="pdef315ac81">
   <rect x="23.76" y="97.44" width="530.131382" height="325.52"/>
  </clipPath>
 </defs>
</svg>
