<?xml version="1.0" encoding="utf-8" standalone="no"?>
<!DOCTYPE svg PUBLIC "-//W3C//DTD SVG 1.1//EN"
  "http://www.w3.org/Graphics/SVG/1.1/DTD/svg11.dtd">
<svg xmlns:xlink="http://www.w3.org/1999/xlink" width="648pt" height="504pt" viewBox="0 0 648 504" xmlns="http://www.w3.org/2000/svg" version="1.1">
 <metadata>
  <rdf:RDF xmlns:dc="http://purl.org/dc/elements/1.1/" xmlns:cc="http://creativecommons.org/ns#" xmlns:rdf="http://www.w3.org/1999/02/22-rdf-syntax-ns#">
   <cc:Work>
    <dc:type rdf:resource="http://purl.org/dc/dcmitype/StillImage"/>
    <dc:date>2026-02-22T16:15:36.539039</dc:date>
    <dc:format>image/svg+xml</dc:format>
    <dc:creator>
     <cc:Agent>
      <dc:title>Matplotlib v3.10.6, https://matplotlib.org/</dc:title>
     </cc:Agent>
    </dc:creator>
   </cc:Work>
  </rdf:RDF>
 </metadata>
 <defs>
  <style type="text/css">*{stroke-linejoin: round; stroke-linecap: butt}</style>
 </defs>
 <g id="figure_1">
  <g id="patch_1">
   <path d="M 0 504 
L 648 504 
L 648 0 
L 0 0 
L 0 504 
z
" style="fill: none; opacity: 0"/>
  </g>
  <g id="axes_1">
   <g id="patch_2">
    <path d="M 89.090215 422.96 
L 624.24 422.96 
L 624.24 113.772 
L 89.090215 113.772 
L 89.090215 422.96 
z
" style="fill: none"/>
   </g>
   <g id="matplotlib.axis_1">
    <g id="xtick_1">
     <g id="line2d_1">
      <path d="M 104.389494 422.96 
L 104.389494 113.772 
" clip-path="url(#pf9dcf2727a)" style="fill: none; stroke: #cccccc; stroke-opacity: 0.4; stroke-linecap: round"/>
     </g>
     <g id="line2d_2"/>
     <g id="text_1">
      <text style="font-size: 52px; font-family: 'DejaVu Serif', 'Times New Roman', serif; text-anchor: middle; fill: #262626" x="104.389494" y="469.471875" transform="rotate(-0 104.389494 469.471875)">−0.28</text>
     </g>
    </g>
    <g id="xtick_2">
     <g id="line2d_3">
      <path d="M 289.177904 422.96 
L 289.177904 113.772 
" clip-path="url(#pf9dcf2727a)" style="fill: none; stroke: #cccccc; stroke-opacity: 0.4; stroke-linecap: round"/>
     </g>
     <g id="line2d_4"/>
     <g id="text_2">
      <text style="font-size: 52px; font-family: 'DejaVu Serif', 'Times New Roman', serif; text-anchor: middle; fill: #262626" x="289.177904" y="469.471875" transform="rotate(-0 289.177904 469.471875)">−0.26</text>
     </g>
    </g>
    <g id="xtick_3">
     <g id="line2d_5">
      <path d="M 473.966314 422.96 
L 473.966314 113.772 
" clip-path="url(#pf9dcf2727a)" style="fill: none; stroke: #cccccc; stroke-opacity: 0.4; stroke-linecap: round"/>
     </g>
     <g id="line2d_6"/>
     <g id="text_3">
      <text style="font-size: 52px; font-family: 'DejaVu Serif', 'Times New Roman', serif; text-anchor: middle; fill: #262626" x="473.966314" y="469.471875" transform="rotate(-0 473.966314 469.471875)">−0.24</text>
     </g>
    </g>
   </g>
   <g id="matplotlib.axis_2">
    <g id="ytick_1">
     <g id="line2d_7">
      <path d="M 89.090215 413.897384 
L 624.24 413.897384 
" clip-path="url(#pf9dcf2727a)" style="fill: none; stroke: #cccccc; stroke-opacity: 0.4; stroke-linecap: round"/>
     </g>
    </g>
    <g id="ytick_2">
     <g id="line2d_8">
      <path d="M 89.090215 126.363017 
L 624.24 126.363017 
" clip-path="url(#pf9dcf2727a)" style="fill: none; stroke: #cccccc; stroke-opacity: 0.4; stroke-linecap: round"/>
     </g>
    </g>
   </g>
   <g id="line2d_9">
    <path d="M 113.415205 408.29001 
L 121.507891 408.428937 
L 140.390825 408.906 
L 147.584323 408.73553 
L 152.979447 408.38843 
L 159.273758 407.706998 
L 163.769695 406.981713 
L 168.265631 406.03502 
L 171.862381 405.069985 
L 175.45913 403.903338 
L 179.955067 402.113599 
L 184.451003 400.020144 
L 188.94694 397.617044 
L 194.342064 394.334645 
L 200.636375 390.04699 
L 206.031499 385.994604 
L 212.32581 380.623965 
L 217.720934 375.53283 
L 224.015245 368.84048 
L 228.511182 363.67691 
L 233.007119 358.132957 
L 237.503055 352.265868 
L 241.998992 345.996923 
L 245.595741 340.644608 
L 249.19249 334.961399 
L 253.688427 327.267711 
L 256.385989 322.301719 
L 259.982738 315.156925 
L 264.478675 305.607486 
L 268.974611 295.298656 
L 276.16811 277.964287 
L 284.260796 258.194291 
L 289.65592 245.476721 
L 295.950231 231.279205 
L 304.942104 212.002083 
L 319.329101 182.847107 
L 322.92585 176.14016 
L 326.5226 169.85017 
L 329.220162 165.549108 
L 331.917724 161.53808 
L 334.615286 157.913156 
L 337.312848 154.699322 
L 340.909597 151.049428 
L 342.707972 149.483112 
L 345.405533 147.482332 
L 348.103095 145.843536 
L 349.90147 145.015742 
L 352.599032 144.124856 
L 356.195781 143.440971 
L 357.994156 143.333417 
L 360.691718 143.521758 
L 362.490093 143.833669 
L 366.086842 144.831553 
L 367.885216 145.541873 
L 370.582778 146.905832 
L 373.28034 148.388943 
L 376.87709 150.711986 
L 394.860836 164.001132 
L 397.558398 166.143106 
L 402.953522 170.861477 
L 405.651084 173.573351 
L 407.449459 175.497651 
L 411.046208 179.800667 
L 415.542144 186.045159 
L 418.239706 190.096807 
L 421.836456 195.898315 
L 429.029954 208.090925 
L 438.021827 223.61778 
L 447.013701 239.33531 
L 450.61045 245.915344 
L 455.106387 254.797335 
L 458.703136 262.380454 
L 463.199072 272.454818 
L 468.594196 285.314011 
L 483.880381 322.246665 
L 487.47713 330.209611 
L 491.073879 337.621166 
L 493.771441 342.830076 
L 496.469003 347.678314 
L 500.065753 353.535413 
L 502.763314 357.548405 
L 505.460876 361.181908 
L 509.057626 365.622744 
L 511.755188 368.597002 
L 514.45275 371.353211 
L 518.049499 374.746215 
L 523.444623 379.499307 
L 532.436496 386.859182 
L 540.529182 393.033415 
L 545.025119 396.178466 
L 548.621868 398.391928 
L 552.218617 400.331044 
L 555.815366 401.953147 
L 560.311303 403.566959 
L 563.908052 404.475104 
L 567.504802 405.107706 
L 571.101551 405.43059 
L 572.899925 405.48275 
L 572.899925 405.48275 
" clip-path="url(#pf9dcf2727a)" style="fill: none; stroke: #2ca02c; stroke-width: 1.3125; stroke-linecap: round"/>
   </g>
   <g id="line2d_10">
    <path d="M 157.64211 406.053545 
L 160.121358 405.934599 
L 163.427023 405.514069 
L 165.906271 405.003917 
L 169.211936 404.032903 
L 171.691184 403.153663 
L 175.823265 401.321513 
L 179.955345 399.170107 
L 185.740258 395.77017 
L 191.525171 392.2135 
L 203.921413 384.262986 
L 207.227078 382.003234 
L 210.532742 379.593316 
L 213.838407 376.945204 
L 217.144071 373.953507 
L 219.62332 371.484234 
L 222.928984 367.764394 
L 225.408232 364.667401 
L 227.887481 361.29794 
L 231.193145 356.398512 
L 234.49881 351.088271 
L 236.978058 346.761913 
L 240.283723 340.662395 
L 246.068636 329.263146 
L 251.853549 317.35817 
L 258.464878 303.433005 
L 266.729039 285.332539 
L 272.513952 272.087229 
L 276.646033 262.239222 
L 284.083778 243.885419 
L 293.174355 221.628568 
L 297.306436 212.116985 
L 300.6121 205.032074 
L 303.917765 198.410147 
L 308.049846 190.803719 
L 311.35551 185.291869 
L 314.661175 180.283295 
L 317.140423 176.780747 
L 322.09892 170.447038 
L 325.404584 166.566511 
L 329.536665 162.326611 
L 332.015913 159.971799 
L 335.321578 157.123095 
L 337.800826 155.284093 
L 340.280075 153.719448 
L 342.759323 152.434894 
L 344.412155 151.691114 
L 346.064988 151.120128 
L 349.370652 150.355189 
L 351.8499 150.02677 
L 353.502733 149.959205 
L 355.981981 150.206617 
L 359.287646 150.884175 
L 360.940478 151.334345 
L 367.551807 153.815643 
L 374.163136 157.059176 
L 384.906546 162.729544 
L 389.865042 165.418225 
L 393.170707 167.234072 
L 397.302788 169.966286 
L 399.782036 171.750879 
L 403.0877 174.766834 
L 405.566949 177.297701 
L 408.046197 180.227398 
L 410.525446 183.552721 
L 414.657526 190.226525 
L 417.136775 194.788349 
L 419.616023 199.774349 
L 422.921688 207.026469 
L 426.227352 214.860198 
L 434.491513 235.3791 
L 438.623594 245.243108 
L 442.755675 254.412769 
L 446.061339 261.118999 
L 449.367004 267.132111 
L 452.672668 272.701408 
L 455.151917 276.58195 
L 458.457581 281.409799 
L 467.548159 294.391902 
L 470.853823 299.433886 
L 476.638736 308.937108 
L 479.944401 314.767224 
L 486.55573 326.90475 
L 495.646307 343.488755 
L 499.778388 350.587967 
L 503.910468 357.206549 
L 507.216133 362.159209 
L 510.521797 366.781753 
L 513.827462 371.029022 
L 517.133126 374.890635 
L 520.438791 378.413908 
L 524.570872 382.313984 
L 527.876536 385.028726 
L 531.182201 387.457732 
L 533.661449 389.096552 
L 536.967114 391.037614 
L 540.272778 392.713734 
L 543.578443 394.218768 
L 548.536939 396.109481 
L 553.495436 397.734067 
L 559.280349 399.38213 
L 564.238846 400.526171 
L 569.197343 401.442539 
L 573.329423 401.958941 
L 576.635088 402.227943 
L 579.940752 402.340007 
L 579.940752 402.340007 
" clip-path="url(#pf9dcf2727a)" style="fill: none; stroke-dasharray: 1.3125,2.165625; stroke-dashoffset: 0; stroke: #2ca02c; stroke-width: 1.3125"/>
   </g>
   <g id="line2d_11">
    <path d="M 139.429771 402.047354 
L 145.67875 402.194342 
L 159.069418 402.805579 
L 162.640263 402.844934 
L 167.103819 402.670704 
L 170.674663 402.328197 
L 173.352797 401.88188 
L 176.03093 401.332724 
L 179.601775 400.344027 
L 183.17262 399.039876 
L 185.850754 397.825511 
L 188.528887 396.45244 
L 192.099732 394.297132 
L 195.670577 391.84192 
L 199.241422 389.093899 
L 203.704978 385.315472 
L 208.168534 381.180117 
L 214.417512 375.043996 
L 222.451913 366.820698 
L 226.915469 361.988084 
L 231.379025 356.690637 
L 234.949869 351.989514 
L 237.628003 348.081681 
L 241.198848 342.340096 
L 243.876981 337.581911 
L 247.447826 330.643556 
L 251.018671 323.139471 
L 254.589516 315.083827 
L 259.945783 302.507172 
L 268.872895 281.459327 
L 273.336451 271.708646 
L 277.800007 262.770154 
L 280.47814 257.717714 
L 284.941696 250.033399 
L 288.512541 244.505277 
L 294.761519 235.531823 
L 300.117787 228.230591 
L 305.474054 220.909407 
L 309.93761 214.424663 
L 313.508455 208.875687 
L 317.972011 201.437332 
L 323.328278 192.164671 
L 328.684545 182.865581 
L 332.25539 176.875278 
L 336.718946 169.980829 
L 339.397079 166.16254 
L 342.967924 161.639302 
L 345.646058 158.671702 
L 348.324191 156.112252 
L 350.109614 154.538036 
L 353.680458 151.956592 
L 356.358592 150.343821 
L 358.144014 149.415669 
L 361.714859 147.920563 
L 363.500281 147.300988 
L 366.178415 146.561263 
L 371.534682 145.725533 
L 373.320105 145.681121 
L 376.890949 146.026913 
L 379.569083 146.689712 
L 381.354505 147.364554 
L 383.139928 148.256081 
L 385.818061 149.92043 
L 388.496195 151.979987 
L 390.281617 153.637188 
L 392.06704 155.542313 
L 394.745173 158.667179 
L 397.423307 162.319169 
L 402.779574 170.533363 
L 414.38482 189.156267 
L 417.062953 193.03084 
L 420.633798 197.777768 
L 424.204643 202.084549 
L 430.453621 209.145586 
L 433.131755 212.210436 
L 436.702599 216.696509 
L 439.380733 220.468735 
L 442.058867 224.640836 
L 444.737 229.309793 
L 447.415134 234.489732 
L 450.093267 240.235825 
L 453.664112 248.5924 
L 457.234957 257.724966 
L 462.591224 272.266469 
L 470.625625 294.460131 
L 475.981892 308.448882 
L 479.552737 317.133778 
L 483.123582 325.234806 
L 486.694426 332.72781 
L 491.157982 341.190034 
L 494.728827 347.256599 
L 498.299672 352.791523 
L 500.977805 356.662916 
L 505.441361 362.665925 
L 511.69034 370.248919 
L 517.046607 376.173056 
L 523.295585 382.466602 
L 527.759141 386.497323 
L 531.329986 389.470837 
L 535.793542 392.74944 
L 539.364387 395.093227 
L 543.827943 397.671457 
L 548.291499 399.853601 
L 552.755055 401.669912 
L 556.3259 402.855951 
L 559.896744 403.873294 
L 563.467589 404.696996 
L 567.931145 405.563036 
L 574.180123 406.430813 
L 580.429102 406.967468 
L 586.67808 407.327785 
L 593.81977 407.507989 
L 595.605192 407.508534 
L 595.605192 407.508534 
" clip-path="url(#pf9dcf2727a)" style="fill: none; stroke-dasharray: 4.85625,2.1; stroke-dashoffset: 0; stroke: #2ca02c; stroke-width: 1.3125"/>
   </g>
   <g id="line2d_12">
    <path d="M 146.598635 403.688587 
L 152.808448 403.79898 
L 161.67961 404.015003 
L 166.115191 403.934414 
L 169.663656 403.683015 
L 173.212121 403.153812 
L 176.760585 402.358433 
L 180.30905 401.309556 
L 183.857515 399.974276 
L 187.40598 398.365822 
L 190.954444 396.557845 
L 195.390025 394.040873 
L 202.486955 389.436477 
L 206.922536 386.237663 
L 210.471001 383.435395 
L 214.906582 379.580429 
L 217.56793 377.076093 
L 221.116395 373.439953 
L 225.551976 368.316128 
L 228.213325 364.954317 
L 231.761789 360.038366 
L 236.19737 353.299546 
L 241.520067 344.309711 
L 245.955648 336.178251 
L 250.391229 327.516122 
L 256.601043 314.60732 
L 262.810856 301.049929 
L 272.569134 279.347447 
L 278.778948 265.9447 
L 282.327412 258.450992 
L 292.08569 238.627936 
L 296.521271 229.545552 
L 300.069736 222.007979 
L 303.618201 214.204233 
L 307.166666 205.920602 
L 311.602247 195.158973 
L 320.473409 172.661238 
L 324.021873 163.844563 
L 327.570338 155.660508 
L 331.118803 148.113982 
L 333.780152 143.106403 
L 335.554384 140.089527 
L 337.328616 137.462269 
L 339.102849 135.09915 
L 340.877081 133.05277 
L 342.651314 131.353385 
L 344.425546 129.96971 
L 346.199778 128.992075 
L 347.974011 128.352867 
L 348.861127 128.087024 
L 350.635359 127.841198 
L 352.409592 127.890589 
L 354.183824 128.159088 
L 355.958056 128.715391 
L 357.732289 129.484178 
L 360.393637 130.939815 
L 363.054986 132.678792 
L 369.264799 137.335723 
L 377.248845 143.736395 
L 384.345775 149.829617 
L 387.007123 152.441615 
L 389.668472 155.296211 
L 391.442704 157.374411 
L 394.104053 160.817334 
L 397.652518 166.005286 
L 400.313866 170.262978 
L 403.862331 176.55279 
L 408.297912 184.959265 
L 418.05619 203.932265 
L 421.604655 210.412746 
L 424.266003 215.070184 
L 428.701584 222.349309 
L 441.121211 242.228414 
L 443.78256 247.026998 
L 447.331024 253.889307 
L 450.879489 261.452071 
L 454.427954 269.564813 
L 459.750651 282.759036 
L 472.170278 313.828705 
L 475.718743 321.870828 
L 479.267207 329.330584 
L 481.928556 334.544102 
L 484.589905 339.29546 
L 488.138369 345.18324 
L 491.686834 350.564898 
L 494.348183 354.28699 
L 498.783764 359.966437 
L 501.445112 363.188099 
L 506.767809 369.076349 
L 511.20339 373.569155 
L 514.751855 376.905279 
L 519.187436 380.653889 
L 522.735901 383.276017 
L 526.284366 385.621462 
L 529.83283 387.685947 
L 532.494179 389.034358 
L 536.92976 390.953332 
L 541.365341 392.482405 
L 544.913806 393.543972 
L 550.236503 394.919438 
L 577.737105 401.302294 
L 582.172686 402.073257 
L 588.382499 402.875021 
L 593.705196 403.283426 
L 599.91501 403.521671 
L 599.91501 403.521671 
" clip-path="url(#pf9dcf2727a)" style="fill: none; stroke-dasharray: 8.4,2.1,1.3125,2.1; stroke-dashoffset: 0; stroke: #2ca02c; stroke-width: 1.3125"/>
   </g>
   <g id="patch_3">
    <path d="M 89.090215 422.96 
L 624.24 422.96 
" style="fill: none; stroke: #333333; stroke-width: 1.5; stroke-linejoin: miter; stroke-linecap: square"/>
   </g>
   <g id="text_4">
    <!-- $x_1^2x_3$ -->
    <g style="fill: #262626" transform="translate(273.825107 92.492)">
     <text>
      <tspan x="0" y="-0.421875" style="font-style: oblique; font-size: 76px; font-family: 'DejaVu Sans'; fill: #262626">x</tspan>
      <tspan x="84.296419" y="-0.421875" style="font-style: oblique; font-size: 76px; font-family: 'DejaVu Sans'; fill: #262626">x</tspan>
      <tspan x="44.976562" y="20.359375" style="font-size: 53.2px; font-family: 'DejaVu Sans'; fill: #262626">1</tspan>
      <tspan x="48.370833" y="-29.515625" style="font-size: 53.2px; font-family: 'DejaVu Sans'; fill: #262626">2</tspan>
      <tspan x="129.272982" y="12.046875" style="font-size: 53.2px; font-family: 'DejaVu Sans'; fill: #262626">3</tspan>
     </text>
    </g>
   </g>
  </g>
 </g>
 <defs>
  <clipPath id="pf9dcf2727a">
   <rect x="89.090215" y="113.772" width="535.149785" height="309.188"/>
  </clipPath>
 </defs>
</svg>
