<?xml version="1.0" encoding="utf-8" standalone="no"?>
<!DOCTYPE svg PUBLIC "-//W3C//DTD SVG 1.1//EN"
  "http://www.w3.org/Graphics/SVG/1.1/DTD/svg11.dtd">
<svg xmlns:xlink="http://www.w3.org/1999/xlink" width="648pt" height="504pt" viewBox="0 0 648 504" xmlns="http://www.w3.org/2000/svg" version="1.1">
 <metadata>
  <rdf:RDF xmlns:dc="http://purl.org/dc/elements/1.1/" xmlns:cc="http://creativecommons.org/ns#" xmlns:rdf="http://www.w3.org/1999/02/22-rdf-syntax-ns#">
   <cc:Work>
    <dc:type rdf:resource="http://purl.org/dc/dcmitype/StillImage"/>
    <dc:date>2026-02-22T16:15:36.965193</dc:date>
    <dc:format>image/svg+xml</dc:format>
    <dc:creator>
     <cc:Agent>
      <dc:title>Matplotlib v3.10.6, https://matplotlib.org/</dc:title>
     </cc:Agent>
    </dc:creator>
   </cc:Work>
  </rdf:RDF>
 </metadata>
 <defs>
  <style type="text/css">*{stroke-linejoin: round; stroke-linecap: butt}</style>
 </defs>
 <g id="figure_1">
  <g id="patch_1">
   <path d="M 0 504 
L 648 504 
L 648 0 
L 0 0 
L 0 504 
z
" style="fill: none; opacity: 0"/>
  </g>
  <g id="axes_1">
   <g id="patch_2">
    <path d="M 40.533673 422.96 
L 624.24 422.96 
L 624.24 113.772 
L 40.533673 113.772 
L 40.533673 422.96 
z
" style="fill: none"/>
   </g>
   <g id="matplotlib.axis_1">
    <g id="xtick_1">
     <g id="line2d_1">
      <path d="M 113.658322 422.96 
L 113.658322 113.772 
" clip-path="url(#p18c5b3e836)" style="fill: none; stroke: #cccccc; stroke-opacity: 0.4; stroke-linecap: round"/>
     </g>
     <g id="line2d_2"/>
     <g id="text_1">
      <text style="font-size: 52px; font-family: 'DejaVu Serif', 'Times New Roman', serif; text-anchor: middle; fill: #262626" x="113.658322" y="469.471875" transform="rotate(-0 113.658322 469.471875)">−1.02</text>
     </g>
    </g>
    <g id="xtick_2">
     <g id="line2d_3">
      <path d="M 310.60592 422.96 
L 310.60592 113.772 
" clip-path="url(#p18c5b3e836)" style="fill: none; stroke: #cccccc; stroke-opacity: 0.4; stroke-linecap: round"/>
     </g>
     <g id="line2d_4"/>
     <g id="text_2">
      <text style="font-size: 52px; font-family: 'DejaVu Serif', 'Times New Roman', serif; text-anchor: middle; fill: #262626" x="310.60592" y="469.471875" transform="rotate(-0 310.60592 469.471875)">−1.00</text>
     </g>
    </g>
    <g id="xtick_3">
     <g id="line2d_5">
      <path d="M 507.553518 422.96 
L 507.553518 113.772 
" clip-path="url(#p18c5b3e836)" style="fill: none; stroke: #cccccc; stroke-opacity: 0.4; stroke-linecap: round"/>
     </g>
     <g id="line2d_6"/>
     <g id="text_3">
      <text style="font-size: 52px; font-family: 'DejaVu Serif', 'Times New Roman', serif; text-anchor: middle; fill: #262626" x="507.553518" y="469.471875" transform="rotate(-0 507.553518 469.471875)">−0.98</text>
     </g>
    </g>
   </g>
   <g id="matplotlib.axis_2">
    <g id="ytick_1">
     <g id="line2d_7">
      <path d="M 40.533673 410.351559 
L 624.24 410.351559 
" clip-path="url(#p18c5b3e836)" style="fill: none; stroke: #cccccc; stroke-opacity: 0.4; stroke-linecap: round"/>
     </g>
    </g>
    <g id="ytick_2">
     <g id="line2d_8">
      <path d="M 40.533673 140.896015 
L 624.24 140.896015 
" clip-path="url(#p18c5b3e836)" style="fill: none; stroke: #cccccc; stroke-opacity: 0.4; stroke-linecap: round"/>
     </g>
    </g>
   </g>
   <g id="line2d_9">
    <path d="M 106.862941 400.693096 
L 112.736937 400.894774 
L 118.610933 401.258331 
L 121.967502 401.415022 
L 126.163213 401.412966 
L 129.519782 401.158812 
L 132.037209 400.774859 
L 135.393778 399.938284 
L 137.911204 399.02784 
L 140.428631 397.904952 
L 142.946058 396.537697 
L 145.463485 394.92214 
L 147.980911 393.041364 
L 151.33748 390.122237 
L 153.854907 387.598252 
L 158.050618 382.796747 
L 160.568045 379.443121 
L 163.924614 374.604081 
L 167.281183 369.190712 
L 169.79861 364.830709 
L 173.155179 358.532081 
L 176.511748 351.703086 
L 179.868317 344.52594 
L 184.064028 335.130645 
L 191.616308 317.499177 
L 200.846873 295.758684 
L 208.399153 278.145623 
L 217.629718 257.271534 
L 223.503714 244.532376 
L 227.699425 235.741044 
L 232.734278 225.752044 
L 241.125701 209.840862 
L 248.677981 195.817901 
L 262.943399 169.718644 
L 267.978253 161.264724 
L 270.49568 157.383131 
L 273.852249 152.556582 
L 276.369675 149.224658 
L 279.726244 145.113086 
L 283.082813 141.375468 
L 285.60024 138.855981 
L 288.117667 136.517273 
L 291.474236 133.779159 
L 293.991663 131.976282 
L 296.509089 130.434596 
L 299.026516 129.212854 
L 301.543943 128.321711 
L 304.06137 127.853453 
L 305.739654 127.868248 
L 307.417939 128.05905 
L 309.096223 128.425403 
L 310.774508 129.039363 
L 312.452792 129.906117 
L 314.970219 131.712186 
L 316.648503 133.195437 
L 320.005072 136.837429 
L 322.522499 140.021551 
L 325.879068 144.691358 
L 338.466202 163.897075 
L 340.983629 167.447345 
L 344.340197 171.876756 
L 347.696766 175.772096 
L 351.053335 179.462327 
L 359.444758 188.080423 
L 363.640469 192.65801 
L 366.157896 195.739507 
L 368.675323 199.120252 
L 372.031892 204.227741 
L 374.549318 208.577371 
L 377.066745 213.341167 
L 379.584172 218.545732 
L 382.940741 226.184918 
L 386.29731 234.475248 
L 388.814737 241.093329 
L 394.688732 257.365807 
L 404.758439 285.460239 
L 408.115008 294.29691 
L 412.31072 304.729351 
L 416.506431 314.476927 
L 420.702142 323.452694 
L 424.897853 331.850381 
L 428.254422 338.129156 
L 431.610991 344.157336 
L 436.645845 352.591964 
L 440.841556 359.148153 
L 444.198125 363.989537 
L 448.393836 369.524175 
L 451.750405 373.555266 
L 455.106974 377.125862 
L 458.463543 380.288955 
L 461.820112 383.112434 
L 464.337539 384.978458 
L 467.694108 387.228657 
L 471.889819 389.620805 
L 477.763815 392.509623 
L 485.316095 395.574674 
L 490.350949 397.327833 
L 495.385802 398.842574 
L 499.581513 399.827758 
L 502.938082 400.432439 
L 506.294651 400.834407 
L 509.65122 401.093034 
L 513.846932 401.168889 
L 519.720927 400.964993 
L 533.147203 400.264096 
L 535.66463 400.240361 
L 535.66463 400.240361 
" clip-path="url(#p18c5b3e836)" style="fill: none; stroke: #aec7e8; stroke-width: 1.3125; stroke-linecap: round"/>
   </g>
   <g id="line2d_10">
    <path d="M 67.065779 404.978622 
L 77.022752 404.917132 
L 82.996935 404.631398 
L 86.979724 404.186465 
L 89.966816 403.703719 
L 93.949605 402.824961 
L 97.932395 401.71746 
L 102.910881 400.07073 
L 115.854946 395.490058 
L 119.837735 394.304234 
L 123.820524 393.310496 
L 129.794707 392.111964 
L 140.747378 390.058376 
L 143.734469 389.293911 
L 147.717259 388.018923 
L 150.70435 386.795766 
L 153.691442 385.339045 
L 156.678534 383.646691 
L 159.665626 381.736041 
L 162.652718 379.627494 
L 166.635507 376.511063 
L 170.618296 373.092525 
L 175.596782 368.495844 
L 180.575269 363.371853 
L 183.562361 359.944911 
L 185.553755 357.519114 
L 189.536544 352.147276 
L 192.523636 347.63527 
L 194.515031 344.338413 
L 197.502123 338.773577 
L 200.489214 332.643944 
L 202.480609 328.180876 
L 205.467701 320.790372 
L 208.454793 312.712105 
L 211.441884 303.908376 
L 215.424674 291.212464 
L 220.40316 274.203703 
L 232.351527 232.631391 
L 236.334316 219.778495 
L 240.317106 207.962423 
L 243.304197 199.824143 
L 246.291289 192.304844 
L 249.278381 185.412222 
L 252.265473 179.217924 
L 255.252565 173.657062 
L 257.243959 170.195029 
L 259.235354 167.10981 
L 262.222446 162.892956 
L 264.21384 160.313567 
L 267.200932 156.91585 
L 270.188024 153.89721 
L 272.179419 152.081768 
L 274.170813 150.422516 
L 277.157905 148.095731 
L 283.132089 143.856913 
L 286.11918 141.837743 
L 292.093364 138.010394 
L 299.063245 134.153549 
L 302.050337 132.71282 
L 304.041731 131.941278 
L 307.028823 131.168517 
L 310.015915 130.612749 
L 312.00731 130.48071 
L 313.998704 130.558861 
L 315.990099 130.797251 
L 317.981493 131.186519 
L 320.968585 132.193604 
L 322.95998 133.095775 
L 324.951374 134.160032 
L 327.938466 136.133551 
L 330.925558 138.505091 
L 333.91265 141.255905 
L 336.899742 144.299247 
L 340.882531 148.8151 
L 343.869623 152.484251 
L 349.843806 160.192035 
L 355.81799 168.269295 
L 360.796476 175.193049 
L 364.779266 180.998192 
L 368.762055 187.115797 
L 370.753449 190.344325 
L 373.740541 195.552824 
L 376.727633 201.109503 
L 380.710422 209.371073 
L 384.693211 218.564212 
L 387.680303 226.130457 
L 390.667395 234.28767 
L 393.654487 242.958496 
L 398.632973 258.372478 
L 403.611459 274.437657 
L 411.577038 300.15961 
L 415.559827 312.282579 
L 418.546919 320.867142 
L 421.534011 328.906852 
L 424.521102 336.378708 
L 427.508194 343.22523 
L 430.495286 349.414173 
L 433.482378 354.967717 
L 436.46947 359.927623 
L 439.456562 364.292576 
L 442.443653 368.097355 
L 445.430745 371.482333 
L 448.417837 374.405429 
L 451.404929 376.988256 
L 455.387718 379.886039 
L 458.37481 381.774329 
L 463.353296 384.500553 
L 469.32748 387.379282 
L 502.18549 402.514606 
L 507.163977 404.343555 
L 511.146766 405.558727 
L 515.129555 406.503172 
L 519.112344 407.220721 
L 523.095133 407.674493 
L 528.073619 407.972289 
L 533.052106 408.032061 
L 540.021987 407.877535 
L 554.957446 407.056412 
L 567.901511 406.424173 
L 575.867089 406.27674 
L 575.867089 406.27674 
" clip-path="url(#p18c5b3e836)" style="fill: none; stroke-dasharray: 1.3125,2.165625; stroke-dashoffset: 0; stroke: #aec7e8; stroke-width: 1.3125"/>
   </g>
   <g id="line2d_11">
    <path d="M 80.163159 404.369739 
L 100.603967 404.284138 
L 104.862468 404.013078 
L 108.269269 403.643254 
L 111.676071 403.069834 
L 114.231172 402.453627 
L 117.637973 401.39992 
L 120.193074 400.363202 
L 122.748175 399.159275 
L 126.154976 397.201187 
L 128.710077 395.509425 
L 132.116878 392.927255 
L 136.375379 389.268915 
L 140.633881 385.221563 
L 147.447483 378.27045 
L 153.409385 372.232727 
L 158.519587 367.421571 
L 162.778089 363.730124 
L 167.888291 359.617034 
L 176.405294 353.097828 
L 180.663795 349.486779 
L 184.070596 346.23869 
L 186.625697 343.553387 
L 189.180798 340.569873 
L 191.735899 337.182702 
L 194.291 333.424014 
L 196.846101 329.231413 
L 199.401202 324.670985 
L 201.956303 319.629374 
L 204.511404 314.210496 
L 207.918205 306.283735 
L 211.325006 297.683992 
L 214.731807 288.743879 
L 222.39711 267.684388 
L 229.210712 249.142753 
L 233.469214 238.222796 
L 237.727715 227.794794 
L 241.134517 219.849566 
L 245.393018 210.384683 
L 255.613422 188.551608 
L 267.537226 164.026879 
L 272.647428 154.429095 
L 276.054229 148.674091 
L 278.60933 144.898812 
L 281.164431 141.627411 
L 282.867832 139.722373 
L 284.571232 138.072878 
L 286.274633 136.699967 
L 287.978033 135.628682 
L 289.681434 134.828458 
L 291.384835 134.323486 
L 293.088235 134.115471 
L 294.791636 134.187874 
L 296.495036 134.432999 
L 298.198437 134.915564 
L 299.901838 135.588513 
L 301.605238 136.39269 
L 305.012039 138.572236 
L 307.56714 140.461181 
L 315.232443 146.516434 
L 321.194345 151.171074 
L 329.711348 157.246429 
L 343.338553 166.313746 
L 351.003856 171.747039 
L 356.114058 176.066402 
L 358.669158 178.536374 
L 361.224259 181.301687 
L 363.77936 184.48862 
L 365.482761 186.849293 
L 368.889562 192.098446 
L 371.444663 196.468441 
L 373.999764 201.27239 
L 377.406565 208.339799 
L 380.813366 216.05387 
L 385.071868 226.370027 
L 389.330369 237.295952 
L 397.847372 259.987581 
L 404.660975 278.073125 
L 409.771177 291.151953 
L 414.029678 301.523312 
L 417.436479 309.277061 
L 420.843281 316.386165 
L 423.398381 321.371526 
L 426.805183 327.449117 
L 429.360284 331.547044 
L 431.915384 335.332117 
L 434.470485 338.798682 
L 437.877287 343.038463 
L 441.284088 346.87224 
L 447.24599 353.141774 
L 453.207892 359.126369 
L 462.576595 369.004171 
L 476.2038 383.822362 
L 479.610601 387.172299 
L 483.869103 391.003571 
L 486.424204 393.055119 
L 488.979305 394.905528 
L 491.534406 396.527292 
L 494.941207 398.396628 
L 497.496308 399.516616 
L 500.051409 400.453546 
L 503.45821 401.425851 
L 506.865011 402.124879 
L 510.271812 402.615888 
L 513.678614 402.840221 
L 515.382014 402.865503 
L 515.382014 402.865503 
" clip-path="url(#p18c5b3e836)" style="fill: none; stroke-dasharray: 4.85625,2.1; stroke-dashoffset: 0; stroke: #aec7e8; stroke-width: 1.3125"/>
   </g>
   <g id="line2d_12">
    <path d="M 103.455505 397.775961 
L 107.324408 397.659495 
L 112.160537 397.125941 
L 115.062214 396.577955 
L 118.931118 395.699623 
L 123.767247 394.307328 
L 128.603376 392.609227 
L 132.472279 391.029431 
L 136.341182 389.257572 
L 139.24286 387.689165 
L 142.144537 385.910076 
L 146.01344 383.217645 
L 148.915118 380.91961 
L 151.816795 378.315801 
L 154.718473 375.426913 
L 157.62015 372.197911 
L 159.554602 369.886307 
L 162.456279 366.127007 
L 166.325182 360.603317 
L 170.194086 354.601131 
L 174.062989 348.177438 
L 180.833569 336.267913 
L 199.21086 303.333105 
L 205.014215 293.803986 
L 209.850344 286.480339 
L 213.719247 281.045449 
L 217.58815 276.010704 
L 222.424279 270.226912 
L 227.260408 264.84285 
L 235.965441 255.720291 
L 240.80157 250.361586 
L 244.670473 245.732398 
L 247.57215 241.972648 
L 251.441054 236.588647 
L 253.375505 233.634257 
L 257.244409 227.322407 
L 261.113312 220.541428 
L 264.982215 213.084638 
L 269.818344 203.245407 
L 274.654473 192.977896 
L 282.39228 176.542383 
L 289.16286 163.006925 
L 292.064538 157.768895 
L 294.966215 153.081108 
L 296.900667 150.196436 
L 299.802344 146.355299 
L 301.736796 144.193814 
L 303.671248 142.324227 
L 305.605699 140.772638 
L 307.540151 139.483189 
L 309.474602 138.546194 
L 311.409054 137.80423 
L 313.343506 137.395121 
L 315.277957 137.321828 
L 316.245183 137.300214 
L 318.179635 137.552765 
L 321.081312 138.298092 
L 324.950215 139.935012 
L 327.851893 141.516164 
L 331.720796 143.997089 
L 337.524151 148.393671 
L 342.36028 152.475818 
L 345.261957 155.157533 
L 349.130861 158.954533 
L 352.032538 162.148172 
L 354.934216 165.555587 
L 357.835893 169.218046 
L 362.672022 175.722221 
L 367.508151 182.923717 
L 372.34428 190.612449 
L 380.082087 204.153093 
L 383.95099 211.502676 
L 389.754345 223.245653 
L 392.656022 229.520777 
L 396.524925 238.304395 
L 402.32828 252.209133 
L 407.164409 264.340835 
L 412.967764 278.960241 
L 420.705571 297.805033 
L 425.5417 308.928172 
L 429.410603 317.413304 
L 433.279506 325.507753 
L 439.082861 336.900027 
L 442.951764 344.046306 
L 447.787893 352.48865 
L 451.656797 358.795425 
L 456.492926 366.17068 
L 460.361829 371.579094 
L 464.230732 376.594496 
L 468.099635 381.095446 
L 471.001313 384.169812 
L 474.870216 387.861597 
L 477.771894 390.360992 
L 480.673571 392.634271 
L 483.575248 394.601177 
L 486.476926 396.360277 
L 489.378603 397.900365 
L 493.247507 399.605102 
L 497.11641 401.004375 
L 500.018087 401.818307 
L 503.886991 402.652894 
L 508.72312 403.42387 
L 513.559249 403.925572 
L 526.133184 404.797584 
L 534.838216 405.536431 
L 543.543249 406.564239 
L 557.08441 408.202847 
L 562.887765 408.652375 
L 568.69112 408.874323 
L 574.494475 408.874908 
L 582.232281 408.613291 
L 594.806217 408.145792 
L 597.707894 408.109439 
L 597.707894 408.109439 
" clip-path="url(#p18c5b3e836)" style="fill: none; stroke-dasharray: 8.4,2.1,1.3125,2.1; stroke-dashoffset: 0; stroke: #aec7e8; stroke-width: 1.3125"/>
   </g>
   <g id="patch_3">
    <path d="M 40.533673 422.96 
L 624.24 422.96 
" style="fill: none; stroke: #333333; stroke-width: 1.5; stroke-linejoin: miter; stroke-linecap: square"/>
   </g>
   <g id="text_4">
    <!-- $x_1^2$ -->
    <g style="fill: #262626" transform="translate(290.206837 92.492)">
     <text>
      <tspan x="0" y="-0.421875" style="font-style: oblique; font-size: 76px; font-family: 'DejaVu Sans'; fill: #262626">x</tspan>
      <tspan x="44.976562" y="20.359375" style="font-size: 53.2px; font-family: 'DejaVu Sans'; fill: #262626">1</tspan>
      <tspan x="48.370833" y="-29.515625" style="font-size: 53.2px; font-family: 'DejaVu Sans'; fill: #262626">2</tspan>
     </text>
    </g>
   </g>
  </g>
 </g>
 <defs>
  <clipPath id="p18c5b3e836">
   <rect x="40.533673" y="113.772" width="583.706327" height="309.188"/>
  </clipPath>
 </defs>
</svg>
