<?xml version="1.0" encoding="utf-8" standalone="no"?>
<!DOCTYPE svg PUBLIC "-//W3C//DTD SVG 1.1//EN"
  "http://www.w3.org/Graphics/SVG/1.1/DTD/svg11.dtd">
<svg xmlns:xlink="http://www.w3.org/1999/xlink" width="648pt" height="504pt" viewBox="0 0 648 504" xmlns="http://www.w3.org/2000/svg" version="1.1">
 <metadata>
  <rdf:RDF xmlns:dc="http://purl.org/dc/elements/1.1/" xmlns:cc="http://creativecommons.org/ns#" xmlns:rdf="http://www.w3.org/1999/02/22-rdf-syntax-ns#">
   <cc:Work>
    <dc:type rdf:resource="http://purl.org/dc/dcmitype/StillImage"/>
    <dc:date>2026-02-22T16:15:35.687700</dc:date>
    <dc:format>image/svg+xml</dc:format>
    <dc:creator>
     <cc:Agent>
      <dc:title>Matplotlib v3.10.6, https://matplotlib.org/</dc:title>
     </cc:Agent>
    </dc:creator>
   </cc:Work>
  </rdf:RDF>
 </metadata>
 <defs>
  <style type="text/css">*{stroke-linejoin: round; stroke-linecap: butt}</style>
 </defs>
 <g id="figure_1">
  <g id="patch_1">
   <path d="M 0 504 
L 648 504 
L 648 0 
L 0 0 
L 0 504 
z
" style="fill: none; opacity: 0"/>
  </g>
  <g id="axes_1">
   <g id="patch_2">
    <path d="M 23.76 422.96 
L 624.24 422.96 
L 624.24 113.772 
L 23.76 113.772 
L 23.76 422.96 
z
" style="fill: none"/>
   </g>
   <g id="matplotlib.axis_1">
    <g id="xtick_1">
     <g id="line2d_1">
      <path d="M 113.599317 422.96 
L 113.599317 113.772 
" clip-path="url(#p2b8b6eb322)" style="fill: none; stroke: #cccccc; stroke-opacity: 0.4; stroke-linecap: round"/>
     </g>
     <g id="line2d_2"/>
     <g id="text_1">
      <text style="font-size: 52px; font-family: 'DejaVu Serif', 'Times New Roman', serif; text-anchor: middle; fill: #262626" x="113.599317" y="469.471875" transform="rotate(-0 113.599317 469.471875)">0.09</text>
     </g>
    </g>
    <g id="xtick_2">
     <g id="line2d_3">
      <path d="M 326.490791 422.96 
L 326.490791 113.772 
" clip-path="url(#p2b8b6eb322)" style="fill: none; stroke: #cccccc; stroke-opacity: 0.4; stroke-linecap: round"/>
     </g>
     <g id="line2d_4"/>
     <g id="text_2">
      <text style="font-size: 52px; font-family: 'DejaVu Serif', 'Times New Roman', serif; text-anchor: middle; fill: #262626" x="326.490791" y="469.471875" transform="rotate(-0 326.490791 469.471875)">0.10</text>
     </g>
    </g>
    <g id="xtick_3">
     <g id="line2d_5">
      <path d="M 539.382266 422.96 
L 539.382266 113.772 
" clip-path="url(#p2b8b6eb322)" style="fill: none; stroke: #cccccc; stroke-opacity: 0.4; stroke-linecap: round"/>
     </g>
     <g id="line2d_6"/>
     <g id="text_3">
      <text style="font-size: 52px; font-family: 'DejaVu Serif', 'Times New Roman', serif; text-anchor: middle; fill: #262626" x="539.382266" y="469.471875" transform="rotate(-0 539.382266 469.471875)">0.11</text>
     </g>
    </g>
   </g>
   <g id="matplotlib.axis_2">
    <g id="ytick_1">
     <g id="line2d_7">
      <path d="M 23.76 411.743491 
L 624.24 411.743491 
" clip-path="url(#p2b8b6eb322)" style="fill: none; stroke: #cccccc; stroke-opacity: 0.4; stroke-linecap: round"/>
     </g>
    </g>
    <g id="ytick_2">
     <g id="line2d_8">
      <path d="M 23.76 155.87436 
L 624.24 155.87436 
" clip-path="url(#p2b8b6eb322)" style="fill: none; stroke: #cccccc; stroke-opacity: 0.4; stroke-linecap: round"/>
     </g>
    </g>
   </g>
   <g id="line2d_9">
    <path d="M 92.456095 399.363306 
L 96.107457 399.304529 
L 100.67166 399.017068 
L 105.235863 398.541204 
L 107.974385 398.165973 
L 114.364269 397.059903 
L 119.841312 395.926375 
L 126.231197 394.35013 
L 131.70824 392.733658 
L 137.185284 390.695537 
L 142.662327 388.160829 
L 147.22653 385.611167 
L 150.877893 383.230183 
L 153.616414 381.260654 
L 157.267777 378.326261 
L 160.919139 375.104641 
L 165.483342 370.681618 
L 170.960386 364.846605 
L 175.524589 359.51792 
L 181.914473 351.556516 
L 186.478676 345.575745 
L 191.042879 339.377203 
L 195.607082 332.883127 
L 201.084125 324.667888 
L 205.648328 317.364725 
L 209.29969 311.128797 
L 214.776734 301.095344 
L 218.428096 293.881484 
L 224.817981 280.572177 
L 233.946386 261.013478 
L 238.510589 251.629639 
L 243.074792 242.885171 
L 246.726155 236.401001 
L 250.377517 230.411528 
L 254.94172 223.686594 
L 259.505923 217.535154 
L 265.895807 209.633827 
L 272.285691 202.391719 
L 277.762735 196.663057 
L 281.414097 193.105486 
L 286.891141 188.293068 
L 291.455344 184.885094 
L 296.932387 181.18257 
L 303.322271 177.266475 
L 307.886474 174.473202 
L 314.276359 170.181527 
L 319.753402 166.18489 
L 324.317605 162.91276 
L 330.707489 158.934533 
L 333.446011 157.618748 
L 335.271692 156.898841 
L 338.010214 156.161443 
L 339.835895 155.942392 
L 342.574417 155.94419 
L 344.400098 156.216566 
L 347.13862 157.096084 
L 348.964301 158.013791 
L 350.789982 159.121564 
L 352.615663 160.472939 
L 354.441345 162.105028 
L 356.267026 163.934037 
L 359.005548 167.152137 
L 360.831229 169.571808 
L 363.569751 173.587647 
L 366.308272 178.05345 
L 369.046794 182.93612 
L 372.698156 189.933687 
L 378.1752 201.190379 
L 390.042128 226.288299 
L 392.78065 231.792014 
L 397.344852 240.554071 
L 401.909055 248.515109 
L 405.560418 254.436275 
L 410.124621 261.301041 
L 416.514505 270.286199 
L 429.294273 287.442688 
L 435.684157 296.438529 
L 442.074042 305.983617 
L 449.376766 317.38214 
L 461.243694 335.999025 
L 467.633578 345.541748 
L 474.023462 354.309408 
L 478.587665 359.999598 
L 482.239028 364.184971 
L 485.89039 368.041096 
L 490.454593 372.486543 
L 494.105955 375.711809 
L 499.582999 380.039996 
L 503.234361 382.598437 
L 506.885724 384.957567 
L 511.449927 387.560028 
L 516.014129 389.859133 
L 520.578332 391.926657 
L 526.055376 394.080913 
L 531.53242 395.916737 
L 536.096623 397.217202 
L 541.573666 398.526804 
L 546.137869 399.391114 
L 549.789231 399.897671 
L 555.266275 400.37911 
L 558.917637 400.501694 
L 558.917637 400.501694 
" clip-path="url(#p2b8b6eb322)" style="fill: none; stroke: #ff9896; stroke-width: 1.3125; stroke-linecap: round"/>
   </g>
   <g id="line2d_10">
    <path d="M 51.054545 408.466952 
L 64.746914 408.577414 
L 94.238171 408.885763 
L 100.557726 408.686729 
L 104.770762 408.383203 
L 108.983799 407.813723 
L 112.143576 407.181323 
L 116.356613 406.079953 
L 119.51639 405.012831 
L 122.676168 403.734338 
L 126.889204 401.688585 
L 130.048982 399.92607 
L 135.315278 396.479271 
L 139.528314 393.391293 
L 143.741351 390.023894 
L 149.007647 385.619378 
L 157.43372 378.510957 
L 162.700016 374.407463 
L 166.913052 371.33655 
L 181.65868 361.16383 
L 184.818458 358.654873 
L 187.978235 355.794275 
L 191.138013 352.573962 
L 194.29779 348.911809 
L 197.457567 344.802776 
L 199.564086 341.806757 
L 203.777122 335.310041 
L 207.990159 328.241806 
L 212.203196 320.917765 
L 219.57601 307.870416 
L 225.895565 297.217339 
L 231.16186 288.907756 
L 235.374897 282.522513 
L 245.907488 266.104575 
L 249.067266 260.688283 
L 252.227043 254.856871 
L 256.44008 246.344766 
L 259.599857 239.493749 
L 263.812894 229.75632 
L 268.025931 219.545712 
L 276.452004 199.10835 
L 280.66504 189.584035 
L 283.824818 182.892278 
L 288.037855 174.699749 
L 291.197632 169.036748 
L 294.357409 163.865478 
L 297.517187 159.157993 
L 300.676964 154.798247 
L 304.890001 149.601442 
L 309.103038 145.033069 
L 313.316074 141.0815 
L 315.422592 139.261722 
L 319.635629 136.146942 
L 323.848666 133.610667 
L 325.955184 132.511863 
L 332.274739 129.982715 
L 335.434516 129.04283 
L 337.541035 128.527868 
L 341.754071 127.968795 
L 343.86059 127.826 
L 345.967108 127.952341 
L 349.126885 128.522673 
L 351.233404 129.171894 
L 354.393181 130.754442 
L 356.499699 132.160408 
L 358.606218 134.011827 
L 360.712736 136.204582 
L 362.819254 138.815664 
L 364.925773 141.776187 
L 367.032291 145.1711 
L 369.138809 149.061429 
L 371.245327 153.319149 
L 373.351846 157.950013 
L 376.511623 165.650712 
L 379.671401 174.044242 
L 382.831178 183.034725 
L 389.150733 201.946071 
L 396.523547 224.096822 
L 401.789843 239.169184 
L 404.94962 247.768069 
L 410.215916 261.205868 
L 415.482212 273.890013 
L 421.801767 288.179966 
L 426.014803 297.268682 
L 430.22784 305.909629 
L 433.387617 311.906306 
L 435.494136 315.656827 
L 438.653913 320.927552 
L 441.813691 325.665261 
L 446.026727 331.342445 
L 449.186505 335.167311 
L 455.50606 341.966031 
L 464.985392 351.660761 
L 469.198429 356.175667 
L 482.890798 370.879749 
L 487.103834 374.851951 
L 490.263612 377.551015 
L 493.423389 379.987567 
L 496.583166 382.189842 
L 500.796203 384.714236 
L 505.00924 386.908867 
L 510.275535 389.331438 
L 525.021164 395.635046 
L 531.340718 398.524665 
L 542.926569 403.779401 
L 547.139606 405.388663 
L 550.299383 406.402916 
L 553.459161 407.219518 
L 556.618938 407.832064 
L 559.778716 408.25902 
L 563.991752 408.523943 
L 568.204789 408.50177 
L 573.471085 408.19171 
L 585.056935 407.304137 
L 589.269972 407.178254 
L 589.269972 407.178254 
" clip-path="url(#p2b8b6eb322)" style="fill: none; stroke-dasharray: 1.3125,2.165625; stroke-dashoffset: 0; stroke: #ff9896; stroke-width: 1.3125"/>
   </g>
   <g id="line2d_11">
    <path d="M 51.124483 406.934179 
L 58.278462 406.813925 
L 64.410444 406.501011 
L 71.564423 405.937589 
L 83.828388 404.659009 
L 90.982367 403.96649 
L 103.246331 403.10791 
L 109.378313 402.635736 
L 114.488299 402.070036 
L 117.55429 401.536666 
L 121.642278 400.628729 
L 124.708269 399.760169 
L 127.77426 398.70048 
L 130.840251 397.471595 
L 133.906242 396.032201 
L 137.99423 393.81102 
L 142.082218 391.284883 
L 146.170207 388.467791 
L 150.258195 385.440276 
L 154.346183 382.190748 
L 161.500162 376.133968 
L 169.676138 369.02455 
L 176.830117 362.842536 
L 181.940103 358.530329 
L 193.18207 349.14587 
L 198.292055 344.494606 
L 200.336049 342.495425 
L 204.424037 337.903704 
L 207.490028 334.198837 
L 209.534022 331.576157 
L 212.600013 327.269696 
L 216.688002 321.102982 
L 221.797987 312.67373 
L 225.885975 305.616903 
L 244.281921 272.372945 
L 249.391907 262.428592 
L 254.501892 252.005671 
L 259.611877 240.978796 
L 265.743859 227.275128 
L 274.941832 206.900165 
L 280.051817 196.316166 
L 285.161803 186.529589 
L 289.249791 179.183624 
L 294.359776 170.710701 
L 299.469761 162.895367 
L 304.579746 155.771646 
L 307.645737 151.722027 
L 310.711728 147.98532 
L 313.777719 144.552383 
L 316.843711 141.570984 
L 318.887705 139.80215 
L 321.953696 137.526372 
L 323.99769 136.292781 
L 328.085678 134.669743 
L 329.107675 134.356773 
L 331.151669 134.006243 
L 333.195663 133.893992 
L 335.239657 134.093171 
L 338.305648 134.928748 
L 340.349642 135.861781 
L 342.393636 137.060269 
L 345.459627 139.327724 
L 347.503621 141.174187 
L 349.547616 143.230721 
L 353.635604 148.056756 
L 357.723592 153.719279 
L 359.767586 156.89505 
L 362.833577 161.962494 
L 365.899568 167.409422 
L 369.987556 175.04624 
L 375.097541 185.2226 
L 384.295515 204.740362 
L 391.449494 220.225807 
L 397.581476 233.05346 
L 402.691461 243.059871 
L 406.779449 250.583056 
L 412.911431 261.150203 
L 421.087408 274.116529 
L 430.285381 288.653086 
L 436.417363 298.808121 
L 457.879301 335.281157 
L 462.989286 343.080098 
L 467.077274 348.859972 
L 471.165262 354.140584 
L 474.231253 357.75972 
L 477.297244 361.086047 
L 481.385232 364.985537 
L 484.451223 367.547466 
L 486.495218 369.10989 
L 491.605203 372.539878 
L 495.693191 374.983317 
L 500.803176 377.612075 
L 512.045143 383.08592 
L 517.155128 385.664963 
L 528.397096 391.247977 
L 534.529078 393.954627 
L 538.617066 395.515205 
L 542.705054 396.833949 
L 546.793042 397.899561 
L 550.88103 398.695339 
L 553.947022 399.157193 
L 559.057007 399.687487 
L 564.166992 400.007762 
L 568.25498 400.124034 
L 573.364965 400.148621 
L 573.364965 400.148621 
" clip-path="url(#p2b8b6eb322)" style="fill: none; stroke-dasharray: 4.85625,2.1; stroke-dashoffset: 0; stroke: #ff9896; stroke-width: 1.3125"/>
   </g>
   <g id="line2d_12">
    <path d="M 128.47921 393.71964 
L 132.146265 393.481303 
L 135.81332 392.97971 
L 138.563611 392.357095 
L 141.313902 391.606847 
L 144.064193 390.566284 
L 147.731248 388.959201 
L 149.564775 387.994259 
L 152.315066 386.353759 
L 155.982121 383.82554 
L 158.732412 381.623665 
L 161.482703 379.199783 
L 164.232994 376.563062 
L 167.900049 372.748074 
L 172.483867 367.463181 
L 177.984449 360.703755 
L 190.819141 344.578074 
L 198.153251 336.099274 
L 203.653833 330.297744 
L 210.987942 322.964986 
L 218.322052 315.646754 
L 221.989106 311.710305 
L 225.656161 307.328675 
L 230.23998 301.349143 
L 232.990271 297.443922 
L 235.740562 293.307628 
L 238.490853 288.7986 
L 243.074671 280.77613 
L 248.575253 270.460513 
L 254.992599 257.642407 
L 261.409945 244.32543 
L 268.744054 228.658101 
L 275.1614 214.583954 
L 288.912856 184.279524 
L 293.496674 174.672305 
L 297.163729 167.541528 
L 299.91402 162.633144 
L 303.581075 156.610621 
L 305.414602 153.865528 
L 308.164893 150.19782 
L 310.915184 146.920641 
L 313.665475 144.18818 
L 316.415766 142.023635 
L 317.33253 141.3679 
L 320.082821 139.913814 
L 321.916348 139.223146 
L 324.666639 138.679185 
L 326.500167 138.609684 
L 328.333694 138.833689 
L 330.167221 139.283833 
L 332.000749 140.01745 
L 333.834276 140.939324 
L 336.584567 142.783682 
L 339.334858 145.032238 
L 341.168386 146.793706 
L 343.918677 149.715438 
L 346.668968 152.975861 
L 349.419259 156.526864 
L 365.004242 177.215753 
L 373.255115 187.205224 
L 383.339515 199.138771 
L 387.00657 203.79079 
L 390.673625 208.74742 
L 394.34068 214.088147 
L 397.090971 218.285397 
L 400.758025 224.249634 
L 407.175371 235.30048 
L 430.094463 276.151787 
L 436.511809 287.022213 
L 445.679446 301.839392 
L 451.180028 310.264574 
L 456.68061 318.187051 
L 463.097956 326.807676 
L 467.681775 332.616007 
L 496.101449 367.272218 
L 502.518795 375.170482 
L 507.102613 380.411274 
L 511.686432 385.186608 
L 515.353486 388.649432 
L 519.020541 391.722393 
L 522.687596 394.414468 
L 526.354651 396.762196 
L 530.021705 398.756594 
L 533.68876 400.480477 
L 538.272579 402.236795 
L 542.856397 403.70859 
L 547.440215 404.908157 
L 552.940798 406.041142 
L 556.607852 406.643055 
L 561.191671 407.127685 
L 565.775489 407.347963 
L 569.442544 407.35699 
L 574.943126 407.082728 
L 583.193999 406.316888 
L 590.528109 405.665779 
L 595.111927 405.471346 
L 596.945455 405.445991 
L 596.945455 405.445991 
" clip-path="url(#p2b8b6eb322)" style="fill: none; stroke-dasharray: 8.4,2.1,1.3125,2.1; stroke-dashoffset: 0; stroke: #ff9896; stroke-width: 1.3125"/>
   </g>
   <g id="patch_3">
    <path d="M 23.76 422.96 
L 624.24 422.96 
" style="fill: none; stroke: #333333; stroke-width: 1.5; stroke-linejoin: miter; stroke-linecap: square"/>
   </g>
   <g id="text_4">
    <!-- $x_1^3x_3$ -->
    <g style="fill: #262626" transform="translate(241.16 92.492)">
     <text>
      <tspan x="0" y="-0.421875" style="font-style: oblique; font-size: 76px; font-family: 'DejaVu Sans'; fill: #262626">x</tspan>
      <tspan x="84.296419" y="-0.421875" style="font-style: oblique; font-size: 76px; font-family: 'DejaVu Sans'; fill: #262626">x</tspan>
      <tspan x="44.976562" y="20.359375" style="font-size: 53.2px; font-family: 'DejaVu Sans'; fill: #262626">1</tspan>
      <tspan x="48.370833" y="-29.515625" style="font-size: 53.2px; font-family: 'DejaVu Sans'; fill: #262626">3</tspan>
      <tspan x="129.272982" y="12.046875" style="font-size: 53.2px; font-family: 'DejaVu Sans'; fill: #262626">3</tspan>
     </text>
    </g>
   </g>
  </g>
 </g>
 <defs>
  <clipPath id="p2b8b6eb322">
   <rect x="23.76" y="113.772" width="600.48" height="309.188"/>
  </clipPath>
 </defs>
</svg>
