<?xml version="1.0" encoding="utf-8" standalone="no"?>
<!DOCTYPE svg PUBLIC "-//W3C//DTD SVG 1.1//EN"
  "http://www.w3.org/Graphics/SVG/1.1/DTD/svg11.dtd">
<svg xmlns:xlink="http://www.w3.org/1999/xlink" width="648pt" height="504pt" viewBox="0 0 648 504" xmlns="http://www.w3.org/2000/svg" version="1.1">
 <metadata>
  <rdf:RDF xmlns:dc="http://purl.org/dc/elements/1.1/" xmlns:cc="http://creativecommons.org/ns#" xmlns:rdf="http://www.w3.org/1999/02/22-rdf-syntax-ns#">
   <cc:Work>
    <dc:type rdf:resource="http://purl.org/dc/dcmitype/StillImage"/>
    <dc:date>2026-02-22T16:15:38.077123</dc:date>
    <dc:format>image/svg+xml</dc:format>
    <dc:creator>
     <cc:Agent>
      <dc:title>Matplotlib v3.10.6, https://matplotlib.org/</dc:title>
     </cc:Agent>
    </dc:creator>
   </cc:Work>
  </rdf:RDF>
 </metadata>
 <defs>
  <style type="text/css">*{stroke-linejoin: round; stroke-linecap: butt}</style>
 </defs>
 <g id="figure_1">
  <g id="patch_1">
   <path d="M 0 504 
L 648 504 
L 648 0 
L 0 0 
L 0 504 
z
" style="fill: none; opacity: 0"/>
  </g>
  <g id="axes_1">
   <g id="patch_2">
    <path d="M 77.333885 422.96 
L 621.110682 422.96 
L 621.110682 113.772 
L 77.333885 113.772 
L 77.333885 422.96 
z
" style="fill: none"/>
   </g>
   <g id="matplotlib.axis_1">
    <g id="xtick_1">
     <g id="line2d_1">
      <path d="M 123.524178 422.96 
L 123.524178 113.772 
" clip-path="url(#pe7c09f61a1)" style="fill: none; stroke: #cccccc; stroke-opacity: 0.4; stroke-linecap: round"/>
     </g>
     <g id="line2d_2"/>
     <g id="text_1">
      <text style="font-size: 52px; font-family: 'DejaVu Serif', 'Times New Roman', serif; text-anchor: middle; fill: #262626" x="123.524178" y="469.471875" transform="rotate(-0 123.524178 469.471875)">−1.025</text>
     </g>
    </g>
    <g id="xtick_2">
     <g id="line2d_3">
      <path d="M 321.911864 422.96 
L 321.911864 113.772 
" clip-path="url(#pe7c09f61a1)" style="fill: none; stroke: #cccccc; stroke-opacity: 0.4; stroke-linecap: round"/>
     </g>
     <g id="line2d_4"/>
     <g id="text_2">
      <text style="font-size: 52px; font-family: 'DejaVu Serif', 'Times New Roman', serif; text-anchor: middle; fill: #262626" x="321.911864" y="469.471875" transform="rotate(-0 321.911864 469.471875)">−1.000</text>
     </g>
    </g>
    <g id="xtick_3">
     <g id="line2d_5">
      <path d="M 520.299551 422.96 
L 520.299551 113.772 
" clip-path="url(#pe7c09f61a1)" style="fill: none; stroke: #cccccc; stroke-opacity: 0.4; stroke-linecap: round"/>
     </g>
     <g id="line2d_6"/>
     <g id="text_3">
      <text style="font-size: 52px; font-family: 'DejaVu Serif', 'Times New Roman', serif; text-anchor: middle; fill: #262626" x="520.299551" y="469.471875" transform="rotate(-0 520.299551 469.471875)">−0.975</text>
     </g>
    </g>
   </g>
   <g id="matplotlib.axis_2">
    <g id="ytick_1">
     <g id="line2d_7">
      <path d="M 77.333885 410.867395 
L 621.110682 410.867395 
" clip-path="url(#pe7c09f61a1)" style="fill: none; stroke: #cccccc; stroke-opacity: 0.4; stroke-linecap: round"/>
     </g>
    </g>
    <g id="ytick_2">
     <g id="line2d_8">
      <path d="M 77.333885 260.44851 
L 621.110682 260.44851 
" clip-path="url(#pe7c09f61a1)" style="fill: none; stroke: #cccccc; stroke-opacity: 0.4; stroke-linecap: round"/>
     </g>
    </g>
   </g>
   <g id="line2d_9">
    <path d="M 102.051012 408.450165 
L 108.129439 408.553223 
L 121.15464 408.897025 
L 125.496373 408.764568 
L 129.838107 408.413017 
L 133.311494 407.945511 
L 138.521574 406.966573 
L 143.731654 405.742788 
L 160.230241 401.690063 
L 174.992135 398.489008 
L 177.597175 397.674852 
L 180.202215 396.633297 
L 182.807255 395.324447 
L 185.412295 393.735014 
L 188.017336 391.796467 
L 190.622376 389.476647 
L 193.227416 386.73812 
L 195.832456 383.674884 
L 199.305843 379.029122 
L 202.779229 373.930657 
L 209.726003 362.993598 
L 216.672777 352.136994 
L 221.01451 345.764845 
L 225.356244 339.823476 
L 229.697977 334.178951 
L 236.644751 325.831772 
L 247.933258 312.641917 
L 251.406644 308.104275 
L 254.011685 304.428417 
L 256.616725 300.280616 
L 259.221765 295.771453 
L 260.958458 292.503288 
L 263.563498 287.088658 
L 266.168538 281.063582 
L 268.773578 274.556372 
L 271.378618 267.48371 
L 275.720352 254.768649 
L 279.193739 243.957149 
L 287.877206 216.464071 
L 293.087286 200.49549 
L 300.03406 180.381613 
L 304.375793 168.472645 
L 308.717527 157.236537 
L 311.322567 150.963018 
L 313.927607 145.197986 
L 316.532647 140.072061 
L 318.26934 137.104036 
L 320.006034 134.477974 
L 321.742727 132.304809 
L 323.47942 130.593767 
L 325.216114 129.243846 
L 326.952807 128.35273 
L 328.689501 127.904366 
L 330.426194 127.84055 
L 332.162887 128.129237 
L 333.899581 128.683935 
L 335.636274 129.551035 
L 338.241314 131.172916 
L 340.846354 132.962088 
L 345.188088 136.180509 
L 346.924781 137.455795 
L 357.344942 144.583352 
L 359.949982 146.602844 
L 361.686675 148.050618 
L 364.291715 150.631943 
L 366.896755 153.4411 
L 369.501795 156.573935 
L 372.106835 159.938971 
L 377.316916 167.328093 
L 392.078809 189.156723 
L 394.68385 193.30441 
L 397.28889 197.760769 
L 400.762276 204.319659 
L 403.367317 209.657169 
L 405.972357 215.518809 
L 409.445743 224.082794 
L 412.050784 231.01043 
L 415.52417 240.85882 
L 419.865904 253.940442 
L 426.812677 275.866158 
L 432.022758 292.228523 
L 436.364491 305.084062 
L 439.837878 314.658977 
L 443.311265 323.379628 
L 445.916305 329.34495 
L 448.521345 334.704902 
L 451.126385 339.640118 
L 453.731425 344.03432 
L 456.336465 347.978587 
L 458.941505 351.537608 
L 461.546545 354.785686 
L 465.019932 358.661067 
L 471.098359 364.818926 
L 479.781826 372.956585 
L 495.412067 387.264679 
L 499.7538 390.730204 
L 503.227187 393.231688 
L 506.700574 395.47573 
L 510.17396 397.413361 
L 513.647347 399.036207 
L 516.252387 400.034799 
L 519.725774 401.092996 
L 523.199161 401.876643 
L 526.672548 402.371523 
L 530.145934 402.698802 
L 535.356015 402.929786 
L 545.776175 402.975634 
L 545.776175 402.975634 
" clip-path="url(#pe7c09f61a1)" style="fill: none; stroke: #ff7f0e; stroke-width: 1.3125; stroke-linecap: round"/>
   </g>
   <g id="line2d_10">
    <path d="M 105.397125 408.407182 
L 111.327825 408.457509 
L 125.730956 408.685843 
L 133.356143 408.404124 
L 137.592358 408.049446 
L 143.523059 407.204705 
L 149.45376 405.944086 
L 155.384461 404.151385 
L 159.620675 402.639794 
L 163.009647 401.270139 
L 168.093105 398.955706 
L 173.176563 396.357919 
L 177.412778 393.984651 
L 183.343479 390.297869 
L 188.426937 386.880343 
L 192.663152 383.787191 
L 200.288339 377.696532 
L 205.371797 373.219511 
L 209.608011 369.104363 
L 212.996983 365.523089 
L 216.385955 361.629697 
L 218.927684 358.463267 
L 221.469413 355.064396 
L 224.858385 350.198893 
L 228.247357 345.017228 
L 233.330815 336.737682 
L 243.497731 319.850341 
L 249.428432 310.663983 
L 255.359133 302.121041 
L 262.137076 292.413372 
L 265.526048 287.127422 
L 268.067777 282.757827 
L 271.456749 276.409727 
L 274.845721 269.353528 
L 277.38745 263.522875 
L 281.623665 252.982455 
L 285.85988 241.769471 
L 295.179553 216.89855 
L 298.568525 208.42431 
L 301.957497 200.566927 
L 306.193712 191.401885 
L 309.582684 184.59832 
L 314.666141 175.054188 
L 318.055113 169.152566 
L 321.444085 163.59108 
L 324.833057 158.435618 
L 328.222029 153.779192 
L 330.763758 150.680488 
L 334.15273 147.197917 
L 335.847216 145.718479 
L 337.541702 144.441013 
L 339.236188 143.395317 
L 341.777917 142.171514 
L 343.472403 141.526385 
L 345.166889 141.13025 
L 348.555861 140.71053 
L 351.09759 140.779525 
L 352.792076 140.985876 
L 356.181048 141.733895 
L 358.722777 142.58011 
L 360.417263 143.252619 
L 362.111749 144.070571 
L 364.653477 145.618271 
L 367.195206 147.453084 
L 368.889692 148.868366 
L 372.278664 152.182756 
L 374.820393 155.128193 
L 377.362122 158.562826 
L 380.751094 163.800224 
L 383.292823 168.106242 
L 386.681795 174.562375 
L 391.765253 184.996946 
L 407.015627 217.262247 
L 410.404599 223.895408 
L 418.029785 238.415224 
L 422.266 246.477519 
L 428.196701 258.450626 
L 431.585673 265.764449 
L 435.821888 275.539021 
L 441.752589 290.107565 
L 449.377776 309.262544 
L 455.308477 323.533238 
L 460.391935 334.848754 
L 463.780907 341.753129 
L 467.169878 348.084447 
L 470.55885 353.841639 
L 473.947822 359.109019 
L 477.336794 363.867871 
L 480.725766 368.193162 
L 484.114738 372.016837 
L 487.50371 375.325261 
L 490.892682 378.207661 
L 494.281654 380.716872 
L 497.670626 382.825239 
L 500.212355 384.247805 
L 504.44857 386.27533 
L 512.073757 389.324267 
L 523.087915 393.147841 
L 528.171373 394.652717 
L 531.560345 395.431114 
L 534.949317 395.99125 
L 538.338289 396.252833 
L 538.338289 396.252833 
" clip-path="url(#pe7c09f61a1)" style="fill: none; stroke-dasharray: 1.3125,2.165625; stroke-dashoffset: 0; stroke: #ff7f0e; stroke-width: 1.3125"/>
   </g>
   <g id="line2d_11">
    <path d="M 139.280163 403.992753 
L 144.890373 403.799481 
L 149.699126 403.317769 
L 154.507878 402.45747 
L 157.713712 401.639121 
L 161.721006 400.299525 
L 165.728299 398.689559 
L 170.537051 396.44682 
L 175.345803 393.963665 
L 179.353096 391.756877 
L 186.566225 387.519337 
L 192.176435 383.973679 
L 196.183729 381.221628 
L 200.191022 378.161705 
L 203.396857 375.451209 
L 208.205609 370.934814 
L 211.411443 367.542536 
L 214.617278 363.802037 
L 217.823113 359.66789 
L 221.028948 355.040726 
L 224.234782 349.947458 
L 227.440617 344.255251 
L 229.844993 339.607882 
L 233.050828 332.942582 
L 236.256662 325.743548 
L 239.462497 317.9781 
L 243.46979 307.743815 
L 247.477084 296.761795 
L 254.690212 276.017492 
L 269.116468 233.778004 
L 272.322303 224.938931 
L 275.528137 216.553798 
L 278.733972 208.80522 
L 281.138348 203.420755 
L 283.542724 198.39542 
L 286.748559 192.454762 
L 289.152935 188.44116 
L 291.557311 184.86223 
L 293.961687 181.697217 
L 296.366063 178.866323 
L 299.571898 175.470205 
L 303.579191 171.686512 
L 323.615658 153.773561 
L 326.020034 151.955047 
L 328.42441 150.416339 
L 330.027327 149.518086 
L 332.431703 148.572847 
L 334.034621 148.197158 
L 335.637538 147.999691 
L 337.240455 147.981156 
L 338.843373 148.136201 
L 341.247749 148.751583 
L 343.652125 149.789326 
L 346.056501 151.283223 
L 348.460877 153.025975 
L 352.46817 156.439264 
L 359.681298 163.090582 
L 367.695885 170.04724 
L 372.504637 173.934232 
L 378.916306 179.256988 
L 383.725059 183.912899 
L 386.129435 186.582088 
L 389.335269 190.468828 
L 393.342563 196.040682 
L 395.746939 199.777175 
L 398.151315 203.825199 
L 400.555691 208.088832 
L 402.960067 212.669437 
L 406.165901 219.332382 
L 408.570277 224.688618 
L 412.577571 234.407976 
L 415.783406 242.919165 
L 418.98924 251.998626 
L 423.797992 266.505686 
L 427.805286 279.259716 
L 433.415496 297.249847 
L 438.224248 312.108586 
L 441.430083 321.285822 
L 444.635918 329.864635 
L 447.040294 335.745603 
L 449.44467 341.176873 
L 451.849046 346.056788 
L 454.253422 350.450035 
L 456.657798 354.42906 
L 459.062174 357.978023 
L 461.46655 361.101024 
L 463.870926 363.827896 
L 467.878219 367.792746 
L 471.084054 370.348029 
L 474.289889 372.636762 
L 479.900099 376.14374 
L 487.914686 380.979477 
L 492.723438 384.091809 
L 499.936566 388.884662 
L 503.94386 391.433113 
L 509.55407 394.612365 
L 514.362822 396.819553 
L 517.568657 398.01543 
L 520.774492 398.973045 
L 524.781785 399.900304 
L 528.789079 400.539963 
L 533.597831 401.015864 
L 540.0095 401.361134 
L 546.421169 401.477297 
L 548.825546 401.486662 
L 548.825546 401.486662 
" clip-path="url(#pe7c09f61a1)" style="fill: none; stroke-dasharray: 4.85625,2.1; stroke-dashoffset: 0; stroke: #ff7f0e; stroke-width: 1.3125"/>
   </g>
   <g id="line2d_12">
    <path d="M 127.8049 401.940358 
L 136.05793 401.838956 
L 149.812978 401.420695 
L 155.314998 401.041806 
L 158.98301 400.557236 
L 162.651023 399.79714 
L 166.319036 398.739672 
L 169.987049 397.288271 
L 172.738059 395.928944 
L 175.489069 394.330491 
L 178.240078 392.485051 
L 181.908091 389.647685 
L 185.576104 386.42886 
L 189.244117 382.882132 
L 193.829134 378.043149 
L 198.41415 372.757648 
L 204.833172 364.879465 
L 211.252195 356.407951 
L 219.505224 345.035955 
L 225.924247 336.168853 
L 231.426266 328.961295 
L 236.011283 323.289856 
L 239.679295 319.092639 
L 251.600338 305.941878 
L 254.351347 302.384846 
L 256.185354 299.827924 
L 258.936363 295.518967 
L 261.687373 290.655068 
L 264.438383 285.125654 
L 267.189393 278.998031 
L 269.940402 272.326075 
L 273.608415 262.62739 
L 279.110435 246.98045 
L 284.612454 231.170519 
L 289.19747 218.51456 
L 293.782487 206.765971 
L 298.367503 196.122514 
L 302.035516 188.334897 
L 304.786525 182.827518 
L 308.454538 176.023035 
L 311.205548 171.148824 
L 314.873561 165.142559 
L 318.541574 159.79978 
L 321.292584 156.141259 
L 323.12659 153.938373 
L 324.960597 151.989001 
L 326.794603 150.293932 
L 328.62861 148.861778 
L 330.462616 147.734665 
L 332.296623 146.865905 
L 334.130629 146.343985 
L 335.964636 146.111669 
L 337.798642 146.127074 
L 339.632648 146.491207 
L 341.466655 147.106817 
L 343.300661 147.962042 
L 346.051671 149.557465 
L 348.802681 151.456232 
L 352.470694 154.324753 
L 357.05571 158.133934 
L 361.640726 161.619945 
L 364.391736 163.489305 
L 376.312778 170.833731 
L 379.063788 172.813866 
L 380.897794 174.401676 
L 382.731801 176.170057 
L 384.565807 178.166937 
L 386.399814 180.38534 
L 388.23382 182.884674 
L 390.067827 185.603565 
L 392.818836 190.158647 
L 394.652843 193.533932 
L 397.403853 199.103506 
L 401.071865 207.221319 
L 404.739878 215.952758 
L 420.328933 254.336533 
L 424.91395 264.608399 
L 430.415969 275.986973 
L 434.083982 283.198401 
L 440.503005 295.101442 
L 452.424047 317.044499 
L 459.760073 331.416429 
L 465.262092 342.586416 
L 474.432125 361.245029 
L 478.100138 368.215063 
L 481.76815 374.688345 
L 485.436163 380.452605 
L 488.187173 384.303365 
L 490.02118 386.585493 
L 491.855186 388.645081 
L 494.606196 391.364079 
L 496.440202 392.941887 
L 499.191212 394.964011 
L 501.942222 396.597403 
L 503.776228 397.507545 
L 506.527238 398.588726 
L 509.278248 399.473668 
L 512.029257 400.144424 
L 515.69727 400.834792 
L 523.033296 401.837155 
L 530.369322 402.763301 
L 539.539354 404.206666 
L 556.962416 406.935587 
L 563.381439 407.61635 
L 568.883458 407.97749 
L 573.468474 408.114282 
L 581.721503 408.108163 
L 596.393555 407.881975 
L 596.393555 407.881975 
" clip-path="url(#pe7c09f61a1)" style="fill: none; stroke-dasharray: 8.4,2.1,1.3125,2.1; stroke-dashoffset: 0; stroke: #ff7f0e; stroke-width: 1.3125"/>
   </g>
   <g id="patch_3">
    <path d="M 77.333885 422.96 
L 621.110682 422.96 
" style="fill: none; stroke: #333333; stroke-width: 1.5; stroke-linejoin: miter; stroke-linecap: square"/>
   </g>
   <g id="text_4">
    <!-- $x_2^2$ -->
    <g style="fill: #262626" transform="translate(307.042284 92.492)">
     <text>
      <tspan x="0" y="-0.421875" style="font-style: oblique; font-size: 76px; font-family: 'DejaVu Sans'; fill: #262626">x</tspan>
      <tspan x="44.976562" y="20.359375" style="font-size: 53.2px; font-family: 'DejaVu Sans'; fill: #262626">2</tspan>
      <tspan x="48.370833" y="-29.515625" style="font-size: 53.2px; font-family: 'DejaVu Sans'; fill: #262626">2</tspan>
     </text>
    </g>
   </g>
  </g>
 </g>
 <defs>
  <clipPath id="pe7c09f61a1">
   <rect x="77.333885" y="113.772" width="543.776797" height="309.188"/>
  </clipPath>
 </defs>
</svg>
