<?xml version="1.0" encoding="utf-8" standalone="no"?>
<!DOCTYPE svg PUBLIC "-//W3C//DTD SVG 1.1//EN"
  "http://www.w3.org/Graphics/SVG/1.1/DTD/svg11.dtd">
<svg xmlns:xlink="http://www.w3.org/1999/xlink" width="648pt" height="504pt" viewBox="0 0 648 504" xmlns="http://www.w3.org/2000/svg" version="1.1">
 <metadata>
  <rdf:RDF xmlns:dc="http://purl.org/dc/elements/1.1/" xmlns:cc="http://creativecommons.org/ns#" xmlns:rdf="http://www.w3.org/1999/02/22-rdf-syntax-ns#">
   <cc:Work>
    <dc:type rdf:resource="http://purl.org/dc/dcmitype/StillImage"/>
    <dc:date>2026-02-22T16:15:37.380832</dc:date>
    <dc:format>image/svg+xml</dc:format>
    <dc:creator>
     <cc:Agent>
      <dc:title>Matplotlib v3.10.6, https://matplotlib.org/</dc:title>
     </cc:Agent>
    </dc:creator>
   </cc:Work>
  </rdf:RDF>
 </metadata>
 <defs>
  <style type="text/css">*{stroke-linejoin: round; stroke-linecap: butt}</style>
 </defs>
 <g id="figure_1">
  <g id="patch_1">
   <path d="M 0 504 
L 648 504 
L 648 0 
L 0 0 
L 0 504 
z
" style="fill: none; opacity: 0"/>
  </g>
  <g id="axes_1">
   <g id="patch_2">
    <path d="M 23.76 422.96 
L 624.24 422.96 
L 624.24 113.772 
L 23.76 113.772 
L 23.76 422.96 
z
" style="fill: none"/>
   </g>
   <g id="matplotlib.axis_1">
    <g id="xtick_1">
     <g id="line2d_1">
      <path d="M 187.06542 422.96 
L 187.06542 113.772 
" clip-path="url(#pbed72fc013)" style="fill: none; stroke: #cccccc; stroke-opacity: 0.4; stroke-linecap: round"/>
     </g>
     <g id="line2d_2"/>
     <g id="text_1">
      <text style="font-size: 52px; font-family: 'DejaVu Serif', 'Times New Roman', serif; text-anchor: middle; fill: #262626" x="187.06542" y="469.471875" transform="rotate(-0 187.06542 469.471875)">−0.3</text>
     </g>
    </g>
    <g id="xtick_2">
     <g id="line2d_3">
      <path d="M 480.710136 422.96 
L 480.710136 113.772 
" clip-path="url(#pbed72fc013)" style="fill: none; stroke: #cccccc; stroke-opacity: 0.4; stroke-linecap: round"/>
     </g>
     <g id="line2d_4"/>
     <g id="text_2">
      <text style="font-size: 52px; font-family: 'DejaVu Serif', 'Times New Roman', serif; text-anchor: middle; fill: #262626" x="480.710136" y="469.471875" transform="rotate(-0 480.710136 469.471875)">−0.2</text>
     </g>
    </g>
   </g>
   <g id="matplotlib.axis_2">
    <g id="ytick_1">
     <g id="line2d_5">
      <path d="M 23.76 412.236938 
L 624.24 412.236938 
" clip-path="url(#pbed72fc013)" style="fill: none; stroke: #cccccc; stroke-opacity: 0.4; stroke-linecap: round"/>
     </g>
    </g>
    <g id="ytick_2">
     <g id="line2d_6">
      <path d="M 23.76 221.310589 
L 624.24 221.310589 
" clip-path="url(#pbed72fc013)" style="fill: none; stroke: #cccccc; stroke-opacity: 0.4; stroke-linecap: round"/>
     </g>
    </g>
   </g>
   <g id="line2d_7">
    <path d="M 88.452143 403.493168 
L 95.315852 403.318783 
L 102.17956 402.83368 
L 105.121149 402.463054 
L 110.023798 401.638715 
L 114.926447 400.522496 
L 118.848566 399.347505 
L 123.751215 397.615385 
L 128.653863 395.601388 
L 132.575982 393.740046 
L 137.478631 391.208998 
L 141.40075 388.940524 
L 145.322869 386.491462 
L 150.225518 383.132093 
L 154.147637 380.169837 
L 158.069756 376.993026 
L 166.894524 369.445742 
L 176.699822 360.809207 
L 184.54406 354.048619 
L 191.407768 348.044224 
L 196.310417 343.280525 
L 199.252006 340.114825 
L 202.193595 336.629684 
L 204.154655 334.06973 
L 207.096244 329.804133 
L 210.037833 325.044037 
L 212.979423 319.718608 
L 215.921012 313.820589 
L 219.843131 305.228643 
L 223.76525 295.873213 
L 229.648428 280.879312 
L 237.492666 260.918454 
L 241.414785 251.724416 
L 244.356375 245.311231 
L 248.278494 237.528861 
L 251.220083 232.271267 
L 254.161672 227.424453 
L 257.103262 223.005341 
L 261.025381 217.392408 
L 271.811208 202.397805 
L 276.713857 194.869264 
L 282.597035 184.852409 
L 286.519154 177.678772 
L 299.266041 153.370394 
L 302.20763 148.154813 
L 304.16869 144.859897 
L 308.090809 138.938123 
L 310.051868 136.385481 
L 312.012928 134.138326 
L 313.973987 132.167654 
L 315.935047 130.580948 
L 317.896107 129.334314 
L 319.857166 128.469991 
L 321.818226 127.961873 
L 322.798755 127.826 
L 324.759815 127.891102 
L 326.720874 128.280974 
L 328.681934 128.97967 
L 330.642993 129.939817 
L 332.604053 131.175706 
L 334.565112 132.608668 
L 338.487231 136.002338 
L 341.428821 138.881323 
L 346.331469 143.933731 
L 357.117297 155.396386 
L 360.058886 158.547831 
L 363.000475 161.610613 
L 368.883654 168.459794 
L 371.825243 172.1983 
L 374.766832 176.271876 
L 377.708422 180.719829 
L 381.630541 187.264229 
L 385.55266 194.502785 
L 388.494249 200.33438 
L 393.396898 210.810747 
L 397.319017 219.74161 
L 403.202195 233.730507 
L 420.851731 275.610285 
L 426.73491 288.712813 
L 431.637558 299.030714 
L 435.559677 306.691898 
L 439.481796 313.862425 
L 443.403915 320.441631 
L 446.345505 324.942953 
L 449.287094 329.09845 
L 453.209213 334.11879 
L 456.150802 337.561553 
L 460.072921 341.764816 
L 464.97557 346.675401 
L 476.741927 358.159519 
L 483.605635 365.505582 
L 490.469344 373.21946 
L 497.333052 380.86113 
L 501.255171 384.890328 
L 505.17729 388.551268 
L 508.118879 390.997758 
L 511.060469 393.165838 
L 514.002058 395.029094 
L 516.943647 396.539897 
L 519.885236 397.775818 
L 522.826826 398.750492 
L 525.768415 399.511086 
L 529.690534 400.248794 
L 537.534772 401.269079 
L 545.37901 402.488163 
L 552.242718 403.818476 
L 569.892254 407.492461 
L 574.794903 408.146279 
L 579.697552 408.586035 
L 584.6002 408.819985 
L 589.502849 408.906 
L 589.502849 408.906 
" clip-path="url(#pbed72fc013)" style="fill: none; stroke: #98df8a; stroke-width: 1.3125; stroke-linecap: round"/>
   </g>
   <g id="line2d_8">
    <path d="M 108.769992 392.610609 
L 120.723375 392.393787 
L 124.401339 392.074109 
L 127.159812 391.750533 
L 130.837776 391.107535 
L 134.515739 390.188646 
L 137.274212 389.240289 
L 140.032685 388.066422 
L 143.710649 386.046461 
L 147.388613 383.570367 
L 150.147086 381.401231 
L 153.82505 377.932561 
L 155.664032 375.998932 
L 159.341996 371.720692 
L 162.100469 368.170928 
L 164.858942 364.335123 
L 168.536906 358.833952 
L 171.295379 354.402024 
L 175.892834 346.70333 
L 189.685198 321.889204 
L 195.202144 312.062991 
L 202.558072 299.565225 
L 209.914 287.839857 
L 215.430946 279.718685 
L 220.028401 273.242096 
L 224.625856 266.899327 
L 236.579238 250.451416 
L 242.096184 242.281295 
L 246.693639 235.05835 
L 253.130076 224.29782 
L 270.600405 193.570869 
L 275.19786 186.158136 
L 279.795314 179.270686 
L 286.231751 170.807275 
L 288.990224 167.5617 
L 291.748697 164.62958 
L 293.587679 162.746148 
L 299.104625 157.741871 
L 302.782589 154.923315 
L 305.541062 152.997795 
L 311.058008 149.720217 
L 313.816481 148.314978 
L 316.574954 147.070415 
L 319.333427 146.145502 
L 323.011391 145.251332 
L 324.850372 144.943404 
L 326.689354 144.789893 
L 330.367318 144.884794 
L 333.125791 145.440727 
L 334.964773 146.074805 
L 336.803755 146.886287 
L 340.481719 149.208101 
L 343.240192 151.499244 
L 345.079174 153.250298 
L 347.837647 156.356773 
L 350.59612 159.914046 
L 353.354593 163.884868 
L 357.032557 169.620864 
L 359.79103 174.174927 
L 368.066449 188.545603 
L 373.583394 197.990414 
L 379.10034 206.940087 
L 384.617286 215.578798 
L 394.731687 231.63563 
L 399.329142 239.338089 
L 405.765579 250.965562 
L 412.202016 263.517393 
L 424.155398 288.157171 
L 431.511326 303.393734 
L 437.947763 316.078705 
L 442.545218 324.608716 
L 447.142673 332.502692 
L 450.820637 338.294157 
L 454.498601 343.733305 
L 459.096056 349.845439 
L 461.854529 353.17358 
L 465.532493 357.196218 
L 469.210456 360.861423 
L 472.88842 364.189743 
L 475.646893 366.538532 
L 479.324857 369.426023 
L 482.08333 371.492263 
L 488.519767 375.941185 
L 494.036713 379.385874 
L 504.151114 385.260516 
L 511.507042 389.267916 
L 524.379915 395.862093 
L 530.816352 398.90505 
L 535.413807 400.883289 
L 540.011262 402.626822 
L 544.608717 404.179009 
L 549.206172 405.444949 
L 553.803627 406.447381 
L 558.401082 407.169992 
L 562.998537 407.675831 
L 569.434973 408.138505 
L 574.032428 408.294823 
L 578.629883 408.329024 
L 578.629883 408.329024 
" clip-path="url(#pbed72fc013)" style="fill: none; stroke-dasharray: 1.3125,2.165625; stroke-dashoffset: 0; stroke: #98df8a; stroke-width: 1.3125"/>
   </g>
   <g id="line2d_9">
    <path d="M 94.677324 401.087756 
L 102.171899 400.962676 
L 107.79283 400.681738 
L 111.540117 400.319192 
L 115.287405 399.782018 
L 119.034692 399.061045 
L 122.78198 398.146861 
L 126.529267 396.963948 
L 129.339733 395.933019 
L 134.023842 393.927602 
L 137.77113 392.068468 
L 142.455239 389.532163 
L 151.823458 383.778417 
L 157.444389 379.908645 
L 163.06532 375.599539 
L 167.749429 371.564212 
L 170.559895 368.894872 
L 173.37036 366.05541 
L 178.05447 360.768909 
L 182.738579 354.864923 
L 186.485866 349.734341 
L 190.233154 344.264233 
L 193.980441 338.421045 
L 196.790907 333.851959 
L 201.475016 325.833699 
L 207.095947 315.495064 
L 212.716879 304.403959 
L 218.33781 292.566104 
L 223.021919 282.095101 
L 238.947891 245.845371 
L 242.695178 237.959302 
L 246.442466 230.540358 
L 249.252931 225.298458 
L 253.000219 218.913934 
L 256.747506 213.15908 
L 261.431615 206.76116 
L 265.178903 202.084823 
L 267.989368 198.811046 
L 276.420765 189.757837 
L 284.852162 181.377624 
L 293.283559 173.664836 
L 296.094024 171.321567 
L 299.841312 168.436342 
L 303.588599 165.976404 
L 305.462243 164.976436 
L 309.20953 163.16814 
L 312.019996 162.24455 
L 314.830462 161.519678 
L 318.577749 161.234022 
L 320.451393 161.27816 
L 322.325036 161.463736 
L 324.19868 161.891777 
L 327.009146 162.726296 
L 329.819611 163.845728 
L 332.630077 165.244981 
L 338.251008 168.723466 
L 344.808761 173.041557 
L 351.366514 176.937221 
L 354.17698 178.316623 
L 357.924267 179.794277 
L 361.671555 181.003696 
L 372.913417 183.80511 
L 374.787061 184.469989 
L 376.660704 185.303394 
L 378.534348 186.285528 
L 380.407992 187.430203 
L 382.281636 188.749116 
L 384.155279 190.30205 
L 386.028923 192.104308 
L 388.839389 195.279527 
L 391.649854 199.015384 
L 394.46032 203.343319 
L 397.270785 208.227146 
L 400.081251 213.483738 
L 403.828538 221.189951 
L 408.512648 231.536337 
L 417.880866 253.389647 
L 424.438619 268.773978 
L 429.122729 279.335385 
L 434.74366 291.466855 
L 439.427769 301.066222 
L 444.111879 310.211813 
L 447.859166 317.235233 
L 453.480097 327.256747 
L 458.164206 335.073068 
L 461.911494 341.02539 
L 465.658781 346.648484 
L 469.406069 351.864588 
L 473.153356 356.76846 
L 476.900644 361.299578 
L 480.647931 365.346603 
L 485.33204 369.864669 
L 488.142506 372.328925 
L 491.889794 375.317168 
L 494.700259 377.443395 
L 499.384368 380.66478 
L 506.878943 385.226808 
L 512.499874 388.274781 
L 517.183984 390.540232 
L 521.868093 392.569934 
L 526.552202 394.296584 
L 530.29949 395.473471 
L 533.109955 396.207961 
L 536.857243 397.021434 
L 540.60453 397.64654 
L 545.28864 398.186843 
L 550.909571 398.55811 
L 559.340968 398.765803 
L 573.393296 398.72627 
L 573.393296 398.72627 
" clip-path="url(#pbed72fc013)" style="fill: none; stroke-dasharray: 4.85625,2.1; stroke-dashoffset: 0; stroke: #98df8a; stroke-width: 1.3125"/>
   </g>
   <g id="line2d_10">
    <path d="M 51.054545 407.612887 
L 55.327664 407.562083 
L 62.805622 407.256357 
L 71.351859 406.586375 
L 76.693257 405.962884 
L 82.034656 405.192787 
L 89.512613 403.82189 
L 94.854012 402.609587 
L 100.19541 401.184657 
L 106.605088 399.199337 
L 111.946486 397.303527 
L 119.424444 394.218181 
L 124.765842 391.676735 
L 130.107241 388.786567 
L 134.380359 386.329873 
L 138.653478 383.608098 
L 142.926597 380.679372 
L 147.199715 377.444311 
L 151.472834 373.925082 
L 154.677673 371.042187 
L 158.950792 366.861691 
L 163.22391 362.340031 
L 166.428749 358.652739 
L 172.838427 350.782874 
L 180.316385 341.082676 
L 196.34058 320.027892 
L 209.159936 302.880643 
L 216.637894 292.170144 
L 220.911012 285.631231 
L 227.32069 275.178438 
L 231.593809 267.7223 
L 236.935207 257.955292 
L 242.276606 247.750893 
L 247.618004 237.325788 
L 252.959402 226.960644 
L 257.232521 219.150992 
L 260.43736 213.65772 
L 263.642199 208.521824 
L 266.847038 203.85937 
L 268.983597 201.105218 
L 271.120157 198.607113 
L 274.324996 195.26023 
L 276.461555 193.308351 
L 280.734674 190.034825 
L 282.871233 188.734625 
L 285.007792 187.626926 
L 289.280911 185.841273 
L 292.48575 184.737981 
L 306.373386 180.716372 
L 315.987903 176.966992 
L 319.192742 175.473798 
L 330.943818 169.231809 
L 334.148657 167.451979 
L 337.353496 165.729672 
L 340.558335 164.18138 
L 343.763174 162.899761 
L 345.899733 162.214026 
L 349.104572 161.521761 
L 351.241131 161.287877 
L 353.377691 161.269498 
L 355.51425 161.413651 
L 357.650809 161.744247 
L 359.787369 162.34494 
L 361.923928 163.216375 
L 364.060487 164.286846 
L 366.197047 165.568881 
L 369.401886 167.996532 
L 371.538445 169.972978 
L 373.675004 172.169754 
L 375.811564 174.634882 
L 377.948123 177.334015 
L 381.152962 181.917545 
L 384.357801 187.011607 
L 386.49436 190.674655 
L 389.699199 196.681074 
L 392.904038 203.273432 
L 395.040598 207.926262 
L 398.245437 215.435381 
L 401.450276 223.395667 
L 404.655115 231.771543 
L 409.996513 246.596799 
L 419.61103 273.805306 
L 424.952428 288.124845 
L 428.157267 296.208991 
L 431.362106 303.730867 
L 434.566945 310.617405 
L 436.703505 314.869082 
L 439.908344 320.691215 
L 443.113183 325.980264 
L 446.318022 330.686754 
L 449.522861 334.960313 
L 452.7277 338.934588 
L 457.000818 343.814549 
L 463.410496 350.723319 
L 470.888454 358.445501 
L 478.366412 366.059646 
L 484.77609 372.318074 
L 490.117488 377.20556 
L 494.390607 380.786215 
L 498.663725 384.047159 
L 501.868564 386.216705 
L 506.141683 388.778529 
L 509.346522 390.445039 
L 513.619641 392.309349 
L 517.892759 393.867011 
L 522.165878 395.141967 
L 528.575556 396.619007 
L 533.916954 397.601643 
L 548.87287 400.127685 
L 558.487387 401.532231 
L 565.965344 402.352309 
L 571.306743 402.743985 
L 578.7847 403.060283 
L 589.467497 403.185891 
L 596.945455 403.16947 
L 596.945455 403.16947 
" clip-path="url(#pbed72fc013)" style="fill: none; stroke-dasharray: 8.4,2.1,1.3125,2.1; stroke-dashoffset: 0; stroke: #98df8a; stroke-width: 1.3125"/>
   </g>
   <g id="patch_3">
    <path d="M 23.76 422.96 
L 624.24 422.96 
" style="fill: none; stroke: #333333; stroke-width: 1.5; stroke-linejoin: miter; stroke-linecap: square"/>
   </g>
   <g id="text_3">
    <!-- $x_2^2x_3$ -->
    <g style="fill: #262626" transform="translate(241.16 92.492)">
     <text>
      <tspan x="0" y="-0.421875" style="font-style: oblique; font-size: 76px; font-family: 'DejaVu Sans'; fill: #262626">x</tspan>
      <tspan x="84.296419" y="-0.421875" style="font-style: oblique; font-size: 76px; font-family: 'DejaVu Sans'; fill: #262626">x</tspan>
      <tspan x="44.976562" y="20.359375" style="font-size: 53.2px; font-family: 'DejaVu Sans'; fill: #262626">2</tspan>
      <tspan x="48.370833" y="-29.515625" style="font-size: 53.2px; font-family: 'DejaVu Sans'; fill: #262626">2</tspan>
      <tspan x="129.272982" y="12.046875" style="font-size: 53.2px; font-family: 'DejaVu Sans'; fill: #262626">3</tspan>
     </text>
    </g>
   </g>
  </g>
 </g>
 <defs>
  <clipPath id="pbed72fc013">
   <rect x="23.76" y="113.772" width="600.48" height="309.188"/>
  </clipPath>
 </defs>
</svg>
