<?xml version="1.0" encoding="utf-8" standalone="no"?>
<!DOCTYPE svg PUBLIC "-//W3C//DTD SVG 1.1//EN"
  "http://www.w3.org/Graphics/SVG/1.1/DTD/svg11.dtd">
<svg xmlns:xlink="http://www.w3.org/1999/xlink" width="648pt" height="504pt" viewBox="0 0 648 504" xmlns="http://www.w3.org/2000/svg" version="1.1">
 <metadata>
  <rdf:RDF xmlns:dc="http://purl.org/dc/elements/1.1/" xmlns:cc="http://creativecommons.org/ns#" xmlns:rdf="http://www.w3.org/1999/02/22-rdf-syntax-ns#">
   <cc:Work>
    <dc:type rdf:resource="http://purl.org/dc/dcmitype/StillImage"/>
    <dc:date>2026-02-22T16:15:38.510320</dc:date>
    <dc:format>image/svg+xml</dc:format>
    <dc:creator>
     <cc:Agent>
      <dc:title>Matplotlib v3.10.6, https://matplotlib.org/</dc:title>
     </cc:Agent>
    </dc:creator>
   </cc:Work>
  </rdf:RDF>
 </metadata>
 <defs>
  <style type="text/css">*{stroke-linejoin: round; stroke-linecap: butt}</style>
 </defs>
 <g id="figure_1">
  <g id="patch_1">
   <path d="M 0 504 
L 648 504 
L 648 0 
L 0 0 
L 0 504 
z
" style="fill: none; opacity: 0"/>
  </g>
  <g id="axes_1">
   <g id="patch_2">
    <path d="M 61.195968 422.96 
L 612.502826 422.96 
L 612.502826 114.456 
L 61.195968 114.456 
L 61.195968 422.96 
z
" style="fill: none"/>
   </g>
   <g id="matplotlib.axis_1">
    <g id="xtick_1">
     <g id="line2d_1">
      <path d="M 107.579001 422.96 
L 107.579001 114.456 
" clip-path="url(#p5ee680cc38)" style="fill: none; stroke: #cccccc; stroke-opacity: 0.4; stroke-linecap: round"/>
     </g>
     <g id="line2d_2"/>
     <g id="text_1">
      <text style="font-size: 52px; font-family: 'DejaVu Serif', 'Times New Roman', serif; text-anchor: middle; fill: #262626" x="107.579001" y="469.471875" transform="rotate(-0 107.579001 469.471875)">−0.05</text>
     </g>
    </g>
    <g id="xtick_2">
     <g id="line2d_3">
      <path d="M 334.70252 422.96 
L 334.70252 114.456 
" clip-path="url(#p5ee680cc38)" style="fill: none; stroke: #cccccc; stroke-opacity: 0.4; stroke-linecap: round"/>
     </g>
     <g id="line2d_4"/>
     <g id="text_2">
      <text style="font-size: 52px; font-family: 'DejaVu Serif', 'Times New Roman', serif; text-anchor: middle; fill: #262626" x="334.70252" y="469.471875" transform="rotate(-0 334.70252 469.471875)">0.00</text>
     </g>
    </g>
    <g id="xtick_3">
     <g id="line2d_5">
      <path d="M 561.826039 422.96 
L 561.826039 114.456 
" clip-path="url(#p5ee680cc38)" style="fill: none; stroke: #cccccc; stroke-opacity: 0.4; stroke-linecap: round"/>
     </g>
     <g id="line2d_6"/>
     <g id="text_3">
      <text style="font-size: 52px; font-family: 'DejaVu Serif', 'Times New Roman', serif; text-anchor: middle; fill: #262626" x="561.826039" y="469.471875" transform="rotate(-0 561.826039 469.471875)">0.05</text>
     </g>
    </g>
   </g>
   <g id="matplotlib.axis_2">
    <g id="ytick_1">
     <g id="line2d_7">
      <path d="M 61.195968 411.865315 
L 612.502826 411.865315 
" clip-path="url(#p5ee680cc38)" style="fill: none; stroke: #cccccc; stroke-opacity: 0.4; stroke-linecap: round"/>
     </g>
    </g>
    <g id="ytick_2">
     <g id="line2d_8">
      <path d="M 61.195968 191.008221 
L 612.502826 191.008221 
" clip-path="url(#p5ee680cc38)" style="fill: none; stroke: #cccccc; stroke-opacity: 0.4; stroke-linecap: round"/>
     </g>
    </g>
   </g>
   <g id="line2d_9">
    <path d="M 112.885206 405.107587 
L 124.168022 404.637231 
L 129.375475 404.099548 
L 134.582929 403.256715 
L 138.922474 402.286055 
L 142.394109 401.324692 
L 146.733654 399.936528 
L 152.809016 397.690335 
L 161.488106 394.389549 
L 169.299286 391.750408 
L 177.978376 388.875382 
L 181.450011 387.525886 
L 185.789556 385.431706 
L 188.393283 383.905334 
L 190.99701 382.139781 
L 193.600736 380.108716 
L 196.204463 377.850566 
L 198.80819 375.329897 
L 202.279826 371.589666 
L 206.61937 366.413397 
L 211.826824 359.641601 
L 216.166369 353.501089 
L 219.638004 348.405828 
L 225.713367 338.994086 
L 231.788729 328.87076 
L 237.864092 318.106622 
L 243.939454 306.670552 
L 250.014817 294.74024 
L 256.09018 282.276498 
L 264.769269 263.82988 
L 269.108814 254.164342 
L 275.184176 240.064323 
L 281.259539 225.552381 
L 287.334901 210.933011 
L 293.410264 196.963617 
L 296.881899 189.567814 
L 300.353535 182.705576 
L 302.957262 177.955203 
L 305.560989 173.425784 
L 309.900533 166.533981 
L 316.843805 156.652022 
L 323.787076 147.580225 
L 330.730348 139.268074 
L 333.334075 136.530853 
L 336.80571 133.288737 
L 338.541528 131.98216 
L 340.277346 130.84326 
L 342.881073 129.494842 
L 344.616891 128.881793 
L 346.352709 128.525387 
L 348.088526 128.499757 
L 349.824344 128.754022 
L 351.560162 129.27691 
L 353.29598 130.096315 
L 355.031798 131.214332 
L 356.767616 132.588934 
L 358.503434 134.296839 
L 360.239252 136.241252 
L 362.842978 139.752698 
L 365.446705 143.867532 
L 367.182523 146.894665 
L 369.78625 151.844633 
L 372.389977 157.237936 
L 376.729521 166.918067 
L 381.069066 177.384901 
L 392.351882 205.016817 
L 396.691427 215.068697 
L 401.030971 224.70122 
L 404.502607 232.137669 
L 410.57797 244.448668 
L 416.653332 256.430847 
L 421.860786 266.442381 
L 435.747329 292.210196 
L 454.841325 326.454752 
L 461.784597 339.060625 
L 466.124141 346.657308 
L 469.595777 352.344849 
L 473.067413 357.521762 
L 475.67114 361.011466 
L 478.274866 364.131176 
L 480.878593 366.829807 
L 483.48232 369.157362 
L 486.086047 371.156519 
L 488.689774 372.86504 
L 492.161409 374.619663 
L 494.765136 375.794508 
L 506.047952 380.679898 
L 510.387497 382.997996 
L 518.198677 387.834514 
L 523.406131 391.28938 
L 528.613585 394.508462 
L 532.08522 396.383253 
L 534.688947 397.596014 
L 538.160583 398.97456 
L 541.632219 400.015671 
L 545.103854 400.78117 
L 548.57549 401.292991 
L 552.047126 401.620686 
L 556.38667 401.763227 
L 556.38667 401.763227 
" clip-path="url(#p5ee680cc38)" style="fill: none; stroke: #c49c94; stroke-width: 1.3125; stroke-linecap: round"/>
   </g>
   <g id="line2d_10">
    <path d="M 99.072074 408.936477 
L 107.196189 408.831488 
L 112.612265 408.556513 
L 117.125662 408.126921 
L 121.639059 407.497078 
L 126.152456 406.655103 
L 130.665853 405.612346 
L 136.08193 404.163546 
L 144.206044 401.678391 
L 152.330159 398.98413 
L 186.631976 386.631896 
L 192.950732 383.7895 
L 197.464129 381.284324 
L 200.172167 379.532613 
L 202.880206 377.564048 
L 204.685564 376.10775 
L 208.296282 372.865845 
L 211.00432 370.159761 
L 214.615038 366.085517 
L 217.323076 362.711559 
L 220.031114 359.056852 
L 222.739153 355.052522 
L 226.34987 349.246443 
L 229.057908 344.439854 
L 232.668626 337.449258 
L 236.279344 329.737397 
L 239.890061 321.319776 
L 242.598099 314.585119 
L 248.014176 300.028511 
L 261.554367 262.808845 
L 264.262405 256.155271 
L 266.970443 249.973703 
L 269.678482 244.533535 
L 271.48384 241.289243 
L 274.191879 236.917503 
L 275.997237 234.374847 
L 277.802596 232.110844 
L 280.510634 229.1635 
L 283.218673 226.647419 
L 285.926711 224.402231 
L 293.148146 218.911512 
L 296.758864 215.768835 
L 298.564223 214.011015 
L 302.17494 209.966178 
L 303.980299 207.664241 
L 306.688337 203.858772 
L 309.396375 199.627336 
L 312.104414 195.0652 
L 316.617811 186.883091 
L 322.033887 176.591885 
L 325.644605 169.668532 
L 331.060681 160.050792 
L 334.671399 154.421542 
L 337.379437 150.810308 
L 340.087475 147.709872 
L 341.892834 146.030806 
L 343.698193 144.686561 
L 345.503552 143.631207 
L 347.30891 142.924932 
L 349.114269 142.563419 
L 350.919628 142.481968 
L 352.724987 142.729568 
L 354.530346 143.237675 
L 356.335704 144.060578 
L 358.141063 145.216965 
L 359.946422 146.52131 
L 362.65446 148.994309 
L 364.459819 150.79943 
L 367.167857 153.890462 
L 369.875895 157.312172 
L 373.486613 162.234384 
L 377.097331 167.589179 
L 380.708048 173.170511 
L 387.026804 183.260039 
L 399.664316 204.237009 
L 406.885751 215.963036 
L 420.425942 238.00283 
L 425.842018 247.16508 
L 437.576851 268.014235 
L 443.895607 279.62696 
L 453.82508 298.595802 
L 463.754553 318.504878 
L 470.975989 333.044689 
L 476.392065 343.346475 
L 480.002783 349.788341 
L 483.6135 355.798746 
L 487.224218 361.383859 
L 490.834936 366.472137 
L 493.542974 370.025934 
L 497.153691 374.472138 
L 500.764409 378.542468 
L 504.375127 382.28315 
L 507.985844 385.712135 
L 511.596562 388.871713 
L 516.109959 392.41193 
L 518.817997 394.315111 
L 521.526035 396.032701 
L 525.136753 398.03534 
L 528.747471 399.71044 
L 532.358188 401.114605 
L 535.968906 402.22423 
L 539.579623 403.069492 
L 544.09302 403.824996 
L 548.606417 404.273152 
L 552.217135 404.491784 
L 557.633211 404.642852 
L 560.34125 404.669379 
L 560.34125 404.669379 
" clip-path="url(#p5ee680cc38)" style="fill: none; stroke-dasharray: 1.3125,2.165625; stroke-dashoffset: 0; stroke: #c49c94; stroke-width: 1.3125"/>
   </g>
   <g id="line2d_11">
    <path d="M 86.25537 406.670452 
L 108.53117 406.575435 
L 115.028278 406.328901 
L 121.525386 405.811573 
L 126.166177 405.231127 
L 130.806969 404.502182 
L 136.375919 403.390111 
L 143.801185 401.59298 
L 160.508035 396.649005 
L 166.076985 394.65847 
L 169.789618 393.097295 
L 172.574093 391.794014 
L 175.358568 390.3124 
L 178.143043 388.647036 
L 180.927518 386.734631 
L 184.640151 383.826047 
L 187.424626 381.324852 
L 191.137259 377.620854 
L 194.849892 373.436165 
L 198.562525 368.925952 
L 204.131475 361.51811 
L 208.772267 355.034524 
L 220.838325 337.104491 
L 227.335433 326.890297 
L 232.904383 317.730923 
L 237.545174 309.69383 
L 243.114124 299.666794 
L 247.754916 290.988602 
L 252.395707 281.824041 
L 257.964657 270.324248 
L 263.533607 258.006686 
L 269.102557 244.943122 
L 277.455981 224.734458 
L 282.096773 213.881176 
L 285.809406 205.851421 
L 288.593881 200.327501 
L 291.378356 195.356738 
L 294.162831 190.893262 
L 296.019148 188.266728 
L 298.803623 184.808572 
L 300.659939 182.802004 
L 302.516256 181.138773 
L 305.300731 178.924438 
L 307.157047 177.790057 
L 309.941522 176.407315 
L 311.797839 175.701715 
L 314.582314 174.96854 
L 317.366789 174.427034 
L 322.935738 173.973325 
L 333.14548 173.162835 
L 335.929955 172.652229 
L 338.71443 171.93571 
L 343.355221 170.248386 
L 347.067854 168.600282 
L 351.708646 166.337715 
L 355.421279 164.777608 
L 359.133912 163.711397 
L 360.062071 163.523997 
L 362.846546 163.400975 
L 364.702862 163.62549 
L 366.559179 164.146054 
L 367.487337 164.504616 
L 369.343654 165.499042 
L 370.271812 166.095975 
L 372.128129 167.611087 
L 374.912604 170.362498 
L 376.76892 172.551648 
L 378.625237 175 
L 381.409712 179.136372 
L 385.122345 185.27237 
L 389.763137 193.569703 
L 393.47577 200.380313 
L 402.757353 216.955917 
L 410.182619 229.378075 
L 415.751569 238.581017 
L 420.392361 246.566757 
L 425.033152 255.010628 
L 432.458419 269.691971 
L 438.027369 281.459332 
L 453.80606 314.899756 
L 459.37501 325.721548 
L 463.087643 332.515993 
L 467.728434 340.585739 
L 471.441068 346.698716 
L 477.010017 355.216633 
L 480.722651 360.584732 
L 485.363442 366.744466 
L 489.076075 371.214208 
L 491.86055 374.30496 
L 495.573184 378.061926 
L 499.285817 381.407984 
L 502.070292 383.646803 
L 505.782925 386.328848 
L 508.5674 388.152396 
L 512.280033 390.379022 
L 516.920825 392.886192 
L 523.417933 395.991041 
L 530.843199 399.19099 
L 534.555832 400.645328 
L 538.268466 401.938113 
L 542.909257 403.2899 
L 546.62189 404.174362 
L 550.334524 404.892777 
L 554.047157 405.390005 
L 556.831632 405.631655 
L 560.544265 405.759147 
L 560.544265 405.759147 
" clip-path="url(#p5ee680cc38)" style="fill: none; stroke-dasharray: 4.85625,2.1; stroke-dashoffset: 0; stroke: #c49c94; stroke-width: 1.3125"/>
   </g>
   <g id="line2d_12">
    <path d="M 98.182077 403.000464 
L 105.841746 403.131789 
L 124.03346 403.561194 
L 127.863294 403.435542 
L 132.650587 403.0062 
L 136.480421 402.494895 
L 140.310256 401.754908 
L 144.14009 400.789411 
L 147.969925 399.600167 
L 151.799759 398.181221 
L 158.501969 395.162309 
L 163.289262 392.689897 
L 180.523517 383.357685 
L 188.183186 379.618289 
L 196.800313 375.319515 
L 202.545065 371.944026 
L 205.417441 370.013339 
L 208.289817 367.832548 
L 212.119651 364.430871 
L 214.992027 361.519577 
L 217.864403 358.251687 
L 220.736778 354.667917 
L 223.609154 350.77481 
L 227.438989 345.008298 
L 229.353906 341.885734 
L 234.141199 333.375954 
L 237.013575 327.820514 
L 240.843409 319.961904 
L 244.673243 311.552548 
L 248.503078 302.651987 
L 253.290371 290.839677 
L 257.120205 280.814242 
L 264.779874 259.671144 
L 273.397002 235.467486 
L 279.141753 220.22011 
L 282.014129 213.14812 
L 284.886505 206.596436 
L 287.758881 200.542185 
L 290.631256 195.088103 
L 293.503632 190.216196 
L 296.376008 185.92933 
L 298.290925 183.331964 
L 301.163301 179.84747 
L 303.078218 177.776407 
L 305.950594 175.024913 
L 308.82297 172.630647 
L 310.737887 171.156172 
L 313.610263 169.267625 
L 316.482639 167.572296 
L 319.355014 166.146628 
L 322.22739 164.955979 
L 324.142307 164.301232 
L 326.057225 163.825741 
L 327.972142 163.480289 
L 329.887059 163.274701 
L 332.759435 163.337922 
L 334.674352 163.520571 
L 336.589269 163.877932 
L 339.461645 164.593569 
L 341.376562 165.271954 
L 344.248938 166.482689 
L 347.121314 167.942335 
L 350.951148 170.250368 
L 353.823524 172.148531 
L 357.653359 174.62237 
L 359.568276 175.992227 
L 369.142862 182.774026 
L 375.845072 187.993411 
L 380.632365 192.300669 
L 383.504741 195.088142 
L 386.377117 198.11601 
L 390.206951 202.656899 
L 394.036785 207.824291 
L 397.86662 213.581931 
L 403.611371 223.236168 
L 407.441206 230.194347 
L 416.058333 246.732 
L 422.760543 259.456901 
L 426.590378 266.299665 
L 430.420212 272.744239 
L 433.292588 277.349022 
L 438.079881 284.436057 
L 442.867174 291.135003 
L 459.14397 313.323786 
L 463.931263 320.459537 
L 470.633474 330.97202 
L 480.20806 346.388277 
L 484.037894 352.228567 
L 487.867728 357.711167 
L 492.655021 363.963292 
L 495.527397 367.413609 
L 498.399773 370.56037 
L 502.229607 374.440517 
L 505.101983 377.084944 
L 507.974359 379.512206 
L 511.804193 382.424209 
L 515.634028 385.022703 
L 519.463862 387.311177 
L 523.293697 389.318005 
L 527.123531 391.039218 
L 532.868283 393.065448 
L 536.698117 394.20021 
L 554.889831 399.112476 
L 568.294251 403.453073 
L 574.039003 404.994123 
L 577.868837 405.791106 
L 581.698671 406.339991 
L 585.528506 406.63911 
L 587.443423 406.694955 
L 587.443423 406.694955 
" clip-path="url(#p5ee680cc38)" style="fill: none; stroke-dasharray: 8.4,2.1,1.3125,2.1; stroke-dashoffset: 0; stroke: #c49c94; stroke-width: 1.3125"/>
   </g>
   <g id="patch_3">
    <path d="M 61.195968 422.96 
L 612.502826 422.96 
" style="fill: none; stroke: #333333; stroke-width: 1.5; stroke-linejoin: miter; stroke-linecap: square"/>
   </g>
   <g id="text_4">
    <!-- $x_2^2x_3^2$ -->
    <g style="fill: #262626" transform="translate(252.489397 92.416)">
     <text>
      <tspan x="0" y="-0.421875" style="font-style: oblique; font-size: 76px; font-family: 'DejaVu Sans'; fill: #262626">x</tspan>
      <tspan x="84.296419" y="-0.421875" style="font-style: oblique; font-size: 76px; font-family: 'DejaVu Sans'; fill: #262626">x</tspan>
      <tspan x="44.976562" y="20.359375" style="font-size: 53.2px; font-family: 'DejaVu Sans'; fill: #262626">2</tspan>
      <tspan x="48.370833" y="-29.515625" style="font-size: 53.2px; font-family: 'DejaVu Sans'; fill: #262626">2</tspan>
      <tspan x="129.272982" y="20.359375" style="font-size: 53.2px; font-family: 'DejaVu Sans'; fill: #262626">3</tspan>
      <tspan x="132.667253" y="-29.515625" style="font-size: 53.2px; font-family: 'DejaVu Sans'; fill: #262626">2</tspan>
     </text>
    </g>
   </g>
  </g>
 </g>
 <defs>
  <clipPath id="p5ee680cc38">
   <rect x="61.195968" y="114.456" width="551.306858" height="308.504"/>
  </clipPath>
 </defs>
</svg>
