<?xml version="1.0" encoding="utf-8" standalone="no"?>
<!DOCTYPE svg PUBLIC "-//W3C//DTD SVG 1.1//EN"
  "http://www.w3.org/Graphics/SVG/1.1/DTD/svg11.dtd">
<svg xmlns:xlink="http://www.w3.org/1999/xlink" width="648pt" height="504pt" viewBox="0 0 648 504" xmlns="http://www.w3.org/2000/svg" version="1.1">
 <metadata>
  <rdf:RDF xmlns:dc="http://purl.org/dc/elements/1.1/" xmlns:cc="http://creativecommons.org/ns#" xmlns:rdf="http://www.w3.org/1999/02/22-rdf-syntax-ns#">
   <cc:Work>
    <dc:type rdf:resource="http://purl.org/dc/dcmitype/StillImage"/>
    <dc:date>2026-02-22T16:15:34.259334</dc:date>
    <dc:format>image/svg+xml</dc:format>
    <dc:creator>
     <cc:Agent>
      <dc:title>Matplotlib v3.10.6, https://matplotlib.org/</dc:title>
     </cc:Agent>
    </dc:creator>
   </cc:Work>
  </rdf:RDF>
 </metadata>
 <defs>
  <style type="text/css">*{stroke-linejoin: round; stroke-linecap: butt}</style>
 </defs>
 <g id="figure_1">
  <g id="patch_1">
   <path d="M 0 504 
L 648 504 
L 648 0 
L 0 0 
L 0 504 
z
" style="fill: none; opacity: 0"/>
  </g>
  <g id="axes_1">
   <g id="patch_2">
    <path d="M 23.76 422.96 
L 624.24 422.96 
L 624.24 97.44 
L 23.76 97.44 
L 23.76 422.96 
z
" style="fill: none"/>
   </g>
   <g id="matplotlib.axis_1">
    <g id="xtick_1">
     <g id="line2d_1">
      <path d="M 147.146041 422.96 
L 147.146041 97.44 
" clip-path="url(#pf43387e253)" style="fill: none; stroke: #cccccc; stroke-opacity: 0.4; stroke-linecap: round"/>
     </g>
     <g id="line2d_2"/>
     <g id="text_1">
      <text style="font-size: 52px; font-family: 'DejaVu Serif', 'Times New Roman', serif; text-anchor: middle; fill: #262626" x="147.146041" y="469.471875" transform="rotate(-0 147.146041 469.471875)">0.925</text>
     </g>
    </g>
    <g id="xtick_2">
     <g id="line2d_3">
      <path d="M 335.419348 422.96 
L 335.419348 97.44 
" clip-path="url(#pf43387e253)" style="fill: none; stroke: #cccccc; stroke-opacity: 0.4; stroke-linecap: round"/>
     </g>
     <g id="line2d_4"/>
     <g id="text_2">
      <text style="font-size: 52px; font-family: 'DejaVu Serif', 'Times New Roman', serif; text-anchor: middle; fill: #262626" x="335.419348" y="469.471875" transform="rotate(-0 335.419348 469.471875)">0.950</text>
     </g>
    </g>
    <g id="xtick_3">
     <g id="line2d_5">
      <path d="M 523.692655 422.96 
L 523.692655 97.44 
" clip-path="url(#pf43387e253)" style="fill: none; stroke: #cccccc; stroke-opacity: 0.4; stroke-linecap: round"/>
     </g>
     <g id="line2d_6"/>
     <g id="text_3">
      <text style="font-size: 52px; font-family: 'DejaVu Serif', 'Times New Roman', serif; text-anchor: middle; fill: #262626" x="523.692655" y="469.471875" transform="rotate(-0 523.692655 469.471875)">0.975</text>
     </g>
    </g>
   </g>
   <g id="matplotlib.axis_2">
    <g id="ytick_1">
     <g id="line2d_7">
      <path d="M 23.76 408.281645 
L 624.24 408.281645 
" clip-path="url(#pf43387e253)" style="fill: none; stroke: #cccccc; stroke-opacity: 0.4; stroke-linecap: round"/>
     </g>
    </g>
    <g id="ytick_2">
     <g id="line2d_8">
      <path d="M 23.76 282.16316 
L 624.24 282.16316 
" clip-path="url(#pf43387e253)" style="fill: none; stroke: #cccccc; stroke-opacity: 0.4; stroke-linecap: round"/>
     </g>
    </g>
    <g id="ytick_3">
     <g id="line2d_9">
      <path d="M 23.76 156.044675 
L 624.24 156.044675 
" clip-path="url(#pf43387e253)" style="fill: none; stroke: #cccccc; stroke-opacity: 0.4; stroke-linecap: round"/>
     </g>
    </g>
   </g>
   <g id="line2d_10">
    <path d="M 129.488636 402.585233 
L 141.325159 402.346474 
L 144.707022 401.982894 
L 148.088886 401.379315 
L 151.47075 400.482339 
L 154.852613 399.313149 
L 159.079943 397.618269 
L 168.380068 393.661685 
L 172.607397 392.152423 
L 175.989261 391.114001 
L 186.980318 388.023611 
L 189.516716 387.046584 
L 192.898579 385.442041 
L 194.589511 384.493082 
L 197.971375 382.296563 
L 201.353238 379.719803 
L 204.735102 376.787326 
L 208.962432 372.80535 
L 214.035227 367.75501 
L 219.953488 361.809051 
L 226.717216 355.12496 
L 230.944545 350.884676 
L 234.326409 347.289177 
L 237.708273 343.246029 
L 240.24467 339.928203 
L 242.781068 336.19604 
L 245.317466 332.049753 
L 247.853863 327.399076 
L 250.390261 322.283354 
L 252.926659 316.51229 
L 255.463057 310.158732 
L 257.999454 303.259222 
L 261.381318 293.240336 
L 264.763182 282.331284 
L 268.145045 270.854932 
L 281.6725 223.572489 
L 284.208898 215.584377 
L 286.745295 208.147133 
L 289.281693 201.450092 
L 291.818091 195.34659 
L 294.354489 190.072003 
L 296.890886 185.537129 
L 298.581818 182.926995 
L 300.27275 180.629504 
L 302.809148 177.594902 
L 305.345545 175.119538 
L 307.036477 173.678399 
L 309.572875 171.748382 
L 319.718466 164.545322 
L 322.254864 162.415503 
L 326.482193 158.465541 
L 333.245921 151.021453 
L 345.927909 136.692877 
L 348.464307 134.137446 
L 351.846171 131.377762 
L 354.382568 129.695612 
L 356.0735 128.86879 
L 357.764432 128.276443 
L 359.455364 127.864128 
L 361.146296 127.846714 
L 362.837228 128.194729 
L 363.682693 128.457291 
L 365.373625 129.398863 
L 366.219091 129.988501 
L 367.910023 131.555041 
L 369.600955 133.566366 
L 371.291887 136.063863 
L 372.982818 139.011756 
L 374.67375 142.402911 
L 377.210148 148.444911 
L 379.746546 155.449256 
L 383.128409 165.979807 
L 387.355739 180.459647 
L 394.119466 204.416859 
L 397.50133 215.527233 
L 400.883194 225.694135 
L 403.419591 232.477567 
L 405.955989 238.578545 
L 407.646921 242.294866 
L 410.183319 247.285797 
L 411.87425 250.247201 
L 414.410648 254.248182 
L 417.792512 258.940224 
L 421.174375 263.269809 
L 431.319966 275.676124 
L 434.70183 280.188599 
L 438.083694 285.140811 
L 441.465557 290.658829 
L 444.847421 296.544393 
L 449.074751 304.600534 
L 454.147546 314.902112 
L 462.602205 332.433619 
L 466.829535 340.657214 
L 470.211398 346.812462 
L 472.747796 351.077417 
L 476.12966 356.210012 
L 478.666057 359.713853 
L 481.202455 362.950194 
L 484.584319 366.885851 
L 487.966182 370.349159 
L 490.50258 372.752745 
L 493.884444 375.761052 
L 497.266308 378.580687 
L 502.339103 382.423171 
L 506.566433 385.432134 
L 512.484694 389.350263 
L 515.866558 391.317003 
L 520.093887 393.506154 
L 524.321217 395.419678 
L 527.70308 396.700694 
L 531.084944 397.825825 
L 533.621342 398.554088 
L 539.539603 399.930828 
L 545.457864 401.057606 
L 552.221592 401.988908 
L 557.294387 402.429922 
L 561.521717 402.575061 
L 561.521717 402.575061 
" clip-path="url(#pf43387e253)" style="fill: none; stroke: #1f77b4; stroke-width: 1.3125; stroke-linecap: round"/>
   </g>
   <g id="line2d_11">
    <path d="M 65.608443 405.368087 
L 72.35833 405.470395 
L 81.036757 405.841684 
L 97.42934 406.833228 
L 111.893384 407.651925 
L 122.50035 407.922505 
L 129.250237 407.848112 
L 136.000124 407.501039 
L 140.821472 407.03617 
L 146.60709 406.259669 
L 151.428438 405.382903 
L 155.285516 404.490582 
L 159.142594 403.441961 
L 162.999673 402.175145 
L 166.856751 400.708122 
L 170.71383 399.04529 
L 175.535178 396.750394 
L 197.713378 385.248335 
L 204.463266 381.400205 
L 207.356074 379.475057 
L 210.248883 377.406763 
L 213.141692 375.04448 
L 216.034501 372.385703 
L 218.92731 369.466375 
L 221.820118 366.202955 
L 223.748658 363.805506 
L 226.641466 359.978513 
L 229.534275 355.830047 
L 232.427084 351.384814 
L 236.284163 345.116996 
L 242.06978 334.734279 
L 246.891128 325.353552 
L 250.748207 317.353918 
L 254.605285 308.893762 
L 259.426633 297.575058 
L 266.17652 280.806045 
L 275.819216 256.658575 
L 279.676295 247.789474 
L 282.569103 241.567051 
L 285.461912 235.783973 
L 288.354721 230.449528 
L 291.24753 225.425734 
L 296.068878 217.711617 
L 309.568652 196.557354 
L 313.425731 189.918856 
L 317.282809 183.072862 
L 324.032696 170.430821 
L 327.889775 163.283831 
L 332.711123 154.873795 
L 336.568201 149.021462 
L 338.49674 146.418138 
L 340.425279 144.131227 
L 342.353819 142.246468 
L 344.282358 140.654905 
L 346.210897 139.443738 
L 348.139436 138.552845 
L 350.067975 137.928086 
L 351.996515 137.622451 
L 353.925054 137.527963 
L 355.853593 137.691023 
L 358.746402 138.243186 
L 363.56775 139.491763 
L 370.317637 141.47603 
L 372.246176 142.210289 
L 375.138985 143.614836 
L 377.067524 144.818877 
L 378.996064 146.317337 
L 380.924603 148.137566 
L 382.853142 150.37272 
L 384.781681 153.160459 
L 386.71022 156.355003 
L 388.63876 160.041245 
L 390.567299 164.307197 
L 392.495838 169.078074 
L 394.424377 174.366561 
L 397.317186 182.976579 
L 401.174264 195.47522 
L 409.852691 224.671067 
L 412.7455 233.830195 
L 415.638308 242.470562 
L 418.531117 250.238886 
L 421.423926 257.235175 
L 424.316735 263.470483 
L 426.245274 267.215797 
L 429.138083 272.159671 
L 432.030892 276.447122 
L 435.88797 281.409689 
L 440.709318 286.871751 
L 447.459205 294.510211 
L 450.352014 298.150615 
L 453.244823 302.275059 
L 456.137632 306.854721 
L 459.99471 313.708517 
L 462.887519 319.227096 
L 475.423024 344.542069 
L 478.315833 349.714679 
L 481.208641 354.489031 
L 484.10145 358.690088 
L 486.029989 361.204119 
L 488.922798 364.482745 
L 490.851337 366.444068 
L 493.744146 368.980026 
L 496.636955 371.152045 
L 500.494033 373.697885 
L 507.243921 377.711356 
L 517.850886 384.059119 
L 531.350661 392.538278 
L 535.207739 394.620467 
L 538.100548 395.975843 
L 541.957626 397.443217 
L 544.850435 398.32631 
L 547.743244 399.009382 
L 551.600322 399.641269 
L 554.493131 399.913365 
L 558.350209 400.076323 
L 558.350209 400.076323 
" clip-path="url(#pf43387e253)" style="fill: none; stroke-dasharray: 1.3125,2.165625; stroke-dashoffset: 0; stroke: #1f77b4; stroke-width: 1.3125"/>
   </g>
   <g id="line2d_12">
    <path d="M 51.054545 405.894914 
L 55.853132 406.022337 
L 61.611436 406.406825 
L 79.846066 407.846003 
L 86.564087 408.081633 
L 95.201544 408.162089 
L 103.839 408.039382 
L 112.476456 407.67618 
L 120.154195 407.149126 
L 130.711085 406.203292 
L 145.106846 404.752084 
L 155.663737 403.898343 
L 164.301193 403.301653 
L 168.140062 402.810636 
L 171.978932 402.057113 
L 174.858084 401.219396 
L 178.696953 399.595267 
L 181.576105 397.997319 
L 183.49554 396.71284 
L 185.414974 395.225038 
L 188.294126 392.672619 
L 190.213561 390.725919 
L 193.092713 387.529807 
L 195.971865 383.975093 
L 198.851017 380.160326 
L 204.609321 372.210444 
L 209.407908 365.648996 
L 214.206495 359.501061 
L 218.045364 354.934403 
L 226.68282 345.276628 
L 229.561972 341.913787 
L 232.441125 338.296543 
L 235.320277 334.381506 
L 238.199429 330.116587 
L 242.038298 324.003633 
L 247.796602 314.193858 
L 251.635472 307.656448 
L 255.474341 301.304067 
L 259.31321 295.393986 
L 264.111797 288.444373 
L 268.910384 281.745102 
L 272.749253 276.064615 
L 276.588123 269.750229 
L 278.507557 266.196809 
L 281.386709 260.464977 
L 284.265861 254.202347 
L 287.145013 247.091305 
L 290.024166 239.413163 
L 293.863035 228.179919 
L 297.701904 216.296663 
L 303.460208 197.411909 
L 310.17823 175.258128 
L 314.017099 163.307604 
L 317.855969 152.111324 
L 320.735121 144.426951 
L 323.614273 137.533353 
L 326.493425 131.42461 
L 329.372577 126.232763 
L 331.292012 123.314215 
L 333.211446 120.643652 
L 335.130881 118.383668 
L 337.050316 116.506108 
L 338.96975 114.989446 
L 339.929468 114.331141 
L 341.848902 113.372446 
L 343.768337 112.657023 
L 345.687772 112.295054 
L 347.607206 112.241189 
L 349.526641 112.480182 
L 351.446076 112.985998 
L 353.365511 113.868836 
L 355.284945 115.028842 
L 357.20438 116.472754 
L 359.123815 118.215805 
L 361.043249 120.287721 
L 363.922401 123.860326 
L 366.801553 128.113047 
L 369.680706 132.915528 
L 372.559858 138.268605 
L 376.398727 145.917027 
L 382.157031 158.591391 
L 385.9959 167.75988 
L 389.83477 177.428265 
L 394.633357 190.155689 
L 399.431943 203.674354 
L 405.190247 220.561255 
L 414.787421 248.984015 
L 419.586008 262.613797 
L 423.424877 272.753887 
L 427.263746 282.069147 
L 430.142899 288.43193 
L 433.022051 294.329359 
L 434.941485 297.893624 
L 436.86092 301.10153 
L 438.780355 304.11595 
L 441.659507 308.127779 
L 444.538659 311.643018 
L 449.337246 316.848912 
L 457.974702 325.987433 
L 461.813571 330.680378 
L 465.65244 335.933519 
L 469.49131 341.679936 
L 474.289897 349.307239 
L 482.927353 362.694506 
L 485.806505 366.857617 
L 490.605092 373.194465 
L 494.443961 377.714139 
L 498.28283 381.826431 
L 502.1217 385.384058 
L 505.000852 387.75294 
L 507.880004 389.780768 
L 509.799439 391.00647 
L 512.678591 392.524283 
L 514.598025 393.383289 
L 517.477177 394.370626 
L 521.316047 395.245043 
L 524.195199 395.643161 
L 528.034068 395.892688 
L 531.872938 395.923275 
L 541.470111 395.832159 
L 541.470111 395.832159 
" clip-path="url(#pf43387e253)" style="fill: none; stroke-dasharray: 4.85625,2.1; stroke-dashoffset: 0; stroke: #1f77b4; stroke-width: 1.3125"/>
   </g>
   <g id="line2d_13">
    <path d="M 109.355198 406.026853 
L 116.034516 406.139124 
L 131.30153 406.500813 
L 137.02666 406.293131 
L 141.797602 405.898171 
L 147.522732 405.220507 
L 159.927181 403.566849 
L 166.6065 402.92616 
L 180.919325 401.732819 
L 183.78189 401.335288 
L 188.552832 400.306264 
L 191.415397 399.480199 
L 194.277962 398.431308 
L 197.140528 397.176396 
L 200.957281 395.125857 
L 204.774035 392.577308 
L 207.6366 390.39392 
L 210.499165 387.91725 
L 214.315918 384.276777 
L 217.178483 381.196429 
L 220.995237 376.649156 
L 225.766179 370.228766 
L 228.628744 366.023952 
L 231.491309 361.444109 
L 234.353874 356.507341 
L 237.216439 351.170797 
L 240.079004 345.375485 
L 242.941569 339.1548 
L 245.804134 332.457446 
L 249.620888 322.845284 
L 254.39183 309.924143 
L 262.025337 288.092619 
L 266.796279 274.392876 
L 271.56722 261.434144 
L 275.383974 251.771365 
L 278.246539 244.953613 
L 282.063292 236.495965 
L 285.880046 228.653879 
L 290.650988 219.423511 
L 304.009625 194.318946 
L 307.826378 186.620198 
L 316.414074 168.368616 
L 321.185016 158.234088 
L 324.047581 152.467891 
L 326.910146 147.185124 
L 329.772711 142.423802 
L 332.635276 138.373673 
L 334.543653 136.101438 
L 336.45203 134.218512 
L 338.360406 132.739331 
L 340.268783 131.722863 
L 341.222971 131.31201 
L 343.131348 130.862064 
L 344.085537 130.759853 
L 345.993913 130.883177 
L 347.90229 131.363859 
L 349.810667 132.202601 
L 350.764855 132.697767 
L 353.62742 134.67207 
L 355.535797 136.35747 
L 357.444174 138.170764 
L 362.215116 143.506324 
L 365.077681 147.005382 
L 367.940246 150.666618 
L 376.527941 162.299361 
L 383.20726 171.882052 
L 387.024013 177.808435 
L 391.794955 185.83773 
L 395.611708 192.805944 
L 399.428462 200.314459 
L 403.245215 208.175811 
L 408.016157 218.425451 
L 417.558041 238.9993 
L 420.420606 244.796056 
L 425.191548 253.991724 
L 428.054113 259.31406 
L 433.779243 269.426729 
L 442.366939 283.753531 
L 459.542329 311.124056 
L 466.221648 321.627711 
L 470.99259 329.292414 
L 482.44285 348.11671 
L 489.122169 358.669683 
L 492.938922 364.286795 
L 495.801487 368.191301 
L 499.618241 372.966601 
L 502.480806 376.237333 
L 506.297559 380.111989 
L 510.114313 383.528896 
L 512.976878 385.757934 
L 516.793631 388.363515 
L 520.610385 390.675918 
L 524.427138 392.732707 
L 530.152269 395.428776 
L 536.831587 398.044267 
L 542.556717 400.069669 
L 546.373471 401.261192 
L 552.098601 402.819873 
L 556.869543 403.935414 
L 562.594673 404.983937 
L 567.365615 405.59837 
L 572.136557 405.994644 
L 576.907499 406.181319 
L 581.678441 406.205553 
L 588.357759 406.066558 
L 596.945455 405.916199 
L 596.945455 405.916199 
" clip-path="url(#pf43387e253)" style="fill: none; stroke-dasharray: 8.4,2.1,1.3125,2.1; stroke-dashoffset: 0; stroke: #1f77b4; stroke-width: 1.3125"/>
   </g>
   <g id="patch_3">
    <path d="M 23.76 422.96 
L 624.24 422.96 
" style="fill: none; stroke: #333333; stroke-width: 1.5; stroke-linejoin: miter; stroke-linecap: square"/>
   </g>
   <g id="text_4">
    <!-- $x_3$ -->
    <g style="fill: #262626" transform="translate(283.34 81.634375)">
     <text>
      <tspan x="0" y="-0.4375" style="font-style: oblique; font-size: 76px; font-family: 'DejaVu Sans'; fill: #262626">x</tspan>
      <tspan x="44.976562" y="12.03125" style="font-size: 53.2px; font-family: 'DejaVu Sans'; fill: #262626">3</tspan>
     </text>
    </g>
   </g>
  </g>
 </g>
 <defs>
  <clipPath id="pf43387e253">
   <rect x="23.76" y="97.44" width="600.48" height="325.52"/>
  </clipPath>
 </defs>
</svg>
