<?xml version="1.0" encoding="utf-8" standalone="no"?>
<!DOCTYPE svg PUBLIC "-//W3C//DTD SVG 1.1//EN"
  "http://www.w3.org/Graphics/SVG/1.1/DTD/svg11.dtd">
<svg xmlns:xlink="http://www.w3.org/1999/xlink" width="648pt" height="504pt" viewBox="0 0 648 504" xmlns="http://www.w3.org/2000/svg" version="1.1">
 <metadata>
  <rdf:RDF xmlns:dc="http://purl.org/dc/elements/1.1/" xmlns:cc="http://creativecommons.org/ns#" xmlns:rdf="http://www.w3.org/1999/02/22-rdf-syntax-ns#">
   <cc:Work>
    <dc:type rdf:resource="http://purl.org/dc/dcmitype/StillImage"/>
    <dc:date>2026-02-22T16:15:36.114364</dc:date>
    <dc:format>image/svg+xml</dc:format>
    <dc:creator>
     <cc:Agent>
      <dc:title>Matplotlib v3.10.6, https://matplotlib.org/</dc:title>
     </cc:Agent>
    </dc:creator>
   </cc:Work>
  </rdf:RDF>
 </metadata>
 <defs>
  <style type="text/css">*{stroke-linejoin: round; stroke-linecap: butt}</style>
 </defs>
 <g id="figure_1">
  <g id="patch_1">
   <path d="M 0 504 
L 648 504 
L 648 0 
L 0 0 
L 0 504 
z
" style="fill: none; opacity: 0"/>
  </g>
  <g id="axes_1">
   <g id="patch_2">
    <path d="M 23.76 422.96 
L 562.060456 422.96 
L 562.060456 114.456 
L 23.76 114.456 
L 23.76 422.96 
z
" style="fill: none"/>
   </g>
   <g id="matplotlib.axis_1">
    <g id="xtick_1">
     <g id="line2d_1">
      <path d="M 135.805734 422.96 
L 135.805734 114.456 
" clip-path="url(#p9fcbe123a4)" style="fill: none; stroke: #cccccc; stroke-opacity: 0.4; stroke-linecap: round"/>
     </g>
     <g id="line2d_2"/>
     <g id="text_1">
      <text style="font-size: 52px; font-family: 'DejaVu Serif', 'Times New Roman', serif; text-anchor: middle; fill: #262626" x="135.805734" y="469.471875" transform="rotate(-0 135.805734 469.471875)">−0.34</text>
     </g>
    </g>
    <g id="xtick_2">
     <g id="line2d_3">
      <path d="M 339.549841 422.96 
L 339.549841 114.456 
" clip-path="url(#p9fcbe123a4)" style="fill: none; stroke: #cccccc; stroke-opacity: 0.4; stroke-linecap: round"/>
     </g>
     <g id="line2d_4"/>
     <g id="text_2">
      <text style="font-size: 52px; font-family: 'DejaVu Serif', 'Times New Roman', serif; text-anchor: middle; fill: #262626" x="339.549841" y="469.471875" transform="rotate(-0 339.549841 469.471875)">−0.33</text>
     </g>
    </g>
    <g id="xtick_3">
     <g id="line2d_5">
      <path d="M 543.293947 422.96 
L 543.293947 114.456 
" clip-path="url(#p9fcbe123a4)" style="fill: none; stroke: #cccccc; stroke-opacity: 0.4; stroke-linecap: round"/>
     </g>
     <g id="line2d_6"/>
     <g id="text_3">
      <text style="font-size: 52px; font-family: 'DejaVu Serif', 'Times New Roman', serif; text-anchor: middle; fill: #262626" x="543.293947" y="469.471875" transform="rotate(-0 543.293947 469.471875)">−0.32</text>
     </g>
    </g>
   </g>
   <g id="matplotlib.axis_2">
    <g id="ytick_1">
     <g id="line2d_7">
      <path d="M 23.76 409.477596 
L 562.060456 409.477596 
" clip-path="url(#p9fcbe123a4)" style="fill: none; stroke: #cccccc; stroke-opacity: 0.4; stroke-linecap: round"/>
     </g>
    </g>
    <g id="ytick_2">
     <g id="line2d_8">
      <path d="M 23.76 189.80293 
L 562.060456 189.80293 
" clip-path="url(#p9fcbe123a4)" style="fill: none; stroke: #cccccc; stroke-opacity: 0.4; stroke-linecap: round"/>
     </g>
    </g>
   </g>
   <g id="line2d_9">
    <path d="M 61.15116 405.784263 
L 65.41056 405.700119 
L 70.521839 405.333782 
L 73.929359 404.919661 
L 77.336878 404.331455 
L 79.892518 403.719375 
L 84.151917 402.484528 
L 88.411317 400.917999 
L 92.670716 399.088217 
L 96.930115 397.049578 
L 102.041395 394.340084 
L 108.004554 390.941658 
L 113.967713 387.250754 
L 120.782752 382.81814 
L 126.745912 378.560395 
L 130.153431 375.972371 
L 136.96847 369.86615 
L 140.37599 366.313688 
L 142.931629 363.402335 
L 145.487269 360.18825 
L 148.894789 355.405846 
L 151.450428 351.519168 
L 154.857948 345.803613 
L 158.265467 339.50089 
L 161.672987 332.638934 
L 165.080506 325.216682 
L 168.488026 317.17552 
L 171.895546 308.669806 
L 177.006825 294.95187 
L 181.266224 282.957634 
L 192.340663 251.3587 
L 197.451942 237.63509 
L 200.859462 229.120915 
L 204.266981 221.362017 
L 207.674501 214.229875 
L 211.08202 207.757888 
L 214.48954 201.764498 
L 219.600819 193.310689 
L 223.860219 186.150678 
L 228.971498 177.072686 
L 236.638417 162.041015 
L 242.601576 150.335142 
L 245.157216 145.854586 
L 247.712855 141.890604 
L 249.416615 139.604971 
L 251.120375 137.646327 
L 252.824135 135.957629 
L 254.527895 134.645112 
L 256.231654 133.661642 
L 257.083534 133.285966 
L 258.787294 132.822889 
L 260.491054 132.650105 
L 262.194814 132.799766 
L 263.898573 133.267783 
L 265.602333 133.972084 
L 267.306093 134.989159 
L 269.009853 136.26224 
L 271.565492 138.650933 
L 273.269252 140.471821 
L 275.824892 143.668388 
L 278.380531 147.331162 
L 280.936171 151.328095 
L 283.491811 155.792408 
L 287.75121 163.839431 
L 293.714369 175.924766 
L 300.529408 189.362981 
L 303.085048 194.043677 
L 307.344447 201.152188 
L 310.751967 206.461176 
L 319.270766 219.292468 
L 322.678285 224.927785 
L 326.085805 231.219864 
L 328.641445 236.363104 
L 331.197084 241.963529 
L 334.604604 250.173115 
L 338.012123 259.176355 
L 341.419643 268.637352 
L 355.049721 307.407739 
L 359.309121 318.383976 
L 362.71664 326.437654 
L 366.12416 333.839832 
L 368.679799 338.974309 
L 371.235439 343.717203 
L 374.642959 349.571921 
L 378.050478 354.937414 
L 380.606118 358.652441 
L 383.161757 362.175045 
L 385.717397 365.417969 
L 389.124917 369.39796 
L 392.532436 373.042267 
L 395.939956 376.229072 
L 398.495595 378.405659 
L 401.903115 380.891195 
L 405.310634 383.020978 
L 408.718154 384.852343 
L 412.125674 386.421294 
L 418.940713 389.252162 
L 424.903872 391.787549 
L 429.163271 393.751612 
L 436.83019 397.487993 
L 445.348989 401.592413 
L 450.460268 403.634007 
L 454.719668 405.056676 
L 458.979067 406.190686 
L 463.238467 407.034083 
L 466.645986 407.512794 
L 470.905386 407.853144 
L 475.164785 407.980988 
L 479.424185 407.912601 
L 496.461782 407.258099 
L 496.461782 407.258099 
" clip-path="url(#p9fcbe123a4)" style="fill: none; stroke: #d62728; stroke-width: 1.3125; stroke-linecap: round"/>
   </g>
   <g id="line2d_10">
    <path d="M 69.243234 396.99422 
L 73.825905 396.722219 
L 78.408577 396.086433 
L 82.074714 395.320164 
L 89.406988 393.388701 
L 94.906194 391.581828 
L 100.4054 389.446067 
L 104.071537 387.670908 
L 107.737674 385.586175 
L 110.487277 383.742997 
L 113.23688 381.606468 
L 115.986483 379.200762 
L 117.819551 377.414392 
L 120.569154 374.460976 
L 124.235291 370.08935 
L 127.901428 365.338519 
L 136.150237 353.694867 
L 144.399045 342.158124 
L 155.397457 327.366728 
L 159.063594 322.191195 
L 162.729731 316.537833 
L 165.479334 311.969552 
L 168.228937 307.047265 
L 170.97854 301.734999 
L 174.644677 294.141236 
L 179.227348 283.859676 
L 184.726554 270.607222 
L 196.6415 241.612921 
L 202.140705 229.128791 
L 205.806842 221.441658 
L 209.47298 214.191245 
L 214.055651 205.87016 
L 217.721788 199.609613 
L 222.30446 192.294275 
L 227.803665 184.163034 
L 236.052474 173.126459 
L 239.718611 168.95952 
L 242.468214 166.060717 
L 245.217817 163.419824 
L 248.883954 160.289191 
L 252.550091 157.559757 
L 258.049297 153.929352 
L 262.631968 150.868594 
L 266.298105 148.17628 
L 276.379982 140.025833 
L 278.213051 138.754805 
L 280.046119 137.784845 
L 281.879188 137.045348 
L 283.712257 136.679257 
L 285.545325 136.733266 
L 286.461859 136.941576 
L 288.294928 137.762104 
L 290.127997 139.139756 
L 291.961065 141.105306 
L 292.877599 142.278053 
L 294.710668 145.122852 
L 296.543737 148.685888 
L 298.376805 152.805069 
L 300.209874 157.405764 
L 302.042942 162.581418 
L 304.792545 171.285076 
L 307.542148 180.916859 
L 310.291751 191.42007 
L 313.957888 206.315073 
L 321.290162 237.380322 
L 325.872834 256.428325 
L 329.538971 270.799357 
L 332.288574 280.652554 
L 335.038177 289.625295 
L 337.787779 297.679222 
L 340.537382 304.809097 
L 342.370451 309.054492 
L 344.203519 312.814293 
L 346.036588 316.169774 
L 347.869657 319.211011 
L 350.619259 323.243589 
L 354.285397 327.897127 
L 357.951534 331.992972 
L 368.949945 344.282765 
L 384.531028 362.77818 
L 388.197165 366.504535 
L 390.946768 369.047285 
L 393.696371 371.32722 
L 397.362508 374.105003 
L 401.945179 377.312851 
L 416.609728 387.267321 
L 426.691605 394.539089 
L 430.357742 397.023523 
L 433.107345 398.755702 
L 436.773482 400.854982 
L 440.439619 402.685829 
L 444.105756 404.230258 
L 446.855359 405.187326 
L 450.521496 406.220249 
L 454.187634 406.990349 
L 457.853771 407.547933 
L 460.603374 407.817245 
L 466.102579 408.100849 
L 475.267922 408.213421 
L 484.433265 408.337625 
L 508.263156 408.906058 
L 514.678896 408.651977 
L 522.011171 408.101584 
L 532.093048 407.329796 
L 537.592253 407.164682 
L 537.592253 407.164682 
" clip-path="url(#p9fcbe123a4)" style="fill: none; stroke-dasharray: 1.3125,2.165625; stroke-dashoffset: 0; stroke: #d62728; stroke-width: 1.3125"/>
   </g>
   <g id="line2d_11">
    <path d="M 103.825976 377.184232 
L 106.143604 377.151676 
L 109.233775 376.843898 
L 113.096489 376.228981 
L 116.18666 375.517211 
L 120.049374 374.340875 
L 123.912088 372.86582 
L 127.002259 371.417571 
L 130.864973 369.249712 
L 133.955144 367.251196 
L 137.817858 364.326588 
L 140.908029 361.588293 
L 143.998201 358.469919 
L 146.315829 355.913083 
L 149.406 352.080907 
L 152.496171 347.800355 
L 155.586342 343.059622 
L 158.676514 337.918547 
L 160.994142 333.710652 
L 164.856856 326.112464 
L 167.947027 319.587966 
L 170.264655 314.399685 
L 173.354826 307.09855 
L 177.21754 297.415538 
L 181.080254 287.226786 
L 185.715511 274.572097 
L 198.848738 238.520291 
L 204.256538 224.861441 
L 208.119252 215.849499 
L 211.209423 209.090333 
L 215.84468 199.670489 
L 221.252479 189.612502 
L 225.115193 182.974175 
L 230.522993 174.162472 
L 249.064019 144.57365 
L 252.926733 139.096733 
L 256.016904 135.280599 
L 258.334533 132.971983 
L 260.652161 131.222345 
L 262.197247 130.201446 
L 263.742332 129.398233 
L 265.287418 128.880022 
L 267.605046 128.522691 
L 269.150132 128.514903 
L 270.695217 128.779871 
L 273.785388 129.918004 
L 275.330474 130.765045 
L 276.87556 131.772182 
L 278.420645 133.007094 
L 280.738274 135.269763 
L 282.283359 136.975022 
L 284.600987 139.94962 
L 286.918616 143.36152 
L 288.463701 145.882679 
L 290.78133 150.146199 
L 293.871501 156.711141 
L 296.189129 162.23135 
L 299.2793 170.533118 
L 302.369471 179.43785 
L 306.232185 191.403674 
L 317.047784 225.766503 
L 321.683041 238.825702 
L 324.773212 246.686682 
L 327.863383 253.837184 
L 330.953555 260.329323 
L 334.816268 267.723317 
L 338.678982 274.532957 
L 347.176953 288.935281 
L 351.039667 295.983668 
L 355.674924 305.029588 
L 358.765095 311.468132 
L 364.172894 323.498997 
L 371.125779 339.23324 
L 374.21595 345.804545 
L 377.306122 351.877317 
L 380.396293 357.320131 
L 382.713921 360.962717 
L 385.031549 364.223498 
L 387.349178 367.084051 
L 389.666806 369.595755 
L 391.984435 371.75007 
L 394.302063 373.67313 
L 398.93732 377.122638 
L 406.662747 382.527717 
L 415.160718 388.959233 
L 418.250889 391.302652 
L 423.658689 395.102476 
L 427.521403 397.413573 
L 431.384117 399.386277 
L 433.701745 400.405967 
L 437.564459 401.855232 
L 442.199716 403.320261 
L 446.834972 404.59197 
L 452.242772 405.863918 
L 459.195657 407.159428 
L 463.058371 407.706689 
L 467.693627 408.139514 
L 472.328884 408.334185 
L 476.964141 408.290953 
L 483.144483 407.978406 
L 494.732625 407.275949 
L 498.595339 407.205986 
L 498.595339 407.205986 
" clip-path="url(#p9fcbe123a4)" style="fill: none; stroke-dasharray: 4.85625,2.1; stroke-dashoffset: 0; stroke: #d62728; stroke-width: 1.3125"/>
   </g>
   <g id="line2d_12">
    <path d="M 48.228203 403.597574 
L 67.637178 403.791237 
L 71.680715 403.486948 
L 75.724252 402.967772 
L 78.959081 402.343893 
L 82.19391 401.552808 
L 85.42874 400.538086 
L 89.472276 398.975708 
L 92.707106 397.500426 
L 95.941935 395.783242 
L 98.368057 394.330403 
L 101.602886 392.094363 
L 105.646423 388.826756 
L 108.881252 385.814858 
L 111.307374 383.265506 
L 114.542204 379.549623 
L 117.777033 375.392145 
L 121.820569 369.633326 
L 126.672813 362.028318 
L 131.525057 353.865504 
L 142.038253 335.636539 
L 146.890497 327.738809 
L 150.934033 321.447586 
L 155.786277 314.396887 
L 164.682058 302.233391 
L 169.534302 295.548325 
L 176.003961 286.233247 
L 180.856204 278.851426 
L 188.13457 266.902782 
L 192.986814 258.313407 
L 196.221644 252.234681 
L 200.26518 244.157265 
L 204.308717 235.466974 
L 207.543546 228.053995 
L 211.587083 218.133048 
L 216.439327 205.684632 
L 224.5264 185.235552 
L 227.76123 177.753827 
L 230.996059 171.0848 
L 232.613474 168.065761 
L 235.848303 162.624107 
L 238.274425 159.159705 
L 240.700547 156.136392 
L 243.935376 152.705536 
L 246.361498 150.488853 
L 248.78762 148.482172 
L 255.257279 143.793642 
L 261.726937 139.761465 
L 264.153059 138.569327 
L 265.770474 137.993427 
L 266.579181 137.72074 
L 269.005303 137.345746 
L 270.622718 137.301106 
L 272.240133 137.49823 
L 273.04884 137.677813 
L 274.666255 138.337382 
L 276.283669 139.208435 
L 277.901084 140.378278 
L 279.518499 141.812121 
L 281.135913 143.571539 
L 282.753328 145.631427 
L 285.17945 149.055355 
L 287.605572 152.892263 
L 293.266523 163.359046 
L 296.501353 169.683147 
L 304.588426 185.880333 
L 315.101621 207.080665 
L 319.953865 217.531609 
L 323.188694 224.975816 
L 326.423524 232.988622 
L 329.658353 241.462894 
L 333.70189 252.876013 
L 336.936719 262.639902 
L 340.980256 275.284996 
L 345.8325 290.957146 
L 352.302158 311.746482 
L 357.154402 326.439418 
L 361.197939 337.773832 
L 364.432768 346.003088 
L 366.85889 351.670398 
L 369.285012 356.950469 
L 371.711134 361.80199 
L 374.137256 366.283606 
L 377.372085 371.644191 
L 379.798207 375.292466 
L 383.033037 379.578938 
L 386.267866 383.437298 
L 388.693988 386.040694 
L 392.737525 389.777629 
L 395.972354 392.349458 
L 399.207183 394.527723 
L 401.633305 395.988228 
L 404.868135 397.639467 
L 408.911671 399.395987 
L 412.146501 400.512791 
L 416.190037 401.688411 
L 419.424867 402.45368 
L 424.277111 403.384017 
L 429.129354 404.073168 
L 433.981598 404.501827 
L 438.025135 404.681395 
L 442.068672 404.689365 
L 448.53833 404.467549 
L 459.051526 404.083048 
L 461.477648 404.049411 
L 461.477648 404.049411 
" clip-path="url(#p9fcbe123a4)" style="fill: none; stroke-dasharray: 8.4,2.1,1.3125,2.1; stroke-dashoffset: 0; stroke: #d62728; stroke-width: 1.3125"/>
   </g>
   <g id="patch_3">
    <path d="M 23.76 422.96 
L 562.060456 422.96 
" style="fill: none; stroke: #333333; stroke-width: 1.5; stroke-linejoin: miter; stroke-linecap: square"/>
   </g>
   <g id="text_4">
    <!-- $x_3^3$ -->
    <g style="fill: #262626" transform="translate(250.730228 92.416)">
     <text>
      <tspan x="0" y="-0.421875" style="font-style: oblique; font-size: 76px; font-family: 'DejaVu Sans'; fill: #262626">x</tspan>
      <tspan x="44.976562" y="20.359375" style="font-size: 53.2px; font-family: 'DejaVu Sans'; fill: #262626">3</tspan>
      <tspan x="48.370833" y="-29.515625" style="font-size: 53.2px; font-family: 'DejaVu Sans'; fill: #262626">3</tspan>
     </text>
    </g>
   </g>
  </g>
 </g>
 <defs>
  <clipPath id="p9fcbe123a4">
   <rect x="23.76" y="114.456" width="538.300456" height="308.504"/>
  </clipPath>
 </defs>
</svg>
