<?xml version="1.0" encoding="utf-8" standalone="no"?>
<!DOCTYPE svg PUBLIC "-//W3C//DTD SVG 1.1//EN"
  "http://www.w3.org/Graphics/SVG/1.1/DTD/svg11.dtd">
<svg xmlns:xlink="http://www.w3.org/1999/xlink" width="648pt" height="504pt" viewBox="0 0 648 504" xmlns="http://www.w3.org/2000/svg" version="1.1">
 <metadata>
  <rdf:RDF xmlns:dc="http://purl.org/dc/elements/1.1/" xmlns:cc="http://creativecommons.org/ns#" xmlns:rdf="http://www.w3.org/1999/02/22-rdf-syntax-ns#">
   <cc:Work>
    <dc:type rdf:resource="http://purl.org/dc/dcmitype/StillImage"/>
    <dc:date>2026-02-22T16:15:35.603285</dc:date>
    <dc:format>image/svg+xml</dc:format>
    <dc:creator>
     <cc:Agent>
      <dc:title>Matplotlib v3.10.6, https://matplotlib.org/</dc:title>
     </cc:Agent>
    </dc:creator>
   </cc:Work>
  </rdf:RDF>
 </metadata>
 <defs>
  <style type="text/css">*{stroke-linejoin: round; stroke-linecap: butt}</style>
 </defs>
 <g id="figure_1">
  <g id="patch_1">
   <path d="M 0 504 
L 648 504 
L 648 0 
L 0 0 
L 0 504 
z
" style="fill: none; opacity: 0"/>
  </g>
  <g id="axes_1">
   <g id="patch_2">
    <path d="M 25.92 420.8 
L 622.08 420.8 
L 622.08 99.6 
L 25.92 99.6 
L 25.92 420.8 
z
" style="fill: none"/>
   </g>
   <g id="matplotlib.axis_1">
    <g id="xtick_1">
     <g id="line2d_1">
      <path d="M 134.571529 420.8 
L 134.571529 99.6 
" clip-path="url(#pa8365936e9)" style="fill: none; stroke: #ffffff; stroke-opacity: 0.4; stroke-linecap: round"/>
     </g>
     <g id="line2d_2"/>
     <g id="text_1">
      <text style="font-size: 52px; font-family: 'DejaVu Serif', 'Times New Roman', serif; text-anchor: middle; fill: #262626" x="134.571529" y="467.311875" transform="rotate(-0 134.571529 467.311875)">−5</text>
     </g>
    </g>
    <g id="xtick_2">
     <g id="line2d_3">
      <path d="M 322.951459 420.8 
L 322.951459 99.6 
" clip-path="url(#pa8365936e9)" style="fill: none; stroke: #ffffff; stroke-opacity: 0.4; stroke-linecap: round"/>
     </g>
     <g id="line2d_4"/>
     <g id="text_2">
      <text style="font-size: 52px; font-family: 'DejaVu Serif', 'Times New Roman', serif; text-anchor: middle; fill: #262626" x="322.951459" y="467.311875" transform="rotate(-0 322.951459 467.311875)">0</text>
     </g>
    </g>
    <g id="xtick_3">
     <g id="line2d_5">
      <path d="M 511.331389 420.8 
L 511.331389 99.6 
" clip-path="url(#pa8365936e9)" style="fill: none; stroke: #ffffff; stroke-opacity: 0.4; stroke-linecap: round"/>
     </g>
     <g id="line2d_6"/>
     <g id="text_3">
      <text style="font-size: 52px; font-family: 'DejaVu Serif', 'Times New Roman', serif; text-anchor: middle; fill: #262626" x="511.331389" y="467.311875" transform="rotate(-0 511.331389 467.311875)">5</text>
     </g>
    </g>
   </g>
   <g id="matplotlib.axis_2">
    <g id="ytick_1">
     <g id="line2d_7">
      <path d="M 25.92 406.2 
L 622.08 406.2 
" clip-path="url(#pa8365936e9)" style="fill: none; stroke: #ffffff; stroke-opacity: 0.4; stroke-linecap: round"/>
     </g>
    </g>
    <g id="ytick_2">
     <g id="line2d_8">
      <path d="M 25.92 254.86133 
L 622.08 254.86133 
" clip-path="url(#pa8365936e9)" style="fill: none; stroke: #ffffff; stroke-opacity: 0.4; stroke-linecap: round"/>
     </g>
    </g>
    <g id="ytick_3">
     <g id="line2d_9">
      <path d="M 25.92 103.52266 
L 622.08 103.52266 
" clip-path="url(#pa8365936e9)" style="fill: none; stroke: #ffffff; stroke-opacity: 0.4; stroke-linecap: round"/>
     </g>
    </g>
   </g>
   <g id="FillBetweenPolyCollection_1">
    <defs>
     <path id="m4f411b41c0" d="M 53.018182 -97.8 
L 53.018182 -100.087851 
L 54.078776 -100.090016 
L 55.13937 -100.094281 
L 56.199964 -100.10052 
L 57.260559 -100.108543 
L 58.321153 -100.120746 
L 59.381747 -100.130157 
L 60.442341 -100.14579 
L 61.502935 -100.160075 
L 62.56353 -100.175304 
L 63.624124 -100.19377 
L 64.684718 -100.209984 
L 65.745312 -100.225709 
L 66.805906 -100.245913 
L 67.866501 -100.261116 
L 68.927095 -100.275257 
L 69.987689 -100.286626 
L 71.048283 -100.299711 
L 72.108877 -100.313918 
L 73.169472 -100.327307 
L 74.230066 -100.33537 
L 75.29066 -100.347605 
L 76.351254 -100.359656 
L 77.411848 -100.374603 
L 78.472443 -100.388364 
L 79.533037 -100.403622 
L 80.593631 -100.421042 
L 81.654225 -100.438707 
L 82.714819 -100.457813 
L 83.775414 -100.483642 
L 84.836008 -100.51426 
L 85.896602 -100.550367 
L 86.957196 -100.592085 
L 88.01779 -100.645311 
L 89.078385 -100.70404 
L 90.138979 -100.773614 
L 91.199573 -100.852617 
L 92.260167 -100.939004 
L 93.320761 -101.035243 
L 94.381356 -101.14689 
L 95.44195 -101.267562 
L 96.502544 -101.394841 
L 97.563138 -101.533343 
L 98.623732 -101.684951 
L 99.684327 -101.84949 
L 100.744921 -102.022088 
L 101.805515 -102.209755 
L 102.866109 -102.405518 
L 103.926703 -102.613778 
L 104.987298 -102.832235 
L 106.047892 -103.052769 
L 107.108486 -103.288986 
L 108.16908 -103.534446 
L 109.229674 -103.784292 
L 110.290269 -104.039741 
L 111.350863 -104.303048 
L 112.411457 -104.579158 
L 113.472051 -104.86276 
L 114.532645 -105.153864 
L 115.59324 -105.452518 
L 116.653834 -105.766714 
L 117.714428 -106.082765 
L 118.775022 -106.409717 
L 119.835616 -106.751612 
L 120.896211 -107.104853 
L 121.956805 -107.458948 
L 123.017399 -107.830276 
L 124.077993 -108.206231 
L 125.138587 -108.603694 
L 126.199182 -109.024314 
L 127.259776 -109.450243 
L 128.32037 -109.879842 
L 129.380964 -110.324153 
L 130.441558 -110.781198 
L 131.502153 -111.259484 
L 132.562747 -111.745204 
L 133.623341 -112.249308 
L 134.683935 -112.768356 
L 135.744529 -113.31043 
L 136.805124 -113.877191 
L 137.865718 -114.450179 
L 138.926312 -115.034988 
L 139.986906 -115.638644 
L 141.0475 -116.269946 
L 142.108095 -116.905542 
L 143.168689 -117.558016 
L 144.229283 -118.245843 
L 145.289877 -118.949951 
L 146.350471 -119.657113 
L 147.411066 -120.386779 
L 148.47166 -121.152903 
L 149.532254 -121.946536 
L 150.592848 -122.758767 
L 151.653442 -123.581369 
L 152.714037 -124.43958 
L 153.774631 -125.323127 
L 154.835225 -126.204835 
L 155.895819 -127.109695 
L 156.956413 -128.052485 
L 158.017008 -129.003668 
L 159.077602 -129.975413 
L 160.138196 -130.962162 
L 161.19879 -131.970828 
L 162.259384 -132.998562 
L 163.319979 -134.034752 
L 164.380573 -135.098469 
L 165.441167 -136.155865 
L 166.501761 -137.235021 
L 167.562355 -138.328991 
L 168.62295 -139.440455 
L 169.683544 -140.556584 
L 170.744138 -141.685769 
L 171.804732 -142.838764 
L 172.865326 -143.994878 
L 173.925921 -145.154367 
L 174.986515 -146.332908 
L 176.047109 -147.523083 
L 177.107703 -148.71727 
L 178.168297 -149.939479 
L 179.228892 -151.162527 
L 180.289486 -152.390367 
L 181.35008 -153.638775 
L 182.410674 -154.905766 
L 183.471268 -156.174797 
L 184.531863 -157.44965 
L 185.592457 -158.736127 
L 186.653051 -160.018661 
L 187.713645 -161.312662 
L 188.774239 -162.602892 
L 189.834834 -163.915845 
L 190.895428 -165.235055 
L 191.956022 -166.552502 
L 193.016616 -167.874813 
L 194.07721 -169.216292 
L 195.137805 -170.563008 
L 196.198399 -171.893837 
L 197.258993 -173.24034 
L 198.319587 -174.604609 
L 199.380181 -175.980647 
L 200.440776 -177.356409 
L 201.50137 -178.775683 
L 202.561964 -180.206224 
L 203.622558 -181.66201 
L 204.683152 -183.127351 
L 205.743747 -184.650829 
L 206.804341 -186.207364 
L 207.864935 -187.794113 
L 208.925529 -189.431155 
L 209.986123 -191.114862 
L 211.046718 -192.855557 
L 212.107312 -194.645703 
L 213.167906 -196.508027 
L 214.2285 -198.419959 
L 215.289094 -200.408499 
L 216.349689 -202.460237 
L 217.410283 -204.553263 
L 218.470877 -206.719825 
L 219.531471 -208.93034 
L 220.592065 -211.23664 
L 221.65266 -213.576212 
L 222.713254 -215.954835 
L 223.773848 -218.400874 
L 224.834442 -220.893322 
L 225.895036 -223.443951 
L 226.955631 -226.039589 
L 228.016225 -228.684563 
L 229.076819 -231.333245 
L 230.137413 -234.043286 
L 231.198007 -236.770683 
L 232.258602 -239.495318 
L 233.319196 -242.235897 
L 234.37979 -245.014922 
L 235.440384 -247.790964 
L 236.500978 -250.534407 
L 237.561573 -253.281857 
L 238.622167 -256.043209 
L 239.682761 -258.815765 
L 240.743355 -261.545917 
L 241.803949 -264.267958 
L 242.864544 -266.981349 
L 243.925138 -269.70515 
L 244.985732 -272.378939 
L 246.046326 -275.047608 
L 247.10692 -277.713461 
L 248.167515 -280.353576 
L 249.228109 -282.96947 
L 250.288703 -285.544694 
L 251.349297 -288.146149 
L 252.409891 -290.700676 
L 253.470486 -293.236225 
L 254.53108 -295.782444 
L 255.591674 -298.2795 
L 256.652268 -300.753563 
L 257.712862 -303.205673 
L 258.773457 -305.632209 
L 259.834051 -308.051802 
L 260.894645 -310.457976 
L 261.955239 -312.853714 
L 263.015833 -315.223692 
L 264.076428 -317.551572 
L 265.137022 -319.903669 
L 266.197616 -322.243075 
L 267.25821 -324.587514 
L 268.318804 -326.952415 
L 269.379399 -329.281396 
L 270.439993 -331.614852 
L 271.500587 -333.959422 
L 272.561181 -336.311035 
L 273.621775 -338.671247 
L 274.68237 -341.050606 
L 275.742964 -343.399589 
L 276.803558 -345.77631 
L 277.864152 -348.143541 
L 278.924746 -350.507449 
L 279.985341 -352.860076 
L 281.045935 -355.195323 
L 282.106529 -357.519678 
L 283.167123 -359.827075 
L 284.227717 -362.129524 
L 285.288312 -364.389821 
L 286.348906 -366.599149 
L 287.4095 -368.770843 
L 288.470094 -370.871529 
L 289.530688 -372.832762 
L 290.591283 -374.729302 
L 291.651877 -376.527955 
L 292.712471 -378.245988 
L 293.773065 -379.868492 
L 294.833659 -381.375953 
L 295.894254 -382.753186 
L 296.954848 -383.987856 
L 298.015442 -385.092218 
L 299.076036 -386.076448 
L 300.13663 -386.947335 
L 301.197225 -387.686261 
L 302.257819 -388.312602 
L 303.318413 -388.796467 
L 304.379007 -389.186317 
L 305.439601 -389.507305 
L 306.500196 -389.68885 
L 307.56079 -389.798279 
L 308.621384 -389.8 
L 309.681978 -389.719284 
L 310.742572 -389.592943 
L 311.803167 -389.384848 
L 312.863761 -389.113109 
L 313.924355 -388.789572 
L 314.984949 -388.437185 
L 316.045543 -388.007221 
L 317.106138 -387.586403 
L 318.166732 -387.110213 
L 319.227326 -386.591487 
L 320.28792 -386.062415 
L 321.348514 -385.4955 
L 322.409109 -384.889817 
L 323.469703 -384.271559 
L 324.530297 -383.62886 
L 325.590891 -382.951053 
L 326.651486 -382.22686 
L 327.71208 -381.466618 
L 328.772674 -380.687444 
L 329.833268 -379.883702 
L 330.893862 -379.030779 
L 331.954457 -378.148191 
L 333.015051 -377.266371 
L 334.075645 -376.321785 
L 335.136239 -375.358171 
L 336.196833 -374.387416 
L 337.257428 -373.380496 
L 338.318022 -372.409118 
L 339.378616 -371.342272 
L 340.43921 -370.302917 
L 341.499804 -369.264801 
L 342.560399 -368.196296 
L 343.620993 -367.115622 
L 344.681587 -366.041404 
L 345.742181 -364.944754 
L 346.802775 -363.841904 
L 347.86337 -362.71843 
L 348.923964 -361.600402 
L 349.984558 -360.458935 
L 351.045152 -359.301503 
L 352.105746 -358.173217 
L 353.166341 -356.984008 
L 354.226935 -355.762774 
L 355.287529 -354.520803 
L 356.348123 -353.260212 
L 357.408717 -351.997528 
L 358.469312 -350.714973 
L 359.529906 -349.398562 
L 360.5905 -348.035462 
L 361.651094 -346.671966 
L 362.711688 -345.270091 
L 363.772283 -343.85548 
L 364.832877 -342.409847 
L 365.893471 -340.939775 
L 366.954065 -339.464137 
L 368.014659 -337.985556 
L 369.075254 -336.472023 
L 370.135848 -334.92887 
L 371.196442 -333.370125 
L 372.257036 -331.806095 
L 373.31763 -330.202627 
L 374.378225 -328.615602 
L 375.438819 -326.970725 
L 376.499413 -325.344313 
L 377.560007 -323.722367 
L 378.620601 -322.069862 
L 379.681196 -320.386984 
L 380.74179 -318.658093 
L 381.802384 -316.867766 
L 382.862978 -315.058203 
L 383.923572 -313.202827 
L 384.984167 -311.34613 
L 386.044761 -309.425791 
L 387.105355 -307.409263 
L 388.165949 -305.335798 
L 389.226543 -303.20618 
L 390.287138 -301.004742 
L 391.347732 -298.7658 
L 392.408326 -296.445866 
L 393.46892 -294.055499 
L 394.529514 -291.627585 
L 395.590109 -289.126106 
L 396.650703 -286.567736 
L 397.711297 -283.997362 
L 398.771891 -281.360773 
L 399.832485 -278.68827 
L 400.89308 -275.988893 
L 401.953674 -273.271518 
L 403.014268 -270.532458 
L 404.074862 -267.803569 
L 405.135456 -265.051855 
L 406.196051 -262.309087 
L 407.256645 -259.60955 
L 408.317239 -256.918344 
L 409.377833 -254.272758 
L 410.438427 -251.646687 
L 411.499022 -249.062605 
L 412.559616 -246.52657 
L 413.62021 -244.022474 
L 414.680804 -241.572793 
L 415.741398 -239.176582 
L 416.801993 -236.843969 
L 417.862587 -234.533774 
L 418.923181 -232.294488 
L 419.983775 -230.075257 
L 421.044369 -227.890754 
L 422.104964 -225.77936 
L 423.165558 -223.693751 
L 424.226152 -221.649952 
L 425.286746 -219.645202 
L 426.34734 -217.647679 
L 427.407935 -215.730185 
L 428.468529 -213.808335 
L 429.529123 -211.918148 
L 430.589717 -210.034678 
L 431.650311 -208.221835 
L 432.710906 -206.405107 
L 433.7715 -204.6191 
L 434.832094 -202.837313 
L 435.892688 -201.063531 
L 436.953282 -199.293415 
L 438.013877 -197.554573 
L 439.074471 -195.830564 
L 440.135065 -194.095544 
L 441.195659 -192.383891 
L 442.256253 -190.695467 
L 443.316848 -189.017895 
L 444.377442 -187.332761 
L 445.438036 -185.671895 
L 446.49863 -184.001354 
L 447.559224 -182.357016 
L 448.619819 -180.739352 
L 449.680413 -179.107831 
L 450.741007 -177.493748 
L 451.801601 -175.911716 
L 452.862195 -174.332108 
L 453.92279 -172.757892 
L 454.983384 -171.197308 
L 456.043978 -169.651708 
L 457.104572 -168.156342 
L 458.165166 -166.674575 
L 459.225761 -165.212012 
L 460.286355 -163.765107 
L 461.346949 -162.365661 
L 462.407543 -160.96684 
L 463.468137 -159.626181 
L 464.528732 -158.306339 
L 465.589326 -157.028662 
L 466.64992 -155.77166 
L 467.710514 -154.54857 
L 468.771108 -153.366998 
L 469.831703 -152.228294 
L 470.892297 -151.119113 
L 471.952891 -150.067231 
L 473.013485 -149.01748 
L 474.074079 -148.021286 
L 475.134674 -147.068474 
L 476.195268 -146.14622 
L 477.255862 -145.241524 
L 478.316456 -144.376967 
L 479.37705 -143.535075 
L 480.437645 -142.72327 
L 481.498239 -141.92189 
L 482.558833 -141.143034 
L 483.619427 -140.382997 
L 484.680021 -139.646031 
L 485.740616 -138.91015 
L 486.80121 -138.184763 
L 487.861804 -137.469374 
L 488.922398 -136.759011 
L 489.982992 -136.04829 
L 491.043587 -135.341451 
L 492.104181 -134.636138 
L 493.164775 -133.926599 
L 494.225369 -133.220466 
L 495.285963 -132.496176 
L 496.346558 -131.770674 
L 497.407152 -131.029882 
L 498.467746 -130.296197 
L 499.52834 -129.541605 
L 500.588934 -128.786934 
L 501.649529 -128.033032 
L 502.710123 -127.268868 
L 503.770717 -126.493966 
L 504.831311 -125.707755 
L 505.891905 -124.929311 
L 506.9525 -124.146887 
L 508.013094 -123.360451 
L 509.073688 -122.581443 
L 510.134282 -121.801165 
L 511.194876 -121.016661 
L 512.255471 -120.233105 
L 513.316065 -119.469496 
L 514.376659 -118.705674 
L 515.437253 -117.94482 
L 516.497847 -117.206404 
L 517.558442 -116.476827 
L 518.619036 -115.764342 
L 519.67963 -115.052736 
L 520.740224 -114.362752 
L 521.800818 -113.696256 
L 522.861413 -113.046434 
L 523.922007 -112.412124 
L 524.982601 -111.800745 
L 526.043195 -111.205591 
L 527.103789 -110.627556 
L 528.164384 -110.069319 
L 529.224978 -109.53492 
L 530.285572 -109.013336 
L 531.346166 -108.516671 
L 532.40676 -108.038711 
L 533.467355 -107.572174 
L 534.527949 -107.130327 
L 535.588543 -106.706737 
L 536.649137 -106.298225 
L 537.709731 -105.895871 
L 538.770326 -105.517514 
L 539.83092 -105.143725 
L 540.891514 -104.784104 
L 541.952108 -104.444041 
L 543.012702 -104.117279 
L 544.073297 -103.803009 
L 545.133891 -103.490167 
L 546.194485 -103.192977 
L 547.255079 -102.906551 
L 548.315673 -102.632892 
L 549.376268 -102.370994 
L 550.436862 -102.118468 
L 551.497456 -101.878212 
L 552.55805 -101.646446 
L 553.618644 -101.421376 
L 554.679239 -101.209882 
L 555.739833 -101.011598 
L 556.800427 -100.82264 
L 557.861021 -100.639537 
L 558.921615 -100.473604 
L 559.98221 -100.319572 
L 561.042804 -100.179487 
L 562.103398 -100.052806 
L 563.163992 -99.93902 
L 564.224586 -99.8293 
L 565.285181 -99.735354 
L 566.345775 -99.653775 
L 567.406369 -99.581743 
L 568.466963 -99.516902 
L 569.527557 -99.461425 
L 570.588152 -99.416875 
L 571.648746 -99.380157 
L 572.70934 -99.349234 
L 573.769934 -99.326656 
L 574.830528 -99.313325 
L 575.891123 -99.301371 
L 576.951717 -99.299484 
L 578.012311 -99.301866 
L 579.072905 -99.301733 
L 580.133499 -99.312372 
L 581.194094 -99.32536 
L 582.254688 -99.3381 
L 583.315282 -99.354686 
L 584.375876 -99.367816 
L 585.43647 -99.386223 
L 586.497065 -99.400015 
L 587.557659 -99.417985 
L 588.618253 -99.434473 
L 589.678847 -99.449121 
L 590.739441 -99.459511 
L 591.800036 -99.469957 
L 592.86063 -99.477573 
L 593.921224 -99.482153 
L 594.981818 -99.488814 
L 594.981818 -97.8 
L 594.981818 -97.8 
L 593.921224 -97.8 
L 592.86063 -97.8 
L 591.800036 -97.8 
L 590.739441 -97.8 
L 589.678847 -97.8 
L 588.618253 -97.8 
L 587.557659 -97.8 
L 586.497065 -97.8 
L 585.43647 -97.8 
L 584.375876 -97.8 
L 583.315282 -97.8 
L 582.254688 -97.8 
L 581.194094 -97.8 
L 580.133499 -97.8 
L 579.072905 -97.8 
L 578.012311 -97.8 
L 576.951717 -97.8 
L 575.891123 -97.8 
L 574.830528 -97.8 
L 573.769934 -97.8 
L 572.70934 -97.8 
L 571.648746 -97.8 
L 570.588152 -97.8 
L 569.527557 -97.8 
L 568.466963 -97.8 
L 567.406369 -97.8 
L 566.345775 -97.8 
L 565.285181 -97.8 
L 564.224586 -97.8 
L 563.163992 -97.8 
L 562.103398 -97.8 
L 561.042804 -97.8 
L 559.98221 -97.8 
L 558.921615 -97.8 
L 557.861021 -97.8 
L 556.800427 -97.8 
L 555.739833 -97.8 
L 554.679239 -97.8 
L 553.618644 -97.8 
L 552.55805 -97.8 
L 551.497456 -97.8 
L 550.436862 -97.8 
L 549.376268 -97.8 
L 548.315673 -97.8 
L 547.255079 -97.8 
L 546.194485 -97.8 
L 545.133891 -97.8 
L 544.073297 -97.8 
L 543.012702 -97.8 
L 541.952108 -97.8 
L 540.891514 -97.8 
L 539.83092 -97.8 
L 538.770326 -97.8 
L 537.709731 -97.8 
L 536.649137 -97.8 
L 535.588543 -97.8 
L 534.527949 -97.8 
L 533.467355 -97.8 
L 532.40676 -97.8 
L 531.346166 -97.8 
L 530.285572 -97.8 
L 529.224978 -97.8 
L 528.164384 -97.8 
L 527.103789 -97.8 
L 526.043195 -97.8 
L 524.982601 -97.8 
L 523.922007 -97.8 
L 522.861413 -97.8 
L 521.800818 -97.8 
L 520.740224 -97.8 
L 519.67963 -97.8 
L 518.619036 -97.8 
L 517.558442 -97.8 
L 516.497847 -97.8 
L 515.437253 -97.8 
L 514.376659 -97.8 
L 513.316065 -97.8 
L 512.255471 -97.8 
L 511.194876 -97.8 
L 510.134282 -97.8 
L 509.073688 -97.8 
L 508.013094 -97.8 
L 506.9525 -97.8 
L 505.891905 -97.8 
L 504.831311 -97.8 
L 503.770717 -97.8 
L 502.710123 -97.8 
L 501.649529 -97.8 
L 500.588934 -97.8 
L 499.52834 -97.8 
L 498.467746 -97.8 
L 497.407152 -97.8 
L 496.346558 -97.8 
L 495.285963 -97.8 
L 494.225369 -97.8 
L 493.164775 -97.8 
L 492.104181 -97.8 
L 491.043587 -97.8 
L 489.982992 -97.8 
L 488.922398 -97.8 
L 487.861804 -97.8 
L 486.80121 -97.8 
L 485.740616 -97.8 
L 484.680021 -97.8 
L 483.619427 -97.8 
L 482.558833 -97.8 
L 481.498239 -97.8 
L 480.437645 -97.8 
L 479.37705 -97.8 
L 478.316456 -97.8 
L 477.255862 -97.8 
L 476.195268 -97.8 
L 475.134674 -97.8 
L 474.074079 -97.8 
L 473.013485 -97.8 
L 471.952891 -97.8 
L 470.892297 -97.8 
L 469.831703 -97.8 
L 468.771108 -97.8 
L 467.710514 -97.8 
L 466.64992 -97.8 
L 465.589326 -97.8 
L 464.528732 -97.8 
L 463.468137 -97.8 
L 462.407543 -97.8 
L 461.346949 -97.8 
L 460.286355 -97.8 
L 459.225761 -97.8 
L 458.165166 -97.8 
L 457.104572 -97.8 
L 456.043978 -97.8 
L 454.983384 -97.8 
L 453.92279 -97.8 
L 452.862195 -97.8 
L 451.801601 -97.8 
L 450.741007 -97.8 
L 449.680413 -97.8 
L 448.619819 -97.8 
L 447.559224 -97.8 
L 446.49863 -97.8 
L 445.438036 -97.8 
L 444.377442 -97.8 
L 443.316848 -97.8 
L 442.256253 -97.8 
L 441.195659 -97.8 
L 440.135065 -97.8 
L 439.074471 -97.8 
L 438.013877 -97.8 
L 436.953282 -97.8 
L 435.892688 -97.8 
L 434.832094 -97.8 
L 433.7715 -97.8 
L 432.710906 -97.8 
L 431.650311 -97.8 
L 430.589717 -97.8 
L 429.529123 -97.8 
L 428.468529 -97.8 
L 427.407935 -97.8 
L 426.34734 -97.8 
L 425.286746 -97.8 
L 424.226152 -97.8 
L 423.165558 -97.8 
L 422.104964 -97.8 
L 421.044369 -97.8 
L 419.983775 -97.8 
L 418.923181 -97.8 
L 417.862587 -97.8 
L 416.801993 -97.8 
L 415.741398 -97.8 
L 414.680804 -97.8 
L 413.62021 -97.8 
L 412.559616 -97.8 
L 411.499022 -97.8 
L 410.438427 -97.8 
L 409.377833 -97.8 
L 408.317239 -97.8 
L 407.256645 -97.8 
L 406.196051 -97.8 
L 405.135456 -97.8 
L 404.074862 -97.8 
L 403.014268 -97.8 
L 401.953674 -97.8 
L 400.89308 -97.8 
L 399.832485 -97.8 
L 398.771891 -97.8 
L 397.711297 -97.8 
L 396.650703 -97.8 
L 395.590109 -97.8 
L 394.529514 -97.8 
L 393.46892 -97.8 
L 392.408326 -97.8 
L 391.347732 -97.8 
L 390.287138 -97.8 
L 389.226543 -97.8 
L 388.165949 -97.8 
L 387.105355 -97.8 
L 386.044761 -97.8 
L 384.984167 -97.8 
L 383.923572 -97.8 
L 382.862978 -97.8 
L 381.802384 -97.8 
L 380.74179 -97.8 
L 379.681196 -97.8 
L 378.620601 -97.8 
L 377.560007 -97.8 
L 376.499413 -97.8 
L 375.438819 -97.8 
L 374.378225 -97.8 
L 373.31763 -97.8 
L 372.257036 -97.8 
L 371.196442 -97.8 
L 370.135848 -97.8 
L 369.075254 -97.8 
L 368.014659 -97.8 
L 366.954065 -97.8 
L 365.893471 -97.8 
L 364.832877 -97.8 
L 363.772283 -97.8 
L 362.711688 -97.8 
L 361.651094 -97.8 
L 360.5905 -97.8 
L 359.529906 -97.8 
L 358.469312 -97.8 
L 357.408717 -97.8 
L 356.348123 -97.8 
L 355.287529 -97.8 
L 354.226935 -97.8 
L 353.166341 -97.8 
L 352.105746 -97.8 
L 351.045152 -97.8 
L 349.984558 -97.8 
L 348.923964 -97.8 
L 347.86337 -97.8 
L 346.802775 -97.8 
L 345.742181 -97.8 
L 344.681587 -97.8 
L 343.620993 -97.8 
L 342.560399 -97.8 
L 341.499804 -97.8 
L 340.43921 -97.8 
L 339.378616 -97.8 
L 338.318022 -97.8 
L 337.257428 -97.8 
L 336.196833 -97.8 
L 335.136239 -97.8 
L 334.075645 -97.8 
L 333.015051 -97.8 
L 331.954457 -97.8 
L 330.893862 -97.8 
L 329.833268 -97.8 
L 328.772674 -97.8 
L 327.71208 -97.8 
L 326.651486 -97.8 
L 325.590891 -97.8 
L 324.530297 -97.8 
L 323.469703 -97.8 
L 322.409109 -97.8 
L 321.348514 -97.8 
L 320.28792 -97.8 
L 319.227326 -97.8 
L 318.166732 -97.8 
L 317.106138 -97.8 
L 316.045543 -97.8 
L 314.984949 -97.8 
L 313.924355 -97.8 
L 312.863761 -97.8 
L 311.803167 -97.8 
L 310.742572 -97.8 
L 309.681978 -97.8 
L 308.621384 -97.8 
L 307.56079 -97.8 
L 306.500196 -97.8 
L 305.439601 -97.8 
L 304.379007 -97.8 
L 303.318413 -97.8 
L 302.257819 -97.8 
L 301.197225 -97.8 
L 300.13663 -97.8 
L 299.076036 -97.8 
L 298.015442 -97.8 
L 296.954848 -97.8 
L 295.894254 -97.8 
L 294.833659 -97.8 
L 293.773065 -97.8 
L 292.712471 -97.8 
L 291.651877 -97.8 
L 290.591283 -97.8 
L 289.530688 -97.8 
L 288.470094 -97.8 
L 287.4095 -97.8 
L 286.348906 -97.8 
L 285.288312 -97.8 
L 284.227717 -97.8 
L 283.167123 -97.8 
L 282.106529 -97.8 
L 281.045935 -97.8 
L 279.985341 -97.8 
L 278.924746 -97.8 
L 277.864152 -97.8 
L 276.803558 -97.8 
L 275.742964 -97.8 
L 274.68237 -97.8 
L 273.621775 -97.8 
L 272.561181 -97.8 
L 271.500587 -97.8 
L 270.439993 -97.8 
L 269.379399 -97.8 
L 268.318804 -97.8 
L 267.25821 -97.8 
L 266.197616 -97.8 
L 265.137022 -97.8 
L 264.076428 -97.8 
L 263.015833 -97.8 
L 261.955239 -97.8 
L 260.894645 -97.8 
L 259.834051 -97.8 
L 258.773457 -97.8 
L 257.712862 -97.8 
L 256.652268 -97.8 
L 255.591674 -97.8 
L 254.53108 -97.8 
L 253.470486 -97.8 
L 252.409891 -97.8 
L 251.349297 -97.8 
L 250.288703 -97.8 
L 249.228109 -97.8 
L 248.167515 -97.8 
L 247.10692 -97.8 
L 246.046326 -97.8 
L 244.985732 -97.8 
L 243.925138 -97.8 
L 242.864544 -97.8 
L 241.803949 -97.8 
L 240.743355 -97.8 
L 239.682761 -97.8 
L 238.622167 -97.8 
L 237.561573 -97.8 
L 236.500978 -97.8 
L 235.440384 -97.8 
L 234.37979 -97.8 
L 233.319196 -97.8 
L 232.258602 -97.8 
L 231.198007 -97.8 
L 230.137413 -97.8 
L 229.076819 -97.8 
L 228.016225 -97.8 
L 226.955631 -97.8 
L 225.895036 -97.8 
L 224.834442 -97.8 
L 223.773848 -97.8 
L 222.713254 -97.8 
L 221.65266 -97.8 
L 220.592065 -97.8 
L 219.531471 -97.8 
L 218.470877 -97.8 
L 217.410283 -97.8 
L 216.349689 -97.8 
L 215.289094 -97.8 
L 214.2285 -97.8 
L 213.167906 -97.8 
L 212.107312 -97.8 
L 211.046718 -97.8 
L 209.986123 -97.8 
L 208.925529 -97.8 
L 207.864935 -97.8 
L 206.804341 -97.8 
L 205.743747 -97.8 
L 204.683152 -97.8 
L 203.622558 -97.8 
L 202.561964 -97.8 
L 201.50137 -97.8 
L 200.440776 -97.8 
L 199.380181 -97.8 
L 198.319587 -97.8 
L 197.258993 -97.8 
L 196.198399 -97.8 
L 195.137805 -97.8 
L 194.07721 -97.8 
L 193.016616 -97.8 
L 191.956022 -97.8 
L 190.895428 -97.8 
L 189.834834 -97.8 
L 188.774239 -97.8 
L 187.713645 -97.8 
L 186.653051 -97.8 
L 185.592457 -97.8 
L 184.531863 -97.8 
L 183.471268 -97.8 
L 182.410674 -97.8 
L 181.35008 -97.8 
L 180.289486 -97.8 
L 179.228892 -97.8 
L 178.168297 -97.8 
L 177.107703 -97.8 
L 176.047109 -97.8 
L 174.986515 -97.8 
L 173.925921 -97.8 
L 172.865326 -97.8 
L 171.804732 -97.8 
L 170.744138 -97.8 
L 169.683544 -97.8 
L 168.62295 -97.8 
L 167.562355 -97.8 
L 166.501761 -97.8 
L 165.441167 -97.8 
L 164.380573 -97.8 
L 163.319979 -97.8 
L 162.259384 -97.8 
L 161.19879 -97.8 
L 160.138196 -97.8 
L 159.077602 -97.8 
L 158.017008 -97.8 
L 156.956413 -97.8 
L 155.895819 -97.8 
L 154.835225 -97.8 
L 153.774631 -97.8 
L 152.714037 -97.8 
L 151.653442 -97.8 
L 150.592848 -97.8 
L 149.532254 -97.8 
L 148.47166 -97.8 
L 147.411066 -97.8 
L 146.350471 -97.8 
L 145.289877 -97.8 
L 144.229283 -97.8 
L 143.168689 -97.8 
L 142.108095 -97.8 
L 141.0475 -97.8 
L 139.986906 -97.8 
L 138.926312 -97.8 
L 137.865718 -97.8 
L 136.805124 -97.8 
L 135.744529 -97.8 
L 134.683935 -97.8 
L 133.623341 -97.8 
L 132.562747 -97.8 
L 131.502153 -97.8 
L 130.441558 -97.8 
L 129.380964 -97.8 
L 128.32037 -97.8 
L 127.259776 -97.8 
L 126.199182 -97.8 
L 125.138587 -97.8 
L 124.077993 -97.8 
L 123.017399 -97.8 
L 121.956805 -97.8 
L 120.896211 -97.8 
L 119.835616 -97.8 
L 118.775022 -97.8 
L 117.714428 -97.8 
L 116.653834 -97.8 
L 115.59324 -97.8 
L 114.532645 -97.8 
L 113.472051 -97.8 
L 112.411457 -97.8 
L 111.350863 -97.8 
L 110.290269 -97.8 
L 109.229674 -97.8 
L 108.16908 -97.8 
L 107.108486 -97.8 
L 106.047892 -97.8 
L 104.987298 -97.8 
L 103.926703 -97.8 
L 102.866109 -97.8 
L 101.805515 -97.8 
L 100.744921 -97.8 
L 99.684327 -97.8 
L 98.623732 -97.8 
L 97.563138 -97.8 
L 96.502544 -97.8 
L 95.44195 -97.8 
L 94.381356 -97.8 
L 93.320761 -97.8 
L 92.260167 -97.8 
L 91.199573 -97.8 
L 90.138979 -97.8 
L 89.078385 -97.8 
L 88.01779 -97.8 
L 86.957196 -97.8 
L 85.896602 -97.8 
L 84.836008 -97.8 
L 83.775414 -97.8 
L 82.714819 -97.8 
L 81.654225 -97.8 
L 80.593631 -97.8 
L 79.533037 -97.8 
L 78.472443 -97.8 
L 77.411848 -97.8 
L 76.351254 -97.8 
L 75.29066 -97.8 
L 74.230066 -97.8 
L 73.169472 -97.8 
L 72.108877 -97.8 
L 71.048283 -97.8 
L 69.987689 -97.8 
L 68.927095 -97.8 
L 67.866501 -97.8 
L 66.805906 -97.8 
L 65.745312 -97.8 
L 64.684718 -97.8 
L 63.624124 -97.8 
L 62.56353 -97.8 
L 61.502935 -97.8 
L 60.442341 -97.8 
L 59.381747 -97.8 
L 58.321153 -97.8 
L 57.260559 -97.8 
L 56.199964 -97.8 
L 55.13937 -97.8 
L 54.078776 -97.8 
L 53.018182 -97.8 
z
"/>
    </defs>
    <g clip-path="url(#pa8365936e9)">
     <use xlink:href="#m4f411b41c0" x="0" y="504" style="fill: #7570b3; fill-opacity: 0.35"/>
    </g>
   </g>
   <g id="line2d_10">
    <path d="M 53.018182 403.912149 
L 64.684718 403.790016 
L 88.01779 403.354689 
L 93.320761 402.964757 
L 98.623732 402.315049 
L 103.926703 401.386222 
L 109.229674 400.215708 
L 114.532645 398.846136 
L 119.835616 397.248388 
L 125.138587 395.396306 
L 130.441558 393.218802 
L 134.683935 391.231644 
L 138.926312 388.965012 
L 143.168689 386.441984 
L 147.411066 383.613221 
L 151.653442 380.418631 
L 155.895819 376.890305 
L 161.19879 372.029172 
L 166.501761 366.764979 
L 171.804732 361.161236 
L 178.168297 354.060521 
L 183.471268 347.825203 
L 190.895428 338.764945 
L 198.319587 329.395391 
L 203.622558 322.33799 
L 206.804341 317.792636 
L 209.986123 312.885138 
L 213.167906 307.491973 
L 216.349689 301.539763 
L 219.531471 295.06966 
L 223.773848 285.599126 
L 226.955631 277.960411 
L 232.258602 264.504682 
L 248.167515 223.646424 
L 254.53108 208.217556 
L 259.834051 195.948198 
L 266.197616 181.756925 
L 286.348906 137.400851 
L 288.470094 133.128471 
L 291.651877 127.472045 
L 293.773065 124.131508 
L 295.894254 121.246814 
L 298.015442 118.907782 
L 300.13663 117.052665 
L 302.257819 115.687398 
L 304.379007 114.813683 
L 305.439601 114.492695 
L 307.56079 114.201721 
L 309.681978 114.280716 
L 311.803167 114.615152 
L 313.924355 115.210428 
L 316.045543 115.992779 
L 318.166732 116.889787 
L 321.348514 118.5045 
L 325.590891 121.048947 
L 328.772674 123.312556 
L 331.954457 125.851809 
L 334.075645 127.678215 
L 338.318022 131.590882 
L 348.923964 142.399598 
L 354.226935 148.237226 
L 359.529906 154.601438 
L 364.832877 161.590153 
L 370.135848 169.07113 
L 375.438819 177.029275 
L 380.74179 185.341907 
L 384.984167 192.65387 
L 387.105355 196.590737 
L 390.287138 202.995258 
L 393.46892 209.944501 
L 396.650703 217.432264 
L 399.832485 225.31173 
L 412.559616 257.47343 
L 415.741398 264.823418 
L 419.983775 273.924743 
L 423.165558 280.306249 
L 427.407935 288.269815 
L 431.650311 295.778165 
L 436.953282 304.706585 
L 444.377442 316.667239 
L 451.801601 328.088284 
L 457.104572 335.843658 
L 461.346949 341.634339 
L 464.528732 345.693661 
L 468.771108 350.633002 
L 471.952891 353.932769 
L 475.134674 356.931526 
L 478.316456 359.623033 
L 482.558833 362.856966 
L 487.861804 366.530626 
L 499.52834 374.458395 
L 506.9525 379.853113 
L 516.497847 386.793596 
L 520.740224 389.637248 
L 524.982601 392.199255 
L 529.224978 394.46508 
L 533.467355 396.427826 
L 537.709731 398.104129 
L 543.012702 399.882721 
L 548.315673 401.367108 
L 553.618644 402.578624 
L 558.921615 403.526396 
L 563.163992 404.06098 
L 567.406369 404.418257 
L 572.70934 404.650766 
L 579.072905 404.698267 
L 594.981818 404.511186 
L 594.981818 404.511186 
" clip-path="url(#pa8365936e9)" style="fill: none; stroke: #7570b3; stroke-width: 1.5; stroke-linecap: round"/>
   </g>
   <g id="line2d_11">
    <path d="M 191.434125 400.068 
L 449.622934 400.068 
" clip-path="url(#pa8365936e9)" style="fill: none; stroke: #7570b3; stroke-width: 3.5; stroke-linecap: round"/>
   </g>
   <g id="patch_3">
    <path d="M 25.92 420.8 
L 622.08 420.8 
" style="fill: none; stroke: #333333; stroke-width: 1.5; stroke-linejoin: miter; stroke-linecap: square"/>
   </g>
   <g id="text_4">
    <!-- $C$ -->
    <g style="fill: #262626" transform="translate(297.4 83.794375)">
     <text>
      <tspan x="0" y="-0.59375" style="font-style: oblique; font-size: 76px; font-family: 'DejaVu Sans'; fill: #262626">C</tspan>
     </text>
    </g>
   </g>
  </g>
 </g>
 <defs>
  <clipPath id="pa8365936e9">
   <rect x="25.92" y="99.6" width="596.16" height="321.2"/>
  </clipPath>
 </defs>
</svg>
