<?xml version="1.0" encoding="utf-8" standalone="no"?>
<!DOCTYPE svg PUBLIC "-//W3C//DTD SVG 1.1//EN"
  "http://www.w3.org/Graphics/SVG/1.1/DTD/svg11.dtd">
<svg xmlns:xlink="http://www.w3.org/1999/xlink" width="648pt" height="504pt" viewBox="0 0 648 504" xmlns="http://www.w3.org/2000/svg" version="1.1">
 <metadata>
  <rdf:RDF xmlns:dc="http://purl.org/dc/elements/1.1/" xmlns:cc="http://creativecommons.org/ns#" xmlns:rdf="http://www.w3.org/1999/02/22-rdf-syntax-ns#">
   <cc:Work>
    <dc:type rdf:resource="http://purl.org/dc/dcmitype/StillImage"/>
    <dc:date>2026-02-22T16:15:34.171945</dc:date>
    <dc:format>image/svg+xml</dc:format>
    <dc:creator>
     <cc:Agent>
      <dc:title>Matplotlib v3.10.6, https://matplotlib.org/</dc:title>
     </cc:Agent>
    </dc:creator>
   </cc:Work>
  </rdf:RDF>
 </metadata>
 <defs>
  <style type="text/css">*{stroke-linejoin: round; stroke-linecap: butt}</style>
 </defs>
 <g id="figure_1">
  <g id="patch_1">
   <path d="M 0 504 
L 648 504 
L 648 0 
L 0 0 
L 0 504 
z
" style="fill: none; opacity: 0"/>
  </g>
  <g id="axes_1">
   <g id="patch_2">
    <path d="M 25.92 420.8 
L 622.08 420.8 
L 622.08 99.6 
L 25.92 99.6 
L 25.92 420.8 
z
" style="fill: none"/>
   </g>
   <g id="matplotlib.axis_1">
    <g id="xtick_1">
     <g id="line2d_1">
      <path d="M 53.009712 420.8 
L 53.009712 99.6 
" clip-path="url(#p01cf626dbf)" style="fill: none; stroke: #ffffff; stroke-opacity: 0.4; stroke-linecap: round"/>
     </g>
     <g id="line2d_2"/>
     <g id="text_1">
      <text style="font-size: 52px; font-family: 'DejaVu Serif', 'Times New Roman', serif; text-anchor: middle; fill: #262626" x="53.009712" y="467.311875" transform="rotate(-0 53.009712 467.311875)">0</text>
     </g>
    </g>
    <g id="xtick_2">
     <g id="line2d_3">
      <path d="M 408.483272 420.8 
L 408.483272 99.6 
" clip-path="url(#p01cf626dbf)" style="fill: none; stroke: #ffffff; stroke-opacity: 0.4; stroke-linecap: round"/>
     </g>
     <g id="line2d_4"/>
     <g id="text_2">
      <text style="font-size: 52px; font-family: 'DejaVu Serif', 'Times New Roman', serif; text-anchor: middle; fill: #262626" x="408.483272" y="467.311875" transform="rotate(-0 408.483272 467.311875)">5</text>
     </g>
    </g>
   </g>
   <g id="matplotlib.axis_2">
    <g id="ytick_1">
     <g id="line2d_5">
      <path d="M 25.92 406.2 
L 622.08 406.2 
" clip-path="url(#p01cf626dbf)" style="fill: none; stroke: #ffffff; stroke-opacity: 0.4; stroke-linecap: round"/>
     </g>
    </g>
    <g id="ytick_2">
     <g id="line2d_6">
      <path d="M 25.92 266.669353 
L 622.08 266.669353 
" clip-path="url(#p01cf626dbf)" style="fill: none; stroke: #ffffff; stroke-opacity: 0.4; stroke-linecap: round"/>
     </g>
    </g>
    <g id="ytick_3">
     <g id="line2d_7">
      <path d="M 25.92 127.138706 
L 622.08 127.138706 
" clip-path="url(#p01cf626dbf)" style="fill: none; stroke: #ffffff; stroke-opacity: 0.4; stroke-linecap: round"/>
     </g>
    </g>
   </g>
   <g id="FillBetweenPolyCollection_1">
    <defs>
     <path id="mc5b14f575f" d="M 53.547961 -97.8 
L 53.547961 -389.8 
L 54.607518 -389.559826 
L 55.667075 -388.794628 
L 56.726633 -387.519712 
L 57.78619 -385.772262 
L 58.845748 -383.599236 
L 59.905305 -381.024998 
L 60.964863 -378.14122 
L 62.02442 -374.960633 
L 63.083978 -371.478254 
L 64.143535 -367.83294 
L 65.203093 -364.007414 
L 66.26265 -360.063297 
L 67.322207 -356.03904 
L 68.381765 -351.928063 
L 69.441322 -347.756572 
L 70.50088 -343.599768 
L 71.560437 -339.449759 
L 72.619995 -335.340304 
L 73.679552 -331.29912 
L 74.73911 -327.313282 
L 75.798667 -323.429026 
L 76.858224 -319.612102 
L 77.917782 -315.894105 
L 78.977339 -312.271238 
L 80.036897 -308.720565 
L 81.096454 -305.247059 
L 82.156012 -301.826922 
L 83.215569 -298.452631 
L 84.275127 -295.091488 
L 85.334684 -291.713458 
L 86.394242 -288.361888 
L 87.453799 -285.057258 
L 88.513356 -281.760755 
L 89.572914 -278.508663 
L 90.632471 -275.303181 
L 91.692029 -272.170885 
L 92.751586 -269.13279 
L 93.811144 -266.186684 
L 94.870701 -263.384837 
L 95.930259 -260.669418 
L 96.989816 -258.05367 
L 98.049374 -255.549435 
L 99.108931 -253.139023 
L 100.168488 -250.799889 
L 101.228046 -248.486698 
L 102.287603 -246.19587 
L 103.347161 -243.895294 
L 104.406718 -241.559815 
L 105.466276 -239.23775 
L 106.525833 -236.826821 
L 107.585391 -234.363805 
L 108.644948 -231.849845 
L 109.704505 -229.279462 
L 110.764063 -226.674116 
L 111.82362 -224.048763 
L 112.883178 -221.362711 
L 113.942735 -218.709706 
L 115.002293 -216.064211 
L 116.06185 -213.434867 
L 117.121408 -210.866146 
L 118.180965 -208.363858 
L 119.240523 -205.902121 
L 120.30008 -203.515021 
L 121.359637 -201.230502 
L 122.419195 -199.021479 
L 123.478752 -196.905698 
L 124.53831 -194.876065 
L 125.597867 -192.959402 
L 126.657425 -191.117804 
L 127.716982 -189.366275 
L 128.77654 -187.709885 
L 129.836097 -186.13613 
L 130.895654 -184.638848 
L 131.955212 -183.231124 
L 133.014769 -181.920024 
L 134.074327 -180.684781 
L 135.133884 -179.506493 
L 136.193442 -178.362046 
L 137.252999 -177.30892 
L 138.312557 -176.287147 
L 139.372114 -175.307241 
L 140.431672 -174.364618 
L 141.491229 -173.440531 
L 142.550786 -172.501801 
L 143.610344 -171.565045 
L 144.669901 -170.589676 
L 145.729459 -169.595247 
L 146.789016 -168.539713 
L 147.848574 -167.439187 
L 148.908131 -166.310216 
L 149.967689 -165.136362 
L 151.027246 -163.952059 
L 152.086804 -162.714232 
L 153.146361 -161.47631 
L 154.205918 -160.231425 
L 155.265476 -159.015167 
L 156.325033 -157.829203 
L 157.384591 -156.686618 
L 158.444148 -155.604497 
L 159.503706 -154.602654 
L 160.563263 -153.68287 
L 161.622821 -152.871518 
L 162.682378 -152.105137 
L 163.741935 -151.432936 
L 164.801493 -150.874344 
L 165.86105 -150.365271 
L 166.920608 -149.902889 
L 167.980165 -149.491941 
L 169.039723 -149.106494 
L 170.09928 -148.736828 
L 171.158838 -148.371697 
L 172.218395 -148.004856 
L 173.277953 -147.626285 
L 174.33751 -147.229403 
L 175.397067 -146.81273 
L 176.456625 -146.36089 
L 177.516182 -145.880564 
L 178.57574 -145.372273 
L 179.635297 -144.841862 
L 180.694855 -144.273686 
L 181.754412 -143.65915 
L 182.81397 -143.004622 
L 183.873527 -142.309033 
L 184.933085 -141.55743 
L 185.992642 -140.744188 
L 187.052199 -139.874062 
L 188.111757 -138.945402 
L 189.171314 -137.949577 
L 190.230872 -136.900288 
L 191.290429 -135.826953 
L 192.349987 -134.71897 
L 193.409544 -133.608755 
L 194.469102 -132.492654 
L 195.528659 -131.408183 
L 196.588216 -130.349654 
L 197.647774 -129.359833 
L 198.707331 -128.436623 
L 199.766889 -127.581372 
L 200.826446 -126.833925 
L 201.886004 -126.159348 
L 202.945561 -125.554993 
L 204.005119 -125.026748 
L 205.064676 -124.561524 
L 206.124234 -124.139096 
L 207.183791 -123.748895 
L 208.243348 -123.393017 
L 209.302906 -123.041761 
L 210.362463 -122.685555 
L 211.422021 -122.342327 
L 212.481578 -121.985517 
L 213.541136 -121.605814 
L 214.600693 -121.241204 
L 215.660251 -120.87471 
L 216.719808 -120.511568 
L 217.779366 -120.154747 
L 218.838923 -119.809515 
L 219.89848 -119.476572 
L 220.958038 -119.152854 
L 222.017595 -118.845877 
L 223.077153 -118.535714 
L 224.13671 -118.229587 
L 225.196268 -117.922514 
L 226.255825 -117.608179 
L 227.315383 -117.280075 
L 228.37494 -116.926244 
L 229.434497 -116.571311 
L 230.494055 -116.191701 
L 231.553612 -115.806591 
L 232.61317 -115.41199 
L 233.672727 -115.02346 
L 234.732285 -114.6436 
L 235.791842 -114.281558 
L 236.8514 -113.93192 
L 237.910957 -113.621331 
L 238.970515 -113.346109 
L 240.030072 -113.09268 
L 241.089629 -112.867407 
L 242.149187 -112.67148 
L 243.208744 -112.498726 
L 244.268302 -112.346694 
L 245.327859 -112.197429 
L 246.387417 -112.04594 
L 247.446974 -111.888211 
L 248.506532 -111.719989 
L 249.566089 -111.531379 
L 250.625646 -111.329227 
L 251.685204 -111.09933 
L 252.744761 -110.849345 
L 253.804319 -110.570261 
L 254.863876 -110.263409 
L 255.923434 -109.922246 
L 256.982991 -109.568595 
L 258.042549 -109.200346 
L 259.102106 -108.827436 
L 260.161664 -108.446845 
L 261.221221 -108.0667 
L 262.280778 -107.692074 
L 263.340336 -107.335235 
L 264.399893 -106.999758 
L 265.459451 -106.691631 
L 266.519008 -106.425578 
L 267.578566 -106.196485 
L 268.638123 -106.009257 
L 269.697681 -105.878262 
L 270.757238 -105.782624 
L 271.816796 -105.732423 
L 272.876353 -105.718405 
L 273.93591 -105.735664 
L 274.995468 -105.779284 
L 276.055025 -105.841622 
L 277.114583 -105.918036 
L 278.17414 -105.98903 
L 279.233698 -106.059239 
L 280.293255 -106.115684 
L 281.352813 -106.155524 
L 282.41237 -106.163832 
L 283.471927 -106.157245 
L 284.531485 -106.115056 
L 285.591042 -106.040474 
L 286.6506 -105.932517 
L 287.710157 -105.791319 
L 288.769715 -105.621929 
L 289.829272 -105.430056 
L 290.88883 -105.216382 
L 291.948387 -104.979277 
L 293.007945 -104.726417 
L 294.067502 -104.476221 
L 295.127059 -104.223667 
L 296.186617 -103.978677 
L 297.246174 -103.748085 
L 298.305732 -103.533299 
L 299.365289 -103.344262 
L 300.424847 -103.179262 
L 301.484404 -103.042947 
L 302.543962 -102.935201 
L 303.603519 -102.85194 
L 304.663077 -102.794412 
L 305.722634 -102.753977 
L 306.782191 -102.726533 
L 307.841749 -102.709345 
L 308.901306 -102.702327 
L 309.960864 -102.699566 
L 311.020421 -102.695233 
L 312.079979 -102.682004 
L 313.139536 -102.667836 
L 314.199094 -102.645083 
L 315.258651 -102.612521 
L 316.318208 -102.571894 
L 317.377766 -102.518714 
L 318.437323 -102.447149 
L 319.496881 -102.37673 
L 320.556438 -102.292736 
L 321.615996 -102.195354 
L 322.675553 -102.088895 
L 323.735111 -101.973601 
L 324.794668 -101.855597 
L 325.854226 -101.730578 
L 326.913783 -101.603596 
L 327.97334 -101.476552 
L 329.032898 -101.361939 
L 330.092455 -101.248935 
L 331.152013 -101.149479 
L 332.21157 -101.060472 
L 333.271128 -100.991608 
L 334.330685 -100.943553 
L 335.390243 -100.910037 
L 336.4498 -100.894343 
L 337.509358 -100.889725 
L 338.568915 -100.894968 
L 339.628472 -100.908744 
L 340.68803 -100.932104 
L 341.747587 -100.954596 
L 342.807145 -100.970318 
L 343.866702 -100.984383 
L 344.92626 -100.99281 
L 345.985817 -100.991181 
L 347.045375 -100.982307 
L 348.104932 -100.960771 
L 349.164489 -100.933029 
L 350.224047 -100.895292 
L 351.283604 -100.850067 
L 352.343162 -100.799498 
L 353.402719 -100.749419 
L 354.462277 -100.698244 
L 355.521834 -100.648919 
L 356.581392 -100.606767 
L 357.640949 -100.57104 
L 358.700507 -100.545713 
L 359.760064 -100.533509 
L 360.819621 -100.53531 
L 361.879179 -100.546649 
L 362.938736 -100.571032 
L 363.998294 -100.605144 
L 365.057851 -100.647447 
L 366.117409 -100.69366 
L 367.176966 -100.741015 
L 368.236524 -100.779351 
L 369.296081 -100.810032 
L 370.355638 -100.82841 
L 371.415196 -100.828162 
L 372.474753 -100.809158 
L 373.534311 -100.769864 
L 374.593868 -100.717337 
L 375.653426 -100.645899 
L 376.712983 -100.562148 
L 377.772541 -100.46291 
L 378.832098 -100.363315 
L 379.891656 -100.261726 
L 380.951213 -100.160776 
L 382.01077 -100.066793 
L 383.070328 -99.978638 
L 384.129885 -99.901275 
L 385.189443 -99.830173 
L 386.249 -99.770241 
L 387.308558 -99.716096 
L 388.368115 -99.665909 
L 389.427673 -99.616286 
L 390.48723 -99.572415 
L 391.546788 -99.524395 
L 392.606345 -99.473749 
L 393.665902 -99.417132 
L 394.72546 -99.359353 
L 395.785017 -99.298598 
L 396.844575 -99.235508 
L 397.904132 -99.170383 
L 398.96369 -99.106934 
L 400.023247 -99.048413 
L 401.082805 -98.991841 
L 402.142362 -98.937419 
L 403.201919 -98.890236 
L 404.261477 -98.853371 
L 405.321034 -98.820743 
L 406.380592 -98.795606 
L 407.440149 -98.77821 
L 408.499707 -98.768503 
L 409.559264 -98.764826 
L 410.618822 -98.769783 
L 411.678379 -98.782695 
L 412.737937 -98.798297 
L 413.797494 -98.817498 
L 414.857051 -98.843619 
L 415.916609 -98.868973 
L 416.976166 -98.898784 
L 418.035724 -98.927903 
L 419.095281 -98.95511 
L 420.154839 -98.979075 
L 421.214396 -98.998416 
L 422.273954 -99.010419 
L 423.333511 -99.015611 
L 424.393069 -99.014059 
L 425.452626 -99.003678 
L 426.512183 -98.9841 
L 427.571741 -98.954706 
L 428.631298 -98.915967 
L 429.690856 -98.868747 
L 430.750413 -98.814277 
L 431.809971 -98.754092 
L 432.869528 -98.688599 
L 433.929086 -98.622809 
L 434.988643 -98.556607 
L 436.0482 -98.49179 
L 437.107758 -98.429933 
L 438.167315 -98.372318 
L 439.226873 -98.317196 
L 440.28643 -98.271429 
L 441.345988 -98.231255 
L 442.405545 -98.196597 
L 443.465103 -98.167046 
L 444.52466 -98.141933 
L 445.584218 -98.120414 
L 446.643775 -98.100219 
L 447.703332 -98.08223 
L 448.76289 -98.06678 
L 449.822447 -98.051241 
L 450.882005 -98.035177 
L 451.941562 -98.016998 
L 453.00112 -97.997118 
L 454.060677 -97.979987 
L 455.120235 -97.961972 
L 456.179792 -97.943559 
L 457.23935 -97.925247 
L 458.298907 -97.911577 
L 459.358464 -97.896828 
L 460.418022 -97.882878 
L 461.477579 -97.873369 
L 462.537137 -97.866763 
L 463.596694 -97.863481 
L 464.656252 -97.863874 
L 465.715809 -97.868221 
L 466.775367 -97.876723 
L 467.834924 -97.889485 
L 468.894481 -97.906496 
L 469.954039 -97.927594 
L 471.013596 -97.954474 
L 472.073154 -97.983525 
L 473.132711 -98.015429 
L 474.192269 -98.047998 
L 475.251826 -98.083365 
L 476.311384 -98.118417 
L 477.370941 -98.151999 
L 478.430499 -98.18296 
L 479.490056 -98.210238 
L 480.549613 -98.232942 
L 481.609171 -98.250413 
L 482.668728 -98.262277 
L 483.728286 -98.268446 
L 484.787843 -98.269112 
L 485.847401 -98.264698 
L 486.906958 -98.255799 
L 487.966516 -98.243102 
L 489.026073 -98.227317 
L 490.08563 -98.209112 
L 491.145188 -98.189067 
L 492.204745 -98.167652 
L 493.264303 -98.145224 
L 494.32386 -98.122047 
L 495.383418 -98.098321 
L 496.442975 -98.074216 
L 497.502533 -98.049905 
L 498.56209 -98.025591 
L 499.621648 -98.001512 
L 500.681205 -97.977946 
L 501.740762 -97.955197 
L 502.80032 -97.933572 
L 503.859877 -97.913356 
L 504.919435 -97.894794 
L 505.978992 -97.878068 
L 507.03855 -97.860606 
L 508.098107 -97.848743 
L 509.157665 -97.838497 
L 510.217222 -97.829857 
L 511.27678 -97.82274 
L 512.336337 -97.817008 
L 513.395894 -97.812492 
L 514.455452 -97.80901 
L 515.515009 -97.806382 
L 516.574567 -97.804439 
L 517.634124 -97.803032 
L 518.693682 -97.802034 
L 519.753239 -97.8 
L 520.812797 -97.8 
L 521.872354 -97.8 
L 522.931911 -97.8 
L 523.991469 -97.8 
L 525.051026 -97.8 
L 526.110584 -97.8 
L 527.170141 -97.8 
L 528.229699 -97.8 
L 529.289256 -97.8 
L 530.348814 -97.8 
L 531.408371 -97.8 
L 532.467929 -97.8 
L 533.527486 -97.8 
L 534.587043 -97.8 
L 535.646601 -97.8 
L 536.706158 -97.8 
L 537.765716 -97.8 
L 538.825273 -97.8 
L 539.884831 -97.8 
L 540.944388 -97.8 
L 542.003946 -97.8 
L 543.063503 -97.8 
L 544.123061 -97.8 
L 545.182618 -97.8 
L 546.242175 -97.8 
L 547.301733 -97.8 
L 548.36129 -97.8 
L 549.420848 -97.8 
L 550.480405 -97.8 
L 551.539963 -97.8 
L 552.59952 -97.8 
L 553.659078 -97.8 
L 554.718635 -97.8 
L 555.778192 -97.8 
L 556.83775 -97.8 
L 557.897307 -97.8 
L 558.956865 -97.8 
L 560.016422 -97.8 
L 561.07598 -97.8 
L 562.135537 -97.8 
L 563.195095 -97.8 
L 564.254652 -97.8 
L 565.31421 -97.8 
L 566.373767 -97.8 
L 567.433324 -97.8 
L 568.492882 -97.8 
L 569.552439 -97.8 
L 570.611997 -97.8 
L 571.671554 -97.802034 
L 572.731112 -97.805065 
L 573.790669 -97.807471 
L 574.850227 -97.81082 
L 575.909784 -97.815392 
L 576.969342 -97.821502 
L 578.028899 -97.8295 
L 579.088456 -97.839748 
L 580.148014 -97.852598 
L 581.207571 -97.868354 
L 582.267129 -97.88724 
L 583.326686 -97.909349 
L 584.386244 -97.934607 
L 585.445801 -97.962731 
L 586.505359 -97.993209 
L 587.564916 -98.025287 
L 588.624473 -98.057985 
L 589.684031 -98.09014 
L 590.743588 -98.120458 
L 591.803146 -98.147605 
L 592.862703 -98.170301 
L 593.922261 -98.187413 
L 594.981818 -98.198058 
L 594.981818 -97.8 
L 594.981818 -97.8 
L 593.922261 -97.8 
L 592.862703 -97.8 
L 591.803146 -97.8 
L 590.743588 -97.8 
L 589.684031 -97.8 
L 588.624473 -97.8 
L 587.564916 -97.8 
L 586.505359 -97.8 
L 585.445801 -97.8 
L 584.386244 -97.8 
L 583.326686 -97.8 
L 582.267129 -97.8 
L 581.207571 -97.8 
L 580.148014 -97.8 
L 579.088456 -97.8 
L 578.028899 -97.8 
L 576.969342 -97.8 
L 575.909784 -97.8 
L 574.850227 -97.8 
L 573.790669 -97.8 
L 572.731112 -97.8 
L 571.671554 -97.8 
L 570.611997 -97.8 
L 569.552439 -97.8 
L 568.492882 -97.8 
L 567.433324 -97.8 
L 566.373767 -97.8 
L 565.31421 -97.8 
L 564.254652 -97.8 
L 563.195095 -97.8 
L 562.135537 -97.8 
L 561.07598 -97.8 
L 560.016422 -97.8 
L 558.956865 -97.8 
L 557.897307 -97.8 
L 556.83775 -97.8 
L 555.778192 -97.8 
L 554.718635 -97.8 
L 553.659078 -97.8 
L 552.59952 -97.8 
L 551.539963 -97.8 
L 550.480405 -97.8 
L 549.420848 -97.8 
L 548.36129 -97.8 
L 547.301733 -97.8 
L 546.242175 -97.8 
L 545.182618 -97.8 
L 544.123061 -97.8 
L 543.063503 -97.8 
L 542.003946 -97.8 
L 540.944388 -97.8 
L 539.884831 -97.8 
L 538.825273 -97.8 
L 537.765716 -97.8 
L 536.706158 -97.8 
L 535.646601 -97.8 
L 534.587043 -97.8 
L 533.527486 -97.8 
L 532.467929 -97.8 
L 531.408371 -97.8 
L 530.348814 -97.8 
L 529.289256 -97.8 
L 528.229699 -97.8 
L 527.170141 -97.8 
L 526.110584 -97.8 
L 525.051026 -97.8 
L 523.991469 -97.8 
L 522.931911 -97.8 
L 521.872354 -97.8 
L 520.812797 -97.8 
L 519.753239 -97.8 
L 518.693682 -97.8 
L 517.634124 -97.8 
L 516.574567 -97.8 
L 515.515009 -97.8 
L 514.455452 -97.8 
L 513.395894 -97.8 
L 512.336337 -97.8 
L 511.27678 -97.8 
L 510.217222 -97.8 
L 509.157665 -97.8 
L 508.098107 -97.8 
L 507.03855 -97.8 
L 505.978992 -97.8 
L 504.919435 -97.8 
L 503.859877 -97.8 
L 502.80032 -97.8 
L 501.740762 -97.8 
L 500.681205 -97.8 
L 499.621648 -97.8 
L 498.56209 -97.8 
L 497.502533 -97.8 
L 496.442975 -97.8 
L 495.383418 -97.8 
L 494.32386 -97.8 
L 493.264303 -97.8 
L 492.204745 -97.8 
L 491.145188 -97.8 
L 490.08563 -97.8 
L 489.026073 -97.8 
L 487.966516 -97.8 
L 486.906958 -97.8 
L 485.847401 -97.8 
L 484.787843 -97.8 
L 483.728286 -97.8 
L 482.668728 -97.8 
L 481.609171 -97.8 
L 480.549613 -97.8 
L 479.490056 -97.8 
L 478.430499 -97.8 
L 477.370941 -97.8 
L 476.311384 -97.8 
L 475.251826 -97.8 
L 474.192269 -97.8 
L 473.132711 -97.8 
L 472.073154 -97.8 
L 471.013596 -97.8 
L 469.954039 -97.8 
L 468.894481 -97.8 
L 467.834924 -97.8 
L 466.775367 -97.8 
L 465.715809 -97.8 
L 464.656252 -97.8 
L 463.596694 -97.8 
L 462.537137 -97.8 
L 461.477579 -97.8 
L 460.418022 -97.8 
L 459.358464 -97.8 
L 458.298907 -97.8 
L 457.23935 -97.8 
L 456.179792 -97.8 
L 455.120235 -97.8 
L 454.060677 -97.8 
L 453.00112 -97.8 
L 451.941562 -97.8 
L 450.882005 -97.8 
L 449.822447 -97.8 
L 448.76289 -97.8 
L 447.703332 -97.8 
L 446.643775 -97.8 
L 445.584218 -97.8 
L 444.52466 -97.8 
L 443.465103 -97.8 
L 442.405545 -97.8 
L 441.345988 -97.8 
L 440.28643 -97.8 
L 439.226873 -97.8 
L 438.167315 -97.8 
L 437.107758 -97.8 
L 436.0482 -97.8 
L 434.988643 -97.8 
L 433.929086 -97.8 
L 432.869528 -97.8 
L 431.809971 -97.8 
L 430.750413 -97.8 
L 429.690856 -97.8 
L 428.631298 -97.8 
L 427.571741 -97.8 
L 426.512183 -97.8 
L 425.452626 -97.8 
L 424.393069 -97.8 
L 423.333511 -97.8 
L 422.273954 -97.8 
L 421.214396 -97.8 
L 420.154839 -97.8 
L 419.095281 -97.8 
L 418.035724 -97.8 
L 416.976166 -97.8 
L 415.916609 -97.8 
L 414.857051 -97.8 
L 413.797494 -97.8 
L 412.737937 -97.8 
L 411.678379 -97.8 
L 410.618822 -97.8 
L 409.559264 -97.8 
L 408.499707 -97.8 
L 407.440149 -97.8 
L 406.380592 -97.8 
L 405.321034 -97.8 
L 404.261477 -97.8 
L 403.201919 -97.8 
L 402.142362 -97.8 
L 401.082805 -97.8 
L 400.023247 -97.8 
L 398.96369 -97.8 
L 397.904132 -97.8 
L 396.844575 -97.8 
L 395.785017 -97.8 
L 394.72546 -97.8 
L 393.665902 -97.8 
L 392.606345 -97.8 
L 391.546788 -97.8 
L 390.48723 -97.8 
L 389.427673 -97.8 
L 388.368115 -97.8 
L 387.308558 -97.8 
L 386.249 -97.8 
L 385.189443 -97.8 
L 384.129885 -97.8 
L 383.070328 -97.8 
L 382.01077 -97.8 
L 380.951213 -97.8 
L 379.891656 -97.8 
L 378.832098 -97.8 
L 377.772541 -97.8 
L 376.712983 -97.8 
L 375.653426 -97.8 
L 374.593868 -97.8 
L 373.534311 -97.8 
L 372.474753 -97.8 
L 371.415196 -97.8 
L 370.355638 -97.8 
L 369.296081 -97.8 
L 368.236524 -97.8 
L 367.176966 -97.8 
L 366.117409 -97.8 
L 365.057851 -97.8 
L 363.998294 -97.8 
L 362.938736 -97.8 
L 361.879179 -97.8 
L 360.819621 -97.8 
L 359.760064 -97.8 
L 358.700507 -97.8 
L 357.640949 -97.8 
L 356.581392 -97.8 
L 355.521834 -97.8 
L 354.462277 -97.8 
L 353.402719 -97.8 
L 352.343162 -97.8 
L 351.283604 -97.8 
L 350.224047 -97.8 
L 349.164489 -97.8 
L 348.104932 -97.8 
L 347.045375 -97.8 
L 345.985817 -97.8 
L 344.92626 -97.8 
L 343.866702 -97.8 
L 342.807145 -97.8 
L 341.747587 -97.8 
L 340.68803 -97.8 
L 339.628472 -97.8 
L 338.568915 -97.8 
L 337.509358 -97.8 
L 336.4498 -97.8 
L 335.390243 -97.8 
L 334.330685 -97.8 
L 333.271128 -97.8 
L 332.21157 -97.8 
L 331.152013 -97.8 
L 330.092455 -97.8 
L 329.032898 -97.8 
L 327.97334 -97.8 
L 326.913783 -97.8 
L 325.854226 -97.8 
L 324.794668 -97.8 
L 323.735111 -97.8 
L 322.675553 -97.8 
L 321.615996 -97.8 
L 320.556438 -97.8 
L 319.496881 -97.8 
L 318.437323 -97.8 
L 317.377766 -97.8 
L 316.318208 -97.8 
L 315.258651 -97.8 
L 314.199094 -97.8 
L 313.139536 -97.8 
L 312.079979 -97.8 
L 311.020421 -97.8 
L 309.960864 -97.8 
L 308.901306 -97.8 
L 307.841749 -97.8 
L 306.782191 -97.8 
L 305.722634 -97.8 
L 304.663077 -97.8 
L 303.603519 -97.8 
L 302.543962 -97.8 
L 301.484404 -97.8 
L 300.424847 -97.8 
L 299.365289 -97.8 
L 298.305732 -97.8 
L 297.246174 -97.8 
L 296.186617 -97.8 
L 295.127059 -97.8 
L 294.067502 -97.8 
L 293.007945 -97.8 
L 291.948387 -97.8 
L 290.88883 -97.8 
L 289.829272 -97.8 
L 288.769715 -97.8 
L 287.710157 -97.8 
L 286.6506 -97.8 
L 285.591042 -97.8 
L 284.531485 -97.8 
L 283.471927 -97.8 
L 282.41237 -97.8 
L 281.352813 -97.8 
L 280.293255 -97.8 
L 279.233698 -97.8 
L 278.17414 -97.8 
L 277.114583 -97.8 
L 276.055025 -97.8 
L 274.995468 -97.8 
L 273.93591 -97.8 
L 272.876353 -97.8 
L 271.816796 -97.8 
L 270.757238 -97.8 
L 269.697681 -97.8 
L 268.638123 -97.8 
L 267.578566 -97.8 
L 266.519008 -97.8 
L 265.459451 -97.8 
L 264.399893 -97.8 
L 263.340336 -97.8 
L 262.280778 -97.8 
L 261.221221 -97.8 
L 260.161664 -97.8 
L 259.102106 -97.8 
L 258.042549 -97.8 
L 256.982991 -97.8 
L 255.923434 -97.8 
L 254.863876 -97.8 
L 253.804319 -97.8 
L 252.744761 -97.8 
L 251.685204 -97.8 
L 250.625646 -97.8 
L 249.566089 -97.8 
L 248.506532 -97.8 
L 247.446974 -97.8 
L 246.387417 -97.8 
L 245.327859 -97.8 
L 244.268302 -97.8 
L 243.208744 -97.8 
L 242.149187 -97.8 
L 241.089629 -97.8 
L 240.030072 -97.8 
L 238.970515 -97.8 
L 237.910957 -97.8 
L 236.8514 -97.8 
L 235.791842 -97.8 
L 234.732285 -97.8 
L 233.672727 -97.8 
L 232.61317 -97.8 
L 231.553612 -97.8 
L 230.494055 -97.8 
L 229.434497 -97.8 
L 228.37494 -97.8 
L 227.315383 -97.8 
L 226.255825 -97.8 
L 225.196268 -97.8 
L 224.13671 -97.8 
L 223.077153 -97.8 
L 222.017595 -97.8 
L 220.958038 -97.8 
L 219.89848 -97.8 
L 218.838923 -97.8 
L 217.779366 -97.8 
L 216.719808 -97.8 
L 215.660251 -97.8 
L 214.600693 -97.8 
L 213.541136 -97.8 
L 212.481578 -97.8 
L 211.422021 -97.8 
L 210.362463 -97.8 
L 209.302906 -97.8 
L 208.243348 -97.8 
L 207.183791 -97.8 
L 206.124234 -97.8 
L 205.064676 -97.8 
L 204.005119 -97.8 
L 202.945561 -97.8 
L 201.886004 -97.8 
L 200.826446 -97.8 
L 199.766889 -97.8 
L 198.707331 -97.8 
L 197.647774 -97.8 
L 196.588216 -97.8 
L 195.528659 -97.8 
L 194.469102 -97.8 
L 193.409544 -97.8 
L 192.349987 -97.8 
L 191.290429 -97.8 
L 190.230872 -97.8 
L 189.171314 -97.8 
L 188.111757 -97.8 
L 187.052199 -97.8 
L 185.992642 -97.8 
L 184.933085 -97.8 
L 183.873527 -97.8 
L 182.81397 -97.8 
L 181.754412 -97.8 
L 180.694855 -97.8 
L 179.635297 -97.8 
L 178.57574 -97.8 
L 177.516182 -97.8 
L 176.456625 -97.8 
L 175.397067 -97.8 
L 174.33751 -97.8 
L 173.277953 -97.8 
L 172.218395 -97.8 
L 171.158838 -97.8 
L 170.09928 -97.8 
L 169.039723 -97.8 
L 167.980165 -97.8 
L 166.920608 -97.8 
L 165.86105 -97.8 
L 164.801493 -97.8 
L 163.741935 -97.8 
L 162.682378 -97.8 
L 161.622821 -97.8 
L 160.563263 -97.8 
L 159.503706 -97.8 
L 158.444148 -97.8 
L 157.384591 -97.8 
L 156.325033 -97.8 
L 155.265476 -97.8 
L 154.205918 -97.8 
L 153.146361 -97.8 
L 152.086804 -97.8 
L 151.027246 -97.8 
L 149.967689 -97.8 
L 148.908131 -97.8 
L 147.848574 -97.8 
L 146.789016 -97.8 
L 145.729459 -97.8 
L 144.669901 -97.8 
L 143.610344 -97.8 
L 142.550786 -97.8 
L 141.491229 -97.8 
L 140.431672 -97.8 
L 139.372114 -97.8 
L 138.312557 -97.8 
L 137.252999 -97.8 
L 136.193442 -97.8 
L 135.133884 -97.8 
L 134.074327 -97.8 
L 133.014769 -97.8 
L 131.955212 -97.8 
L 130.895654 -97.8 
L 129.836097 -97.8 
L 128.77654 -97.8 
L 127.716982 -97.8 
L 126.657425 -97.8 
L 125.597867 -97.8 
L 124.53831 -97.8 
L 123.478752 -97.8 
L 122.419195 -97.8 
L 121.359637 -97.8 
L 120.30008 -97.8 
L 119.240523 -97.8 
L 118.180965 -97.8 
L 117.121408 -97.8 
L 116.06185 -97.8 
L 115.002293 -97.8 
L 113.942735 -97.8 
L 112.883178 -97.8 
L 111.82362 -97.8 
L 110.764063 -97.8 
L 109.704505 -97.8 
L 108.644948 -97.8 
L 107.585391 -97.8 
L 106.525833 -97.8 
L 105.466276 -97.8 
L 104.406718 -97.8 
L 103.347161 -97.8 
L 102.287603 -97.8 
L 101.228046 -97.8 
L 100.168488 -97.8 
L 99.108931 -97.8 
L 98.049374 -97.8 
L 96.989816 -97.8 
L 95.930259 -97.8 
L 94.870701 -97.8 
L 93.811144 -97.8 
L 92.751586 -97.8 
L 91.692029 -97.8 
L 90.632471 -97.8 
L 89.572914 -97.8 
L 88.513356 -97.8 
L 87.453799 -97.8 
L 86.394242 -97.8 
L 85.334684 -97.8 
L 84.275127 -97.8 
L 83.215569 -97.8 
L 82.156012 -97.8 
L 81.096454 -97.8 
L 80.036897 -97.8 
L 78.977339 -97.8 
L 77.917782 -97.8 
L 76.858224 -97.8 
L 75.798667 -97.8 
L 74.73911 -97.8 
L 73.679552 -97.8 
L 72.619995 -97.8 
L 71.560437 -97.8 
L 70.50088 -97.8 
L 69.441322 -97.8 
L 68.381765 -97.8 
L 67.322207 -97.8 
L 66.26265 -97.8 
L 65.203093 -97.8 
L 64.143535 -97.8 
L 63.083978 -97.8 
L 62.02442 -97.8 
L 60.964863 -97.8 
L 59.905305 -97.8 
L 58.845748 -97.8 
L 57.78619 -97.8 
L 56.726633 -97.8 
L 55.667075 -97.8 
L 54.607518 -97.8 
L 53.547961 -97.8 
z
"/>
    </defs>
    <g clip-path="url(#p01cf626dbf)">
     <use xlink:href="#mc5b14f575f" x="0" y="504" style="fill: #7570b3; fill-opacity: 0.35"/>
    </g>
   </g>
   <g id="line2d_8">
    <path d="M 53.547961 114.2 
L 54.607518 114.440174 
L 55.667075 115.205372 
L 56.726633 116.480288 
L 57.78619 118.227738 
L 58.845748 120.400764 
L 59.905305 122.975002 
L 62.02442 129.039367 
L 64.143535 136.16706 
L 67.322207 147.96096 
L 75.798667 180.570974 
L 78.977339 191.728762 
L 83.215569 205.547369 
L 89.572914 225.491337 
L 92.751586 234.86721 
L 94.870701 240.615163 
L 96.989816 245.94633 
L 100.168488 253.200111 
L 107.585391 269.636195 
L 111.82362 279.951237 
L 117.121408 293.133854 
L 120.30008 300.484979 
L 123.478752 307.094302 
L 125.597867 311.040598 
L 127.716982 314.633725 
L 129.836097 317.86387 
L 131.955212 320.768876 
L 134.074327 323.315219 
L 137.252999 326.69108 
L 140.431672 329.635382 
L 144.669901 333.410324 
L 146.789016 335.460287 
L 149.967689 338.863638 
L 153.146361 342.52369 
L 156.325033 346.170797 
L 158.444148 348.395503 
L 160.563263 350.31713 
L 162.682378 351.894863 
L 164.801493 353.125656 
L 166.920608 354.097111 
L 171.158838 355.628303 
L 175.397067 357.18727 
L 178.57574 358.627727 
L 181.754412 360.34085 
L 183.873527 361.690967 
L 185.992642 363.255812 
L 188.111757 365.054598 
L 191.290429 368.173047 
L 196.588216 373.650346 
L 198.707331 375.563377 
L 200.826446 377.166075 
L 202.945561 378.445007 
L 205.064676 379.438476 
L 208.243348 380.606983 
L 224.13671 385.770413 
L 228.37494 387.073756 
L 232.61317 388.58801 
L 236.8514 390.06808 
L 240.030072 390.90732 
L 243.208744 391.501274 
L 250.625646 392.670773 
L 253.804319 393.429739 
L 256.982991 394.431405 
L 265.459451 397.308369 
L 267.578566 397.803515 
L 269.697681 398.121738 
L 271.816796 398.267577 
L 274.995468 398.220716 
L 282.41237 397.836168 
L 285.591042 397.959526 
L 288.769715 398.378071 
L 291.948387 399.020723 
L 298.305732 400.466701 
L 301.484404 400.957053 
L 304.663077 401.205588 
L 309.960864 401.300434 
L 316.318208 401.428106 
L 321.615996 401.804646 
L 335.390243 403.089963 
L 340.68803 403.067896 
L 347.045375 403.017693 
L 353.402719 403.250581 
L 359.760064 403.466491 
L 365.057851 403.352553 
L 371.415196 403.171838 
L 375.653426 403.354101 
L 390.48723 404.427585 
L 410.618822 405.230217 
L 428.631298 405.084033 
L 437.107758 405.570067 
L 443.465103 405.832954 
L 459.358464 406.103172 
L 467.834924 406.110515 
L 477.370941 405.848001 
L 484.787843 405.730888 
L 494.32386 405.877953 
L 512.336337 406.182992 
L 542.003946 406.2 
L 583.326686 406.090651 
L 594.981818 405.801942 
L 594.981818 405.801942 
" clip-path="url(#p01cf626dbf)" style="fill: none; stroke: #7570b3; stroke-width: 1.5; stroke-linecap: round"/>
   </g>
   <g id="line2d_9">
    <path d="M 53.018182 400.068 
L 193.831894 400.068 
" clip-path="url(#p01cf626dbf)" style="fill: none; stroke: #7570b3; stroke-width: 3.5; stroke-linecap: round"/>
   </g>
   <g id="patch_3">
    <path d="M 25.92 420.8 
L 622.08 420.8 
" style="fill: none; stroke: #333333; stroke-width: 1.5; stroke-linejoin: miter; stroke-linecap: square"/>
   </g>
   <g id="text_3">
    <!-- $\sigma$ -->
    <g style="fill: #262626" transform="translate(299.68 83.794375)">
     <text>
      <tspan x="0" y="-0.40625" style="font-style: oblique; font-size: 76px; font-family: 'DejaVu Sans'; fill: #262626">σ</tspan>
     </text>
    </g>
   </g>
  </g>
 </g>
 <defs>
  <clipPath id="p01cf626dbf">
   <rect x="25.92" y="99.6" width="596.16" height="321.2"/>
  </clipPath>
 </defs>
</svg>
