<?xml version="1.0" encoding="utf-8" standalone="no"?>
<!DOCTYPE svg PUBLIC "-//W3C//DTD SVG 1.1//EN"
  "http://www.w3.org/Graphics/SVG/1.1/DTD/svg11.dtd">
<svg xmlns:xlink="http://www.w3.org/1999/xlink" width="648pt" height="504pt" viewBox="0 0 648 504" xmlns="http://www.w3.org/2000/svg" version="1.1">
 <metadata>
  <rdf:RDF xmlns:dc="http://purl.org/dc/elements/1.1/" xmlns:cc="http://creativecommons.org/ns#" xmlns:rdf="http://www.w3.org/1999/02/22-rdf-syntax-ns#">
   <cc:Work>
    <dc:type rdf:resource="http://purl.org/dc/dcmitype/StillImage"/>
    <dc:date>2026-02-22T16:15:36.885464</dc:date>
    <dc:format>image/svg+xml</dc:format>
    <dc:creator>
     <cc:Agent>
      <dc:title>Matplotlib v3.10.6, https://matplotlib.org/</dc:title>
     </cc:Agent>
    </dc:creator>
   </cc:Work>
  </rdf:RDF>
 </metadata>
 <defs>
  <style type="text/css">*{stroke-linejoin: round; stroke-linecap: butt}</style>
 </defs>
 <g id="figure_1">
  <g id="patch_1">
   <path d="M 0 504 
L 648 504 
L 648 0 
L 0 0 
L 0 504 
z
" style="fill: none; opacity: 0"/>
  </g>
  <g id="axes_1">
   <g id="patch_2">
    <path d="M 25.92 420.8 
L 622.08 420.8 
L 622.08 115.932 
L 25.92 115.932 
L 25.92 420.8 
z
" style="fill: none"/>
   </g>
   <g id="matplotlib.axis_1">
    <g id="xtick_1">
     <g id="line2d_1">
      <path d="M 171.614585 420.8 
L 171.614585 115.932 
" clip-path="url(#pd2119e12a5)" style="fill: none; stroke: #ffffff; stroke-opacity: 0.4; stroke-linecap: round"/>
     </g>
     <g id="line2d_2"/>
     <g id="text_1">
      <text style="font-size: 52px; font-family: 'DejaVu Serif', 'Times New Roman', serif; text-anchor: middle; fill: #262626" x="171.614585" y="467.311875" transform="rotate(-0 171.614585 467.311875)">−10</text>
     </g>
    </g>
    <g id="xtick_2">
     <g id="line2d_3">
      <path d="M 343.810508 420.8 
L 343.810508 115.932 
" clip-path="url(#pd2119e12a5)" style="fill: none; stroke: #ffffff; stroke-opacity: 0.4; stroke-linecap: round"/>
     </g>
     <g id="line2d_4"/>
     <g id="text_2">
      <text style="font-size: 52px; font-family: 'DejaVu Serif', 'Times New Roman', serif; text-anchor: middle; fill: #262626" x="343.810508" y="467.311875" transform="rotate(-0 343.810508 467.311875)">0</text>
     </g>
    </g>
    <g id="xtick_3">
     <g id="line2d_5">
      <path d="M 516.006431 420.8 
L 516.006431 115.932 
" clip-path="url(#pd2119e12a5)" style="fill: none; stroke: #ffffff; stroke-opacity: 0.4; stroke-linecap: round"/>
     </g>
     <g id="line2d_6"/>
     <g id="text_3">
      <text style="font-size: 52px; font-family: 'DejaVu Serif', 'Times New Roman', serif; text-anchor: middle; fill: #262626" x="516.006431" y="467.311875" transform="rotate(-0 516.006431 467.311875)">10</text>
     </g>
    </g>
   </g>
   <g id="matplotlib.axis_2">
    <g id="ytick_1">
     <g id="line2d_7">
      <path d="M 25.92 406.942364 
L 622.08 406.942364 
" clip-path="url(#pd2119e12a5)" style="fill: none; stroke: #ffffff; stroke-opacity: 0.4; stroke-linecap: round"/>
     </g>
    </g>
    <g id="ytick_2">
     <g id="line2d_8">
      <path d="M 25.92 252.48039 
L 622.08 252.48039 
" clip-path="url(#pd2119e12a5)" style="fill: none; stroke: #ffffff; stroke-opacity: 0.4; stroke-linecap: round"/>
     </g>
    </g>
   </g>
   <g id="FillBetweenPolyCollection_1">
    <defs>
     <path id="m342e1bc0f4" d="M 53.018182 -97.057636 
L 53.018182 -98.413762 
L 54.078776 -98.412684 
L 55.13937 -98.40946 
L 56.199964 -98.404127 
L 57.260559 -98.399319 
L 58.321153 -98.390633 
L 59.381747 -98.380213 
L 60.442341 -98.368191 
L 61.502935 -98.354705 
L 62.56353 -98.339899 
L 63.624124 -98.323915 
L 64.684718 -98.306891 
L 65.745312 -98.288959 
L 66.805906 -98.270235 
L 67.866501 -98.253401 
L 68.927095 -98.234066 
L 69.987689 -98.212329 
L 71.048283 -98.192776 
L 72.108877 -98.172926 
L 73.169472 -98.152865 
L 74.230066 -98.130639 
L 75.29066 -98.113402 
L 76.351254 -98.096764 
L 77.411848 -98.07839 
L 78.472443 -98.063031 
L 79.533037 -98.048934 
L 80.593631 -98.033837 
L 81.654225 -98.022569 
L 82.714819 -98.016043 
L 83.775414 -98.012757 
L 84.836008 -98.008148 
L 85.896602 -98.00925 
L 86.957196 -98.014572 
L 88.01779 -98.020078 
L 89.078385 -98.032772 
L 90.138979 -98.050567 
L 91.199573 -98.07394 
L 92.260167 -98.103344 
L 93.320761 -98.139203 
L 94.381356 -98.18447 
L 95.44195 -98.237565 
L 96.502544 -98.296865 
L 97.563138 -98.362618 
L 98.623732 -98.441541 
L 99.684327 -98.52668 
L 100.744921 -98.625245 
L 101.805515 -98.730756 
L 102.866109 -98.845201 
L 103.926703 -98.968432 
L 104.987298 -99.097623 
L 106.047892 -99.23487 
L 107.108486 -99.382162 
L 108.16908 -99.533783 
L 109.229674 -99.693556 
L 110.290269 -99.856105 
L 111.350863 -100.030225 
L 112.411457 -100.201422 
L 113.472051 -100.379895 
L 114.532645 -100.555595 
L 115.59324 -100.739251 
L 116.653834 -100.926673 
L 117.714428 -101.105062 
L 118.775022 -101.281721 
L 119.835616 -101.453875 
L 120.896211 -101.630531 
L 121.956805 -101.8022 
L 123.017399 -101.968086 
L 124.077993 -102.127954 
L 125.138587 -102.286182 
L 126.199182 -102.445349 
L 127.259776 -102.601742 
L 128.32037 -102.755825 
L 129.380964 -102.908172 
L 130.441558 -103.064594 
L 131.502153 -103.222009 
L 132.562747 -103.373752 
L 133.623341 -103.526677 
L 134.683935 -103.67895 
L 135.744529 -103.835761 
L 136.805124 -103.998279 
L 137.865718 -104.172878 
L 138.926312 -104.351866 
L 139.986906 -104.535538 
L 141.0475 -104.726606 
L 142.108095 -104.925701 
L 143.168689 -105.141142 
L 144.229283 -105.358007 
L 145.289877 -105.582328 
L 146.350471 -105.828826 
L 147.411066 -106.083136 
L 148.47166 -106.355243 
L 149.532254 -106.63958 
L 150.592848 -106.92892 
L 151.653442 -107.239753 
L 152.714037 -107.574744 
L 153.774631 -107.931848 
L 154.835225 -108.29584 
L 155.895819 -108.680025 
L 156.956413 -109.095303 
L 158.017008 -109.527424 
L 159.077602 -109.98888 
L 160.138196 -110.474449 
L 161.19879 -110.987379 
L 162.259384 -111.531872 
L 163.319979 -112.112653 
L 164.380573 -112.723689 
L 165.441167 -113.370451 
L 166.501761 -114.041924 
L 167.562355 -114.758644 
L 168.62295 -115.495369 
L 169.683544 -116.275068 
L 170.744138 -117.092293 
L 171.804732 -117.94336 
L 172.865326 -118.821759 
L 173.925921 -119.725623 
L 174.986515 -120.666944 
L 176.047109 -121.627683 
L 177.107703 -122.609122 
L 178.168297 -123.618415 
L 179.228892 -124.652147 
L 180.289486 -125.709047 
L 181.35008 -126.783425 
L 182.410674 -127.868546 
L 183.471268 -128.971363 
L 184.531863 -130.080214 
L 185.592457 -131.197185 
L 186.653051 -132.325618 
L 187.713645 -133.447743 
L 188.774239 -134.580266 
L 189.834834 -135.71798 
L 190.895428 -136.845196 
L 191.956022 -137.980692 
L 193.016616 -139.121004 
L 194.07721 -140.254839 
L 195.137805 -141.382408 
L 196.198399 -142.528101 
L 197.258993 -143.679041 
L 198.319587 -144.825113 
L 199.380181 -145.972748 
L 200.440776 -147.126913 
L 201.50137 -148.284107 
L 202.561964 -149.445375 
L 203.622558 -150.608152 
L 204.683152 -151.79813 
L 205.743747 -153.000985 
L 206.804341 -154.216292 
L 207.864935 -155.436396 
L 208.925529 -156.665842 
L 209.986123 -157.918576 
L 211.046718 -159.192045 
L 212.107312 -160.480654 
L 213.167906 -161.783152 
L 214.2285 -163.117984 
L 215.289094 -164.455278 
L 216.349689 -165.816296 
L 217.410283 -167.213445 
L 218.470877 -168.631032 
L 219.531471 -170.0512 
L 220.592065 -171.492994 
L 221.65266 -172.981992 
L 222.713254 -174.484032 
L 223.773848 -175.992877 
L 224.834442 -177.519548 
L 225.895036 -179.073939 
L 226.955631 -180.648225 
L 228.016225 -182.241189 
L 229.076819 -183.844362 
L 230.137413 -185.487491 
L 231.198007 -187.126398 
L 232.258602 -188.808293 
L 233.319196 -190.487262 
L 234.37979 -192.197644 
L 235.440384 -193.919202 
L 236.500978 -195.652805 
L 237.561573 -197.424725 
L 238.622167 -199.19898 
L 239.682761 -200.993288 
L 240.743355 -202.781939 
L 241.803949 -204.618006 
L 242.864544 -206.462623 
L 243.925138 -208.303212 
L 244.985732 -210.16888 
L 246.046326 -212.030923 
L 247.10692 -213.918781 
L 248.167515 -215.819612 
L 249.228109 -217.7473 
L 250.288703 -219.686715 
L 251.349297 -221.634032 
L 252.409891 -223.607691 
L 253.470486 -225.606717 
L 254.53108 -227.602707 
L 255.591674 -229.649247 
L 256.652268 -231.698593 
L 257.712862 -233.770583 
L 258.773457 -235.849441 
L 259.834051 -237.965667 
L 260.894645 -240.116812 
L 261.955239 -242.263303 
L 263.015833 -244.446942 
L 264.076428 -246.635828 
L 265.137022 -248.85511 
L 266.197616 -251.091546 
L 267.25821 -253.329811 
L 268.318804 -255.591044 
L 269.379399 -257.84322 
L 270.439993 -260.119292 
L 271.500587 -262.432767 
L 272.561181 -264.73383 
L 273.621775 -267.019204 
L 274.68237 -269.316644 
L 275.742964 -271.577814 
L 276.803558 -273.86066 
L 277.864152 -276.121685 
L 278.924746 -278.375144 
L 279.985341 -280.636665 
L 281.045935 -282.899279 
L 282.106529 -285.146195 
L 283.167123 -287.371623 
L 284.227717 -289.569435 
L 285.288312 -291.75664 
L 286.348906 -293.958353 
L 287.4095 -296.121716 
L 288.470094 -298.27852 
L 289.530688 -300.440223 
L 290.591283 -302.585835 
L 291.651877 -304.689785 
L 292.712471 -306.798534 
L 293.773065 -308.844483 
L 294.833659 -310.913338 
L 295.894254 -312.970772 
L 296.954848 -314.981931 
L 298.015442 -316.949515 
L 299.076036 -318.913283 
L 300.13663 -320.873861 
L 301.197225 -322.799696 
L 302.257819 -324.71585 
L 303.318413 -326.578514 
L 304.379007 -328.398852 
L 305.439601 -330.21119 
L 306.500196 -332.025072 
L 307.56079 -333.794752 
L 308.621384 -335.521823 
L 309.681978 -337.221928 
L 310.742572 -338.910404 
L 311.803167 -340.558932 
L 312.863761 -342.192465 
L 313.924355 -343.768106 
L 314.984949 -345.323116 
L 316.045543 -346.859947 
L 317.106138 -348.337005 
L 318.166732 -349.805981 
L 319.227326 -351.210502 
L 320.28792 -352.611184 
L 321.348514 -353.962547 
L 322.409109 -355.278773 
L 323.469703 -356.58719 
L 324.530297 -357.821636 
L 325.590891 -359.032688 
L 326.651486 -360.162543 
L 327.71208 -361.277239 
L 328.772674 -362.32273 
L 329.833268 -363.321493 
L 330.893862 -364.310275 
L 331.954457 -365.211273 
L 333.015051 -366.090775 
L 334.075645 -366.898078 
L 335.136239 -367.674589 
L 336.196833 -368.385253 
L 337.257428 -369.045829 
L 338.318022 -369.70175 
L 339.378616 -370.311737 
L 340.43921 -370.887473 
L 341.499804 -371.418501 
L 342.560399 -371.884437 
L 343.620993 -372.331841 
L 344.681587 -372.736917 
L 345.742181 -373.110718 
L 346.802775 -373.432691 
L 347.86337 -373.706727 
L 348.923964 -373.936214 
L 349.984558 -374.096245 
L 351.045152 -374.185981 
L 352.105746 -374.210364 
L 353.166341 -374.164923 
L 354.226935 -374.036634 
L 355.287529 -373.800157 
L 356.348123 -373.502198 
L 357.408717 -373.099191 
L 358.469312 -372.57732 
L 359.529906 -371.94819 
L 360.5905 -371.253406 
L 361.651094 -370.449686 
L 362.711688 -369.5411 
L 363.772283 -368.491897 
L 364.832877 -367.358284 
L 365.893471 -366.103929 
L 366.954065 -364.751683 
L 368.014659 -363.317702 
L 369.075254 -361.811846 
L 370.135848 -360.214553 
L 371.196442 -358.588587 
L 372.257036 -356.896525 
L 373.31763 -355.15254 
L 374.378225 -353.400051 
L 375.438819 -351.604806 
L 376.499413 -349.798064 
L 377.560007 -348.009453 
L 378.620601 -346.236871 
L 379.681196 -344.465013 
L 380.74179 -342.752207 
L 381.802384 -341.027936 
L 382.862978 -339.350392 
L 383.923572 -337.710406 
L 384.984167 -336.117834 
L 386.044761 -334.550554 
L 387.105355 -332.999707 
L 388.165949 -331.484191 
L 389.226543 -329.987393 
L 390.287138 -328.538925 
L 391.347732 -327.103217 
L 392.408326 -325.66572 
L 393.46892 -324.228802 
L 394.529514 -322.800956 
L 395.590109 -321.360115 
L 396.650703 -319.908709 
L 397.711297 -318.425042 
L 398.771891 -316.923247 
L 399.832485 -315.374568 
L 400.89308 -313.82054 
L 401.953674 -312.214814 
L 403.014268 -310.564725 
L 404.074862 -308.868796 
L 405.135456 -307.118221 
L 406.196051 -305.325926 
L 407.256645 -303.461953 
L 408.317239 -301.560105 
L 409.377833 -299.616016 
L 410.438427 -297.608174 
L 411.499022 -295.557052 
L 412.559616 -293.459869 
L 413.62021 -291.353594 
L 414.680804 -289.183342 
L 415.741398 -286.956355 
L 416.801993 -284.71209 
L 417.862587 -282.373782 
L 418.923181 -280.024579 
L 419.983775 -277.620525 
L 421.044369 -275.174192 
L 422.104964 -272.669665 
L 423.165558 -270.129044 
L 424.226152 -267.56112 
L 425.286746 -264.926418 
L 426.34734 -262.250203 
L 427.407935 -259.546697 
L 428.468529 -256.82326 
L 429.529123 -254.071625 
L 430.589717 -251.274287 
L 431.650311 -248.4657 
L 432.710906 -245.632038 
L 433.7715 -242.788835 
L 434.832094 -239.933837 
L 435.892688 -237.084865 
L 436.953282 -234.248916 
L 438.013877 -231.439969 
L 439.074471 -228.63183 
L 440.135065 -225.847907 
L 441.195659 -223.125113 
L 442.256253 -220.446353 
L 443.316848 -217.813308 
L 444.377442 -215.216438 
L 445.438036 -212.676203 
L 446.49863 -210.209931 
L 447.559224 -207.781928 
L 448.619819 -205.421307 
L 449.680413 -203.15045 
L 450.741007 -200.937249 
L 451.801601 -198.789517 
L 452.862195 -196.707744 
L 453.92279 -194.684485 
L 454.983384 -192.728474 
L 456.043978 -190.83305 
L 457.104572 -189.000364 
L 458.165166 -187.204299 
L 459.225761 -185.466491 
L 460.286355 -183.774757 
L 461.346949 -182.118667 
L 462.407543 -180.512906 
L 463.468137 -178.928165 
L 464.528732 -177.367102 
L 465.589326 -175.848301 
L 466.64992 -174.355566 
L 467.710514 -172.894012 
L 468.771108 -171.452464 
L 469.831703 -170.032405 
L 470.892297 -168.651799 
L 471.952891 -167.288113 
L 473.013485 -165.948776 
L 474.074079 -164.62856 
L 475.134674 -163.347551 
L 476.195268 -162.112787 
L 477.255862 -160.890276 
L 478.316456 -159.692868 
L 479.37705 -158.526376 
L 480.437645 -157.401532 
L 481.498239 -156.308226 
L 482.558833 -155.244551 
L 483.619427 -154.228962 
L 484.680021 -153.246255 
L 485.740616 -152.289894 
L 486.80121 -151.368515 
L 487.861804 -150.476577 
L 488.922398 -149.610039 
L 489.982992 -148.759657 
L 491.043587 -147.937802 
L 492.104181 -147.149105 
L 493.164775 -146.364406 
L 494.225369 -145.591791 
L 495.285963 -144.818865 
L 496.346558 -144.044677 
L 497.407152 -143.273324 
L 498.467746 -142.515228 
L 499.52834 -141.733924 
L 500.588934 -140.930686 
L 501.649529 -140.121438 
L 502.710123 -139.304402 
L 503.770717 -138.44925 
L 504.831311 -137.60297 
L 505.891905 -136.733455 
L 506.9525 -135.832723 
L 508.013094 -134.924429 
L 509.073688 -133.995879 
L 510.134282 -133.054216 
L 511.194876 -132.088669 
L 512.255471 -131.115355 
L 513.316065 -130.136981 
L 514.376659 -129.147927 
L 515.437253 -128.167466 
L 516.497847 -127.184669 
L 517.558442 -126.213454 
L 518.619036 -125.241997 
L 519.67963 -124.293117 
L 520.740224 -123.349089 
L 521.800818 -122.424821 
L 522.861413 -121.527734 
L 523.922007 -120.648565 
L 524.982601 -119.799112 
L 526.043195 -118.964993 
L 527.103789 -118.160682 
L 528.164384 -117.373957 
L 529.224978 -116.624064 
L 530.285572 -115.89098 
L 531.346166 -115.19072 
L 532.40676 -114.524399 
L 533.467355 -113.888114 
L 534.527949 -113.274456 
L 535.588543 -112.679377 
L 536.649137 -112.10704 
L 537.709731 -111.564946 
L 538.770326 -111.047071 
L 539.83092 -110.548009 
L 540.891514 -110.056677 
L 541.952108 -109.584932 
L 543.012702 -109.141909 
L 544.073297 -108.720356 
L 545.133891 -108.314378 
L 546.194485 -107.927861 
L 547.255079 -107.545022 
L 548.315673 -107.181257 
L 549.376268 -106.834757 
L 550.436862 -106.493799 
L 551.497456 -106.171402 
L 552.55805 -105.861968 
L 553.618644 -105.561101 
L 554.679239 -105.2704 
L 555.739833 -104.990926 
L 556.800427 -104.713688 
L 557.861021 -104.44779 
L 558.921615 -104.194206 
L 559.98221 -103.941964 
L 561.042804 -103.706345 
L 562.103398 -103.470327 
L 563.163992 -103.239206 
L 564.224586 -103.023221 
L 565.285181 -102.814125 
L 566.345775 -102.609479 
L 567.406369 -102.405888 
L 568.466963 -102.208429 
L 569.527557 -102.018564 
L 570.588152 -101.827738 
L 571.648746 -101.652165 
L 572.70934 -101.481854 
L 573.769934 -101.315096 
L 574.830528 -101.152651 
L 575.891123 -100.996671 
L 576.951717 -100.853918 
L 578.012311 -100.713063 
L 579.072905 -100.574853 
L 580.133499 -100.448463 
L 581.194094 -100.332032 
L 582.254688 -100.223802 
L 583.315282 -100.120913 
L 584.375876 -100.021449 
L 585.43647 -99.935025 
L 586.497065 -99.856561 
L 587.557659 -99.790161 
L 588.618253 -99.729417 
L 589.678847 -99.676439 
L 590.739441 -99.635879 
L 591.800036 -99.59471 
L 592.86063 -99.566537 
L 593.921224 -99.546224 
L 594.981818 -99.531193 
L 594.981818 -97.057636 
L 594.981818 -97.057636 
L 593.921224 -97.057636 
L 592.86063 -97.057636 
L 591.800036 -97.057636 
L 590.739441 -97.057636 
L 589.678847 -97.057636 
L 588.618253 -97.057636 
L 587.557659 -97.057636 
L 586.497065 -97.057636 
L 585.43647 -97.057636 
L 584.375876 -97.057636 
L 583.315282 -97.057636 
L 582.254688 -97.057636 
L 581.194094 -97.057636 
L 580.133499 -97.057636 
L 579.072905 -97.057636 
L 578.012311 -97.057636 
L 576.951717 -97.057636 
L 575.891123 -97.057636 
L 574.830528 -97.057636 
L 573.769934 -97.057636 
L 572.70934 -97.057636 
L 571.648746 -97.057636 
L 570.588152 -97.057636 
L 569.527557 -97.057636 
L 568.466963 -97.057636 
L 567.406369 -97.057636 
L 566.345775 -97.057636 
L 565.285181 -97.057636 
L 564.224586 -97.057636 
L 563.163992 -97.057636 
L 562.103398 -97.057636 
L 561.042804 -97.057636 
L 559.98221 -97.057636 
L 558.921615 -97.057636 
L 557.861021 -97.057636 
L 556.800427 -97.057636 
L 555.739833 -97.057636 
L 554.679239 -97.057636 
L 553.618644 -97.057636 
L 552.55805 -97.057636 
L 551.497456 -97.057636 
L 550.436862 -97.057636 
L 549.376268 -97.057636 
L 548.315673 -97.057636 
L 547.255079 -97.057636 
L 546.194485 -97.057636 
L 545.133891 -97.057636 
L 544.073297 -97.057636 
L 543.012702 -97.057636 
L 541.952108 -97.057636 
L 540.891514 -97.057636 
L 539.83092 -97.057636 
L 538.770326 -97.057636 
L 537.709731 -97.057636 
L 536.649137 -97.057636 
L 535.588543 -97.057636 
L 534.527949 -97.057636 
L 533.467355 -97.057636 
L 532.40676 -97.057636 
L 531.346166 -97.057636 
L 530.285572 -97.057636 
L 529.224978 -97.057636 
L 528.164384 -97.057636 
L 527.103789 -97.057636 
L 526.043195 -97.057636 
L 524.982601 -97.057636 
L 523.922007 -97.057636 
L 522.861413 -97.057636 
L 521.800818 -97.057636 
L 520.740224 -97.057636 
L 519.67963 -97.057636 
L 518.619036 -97.057636 
L 517.558442 -97.057636 
L 516.497847 -97.057636 
L 515.437253 -97.057636 
L 514.376659 -97.057636 
L 513.316065 -97.057636 
L 512.255471 -97.057636 
L 511.194876 -97.057636 
L 510.134282 -97.057636 
L 509.073688 -97.057636 
L 508.013094 -97.057636 
L 506.9525 -97.057636 
L 505.891905 -97.057636 
L 504.831311 -97.057636 
L 503.770717 -97.057636 
L 502.710123 -97.057636 
L 501.649529 -97.057636 
L 500.588934 -97.057636 
L 499.52834 -97.057636 
L 498.467746 -97.057636 
L 497.407152 -97.057636 
L 496.346558 -97.057636 
L 495.285963 -97.057636 
L 494.225369 -97.057636 
L 493.164775 -97.057636 
L 492.104181 -97.057636 
L 491.043587 -97.057636 
L 489.982992 -97.057636 
L 488.922398 -97.057636 
L 487.861804 -97.057636 
L 486.80121 -97.057636 
L 485.740616 -97.057636 
L 484.680021 -97.057636 
L 483.619427 -97.057636 
L 482.558833 -97.057636 
L 481.498239 -97.057636 
L 480.437645 -97.057636 
L 479.37705 -97.057636 
L 478.316456 -97.057636 
L 477.255862 -97.057636 
L 476.195268 -97.057636 
L 475.134674 -97.057636 
L 474.074079 -97.057636 
L 473.013485 -97.057636 
L 471.952891 -97.057636 
L 470.892297 -97.057636 
L 469.831703 -97.057636 
L 468.771108 -97.057636 
L 467.710514 -97.057636 
L 466.64992 -97.057636 
L 465.589326 -97.057636 
L 464.528732 -97.057636 
L 463.468137 -97.057636 
L 462.407543 -97.057636 
L 461.346949 -97.057636 
L 460.286355 -97.057636 
L 459.225761 -97.057636 
L 458.165166 -97.057636 
L 457.104572 -97.057636 
L 456.043978 -97.057636 
L 454.983384 -97.057636 
L 453.92279 -97.057636 
L 452.862195 -97.057636 
L 451.801601 -97.057636 
L 450.741007 -97.057636 
L 449.680413 -97.057636 
L 448.619819 -97.057636 
L 447.559224 -97.057636 
L 446.49863 -97.057636 
L 445.438036 -97.057636 
L 444.377442 -97.057636 
L 443.316848 -97.057636 
L 442.256253 -97.057636 
L 441.195659 -97.057636 
L 440.135065 -97.057636 
L 439.074471 -97.057636 
L 438.013877 -97.057636 
L 436.953282 -97.057636 
L 435.892688 -97.057636 
L 434.832094 -97.057636 
L 433.7715 -97.057636 
L 432.710906 -97.057636 
L 431.650311 -97.057636 
L 430.589717 -97.057636 
L 429.529123 -97.057636 
L 428.468529 -97.057636 
L 427.407935 -97.057636 
L 426.34734 -97.057636 
L 425.286746 -97.057636 
L 424.226152 -97.057636 
L 423.165558 -97.057636 
L 422.104964 -97.057636 
L 421.044369 -97.057636 
L 419.983775 -97.057636 
L 418.923181 -97.057636 
L 417.862587 -97.057636 
L 416.801993 -97.057636 
L 415.741398 -97.057636 
L 414.680804 -97.057636 
L 413.62021 -97.057636 
L 412.559616 -97.057636 
L 411.499022 -97.057636 
L 410.438427 -97.057636 
L 409.377833 -97.057636 
L 408.317239 -97.057636 
L 407.256645 -97.057636 
L 406.196051 -97.057636 
L 405.135456 -97.057636 
L 404.074862 -97.057636 
L 403.014268 -97.057636 
L 401.953674 -97.057636 
L 400.89308 -97.057636 
L 399.832485 -97.057636 
L 398.771891 -97.057636 
L 397.711297 -97.057636 
L 396.650703 -97.057636 
L 395.590109 -97.057636 
L 394.529514 -97.057636 
L 393.46892 -97.057636 
L 392.408326 -97.057636 
L 391.347732 -97.057636 
L 390.287138 -97.057636 
L 389.226543 -97.057636 
L 388.165949 -97.057636 
L 387.105355 -97.057636 
L 386.044761 -97.057636 
L 384.984167 -97.057636 
L 383.923572 -97.057636 
L 382.862978 -97.057636 
L 381.802384 -97.057636 
L 380.74179 -97.057636 
L 379.681196 -97.057636 
L 378.620601 -97.057636 
L 377.560007 -97.057636 
L 376.499413 -97.057636 
L 375.438819 -97.057636 
L 374.378225 -97.057636 
L 373.31763 -97.057636 
L 372.257036 -97.057636 
L 371.196442 -97.057636 
L 370.135848 -97.057636 
L 369.075254 -97.057636 
L 368.014659 -97.057636 
L 366.954065 -97.057636 
L 365.893471 -97.057636 
L 364.832877 -97.057636 
L 363.772283 -97.057636 
L 362.711688 -97.057636 
L 361.651094 -97.057636 
L 360.5905 -97.057636 
L 359.529906 -97.057636 
L 358.469312 -97.057636 
L 357.408717 -97.057636 
L 356.348123 -97.057636 
L 355.287529 -97.057636 
L 354.226935 -97.057636 
L 353.166341 -97.057636 
L 352.105746 -97.057636 
L 351.045152 -97.057636 
L 349.984558 -97.057636 
L 348.923964 -97.057636 
L 347.86337 -97.057636 
L 346.802775 -97.057636 
L 345.742181 -97.057636 
L 344.681587 -97.057636 
L 343.620993 -97.057636 
L 342.560399 -97.057636 
L 341.499804 -97.057636 
L 340.43921 -97.057636 
L 339.378616 -97.057636 
L 338.318022 -97.057636 
L 337.257428 -97.057636 
L 336.196833 -97.057636 
L 335.136239 -97.057636 
L 334.075645 -97.057636 
L 333.015051 -97.057636 
L 331.954457 -97.057636 
L 330.893862 -97.057636 
L 329.833268 -97.057636 
L 328.772674 -97.057636 
L 327.71208 -97.057636 
L 326.651486 -97.057636 
L 325.590891 -97.057636 
L 324.530297 -97.057636 
L 323.469703 -97.057636 
L 322.409109 -97.057636 
L 321.348514 -97.057636 
L 320.28792 -97.057636 
L 319.227326 -97.057636 
L 318.166732 -97.057636 
L 317.106138 -97.057636 
L 316.045543 -97.057636 
L 314.984949 -97.057636 
L 313.924355 -97.057636 
L 312.863761 -97.057636 
L 311.803167 -97.057636 
L 310.742572 -97.057636 
L 309.681978 -97.057636 
L 308.621384 -97.057636 
L 307.56079 -97.057636 
L 306.500196 -97.057636 
L 305.439601 -97.057636 
L 304.379007 -97.057636 
L 303.318413 -97.057636 
L 302.257819 -97.057636 
L 301.197225 -97.057636 
L 300.13663 -97.057636 
L 299.076036 -97.057636 
L 298.015442 -97.057636 
L 296.954848 -97.057636 
L 295.894254 -97.057636 
L 294.833659 -97.057636 
L 293.773065 -97.057636 
L 292.712471 -97.057636 
L 291.651877 -97.057636 
L 290.591283 -97.057636 
L 289.530688 -97.057636 
L 288.470094 -97.057636 
L 287.4095 -97.057636 
L 286.348906 -97.057636 
L 285.288312 -97.057636 
L 284.227717 -97.057636 
L 283.167123 -97.057636 
L 282.106529 -97.057636 
L 281.045935 -97.057636 
L 279.985341 -97.057636 
L 278.924746 -97.057636 
L 277.864152 -97.057636 
L 276.803558 -97.057636 
L 275.742964 -97.057636 
L 274.68237 -97.057636 
L 273.621775 -97.057636 
L 272.561181 -97.057636 
L 271.500587 -97.057636 
L 270.439993 -97.057636 
L 269.379399 -97.057636 
L 268.318804 -97.057636 
L 267.25821 -97.057636 
L 266.197616 -97.057636 
L 265.137022 -97.057636 
L 264.076428 -97.057636 
L 263.015833 -97.057636 
L 261.955239 -97.057636 
L 260.894645 -97.057636 
L 259.834051 -97.057636 
L 258.773457 -97.057636 
L 257.712862 -97.057636 
L 256.652268 -97.057636 
L 255.591674 -97.057636 
L 254.53108 -97.057636 
L 253.470486 -97.057636 
L 252.409891 -97.057636 
L 251.349297 -97.057636 
L 250.288703 -97.057636 
L 249.228109 -97.057636 
L 248.167515 -97.057636 
L 247.10692 -97.057636 
L 246.046326 -97.057636 
L 244.985732 -97.057636 
L 243.925138 -97.057636 
L 242.864544 -97.057636 
L 241.803949 -97.057636 
L 240.743355 -97.057636 
L 239.682761 -97.057636 
L 238.622167 -97.057636 
L 237.561573 -97.057636 
L 236.500978 -97.057636 
L 235.440384 -97.057636 
L 234.37979 -97.057636 
L 233.319196 -97.057636 
L 232.258602 -97.057636 
L 231.198007 -97.057636 
L 230.137413 -97.057636 
L 229.076819 -97.057636 
L 228.016225 -97.057636 
L 226.955631 -97.057636 
L 225.895036 -97.057636 
L 224.834442 -97.057636 
L 223.773848 -97.057636 
L 222.713254 -97.057636 
L 221.65266 -97.057636 
L 220.592065 -97.057636 
L 219.531471 -97.057636 
L 218.470877 -97.057636 
L 217.410283 -97.057636 
L 216.349689 -97.057636 
L 215.289094 -97.057636 
L 214.2285 -97.057636 
L 213.167906 -97.057636 
L 212.107312 -97.057636 
L 211.046718 -97.057636 
L 209.986123 -97.057636 
L 208.925529 -97.057636 
L 207.864935 -97.057636 
L 206.804341 -97.057636 
L 205.743747 -97.057636 
L 204.683152 -97.057636 
L 203.622558 -97.057636 
L 202.561964 -97.057636 
L 201.50137 -97.057636 
L 200.440776 -97.057636 
L 199.380181 -97.057636 
L 198.319587 -97.057636 
L 197.258993 -97.057636 
L 196.198399 -97.057636 
L 195.137805 -97.057636 
L 194.07721 -97.057636 
L 193.016616 -97.057636 
L 191.956022 -97.057636 
L 190.895428 -97.057636 
L 189.834834 -97.057636 
L 188.774239 -97.057636 
L 187.713645 -97.057636 
L 186.653051 -97.057636 
L 185.592457 -97.057636 
L 184.531863 -97.057636 
L 183.471268 -97.057636 
L 182.410674 -97.057636 
L 181.35008 -97.057636 
L 180.289486 -97.057636 
L 179.228892 -97.057636 
L 178.168297 -97.057636 
L 177.107703 -97.057636 
L 176.047109 -97.057636 
L 174.986515 -97.057636 
L 173.925921 -97.057636 
L 172.865326 -97.057636 
L 171.804732 -97.057636 
L 170.744138 -97.057636 
L 169.683544 -97.057636 
L 168.62295 -97.057636 
L 167.562355 -97.057636 
L 166.501761 -97.057636 
L 165.441167 -97.057636 
L 164.380573 -97.057636 
L 163.319979 -97.057636 
L 162.259384 -97.057636 
L 161.19879 -97.057636 
L 160.138196 -97.057636 
L 159.077602 -97.057636 
L 158.017008 -97.057636 
L 156.956413 -97.057636 
L 155.895819 -97.057636 
L 154.835225 -97.057636 
L 153.774631 -97.057636 
L 152.714037 -97.057636 
L 151.653442 -97.057636 
L 150.592848 -97.057636 
L 149.532254 -97.057636 
L 148.47166 -97.057636 
L 147.411066 -97.057636 
L 146.350471 -97.057636 
L 145.289877 -97.057636 
L 144.229283 -97.057636 
L 143.168689 -97.057636 
L 142.108095 -97.057636 
L 141.0475 -97.057636 
L 139.986906 -97.057636 
L 138.926312 -97.057636 
L 137.865718 -97.057636 
L 136.805124 -97.057636 
L 135.744529 -97.057636 
L 134.683935 -97.057636 
L 133.623341 -97.057636 
L 132.562747 -97.057636 
L 131.502153 -97.057636 
L 130.441558 -97.057636 
L 129.380964 -97.057636 
L 128.32037 -97.057636 
L 127.259776 -97.057636 
L 126.199182 -97.057636 
L 125.138587 -97.057636 
L 124.077993 -97.057636 
L 123.017399 -97.057636 
L 121.956805 -97.057636 
L 120.896211 -97.057636 
L 119.835616 -97.057636 
L 118.775022 -97.057636 
L 117.714428 -97.057636 
L 116.653834 -97.057636 
L 115.59324 -97.057636 
L 114.532645 -97.057636 
L 113.472051 -97.057636 
L 112.411457 -97.057636 
L 111.350863 -97.057636 
L 110.290269 -97.057636 
L 109.229674 -97.057636 
L 108.16908 -97.057636 
L 107.108486 -97.057636 
L 106.047892 -97.057636 
L 104.987298 -97.057636 
L 103.926703 -97.057636 
L 102.866109 -97.057636 
L 101.805515 -97.057636 
L 100.744921 -97.057636 
L 99.684327 -97.057636 
L 98.623732 -97.057636 
L 97.563138 -97.057636 
L 96.502544 -97.057636 
L 95.44195 -97.057636 
L 94.381356 -97.057636 
L 93.320761 -97.057636 
L 92.260167 -97.057636 
L 91.199573 -97.057636 
L 90.138979 -97.057636 
L 89.078385 -97.057636 
L 88.01779 -97.057636 
L 86.957196 -97.057636 
L 85.896602 -97.057636 
L 84.836008 -97.057636 
L 83.775414 -97.057636 
L 82.714819 -97.057636 
L 81.654225 -97.057636 
L 80.593631 -97.057636 
L 79.533037 -97.057636 
L 78.472443 -97.057636 
L 77.411848 -97.057636 
L 76.351254 -97.057636 
L 75.29066 -97.057636 
L 74.230066 -97.057636 
L 73.169472 -97.057636 
L 72.108877 -97.057636 
L 71.048283 -97.057636 
L 69.987689 -97.057636 
L 68.927095 -97.057636 
L 67.866501 -97.057636 
L 66.805906 -97.057636 
L 65.745312 -97.057636 
L 64.684718 -97.057636 
L 63.624124 -97.057636 
L 62.56353 -97.057636 
L 61.502935 -97.057636 
L 60.442341 -97.057636 
L 59.381747 -97.057636 
L 58.321153 -97.057636 
L 57.260559 -97.057636 
L 56.199964 -97.057636 
L 55.13937 -97.057636 
L 54.078776 -97.057636 
L 53.018182 -97.057636 
z
"/>
    </defs>
    <g clip-path="url(#pd2119e12a5)">
     <use xlink:href="#m342e1bc0f4" x="0" y="504" style="fill: #2ca02c; fill-opacity: 0.35"/>
    </g>
   </g>
   <g id="line2d_9">
    <path d="M 53.018182 405.586238 
L 64.684718 405.693109 
L 88.01779 405.979922 
L 94.381356 405.81553 
L 99.684327 405.47332 
L 104.987298 404.902377 
L 111.350863 403.969775 
L 133.623341 400.473323 
L 139.986906 399.464462 
L 145.289877 398.417672 
L 149.532254 397.36042 
L 152.714037 396.425256 
L 156.956413 394.904697 
L 160.138196 393.525551 
L 163.319979 391.887347 
L 166.501761 389.958076 
L 169.683544 387.724932 
L 172.865326 385.178241 
L 176.047109 382.372317 
L 179.228892 379.347853 
L 184.531863 373.919786 
L 196.198399 361.471899 
L 205.743747 350.999015 
L 211.046718 344.807955 
L 215.289094 339.544722 
L 219.531471 333.9488 
L 223.773848 328.007123 
L 228.016225 321.758811 
L 232.258602 315.191707 
L 236.500978 308.347195 
L 242.864544 297.537377 
L 248.167515 288.180388 
L 254.53108 276.397293 
L 260.894645 263.883188 
L 266.197616 252.908454 
L 272.561181 239.26617 
L 283.167123 216.628377 
L 290.591283 201.414165 
L 296.954848 189.018069 
L 303.318413 177.421486 
L 308.621384 168.478177 
L 312.863761 161.807535 
L 317.106138 155.662995 
L 320.28792 151.388816 
L 323.469703 147.41281 
L 326.651486 143.837457 
L 328.772674 141.67727 
L 331.954457 138.788727 
L 334.075645 137.101922 
L 336.196833 135.614747 
L 339.378616 133.688263 
L 341.499804 132.581499 
L 344.681587 131.263083 
L 346.802775 130.567309 
L 348.923964 130.063786 
L 351.045152 129.814019 
L 353.166341 129.835077 
L 355.287529 130.199843 
L 357.408717 130.900809 
L 359.529906 132.05181 
L 361.651094 133.550314 
L 363.772283 135.508103 
L 365.893471 137.896071 
L 368.014659 140.682298 
L 370.135848 143.785447 
L 373.31763 148.84746 
L 383.923572 166.289594 
L 388.165949 172.515809 
L 392.408326 178.33428 
L 398.771891 187.076753 
L 403.014268 193.435275 
L 406.196051 198.674074 
L 409.377833 204.383984 
L 413.62021 212.646406 
L 416.801993 219.28791 
L 421.044369 228.825808 
L 425.286746 239.073582 
L 430.589717 252.725713 
L 443.316848 286.186692 
L 446.49863 293.790069 
L 449.680413 300.84955 
L 452.862195 307.292256 
L 456.043978 313.16695 
L 459.225761 318.533509 
L 462.407543 323.487094 
L 466.64992 329.644434 
L 470.892297 335.348201 
L 475.134674 340.652449 
L 479.37705 345.473624 
L 482.558833 348.755449 
L 485.740616 351.710106 
L 488.922398 354.389961 
L 492.104181 356.850895 
L 504.831311 366.39703 
L 509.073688 370.004121 
L 514.376659 374.852073 
L 521.800818 381.575179 
L 526.043195 385.035007 
L 529.224978 387.375936 
L 532.40676 389.475601 
L 536.649137 391.89296 
L 540.891514 393.943323 
L 544.073297 395.279644 
L 548.315673 396.818743 
L 553.618644 398.438899 
L 558.921615 399.805794 
L 564.224586 400.976779 
L 571.648746 402.347835 
L 578.012311 403.286937 
L 583.315282 403.879087 
L 588.618253 404.270583 
L 593.921224 404.453776 
L 594.981818 404.468807 
L 594.981818 404.468807 
" clip-path="url(#pd2119e12a5)" style="fill: none; stroke: #2ca02c; stroke-width: 1.5; stroke-linecap: round"/>
   </g>
   <g id="line2d_10">
    <path d="M 221.920163 401.122156 
L 476.192079 401.122156 
" clip-path="url(#pd2119e12a5)" style="fill: none; stroke: #2ca02c; stroke-width: 3.5; stroke-linecap: round"/>
   </g>
   <g id="patch_3">
    <path d="M 25.92 420.8 
L 622.08 420.8 
" style="fill: none; stroke: #333333; stroke-width: 1.5; stroke-linejoin: miter; stroke-linecap: square"/>
   </g>
   <g id="text_4">
    <!-- $x_1^2x_3$ -->
    <g style="fill: #262626" transform="translate(241.16 94.652)">
     <text>
      <tspan x="0" y="-0.421875" style="font-style: oblique; font-size: 76px; font-family: 'DejaVu Sans'; fill: #262626">x</tspan>
      <tspan x="84.296419" y="-0.421875" style="font-style: oblique; font-size: 76px; font-family: 'DejaVu Sans'; fill: #262626">x</tspan>
      <tspan x="44.976562" y="20.359375" style="font-size: 53.2px; font-family: 'DejaVu Sans'; fill: #262626">1</tspan>
      <tspan x="48.370833" y="-29.515625" style="font-size: 53.2px; font-family: 'DejaVu Sans'; fill: #262626">2</tspan>
      <tspan x="129.272982" y="12.046875" style="font-size: 53.2px; font-family: 'DejaVu Sans'; fill: #262626">3</tspan>
     </text>
    </g>
   </g>
  </g>
 </g>
 <defs>
  <clipPath id="pd2119e12a5">
   <rect x="25.92" y="115.932" width="596.16" height="304.868"/>
  </clipPath>
 </defs>
</svg>
