<?xml version="1.0" encoding="utf-8" standalone="no"?>
<!DOCTYPE svg PUBLIC "-//W3C//DTD SVG 1.1//EN"
  "http://www.w3.org/Graphics/SVG/1.1/DTD/svg11.dtd">
<svg xmlns:xlink="http://www.w3.org/1999/xlink" width="648pt" height="504pt" viewBox="0 0 648 504" xmlns="http://www.w3.org/2000/svg" version="1.1">
 <metadata>
  <rdf:RDF xmlns:dc="http://purl.org/dc/elements/1.1/" xmlns:cc="http://creativecommons.org/ns#" xmlns:rdf="http://www.w3.org/1999/02/22-rdf-syntax-ns#">
   <cc:Work>
    <dc:type rdf:resource="http://purl.org/dc/dcmitype/StillImage"/>
    <dc:date>2026-02-22T16:15:37.300723</dc:date>
    <dc:format>image/svg+xml</dc:format>
    <dc:creator>
     <cc:Agent>
      <dc:title>Matplotlib v3.10.6, https://matplotlib.org/</dc:title>
     </cc:Agent>
    </dc:creator>
   </cc:Work>
  </rdf:RDF>
 </metadata>
 <defs>
  <style type="text/css">*{stroke-linejoin: round; stroke-linecap: butt}</style>
 </defs>
 <g id="figure_1">
  <g id="patch_1">
   <path d="M 0 504 
L 648 504 
L 648 0 
L 0 0 
L 0 504 
z
" style="fill: none; opacity: 0"/>
  </g>
  <g id="axes_1">
   <g id="patch_2">
    <path d="M 25.92 420.8 
L 622.08 420.8 
L 622.08 115.932 
L 25.92 115.932 
L 25.92 420.8 
z
" style="fill: none"/>
   </g>
   <g id="matplotlib.axis_1">
    <g id="xtick_1">
     <g id="line2d_1">
      <path d="M 134.357338 420.8 
L 134.357338 115.932 
" clip-path="url(#pce8ebc24a9)" style="fill: none; stroke: #ffffff; stroke-opacity: 0.4; stroke-linecap: round"/>
     </g>
     <g id="line2d_2"/>
     <g id="text_1">
      <text style="font-size: 52px; font-family: 'DejaVu Serif', 'Times New Roman', serif; text-anchor: middle; fill: #262626" x="134.357338" y="467.311875" transform="rotate(-0 134.357338 467.311875)">−10</text>
     </g>
    </g>
    <g id="xtick_2">
     <g id="line2d_3">
      <path d="M 311.075209 420.8 
L 311.075209 115.932 
" clip-path="url(#pce8ebc24a9)" style="fill: none; stroke: #ffffff; stroke-opacity: 0.4; stroke-linecap: round"/>
     </g>
     <g id="line2d_4"/>
     <g id="text_2">
      <text style="font-size: 52px; font-family: 'DejaVu Serif', 'Times New Roman', serif; text-anchor: middle; fill: #262626" x="311.075209" y="467.311875" transform="rotate(-0 311.075209 467.311875)">0</text>
     </g>
    </g>
    <g id="xtick_3">
     <g id="line2d_5">
      <path d="M 487.793079 420.8 
L 487.793079 115.932 
" clip-path="url(#pce8ebc24a9)" style="fill: none; stroke: #ffffff; stroke-opacity: 0.4; stroke-linecap: round"/>
     </g>
     <g id="line2d_6"/>
     <g id="text_3">
      <text style="font-size: 52px; font-family: 'DejaVu Serif', 'Times New Roman', serif; text-anchor: middle; fill: #262626" x="487.793079" y="467.311875" transform="rotate(-0 487.793079 467.311875)">10</text>
     </g>
    </g>
   </g>
   <g id="matplotlib.axis_2">
    <g id="ytick_1">
     <g id="line2d_7">
      <path d="M 25.92 406.942364 
L 622.08 406.942364 
" clip-path="url(#pce8ebc24a9)" style="fill: none; stroke: #ffffff; stroke-opacity: 0.4; stroke-linecap: round"/>
     </g>
    </g>
    <g id="ytick_2">
     <g id="line2d_8">
      <path d="M 25.92 258.0864 
L 622.08 258.0864 
" clip-path="url(#pce8ebc24a9)" style="fill: none; stroke: #ffffff; stroke-opacity: 0.4; stroke-linecap: round"/>
     </g>
    </g>
   </g>
   <g id="FillBetweenPolyCollection_1">
    <defs>
     <path id="m30f3992fdc" d="M 53.018182 -97.057636 
L 53.018182 -98.01095 
L 54.078776 -98.011411 
L 55.13937 -98.012805 
L 56.199964 -98.01517 
L 57.260559 -98.018565 
L 58.321153 -98.023065 
L 59.381747 -98.03154 
L 60.442341 -98.039236 
L 61.502935 -98.048447 
L 62.56353 -98.062642 
L 63.624124 -98.07707 
L 64.684718 -98.091832 
L 65.745312 -98.111877 
L 66.805906 -98.136695 
L 67.866501 -98.167062 
L 68.927095 -98.198292 
L 69.987689 -98.229945 
L 71.048283 -98.267005 
L 72.108877 -98.310179 
L 73.169472 -98.354743 
L 74.230066 -98.403034 
L 75.29066 -98.452436 
L 76.351254 -98.503013 
L 77.411848 -98.570854 
L 78.472443 -98.636727 
L 79.533037 -98.710376 
L 80.593631 -98.784619 
L 81.654225 -98.864224 
L 82.714819 -98.952396 
L 83.775414 -99.050314 
L 84.836008 -99.162116 
L 85.896602 -99.276138 
L 86.957196 -99.399697 
L 88.01779 -99.536317 
L 89.078385 -99.681868 
L 90.138979 -99.844797 
L 91.199573 -100.016036 
L 92.260167 -100.197737 
L 93.320761 -100.39518 
L 94.381356 -100.612026 
L 95.44195 -100.844886 
L 96.502544 -101.091863 
L 97.563138 -101.351834 
L 98.623732 -101.63455 
L 99.684327 -101.9279 
L 100.744921 -102.238702 
L 101.805515 -102.556055 
L 102.866109 -102.896811 
L 103.926703 -103.246163 
L 104.987298 -103.607695 
L 106.047892 -103.974963 
L 107.108486 -104.356718 
L 108.16908 -104.744776 
L 109.229674 -105.14572 
L 110.290269 -105.55144 
L 111.350863 -105.968643 
L 112.411457 -106.383814 
L 113.472051 -106.807974 
L 114.532645 -107.23868 
L 115.59324 -107.662528 
L 116.653834 -108.095515 
L 117.714428 -108.535338 
L 118.775022 -108.971646 
L 119.835616 -109.405445 
L 120.896211 -109.841024 
L 121.956805 -110.278437 
L 123.017399 -110.723484 
L 124.077993 -111.169697 
L 125.138587 -111.611746 
L 126.199182 -112.054131 
L 127.259776 -112.495499 
L 128.32037 -112.943897 
L 129.380964 -113.383924 
L 130.441558 -113.833079 
L 131.502153 -114.28789 
L 132.562747 -114.752965 
L 133.623341 -115.21726 
L 134.683935 -115.6861 
L 135.744529 -116.168828 
L 136.805124 -116.671427 
L 137.865718 -117.17876 
L 138.926312 -117.712988 
L 139.986906 -118.262669 
L 141.0475 -118.837734 
L 142.108095 -119.427794 
L 143.168689 -120.055179 
L 144.229283 -120.708982 
L 145.289877 -121.39884 
L 146.350471 -122.121585 
L 147.411066 -122.882599 
L 148.47166 -123.680774 
L 149.532254 -124.524445 
L 150.592848 -125.421344 
L 151.653442 -126.36933 
L 152.714037 -127.349407 
L 153.774631 -128.366113 
L 154.835225 -129.423692 
L 155.895819 -130.531571 
L 156.956413 -131.683223 
L 158.017008 -132.860492 
L 159.077602 -134.070656 
L 160.138196 -135.331884 
L 161.19879 -136.614844 
L 162.259384 -137.911088 
L 163.319979 -139.241825 
L 164.380573 -140.582818 
L 165.441167 -141.941455 
L 166.501761 -143.308234 
L 167.562355 -144.67983 
L 168.62295 -146.059175 
L 169.683544 -147.431936 
L 170.744138 -148.820136 
L 171.804732 -150.190502 
L 172.865326 -151.543712 
L 173.925921 -152.88653 
L 174.986515 -154.223529 
L 176.047109 -155.55225 
L 177.107703 -156.888019 
L 178.168297 -158.213999 
L 179.228892 -159.491421 
L 180.289486 -160.765902 
L 181.35008 -162.037772 
L 182.410674 -163.291878 
L 183.471268 -164.559257 
L 184.531863 -165.800904 
L 185.592457 -167.054947 
L 186.653051 -168.302057 
L 187.713645 -169.549874 
L 188.774239 -170.810688 
L 189.834834 -172.10222 
L 190.895428 -173.390513 
L 191.956022 -174.694228 
L 193.016616 -176.044928 
L 194.07721 -177.400375 
L 195.137805 -178.797546 
L 196.198399 -180.25133 
L 197.258993 -181.722115 
L 198.319587 -183.242103 
L 199.380181 -184.831156 
L 200.440776 -186.456728 
L 201.50137 -188.144109 
L 202.561964 -189.874452 
L 203.622558 -191.686826 
L 204.683152 -193.541781 
L 205.743747 -195.479995 
L 206.804341 -197.42825 
L 207.864935 -199.444833 
L 208.925529 -201.510646 
L 209.986123 -203.628919 
L 211.046718 -205.784982 
L 212.107312 -207.996334 
L 213.167906 -210.266196 
L 214.2285 -212.571735 
L 215.289094 -214.89477 
L 216.349689 -217.249155 
L 217.410283 -219.644678 
L 218.470877 -222.069605 
L 219.531471 -224.533424 
L 220.592065 -227.002339 
L 221.65266 -229.461494 
L 222.713254 -231.955517 
L 223.773848 -234.497918 
L 224.834442 -237.026539 
L 225.895036 -239.583503 
L 226.955631 -242.126857 
L 228.016225 -244.695108 
L 229.076819 -247.275055 
L 230.137413 -249.841743 
L 231.198007 -252.456061 
L 232.258602 -255.054752 
L 233.319196 -257.64022 
L 234.37979 -260.208641 
L 235.440384 -262.781943 
L 236.500978 -265.315656 
L 237.561573 -267.857857 
L 238.622167 -270.378061 
L 239.682761 -272.851101 
L 240.743355 -275.266627 
L 241.803949 -277.642344 
L 242.864544 -279.96437 
L 243.925138 -282.227534 
L 244.985732 -284.430081 
L 246.046326 -286.613211 
L 247.10692 -288.747205 
L 248.167515 -290.829642 
L 249.228109 -292.854693 
L 250.288703 -294.83373 
L 251.349297 -296.771528 
L 252.409891 -298.663113 
L 253.470486 -300.530835 
L 254.53108 -302.388895 
L 255.591674 -304.201003 
L 256.652268 -306.025187 
L 257.712862 -307.871017 
L 258.773457 -309.726918 
L 259.834051 -311.571469 
L 260.894645 -313.471703 
L 261.955239 -315.360078 
L 263.015833 -317.284898 
L 264.076428 -319.270445 
L 265.137022 -321.252516 
L 266.197616 -323.261607 
L 267.25821 -325.278564 
L 268.318804 -327.268079 
L 269.379399 -329.298708 
L 270.439993 -331.272328 
L 271.500587 -333.234305 
L 272.561181 -335.183625 
L 273.621775 -337.069973 
L 274.68237 -338.893204 
L 275.742964 -340.649894 
L 276.803558 -342.356005 
L 277.864152 -343.947181 
L 278.924746 -345.458646 
L 279.985341 -346.866119 
L 281.045935 -348.191936 
L 282.106529 -349.43924 
L 283.167123 -350.556741 
L 284.227717 -351.553856 
L 285.288312 -352.497512 
L 286.348906 -353.326401 
L 287.4095 -354.10311 
L 288.470094 -354.79542 
L 289.530688 -355.460991 
L 290.591283 -356.06946 
L 291.651877 -356.66181 
L 292.712471 -357.220003 
L 293.773065 -357.767539 
L 294.833659 -358.318016 
L 295.894254 -358.893193 
L 296.954848 -359.471451 
L 298.015442 -360.054544 
L 299.076036 -360.708626 
L 300.13663 -361.365996 
L 301.197225 -362.063175 
L 302.257819 -362.765137 
L 303.318413 -363.508888 
L 304.379007 -364.299844 
L 305.439601 -365.13128 
L 306.500196 -365.975956 
L 307.56079 -366.802151 
L 308.621384 -367.591512 
L 309.681978 -368.430659 
L 310.742572 -369.222409 
L 311.803167 -370.04585 
L 312.863761 -370.795526 
L 313.924355 -371.468333 
L 314.984949 -372.126022 
L 316.045543 -372.671306 
L 317.106138 -373.155631 
L 318.166732 -373.556435 
L 319.227326 -373.88436 
L 320.28792 -374.096524 
L 321.348514 -374.210364 
L 322.409109 -374.193034 
L 323.469703 -374.083923 
L 324.530297 -373.868502 
L 325.590891 -373.534322 
L 326.651486 -373.065325 
L 327.71208 -372.508343 
L 328.772674 -371.810419 
L 329.833268 -371.005738 
L 330.893862 -370.05729 
L 331.954457 -369.015547 
L 333.015051 -367.853701 
L 334.075645 -366.614926 
L 335.136239 -365.264543 
L 336.196833 -363.851343 
L 337.257428 -362.36729 
L 338.318022 -360.787236 
L 339.378616 -359.122668 
L 340.43921 -357.427216 
L 341.499804 -355.676523 
L 342.560399 -353.879004 
L 343.620993 -352.057018 
L 344.681587 -350.183781 
L 345.742181 -348.265015 
L 346.802775 -346.360948 
L 347.86337 -344.422377 
L 348.923964 -342.492113 
L 349.984558 -340.566502 
L 351.045152 -338.644966 
L 352.105746 -336.74348 
L 353.166341 -334.837859 
L 354.226935 -332.925142 
L 355.287529 -331.053415 
L 356.348123 -329.170747 
L 357.408717 -327.272677 
L 358.469312 -325.424312 
L 359.529906 -323.579177 
L 360.5905 -321.752759 
L 361.651094 -319.892859 
L 362.711688 -318.055309 
L 363.772283 -316.222878 
L 364.832877 -314.36517 
L 365.893471 -312.493869 
L 366.954065 -310.626305 
L 368.014659 -308.768844 
L 369.075254 -306.896803 
L 370.135848 -304.988834 
L 371.196442 -303.07377 
L 372.257036 -301.122959 
L 373.31763 -299.149061 
L 374.378225 -297.155199 
L 375.438819 -295.125801 
L 376.499413 -293.096078 
L 377.560007 -291.030028 
L 378.620601 -288.947566 
L 379.681196 -286.845997 
L 380.74179 -284.697559 
L 381.802384 -282.551985 
L 382.862978 -280.381021 
L 383.923572 -278.179955 
L 384.984167 -275.988909 
L 386.044761 -273.795051 
L 387.105355 -271.595716 
L 388.165949 -269.376383 
L 389.226543 -267.113774 
L 390.287138 -264.868901 
L 391.347732 -262.64358 
L 392.408326 -260.419325 
L 393.46892 -258.189048 
L 394.529514 -255.934563 
L 395.590109 -253.67757 
L 396.650703 -251.404944 
L 397.711297 -249.138777 
L 398.771891 -246.892551 
L 399.832485 -244.616609 
L 400.89308 -242.350954 
L 401.953674 -240.076193 
L 403.014268 -237.816957 
L 404.074862 -235.522953 
L 405.135456 -233.240003 
L 406.196051 -230.96025 
L 407.256645 -228.681097 
L 408.317239 -226.387943 
L 409.377833 -224.100552 
L 410.438427 -221.819636 
L 411.499022 -219.529606 
L 412.559616 -217.231749 
L 413.62021 -214.95396 
L 414.680804 -212.66429 
L 415.741398 -210.385273 
L 416.801993 -208.117923 
L 417.862587 -205.880545 
L 418.923181 -203.640307 
L 419.983775 -201.428959 
L 421.044369 -199.202446 
L 422.104964 -196.9833 
L 423.165558 -194.800612 
L 424.226152 -192.641342 
L 425.286746 -190.494628 
L 426.34734 -188.359533 
L 427.407935 -186.22918 
L 428.468529 -184.118617 
L 429.529123 -182.061761 
L 430.589717 -180.017384 
L 431.650311 -177.997372 
L 432.710906 -176.012273 
L 433.7715 -174.038913 
L 434.832094 -172.096566 
L 435.892688 -170.171986 
L 436.953282 -168.284539 
L 438.013877 -166.451464 
L 439.074471 -164.638501 
L 440.135065 -162.857787 
L 441.195659 -161.13332 
L 442.256253 -159.436797 
L 443.316848 -157.759916 
L 444.377442 -156.121802 
L 445.438036 -154.543242 
L 446.49863 -153.010313 
L 447.559224 -151.513073 
L 448.619819 -150.059354 
L 449.680413 -148.664409 
L 450.741007 -147.285215 
L 451.801601 -145.957444 
L 452.862195 -144.669882 
L 453.92279 -143.421675 
L 454.983384 -142.21279 
L 456.043978 -141.043722 
L 457.104572 -139.903468 
L 458.165166 -138.794954 
L 459.225761 -137.710008 
L 460.286355 -136.6649 
L 461.346949 -135.649135 
L 462.407543 -134.655717 
L 463.468137 -133.686483 
L 464.528732 -132.73897 
L 465.589326 -131.822107 
L 466.64992 -130.904634 
L 467.710514 -130.030858 
L 468.771108 -129.162318 
L 469.831703 -128.326402 
L 470.892297 -127.484798 
L 471.952891 -126.66632 
L 473.013485 -125.869028 
L 474.074079 -125.093597 
L 475.134674 -124.316465 
L 476.195268 -123.559253 
L 477.255862 -122.823716 
L 478.316456 -122.105343 
L 479.37705 -121.404613 
L 480.437645 -120.735133 
L 481.498239 -120.070932 
L 482.558833 -119.430679 
L 483.619427 -118.810884 
L 484.680021 -118.209198 
L 485.740616 -117.619283 
L 486.80121 -117.057343 
L 487.861804 -116.505635 
L 488.922398 -115.978474 
L 489.982992 -115.456697 
L 491.043587 -114.95959 
L 492.104181 -114.477248 
L 493.164775 -114.006395 
L 494.225369 -113.548503 
L 495.285963 -113.102789 
L 496.346558 -112.678813 
L 497.407152 -112.256871 
L 498.467746 -111.843626 
L 499.52834 -111.431526 
L 500.588934 -111.029357 
L 501.649529 -110.621363 
L 502.710123 -110.217482 
L 503.770717 -109.823261 
L 504.831311 -109.427664 
L 505.891905 -109.03521 
L 506.9525 -108.652296 
L 508.013094 -108.260071 
L 509.073688 -107.869198 
L 510.134282 -107.474987 
L 511.194876 -107.083213 
L 512.255471 -106.698628 
L 513.316065 -106.314224 
L 514.376659 -105.937892 
L 515.437253 -105.565696 
L 516.497847 -105.192148 
L 517.558442 -104.83015 
L 518.619036 -104.475157 
L 519.67963 -104.132555 
L 520.740224 -103.800748 
L 521.800818 -103.475985 
L 522.861413 -103.154879 
L 523.922007 -102.85508 
L 524.982601 -102.561979 
L 526.043195 -102.277298 
L 527.103789 -102.008974 
L 528.164384 -101.756618 
L 529.224978 -101.522036 
L 530.285572 -101.295588 
L 531.346166 -101.084956 
L 532.40676 -100.887267 
L 533.467355 -100.702307 
L 534.527949 -100.527554 
L 535.588543 -100.365238 
L 536.649137 -100.214731 
L 537.709731 -100.073149 
L 538.770326 -99.944608 
L 539.83092 -99.827744 
L 540.891514 -99.716898 
L 541.952108 -99.616205 
L 543.012702 -99.524337 
L 544.073297 -99.435686 
L 545.133891 -99.350077 
L 546.194485 -99.271617 
L 547.255079 -99.196806 
L 548.315673 -99.122775 
L 549.376268 -99.049373 
L 550.436862 -98.985162 
L 551.497456 -98.921434 
L 552.55805 -98.851307 
L 553.618644 -98.789696 
L 554.679239 -98.728707 
L 555.739833 -98.663326 
L 556.800427 -98.600529 
L 557.861021 -98.537543 
L 558.921615 -98.476646 
L 559.98221 -98.415318 
L 561.042804 -98.353866 
L 562.103398 -98.292635 
L 563.163992 -98.229807 
L 564.224586 -98.170643 
L 565.285181 -98.110597 
L 566.345775 -98.052782 
L 567.406369 -97.997537 
L 568.466963 -97.947395 
L 569.527557 -97.897829 
L 570.588152 -97.854109 
L 571.648746 -97.81383 
L 572.70934 -97.777309 
L 573.769934 -97.7448 
L 574.830528 -97.71429 
L 575.891123 -97.69074 
L 576.951717 -97.671405 
L 578.012311 -97.656241 
L 579.072905 -97.64512 
L 580.133499 -97.635643 
L 581.194094 -97.632388 
L 582.254688 -97.632232 
L 583.315282 -97.634777 
L 584.375876 -97.637381 
L 585.43647 -97.644409 
L 586.497065 -97.652568 
L 587.557659 -97.664122 
L 588.618253 -97.673702 
L 589.678847 -97.683005 
L 590.739441 -97.69156 
L 591.800036 -97.696745 
L 592.86063 -97.70364 
L 593.921224 -97.709179 
L 594.981818 -97.712579 
L 594.981818 -97.057636 
L 594.981818 -97.057636 
L 593.921224 -97.057636 
L 592.86063 -97.057636 
L 591.800036 -97.057636 
L 590.739441 -97.057636 
L 589.678847 -97.057636 
L 588.618253 -97.057636 
L 587.557659 -97.057636 
L 586.497065 -97.057636 
L 585.43647 -97.057636 
L 584.375876 -97.057636 
L 583.315282 -97.057636 
L 582.254688 -97.057636 
L 581.194094 -97.057636 
L 580.133499 -97.057636 
L 579.072905 -97.057636 
L 578.012311 -97.057636 
L 576.951717 -97.057636 
L 575.891123 -97.057636 
L 574.830528 -97.057636 
L 573.769934 -97.057636 
L 572.70934 -97.057636 
L 571.648746 -97.057636 
L 570.588152 -97.057636 
L 569.527557 -97.057636 
L 568.466963 -97.057636 
L 567.406369 -97.057636 
L 566.345775 -97.057636 
L 565.285181 -97.057636 
L 564.224586 -97.057636 
L 563.163992 -97.057636 
L 562.103398 -97.057636 
L 561.042804 -97.057636 
L 559.98221 -97.057636 
L 558.921615 -97.057636 
L 557.861021 -97.057636 
L 556.800427 -97.057636 
L 555.739833 -97.057636 
L 554.679239 -97.057636 
L 553.618644 -97.057636 
L 552.55805 -97.057636 
L 551.497456 -97.057636 
L 550.436862 -97.057636 
L 549.376268 -97.057636 
L 548.315673 -97.057636 
L 547.255079 -97.057636 
L 546.194485 -97.057636 
L 545.133891 -97.057636 
L 544.073297 -97.057636 
L 543.012702 -97.057636 
L 541.952108 -97.057636 
L 540.891514 -97.057636 
L 539.83092 -97.057636 
L 538.770326 -97.057636 
L 537.709731 -97.057636 
L 536.649137 -97.057636 
L 535.588543 -97.057636 
L 534.527949 -97.057636 
L 533.467355 -97.057636 
L 532.40676 -97.057636 
L 531.346166 -97.057636 
L 530.285572 -97.057636 
L 529.224978 -97.057636 
L 528.164384 -97.057636 
L 527.103789 -97.057636 
L 526.043195 -97.057636 
L 524.982601 -97.057636 
L 523.922007 -97.057636 
L 522.861413 -97.057636 
L 521.800818 -97.057636 
L 520.740224 -97.057636 
L 519.67963 -97.057636 
L 518.619036 -97.057636 
L 517.558442 -97.057636 
L 516.497847 -97.057636 
L 515.437253 -97.057636 
L 514.376659 -97.057636 
L 513.316065 -97.057636 
L 512.255471 -97.057636 
L 511.194876 -97.057636 
L 510.134282 -97.057636 
L 509.073688 -97.057636 
L 508.013094 -97.057636 
L 506.9525 -97.057636 
L 505.891905 -97.057636 
L 504.831311 -97.057636 
L 503.770717 -97.057636 
L 502.710123 -97.057636 
L 501.649529 -97.057636 
L 500.588934 -97.057636 
L 499.52834 -97.057636 
L 498.467746 -97.057636 
L 497.407152 -97.057636 
L 496.346558 -97.057636 
L 495.285963 -97.057636 
L 494.225369 -97.057636 
L 493.164775 -97.057636 
L 492.104181 -97.057636 
L 491.043587 -97.057636 
L 489.982992 -97.057636 
L 488.922398 -97.057636 
L 487.861804 -97.057636 
L 486.80121 -97.057636 
L 485.740616 -97.057636 
L 484.680021 -97.057636 
L 483.619427 -97.057636 
L 482.558833 -97.057636 
L 481.498239 -97.057636 
L 480.437645 -97.057636 
L 479.37705 -97.057636 
L 478.316456 -97.057636 
L 477.255862 -97.057636 
L 476.195268 -97.057636 
L 475.134674 -97.057636 
L 474.074079 -97.057636 
L 473.013485 -97.057636 
L 471.952891 -97.057636 
L 470.892297 -97.057636 
L 469.831703 -97.057636 
L 468.771108 -97.057636 
L 467.710514 -97.057636 
L 466.64992 -97.057636 
L 465.589326 -97.057636 
L 464.528732 -97.057636 
L 463.468137 -97.057636 
L 462.407543 -97.057636 
L 461.346949 -97.057636 
L 460.286355 -97.057636 
L 459.225761 -97.057636 
L 458.165166 -97.057636 
L 457.104572 -97.057636 
L 456.043978 -97.057636 
L 454.983384 -97.057636 
L 453.92279 -97.057636 
L 452.862195 -97.057636 
L 451.801601 -97.057636 
L 450.741007 -97.057636 
L 449.680413 -97.057636 
L 448.619819 -97.057636 
L 447.559224 -97.057636 
L 446.49863 -97.057636 
L 445.438036 -97.057636 
L 444.377442 -97.057636 
L 443.316848 -97.057636 
L 442.256253 -97.057636 
L 441.195659 -97.057636 
L 440.135065 -97.057636 
L 439.074471 -97.057636 
L 438.013877 -97.057636 
L 436.953282 -97.057636 
L 435.892688 -97.057636 
L 434.832094 -97.057636 
L 433.7715 -97.057636 
L 432.710906 -97.057636 
L 431.650311 -97.057636 
L 430.589717 -97.057636 
L 429.529123 -97.057636 
L 428.468529 -97.057636 
L 427.407935 -97.057636 
L 426.34734 -97.057636 
L 425.286746 -97.057636 
L 424.226152 -97.057636 
L 423.165558 -97.057636 
L 422.104964 -97.057636 
L 421.044369 -97.057636 
L 419.983775 -97.057636 
L 418.923181 -97.057636 
L 417.862587 -97.057636 
L 416.801993 -97.057636 
L 415.741398 -97.057636 
L 414.680804 -97.057636 
L 413.62021 -97.057636 
L 412.559616 -97.057636 
L 411.499022 -97.057636 
L 410.438427 -97.057636 
L 409.377833 -97.057636 
L 408.317239 -97.057636 
L 407.256645 -97.057636 
L 406.196051 -97.057636 
L 405.135456 -97.057636 
L 404.074862 -97.057636 
L 403.014268 -97.057636 
L 401.953674 -97.057636 
L 400.89308 -97.057636 
L 399.832485 -97.057636 
L 398.771891 -97.057636 
L 397.711297 -97.057636 
L 396.650703 -97.057636 
L 395.590109 -97.057636 
L 394.529514 -97.057636 
L 393.46892 -97.057636 
L 392.408326 -97.057636 
L 391.347732 -97.057636 
L 390.287138 -97.057636 
L 389.226543 -97.057636 
L 388.165949 -97.057636 
L 387.105355 -97.057636 
L 386.044761 -97.057636 
L 384.984167 -97.057636 
L 383.923572 -97.057636 
L 382.862978 -97.057636 
L 381.802384 -97.057636 
L 380.74179 -97.057636 
L 379.681196 -97.057636 
L 378.620601 -97.057636 
L 377.560007 -97.057636 
L 376.499413 -97.057636 
L 375.438819 -97.057636 
L 374.378225 -97.057636 
L 373.31763 -97.057636 
L 372.257036 -97.057636 
L 371.196442 -97.057636 
L 370.135848 -97.057636 
L 369.075254 -97.057636 
L 368.014659 -97.057636 
L 366.954065 -97.057636 
L 365.893471 -97.057636 
L 364.832877 -97.057636 
L 363.772283 -97.057636 
L 362.711688 -97.057636 
L 361.651094 -97.057636 
L 360.5905 -97.057636 
L 359.529906 -97.057636 
L 358.469312 -97.057636 
L 357.408717 -97.057636 
L 356.348123 -97.057636 
L 355.287529 -97.057636 
L 354.226935 -97.057636 
L 353.166341 -97.057636 
L 352.105746 -97.057636 
L 351.045152 -97.057636 
L 349.984558 -97.057636 
L 348.923964 -97.057636 
L 347.86337 -97.057636 
L 346.802775 -97.057636 
L 345.742181 -97.057636 
L 344.681587 -97.057636 
L 343.620993 -97.057636 
L 342.560399 -97.057636 
L 341.499804 -97.057636 
L 340.43921 -97.057636 
L 339.378616 -97.057636 
L 338.318022 -97.057636 
L 337.257428 -97.057636 
L 336.196833 -97.057636 
L 335.136239 -97.057636 
L 334.075645 -97.057636 
L 333.015051 -97.057636 
L 331.954457 -97.057636 
L 330.893862 -97.057636 
L 329.833268 -97.057636 
L 328.772674 -97.057636 
L 327.71208 -97.057636 
L 326.651486 -97.057636 
L 325.590891 -97.057636 
L 324.530297 -97.057636 
L 323.469703 -97.057636 
L 322.409109 -97.057636 
L 321.348514 -97.057636 
L 320.28792 -97.057636 
L 319.227326 -97.057636 
L 318.166732 -97.057636 
L 317.106138 -97.057636 
L 316.045543 -97.057636 
L 314.984949 -97.057636 
L 313.924355 -97.057636 
L 312.863761 -97.057636 
L 311.803167 -97.057636 
L 310.742572 -97.057636 
L 309.681978 -97.057636 
L 308.621384 -97.057636 
L 307.56079 -97.057636 
L 306.500196 -97.057636 
L 305.439601 -97.057636 
L 304.379007 -97.057636 
L 303.318413 -97.057636 
L 302.257819 -97.057636 
L 301.197225 -97.057636 
L 300.13663 -97.057636 
L 299.076036 -97.057636 
L 298.015442 -97.057636 
L 296.954848 -97.057636 
L 295.894254 -97.057636 
L 294.833659 -97.057636 
L 293.773065 -97.057636 
L 292.712471 -97.057636 
L 291.651877 -97.057636 
L 290.591283 -97.057636 
L 289.530688 -97.057636 
L 288.470094 -97.057636 
L 287.4095 -97.057636 
L 286.348906 -97.057636 
L 285.288312 -97.057636 
L 284.227717 -97.057636 
L 283.167123 -97.057636 
L 282.106529 -97.057636 
L 281.045935 -97.057636 
L 279.985341 -97.057636 
L 278.924746 -97.057636 
L 277.864152 -97.057636 
L 276.803558 -97.057636 
L 275.742964 -97.057636 
L 274.68237 -97.057636 
L 273.621775 -97.057636 
L 272.561181 -97.057636 
L 271.500587 -97.057636 
L 270.439993 -97.057636 
L 269.379399 -97.057636 
L 268.318804 -97.057636 
L 267.25821 -97.057636 
L 266.197616 -97.057636 
L 265.137022 -97.057636 
L 264.076428 -97.057636 
L 263.015833 -97.057636 
L 261.955239 -97.057636 
L 260.894645 -97.057636 
L 259.834051 -97.057636 
L 258.773457 -97.057636 
L 257.712862 -97.057636 
L 256.652268 -97.057636 
L 255.591674 -97.057636 
L 254.53108 -97.057636 
L 253.470486 -97.057636 
L 252.409891 -97.057636 
L 251.349297 -97.057636 
L 250.288703 -97.057636 
L 249.228109 -97.057636 
L 248.167515 -97.057636 
L 247.10692 -97.057636 
L 246.046326 -97.057636 
L 244.985732 -97.057636 
L 243.925138 -97.057636 
L 242.864544 -97.057636 
L 241.803949 -97.057636 
L 240.743355 -97.057636 
L 239.682761 -97.057636 
L 238.622167 -97.057636 
L 237.561573 -97.057636 
L 236.500978 -97.057636 
L 235.440384 -97.057636 
L 234.37979 -97.057636 
L 233.319196 -97.057636 
L 232.258602 -97.057636 
L 231.198007 -97.057636 
L 230.137413 -97.057636 
L 229.076819 -97.057636 
L 228.016225 -97.057636 
L 226.955631 -97.057636 
L 225.895036 -97.057636 
L 224.834442 -97.057636 
L 223.773848 -97.057636 
L 222.713254 -97.057636 
L 221.65266 -97.057636 
L 220.592065 -97.057636 
L 219.531471 -97.057636 
L 218.470877 -97.057636 
L 217.410283 -97.057636 
L 216.349689 -97.057636 
L 215.289094 -97.057636 
L 214.2285 -97.057636 
L 213.167906 -97.057636 
L 212.107312 -97.057636 
L 211.046718 -97.057636 
L 209.986123 -97.057636 
L 208.925529 -97.057636 
L 207.864935 -97.057636 
L 206.804341 -97.057636 
L 205.743747 -97.057636 
L 204.683152 -97.057636 
L 203.622558 -97.057636 
L 202.561964 -97.057636 
L 201.50137 -97.057636 
L 200.440776 -97.057636 
L 199.380181 -97.057636 
L 198.319587 -97.057636 
L 197.258993 -97.057636 
L 196.198399 -97.057636 
L 195.137805 -97.057636 
L 194.07721 -97.057636 
L 193.016616 -97.057636 
L 191.956022 -97.057636 
L 190.895428 -97.057636 
L 189.834834 -97.057636 
L 188.774239 -97.057636 
L 187.713645 -97.057636 
L 186.653051 -97.057636 
L 185.592457 -97.057636 
L 184.531863 -97.057636 
L 183.471268 -97.057636 
L 182.410674 -97.057636 
L 181.35008 -97.057636 
L 180.289486 -97.057636 
L 179.228892 -97.057636 
L 178.168297 -97.057636 
L 177.107703 -97.057636 
L 176.047109 -97.057636 
L 174.986515 -97.057636 
L 173.925921 -97.057636 
L 172.865326 -97.057636 
L 171.804732 -97.057636 
L 170.744138 -97.057636 
L 169.683544 -97.057636 
L 168.62295 -97.057636 
L 167.562355 -97.057636 
L 166.501761 -97.057636 
L 165.441167 -97.057636 
L 164.380573 -97.057636 
L 163.319979 -97.057636 
L 162.259384 -97.057636 
L 161.19879 -97.057636 
L 160.138196 -97.057636 
L 159.077602 -97.057636 
L 158.017008 -97.057636 
L 156.956413 -97.057636 
L 155.895819 -97.057636 
L 154.835225 -97.057636 
L 153.774631 -97.057636 
L 152.714037 -97.057636 
L 151.653442 -97.057636 
L 150.592848 -97.057636 
L 149.532254 -97.057636 
L 148.47166 -97.057636 
L 147.411066 -97.057636 
L 146.350471 -97.057636 
L 145.289877 -97.057636 
L 144.229283 -97.057636 
L 143.168689 -97.057636 
L 142.108095 -97.057636 
L 141.0475 -97.057636 
L 139.986906 -97.057636 
L 138.926312 -97.057636 
L 137.865718 -97.057636 
L 136.805124 -97.057636 
L 135.744529 -97.057636 
L 134.683935 -97.057636 
L 133.623341 -97.057636 
L 132.562747 -97.057636 
L 131.502153 -97.057636 
L 130.441558 -97.057636 
L 129.380964 -97.057636 
L 128.32037 -97.057636 
L 127.259776 -97.057636 
L 126.199182 -97.057636 
L 125.138587 -97.057636 
L 124.077993 -97.057636 
L 123.017399 -97.057636 
L 121.956805 -97.057636 
L 120.896211 -97.057636 
L 119.835616 -97.057636 
L 118.775022 -97.057636 
L 117.714428 -97.057636 
L 116.653834 -97.057636 
L 115.59324 -97.057636 
L 114.532645 -97.057636 
L 113.472051 -97.057636 
L 112.411457 -97.057636 
L 111.350863 -97.057636 
L 110.290269 -97.057636 
L 109.229674 -97.057636 
L 108.16908 -97.057636 
L 107.108486 -97.057636 
L 106.047892 -97.057636 
L 104.987298 -97.057636 
L 103.926703 -97.057636 
L 102.866109 -97.057636 
L 101.805515 -97.057636 
L 100.744921 -97.057636 
L 99.684327 -97.057636 
L 98.623732 -97.057636 
L 97.563138 -97.057636 
L 96.502544 -97.057636 
L 95.44195 -97.057636 
L 94.381356 -97.057636 
L 93.320761 -97.057636 
L 92.260167 -97.057636 
L 91.199573 -97.057636 
L 90.138979 -97.057636 
L 89.078385 -97.057636 
L 88.01779 -97.057636 
L 86.957196 -97.057636 
L 85.896602 -97.057636 
L 84.836008 -97.057636 
L 83.775414 -97.057636 
L 82.714819 -97.057636 
L 81.654225 -97.057636 
L 80.593631 -97.057636 
L 79.533037 -97.057636 
L 78.472443 -97.057636 
L 77.411848 -97.057636 
L 76.351254 -97.057636 
L 75.29066 -97.057636 
L 74.230066 -97.057636 
L 73.169472 -97.057636 
L 72.108877 -97.057636 
L 71.048283 -97.057636 
L 69.987689 -97.057636 
L 68.927095 -97.057636 
L 67.866501 -97.057636 
L 66.805906 -97.057636 
L 65.745312 -97.057636 
L 64.684718 -97.057636 
L 63.624124 -97.057636 
L 62.56353 -97.057636 
L 61.502935 -97.057636 
L 60.442341 -97.057636 
L 59.381747 -97.057636 
L 58.321153 -97.057636 
L 57.260559 -97.057636 
L 56.199964 -97.057636 
L 55.13937 -97.057636 
L 54.078776 -97.057636 
L 53.018182 -97.057636 
z
"/>
    </defs>
    <g clip-path="url(#pce8ebc24a9)">
     <use xlink:href="#m30f3992fdc" x="0" y="504" style="fill: #aec7e8; fill-opacity: 0.35"/>
    </g>
   </g>
   <g id="line2d_9">
    <path d="M 53.018182 405.98905 
L 65.745312 405.888123 
L 74.230066 405.596966 
L 80.593631 405.215381 
L 85.896602 404.723862 
L 90.138979 404.155203 
L 94.381356 403.387974 
L 98.623732 402.36545 
L 102.866109 401.103189 
L 108.16908 399.255224 
L 115.59324 396.337472 
L 130.441558 390.166921 
L 136.805124 387.328573 
L 139.986906 385.737331 
L 143.168689 383.944821 
L 146.350471 381.878415 
L 149.532254 379.475555 
L 152.714037 376.650593 
L 155.895819 373.468429 
L 159.077602 369.929344 
L 163.319979 364.758175 
L 169.683544 356.568064 
L 174.986515 349.776471 
L 181.35008 341.962228 
L 191.956022 329.305772 
L 196.198399 323.74867 
L 199.380181 319.168844 
L 202.561964 314.125548 
L 205.743747 308.520005 
L 208.925529 302.489354 
L 212.107312 296.003666 
L 216.349689 286.750845 
L 221.65266 274.538506 
L 228.016225 259.304892 
L 239.682761 231.148899 
L 242.864544 224.03563 
L 246.046326 217.386789 
L 249.228109 211.145307 
L 252.409891 205.336887 
L 265.137022 182.747484 
L 272.561181 168.816375 
L 275.742964 163.350106 
L 277.864152 160.052819 
L 279.985341 157.133881 
L 282.106529 154.56076 
L 284.227717 152.446144 
L 286.348906 150.673599 
L 288.470094 149.20458 
L 291.651877 147.33819 
L 298.015442 143.945456 
L 302.257819 141.234863 
L 305.439601 138.86872 
L 310.742572 134.777591 
L 312.863761 133.204474 
L 314.984949 131.873978 
L 317.106138 130.844369 
L 319.227326 130.11564 
L 321.348514 129.789636 
L 323.469703 129.916077 
L 324.530297 130.131498 
L 325.590891 130.465678 
L 327.71208 131.491657 
L 329.833268 132.994262 
L 331.954457 134.984453 
L 334.075645 137.385074 
L 336.196833 140.148657 
L 338.318022 143.212764 
L 341.499804 148.323477 
L 344.681587 153.816219 
L 358.469312 178.575688 
L 371.196442 200.92623 
L 376.499413 210.903922 
L 381.802384 221.448015 
L 389.226543 236.886226 
L 406.196051 273.03975 
L 422.104964 307.0167 
L 428.468529 319.881383 
L 433.7715 329.961087 
L 438.013877 337.548536 
L 441.195659 342.86668 
L 445.438036 349.456758 
L 448.619819 353.940646 
L 451.801601 358.042556 
L 454.983384 361.78721 
L 458.165166 365.205046 
L 461.346949 368.350865 
L 465.589326 372.177893 
L 468.771108 374.837682 
L 474.074079 378.906403 
L 478.316456 381.894657 
L 482.558833 384.569321 
L 486.80121 386.942657 
L 491.043587 389.04041 
L 495.285963 390.897211 
L 503.770717 394.176739 
L 516.497847 398.807852 
L 521.800818 400.524015 
L 526.043195 401.722702 
L 530.285572 402.704412 
L 534.527949 403.472446 
L 539.83092 404.172256 
L 546.194485 404.728383 
L 558.921615 405.523354 
L 572.70934 406.222691 
L 580.133499 406.364357 
L 592.86063 406.29636 
L 594.981818 406.287421 
L 594.981818 406.287421 
" clip-path="url(#pce8ebc24a9)" style="fill: none; stroke: #aec7e8; stroke-width: 1.5; stroke-linecap: round"/>
   </g>
   <g id="line2d_10">
    <path d="M 191.110096 401.122156 
L 436.280177 401.122156 
" clip-path="url(#pce8ebc24a9)" style="fill: none; stroke: #aec7e8; stroke-width: 3.5; stroke-linecap: round"/>
   </g>
   <g id="patch_3">
    <path d="M 25.92 420.8 
L 622.08 420.8 
" style="fill: none; stroke: #333333; stroke-width: 1.5; stroke-linejoin: miter; stroke-linecap: square"/>
   </g>
   <g id="text_4">
    <!-- $x_1^2$ -->
    <g style="fill: #262626" transform="translate(281.82 94.652)">
     <text>
      <tspan x="0" y="-0.421875" style="font-style: oblique; font-size: 76px; font-family: 'DejaVu Sans'; fill: #262626">x</tspan>
      <tspan x="44.976562" y="20.359375" style="font-size: 53.2px; font-family: 'DejaVu Sans'; fill: #262626">1</tspan>
      <tspan x="48.370833" y="-29.515625" style="font-size: 53.2px; font-family: 'DejaVu Sans'; fill: #262626">2</tspan>
     </text>
    </g>
   </g>
  </g>
 </g>
 <defs>
  <clipPath id="pce8ebc24a9">
   <rect x="25.92" y="115.932" width="596.16" height="304.868"/>
  </clipPath>
 </defs>
</svg>
