<?xml version="1.0" encoding="utf-8" standalone="no"?>
<!DOCTYPE svg PUBLIC "-//W3C//DTD SVG 1.1//EN"
  "http://www.w3.org/Graphics/SVG/1.1/DTD/svg11.dtd">
<svg xmlns:xlink="http://www.w3.org/1999/xlink" width="648pt" height="504pt" viewBox="0 0 648 504" xmlns="http://www.w3.org/2000/svg" version="1.1">
 <metadata>
  <rdf:RDF xmlns:dc="http://purl.org/dc/elements/1.1/" xmlns:cc="http://creativecommons.org/ns#" xmlns:rdf="http://www.w3.org/1999/02/22-rdf-syntax-ns#">
   <cc:Work>
    <dc:type rdf:resource="http://purl.org/dc/dcmitype/StillImage"/>
    <dc:date>2026-02-22T16:15:36.036870</dc:date>
    <dc:format>image/svg+xml</dc:format>
    <dc:creator>
     <cc:Agent>
      <dc:title>Matplotlib v3.10.6, https://matplotlib.org/</dc:title>
     </cc:Agent>
    </dc:creator>
   </cc:Work>
  </rdf:RDF>
 </metadata>
 <defs>
  <style type="text/css">*{stroke-linejoin: round; stroke-linecap: butt}</style>
 </defs>
 <g id="figure_1">
  <g id="patch_1">
   <path d="M 0 504 
L 648 504 
L 648 0 
L 0 0 
L 0 504 
z
" style="fill: none; opacity: 0"/>
  </g>
  <g id="axes_1">
   <g id="patch_2">
    <path d="M 25.92 420.8 
L 622.08 420.8 
L 622.08 115.932 
L 25.92 115.932 
L 25.92 420.8 
z
" style="fill: none"/>
   </g>
   <g id="matplotlib.axis_1">
    <g id="xtick_1">
     <g id="line2d_1">
      <path d="M 98.722486 420.8 
L 98.722486 115.932 
" clip-path="url(#p65fc62c7ec)" style="fill: none; stroke: #ffffff; stroke-opacity: 0.4; stroke-linecap: round"/>
     </g>
     <g id="line2d_2"/>
     <g id="text_1">
      <text style="font-size: 52px; font-family: 'DejaVu Serif', 'Times New Roman', serif; text-anchor: middle; fill: #262626" x="98.722486" y="467.311875" transform="rotate(-0 98.722486 467.311875)">−10</text>
     </g>
    </g>
    <g id="xtick_2">
     <g id="line2d_3">
      <path d="M 326.116785 420.8 
L 326.116785 115.932 
" clip-path="url(#p65fc62c7ec)" style="fill: none; stroke: #ffffff; stroke-opacity: 0.4; stroke-linecap: round"/>
     </g>
     <g id="line2d_4"/>
     <g id="text_2">
      <text style="font-size: 52px; font-family: 'DejaVu Serif', 'Times New Roman', serif; text-anchor: middle; fill: #262626" x="326.116785" y="467.311875" transform="rotate(-0 326.116785 467.311875)">0</text>
     </g>
    </g>
    <g id="xtick_3">
     <g id="line2d_5">
      <path d="M 553.511084 420.8 
L 553.511084 115.932 
" clip-path="url(#p65fc62c7ec)" style="fill: none; stroke: #ffffff; stroke-opacity: 0.4; stroke-linecap: round"/>
     </g>
     <g id="line2d_6"/>
     <g id="text_3">
      <text style="font-size: 52px; font-family: 'DejaVu Serif', 'Times New Roman', serif; text-anchor: middle; fill: #262626" x="553.511084" y="467.311875" transform="rotate(-0 553.511084 467.311875)">10</text>
     </g>
    </g>
   </g>
   <g id="matplotlib.axis_2">
    <g id="ytick_1">
     <g id="line2d_7">
      <path d="M 25.92 406.942364 
L 622.08 406.942364 
" clip-path="url(#p65fc62c7ec)" style="fill: none; stroke: #ffffff; stroke-opacity: 0.4; stroke-linecap: round"/>
     </g>
    </g>
    <g id="ytick_2">
     <g id="line2d_8">
      <path d="M 25.92 175.423795 
L 622.08 175.423795 
" clip-path="url(#p65fc62c7ec)" style="fill: none; stroke: #ffffff; stroke-opacity: 0.4; stroke-linecap: round"/>
     </g>
    </g>
   </g>
   <g id="FillBetweenPolyCollection_1">
    <defs>
     <path id="m2bdebd432a" d="M 53.018182 -97.057636 
L 53.018182 -97.952012 
L 54.078776 -97.952947 
L 55.13937 -97.955784 
L 56.199964 -97.96332 
L 57.260559 -97.968965 
L 58.321153 -97.978228 
L 59.381747 -97.996107 
L 60.442341 -98.012953 
L 61.502935 -98.035962 
L 62.56353 -98.06287 
L 63.624124 -98.094072 
L 64.684718 -98.135304 
L 65.745312 -98.177542 
L 66.805906 -98.225224 
L 67.866501 -98.278499 
L 68.927095 -98.335309 
L 69.987689 -98.39816 
L 71.048283 -98.46886 
L 72.108877 -98.544442 
L 73.169472 -98.627206 
L 74.230066 -98.714681 
L 75.29066 -98.803714 
L 76.351254 -98.895728 
L 77.411848 -98.992662 
L 78.472443 -99.091735 
L 79.533037 -99.189545 
L 80.593631 -99.287335 
L 81.654225 -99.38963 
L 82.714819 -99.486269 
L 83.775414 -99.580665 
L 84.836008 -99.674774 
L 85.896602 -99.763264 
L 86.957196 -99.847649 
L 88.01779 -99.930121 
L 89.078385 -100.00562 
L 90.138979 -100.07595 
L 91.199573 -100.140918 
L 92.260167 -100.203121 
L 93.320761 -100.268692 
L 94.381356 -100.321842 
L 95.44195 -100.369193 
L 96.502544 -100.415251 
L 97.563138 -100.460539 
L 98.623732 -100.503672 
L 99.684327 -100.548123 
L 100.744921 -100.598156 
L 101.805515 -100.640111 
L 102.866109 -100.688616 
L 103.926703 -100.740598 
L 104.987298 -100.799905 
L 106.047892 -100.863058 
L 107.108486 -100.933364 
L 108.16908 -101.012036 
L 109.229674 -101.097585 
L 110.290269 -101.198557 
L 111.350863 -101.306659 
L 112.411457 -101.432488 
L 113.472051 -101.570388 
L 114.532645 -101.718136 
L 115.59324 -101.886045 
L 116.653834 -102.065416 
L 117.714428 -102.271745 
L 118.775022 -102.492177 
L 119.835616 -102.732077 
L 120.896211 -102.984401 
L 121.956805 -103.262836 
L 123.017399 -103.563281 
L 124.077993 -103.880973 
L 125.138587 -104.220398 
L 126.199182 -104.579057 
L 127.259776 -104.96173 
L 128.32037 -105.355594 
L 129.380964 -105.761021 
L 130.441558 -106.18868 
L 131.502153 -106.620671 
L 132.562747 -107.080055 
L 133.623341 -107.548945 
L 134.683935 -108.032659 
L 135.744529 -108.5176 
L 136.805124 -109.019175 
L 137.865718 -109.517163 
L 138.926312 -110.019138 
L 139.986906 -110.52386 
L 141.0475 -111.027606 
L 142.108095 -111.551033 
L 143.168689 -112.071146 
L 144.229283 -112.585955 
L 145.289877 -113.107486 
L 146.350471 -113.640557 
L 147.411066 -114.168278 
L 148.47166 -114.710633 
L 149.532254 -115.267637 
L 150.592848 -115.835055 
L 151.653442 -116.409663 
L 152.714037 -117.005644 
L 153.774631 -117.618907 
L 154.835225 -118.248805 
L 155.895819 -118.910461 
L 156.956413 -119.597925 
L 158.017008 -120.309399 
L 159.077602 -121.060734 
L 160.138196 -121.834913 
L 161.19879 -122.644191 
L 162.259384 -123.488732 
L 163.319979 -124.39253 
L 164.380573 -125.306707 
L 165.441167 -126.258412 
L 166.501761 -127.254133 
L 167.562355 -128.277165 
L 168.62295 -129.329655 
L 169.683544 -130.411315 
L 170.744138 -131.520808 
L 171.804732 -132.653493 
L 172.865326 -133.814283 
L 173.925921 -134.975895 
L 174.986515 -136.166886 
L 176.047109 -137.3536 
L 177.107703 -138.561061 
L 178.168297 -139.779579 
L 179.228892 -141.016227 
L 180.289486 -142.244381 
L 181.35008 -143.476309 
L 182.410674 -144.709347 
L 183.471268 -145.96319 
L 184.531863 -147.222152 
L 185.592457 -148.498886 
L 186.653051 -149.785164 
L 187.713645 -151.07994 
L 188.774239 -152.396839 
L 189.834834 -153.757468 
L 190.895428 -155.138073 
L 191.956022 -156.552408 
L 193.016616 -157.991389 
L 194.07721 -159.471182 
L 195.137805 -160.960178 
L 196.198399 -162.514652 
L 197.258993 -164.103508 
L 198.319587 -165.726069 
L 199.380181 -167.3809 
L 200.440776 -169.056244 
L 201.50137 -170.766405 
L 202.561964 -172.517125 
L 203.622558 -174.291487 
L 204.683152 -176.082831 
L 205.743747 -177.875218 
L 206.804341 -179.698322 
L 207.864935 -181.534709 
L 208.925529 -183.369166 
L 209.986123 -185.243233 
L 211.046718 -187.11741 
L 212.107312 -188.991593 
L 213.167906 -190.883538 
L 214.2285 -192.76986 
L 215.289094 -194.690094 
L 216.349689 -196.621623 
L 217.410283 -198.551842 
L 218.470877 -200.517639 
L 219.531471 -202.507674 
L 220.592065 -204.540819 
L 221.65266 -206.603331 
L 222.713254 -208.670554 
L 223.773848 -210.784721 
L 224.834442 -212.920191 
L 225.895036 -215.096337 
L 226.955631 -217.314748 
L 228.016225 -219.562664 
L 229.076819 -221.856711 
L 230.137413 -224.165727 
L 231.198007 -226.505437 
L 232.258602 -228.870093 
L 233.319196 -231.235134 
L 234.37979 -233.620892 
L 235.440384 -236.024592 
L 236.500978 -238.437008 
L 237.561573 -240.828762 
L 238.622167 -243.207448 
L 239.682761 -245.595291 
L 240.743355 -247.995888 
L 241.803949 -250.375405 
L 242.864544 -252.718367 
L 243.925138 -255.044644 
L 244.985732 -257.320838 
L 246.046326 -259.575151 
L 247.10692 -261.797507 
L 248.167515 -263.988903 
L 249.228109 -266.120934 
L 250.288703 -268.227009 
L 251.349297 -270.309152 
L 252.409891 -272.313163 
L 253.470486 -274.253526 
L 254.53108 -276.162111 
L 255.591674 -278.008751 
L 256.652268 -279.776548 
L 257.712862 -281.464549 
L 258.773457 -283.101197 
L 259.834051 -284.690719 
L 260.894645 -286.19193 
L 261.955239 -287.622079 
L 263.015833 -288.981108 
L 264.076428 -290.296557 
L 265.137022 -291.562009 
L 266.197616 -292.736098 
L 267.25821 -293.898901 
L 268.318804 -295.010483 
L 269.379399 -296.096238 
L 270.439993 -297.203864 
L 271.500587 -298.313527 
L 272.561181 -299.400859 
L 273.621775 -300.538347 
L 274.68237 -301.688669 
L 275.742964 -302.912678 
L 276.803558 -304.163323 
L 277.864152 -305.507232 
L 278.924746 -306.909515 
L 279.985341 -308.394105 
L 281.045935 -309.942564 
L 282.106529 -311.617618 
L 283.167123 -313.404217 
L 284.227717 -315.271991 
L 285.288312 -317.219302 
L 286.348906 -319.271742 
L 287.4095 -321.438547 
L 288.470094 -323.684677 
L 289.530688 -325.967073 
L 290.591283 -328.321857 
L 291.651877 -330.729805 
L 292.712471 -333.168513 
L 293.773065 -335.654521 
L 294.833659 -338.16541 
L 295.894254 -340.656313 
L 296.954848 -343.143492 
L 298.015442 -345.621751 
L 299.076036 -348.021914 
L 300.13663 -350.416498 
L 301.197225 -352.737379 
L 302.257819 -354.953562 
L 303.318413 -357.075975 
L 304.379007 -359.10377 
L 305.439601 -361.039727 
L 306.500196 -362.829992 
L 307.56079 -364.495921 
L 308.621384 -366.032071 
L 309.681978 -367.434759 
L 310.742572 -368.685059 
L 311.803167 -369.781174 
L 312.863761 -370.779744 
L 313.924355 -371.636221 
L 314.984949 -372.345714 
L 316.045543 -372.956471 
L 317.106138 -373.411836 
L 318.166732 -373.748262 
L 319.227326 -373.993331 
L 320.28792 -374.145898 
L 321.348514 -374.210364 
L 322.409109 -374.187448 
L 323.469703 -374.079354 
L 324.530297 -373.925595 
L 325.590891 -373.767572 
L 326.651486 -373.526983 
L 327.71208 -373.291173 
L 328.772674 -373.010254 
L 329.833268 -372.724196 
L 330.893862 -372.432149 
L 331.954457 -372.140619 
L 333.015051 -371.827302 
L 334.075645 -371.507404 
L 335.136239 -371.223945 
L 336.196833 -370.907587 
L 337.257428 -370.585735 
L 338.318022 -370.274305 
L 339.378616 -369.989355 
L 340.43921 -369.679401 
L 341.499804 -369.354768 
L 342.560399 -368.954536 
L 343.620993 -368.570998 
L 344.681587 -368.157375 
L 345.742181 -367.716204 
L 346.802775 -367.240506 
L 347.86337 -366.70439 
L 348.923964 -366.161039 
L 349.984558 -365.547235 
L 351.045152 -364.879861 
L 352.105746 -364.180219 
L 353.166341 -363.36199 
L 354.226935 -362.512603 
L 355.287529 -361.628687 
L 356.348123 -360.697056 
L 357.408717 -359.715726 
L 358.469312 -358.706279 
L 359.529906 -357.651368 
L 360.5905 -356.528647 
L 361.651094 -355.334003 
L 362.711688 -354.103723 
L 363.772283 -352.830505 
L 364.832877 -351.46821 
L 365.893471 -350.073202 
L 366.954065 -348.612188 
L 368.014659 -347.085557 
L 369.075254 -345.492382 
L 370.135848 -343.782167 
L 371.196442 -342.024737 
L 372.257036 -340.213251 
L 373.31763 -338.283176 
L 374.378225 -336.267357 
L 375.438819 -334.138837 
L 376.499413 -331.902912 
L 377.560007 -329.594142 
L 378.620601 -327.177223 
L 379.681196 -324.6716 
L 380.74179 -322.034178 
L 381.802384 -319.371326 
L 382.862978 -316.585238 
L 383.923572 -313.732502 
L 384.984167 -310.815128 
L 386.044761 -307.846622 
L 387.105355 -304.819988 
L 388.165949 -301.746087 
L 389.226543 -298.644742 
L 390.287138 -295.531831 
L 391.347732 -292.411804 
L 392.408326 -289.28364 
L 393.46892 -286.166649 
L 394.529514 -283.081653 
L 395.590109 -280.01822 
L 396.650703 -277.008353 
L 397.711297 -274.046829 
L 398.771891 -271.129464 
L 399.832485 -268.306524 
L 400.89308 -265.512992 
L 401.953674 -262.776944 
L 403.014268 -260.117921 
L 404.074862 -257.521062 
L 405.135456 -254.978278 
L 406.196051 -252.498381 
L 407.256645 -250.078983 
L 408.317239 -247.708366 
L 409.377833 -245.433392 
L 410.438427 -243.190393 
L 411.499022 -240.974818 
L 412.559616 -238.81071 
L 413.62021 -236.670012 
L 414.680804 -234.555888 
L 415.741398 -232.476317 
L 416.801993 -230.404793 
L 417.862587 -228.349088 
L 418.923181 -226.318233 
L 419.983775 -224.280312 
L 421.044369 -222.229688 
L 422.104964 -220.166892 
L 423.165558 -218.121449 
L 424.226152 -216.05371 
L 425.286746 -214.007172 
L 426.34734 -211.91478 
L 427.407935 -209.820604 
L 428.468529 -207.718623 
L 429.529123 -205.582554 
L 430.589717 -203.470902 
L 431.650311 -201.339991 
L 432.710906 -199.212345 
L 433.7715 -197.096396 
L 434.832094 -194.978219 
L 435.892688 -192.899476 
L 436.953282 -190.82152 
L 438.013877 -188.768175 
L 439.074471 -186.714234 
L 440.135065 -184.719158 
L 441.195659 -182.718823 
L 442.256253 -180.788366 
L 443.316848 -178.89955 
L 444.377442 -177.067725 
L 445.438036 -175.263875 
L 446.49863 -173.504935 
L 447.559224 -171.785502 
L 448.619819 -170.083568 
L 449.680413 -168.453734 
L 450.741007 -166.864958 
L 451.801601 -165.314067 
L 452.862195 -163.81913 
L 453.92279 -162.3523 
L 454.983384 -160.913314 
L 456.043978 -159.520593 
L 457.104572 -158.15578 
L 458.165166 -156.812903 
L 459.225761 -155.510438 
L 460.286355 -154.210937 
L 461.346949 -152.957155 
L 462.407543 -151.72018 
L 463.468137 -150.497091 
L 464.528732 -149.292574 
L 465.589326 -148.117444 
L 466.64992 -146.958455 
L 467.710514 -145.836675 
L 468.771108 -144.714041 
L 469.831703 -143.612983 
L 470.892297 -142.542834 
L 471.952891 -141.477676 
L 473.013485 -140.405907 
L 474.074079 -139.349136 
L 475.134674 -138.305031 
L 476.195268 -137.277273 
L 477.255862 -136.239597 
L 478.316456 -135.205115 
L 479.37705 -134.16926 
L 480.437645 -133.151552 
L 481.498239 -132.140426 
L 482.558833 -131.122906 
L 483.619427 -130.127037 
L 484.680021 -129.121275 
L 485.740616 -128.122697 
L 486.80121 -127.120597 
L 487.861804 -126.130689 
L 488.922398 -125.153662 
L 489.982992 -124.177538 
L 491.043587 -123.204467 
L 492.104181 -122.239039 
L 493.164775 -121.285731 
L 494.225369 -120.361031 
L 495.285963 -119.448709 
L 496.346558 -118.553335 
L 497.407152 -117.681522 
L 498.467746 -116.825688 
L 499.52834 -115.99707 
L 500.588934 -115.187886 
L 501.649529 -114.414848 
L 502.710123 -113.653185 
L 503.770717 -112.922079 
L 504.831311 -112.228119 
L 505.891905 -111.547046 
L 506.9525 -110.908939 
L 508.013094 -110.298868 
L 509.073688 -109.730365 
L 510.134282 -109.176037 
L 511.194876 -108.660114 
L 512.255471 -108.176489 
L 513.316065 -107.714467 
L 514.376659 -107.28604 
L 515.437253 -106.893925 
L 516.497847 -106.52937 
L 517.558442 -106.188812 
L 518.619036 -105.880031 
L 519.67963 -105.585505 
L 520.740224 -105.312164 
L 521.800818 -105.073889 
L 522.861413 -104.844773 
L 523.922007 -104.635714 
L 524.982601 -104.440014 
L 526.043195 -104.259816 
L 527.103789 -104.0842 
L 528.164384 -103.925282 
L 529.224978 -103.775284 
L 530.285572 -103.63203 
L 531.346166 -103.487264 
L 532.40676 -103.34488 
L 533.467355 -103.205657 
L 534.527949 -103.063797 
L 535.588543 -102.923161 
L 536.649137 -102.776252 
L 537.709731 -102.627811 
L 538.770326 -102.481606 
L 539.83092 -102.334368 
L 540.891514 -102.188481 
L 541.952108 -102.037108 
L 543.012702 -101.880843 
L 544.073297 -101.7208 
L 545.133891 -101.562213 
L 546.194485 -101.405092 
L 547.255079 -101.245372 
L 548.315673 -101.08422 
L 549.376268 -100.924749 
L 550.436862 -100.767957 
L 551.497456 -100.618431 
L 552.55805 -100.468703 
L 553.618644 -100.317684 
L 554.679239 -100.177769 
L 555.739833 -100.044055 
L 556.800427 -99.909631 
L 557.861021 -99.781672 
L 558.921615 -99.657853 
L 559.98221 -99.541201 
L 561.042804 -99.427365 
L 562.103398 -99.318748 
L 563.163992 -99.215638 
L 564.224586 -99.116212 
L 565.285181 -99.023312 
L 566.345775 -98.934991 
L 567.406369 -98.858175 
L 568.466963 -98.787757 
L 569.527557 -98.726679 
L 570.588152 -98.668383 
L 571.648746 -98.6156 
L 572.70934 -98.570896 
L 573.769934 -98.538299 
L 574.830528 -98.510347 
L 575.891123 -98.491637 
L 576.951717 -98.477217 
L 578.012311 -98.47149 
L 579.072905 -98.469308 
L 580.133499 -98.472786 
L 581.194094 -98.481268 
L 582.254688 -98.494028 
L 583.315282 -98.510281 
L 584.375876 -98.531294 
L 585.43647 -98.553623 
L 586.497065 -98.579179 
L 587.557659 -98.602507 
L 588.618253 -98.627621 
L 589.678847 -98.647017 
L 590.739441 -98.666779 
L 591.800036 -98.681507 
L 592.86063 -98.695345 
L 593.921224 -98.705178 
L 594.981818 -98.713379 
L 594.981818 -97.057636 
L 594.981818 -97.057636 
L 593.921224 -97.057636 
L 592.86063 -97.057636 
L 591.800036 -97.057636 
L 590.739441 -97.057636 
L 589.678847 -97.057636 
L 588.618253 -97.057636 
L 587.557659 -97.057636 
L 586.497065 -97.057636 
L 585.43647 -97.057636 
L 584.375876 -97.057636 
L 583.315282 -97.057636 
L 582.254688 -97.057636 
L 581.194094 -97.057636 
L 580.133499 -97.057636 
L 579.072905 -97.057636 
L 578.012311 -97.057636 
L 576.951717 -97.057636 
L 575.891123 -97.057636 
L 574.830528 -97.057636 
L 573.769934 -97.057636 
L 572.70934 -97.057636 
L 571.648746 -97.057636 
L 570.588152 -97.057636 
L 569.527557 -97.057636 
L 568.466963 -97.057636 
L 567.406369 -97.057636 
L 566.345775 -97.057636 
L 565.285181 -97.057636 
L 564.224586 -97.057636 
L 563.163992 -97.057636 
L 562.103398 -97.057636 
L 561.042804 -97.057636 
L 559.98221 -97.057636 
L 558.921615 -97.057636 
L 557.861021 -97.057636 
L 556.800427 -97.057636 
L 555.739833 -97.057636 
L 554.679239 -97.057636 
L 553.618644 -97.057636 
L 552.55805 -97.057636 
L 551.497456 -97.057636 
L 550.436862 -97.057636 
L 549.376268 -97.057636 
L 548.315673 -97.057636 
L 547.255079 -97.057636 
L 546.194485 -97.057636 
L 545.133891 -97.057636 
L 544.073297 -97.057636 
L 543.012702 -97.057636 
L 541.952108 -97.057636 
L 540.891514 -97.057636 
L 539.83092 -97.057636 
L 538.770326 -97.057636 
L 537.709731 -97.057636 
L 536.649137 -97.057636 
L 535.588543 -97.057636 
L 534.527949 -97.057636 
L 533.467355 -97.057636 
L 532.40676 -97.057636 
L 531.346166 -97.057636 
L 530.285572 -97.057636 
L 529.224978 -97.057636 
L 528.164384 -97.057636 
L 527.103789 -97.057636 
L 526.043195 -97.057636 
L 524.982601 -97.057636 
L 523.922007 -97.057636 
L 522.861413 -97.057636 
L 521.800818 -97.057636 
L 520.740224 -97.057636 
L 519.67963 -97.057636 
L 518.619036 -97.057636 
L 517.558442 -97.057636 
L 516.497847 -97.057636 
L 515.437253 -97.057636 
L 514.376659 -97.057636 
L 513.316065 -97.057636 
L 512.255471 -97.057636 
L 511.194876 -97.057636 
L 510.134282 -97.057636 
L 509.073688 -97.057636 
L 508.013094 -97.057636 
L 506.9525 -97.057636 
L 505.891905 -97.057636 
L 504.831311 -97.057636 
L 503.770717 -97.057636 
L 502.710123 -97.057636 
L 501.649529 -97.057636 
L 500.588934 -97.057636 
L 499.52834 -97.057636 
L 498.467746 -97.057636 
L 497.407152 -97.057636 
L 496.346558 -97.057636 
L 495.285963 -97.057636 
L 494.225369 -97.057636 
L 493.164775 -97.057636 
L 492.104181 -97.057636 
L 491.043587 -97.057636 
L 489.982992 -97.057636 
L 488.922398 -97.057636 
L 487.861804 -97.057636 
L 486.80121 -97.057636 
L 485.740616 -97.057636 
L 484.680021 -97.057636 
L 483.619427 -97.057636 
L 482.558833 -97.057636 
L 481.498239 -97.057636 
L 480.437645 -97.057636 
L 479.37705 -97.057636 
L 478.316456 -97.057636 
L 477.255862 -97.057636 
L 476.195268 -97.057636 
L 475.134674 -97.057636 
L 474.074079 -97.057636 
L 473.013485 -97.057636 
L 471.952891 -97.057636 
L 470.892297 -97.057636 
L 469.831703 -97.057636 
L 468.771108 -97.057636 
L 467.710514 -97.057636 
L 466.64992 -97.057636 
L 465.589326 -97.057636 
L 464.528732 -97.057636 
L 463.468137 -97.057636 
L 462.407543 -97.057636 
L 461.346949 -97.057636 
L 460.286355 -97.057636 
L 459.225761 -97.057636 
L 458.165166 -97.057636 
L 457.104572 -97.057636 
L 456.043978 -97.057636 
L 454.983384 -97.057636 
L 453.92279 -97.057636 
L 452.862195 -97.057636 
L 451.801601 -97.057636 
L 450.741007 -97.057636 
L 449.680413 -97.057636 
L 448.619819 -97.057636 
L 447.559224 -97.057636 
L 446.49863 -97.057636 
L 445.438036 -97.057636 
L 444.377442 -97.057636 
L 443.316848 -97.057636 
L 442.256253 -97.057636 
L 441.195659 -97.057636 
L 440.135065 -97.057636 
L 439.074471 -97.057636 
L 438.013877 -97.057636 
L 436.953282 -97.057636 
L 435.892688 -97.057636 
L 434.832094 -97.057636 
L 433.7715 -97.057636 
L 432.710906 -97.057636 
L 431.650311 -97.057636 
L 430.589717 -97.057636 
L 429.529123 -97.057636 
L 428.468529 -97.057636 
L 427.407935 -97.057636 
L 426.34734 -97.057636 
L 425.286746 -97.057636 
L 424.226152 -97.057636 
L 423.165558 -97.057636 
L 422.104964 -97.057636 
L 421.044369 -97.057636 
L 419.983775 -97.057636 
L 418.923181 -97.057636 
L 417.862587 -97.057636 
L 416.801993 -97.057636 
L 415.741398 -97.057636 
L 414.680804 -97.057636 
L 413.62021 -97.057636 
L 412.559616 -97.057636 
L 411.499022 -97.057636 
L 410.438427 -97.057636 
L 409.377833 -97.057636 
L 408.317239 -97.057636 
L 407.256645 -97.057636 
L 406.196051 -97.057636 
L 405.135456 -97.057636 
L 404.074862 -97.057636 
L 403.014268 -97.057636 
L 401.953674 -97.057636 
L 400.89308 -97.057636 
L 399.832485 -97.057636 
L 398.771891 -97.057636 
L 397.711297 -97.057636 
L 396.650703 -97.057636 
L 395.590109 -97.057636 
L 394.529514 -97.057636 
L 393.46892 -97.057636 
L 392.408326 -97.057636 
L 391.347732 -97.057636 
L 390.287138 -97.057636 
L 389.226543 -97.057636 
L 388.165949 -97.057636 
L 387.105355 -97.057636 
L 386.044761 -97.057636 
L 384.984167 -97.057636 
L 383.923572 -97.057636 
L 382.862978 -97.057636 
L 381.802384 -97.057636 
L 380.74179 -97.057636 
L 379.681196 -97.057636 
L 378.620601 -97.057636 
L 377.560007 -97.057636 
L 376.499413 -97.057636 
L 375.438819 -97.057636 
L 374.378225 -97.057636 
L 373.31763 -97.057636 
L 372.257036 -97.057636 
L 371.196442 -97.057636 
L 370.135848 -97.057636 
L 369.075254 -97.057636 
L 368.014659 -97.057636 
L 366.954065 -97.057636 
L 365.893471 -97.057636 
L 364.832877 -97.057636 
L 363.772283 -97.057636 
L 362.711688 -97.057636 
L 361.651094 -97.057636 
L 360.5905 -97.057636 
L 359.529906 -97.057636 
L 358.469312 -97.057636 
L 357.408717 -97.057636 
L 356.348123 -97.057636 
L 355.287529 -97.057636 
L 354.226935 -97.057636 
L 353.166341 -97.057636 
L 352.105746 -97.057636 
L 351.045152 -97.057636 
L 349.984558 -97.057636 
L 348.923964 -97.057636 
L 347.86337 -97.057636 
L 346.802775 -97.057636 
L 345.742181 -97.057636 
L 344.681587 -97.057636 
L 343.620993 -97.057636 
L 342.560399 -97.057636 
L 341.499804 -97.057636 
L 340.43921 -97.057636 
L 339.378616 -97.057636 
L 338.318022 -97.057636 
L 337.257428 -97.057636 
L 336.196833 -97.057636 
L 335.136239 -97.057636 
L 334.075645 -97.057636 
L 333.015051 -97.057636 
L 331.954457 -97.057636 
L 330.893862 -97.057636 
L 329.833268 -97.057636 
L 328.772674 -97.057636 
L 327.71208 -97.057636 
L 326.651486 -97.057636 
L 325.590891 -97.057636 
L 324.530297 -97.057636 
L 323.469703 -97.057636 
L 322.409109 -97.057636 
L 321.348514 -97.057636 
L 320.28792 -97.057636 
L 319.227326 -97.057636 
L 318.166732 -97.057636 
L 317.106138 -97.057636 
L 316.045543 -97.057636 
L 314.984949 -97.057636 
L 313.924355 -97.057636 
L 312.863761 -97.057636 
L 311.803167 -97.057636 
L 310.742572 -97.057636 
L 309.681978 -97.057636 
L 308.621384 -97.057636 
L 307.56079 -97.057636 
L 306.500196 -97.057636 
L 305.439601 -97.057636 
L 304.379007 -97.057636 
L 303.318413 -97.057636 
L 302.257819 -97.057636 
L 301.197225 -97.057636 
L 300.13663 -97.057636 
L 299.076036 -97.057636 
L 298.015442 -97.057636 
L 296.954848 -97.057636 
L 295.894254 -97.057636 
L 294.833659 -97.057636 
L 293.773065 -97.057636 
L 292.712471 -97.057636 
L 291.651877 -97.057636 
L 290.591283 -97.057636 
L 289.530688 -97.057636 
L 288.470094 -97.057636 
L 287.4095 -97.057636 
L 286.348906 -97.057636 
L 285.288312 -97.057636 
L 284.227717 -97.057636 
L 283.167123 -97.057636 
L 282.106529 -97.057636 
L 281.045935 -97.057636 
L 279.985341 -97.057636 
L 278.924746 -97.057636 
L 277.864152 -97.057636 
L 276.803558 -97.057636 
L 275.742964 -97.057636 
L 274.68237 -97.057636 
L 273.621775 -97.057636 
L 272.561181 -97.057636 
L 271.500587 -97.057636 
L 270.439993 -97.057636 
L 269.379399 -97.057636 
L 268.318804 -97.057636 
L 267.25821 -97.057636 
L 266.197616 -97.057636 
L 265.137022 -97.057636 
L 264.076428 -97.057636 
L 263.015833 -97.057636 
L 261.955239 -97.057636 
L 260.894645 -97.057636 
L 259.834051 -97.057636 
L 258.773457 -97.057636 
L 257.712862 -97.057636 
L 256.652268 -97.057636 
L 255.591674 -97.057636 
L 254.53108 -97.057636 
L 253.470486 -97.057636 
L 252.409891 -97.057636 
L 251.349297 -97.057636 
L 250.288703 -97.057636 
L 249.228109 -97.057636 
L 248.167515 -97.057636 
L 247.10692 -97.057636 
L 246.046326 -97.057636 
L 244.985732 -97.057636 
L 243.925138 -97.057636 
L 242.864544 -97.057636 
L 241.803949 -97.057636 
L 240.743355 -97.057636 
L 239.682761 -97.057636 
L 238.622167 -97.057636 
L 237.561573 -97.057636 
L 236.500978 -97.057636 
L 235.440384 -97.057636 
L 234.37979 -97.057636 
L 233.319196 -97.057636 
L 232.258602 -97.057636 
L 231.198007 -97.057636 
L 230.137413 -97.057636 
L 229.076819 -97.057636 
L 228.016225 -97.057636 
L 226.955631 -97.057636 
L 225.895036 -97.057636 
L 224.834442 -97.057636 
L 223.773848 -97.057636 
L 222.713254 -97.057636 
L 221.65266 -97.057636 
L 220.592065 -97.057636 
L 219.531471 -97.057636 
L 218.470877 -97.057636 
L 217.410283 -97.057636 
L 216.349689 -97.057636 
L 215.289094 -97.057636 
L 214.2285 -97.057636 
L 213.167906 -97.057636 
L 212.107312 -97.057636 
L 211.046718 -97.057636 
L 209.986123 -97.057636 
L 208.925529 -97.057636 
L 207.864935 -97.057636 
L 206.804341 -97.057636 
L 205.743747 -97.057636 
L 204.683152 -97.057636 
L 203.622558 -97.057636 
L 202.561964 -97.057636 
L 201.50137 -97.057636 
L 200.440776 -97.057636 
L 199.380181 -97.057636 
L 198.319587 -97.057636 
L 197.258993 -97.057636 
L 196.198399 -97.057636 
L 195.137805 -97.057636 
L 194.07721 -97.057636 
L 193.016616 -97.057636 
L 191.956022 -97.057636 
L 190.895428 -97.057636 
L 189.834834 -97.057636 
L 188.774239 -97.057636 
L 187.713645 -97.057636 
L 186.653051 -97.057636 
L 185.592457 -97.057636 
L 184.531863 -97.057636 
L 183.471268 -97.057636 
L 182.410674 -97.057636 
L 181.35008 -97.057636 
L 180.289486 -97.057636 
L 179.228892 -97.057636 
L 178.168297 -97.057636 
L 177.107703 -97.057636 
L 176.047109 -97.057636 
L 174.986515 -97.057636 
L 173.925921 -97.057636 
L 172.865326 -97.057636 
L 171.804732 -97.057636 
L 170.744138 -97.057636 
L 169.683544 -97.057636 
L 168.62295 -97.057636 
L 167.562355 -97.057636 
L 166.501761 -97.057636 
L 165.441167 -97.057636 
L 164.380573 -97.057636 
L 163.319979 -97.057636 
L 162.259384 -97.057636 
L 161.19879 -97.057636 
L 160.138196 -97.057636 
L 159.077602 -97.057636 
L 158.017008 -97.057636 
L 156.956413 -97.057636 
L 155.895819 -97.057636 
L 154.835225 -97.057636 
L 153.774631 -97.057636 
L 152.714037 -97.057636 
L 151.653442 -97.057636 
L 150.592848 -97.057636 
L 149.532254 -97.057636 
L 148.47166 -97.057636 
L 147.411066 -97.057636 
L 146.350471 -97.057636 
L 145.289877 -97.057636 
L 144.229283 -97.057636 
L 143.168689 -97.057636 
L 142.108095 -97.057636 
L 141.0475 -97.057636 
L 139.986906 -97.057636 
L 138.926312 -97.057636 
L 137.865718 -97.057636 
L 136.805124 -97.057636 
L 135.744529 -97.057636 
L 134.683935 -97.057636 
L 133.623341 -97.057636 
L 132.562747 -97.057636 
L 131.502153 -97.057636 
L 130.441558 -97.057636 
L 129.380964 -97.057636 
L 128.32037 -97.057636 
L 127.259776 -97.057636 
L 126.199182 -97.057636 
L 125.138587 -97.057636 
L 124.077993 -97.057636 
L 123.017399 -97.057636 
L 121.956805 -97.057636 
L 120.896211 -97.057636 
L 119.835616 -97.057636 
L 118.775022 -97.057636 
L 117.714428 -97.057636 
L 116.653834 -97.057636 
L 115.59324 -97.057636 
L 114.532645 -97.057636 
L 113.472051 -97.057636 
L 112.411457 -97.057636 
L 111.350863 -97.057636 
L 110.290269 -97.057636 
L 109.229674 -97.057636 
L 108.16908 -97.057636 
L 107.108486 -97.057636 
L 106.047892 -97.057636 
L 104.987298 -97.057636 
L 103.926703 -97.057636 
L 102.866109 -97.057636 
L 101.805515 -97.057636 
L 100.744921 -97.057636 
L 99.684327 -97.057636 
L 98.623732 -97.057636 
L 97.563138 -97.057636 
L 96.502544 -97.057636 
L 95.44195 -97.057636 
L 94.381356 -97.057636 
L 93.320761 -97.057636 
L 92.260167 -97.057636 
L 91.199573 -97.057636 
L 90.138979 -97.057636 
L 89.078385 -97.057636 
L 88.01779 -97.057636 
L 86.957196 -97.057636 
L 85.896602 -97.057636 
L 84.836008 -97.057636 
L 83.775414 -97.057636 
L 82.714819 -97.057636 
L 81.654225 -97.057636 
L 80.593631 -97.057636 
L 79.533037 -97.057636 
L 78.472443 -97.057636 
L 77.411848 -97.057636 
L 76.351254 -97.057636 
L 75.29066 -97.057636 
L 74.230066 -97.057636 
L 73.169472 -97.057636 
L 72.108877 -97.057636 
L 71.048283 -97.057636 
L 69.987689 -97.057636 
L 68.927095 -97.057636 
L 67.866501 -97.057636 
L 66.805906 -97.057636 
L 65.745312 -97.057636 
L 64.684718 -97.057636 
L 63.624124 -97.057636 
L 62.56353 -97.057636 
L 61.502935 -97.057636 
L 60.442341 -97.057636 
L 59.381747 -97.057636 
L 58.321153 -97.057636 
L 57.260559 -97.057636 
L 56.199964 -97.057636 
L 55.13937 -97.057636 
L 54.078776 -97.057636 
L 53.018182 -97.057636 
z
"/>
    </defs>
    <g clip-path="url(#p65fc62c7ec)">
     <use xlink:href="#m2bdebd432a" x="0" y="504" style="fill: #ff9896; fill-opacity: 0.35"/>
    </g>
   </g>
   <g id="line2d_9">
    <path d="M 53.018182 406.047988 
L 62.56353 405.93713 
L 68.927095 405.664691 
L 75.29066 405.196286 
L 93.320761 403.731308 
L 110.290269 402.801443 
L 114.532645 402.281864 
L 118.775022 401.507823 
L 123.017399 400.436719 
L 126.199182 399.420943 
L 130.441558 397.81132 
L 134.683935 395.967341 
L 141.0475 392.972394 
L 150.592848 388.164945 
L 154.835225 385.751195 
L 158.017008 383.690601 
L 161.19879 381.355809 
L 164.380573 378.693293 
L 167.562355 375.722835 
L 170.744138 372.479192 
L 174.986515 367.833114 
L 180.289486 361.755619 
L 186.653051 354.214836 
L 190.895428 348.861927 
L 195.137805 343.039822 
L 198.319587 338.273931 
L 202.561964 331.482875 
L 208.925529 320.630834 
L 217.410283 305.448158 
L 221.65266 297.396669 
L 225.895036 288.903663 
L 230.137413 279.834273 
L 236.500978 265.562992 
L 244.985732 246.679162 
L 249.228109 237.879066 
L 252.409891 231.686837 
L 255.591674 225.991249 
L 258.773457 220.898803 
L 260.894645 217.80807 
L 264.076428 213.703443 
L 266.197616 211.263902 
L 269.379399 207.903762 
L 274.68237 202.311331 
L 277.864152 198.492768 
L 279.985341 195.605895 
L 282.106529 192.382382 
L 284.227717 188.728009 
L 286.348906 184.728258 
L 289.530688 178.032927 
L 293.773065 168.345479 
L 299.076036 155.978086 
L 302.257819 149.046438 
L 304.379007 144.89623 
L 306.500196 141.170008 
L 308.621384 137.967929 
L 310.742572 135.314941 
L 312.863761 133.220256 
L 313.924355 132.363779 
L 316.045543 131.043529 
L 318.166732 130.251738 
L 320.28792 129.854102 
L 322.409109 129.812552 
L 325.590891 130.232428 
L 329.833268 131.275804 
L 339.378616 134.010645 
L 342.560399 135.045464 
L 345.742181 136.283796 
L 347.86337 137.29561 
L 349.984558 138.452765 
L 352.105746 139.819781 
L 355.287529 142.371313 
L 358.469312 145.293721 
L 360.5905 147.471353 
L 363.772283 151.169495 
L 366.954065 155.387812 
L 369.075254 158.507618 
L 372.257036 163.786749 
L 374.378225 167.732643 
L 376.499413 172.097088 
L 378.620601 176.822777 
L 380.74179 181.965822 
L 382.862978 187.414762 
L 386.044761 196.153378 
L 391.347732 211.588196 
L 396.650703 226.991647 
L 399.832485 235.693476 
L 403.014268 243.882079 
L 406.196051 251.501619 
L 409.377833 258.566608 
L 413.62021 267.329988 
L 418.923181 277.681767 
L 427.407935 294.179396 
L 441.195659 321.281177 
L 444.377442 326.932275 
L 447.559224 332.214498 
L 450.741007 337.135042 
L 453.92279 341.6477 
L 457.104572 345.84422 
L 461.346949 351.042845 
L 465.589326 355.882556 
L 469.831703 360.387017 
L 478.316456 368.794885 
L 484.680021 374.878725 
L 492.104181 381.760961 
L 496.346558 385.446665 
L 500.588934 388.812114 
L 504.831311 391.771881 
L 508.013094 393.701132 
L 511.194876 395.339886 
L 514.376659 396.71396 
L 517.558442 397.811188 
L 520.740224 398.687836 
L 524.982601 399.559986 
L 530.285572 400.36797 
L 549.376268 403.075251 
L 557.861021 404.218328 
L 565.285181 404.976688 
L 570.588152 405.331617 
L 575.891123 405.508363 
L 582.254688 405.505972 
L 594.981818 405.286621 
L 594.981818 405.286621 
" clip-path="url(#p65fc62c7ec)" style="fill: none; stroke: #ff9896; stroke-width: 1.5; stroke-linecap: round"/>
   </g>
   <g id="line2d_10">
    <path d="M 206.730159 401.122156 
L 451.215363 401.122156 
" clip-path="url(#p65fc62c7ec)" style="fill: none; stroke: #ff9896; stroke-width: 3.5; stroke-linecap: round"/>
   </g>
   <g id="patch_3">
    <path d="M 25.92 420.8 
L 622.08 420.8 
" style="fill: none; stroke: #333333; stroke-width: 1.5; stroke-linejoin: miter; stroke-linecap: square"/>
   </g>
   <g id="text_4">
    <!-- $x_1^3x_3$ -->
    <g style="fill: #262626" transform="translate(241.16 94.652)">
     <text>
      <tspan x="0" y="-0.421875" style="font-style: oblique; font-size: 76px; font-family: 'DejaVu Sans'; fill: #262626">x</tspan>
      <tspan x="84.296419" y="-0.421875" style="font-style: oblique; font-size: 76px; font-family: 'DejaVu Sans'; fill: #262626">x</tspan>
      <tspan x="44.976562" y="20.359375" style="font-size: 53.2px; font-family: 'DejaVu Sans'; fill: #262626">1</tspan>
      <tspan x="48.370833" y="-29.515625" style="font-size: 53.2px; font-family: 'DejaVu Sans'; fill: #262626">3</tspan>
      <tspan x="129.272982" y="12.046875" style="font-size: 53.2px; font-family: 'DejaVu Sans'; fill: #262626">3</tspan>
     </text>
    </g>
   </g>
  </g>
 </g>
 <defs>
  <clipPath id="p65fc62c7ec">
   <rect x="25.92" y="115.932" width="596.16" height="304.868"/>
  </clipPath>
 </defs>
</svg>
