<?xml version="1.0" encoding="utf-8" standalone="no"?>
<!DOCTYPE svg PUBLIC "-//W3C//DTD SVG 1.1//EN"
  "http://www.w3.org/Graphics/SVG/1.1/DTD/svg11.dtd">
<svg xmlns:xlink="http://www.w3.org/1999/xlink" width="648pt" height="504pt" viewBox="0 0 648 504" xmlns="http://www.w3.org/2000/svg" version="1.1">
 <metadata>
  <rdf:RDF xmlns:dc="http://purl.org/dc/elements/1.1/" xmlns:cc="http://creativecommons.org/ns#" xmlns:rdf="http://www.w3.org/1999/02/22-rdf-syntax-ns#">
   <cc:Work>
    <dc:type rdf:resource="http://purl.org/dc/dcmitype/StillImage"/>
    <dc:date>2026-02-22T16:15:38.425359</dc:date>
    <dc:format>image/svg+xml</dc:format>
    <dc:creator>
     <cc:Agent>
      <dc:title>Matplotlib v3.10.6, https://matplotlib.org/</dc:title>
     </cc:Agent>
    </dc:creator>
   </cc:Work>
  </rdf:RDF>
 </metadata>
 <defs>
  <style type="text/css">*{stroke-linejoin: round; stroke-linecap: butt}</style>
 </defs>
 <g id="figure_1">
  <g id="patch_1">
   <path d="M 0 504 
L 648 504 
L 648 0 
L 0 0 
L 0 504 
z
" style="fill: none; opacity: 0"/>
  </g>
  <g id="axes_1">
   <g id="patch_2">
    <path d="M 25.92 420.8 
L 622.08 420.8 
L 622.08 115.932 
L 25.92 115.932 
L 25.92 420.8 
z
" style="fill: none"/>
   </g>
   <g id="matplotlib.axis_1">
    <g id="xtick_1">
     <g id="line2d_1">
      <path d="M 183.349334 420.8 
L 183.349334 115.932 
" clip-path="url(#pb03cad377f)" style="fill: none; stroke: #ffffff; stroke-opacity: 0.4; stroke-linecap: round"/>
     </g>
     <g id="line2d_2"/>
     <g id="text_1">
      <text style="font-size: 52px; font-family: 'DejaVu Serif', 'Times New Roman', serif; text-anchor: middle; fill: #262626" x="183.349334" y="467.311875" transform="rotate(-0 183.349334 467.311875)">−10</text>
     </g>
    </g>
    <g id="xtick_2">
     <g id="line2d_3">
      <path d="M 341.332675 420.8 
L 341.332675 115.932 
" clip-path="url(#pb03cad377f)" style="fill: none; stroke: #ffffff; stroke-opacity: 0.4; stroke-linecap: round"/>
     </g>
     <g id="line2d_4"/>
     <g id="text_2">
      <text style="font-size: 52px; font-family: 'DejaVu Serif', 'Times New Roman', serif; text-anchor: middle; fill: #262626" x="341.332675" y="467.311875" transform="rotate(-0 341.332675 467.311875)">0</text>
     </g>
    </g>
    <g id="xtick_3">
     <g id="line2d_5">
      <path d="M 499.316017 420.8 
L 499.316017 115.932 
" clip-path="url(#pb03cad377f)" style="fill: none; stroke: #ffffff; stroke-opacity: 0.4; stroke-linecap: round"/>
     </g>
     <g id="line2d_6"/>
     <g id="text_3">
      <text style="font-size: 52px; font-family: 'DejaVu Serif', 'Times New Roman', serif; text-anchor: middle; fill: #262626" x="499.316017" y="467.311875" transform="rotate(-0 499.316017 467.311875)">10</text>
     </g>
    </g>
   </g>
   <g id="matplotlib.axis_2">
    <g id="ytick_1">
     <g id="line2d_7">
      <path d="M 25.92 406.942364 
L 622.08 406.942364 
" clip-path="url(#pb03cad377f)" style="fill: none; stroke: #ffffff; stroke-opacity: 0.4; stroke-linecap: round"/>
     </g>
    </g>
    <g id="ytick_2">
     <g id="line2d_8">
      <path d="M 25.92 257.524457 
L 622.08 257.524457 
" clip-path="url(#pb03cad377f)" style="fill: none; stroke: #ffffff; stroke-opacity: 0.4; stroke-linecap: round"/>
     </g>
    </g>
   </g>
   <g id="FillBetweenPolyCollection_1">
    <defs>
     <path id="m798b6933e1" d="M 53.018182 -97.057636 
L 53.018182 -97.669344 
L 54.078776 -97.669916 
L 55.13937 -97.664017 
L 56.199964 -97.654003 
L 57.260559 -97.64016 
L 58.321153 -97.622864 
L 59.381747 -97.602569 
L 60.442341 -97.579792 
L 61.502935 -97.555101 
L 62.56353 -97.52909 
L 63.624124 -97.502371 
L 64.684718 -97.478383 
L 65.745312 -97.452879 
L 66.805906 -97.428612 
L 67.866501 -97.40612 
L 68.927095 -97.385883 
L 69.987689 -97.368314 
L 71.048283 -97.353753 
L 72.108877 -97.342463 
L 73.169472 -97.334624 
L 74.230066 -97.330336 
L 75.29066 -97.332454 
L 76.351254 -97.338926 
L 77.411848 -97.346996 
L 78.472443 -97.358716 
L 79.533037 -97.373915 
L 80.593631 -97.395212 
L 81.654225 -97.417525 
L 82.714819 -97.44278 
L 83.775414 -97.470715 
L 84.836008 -97.501057 
L 85.896602 -97.533528 
L 86.957196 -97.570688 
L 88.01779 -97.610271 
L 89.078385 -97.649388 
L 90.138979 -97.690036 
L 91.199573 -97.73556 
L 92.260167 -97.781691 
L 93.320761 -97.829947 
L 94.381356 -97.87973 
L 95.44195 -97.931115 
L 96.502544 -97.984189 
L 97.563138 -98.039037 
L 98.623732 -98.095732 
L 99.684327 -98.154329 
L 100.744921 -98.214853 
L 101.805515 -98.277286 
L 102.866109 -98.341559 
L 103.926703 -98.407539 
L 104.987298 -98.475022 
L 106.047892 -98.552236 
L 107.108486 -98.627158 
L 108.16908 -98.703966 
L 109.229674 -98.785301 
L 110.290269 -98.86611 
L 111.350863 -98.948369 
L 112.411457 -99.029051 
L 113.472051 -99.109983 
L 114.532645 -99.196493 
L 115.59324 -99.27859 
L 116.653834 -99.360384 
L 117.714428 -99.441689 
L 118.775022 -99.525207 
L 119.835616 -99.60887 
L 120.896211 -99.690039 
L 121.956805 -99.771004 
L 123.017399 -99.851944 
L 124.077993 -99.933076 
L 125.138587 -100.017481 
L 126.199182 -100.106243 
L 127.259776 -100.19496 
L 128.32037 -100.289088 
L 129.380964 -100.384208 
L 130.441558 -100.480705 
L 131.502153 -100.583744 
L 132.562747 -100.687879 
L 133.623341 -100.803715 
L 134.683935 -100.919355 
L 135.744529 -101.041845 
L 136.805124 -101.166103 
L 137.865718 -101.293979 
L 138.926312 -101.427908 
L 139.986906 -101.559767 
L 141.0475 -101.691111 
L 142.108095 -101.826163 
L 143.168689 -101.964315 
L 144.229283 -102.105824 
L 145.289877 -102.248363 
L 146.350471 -102.403257 
L 147.411066 -102.548471 
L 148.47166 -102.697943 
L 149.532254 -102.855732 
L 150.592848 -103.01288 
L 151.653442 -103.169627 
L 152.714037 -103.337345 
L 153.774631 -103.509299 
L 154.835225 -103.690816 
L 155.895819 -103.878002 
L 156.956413 -104.083076 
L 158.017008 -104.306506 
L 159.077602 -104.533576 
L 160.138196 -104.773907 
L 161.19879 -105.045312 
L 162.259384 -105.327959 
L 163.319979 -105.621755 
L 164.380573 -105.931762 
L 165.441167 -106.259973 
L 166.501761 -106.617433 
L 167.562355 -106.986353 
L 168.62295 -107.381988 
L 169.683544 -107.799179 
L 170.744138 -108.243357 
L 171.804732 -108.705149 
L 172.865326 -109.183425 
L 173.925921 -109.710558 
L 174.986515 -110.248978 
L 176.047109 -110.814687 
L 177.107703 -111.399996 
L 178.168297 -112.01741 
L 179.228892 -112.646186 
L 180.289486 -113.301783 
L 181.35008 -113.970322 
L 182.410674 -114.669837 
L 183.471268 -115.396605 
L 184.531863 -116.141 
L 185.592457 -116.91018 
L 186.653051 -117.695951 
L 187.713645 -118.498719 
L 188.774239 -119.319639 
L 189.834834 -120.143791 
L 190.895428 -121.002585 
L 191.956022 -121.86187 
L 193.016616 -122.73862 
L 194.07721 -123.622978 
L 195.137805 -124.517193 
L 196.198399 -125.432751 
L 197.258993 -126.369024 
L 198.319587 -127.313976 
L 199.380181 -128.272476 
L 200.440776 -129.253473 
L 201.50137 -130.263234 
L 202.561964 -131.281516 
L 203.622558 -132.330835 
L 204.683152 -133.397466 
L 205.743747 -134.539532 
L 206.804341 -135.672412 
L 207.864935 -136.836324 
L 208.925529 -138.039956 
L 209.986123 -139.284817 
L 211.046718 -140.559908 
L 212.107312 -141.863187 
L 213.167906 -143.220988 
L 214.2285 -144.590138 
L 215.289094 -145.989612 
L 216.349689 -147.434297 
L 217.410283 -148.926237 
L 218.470877 -150.432998 
L 219.531471 -151.975634 
L 220.592065 -153.539858 
L 221.65266 -155.143278 
L 222.713254 -156.765635 
L 223.773848 -158.436424 
L 224.834442 -160.141454 
L 225.895036 -161.8562 
L 226.955631 -163.628357 
L 228.016225 -165.438362 
L 229.076819 -167.291689 
L 230.137413 -169.193875 
L 231.198007 -171.139244 
L 232.258602 -173.145802 
L 233.319196 -175.161331 
L 234.37979 -177.248237 
L 235.440384 -179.390159 
L 236.500978 -181.570614 
L 237.561573 -183.76928 
L 238.622167 -186.027405 
L 239.682761 -188.333538 
L 240.743355 -190.6952 
L 241.803949 -193.078502 
L 242.864544 -195.480676 
L 243.925138 -197.872703 
L 244.985732 -200.332583 
L 246.046326 -202.768939 
L 247.10692 -205.204454 
L 248.167515 -207.6306 
L 249.228109 -210.047422 
L 250.288703 -212.409341 
L 251.349297 -214.75751 
L 252.409891 -217.098859 
L 253.470486 -219.419646 
L 254.53108 -221.705025 
L 255.591674 -224.011315 
L 256.652268 -226.24198 
L 257.712862 -228.471915 
L 258.773457 -230.688568 
L 259.834051 -232.912938 
L 260.894645 -235.127859 
L 261.955239 -237.35436 
L 263.015833 -239.60012 
L 264.076428 -241.851104 
L 265.137022 -244.128279 
L 266.197616 -246.454018 
L 267.25821 -248.791426 
L 268.318804 -251.199869 
L 269.379399 -253.632678 
L 270.439993 -256.145709 
L 271.500587 -258.689526 
L 272.561181 -261.230364 
L 273.621775 -263.825893 
L 274.68237 -266.47835 
L 275.742964 -269.147193 
L 276.803558 -271.843706 
L 277.864152 -274.56394 
L 278.924746 -277.292613 
L 279.985341 -280.041549 
L 281.045935 -282.79074 
L 282.106529 -285.517422 
L 283.167123 -288.292162 
L 284.227717 -291.051029 
L 285.288312 -293.77129 
L 286.348906 -296.487301 
L 287.4095 -299.151469 
L 288.470094 -301.815057 
L 289.530688 -304.435665 
L 290.591283 -307.04392 
L 291.651877 -309.603797 
L 292.712471 -312.082461 
L 293.773065 -314.5515 
L 294.833659 -316.991433 
L 295.894254 -319.350669 
L 296.954848 -321.671544 
L 298.015442 -323.953528 
L 299.076036 -326.171786 
L 300.13663 -328.341369 
L 301.197225 -330.459098 
L 302.257819 -332.548851 
L 303.318413 -334.573182 
L 304.379007 -336.581377 
L 305.439601 -338.53123 
L 306.500196 -340.441171 
L 307.56079 -342.306497 
L 308.621384 -344.165485 
L 309.681978 -346.010035 
L 310.742572 -347.836542 
L 311.803167 -349.591959 
L 312.863761 -351.323725 
L 313.924355 -353.058496 
L 314.984949 -354.768526 
L 316.045543 -356.415682 
L 317.106138 -358.004776 
L 318.166732 -359.570409 
L 319.227326 -361.083412 
L 320.28792 -362.556365 
L 321.348514 -363.916067 
L 322.409109 -365.253116 
L 323.469703 -366.510135 
L 324.530297 -367.698184 
L 325.590891 -368.813105 
L 326.651486 -369.825394 
L 327.71208 -370.729469 
L 328.772674 -371.521997 
L 329.833268 -372.20042 
L 330.893862 -372.828688 
L 331.954457 -373.298268 
L 333.015051 -373.70414 
L 334.075645 -373.998495 
L 335.136239 -374.151177 
L 336.196833 -374.210364 
L 337.257428 -374.166373 
L 338.318022 -374.00737 
L 339.378616 -373.744576 
L 340.43921 -373.433769 
L 341.499804 -373.008021 
L 342.560399 -372.48063 
L 343.620993 -371.878168 
L 344.681587 -371.19418 
L 345.742181 -370.438125 
L 346.802775 -369.587182 
L 347.86337 -368.70726 
L 348.923964 -367.787457 
L 349.984558 -366.822526 
L 351.045152 -365.822972 
L 352.105746 -364.806988 
L 353.166341 -363.777244 
L 354.226935 -362.72772 
L 355.287529 -361.695394 
L 356.348123 -360.642736 
L 357.408717 -359.620384 
L 358.469312 -358.579963 
L 359.529906 -357.569867 
L 360.5905 -356.578956 
L 361.651094 -355.619122 
L 362.711688 -354.648969 
L 363.772283 -353.737219 
L 364.832877 -352.795778 
L 365.893471 -351.824859 
L 366.954065 -350.856013 
L 368.014659 -349.873269 
L 369.075254 -348.872282 
L 370.135848 -347.784899 
L 371.196442 -346.637041 
L 372.257036 -345.460456 
L 373.31763 -344.212382 
L 374.378225 -342.850956 
L 375.438819 -341.435762 
L 376.499413 -339.942257 
L 377.560007 -338.347321 
L 378.620601 -336.641818 
L 379.681196 -334.849643 
L 380.74179 -332.943284 
L 381.802384 -330.973219 
L 382.862978 -328.898837 
L 383.923572 -326.735386 
L 384.984167 -324.467959 
L 386.044761 -322.149339 
L 387.105355 -319.732116 
L 388.165949 -317.321255 
L 389.226543 -314.841374 
L 390.287138 -312.285013 
L 391.347732 -309.673329 
L 392.408326 -307.051899 
L 393.46892 -304.391413 
L 394.529514 -301.696406 
L 395.590109 -298.976843 
L 396.650703 -296.23881 
L 397.711297 -293.475048 
L 398.771891 -290.682886 
L 399.832485 -287.885686 
L 400.89308 -285.057898 
L 401.953674 -282.202737 
L 403.014268 -279.344155 
L 404.074862 -276.491177 
L 405.135456 -273.625116 
L 406.196051 -270.743647 
L 407.256645 -267.793083 
L 408.317239 -264.902224 
L 409.377833 -261.995923 
L 410.438427 -259.064846 
L 411.499022 -256.166692 
L 412.559616 -253.247394 
L 413.62021 -250.355553 
L 414.680804 -247.471404 
L 415.741398 -244.620561 
L 416.801993 -241.776801 
L 417.862587 -238.994231 
L 418.923181 -236.242426 
L 419.983775 -233.531076 
L 421.044369 -230.874351 
L 422.104964 -228.310159 
L 423.165558 -225.780141 
L 424.226152 -223.320986 
L 425.286746 -220.938698 
L 426.34734 -218.607328 
L 427.407935 -216.336307 
L 428.468529 -214.134024 
L 429.529123 -211.997192 
L 430.589717 -209.925919 
L 431.650311 -207.911538 
L 432.710906 -205.9605 
L 433.7715 -204.044347 
L 434.832094 -202.175962 
L 435.892688 -200.327644 
L 436.953282 -198.516279 
L 438.013877 -196.725991 
L 439.074471 -194.960176 
L 440.135065 -193.185094 
L 441.195659 -191.432579 
L 442.256253 -189.700352 
L 443.316848 -187.954725 
L 444.377442 -186.208632 
L 445.438036 -184.461717 
L 446.49863 -182.704454 
L 447.559224 -180.951345 
L 448.619819 -179.195831 
L 449.680413 -177.414158 
L 450.741007 -175.649359 
L 451.801601 -173.868886 
L 452.862195 -172.070314 
L 453.92279 -170.287129 
L 454.983384 -168.523433 
L 456.043978 -166.759991 
L 457.104572 -165.008636 
L 458.165166 -163.257822 
L 459.225761 -161.539702 
L 460.286355 -159.854528 
L 461.346949 -158.177946 
L 462.407543 -156.514565 
L 463.468137 -154.875986 
L 464.528732 -153.250347 
L 465.589326 -151.658831 
L 466.64992 -150.095549 
L 467.710514 -148.569032 
L 468.771108 -147.067238 
L 469.831703 -145.597713 
L 470.892297 -144.159959 
L 471.952891 -142.744183 
L 473.013485 -141.358146 
L 474.074079 -139.988266 
L 475.134674 -138.646117 
L 476.195268 -137.319918 
L 477.255862 -136.031306 
L 478.316456 -134.75757 
L 479.37705 -133.516581 
L 480.437645 -132.286228 
L 481.498239 -131.055381 
L 482.558833 -129.865019 
L 483.619427 -128.707706 
L 484.680021 -127.542256 
L 485.740616 -126.422289 
L 486.80121 -125.335355 
L 487.861804 -124.264265 
L 488.922398 -123.228377 
L 489.982992 -122.22043 
L 491.043587 -121.25149 
L 492.104181 -120.304283 
L 493.164775 -119.379832 
L 494.225369 -118.49471 
L 495.285963 -117.662829 
L 496.346558 -116.860412 
L 497.407152 -116.092862 
L 498.467746 -115.351356 
L 499.52834 -114.668003 
L 500.588934 -114.002488 
L 501.649529 -113.379409 
L 502.710123 -112.780133 
L 503.770717 -112.213802 
L 504.831311 -111.684673 
L 505.891905 -111.171521 
L 506.9525 -110.685841 
L 508.013094 -110.225016 
L 509.073688 -109.780009 
L 510.134282 -109.357143 
L 511.194876 -108.95598 
L 512.255471 -108.564295 
L 513.316065 -108.183806 
L 514.376659 -107.817735 
L 515.437253 -107.458118 
L 516.497847 -107.122778 
L 517.558442 -106.784965 
L 518.619036 -106.458823 
L 519.67963 -106.136089 
L 520.740224 -105.816965 
L 521.800818 -105.50814 
L 522.861413 -105.203872 
L 523.922007 -104.90848 
L 524.982601 -104.603574 
L 526.043195 -104.318607 
L 527.103789 -104.032633 
L 528.164384 -103.75139 
L 529.224978 -103.482128 
L 530.285572 -103.21471 
L 531.346166 -102.949485 
L 532.40676 -102.687297 
L 533.467355 -102.431022 
L 534.527949 -102.185082 
L 535.588543 -101.946389 
L 536.649137 -101.703964 
L 537.709731 -101.46908 
L 538.770326 -101.246084 
L 539.83092 -101.031828 
L 540.891514 -100.823963 
L 541.952108 -100.625097 
L 543.012702 -100.432916 
L 544.073297 -100.241339 
L 545.133891 -100.063119 
L 546.194485 -99.89493 
L 547.255079 -99.727659 
L 548.315673 -99.573847 
L 549.376268 -99.427773 
L 550.436862 -99.291476 
L 551.497456 -99.15988 
L 552.55805 -99.033347 
L 553.618644 -98.912039 
L 554.679239 -98.804651 
L 555.739833 -98.698134 
L 556.800427 -98.593285 
L 557.861021 -98.509329 
L 558.921615 -98.428624 
L 559.98221 -98.348454 
L 561.042804 -98.275201 
L 562.103398 -98.206089 
L 563.163992 -98.141204 
L 564.224586 -98.078496 
L 565.285181 -98.022982 
L 566.345775 -97.972047 
L 567.406369 -97.923768 
L 568.466963 -97.881109 
L 569.527557 -97.846411 
L 570.588152 -97.815002 
L 571.648746 -97.787723 
L 572.70934 -97.77177 
L 573.769934 -97.759609 
L 574.830528 -97.749815 
L 575.891123 -97.754294 
L 576.951717 -97.76466 
L 578.012311 -97.78089 
L 579.072905 -97.80281 
L 580.133499 -97.830092 
L 581.194094 -97.862249 
L 582.254688 -97.89864 
L 583.315282 -97.93848 
L 584.375876 -97.980855 
L 585.43647 -98.024738 
L 586.497065 -98.06685 
L 587.557659 -98.11372 
L 588.618253 -98.156519 
L 589.678847 -98.196299 
L 590.739441 -98.231992 
L 591.800036 -98.260445 
L 592.86063 -98.283487 
L 593.921224 -98.30246 
L 594.981818 -98.314044 
L 594.981818 -97.057636 
L 594.981818 -97.057636 
L 593.921224 -97.057636 
L 592.86063 -97.057636 
L 591.800036 -97.057636 
L 590.739441 -97.057636 
L 589.678847 -97.057636 
L 588.618253 -97.057636 
L 587.557659 -97.057636 
L 586.497065 -97.057636 
L 585.43647 -97.057636 
L 584.375876 -97.057636 
L 583.315282 -97.057636 
L 582.254688 -97.057636 
L 581.194094 -97.057636 
L 580.133499 -97.057636 
L 579.072905 -97.057636 
L 578.012311 -97.057636 
L 576.951717 -97.057636 
L 575.891123 -97.057636 
L 574.830528 -97.057636 
L 573.769934 -97.057636 
L 572.70934 -97.057636 
L 571.648746 -97.057636 
L 570.588152 -97.057636 
L 569.527557 -97.057636 
L 568.466963 -97.057636 
L 567.406369 -97.057636 
L 566.345775 -97.057636 
L 565.285181 -97.057636 
L 564.224586 -97.057636 
L 563.163992 -97.057636 
L 562.103398 -97.057636 
L 561.042804 -97.057636 
L 559.98221 -97.057636 
L 558.921615 -97.057636 
L 557.861021 -97.057636 
L 556.800427 -97.057636 
L 555.739833 -97.057636 
L 554.679239 -97.057636 
L 553.618644 -97.057636 
L 552.55805 -97.057636 
L 551.497456 -97.057636 
L 550.436862 -97.057636 
L 549.376268 -97.057636 
L 548.315673 -97.057636 
L 547.255079 -97.057636 
L 546.194485 -97.057636 
L 545.133891 -97.057636 
L 544.073297 -97.057636 
L 543.012702 -97.057636 
L 541.952108 -97.057636 
L 540.891514 -97.057636 
L 539.83092 -97.057636 
L 538.770326 -97.057636 
L 537.709731 -97.057636 
L 536.649137 -97.057636 
L 535.588543 -97.057636 
L 534.527949 -97.057636 
L 533.467355 -97.057636 
L 532.40676 -97.057636 
L 531.346166 -97.057636 
L 530.285572 -97.057636 
L 529.224978 -97.057636 
L 528.164384 -97.057636 
L 527.103789 -97.057636 
L 526.043195 -97.057636 
L 524.982601 -97.057636 
L 523.922007 -97.057636 
L 522.861413 -97.057636 
L 521.800818 -97.057636 
L 520.740224 -97.057636 
L 519.67963 -97.057636 
L 518.619036 -97.057636 
L 517.558442 -97.057636 
L 516.497847 -97.057636 
L 515.437253 -97.057636 
L 514.376659 -97.057636 
L 513.316065 -97.057636 
L 512.255471 -97.057636 
L 511.194876 -97.057636 
L 510.134282 -97.057636 
L 509.073688 -97.057636 
L 508.013094 -97.057636 
L 506.9525 -97.057636 
L 505.891905 -97.057636 
L 504.831311 -97.057636 
L 503.770717 -97.057636 
L 502.710123 -97.057636 
L 501.649529 -97.057636 
L 500.588934 -97.057636 
L 499.52834 -97.057636 
L 498.467746 -97.057636 
L 497.407152 -97.057636 
L 496.346558 -97.057636 
L 495.285963 -97.057636 
L 494.225369 -97.057636 
L 493.164775 -97.057636 
L 492.104181 -97.057636 
L 491.043587 -97.057636 
L 489.982992 -97.057636 
L 488.922398 -97.057636 
L 487.861804 -97.057636 
L 486.80121 -97.057636 
L 485.740616 -97.057636 
L 484.680021 -97.057636 
L 483.619427 -97.057636 
L 482.558833 -97.057636 
L 481.498239 -97.057636 
L 480.437645 -97.057636 
L 479.37705 -97.057636 
L 478.316456 -97.057636 
L 477.255862 -97.057636 
L 476.195268 -97.057636 
L 475.134674 -97.057636 
L 474.074079 -97.057636 
L 473.013485 -97.057636 
L 471.952891 -97.057636 
L 470.892297 -97.057636 
L 469.831703 -97.057636 
L 468.771108 -97.057636 
L 467.710514 -97.057636 
L 466.64992 -97.057636 
L 465.589326 -97.057636 
L 464.528732 -97.057636 
L 463.468137 -97.057636 
L 462.407543 -97.057636 
L 461.346949 -97.057636 
L 460.286355 -97.057636 
L 459.225761 -97.057636 
L 458.165166 -97.057636 
L 457.104572 -97.057636 
L 456.043978 -97.057636 
L 454.983384 -97.057636 
L 453.92279 -97.057636 
L 452.862195 -97.057636 
L 451.801601 -97.057636 
L 450.741007 -97.057636 
L 449.680413 -97.057636 
L 448.619819 -97.057636 
L 447.559224 -97.057636 
L 446.49863 -97.057636 
L 445.438036 -97.057636 
L 444.377442 -97.057636 
L 443.316848 -97.057636 
L 442.256253 -97.057636 
L 441.195659 -97.057636 
L 440.135065 -97.057636 
L 439.074471 -97.057636 
L 438.013877 -97.057636 
L 436.953282 -97.057636 
L 435.892688 -97.057636 
L 434.832094 -97.057636 
L 433.7715 -97.057636 
L 432.710906 -97.057636 
L 431.650311 -97.057636 
L 430.589717 -97.057636 
L 429.529123 -97.057636 
L 428.468529 -97.057636 
L 427.407935 -97.057636 
L 426.34734 -97.057636 
L 425.286746 -97.057636 
L 424.226152 -97.057636 
L 423.165558 -97.057636 
L 422.104964 -97.057636 
L 421.044369 -97.057636 
L 419.983775 -97.057636 
L 418.923181 -97.057636 
L 417.862587 -97.057636 
L 416.801993 -97.057636 
L 415.741398 -97.057636 
L 414.680804 -97.057636 
L 413.62021 -97.057636 
L 412.559616 -97.057636 
L 411.499022 -97.057636 
L 410.438427 -97.057636 
L 409.377833 -97.057636 
L 408.317239 -97.057636 
L 407.256645 -97.057636 
L 406.196051 -97.057636 
L 405.135456 -97.057636 
L 404.074862 -97.057636 
L 403.014268 -97.057636 
L 401.953674 -97.057636 
L 400.89308 -97.057636 
L 399.832485 -97.057636 
L 398.771891 -97.057636 
L 397.711297 -97.057636 
L 396.650703 -97.057636 
L 395.590109 -97.057636 
L 394.529514 -97.057636 
L 393.46892 -97.057636 
L 392.408326 -97.057636 
L 391.347732 -97.057636 
L 390.287138 -97.057636 
L 389.226543 -97.057636 
L 388.165949 -97.057636 
L 387.105355 -97.057636 
L 386.044761 -97.057636 
L 384.984167 -97.057636 
L 383.923572 -97.057636 
L 382.862978 -97.057636 
L 381.802384 -97.057636 
L 380.74179 -97.057636 
L 379.681196 -97.057636 
L 378.620601 -97.057636 
L 377.560007 -97.057636 
L 376.499413 -97.057636 
L 375.438819 -97.057636 
L 374.378225 -97.057636 
L 373.31763 -97.057636 
L 372.257036 -97.057636 
L 371.196442 -97.057636 
L 370.135848 -97.057636 
L 369.075254 -97.057636 
L 368.014659 -97.057636 
L 366.954065 -97.057636 
L 365.893471 -97.057636 
L 364.832877 -97.057636 
L 363.772283 -97.057636 
L 362.711688 -97.057636 
L 361.651094 -97.057636 
L 360.5905 -97.057636 
L 359.529906 -97.057636 
L 358.469312 -97.057636 
L 357.408717 -97.057636 
L 356.348123 -97.057636 
L 355.287529 -97.057636 
L 354.226935 -97.057636 
L 353.166341 -97.057636 
L 352.105746 -97.057636 
L 351.045152 -97.057636 
L 349.984558 -97.057636 
L 348.923964 -97.057636 
L 347.86337 -97.057636 
L 346.802775 -97.057636 
L 345.742181 -97.057636 
L 344.681587 -97.057636 
L 343.620993 -97.057636 
L 342.560399 -97.057636 
L 341.499804 -97.057636 
L 340.43921 -97.057636 
L 339.378616 -97.057636 
L 338.318022 -97.057636 
L 337.257428 -97.057636 
L 336.196833 -97.057636 
L 335.136239 -97.057636 
L 334.075645 -97.057636 
L 333.015051 -97.057636 
L 331.954457 -97.057636 
L 330.893862 -97.057636 
L 329.833268 -97.057636 
L 328.772674 -97.057636 
L 327.71208 -97.057636 
L 326.651486 -97.057636 
L 325.590891 -97.057636 
L 324.530297 -97.057636 
L 323.469703 -97.057636 
L 322.409109 -97.057636 
L 321.348514 -97.057636 
L 320.28792 -97.057636 
L 319.227326 -97.057636 
L 318.166732 -97.057636 
L 317.106138 -97.057636 
L 316.045543 -97.057636 
L 314.984949 -97.057636 
L 313.924355 -97.057636 
L 312.863761 -97.057636 
L 311.803167 -97.057636 
L 310.742572 -97.057636 
L 309.681978 -97.057636 
L 308.621384 -97.057636 
L 307.56079 -97.057636 
L 306.500196 -97.057636 
L 305.439601 -97.057636 
L 304.379007 -97.057636 
L 303.318413 -97.057636 
L 302.257819 -97.057636 
L 301.197225 -97.057636 
L 300.13663 -97.057636 
L 299.076036 -97.057636 
L 298.015442 -97.057636 
L 296.954848 -97.057636 
L 295.894254 -97.057636 
L 294.833659 -97.057636 
L 293.773065 -97.057636 
L 292.712471 -97.057636 
L 291.651877 -97.057636 
L 290.591283 -97.057636 
L 289.530688 -97.057636 
L 288.470094 -97.057636 
L 287.4095 -97.057636 
L 286.348906 -97.057636 
L 285.288312 -97.057636 
L 284.227717 -97.057636 
L 283.167123 -97.057636 
L 282.106529 -97.057636 
L 281.045935 -97.057636 
L 279.985341 -97.057636 
L 278.924746 -97.057636 
L 277.864152 -97.057636 
L 276.803558 -97.057636 
L 275.742964 -97.057636 
L 274.68237 -97.057636 
L 273.621775 -97.057636 
L 272.561181 -97.057636 
L 271.500587 -97.057636 
L 270.439993 -97.057636 
L 269.379399 -97.057636 
L 268.318804 -97.057636 
L 267.25821 -97.057636 
L 266.197616 -97.057636 
L 265.137022 -97.057636 
L 264.076428 -97.057636 
L 263.015833 -97.057636 
L 261.955239 -97.057636 
L 260.894645 -97.057636 
L 259.834051 -97.057636 
L 258.773457 -97.057636 
L 257.712862 -97.057636 
L 256.652268 -97.057636 
L 255.591674 -97.057636 
L 254.53108 -97.057636 
L 253.470486 -97.057636 
L 252.409891 -97.057636 
L 251.349297 -97.057636 
L 250.288703 -97.057636 
L 249.228109 -97.057636 
L 248.167515 -97.057636 
L 247.10692 -97.057636 
L 246.046326 -97.057636 
L 244.985732 -97.057636 
L 243.925138 -97.057636 
L 242.864544 -97.057636 
L 241.803949 -97.057636 
L 240.743355 -97.057636 
L 239.682761 -97.057636 
L 238.622167 -97.057636 
L 237.561573 -97.057636 
L 236.500978 -97.057636 
L 235.440384 -97.057636 
L 234.37979 -97.057636 
L 233.319196 -97.057636 
L 232.258602 -97.057636 
L 231.198007 -97.057636 
L 230.137413 -97.057636 
L 229.076819 -97.057636 
L 228.016225 -97.057636 
L 226.955631 -97.057636 
L 225.895036 -97.057636 
L 224.834442 -97.057636 
L 223.773848 -97.057636 
L 222.713254 -97.057636 
L 221.65266 -97.057636 
L 220.592065 -97.057636 
L 219.531471 -97.057636 
L 218.470877 -97.057636 
L 217.410283 -97.057636 
L 216.349689 -97.057636 
L 215.289094 -97.057636 
L 214.2285 -97.057636 
L 213.167906 -97.057636 
L 212.107312 -97.057636 
L 211.046718 -97.057636 
L 209.986123 -97.057636 
L 208.925529 -97.057636 
L 207.864935 -97.057636 
L 206.804341 -97.057636 
L 205.743747 -97.057636 
L 204.683152 -97.057636 
L 203.622558 -97.057636 
L 202.561964 -97.057636 
L 201.50137 -97.057636 
L 200.440776 -97.057636 
L 199.380181 -97.057636 
L 198.319587 -97.057636 
L 197.258993 -97.057636 
L 196.198399 -97.057636 
L 195.137805 -97.057636 
L 194.07721 -97.057636 
L 193.016616 -97.057636 
L 191.956022 -97.057636 
L 190.895428 -97.057636 
L 189.834834 -97.057636 
L 188.774239 -97.057636 
L 187.713645 -97.057636 
L 186.653051 -97.057636 
L 185.592457 -97.057636 
L 184.531863 -97.057636 
L 183.471268 -97.057636 
L 182.410674 -97.057636 
L 181.35008 -97.057636 
L 180.289486 -97.057636 
L 179.228892 -97.057636 
L 178.168297 -97.057636 
L 177.107703 -97.057636 
L 176.047109 -97.057636 
L 174.986515 -97.057636 
L 173.925921 -97.057636 
L 172.865326 -97.057636 
L 171.804732 -97.057636 
L 170.744138 -97.057636 
L 169.683544 -97.057636 
L 168.62295 -97.057636 
L 167.562355 -97.057636 
L 166.501761 -97.057636 
L 165.441167 -97.057636 
L 164.380573 -97.057636 
L 163.319979 -97.057636 
L 162.259384 -97.057636 
L 161.19879 -97.057636 
L 160.138196 -97.057636 
L 159.077602 -97.057636 
L 158.017008 -97.057636 
L 156.956413 -97.057636 
L 155.895819 -97.057636 
L 154.835225 -97.057636 
L 153.774631 -97.057636 
L 152.714037 -97.057636 
L 151.653442 -97.057636 
L 150.592848 -97.057636 
L 149.532254 -97.057636 
L 148.47166 -97.057636 
L 147.411066 -97.057636 
L 146.350471 -97.057636 
L 145.289877 -97.057636 
L 144.229283 -97.057636 
L 143.168689 -97.057636 
L 142.108095 -97.057636 
L 141.0475 -97.057636 
L 139.986906 -97.057636 
L 138.926312 -97.057636 
L 137.865718 -97.057636 
L 136.805124 -97.057636 
L 135.744529 -97.057636 
L 134.683935 -97.057636 
L 133.623341 -97.057636 
L 132.562747 -97.057636 
L 131.502153 -97.057636 
L 130.441558 -97.057636 
L 129.380964 -97.057636 
L 128.32037 -97.057636 
L 127.259776 -97.057636 
L 126.199182 -97.057636 
L 125.138587 -97.057636 
L 124.077993 -97.057636 
L 123.017399 -97.057636 
L 121.956805 -97.057636 
L 120.896211 -97.057636 
L 119.835616 -97.057636 
L 118.775022 -97.057636 
L 117.714428 -97.057636 
L 116.653834 -97.057636 
L 115.59324 -97.057636 
L 114.532645 -97.057636 
L 113.472051 -97.057636 
L 112.411457 -97.057636 
L 111.350863 -97.057636 
L 110.290269 -97.057636 
L 109.229674 -97.057636 
L 108.16908 -97.057636 
L 107.108486 -97.057636 
L 106.047892 -97.057636 
L 104.987298 -97.057636 
L 103.926703 -97.057636 
L 102.866109 -97.057636 
L 101.805515 -97.057636 
L 100.744921 -97.057636 
L 99.684327 -97.057636 
L 98.623732 -97.057636 
L 97.563138 -97.057636 
L 96.502544 -97.057636 
L 95.44195 -97.057636 
L 94.381356 -97.057636 
L 93.320761 -97.057636 
L 92.260167 -97.057636 
L 91.199573 -97.057636 
L 90.138979 -97.057636 
L 89.078385 -97.057636 
L 88.01779 -97.057636 
L 86.957196 -97.057636 
L 85.896602 -97.057636 
L 84.836008 -97.057636 
L 83.775414 -97.057636 
L 82.714819 -97.057636 
L 81.654225 -97.057636 
L 80.593631 -97.057636 
L 79.533037 -97.057636 
L 78.472443 -97.057636 
L 77.411848 -97.057636 
L 76.351254 -97.057636 
L 75.29066 -97.057636 
L 74.230066 -97.057636 
L 73.169472 -97.057636 
L 72.108877 -97.057636 
L 71.048283 -97.057636 
L 69.987689 -97.057636 
L 68.927095 -97.057636 
L 67.866501 -97.057636 
L 66.805906 -97.057636 
L 65.745312 -97.057636 
L 64.684718 -97.057636 
L 63.624124 -97.057636 
L 62.56353 -97.057636 
L 61.502935 -97.057636 
L 60.442341 -97.057636 
L 59.381747 -97.057636 
L 58.321153 -97.057636 
L 57.260559 -97.057636 
L 56.199964 -97.057636 
L 55.13937 -97.057636 
L 54.078776 -97.057636 
L 53.018182 -97.057636 
z
"/>
    </defs>
    <g clip-path="url(#pb03cad377f)">
     <use xlink:href="#m798b6933e1" x="0" y="504" style="fill: #ff7f0e; fill-opacity: 0.35"/>
    </g>
   </g>
   <g id="line2d_9">
    <path d="M 53.018182 406.330656 
L 60.442341 406.420208 
L 75.29066 406.667546 
L 84.836008 406.498943 
L 95.44195 406.068885 
L 106.047892 405.447764 
L 124.077993 404.066924 
L 133.623341 403.196285 
L 142.108095 402.173837 
L 151.653442 400.830373 
L 156.956413 399.916924 
L 161.19879 398.954688 
L 165.441167 397.740027 
L 169.683544 396.200821 
L 172.865326 394.816575 
L 177.107703 392.600004 
L 181.35008 390.029678 
L 184.531863 387.859 
L 188.774239 384.680361 
L 193.016616 381.26138 
L 197.258993 377.630976 
L 201.50137 373.736766 
L 204.683152 370.602534 
L 208.925529 365.960044 
L 212.107312 362.136813 
L 216.349689 356.565703 
L 220.592065 350.460142 
L 224.834442 343.858546 
L 228.016225 338.561638 
L 231.198007 332.860756 
L 235.440384 324.609841 
L 239.682761 315.666462 
L 246.046326 301.231061 
L 251.349297 289.24249 
L 256.652268 277.75802 
L 267.25821 255.208574 
L 271.500587 245.310474 
L 274.68237 237.52165 
L 281.045935 221.20926 
L 290.591283 196.95608 
L 293.773065 189.4485 
L 296.954848 182.328456 
L 300.13663 175.658631 
L 304.379007 167.418623 
L 308.621384 159.834515 
L 312.863761 152.676275 
L 316.045543 147.584318 
L 319.227326 142.916588 
L 321.348514 140.083933 
L 323.469703 137.489865 
L 325.590891 135.186895 
L 327.71208 133.270531 
L 329.833268 131.79958 
L 330.893862 131.171312 
L 333.015051 130.29586 
L 334.075645 130.001505 
L 336.196833 129.789636 
L 337.257428 129.833627 
L 339.378616 130.255424 
L 341.499804 130.991979 
L 343.620993 132.121832 
L 345.742181 133.561875 
L 348.923964 136.212543 
L 352.105746 139.193012 
L 362.711688 149.351031 
L 366.954065 153.143987 
L 370.135848 156.215101 
L 373.31763 159.787618 
L 375.438819 162.564238 
L 377.560007 165.652679 
L 379.681196 169.150357 
L 381.802384 173.026781 
L 383.923572 177.264614 
L 387.105355 184.267884 
L 390.287138 191.714987 
L 395.590109 205.023157 
L 400.89308 218.942102 
L 410.438427 244.935154 
L 417.862587 265.005769 
L 421.044369 273.125649 
L 424.226152 280.679014 
L 427.407935 287.663693 
L 430.589717 294.074081 
L 433.7715 299.955653 
L 438.013877 307.274009 
L 460.286355 344.145472 
L 465.589326 352.341169 
L 469.831703 358.402287 
L 474.074079 364.011734 
L 478.316456 369.24243 
L 483.619427 375.292294 
L 486.80121 378.664645 
L 489.982992 381.77957 
L 494.225369 385.50529 
L 497.407152 387.907138 
L 500.588934 389.997512 
L 503.770717 391.786198 
L 506.9525 393.314159 
L 511.194876 395.04402 
L 515.437253 396.541882 
L 522.861413 398.796128 
L 531.346166 401.050515 
L 537.709731 402.53092 
L 544.073297 403.758661 
L 549.376268 404.572227 
L 555.739833 405.301866 
L 561.042804 405.724799 
L 568.466963 406.118891 
L 574.830528 406.250185 
L 581.194094 406.137751 
L 594.981818 405.685956 
L 594.981818 405.685956 
" clip-path="url(#pb03cad377f)" style="fill: none; stroke: #ff7f0e; stroke-width: 1.5; stroke-linecap: round"/>
   </g>
   <g id="line2d_10">
    <path d="M 238.373247 401.122156 
L 459.661743 401.122156 
" clip-path="url(#pb03cad377f)" style="fill: none; stroke: #ff7f0e; stroke-width: 3.5; stroke-linecap: round"/>
   </g>
   <g id="patch_3">
    <path d="M 25.92 420.8 
L 622.08 420.8 
" style="fill: none; stroke: #333333; stroke-width: 1.5; stroke-linejoin: miter; stroke-linecap: square"/>
   </g>
   <g id="text_4">
    <!-- $x_2^2$ -->
    <g style="fill: #262626" transform="translate(281.82 94.652)">
     <text>
      <tspan x="0" y="-0.421875" style="font-style: oblique; font-size: 76px; font-family: 'DejaVu Sans'; fill: #262626">x</tspan>
      <tspan x="44.976562" y="20.359375" style="font-size: 53.2px; font-family: 'DejaVu Sans'; fill: #262626">2</tspan>
      <tspan x="48.370833" y="-29.515625" style="font-size: 53.2px; font-family: 'DejaVu Sans'; fill: #262626">2</tspan>
     </text>
    </g>
   </g>
  </g>
 </g>
 <defs>
  <clipPath id="pb03cad377f">
   <rect x="25.92" y="115.932" width="596.16" height="304.868"/>
  </clipPath>
 </defs>
</svg>
