<?xml version="1.0" encoding="utf-8" standalone="no"?>
<!DOCTYPE svg PUBLIC "-//W3C//DTD SVG 1.1//EN"
  "http://www.w3.org/Graphics/SVG/1.1/DTD/svg11.dtd">
<svg xmlns:xlink="http://www.w3.org/1999/xlink" width="648pt" height="504pt" viewBox="0 0 648 504" xmlns="http://www.w3.org/2000/svg" version="1.1">
 <metadata>
  <rdf:RDF xmlns:dc="http://purl.org/dc/elements/1.1/" xmlns:cc="http://creativecommons.org/ns#" xmlns:rdf="http://www.w3.org/1999/02/22-rdf-syntax-ns#">
   <cc:Work>
    <dc:type rdf:resource="http://purl.org/dc/dcmitype/StillImage"/>
    <dc:date>2026-02-22T16:15:37.989657</dc:date>
    <dc:format>image/svg+xml</dc:format>
    <dc:creator>
     <cc:Agent>
      <dc:title>Matplotlib v3.10.6, https://matplotlib.org/</dc:title>
     </cc:Agent>
    </dc:creator>
   </cc:Work>
  </rdf:RDF>
 </metadata>
 <defs>
  <style type="text/css">*{stroke-linejoin: round; stroke-linecap: butt}</style>
 </defs>
 <g id="figure_1">
  <g id="patch_1">
   <path d="M 0 504 
L 648 504 
L 648 0 
L 0 0 
L 0 504 
z
" style="fill: none; opacity: 0"/>
  </g>
  <g id="axes_1">
   <g id="patch_2">
    <path d="M 25.92 420.8 
L 622.08 420.8 
L 622.08 115.932 
L 25.92 115.932 
L 25.92 420.8 
z
" style="fill: none"/>
   </g>
   <g id="matplotlib.axis_1">
    <g id="xtick_1">
     <g id="line2d_1">
      <path d="M 159.91415 420.8 
L 159.91415 115.932 
" clip-path="url(#pa436e705b0)" style="fill: none; stroke: #ffffff; stroke-opacity: 0.4; stroke-linecap: round"/>
     </g>
     <g id="line2d_2"/>
     <g id="text_1">
      <text style="font-size: 52px; font-family: 'DejaVu Serif', 'Times New Roman', serif; text-anchor: middle; fill: #262626" x="159.91415" y="467.311875" transform="rotate(-0 159.91415 467.311875)">−10</text>
     </g>
    </g>
    <g id="xtick_2">
     <g id="line2d_3">
      <path d="M 324.005368 420.8 
L 324.005368 115.932 
" clip-path="url(#pa436e705b0)" style="fill: none; stroke: #ffffff; stroke-opacity: 0.4; stroke-linecap: round"/>
     </g>
     <g id="line2d_4"/>
     <g id="text_2">
      <text style="font-size: 52px; font-family: 'DejaVu Serif', 'Times New Roman', serif; text-anchor: middle; fill: #262626" x="324.005368" y="467.311875" transform="rotate(-0 324.005368 467.311875)">0</text>
     </g>
    </g>
    <g id="xtick_3">
     <g id="line2d_5">
      <path d="M 488.096587 420.8 
L 488.096587 115.932 
" clip-path="url(#pa436e705b0)" style="fill: none; stroke: #ffffff; stroke-opacity: 0.4; stroke-linecap: round"/>
     </g>
     <g id="line2d_6"/>
     <g id="text_3">
      <text style="font-size: 52px; font-family: 'DejaVu Serif', 'Times New Roman', serif; text-anchor: middle; fill: #262626" x="488.096587" y="467.311875" transform="rotate(-0 488.096587 467.311875)">10</text>
     </g>
    </g>
   </g>
   <g id="matplotlib.axis_2">
    <g id="ytick_1">
     <g id="line2d_7">
      <path d="M 25.92 406.942364 
L 622.08 406.942364 
" clip-path="url(#pa436e705b0)" style="fill: none; stroke: #ffffff; stroke-opacity: 0.4; stroke-linecap: round"/>
     </g>
    </g>
    <g id="ytick_2">
     <g id="line2d_8">
      <path d="M 25.92 240.629051 
L 622.08 240.629051 
" clip-path="url(#pa436e705b0)" style="fill: none; stroke: #ffffff; stroke-opacity: 0.4; stroke-linecap: round"/>
     </g>
    </g>
   </g>
   <g id="FillBetweenPolyCollection_1">
    <defs>
     <path id="m2223527b84" d="M 53.018182 -97.057636 
L 53.018182 -99.368099 
L 54.078776 -99.365495 
L 55.13937 -99.360316 
L 56.199964 -99.352624 
L 57.260559 -99.342506 
L 58.321153 -99.330706 
L 59.381747 -99.320294 
L 60.442341 -99.303525 
L 61.502935 -99.287985 
L 62.56353 -99.271042 
L 63.624124 -99.252976 
L 64.684718 -99.234697 
L 65.745312 -99.216499 
L 66.805906 -99.19806 
L 67.866501 -99.179666 
L 68.927095 -99.161581 
L 69.987689 -99.144041 
L 71.048283 -99.127247 
L 72.108877 -99.111364 
L 73.169472 -99.096514 
L 74.230066 -99.0805 
L 75.29066 -99.068421 
L 76.351254 -99.057376 
L 77.411848 -99.05024 
L 78.472443 -99.044799 
L 79.533037 -99.038192 
L 80.593631 -99.030307 
L 81.654225 -99.026695 
L 82.714819 -99.030146 
L 83.775414 -99.035654 
L 84.836008 -99.040535 
L 85.896602 -99.053016 
L 86.957196 -99.063194 
L 88.01779 -99.072995 
L 89.078385 -99.093626 
L 90.138979 -99.11667 
L 91.199573 -99.145115 
L 92.260167 -99.182099 
L 93.320761 -99.220656 
L 94.381356 -99.266965 
L 95.44195 -99.316956 
L 96.502544 -99.384244 
L 97.563138 -99.462825 
L 98.623732 -99.551331 
L 99.684327 -99.654131 
L 100.744921 -99.775627 
L 101.805515 -99.917467 
L 102.866109 -100.07332 
L 103.926703 -100.249173 
L 104.987298 -100.446321 
L 106.047892 -100.665884 
L 107.108486 -100.905847 
L 108.16908 -101.166688 
L 109.229674 -101.45424 
L 110.290269 -101.765395 
L 111.350863 -102.110572 
L 112.411457 -102.474399 
L 113.472051 -102.860343 
L 114.532645 -103.266908 
L 115.59324 -103.692835 
L 116.653834 -104.138795 
L 117.714428 -104.599477 
L 118.775022 -105.066391 
L 119.835616 -105.549649 
L 120.896211 -106.045317 
L 121.956805 -106.549092 
L 123.017399 -107.047566 
L 124.077993 -107.536224 
L 125.138587 -108.022607 
L 126.199182 -108.504927 
L 127.259776 -108.978366 
L 128.32037 -109.441439 
L 129.380964 -109.890862 
L 130.441558 -110.328292 
L 131.502153 -110.75655 
L 132.562747 -111.179768 
L 133.623341 -111.588366 
L 134.683935 -111.982741 
L 135.744529 -112.377967 
L 136.805124 -112.77848 
L 137.865718 -113.177823 
L 138.926312 -113.57006 
L 139.986906 -113.970209 
L 141.0475 -114.381995 
L 142.108095 -114.803975 
L 143.168689 -115.262204 
L 144.229283 -115.720362 
L 145.289877 -116.215643 
L 146.350471 -116.728172 
L 147.411066 -117.260638 
L 148.47166 -117.819085 
L 149.532254 -118.412536 
L 150.592848 -119.024965 
L 151.653442 -119.659523 
L 152.714037 -120.328657 
L 153.774631 -121.036407 
L 154.835225 -121.744185 
L 155.895819 -122.472905 
L 156.956413 -123.232181 
L 158.017008 -124.005597 
L 159.077602 -124.790262 
L 160.138196 -125.589015 
L 161.19879 -126.392287 
L 162.259384 -127.214711 
L 163.319979 -128.045176 
L 164.380573 -128.870388 
L 165.441167 -129.704633 
L 166.501761 -130.532266 
L 167.562355 -131.38246 
L 168.62295 -132.230278 
L 169.683544 -133.083513 
L 170.744138 -133.945723 
L 171.804732 -134.819639 
L 172.865326 -135.691912 
L 173.925921 -136.583533 
L 174.986515 -137.488945 
L 176.047109 -138.4161 
L 177.107703 -139.365343 
L 178.168297 -140.336734 
L 179.228892 -141.329879 
L 180.289486 -142.356006 
L 181.35008 -143.400784 
L 182.410674 -144.492455 
L 183.471268 -145.602909 
L 184.531863 -146.771772 
L 185.592457 -147.981491 
L 186.653051 -149.248033 
L 187.713645 -150.56695 
L 188.774239 -151.927211 
L 189.834834 -153.345687 
L 190.895428 -154.839253 
L 191.956022 -156.396352 
L 193.016616 -157.996676 
L 194.07721 -159.664958 
L 195.137805 -161.398787 
L 196.198399 -163.198996 
L 197.258993 -165.048646 
L 198.319587 -166.997192 
L 199.380181 -168.985614 
L 200.440776 -171.043176 
L 201.50137 -173.159944 
L 202.561964 -175.342662 
L 203.622558 -177.564746 
L 204.683152 -179.827433 
L 205.743747 -182.119699 
L 206.804341 -184.428209 
L 207.864935 -186.770384 
L 208.925529 -189.124741 
L 209.986123 -191.485166 
L 211.046718 -193.844259 
L 212.107312 -196.197624 
L 213.167906 -198.556415 
L 214.2285 -200.915982 
L 215.289094 -203.22146 
L 216.349689 -205.53719 
L 217.410283 -207.83936 
L 218.470877 -210.085927 
L 219.531471 -212.304385 
L 220.592065 -214.449696 
L 221.65266 -216.578704 
L 222.713254 -218.713558 
L 223.773848 -220.812117 
L 224.834442 -222.90288 
L 225.895036 -224.9423 
L 226.955631 -226.962455 
L 228.016225 -228.996835 
L 229.076819 -231.022748 
L 230.137413 -233.066588 
L 231.198007 -235.131619 
L 232.258602 -237.19729 
L 233.319196 -239.281841 
L 234.37979 -241.397797 
L 235.440384 -243.566163 
L 236.500978 -245.74973 
L 237.561573 -247.960709 
L 238.622167 -250.226826 
L 239.682761 -252.551013 
L 240.743355 -254.922315 
L 241.803949 -257.334915 
L 242.864544 -259.793589 
L 243.925138 -262.325783 
L 244.985732 -264.896066 
L 246.046326 -267.492912 
L 247.10692 -270.133312 
L 248.167515 -272.816315 
L 249.228109 -275.538681 
L 250.288703 -278.274332 
L 251.349297 -281.034126 
L 252.409891 -283.817123 
L 253.470486 -286.619713 
L 254.53108 -289.481563 
L 255.591674 -292.342969 
L 256.652268 -295.184414 
L 257.712862 -298.024578 
L 258.773457 -300.850658 
L 259.834051 -303.694175 
L 260.894645 -306.512053 
L 261.955239 -309.319214 
L 263.015833 -312.108765 
L 264.076428 -314.858075 
L 265.137022 -317.573238 
L 266.197616 -320.246118 
L 267.25821 -322.905032 
L 268.318804 -325.499156 
L 269.379399 -328.069736 
L 270.439993 -330.575524 
L 271.500587 -333.032723 
L 272.561181 -335.424259 
L 273.621775 -337.78611 
L 274.68237 -340.058224 
L 275.742964 -342.268022 
L 276.803558 -344.466248 
L 277.864152 -346.559624 
L 278.924746 -348.600496 
L 279.985341 -350.577506 
L 281.045935 -352.537337 
L 282.106529 -354.375926 
L 283.167123 -356.164131 
L 284.227717 -357.857287 
L 285.288312 -359.469172 
L 286.348906 -361.045498 
L 287.4095 -362.546967 
L 288.470094 -363.977112 
L 289.530688 -365.325483 
L 290.591283 -366.621519 
L 291.651877 -367.780774 
L 292.712471 -368.857794 
L 293.773065 -369.847689 
L 294.833659 -370.746725 
L 295.894254 -371.520097 
L 296.954848 -372.193328 
L 298.015442 -372.749542 
L 299.076036 -373.240306 
L 300.13663 -373.576605 
L 301.197225 -373.810818 
L 302.257819 -373.988894 
L 303.318413 -374.051715 
L 304.379007 -374.062247 
L 305.439601 -373.939686 
L 306.500196 -373.772997 
L 307.56079 -373.543444 
L 308.621384 -373.239027 
L 309.681978 -372.960653 
L 310.742572 -372.645122 
L 311.803167 -372.310779 
L 312.863761 -371.975675 
L 313.924355 -371.665219 
L 314.984949 -371.364702 
L 316.045543 -371.1191 
L 317.106138 -370.929173 
L 318.166732 -370.797913 
L 319.227326 -370.717485 
L 320.28792 -370.714854 
L 321.348514 -370.743534 
L 322.409109 -370.874749 
L 323.469703 -371.011209 
L 324.530297 -371.2101 
L 325.590891 -371.45349 
L 326.651486 -371.762144 
L 327.71208 -372.060684 
L 328.772674 -372.402523 
L 329.833268 -372.752773 
L 330.893862 -373.074546 
L 331.954457 -373.39011 
L 333.015051 -373.668523 
L 334.075645 -373.918536 
L 335.136239 -374.078306 
L 336.196833 -374.196303 
L 337.257428 -374.210364 
L 338.318022 -374.094705 
L 339.378616 -373.931076 
L 340.43921 -373.70399 
L 341.499804 -373.337447 
L 342.560399 -372.891317 
L 343.620993 -372.293166 
L 344.681587 -371.620869 
L 345.742181 -370.84266 
L 346.802775 -369.983797 
L 347.86337 -369.006492 
L 348.923964 -367.982829 
L 349.984558 -366.847506 
L 351.045152 -365.616086 
L 352.105746 -364.344322 
L 353.166341 -362.968605 
L 354.226935 -361.562477 
L 355.287529 -360.106454 
L 356.348123 -358.614065 
L 357.408717 -357.07998 
L 358.469312 -355.515444 
L 359.529906 -353.894546 
L 360.5905 -352.245692 
L 361.651094 -350.633353 
L 362.711688 -348.958784 
L 363.772283 -347.263752 
L 364.832877 -345.505647 
L 365.893471 -343.782879 
L 366.954065 -342.052676 
L 368.014659 -340.293694 
L 369.075254 -338.526941 
L 370.135848 -336.701415 
L 371.196442 -334.86566 
L 372.257036 -333.020446 
L 373.31763 -331.16143 
L 374.378225 -329.249015 
L 375.438819 -327.343627 
L 376.499413 -325.386552 
L 377.560007 -323.379807 
L 378.620601 -321.32166 
L 379.681196 -319.260416 
L 380.74179 -317.148769 
L 381.802384 -315.009341 
L 382.862978 -312.815001 
L 383.923572 -310.618645 
L 384.984167 -308.387049 
L 386.044761 -306.123176 
L 387.105355 -303.82548 
L 388.165949 -301.485458 
L 389.226543 -299.145474 
L 390.287138 -296.726296 
L 391.347732 -294.305963 
L 392.408326 -291.87503 
L 393.46892 -289.390147 
L 394.529514 -286.896537 
L 395.590109 -284.405878 
L 396.650703 -281.883132 
L 397.711297 -279.335263 
L 398.771891 -276.808529 
L 399.832485 -274.267251 
L 400.89308 -271.71064 
L 401.953674 -269.164392 
L 403.014268 -266.605991 
L 404.074862 -264.077652 
L 405.135456 -261.584679 
L 406.196051 -259.070707 
L 407.256645 -256.605165 
L 408.317239 -254.141007 
L 409.377833 -251.695522 
L 410.438427 -249.25254 
L 411.499022 -246.848052 
L 412.559616 -244.449986 
L 413.62021 -242.071595 
L 414.680804 -239.731166 
L 415.741398 -237.376897 
L 416.801993 -235.031531 
L 417.862587 -232.700568 
L 418.923181 -230.388816 
L 419.983775 -228.054807 
L 421.044369 -225.741291 
L 422.104964 -223.424867 
L 423.165558 -221.070982 
L 424.226152 -218.707643 
L 425.286746 -216.360194 
L 426.34734 -213.989096 
L 427.407935 -211.607631 
L 428.468529 -209.214541 
L 429.529123 -206.79288 
L 430.589717 -204.352494 
L 431.650311 -201.941367 
L 432.710906 -199.49544 
L 433.7715 -197.071001 
L 434.832094 -194.662556 
L 435.892688 -192.248592 
L 436.953282 -189.869704 
L 438.013877 -187.50252 
L 439.074471 -185.164237 
L 440.135065 -182.86049 
L 441.195659 -180.568598 
L 442.256253 -178.341835 
L 443.316848 -176.177635 
L 444.377442 -174.024761 
L 445.438036 -171.919489 
L 446.49863 -169.877197 
L 447.559224 -167.893434 
L 448.619819 -165.968564 
L 449.680413 -164.065347 
L 450.741007 -162.208906 
L 451.801601 -160.421248 
L 452.862195 -158.659223 
L 453.92279 -156.936537 
L 454.983384 -155.246305 
L 456.043978 -153.584781 
L 457.104572 -151.966893 
L 458.165166 -150.393288 
L 459.225761 -148.847496 
L 460.286355 -147.32885 
L 461.346949 -145.845836 
L 462.407543 -144.406886 
L 463.468137 -142.976707 
L 464.528732 -141.56654 
L 465.589326 -140.189693 
L 466.64992 -138.849975 
L 467.710514 -137.524931 
L 468.771108 -136.229139 
L 469.831703 -134.955322 
L 470.892297 -133.723532 
L 471.952891 -132.530291 
L 473.013485 -131.358357 
L 474.074079 -130.215989 
L 475.134674 -129.101635 
L 476.195268 -128.023921 
L 477.255862 -126.979418 
L 478.316456 -125.965333 
L 479.37705 -124.975415 
L 480.437645 -124.034393 
L 481.498239 -123.127922 
L 482.558833 -122.23675 
L 483.619427 -121.393758 
L 484.680021 -120.57814 
L 485.740616 -119.784284 
L 486.80121 -119.034145 
L 487.861804 -118.300245 
L 488.922398 -117.603813 
L 489.982992 -116.937859 
L 491.043587 -116.301774 
L 492.104181 -115.693232 
L 493.164775 -115.126314 
L 494.225369 -114.579399 
L 495.285963 -114.055295 
L 496.346558 -113.565593 
L 497.407152 -113.106026 
L 498.467746 -112.662737 
L 499.52834 -112.254746 
L 500.588934 -111.863642 
L 501.649529 -111.489095 
L 502.710123 -111.132062 
L 503.770717 -110.798465 
L 504.831311 -110.476565 
L 505.891905 -110.172753 
L 506.9525 -109.887061 
L 508.013094 -109.612271 
L 509.073688 -109.346926 
L 510.134282 -109.082709 
L 511.194876 -108.835613 
L 512.255471 -108.581354 
L 513.316065 -108.352131 
L 514.376659 -108.119485 
L 515.437253 -107.880324 
L 516.497847 -107.650361 
L 517.558442 -107.418064 
L 518.619036 -107.180029 
L 519.67963 -106.936906 
L 520.740224 -106.702949 
L 521.800818 -106.46655 
L 522.861413 -106.225569 
L 523.922007 -105.989862 
L 524.982601 -105.749012 
L 526.043195 -105.507051 
L 527.103789 -105.26453 
L 528.164384 -105.026609 
L 529.224978 -104.774689 
L 530.285572 -104.53775 
L 531.346166 -104.30046 
L 532.40676 -104.063566 
L 533.467355 -103.829971 
L 534.527949 -103.603198 
L 535.588543 -103.376528 
L 536.649137 -103.157905 
L 537.709731 -102.942737 
L 538.770326 -102.741208 
L 539.83092 -102.543103 
L 540.891514 -102.349624 
L 541.952108 -102.168616 
L 543.012702 -101.994828 
L 544.073297 -101.828727 
L 545.133891 -101.670672 
L 546.194485 -101.514078 
L 547.255079 -101.371998 
L 548.315673 -101.240861 
L 549.376268 -101.113199 
L 550.436862 -100.996737 
L 551.497456 -100.885961 
L 552.55805 -100.785511 
L 553.618644 -100.694893 
L 554.679239 -100.611393 
L 555.739833 -100.527054 
L 556.800427 -100.453606 
L 557.861021 -100.384547 
L 558.921615 -100.319155 
L 559.98221 -100.254409 
L 561.042804 -100.196901 
L 562.103398 -100.137945 
L 563.163992 -100.082024 
L 564.224586 -100.023417 
L 565.285181 -99.964419 
L 566.345775 -99.906779 
L 567.406369 -99.838155 
L 568.466963 -99.77629 
L 569.527557 -99.714546 
L 570.588152 -99.650057 
L 571.648746 -99.580664 
L 572.70934 -99.511627 
L 573.769934 -99.443236 
L 574.830528 -99.370803 
L 575.891123 -99.294759 
L 576.951717 -99.221266 
L 578.012311 -99.14859 
L 579.072905 -99.076702 
L 580.133499 -99.006227 
L 581.194094 -98.935511 
L 582.254688 -98.872519 
L 583.315282 -98.807622 
L 584.375876 -98.744174 
L 585.43647 -98.689925 
L 586.497065 -98.639564 
L 587.557659 -98.593525 
L 588.618253 -98.552164 
L 589.678847 -98.515763 
L 590.739441 -98.484534 
L 591.800036 -98.464441 
L 592.86063 -98.44549 
L 593.921224 -98.432317 
L 594.981818 -98.430775 
L 594.981818 -97.057636 
L 594.981818 -97.057636 
L 593.921224 -97.057636 
L 592.86063 -97.057636 
L 591.800036 -97.057636 
L 590.739441 -97.057636 
L 589.678847 -97.057636 
L 588.618253 -97.057636 
L 587.557659 -97.057636 
L 586.497065 -97.057636 
L 585.43647 -97.057636 
L 584.375876 -97.057636 
L 583.315282 -97.057636 
L 582.254688 -97.057636 
L 581.194094 -97.057636 
L 580.133499 -97.057636 
L 579.072905 -97.057636 
L 578.012311 -97.057636 
L 576.951717 -97.057636 
L 575.891123 -97.057636 
L 574.830528 -97.057636 
L 573.769934 -97.057636 
L 572.70934 -97.057636 
L 571.648746 -97.057636 
L 570.588152 -97.057636 
L 569.527557 -97.057636 
L 568.466963 -97.057636 
L 567.406369 -97.057636 
L 566.345775 -97.057636 
L 565.285181 -97.057636 
L 564.224586 -97.057636 
L 563.163992 -97.057636 
L 562.103398 -97.057636 
L 561.042804 -97.057636 
L 559.98221 -97.057636 
L 558.921615 -97.057636 
L 557.861021 -97.057636 
L 556.800427 -97.057636 
L 555.739833 -97.057636 
L 554.679239 -97.057636 
L 553.618644 -97.057636 
L 552.55805 -97.057636 
L 551.497456 -97.057636 
L 550.436862 -97.057636 
L 549.376268 -97.057636 
L 548.315673 -97.057636 
L 547.255079 -97.057636 
L 546.194485 -97.057636 
L 545.133891 -97.057636 
L 544.073297 -97.057636 
L 543.012702 -97.057636 
L 541.952108 -97.057636 
L 540.891514 -97.057636 
L 539.83092 -97.057636 
L 538.770326 -97.057636 
L 537.709731 -97.057636 
L 536.649137 -97.057636 
L 535.588543 -97.057636 
L 534.527949 -97.057636 
L 533.467355 -97.057636 
L 532.40676 -97.057636 
L 531.346166 -97.057636 
L 530.285572 -97.057636 
L 529.224978 -97.057636 
L 528.164384 -97.057636 
L 527.103789 -97.057636 
L 526.043195 -97.057636 
L 524.982601 -97.057636 
L 523.922007 -97.057636 
L 522.861413 -97.057636 
L 521.800818 -97.057636 
L 520.740224 -97.057636 
L 519.67963 -97.057636 
L 518.619036 -97.057636 
L 517.558442 -97.057636 
L 516.497847 -97.057636 
L 515.437253 -97.057636 
L 514.376659 -97.057636 
L 513.316065 -97.057636 
L 512.255471 -97.057636 
L 511.194876 -97.057636 
L 510.134282 -97.057636 
L 509.073688 -97.057636 
L 508.013094 -97.057636 
L 506.9525 -97.057636 
L 505.891905 -97.057636 
L 504.831311 -97.057636 
L 503.770717 -97.057636 
L 502.710123 -97.057636 
L 501.649529 -97.057636 
L 500.588934 -97.057636 
L 499.52834 -97.057636 
L 498.467746 -97.057636 
L 497.407152 -97.057636 
L 496.346558 -97.057636 
L 495.285963 -97.057636 
L 494.225369 -97.057636 
L 493.164775 -97.057636 
L 492.104181 -97.057636 
L 491.043587 -97.057636 
L 489.982992 -97.057636 
L 488.922398 -97.057636 
L 487.861804 -97.057636 
L 486.80121 -97.057636 
L 485.740616 -97.057636 
L 484.680021 -97.057636 
L 483.619427 -97.057636 
L 482.558833 -97.057636 
L 481.498239 -97.057636 
L 480.437645 -97.057636 
L 479.37705 -97.057636 
L 478.316456 -97.057636 
L 477.255862 -97.057636 
L 476.195268 -97.057636 
L 475.134674 -97.057636 
L 474.074079 -97.057636 
L 473.013485 -97.057636 
L 471.952891 -97.057636 
L 470.892297 -97.057636 
L 469.831703 -97.057636 
L 468.771108 -97.057636 
L 467.710514 -97.057636 
L 466.64992 -97.057636 
L 465.589326 -97.057636 
L 464.528732 -97.057636 
L 463.468137 -97.057636 
L 462.407543 -97.057636 
L 461.346949 -97.057636 
L 460.286355 -97.057636 
L 459.225761 -97.057636 
L 458.165166 -97.057636 
L 457.104572 -97.057636 
L 456.043978 -97.057636 
L 454.983384 -97.057636 
L 453.92279 -97.057636 
L 452.862195 -97.057636 
L 451.801601 -97.057636 
L 450.741007 -97.057636 
L 449.680413 -97.057636 
L 448.619819 -97.057636 
L 447.559224 -97.057636 
L 446.49863 -97.057636 
L 445.438036 -97.057636 
L 444.377442 -97.057636 
L 443.316848 -97.057636 
L 442.256253 -97.057636 
L 441.195659 -97.057636 
L 440.135065 -97.057636 
L 439.074471 -97.057636 
L 438.013877 -97.057636 
L 436.953282 -97.057636 
L 435.892688 -97.057636 
L 434.832094 -97.057636 
L 433.7715 -97.057636 
L 432.710906 -97.057636 
L 431.650311 -97.057636 
L 430.589717 -97.057636 
L 429.529123 -97.057636 
L 428.468529 -97.057636 
L 427.407935 -97.057636 
L 426.34734 -97.057636 
L 425.286746 -97.057636 
L 424.226152 -97.057636 
L 423.165558 -97.057636 
L 422.104964 -97.057636 
L 421.044369 -97.057636 
L 419.983775 -97.057636 
L 418.923181 -97.057636 
L 417.862587 -97.057636 
L 416.801993 -97.057636 
L 415.741398 -97.057636 
L 414.680804 -97.057636 
L 413.62021 -97.057636 
L 412.559616 -97.057636 
L 411.499022 -97.057636 
L 410.438427 -97.057636 
L 409.377833 -97.057636 
L 408.317239 -97.057636 
L 407.256645 -97.057636 
L 406.196051 -97.057636 
L 405.135456 -97.057636 
L 404.074862 -97.057636 
L 403.014268 -97.057636 
L 401.953674 -97.057636 
L 400.89308 -97.057636 
L 399.832485 -97.057636 
L 398.771891 -97.057636 
L 397.711297 -97.057636 
L 396.650703 -97.057636 
L 395.590109 -97.057636 
L 394.529514 -97.057636 
L 393.46892 -97.057636 
L 392.408326 -97.057636 
L 391.347732 -97.057636 
L 390.287138 -97.057636 
L 389.226543 -97.057636 
L 388.165949 -97.057636 
L 387.105355 -97.057636 
L 386.044761 -97.057636 
L 384.984167 -97.057636 
L 383.923572 -97.057636 
L 382.862978 -97.057636 
L 381.802384 -97.057636 
L 380.74179 -97.057636 
L 379.681196 -97.057636 
L 378.620601 -97.057636 
L 377.560007 -97.057636 
L 376.499413 -97.057636 
L 375.438819 -97.057636 
L 374.378225 -97.057636 
L 373.31763 -97.057636 
L 372.257036 -97.057636 
L 371.196442 -97.057636 
L 370.135848 -97.057636 
L 369.075254 -97.057636 
L 368.014659 -97.057636 
L 366.954065 -97.057636 
L 365.893471 -97.057636 
L 364.832877 -97.057636 
L 363.772283 -97.057636 
L 362.711688 -97.057636 
L 361.651094 -97.057636 
L 360.5905 -97.057636 
L 359.529906 -97.057636 
L 358.469312 -97.057636 
L 357.408717 -97.057636 
L 356.348123 -97.057636 
L 355.287529 -97.057636 
L 354.226935 -97.057636 
L 353.166341 -97.057636 
L 352.105746 -97.057636 
L 351.045152 -97.057636 
L 349.984558 -97.057636 
L 348.923964 -97.057636 
L 347.86337 -97.057636 
L 346.802775 -97.057636 
L 345.742181 -97.057636 
L 344.681587 -97.057636 
L 343.620993 -97.057636 
L 342.560399 -97.057636 
L 341.499804 -97.057636 
L 340.43921 -97.057636 
L 339.378616 -97.057636 
L 338.318022 -97.057636 
L 337.257428 -97.057636 
L 336.196833 -97.057636 
L 335.136239 -97.057636 
L 334.075645 -97.057636 
L 333.015051 -97.057636 
L 331.954457 -97.057636 
L 330.893862 -97.057636 
L 329.833268 -97.057636 
L 328.772674 -97.057636 
L 327.71208 -97.057636 
L 326.651486 -97.057636 
L 325.590891 -97.057636 
L 324.530297 -97.057636 
L 323.469703 -97.057636 
L 322.409109 -97.057636 
L 321.348514 -97.057636 
L 320.28792 -97.057636 
L 319.227326 -97.057636 
L 318.166732 -97.057636 
L 317.106138 -97.057636 
L 316.045543 -97.057636 
L 314.984949 -97.057636 
L 313.924355 -97.057636 
L 312.863761 -97.057636 
L 311.803167 -97.057636 
L 310.742572 -97.057636 
L 309.681978 -97.057636 
L 308.621384 -97.057636 
L 307.56079 -97.057636 
L 306.500196 -97.057636 
L 305.439601 -97.057636 
L 304.379007 -97.057636 
L 303.318413 -97.057636 
L 302.257819 -97.057636 
L 301.197225 -97.057636 
L 300.13663 -97.057636 
L 299.076036 -97.057636 
L 298.015442 -97.057636 
L 296.954848 -97.057636 
L 295.894254 -97.057636 
L 294.833659 -97.057636 
L 293.773065 -97.057636 
L 292.712471 -97.057636 
L 291.651877 -97.057636 
L 290.591283 -97.057636 
L 289.530688 -97.057636 
L 288.470094 -97.057636 
L 287.4095 -97.057636 
L 286.348906 -97.057636 
L 285.288312 -97.057636 
L 284.227717 -97.057636 
L 283.167123 -97.057636 
L 282.106529 -97.057636 
L 281.045935 -97.057636 
L 279.985341 -97.057636 
L 278.924746 -97.057636 
L 277.864152 -97.057636 
L 276.803558 -97.057636 
L 275.742964 -97.057636 
L 274.68237 -97.057636 
L 273.621775 -97.057636 
L 272.561181 -97.057636 
L 271.500587 -97.057636 
L 270.439993 -97.057636 
L 269.379399 -97.057636 
L 268.318804 -97.057636 
L 267.25821 -97.057636 
L 266.197616 -97.057636 
L 265.137022 -97.057636 
L 264.076428 -97.057636 
L 263.015833 -97.057636 
L 261.955239 -97.057636 
L 260.894645 -97.057636 
L 259.834051 -97.057636 
L 258.773457 -97.057636 
L 257.712862 -97.057636 
L 256.652268 -97.057636 
L 255.591674 -97.057636 
L 254.53108 -97.057636 
L 253.470486 -97.057636 
L 252.409891 -97.057636 
L 251.349297 -97.057636 
L 250.288703 -97.057636 
L 249.228109 -97.057636 
L 248.167515 -97.057636 
L 247.10692 -97.057636 
L 246.046326 -97.057636 
L 244.985732 -97.057636 
L 243.925138 -97.057636 
L 242.864544 -97.057636 
L 241.803949 -97.057636 
L 240.743355 -97.057636 
L 239.682761 -97.057636 
L 238.622167 -97.057636 
L 237.561573 -97.057636 
L 236.500978 -97.057636 
L 235.440384 -97.057636 
L 234.37979 -97.057636 
L 233.319196 -97.057636 
L 232.258602 -97.057636 
L 231.198007 -97.057636 
L 230.137413 -97.057636 
L 229.076819 -97.057636 
L 228.016225 -97.057636 
L 226.955631 -97.057636 
L 225.895036 -97.057636 
L 224.834442 -97.057636 
L 223.773848 -97.057636 
L 222.713254 -97.057636 
L 221.65266 -97.057636 
L 220.592065 -97.057636 
L 219.531471 -97.057636 
L 218.470877 -97.057636 
L 217.410283 -97.057636 
L 216.349689 -97.057636 
L 215.289094 -97.057636 
L 214.2285 -97.057636 
L 213.167906 -97.057636 
L 212.107312 -97.057636 
L 211.046718 -97.057636 
L 209.986123 -97.057636 
L 208.925529 -97.057636 
L 207.864935 -97.057636 
L 206.804341 -97.057636 
L 205.743747 -97.057636 
L 204.683152 -97.057636 
L 203.622558 -97.057636 
L 202.561964 -97.057636 
L 201.50137 -97.057636 
L 200.440776 -97.057636 
L 199.380181 -97.057636 
L 198.319587 -97.057636 
L 197.258993 -97.057636 
L 196.198399 -97.057636 
L 195.137805 -97.057636 
L 194.07721 -97.057636 
L 193.016616 -97.057636 
L 191.956022 -97.057636 
L 190.895428 -97.057636 
L 189.834834 -97.057636 
L 188.774239 -97.057636 
L 187.713645 -97.057636 
L 186.653051 -97.057636 
L 185.592457 -97.057636 
L 184.531863 -97.057636 
L 183.471268 -97.057636 
L 182.410674 -97.057636 
L 181.35008 -97.057636 
L 180.289486 -97.057636 
L 179.228892 -97.057636 
L 178.168297 -97.057636 
L 177.107703 -97.057636 
L 176.047109 -97.057636 
L 174.986515 -97.057636 
L 173.925921 -97.057636 
L 172.865326 -97.057636 
L 171.804732 -97.057636 
L 170.744138 -97.057636 
L 169.683544 -97.057636 
L 168.62295 -97.057636 
L 167.562355 -97.057636 
L 166.501761 -97.057636 
L 165.441167 -97.057636 
L 164.380573 -97.057636 
L 163.319979 -97.057636 
L 162.259384 -97.057636 
L 161.19879 -97.057636 
L 160.138196 -97.057636 
L 159.077602 -97.057636 
L 158.017008 -97.057636 
L 156.956413 -97.057636 
L 155.895819 -97.057636 
L 154.835225 -97.057636 
L 153.774631 -97.057636 
L 152.714037 -97.057636 
L 151.653442 -97.057636 
L 150.592848 -97.057636 
L 149.532254 -97.057636 
L 148.47166 -97.057636 
L 147.411066 -97.057636 
L 146.350471 -97.057636 
L 145.289877 -97.057636 
L 144.229283 -97.057636 
L 143.168689 -97.057636 
L 142.108095 -97.057636 
L 141.0475 -97.057636 
L 139.986906 -97.057636 
L 138.926312 -97.057636 
L 137.865718 -97.057636 
L 136.805124 -97.057636 
L 135.744529 -97.057636 
L 134.683935 -97.057636 
L 133.623341 -97.057636 
L 132.562747 -97.057636 
L 131.502153 -97.057636 
L 130.441558 -97.057636 
L 129.380964 -97.057636 
L 128.32037 -97.057636 
L 127.259776 -97.057636 
L 126.199182 -97.057636 
L 125.138587 -97.057636 
L 124.077993 -97.057636 
L 123.017399 -97.057636 
L 121.956805 -97.057636 
L 120.896211 -97.057636 
L 119.835616 -97.057636 
L 118.775022 -97.057636 
L 117.714428 -97.057636 
L 116.653834 -97.057636 
L 115.59324 -97.057636 
L 114.532645 -97.057636 
L 113.472051 -97.057636 
L 112.411457 -97.057636 
L 111.350863 -97.057636 
L 110.290269 -97.057636 
L 109.229674 -97.057636 
L 108.16908 -97.057636 
L 107.108486 -97.057636 
L 106.047892 -97.057636 
L 104.987298 -97.057636 
L 103.926703 -97.057636 
L 102.866109 -97.057636 
L 101.805515 -97.057636 
L 100.744921 -97.057636 
L 99.684327 -97.057636 
L 98.623732 -97.057636 
L 97.563138 -97.057636 
L 96.502544 -97.057636 
L 95.44195 -97.057636 
L 94.381356 -97.057636 
L 93.320761 -97.057636 
L 92.260167 -97.057636 
L 91.199573 -97.057636 
L 90.138979 -97.057636 
L 89.078385 -97.057636 
L 88.01779 -97.057636 
L 86.957196 -97.057636 
L 85.896602 -97.057636 
L 84.836008 -97.057636 
L 83.775414 -97.057636 
L 82.714819 -97.057636 
L 81.654225 -97.057636 
L 80.593631 -97.057636 
L 79.533037 -97.057636 
L 78.472443 -97.057636 
L 77.411848 -97.057636 
L 76.351254 -97.057636 
L 75.29066 -97.057636 
L 74.230066 -97.057636 
L 73.169472 -97.057636 
L 72.108877 -97.057636 
L 71.048283 -97.057636 
L 69.987689 -97.057636 
L 68.927095 -97.057636 
L 67.866501 -97.057636 
L 66.805906 -97.057636 
L 65.745312 -97.057636 
L 64.684718 -97.057636 
L 63.624124 -97.057636 
L 62.56353 -97.057636 
L 61.502935 -97.057636 
L 60.442341 -97.057636 
L 59.381747 -97.057636 
L 58.321153 -97.057636 
L 57.260559 -97.057636 
L 56.199964 -97.057636 
L 55.13937 -97.057636 
L 54.078776 -97.057636 
L 53.018182 -97.057636 
z
"/>
    </defs>
    <g clip-path="url(#pa436e705b0)">
     <use xlink:href="#m2223527b84" x="0" y="504" style="fill: #98df8a; fill-opacity: 0.35"/>
    </g>
   </g>
   <g id="line2d_9">
    <path d="M 53.018182 404.631901 
L 64.684718 404.765303 
L 82.714819 404.969854 
L 92.260167 404.817901 
L 97.563138 404.537175 
L 101.805515 404.082533 
L 104.987298 403.553679 
L 108.16908 402.833312 
L 111.350863 401.889428 
L 114.532645 400.733092 
L 118.775022 398.933609 
L 131.502153 393.24345 
L 137.865718 390.822177 
L 142.108095 389.196025 
L 146.350471 387.271828 
L 149.532254 385.587464 
L 152.714037 383.671343 
L 156.956413 380.767819 
L 162.259384 376.785289 
L 171.804732 369.180361 
L 176.047109 365.5839 
L 180.289486 361.643994 
L 183.471268 358.397091 
L 186.653051 354.751967 
L 189.834834 350.654313 
L 193.016616 346.003324 
L 196.198399 340.801004 
L 198.319587 337.002808 
L 201.50137 330.840056 
L 205.743747 321.880301 
L 212.107312 307.802376 
L 218.470877 293.914073 
L 222.713254 285.286442 
L 228.016225 275.003165 
L 233.319196 264.718159 
L 237.561573 256.039291 
L 240.743355 249.077685 
L 243.925138 241.674217 
L 248.167515 231.183685 
L 253.470486 217.380287 
L 263.015833 191.891235 
L 267.25821 181.094968 
L 271.500587 170.967277 
L 274.68237 163.941776 
L 277.864152 157.440376 
L 281.045935 151.462663 
L 284.227717 146.142713 
L 287.4095 141.453033 
L 289.530688 138.674517 
L 291.651877 136.219226 
L 293.773065 134.152311 
L 295.894254 132.479903 
L 298.015442 131.250458 
L 299.076036 130.759694 
L 301.197225 130.189182 
L 302.257819 130.011106 
L 304.379007 129.937753 
L 306.500196 130.227003 
L 308.621384 130.760973 
L 311.803167 131.689221 
L 314.984949 132.635298 
L 317.106138 133.070827 
L 319.227326 133.282515 
L 321.348514 133.256466 
L 324.530297 132.7899 
L 326.651486 132.237856 
L 329.833268 131.247227 
L 333.015051 130.331477 
L 335.136239 129.921694 
L 337.257428 129.789636 
L 339.378616 130.068924 
L 340.43921 130.29601 
L 342.560399 131.108683 
L 344.681587 132.379131 
L 346.802775 134.016203 
L 348.923964 136.017171 
L 351.045152 138.383914 
L 353.166341 141.031395 
L 356.348123 145.385935 
L 359.529906 150.105454 
L 364.832877 158.494353 
L 370.135848 167.298585 
L 375.438819 176.656373 
L 378.620601 182.67834 
L 381.802384 188.990659 
L 387.105355 200.17452 
L 392.408326 212.12497 
L 399.832485 229.732749 
L 407.256645 247.394835 
L 413.62021 261.928405 
L 429.529123 297.20712 
L 438.013877 316.49748 
L 442.256253 325.658165 
L 446.49863 334.122803 
L 449.680413 339.934653 
L 452.862195 345.340777 
L 457.104572 352.033107 
L 461.346949 358.154164 
L 465.589326 363.810307 
L 469.831703 369.044678 
L 473.013485 372.641643 
L 476.195268 375.976079 
L 479.37705 379.024585 
L 482.558833 381.76325 
L 485.740616 384.215716 
L 488.922398 386.396187 
L 492.104181 388.306768 
L 495.285963 389.944705 
L 498.467746 391.337263 
L 502.710123 392.867938 
L 506.9525 394.112939 
L 513.316065 395.647869 
L 541.952108 401.831384 
L 547.255079 402.628002 
L 553.618644 403.305107 
L 562.103398 403.862055 
L 574.830528 404.629197 
L 586.497065 405.360436 
L 592.86063 405.55451 
L 594.981818 405.569225 
L 594.981818 405.569225 
" clip-path="url(#pa436e705b0)" style="fill: none; stroke: #98df8a; stroke-width: 1.5; stroke-linecap: round"/>
   </g>
   <g id="line2d_10">
    <path d="M 197.783778 401.122156 
L 436.721773 401.122156 
" clip-path="url(#pa436e705b0)" style="fill: none; stroke: #98df8a; stroke-width: 3.5; stroke-linecap: round"/>
   </g>
   <g id="patch_3">
    <path d="M 25.92 420.8 
L 622.08 420.8 
" style="fill: none; stroke: #333333; stroke-width: 1.5; stroke-linejoin: miter; stroke-linecap: square"/>
   </g>
   <g id="text_4">
    <!-- $x_2^2x_3$ -->
    <g style="fill: #262626" transform="translate(241.16 94.652)">
     <text>
      <tspan x="0" y="-0.421875" style="font-style: oblique; font-size: 76px; font-family: 'DejaVu Sans'; fill: #262626">x</tspan>
      <tspan x="84.296419" y="-0.421875" style="font-style: oblique; font-size: 76px; font-family: 'DejaVu Sans'; fill: #262626">x</tspan>
      <tspan x="44.976562" y="20.359375" style="font-size: 53.2px; font-family: 'DejaVu Sans'; fill: #262626">2</tspan>
      <tspan x="48.370833" y="-29.515625" style="font-size: 53.2px; font-family: 'DejaVu Sans'; fill: #262626">2</tspan>
      <tspan x="129.272982" y="12.046875" style="font-size: 53.2px; font-family: 'DejaVu Sans'; fill: #262626">3</tspan>
     </text>
    </g>
   </g>
  </g>
 </g>
 <defs>
  <clipPath id="pa436e705b0">
   <rect x="25.92" y="115.932" width="596.16" height="304.868"/>
  </clipPath>
 </defs>
</svg>
