<?xml version="1.0" encoding="utf-8" standalone="no"?>
<!DOCTYPE svg PUBLIC "-//W3C//DTD SVG 1.1//EN"
  "http://www.w3.org/Graphics/SVG/1.1/DTD/svg11.dtd">
<svg xmlns:xlink="http://www.w3.org/1999/xlink" width="648pt" height="504pt" viewBox="0 0 648 504" xmlns="http://www.w3.org/2000/svg" version="1.1">
 <metadata>
  <rdf:RDF xmlns:dc="http://purl.org/dc/elements/1.1/" xmlns:cc="http://creativecommons.org/ns#" xmlns:rdf="http://www.w3.org/1999/02/22-rdf-syntax-ns#">
   <cc:Work>
    <dc:type rdf:resource="http://purl.org/dc/dcmitype/StillImage"/>
    <dc:date>2026-02-22T16:15:38.868984</dc:date>
    <dc:format>image/svg+xml</dc:format>
    <dc:creator>
     <cc:Agent>
      <dc:title>Matplotlib v3.10.6, https://matplotlib.org/</dc:title>
     </cc:Agent>
    </dc:creator>
   </cc:Work>
  </rdf:RDF>
 </metadata>
 <defs>
  <style type="text/css">*{stroke-linejoin: round; stroke-linecap: butt}</style>
 </defs>
 <g id="figure_1">
  <g id="patch_1">
   <path d="M 0 504 
L 648 504 
L 648 0 
L 0 0 
L 0 504 
z
" style="fill: none; opacity: 0"/>
  </g>
  <g id="axes_1">
   <g id="patch_2">
    <path d="M 33.183645 420.8 
L 622.08 420.8 
L 622.08 116.616 
L 33.183645 116.616 
L 33.183645 420.8 
z
" style="fill: none"/>
   </g>
   <g id="matplotlib.axis_1">
    <g id="xtick_1">
     <g id="line2d_1">
      <path d="M 89.017228 420.8 
L 89.017228 116.616 
" clip-path="url(#pdf9d7e0f0b)" style="fill: none; stroke: #ffffff; stroke-opacity: 0.4; stroke-linecap: round"/>
     </g>
     <g id="line2d_2"/>
     <g id="text_1">
      <text style="font-size: 52px; font-family: 'DejaVu Serif', 'Times New Roman', serif; text-anchor: middle; fill: #262626" x="89.017228" y="467.311875" transform="rotate(-0 89.017228 467.311875)">−10</text>
     </g>
    </g>
    <g id="xtick_2">
     <g id="line2d_3">
      <path d="M 325.683436 420.8 
L 325.683436 116.616 
" clip-path="url(#pdf9d7e0f0b)" style="fill: none; stroke: #ffffff; stroke-opacity: 0.4; stroke-linecap: round"/>
     </g>
     <g id="line2d_4"/>
     <g id="text_2">
      <text style="font-size: 52px; font-family: 'DejaVu Serif', 'Times New Roman', serif; text-anchor: middle; fill: #262626" x="325.683436" y="467.311875" transform="rotate(-0 325.683436 467.311875)">0</text>
     </g>
    </g>
    <g id="xtick_3">
     <g id="line2d_5">
      <path d="M 562.349645 420.8 
L 562.349645 116.616 
" clip-path="url(#pdf9d7e0f0b)" style="fill: none; stroke: #ffffff; stroke-opacity: 0.4; stroke-linecap: round"/>
     </g>
     <g id="line2d_6"/>
     <g id="text_3">
      <text style="font-size: 52px; font-family: 'DejaVu Serif', 'Times New Roman', serif; text-anchor: middle; fill: #262626" x="562.349645" y="467.311875" transform="rotate(-0 562.349645 467.311875)">10</text>
     </g>
    </g>
   </g>
   <g id="matplotlib.axis_2">
    <g id="ytick_1">
     <g id="line2d_7">
      <path d="M 33.183645 406.973455 
L 622.08 406.973455 
" clip-path="url(#pdf9d7e0f0b)" style="fill: none; stroke: #ffffff; stroke-opacity: 0.4; stroke-linecap: round"/>
     </g>
    </g>
    <g id="ytick_2">
     <g id="line2d_8">
      <path d="M 33.183645 182.840018 
L 622.08 182.840018 
" clip-path="url(#pdf9d7e0f0b)" style="fill: none; stroke: #ffffff; stroke-opacity: 0.4; stroke-linecap: round"/>
     </g>
    </g>
   </g>
   <g id="FillBetweenPolyCollection_1">
    <defs>
     <path id="m45343bd86b" d="M 59.951662 -97.026545 
L 59.951662 -99.658457 
L 60.999333 -99.661977 
L 62.047005 -99.678448 
L 63.094677 -99.705146 
L 64.142349 -99.741798 
L 65.190021 -99.787469 
L 66.237693 -99.842193 
L 67.285365 -99.903336 
L 68.333037 -99.974693 
L 69.380708 -100.052952 
L 70.42838 -100.136765 
L 71.476052 -100.225816 
L 72.523724 -100.321785 
L 73.571396 -100.416738 
L 74.619068 -100.518856 
L 75.66674 -100.618205 
L 76.714411 -100.72045 
L 77.762083 -100.822214 
L 78.809755 -100.927861 
L 79.857427 -101.025696 
L 80.905099 -101.124144 
L 81.952771 -101.220069 
L 83.000443 -101.310403 
L 84.048114 -101.401748 
L 85.095786 -101.496961 
L 86.143458 -101.578953 
L 87.19113 -101.665294 
L 88.238802 -101.745921 
L 89.286474 -101.823038 
L 90.334146 -101.894321 
L 91.381818 -101.962527 
L 92.429489 -102.033045 
L 93.477161 -102.104419 
L 94.524833 -102.167695 
L 95.572505 -102.229442 
L 96.620177 -102.292771 
L 97.667849 -102.353786 
L 98.715521 -102.422837 
L 99.763192 -102.489733 
L 100.810864 -102.569632 
L 101.858536 -102.648103 
L 102.906208 -102.725137 
L 103.95388 -102.815807 
L 105.001552 -102.919753 
L 106.049224 -103.026053 
L 107.096895 -103.144355 
L 108.144567 -103.268569 
L 109.192239 -103.406057 
L 110.239911 -103.558106 
L 111.287583 -103.718289 
L 112.335255 -103.898707 
L 113.382927 -104.086118 
L 114.430599 -104.289172 
L 115.47827 -104.503739 
L 116.525942 -104.734015 
L 117.573614 -104.976941 
L 118.621286 -105.234382 
L 119.668958 -105.506092 
L 120.71663 -105.777992 
L 121.764302 -106.07661 
L 122.811973 -106.382723 
L 123.859645 -106.687576 
L 124.907317 -107.010513 
L 125.954989 -107.332664 
L 127.002661 -107.656689 
L 128.050333 -107.985158 
L 129.098005 -108.319314 
L 130.145676 -108.651528 
L 131.193348 -108.983354 
L 132.24102 -109.319078 
L 133.288692 -109.649106 
L 134.336364 -109.997633 
L 135.384036 -110.336492 
L 136.431708 -110.666184 
L 137.47938 -110.997336 
L 138.527051 -111.31909 
L 139.574723 -111.658749 
L 140.622395 -111.996224 
L 141.670067 -112.343913 
L 142.717739 -112.696875 
L 143.765411 -113.052279 
L 144.813083 -113.420855 
L 145.860754 -113.821385 
L 146.908426 -114.228033 
L 147.956098 -114.662115 
L 149.00377 -115.11014 
L 150.051442 -115.59272 
L 151.099114 -116.101141 
L 152.146786 -116.640076 
L 153.194457 -117.21901 
L 154.242129 -117.831084 
L 155.289801 -118.484752 
L 156.337473 -119.168845 
L 157.385145 -119.885177 
L 158.432817 -120.635389 
L 159.480489 -121.435374 
L 160.528161 -122.267097 
L 161.575832 -123.133222 
L 162.623504 -124.044304 
L 163.671176 -124.978511 
L 164.718848 -125.942922 
L 165.76652 -126.945585 
L 166.814192 -127.973527 
L 167.861864 -129.026978 
L 168.909535 -130.09091 
L 169.957207 -131.176497 
L 171.004879 -132.266741 
L 172.052551 -133.374712 
L 173.100223 -134.516036 
L 174.147895 -135.660566 
L 175.195567 -136.822171 
L 176.243238 -138.006179 
L 177.29091 -139.204868 
L 178.338582 -140.412252 
L 179.386254 -141.628286 
L 180.433926 -142.881355 
L 181.481598 -144.142752 
L 182.52927 -145.434916 
L 183.576941 -146.738954 
L 184.624613 -148.054714 
L 185.672285 -149.406535 
L 186.719957 -150.781573 
L 187.767629 -152.175185 
L 188.815301 -153.608624 
L 189.862973 -155.058459 
L 190.910645 -156.529586 
L 191.958316 -158.026854 
L 193.005988 -159.551503 
L 194.05366 -161.087911 
L 195.101332 -162.662765 
L 196.149004 -164.247526 
L 197.196676 -165.855729 
L 198.244348 -167.464968 
L 199.292019 -169.115969 
L 200.339691 -170.759403 
L 201.387363 -172.437838 
L 202.435035 -174.138084 
L 203.482707 -175.841081 
L 204.530379 -177.57488 
L 205.578051 -179.313932 
L 206.625722 -181.075445 
L 207.673394 -182.831646 
L 208.721066 -184.634989 
L 209.768738 -186.467933 
L 210.81641 -188.308582 
L 211.864082 -190.170375 
L 212.911754 -192.043895 
L 213.959426 -193.949187 
L 215.007097 -195.882164 
L 216.054769 -197.823545 
L 217.102441 -199.783942 
L 218.150113 -201.777782 
L 219.197785 -203.798778 
L 220.245457 -205.808857 
L 221.293129 -207.83993 
L 222.3408 -209.910678 
L 223.388472 -211.982368 
L 224.436144 -214.056848 
L 225.483816 -216.122676 
L 226.531488 -218.175937 
L 227.57916 -220.247496 
L 228.626832 -222.319799 
L 229.674503 -224.382808 
L 230.722175 -226.418082 
L 231.769847 -228.407023 
L 232.817519 -230.37881 
L 233.865191 -232.334196 
L 234.912863 -234.278019 
L 235.960535 -236.19989 
L 237.008207 -238.085823 
L 238.055878 -239.961043 
L 239.10355 -241.810782 
L 240.151222 -243.631083 
L 241.198894 -245.429213 
L 242.246566 -247.233275 
L 243.294238 -249.018745 
L 244.34191 -250.79684 
L 245.389581 -252.535884 
L 246.437253 -254.276833 
L 247.484925 -256.054308 
L 248.532597 -257.786293 
L 249.580269 -259.55857 
L 250.627941 -261.307627 
L 251.675613 -263.048078 
L 252.723284 -264.826904 
L 253.770956 -266.636621 
L 254.818628 -268.489856 
L 255.8663 -270.350015 
L 256.913972 -272.250845 
L 257.961644 -274.16582 
L 259.009316 -276.097774 
L 260.056988 -278.087071 
L 261.104659 -280.085627 
L 262.152331 -282.111994 
L 263.200003 -284.170201 
L 264.247675 -286.249079 
L 265.295347 -288.368922 
L 266.343019 -290.524306 
L 267.390691 -292.727198 
L 268.438362 -294.935921 
L 269.486034 -297.2126 
L 270.533706 -299.51383 
L 271.581378 -301.821036 
L 272.62905 -304.169021 
L 273.676722 -306.564713 
L 274.724394 -308.97462 
L 275.772065 -311.43361 
L 276.819737 -313.91516 
L 277.867409 -316.439254 
L 278.915081 -318.959154 
L 279.962753 -321.526382 
L 281.010425 -324.120021 
L 282.058097 -326.722006 
L 283.105769 -329.327387 
L 284.15344 -331.959354 
L 285.201112 -334.552651 
L 286.248784 -337.161116 
L 287.296456 -339.723947 
L 288.344128 -342.269355 
L 289.3918 -344.804945 
L 290.439472 -347.255906 
L 291.487143 -349.651237 
L 292.534815 -351.985454 
L 293.582487 -354.254728 
L 294.630159 -356.392059 
L 295.677831 -358.45209 
L 296.725503 -360.408568 
L 297.773175 -362.251035 
L 298.820846 -363.966731 
L 299.868518 -365.512037 
L 300.91619 -366.942382 
L 301.963862 -368.238246 
L 303.011534 -369.394052 
L 304.059206 -370.38491 
L 305.106878 -371.229286 
L 306.15455 -371.948893 
L 307.202221 -372.517082 
L 308.249893 -372.947498 
L 309.297565 -373.260939 
L 310.345237 -373.458371 
L 311.392909 -373.53304 
L 312.440581 -373.557455 
L 313.488253 -373.439167 
L 314.535924 -373.242767 
L 315.583596 -372.992044 
L 316.631268 -372.676773 
L 317.67894 -372.347909 
L 318.726612 -371.973535 
L 319.774284 -371.562602 
L 320.821956 -371.119603 
L 321.869627 -370.657721 
L 322.917299 -370.182576 
L 323.964971 -369.682826 
L 325.012643 -369.168319 
L 326.060315 -368.666104 
L 327.107987 -368.158247 
L 328.155659 -367.642853 
L 329.203331 -367.121979 
L 330.251002 -366.59678 
L 331.298674 -366.071507 
L 332.346346 -365.543545 
L 333.394018 -364.953786 
L 334.44169 -364.38968 
L 335.489362 -363.778876 
L 336.537034 -363.152562 
L 337.584705 -362.527451 
L 338.632377 -361.812468 
L 339.680049 -361.072451 
L 340.727721 -360.27686 
L 341.775393 -359.45356 
L 342.823065 -358.594958 
L 343.870737 -357.704855 
L 344.918408 -356.767917 
L 345.96608 -355.810087 
L 347.013752 -354.818788 
L 348.061424 -353.807081 
L 349.109096 -352.755307 
L 350.156768 -351.718211 
L 351.20444 -350.653708 
L 352.252112 -349.530831 
L 353.299783 -348.409772 
L 354.347455 -347.272496 
L 355.395127 -346.115857 
L 356.442799 -344.958469 
L 357.490471 -343.798104 
L 358.538143 -342.611346 
L 359.585815 -341.405881 
L 360.633486 -340.20593 
L 361.681158 -338.958292 
L 362.72883 -337.707227 
L 363.776502 -336.423185 
L 364.824174 -335.141149 
L 365.871846 -333.812801 
L 366.919518 -332.435762 
L 367.967189 -331.028394 
L 369.014861 -329.599555 
L 370.062533 -328.127551 
L 371.110205 -326.626262 
L 372.157877 -325.081827 
L 373.205549 -323.496607 
L 374.253221 -321.875518 
L 375.300893 -320.202694 
L 376.348564 -318.507275 
L 377.396236 -316.773851 
L 378.443908 -315.008002 
L 379.49158 -313.200798 
L 380.539252 -311.382355 
L 381.586924 -309.49241 
L 382.634596 -307.584818 
L 383.682267 -305.645821 
L 384.729939 -303.69486 
L 385.777611 -301.731949 
L 386.825283 -299.709569 
L 387.872955 -297.656479 
L 388.920627 -295.55754 
L 389.968299 -293.438306 
L 391.01597 -291.288306 
L 392.063642 -289.109753 
L 393.111314 -286.905381 
L 394.158986 -284.644222 
L 395.206658 -282.343002 
L 396.25433 -280.008171 
L 397.302002 -277.639426 
L 398.349674 -275.192747 
L 399.397345 -272.757353 
L 400.445017 -270.28243 
L 401.492689 -267.798347 
L 402.540361 -265.30918 
L 403.588033 -262.773765 
L 404.635705 -260.241974 
L 405.683377 -257.706166 
L 406.731048 -255.173365 
L 407.77872 -252.674263 
L 408.826392 -250.193554 
L 409.874064 -247.752929 
L 410.921736 -245.35439 
L 411.969408 -242.977536 
L 413.01708 -240.640028 
L 414.064751 -238.333907 
L 415.112423 -236.085621 
L 416.160095 -233.881788 
L 417.207767 -231.730782 
L 418.255439 -229.614933 
L 419.303111 -227.547114 
L 420.350783 -225.517113 
L 421.398455 -223.511636 
L 422.446126 -221.555551 
L 423.493798 -219.602809 
L 424.54147 -217.697841 
L 425.589142 -215.781926 
L 426.636814 -213.889346 
L 427.684486 -211.997683 
L 428.732158 -210.096823 
L 429.779829 -208.210075 
L 430.827501 -206.309125 
L 431.875173 -204.380522 
L 432.922845 -202.464612 
L 433.970517 -200.523953 
L 435.018189 -198.58134 
L 436.065861 -196.607189 
L 437.113532 -194.6358 
L 438.161204 -192.684673 
L 439.208876 -190.709802 
L 440.256548 -188.762403 
L 441.30422 -186.807957 
L 442.351892 -184.872165 
L 443.399564 -182.95289 
L 444.447236 -181.040861 
L 445.494907 -179.159881 
L 446.542579 -177.290266 
L 447.590251 -175.463684 
L 448.637923 -173.66061 
L 449.685595 -171.895668 
L 450.733267 -170.157819 
L 451.780939 -168.457092 
L 452.82861 -166.786829 
L 453.876282 -165.177889 
L 454.923954 -163.594259 
L 455.971626 -162.043078 
L 457.019298 -160.532815 
L 458.06697 -159.053008 
L 459.114642 -157.607064 
L 460.162313 -156.17891 
L 461.209985 -154.796012 
L 462.257657 -153.451013 
L 463.305329 -152.138931 
L 464.353001 -150.850188 
L 465.400673 -149.587661 
L 466.448345 -148.344854 
L 467.496017 -147.146595 
L 468.543688 -145.964222 
L 469.59136 -144.809115 
L 470.639032 -143.675063 
L 471.686704 -142.565493 
L 472.734376 -141.480772 
L 473.782048 -140.436569 
L 474.82972 -139.417064 
L 475.877391 -138.420366 
L 476.925063 -137.448624 
L 477.972735 -136.49614 
L 479.020407 -135.576566 
L 480.068079 -134.69344 
L 481.115751 -133.836847 
L 482.163423 -133.005838 
L 483.211094 -132.206907 
L 484.258766 -131.43835 
L 485.306438 -130.679169 
L 486.35411 -129.952316 
L 487.401782 -129.231509 
L 488.449454 -128.536754 
L 489.497126 -127.873586 
L 490.544798 -127.229618 
L 491.592469 -126.595536 
L 492.640141 -125.985159 
L 493.687813 -125.363916 
L 494.735485 -124.7725 
L 495.783157 -124.176655 
L 496.830829 -123.585129 
L 497.878501 -123.006561 
L 498.926172 -122.429301 
L 499.973844 -121.853621 
L 501.021516 -121.276581 
L 502.069188 -120.693422 
L 503.11686 -120.108028 
L 504.164532 -119.519004 
L 505.212204 -118.9347 
L 506.259875 -118.345158 
L 507.307547 -117.759421 
L 508.355219 -117.166659 
L 509.402891 -116.573929 
L 510.450563 -115.982786 
L 511.498235 -115.393318 
L 512.545907 -114.803706 
L 513.593579 -114.221797 
L 514.64125 -113.641917 
L 515.688922 -113.062476 
L 516.736594 -112.498293 
L 517.784266 -111.940494 
L 518.831938 -111.392891 
L 519.87961 -110.861261 
L 520.927282 -110.343845 
L 521.974953 -109.838895 
L 523.022625 -109.346165 
L 524.070297 -108.869229 
L 525.117969 -108.412484 
L 526.165641 -107.968277 
L 527.213313 -107.540344 
L 528.260985 -107.129085 
L 529.308656 -106.741285 
L 530.356328 -106.378146 
L 531.404 -106.026327 
L 532.451672 -105.693431 
L 533.499344 -105.381223 
L 534.547016 -105.08682 
L 535.594688 -104.805694 
L 536.64236 -104.54414 
L 537.690031 -104.300734 
L 538.737703 -104.074024 
L 539.785375 -103.854441 
L 540.833047 -103.648304 
L 541.880719 -103.452146 
L 542.928391 -103.270994 
L 543.976063 -103.098338 
L 545.023734 -102.93684 
L 546.071406 -102.780203 
L 547.119078 -102.625794 
L 548.16675 -102.474972 
L 549.214422 -102.326082 
L 550.262094 -102.170025 
L 551.309766 -102.023856 
L 552.357437 -101.878647 
L 553.405109 -101.733971 
L 554.452781 -101.587635 
L 555.500453 -101.439083 
L 556.548125 -101.283855 
L 557.595797 -101.129156 
L 558.643469 -100.970697 
L 559.691141 -100.80935 
L 560.738812 -100.656667 
L 561.786484 -100.497228 
L 562.834156 -100.338854 
L 563.881828 -100.1843 
L 564.9295 -100.031891 
L 565.977172 -99.880508 
L 567.024844 -99.735534 
L 568.072515 -99.597307 
L 569.120187 -99.460156 
L 570.167859 -99.333912 
L 571.215531 -99.214235 
L 572.263203 -99.099786 
L 573.310875 -98.991567 
L 574.358547 -98.896426 
L 575.406218 -98.805528 
L 576.45389 -98.728044 
L 577.501562 -98.658928 
L 578.549234 -98.596101 
L 579.596906 -98.543847 
L 580.644578 -98.499282 
L 581.69225 -98.462508 
L 582.739922 -98.432989 
L 583.787593 -98.407539 
L 584.835265 -98.392516 
L 585.882937 -98.380142 
L 586.930609 -98.369651 
L 587.978281 -98.367307 
L 589.025953 -98.365302 
L 590.073625 -98.360873 
L 591.121296 -98.362291 
L 592.168968 -98.364352 
L 593.21664 -98.36653 
L 594.264312 -98.365829 
L 595.311984 -98.362353 
L 595.311984 -97.026545 
L 595.311984 -97.026545 
L 594.264312 -97.026545 
L 593.21664 -97.026545 
L 592.168968 -97.026545 
L 591.121296 -97.026545 
L 590.073625 -97.026545 
L 589.025953 -97.026545 
L 587.978281 -97.026545 
L 586.930609 -97.026545 
L 585.882937 -97.026545 
L 584.835265 -97.026545 
L 583.787593 -97.026545 
L 582.739922 -97.026545 
L 581.69225 -97.026545 
L 580.644578 -97.026545 
L 579.596906 -97.026545 
L 578.549234 -97.026545 
L 577.501562 -97.026545 
L 576.45389 -97.026545 
L 575.406218 -97.026545 
L 574.358547 -97.026545 
L 573.310875 -97.026545 
L 572.263203 -97.026545 
L 571.215531 -97.026545 
L 570.167859 -97.026545 
L 569.120187 -97.026545 
L 568.072515 -97.026545 
L 567.024844 -97.026545 
L 565.977172 -97.026545 
L 564.9295 -97.026545 
L 563.881828 -97.026545 
L 562.834156 -97.026545 
L 561.786484 -97.026545 
L 560.738812 -97.026545 
L 559.691141 -97.026545 
L 558.643469 -97.026545 
L 557.595797 -97.026545 
L 556.548125 -97.026545 
L 555.500453 -97.026545 
L 554.452781 -97.026545 
L 553.405109 -97.026545 
L 552.357437 -97.026545 
L 551.309766 -97.026545 
L 550.262094 -97.026545 
L 549.214422 -97.026545 
L 548.16675 -97.026545 
L 547.119078 -97.026545 
L 546.071406 -97.026545 
L 545.023734 -97.026545 
L 543.976063 -97.026545 
L 542.928391 -97.026545 
L 541.880719 -97.026545 
L 540.833047 -97.026545 
L 539.785375 -97.026545 
L 538.737703 -97.026545 
L 537.690031 -97.026545 
L 536.64236 -97.026545 
L 535.594688 -97.026545 
L 534.547016 -97.026545 
L 533.499344 -97.026545 
L 532.451672 -97.026545 
L 531.404 -97.026545 
L 530.356328 -97.026545 
L 529.308656 -97.026545 
L 528.260985 -97.026545 
L 527.213313 -97.026545 
L 526.165641 -97.026545 
L 525.117969 -97.026545 
L 524.070297 -97.026545 
L 523.022625 -97.026545 
L 521.974953 -97.026545 
L 520.927282 -97.026545 
L 519.87961 -97.026545 
L 518.831938 -97.026545 
L 517.784266 -97.026545 
L 516.736594 -97.026545 
L 515.688922 -97.026545 
L 514.64125 -97.026545 
L 513.593579 -97.026545 
L 512.545907 -97.026545 
L 511.498235 -97.026545 
L 510.450563 -97.026545 
L 509.402891 -97.026545 
L 508.355219 -97.026545 
L 507.307547 -97.026545 
L 506.259875 -97.026545 
L 505.212204 -97.026545 
L 504.164532 -97.026545 
L 503.11686 -97.026545 
L 502.069188 -97.026545 
L 501.021516 -97.026545 
L 499.973844 -97.026545 
L 498.926172 -97.026545 
L 497.878501 -97.026545 
L 496.830829 -97.026545 
L 495.783157 -97.026545 
L 494.735485 -97.026545 
L 493.687813 -97.026545 
L 492.640141 -97.026545 
L 491.592469 -97.026545 
L 490.544798 -97.026545 
L 489.497126 -97.026545 
L 488.449454 -97.026545 
L 487.401782 -97.026545 
L 486.35411 -97.026545 
L 485.306438 -97.026545 
L 484.258766 -97.026545 
L 483.211094 -97.026545 
L 482.163423 -97.026545 
L 481.115751 -97.026545 
L 480.068079 -97.026545 
L 479.020407 -97.026545 
L 477.972735 -97.026545 
L 476.925063 -97.026545 
L 475.877391 -97.026545 
L 474.82972 -97.026545 
L 473.782048 -97.026545 
L 472.734376 -97.026545 
L 471.686704 -97.026545 
L 470.639032 -97.026545 
L 469.59136 -97.026545 
L 468.543688 -97.026545 
L 467.496017 -97.026545 
L 466.448345 -97.026545 
L 465.400673 -97.026545 
L 464.353001 -97.026545 
L 463.305329 -97.026545 
L 462.257657 -97.026545 
L 461.209985 -97.026545 
L 460.162313 -97.026545 
L 459.114642 -97.026545 
L 458.06697 -97.026545 
L 457.019298 -97.026545 
L 455.971626 -97.026545 
L 454.923954 -97.026545 
L 453.876282 -97.026545 
L 452.82861 -97.026545 
L 451.780939 -97.026545 
L 450.733267 -97.026545 
L 449.685595 -97.026545 
L 448.637923 -97.026545 
L 447.590251 -97.026545 
L 446.542579 -97.026545 
L 445.494907 -97.026545 
L 444.447236 -97.026545 
L 443.399564 -97.026545 
L 442.351892 -97.026545 
L 441.30422 -97.026545 
L 440.256548 -97.026545 
L 439.208876 -97.026545 
L 438.161204 -97.026545 
L 437.113532 -97.026545 
L 436.065861 -97.026545 
L 435.018189 -97.026545 
L 433.970517 -97.026545 
L 432.922845 -97.026545 
L 431.875173 -97.026545 
L 430.827501 -97.026545 
L 429.779829 -97.026545 
L 428.732158 -97.026545 
L 427.684486 -97.026545 
L 426.636814 -97.026545 
L 425.589142 -97.026545 
L 424.54147 -97.026545 
L 423.493798 -97.026545 
L 422.446126 -97.026545 
L 421.398455 -97.026545 
L 420.350783 -97.026545 
L 419.303111 -97.026545 
L 418.255439 -97.026545 
L 417.207767 -97.026545 
L 416.160095 -97.026545 
L 415.112423 -97.026545 
L 414.064751 -97.026545 
L 413.01708 -97.026545 
L 411.969408 -97.026545 
L 410.921736 -97.026545 
L 409.874064 -97.026545 
L 408.826392 -97.026545 
L 407.77872 -97.026545 
L 406.731048 -97.026545 
L 405.683377 -97.026545 
L 404.635705 -97.026545 
L 403.588033 -97.026545 
L 402.540361 -97.026545 
L 401.492689 -97.026545 
L 400.445017 -97.026545 
L 399.397345 -97.026545 
L 398.349674 -97.026545 
L 397.302002 -97.026545 
L 396.25433 -97.026545 
L 395.206658 -97.026545 
L 394.158986 -97.026545 
L 393.111314 -97.026545 
L 392.063642 -97.026545 
L 391.01597 -97.026545 
L 389.968299 -97.026545 
L 388.920627 -97.026545 
L 387.872955 -97.026545 
L 386.825283 -97.026545 
L 385.777611 -97.026545 
L 384.729939 -97.026545 
L 383.682267 -97.026545 
L 382.634596 -97.026545 
L 381.586924 -97.026545 
L 380.539252 -97.026545 
L 379.49158 -97.026545 
L 378.443908 -97.026545 
L 377.396236 -97.026545 
L 376.348564 -97.026545 
L 375.300893 -97.026545 
L 374.253221 -97.026545 
L 373.205549 -97.026545 
L 372.157877 -97.026545 
L 371.110205 -97.026545 
L 370.062533 -97.026545 
L 369.014861 -97.026545 
L 367.967189 -97.026545 
L 366.919518 -97.026545 
L 365.871846 -97.026545 
L 364.824174 -97.026545 
L 363.776502 -97.026545 
L 362.72883 -97.026545 
L 361.681158 -97.026545 
L 360.633486 -97.026545 
L 359.585815 -97.026545 
L 358.538143 -97.026545 
L 357.490471 -97.026545 
L 356.442799 -97.026545 
L 355.395127 -97.026545 
L 354.347455 -97.026545 
L 353.299783 -97.026545 
L 352.252112 -97.026545 
L 351.20444 -97.026545 
L 350.156768 -97.026545 
L 349.109096 -97.026545 
L 348.061424 -97.026545 
L 347.013752 -97.026545 
L 345.96608 -97.026545 
L 344.918408 -97.026545 
L 343.870737 -97.026545 
L 342.823065 -97.026545 
L 341.775393 -97.026545 
L 340.727721 -97.026545 
L 339.680049 -97.026545 
L 338.632377 -97.026545 
L 337.584705 -97.026545 
L 336.537034 -97.026545 
L 335.489362 -97.026545 
L 334.44169 -97.026545 
L 333.394018 -97.026545 
L 332.346346 -97.026545 
L 331.298674 -97.026545 
L 330.251002 -97.026545 
L 329.203331 -97.026545 
L 328.155659 -97.026545 
L 327.107987 -97.026545 
L 326.060315 -97.026545 
L 325.012643 -97.026545 
L 323.964971 -97.026545 
L 322.917299 -97.026545 
L 321.869627 -97.026545 
L 320.821956 -97.026545 
L 319.774284 -97.026545 
L 318.726612 -97.026545 
L 317.67894 -97.026545 
L 316.631268 -97.026545 
L 315.583596 -97.026545 
L 314.535924 -97.026545 
L 313.488253 -97.026545 
L 312.440581 -97.026545 
L 311.392909 -97.026545 
L 310.345237 -97.026545 
L 309.297565 -97.026545 
L 308.249893 -97.026545 
L 307.202221 -97.026545 
L 306.15455 -97.026545 
L 305.106878 -97.026545 
L 304.059206 -97.026545 
L 303.011534 -97.026545 
L 301.963862 -97.026545 
L 300.91619 -97.026545 
L 299.868518 -97.026545 
L 298.820846 -97.026545 
L 297.773175 -97.026545 
L 296.725503 -97.026545 
L 295.677831 -97.026545 
L 294.630159 -97.026545 
L 293.582487 -97.026545 
L 292.534815 -97.026545 
L 291.487143 -97.026545 
L 290.439472 -97.026545 
L 289.3918 -97.026545 
L 288.344128 -97.026545 
L 287.296456 -97.026545 
L 286.248784 -97.026545 
L 285.201112 -97.026545 
L 284.15344 -97.026545 
L 283.105769 -97.026545 
L 282.058097 -97.026545 
L 281.010425 -97.026545 
L 279.962753 -97.026545 
L 278.915081 -97.026545 
L 277.867409 -97.026545 
L 276.819737 -97.026545 
L 275.772065 -97.026545 
L 274.724394 -97.026545 
L 273.676722 -97.026545 
L 272.62905 -97.026545 
L 271.581378 -97.026545 
L 270.533706 -97.026545 
L 269.486034 -97.026545 
L 268.438362 -97.026545 
L 267.390691 -97.026545 
L 266.343019 -97.026545 
L 265.295347 -97.026545 
L 264.247675 -97.026545 
L 263.200003 -97.026545 
L 262.152331 -97.026545 
L 261.104659 -97.026545 
L 260.056988 -97.026545 
L 259.009316 -97.026545 
L 257.961644 -97.026545 
L 256.913972 -97.026545 
L 255.8663 -97.026545 
L 254.818628 -97.026545 
L 253.770956 -97.026545 
L 252.723284 -97.026545 
L 251.675613 -97.026545 
L 250.627941 -97.026545 
L 249.580269 -97.026545 
L 248.532597 -97.026545 
L 247.484925 -97.026545 
L 246.437253 -97.026545 
L 245.389581 -97.026545 
L 244.34191 -97.026545 
L 243.294238 -97.026545 
L 242.246566 -97.026545 
L 241.198894 -97.026545 
L 240.151222 -97.026545 
L 239.10355 -97.026545 
L 238.055878 -97.026545 
L 237.008207 -97.026545 
L 235.960535 -97.026545 
L 234.912863 -97.026545 
L 233.865191 -97.026545 
L 232.817519 -97.026545 
L 231.769847 -97.026545 
L 230.722175 -97.026545 
L 229.674503 -97.026545 
L 228.626832 -97.026545 
L 227.57916 -97.026545 
L 226.531488 -97.026545 
L 225.483816 -97.026545 
L 224.436144 -97.026545 
L 223.388472 -97.026545 
L 222.3408 -97.026545 
L 221.293129 -97.026545 
L 220.245457 -97.026545 
L 219.197785 -97.026545 
L 218.150113 -97.026545 
L 217.102441 -97.026545 
L 216.054769 -97.026545 
L 215.007097 -97.026545 
L 213.959426 -97.026545 
L 212.911754 -97.026545 
L 211.864082 -97.026545 
L 210.81641 -97.026545 
L 209.768738 -97.026545 
L 208.721066 -97.026545 
L 207.673394 -97.026545 
L 206.625722 -97.026545 
L 205.578051 -97.026545 
L 204.530379 -97.026545 
L 203.482707 -97.026545 
L 202.435035 -97.026545 
L 201.387363 -97.026545 
L 200.339691 -97.026545 
L 199.292019 -97.026545 
L 198.244348 -97.026545 
L 197.196676 -97.026545 
L 196.149004 -97.026545 
L 195.101332 -97.026545 
L 194.05366 -97.026545 
L 193.005988 -97.026545 
L 191.958316 -97.026545 
L 190.910645 -97.026545 
L 189.862973 -97.026545 
L 188.815301 -97.026545 
L 187.767629 -97.026545 
L 186.719957 -97.026545 
L 185.672285 -97.026545 
L 184.624613 -97.026545 
L 183.576941 -97.026545 
L 182.52927 -97.026545 
L 181.481598 -97.026545 
L 180.433926 -97.026545 
L 179.386254 -97.026545 
L 178.338582 -97.026545 
L 177.29091 -97.026545 
L 176.243238 -97.026545 
L 175.195567 -97.026545 
L 174.147895 -97.026545 
L 173.100223 -97.026545 
L 172.052551 -97.026545 
L 171.004879 -97.026545 
L 169.957207 -97.026545 
L 168.909535 -97.026545 
L 167.861864 -97.026545 
L 166.814192 -97.026545 
L 165.76652 -97.026545 
L 164.718848 -97.026545 
L 163.671176 -97.026545 
L 162.623504 -97.026545 
L 161.575832 -97.026545 
L 160.528161 -97.026545 
L 159.480489 -97.026545 
L 158.432817 -97.026545 
L 157.385145 -97.026545 
L 156.337473 -97.026545 
L 155.289801 -97.026545 
L 154.242129 -97.026545 
L 153.194457 -97.026545 
L 152.146786 -97.026545 
L 151.099114 -97.026545 
L 150.051442 -97.026545 
L 149.00377 -97.026545 
L 147.956098 -97.026545 
L 146.908426 -97.026545 
L 145.860754 -97.026545 
L 144.813083 -97.026545 
L 143.765411 -97.026545 
L 142.717739 -97.026545 
L 141.670067 -97.026545 
L 140.622395 -97.026545 
L 139.574723 -97.026545 
L 138.527051 -97.026545 
L 137.47938 -97.026545 
L 136.431708 -97.026545 
L 135.384036 -97.026545 
L 134.336364 -97.026545 
L 133.288692 -97.026545 
L 132.24102 -97.026545 
L 131.193348 -97.026545 
L 130.145676 -97.026545 
L 129.098005 -97.026545 
L 128.050333 -97.026545 
L 127.002661 -97.026545 
L 125.954989 -97.026545 
L 124.907317 -97.026545 
L 123.859645 -97.026545 
L 122.811973 -97.026545 
L 121.764302 -97.026545 
L 120.71663 -97.026545 
L 119.668958 -97.026545 
L 118.621286 -97.026545 
L 117.573614 -97.026545 
L 116.525942 -97.026545 
L 115.47827 -97.026545 
L 114.430599 -97.026545 
L 113.382927 -97.026545 
L 112.335255 -97.026545 
L 111.287583 -97.026545 
L 110.239911 -97.026545 
L 109.192239 -97.026545 
L 108.144567 -97.026545 
L 107.096895 -97.026545 
L 106.049224 -97.026545 
L 105.001552 -97.026545 
L 103.95388 -97.026545 
L 102.906208 -97.026545 
L 101.858536 -97.026545 
L 100.810864 -97.026545 
L 99.763192 -97.026545 
L 98.715521 -97.026545 
L 97.667849 -97.026545 
L 96.620177 -97.026545 
L 95.572505 -97.026545 
L 94.524833 -97.026545 
L 93.477161 -97.026545 
L 92.429489 -97.026545 
L 91.381818 -97.026545 
L 90.334146 -97.026545 
L 89.286474 -97.026545 
L 88.238802 -97.026545 
L 87.19113 -97.026545 
L 86.143458 -97.026545 
L 85.095786 -97.026545 
L 84.048114 -97.026545 
L 83.000443 -97.026545 
L 81.952771 -97.026545 
L 80.905099 -97.026545 
L 79.857427 -97.026545 
L 78.809755 -97.026545 
L 77.762083 -97.026545 
L 76.714411 -97.026545 
L 75.66674 -97.026545 
L 74.619068 -97.026545 
L 73.571396 -97.026545 
L 72.523724 -97.026545 
L 71.476052 -97.026545 
L 70.42838 -97.026545 
L 69.380708 -97.026545 
L 68.333037 -97.026545 
L 67.285365 -97.026545 
L 66.237693 -97.026545 
L 65.190021 -97.026545 
L 64.142349 -97.026545 
L 63.094677 -97.026545 
L 62.047005 -97.026545 
L 60.999333 -97.026545 
L 59.951662 -97.026545 
z
"/>
    </defs>
    <g clip-path="url(#pdf9d7e0f0b)">
     <use xlink:href="#m45343bd86b" x="0" y="504" style="fill: #c49c94; fill-opacity: 0.35"/>
    </g>
   </g>
   <g id="line2d_9">
    <path d="M 59.951662 404.341543 
L 64.142349 404.258202 
L 69.380708 403.947048 
L 77.762083 403.177786 
L 87.19113 402.334706 
L 96.620177 401.707229 
L 103.95388 401.184193 
L 109.192239 400.593943 
L 113.382927 399.913882 
L 117.573614 399.023059 
L 121.764302 397.92339 
L 129.098005 395.680686 
L 143.765411 390.947721 
L 146.908426 389.771967 
L 150.051442 388.40728 
L 153.194457 386.78099 
L 156.337473 384.831155 
L 159.480489 382.564626 
L 162.623504 379.955696 
L 165.76652 377.054415 
L 169.957207 372.823503 
L 174.147895 368.339434 
L 179.386254 362.371714 
L 184.624613 355.945286 
L 188.815301 350.391376 
L 193.005988 344.448497 
L 197.196676 338.144271 
L 201.387363 331.562162 
L 207.673394 321.168354 
L 212.911754 311.956105 
L 218.150113 302.222218 
L 226.531488 285.824063 
L 232.817519 273.62119 
L 238.055878 264.038957 
L 243.294238 254.981255 
L 256.913972 231.749155 
L 261.104659 223.914373 
L 265.295347 215.631078 
L 269.486034 206.7874 
L 274.724394 195.02538 
L 279.962753 182.473618 
L 290.439472 156.744094 
L 293.582487 149.745272 
L 295.677831 145.54791 
L 297.773175 141.748965 
L 299.868518 138.487963 
L 301.963862 135.761754 
L 304.059206 133.61509 
L 306.15455 132.051107 
L 307.202221 131.482918 
L 309.297565 130.739061 
L 310.345237 130.541629 
L 312.440581 130.442545 
L 314.535924 130.757233 
L 316.631268 131.323227 
L 318.726612 132.026465 
L 321.869627 133.342279 
L 326.060315 135.333896 
L 332.346346 138.456455 
L 337.584705 141.472549 
L 340.727721 143.72314 
L 343.870737 146.295145 
L 347.013752 149.181212 
L 351.20444 153.346292 
L 357.490471 160.201896 
L 362.72883 166.292773 
L 366.919518 171.564238 
L 371.110205 177.373738 
L 374.253221 182.124482 
L 378.443908 188.991998 
L 382.634596 196.415182 
L 387.872955 206.343521 
L 392.063642 214.890247 
L 395.206658 221.656998 
L 399.397345 231.242647 
L 407.77872 251.325737 
L 411.969408 261.022464 
L 416.160095 270.118212 
L 420.350783 278.482887 
L 424.54147 286.302159 
L 440.256548 315.237597 
L 445.494907 324.840119 
L 449.685595 332.104332 
L 452.82861 337.213171 
L 457.019298 343.467185 
L 461.209985 349.203988 
L 465.400673 354.412339 
L 468.543688 358.035778 
L 472.734376 362.519228 
L 476.925063 366.551376 
L 480.068079 369.30656 
L 483.211094 371.793093 
L 487.401782 374.768491 
L 490.544798 376.770382 
L 495.783157 379.823345 
L 515.688922 390.937524 
L 520.927282 393.656155 
L 525.117969 395.587516 
L 529.308656 397.258715 
L 533.499344 398.618777 
L 537.690031 399.699266 
L 542.928391 400.729006 
L 550.262094 401.829975 
L 574.358547 405.103574 
L 579.596906 405.456153 
L 585.882937 405.619858 
L 595.311984 405.637647 
L 595.311984 405.637647 
" clip-path="url(#pdf9d7e0f0b)" style="fill: none; stroke: #c49c94; stroke-width: 1.5; stroke-linecap: round"/>
   </g>
   <g id="line2d_10">
    <path d="M 194.451937 401.166305 
L 445.809556 401.166305 
" clip-path="url(#pdf9d7e0f0b)" style="fill: none; stroke: #c49c94; stroke-width: 3.5; stroke-linecap: round"/>
   </g>
   <g id="patch_3">
    <path d="M 33.183645 420.8 
L 622.08 420.8 
" style="fill: none; stroke: #333333; stroke-width: 1.5; stroke-linejoin: miter; stroke-linecap: square"/>
   </g>
   <g id="text_4">
    <!-- $x_2^2x_3^2$ -->
    <g style="fill: #262626" transform="translate(243.271823 94.576)">
     <text>
      <tspan x="0" y="-0.421875" style="font-style: oblique; font-size: 76px; font-family: 'DejaVu Sans'; fill: #262626">x</tspan>
      <tspan x="84.296419" y="-0.421875" style="font-style: oblique; font-size: 76px; font-family: 'DejaVu Sans'; fill: #262626">x</tspan>
      <tspan x="44.976562" y="20.359375" style="font-size: 53.2px; font-family: 'DejaVu Sans'; fill: #262626">2</tspan>
      <tspan x="48.370833" y="-29.515625" style="font-size: 53.2px; font-family: 'DejaVu Sans'; fill: #262626">2</tspan>
      <tspan x="129.272982" y="20.359375" style="font-size: 53.2px; font-family: 'DejaVu Sans'; fill: #262626">3</tspan>
      <tspan x="132.667253" y="-29.515625" style="font-size: 53.2px; font-family: 'DejaVu Sans'; fill: #262626">2</tspan>
     </text>
    </g>
   </g>
  </g>
 </g>
 <defs>
  <clipPath id="pdf9d7e0f0b">
   <rect x="33.183645" y="116.616" width="588.896355" height="304.184"/>
  </clipPath>
 </defs>
</svg>
