<?xml version="1.0" encoding="utf-8" standalone="no"?>
<!DOCTYPE svg PUBLIC "-//W3C//DTD SVG 1.1//EN"
  "http://www.w3.org/Graphics/SVG/1.1/DTD/svg11.dtd">
<svg xmlns:xlink="http://www.w3.org/1999/xlink" width="648pt" height="504pt" viewBox="0 0 648 504" xmlns="http://www.w3.org/2000/svg" version="1.1">
 <metadata>
  <rdf:RDF xmlns:dc="http://purl.org/dc/elements/1.1/" xmlns:cc="http://creativecommons.org/ns#" xmlns:rdf="http://www.w3.org/1999/02/22-rdf-syntax-ns#">
   <cc:Work>
    <dc:type rdf:resource="http://purl.org/dc/dcmitype/StillImage"/>
    <dc:date>2026-02-22T16:15:35.176530</dc:date>
    <dc:format>image/svg+xml</dc:format>
    <dc:creator>
     <cc:Agent>
      <dc:title>Matplotlib v3.10.6, https://matplotlib.org/</dc:title>
     </cc:Agent>
    </dc:creator>
   </cc:Work>
  </rdf:RDF>
 </metadata>
 <defs>
  <style type="text/css">*{stroke-linejoin: round; stroke-linecap: butt}</style>
 </defs>
 <g id="figure_1">
  <g id="patch_1">
   <path d="M 0 504 
L 648 504 
L 648 0 
L 0 0 
L 0 504 
z
" style="fill: none; opacity: 0"/>
  </g>
  <g id="axes_1">
   <g id="patch_2">
    <path d="M 29.912187 420.8 
L 622.08 420.8 
L 622.08 99.6 
L 29.912187 99.6 
L 29.912187 420.8 
z
" style="fill: none"/>
   </g>
   <g id="matplotlib.axis_1">
    <g id="xtick_1">
     <g id="line2d_1">
      <path d="M 89.91347 420.8 
L 89.91347 99.6 
" clip-path="url(#p79a4f9868f)" style="fill: none; stroke: #ffffff; stroke-opacity: 0.4; stroke-linecap: round"/>
     </g>
     <g id="line2d_2"/>
     <g id="text_1">
      <text style="font-size: 52px; font-family: 'DejaVu Serif', 'Times New Roman', serif; text-anchor: middle; fill: #262626" x="89.91347" y="467.311875" transform="rotate(-0 89.91347 467.311875)">−10</text>
     </g>
    </g>
    <g id="xtick_2">
     <g id="line2d_3">
      <path d="M 311.356698 420.8 
L 311.356698 99.6 
" clip-path="url(#p79a4f9868f)" style="fill: none; stroke: #ffffff; stroke-opacity: 0.4; stroke-linecap: round"/>
     </g>
     <g id="line2d_4"/>
     <g id="text_2">
      <text style="font-size: 52px; font-family: 'DejaVu Serif', 'Times New Roman', serif; text-anchor: middle; fill: #262626" x="311.356698" y="467.311875" transform="rotate(-0 311.356698 467.311875)">0</text>
     </g>
    </g>
    <g id="xtick_3">
     <g id="line2d_5">
      <path d="M 532.799926 420.8 
L 532.799926 99.6 
" clip-path="url(#p79a4f9868f)" style="fill: none; stroke: #ffffff; stroke-opacity: 0.4; stroke-linecap: round"/>
     </g>
     <g id="line2d_6"/>
     <g id="text_3">
      <text style="font-size: 52px; font-family: 'DejaVu Serif', 'Times New Roman', serif; text-anchor: middle; fill: #262626" x="532.799926" y="467.311875" transform="rotate(-0 532.799926 467.311875)">10</text>
     </g>
    </g>
   </g>
   <g id="matplotlib.axis_2">
    <g id="ytick_1">
     <g id="line2d_7">
      <path d="M 29.912187 406.2 
L 622.08 406.2 
" clip-path="url(#p79a4f9868f)" style="fill: none; stroke: #ffffff; stroke-opacity: 0.4; stroke-linecap: round"/>
     </g>
    </g>
    <g id="ytick_2">
     <g id="line2d_8">
      <path d="M 29.912187 298.943156 
L 622.08 298.943156 
" clip-path="url(#p79a4f9868f)" style="fill: none; stroke: #ffffff; stroke-opacity: 0.4; stroke-linecap: round"/>
     </g>
    </g>
    <g id="ytick_3">
     <g id="line2d_9">
      <path d="M 29.912187 191.686313 
L 622.08 191.686313 
" clip-path="url(#p79a4f9868f)" style="fill: none; stroke: #ffffff; stroke-opacity: 0.4; stroke-linecap: round"/>
     </g>
    </g>
   </g>
   <g id="FillBetweenPolyCollection_1">
    <defs>
     <path id="m157b9cf1e9" d="M 56.828906 -97.8 
L 56.828906 -98.486137 
L 57.882398 -98.48746 
L 58.93589 -98.483384 
L 59.989382 -98.476401 
L 61.042874 -98.466824 
L 62.096366 -98.458067 
L 63.149858 -98.44552 
L 64.20335 -98.43205 
L 65.256842 -98.418279 
L 66.310333 -98.407853 
L 67.363825 -98.394017 
L 68.417317 -98.384827 
L 69.470809 -98.377898 
L 70.524301 -98.373777 
L 71.577793 -98.372923 
L 72.631285 -98.375695 
L 73.684777 -98.388355 
L 74.738269 -98.400849 
L 75.791761 -98.417856 
L 76.845253 -98.439386 
L 77.898745 -98.465354 
L 78.952237 -98.495587 
L 80.005728 -98.529832 
L 81.05922 -98.576786 
L 82.112712 -98.620774 
L 83.166204 -98.671351 
L 84.219696 -98.72609 
L 85.273188 -98.78187 
L 86.32668 -98.840702 
L 87.380172 -98.90833 
L 88.433664 -98.977309 
L 89.487156 -99.052964 
L 90.540648 -99.133304 
L 91.59414 -99.212723 
L 92.647632 -99.298933 
L 93.701124 -99.390738 
L 94.754615 -99.483325 
L 95.808107 -99.583778 
L 96.861599 -99.695529 
L 97.915091 -99.814817 
L 98.968583 -99.942499 
L 100.022075 -100.082477 
L 101.075567 -100.230569 
L 102.129059 -100.390021 
L 103.182551 -100.555769 
L 104.236043 -100.738919 
L 105.289535 -100.929664 
L 106.343027 -101.135874 
L 107.396519 -101.355558 
L 108.450011 -101.591835 
L 109.503502 -101.839512 
L 110.556994 -102.106611 
L 111.610486 -102.382426 
L 112.663978 -102.676876 
L 113.71747 -102.981874 
L 114.770962 -103.298856 
L 115.824454 -103.626805 
L 116.877946 -103.961551 
L 117.931438 -104.306902 
L 118.98493 -104.659145 
L 120.038422 -105.010769 
L 121.091914 -105.365137 
L 122.145406 -105.732287 
L 123.198898 -106.101122 
L 124.252389 -106.458498 
L 125.305881 -106.823844 
L 126.359373 -107.184089 
L 127.412865 -107.534597 
L 128.466357 -107.890871 
L 129.519849 -108.22856 
L 130.573341 -108.564262 
L 131.626833 -108.887778 
L 132.680325 -109.212195 
L 133.733817 -109.527137 
L 134.787309 -109.844113 
L 135.840801 -110.160911 
L 136.894293 -110.467609 
L 137.947785 -110.771436 
L 139.001276 -111.076615 
L 140.054768 -111.374071 
L 141.10826 -111.677739 
L 142.161752 -111.980769 
L 143.215244 -112.286695 
L 144.268736 -112.596683 
L 145.322228 -112.920803 
L 146.37572 -113.247663 
L 147.429212 -113.584301 
L 148.482704 -113.937661 
L 149.536196 -114.29993 
L 150.589688 -114.680293 
L 151.64318 -115.069267 
L 152.696672 -115.46903 
L 153.750163 -115.888116 
L 154.803655 -116.315502 
L 155.857147 -116.772858 
L 156.910639 -117.235896 
L 157.964131 -117.738333 
L 159.017623 -118.256398 
L 160.071115 -118.788966 
L 161.124607 -119.333801 
L 162.178099 -119.898816 
L 163.231591 -120.481435 
L 164.285083 -121.085002 
L 165.338575 -121.714524 
L 166.392067 -122.377579 
L 167.445559 -123.074147 
L 168.49905 -123.786226 
L 169.552542 -124.543482 
L 170.606034 -125.321433 
L 171.659526 -126.132063 
L 172.713018 -126.976682 
L 173.76651 -127.87215 
L 174.820002 -128.808827 
L 175.873494 -129.793565 
L 176.926986 -130.827929 
L 177.980478 -131.914814 
L 179.03397 -133.047953 
L 180.087462 -134.247507 
L 181.140954 -135.495476 
L 182.194446 -136.79424 
L 183.247937 -138.151374 
L 184.301429 -139.571006 
L 185.354921 -141.048193 
L 186.408413 -142.57921 
L 187.461905 -144.162828 
L 188.515397 -145.795901 
L 189.568889 -147.481499 
L 190.622381 -149.220269 
L 191.675873 -150.987323 
L 192.729365 -152.799447 
L 193.782857 -154.661991 
L 194.836349 -156.5627 
L 195.889841 -158.498991 
L 196.943332 -160.478787 
L 197.996824 -162.501736 
L 199.050316 -164.538818 
L 200.103808 -166.594079 
L 201.1573 -168.686965 
L 202.210792 -170.784948 
L 203.264284 -172.924919 
L 204.317776 -175.094772 
L 205.371268 -177.26773 
L 206.42476 -179.430267 
L 207.478252 -181.6045 
L 208.531744 -183.802836 
L 209.585236 -186.004956 
L 210.638728 -188.242083 
L 211.692219 -190.479537 
L 212.745711 -192.718616 
L 213.799203 -194.977582 
L 214.852695 -197.256408 
L 215.906187 -199.567558 
L 216.959679 -201.895842 
L 218.013171 -204.263432 
L 219.066663 -206.643292 
L 220.120155 -209.053902 
L 221.173647 -211.469394 
L 222.227139 -213.97358 
L 223.280631 -216.486201 
L 224.334123 -219.0229 
L 225.387615 -221.569677 
L 226.441106 -224.150934 
L 227.494598 -226.748117 
L 228.54809 -229.397962 
L 229.601582 -232.001679 
L 230.655074 -234.645225 
L 231.708566 -237.249412 
L 232.762058 -239.859128 
L 233.81555 -242.449823 
L 234.869042 -244.976716 
L 235.922534 -247.496872 
L 236.976026 -249.968968 
L 238.029518 -252.378548 
L 239.08301 -254.745484 
L 240.136502 -257.041717 
L 241.189993 -259.293914 
L 242.243485 -261.510698 
L 243.296977 -263.656536 
L 244.350469 -265.736772 
L 245.403961 -267.783231 
L 246.457453 -269.785482 
L 247.510945 -271.769701 
L 248.564437 -273.752261 
L 249.617929 -275.674178 
L 250.671421 -277.586516 
L 251.724913 -279.480546 
L 252.778405 -281.427261 
L 253.831897 -283.333136 
L 254.885389 -285.286929 
L 255.93888 -287.300914 
L 256.992372 -289.289229 
L 258.045864 -291.327185 
L 259.099356 -293.407011 
L 260.152848 -295.52893 
L 261.20634 -297.71265 
L 262.259832 -299.935859 
L 263.313324 -302.197455 
L 264.366816 -304.526118 
L 265.420308 -306.923438 
L 266.4738 -309.346758 
L 267.527292 -311.814831 
L 268.580784 -314.29976 
L 269.634276 -316.836363 
L 270.687767 -319.43464 
L 271.741259 -322.045155 
L 272.794751 -324.711668 
L 273.848243 -327.421674 
L 274.901735 -330.120803 
L 275.955227 -332.82836 
L 277.008719 -335.517519 
L 278.062211 -338.16115 
L 279.115703 -340.801255 
L 280.169195 -343.439135 
L 281.222687 -346.021151 
L 282.276179 -348.518951 
L 283.329671 -351.000645 
L 284.383163 -353.419248 
L 285.436654 -355.770642 
L 286.490146 -358.026382 
L 287.543638 -360.220726 
L 288.59713 -362.366095 
L 289.650622 -364.409224 
L 290.704114 -366.372697 
L 291.757606 -368.24243 
L 292.811098 -370.052713 
L 293.86459 -371.774303 
L 294.918082 -373.460783 
L 295.971574 -375.028348 
L 297.025066 -376.588193 
L 298.078558 -378.057202 
L 299.13205 -379.514273 
L 300.185541 -380.869109 
L 301.239033 -382.142041 
L 302.292525 -383.316134 
L 303.346017 -384.456441 
L 304.399509 -385.453907 
L 305.453001 -386.39155 
L 306.506493 -387.221621 
L 307.559985 -387.968028 
L 308.613477 -388.634643 
L 309.666969 -389.121562 
L 310.720461 -389.479859 
L 311.773953 -389.70225 
L 312.827445 -389.8 
L 313.880936 -389.759843 
L 314.934428 -389.549048 
L 315.98792 -389.183514 
L 317.041412 -388.69472 
L 318.094904 -388.072147 
L 319.148396 -387.33064 
L 320.201888 -386.468425 
L 321.25538 -385.458166 
L 322.308872 -384.327839 
L 323.362364 -383.13188 
L 324.415856 -381.86035 
L 325.469348 -380.507355 
L 326.52284 -379.044046 
L 327.576332 -377.579071 
L 328.629823 -376.030188 
L 329.683315 -374.413099 
L 330.736807 -372.851484 
L 331.790299 -371.217387 
L 332.843791 -369.5673 
L 333.897283 -367.873999 
L 334.950775 -366.17032 
L 336.004267 -364.442947 
L 337.057759 -362.678986 
L 338.111251 -360.862713 
L 339.164743 -358.988144 
L 340.218235 -357.085214 
L 341.271727 -355.136629 
L 342.325219 -353.148648 
L 343.37871 -351.079421 
L 344.432202 -348.928519 
L 345.485694 -346.750665 
L 346.539186 -344.473617 
L 347.592678 -342.131195 
L 348.64617 -339.753169 
L 349.699662 -337.33751 
L 350.753154 -334.862014 
L 351.806646 -332.389556 
L 352.860138 -329.869707 
L 353.91363 -327.295627 
L 354.967122 -324.729016 
L 356.020614 -322.165137 
L 357.074106 -319.572068 
L 358.127597 -316.996508 
L 359.181089 -314.464373 
L 360.234581 -311.98398 
L 361.288073 -309.504758 
L 362.341565 -307.028045 
L 363.395057 -304.626953 
L 364.448549 -302.298406 
L 365.502041 -299.992411 
L 366.555533 -297.710831 
L 367.609025 -295.485731 
L 368.662517 -293.269301 
L 369.716009 -291.070393 
L 370.769501 -288.87186 
L 371.822993 -286.705851 
L 372.876484 -284.515798 
L 373.929976 -282.327363 
L 374.983468 -280.152769 
L 376.03696 -277.954839 
L 377.090452 -275.726459 
L 378.143944 -273.480772 
L 379.197436 -271.181017 
L 380.250928 -268.83531 
L 381.30442 -266.447619 
L 382.357912 -264.005405 
L 383.411404 -261.565206 
L 384.464896 -259.079338 
L 385.518388 -256.555195 
L 386.57188 -253.963799 
L 387.625371 -251.348076 
L 388.678863 -248.722935 
L 389.732355 -246.090125 
L 390.785847 -243.412821 
L 391.839339 -240.740514 
L 392.892831 -238.023508 
L 393.946323 -235.314705 
L 394.999815 -232.626994 
L 396.053307 -229.941237 
L 397.106799 -227.276236 
L 398.160291 -224.621185 
L 399.213783 -221.996801 
L 400.267275 -219.408922 
L 401.320767 -216.831636 
L 402.374258 -214.299148 
L 403.42775 -211.795307 
L 404.481242 -209.298799 
L 405.534734 -206.862015 
L 406.588226 -204.454439 
L 407.641718 -202.108543 
L 408.69521 -199.773018 
L 409.748702 -197.486394 
L 410.802194 -195.252873 
L 411.855686 -193.053142 
L 412.909178 -190.885084 
L 413.96267 -188.744037 
L 415.016162 -186.611915 
L 416.069653 -184.510943 
L 417.123145 -182.430623 
L 418.176637 -180.365815 
L 419.230129 -178.306111 
L 420.283621 -176.286911 
L 421.337113 -174.268117 
L 422.390605 -172.250277 
L 423.444097 -170.222627 
L 424.497589 -168.225418 
L 425.551081 -166.205912 
L 426.604573 -164.204728 
L 427.658065 -162.230232 
L 428.711557 -160.24809 
L 429.765049 -158.289163 
L 430.81854 -156.341128 
L 431.872032 -154.418275 
L 432.925524 -152.518172 
L 433.979016 -150.647628 
L 435.032508 -148.818108 
L 436.086 -147.027867 
L 437.139492 -145.287566 
L 438.192984 -143.572945 
L 439.246476 -141.931989 
L 440.299968 -140.353705 
L 441.35346 -138.824225 
L 442.406952 -137.352991 
L 443.460444 -135.954416 
L 444.513936 -134.623742 
L 445.567427 -133.35944 
L 446.620919 -132.14876 
L 447.674411 -131.013941 
L 448.727903 -129.923041 
L 449.781395 -128.881122 
L 450.834887 -127.902505 
L 451.888379 -126.977035 
L 452.941871 -126.083384 
L 453.995363 -125.235734 
L 455.048855 -124.41391 
L 456.102347 -123.637405 
L 457.155839 -122.86864 
L 458.209331 -122.136889 
L 459.262823 -121.429612 
L 460.316314 -120.746081 
L 461.369806 -120.074063 
L 462.423298 -119.414848 
L 463.47679 -118.770552 
L 464.530282 -118.146728 
L 465.583774 -117.531506 
L 466.637266 -116.931871 
L 467.690758 -116.336376 
L 468.74425 -115.749022 
L 469.797742 -115.183729 
L 470.851234 -114.631148 
L 471.904726 -114.072231 
L 472.958218 -113.529232 
L 474.01171 -112.989378 
L 475.065201 -112.464505 
L 476.118693 -111.950989 
L 477.172185 -111.452973 
L 478.225677 -110.962208 
L 479.279169 -110.477096 
L 480.332661 -110.005679 
L 481.386153 -109.535851 
L 482.439645 -109.084419 
L 483.493137 -108.646843 
L 484.546629 -108.208915 
L 485.600121 -107.782058 
L 486.653613 -107.380723 
L 487.707105 -106.986181 
L 488.760597 -106.607161 
L 489.814088 -106.236613 
L 490.86758 -105.880644 
L 491.921072 -105.542301 
L 492.974564 -105.224028 
L 494.028056 -104.908096 
L 495.081548 -104.61516 
L 496.13504 -104.338427 
L 497.188532 -104.079432 
L 498.242024 -103.825442 
L 499.295516 -103.587216 
L 500.349008 -103.363563 
L 501.4025 -103.146494 
L 502.455992 -102.94575 
L 503.509484 -102.747908 
L 504.562975 -102.567737 
L 505.616467 -102.391057 
L 506.669959 -102.225213 
L 507.723451 -102.068722 
L 508.776943 -101.917989 
L 509.830435 -101.77771 
L 510.883927 -101.625637 
L 511.937419 -101.48988 
L 512.990911 -101.362456 
L 514.044403 -101.23491 
L 515.097895 -101.109921 
L 516.151387 -100.990198 
L 517.204879 -100.868102 
L 518.258371 -100.746306 
L 519.311862 -100.631977 
L 520.365354 -100.521407 
L 521.418846 -100.411808 
L 522.472338 -100.296553 
L 523.52583 -100.191288 
L 524.579322 -100.087358 
L 525.632814 -99.980562 
L 526.686306 -99.881544 
L 527.739798 -99.782453 
L 528.79329 -99.684285 
L 529.846782 -99.592463 
L 530.900274 -99.506586 
L 531.953766 -99.421819 
L 533.007257 -99.343686 
L 534.060749 -99.267239 
L 535.114241 -99.197861 
L 536.167733 -99.132734 
L 537.221225 -99.069651 
L 538.274717 -99.013715 
L 539.328209 -98.959535 
L 540.381701 -98.912038 
L 541.435193 -98.867951 
L 542.488685 -98.824642 
L 543.542177 -98.786828 
L 544.595669 -98.746503 
L 545.649161 -98.713476 
L 546.702653 -98.676759 
L 547.756144 -98.64622 
L 548.809636 -98.615535 
L 549.863128 -98.584426 
L 550.91662 -98.552664 
L 551.970112 -98.520081 
L 553.023604 -98.486582 
L 554.077096 -98.452141 
L 555.130588 -98.416811 
L 556.18408 -98.378424 
L 557.237572 -98.337722 
L 558.291064 -98.302229 
L 559.344556 -98.269297 
L 560.398048 -98.237206 
L 561.45154 -98.203559 
L 562.505031 -98.171091 
L 563.558523 -98.140239 
L 564.612015 -98.111423 
L 565.665507 -98.08275 
L 566.718999 -98.057427 
L 567.772491 -98.037933 
L 568.825983 -98.021598 
L 569.879475 -98.008704 
L 570.932967 -97.999477 
L 571.986459 -97.994084 
L 573.039951 -97.992637 
L 574.093443 -97.995186 
L 575.146935 -98.001722 
L 576.200427 -98.012173 
L 577.253918 -98.026403 
L 578.30741 -98.044212 
L 579.360902 -98.06533 
L 580.414394 -98.08942 
L 581.467886 -98.11608 
L 582.521378 -98.144841 
L 583.57487 -98.172889 
L 584.628362 -98.204777 
L 585.681854 -98.236905 
L 586.735346 -98.268644 
L 587.788838 -98.299344 
L 588.84233 -98.328349 
L 589.895822 -98.352733 
L 590.949314 -98.377022 
L 592.002805 -98.397687 
L 593.056297 -98.414271 
L 594.109789 -98.426397 
L 595.163281 -98.433787 
L 595.163281 -97.8 
L 595.163281 -97.8 
L 594.109789 -97.8 
L 593.056297 -97.8 
L 592.002805 -97.8 
L 590.949314 -97.8 
L 589.895822 -97.8 
L 588.84233 -97.8 
L 587.788838 -97.8 
L 586.735346 -97.8 
L 585.681854 -97.8 
L 584.628362 -97.8 
L 583.57487 -97.8 
L 582.521378 -97.8 
L 581.467886 -97.8 
L 580.414394 -97.8 
L 579.360902 -97.8 
L 578.30741 -97.8 
L 577.253918 -97.8 
L 576.200427 -97.8 
L 575.146935 -97.8 
L 574.093443 -97.8 
L 573.039951 -97.8 
L 571.986459 -97.8 
L 570.932967 -97.8 
L 569.879475 -97.8 
L 568.825983 -97.8 
L 567.772491 -97.8 
L 566.718999 -97.8 
L 565.665507 -97.8 
L 564.612015 -97.8 
L 563.558523 -97.8 
L 562.505031 -97.8 
L 561.45154 -97.8 
L 560.398048 -97.8 
L 559.344556 -97.8 
L 558.291064 -97.8 
L 557.237572 -97.8 
L 556.18408 -97.8 
L 555.130588 -97.8 
L 554.077096 -97.8 
L 553.023604 -97.8 
L 551.970112 -97.8 
L 550.91662 -97.8 
L 549.863128 -97.8 
L 548.809636 -97.8 
L 547.756144 -97.8 
L 546.702653 -97.8 
L 545.649161 -97.8 
L 544.595669 -97.8 
L 543.542177 -97.8 
L 542.488685 -97.8 
L 541.435193 -97.8 
L 540.381701 -97.8 
L 539.328209 -97.8 
L 538.274717 -97.8 
L 537.221225 -97.8 
L 536.167733 -97.8 
L 535.114241 -97.8 
L 534.060749 -97.8 
L 533.007257 -97.8 
L 531.953766 -97.8 
L 530.900274 -97.8 
L 529.846782 -97.8 
L 528.79329 -97.8 
L 527.739798 -97.8 
L 526.686306 -97.8 
L 525.632814 -97.8 
L 524.579322 -97.8 
L 523.52583 -97.8 
L 522.472338 -97.8 
L 521.418846 -97.8 
L 520.365354 -97.8 
L 519.311862 -97.8 
L 518.258371 -97.8 
L 517.204879 -97.8 
L 516.151387 -97.8 
L 515.097895 -97.8 
L 514.044403 -97.8 
L 512.990911 -97.8 
L 511.937419 -97.8 
L 510.883927 -97.8 
L 509.830435 -97.8 
L 508.776943 -97.8 
L 507.723451 -97.8 
L 506.669959 -97.8 
L 505.616467 -97.8 
L 504.562975 -97.8 
L 503.509484 -97.8 
L 502.455992 -97.8 
L 501.4025 -97.8 
L 500.349008 -97.8 
L 499.295516 -97.8 
L 498.242024 -97.8 
L 497.188532 -97.8 
L 496.13504 -97.8 
L 495.081548 -97.8 
L 494.028056 -97.8 
L 492.974564 -97.8 
L 491.921072 -97.8 
L 490.86758 -97.8 
L 489.814088 -97.8 
L 488.760597 -97.8 
L 487.707105 -97.8 
L 486.653613 -97.8 
L 485.600121 -97.8 
L 484.546629 -97.8 
L 483.493137 -97.8 
L 482.439645 -97.8 
L 481.386153 -97.8 
L 480.332661 -97.8 
L 479.279169 -97.8 
L 478.225677 -97.8 
L 477.172185 -97.8 
L 476.118693 -97.8 
L 475.065201 -97.8 
L 474.01171 -97.8 
L 472.958218 -97.8 
L 471.904726 -97.8 
L 470.851234 -97.8 
L 469.797742 -97.8 
L 468.74425 -97.8 
L 467.690758 -97.8 
L 466.637266 -97.8 
L 465.583774 -97.8 
L 464.530282 -97.8 
L 463.47679 -97.8 
L 462.423298 -97.8 
L 461.369806 -97.8 
L 460.316314 -97.8 
L 459.262823 -97.8 
L 458.209331 -97.8 
L 457.155839 -97.8 
L 456.102347 -97.8 
L 455.048855 -97.8 
L 453.995363 -97.8 
L 452.941871 -97.8 
L 451.888379 -97.8 
L 450.834887 -97.8 
L 449.781395 -97.8 
L 448.727903 -97.8 
L 447.674411 -97.8 
L 446.620919 -97.8 
L 445.567427 -97.8 
L 444.513936 -97.8 
L 443.460444 -97.8 
L 442.406952 -97.8 
L 441.35346 -97.8 
L 440.299968 -97.8 
L 439.246476 -97.8 
L 438.192984 -97.8 
L 437.139492 -97.8 
L 436.086 -97.8 
L 435.032508 -97.8 
L 433.979016 -97.8 
L 432.925524 -97.8 
L 431.872032 -97.8 
L 430.81854 -97.8 
L 429.765049 -97.8 
L 428.711557 -97.8 
L 427.658065 -97.8 
L 426.604573 -97.8 
L 425.551081 -97.8 
L 424.497589 -97.8 
L 423.444097 -97.8 
L 422.390605 -97.8 
L 421.337113 -97.8 
L 420.283621 -97.8 
L 419.230129 -97.8 
L 418.176637 -97.8 
L 417.123145 -97.8 
L 416.069653 -97.8 
L 415.016162 -97.8 
L 413.96267 -97.8 
L 412.909178 -97.8 
L 411.855686 -97.8 
L 410.802194 -97.8 
L 409.748702 -97.8 
L 408.69521 -97.8 
L 407.641718 -97.8 
L 406.588226 -97.8 
L 405.534734 -97.8 
L 404.481242 -97.8 
L 403.42775 -97.8 
L 402.374258 -97.8 
L 401.320767 -97.8 
L 400.267275 -97.8 
L 399.213783 -97.8 
L 398.160291 -97.8 
L 397.106799 -97.8 
L 396.053307 -97.8 
L 394.999815 -97.8 
L 393.946323 -97.8 
L 392.892831 -97.8 
L 391.839339 -97.8 
L 390.785847 -97.8 
L 389.732355 -97.8 
L 388.678863 -97.8 
L 387.625371 -97.8 
L 386.57188 -97.8 
L 385.518388 -97.8 
L 384.464896 -97.8 
L 383.411404 -97.8 
L 382.357912 -97.8 
L 381.30442 -97.8 
L 380.250928 -97.8 
L 379.197436 -97.8 
L 378.143944 -97.8 
L 377.090452 -97.8 
L 376.03696 -97.8 
L 374.983468 -97.8 
L 373.929976 -97.8 
L 372.876484 -97.8 
L 371.822993 -97.8 
L 370.769501 -97.8 
L 369.716009 -97.8 
L 368.662517 -97.8 
L 367.609025 -97.8 
L 366.555533 -97.8 
L 365.502041 -97.8 
L 364.448549 -97.8 
L 363.395057 -97.8 
L 362.341565 -97.8 
L 361.288073 -97.8 
L 360.234581 -97.8 
L 359.181089 -97.8 
L 358.127597 -97.8 
L 357.074106 -97.8 
L 356.020614 -97.8 
L 354.967122 -97.8 
L 353.91363 -97.8 
L 352.860138 -97.8 
L 351.806646 -97.8 
L 350.753154 -97.8 
L 349.699662 -97.8 
L 348.64617 -97.8 
L 347.592678 -97.8 
L 346.539186 -97.8 
L 345.485694 -97.8 
L 344.432202 -97.8 
L 343.37871 -97.8 
L 342.325219 -97.8 
L 341.271727 -97.8 
L 340.218235 -97.8 
L 339.164743 -97.8 
L 338.111251 -97.8 
L 337.057759 -97.8 
L 336.004267 -97.8 
L 334.950775 -97.8 
L 333.897283 -97.8 
L 332.843791 -97.8 
L 331.790299 -97.8 
L 330.736807 -97.8 
L 329.683315 -97.8 
L 328.629823 -97.8 
L 327.576332 -97.8 
L 326.52284 -97.8 
L 325.469348 -97.8 
L 324.415856 -97.8 
L 323.362364 -97.8 
L 322.308872 -97.8 
L 321.25538 -97.8 
L 320.201888 -97.8 
L 319.148396 -97.8 
L 318.094904 -97.8 
L 317.041412 -97.8 
L 315.98792 -97.8 
L 314.934428 -97.8 
L 313.880936 -97.8 
L 312.827445 -97.8 
L 311.773953 -97.8 
L 310.720461 -97.8 
L 309.666969 -97.8 
L 308.613477 -97.8 
L 307.559985 -97.8 
L 306.506493 -97.8 
L 305.453001 -97.8 
L 304.399509 -97.8 
L 303.346017 -97.8 
L 302.292525 -97.8 
L 301.239033 -97.8 
L 300.185541 -97.8 
L 299.13205 -97.8 
L 298.078558 -97.8 
L 297.025066 -97.8 
L 295.971574 -97.8 
L 294.918082 -97.8 
L 293.86459 -97.8 
L 292.811098 -97.8 
L 291.757606 -97.8 
L 290.704114 -97.8 
L 289.650622 -97.8 
L 288.59713 -97.8 
L 287.543638 -97.8 
L 286.490146 -97.8 
L 285.436654 -97.8 
L 284.383163 -97.8 
L 283.329671 -97.8 
L 282.276179 -97.8 
L 281.222687 -97.8 
L 280.169195 -97.8 
L 279.115703 -97.8 
L 278.062211 -97.8 
L 277.008719 -97.8 
L 275.955227 -97.8 
L 274.901735 -97.8 
L 273.848243 -97.8 
L 272.794751 -97.8 
L 271.741259 -97.8 
L 270.687767 -97.8 
L 269.634276 -97.8 
L 268.580784 -97.8 
L 267.527292 -97.8 
L 266.4738 -97.8 
L 265.420308 -97.8 
L 264.366816 -97.8 
L 263.313324 -97.8 
L 262.259832 -97.8 
L 261.20634 -97.8 
L 260.152848 -97.8 
L 259.099356 -97.8 
L 258.045864 -97.8 
L 256.992372 -97.8 
L 255.93888 -97.8 
L 254.885389 -97.8 
L 253.831897 -97.8 
L 252.778405 -97.8 
L 251.724913 -97.8 
L 250.671421 -97.8 
L 249.617929 -97.8 
L 248.564437 -97.8 
L 247.510945 -97.8 
L 246.457453 -97.8 
L 245.403961 -97.8 
L 244.350469 -97.8 
L 243.296977 -97.8 
L 242.243485 -97.8 
L 241.189993 -97.8 
L 240.136502 -97.8 
L 239.08301 -97.8 
L 238.029518 -97.8 
L 236.976026 -97.8 
L 235.922534 -97.8 
L 234.869042 -97.8 
L 233.81555 -97.8 
L 232.762058 -97.8 
L 231.708566 -97.8 
L 230.655074 -97.8 
L 229.601582 -97.8 
L 228.54809 -97.8 
L 227.494598 -97.8 
L 226.441106 -97.8 
L 225.387615 -97.8 
L 224.334123 -97.8 
L 223.280631 -97.8 
L 222.227139 -97.8 
L 221.173647 -97.8 
L 220.120155 -97.8 
L 219.066663 -97.8 
L 218.013171 -97.8 
L 216.959679 -97.8 
L 215.906187 -97.8 
L 214.852695 -97.8 
L 213.799203 -97.8 
L 212.745711 -97.8 
L 211.692219 -97.8 
L 210.638728 -97.8 
L 209.585236 -97.8 
L 208.531744 -97.8 
L 207.478252 -97.8 
L 206.42476 -97.8 
L 205.371268 -97.8 
L 204.317776 -97.8 
L 203.264284 -97.8 
L 202.210792 -97.8 
L 201.1573 -97.8 
L 200.103808 -97.8 
L 199.050316 -97.8 
L 197.996824 -97.8 
L 196.943332 -97.8 
L 195.889841 -97.8 
L 194.836349 -97.8 
L 193.782857 -97.8 
L 192.729365 -97.8 
L 191.675873 -97.8 
L 190.622381 -97.8 
L 189.568889 -97.8 
L 188.515397 -97.8 
L 187.461905 -97.8 
L 186.408413 -97.8 
L 185.354921 -97.8 
L 184.301429 -97.8 
L 183.247937 -97.8 
L 182.194446 -97.8 
L 181.140954 -97.8 
L 180.087462 -97.8 
L 179.03397 -97.8 
L 177.980478 -97.8 
L 176.926986 -97.8 
L 175.873494 -97.8 
L 174.820002 -97.8 
L 173.76651 -97.8 
L 172.713018 -97.8 
L 171.659526 -97.8 
L 170.606034 -97.8 
L 169.552542 -97.8 
L 168.49905 -97.8 
L 167.445559 -97.8 
L 166.392067 -97.8 
L 165.338575 -97.8 
L 164.285083 -97.8 
L 163.231591 -97.8 
L 162.178099 -97.8 
L 161.124607 -97.8 
L 160.071115 -97.8 
L 159.017623 -97.8 
L 157.964131 -97.8 
L 156.910639 -97.8 
L 155.857147 -97.8 
L 154.803655 -97.8 
L 153.750163 -97.8 
L 152.696672 -97.8 
L 151.64318 -97.8 
L 150.589688 -97.8 
L 149.536196 -97.8 
L 148.482704 -97.8 
L 147.429212 -97.8 
L 146.37572 -97.8 
L 145.322228 -97.8 
L 144.268736 -97.8 
L 143.215244 -97.8 
L 142.161752 -97.8 
L 141.10826 -97.8 
L 140.054768 -97.8 
L 139.001276 -97.8 
L 137.947785 -97.8 
L 136.894293 -97.8 
L 135.840801 -97.8 
L 134.787309 -97.8 
L 133.733817 -97.8 
L 132.680325 -97.8 
L 131.626833 -97.8 
L 130.573341 -97.8 
L 129.519849 -97.8 
L 128.466357 -97.8 
L 127.412865 -97.8 
L 126.359373 -97.8 
L 125.305881 -97.8 
L 124.252389 -97.8 
L 123.198898 -97.8 
L 122.145406 -97.8 
L 121.091914 -97.8 
L 120.038422 -97.8 
L 118.98493 -97.8 
L 117.931438 -97.8 
L 116.877946 -97.8 
L 115.824454 -97.8 
L 114.770962 -97.8 
L 113.71747 -97.8 
L 112.663978 -97.8 
L 111.610486 -97.8 
L 110.556994 -97.8 
L 109.503502 -97.8 
L 108.450011 -97.8 
L 107.396519 -97.8 
L 106.343027 -97.8 
L 105.289535 -97.8 
L 104.236043 -97.8 
L 103.182551 -97.8 
L 102.129059 -97.8 
L 101.075567 -97.8 
L 100.022075 -97.8 
L 98.968583 -97.8 
L 97.915091 -97.8 
L 96.861599 -97.8 
L 95.808107 -97.8 
L 94.754615 -97.8 
L 93.701124 -97.8 
L 92.647632 -97.8 
L 91.59414 -97.8 
L 90.540648 -97.8 
L 89.487156 -97.8 
L 88.433664 -97.8 
L 87.380172 -97.8 
L 86.32668 -97.8 
L 85.273188 -97.8 
L 84.219696 -97.8 
L 83.166204 -97.8 
L 82.112712 -97.8 
L 81.05922 -97.8 
L 80.005728 -97.8 
L 78.952237 -97.8 
L 77.898745 -97.8 
L 76.845253 -97.8 
L 75.791761 -97.8 
L 74.738269 -97.8 
L 73.684777 -97.8 
L 72.631285 -97.8 
L 71.577793 -97.8 
L 70.524301 -97.8 
L 69.470809 -97.8 
L 68.417317 -97.8 
L 67.363825 -97.8 
L 66.310333 -97.8 
L 65.256842 -97.8 
L 64.20335 -97.8 
L 63.149858 -97.8 
L 62.096366 -97.8 
L 61.042874 -97.8 
L 59.989382 -97.8 
L 58.93589 -97.8 
L 57.882398 -97.8 
L 56.828906 -97.8 
z
"/>
    </defs>
    <g clip-path="url(#p79a4f9868f)">
     <use xlink:href="#m157b9cf1e9" x="0" y="504" style="fill: #1f77b4; fill-opacity: 0.35"/>
    </g>
   </g>
   <g id="line2d_10">
    <path d="M 56.828906 405.513863 
L 67.363825 405.605983 
L 75.791761 405.582144 
L 83.166204 405.328649 
L 91.59414 404.787277 
L 97.915091 404.185183 
L 103.182551 403.444231 
L 107.396519 402.644442 
L 111.610486 401.617574 
L 116.877946 400.038449 
L 126.359373 396.815911 
L 133.733817 394.472863 
L 150.589688 389.319707 
L 154.803655 387.684498 
L 159.017623 385.743602 
L 163.231591 383.518565 
L 166.392067 381.622421 
L 169.552542 379.456518 
L 172.713018 377.023318 
L 175.873494 374.206435 
L 179.03397 370.952047 
L 182.194446 367.20576 
L 184.301429 364.428994 
L 187.461905 359.837172 
L 190.622381 354.779731 
L 193.782857 349.338009 
L 196.943332 343.521213 
L 202.210792 333.215052 
L 209.585236 317.995044 
L 216.959679 302.104158 
L 222.227139 290.02642 
L 227.494598 277.251883 
L 233.81555 261.550177 
L 238.029518 251.621452 
L 241.189993 244.706086 
L 244.350469 238.263228 
L 248.564437 230.247739 
L 256.992372 214.710771 
L 260.152848 208.47107 
L 263.313324 201.802545 
L 266.4738 194.653242 
L 270.687767 184.56536 
L 274.901735 173.879197 
L 280.169195 160.560865 
L 283.329671 152.999355 
L 286.490146 145.973618 
L 289.650622 139.590776 
L 291.757606 135.75757 
L 294.918082 130.539217 
L 298.078558 125.942798 
L 300.185541 123.130891 
L 302.292525 120.683866 
L 304.399509 118.546093 
L 306.506493 116.778379 
L 308.613477 115.365357 
L 309.666969 114.878438 
L 310.720461 114.520141 
L 311.773953 114.29775 
L 312.827445 114.2 
L 313.880936 114.240157 
L 314.934428 114.450952 
L 315.98792 114.816486 
L 317.041412 115.30528 
L 319.148396 116.66936 
L 320.201888 117.531575 
L 322.308872 119.672161 
L 324.415856 122.13965 
L 326.52284 124.955954 
L 328.629823 127.969812 
L 334.950775 137.82968 
L 338.111251 143.137287 
L 342.325219 150.851352 
L 345.485694 157.249335 
L 348.64617 164.246831 
L 352.860138 174.130293 
L 361.288073 194.495242 
L 364.448549 201.701594 
L 368.662517 210.730699 
L 380.250928 235.16469 
L 384.464896 244.920662 
L 388.678863 255.277065 
L 394.999815 271.373006 
L 400.267275 284.591078 
L 404.481242 294.701201 
L 408.69521 304.226982 
L 412.909178 313.114916 
L 418.176637 323.634185 
L 424.497589 335.774582 
L 430.81854 347.658872 
L 435.032508 355.181892 
L 438.192984 360.427055 
L 441.35346 365.175775 
L 443.460444 368.045584 
L 445.567427 370.64056 
L 447.674411 372.986059 
L 449.781395 375.118878 
L 452.941871 377.916616 
L 456.102347 380.362595 
L 459.262823 382.570388 
L 463.47679 385.229448 
L 468.74425 388.250978 
L 475.065201 391.535495 
L 480.332661 393.994321 
L 484.546629 395.791085 
L 488.760597 397.392839 
L 492.974564 398.775972 
L 496.13504 399.661573 
L 501.4025 400.853506 
L 506.669959 401.774787 
L 514.044403 402.76509 
L 524.579322 403.912642 
L 533.007257 404.656314 
L 540.381701 405.087962 
L 553.023604 405.513418 
L 570.932967 406.000523 
L 579.360902 405.93467 
L 595.163281 405.566213 
L 595.163281 405.566213 
" clip-path="url(#p79a4f9868f)" style="fill: none; stroke: #1f77b4; stroke-width: 1.5; stroke-linecap: round"/>
   </g>
   <g id="line2d_11">
    <path d="M 204.609431 400.068 
L 420.542094 400.068 
" clip-path="url(#p79a4f9868f)" style="fill: none; stroke: #1f77b4; stroke-width: 3.5; stroke-linecap: round"/>
   </g>
   <g id="patch_3">
    <path d="M 29.912187 420.8 
L 622.08 420.8 
" style="fill: none; stroke: #333333; stroke-width: 1.5; stroke-linejoin: miter; stroke-linecap: square"/>
   </g>
   <g id="text_4">
    <!-- $x_3$ -->
    <g style="fill: #262626" transform="translate(285.336094 83.794375)">
     <text>
      <tspan x="0" y="-0.4375" style="font-style: oblique; font-size: 76px; font-family: 'DejaVu Sans'; fill: #262626">x</tspan>
      <tspan x="44.976562" y="12.03125" style="font-size: 53.2px; font-family: 'DejaVu Sans'; fill: #262626">3</tspan>
     </text>
    </g>
   </g>
  </g>
 </g>
 <defs>
  <clipPath id="p79a4f9868f">
   <rect x="29.912187" y="99.6" width="592.167813" height="321.2"/>
  </clipPath>
 </defs>
</svg>
