<?xml version="1.0" encoding="utf-8" standalone="no"?>
<!DOCTYPE svg PUBLIC "-//W3C//DTD SVG 1.1//EN"
  "http://www.w3.org/Graphics/SVG/1.1/DTD/svg11.dtd">
<svg xmlns:xlink="http://www.w3.org/1999/xlink" width="648pt" height="504pt" viewBox="0 0 648 504" xmlns="http://www.w3.org/2000/svg" version="1.1">
 <metadata>
  <rdf:RDF xmlns:dc="http://purl.org/dc/elements/1.1/" xmlns:cc="http://creativecommons.org/ns#" xmlns:rdf="http://www.w3.org/1999/02/22-rdf-syntax-ns#">
   <cc:Work>
    <dc:type rdf:resource="http://purl.org/dc/dcmitype/StillImage"/>
    <dc:date>2026-02-22T16:15:36.462425</dc:date>
    <dc:format>image/svg+xml</dc:format>
    <dc:creator>
     <cc:Agent>
      <dc:title>Matplotlib v3.10.6, https://matplotlib.org/</dc:title>
     </cc:Agent>
    </dc:creator>
   </cc:Work>
  </rdf:RDF>
 </metadata>
 <defs>
  <style type="text/css">*{stroke-linejoin: round; stroke-linecap: butt}</style>
 </defs>
 <g id="figure_1">
  <g id="patch_1">
   <path d="M 0 504 
L 648 504 
L 648 0 
L 0 0 
L 0 504 
z
" style="fill: none; opacity: 0"/>
  </g>
  <g id="axes_1">
   <g id="patch_2">
    <path d="M 25.92 420.8 
L 622.08 420.8 
L 622.08 116.616 
L 25.92 116.616 
L 25.92 420.8 
z
" style="fill: none"/>
   </g>
   <g id="matplotlib.axis_1">
    <g id="xtick_1">
     <g id="line2d_1">
      <path d="M 170.543524 420.8 
L 170.543524 116.616 
" clip-path="url(#pedc1e8b81d)" style="fill: none; stroke: #ffffff; stroke-opacity: 0.4; stroke-linecap: round"/>
     </g>
     <g id="line2d_2"/>
     <g id="text_1">
      <text style="font-size: 52px; font-family: 'DejaVu Serif', 'Times New Roman', serif; text-anchor: middle; fill: #262626" x="170.543524" y="467.311875" transform="rotate(-0 170.543524 467.311875)">−2.5</text>
     </g>
    </g>
    <g id="xtick_2">
     <g id="line2d_3">
      <path d="M 327.146422 420.8 
L 327.146422 116.616 
" clip-path="url(#pedc1e8b81d)" style="fill: none; stroke: #ffffff; stroke-opacity: 0.4; stroke-linecap: round"/>
     </g>
     <g id="line2d_4"/>
     <g id="text_2">
      <text style="font-size: 52px; font-family: 'DejaVu Serif', 'Times New Roman', serif; text-anchor: middle; fill: #262626" x="327.146422" y="467.311875" transform="rotate(-0 327.146422 467.311875)">0.0</text>
     </g>
    </g>
    <g id="xtick_3">
     <g id="line2d_5">
      <path d="M 483.74932 420.8 
L 483.74932 116.616 
" clip-path="url(#pedc1e8b81d)" style="fill: none; stroke: #ffffff; stroke-opacity: 0.4; stroke-linecap: round"/>
     </g>
     <g id="line2d_6"/>
     <g id="text_3">
      <text style="font-size: 52px; font-family: 'DejaVu Serif', 'Times New Roman', serif; text-anchor: middle; fill: #262626" x="483.74932" y="467.311875" transform="rotate(-0 483.74932 467.311875)">2.5</text>
     </g>
    </g>
   </g>
   <g id="matplotlib.axis_2">
    <g id="ytick_1">
     <g id="line2d_7">
      <path d="M 25.92 406.973455 
L 622.08 406.973455 
" clip-path="url(#pedc1e8b81d)" style="fill: none; stroke: #ffffff; stroke-opacity: 0.4; stroke-linecap: round"/>
     </g>
    </g>
    <g id="ytick_2">
     <g id="line2d_8">
      <path d="M 25.92 250.708492 
L 622.08 250.708492 
" clip-path="url(#pedc1e8b81d)" style="fill: none; stroke: #ffffff; stroke-opacity: 0.4; stroke-linecap: round"/>
     </g>
    </g>
   </g>
   <g id="FillBetweenPolyCollection_1">
    <defs>
     <path id="mb9c6a2e60d" d="M 53.018182 -97.026545 
L 53.018182 -98.193205 
L 54.078776 -98.189864 
L 55.13937 -98.17788 
L 56.199964 -98.162027 
L 57.260559 -98.140001 
L 58.321153 -98.11229 
L 59.381747 -98.079487 
L 60.442341 -98.044949 
L 61.502935 -98.004896 
L 62.56353 -97.962206 
L 63.624124 -97.917757 
L 64.684718 -97.872444 
L 65.745312 -97.827152 
L 66.805906 -97.782737 
L 67.866501 -97.740008 
L 68.927095 -97.699704 
L 69.987689 -97.662483 
L 71.048283 -97.628905 
L 72.108877 -97.599422 
L 73.169472 -97.577043 
L 74.230066 -97.55745 
L 75.29066 -97.542807 
L 76.351254 -97.533128 
L 77.411848 -97.530989 
L 78.472443 -97.534329 
L 79.533037 -97.540389 
L 80.593631 -97.55358 
L 81.654225 -97.56901 
L 82.714819 -97.588352 
L 83.775414 -97.609184 
L 84.836008 -97.638351 
L 85.896602 -97.668283 
L 86.957196 -97.703375 
L 88.01779 -97.741483 
L 89.078385 -97.779901 
L 90.138979 -97.823211 
L 91.199573 -97.867454 
L 92.260167 -97.915357 
L 93.320761 -97.96913 
L 94.381356 -98.026524 
L 95.44195 -98.090706 
L 96.502544 -98.1577 
L 97.563138 -98.227505 
L 98.623732 -98.305332 
L 99.684327 -98.387773 
L 100.744921 -98.482722 
L 101.805515 -98.583633 
L 102.866109 -98.690521 
L 103.926703 -98.808514 
L 104.987298 -98.933385 
L 106.047892 -99.07273 
L 107.108486 -99.225571 
L 108.16908 -99.387705 
L 109.229674 -99.5561 
L 110.290269 -99.73735 
L 111.350863 -99.929289 
L 112.411457 -100.131661 
L 113.472051 -100.344088 
L 114.532645 -100.563393 
L 115.59324 -100.79616 
L 116.653834 -101.035046 
L 117.714428 -101.278558 
L 118.775022 -101.538293 
L 119.835616 -101.797526 
L 120.896211 -102.066639 
L 121.956805 -102.338108 
L 123.017399 -102.613036 
L 124.077993 -102.885159 
L 125.138587 -103.162664 
L 126.199182 -103.445927 
L 127.259776 -103.725049 
L 128.32037 -103.998723 
L 129.380964 -104.275497 
L 130.441558 -104.547568 
L 131.502153 -104.816513 
L 132.562747 -105.084662 
L 133.623341 -105.357941 
L 134.683935 -105.630859 
L 135.744529 -105.896257 
L 136.805124 -106.156126 
L 137.865718 -106.422983 
L 138.926312 -106.699134 
L 139.986906 -106.966783 
L 141.0475 -107.245129 
L 142.108095 -107.526938 
L 143.168689 -107.815684 
L 144.229283 -108.104793 
L 145.289877 -108.409285 
L 146.350471 -108.724295 
L 147.411066 -109.050942 
L 148.47166 -109.400887 
L 149.532254 -109.746726 
L 150.592848 -110.112813 
L 151.653442 -110.500679 
L 152.714037 -110.907389 
L 153.774631 -111.329351 
L 154.835225 -111.758735 
L 155.895819 -112.218471 
L 156.956413 -112.691184 
L 158.017008 -113.186075 
L 159.077602 -113.695825 
L 160.138196 -114.225028 
L 161.19879 -114.753642 
L 162.259384 -115.316258 
L 163.319979 -115.886156 
L 164.380573 -116.471863 
L 165.441167 -117.075279 
L 166.501761 -117.697184 
L 167.562355 -118.328616 
L 168.62295 -118.973146 
L 169.683544 -119.646232 
L 170.744138 -120.333307 
L 171.804732 -121.05053 
L 172.865326 -121.77794 
L 173.925921 -122.527948 
L 174.986515 -123.315473 
L 176.047109 -124.133434 
L 177.107703 -124.974442 
L 178.168297 -125.840834 
L 179.228892 -126.741917 
L 180.289486 -127.669554 
L 181.35008 -128.63923 
L 182.410674 -129.628528 
L 183.471268 -130.664876 
L 184.531863 -131.72262 
L 185.592457 -132.82218 
L 186.653051 -133.962571 
L 187.713645 -135.141051 
L 188.774239 -136.337019 
L 189.834834 -137.577017 
L 190.895428 -138.865871 
L 191.956022 -140.165861 
L 193.016616 -141.518409 
L 194.07721 -142.917004 
L 195.137805 -144.332515 
L 196.198399 -145.778462 
L 197.258993 -147.271251 
L 198.319587 -148.788328 
L 199.380181 -150.341374 
L 200.440776 -151.918422 
L 201.50137 -153.569472 
L 202.561964 -155.220541 
L 203.622558 -156.907633 
L 204.683152 -158.63876 
L 205.743747 -160.384097 
L 206.804341 -162.150161 
L 207.864935 -163.955953 
L 208.925529 -165.7721 
L 209.986123 -167.599892 
L 211.046718 -169.43798 
L 212.107312 -171.310879 
L 213.167906 -173.176945 
L 214.2285 -175.042872 
L 215.289094 -176.875726 
L 216.349689 -178.732925 
L 217.410283 -180.574021 
L 218.470877 -182.393102 
L 219.531471 -184.200385 
L 220.592065 -185.982861 
L 221.65266 -187.756604 
L 222.713254 -189.500181 
L 223.773848 -191.224115 
L 224.834442 -192.924237 
L 225.895036 -194.625342 
L 226.955631 -196.298036 
L 228.016225 -197.945799 
L 229.076819 -199.600899 
L 230.137413 -201.249075 
L 231.198007 -202.926356 
L 232.258602 -204.581038 
L 233.319196 -206.273963 
L 234.37979 -207.980946 
L 235.440384 -209.724403 
L 236.500978 -211.502028 
L 237.561573 -213.323795 
L 238.622167 -215.223476 
L 239.682761 -217.182503 
L 240.743355 -219.208439 
L 241.803949 -221.310803 
L 242.864544 -223.47649 
L 243.925138 -225.734374 
L 244.985732 -228.078257 
L 246.046326 -230.493161 
L 247.10692 -232.956673 
L 248.167515 -235.50783 
L 249.228109 -238.127866 
L 250.288703 -240.824422 
L 251.349297 -243.551006 
L 252.409891 -246.33333 
L 253.470486 -249.120255 
L 254.53108 -251.936546 
L 255.591674 -254.77295 
L 256.652268 -257.585226 
L 257.712862 -260.368906 
L 258.773457 -263.157782 
L 259.834051 -265.871572 
L 260.894645 -268.556971 
L 261.955239 -271.17822 
L 263.015833 -273.74032 
L 264.076428 -276.251617 
L 265.137022 -278.704797 
L 266.197616 -281.07751 
L 267.25821 -283.398191 
L 268.318804 -285.681548 
L 269.379399 -287.919311 
L 270.439993 -290.104312 
L 271.500587 -292.272477 
L 272.561181 -294.469443 
L 273.621775 -296.624861 
L 274.68237 -298.810252 
L 275.742964 -301.033824 
L 276.803558 -303.26588 
L 277.864152 -305.507245 
L 278.924746 -307.824254 
L 279.985341 -310.21763 
L 281.045935 -312.635065 
L 282.106529 -315.131799 
L 283.167123 -317.693147 
L 284.227717 -320.256643 
L 285.288312 -322.874237 
L 286.348906 -325.515286 
L 287.4095 -328.225128 
L 288.470094 -330.908754 
L 289.530688 -333.61084 
L 290.591283 -336.282215 
L 291.651877 -338.976042 
L 292.712471 -341.60379 
L 293.773065 -344.188137 
L 294.833659 -346.704496 
L 295.894254 -349.13268 
L 296.954848 -351.488672 
L 298.015442 -353.727129 
L 299.076036 -355.899136 
L 300.13663 -357.930767 
L 301.197225 -359.842989 
L 302.257819 -361.62088 
L 303.318413 -363.289801 
L 304.379007 -364.841291 
L 305.439601 -366.24942 
L 306.500196 -367.515065 
L 307.56079 -368.612795 
L 308.621384 -369.644707 
L 309.681978 -370.529987 
L 310.742572 -371.294829 
L 311.803167 -371.933882 
L 312.863761 -372.463837 
L 313.924355 -372.886102 
L 314.984949 -373.161193 
L 316.045543 -373.381081 
L 317.106138 -373.520349 
L 318.166732 -373.557455 
L 319.227326 -373.537587 
L 320.28792 -373.476393 
L 321.348514 -373.373807 
L 322.409109 -373.213467 
L 323.469703 -373.046026 
L 324.530297 -372.858359 
L 325.590891 -372.699019 
L 326.651486 -372.50836 
L 327.71208 -372.317228 
L 328.772674 -372.135692 
L 329.833268 -372.009155 
L 330.893862 -371.884645 
L 331.954457 -371.796068 
L 333.015051 -371.719955 
L 334.075645 -371.683506 
L 335.136239 -371.636401 
L 336.196833 -371.584793 
L 337.257428 -371.532209 
L 338.318022 -371.441554 
L 339.378616 -371.305337 
L 340.43921 -371.093154 
L 341.499804 -370.863349 
L 342.560399 -370.521881 
L 343.620993 -370.080051 
L 344.681587 -369.528072 
L 345.742181 -368.844054 
L 346.802775 -368.028714 
L 347.86337 -367.062869 
L 348.923964 -365.913907 
L 349.984558 -364.634964 
L 351.045152 -363.16479 
L 352.105746 -361.555135 
L 353.166341 -359.788894 
L 354.226935 -357.821316 
L 355.287529 -355.70032 
L 356.348123 -353.408721 
L 357.408717 -350.987318 
L 358.469312 -348.420532 
L 359.529906 -345.715666 
L 360.5905 -342.931831 
L 361.651094 -340.044159 
L 362.711688 -337.056887 
L 363.772283 -333.949294 
L 364.832877 -330.799897 
L 365.893471 -327.623915 
L 366.954065 -324.410787 
L 368.014659 -321.142564 
L 369.075254 -317.877476 
L 370.135848 -314.620502 
L 371.196442 -311.416626 
L 372.257036 -308.23527 
L 373.31763 -305.103297 
L 374.378225 -302.033063 
L 375.438819 -299.016142 
L 376.499413 -296.128805 
L 377.560007 -293.340538 
L 378.620601 -290.659621 
L 379.681196 -288.081796 
L 380.74179 -285.612157 
L 381.802384 -283.235856 
L 382.862978 -281.008198 
L 383.923572 -278.920439 
L 384.984167 -276.891188 
L 386.044761 -274.975363 
L 387.105355 -273.163739 
L 388.165949 -271.433363 
L 389.226543 -269.800518 
L 390.287138 -268.226408 
L 391.347732 -266.696593 
L 392.408326 -265.183708 
L 393.46892 -263.682151 
L 394.529514 -262.228625 
L 395.590109 -260.766953 
L 396.650703 -259.269003 
L 397.711297 -257.748655 
L 398.771891 -256.203405 
L 399.832485 -254.635341 
L 400.89308 -252.997588 
L 401.953674 -251.293398 
L 403.014268 -249.574835 
L 404.074862 -247.819951 
L 405.135456 -245.98825 
L 406.196051 -244.110406 
L 407.256645 -242.166793 
L 408.317239 -240.160273 
L 409.377833 -238.124469 
L 410.438427 -236.032243 
L 411.499022 -233.892852 
L 412.559616 -231.738146 
L 413.62021 -229.532998 
L 414.680804 -227.315256 
L 415.741398 -225.065089 
L 416.801993 -222.812752 
L 417.862587 -220.506938 
L 418.923181 -218.231811 
L 419.983775 -215.93786 
L 421.044369 -213.667066 
L 422.104964 -211.396897 
L 423.165558 -209.145273 
L 424.226152 -206.907962 
L 425.286746 -204.69797 
L 426.34734 -202.511084 
L 427.407935 -200.368479 
L 428.468529 -198.223847 
L 429.529123 -196.145877 
L 430.589717 -194.143372 
L 431.650311 -192.163893 
L 432.710906 -190.228666 
L 433.7715 -188.338631 
L 434.832094 -186.495391 
L 435.892688 -184.708045 
L 436.953282 -182.963006 
L 438.013877 -181.259488 
L 439.074471 -179.602551 
L 440.135065 -177.999377 
L 441.195659 -176.436325 
L 442.256253 -174.885561 
L 443.316848 -173.395534 
L 444.377442 -171.938617 
L 445.438036 -170.525345 
L 446.49863 -169.132687 
L 447.559224 -167.760416 
L 448.619819 -166.428597 
L 449.680413 -165.117723 
L 450.741007 -163.839922 
L 451.801601 -162.584953 
L 452.862195 -161.340987 
L 453.92279 -160.117418 
L 454.983384 -158.918216 
L 456.043978 -157.740834 
L 457.104572 -156.583556 
L 458.165166 -155.461251 
L 459.225761 -154.339561 
L 460.286355 -153.221369 
L 461.346949 -152.118601 
L 462.407543 -151.031404 
L 463.468137 -149.952207 
L 464.528732 -148.882936 
L 465.589326 -147.791875 
L 466.64992 -146.722741 
L 467.710514 -145.667407 
L 468.771108 -144.602907 
L 469.831703 -143.556649 
L 470.892297 -142.483859 
L 471.952891 -141.412646 
L 473.013485 -140.333923 
L 474.074079 -139.247304 
L 475.134674 -138.170707 
L 476.195268 -137.066332 
L 477.255862 -135.9519 
L 478.316456 -134.828903 
L 479.37705 -133.681328 
L 480.437645 -132.529101 
L 481.498239 -131.377887 
L 482.558833 -130.206391 
L 483.619427 -129.052316 
L 484.680021 -127.8722 
L 485.740616 -126.706925 
L 486.80121 -125.535536 
L 487.861804 -124.391125 
L 488.922398 -123.265269 
L 489.982992 -122.150551 
L 491.043587 -121.062367 
L 492.104181 -120.00128 
L 493.164775 -118.967356 
L 494.225369 -117.976536 
L 495.285963 -117.023034 
L 496.346558 -116.114892 
L 497.407152 -115.244628 
L 498.467746 -114.430361 
L 499.52834 -113.672634 
L 500.588934 -112.969738 
L 501.649529 -112.315491 
L 502.710123 -111.705095 
L 503.770717 -111.147133 
L 504.831311 -110.629886 
L 505.891905 -110.157148 
L 506.9525 -109.708933 
L 508.013094 -109.309828 
L 509.073688 -108.934764 
L 510.134282 -108.594297 
L 511.194876 -108.275819 
L 512.255471 -107.974563 
L 513.316065 -107.687574 
L 514.376659 -107.419138 
L 515.437253 -107.171398 
L 516.497847 -106.922404 
L 517.558442 -106.686708 
L 518.619036 -106.454172 
L 519.67963 -106.216222 
L 520.740224 -105.984995 
L 521.800818 -105.741117 
L 522.861413 -105.504495 
L 523.922007 -105.26651 
L 524.982601 -105.031105 
L 526.043195 -104.786172 
L 527.103789 -104.53288 
L 528.164384 -104.279061 
L 529.224978 -104.024903 
L 530.285572 -103.771537 
L 531.346166 -103.51973 
L 532.40676 -103.263708 
L 533.467355 -103.012149 
L 534.527949 -102.765845 
L 535.588543 -102.519555 
L 536.649137 -102.279716 
L 537.709731 -102.051388 
L 538.770326 -101.824273 
L 539.83092 -101.608953 
L 540.891514 -101.405332 
L 541.952108 -101.213291 
L 543.012702 -101.028583 
L 544.073297 -100.849912 
L 545.133891 -100.691041 
L 546.194485 -100.533264 
L 547.255079 -100.392119 
L 548.315673 -100.255248 
L 549.376268 -100.131371 
L 550.436862 -100.014665 
L 551.497456 -99.900489 
L 552.55805 -99.795299 
L 553.618644 -99.693614 
L 554.679239 -99.599229 
L 555.739833 -99.510785 
L 556.800427 -99.423029 
L 557.861021 -99.342683 
L 558.921615 -99.262732 
L 559.98221 -99.178788 
L 561.042804 -99.103695 
L 562.103398 -99.027353 
L 563.163992 -98.952321 
L 564.224586 -98.874521 
L 565.285181 -98.801139 
L 566.345775 -98.733661 
L 567.406369 -98.663137 
L 568.466963 -98.599181 
L 569.527557 -98.53699 
L 570.588152 -98.477089 
L 571.648746 -98.422645 
L 572.70934 -98.36957 
L 573.769934 -98.31829 
L 574.830528 -98.273725 
L 575.891123 -98.233505 
L 576.951717 -98.197841 
L 578.012311 -98.160743 
L 579.072905 -98.135917 
L 580.133499 -98.113299 
L 581.194094 -98.097332 
L 582.254688 -98.085138 
L 583.315282 -98.076416 
L 584.375876 -98.070774 
L 585.43647 -98.067748 
L 586.497065 -98.06949 
L 587.557659 -98.068872 
L 588.618253 -98.071947 
L 589.678847 -98.075524 
L 590.739441 -98.077061 
L 591.800036 -98.08332 
L 592.86063 -98.089356 
L 593.921224 -98.090312 
L 594.981818 -98.092567 
L 594.981818 -97.026545 
L 594.981818 -97.026545 
L 593.921224 -97.026545 
L 592.86063 -97.026545 
L 591.800036 -97.026545 
L 590.739441 -97.026545 
L 589.678847 -97.026545 
L 588.618253 -97.026545 
L 587.557659 -97.026545 
L 586.497065 -97.026545 
L 585.43647 -97.026545 
L 584.375876 -97.026545 
L 583.315282 -97.026545 
L 582.254688 -97.026545 
L 581.194094 -97.026545 
L 580.133499 -97.026545 
L 579.072905 -97.026545 
L 578.012311 -97.026545 
L 576.951717 -97.026545 
L 575.891123 -97.026545 
L 574.830528 -97.026545 
L 573.769934 -97.026545 
L 572.70934 -97.026545 
L 571.648746 -97.026545 
L 570.588152 -97.026545 
L 569.527557 -97.026545 
L 568.466963 -97.026545 
L 567.406369 -97.026545 
L 566.345775 -97.026545 
L 565.285181 -97.026545 
L 564.224586 -97.026545 
L 563.163992 -97.026545 
L 562.103398 -97.026545 
L 561.042804 -97.026545 
L 559.98221 -97.026545 
L 558.921615 -97.026545 
L 557.861021 -97.026545 
L 556.800427 -97.026545 
L 555.739833 -97.026545 
L 554.679239 -97.026545 
L 553.618644 -97.026545 
L 552.55805 -97.026545 
L 551.497456 -97.026545 
L 550.436862 -97.026545 
L 549.376268 -97.026545 
L 548.315673 -97.026545 
L 547.255079 -97.026545 
L 546.194485 -97.026545 
L 545.133891 -97.026545 
L 544.073297 -97.026545 
L 543.012702 -97.026545 
L 541.952108 -97.026545 
L 540.891514 -97.026545 
L 539.83092 -97.026545 
L 538.770326 -97.026545 
L 537.709731 -97.026545 
L 536.649137 -97.026545 
L 535.588543 -97.026545 
L 534.527949 -97.026545 
L 533.467355 -97.026545 
L 532.40676 -97.026545 
L 531.346166 -97.026545 
L 530.285572 -97.026545 
L 529.224978 -97.026545 
L 528.164384 -97.026545 
L 527.103789 -97.026545 
L 526.043195 -97.026545 
L 524.982601 -97.026545 
L 523.922007 -97.026545 
L 522.861413 -97.026545 
L 521.800818 -97.026545 
L 520.740224 -97.026545 
L 519.67963 -97.026545 
L 518.619036 -97.026545 
L 517.558442 -97.026545 
L 516.497847 -97.026545 
L 515.437253 -97.026545 
L 514.376659 -97.026545 
L 513.316065 -97.026545 
L 512.255471 -97.026545 
L 511.194876 -97.026545 
L 510.134282 -97.026545 
L 509.073688 -97.026545 
L 508.013094 -97.026545 
L 506.9525 -97.026545 
L 505.891905 -97.026545 
L 504.831311 -97.026545 
L 503.770717 -97.026545 
L 502.710123 -97.026545 
L 501.649529 -97.026545 
L 500.588934 -97.026545 
L 499.52834 -97.026545 
L 498.467746 -97.026545 
L 497.407152 -97.026545 
L 496.346558 -97.026545 
L 495.285963 -97.026545 
L 494.225369 -97.026545 
L 493.164775 -97.026545 
L 492.104181 -97.026545 
L 491.043587 -97.026545 
L 489.982992 -97.026545 
L 488.922398 -97.026545 
L 487.861804 -97.026545 
L 486.80121 -97.026545 
L 485.740616 -97.026545 
L 484.680021 -97.026545 
L 483.619427 -97.026545 
L 482.558833 -97.026545 
L 481.498239 -97.026545 
L 480.437645 -97.026545 
L 479.37705 -97.026545 
L 478.316456 -97.026545 
L 477.255862 -97.026545 
L 476.195268 -97.026545 
L 475.134674 -97.026545 
L 474.074079 -97.026545 
L 473.013485 -97.026545 
L 471.952891 -97.026545 
L 470.892297 -97.026545 
L 469.831703 -97.026545 
L 468.771108 -97.026545 
L 467.710514 -97.026545 
L 466.64992 -97.026545 
L 465.589326 -97.026545 
L 464.528732 -97.026545 
L 463.468137 -97.026545 
L 462.407543 -97.026545 
L 461.346949 -97.026545 
L 460.286355 -97.026545 
L 459.225761 -97.026545 
L 458.165166 -97.026545 
L 457.104572 -97.026545 
L 456.043978 -97.026545 
L 454.983384 -97.026545 
L 453.92279 -97.026545 
L 452.862195 -97.026545 
L 451.801601 -97.026545 
L 450.741007 -97.026545 
L 449.680413 -97.026545 
L 448.619819 -97.026545 
L 447.559224 -97.026545 
L 446.49863 -97.026545 
L 445.438036 -97.026545 
L 444.377442 -97.026545 
L 443.316848 -97.026545 
L 442.256253 -97.026545 
L 441.195659 -97.026545 
L 440.135065 -97.026545 
L 439.074471 -97.026545 
L 438.013877 -97.026545 
L 436.953282 -97.026545 
L 435.892688 -97.026545 
L 434.832094 -97.026545 
L 433.7715 -97.026545 
L 432.710906 -97.026545 
L 431.650311 -97.026545 
L 430.589717 -97.026545 
L 429.529123 -97.026545 
L 428.468529 -97.026545 
L 427.407935 -97.026545 
L 426.34734 -97.026545 
L 425.286746 -97.026545 
L 424.226152 -97.026545 
L 423.165558 -97.026545 
L 422.104964 -97.026545 
L 421.044369 -97.026545 
L 419.983775 -97.026545 
L 418.923181 -97.026545 
L 417.862587 -97.026545 
L 416.801993 -97.026545 
L 415.741398 -97.026545 
L 414.680804 -97.026545 
L 413.62021 -97.026545 
L 412.559616 -97.026545 
L 411.499022 -97.026545 
L 410.438427 -97.026545 
L 409.377833 -97.026545 
L 408.317239 -97.026545 
L 407.256645 -97.026545 
L 406.196051 -97.026545 
L 405.135456 -97.026545 
L 404.074862 -97.026545 
L 403.014268 -97.026545 
L 401.953674 -97.026545 
L 400.89308 -97.026545 
L 399.832485 -97.026545 
L 398.771891 -97.026545 
L 397.711297 -97.026545 
L 396.650703 -97.026545 
L 395.590109 -97.026545 
L 394.529514 -97.026545 
L 393.46892 -97.026545 
L 392.408326 -97.026545 
L 391.347732 -97.026545 
L 390.287138 -97.026545 
L 389.226543 -97.026545 
L 388.165949 -97.026545 
L 387.105355 -97.026545 
L 386.044761 -97.026545 
L 384.984167 -97.026545 
L 383.923572 -97.026545 
L 382.862978 -97.026545 
L 381.802384 -97.026545 
L 380.74179 -97.026545 
L 379.681196 -97.026545 
L 378.620601 -97.026545 
L 377.560007 -97.026545 
L 376.499413 -97.026545 
L 375.438819 -97.026545 
L 374.378225 -97.026545 
L 373.31763 -97.026545 
L 372.257036 -97.026545 
L 371.196442 -97.026545 
L 370.135848 -97.026545 
L 369.075254 -97.026545 
L 368.014659 -97.026545 
L 366.954065 -97.026545 
L 365.893471 -97.026545 
L 364.832877 -97.026545 
L 363.772283 -97.026545 
L 362.711688 -97.026545 
L 361.651094 -97.026545 
L 360.5905 -97.026545 
L 359.529906 -97.026545 
L 358.469312 -97.026545 
L 357.408717 -97.026545 
L 356.348123 -97.026545 
L 355.287529 -97.026545 
L 354.226935 -97.026545 
L 353.166341 -97.026545 
L 352.105746 -97.026545 
L 351.045152 -97.026545 
L 349.984558 -97.026545 
L 348.923964 -97.026545 
L 347.86337 -97.026545 
L 346.802775 -97.026545 
L 345.742181 -97.026545 
L 344.681587 -97.026545 
L 343.620993 -97.026545 
L 342.560399 -97.026545 
L 341.499804 -97.026545 
L 340.43921 -97.026545 
L 339.378616 -97.026545 
L 338.318022 -97.026545 
L 337.257428 -97.026545 
L 336.196833 -97.026545 
L 335.136239 -97.026545 
L 334.075645 -97.026545 
L 333.015051 -97.026545 
L 331.954457 -97.026545 
L 330.893862 -97.026545 
L 329.833268 -97.026545 
L 328.772674 -97.026545 
L 327.71208 -97.026545 
L 326.651486 -97.026545 
L 325.590891 -97.026545 
L 324.530297 -97.026545 
L 323.469703 -97.026545 
L 322.409109 -97.026545 
L 321.348514 -97.026545 
L 320.28792 -97.026545 
L 319.227326 -97.026545 
L 318.166732 -97.026545 
L 317.106138 -97.026545 
L 316.045543 -97.026545 
L 314.984949 -97.026545 
L 313.924355 -97.026545 
L 312.863761 -97.026545 
L 311.803167 -97.026545 
L 310.742572 -97.026545 
L 309.681978 -97.026545 
L 308.621384 -97.026545 
L 307.56079 -97.026545 
L 306.500196 -97.026545 
L 305.439601 -97.026545 
L 304.379007 -97.026545 
L 303.318413 -97.026545 
L 302.257819 -97.026545 
L 301.197225 -97.026545 
L 300.13663 -97.026545 
L 299.076036 -97.026545 
L 298.015442 -97.026545 
L 296.954848 -97.026545 
L 295.894254 -97.026545 
L 294.833659 -97.026545 
L 293.773065 -97.026545 
L 292.712471 -97.026545 
L 291.651877 -97.026545 
L 290.591283 -97.026545 
L 289.530688 -97.026545 
L 288.470094 -97.026545 
L 287.4095 -97.026545 
L 286.348906 -97.026545 
L 285.288312 -97.026545 
L 284.227717 -97.026545 
L 283.167123 -97.026545 
L 282.106529 -97.026545 
L 281.045935 -97.026545 
L 279.985341 -97.026545 
L 278.924746 -97.026545 
L 277.864152 -97.026545 
L 276.803558 -97.026545 
L 275.742964 -97.026545 
L 274.68237 -97.026545 
L 273.621775 -97.026545 
L 272.561181 -97.026545 
L 271.500587 -97.026545 
L 270.439993 -97.026545 
L 269.379399 -97.026545 
L 268.318804 -97.026545 
L 267.25821 -97.026545 
L 266.197616 -97.026545 
L 265.137022 -97.026545 
L 264.076428 -97.026545 
L 263.015833 -97.026545 
L 261.955239 -97.026545 
L 260.894645 -97.026545 
L 259.834051 -97.026545 
L 258.773457 -97.026545 
L 257.712862 -97.026545 
L 256.652268 -97.026545 
L 255.591674 -97.026545 
L 254.53108 -97.026545 
L 253.470486 -97.026545 
L 252.409891 -97.026545 
L 251.349297 -97.026545 
L 250.288703 -97.026545 
L 249.228109 -97.026545 
L 248.167515 -97.026545 
L 247.10692 -97.026545 
L 246.046326 -97.026545 
L 244.985732 -97.026545 
L 243.925138 -97.026545 
L 242.864544 -97.026545 
L 241.803949 -97.026545 
L 240.743355 -97.026545 
L 239.682761 -97.026545 
L 238.622167 -97.026545 
L 237.561573 -97.026545 
L 236.500978 -97.026545 
L 235.440384 -97.026545 
L 234.37979 -97.026545 
L 233.319196 -97.026545 
L 232.258602 -97.026545 
L 231.198007 -97.026545 
L 230.137413 -97.026545 
L 229.076819 -97.026545 
L 228.016225 -97.026545 
L 226.955631 -97.026545 
L 225.895036 -97.026545 
L 224.834442 -97.026545 
L 223.773848 -97.026545 
L 222.713254 -97.026545 
L 221.65266 -97.026545 
L 220.592065 -97.026545 
L 219.531471 -97.026545 
L 218.470877 -97.026545 
L 217.410283 -97.026545 
L 216.349689 -97.026545 
L 215.289094 -97.026545 
L 214.2285 -97.026545 
L 213.167906 -97.026545 
L 212.107312 -97.026545 
L 211.046718 -97.026545 
L 209.986123 -97.026545 
L 208.925529 -97.026545 
L 207.864935 -97.026545 
L 206.804341 -97.026545 
L 205.743747 -97.026545 
L 204.683152 -97.026545 
L 203.622558 -97.026545 
L 202.561964 -97.026545 
L 201.50137 -97.026545 
L 200.440776 -97.026545 
L 199.380181 -97.026545 
L 198.319587 -97.026545 
L 197.258993 -97.026545 
L 196.198399 -97.026545 
L 195.137805 -97.026545 
L 194.07721 -97.026545 
L 193.016616 -97.026545 
L 191.956022 -97.026545 
L 190.895428 -97.026545 
L 189.834834 -97.026545 
L 188.774239 -97.026545 
L 187.713645 -97.026545 
L 186.653051 -97.026545 
L 185.592457 -97.026545 
L 184.531863 -97.026545 
L 183.471268 -97.026545 
L 182.410674 -97.026545 
L 181.35008 -97.026545 
L 180.289486 -97.026545 
L 179.228892 -97.026545 
L 178.168297 -97.026545 
L 177.107703 -97.026545 
L 176.047109 -97.026545 
L 174.986515 -97.026545 
L 173.925921 -97.026545 
L 172.865326 -97.026545 
L 171.804732 -97.026545 
L 170.744138 -97.026545 
L 169.683544 -97.026545 
L 168.62295 -97.026545 
L 167.562355 -97.026545 
L 166.501761 -97.026545 
L 165.441167 -97.026545 
L 164.380573 -97.026545 
L 163.319979 -97.026545 
L 162.259384 -97.026545 
L 161.19879 -97.026545 
L 160.138196 -97.026545 
L 159.077602 -97.026545 
L 158.017008 -97.026545 
L 156.956413 -97.026545 
L 155.895819 -97.026545 
L 154.835225 -97.026545 
L 153.774631 -97.026545 
L 152.714037 -97.026545 
L 151.653442 -97.026545 
L 150.592848 -97.026545 
L 149.532254 -97.026545 
L 148.47166 -97.026545 
L 147.411066 -97.026545 
L 146.350471 -97.026545 
L 145.289877 -97.026545 
L 144.229283 -97.026545 
L 143.168689 -97.026545 
L 142.108095 -97.026545 
L 141.0475 -97.026545 
L 139.986906 -97.026545 
L 138.926312 -97.026545 
L 137.865718 -97.026545 
L 136.805124 -97.026545 
L 135.744529 -97.026545 
L 134.683935 -97.026545 
L 133.623341 -97.026545 
L 132.562747 -97.026545 
L 131.502153 -97.026545 
L 130.441558 -97.026545 
L 129.380964 -97.026545 
L 128.32037 -97.026545 
L 127.259776 -97.026545 
L 126.199182 -97.026545 
L 125.138587 -97.026545 
L 124.077993 -97.026545 
L 123.017399 -97.026545 
L 121.956805 -97.026545 
L 120.896211 -97.026545 
L 119.835616 -97.026545 
L 118.775022 -97.026545 
L 117.714428 -97.026545 
L 116.653834 -97.026545 
L 115.59324 -97.026545 
L 114.532645 -97.026545 
L 113.472051 -97.026545 
L 112.411457 -97.026545 
L 111.350863 -97.026545 
L 110.290269 -97.026545 
L 109.229674 -97.026545 
L 108.16908 -97.026545 
L 107.108486 -97.026545 
L 106.047892 -97.026545 
L 104.987298 -97.026545 
L 103.926703 -97.026545 
L 102.866109 -97.026545 
L 101.805515 -97.026545 
L 100.744921 -97.026545 
L 99.684327 -97.026545 
L 98.623732 -97.026545 
L 97.563138 -97.026545 
L 96.502544 -97.026545 
L 95.44195 -97.026545 
L 94.381356 -97.026545 
L 93.320761 -97.026545 
L 92.260167 -97.026545 
L 91.199573 -97.026545 
L 90.138979 -97.026545 
L 89.078385 -97.026545 
L 88.01779 -97.026545 
L 86.957196 -97.026545 
L 85.896602 -97.026545 
L 84.836008 -97.026545 
L 83.775414 -97.026545 
L 82.714819 -97.026545 
L 81.654225 -97.026545 
L 80.593631 -97.026545 
L 79.533037 -97.026545 
L 78.472443 -97.026545 
L 77.411848 -97.026545 
L 76.351254 -97.026545 
L 75.29066 -97.026545 
L 74.230066 -97.026545 
L 73.169472 -97.026545 
L 72.108877 -97.026545 
L 71.048283 -97.026545 
L 69.987689 -97.026545 
L 68.927095 -97.026545 
L 67.866501 -97.026545 
L 66.805906 -97.026545 
L 65.745312 -97.026545 
L 64.684718 -97.026545 
L 63.624124 -97.026545 
L 62.56353 -97.026545 
L 61.502935 -97.026545 
L 60.442341 -97.026545 
L 59.381747 -97.026545 
L 58.321153 -97.026545 
L 57.260559 -97.026545 
L 56.199964 -97.026545 
L 55.13937 -97.026545 
L 54.078776 -97.026545 
L 53.018182 -97.026545 
z
"/>
    </defs>
    <g clip-path="url(#pedc1e8b81d)">
     <use xlink:href="#mb9c6a2e60d" x="0" y="504" style="fill: #d62728; fill-opacity: 0.35"/>
    </g>
   </g>
   <g id="line2d_9">
    <path d="M 53.018182 405.806795 
L 59.381747 405.920513 
L 78.472443 406.465671 
L 85.896602 406.331717 
L 95.44195 405.909294 
L 101.805515 405.416367 
L 107.108486 404.774429 
L 112.411457 403.868339 
L 117.714428 402.721442 
L 127.259776 400.274951 
L 146.350471 395.275705 
L 150.592848 393.887187 
L 154.835225 392.241265 
L 159.077602 390.304175 
L 163.319979 388.113844 
L 167.562355 385.671384 
L 170.744138 383.666693 
L 174.986515 380.684527 
L 178.168297 378.159166 
L 181.35008 375.36077 
L 184.531863 372.27738 
L 187.713645 368.858949 
L 190.895428 365.134129 
L 194.07721 361.082996 
L 197.258993 356.728749 
L 200.440776 352.081578 
L 204.683152 345.36124 
L 208.925529 338.2279 
L 223.773848 312.775885 
L 231.198007 301.073644 
L 235.440384 294.275597 
L 238.622167 288.776524 
L 241.803949 282.689197 
L 243.925138 278.265626 
L 247.10692 271.043327 
L 250.288703 263.175578 
L 254.53108 252.063454 
L 259.834051 238.128428 
L 263.015833 230.25968 
L 266.197616 222.92249 
L 270.439993 213.895688 
L 277.864152 198.492755 
L 281.045935 191.364935 
L 285.288312 181.125763 
L 295.894254 154.86732 
L 298.015442 150.272871 
L 300.13663 146.069233 
L 302.257819 142.37912 
L 304.379007 139.158709 
L 306.500196 136.484935 
L 308.621384 134.355293 
L 310.742572 132.705171 
L 312.863761 131.536163 
L 313.924355 131.113898 
L 316.045543 130.618919 
L 318.166732 130.442545 
L 320.28792 130.523607 
L 322.409109 130.786533 
L 331.954457 132.203932 
L 336.196833 132.415207 
L 338.318022 132.558446 
L 340.43921 132.906846 
L 342.560399 133.478119 
L 344.681587 134.471928 
L 346.802775 135.971286 
L 347.86337 136.937131 
L 349.984558 139.365036 
L 352.105746 142.444865 
L 354.226935 146.178684 
L 356.348123 150.591279 
L 358.469312 155.579468 
L 361.651094 163.955841 
L 364.832877 173.200103 
L 376.499413 207.871195 
L 378.620601 213.340379 
L 380.74179 218.387843 
L 382.862978 222.991802 
L 386.044761 229.024637 
L 388.165949 232.566637 
L 391.347732 237.303407 
L 400.89308 251.002412 
L 405.135456 258.01175 
L 408.317239 263.839727 
L 411.499022 270.107148 
L 415.741398 278.934911 
L 428.468529 305.776153 
L 431.650311 311.836107 
L 434.832094 317.504609 
L 438.013877 322.740512 
L 441.195659 327.563675 
L 444.377442 332.061383 
L 448.619819 337.571403 
L 452.862195 342.659013 
L 457.104572 347.416444 
L 464.528732 355.117064 
L 470.892297 361.516141 
L 478.316456 369.171097 
L 492.104181 383.99872 
L 495.285963 386.976966 
L 498.467746 389.569639 
L 500.588934 391.030262 
L 502.710123 392.294905 
L 504.831311 393.370114 
L 508.013094 394.690172 
L 511.194876 395.724181 
L 515.437253 396.828602 
L 537.709731 401.948612 
L 543.012702 402.971417 
L 547.255079 403.607881 
L 552.55805 404.204701 
L 559.98221 404.821212 
L 572.70934 405.63043 
L 580.133499 405.886701 
L 589.678847 405.924476 
L 594.981818 405.907433 
L 594.981818 405.907433 
" clip-path="url(#pedc1e8b81d)" style="fill: none; stroke: #d62728; stroke-width: 1.5; stroke-linecap: round"/>
   </g>
   <g id="line2d_10">
    <path d="M 211.957021 401.166305 
L 448.304525 401.166305 
" clip-path="url(#pedc1e8b81d)" style="fill: none; stroke: #d62728; stroke-width: 3.5; stroke-linecap: round"/>
   </g>
   <g id="patch_3">
    <path d="M 25.92 420.8 
L 622.08 420.8 
" style="fill: none; stroke: #333333; stroke-width: 1.5; stroke-linejoin: miter; stroke-linecap: square"/>
   </g>
   <g id="text_4">
    <!-- $x_3^3$ -->
    <g style="fill: #262626" transform="translate(281.82 94.576)">
     <text>
      <tspan x="0" y="-0.421875" style="font-style: oblique; font-size: 76px; font-family: 'DejaVu Sans'; fill: #262626">x</tspan>
      <tspan x="44.976562" y="20.359375" style="font-size: 53.2px; font-family: 'DejaVu Sans'; fill: #262626">3</tspan>
      <tspan x="48.370833" y="-29.515625" style="font-size: 53.2px; font-family: 'DejaVu Sans'; fill: #262626">3</tspan>
     </text>
    </g>
   </g>
  </g>
 </g>
 <defs>
  <clipPath id="pedc1e8b81d">
   <rect x="25.92" y="116.616" width="596.16" height="304.184"/>
  </clipPath>
 </defs>
</svg>
