<?xml version="1.0" encoding="utf-8" standalone="no"?>
<!DOCTYPE svg PUBLIC "-//W3C//DTD SVG 1.1//EN"
  "http://www.w3.org/Graphics/SVG/1.1/DTD/svg11.dtd">
<svg xmlns:xlink="http://www.w3.org/1999/xlink" width="864pt" height="864pt" viewBox="0 0 864 864" xmlns="http://www.w3.org/2000/svg" version="1.1">
 <metadata>
  <rdf:RDF xmlns:dc="http://purl.org/dc/elements/1.1/" xmlns:cc="http://creativecommons.org/ns#" xmlns:rdf="http://www.w3.org/1999/02/22-rdf-syntax-ns#">
   <cc:Work>
    <dc:type rdf:resource="http://purl.org/dc/dcmitype/StillImage"/>
    <dc:date>2026-03-13T22:48:05.793741</dc:date>
    <dc:format>image/svg+xml</dc:format>
    <dc:creator>
     <cc:Agent>
      <dc:title>Matplotlib v3.10.6, https://matplotlib.org/</dc:title>
     </cc:Agent>
    </dc:creator>
   </cc:Work>
  </rdf:RDF>
 </metadata>
 <defs>
  <style type="text/css">*{stroke-linejoin: round; stroke-linecap: butt}</style>
 </defs>
 <g id="figure_1">
  <g id="patch_1">
   <path d="M 0 864 
L 864 864 
L 864 0 
L 0 0 
L 0 864 
z
" style="fill: none; opacity: 0"/>
  </g>
  <g id="axes_1">
   <g id="patch_2">
    <path d="M 23.76 815.72 
L 830.652582 815.72 
L 830.652582 50.88 
L 23.76 50.88 
L 23.76 815.72 
z
" style="fill: none"/>
   </g>
   <g id="matplotlib.axis_1">
    <g id="xtick_1">
     <g id="line2d_1">
      <path d="M 74.544002 815.72 
L 74.544002 50.88 
" clip-path="url(#p8029e6a832)" style="fill: none; stroke: #ffffff; stroke-opacity: 0.4; stroke-linecap: round"/>
     </g>
     <g id="line2d_2"/>
     <g id="text_1">
      <text style="font-size: 18px; font-family: 'DejaVu Serif', 'Times New Roman', serif; text-anchor: middle; fill: #262626" x="74.544002" y="836.397187" transform="rotate(-0 74.544002 836.397187)">0.642</text>
     </g>
    </g>
    <g id="xtick_2">
     <g id="line2d_3">
      <path d="M 179.771131 815.72 
L 179.771131 50.88 
" clip-path="url(#p8029e6a832)" style="fill: none; stroke: #ffffff; stroke-opacity: 0.4; stroke-linecap: round"/>
     </g>
     <g id="line2d_4"/>
     <g id="text_2">
      <text style="font-size: 18px; font-family: 'DejaVu Serif', 'Times New Roman', serif; text-anchor: middle; fill: #262626" x="179.771131" y="836.397187" transform="rotate(-0 179.771131 836.397187)">0.644</text>
     </g>
    </g>
    <g id="xtick_3">
     <g id="line2d_5">
      <path d="M 284.998259 815.72 
L 284.998259 50.88 
" clip-path="url(#p8029e6a832)" style="fill: none; stroke: #ffffff; stroke-opacity: 0.4; stroke-linecap: round"/>
     </g>
     <g id="line2d_6"/>
     <g id="text_3">
      <text style="font-size: 18px; font-family: 'DejaVu Serif', 'Times New Roman', serif; text-anchor: middle; fill: #262626" x="284.998259" y="836.397187" transform="rotate(-0 284.998259 836.397187)">0.646</text>
     </g>
    </g>
    <g id="xtick_4">
     <g id="line2d_7">
      <path d="M 390.225387 815.72 
L 390.225387 50.88 
" clip-path="url(#p8029e6a832)" style="fill: none; stroke: #ffffff; stroke-opacity: 0.4; stroke-linecap: round"/>
     </g>
     <g id="line2d_8"/>
     <g id="text_4">
      <text style="font-size: 18px; font-family: 'DejaVu Serif', 'Times New Roman', serif; text-anchor: middle; fill: #262626" x="390.225387" y="836.397187" transform="rotate(-0 390.225387 836.397187)">0.648</text>
     </g>
    </g>
    <g id="xtick_5">
     <g id="line2d_9">
      <path d="M 495.452516 815.72 
L 495.452516 50.88 
" clip-path="url(#p8029e6a832)" style="fill: none; stroke: #ffffff; stroke-opacity: 0.4; stroke-linecap: round"/>
     </g>
     <g id="line2d_10"/>
     <g id="text_5">
      <text style="font-size: 18px; font-family: 'DejaVu Serif', 'Times New Roman', serif; text-anchor: middle; fill: #262626" x="495.452516" y="836.397187" transform="rotate(-0 495.452516 836.397187)">0.650</text>
     </g>
    </g>
    <g id="xtick_6">
     <g id="line2d_11">
      <path d="M 600.679644 815.72 
L 600.679644 50.88 
" clip-path="url(#p8029e6a832)" style="fill: none; stroke: #ffffff; stroke-opacity: 0.4; stroke-linecap: round"/>
     </g>
     <g id="line2d_12"/>
     <g id="text_6">
      <text style="font-size: 18px; font-family: 'DejaVu Serif', 'Times New Roman', serif; text-anchor: middle; fill: #262626" x="600.679644" y="836.397187" transform="rotate(-0 600.679644 836.397187)">0.652</text>
     </g>
    </g>
    <g id="xtick_7">
     <g id="line2d_13">
      <path d="M 705.906773 815.72 
L 705.906773 50.88 
" clip-path="url(#p8029e6a832)" style="fill: none; stroke: #ffffff; stroke-opacity: 0.4; stroke-linecap: round"/>
     </g>
     <g id="line2d_14"/>
     <g id="text_7">
      <text style="font-size: 18px; font-family: 'DejaVu Serif', 'Times New Roman', serif; text-anchor: middle; fill: #262626" x="705.906773" y="836.397187" transform="rotate(-0 705.906773 836.397187)">0.654</text>
     </g>
    </g>
    <g id="xtick_8">
     <g id="line2d_15">
      <path d="M 811.133901 815.72 
L 811.133901 50.88 
" clip-path="url(#p8029e6a832)" style="fill: none; stroke: #ffffff; stroke-opacity: 0.4; stroke-linecap: round"/>
     </g>
     <g id="line2d_16"/>
     <g id="text_8">
      <text style="font-size: 18px; font-family: 'DejaVu Serif', 'Times New Roman', serif; text-anchor: middle; fill: #262626" x="811.133901" y="836.397187" transform="rotate(-0 811.133901 836.397187)">0.656</text>
     </g>
    </g>
   </g>
   <g id="matplotlib.axis_2"/>
   <g id="FillBetweenPolyCollection_1">
    <defs>
     <path id="m9fc7ad4a4c" d="M 60.436936 -85.631641 
L 60.436936 -290.470034 
L 61.872432 -290.592085 
L 63.307929 -290.861405 
L 64.743425 -291.220556 
L 66.178922 -291.739244 
L 67.614418 -292.395433 
L 69.049915 -293.201924 
L 70.485411 -294.115621 
L 71.920908 -295.20819 
L 73.356404 -296.367844 
L 74.791901 -297.660003 
L 76.227397 -299.06151 
L 77.662894 -300.568596 
L 79.09839 -302.189847 
L 80.533887 -303.998961 
L 81.969383 -305.885427 
L 83.40488 -307.876561 
L 84.840376 -309.92142 
L 86.275873 -312.118522 
L 87.711369 -314.40863 
L 89.146866 -316.778869 
L 90.582362 -319.25328 
L 92.017859 -321.752332 
L 93.453355 -324.358592 
L 94.888852 -327.032625 
L 96.324348 -329.811697 
L 97.759845 -332.622801 
L 99.195341 -335.530975 
L 100.630838 -338.450358 
L 102.066334 -341.499293 
L 103.501831 -344.543349 
L 104.937327 -347.64878 
L 106.372824 -350.784298 
L 107.80832 -353.93482 
L 109.243817 -357.169919 
L 110.679313 -360.434302 
L 112.11481 -363.687965 
L 113.550306 -366.970815 
L 114.985803 -370.293953 
L 116.421299 -373.609549 
L 117.856796 -376.90343 
L 119.292292 -380.225147 
L 120.727789 -383.554895 
L 122.163285 -386.879045 
L 123.598782 -390.185265 
L 125.034278 -393.489169 
L 126.469775 -396.824164 
L 127.905271 -400.081313 
L 129.340768 -403.345425 
L 130.776264 -406.572574 
L 132.211761 -409.718789 
L 133.647257 -412.920022 
L 135.082754 -416.103989 
L 136.51825 -419.23371 
L 137.953747 -422.287206 
L 139.389243 -425.37232 
L 140.82474 -428.437369 
L 142.260236 -431.488197 
L 143.695733 -434.47168 
L 145.131229 -437.440332 
L 146.566726 -440.424915 
L 148.002222 -443.366292 
L 149.437719 -446.254288 
L 150.873215 -449.077378 
L 152.308712 -451.862018 
L 153.744208 -454.629919 
L 155.179705 -457.430996 
L 156.615201 -460.141588 
L 158.050698 -462.864253 
L 159.486194 -465.576258 
L 160.921691 -468.263244 
L 162.357187 -470.957336 
L 163.792684 -473.651506 
L 165.22818 -476.292395 
L 166.663677 -478.950588 
L 168.099173 -481.584045 
L 169.53467 -484.212137 
L 170.970166 -486.827381 
L 172.405663 -489.459286 
L 173.841159 -492.086251 
L 175.276656 -494.733144 
L 176.712152 -497.346897 
L 178.147649 -499.962215 
L 179.583145 -502.599526 
L 181.018642 -505.273424 
L 182.454138 -507.968511 
L 183.889635 -510.646152 
L 185.325131 -513.310178 
L 186.760628 -516.004496 
L 188.196124 -518.685732 
L 189.631621 -521.389126 
L 191.067117 -524.088151 
L 192.502614 -526.807122 
L 193.93811 -529.51904 
L 195.373607 -532.197617 
L 196.809103 -534.922892 
L 198.2446 -537.648477 
L 199.680096 -540.352271 
L 201.115593 -543.075707 
L 202.551089 -545.677527 
L 203.986586 -548.391963 
L 205.422082 -551.067172 
L 206.857579 -553.751189 
L 208.293075 -556.442242 
L 209.728572 -559.030654 
L 211.164068 -561.588412 
L 212.599565 -564.101245 
L 214.035061 -566.657113 
L 215.470558 -569.144865 
L 216.906054 -571.60451 
L 218.341551 -574.014634 
L 219.777047 -576.398139 
L 221.212544 -578.709664 
L 222.64804 -580.957261 
L 224.083537 -583.171225 
L 225.519033 -585.350901 
L 226.95453 -587.406584 
L 228.390026 -589.464543 
L 229.825523 -591.439037 
L 231.261019 -593.345704 
L 232.696516 -595.253972 
L 234.132012 -597.090067 
L 235.567509 -598.816625 
L 237.003005 -600.494839 
L 238.438502 -602.164215 
L 239.873998 -603.729156 
L 241.309495 -605.281133 
L 242.744991 -606.735546 
L 244.180488 -608.206618 
L 245.615984 -609.588594 
L 247.051481 -610.989593 
L 248.486977 -612.3197 
L 249.922474 -613.641254 
L 251.35797 -614.926363 
L 252.793467 -616.234691 
L 254.228963 -617.571901 
L 255.66446 -618.789509 
L 257.099956 -620.051972 
L 258.535453 -621.311451 
L 259.970949 -622.535258 
L 261.406446 -623.763375 
L 262.841942 -625.044925 
L 264.277439 -626.35847 
L 265.712935 -627.727985 
L 267.148432 -629.096217 
L 268.583928 -630.469191 
L 270.019425 -631.935943 
L 271.454921 -633.439336 
L 272.890418 -634.97415 
L 274.325914 -636.558977 
L 275.761411 -638.230547 
L 277.196907 -640.003397 
L 278.632404 -641.794558 
L 280.0679 -643.646784 
L 281.503397 -645.644084 
L 282.938893 -647.685969 
L 284.37439 -649.828308 
L 285.809886 -651.997552 
L 287.245383 -654.27275 
L 288.680879 -656.614201 
L 290.116376 -659.10032 
L 291.551872 -661.588862 
L 292.987369 -664.136415 
L 294.422865 -666.677778 
L 295.858362 -669.367466 
L 297.293858 -672.085882 
L 298.729355 -674.844308 
L 300.164851 -677.689487 
L 301.600348 -680.565792 
L 303.035844 -683.483482 
L 304.471341 -686.365151 
L 305.906837 -689.362602 
L 307.342334 -692.377081 
L 308.77783 -695.412066 
L 310.213327 -698.461591 
L 311.648823 -701.520726 
L 313.08432 -704.59266 
L 314.519816 -707.659802 
L 315.955313 -710.691658 
L 317.390809 -713.690046 
L 318.826306 -716.67292 
L 320.261802 -719.644415 
L 321.697299 -722.597474 
L 323.132795 -725.470589 
L 324.568291 -728.321848 
L 326.003788 -731.088887 
L 327.439284 -733.806887 
L 328.874781 -736.499642 
L 330.310277 -739.167277 
L 331.745774 -741.769 
L 333.18127 -744.228275 
L 334.616767 -746.637803 
L 336.052263 -748.940776 
L 337.48776 -751.18514 
L 338.923256 -753.316992 
L 340.358753 -755.33476 
L 341.794249 -757.359108 
L 343.229746 -759.231783 
L 344.665242 -761.038549 
L 346.100739 -762.787829 
L 347.536235 -764.40039 
L 348.971732 -765.902616 
L 350.407228 -767.401272 
L 351.842725 -768.789386 
L 353.278221 -769.950681 
L 354.713718 -771.115251 
L 356.149214 -772.174744 
L 357.584711 -773.172366 
L 359.020207 -774.009895 
L 360.455704 -774.798888 
L 361.8912 -775.48282 
L 363.326697 -776.054179 
L 364.762193 -776.633215 
L 366.19769 -777.11099 
L 367.633186 -777.537938 
L 369.068683 -777.818214 
L 370.504179 -778.069535 
L 371.939676 -778.220465 
L 373.375172 -778.349275 
L 374.810669 -778.354545 
L 376.246165 -778.337799 
L 377.681662 -778.242792 
L 379.117158 -778.128441 
L 380.552655 -777.935355 
L 381.988151 -777.719035 
L 383.423648 -777.410779 
L 384.859144 -777.099575 
L 386.294641 -776.713012 
L 387.730137 -776.280647 
L 389.165634 -775.810943 
L 390.60113 -775.349487 
L 392.036627 -774.920201 
L 393.472123 -774.435985 
L 394.90762 -773.875619 
L 396.343116 -773.283375 
L 397.778613 -772.7463 
L 399.214109 -772.184694 
L 400.649606 -771.610498 
L 402.085102 -770.980779 
L 403.520599 -770.432188 
L 404.956095 -769.84046 
L 406.391592 -769.211187 
L 407.827088 -768.560841 
L 409.262585 -767.970573 
L 410.698081 -767.305568 
L 412.133578 -766.706935 
L 413.569074 -766.124362 
L 415.004571 -765.48663 
L 416.440067 -764.902035 
L 417.875564 -764.2603 
L 419.31106 -763.623621 
L 420.746557 -762.971399 
L 422.182053 -762.313937 
L 423.61755 -761.707958 
L 425.053046 -761.086215 
L 426.488543 -760.499815 
L 427.924039 -759.841754 
L 429.359536 -759.192617 
L 430.795032 -758.558598 
L 432.230529 -757.892548 
L 433.666025 -757.20744 
L 435.101522 -756.518332 
L 436.537018 -755.832191 
L 437.972515 -755.156216 
L 439.408011 -754.476928 
L 440.843508 -753.863852 
L 442.279004 -753.146788 
L 443.714501 -752.391889 
L 445.149997 -751.629026 
L 446.585494 -750.797432 
L 448.02099 -749.952197 
L 449.456487 -749.11277 
L 450.891983 -748.251397 
L 452.32748 -747.403279 
L 453.762976 -746.431125 
L 455.198473 -745.471188 
L 456.633969 -744.453149 
L 458.069466 -743.399695 
L 459.504962 -742.362711 
L 460.940459 -741.22959 
L 462.375955 -740.079132 
L 463.811452 -738.862356 
L 465.246948 -737.688326 
L 466.682445 -736.469481 
L 468.117941 -735.1636 
L 469.553438 -733.900179 
L 470.988934 -732.603713 
L 472.424431 -731.238441 
L 473.859927 -729.904442 
L 475.295424 -728.552416 
L 476.73092 -727.122829 
L 478.166417 -725.696346 
L 479.601913 -724.244526 
L 481.03741 -722.812393 
L 482.472906 -721.319862 
L 483.908403 -719.807224 
L 485.343899 -718.304256 
L 486.779396 -716.774783 
L 488.214892 -715.288372 
L 489.650389 -713.705703 
L 491.085885 -712.163198 
L 492.521382 -710.641978 
L 493.956878 -709.151432 
L 495.392375 -707.59639 
L 496.827871 -706.049611 
L 498.263368 -704.459239 
L 499.698864 -702.942576 
L 501.134361 -701.452415 
L 502.569857 -699.997711 
L 504.005354 -698.513038 
L 505.44085 -697.05579 
L 506.876347 -695.629863 
L 508.311843 -694.269485 
L 509.74734 -692.87429 
L 511.182836 -691.531565 
L 512.618333 -690.231266 
L 514.053829 -688.893615 
L 515.489326 -687.59729 
L 516.924822 -686.35119 
L 518.360319 -685.124924 
L 519.795815 -683.930823 
L 521.231312 -682.769398 
L 522.666808 -681.57607 
L 524.102305 -680.444731 
L 525.537801 -679.315817 
L 526.973298 -678.22361 
L 528.408794 -677.156989 
L 529.844291 -676.0872 
L 531.279787 -675.061826 
L 532.715284 -674.06217 
L 534.15078 -673.082194 
L 535.586277 -672.093656 
L 537.021773 -671.150378 
L 538.45727 -670.227272 
L 539.892766 -669.335425 
L 541.328263 -668.433659 
L 542.763759 -667.54193 
L 544.199256 -666.574118 
L 545.634752 -665.692077 
L 547.070249 -664.821216 
L 548.505745 -663.930126 
L 549.941242 -663.059227 
L 551.376738 -662.143274 
L 552.812235 -661.231691 
L 554.247731 -660.303054 
L 555.683228 -659.322961 
L 557.118724 -658.378759 
L 558.554221 -657.425855 
L 559.989717 -656.393066 
L 561.425214 -655.351727 
L 562.86071 -654.288405 
L 564.296207 -653.115199 
L 565.731703 -651.967938 
L 567.1672 -650.884493 
L 568.602696 -649.655027 
L 570.038193 -648.365211 
L 571.473689 -647.110993 
L 572.909186 -645.782428 
L 574.344682 -644.321693 
L 575.780179 -642.867754 
L 577.215675 -641.42328 
L 578.651172 -639.839393 
L 580.086668 -638.194388 
L 581.522165 -636.453664 
L 582.957661 -634.696381 
L 584.393158 -632.899013 
L 585.828654 -631.023391 
L 587.264151 -629.037041 
L 588.699647 -627.03404 
L 590.135144 -624.91951 
L 591.57064 -622.772835 
L 593.006137 -620.547267 
L 594.441633 -618.2683 
L 595.87713 -615.901309 
L 597.312626 -613.487374 
L 598.748123 -610.964459 
L 600.183619 -608.378427 
L 601.619116 -605.72892 
L 603.054612 -603.005444 
L 604.490109 -600.202228 
L 605.925605 -597.283162 
L 607.361102 -594.323442 
L 608.796598 -591.303453 
L 610.232095 -588.264416 
L 611.667591 -585.113201 
L 613.103088 -581.956444 
L 614.538584 -578.729321 
L 615.974081 -575.511474 
L 617.409577 -572.154059 
L 618.845074 -568.80289 
L 620.28057 -565.391756 
L 621.716067 -561.999826 
L 623.151563 -558.485867 
L 624.58706 -555.0208 
L 626.022556 -551.442595 
L 627.458053 -547.851227 
L 628.893549 -544.292187 
L 630.329046 -540.687222 
L 631.764542 -537.076379 
L 633.200039 -533.471896 
L 634.635535 -529.895542 
L 636.071032 -526.255414 
L 637.506528 -522.631034 
L 638.942025 -519.044903 
L 640.377521 -515.452319 
L 641.813018 -511.879239 
L 643.248514 -508.310888 
L 644.684011 -504.749604 
L 646.119507 -501.259066 
L 647.555004 -497.760263 
L 648.9905 -494.307362 
L 650.425997 -490.879947 
L 651.861493 -487.501528 
L 653.29699 -484.100056 
L 654.732486 -480.739787 
L 656.167983 -477.434761 
L 657.603479 -474.243232 
L 659.038976 -471.070467 
L 660.474472 -467.970191 
L 661.909969 -464.893741 
L 663.345465 -461.901421 
L 664.780962 -458.908184 
L 666.216458 -455.938532 
L 667.651955 -453.107431 
L 669.087451 -450.29094 
L 670.522948 -447.587927 
L 671.958444 -444.91872 
L 673.393941 -442.293999 
L 674.829437 -439.712571 
L 676.264934 -437.17068 
L 677.70043 -434.668838 
L 679.135927 -432.174619 
L 680.571423 -429.748076 
L 682.00692 -427.404059 
L 683.442416 -425.079807 
L 684.877913 -422.813332 
L 686.313409 -420.645213 
L 687.748906 -418.502661 
L 689.184402 -416.388198 
L 690.619899 -414.350798 
L 692.055395 -412.328118 
L 693.490892 -410.31213 
L 694.926388 -408.335142 
L 696.361885 -406.428358 
L 697.797381 -404.50237 
L 699.232878 -402.653309 
L 700.668374 -400.817328 
L 702.103871 -399.028158 
L 703.539367 -397.319834 
L 704.974864 -395.5979 
L 706.41036 -393.94089 
L 707.845857 -392.253228 
L 709.281353 -390.586446 
L 710.71685 -388.972284 
L 712.152346 -387.418464 
L 713.587843 -385.821447 
L 715.023339 -384.263038 
L 716.458836 -382.734503 
L 717.894332 -381.21679 
L 719.329829 -379.801408 
L 720.765325 -378.345813 
L 722.200822 -376.94643 
L 723.636318 -375.554572 
L 725.071815 -374.192373 
L 726.507311 -372.860019 
L 727.942808 -371.570693 
L 729.378304 -370.286597 
L 730.813801 -369.045261 
L 732.249297 -367.864726 
L 733.684794 -366.642395 
L 735.12029 -365.480694 
L 736.555787 -364.403477 
L 737.991283 -363.303813 
L 739.42678 -362.233492 
L 740.862276 -361.163924 
L 742.297773 -360.20223 
L 743.733269 -359.2354 
L 745.168766 -358.330429 
L 746.604262 -357.392731 
L 748.039759 -356.511856 
L 749.475255 -355.670535 
L 750.910752 -354.808423 
L 752.346248 -354.034274 
L 753.781745 -353.277151 
L 755.217241 -352.59512 
L 756.652738 -351.867354 
L 758.088234 -351.266497 
L 759.523731 -350.664787 
L 760.959227 -350.107461 
L 762.394724 -349.582865 
L 763.83022 -349.081572 
L 765.265717 -348.599842 
L 766.701213 -348.162777 
L 768.13671 -347.735071 
L 769.572206 -347.352108 
L 771.007703 -346.964396 
L 772.443199 -346.581343 
L 773.878696 -346.251651 
L 775.314192 -345.961549 
L 776.749689 -345.6939 
L 778.185185 -345.464204 
L 779.620682 -345.245091 
L 781.056178 -345.01475 
L 782.491675 -344.852293 
L 783.927171 -344.718851 
L 785.362668 -344.547649 
L 786.798164 -344.469146 
L 788.233661 -344.407748 
L 789.669157 -344.336733 
L 791.104654 -344.275561 
L 792.54015 -344.241351 
L 793.975647 -344.250291 
L 793.975647 -85.631641 
L 793.975647 -85.631641 
L 792.54015 -85.631641 
L 791.104654 -85.631641 
L 789.669157 -85.631641 
L 788.233661 -85.631641 
L 786.798164 -85.631641 
L 785.362668 -85.631641 
L 783.927171 -85.631641 
L 782.491675 -85.631641 
L 781.056178 -85.631641 
L 779.620682 -85.631641 
L 778.185185 -85.631641 
L 776.749689 -85.631641 
L 775.314192 -85.631641 
L 773.878696 -85.631641 
L 772.443199 -85.631641 
L 771.007703 -85.631641 
L 769.572206 -85.631641 
L 768.13671 -85.631641 
L 766.701213 -85.631641 
L 765.265717 -85.631641 
L 763.83022 -85.631641 
L 762.394724 -85.631641 
L 760.959227 -85.631641 
L 759.523731 -85.631641 
L 758.088234 -85.631641 
L 756.652738 -85.631641 
L 755.217241 -85.631641 
L 753.781745 -85.631641 
L 752.346248 -85.631641 
L 750.910752 -85.631641 
L 749.475255 -85.631641 
L 748.039759 -85.631641 
L 746.604262 -85.631641 
L 745.168766 -85.631641 
L 743.733269 -85.631641 
L 742.297773 -85.631641 
L 740.862276 -85.631641 
L 739.42678 -85.631641 
L 737.991283 -85.631641 
L 736.555787 -85.631641 
L 735.12029 -85.631641 
L 733.684794 -85.631641 
L 732.249297 -85.631641 
L 730.813801 -85.631641 
L 729.378304 -85.631641 
L 727.942808 -85.631641 
L 726.507311 -85.631641 
L 725.071815 -85.631641 
L 723.636318 -85.631641 
L 722.200822 -85.631641 
L 720.765325 -85.631641 
L 719.329829 -85.631641 
L 717.894332 -85.631641 
L 716.458836 -85.631641 
L 715.023339 -85.631641 
L 713.587843 -85.631641 
L 712.152346 -85.631641 
L 710.71685 -85.631641 
L 709.281353 -85.631641 
L 707.845857 -85.631641 
L 706.41036 -85.631641 
L 704.974864 -85.631641 
L 703.539367 -85.631641 
L 702.103871 -85.631641 
L 700.668374 -85.631641 
L 699.232878 -85.631641 
L 697.797381 -85.631641 
L 696.361885 -85.631641 
L 694.926388 -85.631641 
L 693.490892 -85.631641 
L 692.055395 -85.631641 
L 690.619899 -85.631641 
L 689.184402 -85.631641 
L 687.748906 -85.631641 
L 686.313409 -85.631641 
L 684.877913 -85.631641 
L 683.442416 -85.631641 
L 682.00692 -85.631641 
L 680.571423 -85.631641 
L 679.135927 -85.631641 
L 677.70043 -85.631641 
L 676.264934 -85.631641 
L 674.829437 -85.631641 
L 673.393941 -85.631641 
L 671.958444 -85.631641 
L 670.522948 -85.631641 
L 669.087451 -85.631641 
L 667.651955 -85.631641 
L 666.216458 -85.631641 
L 664.780962 -85.631641 
L 663.345465 -85.631641 
L 661.909969 -85.631641 
L 660.474472 -85.631641 
L 659.038976 -85.631641 
L 657.603479 -85.631641 
L 656.167983 -85.631641 
L 654.732486 -85.631641 
L 653.29699 -85.631641 
L 651.861493 -85.631641 
L 650.425997 -85.631641 
L 648.9905 -85.631641 
L 647.555004 -85.631641 
L 646.119507 -85.631641 
L 644.684011 -85.631641 
L 643.248514 -85.631641 
L 641.813018 -85.631641 
L 640.377521 -85.631641 
L 638.942025 -85.631641 
L 637.506528 -85.631641 
L 636.071032 -85.631641 
L 634.635535 -85.631641 
L 633.200039 -85.631641 
L 631.764542 -85.631641 
L 630.329046 -85.631641 
L 628.893549 -85.631641 
L 627.458053 -85.631641 
L 626.022556 -85.631641 
L 624.58706 -85.631641 
L 623.151563 -85.631641 
L 621.716067 -85.631641 
L 620.28057 -85.631641 
L 618.845074 -85.631641 
L 617.409577 -85.631641 
L 615.974081 -85.631641 
L 614.538584 -85.631641 
L 613.103088 -85.631641 
L 611.667591 -85.631641 
L 610.232095 -85.631641 
L 608.796598 -85.631641 
L 607.361102 -85.631641 
L 605.925605 -85.631641 
L 604.490109 -85.631641 
L 603.054612 -85.631641 
L 601.619116 -85.631641 
L 600.183619 -85.631641 
L 598.748123 -85.631641 
L 597.312626 -85.631641 
L 595.87713 -85.631641 
L 594.441633 -85.631641 
L 593.006137 -85.631641 
L 591.57064 -85.631641 
L 590.135144 -85.631641 
L 588.699647 -85.631641 
L 587.264151 -85.631641 
L 585.828654 -85.631641 
L 584.393158 -85.631641 
L 582.957661 -85.631641 
L 581.522165 -85.631641 
L 580.086668 -85.631641 
L 578.651172 -85.631641 
L 577.215675 -85.631641 
L 575.780179 -85.631641 
L 574.344682 -85.631641 
L 572.909186 -85.631641 
L 571.473689 -85.631641 
L 570.038193 -85.631641 
L 568.602696 -85.631641 
L 567.1672 -85.631641 
L 565.731703 -85.631641 
L 564.296207 -85.631641 
L 562.86071 -85.631641 
L 561.425214 -85.631641 
L 559.989717 -85.631641 
L 558.554221 -85.631641 
L 557.118724 -85.631641 
L 555.683228 -85.631641 
L 554.247731 -85.631641 
L 552.812235 -85.631641 
L 551.376738 -85.631641 
L 549.941242 -85.631641 
L 548.505745 -85.631641 
L 547.070249 -85.631641 
L 545.634752 -85.631641 
L 544.199256 -85.631641 
L 542.763759 -85.631641 
L 541.328263 -85.631641 
L 539.892766 -85.631641 
L 538.45727 -85.631641 
L 537.021773 -85.631641 
L 535.586277 -85.631641 
L 534.15078 -85.631641 
L 532.715284 -85.631641 
L 531.279787 -85.631641 
L 529.844291 -85.631641 
L 528.408794 -85.631641 
L 526.973298 -85.631641 
L 525.537801 -85.631641 
L 524.102305 -85.631641 
L 522.666808 -85.631641 
L 521.231312 -85.631641 
L 519.795815 -85.631641 
L 518.360319 -85.631641 
L 516.924822 -85.631641 
L 515.489326 -85.631641 
L 514.053829 -85.631641 
L 512.618333 -85.631641 
L 511.182836 -85.631641 
L 509.74734 -85.631641 
L 508.311843 -85.631641 
L 506.876347 -85.631641 
L 505.44085 -85.631641 
L 504.005354 -85.631641 
L 502.569857 -85.631641 
L 501.134361 -85.631641 
L 499.698864 -85.631641 
L 498.263368 -85.631641 
L 496.827871 -85.631641 
L 495.392375 -85.631641 
L 493.956878 -85.631641 
L 492.521382 -85.631641 
L 491.085885 -85.631641 
L 489.650389 -85.631641 
L 488.214892 -85.631641 
L 486.779396 -85.631641 
L 485.343899 -85.631641 
L 483.908403 -85.631641 
L 482.472906 -85.631641 
L 481.03741 -85.631641 
L 479.601913 -85.631641 
L 478.166417 -85.631641 
L 476.73092 -85.631641 
L 475.295424 -85.631641 
L 473.859927 -85.631641 
L 472.424431 -85.631641 
L 470.988934 -85.631641 
L 469.553438 -85.631641 
L 468.117941 -85.631641 
L 466.682445 -85.631641 
L 465.246948 -85.631641 
L 463.811452 -85.631641 
L 462.375955 -85.631641 
L 460.940459 -85.631641 
L 459.504962 -85.631641 
L 458.069466 -85.631641 
L 456.633969 -85.631641 
L 455.198473 -85.631641 
L 453.762976 -85.631641 
L 452.32748 -85.631641 
L 450.891983 -85.631641 
L 449.456487 -85.631641 
L 448.02099 -85.631641 
L 446.585494 -85.631641 
L 445.149997 -85.631641 
L 443.714501 -85.631641 
L 442.279004 -85.631641 
L 440.843508 -85.631641 
L 439.408011 -85.631641 
L 437.972515 -85.631641 
L 436.537018 -85.631641 
L 435.101522 -85.631641 
L 433.666025 -85.631641 
L 432.230529 -85.631641 
L 430.795032 -85.631641 
L 429.359536 -85.631641 
L 427.924039 -85.631641 
L 426.488543 -85.631641 
L 425.053046 -85.631641 
L 423.61755 -85.631641 
L 422.182053 -85.631641 
L 420.746557 -85.631641 
L 419.31106 -85.631641 
L 417.875564 -85.631641 
L 416.440067 -85.631641 
L 415.004571 -85.631641 
L 413.569074 -85.631641 
L 412.133578 -85.631641 
L 410.698081 -85.631641 
L 409.262585 -85.631641 
L 407.827088 -85.631641 
L 406.391592 -85.631641 
L 404.956095 -85.631641 
L 403.520599 -85.631641 
L 402.085102 -85.631641 
L 400.649606 -85.631641 
L 399.214109 -85.631641 
L 397.778613 -85.631641 
L 396.343116 -85.631641 
L 394.90762 -85.631641 
L 393.472123 -85.631641 
L 392.036627 -85.631641 
L 390.60113 -85.631641 
L 389.165634 -85.631641 
L 387.730137 -85.631641 
L 386.294641 -85.631641 
L 384.859144 -85.631641 
L 383.423648 -85.631641 
L 381.988151 -85.631641 
L 380.552655 -85.631641 
L 379.117158 -85.631641 
L 377.681662 -85.631641 
L 376.246165 -85.631641 
L 374.810669 -85.631641 
L 373.375172 -85.631641 
L 371.939676 -85.631641 
L 370.504179 -85.631641 
L 369.068683 -85.631641 
L 367.633186 -85.631641 
L 366.19769 -85.631641 
L 364.762193 -85.631641 
L 363.326697 -85.631641 
L 361.8912 -85.631641 
L 360.455704 -85.631641 
L 359.020207 -85.631641 
L 357.584711 -85.631641 
L 356.149214 -85.631641 
L 354.713718 -85.631641 
L 353.278221 -85.631641 
L 351.842725 -85.631641 
L 350.407228 -85.631641 
L 348.971732 -85.631641 
L 347.536235 -85.631641 
L 346.100739 -85.631641 
L 344.665242 -85.631641 
L 343.229746 -85.631641 
L 341.794249 -85.631641 
L 340.358753 -85.631641 
L 338.923256 -85.631641 
L 337.48776 -85.631641 
L 336.052263 -85.631641 
L 334.616767 -85.631641 
L 333.18127 -85.631641 
L 331.745774 -85.631641 
L 330.310277 -85.631641 
L 328.874781 -85.631641 
L 327.439284 -85.631641 
L 326.003788 -85.631641 
L 324.568291 -85.631641 
L 323.132795 -85.631641 
L 321.697299 -85.631641 
L 320.261802 -85.631641 
L 318.826306 -85.631641 
L 317.390809 -85.631641 
L 315.955313 -85.631641 
L 314.519816 -85.631641 
L 313.08432 -85.631641 
L 311.648823 -85.631641 
L 310.213327 -85.631641 
L 308.77783 -85.631641 
L 307.342334 -85.631641 
L 305.906837 -85.631641 
L 304.471341 -85.631641 
L 303.035844 -85.631641 
L 301.600348 -85.631641 
L 300.164851 -85.631641 
L 298.729355 -85.631641 
L 297.293858 -85.631641 
L 295.858362 -85.631641 
L 294.422865 -85.631641 
L 292.987369 -85.631641 
L 291.551872 -85.631641 
L 290.116376 -85.631641 
L 288.680879 -85.631641 
L 287.245383 -85.631641 
L 285.809886 -85.631641 
L 284.37439 -85.631641 
L 282.938893 -85.631641 
L 281.503397 -85.631641 
L 280.0679 -85.631641 
L 278.632404 -85.631641 
L 277.196907 -85.631641 
L 275.761411 -85.631641 
L 274.325914 -85.631641 
L 272.890418 -85.631641 
L 271.454921 -85.631641 
L 270.019425 -85.631641 
L 268.583928 -85.631641 
L 267.148432 -85.631641 
L 265.712935 -85.631641 
L 264.277439 -85.631641 
L 262.841942 -85.631641 
L 261.406446 -85.631641 
L 259.970949 -85.631641 
L 258.535453 -85.631641 
L 257.099956 -85.631641 
L 255.66446 -85.631641 
L 254.228963 -85.631641 
L 252.793467 -85.631641 
L 251.35797 -85.631641 
L 249.922474 -85.631641 
L 248.486977 -85.631641 
L 247.051481 -85.631641 
L 245.615984 -85.631641 
L 244.180488 -85.631641 
L 242.744991 -85.631641 
L 241.309495 -85.631641 
L 239.873998 -85.631641 
L 238.438502 -85.631641 
L 237.003005 -85.631641 
L 235.567509 -85.631641 
L 234.132012 -85.631641 
L 232.696516 -85.631641 
L 231.261019 -85.631641 
L 229.825523 -85.631641 
L 228.390026 -85.631641 
L 226.95453 -85.631641 
L 225.519033 -85.631641 
L 224.083537 -85.631641 
L 222.64804 -85.631641 
L 221.212544 -85.631641 
L 219.777047 -85.631641 
L 218.341551 -85.631641 
L 216.906054 -85.631641 
L 215.470558 -85.631641 
L 214.035061 -85.631641 
L 212.599565 -85.631641 
L 211.164068 -85.631641 
L 209.728572 -85.631641 
L 208.293075 -85.631641 
L 206.857579 -85.631641 
L 205.422082 -85.631641 
L 203.986586 -85.631641 
L 202.551089 -85.631641 
L 201.115593 -85.631641 
L 199.680096 -85.631641 
L 198.2446 -85.631641 
L 196.809103 -85.631641 
L 195.373607 -85.631641 
L 193.93811 -85.631641 
L 192.502614 -85.631641 
L 191.067117 -85.631641 
L 189.631621 -85.631641 
L 188.196124 -85.631641 
L 186.760628 -85.631641 
L 185.325131 -85.631641 
L 183.889635 -85.631641 
L 182.454138 -85.631641 
L 181.018642 -85.631641 
L 179.583145 -85.631641 
L 178.147649 -85.631641 
L 176.712152 -85.631641 
L 175.276656 -85.631641 
L 173.841159 -85.631641 
L 172.405663 -85.631641 
L 170.970166 -85.631641 
L 169.53467 -85.631641 
L 168.099173 -85.631641 
L 166.663677 -85.631641 
L 165.22818 -85.631641 
L 163.792684 -85.631641 
L 162.357187 -85.631641 
L 160.921691 -85.631641 
L 159.486194 -85.631641 
L 158.050698 -85.631641 
L 156.615201 -85.631641 
L 155.179705 -85.631641 
L 153.744208 -85.631641 
L 152.308712 -85.631641 
L 150.873215 -85.631641 
L 149.437719 -85.631641 
L 148.002222 -85.631641 
L 146.566726 -85.631641 
L 145.131229 -85.631641 
L 143.695733 -85.631641 
L 142.260236 -85.631641 
L 140.82474 -85.631641 
L 139.389243 -85.631641 
L 137.953747 -85.631641 
L 136.51825 -85.631641 
L 135.082754 -85.631641 
L 133.647257 -85.631641 
L 132.211761 -85.631641 
L 130.776264 -85.631641 
L 129.340768 -85.631641 
L 127.905271 -85.631641 
L 126.469775 -85.631641 
L 125.034278 -85.631641 
L 123.598782 -85.631641 
L 122.163285 -85.631641 
L 120.727789 -85.631641 
L 119.292292 -85.631641 
L 117.856796 -85.631641 
L 116.421299 -85.631641 
L 114.985803 -85.631641 
L 113.550306 -85.631641 
L 112.11481 -85.631641 
L 110.679313 -85.631641 
L 109.243817 -85.631641 
L 107.80832 -85.631641 
L 106.372824 -85.631641 
L 104.937327 -85.631641 
L 103.501831 -85.631641 
L 102.066334 -85.631641 
L 100.630838 -85.631641 
L 99.195341 -85.631641 
L 97.759845 -85.631641 
L 96.324348 -85.631641 
L 94.888852 -85.631641 
L 93.453355 -85.631641 
L 92.017859 -85.631641 
L 90.582362 -85.631641 
L 89.146866 -85.631641 
L 87.711369 -85.631641 
L 86.275873 -85.631641 
L 84.840376 -85.631641 
L 83.40488 -85.631641 
L 81.969383 -85.631641 
L 80.533887 -85.631641 
L 79.09839 -85.631641 
L 77.662894 -85.631641 
L 76.227397 -85.631641 
L 74.791901 -85.631641 
L 73.356404 -85.631641 
L 71.920908 -85.631641 
L 70.485411 -85.631641 
L 69.049915 -85.631641 
L 67.614418 -85.631641 
L 66.178922 -85.631641 
L 64.743425 -85.631641 
L 63.307929 -85.631641 
L 61.872432 -85.631641 
L 60.436936 -85.631641 
z
" style="stroke: #6cb7ff; stroke-opacity: 0.6; stroke-width: 0.3"/>
    </defs>
    <g clip-path="url(#p8029e6a832)">
     <use xlink:href="#m9fc7ad4a4c" x="0" y="864" style="fill: #6cb7ff; fill-opacity: 0.6; stroke: #6cb7ff; stroke-opacity: 0.6; stroke-width: 0.3"/>
    </g>
   </g>
   <g id="line2d_17">
    <path d="M 60.436936 573.529966 
L 61.872432 573.407915 
L 64.743425 572.779444 
L 66.178922 572.260756 
L 67.614418 571.604567 
L 70.485411 569.884379 
L 73.356404 567.632156 
L 76.227397 564.93849 
L 79.09839 561.810153 
L 81.969383 558.114573 
L 84.840376 554.07858 
L 87.711369 549.59137 
L 90.582362 544.74672 
L 93.453355 539.641408 
L 96.324348 534.188303 
L 100.630838 525.549642 
L 107.80832 510.06518 
L 116.421299 490.390451 
L 133.647257 451.079978 
L 137.953747 441.712794 
L 143.695733 429.52832 
L 150.873215 414.922622 
L 159.486194 398.423742 
L 169.53467 379.787863 
L 182.454138 356.031489 
L 198.2446 326.351523 
L 208.293075 307.557758 
L 214.035061 297.342887 
L 219.777047 287.601861 
L 224.083537 280.828775 
L 226.95453 276.593416 
L 229.825523 272.560963 
L 234.132012 266.909933 
L 238.438502 261.835785 
L 242.744991 257.264454 
L 245.615984 254.411406 
L 249.922474 250.358746 
L 259.970949 241.464742 
L 264.277439 237.64153 
L 270.019425 232.064057 
L 274.325914 227.441023 
L 277.196907 223.996603 
L 280.0679 220.353216 
L 284.37439 214.171692 
L 287.245383 209.72725 
L 290.116376 204.89968 
L 294.422865 197.322222 
L 298.729355 189.155692 
L 304.471341 177.634849 
L 313.08432 159.40734 
L 318.826306 147.32708 
L 324.568291 135.678152 
L 330.310277 124.832723 
L 333.18127 119.771725 
L 336.052263 115.059224 
L 338.923256 110.683008 
L 343.229746 104.768217 
L 346.100739 101.212171 
L 348.971732 98.097384 
L 351.842725 95.210614 
L 356.149214 91.825256 
L 357.584711 90.827634 
L 360.455704 89.201112 
L 363.326697 87.945821 
L 366.19769 86.88901 
L 367.633186 86.462062 
L 370.504179 85.930465 
L 373.375172 85.650725 
L 376.246165 85.662201 
L 379.117158 85.871559 
L 381.988151 86.280965 
L 386.294641 87.286988 
L 393.472123 89.564015 
L 404.956095 94.15954 
L 435.101522 107.481668 
L 445.149997 112.370974 
L 452.32748 116.596721 
L 458.069466 120.600305 
L 460.940459 122.77041 
L 465.246948 126.311674 
L 469.553438 130.099821 
L 473.859927 134.095558 
L 478.166417 138.303654 
L 485.343899 145.695744 
L 504.005354 165.486962 
L 508.311843 169.730515 
L 512.618333 173.768734 
L 516.924822 177.64881 
L 522.666808 182.42393 
L 528.408794 186.843011 
L 532.715284 189.93783 
L 538.45727 193.772728 
L 554.247731 203.696946 
L 562.86071 209.711595 
L 571.473689 216.889007 
L 574.344682 219.678307 
L 578.651172 224.160607 
L 581.522165 227.546336 
L 585.828654 232.976609 
L 590.135144 239.08049 
L 593.006137 243.452733 
L 595.87713 248.098691 
L 598.748123 253.035541 
L 603.054612 260.994556 
L 605.925605 266.716838 
L 610.232095 275.735584 
L 615.974081 288.488526 
L 623.151563 305.514133 
L 627.458053 316.148773 
L 636.071032 337.744586 
L 644.684011 359.250396 
L 651.861493 376.498472 
L 656.167983 386.565239 
L 661.909969 399.106259 
L 667.651955 410.892569 
L 670.522948 416.412073 
L 674.829437 424.287429 
L 680.571423 434.251924 
L 684.877913 441.186668 
L 689.184402 447.611802 
L 694.926388 455.664858 
L 700.668374 463.182672 
L 704.974864 468.4021 
L 713.587843 478.178553 
L 717.894332 482.78321 
L 726.507311 491.139981 
L 730.813801 494.954739 
L 736.555787 499.596523 
L 740.862276 502.836076 
L 746.604262 506.607269 
L 750.910752 509.191577 
L 755.217241 511.40488 
L 756.652738 512.132646 
L 762.394724 514.417135 
L 766.701213 515.837223 
L 771.007703 517.035604 
L 773.878696 517.748349 
L 778.185185 518.535796 
L 782.491675 519.147707 
L 788.233661 519.592252 
L 792.54015 519.758649 
L 793.975647 519.749709 
L 793.975647 519.749709 
" clip-path="url(#p8029e6a832)" style="fill: none; stroke: #7570b3; stroke-width: 2; stroke-linecap: round"/>
   </g>
   <g id="line2d_18">
    <path d="M 60.436936 780.416743 
L 60.436936 573.529966 
" clip-path="url(#p8029e6a832)" style="fill: none; stroke: #7570b3; stroke-width: 2; stroke-linecap: round"/>
   </g>
   <g id="line2d_19">
    <path d="M 793.975647 780.954545 
L 793.975647 519.749709 
" clip-path="url(#p8029e6a832)" style="fill: none; stroke: #7570b3; stroke-width: 2; stroke-linecap: round"/>
   </g>
   <g id="line2d_20">
    <defs>
     <path id="mdba5982a54" d="M 0 3.5 
C 0.928211 3.5 1.81853 3.131218 2.474874 2.474874 
C 3.131218 1.81853 3.5 0.928211 3.5 0 
C 3.5 -0.928211 3.131218 -1.81853 2.474874 -2.474874 
C 1.81853 -3.131218 0.928211 -3.5 0 -3.5 
C -0.928211 -3.5 -1.81853 -3.131218 -2.474874 -2.474874 
C -3.131218 -1.81853 -3.5 -0.928211 -3.5 0 
C -3.5 0.928211 -3.131218 1.81853 -2.474874 2.474874 
C -1.81853 3.131218 -0.928211 3.5 0 3.5 
z
"/>
    </defs>
    <g clip-path="url(#p8029e6a832)">
     <use xlink:href="#mdba5982a54" x="417.729296" y="778.368359" style="fill: #7570b3"/>
    </g>
   </g>
   <g id="patch_3">
    <path d="M 23.76 815.72 
L 830.652582 815.72 
" style="fill: none; stroke: #333333; stroke-width: 1.5; stroke-linejoin: miter; stroke-linecap: square"/>
   </g>
   <g id="text_9">
    <!-- $C$ -->
    <g style="fill: #262626" transform="translate(417.406291 44.88)">
     <text>
      <tspan x="0" y="-0.21875" style="font-style: oblique; font-size: 28px; font-family: 'DejaVu Sans'; fill: #262626">C</tspan>
     </text>
    </g>
   </g>
  </g>
 </g>
 <defs>
  <clipPath id="p8029e6a832">
   <rect x="23.76" y="50.88" width="806.892582" height="764.84"/>
  </clipPath>
 </defs>
</svg>
