<?xml version="1.0" encoding="utf-8" standalone="no"?>
<!DOCTYPE svg PUBLIC "-//W3C//DTD SVG 1.1//EN"
  "http://www.w3.org/Graphics/SVG/1.1/DTD/svg11.dtd">
<svg xmlns:xlink="http://www.w3.org/1999/xlink" width="864pt" height="864pt" viewBox="0 0 864 864" xmlns="http://www.w3.org/2000/svg" version="1.1">
 <metadata>
  <rdf:RDF xmlns:dc="http://purl.org/dc/elements/1.1/" xmlns:cc="http://creativecommons.org/ns#" xmlns:rdf="http://www.w3.org/1999/02/22-rdf-syntax-ns#">
   <cc:Work>
    <dc:type rdf:resource="http://purl.org/dc/dcmitype/StillImage"/>
    <dc:date>2026-03-13T22:48:05.681665</dc:date>
    <dc:format>image/svg+xml</dc:format>
    <dc:creator>
     <cc:Agent>
      <dc:title>Matplotlib v3.10.6, https://matplotlib.org/</dc:title>
     </cc:Agent>
    </dc:creator>
   </cc:Work>
  </rdf:RDF>
 </metadata>
 <defs>
  <style type="text/css">*{stroke-linejoin: round; stroke-linecap: butt}</style>
 </defs>
 <g id="figure_1">
  <g id="patch_1">
   <path d="M 0 864 
L 864 864 
L 864 0 
L 0 0 
L 0 864 
z
" style="fill: none; opacity: 0"/>
  </g>
  <g id="axes_1">
   <g id="patch_2">
    <path d="M 23.76 815.72 
L 840.24 815.72 
L 840.24 50.88 
L 23.76 50.88 
L 23.76 815.72 
z
" style="fill: none"/>
   </g>
   <g id="matplotlib.axis_1">
    <g id="xtick_1">
     <g id="line2d_1">
      <path d="M 127.87715 815.72 
L 127.87715 50.88 
" clip-path="url(#p6465605ca5)" style="fill: none; stroke: #ffffff; stroke-opacity: 0.4; stroke-linecap: round"/>
     </g>
     <g id="line2d_2"/>
     <g id="text_1">
      <text style="font-size: 18px; font-family: 'DejaVu Serif', 'Times New Roman', serif; text-anchor: middle; fill: #262626" x="127.87715" y="836.397187" transform="rotate(-0 127.87715 836.397187)">0.132</text>
     </g>
    </g>
    <g id="xtick_2">
     <g id="line2d_3">
      <path d="M 295.855865 815.72 
L 295.855865 50.88 
" clip-path="url(#p6465605ca5)" style="fill: none; stroke: #ffffff; stroke-opacity: 0.4; stroke-linecap: round"/>
     </g>
     <g id="line2d_4"/>
     <g id="text_2">
      <text style="font-size: 18px; font-family: 'DejaVu Serif', 'Times New Roman', serif; text-anchor: middle; fill: #262626" x="295.855865" y="836.397187" transform="rotate(-0 295.855865 836.397187)">0.133</text>
     </g>
    </g>
    <g id="xtick_3">
     <g id="line2d_5">
      <path d="M 463.834581 815.72 
L 463.834581 50.88 
" clip-path="url(#p6465605ca5)" style="fill: none; stroke: #ffffff; stroke-opacity: 0.4; stroke-linecap: round"/>
     </g>
     <g id="line2d_6"/>
     <g id="text_3">
      <text style="font-size: 18px; font-family: 'DejaVu Serif', 'Times New Roman', serif; text-anchor: middle; fill: #262626" x="463.834581" y="836.397187" transform="rotate(-0 463.834581 836.397187)">0.134</text>
     </g>
    </g>
    <g id="xtick_4">
     <g id="line2d_7">
      <path d="M 631.813296 815.72 
L 631.813296 50.88 
" clip-path="url(#p6465605ca5)" style="fill: none; stroke: #ffffff; stroke-opacity: 0.4; stroke-linecap: round"/>
     </g>
     <g id="line2d_8"/>
     <g id="text_4">
      <text style="font-size: 18px; font-family: 'DejaVu Serif', 'Times New Roman', serif; text-anchor: middle; fill: #262626" x="631.813296" y="836.397187" transform="rotate(-0 631.813296 836.397187)">0.135</text>
     </g>
    </g>
    <g id="xtick_5">
     <g id="line2d_9">
      <path d="M 799.792012 815.72 
L 799.792012 50.88 
" clip-path="url(#p6465605ca5)" style="fill: none; stroke: #ffffff; stroke-opacity: 0.4; stroke-linecap: round"/>
     </g>
     <g id="line2d_10"/>
     <g id="text_5">
      <text style="font-size: 18px; font-family: 'DejaVu Serif', 'Times New Roman', serif; text-anchor: middle; fill: #262626" x="799.792012" y="836.397187" transform="rotate(-0 799.792012 836.397187)">0.136</text>
     </g>
    </g>
   </g>
   <g id="matplotlib.axis_2"/>
   <g id="FillBetweenPolyCollection_1">
    <defs>
     <path id="m85da88732b" d="M 60.872727 -85.461018 
L 60.872727 -295.513779 
L 62.32528 -295.58555 
L 63.777833 -295.660365 
L 65.230386 -295.792111 
L 66.682939 -296.046694 
L 68.135492 -296.430274 
L 69.588045 -296.866906 
L 71.040598 -297.371899 
L 72.493151 -297.954659 
L 73.945704 -298.655891 
L 75.398257 -299.45082 
L 76.850809 -300.292384 
L 78.303362 -301.203567 
L 79.755915 -302.19255 
L 81.208468 -303.275283 
L 82.661021 -304.380777 
L 84.113574 -305.534301 
L 85.566127 -306.758471 
L 87.01868 -308.141798 
L 88.471233 -309.550296 
L 89.923786 -311.005853 
L 91.376339 -312.574596 
L 92.828892 -314.179063 
L 94.281445 -315.908997 
L 95.733998 -317.641282 
L 97.18655 -319.460941 
L 98.639103 -321.308041 
L 100.091656 -323.184866 
L 101.544209 -325.173594 
L 102.996762 -327.19517 
L 104.449315 -329.254082 
L 105.901868 -331.341089 
L 107.354421 -333.537275 
L 108.806974 -335.706643 
L 110.259527 -337.939141 
L 111.71208 -340.19307 
L 113.164633 -342.539596 
L 114.617186 -344.87522 
L 116.069738 -347.22219 
L 117.522291 -349.662878 
L 118.974844 -352.090544 
L 120.427397 -354.525641 
L 121.87995 -357.012015 
L 123.332503 -359.497785 
L 124.785056 -362.024783 
L 126.237609 -364.533618 
L 127.690162 -367.11549 
L 129.142715 -369.722769 
L 130.595268 -372.262433 
L 132.047821 -374.830595 
L 133.500374 -377.399622 
L 134.952927 -380.035792 
L 136.405479 -382.596218 
L 137.858032 -385.183911 
L 139.310585 -387.790592 
L 140.763138 -390.422904 
L 142.215691 -393.090069 
L 143.668244 -395.772901 
L 145.120797 -398.41323 
L 146.57335 -401.11321 
L 148.025903 -403.799193 
L 149.478456 -406.513582 
L 150.931009 -409.213084 
L 152.383562 -411.93333 
L 153.836115 -414.679811 
L 155.288667 -417.498515 
L 156.74122 -420.264195 
L 158.193773 -423.022844 
L 159.646326 -425.834377 
L 161.098879 -428.696393 
L 162.551432 -431.540011 
L 164.003985 -434.438754 
L 165.456538 -437.34775 
L 166.909091 -440.267754 
L 168.361644 -443.283007 
L 169.814197 -446.278413 
L 171.26675 -449.288929 
L 172.719303 -452.332327 
L 174.171856 -455.415127 
L 175.624408 -458.532684 
L 177.076961 -461.721342 
L 178.529514 -464.900432 
L 179.982067 -468.132914 
L 181.43462 -471.435895 
L 182.887173 -474.73625 
L 184.339726 -478.030759 
L 185.792279 -481.356875 
L 187.244832 -484.749502 
L 188.697385 -488.095444 
L 190.149938 -491.472628 
L 191.602491 -494.908401 
L 193.055044 -498.331267 
L 194.507597 -501.759794 
L 195.960149 -505.157422 
L 197.412702 -508.6411 
L 198.865255 -512.104085 
L 200.317808 -515.547947 
L 201.770361 -518.99179 
L 203.222914 -522.367385 
L 204.675467 -525.745459 
L 206.12802 -529.100669 
L 207.580573 -532.464681 
L 209.033126 -535.856378 
L 210.485679 -539.144531 
L 211.938232 -542.390297 
L 213.390785 -545.635592 
L 214.843337 -548.83586 
L 216.29589 -552.036138 
L 217.748443 -555.160245 
L 219.200996 -558.3273 
L 220.653549 -561.349528 
L 222.106102 -564.344425 
L 223.558655 -567.260985 
L 225.011208 -570.153022 
L 226.463761 -573.021449 
L 227.916314 -575.84001 
L 229.368867 -578.610632 
L 230.82142 -581.321247 
L 232.273973 -583.973222 
L 233.726526 -586.543487 
L 235.179078 -589.106186 
L 236.631631 -591.655763 
L 238.084184 -594.127137 
L 239.536737 -596.521029 
L 240.98929 -598.938558 
L 242.441843 -601.230493 
L 243.894396 -603.472453 
L 245.346949 -605.666244 
L 246.799502 -607.892964 
L 248.252055 -610.073911 
L 249.704608 -612.231203 
L 251.157161 -614.339011 
L 252.609714 -616.437009 
L 254.062267 -618.514837 
L 255.514819 -620.558929 
L 256.967372 -622.594718 
L 258.419925 -624.628533 
L 259.872478 -626.663306 
L 261.325031 -628.674431 
L 262.777584 -630.67292 
L 264.230137 -632.634662 
L 265.68269 -634.65665 
L 267.135243 -636.676742 
L 268.587796 -638.704242 
L 270.040349 -640.746136 
L 271.492902 -642.773357 
L 272.945455 -644.876926 
L 274.398007 -646.939749 
L 275.85056 -649.088516 
L 277.303113 -651.2381 
L 278.755666 -653.28744 
L 280.208219 -655.435346 
L 281.660772 -657.654581 
L 283.113325 -659.843486 
L 284.565878 -662.086053 
L 286.018431 -664.402667 
L 287.470984 -666.748224 
L 288.923537 -669.038481 
L 290.37609 -671.387952 
L 291.828643 -673.73478 
L 293.281196 -676.102525 
L 294.733748 -678.492049 
L 296.186301 -680.888303 
L 297.638854 -683.32504 
L 299.091407 -685.789305 
L 300.54396 -688.253475 
L 301.996513 -690.767678 
L 303.449066 -693.328823 
L 304.901619 -695.900615 
L 306.354172 -698.479065 
L 307.806725 -701.00402 
L 309.259278 -703.531713 
L 310.711831 -706.116082 
L 312.164384 -708.595929 
L 313.616936 -711.151742 
L 315.069489 -713.641883 
L 316.522042 -716.121823 
L 317.974595 -718.526355 
L 319.427148 -720.977108 
L 320.879701 -723.462514 
L 322.332254 -725.856638 
L 323.784807 -728.282032 
L 325.23736 -730.633058 
L 326.689913 -732.981273 
L 328.142466 -735.152907 
L 329.595019 -737.402678 
L 331.047572 -739.607978 
L 332.500125 -741.760529 
L 333.952677 -743.884608 
L 335.40523 -745.900023 
L 336.857783 -747.87257 
L 338.310336 -749.717242 
L 339.762889 -751.543821 
L 341.215442 -753.349057 
L 342.667995 -755.080245 
L 344.120548 -756.754042 
L 345.573101 -758.346088 
L 347.025654 -759.853411 
L 348.478207 -761.310911 
L 349.93076 -762.683407 
L 351.383313 -764.024411 
L 352.835866 -765.259718 
L 354.288418 -766.446564 
L 355.740971 -767.565357 
L 357.193524 -768.668398 
L 358.646077 -769.637971 
L 360.09863 -770.540034 
L 361.551183 -771.393606 
L 363.003736 -772.17886 
L 364.456289 -772.895203 
L 365.908842 -773.5845 
L 367.361395 -774.15609 
L 368.813948 -774.712996 
L 370.266501 -775.243662 
L 371.719054 -775.723706 
L 373.171606 -776.146626 
L 374.624159 -776.510126 
L 376.076712 -776.775978 
L 377.529265 -777.068502 
L 378.981818 -777.36881 
L 380.434371 -777.642731 
L 381.886924 -777.831568 
L 383.339477 -778.023743 
L 384.79203 -778.151493 
L 386.244583 -778.226811 
L 387.697136 -778.317234 
L 389.149689 -778.308491 
L 390.602242 -778.354545 
L 392.054795 -778.32095 
L 393.507347 -778.254624 
L 394.9599 -778.21656 
L 396.412453 -778.175582 
L 397.865006 -778.043573 
L 399.317559 -777.903541 
L 400.770112 -777.743569 
L 402.222665 -777.560277 
L 403.675218 -777.373623 
L 405.127771 -777.222864 
L 406.580324 -777.003754 
L 408.032877 -776.725089 
L 409.48543 -776.519119 
L 410.937983 -776.311335 
L 412.390535 -776.023874 
L 413.843088 -775.771549 
L 415.295641 -775.511085 
L 416.748194 -775.259616 
L 418.200747 -774.911522 
L 419.6533 -774.544434 
L 421.105853 -774.212621 
L 422.558406 -773.803367 
L 424.010959 -773.458959 
L 425.463512 -773.12487 
L 426.916065 -772.675535 
L 428.368618 -772.296899 
L 429.821171 -771.841819 
L 431.273724 -771.368359 
L 432.726276 -770.948902 
L 434.178829 -770.429661 
L 435.631382 -769.872824 
L 437.083935 -769.355706 
L 438.536488 -768.798754 
L 439.989041 -768.161288 
L 441.441594 -767.555053 
L 442.894147 -766.95726 
L 444.3467 -766.355287 
L 445.799253 -765.649613 
L 447.251806 -764.967503 
L 448.704359 -764.252348 
L 450.156912 -763.46761 
L 451.609465 -762.699097 
L 453.062017 -761.888726 
L 454.51457 -761.130166 
L 455.967123 -760.297991 
L 457.419676 -759.400205 
L 458.872229 -758.501276 
L 460.324782 -757.651435 
L 461.777335 -756.673993 
L 463.229888 -755.766536 
L 464.682441 -754.80053 
L 466.134994 -753.842631 
L 467.587547 -752.7453 
L 469.0401 -751.712715 
L 470.492653 -750.616405 
L 471.945205 -749.491947 
L 473.397758 -748.334477 
L 474.850311 -747.174908 
L 476.302864 -745.917513 
L 477.755417 -744.674794 
L 479.20797 -743.350691 
L 480.660523 -741.964845 
L 482.113076 -740.623943 
L 483.565629 -739.256051 
L 485.018182 -737.867647 
L 486.470735 -736.386 
L 487.923288 -734.889646 
L 489.375841 -733.38825 
L 490.828394 -731.900926 
L 492.280946 -730.320161 
L 493.733499 -728.663936 
L 495.186052 -727.058126 
L 496.638605 -725.3626 
L 498.091158 -723.630893 
L 499.543711 -722.0106 
L 500.996264 -720.266742 
L 502.448817 -718.545172 
L 503.90137 -716.815798 
L 505.353923 -715.009783 
L 506.806476 -713.16566 
L 508.259029 -711.351678 
L 509.711582 -709.585582 
L 511.164134 -707.782091 
L 512.616687 -705.999666 
L 514.06924 -704.215446 
L 515.521793 -702.443351 
L 516.974346 -700.680661 
L 518.426899 -698.896812 
L 519.879452 -697.16031 
L 521.332005 -695.43275 
L 522.784558 -693.701288 
L 524.237111 -692.013016 
L 525.689664 -690.364962 
L 527.142217 -688.723186 
L 528.59477 -687.119355 
L 530.047323 -685.509151 
L 531.499875 -683.954737 
L 532.952428 -682.477107 
L 534.404981 -680.984936 
L 535.857534 -679.53234 
L 537.310087 -678.144342 
L 538.76264 -676.810452 
L 540.215193 -675.490993 
L 541.667746 -674.156779 
L 543.120299 -672.873861 
L 544.572852 -671.634344 
L 546.025405 -670.490447 
L 547.477958 -669.376443 
L 548.930511 -668.387401 
L 550.383064 -667.337494 
L 551.835616 -666.325074 
L 553.288169 -665.358895 
L 554.740722 -664.403977 
L 556.193275 -663.591308 
L 557.645828 -662.789419 
L 559.098381 -662.045053 
L 560.550934 -661.29984 
L 562.003487 -660.569619 
L 563.45604 -659.87762 
L 564.908593 -659.214551 
L 566.361146 -658.55202 
L 567.813699 -657.941722 
L 569.266252 -657.333684 
L 570.718804 -656.711088 
L 572.171357 -656.150672 
L 573.62391 -655.612402 
L 575.076463 -655.0753 
L 576.529016 -654.471189 
L 577.981569 -653.862816 
L 579.434122 -653.296084 
L 580.886675 -652.785122 
L 582.339228 -652.150519 
L 583.791781 -651.5299 
L 585.244334 -650.884727 
L 586.696887 -650.246799 
L 588.14944 -649.570266 
L 589.601993 -648.832737 
L 591.054545 -647.999047 
L 592.507098 -647.182023 
L 593.959651 -646.29527 
L 595.412204 -645.369547 
L 596.864757 -644.390157 
L 598.31731 -643.36931 
L 599.769863 -642.282532 
L 601.222416 -641.071855 
L 602.674969 -639.851951 
L 604.127522 -638.583209 
L 605.580075 -637.253279 
L 607.032628 -635.841223 
L 608.485181 -634.361894 
L 609.937733 -632.795858 
L 611.390286 -631.151629 
L 612.842839 -629.417944 
L 614.295392 -627.682112 
L 615.747945 -625.789964 
L 617.200498 -623.81695 
L 618.653051 -621.743839 
L 620.105604 -619.607402 
L 621.558157 -617.390072 
L 623.01071 -615.053229 
L 624.463263 -612.658617 
L 625.915816 -610.157959 
L 627.368369 -607.589165 
L 628.820922 -604.994932 
L 630.273474 -602.289177 
L 631.726027 -599.450482 
L 633.17858 -596.590981 
L 634.631133 -593.636072 
L 636.083686 -590.587022 
L 637.536239 -587.4985 
L 638.988792 -584.348659 
L 640.441345 -581.137231 
L 641.893898 -577.848407 
L 643.346451 -574.57689 
L 644.799004 -571.178094 
L 646.251557 -567.736629 
L 647.70411 -564.330752 
L 649.156663 -560.779445 
L 650.609215 -557.236695 
L 652.061768 -553.689716 
L 653.514321 -550.050978 
L 654.966874 -546.445468 
L 656.419427 -542.838317 
L 657.87198 -539.126488 
L 659.324533 -535.442571 
L 660.777086 -531.755488 
L 662.229639 -528.091264 
L 663.682192 -524.386727 
L 665.134745 -520.648385 
L 666.587298 -516.987344 
L 668.039851 -513.291962 
L 669.492403 -509.608637 
L 670.944956 -505.96038 
L 672.397509 -502.321167 
L 673.850062 -498.643378 
L 675.302615 -494.98231 
L 676.755168 -491.386308 
L 678.207721 -487.812774 
L 679.660274 -484.261427 
L 681.112827 -480.679064 
L 682.56538 -477.163784 
L 684.017933 -473.630741 
L 685.470486 -470.15742 
L 686.923039 -466.687479 
L 688.375592 -463.288255 
L 689.828144 -459.879891 
L 691.280697 -456.556339 
L 692.73325 -453.245887 
L 694.185803 -449.951167 
L 695.638356 -446.668841 
L 697.090909 -443.478267 
L 698.543462 -440.301952 
L 699.996015 -437.169259 
L 701.448568 -434.061814 
L 702.901121 -430.962218 
L 704.353674 -427.911958 
L 705.806227 -424.86784 
L 707.25878 -421.879092 
L 708.711333 -418.913621 
L 710.163885 -416.00064 
L 711.616438 -413.067957 
L 713.068991 -410.266331 
L 714.521544 -407.467457 
L 715.974097 -404.668928 
L 717.42665 -401.930357 
L 718.879203 -399.252511 
L 720.331756 -396.580561 
L 721.784309 -394.016953 
L 723.236862 -391.453909 
L 724.689415 -388.90942 
L 726.141968 -386.471757 
L 727.594521 -384.033237 
L 729.047073 -381.6162 
L 730.499626 -379.240463 
L 731.952179 -376.929266 
L 733.404732 -374.6647 
L 734.857285 -372.457765 
L 736.309838 -370.26923 
L 737.762391 -368.10749 
L 739.214944 -366.047607 
L 740.667497 -364.024381 
L 742.12005 -362.091876 
L 743.572603 -360.218584 
L 745.025156 -358.354025 
L 746.477709 -356.558645 
L 747.930262 -354.82939 
L 749.382814 -353.162156 
L 750.835367 -351.614234 
L 752.28792 -350.071417 
L 753.740473 -348.569558 
L 755.193026 -347.139807 
L 756.645579 -345.792047 
L 758.098132 -344.476078 
L 759.550685 -343.240756 
L 761.003238 -342.071334 
L 762.455791 -340.921973 
L 763.908344 -339.854674 
L 765.360897 -338.838697 
L 766.81345 -337.82531 
L 768.266002 -336.872322 
L 769.718555 -335.960473 
L 771.171108 -335.119514 
L 772.623661 -334.333468 
L 774.076214 -333.60317 
L 775.528767 -332.961999 
L 776.98132 -332.257262 
L 778.433873 -331.695774 
L 779.886426 -331.10898 
L 781.338979 -330.612454 
L 782.791532 -330.129089 
L 784.244085 -329.707744 
L 785.696638 -329.299201 
L 787.149191 -328.968078 
L 788.601743 -328.644405 
L 790.054296 -328.346071 
L 791.506849 -328.097672 
L 792.959402 -327.844877 
L 794.411955 -327.645729 
L 795.864508 -327.467008 
L 797.317061 -327.34039 
L 798.769614 -327.219825 
L 800.222167 -327.114795 
L 801.67472 -327.005515 
L 803.127273 -327.017382 
L 803.127273 -85.461018 
L 803.127273 -85.461018 
L 801.67472 -85.461018 
L 800.222167 -85.461018 
L 798.769614 -85.461018 
L 797.317061 -85.461018 
L 795.864508 -85.461018 
L 794.411955 -85.461018 
L 792.959402 -85.461018 
L 791.506849 -85.461018 
L 790.054296 -85.461018 
L 788.601743 -85.461018 
L 787.149191 -85.461018 
L 785.696638 -85.461018 
L 784.244085 -85.461018 
L 782.791532 -85.461018 
L 781.338979 -85.461018 
L 779.886426 -85.461018 
L 778.433873 -85.461018 
L 776.98132 -85.461018 
L 775.528767 -85.461018 
L 774.076214 -85.461018 
L 772.623661 -85.461018 
L 771.171108 -85.461018 
L 769.718555 -85.461018 
L 768.266002 -85.461018 
L 766.81345 -85.461018 
L 765.360897 -85.461018 
L 763.908344 -85.461018 
L 762.455791 -85.461018 
L 761.003238 -85.461018 
L 759.550685 -85.461018 
L 758.098132 -85.461018 
L 756.645579 -85.461018 
L 755.193026 -85.461018 
L 753.740473 -85.461018 
L 752.28792 -85.461018 
L 750.835367 -85.461018 
L 749.382814 -85.461018 
L 747.930262 -85.461018 
L 746.477709 -85.461018 
L 745.025156 -85.461018 
L 743.572603 -85.461018 
L 742.12005 -85.461018 
L 740.667497 -85.461018 
L 739.214944 -85.461018 
L 737.762391 -85.461018 
L 736.309838 -85.461018 
L 734.857285 -85.461018 
L 733.404732 -85.461018 
L 731.952179 -85.461018 
L 730.499626 -85.461018 
L 729.047073 -85.461018 
L 727.594521 -85.461018 
L 726.141968 -85.461018 
L 724.689415 -85.461018 
L 723.236862 -85.461018 
L 721.784309 -85.461018 
L 720.331756 -85.461018 
L 718.879203 -85.461018 
L 717.42665 -85.461018 
L 715.974097 -85.461018 
L 714.521544 -85.461018 
L 713.068991 -85.461018 
L 711.616438 -85.461018 
L 710.163885 -85.461018 
L 708.711333 -85.461018 
L 707.25878 -85.461018 
L 705.806227 -85.461018 
L 704.353674 -85.461018 
L 702.901121 -85.461018 
L 701.448568 -85.461018 
L 699.996015 -85.461018 
L 698.543462 -85.461018 
L 697.090909 -85.461018 
L 695.638356 -85.461018 
L 694.185803 -85.461018 
L 692.73325 -85.461018 
L 691.280697 -85.461018 
L 689.828144 -85.461018 
L 688.375592 -85.461018 
L 686.923039 -85.461018 
L 685.470486 -85.461018 
L 684.017933 -85.461018 
L 682.56538 -85.461018 
L 681.112827 -85.461018 
L 679.660274 -85.461018 
L 678.207721 -85.461018 
L 676.755168 -85.461018 
L 675.302615 -85.461018 
L 673.850062 -85.461018 
L 672.397509 -85.461018 
L 670.944956 -85.461018 
L 669.492403 -85.461018 
L 668.039851 -85.461018 
L 666.587298 -85.461018 
L 665.134745 -85.461018 
L 663.682192 -85.461018 
L 662.229639 -85.461018 
L 660.777086 -85.461018 
L 659.324533 -85.461018 
L 657.87198 -85.461018 
L 656.419427 -85.461018 
L 654.966874 -85.461018 
L 653.514321 -85.461018 
L 652.061768 -85.461018 
L 650.609215 -85.461018 
L 649.156663 -85.461018 
L 647.70411 -85.461018 
L 646.251557 -85.461018 
L 644.799004 -85.461018 
L 643.346451 -85.461018 
L 641.893898 -85.461018 
L 640.441345 -85.461018 
L 638.988792 -85.461018 
L 637.536239 -85.461018 
L 636.083686 -85.461018 
L 634.631133 -85.461018 
L 633.17858 -85.461018 
L 631.726027 -85.461018 
L 630.273474 -85.461018 
L 628.820922 -85.461018 
L 627.368369 -85.461018 
L 625.915816 -85.461018 
L 624.463263 -85.461018 
L 623.01071 -85.461018 
L 621.558157 -85.461018 
L 620.105604 -85.461018 
L 618.653051 -85.461018 
L 617.200498 -85.461018 
L 615.747945 -85.461018 
L 614.295392 -85.461018 
L 612.842839 -85.461018 
L 611.390286 -85.461018 
L 609.937733 -85.461018 
L 608.485181 -85.461018 
L 607.032628 -85.461018 
L 605.580075 -85.461018 
L 604.127522 -85.461018 
L 602.674969 -85.461018 
L 601.222416 -85.461018 
L 599.769863 -85.461018 
L 598.31731 -85.461018 
L 596.864757 -85.461018 
L 595.412204 -85.461018 
L 593.959651 -85.461018 
L 592.507098 -85.461018 
L 591.054545 -85.461018 
L 589.601993 -85.461018 
L 588.14944 -85.461018 
L 586.696887 -85.461018 
L 585.244334 -85.461018 
L 583.791781 -85.461018 
L 582.339228 -85.461018 
L 580.886675 -85.461018 
L 579.434122 -85.461018 
L 577.981569 -85.461018 
L 576.529016 -85.461018 
L 575.076463 -85.461018 
L 573.62391 -85.461018 
L 572.171357 -85.461018 
L 570.718804 -85.461018 
L 569.266252 -85.461018 
L 567.813699 -85.461018 
L 566.361146 -85.461018 
L 564.908593 -85.461018 
L 563.45604 -85.461018 
L 562.003487 -85.461018 
L 560.550934 -85.461018 
L 559.098381 -85.461018 
L 557.645828 -85.461018 
L 556.193275 -85.461018 
L 554.740722 -85.461018 
L 553.288169 -85.461018 
L 551.835616 -85.461018 
L 550.383064 -85.461018 
L 548.930511 -85.461018 
L 547.477958 -85.461018 
L 546.025405 -85.461018 
L 544.572852 -85.461018 
L 543.120299 -85.461018 
L 541.667746 -85.461018 
L 540.215193 -85.461018 
L 538.76264 -85.461018 
L 537.310087 -85.461018 
L 535.857534 -85.461018 
L 534.404981 -85.461018 
L 532.952428 -85.461018 
L 531.499875 -85.461018 
L 530.047323 -85.461018 
L 528.59477 -85.461018 
L 527.142217 -85.461018 
L 525.689664 -85.461018 
L 524.237111 -85.461018 
L 522.784558 -85.461018 
L 521.332005 -85.461018 
L 519.879452 -85.461018 
L 518.426899 -85.461018 
L 516.974346 -85.461018 
L 515.521793 -85.461018 
L 514.06924 -85.461018 
L 512.616687 -85.461018 
L 511.164134 -85.461018 
L 509.711582 -85.461018 
L 508.259029 -85.461018 
L 506.806476 -85.461018 
L 505.353923 -85.461018 
L 503.90137 -85.461018 
L 502.448817 -85.461018 
L 500.996264 -85.461018 
L 499.543711 -85.461018 
L 498.091158 -85.461018 
L 496.638605 -85.461018 
L 495.186052 -85.461018 
L 493.733499 -85.461018 
L 492.280946 -85.461018 
L 490.828394 -85.461018 
L 489.375841 -85.461018 
L 487.923288 -85.461018 
L 486.470735 -85.461018 
L 485.018182 -85.461018 
L 483.565629 -85.461018 
L 482.113076 -85.461018 
L 480.660523 -85.461018 
L 479.20797 -85.461018 
L 477.755417 -85.461018 
L 476.302864 -85.461018 
L 474.850311 -85.461018 
L 473.397758 -85.461018 
L 471.945205 -85.461018 
L 470.492653 -85.461018 
L 469.0401 -85.461018 
L 467.587547 -85.461018 
L 466.134994 -85.461018 
L 464.682441 -85.461018 
L 463.229888 -85.461018 
L 461.777335 -85.461018 
L 460.324782 -85.461018 
L 458.872229 -85.461018 
L 457.419676 -85.461018 
L 455.967123 -85.461018 
L 454.51457 -85.461018 
L 453.062017 -85.461018 
L 451.609465 -85.461018 
L 450.156912 -85.461018 
L 448.704359 -85.461018 
L 447.251806 -85.461018 
L 445.799253 -85.461018 
L 444.3467 -85.461018 
L 442.894147 -85.461018 
L 441.441594 -85.461018 
L 439.989041 -85.461018 
L 438.536488 -85.461018 
L 437.083935 -85.461018 
L 435.631382 -85.461018 
L 434.178829 -85.461018 
L 432.726276 -85.461018 
L 431.273724 -85.461018 
L 429.821171 -85.461018 
L 428.368618 -85.461018 
L 426.916065 -85.461018 
L 425.463512 -85.461018 
L 424.010959 -85.461018 
L 422.558406 -85.461018 
L 421.105853 -85.461018 
L 419.6533 -85.461018 
L 418.200747 -85.461018 
L 416.748194 -85.461018 
L 415.295641 -85.461018 
L 413.843088 -85.461018 
L 412.390535 -85.461018 
L 410.937983 -85.461018 
L 409.48543 -85.461018 
L 408.032877 -85.461018 
L 406.580324 -85.461018 
L 405.127771 -85.461018 
L 403.675218 -85.461018 
L 402.222665 -85.461018 
L 400.770112 -85.461018 
L 399.317559 -85.461018 
L 397.865006 -85.461018 
L 396.412453 -85.461018 
L 394.9599 -85.461018 
L 393.507347 -85.461018 
L 392.054795 -85.461018 
L 390.602242 -85.461018 
L 389.149689 -85.461018 
L 387.697136 -85.461018 
L 386.244583 -85.461018 
L 384.79203 -85.461018 
L 383.339477 -85.461018 
L 381.886924 -85.461018 
L 380.434371 -85.461018 
L 378.981818 -85.461018 
L 377.529265 -85.461018 
L 376.076712 -85.461018 
L 374.624159 -85.461018 
L 373.171606 -85.461018 
L 371.719054 -85.461018 
L 370.266501 -85.461018 
L 368.813948 -85.461018 
L 367.361395 -85.461018 
L 365.908842 -85.461018 
L 364.456289 -85.461018 
L 363.003736 -85.461018 
L 361.551183 -85.461018 
L 360.09863 -85.461018 
L 358.646077 -85.461018 
L 357.193524 -85.461018 
L 355.740971 -85.461018 
L 354.288418 -85.461018 
L 352.835866 -85.461018 
L 351.383313 -85.461018 
L 349.93076 -85.461018 
L 348.478207 -85.461018 
L 347.025654 -85.461018 
L 345.573101 -85.461018 
L 344.120548 -85.461018 
L 342.667995 -85.461018 
L 341.215442 -85.461018 
L 339.762889 -85.461018 
L 338.310336 -85.461018 
L 336.857783 -85.461018 
L 335.40523 -85.461018 
L 333.952677 -85.461018 
L 332.500125 -85.461018 
L 331.047572 -85.461018 
L 329.595019 -85.461018 
L 328.142466 -85.461018 
L 326.689913 -85.461018 
L 325.23736 -85.461018 
L 323.784807 -85.461018 
L 322.332254 -85.461018 
L 320.879701 -85.461018 
L 319.427148 -85.461018 
L 317.974595 -85.461018 
L 316.522042 -85.461018 
L 315.069489 -85.461018 
L 313.616936 -85.461018 
L 312.164384 -85.461018 
L 310.711831 -85.461018 
L 309.259278 -85.461018 
L 307.806725 -85.461018 
L 306.354172 -85.461018 
L 304.901619 -85.461018 
L 303.449066 -85.461018 
L 301.996513 -85.461018 
L 300.54396 -85.461018 
L 299.091407 -85.461018 
L 297.638854 -85.461018 
L 296.186301 -85.461018 
L 294.733748 -85.461018 
L 293.281196 -85.461018 
L 291.828643 -85.461018 
L 290.37609 -85.461018 
L 288.923537 -85.461018 
L 287.470984 -85.461018 
L 286.018431 -85.461018 
L 284.565878 -85.461018 
L 283.113325 -85.461018 
L 281.660772 -85.461018 
L 280.208219 -85.461018 
L 278.755666 -85.461018 
L 277.303113 -85.461018 
L 275.85056 -85.461018 
L 274.398007 -85.461018 
L 272.945455 -85.461018 
L 271.492902 -85.461018 
L 270.040349 -85.461018 
L 268.587796 -85.461018 
L 267.135243 -85.461018 
L 265.68269 -85.461018 
L 264.230137 -85.461018 
L 262.777584 -85.461018 
L 261.325031 -85.461018 
L 259.872478 -85.461018 
L 258.419925 -85.461018 
L 256.967372 -85.461018 
L 255.514819 -85.461018 
L 254.062267 -85.461018 
L 252.609714 -85.461018 
L 251.157161 -85.461018 
L 249.704608 -85.461018 
L 248.252055 -85.461018 
L 246.799502 -85.461018 
L 245.346949 -85.461018 
L 243.894396 -85.461018 
L 242.441843 -85.461018 
L 240.98929 -85.461018 
L 239.536737 -85.461018 
L 238.084184 -85.461018 
L 236.631631 -85.461018 
L 235.179078 -85.461018 
L 233.726526 -85.461018 
L 232.273973 -85.461018 
L 230.82142 -85.461018 
L 229.368867 -85.461018 
L 227.916314 -85.461018 
L 226.463761 -85.461018 
L 225.011208 -85.461018 
L 223.558655 -85.461018 
L 222.106102 -85.461018 
L 220.653549 -85.461018 
L 219.200996 -85.461018 
L 217.748443 -85.461018 
L 216.29589 -85.461018 
L 214.843337 -85.461018 
L 213.390785 -85.461018 
L 211.938232 -85.461018 
L 210.485679 -85.461018 
L 209.033126 -85.461018 
L 207.580573 -85.461018 
L 206.12802 -85.461018 
L 204.675467 -85.461018 
L 203.222914 -85.461018 
L 201.770361 -85.461018 
L 200.317808 -85.461018 
L 198.865255 -85.461018 
L 197.412702 -85.461018 
L 195.960149 -85.461018 
L 194.507597 -85.461018 
L 193.055044 -85.461018 
L 191.602491 -85.461018 
L 190.149938 -85.461018 
L 188.697385 -85.461018 
L 187.244832 -85.461018 
L 185.792279 -85.461018 
L 184.339726 -85.461018 
L 182.887173 -85.461018 
L 181.43462 -85.461018 
L 179.982067 -85.461018 
L 178.529514 -85.461018 
L 177.076961 -85.461018 
L 175.624408 -85.461018 
L 174.171856 -85.461018 
L 172.719303 -85.461018 
L 171.26675 -85.461018 
L 169.814197 -85.461018 
L 168.361644 -85.461018 
L 166.909091 -85.461018 
L 165.456538 -85.461018 
L 164.003985 -85.461018 
L 162.551432 -85.461018 
L 161.098879 -85.461018 
L 159.646326 -85.461018 
L 158.193773 -85.461018 
L 156.74122 -85.461018 
L 155.288667 -85.461018 
L 153.836115 -85.461018 
L 152.383562 -85.461018 
L 150.931009 -85.461018 
L 149.478456 -85.461018 
L 148.025903 -85.461018 
L 146.57335 -85.461018 
L 145.120797 -85.461018 
L 143.668244 -85.461018 
L 142.215691 -85.461018 
L 140.763138 -85.461018 
L 139.310585 -85.461018 
L 137.858032 -85.461018 
L 136.405479 -85.461018 
L 134.952927 -85.461018 
L 133.500374 -85.461018 
L 132.047821 -85.461018 
L 130.595268 -85.461018 
L 129.142715 -85.461018 
L 127.690162 -85.461018 
L 126.237609 -85.461018 
L 124.785056 -85.461018 
L 123.332503 -85.461018 
L 121.87995 -85.461018 
L 120.427397 -85.461018 
L 118.974844 -85.461018 
L 117.522291 -85.461018 
L 116.069738 -85.461018 
L 114.617186 -85.461018 
L 113.164633 -85.461018 
L 111.71208 -85.461018 
L 110.259527 -85.461018 
L 108.806974 -85.461018 
L 107.354421 -85.461018 
L 105.901868 -85.461018 
L 104.449315 -85.461018 
L 102.996762 -85.461018 
L 101.544209 -85.461018 
L 100.091656 -85.461018 
L 98.639103 -85.461018 
L 97.18655 -85.461018 
L 95.733998 -85.461018 
L 94.281445 -85.461018 
L 92.828892 -85.461018 
L 91.376339 -85.461018 
L 89.923786 -85.461018 
L 88.471233 -85.461018 
L 87.01868 -85.461018 
L 85.566127 -85.461018 
L 84.113574 -85.461018 
L 82.661021 -85.461018 
L 81.208468 -85.461018 
L 79.755915 -85.461018 
L 78.303362 -85.461018 
L 76.850809 -85.461018 
L 75.398257 -85.461018 
L 73.945704 -85.461018 
L 72.493151 -85.461018 
L 71.040598 -85.461018 
L 69.588045 -85.461018 
L 68.135492 -85.461018 
L 66.682939 -85.461018 
L 65.230386 -85.461018 
L 63.777833 -85.461018 
L 62.32528 -85.461018 
L 60.872727 -85.461018 
z
" style="stroke: #6cb7ff; stroke-opacity: 0.6; stroke-width: 0.3"/>
    </defs>
    <g clip-path="url(#p6465605ca5)">
     <use xlink:href="#m85da88732b" x="0" y="864" style="fill: #6cb7ff; fill-opacity: 0.6; stroke: #6cb7ff; stroke-opacity: 0.6; stroke-width: 0.3"/>
    </g>
   </g>
   <g id="line2d_11">
    <path d="M 60.872727 568.486221 
L 65.230386 568.207889 
L 66.682939 567.953306 
L 69.588045 567.133094 
L 72.493151 566.045341 
L 75.398257 564.54918 
L 78.303362 562.796433 
L 81.208468 560.724717 
L 84.113574 558.465699 
L 85.566127 557.241529 
L 89.923786 552.994147 
L 92.828892 549.820937 
L 97.18655 544.539059 
L 101.544209 538.826406 
L 105.901868 532.658911 
L 111.71208 523.80693 
L 118.974844 511.909456 
L 124.785056 501.975217 
L 130.595268 491.737567 
L 140.763138 473.577096 
L 152.383562 452.06667 
L 159.646326 438.165623 
L 166.909091 423.732246 
L 175.624408 405.467316 
L 182.887173 389.26375 
L 190.149938 372.527372 
L 209.033126 328.143622 
L 216.29589 311.963862 
L 222.106102 299.655575 
L 227.916314 288.15999 
L 232.273973 280.026778 
L 238.084184 269.872863 
L 242.441843 262.769507 
L 248.252055 253.926089 
L 254.062267 245.485163 
L 264.230137 231.365338 
L 274.398007 217.060251 
L 284.565878 201.913947 
L 294.733748 185.507951 
L 300.54396 175.746525 
L 309.259278 160.468287 
L 313.616936 152.848258 
L 320.879701 140.537486 
L 326.689913 131.018727 
L 335.40523 118.099977 
L 338.310336 114.282758 
L 342.667995 108.919755 
L 345.573101 105.653912 
L 348.478207 102.689089 
L 351.383313 99.975589 
L 354.288418 97.553436 
L 357.193524 95.331602 
L 360.09863 93.459966 
L 363.003736 91.82114 
L 365.908842 90.4155 
L 370.266501 88.756338 
L 373.171606 87.853374 
L 376.076712 87.224022 
L 380.434371 86.357269 
L 384.79203 85.848507 
L 390.602242 85.645455 
L 396.412453 85.824418 
L 402.222665 86.439723 
L 409.48543 87.480881 
L 412.390535 87.976126 
L 418.200747 89.088478 
L 428.368618 91.703101 
L 434.178829 93.570339 
L 441.441594 96.444947 
L 445.799253 98.350387 
L 448.704359 99.747652 
L 455.967123 103.702009 
L 464.682441 109.19947 
L 466.134994 110.157369 
L 474.850311 116.825092 
L 479.20797 120.649309 
L 487.923288 129.110354 
L 492.280946 133.679839 
L 500.996264 143.733258 
L 505.353923 148.990217 
L 511.164134 156.217909 
L 521.332005 168.56725 
L 525.689664 173.635038 
L 531.499875 180.045263 
L 537.310087 185.855658 
L 543.120299 191.126139 
L 546.025405 193.509553 
L 548.930511 195.612599 
L 553.288169 198.641105 
L 554.740722 199.596023 
L 559.098381 201.954947 
L 563.45604 204.12238 
L 569.266252 206.666316 
L 572.171357 207.849328 
L 576.529016 209.528811 
L 579.434122 210.703916 
L 580.886675 211.214878 
L 588.14944 214.429734 
L 591.054545 216.000953 
L 593.959651 217.70473 
L 596.864757 219.609843 
L 599.769863 221.717468 
L 604.127522 225.416791 
L 607.032628 228.158777 
L 609.937733 231.204142 
L 612.842839 234.582056 
L 615.747945 238.210036 
L 618.653051 242.256161 
L 621.558157 246.609928 
L 624.463263 251.341383 
L 628.820922 259.005068 
L 631.726027 264.549518 
L 634.631133 270.363928 
L 638.988792 279.651341 
L 643.346451 289.42311 
L 649.156663 303.220555 
L 656.419427 321.161683 
L 670.944956 358.03962 
L 681.112827 383.320936 
L 688.375592 400.711745 
L 692.73325 410.754113 
L 698.543462 423.698048 
L 705.806227 439.13216 
L 711.616438 450.932043 
L 718.879203 464.747489 
L 723.236862 472.546091 
L 727.594521 479.966763 
L 731.952179 487.070734 
L 736.309838 493.73077 
L 739.214944 497.952393 
L 742.12005 501.908124 
L 746.477709 507.441355 
L 749.382814 510.837844 
L 753.740473 515.430442 
L 756.645579 518.207953 
L 759.550685 520.759244 
L 763.908344 524.145326 
L 768.266002 527.127678 
L 771.171108 528.880486 
L 774.076214 530.39683 
L 779.886426 532.89102 
L 784.244085 534.292256 
L 787.149191 535.031922 
L 791.506849 535.902328 
L 794.411955 536.354271 
L 798.769614 536.780175 
L 801.67472 536.994485 
L 803.127273 536.982618 
L 803.127273 536.982618 
" clip-path="url(#p6465605ca5)" style="fill: none; stroke: #7570b3; stroke-width: 2; stroke-linecap: round"/>
   </g>
   <g id="line2d_12">
    <path d="M 60.872727 780.639509 
L 60.872727 568.486221 
" clip-path="url(#p6465605ca5)" style="fill: none; stroke: #7570b3; stroke-width: 2; stroke-linecap: round"/>
   </g>
   <g id="line2d_13">
    <path d="M 803.127273 780.954545 
L 803.127273 536.982618 
" clip-path="url(#p6465605ca5)" style="fill: none; stroke: #7570b3; stroke-width: 2; stroke-linecap: round"/>
   </g>
   <g id="line2d_14">
    <defs>
     <path id="m1c5d959aaf" d="M 0 3.5 
C 0.928211 3.5 1.81853 3.131218 2.474874 2.474874 
C 3.131218 1.81853 3.5 0.928211 3.5 0 
C 3.5 -0.928211 3.131218 -1.81853 2.474874 -2.474874 
C 1.81853 -3.131218 0.928211 -3.5 0 -3.5 
C -0.928211 -3.5 -1.81853 -3.131218 -2.474874 -2.474874 
C -3.131218 -1.81853 -3.5 -0.928211 -3.5 0 
C -3.5 0.928211 -3.131218 1.81853 -2.474874 2.474874 
C -1.81853 3.131218 -0.928211 3.5 0 3.5 
z
"/>
    </defs>
    <g clip-path="url(#p6465605ca5)">
     <use xlink:href="#m1c5d959aaf" x="440.451935" y="778.538982" style="fill: #7570b3"/>
    </g>
   </g>
   <g id="patch_3">
    <path d="M 23.76 815.72 
L 840.24 815.72 
" style="fill: none; stroke: #333333; stroke-width: 1.5; stroke-linejoin: miter; stroke-linecap: square"/>
   </g>
   <g id="text_6">
    <!-- $\sigma$ -->
    <g style="fill: #262626" transform="translate(423.04 44.88)">
     <text>
      <tspan x="0" y="-0.671875" style="font-style: oblique; font-size: 28px; font-family: 'DejaVu Sans'; fill: #262626">σ</tspan>
     </text>
    </g>
   </g>
  </g>
 </g>
 <defs>
  <clipPath id="p6465605ca5">
   <rect x="23.76" y="50.88" width="816.48" height="764.84"/>
  </clipPath>
 </defs>
</svg>
