<?xml version="1.0" encoding="utf-8" standalone="no"?>
<!DOCTYPE svg PUBLIC "-//W3C//DTD SVG 1.1//EN"
  "http://www.w3.org/Graphics/SVG/1.1/DTD/svg11.dtd">
<svg xmlns:xlink="http://www.w3.org/1999/xlink" width="864pt" height="864pt" viewBox="0 0 864 864" xmlns="http://www.w3.org/2000/svg" version="1.1">
 <metadata>
  <rdf:RDF xmlns:dc="http://purl.org/dc/elements/1.1/" xmlns:cc="http://creativecommons.org/ns#" xmlns:rdf="http://www.w3.org/1999/02/22-rdf-syntax-ns#">
   <cc:Work>
    <dc:type rdf:resource="http://purl.org/dc/dcmitype/StillImage"/>
    <dc:date>2026-03-13T22:48:06.022821</dc:date>
    <dc:format>image/svg+xml</dc:format>
    <dc:creator>
     <cc:Agent>
      <dc:title>Matplotlib v3.10.6, https://matplotlib.org/</dc:title>
     </cc:Agent>
    </dc:creator>
   </cc:Work>
  </rdf:RDF>
 </metadata>
 <defs>
  <style type="text/css">*{stroke-linejoin: round; stroke-linecap: butt}</style>
 </defs>
 <g id="figure_1">
  <g id="patch_1">
   <path d="M 0 864 
L 864 864 
L 864 0 
L 0 0 
L 0 864 
z
" style="fill: none; opacity: 0"/>
  </g>
  <g id="axes_1">
   <g id="patch_2">
    <path d="M 23.76 815.72 
L 840.24 815.72 
L 840.24 57.696 
L 23.76 57.696 
L 23.76 815.72 
z
" style="fill: none"/>
   </g>
   <g id="matplotlib.axis_1">
    <g id="xtick_1">
     <g id="line2d_1">
      <path d="M 158.047442 815.72 
L 158.047442 57.696 
" clip-path="url(#p299953d3c4)" style="fill: none; stroke: #ffffff; stroke-opacity: 0.4; stroke-linecap: round"/>
     </g>
     <g id="line2d_2"/>
     <g id="text_1">
      <text style="font-size: 18px; font-family: 'DejaVu Serif', 'Times New Roman', serif; text-anchor: middle; fill: #262626" x="158.047442" y="836.397187" transform="rotate(-0 158.047442 836.397187)">−1.005</text>
     </g>
    </g>
    <g id="xtick_2">
     <g id="line2d_3">
      <path d="M 313.991213 815.72 
L 313.991213 57.696 
" clip-path="url(#p299953d3c4)" style="fill: none; stroke: #ffffff; stroke-opacity: 0.4; stroke-linecap: round"/>
     </g>
     <g id="line2d_4"/>
     <g id="text_2">
      <text style="font-size: 18px; font-family: 'DejaVu Serif', 'Times New Roman', serif; text-anchor: middle; fill: #262626" x="313.991213" y="836.397187" transform="rotate(-0 313.991213 836.397187)">−1.000</text>
     </g>
    </g>
    <g id="xtick_3">
     <g id="line2d_5">
      <path d="M 469.934984 815.72 
L 469.934984 57.696 
" clip-path="url(#p299953d3c4)" style="fill: none; stroke: #ffffff; stroke-opacity: 0.4; stroke-linecap: round"/>
     </g>
     <g id="line2d_6"/>
     <g id="text_3">
      <text style="font-size: 18px; font-family: 'DejaVu Serif', 'Times New Roman', serif; text-anchor: middle; fill: #262626" x="469.934984" y="836.397187" transform="rotate(-0 469.934984 836.397187)">−0.995</text>
     </g>
    </g>
    <g id="xtick_4">
     <g id="line2d_7">
      <path d="M 625.878756 815.72 
L 625.878756 57.696 
" clip-path="url(#p299953d3c4)" style="fill: none; stroke: #ffffff; stroke-opacity: 0.4; stroke-linecap: round"/>
     </g>
     <g id="line2d_8"/>
     <g id="text_4">
      <text style="font-size: 18px; font-family: 'DejaVu Serif', 'Times New Roman', serif; text-anchor: middle; fill: #262626" x="625.878756" y="836.397187" transform="rotate(-0 625.878756 836.397187)">−0.990</text>
     </g>
    </g>
    <g id="xtick_5">
     <g id="line2d_9">
      <path d="M 781.822527 815.72 
L 781.822527 57.696 
" clip-path="url(#p299953d3c4)" style="fill: none; stroke: #ffffff; stroke-opacity: 0.4; stroke-linecap: round"/>
     </g>
     <g id="line2d_10"/>
     <g id="text_5">
      <text style="font-size: 18px; font-family: 'DejaVu Serif', 'Times New Roman', serif; text-anchor: middle; fill: #262626" x="781.822527" y="836.397187" transform="rotate(-0 781.822527 836.397187)">−0.985</text>
     </g>
    </g>
   </g>
   <g id="matplotlib.axis_2"/>
   <g id="FillBetweenPolyCollection_1">
    <defs>
     <path id="me799e2fa25" d="M 60.872727 -85.307535 
L 60.872727 -342.497411 
L 62.32528 -342.547196 
L 63.777833 -342.686211 
L 65.230386 -342.898456 
L 66.682939 -343.212143 
L 68.135492 -343.533491 
L 69.588045 -343.934365 
L 71.040598 -344.391476 
L 72.493151 -344.966613 
L 73.945704 -345.585874 
L 75.398257 -346.244103 
L 76.850809 -346.971028 
L 78.303362 -347.813355 
L 79.755915 -348.726535 
L 81.208468 -349.686371 
L 82.661021 -350.699068 
L 84.113574 -351.813704 
L 85.566127 -352.935793 
L 87.01868 -354.166232 
L 88.471233 -355.377394 
L 89.923786 -356.700327 
L 91.376339 -358.057981 
L 92.828892 -359.443204 
L 94.281445 -360.923308 
L 95.733998 -362.489048 
L 97.18655 -364.039694 
L 98.639103 -365.633489 
L 100.091656 -367.298063 
L 101.544209 -368.998811 
L 102.996762 -370.708925 
L 104.449315 -372.46803 
L 105.901868 -374.318059 
L 107.354421 -376.154304 
L 108.806974 -378.024436 
L 110.259527 -379.944278 
L 111.71208 -381.887907 
L 113.164633 -383.803213 
L 114.617186 -385.839233 
L 116.069738 -387.994369 
L 117.522291 -390.073299 
L 118.974844 -392.192382 
L 120.427397 -394.323059 
L 121.87995 -396.452579 
L 123.332503 -398.581383 
L 124.785056 -400.775534 
L 126.237609 -402.998667 
L 127.690162 -405.198755 
L 129.142715 -407.374308 
L 130.595268 -409.63094 
L 132.047821 -411.823632 
L 133.500374 -414.081015 
L 134.952927 -416.308928 
L 136.405479 -418.538683 
L 137.858032 -420.783454 
L 139.310585 -423.061032 
L 140.763138 -425.32163 
L 142.215691 -427.596993 
L 143.668244 -429.852146 
L 145.120797 -432.166324 
L 146.57335 -434.405329 
L 148.025903 -436.660872 
L 149.478456 -438.922885 
L 150.931009 -441.144161 
L 152.383562 -443.354136 
L 153.836115 -445.616032 
L 155.288667 -447.873794 
L 156.74122 -450.04455 
L 158.193773 -452.208744 
L 159.646326 -454.394563 
L 161.098879 -456.525356 
L 162.551432 -458.710006 
L 164.003985 -460.86334 
L 165.456538 -463.001022 
L 166.909091 -465.116021 
L 168.361644 -467.217205 
L 169.814197 -469.308908 
L 171.26675 -471.378625 
L 172.719303 -473.45497 
L 174.171856 -475.481902 
L 175.624408 -477.535567 
L 177.076961 -479.583893 
L 178.529514 -481.674393 
L 179.982067 -483.665015 
L 181.43462 -485.709733 
L 182.887173 -487.672089 
L 184.339726 -489.677837 
L 185.792279 -491.716112 
L 187.244832 -493.749527 
L 188.697385 -495.75225 
L 190.149938 -497.7299 
L 191.602491 -499.754492 
L 193.055044 -501.809011 
L 194.507597 -503.810101 
L 195.960149 -505.919686 
L 197.412702 -508.032182 
L 198.865255 -510.15653 
L 200.317808 -512.285648 
L 201.770361 -514.4303 
L 203.222914 -516.59092 
L 204.675467 -518.806167 
L 206.12802 -521.049139 
L 207.580573 -523.338301 
L 209.033126 -525.624099 
L 210.485679 -527.979757 
L 211.938232 -530.337146 
L 213.390785 -532.815657 
L 214.843337 -535.332556 
L 216.29589 -537.896751 
L 217.748443 -540.470289 
L 219.200996 -543.114298 
L 220.653549 -545.818593 
L 222.106102 -548.559171 
L 223.558655 -551.354632 
L 225.011208 -554.209884 
L 226.463761 -557.106908 
L 227.916314 -559.992979 
L 229.368867 -562.951621 
L 230.82142 -565.977998 
L 232.273973 -569.098842 
L 233.726526 -572.246041 
L 235.179078 -575.421396 
L 236.631631 -578.630577 
L 238.084184 -581.944464 
L 239.536737 -585.249873 
L 240.98929 -588.624487 
L 242.441843 -592.033724 
L 243.894396 -595.462 
L 245.346949 -598.97975 
L 246.799502 -602.497004 
L 248.252055 -605.96631 
L 249.704608 -609.510272 
L 251.157161 -613.109197 
L 252.609714 -616.731255 
L 254.062267 -620.285898 
L 255.514819 -623.946764 
L 256.967372 -627.551901 
L 258.419925 -631.089645 
L 259.872478 -634.623123 
L 261.325031 -638.221016 
L 262.777584 -641.733281 
L 264.230137 -645.206206 
L 265.68269 -648.657311 
L 267.135243 -652.055612 
L 268.587796 -655.484557 
L 270.040349 -658.848091 
L 271.492902 -662.137157 
L 272.945455 -665.393641 
L 274.398007 -668.634823 
L 275.85056 -671.807083 
L 277.303113 -674.914696 
L 278.755666 -677.964265 
L 280.208219 -680.947864 
L 281.660772 -683.833064 
L 283.113325 -686.611114 
L 284.565878 -689.314766 
L 286.018431 -691.911206 
L 287.470984 -694.491247 
L 288.923537 -696.908725 
L 290.37609 -699.297926 
L 291.828643 -701.588995 
L 293.281196 -703.765485 
L 294.733748 -705.840507 
L 296.186301 -707.896502 
L 297.638854 -709.825485 
L 299.091407 -711.643043 
L 300.54396 -713.374963 
L 301.996513 -715.028234 
L 303.449066 -716.525285 
L 304.901619 -717.99321 
L 306.354172 -719.324313 
L 307.806725 -720.621568 
L 309.259278 -721.817798 
L 310.711831 -722.935402 
L 312.164384 -723.923567 
L 313.616936 -724.826293 
L 315.069489 -725.605977 
L 316.522042 -726.322271 
L 317.974595 -727.002311 
L 319.427148 -727.587811 
L 320.879701 -728.099659 
L 322.332254 -728.629106 
L 323.784807 -729.116742 
L 325.23736 -729.475286 
L 326.689913 -729.797064 
L 328.142466 -730.038614 
L 329.595019 -730.22064 
L 331.047572 -730.375001 
L 332.500125 -730.422935 
L 333.952677 -730.487605 
L 335.40523 -730.393317 
L 336.857783 -730.43348 
L 338.310336 -730.37313 
L 339.762889 -730.358527 
L 341.215442 -730.307766 
L 342.667995 -730.231719 
L 344.120548 -730.071926 
L 345.573101 -729.952471 
L 347.025654 -729.846102 
L 348.478207 -729.736216 
L 349.93076 -729.552652 
L 351.383313 -729.441998 
L 352.835866 -729.274042 
L 354.288418 -729.1454 
L 355.740971 -729.087227 
L 357.193524 -729.03734 
L 358.646077 -728.931169 
L 360.09863 -728.89123 
L 361.551183 -728.861388 
L 363.003736 -728.896366 
L 364.456289 -728.883374 
L 365.908842 -728.995424 
L 367.361395 -729.10623 
L 368.813948 -729.286176 
L 370.266501 -729.481342 
L 371.719054 -729.757522 
L 373.171606 -729.968538 
L 374.624159 -730.253488 
L 376.076712 -730.632836 
L 377.529265 -731.079826 
L 378.981818 -731.542579 
L 380.434371 -732.099115 
L 381.886924 -732.666745 
L 383.339477 -733.288993 
L 384.79203 -733.963853 
L 386.244583 -734.647052 
L 387.697136 -735.431717 
L 389.149689 -736.192409 
L 390.602242 -737.074533 
L 392.054795 -738.007678 
L 393.507347 -739.001834 
L 394.9599 -740.003232 
L 396.412453 -741.054685 
L 397.865006 -742.089847 
L 399.317559 -743.230849 
L 400.770112 -744.363415 
L 402.222665 -745.565294 
L 403.675218 -746.761404 
L 405.127771 -747.99922 
L 406.580324 -749.226609 
L 408.032877 -750.52826 
L 409.48543 -751.826263 
L 410.937983 -753.100017 
L 412.390535 -754.359949 
L 413.843088 -755.657298 
L 415.295641 -756.901977 
L 416.748194 -758.134706 
L 418.200747 -759.399786 
L 419.6533 -760.623218 
L 421.105853 -761.768405 
L 422.558406 -762.911514 
L 424.010959 -763.99299 
L 425.463512 -764.974813 
L 426.916065 -765.97947 
L 428.368618 -766.900509 
L 429.821171 -767.70514 
L 431.273724 -768.496166 
L 432.726276 -769.187847 
L 434.178829 -769.804395 
L 435.631382 -770.321738 
L 437.083935 -770.797387 
L 438.536488 -771.205839 
L 439.989041 -771.527985 
L 441.441594 -771.707772 
L 442.894147 -771.818035 
L 444.3467 -771.848364 
L 445.799253 -771.826298 
L 447.251806 -771.660187 
L 448.704359 -771.412539 
L 450.156912 -771.03971 
L 451.609465 -770.545503 
L 453.062017 -770.074246 
L 454.51457 -769.45394 
L 455.967123 -768.685806 
L 457.419676 -767.873269 
L 458.872229 -766.988151 
L 460.324782 -766.001918 
L 461.777335 -764.901725 
L 463.229888 -763.743658 
L 464.682441 -762.487983 
L 466.134994 -761.188973 
L 467.587547 -759.836981 
L 469.0401 -758.419196 
L 470.492653 -756.911401 
L 471.945205 -755.312888 
L 473.397758 -753.74184 
L 474.850311 -752.023716 
L 476.302864 -750.344258 
L 477.755417 -748.684248 
L 479.20797 -746.935573 
L 480.660523 -745.097962 
L 482.113076 -743.283781 
L 483.565629 -741.507233 
L 485.018182 -739.613103 
L 486.470735 -737.770293 
L 487.923288 -735.889704 
L 489.375841 -733.993898 
L 490.828394 -732.148192 
L 492.280946 -730.293843 
L 493.733499 -728.423897 
L 495.186052 -726.51496 
L 496.638605 -724.634659 
L 498.091158 -722.790326 
L 499.543711 -720.910086 
L 500.996264 -719.100545 
L 502.448817 -717.307797 
L 503.90137 -715.48103 
L 505.353923 -713.681807 
L 506.806476 -711.870621 
L 508.259029 -710.107199 
L 509.711582 -708.296144 
L 511.164134 -706.504204 
L 512.616687 -704.721954 
L 514.06924 -703.006679 
L 515.521793 -701.241482 
L 516.974346 -699.485404 
L 518.426899 -697.804184 
L 519.879452 -696.105527 
L 521.332005 -694.393261 
L 522.784558 -692.685677 
L 524.237111 -690.972528 
L 525.689664 -689.227549 
L 527.142217 -687.509113 
L 528.59477 -685.776184 
L 530.047323 -683.983241 
L 531.499875 -682.242974 
L 532.952428 -680.450121 
L 534.404981 -678.706481 
L 535.857534 -676.889357 
L 537.310087 -674.984354 
L 538.76264 -673.143997 
L 540.215193 -671.216032 
L 541.667746 -669.217666 
L 543.120299 -667.170093 
L 544.572852 -665.192129 
L 546.025405 -663.16855 
L 547.477958 -661.109063 
L 548.930511 -659.029129 
L 550.383064 -656.916182 
L 551.835616 -654.807061 
L 553.288169 -652.54654 
L 554.740722 -650.349881 
L 556.193275 -648.027909 
L 557.645828 -645.700218 
L 559.098381 -643.332829 
L 560.550934 -640.973452 
L 562.003487 -638.552856 
L 563.45604 -636.178603 
L 564.908593 -633.710953 
L 566.361146 -631.232785 
L 567.813699 -628.736757 
L 569.266252 -626.223687 
L 570.718804 -623.750014 
L 572.171357 -621.266602 
L 573.62391 -618.731292 
L 575.076463 -616.160112 
L 576.529016 -613.620809 
L 577.981569 -611.07867 
L 579.434122 -608.526065 
L 580.886675 -605.98446 
L 582.339228 -603.432181 
L 583.791781 -600.968427 
L 585.244334 -598.452903 
L 586.696887 -596.033367 
L 588.14944 -593.594164 
L 589.601993 -591.252568 
L 591.054545 -588.917792 
L 592.507098 -586.679853 
L 593.959651 -584.465001 
L 595.412204 -582.309029 
L 596.864757 -580.17387 
L 598.31731 -578.05483 
L 599.769863 -576.004339 
L 601.222416 -573.96364 
L 602.674969 -572.006978 
L 604.127522 -570.091854 
L 605.580075 -568.267243 
L 607.032628 -566.449554 
L 608.485181 -564.697202 
L 609.937733 -562.932365 
L 611.390286 -561.239292 
L 612.842839 -559.633112 
L 614.295392 -558.052144 
L 615.747945 -556.529387 
L 617.200498 -555.011624 
L 618.653051 -553.571949 
L 620.105604 -552.132893 
L 621.558157 -550.746908 
L 623.01071 -549.357646 
L 624.463263 -547.948797 
L 625.915816 -546.603173 
L 627.368369 -545.247666 
L 628.820922 -543.935789 
L 630.273474 -542.594411 
L 631.726027 -541.273357 
L 633.17858 -539.924166 
L 634.631133 -538.58419 
L 636.083686 -537.234264 
L 637.536239 -535.854198 
L 638.988792 -534.447538 
L 640.441345 -533.089455 
L 641.893898 -531.656553 
L 643.346451 -530.200575 
L 644.799004 -528.724956 
L 646.251557 -527.185806 
L 647.70411 -525.616181 
L 649.156663 -523.997602 
L 650.609215 -522.352406 
L 652.061768 -520.614845 
L 653.514321 -518.86862 
L 654.966874 -517.067944 
L 656.419427 -515.16947 
L 657.87198 -513.217857 
L 659.324533 -511.185581 
L 660.777086 -509.142723 
L 662.229639 -507.0105 
L 663.682192 -504.832368 
L 665.134745 -502.580632 
L 666.587298 -500.281126 
L 668.039851 -497.963646 
L 669.492403 -495.541927 
L 670.944956 -493.092579 
L 672.397509 -490.498596 
L 673.850062 -487.964327 
L 675.302615 -485.353746 
L 676.755168 -482.629011 
L 678.207721 -479.844595 
L 679.660274 -477.039359 
L 681.112827 -474.163039 
L 682.56538 -471.252499 
L 684.017933 -468.365272 
L 685.470486 -465.350332 
L 686.923039 -462.359614 
L 688.375592 -459.288434 
L 689.828144 -456.182535 
L 691.280697 -453.079808 
L 692.73325 -449.940544 
L 694.185803 -446.764807 
L 695.638356 -443.547946 
L 697.090909 -440.320264 
L 698.543462 -437.12024 
L 699.996015 -433.881676 
L 701.448568 -430.648128 
L 702.901121 -427.344069 
L 704.353674 -424.080489 
L 705.806227 -420.860112 
L 707.25878 -417.596598 
L 708.711333 -414.31432 
L 710.163885 -411.018898 
L 711.616438 -407.764434 
L 713.068991 -404.55436 
L 714.521544 -401.391376 
L 715.974097 -398.270567 
L 717.42665 -395.134815 
L 718.879203 -392.072797 
L 720.331756 -389.007071 
L 721.784309 -386.035169 
L 723.236862 -383.101044 
L 724.689415 -380.234613 
L 726.141968 -377.389911 
L 727.594521 -374.576061 
L 729.047073 -371.861763 
L 730.499626 -369.189081 
L 731.952179 -366.614064 
L 733.404732 -364.065978 
L 734.857285 -361.599236 
L 736.309838 -359.233048 
L 737.762391 -356.877843 
L 739.214944 -354.622065 
L 740.667497 -352.44552 
L 742.12005 -350.379923 
L 743.572603 -348.404811 
L 745.025156 -346.495188 
L 746.477709 -344.660685 
L 747.930262 -342.878717 
L 749.382814 -341.23052 
L 750.835367 -339.620805 
L 752.28792 -338.1348 
L 753.740473 -336.673118 
L 755.193026 -335.361143 
L 756.645579 -334.11424 
L 758.098132 -332.925336 
L 759.550685 -331.81293 
L 761.003238 -330.788711 
L 762.455791 -329.809797 
L 763.908344 -328.885983 
L 765.360897 -328.040393 
L 766.81345 -327.290656 
L 768.266002 -326.566117 
L 769.718555 -325.909941 
L 771.171108 -325.362039 
L 772.623661 -324.855423 
L 774.076214 -324.388507 
L 775.528767 -323.944706 
L 776.98132 -323.594596 
L 778.433873 -323.224516 
L 779.886426 -322.874176 
L 781.338979 -322.60693 
L 782.791532 -322.360949 
L 784.244085 -322.152557 
L 785.696638 -321.953006 
L 787.149191 -321.80146 
L 788.601743 -321.651394 
L 790.054296 -321.521747 
L 791.506849 -321.420368 
L 792.959402 -321.385065 
L 794.411955 -321.338774 
L 795.864508 -321.290437 
L 797.317061 -321.305781 
L 798.769614 -321.296171 
L 800.222167 -321.292885 
L 801.67472 -321.285395 
L 803.127273 -321.277782 
L 803.127273 -85.307535 
L 803.127273 -85.307535 
L 801.67472 -85.307535 
L 800.222167 -85.307535 
L 798.769614 -85.307535 
L 797.317061 -85.307535 
L 795.864508 -85.307535 
L 794.411955 -85.307535 
L 792.959402 -85.307535 
L 791.506849 -85.307535 
L 790.054296 -85.307535 
L 788.601743 -85.307535 
L 787.149191 -85.307535 
L 785.696638 -85.307535 
L 784.244085 -85.307535 
L 782.791532 -85.307535 
L 781.338979 -85.307535 
L 779.886426 -85.307535 
L 778.433873 -85.307535 
L 776.98132 -85.307535 
L 775.528767 -85.307535 
L 774.076214 -85.307535 
L 772.623661 -85.307535 
L 771.171108 -85.307535 
L 769.718555 -85.307535 
L 768.266002 -85.307535 
L 766.81345 -85.307535 
L 765.360897 -85.307535 
L 763.908344 -85.307535 
L 762.455791 -85.307535 
L 761.003238 -85.307535 
L 759.550685 -85.307535 
L 758.098132 -85.307535 
L 756.645579 -85.307535 
L 755.193026 -85.307535 
L 753.740473 -85.307535 
L 752.28792 -85.307535 
L 750.835367 -85.307535 
L 749.382814 -85.307535 
L 747.930262 -85.307535 
L 746.477709 -85.307535 
L 745.025156 -85.307535 
L 743.572603 -85.307535 
L 742.12005 -85.307535 
L 740.667497 -85.307535 
L 739.214944 -85.307535 
L 737.762391 -85.307535 
L 736.309838 -85.307535 
L 734.857285 -85.307535 
L 733.404732 -85.307535 
L 731.952179 -85.307535 
L 730.499626 -85.307535 
L 729.047073 -85.307535 
L 727.594521 -85.307535 
L 726.141968 -85.307535 
L 724.689415 -85.307535 
L 723.236862 -85.307535 
L 721.784309 -85.307535 
L 720.331756 -85.307535 
L 718.879203 -85.307535 
L 717.42665 -85.307535 
L 715.974097 -85.307535 
L 714.521544 -85.307535 
L 713.068991 -85.307535 
L 711.616438 -85.307535 
L 710.163885 -85.307535 
L 708.711333 -85.307535 
L 707.25878 -85.307535 
L 705.806227 -85.307535 
L 704.353674 -85.307535 
L 702.901121 -85.307535 
L 701.448568 -85.307535 
L 699.996015 -85.307535 
L 698.543462 -85.307535 
L 697.090909 -85.307535 
L 695.638356 -85.307535 
L 694.185803 -85.307535 
L 692.73325 -85.307535 
L 691.280697 -85.307535 
L 689.828144 -85.307535 
L 688.375592 -85.307535 
L 686.923039 -85.307535 
L 685.470486 -85.307535 
L 684.017933 -85.307535 
L 682.56538 -85.307535 
L 681.112827 -85.307535 
L 679.660274 -85.307535 
L 678.207721 -85.307535 
L 676.755168 -85.307535 
L 675.302615 -85.307535 
L 673.850062 -85.307535 
L 672.397509 -85.307535 
L 670.944956 -85.307535 
L 669.492403 -85.307535 
L 668.039851 -85.307535 
L 666.587298 -85.307535 
L 665.134745 -85.307535 
L 663.682192 -85.307535 
L 662.229639 -85.307535 
L 660.777086 -85.307535 
L 659.324533 -85.307535 
L 657.87198 -85.307535 
L 656.419427 -85.307535 
L 654.966874 -85.307535 
L 653.514321 -85.307535 
L 652.061768 -85.307535 
L 650.609215 -85.307535 
L 649.156663 -85.307535 
L 647.70411 -85.307535 
L 646.251557 -85.307535 
L 644.799004 -85.307535 
L 643.346451 -85.307535 
L 641.893898 -85.307535 
L 640.441345 -85.307535 
L 638.988792 -85.307535 
L 637.536239 -85.307535 
L 636.083686 -85.307535 
L 634.631133 -85.307535 
L 633.17858 -85.307535 
L 631.726027 -85.307535 
L 630.273474 -85.307535 
L 628.820922 -85.307535 
L 627.368369 -85.307535 
L 625.915816 -85.307535 
L 624.463263 -85.307535 
L 623.01071 -85.307535 
L 621.558157 -85.307535 
L 620.105604 -85.307535 
L 618.653051 -85.307535 
L 617.200498 -85.307535 
L 615.747945 -85.307535 
L 614.295392 -85.307535 
L 612.842839 -85.307535 
L 611.390286 -85.307535 
L 609.937733 -85.307535 
L 608.485181 -85.307535 
L 607.032628 -85.307535 
L 605.580075 -85.307535 
L 604.127522 -85.307535 
L 602.674969 -85.307535 
L 601.222416 -85.307535 
L 599.769863 -85.307535 
L 598.31731 -85.307535 
L 596.864757 -85.307535 
L 595.412204 -85.307535 
L 593.959651 -85.307535 
L 592.507098 -85.307535 
L 591.054545 -85.307535 
L 589.601993 -85.307535 
L 588.14944 -85.307535 
L 586.696887 -85.307535 
L 585.244334 -85.307535 
L 583.791781 -85.307535 
L 582.339228 -85.307535 
L 580.886675 -85.307535 
L 579.434122 -85.307535 
L 577.981569 -85.307535 
L 576.529016 -85.307535 
L 575.076463 -85.307535 
L 573.62391 -85.307535 
L 572.171357 -85.307535 
L 570.718804 -85.307535 
L 569.266252 -85.307535 
L 567.813699 -85.307535 
L 566.361146 -85.307535 
L 564.908593 -85.307535 
L 563.45604 -85.307535 
L 562.003487 -85.307535 
L 560.550934 -85.307535 
L 559.098381 -85.307535 
L 557.645828 -85.307535 
L 556.193275 -85.307535 
L 554.740722 -85.307535 
L 553.288169 -85.307535 
L 551.835616 -85.307535 
L 550.383064 -85.307535 
L 548.930511 -85.307535 
L 547.477958 -85.307535 
L 546.025405 -85.307535 
L 544.572852 -85.307535 
L 543.120299 -85.307535 
L 541.667746 -85.307535 
L 540.215193 -85.307535 
L 538.76264 -85.307535 
L 537.310087 -85.307535 
L 535.857534 -85.307535 
L 534.404981 -85.307535 
L 532.952428 -85.307535 
L 531.499875 -85.307535 
L 530.047323 -85.307535 
L 528.59477 -85.307535 
L 527.142217 -85.307535 
L 525.689664 -85.307535 
L 524.237111 -85.307535 
L 522.784558 -85.307535 
L 521.332005 -85.307535 
L 519.879452 -85.307535 
L 518.426899 -85.307535 
L 516.974346 -85.307535 
L 515.521793 -85.307535 
L 514.06924 -85.307535 
L 512.616687 -85.307535 
L 511.164134 -85.307535 
L 509.711582 -85.307535 
L 508.259029 -85.307535 
L 506.806476 -85.307535 
L 505.353923 -85.307535 
L 503.90137 -85.307535 
L 502.448817 -85.307535 
L 500.996264 -85.307535 
L 499.543711 -85.307535 
L 498.091158 -85.307535 
L 496.638605 -85.307535 
L 495.186052 -85.307535 
L 493.733499 -85.307535 
L 492.280946 -85.307535 
L 490.828394 -85.307535 
L 489.375841 -85.307535 
L 487.923288 -85.307535 
L 486.470735 -85.307535 
L 485.018182 -85.307535 
L 483.565629 -85.307535 
L 482.113076 -85.307535 
L 480.660523 -85.307535 
L 479.20797 -85.307535 
L 477.755417 -85.307535 
L 476.302864 -85.307535 
L 474.850311 -85.307535 
L 473.397758 -85.307535 
L 471.945205 -85.307535 
L 470.492653 -85.307535 
L 469.0401 -85.307535 
L 467.587547 -85.307535 
L 466.134994 -85.307535 
L 464.682441 -85.307535 
L 463.229888 -85.307535 
L 461.777335 -85.307535 
L 460.324782 -85.307535 
L 458.872229 -85.307535 
L 457.419676 -85.307535 
L 455.967123 -85.307535 
L 454.51457 -85.307535 
L 453.062017 -85.307535 
L 451.609465 -85.307535 
L 450.156912 -85.307535 
L 448.704359 -85.307535 
L 447.251806 -85.307535 
L 445.799253 -85.307535 
L 444.3467 -85.307535 
L 442.894147 -85.307535 
L 441.441594 -85.307535 
L 439.989041 -85.307535 
L 438.536488 -85.307535 
L 437.083935 -85.307535 
L 435.631382 -85.307535 
L 434.178829 -85.307535 
L 432.726276 -85.307535 
L 431.273724 -85.307535 
L 429.821171 -85.307535 
L 428.368618 -85.307535 
L 426.916065 -85.307535 
L 425.463512 -85.307535 
L 424.010959 -85.307535 
L 422.558406 -85.307535 
L 421.105853 -85.307535 
L 419.6533 -85.307535 
L 418.200747 -85.307535 
L 416.748194 -85.307535 
L 415.295641 -85.307535 
L 413.843088 -85.307535 
L 412.390535 -85.307535 
L 410.937983 -85.307535 
L 409.48543 -85.307535 
L 408.032877 -85.307535 
L 406.580324 -85.307535 
L 405.127771 -85.307535 
L 403.675218 -85.307535 
L 402.222665 -85.307535 
L 400.770112 -85.307535 
L 399.317559 -85.307535 
L 397.865006 -85.307535 
L 396.412453 -85.307535 
L 394.9599 -85.307535 
L 393.507347 -85.307535 
L 392.054795 -85.307535 
L 390.602242 -85.307535 
L 389.149689 -85.307535 
L 387.697136 -85.307535 
L 386.244583 -85.307535 
L 384.79203 -85.307535 
L 383.339477 -85.307535 
L 381.886924 -85.307535 
L 380.434371 -85.307535 
L 378.981818 -85.307535 
L 377.529265 -85.307535 
L 376.076712 -85.307535 
L 374.624159 -85.307535 
L 373.171606 -85.307535 
L 371.719054 -85.307535 
L 370.266501 -85.307535 
L 368.813948 -85.307535 
L 367.361395 -85.307535 
L 365.908842 -85.307535 
L 364.456289 -85.307535 
L 363.003736 -85.307535 
L 361.551183 -85.307535 
L 360.09863 -85.307535 
L 358.646077 -85.307535 
L 357.193524 -85.307535 
L 355.740971 -85.307535 
L 354.288418 -85.307535 
L 352.835866 -85.307535 
L 351.383313 -85.307535 
L 349.93076 -85.307535 
L 348.478207 -85.307535 
L 347.025654 -85.307535 
L 345.573101 -85.307535 
L 344.120548 -85.307535 
L 342.667995 -85.307535 
L 341.215442 -85.307535 
L 339.762889 -85.307535 
L 338.310336 -85.307535 
L 336.857783 -85.307535 
L 335.40523 -85.307535 
L 333.952677 -85.307535 
L 332.500125 -85.307535 
L 331.047572 -85.307535 
L 329.595019 -85.307535 
L 328.142466 -85.307535 
L 326.689913 -85.307535 
L 325.23736 -85.307535 
L 323.784807 -85.307535 
L 322.332254 -85.307535 
L 320.879701 -85.307535 
L 319.427148 -85.307535 
L 317.974595 -85.307535 
L 316.522042 -85.307535 
L 315.069489 -85.307535 
L 313.616936 -85.307535 
L 312.164384 -85.307535 
L 310.711831 -85.307535 
L 309.259278 -85.307535 
L 307.806725 -85.307535 
L 306.354172 -85.307535 
L 304.901619 -85.307535 
L 303.449066 -85.307535 
L 301.996513 -85.307535 
L 300.54396 -85.307535 
L 299.091407 -85.307535 
L 297.638854 -85.307535 
L 296.186301 -85.307535 
L 294.733748 -85.307535 
L 293.281196 -85.307535 
L 291.828643 -85.307535 
L 290.37609 -85.307535 
L 288.923537 -85.307535 
L 287.470984 -85.307535 
L 286.018431 -85.307535 
L 284.565878 -85.307535 
L 283.113325 -85.307535 
L 281.660772 -85.307535 
L 280.208219 -85.307535 
L 278.755666 -85.307535 
L 277.303113 -85.307535 
L 275.85056 -85.307535 
L 274.398007 -85.307535 
L 272.945455 -85.307535 
L 271.492902 -85.307535 
L 270.040349 -85.307535 
L 268.587796 -85.307535 
L 267.135243 -85.307535 
L 265.68269 -85.307535 
L 264.230137 -85.307535 
L 262.777584 -85.307535 
L 261.325031 -85.307535 
L 259.872478 -85.307535 
L 258.419925 -85.307535 
L 256.967372 -85.307535 
L 255.514819 -85.307535 
L 254.062267 -85.307535 
L 252.609714 -85.307535 
L 251.157161 -85.307535 
L 249.704608 -85.307535 
L 248.252055 -85.307535 
L 246.799502 -85.307535 
L 245.346949 -85.307535 
L 243.894396 -85.307535 
L 242.441843 -85.307535 
L 240.98929 -85.307535 
L 239.536737 -85.307535 
L 238.084184 -85.307535 
L 236.631631 -85.307535 
L 235.179078 -85.307535 
L 233.726526 -85.307535 
L 232.273973 -85.307535 
L 230.82142 -85.307535 
L 229.368867 -85.307535 
L 227.916314 -85.307535 
L 226.463761 -85.307535 
L 225.011208 -85.307535 
L 223.558655 -85.307535 
L 222.106102 -85.307535 
L 220.653549 -85.307535 
L 219.200996 -85.307535 
L 217.748443 -85.307535 
L 216.29589 -85.307535 
L 214.843337 -85.307535 
L 213.390785 -85.307535 
L 211.938232 -85.307535 
L 210.485679 -85.307535 
L 209.033126 -85.307535 
L 207.580573 -85.307535 
L 206.12802 -85.307535 
L 204.675467 -85.307535 
L 203.222914 -85.307535 
L 201.770361 -85.307535 
L 200.317808 -85.307535 
L 198.865255 -85.307535 
L 197.412702 -85.307535 
L 195.960149 -85.307535 
L 194.507597 -85.307535 
L 193.055044 -85.307535 
L 191.602491 -85.307535 
L 190.149938 -85.307535 
L 188.697385 -85.307535 
L 187.244832 -85.307535 
L 185.792279 -85.307535 
L 184.339726 -85.307535 
L 182.887173 -85.307535 
L 181.43462 -85.307535 
L 179.982067 -85.307535 
L 178.529514 -85.307535 
L 177.076961 -85.307535 
L 175.624408 -85.307535 
L 174.171856 -85.307535 
L 172.719303 -85.307535 
L 171.26675 -85.307535 
L 169.814197 -85.307535 
L 168.361644 -85.307535 
L 166.909091 -85.307535 
L 165.456538 -85.307535 
L 164.003985 -85.307535 
L 162.551432 -85.307535 
L 161.098879 -85.307535 
L 159.646326 -85.307535 
L 158.193773 -85.307535 
L 156.74122 -85.307535 
L 155.288667 -85.307535 
L 153.836115 -85.307535 
L 152.383562 -85.307535 
L 150.931009 -85.307535 
L 149.478456 -85.307535 
L 148.025903 -85.307535 
L 146.57335 -85.307535 
L 145.120797 -85.307535 
L 143.668244 -85.307535 
L 142.215691 -85.307535 
L 140.763138 -85.307535 
L 139.310585 -85.307535 
L 137.858032 -85.307535 
L 136.405479 -85.307535 
L 134.952927 -85.307535 
L 133.500374 -85.307535 
L 132.047821 -85.307535 
L 130.595268 -85.307535 
L 129.142715 -85.307535 
L 127.690162 -85.307535 
L 126.237609 -85.307535 
L 124.785056 -85.307535 
L 123.332503 -85.307535 
L 121.87995 -85.307535 
L 120.427397 -85.307535 
L 118.974844 -85.307535 
L 117.522291 -85.307535 
L 116.069738 -85.307535 
L 114.617186 -85.307535 
L 113.164633 -85.307535 
L 111.71208 -85.307535 
L 110.259527 -85.307535 
L 108.806974 -85.307535 
L 107.354421 -85.307535 
L 105.901868 -85.307535 
L 104.449315 -85.307535 
L 102.996762 -85.307535 
L 101.544209 -85.307535 
L 100.091656 -85.307535 
L 98.639103 -85.307535 
L 97.18655 -85.307535 
L 95.733998 -85.307535 
L 94.281445 -85.307535 
L 92.828892 -85.307535 
L 91.376339 -85.307535 
L 89.923786 -85.307535 
L 88.471233 -85.307535 
L 87.01868 -85.307535 
L 85.566127 -85.307535 
L 84.113574 -85.307535 
L 82.661021 -85.307535 
L 81.208468 -85.307535 
L 79.755915 -85.307535 
L 78.303362 -85.307535 
L 76.850809 -85.307535 
L 75.398257 -85.307535 
L 73.945704 -85.307535 
L 72.493151 -85.307535 
L 71.040598 -85.307535 
L 69.588045 -85.307535 
L 68.135492 -85.307535 
L 66.682939 -85.307535 
L 65.230386 -85.307535 
L 63.777833 -85.307535 
L 62.32528 -85.307535 
L 60.872727 -85.307535 
z
" style="stroke: #6cb7ff; stroke-opacity: 0.6; stroke-width: 0.3"/>
    </defs>
    <g clip-path="url(#p299953d3c4)">
     <use xlink:href="#me799e2fa25" x="0" y="864" style="fill: #6cb7ff; fill-opacity: 0.6; stroke: #6cb7ff; stroke-opacity: 0.6; stroke-width: 0.3"/>
    </g>
   </g>
   <g id="line2d_11">
    <path d="M 60.872727 521.502589 
L 63.777833 521.313789 
L 66.682939 520.787857 
L 69.588045 520.065635 
L 71.040598 519.608524 
L 73.945704 518.414126 
L 76.850809 517.028972 
L 79.755915 515.273465 
L 82.661021 513.300932 
L 87.01868 509.833768 
L 89.923786 507.299673 
L 94.281445 503.076692 
L 100.091656 496.701937 
L 104.449315 491.53197 
L 111.71208 482.112093 
L 114.617186 478.160767 
L 132.047821 452.176368 
L 156.74122 413.95545 
L 168.361644 396.782795 
L 178.529514 382.325607 
L 191.602491 364.245508 
L 198.865255 353.84347 
L 204.675467 345.193833 
L 210.485679 336.020243 
L 213.390785 331.184343 
L 217.748443 323.529711 
L 222.106102 315.440829 
L 226.463761 306.893092 
L 230.82142 298.022002 
L 236.631631 285.369423 
L 243.894396 268.538 
L 254.062267 243.714102 
L 258.419925 232.910355 
L 267.135243 211.944388 
L 271.492902 201.862843 
L 277.303113 189.085304 
L 281.660772 180.166936 
L 284.565878 174.685234 
L 288.923537 167.091275 
L 291.828643 162.411005 
L 294.733748 158.159493 
L 297.638854 154.174515 
L 300.54396 150.625037 
L 303.449066 147.474715 
L 306.354172 144.675687 
L 309.259278 142.182202 
L 312.164384 140.076433 
L 315.069489 138.394023 
L 317.974595 136.997689 
L 320.879701 135.900341 
L 323.784807 134.883258 
L 326.689913 134.202936 
L 329.595019 133.77936 
L 332.500125 133.577065 
L 333.952677 133.512395 
L 335.40523 133.606683 
L 338.310336 133.62687 
L 342.667995 133.768281 
L 347.025654 134.153898 
L 351.383313 134.558002 
L 354.288418 134.8546 
L 363.003736 135.103634 
L 364.456289 135.116626 
L 368.813948 134.713824 
L 373.171606 134.031462 
L 376.076712 133.367164 
L 378.981818 132.457421 
L 383.339477 130.711007 
L 387.697136 128.568283 
L 390.602242 126.925467 
L 394.9599 123.996768 
L 399.317559 120.769151 
L 403.675218 117.238596 
L 409.48543 112.173737 
L 419.6533 103.376782 
L 424.010959 100.00701 
L 428.368618 97.099491 
L 432.726276 94.812153 
L 435.631382 93.678262 
L 438.536488 92.794161 
L 439.989041 92.472015 
L 442.894147 92.181965 
L 445.799253 92.173702 
L 448.704359 92.587461 
L 450.156912 92.96029 
L 454.51457 94.54606 
L 457.419676 96.126731 
L 460.324782 97.998082 
L 463.229888 100.256342 
L 467.587547 104.163019 
L 470.492653 107.088599 
L 474.850311 111.976284 
L 479.20797 117.064427 
L 493.733499 135.576103 
L 499.543711 143.089914 
L 512.616687 159.278046 
L 530.047323 180.016759 
L 535.857534 187.110643 
L 541.667746 194.782334 
L 551.835616 209.192939 
L 559.098381 220.667171 
L 564.908593 230.289047 
L 575.076463 247.839888 
L 586.696887 267.966633 
L 591.054545 275.082208 
L 595.412204 281.690971 
L 601.222416 290.03636 
L 605.580075 295.732757 
L 609.937733 301.067635 
L 612.842839 304.366888 
L 617.200498 308.988376 
L 624.463263 316.051203 
L 641.893898 332.343447 
L 646.251557 336.814194 
L 650.609215 341.647594 
L 654.966874 346.932056 
L 657.87198 350.782143 
L 662.229639 356.9895 
L 666.587298 363.718874 
L 669.492403 368.458073 
L 672.397509 373.501404 
L 675.302615 378.646254 
L 679.660274 386.960641 
L 685.470486 398.649668 
L 689.828144 407.817465 
L 695.638356 420.452054 
L 710.163885 452.981102 
L 715.974097 465.729433 
L 720.331756 474.992929 
L 724.689415 483.765387 
L 729.047073 492.138237 
L 733.404732 499.934022 
L 737.762391 507.122157 
L 740.667497 511.55448 
L 743.572603 515.595189 
L 746.477709 519.339315 
L 749.382814 522.76948 
L 752.28792 525.8652 
L 755.193026 528.638857 
L 758.098132 531.074664 
L 761.003238 533.211289 
L 763.908344 535.114017 
L 766.81345 536.709344 
L 769.718555 538.090059 
L 772.623661 539.144577 
L 775.528767 540.055294 
L 781.338979 541.39307 
L 785.696638 542.046994 
L 791.506849 542.579632 
L 800.222167 542.707115 
L 803.127273 542.722218 
L 803.127273 542.722218 
" clip-path="url(#p299953d3c4)" style="fill: none; stroke: #7570b3; stroke-width: 2; stroke-linecap: round"/>
   </g>
   <g id="line2d_12">
    <path d="M 60.872727 781.264364 
L 60.872727 521.502589 
" clip-path="url(#p299953d3c4)" style="fill: none; stroke: #7570b3; stroke-width: 2; stroke-linecap: round"/>
   </g>
   <g id="line2d_13">
    <path d="M 803.127273 781.052167 
L 803.127273 542.722218 
" clip-path="url(#p299953d3c4)" style="fill: none; stroke: #7570b3; stroke-width: 2; stroke-linecap: round"/>
   </g>
   <g id="line2d_14">
    <defs>
     <path id="m775a2587e8" d="M 0 3.5 
C 0.928211 3.5 1.81853 3.131218 2.474874 2.474874 
C 3.131218 1.81853 3.5 0.928211 3.5 0 
C 3.5 -0.928211 3.131218 -1.81853 2.474874 -2.474874 
C 1.81853 -3.131218 0.928211 -3.5 0 -3.5 
C -0.928211 -3.5 -1.81853 -3.131218 -2.474874 -2.474874 
C -3.131218 -1.81853 -3.5 -0.928211 -3.5 0 
C -3.5 0.928211 -3.131218 1.81853 -2.474874 2.474874 
C -1.81853 3.131218 -0.928211 3.5 0 3.5 
z
"/>
    </defs>
    <g clip-path="url(#p299953d3c4)">
     <use xlink:href="#m775a2587e8" x="423.215745" y="778.692465" style="fill: #7570b3"/>
    </g>
   </g>
   <g id="patch_3">
    <path d="M 23.76 815.72 
L 840.24 815.72 
" style="fill: none; stroke: #333333; stroke-width: 1.5; stroke-linejoin: miter; stroke-linecap: square"/>
   </g>
   <g id="text_6">
    <!-- $x_1^2$ -->
    <g style="fill: #262626" transform="translate(416.46 49.856)">
     <text>
      <tspan x="0" y="-0.734375" style="font-style: oblique; font-size: 28px; font-family: 'DejaVu Sans'; fill: #262626">x</tspan>
      <tspan x="16.570312" y="6.921875" style="font-size: 19.6px; font-family: 'DejaVu Sans'; fill: #262626">1</tspan>
      <tspan x="17.820833" y="-11.453125" style="font-size: 19.6px; font-family: 'DejaVu Sans'; fill: #262626">2</tspan>
     </text>
    </g>
   </g>
  </g>
 </g>
 <defs>
  <clipPath id="p299953d3c4">
   <rect x="23.76" y="57.696" width="816.48" height="758.024"/>
  </clipPath>
 </defs>
</svg>
