<?xml version="1.0" encoding="utf-8" standalone="no"?>
<!DOCTYPE svg PUBLIC "-//W3C//DTD SVG 1.1//EN"
  "http://www.w3.org/Graphics/SVG/1.1/DTD/svg11.dtd">
<svg xmlns:xlink="http://www.w3.org/1999/xlink" width="864pt" height="864pt" viewBox="0 0 864 864" xmlns="http://www.w3.org/2000/svg" version="1.1">
 <metadata>
  <rdf:RDF xmlns:dc="http://purl.org/dc/elements/1.1/" xmlns:cc="http://creativecommons.org/ns#" xmlns:rdf="http://www.w3.org/1999/02/22-rdf-syntax-ns#">
   <cc:Work>
    <dc:type rdf:resource="http://purl.org/dc/dcmitype/StillImage"/>
    <dc:date>2026-03-13T22:48:05.966825</dc:date>
    <dc:format>image/svg+xml</dc:format>
    <dc:creator>
     <cc:Agent>
      <dc:title>Matplotlib v3.10.6, https://matplotlib.org/</dc:title>
     </cc:Agent>
    </dc:creator>
   </cc:Work>
  </rdf:RDF>
 </metadata>
 <defs>
  <style type="text/css">*{stroke-linejoin: round; stroke-linecap: butt}</style>
 </defs>
 <g id="figure_1">
  <g id="patch_1">
   <path d="M 0 864 
L 864 864 
L 864 0 
L 0 0 
L 0 864 
z
" style="fill: none; opacity: 0"/>
  </g>
  <g id="axes_1">
   <g id="patch_2">
    <path d="M 49.865767 815.72 
L 840.24 815.72 
L 840.24 57.696 
L 49.865767 57.696 
L 49.865767 815.72 
z
" style="fill: none"/>
   </g>
   <g id="matplotlib.axis_1">
    <g id="xtick_1">
     <g id="line2d_1">
      <path d="M 58.393019 815.72 
L 58.393019 57.696 
" clip-path="url(#pa07f12fa79)" style="fill: none; stroke: #ffffff; stroke-opacity: 0.4; stroke-linecap: round"/>
     </g>
     <g id="line2d_2"/>
     <g id="text_1">
      <text style="font-size: 18px; font-family: 'DejaVu Serif', 'Times New Roman', serif; text-anchor: middle; fill: #262626" x="58.393019" y="836.397187" transform="rotate(-0 58.393019 836.397187)">−0.265</text>
     </g>
    </g>
    <g id="xtick_2">
     <g id="line2d_3">
      <path d="M 195.72682 815.72 
L 195.72682 57.696 
" clip-path="url(#pa07f12fa79)" style="fill: none; stroke: #ffffff; stroke-opacity: 0.4; stroke-linecap: round"/>
     </g>
     <g id="line2d_4"/>
     <g id="text_2">
      <text style="font-size: 18px; font-family: 'DejaVu Serif', 'Times New Roman', serif; text-anchor: middle; fill: #262626" x="195.72682" y="836.397187" transform="rotate(-0 195.72682 836.397187)">−0.260</text>
     </g>
    </g>
    <g id="xtick_3">
     <g id="line2d_5">
      <path d="M 333.060622 815.72 
L 333.060622 57.696 
" clip-path="url(#pa07f12fa79)" style="fill: none; stroke: #ffffff; stroke-opacity: 0.4; stroke-linecap: round"/>
     </g>
     <g id="line2d_6"/>
     <g id="text_3">
      <text style="font-size: 18px; font-family: 'DejaVu Serif', 'Times New Roman', serif; text-anchor: middle; fill: #262626" x="333.060622" y="836.397187" transform="rotate(-0 333.060622 836.397187)">−0.255</text>
     </g>
    </g>
    <g id="xtick_4">
     <g id="line2d_7">
      <path d="M 470.394424 815.72 
L 470.394424 57.696 
" clip-path="url(#pa07f12fa79)" style="fill: none; stroke: #ffffff; stroke-opacity: 0.4; stroke-linecap: round"/>
     </g>
     <g id="line2d_8"/>
     <g id="text_4">
      <text style="font-size: 18px; font-family: 'DejaVu Serif', 'Times New Roman', serif; text-anchor: middle; fill: #262626" x="470.394424" y="836.397187" transform="rotate(-0 470.394424 836.397187)">−0.250</text>
     </g>
    </g>
    <g id="xtick_5">
     <g id="line2d_9">
      <path d="M 607.728226 815.72 
L 607.728226 57.696 
" clip-path="url(#pa07f12fa79)" style="fill: none; stroke: #ffffff; stroke-opacity: 0.4; stroke-linecap: round"/>
     </g>
     <g id="line2d_10"/>
     <g id="text_5">
      <text style="font-size: 18px; font-family: 'DejaVu Serif', 'Times New Roman', serif; text-anchor: middle; fill: #262626" x="607.728226" y="836.397187" transform="rotate(-0 607.728226 836.397187)">−0.245</text>
     </g>
    </g>
    <g id="xtick_6">
     <g id="line2d_11">
      <path d="M 745.062028 815.72 
L 745.062028 57.696 
" clip-path="url(#pa07f12fa79)" style="fill: none; stroke: #ffffff; stroke-opacity: 0.4; stroke-linecap: round"/>
     </g>
     <g id="line2d_12"/>
     <g id="text_6">
      <text style="font-size: 18px; font-family: 'DejaVu Serif', 'Times New Roman', serif; text-anchor: middle; fill: #262626" x="745.062028" y="836.397187" transform="rotate(-0 745.062028 836.397187)">−0.240</text>
     </g>
    </g>
   </g>
   <g id="matplotlib.axis_2"/>
   <g id="FillBetweenPolyCollection_1">
    <defs>
     <path id="ma9d7d60d95" d="M 85.791869 -85.425321 
L 85.791869 -354.393829 
L 87.197978 -354.408995 
L 88.604088 -354.440049 
L 90.010198 -354.533237 
L 91.416307 -354.690442 
L 92.822417 -354.851089 
L 94.228526 -355.044723 
L 95.634636 -355.255146 
L 97.040746 -355.544087 
L 98.446855 -355.823337 
L 99.852965 -356.195607 
L 101.259075 -356.605766 
L 102.665184 -357.004471 
L 104.071294 -357.421283 
L 105.477404 -357.902676 
L 106.883513 -358.397844 
L 108.289623 -358.939501 
L 109.695733 -359.550994 
L 111.101842 -360.147993 
L 112.507952 -360.797409 
L 113.914062 -361.448648 
L 115.320171 -362.139747 
L 116.726281 -362.879245 
L 118.13239 -363.682038 
L 119.5385 -364.435221 
L 120.94461 -365.269606 
L 122.350719 -366.135071 
L 123.756829 -367.07389 
L 125.162939 -368.045055 
L 126.569048 -369.003711 
L 127.975158 -369.992025 
L 129.381268 -371.054994 
L 130.787377 -372.117201 
L 132.193487 -373.172837 
L 133.599597 -374.280854 
L 135.005706 -375.413323 
L 136.411816 -376.576609 
L 137.817926 -377.780977 
L 139.224035 -378.993538 
L 140.630145 -380.255521 
L 142.036254 -381.521828 
L 143.442364 -382.791917 
L 144.848474 -384.101696 
L 146.254583 -385.375393 
L 147.660693 -386.674656 
L 149.066803 -388.009308 
L 150.472912 -389.350821 
L 151.879022 -390.703387 
L 153.285132 -392.071124 
L 154.691241 -393.505813 
L 156.097351 -394.922746 
L 157.503461 -396.382111 
L 158.90957 -397.822521 
L 160.31568 -399.294113 
L 161.72179 -400.783933 
L 163.127899 -402.303416 
L 164.534009 -403.83419 
L 165.940118 -405.330236 
L 167.346228 -406.894033 
L 168.752338 -408.470615 
L 170.158447 -410.031693 
L 171.564557 -411.576728 
L 172.970667 -413.161517 
L 174.376776 -414.762189 
L 175.782886 -416.332556 
L 177.188996 -417.931638 
L 178.595105 -419.515311 
L 180.001215 -421.108728 
L 181.407325 -422.737075 
L 182.813434 -424.343957 
L 184.219544 -425.943608 
L 185.625654 -427.514369 
L 187.031763 -429.12753 
L 188.437873 -430.788215 
L 189.843983 -432.408807 
L 191.250092 -434.035059 
L 192.656202 -435.660901 
L 194.062311 -437.284595 
L 195.468421 -438.853469 
L 196.874531 -440.447135 
L 198.28064 -442.068921 
L 199.68675 -443.668853 
L 201.09286 -445.285949 
L 202.498969 -446.880549 
L 203.905079 -448.488181 
L 205.311189 -450.091442 
L 206.717298 -451.648795 
L 208.123408 -453.27218 
L 209.529518 -454.853133 
L 210.935627 -456.450578 
L 212.341737 -457.982413 
L 213.747847 -459.578387 
L 215.153956 -461.147814 
L 216.560066 -462.703284 
L 217.966175 -464.268811 
L 219.372285 -465.788666 
L 220.778395 -467.366765 
L 222.184504 -468.960718 
L 223.590614 -470.530806 
L 224.996724 -472.087538 
L 226.402833 -473.659352 
L 227.808943 -475.333913 
L 229.215053 -476.952418 
L 230.621162 -478.633391 
L 232.027272 -480.365897 
L 233.433382 -482.074596 
L 234.839491 -483.830677 
L 236.245601 -485.606909 
L 237.651711 -487.444914 
L 239.05782 -489.304154 
L 240.46393 -491.196599 
L 241.870039 -493.165384 
L 243.276149 -495.15238 
L 244.682259 -497.249383 
L 246.088368 -499.391055 
L 247.494478 -501.654129 
L 248.900588 -503.989691 
L 250.306697 -506.338681 
L 251.712807 -508.767285 
L 253.118917 -511.246744 
L 254.525026 -513.772992 
L 255.931136 -516.434693 
L 257.337246 -519.149495 
L 258.743355 -521.89157 
L 260.149465 -524.692704 
L 261.555575 -527.574096 
L 262.961684 -530.593371 
L 264.367794 -533.66912 
L 265.773903 -536.776536 
L 267.180013 -539.973314 
L 268.586123 -543.248017 
L 269.992232 -546.565713 
L 271.398342 -549.902815 
L 272.804452 -553.289679 
L 274.210561 -556.772955 
L 275.616671 -560.260515 
L 277.022781 -563.810475 
L 278.42889 -567.388578 
L 279.835 -571.051739 
L 281.24111 -574.660178 
L 282.647219 -578.366816 
L 284.053329 -582.087759 
L 285.459439 -585.796678 
L 286.865548 -589.490227 
L 288.271658 -593.214762 
L 289.677767 -596.879855 
L 291.083877 -600.56733 
L 292.489987 -604.335767 
L 293.896096 -608.030336 
L 295.302206 -611.643735 
L 296.708316 -615.29001 
L 298.114425 -618.844126 
L 299.520535 -622.37485 
L 300.926645 -625.887082 
L 302.332754 -629.315309 
L 303.738864 -632.725762 
L 305.144974 -636.086772 
L 306.551083 -639.360315 
L 307.957193 -642.586387 
L 309.363303 -645.763541 
L 310.769412 -648.861283 
L 312.175522 -651.841098 
L 313.581631 -654.79125 
L 314.987741 -657.696002 
L 316.393851 -660.547372 
L 317.79996 -663.244472 
L 319.20607 -665.956635 
L 320.61218 -668.562052 
L 322.018289 -671.179279 
L 323.424399 -673.690439 
L 324.830509 -676.134527 
L 326.236618 -678.498336 
L 327.642728 -680.848694 
L 329.048838 -683.074087 
L 330.454947 -685.212386 
L 331.861057 -687.291709 
L 333.267167 -689.406514 
L 334.673276 -691.419151 
L 336.079386 -693.381516 
L 337.485496 -695.331824 
L 338.891605 -697.166866 
L 340.297715 -698.975016 
L 341.703824 -700.736798 
L 343.109934 -702.428904 
L 344.516044 -704.009531 
L 345.922153 -705.633216 
L 347.328263 -707.237377 
L 348.734373 -708.803945 
L 350.140482 -710.264764 
L 351.546592 -711.800351 
L 352.952702 -713.246254 
L 354.358811 -714.642977 
L 355.764921 -716.059798 
L 357.171031 -717.391769 
L 358.57714 -718.662229 
L 359.98325 -719.946881 
L 361.38936 -721.217137 
L 362.795469 -722.46979 
L 364.201579 -723.688809 
L 365.607688 -724.954262 
L 367.013798 -726.113648 
L 368.419908 -727.293915 
L 369.826017 -728.3772 
L 371.232127 -729.494709 
L 372.638237 -730.617805 
L 374.044346 -731.674808 
L 375.450456 -732.752542 
L 376.856566 -733.801131 
L 378.262675 -734.852 
L 379.668785 -735.851526 
L 381.074895 -736.800841 
L 382.481004 -737.733502 
L 383.887114 -738.66352 
L 385.293224 -739.582164 
L 386.699333 -740.478817 
L 388.105443 -741.365631 
L 389.511552 -742.269074 
L 390.917662 -743.185953 
L 392.323772 -744.052408 
L 393.729881 -744.908379 
L 395.135991 -745.780435 
L 396.542101 -746.605391 
L 397.94821 -747.441473 
L 399.35432 -748.262808 
L 400.76043 -749.072483 
L 402.166539 -749.884455 
L 403.572649 -750.722268 
L 404.978759 -751.547901 
L 406.384868 -752.360826 
L 407.790978 -753.132711 
L 409.197088 -753.894681 
L 410.603197 -754.723458 
L 412.009307 -755.489407 
L 413.415416 -756.244017 
L 414.821526 -757.000966 
L 416.227636 -757.726309 
L 417.633745 -758.435237 
L 419.039855 -759.182289 
L 420.445965 -759.929169 
L 421.852074 -760.63762 
L 423.258184 -761.358475 
L 424.664294 -762.075632 
L 426.070403 -762.682492 
L 427.476513 -763.375981 
L 428.882623 -763.980312 
L 430.288732 -764.612603 
L 431.694842 -765.249043 
L 433.100952 -765.873251 
L 434.507061 -766.477023 
L 435.913171 -767.085507 
L 437.31928 -767.596485 
L 438.72539 -768.151622 
L 440.1315 -768.662925 
L 441.537609 -769.066487 
L 442.943719 -769.493175 
L 444.349829 -769.894023 
L 445.755938 -770.306444 
L 447.162048 -770.648455 
L 448.568158 -770.929096 
L 449.974267 -771.165646 
L 451.380377 -771.338657 
L 452.786487 -771.497037 
L 454.192596 -771.670087 
L 455.598706 -771.764058 
L 457.004816 -771.846293 
L 458.410925 -771.848364 
L 459.817035 -771.782874 
L 461.223144 -771.685526 
L 462.629254 -771.53607 
L 464.035364 -771.429078 
L 465.441473 -771.164011 
L 466.847583 -770.898587 
L 468.253693 -770.57443 
L 469.659802 -770.15448 
L 471.065912 -769.740633 
L 472.472022 -769.356967 
L 473.878131 -768.884309 
L 475.284241 -768.382068 
L 476.690351 -767.754104 
L 478.09646 -767.113769 
L 479.50257 -766.473387 
L 480.90868 -765.764451 
L 482.314789 -765.040119 
L 483.720899 -764.194321 
L 485.127008 -763.304787 
L 486.533118 -762.440174 
L 487.939228 -761.478044 
L 489.345337 -760.517718 
L 490.751447 -759.506637 
L 492.157557 -758.418782 
L 493.563666 -757.299594 
L 494.969776 -756.191338 
L 496.375886 -755.008322 
L 497.781995 -753.788281 
L 499.188105 -752.518027 
L 500.594215 -751.184241 
L 502.000324 -749.816169 
L 503.406434 -748.388356 
L 504.812544 -746.940888 
L 506.218653 -745.395521 
L 507.624763 -743.840996 
L 509.030873 -742.224104 
L 510.436982 -740.612457 
L 511.843092 -738.967686 
L 513.249201 -737.173996 
L 514.655311 -735.341952 
L 516.061421 -733.53316 
L 517.46753 -731.640184 
L 518.87364 -729.731935 
L 520.27975 -727.790653 
L 521.685859 -725.806529 
L 523.091969 -723.75416 
L 524.498079 -721.616054 
L 525.904188 -719.512983 
L 527.310298 -717.311528 
L 528.716408 -715.091136 
L 530.122517 -712.803128 
L 531.528627 -710.472001 
L 532.934737 -708.120474 
L 534.340846 -705.686404 
L 535.746956 -703.203463 
L 537.153065 -700.715331 
L 538.559175 -698.19762 
L 539.965285 -695.607574 
L 541.371394 -693.0259 
L 542.777504 -690.377199 
L 544.183614 -687.686609 
L 545.589723 -685.023403 
L 546.995833 -682.331895 
L 548.401943 -679.579708 
L 549.808052 -676.876843 
L 551.214162 -674.147007 
L 552.620272 -671.386672 
L 554.026381 -668.587771 
L 555.432491 -665.82946 
L 556.838601 -663.025196 
L 558.24471 -660.205053 
L 559.65082 -657.416447 
L 561.056929 -654.665679 
L 562.463039 -651.865594 
L 563.869149 -649.136863 
L 565.275258 -646.390798 
L 566.681368 -643.564956 
L 568.087478 -640.797547 
L 569.493587 -638.042846 
L 570.899697 -635.320243 
L 572.305807 -632.510585 
L 573.711916 -629.782851 
L 575.118026 -627.093781 
L 576.524136 -624.417011 
L 577.930245 -621.760759 
L 579.336355 -619.104086 
L 580.742465 -616.453841 
L 582.148574 -613.773766 
L 583.554684 -611.119326 
L 584.960793 -608.456935 
L 586.366903 -605.781729 
L 587.773013 -603.183253 
L 589.179122 -600.533688 
L 590.585232 -597.930723 
L 591.991342 -595.305831 
L 593.397451 -592.733095 
L 594.803561 -590.138596 
L 596.209671 -587.471482 
L 597.61578 -584.838172 
L 599.02189 -582.160787 
L 600.428 -579.526816 
L 601.834109 -576.914014 
L 603.240219 -574.213996 
L 604.646329 -571.512367 
L 606.052438 -568.824995 
L 607.458548 -566.118748 
L 608.864657 -563.348247 
L 610.270767 -560.568179 
L 611.676877 -557.777772 
L 613.082986 -554.972745 
L 614.489096 -552.136712 
L 615.895206 -549.273367 
L 617.301315 -546.426519 
L 618.707425 -543.541104 
L 620.113535 -540.678762 
L 621.519644 -537.768518 
L 622.925754 -534.814455 
L 624.331864 -531.824729 
L 625.737973 -528.855043 
L 627.144083 -525.860233 
L 628.550193 -522.903764 
L 629.956302 -519.910781 
L 631.362412 -516.851903 
L 632.768521 -513.874775 
L 634.174631 -510.865303 
L 635.580741 -507.845331 
L 636.98685 -504.877138 
L 638.39296 -501.888433 
L 639.79907 -498.883796 
L 641.205179 -495.89084 
L 642.611289 -492.902863 
L 644.017399 -489.943532 
L 645.423508 -486.962335 
L 646.829618 -484.048717 
L 648.235728 -481.107393 
L 649.641837 -478.241493 
L 651.047947 -475.374171 
L 652.454057 -472.492916 
L 653.860166 -469.66887 
L 655.266276 -466.835254 
L 656.672386 -464.041354 
L 658.078495 -461.331648 
L 659.484605 -458.59872 
L 660.890714 -455.957709 
L 662.296824 -453.336672 
L 663.702934 -450.753412 
L 665.109043 -448.19514 
L 666.515153 -445.624479 
L 667.921263 -443.119044 
L 669.327372 -440.64809 
L 670.733482 -438.245066 
L 672.139592 -435.853253 
L 673.545701 -433.467011 
L 674.951811 -431.103576 
L 676.357921 -428.800456 
L 677.76403 -426.503052 
L 679.17014 -424.223544 
L 680.57625 -422.026814 
L 681.982359 -419.820778 
L 683.388469 -417.63674 
L 684.794578 -415.425432 
L 686.200688 -413.31124 
L 687.606798 -411.183749 
L 689.012907 -409.091271 
L 690.419017 -407.023746 
L 691.825127 -404.961242 
L 693.231236 -402.862787 
L 694.637346 -400.829213 
L 696.043456 -398.788654 
L 697.449565 -396.808181 
L 698.855675 -394.800272 
L 700.261785 -392.809912 
L 701.667894 -390.846556 
L 703.074004 -388.87949 
L 704.480114 -386.936047 
L 705.886223 -385.007193 
L 707.292333 -383.058382 
L 708.698442 -381.134342 
L 710.104552 -379.204856 
L 711.510662 -377.262976 
L 712.916771 -375.389232 
L 714.322881 -373.502157 
L 715.728991 -371.58393 
L 717.1351 -369.717249 
L 718.54121 -367.832995 
L 719.94732 -365.978486 
L 721.353429 -364.140377 
L 722.759539 -362.350228 
L 724.165649 -360.553887 
L 725.571758 -358.768917 
L 726.977868 -357.064793 
L 728.383978 -355.327018 
L 729.790087 -353.633375 
L 731.196197 -351.93381 
L 732.602306 -350.254114 
L 734.008416 -348.627146 
L 735.414526 -347.00701 
L 736.820635 -345.447077 
L 738.226745 -343.881038 
L 739.632855 -342.378288 
L 741.038964 -340.903762 
L 742.445074 -339.43939 
L 743.851184 -338.058586 
L 745.257293 -336.705226 
L 746.663403 -335.355833 
L 748.069513 -334.123987 
L 749.475622 -332.916924 
L 750.881732 -331.753967 
L 752.287842 -330.635222 
L 753.693951 -329.569689 
L 755.100061 -328.547236 
L 756.50617 -327.559437 
L 757.91228 -326.627572 
L 759.31839 -325.735672 
L 760.724499 -324.881777 
L 762.130609 -324.116051 
L 763.536719 -323.319399 
L 764.942828 -322.66257 
L 766.348938 -322.012476 
L 767.755048 -321.38543 
L 769.161157 -320.858268 
L 770.567267 -320.367391 
L 771.973377 -319.879457 
L 773.379486 -319.452893 
L 774.785596 -319.034333 
L 776.191706 -318.668508 
L 777.597815 -318.334502 
L 779.003925 -318.024168 
L 780.410034 -317.767766 
L 781.816144 -317.502428 
L 783.222254 -317.294813 
L 784.628363 -317.112406 
L 786.034473 -316.981787 
L 787.440583 -316.814175 
L 788.846692 -316.671103 
L 790.252802 -316.54515 
L 791.658912 -316.455652 
L 793.065021 -316.384705 
L 794.471131 -316.315549 
L 795.877241 -316.254772 
L 797.28335 -316.239119 
L 798.68946 -316.224005 
L 800.09557 -316.209172 
L 801.501679 -316.192067 
L 802.907789 -316.18736 
L 804.313899 -316.197625 
L 804.313899 -85.425321 
L 804.313899 -85.425321 
L 802.907789 -85.425321 
L 801.501679 -85.425321 
L 800.09557 -85.425321 
L 798.68946 -85.425321 
L 797.28335 -85.425321 
L 795.877241 -85.425321 
L 794.471131 -85.425321 
L 793.065021 -85.425321 
L 791.658912 -85.425321 
L 790.252802 -85.425321 
L 788.846692 -85.425321 
L 787.440583 -85.425321 
L 786.034473 -85.425321 
L 784.628363 -85.425321 
L 783.222254 -85.425321 
L 781.816144 -85.425321 
L 780.410034 -85.425321 
L 779.003925 -85.425321 
L 777.597815 -85.425321 
L 776.191706 -85.425321 
L 774.785596 -85.425321 
L 773.379486 -85.425321 
L 771.973377 -85.425321 
L 770.567267 -85.425321 
L 769.161157 -85.425321 
L 767.755048 -85.425321 
L 766.348938 -85.425321 
L 764.942828 -85.425321 
L 763.536719 -85.425321 
L 762.130609 -85.425321 
L 760.724499 -85.425321 
L 759.31839 -85.425321 
L 757.91228 -85.425321 
L 756.50617 -85.425321 
L 755.100061 -85.425321 
L 753.693951 -85.425321 
L 752.287842 -85.425321 
L 750.881732 -85.425321 
L 749.475622 -85.425321 
L 748.069513 -85.425321 
L 746.663403 -85.425321 
L 745.257293 -85.425321 
L 743.851184 -85.425321 
L 742.445074 -85.425321 
L 741.038964 -85.425321 
L 739.632855 -85.425321 
L 738.226745 -85.425321 
L 736.820635 -85.425321 
L 735.414526 -85.425321 
L 734.008416 -85.425321 
L 732.602306 -85.425321 
L 731.196197 -85.425321 
L 729.790087 -85.425321 
L 728.383978 -85.425321 
L 726.977868 -85.425321 
L 725.571758 -85.425321 
L 724.165649 -85.425321 
L 722.759539 -85.425321 
L 721.353429 -85.425321 
L 719.94732 -85.425321 
L 718.54121 -85.425321 
L 717.1351 -85.425321 
L 715.728991 -85.425321 
L 714.322881 -85.425321 
L 712.916771 -85.425321 
L 711.510662 -85.425321 
L 710.104552 -85.425321 
L 708.698442 -85.425321 
L 707.292333 -85.425321 
L 705.886223 -85.425321 
L 704.480114 -85.425321 
L 703.074004 -85.425321 
L 701.667894 -85.425321 
L 700.261785 -85.425321 
L 698.855675 -85.425321 
L 697.449565 -85.425321 
L 696.043456 -85.425321 
L 694.637346 -85.425321 
L 693.231236 -85.425321 
L 691.825127 -85.425321 
L 690.419017 -85.425321 
L 689.012907 -85.425321 
L 687.606798 -85.425321 
L 686.200688 -85.425321 
L 684.794578 -85.425321 
L 683.388469 -85.425321 
L 681.982359 -85.425321 
L 680.57625 -85.425321 
L 679.17014 -85.425321 
L 677.76403 -85.425321 
L 676.357921 -85.425321 
L 674.951811 -85.425321 
L 673.545701 -85.425321 
L 672.139592 -85.425321 
L 670.733482 -85.425321 
L 669.327372 -85.425321 
L 667.921263 -85.425321 
L 666.515153 -85.425321 
L 665.109043 -85.425321 
L 663.702934 -85.425321 
L 662.296824 -85.425321 
L 660.890714 -85.425321 
L 659.484605 -85.425321 
L 658.078495 -85.425321 
L 656.672386 -85.425321 
L 655.266276 -85.425321 
L 653.860166 -85.425321 
L 652.454057 -85.425321 
L 651.047947 -85.425321 
L 649.641837 -85.425321 
L 648.235728 -85.425321 
L 646.829618 -85.425321 
L 645.423508 -85.425321 
L 644.017399 -85.425321 
L 642.611289 -85.425321 
L 641.205179 -85.425321 
L 639.79907 -85.425321 
L 638.39296 -85.425321 
L 636.98685 -85.425321 
L 635.580741 -85.425321 
L 634.174631 -85.425321 
L 632.768521 -85.425321 
L 631.362412 -85.425321 
L 629.956302 -85.425321 
L 628.550193 -85.425321 
L 627.144083 -85.425321 
L 625.737973 -85.425321 
L 624.331864 -85.425321 
L 622.925754 -85.425321 
L 621.519644 -85.425321 
L 620.113535 -85.425321 
L 618.707425 -85.425321 
L 617.301315 -85.425321 
L 615.895206 -85.425321 
L 614.489096 -85.425321 
L 613.082986 -85.425321 
L 611.676877 -85.425321 
L 610.270767 -85.425321 
L 608.864657 -85.425321 
L 607.458548 -85.425321 
L 606.052438 -85.425321 
L 604.646329 -85.425321 
L 603.240219 -85.425321 
L 601.834109 -85.425321 
L 600.428 -85.425321 
L 599.02189 -85.425321 
L 597.61578 -85.425321 
L 596.209671 -85.425321 
L 594.803561 -85.425321 
L 593.397451 -85.425321 
L 591.991342 -85.425321 
L 590.585232 -85.425321 
L 589.179122 -85.425321 
L 587.773013 -85.425321 
L 586.366903 -85.425321 
L 584.960793 -85.425321 
L 583.554684 -85.425321 
L 582.148574 -85.425321 
L 580.742465 -85.425321 
L 579.336355 -85.425321 
L 577.930245 -85.425321 
L 576.524136 -85.425321 
L 575.118026 -85.425321 
L 573.711916 -85.425321 
L 572.305807 -85.425321 
L 570.899697 -85.425321 
L 569.493587 -85.425321 
L 568.087478 -85.425321 
L 566.681368 -85.425321 
L 565.275258 -85.425321 
L 563.869149 -85.425321 
L 562.463039 -85.425321 
L 561.056929 -85.425321 
L 559.65082 -85.425321 
L 558.24471 -85.425321 
L 556.838601 -85.425321 
L 555.432491 -85.425321 
L 554.026381 -85.425321 
L 552.620272 -85.425321 
L 551.214162 -85.425321 
L 549.808052 -85.425321 
L 548.401943 -85.425321 
L 546.995833 -85.425321 
L 545.589723 -85.425321 
L 544.183614 -85.425321 
L 542.777504 -85.425321 
L 541.371394 -85.425321 
L 539.965285 -85.425321 
L 538.559175 -85.425321 
L 537.153065 -85.425321 
L 535.746956 -85.425321 
L 534.340846 -85.425321 
L 532.934737 -85.425321 
L 531.528627 -85.425321 
L 530.122517 -85.425321 
L 528.716408 -85.425321 
L 527.310298 -85.425321 
L 525.904188 -85.425321 
L 524.498079 -85.425321 
L 523.091969 -85.425321 
L 521.685859 -85.425321 
L 520.27975 -85.425321 
L 518.87364 -85.425321 
L 517.46753 -85.425321 
L 516.061421 -85.425321 
L 514.655311 -85.425321 
L 513.249201 -85.425321 
L 511.843092 -85.425321 
L 510.436982 -85.425321 
L 509.030873 -85.425321 
L 507.624763 -85.425321 
L 506.218653 -85.425321 
L 504.812544 -85.425321 
L 503.406434 -85.425321 
L 502.000324 -85.425321 
L 500.594215 -85.425321 
L 499.188105 -85.425321 
L 497.781995 -85.425321 
L 496.375886 -85.425321 
L 494.969776 -85.425321 
L 493.563666 -85.425321 
L 492.157557 -85.425321 
L 490.751447 -85.425321 
L 489.345337 -85.425321 
L 487.939228 -85.425321 
L 486.533118 -85.425321 
L 485.127008 -85.425321 
L 483.720899 -85.425321 
L 482.314789 -85.425321 
L 480.90868 -85.425321 
L 479.50257 -85.425321 
L 478.09646 -85.425321 
L 476.690351 -85.425321 
L 475.284241 -85.425321 
L 473.878131 -85.425321 
L 472.472022 -85.425321 
L 471.065912 -85.425321 
L 469.659802 -85.425321 
L 468.253693 -85.425321 
L 466.847583 -85.425321 
L 465.441473 -85.425321 
L 464.035364 -85.425321 
L 462.629254 -85.425321 
L 461.223144 -85.425321 
L 459.817035 -85.425321 
L 458.410925 -85.425321 
L 457.004816 -85.425321 
L 455.598706 -85.425321 
L 454.192596 -85.425321 
L 452.786487 -85.425321 
L 451.380377 -85.425321 
L 449.974267 -85.425321 
L 448.568158 -85.425321 
L 447.162048 -85.425321 
L 445.755938 -85.425321 
L 444.349829 -85.425321 
L 442.943719 -85.425321 
L 441.537609 -85.425321 
L 440.1315 -85.425321 
L 438.72539 -85.425321 
L 437.31928 -85.425321 
L 435.913171 -85.425321 
L 434.507061 -85.425321 
L 433.100952 -85.425321 
L 431.694842 -85.425321 
L 430.288732 -85.425321 
L 428.882623 -85.425321 
L 427.476513 -85.425321 
L 426.070403 -85.425321 
L 424.664294 -85.425321 
L 423.258184 -85.425321 
L 421.852074 -85.425321 
L 420.445965 -85.425321 
L 419.039855 -85.425321 
L 417.633745 -85.425321 
L 416.227636 -85.425321 
L 414.821526 -85.425321 
L 413.415416 -85.425321 
L 412.009307 -85.425321 
L 410.603197 -85.425321 
L 409.197088 -85.425321 
L 407.790978 -85.425321 
L 406.384868 -85.425321 
L 404.978759 -85.425321 
L 403.572649 -85.425321 
L 402.166539 -85.425321 
L 400.76043 -85.425321 
L 399.35432 -85.425321 
L 397.94821 -85.425321 
L 396.542101 -85.425321 
L 395.135991 -85.425321 
L 393.729881 -85.425321 
L 392.323772 -85.425321 
L 390.917662 -85.425321 
L 389.511552 -85.425321 
L 388.105443 -85.425321 
L 386.699333 -85.425321 
L 385.293224 -85.425321 
L 383.887114 -85.425321 
L 382.481004 -85.425321 
L 381.074895 -85.425321 
L 379.668785 -85.425321 
L 378.262675 -85.425321 
L 376.856566 -85.425321 
L 375.450456 -85.425321 
L 374.044346 -85.425321 
L 372.638237 -85.425321 
L 371.232127 -85.425321 
L 369.826017 -85.425321 
L 368.419908 -85.425321 
L 367.013798 -85.425321 
L 365.607688 -85.425321 
L 364.201579 -85.425321 
L 362.795469 -85.425321 
L 361.38936 -85.425321 
L 359.98325 -85.425321 
L 358.57714 -85.425321 
L 357.171031 -85.425321 
L 355.764921 -85.425321 
L 354.358811 -85.425321 
L 352.952702 -85.425321 
L 351.546592 -85.425321 
L 350.140482 -85.425321 
L 348.734373 -85.425321 
L 347.328263 -85.425321 
L 345.922153 -85.425321 
L 344.516044 -85.425321 
L 343.109934 -85.425321 
L 341.703824 -85.425321 
L 340.297715 -85.425321 
L 338.891605 -85.425321 
L 337.485496 -85.425321 
L 336.079386 -85.425321 
L 334.673276 -85.425321 
L 333.267167 -85.425321 
L 331.861057 -85.425321 
L 330.454947 -85.425321 
L 329.048838 -85.425321 
L 327.642728 -85.425321 
L 326.236618 -85.425321 
L 324.830509 -85.425321 
L 323.424399 -85.425321 
L 322.018289 -85.425321 
L 320.61218 -85.425321 
L 319.20607 -85.425321 
L 317.79996 -85.425321 
L 316.393851 -85.425321 
L 314.987741 -85.425321 
L 313.581631 -85.425321 
L 312.175522 -85.425321 
L 310.769412 -85.425321 
L 309.363303 -85.425321 
L 307.957193 -85.425321 
L 306.551083 -85.425321 
L 305.144974 -85.425321 
L 303.738864 -85.425321 
L 302.332754 -85.425321 
L 300.926645 -85.425321 
L 299.520535 -85.425321 
L 298.114425 -85.425321 
L 296.708316 -85.425321 
L 295.302206 -85.425321 
L 293.896096 -85.425321 
L 292.489987 -85.425321 
L 291.083877 -85.425321 
L 289.677767 -85.425321 
L 288.271658 -85.425321 
L 286.865548 -85.425321 
L 285.459439 -85.425321 
L 284.053329 -85.425321 
L 282.647219 -85.425321 
L 281.24111 -85.425321 
L 279.835 -85.425321 
L 278.42889 -85.425321 
L 277.022781 -85.425321 
L 275.616671 -85.425321 
L 274.210561 -85.425321 
L 272.804452 -85.425321 
L 271.398342 -85.425321 
L 269.992232 -85.425321 
L 268.586123 -85.425321 
L 267.180013 -85.425321 
L 265.773903 -85.425321 
L 264.367794 -85.425321 
L 262.961684 -85.425321 
L 261.555575 -85.425321 
L 260.149465 -85.425321 
L 258.743355 -85.425321 
L 257.337246 -85.425321 
L 255.931136 -85.425321 
L 254.525026 -85.425321 
L 253.118917 -85.425321 
L 251.712807 -85.425321 
L 250.306697 -85.425321 
L 248.900588 -85.425321 
L 247.494478 -85.425321 
L 246.088368 -85.425321 
L 244.682259 -85.425321 
L 243.276149 -85.425321 
L 241.870039 -85.425321 
L 240.46393 -85.425321 
L 239.05782 -85.425321 
L 237.651711 -85.425321 
L 236.245601 -85.425321 
L 234.839491 -85.425321 
L 233.433382 -85.425321 
L 232.027272 -85.425321 
L 230.621162 -85.425321 
L 229.215053 -85.425321 
L 227.808943 -85.425321 
L 226.402833 -85.425321 
L 224.996724 -85.425321 
L 223.590614 -85.425321 
L 222.184504 -85.425321 
L 220.778395 -85.425321 
L 219.372285 -85.425321 
L 217.966175 -85.425321 
L 216.560066 -85.425321 
L 215.153956 -85.425321 
L 213.747847 -85.425321 
L 212.341737 -85.425321 
L 210.935627 -85.425321 
L 209.529518 -85.425321 
L 208.123408 -85.425321 
L 206.717298 -85.425321 
L 205.311189 -85.425321 
L 203.905079 -85.425321 
L 202.498969 -85.425321 
L 201.09286 -85.425321 
L 199.68675 -85.425321 
L 198.28064 -85.425321 
L 196.874531 -85.425321 
L 195.468421 -85.425321 
L 194.062311 -85.425321 
L 192.656202 -85.425321 
L 191.250092 -85.425321 
L 189.843983 -85.425321 
L 188.437873 -85.425321 
L 187.031763 -85.425321 
L 185.625654 -85.425321 
L 184.219544 -85.425321 
L 182.813434 -85.425321 
L 181.407325 -85.425321 
L 180.001215 -85.425321 
L 178.595105 -85.425321 
L 177.188996 -85.425321 
L 175.782886 -85.425321 
L 174.376776 -85.425321 
L 172.970667 -85.425321 
L 171.564557 -85.425321 
L 170.158447 -85.425321 
L 168.752338 -85.425321 
L 167.346228 -85.425321 
L 165.940118 -85.425321 
L 164.534009 -85.425321 
L 163.127899 -85.425321 
L 161.72179 -85.425321 
L 160.31568 -85.425321 
L 158.90957 -85.425321 
L 157.503461 -85.425321 
L 156.097351 -85.425321 
L 154.691241 -85.425321 
L 153.285132 -85.425321 
L 151.879022 -85.425321 
L 150.472912 -85.425321 
L 149.066803 -85.425321 
L 147.660693 -85.425321 
L 146.254583 -85.425321 
L 144.848474 -85.425321 
L 143.442364 -85.425321 
L 142.036254 -85.425321 
L 140.630145 -85.425321 
L 139.224035 -85.425321 
L 137.817926 -85.425321 
L 136.411816 -85.425321 
L 135.005706 -85.425321 
L 133.599597 -85.425321 
L 132.193487 -85.425321 
L 130.787377 -85.425321 
L 129.381268 -85.425321 
L 127.975158 -85.425321 
L 126.569048 -85.425321 
L 125.162939 -85.425321 
L 123.756829 -85.425321 
L 122.350719 -85.425321 
L 120.94461 -85.425321 
L 119.5385 -85.425321 
L 118.13239 -85.425321 
L 116.726281 -85.425321 
L 115.320171 -85.425321 
L 113.914062 -85.425321 
L 112.507952 -85.425321 
L 111.101842 -85.425321 
L 109.695733 -85.425321 
L 108.289623 -85.425321 
L 106.883513 -85.425321 
L 105.477404 -85.425321 
L 104.071294 -85.425321 
L 102.665184 -85.425321 
L 101.259075 -85.425321 
L 99.852965 -85.425321 
L 98.446855 -85.425321 
L 97.040746 -85.425321 
L 95.634636 -85.425321 
L 94.228526 -85.425321 
L 92.822417 -85.425321 
L 91.416307 -85.425321 
L 90.010198 -85.425321 
L 88.604088 -85.425321 
L 87.197978 -85.425321 
L 85.791869 -85.425321 
z
" style="stroke: #6cb7ff; stroke-opacity: 0.6; stroke-width: 0.3"/>
    </defs>
    <g clip-path="url(#pa07f12fa79)">
     <use xlink:href="#ma9d7d60d95" x="0" y="864" style="fill: #6cb7ff; fill-opacity: 0.6; stroke: #6cb7ff; stroke-opacity: 0.6; stroke-width: 0.3"/>
    </g>
   </g>
   <g id="line2d_13">
    <path d="M 85.791869 509.606171 
L 90.010198 509.466763 
L 95.634636 508.744854 
L 99.852965 507.804393 
L 105.477404 506.097324 
L 108.289623 505.060499 
L 113.914062 502.551352 
L 116.726281 501.120755 
L 122.350719 497.864929 
L 127.975158 494.007975 
L 135.005706 488.586677 
L 139.224035 485.006462 
L 147.660693 477.325344 
L 153.285132 471.928876 
L 161.72179 463.216067 
L 171.564557 452.423272 
L 187.031763 434.87247 
L 194.062311 426.715405 
L 201.09286 418.714051 
L 217.966175 399.731189 
L 222.184504 395.039282 
L 229.215053 387.047582 
L 234.839491 380.169323 
L 239.05782 374.695846 
L 243.276149 368.84762 
L 246.088368 364.608945 
L 250.306697 357.661319 
L 254.525026 350.227008 
L 258.743355 342.10843 
L 261.555575 336.425904 
L 265.773903 327.223464 
L 269.992232 317.434287 
L 274.210561 307.227045 
L 278.42889 296.611422 
L 291.083877 263.43267 
L 295.302206 252.356265 
L 299.520535 241.62515 
L 303.738864 231.274238 
L 307.957193 221.413613 
L 310.769412 215.138717 
L 316.393851 203.452628 
L 322.018289 192.820721 
L 326.236618 185.501664 
L 329.048838 180.925913 
L 333.267167 174.593486 
L 337.485496 168.668176 
L 341.703824 163.263202 
L 344.516044 159.990469 
L 348.734373 155.196055 
L 355.764921 147.940202 
L 359.98325 144.053119 
L 365.607688 139.045738 
L 372.638237 133.382195 
L 379.668785 128.148474 
L 386.699333 123.521183 
L 396.542101 117.394609 
L 406.384868 111.639174 
L 419.039855 104.817711 
L 424.664294 101.924368 
L 430.288732 99.387397 
L 435.913171 96.914493 
L 441.537609 94.933513 
L 445.755938 93.693556 
L 448.568158 93.070904 
L 451.380377 92.661343 
L 455.598706 92.235942 
L 458.410925 92.151636 
L 461.223144 92.314474 
L 465.441473 92.835989 
L 468.253693 93.42557 
L 475.284241 95.617932 
L 480.90868 98.235549 
L 483.720899 99.805679 
L 489.345337 103.482282 
L 492.157557 105.581218 
L 496.375886 108.991678 
L 499.188105 111.481973 
L 503.406434 115.611644 
L 506.218653 118.604479 
L 510.436982 123.387543 
L 513.249201 126.826004 
L 518.87364 134.268065 
L 523.091969 140.24584 
L 528.716408 148.908864 
L 532.934737 155.879526 
L 538.559175 165.80238 
L 545.589723 178.976597 
L 552.620272 192.613328 
L 569.493587 225.957154 
L 582.148574 250.226234 
L 593.397451 271.266905 
L 599.02189 281.839213 
L 606.052438 295.175005 
L 611.676877 306.222228 
L 618.707425 320.458896 
L 622.925754 329.185545 
L 649.641837 385.758507 
L 656.672386 399.958646 
L 662.296824 410.663328 
L 669.327372 423.35191 
L 676.357921 435.199544 
L 681.982359 444.179222 
L 689.012907 454.908729 
L 698.855675 469.199728 
L 705.886223 478.992807 
L 714.322881 490.497843 
L 719.94732 498.021514 
L 725.571758 505.231083 
L 735.414526 516.99299 
L 741.038964 523.096238 
L 743.851184 525.941414 
L 748.069513 529.876013 
L 752.287842 533.364778 
L 756.50617 536.440563 
L 760.724499 539.118223 
L 764.942828 541.33743 
L 767.755048 542.61457 
L 771.973377 544.120543 
L 776.191706 545.331492 
L 780.410034 546.232234 
L 783.222254 546.705187 
L 788.846692 547.328897 
L 793.065021 547.615295 
L 797.28335 547.760881 
L 804.313899 547.802375 
L 804.313899 547.802375 
" clip-path="url(#pa07f12fa79)" style="fill: none; stroke: #7570b3; stroke-width: 2; stroke-linecap: round"/>
   </g>
   <g id="line2d_14">
    <path d="M 85.791869 781.264364 
L 85.791869 509.606171 
" clip-path="url(#pa07f12fa79)" style="fill: none; stroke: #7570b3; stroke-width: 2; stroke-linecap: round"/>
   </g>
   <g id="line2d_15">
    <path d="M 804.313899 780.882402 
L 804.313899 547.802375 
" clip-path="url(#pa07f12fa79)" style="fill: none; stroke: #7570b3; stroke-width: 2; stroke-linecap: round"/>
   </g>
   <g id="line2d_16">
    <defs>
     <path id="me07a87127d" d="M 0 3.5 
C 0.928211 3.5 1.81853 3.131218 2.474874 2.474874 
C 3.131218 1.81853 3.5 0.928211 3.5 0 
C 3.5 -0.928211 3.131218 -1.81853 2.474874 -2.474874 
C 1.81853 -3.131218 0.928211 -3.5 0 -3.5 
C -0.928211 -3.5 -1.81853 -3.131218 -2.474874 -2.474874 
C -3.131218 -1.81853 -3.5 -0.928211 -3.5 0 
C -3.5 0.928211 -3.131218 1.81853 -2.474874 2.474874 
C -1.81853 3.131218 -0.928211 3.5 0 3.5 
z
"/>
    </defs>
    <g clip-path="url(#pa07f12fa79)">
     <use xlink:href="#me07a87127d" x="434.17582" y="778.574679" style="fill: #7570b3"/>
    </g>
   </g>
   <g id="patch_3">
    <path d="M 49.865767 815.72 
L 840.24 815.72 
" style="fill: none; stroke: #333333; stroke-width: 1.5; stroke-linejoin: miter; stroke-linecap: square"/>
   </g>
   <g id="text_7">
    <!-- $x_1^2x_3$ -->
    <g style="fill: #262626" transform="translate(414.532884 49.856)">
     <text>
      <tspan x="0" y="-0.734375" style="font-style: oblique; font-size: 28px; font-family: 'DejaVu Sans'; fill: #262626">x</tspan>
      <tspan x="31.056576" y="-0.734375" style="font-style: oblique; font-size: 28px; font-family: 'DejaVu Sans'; fill: #262626">x</tspan>
      <tspan x="16.570312" y="6.921875" style="font-size: 19.6px; font-family: 'DejaVu Sans'; fill: #262626">1</tspan>
      <tspan x="17.820833" y="-11.453125" style="font-size: 19.6px; font-family: 'DejaVu Sans'; fill: #262626">2</tspan>
      <tspan x="47.626888" y="3.859375" style="font-size: 19.6px; font-family: 'DejaVu Sans'; fill: #262626">3</tspan>
     </text>
    </g>
   </g>
  </g>
 </g>
 <defs>
  <clipPath id="pa07f12fa79">
   <rect x="49.865767" y="57.696" width="790.374233" height="758.024"/>
  </clipPath>
 </defs>
</svg>
