<?xml version="1.0" encoding="utf-8" standalone="no"?>
<!DOCTYPE svg PUBLIC "-//W3C//DTD SVG 1.1//EN"
  "http://www.w3.org/Graphics/SVG/1.1/DTD/svg11.dtd">
<svg xmlns:xlink="http://www.w3.org/1999/xlink" width="864pt" height="864pt" viewBox="0 0 864 864" xmlns="http://www.w3.org/2000/svg" version="1.1">
 <metadata>
  <rdf:RDF xmlns:dc="http://purl.org/dc/elements/1.1/" xmlns:cc="http://creativecommons.org/ns#" xmlns:rdf="http://www.w3.org/1999/02/22-rdf-syntax-ns#">
   <cc:Work>
    <dc:type rdf:resource="http://purl.org/dc/dcmitype/StillImage"/>
    <dc:date>2026-03-13T22:48:05.850588</dc:date>
    <dc:format>image/svg+xml</dc:format>
    <dc:creator>
     <cc:Agent>
      <dc:title>Matplotlib v3.10.6, https://matplotlib.org/</dc:title>
     </cc:Agent>
    </dc:creator>
   </cc:Work>
  </rdf:RDF>
 </metadata>
 <defs>
  <style type="text/css">*{stroke-linejoin: round; stroke-linecap: butt}</style>
 </defs>
 <g id="figure_1">
  <g id="patch_1">
   <path d="M 0 864 
L 864 864 
L 864 0 
L 0 0 
L 0 864 
z
" style="fill: none; opacity: 0"/>
  </g>
  <g id="axes_1">
   <g id="patch_2">
    <path d="M 23.76 815.72 
L 840.24 815.72 
L 840.24 57.696 
L 23.76 57.696 
L 23.76 815.72 
z
" style="fill: none"/>
   </g>
   <g id="matplotlib.axis_1">
    <g id="xtick_1">
     <g id="line2d_1">
      <path d="M 135.93391 815.72 
L 135.93391 57.696 
" clip-path="url(#p6e2f962732)" style="fill: none; stroke: #ffffff; stroke-opacity: 0.4; stroke-linecap: round"/>
     </g>
     <g id="line2d_2"/>
     <g id="text_1">
      <text style="font-size: 18px; font-family: 'DejaVu Serif', 'Times New Roman', serif; text-anchor: middle; fill: #262626" x="135.93391" y="836.397187" transform="rotate(-0 135.93391 836.397187)">0.094</text>
     </g>
    </g>
    <g id="xtick_2">
     <g id="line2d_3">
      <path d="M 254.779657 815.72 
L 254.779657 57.696 
" clip-path="url(#p6e2f962732)" style="fill: none; stroke: #ffffff; stroke-opacity: 0.4; stroke-linecap: round"/>
     </g>
     <g id="line2d_4"/>
     <g id="text_2">
      <text style="font-size: 18px; font-family: 'DejaVu Serif', 'Times New Roman', serif; text-anchor: middle; fill: #262626" x="254.779657" y="836.397187" transform="rotate(-0 254.779657 836.397187)">0.096</text>
     </g>
    </g>
    <g id="xtick_3">
     <g id="line2d_5">
      <path d="M 373.625404 815.72 
L 373.625404 57.696 
" clip-path="url(#p6e2f962732)" style="fill: none; stroke: #ffffff; stroke-opacity: 0.4; stroke-linecap: round"/>
     </g>
     <g id="line2d_6"/>
     <g id="text_3">
      <text style="font-size: 18px; font-family: 'DejaVu Serif', 'Times New Roman', serif; text-anchor: middle; fill: #262626" x="373.625404" y="836.397187" transform="rotate(-0 373.625404 836.397187)">0.098</text>
     </g>
    </g>
    <g id="xtick_4">
     <g id="line2d_7">
      <path d="M 492.471152 815.72 
L 492.471152 57.696 
" clip-path="url(#p6e2f962732)" style="fill: none; stroke: #ffffff; stroke-opacity: 0.4; stroke-linecap: round"/>
     </g>
     <g id="line2d_8"/>
     <g id="text_4">
      <text style="font-size: 18px; font-family: 'DejaVu Serif', 'Times New Roman', serif; text-anchor: middle; fill: #262626" x="492.471152" y="836.397187" transform="rotate(-0 492.471152 836.397187)">0.100</text>
     </g>
    </g>
    <g id="xtick_5">
     <g id="line2d_9">
      <path d="M 611.316899 815.72 
L 611.316899 57.696 
" clip-path="url(#p6e2f962732)" style="fill: none; stroke: #ffffff; stroke-opacity: 0.4; stroke-linecap: round"/>
     </g>
     <g id="line2d_10"/>
     <g id="text_5">
      <text style="font-size: 18px; font-family: 'DejaVu Serif', 'Times New Roman', serif; text-anchor: middle; fill: #262626" x="611.316899" y="836.397187" transform="rotate(-0 611.316899 836.397187)">0.102</text>
     </g>
    </g>
    <g id="xtick_6">
     <g id="line2d_11">
      <path d="M 730.162646 815.72 
L 730.162646 57.696 
" clip-path="url(#p6e2f962732)" style="fill: none; stroke: #ffffff; stroke-opacity: 0.4; stroke-linecap: round"/>
     </g>
     <g id="line2d_12"/>
     <g id="text_6">
      <text style="font-size: 18px; font-family: 'DejaVu Serif', 'Times New Roman', serif; text-anchor: middle; fill: #262626" x="730.162646" y="836.397187" transform="rotate(-0 730.162646 836.397187)">0.104</text>
     </g>
    </g>
   </g>
   <g id="matplotlib.axis_2"/>
   <g id="FillBetweenPolyCollection_1">
    <defs>
     <path id="m735200978c" d="M 60.872727 -84.978263 
L 60.872727 -308.413344 
L 62.32528 -308.461058 
L 63.777833 -308.586432 
L 65.230386 -308.742991 
L 66.682939 -308.971465 
L 68.135492 -309.285791 
L 69.588045 -309.666792 
L 71.040598 -310.092009 
L 72.493151 -310.571177 
L 73.945704 -311.125945 
L 75.398257 -311.765106 
L 76.850809 -312.455669 
L 78.303362 -313.207672 
L 79.755915 -314.040821 
L 81.208468 -314.939491 
L 82.661021 -315.933591 
L 84.113574 -316.93994 
L 85.566127 -317.998874 
L 87.01868 -319.110514 
L 88.471233 -320.268263 
L 89.923786 -321.496628 
L 91.376339 -322.778057 
L 92.828892 -324.096916 
L 94.281445 -325.485814 
L 95.733998 -326.967741 
L 97.18655 -328.548836 
L 98.639103 -330.154648 
L 100.091656 -331.801982 
L 101.544209 -333.548383 
L 102.996762 -335.33078 
L 104.449315 -337.199237 
L 105.901868 -339.073316 
L 107.354421 -341.080494 
L 108.806974 -343.117987 
L 110.259527 -345.207894 
L 111.71208 -347.32878 
L 113.164633 -349.534631 
L 114.617186 -351.826724 
L 116.069738 -354.101834 
L 117.522291 -356.461242 
L 118.974844 -358.854111 
L 120.427397 -361.295221 
L 121.87995 -363.780944 
L 123.332503 -366.358318 
L 124.785056 -368.9311 
L 126.237609 -371.537504 
L 127.690162 -374.225219 
L 129.142715 -376.944085 
L 130.595268 -379.650279 
L 132.047821 -382.479711 
L 133.500374 -385.293764 
L 134.952927 -388.11419 
L 136.405479 -390.988215 
L 137.858032 -393.896375 
L 139.310585 -396.828948 
L 140.763138 -399.811752 
L 142.215691 -402.774906 
L 143.668244 -405.737633 
L 145.120797 -408.807319 
L 146.57335 -411.829974 
L 148.025903 -414.898439 
L 149.478456 -417.936241 
L 150.931009 -420.987448 
L 152.383562 -424.042091 
L 153.836115 -427.09779 
L 155.288667 -430.15008 
L 156.74122 -433.18796 
L 158.193773 -436.21548 
L 159.646326 -439.246369 
L 161.098879 -442.256672 
L 162.551432 -445.253742 
L 164.003985 -448.267756 
L 165.456538 -451.209353 
L 166.909091 -454.168972 
L 168.361644 -457.070198 
L 169.814197 -459.982147 
L 171.26675 -462.898673 
L 172.719303 -465.726741 
L 174.171856 -468.551972 
L 175.624408 -471.333837 
L 177.076961 -474.149687 
L 178.529514 -476.891913 
L 179.982067 -479.685808 
L 181.43462 -482.401839 
L 182.887173 -485.083083 
L 184.339726 -487.70442 
L 185.792279 -490.306376 
L 187.244832 -492.890815 
L 188.697385 -495.392942 
L 190.149938 -497.918181 
L 191.602491 -500.344727 
L 193.055044 -502.793214 
L 194.507597 -505.203354 
L 195.960149 -507.574475 
L 197.412702 -509.905867 
L 198.865255 -512.205398 
L 200.317808 -514.506896 
L 201.770361 -516.765722 
L 203.222914 -519.004306 
L 204.675467 -521.181415 
L 206.12802 -523.348263 
L 207.580573 -525.515279 
L 209.033126 -527.665316 
L 210.485679 -529.768323 
L 211.938232 -531.867467 
L 213.390785 -533.92092 
L 214.843337 -535.945942 
L 216.29589 -537.978043 
L 217.748443 -540.001355 
L 219.200996 -542.025052 
L 220.653549 -543.952641 
L 222.106102 -545.905999 
L 223.558655 -547.847529 
L 225.011208 -549.754874 
L 226.463761 -551.677863 
L 227.916314 -553.598718 
L 229.368867 -555.470523 
L 230.82142 -557.343126 
L 232.273973 -559.265476 
L 233.726526 -561.126211 
L 235.179078 -562.970924 
L 236.631631 -564.80941 
L 238.084184 -566.681733 
L 239.536737 -568.548395 
L 240.98929 -570.382843 
L 242.441843 -572.294065 
L 243.894396 -574.194278 
L 245.346949 -576.067873 
L 246.799502 -577.952586 
L 248.252055 -579.80942 
L 249.704608 -581.717741 
L 251.157161 -583.680506 
L 252.609714 -585.627639 
L 254.062267 -587.606468 
L 255.514819 -589.60816 
L 256.967372 -591.624869 
L 258.419925 -593.731762 
L 259.872478 -595.751875 
L 261.325031 -597.806046 
L 262.777584 -599.836675 
L 264.230137 -601.947533 
L 265.68269 -604.118572 
L 267.135243 -606.262094 
L 268.587796 -608.398819 
L 270.040349 -610.613528 
L 271.492902 -612.831787 
L 272.945455 -615.022155 
L 274.398007 -617.251551 
L 275.85056 -619.456246 
L 277.303113 -621.747067 
L 278.755666 -624.033559 
L 280.208219 -626.297631 
L 281.660772 -628.601549 
L 283.113325 -630.842429 
L 284.565878 -633.044264 
L 286.018431 -635.275743 
L 287.470984 -637.504316 
L 288.923537 -639.700917 
L 290.37609 -641.947459 
L 291.828643 -644.20681 
L 293.281196 -646.417752 
L 294.733748 -648.568483 
L 296.186301 -650.694407 
L 297.638854 -652.768346 
L 299.091407 -654.76298 
L 300.54396 -656.756475 
L 301.996513 -658.723883 
L 303.449066 -660.668922 
L 304.901619 -662.640078 
L 306.354172 -664.532497 
L 307.806725 -666.38391 
L 309.259278 -668.211717 
L 310.711831 -670.069511 
L 312.164384 -671.80265 
L 313.616936 -673.547538 
L 315.069489 -675.211156 
L 316.522042 -676.835382 
L 317.974595 -678.376999 
L 319.427148 -679.950121 
L 320.879701 -681.474111 
L 322.332254 -683.029412 
L 323.784807 -684.464065 
L 325.23736 -685.973028 
L 326.689913 -687.424937 
L 328.142466 -688.961541 
L 329.595019 -690.457857 
L 331.047572 -691.966828 
L 332.500125 -693.441073 
L 333.952677 -694.868159 
L 335.40523 -696.364497 
L 336.857783 -697.901211 
L 338.310336 -699.467935 
L 339.762889 -701.025162 
L 341.215442 -702.621327 
L 342.667995 -704.186769 
L 344.120548 -705.838738 
L 345.573101 -707.496071 
L 347.025654 -709.142741 
L 348.478207 -710.870757 
L 349.93076 -712.66431 
L 351.383313 -714.427525 
L 352.835866 -716.231823 
L 354.288418 -718.106109 
L 355.740971 -720.05533 
L 357.193524 -721.972306 
L 358.646077 -723.872968 
L 360.09863 -725.796758 
L 361.551183 -727.804374 
L 363.003736 -729.799255 
L 364.456289 -731.83505 
L 365.908842 -733.905007 
L 367.361395 -735.916272 
L 368.813948 -737.956364 
L 370.266501 -739.993985 
L 371.719054 -741.999824 
L 373.171606 -743.991757 
L 374.624159 -745.954143 
L 376.076712 -747.905769 
L 377.529265 -749.807375 
L 378.981818 -751.609866 
L 380.434371 -753.467535 
L 381.886924 -755.200139 
L 383.339477 -756.854936 
L 384.79203 -758.458489 
L 386.244583 -759.983691 
L 387.697136 -761.517184 
L 389.149689 -762.856476 
L 390.602242 -764.092892 
L 392.054795 -765.326523 
L 393.507347 -766.449347 
L 394.9599 -767.501625 
L 396.412453 -768.373195 
L 397.865006 -769.188886 
L 399.317559 -769.822485 
L 400.770112 -770.435926 
L 402.222665 -770.935657 
L 403.675218 -771.34415 
L 405.127771 -771.612107 
L 406.580324 -771.783087 
L 408.032877 -771.848364 
L 409.48543 -771.767197 
L 410.937983 -771.629467 
L 412.390535 -771.347701 
L 413.843088 -770.969193 
L 415.295641 -770.54604 
L 416.748194 -770.016816 
L 418.200747 -769.468285 
L 419.6533 -768.735486 
L 421.105853 -767.933451 
L 422.558406 -767.038116 
L 424.010959 -766.09993 
L 425.463512 -765.076813 
L 426.916065 -764.009768 
L 428.368618 -762.888347 
L 429.821171 -761.72602 
L 431.273724 -760.469468 
L 432.726276 -759.165392 
L 434.178829 -757.910964 
L 435.631382 -756.519164 
L 437.083935 -755.154025 
L 438.536488 -753.742232 
L 439.989041 -752.400476 
L 441.441594 -750.969818 
L 442.894147 -749.500938 
L 444.3467 -748.036346 
L 445.799253 -746.564384 
L 447.251806 -745.113165 
L 448.704359 -743.669815 
L 450.156912 -742.227837 
L 451.609465 -740.750081 
L 453.062017 -739.319627 
L 454.51457 -737.882482 
L 455.967123 -736.489024 
L 457.419676 -735.102159 
L 458.872229 -733.740638 
L 460.324782 -732.391903 
L 461.777335 -731.01039 
L 463.229888 -729.644744 
L 464.682441 -728.324999 
L 466.134994 -727.02279 
L 467.587547 -725.770202 
L 469.0401 -724.474237 
L 470.492653 -723.211426 
L 471.945205 -721.941658 
L 473.397758 -720.674265 
L 474.850311 -719.41489 
L 476.302864 -718.204597 
L 477.755417 -716.897848 
L 479.20797 -715.74332 
L 480.660523 -714.571082 
L 482.113076 -713.391606 
L 483.565629 -712.159992 
L 485.018182 -710.878998 
L 486.470735 -709.652448 
L 487.923288 -708.434874 
L 489.375841 -707.112827 
L 490.828394 -705.853807 
L 492.280946 -704.638379 
L 493.733499 -703.329028 
L 495.186052 -702.061903 
L 496.638605 -700.715652 
L 498.091158 -699.370405 
L 499.543711 -698.059362 
L 500.996264 -696.660813 
L 502.448817 -695.254503 
L 503.90137 -693.916398 
L 505.353923 -692.512937 
L 506.806476 -691.079953 
L 508.259029 -689.597368 
L 509.711582 -688.035008 
L 511.164134 -686.439791 
L 512.616687 -684.883769 
L 514.06924 -683.273692 
L 515.521793 -681.652354 
L 516.974346 -680.055107 
L 518.426899 -678.450138 
L 519.879452 -676.83192 
L 521.332005 -675.1562 
L 522.784558 -673.496257 
L 524.237111 -671.752788 
L 525.689664 -670.01497 
L 527.142217 -668.264273 
L 528.59477 -666.478849 
L 530.047323 -664.623465 
L 531.499875 -662.902177 
L 532.952428 -661.114556 
L 534.404981 -659.351245 
L 535.857534 -657.578974 
L 537.310087 -655.885457 
L 538.76264 -654.111759 
L 540.215193 -652.344111 
L 541.667746 -650.573426 
L 543.120299 -648.914861 
L 544.572852 -647.173597 
L 546.025405 -645.47327 
L 547.477958 -643.752785 
L 548.930511 -642.071482 
L 550.383064 -640.370033 
L 551.835616 -638.776483 
L 553.288169 -637.168045 
L 554.740722 -635.575854 
L 556.193275 -633.953862 
L 557.645828 -632.377236 
L 559.098381 -630.82732 
L 560.550934 -629.317765 
L 562.003487 -627.866493 
L 563.45604 -626.351246 
L 564.908593 -624.906784 
L 566.361146 -623.516939 
L 567.813699 -622.033991 
L 569.266252 -620.602465 
L 570.718804 -619.189833 
L 572.171357 -617.78201 
L 573.62391 -616.342938 
L 575.076463 -614.902567 
L 576.529016 -613.497337 
L 577.981569 -612.115595 
L 579.434122 -610.706732 
L 580.886675 -609.269424 
L 582.339228 -607.839879 
L 583.791781 -606.306202 
L 585.244334 -604.798444 
L 586.696887 -603.298372 
L 588.14944 -601.748194 
L 589.601993 -600.177244 
L 591.054545 -598.583693 
L 592.507098 -596.921763 
L 593.959651 -595.235116 
L 595.412204 -593.482305 
L 596.864757 -591.64896 
L 598.31731 -589.834039 
L 599.769863 -587.84012 
L 601.222416 -585.833975 
L 602.674969 -583.766185 
L 604.127522 -581.669626 
L 605.580075 -579.455889 
L 607.032628 -577.132474 
L 608.485181 -574.780425 
L 609.937733 -572.343443 
L 611.390286 -569.80742 
L 612.842839 -567.174567 
L 614.295392 -564.462407 
L 615.747945 -561.724716 
L 617.200498 -558.887784 
L 618.653051 -555.962307 
L 620.105604 -552.950628 
L 621.558157 -549.845694 
L 623.01071 -546.697921 
L 624.463263 -543.468862 
L 625.915816 -540.135501 
L 627.368369 -536.755803 
L 628.820922 -533.358073 
L 630.273474 -529.87537 
L 631.726027 -526.334881 
L 633.17858 -522.717493 
L 634.631133 -519.054756 
L 636.083686 -515.344976 
L 637.536239 -511.56278 
L 638.988792 -507.791776 
L 640.441345 -503.999655 
L 641.893898 -500.214768 
L 643.346451 -496.420474 
L 644.799004 -492.575414 
L 646.251557 -488.710098 
L 647.70411 -484.864452 
L 649.156663 -480.995395 
L 650.609215 -477.185915 
L 652.061768 -473.421206 
L 653.514321 -469.582623 
L 654.966874 -465.87876 
L 656.419427 -462.142272 
L 657.87198 -458.478039 
L 659.324533 -454.777141 
L 660.777086 -451.186638 
L 662.229639 -447.693082 
L 663.682192 -444.227167 
L 665.134745 -440.808617 
L 666.587298 -437.441502 
L 668.039851 -434.129417 
L 669.492403 -430.880974 
L 670.944956 -427.687147 
L 672.397509 -424.591265 
L 673.850062 -421.557758 
L 675.302615 -418.587495 
L 676.755168 -415.657104 
L 678.207721 -412.823547 
L 679.660274 -410.067199 
L 681.112827 -407.379003 
L 682.56538 -404.763746 
L 684.017933 -402.195702 
L 685.470486 -399.660419 
L 686.923039 -397.214172 
L 688.375592 -394.861607 
L 689.828144 -392.495185 
L 691.280697 -390.250513 
L 692.73325 -388.083504 
L 694.185803 -385.968653 
L 695.638356 -383.866256 
L 697.090909 -381.870202 
L 698.543462 -379.82535 
L 699.996015 -377.820568 
L 701.448568 -375.914564 
L 702.901121 -374.063089 
L 704.353674 -372.222191 
L 705.806227 -370.414605 
L 707.25878 -368.62311 
L 708.711333 -366.909358 
L 710.163885 -365.199512 
L 711.616438 -363.487534 
L 713.068991 -361.845024 
L 714.521544 -360.197313 
L 715.974097 -358.617523 
L 717.42665 -357.047693 
L 718.879203 -355.483959 
L 720.331756 -353.932044 
L 721.784309 -352.456032 
L 723.236862 -350.93704 
L 724.689415 -349.451076 
L 726.141968 -347.981542 
L 727.594521 -346.607116 
L 729.047073 -345.196808 
L 730.499626 -343.797317 
L 731.952179 -342.435675 
L 733.404732 -341.128497 
L 734.857285 -339.856304 
L 736.309838 -338.542332 
L 737.762391 -337.276589 
L 739.214944 -335.987253 
L 740.667497 -334.762972 
L 742.12005 -333.555641 
L 743.572603 -332.382969 
L 745.025156 -331.249945 
L 746.477709 -330.173535 
L 747.930262 -329.106243 
L 749.382814 -328.062004 
L 750.835367 -326.995012 
L 752.28792 -325.989481 
L 753.740473 -325.020938 
L 755.193026 -324.097419 
L 756.645579 -323.170886 
L 758.098132 -322.29767 
L 759.550685 -321.453287 
L 761.003238 -320.633603 
L 762.455791 -319.79115 
L 763.908344 -319.018344 
L 765.360897 -318.281516 
L 766.81345 -317.591278 
L 768.266002 -316.906625 
L 769.718555 -316.305187 
L 771.171108 -315.68354 
L 772.623661 -315.131097 
L 774.076214 -314.597327 
L 775.528767 -314.097458 
L 776.98132 -313.599164 
L 778.433873 -313.142176 
L 779.886426 -312.6853 
L 781.338979 -312.213879 
L 782.791532 -311.856523 
L 784.244085 -311.500864 
L 785.696638 -311.176781 
L 787.149191 -310.904755 
L 788.601743 -310.607271 
L 790.054296 -310.360466 
L 791.506849 -310.172819 
L 792.959402 -309.959369 
L 794.411955 -309.76291 
L 795.864508 -309.634766 
L 797.317061 -309.498426 
L 798.769614 -309.411938 
L 800.222167 -309.344 
L 801.67472 -309.276305 
L 803.127273 -309.240971 
L 803.127273 -84.978263 
L 803.127273 -84.978263 
L 801.67472 -84.978263 
L 800.222167 -84.978263 
L 798.769614 -84.978263 
L 797.317061 -84.978263 
L 795.864508 -84.978263 
L 794.411955 -84.978263 
L 792.959402 -84.978263 
L 791.506849 -84.978263 
L 790.054296 -84.978263 
L 788.601743 -84.978263 
L 787.149191 -84.978263 
L 785.696638 -84.978263 
L 784.244085 -84.978263 
L 782.791532 -84.978263 
L 781.338979 -84.978263 
L 779.886426 -84.978263 
L 778.433873 -84.978263 
L 776.98132 -84.978263 
L 775.528767 -84.978263 
L 774.076214 -84.978263 
L 772.623661 -84.978263 
L 771.171108 -84.978263 
L 769.718555 -84.978263 
L 768.266002 -84.978263 
L 766.81345 -84.978263 
L 765.360897 -84.978263 
L 763.908344 -84.978263 
L 762.455791 -84.978263 
L 761.003238 -84.978263 
L 759.550685 -84.978263 
L 758.098132 -84.978263 
L 756.645579 -84.978263 
L 755.193026 -84.978263 
L 753.740473 -84.978263 
L 752.28792 -84.978263 
L 750.835367 -84.978263 
L 749.382814 -84.978263 
L 747.930262 -84.978263 
L 746.477709 -84.978263 
L 745.025156 -84.978263 
L 743.572603 -84.978263 
L 742.12005 -84.978263 
L 740.667497 -84.978263 
L 739.214944 -84.978263 
L 737.762391 -84.978263 
L 736.309838 -84.978263 
L 734.857285 -84.978263 
L 733.404732 -84.978263 
L 731.952179 -84.978263 
L 730.499626 -84.978263 
L 729.047073 -84.978263 
L 727.594521 -84.978263 
L 726.141968 -84.978263 
L 724.689415 -84.978263 
L 723.236862 -84.978263 
L 721.784309 -84.978263 
L 720.331756 -84.978263 
L 718.879203 -84.978263 
L 717.42665 -84.978263 
L 715.974097 -84.978263 
L 714.521544 -84.978263 
L 713.068991 -84.978263 
L 711.616438 -84.978263 
L 710.163885 -84.978263 
L 708.711333 -84.978263 
L 707.25878 -84.978263 
L 705.806227 -84.978263 
L 704.353674 -84.978263 
L 702.901121 -84.978263 
L 701.448568 -84.978263 
L 699.996015 -84.978263 
L 698.543462 -84.978263 
L 697.090909 -84.978263 
L 695.638356 -84.978263 
L 694.185803 -84.978263 
L 692.73325 -84.978263 
L 691.280697 -84.978263 
L 689.828144 -84.978263 
L 688.375592 -84.978263 
L 686.923039 -84.978263 
L 685.470486 -84.978263 
L 684.017933 -84.978263 
L 682.56538 -84.978263 
L 681.112827 -84.978263 
L 679.660274 -84.978263 
L 678.207721 -84.978263 
L 676.755168 -84.978263 
L 675.302615 -84.978263 
L 673.850062 -84.978263 
L 672.397509 -84.978263 
L 670.944956 -84.978263 
L 669.492403 -84.978263 
L 668.039851 -84.978263 
L 666.587298 -84.978263 
L 665.134745 -84.978263 
L 663.682192 -84.978263 
L 662.229639 -84.978263 
L 660.777086 -84.978263 
L 659.324533 -84.978263 
L 657.87198 -84.978263 
L 656.419427 -84.978263 
L 654.966874 -84.978263 
L 653.514321 -84.978263 
L 652.061768 -84.978263 
L 650.609215 -84.978263 
L 649.156663 -84.978263 
L 647.70411 -84.978263 
L 646.251557 -84.978263 
L 644.799004 -84.978263 
L 643.346451 -84.978263 
L 641.893898 -84.978263 
L 640.441345 -84.978263 
L 638.988792 -84.978263 
L 637.536239 -84.978263 
L 636.083686 -84.978263 
L 634.631133 -84.978263 
L 633.17858 -84.978263 
L 631.726027 -84.978263 
L 630.273474 -84.978263 
L 628.820922 -84.978263 
L 627.368369 -84.978263 
L 625.915816 -84.978263 
L 624.463263 -84.978263 
L 623.01071 -84.978263 
L 621.558157 -84.978263 
L 620.105604 -84.978263 
L 618.653051 -84.978263 
L 617.200498 -84.978263 
L 615.747945 -84.978263 
L 614.295392 -84.978263 
L 612.842839 -84.978263 
L 611.390286 -84.978263 
L 609.937733 -84.978263 
L 608.485181 -84.978263 
L 607.032628 -84.978263 
L 605.580075 -84.978263 
L 604.127522 -84.978263 
L 602.674969 -84.978263 
L 601.222416 -84.978263 
L 599.769863 -84.978263 
L 598.31731 -84.978263 
L 596.864757 -84.978263 
L 595.412204 -84.978263 
L 593.959651 -84.978263 
L 592.507098 -84.978263 
L 591.054545 -84.978263 
L 589.601993 -84.978263 
L 588.14944 -84.978263 
L 586.696887 -84.978263 
L 585.244334 -84.978263 
L 583.791781 -84.978263 
L 582.339228 -84.978263 
L 580.886675 -84.978263 
L 579.434122 -84.978263 
L 577.981569 -84.978263 
L 576.529016 -84.978263 
L 575.076463 -84.978263 
L 573.62391 -84.978263 
L 572.171357 -84.978263 
L 570.718804 -84.978263 
L 569.266252 -84.978263 
L 567.813699 -84.978263 
L 566.361146 -84.978263 
L 564.908593 -84.978263 
L 563.45604 -84.978263 
L 562.003487 -84.978263 
L 560.550934 -84.978263 
L 559.098381 -84.978263 
L 557.645828 -84.978263 
L 556.193275 -84.978263 
L 554.740722 -84.978263 
L 553.288169 -84.978263 
L 551.835616 -84.978263 
L 550.383064 -84.978263 
L 548.930511 -84.978263 
L 547.477958 -84.978263 
L 546.025405 -84.978263 
L 544.572852 -84.978263 
L 543.120299 -84.978263 
L 541.667746 -84.978263 
L 540.215193 -84.978263 
L 538.76264 -84.978263 
L 537.310087 -84.978263 
L 535.857534 -84.978263 
L 534.404981 -84.978263 
L 532.952428 -84.978263 
L 531.499875 -84.978263 
L 530.047323 -84.978263 
L 528.59477 -84.978263 
L 527.142217 -84.978263 
L 525.689664 -84.978263 
L 524.237111 -84.978263 
L 522.784558 -84.978263 
L 521.332005 -84.978263 
L 519.879452 -84.978263 
L 518.426899 -84.978263 
L 516.974346 -84.978263 
L 515.521793 -84.978263 
L 514.06924 -84.978263 
L 512.616687 -84.978263 
L 511.164134 -84.978263 
L 509.711582 -84.978263 
L 508.259029 -84.978263 
L 506.806476 -84.978263 
L 505.353923 -84.978263 
L 503.90137 -84.978263 
L 502.448817 -84.978263 
L 500.996264 -84.978263 
L 499.543711 -84.978263 
L 498.091158 -84.978263 
L 496.638605 -84.978263 
L 495.186052 -84.978263 
L 493.733499 -84.978263 
L 492.280946 -84.978263 
L 490.828394 -84.978263 
L 489.375841 -84.978263 
L 487.923288 -84.978263 
L 486.470735 -84.978263 
L 485.018182 -84.978263 
L 483.565629 -84.978263 
L 482.113076 -84.978263 
L 480.660523 -84.978263 
L 479.20797 -84.978263 
L 477.755417 -84.978263 
L 476.302864 -84.978263 
L 474.850311 -84.978263 
L 473.397758 -84.978263 
L 471.945205 -84.978263 
L 470.492653 -84.978263 
L 469.0401 -84.978263 
L 467.587547 -84.978263 
L 466.134994 -84.978263 
L 464.682441 -84.978263 
L 463.229888 -84.978263 
L 461.777335 -84.978263 
L 460.324782 -84.978263 
L 458.872229 -84.978263 
L 457.419676 -84.978263 
L 455.967123 -84.978263 
L 454.51457 -84.978263 
L 453.062017 -84.978263 
L 451.609465 -84.978263 
L 450.156912 -84.978263 
L 448.704359 -84.978263 
L 447.251806 -84.978263 
L 445.799253 -84.978263 
L 444.3467 -84.978263 
L 442.894147 -84.978263 
L 441.441594 -84.978263 
L 439.989041 -84.978263 
L 438.536488 -84.978263 
L 437.083935 -84.978263 
L 435.631382 -84.978263 
L 434.178829 -84.978263 
L 432.726276 -84.978263 
L 431.273724 -84.978263 
L 429.821171 -84.978263 
L 428.368618 -84.978263 
L 426.916065 -84.978263 
L 425.463512 -84.978263 
L 424.010959 -84.978263 
L 422.558406 -84.978263 
L 421.105853 -84.978263 
L 419.6533 -84.978263 
L 418.200747 -84.978263 
L 416.748194 -84.978263 
L 415.295641 -84.978263 
L 413.843088 -84.978263 
L 412.390535 -84.978263 
L 410.937983 -84.978263 
L 409.48543 -84.978263 
L 408.032877 -84.978263 
L 406.580324 -84.978263 
L 405.127771 -84.978263 
L 403.675218 -84.978263 
L 402.222665 -84.978263 
L 400.770112 -84.978263 
L 399.317559 -84.978263 
L 397.865006 -84.978263 
L 396.412453 -84.978263 
L 394.9599 -84.978263 
L 393.507347 -84.978263 
L 392.054795 -84.978263 
L 390.602242 -84.978263 
L 389.149689 -84.978263 
L 387.697136 -84.978263 
L 386.244583 -84.978263 
L 384.79203 -84.978263 
L 383.339477 -84.978263 
L 381.886924 -84.978263 
L 380.434371 -84.978263 
L 378.981818 -84.978263 
L 377.529265 -84.978263 
L 376.076712 -84.978263 
L 374.624159 -84.978263 
L 373.171606 -84.978263 
L 371.719054 -84.978263 
L 370.266501 -84.978263 
L 368.813948 -84.978263 
L 367.361395 -84.978263 
L 365.908842 -84.978263 
L 364.456289 -84.978263 
L 363.003736 -84.978263 
L 361.551183 -84.978263 
L 360.09863 -84.978263 
L 358.646077 -84.978263 
L 357.193524 -84.978263 
L 355.740971 -84.978263 
L 354.288418 -84.978263 
L 352.835866 -84.978263 
L 351.383313 -84.978263 
L 349.93076 -84.978263 
L 348.478207 -84.978263 
L 347.025654 -84.978263 
L 345.573101 -84.978263 
L 344.120548 -84.978263 
L 342.667995 -84.978263 
L 341.215442 -84.978263 
L 339.762889 -84.978263 
L 338.310336 -84.978263 
L 336.857783 -84.978263 
L 335.40523 -84.978263 
L 333.952677 -84.978263 
L 332.500125 -84.978263 
L 331.047572 -84.978263 
L 329.595019 -84.978263 
L 328.142466 -84.978263 
L 326.689913 -84.978263 
L 325.23736 -84.978263 
L 323.784807 -84.978263 
L 322.332254 -84.978263 
L 320.879701 -84.978263 
L 319.427148 -84.978263 
L 317.974595 -84.978263 
L 316.522042 -84.978263 
L 315.069489 -84.978263 
L 313.616936 -84.978263 
L 312.164384 -84.978263 
L 310.711831 -84.978263 
L 309.259278 -84.978263 
L 307.806725 -84.978263 
L 306.354172 -84.978263 
L 304.901619 -84.978263 
L 303.449066 -84.978263 
L 301.996513 -84.978263 
L 300.54396 -84.978263 
L 299.091407 -84.978263 
L 297.638854 -84.978263 
L 296.186301 -84.978263 
L 294.733748 -84.978263 
L 293.281196 -84.978263 
L 291.828643 -84.978263 
L 290.37609 -84.978263 
L 288.923537 -84.978263 
L 287.470984 -84.978263 
L 286.018431 -84.978263 
L 284.565878 -84.978263 
L 283.113325 -84.978263 
L 281.660772 -84.978263 
L 280.208219 -84.978263 
L 278.755666 -84.978263 
L 277.303113 -84.978263 
L 275.85056 -84.978263 
L 274.398007 -84.978263 
L 272.945455 -84.978263 
L 271.492902 -84.978263 
L 270.040349 -84.978263 
L 268.587796 -84.978263 
L 267.135243 -84.978263 
L 265.68269 -84.978263 
L 264.230137 -84.978263 
L 262.777584 -84.978263 
L 261.325031 -84.978263 
L 259.872478 -84.978263 
L 258.419925 -84.978263 
L 256.967372 -84.978263 
L 255.514819 -84.978263 
L 254.062267 -84.978263 
L 252.609714 -84.978263 
L 251.157161 -84.978263 
L 249.704608 -84.978263 
L 248.252055 -84.978263 
L 246.799502 -84.978263 
L 245.346949 -84.978263 
L 243.894396 -84.978263 
L 242.441843 -84.978263 
L 240.98929 -84.978263 
L 239.536737 -84.978263 
L 238.084184 -84.978263 
L 236.631631 -84.978263 
L 235.179078 -84.978263 
L 233.726526 -84.978263 
L 232.273973 -84.978263 
L 230.82142 -84.978263 
L 229.368867 -84.978263 
L 227.916314 -84.978263 
L 226.463761 -84.978263 
L 225.011208 -84.978263 
L 223.558655 -84.978263 
L 222.106102 -84.978263 
L 220.653549 -84.978263 
L 219.200996 -84.978263 
L 217.748443 -84.978263 
L 216.29589 -84.978263 
L 214.843337 -84.978263 
L 213.390785 -84.978263 
L 211.938232 -84.978263 
L 210.485679 -84.978263 
L 209.033126 -84.978263 
L 207.580573 -84.978263 
L 206.12802 -84.978263 
L 204.675467 -84.978263 
L 203.222914 -84.978263 
L 201.770361 -84.978263 
L 200.317808 -84.978263 
L 198.865255 -84.978263 
L 197.412702 -84.978263 
L 195.960149 -84.978263 
L 194.507597 -84.978263 
L 193.055044 -84.978263 
L 191.602491 -84.978263 
L 190.149938 -84.978263 
L 188.697385 -84.978263 
L 187.244832 -84.978263 
L 185.792279 -84.978263 
L 184.339726 -84.978263 
L 182.887173 -84.978263 
L 181.43462 -84.978263 
L 179.982067 -84.978263 
L 178.529514 -84.978263 
L 177.076961 -84.978263 
L 175.624408 -84.978263 
L 174.171856 -84.978263 
L 172.719303 -84.978263 
L 171.26675 -84.978263 
L 169.814197 -84.978263 
L 168.361644 -84.978263 
L 166.909091 -84.978263 
L 165.456538 -84.978263 
L 164.003985 -84.978263 
L 162.551432 -84.978263 
L 161.098879 -84.978263 
L 159.646326 -84.978263 
L 158.193773 -84.978263 
L 156.74122 -84.978263 
L 155.288667 -84.978263 
L 153.836115 -84.978263 
L 152.383562 -84.978263 
L 150.931009 -84.978263 
L 149.478456 -84.978263 
L 148.025903 -84.978263 
L 146.57335 -84.978263 
L 145.120797 -84.978263 
L 143.668244 -84.978263 
L 142.215691 -84.978263 
L 140.763138 -84.978263 
L 139.310585 -84.978263 
L 137.858032 -84.978263 
L 136.405479 -84.978263 
L 134.952927 -84.978263 
L 133.500374 -84.978263 
L 132.047821 -84.978263 
L 130.595268 -84.978263 
L 129.142715 -84.978263 
L 127.690162 -84.978263 
L 126.237609 -84.978263 
L 124.785056 -84.978263 
L 123.332503 -84.978263 
L 121.87995 -84.978263 
L 120.427397 -84.978263 
L 118.974844 -84.978263 
L 117.522291 -84.978263 
L 116.069738 -84.978263 
L 114.617186 -84.978263 
L 113.164633 -84.978263 
L 111.71208 -84.978263 
L 110.259527 -84.978263 
L 108.806974 -84.978263 
L 107.354421 -84.978263 
L 105.901868 -84.978263 
L 104.449315 -84.978263 
L 102.996762 -84.978263 
L 101.544209 -84.978263 
L 100.091656 -84.978263 
L 98.639103 -84.978263 
L 97.18655 -84.978263 
L 95.733998 -84.978263 
L 94.281445 -84.978263 
L 92.828892 -84.978263 
L 91.376339 -84.978263 
L 89.923786 -84.978263 
L 88.471233 -84.978263 
L 87.01868 -84.978263 
L 85.566127 -84.978263 
L 84.113574 -84.978263 
L 82.661021 -84.978263 
L 81.208468 -84.978263 
L 79.755915 -84.978263 
L 78.303362 -84.978263 
L 76.850809 -84.978263 
L 75.398257 -84.978263 
L 73.945704 -84.978263 
L 72.493151 -84.978263 
L 71.040598 -84.978263 
L 69.588045 -84.978263 
L 68.135492 -84.978263 
L 66.682939 -84.978263 
L 65.230386 -84.978263 
L 63.777833 -84.978263 
L 62.32528 -84.978263 
L 60.872727 -84.978263 
z
" style="stroke: #6cb7ff; stroke-opacity: 0.6; stroke-width: 0.3"/>
    </defs>
    <g clip-path="url(#p6e2f962732)">
     <use xlink:href="#m735200978c" x="0" y="864" style="fill: #6cb7ff; fill-opacity: 0.6; stroke: #6cb7ff; stroke-opacity: 0.6; stroke-width: 0.3"/>
    </g>
   </g>
   <g id="line2d_13">
    <path d="M 60.872727 555.586656 
L 63.777833 555.413568 
L 66.682939 555.028535 
L 69.588045 554.333208 
L 72.493151 553.428823 
L 75.398257 552.234894 
L 78.303362 550.792328 
L 81.208468 549.060509 
L 85.566127 546.001126 
L 88.471233 543.731737 
L 92.828892 539.903084 
L 95.733998 537.032259 
L 100.091656 532.198018 
L 104.449315 526.800763 
L 107.354421 522.919506 
L 111.71208 516.67122 
L 116.069738 509.898166 
L 120.427397 502.704779 
L 124.785056 495.0689 
L 129.142715 487.055915 
L 133.500374 478.706236 
L 137.858032 470.103625 
L 145.120797 455.192681 
L 169.814197 404.017853 
L 174.171856 395.448028 
L 182.887173 378.916917 
L 188.697385 368.607058 
L 193.055044 361.206786 
L 197.412702 354.094133 
L 203.222914 344.995694 
L 211.938232 332.132533 
L 219.200996 321.974948 
L 233.726526 302.873789 
L 243.894396 289.805722 
L 251.157161 280.319494 
L 256.967372 272.375131 
L 261.325031 266.193954 
L 264.230137 262.052467 
L 275.85056 244.543754 
L 284.565878 230.955736 
L 296.186301 213.305593 
L 300.54396 207.243525 
L 306.354172 199.467503 
L 312.164384 192.19735 
L 315.069489 188.788844 
L 319.427148 184.049879 
L 329.595019 173.542143 
L 342.667995 159.813231 
L 348.478207 153.129243 
L 354.288418 145.893891 
L 364.456289 132.16495 
L 371.719054 122.000176 
L 377.529265 114.192625 
L 383.339477 107.145064 
L 387.697136 102.482816 
L 390.602242 99.907108 
L 393.507347 97.550653 
L 394.9599 96.498375 
L 397.865006 94.811114 
L 400.770112 93.564074 
L 403.675218 92.65585 
L 406.580324 92.216913 
L 408.032877 92.151636 
L 410.937983 92.370533 
L 413.843088 93.030807 
L 416.748194 93.983184 
L 418.200747 94.531715 
L 421.105853 96.066549 
L 424.010959 97.90007 
L 426.916065 99.990232 
L 429.821171 102.27398 
L 434.178829 106.089036 
L 444.3467 115.963654 
L 454.51457 126.117518 
L 463.229888 134.355256 
L 469.0401 139.525763 
L 479.20797 148.25668 
L 483.565629 151.840008 
L 490.828394 158.146193 
L 493.733499 160.670972 
L 496.638605 163.284348 
L 505.353923 171.487063 
L 508.259029 174.402632 
L 515.521793 182.347646 
L 521.332005 188.8438 
L 525.689664 193.98503 
L 534.404981 204.648755 
L 541.667746 213.426574 
L 546.025405 218.52673 
L 550.383064 223.629967 
L 560.550934 234.682235 
L 576.529016 250.502663 
L 582.339228 256.160121 
L 591.054545 265.416307 
L 595.412204 270.517695 
L 599.769863 276.15988 
L 604.127522 282.330374 
L 607.032628 286.867526 
L 609.937733 291.656557 
L 612.842839 296.825433 
L 617.200498 305.112216 
L 620.105604 311.049372 
L 624.463263 320.531138 
L 630.273474 334.12463 
L 634.631133 344.945244 
L 641.893898 363.785232 
L 660.777086 412.813362 
L 666.587298 426.558498 
L 670.944956 436.312853 
L 675.302615 445.412505 
L 678.207721 451.176453 
L 682.56538 459.236254 
L 686.923039 466.785828 
L 691.280697 473.749487 
L 695.638356 480.133744 
L 702.901121 489.936911 
L 707.25878 495.37689 
L 714.521544 503.802687 
L 721.784309 511.543968 
L 726.141968 516.018458 
L 734.857285 524.143696 
L 739.214944 528.012747 
L 743.572603 531.617031 
L 747.930262 534.893757 
L 753.740473 538.979062 
L 759.550685 542.546713 
L 765.360897 545.718484 
L 769.718555 547.694813 
L 772.623661 548.868903 
L 776.98132 550.400836 
L 782.791532 552.143477 
L 785.696638 552.823219 
L 791.506849 553.827181 
L 795.864508 554.365234 
L 798.769614 554.588062 
L 803.127273 554.759029 
L 803.127273 554.759029 
" clip-path="url(#p6e2f962732)" style="fill: none; stroke: #7570b3; stroke-width: 2; stroke-linecap: round"/>
   </g>
   <g id="line2d_14">
    <path d="M 60.872727 781.256087 
L 60.872727 555.586656 
" clip-path="url(#p6e2f962732)" style="fill: none; stroke: #7570b3; stroke-width: 2; stroke-linecap: round"/>
   </g>
   <g id="line2d_15">
    <path d="M 803.127273 781.264364 
L 803.127273 554.759029 
" clip-path="url(#p6e2f962732)" style="fill: none; stroke: #7570b3; stroke-width: 2; stroke-linecap: round"/>
   </g>
   <g id="line2d_16">
    <defs>
     <path id="m77cf17c203" d="M 0 3.5 
C 0.928211 3.5 1.81853 3.131218 2.474874 2.474874 
C 3.131218 1.81853 3.5 0.928211 3.5 0 
C 3.5 -0.928211 3.131218 -1.81853 2.474874 -2.474874 
C 1.81853 -3.131218 0.928211 -3.5 0 -3.5 
C -0.928211 -3.5 -1.81853 -3.131218 -2.474874 -2.474874 
C -3.131218 -1.81853 -3.5 -0.928211 -3.5 0 
C -3.5 0.928211 -3.131218 1.81853 -2.474874 2.474874 
C -1.81853 3.131218 -0.928211 3.5 0 3.5 
z
"/>
    </defs>
    <g clip-path="url(#p6e2f962732)">
     <use xlink:href="#m77cf17c203" x="419.52999" y="779.021737" style="fill: #7570b3"/>
    </g>
   </g>
   <g id="patch_3">
    <path d="M 23.76 815.72 
L 840.24 815.72 
" style="fill: none; stroke: #333333; stroke-width: 1.5; stroke-linejoin: miter; stroke-linecap: square"/>
   </g>
   <g id="text_7">
    <!-- $x_1^3x_3$ -->
    <g style="fill: #262626" transform="translate(401.48 49.856)">
     <text>
      <tspan x="0" y="-0.734375" style="font-style: oblique; font-size: 28px; font-family: 'DejaVu Sans'; fill: #262626">x</tspan>
      <tspan x="31.056576" y="-0.734375" style="font-style: oblique; font-size: 28px; font-family: 'DejaVu Sans'; fill: #262626">x</tspan>
      <tspan x="16.570312" y="6.921875" style="font-size: 19.6px; font-family: 'DejaVu Sans'; fill: #262626">1</tspan>
      <tspan x="17.820833" y="-11.453125" style="font-size: 19.6px; font-family: 'DejaVu Sans'; fill: #262626">3</tspan>
      <tspan x="47.626888" y="3.859375" style="font-size: 19.6px; font-family: 'DejaVu Sans'; fill: #262626">3</tspan>
     </text>
    </g>
   </g>
  </g>
 </g>
 <defs>
  <clipPath id="p6e2f962732">
   <rect x="23.76" y="57.696" width="816.48" height="758.024"/>
  </clipPath>
 </defs>
</svg>
