<?xml version="1.0" encoding="utf-8" standalone="no"?>
<!DOCTYPE svg PUBLIC "-//W3C//DTD SVG 1.1//EN"
  "http://www.w3.org/Graphics/SVG/1.1/DTD/svg11.dtd">
<svg xmlns:xlink="http://www.w3.org/1999/xlink" width="864pt" height="864pt" viewBox="0 0 864 864" xmlns="http://www.w3.org/2000/svg" version="1.1">
 <metadata>
  <rdf:RDF xmlns:dc="http://purl.org/dc/elements/1.1/" xmlns:cc="http://creativecommons.org/ns#" xmlns:rdf="http://www.w3.org/1999/02/22-rdf-syntax-ns#">
   <cc:Work>
    <dc:type rdf:resource="http://purl.org/dc/dcmitype/StillImage"/>
    <dc:date>2026-03-13T22:48:06.078495</dc:date>
    <dc:format>image/svg+xml</dc:format>
    <dc:creator>
     <cc:Agent>
      <dc:title>Matplotlib v3.10.6, https://matplotlib.org/</dc:title>
     </cc:Agent>
    </dc:creator>
   </cc:Work>
  </rdf:RDF>
 </metadata>
 <defs>
  <style type="text/css">*{stroke-linejoin: round; stroke-linecap: butt}</style>
 </defs>
 <g id="figure_1">
  <g id="patch_1">
   <path d="M 0 864 
L 864 864 
L 864 0 
L 0 0 
L 0 864 
z
" style="fill: none; opacity: 0"/>
  </g>
  <g id="axes_1">
   <g id="patch_2">
    <path d="M 23.76 815.72 
L 827.593543 815.72 
L 827.593543 57.696 
L 23.76 57.696 
L 23.76 815.72 
z
" style="fill: none"/>
   </g>
   <g id="matplotlib.axis_1">
    <g id="xtick_1">
     <g id="line2d_1">
      <path d="M 140.050308 815.72 
L 140.050308 57.696 
" clip-path="url(#p29a387098a)" style="fill: none; stroke: #ffffff; stroke-opacity: 0.4; stroke-linecap: round"/>
     </g>
     <g id="line2d_2"/>
     <g id="text_1">
      <text style="font-size: 18px; font-family: 'DejaVu Serif', 'Times New Roman', serif; text-anchor: middle; fill: #262626" x="140.050308" y="836.397187" transform="rotate(-0 140.050308 836.397187)">−0.28</text>
     </g>
    </g>
    <g id="xtick_2">
     <g id="line2d_3">
      <path d="M 307.448304 815.72 
L 307.448304 57.696 
" clip-path="url(#p29a387098a)" style="fill: none; stroke: #ffffff; stroke-opacity: 0.4; stroke-linecap: round"/>
     </g>
     <g id="line2d_4"/>
     <g id="text_2">
      <text style="font-size: 18px; font-family: 'DejaVu Serif', 'Times New Roman', serif; text-anchor: middle; fill: #262626" x="307.448304" y="836.397187" transform="rotate(-0 307.448304 836.397187)">−0.26</text>
     </g>
    </g>
    <g id="xtick_3">
     <g id="line2d_5">
      <path d="M 474.846299 815.72 
L 474.846299 57.696 
" clip-path="url(#p29a387098a)" style="fill: none; stroke: #ffffff; stroke-opacity: 0.4; stroke-linecap: round"/>
     </g>
     <g id="line2d_6"/>
     <g id="text_3">
      <text style="font-size: 18px; font-family: 'DejaVu Serif', 'Times New Roman', serif; text-anchor: middle; fill: #262626" x="474.846299" y="836.397187" transform="rotate(-0 474.846299 836.397187)">−0.24</text>
     </g>
    </g>
    <g id="xtick_4">
     <g id="line2d_7">
      <path d="M 642.244294 815.72 
L 642.244294 57.696 
" clip-path="url(#p29a387098a)" style="fill: none; stroke: #ffffff; stroke-opacity: 0.4; stroke-linecap: round"/>
     </g>
     <g id="line2d_8"/>
     <g id="text_4">
      <text style="font-size: 18px; font-family: 'DejaVu Serif', 'Times New Roman', serif; text-anchor: middle; fill: #262626" x="642.244294" y="836.397187" transform="rotate(-0 642.244294 836.397187)">−0.22</text>
     </g>
    </g>
    <g id="xtick_5">
     <g id="line2d_9">
      <path d="M 809.642289 815.72 
L 809.642289 57.696 
" clip-path="url(#p29a387098a)" style="fill: none; stroke: #ffffff; stroke-opacity: 0.4; stroke-linecap: round"/>
     </g>
     <g id="line2d_10"/>
     <g id="text_5">
      <text style="font-size: 18px; font-family: 'DejaVu Serif', 'Times New Roman', serif; text-anchor: middle; fill: #262626" x="809.642289" y="836.397187" transform="rotate(-0 809.642289 836.397187)">−0.20</text>
     </g>
    </g>
   </g>
   <g id="matplotlib.axis_2"/>
   <g id="FillBetweenPolyCollection_1">
    <defs>
     <path id="mcafe2bfee5" d="M 60.297888 -85.360914 
L 60.297888 -321.378204 
L 61.727943 -321.457784 
L 63.157997 -321.587229 
L 64.588051 -321.760981 
L 66.018106 -322.03129 
L 67.44816 -322.380325 
L 68.878214 -322.758098 
L 70.308269 -323.231162 
L 71.738323 -323.729905 
L 73.168377 -324.311688 
L 74.598432 -324.871856 
L 76.028486 -325.630087 
L 77.45854 -326.4615 
L 78.888595 -327.321362 
L 80.318649 -328.241953 
L 81.748703 -329.197383 
L 83.178758 -330.230714 
L 84.608812 -331.378077 
L 86.038866 -332.58582 
L 87.468921 -333.851042 
L 88.898975 -335.199333 
L 90.329029 -336.632063 
L 91.759084 -338.146055 
L 93.189138 -339.779738 
L 94.619192 -341.455063 
L 96.049247 -343.163994 
L 97.479301 -344.973061 
L 98.909355 -346.835429 
L 100.33941 -348.78716 
L 101.769464 -350.793697 
L 103.199518 -352.88843 
L 104.629573 -355.032992 
L 106.059627 -357.299712 
L 107.489681 -359.55761 
L 108.919736 -361.919031 
L 110.34979 -364.345993 
L 111.779844 -366.854861 
L 113.209899 -369.430847 
L 114.639953 -372.062703 
L 116.070007 -374.732067 
L 117.500062 -377.427179 
L 118.930116 -380.164842 
L 120.36017 -382.948882 
L 121.790225 -385.816612 
L 123.220279 -388.707451 
L 124.650334 -391.590727 
L 126.080388 -394.522007 
L 127.510442 -397.453912 
L 128.940497 -400.480024 
L 130.370551 -403.517712 
L 131.800605 -406.545649 
L 133.23066 -409.559503 
L 134.660714 -412.627535 
L 136.090768 -415.642571 
L 137.520823 -418.673987 
L 138.950877 -421.727608 
L 140.380931 -424.750546 
L 141.810986 -427.72206 
L 143.24104 -430.700758 
L 144.671094 -433.699275 
L 146.101149 -436.687958 
L 147.531203 -439.712617 
L 148.961257 -442.617185 
L 150.391312 -445.552533 
L 151.821366 -448.43631 
L 153.25142 -451.308715 
L 154.681475 -454.159288 
L 156.111529 -457.039225 
L 157.541583 -459.876771 
L 158.971638 -462.616373 
L 160.401692 -465.352249 
L 161.831746 -467.980984 
L 163.261801 -470.582579 
L 164.691855 -473.179335 
L 166.121909 -475.723414 
L 167.551964 -478.233031 
L 168.982018 -480.678013 
L 170.412072 -483.069727 
L 171.842127 -485.403168 
L 173.272181 -487.769456 
L 174.702235 -490.044397 
L 176.13229 -492.293346 
L 177.562344 -494.489351 
L 178.992398 -496.599691 
L 180.422453 -498.705939 
L 181.852507 -500.66687 
L 183.282561 -502.598434 
L 184.712616 -504.460466 
L 186.14267 -506.295032 
L 187.572724 -508.090291 
L 189.002779 -509.856734 
L 190.432833 -511.527727 
L 191.862887 -513.120784 
L 193.292942 -514.712339 
L 194.722996 -516.268502 
L 196.15305 -517.735014 
L 197.583105 -519.166119 
L 199.013159 -520.521442 
L 200.443213 -521.843908 
L 201.873268 -523.089955 
L 203.303322 -524.320105 
L 204.733376 -525.521319 
L 206.163431 -526.65778 
L 207.593485 -527.794394 
L 209.023539 -528.901805 
L 210.453594 -529.992692 
L 211.883648 -531.014156 
L 213.313702 -532.064641 
L 214.743757 -533.014148 
L 216.173811 -533.969204 
L 217.603865 -534.858296 
L 219.03392 -535.7774 
L 220.463974 -536.678307 
L 221.894028 -537.601956 
L 223.324083 -538.52603 
L 224.754137 -539.474567 
L 226.184191 -540.412755 
L 227.614246 -541.318245 
L 229.0443 -542.315105 
L 230.474354 -543.303558 
L 231.904409 -544.313048 
L 233.334463 -545.383191 
L 234.764517 -546.47392 
L 236.194572 -547.649064 
L 237.624626 -548.829131 
L 239.054681 -550.123893 
L 240.484735 -551.530292 
L 241.914789 -552.93117 
L 243.344844 -554.348459 
L 244.774898 -555.79259 
L 246.204952 -557.325295 
L 247.635007 -558.943505 
L 249.065061 -560.617367 
L 250.495115 -562.360548 
L 251.92517 -564.175961 
L 253.355224 -566.09057 
L 254.785278 -568.068856 
L 256.215333 -570.118887 
L 257.645387 -572.240287 
L 259.075441 -574.381353 
L 260.505496 -576.681689 
L 261.93555 -579.000381 
L 263.365604 -581.377464 
L 264.795659 -583.837495 
L 266.225713 -586.347214 
L 267.655767 -588.928564 
L 269.085822 -591.558204 
L 270.515876 -594.205641 
L 271.94593 -596.932453 
L 273.375985 -599.69841 
L 274.806039 -602.519911 
L 276.236093 -605.391489 
L 277.666148 -608.293813 
L 279.096202 -611.232918 
L 280.526256 -614.226414 
L 281.956311 -617.181083 
L 283.386365 -620.15334 
L 284.816419 -623.182149 
L 286.246474 -626.244508 
L 287.676528 -629.380312 
L 289.106582 -632.425238 
L 290.536637 -635.47654 
L 291.966691 -638.635056 
L 293.396745 -641.78422 
L 294.8268 -644.934892 
L 296.256854 -648.055139 
L 297.686908 -651.143897 
L 299.116963 -654.297107 
L 300.547017 -657.388251 
L 301.977071 -660.444127 
L 303.407126 -663.535237 
L 304.83718 -666.57066 
L 306.267234 -669.595552 
L 307.697289 -672.635493 
L 309.127343 -675.678369 
L 310.557397 -678.693875 
L 311.987452 -681.686376 
L 313.417506 -684.675198 
L 314.84756 -687.644039 
L 316.277615 -690.554674 
L 317.707669 -693.454137 
L 319.137723 -696.25745 
L 320.567778 -699.146335 
L 321.997832 -701.949667 
L 323.427886 -704.707536 
L 324.857941 -707.448141 
L 326.287995 -710.095599 
L 327.718049 -712.79685 
L 329.148104 -715.395368 
L 330.578158 -717.987561 
L 332.008212 -720.605391 
L 333.438267 -723.108011 
L 334.868321 -725.493725 
L 336.298375 -727.884891 
L 337.72843 -730.215866 
L 339.158484 -732.544884 
L 340.588538 -734.774516 
L 342.018593 -736.920271 
L 343.448647 -739.099201 
L 344.878701 -741.170275 
L 346.308756 -743.203967 
L 347.73881 -745.169046 
L 349.168864 -747.062179 
L 350.598919 -748.919467 
L 352.028973 -750.702078 
L 353.459028 -752.39209 
L 354.889082 -754.045533 
L 356.319136 -755.574116 
L 357.749191 -757.083498 
L 359.179245 -758.480857 
L 360.609299 -759.741239 
L 362.039354 -761.038144 
L 363.469408 -762.185267 
L 364.899462 -763.328983 
L 366.329517 -764.366437 
L 367.759571 -765.378618 
L 369.189625 -766.229403 
L 370.61968 -767.037577 
L 372.049734 -767.836641 
L 373.479788 -768.513905 
L 374.909843 -769.183116 
L 376.339897 -769.780584 
L 377.769951 -770.272712 
L 379.200006 -770.672836 
L 380.63006 -770.989358 
L 382.060114 -771.309248 
L 383.490169 -771.600003 
L 384.920223 -771.724209 
L 386.350277 -771.76191 
L 387.780332 -771.848364 
L 389.210386 -771.827347 
L 390.64044 -771.740134 
L 392.070495 -771.632456 
L 393.500549 -771.412673 
L 394.930603 -771.271166 
L 396.360658 -771.005184 
L 397.790712 -770.639227 
L 399.220766 -770.214483 
L 400.650821 -769.796334 
L 402.080875 -769.204248 
L 403.510929 -768.636051 
L 404.940984 -768.070451 
L 406.371038 -767.414026 
L 407.801092 -766.703719 
L 409.231147 -765.96258 
L 410.661201 -765.073725 
L 412.091255 -764.257135 
L 413.52131 -763.407768 
L 414.951364 -762.480088 
L 416.381418 -761.525433 
L 417.811473 -760.516525 
L 419.241527 -759.429495 
L 420.671581 -758.317609 
L 422.101636 -757.178698 
L 423.53169 -756.006222 
L 424.961744 -754.812369 
L 426.391799 -753.637255 
L 427.821853 -752.520696 
L 429.251907 -751.305793 
L 430.681962 -750.032814 
L 432.112016 -748.742701 
L 433.54207 -747.450895 
L 434.972125 -746.119845 
L 436.402179 -744.768513 
L 437.832233 -743.401807 
L 439.262288 -742.033818 
L 440.692342 -740.707765 
L 442.122396 -739.340013 
L 443.552451 -738.050207 
L 444.982505 -736.745887 
L 446.412559 -735.447784 
L 447.842614 -734.148697 
L 449.272668 -732.905969 
L 450.702722 -731.684674 
L 452.132777 -730.434788 
L 453.562831 -729.178298 
L 454.992885 -728.058221 
L 456.42294 -726.973459 
L 457.852994 -725.912012 
L 459.283048 -724.929815 
L 460.713103 -723.97894 
L 462.143157 -723.065564 
L 463.573211 -722.194416 
L 465.003266 -721.340999 
L 466.43332 -720.54154 
L 467.863375 -719.889974 
L 469.293429 -719.186013 
L 470.723483 -718.517345 
L 472.153538 -717.98143 
L 473.583592 -717.408921 
L 475.013646 -716.954585 
L 476.443701 -716.537486 
L 477.873755 -716.202462 
L 479.303809 -715.929682 
L 480.733864 -715.700359 
L 482.163918 -715.536959 
L 483.593972 -715.435384 
L 485.024027 -715.363679 
L 486.454081 -715.261453 
L 487.884135 -715.275526 
L 489.31419 -715.319446 
L 490.744244 -715.463956 
L 492.174298 -715.593929 
L 493.604353 -715.777464 
L 495.034407 -716.052627 
L 496.464461 -716.316794 
L 497.894516 -716.636823 
L 499.32457 -716.94072 
L 500.754624 -717.298197 
L 502.184679 -717.681923 
L 503.614733 -718.068044 
L 505.044787 -718.447304 
L 506.474842 -718.871399 
L 507.904896 -719.306731 
L 509.33495 -719.771789 
L 510.765005 -720.255148 
L 512.195059 -720.687552 
L 513.625113 -721.213368 
L 515.055168 -721.692084 
L 516.485222 -722.100783 
L 517.915276 -722.554668 
L 519.345331 -722.994697 
L 520.775385 -723.356129 
L 522.205439 -723.664931 
L 523.635494 -724.003373 
L 525.065548 -724.335221 
L 526.495602 -724.591031 
L 527.925657 -724.792387 
L 529.355711 -724.965371 
L 530.785765 -725.122412 
L 532.21582 -725.190716 
L 533.645874 -725.20361 
L 535.075928 -725.174841 
L 536.505983 -725.125513 
L 537.936037 -724.952253 
L 539.366091 -724.700541 
L 540.796146 -724.341626 
L 542.2262 -723.925204 
L 543.656254 -723.498007 
L 545.086309 -722.906241 
L 546.516363 -722.347462 
L 547.946417 -721.613347 
L 549.376472 -720.822388 
L 550.806526 -719.950033 
L 552.23658 -718.933918 
L 553.666635 -717.839827 
L 555.096689 -716.645975 
L 556.526743 -715.38042 
L 557.956798 -714.037186 
L 559.386852 -712.600532 
L 560.816906 -711.030529 
L 562.246961 -709.429556 
L 563.677015 -707.69145 
L 565.107069 -705.846318 
L 566.537124 -703.955625 
L 567.967178 -701.958919 
L 569.397232 -699.955622 
L 570.827287 -697.776529 
L 572.257341 -695.525958 
L 573.687395 -693.21121 
L 575.11745 -690.831732 
L 576.547504 -688.417474 
L 577.977558 -685.892461 
L 579.407613 -683.294889 
L 580.837667 -680.602618 
L 582.267722 -677.896216 
L 583.697776 -675.141086 
L 585.12783 -672.318857 
L 586.557885 -669.486266 
L 587.987939 -666.560336 
L 589.417993 -663.648505 
L 590.848048 -660.6573 
L 592.278102 -657.6397 
L 593.708156 -654.642851 
L 595.138211 -651.532568 
L 596.568265 -648.391093 
L 597.998319 -645.298116 
L 599.428374 -642.22181 
L 600.858428 -639.013595 
L 602.288482 -635.855673 
L 603.718537 -632.705029 
L 605.148591 -629.514082 
L 606.578645 -626.308843 
L 608.0087 -623.055917 
L 609.438754 -619.850943 
L 610.868808 -616.710284 
L 612.298863 -613.528379 
L 613.728917 -610.310139 
L 615.158971 -607.159567 
L 616.589026 -603.95331 
L 618.01908 -600.725714 
L 619.449134 -597.493418 
L 620.879189 -594.281006 
L 622.309243 -591.115572 
L 623.739297 -588.002893 
L 625.169352 -584.798721 
L 626.599406 -581.589051 
L 628.02946 -578.45866 
L 629.459515 -575.29408 
L 630.889569 -572.105208 
L 632.319623 -568.958319 
L 633.749678 -565.828616 
L 635.179732 -562.640448 
L 636.609786 -559.504971 
L 638.039841 -556.412331 
L 639.469895 -553.254607 
L 640.899949 -550.142915 
L 642.330004 -547.076576 
L 643.760058 -544.092599 
L 645.190112 -541.074881 
L 646.620167 -538.05255 
L 648.050221 -535.072954 
L 649.480275 -532.137517 
L 650.91033 -529.159971 
L 652.340384 -526.218828 
L 653.770438 -523.289645 
L 655.200493 -520.399961 
L 656.630547 -517.456972 
L 658.060601 -514.59152 
L 659.490656 -511.743959 
L 660.92071 -508.9843 
L 662.350764 -506.158561 
L 663.780819 -503.362787 
L 665.210873 -500.646655 
L 666.640927 -497.975932 
L 668.070982 -495.275962 
L 669.501036 -492.656654 
L 670.93109 -490.06289 
L 672.361145 -487.479924 
L 673.791199 -484.918158 
L 675.221253 -482.378528 
L 676.651308 -479.832844 
L 678.081362 -477.383281 
L 679.511416 -474.944036 
L 680.941471 -472.44052 
L 682.371525 -470.066845 
L 683.801579 -467.735914 
L 685.231634 -465.391976 
L 686.661688 -463.115474 
L 688.091742 -460.816014 
L 689.521797 -458.5427 
L 690.951851 -456.261174 
L 692.381905 -454.050196 
L 693.81196 -451.84093 
L 695.242014 -449.589764 
L 696.672068 -447.423729 
L 698.102123 -445.280802 
L 699.532177 -443.175605 
L 700.962232 -441.047749 
L 702.392286 -438.916248 
L 703.82234 -436.774355 
L 705.252395 -434.708899 
L 706.682449 -432.614181 
L 708.112503 -430.531121 
L 709.542558 -428.482161 
L 710.972612 -426.469233 
L 712.402666 -424.45767 
L 713.832721 -422.42085 
L 715.262775 -420.375715 
L 716.692829 -418.39814 
L 718.122884 -416.385276 
L 719.552938 -414.390146 
L 720.982992 -412.40227 
L 722.413047 -410.465671 
L 723.843101 -408.497562 
L 725.273155 -406.549118 
L 726.70321 -404.551173 
L 728.133264 -402.611016 
L 729.563318 -400.734825 
L 730.993373 -398.845033 
L 732.423427 -396.91123 
L 733.853481 -395.059946 
L 735.283536 -393.217204 
L 736.71359 -391.340267 
L 738.143644 -389.487647 
L 739.573699 -387.645088 
L 741.003753 -385.83548 
L 742.433807 -384.085456 
L 743.863862 -382.33073 
L 745.293916 -380.624972 
L 746.72397 -378.908743 
L 748.154025 -377.244992 
L 749.584079 -375.576572 
L 751.014133 -373.939809 
L 752.444188 -372.356133 
L 753.874242 -370.800936 
L 755.304296 -369.304054 
L 756.734351 -367.77288 
L 758.164405 -366.342066 
L 759.594459 -364.866757 
L 761.024514 -363.57176 
L 762.454568 -362.223846 
L 763.884622 -360.92904 
L 765.314677 -359.696124 
L 766.744731 -358.552612 
L 768.174785 -357.467467 
L 769.60484 -356.327347 
L 771.034894 -355.298891 
L 772.464948 -354.37451 
L 773.895003 -353.478846 
L 775.325057 -352.635711 
L 776.755111 -351.852442 
L 778.185166 -351.175579 
L 779.61522 -350.521231 
L 781.045274 -349.940375 
L 782.475329 -349.41315 
L 783.905383 -348.984294 
L 785.335437 -348.659495 
L 786.765492 -348.396083 
L 788.195546 -348.145247 
L 789.6256 -347.976512 
L 791.055655 -347.888694 
L 791.055655 -85.360914 
L 791.055655 -85.360914 
L 789.6256 -85.360914 
L 788.195546 -85.360914 
L 786.765492 -85.360914 
L 785.335437 -85.360914 
L 783.905383 -85.360914 
L 782.475329 -85.360914 
L 781.045274 -85.360914 
L 779.61522 -85.360914 
L 778.185166 -85.360914 
L 776.755111 -85.360914 
L 775.325057 -85.360914 
L 773.895003 -85.360914 
L 772.464948 -85.360914 
L 771.034894 -85.360914 
L 769.60484 -85.360914 
L 768.174785 -85.360914 
L 766.744731 -85.360914 
L 765.314677 -85.360914 
L 763.884622 -85.360914 
L 762.454568 -85.360914 
L 761.024514 -85.360914 
L 759.594459 -85.360914 
L 758.164405 -85.360914 
L 756.734351 -85.360914 
L 755.304296 -85.360914 
L 753.874242 -85.360914 
L 752.444188 -85.360914 
L 751.014133 -85.360914 
L 749.584079 -85.360914 
L 748.154025 -85.360914 
L 746.72397 -85.360914 
L 745.293916 -85.360914 
L 743.863862 -85.360914 
L 742.433807 -85.360914 
L 741.003753 -85.360914 
L 739.573699 -85.360914 
L 738.143644 -85.360914 
L 736.71359 -85.360914 
L 735.283536 -85.360914 
L 733.853481 -85.360914 
L 732.423427 -85.360914 
L 730.993373 -85.360914 
L 729.563318 -85.360914 
L 728.133264 -85.360914 
L 726.70321 -85.360914 
L 725.273155 -85.360914 
L 723.843101 -85.360914 
L 722.413047 -85.360914 
L 720.982992 -85.360914 
L 719.552938 -85.360914 
L 718.122884 -85.360914 
L 716.692829 -85.360914 
L 715.262775 -85.360914 
L 713.832721 -85.360914 
L 712.402666 -85.360914 
L 710.972612 -85.360914 
L 709.542558 -85.360914 
L 708.112503 -85.360914 
L 706.682449 -85.360914 
L 705.252395 -85.360914 
L 703.82234 -85.360914 
L 702.392286 -85.360914 
L 700.962232 -85.360914 
L 699.532177 -85.360914 
L 698.102123 -85.360914 
L 696.672068 -85.360914 
L 695.242014 -85.360914 
L 693.81196 -85.360914 
L 692.381905 -85.360914 
L 690.951851 -85.360914 
L 689.521797 -85.360914 
L 688.091742 -85.360914 
L 686.661688 -85.360914 
L 685.231634 -85.360914 
L 683.801579 -85.360914 
L 682.371525 -85.360914 
L 680.941471 -85.360914 
L 679.511416 -85.360914 
L 678.081362 -85.360914 
L 676.651308 -85.360914 
L 675.221253 -85.360914 
L 673.791199 -85.360914 
L 672.361145 -85.360914 
L 670.93109 -85.360914 
L 669.501036 -85.360914 
L 668.070982 -85.360914 
L 666.640927 -85.360914 
L 665.210873 -85.360914 
L 663.780819 -85.360914 
L 662.350764 -85.360914 
L 660.92071 -85.360914 
L 659.490656 -85.360914 
L 658.060601 -85.360914 
L 656.630547 -85.360914 
L 655.200493 -85.360914 
L 653.770438 -85.360914 
L 652.340384 -85.360914 
L 650.91033 -85.360914 
L 649.480275 -85.360914 
L 648.050221 -85.360914 
L 646.620167 -85.360914 
L 645.190112 -85.360914 
L 643.760058 -85.360914 
L 642.330004 -85.360914 
L 640.899949 -85.360914 
L 639.469895 -85.360914 
L 638.039841 -85.360914 
L 636.609786 -85.360914 
L 635.179732 -85.360914 
L 633.749678 -85.360914 
L 632.319623 -85.360914 
L 630.889569 -85.360914 
L 629.459515 -85.360914 
L 628.02946 -85.360914 
L 626.599406 -85.360914 
L 625.169352 -85.360914 
L 623.739297 -85.360914 
L 622.309243 -85.360914 
L 620.879189 -85.360914 
L 619.449134 -85.360914 
L 618.01908 -85.360914 
L 616.589026 -85.360914 
L 615.158971 -85.360914 
L 613.728917 -85.360914 
L 612.298863 -85.360914 
L 610.868808 -85.360914 
L 609.438754 -85.360914 
L 608.0087 -85.360914 
L 606.578645 -85.360914 
L 605.148591 -85.360914 
L 603.718537 -85.360914 
L 602.288482 -85.360914 
L 600.858428 -85.360914 
L 599.428374 -85.360914 
L 597.998319 -85.360914 
L 596.568265 -85.360914 
L 595.138211 -85.360914 
L 593.708156 -85.360914 
L 592.278102 -85.360914 
L 590.848048 -85.360914 
L 589.417993 -85.360914 
L 587.987939 -85.360914 
L 586.557885 -85.360914 
L 585.12783 -85.360914 
L 583.697776 -85.360914 
L 582.267722 -85.360914 
L 580.837667 -85.360914 
L 579.407613 -85.360914 
L 577.977558 -85.360914 
L 576.547504 -85.360914 
L 575.11745 -85.360914 
L 573.687395 -85.360914 
L 572.257341 -85.360914 
L 570.827287 -85.360914 
L 569.397232 -85.360914 
L 567.967178 -85.360914 
L 566.537124 -85.360914 
L 565.107069 -85.360914 
L 563.677015 -85.360914 
L 562.246961 -85.360914 
L 560.816906 -85.360914 
L 559.386852 -85.360914 
L 557.956798 -85.360914 
L 556.526743 -85.360914 
L 555.096689 -85.360914 
L 553.666635 -85.360914 
L 552.23658 -85.360914 
L 550.806526 -85.360914 
L 549.376472 -85.360914 
L 547.946417 -85.360914 
L 546.516363 -85.360914 
L 545.086309 -85.360914 
L 543.656254 -85.360914 
L 542.2262 -85.360914 
L 540.796146 -85.360914 
L 539.366091 -85.360914 
L 537.936037 -85.360914 
L 536.505983 -85.360914 
L 535.075928 -85.360914 
L 533.645874 -85.360914 
L 532.21582 -85.360914 
L 530.785765 -85.360914 
L 529.355711 -85.360914 
L 527.925657 -85.360914 
L 526.495602 -85.360914 
L 525.065548 -85.360914 
L 523.635494 -85.360914 
L 522.205439 -85.360914 
L 520.775385 -85.360914 
L 519.345331 -85.360914 
L 517.915276 -85.360914 
L 516.485222 -85.360914 
L 515.055168 -85.360914 
L 513.625113 -85.360914 
L 512.195059 -85.360914 
L 510.765005 -85.360914 
L 509.33495 -85.360914 
L 507.904896 -85.360914 
L 506.474842 -85.360914 
L 505.044787 -85.360914 
L 503.614733 -85.360914 
L 502.184679 -85.360914 
L 500.754624 -85.360914 
L 499.32457 -85.360914 
L 497.894516 -85.360914 
L 496.464461 -85.360914 
L 495.034407 -85.360914 
L 493.604353 -85.360914 
L 492.174298 -85.360914 
L 490.744244 -85.360914 
L 489.31419 -85.360914 
L 487.884135 -85.360914 
L 486.454081 -85.360914 
L 485.024027 -85.360914 
L 483.593972 -85.360914 
L 482.163918 -85.360914 
L 480.733864 -85.360914 
L 479.303809 -85.360914 
L 477.873755 -85.360914 
L 476.443701 -85.360914 
L 475.013646 -85.360914 
L 473.583592 -85.360914 
L 472.153538 -85.360914 
L 470.723483 -85.360914 
L 469.293429 -85.360914 
L 467.863375 -85.360914 
L 466.43332 -85.360914 
L 465.003266 -85.360914 
L 463.573211 -85.360914 
L 462.143157 -85.360914 
L 460.713103 -85.360914 
L 459.283048 -85.360914 
L 457.852994 -85.360914 
L 456.42294 -85.360914 
L 454.992885 -85.360914 
L 453.562831 -85.360914 
L 452.132777 -85.360914 
L 450.702722 -85.360914 
L 449.272668 -85.360914 
L 447.842614 -85.360914 
L 446.412559 -85.360914 
L 444.982505 -85.360914 
L 443.552451 -85.360914 
L 442.122396 -85.360914 
L 440.692342 -85.360914 
L 439.262288 -85.360914 
L 437.832233 -85.360914 
L 436.402179 -85.360914 
L 434.972125 -85.360914 
L 433.54207 -85.360914 
L 432.112016 -85.360914 
L 430.681962 -85.360914 
L 429.251907 -85.360914 
L 427.821853 -85.360914 
L 426.391799 -85.360914 
L 424.961744 -85.360914 
L 423.53169 -85.360914 
L 422.101636 -85.360914 
L 420.671581 -85.360914 
L 419.241527 -85.360914 
L 417.811473 -85.360914 
L 416.381418 -85.360914 
L 414.951364 -85.360914 
L 413.52131 -85.360914 
L 412.091255 -85.360914 
L 410.661201 -85.360914 
L 409.231147 -85.360914 
L 407.801092 -85.360914 
L 406.371038 -85.360914 
L 404.940984 -85.360914 
L 403.510929 -85.360914 
L 402.080875 -85.360914 
L 400.650821 -85.360914 
L 399.220766 -85.360914 
L 397.790712 -85.360914 
L 396.360658 -85.360914 
L 394.930603 -85.360914 
L 393.500549 -85.360914 
L 392.070495 -85.360914 
L 390.64044 -85.360914 
L 389.210386 -85.360914 
L 387.780332 -85.360914 
L 386.350277 -85.360914 
L 384.920223 -85.360914 
L 383.490169 -85.360914 
L 382.060114 -85.360914 
L 380.63006 -85.360914 
L 379.200006 -85.360914 
L 377.769951 -85.360914 
L 376.339897 -85.360914 
L 374.909843 -85.360914 
L 373.479788 -85.360914 
L 372.049734 -85.360914 
L 370.61968 -85.360914 
L 369.189625 -85.360914 
L 367.759571 -85.360914 
L 366.329517 -85.360914 
L 364.899462 -85.360914 
L 363.469408 -85.360914 
L 362.039354 -85.360914 
L 360.609299 -85.360914 
L 359.179245 -85.360914 
L 357.749191 -85.360914 
L 356.319136 -85.360914 
L 354.889082 -85.360914 
L 353.459028 -85.360914 
L 352.028973 -85.360914 
L 350.598919 -85.360914 
L 349.168864 -85.360914 
L 347.73881 -85.360914 
L 346.308756 -85.360914 
L 344.878701 -85.360914 
L 343.448647 -85.360914 
L 342.018593 -85.360914 
L 340.588538 -85.360914 
L 339.158484 -85.360914 
L 337.72843 -85.360914 
L 336.298375 -85.360914 
L 334.868321 -85.360914 
L 333.438267 -85.360914 
L 332.008212 -85.360914 
L 330.578158 -85.360914 
L 329.148104 -85.360914 
L 327.718049 -85.360914 
L 326.287995 -85.360914 
L 324.857941 -85.360914 
L 323.427886 -85.360914 
L 321.997832 -85.360914 
L 320.567778 -85.360914 
L 319.137723 -85.360914 
L 317.707669 -85.360914 
L 316.277615 -85.360914 
L 314.84756 -85.360914 
L 313.417506 -85.360914 
L 311.987452 -85.360914 
L 310.557397 -85.360914 
L 309.127343 -85.360914 
L 307.697289 -85.360914 
L 306.267234 -85.360914 
L 304.83718 -85.360914 
L 303.407126 -85.360914 
L 301.977071 -85.360914 
L 300.547017 -85.360914 
L 299.116963 -85.360914 
L 297.686908 -85.360914 
L 296.256854 -85.360914 
L 294.8268 -85.360914 
L 293.396745 -85.360914 
L 291.966691 -85.360914 
L 290.536637 -85.360914 
L 289.106582 -85.360914 
L 287.676528 -85.360914 
L 286.246474 -85.360914 
L 284.816419 -85.360914 
L 283.386365 -85.360914 
L 281.956311 -85.360914 
L 280.526256 -85.360914 
L 279.096202 -85.360914 
L 277.666148 -85.360914 
L 276.236093 -85.360914 
L 274.806039 -85.360914 
L 273.375985 -85.360914 
L 271.94593 -85.360914 
L 270.515876 -85.360914 
L 269.085822 -85.360914 
L 267.655767 -85.360914 
L 266.225713 -85.360914 
L 264.795659 -85.360914 
L 263.365604 -85.360914 
L 261.93555 -85.360914 
L 260.505496 -85.360914 
L 259.075441 -85.360914 
L 257.645387 -85.360914 
L 256.215333 -85.360914 
L 254.785278 -85.360914 
L 253.355224 -85.360914 
L 251.92517 -85.360914 
L 250.495115 -85.360914 
L 249.065061 -85.360914 
L 247.635007 -85.360914 
L 246.204952 -85.360914 
L 244.774898 -85.360914 
L 243.344844 -85.360914 
L 241.914789 -85.360914 
L 240.484735 -85.360914 
L 239.054681 -85.360914 
L 237.624626 -85.360914 
L 236.194572 -85.360914 
L 234.764517 -85.360914 
L 233.334463 -85.360914 
L 231.904409 -85.360914 
L 230.474354 -85.360914 
L 229.0443 -85.360914 
L 227.614246 -85.360914 
L 226.184191 -85.360914 
L 224.754137 -85.360914 
L 223.324083 -85.360914 
L 221.894028 -85.360914 
L 220.463974 -85.360914 
L 219.03392 -85.360914 
L 217.603865 -85.360914 
L 216.173811 -85.360914 
L 214.743757 -85.360914 
L 213.313702 -85.360914 
L 211.883648 -85.360914 
L 210.453594 -85.360914 
L 209.023539 -85.360914 
L 207.593485 -85.360914 
L 206.163431 -85.360914 
L 204.733376 -85.360914 
L 203.303322 -85.360914 
L 201.873268 -85.360914 
L 200.443213 -85.360914 
L 199.013159 -85.360914 
L 197.583105 -85.360914 
L 196.15305 -85.360914 
L 194.722996 -85.360914 
L 193.292942 -85.360914 
L 191.862887 -85.360914 
L 190.432833 -85.360914 
L 189.002779 -85.360914 
L 187.572724 -85.360914 
L 186.14267 -85.360914 
L 184.712616 -85.360914 
L 183.282561 -85.360914 
L 181.852507 -85.360914 
L 180.422453 -85.360914 
L 178.992398 -85.360914 
L 177.562344 -85.360914 
L 176.13229 -85.360914 
L 174.702235 -85.360914 
L 173.272181 -85.360914 
L 171.842127 -85.360914 
L 170.412072 -85.360914 
L 168.982018 -85.360914 
L 167.551964 -85.360914 
L 166.121909 -85.360914 
L 164.691855 -85.360914 
L 163.261801 -85.360914 
L 161.831746 -85.360914 
L 160.401692 -85.360914 
L 158.971638 -85.360914 
L 157.541583 -85.360914 
L 156.111529 -85.360914 
L 154.681475 -85.360914 
L 153.25142 -85.360914 
L 151.821366 -85.360914 
L 150.391312 -85.360914 
L 148.961257 -85.360914 
L 147.531203 -85.360914 
L 146.101149 -85.360914 
L 144.671094 -85.360914 
L 143.24104 -85.360914 
L 141.810986 -85.360914 
L 140.380931 -85.360914 
L 138.950877 -85.360914 
L 137.520823 -85.360914 
L 136.090768 -85.360914 
L 134.660714 -85.360914 
L 133.23066 -85.360914 
L 131.800605 -85.360914 
L 130.370551 -85.360914 
L 128.940497 -85.360914 
L 127.510442 -85.360914 
L 126.080388 -85.360914 
L 124.650334 -85.360914 
L 123.220279 -85.360914 
L 121.790225 -85.360914 
L 120.36017 -85.360914 
L 118.930116 -85.360914 
L 117.500062 -85.360914 
L 116.070007 -85.360914 
L 114.639953 -85.360914 
L 113.209899 -85.360914 
L 111.779844 -85.360914 
L 110.34979 -85.360914 
L 108.919736 -85.360914 
L 107.489681 -85.360914 
L 106.059627 -85.360914 
L 104.629573 -85.360914 
L 103.199518 -85.360914 
L 101.769464 -85.360914 
L 100.33941 -85.360914 
L 98.909355 -85.360914 
L 97.479301 -85.360914 
L 96.049247 -85.360914 
L 94.619192 -85.360914 
L 93.189138 -85.360914 
L 91.759084 -85.360914 
L 90.329029 -85.360914 
L 88.898975 -85.360914 
L 87.468921 -85.360914 
L 86.038866 -85.360914 
L 84.608812 -85.360914 
L 83.178758 -85.360914 
L 81.748703 -85.360914 
L 80.318649 -85.360914 
L 78.888595 -85.360914 
L 77.45854 -85.360914 
L 76.028486 -85.360914 
L 74.598432 -85.360914 
L 73.168377 -85.360914 
L 71.738323 -85.360914 
L 70.308269 -85.360914 
L 68.878214 -85.360914 
L 67.44816 -85.360914 
L 66.018106 -85.360914 
L 64.588051 -85.360914 
L 63.157997 -85.360914 
L 61.727943 -85.360914 
L 60.297888 -85.360914 
z
" style="stroke: #6cb7ff; stroke-opacity: 0.6; stroke-width: 0.3"/>
    </defs>
    <g clip-path="url(#p29a387098a)">
     <use xlink:href="#mcafe2bfee5" x="0" y="864" style="fill: #6cb7ff; fill-opacity: 0.6; stroke: #6cb7ff; stroke-opacity: 0.6; stroke-width: 0.3"/>
    </g>
   </g>
   <g id="line2d_11">
    <path d="M 60.297888 542.621796 
L 63.157997 542.412771 
L 66.018106 541.96871 
L 68.878214 541.241902 
L 71.738323 540.270095 
L 74.598432 539.128144 
L 77.45854 537.5385 
L 80.318649 535.758047 
L 83.178758 533.769286 
L 86.038866 531.41418 
L 88.898975 528.800667 
L 91.759084 525.853945 
L 96.049247 520.836006 
L 98.909355 517.164571 
L 101.769464 513.206303 
L 104.629573 508.967008 
L 108.919736 502.080969 
L 111.779844 497.145139 
L 116.070007 489.267933 
L 120.36017 481.051118 
L 127.510442 466.546088 
L 148.961257 421.382815 
L 154.681475 409.840712 
L 158.971638 401.383627 
L 161.831746 396.019016 
L 167.551964 385.766969 
L 171.842127 378.596832 
L 176.13229 371.706654 
L 180.422453 365.294061 
L 184.712616 359.539534 
L 189.002779 354.143266 
L 193.292942 349.287661 
L 196.15305 346.264986 
L 199.013159 343.478558 
L 201.873268 340.910045 
L 206.163431 337.34222 
L 210.453594 334.007308 
L 216.173811 330.030796 
L 223.324083 325.47397 
L 231.904409 319.686952 
L 236.194572 316.350936 
L 239.054681 313.876107 
L 244.774898 308.20741 
L 247.635007 305.056495 
L 250.495115 301.639452 
L 253.355224 297.90943 
L 256.215333 293.881113 
L 260.505496 287.318311 
L 264.795659 280.162505 
L 269.085822 272.441796 
L 273.375985 264.30159 
L 277.666148 255.706187 
L 284.816419 240.817851 
L 293.396745 222.21578 
L 301.977071 203.555873 
L 309.127343 188.321631 
L 316.277615 173.445326 
L 321.997832 162.050333 
L 327.718049 151.20315 
L 333.438267 140.891989 
L 339.158484 131.455116 
L 343.448647 124.900799 
L 347.73881 118.830954 
L 352.028973 113.297922 
L 354.889082 109.954467 
L 359.179245 105.519143 
L 363.469408 101.814733 
L 366.329517 99.633563 
L 367.759571 98.621382 
L 372.049734 96.163359 
L 376.339897 94.219416 
L 379.200006 93.327164 
L 383.490169 92.399997 
L 386.350277 92.23809 
L 389.210386 92.172653 
L 392.070495 92.367544 
L 396.360658 92.994816 
L 400.650821 94.203666 
L 406.371038 96.585974 
L 409.231147 98.03742 
L 417.811473 103.483475 
L 422.101636 106.821302 
L 430.681962 113.967186 
L 436.402179 119.231487 
L 443.552451 125.949793 
L 449.272668 131.094031 
L 454.992885 135.941779 
L 459.283048 139.070185 
L 463.573211 141.805584 
L 466.43332 143.45846 
L 472.153538 146.01857 
L 475.013646 147.045415 
L 477.873755 147.797538 
L 480.733864 148.299641 
L 483.593972 148.564616 
L 487.884135 148.724474 
L 490.744244 148.536044 
L 493.604353 148.222536 
L 499.32457 147.05928 
L 505.044787 145.552696 
L 510.765005 143.744852 
L 513.625113 142.786632 
L 517.915276 141.445332 
L 520.775385 140.643871 
L 527.925657 139.207613 
L 530.785765 138.877588 
L 533.645874 138.79639 
L 536.505983 138.874487 
L 539.366091 139.299459 
L 542.2262 140.074796 
L 543.656254 140.501993 
L 547.946417 142.386653 
L 550.806526 144.049967 
L 553.666635 146.160173 
L 556.526743 148.61958 
L 559.386852 151.399468 
L 562.246961 154.570444 
L 565.107069 158.153682 
L 567.967178 162.041081 
L 570.827287 166.223471 
L 575.11745 173.168268 
L 577.977558 178.107539 
L 582.267722 186.103784 
L 586.557885 194.513734 
L 593.708156 209.357149 
L 605.148591 234.485918 
L 629.459515 288.70592 
L 638.039841 307.587669 
L 642.330004 316.923424 
L 656.630547 346.543028 
L 663.780819 360.637213 
L 669.501036 371.343346 
L 676.651308 384.167156 
L 683.801579 396.264086 
L 689.521797 405.4573 
L 695.242014 414.410236 
L 703.82234 427.225645 
L 715.262775 443.624285 
L 729.563318 463.265175 
L 739.573699 476.354912 
L 743.863862 481.66927 
L 751.014133 490.060191 
L 755.304296 494.695946 
L 759.594459 499.133243 
L 765.314677 504.303876 
L 769.60484 507.672653 
L 772.464948 509.62549 
L 775.325057 511.364289 
L 778.185166 512.824421 
L 781.045274 514.059625 
L 783.905383 515.015706 
L 786.765492 515.603917 
L 789.6256 516.023488 
L 791.055655 516.111306 
L 791.055655 516.111306 
" clip-path="url(#p29a387098a)" style="fill: none; stroke: #7570b3; stroke-width: 2; stroke-linecap: round"/>
   </g>
   <g id="line2d_12">
    <path d="M 60.297888 780.999259 
L 60.297888 542.621796 
" clip-path="url(#p29a387098a)" style="fill: none; stroke: #7570b3; stroke-width: 2; stroke-linecap: round"/>
   </g>
   <g id="line2d_13">
    <path d="M 791.055655 781.264364 
L 791.055655 516.111306 
" clip-path="url(#p29a387098a)" style="fill: none; stroke: #7570b3; stroke-width: 2; stroke-linecap: round"/>
   </g>
   <g id="line2d_14">
    <defs>
     <path id="m21a89ac5e1" d="M 0 3.5 
C 0.928211 3.5 1.81853 3.131218 2.474874 2.474874 
C 3.131218 1.81853 3.5 0.928211 3.5 0 
C 3.5 -0.928211 3.131218 -1.81853 2.474874 -2.474874 
C 1.81853 -3.131218 0.928211 -3.5 0 -3.5 
C -0.928211 -3.5 -1.81853 -3.131218 -2.474874 -2.474874 
C -3.131218 -1.81853 -3.5 -0.928211 -3.5 0 
C -3.5 0.928211 -3.131218 1.81853 -2.474874 2.474874 
C -1.81853 3.131218 -0.928211 3.5 0 3.5 
z
"/>
    </defs>
    <g clip-path="url(#p29a387098a)">
     <use xlink:href="#m21a89ac5e1" x="434.040181" y="778.639086" style="fill: #7570b3"/>
    </g>
   </g>
   <g id="patch_3">
    <path d="M 23.76 815.72 
L 827.593543 815.72 
" style="fill: none; stroke: #333333; stroke-width: 1.5; stroke-linejoin: miter; stroke-linecap: square"/>
   </g>
   <g id="text_6">
    <!-- $x_2^2x_3$ -->
    <g style="fill: #262626" transform="translate(395.156772 49.856)">
     <text>
      <tspan x="0" y="-0.734375" style="font-style: oblique; font-size: 28px; font-family: 'DejaVu Sans'; fill: #262626">x</tspan>
      <tspan x="31.056576" y="-0.734375" style="font-style: oblique; font-size: 28px; font-family: 'DejaVu Sans'; fill: #262626">x</tspan>
      <tspan x="16.570312" y="6.921875" style="font-size: 19.6px; font-family: 'DejaVu Sans'; fill: #262626">2</tspan>
      <tspan x="17.820833" y="-11.453125" style="font-size: 19.6px; font-family: 'DejaVu Sans'; fill: #262626">2</tspan>
      <tspan x="47.626888" y="3.859375" style="font-size: 19.6px; font-family: 'DejaVu Sans'; fill: #262626">3</tspan>
     </text>
    </g>
   </g>
  </g>
 </g>
 <defs>
  <clipPath id="p29a387098a">
   <rect x="23.76" y="57.696" width="803.833543" height="758.024"/>
  </clipPath>
 </defs>
</svg>
