<?xml version="1.0" encoding="utf-8" standalone="no"?>
<!DOCTYPE svg PUBLIC "-//W3C//DTD SVG 1.1//EN"
  "http://www.w3.org/Graphics/SVG/1.1/DTD/svg11.dtd">
<svg xmlns:xlink="http://www.w3.org/1999/xlink" width="864pt" height="864pt" viewBox="0 0 864 864" xmlns="http://www.w3.org/2000/svg" version="1.1">
 <metadata>
  <rdf:RDF xmlns:dc="http://purl.org/dc/elements/1.1/" xmlns:cc="http://creativecommons.org/ns#" xmlns:rdf="http://www.w3.org/1999/02/22-rdf-syntax-ns#">
   <cc:Work>
    <dc:type rdf:resource="http://purl.org/dc/dcmitype/StillImage"/>
    <dc:date>2026-03-13T22:48:06.197435</dc:date>
    <dc:format>image/svg+xml</dc:format>
    <dc:creator>
     <cc:Agent>
      <dc:title>Matplotlib v3.10.6, https://matplotlib.org/</dc:title>
     </cc:Agent>
    </dc:creator>
   </cc:Work>
  </rdf:RDF>
 </metadata>
 <defs>
  <style type="text/css">*{stroke-linejoin: round; stroke-linecap: butt}</style>
 </defs>
 <g id="figure_1">
  <g id="patch_1">
   <path d="M 0 864 
L 864 864 
L 864 0 
L 0 0 
L 0 864 
z
" style="fill: none; opacity: 0"/>
  </g>
  <g id="axes_1">
   <g id="patch_2">
    <path d="M 23.76 815.72 
L 840.24 815.72 
L 840.24 57.84 
L 23.76 57.84 
L 23.76 815.72 
z
" style="fill: none"/>
   </g>
   <g id="matplotlib.axis_1">
    <g id="xtick_1">
     <g id="line2d_1">
      <path d="M 58.581092 815.72 
L 58.581092 57.84 
" clip-path="url(#pa222bbb519)" style="fill: none; stroke: #ffffff; stroke-opacity: 0.4; stroke-linecap: round"/>
     </g>
     <g id="line2d_2"/>
     <g id="text_1">
      <text style="font-size: 18px; font-family: 'DejaVu Serif', 'Times New Roman', serif; text-anchor: middle; fill: #262626" x="58.581092" y="836.397187" transform="rotate(-0 58.581092 836.397187)">−0.03</text>
     </g>
    </g>
    <g id="xtick_2">
     <g id="line2d_3">
      <path d="M 201.426685 815.72 
L 201.426685 57.84 
" clip-path="url(#pa222bbb519)" style="fill: none; stroke: #ffffff; stroke-opacity: 0.4; stroke-linecap: round"/>
     </g>
     <g id="line2d_4"/>
     <g id="text_2">
      <text style="font-size: 18px; font-family: 'DejaVu Serif', 'Times New Roman', serif; text-anchor: middle; fill: #262626" x="201.426685" y="836.397187" transform="rotate(-0 201.426685 836.397187)">−0.02</text>
     </g>
    </g>
    <g id="xtick_3">
     <g id="line2d_5">
      <path d="M 344.272279 815.72 
L 344.272279 57.84 
" clip-path="url(#pa222bbb519)" style="fill: none; stroke: #ffffff; stroke-opacity: 0.4; stroke-linecap: round"/>
     </g>
     <g id="line2d_6"/>
     <g id="text_3">
      <text style="font-size: 18px; font-family: 'DejaVu Serif', 'Times New Roman', serif; text-anchor: middle; fill: #262626" x="344.272279" y="836.397187" transform="rotate(-0 344.272279 836.397187)">−0.01</text>
     </g>
    </g>
    <g id="xtick_4">
     <g id="line2d_7">
      <path d="M 487.117873 815.72 
L 487.117873 57.84 
" clip-path="url(#pa222bbb519)" style="fill: none; stroke: #ffffff; stroke-opacity: 0.4; stroke-linecap: round"/>
     </g>
     <g id="line2d_8"/>
     <g id="text_4">
      <text style="font-size: 18px; font-family: 'DejaVu Serif', 'Times New Roman', serif; text-anchor: middle; fill: #262626" x="487.117873" y="836.397187" transform="rotate(-0 487.117873 836.397187)">0.00</text>
     </g>
    </g>
    <g id="xtick_5">
     <g id="line2d_9">
      <path d="M 629.963467 815.72 
L 629.963467 57.84 
" clip-path="url(#pa222bbb519)" style="fill: none; stroke: #ffffff; stroke-opacity: 0.4; stroke-linecap: round"/>
     </g>
     <g id="line2d_10"/>
     <g id="text_5">
      <text style="font-size: 18px; font-family: 'DejaVu Serif', 'Times New Roman', serif; text-anchor: middle; fill: #262626" x="629.963467" y="836.397187" transform="rotate(-0 629.963467 836.397187)">0.01</text>
     </g>
    </g>
    <g id="xtick_6">
     <g id="line2d_11">
      <path d="M 772.80906 815.72 
L 772.80906 57.84 
" clip-path="url(#pa222bbb519)" style="fill: none; stroke: #ffffff; stroke-opacity: 0.4; stroke-linecap: round"/>
     </g>
     <g id="line2d_12"/>
     <g id="text_6">
      <text style="font-size: 18px; font-family: 'DejaVu Serif', 'Times New Roman', serif; text-anchor: middle; fill: #262626" x="772.80906" y="836.397187" transform="rotate(-0 772.80906 836.397187)">0.02</text>
     </g>
    </g>
   </g>
   <g id="matplotlib.axis_2"/>
   <g id="FillBetweenPolyCollection_1">
    <defs>
     <path id="mec38b7971b" d="M 60.872727 -85.486621 
L 60.872727 -292.193303 
L 62.32528 -292.244646 
L 63.777833 -292.363446 
L 65.230386 -292.59064 
L 66.682939 -292.884012 
L 68.135492 -293.226145 
L 69.588045 -293.685706 
L 71.040598 -294.206089 
L 72.493151 -294.837745 
L 73.945704 -295.485386 
L 75.398257 -296.267191 
L 76.850809 -297.166132 
L 78.303362 -298.148479 
L 79.755915 -299.169167 
L 81.208468 -300.318284 
L 82.661021 -301.551749 
L 84.113574 -302.834568 
L 85.566127 -304.14142 
L 87.01868 -305.573961 
L 88.471233 -307.017779 
L 89.923786 -308.589087 
L 91.376339 -310.245964 
L 92.828892 -311.92731 
L 94.281445 -313.706054 
L 95.733998 -315.512666 
L 97.18655 -317.386622 
L 98.639103 -319.314933 
L 100.091656 -321.292462 
L 101.544209 -323.372814 
L 102.996762 -325.495152 
L 104.449315 -327.644351 
L 105.901868 -329.815089 
L 107.354421 -332.032204 
L 108.806974 -334.250995 
L 110.259527 -336.490325 
L 111.71208 -338.822354 
L 113.164633 -341.167153 
L 114.617186 -343.582624 
L 116.069738 -345.960954 
L 117.522291 -348.349785 
L 118.974844 -350.779618 
L 120.427397 -353.202794 
L 121.87995 -355.636325 
L 123.332503 -358.098496 
L 124.785056 -360.534213 
L 126.237609 -362.935189 
L 127.690162 -365.32452 
L 129.142715 -367.645279 
L 130.595268 -370.019539 
L 132.047821 -372.364081 
L 133.500374 -374.700199 
L 134.952927 -377.015795 
L 136.405479 -379.323111 
L 137.858032 -381.595899 
L 139.310585 -383.859429 
L 140.763138 -386.058273 
L 142.215691 -388.275219 
L 143.668244 -390.402484 
L 145.120797 -392.517426 
L 146.57335 -394.647687 
L 148.025903 -396.69293 
L 149.478456 -398.799962 
L 150.931009 -400.825072 
L 152.383562 -402.868001 
L 153.836115 -404.9041 
L 155.288667 -406.898988 
L 156.74122 -408.919391 
L 158.193773 -410.871187 
L 159.646326 -412.839921 
L 161.098879 -414.831525 
L 162.551432 -416.745441 
L 164.003985 -418.704845 
L 165.456538 -420.706872 
L 166.909091 -422.705907 
L 168.361644 -424.690395 
L 169.814197 -426.696449 
L 171.26675 -428.731354 
L 172.719303 -430.801304 
L 174.171856 -432.888854 
L 175.624408 -435.044245 
L 177.076961 -437.327082 
L 178.529514 -439.55769 
L 179.982067 -441.908369 
L 181.43462 -444.278289 
L 182.887173 -446.684584 
L 184.339726 -449.176514 
L 185.792279 -451.730568 
L 187.244832 -454.329803 
L 188.697385 -457.020325 
L 190.149938 -459.771703 
L 191.602491 -462.586129 
L 193.055044 -465.468945 
L 194.507597 -468.431528 
L 195.960149 -471.460884 
L 197.412702 -474.595282 
L 198.865255 -477.740427 
L 200.317808 -481.015241 
L 201.770361 -484.323485 
L 203.222914 -487.715138 
L 204.675467 -491.177403 
L 206.12802 -494.612702 
L 207.580573 -498.17167 
L 209.033126 -501.779782 
L 210.485679 -505.405483 
L 211.938232 -509.095145 
L 213.390785 -512.760398 
L 214.843337 -516.526246 
L 216.29589 -520.316717 
L 217.748443 -524.097443 
L 219.200996 -527.952183 
L 220.653549 -531.781213 
L 222.106102 -535.644781 
L 223.558655 -539.489129 
L 225.011208 -543.298164 
L 226.463761 -547.114803 
L 227.916314 -550.905867 
L 229.368867 -554.641463 
L 230.82142 -558.387201 
L 232.273973 -562.076208 
L 233.726526 -565.657581 
L 235.179078 -569.21885 
L 236.631631 -572.716709 
L 238.084184 -576.140081 
L 239.536737 -579.499861 
L 240.98929 -582.851703 
L 242.441843 -586.14176 
L 243.894396 -589.340756 
L 245.346949 -592.427589 
L 246.799502 -595.450627 
L 248.252055 -598.37114 
L 249.704608 -601.196052 
L 251.157161 -603.924549 
L 252.609714 -606.589257 
L 254.062267 -609.209713 
L 255.514819 -611.674328 
L 256.967372 -614.126639 
L 258.419925 -616.425015 
L 259.872478 -618.662572 
L 261.325031 -620.74488 
L 262.777584 -622.7903 
L 264.230137 -624.836972 
L 265.68269 -626.752303 
L 267.135243 -628.53695 
L 268.587796 -630.271901 
L 270.040349 -631.925864 
L 271.492902 -633.520072 
L 272.945455 -634.999592 
L 274.398007 -636.468855 
L 275.85056 -637.863078 
L 277.303113 -639.201857 
L 278.755666 -640.494685 
L 280.208219 -641.836351 
L 281.660772 -643.095108 
L 283.113325 -644.279256 
L 284.565878 -645.39072 
L 286.018431 -646.475271 
L 287.470984 -647.545543 
L 288.923537 -648.597173 
L 290.37609 -649.626865 
L 291.828643 -650.680377 
L 293.281196 -651.677165 
L 294.733748 -652.63754 
L 296.186301 -653.633715 
L 297.638854 -654.616361 
L 299.091407 -655.631611 
L 300.54396 -656.575098 
L 301.996513 -657.551381 
L 303.449066 -658.543246 
L 304.901619 -659.52432 
L 306.354172 -660.515447 
L 307.806725 -661.544213 
L 309.259278 -662.630376 
L 310.711831 -663.664134 
L 312.164384 -664.74472 
L 313.616936 -665.794618 
L 315.069489 -666.870905 
L 316.522042 -668.083062 
L 317.974595 -669.189984 
L 319.427148 -670.358371 
L 320.879701 -671.537195 
L 322.332254 -672.778965 
L 323.784807 -673.969201 
L 325.23736 -675.189262 
L 326.689913 -676.444058 
L 328.142466 -677.737965 
L 329.595019 -679.168733 
L 331.047572 -680.499209 
L 332.500125 -681.831059 
L 333.952677 -683.19241 
L 335.40523 -684.560821 
L 336.857783 -685.957003 
L 338.310336 -687.376651 
L 339.762889 -688.826132 
L 341.215442 -690.248274 
L 342.667995 -691.711601 
L 344.120548 -693.1641 
L 345.573101 -694.650247 
L 347.025654 -696.077856 
L 348.478207 -697.561712 
L 349.93076 -699.079208 
L 351.383313 -700.622595 
L 352.835866 -702.150117 
L 354.288418 -703.700909 
L 355.740971 -705.303699 
L 357.193524 -706.833778 
L 358.646077 -708.387139 
L 360.09863 -709.944507 
L 361.551183 -711.596864 
L 363.003736 -713.165161 
L 364.456289 -714.739664 
L 365.908842 -716.317029 
L 367.361395 -717.971443 
L 368.813948 -719.582905 
L 370.266501 -721.22336 
L 371.719054 -722.868241 
L 373.171606 -724.491887 
L 374.624159 -726.10943 
L 376.076712 -727.6936 
L 377.529265 -729.285072 
L 378.981818 -730.933692 
L 380.434371 -732.486865 
L 381.886924 -734.098081 
L 383.339477 -735.660157 
L 384.79203 -737.208707 
L 386.244583 -738.818222 
L 387.697136 -740.413357 
L 389.149689 -741.94489 
L 390.602242 -743.488484 
L 392.054795 -744.989033 
L 393.507347 -746.473346 
L 394.9599 -747.907346 
L 396.412453 -749.342101 
L 397.865006 -750.773305 
L 399.317559 -752.115702 
L 400.770112 -753.369822 
L 402.222665 -754.772832 
L 403.675218 -756.060083 
L 405.127771 -757.291448 
L 406.580324 -758.528735 
L 408.032877 -759.708367 
L 409.48543 -760.87299 
L 410.937983 -761.930305 
L 412.390535 -762.963824 
L 413.843088 -763.960222 
L 415.295641 -764.819145 
L 416.748194 -765.686804 
L 418.200747 -766.464536 
L 419.6533 -767.250737 
L 421.105853 -767.950091 
L 422.558406 -768.547203 
L 424.010959 -769.091024 
L 425.463512 -769.637298 
L 426.916065 -770.048069 
L 428.368618 -770.485687 
L 429.821171 -770.865216 
L 431.273724 -771.123839 
L 432.726276 -771.347368 
L 434.178829 -771.536586 
L 435.631382 -771.614176 
L 437.083935 -771.710909 
L 438.536488 -771.659815 
L 439.989041 -771.615831 
L 441.441594 -771.491594 
L 442.894147 -771.353523 
L 444.3467 -771.199539 
L 445.799253 -770.924331 
L 447.251806 -770.660812 
L 448.704359 -770.377427 
L 450.156912 -770.031711 
L 451.609465 -769.659542 
L 453.062017 -769.210283 
L 454.51457 -768.776109 
L 455.967123 -768.31982 
L 457.419676 -767.882248 
L 458.872229 -767.406426 
L 460.324782 -766.827061 
L 461.777335 -766.290991 
L 463.229888 -765.724364 
L 464.682441 -765.122534 
L 466.134994 -764.516786 
L 467.587547 -763.944182 
L 469.0401 -763.35228 
L 470.492653 -762.78513 
L 471.945205 -762.227647 
L 473.397758 -761.618149 
L 474.850311 -761.005839 
L 476.302864 -760.438186 
L 477.755417 -759.76569 
L 479.20797 -759.217384 
L 480.660523 -758.553654 
L 482.113076 -757.925611 
L 483.565629 -757.40556 
L 485.018182 -756.839173 
L 486.470735 -756.316724 
L 487.923288 -755.672777 
L 489.375841 -755.156605 
L 490.828394 -754.638174 
L 492.280946 -754.125245 
L 493.733499 -753.54574 
L 495.186052 -753.00891 
L 496.638605 -752.4999 
L 498.091158 -751.947368 
L 499.543711 -751.401252 
L 500.996264 -750.831781 
L 502.448817 -750.278381 
L 503.90137 -749.645508 
L 505.353923 -749.042339 
L 506.806476 -748.488605 
L 508.259029 -747.91124 
L 509.711582 -747.314546 
L 511.164134 -746.671741 
L 512.616687 -746.03424 
L 514.06924 -745.341964 
L 515.521793 -744.645037 
L 516.974346 -743.971931 
L 518.426899 -743.240409 
L 519.879452 -742.482818 
L 521.332005 -741.689279 
L 522.784558 -740.868031 
L 524.237111 -740.000082 
L 525.689664 -739.096168 
L 527.142217 -738.172484 
L 528.59477 -737.226236 
L 530.047323 -736.177362 
L 531.499875 -735.118328 
L 532.952428 -733.966206 
L 534.404981 -732.828342 
L 535.857534 -731.613485 
L 537.310087 -730.350987 
L 538.76264 -729.061909 
L 540.215193 -727.635179 
L 541.667746 -726.252635 
L 543.120299 -724.779342 
L 544.572852 -723.275879 
L 546.025405 -721.657298 
L 547.477958 -720.064178 
L 548.930511 -718.308451 
L 550.383064 -716.546321 
L 551.835616 -714.727325 
L 553.288169 -712.799674 
L 554.740722 -710.864413 
L 556.193275 -708.908846 
L 557.645828 -706.88851 
L 559.098381 -704.808873 
L 560.550934 -702.611838 
L 562.003487 -700.341301 
L 563.45604 -698.067271 
L 564.908593 -695.780906 
L 566.361146 -693.389589 
L 567.813699 -691.006573 
L 569.266252 -688.543909 
L 570.718804 -686.025541 
L 572.171357 -683.519795 
L 573.62391 -680.927983 
L 575.076463 -678.287805 
L 576.529016 -675.628875 
L 577.981569 -672.952737 
L 579.434122 -670.199247 
L 580.886675 -667.428961 
L 582.339228 -664.635662 
L 583.791781 -661.86846 
L 585.244334 -658.994304 
L 586.696887 -656.130653 
L 588.14944 -653.283541 
L 589.601993 -650.430625 
L 591.054545 -647.488094 
L 592.507098 -644.604764 
L 593.959651 -641.649547 
L 595.412204 -638.72783 
L 596.864757 -635.790317 
L 598.31731 -632.878878 
L 599.769863 -629.959194 
L 601.222416 -627.05719 
L 602.674969 -624.126767 
L 604.127522 -621.228743 
L 605.580075 -618.359435 
L 607.032628 -615.495681 
L 608.485181 -612.613112 
L 609.937733 -609.723272 
L 611.390286 -606.841695 
L 612.842839 -603.968163 
L 614.295392 -601.128519 
L 615.747945 -598.360078 
L 617.200498 -595.582575 
L 618.653051 -592.804158 
L 620.105604 -590.053031 
L 621.558157 -587.332336 
L 623.01071 -584.671542 
L 624.463263 -582.008539 
L 625.915816 -579.313548 
L 627.368369 -576.641542 
L 628.820922 -574.087949 
L 630.273474 -571.509434 
L 631.726027 -568.918132 
L 633.17858 -566.383857 
L 634.631133 -563.957521 
L 636.083686 -561.530143 
L 637.536239 -559.060729 
L 638.988792 -556.739251 
L 640.441345 -554.385062 
L 641.893898 -552.071797 
L 643.346451 -549.727102 
L 644.799004 -547.44337 
L 646.251557 -545.249602 
L 647.70411 -543.078238 
L 649.156663 -540.883995 
L 650.609215 -538.811549 
L 652.061768 -536.718959 
L 653.514321 -534.694988 
L 654.966874 -532.744665 
L 656.419427 -530.788922 
L 657.87198 -528.871044 
L 659.324533 -526.996723 
L 660.777086 -525.115519 
L 662.229639 -523.340498 
L 663.682192 -521.532533 
L 665.134745 -519.788446 
L 666.587298 -518.042196 
L 668.039851 -516.34952 
L 669.492403 -514.74814 
L 670.944956 -513.091489 
L 672.397509 -511.480427 
L 673.850062 -509.921272 
L 675.302615 -508.386384 
L 676.755168 -506.897215 
L 678.207721 -505.350878 
L 679.660274 -503.867989 
L 681.112827 -502.386194 
L 682.56538 -500.956823 
L 684.017933 -499.56689 
L 685.470486 -498.143288 
L 686.923039 -496.73639 
L 688.375592 -495.344215 
L 689.828144 -493.94992 
L 691.280697 -492.535456 
L 692.73325 -491.174946 
L 694.185803 -489.791377 
L 695.638356 -488.390834 
L 697.090909 -487.04442 
L 698.543462 -485.688248 
L 699.996015 -484.254731 
L 701.448568 -482.877478 
L 702.901121 -481.435404 
L 704.353674 -480.073649 
L 705.806227 -478.650339 
L 707.25878 -477.126331 
L 708.711333 -475.645267 
L 710.163885 -474.10881 
L 711.616438 -472.601682 
L 713.068991 -471.013072 
L 714.521544 -469.411644 
L 715.974097 -467.768327 
L 717.42665 -466.207928 
L 718.879203 -464.541839 
L 720.331756 -462.857531 
L 721.784309 -461.197183 
L 723.236862 -459.455601 
L 724.689415 -457.749467 
L 726.141968 -455.968125 
L 727.594521 -454.120209 
L 729.047073 -452.298463 
L 730.499626 -450.385314 
L 731.952179 -448.518145 
L 733.404732 -446.594854 
L 734.857285 -444.675209 
L 736.309838 -442.666654 
L 737.762391 -440.644968 
L 739.214944 -438.567609 
L 740.667497 -436.413293 
L 742.12005 -434.28157 
L 743.572603 -432.086787 
L 745.025156 -429.934537 
L 746.477709 -427.68177 
L 747.930262 -425.482496 
L 749.382814 -423.215991 
L 750.835367 -420.99013 
L 752.28792 -418.734671 
L 753.740473 -416.491634 
L 755.193026 -414.175788 
L 756.645579 -411.885842 
L 758.098132 -409.592273 
L 759.550685 -407.287656 
L 761.003238 -405.04327 
L 762.455791 -402.697173 
L 763.908344 -400.453515 
L 765.360897 -398.205437 
L 766.81345 -395.979611 
L 768.266002 -393.745647 
L 769.718555 -391.575486 
L 771.171108 -389.458218 
L 772.623661 -387.400371 
L 774.076214 -385.318859 
L 775.528767 -383.323333 
L 776.98132 -381.336724 
L 778.433873 -379.445918 
L 779.886426 -377.65265 
L 781.338979 -375.912008 
L 782.791532 -374.212937 
L 784.244085 -372.670498 
L 785.696638 -371.177062 
L 787.149191 -369.763389 
L 788.601743 -368.4278 
L 790.054296 -367.225334 
L 791.506849 -366.101608 
L 792.959402 -365.062054 
L 794.411955 -364.217853 
L 795.864508 -363.366035 
L 797.317061 -362.722568 
L 798.769614 -362.16313 
L 800.222167 -361.714437 
L 801.67472 -361.395769 
L 803.127273 -361.23958 
L 803.127273 -85.486621 
L 803.127273 -85.486621 
L 801.67472 -85.486621 
L 800.222167 -85.486621 
L 798.769614 -85.486621 
L 797.317061 -85.486621 
L 795.864508 -85.486621 
L 794.411955 -85.486621 
L 792.959402 -85.486621 
L 791.506849 -85.486621 
L 790.054296 -85.486621 
L 788.601743 -85.486621 
L 787.149191 -85.486621 
L 785.696638 -85.486621 
L 784.244085 -85.486621 
L 782.791532 -85.486621 
L 781.338979 -85.486621 
L 779.886426 -85.486621 
L 778.433873 -85.486621 
L 776.98132 -85.486621 
L 775.528767 -85.486621 
L 774.076214 -85.486621 
L 772.623661 -85.486621 
L 771.171108 -85.486621 
L 769.718555 -85.486621 
L 768.266002 -85.486621 
L 766.81345 -85.486621 
L 765.360897 -85.486621 
L 763.908344 -85.486621 
L 762.455791 -85.486621 
L 761.003238 -85.486621 
L 759.550685 -85.486621 
L 758.098132 -85.486621 
L 756.645579 -85.486621 
L 755.193026 -85.486621 
L 753.740473 -85.486621 
L 752.28792 -85.486621 
L 750.835367 -85.486621 
L 749.382814 -85.486621 
L 747.930262 -85.486621 
L 746.477709 -85.486621 
L 745.025156 -85.486621 
L 743.572603 -85.486621 
L 742.12005 -85.486621 
L 740.667497 -85.486621 
L 739.214944 -85.486621 
L 737.762391 -85.486621 
L 736.309838 -85.486621 
L 734.857285 -85.486621 
L 733.404732 -85.486621 
L 731.952179 -85.486621 
L 730.499626 -85.486621 
L 729.047073 -85.486621 
L 727.594521 -85.486621 
L 726.141968 -85.486621 
L 724.689415 -85.486621 
L 723.236862 -85.486621 
L 721.784309 -85.486621 
L 720.331756 -85.486621 
L 718.879203 -85.486621 
L 717.42665 -85.486621 
L 715.974097 -85.486621 
L 714.521544 -85.486621 
L 713.068991 -85.486621 
L 711.616438 -85.486621 
L 710.163885 -85.486621 
L 708.711333 -85.486621 
L 707.25878 -85.486621 
L 705.806227 -85.486621 
L 704.353674 -85.486621 
L 702.901121 -85.486621 
L 701.448568 -85.486621 
L 699.996015 -85.486621 
L 698.543462 -85.486621 
L 697.090909 -85.486621 
L 695.638356 -85.486621 
L 694.185803 -85.486621 
L 692.73325 -85.486621 
L 691.280697 -85.486621 
L 689.828144 -85.486621 
L 688.375592 -85.486621 
L 686.923039 -85.486621 
L 685.470486 -85.486621 
L 684.017933 -85.486621 
L 682.56538 -85.486621 
L 681.112827 -85.486621 
L 679.660274 -85.486621 
L 678.207721 -85.486621 
L 676.755168 -85.486621 
L 675.302615 -85.486621 
L 673.850062 -85.486621 
L 672.397509 -85.486621 
L 670.944956 -85.486621 
L 669.492403 -85.486621 
L 668.039851 -85.486621 
L 666.587298 -85.486621 
L 665.134745 -85.486621 
L 663.682192 -85.486621 
L 662.229639 -85.486621 
L 660.777086 -85.486621 
L 659.324533 -85.486621 
L 657.87198 -85.486621 
L 656.419427 -85.486621 
L 654.966874 -85.486621 
L 653.514321 -85.486621 
L 652.061768 -85.486621 
L 650.609215 -85.486621 
L 649.156663 -85.486621 
L 647.70411 -85.486621 
L 646.251557 -85.486621 
L 644.799004 -85.486621 
L 643.346451 -85.486621 
L 641.893898 -85.486621 
L 640.441345 -85.486621 
L 638.988792 -85.486621 
L 637.536239 -85.486621 
L 636.083686 -85.486621 
L 634.631133 -85.486621 
L 633.17858 -85.486621 
L 631.726027 -85.486621 
L 630.273474 -85.486621 
L 628.820922 -85.486621 
L 627.368369 -85.486621 
L 625.915816 -85.486621 
L 624.463263 -85.486621 
L 623.01071 -85.486621 
L 621.558157 -85.486621 
L 620.105604 -85.486621 
L 618.653051 -85.486621 
L 617.200498 -85.486621 
L 615.747945 -85.486621 
L 614.295392 -85.486621 
L 612.842839 -85.486621 
L 611.390286 -85.486621 
L 609.937733 -85.486621 
L 608.485181 -85.486621 
L 607.032628 -85.486621 
L 605.580075 -85.486621 
L 604.127522 -85.486621 
L 602.674969 -85.486621 
L 601.222416 -85.486621 
L 599.769863 -85.486621 
L 598.31731 -85.486621 
L 596.864757 -85.486621 
L 595.412204 -85.486621 
L 593.959651 -85.486621 
L 592.507098 -85.486621 
L 591.054545 -85.486621 
L 589.601993 -85.486621 
L 588.14944 -85.486621 
L 586.696887 -85.486621 
L 585.244334 -85.486621 
L 583.791781 -85.486621 
L 582.339228 -85.486621 
L 580.886675 -85.486621 
L 579.434122 -85.486621 
L 577.981569 -85.486621 
L 576.529016 -85.486621 
L 575.076463 -85.486621 
L 573.62391 -85.486621 
L 572.171357 -85.486621 
L 570.718804 -85.486621 
L 569.266252 -85.486621 
L 567.813699 -85.486621 
L 566.361146 -85.486621 
L 564.908593 -85.486621 
L 563.45604 -85.486621 
L 562.003487 -85.486621 
L 560.550934 -85.486621 
L 559.098381 -85.486621 
L 557.645828 -85.486621 
L 556.193275 -85.486621 
L 554.740722 -85.486621 
L 553.288169 -85.486621 
L 551.835616 -85.486621 
L 550.383064 -85.486621 
L 548.930511 -85.486621 
L 547.477958 -85.486621 
L 546.025405 -85.486621 
L 544.572852 -85.486621 
L 543.120299 -85.486621 
L 541.667746 -85.486621 
L 540.215193 -85.486621 
L 538.76264 -85.486621 
L 537.310087 -85.486621 
L 535.857534 -85.486621 
L 534.404981 -85.486621 
L 532.952428 -85.486621 
L 531.499875 -85.486621 
L 530.047323 -85.486621 
L 528.59477 -85.486621 
L 527.142217 -85.486621 
L 525.689664 -85.486621 
L 524.237111 -85.486621 
L 522.784558 -85.486621 
L 521.332005 -85.486621 
L 519.879452 -85.486621 
L 518.426899 -85.486621 
L 516.974346 -85.486621 
L 515.521793 -85.486621 
L 514.06924 -85.486621 
L 512.616687 -85.486621 
L 511.164134 -85.486621 
L 509.711582 -85.486621 
L 508.259029 -85.486621 
L 506.806476 -85.486621 
L 505.353923 -85.486621 
L 503.90137 -85.486621 
L 502.448817 -85.486621 
L 500.996264 -85.486621 
L 499.543711 -85.486621 
L 498.091158 -85.486621 
L 496.638605 -85.486621 
L 495.186052 -85.486621 
L 493.733499 -85.486621 
L 492.280946 -85.486621 
L 490.828394 -85.486621 
L 489.375841 -85.486621 
L 487.923288 -85.486621 
L 486.470735 -85.486621 
L 485.018182 -85.486621 
L 483.565629 -85.486621 
L 482.113076 -85.486621 
L 480.660523 -85.486621 
L 479.20797 -85.486621 
L 477.755417 -85.486621 
L 476.302864 -85.486621 
L 474.850311 -85.486621 
L 473.397758 -85.486621 
L 471.945205 -85.486621 
L 470.492653 -85.486621 
L 469.0401 -85.486621 
L 467.587547 -85.486621 
L 466.134994 -85.486621 
L 464.682441 -85.486621 
L 463.229888 -85.486621 
L 461.777335 -85.486621 
L 460.324782 -85.486621 
L 458.872229 -85.486621 
L 457.419676 -85.486621 
L 455.967123 -85.486621 
L 454.51457 -85.486621 
L 453.062017 -85.486621 
L 451.609465 -85.486621 
L 450.156912 -85.486621 
L 448.704359 -85.486621 
L 447.251806 -85.486621 
L 445.799253 -85.486621 
L 444.3467 -85.486621 
L 442.894147 -85.486621 
L 441.441594 -85.486621 
L 439.989041 -85.486621 
L 438.536488 -85.486621 
L 437.083935 -85.486621 
L 435.631382 -85.486621 
L 434.178829 -85.486621 
L 432.726276 -85.486621 
L 431.273724 -85.486621 
L 429.821171 -85.486621 
L 428.368618 -85.486621 
L 426.916065 -85.486621 
L 425.463512 -85.486621 
L 424.010959 -85.486621 
L 422.558406 -85.486621 
L 421.105853 -85.486621 
L 419.6533 -85.486621 
L 418.200747 -85.486621 
L 416.748194 -85.486621 
L 415.295641 -85.486621 
L 413.843088 -85.486621 
L 412.390535 -85.486621 
L 410.937983 -85.486621 
L 409.48543 -85.486621 
L 408.032877 -85.486621 
L 406.580324 -85.486621 
L 405.127771 -85.486621 
L 403.675218 -85.486621 
L 402.222665 -85.486621 
L 400.770112 -85.486621 
L 399.317559 -85.486621 
L 397.865006 -85.486621 
L 396.412453 -85.486621 
L 394.9599 -85.486621 
L 393.507347 -85.486621 
L 392.054795 -85.486621 
L 390.602242 -85.486621 
L 389.149689 -85.486621 
L 387.697136 -85.486621 
L 386.244583 -85.486621 
L 384.79203 -85.486621 
L 383.339477 -85.486621 
L 381.886924 -85.486621 
L 380.434371 -85.486621 
L 378.981818 -85.486621 
L 377.529265 -85.486621 
L 376.076712 -85.486621 
L 374.624159 -85.486621 
L 373.171606 -85.486621 
L 371.719054 -85.486621 
L 370.266501 -85.486621 
L 368.813948 -85.486621 
L 367.361395 -85.486621 
L 365.908842 -85.486621 
L 364.456289 -85.486621 
L 363.003736 -85.486621 
L 361.551183 -85.486621 
L 360.09863 -85.486621 
L 358.646077 -85.486621 
L 357.193524 -85.486621 
L 355.740971 -85.486621 
L 354.288418 -85.486621 
L 352.835866 -85.486621 
L 351.383313 -85.486621 
L 349.93076 -85.486621 
L 348.478207 -85.486621 
L 347.025654 -85.486621 
L 345.573101 -85.486621 
L 344.120548 -85.486621 
L 342.667995 -85.486621 
L 341.215442 -85.486621 
L 339.762889 -85.486621 
L 338.310336 -85.486621 
L 336.857783 -85.486621 
L 335.40523 -85.486621 
L 333.952677 -85.486621 
L 332.500125 -85.486621 
L 331.047572 -85.486621 
L 329.595019 -85.486621 
L 328.142466 -85.486621 
L 326.689913 -85.486621 
L 325.23736 -85.486621 
L 323.784807 -85.486621 
L 322.332254 -85.486621 
L 320.879701 -85.486621 
L 319.427148 -85.486621 
L 317.974595 -85.486621 
L 316.522042 -85.486621 
L 315.069489 -85.486621 
L 313.616936 -85.486621 
L 312.164384 -85.486621 
L 310.711831 -85.486621 
L 309.259278 -85.486621 
L 307.806725 -85.486621 
L 306.354172 -85.486621 
L 304.901619 -85.486621 
L 303.449066 -85.486621 
L 301.996513 -85.486621 
L 300.54396 -85.486621 
L 299.091407 -85.486621 
L 297.638854 -85.486621 
L 296.186301 -85.486621 
L 294.733748 -85.486621 
L 293.281196 -85.486621 
L 291.828643 -85.486621 
L 290.37609 -85.486621 
L 288.923537 -85.486621 
L 287.470984 -85.486621 
L 286.018431 -85.486621 
L 284.565878 -85.486621 
L 283.113325 -85.486621 
L 281.660772 -85.486621 
L 280.208219 -85.486621 
L 278.755666 -85.486621 
L 277.303113 -85.486621 
L 275.85056 -85.486621 
L 274.398007 -85.486621 
L 272.945455 -85.486621 
L 271.492902 -85.486621 
L 270.040349 -85.486621 
L 268.587796 -85.486621 
L 267.135243 -85.486621 
L 265.68269 -85.486621 
L 264.230137 -85.486621 
L 262.777584 -85.486621 
L 261.325031 -85.486621 
L 259.872478 -85.486621 
L 258.419925 -85.486621 
L 256.967372 -85.486621 
L 255.514819 -85.486621 
L 254.062267 -85.486621 
L 252.609714 -85.486621 
L 251.157161 -85.486621 
L 249.704608 -85.486621 
L 248.252055 -85.486621 
L 246.799502 -85.486621 
L 245.346949 -85.486621 
L 243.894396 -85.486621 
L 242.441843 -85.486621 
L 240.98929 -85.486621 
L 239.536737 -85.486621 
L 238.084184 -85.486621 
L 236.631631 -85.486621 
L 235.179078 -85.486621 
L 233.726526 -85.486621 
L 232.273973 -85.486621 
L 230.82142 -85.486621 
L 229.368867 -85.486621 
L 227.916314 -85.486621 
L 226.463761 -85.486621 
L 225.011208 -85.486621 
L 223.558655 -85.486621 
L 222.106102 -85.486621 
L 220.653549 -85.486621 
L 219.200996 -85.486621 
L 217.748443 -85.486621 
L 216.29589 -85.486621 
L 214.843337 -85.486621 
L 213.390785 -85.486621 
L 211.938232 -85.486621 
L 210.485679 -85.486621 
L 209.033126 -85.486621 
L 207.580573 -85.486621 
L 206.12802 -85.486621 
L 204.675467 -85.486621 
L 203.222914 -85.486621 
L 201.770361 -85.486621 
L 200.317808 -85.486621 
L 198.865255 -85.486621 
L 197.412702 -85.486621 
L 195.960149 -85.486621 
L 194.507597 -85.486621 
L 193.055044 -85.486621 
L 191.602491 -85.486621 
L 190.149938 -85.486621 
L 188.697385 -85.486621 
L 187.244832 -85.486621 
L 185.792279 -85.486621 
L 184.339726 -85.486621 
L 182.887173 -85.486621 
L 181.43462 -85.486621 
L 179.982067 -85.486621 
L 178.529514 -85.486621 
L 177.076961 -85.486621 
L 175.624408 -85.486621 
L 174.171856 -85.486621 
L 172.719303 -85.486621 
L 171.26675 -85.486621 
L 169.814197 -85.486621 
L 168.361644 -85.486621 
L 166.909091 -85.486621 
L 165.456538 -85.486621 
L 164.003985 -85.486621 
L 162.551432 -85.486621 
L 161.098879 -85.486621 
L 159.646326 -85.486621 
L 158.193773 -85.486621 
L 156.74122 -85.486621 
L 155.288667 -85.486621 
L 153.836115 -85.486621 
L 152.383562 -85.486621 
L 150.931009 -85.486621 
L 149.478456 -85.486621 
L 148.025903 -85.486621 
L 146.57335 -85.486621 
L 145.120797 -85.486621 
L 143.668244 -85.486621 
L 142.215691 -85.486621 
L 140.763138 -85.486621 
L 139.310585 -85.486621 
L 137.858032 -85.486621 
L 136.405479 -85.486621 
L 134.952927 -85.486621 
L 133.500374 -85.486621 
L 132.047821 -85.486621 
L 130.595268 -85.486621 
L 129.142715 -85.486621 
L 127.690162 -85.486621 
L 126.237609 -85.486621 
L 124.785056 -85.486621 
L 123.332503 -85.486621 
L 121.87995 -85.486621 
L 120.427397 -85.486621 
L 118.974844 -85.486621 
L 117.522291 -85.486621 
L 116.069738 -85.486621 
L 114.617186 -85.486621 
L 113.164633 -85.486621 
L 111.71208 -85.486621 
L 110.259527 -85.486621 
L 108.806974 -85.486621 
L 107.354421 -85.486621 
L 105.901868 -85.486621 
L 104.449315 -85.486621 
L 102.996762 -85.486621 
L 101.544209 -85.486621 
L 100.091656 -85.486621 
L 98.639103 -85.486621 
L 97.18655 -85.486621 
L 95.733998 -85.486621 
L 94.281445 -85.486621 
L 92.828892 -85.486621 
L 91.376339 -85.486621 
L 89.923786 -85.486621 
L 88.471233 -85.486621 
L 87.01868 -85.486621 
L 85.566127 -85.486621 
L 84.113574 -85.486621 
L 82.661021 -85.486621 
L 81.208468 -85.486621 
L 79.755915 -85.486621 
L 78.303362 -85.486621 
L 76.850809 -85.486621 
L 75.398257 -85.486621 
L 73.945704 -85.486621 
L 72.493151 -85.486621 
L 71.040598 -85.486621 
L 69.588045 -85.486621 
L 68.135492 -85.486621 
L 66.682939 -85.486621 
L 65.230386 -85.486621 
L 63.777833 -85.486621 
L 62.32528 -85.486621 
L 60.872727 -85.486621 
z
" style="stroke: #6cb7ff; stroke-opacity: 0.6; stroke-width: 0.3"/>
    </defs>
    <g clip-path="url(#pa222bbb519)">
     <use xlink:href="#mec38b7971b" x="0" y="864" style="fill: #6cb7ff; fill-opacity: 0.6; stroke: #6cb7ff; stroke-opacity: 0.6; stroke-width: 0.3"/>
    </g>
   </g>
   <g id="line2d_13">
    <path d="M 60.872727 571.806697 
L 63.777833 571.636554 
L 66.682939 571.115988 
L 68.135492 570.773855 
L 71.040598 569.793911 
L 73.945704 568.514614 
L 76.850809 566.833868 
L 79.755915 564.830833 
L 82.661021 562.448251 
L 85.566127 559.85858 
L 89.923786 555.410913 
L 94.281445 550.293946 
L 97.18655 546.613378 
L 100.091656 542.707538 
L 104.449315 536.355649 
L 110.259527 527.509675 
L 117.522291 515.650215 
L 130.595268 493.980461 
L 137.858032 482.404101 
L 142.215691 475.724781 
L 149.478456 465.200038 
L 161.098879 449.168475 
L 165.456538 443.293128 
L 174.171856 431.111146 
L 177.076961 426.672918 
L 179.982067 422.091631 
L 184.339726 414.823486 
L 188.697385 406.979675 
L 193.055044 398.531055 
L 197.412702 389.404718 
L 200.317808 382.984759 
L 204.675467 372.822597 
L 207.580573 365.82833 
L 213.390785 351.239602 
L 222.106102 328.355219 
L 229.368867 309.358537 
L 233.726526 298.342419 
L 238.084184 287.859919 
L 243.894396 274.659244 
L 248.252055 265.62886 
L 251.157161 260.075451 
L 254.062267 254.790287 
L 258.419925 247.574985 
L 261.325031 243.25512 
L 265.68269 237.247697 
L 268.587796 233.728099 
L 271.492902 230.479928 
L 275.85056 226.136922 
L 281.660772 220.904892 
L 284.565878 218.60928 
L 291.828643 213.319623 
L 312.164384 199.25528 
L 315.069489 197.129095 
L 317.974595 194.810016 
L 323.784807 190.030799 
L 328.142466 186.262035 
L 331.047572 183.500791 
L 336.857783 178.042997 
L 344.120548 170.8359 
L 354.288418 160.299091 
L 358.646077 155.612861 
L 365.908842 147.682971 
L 374.624159 137.89057 
L 392.054795 119.010967 
L 397.865006 113.226695 
L 403.675218 107.939917 
L 409.48543 103.12701 
L 413.843088 100.039778 
L 418.200747 97.535464 
L 421.105853 96.049909 
L 425.463512 94.362702 
L 429.821171 93.134784 
L 434.178829 92.463414 
L 438.536488 92.340185 
L 441.441594 92.508406 
L 444.3467 92.800461 
L 450.156912 93.968289 
L 453.062017 94.789717 
L 458.872229 96.593574 
L 479.20797 104.782616 
L 482.113076 106.074389 
L 486.470735 107.683276 
L 487.923288 108.327223 
L 498.091158 112.052632 
L 503.90137 114.354492 
L 514.06924 118.658036 
L 519.879452 121.517182 
L 524.237111 123.999918 
L 528.59477 126.773764 
L 532.952428 130.033794 
L 535.857534 132.386515 
L 538.76264 134.938091 
L 544.572852 140.724121 
L 548.930511 145.691549 
L 551.835616 149.272675 
L 557.645828 157.11149 
L 560.550934 161.388162 
L 566.361146 170.610411 
L 569.266252 175.456091 
L 575.076463 185.712195 
L 580.886675 196.571039 
L 589.601993 213.569375 
L 604.127522 242.771257 
L 617.200498 268.417425 
L 623.01071 279.328458 
L 631.726027 295.081868 
L 636.083686 302.469857 
L 638.988792 307.260749 
L 644.799004 316.55663 
L 650.609215 325.188451 
L 653.514321 329.305012 
L 660.777086 338.884481 
L 668.039851 347.65048 
L 676.755168 357.102785 
L 681.112827 361.613806 
L 691.280697 371.464544 
L 701.448568 381.122522 
L 710.163885 389.89119 
L 713.068991 392.986928 
L 720.331756 401.142469 
L 724.689415 406.250533 
L 729.047073 411.701537 
L 737.762391 423.355032 
L 742.12005 429.71843 
L 752.28792 445.265329 
L 758.098132 454.407727 
L 765.360897 465.794563 
L 771.171108 474.541782 
L 776.98132 482.663276 
L 779.886426 486.34735 
L 782.791532 489.787063 
L 785.696638 492.822938 
L 788.601743 495.5722 
L 791.506849 497.898392 
L 792.959402 498.937946 
L 795.864508 500.633965 
L 798.769614 501.83687 
L 800.222167 502.285563 
L 801.67472 502.604231 
L 803.127273 502.76042 
L 803.127273 502.76042 
" clip-path="url(#pa222bbb519)" style="fill: none; stroke: #7570b3; stroke-width: 2; stroke-linecap: round"/>
   </g>
   <g id="line2d_14">
    <path d="M 60.872727 780.580446 
L 60.872727 571.806697 
" clip-path="url(#pa222bbb519)" style="fill: none; stroke: #7570b3; stroke-width: 2; stroke-linecap: round"/>
   </g>
   <g id="line2d_15">
    <path d="M 803.127273 781.270909 
L 803.127273 502.76042 
" clip-path="url(#pa222bbb519)" style="fill: none; stroke: #7570b3; stroke-width: 2; stroke-linecap: round"/>
   </g>
   <g id="line2d_16">
    <defs>
     <path id="mb64426bb03" d="M 0 3.5 
C 0.928211 3.5 1.81853 3.131218 2.474874 2.474874 
C 3.131218 1.81853 3.5 0.928211 3.5 0 
C 3.5 -0.928211 3.131218 -1.81853 2.474874 -2.474874 
C 1.81853 -3.131218 0.928211 -3.5 0 -3.5 
C -0.928211 -3.5 -1.81853 -3.131218 -2.474874 -2.474874 
C -3.131218 -1.81853 -3.5 -0.928211 -3.5 0 
C -3.5 0.928211 -3.131218 1.81853 -2.474874 2.474874 
C -1.81853 3.131218 -0.928211 3.5 0 3.5 
z
"/>
    </defs>
    <g clip-path="url(#pa222bbb519)">
     <use xlink:href="#mb64426bb03" x="446.619425" y="778.513379" style="fill: #7570b3"/>
    </g>
   </g>
   <g id="patch_3">
    <path d="M 23.76 815.72 
L 840.24 815.72 
" style="fill: none; stroke: #333333; stroke-width: 1.5; stroke-linejoin: miter; stroke-linecap: square"/>
   </g>
   <g id="text_7">
    <!-- $x_2^2x_3^2$ -->
    <g style="fill: #262626" transform="translate(400.92 49.72)">
     <text>
      <tspan x="0" y="-0.734375" style="font-style: oblique; font-size: 28px; font-family: 'DejaVu Sans'; fill: #262626">x</tspan>
      <tspan x="31.056576" y="-0.734375" style="font-style: oblique; font-size: 28px; font-family: 'DejaVu Sans'; fill: #262626">x</tspan>
      <tspan x="16.570312" y="6.921875" style="font-size: 19.6px; font-family: 'DejaVu Sans'; fill: #262626">2</tspan>
      <tspan x="17.820833" y="-11.453125" style="font-size: 19.6px; font-family: 'DejaVu Sans'; fill: #262626">2</tspan>
      <tspan x="47.626888" y="6.921875" style="font-size: 19.6px; font-family: 'DejaVu Sans'; fill: #262626">3</tspan>
      <tspan x="48.877409" y="-11.453125" style="font-size: 19.6px; font-family: 'DejaVu Sans'; fill: #262626">2</tspan>
     </text>
    </g>
   </g>
  </g>
 </g>
 <defs>
  <clipPath id="pa222bbb519">
   <rect x="23.76" y="57.84" width="816.48" height="757.88"/>
  </clipPath>
 </defs>
</svg>
