<?xml version="1.0" encoding="utf-8" standalone="no"?>
<!DOCTYPE svg PUBLIC "-//W3C//DTD SVG 1.1//EN"
  "http://www.w3.org/Graphics/SVG/1.1/DTD/svg11.dtd">
<svg xmlns:xlink="http://www.w3.org/1999/xlink" width="864pt" height="864pt" viewBox="0 0 864 864" xmlns="http://www.w3.org/2000/svg" version="1.1">
 <metadata>
  <rdf:RDF xmlns:dc="http://purl.org/dc/elements/1.1/" xmlns:cc="http://creativecommons.org/ns#" xmlns:rdf="http://www.w3.org/1999/02/22-rdf-syntax-ns#">
   <cc:Work>
    <dc:type rdf:resource="http://purl.org/dc/dcmitype/StillImage"/>
    <dc:date>2026-03-13T22:48:06.134074</dc:date>
    <dc:format>image/svg+xml</dc:format>
    <dc:creator>
     <cc:Agent>
      <dc:title>Matplotlib v3.10.6, https://matplotlib.org/</dc:title>
     </cc:Agent>
    </dc:creator>
   </cc:Work>
  </rdf:RDF>
 </metadata>
 <defs>
  <style type="text/css">*{stroke-linejoin: round; stroke-linecap: butt}</style>
 </defs>
 <g id="figure_1">
  <g id="patch_1">
   <path d="M 0 864 
L 864 864 
L 864 0 
L 0 0 
L 0 864 
z
" style="fill: none; opacity: 0"/>
  </g>
  <g id="axes_1">
   <g id="patch_2">
    <path d="M 23.76 815.72 
L 809.676159 815.72 
L 809.676159 57.696 
L 23.76 57.696 
L 23.76 815.72 
z
" style="fill: none"/>
   </g>
   <g id="matplotlib.axis_1">
    <g id="xtick_1">
     <g id="line2d_1">
      <path d="M 151.399669 815.72 
L 151.399669 57.696 
" clip-path="url(#pe74e37e112)" style="fill: none; stroke: #ffffff; stroke-opacity: 0.4; stroke-linecap: round"/>
     </g>
     <g id="line2d_2"/>
     <g id="text_1">
      <text style="font-size: 18px; font-family: 'DejaVu Serif', 'Times New Roman', serif; text-anchor: middle; fill: #262626" x="151.399669" y="836.397187" transform="rotate(-0 151.399669 836.397187)">−1.010</text>
     </g>
    </g>
    <g id="xtick_2">
     <g id="line2d_3">
      <path d="M 282.405634 815.72 
L 282.405634 57.696 
" clip-path="url(#pe74e37e112)" style="fill: none; stroke: #ffffff; stroke-opacity: 0.4; stroke-linecap: round"/>
     </g>
     <g id="line2d_4"/>
     <g id="text_2">
      <text style="font-size: 18px; font-family: 'DejaVu Serif', 'Times New Roman', serif; text-anchor: middle; fill: #262626" x="282.405634" y="836.397187" transform="rotate(-0 282.405634 836.397187)">−1.005</text>
     </g>
    </g>
    <g id="xtick_3">
     <g id="line2d_5">
      <path d="M 413.411598 815.72 
L 413.411598 57.696 
" clip-path="url(#pe74e37e112)" style="fill: none; stroke: #ffffff; stroke-opacity: 0.4; stroke-linecap: round"/>
     </g>
     <g id="line2d_6"/>
     <g id="text_3">
      <text style="font-size: 18px; font-family: 'DejaVu Serif', 'Times New Roman', serif; text-anchor: middle; fill: #262626" x="413.411598" y="836.397187" transform="rotate(-0 413.411598 836.397187)">−1.000</text>
     </g>
    </g>
    <g id="xtick_4">
     <g id="line2d_7">
      <path d="M 544.417562 815.72 
L 544.417562 57.696 
" clip-path="url(#pe74e37e112)" style="fill: none; stroke: #ffffff; stroke-opacity: 0.4; stroke-linecap: round"/>
     </g>
     <g id="line2d_8"/>
     <g id="text_4">
      <text style="font-size: 18px; font-family: 'DejaVu Serif', 'Times New Roman', serif; text-anchor: middle; fill: #262626" x="544.417562" y="836.397187" transform="rotate(-0 544.417562 836.397187)">−0.995</text>
     </g>
    </g>
    <g id="xtick_5">
     <g id="line2d_9">
      <path d="M 675.423526 815.72 
L 675.423526 57.696 
" clip-path="url(#pe74e37e112)" style="fill: none; stroke: #ffffff; stroke-opacity: 0.4; stroke-linecap: round"/>
     </g>
     <g id="line2d_10"/>
     <g id="text_5">
      <text style="font-size: 18px; font-family: 'DejaVu Serif', 'Times New Roman', serif; text-anchor: middle; fill: #262626" x="675.423526" y="836.397187" transform="rotate(-0 675.423526 836.397187)">−0.990</text>
     </g>
    </g>
    <g id="xtick_6">
     <g id="line2d_11">
      <path d="M 806.429491 815.72 
L 806.429491 57.696 
" clip-path="url(#pe74e37e112)" style="fill: none; stroke: #ffffff; stroke-opacity: 0.4; stroke-linecap: round"/>
     </g>
     <g id="line2d_12"/>
     <g id="text_6">
      <text style="font-size: 18px; font-family: 'DejaVu Serif', 'Times New Roman', serif; text-anchor: middle; fill: #262626" x="806.429491" y="836.397187" transform="rotate(-0 806.429491 836.397187)">−0.985</text>
     </g>
    </g>
   </g>
   <g id="matplotlib.axis_2"/>
   <g id="FillBetweenPolyCollection_1">
    <defs>
     <path id="mac8dd4cc9d" d="M 59.483462 -85.324686 
L 59.483462 -344.229608 
L 60.88164 -344.295212 
L 62.279819 -344.473486 
L 63.677997 -344.708873 
L 65.076176 -344.994772 
L 66.474355 -345.39708 
L 67.872533 -345.874077 
L 69.270712 -346.398045 
L 70.66889 -347.029303 
L 72.067069 -347.689251 
L 73.465247 -348.443882 
L 74.863426 -349.26134 
L 76.261604 -350.13618 
L 77.659783 -351.105894 
L 79.057961 -352.121198 
L 80.45614 -353.223367 
L 81.854318 -354.417601 
L 83.252497 -355.668584 
L 84.650676 -356.943761 
L 86.048854 -358.305423 
L 87.447033 -359.718509 
L 88.845211 -361.230164 
L 90.24339 -362.776327 
L 91.641568 -364.395576 
L 93.039747 -366.005427 
L 94.437925 -367.750699 
L 95.836104 -369.513791 
L 97.234282 -371.287206 
L 98.632461 -373.109641 
L 100.03064 -374.974554 
L 101.428818 -376.89398 
L 102.826997 -378.845957 
L 104.225175 -380.847695 
L 105.623354 -382.88798 
L 107.021532 -384.91199 
L 108.419711 -387.005638 
L 109.817889 -389.063445 
L 111.216068 -391.25175 
L 112.614246 -393.393086 
L 114.012425 -395.53247 
L 115.410604 -397.673079 
L 116.808782 -399.872392 
L 118.206961 -402.032345 
L 119.605139 -404.196185 
L 121.003318 -406.388709 
L 122.401496 -408.559322 
L 123.799675 -410.795571 
L 125.197853 -412.99855 
L 126.596032 -415.179731 
L 127.99421 -417.356544 
L 129.392389 -419.515425 
L 130.790568 -421.746891 
L 132.188746 -423.931505 
L 133.586925 -426.109306 
L 134.985103 -428.344081 
L 136.383282 -430.489414 
L 137.78146 -432.755846 
L 139.179639 -434.906221 
L 140.577817 -437.099124 
L 141.975996 -439.286647 
L 143.374174 -441.511883 
L 144.772353 -443.702811 
L 146.170532 -445.947814 
L 147.56871 -448.201708 
L 148.966889 -450.445966 
L 150.365067 -452.69746 
L 151.763246 -454.931202 
L 153.161424 -457.219257 
L 154.559603 -459.540623 
L 155.957781 -461.824139 
L 157.35596 -464.15311 
L 158.754138 -466.51752 
L 160.152317 -468.906873 
L 161.550495 -471.376905 
L 162.948674 -473.851705 
L 164.346853 -476.275484 
L 165.745031 -478.751063 
L 167.14321 -481.280319 
L 168.541388 -483.839629 
L 169.939567 -486.471552 
L 171.337745 -489.104385 
L 172.735924 -491.743251 
L 174.134102 -494.393744 
L 175.532281 -497.067562 
L 176.930459 -499.799791 
L 178.328638 -502.533279 
L 179.726817 -505.286312 
L 181.124995 -508.060868 
L 182.523174 -510.911567 
L 183.921352 -513.754385 
L 185.319531 -516.607895 
L 186.717709 -519.471891 
L 188.115888 -522.303295 
L 189.514066 -525.170984 
L 190.912245 -528.023996 
L 192.310423 -530.89503 
L 193.708602 -533.760681 
L 195.106781 -536.585914 
L 196.504959 -539.458399 
L 197.903138 -542.271486 
L 199.301316 -545.053148 
L 200.699495 -547.889996 
L 202.097673 -550.624329 
L 203.495852 -553.414679 
L 204.89403 -556.116056 
L 206.292209 -558.83261 
L 207.690387 -561.521382 
L 209.088566 -564.164226 
L 210.486745 -566.826434 
L 211.884923 -569.380612 
L 213.283102 -571.949465 
L 214.68128 -574.454491 
L 216.079459 -576.878397 
L 217.477637 -579.25935 
L 218.875816 -581.614096 
L 220.273994 -583.917092 
L 221.672173 -586.192184 
L 223.070351 -588.44104 
L 224.46853 -590.622058 
L 225.866709 -592.775993 
L 227.264887 -594.935513 
L 228.663066 -596.939083 
L 230.061244 -598.997918 
L 231.459423 -600.935594 
L 232.857601 -602.922231 
L 234.25578 -604.784927 
L 235.653958 -606.661013 
L 237.052137 -608.495591 
L 238.450315 -610.242364 
L 239.848494 -612.008779 
L 241.246672 -613.713538 
L 242.644851 -615.428366 
L 244.04303 -617.110451 
L 245.441208 -618.750131 
L 246.839387 -620.378741 
L 248.237565 -621.979501 
L 249.635744 -623.603899 
L 251.033922 -625.233066 
L 252.432101 -626.8559 
L 253.830279 -628.443196 
L 255.228458 -630.052281 
L 256.626636 -631.684958 
L 258.024815 -633.281945 
L 259.422994 -634.853233 
L 260.821172 -636.427893 
L 262.219351 -637.99914 
L 263.617529 -639.67203 
L 265.015708 -641.292779 
L 266.413886 -642.940366 
L 267.812065 -644.545447 
L 269.210243 -646.269511 
L 270.608422 -648.003757 
L 272.0066 -649.690881 
L 273.404779 -651.412753 
L 274.802958 -653.162248 
L 276.201136 -654.928122 
L 277.599315 -656.779836 
L 278.997493 -658.583905 
L 280.395672 -660.398263 
L 281.79385 -662.230723 
L 283.192029 -664.090893 
L 284.590207 -666.011944 
L 285.988386 -667.915823 
L 287.386564 -669.797221 
L 288.784743 -671.772313 
L 290.182922 -673.667078 
L 291.5811 -675.647476 
L 292.979279 -677.636991 
L 294.377457 -679.644473 
L 295.775636 -681.594328 
L 297.173814 -683.594532 
L 298.571993 -685.563567 
L 299.970171 -687.56523 
L 301.36835 -689.559651 
L 302.766528 -691.542568 
L 304.164707 -693.517157 
L 305.562885 -695.480056 
L 306.961064 -697.446 
L 308.359243 -699.366614 
L 309.757421 -701.246938 
L 311.1556 -703.115372 
L 312.553778 -704.992946 
L 313.951957 -706.791579 
L 315.350135 -708.638226 
L 316.748314 -710.44575 
L 318.146492 -712.160159 
L 319.544671 -713.871015 
L 320.942849 -715.571852 
L 322.341028 -717.253638 
L 323.739207 -718.862427 
L 325.137385 -720.452486 
L 326.535564 -722.044272 
L 327.933742 -723.583502 
L 329.331921 -725.077174 
L 330.730099 -726.433768 
L 332.128278 -727.840117 
L 333.526456 -729.155584 
L 334.924635 -730.548724 
L 336.322813 -731.785089 
L 337.720992 -733.028492 
L 339.119171 -734.253459 
L 340.517349 -735.416346 
L 341.915528 -736.57338 
L 343.313706 -737.578718 
L 344.711885 -738.657158 
L 346.110063 -739.705801 
L 347.508242 -740.719515 
L 348.90642 -741.641994 
L 350.304599 -742.498711 
L 351.702777 -743.38217 
L 353.100956 -744.177113 
L 354.499135 -744.921957 
L 355.897313 -745.772616 
L 357.295492 -746.418327 
L 358.69367 -747.112657 
L 360.091849 -747.799055 
L 361.490027 -748.43188 
L 362.888206 -749.01244 
L 364.286384 -749.62218 
L 365.684563 -750.149239 
L 367.082741 -750.702729 
L 368.48092 -751.198364 
L 369.879099 -751.69769 
L 371.277277 -752.200244 
L 372.675456 -752.718455 
L 374.073634 -753.152575 
L 375.471813 -753.628667 
L 376.869991 -754.053321 
L 378.26817 -754.481404 
L 379.666348 -754.929729 
L 381.064527 -755.319933 
L 382.462705 -755.67698 
L 383.860884 -756.144574 
L 385.259062 -756.529048 
L 386.657241 -756.912114 
L 388.05542 -757.314064 
L 389.453598 -757.640712 
L 390.851777 -758.037059 
L 392.249955 -758.429187 
L 393.648134 -758.829952 
L 395.046312 -759.296905 
L 396.444491 -759.761602 
L 397.842669 -760.251879 
L 399.240848 -760.654359 
L 400.639026 -761.054789 
L 402.037205 -761.506911 
L 403.435384 -761.981407 
L 404.833562 -762.439895 
L 406.231741 -762.889209 
L 407.629919 -763.451395 
L 409.028098 -763.924928 
L 410.426276 -764.468282 
L 411.824455 -764.973605 
L 413.222633 -765.4308 
L 414.620812 -765.931941 
L 416.01899 -766.348252 
L 417.417169 -766.846785 
L 418.815348 -767.311495 
L 420.213526 -767.784179 
L 421.611705 -768.320775 
L 423.009883 -768.715629 
L 424.408062 -769.131253 
L 425.80624 -769.544524 
L 427.204419 -769.939005 
L 428.602597 -770.284665 
L 430.000776 -770.55412 
L 431.398954 -770.917942 
L 432.797133 -771.170855 
L 434.195312 -771.399242 
L 435.59349 -771.572098 
L 436.991669 -771.724722 
L 438.389847 -771.80994 
L 439.788026 -771.848364 
L 441.186204 -771.787951 
L 442.584383 -771.692916 
L 443.982561 -771.587299 
L 445.38074 -771.313047 
L 446.778918 -770.969368 
L 448.177097 -770.64163 
L 449.575276 -770.161249 
L 450.973454 -769.687169 
L 452.371633 -769.058939 
L 453.769811 -768.455241 
L 455.16799 -767.680344 
L 456.566168 -766.885991 
L 457.964347 -766.032966 
L 459.362525 -765.074088 
L 460.760704 -764.047063 
L 462.158882 -762.935219 
L 463.557061 -761.735635 
L 464.955239 -760.467112 
L 466.353418 -759.153299 
L 467.751597 -757.779745 
L 469.149775 -756.319295 
L 470.547954 -754.735161 
L 471.946132 -753.152827 
L 473.344311 -751.546452 
L 474.742489 -749.869673 
L 476.140668 -748.176572 
L 477.538846 -746.407131 
L 478.937025 -744.598006 
L 480.335203 -742.797495 
L 481.733382 -740.989701 
L 483.131561 -739.066554 
L 484.529739 -737.197291 
L 485.927918 -735.235872 
L 487.326096 -733.355471 
L 488.724275 -731.396603 
L 490.122453 -729.421949 
L 491.520632 -727.46019 
L 492.91881 -725.489248 
L 494.316989 -723.547543 
L 495.715167 -721.66405 
L 497.113346 -719.678107 
L 498.511525 -717.817882 
L 499.909703 -715.951749 
L 501.307882 -714.096295 
L 502.70606 -712.238502 
L 504.104239 -710.390331 
L 505.502417 -708.61349 
L 506.900596 -706.905114 
L 508.298774 -705.160503 
L 509.696953 -703.460275 
L 511.095131 -701.76174 
L 512.49331 -700.088886 
L 513.891489 -698.409532 
L 515.289667 -696.823964 
L 516.687846 -695.183202 
L 518.086024 -693.63154 
L 519.484203 -692.049936 
L 520.882381 -690.52756 
L 522.28056 -689.046798 
L 523.678738 -687.562505 
L 525.076917 -686.068822 
L 526.475095 -684.596648 
L 527.873274 -683.145756 
L 529.271453 -681.685355 
L 530.669631 -680.191963 
L 532.06781 -678.720564 
L 533.465988 -677.195772 
L 534.864167 -675.661776 
L 536.262345 -674.131684 
L 537.660524 -672.61394 
L 539.058702 -671.0356 
L 540.456881 -669.438997 
L 541.855059 -667.730972 
L 543.253238 -666.00197 
L 544.651416 -664.239755 
L 546.049595 -662.434412 
L 547.447774 -660.552628 
L 548.845952 -658.653446 
L 550.244131 -656.763446 
L 551.642309 -654.729841 
L 553.040488 -652.709162 
L 554.438666 -650.577638 
L 555.836845 -648.392605 
L 557.235023 -646.16957 
L 558.633202 -643.828651 
L 560.03138 -641.468535 
L 561.429559 -639.00883 
L 562.827738 -636.539924 
L 564.225916 -633.933047 
L 565.624095 -631.315654 
L 567.022273 -628.585922 
L 568.420452 -625.88648 
L 569.81863 -623.088957 
L 571.216809 -620.203975 
L 572.614987 -617.345051 
L 574.013166 -614.424405 
L 575.411344 -611.351815 
L 576.809523 -608.345045 
L 578.207702 -605.275116 
L 579.60588 -602.123036 
L 581.004059 -598.973426 
L 582.402237 -595.780796 
L 583.800416 -592.532763 
L 585.198594 -589.297074 
L 586.596773 -585.983115 
L 587.994951 -582.692557 
L 589.39313 -579.386308 
L 590.791308 -576.043295 
L 592.189487 -572.678201 
L 593.587666 -569.334552 
L 594.985844 -566.021902 
L 596.384023 -562.672657 
L 597.782201 -559.338687 
L 599.18038 -555.998893 
L 600.578558 -552.702677 
L 601.976737 -549.416214 
L 603.374915 -546.084806 
L 604.773094 -542.846789 
L 606.171272 -539.61507 
L 607.569451 -536.368532 
L 608.96763 -533.177867 
L 610.365808 -529.954126 
L 611.763987 -526.803493 
L 613.162165 -523.661183 
L 614.560344 -520.488667 
L 615.958522 -517.353591 
L 617.356701 -514.200431 
L 618.754879 -511.152453 
L 620.153058 -508.142885 
L 621.551236 -505.037207 
L 622.949415 -501.953629 
L 624.347593 -498.935421 
L 625.745772 -495.899786 
L 627.143951 -492.841405 
L 628.542129 -489.847992 
L 629.940308 -486.862219 
L 631.338486 -483.864497 
L 632.736665 -480.956235 
L 634.134843 -477.98367 
L 635.533022 -475.014477 
L 636.9312 -472.016436 
L 638.329379 -469.022464 
L 639.727557 -465.993831 
L 641.125736 -462.907646 
L 642.523915 -459.894352 
L 643.922093 -456.852902 
L 645.320272 -453.746063 
L 646.71845 -450.680862 
L 648.116629 -447.599336 
L 649.514807 -444.564854 
L 650.912986 -441.451751 
L 652.311164 -438.364432 
L 653.709343 -435.263203 
L 655.107521 -432.187968 
L 656.5057 -429.067683 
L 657.903879 -425.92952 
L 659.302057 -422.831829 
L 660.700236 -419.761829 
L 662.098414 -416.676108 
L 663.496593 -413.538673 
L 664.894771 -410.533093 
L 666.29295 -407.523954 
L 667.691128 -404.475281 
L 669.089307 -401.487677 
L 670.487485 -398.518565 
L 671.885664 -395.563043 
L 673.283843 -392.583844 
L 674.682021 -389.701826 
L 676.0802 -386.831531 
L 677.478378 -383.995197 
L 678.876557 -381.219415 
L 680.274735 -378.504255 
L 681.672914 -375.861423 
L 683.071092 -373.222347 
L 684.469271 -370.668962 
L 685.867449 -368.138628 
L 687.265628 -365.664578 
L 688.663806 -363.249619 
L 690.061985 -360.933015 
L 691.460164 -358.64669 
L 692.858342 -356.421413 
L 694.256521 -354.28059 
L 695.654699 -352.169173 
L 697.052878 -350.175139 
L 698.451056 -348.337628 
L 699.849235 -346.480046 
L 701.247413 -344.693338 
L 702.645592 -342.980247 
L 704.04377 -341.343857 
L 705.441949 -339.787165 
L 706.840128 -338.253822 
L 708.238306 -336.769166 
L 709.636485 -335.377751 
L 711.034663 -334.126411 
L 712.432842 -332.886943 
L 713.83102 -331.681697 
L 715.229199 -330.520495 
L 716.627377 -329.433493 
L 718.025556 -328.369561 
L 719.423734 -327.415363 
L 720.821913 -326.469761 
L 722.220092 -325.601482 
L 723.61827 -324.761492 
L 725.016449 -323.951807 
L 726.414627 -323.203422 
L 727.812806 -322.47069 
L 729.210984 -321.80521 
L 730.609163 -321.1977 
L 732.007341 -320.623154 
L 733.40552 -320.087787 
L 734.803698 -319.574345 
L 736.201877 -319.128876 
L 737.600056 -318.646687 
L 738.998234 -318.200259 
L 740.396413 -317.741086 
L 741.794591 -317.301657 
L 743.19277 -316.928551 
L 744.590948 -316.578004 
L 745.989127 -316.225448 
L 747.387305 -315.871706 
L 748.785484 -315.577714 
L 750.183662 -315.324587 
L 751.581841 -315.032479 
L 752.98002 -314.804353 
L 754.378198 -314.575437 
L 755.776377 -314.33759 
L 757.174555 -314.146741 
L 758.572734 -313.94968 
L 759.970912 -313.746733 
L 761.369091 -313.613392 
L 762.767269 -313.516336 
L 764.165448 -313.391408 
L 765.563626 -313.312175 
L 766.961805 -313.205838 
L 768.359983 -313.124756 
L 769.758162 -313.030962 
L 771.156341 -313.014869 
L 772.554519 -312.970686 
L 773.952698 -312.908712 
L 773.952698 -85.324686 
L 773.952698 -85.324686 
L 772.554519 -85.324686 
L 771.156341 -85.324686 
L 769.758162 -85.324686 
L 768.359983 -85.324686 
L 766.961805 -85.324686 
L 765.563626 -85.324686 
L 764.165448 -85.324686 
L 762.767269 -85.324686 
L 761.369091 -85.324686 
L 759.970912 -85.324686 
L 758.572734 -85.324686 
L 757.174555 -85.324686 
L 755.776377 -85.324686 
L 754.378198 -85.324686 
L 752.98002 -85.324686 
L 751.581841 -85.324686 
L 750.183662 -85.324686 
L 748.785484 -85.324686 
L 747.387305 -85.324686 
L 745.989127 -85.324686 
L 744.590948 -85.324686 
L 743.19277 -85.324686 
L 741.794591 -85.324686 
L 740.396413 -85.324686 
L 738.998234 -85.324686 
L 737.600056 -85.324686 
L 736.201877 -85.324686 
L 734.803698 -85.324686 
L 733.40552 -85.324686 
L 732.007341 -85.324686 
L 730.609163 -85.324686 
L 729.210984 -85.324686 
L 727.812806 -85.324686 
L 726.414627 -85.324686 
L 725.016449 -85.324686 
L 723.61827 -85.324686 
L 722.220092 -85.324686 
L 720.821913 -85.324686 
L 719.423734 -85.324686 
L 718.025556 -85.324686 
L 716.627377 -85.324686 
L 715.229199 -85.324686 
L 713.83102 -85.324686 
L 712.432842 -85.324686 
L 711.034663 -85.324686 
L 709.636485 -85.324686 
L 708.238306 -85.324686 
L 706.840128 -85.324686 
L 705.441949 -85.324686 
L 704.04377 -85.324686 
L 702.645592 -85.324686 
L 701.247413 -85.324686 
L 699.849235 -85.324686 
L 698.451056 -85.324686 
L 697.052878 -85.324686 
L 695.654699 -85.324686 
L 694.256521 -85.324686 
L 692.858342 -85.324686 
L 691.460164 -85.324686 
L 690.061985 -85.324686 
L 688.663806 -85.324686 
L 687.265628 -85.324686 
L 685.867449 -85.324686 
L 684.469271 -85.324686 
L 683.071092 -85.324686 
L 681.672914 -85.324686 
L 680.274735 -85.324686 
L 678.876557 -85.324686 
L 677.478378 -85.324686 
L 676.0802 -85.324686 
L 674.682021 -85.324686 
L 673.283843 -85.324686 
L 671.885664 -85.324686 
L 670.487485 -85.324686 
L 669.089307 -85.324686 
L 667.691128 -85.324686 
L 666.29295 -85.324686 
L 664.894771 -85.324686 
L 663.496593 -85.324686 
L 662.098414 -85.324686 
L 660.700236 -85.324686 
L 659.302057 -85.324686 
L 657.903879 -85.324686 
L 656.5057 -85.324686 
L 655.107521 -85.324686 
L 653.709343 -85.324686 
L 652.311164 -85.324686 
L 650.912986 -85.324686 
L 649.514807 -85.324686 
L 648.116629 -85.324686 
L 646.71845 -85.324686 
L 645.320272 -85.324686 
L 643.922093 -85.324686 
L 642.523915 -85.324686 
L 641.125736 -85.324686 
L 639.727557 -85.324686 
L 638.329379 -85.324686 
L 636.9312 -85.324686 
L 635.533022 -85.324686 
L 634.134843 -85.324686 
L 632.736665 -85.324686 
L 631.338486 -85.324686 
L 629.940308 -85.324686 
L 628.542129 -85.324686 
L 627.143951 -85.324686 
L 625.745772 -85.324686 
L 624.347593 -85.324686 
L 622.949415 -85.324686 
L 621.551236 -85.324686 
L 620.153058 -85.324686 
L 618.754879 -85.324686 
L 617.356701 -85.324686 
L 615.958522 -85.324686 
L 614.560344 -85.324686 
L 613.162165 -85.324686 
L 611.763987 -85.324686 
L 610.365808 -85.324686 
L 608.96763 -85.324686 
L 607.569451 -85.324686 
L 606.171272 -85.324686 
L 604.773094 -85.324686 
L 603.374915 -85.324686 
L 601.976737 -85.324686 
L 600.578558 -85.324686 
L 599.18038 -85.324686 
L 597.782201 -85.324686 
L 596.384023 -85.324686 
L 594.985844 -85.324686 
L 593.587666 -85.324686 
L 592.189487 -85.324686 
L 590.791308 -85.324686 
L 589.39313 -85.324686 
L 587.994951 -85.324686 
L 586.596773 -85.324686 
L 585.198594 -85.324686 
L 583.800416 -85.324686 
L 582.402237 -85.324686 
L 581.004059 -85.324686 
L 579.60588 -85.324686 
L 578.207702 -85.324686 
L 576.809523 -85.324686 
L 575.411344 -85.324686 
L 574.013166 -85.324686 
L 572.614987 -85.324686 
L 571.216809 -85.324686 
L 569.81863 -85.324686 
L 568.420452 -85.324686 
L 567.022273 -85.324686 
L 565.624095 -85.324686 
L 564.225916 -85.324686 
L 562.827738 -85.324686 
L 561.429559 -85.324686 
L 560.03138 -85.324686 
L 558.633202 -85.324686 
L 557.235023 -85.324686 
L 555.836845 -85.324686 
L 554.438666 -85.324686 
L 553.040488 -85.324686 
L 551.642309 -85.324686 
L 550.244131 -85.324686 
L 548.845952 -85.324686 
L 547.447774 -85.324686 
L 546.049595 -85.324686 
L 544.651416 -85.324686 
L 543.253238 -85.324686 
L 541.855059 -85.324686 
L 540.456881 -85.324686 
L 539.058702 -85.324686 
L 537.660524 -85.324686 
L 536.262345 -85.324686 
L 534.864167 -85.324686 
L 533.465988 -85.324686 
L 532.06781 -85.324686 
L 530.669631 -85.324686 
L 529.271453 -85.324686 
L 527.873274 -85.324686 
L 526.475095 -85.324686 
L 525.076917 -85.324686 
L 523.678738 -85.324686 
L 522.28056 -85.324686 
L 520.882381 -85.324686 
L 519.484203 -85.324686 
L 518.086024 -85.324686 
L 516.687846 -85.324686 
L 515.289667 -85.324686 
L 513.891489 -85.324686 
L 512.49331 -85.324686 
L 511.095131 -85.324686 
L 509.696953 -85.324686 
L 508.298774 -85.324686 
L 506.900596 -85.324686 
L 505.502417 -85.324686 
L 504.104239 -85.324686 
L 502.70606 -85.324686 
L 501.307882 -85.324686 
L 499.909703 -85.324686 
L 498.511525 -85.324686 
L 497.113346 -85.324686 
L 495.715167 -85.324686 
L 494.316989 -85.324686 
L 492.91881 -85.324686 
L 491.520632 -85.324686 
L 490.122453 -85.324686 
L 488.724275 -85.324686 
L 487.326096 -85.324686 
L 485.927918 -85.324686 
L 484.529739 -85.324686 
L 483.131561 -85.324686 
L 481.733382 -85.324686 
L 480.335203 -85.324686 
L 478.937025 -85.324686 
L 477.538846 -85.324686 
L 476.140668 -85.324686 
L 474.742489 -85.324686 
L 473.344311 -85.324686 
L 471.946132 -85.324686 
L 470.547954 -85.324686 
L 469.149775 -85.324686 
L 467.751597 -85.324686 
L 466.353418 -85.324686 
L 464.955239 -85.324686 
L 463.557061 -85.324686 
L 462.158882 -85.324686 
L 460.760704 -85.324686 
L 459.362525 -85.324686 
L 457.964347 -85.324686 
L 456.566168 -85.324686 
L 455.16799 -85.324686 
L 453.769811 -85.324686 
L 452.371633 -85.324686 
L 450.973454 -85.324686 
L 449.575276 -85.324686 
L 448.177097 -85.324686 
L 446.778918 -85.324686 
L 445.38074 -85.324686 
L 443.982561 -85.324686 
L 442.584383 -85.324686 
L 441.186204 -85.324686 
L 439.788026 -85.324686 
L 438.389847 -85.324686 
L 436.991669 -85.324686 
L 435.59349 -85.324686 
L 434.195312 -85.324686 
L 432.797133 -85.324686 
L 431.398954 -85.324686 
L 430.000776 -85.324686 
L 428.602597 -85.324686 
L 427.204419 -85.324686 
L 425.80624 -85.324686 
L 424.408062 -85.324686 
L 423.009883 -85.324686 
L 421.611705 -85.324686 
L 420.213526 -85.324686 
L 418.815348 -85.324686 
L 417.417169 -85.324686 
L 416.01899 -85.324686 
L 414.620812 -85.324686 
L 413.222633 -85.324686 
L 411.824455 -85.324686 
L 410.426276 -85.324686 
L 409.028098 -85.324686 
L 407.629919 -85.324686 
L 406.231741 -85.324686 
L 404.833562 -85.324686 
L 403.435384 -85.324686 
L 402.037205 -85.324686 
L 400.639026 -85.324686 
L 399.240848 -85.324686 
L 397.842669 -85.324686 
L 396.444491 -85.324686 
L 395.046312 -85.324686 
L 393.648134 -85.324686 
L 392.249955 -85.324686 
L 390.851777 -85.324686 
L 389.453598 -85.324686 
L 388.05542 -85.324686 
L 386.657241 -85.324686 
L 385.259062 -85.324686 
L 383.860884 -85.324686 
L 382.462705 -85.324686 
L 381.064527 -85.324686 
L 379.666348 -85.324686 
L 378.26817 -85.324686 
L 376.869991 -85.324686 
L 375.471813 -85.324686 
L 374.073634 -85.324686 
L 372.675456 -85.324686 
L 371.277277 -85.324686 
L 369.879099 -85.324686 
L 368.48092 -85.324686 
L 367.082741 -85.324686 
L 365.684563 -85.324686 
L 364.286384 -85.324686 
L 362.888206 -85.324686 
L 361.490027 -85.324686 
L 360.091849 -85.324686 
L 358.69367 -85.324686 
L 357.295492 -85.324686 
L 355.897313 -85.324686 
L 354.499135 -85.324686 
L 353.100956 -85.324686 
L 351.702777 -85.324686 
L 350.304599 -85.324686 
L 348.90642 -85.324686 
L 347.508242 -85.324686 
L 346.110063 -85.324686 
L 344.711885 -85.324686 
L 343.313706 -85.324686 
L 341.915528 -85.324686 
L 340.517349 -85.324686 
L 339.119171 -85.324686 
L 337.720992 -85.324686 
L 336.322813 -85.324686 
L 334.924635 -85.324686 
L 333.526456 -85.324686 
L 332.128278 -85.324686 
L 330.730099 -85.324686 
L 329.331921 -85.324686 
L 327.933742 -85.324686 
L 326.535564 -85.324686 
L 325.137385 -85.324686 
L 323.739207 -85.324686 
L 322.341028 -85.324686 
L 320.942849 -85.324686 
L 319.544671 -85.324686 
L 318.146492 -85.324686 
L 316.748314 -85.324686 
L 315.350135 -85.324686 
L 313.951957 -85.324686 
L 312.553778 -85.324686 
L 311.1556 -85.324686 
L 309.757421 -85.324686 
L 308.359243 -85.324686 
L 306.961064 -85.324686 
L 305.562885 -85.324686 
L 304.164707 -85.324686 
L 302.766528 -85.324686 
L 301.36835 -85.324686 
L 299.970171 -85.324686 
L 298.571993 -85.324686 
L 297.173814 -85.324686 
L 295.775636 -85.324686 
L 294.377457 -85.324686 
L 292.979279 -85.324686 
L 291.5811 -85.324686 
L 290.182922 -85.324686 
L 288.784743 -85.324686 
L 287.386564 -85.324686 
L 285.988386 -85.324686 
L 284.590207 -85.324686 
L 283.192029 -85.324686 
L 281.79385 -85.324686 
L 280.395672 -85.324686 
L 278.997493 -85.324686 
L 277.599315 -85.324686 
L 276.201136 -85.324686 
L 274.802958 -85.324686 
L 273.404779 -85.324686 
L 272.0066 -85.324686 
L 270.608422 -85.324686 
L 269.210243 -85.324686 
L 267.812065 -85.324686 
L 266.413886 -85.324686 
L 265.015708 -85.324686 
L 263.617529 -85.324686 
L 262.219351 -85.324686 
L 260.821172 -85.324686 
L 259.422994 -85.324686 
L 258.024815 -85.324686 
L 256.626636 -85.324686 
L 255.228458 -85.324686 
L 253.830279 -85.324686 
L 252.432101 -85.324686 
L 251.033922 -85.324686 
L 249.635744 -85.324686 
L 248.237565 -85.324686 
L 246.839387 -85.324686 
L 245.441208 -85.324686 
L 244.04303 -85.324686 
L 242.644851 -85.324686 
L 241.246672 -85.324686 
L 239.848494 -85.324686 
L 238.450315 -85.324686 
L 237.052137 -85.324686 
L 235.653958 -85.324686 
L 234.25578 -85.324686 
L 232.857601 -85.324686 
L 231.459423 -85.324686 
L 230.061244 -85.324686 
L 228.663066 -85.324686 
L 227.264887 -85.324686 
L 225.866709 -85.324686 
L 224.46853 -85.324686 
L 223.070351 -85.324686 
L 221.672173 -85.324686 
L 220.273994 -85.324686 
L 218.875816 -85.324686 
L 217.477637 -85.324686 
L 216.079459 -85.324686 
L 214.68128 -85.324686 
L 213.283102 -85.324686 
L 211.884923 -85.324686 
L 210.486745 -85.324686 
L 209.088566 -85.324686 
L 207.690387 -85.324686 
L 206.292209 -85.324686 
L 204.89403 -85.324686 
L 203.495852 -85.324686 
L 202.097673 -85.324686 
L 200.699495 -85.324686 
L 199.301316 -85.324686 
L 197.903138 -85.324686 
L 196.504959 -85.324686 
L 195.106781 -85.324686 
L 193.708602 -85.324686 
L 192.310423 -85.324686 
L 190.912245 -85.324686 
L 189.514066 -85.324686 
L 188.115888 -85.324686 
L 186.717709 -85.324686 
L 185.319531 -85.324686 
L 183.921352 -85.324686 
L 182.523174 -85.324686 
L 181.124995 -85.324686 
L 179.726817 -85.324686 
L 178.328638 -85.324686 
L 176.930459 -85.324686 
L 175.532281 -85.324686 
L 174.134102 -85.324686 
L 172.735924 -85.324686 
L 171.337745 -85.324686 
L 169.939567 -85.324686 
L 168.541388 -85.324686 
L 167.14321 -85.324686 
L 165.745031 -85.324686 
L 164.346853 -85.324686 
L 162.948674 -85.324686 
L 161.550495 -85.324686 
L 160.152317 -85.324686 
L 158.754138 -85.324686 
L 157.35596 -85.324686 
L 155.957781 -85.324686 
L 154.559603 -85.324686 
L 153.161424 -85.324686 
L 151.763246 -85.324686 
L 150.365067 -85.324686 
L 148.966889 -85.324686 
L 147.56871 -85.324686 
L 146.170532 -85.324686 
L 144.772353 -85.324686 
L 143.374174 -85.324686 
L 141.975996 -85.324686 
L 140.577817 -85.324686 
L 139.179639 -85.324686 
L 137.78146 -85.324686 
L 136.383282 -85.324686 
L 134.985103 -85.324686 
L 133.586925 -85.324686 
L 132.188746 -85.324686 
L 130.790568 -85.324686 
L 129.392389 -85.324686 
L 127.99421 -85.324686 
L 126.596032 -85.324686 
L 125.197853 -85.324686 
L 123.799675 -85.324686 
L 122.401496 -85.324686 
L 121.003318 -85.324686 
L 119.605139 -85.324686 
L 118.206961 -85.324686 
L 116.808782 -85.324686 
L 115.410604 -85.324686 
L 114.012425 -85.324686 
L 112.614246 -85.324686 
L 111.216068 -85.324686 
L 109.817889 -85.324686 
L 108.419711 -85.324686 
L 107.021532 -85.324686 
L 105.623354 -85.324686 
L 104.225175 -85.324686 
L 102.826997 -85.324686 
L 101.428818 -85.324686 
L 100.03064 -85.324686 
L 98.632461 -85.324686 
L 97.234282 -85.324686 
L 95.836104 -85.324686 
L 94.437925 -85.324686 
L 93.039747 -85.324686 
L 91.641568 -85.324686 
L 90.24339 -85.324686 
L 88.845211 -85.324686 
L 87.447033 -85.324686 
L 86.048854 -85.324686 
L 84.650676 -85.324686 
L 83.252497 -85.324686 
L 81.854318 -85.324686 
L 80.45614 -85.324686 
L 79.057961 -85.324686 
L 77.659783 -85.324686 
L 76.261604 -85.324686 
L 74.863426 -85.324686 
L 73.465247 -85.324686 
L 72.067069 -85.324686 
L 70.66889 -85.324686 
L 69.270712 -85.324686 
L 67.872533 -85.324686 
L 66.474355 -85.324686 
L 65.076176 -85.324686 
L 63.677997 -85.324686 
L 62.279819 -85.324686 
L 60.88164 -85.324686 
L 59.483462 -85.324686 
z
" style="stroke: #6cb7ff; stroke-opacity: 0.6; stroke-width: 0.3"/>
    </defs>
    <g clip-path="url(#pe74e37e112)">
     <use xlink:href="#mac8dd4cc9d" x="0" y="864" style="fill: #6cb7ff; fill-opacity: 0.6; stroke: #6cb7ff; stroke-opacity: 0.6; stroke-width: 0.3"/>
    </g>
   </g>
   <g id="line2d_13">
    <path d="M 59.483462 519.770392 
L 60.88164 519.704788 
L 63.677997 519.291127 
L 65.076176 519.005228 
L 67.872533 518.125923 
L 70.66889 516.970697 
L 73.465247 515.556118 
L 76.261604 513.86382 
L 79.057961 511.878802 
L 81.854318 509.582399 
L 86.048854 505.694577 
L 88.845211 502.769836 
L 93.039747 497.994573 
L 98.632461 490.890359 
L 102.826997 485.154043 
L 108.419711 476.994362 
L 111.216068 472.74825 
L 122.401496 455.440678 
L 127.99421 446.643456 
L 136.383282 433.510586 
L 140.577817 426.900876 
L 147.56871 415.798292 
L 155.957781 402.175861 
L 160.152317 395.093127 
L 168.541388 380.160371 
L 176.930459 364.200209 
L 182.523174 353.088433 
L 203.495852 310.585321 
L 210.486745 297.173566 
L 216.079459 287.121603 
L 221.672173 277.807816 
L 225.866709 271.224007 
L 228.663066 267.060917 
L 232.857601 261.077769 
L 238.450315 253.757636 
L 242.644851 248.571634 
L 246.839387 243.621259 
L 267.812065 219.454553 
L 277.599315 207.220164 
L 283.192029 199.909107 
L 294.377457 184.355527 
L 301.36835 174.440349 
L 308.359243 164.633386 
L 315.350135 155.361774 
L 318.146492 151.839841 
L 323.739207 145.137573 
L 329.331921 138.922826 
L 336.322813 132.214911 
L 340.517349 128.583654 
L 341.915528 127.42662 
L 350.304599 121.501289 
L 353.100956 119.822887 
L 360.091849 116.200945 
L 364.286384 114.37782 
L 372.675456 111.281545 
L 385.259062 107.470952 
L 395.046312 104.703095 
L 404.833562 101.560105 
L 407.629919 100.548605 
L 420.213526 96.215821 
L 421.611705 95.679225 
L 428.602597 93.715335 
L 435.59349 92.427902 
L 438.389847 92.19006 
L 441.186204 92.212049 
L 443.982561 92.412701 
L 446.778918 93.030632 
L 448.177097 93.35837 
L 450.973454 94.312831 
L 453.769811 95.544759 
L 457.964347 97.967034 
L 460.760704 99.952937 
L 463.557061 102.264365 
L 466.353418 104.846701 
L 469.149775 107.680705 
L 474.742489 114.130327 
L 477.538846 117.592869 
L 484.529739 126.802709 
L 497.113346 144.321893 
L 505.502417 155.38651 
L 515.289667 167.176036 
L 519.484203 171.950064 
L 526.475095 179.403352 
L 533.465988 186.804228 
L 540.456881 194.561003 
L 546.049595 201.565588 
L 551.642309 209.270159 
L 554.438666 213.422362 
L 558.633202 220.171349 
L 562.827738 227.460076 
L 568.420452 238.11352 
L 572.614987 246.654949 
L 576.809523 255.654955 
L 581.004059 265.026574 
L 586.596773 278.016885 
L 596.384023 301.327343 
L 606.171272 324.38493 
L 613.162165 340.338817 
L 618.754879 352.847547 
L 645.320272 410.253937 
L 660.700236 444.238171 
L 669.089307 462.512323 
L 676.0802 477.168469 
L 680.274735 485.495745 
L 685.867449 495.861372 
L 690.061985 503.066985 
L 694.256521 509.71941 
L 697.052878 513.824861 
L 702.645592 521.019753 
L 705.441949 524.212835 
L 708.238306 527.230834 
L 711.034663 529.873589 
L 715.229199 533.479505 
L 718.025556 535.630439 
L 722.220092 538.398518 
L 726.414627 540.796578 
L 729.210984 542.19479 
L 733.40552 543.912213 
L 737.600056 545.353313 
L 743.19277 547.071449 
L 748.785484 548.422286 
L 757.174555 549.853259 
L 761.369091 550.386608 
L 771.156341 550.985131 
L 773.952698 551.091288 
L 773.952698 551.091288 
" clip-path="url(#pe74e37e112)" style="fill: none; stroke: #7570b3; stroke-width: 2; stroke-linecap: round"/>
   </g>
   <g id="line2d_14">
    <path d="M 59.483462 781.264364 
L 59.483462 519.770392 
" clip-path="url(#pe74e37e112)" style="fill: none; stroke: #7570b3; stroke-width: 2; stroke-linecap: round"/>
   </g>
   <g id="line2d_15">
    <path d="M 773.952698 780.951155 
L 773.952698 551.091288 
" clip-path="url(#pe74e37e112)" style="fill: none; stroke: #7570b3; stroke-width: 2; stroke-linecap: round"/>
   </g>
   <g id="line2d_16">
    <defs>
     <path id="mcff8eb88b8" d="M 0 3.5 
C 0.928211 3.5 1.81853 3.131218 2.474874 2.474874 
C 3.131218 1.81853 3.5 0.928211 3.5 0 
C 3.5 -0.928211 3.131218 -1.81853 2.474874 -2.474874 
C 1.81853 -3.131218 0.928211 -3.5 0 -3.5 
C -0.928211 -3.5 -1.81853 -3.131218 -2.474874 -2.474874 
C -3.131218 -1.81853 -3.5 -0.928211 -3.5 0 
C -3.5 0.928211 -3.131218 1.81853 -2.474874 2.474874 
C -1.81853 3.131218 -0.928211 3.5 0 3.5 
z
"/>
    </defs>
    <g clip-path="url(#pe74e37e112)">
     <use xlink:href="#mcff8eb88b8" x="403.11913" y="778.675314" style="fill: #7570b3"/>
    </g>
   </g>
   <g id="patch_3">
    <path d="M 23.76 815.72 
L 809.676159 815.72 
" style="fill: none; stroke: #333333; stroke-width: 1.5; stroke-linejoin: miter; stroke-linecap: square"/>
   </g>
   <g id="text_7">
    <!-- $x_2^2$ -->
    <g style="fill: #262626" transform="translate(401.17808 49.856)">
     <text>
      <tspan x="0" y="-0.734375" style="font-style: oblique; font-size: 28px; font-family: 'DejaVu Sans'; fill: #262626">x</tspan>
      <tspan x="16.570312" y="6.921875" style="font-size: 19.6px; font-family: 'DejaVu Sans'; fill: #262626">2</tspan>
      <tspan x="17.820833" y="-11.453125" style="font-size: 19.6px; font-family: 'DejaVu Sans'; fill: #262626">2</tspan>
     </text>
    </g>
   </g>
  </g>
 </g>
 <defs>
  <clipPath id="pe74e37e112">
   <rect x="23.76" y="57.696" width="785.916159" height="758.024"/>
  </clipPath>
 </defs>
</svg>
