<?xml version="1.0" encoding="utf-8" standalone="no"?>
<!DOCTYPE svg PUBLIC "-//W3C//DTD SVG 1.1//EN"
  "http://www.w3.org/Graphics/SVG/1.1/DTD/svg11.dtd">
<svg xmlns:xlink="http://www.w3.org/1999/xlink" width="864pt" height="864pt" viewBox="0 0 864 864" xmlns="http://www.w3.org/2000/svg" version="1.1">
 <metadata>
  <rdf:RDF xmlns:dc="http://purl.org/dc/elements/1.1/" xmlns:cc="http://creativecommons.org/ns#" xmlns:rdf="http://www.w3.org/1999/02/22-rdf-syntax-ns#">
   <cc:Work>
    <dc:type rdf:resource="http://purl.org/dc/dcmitype/StillImage"/>
    <dc:date>2026-03-13T22:48:05.735734</dc:date>
    <dc:format>image/svg+xml</dc:format>
    <dc:creator>
     <cc:Agent>
      <dc:title>Matplotlib v3.10.6, https://matplotlib.org/</dc:title>
     </cc:Agent>
    </dc:creator>
   </cc:Work>
  </rdf:RDF>
 </metadata>
 <defs>
  <style type="text/css">*{stroke-linejoin: round; stroke-linecap: butt}</style>
 </defs>
 <g id="figure_1">
  <g id="patch_1">
   <path d="M 0 864 
L 864 864 
L 864 0 
L 0 0 
L 0 864 
z
" style="fill: none; opacity: 0"/>
  </g>
  <g id="axes_1">
   <g id="patch_2">
    <path d="M 23.76 815.72 
L 840.24 815.72 
L 840.24 50.88 
L 23.76 50.88 
L 23.76 815.72 
z
" style="fill: none"/>
   </g>
   <g id="matplotlib.axis_1">
    <g id="xtick_1">
     <g id="line2d_1">
      <path d="M 116.479975 815.72 
L 116.479975 50.88 
" clip-path="url(#p936cb8df22)" style="fill: none; stroke: #ffffff; stroke-opacity: 0.4; stroke-linecap: round"/>
     </g>
     <g id="line2d_2"/>
     <g id="text_1">
      <text style="font-size: 18px; font-family: 'DejaVu Serif', 'Times New Roman', serif; text-anchor: middle; fill: #262626" x="116.479975" y="836.397187" transform="rotate(-0 116.479975 836.397187)">0.935</text>
     </g>
    </g>
    <g id="xtick_2">
     <g id="line2d_3">
      <path d="M 242.943837 815.72 
L 242.943837 50.88 
" clip-path="url(#p936cb8df22)" style="fill: none; stroke: #ffffff; stroke-opacity: 0.4; stroke-linecap: round"/>
     </g>
     <g id="line2d_4"/>
     <g id="text_2">
      <text style="font-size: 18px; font-family: 'DejaVu Serif', 'Times New Roman', serif; text-anchor: middle; fill: #262626" x="242.943837" y="836.397187" transform="rotate(-0 242.943837 836.397187)">0.940</text>
     </g>
    </g>
    <g id="xtick_3">
     <g id="line2d_5">
      <path d="M 369.407699 815.72 
L 369.407699 50.88 
" clip-path="url(#p936cb8df22)" style="fill: none; stroke: #ffffff; stroke-opacity: 0.4; stroke-linecap: round"/>
     </g>
     <g id="line2d_6"/>
     <g id="text_3">
      <text style="font-size: 18px; font-family: 'DejaVu Serif', 'Times New Roman', serif; text-anchor: middle; fill: #262626" x="369.407699" y="836.397187" transform="rotate(-0 369.407699 836.397187)">0.945</text>
     </g>
    </g>
    <g id="xtick_4">
     <g id="line2d_7">
      <path d="M 495.871561 815.72 
L 495.871561 50.88 
" clip-path="url(#p936cb8df22)" style="fill: none; stroke: #ffffff; stroke-opacity: 0.4; stroke-linecap: round"/>
     </g>
     <g id="line2d_8"/>
     <g id="text_4">
      <text style="font-size: 18px; font-family: 'DejaVu Serif', 'Times New Roman', serif; text-anchor: middle; fill: #262626" x="495.871561" y="836.397187" transform="rotate(-0 495.871561 836.397187)">0.950</text>
     </g>
    </g>
    <g id="xtick_5">
     <g id="line2d_9">
      <path d="M 622.335423 815.72 
L 622.335423 50.88 
" clip-path="url(#p936cb8df22)" style="fill: none; stroke: #ffffff; stroke-opacity: 0.4; stroke-linecap: round"/>
     </g>
     <g id="line2d_10"/>
     <g id="text_5">
      <text style="font-size: 18px; font-family: 'DejaVu Serif', 'Times New Roman', serif; text-anchor: middle; fill: #262626" x="622.335423" y="836.397187" transform="rotate(-0 622.335423 836.397187)">0.955</text>
     </g>
    </g>
    <g id="xtick_6">
     <g id="line2d_11">
      <path d="M 748.799285 815.72 
L 748.799285 50.88 
" clip-path="url(#p936cb8df22)" style="fill: none; stroke: #ffffff; stroke-opacity: 0.4; stroke-linecap: round"/>
     </g>
     <g id="line2d_12"/>
     <g id="text_6">
      <text style="font-size: 18px; font-family: 'DejaVu Serif', 'Times New Roman', serif; text-anchor: middle; fill: #262626" x="748.799285" y="836.397187" transform="rotate(-0 748.799285 836.397187)">0.960</text>
     </g>
    </g>
   </g>
   <g id="matplotlib.axis_2"/>
   <g id="FillBetweenPolyCollection_1">
    <defs>
     <path id="m15c20c2801" d="M 60.872727 -85.478945 
L 60.872727 -328.828001 
L 62.32528 -328.805341 
L 63.777833 -329.023149 
L 65.230386 -329.352378 
L 66.682939 -329.839043 
L 68.135492 -330.389084 
L 69.588045 -331.014266 
L 71.040598 -331.748888 
L 72.493151 -332.651892 
L 73.945704 -333.66045 
L 75.398257 -334.789535 
L 76.850809 -336.107174 
L 78.303362 -337.461112 
L 79.755915 -338.939755 
L 81.208468 -340.521514 
L 82.661021 -342.207982 
L 84.113574 -344.002211 
L 85.566127 -345.821082 
L 87.01868 -347.729709 
L 88.471233 -349.797816 
L 89.923786 -351.935977 
L 91.376339 -354.141629 
L 92.828892 -356.382137 
L 94.281445 -358.723051 
L 95.733998 -361.115908 
L 97.18655 -363.616125 
L 98.639103 -366.201503 
L 100.091656 -368.78901 
L 101.544209 -371.429321 
L 102.996762 -374.14387 
L 104.449315 -376.856112 
L 105.901868 -379.639334 
L 107.354421 -382.480127 
L 108.806974 -385.290499 
L 110.259527 -388.169871 
L 111.71208 -391.071091 
L 113.164633 -393.940187 
L 114.617186 -396.908671 
L 116.069738 -399.898319 
L 117.522291 -402.825887 
L 118.974844 -405.786481 
L 120.427397 -408.728008 
L 121.87995 -411.636043 
L 123.332503 -414.611302 
L 124.785056 -417.490461 
L 126.237609 -420.352146 
L 127.690162 -423.2964 
L 129.142715 -426.161706 
L 130.595268 -428.977828 
L 132.047821 -431.81262 
L 133.500374 -434.723026 
L 134.952927 -437.516125 
L 136.405479 -440.259459 
L 137.858032 -442.981627 
L 139.310585 -445.630716 
L 140.763138 -448.297403 
L 142.215691 -450.957328 
L 143.668244 -453.595686 
L 145.120797 -456.258041 
L 146.57335 -458.807464 
L 148.025903 -461.387245 
L 149.478456 -463.895512 
L 150.931009 -466.35805 
L 152.383562 -468.784577 
L 153.836115 -471.198626 
L 155.288667 -473.585225 
L 156.74122 -475.957643 
L 158.193773 -478.299069 
L 159.646326 -480.700023 
L 161.098879 -483.01191 
L 162.551432 -485.306883 
L 164.003985 -487.576323 
L 165.456538 -489.874769 
L 166.909091 -492.146266 
L 168.361644 -494.383563 
L 169.814197 -496.685385 
L 171.26675 -498.913822 
L 172.719303 -501.168164 
L 174.171856 -503.385419 
L 175.624408 -505.609995 
L 177.076961 -507.860314 
L 178.529514 -510.07482 
L 179.982067 -512.315762 
L 181.43462 -514.555786 
L 182.887173 -516.830102 
L 184.339726 -519.096063 
L 185.792279 -521.370765 
L 187.244832 -523.66429 
L 188.697385 -525.934629 
L 190.149938 -528.251358 
L 191.602491 -530.563208 
L 193.055044 -532.859485 
L 194.507597 -535.219356 
L 195.960149 -537.565211 
L 197.412702 -539.930047 
L 198.865255 -542.327143 
L 200.317808 -544.783736 
L 201.770361 -547.212215 
L 203.222914 -549.654507 
L 204.675467 -552.092353 
L 206.12802 -554.514051 
L 207.580573 -556.988731 
L 209.033126 -559.421734 
L 210.485679 -561.898854 
L 211.938232 -564.389311 
L 213.390785 -566.917053 
L 214.843337 -569.36122 
L 216.29589 -571.843619 
L 217.748443 -574.336543 
L 219.200996 -576.822424 
L 220.653549 -579.288306 
L 222.106102 -581.817135 
L 223.558655 -584.363007 
L 225.011208 -586.841984 
L 226.463761 -589.359006 
L 227.916314 -591.844698 
L 229.368867 -594.331409 
L 230.82142 -596.809618 
L 232.273973 -599.267707 
L 233.726526 -601.713089 
L 235.179078 -604.198386 
L 236.631631 -606.588803 
L 238.084184 -608.991407 
L 239.536737 -611.385578 
L 240.98929 -613.756181 
L 242.441843 -616.178968 
L 243.894396 -618.559564 
L 245.346949 -620.835239 
L 246.799502 -623.235602 
L 248.252055 -625.502219 
L 249.704608 -627.764835 
L 251.157161 -630.044542 
L 252.609714 -632.311505 
L 254.062267 -634.499964 
L 255.514819 -636.738559 
L 256.967372 -638.866764 
L 258.419925 -641.013701 
L 259.872478 -643.185294 
L 261.325031 -645.305296 
L 262.777584 -647.349249 
L 264.230137 -649.390373 
L 265.68269 -651.470877 
L 267.135243 -653.45474 
L 268.587796 -655.435147 
L 270.040349 -657.419474 
L 271.492902 -659.37882 
L 272.945455 -661.311908 
L 274.398007 -663.261539 
L 275.85056 -665.218408 
L 277.303113 -667.141154 
L 278.755666 -669.023266 
L 280.208219 -670.907852 
L 281.660772 -672.764894 
L 283.113325 -674.627435 
L 284.565878 -676.497929 
L 286.018431 -678.332837 
L 287.470984 -680.138738 
L 288.923537 -681.966545 
L 290.37609 -683.779288 
L 291.828643 -685.582346 
L 293.281196 -687.41711 
L 294.733748 -689.267958 
L 296.186301 -691.144945 
L 297.638854 -692.988759 
L 299.091407 -694.827755 
L 300.54396 -696.690079 
L 301.996513 -698.54289 
L 303.449066 -700.374269 
L 304.901619 -702.281801 
L 306.354172 -704.123049 
L 307.806725 -705.977652 
L 309.259278 -707.850721 
L 310.711831 -709.795171 
L 312.164384 -711.748177 
L 313.616936 -713.706786 
L 315.069489 -715.691182 
L 316.522042 -717.63439 
L 317.974595 -719.637572 
L 319.427148 -721.564222 
L 320.879701 -723.511416 
L 322.332254 -725.514533 
L 323.784807 -727.463251 
L 325.23736 -729.459393 
L 326.689913 -731.502061 
L 328.142466 -733.451504 
L 329.595019 -735.466852 
L 331.047572 -737.422542 
L 332.500125 -739.382413 
L 333.952677 -741.321552 
L 335.40523 -743.243494 
L 336.857783 -745.154801 
L 338.310336 -747.000902 
L 339.762889 -748.87857 
L 341.215442 -750.694454 
L 342.667995 -752.447719 
L 344.120548 -754.311983 
L 345.573101 -755.999341 
L 347.025654 -757.699515 
L 348.478207 -759.338853 
L 349.93076 -760.890908 
L 351.383313 -762.455886 
L 352.835866 -764.030862 
L 354.288418 -765.422086 
L 355.740971 -766.777144 
L 357.193524 -768.079924 
L 358.646077 -769.252002 
L 360.09863 -770.344043 
L 361.551183 -771.344105 
L 363.003736 -772.365727 
L 364.456289 -773.288606 
L 365.908842 -774.143452 
L 367.361395 -774.912558 
L 368.813948 -775.619949 
L 370.266501 -776.199877 
L 371.719054 -776.679315 
L 373.171606 -777.141114 
L 374.624159 -777.464148 
L 376.076712 -777.79528 
L 377.529265 -778.007554 
L 378.981818 -778.232137 
L 380.434371 -778.354545 
L 381.886924 -778.348976 
L 383.339477 -778.287463 
L 384.79203 -778.173371 
L 386.244583 -777.875454 
L 387.697136 -777.608133 
L 389.149689 -777.339016 
L 390.602242 -777.004742 
L 392.054795 -776.603037 
L 393.507347 -776.183556 
L 394.9599 -775.750129 
L 396.412453 -775.208086 
L 397.865006 -774.727531 
L 399.317559 -774.164563 
L 400.770112 -773.600901 
L 402.222665 -773.024356 
L 403.675218 -772.396613 
L 405.127771 -771.847704 
L 406.580324 -771.222662 
L 408.032877 -770.612477 
L 409.48543 -770.086262 
L 410.937983 -769.52946 
L 412.390535 -768.982382 
L 413.843088 -768.484406 
L 415.295641 -768.012789 
L 416.748194 -767.562553 
L 418.200747 -767.135188 
L 419.6533 -766.717363 
L 421.105853 -766.366811 
L 422.558406 -766.071164 
L 424.010959 -765.822691 
L 425.463512 -765.548515 
L 426.916065 -765.299364 
L 428.368618 -765.168403 
L 429.821171 -765.071386 
L 431.273724 -765.004385 
L 432.726276 -765.032064 
L 434.178829 -765.019605 
L 435.631382 -765.044464 
L 437.083935 -765.133275 
L 438.536488 -765.239944 
L 439.989041 -765.351375 
L 441.441594 -765.518714 
L 442.894147 -765.708233 
L 444.3467 -765.928528 
L 445.799253 -766.106859 
L 447.251806 -766.345521 
L 448.704359 -766.542729 
L 450.156912 -766.682081 
L 451.609465 -766.866979 
L 453.062017 -767.012245 
L 454.51457 -767.182748 
L 455.967123 -767.269607 
L 457.419676 -767.369406 
L 458.872229 -767.417253 
L 460.324782 -767.387992 
L 461.777335 -767.350713 
L 463.229888 -767.277901 
L 464.682441 -767.13393 
L 466.134994 -766.966627 
L 467.587547 -766.725682 
L 469.0401 -766.400777 
L 470.492653 -765.987479 
L 471.945205 -765.605279 
L 473.397758 -764.972487 
L 474.850311 -764.394882 
L 476.302864 -763.730721 
L 477.755417 -762.968786 
L 479.20797 -762.104392 
L 480.660523 -761.195677 
L 482.113076 -760.167725 
L 483.565629 -759.113471 
L 485.018182 -758.039815 
L 486.470735 -756.824102 
L 487.923288 -755.560051 
L 489.375841 -754.194862 
L 490.828394 -752.74002 
L 492.280946 -751.191122 
L 493.733499 -749.608562 
L 495.186052 -747.968389 
L 496.638605 -746.276203 
L 498.091158 -744.524077 
L 499.543711 -742.783922 
L 500.996264 -740.897399 
L 502.448817 -738.937182 
L 503.90137 -736.955363 
L 505.353923 -734.981439 
L 506.806476 -732.995523 
L 508.259029 -730.997618 
L 509.711582 -728.955958 
L 511.164134 -726.893666 
L 512.616687 -724.910786 
L 514.06924 -722.836315 
L 515.521793 -720.797752 
L 516.974346 -718.719897 
L 518.426899 -716.623037 
L 519.879452 -714.442954 
L 521.332005 -712.317042 
L 522.784558 -710.27414 
L 524.237111 -708.188639 
L 525.689664 -706.108836 
L 527.142217 -704.02899 
L 528.59477 -701.948777 
L 530.047323 -699.8956 
L 531.499875 -697.80483 
L 532.952428 -695.841602 
L 534.404981 -693.876309 
L 535.857534 -691.851228 
L 537.310087 -689.853618 
L 538.76264 -687.902726 
L 540.215193 -685.935737 
L 541.667746 -683.943552 
L 543.120299 -681.991442 
L 544.572852 -680.028089 
L 546.025405 -678.092782 
L 547.477958 -676.179923 
L 548.930511 -674.199659 
L 550.383064 -672.269054 
L 551.835616 -670.240636 
L 553.288169 -668.242092 
L 554.740722 -666.261323 
L 556.193275 -664.235624 
L 557.645828 -662.255 
L 559.098381 -660.232266 
L 560.550934 -658.185214 
L 562.003487 -656.127381 
L 563.45604 -654.033706 
L 564.908593 -651.98002 
L 566.361146 -649.846951 
L 567.813699 -647.685612 
L 569.266252 -645.52907 
L 570.718804 -643.268951 
L 572.171357 -641.069651 
L 573.62391 -638.862955 
L 575.076463 -636.661261 
L 576.529016 -634.378063 
L 577.981569 -632.055319 
L 579.434122 -629.663071 
L 580.886675 -627.311665 
L 582.339228 -624.946009 
L 583.791781 -622.592522 
L 585.244334 -620.218084 
L 586.696887 -617.775798 
L 588.14944 -615.401006 
L 589.601993 -612.945877 
L 591.054545 -610.472258 
L 592.507098 -607.978738 
L 593.959651 -605.467064 
L 595.412204 -602.883134 
L 596.864757 -600.327808 
L 598.31731 -597.758468 
L 599.769863 -595.175547 
L 601.222416 -592.603384 
L 602.674969 -589.976795 
L 604.127522 -587.336842 
L 605.580075 -584.633648 
L 607.032628 -581.97289 
L 608.485181 -579.369548 
L 609.937733 -576.713555 
L 611.390286 -574.037256 
L 612.842839 -571.423896 
L 614.295392 -568.790825 
L 615.747945 -566.045163 
L 617.200498 -563.320668 
L 618.653051 -560.593655 
L 620.105604 -557.876709 
L 621.558157 -555.101373 
L 623.01071 -552.358542 
L 624.463263 -549.586625 
L 625.915816 -546.852979 
L 627.368369 -544.126791 
L 628.820922 -541.340305 
L 630.273474 -538.602119 
L 631.726027 -535.822836 
L 633.17858 -533.055643 
L 634.631133 -530.256746 
L 636.083686 -527.362361 
L 637.536239 -524.578605 
L 638.988792 -521.775664 
L 640.441345 -518.919768 
L 641.893898 -516.114698 
L 643.346451 -513.268835 
L 644.799004 -510.447917 
L 646.251557 -507.693065 
L 647.70411 -504.840589 
L 649.156663 -502.011406 
L 650.609215 -499.164556 
L 652.061768 -496.359748 
L 653.514321 -493.560948 
L 654.966874 -490.791608 
L 656.419427 -488.015348 
L 657.87198 -485.270976 
L 659.324533 -482.490656 
L 660.777086 -479.814185 
L 662.229639 -477.16298 
L 663.682192 -474.428726 
L 665.134745 -471.761042 
L 666.587298 -469.116603 
L 668.039851 -466.519014 
L 669.492403 -463.916116 
L 670.944956 -461.337667 
L 672.397509 -458.798985 
L 673.850062 -456.281482 
L 675.302615 -453.763763 
L 676.755168 -451.286705 
L 678.207721 -448.823251 
L 679.660274 -446.397115 
L 681.112827 -443.950216 
L 682.56538 -441.635859 
L 684.017933 -439.259491 
L 685.470486 -436.9554 
L 686.923039 -434.651147 
L 688.375592 -432.341408 
L 689.828144 -430.063468 
L 691.280697 -427.820142 
L 692.73325 -425.542626 
L 694.185803 -423.309649 
L 695.638356 -421.104057 
L 697.090909 -418.912546 
L 698.543462 -416.724976 
L 699.996015 -414.607094 
L 701.448568 -412.466511 
L 702.901121 -410.328406 
L 704.353674 -408.187587 
L 705.806227 -406.044066 
L 707.25878 -403.922758 
L 708.711333 -401.789864 
L 710.163885 -399.696482 
L 711.616438 -397.524167 
L 713.068991 -395.434634 
L 714.521544 -393.315438 
L 715.974097 -391.247835 
L 717.42665 -389.16398 
L 718.879203 -387.114987 
L 720.331756 -385.032422 
L 721.784309 -382.967633 
L 723.236862 -380.908522 
L 724.689415 -378.797974 
L 726.141968 -376.686143 
L 727.594521 -374.649283 
L 729.047073 -372.653642 
L 730.499626 -370.620896 
L 731.952179 -368.551434 
L 733.404732 -366.50041 
L 734.857285 -364.467916 
L 736.309838 -362.454242 
L 737.762391 -360.472074 
L 739.214944 -358.407351 
L 740.667497 -356.413683 
L 742.12005 -354.474285 
L 743.572603 -352.529836 
L 745.025156 -350.647732 
L 746.477709 -348.830017 
L 747.930262 -346.99211 
L 749.382814 -345.122129 
L 750.835367 -343.368396 
L 752.28792 -341.645954 
L 753.740473 -339.948994 
L 755.193026 -338.276313 
L 756.645579 -336.648806 
L 758.098132 -335.070387 
L 759.550685 -333.47166 
L 761.003238 -331.931662 
L 762.455791 -330.450362 
L 763.908344 -329.021995 
L 765.360897 -327.60997 
L 766.81345 -326.25373 
L 768.266002 -324.92469 
L 769.718555 -323.719339 
L 771.171108 -322.533106 
L 772.623661 -321.397522 
L 774.076214 -320.303092 
L 775.528767 -319.29645 
L 776.98132 -318.309292 
L 778.433873 -317.396654 
L 779.886426 -316.479851 
L 781.338979 -315.662769 
L 782.791532 -314.895741 
L 784.244085 -314.169962 
L 785.696638 -313.494513 
L 787.149191 -312.869382 
L 788.601743 -312.292386 
L 790.054296 -311.773503 
L 791.506849 -311.262723 
L 792.959402 -310.835421 
L 794.411955 -310.465359 
L 795.864508 -310.14554 
L 797.317061 -309.910973 
L 798.769614 -309.716901 
L 800.222167 -309.532801 
L 801.67472 -309.377576 
L 803.127273 -309.306535 
L 803.127273 -85.478945 
L 803.127273 -85.478945 
L 801.67472 -85.478945 
L 800.222167 -85.478945 
L 798.769614 -85.478945 
L 797.317061 -85.478945 
L 795.864508 -85.478945 
L 794.411955 -85.478945 
L 792.959402 -85.478945 
L 791.506849 -85.478945 
L 790.054296 -85.478945 
L 788.601743 -85.478945 
L 787.149191 -85.478945 
L 785.696638 -85.478945 
L 784.244085 -85.478945 
L 782.791532 -85.478945 
L 781.338979 -85.478945 
L 779.886426 -85.478945 
L 778.433873 -85.478945 
L 776.98132 -85.478945 
L 775.528767 -85.478945 
L 774.076214 -85.478945 
L 772.623661 -85.478945 
L 771.171108 -85.478945 
L 769.718555 -85.478945 
L 768.266002 -85.478945 
L 766.81345 -85.478945 
L 765.360897 -85.478945 
L 763.908344 -85.478945 
L 762.455791 -85.478945 
L 761.003238 -85.478945 
L 759.550685 -85.478945 
L 758.098132 -85.478945 
L 756.645579 -85.478945 
L 755.193026 -85.478945 
L 753.740473 -85.478945 
L 752.28792 -85.478945 
L 750.835367 -85.478945 
L 749.382814 -85.478945 
L 747.930262 -85.478945 
L 746.477709 -85.478945 
L 745.025156 -85.478945 
L 743.572603 -85.478945 
L 742.12005 -85.478945 
L 740.667497 -85.478945 
L 739.214944 -85.478945 
L 737.762391 -85.478945 
L 736.309838 -85.478945 
L 734.857285 -85.478945 
L 733.404732 -85.478945 
L 731.952179 -85.478945 
L 730.499626 -85.478945 
L 729.047073 -85.478945 
L 727.594521 -85.478945 
L 726.141968 -85.478945 
L 724.689415 -85.478945 
L 723.236862 -85.478945 
L 721.784309 -85.478945 
L 720.331756 -85.478945 
L 718.879203 -85.478945 
L 717.42665 -85.478945 
L 715.974097 -85.478945 
L 714.521544 -85.478945 
L 713.068991 -85.478945 
L 711.616438 -85.478945 
L 710.163885 -85.478945 
L 708.711333 -85.478945 
L 707.25878 -85.478945 
L 705.806227 -85.478945 
L 704.353674 -85.478945 
L 702.901121 -85.478945 
L 701.448568 -85.478945 
L 699.996015 -85.478945 
L 698.543462 -85.478945 
L 697.090909 -85.478945 
L 695.638356 -85.478945 
L 694.185803 -85.478945 
L 692.73325 -85.478945 
L 691.280697 -85.478945 
L 689.828144 -85.478945 
L 688.375592 -85.478945 
L 686.923039 -85.478945 
L 685.470486 -85.478945 
L 684.017933 -85.478945 
L 682.56538 -85.478945 
L 681.112827 -85.478945 
L 679.660274 -85.478945 
L 678.207721 -85.478945 
L 676.755168 -85.478945 
L 675.302615 -85.478945 
L 673.850062 -85.478945 
L 672.397509 -85.478945 
L 670.944956 -85.478945 
L 669.492403 -85.478945 
L 668.039851 -85.478945 
L 666.587298 -85.478945 
L 665.134745 -85.478945 
L 663.682192 -85.478945 
L 662.229639 -85.478945 
L 660.777086 -85.478945 
L 659.324533 -85.478945 
L 657.87198 -85.478945 
L 656.419427 -85.478945 
L 654.966874 -85.478945 
L 653.514321 -85.478945 
L 652.061768 -85.478945 
L 650.609215 -85.478945 
L 649.156663 -85.478945 
L 647.70411 -85.478945 
L 646.251557 -85.478945 
L 644.799004 -85.478945 
L 643.346451 -85.478945 
L 641.893898 -85.478945 
L 640.441345 -85.478945 
L 638.988792 -85.478945 
L 637.536239 -85.478945 
L 636.083686 -85.478945 
L 634.631133 -85.478945 
L 633.17858 -85.478945 
L 631.726027 -85.478945 
L 630.273474 -85.478945 
L 628.820922 -85.478945 
L 627.368369 -85.478945 
L 625.915816 -85.478945 
L 624.463263 -85.478945 
L 623.01071 -85.478945 
L 621.558157 -85.478945 
L 620.105604 -85.478945 
L 618.653051 -85.478945 
L 617.200498 -85.478945 
L 615.747945 -85.478945 
L 614.295392 -85.478945 
L 612.842839 -85.478945 
L 611.390286 -85.478945 
L 609.937733 -85.478945 
L 608.485181 -85.478945 
L 607.032628 -85.478945 
L 605.580075 -85.478945 
L 604.127522 -85.478945 
L 602.674969 -85.478945 
L 601.222416 -85.478945 
L 599.769863 -85.478945 
L 598.31731 -85.478945 
L 596.864757 -85.478945 
L 595.412204 -85.478945 
L 593.959651 -85.478945 
L 592.507098 -85.478945 
L 591.054545 -85.478945 
L 589.601993 -85.478945 
L 588.14944 -85.478945 
L 586.696887 -85.478945 
L 585.244334 -85.478945 
L 583.791781 -85.478945 
L 582.339228 -85.478945 
L 580.886675 -85.478945 
L 579.434122 -85.478945 
L 577.981569 -85.478945 
L 576.529016 -85.478945 
L 575.076463 -85.478945 
L 573.62391 -85.478945 
L 572.171357 -85.478945 
L 570.718804 -85.478945 
L 569.266252 -85.478945 
L 567.813699 -85.478945 
L 566.361146 -85.478945 
L 564.908593 -85.478945 
L 563.45604 -85.478945 
L 562.003487 -85.478945 
L 560.550934 -85.478945 
L 559.098381 -85.478945 
L 557.645828 -85.478945 
L 556.193275 -85.478945 
L 554.740722 -85.478945 
L 553.288169 -85.478945 
L 551.835616 -85.478945 
L 550.383064 -85.478945 
L 548.930511 -85.478945 
L 547.477958 -85.478945 
L 546.025405 -85.478945 
L 544.572852 -85.478945 
L 543.120299 -85.478945 
L 541.667746 -85.478945 
L 540.215193 -85.478945 
L 538.76264 -85.478945 
L 537.310087 -85.478945 
L 535.857534 -85.478945 
L 534.404981 -85.478945 
L 532.952428 -85.478945 
L 531.499875 -85.478945 
L 530.047323 -85.478945 
L 528.59477 -85.478945 
L 527.142217 -85.478945 
L 525.689664 -85.478945 
L 524.237111 -85.478945 
L 522.784558 -85.478945 
L 521.332005 -85.478945 
L 519.879452 -85.478945 
L 518.426899 -85.478945 
L 516.974346 -85.478945 
L 515.521793 -85.478945 
L 514.06924 -85.478945 
L 512.616687 -85.478945 
L 511.164134 -85.478945 
L 509.711582 -85.478945 
L 508.259029 -85.478945 
L 506.806476 -85.478945 
L 505.353923 -85.478945 
L 503.90137 -85.478945 
L 502.448817 -85.478945 
L 500.996264 -85.478945 
L 499.543711 -85.478945 
L 498.091158 -85.478945 
L 496.638605 -85.478945 
L 495.186052 -85.478945 
L 493.733499 -85.478945 
L 492.280946 -85.478945 
L 490.828394 -85.478945 
L 489.375841 -85.478945 
L 487.923288 -85.478945 
L 486.470735 -85.478945 
L 485.018182 -85.478945 
L 483.565629 -85.478945 
L 482.113076 -85.478945 
L 480.660523 -85.478945 
L 479.20797 -85.478945 
L 477.755417 -85.478945 
L 476.302864 -85.478945 
L 474.850311 -85.478945 
L 473.397758 -85.478945 
L 471.945205 -85.478945 
L 470.492653 -85.478945 
L 469.0401 -85.478945 
L 467.587547 -85.478945 
L 466.134994 -85.478945 
L 464.682441 -85.478945 
L 463.229888 -85.478945 
L 461.777335 -85.478945 
L 460.324782 -85.478945 
L 458.872229 -85.478945 
L 457.419676 -85.478945 
L 455.967123 -85.478945 
L 454.51457 -85.478945 
L 453.062017 -85.478945 
L 451.609465 -85.478945 
L 450.156912 -85.478945 
L 448.704359 -85.478945 
L 447.251806 -85.478945 
L 445.799253 -85.478945 
L 444.3467 -85.478945 
L 442.894147 -85.478945 
L 441.441594 -85.478945 
L 439.989041 -85.478945 
L 438.536488 -85.478945 
L 437.083935 -85.478945 
L 435.631382 -85.478945 
L 434.178829 -85.478945 
L 432.726276 -85.478945 
L 431.273724 -85.478945 
L 429.821171 -85.478945 
L 428.368618 -85.478945 
L 426.916065 -85.478945 
L 425.463512 -85.478945 
L 424.010959 -85.478945 
L 422.558406 -85.478945 
L 421.105853 -85.478945 
L 419.6533 -85.478945 
L 418.200747 -85.478945 
L 416.748194 -85.478945 
L 415.295641 -85.478945 
L 413.843088 -85.478945 
L 412.390535 -85.478945 
L 410.937983 -85.478945 
L 409.48543 -85.478945 
L 408.032877 -85.478945 
L 406.580324 -85.478945 
L 405.127771 -85.478945 
L 403.675218 -85.478945 
L 402.222665 -85.478945 
L 400.770112 -85.478945 
L 399.317559 -85.478945 
L 397.865006 -85.478945 
L 396.412453 -85.478945 
L 394.9599 -85.478945 
L 393.507347 -85.478945 
L 392.054795 -85.478945 
L 390.602242 -85.478945 
L 389.149689 -85.478945 
L 387.697136 -85.478945 
L 386.244583 -85.478945 
L 384.79203 -85.478945 
L 383.339477 -85.478945 
L 381.886924 -85.478945 
L 380.434371 -85.478945 
L 378.981818 -85.478945 
L 377.529265 -85.478945 
L 376.076712 -85.478945 
L 374.624159 -85.478945 
L 373.171606 -85.478945 
L 371.719054 -85.478945 
L 370.266501 -85.478945 
L 368.813948 -85.478945 
L 367.361395 -85.478945 
L 365.908842 -85.478945 
L 364.456289 -85.478945 
L 363.003736 -85.478945 
L 361.551183 -85.478945 
L 360.09863 -85.478945 
L 358.646077 -85.478945 
L 357.193524 -85.478945 
L 355.740971 -85.478945 
L 354.288418 -85.478945 
L 352.835866 -85.478945 
L 351.383313 -85.478945 
L 349.93076 -85.478945 
L 348.478207 -85.478945 
L 347.025654 -85.478945 
L 345.573101 -85.478945 
L 344.120548 -85.478945 
L 342.667995 -85.478945 
L 341.215442 -85.478945 
L 339.762889 -85.478945 
L 338.310336 -85.478945 
L 336.857783 -85.478945 
L 335.40523 -85.478945 
L 333.952677 -85.478945 
L 332.500125 -85.478945 
L 331.047572 -85.478945 
L 329.595019 -85.478945 
L 328.142466 -85.478945 
L 326.689913 -85.478945 
L 325.23736 -85.478945 
L 323.784807 -85.478945 
L 322.332254 -85.478945 
L 320.879701 -85.478945 
L 319.427148 -85.478945 
L 317.974595 -85.478945 
L 316.522042 -85.478945 
L 315.069489 -85.478945 
L 313.616936 -85.478945 
L 312.164384 -85.478945 
L 310.711831 -85.478945 
L 309.259278 -85.478945 
L 307.806725 -85.478945 
L 306.354172 -85.478945 
L 304.901619 -85.478945 
L 303.449066 -85.478945 
L 301.996513 -85.478945 
L 300.54396 -85.478945 
L 299.091407 -85.478945 
L 297.638854 -85.478945 
L 296.186301 -85.478945 
L 294.733748 -85.478945 
L 293.281196 -85.478945 
L 291.828643 -85.478945 
L 290.37609 -85.478945 
L 288.923537 -85.478945 
L 287.470984 -85.478945 
L 286.018431 -85.478945 
L 284.565878 -85.478945 
L 283.113325 -85.478945 
L 281.660772 -85.478945 
L 280.208219 -85.478945 
L 278.755666 -85.478945 
L 277.303113 -85.478945 
L 275.85056 -85.478945 
L 274.398007 -85.478945 
L 272.945455 -85.478945 
L 271.492902 -85.478945 
L 270.040349 -85.478945 
L 268.587796 -85.478945 
L 267.135243 -85.478945 
L 265.68269 -85.478945 
L 264.230137 -85.478945 
L 262.777584 -85.478945 
L 261.325031 -85.478945 
L 259.872478 -85.478945 
L 258.419925 -85.478945 
L 256.967372 -85.478945 
L 255.514819 -85.478945 
L 254.062267 -85.478945 
L 252.609714 -85.478945 
L 251.157161 -85.478945 
L 249.704608 -85.478945 
L 248.252055 -85.478945 
L 246.799502 -85.478945 
L 245.346949 -85.478945 
L 243.894396 -85.478945 
L 242.441843 -85.478945 
L 240.98929 -85.478945 
L 239.536737 -85.478945 
L 238.084184 -85.478945 
L 236.631631 -85.478945 
L 235.179078 -85.478945 
L 233.726526 -85.478945 
L 232.273973 -85.478945 
L 230.82142 -85.478945 
L 229.368867 -85.478945 
L 227.916314 -85.478945 
L 226.463761 -85.478945 
L 225.011208 -85.478945 
L 223.558655 -85.478945 
L 222.106102 -85.478945 
L 220.653549 -85.478945 
L 219.200996 -85.478945 
L 217.748443 -85.478945 
L 216.29589 -85.478945 
L 214.843337 -85.478945 
L 213.390785 -85.478945 
L 211.938232 -85.478945 
L 210.485679 -85.478945 
L 209.033126 -85.478945 
L 207.580573 -85.478945 
L 206.12802 -85.478945 
L 204.675467 -85.478945 
L 203.222914 -85.478945 
L 201.770361 -85.478945 
L 200.317808 -85.478945 
L 198.865255 -85.478945 
L 197.412702 -85.478945 
L 195.960149 -85.478945 
L 194.507597 -85.478945 
L 193.055044 -85.478945 
L 191.602491 -85.478945 
L 190.149938 -85.478945 
L 188.697385 -85.478945 
L 187.244832 -85.478945 
L 185.792279 -85.478945 
L 184.339726 -85.478945 
L 182.887173 -85.478945 
L 181.43462 -85.478945 
L 179.982067 -85.478945 
L 178.529514 -85.478945 
L 177.076961 -85.478945 
L 175.624408 -85.478945 
L 174.171856 -85.478945 
L 172.719303 -85.478945 
L 171.26675 -85.478945 
L 169.814197 -85.478945 
L 168.361644 -85.478945 
L 166.909091 -85.478945 
L 165.456538 -85.478945 
L 164.003985 -85.478945 
L 162.551432 -85.478945 
L 161.098879 -85.478945 
L 159.646326 -85.478945 
L 158.193773 -85.478945 
L 156.74122 -85.478945 
L 155.288667 -85.478945 
L 153.836115 -85.478945 
L 152.383562 -85.478945 
L 150.931009 -85.478945 
L 149.478456 -85.478945 
L 148.025903 -85.478945 
L 146.57335 -85.478945 
L 145.120797 -85.478945 
L 143.668244 -85.478945 
L 142.215691 -85.478945 
L 140.763138 -85.478945 
L 139.310585 -85.478945 
L 137.858032 -85.478945 
L 136.405479 -85.478945 
L 134.952927 -85.478945 
L 133.500374 -85.478945 
L 132.047821 -85.478945 
L 130.595268 -85.478945 
L 129.142715 -85.478945 
L 127.690162 -85.478945 
L 126.237609 -85.478945 
L 124.785056 -85.478945 
L 123.332503 -85.478945 
L 121.87995 -85.478945 
L 120.427397 -85.478945 
L 118.974844 -85.478945 
L 117.522291 -85.478945 
L 116.069738 -85.478945 
L 114.617186 -85.478945 
L 113.164633 -85.478945 
L 111.71208 -85.478945 
L 110.259527 -85.478945 
L 108.806974 -85.478945 
L 107.354421 -85.478945 
L 105.901868 -85.478945 
L 104.449315 -85.478945 
L 102.996762 -85.478945 
L 101.544209 -85.478945 
L 100.091656 -85.478945 
L 98.639103 -85.478945 
L 97.18655 -85.478945 
L 95.733998 -85.478945 
L 94.281445 -85.478945 
L 92.828892 -85.478945 
L 91.376339 -85.478945 
L 89.923786 -85.478945 
L 88.471233 -85.478945 
L 87.01868 -85.478945 
L 85.566127 -85.478945 
L 84.113574 -85.478945 
L 82.661021 -85.478945 
L 81.208468 -85.478945 
L 79.755915 -85.478945 
L 78.303362 -85.478945 
L 76.850809 -85.478945 
L 75.398257 -85.478945 
L 73.945704 -85.478945 
L 72.493151 -85.478945 
L 71.040598 -85.478945 
L 69.588045 -85.478945 
L 68.135492 -85.478945 
L 66.682939 -85.478945 
L 65.230386 -85.478945 
L 63.777833 -85.478945 
L 62.32528 -85.478945 
L 60.872727 -85.478945 
z
" style="stroke: #6cb7ff; stroke-opacity: 0.6; stroke-width: 0.3"/>
    </defs>
    <g clip-path="url(#p936cb8df22)">
     <use xlink:href="#m15c20c2801" x="0" y="864" style="fill: #6cb7ff; fill-opacity: 0.6; stroke: #6cb7ff; stroke-opacity: 0.6; stroke-width: 0.3"/>
    </g>
   </g>
   <g id="line2d_13">
    <path d="M 60.872727 535.171999 
L 62.32528 535.194659 
L 65.230386 534.647622 
L 68.135492 533.610916 
L 71.040598 532.251112 
L 73.945704 530.33955 
L 75.398257 529.210465 
L 78.303362 526.538888 
L 81.208468 523.478486 
L 84.113574 519.997789 
L 87.01868 516.270291 
L 89.923786 512.064023 
L 94.281445 505.276949 
L 97.18655 500.383875 
L 102.996762 489.85613 
L 107.354421 481.519873 
L 113.164633 470.059813 
L 124.785056 446.509539 
L 136.405479 423.740541 
L 142.215691 413.042672 
L 148.025903 402.612755 
L 153.836115 392.801374 
L 162.551432 378.693117 
L 178.529514 353.92518 
L 188.697385 338.065371 
L 198.865255 321.672857 
L 222.106102 282.182865 
L 229.368867 269.668591 
L 238.084184 255.008593 
L 246.799502 240.764398 
L 255.514819 227.261441 
L 265.68269 212.529123 
L 275.85056 198.781592 
L 281.660772 191.235106 
L 290.37609 180.220712 
L 296.186301 172.855055 
L 309.259278 156.149279 
L 323.784807 136.536749 
L 333.952677 122.678448 
L 339.762889 115.12143 
L 345.573101 108.000659 
L 348.478207 104.661147 
L 354.288418 98.577914 
L 357.193524 95.920076 
L 360.09863 93.655957 
L 364.456289 90.711394 
L 367.361395 89.087442 
L 368.813948 88.380051 
L 371.719054 87.320685 
L 373.171606 86.858886 
L 377.529265 85.992446 
L 380.434371 85.645455 
L 383.339477 85.712537 
L 384.79203 85.826629 
L 392.054795 87.396963 
L 394.9599 88.249871 
L 405.127771 92.152296 
L 409.48543 93.913738 
L 413.843088 95.515594 
L 418.200747 96.864812 
L 421.105853 97.633189 
L 425.463512 98.451485 
L 426.916065 98.700636 
L 431.273724 98.995615 
L 438.536488 98.760056 
L 441.441594 98.481286 
L 454.51457 96.817252 
L 458.872229 96.582747 
L 463.229888 96.722099 
L 466.134994 97.033373 
L 469.0401 97.599223 
L 471.945205 98.394721 
L 477.755417 101.031214 
L 480.660523 102.804323 
L 485.018182 105.960185 
L 487.923288 108.439949 
L 490.828394 111.25998 
L 495.186052 116.031611 
L 499.543711 121.216078 
L 503.90137 127.044637 
L 509.711582 135.044042 
L 527.142217 159.97101 
L 532.952428 168.158398 
L 557.645828 201.745 
L 564.908593 212.01998 
L 570.718804 220.731049 
L 576.529016 229.621937 
L 583.791781 241.407478 
L 589.601993 251.054123 
L 595.412204 261.116866 
L 604.127522 276.663158 
L 611.390286 289.962744 
L 615.747945 297.954837 
L 630.273474 325.397881 
L 640.441345 345.080232 
L 660.777086 384.185815 
L 672.397509 405.201015 
L 679.660274 417.602885 
L 684.017933 424.740509 
L 694.185803 440.690351 
L 701.448568 451.533489 
L 715.974097 472.752165 
L 729.047073 491.346358 
L 742.12005 509.525715 
L 745.025156 513.352268 
L 752.28792 522.354046 
L 756.645579 527.351194 
L 762.455791 533.549638 
L 766.81345 537.74627 
L 769.718555 540.280661 
L 774.076214 543.696908 
L 778.433873 546.603346 
L 781.338979 548.337231 
L 784.244085 549.830038 
L 787.149191 551.130618 
L 790.054296 552.226497 
L 792.959402 553.164579 
L 795.864508 553.85446 
L 800.222167 554.467199 
L 803.127273 554.693465 
L 803.127273 554.693465 
" clip-path="url(#p936cb8df22)" style="fill: none; stroke: #7570b3; stroke-width: 2; stroke-linecap: round"/>
   </g>
   <g id="line2d_14">
    <path d="M 60.872727 780.954545 
L 60.872727 535.171999 
" clip-path="url(#p936cb8df22)" style="fill: none; stroke: #7570b3; stroke-width: 2; stroke-linecap: round"/>
   </g>
   <g id="line2d_15">
    <path d="M 803.127273 780.759331 
L 803.127273 554.693465 
" clip-path="url(#p936cb8df22)" style="fill: none; stroke: #7570b3; stroke-width: 2; stroke-linecap: round"/>
   </g>
   <g id="line2d_16">
    <defs>
     <path id="m0f5067f5ad" d="M 0 3.5 
C 0.928211 3.5 1.81853 3.131218 2.474874 2.474874 
C 3.131218 1.81853 3.5 0.928211 3.5 0 
C 3.5 -0.928211 3.131218 -1.81853 2.474874 -2.474874 
C 1.81853 -3.131218 0.928211 -3.5 0 -3.5 
C -0.928211 -3.5 -1.81853 -3.131218 -2.474874 -2.474874 
C -3.131218 -1.81853 -3.5 -0.928211 -3.5 0 
C -3.5 0.928211 -3.131218 1.81853 -2.474874 2.474874 
C -1.81853 3.131218 -0.928211 3.5 0 3.5 
z
"/>
    </defs>
    <g clip-path="url(#p936cb8df22)">
     <use xlink:href="#m0f5067f5ad" x="414.571937" y="778.521055" style="fill: #7570b3"/>
    </g>
   </g>
   <g id="patch_3">
    <path d="M 23.76 815.72 
L 840.24 815.72 
" style="fill: none; stroke: #333333; stroke-width: 1.5; stroke-linejoin: miter; stroke-linecap: square"/>
   </g>
   <g id="text_7">
    <!-- $x_3$ -->
    <g style="fill: #262626" transform="translate(417.02 44.88)">
     <text>
      <tspan x="0" y="-0.6875" style="font-style: oblique; font-size: 28px; font-family: 'DejaVu Sans'; fill: #262626">x</tspan>
      <tspan x="16.570312" y="3.90625" style="font-size: 19.6px; font-family: 'DejaVu Sans'; fill: #262626">3</tspan>
     </text>
    </g>
   </g>
  </g>
 </g>
 <defs>
  <clipPath id="p936cb8df22">
   <rect x="23.76" y="50.88" width="816.48" height="764.84"/>
  </clipPath>
 </defs>
</svg>
