<?xml version="1.0" encoding="utf-8" standalone="no"?>
<!DOCTYPE svg PUBLIC "-//W3C//DTD SVG 1.1//EN"
  "http://www.w3.org/Graphics/SVG/1.1/DTD/svg11.dtd">
<svg xmlns:xlink="http://www.w3.org/1999/xlink" width="864pt" height="864pt" viewBox="0 0 864 864" xmlns="http://www.w3.org/2000/svg" version="1.1">
 <metadata>
  <rdf:RDF xmlns:dc="http://purl.org/dc/elements/1.1/" xmlns:cc="http://creativecommons.org/ns#" xmlns:rdf="http://www.w3.org/1999/02/22-rdf-syntax-ns#">
   <cc:Work>
    <dc:type rdf:resource="http://purl.org/dc/dcmitype/StillImage"/>
    <dc:date>2026-03-13T22:48:05.906936</dc:date>
    <dc:format>image/svg+xml</dc:format>
    <dc:creator>
     <cc:Agent>
      <dc:title>Matplotlib v3.10.6, https://matplotlib.org/</dc:title>
     </cc:Agent>
    </dc:creator>
   </cc:Work>
  </rdf:RDF>
 </metadata>
 <defs>
  <style type="text/css">*{stroke-linejoin: round; stroke-linecap: butt}</style>
 </defs>
 <g id="figure_1">
  <g id="patch_1">
   <path d="M 0 864 
L 864 864 
L 864 0 
L 0 0 
L 0 864 
z
" style="fill: none; opacity: 0"/>
  </g>
  <g id="axes_1">
   <g id="patch_2">
    <path d="M 23.76 815.72 
L 840.24 815.72 
L 840.24 57.98 
L 23.76 57.98 
L 23.76 815.72 
z
" style="fill: none"/>
   </g>
   <g id="matplotlib.axis_1">
    <g id="xtick_1">
     <g id="line2d_1">
      <path d="M 129.605724 815.72 
L 129.605724 57.98 
" clip-path="url(#p5853c04c02)" style="fill: none; stroke: #ffffff; stroke-opacity: 0.4; stroke-linecap: round"/>
     </g>
     <g id="line2d_2"/>
     <g id="text_1">
      <text style="font-size: 18px; font-family: 'DejaVu Serif', 'Times New Roman', serif; text-anchor: middle; fill: #262626" x="129.605724" y="836.397187" transform="rotate(-0 129.605724 836.397187)">−0.336</text>
     </g>
    </g>
    <g id="xtick_2">
     <g id="line2d_3">
      <path d="M 275.373558 815.72 
L 275.373558 57.98 
" clip-path="url(#p5853c04c02)" style="fill: none; stroke: #ffffff; stroke-opacity: 0.4; stroke-linecap: round"/>
     </g>
     <g id="line2d_4"/>
     <g id="text_2">
      <text style="font-size: 18px; font-family: 'DejaVu Serif', 'Times New Roman', serif; text-anchor: middle; fill: #262626" x="275.373558" y="836.397187" transform="rotate(-0 275.373558 836.397187)">−0.334</text>
     </g>
    </g>
    <g id="xtick_3">
     <g id="line2d_5">
      <path d="M 421.141392 815.72 
L 421.141392 57.98 
" clip-path="url(#p5853c04c02)" style="fill: none; stroke: #ffffff; stroke-opacity: 0.4; stroke-linecap: round"/>
     </g>
     <g id="line2d_6"/>
     <g id="text_3">
      <text style="font-size: 18px; font-family: 'DejaVu Serif', 'Times New Roman', serif; text-anchor: middle; fill: #262626" x="421.141392" y="836.397187" transform="rotate(-0 421.141392 836.397187)">−0.332</text>
     </g>
    </g>
    <g id="xtick_4">
     <g id="line2d_7">
      <path d="M 566.909225 815.72 
L 566.909225 57.98 
" clip-path="url(#p5853c04c02)" style="fill: none; stroke: #ffffff; stroke-opacity: 0.4; stroke-linecap: round"/>
     </g>
     <g id="line2d_8"/>
     <g id="text_4">
      <text style="font-size: 18px; font-family: 'DejaVu Serif', 'Times New Roman', serif; text-anchor: middle; fill: #262626" x="566.909225" y="836.397187" transform="rotate(-0 566.909225 836.397187)">−0.330</text>
     </g>
    </g>
    <g id="xtick_5">
     <g id="line2d_9">
      <path d="M 712.677059 815.72 
L 712.677059 57.98 
" clip-path="url(#p5853c04c02)" style="fill: none; stroke: #ffffff; stroke-opacity: 0.4; stroke-linecap: round"/>
     </g>
     <g id="line2d_10"/>
     <g id="text_5">
      <text style="font-size: 18px; font-family: 'DejaVu Serif', 'Times New Roman', serif; text-anchor: middle; fill: #262626" x="712.677059" y="836.397187" transform="rotate(-0 712.677059 836.397187)">−0.328</text>
     </g>
    </g>
   </g>
   <g id="matplotlib.axis_2"/>
   <g id="FillBetweenPolyCollection_1">
    <defs>
     <path id="m1b57c54c19" d="M 60.872727 -85.225024 
L 60.872727 -335.454726 
L 62.32528 -335.450862 
L 63.777833 -335.490685 
L 65.230386 -335.527809 
L 66.682939 -335.586766 
L 68.135492 -335.700716 
L 69.588045 -335.80155 
L 71.040598 -335.884436 
L 72.493151 -336.028129 
L 73.945704 -336.144544 
L 75.398257 -336.319967 
L 76.850809 -336.533913 
L 78.303362 -336.790539 
L 79.755915 -337.033216 
L 81.208468 -337.267456 
L 82.661021 -337.557473 
L 84.113574 -337.881931 
L 85.566127 -338.250431 
L 87.01868 -338.592289 
L 88.471233 -338.988609 
L 89.923786 -339.438322 
L 91.376339 -339.956547 
L 92.828892 -340.44404 
L 94.281445 -340.965141 
L 95.733998 -341.569205 
L 97.18655 -342.179934 
L 98.639103 -342.836357 
L 100.091656 -343.506462 
L 101.544209 -344.279568 
L 102.996762 -345.031575 
L 104.449315 -345.826311 
L 105.901868 -346.686292 
L 107.354421 -347.584583 
L 108.806974 -348.552257 
L 110.259527 -349.528226 
L 111.71208 -350.577094 
L 113.164633 -351.692728 
L 114.617186 -352.827999 
L 116.069738 -353.991533 
L 117.522291 -355.181251 
L 118.974844 -356.409693 
L 120.427397 -357.667912 
L 121.87995 -358.97856 
L 123.332503 -360.367372 
L 124.785056 -361.789496 
L 126.237609 -363.237233 
L 127.690162 -364.711106 
L 129.142715 -366.256175 
L 130.595268 -367.845881 
L 132.047821 -369.433361 
L 133.500374 -371.018921 
L 134.952927 -372.71367 
L 136.405479 -374.43045 
L 137.858032 -376.176369 
L 139.310585 -377.964952 
L 140.763138 -379.76413 
L 142.215691 -381.590252 
L 143.668244 -383.45763 
L 145.120797 -385.325558 
L 146.57335 -387.267225 
L 148.025903 -389.283375 
L 149.478456 -391.3078 
L 150.931009 -393.339592 
L 152.383562 -395.428212 
L 153.836115 -397.577752 
L 155.288667 -399.756948 
L 156.74122 -401.920114 
L 158.193773 -404.111837 
L 159.646326 -406.343317 
L 161.098879 -408.657654 
L 162.551432 -410.998246 
L 164.003985 -413.365507 
L 165.456538 -415.728894 
L 166.909091 -418.151723 
L 168.361644 -420.627512 
L 169.814197 -423.089851 
L 171.26675 -425.605294 
L 172.719303 -428.144623 
L 174.171856 -430.718648 
L 175.624408 -433.359471 
L 177.076961 -436.037904 
L 178.529514 -438.758027 
L 179.982067 -441.493101 
L 181.43462 -444.260235 
L 182.887173 -447.025738 
L 184.339726 -449.869639 
L 185.792279 -452.719934 
L 187.244832 -455.627458 
L 188.697385 -458.509633 
L 190.149938 -461.455487 
L 191.602491 -464.400909 
L 193.055044 -467.354939 
L 194.507597 -470.348185 
L 195.960149 -473.333898 
L 197.412702 -476.316118 
L 198.865255 -479.356689 
L 200.317808 -482.423593 
L 201.770361 -485.50636 
L 203.222914 -488.548847 
L 204.675467 -491.647801 
L 206.12802 -494.686989 
L 207.580573 -497.680066 
L 209.033126 -500.712605 
L 210.485679 -503.793281 
L 211.938232 -506.83318 
L 213.390785 -509.836454 
L 214.843337 -512.821893 
L 216.29589 -515.77301 
L 217.748443 -518.719898 
L 219.200996 -521.681547 
L 220.653549 -524.615932 
L 222.106102 -527.500968 
L 223.558655 -530.334766 
L 225.011208 -533.18533 
L 226.463761 -536.055321 
L 227.916314 -538.830975 
L 229.368867 -541.56333 
L 230.82142 -544.32726 
L 232.273973 -546.995453 
L 233.726526 -549.620335 
L 235.179078 -552.276224 
L 236.631631 -554.841738 
L 238.084184 -557.377303 
L 239.536737 -559.860573 
L 240.98929 -562.33922 
L 242.441843 -564.765087 
L 243.894396 -567.156511 
L 245.346949 -569.485245 
L 246.799502 -571.759071 
L 248.252055 -574.030335 
L 249.704608 -576.284798 
L 251.157161 -578.501081 
L 252.609714 -580.712963 
L 254.062267 -582.899477 
L 255.514819 -585.069593 
L 256.967372 -587.168855 
L 258.419925 -589.256061 
L 259.872478 -591.339004 
L 261.325031 -593.343731 
L 262.777584 -595.387356 
L 264.230137 -597.450135 
L 265.68269 -599.485496 
L 267.135243 -601.452157 
L 268.587796 -603.396018 
L 270.040349 -605.367756 
L 271.492902 -607.389705 
L 272.945455 -609.362226 
L 274.398007 -611.330684 
L 275.85056 -613.230065 
L 277.303113 -615.155419 
L 278.755666 -617.03663 
L 280.208219 -618.996757 
L 281.660772 -620.972545 
L 283.113325 -622.897916 
L 284.565878 -624.845648 
L 286.018431 -626.793307 
L 287.470984 -628.758603 
L 288.923537 -630.7201 
L 290.37609 -632.717814 
L 291.828643 -634.707113 
L 293.281196 -636.646592 
L 294.733748 -638.622223 
L 296.186301 -640.549325 
L 297.638854 -642.516345 
L 299.091407 -644.482907 
L 300.54396 -646.46364 
L 301.996513 -648.491105 
L 303.449066 -650.484062 
L 304.901619 -652.485377 
L 306.354172 -654.491158 
L 307.806725 -656.521329 
L 309.259278 -658.586582 
L 310.711831 -660.623409 
L 312.164384 -662.63142 
L 313.616936 -664.666875 
L 315.069489 -666.72073 
L 316.522042 -668.734428 
L 317.974595 -670.804335 
L 319.427148 -672.812334 
L 320.879701 -674.927659 
L 322.332254 -676.99894 
L 323.784807 -679.040658 
L 325.23736 -681.076288 
L 326.689913 -683.109345 
L 328.142466 -685.16218 
L 329.595019 -687.198763 
L 331.047572 -689.209721 
L 332.500125 -691.237558 
L 333.952677 -693.267381 
L 335.40523 -695.322667 
L 336.857783 -697.331891 
L 338.310336 -699.33331 
L 339.762889 -701.369122 
L 341.215442 -703.322068 
L 342.667995 -705.341244 
L 344.120548 -707.348642 
L 345.573101 -709.33881 
L 347.025654 -711.280865 
L 348.478207 -713.227896 
L 349.93076 -715.182038 
L 351.383313 -717.084084 
L 352.835866 -718.958311 
L 354.288418 -720.800508 
L 355.740971 -722.656927 
L 357.193524 -724.478838 
L 358.646077 -726.271478 
L 360.09863 -728.149765 
L 361.551183 -729.936889 
L 363.003736 -731.651409 
L 364.456289 -733.399624 
L 365.908842 -735.118175 
L 367.361395 -736.786402 
L 368.813948 -738.449902 
L 370.266501 -740.084506 
L 371.719054 -741.671526 
L 373.171606 -743.265088 
L 374.624159 -744.813458 
L 376.076712 -746.286095 
L 377.529265 -747.766687 
L 378.981818 -749.196357 
L 380.434371 -750.574147 
L 381.886924 -751.86159 
L 383.339477 -753.177529 
L 384.79203 -754.459857 
L 386.244583 -755.736502 
L 387.697136 -756.973709 
L 389.149689 -758.059742 
L 390.602242 -759.182539 
L 392.054795 -760.25726 
L 393.507347 -761.296935 
L 394.9599 -762.23322 
L 396.412453 -763.15449 
L 397.865006 -764.07551 
L 399.317559 -764.911328 
L 400.770112 -765.720082 
L 402.222665 -766.498574 
L 403.675218 -767.175298 
L 405.127771 -767.797796 
L 406.580324 -768.403125 
L 408.032877 -768.932402 
L 409.48543 -769.416366 
L 410.937983 -769.919657 
L 412.390535 -770.327509 
L 413.843088 -770.686139 
L 415.295641 -770.975258 
L 416.748194 -771.239992 
L 418.200747 -771.394208 
L 419.6533 -771.51656 
L 421.105853 -771.577273 
L 422.558406 -771.560948 
L 424.010959 -771.501675 
L 425.463512 -771.388622 
L 426.916065 -771.217035 
L 428.368618 -770.992667 
L 429.821171 -770.674249 
L 431.273724 -770.306101 
L 432.726276 -769.800058 
L 434.178829 -769.335376 
L 435.631382 -768.835403 
L 437.083935 -768.214006 
L 438.536488 -767.516517 
L 439.989041 -766.785213 
L 441.441594 -766.027093 
L 442.894147 -765.201043 
L 444.3467 -764.308198 
L 445.799253 -763.366608 
L 447.251806 -762.354324 
L 448.704359 -761.30648 
L 450.156912 -760.152756 
L 451.609465 -758.968877 
L 453.062017 -757.77629 
L 454.51457 -756.465417 
L 455.967123 -755.202198 
L 457.419676 -753.882612 
L 458.872229 -752.42242 
L 460.324782 -751.029838 
L 461.777335 -749.604007 
L 463.229888 -748.070508 
L 464.682441 -746.554769 
L 466.134994 -745.034317 
L 467.587547 -743.4741 
L 469.0401 -741.867716 
L 470.492653 -740.231792 
L 471.945205 -738.560423 
L 473.397758 -736.930892 
L 474.850311 -735.323793 
L 476.302864 -733.709677 
L 477.755417 -732.036642 
L 479.20797 -730.352827 
L 480.660523 -728.695169 
L 482.113076 -727.029742 
L 483.565629 -725.356627 
L 485.018182 -723.69793 
L 486.470735 -722.115935 
L 487.923288 -720.462442 
L 489.375841 -718.899542 
L 490.828394 -717.291979 
L 492.280946 -715.682902 
L 493.733499 -714.069798 
L 495.186052 -712.551549 
L 496.638605 -711.030597 
L 498.091158 -709.551515 
L 499.543711 -708.001944 
L 500.996264 -706.506197 
L 502.448817 -705.07756 
L 503.90137 -703.681128 
L 505.353923 -702.282047 
L 506.806476 -700.886304 
L 508.259029 -699.498063 
L 509.711582 -698.111829 
L 511.164134 -696.752194 
L 512.616687 -695.418979 
L 514.06924 -694.06443 
L 515.521793 -692.685055 
L 516.974346 -691.369781 
L 518.426899 -690.015477 
L 519.879452 -688.651103 
L 521.332005 -687.358633 
L 522.784558 -686.050055 
L 524.237111 -684.731612 
L 525.689664 -683.384151 
L 527.142217 -682.046364 
L 528.59477 -680.684169 
L 530.047323 -679.331884 
L 531.499875 -677.954605 
L 532.952428 -676.566991 
L 534.404981 -675.18874 
L 535.857534 -673.826539 
L 537.310087 -672.438848 
L 538.76264 -671.023316 
L 540.215193 -669.607316 
L 541.667746 -668.168285 
L 543.120299 -666.723889 
L 544.572852 -665.262709 
L 546.025405 -663.728639 
L 547.477958 -662.224875 
L 548.930511 -660.645051 
L 550.383064 -659.135483 
L 551.835616 -657.607644 
L 553.288169 -656.050526 
L 554.740722 -654.517538 
L 556.193275 -652.981591 
L 557.645828 -651.356613 
L 559.098381 -649.756283 
L 560.550934 -648.131255 
L 562.003487 -646.501547 
L 563.45604 -644.846007 
L 564.908593 -643.154198 
L 566.361146 -641.495809 
L 567.813699 -639.730844 
L 569.266252 -638.065851 
L 570.718804 -636.328145 
L 572.171357 -634.599582 
L 573.62391 -632.87579 
L 575.076463 -631.149595 
L 576.529016 -629.412393 
L 577.981569 -627.611804 
L 579.434122 -625.770268 
L 580.886675 -623.982862 
L 582.339228 -622.168654 
L 583.791781 -620.327038 
L 585.244334 -618.49102 
L 586.696887 -616.609436 
L 588.14944 -614.647098 
L 589.601993 -612.712616 
L 591.054545 -610.79056 
L 592.507098 -608.788912 
L 593.959651 -606.770978 
L 595.412204 -604.756002 
L 596.864757 -602.687124 
L 598.31731 -600.62147 
L 599.769863 -598.508843 
L 601.222416 -596.330683 
L 602.674969 -594.121681 
L 604.127522 -591.904223 
L 605.580075 -589.635526 
L 607.032628 -587.38796 
L 608.485181 -585.099085 
L 609.937733 -582.749252 
L 611.390286 -580.337442 
L 612.842839 -577.935449 
L 614.295392 -575.45678 
L 615.747945 -572.922327 
L 617.200498 -570.46567 
L 618.653051 -567.888081 
L 620.105604 -565.27154 
L 621.558157 -562.664282 
L 623.01071 -560.031762 
L 624.463263 -557.326707 
L 625.915816 -554.575421 
L 627.368369 -551.857279 
L 628.820922 -549.049809 
L 630.273474 -546.204708 
L 631.726027 -543.386513 
L 633.17858 -540.506969 
L 634.631133 -537.613025 
L 636.083686 -534.721946 
L 637.536239 -531.786752 
L 638.988792 -528.812789 
L 640.441345 -525.82946 
L 641.893898 -522.859316 
L 643.346451 -519.901906 
L 644.799004 -516.910377 
L 646.251557 -513.917047 
L 647.70411 -510.939383 
L 649.156663 -507.952897 
L 650.609215 -504.976239 
L 652.061768 -501.965574 
L 653.514321 -498.968034 
L 654.966874 -495.940408 
L 656.419427 -492.894157 
L 657.87198 -489.882159 
L 659.324533 -486.879128 
L 660.777086 -483.941285 
L 662.229639 -480.976014 
L 663.682192 -477.992068 
L 665.134745 -475.028597 
L 666.587298 -472.055771 
L 668.039851 -469.092156 
L 669.492403 -466.123456 
L 670.944956 -463.172403 
L 672.397509 -460.230961 
L 673.850062 -457.283577 
L 675.302615 -454.370588 
L 676.755168 -451.429733 
L 678.207721 -448.54581 
L 679.660274 -445.718237 
L 681.112827 -442.843621 
L 682.56538 -440.00363 
L 684.017933 -437.131146 
L 685.470486 -434.313954 
L 686.923039 -431.533588 
L 688.375592 -428.726186 
L 689.828144 -425.935169 
L 691.280697 -423.191606 
L 692.73325 -420.468912 
L 694.185803 -417.721213 
L 695.638356 -415.030336 
L 697.090909 -412.339072 
L 698.543462 -409.709801 
L 699.996015 -407.114101 
L 701.448568 -404.485534 
L 702.901121 -401.833527 
L 704.353674 -399.204225 
L 705.806227 -396.637369 
L 707.25878 -394.099269 
L 708.711333 -391.536956 
L 710.163885 -389.025066 
L 711.616438 -386.546698 
L 713.068991 -384.133797 
L 714.521544 -381.693618 
L 715.974097 -379.329995 
L 717.42665 -376.925763 
L 718.879203 -374.589398 
L 720.331756 -372.314587 
L 721.784309 -370.074552 
L 723.236862 -367.844492 
L 724.689415 -365.665825 
L 726.141968 -363.49614 
L 727.594521 -361.393492 
L 729.047073 -359.339263 
L 730.499626 -357.321823 
L 731.952179 -355.342348 
L 733.404732 -353.423263 
L 734.857285 -351.564777 
L 736.309838 -349.689694 
L 737.762391 -347.927607 
L 739.214944 -346.205676 
L 740.667497 -344.509978 
L 742.12005 -342.897251 
L 743.572603 -341.324211 
L 745.025156 -339.761702 
L 746.477709 -338.282778 
L 747.930262 -336.844546 
L 749.382814 -335.496761 
L 750.835367 -334.147441 
L 752.28792 -332.905545 
L 753.740473 -331.706715 
L 755.193026 -330.541517 
L 756.645579 -329.431958 
L 758.098132 -328.34877 
L 759.550685 -327.379042 
L 761.003238 -326.41132 
L 762.455791 -325.478492 
L 763.908344 -324.630028 
L 765.360897 -323.808948 
L 766.81345 -323.057809 
L 768.266002 -322.349323 
L 769.718555 -321.659062 
L 771.171108 -321.001442 
L 772.623661 -320.446848 
L 774.076214 -319.947685 
L 775.528767 -319.437661 
L 776.98132 -318.947175 
L 778.433873 -318.485963 
L 779.886426 -318.03733 
L 781.338979 -317.667298 
L 782.791532 -317.328696 
L 784.244085 -316.976359 
L 785.696638 -316.708213 
L 787.149191 -316.471419 
L 788.601743 -316.257473 
L 790.054296 -316.052425 
L 791.506849 -315.846667 
L 792.959402 -315.732239 
L 794.411955 -315.582536 
L 795.864508 -315.507848 
L 797.317061 -315.407086 
L 798.769614 -315.312332 
L 800.222167 -315.263047 
L 801.67472 -315.200779 
L 803.127273 -315.19202 
L 803.127273 -85.225024 
L 803.127273 -85.225024 
L 801.67472 -85.225024 
L 800.222167 -85.225024 
L 798.769614 -85.225024 
L 797.317061 -85.225024 
L 795.864508 -85.225024 
L 794.411955 -85.225024 
L 792.959402 -85.225024 
L 791.506849 -85.225024 
L 790.054296 -85.225024 
L 788.601743 -85.225024 
L 787.149191 -85.225024 
L 785.696638 -85.225024 
L 784.244085 -85.225024 
L 782.791532 -85.225024 
L 781.338979 -85.225024 
L 779.886426 -85.225024 
L 778.433873 -85.225024 
L 776.98132 -85.225024 
L 775.528767 -85.225024 
L 774.076214 -85.225024 
L 772.623661 -85.225024 
L 771.171108 -85.225024 
L 769.718555 -85.225024 
L 768.266002 -85.225024 
L 766.81345 -85.225024 
L 765.360897 -85.225024 
L 763.908344 -85.225024 
L 762.455791 -85.225024 
L 761.003238 -85.225024 
L 759.550685 -85.225024 
L 758.098132 -85.225024 
L 756.645579 -85.225024 
L 755.193026 -85.225024 
L 753.740473 -85.225024 
L 752.28792 -85.225024 
L 750.835367 -85.225024 
L 749.382814 -85.225024 
L 747.930262 -85.225024 
L 746.477709 -85.225024 
L 745.025156 -85.225024 
L 743.572603 -85.225024 
L 742.12005 -85.225024 
L 740.667497 -85.225024 
L 739.214944 -85.225024 
L 737.762391 -85.225024 
L 736.309838 -85.225024 
L 734.857285 -85.225024 
L 733.404732 -85.225024 
L 731.952179 -85.225024 
L 730.499626 -85.225024 
L 729.047073 -85.225024 
L 727.594521 -85.225024 
L 726.141968 -85.225024 
L 724.689415 -85.225024 
L 723.236862 -85.225024 
L 721.784309 -85.225024 
L 720.331756 -85.225024 
L 718.879203 -85.225024 
L 717.42665 -85.225024 
L 715.974097 -85.225024 
L 714.521544 -85.225024 
L 713.068991 -85.225024 
L 711.616438 -85.225024 
L 710.163885 -85.225024 
L 708.711333 -85.225024 
L 707.25878 -85.225024 
L 705.806227 -85.225024 
L 704.353674 -85.225024 
L 702.901121 -85.225024 
L 701.448568 -85.225024 
L 699.996015 -85.225024 
L 698.543462 -85.225024 
L 697.090909 -85.225024 
L 695.638356 -85.225024 
L 694.185803 -85.225024 
L 692.73325 -85.225024 
L 691.280697 -85.225024 
L 689.828144 -85.225024 
L 688.375592 -85.225024 
L 686.923039 -85.225024 
L 685.470486 -85.225024 
L 684.017933 -85.225024 
L 682.56538 -85.225024 
L 681.112827 -85.225024 
L 679.660274 -85.225024 
L 678.207721 -85.225024 
L 676.755168 -85.225024 
L 675.302615 -85.225024 
L 673.850062 -85.225024 
L 672.397509 -85.225024 
L 670.944956 -85.225024 
L 669.492403 -85.225024 
L 668.039851 -85.225024 
L 666.587298 -85.225024 
L 665.134745 -85.225024 
L 663.682192 -85.225024 
L 662.229639 -85.225024 
L 660.777086 -85.225024 
L 659.324533 -85.225024 
L 657.87198 -85.225024 
L 656.419427 -85.225024 
L 654.966874 -85.225024 
L 653.514321 -85.225024 
L 652.061768 -85.225024 
L 650.609215 -85.225024 
L 649.156663 -85.225024 
L 647.70411 -85.225024 
L 646.251557 -85.225024 
L 644.799004 -85.225024 
L 643.346451 -85.225024 
L 641.893898 -85.225024 
L 640.441345 -85.225024 
L 638.988792 -85.225024 
L 637.536239 -85.225024 
L 636.083686 -85.225024 
L 634.631133 -85.225024 
L 633.17858 -85.225024 
L 631.726027 -85.225024 
L 630.273474 -85.225024 
L 628.820922 -85.225024 
L 627.368369 -85.225024 
L 625.915816 -85.225024 
L 624.463263 -85.225024 
L 623.01071 -85.225024 
L 621.558157 -85.225024 
L 620.105604 -85.225024 
L 618.653051 -85.225024 
L 617.200498 -85.225024 
L 615.747945 -85.225024 
L 614.295392 -85.225024 
L 612.842839 -85.225024 
L 611.390286 -85.225024 
L 609.937733 -85.225024 
L 608.485181 -85.225024 
L 607.032628 -85.225024 
L 605.580075 -85.225024 
L 604.127522 -85.225024 
L 602.674969 -85.225024 
L 601.222416 -85.225024 
L 599.769863 -85.225024 
L 598.31731 -85.225024 
L 596.864757 -85.225024 
L 595.412204 -85.225024 
L 593.959651 -85.225024 
L 592.507098 -85.225024 
L 591.054545 -85.225024 
L 589.601993 -85.225024 
L 588.14944 -85.225024 
L 586.696887 -85.225024 
L 585.244334 -85.225024 
L 583.791781 -85.225024 
L 582.339228 -85.225024 
L 580.886675 -85.225024 
L 579.434122 -85.225024 
L 577.981569 -85.225024 
L 576.529016 -85.225024 
L 575.076463 -85.225024 
L 573.62391 -85.225024 
L 572.171357 -85.225024 
L 570.718804 -85.225024 
L 569.266252 -85.225024 
L 567.813699 -85.225024 
L 566.361146 -85.225024 
L 564.908593 -85.225024 
L 563.45604 -85.225024 
L 562.003487 -85.225024 
L 560.550934 -85.225024 
L 559.098381 -85.225024 
L 557.645828 -85.225024 
L 556.193275 -85.225024 
L 554.740722 -85.225024 
L 553.288169 -85.225024 
L 551.835616 -85.225024 
L 550.383064 -85.225024 
L 548.930511 -85.225024 
L 547.477958 -85.225024 
L 546.025405 -85.225024 
L 544.572852 -85.225024 
L 543.120299 -85.225024 
L 541.667746 -85.225024 
L 540.215193 -85.225024 
L 538.76264 -85.225024 
L 537.310087 -85.225024 
L 535.857534 -85.225024 
L 534.404981 -85.225024 
L 532.952428 -85.225024 
L 531.499875 -85.225024 
L 530.047323 -85.225024 
L 528.59477 -85.225024 
L 527.142217 -85.225024 
L 525.689664 -85.225024 
L 524.237111 -85.225024 
L 522.784558 -85.225024 
L 521.332005 -85.225024 
L 519.879452 -85.225024 
L 518.426899 -85.225024 
L 516.974346 -85.225024 
L 515.521793 -85.225024 
L 514.06924 -85.225024 
L 512.616687 -85.225024 
L 511.164134 -85.225024 
L 509.711582 -85.225024 
L 508.259029 -85.225024 
L 506.806476 -85.225024 
L 505.353923 -85.225024 
L 503.90137 -85.225024 
L 502.448817 -85.225024 
L 500.996264 -85.225024 
L 499.543711 -85.225024 
L 498.091158 -85.225024 
L 496.638605 -85.225024 
L 495.186052 -85.225024 
L 493.733499 -85.225024 
L 492.280946 -85.225024 
L 490.828394 -85.225024 
L 489.375841 -85.225024 
L 487.923288 -85.225024 
L 486.470735 -85.225024 
L 485.018182 -85.225024 
L 483.565629 -85.225024 
L 482.113076 -85.225024 
L 480.660523 -85.225024 
L 479.20797 -85.225024 
L 477.755417 -85.225024 
L 476.302864 -85.225024 
L 474.850311 -85.225024 
L 473.397758 -85.225024 
L 471.945205 -85.225024 
L 470.492653 -85.225024 
L 469.0401 -85.225024 
L 467.587547 -85.225024 
L 466.134994 -85.225024 
L 464.682441 -85.225024 
L 463.229888 -85.225024 
L 461.777335 -85.225024 
L 460.324782 -85.225024 
L 458.872229 -85.225024 
L 457.419676 -85.225024 
L 455.967123 -85.225024 
L 454.51457 -85.225024 
L 453.062017 -85.225024 
L 451.609465 -85.225024 
L 450.156912 -85.225024 
L 448.704359 -85.225024 
L 447.251806 -85.225024 
L 445.799253 -85.225024 
L 444.3467 -85.225024 
L 442.894147 -85.225024 
L 441.441594 -85.225024 
L 439.989041 -85.225024 
L 438.536488 -85.225024 
L 437.083935 -85.225024 
L 435.631382 -85.225024 
L 434.178829 -85.225024 
L 432.726276 -85.225024 
L 431.273724 -85.225024 
L 429.821171 -85.225024 
L 428.368618 -85.225024 
L 426.916065 -85.225024 
L 425.463512 -85.225024 
L 424.010959 -85.225024 
L 422.558406 -85.225024 
L 421.105853 -85.225024 
L 419.6533 -85.225024 
L 418.200747 -85.225024 
L 416.748194 -85.225024 
L 415.295641 -85.225024 
L 413.843088 -85.225024 
L 412.390535 -85.225024 
L 410.937983 -85.225024 
L 409.48543 -85.225024 
L 408.032877 -85.225024 
L 406.580324 -85.225024 
L 405.127771 -85.225024 
L 403.675218 -85.225024 
L 402.222665 -85.225024 
L 400.770112 -85.225024 
L 399.317559 -85.225024 
L 397.865006 -85.225024 
L 396.412453 -85.225024 
L 394.9599 -85.225024 
L 393.507347 -85.225024 
L 392.054795 -85.225024 
L 390.602242 -85.225024 
L 389.149689 -85.225024 
L 387.697136 -85.225024 
L 386.244583 -85.225024 
L 384.79203 -85.225024 
L 383.339477 -85.225024 
L 381.886924 -85.225024 
L 380.434371 -85.225024 
L 378.981818 -85.225024 
L 377.529265 -85.225024 
L 376.076712 -85.225024 
L 374.624159 -85.225024 
L 373.171606 -85.225024 
L 371.719054 -85.225024 
L 370.266501 -85.225024 
L 368.813948 -85.225024 
L 367.361395 -85.225024 
L 365.908842 -85.225024 
L 364.456289 -85.225024 
L 363.003736 -85.225024 
L 361.551183 -85.225024 
L 360.09863 -85.225024 
L 358.646077 -85.225024 
L 357.193524 -85.225024 
L 355.740971 -85.225024 
L 354.288418 -85.225024 
L 352.835866 -85.225024 
L 351.383313 -85.225024 
L 349.93076 -85.225024 
L 348.478207 -85.225024 
L 347.025654 -85.225024 
L 345.573101 -85.225024 
L 344.120548 -85.225024 
L 342.667995 -85.225024 
L 341.215442 -85.225024 
L 339.762889 -85.225024 
L 338.310336 -85.225024 
L 336.857783 -85.225024 
L 335.40523 -85.225024 
L 333.952677 -85.225024 
L 332.500125 -85.225024 
L 331.047572 -85.225024 
L 329.595019 -85.225024 
L 328.142466 -85.225024 
L 326.689913 -85.225024 
L 325.23736 -85.225024 
L 323.784807 -85.225024 
L 322.332254 -85.225024 
L 320.879701 -85.225024 
L 319.427148 -85.225024 
L 317.974595 -85.225024 
L 316.522042 -85.225024 
L 315.069489 -85.225024 
L 313.616936 -85.225024 
L 312.164384 -85.225024 
L 310.711831 -85.225024 
L 309.259278 -85.225024 
L 307.806725 -85.225024 
L 306.354172 -85.225024 
L 304.901619 -85.225024 
L 303.449066 -85.225024 
L 301.996513 -85.225024 
L 300.54396 -85.225024 
L 299.091407 -85.225024 
L 297.638854 -85.225024 
L 296.186301 -85.225024 
L 294.733748 -85.225024 
L 293.281196 -85.225024 
L 291.828643 -85.225024 
L 290.37609 -85.225024 
L 288.923537 -85.225024 
L 287.470984 -85.225024 
L 286.018431 -85.225024 
L 284.565878 -85.225024 
L 283.113325 -85.225024 
L 281.660772 -85.225024 
L 280.208219 -85.225024 
L 278.755666 -85.225024 
L 277.303113 -85.225024 
L 275.85056 -85.225024 
L 274.398007 -85.225024 
L 272.945455 -85.225024 
L 271.492902 -85.225024 
L 270.040349 -85.225024 
L 268.587796 -85.225024 
L 267.135243 -85.225024 
L 265.68269 -85.225024 
L 264.230137 -85.225024 
L 262.777584 -85.225024 
L 261.325031 -85.225024 
L 259.872478 -85.225024 
L 258.419925 -85.225024 
L 256.967372 -85.225024 
L 255.514819 -85.225024 
L 254.062267 -85.225024 
L 252.609714 -85.225024 
L 251.157161 -85.225024 
L 249.704608 -85.225024 
L 248.252055 -85.225024 
L 246.799502 -85.225024 
L 245.346949 -85.225024 
L 243.894396 -85.225024 
L 242.441843 -85.225024 
L 240.98929 -85.225024 
L 239.536737 -85.225024 
L 238.084184 -85.225024 
L 236.631631 -85.225024 
L 235.179078 -85.225024 
L 233.726526 -85.225024 
L 232.273973 -85.225024 
L 230.82142 -85.225024 
L 229.368867 -85.225024 
L 227.916314 -85.225024 
L 226.463761 -85.225024 
L 225.011208 -85.225024 
L 223.558655 -85.225024 
L 222.106102 -85.225024 
L 220.653549 -85.225024 
L 219.200996 -85.225024 
L 217.748443 -85.225024 
L 216.29589 -85.225024 
L 214.843337 -85.225024 
L 213.390785 -85.225024 
L 211.938232 -85.225024 
L 210.485679 -85.225024 
L 209.033126 -85.225024 
L 207.580573 -85.225024 
L 206.12802 -85.225024 
L 204.675467 -85.225024 
L 203.222914 -85.225024 
L 201.770361 -85.225024 
L 200.317808 -85.225024 
L 198.865255 -85.225024 
L 197.412702 -85.225024 
L 195.960149 -85.225024 
L 194.507597 -85.225024 
L 193.055044 -85.225024 
L 191.602491 -85.225024 
L 190.149938 -85.225024 
L 188.697385 -85.225024 
L 187.244832 -85.225024 
L 185.792279 -85.225024 
L 184.339726 -85.225024 
L 182.887173 -85.225024 
L 181.43462 -85.225024 
L 179.982067 -85.225024 
L 178.529514 -85.225024 
L 177.076961 -85.225024 
L 175.624408 -85.225024 
L 174.171856 -85.225024 
L 172.719303 -85.225024 
L 171.26675 -85.225024 
L 169.814197 -85.225024 
L 168.361644 -85.225024 
L 166.909091 -85.225024 
L 165.456538 -85.225024 
L 164.003985 -85.225024 
L 162.551432 -85.225024 
L 161.098879 -85.225024 
L 159.646326 -85.225024 
L 158.193773 -85.225024 
L 156.74122 -85.225024 
L 155.288667 -85.225024 
L 153.836115 -85.225024 
L 152.383562 -85.225024 
L 150.931009 -85.225024 
L 149.478456 -85.225024 
L 148.025903 -85.225024 
L 146.57335 -85.225024 
L 145.120797 -85.225024 
L 143.668244 -85.225024 
L 142.215691 -85.225024 
L 140.763138 -85.225024 
L 139.310585 -85.225024 
L 137.858032 -85.225024 
L 136.405479 -85.225024 
L 134.952927 -85.225024 
L 133.500374 -85.225024 
L 132.047821 -85.225024 
L 130.595268 -85.225024 
L 129.142715 -85.225024 
L 127.690162 -85.225024 
L 126.237609 -85.225024 
L 124.785056 -85.225024 
L 123.332503 -85.225024 
L 121.87995 -85.225024 
L 120.427397 -85.225024 
L 118.974844 -85.225024 
L 117.522291 -85.225024 
L 116.069738 -85.225024 
L 114.617186 -85.225024 
L 113.164633 -85.225024 
L 111.71208 -85.225024 
L 110.259527 -85.225024 
L 108.806974 -85.225024 
L 107.354421 -85.225024 
L 105.901868 -85.225024 
L 104.449315 -85.225024 
L 102.996762 -85.225024 
L 101.544209 -85.225024 
L 100.091656 -85.225024 
L 98.639103 -85.225024 
L 97.18655 -85.225024 
L 95.733998 -85.225024 
L 94.281445 -85.225024 
L 92.828892 -85.225024 
L 91.376339 -85.225024 
L 89.923786 -85.225024 
L 88.471233 -85.225024 
L 87.01868 -85.225024 
L 85.566127 -85.225024 
L 84.113574 -85.225024 
L 82.661021 -85.225024 
L 81.208468 -85.225024 
L 79.755915 -85.225024 
L 78.303362 -85.225024 
L 76.850809 -85.225024 
L 75.398257 -85.225024 
L 73.945704 -85.225024 
L 72.493151 -85.225024 
L 71.040598 -85.225024 
L 69.588045 -85.225024 
L 68.135492 -85.225024 
L 66.682939 -85.225024 
L 65.230386 -85.225024 
L 63.777833 -85.225024 
L 62.32528 -85.225024 
L 60.872727 -85.225024 
z
" style="stroke: #6cb7ff; stroke-opacity: 0.6; stroke-width: 0.3"/>
    </defs>
    <g clip-path="url(#p5853c04c02)">
     <use xlink:href="#m1b57c54c19" x="0" y="864" style="fill: #6cb7ff; fill-opacity: 0.6; stroke: #6cb7ff; stroke-opacity: 0.6; stroke-width: 0.3"/>
    </g>
   </g>
   <g id="line2d_11">
    <path d="M 60.872727 528.545274 
L 65.230386 528.472191 
L 69.588045 528.19845 
L 73.945704 527.855456 
L 76.850809 527.466087 
L 84.113574 526.118069 
L 89.923786 524.561678 
L 95.733998 522.430795 
L 100.091656 520.493538 
L 105.901868 517.313708 
L 108.806974 515.447743 
L 111.71208 513.422906 
L 116.069738 510.008467 
L 120.427397 506.332088 
L 123.332503 503.632628 
L 127.690162 499.288894 
L 133.500374 492.981079 
L 139.310585 486.035048 
L 145.120797 478.674442 
L 149.478456 472.6922 
L 153.836115 466.422248 
L 161.098879 455.342346 
L 166.909091 445.848277 
L 174.171856 433.281352 
L 179.982067 422.506899 
L 185.792279 411.280066 
L 194.507597 393.651815 
L 201.770361 378.49364 
L 217.748443 345.280102 
L 223.558655 333.665234 
L 229.368867 322.43667 
L 233.726526 314.379665 
L 238.084184 306.622697 
L 243.894396 296.843489 
L 249.704608 287.715202 
L 256.967372 276.831145 
L 264.230137 266.549865 
L 268.587796 260.603982 
L 281.660772 243.027455 
L 288.923537 233.2799 
L 296.186301 223.450675 
L 306.354172 209.508842 
L 323.784807 184.959342 
L 344.120548 156.651358 
L 349.93076 148.817962 
L 355.740971 141.343073 
L 363.003736 132.348591 
L 367.361395 127.213598 
L 371.719054 122.328474 
L 374.624159 119.186542 
L 380.434371 113.425853 
L 387.697136 107.026291 
L 393.507347 102.703065 
L 399.317559 99.088672 
L 402.222665 97.501426 
L 405.127771 96.202204 
L 408.032877 95.067598 
L 412.390535 93.672491 
L 415.295641 93.024742 
L 418.200747 92.605792 
L 421.105853 92.422727 
L 424.010959 92.498325 
L 426.916065 92.782965 
L 429.821171 93.325751 
L 431.273724 93.693899 
L 437.083935 95.785994 
L 441.441594 97.972907 
L 444.3467 99.691802 
L 447.251806 101.645676 
L 450.156912 103.847244 
L 454.51457 107.534583 
L 457.419676 110.117388 
L 466.134994 118.965683 
L 470.492653 123.768208 
L 483.565629 138.643373 
L 487.923288 143.537558 
L 500.996264 157.493803 
L 508.259029 164.501937 
L 515.521793 171.314945 
L 527.142217 181.953636 
L 538.76264 192.976684 
L 544.572852 198.737291 
L 557.645828 212.643387 
L 563.45604 219.153993 
L 575.076463 232.850405 
L 579.434122 238.229732 
L 585.244334 245.50898 
L 591.054545 253.20944 
L 598.31731 263.37853 
L 602.674969 269.878319 
L 608.485181 278.900915 
L 612.842839 286.064551 
L 618.653051 296.111919 
L 624.463263 306.673293 
L 631.726027 320.613487 
L 638.988792 335.187211 
L 676.755168 412.570267 
L 685.470486 429.686046 
L 695.638356 448.969664 
L 701.448568 459.514466 
L 707.25878 469.900731 
L 711.616438 477.453302 
L 718.879203 489.410602 
L 724.689415 498.334175 
L 729.047073 504.660737 
L 733.404732 510.576737 
L 737.762391 516.072393 
L 742.12005 521.102749 
L 746.477709 525.717222 
L 749.382814 528.503239 
L 752.28792 531.094455 
L 756.645579 534.568042 
L 759.550685 536.620958 
L 762.455791 538.521508 
L 766.81345 540.942191 
L 771.171108 542.998558 
L 775.528767 544.562339 
L 779.886426 545.96267 
L 784.244085 547.023641 
L 788.601743 547.742527 
L 792.959402 548.267761 
L 795.864508 548.492152 
L 801.67472 548.799221 
L 803.127273 548.80798 
L 803.127273 548.80798 
" clip-path="url(#p5853c04c02)" style="fill: none; stroke: #7570b3; stroke-width: 2; stroke-linecap: round"/>
   </g>
   <g id="line2d_12">
    <path d="M 60.872727 781.277273 
L 60.872727 528.545274 
" clip-path="url(#p5853c04c02)" style="fill: none; stroke: #7570b3; stroke-width: 2; stroke-linecap: round"/>
   </g>
   <g id="line2d_13">
    <path d="M 803.127273 781.074646 
L 803.127273 548.80798 
" clip-path="url(#p5853c04c02)" style="fill: none; stroke: #7570b3; stroke-width: 2; stroke-linecap: round"/>
   </g>
   <g id="line2d_14">
    <defs>
     <path id="m433ed7d221" d="M 0 3.5 
C 0.928211 3.5 1.81853 3.131218 2.474874 2.474874 
C 3.131218 1.81853 3.5 0.928211 3.5 0 
C 3.5 -0.928211 3.131218 -1.81853 2.474874 -2.474874 
C 1.81853 -3.131218 0.928211 -3.5 0 -3.5 
C -0.928211 -3.5 -1.81853 -3.131218 -2.474874 -2.474874 
C -3.131218 -1.81853 -3.5 -0.928211 -3.5 0 
C -3.5 0.928211 -3.131218 1.81853 -2.474874 2.474874 
C -1.81853 3.131218 -0.928211 3.5 0 3.5 
z
"/>
    </defs>
    <g clip-path="url(#p5853c04c02)">
     <use xlink:href="#m433ed7d221" x="429.084799" y="778.774976" style="fill: #7570b3"/>
    </g>
   </g>
   <g id="patch_3">
    <path d="M 23.76 815.72 
L 840.24 815.72 
" style="fill: none; stroke: #333333; stroke-width: 1.5; stroke-linejoin: miter; stroke-linecap: square"/>
   </g>
   <g id="text_6">
    <!-- $x_3^3$ -->
    <g style="fill: #262626" transform="translate(416.46 49.86)">
     <text>
      <tspan x="0" y="-0.734375" style="font-style: oblique; font-size: 28px; font-family: 'DejaVu Sans'; fill: #262626">x</tspan>
      <tspan x="16.570312" y="6.921875" style="font-size: 19.6px; font-family: 'DejaVu Sans'; fill: #262626">3</tspan>
      <tspan x="17.820833" y="-11.453125" style="font-size: 19.6px; font-family: 'DejaVu Sans'; fill: #262626">3</tspan>
     </text>
    </g>
   </g>
  </g>
 </g>
 <defs>
  <clipPath id="p5853c04c02">
   <rect x="23.76" y="57.98" width="816.48" height="757.74"/>
  </clipPath>
 </defs>
</svg>
