<?xml version="1.0" encoding="utf-8" standalone="no"?>
<!DOCTYPE svg PUBLIC "-//W3C//DTD SVG 1.1//EN"
  "http://www.w3.org/Graphics/SVG/1.1/DTD/svg11.dtd">
<svg xmlns:xlink="http://www.w3.org/1999/xlink" width="576pt" height="432pt" viewBox="0 0 576 432" xmlns="http://www.w3.org/2000/svg" version="1.1">
 <metadata>
  <rdf:RDF xmlns:dc="http://purl.org/dc/elements/1.1/" xmlns:cc="http://creativecommons.org/ns#" xmlns:rdf="http://www.w3.org/1999/02/22-rdf-syntax-ns#">
   <cc:Work>
    <dc:type rdf:resource="http://purl.org/dc/dcmitype/StillImage"/>
    <dc:date>2025-09-23T14:40:22.002348</dc:date>
    <dc:format>image/svg+xml</dc:format>
    <dc:creator>
     <cc:Agent>
      <dc:title>Matplotlib v3.10.0, https://matplotlib.org/</dc:title>
     </cc:Agent>
    </dc:creator>
   </cc:Work>
  </rdf:RDF>
 </metadata>
 <defs>
  <style type="text/css">*{stroke-linejoin: round; stroke-linecap: butt}</style>
 </defs>
 <g id="figure_1">
  <g id="patch_1">
   <path d="M 0 432 
L 576 432 
L 576 0 
L 0 0 
L 0 432 
z
" style="fill: none; opacity: 0"/>
  </g>
  <g id="axes_1">
   <g id="patch_2">
    <path d="M 23.76 383.84 
L 552.24 383.84 
L 552.24 51.12 
L 23.76 51.12 
L 23.76 383.84 
z
" style="fill: none"/>
   </g>
   <g id="matplotlib.axis_1">
    <g id="xtick_1">
     <g id="line2d_1">
      <path d="M 60.484818 383.84 
L 60.484818 51.12 
" clip-path="url(#p5a72a40fa1)" style="fill: none; stroke: #ffffff; stroke-opacity: 0.4; stroke-linecap: round"/>
     </g>
     <g id="line2d_2"/>
     <g id="text_1">
      <text style="font-size: 18px; font-family: 'DejaVu Serif', 'Times New Roman', serif; text-anchor: middle; fill: #262626" x="60.484818" y="404.517187" transform="rotate(-0 60.484818 404.517187)">−10</text>
     </g>
    </g>
    <g id="xtick_2">
     <g id="line2d_3">
      <path d="M 177.036706 383.84 
L 177.036706 51.12 
" clip-path="url(#p5a72a40fa1)" style="fill: none; stroke: #ffffff; stroke-opacity: 0.4; stroke-linecap: round"/>
     </g>
     <g id="line2d_4"/>
     <g id="text_2">
      <text style="font-size: 18px; font-family: 'DejaVu Serif', 'Times New Roman', serif; text-anchor: middle; fill: #262626" x="177.036706" y="404.517187" transform="rotate(-0 177.036706 404.517187)">−5</text>
     </g>
    </g>
    <g id="xtick_3">
     <g id="line2d_5">
      <path d="M 293.588594 383.84 
L 293.588594 51.12 
" clip-path="url(#p5a72a40fa1)" style="fill: none; stroke: #ffffff; stroke-opacity: 0.4; stroke-linecap: round"/>
     </g>
     <g id="line2d_6"/>
     <g id="text_3">
      <text style="font-size: 18px; font-family: 'DejaVu Serif', 'Times New Roman', serif; text-anchor: middle; fill: #262626" x="293.588594" y="404.517187" transform="rotate(-0 293.588594 404.517187)">0</text>
     </g>
    </g>
    <g id="xtick_4">
     <g id="line2d_7">
      <path d="M 410.140482 383.84 
L 410.140482 51.12 
" clip-path="url(#p5a72a40fa1)" style="fill: none; stroke: #ffffff; stroke-opacity: 0.4; stroke-linecap: round"/>
     </g>
     <g id="line2d_8"/>
     <g id="text_4">
      <text style="font-size: 18px; font-family: 'DejaVu Serif', 'Times New Roman', serif; text-anchor: middle; fill: #262626" x="410.140482" y="404.517187" transform="rotate(-0 410.140482 404.517187)">5</text>
     </g>
    </g>
    <g id="xtick_5">
     <g id="line2d_9">
      <path d="M 526.69237 383.84 
L 526.69237 51.12 
" clip-path="url(#p5a72a40fa1)" style="fill: none; stroke: #ffffff; stroke-opacity: 0.4; stroke-linecap: round"/>
     </g>
     <g id="line2d_10"/>
     <g id="text_5">
      <text style="font-size: 18px; font-family: 'DejaVu Serif', 'Times New Roman', serif; text-anchor: middle; fill: #262626" x="526.69237" y="404.517187" transform="rotate(-0 526.69237 404.517187)">10</text>
     </g>
    </g>
   </g>
   <g id="matplotlib.axis_2">
    <g id="ytick_1">
     <g id="line2d_11">
      <path d="M 23.76 368.716364 
L 552.24 368.716364 
" clip-path="url(#p5a72a40fa1)" style="fill: none; stroke: #ffffff; stroke-opacity: 0.4; stroke-linecap: round"/>
     </g>
    </g>
    <g id="ytick_2">
     <g id="line2d_12">
      <path d="M 23.76 325.02961 
L 552.24 325.02961 
" clip-path="url(#p5a72a40fa1)" style="fill: none; stroke: #ffffff; stroke-opacity: 0.4; stroke-linecap: round"/>
     </g>
    </g>
    <g id="ytick_3">
     <g id="line2d_13">
      <path d="M 23.76 281.342857 
L 552.24 281.342857 
" clip-path="url(#p5a72a40fa1)" style="fill: none; stroke: #ffffff; stroke-opacity: 0.4; stroke-linecap: round"/>
     </g>
    </g>
    <g id="ytick_4">
     <g id="line2d_14">
      <path d="M 23.76 237.656103 
L 552.24 237.656103 
" clip-path="url(#p5a72a40fa1)" style="fill: none; stroke: #ffffff; stroke-opacity: 0.4; stroke-linecap: round"/>
     </g>
    </g>
    <g id="ytick_5">
     <g id="line2d_15">
      <path d="M 23.76 193.969349 
L 552.24 193.969349 
" clip-path="url(#p5a72a40fa1)" style="fill: none; stroke: #ffffff; stroke-opacity: 0.4; stroke-linecap: round"/>
     </g>
    </g>
    <g id="ytick_6">
     <g id="line2d_16">
      <path d="M 23.76 150.282596 
L 552.24 150.282596 
" clip-path="url(#p5a72a40fa1)" style="fill: none; stroke: #ffffff; stroke-opacity: 0.4; stroke-linecap: round"/>
     </g>
    </g>
    <g id="ytick_7">
     <g id="line2d_17">
      <path d="M 23.76 106.595842 
L 552.24 106.595842 
" clip-path="url(#p5a72a40fa1)" style="fill: none; stroke: #ffffff; stroke-opacity: 0.4; stroke-linecap: round"/>
     </g>
    </g>
    <g id="ytick_8">
     <g id="line2d_18">
      <path d="M 23.76 62.909089 
L 552.24 62.909089 
" clip-path="url(#p5a72a40fa1)" style="fill: none; stroke: #ffffff; stroke-opacity: 0.4; stroke-linecap: round"/>
     </g>
    </g>
   </g>
   <g id="FillBetweenPolyCollection_1">
    <defs>
     <path id="m030ef908c2" d="M 47.781818 -63.283636 
L 47.781818 -64.706485 
L 48.722007 -64.701719 
L 49.662195 -64.694632 
L 50.602384 -64.682555 
L 51.542572 -64.66859 
L 52.482761 -64.648167 
L 53.42295 -64.623958 
L 54.363138 -64.599312 
L 55.303327 -64.569881 
L 56.243515 -64.538513 
L 57.183704 -64.505861 
L 58.123893 -64.475424 
L 59.064081 -64.448621 
L 60.00427 -64.418509 
L 60.944458 -64.393063 
L 61.884647 -64.370865 
L 62.824835 -64.352706 
L 63.765024 -64.334299 
L 64.705213 -64.323409 
L 65.645401 -64.317771 
L 66.58559 -64.320745 
L 67.525778 -64.330712 
L 68.465967 -64.345405 
L 69.406155 -64.36743 
L 70.346344 -64.39995 
L 71.286533 -64.441143 
L 72.226721 -64.491369 
L 73.16691 -64.548097 
L 74.107098 -64.61366 
L 75.047287 -64.690927 
L 75.987476 -64.774918 
L 76.927664 -64.870562 
L 77.867853 -64.978385 
L 78.808041 -65.090461 
L 79.74823 -65.213698 
L 80.688418 -65.346149 
L 81.628607 -65.487417 
L 82.568796 -65.63359 
L 83.508984 -65.789053 
L 84.449173 -65.9538 
L 85.389361 -66.117175 
L 86.32955 -66.288332 
L 87.269738 -66.466416 
L 88.209927 -66.645022 
L 89.150116 -66.828334 
L 90.090304 -67.010549 
L 91.030493 -67.19364 
L 91.970681 -67.379624 
L 92.91087 -67.565038 
L 93.851059 -67.746484 
L 94.791247 -67.928385 
L 95.731436 -68.110921 
L 96.671624 -68.297337 
L 97.611813 -68.480544 
L 98.552001 -68.662976 
L 99.49219 -68.842148 
L 100.432379 -69.014956 
L 101.372567 -69.191688 
L 102.312756 -69.368411 
L 103.252944 -69.548563 
L 104.193133 -69.733588 
L 105.133321 -69.916659 
L 106.07351 -70.103117 
L 107.013699 -70.288237 
L 107.953887 -70.483466 
L 108.894076 -70.688206 
L 109.834264 -70.906498 
L 110.774453 -71.129754 
L 111.714642 -71.360902 
L 112.65483 -71.606205 
L 113.595019 -71.859095 
L 114.535207 -72.142084 
L 115.475396 -72.435167 
L 116.415584 -72.7408 
L 117.355773 -73.061738 
L 118.295962 -73.406778 
L 119.23615 -73.775348 
L 120.176339 -74.169109 
L 121.116527 -74.57554 
L 122.056716 -75.003859 
L 122.996904 -75.454745 
L 123.937093 -75.939345 
L 124.877282 -76.442555 
L 125.81747 -76.976889 
L 126.757659 -77.521796 
L 127.697847 -78.095672 
L 128.638036 -78.695806 
L 129.578225 -79.317301 
L 130.518413 -79.958939 
L 131.458602 -80.618768 
L 132.39879 -81.292509 
L 133.338979 -81.98136 
L 134.279167 -82.670703 
L 135.219356 -83.377241 
L 136.159545 -84.094629 
L 137.099733 -84.825241 
L 138.039922 -85.563374 
L 138.98011 -86.301708 
L 139.920299 -87.045829 
L 140.860487 -87.792774 
L 141.800676 -88.536969 
L 142.740865 -89.282923 
L 143.681053 -90.035372 
L 144.621242 -90.797916 
L 145.56143 -91.565273 
L 146.501619 -92.327728 
L 147.441808 -93.09485 
L 148.381996 -93.872483 
L 149.322185 -94.656664 
L 150.262373 -95.46046 
L 151.202562 -96.279479 
L 152.14275 -97.116174 
L 153.082939 -97.965898 
L 154.023128 -98.839965 
L 154.963316 -99.726893 
L 155.903505 -100.63057 
L 156.843693 -101.568149 
L 157.783882 -102.520013 
L 158.72407 -103.50199 
L 159.664259 -104.537872 
L 160.604448 -105.601318 
L 161.544636 -106.695309 
L 162.484825 -107.821744 
L 163.425013 -108.984032 
L 164.365202 -110.186812 
L 165.30539 -111.441135 
L 166.245579 -112.723542 
L 167.185768 -114.066606 
L 168.125956 -115.462108 
L 169.066145 -116.906657 
L 170.006333 -118.407211 
L 170.946522 -119.989986 
L 171.886711 -121.628001 
L 172.826899 -123.321055 
L 173.767088 -125.077974 
L 174.707276 -126.903576 
L 175.647465 -128.819033 
L 176.587653 -130.775962 
L 177.527842 -132.798323 
L 178.468031 -134.895361 
L 179.408219 -137.050576 
L 180.348408 -139.246428 
L 181.288596 -141.497404 
L 182.228785 -143.797372 
L 183.168973 -146.144408 
L 184.109162 -148.504272 
L 185.049351 -150.890765 
L 185.989539 -153.276646 
L 186.929728 -155.670414 
L 187.869916 -158.056675 
L 188.810105 -160.409496 
L 189.750294 -162.707807 
L 190.690482 -165.006359 
L 191.630671 -167.264868 
L 192.570859 -169.476769 
L 193.511048 -171.622426 
L 194.451236 -173.686214 
L 195.391425 -175.68942 
L 196.331614 -177.646622 
L 197.271802 -179.552299 
L 198.211991 -181.378554 
L 199.152179 -183.151757 
L 200.092368 -184.89757 
L 201.032556 -186.582836 
L 201.972745 -188.253961 
L 202.912934 -189.87746 
L 203.853122 -191.478225 
L 204.793311 -193.079076 
L 205.733499 -194.687449 
L 206.673688 -196.278431 
L 207.613877 -197.888844 
L 208.554065 -199.518327 
L 209.494254 -201.18745 
L 210.434442 -202.894717 
L 211.374631 -204.611457 
L 212.314819 -206.387221 
L 213.255008 -208.207772 
L 214.195197 -210.04451 
L 215.135385 -211.917998 
L 216.075574 -213.807829 
L 217.015762 -215.748957 
L 217.955951 -217.729481 
L 218.896139 -219.738826 
L 219.836328 -221.780099 
L 220.776517 -223.8292 
L 221.716705 -225.911345 
L 222.656894 -227.994453 
L 223.597082 -230.102084 
L 224.537271 -232.23669 
L 225.47746 -234.378878 
L 226.417648 -236.546392 
L 227.357837 -238.756872 
L 228.298025 -240.989387 
L 229.238214 -243.272462 
L 230.178402 -245.595948 
L 231.118591 -247.962592 
L 232.05878 -250.369552 
L 232.998968 -252.817365 
L 233.939157 -255.342241 
L 234.879345 -257.91561 
L 235.819534 -260.577515 
L 236.759722 -263.284736 
L 237.699911 -266.065936 
L 238.6401 -268.92501 
L 239.580288 -271.848346 
L 240.520477 -274.78346 
L 241.460665 -277.789193 
L 242.400854 -280.841092 
L 243.341043 -283.92381 
L 244.281231 -287.004828 
L 245.22142 -290.136588 
L 246.161608 -293.251013 
L 247.101797 -296.339565 
L 248.041985 -299.418772 
L 248.982174 -302.42794 
L 249.922363 -305.403287 
L 250.862551 -308.323185 
L 251.80274 -311.177775 
L 252.742928 -313.926502 
L 253.683117 -316.585236 
L 254.623305 -319.116634 
L 255.563494 -321.561633 
L 256.503683 -323.891324 
L 257.443871 -326.125965 
L 258.38406 -328.19598 
L 259.324248 -330.167673 
L 260.264437 -332.006242 
L 261.204626 -333.725802 
L 262.144814 -335.3358 
L 263.085003 -336.828557 
L 264.025191 -338.24414 
L 264.96538 -339.55976 
L 265.905568 -340.786812 
L 266.845757 -341.884173 
L 267.785946 -342.939423 
L 268.726134 -343.927927 
L 269.666323 -344.874015 
L 270.606511 -345.788081 
L 271.5467 -346.673698 
L 272.486888 -347.501339 
L 273.427077 -348.316799 
L 274.367266 -349.119122 
L 275.307454 -349.89255 
L 276.247643 -350.714965 
L 277.187831 -351.522466 
L 278.12802 -352.338456 
L 279.068209 -353.186133 
L 280.008397 -354.037961 
L 280.948586 -354.907858 
L 281.888774 -355.822566 
L 282.828963 -356.751652 
L 283.769151 -357.680422 
L 284.70934 -358.572294 
L 285.649529 -359.462033 
L 286.589717 -360.339714 
L 287.529906 -361.155971 
L 288.470094 -361.971126 
L 289.410283 -362.76948 
L 290.350471 -363.459716 
L 291.29066 -364.101553 
L 292.230849 -364.653872 
L 293.171037 -365.082062 
L 294.111226 -365.433476 
L 295.051414 -365.649602 
L 295.991603 -365.756364 
L 296.931791 -365.731786 
L 297.87198 -365.6118 
L 298.812169 -365.3517 
L 299.752357 -364.96268 
L 300.692546 -364.436527 
L 301.632734 -363.812868 
L 302.572923 -363.031313 
L 303.513112 -362.18052 
L 304.4533 -361.2182 
L 305.393489 -360.156495 
L 306.333677 -359.013128 
L 307.273866 -357.801965 
L 308.214054 -356.545439 
L 309.154243 -355.210281 
L 310.094432 -353.839988 
L 311.03462 -352.444294 
L 311.974809 -351.023837 
L 312.914997 -349.566384 
L 313.855186 -348.091738 
L 314.795374 -346.587543 
L 315.735563 -345.142616 
L 316.675752 -343.661812 
L 317.61594 -342.145561 
L 318.556129 -340.621681 
L 319.496317 -339.11804 
L 320.436506 -337.538532 
L 321.376695 -335.976648 
L 322.316883 -334.432852 
L 323.257072 -332.850922 
L 324.19726 -331.299758 
L 325.137449 -329.695709 
L 326.077637 -328.050607 
L 327.017826 -326.40205 
L 327.958015 -324.739904 
L 328.898203 -323.050103 
L 329.838392 -321.374659 
L 330.77858 -319.671195 
L 331.718769 -317.93246 
L 332.658957 -316.159803 
L 333.599146 -314.415999 
L 334.539335 -312.657012 
L 335.479523 -310.891338 
L 336.419712 -309.127011 
L 337.3599 -307.342103 
L 338.300089 -305.542398 
L 339.240278 -303.713075 
L 340.180466 -301.881852 
L 341.120655 -299.997562 
L 342.060843 -298.155874 
L 343.001032 -296.2686 
L 343.94122 -294.343657 
L 344.881409 -292.407763 
L 345.821598 -290.402667 
L 346.761786 -288.363027 
L 347.701975 -286.315216 
L 348.642163 -284.224341 
L 349.582352 -282.074972 
L 350.52254 -279.902456 
L 351.462729 -277.664543 
L 352.402918 -275.396472 
L 353.343106 -273.085787 
L 354.283295 -270.703245 
L 355.223483 -268.303551 
L 356.163672 -265.86819 
L 357.103861 -263.388938 
L 358.044049 -260.869578 
L 358.984238 -258.341584 
L 359.924426 -255.828577 
L 360.864615 -253.287648 
L 361.804803 -250.755674 
L 362.744992 -248.209678 
L 363.685181 -245.631432 
L 364.625369 -243.068827 
L 365.565558 -240.561219 
L 366.505746 -238.047768 
L 367.445935 -235.5296 
L 368.386123 -233.05814 
L 369.326312 -230.587008 
L 370.266501 -228.152936 
L 371.206689 -225.744585 
L 372.146878 -223.374763 
L 373.087066 -221.012458 
L 374.027255 -218.666052 
L 374.967444 -216.344546 
L 375.907632 -214.066647 
L 376.847821 -211.77868 
L 377.788009 -209.542303 
L 378.728198 -207.297525 
L 379.668386 -205.06841 
L 380.608575 -202.866664 
L 381.548764 -200.666479 
L 382.488952 -198.482049 
L 383.429141 -196.284229 
L 384.369329 -194.085235 
L 385.309518 -191.85881 
L 386.249706 -189.625446 
L 387.189895 -187.410762 
L 388.130084 -185.183547 
L 389.070272 -182.935405 
L 390.010461 -180.683394 
L 390.950649 -178.381781 
L 391.890838 -176.076266 
L 392.831027 -173.766102 
L 393.771215 -171.443459 
L 394.711404 -169.102449 
L 395.651592 -166.760294 
L 396.591781 -164.379848 
L 397.531969 -161.995176 
L 398.472158 -159.62511 
L 399.412347 -157.23085 
L 400.352535 -154.855335 
L 401.292724 -152.480223 
L 402.232912 -150.120711 
L 403.173101 -147.779321 
L 404.113289 -145.441976 
L 405.053478 -143.121578 
L 405.993667 -140.82662 
L 406.933855 -138.560237 
L 407.874044 -136.321109 
L 408.814232 -134.100071 
L 409.754421 -131.912462 
L 410.69461 -129.75492 
L 411.634798 -127.630459 
L 412.574987 -125.543783 
L 413.515175 -123.499039 
L 414.455364 -121.495315 
L 415.395552 -119.526465 
L 416.335741 -117.600738 
L 417.27593 -115.709823 
L 418.216118 -113.850445 
L 419.156307 -112.054328 
L 420.096495 -110.287518 
L 421.036684 -108.582281 
L 421.976872 -106.917616 
L 422.917061 -105.296397 
L 423.85725 -103.73884 
L 424.797438 -102.235339 
L 425.737627 -100.77644 
L 426.677815 -99.362688 
L 427.618004 -98.01378 
L 428.558192 -96.737595 
L 429.498381 -95.51725 
L 430.43857 -94.337582 
L 431.378758 -93.210332 
L 432.318947 -92.14738 
L 433.259135 -91.142712 
L 434.199324 -90.181973 
L 435.139513 -89.266512 
L 436.079701 -88.394342 
L 437.01989 -87.563059 
L 437.960078 -86.785484 
L 438.900267 -86.041836 
L 439.840455 -85.329791 
L 440.780644 -84.642483 
L 441.720833 -83.981702 
L 442.661021 -83.350325 
L 443.60121 -82.732721 
L 444.541398 -82.132393 
L 445.481587 -81.554075 
L 446.421775 -80.988978 
L 447.361964 -80.426697 
L 448.302153 -79.87253 
L 449.242341 -79.333392 
L 450.18253 -78.797906 
L 451.122718 -78.264603 
L 452.062907 -77.744802 
L 453.003096 -77.228044 
L 453.943284 -76.720394 
L 454.883473 -76.219164 
L 455.823661 -75.724685 
L 456.76385 -75.242486 
L 457.704038 -74.752762 
L 458.644227 -74.289326 
L 459.584416 -73.829979 
L 460.524604 -73.395466 
L 461.464793 -72.9689 
L 462.404981 -72.555118 
L 463.34517 -72.165395 
L 464.285358 -71.785985 
L 465.225547 -71.428518 
L 466.165736 -71.091034 
L 467.105924 -70.778061 
L 468.046113 -70.482415 
L 468.986301 -70.207248 
L 469.92649 -69.955438 
L 470.866679 -69.726283 
L 471.806867 -69.516094 
L 472.747056 -69.319889 
L 473.687244 -69.142278 
L 474.627433 -68.981971 
L 475.567621 -68.838723 
L 476.50781 -68.716005 
L 477.447999 -68.598837 
L 478.388187 -68.495472 
L 479.328376 -68.401303 
L 480.268564 -68.31234 
L 481.208753 -68.229576 
L 482.148941 -68.155716 
L 483.08913 -68.081506 
L 484.029319 -68.010657 
L 484.969507 -67.939899 
L 485.909696 -67.868384 
L 486.849884 -67.797087 
L 487.790073 -67.716194 
L 488.730262 -67.635943 
L 489.67045 -67.555572 
L 490.610639 -67.473032 
L 491.550827 -67.393725 
L 492.491016 -67.308285 
L 493.431204 -67.225218 
L 494.371393 -67.141913 
L 495.311582 -67.056412 
L 496.25177 -66.972295 
L 497.191959 -66.888059 
L 498.132147 -66.81154 
L 499.072336 -66.738425 
L 500.012524 -66.667153 
L 500.952713 -66.598166 
L 501.892902 -66.538959 
L 502.83309 -66.484223 
L 503.773279 -66.431973 
L 504.713467 -66.387254 
L 505.653656 -66.342796 
L 506.593845 -66.30838 
L 507.534033 -66.281018 
L 508.474222 -66.261241 
L 509.41441 -66.241165 
L 510.354599 -66.224954 
L 511.294787 -66.21229 
L 512.234976 -66.202829 
L 513.175165 -66.196206 
L 514.115353 -66.194885 
L 515.055542 -66.191346 
L 515.99573 -66.190168 
L 516.935919 -66.193114 
L 517.876107 -66.197027 
L 518.816296 -66.20443 
L 519.756485 -66.207864 
L 520.696673 -66.214814 
L 521.636862 -66.222198 
L 522.57705 -66.22474 
L 523.517239 -66.229886 
L 524.457428 -66.236737 
L 525.397616 -66.240104 
L 526.337805 -66.242577 
L 527.277993 -66.246163 
L 528.218182 -66.245736 
L 528.218182 -63.283636 
L 528.218182 -63.283636 
L 527.277993 -63.283636 
L 526.337805 -63.283636 
L 525.397616 -63.283636 
L 524.457428 -63.283636 
L 523.517239 -63.283636 
L 522.57705 -63.283636 
L 521.636862 -63.283636 
L 520.696673 -63.283636 
L 519.756485 -63.283636 
L 518.816296 -63.283636 
L 517.876107 -63.283636 
L 516.935919 -63.283636 
L 515.99573 -63.283636 
L 515.055542 -63.283636 
L 514.115353 -63.283636 
L 513.175165 -63.283636 
L 512.234976 -63.283636 
L 511.294787 -63.283636 
L 510.354599 -63.283636 
L 509.41441 -63.283636 
L 508.474222 -63.283636 
L 507.534033 -63.283636 
L 506.593845 -63.283636 
L 505.653656 -63.283636 
L 504.713467 -63.283636 
L 503.773279 -63.283636 
L 502.83309 -63.283636 
L 501.892902 -63.283636 
L 500.952713 -63.283636 
L 500.012524 -63.283636 
L 499.072336 -63.283636 
L 498.132147 -63.283636 
L 497.191959 -63.283636 
L 496.25177 -63.283636 
L 495.311582 -63.283636 
L 494.371393 -63.283636 
L 493.431204 -63.283636 
L 492.491016 -63.283636 
L 491.550827 -63.283636 
L 490.610639 -63.283636 
L 489.67045 -63.283636 
L 488.730262 -63.283636 
L 487.790073 -63.283636 
L 486.849884 -63.283636 
L 485.909696 -63.283636 
L 484.969507 -63.283636 
L 484.029319 -63.283636 
L 483.08913 -63.283636 
L 482.148941 -63.283636 
L 481.208753 -63.283636 
L 480.268564 -63.283636 
L 479.328376 -63.283636 
L 478.388187 -63.283636 
L 477.447999 -63.283636 
L 476.50781 -63.283636 
L 475.567621 -63.283636 
L 474.627433 -63.283636 
L 473.687244 -63.283636 
L 472.747056 -63.283636 
L 471.806867 -63.283636 
L 470.866679 -63.283636 
L 469.92649 -63.283636 
L 468.986301 -63.283636 
L 468.046113 -63.283636 
L 467.105924 -63.283636 
L 466.165736 -63.283636 
L 465.225547 -63.283636 
L 464.285358 -63.283636 
L 463.34517 -63.283636 
L 462.404981 -63.283636 
L 461.464793 -63.283636 
L 460.524604 -63.283636 
L 459.584416 -63.283636 
L 458.644227 -63.283636 
L 457.704038 -63.283636 
L 456.76385 -63.283636 
L 455.823661 -63.283636 
L 454.883473 -63.283636 
L 453.943284 -63.283636 
L 453.003096 -63.283636 
L 452.062907 -63.283636 
L 451.122718 -63.283636 
L 450.18253 -63.283636 
L 449.242341 -63.283636 
L 448.302153 -63.283636 
L 447.361964 -63.283636 
L 446.421775 -63.283636 
L 445.481587 -63.283636 
L 444.541398 -63.283636 
L 443.60121 -63.283636 
L 442.661021 -63.283636 
L 441.720833 -63.283636 
L 440.780644 -63.283636 
L 439.840455 -63.283636 
L 438.900267 -63.283636 
L 437.960078 -63.283636 
L 437.01989 -63.283636 
L 436.079701 -63.283636 
L 435.139513 -63.283636 
L 434.199324 -63.283636 
L 433.259135 -63.283636 
L 432.318947 -63.283636 
L 431.378758 -63.283636 
L 430.43857 -63.283636 
L 429.498381 -63.283636 
L 428.558192 -63.283636 
L 427.618004 -63.283636 
L 426.677815 -63.283636 
L 425.737627 -63.283636 
L 424.797438 -63.283636 
L 423.85725 -63.283636 
L 422.917061 -63.283636 
L 421.976872 -63.283636 
L 421.036684 -63.283636 
L 420.096495 -63.283636 
L 419.156307 -63.283636 
L 418.216118 -63.283636 
L 417.27593 -63.283636 
L 416.335741 -63.283636 
L 415.395552 -63.283636 
L 414.455364 -63.283636 
L 413.515175 -63.283636 
L 412.574987 -63.283636 
L 411.634798 -63.283636 
L 410.69461 -63.283636 
L 409.754421 -63.283636 
L 408.814232 -63.283636 
L 407.874044 -63.283636 
L 406.933855 -63.283636 
L 405.993667 -63.283636 
L 405.053478 -63.283636 
L 404.113289 -63.283636 
L 403.173101 -63.283636 
L 402.232912 -63.283636 
L 401.292724 -63.283636 
L 400.352535 -63.283636 
L 399.412347 -63.283636 
L 398.472158 -63.283636 
L 397.531969 -63.283636 
L 396.591781 -63.283636 
L 395.651592 -63.283636 
L 394.711404 -63.283636 
L 393.771215 -63.283636 
L 392.831027 -63.283636 
L 391.890838 -63.283636 
L 390.950649 -63.283636 
L 390.010461 -63.283636 
L 389.070272 -63.283636 
L 388.130084 -63.283636 
L 387.189895 -63.283636 
L 386.249706 -63.283636 
L 385.309518 -63.283636 
L 384.369329 -63.283636 
L 383.429141 -63.283636 
L 382.488952 -63.283636 
L 381.548764 -63.283636 
L 380.608575 -63.283636 
L 379.668386 -63.283636 
L 378.728198 -63.283636 
L 377.788009 -63.283636 
L 376.847821 -63.283636 
L 375.907632 -63.283636 
L 374.967444 -63.283636 
L 374.027255 -63.283636 
L 373.087066 -63.283636 
L 372.146878 -63.283636 
L 371.206689 -63.283636 
L 370.266501 -63.283636 
L 369.326312 -63.283636 
L 368.386123 -63.283636 
L 367.445935 -63.283636 
L 366.505746 -63.283636 
L 365.565558 -63.283636 
L 364.625369 -63.283636 
L 363.685181 -63.283636 
L 362.744992 -63.283636 
L 361.804803 -63.283636 
L 360.864615 -63.283636 
L 359.924426 -63.283636 
L 358.984238 -63.283636 
L 358.044049 -63.283636 
L 357.103861 -63.283636 
L 356.163672 -63.283636 
L 355.223483 -63.283636 
L 354.283295 -63.283636 
L 353.343106 -63.283636 
L 352.402918 -63.283636 
L 351.462729 -63.283636 
L 350.52254 -63.283636 
L 349.582352 -63.283636 
L 348.642163 -63.283636 
L 347.701975 -63.283636 
L 346.761786 -63.283636 
L 345.821598 -63.283636 
L 344.881409 -63.283636 
L 343.94122 -63.283636 
L 343.001032 -63.283636 
L 342.060843 -63.283636 
L 341.120655 -63.283636 
L 340.180466 -63.283636 
L 339.240278 -63.283636 
L 338.300089 -63.283636 
L 337.3599 -63.283636 
L 336.419712 -63.283636 
L 335.479523 -63.283636 
L 334.539335 -63.283636 
L 333.599146 -63.283636 
L 332.658957 -63.283636 
L 331.718769 -63.283636 
L 330.77858 -63.283636 
L 329.838392 -63.283636 
L 328.898203 -63.283636 
L 327.958015 -63.283636 
L 327.017826 -63.283636 
L 326.077637 -63.283636 
L 325.137449 -63.283636 
L 324.19726 -63.283636 
L 323.257072 -63.283636 
L 322.316883 -63.283636 
L 321.376695 -63.283636 
L 320.436506 -63.283636 
L 319.496317 -63.283636 
L 318.556129 -63.283636 
L 317.61594 -63.283636 
L 316.675752 -63.283636 
L 315.735563 -63.283636 
L 314.795374 -63.283636 
L 313.855186 -63.283636 
L 312.914997 -63.283636 
L 311.974809 -63.283636 
L 311.03462 -63.283636 
L 310.094432 -63.283636 
L 309.154243 -63.283636 
L 308.214054 -63.283636 
L 307.273866 -63.283636 
L 306.333677 -63.283636 
L 305.393489 -63.283636 
L 304.4533 -63.283636 
L 303.513112 -63.283636 
L 302.572923 -63.283636 
L 301.632734 -63.283636 
L 300.692546 -63.283636 
L 299.752357 -63.283636 
L 298.812169 -63.283636 
L 297.87198 -63.283636 
L 296.931791 -63.283636 
L 295.991603 -63.283636 
L 295.051414 -63.283636 
L 294.111226 -63.283636 
L 293.171037 -63.283636 
L 292.230849 -63.283636 
L 291.29066 -63.283636 
L 290.350471 -63.283636 
L 289.410283 -63.283636 
L 288.470094 -63.283636 
L 287.529906 -63.283636 
L 286.589717 -63.283636 
L 285.649529 -63.283636 
L 284.70934 -63.283636 
L 283.769151 -63.283636 
L 282.828963 -63.283636 
L 281.888774 -63.283636 
L 280.948586 -63.283636 
L 280.008397 -63.283636 
L 279.068209 -63.283636 
L 278.12802 -63.283636 
L 277.187831 -63.283636 
L 276.247643 -63.283636 
L 275.307454 -63.283636 
L 274.367266 -63.283636 
L 273.427077 -63.283636 
L 272.486888 -63.283636 
L 271.5467 -63.283636 
L 270.606511 -63.283636 
L 269.666323 -63.283636 
L 268.726134 -63.283636 
L 267.785946 -63.283636 
L 266.845757 -63.283636 
L 265.905568 -63.283636 
L 264.96538 -63.283636 
L 264.025191 -63.283636 
L 263.085003 -63.283636 
L 262.144814 -63.283636 
L 261.204626 -63.283636 
L 260.264437 -63.283636 
L 259.324248 -63.283636 
L 258.38406 -63.283636 
L 257.443871 -63.283636 
L 256.503683 -63.283636 
L 255.563494 -63.283636 
L 254.623305 -63.283636 
L 253.683117 -63.283636 
L 252.742928 -63.283636 
L 251.80274 -63.283636 
L 250.862551 -63.283636 
L 249.922363 -63.283636 
L 248.982174 -63.283636 
L 248.041985 -63.283636 
L 247.101797 -63.283636 
L 246.161608 -63.283636 
L 245.22142 -63.283636 
L 244.281231 -63.283636 
L 243.341043 -63.283636 
L 242.400854 -63.283636 
L 241.460665 -63.283636 
L 240.520477 -63.283636 
L 239.580288 -63.283636 
L 238.6401 -63.283636 
L 237.699911 -63.283636 
L 236.759722 -63.283636 
L 235.819534 -63.283636 
L 234.879345 -63.283636 
L 233.939157 -63.283636 
L 232.998968 -63.283636 
L 232.05878 -63.283636 
L 231.118591 -63.283636 
L 230.178402 -63.283636 
L 229.238214 -63.283636 
L 228.298025 -63.283636 
L 227.357837 -63.283636 
L 226.417648 -63.283636 
L 225.47746 -63.283636 
L 224.537271 -63.283636 
L 223.597082 -63.283636 
L 222.656894 -63.283636 
L 221.716705 -63.283636 
L 220.776517 -63.283636 
L 219.836328 -63.283636 
L 218.896139 -63.283636 
L 217.955951 -63.283636 
L 217.015762 -63.283636 
L 216.075574 -63.283636 
L 215.135385 -63.283636 
L 214.195197 -63.283636 
L 213.255008 -63.283636 
L 212.314819 -63.283636 
L 211.374631 -63.283636 
L 210.434442 -63.283636 
L 209.494254 -63.283636 
L 208.554065 -63.283636 
L 207.613877 -63.283636 
L 206.673688 -63.283636 
L 205.733499 -63.283636 
L 204.793311 -63.283636 
L 203.853122 -63.283636 
L 202.912934 -63.283636 
L 201.972745 -63.283636 
L 201.032556 -63.283636 
L 200.092368 -63.283636 
L 199.152179 -63.283636 
L 198.211991 -63.283636 
L 197.271802 -63.283636 
L 196.331614 -63.283636 
L 195.391425 -63.283636 
L 194.451236 -63.283636 
L 193.511048 -63.283636 
L 192.570859 -63.283636 
L 191.630671 -63.283636 
L 190.690482 -63.283636 
L 189.750294 -63.283636 
L 188.810105 -63.283636 
L 187.869916 -63.283636 
L 186.929728 -63.283636 
L 185.989539 -63.283636 
L 185.049351 -63.283636 
L 184.109162 -63.283636 
L 183.168973 -63.283636 
L 182.228785 -63.283636 
L 181.288596 -63.283636 
L 180.348408 -63.283636 
L 179.408219 -63.283636 
L 178.468031 -63.283636 
L 177.527842 -63.283636 
L 176.587653 -63.283636 
L 175.647465 -63.283636 
L 174.707276 -63.283636 
L 173.767088 -63.283636 
L 172.826899 -63.283636 
L 171.886711 -63.283636 
L 170.946522 -63.283636 
L 170.006333 -63.283636 
L 169.066145 -63.283636 
L 168.125956 -63.283636 
L 167.185768 -63.283636 
L 166.245579 -63.283636 
L 165.30539 -63.283636 
L 164.365202 -63.283636 
L 163.425013 -63.283636 
L 162.484825 -63.283636 
L 161.544636 -63.283636 
L 160.604448 -63.283636 
L 159.664259 -63.283636 
L 158.72407 -63.283636 
L 157.783882 -63.283636 
L 156.843693 -63.283636 
L 155.903505 -63.283636 
L 154.963316 -63.283636 
L 154.023128 -63.283636 
L 153.082939 -63.283636 
L 152.14275 -63.283636 
L 151.202562 -63.283636 
L 150.262373 -63.283636 
L 149.322185 -63.283636 
L 148.381996 -63.283636 
L 147.441808 -63.283636 
L 146.501619 -63.283636 
L 145.56143 -63.283636 
L 144.621242 -63.283636 
L 143.681053 -63.283636 
L 142.740865 -63.283636 
L 141.800676 -63.283636 
L 140.860487 -63.283636 
L 139.920299 -63.283636 
L 138.98011 -63.283636 
L 138.039922 -63.283636 
L 137.099733 -63.283636 
L 136.159545 -63.283636 
L 135.219356 -63.283636 
L 134.279167 -63.283636 
L 133.338979 -63.283636 
L 132.39879 -63.283636 
L 131.458602 -63.283636 
L 130.518413 -63.283636 
L 129.578225 -63.283636 
L 128.638036 -63.283636 
L 127.697847 -63.283636 
L 126.757659 -63.283636 
L 125.81747 -63.283636 
L 124.877282 -63.283636 
L 123.937093 -63.283636 
L 122.996904 -63.283636 
L 122.056716 -63.283636 
L 121.116527 -63.283636 
L 120.176339 -63.283636 
L 119.23615 -63.283636 
L 118.295962 -63.283636 
L 117.355773 -63.283636 
L 116.415584 -63.283636 
L 115.475396 -63.283636 
L 114.535207 -63.283636 
L 113.595019 -63.283636 
L 112.65483 -63.283636 
L 111.714642 -63.283636 
L 110.774453 -63.283636 
L 109.834264 -63.283636 
L 108.894076 -63.283636 
L 107.953887 -63.283636 
L 107.013699 -63.283636 
L 106.07351 -63.283636 
L 105.133321 -63.283636 
L 104.193133 -63.283636 
L 103.252944 -63.283636 
L 102.312756 -63.283636 
L 101.372567 -63.283636 
L 100.432379 -63.283636 
L 99.49219 -63.283636 
L 98.552001 -63.283636 
L 97.611813 -63.283636 
L 96.671624 -63.283636 
L 95.731436 -63.283636 
L 94.791247 -63.283636 
L 93.851059 -63.283636 
L 92.91087 -63.283636 
L 91.970681 -63.283636 
L 91.030493 -63.283636 
L 90.090304 -63.283636 
L 89.150116 -63.283636 
L 88.209927 -63.283636 
L 87.269738 -63.283636 
L 86.32955 -63.283636 
L 85.389361 -63.283636 
L 84.449173 -63.283636 
L 83.508984 -63.283636 
L 82.568796 -63.283636 
L 81.628607 -63.283636 
L 80.688418 -63.283636 
L 79.74823 -63.283636 
L 78.808041 -63.283636 
L 77.867853 -63.283636 
L 76.927664 -63.283636 
L 75.987476 -63.283636 
L 75.047287 -63.283636 
L 74.107098 -63.283636 
L 73.16691 -63.283636 
L 72.226721 -63.283636 
L 71.286533 -63.283636 
L 70.346344 -63.283636 
L 69.406155 -63.283636 
L 68.465967 -63.283636 
L 67.525778 -63.283636 
L 66.58559 -63.283636 
L 65.645401 -63.283636 
L 64.705213 -63.283636 
L 63.765024 -63.283636 
L 62.824835 -63.283636 
L 61.884647 -63.283636 
L 60.944458 -63.283636 
L 60.00427 -63.283636 
L 59.064081 -63.283636 
L 58.123893 -63.283636 
L 57.183704 -63.283636 
L 56.243515 -63.283636 
L 55.303327 -63.283636 
L 54.363138 -63.283636 
L 53.42295 -63.283636 
L 52.482761 -63.283636 
L 51.542572 -63.283636 
L 50.602384 -63.283636 
L 49.662195 -63.283636 
L 48.722007 -63.283636 
L 47.781818 -63.283636 
z
"/>
    </defs>
    <g clip-path="url(#p5a72a40fa1)">
     <use xlink:href="#m030ef908c2" x="0" y="432" style="fill: #51d7c1; fill-opacity: 0.6"/>
    </g>
   </g>
   <g id="line2d_19">
    <path d="M 47.781818 367.293515 
L 55.303327 367.430119 
L 65.645401 367.682229 
L 71.286533 367.558857 
L 75.987476 367.225082 
L 80.688418 366.653851 
L 86.32955 365.711668 
L 107.953887 361.516534 
L 112.65483 360.393795 
L 115.475396 359.564833 
L 118.295962 358.593222 
L 121.116527 357.42446 
L 123.937093 356.060655 
L 126.757659 354.478204 
L 129.578225 352.682699 
L 133.338979 350.01864 
L 138.039922 346.436626 
L 146.501619 339.672272 
L 151.202562 335.720521 
L 154.963316 332.273107 
L 157.783882 329.479987 
L 160.604448 326.398682 
L 163.425013 323.015968 
L 166.245579 319.276458 
L 169.066145 315.093343 
L 170.946522 312.010014 
L 173.767088 306.922026 
L 176.587653 301.224038 
L 179.408219 294.949424 
L 182.228785 288.202628 
L 192.570859 262.523231 
L 195.391425 256.31058 
L 198.211991 250.621446 
L 201.972745 243.746039 
L 211.374631 227.388543 
L 215.135385 220.082002 
L 217.955951 214.270519 
L 222.656894 204.005547 
L 227.357837 193.243128 
L 231.118591 184.037408 
L 233.939157 176.657759 
L 236.759722 168.715264 
L 239.580288 160.151654 
L 243.341043 148.07619 
L 250.862551 123.676815 
L 253.683117 115.414764 
L 256.503683 108.108676 
L 258.38406 103.80402 
L 260.264437 99.993758 
L 262.144814 96.6642 
L 264.025191 93.75586 
L 265.905568 91.213188 
L 268.726134 88.072073 
L 271.5467 85.326302 
L 282.828963 75.248348 
L 286.589717 71.660286 
L 290.350471 68.540284 
L 292.230849 67.346128 
L 294.111226 66.566524 
L 295.991603 66.243636 
L 297.87198 66.3882 
L 298.812169 66.6483 
L 299.752357 67.03732 
L 301.632734 68.187132 
L 303.513112 69.81948 
L 305.393489 71.843505 
L 307.273866 74.198035 
L 309.154243 76.789719 
L 312.914997 82.433616 
L 319.496317 92.88196 
L 327.958015 107.260096 
L 333.599146 117.584001 
L 340.180466 130.118148 
L 345.821598 141.597333 
L 349.582352 149.925028 
L 352.402918 156.603528 
L 356.163672 166.13181 
L 362.744992 183.790322 
L 368.386123 198.94186 
L 373.087066 210.987542 
L 377.788009 222.457697 
L 386.249706 242.374554 
L 391.890838 255.923734 
L 398.472158 272.37489 
L 405.053478 288.878422 
L 409.754421 300.087538 
L 413.515175 308.500961 
L 417.27593 316.290177 
L 420.096495 321.712482 
L 422.917061 326.703603 
L 425.737627 331.22356 
L 427.618004 333.98622 
L 430.43857 337.662418 
L 432.318947 339.85262 
L 435.139513 342.733488 
L 437.960078 345.214516 
L 440.780644 347.357517 
L 444.541398 349.867607 
L 449.242341 352.666608 
L 454.883473 355.780836 
L 459.584416 358.170021 
L 463.34517 359.834605 
L 466.165736 360.908966 
L 469.92649 362.044562 
L 473.687244 362.857722 
L 477.447999 363.401163 
L 483.08913 363.918494 
L 495.311582 364.943588 
L 502.83309 365.515777 
L 508.474222 365.738759 
L 515.99573 365.809832 
L 528.218182 365.754264 
L 528.218182 365.754264 
" clip-path="url(#p5a72a40fa1)" style="fill: none; stroke: #51d7c1; stroke-width: 1.5; stroke-linecap: round"/>
   </g>
   <g id="line2d_20">
    <path d="M 186.3197 362.364436 
L 398.901403 362.364436 
" clip-path="url(#p5a72a40fa1)" style="fill: none; stroke: #51d7c1; stroke-width: 3.5; stroke-linecap: round"/>
   </g>
   <g id="patch_3">
    <path d="M 23.76 383.84 
L 552.24 383.84 
" style="fill: none; stroke: #333333; stroke-width: 1.5; stroke-linejoin: miter; stroke-linecap: square"/>
   </g>
   <g id="text_6">
    <!-- $C$ -->
    <g style="fill: #262626" transform="translate(278.2 45.12)">
     <text>
      <tspan x="0" y="-0.21875" style="font-style: oblique; font-size: 28px; font-family: 'DejaVu Sans'; fill: #262626">C</tspan>
     </text>
    </g>
   </g>
  </g>
 </g>
 <defs>
  <clipPath id="p5a72a40fa1">
   <rect x="23.76" y="51.12" width="528.48" height="332.72"/>
  </clipPath>
 </defs>
</svg>
