<?xml version="1.0" encoding="utf-8" standalone="no"?>
<!DOCTYPE svg PUBLIC "-//W3C//DTD SVG 1.1//EN"
  "http://www.w3.org/Graphics/SVG/1.1/DTD/svg11.dtd">
<svg xmlns:xlink="http://www.w3.org/1999/xlink" width="576pt" height="432pt" viewBox="0 0 576 432" xmlns="http://www.w3.org/2000/svg" version="1.1">
 <metadata>
  <rdf:RDF xmlns:dc="http://purl.org/dc/elements/1.1/" xmlns:cc="http://creativecommons.org/ns#" xmlns:rdf="http://www.w3.org/1999/02/22-rdf-syntax-ns#">
   <cc:Work>
    <dc:type rdf:resource="http://purl.org/dc/dcmitype/StillImage"/>
    <dc:date>2025-09-23T14:40:21.213776</dc:date>
    <dc:format>image/svg+xml</dc:format>
    <dc:creator>
     <cc:Agent>
      <dc:title>Matplotlib v3.10.0, https://matplotlib.org/</dc:title>
     </cc:Agent>
    </dc:creator>
   </cc:Work>
  </rdf:RDF>
 </metadata>
 <defs>
  <style type="text/css">*{stroke-linejoin: round; stroke-linecap: butt}</style>
 </defs>
 <g id="figure_1">
  <g id="patch_1">
   <path d="M 0 432 
L 576 432 
L 576 0 
L 0 0 
L 0 432 
z
" style="fill: none; opacity: 0"/>
  </g>
  <g id="axes_1">
   <g id="patch_2">
    <path d="M 23.76 383.84 
L 552.24 383.84 
L 552.24 51.12 
L 23.76 51.12 
L 23.76 383.84 
z
" style="fill: none"/>
   </g>
   <g id="matplotlib.axis_1">
    <g id="xtick_1">
     <g id="line2d_1">
      <path d="M 47.780568 383.84 
L 47.780568 51.12 
" clip-path="url(#p93a98782ba)" style="fill: none; stroke: #ffffff; stroke-opacity: 0.4; stroke-linecap: round"/>
     </g>
     <g id="line2d_2"/>
     <g id="text_1">
      <text style="font-size: 18px; font-family: 'DejaVu Serif', 'Times New Roman', serif; text-anchor: middle; fill: #262626" x="47.780568" y="404.517187" transform="rotate(-0 47.780568 404.517187)">0</text>
     </g>
    </g>
    <g id="xtick_2">
     <g id="line2d_3">
      <path d="M 134.143496 383.84 
L 134.143496 51.12 
" clip-path="url(#p93a98782ba)" style="fill: none; stroke: #ffffff; stroke-opacity: 0.4; stroke-linecap: round"/>
     </g>
     <g id="line2d_4"/>
     <g id="text_2">
      <text style="font-size: 18px; font-family: 'DejaVu Serif', 'Times New Roman', serif; text-anchor: middle; fill: #262626" x="134.143496" y="404.517187" transform="rotate(-0 134.143496 404.517187)">2</text>
     </g>
    </g>
    <g id="xtick_3">
     <g id="line2d_5">
      <path d="M 220.506423 383.84 
L 220.506423 51.12 
" clip-path="url(#p93a98782ba)" style="fill: none; stroke: #ffffff; stroke-opacity: 0.4; stroke-linecap: round"/>
     </g>
     <g id="line2d_6"/>
     <g id="text_3">
      <text style="font-size: 18px; font-family: 'DejaVu Serif', 'Times New Roman', serif; text-anchor: middle; fill: #262626" x="220.506423" y="404.517187" transform="rotate(-0 220.506423 404.517187)">4</text>
     </g>
    </g>
    <g id="xtick_4">
     <g id="line2d_7">
      <path d="M 306.869351 383.84 
L 306.869351 51.12 
" clip-path="url(#p93a98782ba)" style="fill: none; stroke: #ffffff; stroke-opacity: 0.4; stroke-linecap: round"/>
     </g>
     <g id="line2d_8"/>
     <g id="text_4">
      <text style="font-size: 18px; font-family: 'DejaVu Serif', 'Times New Roman', serif; text-anchor: middle; fill: #262626" x="306.869351" y="404.517187" transform="rotate(-0 306.869351 404.517187)">6</text>
     </g>
    </g>
    <g id="xtick_5">
     <g id="line2d_9">
      <path d="M 393.232279 383.84 
L 393.232279 51.12 
" clip-path="url(#p93a98782ba)" style="fill: none; stroke: #ffffff; stroke-opacity: 0.4; stroke-linecap: round"/>
     </g>
     <g id="line2d_10"/>
     <g id="text_5">
      <text style="font-size: 18px; font-family: 'DejaVu Serif', 'Times New Roman', serif; text-anchor: middle; fill: #262626" x="393.232279" y="404.517187" transform="rotate(-0 393.232279 404.517187)">8</text>
     </g>
    </g>
    <g id="xtick_6">
     <g id="line2d_11">
      <path d="M 479.595207 383.84 
L 479.595207 51.12 
" clip-path="url(#p93a98782ba)" style="fill: none; stroke: #ffffff; stroke-opacity: 0.4; stroke-linecap: round"/>
     </g>
     <g id="line2d_12"/>
     <g id="text_6">
      <text style="font-size: 18px; font-family: 'DejaVu Serif', 'Times New Roman', serif; text-anchor: middle; fill: #262626" x="479.595207" y="404.517187" transform="rotate(-0 479.595207 404.517187)">10</text>
     </g>
    </g>
   </g>
   <g id="matplotlib.axis_2">
    <g id="ytick_1">
     <g id="line2d_13">
      <path d="M 23.76 368.716364 
L 552.24 368.716364 
" clip-path="url(#p93a98782ba)" style="fill: none; stroke: #ffffff; stroke-opacity: 0.4; stroke-linecap: round"/>
     </g>
    </g>
    <g id="ytick_2">
     <g id="line2d_14">
      <path d="M 23.76 319.175245 
L 552.24 319.175245 
" clip-path="url(#p93a98782ba)" style="fill: none; stroke: #ffffff; stroke-opacity: 0.4; stroke-linecap: round"/>
     </g>
    </g>
    <g id="ytick_3">
     <g id="line2d_15">
      <path d="M 23.76 269.634126 
L 552.24 269.634126 
" clip-path="url(#p93a98782ba)" style="fill: none; stroke: #ffffff; stroke-opacity: 0.4; stroke-linecap: round"/>
     </g>
    </g>
    <g id="ytick_4">
     <g id="line2d_16">
      <path d="M 23.76 220.093007 
L 552.24 220.093007 
" clip-path="url(#p93a98782ba)" style="fill: none; stroke: #ffffff; stroke-opacity: 0.4; stroke-linecap: round"/>
     </g>
    </g>
    <g id="ytick_5">
     <g id="line2d_17">
      <path d="M 23.76 170.551889 
L 552.24 170.551889 
" clip-path="url(#p93a98782ba)" style="fill: none; stroke: #ffffff; stroke-opacity: 0.4; stroke-linecap: round"/>
     </g>
    </g>
    <g id="ytick_6">
     <g id="line2d_18">
      <path d="M 23.76 121.01077 
L 552.24 121.01077 
" clip-path="url(#p93a98782ba)" style="fill: none; stroke: #ffffff; stroke-opacity: 0.4; stroke-linecap: round"/>
     </g>
    </g>
    <g id="ytick_7">
     <g id="line2d_19">
      <path d="M 23.76 71.469651 
L 552.24 71.469651 
" clip-path="url(#p93a98782ba)" style="fill: none; stroke: #ffffff; stroke-opacity: 0.4; stroke-linecap: round"/>
     </g>
    </g>
   </g>
   <g id="FillBetweenPolyCollection_1">
    <defs>
     <path id="m5c3cbef575" d="M 48.251453 -63.283636 
L 48.251453 -365.756364 
L 49.190722 -365.263476 
L 50.129992 -363.851989 
L 51.069262 -361.548111 
L 52.008531 -358.569593 
L 52.947801 -354.945192 
L 53.88707 -350.90314 
L 54.82634 -346.746287 
L 55.765609 -342.599397 
L 56.704879 -338.661826 
L 57.644148 -334.998286 
L 58.583418 -331.645591 
L 59.522687 -328.427037 
L 60.461957 -325.279298 
L 61.401226 -321.984381 
L 62.340496 -318.324675 
L 63.279765 -314.229671 
L 64.219035 -309.53407 
L 65.158304 -304.263227 
L 66.097574 -298.518931 
L 67.036844 -292.310667 
L 67.976113 -285.765357 
L 68.915383 -279.098615 
L 69.854652 -272.393217 
L 70.793922 -265.76173 
L 71.733191 -259.232588 
L 72.672461 -252.788418 
L 73.61173 -246.393657 
L 74.551 -239.929893 
L 75.490269 -233.385737 
L 76.429539 -226.739616 
L 77.368808 -220.121729 
L 78.308078 -213.628937 
L 79.247347 -207.378686 
L 80.186617 -201.509563 
L 81.125886 -196.052914 
L 82.065156 -191.067853 
L 83.004425 -186.424299 
L 83.943695 -182.033091 
L 84.882965 -177.753651 
L 85.822234 -173.559045 
L 86.761504 -169.426531 
L 87.700773 -165.367091 
L 88.640043 -161.449995 
L 89.579312 -157.662757 
L 90.518582 -153.997433 
L 91.457851 -150.418614 
L 92.397121 -146.810048 
L 93.33639 -143.082653 
L 94.27566 -139.216185 
L 95.214929 -135.161062 
L 96.154199 -131.060976 
L 97.093468 -126.960163 
L 98.032738 -123.026001 
L 98.972007 -119.372368 
L 99.911277 -116.078573 
L 100.850547 -113.211081 
L 101.789816 -110.811452 
L 102.729086 -108.821814 
L 103.668355 -107.194258 
L 104.607625 -105.864519 
L 105.546894 -104.689717 
L 106.486164 -103.590295 
L 107.425433 -102.433462 
L 108.364703 -101.15167 
L 109.303972 -99.681101 
L 110.243242 -98.012922 
L 111.182511 -96.211346 
L 112.121781 -94.292143 
L 113.06105 -92.364374 
L 114.00032 -90.490348 
L 114.939589 -88.739573 
L 115.878859 -87.172662 
L 116.818128 -85.812715 
L 117.757398 -84.677364 
L 118.696668 -83.769673 
L 119.635937 -83.064789 
L 120.575207 -82.518206 
L 121.514476 -82.11824 
L 122.453746 -81.795763 
L 123.393015 -81.527654 
L 124.332285 -81.255559 
L 125.271554 -80.954783 
L 126.210824 -80.605333 
L 127.150093 -80.212016 
L 128.089363 -79.781557 
L 129.028632 -79.320542 
L 129.967902 -78.837639 
L 130.907171 -78.322302 
L 131.846441 -77.804575 
L 132.78571 -77.248852 
L 133.72498 -76.653384 
L 134.66425 -76.006614 
L 135.603519 -75.303621 
L 136.542789 -74.570615 
L 137.482058 -73.823403 
L 138.421328 -73.122349 
L 139.360597 -72.495642 
L 140.299867 -71.98844 
L 141.239136 -71.631805 
L 142.178406 -71.410605 
L 143.117675 -71.313794 
L 144.056945 -71.31932 
L 144.996214 -71.377058 
L 145.935484 -71.443251 
L 146.874753 -71.495267 
L 147.814023 -71.507553 
L 148.753292 -71.463257 
L 149.692562 -71.371332 
L 150.631832 -71.215485 
L 151.571101 -71.001376 
L 152.510371 -70.746162 
L 153.44964 -70.456354 
L 154.38891 -70.157049 
L 155.328179 -69.859609 
L 156.267449 -69.572022 
L 157.206718 -69.319733 
L 158.145988 -69.092694 
L 159.085257 -68.882396 
L 160.024527 -68.690986 
L 160.963796 -68.494866 
L 161.903066 -68.291535 
L 162.842335 -68.081513 
L 163.781605 -67.875598 
L 164.720874 -67.695198 
L 165.660144 -67.546906 
L 166.599413 -67.456288 
L 167.538683 -67.415336 
L 168.477953 -67.428265 
L 169.417222 -67.476609 
L 170.356492 -67.535866 
L 171.295761 -67.587646 
L 172.235031 -67.607717 
L 173.1743 -67.582935 
L 174.11357 -67.506112 
L 175.052839 -67.368762 
L 175.992109 -67.170499 
L 176.931378 -66.917043 
L 177.870648 -66.626319 
L 178.809917 -66.305479 
L 179.749187 -65.980693 
L 180.688456 -65.667027 
L 181.627726 -65.38042 
L 182.566995 -65.133294 
L 183.506265 -64.938399 
L 184.445535 -64.782404 
L 185.384804 -64.673439 
L 186.324074 -64.595775 
L 187.263343 -64.551969 
L 188.202613 -64.535711 
L 189.141882 -64.549214 
L 190.081152 -64.601113 
L 191.020421 -64.6751 
L 191.959691 -64.775397 
L 192.89896 -64.882247 
L 193.83823 -64.984972 
L 194.777499 -65.066467 
L 195.716769 -65.117986 
L 196.656038 -65.135091 
L 197.595308 -65.117123 
L 198.534577 -65.062831 
L 199.473847 -64.988378 
L 200.413117 -64.894528 
L 201.352386 -64.789023 
L 202.291656 -64.680374 
L 203.230925 -64.569509 
L 204.170195 -64.461257 
L 205.109464 -64.36104 
L 206.048734 -64.270823 
L 206.988003 -64.19197 
L 207.927273 -64.129484 
L 208.866542 -64.089905 
L 209.805812 -64.08955 
L 210.745081 -64.12264 
L 211.684351 -64.190551 
L 212.62362 -64.290475 
L 213.56289 -64.405558 
L 214.502159 -64.523914 
L 215.441429 -64.625678 
L 216.380698 -64.694785 
L 217.319968 -64.720677 
L 218.259238 -64.703163 
L 219.198507 -64.647877 
L 220.137777 -64.564813 
L 221.077046 -64.466734 
L 222.016316 -64.363631 
L 222.955585 -64.26529 
L 223.894855 -64.178674 
L 224.834124 -64.108264 
L 225.773394 -64.056685 
L 226.712663 -64.02629 
L 227.651933 -64.016579 
L 228.591202 -64.022321 
L 229.530472 -64.038671 
L 230.469741 -64.059255 
L 231.409011 -64.077072 
L 232.34828 -64.079981 
L 233.28755 -64.066031 
L 234.22682 -64.030261 
L 235.166089 -63.980351 
L 236.105359 -63.918601 
L 237.044628 -63.855184 
L 237.983898 -63.794043 
L 238.923167 -63.7412 
L 239.862437 -63.699571 
L 240.801706 -63.669107 
L 241.740976 -63.649428 
L 242.680245 -63.638924 
L 243.619515 -63.635202 
L 244.558784 -63.634264 
L 245.498054 -63.634071 
L 246.437323 -63.636257 
L 247.376593 -63.634327 
L 248.315862 -63.62966 
L 249.255132 -63.618505 
L 250.194401 -63.602191 
L 251.133671 -63.580437 
L 252.072941 -63.55845 
L 253.01221 -63.536793 
L 253.95148 -63.518772 
L 254.890749 -63.507002 
L 255.830019 -63.502564 
L 256.769288 -63.504517 
L 257.708558 -63.508742 
L 258.647827 -63.516982 
L 259.587097 -63.520118 
L 260.526366 -63.517274 
L 261.465636 -63.508336 
L 262.404905 -63.495325 
L 263.344175 -63.480516 
L 264.283444 -63.470993 
L 265.222714 -63.467416 
L 266.161983 -63.470993 
L 267.101253 -63.480516 
L 268.040523 -63.492711 
L 268.979792 -63.505801 
L 269.919062 -63.515451 
L 270.858331 -63.517986 
L 271.797601 -63.515388 
L 272.73687 -63.512194 
L 273.67614 -63.513717 
L 274.615409 -63.524662 
L 275.554679 -63.549753 
L 276.493948 -63.590933 
L 277.433218 -63.646486 
L 278.372487 -63.713591 
L 279.311757 -63.78125 
L 280.251026 -63.841844 
L 281.190296 -63.88738 
L 282.129565 -63.912469 
L 283.068835 -63.914104 
L 284.008105 -63.89739 
L 284.947374 -63.864676 
L 285.886644 -63.821984 
L 286.825913 -63.774816 
L 287.765183 -63.727008 
L 288.704452 -63.680338 
L 289.643722 -63.634909 
L 290.582991 -63.590025 
L 291.522261 -63.545136 
L 292.46153 -63.500474 
L 293.4008 -63.455918 
L 294.340069 -63.415112 
L 295.279339 -63.380676 
L 296.218608 -63.351719 
L 297.157878 -63.327718 
L 298.097147 -63.311687 
L 299.036417 -63.300506 
L 299.975686 -63.293224 
L 300.914956 -63.288786 
L 301.854226 -63.28625 
L 302.793495 -63.283636 
L 303.732765 -63.283636 
L 304.672034 -63.283636 
L 305.611304 -63.283636 
L 306.550573 -63.283636 
L 307.489843 -63.283636 
L 308.429112 -63.283636 
L 309.368382 -63.283636 
L 310.307651 -63.283636 
L 311.246921 -63.283636 
L 312.18619 -63.283636 
L 313.12546 -63.28625 
L 314.064729 -63.288786 
L 315.003999 -63.293224 
L 315.943268 -63.300506 
L 316.882538 -63.311687 
L 317.821808 -63.327718 
L 318.761077 -63.349105 
L 319.700347 -63.37814 
L 320.639616 -63.410674 
L 321.578886 -63.446022 
L 322.518155 -63.481529 
L 323.457425 -63.514368 
L 324.396694 -63.542181 
L 325.335964 -63.563568 
L 326.275233 -63.578207 
L 327.214503 -63.586548 
L 328.153772 -63.589233 
L 329.093042 -63.586548 
L 330.032311 -63.578207 
L 330.971581 -63.563568 
L 331.91085 -63.542181 
L 332.85012 -63.514368 
L 333.789389 -63.481529 
L 334.728659 -63.446022 
L 335.667929 -63.410674 
L 336.607198 -63.37814 
L 337.546468 -63.349105 
L 338.485737 -63.327718 
L 339.425007 -63.311687 
L 340.364276 -63.300506 
L 341.303546 -63.293224 
L 342.242815 -63.288786 
L 343.182085 -63.28625 
L 344.121354 -63.283636 
L 345.060624 -63.283636 
L 345.999893 -63.283636 
L 346.939163 -63.283636 
L 347.878432 -63.283636 
L 348.817702 -63.283636 
L 349.756971 -63.283636 
L 350.696241 -63.283636 
L 351.635511 -63.283636 
L 352.57478 -63.283636 
L 353.51405 -63.28625 
L 354.453319 -63.288786 
L 355.392589 -63.293224 
L 356.331858 -63.300506 
L 357.271128 -63.311687 
L 358.210397 -63.327718 
L 359.149667 -63.349105 
L 360.088936 -63.375526 
L 361.028206 -63.405525 
L 361.967475 -63.436435 
L 362.906745 -63.46466 
L 363.846014 -63.486318 
L 364.785284 -63.4981 
L 365.724553 -63.4981 
L 366.663823 -63.486318 
L 367.603093 -63.46466 
L 368.542362 -63.436435 
L 369.481632 -63.405525 
L 370.420901 -63.375526 
L 371.360171 -63.349105 
L 372.29944 -63.327718 
L 373.23871 -63.311687 
L 374.177979 -63.300506 
L 375.117249 -63.293224 
L 376.056518 -63.288786 
L 376.995788 -63.28625 
L 377.935057 -63.283636 
L 378.874327 -63.283636 
L 379.813596 -63.283636 
L 380.752866 -63.283636 
L 381.692135 -63.283636 
L 382.631405 -63.283636 
L 383.570674 -63.283636 
L 384.509944 -63.283636 
L 385.449214 -63.283636 
L 386.388483 -63.283636 
L 387.327753 -63.283636 
L 388.267022 -63.283636 
L 389.206292 -63.283636 
L 390.145561 -63.283636 
L 391.084831 -63.283636 
L 392.0241 -63.283636 
L 392.96337 -63.283636 
L 393.902639 -63.283636 
L 394.841909 -63.283636 
L 395.781178 -63.283636 
L 396.720448 -63.283636 
L 397.659717 -63.283636 
L 398.598987 -63.283636 
L 399.538256 -63.283636 
L 400.477526 -63.283636 
L 401.416796 -63.283636 
L 402.356065 -63.283636 
L 403.295335 -63.283636 
L 404.234604 -63.283636 
L 405.173874 -63.283636 
L 406.113143 -63.283636 
L 407.052413 -63.283636 
L 407.991682 -63.283636 
L 408.930952 -63.283636 
L 409.870221 -63.283636 
L 410.809491 -63.283636 
L 411.74876 -63.283636 
L 412.68803 -63.283636 
L 413.627299 -63.283636 
L 414.566569 -63.283636 
L 415.505838 -63.283636 
L 416.445108 -63.283636 
L 417.384377 -63.283636 
L 418.323647 -63.283636 
L 419.262917 -63.283636 
L 420.202186 -63.283636 
L 421.141456 -63.283636 
L 422.080725 -63.283636 
L 423.019995 -63.283636 
L 423.959264 -63.283636 
L 424.898534 -63.283636 
L 425.837803 -63.283636 
L 426.777073 -63.283636 
L 427.716342 -63.283636 
L 428.655612 -63.283636 
L 429.594881 -63.283636 
L 430.534151 -63.283636 
L 431.47342 -63.283636 
L 432.41269 -63.283636 
L 433.351959 -63.283636 
L 434.291229 -63.283636 
L 435.230499 -63.283636 
L 436.169768 -63.283636 
L 437.109038 -63.283636 
L 438.048307 -63.283636 
L 438.987577 -63.283636 
L 439.926846 -63.283636 
L 440.866116 -63.283636 
L 441.805385 -63.283636 
L 442.744655 -63.283636 
L 443.683924 -63.283636 
L 444.623194 -63.283636 
L 445.562463 -63.283636 
L 446.501733 -63.283636 
L 447.441002 -63.283636 
L 448.380272 -63.283636 
L 449.319541 -63.283636 
L 450.258811 -63.283636 
L 451.198081 -63.283636 
L 452.13735 -63.283636 
L 453.07662 -63.283636 
L 454.015889 -63.283636 
L 454.955159 -63.283636 
L 455.894428 -63.283636 
L 456.833698 -63.283636 
L 457.772967 -63.283636 
L 458.712237 -63.283636 
L 459.651506 -63.283636 
L 460.590776 -63.283636 
L 461.530045 -63.283636 
L 462.469315 -63.283636 
L 463.408584 -63.283636 
L 464.347854 -63.283636 
L 465.287123 -63.283636 
L 466.226393 -63.283636 
L 467.165662 -63.283636 
L 468.104932 -63.283636 
L 469.044202 -63.283636 
L 469.983471 -63.283636 
L 470.922741 -63.283636 
L 471.86201 -63.283636 
L 472.80128 -63.283636 
L 473.740549 -63.283636 
L 474.679819 -63.283636 
L 475.619088 -63.283636 
L 476.558358 -63.283636 
L 477.497627 -63.283636 
L 478.436897 -63.283636 
L 479.376166 -63.283636 
L 480.315436 -63.283636 
L 481.254705 -63.283636 
L 482.193975 -63.283636 
L 483.133244 -63.283636 
L 484.072514 -63.283636 
L 485.011784 -63.283636 
L 485.951053 -63.283636 
L 486.890323 -63.283636 
L 487.829592 -63.283636 
L 488.768862 -63.283636 
L 489.708131 -63.283636 
L 490.647401 -63.283636 
L 491.58667 -63.283636 
L 492.52594 -63.283636 
L 493.465209 -63.283636 
L 494.404479 -63.283636 
L 495.343748 -63.283636 
L 496.283018 -63.283636 
L 497.222287 -63.283636 
L 498.161557 -63.283636 
L 499.100826 -63.283636 
L 500.040096 -63.283636 
L 500.979366 -63.283636 
L 501.918635 -63.283636 
L 502.857905 -63.283636 
L 503.797174 -63.283636 
L 504.736444 -63.283636 
L 505.675713 -63.283636 
L 506.614983 -63.283636 
L 507.554252 -63.283636 
L 508.493522 -63.283636 
L 509.432791 -63.283636 
L 510.372061 -63.283636 
L 511.31133 -63.283636 
L 512.2506 -63.283636 
L 513.189869 -63.283636 
L 514.129139 -63.283636 
L 515.068408 -63.283636 
L 516.007678 -63.283636 
L 516.946947 -63.28625 
L 517.886217 -63.2914 
L 518.825487 -63.298373 
L 519.764756 -63.310093 
L 520.704026 -63.328556 
L 521.643295 -63.355769 
L 522.582565 -63.393186 
L 523.521834 -63.440994 
L 524.461104 -63.497414 
L 525.400373 -63.558323 
L 526.339643 -63.617458 
L 527.278912 -63.667341 
L 528.218182 -63.700781 
L 528.218182 -63.283636 
L 528.218182 -63.283636 
L 527.278912 -63.283636 
L 526.339643 -63.283636 
L 525.400373 -63.283636 
L 524.461104 -63.283636 
L 523.521834 -63.283636 
L 522.582565 -63.283636 
L 521.643295 -63.283636 
L 520.704026 -63.283636 
L 519.764756 -63.283636 
L 518.825487 -63.283636 
L 517.886217 -63.283636 
L 516.946947 -63.283636 
L 516.007678 -63.283636 
L 515.068408 -63.283636 
L 514.129139 -63.283636 
L 513.189869 -63.283636 
L 512.2506 -63.283636 
L 511.31133 -63.283636 
L 510.372061 -63.283636 
L 509.432791 -63.283636 
L 508.493522 -63.283636 
L 507.554252 -63.283636 
L 506.614983 -63.283636 
L 505.675713 -63.283636 
L 504.736444 -63.283636 
L 503.797174 -63.283636 
L 502.857905 -63.283636 
L 501.918635 -63.283636 
L 500.979366 -63.283636 
L 500.040096 -63.283636 
L 499.100826 -63.283636 
L 498.161557 -63.283636 
L 497.222287 -63.283636 
L 496.283018 -63.283636 
L 495.343748 -63.283636 
L 494.404479 -63.283636 
L 493.465209 -63.283636 
L 492.52594 -63.283636 
L 491.58667 -63.283636 
L 490.647401 -63.283636 
L 489.708131 -63.283636 
L 488.768862 -63.283636 
L 487.829592 -63.283636 
L 486.890323 -63.283636 
L 485.951053 -63.283636 
L 485.011784 -63.283636 
L 484.072514 -63.283636 
L 483.133244 -63.283636 
L 482.193975 -63.283636 
L 481.254705 -63.283636 
L 480.315436 -63.283636 
L 479.376166 -63.283636 
L 478.436897 -63.283636 
L 477.497627 -63.283636 
L 476.558358 -63.283636 
L 475.619088 -63.283636 
L 474.679819 -63.283636 
L 473.740549 -63.283636 
L 472.80128 -63.283636 
L 471.86201 -63.283636 
L 470.922741 -63.283636 
L 469.983471 -63.283636 
L 469.044202 -63.283636 
L 468.104932 -63.283636 
L 467.165662 -63.283636 
L 466.226393 -63.283636 
L 465.287123 -63.283636 
L 464.347854 -63.283636 
L 463.408584 -63.283636 
L 462.469315 -63.283636 
L 461.530045 -63.283636 
L 460.590776 -63.283636 
L 459.651506 -63.283636 
L 458.712237 -63.283636 
L 457.772967 -63.283636 
L 456.833698 -63.283636 
L 455.894428 -63.283636 
L 454.955159 -63.283636 
L 454.015889 -63.283636 
L 453.07662 -63.283636 
L 452.13735 -63.283636 
L 451.198081 -63.283636 
L 450.258811 -63.283636 
L 449.319541 -63.283636 
L 448.380272 -63.283636 
L 447.441002 -63.283636 
L 446.501733 -63.283636 
L 445.562463 -63.283636 
L 444.623194 -63.283636 
L 443.683924 -63.283636 
L 442.744655 -63.283636 
L 441.805385 -63.283636 
L 440.866116 -63.283636 
L 439.926846 -63.283636 
L 438.987577 -63.283636 
L 438.048307 -63.283636 
L 437.109038 -63.283636 
L 436.169768 -63.283636 
L 435.230499 -63.283636 
L 434.291229 -63.283636 
L 433.351959 -63.283636 
L 432.41269 -63.283636 
L 431.47342 -63.283636 
L 430.534151 -63.283636 
L 429.594881 -63.283636 
L 428.655612 -63.283636 
L 427.716342 -63.283636 
L 426.777073 -63.283636 
L 425.837803 -63.283636 
L 424.898534 -63.283636 
L 423.959264 -63.283636 
L 423.019995 -63.283636 
L 422.080725 -63.283636 
L 421.141456 -63.283636 
L 420.202186 -63.283636 
L 419.262917 -63.283636 
L 418.323647 -63.283636 
L 417.384377 -63.283636 
L 416.445108 -63.283636 
L 415.505838 -63.283636 
L 414.566569 -63.283636 
L 413.627299 -63.283636 
L 412.68803 -63.283636 
L 411.74876 -63.283636 
L 410.809491 -63.283636 
L 409.870221 -63.283636 
L 408.930952 -63.283636 
L 407.991682 -63.283636 
L 407.052413 -63.283636 
L 406.113143 -63.283636 
L 405.173874 -63.283636 
L 404.234604 -63.283636 
L 403.295335 -63.283636 
L 402.356065 -63.283636 
L 401.416796 -63.283636 
L 400.477526 -63.283636 
L 399.538256 -63.283636 
L 398.598987 -63.283636 
L 397.659717 -63.283636 
L 396.720448 -63.283636 
L 395.781178 -63.283636 
L 394.841909 -63.283636 
L 393.902639 -63.283636 
L 392.96337 -63.283636 
L 392.0241 -63.283636 
L 391.084831 -63.283636 
L 390.145561 -63.283636 
L 389.206292 -63.283636 
L 388.267022 -63.283636 
L 387.327753 -63.283636 
L 386.388483 -63.283636 
L 385.449214 -63.283636 
L 384.509944 -63.283636 
L 383.570674 -63.283636 
L 382.631405 -63.283636 
L 381.692135 -63.283636 
L 380.752866 -63.283636 
L 379.813596 -63.283636 
L 378.874327 -63.283636 
L 377.935057 -63.283636 
L 376.995788 -63.283636 
L 376.056518 -63.283636 
L 375.117249 -63.283636 
L 374.177979 -63.283636 
L 373.23871 -63.283636 
L 372.29944 -63.283636 
L 371.360171 -63.283636 
L 370.420901 -63.283636 
L 369.481632 -63.283636 
L 368.542362 -63.283636 
L 367.603093 -63.283636 
L 366.663823 -63.283636 
L 365.724553 -63.283636 
L 364.785284 -63.283636 
L 363.846014 -63.283636 
L 362.906745 -63.283636 
L 361.967475 -63.283636 
L 361.028206 -63.283636 
L 360.088936 -63.283636 
L 359.149667 -63.283636 
L 358.210397 -63.283636 
L 357.271128 -63.283636 
L 356.331858 -63.283636 
L 355.392589 -63.283636 
L 354.453319 -63.283636 
L 353.51405 -63.283636 
L 352.57478 -63.283636 
L 351.635511 -63.283636 
L 350.696241 -63.283636 
L 349.756971 -63.283636 
L 348.817702 -63.283636 
L 347.878432 -63.283636 
L 346.939163 -63.283636 
L 345.999893 -63.283636 
L 345.060624 -63.283636 
L 344.121354 -63.283636 
L 343.182085 -63.283636 
L 342.242815 -63.283636 
L 341.303546 -63.283636 
L 340.364276 -63.283636 
L 339.425007 -63.283636 
L 338.485737 -63.283636 
L 337.546468 -63.283636 
L 336.607198 -63.283636 
L 335.667929 -63.283636 
L 334.728659 -63.283636 
L 333.789389 -63.283636 
L 332.85012 -63.283636 
L 331.91085 -63.283636 
L 330.971581 -63.283636 
L 330.032311 -63.283636 
L 329.093042 -63.283636 
L 328.153772 -63.283636 
L 327.214503 -63.283636 
L 326.275233 -63.283636 
L 325.335964 -63.283636 
L 324.396694 -63.283636 
L 323.457425 -63.283636 
L 322.518155 -63.283636 
L 321.578886 -63.283636 
L 320.639616 -63.283636 
L 319.700347 -63.283636 
L 318.761077 -63.283636 
L 317.821808 -63.283636 
L 316.882538 -63.283636 
L 315.943268 -63.283636 
L 315.003999 -63.283636 
L 314.064729 -63.283636 
L 313.12546 -63.283636 
L 312.18619 -63.283636 
L 311.246921 -63.283636 
L 310.307651 -63.283636 
L 309.368382 -63.283636 
L 308.429112 -63.283636 
L 307.489843 -63.283636 
L 306.550573 -63.283636 
L 305.611304 -63.283636 
L 304.672034 -63.283636 
L 303.732765 -63.283636 
L 302.793495 -63.283636 
L 301.854226 -63.283636 
L 300.914956 -63.283636 
L 299.975686 -63.283636 
L 299.036417 -63.283636 
L 298.097147 -63.283636 
L 297.157878 -63.283636 
L 296.218608 -63.283636 
L 295.279339 -63.283636 
L 294.340069 -63.283636 
L 293.4008 -63.283636 
L 292.46153 -63.283636 
L 291.522261 -63.283636 
L 290.582991 -63.283636 
L 289.643722 -63.283636 
L 288.704452 -63.283636 
L 287.765183 -63.283636 
L 286.825913 -63.283636 
L 285.886644 -63.283636 
L 284.947374 -63.283636 
L 284.008105 -63.283636 
L 283.068835 -63.283636 
L 282.129565 -63.283636 
L 281.190296 -63.283636 
L 280.251026 -63.283636 
L 279.311757 -63.283636 
L 278.372487 -63.283636 
L 277.433218 -63.283636 
L 276.493948 -63.283636 
L 275.554679 -63.283636 
L 274.615409 -63.283636 
L 273.67614 -63.283636 
L 272.73687 -63.283636 
L 271.797601 -63.283636 
L 270.858331 -63.283636 
L 269.919062 -63.283636 
L 268.979792 -63.283636 
L 268.040523 -63.283636 
L 267.101253 -63.283636 
L 266.161983 -63.283636 
L 265.222714 -63.283636 
L 264.283444 -63.283636 
L 263.344175 -63.283636 
L 262.404905 -63.283636 
L 261.465636 -63.283636 
L 260.526366 -63.283636 
L 259.587097 -63.283636 
L 258.647827 -63.283636 
L 257.708558 -63.283636 
L 256.769288 -63.283636 
L 255.830019 -63.283636 
L 254.890749 -63.283636 
L 253.95148 -63.283636 
L 253.01221 -63.283636 
L 252.072941 -63.283636 
L 251.133671 -63.283636 
L 250.194401 -63.283636 
L 249.255132 -63.283636 
L 248.315862 -63.283636 
L 247.376593 -63.283636 
L 246.437323 -63.283636 
L 245.498054 -63.283636 
L 244.558784 -63.283636 
L 243.619515 -63.283636 
L 242.680245 -63.283636 
L 241.740976 -63.283636 
L 240.801706 -63.283636 
L 239.862437 -63.283636 
L 238.923167 -63.283636 
L 237.983898 -63.283636 
L 237.044628 -63.283636 
L 236.105359 -63.283636 
L 235.166089 -63.283636 
L 234.22682 -63.283636 
L 233.28755 -63.283636 
L 232.34828 -63.283636 
L 231.409011 -63.283636 
L 230.469741 -63.283636 
L 229.530472 -63.283636 
L 228.591202 -63.283636 
L 227.651933 -63.283636 
L 226.712663 -63.283636 
L 225.773394 -63.283636 
L 224.834124 -63.283636 
L 223.894855 -63.283636 
L 222.955585 -63.283636 
L 222.016316 -63.283636 
L 221.077046 -63.283636 
L 220.137777 -63.283636 
L 219.198507 -63.283636 
L 218.259238 -63.283636 
L 217.319968 -63.283636 
L 216.380698 -63.283636 
L 215.441429 -63.283636 
L 214.502159 -63.283636 
L 213.56289 -63.283636 
L 212.62362 -63.283636 
L 211.684351 -63.283636 
L 210.745081 -63.283636 
L 209.805812 -63.283636 
L 208.866542 -63.283636 
L 207.927273 -63.283636 
L 206.988003 -63.283636 
L 206.048734 -63.283636 
L 205.109464 -63.283636 
L 204.170195 -63.283636 
L 203.230925 -63.283636 
L 202.291656 -63.283636 
L 201.352386 -63.283636 
L 200.413117 -63.283636 
L 199.473847 -63.283636 
L 198.534577 -63.283636 
L 197.595308 -63.283636 
L 196.656038 -63.283636 
L 195.716769 -63.283636 
L 194.777499 -63.283636 
L 193.83823 -63.283636 
L 192.89896 -63.283636 
L 191.959691 -63.283636 
L 191.020421 -63.283636 
L 190.081152 -63.283636 
L 189.141882 -63.283636 
L 188.202613 -63.283636 
L 187.263343 -63.283636 
L 186.324074 -63.283636 
L 185.384804 -63.283636 
L 184.445535 -63.283636 
L 183.506265 -63.283636 
L 182.566995 -63.283636 
L 181.627726 -63.283636 
L 180.688456 -63.283636 
L 179.749187 -63.283636 
L 178.809917 -63.283636 
L 177.870648 -63.283636 
L 176.931378 -63.283636 
L 175.992109 -63.283636 
L 175.052839 -63.283636 
L 174.11357 -63.283636 
L 173.1743 -63.283636 
L 172.235031 -63.283636 
L 171.295761 -63.283636 
L 170.356492 -63.283636 
L 169.417222 -63.283636 
L 168.477953 -63.283636 
L 167.538683 -63.283636 
L 166.599413 -63.283636 
L 165.660144 -63.283636 
L 164.720874 -63.283636 
L 163.781605 -63.283636 
L 162.842335 -63.283636 
L 161.903066 -63.283636 
L 160.963796 -63.283636 
L 160.024527 -63.283636 
L 159.085257 -63.283636 
L 158.145988 -63.283636 
L 157.206718 -63.283636 
L 156.267449 -63.283636 
L 155.328179 -63.283636 
L 154.38891 -63.283636 
L 153.44964 -63.283636 
L 152.510371 -63.283636 
L 151.571101 -63.283636 
L 150.631832 -63.283636 
L 149.692562 -63.283636 
L 148.753292 -63.283636 
L 147.814023 -63.283636 
L 146.874753 -63.283636 
L 145.935484 -63.283636 
L 144.996214 -63.283636 
L 144.056945 -63.283636 
L 143.117675 -63.283636 
L 142.178406 -63.283636 
L 141.239136 -63.283636 
L 140.299867 -63.283636 
L 139.360597 -63.283636 
L 138.421328 -63.283636 
L 137.482058 -63.283636 
L 136.542789 -63.283636 
L 135.603519 -63.283636 
L 134.66425 -63.283636 
L 133.72498 -63.283636 
L 132.78571 -63.283636 
L 131.846441 -63.283636 
L 130.907171 -63.283636 
L 129.967902 -63.283636 
L 129.028632 -63.283636 
L 128.089363 -63.283636 
L 127.150093 -63.283636 
L 126.210824 -63.283636 
L 125.271554 -63.283636 
L 124.332285 -63.283636 
L 123.393015 -63.283636 
L 122.453746 -63.283636 
L 121.514476 -63.283636 
L 120.575207 -63.283636 
L 119.635937 -63.283636 
L 118.696668 -63.283636 
L 117.757398 -63.283636 
L 116.818128 -63.283636 
L 115.878859 -63.283636 
L 114.939589 -63.283636 
L 114.00032 -63.283636 
L 113.06105 -63.283636 
L 112.121781 -63.283636 
L 111.182511 -63.283636 
L 110.243242 -63.283636 
L 109.303972 -63.283636 
L 108.364703 -63.283636 
L 107.425433 -63.283636 
L 106.486164 -63.283636 
L 105.546894 -63.283636 
L 104.607625 -63.283636 
L 103.668355 -63.283636 
L 102.729086 -63.283636 
L 101.789816 -63.283636 
L 100.850547 -63.283636 
L 99.911277 -63.283636 
L 98.972007 -63.283636 
L 98.032738 -63.283636 
L 97.093468 -63.283636 
L 96.154199 -63.283636 
L 95.214929 -63.283636 
L 94.27566 -63.283636 
L 93.33639 -63.283636 
L 92.397121 -63.283636 
L 91.457851 -63.283636 
L 90.518582 -63.283636 
L 89.579312 -63.283636 
L 88.640043 -63.283636 
L 87.700773 -63.283636 
L 86.761504 -63.283636 
L 85.822234 -63.283636 
L 84.882965 -63.283636 
L 83.943695 -63.283636 
L 83.004425 -63.283636 
L 82.065156 -63.283636 
L 81.125886 -63.283636 
L 80.186617 -63.283636 
L 79.247347 -63.283636 
L 78.308078 -63.283636 
L 77.368808 -63.283636 
L 76.429539 -63.283636 
L 75.490269 -63.283636 
L 74.551 -63.283636 
L 73.61173 -63.283636 
L 72.672461 -63.283636 
L 71.733191 -63.283636 
L 70.793922 -63.283636 
L 69.854652 -63.283636 
L 68.915383 -63.283636 
L 67.976113 -63.283636 
L 67.036844 -63.283636 
L 66.097574 -63.283636 
L 65.158304 -63.283636 
L 64.219035 -63.283636 
L 63.279765 -63.283636 
L 62.340496 -63.283636 
L 61.401226 -63.283636 
L 60.461957 -63.283636 
L 59.522687 -63.283636 
L 58.583418 -63.283636 
L 57.644148 -63.283636 
L 56.704879 -63.283636 
L 55.765609 -63.283636 
L 54.82634 -63.283636 
L 53.88707 -63.283636 
L 52.947801 -63.283636 
L 52.008531 -63.283636 
L 51.069262 -63.283636 
L 50.129992 -63.283636 
L 49.190722 -63.283636 
L 48.251453 -63.283636 
z
"/>
    </defs>
    <g clip-path="url(#p93a98782ba)">
     <use xlink:href="#m5c3cbef575" x="0" y="432" style="fill: #51d7c1; fill-opacity: 0.6"/>
    </g>
   </g>
   <g id="line2d_20">
    <path d="M 48.251453 66.243636 
L 49.190722 66.736524 
L 50.129992 68.148011 
L 51.069262 70.451889 
L 52.008531 73.430407 
L 53.88707 81.09686 
L 56.704879 93.338174 
L 58.583418 100.354409 
L 61.401226 110.015619 
L 63.279765 117.770329 
L 64.219035 122.46593 
L 66.097574 133.481069 
L 67.976113 146.234643 
L 73.61173 185.606343 
L 80.186617 230.490437 
L 82.065156 240.932147 
L 83.943695 249.966909 
L 87.700773 266.632909 
L 90.518582 278.002567 
L 93.33639 288.917347 
L 96.154199 300.939024 
L 98.032738 308.973999 
L 99.911277 315.921427 
L 100.850547 318.788919 
L 101.789816 321.188548 
L 102.729086 323.178186 
L 103.668355 324.805742 
L 105.546894 327.310283 
L 107.425433 329.566538 
L 108.364703 330.84833 
L 110.243242 333.987078 
L 112.121781 337.707857 
L 114.939589 343.260427 
L 116.818128 346.187285 
L 117.757398 347.322636 
L 118.696668 348.230327 
L 119.635937 348.935211 
L 120.575207 349.481794 
L 122.453746 350.204237 
L 125.271554 351.045217 
L 127.150093 351.787984 
L 129.967902 353.162361 
L 133.72498 355.346616 
L 135.603519 356.696379 
L 139.360597 359.504358 
L 140.299867 360.01156 
L 141.239136 360.368195 
L 142.178406 360.589395 
L 144.056945 360.68068 
L 147.814023 360.492447 
L 149.692562 360.628668 
L 151.571101 360.998624 
L 154.38891 361.842951 
L 157.206718 362.680267 
L 161.903066 363.708465 
L 165.660144 364.453094 
L 167.538683 364.584664 
L 170.356492 364.464134 
L 173.1743 364.417065 
L 175.052839 364.631238 
L 176.931378 365.082957 
L 183.506265 367.061601 
L 185.384804 367.326561 
L 188.202613 367.464289 
L 191.020421 367.3249 
L 195.716769 366.882014 
L 198.534577 366.937169 
L 202.291656 367.319626 
L 206.988003 367.80803 
L 209.805812 367.91045 
L 212.62362 367.709525 
L 216.380698 367.305215 
L 218.259238 367.296837 
L 221.077046 367.533266 
L 225.773394 367.943315 
L 229.530472 367.961329 
L 233.28755 367.933969 
L 238.923167 368.2588 
L 243.619515 368.364798 
L 253.95148 368.481228 
L 266.161983 368.529007 
L 277.433218 368.353514 
L 282.129565 368.087531 
L 285.886644 368.178016 
L 298.097147 368.688313 
L 309.368382 368.716364 
L 319.700347 368.62186 
L 328.153772 368.410767 
L 333.789389 368.518471 
L 341.303546 368.706776 
L 357.271128 368.688313 
L 368.542362 368.563565 
L 376.056518 368.711214 
L 418.323647 368.716364 
L 522.582565 368.606814 
L 528.218182 368.299219 
L 528.218182 368.299219 
" clip-path="url(#p93a98782ba)" style="fill: none; stroke: #51d7c1; stroke-width: 1.5; stroke-linecap: round"/>
   </g>
   <g id="line2d_21">
    <path d="M 47.781818 362.364436 
L 105.0301 362.364436 
" clip-path="url(#p93a98782ba)" style="fill: none; stroke: #51d7c1; stroke-width: 3.5; stroke-linecap: round"/>
   </g>
   <g id="patch_3">
    <path d="M 23.76 383.84 
L 552.24 383.84 
" style="fill: none; stroke: #333333; stroke-width: 1.5; stroke-linejoin: miter; stroke-linecap: square"/>
   </g>
   <g id="text_7">
    <!-- $\sigma$ -->
    <g style="fill: #262626" transform="translate(279.04 45.12)">
     <text>
      <tspan x="0" y="-0.671875" style="font-style: oblique; font-size: 28px; font-family: 'DejaVu Sans'; fill: #262626">σ</tspan>
     </text>
    </g>
   </g>
  </g>
 </g>
 <defs>
  <clipPath id="p93a98782ba">
   <rect x="23.76" y="51.12" width="528.48" height="332.72"/>
  </clipPath>
 </defs>
</svg>
