<?xml version="1.0" encoding="utf-8" standalone="no"?>
<!DOCTYPE svg PUBLIC "-//W3C//DTD SVG 1.1//EN"
  "http://www.w3.org/Graphics/SVG/1.1/DTD/svg11.dtd">
<svg xmlns:xlink="http://www.w3.org/1999/xlink" width="576pt" height="432pt" viewBox="0 0 576 432" xmlns="http://www.w3.org/2000/svg" version="1.1">
 <metadata>
  <rdf:RDF xmlns:dc="http://purl.org/dc/elements/1.1/" xmlns:cc="http://creativecommons.org/ns#" xmlns:rdf="http://www.w3.org/1999/02/22-rdf-syntax-ns#">
   <cc:Work>
    <dc:type rdf:resource="http://purl.org/dc/dcmitype/StillImage"/>
    <dc:date>2025-09-23T14:40:24.422030</dc:date>
    <dc:format>image/svg+xml</dc:format>
    <dc:creator>
     <cc:Agent>
      <dc:title>Matplotlib v3.10.0, https://matplotlib.org/</dc:title>
     </cc:Agent>
    </dc:creator>
   </cc:Work>
  </rdf:RDF>
 </metadata>
 <defs>
  <style type="text/css">*{stroke-linejoin: round; stroke-linecap: butt}</style>
 </defs>
 <g id="figure_1">
  <g id="patch_1">
   <path d="M 0 432 
L 576 432 
L 576 0 
L 0 0 
L 0 432 
z
" style="fill: none; opacity: 0"/>
  </g>
  <g id="axes_1">
   <g id="patch_2">
    <path d="M 23.76 383.84 
L 552.24 383.84 
L 552.24 57.42 
L 23.76 57.42 
L 23.76 383.84 
z
" style="fill: none"/>
   </g>
   <g id="matplotlib.axis_1">
    <g id="xtick_1">
     <g id="line2d_1">
      <path d="M 78.490891 383.84 
L 78.490891 57.42 
" clip-path="url(#pc9f8f5cd19)" style="fill: none; stroke: #ffffff; stroke-opacity: 0.4; stroke-linecap: round"/>
     </g>
     <g id="line2d_2"/>
     <g id="text_1">
      <text style="font-size: 18px; font-family: 'DejaVu Serif', 'Times New Roman', serif; text-anchor: middle; fill: #262626" x="78.490891" y="404.517187" transform="rotate(-0 78.490891 404.517187)">−30</text>
     </g>
    </g>
    <g id="xtick_2">
     <g id="line2d_3">
      <path d="M 153.98519 383.84 
L 153.98519 57.42 
" clip-path="url(#pc9f8f5cd19)" style="fill: none; stroke: #ffffff; stroke-opacity: 0.4; stroke-linecap: round"/>
     </g>
     <g id="line2d_4"/>
     <g id="text_2">
      <text style="font-size: 18px; font-family: 'DejaVu Serif', 'Times New Roman', serif; text-anchor: middle; fill: #262626" x="153.98519" y="404.517187" transform="rotate(-0 153.98519 404.517187)">−20</text>
     </g>
    </g>
    <g id="xtick_3">
     <g id="line2d_5">
      <path d="M 229.479489 383.84 
L 229.479489 57.42 
" clip-path="url(#pc9f8f5cd19)" style="fill: none; stroke: #ffffff; stroke-opacity: 0.4; stroke-linecap: round"/>
     </g>
     <g id="line2d_6"/>
     <g id="text_3">
      <text style="font-size: 18px; font-family: 'DejaVu Serif', 'Times New Roman', serif; text-anchor: middle; fill: #262626" x="229.479489" y="404.517187" transform="rotate(-0 229.479489 404.517187)">−10</text>
     </g>
    </g>
    <g id="xtick_4">
     <g id="line2d_7">
      <path d="M 304.973788 383.84 
L 304.973788 57.42 
" clip-path="url(#pc9f8f5cd19)" style="fill: none; stroke: #ffffff; stroke-opacity: 0.4; stroke-linecap: round"/>
     </g>
     <g id="line2d_8"/>
     <g id="text_4">
      <text style="font-size: 18px; font-family: 'DejaVu Serif', 'Times New Roman', serif; text-anchor: middle; fill: #262626" x="304.973788" y="404.517187" transform="rotate(-0 304.973788 404.517187)">0</text>
     </g>
    </g>
    <g id="xtick_5">
     <g id="line2d_9">
      <path d="M 380.468087 383.84 
L 380.468087 57.42 
" clip-path="url(#pc9f8f5cd19)" style="fill: none; stroke: #ffffff; stroke-opacity: 0.4; stroke-linecap: round"/>
     </g>
     <g id="line2d_10"/>
     <g id="text_5">
      <text style="font-size: 18px; font-family: 'DejaVu Serif', 'Times New Roman', serif; text-anchor: middle; fill: #262626" x="380.468087" y="404.517187" transform="rotate(-0 380.468087 404.517187)">10</text>
     </g>
    </g>
    <g id="xtick_6">
     <g id="line2d_11">
      <path d="M 455.962386 383.84 
L 455.962386 57.42 
" clip-path="url(#pc9f8f5cd19)" style="fill: none; stroke: #ffffff; stroke-opacity: 0.4; stroke-linecap: round"/>
     </g>
     <g id="line2d_12"/>
     <g id="text_6">
      <text style="font-size: 18px; font-family: 'DejaVu Serif', 'Times New Roman', serif; text-anchor: middle; fill: #262626" x="455.962386" y="404.517187" transform="rotate(-0 455.962386 404.517187)">20</text>
     </g>
    </g>
    <g id="xtick_7">
     <g id="line2d_13">
      <path d="M 531.456685 383.84 
L 531.456685 57.42 
" clip-path="url(#pc9f8f5cd19)" style="fill: none; stroke: #ffffff; stroke-opacity: 0.4; stroke-linecap: round"/>
     </g>
     <g id="line2d_14"/>
     <g id="text_7">
      <text style="font-size: 18px; font-family: 'DejaVu Serif', 'Times New Roman', serif; text-anchor: middle; fill: #262626" x="531.456685" y="404.517187" transform="rotate(-0 531.456685 404.517187)">30</text>
     </g>
    </g>
   </g>
   <g id="matplotlib.axis_2">
    <g id="ytick_1">
     <g id="line2d_15">
      <path d="M 23.76 369.002727 
L 552.24 369.002727 
" clip-path="url(#pc9f8f5cd19)" style="fill: none; stroke: #ffffff; stroke-opacity: 0.4; stroke-linecap: round"/>
     </g>
    </g>
    <g id="ytick_2">
     <g id="line2d_16">
      <path d="M 23.76 303.564001 
L 552.24 303.564001 
" clip-path="url(#pc9f8f5cd19)" style="fill: none; stroke: #ffffff; stroke-opacity: 0.4; stroke-linecap: round"/>
     </g>
    </g>
    <g id="ytick_3">
     <g id="line2d_17">
      <path d="M 23.76 238.125275 
L 552.24 238.125275 
" clip-path="url(#pc9f8f5cd19)" style="fill: none; stroke: #ffffff; stroke-opacity: 0.4; stroke-linecap: round"/>
     </g>
    </g>
    <g id="ytick_4">
     <g id="line2d_18">
      <path d="M 23.76 172.686549 
L 552.24 172.686549 
" clip-path="url(#pc9f8f5cd19)" style="fill: none; stroke: #ffffff; stroke-opacity: 0.4; stroke-linecap: round"/>
     </g>
    </g>
    <g id="ytick_5">
     <g id="line2d_19">
      <path d="M 23.76 107.247823 
L 552.24 107.247823 
" clip-path="url(#pc9f8f5cd19)" style="fill: none; stroke: #ffffff; stroke-opacity: 0.4; stroke-linecap: round"/>
     </g>
    </g>
   </g>
   <g id="FillBetweenPolyCollection_1">
    <defs>
     <path id="mfad08e9ce0" d="M 47.781818 -62.997273 
L 47.781818 -63.665727 
L 48.722007 -63.663606 
L 49.662195 -63.657284 
L 50.602384 -63.646881 
L 51.542572 -63.63558 
L 52.482761 -63.618486 
L 53.42295 -63.598289 
L 54.363138 -63.575403 
L 55.303327 -63.553277 
L 56.243515 -63.530231 
L 57.183704 -63.503981 
L 58.123893 -63.47745 
L 59.064081 -63.451231 
L 60.00427 -63.425913 
L 60.944458 -63.402067 
L 61.884647 -63.380238 
L 62.824835 -63.360934 
L 63.765024 -63.344621 
L 64.705213 -63.331714 
L 65.645401 -63.322573 
L 66.58559 -63.317497 
L 67.525778 -63.31672 
L 68.465967 -63.320407 
L 69.406155 -63.328651 
L 70.346344 -63.341471 
L 71.286533 -63.35881 
L 72.226721 -63.380533 
L 73.16691 -63.409415 
L 74.107098 -63.440003 
L 75.047287 -63.477283 
L 75.987476 -63.51569 
L 76.927664 -63.557115 
L 77.867853 -63.604056 
L 78.808041 -63.65081 
L 79.74823 -63.702155 
L 80.688418 -63.75535 
L 81.628607 -63.80702 
L 82.568796 -63.864967 
L 83.508984 -63.924368 
L 84.449173 -63.976853 
L 85.389361 -64.029688 
L 86.32955 -64.084919 
L 87.269738 -64.142506 
L 88.209927 -64.197335 
L 89.150116 -64.251907 
L 90.090304 -64.306486 
L 91.030493 -64.361424 
L 91.970681 -64.420136 
L 92.91087 -64.483928 
L 93.851059 -64.545369 
L 94.791247 -64.612753 
L 95.731436 -64.681561 
L 96.671624 -64.754768 
L 97.611813 -64.838936 
L 98.552001 -64.924242 
L 99.49219 -65.018782 
L 100.432379 -65.123676 
L 101.372567 -65.234099 
L 102.312756 -65.352604 
L 103.252944 -65.482251 
L 104.193133 -65.617793 
L 105.133321 -65.758371 
L 106.07351 -65.905811 
L 107.013699 -66.059453 
L 107.953887 -66.218493 
L 108.894076 -66.384995 
L 109.834264 -66.561739 
L 110.774453 -66.737491 
L 111.714642 -66.916051 
L 112.65483 -67.099563 
L 113.595019 -67.279076 
L 114.535207 -67.461387 
L 115.475396 -67.649502 
L 116.415584 -67.838543 
L 117.355773 -68.022492 
L 118.295962 -68.208826 
L 119.23615 -68.398316 
L 120.176339 -68.58308 
L 121.116527 -68.768063 
L 122.056716 -68.959632 
L 122.996904 -69.153914 
L 123.937093 -69.348838 
L 124.877282 -69.54228 
L 125.81747 -69.745514 
L 126.757659 -69.951186 
L 127.697847 -70.171398 
L 128.638036 -70.392084 
L 129.578225 -70.618724 
L 130.518413 -70.853625 
L 131.458602 -71.102635 
L 132.39879 -71.367764 
L 133.338979 -71.639269 
L 134.279167 -71.91934 
L 135.219356 -72.213515 
L 136.159545 -72.519661 
L 137.099733 -72.834826 
L 138.039922 -73.167022 
L 138.98011 -73.511394 
L 139.920299 -73.882534 
L 140.860487 -74.266082 
L 141.800676 -74.655535 
L 142.740865 -75.060531 
L 143.681053 -75.475498 
L 144.621242 -75.905338 
L 145.56143 -76.347447 
L 146.501619 -76.811232 
L 147.441808 -77.284094 
L 148.381996 -77.762029 
L 149.322185 -78.261049 
L 150.262373 -78.771211 
L 151.202562 -79.293311 
L 152.14275 -79.83358 
L 153.082939 -80.393999 
L 154.023128 -80.971668 
L 154.963316 -81.58812 
L 155.903505 -82.21222 
L 156.843693 -82.878966 
L 157.783882 -83.584788 
L 158.72407 -84.32172 
L 159.664259 -85.08333 
L 160.604448 -85.888024 
L 161.544636 -86.745529 
L 162.484825 -87.645542 
L 163.425013 -88.583485 
L 164.365202 -89.603189 
L 165.30539 -90.658451 
L 166.245579 -91.770245 
L 167.185768 -92.9532 
L 168.125956 -94.180424 
L 169.066145 -95.471426 
L 170.006333 -96.80808 
L 170.946522 -98.201879 
L 171.886711 -99.650822 
L 172.826899 -101.157803 
L 173.767088 -102.705066 
L 174.707276 -104.280829 
L 175.647465 -105.885286 
L 176.587653 -107.506409 
L 177.527842 -109.174254 
L 178.468031 -110.867638 
L 179.408219 -112.561987 
L 180.348408 -114.252327 
L 181.288596 -115.943113 
L 182.228785 -117.621634 
L 183.168973 -119.289611 
L 184.109162 -120.945687 
L 185.049351 -122.588635 
L 185.989539 -124.220821 
L 186.929728 -125.827266 
L 187.869916 -127.4261 
L 188.810105 -129.005387 
L 189.750294 -130.558381 
L 190.690482 -132.089033 
L 191.630671 -133.600718 
L 192.570859 -135.123795 
L 193.511048 -136.640562 
L 194.451236 -138.130207 
L 195.391425 -139.637037 
L 196.331614 -141.14155 
L 197.271802 -142.657095 
L 198.211991 -144.204869 
L 199.152179 -145.761159 
L 200.092368 -147.356723 
L 201.032556 -148.994586 
L 201.972745 -150.684783 
L 202.912934 -152.381772 
L 203.853122 -154.164453 
L 204.793311 -155.969945 
L 205.733499 -157.840707 
L 206.673688 -159.757784 
L 207.613877 -161.726855 
L 208.554065 -163.72696 
L 209.494254 -165.797187 
L 210.434442 -167.913911 
L 211.374631 -170.069129 
L 212.314819 -172.262194 
L 213.255008 -174.491337 
L 214.195197 -176.741551 
L 215.135385 -179.063513 
L 216.075574 -181.408386 
L 217.015762 -183.782085 
L 217.955951 -186.199255 
L 218.896139 -188.629497 
L 219.836328 -191.060779 
L 220.776517 -193.515265 
L 221.716705 -195.955711 
L 222.656894 -198.420575 
L 223.597082 -200.906936 
L 224.537271 -203.386511 
L 225.47746 -205.884618 
L 226.417648 -208.396814 
L 227.357837 -210.914005 
L 228.298025 -213.391028 
L 229.238214 -215.896101 
L 230.178402 -218.388448 
L 231.118591 -220.90027 
L 232.05878 -223.434706 
L 232.998968 -225.980914 
L 233.939157 -228.537572 
L 234.879345 -231.092695 
L 235.819534 -233.663069 
L 236.759722 -236.256739 
L 237.699911 -238.868825 
L 238.6401 -241.507015 
L 239.580288 -244.19402 
L 240.520477 -246.887652 
L 241.460665 -249.642515 
L 242.400854 -252.404168 
L 243.341043 -255.240257 
L 244.281231 -258.087898 
L 245.22142 -261.004676 
L 246.161608 -263.961392 
L 247.101797 -266.948091 
L 248.041985 -270.004004 
L 248.982174 -273.107964 
L 249.922363 -276.226308 
L 250.862551 -279.38563 
L 251.80274 -282.555864 
L 252.742928 -285.748913 
L 253.683117 -288.963594 
L 254.623305 -292.159666 
L 255.563494 -295.379053 
L 256.503683 -298.552806 
L 257.443871 -301.682103 
L 258.38406 -304.747724 
L 259.324248 -307.758808 
L 260.264437 -310.705126 
L 261.204626 -313.570007 
L 262.144814 -316.339191 
L 263.085003 -319.026745 
L 264.025191 -321.609936 
L 264.96538 -324.073026 
L 265.905568 -326.405037 
L 266.845757 -328.632969 
L 267.785946 -330.771844 
L 268.726134 -332.776801 
L 269.666323 -334.684376 
L 270.606511 -336.475179 
L 271.5467 -338.175672 
L 272.486888 -339.771313 
L 273.427077 -341.292227 
L 274.367266 -342.710033 
L 275.307454 -344.040421 
L 276.247643 -345.34404 
L 277.187831 -346.55426 
L 278.12802 -347.775579 
L 279.068209 -348.908558 
L 280.008397 -350.014375 
L 280.948586 -351.068203 
L 281.888774 -352.075837 
L 282.828963 -353.011486 
L 283.769151 -353.921262 
L 284.70934 -354.805968 
L 285.649529 -355.628161 
L 286.589717 -356.352415 
L 287.529906 -357.044593 
L 288.470094 -357.644211 
L 289.410283 -358.173542 
L 290.350471 -358.64458 
L 291.29066 -359.021855 
L 292.230849 -359.285163 
L 293.171037 -359.50188 
L 294.111226 -359.665233 
L 295.051414 -359.742727 
L 295.991603 -359.704781 
L 296.931791 -359.592624 
L 297.87198 -359.396668 
L 298.812169 -359.137939 
L 299.752357 -358.839344 
L 300.692546 -358.471198 
L 301.632734 -358.087222 
L 302.572923 -357.689283 
L 303.513112 -357.273323 
L 304.4533 -356.800474 
L 305.393489 -356.351641 
L 306.333677 -355.891586 
L 307.273866 -355.464577 
L 308.214054 -355.041016 
L 309.154243 -354.628909 
L 310.094432 -354.2361 
L 311.03462 -353.839365 
L 311.974809 -353.473382 
L 312.914997 -353.109103 
L 313.855186 -352.730045 
L 314.795374 -352.361445 
L 315.735563 -351.996783 
L 316.675752 -351.567258 
L 317.61594 -351.125617 
L 318.556129 -350.639035 
L 319.496317 -350.082941 
L 320.436506 -349.485118 
L 321.376695 -348.813558 
L 322.316883 -348.043648 
L 323.257072 -347.235667 
L 324.19726 -346.271925 
L 325.137449 -345.249113 
L 326.077637 -344.112219 
L 327.017826 -342.862514 
L 327.958015 -341.547018 
L 328.898203 -340.105375 
L 329.838392 -338.595468 
L 330.77858 -336.987131 
L 331.718769 -335.300011 
L 332.658957 -333.524306 
L 333.599146 -331.682198 
L 334.539335 -329.757277 
L 335.479523 -327.821278 
L 336.419712 -325.814275 
L 337.3599 -323.779489 
L 338.300089 -321.731646 
L 339.240278 -319.631983 
L 340.180466 -317.519931 
L 341.120655 -315.3795 
L 342.060843 -313.250449 
L 343.001032 -311.105843 
L 343.94122 -308.983767 
L 344.881409 -306.826654 
L 345.821598 -304.684999 
L 346.761786 -302.514991 
L 347.701975 -300.364456 
L 348.642163 -298.207499 
L 349.582352 -296.04403 
L 350.52254 -293.858766 
L 351.462729 -291.616337 
L 352.402918 -289.404629 
L 353.343106 -287.171922 
L 354.283295 -284.927492 
L 355.223483 -282.671899 
L 356.163672 -280.377943 
L 357.103861 -278.035197 
L 358.044049 -275.659158 
L 358.984238 -273.274609 
L 359.924426 -270.886457 
L 360.864615 -268.443982 
L 361.804803 -265.97594 
L 362.744992 -263.487641 
L 363.685181 -260.963674 
L 364.625369 -258.42667 
L 365.565558 -255.916101 
L 366.505746 -253.3697 
L 367.445935 -250.787926 
L 368.386123 -248.25869 
L 369.326312 -245.741693 
L 370.266501 -243.223789 
L 371.206689 -240.738588 
L 372.146878 -238.24295 
L 373.087066 -235.746291 
L 374.027255 -233.31329 
L 374.967444 -230.894051 
L 375.907632 -228.457154 
L 376.847821 -226.062029 
L 377.788009 -223.715678 
L 378.728198 -221.363051 
L 379.668386 -219.051082 
L 380.608575 -216.733232 
L 381.548764 -214.455981 
L 382.488952 -212.189423 
L 383.429141 -209.933875 
L 384.369329 -207.677926 
L 385.309518 -205.440962 
L 386.249706 -203.196615 
L 387.189895 -200.986638 
L 388.130084 -198.751715 
L 389.070272 -196.513875 
L 390.010461 -194.304353 
L 390.950649 -192.080835 
L 391.890838 -189.852444 
L 392.831027 -187.633328 
L 393.771215 -185.412429 
L 394.711404 -183.192905 
L 395.651592 -180.988906 
L 396.591781 -178.759002 
L 397.531969 -176.577007 
L 398.472158 -174.378187 
L 399.412347 -172.207987 
L 400.352535 -170.046217 
L 401.292724 -167.87597 
L 402.232912 -165.722251 
L 403.173101 -163.573579 
L 404.113289 -161.454891 
L 405.053478 -159.333565 
L 405.993667 -157.211495 
L 406.933855 -155.105047 
L 407.874044 -153.019833 
L 408.814232 -150.900552 
L 409.754421 -148.820284 
L 410.69461 -146.742191 
L 411.634798 -144.654187 
L 412.574987 -142.606906 
L 413.515175 -140.545556 
L 414.455364 -138.499042 
L 415.395552 -136.450719 
L 416.335741 -134.426139 
L 417.27593 -132.407148 
L 418.216118 -130.423091 
L 419.156307 -128.464426 
L 420.096495 -126.548734 
L 421.036684 -124.647907 
L 421.976872 -122.791077 
L 422.917061 -120.963459 
L 423.85725 -119.179747 
L 424.797438 -117.452428 
L 425.737627 -115.756607 
L 426.677815 -114.119872 
L 427.618004 -112.541181 
L 428.558192 -111.016247 
L 429.498381 -109.557826 
L 430.43857 -108.157437 
L 431.378758 -106.806452 
L 432.318947 -105.513585 
L 433.259135 -104.28812 
L 434.199324 -103.116878 
L 435.139513 -101.992181 
L 436.079701 -100.931822 
L 437.01989 -99.917707 
L 437.960078 -98.949545 
L 438.900267 -98.027386 
L 439.840455 -97.135849 
L 440.780644 -96.296032 
L 441.720833 -95.472419 
L 442.661021 -94.681551 
L 443.60121 -93.921992 
L 444.541398 -93.194765 
L 445.481587 -92.503628 
L 446.421775 -91.832549 
L 447.361964 -91.169266 
L 448.302153 -90.528756 
L 449.242341 -89.909329 
L 450.18253 -89.283679 
L 451.122718 -88.671681 
L 452.062907 -88.064118 
L 453.003096 -87.473145 
L 453.943284 -86.881503 
L 454.883473 -86.290834 
L 455.823661 -85.712846 
L 456.76385 -85.128743 
L 457.704038 -84.554384 
L 458.644227 -83.977943 
L 459.584416 -83.402813 
L 460.524604 -82.835788 
L 461.464793 -82.267083 
L 462.404981 -81.714995 
L 463.34517 -81.151999 
L 464.285358 -80.605924 
L 465.225547 -80.060304 
L 466.165736 -79.531882 
L 467.105924 -79.013941 
L 468.046113 -78.497765 
L 468.986301 -77.997718 
L 469.92649 -77.518726 
L 470.866679 -77.038505 
L 471.806867 -76.574124 
L 472.747056 -76.126039 
L 473.687244 -75.689391 
L 474.627433 -75.265011 
L 475.567621 -74.854131 
L 476.50781 -74.466454 
L 477.447999 -74.090096 
L 478.388187 -73.734196 
L 479.328376 -73.389873 
L 480.268564 -73.050044 
L 481.208753 -72.71605 
L 482.148941 -72.405114 
L 483.08913 -72.100118 
L 484.029319 -71.808566 
L 484.969507 -71.53148 
L 485.909696 -71.253837 
L 486.849884 -70.99602 
L 487.790073 -70.747495 
L 488.730262 -70.498153 
L 489.67045 -70.258755 
L 490.610639 -70.025976 
L 491.550827 -69.799523 
L 492.491016 -69.584465 
L 493.431204 -69.363897 
L 494.371393 -69.156223 
L 495.311582 -68.956983 
L 496.25177 -68.763199 
L 497.191959 -68.577209 
L 498.132147 -68.393822 
L 499.072336 -68.21831 
L 500.012524 -68.048407 
L 500.952713 -67.881821 
L 501.892902 -67.723105 
L 502.83309 -67.569271 
L 503.773279 -67.420272 
L 504.713467 -67.273694 
L 505.653656 -67.134611 
L 506.593845 -66.995257 
L 507.534033 -66.86821 
L 508.474222 -66.744542 
L 509.41441 -66.620252 
L 510.354599 -66.506383 
L 511.294787 -66.397057 
L 512.234976 -66.289424 
L 513.175165 -66.191162 
L 514.115353 -66.089633 
L 515.055542 -65.995416 
L 515.99573 -65.910955 
L 516.935919 -65.828356 
L 517.876107 -65.75022 
L 518.816296 -65.67213 
L 519.756485 -65.600025 
L 520.696673 -65.542196 
L 521.636862 -65.48778 
L 522.57705 -65.436409 
L 523.517239 -65.393508 
L 524.457428 -65.356294 
L 525.397616 -65.322584 
L 526.337805 -65.292993 
L 527.277993 -65.278605 
L 528.218182 -65.271332 
L 528.218182 -62.997273 
L 528.218182 -62.997273 
L 527.277993 -62.997273 
L 526.337805 -62.997273 
L 525.397616 -62.997273 
L 524.457428 -62.997273 
L 523.517239 -62.997273 
L 522.57705 -62.997273 
L 521.636862 -62.997273 
L 520.696673 -62.997273 
L 519.756485 -62.997273 
L 518.816296 -62.997273 
L 517.876107 -62.997273 
L 516.935919 -62.997273 
L 515.99573 -62.997273 
L 515.055542 -62.997273 
L 514.115353 -62.997273 
L 513.175165 -62.997273 
L 512.234976 -62.997273 
L 511.294787 -62.997273 
L 510.354599 -62.997273 
L 509.41441 -62.997273 
L 508.474222 -62.997273 
L 507.534033 -62.997273 
L 506.593845 -62.997273 
L 505.653656 -62.997273 
L 504.713467 -62.997273 
L 503.773279 -62.997273 
L 502.83309 -62.997273 
L 501.892902 -62.997273 
L 500.952713 -62.997273 
L 500.012524 -62.997273 
L 499.072336 -62.997273 
L 498.132147 -62.997273 
L 497.191959 -62.997273 
L 496.25177 -62.997273 
L 495.311582 -62.997273 
L 494.371393 -62.997273 
L 493.431204 -62.997273 
L 492.491016 -62.997273 
L 491.550827 -62.997273 
L 490.610639 -62.997273 
L 489.67045 -62.997273 
L 488.730262 -62.997273 
L 487.790073 -62.997273 
L 486.849884 -62.997273 
L 485.909696 -62.997273 
L 484.969507 -62.997273 
L 484.029319 -62.997273 
L 483.08913 -62.997273 
L 482.148941 -62.997273 
L 481.208753 -62.997273 
L 480.268564 -62.997273 
L 479.328376 -62.997273 
L 478.388187 -62.997273 
L 477.447999 -62.997273 
L 476.50781 -62.997273 
L 475.567621 -62.997273 
L 474.627433 -62.997273 
L 473.687244 -62.997273 
L 472.747056 -62.997273 
L 471.806867 -62.997273 
L 470.866679 -62.997273 
L 469.92649 -62.997273 
L 468.986301 -62.997273 
L 468.046113 -62.997273 
L 467.105924 -62.997273 
L 466.165736 -62.997273 
L 465.225547 -62.997273 
L 464.285358 -62.997273 
L 463.34517 -62.997273 
L 462.404981 -62.997273 
L 461.464793 -62.997273 
L 460.524604 -62.997273 
L 459.584416 -62.997273 
L 458.644227 -62.997273 
L 457.704038 -62.997273 
L 456.76385 -62.997273 
L 455.823661 -62.997273 
L 454.883473 -62.997273 
L 453.943284 -62.997273 
L 453.003096 -62.997273 
L 452.062907 -62.997273 
L 451.122718 -62.997273 
L 450.18253 -62.997273 
L 449.242341 -62.997273 
L 448.302153 -62.997273 
L 447.361964 -62.997273 
L 446.421775 -62.997273 
L 445.481587 -62.997273 
L 444.541398 -62.997273 
L 443.60121 -62.997273 
L 442.661021 -62.997273 
L 441.720833 -62.997273 
L 440.780644 -62.997273 
L 439.840455 -62.997273 
L 438.900267 -62.997273 
L 437.960078 -62.997273 
L 437.01989 -62.997273 
L 436.079701 -62.997273 
L 435.139513 -62.997273 
L 434.199324 -62.997273 
L 433.259135 -62.997273 
L 432.318947 -62.997273 
L 431.378758 -62.997273 
L 430.43857 -62.997273 
L 429.498381 -62.997273 
L 428.558192 -62.997273 
L 427.618004 -62.997273 
L 426.677815 -62.997273 
L 425.737627 -62.997273 
L 424.797438 -62.997273 
L 423.85725 -62.997273 
L 422.917061 -62.997273 
L 421.976872 -62.997273 
L 421.036684 -62.997273 
L 420.096495 -62.997273 
L 419.156307 -62.997273 
L 418.216118 -62.997273 
L 417.27593 -62.997273 
L 416.335741 -62.997273 
L 415.395552 -62.997273 
L 414.455364 -62.997273 
L 413.515175 -62.997273 
L 412.574987 -62.997273 
L 411.634798 -62.997273 
L 410.69461 -62.997273 
L 409.754421 -62.997273 
L 408.814232 -62.997273 
L 407.874044 -62.997273 
L 406.933855 -62.997273 
L 405.993667 -62.997273 
L 405.053478 -62.997273 
L 404.113289 -62.997273 
L 403.173101 -62.997273 
L 402.232912 -62.997273 
L 401.292724 -62.997273 
L 400.352535 -62.997273 
L 399.412347 -62.997273 
L 398.472158 -62.997273 
L 397.531969 -62.997273 
L 396.591781 -62.997273 
L 395.651592 -62.997273 
L 394.711404 -62.997273 
L 393.771215 -62.997273 
L 392.831027 -62.997273 
L 391.890838 -62.997273 
L 390.950649 -62.997273 
L 390.010461 -62.997273 
L 389.070272 -62.997273 
L 388.130084 -62.997273 
L 387.189895 -62.997273 
L 386.249706 -62.997273 
L 385.309518 -62.997273 
L 384.369329 -62.997273 
L 383.429141 -62.997273 
L 382.488952 -62.997273 
L 381.548764 -62.997273 
L 380.608575 -62.997273 
L 379.668386 -62.997273 
L 378.728198 -62.997273 
L 377.788009 -62.997273 
L 376.847821 -62.997273 
L 375.907632 -62.997273 
L 374.967444 -62.997273 
L 374.027255 -62.997273 
L 373.087066 -62.997273 
L 372.146878 -62.997273 
L 371.206689 -62.997273 
L 370.266501 -62.997273 
L 369.326312 -62.997273 
L 368.386123 -62.997273 
L 367.445935 -62.997273 
L 366.505746 -62.997273 
L 365.565558 -62.997273 
L 364.625369 -62.997273 
L 363.685181 -62.997273 
L 362.744992 -62.997273 
L 361.804803 -62.997273 
L 360.864615 -62.997273 
L 359.924426 -62.997273 
L 358.984238 -62.997273 
L 358.044049 -62.997273 
L 357.103861 -62.997273 
L 356.163672 -62.997273 
L 355.223483 -62.997273 
L 354.283295 -62.997273 
L 353.343106 -62.997273 
L 352.402918 -62.997273 
L 351.462729 -62.997273 
L 350.52254 -62.997273 
L 349.582352 -62.997273 
L 348.642163 -62.997273 
L 347.701975 -62.997273 
L 346.761786 -62.997273 
L 345.821598 -62.997273 
L 344.881409 -62.997273 
L 343.94122 -62.997273 
L 343.001032 -62.997273 
L 342.060843 -62.997273 
L 341.120655 -62.997273 
L 340.180466 -62.997273 
L 339.240278 -62.997273 
L 338.300089 -62.997273 
L 337.3599 -62.997273 
L 336.419712 -62.997273 
L 335.479523 -62.997273 
L 334.539335 -62.997273 
L 333.599146 -62.997273 
L 332.658957 -62.997273 
L 331.718769 -62.997273 
L 330.77858 -62.997273 
L 329.838392 -62.997273 
L 328.898203 -62.997273 
L 327.958015 -62.997273 
L 327.017826 -62.997273 
L 326.077637 -62.997273 
L 325.137449 -62.997273 
L 324.19726 -62.997273 
L 323.257072 -62.997273 
L 322.316883 -62.997273 
L 321.376695 -62.997273 
L 320.436506 -62.997273 
L 319.496317 -62.997273 
L 318.556129 -62.997273 
L 317.61594 -62.997273 
L 316.675752 -62.997273 
L 315.735563 -62.997273 
L 314.795374 -62.997273 
L 313.855186 -62.997273 
L 312.914997 -62.997273 
L 311.974809 -62.997273 
L 311.03462 -62.997273 
L 310.094432 -62.997273 
L 309.154243 -62.997273 
L 308.214054 -62.997273 
L 307.273866 -62.997273 
L 306.333677 -62.997273 
L 305.393489 -62.997273 
L 304.4533 -62.997273 
L 303.513112 -62.997273 
L 302.572923 -62.997273 
L 301.632734 -62.997273 
L 300.692546 -62.997273 
L 299.752357 -62.997273 
L 298.812169 -62.997273 
L 297.87198 -62.997273 
L 296.931791 -62.997273 
L 295.991603 -62.997273 
L 295.051414 -62.997273 
L 294.111226 -62.997273 
L 293.171037 -62.997273 
L 292.230849 -62.997273 
L 291.29066 -62.997273 
L 290.350471 -62.997273 
L 289.410283 -62.997273 
L 288.470094 -62.997273 
L 287.529906 -62.997273 
L 286.589717 -62.997273 
L 285.649529 -62.997273 
L 284.70934 -62.997273 
L 283.769151 -62.997273 
L 282.828963 -62.997273 
L 281.888774 -62.997273 
L 280.948586 -62.997273 
L 280.008397 -62.997273 
L 279.068209 -62.997273 
L 278.12802 -62.997273 
L 277.187831 -62.997273 
L 276.247643 -62.997273 
L 275.307454 -62.997273 
L 274.367266 -62.997273 
L 273.427077 -62.997273 
L 272.486888 -62.997273 
L 271.5467 -62.997273 
L 270.606511 -62.997273 
L 269.666323 -62.997273 
L 268.726134 -62.997273 
L 267.785946 -62.997273 
L 266.845757 -62.997273 
L 265.905568 -62.997273 
L 264.96538 -62.997273 
L 264.025191 -62.997273 
L 263.085003 -62.997273 
L 262.144814 -62.997273 
L 261.204626 -62.997273 
L 260.264437 -62.997273 
L 259.324248 -62.997273 
L 258.38406 -62.997273 
L 257.443871 -62.997273 
L 256.503683 -62.997273 
L 255.563494 -62.997273 
L 254.623305 -62.997273 
L 253.683117 -62.997273 
L 252.742928 -62.997273 
L 251.80274 -62.997273 
L 250.862551 -62.997273 
L 249.922363 -62.997273 
L 248.982174 -62.997273 
L 248.041985 -62.997273 
L 247.101797 -62.997273 
L 246.161608 -62.997273 
L 245.22142 -62.997273 
L 244.281231 -62.997273 
L 243.341043 -62.997273 
L 242.400854 -62.997273 
L 241.460665 -62.997273 
L 240.520477 -62.997273 
L 239.580288 -62.997273 
L 238.6401 -62.997273 
L 237.699911 -62.997273 
L 236.759722 -62.997273 
L 235.819534 -62.997273 
L 234.879345 -62.997273 
L 233.939157 -62.997273 
L 232.998968 -62.997273 
L 232.05878 -62.997273 
L 231.118591 -62.997273 
L 230.178402 -62.997273 
L 229.238214 -62.997273 
L 228.298025 -62.997273 
L 227.357837 -62.997273 
L 226.417648 -62.997273 
L 225.47746 -62.997273 
L 224.537271 -62.997273 
L 223.597082 -62.997273 
L 222.656894 -62.997273 
L 221.716705 -62.997273 
L 220.776517 -62.997273 
L 219.836328 -62.997273 
L 218.896139 -62.997273 
L 217.955951 -62.997273 
L 217.015762 -62.997273 
L 216.075574 -62.997273 
L 215.135385 -62.997273 
L 214.195197 -62.997273 
L 213.255008 -62.997273 
L 212.314819 -62.997273 
L 211.374631 -62.997273 
L 210.434442 -62.997273 
L 209.494254 -62.997273 
L 208.554065 -62.997273 
L 207.613877 -62.997273 
L 206.673688 -62.997273 
L 205.733499 -62.997273 
L 204.793311 -62.997273 
L 203.853122 -62.997273 
L 202.912934 -62.997273 
L 201.972745 -62.997273 
L 201.032556 -62.997273 
L 200.092368 -62.997273 
L 199.152179 -62.997273 
L 198.211991 -62.997273 
L 197.271802 -62.997273 
L 196.331614 -62.997273 
L 195.391425 -62.997273 
L 194.451236 -62.997273 
L 193.511048 -62.997273 
L 192.570859 -62.997273 
L 191.630671 -62.997273 
L 190.690482 -62.997273 
L 189.750294 -62.997273 
L 188.810105 -62.997273 
L 187.869916 -62.997273 
L 186.929728 -62.997273 
L 185.989539 -62.997273 
L 185.049351 -62.997273 
L 184.109162 -62.997273 
L 183.168973 -62.997273 
L 182.228785 -62.997273 
L 181.288596 -62.997273 
L 180.348408 -62.997273 
L 179.408219 -62.997273 
L 178.468031 -62.997273 
L 177.527842 -62.997273 
L 176.587653 -62.997273 
L 175.647465 -62.997273 
L 174.707276 -62.997273 
L 173.767088 -62.997273 
L 172.826899 -62.997273 
L 171.886711 -62.997273 
L 170.946522 -62.997273 
L 170.006333 -62.997273 
L 169.066145 -62.997273 
L 168.125956 -62.997273 
L 167.185768 -62.997273 
L 166.245579 -62.997273 
L 165.30539 -62.997273 
L 164.365202 -62.997273 
L 163.425013 -62.997273 
L 162.484825 -62.997273 
L 161.544636 -62.997273 
L 160.604448 -62.997273 
L 159.664259 -62.997273 
L 158.72407 -62.997273 
L 157.783882 -62.997273 
L 156.843693 -62.997273 
L 155.903505 -62.997273 
L 154.963316 -62.997273 
L 154.023128 -62.997273 
L 153.082939 -62.997273 
L 152.14275 -62.997273 
L 151.202562 -62.997273 
L 150.262373 -62.997273 
L 149.322185 -62.997273 
L 148.381996 -62.997273 
L 147.441808 -62.997273 
L 146.501619 -62.997273 
L 145.56143 -62.997273 
L 144.621242 -62.997273 
L 143.681053 -62.997273 
L 142.740865 -62.997273 
L 141.800676 -62.997273 
L 140.860487 -62.997273 
L 139.920299 -62.997273 
L 138.98011 -62.997273 
L 138.039922 -62.997273 
L 137.099733 -62.997273 
L 136.159545 -62.997273 
L 135.219356 -62.997273 
L 134.279167 -62.997273 
L 133.338979 -62.997273 
L 132.39879 -62.997273 
L 131.458602 -62.997273 
L 130.518413 -62.997273 
L 129.578225 -62.997273 
L 128.638036 -62.997273 
L 127.697847 -62.997273 
L 126.757659 -62.997273 
L 125.81747 -62.997273 
L 124.877282 -62.997273 
L 123.937093 -62.997273 
L 122.996904 -62.997273 
L 122.056716 -62.997273 
L 121.116527 -62.997273 
L 120.176339 -62.997273 
L 119.23615 -62.997273 
L 118.295962 -62.997273 
L 117.355773 -62.997273 
L 116.415584 -62.997273 
L 115.475396 -62.997273 
L 114.535207 -62.997273 
L 113.595019 -62.997273 
L 112.65483 -62.997273 
L 111.714642 -62.997273 
L 110.774453 -62.997273 
L 109.834264 -62.997273 
L 108.894076 -62.997273 
L 107.953887 -62.997273 
L 107.013699 -62.997273 
L 106.07351 -62.997273 
L 105.133321 -62.997273 
L 104.193133 -62.997273 
L 103.252944 -62.997273 
L 102.312756 -62.997273 
L 101.372567 -62.997273 
L 100.432379 -62.997273 
L 99.49219 -62.997273 
L 98.552001 -62.997273 
L 97.611813 -62.997273 
L 96.671624 -62.997273 
L 95.731436 -62.997273 
L 94.791247 -62.997273 
L 93.851059 -62.997273 
L 92.91087 -62.997273 
L 91.970681 -62.997273 
L 91.030493 -62.997273 
L 90.090304 -62.997273 
L 89.150116 -62.997273 
L 88.209927 -62.997273 
L 87.269738 -62.997273 
L 86.32955 -62.997273 
L 85.389361 -62.997273 
L 84.449173 -62.997273 
L 83.508984 -62.997273 
L 82.568796 -62.997273 
L 81.628607 -62.997273 
L 80.688418 -62.997273 
L 79.74823 -62.997273 
L 78.808041 -62.997273 
L 77.867853 -62.997273 
L 76.927664 -62.997273 
L 75.987476 -62.997273 
L 75.047287 -62.997273 
L 74.107098 -62.997273 
L 73.16691 -62.997273 
L 72.226721 -62.997273 
L 71.286533 -62.997273 
L 70.346344 -62.997273 
L 69.406155 -62.997273 
L 68.465967 -62.997273 
L 67.525778 -62.997273 
L 66.58559 -62.997273 
L 65.645401 -62.997273 
L 64.705213 -62.997273 
L 63.765024 -62.997273 
L 62.824835 -62.997273 
L 61.884647 -62.997273 
L 60.944458 -62.997273 
L 60.00427 -62.997273 
L 59.064081 -62.997273 
L 58.123893 -62.997273 
L 57.183704 -62.997273 
L 56.243515 -62.997273 
L 55.303327 -62.997273 
L 54.363138 -62.997273 
L 53.42295 -62.997273 
L 52.482761 -62.997273 
L 51.542572 -62.997273 
L 50.602384 -62.997273 
L 49.662195 -62.997273 
L 48.722007 -62.997273 
L 47.781818 -62.997273 
z
"/>
    </defs>
    <g clip-path="url(#pc9f8f5cd19)">
     <use xlink:href="#mfad08e9ce0" x="0" y="432" style="fill: #51d7c1; fill-opacity: 0.6"/>
    </g>
   </g>
   <g id="line2d_20">
    <path d="M 47.781818 368.334273 
L 55.303327 368.446723 
L 68.465967 368.679593 
L 75.047287 368.522717 
L 83.508984 368.075632 
L 96.671624 367.245232 
L 102.312756 366.647396 
L 107.953887 365.781507 
L 115.475396 364.350498 
L 128.638036 361.607916 
L 133.338979 360.360731 
L 137.099733 359.165174 
L 140.860487 357.733918 
L 144.621242 356.094662 
L 148.381996 354.237971 
L 152.14275 352.16642 
L 154.963316 350.41188 
L 157.783882 348.415212 
L 160.604448 346.111976 
L 163.425013 343.416515 
L 166.245579 340.229755 
L 169.066145 336.528574 
L 171.886711 332.349178 
L 175.647465 326.114714 
L 179.408219 319.438013 
L 185.989539 307.779179 
L 190.690482 299.910967 
L 200.092368 284.643277 
L 202.912934 279.618228 
L 205.733499 274.159293 
L 208.554065 268.27304 
L 212.314819 259.737806 
L 216.075574 250.591614 
L 220.776517 238.484735 
L 226.417648 223.603186 
L 237.699911 193.131175 
L 241.460665 182.357485 
L 245.22142 170.995324 
L 248.982174 158.892036 
L 254.623305 139.840334 
L 258.38406 127.252276 
L 261.204626 118.429993 
L 264.025191 110.390064 
L 265.905568 105.594963 
L 267.785946 101.228156 
L 269.666323 97.315624 
L 271.5467 93.824328 
L 273.427077 90.707773 
L 275.307454 87.959579 
L 278.12802 84.224421 
L 280.948586 80.931797 
L 282.828963 78.988514 
L 285.649529 76.371839 
L 287.529906 74.955407 
L 289.410283 73.826458 
L 291.29066 72.978145 
L 293.171037 72.49812 
L 295.051414 72.257273 
L 296.931791 72.407376 
L 298.812169 72.862061 
L 300.692546 73.528802 
L 303.513112 74.726677 
L 307.273866 76.535423 
L 311.03462 78.160635 
L 316.675752 80.432742 
L 318.556129 81.360965 
L 320.436506 82.514882 
L 322.316883 83.956352 
L 323.257072 84.764333 
L 325.137449 86.750887 
L 327.017826 89.137486 
L 328.898203 91.894625 
L 330.77858 95.012869 
L 332.658957 98.475694 
L 335.479523 104.178722 
L 339.240278 112.368017 
L 347.701975 131.635544 
L 353.343106 144.828078 
L 357.103861 153.964803 
L 362.744992 168.512359 
L 375.907632 203.542846 
L 380.608575 215.266768 
L 389.070272 235.486125 
L 403.173101 268.426421 
L 412.574987 289.393094 
L 418.216118 301.576909 
L 421.976872 309.208923 
L 424.797438 314.547572 
L 427.618004 319.458819 
L 430.43857 323.842563 
L 433.259135 327.71188 
L 436.079701 331.068178 
L 438.900267 333.972614 
L 441.720833 336.527581 
L 444.541398 338.805235 
L 448.302153 341.471244 
L 454.883473 345.709166 
L 465.225547 351.939696 
L 469.92649 354.481274 
L 473.687244 356.310609 
L 477.447999 357.909904 
L 482.148941 359.594886 
L 486.849884 361.00398 
L 493.431204 362.636103 
L 499.072336 363.78169 
L 505.653656 364.865389 
L 511.294787 365.602943 
L 517.876107 366.24978 
L 522.57705 366.563591 
L 528.218182 366.728668 
L 528.218182 366.728668 
" clip-path="url(#pc9f8f5cd19)" style="fill: none; stroke: #51d7c1; stroke-width: 1.5; stroke-linecap: round"/>
   </g>
   <g id="line2d_21">
    <path d="M 199.805498 362.771073 
L 411.467196 362.771073 
" clip-path="url(#pc9f8f5cd19)" style="fill: none; stroke: #51d7c1; stroke-width: 3.5; stroke-linecap: round"/>
   </g>
   <g id="patch_3">
    <path d="M 23.76 383.84 
L 552.24 383.84 
" style="fill: none; stroke: #333333; stroke-width: 1.5; stroke-linejoin: miter; stroke-linecap: square"/>
   </g>
   <g id="text_8">
    <!-- $x_1x_2^2x_3$ -->
    <g style="fill: #262626" transform="translate(242.64 49.58)">
     <text>
      <tspan x="0" y="-0.734375" style="font-style: oblique; font-size: 28px; font-family: 'DejaVu Sans'; fill: #262626">x</tspan>
      <tspan x="29.806055" y="-0.734375" style="font-style: oblique; font-size: 28px; font-family: 'DejaVu Sans'; fill: #262626">x</tspan>
      <tspan x="60.86263" y="-0.734375" style="font-style: oblique; font-size: 28px; font-family: 'DejaVu Sans'; fill: #262626">x</tspan>
      <tspan x="16.570312" y="3.859375" style="font-size: 19.6px; font-family: 'DejaVu Sans'; fill: #262626">1</tspan>
      <tspan x="46.376367" y="6.921875" style="font-size: 19.6px; font-family: 'DejaVu Sans'; fill: #262626">2</tspan>
      <tspan x="47.626888" y="-11.453125" style="font-size: 19.6px; font-family: 'DejaVu Sans'; fill: #262626">2</tspan>
      <tspan x="77.432943" y="3.859375" style="font-size: 19.6px; font-family: 'DejaVu Sans'; fill: #262626">3</tspan>
     </text>
    </g>
   </g>
  </g>
 </g>
 <defs>
  <clipPath id="pc9f8f5cd19">
   <rect x="23.76" y="57.42" width="528.48" height="326.42"/>
  </clipPath>
 </defs>
</svg>
