<?xml version="1.0" encoding="utf-8" standalone="no"?>
<!DOCTYPE svg PUBLIC "-//W3C//DTD SVG 1.1//EN"
  "http://www.w3.org/Graphics/SVG/1.1/DTD/svg11.dtd">
<svg xmlns:xlink="http://www.w3.org/1999/xlink" width="576pt" height="432pt" viewBox="0 0 576 432" xmlns="http://www.w3.org/2000/svg" version="1.1">
 <metadata>
  <rdf:RDF xmlns:dc="http://purl.org/dc/elements/1.1/" xmlns:cc="http://creativecommons.org/ns#" xmlns:rdf="http://www.w3.org/1999/02/22-rdf-syntax-ns#">
   <cc:Work>
    <dc:type rdf:resource="http://purl.org/dc/dcmitype/StillImage"/>
    <dc:date>2025-09-23T14:40:24.747740</dc:date>
    <dc:format>image/svg+xml</dc:format>
    <dc:creator>
     <cc:Agent>
      <dc:title>Matplotlib v3.10.0, https://matplotlib.org/</dc:title>
     </cc:Agent>
    </dc:creator>
   </cc:Work>
  </rdf:RDF>
 </metadata>
 <defs>
  <style type="text/css">*{stroke-linejoin: round; stroke-linecap: butt}</style>
 </defs>
 <g id="figure_1">
  <g id="patch_1">
   <path d="M 0 432 
L 576 432 
L 576 0 
L 0 0 
L 0 432 
z
" style="fill: none; opacity: 0"/>
  </g>
  <g id="axes_1">
   <g id="patch_2">
    <path d="M 23.76 383.84 
L 552.24 383.84 
L 552.24 51.12 
L 23.76 51.12 
L 23.76 383.84 
z
" style="fill: none"/>
   </g>
   <g id="matplotlib.axis_1">
    <g id="xtick_1">
     <g id="line2d_1">
      <path d="M 71.980396 383.84 
L 71.980396 51.12 
" clip-path="url(#pc691ccbc98)" style="fill: none; stroke: #ffffff; stroke-opacity: 0.4; stroke-linecap: round"/>
     </g>
     <g id="line2d_2"/>
     <g id="text_1">
      <text style="font-size: 18px; font-family: 'DejaVu Serif', 'Times New Roman', serif; text-anchor: middle; fill: #262626" x="71.980396" y="404.517187" transform="rotate(-0 71.980396 404.517187)">−15</text>
     </g>
    </g>
    <g id="xtick_2">
     <g id="line2d_3">
      <path d="M 146.408254 383.84 
L 146.408254 51.12 
" clip-path="url(#pc691ccbc98)" style="fill: none; stroke: #ffffff; stroke-opacity: 0.4; stroke-linecap: round"/>
     </g>
     <g id="line2d_4"/>
     <g id="text_2">
      <text style="font-size: 18px; font-family: 'DejaVu Serif', 'Times New Roman', serif; text-anchor: middle; fill: #262626" x="146.408254" y="404.517187" transform="rotate(-0 146.408254 404.517187)">−10</text>
     </g>
    </g>
    <g id="xtick_3">
     <g id="line2d_5">
      <path d="M 220.836113 383.84 
L 220.836113 51.12 
" clip-path="url(#pc691ccbc98)" style="fill: none; stroke: #ffffff; stroke-opacity: 0.4; stroke-linecap: round"/>
     </g>
     <g id="line2d_6"/>
     <g id="text_3">
      <text style="font-size: 18px; font-family: 'DejaVu Serif', 'Times New Roman', serif; text-anchor: middle; fill: #262626" x="220.836113" y="404.517187" transform="rotate(-0 220.836113 404.517187)">−5</text>
     </g>
    </g>
    <g id="xtick_4">
     <g id="line2d_7">
      <path d="M 295.263971 383.84 
L 295.263971 51.12 
" clip-path="url(#pc691ccbc98)" style="fill: none; stroke: #ffffff; stroke-opacity: 0.4; stroke-linecap: round"/>
     </g>
     <g id="line2d_8"/>
     <g id="text_4">
      <text style="font-size: 18px; font-family: 'DejaVu Serif', 'Times New Roman', serif; text-anchor: middle; fill: #262626" x="295.263971" y="404.517187" transform="rotate(-0 295.263971 404.517187)">0</text>
     </g>
    </g>
    <g id="xtick_5">
     <g id="line2d_9">
      <path d="M 369.69183 383.84 
L 369.69183 51.12 
" clip-path="url(#pc691ccbc98)" style="fill: none; stroke: #ffffff; stroke-opacity: 0.4; stroke-linecap: round"/>
     </g>
     <g id="line2d_10"/>
     <g id="text_5">
      <text style="font-size: 18px; font-family: 'DejaVu Serif', 'Times New Roman', serif; text-anchor: middle; fill: #262626" x="369.69183" y="404.517187" transform="rotate(-0 369.69183 404.517187)">5</text>
     </g>
    </g>
    <g id="xtick_6">
     <g id="line2d_11">
      <path d="M 444.119688 383.84 
L 444.119688 51.12 
" clip-path="url(#pc691ccbc98)" style="fill: none; stroke: #ffffff; stroke-opacity: 0.4; stroke-linecap: round"/>
     </g>
     <g id="line2d_12"/>
     <g id="text_6">
      <text style="font-size: 18px; font-family: 'DejaVu Serif', 'Times New Roman', serif; text-anchor: middle; fill: #262626" x="444.119688" y="404.517187" transform="rotate(-0 444.119688 404.517187)">10</text>
     </g>
    </g>
    <g id="xtick_7">
     <g id="line2d_13">
      <path d="M 518.547547 383.84 
L 518.547547 51.12 
" clip-path="url(#pc691ccbc98)" style="fill: none; stroke: #ffffff; stroke-opacity: 0.4; stroke-linecap: round"/>
     </g>
     <g id="line2d_14"/>
     <g id="text_7">
      <text style="font-size: 18px; font-family: 'DejaVu Serif', 'Times New Roman', serif; text-anchor: middle; fill: #262626" x="518.547547" y="404.517187" transform="rotate(-0 518.547547 404.517187)">15</text>
     </g>
    </g>
   </g>
   <g id="matplotlib.axis_2">
    <g id="ytick_1">
     <g id="line2d_15">
      <path d="M 23.76 368.716364 
L 552.24 368.716364 
" clip-path="url(#pc691ccbc98)" style="fill: none; stroke: #ffffff; stroke-opacity: 0.4; stroke-linecap: round"/>
     </g>
    </g>
    <g id="ytick_2">
     <g id="line2d_16">
      <path d="M 23.76 302.517705 
L 552.24 302.517705 
" clip-path="url(#pc691ccbc98)" style="fill: none; stroke: #ffffff; stroke-opacity: 0.4; stroke-linecap: round"/>
     </g>
    </g>
    <g id="ytick_3">
     <g id="line2d_17">
      <path d="M 23.76 236.319046 
L 552.24 236.319046 
" clip-path="url(#pc691ccbc98)" style="fill: none; stroke: #ffffff; stroke-opacity: 0.4; stroke-linecap: round"/>
     </g>
    </g>
    <g id="ytick_4">
     <g id="line2d_18">
      <path d="M 23.76 170.120388 
L 552.24 170.120388 
" clip-path="url(#pc691ccbc98)" style="fill: none; stroke: #ffffff; stroke-opacity: 0.4; stroke-linecap: round"/>
     </g>
    </g>
    <g id="ytick_5">
     <g id="line2d_19">
      <path d="M 23.76 103.921729 
L 552.24 103.921729 
" clip-path="url(#pc691ccbc98)" style="fill: none; stroke: #ffffff; stroke-opacity: 0.4; stroke-linecap: round"/>
     </g>
    </g>
   </g>
   <g id="FillBetweenPolyCollection_1">
    <defs>
     <path id="mb41c5385db" d="M 47.781818 -63.283636 
L 47.781818 -64.284249 
L 48.722007 -64.284589 
L 49.662195 -64.285299 
L 50.602384 -64.286436 
L 51.542572 -64.288074 
L 52.482761 -64.290303 
L 53.42295 -64.290918 
L 54.363138 -64.295114 
L 55.303327 -64.299994 
L 56.243515 -64.305596 
L 57.183704 -64.311907 
L 58.123893 -64.321827 
L 59.064081 -64.330136 
L 60.00427 -64.338962 
L 60.944458 -64.348085 
L 61.884647 -64.357918 
L 62.824835 -64.368183 
L 63.765024 -64.375628 
L 64.705213 -64.385079 
L 65.645401 -64.396268 
L 66.58559 -64.403856 
L 67.525778 -64.409942 
L 68.465967 -64.414382 
L 69.406155 -64.417093 
L 70.346344 -64.418056 
L 71.286533 -64.417328 
L 72.226721 -64.415038 
L 73.16691 -64.411387 
L 74.107098 -64.406638 
L 75.047287 -64.40111 
L 75.987476 -64.395157 
L 76.927664 -64.389158 
L 77.867853 -64.386466 
L 78.808041 -64.385334 
L 79.74823 -64.383332 
L 80.688418 -64.386079 
L 81.628607 -64.391761 
L 82.568796 -64.395553 
L 83.508984 -64.402796 
L 84.449173 -64.41878 
L 85.389361 -64.435561 
L 86.32955 -64.458464 
L 87.269738 -64.485361 
L 88.209927 -64.51341 
L 89.150116 -64.55078 
L 90.090304 -64.590173 
L 91.030493 -64.634004 
L 91.970681 -64.679462 
L 92.91087 -64.728872 
L 93.851059 -64.785266 
L 94.791247 -64.843651 
L 95.731436 -64.915394 
L 96.671624 -64.99137 
L 97.611813 -65.071572 
L 98.552001 -65.158879 
L 99.49219 -65.25096 
L 100.432379 -65.353572 
L 101.372567 -65.465071 
L 102.312756 -65.586767 
L 103.252944 -65.719275 
L 104.193133 -65.860197 
L 105.133321 -66.015135 
L 106.07351 -66.184485 
L 107.013699 -66.363415 
L 107.953887 -66.560299 
L 108.894076 -66.770888 
L 109.834264 -66.995424 
L 110.774453 -67.231091 
L 111.714642 -67.474146 
L 112.65483 -67.738239 
L 113.595019 -68.007471 
L 114.535207 -68.29036 
L 115.475396 -68.581066 
L 116.415584 -68.881049 
L 117.355773 -69.195333 
L 118.295962 -69.5157 
L 119.23615 -69.849524 
L 120.176339 -70.197616 
L 121.116527 -70.54333 
L 122.056716 -70.903962 
L 122.996904 -71.263451 
L 123.937093 -71.63388 
L 124.877282 -72.001345 
L 125.81747 -72.386672 
L 126.757659 -72.766419 
L 127.697847 -73.160911 
L 128.638036 -73.549716 
L 129.578225 -73.94431 
L 130.518413 -74.338256 
L 131.458602 -74.745052 
L 132.39879 -75.156198 
L 133.338979 -75.568832 
L 134.279167 -75.978703 
L 135.219356 -76.402125 
L 136.159545 -76.81934 
L 137.099733 -77.242619 
L 138.039922 -77.675371 
L 138.98011 -78.110956 
L 139.920299 -78.552593 
L 140.860487 -79.004347 
L 141.800676 -79.471288 
L 142.740865 -79.947802 
L 143.681053 -80.444104 
L 144.621242 -80.952168 
L 145.56143 -81.46703 
L 146.501619 -82.035266 
L 147.441808 -82.609398 
L 148.381996 -83.199187 
L 149.322185 -83.825351 
L 150.262373 -84.494564 
L 151.202562 -85.191643 
L 152.14275 -85.929421 
L 153.082939 -86.704268 
L 154.023128 -87.519722 
L 154.963316 -88.39294 
L 155.903505 -89.302758 
L 156.843693 -90.2626 
L 157.783882 -91.295781 
L 158.72407 -92.35882 
L 159.664259 -93.46771 
L 160.604448 -94.651486 
L 161.544636 -95.874356 
L 162.484825 -97.149236 
L 163.425013 -98.489808 
L 164.365202 -99.864483 
L 165.30539 -101.302692 
L 166.245579 -102.784414 
L 167.185768 -104.316099 
L 168.125956 -105.912161 
L 169.066145 -107.530074 
L 170.006333 -109.198535 
L 170.946522 -110.935174 
L 171.886711 -112.680538 
L 172.826899 -114.465039 
L 173.767088 -116.289311 
L 174.707276 -118.145309 
L 175.647465 -120.009408 
L 176.587653 -121.900238 
L 177.527842 -123.818343 
L 178.468031 -125.739406 
L 179.408219 -127.675265 
L 180.348408 -129.602195 
L 181.288596 -131.531852 
L 182.228785 -133.461768 
L 183.168973 -135.373246 
L 184.109162 -137.289325 
L 185.049351 -139.182698 
L 185.989539 -141.057595 
L 186.929728 -142.902271 
L 187.869916 -144.716902 
L 188.810105 -146.531642 
L 189.750294 -148.300187 
L 190.690482 -150.030864 
L 191.630671 -151.733684 
L 192.570859 -153.405688 
L 193.511048 -155.071232 
L 194.451236 -156.707896 
L 195.391425 -158.340323 
L 196.331614 -159.936947 
L 197.271802 -161.529703 
L 198.211991 -163.101956 
L 199.152179 -164.691429 
L 200.092368 -166.298293 
L 201.032556 -167.905288 
L 201.972745 -169.51801 
L 202.912934 -171.169526 
L 203.853122 -172.869008 
L 204.793311 -174.633285 
L 205.733499 -176.406289 
L 206.673688 -178.225037 
L 207.613877 -180.10266 
L 208.554065 -182.048872 
L 209.494254 -184.084739 
L 210.434442 -186.180152 
L 211.374631 -188.363912 
L 212.314819 -190.633894 
L 213.255008 -192.99257 
L 214.195197 -195.420673 
L 215.135385 -197.935878 
L 216.075574 -200.547272 
L 217.015762 -203.208221 
L 217.955951 -205.990797 
L 218.896139 -208.832009 
L 219.836328 -211.713857 
L 220.776517 -214.668719 
L 221.716705 -217.664155 
L 222.656894 -220.703186 
L 223.597082 -223.759602 
L 224.537271 -226.837359 
L 225.47746 -229.920649 
L 226.417648 -233.023402 
L 227.357837 -236.083879 
L 228.298025 -239.103471 
L 229.238214 -242.169908 
L 230.178402 -245.192808 
L 231.118591 -248.17534 
L 232.05878 -251.148546 
L 232.998968 -254.071784 
L 233.939157 -256.94137 
L 234.879345 -259.811899 
L 235.819534 -262.661745 
L 236.759722 -265.484785 
L 237.699911 -268.303803 
L 238.6401 -271.103007 
L 239.580288 -273.937291 
L 240.520477 -276.764889 
L 241.460665 -279.546811 
L 242.400854 -282.428673 
L 243.341043 -285.303017 
L 244.281231 -288.193976 
L 245.22142 -291.11072 
L 246.161608 -294.045698 
L 247.101797 -297.017783 
L 248.041985 -299.965063 
L 248.982174 -302.927058 
L 249.922363 -305.904553 
L 250.862551 -308.868198 
L 251.80274 -311.808546 
L 252.742928 -314.684904 
L 253.683117 -317.571989 
L 254.623305 -320.383292 
L 255.563494 -323.135815 
L 256.503683 -325.840852 
L 257.443871 -328.459318 
L 258.38406 -331.016035 
L 259.324248 -333.491041 
L 260.264437 -335.857189 
L 261.204626 -338.174607 
L 262.144814 -340.377493 
L 263.085003 -342.52548 
L 264.025191 -344.570726 
L 264.96538 -346.575667 
L 265.905568 -348.4612 
L 266.845757 -350.253023 
L 267.785946 -351.975774 
L 268.726134 -353.648339 
L 269.666323 -355.194421 
L 270.606511 -356.639972 
L 271.5467 -358.019885 
L 272.486888 -359.293846 
L 273.427077 -360.475881 
L 274.367266 -361.536234 
L 275.307454 -362.451832 
L 276.247643 -363.314639 
L 277.187831 -364.073497 
L 278.12802 -364.673845 
L 279.068209 -365.125725 
L 280.008397 -365.440427 
L 280.948586 -365.652401 
L 281.888774 -365.756364 
L 282.828963 -365.722723 
L 283.769151 -365.579943 
L 284.70934 -365.371255 
L 285.649529 -365.089672 
L 286.589717 -364.72338 
L 287.529906 -364.319663 
L 288.470094 -363.83842 
L 289.410283 -363.36815 
L 290.350471 -362.896851 
L 291.29066 -362.41742 
L 292.230849 -361.972996 
L 293.171037 -361.54607 
L 294.111226 -361.173976 
L 295.051414 -360.846523 
L 295.991603 -360.59216 
L 296.931791 -360.373655 
L 297.87198 -360.214995 
L 298.812169 -360.106998 
L 299.752357 -360.012266 
L 300.692546 -359.958485 
L 301.632734 -359.906035 
L 302.572923 -359.856694 
L 303.513112 -359.832118 
L 304.4533 -359.764178 
L 305.393489 -359.669178 
L 306.333677 -359.497104 
L 307.273866 -359.277351 
L 308.214054 -358.961788 
L 309.154243 -358.575926 
L 310.094432 -358.051882 
L 311.03462 -357.433166 
L 311.974809 -356.7135 
L 312.914997 -355.828405 
L 313.855186 -354.834754 
L 314.795374 -353.757653 
L 315.735563 -352.529946 
L 316.675752 -351.168696 
L 317.61594 -349.674892 
L 318.556129 -348.07787 
L 319.496317 -346.352409 
L 320.436506 -344.492792 
L 321.376695 -342.521755 
L 322.316883 -340.444688 
L 323.257072 -338.304854 
L 324.19726 -335.988104 
L 325.137449 -333.629897 
L 326.077637 -331.17314 
L 327.017826 -328.623641 
L 327.958015 -326.004005 
L 328.898203 -323.30783 
L 329.838392 -320.541269 
L 330.77858 -317.74291 
L 331.718769 -314.863946 
L 332.658957 -311.971228 
L 333.599146 -309.014843 
L 334.539335 -306.055557 
L 335.479523 -303.055607 
L 336.419712 -300.09671 
L 337.3599 -297.187215 
L 338.300089 -294.265342 
L 339.240278 -291.370107 
L 340.180466 -288.571374 
L 341.120655 -285.828675 
L 342.060843 -283.143925 
L 343.001032 -280.536585 
L 343.94122 -277.998061 
L 344.881409 -275.553425 
L 345.821598 -273.211483 
L 346.761786 -270.918105 
L 347.701975 -268.722953 
L 348.642163 -266.624012 
L 349.582352 -264.602652 
L 350.52254 -262.646138 
L 351.462729 -260.721169 
L 352.402918 -258.842758 
L 353.343106 -257.023084 
L 354.283295 -255.252242 
L 355.223483 -253.508502 
L 356.163672 -251.772117 
L 357.103861 -250.050188 
L 358.044049 -248.318945 
L 358.984238 -246.616204 
L 359.924426 -244.871669 
L 360.864615 -243.124206 
L 361.804803 -241.33897 
L 362.744992 -239.541571 
L 363.685181 -237.729625 
L 364.625369 -235.88775 
L 365.565558 -234.018631 
L 366.505746 -232.077007 
L 367.445935 -230.14458 
L 368.386123 -228.196172 
L 369.326312 -226.206602 
L 370.266501 -224.169925 
L 371.206689 -222.113259 
L 372.146878 -220.038336 
L 373.087066 -217.925819 
L 374.027255 -215.758233 
L 374.967444 -213.568444 
L 375.907632 -211.317826 
L 376.847821 -209.038641 
L 377.788009 -206.703716 
L 378.728198 -204.345281 
L 379.668386 -201.928515 
L 380.608575 -199.499578 
L 381.548764 -197.016911 
L 382.488952 -194.495775 
L 383.429141 -191.928809 
L 384.369329 -189.333476 
L 385.309518 -186.662543 
L 386.249706 -183.999039 
L 387.189895 -181.334572 
L 388.130084 -178.628191 
L 389.070272 -175.919679 
L 390.010461 -173.213728 
L 390.950649 -170.507882 
L 391.890838 -167.825512 
L 392.831027 -165.152439 
L 393.771215 -162.480359 
L 394.711404 -159.866668 
L 395.651592 -157.26109 
L 396.591781 -154.708256 
L 397.531969 -152.19835 
L 398.472158 -149.744846 
L 399.412347 -147.339037 
L 400.352535 -144.998636 
L 401.292724 -142.732041 
L 402.232912 -140.520169 
L 403.173101 -138.374908 
L 404.113289 -136.27918 
L 405.053478 -134.244452 
L 405.993667 -132.27786 
L 406.933855 -130.389375 
L 407.874044 -128.544241 
L 408.814232 -126.778099 
L 409.754421 -125.057473 
L 410.69461 -123.381252 
L 411.634798 -121.767954 
L 412.574987 -120.215359 
L 413.515175 -118.726824 
L 414.455364 -117.283004 
L 415.395552 -115.903905 
L 416.335741 -114.565547 
L 417.27593 -113.277283 
L 418.216118 -112.017489 
L 419.156307 -110.812399 
L 420.096495 -109.645397 
L 421.036684 -108.512851 
L 421.976872 -107.434322 
L 422.917061 -106.367895 
L 423.85725 -105.337721 
L 424.797438 -104.323126 
L 425.737627 -103.318855 
L 426.677815 -102.347555 
L 427.618004 -101.40287 
L 428.558192 -100.472894 
L 429.498381 -99.545652 
L 430.43857 -98.645227 
L 431.378758 -97.742206 
L 432.318947 -96.85047 
L 433.259135 -95.950226 
L 434.199324 -95.040938 
L 435.139513 -94.134105 
L 436.079701 -93.222267 
L 437.01989 -92.324831 
L 437.960078 -91.402585 
L 438.900267 -90.486578 
L 439.840455 -89.564671 
L 440.780644 -88.648186 
L 441.720833 -87.731071 
L 442.661021 -86.813392 
L 443.60121 -85.906406 
L 444.541398 -85.012222 
L 445.481587 -84.134917 
L 446.421775 -83.26521 
L 447.361964 -82.419664 
L 448.302153 -81.605522 
L 449.242341 -80.80555 
L 450.18253 -80.033899 
L 451.122718 -79.29096 
L 452.062907 -78.584873 
L 453.003096 -77.919927 
L 453.943284 -77.286798 
L 454.883473 -76.694772 
L 455.823661 -76.146137 
L 456.76385 -75.63603 
L 457.704038 -75.159675 
L 458.644227 -74.722877 
L 459.584416 -74.325775 
L 460.524604 -73.953843 
L 461.464793 -73.613332 
L 462.404981 -73.301224 
L 463.34517 -73.011943 
L 464.285358 -72.749437 
L 465.225547 -72.502791 
L 466.165736 -72.271493 
L 467.105924 -72.056106 
L 468.046113 -71.845561 
L 468.986301 -71.644659 
L 469.92649 -71.438457 
L 470.866679 -71.226762 
L 471.806867 -71.023133 
L 472.747056 -70.819683 
L 473.687244 -70.612752 
L 474.627433 -70.406607 
L 475.567621 -70.19562 
L 476.50781 -69.98034 
L 477.447999 -69.755321 
L 478.388187 -69.532245 
L 479.328376 -69.312848 
L 480.268564 -69.090071 
L 481.208753 -68.872456 
L 482.148941 -68.655287 
L 483.08913 -68.435072 
L 484.029319 -68.216109 
L 484.969507 -68.001761 
L 485.909696 -67.787748 
L 486.849884 -67.589096 
L 487.790073 -67.394385 
L 488.730262 -67.206238 
L 489.67045 -67.022051 
L 490.610639 -66.84208 
L 491.550827 -66.664212 
L 492.491016 -66.491398 
L 493.431204 -66.328877 
L 494.371393 -66.171697 
L 495.311582 -66.017231 
L 496.25177 -65.867978 
L 497.191959 -65.724172 
L 498.132147 -65.586058 
L 499.072336 -65.451611 
L 500.012524 -65.323923 
L 500.952713 -65.203138 
L 501.892902 -65.08712 
L 502.83309 -64.97884 
L 503.773279 -64.878304 
L 504.713467 -64.790085 
L 505.653656 -64.706209 
L 506.593845 -64.627381 
L 507.534033 -64.556389 
L 508.474222 -64.49759 
L 509.41441 -64.44048 
L 510.354599 -64.398187 
L 511.294787 -64.357271 
L 512.234976 -64.324963 
L 513.175165 -64.29806 
L 514.115353 -64.273969 
L 515.055542 -64.257438 
L 515.99573 -64.245099 
L 516.935919 -64.236508 
L 517.876107 -64.231181 
L 518.816296 -64.226317 
L 519.756485 -64.226504 
L 520.696673 -64.228258 
L 521.636862 -64.231068 
L 522.57705 -64.235111 
L 523.517239 -64.237645 
L 524.457428 -64.242711 
L 525.397616 -64.244721 
L 526.337805 -64.248506 
L 527.277993 -64.246309 
L 528.218182 -64.248206 
L 528.218182 -63.283636 
L 528.218182 -63.283636 
L 527.277993 -63.283636 
L 526.337805 -63.283636 
L 525.397616 -63.283636 
L 524.457428 -63.283636 
L 523.517239 -63.283636 
L 522.57705 -63.283636 
L 521.636862 -63.283636 
L 520.696673 -63.283636 
L 519.756485 -63.283636 
L 518.816296 -63.283636 
L 517.876107 -63.283636 
L 516.935919 -63.283636 
L 515.99573 -63.283636 
L 515.055542 -63.283636 
L 514.115353 -63.283636 
L 513.175165 -63.283636 
L 512.234976 -63.283636 
L 511.294787 -63.283636 
L 510.354599 -63.283636 
L 509.41441 -63.283636 
L 508.474222 -63.283636 
L 507.534033 -63.283636 
L 506.593845 -63.283636 
L 505.653656 -63.283636 
L 504.713467 -63.283636 
L 503.773279 -63.283636 
L 502.83309 -63.283636 
L 501.892902 -63.283636 
L 500.952713 -63.283636 
L 500.012524 -63.283636 
L 499.072336 -63.283636 
L 498.132147 -63.283636 
L 497.191959 -63.283636 
L 496.25177 -63.283636 
L 495.311582 -63.283636 
L 494.371393 -63.283636 
L 493.431204 -63.283636 
L 492.491016 -63.283636 
L 491.550827 -63.283636 
L 490.610639 -63.283636 
L 489.67045 -63.283636 
L 488.730262 -63.283636 
L 487.790073 -63.283636 
L 486.849884 -63.283636 
L 485.909696 -63.283636 
L 484.969507 -63.283636 
L 484.029319 -63.283636 
L 483.08913 -63.283636 
L 482.148941 -63.283636 
L 481.208753 -63.283636 
L 480.268564 -63.283636 
L 479.328376 -63.283636 
L 478.388187 -63.283636 
L 477.447999 -63.283636 
L 476.50781 -63.283636 
L 475.567621 -63.283636 
L 474.627433 -63.283636 
L 473.687244 -63.283636 
L 472.747056 -63.283636 
L 471.806867 -63.283636 
L 470.866679 -63.283636 
L 469.92649 -63.283636 
L 468.986301 -63.283636 
L 468.046113 -63.283636 
L 467.105924 -63.283636 
L 466.165736 -63.283636 
L 465.225547 -63.283636 
L 464.285358 -63.283636 
L 463.34517 -63.283636 
L 462.404981 -63.283636 
L 461.464793 -63.283636 
L 460.524604 -63.283636 
L 459.584416 -63.283636 
L 458.644227 -63.283636 
L 457.704038 -63.283636 
L 456.76385 -63.283636 
L 455.823661 -63.283636 
L 454.883473 -63.283636 
L 453.943284 -63.283636 
L 453.003096 -63.283636 
L 452.062907 -63.283636 
L 451.122718 -63.283636 
L 450.18253 -63.283636 
L 449.242341 -63.283636 
L 448.302153 -63.283636 
L 447.361964 -63.283636 
L 446.421775 -63.283636 
L 445.481587 -63.283636 
L 444.541398 -63.283636 
L 443.60121 -63.283636 
L 442.661021 -63.283636 
L 441.720833 -63.283636 
L 440.780644 -63.283636 
L 439.840455 -63.283636 
L 438.900267 -63.283636 
L 437.960078 -63.283636 
L 437.01989 -63.283636 
L 436.079701 -63.283636 
L 435.139513 -63.283636 
L 434.199324 -63.283636 
L 433.259135 -63.283636 
L 432.318947 -63.283636 
L 431.378758 -63.283636 
L 430.43857 -63.283636 
L 429.498381 -63.283636 
L 428.558192 -63.283636 
L 427.618004 -63.283636 
L 426.677815 -63.283636 
L 425.737627 -63.283636 
L 424.797438 -63.283636 
L 423.85725 -63.283636 
L 422.917061 -63.283636 
L 421.976872 -63.283636 
L 421.036684 -63.283636 
L 420.096495 -63.283636 
L 419.156307 -63.283636 
L 418.216118 -63.283636 
L 417.27593 -63.283636 
L 416.335741 -63.283636 
L 415.395552 -63.283636 
L 414.455364 -63.283636 
L 413.515175 -63.283636 
L 412.574987 -63.283636 
L 411.634798 -63.283636 
L 410.69461 -63.283636 
L 409.754421 -63.283636 
L 408.814232 -63.283636 
L 407.874044 -63.283636 
L 406.933855 -63.283636 
L 405.993667 -63.283636 
L 405.053478 -63.283636 
L 404.113289 -63.283636 
L 403.173101 -63.283636 
L 402.232912 -63.283636 
L 401.292724 -63.283636 
L 400.352535 -63.283636 
L 399.412347 -63.283636 
L 398.472158 -63.283636 
L 397.531969 -63.283636 
L 396.591781 -63.283636 
L 395.651592 -63.283636 
L 394.711404 -63.283636 
L 393.771215 -63.283636 
L 392.831027 -63.283636 
L 391.890838 -63.283636 
L 390.950649 -63.283636 
L 390.010461 -63.283636 
L 389.070272 -63.283636 
L 388.130084 -63.283636 
L 387.189895 -63.283636 
L 386.249706 -63.283636 
L 385.309518 -63.283636 
L 384.369329 -63.283636 
L 383.429141 -63.283636 
L 382.488952 -63.283636 
L 381.548764 -63.283636 
L 380.608575 -63.283636 
L 379.668386 -63.283636 
L 378.728198 -63.283636 
L 377.788009 -63.283636 
L 376.847821 -63.283636 
L 375.907632 -63.283636 
L 374.967444 -63.283636 
L 374.027255 -63.283636 
L 373.087066 -63.283636 
L 372.146878 -63.283636 
L 371.206689 -63.283636 
L 370.266501 -63.283636 
L 369.326312 -63.283636 
L 368.386123 -63.283636 
L 367.445935 -63.283636 
L 366.505746 -63.283636 
L 365.565558 -63.283636 
L 364.625369 -63.283636 
L 363.685181 -63.283636 
L 362.744992 -63.283636 
L 361.804803 -63.283636 
L 360.864615 -63.283636 
L 359.924426 -63.283636 
L 358.984238 -63.283636 
L 358.044049 -63.283636 
L 357.103861 -63.283636 
L 356.163672 -63.283636 
L 355.223483 -63.283636 
L 354.283295 -63.283636 
L 353.343106 -63.283636 
L 352.402918 -63.283636 
L 351.462729 -63.283636 
L 350.52254 -63.283636 
L 349.582352 -63.283636 
L 348.642163 -63.283636 
L 347.701975 -63.283636 
L 346.761786 -63.283636 
L 345.821598 -63.283636 
L 344.881409 -63.283636 
L 343.94122 -63.283636 
L 343.001032 -63.283636 
L 342.060843 -63.283636 
L 341.120655 -63.283636 
L 340.180466 -63.283636 
L 339.240278 -63.283636 
L 338.300089 -63.283636 
L 337.3599 -63.283636 
L 336.419712 -63.283636 
L 335.479523 -63.283636 
L 334.539335 -63.283636 
L 333.599146 -63.283636 
L 332.658957 -63.283636 
L 331.718769 -63.283636 
L 330.77858 -63.283636 
L 329.838392 -63.283636 
L 328.898203 -63.283636 
L 327.958015 -63.283636 
L 327.017826 -63.283636 
L 326.077637 -63.283636 
L 325.137449 -63.283636 
L 324.19726 -63.283636 
L 323.257072 -63.283636 
L 322.316883 -63.283636 
L 321.376695 -63.283636 
L 320.436506 -63.283636 
L 319.496317 -63.283636 
L 318.556129 -63.283636 
L 317.61594 -63.283636 
L 316.675752 -63.283636 
L 315.735563 -63.283636 
L 314.795374 -63.283636 
L 313.855186 -63.283636 
L 312.914997 -63.283636 
L 311.974809 -63.283636 
L 311.03462 -63.283636 
L 310.094432 -63.283636 
L 309.154243 -63.283636 
L 308.214054 -63.283636 
L 307.273866 -63.283636 
L 306.333677 -63.283636 
L 305.393489 -63.283636 
L 304.4533 -63.283636 
L 303.513112 -63.283636 
L 302.572923 -63.283636 
L 301.632734 -63.283636 
L 300.692546 -63.283636 
L 299.752357 -63.283636 
L 298.812169 -63.283636 
L 297.87198 -63.283636 
L 296.931791 -63.283636 
L 295.991603 -63.283636 
L 295.051414 -63.283636 
L 294.111226 -63.283636 
L 293.171037 -63.283636 
L 292.230849 -63.283636 
L 291.29066 -63.283636 
L 290.350471 -63.283636 
L 289.410283 -63.283636 
L 288.470094 -63.283636 
L 287.529906 -63.283636 
L 286.589717 -63.283636 
L 285.649529 -63.283636 
L 284.70934 -63.283636 
L 283.769151 -63.283636 
L 282.828963 -63.283636 
L 281.888774 -63.283636 
L 280.948586 -63.283636 
L 280.008397 -63.283636 
L 279.068209 -63.283636 
L 278.12802 -63.283636 
L 277.187831 -63.283636 
L 276.247643 -63.283636 
L 275.307454 -63.283636 
L 274.367266 -63.283636 
L 273.427077 -63.283636 
L 272.486888 -63.283636 
L 271.5467 -63.283636 
L 270.606511 -63.283636 
L 269.666323 -63.283636 
L 268.726134 -63.283636 
L 267.785946 -63.283636 
L 266.845757 -63.283636 
L 265.905568 -63.283636 
L 264.96538 -63.283636 
L 264.025191 -63.283636 
L 263.085003 -63.283636 
L 262.144814 -63.283636 
L 261.204626 -63.283636 
L 260.264437 -63.283636 
L 259.324248 -63.283636 
L 258.38406 -63.283636 
L 257.443871 -63.283636 
L 256.503683 -63.283636 
L 255.563494 -63.283636 
L 254.623305 -63.283636 
L 253.683117 -63.283636 
L 252.742928 -63.283636 
L 251.80274 -63.283636 
L 250.862551 -63.283636 
L 249.922363 -63.283636 
L 248.982174 -63.283636 
L 248.041985 -63.283636 
L 247.101797 -63.283636 
L 246.161608 -63.283636 
L 245.22142 -63.283636 
L 244.281231 -63.283636 
L 243.341043 -63.283636 
L 242.400854 -63.283636 
L 241.460665 -63.283636 
L 240.520477 -63.283636 
L 239.580288 -63.283636 
L 238.6401 -63.283636 
L 237.699911 -63.283636 
L 236.759722 -63.283636 
L 235.819534 -63.283636 
L 234.879345 -63.283636 
L 233.939157 -63.283636 
L 232.998968 -63.283636 
L 232.05878 -63.283636 
L 231.118591 -63.283636 
L 230.178402 -63.283636 
L 229.238214 -63.283636 
L 228.298025 -63.283636 
L 227.357837 -63.283636 
L 226.417648 -63.283636 
L 225.47746 -63.283636 
L 224.537271 -63.283636 
L 223.597082 -63.283636 
L 222.656894 -63.283636 
L 221.716705 -63.283636 
L 220.776517 -63.283636 
L 219.836328 -63.283636 
L 218.896139 -63.283636 
L 217.955951 -63.283636 
L 217.015762 -63.283636 
L 216.075574 -63.283636 
L 215.135385 -63.283636 
L 214.195197 -63.283636 
L 213.255008 -63.283636 
L 212.314819 -63.283636 
L 211.374631 -63.283636 
L 210.434442 -63.283636 
L 209.494254 -63.283636 
L 208.554065 -63.283636 
L 207.613877 -63.283636 
L 206.673688 -63.283636 
L 205.733499 -63.283636 
L 204.793311 -63.283636 
L 203.853122 -63.283636 
L 202.912934 -63.283636 
L 201.972745 -63.283636 
L 201.032556 -63.283636 
L 200.092368 -63.283636 
L 199.152179 -63.283636 
L 198.211991 -63.283636 
L 197.271802 -63.283636 
L 196.331614 -63.283636 
L 195.391425 -63.283636 
L 194.451236 -63.283636 
L 193.511048 -63.283636 
L 192.570859 -63.283636 
L 191.630671 -63.283636 
L 190.690482 -63.283636 
L 189.750294 -63.283636 
L 188.810105 -63.283636 
L 187.869916 -63.283636 
L 186.929728 -63.283636 
L 185.989539 -63.283636 
L 185.049351 -63.283636 
L 184.109162 -63.283636 
L 183.168973 -63.283636 
L 182.228785 -63.283636 
L 181.288596 -63.283636 
L 180.348408 -63.283636 
L 179.408219 -63.283636 
L 178.468031 -63.283636 
L 177.527842 -63.283636 
L 176.587653 -63.283636 
L 175.647465 -63.283636 
L 174.707276 -63.283636 
L 173.767088 -63.283636 
L 172.826899 -63.283636 
L 171.886711 -63.283636 
L 170.946522 -63.283636 
L 170.006333 -63.283636 
L 169.066145 -63.283636 
L 168.125956 -63.283636 
L 167.185768 -63.283636 
L 166.245579 -63.283636 
L 165.30539 -63.283636 
L 164.365202 -63.283636 
L 163.425013 -63.283636 
L 162.484825 -63.283636 
L 161.544636 -63.283636 
L 160.604448 -63.283636 
L 159.664259 -63.283636 
L 158.72407 -63.283636 
L 157.783882 -63.283636 
L 156.843693 -63.283636 
L 155.903505 -63.283636 
L 154.963316 -63.283636 
L 154.023128 -63.283636 
L 153.082939 -63.283636 
L 152.14275 -63.283636 
L 151.202562 -63.283636 
L 150.262373 -63.283636 
L 149.322185 -63.283636 
L 148.381996 -63.283636 
L 147.441808 -63.283636 
L 146.501619 -63.283636 
L 145.56143 -63.283636 
L 144.621242 -63.283636 
L 143.681053 -63.283636 
L 142.740865 -63.283636 
L 141.800676 -63.283636 
L 140.860487 -63.283636 
L 139.920299 -63.283636 
L 138.98011 -63.283636 
L 138.039922 -63.283636 
L 137.099733 -63.283636 
L 136.159545 -63.283636 
L 135.219356 -63.283636 
L 134.279167 -63.283636 
L 133.338979 -63.283636 
L 132.39879 -63.283636 
L 131.458602 -63.283636 
L 130.518413 -63.283636 
L 129.578225 -63.283636 
L 128.638036 -63.283636 
L 127.697847 -63.283636 
L 126.757659 -63.283636 
L 125.81747 -63.283636 
L 124.877282 -63.283636 
L 123.937093 -63.283636 
L 122.996904 -63.283636 
L 122.056716 -63.283636 
L 121.116527 -63.283636 
L 120.176339 -63.283636 
L 119.23615 -63.283636 
L 118.295962 -63.283636 
L 117.355773 -63.283636 
L 116.415584 -63.283636 
L 115.475396 -63.283636 
L 114.535207 -63.283636 
L 113.595019 -63.283636 
L 112.65483 -63.283636 
L 111.714642 -63.283636 
L 110.774453 -63.283636 
L 109.834264 -63.283636 
L 108.894076 -63.283636 
L 107.953887 -63.283636 
L 107.013699 -63.283636 
L 106.07351 -63.283636 
L 105.133321 -63.283636 
L 104.193133 -63.283636 
L 103.252944 -63.283636 
L 102.312756 -63.283636 
L 101.372567 -63.283636 
L 100.432379 -63.283636 
L 99.49219 -63.283636 
L 98.552001 -63.283636 
L 97.611813 -63.283636 
L 96.671624 -63.283636 
L 95.731436 -63.283636 
L 94.791247 -63.283636 
L 93.851059 -63.283636 
L 92.91087 -63.283636 
L 91.970681 -63.283636 
L 91.030493 -63.283636 
L 90.090304 -63.283636 
L 89.150116 -63.283636 
L 88.209927 -63.283636 
L 87.269738 -63.283636 
L 86.32955 -63.283636 
L 85.389361 -63.283636 
L 84.449173 -63.283636 
L 83.508984 -63.283636 
L 82.568796 -63.283636 
L 81.628607 -63.283636 
L 80.688418 -63.283636 
L 79.74823 -63.283636 
L 78.808041 -63.283636 
L 77.867853 -63.283636 
L 76.927664 -63.283636 
L 75.987476 -63.283636 
L 75.047287 -63.283636 
L 74.107098 -63.283636 
L 73.16691 -63.283636 
L 72.226721 -63.283636 
L 71.286533 -63.283636 
L 70.346344 -63.283636 
L 69.406155 -63.283636 
L 68.465967 -63.283636 
L 67.525778 -63.283636 
L 66.58559 -63.283636 
L 65.645401 -63.283636 
L 64.705213 -63.283636 
L 63.765024 -63.283636 
L 62.824835 -63.283636 
L 61.884647 -63.283636 
L 60.944458 -63.283636 
L 60.00427 -63.283636 
L 59.064081 -63.283636 
L 58.123893 -63.283636 
L 57.183704 -63.283636 
L 56.243515 -63.283636 
L 55.303327 -63.283636 
L 54.363138 -63.283636 
L 53.42295 -63.283636 
L 52.482761 -63.283636 
L 51.542572 -63.283636 
L 50.602384 -63.283636 
L 49.662195 -63.283636 
L 48.722007 -63.283636 
L 47.781818 -63.283636 
z
"/>
    </defs>
    <g clip-path="url(#pc691ccbc98)">
     <use xlink:href="#mb41c5385db" x="0" y="432" style="fill: #51d7c1; fill-opacity: 0.6"/>
    </g>
   </g>
   <g id="line2d_20">
    <path d="M 47.781818 367.715751 
L 65.645401 367.603732 
L 77.867853 367.613534 
L 87.269738 367.514639 
L 93.851059 367.214734 
L 98.552001 366.841121 
L 103.252944 366.280725 
L 107.013699 365.636585 
L 110.774453 364.768909 
L 114.535207 363.70964 
L 119.23615 362.150476 
L 125.81747 359.613328 
L 132.39879 356.843802 
L 139.920299 353.447407 
L 143.681053 351.555896 
L 146.501619 349.964734 
L 149.322185 348.174649 
L 152.14275 346.070579 
L 154.963316 343.60706 
L 156.843693 341.7374 
L 159.664259 338.53229 
L 162.484825 334.850764 
L 165.30539 330.697308 
L 168.125956 326.087839 
L 170.946522 321.064826 
L 174.707276 313.854691 
L 179.408219 304.324735 
L 186.929728 289.097729 
L 190.690482 281.969136 
L 195.391425 273.659677 
L 203.853122 259.130992 
L 207.613877 251.89734 
L 210.434442 245.819848 
L 213.255008 239.00743 
L 216.075574 231.452728 
L 218.896139 223.167991 
L 222.656894 211.296814 
L 232.998968 177.928216 
L 252.742928 117.315096 
L 255.563494 108.864185 
L 258.38406 100.983965 
L 261.204626 93.825393 
L 264.025191 87.429274 
L 265.905568 83.5388 
L 268.726134 78.351661 
L 270.606511 75.360028 
L 272.486888 72.706154 
L 274.367266 70.463766 
L 276.247643 68.685361 
L 277.187831 67.926503 
L 278.12802 67.326155 
L 279.068209 66.874275 
L 280.948586 66.347599 
L 281.888774 66.243636 
L 283.769151 66.420057 
L 285.649529 66.910328 
L 287.529906 67.680337 
L 293.171037 70.45393 
L 295.051414 71.153477 
L 296.931791 71.626345 
L 298.812169 71.893002 
L 301.632734 72.093965 
L 305.393489 72.330822 
L 307.273866 72.722649 
L 309.154243 73.424074 
L 311.03462 74.566834 
L 311.974809 75.2865 
L 313.855186 77.165246 
L 315.735563 79.470054 
L 317.61594 82.325108 
L 319.496317 85.647591 
L 321.376695 89.478245 
L 323.257072 93.695146 
L 326.077637 100.82686 
L 328.898203 108.69217 
L 332.658957 120.028772 
L 340.180466 143.428626 
L 343.001032 151.463415 
L 345.821598 158.788517 
L 348.642163 165.375988 
L 351.462729 171.278831 
L 354.283295 176.747758 
L 364.625369 196.11225 
L 368.386123 203.803828 
L 372.146878 211.961664 
L 375.907632 220.682174 
L 379.668386 230.071485 
L 383.429141 240.071191 
L 388.130084 253.371809 
L 395.651592 274.73891 
L 399.412347 284.660963 
L 402.232912 291.479831 
L 405.053478 297.755548 
L 407.874044 303.455759 
L 410.69461 308.618748 
L 413.515175 313.273176 
L 416.335741 317.434453 
L 419.156307 321.187601 
L 421.976872 324.565678 
L 425.737627 328.681145 
L 429.498381 332.454348 
L 448.302153 350.394478 
L 451.122718 352.70904 
L 453.943284 354.713202 
L 456.76385 356.36397 
L 459.584416 357.674225 
L 462.404981 358.698776 
L 465.225547 359.497209 
L 470.866679 360.773238 
L 480.268564 362.909929 
L 489.67045 364.977949 
L 496.25177 366.132022 
L 501.892902 366.91288 
L 506.593845 367.372619 
L 511.294787 367.642729 
L 517.876107 367.768819 
L 528.218182 367.751794 
L 528.218182 367.751794 
" clip-path="url(#pc691ccbc98)" style="fill: none; stroke: #51d7c1; stroke-width: 1.5; stroke-linecap: round"/>
   </g>
   <g id="line2d_21">
    <path d="M 186.78538 362.364436 
L 394.131327 362.364436 
" clip-path="url(#pc691ccbc98)" style="fill: none; stroke: #51d7c1; stroke-width: 3.5; stroke-linecap: round"/>
   </g>
   <g id="patch_3">
    <path d="M 23.76 383.84 
L 552.24 383.84 
" style="fill: none; stroke: #333333; stroke-width: 1.5; stroke-linejoin: miter; stroke-linecap: square"/>
   </g>
   <g id="text_8">
    <!-- $x_1x_3$ -->
    <g style="fill: #262626" transform="translate(258.18 45.12)">
     <text>
      <tspan x="0" y="-0.6875" style="font-style: oblique; font-size: 28px; font-family: 'DejaVu Sans'; fill: #262626">x</tspan>
      <tspan x="29.806055" y="-0.6875" style="font-style: oblique; font-size: 28px; font-family: 'DejaVu Sans'; fill: #262626">x</tspan>
      <tspan x="16.570312" y="3.90625" style="font-size: 19.6px; font-family: 'DejaVu Sans'; fill: #262626">1</tspan>
      <tspan x="46.376367" y="3.90625" style="font-size: 19.6px; font-family: 'DejaVu Sans'; fill: #262626">3</tspan>
     </text>
    </g>
   </g>
  </g>
 </g>
 <defs>
  <clipPath id="pc691ccbc98">
   <rect x="23.76" y="51.12" width="528.48" height="332.72"/>
  </clipPath>
 </defs>
</svg>
