<?xml version="1.0" encoding="utf-8" standalone="no"?>
<!DOCTYPE svg PUBLIC "-//W3C//DTD SVG 1.1//EN"
  "http://www.w3.org/Graphics/SVG/1.1/DTD/svg11.dtd">
<svg xmlns:xlink="http://www.w3.org/1999/xlink" width="576pt" height="432pt" viewBox="0 0 576 432" xmlns="http://www.w3.org/2000/svg" version="1.1">
 <metadata>
  <rdf:RDF xmlns:dc="http://purl.org/dc/elements/1.1/" xmlns:cc="http://creativecommons.org/ns#" xmlns:rdf="http://www.w3.org/1999/02/22-rdf-syntax-ns#">
   <cc:Work>
    <dc:type rdf:resource="http://purl.org/dc/dcmitype/StillImage"/>
    <dc:date>2025-09-23T14:40:25.458346</dc:date>
    <dc:format>image/svg+xml</dc:format>
    <dc:creator>
     <cc:Agent>
      <dc:title>Matplotlib v3.10.0, https://matplotlib.org/</dc:title>
     </cc:Agent>
    </dc:creator>
   </cc:Work>
  </rdf:RDF>
 </metadata>
 <defs>
  <style type="text/css">*{stroke-linejoin: round; stroke-linecap: butt}</style>
 </defs>
 <g id="figure_1">
  <g id="patch_1">
   <path d="M 0 432 
L 576 432 
L 576 0 
L 0 0 
L 0 432 
z
" style="fill: none; opacity: 0"/>
  </g>
  <g id="axes_1">
   <g id="patch_2">
    <path d="M 32.610824 383.84 
L 552.24 383.84 
L 552.24 57.42 
L 32.610824 57.42 
L 32.610824 383.84 
z
" style="fill: none"/>
   </g>
   <g id="matplotlib.axis_1">
    <g id="xtick_1">
     <g id="line2d_1">
      <path d="M 44.404539 383.84 
L 44.404539 57.42 
" clip-path="url(#p78b6b951f3)" style="fill: none; stroke: #ffffff; stroke-opacity: 0.4; stroke-linecap: round"/>
     </g>
     <g id="line2d_2"/>
     <g id="text_1">
      <text style="font-size: 18px; font-family: 'DejaVu Serif', 'Times New Roman', serif; text-anchor: middle; fill: #262626" x="44.404539" y="404.517187" transform="rotate(-0 44.404539 404.517187)">−40</text>
     </g>
    </g>
    <g id="xtick_2">
     <g id="line2d_3">
      <path d="M 104.086282 383.84 
L 104.086282 57.42 
" clip-path="url(#p78b6b951f3)" style="fill: none; stroke: #ffffff; stroke-opacity: 0.4; stroke-linecap: round"/>
     </g>
     <g id="line2d_4"/>
     <g id="text_2">
      <text style="font-size: 18px; font-family: 'DejaVu Serif', 'Times New Roman', serif; text-anchor: middle; fill: #262626" x="104.086282" y="404.517187" transform="rotate(-0 104.086282 404.517187)">−30</text>
     </g>
    </g>
    <g id="xtick_3">
     <g id="line2d_5">
      <path d="M 163.768025 383.84 
L 163.768025 57.42 
" clip-path="url(#p78b6b951f3)" style="fill: none; stroke: #ffffff; stroke-opacity: 0.4; stroke-linecap: round"/>
     </g>
     <g id="line2d_6"/>
     <g id="text_3">
      <text style="font-size: 18px; font-family: 'DejaVu Serif', 'Times New Roman', serif; text-anchor: middle; fill: #262626" x="163.768025" y="404.517187" transform="rotate(-0 163.768025 404.517187)">−20</text>
     </g>
    </g>
    <g id="xtick_4">
     <g id="line2d_7">
      <path d="M 223.449769 383.84 
L 223.449769 57.42 
" clip-path="url(#p78b6b951f3)" style="fill: none; stroke: #ffffff; stroke-opacity: 0.4; stroke-linecap: round"/>
     </g>
     <g id="line2d_8"/>
     <g id="text_4">
      <text style="font-size: 18px; font-family: 'DejaVu Serif', 'Times New Roman', serif; text-anchor: middle; fill: #262626" x="223.449769" y="404.517187" transform="rotate(-0 223.449769 404.517187)">−10</text>
     </g>
    </g>
    <g id="xtick_5">
     <g id="line2d_9">
      <path d="M 283.131512 383.84 
L 283.131512 57.42 
" clip-path="url(#p78b6b951f3)" style="fill: none; stroke: #ffffff; stroke-opacity: 0.4; stroke-linecap: round"/>
     </g>
     <g id="line2d_10"/>
     <g id="text_5">
      <text style="font-size: 18px; font-family: 'DejaVu Serif', 'Times New Roman', serif; text-anchor: middle; fill: #262626" x="283.131512" y="404.517187" transform="rotate(-0 283.131512 404.517187)">0</text>
     </g>
    </g>
    <g id="xtick_6">
     <g id="line2d_11">
      <path d="M 342.813255 383.84 
L 342.813255 57.42 
" clip-path="url(#p78b6b951f3)" style="fill: none; stroke: #ffffff; stroke-opacity: 0.4; stroke-linecap: round"/>
     </g>
     <g id="line2d_12"/>
     <g id="text_6">
      <text style="font-size: 18px; font-family: 'DejaVu Serif', 'Times New Roman', serif; text-anchor: middle; fill: #262626" x="342.813255" y="404.517187" transform="rotate(-0 342.813255 404.517187)">10</text>
     </g>
    </g>
    <g id="xtick_7">
     <g id="line2d_13">
      <path d="M 402.494998 383.84 
L 402.494998 57.42 
" clip-path="url(#p78b6b951f3)" style="fill: none; stroke: #ffffff; stroke-opacity: 0.4; stroke-linecap: round"/>
     </g>
     <g id="line2d_14"/>
     <g id="text_7">
      <text style="font-size: 18px; font-family: 'DejaVu Serif', 'Times New Roman', serif; text-anchor: middle; fill: #262626" x="402.494998" y="404.517187" transform="rotate(-0 402.494998 404.517187)">20</text>
     </g>
    </g>
    <g id="xtick_8">
     <g id="line2d_15">
      <path d="M 462.176741 383.84 
L 462.176741 57.42 
" clip-path="url(#p78b6b951f3)" style="fill: none; stroke: #ffffff; stroke-opacity: 0.4; stroke-linecap: round"/>
     </g>
     <g id="line2d_16"/>
     <g id="text_8">
      <text style="font-size: 18px; font-family: 'DejaVu Serif', 'Times New Roman', serif; text-anchor: middle; fill: #262626" x="462.176741" y="404.517187" transform="rotate(-0 462.176741 404.517187)">30</text>
     </g>
    </g>
    <g id="xtick_9">
     <g id="line2d_17">
      <path d="M 521.858484 383.84 
L 521.858484 57.42 
" clip-path="url(#p78b6b951f3)" style="fill: none; stroke: #ffffff; stroke-opacity: 0.4; stroke-linecap: round"/>
     </g>
     <g id="line2d_18"/>
     <g id="text_9">
      <text style="font-size: 18px; font-family: 'DejaVu Serif', 'Times New Roman', serif; text-anchor: middle; fill: #262626" x="521.858484" y="404.517187" transform="rotate(-0 521.858484 404.517187)">40</text>
     </g>
    </g>
   </g>
   <g id="matplotlib.axis_2">
    <g id="ytick_1">
     <g id="line2d_19">
      <path d="M 32.610824 369.002727 
L 552.24 369.002727 
" clip-path="url(#p78b6b951f3)" style="fill: none; stroke: #ffffff; stroke-opacity: 0.4; stroke-linecap: round"/>
     </g>
    </g>
    <g id="ytick_2">
     <g id="line2d_20">
      <path d="M 32.610824 327.486238 
L 552.24 327.486238 
" clip-path="url(#p78b6b951f3)" style="fill: none; stroke: #ffffff; stroke-opacity: 0.4; stroke-linecap: round"/>
     </g>
    </g>
    <g id="ytick_3">
     <g id="line2d_21">
      <path d="M 32.610824 285.96975 
L 552.24 285.96975 
" clip-path="url(#p78b6b951f3)" style="fill: none; stroke: #ffffff; stroke-opacity: 0.4; stroke-linecap: round"/>
     </g>
    </g>
    <g id="ytick_4">
     <g id="line2d_22">
      <path d="M 32.610824 244.453261 
L 552.24 244.453261 
" clip-path="url(#p78b6b951f3)" style="fill: none; stroke: #ffffff; stroke-opacity: 0.4; stroke-linecap: round"/>
     </g>
    </g>
    <g id="ytick_5">
     <g id="line2d_23">
      <path d="M 32.610824 202.936772 
L 552.24 202.936772 
" clip-path="url(#p78b6b951f3)" style="fill: none; stroke: #ffffff; stroke-opacity: 0.4; stroke-linecap: round"/>
     </g>
    </g>
    <g id="ytick_6">
     <g id="line2d_24">
      <path d="M 32.610824 161.420283 
L 552.24 161.420283 
" clip-path="url(#p78b6b951f3)" style="fill: none; stroke: #ffffff; stroke-opacity: 0.4; stroke-linecap: round"/>
     </g>
    </g>
    <g id="ytick_7">
     <g id="line2d_25">
      <path d="M 32.610824 119.903794 
L 552.24 119.903794 
" clip-path="url(#p78b6b951f3)" style="fill: none; stroke: #ffffff; stroke-opacity: 0.4; stroke-linecap: round"/>
     </g>
    </g>
    <g id="ytick_8">
     <g id="line2d_26">
      <path d="M 32.610824 78.387305 
L 552.24 78.387305 
" clip-path="url(#p78b6b951f3)" style="fill: none; stroke: #ffffff; stroke-opacity: 0.4; stroke-linecap: round"/>
     </g>
    </g>
   </g>
   <g id="FillBetweenPolyCollection_1">
    <defs>
     <path id="md05e10732b" d="M 56.230332 -62.997273 
L 56.230332 -64.795286 
L 57.154774 -64.796794 
L 58.079217 -64.799033 
L 59.00366 -64.810289 
L 59.928102 -64.822682 
L 60.852545 -64.834216 
L 61.776987 -64.858607 
L 62.70143 -64.882885 
L 63.625873 -64.913353 
L 64.550315 -64.95039 
L 65.474758 -64.999033 
L 66.3992 -65.051588 
L 67.323643 -65.110734 
L 68.248085 -65.17668 
L 69.172528 -65.252457 
L 70.096971 -65.335775 
L 71.021413 -65.424834 
L 71.945856 -65.524585 
L 72.870298 -65.625791 
L 73.794741 -65.738323 
L 74.719184 -65.85332 
L 75.643626 -65.972269 
L 76.568069 -66.097188 
L 77.492511 -66.230794 
L 78.416954 -66.36186 
L 79.341396 -66.491214 
L 80.265839 -66.62021 
L 81.190282 -66.750877 
L 82.114724 -66.889068 
L 83.039167 -67.018705 
L 83.963609 -67.14936 
L 84.888052 -67.278607 
L 85.812495 -67.406553 
L 86.736937 -67.527565 
L 87.66138 -67.652462 
L 88.585822 -67.78021 
L 89.510265 -67.904165 
L 90.434707 -68.035848 
L 91.35915 -68.162407 
L 92.283593 -68.297843 
L 93.208035 -68.430618 
L 94.132478 -68.578316 
L 95.05692 -68.731806 
L 95.981363 -68.908969 
L 96.905806 -69.088262 
L 97.830248 -69.275141 
L 98.754691 -69.481261 
L 99.679133 -69.705471 
L 100.603576 -69.952551 
L 101.528018 -70.216181 
L 102.452461 -70.496772 
L 103.376904 -70.794444 
L 104.301346 -71.11493 
L 105.225789 -71.450331 
L 106.150231 -71.811149 
L 107.074674 -72.195653 
L 107.999117 -72.601449 
L 108.923559 -73.031311 
L 109.848002 -73.470856 
L 110.772444 -73.931535 
L 111.696887 -74.413116 
L 112.621329 -74.930238 
L 113.545772 -75.45697 
L 114.470215 -76.00272 
L 115.394657 -76.569925 
L 116.3191 -77.147645 
L 117.243542 -77.748156 
L 118.167985 -78.368175 
L 119.092428 -78.999329 
L 120.01687 -79.643013 
L 120.941313 -80.310073 
L 121.865755 -80.993581 
L 122.790198 -81.685428 
L 123.71464 -82.387777 
L 124.639083 -83.113805 
L 125.563526 -83.855281 
L 126.487968 -84.612884 
L 127.412411 -85.395563 
L 128.336853 -86.195502 
L 129.261296 -87.010802 
L 130.185739 -87.835149 
L 131.110181 -88.683564 
L 132.034624 -89.552018 
L 132.959066 -90.420991 
L 133.883509 -91.324265 
L 134.807951 -92.241639 
L 135.732394 -93.166605 
L 136.656837 -94.104976 
L 137.581279 -95.046404 
L 138.505722 -96.010593 
L 139.430164 -97.001965 
L 140.354607 -97.981711 
L 141.27905 -98.971529 
L 142.203492 -99.958618 
L 143.127935 -100.957527 
L 144.052377 -101.957384 
L 144.97682 -102.956687 
L 145.901262 -103.941519 
L 146.825705 -104.923405 
L 147.750148 -105.895561 
L 148.67459 -106.870875 
L 149.599033 -107.827105 
L 150.523475 -108.785615 
L 151.447918 -109.709875 
L 152.372361 -110.634924 
L 153.296803 -111.544516 
L 154.221246 -112.458762 
L 155.145688 -113.357269 
L 156.070131 -114.245643 
L 156.994573 -115.160547 
L 157.919016 -116.051969 
L 158.843459 -116.94441 
L 159.767901 -117.852907 
L 160.692344 -118.77377 
L 161.616786 -119.700015 
L 162.541229 -120.662276 
L 163.465672 -121.63647 
L 164.390114 -122.647199 
L 165.314557 -123.729042 
L 166.238999 -124.830121 
L 167.163442 -125.984665 
L 168.087884 -127.193544 
L 169.012327 -128.485682 
L 169.93677 -129.819888 
L 170.861212 -131.241476 
L 171.785655 -132.719289 
L 172.710097 -134.269682 
L 173.63454 -135.895455 
L 174.558983 -137.605145 
L 175.483425 -139.385971 
L 176.407868 -141.248525 
L 177.33231 -143.179216 
L 178.256753 -145.197591 
L 179.181195 -147.306789 
L 180.105638 -149.475814 
L 181.030081 -151.697114 
L 181.954523 -153.995628 
L 182.878966 -156.341313 
L 183.803408 -158.721101 
L 184.727851 -161.149948 
L 185.652294 -163.625211 
L 186.576736 -166.085504 
L 187.501179 -168.602071 
L 188.425621 -171.115448 
L 189.350064 -173.653239 
L 190.274506 -176.194709 
L 191.198949 -178.730531 
L 192.123392 -181.279016 
L 193.047834 -183.82221 
L 193.972277 -186.34081 
L 194.896719 -188.836327 
L 195.821162 -191.318393 
L 196.745605 -193.805794 
L 197.670047 -196.260659 
L 198.59449 -198.680273 
L 199.518932 -201.10333 
L 200.443375 -203.490091 
L 201.367817 -205.850886 
L 202.29226 -208.179515 
L 203.216703 -210.52095 
L 204.141145 -212.861293 
L 205.065588 -215.164176 
L 205.99003 -217.4576 
L 206.914473 -219.738258 
L 207.838916 -222.008145 
L 208.763358 -224.310143 
L 209.687801 -226.593966 
L 210.612243 -228.884567 
L 211.536686 -231.183599 
L 212.461128 -233.486939 
L 213.385571 -235.767089 
L 214.310014 -238.085477 
L 215.234456 -240.418666 
L 216.158899 -242.756534 
L 217.083341 -245.102307 
L 218.007784 -247.457404 
L 218.932227 -249.799193 
L 219.856669 -252.157988 
L 220.781112 -254.51061 
L 221.705554 -256.876757 
L 222.629997 -259.217969 
L 223.554439 -261.554032 
L 224.478882 -263.834972 
L 225.403325 -266.132382 
L 226.327767 -268.391395 
L 227.25221 -270.601188 
L 228.176652 -272.745748 
L 229.101095 -274.836065 
L 230.025538 -276.866937 
L 230.94998 -278.813475 
L 231.874423 -280.722368 
L 232.798865 -282.540857 
L 233.723308 -284.302669 
L 234.64775 -285.929986 
L 235.572193 -287.477256 
L 236.496636 -288.92327 
L 237.421078 -290.283365 
L 238.345521 -291.543847 
L 239.269963 -292.740592 
L 240.194406 -293.857228 
L 241.118849 -294.914732 
L 242.043291 -295.908961 
L 242.967734 -296.828061 
L 243.892176 -297.705703 
L 244.816619 -298.556641 
L 245.741061 -299.378847 
L 246.665504 -300.170232 
L 247.589947 -300.987632 
L 248.514389 -301.794409 
L 249.438832 -302.664275 
L 250.363274 -303.545591 
L 251.287717 -304.50672 
L 252.21216 -305.506934 
L 253.136602 -306.560453 
L 254.061045 -307.692142 
L 254.985487 -308.912388 
L 255.90993 -310.195791 
L 256.834372 -311.58196 
L 257.758815 -313.09098 
L 258.683258 -314.690651 
L 259.6077 -316.350543 
L 260.532143 -318.13487 
L 261.456585 -319.997188 
L 262.381028 -321.932078 
L 263.305471 -323.891912 
L 264.229913 -325.927413 
L 265.154356 -328.004292 
L 266.078798 -330.087105 
L 267.003241 -332.191929 
L 267.927683 -334.336166 
L 268.852126 -336.461502 
L 269.776569 -338.559134 
L 270.701011 -340.595604 
L 271.625454 -342.588788 
L 272.549896 -344.517958 
L 273.474339 -346.377574 
L 274.398782 -348.151016 
L 275.323224 -349.817626 
L 276.247667 -351.380178 
L 277.172109 -352.813673 
L 278.096552 -354.118755 
L 279.020994 -355.313129 
L 279.945437 -356.352626 
L 280.86988 -357.253433 
L 281.794322 -358.020534 
L 282.718765 -358.616143 
L 283.643207 -359.109222 
L 284.56765 -359.471906 
L 285.492093 -359.670983 
L 286.416535 -359.742727 
L 287.340978 -359.728761 
L 288.26542 -359.571131 
L 289.189863 -359.270579 
L 290.114305 -358.893668 
L 291.038748 -358.384094 
L 291.963191 -357.777861 
L 292.887633 -357.117845 
L 293.812076 -356.343416 
L 294.736518 -355.493977 
L 295.660961 -354.541796 
L 296.585404 -353.524016 
L 297.509846 -352.426942 
L 298.434289 -351.321701 
L 299.358731 -350.134915 
L 300.283174 -348.874208 
L 301.207616 -347.581206 
L 302.132059 -346.250996 
L 303.056502 -344.885078 
L 303.980944 -343.485891 
L 304.905387 -342.067937 
L 305.829829 -340.60143 
L 306.754272 -339.12361 
L 307.678715 -337.626469 
L 308.603157 -336.129083 
L 309.5276 -334.590948 
L 310.452042 -333.030504 
L 311.376485 -331.467259 
L 312.300927 -329.873832 
L 313.22537 -328.216431 
L 314.149813 -326.570468 
L 315.074255 -324.887703 
L 315.998698 -323.163474 
L 316.92314 -321.421611 
L 317.847583 -319.650625 
L 318.772026 -317.855201 
L 319.696468 -316.030765 
L 320.620911 -314.176832 
L 321.545353 -312.23148 
L 322.469796 -310.2545 
L 323.394238 -308.2253 
L 324.318681 -306.183592 
L 325.243124 -304.069789 
L 326.167566 -301.932108 
L 327.092009 -299.764093 
L 328.016451 -297.563724 
L 328.940894 -295.323753 
L 329.865337 -293.088554 
L 330.789779 -290.833443 
L 331.714222 -288.524189 
L 332.638664 -286.232767 
L 333.563107 -283.945628 
L 334.487549 -281.643534 
L 335.411992 -279.363185 
L 336.336435 -277.137081 
L 337.260877 -274.929172 
L 338.18532 -272.718625 
L 339.109762 -270.549998 
L 340.034205 -268.411996 
L 340.958648 -266.314144 
L 341.88309 -264.243884 
L 342.807533 -262.210555 
L 343.731975 -260.225299 
L 344.656418 -258.284373 
L 345.58086 -256.37523 
L 346.505303 -254.498804 
L 347.429746 -252.61531 
L 348.354188 -250.774586 
L 349.278631 -248.953108 
L 350.203073 -247.146756 
L 351.127516 -245.308624 
L 352.051959 -243.491226 
L 352.976401 -241.68057 
L 353.900844 -239.856036 
L 354.825286 -238.038936 
L 355.749729 -236.182643 
L 356.674171 -234.292136 
L 357.598614 -232.361512 
L 358.523057 -230.41173 
L 359.447499 -228.455134 
L 360.371942 -226.439814 
L 361.296384 -224.382811 
L 362.220827 -222.314709 
L 363.14527 -220.223693 
L 364.069712 -218.086538 
L 364.994155 -215.938083 
L 365.918597 -213.751061 
L 366.84304 -211.521943 
L 367.767482 -209.301252 
L 368.691925 -207.045531 
L 369.616368 -204.780768 
L 370.54081 -202.509094 
L 371.465253 -200.24941 
L 372.389695 -197.936946 
L 373.314138 -195.628591 
L 374.238581 -193.343786 
L 375.163023 -191.058898 
L 376.087466 -188.757866 
L 377.011908 -186.460528 
L 377.936351 -184.161869 
L 378.860793 -181.862899 
L 379.785236 -179.585079 
L 380.709679 -177.317374 
L 381.634121 -175.023768 
L 382.558564 -172.775648 
L 383.483006 -170.540041 
L 384.407449 -168.302954 
L 385.331892 -166.064144 
L 386.256334 -163.836861 
L 387.180777 -161.623298 
L 388.105219 -159.423188 
L 389.029662 -157.227582 
L 389.954104 -155.05056 
L 390.878547 -152.887321 
L 391.80299 -150.736151 
L 392.727432 -148.575994 
L 393.651875 -146.445248 
L 394.576317 -144.328089 
L 395.50076 -142.23975 
L 396.425203 -140.165968 
L 397.349645 -138.099793 
L 398.274088 -136.055561 
L 399.19853 -134.032018 
L 400.122973 -132.031578 
L 401.047415 -130.058745 
L 401.971858 -128.11584 
L 402.896301 -126.201413 
L 403.820743 -124.289367 
L 404.745186 -122.396897 
L 405.669628 -120.563417 
L 406.594071 -118.729176 
L 407.518514 -116.936741 
L 408.442956 -115.183521 
L 409.367399 -113.441988 
L 410.291841 -111.730847 
L 411.216284 -110.085705 
L 412.140726 -108.483429 
L 413.065169 -106.910871 
L 413.989612 -105.380783 
L 414.914054 -103.896485 
L 415.838497 -102.441293 
L 416.762939 -101.044309 
L 417.687382 -99.685561 
L 418.611825 -98.383345 
L 419.536267 -97.137594 
L 420.46071 -95.937052 
L 421.385152 -94.79177 
L 422.309595 -93.68822 
L 423.234037 -92.643983 
L 424.15848 -91.642079 
L 425.082923 -90.709071 
L 426.007365 -89.804734 
L 426.931808 -88.932695 
L 427.85625 -88.121369 
L 428.780693 -87.337562 
L 429.705136 -86.589252 
L 430.629578 -85.895546 
L 431.554021 -85.244601 
L 432.478463 -84.616512 
L 433.402906 -84.015445 
L 434.327348 -83.452149 
L 435.251791 -82.901638 
L 436.176234 -82.379639 
L 437.100676 -81.88367 
L 438.025119 -81.401516 
L 438.949561 -80.942507 
L 439.874004 -80.511352 
L 440.798447 -80.098724 
L 441.722889 -79.691453 
L 442.647332 -79.305801 
L 443.571774 -78.931955 
L 444.496217 -78.566674 
L 445.420659 -78.202546 
L 446.345102 -77.861573 
L 447.269545 -77.528072 
L 448.193987 -77.201181 
L 449.11843 -76.877676 
L 450.042872 -76.568821 
L 450.967315 -76.259876 
L 451.891758 -75.950761 
L 452.8162 -75.644219 
L 453.740643 -75.337092 
L 454.665085 -75.028495 
L 455.589528 -74.727459 
L 456.51397 -74.424619 
L 457.438413 -74.123182 
L 458.362856 -73.815355 
L 459.287298 -73.507837 
L 460.211741 -73.205874 
L 461.136183 -72.894028 
L 462.060626 -72.573122 
L 462.985069 -72.258998 
L 463.909511 -71.945567 
L 464.833954 -71.625915 
L 465.758396 -71.311204 
L 466.682839 -70.996415 
L 467.607281 -70.682532 
L 468.531724 -70.368259 
L 469.456167 -70.059854 
L 470.380609 -69.755471 
L 471.305052 -69.451578 
L 472.229494 -69.152656 
L 473.153937 -68.87177 
L 474.07838 -68.591309 
L 475.002822 -68.320975 
L 475.927265 -68.061498 
L 476.851707 -67.81819 
L 477.77615 -67.58357 
L 478.700592 -67.365767 
L 479.625035 -67.157094 
L 480.549478 -66.956101 
L 481.47392 -66.77553 
L 482.398363 -66.609469 
L 483.322805 -66.450247 
L 484.247248 -66.302688 
L 485.171691 -66.166152 
L 486.096133 -66.039867 
L 487.020576 -65.922943 
L 487.945018 -65.81674 
L 488.869461 -65.708048 
L 489.793903 -65.614292 
L 490.718346 -65.52555 
L 491.642789 -65.440839 
L 492.567231 -65.357534 
L 493.491674 -65.28063 
L 494.416116 -65.205867 
L 495.340559 -65.132099 
L 496.265002 -65.061283 
L 497.189444 -64.987997 
L 498.113887 -64.91742 
L 499.038329 -64.842053 
L 499.962772 -64.770164 
L 500.887214 -64.701373 
L 501.811657 -64.63319 
L 502.7361 -64.563814 
L 503.660542 -64.50196 
L 504.584985 -64.440104 
L 505.509427 -64.376526 
L 506.43387 -64.312833 
L 507.358313 -64.264372 
L 508.282755 -64.219846 
L 509.207198 -64.179742 
L 510.13164 -64.1421 
L 511.056083 -64.112354 
L 511.980525 -64.087688 
L 512.904968 -64.068132 
L 513.829411 -64.053595 
L 514.753853 -64.039207 
L 515.678296 -64.035017 
L 516.602738 -64.034722 
L 517.527181 -64.037882 
L 518.451624 -64.043981 
L 519.376066 -64.052453 
L 520.300509 -64.062691 
L 521.224951 -64.074067 
L 522.149394 -64.085947 
L 523.073836 -64.097704 
L 523.998279 -64.108734 
L 524.922722 -64.118468 
L 525.847164 -64.132322 
L 526.771607 -64.137187 
L 527.696049 -64.142554 
L 528.620492 -64.151142 
L 528.620492 -62.997273 
L 528.620492 -62.997273 
L 527.696049 -62.997273 
L 526.771607 -62.997273 
L 525.847164 -62.997273 
L 524.922722 -62.997273 
L 523.998279 -62.997273 
L 523.073836 -62.997273 
L 522.149394 -62.997273 
L 521.224951 -62.997273 
L 520.300509 -62.997273 
L 519.376066 -62.997273 
L 518.451624 -62.997273 
L 517.527181 -62.997273 
L 516.602738 -62.997273 
L 515.678296 -62.997273 
L 514.753853 -62.997273 
L 513.829411 -62.997273 
L 512.904968 -62.997273 
L 511.980525 -62.997273 
L 511.056083 -62.997273 
L 510.13164 -62.997273 
L 509.207198 -62.997273 
L 508.282755 -62.997273 
L 507.358313 -62.997273 
L 506.43387 -62.997273 
L 505.509427 -62.997273 
L 504.584985 -62.997273 
L 503.660542 -62.997273 
L 502.7361 -62.997273 
L 501.811657 -62.997273 
L 500.887214 -62.997273 
L 499.962772 -62.997273 
L 499.038329 -62.997273 
L 498.113887 -62.997273 
L 497.189444 -62.997273 
L 496.265002 -62.997273 
L 495.340559 -62.997273 
L 494.416116 -62.997273 
L 493.491674 -62.997273 
L 492.567231 -62.997273 
L 491.642789 -62.997273 
L 490.718346 -62.997273 
L 489.793903 -62.997273 
L 488.869461 -62.997273 
L 487.945018 -62.997273 
L 487.020576 -62.997273 
L 486.096133 -62.997273 
L 485.171691 -62.997273 
L 484.247248 -62.997273 
L 483.322805 -62.997273 
L 482.398363 -62.997273 
L 481.47392 -62.997273 
L 480.549478 -62.997273 
L 479.625035 -62.997273 
L 478.700592 -62.997273 
L 477.77615 -62.997273 
L 476.851707 -62.997273 
L 475.927265 -62.997273 
L 475.002822 -62.997273 
L 474.07838 -62.997273 
L 473.153937 -62.997273 
L 472.229494 -62.997273 
L 471.305052 -62.997273 
L 470.380609 -62.997273 
L 469.456167 -62.997273 
L 468.531724 -62.997273 
L 467.607281 -62.997273 
L 466.682839 -62.997273 
L 465.758396 -62.997273 
L 464.833954 -62.997273 
L 463.909511 -62.997273 
L 462.985069 -62.997273 
L 462.060626 -62.997273 
L 461.136183 -62.997273 
L 460.211741 -62.997273 
L 459.287298 -62.997273 
L 458.362856 -62.997273 
L 457.438413 -62.997273 
L 456.51397 -62.997273 
L 455.589528 -62.997273 
L 454.665085 -62.997273 
L 453.740643 -62.997273 
L 452.8162 -62.997273 
L 451.891758 -62.997273 
L 450.967315 -62.997273 
L 450.042872 -62.997273 
L 449.11843 -62.997273 
L 448.193987 -62.997273 
L 447.269545 -62.997273 
L 446.345102 -62.997273 
L 445.420659 -62.997273 
L 444.496217 -62.997273 
L 443.571774 -62.997273 
L 442.647332 -62.997273 
L 441.722889 -62.997273 
L 440.798447 -62.997273 
L 439.874004 -62.997273 
L 438.949561 -62.997273 
L 438.025119 -62.997273 
L 437.100676 -62.997273 
L 436.176234 -62.997273 
L 435.251791 -62.997273 
L 434.327348 -62.997273 
L 433.402906 -62.997273 
L 432.478463 -62.997273 
L 431.554021 -62.997273 
L 430.629578 -62.997273 
L 429.705136 -62.997273 
L 428.780693 -62.997273 
L 427.85625 -62.997273 
L 426.931808 -62.997273 
L 426.007365 -62.997273 
L 425.082923 -62.997273 
L 424.15848 -62.997273 
L 423.234037 -62.997273 
L 422.309595 -62.997273 
L 421.385152 -62.997273 
L 420.46071 -62.997273 
L 419.536267 -62.997273 
L 418.611825 -62.997273 
L 417.687382 -62.997273 
L 416.762939 -62.997273 
L 415.838497 -62.997273 
L 414.914054 -62.997273 
L 413.989612 -62.997273 
L 413.065169 -62.997273 
L 412.140726 -62.997273 
L 411.216284 -62.997273 
L 410.291841 -62.997273 
L 409.367399 -62.997273 
L 408.442956 -62.997273 
L 407.518514 -62.997273 
L 406.594071 -62.997273 
L 405.669628 -62.997273 
L 404.745186 -62.997273 
L 403.820743 -62.997273 
L 402.896301 -62.997273 
L 401.971858 -62.997273 
L 401.047415 -62.997273 
L 400.122973 -62.997273 
L 399.19853 -62.997273 
L 398.274088 -62.997273 
L 397.349645 -62.997273 
L 396.425203 -62.997273 
L 395.50076 -62.997273 
L 394.576317 -62.997273 
L 393.651875 -62.997273 
L 392.727432 -62.997273 
L 391.80299 -62.997273 
L 390.878547 -62.997273 
L 389.954104 -62.997273 
L 389.029662 -62.997273 
L 388.105219 -62.997273 
L 387.180777 -62.997273 
L 386.256334 -62.997273 
L 385.331892 -62.997273 
L 384.407449 -62.997273 
L 383.483006 -62.997273 
L 382.558564 -62.997273 
L 381.634121 -62.997273 
L 380.709679 -62.997273 
L 379.785236 -62.997273 
L 378.860793 -62.997273 
L 377.936351 -62.997273 
L 377.011908 -62.997273 
L 376.087466 -62.997273 
L 375.163023 -62.997273 
L 374.238581 -62.997273 
L 373.314138 -62.997273 
L 372.389695 -62.997273 
L 371.465253 -62.997273 
L 370.54081 -62.997273 
L 369.616368 -62.997273 
L 368.691925 -62.997273 
L 367.767482 -62.997273 
L 366.84304 -62.997273 
L 365.918597 -62.997273 
L 364.994155 -62.997273 
L 364.069712 -62.997273 
L 363.14527 -62.997273 
L 362.220827 -62.997273 
L 361.296384 -62.997273 
L 360.371942 -62.997273 
L 359.447499 -62.997273 
L 358.523057 -62.997273 
L 357.598614 -62.997273 
L 356.674171 -62.997273 
L 355.749729 -62.997273 
L 354.825286 -62.997273 
L 353.900844 -62.997273 
L 352.976401 -62.997273 
L 352.051959 -62.997273 
L 351.127516 -62.997273 
L 350.203073 -62.997273 
L 349.278631 -62.997273 
L 348.354188 -62.997273 
L 347.429746 -62.997273 
L 346.505303 -62.997273 
L 345.58086 -62.997273 
L 344.656418 -62.997273 
L 343.731975 -62.997273 
L 342.807533 -62.997273 
L 341.88309 -62.997273 
L 340.958648 -62.997273 
L 340.034205 -62.997273 
L 339.109762 -62.997273 
L 338.18532 -62.997273 
L 337.260877 -62.997273 
L 336.336435 -62.997273 
L 335.411992 -62.997273 
L 334.487549 -62.997273 
L 333.563107 -62.997273 
L 332.638664 -62.997273 
L 331.714222 -62.997273 
L 330.789779 -62.997273 
L 329.865337 -62.997273 
L 328.940894 -62.997273 
L 328.016451 -62.997273 
L 327.092009 -62.997273 
L 326.167566 -62.997273 
L 325.243124 -62.997273 
L 324.318681 -62.997273 
L 323.394238 -62.997273 
L 322.469796 -62.997273 
L 321.545353 -62.997273 
L 320.620911 -62.997273 
L 319.696468 -62.997273 
L 318.772026 -62.997273 
L 317.847583 -62.997273 
L 316.92314 -62.997273 
L 315.998698 -62.997273 
L 315.074255 -62.997273 
L 314.149813 -62.997273 
L 313.22537 -62.997273 
L 312.300927 -62.997273 
L 311.376485 -62.997273 
L 310.452042 -62.997273 
L 309.5276 -62.997273 
L 308.603157 -62.997273 
L 307.678715 -62.997273 
L 306.754272 -62.997273 
L 305.829829 -62.997273 
L 304.905387 -62.997273 
L 303.980944 -62.997273 
L 303.056502 -62.997273 
L 302.132059 -62.997273 
L 301.207616 -62.997273 
L 300.283174 -62.997273 
L 299.358731 -62.997273 
L 298.434289 -62.997273 
L 297.509846 -62.997273 
L 296.585404 -62.997273 
L 295.660961 -62.997273 
L 294.736518 -62.997273 
L 293.812076 -62.997273 
L 292.887633 -62.997273 
L 291.963191 -62.997273 
L 291.038748 -62.997273 
L 290.114305 -62.997273 
L 289.189863 -62.997273 
L 288.26542 -62.997273 
L 287.340978 -62.997273 
L 286.416535 -62.997273 
L 285.492093 -62.997273 
L 284.56765 -62.997273 
L 283.643207 -62.997273 
L 282.718765 -62.997273 
L 281.794322 -62.997273 
L 280.86988 -62.997273 
L 279.945437 -62.997273 
L 279.020994 -62.997273 
L 278.096552 -62.997273 
L 277.172109 -62.997273 
L 276.247667 -62.997273 
L 275.323224 -62.997273 
L 274.398782 -62.997273 
L 273.474339 -62.997273 
L 272.549896 -62.997273 
L 271.625454 -62.997273 
L 270.701011 -62.997273 
L 269.776569 -62.997273 
L 268.852126 -62.997273 
L 267.927683 -62.997273 
L 267.003241 -62.997273 
L 266.078798 -62.997273 
L 265.154356 -62.997273 
L 264.229913 -62.997273 
L 263.305471 -62.997273 
L 262.381028 -62.997273 
L 261.456585 -62.997273 
L 260.532143 -62.997273 
L 259.6077 -62.997273 
L 258.683258 -62.997273 
L 257.758815 -62.997273 
L 256.834372 -62.997273 
L 255.90993 -62.997273 
L 254.985487 -62.997273 
L 254.061045 -62.997273 
L 253.136602 -62.997273 
L 252.21216 -62.997273 
L 251.287717 -62.997273 
L 250.363274 -62.997273 
L 249.438832 -62.997273 
L 248.514389 -62.997273 
L 247.589947 -62.997273 
L 246.665504 -62.997273 
L 245.741061 -62.997273 
L 244.816619 -62.997273 
L 243.892176 -62.997273 
L 242.967734 -62.997273 
L 242.043291 -62.997273 
L 241.118849 -62.997273 
L 240.194406 -62.997273 
L 239.269963 -62.997273 
L 238.345521 -62.997273 
L 237.421078 -62.997273 
L 236.496636 -62.997273 
L 235.572193 -62.997273 
L 234.64775 -62.997273 
L 233.723308 -62.997273 
L 232.798865 -62.997273 
L 231.874423 -62.997273 
L 230.94998 -62.997273 
L 230.025538 -62.997273 
L 229.101095 -62.997273 
L 228.176652 -62.997273 
L 227.25221 -62.997273 
L 226.327767 -62.997273 
L 225.403325 -62.997273 
L 224.478882 -62.997273 
L 223.554439 -62.997273 
L 222.629997 -62.997273 
L 221.705554 -62.997273 
L 220.781112 -62.997273 
L 219.856669 -62.997273 
L 218.932227 -62.997273 
L 218.007784 -62.997273 
L 217.083341 -62.997273 
L 216.158899 -62.997273 
L 215.234456 -62.997273 
L 214.310014 -62.997273 
L 213.385571 -62.997273 
L 212.461128 -62.997273 
L 211.536686 -62.997273 
L 210.612243 -62.997273 
L 209.687801 -62.997273 
L 208.763358 -62.997273 
L 207.838916 -62.997273 
L 206.914473 -62.997273 
L 205.99003 -62.997273 
L 205.065588 -62.997273 
L 204.141145 -62.997273 
L 203.216703 -62.997273 
L 202.29226 -62.997273 
L 201.367817 -62.997273 
L 200.443375 -62.997273 
L 199.518932 -62.997273 
L 198.59449 -62.997273 
L 197.670047 -62.997273 
L 196.745605 -62.997273 
L 195.821162 -62.997273 
L 194.896719 -62.997273 
L 193.972277 -62.997273 
L 193.047834 -62.997273 
L 192.123392 -62.997273 
L 191.198949 -62.997273 
L 190.274506 -62.997273 
L 189.350064 -62.997273 
L 188.425621 -62.997273 
L 187.501179 -62.997273 
L 186.576736 -62.997273 
L 185.652294 -62.997273 
L 184.727851 -62.997273 
L 183.803408 -62.997273 
L 182.878966 -62.997273 
L 181.954523 -62.997273 
L 181.030081 -62.997273 
L 180.105638 -62.997273 
L 179.181195 -62.997273 
L 178.256753 -62.997273 
L 177.33231 -62.997273 
L 176.407868 -62.997273 
L 175.483425 -62.997273 
L 174.558983 -62.997273 
L 173.63454 -62.997273 
L 172.710097 -62.997273 
L 171.785655 -62.997273 
L 170.861212 -62.997273 
L 169.93677 -62.997273 
L 169.012327 -62.997273 
L 168.087884 -62.997273 
L 167.163442 -62.997273 
L 166.238999 -62.997273 
L 165.314557 -62.997273 
L 164.390114 -62.997273 
L 163.465672 -62.997273 
L 162.541229 -62.997273 
L 161.616786 -62.997273 
L 160.692344 -62.997273 
L 159.767901 -62.997273 
L 158.843459 -62.997273 
L 157.919016 -62.997273 
L 156.994573 -62.997273 
L 156.070131 -62.997273 
L 155.145688 -62.997273 
L 154.221246 -62.997273 
L 153.296803 -62.997273 
L 152.372361 -62.997273 
L 151.447918 -62.997273 
L 150.523475 -62.997273 
L 149.599033 -62.997273 
L 148.67459 -62.997273 
L 147.750148 -62.997273 
L 146.825705 -62.997273 
L 145.901262 -62.997273 
L 144.97682 -62.997273 
L 144.052377 -62.997273 
L 143.127935 -62.997273 
L 142.203492 -62.997273 
L 141.27905 -62.997273 
L 140.354607 -62.997273 
L 139.430164 -62.997273 
L 138.505722 -62.997273 
L 137.581279 -62.997273 
L 136.656837 -62.997273 
L 135.732394 -62.997273 
L 134.807951 -62.997273 
L 133.883509 -62.997273 
L 132.959066 -62.997273 
L 132.034624 -62.997273 
L 131.110181 -62.997273 
L 130.185739 -62.997273 
L 129.261296 -62.997273 
L 128.336853 -62.997273 
L 127.412411 -62.997273 
L 126.487968 -62.997273 
L 125.563526 -62.997273 
L 124.639083 -62.997273 
L 123.71464 -62.997273 
L 122.790198 -62.997273 
L 121.865755 -62.997273 
L 120.941313 -62.997273 
L 120.01687 -62.997273 
L 119.092428 -62.997273 
L 118.167985 -62.997273 
L 117.243542 -62.997273 
L 116.3191 -62.997273 
L 115.394657 -62.997273 
L 114.470215 -62.997273 
L 113.545772 -62.997273 
L 112.621329 -62.997273 
L 111.696887 -62.997273 
L 110.772444 -62.997273 
L 109.848002 -62.997273 
L 108.923559 -62.997273 
L 107.999117 -62.997273 
L 107.074674 -62.997273 
L 106.150231 -62.997273 
L 105.225789 -62.997273 
L 104.301346 -62.997273 
L 103.376904 -62.997273 
L 102.452461 -62.997273 
L 101.528018 -62.997273 
L 100.603576 -62.997273 
L 99.679133 -62.997273 
L 98.754691 -62.997273 
L 97.830248 -62.997273 
L 96.905806 -62.997273 
L 95.981363 -62.997273 
L 95.05692 -62.997273 
L 94.132478 -62.997273 
L 93.208035 -62.997273 
L 92.283593 -62.997273 
L 91.35915 -62.997273 
L 90.434707 -62.997273 
L 89.510265 -62.997273 
L 88.585822 -62.997273 
L 87.66138 -62.997273 
L 86.736937 -62.997273 
L 85.812495 -62.997273 
L 84.888052 -62.997273 
L 83.963609 -62.997273 
L 83.039167 -62.997273 
L 82.114724 -62.997273 
L 81.190282 -62.997273 
L 80.265839 -62.997273 
L 79.341396 -62.997273 
L 78.416954 -62.997273 
L 77.492511 -62.997273 
L 76.568069 -62.997273 
L 75.643626 -62.997273 
L 74.719184 -62.997273 
L 73.794741 -62.997273 
L 72.870298 -62.997273 
L 71.945856 -62.997273 
L 71.021413 -62.997273 
L 70.096971 -62.997273 
L 69.172528 -62.997273 
L 68.248085 -62.997273 
L 67.323643 -62.997273 
L 66.3992 -62.997273 
L 65.474758 -62.997273 
L 64.550315 -62.997273 
L 63.625873 -62.997273 
L 62.70143 -62.997273 
L 61.776987 -62.997273 
L 60.852545 -62.997273 
L 59.928102 -62.997273 
L 59.00366 -62.997273 
L 58.079217 -62.997273 
L 57.154774 -62.997273 
L 56.230332 -62.997273 
z
"/>
    </defs>
    <g clip-path="url(#p78b6b951f3)">
     <use xlink:href="#md05e10732b" x="0" y="432" style="fill: #51d7c1; fill-opacity: 0.6"/>
    </g>
   </g>
   <g id="line2d_27">
    <path d="M 56.230332 367.204714 
L 63.625873 367.086647 
L 68.248085 366.82332 
L 73.794741 366.261677 
L 81.190282 365.249123 
L 92.283593 363.702157 
L 95.981363 363.091031 
L 99.679133 362.294529 
L 103.376904 361.205556 
L 106.150231 360.188851 
L 108.923559 358.968689 
L 111.696887 357.586884 
L 115.394657 355.430075 
L 119.092428 353.000671 
L 122.790198 350.314572 
L 126.487968 347.387116 
L 130.185739 344.164851 
L 133.883509 340.675735 
L 138.505722 335.989407 
L 150.523475 323.214385 
L 157.919016 315.948031 
L 162.541229 311.337724 
L 165.314557 308.270958 
L 168.087884 304.806456 
L 170.861212 300.758524 
L 172.710097 297.730318 
L 174.558983 294.394855 
L 177.33231 288.820784 
L 180.105638 282.524186 
L 182.878966 275.658687 
L 186.576736 265.914496 
L 199.518932 230.89667 
L 205.065588 216.835824 
L 218.932227 182.200807 
L 226.327767 163.608605 
L 229.101095 157.163935 
L 231.874423 151.277632 
L 233.723308 147.697331 
L 235.572193 144.522744 
L 237.421078 141.716635 
L 239.269963 139.259408 
L 241.118849 137.085268 
L 242.967734 135.171939 
L 245.741061 132.621153 
L 249.438832 129.335725 
L 251.287717 127.49328 
L 253.136602 125.439547 
L 254.985487 123.087612 
L 256.834372 120.41804 
L 258.683258 117.309349 
L 260.532143 113.86513 
L 263.305471 108.108088 
L 267.927683 97.663834 
L 271.625454 89.411212 
L 274.398782 83.848984 
L 276.247667 80.619822 
L 278.096552 77.881245 
L 279.945437 75.647374 
L 281.794322 73.979466 
L 283.643207 72.890778 
L 284.56765 72.528094 
L 285.492093 72.329017 
L 287.340978 72.271239 
L 288.26542 72.428869 
L 290.114305 73.106332 
L 291.963191 74.222139 
L 293.812076 75.656584 
L 295.660961 77.458204 
L 297.509846 79.573058 
L 299.358731 81.865085 
L 302.132059 85.749004 
L 305.829829 91.39857 
L 310.452042 98.969496 
L 314.149813 105.429532 
L 317.847583 112.349375 
L 321.545353 119.76852 
L 325.243124 127.930211 
L 328.940894 136.676247 
L 334.487549 150.356466 
L 338.18532 159.281375 
L 341.88309 167.756116 
L 345.58086 175.62477 
L 352.051959 188.508774 
L 356.674171 197.707864 
L 361.296384 207.617189 
L 364.994155 216.061917 
L 369.616368 227.219232 
L 389.954104 276.94944 
L 396.425203 291.834032 
L 401.047415 301.941255 
L 405.669628 311.436583 
L 409.367399 318.558012 
L 412.140726 323.516571 
L 414.914054 328.103515 
L 417.687382 332.314439 
L 420.46071 336.062948 
L 423.234037 339.356017 
L 425.082923 341.290929 
L 427.85625 343.878631 
L 430.629578 346.104454 
L 433.402906 347.984555 
L 437.100676 350.11633 
L 439.874004 351.488648 
L 444.496217 353.433326 
L 448.193987 354.798819 
L 455.589528 357.272541 
L 467.607281 361.317468 
L 474.07838 363.408691 
L 477.77615 364.41643 
L 481.47392 365.22447 
L 486.096133 365.960133 
L 491.642789 366.559161 
L 501.811657 367.36681 
L 509.207198 367.820258 
L 514.753853 367.960793 
L 523.073836 367.902296 
L 528.620492 367.848858 
L 528.620492 367.848858 
" clip-path="url(#p78b6b951f3)" style="fill: none; stroke: #51d7c1; stroke-width: 1.5; stroke-linecap: round"/>
   </g>
   <g id="line2d_28">
    <path d="M 174.982781 362.771073 
L 391.783583 362.771073 
" clip-path="url(#p78b6b951f3)" style="fill: none; stroke: #51d7c1; stroke-width: 3.5; stroke-linecap: round"/>
   </g>
   <g id="patch_3">
    <path d="M 32.610824 383.84 
L 552.24 383.84 
" style="fill: none; stroke: #333333; stroke-width: 1.5; stroke-linejoin: miter; stroke-linecap: square"/>
   </g>
   <g id="text_10">
    <!-- $x_1^2x_2^2x_3$ -->
    <g style="fill: #262626" transform="translate(246.365412 49.58)">
     <text>
      <tspan x="0" y="-0.734375" style="font-style: oblique; font-size: 28px; font-family: 'DejaVu Sans'; fill: #262626">x</tspan>
      <tspan x="31.056576" y="-0.734375" style="font-style: oblique; font-size: 28px; font-family: 'DejaVu Sans'; fill: #262626">x</tspan>
      <tspan x="62.113151" y="-0.734375" style="font-style: oblique; font-size: 28px; font-family: 'DejaVu Sans'; fill: #262626">x</tspan>
      <tspan x="16.570312" y="6.921875" style="font-size: 19.6px; font-family: 'DejaVu Sans'; fill: #262626">1</tspan>
      <tspan x="17.820833" y="-11.453125" style="font-size: 19.6px; font-family: 'DejaVu Sans'; fill: #262626">2</tspan>
      <tspan x="47.626888" y="6.921875" style="font-size: 19.6px; font-family: 'DejaVu Sans'; fill: #262626">2</tspan>
      <tspan x="48.877409" y="-11.453125" style="font-size: 19.6px; font-family: 'DejaVu Sans'; fill: #262626">2</tspan>
      <tspan x="78.683464" y="3.859375" style="font-size: 19.6px; font-family: 'DejaVu Sans'; fill: #262626">3</tspan>
     </text>
    </g>
   </g>
  </g>
 </g>
 <defs>
  <clipPath id="p78b6b951f3">
   <rect x="32.610824" y="57.42" width="519.629176" height="326.42"/>
  </clipPath>
 </defs>
</svg>
