<?xml version="1.0" encoding="utf-8" standalone="no"?>
<!DOCTYPE svg PUBLIC "-//W3C//DTD SVG 1.1//EN"
  "http://www.w3.org/Graphics/SVG/1.1/DTD/svg11.dtd">
<svg xmlns:xlink="http://www.w3.org/1999/xlink" width="576pt" height="432pt" viewBox="0 0 576 432" xmlns="http://www.w3.org/2000/svg" version="1.1">
 <metadata>
  <rdf:RDF xmlns:dc="http://purl.org/dc/elements/1.1/" xmlns:cc="http://creativecommons.org/ns#" xmlns:rdf="http://www.w3.org/1999/02/22-rdf-syntax-ns#">
   <cc:Work>
    <dc:type rdf:resource="http://purl.org/dc/dcmitype/StillImage"/>
    <dc:date>2025-09-23T14:40:23.443360</dc:date>
    <dc:format>image/svg+xml</dc:format>
    <dc:creator>
     <cc:Agent>
      <dc:title>Matplotlib v3.10.0, https://matplotlib.org/</dc:title>
     </cc:Agent>
    </dc:creator>
   </cc:Work>
  </rdf:RDF>
 </metadata>
 <defs>
  <style type="text/css">*{stroke-linejoin: round; stroke-linecap: butt}</style>
 </defs>
 <g id="figure_1">
  <g id="patch_1">
   <path d="M 0 432 
L 576 432 
L 576 0 
L 0 0 
L 0 432 
z
" style="fill: none; opacity: 0"/>
  </g>
  <g id="axes_1">
   <g id="patch_2">
    <path d="M 35.149021 383.84 
L 552.24 383.84 
L 552.24 57.42 
L 35.149021 57.42 
L 35.149021 383.84 
z
" style="fill: none"/>
   </g>
   <g id="matplotlib.axis_1">
    <g id="xtick_1">
     <g id="line2d_1">
      <path d="M 43.944988 383.84 
L 43.944988 57.42 
" clip-path="url(#pbe87706cc0)" style="fill: none; stroke: #ffffff; stroke-opacity: 0.4; stroke-linecap: round"/>
     </g>
     <g id="line2d_2"/>
     <g id="text_1">
      <text style="font-size: 18px; font-family: 'DejaVu Serif', 'Times New Roman', serif; text-anchor: middle; fill: #262626" x="43.944988" y="404.517187" transform="rotate(-0 43.944988 404.517187)">−15</text>
     </g>
    </g>
    <g id="xtick_2">
     <g id="line2d_3">
      <path d="M 126.258857 383.84 
L 126.258857 57.42 
" clip-path="url(#pbe87706cc0)" style="fill: none; stroke: #ffffff; stroke-opacity: 0.4; stroke-linecap: round"/>
     </g>
     <g id="line2d_4"/>
     <g id="text_2">
      <text style="font-size: 18px; font-family: 'DejaVu Serif', 'Times New Roman', serif; text-anchor: middle; fill: #262626" x="126.258857" y="404.517187" transform="rotate(-0 126.258857 404.517187)">−10</text>
     </g>
    </g>
    <g id="xtick_3">
     <g id="line2d_5">
      <path d="M 208.572727 383.84 
L 208.572727 57.42 
" clip-path="url(#pbe87706cc0)" style="fill: none; stroke: #ffffff; stroke-opacity: 0.4; stroke-linecap: round"/>
     </g>
     <g id="line2d_6"/>
     <g id="text_3">
      <text style="font-size: 18px; font-family: 'DejaVu Serif', 'Times New Roman', serif; text-anchor: middle; fill: #262626" x="208.572727" y="404.517187" transform="rotate(-0 208.572727 404.517187)">−5</text>
     </g>
    </g>
    <g id="xtick_4">
     <g id="line2d_7">
      <path d="M 290.886596 383.84 
L 290.886596 57.42 
" clip-path="url(#pbe87706cc0)" style="fill: none; stroke: #ffffff; stroke-opacity: 0.4; stroke-linecap: round"/>
     </g>
     <g id="line2d_8"/>
     <g id="text_4">
      <text style="font-size: 18px; font-family: 'DejaVu Serif', 'Times New Roman', serif; text-anchor: middle; fill: #262626" x="290.886596" y="404.517187" transform="rotate(-0 290.886596 404.517187)">0</text>
     </g>
    </g>
    <g id="xtick_5">
     <g id="line2d_9">
      <path d="M 373.200466 383.84 
L 373.200466 57.42 
" clip-path="url(#pbe87706cc0)" style="fill: none; stroke: #ffffff; stroke-opacity: 0.4; stroke-linecap: round"/>
     </g>
     <g id="line2d_10"/>
     <g id="text_5">
      <text style="font-size: 18px; font-family: 'DejaVu Serif', 'Times New Roman', serif; text-anchor: middle; fill: #262626" x="373.200466" y="404.517187" transform="rotate(-0 373.200466 404.517187)">5</text>
     </g>
    </g>
    <g id="xtick_6">
     <g id="line2d_11">
      <path d="M 455.514335 383.84 
L 455.514335 57.42 
" clip-path="url(#pbe87706cc0)" style="fill: none; stroke: #ffffff; stroke-opacity: 0.4; stroke-linecap: round"/>
     </g>
     <g id="line2d_12"/>
     <g id="text_6">
      <text style="font-size: 18px; font-family: 'DejaVu Serif', 'Times New Roman', serif; text-anchor: middle; fill: #262626" x="455.514335" y="404.517187" transform="rotate(-0 455.514335 404.517187)">10</text>
     </g>
    </g>
    <g id="xtick_7">
     <g id="line2d_13">
      <path d="M 537.828205 383.84 
L 537.828205 57.42 
" clip-path="url(#pbe87706cc0)" style="fill: none; stroke: #ffffff; stroke-opacity: 0.4; stroke-linecap: round"/>
     </g>
     <g id="line2d_14"/>
     <g id="text_7">
      <text style="font-size: 18px; font-family: 'DejaVu Serif', 'Times New Roman', serif; text-anchor: middle; fill: #262626" x="537.828205" y="404.517187" transform="rotate(-0 537.828205 404.517187)">15</text>
     </g>
    </g>
   </g>
   <g id="matplotlib.axis_2">
    <g id="ytick_1">
     <g id="line2d_15">
      <path d="M 35.149021 369.002727 
L 552.24 369.002727 
" clip-path="url(#pbe87706cc0)" style="fill: none; stroke: #ffffff; stroke-opacity: 0.4; stroke-linecap: round"/>
     </g>
    </g>
    <g id="ytick_2">
     <g id="line2d_16">
      <path d="M 35.149021 307.52998 
L 552.24 307.52998 
" clip-path="url(#pbe87706cc0)" style="fill: none; stroke: #ffffff; stroke-opacity: 0.4; stroke-linecap: round"/>
     </g>
    </g>
    <g id="ytick_3">
     <g id="line2d_17">
      <path d="M 35.149021 246.057233 
L 552.24 246.057233 
" clip-path="url(#pbe87706cc0)" style="fill: none; stroke: #ffffff; stroke-opacity: 0.4; stroke-linecap: round"/>
     </g>
    </g>
    <g id="ytick_4">
     <g id="line2d_18">
      <path d="M 35.149021 184.584485 
L 552.24 184.584485 
" clip-path="url(#pbe87706cc0)" style="fill: none; stroke: #ffffff; stroke-opacity: 0.4; stroke-linecap: round"/>
     </g>
    </g>
    <g id="ytick_5">
     <g id="line2d_19">
      <path d="M 35.149021 123.111738 
L 552.24 123.111738 
" clip-path="url(#pbe87706cc0)" style="fill: none; stroke: #ffffff; stroke-opacity: 0.4; stroke-linecap: round"/>
     </g>
    </g>
    <g id="ytick_6">
     <g id="line2d_20">
      <path d="M 35.149021 61.638991 
L 552.24 61.638991 
" clip-path="url(#pbe87706cc0)" style="fill: none; stroke: #ffffff; stroke-opacity: 0.4; stroke-linecap: round"/>
     </g>
    </g>
   </g>
   <g id="FillBetweenPolyCollection_1">
    <defs>
     <path id="mf0efc32b3e" d="M 58.653157 -62.997273 
L 58.653157 -63.869642 
L 59.573084 -63.873492 
L 60.493011 -63.87974 
L 61.412938 -63.88809 
L 62.332865 -63.896154 
L 63.252792 -63.909136 
L 64.172719 -63.928075 
L 65.092646 -63.951453 
L 66.012573 -63.975081 
L 66.9325 -64.00168 
L 67.852427 -64.036058 
L 68.772354 -64.078803 
L 69.692281 -64.128432 
L 70.612208 -64.182879 
L 71.532135 -64.247566 
L 72.452062 -64.316561 
L 73.371989 -64.397254 
L 74.291916 -64.492185 
L 75.211843 -64.600284 
L 76.13177 -64.719981 
L 77.051697 -64.846357 
L 77.971624 -64.984021 
L 78.891551 -65.135903 
L 79.811478 -65.29733 
L 80.731405 -65.476007 
L 81.651332 -65.662345 
L 82.571259 -65.868858 
L 83.491186 -66.078336 
L 84.411113 -66.299214 
L 85.33104 -66.536644 
L 86.250967 -66.783388 
L 87.170894 -67.041292 
L 88.090821 -67.312711 
L 89.010748 -67.59516 
L 89.930675 -67.882801 
L 90.850602 -68.182069 
L 91.770529 -68.495673 
L 92.690456 -68.813384 
L 93.610383 -69.144346 
L 94.53031 -69.486476 
L 95.450237 -69.829015 
L 96.370164 -70.180479 
L 97.290091 -70.533125 
L 98.210018 -70.893683 
L 99.129945 -71.258589 
L 100.049872 -71.626422 
L 100.9698 -71.993539 
L 101.889727 -72.371997 
L 102.809654 -72.752483 
L 103.729581 -73.12617 
L 104.649508 -73.5041 
L 105.569435 -73.881215 
L 106.489362 -74.251352 
L 107.409289 -74.615218 
L 108.329216 -74.979451 
L 109.249143 -75.341688 
L 110.16907 -75.696432 
L 111.088997 -76.045218 
L 112.008924 -76.390216 
L 112.928851 -76.723409 
L 113.848778 -77.065064 
L 114.768705 -77.397 
L 115.688632 -77.726575 
L 116.608559 -78.043981 
L 117.528486 -78.358876 
L 118.448413 -78.669772 
L 119.36834 -78.977519 
L 120.288267 -79.285875 
L 121.208194 -79.58575 
L 122.128121 -79.898452 
L 123.048048 -80.2161 
L 123.967975 -80.538024 
L 124.887902 -80.856458 
L 125.807829 -81.181884 
L 126.727756 -81.518878 
L 127.647683 -81.87821 
L 128.56761 -82.248773 
L 129.487537 -82.637795 
L 130.407464 -83.055273 
L 131.327391 -83.47765 
L 132.247318 -83.946589 
L 133.167245 -84.428874 
L 134.087172 -84.942227 
L 135.007099 -85.486361 
L 135.927026 -86.060774 
L 136.846953 -86.664595 
L 137.76688 -87.316658 
L 138.686807 -88.003893 
L 139.606734 -88.72036 
L 140.526661 -89.477994 
L 141.446588 -90.278834 
L 142.366515 -91.113266 
L 143.286443 -91.984131 
L 144.20637 -92.90816 
L 145.126297 -93.855062 
L 146.046224 -94.842765 
L 146.966151 -95.860944 
L 147.886078 -96.903773 
L 148.806005 -97.997894 
L 149.725932 -99.098307 
L 150.645859 -100.227071 
L 151.565786 -101.364554 
L 152.485713 -102.517886 
L 153.40564 -103.692576 
L 154.325567 -104.880842 
L 155.245494 -106.101363 
L 156.165421 -107.325486 
L 157.085348 -108.558157 
L 158.005275 -109.798599 
L 158.925202 -111.05117 
L 159.845129 -112.314168 
L 160.765056 -113.600976 
L 161.684983 -114.894164 
L 162.60491 -116.197682 
L 163.524837 -117.515587 
L 164.444764 -118.843314 
L 165.364691 -120.192576 
L 166.284618 -121.555683 
L 167.204545 -122.950827 
L 168.124472 -124.371074 
L 169.044399 -125.79849 
L 169.964326 -127.257166 
L 170.884253 -128.746786 
L 171.80418 -130.254396 
L 172.724107 -131.812074 
L 173.644034 -133.394281 
L 174.563961 -134.997241 
L 175.483888 -136.626899 
L 176.403815 -138.27688 
L 177.323742 -139.957729 
L 178.243669 -141.666457 
L 179.163596 -143.379882 
L 180.083523 -145.129578 
L 181.00345 -146.885435 
L 181.923377 -148.649956 
L 182.843304 -150.450661 
L 183.763231 -152.262625 
L 184.683158 -154.095787 
L 185.603086 -155.927458 
L 186.523013 -157.771662 
L 187.44294 -159.633505 
L 188.362867 -161.5001 
L 189.282794 -163.384275 
L 190.202721 -165.254606 
L 191.122648 -167.12686 
L 192.042575 -169.017918 
L 192.962502 -170.91297 
L 193.882429 -172.842425 
L 194.802356 -174.784518 
L 195.722283 -176.743786 
L 196.64221 -178.686656 
L 197.562137 -180.63434 
L 198.482064 -182.630834 
L 199.401991 -184.618664 
L 200.321918 -186.62094 
L 201.241845 -188.631061 
L 202.161772 -190.667561 
L 203.081699 -192.723394 
L 204.001626 -194.781797 
L 204.921553 -196.834541 
L 205.84148 -198.921522 
L 206.761407 -201.008096 
L 207.681334 -203.093656 
L 208.601261 -205.217262 
L 209.521188 -207.353378 
L 210.441115 -209.486613 
L 211.361042 -211.63399 
L 212.280969 -213.76924 
L 213.200896 -215.941103 
L 214.120823 -218.103777 
L 215.04075 -220.257106 
L 215.960677 -222.417458 
L 216.880604 -224.590102 
L 217.800531 -226.744024 
L 218.720458 -228.842079 
L 219.640385 -230.977249 
L 220.560312 -233.075887 
L 221.480239 -235.171512 
L 222.400166 -237.265828 
L 223.320093 -239.32205 
L 224.24002 -241.360068 
L 225.159947 -243.393064 
L 226.079874 -245.379184 
L 226.999801 -247.396177 
L 227.919728 -249.378045 
L 228.839656 -251.375022 
L 229.759583 -253.359382 
L 230.67951 -255.320847 
L 231.599437 -257.326718 
L 232.519364 -259.308034 
L 233.439291 -261.287969 
L 234.359218 -263.288516 
L 235.279145 -265.306376 
L 236.199072 -267.331332 
L 237.118999 -269.369575 
L 238.038926 -271.461477 
L 238.958853 -273.557342 
L 239.87878 -275.692349 
L 240.798707 -277.842119 
L 241.718634 -280.050267 
L 242.638561 -282.244979 
L 243.558488 -284.46423 
L 244.478415 -286.68734 
L 245.398342 -288.899046 
L 246.318269 -291.144302 
L 247.238196 -293.403877 
L 248.158123 -295.638368 
L 249.07805 -297.845981 
L 249.997977 -300.027267 
L 250.917904 -302.191074 
L 251.837831 -304.3387 
L 252.757758 -306.431636 
L 253.677685 -308.53108 
L 254.597612 -310.574495 
L 255.517539 -312.574404 
L 256.437466 -314.541157 
L 257.357393 -316.467217 
L 258.27732 -318.356982 
L 259.197247 -320.21602 
L 260.117174 -322.012795 
L 261.037101 -323.778558 
L 261.957028 -325.504452 
L 262.876955 -327.200947 
L 263.796882 -328.863757 
L 264.716809 -330.509072 
L 265.636736 -332.1319 
L 266.556663 -333.707275 
L 267.47659 -335.282867 
L 268.396517 -336.815 
L 269.316444 -338.311287 
L 270.236371 -339.788355 
L 271.156299 -341.212234 
L 272.076226 -342.603779 
L 272.996153 -343.952505 
L 273.91608 -345.287726 
L 274.836007 -346.581706 
L 275.755934 -347.785359 
L 276.675861 -348.9683 
L 277.595788 -350.083275 
L 278.515715 -351.134863 
L 279.435642 -352.144867 
L 280.355569 -353.081464 
L 281.275496 -353.981347 
L 282.195423 -354.811301 
L 283.11535 -355.550818 
L 284.035277 -356.241362 
L 284.955204 -356.885679 
L 285.875131 -357.450736 
L 286.795058 -357.90402 
L 287.714985 -358.341171 
L 288.634912 -358.721209 
L 289.554839 -359.064542 
L 290.474766 -359.314098 
L 291.394693 -359.495384 
L 292.31462 -359.628757 
L 293.234547 -359.706708 
L 294.154474 -359.742275 
L 295.074401 -359.742727 
L 295.994328 -359.72045 
L 296.914255 -359.614449 
L 297.834182 -359.464921 
L 298.754109 -359.248036 
L 299.674036 -358.999606 
L 300.593963 -358.707604 
L 301.51389 -358.38173 
L 302.433817 -357.990188 
L 303.353744 -357.563373 
L 304.273671 -357.064059 
L 305.193598 -356.543166 
L 306.113525 -355.919028 
L 307.033452 -355.246112 
L 307.953379 -354.536126 
L 308.873306 -353.730567 
L 309.793233 -352.847673 
L 310.71316 -351.918559 
L 311.633087 -350.896737 
L 312.553014 -349.802334 
L 313.472942 -348.654428 
L 314.392869 -347.409249 
L 315.312796 -346.053499 
L 316.232723 -344.623163 
L 317.15265 -343.098048 
L 318.072577 -341.504307 
L 318.992504 -339.78781 
L 319.912431 -338.040748 
L 320.832358 -336.192617 
L 321.752285 -334.255691 
L 322.672212 -332.271528 
L 323.592139 -330.19385 
L 324.512066 -328.04199 
L 325.431993 -325.838396 
L 326.35192 -323.612098 
L 327.271847 -321.319785 
L 328.191774 -318.97475 
L 329.111701 -316.587591 
L 330.031628 -314.187002 
L 330.951555 -311.755673 
L 331.871482 -309.278139 
L 332.791409 -306.8024 
L 333.711336 -304.30334 
L 334.631263 -301.795166 
L 335.55119 -299.317162 
L 336.471117 -296.832181 
L 337.391044 -294.350233 
L 338.310971 -291.890164 
L 339.230898 -289.421578 
L 340.150825 -286.976861 
L 341.070752 -284.536575 
L 341.990679 -282.099414 
L 342.910606 -279.661197 
L 343.830533 -277.25886 
L 344.75046 -274.861115 
L 345.670387 -272.480325 
L 346.590314 -270.136615 
L 347.510241 -267.783842 
L 348.430168 -265.457798 
L 349.350095 -263.149271 
L 350.270022 -260.873887 
L 351.189949 -258.620363 
L 352.109876 -256.368391 
L 353.029803 -254.176704 
L 353.94973 -251.982347 
L 354.869657 -249.809596 
L 355.789585 -247.68344 
L 356.709512 -245.536192 
L 357.629439 -243.427341 
L 358.549366 -241.310663 
L 359.469293 -239.221375 
L 360.38922 -237.16027 
L 361.309147 -235.103897 
L 362.229074 -233.025294 
L 363.149001 -230.971007 
L 364.068928 -228.949334 
L 364.988855 -226.901566 
L 365.908782 -224.838636 
L 366.828709 -222.767287 
L 367.748636 -220.699194 
L 368.668563 -218.661459 
L 369.58849 -216.593386 
L 370.508417 -214.523774 
L 371.428344 -212.445591 
L 372.348271 -210.36337 
L 373.268198 -208.282217 
L 374.188125 -206.187936 
L 375.108052 -204.130828 
L 376.027979 -202.061422 
L 376.947906 -199.991201 
L 377.867833 -197.93434 
L 378.78776 -195.891398 
L 379.707687 -193.870398 
L 380.627614 -191.855266 
L 381.547541 -189.851961 
L 382.467468 -187.864087 
L 383.387395 -185.929429 
L 384.307322 -184.007198 
L 385.227249 -182.094726 
L 386.147176 -180.194906 
L 387.067103 -178.333651 
L 387.98703 -176.474854 
L 388.906957 -174.638969 
L 389.826884 -172.795449 
L 390.746811 -170.944497 
L 391.666738 -169.112722 
L 392.586665 -167.276667 
L 393.506592 -165.456394 
L 394.426519 -163.609227 
L 395.346446 -161.753543 
L 396.266373 -159.910806 
L 397.1863 -158.030912 
L 398.106228 -156.158909 
L 399.026155 -154.27348 
L 399.946082 -152.368776 
L 400.866009 -150.455601 
L 401.785936 -148.52781 
L 402.705863 -146.606806 
L 403.62579 -144.668754 
L 404.545717 -142.734845 
L 405.465644 -140.808272 
L 406.385571 -138.895067 
L 407.305498 -136.985518 
L 408.225425 -135.062186 
L 409.145352 -133.196663 
L 410.065279 -131.33634 
L 410.985206 -129.510303 
L 411.905133 -127.700374 
L 412.82506 -125.905091 
L 413.744987 -124.153455 
L 414.664914 -122.442191 
L 415.584841 -120.76069 
L 416.504768 -119.141672 
L 417.424695 -117.546418 
L 418.344622 -115.999908 
L 419.264549 -114.495378 
L 420.184476 -113.045187 
L 421.104403 -111.623206 
L 422.02433 -110.246095 
L 422.944257 -108.910233 
L 423.864184 -107.592901 
L 424.784111 -106.325754 
L 425.704038 -105.08743 
L 426.623965 -103.878756 
L 427.543892 -102.696673 
L 428.463819 -101.545654 
L 429.383746 -100.429164 
L 430.303673 -99.30989 
L 431.2236 -98.221481 
L 432.143527 -97.166938 
L 433.063454 -96.115918 
L 433.983381 -95.093819 
L 434.903308 -94.073424 
L 435.823235 -93.081682 
L 436.743162 -92.104862 
L 437.663089 -91.136667 
L 438.583016 -90.188182 
L 439.502943 -89.269635 
L 440.422871 -88.355103 
L 441.342798 -87.454845 
L 442.262725 -86.58383 
L 443.182652 -85.735196 
L 444.102579 -84.909291 
L 445.022506 -84.111992 
L 445.942433 -83.325991 
L 446.86236 -82.575756 
L 447.782287 -81.840344 
L 448.702214 -81.124946 
L 449.622141 -80.438001 
L 450.542068 -79.790983 
L 451.461995 -79.172796 
L 452.381922 -78.569559 
L 453.301849 -78.003114 
L 454.221776 -77.460035 
L 455.141703 -76.948933 
L 456.06163 -76.450213 
L 456.981557 -75.980629 
L 457.901484 -75.538436 
L 458.821411 -75.121439 
L 459.741338 -74.718301 
L 460.661265 -74.328879 
L 461.581192 -73.957095 
L 462.501119 -73.599233 
L 463.421046 -73.260757 
L 464.340973 -72.941936 
L 465.2609 -72.631443 
L 466.180827 -72.32609 
L 467.100754 -72.032346 
L 468.020681 -71.746488 
L 468.940608 -71.465452 
L 469.860535 -71.193237 
L 470.780462 -70.924239 
L 471.700389 -70.669173 
L 472.620316 -70.418054 
L 473.540243 -70.155594 
L 474.46017 -69.905583 
L 475.380097 -69.659524 
L 476.300024 -69.425924 
L 477.219951 -69.18823 
L 478.139878 -68.954723 
L 479.059805 -68.729893 
L 479.979732 -68.502194 
L 480.899659 -68.28378 
L 481.819586 -68.073965 
L 482.739514 -67.867958 
L 483.659441 -67.659918 
L 484.579368 -67.460563 
L 485.499295 -67.269785 
L 486.419222 -67.087581 
L 487.339149 -66.909685 
L 488.259076 -66.739317 
L 489.179003 -66.576908 
L 490.09893 -66.425003 
L 491.018857 -66.277506 
L 491.938784 -66.144942 
L 492.858711 -66.019413 
L 493.778638 -65.89888 
L 494.698565 -65.795162 
L 495.618492 -65.697959 
L 496.538419 -65.607706 
L 497.458346 -65.531147 
L 498.378273 -65.462603 
L 499.2982 -65.401769 
L 500.218127 -65.343896 
L 501.138054 -65.293757 
L 502.057981 -65.254943 
L 502.977908 -65.22141 
L 503.897835 -65.195278 
L 504.817762 -65.166762 
L 505.737689 -65.143203 
L 506.657616 -65.125941 
L 507.577543 -65.111002 
L 508.49747 -65.099924 
L 509.417397 -65.087313 
L 510.337324 -65.083001 
L 511.257251 -65.074294 
L 512.177178 -65.065239 
L 513.097105 -65.053431 
L 514.017032 -65.043503 
L 514.936959 -65.030457 
L 515.856886 -65.016902 
L 516.776813 -65.004956 
L 517.69674 -64.989832 
L 518.616667 -64.979243 
L 519.536594 -64.963718 
L 520.456521 -64.94833 
L 521.376448 -64.93545 
L 522.296375 -64.918323 
L 523.216302 -64.906878 
L 524.136229 -64.895975 
L 525.056157 -64.888666 
L 525.976084 -64.880436 
L 526.896011 -64.873705 
L 527.815938 -64.866495 
L 528.735865 -64.863748 
L 528.735865 -62.997273 
L 528.735865 -62.997273 
L 527.815938 -62.997273 
L 526.896011 -62.997273 
L 525.976084 -62.997273 
L 525.056157 -62.997273 
L 524.136229 -62.997273 
L 523.216302 -62.997273 
L 522.296375 -62.997273 
L 521.376448 -62.997273 
L 520.456521 -62.997273 
L 519.536594 -62.997273 
L 518.616667 -62.997273 
L 517.69674 -62.997273 
L 516.776813 -62.997273 
L 515.856886 -62.997273 
L 514.936959 -62.997273 
L 514.017032 -62.997273 
L 513.097105 -62.997273 
L 512.177178 -62.997273 
L 511.257251 -62.997273 
L 510.337324 -62.997273 
L 509.417397 -62.997273 
L 508.49747 -62.997273 
L 507.577543 -62.997273 
L 506.657616 -62.997273 
L 505.737689 -62.997273 
L 504.817762 -62.997273 
L 503.897835 -62.997273 
L 502.977908 -62.997273 
L 502.057981 -62.997273 
L 501.138054 -62.997273 
L 500.218127 -62.997273 
L 499.2982 -62.997273 
L 498.378273 -62.997273 
L 497.458346 -62.997273 
L 496.538419 -62.997273 
L 495.618492 -62.997273 
L 494.698565 -62.997273 
L 493.778638 -62.997273 
L 492.858711 -62.997273 
L 491.938784 -62.997273 
L 491.018857 -62.997273 
L 490.09893 -62.997273 
L 489.179003 -62.997273 
L 488.259076 -62.997273 
L 487.339149 -62.997273 
L 486.419222 -62.997273 
L 485.499295 -62.997273 
L 484.579368 -62.997273 
L 483.659441 -62.997273 
L 482.739514 -62.997273 
L 481.819586 -62.997273 
L 480.899659 -62.997273 
L 479.979732 -62.997273 
L 479.059805 -62.997273 
L 478.139878 -62.997273 
L 477.219951 -62.997273 
L 476.300024 -62.997273 
L 475.380097 -62.997273 
L 474.46017 -62.997273 
L 473.540243 -62.997273 
L 472.620316 -62.997273 
L 471.700389 -62.997273 
L 470.780462 -62.997273 
L 469.860535 -62.997273 
L 468.940608 -62.997273 
L 468.020681 -62.997273 
L 467.100754 -62.997273 
L 466.180827 -62.997273 
L 465.2609 -62.997273 
L 464.340973 -62.997273 
L 463.421046 -62.997273 
L 462.501119 -62.997273 
L 461.581192 -62.997273 
L 460.661265 -62.997273 
L 459.741338 -62.997273 
L 458.821411 -62.997273 
L 457.901484 -62.997273 
L 456.981557 -62.997273 
L 456.06163 -62.997273 
L 455.141703 -62.997273 
L 454.221776 -62.997273 
L 453.301849 -62.997273 
L 452.381922 -62.997273 
L 451.461995 -62.997273 
L 450.542068 -62.997273 
L 449.622141 -62.997273 
L 448.702214 -62.997273 
L 447.782287 -62.997273 
L 446.86236 -62.997273 
L 445.942433 -62.997273 
L 445.022506 -62.997273 
L 444.102579 -62.997273 
L 443.182652 -62.997273 
L 442.262725 -62.997273 
L 441.342798 -62.997273 
L 440.422871 -62.997273 
L 439.502943 -62.997273 
L 438.583016 -62.997273 
L 437.663089 -62.997273 
L 436.743162 -62.997273 
L 435.823235 -62.997273 
L 434.903308 -62.997273 
L 433.983381 -62.997273 
L 433.063454 -62.997273 
L 432.143527 -62.997273 
L 431.2236 -62.997273 
L 430.303673 -62.997273 
L 429.383746 -62.997273 
L 428.463819 -62.997273 
L 427.543892 -62.997273 
L 426.623965 -62.997273 
L 425.704038 -62.997273 
L 424.784111 -62.997273 
L 423.864184 -62.997273 
L 422.944257 -62.997273 
L 422.02433 -62.997273 
L 421.104403 -62.997273 
L 420.184476 -62.997273 
L 419.264549 -62.997273 
L 418.344622 -62.997273 
L 417.424695 -62.997273 
L 416.504768 -62.997273 
L 415.584841 -62.997273 
L 414.664914 -62.997273 
L 413.744987 -62.997273 
L 412.82506 -62.997273 
L 411.905133 -62.997273 
L 410.985206 -62.997273 
L 410.065279 -62.997273 
L 409.145352 -62.997273 
L 408.225425 -62.997273 
L 407.305498 -62.997273 
L 406.385571 -62.997273 
L 405.465644 -62.997273 
L 404.545717 -62.997273 
L 403.62579 -62.997273 
L 402.705863 -62.997273 
L 401.785936 -62.997273 
L 400.866009 -62.997273 
L 399.946082 -62.997273 
L 399.026155 -62.997273 
L 398.106228 -62.997273 
L 397.1863 -62.997273 
L 396.266373 -62.997273 
L 395.346446 -62.997273 
L 394.426519 -62.997273 
L 393.506592 -62.997273 
L 392.586665 -62.997273 
L 391.666738 -62.997273 
L 390.746811 -62.997273 
L 389.826884 -62.997273 
L 388.906957 -62.997273 
L 387.98703 -62.997273 
L 387.067103 -62.997273 
L 386.147176 -62.997273 
L 385.227249 -62.997273 
L 384.307322 -62.997273 
L 383.387395 -62.997273 
L 382.467468 -62.997273 
L 381.547541 -62.997273 
L 380.627614 -62.997273 
L 379.707687 -62.997273 
L 378.78776 -62.997273 
L 377.867833 -62.997273 
L 376.947906 -62.997273 
L 376.027979 -62.997273 
L 375.108052 -62.997273 
L 374.188125 -62.997273 
L 373.268198 -62.997273 
L 372.348271 -62.997273 
L 371.428344 -62.997273 
L 370.508417 -62.997273 
L 369.58849 -62.997273 
L 368.668563 -62.997273 
L 367.748636 -62.997273 
L 366.828709 -62.997273 
L 365.908782 -62.997273 
L 364.988855 -62.997273 
L 364.068928 -62.997273 
L 363.149001 -62.997273 
L 362.229074 -62.997273 
L 361.309147 -62.997273 
L 360.38922 -62.997273 
L 359.469293 -62.997273 
L 358.549366 -62.997273 
L 357.629439 -62.997273 
L 356.709512 -62.997273 
L 355.789585 -62.997273 
L 354.869657 -62.997273 
L 353.94973 -62.997273 
L 353.029803 -62.997273 
L 352.109876 -62.997273 
L 351.189949 -62.997273 
L 350.270022 -62.997273 
L 349.350095 -62.997273 
L 348.430168 -62.997273 
L 347.510241 -62.997273 
L 346.590314 -62.997273 
L 345.670387 -62.997273 
L 344.75046 -62.997273 
L 343.830533 -62.997273 
L 342.910606 -62.997273 
L 341.990679 -62.997273 
L 341.070752 -62.997273 
L 340.150825 -62.997273 
L 339.230898 -62.997273 
L 338.310971 -62.997273 
L 337.391044 -62.997273 
L 336.471117 -62.997273 
L 335.55119 -62.997273 
L 334.631263 -62.997273 
L 333.711336 -62.997273 
L 332.791409 -62.997273 
L 331.871482 -62.997273 
L 330.951555 -62.997273 
L 330.031628 -62.997273 
L 329.111701 -62.997273 
L 328.191774 -62.997273 
L 327.271847 -62.997273 
L 326.35192 -62.997273 
L 325.431993 -62.997273 
L 324.512066 -62.997273 
L 323.592139 -62.997273 
L 322.672212 -62.997273 
L 321.752285 -62.997273 
L 320.832358 -62.997273 
L 319.912431 -62.997273 
L 318.992504 -62.997273 
L 318.072577 -62.997273 
L 317.15265 -62.997273 
L 316.232723 -62.997273 
L 315.312796 -62.997273 
L 314.392869 -62.997273 
L 313.472942 -62.997273 
L 312.553014 -62.997273 
L 311.633087 -62.997273 
L 310.71316 -62.997273 
L 309.793233 -62.997273 
L 308.873306 -62.997273 
L 307.953379 -62.997273 
L 307.033452 -62.997273 
L 306.113525 -62.997273 
L 305.193598 -62.997273 
L 304.273671 -62.997273 
L 303.353744 -62.997273 
L 302.433817 -62.997273 
L 301.51389 -62.997273 
L 300.593963 -62.997273 
L 299.674036 -62.997273 
L 298.754109 -62.997273 
L 297.834182 -62.997273 
L 296.914255 -62.997273 
L 295.994328 -62.997273 
L 295.074401 -62.997273 
L 294.154474 -62.997273 
L 293.234547 -62.997273 
L 292.31462 -62.997273 
L 291.394693 -62.997273 
L 290.474766 -62.997273 
L 289.554839 -62.997273 
L 288.634912 -62.997273 
L 287.714985 -62.997273 
L 286.795058 -62.997273 
L 285.875131 -62.997273 
L 284.955204 -62.997273 
L 284.035277 -62.997273 
L 283.11535 -62.997273 
L 282.195423 -62.997273 
L 281.275496 -62.997273 
L 280.355569 -62.997273 
L 279.435642 -62.997273 
L 278.515715 -62.997273 
L 277.595788 -62.997273 
L 276.675861 -62.997273 
L 275.755934 -62.997273 
L 274.836007 -62.997273 
L 273.91608 -62.997273 
L 272.996153 -62.997273 
L 272.076226 -62.997273 
L 271.156299 -62.997273 
L 270.236371 -62.997273 
L 269.316444 -62.997273 
L 268.396517 -62.997273 
L 267.47659 -62.997273 
L 266.556663 -62.997273 
L 265.636736 -62.997273 
L 264.716809 -62.997273 
L 263.796882 -62.997273 
L 262.876955 -62.997273 
L 261.957028 -62.997273 
L 261.037101 -62.997273 
L 260.117174 -62.997273 
L 259.197247 -62.997273 
L 258.27732 -62.997273 
L 257.357393 -62.997273 
L 256.437466 -62.997273 
L 255.517539 -62.997273 
L 254.597612 -62.997273 
L 253.677685 -62.997273 
L 252.757758 -62.997273 
L 251.837831 -62.997273 
L 250.917904 -62.997273 
L 249.997977 -62.997273 
L 249.07805 -62.997273 
L 248.158123 -62.997273 
L 247.238196 -62.997273 
L 246.318269 -62.997273 
L 245.398342 -62.997273 
L 244.478415 -62.997273 
L 243.558488 -62.997273 
L 242.638561 -62.997273 
L 241.718634 -62.997273 
L 240.798707 -62.997273 
L 239.87878 -62.997273 
L 238.958853 -62.997273 
L 238.038926 -62.997273 
L 237.118999 -62.997273 
L 236.199072 -62.997273 
L 235.279145 -62.997273 
L 234.359218 -62.997273 
L 233.439291 -62.997273 
L 232.519364 -62.997273 
L 231.599437 -62.997273 
L 230.67951 -62.997273 
L 229.759583 -62.997273 
L 228.839656 -62.997273 
L 227.919728 -62.997273 
L 226.999801 -62.997273 
L 226.079874 -62.997273 
L 225.159947 -62.997273 
L 224.24002 -62.997273 
L 223.320093 -62.997273 
L 222.400166 -62.997273 
L 221.480239 -62.997273 
L 220.560312 -62.997273 
L 219.640385 -62.997273 
L 218.720458 -62.997273 
L 217.800531 -62.997273 
L 216.880604 -62.997273 
L 215.960677 -62.997273 
L 215.04075 -62.997273 
L 214.120823 -62.997273 
L 213.200896 -62.997273 
L 212.280969 -62.997273 
L 211.361042 -62.997273 
L 210.441115 -62.997273 
L 209.521188 -62.997273 
L 208.601261 -62.997273 
L 207.681334 -62.997273 
L 206.761407 -62.997273 
L 205.84148 -62.997273 
L 204.921553 -62.997273 
L 204.001626 -62.997273 
L 203.081699 -62.997273 
L 202.161772 -62.997273 
L 201.241845 -62.997273 
L 200.321918 -62.997273 
L 199.401991 -62.997273 
L 198.482064 -62.997273 
L 197.562137 -62.997273 
L 196.64221 -62.997273 
L 195.722283 -62.997273 
L 194.802356 -62.997273 
L 193.882429 -62.997273 
L 192.962502 -62.997273 
L 192.042575 -62.997273 
L 191.122648 -62.997273 
L 190.202721 -62.997273 
L 189.282794 -62.997273 
L 188.362867 -62.997273 
L 187.44294 -62.997273 
L 186.523013 -62.997273 
L 185.603086 -62.997273 
L 184.683158 -62.997273 
L 183.763231 -62.997273 
L 182.843304 -62.997273 
L 181.923377 -62.997273 
L 181.00345 -62.997273 
L 180.083523 -62.997273 
L 179.163596 -62.997273 
L 178.243669 -62.997273 
L 177.323742 -62.997273 
L 176.403815 -62.997273 
L 175.483888 -62.997273 
L 174.563961 -62.997273 
L 173.644034 -62.997273 
L 172.724107 -62.997273 
L 171.80418 -62.997273 
L 170.884253 -62.997273 
L 169.964326 -62.997273 
L 169.044399 -62.997273 
L 168.124472 -62.997273 
L 167.204545 -62.997273 
L 166.284618 -62.997273 
L 165.364691 -62.997273 
L 164.444764 -62.997273 
L 163.524837 -62.997273 
L 162.60491 -62.997273 
L 161.684983 -62.997273 
L 160.765056 -62.997273 
L 159.845129 -62.997273 
L 158.925202 -62.997273 
L 158.005275 -62.997273 
L 157.085348 -62.997273 
L 156.165421 -62.997273 
L 155.245494 -62.997273 
L 154.325567 -62.997273 
L 153.40564 -62.997273 
L 152.485713 -62.997273 
L 151.565786 -62.997273 
L 150.645859 -62.997273 
L 149.725932 -62.997273 
L 148.806005 -62.997273 
L 147.886078 -62.997273 
L 146.966151 -62.997273 
L 146.046224 -62.997273 
L 145.126297 -62.997273 
L 144.20637 -62.997273 
L 143.286443 -62.997273 
L 142.366515 -62.997273 
L 141.446588 -62.997273 
L 140.526661 -62.997273 
L 139.606734 -62.997273 
L 138.686807 -62.997273 
L 137.76688 -62.997273 
L 136.846953 -62.997273 
L 135.927026 -62.997273 
L 135.007099 -62.997273 
L 134.087172 -62.997273 
L 133.167245 -62.997273 
L 132.247318 -62.997273 
L 131.327391 -62.997273 
L 130.407464 -62.997273 
L 129.487537 -62.997273 
L 128.56761 -62.997273 
L 127.647683 -62.997273 
L 126.727756 -62.997273 
L 125.807829 -62.997273 
L 124.887902 -62.997273 
L 123.967975 -62.997273 
L 123.048048 -62.997273 
L 122.128121 -62.997273 
L 121.208194 -62.997273 
L 120.288267 -62.997273 
L 119.36834 -62.997273 
L 118.448413 -62.997273 
L 117.528486 -62.997273 
L 116.608559 -62.997273 
L 115.688632 -62.997273 
L 114.768705 -62.997273 
L 113.848778 -62.997273 
L 112.928851 -62.997273 
L 112.008924 -62.997273 
L 111.088997 -62.997273 
L 110.16907 -62.997273 
L 109.249143 -62.997273 
L 108.329216 -62.997273 
L 107.409289 -62.997273 
L 106.489362 -62.997273 
L 105.569435 -62.997273 
L 104.649508 -62.997273 
L 103.729581 -62.997273 
L 102.809654 -62.997273 
L 101.889727 -62.997273 
L 100.9698 -62.997273 
L 100.049872 -62.997273 
L 99.129945 -62.997273 
L 98.210018 -62.997273 
L 97.290091 -62.997273 
L 96.370164 -62.997273 
L 95.450237 -62.997273 
L 94.53031 -62.997273 
L 93.610383 -62.997273 
L 92.690456 -62.997273 
L 91.770529 -62.997273 
L 90.850602 -62.997273 
L 89.930675 -62.997273 
L 89.010748 -62.997273 
L 88.090821 -62.997273 
L 87.170894 -62.997273 
L 86.250967 -62.997273 
L 85.33104 -62.997273 
L 84.411113 -62.997273 
L 83.491186 -62.997273 
L 82.571259 -62.997273 
L 81.651332 -62.997273 
L 80.731405 -62.997273 
L 79.811478 -62.997273 
L 78.891551 -62.997273 
L 77.971624 -62.997273 
L 77.051697 -62.997273 
L 76.13177 -62.997273 
L 75.211843 -62.997273 
L 74.291916 -62.997273 
L 73.371989 -62.997273 
L 72.452062 -62.997273 
L 71.532135 -62.997273 
L 70.612208 -62.997273 
L 69.692281 -62.997273 
L 68.772354 -62.997273 
L 67.852427 -62.997273 
L 66.9325 -62.997273 
L 66.012573 -62.997273 
L 65.092646 -62.997273 
L 64.172719 -62.997273 
L 63.252792 -62.997273 
L 62.332865 -62.997273 
L 61.412938 -62.997273 
L 60.493011 -62.997273 
L 59.573084 -62.997273 
L 58.653157 -62.997273 
z
"/>
    </defs>
    <g clip-path="url(#pbe87706cc0)">
     <use xlink:href="#mf0efc32b3e" x="0" y="432" style="fill: #51d7c1; fill-opacity: 0.6"/>
    </g>
   </g>
   <g id="line2d_21">
    <path d="M 58.653157 368.130358 
L 66.9325 367.99832 
L 72.452062 367.683439 
L 76.13177 367.280019 
L 79.811478 366.70267 
L 84.411113 365.700786 
L 89.010748 364.40484 
L 93.610383 362.855654 
L 100.9698 360.006461 
L 111.088997 355.954782 
L 117.528486 353.641124 
L 127.647683 350.12179 
L 131.327391 348.52235 
L 134.087172 347.057773 
L 136.846953 345.335405 
L 139.606734 343.27964 
L 142.366515 340.886734 
L 145.126297 338.144938 
L 147.886078 335.096227 
L 152.485713 329.482114 
L 157.085348 323.441843 
L 161.684983 317.105836 
L 166.284618 310.444317 
L 169.964326 304.742834 
L 173.644034 298.605719 
L 177.323742 292.042271 
L 181.923377 283.350044 
L 187.44294 272.366495 
L 194.802356 257.215482 
L 202.161772 241.332439 
L 209.521188 224.646622 
L 225.159947 188.606936 
L 238.038926 160.538523 
L 241.718634 151.949733 
L 254.597612 121.425505 
L 258.27732 113.643018 
L 261.037101 108.221442 
L 264.716809 101.490928 
L 268.396517 95.185 
L 272.076226 89.396221 
L 274.836007 85.418294 
L 277.595788 81.916725 
L 280.355569 78.918536 
L 282.195423 77.188699 
L 284.035277 75.758638 
L 285.875131 74.549264 
L 288.634912 73.278791 
L 290.474766 72.685902 
L 292.31462 72.371243 
L 294.154474 72.257725 
L 295.994328 72.27955 
L 297.834182 72.535079 
L 300.593963 73.292396 
L 302.433817 74.009812 
L 304.273671 74.935941 
L 306.113525 76.080972 
L 307.953379 77.463874 
L 309.793233 79.152327 
L 311.633087 81.103263 
L 313.472942 83.345572 
L 315.312796 85.946501 
L 317.15265 88.901952 
L 318.992504 92.21219 
L 320.832358 95.807383 
L 323.592139 101.80615 
L 327.271847 110.680215 
L 330.951555 120.244327 
L 344.75046 157.138885 
L 350.270022 171.126113 
L 354.869657 182.190404 
L 362.229074 198.974706 
L 383.387395 246.070571 
L 388.906957 257.361031 
L 400.866009 281.544399 
L 410.065279 300.66366 
L 414.664914 309.557809 
L 417.424695 314.453582 
L 420.184476 318.954813 
L 422.944257 323.089767 
L 425.704038 326.91257 
L 429.383746 331.570836 
L 433.063454 335.884082 
L 437.663089 340.863333 
L 441.342798 344.545155 
L 445.022506 347.888008 
L 447.782287 350.159656 
L 450.542068 352.209017 
L 453.301849 353.996886 
L 456.06163 355.549787 
L 458.821411 356.878561 
L 462.501119 358.400767 
L 466.180827 359.67391 
L 471.700389 361.330827 
L 479.979732 363.497806 
L 485.499295 364.730215 
L 491.018857 365.722494 
L 495.618492 366.302041 
L 500.218127 366.656104 
L 505.737689 366.856797 
L 525.056157 367.111334 
L 528.735865 367.136252 
L 528.735865 367.136252 
" clip-path="url(#pbe87706cc0)" style="fill: none; stroke: #51d7c1; stroke-width: 1.5; stroke-linecap: round"/>
   </g>
   <g id="line2d_22">
    <path d="M 181.6618 362.771073 
L 402.664262 362.771073 
" clip-path="url(#pbe87706cc0)" style="fill: none; stroke: #51d7c1; stroke-width: 3.5; stroke-linecap: round"/>
   </g>
   <g id="patch_3">
    <path d="M 35.149021 383.84 
L 552.24 383.84 
" style="fill: none; stroke: #333333; stroke-width: 1.5; stroke-linejoin: miter; stroke-linecap: square"/>
   </g>
   <g id="text_8">
    <!-- $x_1^2$ -->
    <g style="fill: #262626" transform="translate(278.154511 49.58)">
     <text>
      <tspan x="0" y="-0.734375" style="font-style: oblique; font-size: 28px; font-family: 'DejaVu Sans'; fill: #262626">x</tspan>
      <tspan x="16.570312" y="6.921875" style="font-size: 19.6px; font-family: 'DejaVu Sans'; fill: #262626">1</tspan>
      <tspan x="17.820833" y="-11.453125" style="font-size: 19.6px; font-family: 'DejaVu Sans'; fill: #262626">2</tspan>
     </text>
    </g>
   </g>
  </g>
 </g>
 <defs>
  <clipPath id="pbe87706cc0">
   <rect x="35.149021" y="57.42" width="517.090979" height="326.42"/>
  </clipPath>
 </defs>
</svg>
