<?xml version="1.0" encoding="utf-8" standalone="no"?>
<!DOCTYPE svg PUBLIC "-//W3C//DTD SVG 1.1//EN"
  "http://www.w3.org/Graphics/SVG/1.1/DTD/svg11.dtd">
<svg xmlns:xlink="http://www.w3.org/1999/xlink" width="576pt" height="432pt" viewBox="0 0 576 432" xmlns="http://www.w3.org/2000/svg" version="1.1">
 <metadata>
  <rdf:RDF xmlns:dc="http://purl.org/dc/elements/1.1/" xmlns:cc="http://creativecommons.org/ns#" xmlns:rdf="http://www.w3.org/1999/02/22-rdf-syntax-ns#">
   <cc:Work>
    <dc:type rdf:resource="http://purl.org/dc/dcmitype/StillImage"/>
    <dc:date>2025-09-23T14:40:22.978789</dc:date>
    <dc:format>image/svg+xml</dc:format>
    <dc:creator>
     <cc:Agent>
      <dc:title>Matplotlib v3.10.0, https://matplotlib.org/</dc:title>
     </cc:Agent>
    </dc:creator>
   </cc:Work>
  </rdf:RDF>
 </metadata>
 <defs>
  <style type="text/css">*{stroke-linejoin: round; stroke-linecap: butt}</style>
 </defs>
 <g id="figure_1">
  <g id="patch_1">
   <path d="M 0 432 
L 576 432 
L 576 0 
L 0 0 
L 0 432 
z
" style="fill: none; opacity: 0"/>
  </g>
  <g id="axes_1">
   <g id="patch_2">
    <path d="M 23.76 383.84 
L 552.24 383.84 
L 552.24 57.42 
L 23.76 57.42 
L 23.76 383.84 
z
" style="fill: none"/>
   </g>
   <g id="matplotlib.axis_1">
    <g id="xtick_1">
     <g id="line2d_1">
      <path d="M 67.853954 383.84 
L 67.853954 57.42 
" clip-path="url(#pebd2b3702f)" style="fill: none; stroke: #ffffff; stroke-opacity: 0.4; stroke-linecap: round"/>
     </g>
     <g id="line2d_2"/>
     <g id="text_1">
      <text style="font-size: 18px; font-family: 'DejaVu Serif', 'Times New Roman', serif; text-anchor: middle; fill: #262626" x="67.853954" y="404.517187" transform="rotate(-0 67.853954 404.517187)">−15</text>
     </g>
    </g>
    <g id="xtick_2">
     <g id="line2d_3">
      <path d="M 138.192984 383.84 
L 138.192984 57.42 
" clip-path="url(#pebd2b3702f)" style="fill: none; stroke: #ffffff; stroke-opacity: 0.4; stroke-linecap: round"/>
     </g>
     <g id="line2d_4"/>
     <g id="text_2">
      <text style="font-size: 18px; font-family: 'DejaVu Serif', 'Times New Roman', serif; text-anchor: middle; fill: #262626" x="138.192984" y="404.517187" transform="rotate(-0 138.192984 404.517187)">−10</text>
     </g>
    </g>
    <g id="xtick_3">
     <g id="line2d_5">
      <path d="M 208.532014 383.84 
L 208.532014 57.42 
" clip-path="url(#pebd2b3702f)" style="fill: none; stroke: #ffffff; stroke-opacity: 0.4; stroke-linecap: round"/>
     </g>
     <g id="line2d_6"/>
     <g id="text_3">
      <text style="font-size: 18px; font-family: 'DejaVu Serif', 'Times New Roman', serif; text-anchor: middle; fill: #262626" x="208.532014" y="404.517187" transform="rotate(-0 208.532014 404.517187)">−5</text>
     </g>
    </g>
    <g id="xtick_4">
     <g id="line2d_7">
      <path d="M 278.871044 383.84 
L 278.871044 57.42 
" clip-path="url(#pebd2b3702f)" style="fill: none; stroke: #ffffff; stroke-opacity: 0.4; stroke-linecap: round"/>
     </g>
     <g id="line2d_8"/>
     <g id="text_4">
      <text style="font-size: 18px; font-family: 'DejaVu Serif', 'Times New Roman', serif; text-anchor: middle; fill: #262626" x="278.871044" y="404.517187" transform="rotate(-0 278.871044 404.517187)">0</text>
     </g>
    </g>
    <g id="xtick_5">
     <g id="line2d_9">
      <path d="M 349.210075 383.84 
L 349.210075 57.42 
" clip-path="url(#pebd2b3702f)" style="fill: none; stroke: #ffffff; stroke-opacity: 0.4; stroke-linecap: round"/>
     </g>
     <g id="line2d_10"/>
     <g id="text_5">
      <text style="font-size: 18px; font-family: 'DejaVu Serif', 'Times New Roman', serif; text-anchor: middle; fill: #262626" x="349.210075" y="404.517187" transform="rotate(-0 349.210075 404.517187)">5</text>
     </g>
    </g>
    <g id="xtick_6">
     <g id="line2d_11">
      <path d="M 419.549105 383.84 
L 419.549105 57.42 
" clip-path="url(#pebd2b3702f)" style="fill: none; stroke: #ffffff; stroke-opacity: 0.4; stroke-linecap: round"/>
     </g>
     <g id="line2d_12"/>
     <g id="text_6">
      <text style="font-size: 18px; font-family: 'DejaVu Serif', 'Times New Roman', serif; text-anchor: middle; fill: #262626" x="419.549105" y="404.517187" transform="rotate(-0 419.549105 404.517187)">10</text>
     </g>
    </g>
    <g id="xtick_7">
     <g id="line2d_13">
      <path d="M 489.888135 383.84 
L 489.888135 57.42 
" clip-path="url(#pebd2b3702f)" style="fill: none; stroke: #ffffff; stroke-opacity: 0.4; stroke-linecap: round"/>
     </g>
     <g id="line2d_14"/>
     <g id="text_7">
      <text style="font-size: 18px; font-family: 'DejaVu Serif', 'Times New Roman', serif; text-anchor: middle; fill: #262626" x="489.888135" y="404.517187" transform="rotate(-0 489.888135 404.517187)">15</text>
     </g>
    </g>
   </g>
   <g id="matplotlib.axis_2">
    <g id="ytick_1">
     <g id="line2d_15">
      <path d="M 23.76 369.002727 
L 552.24 369.002727 
" clip-path="url(#pebd2b3702f)" style="fill: none; stroke: #ffffff; stroke-opacity: 0.4; stroke-linecap: round"/>
     </g>
    </g>
    <g id="ytick_2">
     <g id="line2d_16">
      <path d="M 23.76 298.230954 
L 552.24 298.230954 
" clip-path="url(#pebd2b3702f)" style="fill: none; stroke: #ffffff; stroke-opacity: 0.4; stroke-linecap: round"/>
     </g>
    </g>
    <g id="ytick_3">
     <g id="line2d_17">
      <path d="M 23.76 227.459181 
L 552.24 227.459181 
" clip-path="url(#pebd2b3702f)" style="fill: none; stroke: #ffffff; stroke-opacity: 0.4; stroke-linecap: round"/>
     </g>
    </g>
    <g id="ytick_4">
     <g id="line2d_18">
      <path d="M 23.76 156.687408 
L 552.24 156.687408 
" clip-path="url(#pebd2b3702f)" style="fill: none; stroke: #ffffff; stroke-opacity: 0.4; stroke-linecap: round"/>
     </g>
    </g>
    <g id="ytick_5">
     <g id="line2d_19">
      <path d="M 23.76 85.915635 
L 552.24 85.915635 
" clip-path="url(#pebd2b3702f)" style="fill: none; stroke: #ffffff; stroke-opacity: 0.4; stroke-linecap: round"/>
     </g>
    </g>
   </g>
   <g id="FillBetweenPolyCollection_1">
    <defs>
     <path id="m017f2eb56f" d="M 47.781818 -62.997273 
L 47.781818 -64.106279 
L 48.722007 -64.111579 
L 49.662195 -64.119281 
L 50.602384 -64.134795 
L 51.542572 -64.156002 
L 52.482761 -64.18015 
L 53.42295 -64.207362 
L 54.363138 -64.242963 
L 55.303327 -64.287044 
L 56.243515 -64.334434 
L 57.183704 -64.390478 
L 58.123893 -64.449874 
L 59.064081 -64.50775 
L 60.00427 -64.58251 
L 60.944458 -64.665622 
L 61.884647 -64.749287 
L 62.824835 -64.840772 
L 63.765024 -64.931354 
L 64.705213 -65.02804 
L 65.645401 -65.13022 
L 66.58559 -65.232037 
L 67.525778 -65.338191 
L 68.465967 -65.442819 
L 69.406155 -65.550661 
L 70.346344 -65.655934 
L 71.286533 -65.763493 
L 72.226721 -65.873718 
L 73.16691 -65.981235 
L 74.107098 -66.085342 
L 75.047287 -66.188294 
L 75.987476 -66.296097 
L 76.927664 -66.3984 
L 77.867853 -66.500053 
L 78.808041 -66.613284 
L 79.74823 -66.72954 
L 80.688418 -66.837742 
L 81.628607 -66.950713 
L 82.568796 -67.075696 
L 83.508984 -67.194637 
L 84.449173 -67.321056 
L 85.389361 -67.447833 
L 86.32955 -67.588314 
L 87.269738 -67.732462 
L 88.209927 -67.892152 
L 89.150116 -68.06126 
L 90.090304 -68.240745 
L 91.030493 -68.428607 
L 91.970681 -68.619072 
L 92.91087 -68.822659 
L 93.851059 -69.049634 
L 94.791247 -69.285776 
L 95.731436 -69.530716 
L 96.671624 -69.798838 
L 97.611813 -70.084192 
L 98.552001 -70.390909 
L 99.49219 -70.714924 
L 100.432379 -71.059749 
L 101.372567 -71.426527 
L 102.312756 -71.813355 
L 103.252944 -72.220456 
L 104.193133 -72.653798 
L 105.133321 -73.120661 
L 106.07351 -73.606547 
L 107.013699 -74.11284 
L 107.953887 -74.63808 
L 108.894076 -75.204307 
L 109.834264 -75.79367 
L 110.774453 -76.398 
L 111.714642 -77.034459 
L 112.65483 -77.70198 
L 113.595019 -78.386636 
L 114.535207 -79.09476 
L 115.475396 -79.819552 
L 116.415584 -80.55923 
L 117.355773 -81.314031 
L 118.295962 -82.093053 
L 119.23615 -82.870034 
L 120.176339 -83.660081 
L 121.116527 -84.449999 
L 122.056716 -85.251313 
L 122.996904 -86.048514 
L 123.937093 -86.840579 
L 124.877282 -87.6337 
L 125.81747 -88.432098 
L 126.757659 -89.218007 
L 127.697847 -89.988338 
L 128.638036 -90.746599 
L 129.578225 -91.509233 
L 130.518413 -92.255742 
L 131.458602 -92.993593 
L 132.39879 -93.723147 
L 133.338979 -94.437694 
L 134.279167 -95.138453 
L 135.219356 -95.831574 
L 136.159545 -96.515324 
L 137.099733 -97.208658 
L 138.039922 -97.908568 
L 138.98011 -98.591066 
L 139.920299 -99.305352 
L 140.860487 -100.02623 
L 141.800676 -100.771648 
L 142.740865 -101.527312 
L 143.681053 -102.31286 
L 144.621242 -103.121958 
L 145.56143 -103.973495 
L 146.501619 -104.879422 
L 147.441808 -105.81294 
L 148.381996 -106.796384 
L 149.322185 -107.843817 
L 150.262373 -108.951853 
L 151.202562 -110.128325 
L 152.14275 -111.34691 
L 153.082939 -112.626225 
L 154.023128 -113.971163 
L 154.963316 -115.385503 
L 155.903505 -116.857424 
L 156.843693 -118.397506 
L 157.783882 -119.973524 
L 158.72407 -121.603346 
L 159.664259 -123.298303 
L 160.604448 -124.995972 
L 161.544636 -126.735644 
L 162.484825 -128.491195 
L 163.425013 -130.252672 
L 164.365202 -132.020946 
L 165.30539 -133.803703 
L 166.245579 -135.575972 
L 167.185768 -137.331207 
L 168.125956 -139.054714 
L 169.066145 -140.807324 
L 170.006333 -142.486408 
L 170.946522 -144.141697 
L 171.886711 -145.764881 
L 172.826899 -147.370384 
L 173.767088 -148.93224 
L 174.707276 -150.458265 
L 175.647465 -151.973546 
L 176.587653 -153.449595 
L 177.527842 -154.92362 
L 178.468031 -156.381882 
L 179.408219 -157.821106 
L 180.348408 -159.303926 
L 181.288596 -160.810681 
L 182.228785 -162.34383 
L 183.168973 -163.903257 
L 184.109162 -165.52975 
L 185.049351 -167.198378 
L 185.989539 -168.919271 
L 186.929728 -170.724793 
L 187.869916 -172.606803 
L 188.810105 -174.595013 
L 189.750294 -176.660703 
L 190.690482 -178.830901 
L 191.630671 -181.083321 
L 192.570859 -183.480478 
L 193.511048 -185.966641 
L 194.451236 -188.567528 
L 195.391425 -191.2707 
L 196.331614 -194.094198 
L 197.271802 -197.036353 
L 198.211991 -200.06208 
L 199.152179 -203.209251 
L 200.092368 -206.459779 
L 201.032556 -209.775519 
L 201.972745 -213.168496 
L 202.912934 -216.60896 
L 203.853122 -220.130513 
L 204.793311 -223.723084 
L 205.733499 -227.3204 
L 206.673688 -230.942071 
L 207.613877 -234.600026 
L 208.554065 -238.26194 
L 209.494254 -241.90832 
L 210.434442 -245.51257 
L 211.374631 -249.058233 
L 212.314819 -252.574593 
L 213.255008 -255.984858 
L 214.195197 -259.330918 
L 215.135385 -262.556916 
L 216.075574 -265.742375 
L 217.015762 -268.794251 
L 217.955951 -271.689658 
L 218.896139 -274.483697 
L 219.836328 -277.144832 
L 220.776517 -279.693516 
L 221.716705 -282.103581 
L 222.656894 -284.371707 
L 223.597082 -286.492364 
L 224.537271 -288.516754 
L 225.47746 -290.423969 
L 226.417648 -292.220471 
L 227.357837 -293.912625 
L 228.298025 -295.51134 
L 229.238214 -297.021506 
L 230.178402 -298.481615 
L 231.118591 -299.885673 
L 232.05878 -301.263358 
L 232.998968 -302.55654 
L 233.939157 -303.859489 
L 234.879345 -305.132268 
L 235.819534 -306.430943 
L 236.759722 -307.722324 
L 237.699911 -309.032946 
L 238.6401 -310.305475 
L 239.580288 -311.614608 
L 240.520477 -312.925887 
L 241.460665 -314.26964 
L 242.400854 -315.576488 
L 243.341043 -316.932934 
L 244.281231 -318.297711 
L 245.22142 -319.67589 
L 246.161608 -321.038176 
L 247.101797 -322.427485 
L 248.041985 -323.826738 
L 248.982174 -325.171733 
L 249.922363 -326.516446 
L 250.862551 -327.848791 
L 251.80274 -329.180401 
L 252.742928 -330.507452 
L 253.683117 -331.748311 
L 254.623305 -332.97456 
L 255.563494 -334.18437 
L 256.503683 -335.35547 
L 257.443871 -336.492436 
L 258.38406 -337.632249 
L 259.324248 -338.742216 
L 260.264437 -339.832501 
L 261.204626 -340.859466 
L 262.144814 -341.829253 
L 263.085003 -342.817363 
L 264.025191 -343.788215 
L 264.96538 -344.764831 
L 265.905568 -345.667168 
L 266.845757 -346.59484 
L 267.785946 -347.481573 
L 268.726134 -348.359003 
L 269.666323 -349.207302 
L 270.606511 -350.020367 
L 271.5467 -350.875071 
L 272.486888 -351.674963 
L 273.427077 -352.440677 
L 274.367266 -353.21667 
L 275.307454 -353.954861 
L 276.247643 -354.696943 
L 277.187831 -355.361841 
L 278.12802 -356.014572 
L 279.068209 -356.651734 
L 280.008397 -357.24477 
L 280.948586 -357.767667 
L 281.888774 -358.253459 
L 282.828963 -358.67721 
L 283.769151 -359.028364 
L 284.70934 -359.323631 
L 285.649529 -359.54809 
L 286.589717 -359.692736 
L 287.529906 -359.742727 
L 288.470094 -359.733288 
L 289.410283 -359.565235 
L 290.350471 -359.319099 
L 291.29066 -358.988856 
L 292.230849 -358.521694 
L 293.171037 -357.931012 
L 294.111226 -357.23854 
L 295.051414 -356.403382 
L 295.991603 -355.475916 
L 296.931791 -354.462335 
L 297.87198 -353.295473 
L 298.812169 -351.999726 
L 299.752357 -350.587391 
L 300.692546 -349.098519 
L 301.632734 -347.488966 
L 302.572923 -345.797965 
L 303.513112 -343.991001 
L 304.4533 -342.143842 
L 305.393489 -340.195936 
L 306.333677 -338.213689 
L 307.273866 -336.199508 
L 308.214054 -334.122378 
L 309.154243 -331.996141 
L 310.094432 -329.869213 
L 311.03462 -327.719466 
L 311.974809 -325.595128 
L 312.914997 -323.436431 
L 313.855186 -321.274492 
L 314.795374 -319.126941 
L 315.735563 -316.978613 
L 316.675752 -314.855667 
L 317.61594 -312.689454 
L 318.556129 -310.53892 
L 319.496317 -308.395237 
L 320.436506 -306.236664 
L 321.376695 -304.037495 
L 322.316883 -301.868034 
L 323.257072 -299.671664 
L 324.19726 -297.393924 
L 325.137449 -295.059768 
L 326.077637 -292.690124 
L 327.017826 -290.323697 
L 327.958015 -287.872168 
L 328.898203 -285.369074 
L 329.838392 -282.824889 
L 330.77858 -280.242011 
L 331.718769 -277.596987 
L 332.658957 -274.917417 
L 333.599146 -272.195637 
L 334.539335 -269.467595 
L 335.479523 -266.716852 
L 336.419712 -263.916815 
L 337.3599 -261.111325 
L 338.300089 -258.279108 
L 339.240278 -255.493013 
L 340.180466 -252.70298 
L 341.120655 -249.944077 
L 342.060843 -247.17623 
L 343.001032 -244.467413 
L 343.94122 -241.780214 
L 344.881409 -239.081391 
L 345.821598 -236.445796 
L 346.761786 -233.87277 
L 347.701975 -231.32036 
L 348.642163 -228.799656 
L 349.582352 -226.269822 
L 350.52254 -223.792908 
L 351.462729 -221.295119 
L 352.402918 -218.842363 
L 353.343106 -216.404157 
L 354.283295 -213.992161 
L 355.223483 -211.565631 
L 356.163672 -209.163654 
L 357.103861 -206.786203 
L 358.044049 -204.40392 
L 358.984238 -202.014392 
L 359.924426 -199.639644 
L 360.864615 -197.275658 
L 361.804803 -194.90537 
L 362.744992 -192.552194 
L 363.685181 -190.229858 
L 364.625369 -187.929917 
L 365.565558 -185.643174 
L 366.505746 -183.377725 
L 367.445935 -181.120377 
L 368.386123 -178.92718 
L 369.326312 -176.727119 
L 370.266501 -174.556839 
L 371.206689 -172.432683 
L 372.146878 -170.35663 
L 373.087066 -168.310012 
L 374.027255 -166.273187 
L 374.967444 -164.284812 
L 375.907632 -162.30104 
L 376.847821 -160.372942 
L 377.788009 -158.438388 
L 378.728198 -156.558829 
L 379.668386 -154.718478 
L 380.608575 -152.870697 
L 381.548764 -151.075789 
L 382.488952 -149.295412 
L 383.429141 -147.551557 
L 384.369329 -145.826981 
L 385.309518 -144.134262 
L 386.249706 -142.479274 
L 387.189895 -140.864848 
L 388.130084 -139.260045 
L 389.070272 -137.691141 
L 390.010461 -136.138481 
L 390.950649 -134.660589 
L 391.890838 -133.190323 
L 392.831027 -131.749701 
L 393.771215 -130.341528 
L 394.711404 -128.993653 
L 395.651592 -127.673333 
L 396.591781 -126.388823 
L 397.531969 -125.162707 
L 398.472158 -123.97549 
L 399.412347 -122.824445 
L 400.352535 -121.679274 
L 401.292724 -120.594372 
L 402.232912 -119.522699 
L 403.173101 -118.494837 
L 404.113289 -117.46878 
L 405.053478 -116.478504 
L 405.993667 -115.506184 
L 406.933855 -114.553425 
L 407.874044 -113.623571 
L 408.814232 -112.703088 
L 409.754421 -111.780515 
L 410.69461 -110.858141 
L 411.634798 -109.944063 
L 412.574987 -109.018385 
L 413.515175 -108.077512 
L 414.455364 -107.141902 
L 415.395552 -106.208503 
L 416.335741 -105.237263 
L 417.27593 -104.268921 
L 418.216118 -103.28568 
L 419.156307 -102.284183 
L 420.096495 -101.262559 
L 421.036684 -100.237675 
L 421.976872 -99.210452 
L 422.917061 -98.184198 
L 423.85725 -97.149885 
L 424.797438 -96.115263 
L 425.737627 -95.073578 
L 426.677815 -94.03981 
L 427.618004 -93.001707 
L 428.558192 -91.99021 
L 429.498381 -90.991198 
L 430.43857 -90.003738 
L 431.378758 -89.038185 
L 432.318947 -88.093446 
L 433.259135 -87.179517 
L 434.199324 -86.28339 
L 435.139513 -85.419781 
L 436.079701 -84.590667 
L 437.01989 -83.776898 
L 437.960078 -82.99637 
L 438.900267 -82.242355 
L 439.840455 -81.527662 
L 440.780644 -80.847203 
L 441.720833 -80.183065 
L 442.661021 -79.55684 
L 443.60121 -78.953879 
L 444.541398 -78.375795 
L 445.481587 -77.835662 
L 446.421775 -77.317324 
L 447.361964 -76.812449 
L 448.302153 -76.321195 
L 449.242341 -75.866787 
L 450.18253 -75.41519 
L 451.122718 -74.988899 
L 452.062907 -74.565169 
L 453.003096 -74.147177 
L 453.943284 -73.761345 
L 454.883473 -73.371129 
L 455.823661 -72.999004 
L 456.76385 -72.625964 
L 457.704038 -72.264883 
L 458.644227 -71.911715 
L 459.584416 -71.556325 
L 460.524604 -71.209749 
L 461.464793 -70.873672 
L 462.404981 -70.549558 
L 463.34517 -70.22463 
L 464.285358 -69.897913 
L 465.225547 -69.578802 
L 466.165736 -69.274817 
L 467.105924 -68.977893 
L 468.046113 -68.686642 
L 468.986301 -68.397834 
L 469.92649 -68.125589 
L 470.866679 -67.866934 
L 471.806867 -67.619659 
L 472.747056 -67.382127 
L 473.687244 -67.164878 
L 474.627433 -66.952625 
L 475.567621 -66.759304 
L 476.50781 -66.581607 
L 477.447999 -66.416843 
L 478.388187 -66.260432 
L 479.328376 -66.122738 
L 480.268564 -65.995821 
L 481.208753 -65.88216 
L 482.148941 -65.783437 
L 483.08913 -65.695997 
L 484.029319 -65.609011 
L 484.969507 -65.537778 
L 485.909696 -65.4751 
L 486.849884 -65.422109 
L 487.790073 -65.374691 
L 488.730262 -65.334079 
L 489.67045 -65.296293 
L 490.610639 -65.258036 
L 491.550827 -65.223633 
L 492.491016 -65.187588 
L 493.431204 -65.155113 
L 494.371393 -65.119708 
L 495.311582 -65.080916 
L 496.25177 -65.04366 
L 497.191959 -65.004813 
L 498.132147 -64.966751 
L 499.072336 -64.924415 
L 500.012524 -64.881075 
L 500.952713 -64.839444 
L 501.892902 -64.797086 
L 502.83309 -64.75226 
L 503.773279 -64.711461 
L 504.713467 -64.672323 
L 505.653656 -64.637823 
L 506.593845 -64.60098 
L 507.534033 -64.567533 
L 508.474222 -64.540143 
L 509.41441 -64.516168 
L 510.354599 -64.49586 
L 511.294787 -64.479359 
L 512.234976 -64.464339 
L 513.175165 -64.455944 
L 514.115353 -64.451007 
L 515.055542 -64.449281 
L 515.99573 -64.448095 
L 516.935919 -64.452287 
L 517.876107 -64.458434 
L 518.816296 -64.466088 
L 519.756485 -64.474778 
L 520.696673 -64.484022 
L 521.636862 -64.493338 
L 522.57705 -64.502258 
L 523.517239 -64.513339 
L 524.457428 -64.520961 
L 525.397616 -64.530118 
L 526.337805 -64.53529 
L 527.277993 -64.539234 
L 528.218182 -64.541772 
L 528.218182 -62.997273 
L 528.218182 -62.997273 
L 527.277993 -62.997273 
L 526.337805 -62.997273 
L 525.397616 -62.997273 
L 524.457428 -62.997273 
L 523.517239 -62.997273 
L 522.57705 -62.997273 
L 521.636862 -62.997273 
L 520.696673 -62.997273 
L 519.756485 -62.997273 
L 518.816296 -62.997273 
L 517.876107 -62.997273 
L 516.935919 -62.997273 
L 515.99573 -62.997273 
L 515.055542 -62.997273 
L 514.115353 -62.997273 
L 513.175165 -62.997273 
L 512.234976 -62.997273 
L 511.294787 -62.997273 
L 510.354599 -62.997273 
L 509.41441 -62.997273 
L 508.474222 -62.997273 
L 507.534033 -62.997273 
L 506.593845 -62.997273 
L 505.653656 -62.997273 
L 504.713467 -62.997273 
L 503.773279 -62.997273 
L 502.83309 -62.997273 
L 501.892902 -62.997273 
L 500.952713 -62.997273 
L 500.012524 -62.997273 
L 499.072336 -62.997273 
L 498.132147 -62.997273 
L 497.191959 -62.997273 
L 496.25177 -62.997273 
L 495.311582 -62.997273 
L 494.371393 -62.997273 
L 493.431204 -62.997273 
L 492.491016 -62.997273 
L 491.550827 -62.997273 
L 490.610639 -62.997273 
L 489.67045 -62.997273 
L 488.730262 -62.997273 
L 487.790073 -62.997273 
L 486.849884 -62.997273 
L 485.909696 -62.997273 
L 484.969507 -62.997273 
L 484.029319 -62.997273 
L 483.08913 -62.997273 
L 482.148941 -62.997273 
L 481.208753 -62.997273 
L 480.268564 -62.997273 
L 479.328376 -62.997273 
L 478.388187 -62.997273 
L 477.447999 -62.997273 
L 476.50781 -62.997273 
L 475.567621 -62.997273 
L 474.627433 -62.997273 
L 473.687244 -62.997273 
L 472.747056 -62.997273 
L 471.806867 -62.997273 
L 470.866679 -62.997273 
L 469.92649 -62.997273 
L 468.986301 -62.997273 
L 468.046113 -62.997273 
L 467.105924 -62.997273 
L 466.165736 -62.997273 
L 465.225547 -62.997273 
L 464.285358 -62.997273 
L 463.34517 -62.997273 
L 462.404981 -62.997273 
L 461.464793 -62.997273 
L 460.524604 -62.997273 
L 459.584416 -62.997273 
L 458.644227 -62.997273 
L 457.704038 -62.997273 
L 456.76385 -62.997273 
L 455.823661 -62.997273 
L 454.883473 -62.997273 
L 453.943284 -62.997273 
L 453.003096 -62.997273 
L 452.062907 -62.997273 
L 451.122718 -62.997273 
L 450.18253 -62.997273 
L 449.242341 -62.997273 
L 448.302153 -62.997273 
L 447.361964 -62.997273 
L 446.421775 -62.997273 
L 445.481587 -62.997273 
L 444.541398 -62.997273 
L 443.60121 -62.997273 
L 442.661021 -62.997273 
L 441.720833 -62.997273 
L 440.780644 -62.997273 
L 439.840455 -62.997273 
L 438.900267 -62.997273 
L 437.960078 -62.997273 
L 437.01989 -62.997273 
L 436.079701 -62.997273 
L 435.139513 -62.997273 
L 434.199324 -62.997273 
L 433.259135 -62.997273 
L 432.318947 -62.997273 
L 431.378758 -62.997273 
L 430.43857 -62.997273 
L 429.498381 -62.997273 
L 428.558192 -62.997273 
L 427.618004 -62.997273 
L 426.677815 -62.997273 
L 425.737627 -62.997273 
L 424.797438 -62.997273 
L 423.85725 -62.997273 
L 422.917061 -62.997273 
L 421.976872 -62.997273 
L 421.036684 -62.997273 
L 420.096495 -62.997273 
L 419.156307 -62.997273 
L 418.216118 -62.997273 
L 417.27593 -62.997273 
L 416.335741 -62.997273 
L 415.395552 -62.997273 
L 414.455364 -62.997273 
L 413.515175 -62.997273 
L 412.574987 -62.997273 
L 411.634798 -62.997273 
L 410.69461 -62.997273 
L 409.754421 -62.997273 
L 408.814232 -62.997273 
L 407.874044 -62.997273 
L 406.933855 -62.997273 
L 405.993667 -62.997273 
L 405.053478 -62.997273 
L 404.113289 -62.997273 
L 403.173101 -62.997273 
L 402.232912 -62.997273 
L 401.292724 -62.997273 
L 400.352535 -62.997273 
L 399.412347 -62.997273 
L 398.472158 -62.997273 
L 397.531969 -62.997273 
L 396.591781 -62.997273 
L 395.651592 -62.997273 
L 394.711404 -62.997273 
L 393.771215 -62.997273 
L 392.831027 -62.997273 
L 391.890838 -62.997273 
L 390.950649 -62.997273 
L 390.010461 -62.997273 
L 389.070272 -62.997273 
L 388.130084 -62.997273 
L 387.189895 -62.997273 
L 386.249706 -62.997273 
L 385.309518 -62.997273 
L 384.369329 -62.997273 
L 383.429141 -62.997273 
L 382.488952 -62.997273 
L 381.548764 -62.997273 
L 380.608575 -62.997273 
L 379.668386 -62.997273 
L 378.728198 -62.997273 
L 377.788009 -62.997273 
L 376.847821 -62.997273 
L 375.907632 -62.997273 
L 374.967444 -62.997273 
L 374.027255 -62.997273 
L 373.087066 -62.997273 
L 372.146878 -62.997273 
L 371.206689 -62.997273 
L 370.266501 -62.997273 
L 369.326312 -62.997273 
L 368.386123 -62.997273 
L 367.445935 -62.997273 
L 366.505746 -62.997273 
L 365.565558 -62.997273 
L 364.625369 -62.997273 
L 363.685181 -62.997273 
L 362.744992 -62.997273 
L 361.804803 -62.997273 
L 360.864615 -62.997273 
L 359.924426 -62.997273 
L 358.984238 -62.997273 
L 358.044049 -62.997273 
L 357.103861 -62.997273 
L 356.163672 -62.997273 
L 355.223483 -62.997273 
L 354.283295 -62.997273 
L 353.343106 -62.997273 
L 352.402918 -62.997273 
L 351.462729 -62.997273 
L 350.52254 -62.997273 
L 349.582352 -62.997273 
L 348.642163 -62.997273 
L 347.701975 -62.997273 
L 346.761786 -62.997273 
L 345.821598 -62.997273 
L 344.881409 -62.997273 
L 343.94122 -62.997273 
L 343.001032 -62.997273 
L 342.060843 -62.997273 
L 341.120655 -62.997273 
L 340.180466 -62.997273 
L 339.240278 -62.997273 
L 338.300089 -62.997273 
L 337.3599 -62.997273 
L 336.419712 -62.997273 
L 335.479523 -62.997273 
L 334.539335 -62.997273 
L 333.599146 -62.997273 
L 332.658957 -62.997273 
L 331.718769 -62.997273 
L 330.77858 -62.997273 
L 329.838392 -62.997273 
L 328.898203 -62.997273 
L 327.958015 -62.997273 
L 327.017826 -62.997273 
L 326.077637 -62.997273 
L 325.137449 -62.997273 
L 324.19726 -62.997273 
L 323.257072 -62.997273 
L 322.316883 -62.997273 
L 321.376695 -62.997273 
L 320.436506 -62.997273 
L 319.496317 -62.997273 
L 318.556129 -62.997273 
L 317.61594 -62.997273 
L 316.675752 -62.997273 
L 315.735563 -62.997273 
L 314.795374 -62.997273 
L 313.855186 -62.997273 
L 312.914997 -62.997273 
L 311.974809 -62.997273 
L 311.03462 -62.997273 
L 310.094432 -62.997273 
L 309.154243 -62.997273 
L 308.214054 -62.997273 
L 307.273866 -62.997273 
L 306.333677 -62.997273 
L 305.393489 -62.997273 
L 304.4533 -62.997273 
L 303.513112 -62.997273 
L 302.572923 -62.997273 
L 301.632734 -62.997273 
L 300.692546 -62.997273 
L 299.752357 -62.997273 
L 298.812169 -62.997273 
L 297.87198 -62.997273 
L 296.931791 -62.997273 
L 295.991603 -62.997273 
L 295.051414 -62.997273 
L 294.111226 -62.997273 
L 293.171037 -62.997273 
L 292.230849 -62.997273 
L 291.29066 -62.997273 
L 290.350471 -62.997273 
L 289.410283 -62.997273 
L 288.470094 -62.997273 
L 287.529906 -62.997273 
L 286.589717 -62.997273 
L 285.649529 -62.997273 
L 284.70934 -62.997273 
L 283.769151 -62.997273 
L 282.828963 -62.997273 
L 281.888774 -62.997273 
L 280.948586 -62.997273 
L 280.008397 -62.997273 
L 279.068209 -62.997273 
L 278.12802 -62.997273 
L 277.187831 -62.997273 
L 276.247643 -62.997273 
L 275.307454 -62.997273 
L 274.367266 -62.997273 
L 273.427077 -62.997273 
L 272.486888 -62.997273 
L 271.5467 -62.997273 
L 270.606511 -62.997273 
L 269.666323 -62.997273 
L 268.726134 -62.997273 
L 267.785946 -62.997273 
L 266.845757 -62.997273 
L 265.905568 -62.997273 
L 264.96538 -62.997273 
L 264.025191 -62.997273 
L 263.085003 -62.997273 
L 262.144814 -62.997273 
L 261.204626 -62.997273 
L 260.264437 -62.997273 
L 259.324248 -62.997273 
L 258.38406 -62.997273 
L 257.443871 -62.997273 
L 256.503683 -62.997273 
L 255.563494 -62.997273 
L 254.623305 -62.997273 
L 253.683117 -62.997273 
L 252.742928 -62.997273 
L 251.80274 -62.997273 
L 250.862551 -62.997273 
L 249.922363 -62.997273 
L 248.982174 -62.997273 
L 248.041985 -62.997273 
L 247.101797 -62.997273 
L 246.161608 -62.997273 
L 245.22142 -62.997273 
L 244.281231 -62.997273 
L 243.341043 -62.997273 
L 242.400854 -62.997273 
L 241.460665 -62.997273 
L 240.520477 -62.997273 
L 239.580288 -62.997273 
L 238.6401 -62.997273 
L 237.699911 -62.997273 
L 236.759722 -62.997273 
L 235.819534 -62.997273 
L 234.879345 -62.997273 
L 233.939157 -62.997273 
L 232.998968 -62.997273 
L 232.05878 -62.997273 
L 231.118591 -62.997273 
L 230.178402 -62.997273 
L 229.238214 -62.997273 
L 228.298025 -62.997273 
L 227.357837 -62.997273 
L 226.417648 -62.997273 
L 225.47746 -62.997273 
L 224.537271 -62.997273 
L 223.597082 -62.997273 
L 222.656894 -62.997273 
L 221.716705 -62.997273 
L 220.776517 -62.997273 
L 219.836328 -62.997273 
L 218.896139 -62.997273 
L 217.955951 -62.997273 
L 217.015762 -62.997273 
L 216.075574 -62.997273 
L 215.135385 -62.997273 
L 214.195197 -62.997273 
L 213.255008 -62.997273 
L 212.314819 -62.997273 
L 211.374631 -62.997273 
L 210.434442 -62.997273 
L 209.494254 -62.997273 
L 208.554065 -62.997273 
L 207.613877 -62.997273 
L 206.673688 -62.997273 
L 205.733499 -62.997273 
L 204.793311 -62.997273 
L 203.853122 -62.997273 
L 202.912934 -62.997273 
L 201.972745 -62.997273 
L 201.032556 -62.997273 
L 200.092368 -62.997273 
L 199.152179 -62.997273 
L 198.211991 -62.997273 
L 197.271802 -62.997273 
L 196.331614 -62.997273 
L 195.391425 -62.997273 
L 194.451236 -62.997273 
L 193.511048 -62.997273 
L 192.570859 -62.997273 
L 191.630671 -62.997273 
L 190.690482 -62.997273 
L 189.750294 -62.997273 
L 188.810105 -62.997273 
L 187.869916 -62.997273 
L 186.929728 -62.997273 
L 185.989539 -62.997273 
L 185.049351 -62.997273 
L 184.109162 -62.997273 
L 183.168973 -62.997273 
L 182.228785 -62.997273 
L 181.288596 -62.997273 
L 180.348408 -62.997273 
L 179.408219 -62.997273 
L 178.468031 -62.997273 
L 177.527842 -62.997273 
L 176.587653 -62.997273 
L 175.647465 -62.997273 
L 174.707276 -62.997273 
L 173.767088 -62.997273 
L 172.826899 -62.997273 
L 171.886711 -62.997273 
L 170.946522 -62.997273 
L 170.006333 -62.997273 
L 169.066145 -62.997273 
L 168.125956 -62.997273 
L 167.185768 -62.997273 
L 166.245579 -62.997273 
L 165.30539 -62.997273 
L 164.365202 -62.997273 
L 163.425013 -62.997273 
L 162.484825 -62.997273 
L 161.544636 -62.997273 
L 160.604448 -62.997273 
L 159.664259 -62.997273 
L 158.72407 -62.997273 
L 157.783882 -62.997273 
L 156.843693 -62.997273 
L 155.903505 -62.997273 
L 154.963316 -62.997273 
L 154.023128 -62.997273 
L 153.082939 -62.997273 
L 152.14275 -62.997273 
L 151.202562 -62.997273 
L 150.262373 -62.997273 
L 149.322185 -62.997273 
L 148.381996 -62.997273 
L 147.441808 -62.997273 
L 146.501619 -62.997273 
L 145.56143 -62.997273 
L 144.621242 -62.997273 
L 143.681053 -62.997273 
L 142.740865 -62.997273 
L 141.800676 -62.997273 
L 140.860487 -62.997273 
L 139.920299 -62.997273 
L 138.98011 -62.997273 
L 138.039922 -62.997273 
L 137.099733 -62.997273 
L 136.159545 -62.997273 
L 135.219356 -62.997273 
L 134.279167 -62.997273 
L 133.338979 -62.997273 
L 132.39879 -62.997273 
L 131.458602 -62.997273 
L 130.518413 -62.997273 
L 129.578225 -62.997273 
L 128.638036 -62.997273 
L 127.697847 -62.997273 
L 126.757659 -62.997273 
L 125.81747 -62.997273 
L 124.877282 -62.997273 
L 123.937093 -62.997273 
L 122.996904 -62.997273 
L 122.056716 -62.997273 
L 121.116527 -62.997273 
L 120.176339 -62.997273 
L 119.23615 -62.997273 
L 118.295962 -62.997273 
L 117.355773 -62.997273 
L 116.415584 -62.997273 
L 115.475396 -62.997273 
L 114.535207 -62.997273 
L 113.595019 -62.997273 
L 112.65483 -62.997273 
L 111.714642 -62.997273 
L 110.774453 -62.997273 
L 109.834264 -62.997273 
L 108.894076 -62.997273 
L 107.953887 -62.997273 
L 107.013699 -62.997273 
L 106.07351 -62.997273 
L 105.133321 -62.997273 
L 104.193133 -62.997273 
L 103.252944 -62.997273 
L 102.312756 -62.997273 
L 101.372567 -62.997273 
L 100.432379 -62.997273 
L 99.49219 -62.997273 
L 98.552001 -62.997273 
L 97.611813 -62.997273 
L 96.671624 -62.997273 
L 95.731436 -62.997273 
L 94.791247 -62.997273 
L 93.851059 -62.997273 
L 92.91087 -62.997273 
L 91.970681 -62.997273 
L 91.030493 -62.997273 
L 90.090304 -62.997273 
L 89.150116 -62.997273 
L 88.209927 -62.997273 
L 87.269738 -62.997273 
L 86.32955 -62.997273 
L 85.389361 -62.997273 
L 84.449173 -62.997273 
L 83.508984 -62.997273 
L 82.568796 -62.997273 
L 81.628607 -62.997273 
L 80.688418 -62.997273 
L 79.74823 -62.997273 
L 78.808041 -62.997273 
L 77.867853 -62.997273 
L 76.927664 -62.997273 
L 75.987476 -62.997273 
L 75.047287 -62.997273 
L 74.107098 -62.997273 
L 73.16691 -62.997273 
L 72.226721 -62.997273 
L 71.286533 -62.997273 
L 70.346344 -62.997273 
L 69.406155 -62.997273 
L 68.465967 -62.997273 
L 67.525778 -62.997273 
L 66.58559 -62.997273 
L 65.645401 -62.997273 
L 64.705213 -62.997273 
L 63.765024 -62.997273 
L 62.824835 -62.997273 
L 61.884647 -62.997273 
L 60.944458 -62.997273 
L 60.00427 -62.997273 
L 59.064081 -62.997273 
L 58.123893 -62.997273 
L 57.183704 -62.997273 
L 56.243515 -62.997273 
L 55.303327 -62.997273 
L 54.363138 -62.997273 
L 53.42295 -62.997273 
L 52.482761 -62.997273 
L 51.542572 -62.997273 
L 50.602384 -62.997273 
L 49.662195 -62.997273 
L 48.722007 -62.997273 
L 47.781818 -62.997273 
z
"/>
    </defs>
    <g clip-path="url(#pebd2b3702f)">
     <use xlink:href="#m017f2eb56f" x="0" y="432" style="fill: #51d7c1; fill-opacity: 0.6"/>
    </g>
   </g>
   <g id="line2d_20">
    <path d="M 47.781818 367.893721 
L 54.363138 367.757037 
L 60.00427 367.41749 
L 67.525778 366.661809 
L 84.449173 364.678944 
L 89.150116 363.93874 
L 93.851059 362.950366 
L 97.611813 361.915808 
L 101.372567 360.573473 
L 104.193133 359.346202 
L 107.953887 357.36192 
L 110.774453 355.602 
L 113.595019 353.613364 
L 117.355773 350.685969 
L 133.338979 337.562306 
L 142.740865 330.472688 
L 145.56143 328.026505 
L 148.381996 325.203616 
L 150.262373 323.048147 
L 153.082939 319.373775 
L 154.963316 316.614497 
L 157.783882 312.026476 
L 160.604448 307.004028 
L 171.886711 286.235119 
L 175.647465 280.026454 
L 183.168973 268.096743 
L 185.989539 263.080729 
L 187.869916 259.393197 
L 190.690482 253.169099 
L 192.570859 248.519522 
L 194.451236 243.432472 
L 196.331614 237.905802 
L 199.152179 228.790749 
L 202.912934 215.39104 
L 207.613877 197.399974 
L 212.314819 179.425407 
L 215.135385 169.443084 
L 217.015762 163.205749 
L 219.836328 154.855168 
L 221.716705 149.896419 
L 223.597082 145.507636 
L 225.47746 141.576031 
L 227.357837 138.087375 
L 229.238214 134.978494 
L 232.05878 130.736642 
L 243.341043 115.067066 
L 252.742928 101.492548 
L 256.503683 96.64453 
L 260.264437 92.167499 
L 264.025191 88.211785 
L 266.845757 85.40516 
L 270.606511 81.979633 
L 273.427077 79.559323 
L 276.247643 77.303057 
L 280.008397 74.75523 
L 281.888774 73.746541 
L 283.769151 72.971636 
L 285.649529 72.45191 
L 287.529906 72.257273 
L 288.470094 72.266712 
L 290.350471 72.680901 
L 291.29066 73.011144 
L 293.171037 74.068988 
L 294.111226 74.76146 
L 295.991603 76.524084 
L 297.87198 78.704527 
L 299.752357 81.412609 
L 301.632734 84.511034 
L 303.513112 88.008999 
L 306.333677 93.786311 
L 309.154243 100.003859 
L 320.436506 125.763336 
L 325.137449 136.940232 
L 328.898203 146.630926 
L 332.658957 157.082583 
L 338.300089 173.720892 
L 344.881409 192.918609 
L 348.642163 203.200344 
L 353.343106 215.595843 
L 362.744992 239.447806 
L 367.445935 250.879623 
L 372.146878 261.64337 
L 376.847821 271.627058 
L 380.608575 279.129303 
L 385.309518 287.865738 
L 389.070272 294.308859 
L 391.890838 298.809677 
L 394.711404 303.006347 
L 397.531969 306.837293 
L 400.352535 310.320726 
L 404.113289 314.53122 
L 407.874044 318.376429 
L 417.27593 327.731079 
L 421.976872 332.789548 
L 431.378758 342.961815 
L 434.199324 345.71661 
L 437.01989 348.223102 
L 439.840455 350.472338 
L 442.661021 352.44316 
L 445.481587 354.164338 
L 449.242341 356.133213 
L 453.003096 357.852823 
L 459.584416 360.443675 
L 465.225547 362.421198 
L 470.866679 364.133066 
L 474.627433 365.047375 
L 478.388187 365.739568 
L 482.148941 366.216563 
L 486.849884 366.577891 
L 497.191959 366.995187 
L 513.175165 367.544056 
L 522.57705 367.497742 
L 528.218182 367.458228 
L 528.218182 367.458228 
" clip-path="url(#pebd2b3702f)" style="fill: none; stroke: #51d7c1; stroke-width: 1.5; stroke-linecap: round"/>
   </g>
   <g id="line2d_21">
    <path d="M 165.456871 362.771073 
L 384.771934 362.771073 
" clip-path="url(#pebd2b3702f)" style="fill: none; stroke: #51d7c1; stroke-width: 3.5; stroke-linecap: round"/>
   </g>
   <g id="patch_3">
    <path d="M 23.76 383.84 
L 552.24 383.84 
" style="fill: none; stroke: #333333; stroke-width: 1.5; stroke-linejoin: miter; stroke-linecap: square"/>
   </g>
   <g id="text_8">
    <!-- $x_1^2x_3$ -->
    <g style="fill: #262626" transform="translate(257.48 49.58)">
     <text>
      <tspan x="0" y="-0.734375" style="font-style: oblique; font-size: 28px; font-family: 'DejaVu Sans'; fill: #262626">x</tspan>
      <tspan x="31.056576" y="-0.734375" style="font-style: oblique; font-size: 28px; font-family: 'DejaVu Sans'; fill: #262626">x</tspan>
      <tspan x="16.570312" y="6.921875" style="font-size: 19.6px; font-family: 'DejaVu Sans'; fill: #262626">1</tspan>
      <tspan x="17.820833" y="-11.453125" style="font-size: 19.6px; font-family: 'DejaVu Sans'; fill: #262626">2</tspan>
      <tspan x="47.626888" y="3.859375" style="font-size: 19.6px; font-family: 'DejaVu Sans'; fill: #262626">3</tspan>
     </text>
    </g>
   </g>
  </g>
 </g>
 <defs>
  <clipPath id="pebd2b3702f">
   <rect x="23.76" y="57.42" width="528.48" height="326.42"/>
  </clipPath>
 </defs>
</svg>
