<?xml version="1.0" encoding="utf-8" standalone="no"?>
<!DOCTYPE svg PUBLIC "-//W3C//DTD SVG 1.1//EN"
  "http://www.w3.org/Graphics/SVG/1.1/DTD/svg11.dtd">
<svg xmlns:xlink="http://www.w3.org/1999/xlink" width="576pt" height="432pt" viewBox="0 0 576 432" xmlns="http://www.w3.org/2000/svg" version="1.1">
 <metadata>
  <rdf:RDF xmlns:dc="http://purl.org/dc/elements/1.1/" xmlns:cc="http://creativecommons.org/ns#" xmlns:rdf="http://www.w3.org/1999/02/22-rdf-syntax-ns#">
   <cc:Work>
    <dc:type rdf:resource="http://purl.org/dc/dcmitype/StillImage"/>
    <dc:date>2025-09-23T14:40:25.109147</dc:date>
    <dc:format>image/svg+xml</dc:format>
    <dc:creator>
     <cc:Agent>
      <dc:title>Matplotlib v3.10.0, https://matplotlib.org/</dc:title>
     </cc:Agent>
    </dc:creator>
   </cc:Work>
  </rdf:RDF>
 </metadata>
 <defs>
  <style type="text/css">*{stroke-linejoin: round; stroke-linecap: butt}</style>
 </defs>
 <g id="figure_1">
  <g id="patch_1">
   <path d="M 0 432 
L 576 432 
L 576 0 
L 0 0 
L 0 432 
z
" style="fill: none; opacity: 0"/>
  </g>
  <g id="axes_1">
   <g id="patch_2">
    <path d="M 23.76 383.84 
L 552.24 383.84 
L 552.24 57.42 
L 23.76 57.42 
L 23.76 383.84 
z
" style="fill: none"/>
   </g>
   <g id="matplotlib.axis_1">
    <g id="xtick_1">
     <g id="line2d_1">
      <path d="M 92.141033 383.84 
L 92.141033 57.42 
" clip-path="url(#p79977c3dd0)" style="fill: none; stroke: #ffffff; stroke-opacity: 0.4; stroke-linecap: round"/>
     </g>
     <g id="line2d_2"/>
     <g id="text_1">
      <text style="font-size: 18px; font-family: 'DejaVu Serif', 'Times New Roman', serif; text-anchor: middle; fill: #262626" x="92.141033" y="404.517187" transform="rotate(-0 92.141033 404.517187)">−30</text>
     </g>
    </g>
    <g id="xtick_2">
     <g id="line2d_3">
      <path d="M 162.471693 383.84 
L 162.471693 57.42 
" clip-path="url(#p79977c3dd0)" style="fill: none; stroke: #ffffff; stroke-opacity: 0.4; stroke-linecap: round"/>
     </g>
     <g id="line2d_4"/>
     <g id="text_2">
      <text style="font-size: 18px; font-family: 'DejaVu Serif', 'Times New Roman', serif; text-anchor: middle; fill: #262626" x="162.471693" y="404.517187" transform="rotate(-0 162.471693 404.517187)">−20</text>
     </g>
    </g>
    <g id="xtick_3">
     <g id="line2d_5">
      <path d="M 232.802353 383.84 
L 232.802353 57.42 
" clip-path="url(#p79977c3dd0)" style="fill: none; stroke: #ffffff; stroke-opacity: 0.4; stroke-linecap: round"/>
     </g>
     <g id="line2d_6"/>
     <g id="text_3">
      <text style="font-size: 18px; font-family: 'DejaVu Serif', 'Times New Roman', serif; text-anchor: middle; fill: #262626" x="232.802353" y="404.517187" transform="rotate(-0 232.802353 404.517187)">−10</text>
     </g>
    </g>
    <g id="xtick_4">
     <g id="line2d_7">
      <path d="M 303.133013 383.84 
L 303.133013 57.42 
" clip-path="url(#p79977c3dd0)" style="fill: none; stroke: #ffffff; stroke-opacity: 0.4; stroke-linecap: round"/>
     </g>
     <g id="line2d_8"/>
     <g id="text_4">
      <text style="font-size: 18px; font-family: 'DejaVu Serif', 'Times New Roman', serif; text-anchor: middle; fill: #262626" x="303.133013" y="404.517187" transform="rotate(-0 303.133013 404.517187)">0</text>
     </g>
    </g>
    <g id="xtick_5">
     <g id="line2d_9">
      <path d="M 373.463673 383.84 
L 373.463673 57.42 
" clip-path="url(#p79977c3dd0)" style="fill: none; stroke: #ffffff; stroke-opacity: 0.4; stroke-linecap: round"/>
     </g>
     <g id="line2d_10"/>
     <g id="text_5">
      <text style="font-size: 18px; font-family: 'DejaVu Serif', 'Times New Roman', serif; text-anchor: middle; fill: #262626" x="373.463673" y="404.517187" transform="rotate(-0 373.463673 404.517187)">10</text>
     </g>
    </g>
    <g id="xtick_6">
     <g id="line2d_11">
      <path d="M 443.794333 383.84 
L 443.794333 57.42 
" clip-path="url(#p79977c3dd0)" style="fill: none; stroke: #ffffff; stroke-opacity: 0.4; stroke-linecap: round"/>
     </g>
     <g id="line2d_12"/>
     <g id="text_6">
      <text style="font-size: 18px; font-family: 'DejaVu Serif', 'Times New Roman', serif; text-anchor: middle; fill: #262626" x="443.794333" y="404.517187" transform="rotate(-0 443.794333 404.517187)">20</text>
     </g>
    </g>
    <g id="xtick_7">
     <g id="line2d_13">
      <path d="M 514.124994 383.84 
L 514.124994 57.42 
" clip-path="url(#p79977c3dd0)" style="fill: none; stroke: #ffffff; stroke-opacity: 0.4; stroke-linecap: round"/>
     </g>
     <g id="line2d_14"/>
     <g id="text_7">
      <text style="font-size: 18px; font-family: 'DejaVu Serif', 'Times New Roman', serif; text-anchor: middle; fill: #262626" x="514.124994" y="404.517187" transform="rotate(-0 514.124994 404.517187)">30</text>
     </g>
    </g>
   </g>
   <g id="matplotlib.axis_2">
    <g id="ytick_1">
     <g id="line2d_15">
      <path d="M 23.76 369.002727 
L 552.24 369.002727 
" clip-path="url(#p79977c3dd0)" style="fill: none; stroke: #ffffff; stroke-opacity: 0.4; stroke-linecap: round"/>
     </g>
    </g>
    <g id="ytick_2">
     <g id="line2d_16">
      <path d="M 23.76 300.71103 
L 552.24 300.71103 
" clip-path="url(#p79977c3dd0)" style="fill: none; stroke: #ffffff; stroke-opacity: 0.4; stroke-linecap: round"/>
     </g>
    </g>
    <g id="ytick_3">
     <g id="line2d_17">
      <path d="M 23.76 232.419333 
L 552.24 232.419333 
" clip-path="url(#p79977c3dd0)" style="fill: none; stroke: #ffffff; stroke-opacity: 0.4; stroke-linecap: round"/>
     </g>
    </g>
    <g id="ytick_4">
     <g id="line2d_18">
      <path d="M 23.76 164.127636 
L 552.24 164.127636 
" clip-path="url(#p79977c3dd0)" style="fill: none; stroke: #ffffff; stroke-opacity: 0.4; stroke-linecap: round"/>
     </g>
    </g>
    <g id="ytick_5">
     <g id="line2d_19">
      <path d="M 23.76 95.835939 
L 552.24 95.835939 
" clip-path="url(#p79977c3dd0)" style="fill: none; stroke: #ffffff; stroke-opacity: 0.4; stroke-linecap: round"/>
     </g>
    </g>
   </g>
   <g id="FillBetweenPolyCollection_1">
    <defs>
     <path id="m60b02238b4" d="M 47.781818 -62.997273 
L 47.781818 -63.932484 
L 48.722007 -63.930993 
L 49.662195 -63.926537 
L 50.602384 -63.919167 
L 51.542572 -63.908964 
L 52.482761 -63.89604 
L 53.42295 -63.880531 
L 54.363138 -63.862597 
L 55.303327 -63.842413 
L 56.243515 -63.820168 
L 57.183704 -63.79606 
L 58.123893 -63.770292 
L 59.064081 -63.743068 
L 60.00427 -63.714591 
L 60.944458 -63.68506 
L 61.884647 -63.654671 
L 62.824835 -63.623612 
L 63.765024 -63.592069 
L 64.705213 -63.560218 
L 65.645401 -63.528233 
L 66.58559 -63.496281 
L 67.525778 -63.464526 
L 68.465967 -63.430818 
L 69.406155 -63.400453 
L 70.346344 -63.370628 
L 71.286533 -63.341504 
L 72.226721 -63.313229 
L 73.16691 -63.285939 
L 74.107098 -63.259756 
L 75.047287 -63.234785 
L 75.987476 -63.211117 
L 76.927664 -63.188821 
L 77.867853 -63.167952 
L 78.808041 -63.151519 
L 79.74823 -63.134424 
L 80.688418 -63.119006 
L 81.628607 -63.105284 
L 82.568796 -63.096244 
L 83.508984 -63.090421 
L 84.449173 -63.082758 
L 85.389361 -63.086112 
L 86.32955 -63.087437 
L 87.269738 -63.094552 
L 88.209927 -63.10557 
L 89.150116 -63.120963 
L 90.090304 -63.138281 
L 91.030493 -63.160249 
L 91.970681 -63.190287 
L 92.91087 -63.229697 
L 93.851059 -63.271062 
L 94.791247 -63.325524 
L 95.731436 -63.383428 
L 96.671624 -63.45596 
L 97.611813 -63.539436 
L 98.552001 -63.62885 
L 99.49219 -63.730096 
L 100.432379 -63.843733 
L 101.372567 -63.975527 
L 102.312756 -64.11858 
L 103.252944 -64.278607 
L 104.193133 -64.447815 
L 105.133321 -64.642732 
L 106.07351 -64.845689 
L 107.013699 -65.060536 
L 107.953887 -65.295095 
L 108.894076 -65.541472 
L 109.834264 -65.80433 
L 110.774453 -66.077769 
L 111.714642 -66.369139 
L 112.65483 -66.667162 
L 113.595019 -66.97237 
L 114.535207 -67.291655 
L 115.475396 -67.622241 
L 116.415584 -67.954875 
L 117.355773 -68.292877 
L 118.295962 -68.634948 
L 119.23615 -68.979807 
L 120.176339 -69.326202 
L 121.116527 -69.67292 
L 122.056716 -70.021776 
L 122.996904 -70.372498 
L 123.937093 -70.722095 
L 124.877282 -71.067029 
L 125.81747 -71.414953 
L 126.757659 -71.758105 
L 127.697847 -72.098607 
L 128.638036 -72.433426 
L 129.578225 -72.764768 
L 130.518413 -73.092624 
L 131.458602 -73.420043 
L 132.39879 -73.742064 
L 133.338979 -74.064229 
L 134.279167 -74.381752 
L 135.219356 -74.700344 
L 136.159545 -75.012405 
L 137.099733 -75.331883 
L 138.039922 -75.646835 
L 138.98011 -75.962559 
L 139.920299 -76.285714 
L 140.860487 -76.603808 
L 141.800676 -76.9303 
L 142.740865 -77.264405 
L 143.681053 -77.604803 
L 144.621242 -77.955422 
L 145.56143 -78.309077 
L 146.501619 -78.685952 
L 147.441808 -79.064026 
L 148.381996 -79.450309 
L 149.322185 -79.847595 
L 150.262373 -80.265816 
L 151.202562 -80.689836 
L 152.14275 -81.126076 
L 153.082939 -81.583488 
L 154.023128 -82.05026 
L 154.963316 -82.538348 
L 155.903505 -83.036928 
L 156.843693 -83.544807 
L 157.783882 -84.087282 
L 158.72407 -84.64856 
L 159.664259 -85.224582 
L 160.604448 -85.824087 
L 161.544636 -86.436709 
L 162.484825 -87.06996 
L 163.425013 -87.728846 
L 164.365202 -88.425937 
L 165.30539 -89.153806 
L 166.245579 -89.909193 
L 167.185768 -90.696282 
L 168.125956 -91.516864 
L 169.066145 -92.373896 
L 170.006333 -93.279345 
L 170.946522 -94.22203 
L 171.886711 -95.202418 
L 172.826899 -96.232853 
L 173.767088 -97.32228 
L 174.707276 -98.48352 
L 175.647465 -99.686908 
L 176.587653 -100.925469 
L 177.527842 -102.242315 
L 178.468031 -103.602624 
L 179.408219 -105.000904 
L 180.348408 -106.480311 
L 181.288596 -107.985225 
L 182.228785 -109.55122 
L 183.168973 -111.138652 
L 184.109162 -112.782354 
L 185.049351 -114.481041 
L 185.989539 -116.212905 
L 186.929728 -118.014145 
L 187.869916 -119.824628 
L 188.810105 -121.665515 
L 189.750294 -123.52801 
L 190.690482 -125.42552 
L 191.630671 -127.346432 
L 192.570859 -129.273691 
L 193.511048 -131.219704 
L 194.451236 -133.192942 
L 195.391425 -135.192202 
L 196.331614 -137.206211 
L 197.271802 -139.219643 
L 198.211991 -141.26679 
L 199.152179 -143.301429 
L 200.092368 -145.359859 
L 201.032556 -147.438638 
L 201.972745 -149.531189 
L 202.912934 -151.629637 
L 203.853122 -153.752692 
L 204.793311 -155.897491 
L 205.733499 -158.066035 
L 206.673688 -160.239768 
L 207.613877 -162.441517 
L 208.554065 -164.642394 
L 209.494254 -166.894135 
L 210.434442 -169.168647 
L 211.374631 -171.432484 
L 212.314819 -173.708678 
L 213.255008 -176.012287 
L 214.195197 -178.335778 
L 215.135385 -180.652766 
L 216.075574 -183.006808 
L 217.015762 -185.372398 
L 217.955951 -187.758497 
L 218.896139 -190.172138 
L 219.836328 -192.576825 
L 220.776517 -194.994969 
L 221.716705 -197.423518 
L 222.656894 -199.840551 
L 223.597082 -202.310846 
L 224.537271 -204.774493 
L 225.47746 -207.236596 
L 226.417648 -209.709676 
L 227.357837 -212.183993 
L 228.298025 -214.657369 
L 229.238214 -217.142892 
L 230.178402 -219.64549 
L 231.118591 -222.127355 
L 232.05878 -224.629763 
L 232.998968 -227.130653 
L 233.939157 -229.637431 
L 234.879345 -232.167486 
L 235.819534 -234.662896 
L 236.759722 -237.158679 
L 237.699911 -239.63118 
L 238.6401 -242.145473 
L 239.580288 -244.640946 
L 240.520477 -247.154523 
L 241.460665 -249.656493 
L 242.400854 -252.129541 
L 243.341043 -254.62932 
L 244.281231 -257.115426 
L 245.22142 -259.566339 
L 246.161608 -262.02747 
L 247.101797 -264.492479 
L 248.041985 -266.963849 
L 248.982174 -269.392813 
L 249.922363 -271.851759 
L 250.862551 -274.269962 
L 251.80274 -276.710673 
L 252.742928 -279.163736 
L 253.683117 -281.573137 
L 254.623305 -283.952528 
L 255.563494 -286.302481 
L 256.503683 -288.626683 
L 257.443871 -290.94704 
L 258.38406 -293.248772 
L 259.324248 -295.538899 
L 260.264437 -297.790169 
L 261.204626 -300.011076 
L 262.144814 -302.154102 
L 263.085003 -304.267508 
L 264.025191 -306.318822 
L 264.96538 -308.320444 
L 265.905568 -310.290938 
L 266.845757 -312.186428 
L 267.785946 -313.996474 
L 268.726134 -315.814681 
L 269.666323 -317.525018 
L 270.606511 -319.194993 
L 271.5467 -320.780789 
L 272.486888 -322.310611 
L 273.427077 -323.763553 
L 274.367266 -325.186399 
L 275.307454 -326.558161 
L 276.247643 -327.88113 
L 277.187831 -329.199721 
L 278.12802 -330.469305 
L 279.068209 -331.715494 
L 280.008397 -332.937085 
L 280.948586 -334.127166 
L 281.888774 -335.347728 
L 282.828963 -336.586773 
L 283.769151 -337.831375 
L 284.70934 -339.102755 
L 285.649529 -340.381296 
L 286.589717 -341.666524 
L 287.529906 -342.944591 
L 288.470094 -344.246959 
L 289.410283 -345.553597 
L 290.350471 -346.822118 
L 291.29066 -348.135774 
L 292.230849 -349.43623 
L 293.171037 -350.68058 
L 294.111226 -351.925223 
L 295.051414 -353.050725 
L 295.991603 -354.151357 
L 296.931791 -355.185959 
L 297.87198 -356.112675 
L 298.812169 -356.949936 
L 299.752357 -357.692986 
L 300.692546 -358.314451 
L 301.632734 -358.820597 
L 302.572923 -359.222475 
L 303.513112 -359.502679 
L 304.4533 -359.670119 
L 305.393489 -359.742727 
L 306.333677 -359.689068 
L 307.273866 -359.582759 
L 308.214054 -359.393745 
L 309.154243 -359.127307 
L 310.094432 -358.776709 
L 311.03462 -358.431273 
L 311.974809 -357.98994 
L 312.914997 -357.525434 
L 313.855186 -357.062187 
L 314.795374 -356.564146 
L 315.735563 -356.088709 
L 316.675752 -355.62903 
L 317.61594 -355.152596 
L 318.556129 -354.678531 
L 319.496317 -354.211863 
L 320.436506 -353.783694 
L 321.376695 -353.329094 
L 322.316883 -352.893537 
L 323.257072 -352.381441 
L 324.19726 -351.876138 
L 325.137449 -351.364651 
L 326.077637 -350.811544 
L 327.017826 -350.191114 
L 327.958015 -349.473114 
L 328.898203 -348.674439 
L 329.838392 -347.73694 
L 330.77858 -346.736498 
L 331.718769 -345.599338 
L 332.658957 -344.333231 
L 333.599146 -342.948276 
L 334.539335 -341.404492 
L 335.479523 -339.70873 
L 336.419712 -337.848908 
L 337.3599 -335.809648 
L 338.300089 -333.624961 
L 339.240278 -331.313465 
L 340.180466 -328.821281 
L 341.120655 -326.219523 
L 342.060843 -323.504995 
L 343.001032 -320.699851 
L 343.94122 -317.76092 
L 344.881409 -314.745985 
L 345.821598 -311.653962 
L 346.761786 -308.51188 
L 347.701975 -305.351721 
L 348.642163 -302.14382 
L 349.582352 -298.980053 
L 350.52254 -295.851455 
L 351.462729 -292.750014 
L 352.402918 -289.702347 
L 353.343106 -286.686858 
L 354.283295 -283.743571 
L 355.223483 -280.864272 
L 356.163672 -278.026952 
L 357.103861 -275.287749 
L 358.044049 -272.627641 
L 358.984238 -270.033167 
L 359.924426 -267.487392 
L 360.864615 -264.97511 
L 361.804803 -262.533935 
L 362.744992 -260.093312 
L 363.685181 -257.652383 
L 364.625369 -255.247785 
L 365.565558 -252.818705 
L 366.505746 -250.397801 
L 367.445935 -247.906461 
L 368.386123 -245.38186 
L 369.326312 -242.832963 
L 370.266501 -240.240724 
L 371.206689 -237.57921 
L 372.146878 -234.857255 
L 373.087066 -232.079385 
L 374.027255 -229.266092 
L 374.967444 -226.392878 
L 375.907632 -223.481516 
L 376.847821 -220.510346 
L 377.788009 -217.511786 
L 378.728198 -214.483357 
L 379.668386 -211.455156 
L 380.608575 -208.450484 
L 381.548764 -205.44786 
L 382.488952 -202.415158 
L 383.429141 -199.466743 
L 384.369329 -196.574079 
L 385.309518 -193.720528 
L 386.249706 -190.916719 
L 387.189895 -188.161312 
L 388.130084 -185.47614 
L 389.070272 -182.875711 
L 390.010461 -180.364747 
L 390.950649 -177.929978 
L 391.890838 -175.560183 
L 392.831027 -173.277387 
L 393.771215 -171.07219 
L 394.711404 -168.944471 
L 395.651592 -166.862543 
L 396.591781 -164.85478 
L 397.531969 -162.915281 
L 398.472158 -161.019405 
L 399.412347 -159.167255 
L 400.352535 -157.332206 
L 401.292724 -155.550092 
L 402.232912 -153.769071 
L 403.173101 -152.022199 
L 404.113289 -150.28111 
L 405.053478 -148.533814 
L 405.993667 -146.782385 
L 406.933855 -145.035437 
L 407.874044 -143.277551 
L 408.814232 -141.500563 
L 409.754421 -139.726698 
L 410.69461 -137.952748 
L 411.634798 -136.154409 
L 412.574987 -134.3832 
L 413.515175 -132.60403 
L 414.455364 -130.816903 
L 415.395552 -129.070596 
L 416.335741 -127.347923 
L 417.27593 -125.639674 
L 418.216118 -123.9584 
L 419.156307 -122.293068 
L 420.096495 -120.674405 
L 421.036684 -119.094568 
L 421.976872 -117.535531 
L 422.917061 -116.047935 
L 423.85725 -114.582324 
L 424.797438 -113.169841 
L 425.737627 -111.803458 
L 426.677815 -110.485887 
L 427.618004 -109.207258 
L 428.558192 -107.94705 
L 429.498381 -106.738026 
L 430.43857 -105.548668 
L 431.378758 -104.390898 
L 432.318947 -103.261222 
L 433.259135 -102.153385 
L 434.199324 -101.057982 
L 435.139513 -99.985861 
L 436.079701 -98.91681 
L 437.01989 -97.867883 
L 437.960078 -96.832781 
L 438.900267 -95.821821 
L 439.840455 -94.824007 
L 440.780644 -93.822346 
L 441.720833 -92.828743 
L 442.661021 -91.851594 
L 443.60121 -90.886983 
L 444.541398 -89.930555 
L 445.481587 -88.990026 
L 446.421775 -88.06181 
L 447.361964 -87.157393 
L 448.302153 -86.271544 
L 449.242341 -85.404381 
L 450.18253 -84.558994 
L 451.122718 -83.726372 
L 452.062907 -82.908234 
L 453.003096 -82.107177 
L 453.943284 -81.350794 
L 454.883473 -80.60618 
L 455.823661 -79.870859 
L 456.76385 -79.168876 
L 457.704038 -78.488813 
L 458.644227 -77.826444 
L 459.584416 -77.199272 
L 460.524604 -76.579276 
L 461.464793 -75.99623 
L 462.404981 -75.428792 
L 463.34517 -74.885168 
L 464.285358 -74.362955 
L 465.225547 -73.871748 
L 466.165736 -73.400377 
L 467.105924 -72.956203 
L 468.046113 -72.523966 
L 468.986301 -72.12165 
L 469.92649 -71.737504 
L 470.866679 -71.381256 
L 471.806867 -71.036516 
L 472.747056 -70.705782 
L 473.687244 -70.404029 
L 474.627433 -70.116076 
L 475.567621 -69.837768 
L 476.50781 -69.580452 
L 477.447999 -69.329505 
L 478.388187 -69.096411 
L 479.328376 -68.864424 
L 480.268564 -68.645788 
L 481.208753 -68.435977 
L 482.148941 -68.229078 
L 483.08913 -68.029706 
L 484.029319 -67.825284 
L 484.969507 -67.631531 
L 485.909696 -67.449127 
L 486.849884 -67.267139 
L 487.790073 -67.088776 
L 488.730262 -66.909743 
L 489.67045 -66.736096 
L 490.610639 -66.57495 
L 491.550827 -66.418041 
L 492.491016 -66.26137 
L 493.431204 -66.116428 
L 494.371393 -65.973841 
L 495.311582 -65.84138 
L 496.25177 -65.708757 
L 497.191959 -65.591559 
L 498.132147 -65.483281 
L 499.072336 -65.376465 
L 500.012524 -65.281381 
L 500.952713 -65.191985 
L 501.892902 -65.105766 
L 502.83309 -65.02527 
L 503.773279 -64.950023 
L 504.713467 -64.881845 
L 505.653656 -64.815107 
L 506.593845 -64.754602 
L 507.534033 -64.697046 
L 508.474222 -64.642156 
L 509.41441 -64.585077 
L 510.354599 -64.535896 
L 511.294787 -64.486257 
L 512.234976 -64.441237 
L 513.175165 -64.397856 
L 514.115353 -64.35977 
L 515.055542 -64.317307 
L 515.99573 -64.282501 
L 516.935919 -64.252535 
L 517.876107 -64.22012 
L 518.816296 -64.190531 
L 519.756485 -64.163755 
L 520.696673 -64.142067 
L 521.636862 -64.120275 
L 522.57705 -64.103566 
L 523.517239 -64.088993 
L 524.457428 -64.07424 
L 525.397616 -64.062106 
L 526.337805 -64.057701 
L 527.277993 -64.052911 
L 528.218182 -64.050039 
L 528.218182 -62.997273 
L 528.218182 -62.997273 
L 527.277993 -62.997273 
L 526.337805 -62.997273 
L 525.397616 -62.997273 
L 524.457428 -62.997273 
L 523.517239 -62.997273 
L 522.57705 -62.997273 
L 521.636862 -62.997273 
L 520.696673 -62.997273 
L 519.756485 -62.997273 
L 518.816296 -62.997273 
L 517.876107 -62.997273 
L 516.935919 -62.997273 
L 515.99573 -62.997273 
L 515.055542 -62.997273 
L 514.115353 -62.997273 
L 513.175165 -62.997273 
L 512.234976 -62.997273 
L 511.294787 -62.997273 
L 510.354599 -62.997273 
L 509.41441 -62.997273 
L 508.474222 -62.997273 
L 507.534033 -62.997273 
L 506.593845 -62.997273 
L 505.653656 -62.997273 
L 504.713467 -62.997273 
L 503.773279 -62.997273 
L 502.83309 -62.997273 
L 501.892902 -62.997273 
L 500.952713 -62.997273 
L 500.012524 -62.997273 
L 499.072336 -62.997273 
L 498.132147 -62.997273 
L 497.191959 -62.997273 
L 496.25177 -62.997273 
L 495.311582 -62.997273 
L 494.371393 -62.997273 
L 493.431204 -62.997273 
L 492.491016 -62.997273 
L 491.550827 -62.997273 
L 490.610639 -62.997273 
L 489.67045 -62.997273 
L 488.730262 -62.997273 
L 487.790073 -62.997273 
L 486.849884 -62.997273 
L 485.909696 -62.997273 
L 484.969507 -62.997273 
L 484.029319 -62.997273 
L 483.08913 -62.997273 
L 482.148941 -62.997273 
L 481.208753 -62.997273 
L 480.268564 -62.997273 
L 479.328376 -62.997273 
L 478.388187 -62.997273 
L 477.447999 -62.997273 
L 476.50781 -62.997273 
L 475.567621 -62.997273 
L 474.627433 -62.997273 
L 473.687244 -62.997273 
L 472.747056 -62.997273 
L 471.806867 -62.997273 
L 470.866679 -62.997273 
L 469.92649 -62.997273 
L 468.986301 -62.997273 
L 468.046113 -62.997273 
L 467.105924 -62.997273 
L 466.165736 -62.997273 
L 465.225547 -62.997273 
L 464.285358 -62.997273 
L 463.34517 -62.997273 
L 462.404981 -62.997273 
L 461.464793 -62.997273 
L 460.524604 -62.997273 
L 459.584416 -62.997273 
L 458.644227 -62.997273 
L 457.704038 -62.997273 
L 456.76385 -62.997273 
L 455.823661 -62.997273 
L 454.883473 -62.997273 
L 453.943284 -62.997273 
L 453.003096 -62.997273 
L 452.062907 -62.997273 
L 451.122718 -62.997273 
L 450.18253 -62.997273 
L 449.242341 -62.997273 
L 448.302153 -62.997273 
L 447.361964 -62.997273 
L 446.421775 -62.997273 
L 445.481587 -62.997273 
L 444.541398 -62.997273 
L 443.60121 -62.997273 
L 442.661021 -62.997273 
L 441.720833 -62.997273 
L 440.780644 -62.997273 
L 439.840455 -62.997273 
L 438.900267 -62.997273 
L 437.960078 -62.997273 
L 437.01989 -62.997273 
L 436.079701 -62.997273 
L 435.139513 -62.997273 
L 434.199324 -62.997273 
L 433.259135 -62.997273 
L 432.318947 -62.997273 
L 431.378758 -62.997273 
L 430.43857 -62.997273 
L 429.498381 -62.997273 
L 428.558192 -62.997273 
L 427.618004 -62.997273 
L 426.677815 -62.997273 
L 425.737627 -62.997273 
L 424.797438 -62.997273 
L 423.85725 -62.997273 
L 422.917061 -62.997273 
L 421.976872 -62.997273 
L 421.036684 -62.997273 
L 420.096495 -62.997273 
L 419.156307 -62.997273 
L 418.216118 -62.997273 
L 417.27593 -62.997273 
L 416.335741 -62.997273 
L 415.395552 -62.997273 
L 414.455364 -62.997273 
L 413.515175 -62.997273 
L 412.574987 -62.997273 
L 411.634798 -62.997273 
L 410.69461 -62.997273 
L 409.754421 -62.997273 
L 408.814232 -62.997273 
L 407.874044 -62.997273 
L 406.933855 -62.997273 
L 405.993667 -62.997273 
L 405.053478 -62.997273 
L 404.113289 -62.997273 
L 403.173101 -62.997273 
L 402.232912 -62.997273 
L 401.292724 -62.997273 
L 400.352535 -62.997273 
L 399.412347 -62.997273 
L 398.472158 -62.997273 
L 397.531969 -62.997273 
L 396.591781 -62.997273 
L 395.651592 -62.997273 
L 394.711404 -62.997273 
L 393.771215 -62.997273 
L 392.831027 -62.997273 
L 391.890838 -62.997273 
L 390.950649 -62.997273 
L 390.010461 -62.997273 
L 389.070272 -62.997273 
L 388.130084 -62.997273 
L 387.189895 -62.997273 
L 386.249706 -62.997273 
L 385.309518 -62.997273 
L 384.369329 -62.997273 
L 383.429141 -62.997273 
L 382.488952 -62.997273 
L 381.548764 -62.997273 
L 380.608575 -62.997273 
L 379.668386 -62.997273 
L 378.728198 -62.997273 
L 377.788009 -62.997273 
L 376.847821 -62.997273 
L 375.907632 -62.997273 
L 374.967444 -62.997273 
L 374.027255 -62.997273 
L 373.087066 -62.997273 
L 372.146878 -62.997273 
L 371.206689 -62.997273 
L 370.266501 -62.997273 
L 369.326312 -62.997273 
L 368.386123 -62.997273 
L 367.445935 -62.997273 
L 366.505746 -62.997273 
L 365.565558 -62.997273 
L 364.625369 -62.997273 
L 363.685181 -62.997273 
L 362.744992 -62.997273 
L 361.804803 -62.997273 
L 360.864615 -62.997273 
L 359.924426 -62.997273 
L 358.984238 -62.997273 
L 358.044049 -62.997273 
L 357.103861 -62.997273 
L 356.163672 -62.997273 
L 355.223483 -62.997273 
L 354.283295 -62.997273 
L 353.343106 -62.997273 
L 352.402918 -62.997273 
L 351.462729 -62.997273 
L 350.52254 -62.997273 
L 349.582352 -62.997273 
L 348.642163 -62.997273 
L 347.701975 -62.997273 
L 346.761786 -62.997273 
L 345.821598 -62.997273 
L 344.881409 -62.997273 
L 343.94122 -62.997273 
L 343.001032 -62.997273 
L 342.060843 -62.997273 
L 341.120655 -62.997273 
L 340.180466 -62.997273 
L 339.240278 -62.997273 
L 338.300089 -62.997273 
L 337.3599 -62.997273 
L 336.419712 -62.997273 
L 335.479523 -62.997273 
L 334.539335 -62.997273 
L 333.599146 -62.997273 
L 332.658957 -62.997273 
L 331.718769 -62.997273 
L 330.77858 -62.997273 
L 329.838392 -62.997273 
L 328.898203 -62.997273 
L 327.958015 -62.997273 
L 327.017826 -62.997273 
L 326.077637 -62.997273 
L 325.137449 -62.997273 
L 324.19726 -62.997273 
L 323.257072 -62.997273 
L 322.316883 -62.997273 
L 321.376695 -62.997273 
L 320.436506 -62.997273 
L 319.496317 -62.997273 
L 318.556129 -62.997273 
L 317.61594 -62.997273 
L 316.675752 -62.997273 
L 315.735563 -62.997273 
L 314.795374 -62.997273 
L 313.855186 -62.997273 
L 312.914997 -62.997273 
L 311.974809 -62.997273 
L 311.03462 -62.997273 
L 310.094432 -62.997273 
L 309.154243 -62.997273 
L 308.214054 -62.997273 
L 307.273866 -62.997273 
L 306.333677 -62.997273 
L 305.393489 -62.997273 
L 304.4533 -62.997273 
L 303.513112 -62.997273 
L 302.572923 -62.997273 
L 301.632734 -62.997273 
L 300.692546 -62.997273 
L 299.752357 -62.997273 
L 298.812169 -62.997273 
L 297.87198 -62.997273 
L 296.931791 -62.997273 
L 295.991603 -62.997273 
L 295.051414 -62.997273 
L 294.111226 -62.997273 
L 293.171037 -62.997273 
L 292.230849 -62.997273 
L 291.29066 -62.997273 
L 290.350471 -62.997273 
L 289.410283 -62.997273 
L 288.470094 -62.997273 
L 287.529906 -62.997273 
L 286.589717 -62.997273 
L 285.649529 -62.997273 
L 284.70934 -62.997273 
L 283.769151 -62.997273 
L 282.828963 -62.997273 
L 281.888774 -62.997273 
L 280.948586 -62.997273 
L 280.008397 -62.997273 
L 279.068209 -62.997273 
L 278.12802 -62.997273 
L 277.187831 -62.997273 
L 276.247643 -62.997273 
L 275.307454 -62.997273 
L 274.367266 -62.997273 
L 273.427077 -62.997273 
L 272.486888 -62.997273 
L 271.5467 -62.997273 
L 270.606511 -62.997273 
L 269.666323 -62.997273 
L 268.726134 -62.997273 
L 267.785946 -62.997273 
L 266.845757 -62.997273 
L 265.905568 -62.997273 
L 264.96538 -62.997273 
L 264.025191 -62.997273 
L 263.085003 -62.997273 
L 262.144814 -62.997273 
L 261.204626 -62.997273 
L 260.264437 -62.997273 
L 259.324248 -62.997273 
L 258.38406 -62.997273 
L 257.443871 -62.997273 
L 256.503683 -62.997273 
L 255.563494 -62.997273 
L 254.623305 -62.997273 
L 253.683117 -62.997273 
L 252.742928 -62.997273 
L 251.80274 -62.997273 
L 250.862551 -62.997273 
L 249.922363 -62.997273 
L 248.982174 -62.997273 
L 248.041985 -62.997273 
L 247.101797 -62.997273 
L 246.161608 -62.997273 
L 245.22142 -62.997273 
L 244.281231 -62.997273 
L 243.341043 -62.997273 
L 242.400854 -62.997273 
L 241.460665 -62.997273 
L 240.520477 -62.997273 
L 239.580288 -62.997273 
L 238.6401 -62.997273 
L 237.699911 -62.997273 
L 236.759722 -62.997273 
L 235.819534 -62.997273 
L 234.879345 -62.997273 
L 233.939157 -62.997273 
L 232.998968 -62.997273 
L 232.05878 -62.997273 
L 231.118591 -62.997273 
L 230.178402 -62.997273 
L 229.238214 -62.997273 
L 228.298025 -62.997273 
L 227.357837 -62.997273 
L 226.417648 -62.997273 
L 225.47746 -62.997273 
L 224.537271 -62.997273 
L 223.597082 -62.997273 
L 222.656894 -62.997273 
L 221.716705 -62.997273 
L 220.776517 -62.997273 
L 219.836328 -62.997273 
L 218.896139 -62.997273 
L 217.955951 -62.997273 
L 217.015762 -62.997273 
L 216.075574 -62.997273 
L 215.135385 -62.997273 
L 214.195197 -62.997273 
L 213.255008 -62.997273 
L 212.314819 -62.997273 
L 211.374631 -62.997273 
L 210.434442 -62.997273 
L 209.494254 -62.997273 
L 208.554065 -62.997273 
L 207.613877 -62.997273 
L 206.673688 -62.997273 
L 205.733499 -62.997273 
L 204.793311 -62.997273 
L 203.853122 -62.997273 
L 202.912934 -62.997273 
L 201.972745 -62.997273 
L 201.032556 -62.997273 
L 200.092368 -62.997273 
L 199.152179 -62.997273 
L 198.211991 -62.997273 
L 197.271802 -62.997273 
L 196.331614 -62.997273 
L 195.391425 -62.997273 
L 194.451236 -62.997273 
L 193.511048 -62.997273 
L 192.570859 -62.997273 
L 191.630671 -62.997273 
L 190.690482 -62.997273 
L 189.750294 -62.997273 
L 188.810105 -62.997273 
L 187.869916 -62.997273 
L 186.929728 -62.997273 
L 185.989539 -62.997273 
L 185.049351 -62.997273 
L 184.109162 -62.997273 
L 183.168973 -62.997273 
L 182.228785 -62.997273 
L 181.288596 -62.997273 
L 180.348408 -62.997273 
L 179.408219 -62.997273 
L 178.468031 -62.997273 
L 177.527842 -62.997273 
L 176.587653 -62.997273 
L 175.647465 -62.997273 
L 174.707276 -62.997273 
L 173.767088 -62.997273 
L 172.826899 -62.997273 
L 171.886711 -62.997273 
L 170.946522 -62.997273 
L 170.006333 -62.997273 
L 169.066145 -62.997273 
L 168.125956 -62.997273 
L 167.185768 -62.997273 
L 166.245579 -62.997273 
L 165.30539 -62.997273 
L 164.365202 -62.997273 
L 163.425013 -62.997273 
L 162.484825 -62.997273 
L 161.544636 -62.997273 
L 160.604448 -62.997273 
L 159.664259 -62.997273 
L 158.72407 -62.997273 
L 157.783882 -62.997273 
L 156.843693 -62.997273 
L 155.903505 -62.997273 
L 154.963316 -62.997273 
L 154.023128 -62.997273 
L 153.082939 -62.997273 
L 152.14275 -62.997273 
L 151.202562 -62.997273 
L 150.262373 -62.997273 
L 149.322185 -62.997273 
L 148.381996 -62.997273 
L 147.441808 -62.997273 
L 146.501619 -62.997273 
L 145.56143 -62.997273 
L 144.621242 -62.997273 
L 143.681053 -62.997273 
L 142.740865 -62.997273 
L 141.800676 -62.997273 
L 140.860487 -62.997273 
L 139.920299 -62.997273 
L 138.98011 -62.997273 
L 138.039922 -62.997273 
L 137.099733 -62.997273 
L 136.159545 -62.997273 
L 135.219356 -62.997273 
L 134.279167 -62.997273 
L 133.338979 -62.997273 
L 132.39879 -62.997273 
L 131.458602 -62.997273 
L 130.518413 -62.997273 
L 129.578225 -62.997273 
L 128.638036 -62.997273 
L 127.697847 -62.997273 
L 126.757659 -62.997273 
L 125.81747 -62.997273 
L 124.877282 -62.997273 
L 123.937093 -62.997273 
L 122.996904 -62.997273 
L 122.056716 -62.997273 
L 121.116527 -62.997273 
L 120.176339 -62.997273 
L 119.23615 -62.997273 
L 118.295962 -62.997273 
L 117.355773 -62.997273 
L 116.415584 -62.997273 
L 115.475396 -62.997273 
L 114.535207 -62.997273 
L 113.595019 -62.997273 
L 112.65483 -62.997273 
L 111.714642 -62.997273 
L 110.774453 -62.997273 
L 109.834264 -62.997273 
L 108.894076 -62.997273 
L 107.953887 -62.997273 
L 107.013699 -62.997273 
L 106.07351 -62.997273 
L 105.133321 -62.997273 
L 104.193133 -62.997273 
L 103.252944 -62.997273 
L 102.312756 -62.997273 
L 101.372567 -62.997273 
L 100.432379 -62.997273 
L 99.49219 -62.997273 
L 98.552001 -62.997273 
L 97.611813 -62.997273 
L 96.671624 -62.997273 
L 95.731436 -62.997273 
L 94.791247 -62.997273 
L 93.851059 -62.997273 
L 92.91087 -62.997273 
L 91.970681 -62.997273 
L 91.030493 -62.997273 
L 90.090304 -62.997273 
L 89.150116 -62.997273 
L 88.209927 -62.997273 
L 87.269738 -62.997273 
L 86.32955 -62.997273 
L 85.389361 -62.997273 
L 84.449173 -62.997273 
L 83.508984 -62.997273 
L 82.568796 -62.997273 
L 81.628607 -62.997273 
L 80.688418 -62.997273 
L 79.74823 -62.997273 
L 78.808041 -62.997273 
L 77.867853 -62.997273 
L 76.927664 -62.997273 
L 75.987476 -62.997273 
L 75.047287 -62.997273 
L 74.107098 -62.997273 
L 73.16691 -62.997273 
L 72.226721 -62.997273 
L 71.286533 -62.997273 
L 70.346344 -62.997273 
L 69.406155 -62.997273 
L 68.465967 -62.997273 
L 67.525778 -62.997273 
L 66.58559 -62.997273 
L 65.645401 -62.997273 
L 64.705213 -62.997273 
L 63.765024 -62.997273 
L 62.824835 -62.997273 
L 61.884647 -62.997273 
L 60.944458 -62.997273 
L 60.00427 -62.997273 
L 59.064081 -62.997273 
L 58.123893 -62.997273 
L 57.183704 -62.997273 
L 56.243515 -62.997273 
L 55.303327 -62.997273 
L 54.363138 -62.997273 
L 53.42295 -62.997273 
L 52.482761 -62.997273 
L 51.542572 -62.997273 
L 50.602384 -62.997273 
L 49.662195 -62.997273 
L 48.722007 -62.997273 
L 47.781818 -62.997273 
z
"/>
    </defs>
    <g clip-path="url(#p79977c3dd0)">
     <use xlink:href="#m60b02238b4" x="0" y="432" style="fill: #51d7c1; fill-opacity: 0.6"/>
    </g>
   </g>
   <g id="line2d_20">
    <path d="M 47.781818 368.067516 
L 56.243515 368.179832 
L 88.209927 368.89443 
L 93.851059 368.728938 
L 98.552001 368.37115 
L 102.312756 367.88142 
L 106.07351 367.154311 
L 109.834264 366.19567 
L 113.595019 365.02763 
L 119.23615 363.020193 
L 133.338979 357.935771 
L 145.56143 353.690923 
L 151.202562 351.310164 
L 154.963316 349.461652 
L 158.72407 347.35144 
L 162.484825 344.93004 
L 165.30539 342.846194 
L 168.125956 340.483136 
L 170.946522 337.77797 
L 173.767088 334.67772 
L 176.587653 331.074531 
L 179.408219 326.999096 
L 182.228785 322.44878 
L 185.049351 317.518959 
L 187.869916 312.175372 
L 191.630671 304.653568 
L 196.331614 294.793789 
L 201.972745 282.468811 
L 206.673688 271.760232 
L 212.314819 258.291322 
L 217.955951 244.241503 
L 227.357837 219.816007 
L 239.580288 187.359054 
L 248.041985 165.036151 
L 257.443871 141.05296 
L 261.204626 131.988924 
L 264.96538 123.679556 
L 267.785946 118.003526 
L 269.666323 114.474982 
L 272.486888 109.689389 
L 275.307454 105.441839 
L 279.068209 100.284506 
L 286.589717 90.333476 
L 295.051414 78.949275 
L 296.931791 76.814041 
L 298.812169 75.050064 
L 300.692546 73.685549 
L 302.572923 72.777525 
L 304.4533 72.329881 
L 305.393489 72.257273 
L 307.273866 72.417241 
L 309.154243 72.872693 
L 311.974809 74.01006 
L 325.137449 80.635349 
L 327.017826 81.808886 
L 328.898203 83.325561 
L 330.77858 85.263502 
L 332.658957 87.666769 
L 334.539335 90.595508 
L 336.419712 94.151092 
L 338.300089 98.375039 
L 340.180466 103.178719 
L 343.001032 111.300149 
L 345.821598 120.346038 
L 354.283295 148.256429 
L 357.103861 156.712251 
L 360.864615 167.02489 
L 369.326312 189.167037 
L 372.146878 197.142745 
L 375.907632 208.518484 
L 387.189895 243.838688 
L 390.010461 251.635253 
L 392.831027 258.722613 
L 395.651592 265.137457 
L 398.472158 270.980595 
L 402.232912 278.230929 
L 413.515175 299.39597 
L 417.27593 306.360326 
L 421.036684 312.905432 
L 423.85725 317.417676 
L 426.677815 321.514113 
L 430.43857 326.451332 
L 434.199324 330.942018 
L 438.900267 336.178179 
L 445.481587 343.009974 
L 449.242341 346.595619 
L 453.003096 349.892823 
L 456.76385 352.831124 
L 460.524604 355.420724 
L 464.285358 357.637045 
L 467.105924 359.043797 
L 469.92649 360.262496 
L 473.687244 361.595971 
L 477.447999 362.670495 
L 483.08913 363.970294 
L 488.730262 365.090257 
L 494.371393 366.026159 
L 500.012524 366.718619 
L 506.593845 367.245398 
L 515.99573 367.717499 
L 526.337805 367.942299 
L 528.218182 367.949961 
L 528.218182 367.949961 
" clip-path="url(#p79977c3dd0)" style="fill: none; stroke: #51d7c1; stroke-width: 1.5; stroke-linecap: round"/>
   </g>
   <g id="line2d_21">
    <path d="M 206.002648 362.771073 
L 411.740459 362.771073 
" clip-path="url(#p79977c3dd0)" style="fill: none; stroke: #51d7c1; stroke-width: 3.5; stroke-linecap: round"/>
   </g>
   <g id="patch_3">
    <path d="M 23.76 383.84 
L 552.24 383.84 
" style="fill: none; stroke: #333333; stroke-width: 1.5; stroke-linejoin: miter; stroke-linecap: square"/>
   </g>
   <g id="text_8">
    <!-- $x_1^2x_2^2$ -->
    <g style="fill: #262626" transform="translate(256.92 49.58)">
     <text>
      <tspan x="0" y="-0.734375" style="font-style: oblique; font-size: 28px; font-family: 'DejaVu Sans'; fill: #262626">x</tspan>
      <tspan x="31.056576" y="-0.734375" style="font-style: oblique; font-size: 28px; font-family: 'DejaVu Sans'; fill: #262626">x</tspan>
      <tspan x="16.570312" y="6.921875" style="font-size: 19.6px; font-family: 'DejaVu Sans'; fill: #262626">1</tspan>
      <tspan x="17.820833" y="-11.453125" style="font-size: 19.6px; font-family: 'DejaVu Sans'; fill: #262626">2</tspan>
      <tspan x="47.626888" y="6.921875" style="font-size: 19.6px; font-family: 'DejaVu Sans'; fill: #262626">2</tspan>
      <tspan x="48.877409" y="-11.453125" style="font-size: 19.6px; font-family: 'DejaVu Sans'; fill: #262626">2</tspan>
     </text>
    </g>
   </g>
  </g>
 </g>
 <defs>
  <clipPath id="p79977c3dd0">
   <rect x="23.76" y="57.42" width="528.48" height="326.42"/>
  </clipPath>
 </defs>
</svg>
