<?xml version="1.0" encoding="utf-8" standalone="no"?>
<!DOCTYPE svg PUBLIC "-//W3C//DTD SVG 1.1//EN"
  "http://www.w3.org/Graphics/SVG/1.1/DTD/svg11.dtd">
<svg xmlns:xlink="http://www.w3.org/1999/xlink" width="576pt" height="432pt" viewBox="0 0 576 432" xmlns="http://www.w3.org/2000/svg" version="1.1">
 <metadata>
  <rdf:RDF xmlns:dc="http://purl.org/dc/elements/1.1/" xmlns:cc="http://creativecommons.org/ns#" xmlns:rdf="http://www.w3.org/1999/02/22-rdf-syntax-ns#">
   <cc:Work>
    <dc:type rdf:resource="http://purl.org/dc/dcmitype/StillImage"/>
    <dc:date>2025-09-23T14:40:22.324648</dc:date>
    <dc:format>image/svg+xml</dc:format>
    <dc:creator>
     <cc:Agent>
      <dc:title>Matplotlib v3.10.0, https://matplotlib.org/</dc:title>
     </cc:Agent>
    </dc:creator>
   </cc:Work>
  </rdf:RDF>
 </metadata>
 <defs>
  <style type="text/css">*{stroke-linejoin: round; stroke-linecap: butt}</style>
 </defs>
 <g id="figure_1">
  <g id="patch_1">
   <path d="M 0 432 
L 576 432 
L 576 0 
L 0 0 
L 0 432 
z
" style="fill: none; opacity: 0"/>
  </g>
  <g id="axes_1">
   <g id="patch_2">
    <path d="M 23.76 383.84 
L 552.24 383.84 
L 552.24 57.336 
L 23.76 57.336 
L 23.76 383.84 
z
" style="fill: none"/>
   </g>
   <g id="matplotlib.axis_1">
    <g id="xtick_1">
     <g id="line2d_1">
      <path d="M 75.74113 383.84 
L 75.74113 57.336 
" clip-path="url(#p06b24b51ee)" style="fill: none; stroke: #ffffff; stroke-opacity: 0.4; stroke-linecap: round"/>
     </g>
     <g id="line2d_2"/>
     <g id="text_1">
      <text style="font-size: 18px; font-family: 'DejaVu Serif', 'Times New Roman', serif; text-anchor: middle; fill: #262626" x="75.74113" y="404.517187" transform="rotate(-0 75.74113 404.517187)">−15</text>
     </g>
    </g>
    <g id="xtick_2">
     <g id="line2d_3">
      <path d="M 151.309291 383.84 
L 151.309291 57.336 
" clip-path="url(#p06b24b51ee)" style="fill: none; stroke: #ffffff; stroke-opacity: 0.4; stroke-linecap: round"/>
     </g>
     <g id="line2d_4"/>
     <g id="text_2">
      <text style="font-size: 18px; font-family: 'DejaVu Serif', 'Times New Roman', serif; text-anchor: middle; fill: #262626" x="151.309291" y="404.517187" transform="rotate(-0 151.309291 404.517187)">−10</text>
     </g>
    </g>
    <g id="xtick_3">
     <g id="line2d_5">
      <path d="M 226.877451 383.84 
L 226.877451 57.336 
" clip-path="url(#p06b24b51ee)" style="fill: none; stroke: #ffffff; stroke-opacity: 0.4; stroke-linecap: round"/>
     </g>
     <g id="line2d_6"/>
     <g id="text_3">
      <text style="font-size: 18px; font-family: 'DejaVu Serif', 'Times New Roman', serif; text-anchor: middle; fill: #262626" x="226.877451" y="404.517187" transform="rotate(-0 226.877451 404.517187)">−5</text>
     </g>
    </g>
    <g id="xtick_4">
     <g id="line2d_7">
      <path d="M 302.445611 383.84 
L 302.445611 57.336 
" clip-path="url(#p06b24b51ee)" style="fill: none; stroke: #ffffff; stroke-opacity: 0.4; stroke-linecap: round"/>
     </g>
     <g id="line2d_8"/>
     <g id="text_4">
      <text style="font-size: 18px; font-family: 'DejaVu Serif', 'Times New Roman', serif; text-anchor: middle; fill: #262626" x="302.445611" y="404.517187" transform="rotate(-0 302.445611 404.517187)">0</text>
     </g>
    </g>
    <g id="xtick_5">
     <g id="line2d_9">
      <path d="M 378.013772 383.84 
L 378.013772 57.336 
" clip-path="url(#p06b24b51ee)" style="fill: none; stroke: #ffffff; stroke-opacity: 0.4; stroke-linecap: round"/>
     </g>
     <g id="line2d_10"/>
     <g id="text_5">
      <text style="font-size: 18px; font-family: 'DejaVu Serif', 'Times New Roman', serif; text-anchor: middle; fill: #262626" x="378.013772" y="404.517187" transform="rotate(-0 378.013772 404.517187)">5</text>
     </g>
    </g>
    <g id="xtick_6">
     <g id="line2d_11">
      <path d="M 453.581932 383.84 
L 453.581932 57.336 
" clip-path="url(#p06b24b51ee)" style="fill: none; stroke: #ffffff; stroke-opacity: 0.4; stroke-linecap: round"/>
     </g>
     <g id="line2d_12"/>
     <g id="text_6">
      <text style="font-size: 18px; font-family: 'DejaVu Serif', 'Times New Roman', serif; text-anchor: middle; fill: #262626" x="453.581932" y="404.517187" transform="rotate(-0 453.581932 404.517187)">10</text>
     </g>
    </g>
    <g id="xtick_7">
     <g id="line2d_13">
      <path d="M 529.150092 383.84 
L 529.150092 57.336 
" clip-path="url(#p06b24b51ee)" style="fill: none; stroke: #ffffff; stroke-opacity: 0.4; stroke-linecap: round"/>
     </g>
     <g id="line2d_14"/>
     <g id="text_7">
      <text style="font-size: 18px; font-family: 'DejaVu Serif', 'Times New Roman', serif; text-anchor: middle; fill: #262626" x="529.150092" y="404.517187" transform="rotate(-0 529.150092 404.517187)">15</text>
     </g>
    </g>
   </g>
   <g id="matplotlib.axis_2">
    <g id="ytick_1">
     <g id="line2d_15">
      <path d="M 23.76 368.998909 
L 552.24 368.998909 
" clip-path="url(#p06b24b51ee)" style="fill: none; stroke: #ffffff; stroke-opacity: 0.4; stroke-linecap: round"/>
     </g>
    </g>
    <g id="ytick_2">
     <g id="line2d_16">
      <path d="M 23.76 307.044839 
L 552.24 307.044839 
" clip-path="url(#p06b24b51ee)" style="fill: none; stroke: #ffffff; stroke-opacity: 0.4; stroke-linecap: round"/>
     </g>
    </g>
    <g id="ytick_3">
     <g id="line2d_17">
      <path d="M 23.76 245.090769 
L 552.24 245.090769 
" clip-path="url(#p06b24b51ee)" style="fill: none; stroke: #ffffff; stroke-opacity: 0.4; stroke-linecap: round"/>
     </g>
    </g>
    <g id="ytick_4">
     <g id="line2d_18">
      <path d="M 23.76 183.136699 
L 552.24 183.136699 
" clip-path="url(#p06b24b51ee)" style="fill: none; stroke: #ffffff; stroke-opacity: 0.4; stroke-linecap: round"/>
     </g>
    </g>
    <g id="ytick_5">
     <g id="line2d_19">
      <path d="M 23.76 121.182629 
L 552.24 121.182629 
" clip-path="url(#p06b24b51ee)" style="fill: none; stroke: #ffffff; stroke-opacity: 0.4; stroke-linecap: round"/>
     </g>
    </g>
    <g id="ytick_6">
     <g id="line2d_20">
      <path d="M 23.76 59.228559 
L 552.24 59.228559 
" clip-path="url(#p06b24b51ee)" style="fill: none; stroke: #ffffff; stroke-opacity: 0.4; stroke-linecap: round"/>
     </g>
    </g>
   </g>
   <g id="FillBetweenPolyCollection_1">
    <defs>
     <path id="m3277178584" d="M 47.781818 -63.001091 
L 47.781818 -63.945427 
L 48.722007 -63.944316 
L 49.662195 -63.94101 
L 50.602384 -63.935579 
L 51.542572 -63.928143 
L 52.482761 -63.918859 
L 53.42295 -63.905701 
L 54.363138 -63.893845 
L 55.303327 -63.880665 
L 56.243515 -63.866424 
L 57.183704 -63.85138 
L 58.123893 -63.835776 
L 59.064081 -63.82272 
L 60.00427 -63.80748 
L 60.944458 -63.792471 
L 61.884647 -63.777862 
L 62.824835 -63.763789 
L 63.765024 -63.750356 
L 64.705213 -63.737635 
L 65.645401 -63.725667 
L 66.58559 -63.714465 
L 67.525778 -63.701805 
L 68.465967 -63.692615 
L 69.406155 -63.683991 
L 70.346344 -63.675897 
L 71.286533 -63.668286 
L 72.226721 -63.661102 
L 73.16691 -63.654282 
L 74.107098 -63.647763 
L 75.047287 -63.644365 
L 75.987476 -63.639096 
L 76.927664 -63.634145 
L 77.867853 -63.632377 
L 78.808041 -63.628852 
L 79.74823 -63.628699 
L 80.688418 -63.627028 
L 81.628607 -63.629024 
L 82.568796 -63.62764 
L 83.508984 -63.630862 
L 84.449173 -63.63602 
L 85.389361 -63.642701 
L 86.32955 -63.654054 
L 87.269738 -63.671193 
L 88.209927 -63.689673 
L 89.150116 -63.712273 
L 90.090304 -63.736714 
L 91.030493 -63.765692 
L 91.970681 -63.802577 
L 92.91087 -63.848696 
L 93.851059 -63.896912 
L 94.791247 -63.952206 
L 95.731436 -64.01798 
L 96.671624 -64.089768 
L 97.611813 -64.170215 
L 98.552001 -64.260326 
L 99.49219 -64.360355 
L 100.432379 -64.472673 
L 101.372567 -64.595232 
L 102.312756 -64.725182 
L 103.252944 -64.87022 
L 104.193133 -65.020009 
L 105.133321 -65.181258 
L 106.07351 -65.348237 
L 107.013699 -65.527977 
L 107.953887 -65.715263 
L 108.894076 -65.903445 
L 109.834264 -66.098551 
L 110.774453 -66.302918 
L 111.714642 -66.516973 
L 112.65483 -66.727801 
L 113.595019 -66.935476 
L 114.535207 -67.145654 
L 115.475396 -67.358287 
L 116.415584 -67.567887 
L 117.355773 -67.773446 
L 118.295962 -67.98553 
L 119.23615 -68.195004 
L 120.176339 -68.407479 
L 121.116527 -68.621672 
L 122.056716 -68.838788 
L 122.996904 -69.060286 
L 123.937093 -69.287844 
L 124.877282 -69.520438 
L 125.81747 -69.762111 
L 126.757659 -70.014733 
L 127.697847 -70.280163 
L 128.638036 -70.56373 
L 129.578225 -70.87083 
L 130.518413 -71.192634 
L 131.458602 -71.529349 
L 132.39879 -71.889227 
L 133.338979 -72.270787 
L 134.279167 -72.671503 
L 135.219356 -73.099145 
L 136.159545 -73.554738 
L 137.099733 -74.027727 
L 138.039922 -74.524432 
L 138.98011 -75.044363 
L 139.920299 -75.578279 
L 140.860487 -76.125936 
L 141.800676 -76.696037 
L 142.740865 -77.277212 
L 143.681053 -77.881168 
L 144.621242 -78.483916 
L 145.56143 -79.091626 
L 146.501619 -79.706633 
L 147.441808 -80.319768 
L 148.381996 -80.9392 
L 149.322185 -81.553157 
L 150.262373 -82.173003 
L 151.202562 -82.78236 
L 152.14275 -83.406704 
L 153.082939 -84.013165 
L 154.023128 -84.62872 
L 154.963316 -85.238975 
L 155.903505 -85.84135 
L 156.843693 -86.44757 
L 157.783882 -87.05392 
L 158.72407 -87.663575 
L 159.664259 -88.277846 
L 160.604448 -88.898391 
L 161.544636 -89.528542 
L 162.484825 -90.152495 
L 163.425013 -90.781653 
L 164.365202 -91.430002 
L 165.30539 -92.097341 
L 166.245579 -92.779027 
L 167.185768 -93.482163 
L 168.125956 -94.211032 
L 169.066145 -94.966685 
L 170.006333 -95.743905 
L 170.946522 -96.54442 
L 171.886711 -97.396996 
L 172.826899 -98.267357 
L 173.767088 -99.201509 
L 174.707276 -100.170862 
L 175.647465 -101.187027 
L 176.587653 -102.25596 
L 177.527842 -103.367397 
L 178.468031 -104.552988 
L 179.408219 -105.778727 
L 180.348408 -107.077328 
L 181.288596 -108.415471 
L 182.228785 -109.806519 
L 183.168973 -111.278652 
L 184.109162 -112.798877 
L 185.049351 -114.356016 
L 185.989539 -115.962931 
L 186.929728 -117.626839 
L 187.869916 -119.326147 
L 188.810105 -121.039144 
L 189.750294 -122.803712 
L 190.690482 -124.601946 
L 191.630671 -126.41126 
L 192.570859 -128.224276 
L 193.511048 -130.091003 
L 194.451236 -131.961841 
L 195.391425 -133.849017 
L 196.331614 -135.733055 
L 197.271802 -137.627298 
L 198.211991 -139.522415 
L 199.152179 -141.433182 
L 200.092368 -143.367248 
L 201.032556 -145.326889 
L 201.972745 -147.317263 
L 202.912934 -149.319649 
L 203.853122 -151.376353 
L 204.793311 -153.461566 
L 205.733499 -155.5737 
L 206.673688 -157.711536 
L 207.613877 -159.926234 
L 208.554065 -162.172229 
L 209.494254 -164.464397 
L 210.434442 -166.81107 
L 211.374631 -169.188353 
L 212.314819 -171.60745 
L 213.255008 -174.071481 
L 214.195197 -176.576399 
L 215.135385 -179.122256 
L 216.075574 -181.691411 
L 217.015762 -184.248646 
L 217.955951 -186.793404 
L 218.896139 -189.373542 
L 219.836328 -191.921573 
L 220.776517 -194.435472 
L 221.716705 -196.904053 
L 222.656894 -199.350948 
L 223.597082 -201.753798 
L 224.537271 -204.121298 
L 225.47746 -206.443529 
L 226.417648 -208.675658 
L 227.357837 -210.88265 
L 228.298025 -213.039277 
L 229.238214 -215.149167 
L 230.178402 -217.226086 
L 231.118591 -219.286099 
L 232.05878 -221.330296 
L 232.998968 -223.358706 
L 233.939157 -225.391066 
L 234.879345 -227.410676 
L 235.819534 -229.442334 
L 236.759722 -231.539484 
L 237.699911 -233.660938 
L 238.6401 -235.836928 
L 239.580288 -238.088543 
L 240.520477 -240.3894 
L 241.460665 -242.79429 
L 242.400854 -245.261381 
L 243.341043 -247.817514 
L 244.281231 -250.450542 
L 245.22142 -253.162492 
L 246.161608 -255.96503 
L 247.101797 -258.878591 
L 248.041985 -261.833193 
L 248.982174 -264.849724 
L 249.922363 -267.922881 
L 250.862551 -271.04037 
L 251.80274 -274.22687 
L 252.742928 -277.423916 
L 253.683117 -280.610776 
L 254.623305 -283.81838 
L 255.563494 -286.983321 
L 256.503683 -290.134863 
L 257.443871 -293.236285 
L 258.38406 -296.31481 
L 259.324248 -299.284933 
L 260.264437 -302.177132 
L 261.204626 -305.011934 
L 262.144814 -307.749822 
L 263.085003 -310.358519 
L 264.025191 -312.898403 
L 264.96538 -315.28742 
L 265.905568 -317.581859 
L 266.845757 -319.76813 
L 267.785946 -321.802261 
L 268.726134 -323.739821 
L 269.666323 -325.551829 
L 270.606511 -327.251673 
L 271.5467 -328.832435 
L 272.486888 -330.319694 
L 273.427077 -331.691359 
L 274.367266 -332.963424 
L 275.307454 -334.158098 
L 276.247643 -335.285519 
L 277.187831 -336.296124 
L 278.12802 -337.236527 
L 279.068209 -338.121836 
L 280.008397 -338.945694 
L 280.948586 -339.709412 
L 281.888774 -340.425296 
L 282.828963 -341.073705 
L 283.769151 -341.683544 
L 284.70934 -342.262153 
L 285.649529 -342.787656 
L 286.589717 -343.315481 
L 287.529906 -343.842296 
L 288.470094 -344.315192 
L 289.410283 -344.789198 
L 290.350471 -345.283131 
L 291.29066 -345.783048 
L 292.230849 -346.294905 
L 293.171037 -346.805249 
L 294.111226 -347.328582 
L 295.051414 -347.903802 
L 295.991603 -348.511106 
L 296.931791 -349.163257 
L 297.87198 -349.848394 
L 298.812169 -350.554602 
L 299.752357 -351.290559 
L 300.692546 -352.02786 
L 301.632734 -352.804182 
L 302.572923 -353.607231 
L 303.513112 -354.38683 
L 304.4533 -355.212727 
L 305.393489 -356.008714 
L 306.333677 -356.731933 
L 307.273866 -357.439639 
L 308.214054 -358.060285 
L 309.154243 -358.634675 
L 310.094432 -359.112922 
L 311.03462 -359.439723 
L 311.974809 -359.688723 
L 312.914997 -359.81041 
L 313.855186 -359.822909 
L 314.795374 -359.694378 
L 315.735563 -359.380908 
L 316.675752 -358.906899 
L 317.61594 -358.311904 
L 318.556129 -357.565437 
L 319.496317 -356.691725 
L 320.436506 -355.704404 
L 321.376695 -354.539008 
L 322.316883 -353.237067 
L 323.257072 -351.84634 
L 324.19726 -350.345064 
L 325.137449 -348.753952 
L 326.077637 -347.04395 
L 327.017826 -345.26962 
L 327.958015 -343.402709 
L 328.898203 -341.476837 
L 329.838392 -339.503328 
L 330.77858 -337.443102 
L 331.718769 -335.350221 
L 332.658957 -333.207653 
L 333.599146 -330.962186 
L 334.539335 -328.722474 
L 335.479523 -326.446429 
L 336.419712 -324.090765 
L 337.3599 -321.732925 
L 338.300089 -319.289332 
L 339.240278 -316.805644 
L 340.180466 -314.268368 
L 341.120655 -311.707674 
L 342.060843 -309.105574 
L 343.001032 -306.471856 
L 343.94122 -303.805243 
L 344.881409 -301.103971 
L 345.821598 -298.377447 
L 346.761786 -295.626539 
L 347.701975 -292.873951 
L 348.642163 -290.074214 
L 349.582352 -287.24169 
L 350.52254 -284.416253 
L 351.462729 -281.595586 
L 352.402918 -278.747949 
L 353.343106 -275.890257 
L 354.283295 -273.002563 
L 355.223483 -270.104933 
L 356.163672 -267.187772 
L 357.103861 -264.263884 
L 358.044049 -261.320964 
L 358.984238 -258.376626 
L 359.924426 -255.403225 
L 360.864615 -252.407184 
L 361.804803 -249.384373 
L 362.744992 -246.36573 
L 363.685181 -243.349668 
L 364.625369 -240.305936 
L 365.565558 -237.294158 
L 366.505746 -234.257321 
L 367.445935 -231.24586 
L 368.386123 -228.263689 
L 369.326312 -225.316308 
L 370.266501 -222.422236 
L 371.206689 -219.554862 
L 372.146878 -216.733776 
L 373.087066 -213.95882 
L 374.027255 -211.209702 
L 374.967444 -208.562592 
L 375.907632 -205.970337 
L 376.847821 -203.429914 
L 377.788009 -200.967429 
L 378.728198 -198.531592 
L 379.668386 -196.166251 
L 380.608575 -193.862978 
L 381.548764 -191.588712 
L 382.488952 -189.325459 
L 383.429141 -187.093038 
L 384.369329 -184.895855 
L 385.309518 -182.738396 
L 386.249706 -180.599229 
L 387.189895 -178.457749 
L 388.130084 -176.348945 
L 389.070272 -174.227816 
L 390.010461 -172.112116 
L 390.950649 -170.038831 
L 391.890838 -167.996265 
L 392.831027 -165.97224 
L 393.771215 -163.968839 
L 394.711404 -162.003249 
L 395.651592 -160.07037 
L 396.591781 -158.172867 
L 397.531969 -156.328572 
L 398.472158 -154.532616 
L 399.412347 -152.759994 
L 400.352535 -151.053836 
L 401.292724 -149.375881 
L 402.232912 -147.734238 
L 403.173101 -146.165889 
L 404.113289 -144.602633 
L 405.053478 -143.048851 
L 405.993667 -141.534745 
L 406.933855 -140.018036 
L 407.874044 -138.517228 
L 408.814232 -137.005445 
L 409.754421 -135.48653 
L 410.69461 -133.927947 
L 411.634798 -132.352964 
L 412.574987 -130.748622 
L 413.515175 -129.114365 
L 414.455364 -127.436155 
L 415.395552 -125.722441 
L 416.335741 -123.972963 
L 417.27593 -122.189488 
L 418.216118 -120.393366 
L 419.156307 -118.577013 
L 420.096495 -116.73073 
L 421.036684 -114.861184 
L 421.976872 -113.023852 
L 422.917061 -111.194447 
L 423.85725 -109.396669 
L 424.797438 -107.628976 
L 425.737627 -105.888151 
L 426.677815 -104.168618 
L 427.618004 -102.511635 
L 428.558192 -100.909656 
L 429.498381 -99.380137 
L 430.43857 -97.91829 
L 431.378758 -96.538639 
L 432.318947 -95.220953 
L 433.259135 -93.970752 
L 434.199324 -92.795857 
L 435.139513 -91.689455 
L 436.079701 -90.652946 
L 437.01989 -89.680511 
L 437.960078 -88.781693 
L 438.900267 -87.92808 
L 439.840455 -87.121998 
L 440.780644 -86.372636 
L 441.720833 -85.664052 
L 442.661021 -85.015859 
L 443.60121 -84.395935 
L 444.541398 -83.784922 
L 445.481587 -83.211463 
L 446.421775 -82.65518 
L 447.361964 -82.124931 
L 448.302153 -81.600603 
L 449.242341 -81.107235 
L 450.18253 -80.605836 
L 451.122718 -80.12301 
L 452.062907 -79.653722 
L 453.003096 -79.192098 
L 453.943284 -78.738343 
L 454.883473 -78.295133 
L 455.823661 -77.853727 
L 456.76385 -77.434321 
L 457.704038 -77.019335 
L 458.644227 -76.608781 
L 459.584416 -76.224967 
L 460.524604 -75.854586 
L 461.464793 -75.493527 
L 462.404981 -75.147401 
L 463.34517 -74.807012 
L 464.285358 -74.484334 
L 465.225547 -74.173153 
L 466.165736 -73.870479 
L 467.105924 -73.577986 
L 468.046113 -73.294237 
L 468.986301 -73.019836 
L 469.92649 -72.745879 
L 470.866679 -72.482833 
L 471.806867 -72.218341 
L 472.747056 -71.953685 
L 473.687244 -71.689598 
L 474.627433 -71.417601 
L 475.567621 -71.14444 
L 476.50781 -70.866437 
L 477.447999 -70.578669 
L 478.388187 -70.293099 
L 479.328376 -69.999202 
L 480.268564 -69.702565 
L 481.208753 -69.401884 
L 482.148941 -69.08947 
L 483.08913 -68.783669 
L 484.029319 -68.481767 
L 484.969507 -68.175469 
L 485.909696 -67.874387 
L 486.849884 -67.572984 
L 487.790073 -67.28068 
L 488.730262 -66.998326 
L 489.67045 -66.724578 
L 490.610639 -66.460796 
L 491.550827 -66.203703 
L 492.491016 -65.961943 
L 493.431204 -65.72883 
L 494.371393 -65.522036 
L 495.311582 -65.328561 
L 496.25177 -65.14607 
L 497.191959 -64.976979 
L 498.132147 -64.821305 
L 499.072336 -64.676695 
L 500.012524 -64.547841 
L 500.952713 -64.427085 
L 501.892902 -64.321706 
L 502.83309 -64.226021 
L 503.773279 -64.144385 
L 504.713467 -64.073313 
L 505.653656 -64.009972 
L 506.593845 -63.960913 
L 507.534033 -63.917682 
L 508.474222 -63.885409 
L 509.41441 -63.860732 
L 510.354599 -63.842507 
L 511.294787 -63.830232 
L 512.234976 -63.816731 
L 513.175165 -63.80969 
L 514.115353 -63.812629 
L 515.055542 -63.819211 
L 515.99573 -63.831082 
L 516.935919 -63.842707 
L 517.876107 -63.858589 
L 518.816296 -63.870961 
L 519.756485 -63.889279 
L 520.696673 -63.90736 
L 521.636862 -63.924789 
L 522.57705 -63.941154 
L 523.517239 -63.956063 
L 524.457428 -63.969141 
L 525.397616 -63.98005 
L 526.337805 -63.988487 
L 527.277993 -63.997078 
L 528.218182 -64.000686 
L 528.218182 -63.001091 
L 528.218182 -63.001091 
L 527.277993 -63.001091 
L 526.337805 -63.001091 
L 525.397616 -63.001091 
L 524.457428 -63.001091 
L 523.517239 -63.001091 
L 522.57705 -63.001091 
L 521.636862 -63.001091 
L 520.696673 -63.001091 
L 519.756485 -63.001091 
L 518.816296 -63.001091 
L 517.876107 -63.001091 
L 516.935919 -63.001091 
L 515.99573 -63.001091 
L 515.055542 -63.001091 
L 514.115353 -63.001091 
L 513.175165 -63.001091 
L 512.234976 -63.001091 
L 511.294787 -63.001091 
L 510.354599 -63.001091 
L 509.41441 -63.001091 
L 508.474222 -63.001091 
L 507.534033 -63.001091 
L 506.593845 -63.001091 
L 505.653656 -63.001091 
L 504.713467 -63.001091 
L 503.773279 -63.001091 
L 502.83309 -63.001091 
L 501.892902 -63.001091 
L 500.952713 -63.001091 
L 500.012524 -63.001091 
L 499.072336 -63.001091 
L 498.132147 -63.001091 
L 497.191959 -63.001091 
L 496.25177 -63.001091 
L 495.311582 -63.001091 
L 494.371393 -63.001091 
L 493.431204 -63.001091 
L 492.491016 -63.001091 
L 491.550827 -63.001091 
L 490.610639 -63.001091 
L 489.67045 -63.001091 
L 488.730262 -63.001091 
L 487.790073 -63.001091 
L 486.849884 -63.001091 
L 485.909696 -63.001091 
L 484.969507 -63.001091 
L 484.029319 -63.001091 
L 483.08913 -63.001091 
L 482.148941 -63.001091 
L 481.208753 -63.001091 
L 480.268564 -63.001091 
L 479.328376 -63.001091 
L 478.388187 -63.001091 
L 477.447999 -63.001091 
L 476.50781 -63.001091 
L 475.567621 -63.001091 
L 474.627433 -63.001091 
L 473.687244 -63.001091 
L 472.747056 -63.001091 
L 471.806867 -63.001091 
L 470.866679 -63.001091 
L 469.92649 -63.001091 
L 468.986301 -63.001091 
L 468.046113 -63.001091 
L 467.105924 -63.001091 
L 466.165736 -63.001091 
L 465.225547 -63.001091 
L 464.285358 -63.001091 
L 463.34517 -63.001091 
L 462.404981 -63.001091 
L 461.464793 -63.001091 
L 460.524604 -63.001091 
L 459.584416 -63.001091 
L 458.644227 -63.001091 
L 457.704038 -63.001091 
L 456.76385 -63.001091 
L 455.823661 -63.001091 
L 454.883473 -63.001091 
L 453.943284 -63.001091 
L 453.003096 -63.001091 
L 452.062907 -63.001091 
L 451.122718 -63.001091 
L 450.18253 -63.001091 
L 449.242341 -63.001091 
L 448.302153 -63.001091 
L 447.361964 -63.001091 
L 446.421775 -63.001091 
L 445.481587 -63.001091 
L 444.541398 -63.001091 
L 443.60121 -63.001091 
L 442.661021 -63.001091 
L 441.720833 -63.001091 
L 440.780644 -63.001091 
L 439.840455 -63.001091 
L 438.900267 -63.001091 
L 437.960078 -63.001091 
L 437.01989 -63.001091 
L 436.079701 -63.001091 
L 435.139513 -63.001091 
L 434.199324 -63.001091 
L 433.259135 -63.001091 
L 432.318947 -63.001091 
L 431.378758 -63.001091 
L 430.43857 -63.001091 
L 429.498381 -63.001091 
L 428.558192 -63.001091 
L 427.618004 -63.001091 
L 426.677815 -63.001091 
L 425.737627 -63.001091 
L 424.797438 -63.001091 
L 423.85725 -63.001091 
L 422.917061 -63.001091 
L 421.976872 -63.001091 
L 421.036684 -63.001091 
L 420.096495 -63.001091 
L 419.156307 -63.001091 
L 418.216118 -63.001091 
L 417.27593 -63.001091 
L 416.335741 -63.001091 
L 415.395552 -63.001091 
L 414.455364 -63.001091 
L 413.515175 -63.001091 
L 412.574987 -63.001091 
L 411.634798 -63.001091 
L 410.69461 -63.001091 
L 409.754421 -63.001091 
L 408.814232 -63.001091 
L 407.874044 -63.001091 
L 406.933855 -63.001091 
L 405.993667 -63.001091 
L 405.053478 -63.001091 
L 404.113289 -63.001091 
L 403.173101 -63.001091 
L 402.232912 -63.001091 
L 401.292724 -63.001091 
L 400.352535 -63.001091 
L 399.412347 -63.001091 
L 398.472158 -63.001091 
L 397.531969 -63.001091 
L 396.591781 -63.001091 
L 395.651592 -63.001091 
L 394.711404 -63.001091 
L 393.771215 -63.001091 
L 392.831027 -63.001091 
L 391.890838 -63.001091 
L 390.950649 -63.001091 
L 390.010461 -63.001091 
L 389.070272 -63.001091 
L 388.130084 -63.001091 
L 387.189895 -63.001091 
L 386.249706 -63.001091 
L 385.309518 -63.001091 
L 384.369329 -63.001091 
L 383.429141 -63.001091 
L 382.488952 -63.001091 
L 381.548764 -63.001091 
L 380.608575 -63.001091 
L 379.668386 -63.001091 
L 378.728198 -63.001091 
L 377.788009 -63.001091 
L 376.847821 -63.001091 
L 375.907632 -63.001091 
L 374.967444 -63.001091 
L 374.027255 -63.001091 
L 373.087066 -63.001091 
L 372.146878 -63.001091 
L 371.206689 -63.001091 
L 370.266501 -63.001091 
L 369.326312 -63.001091 
L 368.386123 -63.001091 
L 367.445935 -63.001091 
L 366.505746 -63.001091 
L 365.565558 -63.001091 
L 364.625369 -63.001091 
L 363.685181 -63.001091 
L 362.744992 -63.001091 
L 361.804803 -63.001091 
L 360.864615 -63.001091 
L 359.924426 -63.001091 
L 358.984238 -63.001091 
L 358.044049 -63.001091 
L 357.103861 -63.001091 
L 356.163672 -63.001091 
L 355.223483 -63.001091 
L 354.283295 -63.001091 
L 353.343106 -63.001091 
L 352.402918 -63.001091 
L 351.462729 -63.001091 
L 350.52254 -63.001091 
L 349.582352 -63.001091 
L 348.642163 -63.001091 
L 347.701975 -63.001091 
L 346.761786 -63.001091 
L 345.821598 -63.001091 
L 344.881409 -63.001091 
L 343.94122 -63.001091 
L 343.001032 -63.001091 
L 342.060843 -63.001091 
L 341.120655 -63.001091 
L 340.180466 -63.001091 
L 339.240278 -63.001091 
L 338.300089 -63.001091 
L 337.3599 -63.001091 
L 336.419712 -63.001091 
L 335.479523 -63.001091 
L 334.539335 -63.001091 
L 333.599146 -63.001091 
L 332.658957 -63.001091 
L 331.718769 -63.001091 
L 330.77858 -63.001091 
L 329.838392 -63.001091 
L 328.898203 -63.001091 
L 327.958015 -63.001091 
L 327.017826 -63.001091 
L 326.077637 -63.001091 
L 325.137449 -63.001091 
L 324.19726 -63.001091 
L 323.257072 -63.001091 
L 322.316883 -63.001091 
L 321.376695 -63.001091 
L 320.436506 -63.001091 
L 319.496317 -63.001091 
L 318.556129 -63.001091 
L 317.61594 -63.001091 
L 316.675752 -63.001091 
L 315.735563 -63.001091 
L 314.795374 -63.001091 
L 313.855186 -63.001091 
L 312.914997 -63.001091 
L 311.974809 -63.001091 
L 311.03462 -63.001091 
L 310.094432 -63.001091 
L 309.154243 -63.001091 
L 308.214054 -63.001091 
L 307.273866 -63.001091 
L 306.333677 -63.001091 
L 305.393489 -63.001091 
L 304.4533 -63.001091 
L 303.513112 -63.001091 
L 302.572923 -63.001091 
L 301.632734 -63.001091 
L 300.692546 -63.001091 
L 299.752357 -63.001091 
L 298.812169 -63.001091 
L 297.87198 -63.001091 
L 296.931791 -63.001091 
L 295.991603 -63.001091 
L 295.051414 -63.001091 
L 294.111226 -63.001091 
L 293.171037 -63.001091 
L 292.230849 -63.001091 
L 291.29066 -63.001091 
L 290.350471 -63.001091 
L 289.410283 -63.001091 
L 288.470094 -63.001091 
L 287.529906 -63.001091 
L 286.589717 -63.001091 
L 285.649529 -63.001091 
L 284.70934 -63.001091 
L 283.769151 -63.001091 
L 282.828963 -63.001091 
L 281.888774 -63.001091 
L 280.948586 -63.001091 
L 280.008397 -63.001091 
L 279.068209 -63.001091 
L 278.12802 -63.001091 
L 277.187831 -63.001091 
L 276.247643 -63.001091 
L 275.307454 -63.001091 
L 274.367266 -63.001091 
L 273.427077 -63.001091 
L 272.486888 -63.001091 
L 271.5467 -63.001091 
L 270.606511 -63.001091 
L 269.666323 -63.001091 
L 268.726134 -63.001091 
L 267.785946 -63.001091 
L 266.845757 -63.001091 
L 265.905568 -63.001091 
L 264.96538 -63.001091 
L 264.025191 -63.001091 
L 263.085003 -63.001091 
L 262.144814 -63.001091 
L 261.204626 -63.001091 
L 260.264437 -63.001091 
L 259.324248 -63.001091 
L 258.38406 -63.001091 
L 257.443871 -63.001091 
L 256.503683 -63.001091 
L 255.563494 -63.001091 
L 254.623305 -63.001091 
L 253.683117 -63.001091 
L 252.742928 -63.001091 
L 251.80274 -63.001091 
L 250.862551 -63.001091 
L 249.922363 -63.001091 
L 248.982174 -63.001091 
L 248.041985 -63.001091 
L 247.101797 -63.001091 
L 246.161608 -63.001091 
L 245.22142 -63.001091 
L 244.281231 -63.001091 
L 243.341043 -63.001091 
L 242.400854 -63.001091 
L 241.460665 -63.001091 
L 240.520477 -63.001091 
L 239.580288 -63.001091 
L 238.6401 -63.001091 
L 237.699911 -63.001091 
L 236.759722 -63.001091 
L 235.819534 -63.001091 
L 234.879345 -63.001091 
L 233.939157 -63.001091 
L 232.998968 -63.001091 
L 232.05878 -63.001091 
L 231.118591 -63.001091 
L 230.178402 -63.001091 
L 229.238214 -63.001091 
L 228.298025 -63.001091 
L 227.357837 -63.001091 
L 226.417648 -63.001091 
L 225.47746 -63.001091 
L 224.537271 -63.001091 
L 223.597082 -63.001091 
L 222.656894 -63.001091 
L 221.716705 -63.001091 
L 220.776517 -63.001091 
L 219.836328 -63.001091 
L 218.896139 -63.001091 
L 217.955951 -63.001091 
L 217.015762 -63.001091 
L 216.075574 -63.001091 
L 215.135385 -63.001091 
L 214.195197 -63.001091 
L 213.255008 -63.001091 
L 212.314819 -63.001091 
L 211.374631 -63.001091 
L 210.434442 -63.001091 
L 209.494254 -63.001091 
L 208.554065 -63.001091 
L 207.613877 -63.001091 
L 206.673688 -63.001091 
L 205.733499 -63.001091 
L 204.793311 -63.001091 
L 203.853122 -63.001091 
L 202.912934 -63.001091 
L 201.972745 -63.001091 
L 201.032556 -63.001091 
L 200.092368 -63.001091 
L 199.152179 -63.001091 
L 198.211991 -63.001091 
L 197.271802 -63.001091 
L 196.331614 -63.001091 
L 195.391425 -63.001091 
L 194.451236 -63.001091 
L 193.511048 -63.001091 
L 192.570859 -63.001091 
L 191.630671 -63.001091 
L 190.690482 -63.001091 
L 189.750294 -63.001091 
L 188.810105 -63.001091 
L 187.869916 -63.001091 
L 186.929728 -63.001091 
L 185.989539 -63.001091 
L 185.049351 -63.001091 
L 184.109162 -63.001091 
L 183.168973 -63.001091 
L 182.228785 -63.001091 
L 181.288596 -63.001091 
L 180.348408 -63.001091 
L 179.408219 -63.001091 
L 178.468031 -63.001091 
L 177.527842 -63.001091 
L 176.587653 -63.001091 
L 175.647465 -63.001091 
L 174.707276 -63.001091 
L 173.767088 -63.001091 
L 172.826899 -63.001091 
L 171.886711 -63.001091 
L 170.946522 -63.001091 
L 170.006333 -63.001091 
L 169.066145 -63.001091 
L 168.125956 -63.001091 
L 167.185768 -63.001091 
L 166.245579 -63.001091 
L 165.30539 -63.001091 
L 164.365202 -63.001091 
L 163.425013 -63.001091 
L 162.484825 -63.001091 
L 161.544636 -63.001091 
L 160.604448 -63.001091 
L 159.664259 -63.001091 
L 158.72407 -63.001091 
L 157.783882 -63.001091 
L 156.843693 -63.001091 
L 155.903505 -63.001091 
L 154.963316 -63.001091 
L 154.023128 -63.001091 
L 153.082939 -63.001091 
L 152.14275 -63.001091 
L 151.202562 -63.001091 
L 150.262373 -63.001091 
L 149.322185 -63.001091 
L 148.381996 -63.001091 
L 147.441808 -63.001091 
L 146.501619 -63.001091 
L 145.56143 -63.001091 
L 144.621242 -63.001091 
L 143.681053 -63.001091 
L 142.740865 -63.001091 
L 141.800676 -63.001091 
L 140.860487 -63.001091 
L 139.920299 -63.001091 
L 138.98011 -63.001091 
L 138.039922 -63.001091 
L 137.099733 -63.001091 
L 136.159545 -63.001091 
L 135.219356 -63.001091 
L 134.279167 -63.001091 
L 133.338979 -63.001091 
L 132.39879 -63.001091 
L 131.458602 -63.001091 
L 130.518413 -63.001091 
L 129.578225 -63.001091 
L 128.638036 -63.001091 
L 127.697847 -63.001091 
L 126.757659 -63.001091 
L 125.81747 -63.001091 
L 124.877282 -63.001091 
L 123.937093 -63.001091 
L 122.996904 -63.001091 
L 122.056716 -63.001091 
L 121.116527 -63.001091 
L 120.176339 -63.001091 
L 119.23615 -63.001091 
L 118.295962 -63.001091 
L 117.355773 -63.001091 
L 116.415584 -63.001091 
L 115.475396 -63.001091 
L 114.535207 -63.001091 
L 113.595019 -63.001091 
L 112.65483 -63.001091 
L 111.714642 -63.001091 
L 110.774453 -63.001091 
L 109.834264 -63.001091 
L 108.894076 -63.001091 
L 107.953887 -63.001091 
L 107.013699 -63.001091 
L 106.07351 -63.001091 
L 105.133321 -63.001091 
L 104.193133 -63.001091 
L 103.252944 -63.001091 
L 102.312756 -63.001091 
L 101.372567 -63.001091 
L 100.432379 -63.001091 
L 99.49219 -63.001091 
L 98.552001 -63.001091 
L 97.611813 -63.001091 
L 96.671624 -63.001091 
L 95.731436 -63.001091 
L 94.791247 -63.001091 
L 93.851059 -63.001091 
L 92.91087 -63.001091 
L 91.970681 -63.001091 
L 91.030493 -63.001091 
L 90.090304 -63.001091 
L 89.150116 -63.001091 
L 88.209927 -63.001091 
L 87.269738 -63.001091 
L 86.32955 -63.001091 
L 85.389361 -63.001091 
L 84.449173 -63.001091 
L 83.508984 -63.001091 
L 82.568796 -63.001091 
L 81.628607 -63.001091 
L 80.688418 -63.001091 
L 79.74823 -63.001091 
L 78.808041 -63.001091 
L 77.867853 -63.001091 
L 76.927664 -63.001091 
L 75.987476 -63.001091 
L 75.047287 -63.001091 
L 74.107098 -63.001091 
L 73.16691 -63.001091 
L 72.226721 -63.001091 
L 71.286533 -63.001091 
L 70.346344 -63.001091 
L 69.406155 -63.001091 
L 68.465967 -63.001091 
L 67.525778 -63.001091 
L 66.58559 -63.001091 
L 65.645401 -63.001091 
L 64.705213 -63.001091 
L 63.765024 -63.001091 
L 62.824835 -63.001091 
L 61.884647 -63.001091 
L 60.944458 -63.001091 
L 60.00427 -63.001091 
L 59.064081 -63.001091 
L 58.123893 -63.001091 
L 57.183704 -63.001091 
L 56.243515 -63.001091 
L 55.303327 -63.001091 
L 54.363138 -63.001091 
L 53.42295 -63.001091 
L 52.482761 -63.001091 
L 51.542572 -63.001091 
L 50.602384 -63.001091 
L 49.662195 -63.001091 
L 48.722007 -63.001091 
L 47.781818 -63.001091 
z
"/>
    </defs>
    <g clip-path="url(#p06b24b51ee)">
     <use xlink:href="#m3277178584" x="0" y="432" style="fill: #51d7c1; fill-opacity: 0.6"/>
    </g>
   </g>
   <g id="line2d_21">
    <path d="M 47.781818 368.054573 
L 59.064081 368.17728 
L 76.927664 368.365855 
L 89.150116 368.287727 
L 94.791247 368.047794 
L 99.49219 367.639645 
L 104.193133 366.979991 
L 109.834264 365.901449 
L 122.996904 362.939714 
L 127.697847 361.719837 
L 131.458602 360.470651 
L 134.279167 359.328497 
L 137.099733 357.972273 
L 140.860487 355.874064 
L 145.56143 352.908374 
L 165.30539 339.902659 
L 168.125956 337.788968 
L 170.946522 335.45558 
L 173.767088 332.798491 
L 176.587653 329.74404 
L 178.468031 327.447012 
L 180.348408 324.922672 
L 183.168973 320.721348 
L 185.989539 316.037069 
L 189.750294 309.196288 
L 194.451236 300.038159 
L 201.032556 286.673111 
L 204.793311 278.538434 
L 208.554065 269.827771 
L 212.314819 260.39255 
L 216.075574 250.308589 
L 222.656894 232.649052 
L 226.417648 223.324342 
L 230.178402 214.773914 
L 239.580288 193.911457 
L 242.400854 186.738619 
L 245.22142 178.837508 
L 248.041985 170.166807 
L 251.80274 157.77313 
L 258.38406 135.68519 
L 261.204626 126.988066 
L 264.025191 119.101597 
L 266.845757 112.23187 
L 268.726134 108.260179 
L 270.606511 104.748327 
L 272.486888 101.680306 
L 274.367266 99.036576 
L 276.247643 96.714481 
L 278.12802 94.763473 
L 280.008397 93.054306 
L 281.888774 91.574704 
L 284.70934 89.737847 
L 289.410283 87.210802 
L 294.111226 84.671418 
L 296.931791 82.836743 
L 300.692546 79.97214 
L 307.273866 74.560361 
L 309.154243 73.365325 
L 310.094432 72.887078 
L 311.974809 72.311277 
L 313.855186 72.177091 
L 314.795374 72.305622 
L 315.735563 72.619092 
L 317.61594 73.688096 
L 319.496317 75.308275 
L 320.436506 76.295596 
L 322.316883 78.762933 
L 324.19726 81.654936 
L 326.077637 84.95605 
L 327.958015 88.597291 
L 330.77858 94.556898 
L 333.599146 101.037814 
L 337.3599 110.267075 
L 341.120655 120.292326 
L 345.821598 133.622553 
L 351.462729 150.404414 
L 358.044049 170.679036 
L 363.685181 188.650332 
L 369.326312 206.683692 
L 373.087066 218.04118 
L 375.907632 226.029663 
L 378.728198 233.468408 
L 382.488952 242.674541 
L 386.249706 251.400771 
L 391.890838 264.003735 
L 395.651592 271.92963 
L 398.472158 277.467384 
L 401.292724 282.624119 
L 404.113289 287.397367 
L 414.455364 304.563845 
L 418.216118 311.606634 
L 426.677815 327.831382 
L 429.498381 332.619863 
L 431.378758 335.461361 
L 433.259135 338.029248 
L 435.139513 340.310545 
L 437.01989 342.319489 
L 439.840455 344.878002 
L 442.661021 346.984141 
L 446.421775 349.34482 
L 451.122718 351.87699 
L 455.823661 354.146273 
L 460.524604 356.145414 
L 464.285358 357.515666 
L 468.986301 358.980164 
L 482.148941 362.91053 
L 489.67045 365.275422 
L 493.431204 366.27117 
L 497.191959 367.023021 
L 500.952713 367.572915 
L 505.653656 367.990028 
L 510.354599 368.157493 
L 516.935919 368.157293 
L 528.218182 367.999314 
L 528.218182 367.999314 
" clip-path="url(#p06b24b51ee)" style="fill: none; stroke: #51d7c1; stroke-width: 1.5; stroke-linecap: round"/>
   </g>
   <g id="line2d_22">
    <path d="M 200.270026 362.765651 
L 406.160304 362.765651 
" clip-path="url(#p06b24b51ee)" style="fill: none; stroke: #51d7c1; stroke-width: 3.5; stroke-linecap: round"/>
   </g>
   <g id="patch_3">
    <path d="M 23.76 383.84 
L 552.24 383.84 
" style="fill: none; stroke: #333333; stroke-width: 1.5; stroke-linejoin: miter; stroke-linecap: square"/>
   </g>
   <g id="text_8">
    <!-- $x_1^3x_3$ -->
    <g style="fill: #262626" transform="translate(257.48 49.496)">
     <text>
      <tspan x="0" y="-0.734375" style="font-style: oblique; font-size: 28px; font-family: 'DejaVu Sans'; fill: #262626">x</tspan>
      <tspan x="31.056576" y="-0.734375" style="font-style: oblique; font-size: 28px; font-family: 'DejaVu Sans'; fill: #262626">x</tspan>
      <tspan x="16.570312" y="6.921875" style="font-size: 19.6px; font-family: 'DejaVu Sans'; fill: #262626">1</tspan>
      <tspan x="17.820833" y="-11.453125" style="font-size: 19.6px; font-family: 'DejaVu Sans'; fill: #262626">3</tspan>
      <tspan x="47.626888" y="3.859375" style="font-size: 19.6px; font-family: 'DejaVu Sans'; fill: #262626">3</tspan>
     </text>
    </g>
   </g>
  </g>
 </g>
 <defs>
  <clipPath id="p06b24b51ee">
   <rect x="23.76" y="57.336" width="528.48" height="326.504"/>
  </clipPath>
 </defs>
</svg>
