<?xml version="1.0" encoding="utf-8" standalone="no"?>
<!DOCTYPE svg PUBLIC "-//W3C//DTD SVG 1.1//EN"
  "http://www.w3.org/Graphics/SVG/1.1/DTD/svg11.dtd">
<svg xmlns:xlink="http://www.w3.org/1999/xlink" width="576pt" height="432pt" viewBox="0 0 576 432" xmlns="http://www.w3.org/2000/svg" version="1.1">
 <metadata>
  <rdf:RDF xmlns:dc="http://purl.org/dc/elements/1.1/" xmlns:cc="http://creativecommons.org/ns#" xmlns:rdf="http://www.w3.org/1999/02/22-rdf-syntax-ns#">
   <cc:Work>
    <dc:type rdf:resource="http://purl.org/dc/dcmitype/StillImage"/>
    <dc:date>2025-09-23T14:40:25.978625</dc:date>
    <dc:format>image/svg+xml</dc:format>
    <dc:creator>
     <cc:Agent>
      <dc:title>Matplotlib v3.10.0, https://matplotlib.org/</dc:title>
     </cc:Agent>
    </dc:creator>
   </cc:Work>
  </rdf:RDF>
 </metadata>
 <defs>
  <style type="text/css">*{stroke-linejoin: round; stroke-linecap: butt}</style>
 </defs>
 <g id="figure_1">
  <g id="patch_1">
   <path d="M 0 432 
L 576 432 
L 576 0 
L 0 0 
L 0 432 
z
" style="fill: none; opacity: 0"/>
  </g>
  <g id="axes_1">
   <g id="patch_2">
    <path d="M 23.76 383.84 
L 552.24 383.84 
L 552.24 57.648 
L 23.76 57.648 
L 23.76 383.84 
z
" style="fill: none"/>
   </g>
   <g id="matplotlib.axis_1">
    <g id="xtick_1">
     <g id="line2d_1">
      <path d="M 71.710087 383.84 
L 71.710087 57.648 
" clip-path="url(#p7ae81e3e6a)" style="fill: none; stroke: #ffffff; stroke-opacity: 0.4; stroke-linecap: round"/>
     </g>
     <g id="line2d_2"/>
     <g id="text_1">
      <text style="font-size: 18px; font-family: 'DejaVu Serif', 'Times New Roman', serif; text-anchor: middle; fill: #262626" x="71.710087" y="404.517187" transform="rotate(-0 71.710087 404.517187)">−10</text>
     </g>
    </g>
    <g id="xtick_2">
     <g id="line2d_3">
      <path d="M 183.333025 383.84 
L 183.333025 57.648 
" clip-path="url(#p7ae81e3e6a)" style="fill: none; stroke: #ffffff; stroke-opacity: 0.4; stroke-linecap: round"/>
     </g>
     <g id="line2d_4"/>
     <g id="text_2">
      <text style="font-size: 18px; font-family: 'DejaVu Serif', 'Times New Roman', serif; text-anchor: middle; fill: #262626" x="183.333025" y="404.517187" transform="rotate(-0 183.333025 404.517187)">−5</text>
     </g>
    </g>
    <g id="xtick_3">
     <g id="line2d_5">
      <path d="M 294.955963 383.84 
L 294.955963 57.648 
" clip-path="url(#p7ae81e3e6a)" style="fill: none; stroke: #ffffff; stroke-opacity: 0.4; stroke-linecap: round"/>
     </g>
     <g id="line2d_6"/>
     <g id="text_3">
      <text style="font-size: 18px; font-family: 'DejaVu Serif', 'Times New Roman', serif; text-anchor: middle; fill: #262626" x="294.955963" y="404.517187" transform="rotate(-0 294.955963 404.517187)">0</text>
     </g>
    </g>
    <g id="xtick_4">
     <g id="line2d_7">
      <path d="M 406.578901 383.84 
L 406.578901 57.648 
" clip-path="url(#p7ae81e3e6a)" style="fill: none; stroke: #ffffff; stroke-opacity: 0.4; stroke-linecap: round"/>
     </g>
     <g id="line2d_8"/>
     <g id="text_4">
      <text style="font-size: 18px; font-family: 'DejaVu Serif', 'Times New Roman', serif; text-anchor: middle; fill: #262626" x="406.578901" y="404.517187" transform="rotate(-0 406.578901 404.517187)">5</text>
     </g>
    </g>
    <g id="xtick_5">
     <g id="line2d_9">
      <path d="M 518.20184 383.84 
L 518.20184 57.648 
" clip-path="url(#p7ae81e3e6a)" style="fill: none; stroke: #ffffff; stroke-opacity: 0.4; stroke-linecap: round"/>
     </g>
     <g id="line2d_10"/>
     <g id="text_5">
      <text style="font-size: 18px; font-family: 'DejaVu Serif', 'Times New Roman', serif; text-anchor: middle; fill: #262626" x="518.20184" y="404.517187" transform="rotate(-0 518.20184 404.517187)">10</text>
     </g>
    </g>
   </g>
   <g id="matplotlib.axis_2">
    <g id="ytick_1">
     <g id="line2d_11">
      <path d="M 23.76 369.013091 
L 552.24 369.013091 
" clip-path="url(#p7ae81e3e6a)" style="fill: none; stroke: #ffffff; stroke-opacity: 0.4; stroke-linecap: round"/>
     </g>
    </g>
    <g id="ytick_2">
     <g id="line2d_12">
      <path d="M 23.76 321.989458 
L 552.24 321.989458 
" clip-path="url(#p7ae81e3e6a)" style="fill: none; stroke: #ffffff; stroke-opacity: 0.4; stroke-linecap: round"/>
     </g>
    </g>
    <g id="ytick_3">
     <g id="line2d_13">
      <path d="M 23.76 274.965825 
L 552.24 274.965825 
" clip-path="url(#p7ae81e3e6a)" style="fill: none; stroke: #ffffff; stroke-opacity: 0.4; stroke-linecap: round"/>
     </g>
    </g>
    <g id="ytick_4">
     <g id="line2d_14">
      <path d="M 23.76 227.942192 
L 552.24 227.942192 
" clip-path="url(#p7ae81e3e6a)" style="fill: none; stroke: #ffffff; stroke-opacity: 0.4; stroke-linecap: round"/>
     </g>
    </g>
    <g id="ytick_5">
     <g id="line2d_15">
      <path d="M 23.76 180.918559 
L 552.24 180.918559 
" clip-path="url(#p7ae81e3e6a)" style="fill: none; stroke: #ffffff; stroke-opacity: 0.4; stroke-linecap: round"/>
     </g>
    </g>
    <g id="ytick_6">
     <g id="line2d_16">
      <path d="M 23.76 133.894926 
L 552.24 133.894926 
" clip-path="url(#p7ae81e3e6a)" style="fill: none; stroke: #ffffff; stroke-opacity: 0.4; stroke-linecap: round"/>
     </g>
    </g>
    <g id="ytick_7">
     <g id="line2d_17">
      <path d="M 23.76 86.871293 
L 552.24 86.871293 
" clip-path="url(#p7ae81e3e6a)" style="fill: none; stroke: #ffffff; stroke-opacity: 0.4; stroke-linecap: round"/>
     </g>
    </g>
   </g>
   <g id="FillBetweenPolyCollection_1">
    <defs>
     <path id="mb465f97f92" d="M 47.781818 -62.986909 
L 47.781818 -64.08041 
L 48.722007 -64.078255 
L 49.662195 -64.077226 
L 50.602384 -64.079712 
L 51.542572 -64.082755 
L 52.482761 -64.089668 
L 53.42295 -64.095281 
L 54.363138 -64.102287 
L 55.303327 -64.110954 
L 56.243515 -64.119111 
L 57.183704 -64.132413 
L 58.123893 -64.147981 
L 59.064081 -64.163579 
L 60.00427 -64.184758 
L 60.944458 -64.2085 
L 61.884647 -64.23483 
L 62.824835 -64.263697 
L 63.765024 -64.294963 
L 64.705213 -64.331528 
L 65.645401 -64.367708 
L 66.58559 -64.405589 
L 67.525778 -64.444756 
L 68.465967 -64.482304 
L 69.406155 -64.526237 
L 70.346344 -64.567516 
L 71.286533 -64.614273 
L 72.226721 -64.655191 
L 73.16691 -64.69465 
L 74.107098 -64.735307 
L 75.047287 -64.771354 
L 75.987476 -64.804881 
L 76.927664 -64.835609 
L 77.867853 -64.863336 
L 78.808041 -64.88794 
L 79.74823 -64.915625 
L 80.688418 -64.941918 
L 81.628607 -64.961124 
L 82.568796 -64.978468 
L 83.508984 -64.997522 
L 84.449173 -65.011008 
L 85.389361 -65.028086 
L 86.32955 -65.046372 
L 87.269738 -65.06597 
L 88.209927 -65.087676 
L 89.150116 -65.115385 
L 90.090304 -65.150685 
L 91.030493 -65.185939 
L 91.970681 -65.229801 
L 92.91087 -65.280576 
L 93.851059 -65.338911 
L 94.791247 -65.402227 
L 95.731436 -65.473214 
L 96.671624 -65.551975 
L 97.611813 -65.647809 
L 98.552001 -65.747465 
L 99.49219 -65.855686 
L 100.432379 -65.978479 
L 101.372567 -66.111674 
L 102.312756 -66.252167 
L 103.252944 -66.404708 
L 104.193133 -66.560686 
L 105.133321 -66.73099 
L 106.07351 -66.910905 
L 107.013699 -67.094454 
L 107.953887 -67.283435 
L 108.894076 -67.486492 
L 109.834264 -67.696014 
L 110.774453 -67.912321 
L 111.714642 -68.144352 
L 112.65483 -68.384107 
L 113.595019 -68.644648 
L 114.535207 -68.910465 
L 115.475396 -69.192042 
L 116.415584 -69.490962 
L 117.355773 -69.812059 
L 118.295962 -70.170507 
L 119.23615 -70.538444 
L 120.176339 -70.920996 
L 121.116527 -71.321068 
L 122.056716 -71.752955 
L 122.996904 -72.209766 
L 123.937093 -72.69245 
L 124.877282 -73.204927 
L 125.81747 -73.730668 
L 126.757659 -74.300412 
L 127.697847 -74.890151 
L 128.638036 -75.507199 
L 129.578225 -76.154514 
L 130.518413 -76.829498 
L 131.458602 -77.528729 
L 132.39879 -78.254034 
L 133.338979 -79.004652 
L 134.279167 -79.776538 
L 135.219356 -80.580213 
L 136.159545 -81.404278 
L 137.099733 -82.259225 
L 138.039922 -83.134339 
L 138.98011 -84.027687 
L 139.920299 -84.945706 
L 140.860487 -85.866525 
L 141.800676 -86.803011 
L 142.740865 -87.766463 
L 143.681053 -88.73339 
L 144.621242 -89.699836 
L 145.56143 -90.672994 
L 146.501619 -91.658287 
L 147.441808 -92.634555 
L 148.381996 -93.605843 
L 149.322185 -94.571326 
L 150.262373 -95.53176 
L 151.202562 -96.467229 
L 152.14275 -97.393844 
L 153.082939 -98.303452 
L 154.023128 -99.198748 
L 154.963316 -100.081091 
L 155.903505 -100.934718 
L 156.843693 -101.780028 
L 157.783882 -102.608475 
L 158.72407 -103.41256 
L 159.664259 -104.220318 
L 160.604448 -104.991972 
L 161.544636 -105.773944 
L 162.484825 -106.572803 
L 163.425013 -107.36228 
L 164.365202 -108.167802 
L 165.30539 -108.99604 
L 166.245579 -109.840098 
L 167.185768 -110.71373 
L 168.125956 -111.632239 
L 169.066145 -112.59797 
L 170.006333 -113.594094 
L 170.946522 -114.649112 
L 171.886711 -115.776942 
L 172.826899 -116.972419 
L 173.767088 -118.236214 
L 174.707276 -119.583118 
L 175.647465 -121.014364 
L 176.587653 -122.545402 
L 177.527842 -124.206713 
L 178.468031 -125.954964 
L 179.408219 -127.799635 
L 180.348408 -129.748088 
L 181.288596 -131.807857 
L 182.228785 -133.977888 
L 183.168973 -136.22726 
L 184.109162 -138.60445 
L 185.049351 -141.078822 
L 185.989539 -143.669205 
L 186.929728 -146.330024 
L 187.869916 -149.085135 
L 188.810105 -151.907886 
L 189.750294 -154.806953 
L 190.690482 -157.742527 
L 191.630671 -160.700137 
L 192.570859 -163.717386 
L 193.511048 -166.758984 
L 194.451236 -169.830167 
L 195.391425 -172.854096 
L 196.331614 -175.868633 
L 197.271802 -178.852774 
L 198.211991 -181.803002 
L 199.152179 -184.734532 
L 200.092368 -187.586365 
L 201.032556 -190.399834 
L 201.972745 -193.146133 
L 202.912934 -195.806871 
L 203.853122 -198.429357 
L 204.793311 -200.974559 
L 205.733499 -203.434485 
L 206.673688 -205.878624 
L 207.613877 -208.251771 
L 208.554065 -210.584839 
L 209.494254 -212.860007 
L 210.434442 -215.143318 
L 211.374631 -217.380585 
L 212.314819 -219.596261 
L 213.255008 -221.796225 
L 214.195197 -224.042728 
L 215.135385 -226.290703 
L 216.075574 -228.562526 
L 217.015762 -230.841836 
L 217.955951 -233.177908 
L 218.896139 -235.5499 
L 219.836328 -237.982241 
L 220.776517 -240.415301 
L 221.716705 -242.913826 
L 222.656894 -245.437012 
L 223.597082 -248.008335 
L 224.537271 -250.656234 
L 225.47746 -253.330178 
L 226.417648 -256.006989 
L 227.357837 -258.758136 
L 228.298025 -261.511625 
L 229.238214 -264.307521 
L 230.178402 -267.086906 
L 231.118591 -269.876769 
L 232.05878 -272.673749 
L 232.998968 -275.495791 
L 233.939157 -278.290774 
L 234.879345 -281.036814 
L 235.819534 -283.74466 
L 236.759722 -286.432569 
L 237.699911 -289.043609 
L 238.6401 -291.601554 
L 239.580288 -294.137142 
L 240.520477 -296.593542 
L 241.460665 -298.966879 
L 242.400854 -301.2613 
L 243.341043 -303.518358 
L 244.281231 -305.662109 
L 245.22142 -307.721556 
L 246.161608 -309.677988 
L 247.101797 -311.56663 
L 248.041985 -313.40702 
L 248.982174 -315.151187 
L 249.922363 -316.817981 
L 250.862551 -318.382989 
L 251.80274 -319.927599 
L 252.742928 -321.414383 
L 253.683117 -322.906021 
L 254.623305 -324.32286 
L 255.563494 -325.727047 
L 256.503683 -327.168451 
L 257.443871 -328.554581 
L 258.38406 -329.908023 
L 259.324248 -331.275507 
L 260.264437 -332.64821 
L 261.204626 -334.045584 
L 262.144814 -335.462075 
L 263.085003 -336.883043 
L 264.025191 -338.319379 
L 264.96538 -339.754566 
L 265.905568 -341.165964 
L 266.845757 -342.585094 
L 267.785946 -343.984481 
L 268.726134 -345.398606 
L 269.666323 -346.736137 
L 270.606511 -348.05521 
L 271.5467 -349.291031 
L 272.486888 -350.457711 
L 273.427077 -351.572782 
L 274.367266 -352.59503 
L 275.307454 -353.558385 
L 276.247643 -354.474014 
L 277.187831 -355.234109 
L 278.12802 -355.951838 
L 279.068209 -356.596173 
L 280.008397 -357.14571 
L 280.948586 -357.614938 
L 281.888774 -357.998079 
L 282.828963 -358.341079 
L 283.769151 -358.594428 
L 284.70934 -358.808558 
L 285.649529 -359.006288 
L 286.589717 -359.15258 
L 287.529906 -359.258804 
L 288.470094 -359.355741 
L 289.410283 -359.39145 
L 290.350471 -359.434395 
L 291.29066 -359.47926 
L 292.230849 -359.499936 
L 293.171037 -359.492387 
L 294.111226 -359.525091 
L 295.051414 -359.516829 
L 295.991603 -359.498736 
L 296.931791 -359.461214 
L 297.87198 -359.392442 
L 298.812169 -359.31751 
L 299.752357 -359.237271 
L 300.692546 -359.106313 
L 301.632734 -358.965877 
L 302.572923 -358.79847 
L 303.513112 -358.645151 
L 304.4533 -358.453087 
L 305.393489 -358.235822 
L 306.333677 -357.948589 
L 307.273866 -357.701066 
L 308.214054 -357.41574 
L 309.154243 -357.110956 
L 310.094432 -356.788713 
L 311.03462 -356.468737 
L 311.974809 -356.092779 
L 312.914997 -355.663659 
L 313.855186 -355.213074 
L 314.795374 -354.713217 
L 315.735563 -354.165564 
L 316.675752 -353.521463 
L 317.61594 -352.829372 
L 318.556129 -352.073635 
L 319.496317 -351.210306 
L 320.436506 -350.225323 
L 321.376695 -349.083314 
L 322.316883 -347.86262 
L 323.257072 -346.479934 
L 324.19726 -344.975769 
L 325.137449 -343.304381 
L 326.077637 -341.499981 
L 327.017826 -339.489168 
L 327.958015 -337.364821 
L 328.898203 -335.065813 
L 329.838392 -332.622312 
L 330.77858 -330.078241 
L 331.718769 -327.428863 
L 332.658957 -324.638659 
L 333.599146 -321.798217 
L 334.539335 -318.851308 
L 335.479523 -315.848532 
L 336.419712 -312.802762 
L 337.3599 -309.743717 
L 338.300089 -306.682604 
L 339.240278 -303.63337 
L 340.180466 -300.574861 
L 341.120655 -297.546077 
L 342.060843 -294.567661 
L 343.001032 -291.679455 
L 343.94122 -288.836286 
L 344.881409 -286.068396 
L 345.821598 -283.35933 
L 346.761786 -280.726691 
L 347.701975 -278.167957 
L 348.642163 -275.709968 
L 349.582352 -273.316506 
L 350.52254 -271.020766 
L 351.462729 -268.794501 
L 352.402918 -266.664989 
L 353.343106 -264.547202 
L 354.283295 -262.537631 
L 355.223483 -260.576179 
L 356.163672 -258.697342 
L 357.103861 -256.85475 
L 358.044049 -255.085673 
L 358.984238 -253.338424 
L 359.924426 -251.655985 
L 360.864615 -249.982275 
L 361.804803 -248.377419 
L 362.744992 -246.812219 
L 363.685181 -245.265682 
L 364.625369 -243.711954 
L 365.565558 -242.206686 
L 366.505746 -240.694183 
L 367.445935 -239.188881 
L 368.386123 -237.686414 
L 369.326312 -236.172178 
L 370.266501 -234.628259 
L 371.206689 -233.052664 
L 372.146878 -231.466253 
L 373.087066 -229.837333 
L 374.027255 -228.156587 
L 374.967444 -226.450089 
L 375.907632 -224.674588 
L 376.847821 -222.841912 
L 377.788009 -220.957745 
L 378.728198 -219.023462 
L 379.668386 -217.044242 
L 380.608575 -214.982209 
L 381.548764 -212.883659 
L 382.488952 -210.717128 
L 383.429141 -208.492556 
L 384.369329 -206.211741 
L 385.309518 -203.900517 
L 386.249706 -201.522588 
L 387.189895 -199.105648 
L 388.130084 -196.664326 
L 389.070272 -194.175463 
L 390.010461 -191.648434 
L 390.950649 -189.090763 
L 391.890838 -186.482321 
L 392.831027 -183.879514 
L 393.771215 -181.247238 
L 394.711404 -178.605904 
L 395.651592 -175.942903 
L 396.591781 -173.27209 
L 397.531969 -170.587176 
L 398.472158 -167.900701 
L 399.412347 -165.208464 
L 400.352535 -162.549066 
L 401.292724 -159.887523 
L 402.232912 -157.247625 
L 403.173101 -154.606447 
L 404.113289 -151.9961 
L 405.053478 -149.438233 
L 405.993667 -146.905339 
L 406.933855 -144.393743 
L 407.874044 -141.9546 
L 408.814232 -139.561448 
L 409.754421 -137.227339 
L 410.69461 -134.956325 
L 411.634798 -132.745116 
L 412.574987 -130.606911 
L 413.515175 -128.54834 
L 414.455364 -126.559258 
L 415.395552 -124.63633 
L 416.335741 -122.783815 
L 417.27593 -120.997127 
L 418.216118 -119.303584 
L 419.156307 -117.67663 
L 420.096495 -116.117065 
L 421.036684 -114.62208 
L 421.976872 -113.162396 
L 422.917061 -111.778003 
L 423.85725 -110.472816 
L 424.797438 -109.189826 
L 425.737627 -107.953544 
L 426.677815 -106.795055 
L 427.618004 -105.669033 
L 428.558192 -104.585732 
L 429.498381 -103.514299 
L 430.43857 -102.496416 
L 431.378758 -101.503807 
L 432.318947 -100.550218 
L 433.259135 -99.606612 
L 434.199324 -98.704395 
L 435.139513 -97.796348 
L 436.079701 -96.940305 
L 437.01989 -96.110208 
L 437.960078 -95.298674 
L 438.900267 -94.503339 
L 439.840455 -93.745065 
L 440.780644 -93.012122 
L 441.720833 -92.302808 
L 442.661021 -91.627369 
L 443.60121 -90.977257 
L 444.541398 -90.358572 
L 445.481587 -89.748618 
L 446.421775 -89.184784 
L 447.361964 -88.645888 
L 448.302153 -88.12661 
L 449.242341 -87.641745 
L 450.18253 -87.165672 
L 451.122718 -86.723302 
L 452.062907 -86.293068 
L 453.003096 -85.87386 
L 453.943284 -85.475459 
L 454.883473 -85.083208 
L 455.823661 -84.694555 
L 456.76385 -84.312236 
L 457.704038 -83.932208 
L 458.644227 -83.540229 
L 459.584416 -83.155045 
L 460.524604 -82.751309 
L 461.464793 -82.327771 
L 462.404981 -81.893551 
L 463.34517 -81.45568 
L 464.285358 -80.990487 
L 465.225547 -80.508999 
L 466.165736 -80.008016 
L 467.105924 -79.487978 
L 468.046113 -78.947406 
L 468.986301 -78.383427 
L 469.92649 -77.821341 
L 470.866679 -77.240252 
L 471.806867 -76.646637 
L 472.747056 -76.056805 
L 473.687244 -75.452806 
L 474.627433 -74.856802 
L 475.567621 -74.257463 
L 476.50781 -73.669085 
L 477.447999 -73.083922 
L 478.388187 -72.506199 
L 479.328376 -71.956651 
L 480.268564 -71.417636 
L 481.208753 -70.892679 
L 482.148941 -70.391969 
L 483.08913 -69.913738 
L 484.029319 -69.458995 
L 484.969507 -69.035709 
L 485.909696 -68.633558 
L 486.849884 -68.255955 
L 487.790073 -67.899797 
L 488.730262 -67.570243 
L 489.67045 -67.26128 
L 490.610639 -66.977664 
L 491.550827 -66.713053 
L 492.491016 -66.477492 
L 493.431204 -66.25677 
L 494.371393 -66.05785 
L 495.311582 -65.868743 
L 496.25177 -65.692599 
L 497.191959 -65.536519 
L 498.132147 -65.403362 
L 499.072336 -65.27809 
L 500.012524 -65.173834 
L 500.952713 -65.075794 
L 501.892902 -64.993537 
L 502.83309 -64.915441 
L 503.773279 -64.842072 
L 504.713467 -64.783494 
L 505.653656 -64.730374 
L 506.593845 -64.692358 
L 507.534033 -64.654934 
L 508.474222 -64.626176 
L 509.41441 -64.600105 
L 510.354599 -64.584132 
L 511.294787 -64.566889 
L 512.234976 -64.559584 
L 513.175165 -64.558845 
L 514.115353 -64.55591 
L 515.055542 -64.558362 
L 515.99573 -64.562819 
L 516.935919 -64.568992 
L 517.876107 -64.574138 
L 518.816296 -64.583336 
L 519.756485 -64.593145 
L 520.696673 -64.600798 
L 521.636862 -64.611365 
L 522.57705 -64.618978 
L 523.517239 -64.628733 
L 524.457428 -64.637233 
L 525.397616 -64.641782 
L 526.337805 -64.650666 
L 527.277993 -64.655194 
L 528.218182 -64.657666 
L 528.218182 -62.986909 
L 528.218182 -62.986909 
L 527.277993 -62.986909 
L 526.337805 -62.986909 
L 525.397616 -62.986909 
L 524.457428 -62.986909 
L 523.517239 -62.986909 
L 522.57705 -62.986909 
L 521.636862 -62.986909 
L 520.696673 -62.986909 
L 519.756485 -62.986909 
L 518.816296 -62.986909 
L 517.876107 -62.986909 
L 516.935919 -62.986909 
L 515.99573 -62.986909 
L 515.055542 -62.986909 
L 514.115353 -62.986909 
L 513.175165 -62.986909 
L 512.234976 -62.986909 
L 511.294787 -62.986909 
L 510.354599 -62.986909 
L 509.41441 -62.986909 
L 508.474222 -62.986909 
L 507.534033 -62.986909 
L 506.593845 -62.986909 
L 505.653656 -62.986909 
L 504.713467 -62.986909 
L 503.773279 -62.986909 
L 502.83309 -62.986909 
L 501.892902 -62.986909 
L 500.952713 -62.986909 
L 500.012524 -62.986909 
L 499.072336 -62.986909 
L 498.132147 -62.986909 
L 497.191959 -62.986909 
L 496.25177 -62.986909 
L 495.311582 -62.986909 
L 494.371393 -62.986909 
L 493.431204 -62.986909 
L 492.491016 -62.986909 
L 491.550827 -62.986909 
L 490.610639 -62.986909 
L 489.67045 -62.986909 
L 488.730262 -62.986909 
L 487.790073 -62.986909 
L 486.849884 -62.986909 
L 485.909696 -62.986909 
L 484.969507 -62.986909 
L 484.029319 -62.986909 
L 483.08913 -62.986909 
L 482.148941 -62.986909 
L 481.208753 -62.986909 
L 480.268564 -62.986909 
L 479.328376 -62.986909 
L 478.388187 -62.986909 
L 477.447999 -62.986909 
L 476.50781 -62.986909 
L 475.567621 -62.986909 
L 474.627433 -62.986909 
L 473.687244 -62.986909 
L 472.747056 -62.986909 
L 471.806867 -62.986909 
L 470.866679 -62.986909 
L 469.92649 -62.986909 
L 468.986301 -62.986909 
L 468.046113 -62.986909 
L 467.105924 -62.986909 
L 466.165736 -62.986909 
L 465.225547 -62.986909 
L 464.285358 -62.986909 
L 463.34517 -62.986909 
L 462.404981 -62.986909 
L 461.464793 -62.986909 
L 460.524604 -62.986909 
L 459.584416 -62.986909 
L 458.644227 -62.986909 
L 457.704038 -62.986909 
L 456.76385 -62.986909 
L 455.823661 -62.986909 
L 454.883473 -62.986909 
L 453.943284 -62.986909 
L 453.003096 -62.986909 
L 452.062907 -62.986909 
L 451.122718 -62.986909 
L 450.18253 -62.986909 
L 449.242341 -62.986909 
L 448.302153 -62.986909 
L 447.361964 -62.986909 
L 446.421775 -62.986909 
L 445.481587 -62.986909 
L 444.541398 -62.986909 
L 443.60121 -62.986909 
L 442.661021 -62.986909 
L 441.720833 -62.986909 
L 440.780644 -62.986909 
L 439.840455 -62.986909 
L 438.900267 -62.986909 
L 437.960078 -62.986909 
L 437.01989 -62.986909 
L 436.079701 -62.986909 
L 435.139513 -62.986909 
L 434.199324 -62.986909 
L 433.259135 -62.986909 
L 432.318947 -62.986909 
L 431.378758 -62.986909 
L 430.43857 -62.986909 
L 429.498381 -62.986909 
L 428.558192 -62.986909 
L 427.618004 -62.986909 
L 426.677815 -62.986909 
L 425.737627 -62.986909 
L 424.797438 -62.986909 
L 423.85725 -62.986909 
L 422.917061 -62.986909 
L 421.976872 -62.986909 
L 421.036684 -62.986909 
L 420.096495 -62.986909 
L 419.156307 -62.986909 
L 418.216118 -62.986909 
L 417.27593 -62.986909 
L 416.335741 -62.986909 
L 415.395552 -62.986909 
L 414.455364 -62.986909 
L 413.515175 -62.986909 
L 412.574987 -62.986909 
L 411.634798 -62.986909 
L 410.69461 -62.986909 
L 409.754421 -62.986909 
L 408.814232 -62.986909 
L 407.874044 -62.986909 
L 406.933855 -62.986909 
L 405.993667 -62.986909 
L 405.053478 -62.986909 
L 404.113289 -62.986909 
L 403.173101 -62.986909 
L 402.232912 -62.986909 
L 401.292724 -62.986909 
L 400.352535 -62.986909 
L 399.412347 -62.986909 
L 398.472158 -62.986909 
L 397.531969 -62.986909 
L 396.591781 -62.986909 
L 395.651592 -62.986909 
L 394.711404 -62.986909 
L 393.771215 -62.986909 
L 392.831027 -62.986909 
L 391.890838 -62.986909 
L 390.950649 -62.986909 
L 390.010461 -62.986909 
L 389.070272 -62.986909 
L 388.130084 -62.986909 
L 387.189895 -62.986909 
L 386.249706 -62.986909 
L 385.309518 -62.986909 
L 384.369329 -62.986909 
L 383.429141 -62.986909 
L 382.488952 -62.986909 
L 381.548764 -62.986909 
L 380.608575 -62.986909 
L 379.668386 -62.986909 
L 378.728198 -62.986909 
L 377.788009 -62.986909 
L 376.847821 -62.986909 
L 375.907632 -62.986909 
L 374.967444 -62.986909 
L 374.027255 -62.986909 
L 373.087066 -62.986909 
L 372.146878 -62.986909 
L 371.206689 -62.986909 
L 370.266501 -62.986909 
L 369.326312 -62.986909 
L 368.386123 -62.986909 
L 367.445935 -62.986909 
L 366.505746 -62.986909 
L 365.565558 -62.986909 
L 364.625369 -62.986909 
L 363.685181 -62.986909 
L 362.744992 -62.986909 
L 361.804803 -62.986909 
L 360.864615 -62.986909 
L 359.924426 -62.986909 
L 358.984238 -62.986909 
L 358.044049 -62.986909 
L 357.103861 -62.986909 
L 356.163672 -62.986909 
L 355.223483 -62.986909 
L 354.283295 -62.986909 
L 353.343106 -62.986909 
L 352.402918 -62.986909 
L 351.462729 -62.986909 
L 350.52254 -62.986909 
L 349.582352 -62.986909 
L 348.642163 -62.986909 
L 347.701975 -62.986909 
L 346.761786 -62.986909 
L 345.821598 -62.986909 
L 344.881409 -62.986909 
L 343.94122 -62.986909 
L 343.001032 -62.986909 
L 342.060843 -62.986909 
L 341.120655 -62.986909 
L 340.180466 -62.986909 
L 339.240278 -62.986909 
L 338.300089 -62.986909 
L 337.3599 -62.986909 
L 336.419712 -62.986909 
L 335.479523 -62.986909 
L 334.539335 -62.986909 
L 333.599146 -62.986909 
L 332.658957 -62.986909 
L 331.718769 -62.986909 
L 330.77858 -62.986909 
L 329.838392 -62.986909 
L 328.898203 -62.986909 
L 327.958015 -62.986909 
L 327.017826 -62.986909 
L 326.077637 -62.986909 
L 325.137449 -62.986909 
L 324.19726 -62.986909 
L 323.257072 -62.986909 
L 322.316883 -62.986909 
L 321.376695 -62.986909 
L 320.436506 -62.986909 
L 319.496317 -62.986909 
L 318.556129 -62.986909 
L 317.61594 -62.986909 
L 316.675752 -62.986909 
L 315.735563 -62.986909 
L 314.795374 -62.986909 
L 313.855186 -62.986909 
L 312.914997 -62.986909 
L 311.974809 -62.986909 
L 311.03462 -62.986909 
L 310.094432 -62.986909 
L 309.154243 -62.986909 
L 308.214054 -62.986909 
L 307.273866 -62.986909 
L 306.333677 -62.986909 
L 305.393489 -62.986909 
L 304.4533 -62.986909 
L 303.513112 -62.986909 
L 302.572923 -62.986909 
L 301.632734 -62.986909 
L 300.692546 -62.986909 
L 299.752357 -62.986909 
L 298.812169 -62.986909 
L 297.87198 -62.986909 
L 296.931791 -62.986909 
L 295.991603 -62.986909 
L 295.051414 -62.986909 
L 294.111226 -62.986909 
L 293.171037 -62.986909 
L 292.230849 -62.986909 
L 291.29066 -62.986909 
L 290.350471 -62.986909 
L 289.410283 -62.986909 
L 288.470094 -62.986909 
L 287.529906 -62.986909 
L 286.589717 -62.986909 
L 285.649529 -62.986909 
L 284.70934 -62.986909 
L 283.769151 -62.986909 
L 282.828963 -62.986909 
L 281.888774 -62.986909 
L 280.948586 -62.986909 
L 280.008397 -62.986909 
L 279.068209 -62.986909 
L 278.12802 -62.986909 
L 277.187831 -62.986909 
L 276.247643 -62.986909 
L 275.307454 -62.986909 
L 274.367266 -62.986909 
L 273.427077 -62.986909 
L 272.486888 -62.986909 
L 271.5467 -62.986909 
L 270.606511 -62.986909 
L 269.666323 -62.986909 
L 268.726134 -62.986909 
L 267.785946 -62.986909 
L 266.845757 -62.986909 
L 265.905568 -62.986909 
L 264.96538 -62.986909 
L 264.025191 -62.986909 
L 263.085003 -62.986909 
L 262.144814 -62.986909 
L 261.204626 -62.986909 
L 260.264437 -62.986909 
L 259.324248 -62.986909 
L 258.38406 -62.986909 
L 257.443871 -62.986909 
L 256.503683 -62.986909 
L 255.563494 -62.986909 
L 254.623305 -62.986909 
L 253.683117 -62.986909 
L 252.742928 -62.986909 
L 251.80274 -62.986909 
L 250.862551 -62.986909 
L 249.922363 -62.986909 
L 248.982174 -62.986909 
L 248.041985 -62.986909 
L 247.101797 -62.986909 
L 246.161608 -62.986909 
L 245.22142 -62.986909 
L 244.281231 -62.986909 
L 243.341043 -62.986909 
L 242.400854 -62.986909 
L 241.460665 -62.986909 
L 240.520477 -62.986909 
L 239.580288 -62.986909 
L 238.6401 -62.986909 
L 237.699911 -62.986909 
L 236.759722 -62.986909 
L 235.819534 -62.986909 
L 234.879345 -62.986909 
L 233.939157 -62.986909 
L 232.998968 -62.986909 
L 232.05878 -62.986909 
L 231.118591 -62.986909 
L 230.178402 -62.986909 
L 229.238214 -62.986909 
L 228.298025 -62.986909 
L 227.357837 -62.986909 
L 226.417648 -62.986909 
L 225.47746 -62.986909 
L 224.537271 -62.986909 
L 223.597082 -62.986909 
L 222.656894 -62.986909 
L 221.716705 -62.986909 
L 220.776517 -62.986909 
L 219.836328 -62.986909 
L 218.896139 -62.986909 
L 217.955951 -62.986909 
L 217.015762 -62.986909 
L 216.075574 -62.986909 
L 215.135385 -62.986909 
L 214.195197 -62.986909 
L 213.255008 -62.986909 
L 212.314819 -62.986909 
L 211.374631 -62.986909 
L 210.434442 -62.986909 
L 209.494254 -62.986909 
L 208.554065 -62.986909 
L 207.613877 -62.986909 
L 206.673688 -62.986909 
L 205.733499 -62.986909 
L 204.793311 -62.986909 
L 203.853122 -62.986909 
L 202.912934 -62.986909 
L 201.972745 -62.986909 
L 201.032556 -62.986909 
L 200.092368 -62.986909 
L 199.152179 -62.986909 
L 198.211991 -62.986909 
L 197.271802 -62.986909 
L 196.331614 -62.986909 
L 195.391425 -62.986909 
L 194.451236 -62.986909 
L 193.511048 -62.986909 
L 192.570859 -62.986909 
L 191.630671 -62.986909 
L 190.690482 -62.986909 
L 189.750294 -62.986909 
L 188.810105 -62.986909 
L 187.869916 -62.986909 
L 186.929728 -62.986909 
L 185.989539 -62.986909 
L 185.049351 -62.986909 
L 184.109162 -62.986909 
L 183.168973 -62.986909 
L 182.228785 -62.986909 
L 181.288596 -62.986909 
L 180.348408 -62.986909 
L 179.408219 -62.986909 
L 178.468031 -62.986909 
L 177.527842 -62.986909 
L 176.587653 -62.986909 
L 175.647465 -62.986909 
L 174.707276 -62.986909 
L 173.767088 -62.986909 
L 172.826899 -62.986909 
L 171.886711 -62.986909 
L 170.946522 -62.986909 
L 170.006333 -62.986909 
L 169.066145 -62.986909 
L 168.125956 -62.986909 
L 167.185768 -62.986909 
L 166.245579 -62.986909 
L 165.30539 -62.986909 
L 164.365202 -62.986909 
L 163.425013 -62.986909 
L 162.484825 -62.986909 
L 161.544636 -62.986909 
L 160.604448 -62.986909 
L 159.664259 -62.986909 
L 158.72407 -62.986909 
L 157.783882 -62.986909 
L 156.843693 -62.986909 
L 155.903505 -62.986909 
L 154.963316 -62.986909 
L 154.023128 -62.986909 
L 153.082939 -62.986909 
L 152.14275 -62.986909 
L 151.202562 -62.986909 
L 150.262373 -62.986909 
L 149.322185 -62.986909 
L 148.381996 -62.986909 
L 147.441808 -62.986909 
L 146.501619 -62.986909 
L 145.56143 -62.986909 
L 144.621242 -62.986909 
L 143.681053 -62.986909 
L 142.740865 -62.986909 
L 141.800676 -62.986909 
L 140.860487 -62.986909 
L 139.920299 -62.986909 
L 138.98011 -62.986909 
L 138.039922 -62.986909 
L 137.099733 -62.986909 
L 136.159545 -62.986909 
L 135.219356 -62.986909 
L 134.279167 -62.986909 
L 133.338979 -62.986909 
L 132.39879 -62.986909 
L 131.458602 -62.986909 
L 130.518413 -62.986909 
L 129.578225 -62.986909 
L 128.638036 -62.986909 
L 127.697847 -62.986909 
L 126.757659 -62.986909 
L 125.81747 -62.986909 
L 124.877282 -62.986909 
L 123.937093 -62.986909 
L 122.996904 -62.986909 
L 122.056716 -62.986909 
L 121.116527 -62.986909 
L 120.176339 -62.986909 
L 119.23615 -62.986909 
L 118.295962 -62.986909 
L 117.355773 -62.986909 
L 116.415584 -62.986909 
L 115.475396 -62.986909 
L 114.535207 -62.986909 
L 113.595019 -62.986909 
L 112.65483 -62.986909 
L 111.714642 -62.986909 
L 110.774453 -62.986909 
L 109.834264 -62.986909 
L 108.894076 -62.986909 
L 107.953887 -62.986909 
L 107.013699 -62.986909 
L 106.07351 -62.986909 
L 105.133321 -62.986909 
L 104.193133 -62.986909 
L 103.252944 -62.986909 
L 102.312756 -62.986909 
L 101.372567 -62.986909 
L 100.432379 -62.986909 
L 99.49219 -62.986909 
L 98.552001 -62.986909 
L 97.611813 -62.986909 
L 96.671624 -62.986909 
L 95.731436 -62.986909 
L 94.791247 -62.986909 
L 93.851059 -62.986909 
L 92.91087 -62.986909 
L 91.970681 -62.986909 
L 91.030493 -62.986909 
L 90.090304 -62.986909 
L 89.150116 -62.986909 
L 88.209927 -62.986909 
L 87.269738 -62.986909 
L 86.32955 -62.986909 
L 85.389361 -62.986909 
L 84.449173 -62.986909 
L 83.508984 -62.986909 
L 82.568796 -62.986909 
L 81.628607 -62.986909 
L 80.688418 -62.986909 
L 79.74823 -62.986909 
L 78.808041 -62.986909 
L 77.867853 -62.986909 
L 76.927664 -62.986909 
L 75.987476 -62.986909 
L 75.047287 -62.986909 
L 74.107098 -62.986909 
L 73.16691 -62.986909 
L 72.226721 -62.986909 
L 71.286533 -62.986909 
L 70.346344 -62.986909 
L 69.406155 -62.986909 
L 68.465967 -62.986909 
L 67.525778 -62.986909 
L 66.58559 -62.986909 
L 65.645401 -62.986909 
L 64.705213 -62.986909 
L 63.765024 -62.986909 
L 62.824835 -62.986909 
L 61.884647 -62.986909 
L 60.944458 -62.986909 
L 60.00427 -62.986909 
L 59.064081 -62.986909 
L 58.123893 -62.986909 
L 57.183704 -62.986909 
L 56.243515 -62.986909 
L 55.303327 -62.986909 
L 54.363138 -62.986909 
L 53.42295 -62.986909 
L 52.482761 -62.986909 
L 51.542572 -62.986909 
L 50.602384 -62.986909 
L 49.662195 -62.986909 
L 48.722007 -62.986909 
L 47.781818 -62.986909 
z
"/>
    </defs>
    <g clip-path="url(#p7ae81e3e6a)">
     <use xlink:href="#mb465f97f92" x="0" y="432" style="fill: #51d7c1; fill-opacity: 0.6"/>
    </g>
   </g>
   <g id="line2d_18">
    <path d="M 47.781818 367.91959 
L 59.064081 367.836421 
L 68.465967 367.517696 
L 79.74823 367.084375 
L 95.731436 366.526786 
L 100.432379 366.021521 
L 105.133321 365.26901 
L 110.774453 364.087679 
L 114.535207 363.089535 
L 117.355773 362.187941 
L 121.116527 360.678932 
L 123.937093 359.30755 
L 126.757659 357.699588 
L 129.578225 355.845486 
L 132.39879 353.745966 
L 135.219356 351.419787 
L 138.039922 348.865661 
L 141.800676 345.196989 
L 154.023128 332.801252 
L 157.783882 329.391525 
L 167.185768 321.28627 
L 170.006333 318.405906 
L 171.886711 316.223058 
L 173.767088 313.763786 
L 175.647465 310.985636 
L 177.527842 307.793287 
L 179.408219 304.200365 
L 181.288596 300.192143 
L 183.168973 295.77274 
L 185.049351 290.921178 
L 187.869916 282.914865 
L 191.630671 271.299863 
L 200.092368 244.413635 
L 202.912934 236.193129 
L 205.733499 228.565515 
L 208.554065 221.415161 
L 220.776517 191.584699 
L 224.537271 181.343766 
L 229.238214 167.692479 
L 237.699911 142.956391 
L 241.460665 133.033121 
L 244.281231 126.337891 
L 246.161608 122.322012 
L 248.982174 116.848813 
L 251.80274 112.072401 
L 256.503683 104.831549 
L 267.785946 88.015519 
L 270.606511 83.94479 
L 272.486888 81.542289 
L 274.367266 79.40497 
L 276.247643 77.525986 
L 278.12802 76.048162 
L 280.008397 74.85429 
L 281.888774 74.001921 
L 283.769151 73.405572 
L 286.589717 72.84742 
L 289.410283 72.60855 
L 294.111226 72.474909 
L 297.87198 72.607558 
L 300.692546 72.893687 
L 304.4533 73.546913 
L 307.273866 74.298934 
L 311.03462 75.531263 
L 312.914997 76.336341 
L 314.795374 77.286783 
L 316.675752 78.478537 
L 318.556129 79.926365 
L 320.436506 81.774677 
L 322.316883 84.13738 
L 324.19726 87.024231 
L 326.077637 90.500019 
L 327.958015 94.635179 
L 329.838392 99.377688 
L 331.718769 104.571137 
L 334.539335 113.148692 
L 344.881409 145.931604 
L 347.701975 153.832043 
L 350.52254 160.979234 
L 353.343106 167.452798 
L 356.163672 173.302658 
L 358.984238 178.661576 
L 362.744992 185.187781 
L 374.027255 203.843413 
L 376.847821 209.158088 
L 379.668386 214.955758 
L 382.488952 221.282872 
L 385.309518 228.099483 
L 389.070272 237.824537 
L 393.771215 250.752762 
L 407.874044 290.0454 
L 410.69461 297.043675 
L 413.515175 303.45166 
L 416.335741 309.216185 
L 418.216118 312.696416 
L 421.036684 317.37792 
L 422.917061 320.221997 
L 425.737627 324.046456 
L 428.558192 327.414268 
L 431.378758 330.496193 
L 435.139513 334.203652 
L 438.900267 337.496661 
L 441.720833 339.697192 
L 444.541398 341.641428 
L 447.361964 343.354112 
L 450.18253 344.834328 
L 453.943284 346.524541 
L 463.34517 350.54432 
L 467.105924 352.512022 
L 470.866679 354.759748 
L 480.268564 360.582364 
L 483.08913 362.086262 
L 485.909696 363.366442 
L 488.730262 364.429757 
L 491.550827 365.286947 
L 495.311582 366.131257 
L 498.132147 366.596638 
L 501.892902 367.006463 
L 506.593845 367.307642 
L 512.234976 367.440416 
L 528.218182 367.342334 
L 528.218182 367.342334 
" clip-path="url(#p7ae81e3e6a)" style="fill: none; stroke: #51d7c1; stroke-width: 1.5; stroke-linecap: round"/>
   </g>
   <g id="line2d_19">
    <path d="M 190.451023 362.785789 
L 404.421612 362.785789 
" clip-path="url(#p7ae81e3e6a)" style="fill: none; stroke: #51d7c1; stroke-width: 3.5; stroke-linecap: round"/>
   </g>
   <g id="patch_3">
    <path d="M 23.76 383.84 
L 552.24 383.84 
" style="fill: none; stroke: #333333; stroke-width: 1.5; stroke-linejoin: miter; stroke-linecap: square"/>
   </g>
   <g id="text_6">
    <!-- $x_2x_3^2$ -->
    <g style="fill: #262626" transform="translate(257.48 49.528)">
     <text>
      <tspan x="0" y="-0.734375" style="font-style: oblique; font-size: 28px; font-family: 'DejaVu Sans'; fill: #262626">x</tspan>
      <tspan x="29.806055" y="-0.734375" style="font-style: oblique; font-size: 28px; font-family: 'DejaVu Sans'; fill: #262626">x</tspan>
      <tspan x="16.570312" y="3.859375" style="font-size: 19.6px; font-family: 'DejaVu Sans'; fill: #262626">2</tspan>
      <tspan x="46.376367" y="6.921875" style="font-size: 19.6px; font-family: 'DejaVu Sans'; fill: #262626">3</tspan>
      <tspan x="47.626888" y="-11.453125" style="font-size: 19.6px; font-family: 'DejaVu Sans'; fill: #262626">2</tspan>
     </text>
    </g>
   </g>
  </g>
 </g>
 <defs>
  <clipPath id="p7ae81e3e6a">
   <rect x="23.76" y="57.648" width="528.48" height="326.192"/>
  </clipPath>
 </defs>
</svg>
