<?xml version="1.0" encoding="utf-8" standalone="no"?>
<!DOCTYPE svg PUBLIC "-//W3C//DTD SVG 1.1//EN"
  "http://www.w3.org/Graphics/SVG/1.1/DTD/svg11.dtd">
<svg xmlns:xlink="http://www.w3.org/1999/xlink" width="576pt" height="432pt" viewBox="0 0 576 432" xmlns="http://www.w3.org/2000/svg" version="1.1">
 <metadata>
  <rdf:RDF xmlns:dc="http://purl.org/dc/elements/1.1/" xmlns:cc="http://creativecommons.org/ns#" xmlns:rdf="http://www.w3.org/1999/02/22-rdf-syntax-ns#">
   <cc:Work>
    <dc:type rdf:resource="http://purl.org/dc/dcmitype/StillImage"/>
    <dc:date>2025-09-23T14:40:23.768912</dc:date>
    <dc:format>image/svg+xml</dc:format>
    <dc:creator>
     <cc:Agent>
      <dc:title>Matplotlib v3.10.0, https://matplotlib.org/</dc:title>
     </cc:Agent>
    </dc:creator>
   </cc:Work>
  </rdf:RDF>
 </metadata>
 <defs>
  <style type="text/css">*{stroke-linejoin: round; stroke-linecap: butt}</style>
 </defs>
 <g id="figure_1">
  <g id="patch_1">
   <path d="M 0 432 
L 576 432 
L 576 0 
L 0 0 
L 0 432 
z
" style="fill: none; opacity: 0"/>
  </g>
  <g id="axes_1">
   <g id="patch_2">
    <path d="M 29.152711 383.84 
L 552.24 383.84 
L 552.24 57.42 
L 29.152711 57.42 
L 29.152711 383.84 
z
" style="fill: none"/>
   </g>
   <g id="matplotlib.axis_1">
    <g id="xtick_1">
     <g id="line2d_1">
      <path d="M 45.077097 383.84 
L 45.077097 57.42 
" clip-path="url(#p0afeacd0fb)" style="fill: none; stroke: #ffffff; stroke-opacity: 0.4; stroke-linecap: round"/>
     </g>
     <g id="line2d_2"/>
     <g id="text_1">
      <text style="font-size: 18px; font-family: 'DejaVu Serif', 'Times New Roman', serif; text-anchor: middle; fill: #262626" x="45.077097" y="404.517187" transform="rotate(-0 45.077097 404.517187)">−15</text>
     </g>
    </g>
    <g id="xtick_2">
     <g id="line2d_3">
      <path d="M 119.785643 383.84 
L 119.785643 57.42 
" clip-path="url(#p0afeacd0fb)" style="fill: none; stroke: #ffffff; stroke-opacity: 0.4; stroke-linecap: round"/>
     </g>
     <g id="line2d_4"/>
     <g id="text_2">
      <text style="font-size: 18px; font-family: 'DejaVu Serif', 'Times New Roman', serif; text-anchor: middle; fill: #262626" x="119.785643" y="404.517187" transform="rotate(-0 119.785643 404.517187)">−10</text>
     </g>
    </g>
    <g id="xtick_3">
     <g id="line2d_5">
      <path d="M 194.494189 383.84 
L 194.494189 57.42 
" clip-path="url(#p0afeacd0fb)" style="fill: none; stroke: #ffffff; stroke-opacity: 0.4; stroke-linecap: round"/>
     </g>
     <g id="line2d_6"/>
     <g id="text_3">
      <text style="font-size: 18px; font-family: 'DejaVu Serif', 'Times New Roman', serif; text-anchor: middle; fill: #262626" x="194.494189" y="404.517187" transform="rotate(-0 194.494189 404.517187)">−5</text>
     </g>
    </g>
    <g id="xtick_4">
     <g id="line2d_7">
      <path d="M 269.202735 383.84 
L 269.202735 57.42 
" clip-path="url(#p0afeacd0fb)" style="fill: none; stroke: #ffffff; stroke-opacity: 0.4; stroke-linecap: round"/>
     </g>
     <g id="line2d_8"/>
     <g id="text_4">
      <text style="font-size: 18px; font-family: 'DejaVu Serif', 'Times New Roman', serif; text-anchor: middle; fill: #262626" x="269.202735" y="404.517187" transform="rotate(-0 269.202735 404.517187)">0</text>
     </g>
    </g>
    <g id="xtick_5">
     <g id="line2d_9">
      <path d="M 343.911281 383.84 
L 343.911281 57.42 
" clip-path="url(#p0afeacd0fb)" style="fill: none; stroke: #ffffff; stroke-opacity: 0.4; stroke-linecap: round"/>
     </g>
     <g id="line2d_10"/>
     <g id="text_5">
      <text style="font-size: 18px; font-family: 'DejaVu Serif', 'Times New Roman', serif; text-anchor: middle; fill: #262626" x="343.911281" y="404.517187" transform="rotate(-0 343.911281 404.517187)">5</text>
     </g>
    </g>
    <g id="xtick_6">
     <g id="line2d_11">
      <path d="M 418.619826 383.84 
L 418.619826 57.42 
" clip-path="url(#p0afeacd0fb)" style="fill: none; stroke: #ffffff; stroke-opacity: 0.4; stroke-linecap: round"/>
     </g>
     <g id="line2d_12"/>
     <g id="text_6">
      <text style="font-size: 18px; font-family: 'DejaVu Serif', 'Times New Roman', serif; text-anchor: middle; fill: #262626" x="418.619826" y="404.517187" transform="rotate(-0 418.619826 404.517187)">10</text>
     </g>
    </g>
    <g id="xtick_7">
     <g id="line2d_13">
      <path d="M 493.328372 383.84 
L 493.328372 57.42 
" clip-path="url(#p0afeacd0fb)" style="fill: none; stroke: #ffffff; stroke-opacity: 0.4; stroke-linecap: round"/>
     </g>
     <g id="line2d_14"/>
     <g id="text_7">
      <text style="font-size: 18px; font-family: 'DejaVu Serif', 'Times New Roman', serif; text-anchor: middle; fill: #262626" x="493.328372" y="404.517187" transform="rotate(-0 493.328372 404.517187)">15</text>
     </g>
    </g>
   </g>
   <g id="matplotlib.axis_2">
    <g id="ytick_1">
     <g id="line2d_15">
      <path d="M 29.152711 369.002727 
L 552.24 369.002727 
" clip-path="url(#p0afeacd0fb)" style="fill: none; stroke: #ffffff; stroke-opacity: 0.4; stroke-linecap: round"/>
     </g>
    </g>
    <g id="ytick_2">
     <g id="line2d_16">
      <path d="M 29.152711 304.760793 
L 552.24 304.760793 
" clip-path="url(#p0afeacd0fb)" style="fill: none; stroke: #ffffff; stroke-opacity: 0.4; stroke-linecap: round"/>
     </g>
    </g>
    <g id="ytick_3">
     <g id="line2d_17">
      <path d="M 29.152711 240.51886 
L 552.24 240.51886 
" clip-path="url(#p0afeacd0fb)" style="fill: none; stroke: #ffffff; stroke-opacity: 0.4; stroke-linecap: round"/>
     </g>
    </g>
    <g id="ytick_4">
     <g id="line2d_18">
      <path d="M 29.152711 176.276926 
L 552.24 176.276926 
" clip-path="url(#p0afeacd0fb)" style="fill: none; stroke: #ffffff; stroke-opacity: 0.4; stroke-linecap: round"/>
     </g>
    </g>
    <g id="ytick_5">
     <g id="line2d_19">
      <path d="M 29.152711 112.034992 
L 552.24 112.034992 
" clip-path="url(#p0afeacd0fb)" style="fill: none; stroke: #ffffff; stroke-opacity: 0.4; stroke-linecap: round"/>
     </g>
    </g>
   </g>
   <g id="FillBetweenPolyCollection_1">
    <defs>
     <path id="m0d15b97bc7" d="M 52.929406 -62.997273 
L 52.929406 -64.332624 
L 53.86 -64.33905 
L 54.790595 -64.351331 
L 55.72119 -64.369537 
L 56.651784 -64.393137 
L 57.582379 -64.428531 
L 58.512974 -64.463712 
L 59.443569 -64.510461 
L 60.374163 -64.56113 
L 61.304758 -64.615837 
L 62.235353 -64.679608 
L 63.165947 -64.75025 
L 64.096542 -64.830608 
L 65.027137 -64.920774 
L 65.957732 -65.018709 
L 66.888326 -65.118876 
L 67.818921 -65.2262 
L 68.749516 -65.343326 
L 69.68011 -65.465071 
L 70.610705 -65.607644 
L 71.5413 -65.748306 
L 72.471895 -65.904436 
L 73.402489 -66.061138 
L 74.333084 -66.228542 
L 75.263679 -66.401719 
L 76.194273 -66.582347 
L 77.124868 -66.773364 
L 78.055463 -66.967098 
L 78.986058 -67.173721 
L 79.916652 -67.383375 
L 80.847247 -67.603416 
L 81.777842 -67.837488 
L 82.708436 -68.0759 
L 83.639031 -68.331866 
L 84.569626 -68.590766 
L 85.500221 -68.8652 
L 86.430815 -69.145456 
L 87.36141 -69.441816 
L 88.292005 -69.744445 
L 89.222599 -70.061234 
L 90.153194 -70.384869 
L 91.083789 -70.727359 
L 92.014384 -71.081288 
L 92.944978 -71.446413 
L 93.875573 -71.836613 
L 94.806168 -72.218175 
L 95.736762 -72.630801 
L 96.667357 -73.039628 
L 97.597952 -73.457271 
L 98.528547 -73.891443 
L 99.459141 -74.335017 
L 100.389736 -74.784762 
L 101.320331 -75.233923 
L 102.250925 -75.696959 
L 103.18152 -76.172602 
L 104.112115 -76.650857 
L 105.04271 -77.134047 
L 105.973304 -77.627409 
L 106.903899 -78.139991 
L 107.834494 -78.652753 
L 108.765088 -79.18128 
L 109.695683 -79.714606 
L 110.626278 -80.263452 
L 111.556873 -80.832707 
L 112.487467 -81.413983 
L 113.418062 -82.026907 
L 114.348657 -82.66824 
L 115.279251 -83.318934 
L 116.209846 -84.017431 
L 117.140441 -84.731472 
L 118.071036 -85.476239 
L 119.00163 -86.239124 
L 119.932225 -87.042757 
L 120.86282 -87.879761 
L 121.793415 -88.765655 
L 122.724009 -89.692659 
L 123.654604 -90.639108 
L 124.585199 -91.626907 
L 125.515793 -92.654452 
L 126.446388 -93.71153 
L 127.376983 -94.798487 
L 128.307578 -95.923703 
L 129.238172 -97.081562 
L 130.168767 -98.275729 
L 131.099362 -99.505055 
L 132.029956 -100.768729 
L 132.960551 -102.067538 
L 133.891146 -103.398542 
L 134.821741 -104.751854 
L 135.752335 -106.1216 
L 136.68293 -107.524057 
L 137.613525 -108.960225 
L 138.544119 -110.411614 
L 139.474714 -111.877761 
L 140.405309 -113.359509 
L 141.335904 -114.848083 
L 142.266498 -116.354301 
L 143.197093 -117.863358 
L 144.127688 -119.373868 
L 145.058282 -120.893247 
L 145.988877 -122.394203 
L 146.919472 -123.91781 
L 147.850067 -125.442582 
L 148.780661 -126.959711 
L 149.711256 -128.457454 
L 150.641851 -129.975025 
L 151.572445 -131.481677 
L 152.50304 -132.96208 
L 153.433635 -134.454031 
L 154.36423 -135.925396 
L 155.294824 -137.429002 
L 156.225419 -138.909889 
L 157.156014 -140.400865 
L 158.086608 -141.902708 
L 159.017203 -143.409498 
L 159.947798 -144.953717 
L 160.878393 -146.481872 
L 161.808987 -148.041868 
L 162.739582 -149.600007 
L 163.670177 -151.186732 
L 164.600771 -152.768994 
L 165.531366 -154.365282 
L 166.461961 -155.983121 
L 167.392556 -157.61223 
L 168.32315 -159.270839 
L 169.253745 -160.927652 
L 170.18434 -162.606958 
L 171.114934 -164.294911 
L 172.045529 -165.989282 
L 172.976124 -167.695706 
L 173.906719 -169.407501 
L 174.837313 -171.1577 
L 175.767908 -172.906265 
L 176.698503 -174.653839 
L 177.629097 -176.423289 
L 178.559692 -178.194224 
L 179.490287 -179.976401 
L 180.420882 -181.773248 
L 181.351476 -183.571584 
L 182.282071 -185.393091 
L 183.212666 -187.25242 
L 184.14326 -189.118013 
L 185.073855 -191.003835 
L 186.00445 -192.922083 
L 186.935045 -194.834926 
L 187.865639 -196.759347 
L 188.796234 -198.734732 
L 189.726829 -200.704976 
L 190.657423 -202.694335 
L 191.588018 -204.731535 
L 192.518613 -206.79491 
L 193.449208 -208.853617 
L 194.379802 -210.944268 
L 195.310397 -213.053632 
L 196.240992 -215.163485 
L 197.171586 -217.297002 
L 198.102181 -219.430094 
L 199.032776 -221.594279 
L 199.963371 -223.781385 
L 200.893965 -225.978782 
L 201.82456 -228.162328 
L 202.755155 -230.369011 
L 203.685749 -232.559743 
L 204.616344 -234.773453 
L 205.546939 -236.965586 
L 206.477534 -239.190188 
L 207.408128 -241.37251 
L 208.338723 -243.591189 
L 209.269318 -245.808905 
L 210.199912 -248.046415 
L 211.130507 -250.234934 
L 212.061102 -252.435738 
L 212.991697 -254.618389 
L 213.922291 -256.788152 
L 214.852886 -258.976355 
L 215.783481 -261.135504 
L 216.714075 -263.295452 
L 217.64467 -265.447993 
L 218.575265 -267.60823 
L 219.50586 -269.771467 
L 220.436454 -271.931999 
L 221.367049 -274.091458 
L 222.297644 -276.265772 
L 223.228238 -278.429918 
L 224.158833 -280.616091 
L 225.089428 -282.817918 
L 226.020023 -285.040629 
L 226.950617 -287.289443 
L 227.881212 -289.559414 
L 228.811807 -291.766915 
L 229.742401 -294.041552 
L 230.672996 -296.305987 
L 231.603591 -298.569147 
L 232.534186 -300.847535 
L 233.46478 -303.117123 
L 234.395375 -305.374241 
L 235.32597 -307.602642 
L 236.256564 -309.832639 
L 237.187159 -312.000562 
L 238.117754 -314.172091 
L 239.048349 -316.288855 
L 239.978943 -318.338823 
L 240.909538 -320.344256 
L 241.840133 -322.288826 
L 242.770727 -324.187255 
L 243.701322 -326.00612 
L 244.631917 -327.763287 
L 245.562512 -329.446094 
L 246.493106 -331.077174 
L 247.423701 -332.592359 
L 248.354296 -334.044293 
L 249.28489 -335.425792 
L 250.215485 -336.776783 
L 251.14608 -338.063233 
L 252.076675 -339.280887 
L 253.007269 -340.457116 
L 253.937864 -341.545999 
L 254.868459 -342.635708 
L 255.799053 -343.654075 
L 256.729648 -344.651243 
L 257.660243 -345.612573 
L 258.590838 -346.533044 
L 259.521432 -347.437411 
L 260.452027 -348.301145 
L 261.382622 -349.20456 
L 262.313216 -350.054694 
L 263.243811 -350.904725 
L 264.174406 -351.767062 
L 265.105001 -352.572952 
L 266.035595 -353.36087 
L 266.96619 -354.127625 
L 267.896785 -354.884959 
L 268.827379 -355.58972 
L 269.757974 -356.29625 
L 270.688569 -356.957054 
L 271.619164 -357.569884 
L 272.549758 -358.117701 
L 273.480353 -358.601711 
L 274.410948 -359.005038 
L 275.341543 -359.335281 
L 276.272137 -359.575293 
L 277.202732 -359.727894 
L 278.133327 -359.742727 
L 279.063921 -359.653955 
L 279.994516 -359.408369 
L 280.925111 -359.080318 
L 281.855706 -358.573449 
L 282.7863 -357.925709 
L 283.716895 -357.120302 
L 284.64749 -356.196612 
L 285.578084 -355.119436 
L 286.508679 -353.890055 
L 287.439274 -352.524401 
L 288.369869 -351.018249 
L 289.300463 -349.400186 
L 290.231058 -347.651489 
L 291.161653 -345.772369 
L 292.092247 -343.767739 
L 293.022842 -341.662675 
L 293.953437 -339.46618 
L 294.884032 -337.187493 
L 295.814626 -334.853646 
L 296.745221 -332.490483 
L 297.675816 -330.040946 
L 298.60641 -327.554345 
L 299.537005 -325.057588 
L 300.4676 -322.52658 
L 301.398195 -319.971202 
L 302.328789 -317.473126 
L 303.259384 -314.959696 
L 304.189979 -312.421402 
L 305.120573 -309.930368 
L 306.051168 -307.427991 
L 306.981763 -304.943937 
L 307.912358 -302.521179 
L 308.842952 -300.112871 
L 309.773547 -297.710226 
L 310.704142 -295.348264 
L 311.634736 -292.981381 
L 312.565331 -290.63666 
L 313.495926 -288.327675 
L 314.426521 -286.017243 
L 315.357115 -283.731953 
L 316.28771 -281.460903 
L 317.218305 -279.170153 
L 318.148899 -276.914328 
L 319.079494 -274.650178 
L 320.010089 -272.371131 
L 320.940684 -270.144879 
L 321.871278 -267.889746 
L 322.801873 -265.638566 
L 323.732468 -263.354172 
L 324.663062 -261.104658 
L 325.593657 -258.864304 
L 326.524252 -256.61131 
L 327.454847 -254.408237 
L 328.385441 -252.18138 
L 329.316036 -249.9702 
L 330.246631 -247.775062 
L 331.177225 -245.607223 
L 332.10782 -243.466069 
L 333.038415 -241.347474 
L 333.96901 -239.292731 
L 334.899604 -237.195215 
L 335.830199 -235.146282 
L 336.760794 -233.134121 
L 337.691388 -231.137941 
L 338.621983 -229.182 
L 339.552578 -227.249747 
L 340.483173 -225.353586 
L 341.413767 -223.4215 
L 342.344362 -221.509528 
L 343.274957 -219.58831 
L 344.205551 -217.669603 
L 345.136146 -215.743978 
L 346.066741 -213.781708 
L 346.997336 -211.795206 
L 347.92793 -209.805617 
L 348.858525 -207.76825 
L 349.78912 -205.6727 
L 350.719714 -203.534432 
L 351.650309 -201.357851 
L 352.580904 -199.150403 
L 353.511499 -196.87516 
L 354.442093 -194.56622 
L 355.372688 -192.206775 
L 356.303283 -189.809684 
L 357.233877 -187.360013 
L 358.164472 -184.886733 
L 359.095067 -182.372501 
L 360.025662 -179.862126 
L 360.956256 -177.318841 
L 361.886851 -174.740169 
L 362.817446 -172.160824 
L 363.74804 -169.594474 
L 364.678635 -167.053356 
L 365.60923 -164.533262 
L 366.539825 -162.035724 
L 367.470419 -159.555572 
L 368.401014 -157.111485 
L 369.331609 -154.693016 
L 370.262203 -152.307344 
L 371.192798 -149.970875 
L 372.123393 -147.701402 
L 373.053988 -145.461432 
L 373.984582 -143.278208 
L 374.915177 -141.169331 
L 375.845772 -139.094005 
L 376.776366 -137.067226 
L 377.706961 -135.13284 
L 378.637556 -133.236149 
L 379.568151 -131.404782 
L 380.498745 -129.632793 
L 381.42934 -127.906268 
L 382.359935 -126.249626 
L 383.290529 -124.653627 
L 384.221124 -123.12473 
L 385.151719 -121.65055 
L 386.082314 -120.236764 
L 387.012908 -118.862027 
L 387.943503 -117.537868 
L 388.874098 -116.273238 
L 389.804692 -115.032876 
L 390.735287 -113.895086 
L 391.665882 -112.759124 
L 392.596477 -111.677414 
L 393.527071 -110.634875 
L 394.457666 -109.618353 
L 395.388261 -108.630101 
L 396.318855 -107.682397 
L 397.24945 -106.763217 
L 398.180045 -105.844227 
L 399.11064 -104.966489 
L 400.041234 -104.107036 
L 400.971829 -103.250321 
L 401.902424 -102.423773 
L 402.833018 -101.613114 
L 403.763613 -100.795812 
L 404.694208 -100.001584 
L 405.624803 -99.217276 
L 406.555397 -98.430831 
L 407.485992 -97.645617 
L 408.416587 -96.882569 
L 409.347181 -96.128934 
L 410.277776 -95.366369 
L 411.208371 -94.613496 
L 412.138966 -93.864074 
L 413.06956 -93.126949 
L 414.000155 -92.382077 
L 414.93075 -91.661093 
L 415.861344 -90.946223 
L 416.791939 -90.224535 
L 417.722534 -89.514281 
L 418.653129 -88.790718 
L 419.583723 -88.07786 
L 420.514318 -87.359659 
L 421.444913 -86.634105 
L 422.375508 -85.917988 
L 423.306102 -85.202778 
L 424.236697 -84.485939 
L 425.167292 -83.762885 
L 426.097886 -83.037511 
L 427.028481 -82.322132 
L 427.959076 -81.588822 
L 428.889671 -80.872024 
L 429.820265 -80.161784 
L 430.75086 -79.45481 
L 431.681455 -78.759605 
L 432.612049 -78.077107 
L 433.542644 -77.395147 
L 434.473239 -76.731474 
L 435.403834 -76.082508 
L 436.334428 -75.448024 
L 437.265023 -74.830368 
L 438.195618 -74.231583 
L 439.126212 -73.660081 
L 440.056807 -73.111304 
L 440.987402 -72.583885 
L 441.917997 -72.083343 
L 442.848591 -71.609338 
L 443.779186 -71.163583 
L 444.709781 -70.735954 
L 445.640375 -70.32715 
L 446.57097 -69.948512 
L 447.501565 -69.583951 
L 448.43216 -69.245046 
L 449.362754 -68.92259 
L 450.293349 -68.622386 
L 451.223944 -68.339671 
L 452.154538 -68.063696 
L 453.085133 -67.8081 
L 454.015728 -67.558732 
L 454.946323 -67.326645 
L 455.876917 -67.097991 
L 456.807512 -66.879695 
L 457.738107 -66.661481 
L 458.668701 -66.450925 
L 459.599296 -66.249486 
L 460.529891 -66.056087 
L 461.460486 -65.869937 
L 462.39108 -65.679341 
L 463.321675 -65.504278 
L 464.25227 -65.32697 
L 465.182864 -65.158176 
L 466.113459 -64.997469 
L 467.044054 -64.842358 
L 467.974649 -64.697659 
L 468.905243 -64.558259 
L 469.835838 -64.420214 
L 470.766433 -64.293866 
L 471.697027 -64.171677 
L 472.627622 -64.056672 
L 473.558217 -63.951187 
L 474.488812 -63.850301 
L 475.419406 -63.752354 
L 476.350001 -63.66937 
L 477.280596 -63.588336 
L 478.21119 -63.519081 
L 479.141785 -63.453564 
L 480.07238 -63.39657 
L 481.002975 -63.345041 
L 481.933569 -63.301577 
L 482.864164 -63.26096 
L 483.794759 -63.222908 
L 484.725353 -63.192079 
L 485.655948 -63.165347 
L 486.586543 -63.142432 
L 487.517138 -63.123063 
L 488.447732 -63.104751 
L 489.378327 -63.089974 
L 490.308922 -63.080633 
L 491.239516 -63.06702 
L 492.170111 -63.066699 
L 493.100706 -63.066733 
L 494.031301 -63.069338 
L 494.961895 -63.073908 
L 495.89249 -63.080467 
L 496.823085 -63.086814 
L 497.753679 -63.097938 
L 498.684274 -63.111043 
L 499.614869 -63.12618 
L 500.545464 -63.14339 
L 501.476058 -63.162704 
L 502.406653 -63.184136 
L 503.337248 -63.208304 
L 504.267842 -63.235205 
L 505.198437 -63.264218 
L 506.129032 -63.29531 
L 507.059627 -63.328421 
L 507.990221 -63.363455 
L 508.920816 -63.400281 
L 509.851411 -63.438737 
L 510.782005 -63.478621 
L 511.7126 -63.519699 
L 512.643195 -63.561703 
L 513.57379 -63.604335 
L 514.504384 -63.647268 
L 515.434979 -63.69015 
L 516.365574 -63.73261 
L 517.296168 -63.774263 
L 518.226763 -63.814711 
L 519.157358 -63.853555 
L 520.087953 -63.890399 
L 521.018547 -63.924854 
L 521.949142 -63.956547 
L 522.879737 -63.985128 
L 523.810331 -64.010274 
L 524.740926 -64.031697 
L 525.671521 -64.049148 
L 526.602116 -64.062421 
L 527.53271 -64.071359 
L 528.463305 -64.075854 
L 528.463305 -62.997273 
L 528.463305 -62.997273 
L 527.53271 -62.997273 
L 526.602116 -62.997273 
L 525.671521 -62.997273 
L 524.740926 -62.997273 
L 523.810331 -62.997273 
L 522.879737 -62.997273 
L 521.949142 -62.997273 
L 521.018547 -62.997273 
L 520.087953 -62.997273 
L 519.157358 -62.997273 
L 518.226763 -62.997273 
L 517.296168 -62.997273 
L 516.365574 -62.997273 
L 515.434979 -62.997273 
L 514.504384 -62.997273 
L 513.57379 -62.997273 
L 512.643195 -62.997273 
L 511.7126 -62.997273 
L 510.782005 -62.997273 
L 509.851411 -62.997273 
L 508.920816 -62.997273 
L 507.990221 -62.997273 
L 507.059627 -62.997273 
L 506.129032 -62.997273 
L 505.198437 -62.997273 
L 504.267842 -62.997273 
L 503.337248 -62.997273 
L 502.406653 -62.997273 
L 501.476058 -62.997273 
L 500.545464 -62.997273 
L 499.614869 -62.997273 
L 498.684274 -62.997273 
L 497.753679 -62.997273 
L 496.823085 -62.997273 
L 495.89249 -62.997273 
L 494.961895 -62.997273 
L 494.031301 -62.997273 
L 493.100706 -62.997273 
L 492.170111 -62.997273 
L 491.239516 -62.997273 
L 490.308922 -62.997273 
L 489.378327 -62.997273 
L 488.447732 -62.997273 
L 487.517138 -62.997273 
L 486.586543 -62.997273 
L 485.655948 -62.997273 
L 484.725353 -62.997273 
L 483.794759 -62.997273 
L 482.864164 -62.997273 
L 481.933569 -62.997273 
L 481.002975 -62.997273 
L 480.07238 -62.997273 
L 479.141785 -62.997273 
L 478.21119 -62.997273 
L 477.280596 -62.997273 
L 476.350001 -62.997273 
L 475.419406 -62.997273 
L 474.488812 -62.997273 
L 473.558217 -62.997273 
L 472.627622 -62.997273 
L 471.697027 -62.997273 
L 470.766433 -62.997273 
L 469.835838 -62.997273 
L 468.905243 -62.997273 
L 467.974649 -62.997273 
L 467.044054 -62.997273 
L 466.113459 -62.997273 
L 465.182864 -62.997273 
L 464.25227 -62.997273 
L 463.321675 -62.997273 
L 462.39108 -62.997273 
L 461.460486 -62.997273 
L 460.529891 -62.997273 
L 459.599296 -62.997273 
L 458.668701 -62.997273 
L 457.738107 -62.997273 
L 456.807512 -62.997273 
L 455.876917 -62.997273 
L 454.946323 -62.997273 
L 454.015728 -62.997273 
L 453.085133 -62.997273 
L 452.154538 -62.997273 
L 451.223944 -62.997273 
L 450.293349 -62.997273 
L 449.362754 -62.997273 
L 448.43216 -62.997273 
L 447.501565 -62.997273 
L 446.57097 -62.997273 
L 445.640375 -62.997273 
L 444.709781 -62.997273 
L 443.779186 -62.997273 
L 442.848591 -62.997273 
L 441.917997 -62.997273 
L 440.987402 -62.997273 
L 440.056807 -62.997273 
L 439.126212 -62.997273 
L 438.195618 -62.997273 
L 437.265023 -62.997273 
L 436.334428 -62.997273 
L 435.403834 -62.997273 
L 434.473239 -62.997273 
L 433.542644 -62.997273 
L 432.612049 -62.997273 
L 431.681455 -62.997273 
L 430.75086 -62.997273 
L 429.820265 -62.997273 
L 428.889671 -62.997273 
L 427.959076 -62.997273 
L 427.028481 -62.997273 
L 426.097886 -62.997273 
L 425.167292 -62.997273 
L 424.236697 -62.997273 
L 423.306102 -62.997273 
L 422.375508 -62.997273 
L 421.444913 -62.997273 
L 420.514318 -62.997273 
L 419.583723 -62.997273 
L 418.653129 -62.997273 
L 417.722534 -62.997273 
L 416.791939 -62.997273 
L 415.861344 -62.997273 
L 414.93075 -62.997273 
L 414.000155 -62.997273 
L 413.06956 -62.997273 
L 412.138966 -62.997273 
L 411.208371 -62.997273 
L 410.277776 -62.997273 
L 409.347181 -62.997273 
L 408.416587 -62.997273 
L 407.485992 -62.997273 
L 406.555397 -62.997273 
L 405.624803 -62.997273 
L 404.694208 -62.997273 
L 403.763613 -62.997273 
L 402.833018 -62.997273 
L 401.902424 -62.997273 
L 400.971829 -62.997273 
L 400.041234 -62.997273 
L 399.11064 -62.997273 
L 398.180045 -62.997273 
L 397.24945 -62.997273 
L 396.318855 -62.997273 
L 395.388261 -62.997273 
L 394.457666 -62.997273 
L 393.527071 -62.997273 
L 392.596477 -62.997273 
L 391.665882 -62.997273 
L 390.735287 -62.997273 
L 389.804692 -62.997273 
L 388.874098 -62.997273 
L 387.943503 -62.997273 
L 387.012908 -62.997273 
L 386.082314 -62.997273 
L 385.151719 -62.997273 
L 384.221124 -62.997273 
L 383.290529 -62.997273 
L 382.359935 -62.997273 
L 381.42934 -62.997273 
L 380.498745 -62.997273 
L 379.568151 -62.997273 
L 378.637556 -62.997273 
L 377.706961 -62.997273 
L 376.776366 -62.997273 
L 375.845772 -62.997273 
L 374.915177 -62.997273 
L 373.984582 -62.997273 
L 373.053988 -62.997273 
L 372.123393 -62.997273 
L 371.192798 -62.997273 
L 370.262203 -62.997273 
L 369.331609 -62.997273 
L 368.401014 -62.997273 
L 367.470419 -62.997273 
L 366.539825 -62.997273 
L 365.60923 -62.997273 
L 364.678635 -62.997273 
L 363.74804 -62.997273 
L 362.817446 -62.997273 
L 361.886851 -62.997273 
L 360.956256 -62.997273 
L 360.025662 -62.997273 
L 359.095067 -62.997273 
L 358.164472 -62.997273 
L 357.233877 -62.997273 
L 356.303283 -62.997273 
L 355.372688 -62.997273 
L 354.442093 -62.997273 
L 353.511499 -62.997273 
L 352.580904 -62.997273 
L 351.650309 -62.997273 
L 350.719714 -62.997273 
L 349.78912 -62.997273 
L 348.858525 -62.997273 
L 347.92793 -62.997273 
L 346.997336 -62.997273 
L 346.066741 -62.997273 
L 345.136146 -62.997273 
L 344.205551 -62.997273 
L 343.274957 -62.997273 
L 342.344362 -62.997273 
L 341.413767 -62.997273 
L 340.483173 -62.997273 
L 339.552578 -62.997273 
L 338.621983 -62.997273 
L 337.691388 -62.997273 
L 336.760794 -62.997273 
L 335.830199 -62.997273 
L 334.899604 -62.997273 
L 333.96901 -62.997273 
L 333.038415 -62.997273 
L 332.10782 -62.997273 
L 331.177225 -62.997273 
L 330.246631 -62.997273 
L 329.316036 -62.997273 
L 328.385441 -62.997273 
L 327.454847 -62.997273 
L 326.524252 -62.997273 
L 325.593657 -62.997273 
L 324.663062 -62.997273 
L 323.732468 -62.997273 
L 322.801873 -62.997273 
L 321.871278 -62.997273 
L 320.940684 -62.997273 
L 320.010089 -62.997273 
L 319.079494 -62.997273 
L 318.148899 -62.997273 
L 317.218305 -62.997273 
L 316.28771 -62.997273 
L 315.357115 -62.997273 
L 314.426521 -62.997273 
L 313.495926 -62.997273 
L 312.565331 -62.997273 
L 311.634736 -62.997273 
L 310.704142 -62.997273 
L 309.773547 -62.997273 
L 308.842952 -62.997273 
L 307.912358 -62.997273 
L 306.981763 -62.997273 
L 306.051168 -62.997273 
L 305.120573 -62.997273 
L 304.189979 -62.997273 
L 303.259384 -62.997273 
L 302.328789 -62.997273 
L 301.398195 -62.997273 
L 300.4676 -62.997273 
L 299.537005 -62.997273 
L 298.60641 -62.997273 
L 297.675816 -62.997273 
L 296.745221 -62.997273 
L 295.814626 -62.997273 
L 294.884032 -62.997273 
L 293.953437 -62.997273 
L 293.022842 -62.997273 
L 292.092247 -62.997273 
L 291.161653 -62.997273 
L 290.231058 -62.997273 
L 289.300463 -62.997273 
L 288.369869 -62.997273 
L 287.439274 -62.997273 
L 286.508679 -62.997273 
L 285.578084 -62.997273 
L 284.64749 -62.997273 
L 283.716895 -62.997273 
L 282.7863 -62.997273 
L 281.855706 -62.997273 
L 280.925111 -62.997273 
L 279.994516 -62.997273 
L 279.063921 -62.997273 
L 278.133327 -62.997273 
L 277.202732 -62.997273 
L 276.272137 -62.997273 
L 275.341543 -62.997273 
L 274.410948 -62.997273 
L 273.480353 -62.997273 
L 272.549758 -62.997273 
L 271.619164 -62.997273 
L 270.688569 -62.997273 
L 269.757974 -62.997273 
L 268.827379 -62.997273 
L 267.896785 -62.997273 
L 266.96619 -62.997273 
L 266.035595 -62.997273 
L 265.105001 -62.997273 
L 264.174406 -62.997273 
L 263.243811 -62.997273 
L 262.313216 -62.997273 
L 261.382622 -62.997273 
L 260.452027 -62.997273 
L 259.521432 -62.997273 
L 258.590838 -62.997273 
L 257.660243 -62.997273 
L 256.729648 -62.997273 
L 255.799053 -62.997273 
L 254.868459 -62.997273 
L 253.937864 -62.997273 
L 253.007269 -62.997273 
L 252.076675 -62.997273 
L 251.14608 -62.997273 
L 250.215485 -62.997273 
L 249.28489 -62.997273 
L 248.354296 -62.997273 
L 247.423701 -62.997273 
L 246.493106 -62.997273 
L 245.562512 -62.997273 
L 244.631917 -62.997273 
L 243.701322 -62.997273 
L 242.770727 -62.997273 
L 241.840133 -62.997273 
L 240.909538 -62.997273 
L 239.978943 -62.997273 
L 239.048349 -62.997273 
L 238.117754 -62.997273 
L 237.187159 -62.997273 
L 236.256564 -62.997273 
L 235.32597 -62.997273 
L 234.395375 -62.997273 
L 233.46478 -62.997273 
L 232.534186 -62.997273 
L 231.603591 -62.997273 
L 230.672996 -62.997273 
L 229.742401 -62.997273 
L 228.811807 -62.997273 
L 227.881212 -62.997273 
L 226.950617 -62.997273 
L 226.020023 -62.997273 
L 225.089428 -62.997273 
L 224.158833 -62.997273 
L 223.228238 -62.997273 
L 222.297644 -62.997273 
L 221.367049 -62.997273 
L 220.436454 -62.997273 
L 219.50586 -62.997273 
L 218.575265 -62.997273 
L 217.64467 -62.997273 
L 216.714075 -62.997273 
L 215.783481 -62.997273 
L 214.852886 -62.997273 
L 213.922291 -62.997273 
L 212.991697 -62.997273 
L 212.061102 -62.997273 
L 211.130507 -62.997273 
L 210.199912 -62.997273 
L 209.269318 -62.997273 
L 208.338723 -62.997273 
L 207.408128 -62.997273 
L 206.477534 -62.997273 
L 205.546939 -62.997273 
L 204.616344 -62.997273 
L 203.685749 -62.997273 
L 202.755155 -62.997273 
L 201.82456 -62.997273 
L 200.893965 -62.997273 
L 199.963371 -62.997273 
L 199.032776 -62.997273 
L 198.102181 -62.997273 
L 197.171586 -62.997273 
L 196.240992 -62.997273 
L 195.310397 -62.997273 
L 194.379802 -62.997273 
L 193.449208 -62.997273 
L 192.518613 -62.997273 
L 191.588018 -62.997273 
L 190.657423 -62.997273 
L 189.726829 -62.997273 
L 188.796234 -62.997273 
L 187.865639 -62.997273 
L 186.935045 -62.997273 
L 186.00445 -62.997273 
L 185.073855 -62.997273 
L 184.14326 -62.997273 
L 183.212666 -62.997273 
L 182.282071 -62.997273 
L 181.351476 -62.997273 
L 180.420882 -62.997273 
L 179.490287 -62.997273 
L 178.559692 -62.997273 
L 177.629097 -62.997273 
L 176.698503 -62.997273 
L 175.767908 -62.997273 
L 174.837313 -62.997273 
L 173.906719 -62.997273 
L 172.976124 -62.997273 
L 172.045529 -62.997273 
L 171.114934 -62.997273 
L 170.18434 -62.997273 
L 169.253745 -62.997273 
L 168.32315 -62.997273 
L 167.392556 -62.997273 
L 166.461961 -62.997273 
L 165.531366 -62.997273 
L 164.600771 -62.997273 
L 163.670177 -62.997273 
L 162.739582 -62.997273 
L 161.808987 -62.997273 
L 160.878393 -62.997273 
L 159.947798 -62.997273 
L 159.017203 -62.997273 
L 158.086608 -62.997273 
L 157.156014 -62.997273 
L 156.225419 -62.997273 
L 155.294824 -62.997273 
L 154.36423 -62.997273 
L 153.433635 -62.997273 
L 152.50304 -62.997273 
L 151.572445 -62.997273 
L 150.641851 -62.997273 
L 149.711256 -62.997273 
L 148.780661 -62.997273 
L 147.850067 -62.997273 
L 146.919472 -62.997273 
L 145.988877 -62.997273 
L 145.058282 -62.997273 
L 144.127688 -62.997273 
L 143.197093 -62.997273 
L 142.266498 -62.997273 
L 141.335904 -62.997273 
L 140.405309 -62.997273 
L 139.474714 -62.997273 
L 138.544119 -62.997273 
L 137.613525 -62.997273 
L 136.68293 -62.997273 
L 135.752335 -62.997273 
L 134.821741 -62.997273 
L 133.891146 -62.997273 
L 132.960551 -62.997273 
L 132.029956 -62.997273 
L 131.099362 -62.997273 
L 130.168767 -62.997273 
L 129.238172 -62.997273 
L 128.307578 -62.997273 
L 127.376983 -62.997273 
L 126.446388 -62.997273 
L 125.515793 -62.997273 
L 124.585199 -62.997273 
L 123.654604 -62.997273 
L 122.724009 -62.997273 
L 121.793415 -62.997273 
L 120.86282 -62.997273 
L 119.932225 -62.997273 
L 119.00163 -62.997273 
L 118.071036 -62.997273 
L 117.140441 -62.997273 
L 116.209846 -62.997273 
L 115.279251 -62.997273 
L 114.348657 -62.997273 
L 113.418062 -62.997273 
L 112.487467 -62.997273 
L 111.556873 -62.997273 
L 110.626278 -62.997273 
L 109.695683 -62.997273 
L 108.765088 -62.997273 
L 107.834494 -62.997273 
L 106.903899 -62.997273 
L 105.973304 -62.997273 
L 105.04271 -62.997273 
L 104.112115 -62.997273 
L 103.18152 -62.997273 
L 102.250925 -62.997273 
L 101.320331 -62.997273 
L 100.389736 -62.997273 
L 99.459141 -62.997273 
L 98.528547 -62.997273 
L 97.597952 -62.997273 
L 96.667357 -62.997273 
L 95.736762 -62.997273 
L 94.806168 -62.997273 
L 93.875573 -62.997273 
L 92.944978 -62.997273 
L 92.014384 -62.997273 
L 91.083789 -62.997273 
L 90.153194 -62.997273 
L 89.222599 -62.997273 
L 88.292005 -62.997273 
L 87.36141 -62.997273 
L 86.430815 -62.997273 
L 85.500221 -62.997273 
L 84.569626 -62.997273 
L 83.639031 -62.997273 
L 82.708436 -62.997273 
L 81.777842 -62.997273 
L 80.847247 -62.997273 
L 79.916652 -62.997273 
L 78.986058 -62.997273 
L 78.055463 -62.997273 
L 77.124868 -62.997273 
L 76.194273 -62.997273 
L 75.263679 -62.997273 
L 74.333084 -62.997273 
L 73.402489 -62.997273 
L 72.471895 -62.997273 
L 71.5413 -62.997273 
L 70.610705 -62.997273 
L 69.68011 -62.997273 
L 68.749516 -62.997273 
L 67.818921 -62.997273 
L 66.888326 -62.997273 
L 65.957732 -62.997273 
L 65.027137 -62.997273 
L 64.096542 -62.997273 
L 63.165947 -62.997273 
L 62.235353 -62.997273 
L 61.304758 -62.997273 
L 60.374163 -62.997273 
L 59.443569 -62.997273 
L 58.512974 -62.997273 
L 57.582379 -62.997273 
L 56.651784 -62.997273 
L 55.72119 -62.997273 
L 54.790595 -62.997273 
L 53.86 -62.997273 
L 52.929406 -62.997273 
z
"/>
    </defs>
    <g clip-path="url(#p0afeacd0fb)">
     <use xlink:href="#m0d15b97bc7" x="0" y="432" style="fill: #51d7c1; fill-opacity: 0.6"/>
    </g>
   </g>
   <g id="line2d_20">
    <path d="M 52.929406 367.667376 
L 58.512974 367.536288 
L 64.096542 367.169392 
L 69.68011 366.534929 
L 75.263679 365.598281 
L 79.916652 364.616625 
L 84.569626 363.409234 
L 89.222599 361.938766 
L 92.944978 360.553587 
L 98.528547 358.108557 
L 104.112115 355.349143 
L 108.765088 352.81872 
L 112.487467 350.586017 
L 115.279251 348.681066 
L 119.00163 345.760876 
L 121.793415 343.234345 
L 124.585199 340.373093 
L 127.376983 337.201513 
L 130.168767 333.724271 
L 132.960551 329.932462 
L 136.68293 324.475943 
L 141.335904 317.151917 
L 163.670177 280.813268 
L 168.32315 272.729161 
L 173.906719 262.592499 
L 182.282071 246.606909 
L 187.865639 235.240653 
L 193.449208 223.146383 
L 199.032776 210.405721 
L 229.742401 137.958448 
L 238.117754 117.827909 
L 240.909538 111.655744 
L 243.701322 105.99388 
L 246.493106 100.922826 
L 249.28489 96.574208 
L 251.14608 93.936767 
L 253.937864 90.454001 
L 256.729648 87.348757 
L 259.521432 84.562589 
L 266.035595 78.63913 
L 269.757974 75.70375 
L 271.619164 74.430116 
L 273.480353 73.398289 
L 275.341543 72.664719 
L 277.202732 72.272106 
L 279.063921 72.346045 
L 280.925111 72.919682 
L 281.855706 73.426551 
L 282.7863 74.074291 
L 284.64749 75.803388 
L 286.508679 78.109945 
L 288.369869 80.981751 
L 290.231058 84.348511 
L 292.092247 88.232261 
L 294.884032 94.812507 
L 298.60641 104.445655 
L 310.704142 136.651736 
L 315.357115 148.268047 
L 328.385441 179.81862 
L 333.038415 190.652526 
L 338.621983 202.818 
L 348.858525 224.23175 
L 352.580904 232.849597 
L 356.303283 242.190316 
L 360.956256 254.681159 
L 367.470419 272.444428 
L 371.192798 282.029125 
L 374.915177 290.830669 
L 377.706961 296.86716 
L 380.498745 302.367207 
L 383.290529 307.346373 
L 386.082314 311.763236 
L 388.874098 315.726762 
L 390.735287 318.104914 
L 393.527071 321.365125 
L 396.318855 324.317603 
L 400.041234 327.892964 
L 403.763613 331.204188 
L 410.277776 336.633631 
L 416.791939 341.775465 
L 436.334428 356.551976 
L 439.126212 358.339919 
L 441.917997 359.916657 
L 444.709781 361.264046 
L 447.501565 362.416049 
L 451.223944 363.660329 
L 454.946323 364.673355 
L 460.529891 365.943913 
L 467.044054 367.157642 
L 472.627622 367.943328 
L 478.21119 368.480919 
L 483.794759 368.777092 
L 491.239516 368.93298 
L 501.476058 368.837296 
L 510.782005 368.521379 
L 525.671521 367.950852 
L 528.463305 367.924146 
L 528.463305 367.924146 
" clip-path="url(#p0afeacd0fb)" style="fill: none; stroke: #51d7c1; stroke-width: 1.5; stroke-linecap: round"/>
   </g>
   <g id="line2d_21">
    <path d="M 157.230299 362.771073 
L 373.650949 362.771073 
" clip-path="url(#p0afeacd0fb)" style="fill: none; stroke: #51d7c1; stroke-width: 3.5; stroke-linecap: round"/>
   </g>
   <g id="patch_3">
    <path d="M 29.152711 383.84 
L 552.24 383.84 
" style="fill: none; stroke: #333333; stroke-width: 1.5; stroke-linejoin: miter; stroke-linecap: square"/>
   </g>
   <g id="text_8">
    <!-- $x_2^2x_3$ -->
    <g style="fill: #262626" transform="translate(260.176355 49.58)">
     <text>
      <tspan x="0" y="-0.734375" style="font-style: oblique; font-size: 28px; font-family: 'DejaVu Sans'; fill: #262626">x</tspan>
      <tspan x="31.056576" y="-0.734375" style="font-style: oblique; font-size: 28px; font-family: 'DejaVu Sans'; fill: #262626">x</tspan>
      <tspan x="16.570312" y="6.921875" style="font-size: 19.6px; font-family: 'DejaVu Sans'; fill: #262626">2</tspan>
      <tspan x="17.820833" y="-11.453125" style="font-size: 19.6px; font-family: 'DejaVu Sans'; fill: #262626">2</tspan>
      <tspan x="47.626888" y="3.859375" style="font-size: 19.6px; font-family: 'DejaVu Sans'; fill: #262626">3</tspan>
     </text>
    </g>
   </g>
  </g>
 </g>
 <defs>
  <clipPath id="p0afeacd0fb">
   <rect x="29.152711" y="57.42" width="523.087289" height="326.42"/>
  </clipPath>
 </defs>
</svg>
