<?xml version="1.0" encoding="utf-8" standalone="no"?>
<!DOCTYPE svg PUBLIC "-//W3C//DTD SVG 1.1//EN"
  "http://www.w3.org/Graphics/SVG/1.1/DTD/svg11.dtd">
<svg xmlns:xlink="http://www.w3.org/1999/xlink" width="576pt" height="432pt" viewBox="0 0 576 432" xmlns="http://www.w3.org/2000/svg" version="1.1">
 <metadata>
  <rdf:RDF xmlns:dc="http://purl.org/dc/elements/1.1/" xmlns:cc="http://creativecommons.org/ns#" xmlns:rdf="http://www.w3.org/1999/02/22-rdf-syntax-ns#">
   <cc:Work>
    <dc:type rdf:resource="http://purl.org/dc/dcmitype/StillImage"/>
    <dc:date>2025-09-23T14:40:24.094655</dc:date>
    <dc:format>image/svg+xml</dc:format>
    <dc:creator>
     <cc:Agent>
      <dc:title>Matplotlib v3.10.0, https://matplotlib.org/</dc:title>
     </cc:Agent>
    </dc:creator>
   </cc:Work>
  </rdf:RDF>
 </metadata>
 <defs>
  <style type="text/css">*{stroke-linejoin: round; stroke-linecap: butt}</style>
 </defs>
 <g id="figure_1">
  <g id="patch_1">
   <path d="M 0 432 
L 576 432 
L 576 0 
L 0 0 
L 0 432 
z
" style="fill: none; opacity: 0"/>
  </g>
  <g id="axes_1">
   <g id="patch_2">
    <path d="M 40.692322 383.84 
L 546.610142 383.84 
L 546.610142 57.42 
L 40.692322 57.42 
L 40.692322 383.84 
z
" style="fill: none"/>
   </g>
   <g id="matplotlib.axis_1">
    <g id="xtick_1">
     <g id="line2d_1">
      <path d="M 43.015847 383.84 
L 43.015847 57.42 
" clip-path="url(#pb35798397f)" style="fill: none; stroke: #ffffff; stroke-opacity: 0.4; stroke-linecap: round"/>
     </g>
     <g id="line2d_2"/>
     <g id="text_1">
      <text style="font-size: 18px; font-family: 'DejaVu Serif', 'Times New Roman', serif; text-anchor: middle; fill: #262626" x="43.015847" y="404.517187" transform="rotate(-0 43.015847 404.517187)">−15</text>
     </g>
    </g>
    <g id="xtick_2">
     <g id="line2d_3">
      <path d="M 125.849819 383.84 
L 125.849819 57.42 
" clip-path="url(#pb35798397f)" style="fill: none; stroke: #ffffff; stroke-opacity: 0.4; stroke-linecap: round"/>
     </g>
     <g id="line2d_4"/>
     <g id="text_2">
      <text style="font-size: 18px; font-family: 'DejaVu Serif', 'Times New Roman', serif; text-anchor: middle; fill: #262626" x="125.849819" y="404.517187" transform="rotate(-0 125.849819 404.517187)">−10</text>
     </g>
    </g>
    <g id="xtick_3">
     <g id="line2d_5">
      <path d="M 208.68379 383.84 
L 208.68379 57.42 
" clip-path="url(#pb35798397f)" style="fill: none; stroke: #ffffff; stroke-opacity: 0.4; stroke-linecap: round"/>
     </g>
     <g id="line2d_6"/>
     <g id="text_3">
      <text style="font-size: 18px; font-family: 'DejaVu Serif', 'Times New Roman', serif; text-anchor: middle; fill: #262626" x="208.68379" y="404.517187" transform="rotate(-0 208.68379 404.517187)">−5</text>
     </g>
    </g>
    <g id="xtick_4">
     <g id="line2d_7">
      <path d="M 291.517762 383.84 
L 291.517762 57.42 
" clip-path="url(#pb35798397f)" style="fill: none; stroke: #ffffff; stroke-opacity: 0.4; stroke-linecap: round"/>
     </g>
     <g id="line2d_8"/>
     <g id="text_4">
      <text style="font-size: 18px; font-family: 'DejaVu Serif', 'Times New Roman', serif; text-anchor: middle; fill: #262626" x="291.517762" y="404.517187" transform="rotate(-0 291.517762 404.517187)">0</text>
     </g>
    </g>
    <g id="xtick_5">
     <g id="line2d_9">
      <path d="M 374.351733 383.84 
L 374.351733 57.42 
" clip-path="url(#pb35798397f)" style="fill: none; stroke: #ffffff; stroke-opacity: 0.4; stroke-linecap: round"/>
     </g>
     <g id="line2d_10"/>
     <g id="text_5">
      <text style="font-size: 18px; font-family: 'DejaVu Serif', 'Times New Roman', serif; text-anchor: middle; fill: #262626" x="374.351733" y="404.517187" transform="rotate(-0 374.351733 404.517187)">5</text>
     </g>
    </g>
    <g id="xtick_6">
     <g id="line2d_11">
      <path d="M 457.185705 383.84 
L 457.185705 57.42 
" clip-path="url(#pb35798397f)" style="fill: none; stroke: #ffffff; stroke-opacity: 0.4; stroke-linecap: round"/>
     </g>
     <g id="line2d_12"/>
     <g id="text_6">
      <text style="font-size: 18px; font-family: 'DejaVu Serif', 'Times New Roman', serif; text-anchor: middle; fill: #262626" x="457.185705" y="404.517187" transform="rotate(-0 457.185705 404.517187)">10</text>
     </g>
    </g>
    <g id="xtick_7">
     <g id="line2d_13">
      <path d="M 540.019676 383.84 
L 540.019676 57.42 
" clip-path="url(#pb35798397f)" style="fill: none; stroke: #ffffff; stroke-opacity: 0.4; stroke-linecap: round"/>
     </g>
     <g id="line2d_14"/>
     <g id="text_7">
      <text style="font-size: 18px; font-family: 'DejaVu Serif', 'Times New Roman', serif; text-anchor: middle; fill: #262626" x="540.019676" y="404.517187" transform="rotate(-0 540.019676 404.517187)">15</text>
     </g>
    </g>
   </g>
   <g id="matplotlib.axis_2">
    <g id="ytick_1">
     <g id="line2d_15">
      <path d="M 40.692322 369.002727 
L 546.610142 369.002727 
" clip-path="url(#pb35798397f)" style="fill: none; stroke: #ffffff; stroke-opacity: 0.4; stroke-linecap: round"/>
     </g>
    </g>
    <g id="ytick_2">
     <g id="line2d_16">
      <path d="M 40.692322 307.407374 
L 546.610142 307.407374 
" clip-path="url(#pb35798397f)" style="fill: none; stroke: #ffffff; stroke-opacity: 0.4; stroke-linecap: round"/>
     </g>
    </g>
    <g id="ytick_3">
     <g id="line2d_17">
      <path d="M 40.692322 245.81202 
L 546.610142 245.81202 
" clip-path="url(#pb35798397f)" style="fill: none; stroke: #ffffff; stroke-opacity: 0.4; stroke-linecap: round"/>
     </g>
    </g>
    <g id="ytick_4">
     <g id="line2d_18">
      <path d="M 40.692322 184.216667 
L 546.610142 184.216667 
" clip-path="url(#pb35798397f)" style="fill: none; stroke: #ffffff; stroke-opacity: 0.4; stroke-linecap: round"/>
     </g>
    </g>
    <g id="ytick_5">
     <g id="line2d_19">
      <path d="M 40.692322 122.621314 
L 546.610142 122.621314 
" clip-path="url(#pb35798397f)" style="fill: none; stroke: #ffffff; stroke-opacity: 0.4; stroke-linecap: round"/>
     </g>
    </g>
    <g id="ytick_6">
     <g id="line2d_20">
      <path d="M 40.692322 61.02596 
L 546.610142 61.02596 
" clip-path="url(#pb35798397f)" style="fill: none; stroke: #ffffff; stroke-opacity: 0.4; stroke-linecap: round"/>
     </g>
    </g>
   </g>
   <g id="FillBetweenPolyCollection_1">
    <defs>
     <path id="m11cadc0c8a" d="M 63.688587 -62.997273 
L 63.688587 -64.636596 
L 64.588636 -64.631736 
L 65.488686 -64.627179 
L 66.388735 -64.623105 
L 67.288785 -64.612421 
L 68.188834 -64.608678 
L 69.088884 -64.599902 
L 69.988933 -64.59123 
L 70.888983 -64.586207 
L 71.789032 -64.580462 
L 72.689082 -64.576416 
L 73.589131 -64.577753 
L 74.489181 -64.583098 
L 75.38923 -64.596287 
L 76.28928 -64.61318 
L 77.189329 -64.636997 
L 78.089379 -64.668642 
L 78.989428 -64.70607 
L 79.889478 -64.752242 
L 80.789527 -64.810658 
L 81.689577 -64.879664 
L 82.589626 -64.959806 
L 83.489676 -65.054453 
L 84.389725 -65.153691 
L 85.289775 -65.270216 
L 86.189824 -65.398974 
L 87.089874 -65.537079 
L 87.989923 -65.692413 
L 88.889973 -65.866138 
L 89.790022 -66.050872 
L 90.690071 -66.243002 
L 91.590121 -66.443782 
L 92.49017 -66.654858 
L 93.39022 -66.881942 
L 94.290269 -67.117016 
L 95.190319 -67.363976 
L 96.090368 -67.617033 
L 96.990418 -67.874817 
L 97.890467 -68.1387 
L 98.790517 -68.407723 
L 99.690566 -68.690267 
L 100.590616 -68.976619 
L 101.490665 -69.267843 
L 102.390715 -69.559859 
L 103.290764 -69.854325 
L 104.190814 -70.156465 
L 105.090863 -70.461419 
L 105.990913 -70.777739 
L 106.890962 -71.082022 
L 107.791012 -71.390561 
L 108.691061 -71.70319 
L 109.591111 -72.017638 
L 110.49116 -72.333973 
L 111.39121 -72.655232 
L 112.291259 -72.979431 
L 113.191309 -73.304021 
L 114.091358 -73.637397 
L 114.991408 -73.972654 
L 115.891457 -74.313222 
L 116.791507 -74.656759 
L 117.691556 -75.017075 
L 118.591606 -75.377344 
L 119.491655 -75.748082 
L 120.391705 -76.130819 
L 121.291754 -76.52436 
L 122.191804 -76.932778 
L 123.091853 -77.349319 
L 123.991903 -77.782631 
L 124.891952 -78.240497 
L 125.792002 -78.706198 
L 126.692051 -79.190216 
L 127.592101 -79.693873 
L 128.49215 -80.2243 
L 129.3922 -80.767425 
L 130.292249 -81.333364 
L 131.192299 -81.934617 
L 132.092348 -82.572049 
L 132.992398 -83.217095 
L 133.892447 -83.905992 
L 134.792497 -84.62544 
L 135.692546 -85.362395 
L 136.592596 -86.148738 
L 137.492645 -86.954002 
L 138.392695 -87.792411 
L 139.292744 -88.664926 
L 140.192794 -89.563008 
L 141.092843 -90.505479 
L 141.992893 -91.481007 
L 142.892942 -92.478941 
L 143.792992 -93.499684 
L 144.693041 -94.557712 
L 145.593091 -95.635362 
L 146.49314 -96.733029 
L 147.39319 -97.871827 
L 148.293239 -99.026283 
L 149.193288 -100.187009 
L 150.093338 -101.385807 
L 150.993387 -102.585658 
L 151.893437 -103.818192 
L 152.793486 -105.045556 
L 153.693536 -106.279926 
L 154.593585 -107.540157 
L 155.493635 -108.800341 
L 156.393684 -110.060743 
L 157.293734 -111.335401 
L 158.193783 -112.613541 
L 159.093833 -113.900657 
L 159.993882 -115.182109 
L 160.893932 -116.481703 
L 161.793981 -117.790636 
L 162.694031 -119.124368 
L 163.59408 -120.461897 
L 164.49413 -121.806003 
L 165.394179 -123.161703 
L 166.294229 -124.526032 
L 167.194278 -125.896105 
L 168.094328 -127.292884 
L 168.994377 -128.696874 
L 169.894427 -130.116814 
L 170.794476 -131.570423 
L 171.694526 -133.022434 
L 172.594575 -134.49168 
L 173.494625 -135.971779 
L 174.394674 -137.459983 
L 175.294724 -138.96801 
L 176.194773 -140.514866 
L 177.094823 -142.02767 
L 177.994872 -143.556722 
L 178.894922 -145.105465 
L 179.794971 -146.677856 
L 180.695021 -148.283333 
L 181.59507 -149.903289 
L 182.49512 -151.528188 
L 183.395169 -153.197309 
L 184.295219 -154.893539 
L 185.195268 -156.632079 
L 186.095318 -158.39195 
L 186.995367 -160.205143 
L 187.895417 -162.075885 
L 188.795466 -164.001441 
L 189.695516 -165.979054 
L 190.595565 -168.005669 
L 191.495615 -170.118696 
L 192.395664 -172.280448 
L 193.295714 -174.499857 
L 194.195763 -176.774573 
L 195.095813 -179.109384 
L 195.995862 -181.523061 
L 196.895912 -183.978107 
L 197.795961 -186.468216 
L 198.696011 -188.999844 
L 199.59606 -191.548544 
L 200.49611 -194.131667 
L 201.396159 -196.707292 
L 202.296209 -199.309762 
L 203.196258 -201.89902 
L 204.096308 -204.450055 
L 204.996357 -206.935473 
L 205.896406 -209.420416 
L 206.796456 -211.868345 
L 207.696505 -214.255193 
L 208.596555 -216.582086 
L 209.496604 -218.8228 
L 210.396654 -221.021614 
L 211.296703 -223.134635 
L 212.196753 -225.191672 
L 213.096802 -227.17362 
L 213.996852 -229.054587 
L 214.896901 -230.916749 
L 215.796951 -232.699378 
L 216.697 -234.425519 
L 217.59705 -236.098944 
L 218.497099 -237.736282 
L 219.397149 -239.34717 
L 220.297198 -240.927566 
L 221.197248 -242.47973 
L 222.097297 -244.039508 
L 222.997347 -245.558732 
L 223.897396 -247.125459 
L 224.797446 -248.681687 
L 225.697495 -250.250175 
L 226.597545 -251.82236 
L 227.497594 -253.409448 
L 228.397644 -254.988629 
L 229.297693 -256.62075 
L 230.197743 -258.260763 
L 231.097792 -259.924804 
L 231.997842 -261.618058 
L 232.897891 -263.334667 
L 233.797941 -265.062564 
L 234.69799 -266.807946 
L 235.59804 -268.563995 
L 236.498089 -270.390184 
L 237.398139 -272.227606 
L 238.298188 -274.08225 
L 239.198238 -275.941208 
L 240.098287 -277.877918 
L 240.998337 -279.822657 
L 241.898386 -281.820702 
L 242.798436 -283.854744 
L 243.698485 -285.906316 
L 244.598535 -288.041661 
L 245.498584 -290.216367 
L 246.398634 -292.468088 
L 247.298683 -294.791262 
L 248.198733 -297.160747 
L 249.098782 -299.585526 
L 249.998832 -302.120228 
L 250.898881 -304.704126 
L 251.798931 -307.367804 
L 252.69898 -310.092614 
L 253.59903 -312.854101 
L 254.499079 -315.684516 
L 255.399129 -318.546411 
L 256.299178 -321.405884 
L 257.199228 -324.315557 
L 258.099277 -327.209108 
L 258.999327 -330.11139 
L 259.899376 -332.944206 
L 260.799426 -335.726724 
L 261.699475 -338.41665 
L 262.599525 -341.008107 
L 263.499574 -343.513931 
L 264.399623 -345.849473 
L 265.299673 -348.043491 
L 266.199722 -350.093613 
L 267.099772 -351.982376 
L 267.999821 -353.654743 
L 268.899871 -355.107245 
L 269.79992 -356.365316 
L 270.69997 -357.425285 
L 271.600019 -358.261251 
L 272.500069 -358.941589 
L 273.400118 -359.392184 
L 274.300168 -359.69052 
L 275.200217 -359.742727 
L 276.100267 -359.677363 
L 277.000316 -359.49156 
L 277.900366 -359.179682 
L 278.800415 -358.731612 
L 279.700465 -358.160241 
L 280.600514 -357.521032 
L 281.500564 -356.844485 
L 282.400613 -356.146051 
L 283.300663 -355.393587 
L 284.200712 -354.678156 
L 285.100762 -353.92146 
L 286.000811 -353.195617 
L 286.900861 -352.509125 
L 287.80091 -351.836403 
L 288.70096 -351.20211 
L 289.601009 -350.607066 
L 290.501059 -350.066099 
L 291.401108 -349.558215 
L 292.301158 -349.091673 
L 293.201207 -348.660373 
L 294.101257 -348.254651 
L 295.001306 -347.876295 
L 295.901356 -347.553593 
L 296.801405 -347.192937 
L 297.701455 -346.843814 
L 298.601504 -346.493503 
L 299.501554 -346.166569 
L 300.401603 -345.81756 
L 301.301653 -345.523215 
L 302.201702 -345.157859 
L 303.101752 -344.756399 
L 304.001801 -344.33343 
L 304.901851 -343.864272 
L 305.8019 -343.372895 
L 306.70195 -342.829437 
L 307.601999 -342.263484 
L 308.502049 -341.669468 
L 309.402098 -341.011188 
L 310.302148 -340.331019 
L 311.202197 -339.619083 
L 312.102247 -338.860452 
L 313.002296 -338.036681 
L 313.902346 -337.185756 
L 314.802395 -336.302772 
L 315.702445 -335.383378 
L 316.602494 -334.430136 
L 317.502544 -333.411436 
L 318.402593 -332.346404 
L 319.302643 -331.262819 
L 320.202692 -330.130018 
L 321.102741 -328.953184 
L 322.002791 -327.751042 
L 322.90284 -326.501027 
L 323.80289 -325.199229 
L 324.702939 -323.828249 
L 325.602989 -322.437713 
L 326.503038 -320.999853 
L 327.403088 -319.517474 
L 328.303137 -318.024556 
L 329.203187 -316.467289 
L 330.103236 -314.834234 
L 331.003286 -313.166339 
L 331.903335 -311.446446 
L 332.803385 -309.701755 
L 333.703434 -307.89536 
L 334.603484 -306.059679 
L 335.503533 -304.175955 
L 336.403583 -302.230193 
L 337.303632 -300.261474 
L 338.203682 -298.237958 
L 339.103731 -296.140027 
L 340.003781 -293.997305 
L 340.90383 -291.852646 
L 341.80388 -289.65835 
L 342.703929 -287.445431 
L 343.603979 -285.206053 
L 344.504028 -282.927238 
L 345.404078 -280.572431 
L 346.304127 -278.202083 
L 347.204177 -275.787188 
L 348.104226 -273.407718 
L 349.004276 -270.963752 
L 349.904325 -268.481526 
L 350.804375 -266.036198 
L 351.704424 -263.574263 
L 352.604474 -261.125158 
L 353.504523 -258.659475 
L 354.404573 -256.179398 
L 355.304622 -253.702105 
L 356.204672 -251.266147 
L 357.104721 -248.818868 
L 358.004771 -246.431096 
L 358.90482 -244.061539 
L 359.80487 -241.709963 
L 360.704919 -239.373013 
L 361.604969 -237.093557 
L 362.505018 -234.82938 
L 363.405068 -232.577779 
L 364.305117 -230.371393 
L 365.205167 -228.184373 
L 366.105216 -226.009215 
L 367.005266 -223.882365 
L 367.905315 -221.759059 
L 368.805365 -219.624391 
L 369.705414 -217.532199 
L 370.605464 -215.444054 
L 371.505513 -213.359738 
L 372.405563 -211.230703 
L 373.305612 -209.097487 
L 374.205662 -206.893999 
L 375.105711 -204.696374 
L 376.005761 -202.501918 
L 376.90581 -200.252901 
L 377.80586 -197.987014 
L 378.705909 -195.677912 
L 379.605958 -193.343204 
L 380.506008 -190.962928 
L 381.406057 -188.549972 
L 382.306107 -186.102185 
L 383.206156 -183.66009 
L 384.106206 -181.188298 
L 385.006255 -178.729133 
L 385.906305 -176.245761 
L 386.806354 -173.770033 
L 387.706404 -171.294691 
L 388.606453 -168.84467 
L 389.506503 -166.431037 
L 390.406552 -164.050454 
L 391.306602 -161.716412 
L 392.206651 -159.401704 
L 393.106701 -157.146492 
L 394.00675 -154.947438 
L 394.9068 -152.786154 
L 395.806849 -150.679042 
L 396.706899 -148.655134 
L 397.606948 -146.670218 
L 398.506998 -144.730109 
L 399.407047 -142.860826 
L 400.307097 -141.035958 
L 401.207146 -139.261226 
L 402.107196 -137.558256 
L 403.007245 -135.89393 
L 403.907295 -134.279253 
L 404.807344 -132.700989 
L 405.707394 -131.15658 
L 406.607443 -129.659422 
L 407.507493 -128.194572 
L 408.407542 -126.769558 
L 409.307592 -125.357279 
L 410.207641 -123.991944 
L 411.107691 -122.646634 
L 412.00774 -121.33697 
L 412.90779 -120.047961 
L 413.807839 -118.757809 
L 414.707889 -117.508808 
L 415.607938 -116.260138 
L 416.507988 -115.029821 
L 417.408037 -113.851053 
L 418.308087 -112.693841 
L 419.208136 -111.562165 
L 420.108186 -110.445433 
L 421.008235 -109.339954 
L 421.908285 -108.262417 
L 422.808334 -107.220505 
L 423.708384 -106.181213 
L 424.608433 -105.175182 
L 425.508483 -104.181208 
L 426.408532 -103.242113 
L 427.308582 -102.331623 
L 428.208631 -101.429986 
L 429.108681 -100.547233 
L 430.00873 -99.689906 
L 430.90878 -98.852619 
L 431.808829 -98.05027 
L 432.708879 -97.278855 
L 433.608928 -96.529885 
L 434.508978 -95.810167 
L 435.409027 -95.120769 
L 436.309076 -94.447992 
L 437.209126 -93.787079 
L 438.109175 -93.145354 
L 439.009225 -92.532687 
L 439.909274 -91.936961 
L 440.809324 -91.357048 
L 441.709373 -90.793468 
L 442.609423 -90.236033 
L 443.509472 -89.689809 
L 444.409522 -89.163155 
L 445.309571 -88.648676 
L 446.209621 -88.130619 
L 447.10967 -87.640496 
L 448.00972 -87.153027 
L 448.909769 -86.659207 
L 449.809819 -86.186846 
L 450.709868 -85.707324 
L 451.609918 -85.237594 
L 452.509967 -84.768229 
L 453.410017 -84.301301 
L 454.310066 -83.838855 
L 455.210116 -83.389935 
L 456.110165 -82.918655 
L 457.010215 -82.460192 
L 457.910264 -81.994858 
L 458.810314 -81.532306 
L 459.710363 -81.064001 
L 460.610413 -80.597606 
L 461.510462 -80.124945 
L 462.410512 -79.646607 
L 463.310561 -79.170115 
L 464.210611 -78.687228 
L 465.11066 -78.199755 
L 466.01071 -77.71127 
L 466.910759 -77.228912 
L 467.810809 -76.739163 
L 468.710858 -76.261165 
L 469.610908 -75.773088 
L 470.510957 -75.305193 
L 471.411007 -74.837595 
L 472.311056 -74.372813 
L 473.211106 -73.918261 
L 474.111155 -73.473166 
L 475.011205 -73.044024 
L 475.911254 -72.631498 
L 476.811304 -72.23453 
L 477.711353 -71.85643 
L 478.611403 -71.494577 
L 479.511452 -71.147948 
L 480.411502 -70.820349 
L 481.311551 -70.508924 
L 482.211601 -70.217978 
L 483.11165 -69.932805 
L 484.0117 -69.682847 
L 484.911749 -69.442759 
L 485.811799 -69.212996 
L 486.711848 -69.007388 
L 487.611898 -68.811903 
L 488.511947 -68.631474 
L 489.411997 -68.457211 
L 490.312046 -68.293292 
L 491.212096 -68.141022 
L 492.112145 -67.99668 
L 493.012194 -67.8618 
L 493.912244 -67.732895 
L 494.812293 -67.607154 
L 495.712343 -67.485238 
L 496.612392 -67.370078 
L 497.512442 -67.25829 
L 498.412491 -67.158548 
L 499.312541 -67.055851 
L 500.21259 -66.956316 
L 501.11264 -66.868731 
L 502.012689 -66.782143 
L 502.912739 -66.701717 
L 503.812788 -66.626918 
L 504.712838 -66.552737 
L 505.612887 -66.485033 
L 506.512937 -66.418743 
L 507.412986 -66.356152 
L 508.313036 -66.297849 
L 509.213085 -66.243789 
L 510.113135 -66.193292 
L 511.013184 -66.151477 
L 511.913234 -66.110378 
L 512.813283 -66.069978 
L 513.713333 -66.038216 
L 514.613382 -66.007043 
L 515.513432 -65.979292 
L 516.413481 -65.954877 
L 517.313531 -65.930796 
L 518.21358 -65.912028 
L 519.11363 -65.895558 
L 520.013679 -65.881272 
L 520.913729 -65.872584 
L 521.813778 -65.867239 
L 522.713828 -65.85719 
L 523.613877 -65.852547 
L 523.613877 -62.997273 
L 523.613877 -62.997273 
L 522.713828 -62.997273 
L 521.813778 -62.997273 
L 520.913729 -62.997273 
L 520.013679 -62.997273 
L 519.11363 -62.997273 
L 518.21358 -62.997273 
L 517.313531 -62.997273 
L 516.413481 -62.997273 
L 515.513432 -62.997273 
L 514.613382 -62.997273 
L 513.713333 -62.997273 
L 512.813283 -62.997273 
L 511.913234 -62.997273 
L 511.013184 -62.997273 
L 510.113135 -62.997273 
L 509.213085 -62.997273 
L 508.313036 -62.997273 
L 507.412986 -62.997273 
L 506.512937 -62.997273 
L 505.612887 -62.997273 
L 504.712838 -62.997273 
L 503.812788 -62.997273 
L 502.912739 -62.997273 
L 502.012689 -62.997273 
L 501.11264 -62.997273 
L 500.21259 -62.997273 
L 499.312541 -62.997273 
L 498.412491 -62.997273 
L 497.512442 -62.997273 
L 496.612392 -62.997273 
L 495.712343 -62.997273 
L 494.812293 -62.997273 
L 493.912244 -62.997273 
L 493.012194 -62.997273 
L 492.112145 -62.997273 
L 491.212096 -62.997273 
L 490.312046 -62.997273 
L 489.411997 -62.997273 
L 488.511947 -62.997273 
L 487.611898 -62.997273 
L 486.711848 -62.997273 
L 485.811799 -62.997273 
L 484.911749 -62.997273 
L 484.0117 -62.997273 
L 483.11165 -62.997273 
L 482.211601 -62.997273 
L 481.311551 -62.997273 
L 480.411502 -62.997273 
L 479.511452 -62.997273 
L 478.611403 -62.997273 
L 477.711353 -62.997273 
L 476.811304 -62.997273 
L 475.911254 -62.997273 
L 475.011205 -62.997273 
L 474.111155 -62.997273 
L 473.211106 -62.997273 
L 472.311056 -62.997273 
L 471.411007 -62.997273 
L 470.510957 -62.997273 
L 469.610908 -62.997273 
L 468.710858 -62.997273 
L 467.810809 -62.997273 
L 466.910759 -62.997273 
L 466.01071 -62.997273 
L 465.11066 -62.997273 
L 464.210611 -62.997273 
L 463.310561 -62.997273 
L 462.410512 -62.997273 
L 461.510462 -62.997273 
L 460.610413 -62.997273 
L 459.710363 -62.997273 
L 458.810314 -62.997273 
L 457.910264 -62.997273 
L 457.010215 -62.997273 
L 456.110165 -62.997273 
L 455.210116 -62.997273 
L 454.310066 -62.997273 
L 453.410017 -62.997273 
L 452.509967 -62.997273 
L 451.609918 -62.997273 
L 450.709868 -62.997273 
L 449.809819 -62.997273 
L 448.909769 -62.997273 
L 448.00972 -62.997273 
L 447.10967 -62.997273 
L 446.209621 -62.997273 
L 445.309571 -62.997273 
L 444.409522 -62.997273 
L 443.509472 -62.997273 
L 442.609423 -62.997273 
L 441.709373 -62.997273 
L 440.809324 -62.997273 
L 439.909274 -62.997273 
L 439.009225 -62.997273 
L 438.109175 -62.997273 
L 437.209126 -62.997273 
L 436.309076 -62.997273 
L 435.409027 -62.997273 
L 434.508978 -62.997273 
L 433.608928 -62.997273 
L 432.708879 -62.997273 
L 431.808829 -62.997273 
L 430.90878 -62.997273 
L 430.00873 -62.997273 
L 429.108681 -62.997273 
L 428.208631 -62.997273 
L 427.308582 -62.997273 
L 426.408532 -62.997273 
L 425.508483 -62.997273 
L 424.608433 -62.997273 
L 423.708384 -62.997273 
L 422.808334 -62.997273 
L 421.908285 -62.997273 
L 421.008235 -62.997273 
L 420.108186 -62.997273 
L 419.208136 -62.997273 
L 418.308087 -62.997273 
L 417.408037 -62.997273 
L 416.507988 -62.997273 
L 415.607938 -62.997273 
L 414.707889 -62.997273 
L 413.807839 -62.997273 
L 412.90779 -62.997273 
L 412.00774 -62.997273 
L 411.107691 -62.997273 
L 410.207641 -62.997273 
L 409.307592 -62.997273 
L 408.407542 -62.997273 
L 407.507493 -62.997273 
L 406.607443 -62.997273 
L 405.707394 -62.997273 
L 404.807344 -62.997273 
L 403.907295 -62.997273 
L 403.007245 -62.997273 
L 402.107196 -62.997273 
L 401.207146 -62.997273 
L 400.307097 -62.997273 
L 399.407047 -62.997273 
L 398.506998 -62.997273 
L 397.606948 -62.997273 
L 396.706899 -62.997273 
L 395.806849 -62.997273 
L 394.9068 -62.997273 
L 394.00675 -62.997273 
L 393.106701 -62.997273 
L 392.206651 -62.997273 
L 391.306602 -62.997273 
L 390.406552 -62.997273 
L 389.506503 -62.997273 
L 388.606453 -62.997273 
L 387.706404 -62.997273 
L 386.806354 -62.997273 
L 385.906305 -62.997273 
L 385.006255 -62.997273 
L 384.106206 -62.997273 
L 383.206156 -62.997273 
L 382.306107 -62.997273 
L 381.406057 -62.997273 
L 380.506008 -62.997273 
L 379.605958 -62.997273 
L 378.705909 -62.997273 
L 377.80586 -62.997273 
L 376.90581 -62.997273 
L 376.005761 -62.997273 
L 375.105711 -62.997273 
L 374.205662 -62.997273 
L 373.305612 -62.997273 
L 372.405563 -62.997273 
L 371.505513 -62.997273 
L 370.605464 -62.997273 
L 369.705414 -62.997273 
L 368.805365 -62.997273 
L 367.905315 -62.997273 
L 367.005266 -62.997273 
L 366.105216 -62.997273 
L 365.205167 -62.997273 
L 364.305117 -62.997273 
L 363.405068 -62.997273 
L 362.505018 -62.997273 
L 361.604969 -62.997273 
L 360.704919 -62.997273 
L 359.80487 -62.997273 
L 358.90482 -62.997273 
L 358.004771 -62.997273 
L 357.104721 -62.997273 
L 356.204672 -62.997273 
L 355.304622 -62.997273 
L 354.404573 -62.997273 
L 353.504523 -62.997273 
L 352.604474 -62.997273 
L 351.704424 -62.997273 
L 350.804375 -62.997273 
L 349.904325 -62.997273 
L 349.004276 -62.997273 
L 348.104226 -62.997273 
L 347.204177 -62.997273 
L 346.304127 -62.997273 
L 345.404078 -62.997273 
L 344.504028 -62.997273 
L 343.603979 -62.997273 
L 342.703929 -62.997273 
L 341.80388 -62.997273 
L 340.90383 -62.997273 
L 340.003781 -62.997273 
L 339.103731 -62.997273 
L 338.203682 -62.997273 
L 337.303632 -62.997273 
L 336.403583 -62.997273 
L 335.503533 -62.997273 
L 334.603484 -62.997273 
L 333.703434 -62.997273 
L 332.803385 -62.997273 
L 331.903335 -62.997273 
L 331.003286 -62.997273 
L 330.103236 -62.997273 
L 329.203187 -62.997273 
L 328.303137 -62.997273 
L 327.403088 -62.997273 
L 326.503038 -62.997273 
L 325.602989 -62.997273 
L 324.702939 -62.997273 
L 323.80289 -62.997273 
L 322.90284 -62.997273 
L 322.002791 -62.997273 
L 321.102741 -62.997273 
L 320.202692 -62.997273 
L 319.302643 -62.997273 
L 318.402593 -62.997273 
L 317.502544 -62.997273 
L 316.602494 -62.997273 
L 315.702445 -62.997273 
L 314.802395 -62.997273 
L 313.902346 -62.997273 
L 313.002296 -62.997273 
L 312.102247 -62.997273 
L 311.202197 -62.997273 
L 310.302148 -62.997273 
L 309.402098 -62.997273 
L 308.502049 -62.997273 
L 307.601999 -62.997273 
L 306.70195 -62.997273 
L 305.8019 -62.997273 
L 304.901851 -62.997273 
L 304.001801 -62.997273 
L 303.101752 -62.997273 
L 302.201702 -62.997273 
L 301.301653 -62.997273 
L 300.401603 -62.997273 
L 299.501554 -62.997273 
L 298.601504 -62.997273 
L 297.701455 -62.997273 
L 296.801405 -62.997273 
L 295.901356 -62.997273 
L 295.001306 -62.997273 
L 294.101257 -62.997273 
L 293.201207 -62.997273 
L 292.301158 -62.997273 
L 291.401108 -62.997273 
L 290.501059 -62.997273 
L 289.601009 -62.997273 
L 288.70096 -62.997273 
L 287.80091 -62.997273 
L 286.900861 -62.997273 
L 286.000811 -62.997273 
L 285.100762 -62.997273 
L 284.200712 -62.997273 
L 283.300663 -62.997273 
L 282.400613 -62.997273 
L 281.500564 -62.997273 
L 280.600514 -62.997273 
L 279.700465 -62.997273 
L 278.800415 -62.997273 
L 277.900366 -62.997273 
L 277.000316 -62.997273 
L 276.100267 -62.997273 
L 275.200217 -62.997273 
L 274.300168 -62.997273 
L 273.400118 -62.997273 
L 272.500069 -62.997273 
L 271.600019 -62.997273 
L 270.69997 -62.997273 
L 269.79992 -62.997273 
L 268.899871 -62.997273 
L 267.999821 -62.997273 
L 267.099772 -62.997273 
L 266.199722 -62.997273 
L 265.299673 -62.997273 
L 264.399623 -62.997273 
L 263.499574 -62.997273 
L 262.599525 -62.997273 
L 261.699475 -62.997273 
L 260.799426 -62.997273 
L 259.899376 -62.997273 
L 258.999327 -62.997273 
L 258.099277 -62.997273 
L 257.199228 -62.997273 
L 256.299178 -62.997273 
L 255.399129 -62.997273 
L 254.499079 -62.997273 
L 253.59903 -62.997273 
L 252.69898 -62.997273 
L 251.798931 -62.997273 
L 250.898881 -62.997273 
L 249.998832 -62.997273 
L 249.098782 -62.997273 
L 248.198733 -62.997273 
L 247.298683 -62.997273 
L 246.398634 -62.997273 
L 245.498584 -62.997273 
L 244.598535 -62.997273 
L 243.698485 -62.997273 
L 242.798436 -62.997273 
L 241.898386 -62.997273 
L 240.998337 -62.997273 
L 240.098287 -62.997273 
L 239.198238 -62.997273 
L 238.298188 -62.997273 
L 237.398139 -62.997273 
L 236.498089 -62.997273 
L 235.59804 -62.997273 
L 234.69799 -62.997273 
L 233.797941 -62.997273 
L 232.897891 -62.997273 
L 231.997842 -62.997273 
L 231.097792 -62.997273 
L 230.197743 -62.997273 
L 229.297693 -62.997273 
L 228.397644 -62.997273 
L 227.497594 -62.997273 
L 226.597545 -62.997273 
L 225.697495 -62.997273 
L 224.797446 -62.997273 
L 223.897396 -62.997273 
L 222.997347 -62.997273 
L 222.097297 -62.997273 
L 221.197248 -62.997273 
L 220.297198 -62.997273 
L 219.397149 -62.997273 
L 218.497099 -62.997273 
L 217.59705 -62.997273 
L 216.697 -62.997273 
L 215.796951 -62.997273 
L 214.896901 -62.997273 
L 213.996852 -62.997273 
L 213.096802 -62.997273 
L 212.196753 -62.997273 
L 211.296703 -62.997273 
L 210.396654 -62.997273 
L 209.496604 -62.997273 
L 208.596555 -62.997273 
L 207.696505 -62.997273 
L 206.796456 -62.997273 
L 205.896406 -62.997273 
L 204.996357 -62.997273 
L 204.096308 -62.997273 
L 203.196258 -62.997273 
L 202.296209 -62.997273 
L 201.396159 -62.997273 
L 200.49611 -62.997273 
L 199.59606 -62.997273 
L 198.696011 -62.997273 
L 197.795961 -62.997273 
L 196.895912 -62.997273 
L 195.995862 -62.997273 
L 195.095813 -62.997273 
L 194.195763 -62.997273 
L 193.295714 -62.997273 
L 192.395664 -62.997273 
L 191.495615 -62.997273 
L 190.595565 -62.997273 
L 189.695516 -62.997273 
L 188.795466 -62.997273 
L 187.895417 -62.997273 
L 186.995367 -62.997273 
L 186.095318 -62.997273 
L 185.195268 -62.997273 
L 184.295219 -62.997273 
L 183.395169 -62.997273 
L 182.49512 -62.997273 
L 181.59507 -62.997273 
L 180.695021 -62.997273 
L 179.794971 -62.997273 
L 178.894922 -62.997273 
L 177.994872 -62.997273 
L 177.094823 -62.997273 
L 176.194773 -62.997273 
L 175.294724 -62.997273 
L 174.394674 -62.997273 
L 173.494625 -62.997273 
L 172.594575 -62.997273 
L 171.694526 -62.997273 
L 170.794476 -62.997273 
L 169.894427 -62.997273 
L 168.994377 -62.997273 
L 168.094328 -62.997273 
L 167.194278 -62.997273 
L 166.294229 -62.997273 
L 165.394179 -62.997273 
L 164.49413 -62.997273 
L 163.59408 -62.997273 
L 162.694031 -62.997273 
L 161.793981 -62.997273 
L 160.893932 -62.997273 
L 159.993882 -62.997273 
L 159.093833 -62.997273 
L 158.193783 -62.997273 
L 157.293734 -62.997273 
L 156.393684 -62.997273 
L 155.493635 -62.997273 
L 154.593585 -62.997273 
L 153.693536 -62.997273 
L 152.793486 -62.997273 
L 151.893437 -62.997273 
L 150.993387 -62.997273 
L 150.093338 -62.997273 
L 149.193288 -62.997273 
L 148.293239 -62.997273 
L 147.39319 -62.997273 
L 146.49314 -62.997273 
L 145.593091 -62.997273 
L 144.693041 -62.997273 
L 143.792992 -62.997273 
L 142.892942 -62.997273 
L 141.992893 -62.997273 
L 141.092843 -62.997273 
L 140.192794 -62.997273 
L 139.292744 -62.997273 
L 138.392695 -62.997273 
L 137.492645 -62.997273 
L 136.592596 -62.997273 
L 135.692546 -62.997273 
L 134.792497 -62.997273 
L 133.892447 -62.997273 
L 132.992398 -62.997273 
L 132.092348 -62.997273 
L 131.192299 -62.997273 
L 130.292249 -62.997273 
L 129.3922 -62.997273 
L 128.49215 -62.997273 
L 127.592101 -62.997273 
L 126.692051 -62.997273 
L 125.792002 -62.997273 
L 124.891952 -62.997273 
L 123.991903 -62.997273 
L 123.091853 -62.997273 
L 122.191804 -62.997273 
L 121.291754 -62.997273 
L 120.391705 -62.997273 
L 119.491655 -62.997273 
L 118.591606 -62.997273 
L 117.691556 -62.997273 
L 116.791507 -62.997273 
L 115.891457 -62.997273 
L 114.991408 -62.997273 
L 114.091358 -62.997273 
L 113.191309 -62.997273 
L 112.291259 -62.997273 
L 111.39121 -62.997273 
L 110.49116 -62.997273 
L 109.591111 -62.997273 
L 108.691061 -62.997273 
L 107.791012 -62.997273 
L 106.890962 -62.997273 
L 105.990913 -62.997273 
L 105.090863 -62.997273 
L 104.190814 -62.997273 
L 103.290764 -62.997273 
L 102.390715 -62.997273 
L 101.490665 -62.997273 
L 100.590616 -62.997273 
L 99.690566 -62.997273 
L 98.790517 -62.997273 
L 97.890467 -62.997273 
L 96.990418 -62.997273 
L 96.090368 -62.997273 
L 95.190319 -62.997273 
L 94.290269 -62.997273 
L 93.39022 -62.997273 
L 92.49017 -62.997273 
L 91.590121 -62.997273 
L 90.690071 -62.997273 
L 89.790022 -62.997273 
L 88.889973 -62.997273 
L 87.989923 -62.997273 
L 87.089874 -62.997273 
L 86.189824 -62.997273 
L 85.289775 -62.997273 
L 84.389725 -62.997273 
L 83.489676 -62.997273 
L 82.589626 -62.997273 
L 81.689577 -62.997273 
L 80.789527 -62.997273 
L 79.889478 -62.997273 
L 78.989428 -62.997273 
L 78.089379 -62.997273 
L 77.189329 -62.997273 
L 76.28928 -62.997273 
L 75.38923 -62.997273 
L 74.489181 -62.997273 
L 73.589131 -62.997273 
L 72.689082 -62.997273 
L 71.789032 -62.997273 
L 70.888983 -62.997273 
L 69.988933 -62.997273 
L 69.088884 -62.997273 
L 68.188834 -62.997273 
L 67.288785 -62.997273 
L 66.388735 -62.997273 
L 65.488686 -62.997273 
L 64.588636 -62.997273 
L 63.688587 -62.997273 
z
"/>
    </defs>
    <g clip-path="url(#pb35798397f)">
     <use xlink:href="#m11cadc0c8a" x="0" y="432" style="fill: #51d7c1; fill-opacity: 0.6"/>
    </g>
   </g>
   <g id="line2d_21">
    <path d="M 63.688587 367.363404 
L 78.089379 367.331358 
L 82.589626 367.040194 
L 87.089874 366.462921 
L 90.690071 365.756998 
L 94.290269 364.882984 
L 99.690566 363.309733 
L 106.890962 360.917978 
L 114.991408 358.027346 
L 120.391705 355.869181 
L 123.991903 354.217369 
L 127.592101 352.306127 
L 131.192299 350.065383 
L 133.892447 348.094008 
L 136.592596 345.851262 
L 139.292744 343.335074 
L 141.992893 340.518993 
L 145.593091 336.364638 
L 149.193288 331.812991 
L 154.593585 324.459843 
L 161.793981 314.209364 
L 168.094328 304.707116 
L 172.594575 297.50832 
L 177.994872 288.443278 
L 181.59507 282.096711 
L 185.195268 275.367921 
L 187.895417 269.924115 
L 190.595565 263.994331 
L 193.295714 257.500143 
L 195.995862 250.476939 
L 199.59606 240.451456 
L 205.896406 222.579584 
L 208.596555 215.417914 
L 211.296703 208.865365 
L 213.996852 202.945413 
L 216.697 197.574481 
L 220.297198 191.072434 
L 229.297693 175.37925 
L 232.897891 168.665333 
L 236.498089 161.609816 
L 240.998337 152.177343 
L 244.598535 143.958339 
L 247.298683 137.208738 
L 249.998832 129.879772 
L 252.69898 121.907386 
L 256.299178 110.594116 
L 260.799426 96.273276 
L 263.499574 88.486069 
L 265.299673 83.956509 
L 267.099772 80.017624 
L 268.899871 76.892755 
L 269.79992 75.634684 
L 270.69997 74.574715 
L 271.600019 73.738749 
L 272.500069 73.058411 
L 273.400118 72.607816 
L 274.300168 72.30948 
L 275.200217 72.257273 
L 276.100267 72.322637 
L 277.000316 72.50844 
L 277.900366 72.820318 
L 279.700465 73.839759 
L 282.400613 75.853949 
L 286.900861 79.490875 
L 289.601009 81.392934 
L 292.301158 82.908327 
L 295.001306 84.123705 
L 299.501554 85.833431 
L 304.001801 87.66657 
L 306.70195 89.170563 
L 309.402098 90.988812 
L 312.102247 93.139548 
L 314.802395 95.697228 
L 317.502544 98.588564 
L 320.202692 101.869982 
L 322.90284 105.498973 
L 325.602989 109.562287 
L 328.303137 113.975444 
L 331.003286 118.833661 
L 334.603484 125.940321 
L 337.303632 131.738526 
L 340.003781 138.002695 
L 343.603979 146.793947 
L 346.304127 153.797917 
L 354.404573 175.820602 
L 358.90482 187.938461 
L 363.405068 199.422221 
L 368.805365 212.375609 
L 374.205662 225.106001 
L 378.705909 236.322088 
L 382.306107 245.897815 
L 392.206651 272.598296 
L 395.806849 281.320958 
L 398.506998 287.269891 
L 401.207146 292.738774 
L 403.907295 297.720747 
L 406.607443 302.340578 
L 410.207641 308.008056 
L 413.807839 313.242191 
L 418.308087 319.306159 
L 421.908285 323.737583 
L 425.508483 327.818792 
L 429.108681 331.452767 
L 431.808829 333.94973 
L 434.508978 336.189833 
L 438.109175 338.854646 
L 441.709373 341.206532 
L 446.209621 343.869381 
L 454.310066 348.161145 
L 461.510462 351.875055 
L 475.011205 358.955976 
L 478.611403 360.505423 
L 482.211601 361.782022 
L 484.911749 362.557241 
L 488.511947 363.368526 
L 493.012194 364.1382 
L 499.312541 364.944149 
L 504.712838 365.447263 
L 511.913234 365.889622 
L 519.11363 366.104442 
L 523.613877 366.147453 
L 523.613877 366.147453 
" clip-path="url(#pb35798397f)" style="fill: none; stroke: #51d7c1; stroke-width: 1.5; stroke-linecap: round"/>
   </g>
   <g id="line2d_22">
    <path d="M 174.319326 362.771073 
L 397.716883 362.771073 
" clip-path="url(#pb35798397f)" style="fill: none; stroke: #51d7c1; stroke-width: 3.5; stroke-linecap: round"/>
   </g>
   <g id="patch_3">
    <path d="M 40.692322 383.84 
L 546.610142 383.84 
" style="fill: none; stroke: #333333; stroke-width: 1.5; stroke-linejoin: miter; stroke-linecap: square"/>
   </g>
   <g id="text_8">
    <!-- $x_2^2$ -->
    <g style="fill: #262626" transform="translate(278.111232 49.58)">
     <text>
      <tspan x="0" y="-0.734375" style="font-style: oblique; font-size: 28px; font-family: 'DejaVu Sans'; fill: #262626">x</tspan>
      <tspan x="16.570312" y="6.921875" style="font-size: 19.6px; font-family: 'DejaVu Sans'; fill: #262626">2</tspan>
      <tspan x="17.820833" y="-11.453125" style="font-size: 19.6px; font-family: 'DejaVu Sans'; fill: #262626">2</tspan>
     </text>
    </g>
   </g>
  </g>
 </g>
 <defs>
  <clipPath id="pb35798397f">
   <rect x="40.692322" y="57.42" width="505.91782" height="326.42"/>
  </clipPath>
 </defs>
</svg>
