<?xml version="1.0" encoding="utf-8" standalone="no"?>
<!DOCTYPE svg PUBLIC "-//W3C//DTD SVG 1.1//EN"
  "http://www.w3.org/Graphics/SVG/1.1/DTD/svg11.dtd">
<svg xmlns:xlink="http://www.w3.org/1999/xlink" width="576pt" height="432pt" viewBox="0 0 576 432" xmlns="http://www.w3.org/2000/svg" version="1.1">
 <metadata>
  <rdf:RDF xmlns:dc="http://purl.org/dc/elements/1.1/" xmlns:cc="http://creativecommons.org/ns#" xmlns:rdf="http://www.w3.org/1999/02/22-rdf-syntax-ns#">
   <cc:Work>
    <dc:type rdf:resource="http://purl.org/dc/dcmitype/StillImage"/>
    <dc:date>2025-09-23T14:40:21.679181</dc:date>
    <dc:format>image/svg+xml</dc:format>
    <dc:creator>
     <cc:Agent>
      <dc:title>Matplotlib v3.10.0, https://matplotlib.org/</dc:title>
     </cc:Agent>
    </dc:creator>
   </cc:Work>
  </rdf:RDF>
 </metadata>
 <defs>
  <style type="text/css">*{stroke-linejoin: round; stroke-linecap: butt}</style>
 </defs>
 <g id="figure_1">
  <g id="patch_1">
   <path d="M 0 432 
L 576 432 
L 576 0 
L 0 0 
L 0 432 
z
" style="fill: none; opacity: 0"/>
  </g>
  <g id="axes_1">
   <g id="patch_2">
    <path d="M 23.76 383.84 
L 552.24 383.84 
L 552.24 51.12 
L 23.76 51.12 
L 23.76 383.84 
z
" style="fill: none"/>
   </g>
   <g id="matplotlib.axis_1">
    <g id="xtick_1">
     <g id="line2d_1">
      <path d="M 90.044789 383.84 
L 90.044789 51.12 
" clip-path="url(#pb1254b8d24)" style="fill: none; stroke: #ffffff; stroke-opacity: 0.4; stroke-linecap: round"/>
     </g>
     <g id="line2d_2"/>
     <g id="text_1">
      <text style="font-size: 18px; font-family: 'DejaVu Serif', 'Times New Roman', serif; text-anchor: middle; fill: #262626" x="90.044789" y="404.517187" transform="rotate(-0 90.044789 404.517187)">−4</text>
     </g>
    </g>
    <g id="xtick_2">
     <g id="line2d_3">
      <path d="M 189.834844 383.84 
L 189.834844 51.12 
" clip-path="url(#pb1254b8d24)" style="fill: none; stroke: #ffffff; stroke-opacity: 0.4; stroke-linecap: round"/>
     </g>
     <g id="line2d_4"/>
     <g id="text_2">
      <text style="font-size: 18px; font-family: 'DejaVu Serif', 'Times New Roman', serif; text-anchor: middle; fill: #262626" x="189.834844" y="404.517187" transform="rotate(-0 189.834844 404.517187)">−2</text>
     </g>
    </g>
    <g id="xtick_3">
     <g id="line2d_5">
      <path d="M 289.624898 383.84 
L 289.624898 51.12 
" clip-path="url(#pb1254b8d24)" style="fill: none; stroke: #ffffff; stroke-opacity: 0.4; stroke-linecap: round"/>
     </g>
     <g id="line2d_6"/>
     <g id="text_3">
      <text style="font-size: 18px; font-family: 'DejaVu Serif', 'Times New Roman', serif; text-anchor: middle; fill: #262626" x="289.624898" y="404.517187" transform="rotate(-0 289.624898 404.517187)">0</text>
     </g>
    </g>
    <g id="xtick_4">
     <g id="line2d_7">
      <path d="M 389.414953 383.84 
L 389.414953 51.12 
" clip-path="url(#pb1254b8d24)" style="fill: none; stroke: #ffffff; stroke-opacity: 0.4; stroke-linecap: round"/>
     </g>
     <g id="line2d_8"/>
     <g id="text_4">
      <text style="font-size: 18px; font-family: 'DejaVu Serif', 'Times New Roman', serif; text-anchor: middle; fill: #262626" x="389.414953" y="404.517187" transform="rotate(-0 389.414953 404.517187)">2</text>
     </g>
    </g>
    <g id="xtick_5">
     <g id="line2d_9">
      <path d="M 489.205007 383.84 
L 489.205007 51.12 
" clip-path="url(#pb1254b8d24)" style="fill: none; stroke: #ffffff; stroke-opacity: 0.4; stroke-linecap: round"/>
     </g>
     <g id="line2d_10"/>
     <g id="text_5">
      <text style="font-size: 18px; font-family: 'DejaVu Serif', 'Times New Roman', serif; text-anchor: middle; fill: #262626" x="489.205007" y="404.517187" transform="rotate(-0 489.205007 404.517187)">4</text>
     </g>
    </g>
   </g>
   <g id="matplotlib.axis_2">
    <g id="ytick_1">
     <g id="line2d_11">
      <path d="M 23.76 368.716364 
L 552.24 368.716364 
" clip-path="url(#pb1254b8d24)" style="fill: none; stroke: #ffffff; stroke-opacity: 0.4; stroke-linecap: round"/>
     </g>
    </g>
    <g id="ytick_2">
     <g id="line2d_12">
      <path d="M 23.76 316.149462 
L 552.24 316.149462 
" clip-path="url(#pb1254b8d24)" style="fill: none; stroke: #ffffff; stroke-opacity: 0.4; stroke-linecap: round"/>
     </g>
    </g>
    <g id="ytick_3">
     <g id="line2d_13">
      <path d="M 23.76 263.582561 
L 552.24 263.582561 
" clip-path="url(#pb1254b8d24)" style="fill: none; stroke: #ffffff; stroke-opacity: 0.4; stroke-linecap: round"/>
     </g>
    </g>
    <g id="ytick_4">
     <g id="line2d_14">
      <path d="M 23.76 211.015659 
L 552.24 211.015659 
" clip-path="url(#pb1254b8d24)" style="fill: none; stroke: #ffffff; stroke-opacity: 0.4; stroke-linecap: round"/>
     </g>
    </g>
    <g id="ytick_5">
     <g id="line2d_15">
      <path d="M 23.76 158.448758 
L 552.24 158.448758 
" clip-path="url(#pb1254b8d24)" style="fill: none; stroke: #ffffff; stroke-opacity: 0.4; stroke-linecap: round"/>
     </g>
    </g>
    <g id="ytick_6">
     <g id="line2d_16">
      <path d="M 23.76 105.881856 
L 552.24 105.881856 
" clip-path="url(#pb1254b8d24)" style="fill: none; stroke: #ffffff; stroke-opacity: 0.4; stroke-linecap: round"/>
     </g>
    </g>
    <g id="ytick_7">
     <g id="line2d_17">
      <path d="M 23.76 53.314955 
L 552.24 53.314955 
" clip-path="url(#pb1254b8d24)" style="fill: none; stroke: #ffffff; stroke-opacity: 0.4; stroke-linecap: round"/>
     </g>
    </g>
   </g>
   <g id="FillBetweenPolyCollection_1">
    <defs>
     <path id="m2d5c12ec44" d="M 47.781818 -63.283636 
L 47.781818 -64.833544 
L 48.722007 -64.83061 
L 49.662195 -64.829965 
L 50.602384 -64.828663 
L 51.542572 -64.826739 
L 52.482761 -64.824227 
L 53.42295 -64.82414 
L 54.363138 -64.821322 
L 55.303327 -64.818192 
L 56.243515 -64.820767 
L 57.183704 -64.818721 
L 58.123893 -64.817502 
L 59.064081 -64.817866 
L 60.00427 -64.819381 
L 60.944458 -64.821636 
L 61.884647 -64.827815 
L 62.824835 -64.838879 
L 63.765024 -64.850002 
L 64.705213 -64.863951 
L 65.645401 -64.884145 
L 66.58559 -64.905852 
L 67.525778 -64.928972 
L 68.465967 -64.959246 
L 69.406155 -64.991888 
L 70.346344 -65.029685 
L 71.286533 -65.073063 
L 72.226721 -65.125404 
L 73.16691 -65.179542 
L 74.107098 -65.244045 
L 75.047287 -65.319288 
L 75.987476 -65.402773 
L 76.927664 -65.491957 
L 77.867853 -65.598364 
L 78.808041 -65.709529 
L 79.74823 -65.830423 
L 80.688418 -65.96419 
L 81.628607 -66.105707 
L 82.568796 -66.260307 
L 83.508984 -66.42864 
L 84.449173 -66.599508 
L 85.389361 -66.779597 
L 86.32955 -66.969012 
L 87.269738 -67.167756 
L 88.209927 -67.380474 
L 89.150116 -67.604308 
L 90.090304 -67.83351 
L 91.030493 -68.072851 
L 91.970681 -68.310608 
L 92.91087 -68.561959 
L 93.851059 -68.813452 
L 94.791247 -69.075119 
L 95.731436 -69.335972 
L 96.671624 -69.597256 
L 97.611813 -69.866711 
L 98.552001 -70.142356 
L 99.49219 -70.419468 
L 100.432379 -70.695071 
L 101.372567 -70.979074 
L 102.312756 -71.263366 
L 103.252944 -71.547455 
L 104.193133 -71.83669 
L 105.133321 -72.128845 
L 106.07351 -72.429984 
L 107.013699 -72.735735 
L 107.953887 -73.049396 
L 108.894076 -73.363077 
L 109.834264 -73.681603 
L 110.774453 -74.010944 
L 111.714642 -74.337645 
L 112.65483 -74.674441 
L 113.595019 -75.025395 
L 114.535207 -75.366375 
L 115.475396 -75.726389 
L 116.415584 -76.087047 
L 117.355773 -76.455137 
L 118.295962 -76.828132 
L 119.23615 -77.199932 
L 120.176339 -77.583807 
L 121.116527 -77.963821 
L 122.056716 -78.370632 
L 122.996904 -78.789315 
L 123.937093 -79.204022 
L 124.877282 -79.613319 
L 125.81747 -80.038532 
L 126.757659 -80.493989 
L 127.697847 -80.94768 
L 128.638036 -81.424559 
L 129.578225 -81.911126 
L 130.518413 -82.419767 
L 131.458602 -82.948396 
L 132.39879 -83.496061 
L 133.338979 -84.087168 
L 134.279167 -84.694187 
L 135.219356 -85.354585 
L 136.159545 -86.039689 
L 137.099733 -86.761522 
L 138.039922 -87.535971 
L 138.98011 -88.376304 
L 139.920299 -89.237038 
L 140.860487 -90.146788 
L 141.800676 -91.115493 
L 142.740865 -92.145335 
L 143.681053 -93.215867 
L 144.621242 -94.344617 
L 145.56143 -95.528134 
L 146.501619 -96.751266 
L 147.441808 -98.039336 
L 148.381996 -99.360955 
L 149.322185 -100.739886 
L 150.262373 -102.186012 
L 151.202562 -103.642736 
L 152.14275 -105.149436 
L 153.082939 -106.676616 
L 154.023128 -108.243708 
L 154.963316 -109.845698 
L 155.903505 -111.479187 
L 156.843693 -113.116151 
L 157.783882 -114.76808 
L 158.72407 -116.42005 
L 159.664259 -118.098351 
L 160.604448 -119.774702 
L 161.544636 -121.457483 
L 162.484825 -123.137701 
L 163.425013 -124.819594 
L 164.365202 -126.521188 
L 165.30539 -128.212075 
L 166.245579 -129.899035 
L 167.185768 -131.57971 
L 168.125956 -133.247064 
L 169.066145 -134.898559 
L 170.006333 -136.559819 
L 170.946522 -138.240902 
L 171.886711 -139.92513 
L 172.826899 -141.596431 
L 173.767088 -143.273047 
L 174.707276 -144.963913 
L 175.647465 -146.644042 
L 176.587653 -148.342155 
L 177.527842 -150.038754 
L 178.468031 -151.745603 
L 179.408219 -153.460221 
L 180.348408 -155.185815 
L 181.288596 -156.951625 
L 182.228785 -158.736014 
L 183.168973 -160.505931 
L 184.109162 -162.285519 
L 185.049351 -164.092916 
L 185.989539 -165.914231 
L 186.929728 -167.748403 
L 187.869916 -169.575788 
L 188.810105 -171.428093 
L 189.750294 -173.307446 
L 190.690482 -175.20772 
L 191.630671 -177.12203 
L 192.570859 -179.039641 
L 193.511048 -180.972482 
L 194.451236 -182.927926 
L 195.391425 -184.909482 
L 196.331614 -186.890857 
L 197.271802 -188.911262 
L 198.211991 -190.944636 
L 199.152179 -193.007717 
L 200.092368 -195.052955 
L 201.032556 -197.162015 
L 201.972745 -199.297311 
L 202.912934 -201.453451 
L 203.853122 -203.643898 
L 204.793311 -205.820817 
L 205.733499 -208.045516 
L 206.673688 -210.291308 
L 207.613877 -212.580303 
L 208.554065 -214.885368 
L 209.494254 -217.21307 
L 210.434442 -219.572052 
L 211.374631 -221.920807 
L 212.314819 -224.280645 
L 213.255008 -226.677948 
L 214.195197 -229.083684 
L 215.135385 -231.523425 
L 216.075574 -233.927766 
L 217.015762 -236.354543 
L 217.955951 -238.811427 
L 218.896139 -241.25796 
L 219.836328 -243.670516 
L 220.776517 -246.092449 
L 221.716705 -248.521235 
L 222.656894 -250.908746 
L 223.597082 -253.314251 
L 224.537271 -255.718231 
L 225.47746 -258.0942 
L 226.417648 -260.437616 
L 227.357837 -262.776152 
L 228.298025 -265.094272 
L 229.238214 -267.422265 
L 230.178402 -269.690316 
L 231.118591 -271.992464 
L 232.05878 -274.252312 
L 232.998968 -276.514984 
L 233.939157 -278.756646 
L 234.879345 -281.016842 
L 235.819534 -283.250433 
L 236.759722 -285.497503 
L 237.699911 -287.728732 
L 238.6401 -289.948396 
L 239.580288 -292.170237 
L 240.520477 -294.377076 
L 241.460665 -296.594691 
L 242.400854 -298.774008 
L 243.341043 -300.993445 
L 244.281231 -303.220243 
L 245.22142 -305.430168 
L 246.161608 -307.652117 
L 247.101797 -309.91599 
L 248.041985 -312.143016 
L 248.982174 -314.35548 
L 249.922363 -316.570558 
L 250.862551 -318.811704 
L 251.80274 -321.003265 
L 252.742928 -323.177687 
L 253.683117 -325.317927 
L 254.623305 -327.452448 
L 255.563494 -329.561355 
L 256.503683 -331.61976 
L 257.443871 -333.657943 
L 258.38406 -335.635484 
L 259.324248 -337.561809 
L 260.264437 -339.432285 
L 261.204626 -341.263896 
L 262.144814 -343.029876 
L 263.085003 -344.715275 
L 264.025191 -346.330957 
L 264.96538 -347.883426 
L 265.905568 -349.37531 
L 266.845757 -350.791717 
L 267.785946 -352.126084 
L 268.726134 -353.388514 
L 269.666323 -354.55223 
L 270.606511 -355.693889 
L 271.5467 -356.741399 
L 272.486888 -357.720247 
L 273.427077 -358.619447 
L 274.367266 -359.49515 
L 275.307454 -360.27627 
L 276.247643 -361.017004 
L 277.187831 -361.685112 
L 278.12802 -362.327287 
L 279.068209 -362.865943 
L 280.008397 -363.386718 
L 280.948586 -363.864248 
L 281.888774 -364.266088 
L 282.828963 -364.650111 
L 283.769151 -364.962124 
L 284.70934 -365.220723 
L 285.649529 -365.419247 
L 286.589717 -365.590645 
L 287.529906 -365.699372 
L 288.470094 -365.735783 
L 289.410283 -365.756364 
L 290.350471 -365.740082 
L 291.29066 -365.602201 
L 292.230849 -365.424953 
L 293.171037 -365.191535 
L 294.111226 -364.924309 
L 295.051414 -364.557404 
L 295.991603 -364.131802 
L 296.931791 -363.664241 
L 297.87198 -363.148066 
L 298.812169 -362.518711 
L 299.752357 -361.856033 
L 300.692546 -361.152373 
L 301.632734 -360.346689 
L 302.572923 -359.484869 
L 303.513112 -358.558591 
L 304.4533 -357.598036 
L 305.393489 -356.521946 
L 306.333677 -355.360283 
L 307.273866 -354.169649 
L 308.214054 -352.932155 
L 309.154243 -351.597644 
L 310.094432 -350.223433 
L 311.03462 -348.763428 
L 311.974809 -347.234942 
L 312.914997 -345.67269 
L 313.855186 -344.072189 
L 314.795374 -342.404746 
L 315.735563 -340.677627 
L 316.675752 -338.915536 
L 317.61594 -337.117994 
L 318.556129 -335.305632 
L 319.496317 -333.482473 
L 320.436506 -331.627128 
L 321.376695 -329.739305 
L 322.316883 -327.823592 
L 323.257072 -325.933926 
L 324.19726 -324.063067 
L 325.137449 -322.163805 
L 326.077637 -320.296893 
L 327.017826 -318.442521 
L 327.958015 -316.601238 
L 328.898203 -314.77234 
L 329.838392 -313.000396 
L 330.77858 -311.241209 
L 331.718769 -309.510487 
L 332.658957 -307.750749 
L 333.599146 -305.99883 
L 334.539335 -304.270353 
L 335.479523 -302.513859 
L 336.419712 -300.786996 
L 337.3599 -299.019582 
L 338.300089 -297.219221 
L 339.240278 -295.427301 
L 340.180466 -293.578137 
L 341.120655 -291.701393 
L 342.060843 -289.755665 
L 343.001032 -287.781157 
L 343.94122 -285.723516 
L 344.881409 -283.595175 
L 345.821598 -281.409365 
L 346.761786 -279.142742 
L 347.701975 -276.845914 
L 348.642163 -274.445713 
L 349.582352 -272.000612 
L 350.52254 -269.476757 
L 351.462729 -266.902798 
L 352.402918 -264.269865 
L 353.343106 -261.606166 
L 354.283295 -258.903335 
L 355.223483 -256.179539 
L 356.163672 -253.401425 
L 357.103861 -250.637048 
L 358.044049 -247.845737 
L 358.984238 -245.058558 
L 359.924426 -242.294558 
L 360.864615 -239.535901 
L 361.804803 -236.81052 
L 362.744992 -234.101763 
L 363.685181 -231.422673 
L 364.625369 -228.769562 
L 365.565558 -226.146797 
L 366.505746 -223.592446 
L 367.445935 -221.044726 
L 368.386123 -218.542049 
L 369.326312 -216.111406 
L 370.266501 -213.721394 
L 371.206689 -211.345074 
L 372.146878 -209.018336 
L 373.087066 -206.738088 
L 374.027255 -204.488468 
L 374.967444 -202.268775 
L 375.907632 -200.091721 
L 376.847821 -197.963218 
L 377.788009 -195.837005 
L 378.728198 -193.745076 
L 379.668386 -191.684511 
L 380.608575 -189.649125 
L 381.548764 -187.655234 
L 382.488952 -185.686592 
L 383.429141 -183.764036 
L 384.369329 -181.87129 
L 385.309518 -179.972739 
L 386.249706 -178.11461 
L 387.189895 -176.278303 
L 388.130084 -174.457137 
L 389.070272 -172.672059 
L 390.010461 -170.919384 
L 390.950649 -169.166748 
L 391.890838 -167.434514 
L 392.831027 -165.720861 
L 393.771215 -164.028701 
L 394.711404 -162.344719 
L 395.651592 -160.662297 
L 396.591781 -158.983039 
L 397.531969 -157.263732 
L 398.472158 -155.577377 
L 399.412347 -153.879917 
L 400.352535 -152.183261 
L 401.292724 -150.465994 
L 402.232912 -148.714787 
L 403.173101 -146.953729 
L 404.113289 -145.191598 
L 405.053478 -143.408905 
L 405.993667 -141.62613 
L 406.933855 -139.823975 
L 407.874044 -138.027134 
L 408.814232 -136.21212 
L 409.754421 -134.414444 
L 410.69461 -132.625109 
L 411.634798 -130.852649 
L 412.574987 -129.083641 
L 413.515175 -127.328481 
L 414.455364 -125.589649 
L 415.395552 -123.883806 
L 416.335741 -122.226652 
L 417.27593 -120.585894 
L 418.216118 -119.007807 
L 419.156307 -117.46032 
L 420.096495 -115.976528 
L 421.036684 -114.519925 
L 421.976872 -113.143034 
L 422.917061 -111.797088 
L 423.85725 -110.507158 
L 424.797438 -109.272397 
L 425.737627 -108.073246 
L 426.677815 -106.939923 
L 427.618004 -105.841377 
L 428.558192 -104.800062 
L 429.498381 -103.788387 
L 430.43857 -102.803635 
L 431.378758 -101.856498 
L 432.318947 -100.931009 
L 433.259135 -100.042065 
L 434.199324 -99.192996 
L 435.139513 -98.346701 
L 436.079701 -97.519973 
L 437.01989 -96.708471 
L 437.960078 -95.899371 
L 438.900267 -95.096346 
L 439.840455 -94.302661 
L 440.780644 -93.515517 
L 441.720833 -92.72963 
L 442.661021 -91.938931 
L 443.60121 -91.166986 
L 444.541398 -90.381842 
L 445.481587 -89.597584 
L 446.421775 -88.805528 
L 447.361964 -88.011867 
L 448.302153 -87.217707 
L 449.242341 -86.428495 
L 450.18253 -85.641197 
L 451.122718 -84.851896 
L 452.062907 -84.072021 
L 453.003096 -83.289729 
L 453.943284 -82.51253 
L 454.883473 -81.750307 
L 455.823661 -80.986662 
L 456.76385 -80.236077 
L 457.704038 -79.501851 
L 458.644227 -78.777417 
L 459.584416 -78.062557 
L 460.524604 -77.366777 
L 461.464793 -76.693687 
L 462.404981 -76.036392 
L 463.34517 -75.405504 
L 464.285358 -74.786427 
L 465.225547 -74.188957 
L 466.165736 -73.623887 
L 467.105924 -73.07334 
L 468.046113 -72.546193 
L 468.986301 -72.040506 
L 469.92649 -71.561769 
L 470.866679 -71.107157 
L 471.806867 -70.679648 
L 472.747056 -70.276268 
L 473.687244 -69.886827 
L 474.627433 -69.524829 
L 475.567621 -69.193663 
L 476.50781 -68.879243 
L 477.447999 -68.587324 
L 478.388187 -68.321739 
L 479.328376 -68.072859 
L 480.268564 -67.845092 
L 481.208753 -67.636941 
L 482.148941 -67.442239 
L 483.08913 -67.260577 
L 484.029319 -67.096726 
L 484.969507 -66.946671 
L 485.909696 -66.804052 
L 486.849884 -66.683004 
L 487.790073 -66.561469 
L 488.730262 -66.452509 
L 489.67045 -66.35512 
L 490.610639 -66.268504 
L 491.550827 -66.190835 
L 492.491016 -66.108671 
L 493.431204 -66.040127 
L 494.371393 -65.978221 
L 495.311582 -65.917366 
L 496.25177 -65.863165 
L 497.191959 -65.810113 
L 498.132147 -65.762684 
L 499.072336 -65.713098 
L 500.012524 -65.664642 
L 500.952713 -65.626995 
L 501.892902 -65.586555 
L 502.83309 -65.554416 
L 503.773279 -65.524714 
L 504.713467 -65.492212 
L 505.653656 -65.465062 
L 506.593845 -65.442622 
L 507.534033 -65.421997 
L 508.474222 -65.403855 
L 509.41441 -65.388232 
L 510.354599 -65.37217 
L 511.294787 -65.360873 
L 512.234976 -65.351329 
L 513.175165 -65.341109 
L 514.115353 -65.338295 
L 515.055542 -65.334592 
L 515.99573 -65.332219 
L 516.935919 -65.33101 
L 517.876107 -65.328413 
L 518.816296 -65.332403 
L 519.756485 -65.334595 
L 520.696673 -65.337142 
L 521.636862 -65.339829 
L 522.57705 -65.337725 
L 523.517239 -65.341049 
L 524.457428 -65.343679 
L 525.397616 -65.351407 
L 526.337805 -65.351334 
L 527.277993 -65.353308 
L 528.218182 -65.354306 
L 528.218182 -63.283636 
L 528.218182 -63.283636 
L 527.277993 -63.283636 
L 526.337805 -63.283636 
L 525.397616 -63.283636 
L 524.457428 -63.283636 
L 523.517239 -63.283636 
L 522.57705 -63.283636 
L 521.636862 -63.283636 
L 520.696673 -63.283636 
L 519.756485 -63.283636 
L 518.816296 -63.283636 
L 517.876107 -63.283636 
L 516.935919 -63.283636 
L 515.99573 -63.283636 
L 515.055542 -63.283636 
L 514.115353 -63.283636 
L 513.175165 -63.283636 
L 512.234976 -63.283636 
L 511.294787 -63.283636 
L 510.354599 -63.283636 
L 509.41441 -63.283636 
L 508.474222 -63.283636 
L 507.534033 -63.283636 
L 506.593845 -63.283636 
L 505.653656 -63.283636 
L 504.713467 -63.283636 
L 503.773279 -63.283636 
L 502.83309 -63.283636 
L 501.892902 -63.283636 
L 500.952713 -63.283636 
L 500.012524 -63.283636 
L 499.072336 -63.283636 
L 498.132147 -63.283636 
L 497.191959 -63.283636 
L 496.25177 -63.283636 
L 495.311582 -63.283636 
L 494.371393 -63.283636 
L 493.431204 -63.283636 
L 492.491016 -63.283636 
L 491.550827 -63.283636 
L 490.610639 -63.283636 
L 489.67045 -63.283636 
L 488.730262 -63.283636 
L 487.790073 -63.283636 
L 486.849884 -63.283636 
L 485.909696 -63.283636 
L 484.969507 -63.283636 
L 484.029319 -63.283636 
L 483.08913 -63.283636 
L 482.148941 -63.283636 
L 481.208753 -63.283636 
L 480.268564 -63.283636 
L 479.328376 -63.283636 
L 478.388187 -63.283636 
L 477.447999 -63.283636 
L 476.50781 -63.283636 
L 475.567621 -63.283636 
L 474.627433 -63.283636 
L 473.687244 -63.283636 
L 472.747056 -63.283636 
L 471.806867 -63.283636 
L 470.866679 -63.283636 
L 469.92649 -63.283636 
L 468.986301 -63.283636 
L 468.046113 -63.283636 
L 467.105924 -63.283636 
L 466.165736 -63.283636 
L 465.225547 -63.283636 
L 464.285358 -63.283636 
L 463.34517 -63.283636 
L 462.404981 -63.283636 
L 461.464793 -63.283636 
L 460.524604 -63.283636 
L 459.584416 -63.283636 
L 458.644227 -63.283636 
L 457.704038 -63.283636 
L 456.76385 -63.283636 
L 455.823661 -63.283636 
L 454.883473 -63.283636 
L 453.943284 -63.283636 
L 453.003096 -63.283636 
L 452.062907 -63.283636 
L 451.122718 -63.283636 
L 450.18253 -63.283636 
L 449.242341 -63.283636 
L 448.302153 -63.283636 
L 447.361964 -63.283636 
L 446.421775 -63.283636 
L 445.481587 -63.283636 
L 444.541398 -63.283636 
L 443.60121 -63.283636 
L 442.661021 -63.283636 
L 441.720833 -63.283636 
L 440.780644 -63.283636 
L 439.840455 -63.283636 
L 438.900267 -63.283636 
L 437.960078 -63.283636 
L 437.01989 -63.283636 
L 436.079701 -63.283636 
L 435.139513 -63.283636 
L 434.199324 -63.283636 
L 433.259135 -63.283636 
L 432.318947 -63.283636 
L 431.378758 -63.283636 
L 430.43857 -63.283636 
L 429.498381 -63.283636 
L 428.558192 -63.283636 
L 427.618004 -63.283636 
L 426.677815 -63.283636 
L 425.737627 -63.283636 
L 424.797438 -63.283636 
L 423.85725 -63.283636 
L 422.917061 -63.283636 
L 421.976872 -63.283636 
L 421.036684 -63.283636 
L 420.096495 -63.283636 
L 419.156307 -63.283636 
L 418.216118 -63.283636 
L 417.27593 -63.283636 
L 416.335741 -63.283636 
L 415.395552 -63.283636 
L 414.455364 -63.283636 
L 413.515175 -63.283636 
L 412.574987 -63.283636 
L 411.634798 -63.283636 
L 410.69461 -63.283636 
L 409.754421 -63.283636 
L 408.814232 -63.283636 
L 407.874044 -63.283636 
L 406.933855 -63.283636 
L 405.993667 -63.283636 
L 405.053478 -63.283636 
L 404.113289 -63.283636 
L 403.173101 -63.283636 
L 402.232912 -63.283636 
L 401.292724 -63.283636 
L 400.352535 -63.283636 
L 399.412347 -63.283636 
L 398.472158 -63.283636 
L 397.531969 -63.283636 
L 396.591781 -63.283636 
L 395.651592 -63.283636 
L 394.711404 -63.283636 
L 393.771215 -63.283636 
L 392.831027 -63.283636 
L 391.890838 -63.283636 
L 390.950649 -63.283636 
L 390.010461 -63.283636 
L 389.070272 -63.283636 
L 388.130084 -63.283636 
L 387.189895 -63.283636 
L 386.249706 -63.283636 
L 385.309518 -63.283636 
L 384.369329 -63.283636 
L 383.429141 -63.283636 
L 382.488952 -63.283636 
L 381.548764 -63.283636 
L 380.608575 -63.283636 
L 379.668386 -63.283636 
L 378.728198 -63.283636 
L 377.788009 -63.283636 
L 376.847821 -63.283636 
L 375.907632 -63.283636 
L 374.967444 -63.283636 
L 374.027255 -63.283636 
L 373.087066 -63.283636 
L 372.146878 -63.283636 
L 371.206689 -63.283636 
L 370.266501 -63.283636 
L 369.326312 -63.283636 
L 368.386123 -63.283636 
L 367.445935 -63.283636 
L 366.505746 -63.283636 
L 365.565558 -63.283636 
L 364.625369 -63.283636 
L 363.685181 -63.283636 
L 362.744992 -63.283636 
L 361.804803 -63.283636 
L 360.864615 -63.283636 
L 359.924426 -63.283636 
L 358.984238 -63.283636 
L 358.044049 -63.283636 
L 357.103861 -63.283636 
L 356.163672 -63.283636 
L 355.223483 -63.283636 
L 354.283295 -63.283636 
L 353.343106 -63.283636 
L 352.402918 -63.283636 
L 351.462729 -63.283636 
L 350.52254 -63.283636 
L 349.582352 -63.283636 
L 348.642163 -63.283636 
L 347.701975 -63.283636 
L 346.761786 -63.283636 
L 345.821598 -63.283636 
L 344.881409 -63.283636 
L 343.94122 -63.283636 
L 343.001032 -63.283636 
L 342.060843 -63.283636 
L 341.120655 -63.283636 
L 340.180466 -63.283636 
L 339.240278 -63.283636 
L 338.300089 -63.283636 
L 337.3599 -63.283636 
L 336.419712 -63.283636 
L 335.479523 -63.283636 
L 334.539335 -63.283636 
L 333.599146 -63.283636 
L 332.658957 -63.283636 
L 331.718769 -63.283636 
L 330.77858 -63.283636 
L 329.838392 -63.283636 
L 328.898203 -63.283636 
L 327.958015 -63.283636 
L 327.017826 -63.283636 
L 326.077637 -63.283636 
L 325.137449 -63.283636 
L 324.19726 -63.283636 
L 323.257072 -63.283636 
L 322.316883 -63.283636 
L 321.376695 -63.283636 
L 320.436506 -63.283636 
L 319.496317 -63.283636 
L 318.556129 -63.283636 
L 317.61594 -63.283636 
L 316.675752 -63.283636 
L 315.735563 -63.283636 
L 314.795374 -63.283636 
L 313.855186 -63.283636 
L 312.914997 -63.283636 
L 311.974809 -63.283636 
L 311.03462 -63.283636 
L 310.094432 -63.283636 
L 309.154243 -63.283636 
L 308.214054 -63.283636 
L 307.273866 -63.283636 
L 306.333677 -63.283636 
L 305.393489 -63.283636 
L 304.4533 -63.283636 
L 303.513112 -63.283636 
L 302.572923 -63.283636 
L 301.632734 -63.283636 
L 300.692546 -63.283636 
L 299.752357 -63.283636 
L 298.812169 -63.283636 
L 297.87198 -63.283636 
L 296.931791 -63.283636 
L 295.991603 -63.283636 
L 295.051414 -63.283636 
L 294.111226 -63.283636 
L 293.171037 -63.283636 
L 292.230849 -63.283636 
L 291.29066 -63.283636 
L 290.350471 -63.283636 
L 289.410283 -63.283636 
L 288.470094 -63.283636 
L 287.529906 -63.283636 
L 286.589717 -63.283636 
L 285.649529 -63.283636 
L 284.70934 -63.283636 
L 283.769151 -63.283636 
L 282.828963 -63.283636 
L 281.888774 -63.283636 
L 280.948586 -63.283636 
L 280.008397 -63.283636 
L 279.068209 -63.283636 
L 278.12802 -63.283636 
L 277.187831 -63.283636 
L 276.247643 -63.283636 
L 275.307454 -63.283636 
L 274.367266 -63.283636 
L 273.427077 -63.283636 
L 272.486888 -63.283636 
L 271.5467 -63.283636 
L 270.606511 -63.283636 
L 269.666323 -63.283636 
L 268.726134 -63.283636 
L 267.785946 -63.283636 
L 266.845757 -63.283636 
L 265.905568 -63.283636 
L 264.96538 -63.283636 
L 264.025191 -63.283636 
L 263.085003 -63.283636 
L 262.144814 -63.283636 
L 261.204626 -63.283636 
L 260.264437 -63.283636 
L 259.324248 -63.283636 
L 258.38406 -63.283636 
L 257.443871 -63.283636 
L 256.503683 -63.283636 
L 255.563494 -63.283636 
L 254.623305 -63.283636 
L 253.683117 -63.283636 
L 252.742928 -63.283636 
L 251.80274 -63.283636 
L 250.862551 -63.283636 
L 249.922363 -63.283636 
L 248.982174 -63.283636 
L 248.041985 -63.283636 
L 247.101797 -63.283636 
L 246.161608 -63.283636 
L 245.22142 -63.283636 
L 244.281231 -63.283636 
L 243.341043 -63.283636 
L 242.400854 -63.283636 
L 241.460665 -63.283636 
L 240.520477 -63.283636 
L 239.580288 -63.283636 
L 238.6401 -63.283636 
L 237.699911 -63.283636 
L 236.759722 -63.283636 
L 235.819534 -63.283636 
L 234.879345 -63.283636 
L 233.939157 -63.283636 
L 232.998968 -63.283636 
L 232.05878 -63.283636 
L 231.118591 -63.283636 
L 230.178402 -63.283636 
L 229.238214 -63.283636 
L 228.298025 -63.283636 
L 227.357837 -63.283636 
L 226.417648 -63.283636 
L 225.47746 -63.283636 
L 224.537271 -63.283636 
L 223.597082 -63.283636 
L 222.656894 -63.283636 
L 221.716705 -63.283636 
L 220.776517 -63.283636 
L 219.836328 -63.283636 
L 218.896139 -63.283636 
L 217.955951 -63.283636 
L 217.015762 -63.283636 
L 216.075574 -63.283636 
L 215.135385 -63.283636 
L 214.195197 -63.283636 
L 213.255008 -63.283636 
L 212.314819 -63.283636 
L 211.374631 -63.283636 
L 210.434442 -63.283636 
L 209.494254 -63.283636 
L 208.554065 -63.283636 
L 207.613877 -63.283636 
L 206.673688 -63.283636 
L 205.733499 -63.283636 
L 204.793311 -63.283636 
L 203.853122 -63.283636 
L 202.912934 -63.283636 
L 201.972745 -63.283636 
L 201.032556 -63.283636 
L 200.092368 -63.283636 
L 199.152179 -63.283636 
L 198.211991 -63.283636 
L 197.271802 -63.283636 
L 196.331614 -63.283636 
L 195.391425 -63.283636 
L 194.451236 -63.283636 
L 193.511048 -63.283636 
L 192.570859 -63.283636 
L 191.630671 -63.283636 
L 190.690482 -63.283636 
L 189.750294 -63.283636 
L 188.810105 -63.283636 
L 187.869916 -63.283636 
L 186.929728 -63.283636 
L 185.989539 -63.283636 
L 185.049351 -63.283636 
L 184.109162 -63.283636 
L 183.168973 -63.283636 
L 182.228785 -63.283636 
L 181.288596 -63.283636 
L 180.348408 -63.283636 
L 179.408219 -63.283636 
L 178.468031 -63.283636 
L 177.527842 -63.283636 
L 176.587653 -63.283636 
L 175.647465 -63.283636 
L 174.707276 -63.283636 
L 173.767088 -63.283636 
L 172.826899 -63.283636 
L 171.886711 -63.283636 
L 170.946522 -63.283636 
L 170.006333 -63.283636 
L 169.066145 -63.283636 
L 168.125956 -63.283636 
L 167.185768 -63.283636 
L 166.245579 -63.283636 
L 165.30539 -63.283636 
L 164.365202 -63.283636 
L 163.425013 -63.283636 
L 162.484825 -63.283636 
L 161.544636 -63.283636 
L 160.604448 -63.283636 
L 159.664259 -63.283636 
L 158.72407 -63.283636 
L 157.783882 -63.283636 
L 156.843693 -63.283636 
L 155.903505 -63.283636 
L 154.963316 -63.283636 
L 154.023128 -63.283636 
L 153.082939 -63.283636 
L 152.14275 -63.283636 
L 151.202562 -63.283636 
L 150.262373 -63.283636 
L 149.322185 -63.283636 
L 148.381996 -63.283636 
L 147.441808 -63.283636 
L 146.501619 -63.283636 
L 145.56143 -63.283636 
L 144.621242 -63.283636 
L 143.681053 -63.283636 
L 142.740865 -63.283636 
L 141.800676 -63.283636 
L 140.860487 -63.283636 
L 139.920299 -63.283636 
L 138.98011 -63.283636 
L 138.039922 -63.283636 
L 137.099733 -63.283636 
L 136.159545 -63.283636 
L 135.219356 -63.283636 
L 134.279167 -63.283636 
L 133.338979 -63.283636 
L 132.39879 -63.283636 
L 131.458602 -63.283636 
L 130.518413 -63.283636 
L 129.578225 -63.283636 
L 128.638036 -63.283636 
L 127.697847 -63.283636 
L 126.757659 -63.283636 
L 125.81747 -63.283636 
L 124.877282 -63.283636 
L 123.937093 -63.283636 
L 122.996904 -63.283636 
L 122.056716 -63.283636 
L 121.116527 -63.283636 
L 120.176339 -63.283636 
L 119.23615 -63.283636 
L 118.295962 -63.283636 
L 117.355773 -63.283636 
L 116.415584 -63.283636 
L 115.475396 -63.283636 
L 114.535207 -63.283636 
L 113.595019 -63.283636 
L 112.65483 -63.283636 
L 111.714642 -63.283636 
L 110.774453 -63.283636 
L 109.834264 -63.283636 
L 108.894076 -63.283636 
L 107.953887 -63.283636 
L 107.013699 -63.283636 
L 106.07351 -63.283636 
L 105.133321 -63.283636 
L 104.193133 -63.283636 
L 103.252944 -63.283636 
L 102.312756 -63.283636 
L 101.372567 -63.283636 
L 100.432379 -63.283636 
L 99.49219 -63.283636 
L 98.552001 -63.283636 
L 97.611813 -63.283636 
L 96.671624 -63.283636 
L 95.731436 -63.283636 
L 94.791247 -63.283636 
L 93.851059 -63.283636 
L 92.91087 -63.283636 
L 91.970681 -63.283636 
L 91.030493 -63.283636 
L 90.090304 -63.283636 
L 89.150116 -63.283636 
L 88.209927 -63.283636 
L 87.269738 -63.283636 
L 86.32955 -63.283636 
L 85.389361 -63.283636 
L 84.449173 -63.283636 
L 83.508984 -63.283636 
L 82.568796 -63.283636 
L 81.628607 -63.283636 
L 80.688418 -63.283636 
L 79.74823 -63.283636 
L 78.808041 -63.283636 
L 77.867853 -63.283636 
L 76.927664 -63.283636 
L 75.987476 -63.283636 
L 75.047287 -63.283636 
L 74.107098 -63.283636 
L 73.16691 -63.283636 
L 72.226721 -63.283636 
L 71.286533 -63.283636 
L 70.346344 -63.283636 
L 69.406155 -63.283636 
L 68.465967 -63.283636 
L 67.525778 -63.283636 
L 66.58559 -63.283636 
L 65.645401 -63.283636 
L 64.705213 -63.283636 
L 63.765024 -63.283636 
L 62.824835 -63.283636 
L 61.884647 -63.283636 
L 60.944458 -63.283636 
L 60.00427 -63.283636 
L 59.064081 -63.283636 
L 58.123893 -63.283636 
L 57.183704 -63.283636 
L 56.243515 -63.283636 
L 55.303327 -63.283636 
L 54.363138 -63.283636 
L 53.42295 -63.283636 
L 52.482761 -63.283636 
L 51.542572 -63.283636 
L 50.602384 -63.283636 
L 49.662195 -63.283636 
L 48.722007 -63.283636 
L 47.781818 -63.283636 
z
"/>
    </defs>
    <g clip-path="url(#pb1254b8d24)">
     <use xlink:href="#m2d5c12ec44" x="0" y="432" style="fill: #51d7c1; fill-opacity: 0.6"/>
    </g>
   </g>
   <g id="line2d_18">
    <path d="M 47.781818 367.166456 
L 65.645401 367.115855 
L 72.226721 366.874596 
L 76.927664 366.508043 
L 81.628607 365.894293 
L 86.32955 365.030988 
L 91.030493 363.927149 
L 96.671624 362.402744 
L 105.133321 359.871155 
L 111.714642 357.662355 
L 117.355773 355.544863 
L 122.996904 353.210685 
L 127.697847 351.05232 
L 131.458602 349.051604 
L 134.279167 347.305813 
L 137.099733 345.238478 
L 138.98011 343.623696 
L 140.860487 341.853212 
L 142.740865 339.854665 
L 144.621242 337.655383 
L 147.441808 333.960664 
L 150.262373 329.813988 
L 153.082939 325.323384 
L 156.843693 318.883849 
L 164.365202 305.478812 
L 183.168973 271.494069 
L 187.869916 262.424212 
L 192.570859 252.960359 
L 197.271802 243.088738 
L 201.972745 232.702689 
L 206.673688 221.708692 
L 212.314819 207.719355 
L 231.118591 160.007536 
L 241.460665 135.405309 
L 247.101797 122.08401 
L 254.623305 104.547552 
L 258.38406 96.364516 
L 261.204626 90.736104 
L 264.025191 85.669043 
L 266.845757 81.208283 
L 268.726134 78.611486 
L 271.5467 75.258601 
L 273.427077 73.380553 
L 275.307454 71.72373 
L 277.187831 70.314888 
L 279.068209 69.134057 
L 280.948586 68.135752 
L 283.769151 67.037876 
L 285.649529 66.580753 
L 287.529906 66.300628 
L 290.350471 66.259918 
L 292.230849 66.575047 
L 294.111226 67.075691 
L 295.991603 67.868198 
L 297.87198 68.851934 
L 300.692546 70.847627 
L 302.572923 72.515131 
L 304.4533 74.401964 
L 306.333677 76.639717 
L 308.214054 79.067845 
L 311.03462 83.236572 
L 313.855186 87.927811 
L 316.675752 93.084464 
L 321.376695 102.260695 
L 327.017826 113.557479 
L 330.77858 120.758791 
L 338.300089 134.780779 
L 341.120655 140.298607 
L 343.94122 146.276484 
L 346.761786 152.857258 
L 349.582352 159.999388 
L 353.343106 170.393834 
L 358.984238 186.941442 
L 364.625369 203.230438 
L 368.386123 213.457951 
L 372.146878 222.981664 
L 375.907632 231.908279 
L 380.608575 242.350875 
L 384.369329 250.12871 
L 388.130084 257.542863 
L 392.831027 266.279139 
L 404.113289 286.808402 
L 416.335741 309.773348 
L 419.156307 314.53968 
L 421.976872 318.856966 
L 424.797438 322.727603 
L 427.618004 326.158623 
L 430.43857 329.196365 
L 433.259135 331.957935 
L 438.900267 336.903654 
L 453.943284 349.48747 
L 459.584416 353.937443 
L 463.34517 356.594496 
L 466.165736 358.376113 
L 468.986301 359.959494 
L 471.806867 361.320352 
L 474.627433 362.475171 
L 477.447999 363.412676 
L 481.208753 364.363059 
L 484.969507 365.053329 
L 488.730262 365.547491 
L 494.371393 366.021779 
L 501.892902 366.413445 
L 511.294787 366.639127 
L 523.517239 366.658951 
L 528.218182 366.645694 
L 528.218182 366.645694 
" clip-path="url(#pb1254b8d24)" style="fill: none; stroke: #51d7c1; stroke-width: 1.5; stroke-linecap: round"/>
   </g>
   <g id="line2d_19">
    <path d="M 177.294447 362.364436 
L 401.877577 362.364436 
" clip-path="url(#pb1254b8d24)" style="fill: none; stroke: #51d7c1; stroke-width: 3.5; stroke-linecap: round"/>
   </g>
   <g id="patch_3">
    <path d="M 23.76 383.84 
L 552.24 383.84 
" style="fill: none; stroke: #333333; stroke-width: 1.5; stroke-linejoin: miter; stroke-linecap: square"/>
   </g>
   <g id="text_6">
    <!-- $x_3$ -->
    <g style="fill: #262626" transform="translate(273.02 45.12)">
     <text>
      <tspan x="0" y="-0.6875" style="font-style: oblique; font-size: 28px; font-family: 'DejaVu Sans'; fill: #262626">x</tspan>
      <tspan x="16.570312" y="3.90625" style="font-size: 19.6px; font-family: 'DejaVu Sans'; fill: #262626">3</tspan>
     </text>
    </g>
   </g>
  </g>
 </g>
 <defs>
  <clipPath id="pb1254b8d24">
   <rect x="23.76" y="51.12" width="528.48" height="332.72"/>
  </clipPath>
 </defs>
</svg>
