<?xml version="1.0" encoding="utf-8" standalone="no"?>
<!DOCTYPE svg PUBLIC "-//W3C//DTD SVG 1.1//EN"
  "http://www.w3.org/Graphics/SVG/1.1/DTD/svg11.dtd">
<svg xmlns:xlink="http://www.w3.org/1999/xlink" width="576pt" height="432pt" viewBox="0 0 576 432" xmlns="http://www.w3.org/2000/svg" version="1.1">
 <metadata>
  <rdf:RDF xmlns:dc="http://purl.org/dc/elements/1.1/" xmlns:cc="http://creativecommons.org/ns#" xmlns:rdf="http://www.w3.org/1999/02/22-rdf-syntax-ns#">
   <cc:Work>
    <dc:type rdf:resource="http://purl.org/dc/dcmitype/StillImage"/>
    <dc:date>2025-09-23T14:40:22.647246</dc:date>
    <dc:format>image/svg+xml</dc:format>
    <dc:creator>
     <cc:Agent>
      <dc:title>Matplotlib v3.10.0, https://matplotlib.org/</dc:title>
     </cc:Agent>
    </dc:creator>
   </cc:Work>
  </rdf:RDF>
 </metadata>
 <defs>
  <style type="text/css">*{stroke-linejoin: round; stroke-linecap: butt}</style>
 </defs>
 <g id="figure_1">
  <g id="patch_1">
   <path d="M 0 432 
L 576 432 
L 576 0 
L 0 0 
L 0 432 
z
" style="fill: none; opacity: 0"/>
  </g>
  <g id="axes_1">
   <g id="patch_2">
    <path d="M 23.76 383.84 
L 550.992652 383.84 
L 550.992652 57.564 
L 23.76 57.564 
L 23.76 383.84 
z
" style="fill: none"/>
   </g>
   <g id="matplotlib.axis_1">
    <g id="xtick_1">
     <g id="line2d_1">
      <path d="M 50.599878 383.84 
L 50.599878 57.564 
" clip-path="url(#p4e47cc2875)" style="fill: none; stroke: #ffffff; stroke-opacity: 0.4; stroke-linecap: round"/>
     </g>
     <g id="line2d_2"/>
     <g id="text_1">
      <text style="font-size: 18px; font-family: 'DejaVu Serif', 'Times New Roman', serif; text-anchor: middle; fill: #262626" x="50.599878" y="404.517187" transform="rotate(-0 50.599878 404.517187)">−1.5</text>
     </g>
    </g>
    <g id="xtick_2">
     <g id="line2d_3">
      <path d="M 131.427341 383.84 
L 131.427341 57.564 
" clip-path="url(#p4e47cc2875)" style="fill: none; stroke: #ffffff; stroke-opacity: 0.4; stroke-linecap: round"/>
     </g>
     <g id="line2d_4"/>
     <g id="text_2">
      <text style="font-size: 18px; font-family: 'DejaVu Serif', 'Times New Roman', serif; text-anchor: middle; fill: #262626" x="131.427341" y="404.517187" transform="rotate(-0 131.427341 404.517187)">−1.0</text>
     </g>
    </g>
    <g id="xtick_3">
     <g id="line2d_5">
      <path d="M 212.254804 383.84 
L 212.254804 57.564 
" clip-path="url(#p4e47cc2875)" style="fill: none; stroke: #ffffff; stroke-opacity: 0.4; stroke-linecap: round"/>
     </g>
     <g id="line2d_6"/>
     <g id="text_3">
      <text style="font-size: 18px; font-family: 'DejaVu Serif', 'Times New Roman', serif; text-anchor: middle; fill: #262626" x="212.254804" y="404.517187" transform="rotate(-0 212.254804 404.517187)">−0.5</text>
     </g>
    </g>
    <g id="xtick_4">
     <g id="line2d_7">
      <path d="M 293.082268 383.84 
L 293.082268 57.564 
" clip-path="url(#p4e47cc2875)" style="fill: none; stroke: #ffffff; stroke-opacity: 0.4; stroke-linecap: round"/>
     </g>
     <g id="line2d_8"/>
     <g id="text_4">
      <text style="font-size: 18px; font-family: 'DejaVu Serif', 'Times New Roman', serif; text-anchor: middle; fill: #262626" x="293.082268" y="404.517187" transform="rotate(-0 293.082268 404.517187)">0.0</text>
     </g>
    </g>
    <g id="xtick_5">
     <g id="line2d_9">
      <path d="M 373.909731 383.84 
L 373.909731 57.564 
" clip-path="url(#p4e47cc2875)" style="fill: none; stroke: #ffffff; stroke-opacity: 0.4; stroke-linecap: round"/>
     </g>
     <g id="line2d_10"/>
     <g id="text_5">
      <text style="font-size: 18px; font-family: 'DejaVu Serif', 'Times New Roman', serif; text-anchor: middle; fill: #262626" x="373.909731" y="404.517187" transform="rotate(-0 373.909731 404.517187)">0.5</text>
     </g>
    </g>
    <g id="xtick_6">
     <g id="line2d_11">
      <path d="M 454.737194 383.84 
L 454.737194 57.564 
" clip-path="url(#p4e47cc2875)" style="fill: none; stroke: #ffffff; stroke-opacity: 0.4; stroke-linecap: round"/>
     </g>
     <g id="line2d_12"/>
     <g id="text_6">
      <text style="font-size: 18px; font-family: 'DejaVu Serif', 'Times New Roman', serif; text-anchor: middle; fill: #262626" x="454.737194" y="404.517187" transform="rotate(-0 454.737194 404.517187)">1.0</text>
     </g>
    </g>
    <g id="xtick_7">
     <g id="line2d_13">
      <path d="M 535.564658 383.84 
L 535.564658 57.564 
" clip-path="url(#p4e47cc2875)" style="fill: none; stroke: #ffffff; stroke-opacity: 0.4; stroke-linecap: round"/>
     </g>
     <g id="line2d_14"/>
     <g id="text_7">
      <text style="font-size: 18px; font-family: 'DejaVu Serif', 'Times New Roman', serif; text-anchor: middle; fill: #262626" x="535.564658" y="404.517187" transform="rotate(-0 535.564658 404.517187)">1.5</text>
     </g>
    </g>
   </g>
   <g id="matplotlib.axis_2">
    <g id="ytick_1">
     <g id="line2d_15">
      <path d="M 23.76 369.009273 
L 550.992652 369.009273 
" clip-path="url(#p4e47cc2875)" style="fill: none; stroke: #ffffff; stroke-opacity: 0.4; stroke-linecap: round"/>
     </g>
    </g>
    <g id="ytick_2">
     <g id="line2d_16">
      <path d="M 23.76 303.380463 
L 550.992652 303.380463 
" clip-path="url(#p4e47cc2875)" style="fill: none; stroke: #ffffff; stroke-opacity: 0.4; stroke-linecap: round"/>
     </g>
    </g>
    <g id="ytick_3">
     <g id="line2d_17">
      <path d="M 23.76 237.751652 
L 550.992652 237.751652 
" clip-path="url(#p4e47cc2875)" style="fill: none; stroke: #ffffff; stroke-opacity: 0.4; stroke-linecap: round"/>
     </g>
    </g>
    <g id="ytick_4">
     <g id="line2d_18">
      <path d="M 23.76 172.122842 
L 550.992652 172.122842 
" clip-path="url(#p4e47cc2875)" style="fill: none; stroke: #ffffff; stroke-opacity: 0.4; stroke-linecap: round"/>
     </g>
    </g>
    <g id="ytick_5">
     <g id="line2d_19">
      <path d="M 23.76 106.494032 
L 550.992652 106.494032 
" clip-path="url(#p4e47cc2875)" style="fill: none; stroke: #ffffff; stroke-opacity: 0.4; stroke-linecap: round"/>
     </g>
    </g>
   </g>
   <g id="FillBetweenPolyCollection_1">
    <defs>
     <path id="m3bea20c1d5" d="M 47.725121 -62.990727 
L 47.725121 -65.444926 
L 48.66309 -65.443287 
L 49.60106 -65.447202 
L 50.539029 -65.447229 
L 51.476999 -65.449945 
L 52.414968 -65.452539 
L 53.352938 -65.454789 
L 54.290907 -65.456439 
L 55.228876 -65.457211 
L 56.166846 -65.456815 
L 57.104815 -65.457593 
L 58.042785 -65.454663 
L 58.980754 -65.452521 
L 59.918724 -65.446364 
L 60.856693 -65.448677 
L 61.794663 -65.438859 
L 62.732632 -65.437874 
L 63.670602 -65.432052 
L 64.608571 -65.428617 
L 65.546541 -65.420828 
L 66.48451 -65.413372 
L 67.42248 -65.407342 
L 68.360449 -65.403381 
L 69.298419 -65.404295 
L 70.236388 -65.408851 
L 71.174358 -65.417958 
L 72.112327 -65.435179 
L 73.050297 -65.454231 
L 73.988266 -65.478061 
L 74.926236 -65.510017 
L 75.864205 -65.548683 
L 76.802175 -65.611922 
L 77.740144 -65.679332 
L 78.678114 -65.757947 
L 79.616083 -65.853668 
L 80.554053 -65.955181 
L 81.492022 -66.074363 
L 82.429992 -66.204808 
L 83.367961 -66.346165 
L 84.305931 -66.500451 
L 85.2439 -66.67794 
L 86.18187 -66.865046 
L 87.119839 -67.06307 
L 88.057809 -67.276769 
L 88.995778 -67.498827 
L 89.933748 -67.734739 
L 90.871717 -67.978458 
L 91.809687 -68.241592 
L 92.747656 -68.512492 
L 93.685626 -68.789862 
L 94.623595 -69.074917 
L 95.561565 -69.369402 
L 96.499534 -69.670475 
L 97.437504 -69.974823 
L 98.375473 -70.28645 
L 99.313443 -70.594849 
L 100.251412 -70.913433 
L 101.189382 -71.226119 
L 102.127351 -71.546436 
L 103.065321 -71.866723 
L 104.00329 -72.19613 
L 104.94126 -72.535856 
L 105.879229 -72.872316 
L 106.817199 -73.217454 
L 107.755168 -73.565179 
L 108.693138 -73.918314 
L 109.631107 -74.270321 
L 110.569077 -74.628035 
L 111.507046 -74.996734 
L 112.445016 -75.365087 
L 113.382985 -75.745011 
L 114.320955 -76.135441 
L 115.258924 -76.532704 
L 116.196894 -76.947113 
L 117.134863 -77.375046 
L 118.072833 -77.807125 
L 119.010802 -78.247194 
L 119.948772 -78.705177 
L 120.886741 -79.177556 
L 121.824711 -79.66766 
L 122.76268 -80.174267 
L 123.700649 -80.685216 
L 124.638619 -81.206274 
L 125.576588 -81.739405 
L 126.514558 -82.282349 
L 127.452527 -82.836918 
L 128.390497 -83.405449 
L 129.328466 -83.996185 
L 130.266436 -84.603163 
L 131.204405 -85.209586 
L 132.142375 -85.846427 
L 133.080344 -86.491453 
L 134.018314 -87.146373 
L 134.956283 -87.818568 
L 135.894253 -88.509326 
L 136.832222 -89.212246 
L 137.770192 -89.934961 
L 138.708161 -90.682134 
L 139.646131 -91.448195 
L 140.5841 -92.252219 
L 141.52207 -93.065155 
L 142.460039 -93.896613 
L 143.398009 -94.780056 
L 144.335978 -95.667038 
L 145.273948 -96.58977 
L 146.211917 -97.544971 
L 147.149887 -98.536123 
L 148.087856 -99.548328 
L 149.025826 -100.601188 
L 149.963795 -101.691885 
L 150.901765 -102.811233 
L 151.839734 -103.95848 
L 152.777704 -105.144966 
L 153.715673 -106.356331 
L 154.653643 -107.61015 
L 155.591612 -108.891184 
L 156.529582 -110.207978 
L 157.467551 -111.534502 
L 158.405521 -112.885232 
L 159.34349 -114.273949 
L 160.28146 -115.692388 
L 161.219429 -117.109978 
L 162.157399 -118.555534 
L 163.095368 -120.000115 
L 164.033338 -121.472422 
L 164.971307 -122.957329 
L 165.909277 -124.447787 
L 166.847246 -125.943632 
L 167.785216 -127.433234 
L 168.723185 -128.941925 
L 169.661155 -130.441429 
L 170.599124 -131.946214 
L 171.537094 -133.452835 
L 172.475063 -134.976586 
L 173.413033 -136.499696 
L 174.351002 -138.020804 
L 175.288972 -139.569599 
L 176.226941 -141.094685 
L 177.164911 -142.632843 
L 178.10288 -144.177362 
L 179.04085 -145.750006 
L 179.978819 -147.328371 
L 180.916789 -148.909208 
L 181.854758 -150.497199 
L 182.792728 -152.137671 
L 183.730697 -153.798674 
L 184.668667 -155.484772 
L 185.606636 -157.209331 
L 186.544606 -158.942927 
L 187.482575 -160.713099 
L 188.420545 -162.521577 
L 189.358514 -164.384121 
L 190.296484 -166.289565 
L 191.234453 -168.206969 
L 192.172422 -170.16508 
L 193.110392 -172.178152 
L 194.048361 -174.235912 
L 194.986331 -176.356639 
L 195.9243 -178.501869 
L 196.86227 -180.68747 
L 197.800239 -182.915247 
L 198.738209 -185.182524 
L 199.676178 -187.477855 
L 200.614148 -189.807488 
L 201.552117 -192.175466 
L 202.490087 -194.551323 
L 203.428056 -196.941321 
L 204.366026 -199.37493 
L 205.303995 -201.786518 
L 206.241965 -204.24427 
L 207.179934 -206.703256 
L 208.117904 -209.174605 
L 209.055873 -211.612307 
L 209.993843 -214.050564 
L 210.931812 -216.46968 
L 211.869782 -218.860852 
L 212.807751 -221.283278 
L 213.745721 -223.649635 
L 214.68369 -226.010368 
L 215.62166 -228.356664 
L 216.559629 -230.652081 
L 217.497599 -232.955981 
L 218.435568 -235.230878 
L 219.373538 -237.472329 
L 220.311507 -239.712002 
L 221.249477 -241.934907 
L 222.187446 -244.113693 
L 223.125416 -246.286555 
L 224.063385 -248.463937 
L 225.001355 -250.611574 
L 225.939324 -252.775144 
L 226.877294 -254.901122 
L 227.815263 -257.059645 
L 228.753233 -259.168671 
L 229.691202 -261.292497 
L 230.629172 -263.401293 
L 231.567141 -265.491365 
L 232.505111 -267.559221 
L 233.44308 -269.638336 
L 234.38105 -271.717846 
L 235.319019 -273.773443 
L 236.256989 -275.816777 
L 237.194958 -277.860466 
L 238.132928 -279.909777 
L 239.070897 -281.965452 
L 240.008867 -283.974375 
L 240.946836 -285.986418 
L 241.884806 -287.991843 
L 242.822775 -290.014641 
L 243.760745 -291.995443 
L 244.698714 -294.012007 
L 245.636684 -296.016522 
L 246.574653 -297.987408 
L 247.512623 -299.985018 
L 248.450592 -301.978489 
L 249.388562 -303.991023 
L 250.326531 -305.995412 
L 251.264501 -307.990871 
L 252.20247 -309.988244 
L 253.14044 -311.984857 
L 254.078409 -313.945962 
L 255.016379 -315.925078 
L 255.954348 -317.888484 
L 256.892318 -319.845158 
L 257.830287 -321.806921 
L 258.768257 -323.777196 
L 259.706226 -325.699983 
L 260.644195 -327.601345 
L 261.582165 -329.481777 
L 262.520134 -331.314216 
L 263.458104 -333.100551 
L 264.396073 -334.824421 
L 265.334043 -336.511973 
L 266.272012 -338.141301 
L 267.209982 -339.711109 
L 268.147951 -341.243981 
L 269.085921 -342.7398 
L 270.02389 -344.180124 
L 270.96186 -345.517249 
L 271.899829 -346.78704 
L 272.837799 -348.056094 
L 273.775768 -349.223633 
L 274.713738 -350.316723 
L 275.651707 -351.343347 
L 276.589677 -352.279479 
L 277.527646 -353.172385 
L 278.465616 -354.001454 
L 279.403585 -354.776019 
L 280.341555 -355.489422 
L 281.279524 -356.151616 
L 282.217494 -356.743967 
L 283.155463 -357.263594 
L 284.093433 -357.746195 
L 285.031402 -358.179445 
L 285.969372 -358.526643 
L 286.907341 -358.878169 
L 287.845311 -359.134942 
L 288.78328 -359.310925 
L 289.72125 -359.4682 
L 290.659219 -359.551706 
L 291.597189 -359.605273 
L 292.535158 -359.570584 
L 293.473128 -359.494316 
L 294.411097 -359.336382 
L 295.349067 -359.131692 
L 296.287036 -358.838489 
L 297.225006 -358.51743 
L 298.162975 -358.126838 
L 299.100945 -357.665389 
L 300.038914 -357.131149 
L 300.976884 -356.545549 
L 301.914853 -355.874394 
L 302.852823 -355.138002 
L 303.790792 -354.334393 
L 304.728762 -353.488244 
L 305.666731 -352.5581 
L 306.604701 -351.578648 
L 307.54267 -350.538813 
L 308.48064 -349.470369 
L 309.418609 -348.298644 
L 310.356579 -347.147517 
L 311.294548 -345.927943 
L 312.232518 -344.666023 
L 313.170487 -343.389357 
L 314.108457 -342.08279 
L 315.046426 -340.733682 
L 315.984396 -339.381468 
L 316.922365 -338.047982 
L 317.860335 -336.665039 
L 318.798304 -335.271217 
L 319.736274 -333.860649 
L 320.674243 -332.478493 
L 321.612213 -331.113482 
L 322.550182 -329.736306 
L 323.488152 -328.364442 
L 324.426121 -326.990866 
L 325.364091 -325.65045 
L 326.30206 -324.270637 
L 327.24003 -322.886182 
L 328.177999 -321.52163 
L 329.115968 -320.1284 
L 330.053938 -318.698873 
L 330.991907 -317.277904 
L 331.929877 -315.810413 
L 332.867846 -314.316575 
L 333.805816 -312.779415 
L 334.743785 -311.208528 
L 335.681755 -309.593982 
L 336.619724 -307.886303 
L 337.557694 -306.164137 
L 338.495663 -304.333999 
L 339.433633 -302.479017 
L 340.371602 -300.520602 
L 341.309572 -298.540243 
L 342.247541 -296.478789 
L 343.185511 -294.356858 
L 344.12348 -292.220965 
L 345.06145 -290.018484 
L 345.999419 -287.759905 
L 346.937389 -285.466464 
L 347.875358 -283.136461 
L 348.813328 -280.769518 
L 349.751297 -278.383038 
L 350.689267 -275.967888 
L 351.627236 -273.535249 
L 352.565206 -271.118654 
L 353.503175 -268.72228 
L 354.441145 -266.305155 
L 355.379114 -263.924565 
L 356.317084 -261.543664 
L 357.255053 -259.189775 
L 358.193023 -256.865048 
L 359.130992 -254.567451 
L 360.068962 -252.277922 
L 361.006931 -250.018896 
L 361.944901 -247.777636 
L 362.88287 -245.564458 
L 363.82084 -243.378299 
L 364.758809 -241.220579 
L 365.696779 -239.056589 
L 366.634748 -236.893949 
L 367.572718 -234.734989 
L 368.510687 -232.554089 
L 369.448657 -230.394008 
L 370.386626 -228.250933 
L 371.324596 -226.049539 
L 372.262565 -223.891732 
L 373.200535 -221.667273 
L 374.138504 -219.464205 
L 375.076474 -217.237989 
L 376.014443 -214.976599 
L 376.952413 -212.711925 
L 377.890382 -210.451945 
L 378.828352 -208.130731 
L 379.766321 -205.833012 
L 380.704291 -203.504442 
L 381.64226 -201.180379 
L 382.58023 -198.844456 
L 383.518199 -196.508588 
L 384.456169 -194.182681 
L 385.394138 -191.877463 
L 386.332108 -189.557019 
L 387.270077 -187.259739 
L 388.208047 -184.975865 
L 389.146016 -182.710345 
L 390.083986 -180.478199 
L 391.021955 -178.276126 
L 391.959925 -176.093325 
L 392.897894 -173.953908 
L 393.835864 -171.836997 
L 394.773833 -169.749912 
L 395.711803 -167.709034 
L 396.649772 -165.696986 
L 397.587741 -163.691371 
L 398.525711 -161.721446 
L 399.46368 -159.828964 
L 400.40165 -157.946345 
L 401.339619 -156.094334 
L 402.277589 -154.249635 
L 403.215558 -152.45983 
L 404.153528 -150.681253 
L 405.091497 -148.92988 
L 406.029467 -147.210678 
L 406.967436 -145.516239 
L 407.905406 -143.86585 
L 408.843375 -142.243857 
L 409.781345 -140.657706 
L 410.719314 -139.090484 
L 411.657284 -137.577197 
L 412.595253 -136.05831 
L 413.533223 -134.603209 
L 414.471192 -133.186428 
L 415.409162 -131.797831 
L 416.347131 -130.427406 
L 417.285101 -129.108264 
L 418.22307 -127.841457 
L 419.16104 -126.581918 
L 420.099009 -125.376438 
L 421.036979 -124.18111 
L 421.974948 -123.031602 
L 422.912918 -121.901952 
L 423.850887 -120.808522 
L 424.788857 -119.743127 
L 425.726826 -118.690166 
L 426.664796 -117.668542 
L 427.602765 -116.661275 
L 428.540735 -115.655904 
L 429.478704 -114.677075 
L 430.416674 -113.709143 
L 431.354643 -112.74874 
L 432.292613 -111.784766 
L 433.230582 -110.827953 
L 434.168552 -109.886339 
L 435.106521 -108.923836 
L 436.044491 -107.962084 
L 436.98246 -107.003749 
L 437.92043 -106.047464 
L 438.858399 -105.07943 
L 439.796369 -104.100056 
L 440.734338 -103.112944 
L 441.672308 -102.141237 
L 442.610277 -101.152039 
L 443.548247 -100.171323 
L 444.486216 -99.19256 
L 445.424186 -98.218372 
L 446.362155 -97.23372 
L 447.300125 -96.277441 
L 448.238094 -95.331034 
L 449.176064 -94.402758 
L 450.114033 -93.496352 
L 451.052003 -92.585379 
L 451.989972 -91.701047 
L 452.927942 -90.841596 
L 453.865911 -89.997377 
L 454.803881 -89.183872 
L 455.74185 -88.390346 
L 456.67982 -87.618687 
L 457.617789 -86.883392 
L 458.555759 -86.172315 
L 459.493728 -85.481312 
L 460.431698 -84.828717 
L 461.369667 -84.195326 
L 462.307637 -83.581317 
L 463.245606 -83.005208 
L 464.183576 -82.452859 
L 465.121545 -81.916325 
L 466.059514 -81.400892 
L 466.997484 -80.900251 
L 467.935453 -80.421507 
L 468.873423 -79.946807 
L 469.811392 -79.486714 
L 470.749362 -79.041415 
L 471.687331 -78.596168 
L 472.625301 -78.163229 
L 473.56327 -77.726888 
L 474.50124 -77.297997 
L 475.439209 -76.883003 
L 476.377179 -76.463914 
L 477.315148 -76.050579 
L 478.253118 -75.633347 
L 479.191087 -75.216248 
L 480.129057 -74.795166 
L 481.067026 -74.371806 
L 482.004996 -73.964175 
L 482.942965 -73.552809 
L 483.880935 -73.148124 
L 484.818904 -72.737768 
L 485.756874 -72.345799 
L 486.694843 -71.958633 
L 487.632813 -71.578452 
L 488.570782 -71.206347 
L 489.508752 -70.834959 
L 490.446721 -70.477956 
L 491.384691 -70.131699 
L 492.32266 -69.801796 
L 493.26063 -69.487015 
L 494.198599 -69.194376 
L 495.136569 -68.907958 
L 496.074538 -68.642736 
L 497.012508 -68.401115 
L 497.950477 -68.173565 
L 498.888447 -67.957619 
L 499.826416 -67.752011 
L 500.764386 -67.568135 
L 501.702355 -67.406449 
L 502.640325 -67.259215 
L 503.578294 -67.124361 
L 504.516264 -67.005387 
L 505.454233 -66.89638 
L 506.392203 -66.801232 
L 507.330172 -66.714445 
L 508.268142 -66.637735 
L 509.206111 -66.568088 
L 510.144081 -66.511849 
L 511.08205 -66.460907 
L 512.02002 -66.414433 
L 512.957989 -66.372605 
L 513.895959 -66.343959 
L 514.833928 -66.317477 
L 515.771898 -66.292599 
L 516.709867 -66.276067 
L 517.647837 -66.258095 
L 518.585806 -66.245013 
L 519.523776 -66.229665 
L 520.461745 -66.221003 
L 521.399715 -66.215629 
L 522.337684 -66.210801 
L 523.275654 -66.204313 
L 524.213623 -66.199117 
L 525.151593 -66.195039 
L 526.089562 -66.191399 
L 527.027532 -66.18859 
L 527.027532 -62.990727 
L 527.027532 -62.990727 
L 526.089562 -62.990727 
L 525.151593 -62.990727 
L 524.213623 -62.990727 
L 523.275654 -62.990727 
L 522.337684 -62.990727 
L 521.399715 -62.990727 
L 520.461745 -62.990727 
L 519.523776 -62.990727 
L 518.585806 -62.990727 
L 517.647837 -62.990727 
L 516.709867 -62.990727 
L 515.771898 -62.990727 
L 514.833928 -62.990727 
L 513.895959 -62.990727 
L 512.957989 -62.990727 
L 512.02002 -62.990727 
L 511.08205 -62.990727 
L 510.144081 -62.990727 
L 509.206111 -62.990727 
L 508.268142 -62.990727 
L 507.330172 -62.990727 
L 506.392203 -62.990727 
L 505.454233 -62.990727 
L 504.516264 -62.990727 
L 503.578294 -62.990727 
L 502.640325 -62.990727 
L 501.702355 -62.990727 
L 500.764386 -62.990727 
L 499.826416 -62.990727 
L 498.888447 -62.990727 
L 497.950477 -62.990727 
L 497.012508 -62.990727 
L 496.074538 -62.990727 
L 495.136569 -62.990727 
L 494.198599 -62.990727 
L 493.26063 -62.990727 
L 492.32266 -62.990727 
L 491.384691 -62.990727 
L 490.446721 -62.990727 
L 489.508752 -62.990727 
L 488.570782 -62.990727 
L 487.632813 -62.990727 
L 486.694843 -62.990727 
L 485.756874 -62.990727 
L 484.818904 -62.990727 
L 483.880935 -62.990727 
L 482.942965 -62.990727 
L 482.004996 -62.990727 
L 481.067026 -62.990727 
L 480.129057 -62.990727 
L 479.191087 -62.990727 
L 478.253118 -62.990727 
L 477.315148 -62.990727 
L 476.377179 -62.990727 
L 475.439209 -62.990727 
L 474.50124 -62.990727 
L 473.56327 -62.990727 
L 472.625301 -62.990727 
L 471.687331 -62.990727 
L 470.749362 -62.990727 
L 469.811392 -62.990727 
L 468.873423 -62.990727 
L 467.935453 -62.990727 
L 466.997484 -62.990727 
L 466.059514 -62.990727 
L 465.121545 -62.990727 
L 464.183576 -62.990727 
L 463.245606 -62.990727 
L 462.307637 -62.990727 
L 461.369667 -62.990727 
L 460.431698 -62.990727 
L 459.493728 -62.990727 
L 458.555759 -62.990727 
L 457.617789 -62.990727 
L 456.67982 -62.990727 
L 455.74185 -62.990727 
L 454.803881 -62.990727 
L 453.865911 -62.990727 
L 452.927942 -62.990727 
L 451.989972 -62.990727 
L 451.052003 -62.990727 
L 450.114033 -62.990727 
L 449.176064 -62.990727 
L 448.238094 -62.990727 
L 447.300125 -62.990727 
L 446.362155 -62.990727 
L 445.424186 -62.990727 
L 444.486216 -62.990727 
L 443.548247 -62.990727 
L 442.610277 -62.990727 
L 441.672308 -62.990727 
L 440.734338 -62.990727 
L 439.796369 -62.990727 
L 438.858399 -62.990727 
L 437.92043 -62.990727 
L 436.98246 -62.990727 
L 436.044491 -62.990727 
L 435.106521 -62.990727 
L 434.168552 -62.990727 
L 433.230582 -62.990727 
L 432.292613 -62.990727 
L 431.354643 -62.990727 
L 430.416674 -62.990727 
L 429.478704 -62.990727 
L 428.540735 -62.990727 
L 427.602765 -62.990727 
L 426.664796 -62.990727 
L 425.726826 -62.990727 
L 424.788857 -62.990727 
L 423.850887 -62.990727 
L 422.912918 -62.990727 
L 421.974948 -62.990727 
L 421.036979 -62.990727 
L 420.099009 -62.990727 
L 419.16104 -62.990727 
L 418.22307 -62.990727 
L 417.285101 -62.990727 
L 416.347131 -62.990727 
L 415.409162 -62.990727 
L 414.471192 -62.990727 
L 413.533223 -62.990727 
L 412.595253 -62.990727 
L 411.657284 -62.990727 
L 410.719314 -62.990727 
L 409.781345 -62.990727 
L 408.843375 -62.990727 
L 407.905406 -62.990727 
L 406.967436 -62.990727 
L 406.029467 -62.990727 
L 405.091497 -62.990727 
L 404.153528 -62.990727 
L 403.215558 -62.990727 
L 402.277589 -62.990727 
L 401.339619 -62.990727 
L 400.40165 -62.990727 
L 399.46368 -62.990727 
L 398.525711 -62.990727 
L 397.587741 -62.990727 
L 396.649772 -62.990727 
L 395.711803 -62.990727 
L 394.773833 -62.990727 
L 393.835864 -62.990727 
L 392.897894 -62.990727 
L 391.959925 -62.990727 
L 391.021955 -62.990727 
L 390.083986 -62.990727 
L 389.146016 -62.990727 
L 388.208047 -62.990727 
L 387.270077 -62.990727 
L 386.332108 -62.990727 
L 385.394138 -62.990727 
L 384.456169 -62.990727 
L 383.518199 -62.990727 
L 382.58023 -62.990727 
L 381.64226 -62.990727 
L 380.704291 -62.990727 
L 379.766321 -62.990727 
L 378.828352 -62.990727 
L 377.890382 -62.990727 
L 376.952413 -62.990727 
L 376.014443 -62.990727 
L 375.076474 -62.990727 
L 374.138504 -62.990727 
L 373.200535 -62.990727 
L 372.262565 -62.990727 
L 371.324596 -62.990727 
L 370.386626 -62.990727 
L 369.448657 -62.990727 
L 368.510687 -62.990727 
L 367.572718 -62.990727 
L 366.634748 -62.990727 
L 365.696779 -62.990727 
L 364.758809 -62.990727 
L 363.82084 -62.990727 
L 362.88287 -62.990727 
L 361.944901 -62.990727 
L 361.006931 -62.990727 
L 360.068962 -62.990727 
L 359.130992 -62.990727 
L 358.193023 -62.990727 
L 357.255053 -62.990727 
L 356.317084 -62.990727 
L 355.379114 -62.990727 
L 354.441145 -62.990727 
L 353.503175 -62.990727 
L 352.565206 -62.990727 
L 351.627236 -62.990727 
L 350.689267 -62.990727 
L 349.751297 -62.990727 
L 348.813328 -62.990727 
L 347.875358 -62.990727 
L 346.937389 -62.990727 
L 345.999419 -62.990727 
L 345.06145 -62.990727 
L 344.12348 -62.990727 
L 343.185511 -62.990727 
L 342.247541 -62.990727 
L 341.309572 -62.990727 
L 340.371602 -62.990727 
L 339.433633 -62.990727 
L 338.495663 -62.990727 
L 337.557694 -62.990727 
L 336.619724 -62.990727 
L 335.681755 -62.990727 
L 334.743785 -62.990727 
L 333.805816 -62.990727 
L 332.867846 -62.990727 
L 331.929877 -62.990727 
L 330.991907 -62.990727 
L 330.053938 -62.990727 
L 329.115968 -62.990727 
L 328.177999 -62.990727 
L 327.24003 -62.990727 
L 326.30206 -62.990727 
L 325.364091 -62.990727 
L 324.426121 -62.990727 
L 323.488152 -62.990727 
L 322.550182 -62.990727 
L 321.612213 -62.990727 
L 320.674243 -62.990727 
L 319.736274 -62.990727 
L 318.798304 -62.990727 
L 317.860335 -62.990727 
L 316.922365 -62.990727 
L 315.984396 -62.990727 
L 315.046426 -62.990727 
L 314.108457 -62.990727 
L 313.170487 -62.990727 
L 312.232518 -62.990727 
L 311.294548 -62.990727 
L 310.356579 -62.990727 
L 309.418609 -62.990727 
L 308.48064 -62.990727 
L 307.54267 -62.990727 
L 306.604701 -62.990727 
L 305.666731 -62.990727 
L 304.728762 -62.990727 
L 303.790792 -62.990727 
L 302.852823 -62.990727 
L 301.914853 -62.990727 
L 300.976884 -62.990727 
L 300.038914 -62.990727 
L 299.100945 -62.990727 
L 298.162975 -62.990727 
L 297.225006 -62.990727 
L 296.287036 -62.990727 
L 295.349067 -62.990727 
L 294.411097 -62.990727 
L 293.473128 -62.990727 
L 292.535158 -62.990727 
L 291.597189 -62.990727 
L 290.659219 -62.990727 
L 289.72125 -62.990727 
L 288.78328 -62.990727 
L 287.845311 -62.990727 
L 286.907341 -62.990727 
L 285.969372 -62.990727 
L 285.031402 -62.990727 
L 284.093433 -62.990727 
L 283.155463 -62.990727 
L 282.217494 -62.990727 
L 281.279524 -62.990727 
L 280.341555 -62.990727 
L 279.403585 -62.990727 
L 278.465616 -62.990727 
L 277.527646 -62.990727 
L 276.589677 -62.990727 
L 275.651707 -62.990727 
L 274.713738 -62.990727 
L 273.775768 -62.990727 
L 272.837799 -62.990727 
L 271.899829 -62.990727 
L 270.96186 -62.990727 
L 270.02389 -62.990727 
L 269.085921 -62.990727 
L 268.147951 -62.990727 
L 267.209982 -62.990727 
L 266.272012 -62.990727 
L 265.334043 -62.990727 
L 264.396073 -62.990727 
L 263.458104 -62.990727 
L 262.520134 -62.990727 
L 261.582165 -62.990727 
L 260.644195 -62.990727 
L 259.706226 -62.990727 
L 258.768257 -62.990727 
L 257.830287 -62.990727 
L 256.892318 -62.990727 
L 255.954348 -62.990727 
L 255.016379 -62.990727 
L 254.078409 -62.990727 
L 253.14044 -62.990727 
L 252.20247 -62.990727 
L 251.264501 -62.990727 
L 250.326531 -62.990727 
L 249.388562 -62.990727 
L 248.450592 -62.990727 
L 247.512623 -62.990727 
L 246.574653 -62.990727 
L 245.636684 -62.990727 
L 244.698714 -62.990727 
L 243.760745 -62.990727 
L 242.822775 -62.990727 
L 241.884806 -62.990727 
L 240.946836 -62.990727 
L 240.008867 -62.990727 
L 239.070897 -62.990727 
L 238.132928 -62.990727 
L 237.194958 -62.990727 
L 236.256989 -62.990727 
L 235.319019 -62.990727 
L 234.38105 -62.990727 
L 233.44308 -62.990727 
L 232.505111 -62.990727 
L 231.567141 -62.990727 
L 230.629172 -62.990727 
L 229.691202 -62.990727 
L 228.753233 -62.990727 
L 227.815263 -62.990727 
L 226.877294 -62.990727 
L 225.939324 -62.990727 
L 225.001355 -62.990727 
L 224.063385 -62.990727 
L 223.125416 -62.990727 
L 222.187446 -62.990727 
L 221.249477 -62.990727 
L 220.311507 -62.990727 
L 219.373538 -62.990727 
L 218.435568 -62.990727 
L 217.497599 -62.990727 
L 216.559629 -62.990727 
L 215.62166 -62.990727 
L 214.68369 -62.990727 
L 213.745721 -62.990727 
L 212.807751 -62.990727 
L 211.869782 -62.990727 
L 210.931812 -62.990727 
L 209.993843 -62.990727 
L 209.055873 -62.990727 
L 208.117904 -62.990727 
L 207.179934 -62.990727 
L 206.241965 -62.990727 
L 205.303995 -62.990727 
L 204.366026 -62.990727 
L 203.428056 -62.990727 
L 202.490087 -62.990727 
L 201.552117 -62.990727 
L 200.614148 -62.990727 
L 199.676178 -62.990727 
L 198.738209 -62.990727 
L 197.800239 -62.990727 
L 196.86227 -62.990727 
L 195.9243 -62.990727 
L 194.986331 -62.990727 
L 194.048361 -62.990727 
L 193.110392 -62.990727 
L 192.172422 -62.990727 
L 191.234453 -62.990727 
L 190.296484 -62.990727 
L 189.358514 -62.990727 
L 188.420545 -62.990727 
L 187.482575 -62.990727 
L 186.544606 -62.990727 
L 185.606636 -62.990727 
L 184.668667 -62.990727 
L 183.730697 -62.990727 
L 182.792728 -62.990727 
L 181.854758 -62.990727 
L 180.916789 -62.990727 
L 179.978819 -62.990727 
L 179.04085 -62.990727 
L 178.10288 -62.990727 
L 177.164911 -62.990727 
L 176.226941 -62.990727 
L 175.288972 -62.990727 
L 174.351002 -62.990727 
L 173.413033 -62.990727 
L 172.475063 -62.990727 
L 171.537094 -62.990727 
L 170.599124 -62.990727 
L 169.661155 -62.990727 
L 168.723185 -62.990727 
L 167.785216 -62.990727 
L 166.847246 -62.990727 
L 165.909277 -62.990727 
L 164.971307 -62.990727 
L 164.033338 -62.990727 
L 163.095368 -62.990727 
L 162.157399 -62.990727 
L 161.219429 -62.990727 
L 160.28146 -62.990727 
L 159.34349 -62.990727 
L 158.405521 -62.990727 
L 157.467551 -62.990727 
L 156.529582 -62.990727 
L 155.591612 -62.990727 
L 154.653643 -62.990727 
L 153.715673 -62.990727 
L 152.777704 -62.990727 
L 151.839734 -62.990727 
L 150.901765 -62.990727 
L 149.963795 -62.990727 
L 149.025826 -62.990727 
L 148.087856 -62.990727 
L 147.149887 -62.990727 
L 146.211917 -62.990727 
L 145.273948 -62.990727 
L 144.335978 -62.990727 
L 143.398009 -62.990727 
L 142.460039 -62.990727 
L 141.52207 -62.990727 
L 140.5841 -62.990727 
L 139.646131 -62.990727 
L 138.708161 -62.990727 
L 137.770192 -62.990727 
L 136.832222 -62.990727 
L 135.894253 -62.990727 
L 134.956283 -62.990727 
L 134.018314 -62.990727 
L 133.080344 -62.990727 
L 132.142375 -62.990727 
L 131.204405 -62.990727 
L 130.266436 -62.990727 
L 129.328466 -62.990727 
L 128.390497 -62.990727 
L 127.452527 -62.990727 
L 126.514558 -62.990727 
L 125.576588 -62.990727 
L 124.638619 -62.990727 
L 123.700649 -62.990727 
L 122.76268 -62.990727 
L 121.824711 -62.990727 
L 120.886741 -62.990727 
L 119.948772 -62.990727 
L 119.010802 -62.990727 
L 118.072833 -62.990727 
L 117.134863 -62.990727 
L 116.196894 -62.990727 
L 115.258924 -62.990727 
L 114.320955 -62.990727 
L 113.382985 -62.990727 
L 112.445016 -62.990727 
L 111.507046 -62.990727 
L 110.569077 -62.990727 
L 109.631107 -62.990727 
L 108.693138 -62.990727 
L 107.755168 -62.990727 
L 106.817199 -62.990727 
L 105.879229 -62.990727 
L 104.94126 -62.990727 
L 104.00329 -62.990727 
L 103.065321 -62.990727 
L 102.127351 -62.990727 
L 101.189382 -62.990727 
L 100.251412 -62.990727 
L 99.313443 -62.990727 
L 98.375473 -62.990727 
L 97.437504 -62.990727 
L 96.499534 -62.990727 
L 95.561565 -62.990727 
L 94.623595 -62.990727 
L 93.685626 -62.990727 
L 92.747656 -62.990727 
L 91.809687 -62.990727 
L 90.871717 -62.990727 
L 89.933748 -62.990727 
L 88.995778 -62.990727 
L 88.057809 -62.990727 
L 87.119839 -62.990727 
L 86.18187 -62.990727 
L 85.2439 -62.990727 
L 84.305931 -62.990727 
L 83.367961 -62.990727 
L 82.429992 -62.990727 
L 81.492022 -62.990727 
L 80.554053 -62.990727 
L 79.616083 -62.990727 
L 78.678114 -62.990727 
L 77.740144 -62.990727 
L 76.802175 -62.990727 
L 75.864205 -62.990727 
L 74.926236 -62.990727 
L 73.988266 -62.990727 
L 73.050297 -62.990727 
L 72.112327 -62.990727 
L 71.174358 -62.990727 
L 70.236388 -62.990727 
L 69.298419 -62.990727 
L 68.360449 -62.990727 
L 67.42248 -62.990727 
L 66.48451 -62.990727 
L 65.546541 -62.990727 
L 64.608571 -62.990727 
L 63.670602 -62.990727 
L 62.732632 -62.990727 
L 61.794663 -62.990727 
L 60.856693 -62.990727 
L 59.918724 -62.990727 
L 58.980754 -62.990727 
L 58.042785 -62.990727 
L 57.104815 -62.990727 
L 56.166846 -62.990727 
L 55.228876 -62.990727 
L 54.290907 -62.990727 
L 53.352938 -62.990727 
L 52.414968 -62.990727 
L 51.476999 -62.990727 
L 50.539029 -62.990727 
L 49.60106 -62.990727 
L 48.66309 -62.990727 
L 47.725121 -62.990727 
z
"/>
    </defs>
    <g clip-path="url(#p4e47cc2875)">
     <use xlink:href="#m3bea20c1d5" x="0" y="432" style="fill: #51d7c1; fill-opacity: 0.6"/>
    </g>
   </g>
   <g id="line2d_20">
    <path d="M 47.725121 366.555074 
L 73.988266 366.521939 
L 77.740144 366.320668 
L 81.492022 365.925637 
L 85.2439 365.32206 
L 88.995778 364.501173 
L 93.685626 363.210138 
L 99.313443 361.405151 
L 107.755168 358.434821 
L 114.320955 355.864559 
L 118.072833 354.192875 
L 121.824711 352.33234 
L 126.514558 349.717651 
L 130.266436 347.396837 
L 134.018314 344.853627 
L 137.770192 342.065039 
L 141.52207 338.934845 
L 144.335978 336.332962 
L 147.149887 333.463877 
L 149.963795 330.308115 
L 152.777704 326.855034 
L 155.591612 323.108816 
L 159.34349 317.726051 
L 164.971307 309.042671 
L 174.351002 293.979196 
L 182.792728 279.862329 
L 186.544606 273.057073 
L 189.358514 267.615879 
L 193.110392 259.821848 
L 195.9243 253.498131 
L 199.676178 244.522145 
L 204.366026 232.62507 
L 217.497599 199.044019 
L 222.187446 187.886307 
L 230.629172 168.598707 
L 239.070897 150.034548 
L 255.954348 114.111516 
L 261.582165 102.518223 
L 264.396073 97.175579 
L 267.209982 92.288891 
L 270.02389 87.819876 
L 272.837799 83.943906 
L 274.713738 81.683277 
L 276.589677 79.720521 
L 278.465616 77.998546 
L 280.341555 76.510578 
L 282.217494 75.256033 
L 285.031402 73.820555 
L 287.845311 72.865058 
L 290.659219 72.448294 
L 292.535158 72.429416 
L 294.411097 72.663618 
L 296.287036 73.161511 
L 298.162975 73.873162 
L 300.038914 74.868851 
L 301.914853 76.125606 
L 303.790792 77.665607 
L 305.666731 79.4419 
L 308.48064 82.529631 
L 312.232518 87.333977 
L 315.984396 92.618532 
L 319.736274 98.139351 
L 332.867846 117.683425 
L 335.681755 122.406018 
L 338.495663 127.666001 
L 341.309572 133.459757 
L 344.12348 139.779035 
L 347.875358 148.863539 
L 362.88287 186.435542 
L 378.828352 223.869269 
L 392.897894 258.046092 
L 396.649772 266.303014 
L 399.46368 272.171036 
L 403.215558 279.54017 
L 406.967436 286.483761 
L 410.719314 292.909516 
L 414.471192 298.813572 
L 417.285101 302.891736 
L 421.036979 307.81889 
L 424.788857 312.256873 
L 428.540735 316.344096 
L 436.98246 324.996251 
L 443.548247 331.828677 
L 449.176064 337.597242 
L 453.865911 342.002623 
L 457.617789 345.116608 
L 460.431698 347.171283 
L 463.245606 348.994792 
L 466.997484 351.099749 
L 471.687331 353.403832 
L 481.067026 357.628194 
L 488.570782 360.793653 
L 492.32266 362.198204 
L 496.074538 363.357264 
L 499.826416 364.247989 
L 503.578294 364.875639 
L 508.268142 365.362265 
L 512.957989 365.627395 
L 521.399715 365.784371 
L 527.027532 365.81141 
L 527.027532 365.81141 
" clip-path="url(#p4e47cc2875)" style="fill: none; stroke: #51d7c1; stroke-width: 1.5; stroke-linecap: round"/>
   </g>
   <g id="line2d_21">
    <path d="M 172.467345 362.780367 
L 405.683354 362.780367 
" clip-path="url(#p4e47cc2875)" style="fill: none; stroke: #51d7c1; stroke-width: 3.5; stroke-linecap: round"/>
   </g>
   <g id="patch_3">
    <path d="M 23.76 383.84 
L 550.992652 383.84 
" style="fill: none; stroke: #333333; stroke-width: 1.5; stroke-linejoin: miter; stroke-linecap: square"/>
   </g>
   <g id="text_8">
    <!-- $x_3^3$ -->
    <g style="fill: #262626" transform="translate(271.836326 49.444)">
     <text>
      <tspan x="0" y="-0.734375" style="font-style: oblique; font-size: 28px; font-family: 'DejaVu Sans'; fill: #262626">x</tspan>
      <tspan x="16.570312" y="6.921875" style="font-size: 19.6px; font-family: 'DejaVu Sans'; fill: #262626">3</tspan>
      <tspan x="17.820833" y="-11.453125" style="font-size: 19.6px; font-family: 'DejaVu Sans'; fill: #262626">3</tspan>
     </text>
    </g>
   </g>
  </g>
 </g>
 <defs>
  <clipPath id="p4e47cc2875">
   <rect x="23.76" y="57.564" width="527.232652" height="326.276"/>
  </clipPath>
 </defs>
</svg>
