<?xml version="1.0" encoding="utf-8" standalone="no"?>
<!DOCTYPE svg PUBLIC "-//W3C//DTD SVG 1.1//EN"
  "http://www.w3.org/Graphics/SVG/1.1/DTD/svg11.dtd">
<svg xmlns:xlink="http://www.w3.org/1999/xlink" width="576pt" height="432pt" viewBox="0 0 576 432" xmlns="http://www.w3.org/2000/svg" version="1.1">
 <metadata>
  <rdf:RDF xmlns:dc="http://purl.org/dc/elements/1.1/" xmlns:cc="http://creativecommons.org/ns#" xmlns:rdf="http://www.w3.org/1999/02/22-rdf-syntax-ns#">
   <cc:Work>
    <dc:type rdf:resource="http://purl.org/dc/dcmitype/StillImage"/>
    <dc:date>2025-09-23T14:40:26.311690</dc:date>
    <dc:format>image/svg+xml</dc:format>
    <dc:creator>
     <cc:Agent>
      <dc:title>Matplotlib v3.10.0, https://matplotlib.org/</dc:title>
     </cc:Agent>
    </dc:creator>
   </cc:Work>
  </rdf:RDF>
 </metadata>
 <defs>
  <style type="text/css">*{stroke-linejoin: round; stroke-linecap: butt}</style>
 </defs>
 <g id="figure_1">
  <g id="patch_1">
   <path d="M 0 432 
L 576 432 
L 576 0 
L 0 0 
L 0 432 
z
" style="fill: none; opacity: 0"/>
  </g>
  <g id="axes_1">
   <g id="patch_2">
    <path d="M 23.76 383.84 
L 552.24 383.84 
L 552.24 57.264 
L 23.76 57.264 
L 23.76 383.84 
z
" style="fill: none"/>
   </g>
   <g id="matplotlib.axis_1">
    <g id="xtick_1">
     <g id="line2d_1">
      <path d="M 74.756431 383.84 
L 74.756431 57.264 
" clip-path="url(#p7a73d6ead5)" style="fill: none; stroke: #ffffff; stroke-opacity: 0.4; stroke-linecap: round"/>
     </g>
     <g id="line2d_2"/>
     <g id="text_1">
      <text style="font-size: 18px; font-family: 'DejaVu Serif', 'Times New Roman', serif; text-anchor: middle; fill: #262626" x="74.756431" y="404.517187" transform="rotate(-0 74.756431 404.517187)">−0.75</text>
     </g>
    </g>
    <g id="xtick_2">
     <g id="line2d_3">
      <path d="M 147.477829 383.84 
L 147.477829 57.264 
" clip-path="url(#p7a73d6ead5)" style="fill: none; stroke: #ffffff; stroke-opacity: 0.4; stroke-linecap: round"/>
     </g>
     <g id="line2d_4"/>
     <g id="text_2">
      <text style="font-size: 18px; font-family: 'DejaVu Serif', 'Times New Roman', serif; text-anchor: middle; fill: #262626" x="147.477829" y="404.517187" transform="rotate(-0 147.477829 404.517187)">−0.50</text>
     </g>
    </g>
    <g id="xtick_3">
     <g id="line2d_5">
      <path d="M 220.199227 383.84 
L 220.199227 57.264 
" clip-path="url(#p7a73d6ead5)" style="fill: none; stroke: #ffffff; stroke-opacity: 0.4; stroke-linecap: round"/>
     </g>
     <g id="line2d_6"/>
     <g id="text_3">
      <text style="font-size: 18px; font-family: 'DejaVu Serif', 'Times New Roman', serif; text-anchor: middle; fill: #262626" x="220.199227" y="404.517187" transform="rotate(-0 220.199227 404.517187)">−0.25</text>
     </g>
    </g>
    <g id="xtick_4">
     <g id="line2d_7">
      <path d="M 292.920625 383.84 
L 292.920625 57.264 
" clip-path="url(#p7a73d6ead5)" style="fill: none; stroke: #ffffff; stroke-opacity: 0.4; stroke-linecap: round"/>
     </g>
     <g id="line2d_8"/>
     <g id="text_4">
      <text style="font-size: 18px; font-family: 'DejaVu Serif', 'Times New Roman', serif; text-anchor: middle; fill: #262626" x="292.920625" y="404.517187" transform="rotate(-0 292.920625 404.517187)">0.00</text>
     </g>
    </g>
    <g id="xtick_5">
     <g id="line2d_9">
      <path d="M 365.642024 383.84 
L 365.642024 57.264 
" clip-path="url(#p7a73d6ead5)" style="fill: none; stroke: #ffffff; stroke-opacity: 0.4; stroke-linecap: round"/>
     </g>
     <g id="line2d_10"/>
     <g id="text_5">
      <text style="font-size: 18px; font-family: 'DejaVu Serif', 'Times New Roman', serif; text-anchor: middle; fill: #262626" x="365.642024" y="404.517187" transform="rotate(-0 365.642024 404.517187)">0.25</text>
     </g>
    </g>
    <g id="xtick_6">
     <g id="line2d_11">
      <path d="M 438.363422 383.84 
L 438.363422 57.264 
" clip-path="url(#p7a73d6ead5)" style="fill: none; stroke: #ffffff; stroke-opacity: 0.4; stroke-linecap: round"/>
     </g>
     <g id="line2d_12"/>
     <g id="text_6">
      <text style="font-size: 18px; font-family: 'DejaVu Serif', 'Times New Roman', serif; text-anchor: middle; fill: #262626" x="438.363422" y="404.517187" transform="rotate(-0 438.363422 404.517187)">0.50</text>
     </g>
    </g>
    <g id="xtick_7">
     <g id="line2d_13">
      <path d="M 511.08482 383.84 
L 511.08482 57.264 
" clip-path="url(#p7a73d6ead5)" style="fill: none; stroke: #ffffff; stroke-opacity: 0.4; stroke-linecap: round"/>
     </g>
     <g id="line2d_14"/>
     <g id="text_7">
      <text style="font-size: 18px; font-family: 'DejaVu Serif', 'Times New Roman', serif; text-anchor: middle; fill: #262626" x="511.08482" y="404.517187" transform="rotate(-0 511.08482 404.517187)">0.75</text>
     </g>
    </g>
   </g>
   <g id="matplotlib.axis_2">
    <g id="ytick_1">
     <g id="line2d_15">
      <path d="M 23.76 368.995636 
L 552.24 368.995636 
" clip-path="url(#p7a73d6ead5)" style="fill: none; stroke: #ffffff; stroke-opacity: 0.4; stroke-linecap: round"/>
     </g>
    </g>
    <g id="ytick_2">
     <g id="line2d_16">
      <path d="M 23.76 324.368757 
L 552.24 324.368757 
" clip-path="url(#p7a73d6ead5)" style="fill: none; stroke: #ffffff; stroke-opacity: 0.4; stroke-linecap: round"/>
     </g>
    </g>
    <g id="ytick_3">
     <g id="line2d_17">
      <path d="M 23.76 279.741877 
L 552.24 279.741877 
" clip-path="url(#p7a73d6ead5)" style="fill: none; stroke: #ffffff; stroke-opacity: 0.4; stroke-linecap: round"/>
     </g>
    </g>
    <g id="ytick_4">
     <g id="line2d_18">
      <path d="M 23.76 235.114998 
L 552.24 235.114998 
" clip-path="url(#p7a73d6ead5)" style="fill: none; stroke: #ffffff; stroke-opacity: 0.4; stroke-linecap: round"/>
     </g>
    </g>
    <g id="ytick_5">
     <g id="line2d_19">
      <path d="M 23.76 190.488118 
L 552.24 190.488118 
" clip-path="url(#p7a73d6ead5)" style="fill: none; stroke: #ffffff; stroke-opacity: 0.4; stroke-linecap: round"/>
     </g>
    </g>
    <g id="ytick_6">
     <g id="line2d_20">
      <path d="M 23.76 145.861239 
L 552.24 145.861239 
" clip-path="url(#p7a73d6ead5)" style="fill: none; stroke: #ffffff; stroke-opacity: 0.4; stroke-linecap: round"/>
     </g>
    </g>
    <g id="ytick_7">
     <g id="line2d_21">
      <path d="M 23.76 101.234359 
L 552.24 101.234359 
" clip-path="url(#p7a73d6ead5)" style="fill: none; stroke: #ffffff; stroke-opacity: 0.4; stroke-linecap: round"/>
     </g>
    </g>
   </g>
   <g id="FillBetweenPolyCollection_1">
    <defs>
     <path id="m78389a2613" d="M 47.781818 -63.004364 
L 47.781818 -64.641075 
L 48.722007 -64.637735 
L 49.662195 -64.641494 
L 50.602384 -64.639398 
L 51.542572 -64.635963 
L 52.482761 -64.631334 
L 53.42295 -64.62567 
L 54.363138 -64.619148 
L 55.303327 -64.614738 
L 56.243515 -64.607824 
L 57.183704 -64.603634 
L 58.123893 -64.59762 
L 59.064081 -64.595084 
L 60.00427 -64.591547 
L 60.944458 -64.589598 
L 61.884647 -64.589654 
L 62.824835 -64.592136 
L 63.765024 -64.603021 
L 64.705213 -64.613637 
L 65.645401 -64.628833 
L 66.58559 -64.648482 
L 67.525778 -64.678555 
L 68.465967 -64.712522 
L 69.406155 -64.750282 
L 70.346344 -64.794325 
L 71.286533 -64.847643 
L 72.226721 -64.908304 
L 73.16691 -64.974295 
L 74.107098 -65.050577 
L 75.047287 -65.134413 
L 75.987476 -65.220792 
L 76.927664 -65.322059 
L 77.867853 -65.428211 
L 78.808041 -65.541194 
L 79.74823 -65.65793 
L 80.688418 -65.782905 
L 81.628607 -65.913526 
L 82.568796 -66.049367 
L 83.508984 -66.189997 
L 84.449173 -66.343324 
L 85.389361 -66.494439 
L 86.32955 -66.65298 
L 87.269738 -66.80891 
L 88.209927 -66.970623 
L 89.150116 -67.143458 
L 90.090304 -67.315507 
L 91.030493 -67.49121 
L 91.970681 -67.676223 
L 92.91087 -67.861026 
L 93.851059 -68.050237 
L 94.791247 -68.241336 
L 95.731436 -68.439433 
L 96.671624 -68.650912 
L 97.611813 -68.864858 
L 98.552001 -69.091637 
L 99.49219 -69.318649 
L 100.432379 -69.553377 
L 101.372567 -69.796106 
L 102.312756 -70.052042 
L 103.252944 -70.317231 
L 104.193133 -70.583732 
L 105.133321 -70.86362 
L 106.07351 -71.152609 
L 107.013699 -71.456272 
L 107.953887 -71.775994 
L 108.894076 -72.108435 
L 109.834264 -72.445779 
L 110.774453 -72.802529 
L 111.714642 -73.161571 
L 112.65483 -73.537328 
L 113.595019 -73.928547 
L 114.535207 -74.333561 
L 115.475396 -74.744634 
L 116.415584 -75.171391 
L 117.355773 -75.61205 
L 118.295962 -76.072603 
L 119.23615 -76.543843 
L 120.176339 -77.025126 
L 121.116527 -77.534978 
L 122.056716 -78.052199 
L 122.996904 -78.594255 
L 123.937093 -79.146927 
L 124.877282 -79.718209 
L 125.81747 -80.313811 
L 126.757659 -80.931839 
L 127.697847 -81.56046 
L 128.638036 -82.232515 
L 129.578225 -82.91108 
L 130.518413 -83.6146 
L 131.458602 -84.338447 
L 132.39879 -85.079395 
L 133.338979 -85.847749 
L 134.279167 -86.625217 
L 135.219356 -87.430398 
L 136.159545 -88.248025 
L 137.099733 -89.103402 
L 138.039922 -89.962015 
L 138.98011 -90.843795 
L 139.920299 -91.730529 
L 140.860487 -92.638426 
L 141.800676 -93.561724 
L 142.740865 -94.503738 
L 143.681053 -95.453248 
L 144.621242 -96.416725 
L 145.56143 -97.387838 
L 146.501619 -98.385698 
L 147.441808 -99.402115 
L 148.381996 -100.438654 
L 149.322185 -101.492848 
L 150.262373 -102.569448 
L 151.202562 -103.667751 
L 152.14275 -104.800204 
L 153.082939 -105.959613 
L 154.023128 -107.160474 
L 154.963316 -108.399253 
L 155.903505 -109.692526 
L 156.843693 -111.031071 
L 157.783882 -112.410594 
L 158.72407 -113.842007 
L 159.664259 -115.310902 
L 160.604448 -116.841935 
L 161.544636 -118.412767 
L 162.484825 -120.010269 
L 163.425013 -121.676603 
L 164.365202 -123.35893 
L 165.30539 -125.082532 
L 166.245579 -126.840028 
L 167.185768 -128.623961 
L 168.125956 -130.432652 
L 169.066145 -132.268937 
L 170.006333 -134.082139 
L 170.946522 -135.889061 
L 171.886711 -137.700651 
L 172.826899 -139.516871 
L 173.767088 -141.32634 
L 174.707276 -143.11046 
L 175.647465 -144.898561 
L 176.587653 -146.647353 
L 177.527842 -148.380192 
L 178.468031 -150.080871 
L 179.408219 -151.786736 
L 180.348408 -153.473753 
L 181.288596 -155.148114 
L 182.228785 -156.833649 
L 183.168973 -158.497496 
L 184.109162 -160.168439 
L 185.049351 -161.847999 
L 185.989539 -163.540249 
L 186.929728 -165.258675 
L 187.869916 -167.009119 
L 188.810105 -168.776489 
L 189.750294 -170.623319 
L 190.690482 -172.470693 
L 191.630671 -174.373055 
L 192.570859 -176.301718 
L 193.511048 -178.255621 
L 194.451236 -180.275279 
L 195.391425 -182.329961 
L 196.331614 -184.39485 
L 197.271802 -186.473545 
L 198.211991 -188.582948 
L 199.152179 -190.675146 
L 200.092368 -192.753388 
L 201.032556 -194.822504 
L 201.972745 -196.872158 
L 202.912934 -198.891189 
L 203.853122 -200.883948 
L 204.793311 -202.813987 
L 205.733499 -204.694458 
L 206.673688 -206.509079 
L 207.613877 -208.271095 
L 208.554065 -209.969042 
L 209.494254 -211.608672 
L 210.434442 -213.169344 
L 211.374631 -214.670681 
L 212.314819 -216.135872 
L 213.255008 -217.50663 
L 214.195197 -218.849521 
L 215.135385 -220.144894 
L 216.075574 -221.411131 
L 217.015762 -222.630409 
L 217.955951 -223.883672 
L 218.896139 -225.112776 
L 219.836328 -226.353539 
L 220.776517 -227.609877 
L 221.716705 -228.927163 
L 222.656894 -230.265559 
L 223.597082 -231.65134 
L 224.537271 -233.093954 
L 225.47746 -234.601671 
L 226.417648 -236.196364 
L 227.357837 -237.866651 
L 228.298025 -239.647637 
L 229.238214 -241.536292 
L 230.178402 -243.481277 
L 231.118591 -245.554629 
L 232.05878 -247.701341 
L 232.998968 -249.933507 
L 233.939157 -252.249675 
L 234.879345 -254.651345 
L 235.819534 -257.14158 
L 236.759722 -259.70755 
L 237.699911 -262.374957 
L 238.6401 -265.084769 
L 239.580288 -267.836281 
L 240.520477 -270.62974 
L 241.460665 -273.466531 
L 242.400854 -276.334293 
L 243.341043 -279.232144 
L 244.281231 -282.118023 
L 245.22142 -284.984156 
L 246.161608 -287.837511 
L 247.101797 -290.67324 
L 248.041985 -293.519976 
L 248.982174 -296.323378 
L 249.922363 -299.073102 
L 250.862551 -301.794065 
L 251.80274 -304.445236 
L 252.742928 -307.055228 
L 253.683117 -309.589087 
L 254.623305 -312.041738 
L 255.563494 -314.471133 
L 256.503683 -316.839664 
L 257.443871 -319.08508 
L 258.38406 -321.27248 
L 259.324248 -323.383765 
L 260.264437 -325.405015 
L 261.204626 -327.374448 
L 262.144814 -329.267848 
L 263.085003 -331.074031 
L 264.025191 -332.783572 
L 264.96538 -334.462864 
L 265.905568 -336.066486 
L 266.845757 -337.578937 
L 267.785946 -339.004332 
L 268.726134 -340.395311 
L 269.666323 -341.686927 
L 270.606511 -342.927307 
L 271.5467 -344.112903 
L 272.486888 -345.207494 
L 273.427077 -346.248172 
L 274.367266 -347.2676 
L 275.307454 -348.229224 
L 276.247643 -349.14375 
L 277.187831 -350.031843 
L 278.12802 -350.891248 
L 279.068209 -351.6891 
L 280.008397 -352.466709 
L 280.948586 -353.180871 
L 281.888774 -353.876298 
L 282.828963 -354.566657 
L 283.769151 -355.220344 
L 284.70934 -355.830467 
L 285.649529 -356.439509 
L 286.589717 -356.999877 
L 287.529906 -357.506842 
L 288.470094 -357.993119 
L 289.410283 -358.422242 
L 290.350471 -358.799187 
L 291.29066 -359.159023 
L 292.230849 -359.435693 
L 293.171037 -359.657227 
L 294.111226 -359.807286 
L 295.051414 -359.891636 
L 295.991603 -359.842503 
L 296.931791 -359.718913 
L 297.87198 -359.502968 
L 298.812169 -359.216115 
L 299.752357 -358.787621 
L 300.692546 -358.284205 
L 301.632734 -357.686853 
L 302.572923 -356.980539 
L 303.513112 -356.183051 
L 304.4533 -355.266212 
L 305.393489 -354.282376 
L 306.333677 -353.205066 
L 307.273866 -352.031232 
L 308.214054 -350.833338 
L 309.154243 -349.546622 
L 310.094432 -348.20784 
L 311.03462 -346.842204 
L 311.974809 -345.454529 
L 312.914997 -344.020459 
L 313.855186 -342.575376 
L 314.795374 -341.108183 
L 315.735563 -339.598041 
L 316.675752 -338.116193 
L 317.61594 -336.665043 
L 318.556129 -335.230465 
L 319.496317 -333.766876 
L 320.436506 -332.320943 
L 321.376695 -330.888354 
L 322.316883 -329.468207 
L 323.257072 -328.052914 
L 324.19726 -326.648019 
L 325.137449 -325.230301 
L 326.077637 -323.792584 
L 327.017826 -322.344102 
L 327.958015 -320.866476 
L 328.898203 -319.346378 
L 329.838392 -317.803982 
L 330.77858 -316.219364 
L 331.718769 -314.578051 
L 332.658957 -312.934049 
L 333.599146 -311.19113 
L 334.539335 -309.379479 
L 335.479523 -307.549848 
L 336.419712 -305.623277 
L 337.3599 -303.641238 
L 338.300089 -301.60196 
L 339.240278 -299.505113 
L 340.180466 -297.358141 
L 341.120655 -295.154395 
L 342.060843 -292.930034 
L 343.001032 -290.625287 
L 343.94122 -288.312854 
L 344.881409 -285.97781 
L 345.821598 -283.633306 
L 346.761786 -281.283102 
L 347.701975 -278.941472 
L 348.642163 -276.595088 
L 349.582352 -274.280495 
L 350.52254 -271.95655 
L 351.462729 -269.66988 
L 352.402918 -267.381933 
L 353.343106 -265.139247 
L 354.283295 -262.907003 
L 355.223483 -260.706533 
L 356.163672 -258.516608 
L 357.103861 -256.37662 
L 358.044049 -254.271624 
L 358.984238 -252.170731 
L 359.924426 -250.055636 
L 360.864615 -247.925592 
L 361.804803 -245.815543 
L 362.744992 -243.699184 
L 363.685181 -241.540211 
L 364.625369 -239.375333 
L 365.565558 -237.183309 
L 366.505746 -234.958754 
L 367.445935 -232.695155 
L 368.386123 -230.399585 
L 369.326312 -228.042378 
L 370.266501 -225.645049 
L 371.206689 -223.199585 
L 372.146878 -220.732279 
L 373.087066 -218.244688 
L 374.027255 -215.725172 
L 374.967444 -213.189358 
L 375.907632 -210.617263 
L 376.847821 -208.023008 
L 377.788009 -205.438656 
L 378.728198 -202.845339 
L 379.668386 -200.248429 
L 380.608575 -197.66708 
L 381.548764 -195.106066 
L 382.488952 -192.572535 
L 383.429141 -190.046306 
L 384.369329 -187.54605 
L 385.309518 -185.098638 
L 386.249706 -182.698634 
L 387.189895 -180.338671 
L 388.130084 -178.036708 
L 389.070272 -175.76118 
L 390.010461 -173.515049 
L 390.950649 -171.346042 
L 391.890838 -169.216273 
L 392.831027 -167.127452 
L 393.771215 -165.105449 
L 394.711404 -163.097686 
L 395.651592 -161.124103 
L 396.591781 -159.197028 
L 397.531969 -157.309082 
L 398.472158 -155.461181 
L 399.412347 -153.62387 
L 400.352535 -151.836233 
L 401.292724 -150.078034 
L 402.232912 -148.333137 
L 403.173101 -146.608676 
L 404.113289 -144.921019 
L 405.053478 -143.268458 
L 405.993667 -141.631196 
L 406.933855 -140.007092 
L 407.874044 -138.416398 
L 408.814232 -136.84082 
L 409.754421 -135.302705 
L 410.69461 -133.764749 
L 411.634798 -132.256284 
L 412.574987 -130.781608 
L 413.515175 -129.322064 
L 414.455364 -127.905645 
L 415.395552 -126.504411 
L 416.335741 -125.12715 
L 417.27593 -123.766676 
L 418.216118 -122.425225 
L 419.156307 -121.134207 
L 420.096495 -119.862022 
L 421.036684 -118.617917 
L 421.976872 -117.4031 
L 422.917061 -116.24259 
L 423.85725 -115.092895 
L 424.797438 -113.973364 
L 425.737627 -112.895055 
L 426.677815 -111.848731 
L 427.618004 -110.814513 
L 428.558192 -109.830347 
L 429.498381 -108.858211 
L 430.43857 -107.921434 
L 431.378758 -107.009241 
L 432.318947 -106.116847 
L 433.259135 -105.234865 
L 434.199324 -104.400306 
L 435.139513 -103.545163 
L 436.079701 -102.68332 
L 437.01989 -101.861716 
L 437.960078 -101.044391 
L 438.900267 -100.238797 
L 439.840455 -99.421641 
L 440.780644 -98.605234 
L 441.720833 -97.792751 
L 442.661021 -96.978639 
L 443.60121 -96.166517 
L 444.541398 -95.346302 
L 445.481587 -94.524687 
L 446.421775 -93.693852 
L 447.361964 -92.876152 
L 448.302153 -92.065528 
L 449.242341 -91.247273 
L 450.18253 -90.441709 
L 451.122718 -89.633272 
L 452.062907 -88.843925 
L 453.003096 -88.066256 
L 453.943284 -87.305452 
L 454.883473 -86.555542 
L 455.823661 -85.838242 
L 456.76385 -85.142501 
L 457.704038 -84.46969 
L 458.644227 -83.82419 
L 459.584416 -83.195817 
L 460.524604 -82.601608 
L 461.464793 -82.038116 
L 462.404981 -81.500088 
L 463.34517 -80.990156 
L 464.285358 -80.487573 
L 465.225547 -80.018843 
L 466.165736 -79.578458 
L 467.105924 -79.16428 
L 468.046113 -78.774205 
L 468.986301 -78.394657 
L 469.92649 -78.027079 
L 470.866679 -77.68085 
L 471.806867 -77.33927 
L 472.747056 -77.015145 
L 473.687244 -76.698509 
L 474.627433 -76.379063 
L 475.567621 -76.072644 
L 476.50781 -75.767456 
L 477.447999 -75.467267 
L 478.388187 -75.161838 
L 479.328376 -74.862847 
L 480.268564 -74.566355 
L 481.208753 -74.271489 
L 482.148941 -73.968853 
L 483.08913 -73.6665 
L 484.029319 -73.370867 
L 484.969507 -73.071746 
L 485.909696 -72.769953 
L 486.849884 -72.472805 
L 487.790073 -72.17517 
L 488.730262 -71.881839 
L 489.67045 -71.584068 
L 490.610639 -71.290528 
L 491.550827 -70.99176 
L 492.491016 -70.695631 
L 493.431204 -70.406673 
L 494.371393 -70.119727 
L 495.311582 -69.835174 
L 496.25177 -69.557773 
L 497.191959 -69.278184 
L 498.132147 -69.004492 
L 499.072336 -68.73439 
L 500.012524 -68.46835 
L 500.952713 -68.206848 
L 501.892902 -67.948178 
L 502.83309 -67.699881 
L 503.773279 -67.452651 
L 504.713467 -67.216816 
L 505.653656 -66.987448 
L 506.593845 -66.762952 
L 507.534033 -66.544353 
L 508.474222 -66.336925 
L 509.41441 -66.136094 
L 510.354599 -65.947062 
L 511.294787 -65.770135 
L 512.234976 -65.592521 
L 513.175165 -65.438815 
L 514.115353 -65.290514 
L 515.055542 -65.157001 
L 515.99573 -65.030713 
L 516.935919 -64.917157 
L 517.876107 -64.811365 
L 518.816296 -64.71534 
L 519.756485 -64.628823 
L 520.696673 -64.5493 
L 521.636862 -64.489005 
L 522.57705 -64.430248 
L 523.517239 -64.382581 
L 524.457428 -64.343554 
L 525.397616 -64.31235 
L 526.337805 -64.288171 
L 527.277993 -64.279141 
L 528.218182 -64.268373 
L 528.218182 -63.004364 
L 528.218182 -63.004364 
L 527.277993 -63.004364 
L 526.337805 -63.004364 
L 525.397616 -63.004364 
L 524.457428 -63.004364 
L 523.517239 -63.004364 
L 522.57705 -63.004364 
L 521.636862 -63.004364 
L 520.696673 -63.004364 
L 519.756485 -63.004364 
L 518.816296 -63.004364 
L 517.876107 -63.004364 
L 516.935919 -63.004364 
L 515.99573 -63.004364 
L 515.055542 -63.004364 
L 514.115353 -63.004364 
L 513.175165 -63.004364 
L 512.234976 -63.004364 
L 511.294787 -63.004364 
L 510.354599 -63.004364 
L 509.41441 -63.004364 
L 508.474222 -63.004364 
L 507.534033 -63.004364 
L 506.593845 -63.004364 
L 505.653656 -63.004364 
L 504.713467 -63.004364 
L 503.773279 -63.004364 
L 502.83309 -63.004364 
L 501.892902 -63.004364 
L 500.952713 -63.004364 
L 500.012524 -63.004364 
L 499.072336 -63.004364 
L 498.132147 -63.004364 
L 497.191959 -63.004364 
L 496.25177 -63.004364 
L 495.311582 -63.004364 
L 494.371393 -63.004364 
L 493.431204 -63.004364 
L 492.491016 -63.004364 
L 491.550827 -63.004364 
L 490.610639 -63.004364 
L 489.67045 -63.004364 
L 488.730262 -63.004364 
L 487.790073 -63.004364 
L 486.849884 -63.004364 
L 485.909696 -63.004364 
L 484.969507 -63.004364 
L 484.029319 -63.004364 
L 483.08913 -63.004364 
L 482.148941 -63.004364 
L 481.208753 -63.004364 
L 480.268564 -63.004364 
L 479.328376 -63.004364 
L 478.388187 -63.004364 
L 477.447999 -63.004364 
L 476.50781 -63.004364 
L 475.567621 -63.004364 
L 474.627433 -63.004364 
L 473.687244 -63.004364 
L 472.747056 -63.004364 
L 471.806867 -63.004364 
L 470.866679 -63.004364 
L 469.92649 -63.004364 
L 468.986301 -63.004364 
L 468.046113 -63.004364 
L 467.105924 -63.004364 
L 466.165736 -63.004364 
L 465.225547 -63.004364 
L 464.285358 -63.004364 
L 463.34517 -63.004364 
L 462.404981 -63.004364 
L 461.464793 -63.004364 
L 460.524604 -63.004364 
L 459.584416 -63.004364 
L 458.644227 -63.004364 
L 457.704038 -63.004364 
L 456.76385 -63.004364 
L 455.823661 -63.004364 
L 454.883473 -63.004364 
L 453.943284 -63.004364 
L 453.003096 -63.004364 
L 452.062907 -63.004364 
L 451.122718 -63.004364 
L 450.18253 -63.004364 
L 449.242341 -63.004364 
L 448.302153 -63.004364 
L 447.361964 -63.004364 
L 446.421775 -63.004364 
L 445.481587 -63.004364 
L 444.541398 -63.004364 
L 443.60121 -63.004364 
L 442.661021 -63.004364 
L 441.720833 -63.004364 
L 440.780644 -63.004364 
L 439.840455 -63.004364 
L 438.900267 -63.004364 
L 437.960078 -63.004364 
L 437.01989 -63.004364 
L 436.079701 -63.004364 
L 435.139513 -63.004364 
L 434.199324 -63.004364 
L 433.259135 -63.004364 
L 432.318947 -63.004364 
L 431.378758 -63.004364 
L 430.43857 -63.004364 
L 429.498381 -63.004364 
L 428.558192 -63.004364 
L 427.618004 -63.004364 
L 426.677815 -63.004364 
L 425.737627 -63.004364 
L 424.797438 -63.004364 
L 423.85725 -63.004364 
L 422.917061 -63.004364 
L 421.976872 -63.004364 
L 421.036684 -63.004364 
L 420.096495 -63.004364 
L 419.156307 -63.004364 
L 418.216118 -63.004364 
L 417.27593 -63.004364 
L 416.335741 -63.004364 
L 415.395552 -63.004364 
L 414.455364 -63.004364 
L 413.515175 -63.004364 
L 412.574987 -63.004364 
L 411.634798 -63.004364 
L 410.69461 -63.004364 
L 409.754421 -63.004364 
L 408.814232 -63.004364 
L 407.874044 -63.004364 
L 406.933855 -63.004364 
L 405.993667 -63.004364 
L 405.053478 -63.004364 
L 404.113289 -63.004364 
L 403.173101 -63.004364 
L 402.232912 -63.004364 
L 401.292724 -63.004364 
L 400.352535 -63.004364 
L 399.412347 -63.004364 
L 398.472158 -63.004364 
L 397.531969 -63.004364 
L 396.591781 -63.004364 
L 395.651592 -63.004364 
L 394.711404 -63.004364 
L 393.771215 -63.004364 
L 392.831027 -63.004364 
L 391.890838 -63.004364 
L 390.950649 -63.004364 
L 390.010461 -63.004364 
L 389.070272 -63.004364 
L 388.130084 -63.004364 
L 387.189895 -63.004364 
L 386.249706 -63.004364 
L 385.309518 -63.004364 
L 384.369329 -63.004364 
L 383.429141 -63.004364 
L 382.488952 -63.004364 
L 381.548764 -63.004364 
L 380.608575 -63.004364 
L 379.668386 -63.004364 
L 378.728198 -63.004364 
L 377.788009 -63.004364 
L 376.847821 -63.004364 
L 375.907632 -63.004364 
L 374.967444 -63.004364 
L 374.027255 -63.004364 
L 373.087066 -63.004364 
L 372.146878 -63.004364 
L 371.206689 -63.004364 
L 370.266501 -63.004364 
L 369.326312 -63.004364 
L 368.386123 -63.004364 
L 367.445935 -63.004364 
L 366.505746 -63.004364 
L 365.565558 -63.004364 
L 364.625369 -63.004364 
L 363.685181 -63.004364 
L 362.744992 -63.004364 
L 361.804803 -63.004364 
L 360.864615 -63.004364 
L 359.924426 -63.004364 
L 358.984238 -63.004364 
L 358.044049 -63.004364 
L 357.103861 -63.004364 
L 356.163672 -63.004364 
L 355.223483 -63.004364 
L 354.283295 -63.004364 
L 353.343106 -63.004364 
L 352.402918 -63.004364 
L 351.462729 -63.004364 
L 350.52254 -63.004364 
L 349.582352 -63.004364 
L 348.642163 -63.004364 
L 347.701975 -63.004364 
L 346.761786 -63.004364 
L 345.821598 -63.004364 
L 344.881409 -63.004364 
L 343.94122 -63.004364 
L 343.001032 -63.004364 
L 342.060843 -63.004364 
L 341.120655 -63.004364 
L 340.180466 -63.004364 
L 339.240278 -63.004364 
L 338.300089 -63.004364 
L 337.3599 -63.004364 
L 336.419712 -63.004364 
L 335.479523 -63.004364 
L 334.539335 -63.004364 
L 333.599146 -63.004364 
L 332.658957 -63.004364 
L 331.718769 -63.004364 
L 330.77858 -63.004364 
L 329.838392 -63.004364 
L 328.898203 -63.004364 
L 327.958015 -63.004364 
L 327.017826 -63.004364 
L 326.077637 -63.004364 
L 325.137449 -63.004364 
L 324.19726 -63.004364 
L 323.257072 -63.004364 
L 322.316883 -63.004364 
L 321.376695 -63.004364 
L 320.436506 -63.004364 
L 319.496317 -63.004364 
L 318.556129 -63.004364 
L 317.61594 -63.004364 
L 316.675752 -63.004364 
L 315.735563 -63.004364 
L 314.795374 -63.004364 
L 313.855186 -63.004364 
L 312.914997 -63.004364 
L 311.974809 -63.004364 
L 311.03462 -63.004364 
L 310.094432 -63.004364 
L 309.154243 -63.004364 
L 308.214054 -63.004364 
L 307.273866 -63.004364 
L 306.333677 -63.004364 
L 305.393489 -63.004364 
L 304.4533 -63.004364 
L 303.513112 -63.004364 
L 302.572923 -63.004364 
L 301.632734 -63.004364 
L 300.692546 -63.004364 
L 299.752357 -63.004364 
L 298.812169 -63.004364 
L 297.87198 -63.004364 
L 296.931791 -63.004364 
L 295.991603 -63.004364 
L 295.051414 -63.004364 
L 294.111226 -63.004364 
L 293.171037 -63.004364 
L 292.230849 -63.004364 
L 291.29066 -63.004364 
L 290.350471 -63.004364 
L 289.410283 -63.004364 
L 288.470094 -63.004364 
L 287.529906 -63.004364 
L 286.589717 -63.004364 
L 285.649529 -63.004364 
L 284.70934 -63.004364 
L 283.769151 -63.004364 
L 282.828963 -63.004364 
L 281.888774 -63.004364 
L 280.948586 -63.004364 
L 280.008397 -63.004364 
L 279.068209 -63.004364 
L 278.12802 -63.004364 
L 277.187831 -63.004364 
L 276.247643 -63.004364 
L 275.307454 -63.004364 
L 274.367266 -63.004364 
L 273.427077 -63.004364 
L 272.486888 -63.004364 
L 271.5467 -63.004364 
L 270.606511 -63.004364 
L 269.666323 -63.004364 
L 268.726134 -63.004364 
L 267.785946 -63.004364 
L 266.845757 -63.004364 
L 265.905568 -63.004364 
L 264.96538 -63.004364 
L 264.025191 -63.004364 
L 263.085003 -63.004364 
L 262.144814 -63.004364 
L 261.204626 -63.004364 
L 260.264437 -63.004364 
L 259.324248 -63.004364 
L 258.38406 -63.004364 
L 257.443871 -63.004364 
L 256.503683 -63.004364 
L 255.563494 -63.004364 
L 254.623305 -63.004364 
L 253.683117 -63.004364 
L 252.742928 -63.004364 
L 251.80274 -63.004364 
L 250.862551 -63.004364 
L 249.922363 -63.004364 
L 248.982174 -63.004364 
L 248.041985 -63.004364 
L 247.101797 -63.004364 
L 246.161608 -63.004364 
L 245.22142 -63.004364 
L 244.281231 -63.004364 
L 243.341043 -63.004364 
L 242.400854 -63.004364 
L 241.460665 -63.004364 
L 240.520477 -63.004364 
L 239.580288 -63.004364 
L 238.6401 -63.004364 
L 237.699911 -63.004364 
L 236.759722 -63.004364 
L 235.819534 -63.004364 
L 234.879345 -63.004364 
L 233.939157 -63.004364 
L 232.998968 -63.004364 
L 232.05878 -63.004364 
L 231.118591 -63.004364 
L 230.178402 -63.004364 
L 229.238214 -63.004364 
L 228.298025 -63.004364 
L 227.357837 -63.004364 
L 226.417648 -63.004364 
L 225.47746 -63.004364 
L 224.537271 -63.004364 
L 223.597082 -63.004364 
L 222.656894 -63.004364 
L 221.716705 -63.004364 
L 220.776517 -63.004364 
L 219.836328 -63.004364 
L 218.896139 -63.004364 
L 217.955951 -63.004364 
L 217.015762 -63.004364 
L 216.075574 -63.004364 
L 215.135385 -63.004364 
L 214.195197 -63.004364 
L 213.255008 -63.004364 
L 212.314819 -63.004364 
L 211.374631 -63.004364 
L 210.434442 -63.004364 
L 209.494254 -63.004364 
L 208.554065 -63.004364 
L 207.613877 -63.004364 
L 206.673688 -63.004364 
L 205.733499 -63.004364 
L 204.793311 -63.004364 
L 203.853122 -63.004364 
L 202.912934 -63.004364 
L 201.972745 -63.004364 
L 201.032556 -63.004364 
L 200.092368 -63.004364 
L 199.152179 -63.004364 
L 198.211991 -63.004364 
L 197.271802 -63.004364 
L 196.331614 -63.004364 
L 195.391425 -63.004364 
L 194.451236 -63.004364 
L 193.511048 -63.004364 
L 192.570859 -63.004364 
L 191.630671 -63.004364 
L 190.690482 -63.004364 
L 189.750294 -63.004364 
L 188.810105 -63.004364 
L 187.869916 -63.004364 
L 186.929728 -63.004364 
L 185.989539 -63.004364 
L 185.049351 -63.004364 
L 184.109162 -63.004364 
L 183.168973 -63.004364 
L 182.228785 -63.004364 
L 181.288596 -63.004364 
L 180.348408 -63.004364 
L 179.408219 -63.004364 
L 178.468031 -63.004364 
L 177.527842 -63.004364 
L 176.587653 -63.004364 
L 175.647465 -63.004364 
L 174.707276 -63.004364 
L 173.767088 -63.004364 
L 172.826899 -63.004364 
L 171.886711 -63.004364 
L 170.946522 -63.004364 
L 170.006333 -63.004364 
L 169.066145 -63.004364 
L 168.125956 -63.004364 
L 167.185768 -63.004364 
L 166.245579 -63.004364 
L 165.30539 -63.004364 
L 164.365202 -63.004364 
L 163.425013 -63.004364 
L 162.484825 -63.004364 
L 161.544636 -63.004364 
L 160.604448 -63.004364 
L 159.664259 -63.004364 
L 158.72407 -63.004364 
L 157.783882 -63.004364 
L 156.843693 -63.004364 
L 155.903505 -63.004364 
L 154.963316 -63.004364 
L 154.023128 -63.004364 
L 153.082939 -63.004364 
L 152.14275 -63.004364 
L 151.202562 -63.004364 
L 150.262373 -63.004364 
L 149.322185 -63.004364 
L 148.381996 -63.004364 
L 147.441808 -63.004364 
L 146.501619 -63.004364 
L 145.56143 -63.004364 
L 144.621242 -63.004364 
L 143.681053 -63.004364 
L 142.740865 -63.004364 
L 141.800676 -63.004364 
L 140.860487 -63.004364 
L 139.920299 -63.004364 
L 138.98011 -63.004364 
L 138.039922 -63.004364 
L 137.099733 -63.004364 
L 136.159545 -63.004364 
L 135.219356 -63.004364 
L 134.279167 -63.004364 
L 133.338979 -63.004364 
L 132.39879 -63.004364 
L 131.458602 -63.004364 
L 130.518413 -63.004364 
L 129.578225 -63.004364 
L 128.638036 -63.004364 
L 127.697847 -63.004364 
L 126.757659 -63.004364 
L 125.81747 -63.004364 
L 124.877282 -63.004364 
L 123.937093 -63.004364 
L 122.996904 -63.004364 
L 122.056716 -63.004364 
L 121.116527 -63.004364 
L 120.176339 -63.004364 
L 119.23615 -63.004364 
L 118.295962 -63.004364 
L 117.355773 -63.004364 
L 116.415584 -63.004364 
L 115.475396 -63.004364 
L 114.535207 -63.004364 
L 113.595019 -63.004364 
L 112.65483 -63.004364 
L 111.714642 -63.004364 
L 110.774453 -63.004364 
L 109.834264 -63.004364 
L 108.894076 -63.004364 
L 107.953887 -63.004364 
L 107.013699 -63.004364 
L 106.07351 -63.004364 
L 105.133321 -63.004364 
L 104.193133 -63.004364 
L 103.252944 -63.004364 
L 102.312756 -63.004364 
L 101.372567 -63.004364 
L 100.432379 -63.004364 
L 99.49219 -63.004364 
L 98.552001 -63.004364 
L 97.611813 -63.004364 
L 96.671624 -63.004364 
L 95.731436 -63.004364 
L 94.791247 -63.004364 
L 93.851059 -63.004364 
L 92.91087 -63.004364 
L 91.970681 -63.004364 
L 91.030493 -63.004364 
L 90.090304 -63.004364 
L 89.150116 -63.004364 
L 88.209927 -63.004364 
L 87.269738 -63.004364 
L 86.32955 -63.004364 
L 85.389361 -63.004364 
L 84.449173 -63.004364 
L 83.508984 -63.004364 
L 82.568796 -63.004364 
L 81.628607 -63.004364 
L 80.688418 -63.004364 
L 79.74823 -63.004364 
L 78.808041 -63.004364 
L 77.867853 -63.004364 
L 76.927664 -63.004364 
L 75.987476 -63.004364 
L 75.047287 -63.004364 
L 74.107098 -63.004364 
L 73.16691 -63.004364 
L 72.226721 -63.004364 
L 71.286533 -63.004364 
L 70.346344 -63.004364 
L 69.406155 -63.004364 
L 68.465967 -63.004364 
L 67.525778 -63.004364 
L 66.58559 -63.004364 
L 65.645401 -63.004364 
L 64.705213 -63.004364 
L 63.765024 -63.004364 
L 62.824835 -63.004364 
L 61.884647 -63.004364 
L 60.944458 -63.004364 
L 60.00427 -63.004364 
L 59.064081 -63.004364 
L 58.123893 -63.004364 
L 57.183704 -63.004364 
L 56.243515 -63.004364 
L 55.303327 -63.004364 
L 54.363138 -63.004364 
L 53.42295 -63.004364 
L 52.482761 -63.004364 
L 51.542572 -63.004364 
L 50.602384 -63.004364 
L 49.662195 -63.004364 
L 48.722007 -63.004364 
L 47.781818 -63.004364 
z
"/>
    </defs>
    <g clip-path="url(#p7a73d6ead5)">
     <use xlink:href="#m78389a2613" x="0" y="432" style="fill: #51d7c1; fill-opacity: 0.6"/>
    </g>
   </g>
   <g id="line2d_22">
    <path d="M 47.781818 367.358925 
L 67.525778 367.321445 
L 73.16691 367.025705 
L 78.808041 366.458806 
L 84.449173 365.656676 
L 91.030493 364.50879 
L 97.611813 363.135142 
L 103.252944 361.682769 
L 107.013699 360.543728 
L 111.714642 358.838429 
L 115.475396 357.255366 
L 119.23615 355.456157 
L 122.056716 353.947801 
L 125.81747 351.686189 
L 129.578225 349.08892 
L 133.338979 346.152251 
L 136.159545 343.751975 
L 140.860487 339.361574 
L 145.56143 334.612162 
L 149.322185 330.507152 
L 153.082939 326.040387 
L 155.903505 322.307474 
L 158.72407 318.157993 
L 161.544636 313.587233 
L 164.365202 308.64107 
L 168.125956 301.567348 
L 175.647465 287.101439 
L 180.348408 278.526247 
L 187.869916 264.990881 
L 190.690482 259.529307 
L 194.451236 251.724721 
L 205.733499 227.305542 
L 208.554065 222.030958 
L 211.374631 217.329319 
L 213.255008 214.49337 
L 216.075574 210.588869 
L 220.776517 204.390123 
L 223.597082 200.34866 
L 225.47746 197.398329 
L 227.357837 194.133349 
L 229.238214 190.463708 
L 231.118591 186.445371 
L 233.939157 179.750325 
L 236.759722 172.29245 
L 240.520477 161.37026 
L 251.80274 127.554764 
L 254.623305 119.958262 
L 257.443871 112.91492 
L 260.264437 106.594985 
L 263.085003 100.925969 
L 265.905568 95.933514 
L 268.726134 91.604689 
L 271.5467 87.887097 
L 274.367266 84.7324 
L 277.187831 81.968157 
L 280.008397 79.533291 
L 283.769151 76.779656 
L 286.589717 75.000123 
L 289.410283 73.577758 
L 292.230849 72.564307 
L 294.111226 72.192714 
L 295.051414 72.108364 
L 296.931791 72.281087 
L 298.812169 72.783885 
L 300.692546 73.715795 
L 302.572923 75.019461 
L 304.4533 76.733788 
L 306.333677 78.794934 
L 309.154243 82.453378 
L 312.914997 87.979541 
L 328.898203 112.653622 
L 331.718769 117.421949 
L 333.599146 120.80887 
L 336.419712 126.376723 
L 339.240278 132.494887 
L 342.060843 139.069966 
L 356.163672 173.483392 
L 367.445935 199.304845 
L 370.266501 206.354951 
L 374.967444 218.810642 
L 385.309518 246.901362 
L 389.070272 256.23882 
L 391.890838 262.783727 
L 395.651592 270.875897 
L 399.412347 278.37613 
L 404.113289 287.078981 
L 408.814232 295.15918 
L 413.515175 302.677936 
L 418.216118 309.574775 
L 421.976872 314.5969 
L 425.737627 319.104945 
L 429.498381 323.141789 
L 433.259135 326.765135 
L 446.421775 338.306148 
L 453.003096 343.933744 
L 456.76385 346.857499 
L 459.584416 348.804183 
L 462.404981 350.499912 
L 466.165736 352.421542 
L 469.92649 353.972921 
L 474.627433 355.620937 
L 489.67045 360.415932 
L 500.012524 363.53165 
L 505.653656 365.012552 
L 510.354599 366.052938 
L 515.055542 366.842999 
L 519.756485 367.371177 
L 523.517239 367.617419 
L 528.218182 367.731627 
L 528.218182 367.731627 
" clip-path="url(#p7a73d6ead5)" style="fill: none; stroke: #51d7c1; stroke-width: 1.5; stroke-linecap: round"/>
   </g>
   <g id="line2d_23">
    <path d="M 173.425241 362.761004 
L 403.454166 362.761004 
" clip-path="url(#p7a73d6ead5)" style="fill: none; stroke: #51d7c1; stroke-width: 3.5; stroke-linecap: round"/>
   </g>
   <g id="patch_3">
    <path d="M 23.76 383.84 
L 552.24 383.84 
" style="fill: none; stroke: #333333; stroke-width: 1.5; stroke-linejoin: miter; stroke-linecap: square"/>
   </g>
   <g id="text_8">
    <!-- $x_3^4$ -->
    <g style="fill: #262626" transform="translate(272.46 49.144)">
     <text>
      <tspan x="0" y="-0.996875" style="font-style: oblique; font-size: 28px; font-family: 'DejaVu Sans'; fill: #262626">x</tspan>
      <tspan x="16.570312" y="6.659375" style="font-size: 19.6px; font-family: 'DejaVu Sans'; fill: #262626">3</tspan>
      <tspan x="17.820833" y="-11.715625" style="font-size: 19.6px; font-family: 'DejaVu Sans'; fill: #262626">4</tspan>
     </text>
    </g>
   </g>
  </g>
 </g>
 <defs>
  <clipPath id="p7a73d6ead5">
   <rect x="23.76" y="57.264" width="528.48" height="326.576"/>
  </clipPath>
 </defs>
</svg>
