<?xml version="1.0" encoding="utf-8" standalone="no"?>
<!DOCTYPE svg PUBLIC "-//W3C//DTD SVG 1.1//EN"
  "http://www.w3.org/Graphics/SVG/1.1/DTD/svg11.dtd">
<svg xmlns:xlink="http://www.w3.org/1999/xlink" width="648pt" height="504pt" viewBox="0 0 648 504" xmlns="http://www.w3.org/2000/svg" version="1.1">
 <metadata>
  <rdf:RDF xmlns:dc="http://purl.org/dc/elements/1.1/" xmlns:cc="http://creativecommons.org/ns#" xmlns:rdf="http://www.w3.org/1999/02/22-rdf-syntax-ns#">
   <cc:Work>
    <dc:type rdf:resource="http://purl.org/dc/dcmitype/StillImage"/>
    <dc:date>2026-02-22T16:15:35.307553</dc:date>
    <dc:format>image/svg+xml</dc:format>
    <dc:creator>
     <cc:Agent>
      <dc:title>Matplotlib v3.10.6, https://matplotlib.org/</dc:title>
     </cc:Agent>
    </dc:creator>
   </cc:Work>
  </rdf:RDF>
 </metadata>
 <defs>
  <style type="text/css">*{stroke-linejoin: round; stroke-linecap: butt}</style>
 </defs>
 <g id="figure_1">
  <g id="patch_1">
   <path d="M 0 504 
L 648 504 
L 648 0 
L 0 0 
L 0 504 
z
" style="fill: none; opacity: 0"/>
  </g>
  <g id="axes_1">
   <g id="patch_2">
    <path d="M 25.92 420.8 
L 600.410268 420.8 
L 600.410268 99.6 
L 25.92 99.6 
L 25.92 420.8 
z
" style="fill: none"/>
   </g>
   <g id="matplotlib.axis_1">
    <g id="xtick_1">
     <g id="line2d_1">
      <path d="M 170.540771 420.8 
L 170.540771 99.6 
" clip-path="url(#p125f63bd9c)" style="fill: none; stroke: #ffffff; stroke-opacity: 0.4; stroke-linecap: round"/>
     </g>
     <g id="line2d_2"/>
     <g id="text_1">
      <text style="font-size: 52px; font-family: 'DejaVu Serif', 'Times New Roman', serif; text-anchor: middle; fill: #262626" x="170.540771" y="467.311875" transform="rotate(-0 170.540771 467.311875)">0.645</text>
     </g>
    </g>
    <g id="xtick_2">
     <g id="line2d_3">
      <path d="M 355.28946 420.8 
L 355.28946 99.6 
" clip-path="url(#p125f63bd9c)" style="fill: none; stroke: #ffffff; stroke-opacity: 0.4; stroke-linecap: round"/>
     </g>
     <g id="line2d_4"/>
     <g id="text_2">
      <text style="font-size: 52px; font-family: 'DejaVu Serif', 'Times New Roman', serif; text-anchor: middle; fill: #262626" x="355.28946" y="467.311875" transform="rotate(-0 355.28946 467.311875)">0.650</text>
     </g>
    </g>
    <g id="xtick_3">
     <g id="line2d_5">
      <path d="M 540.03815 420.8 
L 540.03815 99.6 
" clip-path="url(#p125f63bd9c)" style="fill: none; stroke: #ffffff; stroke-opacity: 0.4; stroke-linecap: round"/>
     </g>
     <g id="line2d_6"/>
     <g id="text_3">
      <text style="font-size: 52px; font-family: 'DejaVu Serif', 'Times New Roman', serif; text-anchor: middle; fill: #262626" x="540.03815" y="467.311875" transform="rotate(-0 540.03815 467.311875)">0.655</text>
     </g>
    </g>
   </g>
   <g id="matplotlib.axis_2"/>
   <g id="FillBetweenPolyCollection_1">
    <defs>
     <path id="me78b873386" d="M 52.033194 -99.00773 
L 52.033194 -219.780689 
L 53.055237 -219.807085 
L 54.07728 -219.841291 
L 55.099322 -219.914754 
L 56.121365 -220.02974 
L 57.143408 -220.147265 
L 58.165451 -220.281752 
L 59.187494 -220.460871 
L 60.209537 -220.649516 
L 61.231579 -220.861133 
L 62.253622 -221.09207 
L 63.275665 -221.378514 
L 64.297708 -221.674409 
L 65.319751 -221.99803 
L 66.341793 -222.333786 
L 67.363836 -222.675206 
L 68.385879 -223.058532 
L 69.407922 -223.438233 
L 70.429965 -223.850213 
L 71.452008 -224.290592 
L 72.47405 -224.729042 
L 73.496093 -225.191045 
L 74.518136 -225.671699 
L 75.540179 -226.171487 
L 76.562222 -226.696959 
L 77.584264 -227.243776 
L 78.606307 -227.808956 
L 79.62835 -228.369926 
L 80.650393 -228.931479 
L 81.672436 -229.504475 
L 82.694479 -230.12048 
L 83.716521 -230.716307 
L 84.738564 -231.334762 
L 85.760607 -231.978246 
L 86.78265 -232.628666 
L 87.804693 -233.267492 
L 88.826735 -233.925589 
L 89.848778 -234.568602 
L 90.870821 -235.212209 
L 91.892864 -235.890822 
L 92.914907 -236.566557 
L 93.93695 -237.235148 
L 94.958992 -237.91985 
L 95.981035 -238.575066 
L 97.003078 -239.264903 
L 98.025121 -239.930493 
L 99.047164 -240.605713 
L 100.069206 -241.276699 
L 101.091249 -241.943401 
L 102.113292 -242.614635 
L 103.135335 -243.280779 
L 104.157378 -243.944748 
L 105.179421 -244.607368 
L 106.201463 -245.261973 
L 107.223506 -245.924324 
L 108.245549 -246.587519 
L 109.267592 -247.252101 
L 110.289635 -247.900385 
L 111.311678 -248.531608 
L 112.33372 -249.177884 
L 113.355763 -249.835366 
L 114.377806 -250.480157 
L 115.399849 -251.122802 
L 116.421892 -251.756832 
L 117.443934 -252.381776 
L 118.465977 -253.02277 
L 119.48802 -253.651679 
L 120.510063 -254.290768 
L 121.532106 -254.926838 
L 122.554149 -255.555286 
L 123.576191 -256.189116 
L 124.598234 -256.839015 
L 125.620277 -257.488666 
L 126.64232 -258.131427 
L 127.664363 -258.778851 
L 128.686405 -259.463208 
L 129.708448 -260.133023 
L 130.730491 -260.817029 
L 131.752534 -261.50346 
L 132.774577 -262.189313 
L 133.79662 -262.905971 
L 134.818662 -263.607821 
L 135.840705 -264.327676 
L 136.862748 -265.046603 
L 137.884791 -265.794259 
L 138.906834 -266.553673 
L 139.928876 -267.343229 
L 140.950919 -268.118487 
L 141.972962 -268.906903 
L 142.995005 -269.709541 
L 144.017048 -270.542337 
L 145.039091 -271.386205 
L 146.061133 -272.22111 
L 147.083176 -273.104153 
L 148.105219 -273.992242 
L 149.127262 -274.873211 
L 150.149305 -275.762179 
L 151.171347 -276.712967 
L 152.19339 -277.655242 
L 153.215433 -278.588476 
L 154.237476 -279.556032 
L 155.259519 -280.544726 
L 156.281562 -281.562594 
L 157.303604 -282.567343 
L 158.325647 -283.581685 
L 159.34769 -284.610342 
L 160.369733 -285.660181 
L 161.391776 -286.709015 
L 162.413818 -287.758226 
L 163.435861 -288.837942 
L 164.457904 -289.922195 
L 165.479947 -291.019693 
L 166.50199 -292.13032 
L 167.524033 -293.278825 
L 168.546075 -294.410268 
L 169.568118 -295.547281 
L 170.590161 -296.691737 
L 171.612204 -297.854563 
L 172.634247 -299.021167 
L 173.656289 -300.187929 
L 174.678332 -301.361724 
L 175.700375 -302.548596 
L 176.722418 -303.744131 
L 177.744461 -304.940307 
L 178.766504 -306.172657 
L 179.788546 -307.362119 
L 180.810589 -308.563047 
L 181.832632 -309.779608 
L 182.854675 -310.998666 
L 183.876718 -312.220038 
L 184.89876 -313.440962 
L 185.920803 -314.660364 
L 186.942846 -315.874313 
L 187.964889 -317.099508 
L 188.986932 -318.334637 
L 190.008975 -319.577218 
L 191.031017 -320.812118 
L 192.05306 -322.050183 
L 193.075103 -323.299035 
L 194.097146 -324.516772 
L 195.119189 -325.750829 
L 196.141231 -327.014298 
L 197.163274 -328.244661 
L 198.185317 -329.489868 
L 199.20736 -330.726815 
L 200.229403 -331.985142 
L 201.251446 -333.243792 
L 202.273488 -334.490111 
L 203.295531 -335.739962 
L 204.317574 -337.000361 
L 205.339617 -338.271534 
L 206.36166 -339.515183 
L 207.383702 -340.764487 
L 208.405745 -342.006274 
L 209.427788 -343.247742 
L 210.449831 -344.484405 
L 211.471874 -345.739994 
L 212.493917 -346.973319 
L 213.515959 -348.2003 
L 214.538002 -349.417784 
L 215.560045 -350.617555 
L 216.582088 -351.794434 
L 217.604131 -353.006441 
L 218.626173 -354.217161 
L 219.648216 -355.380331 
L 220.670259 -356.548645 
L 221.692302 -357.700289 
L 222.714345 -358.859329 
L 223.736388 -359.965244 
L 224.75843 -361.084755 
L 225.780473 -362.18092 
L 226.802516 -363.253374 
L 227.824559 -364.321096 
L 228.846602 -365.372821 
L 229.868644 -366.381813 
L 230.890687 -367.374796 
L 231.91273 -368.334347 
L 232.934773 -369.291526 
L 233.956816 -370.231536 
L 234.978859 -371.125507 
L 236.000901 -371.990334 
L 237.022944 -372.830001 
L 238.044987 -373.633935 
L 239.06703 -374.380119 
L 240.089073 -375.124175 
L 241.111115 -375.844293 
L 242.133158 -376.520162 
L 243.155201 -377.142424 
L 244.177244 -377.751422 
L 245.199287 -378.325296 
L 246.22133 -378.880262 
L 247.243372 -379.386032 
L 248.265415 -379.879159 
L 249.287458 -380.304435 
L 250.309501 -380.709493 
L 251.331544 -381.112696 
L 252.353586 -381.429782 
L 253.375629 -381.74446 
L 254.397672 -382.019438 
L 255.419715 -382.269012 
L 256.441758 -382.497076 
L 257.463801 -382.683351 
L 258.485843 -382.842863 
L 259.507886 -382.9834 
L 260.529929 -383.104498 
L 261.551972 -383.204547 
L 262.574015 -383.288071 
L 263.596057 -383.325603 
L 264.6181 -383.377154 
L 265.640143 -383.395063 
L 266.662186 -383.397723 
L 267.684229 -383.382135 
L 268.706272 -383.382999 
L 269.728314 -383.347521 
L 270.750357 -383.330868 
L 271.7724 -383.317066 
L 272.794443 -383.284582 
L 273.816486 -383.226944 
L 274.838528 -383.182823 
L 275.860571 -383.14717 
L 276.882614 -383.121851 
L 277.904657 -383.136789 
L 278.9267 -383.126009 
L 279.948743 -383.125729 
L 280.970785 -383.152874 
L 281.992828 -383.152609 
L 283.014871 -383.184064 
L 284.036914 -383.252548 
L 285.058957 -383.304215 
L 286.081 -383.362173 
L 287.103042 -383.450148 
L 288.125085 -383.544886 
L 289.147128 -383.637138 
L 290.169171 -383.768444 
L 291.191214 -383.897233 
L 292.213256 -384.0515 
L 293.235299 -384.227117 
L 294.257342 -384.399212 
L 295.279385 -384.621797 
L 296.301428 -384.833819 
L 297.323471 -385.036851 
L 298.345513 -385.244396 
L 299.367556 -385.484908 
L 300.389599 -385.70702 
L 301.411642 -385.963643 
L 302.433685 -386.214553 
L 303.455727 -386.461638 
L 304.47777 -386.716796 
L 305.499813 -386.944915 
L 306.521856 -387.209146 
L 307.543899 -387.453338 
L 308.565942 -387.680459 
L 309.587984 -387.927224 
L 310.610027 -388.144596 
L 311.63207 -388.352312 
L 312.654113 -388.544887 
L 313.676156 -388.749442 
L 314.698198 -388.922454 
L 315.720241 -389.110635 
L 316.742284 -389.260364 
L 317.764327 -389.40199 
L 318.78637 -389.521371 
L 319.808413 -389.630073 
L 320.830455 -389.689568 
L 321.852498 -389.752534 
L 322.874541 -389.8 
L 323.896584 -389.792454 
L 324.918627 -389.779595 
L 325.940669 -389.732475 
L 326.962712 -389.668494 
L 327.984755 -389.569178 
L 329.006798 -389.443853 
L 330.028841 -389.329107 
L 331.050884 -389.180495 
L 332.072926 -389.009643 
L 333.094969 -388.820513 
L 334.117012 -388.584201 
L 335.139055 -388.312562 
L 336.161098 -388.030078 
L 337.18314 -387.727787 
L 338.205183 -387.402015 
L 339.227226 -387.026874 
L 340.249269 -386.664224 
L 341.271312 -386.279291 
L 342.293355 -385.878527 
L 343.315397 -385.43502 
L 344.33744 -384.9861 
L 345.359483 -384.523754 
L 346.381526 -384.040906 
L 347.403569 -383.548365 
L 348.425611 -383.037182 
L 349.447654 -382.496852 
L 350.469697 -381.931581 
L 351.49174 -381.382769 
L 352.513783 -380.792712 
L 353.535826 -380.192676 
L 354.557868 -379.577702 
L 355.579911 -378.968462 
L 356.601954 -378.333609 
L 357.623997 -377.696651 
L 358.64604 -377.032425 
L 359.668082 -376.396468 
L 360.690125 -375.714028 
L 361.712168 -374.99683 
L 362.734211 -374.267909 
L 363.756254 -373.543787 
L 364.778297 -372.805981 
L 365.800339 -372.070487 
L 366.822382 -371.319148 
L 367.844425 -370.560061 
L 368.866468 -369.806305 
L 369.888511 -369.013532 
L 370.910553 -368.232608 
L 371.932596 -367.412607 
L 372.954639 -366.612957 
L 373.976682 -365.784709 
L 374.998725 -364.948607 
L 376.020768 -364.111194 
L 377.04281 -363.268152 
L 378.064853 -362.386523 
L 379.086896 -361.483044 
L 380.108939 -360.593545 
L 381.130982 -359.6929 
L 382.153024 -358.785773 
L 383.175067 -357.838261 
L 384.19711 -356.913631 
L 385.219153 -355.970289 
L 386.241196 -355.021799 
L 387.263239 -354.054179 
L 388.285281 -353.110309 
L 389.307324 -352.115254 
L 390.329367 -351.156287 
L 391.35141 -350.162205 
L 392.373453 -349.171116 
L 393.395495 -348.157833 
L 394.417538 -347.137763 
L 395.439581 -346.125038 
L 396.461624 -345.088451 
L 397.483667 -344.031522 
L 398.50571 -343.000738 
L 399.527752 -341.986904 
L 400.549795 -340.951342 
L 401.571838 -339.894627 
L 402.593881 -338.830469 
L 403.615924 -337.761937 
L 404.637966 -336.707173 
L 405.660009 -335.661858 
L 406.682052 -334.565263 
L 407.704095 -333.488282 
L 408.726138 -332.402988 
L 409.748181 -331.343928 
L 410.770223 -330.279736 
L 411.792266 -329.188008 
L 412.814309 -328.119775 
L 413.836352 -327.040234 
L 414.858395 -325.967281 
L 415.880437 -324.878948 
L 416.90248 -323.791666 
L 417.924523 -322.726383 
L 418.946566 -321.65598 
L 419.968609 -320.569011 
L 420.990652 -319.476656 
L 422.012694 -318.389579 
L 423.034737 -317.285923 
L 424.05678 -316.213109 
L 425.078823 -315.105665 
L 426.100866 -314.021137 
L 427.122908 -312.917044 
L 428.144951 -311.803984 
L 429.166994 -310.662041 
L 430.189037 -309.538745 
L 431.21108 -308.423456 
L 432.233123 -307.296866 
L 433.255165 -306.172422 
L 434.277208 -305.046881 
L 435.299251 -303.893995 
L 436.321294 -302.7423 
L 437.343337 -301.568465 
L 438.365379 -300.370148 
L 439.387422 -299.171594 
L 440.409465 -297.971523 
L 441.431508 -296.759088 
L 442.453551 -295.568136 
L 443.475594 -294.350107 
L 444.497636 -293.099417 
L 445.519679 -291.867864 
L 446.541722 -290.640578 
L 447.563765 -289.372076 
L 448.585808 -288.107588 
L 449.607851 -286.830427 
L 450.629893 -285.523061 
L 451.651936 -284.223849 
L 452.673979 -282.899131 
L 453.696022 -281.5699 
L 454.718065 -280.243438 
L 455.740107 -278.904123 
L 456.76215 -277.57279 
L 457.784193 -276.233838 
L 458.806236 -274.894987 
L 459.828279 -273.528444 
L 460.850322 -272.166147 
L 461.872364 -270.801535 
L 462.894407 -269.435415 
L 463.91645 -268.078338 
L 464.938493 -266.721147 
L 465.960536 -265.368081 
L 466.982578 -264.016954 
L 468.004621 -262.663199 
L 469.026664 -261.320742 
L 470.048707 -259.974682 
L 471.07075 -258.663301 
L 472.092793 -257.306743 
L 473.114835 -255.986094 
L 474.136878 -254.664081 
L 475.158921 -253.365429 
L 476.180964 -252.030601 
L 477.203007 -250.726086 
L 478.225049 -249.453849 
L 479.247092 -248.196227 
L 480.269135 -246.946117 
L 481.291178 -245.717448 
L 482.313221 -244.477141 
L 483.335264 -243.278271 
L 484.357306 -242.100199 
L 485.379349 -240.91626 
L 486.401392 -239.767661 
L 487.423435 -238.610125 
L 488.445478 -237.464814 
L 489.46752 -236.340493 
L 490.489563 -235.224135 
L 491.511606 -234.127374 
L 492.533649 -233.04351 
L 493.555692 -231.961231 
L 494.577735 -230.933974 
L 495.599777 -229.929568 
L 496.62182 -228.905782 
L 497.643863 -227.904507 
L 498.665906 -226.922618 
L 499.687949 -225.945622 
L 500.709991 -224.975957 
L 501.732034 -224.003027 
L 502.754077 -223.045375 
L 503.77612 -222.116211 
L 504.798163 -221.193598 
L 505.820206 -220.29096 
L 506.842248 -219.394246 
L 507.864291 -218.492191 
L 508.886334 -217.591274 
L 509.908377 -216.691855 
L 510.93042 -215.816911 
L 511.952462 -214.932484 
L 512.974505 -214.065733 
L 513.996548 -213.204947 
L 515.018591 -212.373855 
L 516.040634 -211.521431 
L 517.062677 -210.68007 
L 518.084719 -209.845168 
L 519.106762 -209.03333 
L 520.128805 -208.193655 
L 521.150848 -207.381248 
L 522.172891 -206.59262 
L 523.194933 -205.820473 
L 524.216976 -205.034156 
L 525.239019 -204.249168 
L 526.261062 -203.460235 
L 527.283105 -202.694338 
L 528.305148 -201.943724 
L 529.32719 -201.191898 
L 530.349233 -200.463261 
L 531.371276 -199.721961 
L 532.393319 -199.005679 
L 533.415362 -198.303084 
L 534.437404 -197.622512 
L 535.459447 -196.950426 
L 536.48149 -196.280136 
L 537.503533 -195.625506 
L 538.525576 -194.987457 
L 539.547619 -194.35268 
L 540.569661 -193.751944 
L 541.591704 -193.15947 
L 542.613747 -192.572449 
L 543.63579 -192.028909 
L 544.657833 -191.482804 
L 545.679875 -190.958371 
L 546.701918 -190.451808 
L 547.723961 -189.980858 
L 548.746004 -189.488338 
L 549.768047 -189.049241 
L 550.79009 -188.614234 
L 551.812132 -188.198066 
L 552.834175 -187.810491 
L 553.856218 -187.447553 
L 554.878261 -187.085052 
L 555.900304 -186.743622 
L 556.922346 -186.444758 
L 557.944389 -186.174867 
L 558.966432 -185.894132 
L 559.988475 -185.617134 
L 561.010518 -185.365794 
L 562.032561 -185.142258 
L 563.054603 -184.942315 
L 564.076646 -184.76226 
L 565.098689 -184.582219 
L 566.120732 -184.414659 
L 567.142775 -184.282356 
L 568.164817 -184.16927 
L 569.18686 -184.076224 
L 570.208903 -183.979268 
L 571.230946 -183.913107 
L 572.252989 -183.871634 
L 573.275032 -183.832902 
L 574.297074 -183.802848 
L 574.297074 -99.00773 
L 574.297074 -99.00773 
L 573.275032 -99.00773 
L 572.252989 -99.00773 
L 571.230946 -99.00773 
L 570.208903 -99.00773 
L 569.18686 -99.00773 
L 568.164817 -99.00773 
L 567.142775 -99.00773 
L 566.120732 -99.00773 
L 565.098689 -99.00773 
L 564.076646 -99.00773 
L 563.054603 -99.00773 
L 562.032561 -99.00773 
L 561.010518 -99.00773 
L 559.988475 -99.00773 
L 558.966432 -99.00773 
L 557.944389 -99.00773 
L 556.922346 -99.00773 
L 555.900304 -99.00773 
L 554.878261 -99.00773 
L 553.856218 -99.00773 
L 552.834175 -99.00773 
L 551.812132 -99.00773 
L 550.79009 -99.00773 
L 549.768047 -99.00773 
L 548.746004 -99.00773 
L 547.723961 -99.00773 
L 546.701918 -99.00773 
L 545.679875 -99.00773 
L 544.657833 -99.00773 
L 543.63579 -99.00773 
L 542.613747 -99.00773 
L 541.591704 -99.00773 
L 540.569661 -99.00773 
L 539.547619 -99.00773 
L 538.525576 -99.00773 
L 537.503533 -99.00773 
L 536.48149 -99.00773 
L 535.459447 -99.00773 
L 534.437404 -99.00773 
L 533.415362 -99.00773 
L 532.393319 -99.00773 
L 531.371276 -99.00773 
L 530.349233 -99.00773 
L 529.32719 -99.00773 
L 528.305148 -99.00773 
L 527.283105 -99.00773 
L 526.261062 -99.00773 
L 525.239019 -99.00773 
L 524.216976 -99.00773 
L 523.194933 -99.00773 
L 522.172891 -99.00773 
L 521.150848 -99.00773 
L 520.128805 -99.00773 
L 519.106762 -99.00773 
L 518.084719 -99.00773 
L 517.062677 -99.00773 
L 516.040634 -99.00773 
L 515.018591 -99.00773 
L 513.996548 -99.00773 
L 512.974505 -99.00773 
L 511.952462 -99.00773 
L 510.93042 -99.00773 
L 509.908377 -99.00773 
L 508.886334 -99.00773 
L 507.864291 -99.00773 
L 506.842248 -99.00773 
L 505.820206 -99.00773 
L 504.798163 -99.00773 
L 503.77612 -99.00773 
L 502.754077 -99.00773 
L 501.732034 -99.00773 
L 500.709991 -99.00773 
L 499.687949 -99.00773 
L 498.665906 -99.00773 
L 497.643863 -99.00773 
L 496.62182 -99.00773 
L 495.599777 -99.00773 
L 494.577735 -99.00773 
L 493.555692 -99.00773 
L 492.533649 -99.00773 
L 491.511606 -99.00773 
L 490.489563 -99.00773 
L 489.46752 -99.00773 
L 488.445478 -99.00773 
L 487.423435 -99.00773 
L 486.401392 -99.00773 
L 485.379349 -99.00773 
L 484.357306 -99.00773 
L 483.335264 -99.00773 
L 482.313221 -99.00773 
L 481.291178 -99.00773 
L 480.269135 -99.00773 
L 479.247092 -99.00773 
L 478.225049 -99.00773 
L 477.203007 -99.00773 
L 476.180964 -99.00773 
L 475.158921 -99.00773 
L 474.136878 -99.00773 
L 473.114835 -99.00773 
L 472.092793 -99.00773 
L 471.07075 -99.00773 
L 470.048707 -99.00773 
L 469.026664 -99.00773 
L 468.004621 -99.00773 
L 466.982578 -99.00773 
L 465.960536 -99.00773 
L 464.938493 -99.00773 
L 463.91645 -99.00773 
L 462.894407 -99.00773 
L 461.872364 -99.00773 
L 460.850322 -99.00773 
L 459.828279 -99.00773 
L 458.806236 -99.00773 
L 457.784193 -99.00773 
L 456.76215 -99.00773 
L 455.740107 -99.00773 
L 454.718065 -99.00773 
L 453.696022 -99.00773 
L 452.673979 -99.00773 
L 451.651936 -99.00773 
L 450.629893 -99.00773 
L 449.607851 -99.00773 
L 448.585808 -99.00773 
L 447.563765 -99.00773 
L 446.541722 -99.00773 
L 445.519679 -99.00773 
L 444.497636 -99.00773 
L 443.475594 -99.00773 
L 442.453551 -99.00773 
L 441.431508 -99.00773 
L 440.409465 -99.00773 
L 439.387422 -99.00773 
L 438.365379 -99.00773 
L 437.343337 -99.00773 
L 436.321294 -99.00773 
L 435.299251 -99.00773 
L 434.277208 -99.00773 
L 433.255165 -99.00773 
L 432.233123 -99.00773 
L 431.21108 -99.00773 
L 430.189037 -99.00773 
L 429.166994 -99.00773 
L 428.144951 -99.00773 
L 427.122908 -99.00773 
L 426.100866 -99.00773 
L 425.078823 -99.00773 
L 424.05678 -99.00773 
L 423.034737 -99.00773 
L 422.012694 -99.00773 
L 420.990652 -99.00773 
L 419.968609 -99.00773 
L 418.946566 -99.00773 
L 417.924523 -99.00773 
L 416.90248 -99.00773 
L 415.880437 -99.00773 
L 414.858395 -99.00773 
L 413.836352 -99.00773 
L 412.814309 -99.00773 
L 411.792266 -99.00773 
L 410.770223 -99.00773 
L 409.748181 -99.00773 
L 408.726138 -99.00773 
L 407.704095 -99.00773 
L 406.682052 -99.00773 
L 405.660009 -99.00773 
L 404.637966 -99.00773 
L 403.615924 -99.00773 
L 402.593881 -99.00773 
L 401.571838 -99.00773 
L 400.549795 -99.00773 
L 399.527752 -99.00773 
L 398.50571 -99.00773 
L 397.483667 -99.00773 
L 396.461624 -99.00773 
L 395.439581 -99.00773 
L 394.417538 -99.00773 
L 393.395495 -99.00773 
L 392.373453 -99.00773 
L 391.35141 -99.00773 
L 390.329367 -99.00773 
L 389.307324 -99.00773 
L 388.285281 -99.00773 
L 387.263239 -99.00773 
L 386.241196 -99.00773 
L 385.219153 -99.00773 
L 384.19711 -99.00773 
L 383.175067 -99.00773 
L 382.153024 -99.00773 
L 381.130982 -99.00773 
L 380.108939 -99.00773 
L 379.086896 -99.00773 
L 378.064853 -99.00773 
L 377.04281 -99.00773 
L 376.020768 -99.00773 
L 374.998725 -99.00773 
L 373.976682 -99.00773 
L 372.954639 -99.00773 
L 371.932596 -99.00773 
L 370.910553 -99.00773 
L 369.888511 -99.00773 
L 368.866468 -99.00773 
L 367.844425 -99.00773 
L 366.822382 -99.00773 
L 365.800339 -99.00773 
L 364.778297 -99.00773 
L 363.756254 -99.00773 
L 362.734211 -99.00773 
L 361.712168 -99.00773 
L 360.690125 -99.00773 
L 359.668082 -99.00773 
L 358.64604 -99.00773 
L 357.623997 -99.00773 
L 356.601954 -99.00773 
L 355.579911 -99.00773 
L 354.557868 -99.00773 
L 353.535826 -99.00773 
L 352.513783 -99.00773 
L 351.49174 -99.00773 
L 350.469697 -99.00773 
L 349.447654 -99.00773 
L 348.425611 -99.00773 
L 347.403569 -99.00773 
L 346.381526 -99.00773 
L 345.359483 -99.00773 
L 344.33744 -99.00773 
L 343.315397 -99.00773 
L 342.293355 -99.00773 
L 341.271312 -99.00773 
L 340.249269 -99.00773 
L 339.227226 -99.00773 
L 338.205183 -99.00773 
L 337.18314 -99.00773 
L 336.161098 -99.00773 
L 335.139055 -99.00773 
L 334.117012 -99.00773 
L 333.094969 -99.00773 
L 332.072926 -99.00773 
L 331.050884 -99.00773 
L 330.028841 -99.00773 
L 329.006798 -99.00773 
L 327.984755 -99.00773 
L 326.962712 -99.00773 
L 325.940669 -99.00773 
L 324.918627 -99.00773 
L 323.896584 -99.00773 
L 322.874541 -99.00773 
L 321.852498 -99.00773 
L 320.830455 -99.00773 
L 319.808413 -99.00773 
L 318.78637 -99.00773 
L 317.764327 -99.00773 
L 316.742284 -99.00773 
L 315.720241 -99.00773 
L 314.698198 -99.00773 
L 313.676156 -99.00773 
L 312.654113 -99.00773 
L 311.63207 -99.00773 
L 310.610027 -99.00773 
L 309.587984 -99.00773 
L 308.565942 -99.00773 
L 307.543899 -99.00773 
L 306.521856 -99.00773 
L 305.499813 -99.00773 
L 304.47777 -99.00773 
L 303.455727 -99.00773 
L 302.433685 -99.00773 
L 301.411642 -99.00773 
L 300.389599 -99.00773 
L 299.367556 -99.00773 
L 298.345513 -99.00773 
L 297.323471 -99.00773 
L 296.301428 -99.00773 
L 295.279385 -99.00773 
L 294.257342 -99.00773 
L 293.235299 -99.00773 
L 292.213256 -99.00773 
L 291.191214 -99.00773 
L 290.169171 -99.00773 
L 289.147128 -99.00773 
L 288.125085 -99.00773 
L 287.103042 -99.00773 
L 286.081 -99.00773 
L 285.058957 -99.00773 
L 284.036914 -99.00773 
L 283.014871 -99.00773 
L 281.992828 -99.00773 
L 280.970785 -99.00773 
L 279.948743 -99.00773 
L 278.9267 -99.00773 
L 277.904657 -99.00773 
L 276.882614 -99.00773 
L 275.860571 -99.00773 
L 274.838528 -99.00773 
L 273.816486 -99.00773 
L 272.794443 -99.00773 
L 271.7724 -99.00773 
L 270.750357 -99.00773 
L 269.728314 -99.00773 
L 268.706272 -99.00773 
L 267.684229 -99.00773 
L 266.662186 -99.00773 
L 265.640143 -99.00773 
L 264.6181 -99.00773 
L 263.596057 -99.00773 
L 262.574015 -99.00773 
L 261.551972 -99.00773 
L 260.529929 -99.00773 
L 259.507886 -99.00773 
L 258.485843 -99.00773 
L 257.463801 -99.00773 
L 256.441758 -99.00773 
L 255.419715 -99.00773 
L 254.397672 -99.00773 
L 253.375629 -99.00773 
L 252.353586 -99.00773 
L 251.331544 -99.00773 
L 250.309501 -99.00773 
L 249.287458 -99.00773 
L 248.265415 -99.00773 
L 247.243372 -99.00773 
L 246.22133 -99.00773 
L 245.199287 -99.00773 
L 244.177244 -99.00773 
L 243.155201 -99.00773 
L 242.133158 -99.00773 
L 241.111115 -99.00773 
L 240.089073 -99.00773 
L 239.06703 -99.00773 
L 238.044987 -99.00773 
L 237.022944 -99.00773 
L 236.000901 -99.00773 
L 234.978859 -99.00773 
L 233.956816 -99.00773 
L 232.934773 -99.00773 
L 231.91273 -99.00773 
L 230.890687 -99.00773 
L 229.868644 -99.00773 
L 228.846602 -99.00773 
L 227.824559 -99.00773 
L 226.802516 -99.00773 
L 225.780473 -99.00773 
L 224.75843 -99.00773 
L 223.736388 -99.00773 
L 222.714345 -99.00773 
L 221.692302 -99.00773 
L 220.670259 -99.00773 
L 219.648216 -99.00773 
L 218.626173 -99.00773 
L 217.604131 -99.00773 
L 216.582088 -99.00773 
L 215.560045 -99.00773 
L 214.538002 -99.00773 
L 213.515959 -99.00773 
L 212.493917 -99.00773 
L 211.471874 -99.00773 
L 210.449831 -99.00773 
L 209.427788 -99.00773 
L 208.405745 -99.00773 
L 207.383702 -99.00773 
L 206.36166 -99.00773 
L 205.339617 -99.00773 
L 204.317574 -99.00773 
L 203.295531 -99.00773 
L 202.273488 -99.00773 
L 201.251446 -99.00773 
L 200.229403 -99.00773 
L 199.20736 -99.00773 
L 198.185317 -99.00773 
L 197.163274 -99.00773 
L 196.141231 -99.00773 
L 195.119189 -99.00773 
L 194.097146 -99.00773 
L 193.075103 -99.00773 
L 192.05306 -99.00773 
L 191.031017 -99.00773 
L 190.008975 -99.00773 
L 188.986932 -99.00773 
L 187.964889 -99.00773 
L 186.942846 -99.00773 
L 185.920803 -99.00773 
L 184.89876 -99.00773 
L 183.876718 -99.00773 
L 182.854675 -99.00773 
L 181.832632 -99.00773 
L 180.810589 -99.00773 
L 179.788546 -99.00773 
L 178.766504 -99.00773 
L 177.744461 -99.00773 
L 176.722418 -99.00773 
L 175.700375 -99.00773 
L 174.678332 -99.00773 
L 173.656289 -99.00773 
L 172.634247 -99.00773 
L 171.612204 -99.00773 
L 170.590161 -99.00773 
L 169.568118 -99.00773 
L 168.546075 -99.00773 
L 167.524033 -99.00773 
L 166.50199 -99.00773 
L 165.479947 -99.00773 
L 164.457904 -99.00773 
L 163.435861 -99.00773 
L 162.413818 -99.00773 
L 161.391776 -99.00773 
L 160.369733 -99.00773 
L 159.34769 -99.00773 
L 158.325647 -99.00773 
L 157.303604 -99.00773 
L 156.281562 -99.00773 
L 155.259519 -99.00773 
L 154.237476 -99.00773 
L 153.215433 -99.00773 
L 152.19339 -99.00773 
L 151.171347 -99.00773 
L 150.149305 -99.00773 
L 149.127262 -99.00773 
L 148.105219 -99.00773 
L 147.083176 -99.00773 
L 146.061133 -99.00773 
L 145.039091 -99.00773 
L 144.017048 -99.00773 
L 142.995005 -99.00773 
L 141.972962 -99.00773 
L 140.950919 -99.00773 
L 139.928876 -99.00773 
L 138.906834 -99.00773 
L 137.884791 -99.00773 
L 136.862748 -99.00773 
L 135.840705 -99.00773 
L 134.818662 -99.00773 
L 133.79662 -99.00773 
L 132.774577 -99.00773 
L 131.752534 -99.00773 
L 130.730491 -99.00773 
L 129.708448 -99.00773 
L 128.686405 -99.00773 
L 127.664363 -99.00773 
L 126.64232 -99.00773 
L 125.620277 -99.00773 
L 124.598234 -99.00773 
L 123.576191 -99.00773 
L 122.554149 -99.00773 
L 121.532106 -99.00773 
L 120.510063 -99.00773 
L 119.48802 -99.00773 
L 118.465977 -99.00773 
L 117.443934 -99.00773 
L 116.421892 -99.00773 
L 115.399849 -99.00773 
L 114.377806 -99.00773 
L 113.355763 -99.00773 
L 112.33372 -99.00773 
L 111.311678 -99.00773 
L 110.289635 -99.00773 
L 109.267592 -99.00773 
L 108.245549 -99.00773 
L 107.223506 -99.00773 
L 106.201463 -99.00773 
L 105.179421 -99.00773 
L 104.157378 -99.00773 
L 103.135335 -99.00773 
L 102.113292 -99.00773 
L 101.091249 -99.00773 
L 100.069206 -99.00773 
L 99.047164 -99.00773 
L 98.025121 -99.00773 
L 97.003078 -99.00773 
L 95.981035 -99.00773 
L 94.958992 -99.00773 
L 93.93695 -99.00773 
L 92.914907 -99.00773 
L 91.892864 -99.00773 
L 90.870821 -99.00773 
L 89.848778 -99.00773 
L 88.826735 -99.00773 
L 87.804693 -99.00773 
L 86.78265 -99.00773 
L 85.760607 -99.00773 
L 84.738564 -99.00773 
L 83.716521 -99.00773 
L 82.694479 -99.00773 
L 81.672436 -99.00773 
L 80.650393 -99.00773 
L 79.62835 -99.00773 
L 78.606307 -99.00773 
L 77.584264 -99.00773 
L 76.562222 -99.00773 
L 75.540179 -99.00773 
L 74.518136 -99.00773 
L 73.496093 -99.00773 
L 72.47405 -99.00773 
L 71.452008 -99.00773 
L 70.429965 -99.00773 
L 69.407922 -99.00773 
L 68.385879 -99.00773 
L 67.363836 -99.00773 
L 66.341793 -99.00773 
L 65.319751 -99.00773 
L 64.297708 -99.00773 
L 63.275665 -99.00773 
L 62.253622 -99.00773 
L 61.231579 -99.00773 
L 60.209537 -99.00773 
L 59.187494 -99.00773 
L 58.165451 -99.00773 
L 57.143408 -99.00773 
L 56.121365 -99.00773 
L 55.099322 -99.00773 
L 54.07728 -99.00773 
L 53.055237 -99.00773 
L 52.033194 -99.00773 
z
" style="stroke: #7570b3; stroke-opacity: 0.35; stroke-width: 0.3"/>
    </defs>
    <g clip-path="url(#p125f63bd9c)">
     <use xlink:href="#me78b873386" x="0" y="504" style="fill: #7570b3; fill-opacity: 0.35; stroke: #7570b3; stroke-opacity: 0.35; stroke-width: 0.3"/>
    </g>
   </g>
   <g id="line2d_7">
    <path d="M 52.033194 284.219311 
L 55.099322 284.085246 
L 59.187494 283.539129 
L 62.253622 282.90793 
L 66.341793 281.666214 
L 69.407922 280.561767 
L 73.496093 278.808955 
L 76.562222 277.303041 
L 81.672436 274.495525 
L 88.826735 270.074411 
L 93.93695 266.764852 
L 103.135335 260.719221 
L 115.399849 252.877198 
L 128.686405 244.536792 
L 134.818662 240.392179 
L 138.906834 237.446327 
L 145.039091 232.613795 
L 148.105219 230.007758 
L 152.19339 226.344758 
L 155.259519 223.455274 
L 163.435861 215.162058 
L 168.546075 209.589732 
L 174.678332 202.638276 
L 182.854675 193.001334 
L 198.185317 174.510132 
L 220.670259 147.451355 
L 225.780473 141.81908 
L 229.868644 137.618187 
L 233.956816 133.768464 
L 237.022944 131.169999 
L 240.089073 128.875825 
L 242.133158 127.479838 
L 246.22133 125.119738 
L 249.287458 123.695565 
L 252.353586 122.570218 
L 255.419715 121.730988 
L 258.485843 121.157137 
L 261.551972 120.795453 
L 264.6181 120.622846 
L 268.706272 120.617001 
L 278.9267 120.873991 
L 283.014871 120.815936 
L 290.169171 120.231556 
L 293.235299 119.772883 
L 296.301428 119.166181 
L 300.389599 118.29298 
L 309.587984 116.072776 
L 314.698198 115.077546 
L 317.764327 114.59801 
L 320.830455 114.310432 
L 323.896584 114.207546 
L 326.962712 114.331506 
L 331.050884 114.819505 
L 334.117012 115.415799 
L 338.205183 116.597985 
L 343.315397 118.56498 
L 347.403569 120.451635 
L 351.49174 122.617231 
L 356.601954 125.666391 
L 360.690125 128.285972 
L 367.844425 133.439939 
L 371.932596 136.587393 
L 376.020768 139.888806 
L 379.086896 142.516956 
L 384.19711 147.086369 
L 391.35141 153.837795 
L 396.461624 158.911549 
L 416.90248 180.208334 
L 424.05678 187.786891 
L 435.299251 200.106005 
L 440.409465 206.028477 
L 448.585808 215.892412 
L 453.696022 222.4301 
L 461.872364 233.198465 
L 472.092793 246.693257 
L 479.247092 255.803773 
L 484.357306 261.899801 
L 489.46752 267.659507 
L 493.555692 272.038769 
L 499.687949 278.054378 
L 504.798163 282.806402 
L 513.996548 290.795053 
L 524.216976 298.965844 
L 530.349233 303.536739 
L 534.437404 306.377488 
L 539.547619 309.64732 
L 543.63579 311.971091 
L 546.701918 313.548192 
L 551.812132 315.801934 
L 555.900304 317.256378 
L 559.988475 318.382866 
L 563.054603 319.057685 
L 567.142775 319.717644 
L 571.230946 320.086893 
L 574.297074 320.197152 
L 574.297074 320.197152 
" clip-path="url(#p125f63bd9c)" style="fill: none; stroke: #7570b3; stroke-width: 2; stroke-linecap: round"/>
   </g>
   <g id="line2d_8">
    <path d="M 52.033194 406.2 
L 52.033194 284.219311 
" clip-path="url(#p125f63bd9c)" style="fill: none; stroke: #7570b3; stroke-width: 2; stroke-linecap: round"/>
   </g>
   <g id="line2d_9">
    <path d="M 574.297074 405.840222 
L 574.297074 320.197152 
" clip-path="url(#p125f63bd9c)" style="fill: none; stroke: #7570b3; stroke-width: 2; stroke-linecap: round"/>
   </g>
   <g id="line2d_10">
    <defs>
     <path id="mf3be239f45" d="M 0 3.5 
C 0.928211 3.5 1.81853 3.131218 2.474874 2.474874 
C 3.131218 1.81853 3.5 0.928211 3.5 0 
C 3.5 -0.928211 3.131218 -1.81853 2.474874 -2.474874 
C 1.81853 -3.131218 0.928211 -3.5 0 -3.5 
C -0.928211 -3.5 -1.81853 -3.131218 -2.474874 -2.474874 
C -3.131218 -1.81853 -3.5 -0.928211 -3.5 0 
C -3.5 0.928211 -3.131218 1.81853 -2.474874 2.474874 
C -1.81853 3.131218 -0.928211 3.5 0 3.5 
z
"/>
    </defs>
    <g clip-path="url(#p125f63bd9c)">
     <use xlink:href="#mf3be239f45" x="302.492112" y="404.99227" style="fill: #7570b3"/>
    </g>
   </g>
   <g id="patch_3">
    <path d="M 25.92 420.8 
L 600.410268 420.8 
" style="fill: none; stroke: #333333; stroke-width: 1.5; stroke-linejoin: miter; stroke-linecap: square"/>
   </g>
   <g id="text_4">
    <!-- $C$ -->
    <g style="fill: #262626" transform="translate(286.565134 83.794375)">
     <text>
      <tspan x="0" y="-0.59375" style="font-style: oblique; font-size: 76px; font-family: 'DejaVu Sans'; fill: #262626">C</tspan>
     </text>
    </g>
   </g>
  </g>
 </g>
 <defs>
  <clipPath id="p125f63bd9c">
   <rect x="25.92" y="99.6" width="574.490268" height="321.2"/>
  </clipPath>
 </defs>
</svg>
