<?xml version="1.0" encoding="utf-8" standalone="no"?>
<!DOCTYPE svg PUBLIC "-//W3C//DTD SVG 1.1//EN"
  "http://www.w3.org/Graphics/SVG/1.1/DTD/svg11.dtd">
<svg xmlns:xlink="http://www.w3.org/1999/xlink" width="648pt" height="504pt" viewBox="0 0 648 504" xmlns="http://www.w3.org/2000/svg" version="1.1">
 <metadata>
  <rdf:RDF xmlns:dc="http://purl.org/dc/elements/1.1/" xmlns:cc="http://creativecommons.org/ns#" xmlns:rdf="http://www.w3.org/1999/02/22-rdf-syntax-ns#">
   <cc:Work>
    <dc:type rdf:resource="http://purl.org/dc/dcmitype/StillImage"/>
    <dc:date>2026-02-22T16:15:33.868640</dc:date>
    <dc:format>image/svg+xml</dc:format>
    <dc:creator>
     <cc:Agent>
      <dc:title>Matplotlib v3.10.6, https://matplotlib.org/</dc:title>
     </cc:Agent>
    </dc:creator>
   </cc:Work>
  </rdf:RDF>
 </metadata>
 <defs>
  <style type="text/css">*{stroke-linejoin: round; stroke-linecap: butt}</style>
 </defs>
 <g id="figure_1">
  <g id="patch_1">
   <path d="M 0 504 
L 648 504 
L 648 0 
L 0 0 
L 0 504 
z
" style="fill: none; opacity: 0"/>
  </g>
  <g id="axes_1">
   <g id="patch_2">
    <path d="M 25.92 420.8 
L 622.08 420.8 
L 622.08 99.6 
L 25.92 99.6 
L 25.92 420.8 
z
" style="fill: none"/>
   </g>
   <g id="matplotlib.axis_1">
    <g id="xtick_1">
     <g id="line2d_1">
      <path d="M 162.053058 420.8 
L 162.053058 99.6 
" clip-path="url(#p5158351c6d)" style="fill: none; stroke: #ffffff; stroke-opacity: 0.4; stroke-linecap: round"/>
     </g>
     <g id="line2d_2"/>
     <g id="text_1">
      <text style="font-size: 52px; font-family: 'DejaVu Serif', 'Times New Roman', serif; text-anchor: middle; fill: #262626" x="162.053058" y="467.311875" transform="rotate(-0 162.053058 467.311875)">0.134</text>
     </g>
    </g>
    <g id="xtick_2">
     <g id="line2d_3">
      <path d="M 411.614895 420.8 
L 411.614895 99.6 
" clip-path="url(#p5158351c6d)" style="fill: none; stroke: #ffffff; stroke-opacity: 0.4; stroke-linecap: round"/>
     </g>
     <g id="line2d_4"/>
     <g id="text_2">
      <text style="font-size: 52px; font-family: 'DejaVu Serif', 'Times New Roman', serif; text-anchor: middle; fill: #262626" x="411.614895" y="467.311875" transform="rotate(-0 411.614895 467.311875)">0.136</text>
     </g>
    </g>
   </g>
   <g id="matplotlib.axis_2"/>
   <g id="FillBetweenPolyCollection_1">
    <defs>
     <path id="m73dba5aa29" d="M 53.018182 -98.816267 
L 53.018182 -189.638148 
L 54.078776 -189.664716 
L 55.13937 -189.690509 
L 56.199964 -189.755245 
L 57.260559 -189.820236 
L 58.321153 -189.915373 
L 59.381747 -190.024188 
L 60.442341 -190.165981 
L 61.502935 -190.307934 
L 62.56353 -190.470444 
L 63.624124 -190.662885 
L 64.684718 -190.893916 
L 65.745312 -191.133021 
L 66.805906 -191.396806 
L 67.866501 -191.662097 
L 68.927095 -191.939471 
L 69.987689 -192.238546 
L 71.048283 -192.568539 
L 72.108877 -192.919326 
L 73.169472 -193.287018 
L 74.230066 -193.672058 
L 75.29066 -194.067392 
L 76.351254 -194.479544 
L 77.411848 -194.895524 
L 78.472443 -195.326195 
L 79.533037 -195.781375 
L 80.593631 -196.257724 
L 81.654225 -196.729988 
L 82.714819 -197.236345 
L 83.775414 -197.746193 
L 84.836008 -198.269891 
L 85.896602 -198.810771 
L 86.957196 -199.343617 
L 88.01779 -199.886318 
L 89.078385 -200.438956 
L 90.138979 -200.988367 
L 91.199573 -201.55091 
L 92.260167 -202.132881 
L 93.320761 -202.689945 
L 94.381356 -203.276523 
L 95.44195 -203.85656 
L 96.502544 -204.446575 
L 97.563138 -205.031457 
L 98.623732 -205.619884 
L 99.684327 -206.208574 
L 100.744921 -206.810657 
L 101.805515 -207.410657 
L 102.866109 -208.008656 
L 103.926703 -208.587529 
L 104.987298 -209.190513 
L 106.047892 -209.794437 
L 107.108486 -210.402764 
L 108.16908 -211.013879 
L 109.229674 -211.614254 
L 110.290269 -212.22389 
L 111.350863 -212.822319 
L 112.411457 -213.429237 
L 113.472051 -214.009974 
L 114.532645 -214.6146 
L 115.59324 -215.208713 
L 116.653834 -215.799316 
L 117.714428 -216.421631 
L 118.775022 -217.030026 
L 119.835616 -217.630545 
L 120.896211 -218.244079 
L 121.956805 -218.847921 
L 123.017399 -219.455515 
L 124.077993 -220.101497 
L 125.138587 -220.70109 
L 126.199182 -221.338289 
L 127.259776 -221.997545 
L 128.32037 -222.645468 
L 129.380964 -223.312508 
L 130.441558 -223.987565 
L 131.502153 -224.684806 
L 132.562747 -225.387211 
L 133.623341 -226.103599 
L 134.683935 -226.833032 
L 135.744529 -227.579499 
L 136.805124 -228.33682 
L 137.865718 -229.12257 
L 138.926312 -229.928311 
L 139.986906 -230.767366 
L 141.0475 -231.633723 
L 142.108095 -232.492181 
L 143.168689 -233.378851 
L 144.229283 -234.28384 
L 145.289877 -235.210419 
L 146.350471 -236.159931 
L 147.411066 -237.142379 
L 148.47166 -238.15348 
L 149.532254 -239.185415 
L 150.592848 -240.235853 
L 151.653442 -241.310796 
L 152.714037 -242.413885 
L 153.774631 -243.545194 
L 154.835225 -244.704761 
L 155.895819 -245.893835 
L 156.956413 -247.088104 
L 158.017008 -248.329697 
L 159.077602 -249.556842 
L 160.138196 -250.837395 
L 161.19879 -252.143911 
L 162.259384 -253.48023 
L 163.319979 -254.82987 
L 164.380573 -256.204964 
L 165.441167 -257.580475 
L 166.501761 -258.972497 
L 167.562355 -260.404055 
L 168.62295 -261.839054 
L 169.683544 -263.308944 
L 170.744138 -264.799304 
L 171.804732 -266.312096 
L 172.865326 -267.839163 
L 173.925921 -269.393885 
L 174.986515 -270.934187 
L 176.047109 -272.476913 
L 177.107703 -274.02093 
L 178.168297 -275.601693 
L 179.228892 -277.151108 
L 180.289486 -278.73061 
L 181.35008 -280.320468 
L 182.410674 -281.896265 
L 183.471268 -283.47463 
L 184.531863 -285.067267 
L 185.592457 -286.64276 
L 186.653051 -288.208922 
L 187.713645 -289.764613 
L 188.774239 -291.32194 
L 189.834834 -292.86537 
L 190.895428 -294.39782 
L 191.956022 -295.919139 
L 193.016616 -297.397062 
L 194.07721 -298.89004 
L 195.137805 -300.368842 
L 196.198399 -301.819046 
L 197.258993 -303.274875 
L 198.319587 -304.691719 
L 199.380181 -306.083258 
L 200.440776 -307.471916 
L 201.50137 -308.824662 
L 202.561964 -310.153993 
L 203.622558 -311.456932 
L 204.683152 -312.728463 
L 205.743747 -313.992809 
L 206.804341 -315.230152 
L 207.864935 -316.450412 
L 208.925529 -317.631365 
L 209.986123 -318.774123 
L 211.046718 -319.902318 
L 212.107312 -321.0116 
L 213.167906 -322.080994 
L 214.2285 -323.141491 
L 215.289094 -324.160289 
L 216.349689 -325.155862 
L 217.410283 -326.134568 
L 218.470877 -327.111434 
L 219.531471 -328.0176 
L 220.592065 -328.9139 
L 221.65266 -329.787958 
L 222.713254 -330.662496 
L 223.773848 -331.509151 
L 224.834442 -332.331852 
L 225.895036 -333.130973 
L 226.955631 -333.952712 
L 228.016225 -334.72892 
L 229.076819 -335.478376 
L 230.137413 -336.215583 
L 231.198007 -336.931229 
L 232.258602 -337.639345 
L 233.319196 -338.351763 
L 234.37979 -339.06416 
L 235.440384 -339.733132 
L 236.500978 -340.380759 
L 237.561573 -341.025226 
L 238.622167 -341.66445 
L 239.682761 -342.286199 
L 240.743355 -342.899853 
L 241.803949 -343.512893 
L 242.864544 -344.116052 
L 243.925138 -344.735032 
L 244.985732 -345.328821 
L 246.046326 -345.921645 
L 247.10692 -346.512215 
L 248.167515 -347.093862 
L 249.228109 -347.684933 
L 250.288703 -348.256631 
L 251.349297 -348.822425 
L 252.409891 -349.397576 
L 253.470486 -349.971362 
L 254.53108 -350.517511 
L 255.591674 -351.079296 
L 256.652268 -351.645682 
L 257.712862 -352.194717 
L 258.773457 -352.757928 
L 259.834051 -353.32579 
L 260.894645 -353.883891 
L 261.955239 -354.428049 
L 263.015833 -355.008255 
L 264.076428 -355.554696 
L 265.137022 -356.109947 
L 266.197616 -356.65906 
L 267.25821 -357.189282 
L 268.318804 -357.73676 
L 269.379399 -358.280832 
L 270.439993 -358.825494 
L 271.500587 -359.386584 
L 272.561181 -359.924135 
L 273.621775 -360.468772 
L 274.68237 -361.016999 
L 275.742964 -361.576363 
L 276.803558 -362.143973 
L 277.864152 -362.706454 
L 278.924746 -363.245975 
L 279.985341 -363.801828 
L 281.045935 -364.368301 
L 282.106529 -364.946026 
L 283.167123 -365.497603 
L 284.227717 -366.048269 
L 285.288312 -366.612205 
L 286.348906 -367.177424 
L 287.4095 -367.732946 
L 288.470094 -368.314923 
L 289.530688 -368.866304 
L 290.591283 -369.448826 
L 291.651877 -370.019667 
L 292.712471 -370.576469 
L 293.773065 -371.161016 
L 294.833659 -371.719402 
L 295.894254 -372.267234 
L 296.954848 -372.824305 
L 298.015442 -373.397243 
L 299.076036 -373.978165 
L 300.13663 -374.537279 
L 301.197225 -375.095484 
L 302.257819 -375.651465 
L 303.318413 -376.205128 
L 304.379007 -376.760715 
L 305.439601 -377.325192 
L 306.500196 -377.854408 
L 307.56079 -378.405584 
L 308.621384 -378.9614 
L 309.681978 -379.525805 
L 310.742572 -380.071159 
L 311.803167 -380.596152 
L 312.863761 -381.091163 
L 313.924355 -381.636038 
L 314.984949 -382.126541 
L 316.045543 -382.651104 
L 317.106138 -383.171158 
L 318.166732 -383.648357 
L 319.227326 -384.127466 
L 320.28792 -384.5781 
L 321.348514 -385.023553 
L 322.409109 -385.468718 
L 323.469703 -385.87529 
L 324.530297 -386.285517 
L 325.590891 -386.674677 
L 326.651486 -387.032498 
L 327.71208 -387.389582 
L 328.772674 -387.701656 
L 329.833268 -388.012655 
L 330.893862 -388.30082 
L 331.954457 -388.571358 
L 333.015051 -388.819206 
L 334.075645 -389.03102 
L 335.136239 -389.224834 
L 336.196833 -389.384184 
L 337.257428 -389.503713 
L 338.318022 -389.605317 
L 339.378616 -389.691404 
L 340.43921 -389.75339 
L 341.499804 -389.787385 
L 342.560399 -389.8 
L 343.620993 -389.752009 
L 344.681587 -389.691179 
L 345.742181 -389.598226 
L 346.802775 -389.437989 
L 347.86337 -389.268451 
L 348.923964 -389.075833 
L 349.984558 -388.823989 
L 351.045152 -388.580023 
L 352.105746 -388.277275 
L 353.166341 -387.947973 
L 354.226935 -387.580144 
L 355.287529 -387.197705 
L 356.348123 -386.776158 
L 357.408717 -386.3198 
L 358.469312 -385.871521 
L 359.529906 -385.353042 
L 360.5905 -384.798835 
L 361.651094 -384.249949 
L 362.711688 -383.643993 
L 363.772283 -383.058415 
L 364.832877 -382.451001 
L 365.893471 -381.817554 
L 366.954065 -381.160048 
L 368.014659 -380.485372 
L 369.075254 -379.806469 
L 370.135848 -379.106971 
L 371.196442 -378.379753 
L 372.257036 -377.650896 
L 373.31763 -376.899295 
L 374.378225 -376.132466 
L 375.438819 -375.375018 
L 376.499413 -374.60612 
L 377.560007 -373.847333 
L 378.620601 -373.085923 
L 379.681196 -372.292714 
L 380.74179 -371.535346 
L 381.802384 -370.753687 
L 382.862978 -369.945498 
L 383.923572 -369.163684 
L 384.984167 -368.410355 
L 386.044761 -367.62858 
L 387.105355 -366.862147 
L 388.165949 -366.103075 
L 389.226543 -365.336286 
L 390.287138 -364.573598 
L 391.347732 -363.835466 
L 392.408326 -363.058739 
L 393.46892 -362.305046 
L 394.529514 -361.575188 
L 395.590109 -360.832836 
L 396.650703 -360.124535 
L 397.711297 -359.40466 
L 398.771891 -358.683927 
L 399.832485 -357.949892 
L 400.89308 -357.245795 
L 401.953674 -356.548819 
L 403.014268 -355.846147 
L 404.074862 -355.148257 
L 405.135456 -354.451526 
L 406.196051 -353.778436 
L 407.256645 -353.083109 
L 408.317239 -352.408327 
L 409.377833 -351.703374 
L 410.438427 -351.011305 
L 411.499022 -350.332849 
L 412.559616 -349.636368 
L 413.62021 -348.93295 
L 414.680804 -348.199014 
L 415.741398 -347.480112 
L 416.801993 -346.745126 
L 417.862587 -346.022978 
L 418.923181 -345.273387 
L 419.983775 -344.548335 
L 421.044369 -343.791794 
L 422.104964 -343.021713 
L 423.165558 -342.237102 
L 424.226152 -341.470121 
L 425.286746 -340.665602 
L 426.34734 -339.870291 
L 427.407935 -339.069405 
L 428.468529 -338.236659 
L 429.529123 -337.414164 
L 430.589717 -336.577566 
L 431.650311 -335.731568 
L 432.710906 -334.874902 
L 433.7715 -334.017766 
L 434.832094 -333.154574 
L 435.892688 -332.272376 
L 436.953282 -331.373499 
L 438.013877 -330.473259 
L 439.074471 -329.576123 
L 440.135065 -328.663565 
L 441.195659 -327.722808 
L 442.256253 -326.77402 
L 443.316848 -325.834711 
L 444.377442 -324.907716 
L 445.438036 -323.942645 
L 446.49863 -322.977497 
L 447.559224 -322.008265 
L 448.619819 -321.029303 
L 449.680413 -320.072226 
L 450.741007 -319.097257 
L 451.801601 -318.123144 
L 452.862195 -317.159958 
L 453.92279 -316.165258 
L 454.983384 -315.183724 
L 456.043978 -314.19527 
L 457.104572 -313.190282 
L 458.165166 -312.215523 
L 459.225761 -311.2221 
L 460.286355 -310.249382 
L 461.346949 -309.276399 
L 462.407543 -308.307647 
L 463.468137 -307.321474 
L 464.528732 -306.329928 
L 465.589326 -305.362716 
L 466.64992 -304.398127 
L 467.710514 -303.453203 
L 468.771108 -302.485 
L 469.831703 -301.527117 
L 470.892297 -300.567977 
L 471.952891 -299.63279 
L 473.013485 -298.686843 
L 474.074079 -297.751622 
L 475.134674 -296.802201 
L 476.195268 -295.880766 
L 477.255862 -294.952423 
L 478.316456 -294.028575 
L 479.37705 -293.084543 
L 480.437645 -292.19757 
L 481.498239 -291.264737 
L 482.558833 -290.336771 
L 483.619427 -289.427473 
L 484.680021 -288.508344 
L 485.740616 -287.616508 
L 486.80121 -286.692156 
L 487.861804 -285.790977 
L 488.922398 -284.882269 
L 489.982992 -283.98254 
L 491.043587 -283.068607 
L 492.104181 -282.155692 
L 493.164775 -281.235428 
L 494.225369 -280.319899 
L 495.285963 -279.400967 
L 496.346558 -278.48586 
L 497.407152 -277.561164 
L 498.467746 -276.618167 
L 499.52834 -275.693173 
L 500.588934 -274.752051 
L 501.649529 -273.807814 
L 502.710123 -272.878888 
L 503.770717 -271.935661 
L 504.831311 -270.963756 
L 505.891905 -270.011923 
L 506.9525 -269.062468 
L 508.013094 -268.096363 
L 509.073688 -267.139635 
L 510.134282 -266.181383 
L 511.194876 -265.192509 
L 512.255471 -264.232131 
L 513.316065 -263.25674 
L 514.376659 -262.270406 
L 515.437253 -261.296192 
L 516.497847 -260.281684 
L 517.558442 -259.299674 
L 518.619036 -258.30315 
L 519.67963 -257.305954 
L 520.740224 -256.298954 
L 521.800818 -255.279571 
L 522.861413 -254.266874 
L 523.922007 -253.241921 
L 524.982601 -252.22775 
L 526.043195 -251.212736 
L 527.103789 -250.178052 
L 528.164384 -249.170187 
L 529.224978 -248.127148 
L 530.285572 -247.096226 
L 531.346166 -246.047951 
L 532.40676 -245.01861 
L 533.467355 -243.970514 
L 534.527949 -242.928414 
L 535.588543 -241.895591 
L 536.649137 -240.863231 
L 537.709731 -239.829846 
L 538.770326 -238.792703 
L 539.83092 -237.767703 
L 540.891514 -236.719079 
L 541.952108 -235.688132 
L 543.012702 -234.639449 
L 544.073297 -233.595445 
L 545.133891 -232.579017 
L 546.194485 -231.542094 
L 547.255079 -230.551853 
L 548.315673 -229.544781 
L 549.376268 -228.514573 
L 550.436862 -227.498338 
L 551.497456 -226.506788 
L 552.55805 -225.514218 
L 553.618644 -224.519543 
L 554.679239 -223.533183 
L 555.739833 -222.563921 
L 556.800427 -221.590842 
L 557.861021 -220.635397 
L 558.921615 -219.692801 
L 559.98221 -218.76436 
L 561.042804 -217.848332 
L 562.103398 -216.925769 
L 563.163992 -216.031824 
L 564.224586 -215.140447 
L 565.285181 -214.282063 
L 566.345775 -213.44004 
L 567.406369 -212.611445 
L 568.466963 -211.801182 
L 569.527557 -211.011041 
L 570.588152 -210.23181 
L 571.648746 -209.467832 
L 572.70934 -208.740986 
L 573.769934 -208.029151 
L 574.830528 -207.362337 
L 575.891123 -206.715444 
L 576.951717 -206.077377 
L 578.012311 -205.494006 
L 579.072905 -204.935002 
L 580.133499 -204.427426 
L 581.194094 -203.929127 
L 582.254688 -203.459643 
L 583.315282 -203.020203 
L 584.375876 -202.629194 
L 585.43647 -202.240657 
L 586.497065 -201.89134 
L 587.557659 -201.579021 
L 588.618253 -201.320964 
L 589.678847 -201.061209 
L 590.739441 -200.874128 
L 591.800036 -200.701366 
L 592.86063 -200.582521 
L 593.921224 -200.494515 
L 594.981818 -200.442953 
L 594.981818 -98.816267 
L 594.981818 -98.816267 
L 593.921224 -98.816267 
L 592.86063 -98.816267 
L 591.800036 -98.816267 
L 590.739441 -98.816267 
L 589.678847 -98.816267 
L 588.618253 -98.816267 
L 587.557659 -98.816267 
L 586.497065 -98.816267 
L 585.43647 -98.816267 
L 584.375876 -98.816267 
L 583.315282 -98.816267 
L 582.254688 -98.816267 
L 581.194094 -98.816267 
L 580.133499 -98.816267 
L 579.072905 -98.816267 
L 578.012311 -98.816267 
L 576.951717 -98.816267 
L 575.891123 -98.816267 
L 574.830528 -98.816267 
L 573.769934 -98.816267 
L 572.70934 -98.816267 
L 571.648746 -98.816267 
L 570.588152 -98.816267 
L 569.527557 -98.816267 
L 568.466963 -98.816267 
L 567.406369 -98.816267 
L 566.345775 -98.816267 
L 565.285181 -98.816267 
L 564.224586 -98.816267 
L 563.163992 -98.816267 
L 562.103398 -98.816267 
L 561.042804 -98.816267 
L 559.98221 -98.816267 
L 558.921615 -98.816267 
L 557.861021 -98.816267 
L 556.800427 -98.816267 
L 555.739833 -98.816267 
L 554.679239 -98.816267 
L 553.618644 -98.816267 
L 552.55805 -98.816267 
L 551.497456 -98.816267 
L 550.436862 -98.816267 
L 549.376268 -98.816267 
L 548.315673 -98.816267 
L 547.255079 -98.816267 
L 546.194485 -98.816267 
L 545.133891 -98.816267 
L 544.073297 -98.816267 
L 543.012702 -98.816267 
L 541.952108 -98.816267 
L 540.891514 -98.816267 
L 539.83092 -98.816267 
L 538.770326 -98.816267 
L 537.709731 -98.816267 
L 536.649137 -98.816267 
L 535.588543 -98.816267 
L 534.527949 -98.816267 
L 533.467355 -98.816267 
L 532.40676 -98.816267 
L 531.346166 -98.816267 
L 530.285572 -98.816267 
L 529.224978 -98.816267 
L 528.164384 -98.816267 
L 527.103789 -98.816267 
L 526.043195 -98.816267 
L 524.982601 -98.816267 
L 523.922007 -98.816267 
L 522.861413 -98.816267 
L 521.800818 -98.816267 
L 520.740224 -98.816267 
L 519.67963 -98.816267 
L 518.619036 -98.816267 
L 517.558442 -98.816267 
L 516.497847 -98.816267 
L 515.437253 -98.816267 
L 514.376659 -98.816267 
L 513.316065 -98.816267 
L 512.255471 -98.816267 
L 511.194876 -98.816267 
L 510.134282 -98.816267 
L 509.073688 -98.816267 
L 508.013094 -98.816267 
L 506.9525 -98.816267 
L 505.891905 -98.816267 
L 504.831311 -98.816267 
L 503.770717 -98.816267 
L 502.710123 -98.816267 
L 501.649529 -98.816267 
L 500.588934 -98.816267 
L 499.52834 -98.816267 
L 498.467746 -98.816267 
L 497.407152 -98.816267 
L 496.346558 -98.816267 
L 495.285963 -98.816267 
L 494.225369 -98.816267 
L 493.164775 -98.816267 
L 492.104181 -98.816267 
L 491.043587 -98.816267 
L 489.982992 -98.816267 
L 488.922398 -98.816267 
L 487.861804 -98.816267 
L 486.80121 -98.816267 
L 485.740616 -98.816267 
L 484.680021 -98.816267 
L 483.619427 -98.816267 
L 482.558833 -98.816267 
L 481.498239 -98.816267 
L 480.437645 -98.816267 
L 479.37705 -98.816267 
L 478.316456 -98.816267 
L 477.255862 -98.816267 
L 476.195268 -98.816267 
L 475.134674 -98.816267 
L 474.074079 -98.816267 
L 473.013485 -98.816267 
L 471.952891 -98.816267 
L 470.892297 -98.816267 
L 469.831703 -98.816267 
L 468.771108 -98.816267 
L 467.710514 -98.816267 
L 466.64992 -98.816267 
L 465.589326 -98.816267 
L 464.528732 -98.816267 
L 463.468137 -98.816267 
L 462.407543 -98.816267 
L 461.346949 -98.816267 
L 460.286355 -98.816267 
L 459.225761 -98.816267 
L 458.165166 -98.816267 
L 457.104572 -98.816267 
L 456.043978 -98.816267 
L 454.983384 -98.816267 
L 453.92279 -98.816267 
L 452.862195 -98.816267 
L 451.801601 -98.816267 
L 450.741007 -98.816267 
L 449.680413 -98.816267 
L 448.619819 -98.816267 
L 447.559224 -98.816267 
L 446.49863 -98.816267 
L 445.438036 -98.816267 
L 444.377442 -98.816267 
L 443.316848 -98.816267 
L 442.256253 -98.816267 
L 441.195659 -98.816267 
L 440.135065 -98.816267 
L 439.074471 -98.816267 
L 438.013877 -98.816267 
L 436.953282 -98.816267 
L 435.892688 -98.816267 
L 434.832094 -98.816267 
L 433.7715 -98.816267 
L 432.710906 -98.816267 
L 431.650311 -98.816267 
L 430.589717 -98.816267 
L 429.529123 -98.816267 
L 428.468529 -98.816267 
L 427.407935 -98.816267 
L 426.34734 -98.816267 
L 425.286746 -98.816267 
L 424.226152 -98.816267 
L 423.165558 -98.816267 
L 422.104964 -98.816267 
L 421.044369 -98.816267 
L 419.983775 -98.816267 
L 418.923181 -98.816267 
L 417.862587 -98.816267 
L 416.801993 -98.816267 
L 415.741398 -98.816267 
L 414.680804 -98.816267 
L 413.62021 -98.816267 
L 412.559616 -98.816267 
L 411.499022 -98.816267 
L 410.438427 -98.816267 
L 409.377833 -98.816267 
L 408.317239 -98.816267 
L 407.256645 -98.816267 
L 406.196051 -98.816267 
L 405.135456 -98.816267 
L 404.074862 -98.816267 
L 403.014268 -98.816267 
L 401.953674 -98.816267 
L 400.89308 -98.816267 
L 399.832485 -98.816267 
L 398.771891 -98.816267 
L 397.711297 -98.816267 
L 396.650703 -98.816267 
L 395.590109 -98.816267 
L 394.529514 -98.816267 
L 393.46892 -98.816267 
L 392.408326 -98.816267 
L 391.347732 -98.816267 
L 390.287138 -98.816267 
L 389.226543 -98.816267 
L 388.165949 -98.816267 
L 387.105355 -98.816267 
L 386.044761 -98.816267 
L 384.984167 -98.816267 
L 383.923572 -98.816267 
L 382.862978 -98.816267 
L 381.802384 -98.816267 
L 380.74179 -98.816267 
L 379.681196 -98.816267 
L 378.620601 -98.816267 
L 377.560007 -98.816267 
L 376.499413 -98.816267 
L 375.438819 -98.816267 
L 374.378225 -98.816267 
L 373.31763 -98.816267 
L 372.257036 -98.816267 
L 371.196442 -98.816267 
L 370.135848 -98.816267 
L 369.075254 -98.816267 
L 368.014659 -98.816267 
L 366.954065 -98.816267 
L 365.893471 -98.816267 
L 364.832877 -98.816267 
L 363.772283 -98.816267 
L 362.711688 -98.816267 
L 361.651094 -98.816267 
L 360.5905 -98.816267 
L 359.529906 -98.816267 
L 358.469312 -98.816267 
L 357.408717 -98.816267 
L 356.348123 -98.816267 
L 355.287529 -98.816267 
L 354.226935 -98.816267 
L 353.166341 -98.816267 
L 352.105746 -98.816267 
L 351.045152 -98.816267 
L 349.984558 -98.816267 
L 348.923964 -98.816267 
L 347.86337 -98.816267 
L 346.802775 -98.816267 
L 345.742181 -98.816267 
L 344.681587 -98.816267 
L 343.620993 -98.816267 
L 342.560399 -98.816267 
L 341.499804 -98.816267 
L 340.43921 -98.816267 
L 339.378616 -98.816267 
L 338.318022 -98.816267 
L 337.257428 -98.816267 
L 336.196833 -98.816267 
L 335.136239 -98.816267 
L 334.075645 -98.816267 
L 333.015051 -98.816267 
L 331.954457 -98.816267 
L 330.893862 -98.816267 
L 329.833268 -98.816267 
L 328.772674 -98.816267 
L 327.71208 -98.816267 
L 326.651486 -98.816267 
L 325.590891 -98.816267 
L 324.530297 -98.816267 
L 323.469703 -98.816267 
L 322.409109 -98.816267 
L 321.348514 -98.816267 
L 320.28792 -98.816267 
L 319.227326 -98.816267 
L 318.166732 -98.816267 
L 317.106138 -98.816267 
L 316.045543 -98.816267 
L 314.984949 -98.816267 
L 313.924355 -98.816267 
L 312.863761 -98.816267 
L 311.803167 -98.816267 
L 310.742572 -98.816267 
L 309.681978 -98.816267 
L 308.621384 -98.816267 
L 307.56079 -98.816267 
L 306.500196 -98.816267 
L 305.439601 -98.816267 
L 304.379007 -98.816267 
L 303.318413 -98.816267 
L 302.257819 -98.816267 
L 301.197225 -98.816267 
L 300.13663 -98.816267 
L 299.076036 -98.816267 
L 298.015442 -98.816267 
L 296.954848 -98.816267 
L 295.894254 -98.816267 
L 294.833659 -98.816267 
L 293.773065 -98.816267 
L 292.712471 -98.816267 
L 291.651877 -98.816267 
L 290.591283 -98.816267 
L 289.530688 -98.816267 
L 288.470094 -98.816267 
L 287.4095 -98.816267 
L 286.348906 -98.816267 
L 285.288312 -98.816267 
L 284.227717 -98.816267 
L 283.167123 -98.816267 
L 282.106529 -98.816267 
L 281.045935 -98.816267 
L 279.985341 -98.816267 
L 278.924746 -98.816267 
L 277.864152 -98.816267 
L 276.803558 -98.816267 
L 275.742964 -98.816267 
L 274.68237 -98.816267 
L 273.621775 -98.816267 
L 272.561181 -98.816267 
L 271.500587 -98.816267 
L 270.439993 -98.816267 
L 269.379399 -98.816267 
L 268.318804 -98.816267 
L 267.25821 -98.816267 
L 266.197616 -98.816267 
L 265.137022 -98.816267 
L 264.076428 -98.816267 
L 263.015833 -98.816267 
L 261.955239 -98.816267 
L 260.894645 -98.816267 
L 259.834051 -98.816267 
L 258.773457 -98.816267 
L 257.712862 -98.816267 
L 256.652268 -98.816267 
L 255.591674 -98.816267 
L 254.53108 -98.816267 
L 253.470486 -98.816267 
L 252.409891 -98.816267 
L 251.349297 -98.816267 
L 250.288703 -98.816267 
L 249.228109 -98.816267 
L 248.167515 -98.816267 
L 247.10692 -98.816267 
L 246.046326 -98.816267 
L 244.985732 -98.816267 
L 243.925138 -98.816267 
L 242.864544 -98.816267 
L 241.803949 -98.816267 
L 240.743355 -98.816267 
L 239.682761 -98.816267 
L 238.622167 -98.816267 
L 237.561573 -98.816267 
L 236.500978 -98.816267 
L 235.440384 -98.816267 
L 234.37979 -98.816267 
L 233.319196 -98.816267 
L 232.258602 -98.816267 
L 231.198007 -98.816267 
L 230.137413 -98.816267 
L 229.076819 -98.816267 
L 228.016225 -98.816267 
L 226.955631 -98.816267 
L 225.895036 -98.816267 
L 224.834442 -98.816267 
L 223.773848 -98.816267 
L 222.713254 -98.816267 
L 221.65266 -98.816267 
L 220.592065 -98.816267 
L 219.531471 -98.816267 
L 218.470877 -98.816267 
L 217.410283 -98.816267 
L 216.349689 -98.816267 
L 215.289094 -98.816267 
L 214.2285 -98.816267 
L 213.167906 -98.816267 
L 212.107312 -98.816267 
L 211.046718 -98.816267 
L 209.986123 -98.816267 
L 208.925529 -98.816267 
L 207.864935 -98.816267 
L 206.804341 -98.816267 
L 205.743747 -98.816267 
L 204.683152 -98.816267 
L 203.622558 -98.816267 
L 202.561964 -98.816267 
L 201.50137 -98.816267 
L 200.440776 -98.816267 
L 199.380181 -98.816267 
L 198.319587 -98.816267 
L 197.258993 -98.816267 
L 196.198399 -98.816267 
L 195.137805 -98.816267 
L 194.07721 -98.816267 
L 193.016616 -98.816267 
L 191.956022 -98.816267 
L 190.895428 -98.816267 
L 189.834834 -98.816267 
L 188.774239 -98.816267 
L 187.713645 -98.816267 
L 186.653051 -98.816267 
L 185.592457 -98.816267 
L 184.531863 -98.816267 
L 183.471268 -98.816267 
L 182.410674 -98.816267 
L 181.35008 -98.816267 
L 180.289486 -98.816267 
L 179.228892 -98.816267 
L 178.168297 -98.816267 
L 177.107703 -98.816267 
L 176.047109 -98.816267 
L 174.986515 -98.816267 
L 173.925921 -98.816267 
L 172.865326 -98.816267 
L 171.804732 -98.816267 
L 170.744138 -98.816267 
L 169.683544 -98.816267 
L 168.62295 -98.816267 
L 167.562355 -98.816267 
L 166.501761 -98.816267 
L 165.441167 -98.816267 
L 164.380573 -98.816267 
L 163.319979 -98.816267 
L 162.259384 -98.816267 
L 161.19879 -98.816267 
L 160.138196 -98.816267 
L 159.077602 -98.816267 
L 158.017008 -98.816267 
L 156.956413 -98.816267 
L 155.895819 -98.816267 
L 154.835225 -98.816267 
L 153.774631 -98.816267 
L 152.714037 -98.816267 
L 151.653442 -98.816267 
L 150.592848 -98.816267 
L 149.532254 -98.816267 
L 148.47166 -98.816267 
L 147.411066 -98.816267 
L 146.350471 -98.816267 
L 145.289877 -98.816267 
L 144.229283 -98.816267 
L 143.168689 -98.816267 
L 142.108095 -98.816267 
L 141.0475 -98.816267 
L 139.986906 -98.816267 
L 138.926312 -98.816267 
L 137.865718 -98.816267 
L 136.805124 -98.816267 
L 135.744529 -98.816267 
L 134.683935 -98.816267 
L 133.623341 -98.816267 
L 132.562747 -98.816267 
L 131.502153 -98.816267 
L 130.441558 -98.816267 
L 129.380964 -98.816267 
L 128.32037 -98.816267 
L 127.259776 -98.816267 
L 126.199182 -98.816267 
L 125.138587 -98.816267 
L 124.077993 -98.816267 
L 123.017399 -98.816267 
L 121.956805 -98.816267 
L 120.896211 -98.816267 
L 119.835616 -98.816267 
L 118.775022 -98.816267 
L 117.714428 -98.816267 
L 116.653834 -98.816267 
L 115.59324 -98.816267 
L 114.532645 -98.816267 
L 113.472051 -98.816267 
L 112.411457 -98.816267 
L 111.350863 -98.816267 
L 110.290269 -98.816267 
L 109.229674 -98.816267 
L 108.16908 -98.816267 
L 107.108486 -98.816267 
L 106.047892 -98.816267 
L 104.987298 -98.816267 
L 103.926703 -98.816267 
L 102.866109 -98.816267 
L 101.805515 -98.816267 
L 100.744921 -98.816267 
L 99.684327 -98.816267 
L 98.623732 -98.816267 
L 97.563138 -98.816267 
L 96.502544 -98.816267 
L 95.44195 -98.816267 
L 94.381356 -98.816267 
L 93.320761 -98.816267 
L 92.260167 -98.816267 
L 91.199573 -98.816267 
L 90.138979 -98.816267 
L 89.078385 -98.816267 
L 88.01779 -98.816267 
L 86.957196 -98.816267 
L 85.896602 -98.816267 
L 84.836008 -98.816267 
L 83.775414 -98.816267 
L 82.714819 -98.816267 
L 81.654225 -98.816267 
L 80.593631 -98.816267 
L 79.533037 -98.816267 
L 78.472443 -98.816267 
L 77.411848 -98.816267 
L 76.351254 -98.816267 
L 75.29066 -98.816267 
L 74.230066 -98.816267 
L 73.169472 -98.816267 
L 72.108877 -98.816267 
L 71.048283 -98.816267 
L 69.987689 -98.816267 
L 68.927095 -98.816267 
L 67.866501 -98.816267 
L 66.805906 -98.816267 
L 65.745312 -98.816267 
L 64.684718 -98.816267 
L 63.624124 -98.816267 
L 62.56353 -98.816267 
L 61.502935 -98.816267 
L 60.442341 -98.816267 
L 59.381747 -98.816267 
L 58.321153 -98.816267 
L 57.260559 -98.816267 
L 56.199964 -98.816267 
L 55.13937 -98.816267 
L 54.078776 -98.816267 
L 53.018182 -98.816267 
z
" style="stroke: #7570b3; stroke-opacity: 0.35; stroke-width: 0.3"/>
    </defs>
    <g clip-path="url(#p5158351c6d)">
     <use xlink:href="#m73dba5aa29" x="0" y="504" style="fill: #7570b3; fill-opacity: 0.35; stroke: #7570b3; stroke-opacity: 0.35; stroke-width: 0.3"/>
    </g>
   </g>
   <g id="line2d_5">
    <path d="M 53.018182 314.361852 
L 57.260559 314.179764 
L 61.502935 313.692066 
L 64.684718 313.106084 
L 68.927095 312.060529 
L 72.108877 311.080674 
L 76.351254 309.520456 
L 80.593631 307.742276 
L 83.775414 306.253807 
L 90.138979 303.011633 
L 97.563138 298.968543 
L 109.229674 292.385746 
L 129.380964 280.687492 
L 133.623341 277.896401 
L 137.865718 274.87743 
L 141.0475 272.366277 
L 145.289877 268.789581 
L 148.47166 265.84652 
L 152.714037 261.586115 
L 156.956413 256.911896 
L 161.19879 251.856089 
L 166.501761 245.027503 
L 171.804732 237.687904 
L 179.228892 226.848892 
L 191.956022 208.080861 
L 199.380181 197.916742 
L 203.622558 192.543068 
L 207.864935 187.549588 
L 212.107312 182.9884 
L 216.349689 178.844138 
L 219.531471 175.9824 
L 223.773848 172.490849 
L 228.016225 169.27108 
L 233.319196 165.648237 
L 236.500978 163.619241 
L 241.803949 160.487107 
L 251.349297 155.177575 
L 260.894645 150.116109 
L 279.985341 140.198172 
L 307.56079 125.594416 
L 313.924355 122.363962 
L 322.409109 118.531282 
L 327.71208 116.610418 
L 331.954457 115.428642 
L 335.136239 114.775166 
L 338.318022 114.394683 
L 341.499804 114.212615 
L 343.620993 114.247991 
L 345.742181 114.401774 
L 348.923964 114.924167 
L 352.105746 115.722725 
L 355.287529 116.802295 
L 358.469312 118.128479 
L 361.651094 119.750051 
L 366.954065 122.839952 
L 371.196442 125.620247 
L 376.499413 129.39388 
L 384.984167 135.589645 
L 392.408326 140.941261 
L 397.711297 144.59534 
L 405.135456 149.548474 
L 412.559616 154.363632 
L 417.862587 157.977022 
L 425.286746 163.334398 
L 430.589717 167.422434 
L 436.953282 172.626501 
L 443.316848 178.165289 
L 447.559224 181.991735 
L 471.952891 204.36721 
L 481.498239 212.735263 
L 489.982992 220.01746 
L 502.710123 231.121112 
L 511.194876 238.807491 
L 517.558442 244.700326 
L 526.043195 252.787264 
L 551.497456 277.493212 
L 558.921615 284.307199 
L 564.224586 288.859553 
L 568.466963 292.198818 
L 572.70934 295.259014 
L 575.891123 297.284556 
L 578.012311 298.505994 
L 581.194094 300.070873 
L 584.375876 301.370806 
L 587.557659 302.420979 
L 590.739441 303.125872 
L 592.86063 303.417479 
L 594.981818 303.557047 
L 594.981818 303.557047 
" clip-path="url(#p5158351c6d)" style="fill: none; stroke: #7570b3; stroke-width: 2; stroke-linecap: round"/>
   </g>
   <g id="line2d_6">
    <path d="M 53.018182 406.091952 
L 53.018182 314.361852 
" clip-path="url(#p5158351c6d)" style="fill: none; stroke: #7570b3; stroke-width: 2; stroke-linecap: round"/>
   </g>
   <g id="line2d_7">
    <path d="M 594.981818 406.2 
L 594.981818 303.557047 
" clip-path="url(#p5158351c6d)" style="fill: none; stroke: #7570b3; stroke-width: 2; stroke-linecap: round"/>
   </g>
   <g id="line2d_8">
    <defs>
     <path id="m0b3423ea32" d="M 0 3.5 
C 0.928211 3.5 1.81853 3.131218 2.474874 2.474874 
C 3.131218 1.81853 3.5 0.928211 3.5 0 
C 3.5 -0.928211 3.131218 -1.81853 2.474874 -2.474874 
C 1.81853 -3.131218 0.928211 -3.5 0 -3.5 
C -0.928211 -3.5 -1.81853 -3.131218 -2.474874 -2.474874 
C -3.131218 -1.81853 -3.5 -0.928211 -3.5 0 
C -3.5 0.928211 -3.131218 1.81853 -2.474874 2.474874 
C -1.81853 3.131218 -0.928211 3.5 0 3.5 
z
"/>
    </defs>
    <g clip-path="url(#p5158351c6d)">
     <use xlink:href="#m0b3423ea32" x="335.957907" y="405.183733" style="fill: #7570b3"/>
    </g>
   </g>
   <g id="patch_3">
    <path d="M 25.92 420.8 
L 622.08 420.8 
" style="fill: none; stroke: #333333; stroke-width: 1.5; stroke-linejoin: miter; stroke-linecap: square"/>
   </g>
   <g id="text_3">
    <!-- $\sigma$ -->
    <g style="fill: #262626" transform="translate(299.68 83.794375)">
     <text>
      <tspan x="0" y="-0.40625" style="font-style: oblique; font-size: 76px; font-family: 'DejaVu Sans'; fill: #262626">σ</tspan>
     </text>
    </g>
   </g>
  </g>
 </g>
 <defs>
  <clipPath id="p5158351c6d">
   <rect x="25.92" y="99.6" width="596.16" height="321.2"/>
  </clipPath>
 </defs>
</svg>
