<?xml version="1.0" encoding="utf-8" standalone="no"?>
<!DOCTYPE svg PUBLIC "-//W3C//DTD SVG 1.1//EN"
  "http://www.w3.org/Graphics/SVG/1.1/DTD/svg11.dtd">
<svg xmlns:xlink="http://www.w3.org/1999/xlink" width="648pt" height="504pt" viewBox="0 0 648 504" xmlns="http://www.w3.org/2000/svg" version="1.1">
 <metadata>
  <rdf:RDF xmlns:dc="http://purl.org/dc/elements/1.1/" xmlns:cc="http://creativecommons.org/ns#" xmlns:rdf="http://www.w3.org/1999/02/22-rdf-syntax-ns#">
   <cc:Work>
    <dc:type rdf:resource="http://purl.org/dc/dcmitype/StillImage"/>
    <dc:date>2026-02-22T16:15:37.016389</dc:date>
    <dc:format>image/svg+xml</dc:format>
    <dc:creator>
     <cc:Agent>
      <dc:title>Matplotlib v3.10.6, https://matplotlib.org/</dc:title>
     </cc:Agent>
    </dc:creator>
   </cc:Work>
  </rdf:RDF>
 </metadata>
 <defs>
  <style type="text/css">*{stroke-linejoin: round; stroke-linecap: butt}</style>
 </defs>
 <g id="figure_1">
  <g id="patch_1">
   <path d="M 0 504 
L 648 504 
L 648 0 
L 0 0 
L 0 504 
z
" style="fill: none; opacity: 0"/>
  </g>
  <g id="axes_1">
   <g id="patch_2">
    <path d="M 46.150117 420.8 
L 598.89571 420.8 
L 598.89571 115.932 
L 46.150117 115.932 
L 46.150117 420.8 
z
" style="fill: none"/>
   </g>
   <g id="matplotlib.axis_1">
    <g id="xtick_1">
     <g id="line2d_1">
      <path d="M 111.591786 420.8 
L 111.591786 115.932 
" clip-path="url(#p72d1227a45)" style="fill: none; stroke: #ffffff; stroke-opacity: 0.4; stroke-linecap: round"/>
     </g>
     <g id="line2d_2"/>
     <g id="text_1">
      <text style="font-size: 52px; font-family: 'DejaVu Serif', 'Times New Roman', serif; text-anchor: middle; fill: #262626" x="111.591786" y="467.311875" transform="rotate(-0 111.591786 467.311875)">−1.01</text>
     </g>
    </g>
    <g id="xtick_2">
     <g id="line2d_3">
      <path d="M 324.148666 420.8 
L 324.148666 115.932 
" clip-path="url(#p72d1227a45)" style="fill: none; stroke: #ffffff; stroke-opacity: 0.4; stroke-linecap: round"/>
     </g>
     <g id="line2d_4"/>
     <g id="text_2">
      <text style="font-size: 52px; font-family: 'DejaVu Serif', 'Times New Roman', serif; text-anchor: middle; fill: #262626" x="324.148666" y="467.311875" transform="rotate(-0 324.148666 467.311875)">−1.00</text>
     </g>
    </g>
    <g id="xtick_3">
     <g id="line2d_5">
      <path d="M 536.705546 420.8 
L 536.705546 115.932 
" clip-path="url(#p72d1227a45)" style="fill: none; stroke: #ffffff; stroke-opacity: 0.4; stroke-linecap: round"/>
     </g>
     <g id="line2d_6"/>
     <g id="text_3">
      <text style="font-size: 52px; font-family: 'DejaVu Serif', 'Times New Roman', serif; text-anchor: middle; fill: #262626" x="536.705546" y="467.311875" transform="rotate(-0 536.705546 467.311875)">−0.99</text>
     </g>
    </g>
   </g>
   <g id="matplotlib.axis_2"/>
   <g id="FillBetweenPolyCollection_1">
    <defs>
     <path id="m676100ef99" d="M 71.274917 -98.090566 
L 71.274917 -201.383561 
L 72.258275 -201.387526 
L 73.241633 -201.389894 
L 74.224991 -201.403835 
L 75.208349 -201.425381 
L 76.191707 -201.466037 
L 77.175065 -201.519833 
L 78.158424 -201.57367 
L 79.141782 -201.652542 
L 80.12514 -201.741258 
L 81.108498 -201.83698 
L 82.091856 -201.963244 
L 83.075214 -202.083423 
L 84.058572 -202.238395 
L 85.04193 -202.395705 
L 86.025288 -202.560901 
L 87.008647 -202.779459 
L 87.992005 -202.996986 
L 88.975363 -203.229742 
L 89.958721 -203.493832 
L 90.942079 -203.76602 
L 91.925437 -204.081917 
L 92.908795 -204.40143 
L 93.892153 -204.767468 
L 94.875511 -205.146342 
L 95.858869 -205.543604 
L 96.842228 -205.987816 
L 97.825586 -206.455501 
L 98.808944 -206.960306 
L 99.792302 -207.508543 
L 100.77566 -208.079436 
L 101.759018 -208.686067 
L 102.742376 -209.329597 
L 103.725734 -209.986159 
L 104.709092 -210.69416 
L 105.692451 -211.436271 
L 106.675809 -212.18998 
L 107.659167 -213.007754 
L 108.642525 -213.836101 
L 109.625883 -214.721902 
L 110.609241 -215.628997 
L 111.592599 -216.563672 
L 112.575957 -217.537919 
L 113.559315 -218.551817 
L 114.542674 -219.609489 
L 115.526032 -220.688803 
L 116.50939 -221.805081 
L 117.492748 -222.943596 
L 118.476106 -224.118983 
L 119.459464 -225.317639 
L 120.442822 -226.553082 
L 121.42618 -227.798958 
L 122.409538 -229.084499 
L 123.392897 -230.361346 
L 124.376255 -231.663429 
L 125.359613 -232.983789 
L 126.342971 -234.304004 
L 127.326329 -235.666749 
L 128.309687 -237.026456 
L 129.293045 -238.383728 
L 130.276403 -239.742168 
L 131.259761 -241.103429 
L 132.24312 -242.472332 
L 133.226478 -243.85017 
L 134.209836 -245.207045 
L 135.193194 -246.557363 
L 136.176552 -247.9259 
L 137.15991 -249.287035 
L 138.143268 -250.637106 
L 139.126626 -251.954273 
L 140.109984 -253.272894 
L 141.093342 -254.587635 
L 142.076701 -255.865297 
L 143.060059 -257.11387 
L 144.043417 -258.351241 
L 145.026775 -259.549263 
L 146.010133 -260.747864 
L 146.993491 -261.909277 
L 147.976849 -263.041658 
L 148.960207 -264.140074 
L 149.943565 -265.227351 
L 150.926924 -266.281296 
L 151.910282 -267.32567 
L 152.89364 -268.32419 
L 153.876998 -269.280507 
L 154.860356 -270.222751 
L 155.843714 -271.136743 
L 156.827072 -272.006589 
L 157.81043 -272.864475 
L 158.793788 -273.700271 
L 159.777147 -274.532655 
L 160.760505 -275.311243 
L 161.743863 -276.077615 
L 162.727221 -276.819957 
L 163.710579 -277.53477 
L 164.693937 -278.22262 
L 165.677295 -278.912204 
L 166.660653 -279.575733 
L 167.644011 -280.239438 
L 168.62737 -280.89484 
L 169.610728 -281.50309 
L 170.594086 -282.129851 
L 171.577444 -282.749808 
L 172.560802 -283.350405 
L 173.54416 -283.943392 
L 174.527518 -284.565397 
L 175.510876 -285.17802 
L 176.494234 -285.783133 
L 177.477593 -286.399226 
L 178.460951 -287.025685 
L 179.444309 -287.650989 
L 180.427667 -288.296601 
L 181.411025 -288.932687 
L 182.394383 -289.583991 
L 183.377741 -290.27971 
L 184.361099 -290.955339 
L 185.344457 -291.669357 
L 186.327815 -292.355849 
L 187.311174 -293.10956 
L 188.294532 -293.851741 
L 189.27789 -294.613507 
L 190.261248 -295.416295 
L 191.244606 -296.223123 
L 192.227964 -297.068476 
L 193.211322 -297.923328 
L 194.19468 -298.791152 
L 195.178038 -299.677068 
L 196.161397 -300.588727 
L 197.144755 -301.495167 
L 198.128113 -302.403244 
L 199.111471 -303.358104 
L 200.094829 -304.292003 
L 201.078187 -305.266592 
L 202.061545 -306.252118 
L 203.044903 -307.247349 
L 204.028261 -308.233276 
L 205.01162 -309.226964 
L 205.994978 -310.24943 
L 206.978336 -311.24292 
L 207.961694 -312.253309 
L 208.945052 -313.292574 
L 209.92841 -314.304919 
L 210.911768 -315.311472 
L 211.895126 -316.350055 
L 212.878484 -317.342241 
L 213.861843 -318.345493 
L 214.845201 -319.338404 
L 215.828559 -320.32598 
L 216.811917 -321.314236 
L 217.795275 -322.30393 
L 218.778633 -323.269794 
L 219.761991 -324.202857 
L 220.745349 -325.128484 
L 221.728707 -326.070819 
L 222.712066 -326.986395 
L 223.695424 -327.894025 
L 224.678782 -328.768647 
L 225.66214 -329.613211 
L 226.645498 -330.437834 
L 227.628856 -331.263143 
L 228.612214 -332.056016 
L 229.595572 -332.841382 
L 230.57893 -333.612164 
L 231.562288 -334.379107 
L 232.545647 -335.125506 
L 233.529005 -335.842892 
L 234.512363 -336.570738 
L 235.495721 -337.272613 
L 236.479079 -337.963757 
L 237.462437 -338.662668 
L 238.445795 -339.343721 
L 239.429153 -340.00157 
L 240.412511 -340.670716 
L 241.39587 -341.315913 
L 242.379228 -341.956663 
L 243.362586 -342.620277 
L 244.345944 -343.256714 
L 245.329302 -343.896058 
L 246.31266 -344.512031 
L 247.296018 -345.153446 
L 248.279376 -345.780372 
L 249.262734 -346.383955 
L 250.246093 -347.014519 
L 251.229451 -347.66354 
L 252.212809 -348.291321 
L 253.196167 -348.944162 
L 254.179525 -349.578983 
L 255.162883 -350.233682 
L 256.146241 -350.892198 
L 257.129599 -351.523851 
L 258.112957 -352.194737 
L 259.096316 -352.829514 
L 260.079674 -353.486674 
L 261.063032 -354.149013 
L 262.04639 -354.826552 
L 263.029748 -355.478935 
L 264.013106 -356.144402 
L 264.996464 -356.797263 
L 265.979822 -357.455663 
L 266.96318 -358.134046 
L 267.946539 -358.793543 
L 268.929897 -359.447231 
L 269.913255 -360.080826 
L 270.896613 -360.714843 
L 271.879971 -361.34205 
L 272.863329 -361.982913 
L 273.846687 -362.632359 
L 274.830045 -363.254671 
L 275.813403 -363.886593 
L 276.796761 -364.466538 
L 277.78012 -365.069614 
L 278.763478 -365.64655 
L 279.746836 -366.200278 
L 280.730194 -366.747649 
L 281.713552 -367.264801 
L 282.69691 -367.761393 
L 283.680268 -368.2789 
L 284.663626 -368.740879 
L 285.646984 -369.143123 
L 286.630343 -369.564492 
L 287.613701 -369.96408 
L 288.597059 -370.343821 
L 289.580417 -370.702119 
L 290.563775 -371.036924 
L 291.547133 -371.375375 
L 292.530491 -371.678737 
L 293.513849 -371.951715 
L 294.497207 -372.225781 
L 295.480566 -372.461421 
L 296.463924 -372.68666 
L 297.447282 -372.889785 
L 298.43064 -373.087695 
L 299.413998 -373.261579 
L 300.397356 -373.425349 
L 301.380714 -373.553021 
L 302.364072 -373.665633 
L 303.34743 -373.77654 
L 304.330789 -373.849269 
L 305.314147 -373.953784 
L 306.297505 -374.012998 
L 307.280863 -374.067541 
L 308.264221 -374.097628 
L 309.247579 -374.115025 
L 310.230937 -374.147361 
L 311.214295 -374.171215 
L 312.197653 -374.184456 
L 313.181012 -374.210364 
L 314.16437 -374.19975 
L 315.147728 -374.19741 
L 316.131086 -374.175048 
L 317.114444 -374.139166 
L 318.097802 -374.10059 
L 319.08116 -374.075614 
L 320.064518 -374.033015 
L 321.047876 -373.994899 
L 322.031234 -373.942637 
L 323.014593 -373.888323 
L 323.997951 -373.813496 
L 324.981309 -373.714048 
L 325.964667 -373.625586 
L 326.948025 -373.520726 
L 327.931383 -373.414165 
L 328.914741 -373.30616 
L 329.898099 -373.174841 
L 330.881457 -373.045419 
L 331.864816 -372.896009 
L 332.848174 -372.710008 
L 333.831532 -372.536455 
L 334.81489 -372.315697 
L 335.798248 -372.100807 
L 336.781606 -371.864719 
L 337.764964 -371.61763 
L 338.748322 -371.347661 
L 339.73168 -371.045569 
L 340.715039 -370.735187 
L 341.698397 -370.381955 
L 342.681755 -370.035076 
L 343.665113 -369.663818 
L 344.648471 -369.290696 
L 345.631829 -368.872605 
L 346.615187 -368.466679 
L 347.598545 -368.047035 
L 348.581903 -367.589749 
L 349.565262 -367.116155 
L 350.54862 -366.617704 
L 351.531978 -366.10905 
L 352.515336 -365.584594 
L 353.498694 -365.047081 
L 354.482052 -364.513472 
L 355.46541 -363.908277 
L 356.448768 -363.305335 
L 357.432126 -362.681011 
L 358.415485 -362.063308 
L 359.398843 -361.444682 
L 360.382201 -360.820607 
L 361.365559 -360.156958 
L 362.348917 -359.512405 
L 363.332275 -358.854711 
L 364.315633 -358.200047 
L 365.298991 -357.539273 
L 366.282349 -356.859993 
L 367.265707 -356.156792 
L 368.249066 -355.506142 
L 369.232424 -354.86163 
L 370.215782 -354.212378 
L 371.19914 -353.547685 
L 372.182498 -352.911498 
L 373.165856 -352.280389 
L 374.149214 -351.653167 
L 375.132572 -351.031712 
L 376.11593 -350.419578 
L 377.099289 -349.819283 
L 378.082647 -349.229243 
L 379.066005 -348.636029 
L 380.049363 -348.070917 
L 381.032721 -347.497619 
L 382.016079 -346.957237 
L 382.999437 -346.434799 
L 383.982795 -345.890289 
L 384.966153 -345.392661 
L 385.949512 -344.863163 
L 386.93287 -344.362775 
L 387.916228 -343.88404 
L 388.899586 -343.409143 
L 389.882944 -342.987755 
L 390.866302 -342.550565 
L 391.84966 -342.119292 
L 392.833018 -341.67549 
L 393.816376 -341.262574 
L 394.799735 -340.872864 
L 395.783093 -340.499726 
L 396.766451 -340.104808 
L 397.749809 -339.753313 
L 398.733167 -339.389613 
L 399.716525 -339.049581 
L 400.699883 -338.699155 
L 401.683241 -338.364117 
L 402.666599 -338.028553 
L 403.649958 -337.709985 
L 404.633316 -337.398362 
L 405.616674 -337.073189 
L 406.600032 -336.768765 
L 407.58339 -336.470916 
L 408.566748 -336.179138 
L 409.550106 -335.875255 
L 410.533464 -335.565839 
L 411.516822 -335.268674 
L 412.50018 -334.977177 
L 413.483539 -334.673496 
L 414.466897 -334.379182 
L 415.450255 -334.085909 
L 416.433613 -333.764397 
L 417.416971 -333.471411 
L 418.400329 -333.169598 
L 419.383687 -332.889279 
L 420.367045 -332.583494 
L 421.350403 -332.261299 
L 422.333762 -331.926979 
L 423.31712 -331.577028 
L 424.300478 -331.237395 
L 425.283836 -330.87381 
L 426.267194 -330.533163 
L 427.250552 -330.158233 
L 428.23391 -329.792393 
L 429.217268 -329.422105 
L 430.200626 -329.01613 
L 431.183985 -328.621958 
L 432.167343 -328.234219 
L 433.150701 -327.796905 
L 434.134059 -327.397197 
L 435.117417 -326.963549 
L 436.100775 -326.509041 
L 437.084133 -326.031594 
L 438.067491 -325.542742 
L 439.050849 -325.084882 
L 440.034208 -324.56021 
L 441.017566 -324.046113 
L 442.000924 -323.512144 
L 442.984282 -322.949663 
L 443.96764 -322.379768 
L 444.950998 -321.800473 
L 445.934356 -321.211747 
L 446.917714 -320.608693 
L 447.901072 -319.987759 
L 448.884431 -319.342608 
L 449.867789 -318.707689 
L 450.851147 -318.049639 
L 451.834505 -317.380498 
L 452.817863 -316.690045 
L 453.801221 -315.995239 
L 454.784579 -315.245883 
L 455.767937 -314.524374 
L 456.751295 -313.771956 
L 457.734654 -313.022343 
L 458.718012 -312.256273 
L 459.70137 -311.482156 
L 460.684728 -310.676687 
L 461.668086 -309.863126 
L 462.651444 -309.038406 
L 463.634802 -308.232691 
L 464.61816 -307.381142 
L 465.601518 -306.514318 
L 466.584876 -305.651833 
L 467.568235 -304.767572 
L 468.551593 -303.872105 
L 469.534951 -302.969176 
L 470.518309 -302.032113 
L 471.501667 -301.10713 
L 472.485025 -300.163463 
L 473.468383 -299.205648 
L 474.451741 -298.256407 
L 475.435099 -297.281446 
L 476.418458 -296.298486 
L 477.401816 -295.29888 
L 478.385174 -294.283443 
L 479.368532 -293.264323 
L 480.35189 -292.233742 
L 481.335248 -291.202052 
L 482.318606 -290.166103 
L 483.301964 -289.118756 
L 484.285322 -288.058793 
L 485.268681 -286.989033 
L 486.252039 -285.890429 
L 487.235397 -284.797771 
L 488.218755 -283.676142 
L 489.202113 -282.545346 
L 490.185471 -281.40609 
L 491.168829 -280.257803 
L 492.152187 -279.077636 
L 493.135545 -277.896553 
L 494.118904 -276.689812 
L 495.102262 -275.477466 
L 496.08562 -274.252409 
L 497.068978 -273.021632 
L 498.052336 -271.777288 
L 499.035694 -270.522442 
L 500.019052 -269.251101 
L 501.00241 -267.970452 
L 501.985768 -266.663686 
L 502.969127 -265.360245 
L 503.952485 -264.022998 
L 504.935843 -262.70276 
L 505.919201 -261.363179 
L 506.902559 -260.007807 
L 507.885917 -258.611956 
L 508.869275 -257.215137 
L 509.852633 -255.809895 
L 510.835991 -254.389771 
L 511.819349 -252.968339 
L 512.802708 -251.527597 
L 513.786066 -250.083044 
L 514.769424 -248.629001 
L 515.752782 -247.168539 
L 516.73614 -245.708026 
L 517.719498 -244.212568 
L 518.702856 -242.722811 
L 519.686214 -241.235195 
L 520.669572 -239.726313 
L 521.652931 -238.207984 
L 522.636289 -236.695175 
L 523.619647 -235.205327 
L 524.603005 -233.711303 
L 525.586363 -232.21367 
L 526.569721 -230.70472 
L 527.553079 -229.203402 
L 528.536437 -227.713789 
L 529.519795 -226.216866 
L 530.503154 -224.730711 
L 531.486512 -223.260704 
L 532.46987 -221.801878 
L 533.453228 -220.361588 
L 534.436586 -218.924954 
L 535.419944 -217.512455 
L 536.403302 -216.117852 
L 537.38666 -214.748012 
L 538.370018 -213.401293 
L 539.353377 -212.02966 
L 540.336735 -210.706651 
L 541.320093 -209.432124 
L 542.303451 -208.189438 
L 543.286809 -206.958819 
L 544.270167 -205.741575 
L 545.253525 -204.556898 
L 546.236883 -203.411328 
L 547.220241 -202.268707 
L 548.2036 -201.195136 
L 549.186958 -200.126325 
L 550.170316 -199.095624 
L 551.153674 -198.1278 
L 552.137032 -197.171208 
L 553.12039 -196.253748 
L 554.103748 -195.363275 
L 555.087106 -194.530662 
L 556.070464 -193.745677 
L 557.053822 -192.975421 
L 558.037181 -192.246632 
L 559.020539 -191.558763 
L 560.003897 -190.937106 
L 560.987255 -190.304135 
L 561.970613 -189.771029 
L 562.953971 -189.228951 
L 563.937329 -188.752937 
L 564.920687 -188.306863 
L 565.904045 -187.904449 
L 566.887404 -187.557124 
L 567.870762 -187.236465 
L 568.85412 -186.970655 
L 569.837478 -186.751742 
L 570.820836 -186.555978 
L 571.804194 -186.410593 
L 572.787552 -186.309276 
L 573.77091 -186.256191 
L 573.77091 -98.090566 
L 573.77091 -98.090566 
L 572.787552 -98.090566 
L 571.804194 -98.090566 
L 570.820836 -98.090566 
L 569.837478 -98.090566 
L 568.85412 -98.090566 
L 567.870762 -98.090566 
L 566.887404 -98.090566 
L 565.904045 -98.090566 
L 564.920687 -98.090566 
L 563.937329 -98.090566 
L 562.953971 -98.090566 
L 561.970613 -98.090566 
L 560.987255 -98.090566 
L 560.003897 -98.090566 
L 559.020539 -98.090566 
L 558.037181 -98.090566 
L 557.053822 -98.090566 
L 556.070464 -98.090566 
L 555.087106 -98.090566 
L 554.103748 -98.090566 
L 553.12039 -98.090566 
L 552.137032 -98.090566 
L 551.153674 -98.090566 
L 550.170316 -98.090566 
L 549.186958 -98.090566 
L 548.2036 -98.090566 
L 547.220241 -98.090566 
L 546.236883 -98.090566 
L 545.253525 -98.090566 
L 544.270167 -98.090566 
L 543.286809 -98.090566 
L 542.303451 -98.090566 
L 541.320093 -98.090566 
L 540.336735 -98.090566 
L 539.353377 -98.090566 
L 538.370018 -98.090566 
L 537.38666 -98.090566 
L 536.403302 -98.090566 
L 535.419944 -98.090566 
L 534.436586 -98.090566 
L 533.453228 -98.090566 
L 532.46987 -98.090566 
L 531.486512 -98.090566 
L 530.503154 -98.090566 
L 529.519795 -98.090566 
L 528.536437 -98.090566 
L 527.553079 -98.090566 
L 526.569721 -98.090566 
L 525.586363 -98.090566 
L 524.603005 -98.090566 
L 523.619647 -98.090566 
L 522.636289 -98.090566 
L 521.652931 -98.090566 
L 520.669572 -98.090566 
L 519.686214 -98.090566 
L 518.702856 -98.090566 
L 517.719498 -98.090566 
L 516.73614 -98.090566 
L 515.752782 -98.090566 
L 514.769424 -98.090566 
L 513.786066 -98.090566 
L 512.802708 -98.090566 
L 511.819349 -98.090566 
L 510.835991 -98.090566 
L 509.852633 -98.090566 
L 508.869275 -98.090566 
L 507.885917 -98.090566 
L 506.902559 -98.090566 
L 505.919201 -98.090566 
L 504.935843 -98.090566 
L 503.952485 -98.090566 
L 502.969127 -98.090566 
L 501.985768 -98.090566 
L 501.00241 -98.090566 
L 500.019052 -98.090566 
L 499.035694 -98.090566 
L 498.052336 -98.090566 
L 497.068978 -98.090566 
L 496.08562 -98.090566 
L 495.102262 -98.090566 
L 494.118904 -98.090566 
L 493.135545 -98.090566 
L 492.152187 -98.090566 
L 491.168829 -98.090566 
L 490.185471 -98.090566 
L 489.202113 -98.090566 
L 488.218755 -98.090566 
L 487.235397 -98.090566 
L 486.252039 -98.090566 
L 485.268681 -98.090566 
L 484.285322 -98.090566 
L 483.301964 -98.090566 
L 482.318606 -98.090566 
L 481.335248 -98.090566 
L 480.35189 -98.090566 
L 479.368532 -98.090566 
L 478.385174 -98.090566 
L 477.401816 -98.090566 
L 476.418458 -98.090566 
L 475.435099 -98.090566 
L 474.451741 -98.090566 
L 473.468383 -98.090566 
L 472.485025 -98.090566 
L 471.501667 -98.090566 
L 470.518309 -98.090566 
L 469.534951 -98.090566 
L 468.551593 -98.090566 
L 467.568235 -98.090566 
L 466.584876 -98.090566 
L 465.601518 -98.090566 
L 464.61816 -98.090566 
L 463.634802 -98.090566 
L 462.651444 -98.090566 
L 461.668086 -98.090566 
L 460.684728 -98.090566 
L 459.70137 -98.090566 
L 458.718012 -98.090566 
L 457.734654 -98.090566 
L 456.751295 -98.090566 
L 455.767937 -98.090566 
L 454.784579 -98.090566 
L 453.801221 -98.090566 
L 452.817863 -98.090566 
L 451.834505 -98.090566 
L 450.851147 -98.090566 
L 449.867789 -98.090566 
L 448.884431 -98.090566 
L 447.901072 -98.090566 
L 446.917714 -98.090566 
L 445.934356 -98.090566 
L 444.950998 -98.090566 
L 443.96764 -98.090566 
L 442.984282 -98.090566 
L 442.000924 -98.090566 
L 441.017566 -98.090566 
L 440.034208 -98.090566 
L 439.050849 -98.090566 
L 438.067491 -98.090566 
L 437.084133 -98.090566 
L 436.100775 -98.090566 
L 435.117417 -98.090566 
L 434.134059 -98.090566 
L 433.150701 -98.090566 
L 432.167343 -98.090566 
L 431.183985 -98.090566 
L 430.200626 -98.090566 
L 429.217268 -98.090566 
L 428.23391 -98.090566 
L 427.250552 -98.090566 
L 426.267194 -98.090566 
L 425.283836 -98.090566 
L 424.300478 -98.090566 
L 423.31712 -98.090566 
L 422.333762 -98.090566 
L 421.350403 -98.090566 
L 420.367045 -98.090566 
L 419.383687 -98.090566 
L 418.400329 -98.090566 
L 417.416971 -98.090566 
L 416.433613 -98.090566 
L 415.450255 -98.090566 
L 414.466897 -98.090566 
L 413.483539 -98.090566 
L 412.50018 -98.090566 
L 411.516822 -98.090566 
L 410.533464 -98.090566 
L 409.550106 -98.090566 
L 408.566748 -98.090566 
L 407.58339 -98.090566 
L 406.600032 -98.090566 
L 405.616674 -98.090566 
L 404.633316 -98.090566 
L 403.649958 -98.090566 
L 402.666599 -98.090566 
L 401.683241 -98.090566 
L 400.699883 -98.090566 
L 399.716525 -98.090566 
L 398.733167 -98.090566 
L 397.749809 -98.090566 
L 396.766451 -98.090566 
L 395.783093 -98.090566 
L 394.799735 -98.090566 
L 393.816376 -98.090566 
L 392.833018 -98.090566 
L 391.84966 -98.090566 
L 390.866302 -98.090566 
L 389.882944 -98.090566 
L 388.899586 -98.090566 
L 387.916228 -98.090566 
L 386.93287 -98.090566 
L 385.949512 -98.090566 
L 384.966153 -98.090566 
L 383.982795 -98.090566 
L 382.999437 -98.090566 
L 382.016079 -98.090566 
L 381.032721 -98.090566 
L 380.049363 -98.090566 
L 379.066005 -98.090566 
L 378.082647 -98.090566 
L 377.099289 -98.090566 
L 376.11593 -98.090566 
L 375.132572 -98.090566 
L 374.149214 -98.090566 
L 373.165856 -98.090566 
L 372.182498 -98.090566 
L 371.19914 -98.090566 
L 370.215782 -98.090566 
L 369.232424 -98.090566 
L 368.249066 -98.090566 
L 367.265707 -98.090566 
L 366.282349 -98.090566 
L 365.298991 -98.090566 
L 364.315633 -98.090566 
L 363.332275 -98.090566 
L 362.348917 -98.090566 
L 361.365559 -98.090566 
L 360.382201 -98.090566 
L 359.398843 -98.090566 
L 358.415485 -98.090566 
L 357.432126 -98.090566 
L 356.448768 -98.090566 
L 355.46541 -98.090566 
L 354.482052 -98.090566 
L 353.498694 -98.090566 
L 352.515336 -98.090566 
L 351.531978 -98.090566 
L 350.54862 -98.090566 
L 349.565262 -98.090566 
L 348.581903 -98.090566 
L 347.598545 -98.090566 
L 346.615187 -98.090566 
L 345.631829 -98.090566 
L 344.648471 -98.090566 
L 343.665113 -98.090566 
L 342.681755 -98.090566 
L 341.698397 -98.090566 
L 340.715039 -98.090566 
L 339.73168 -98.090566 
L 338.748322 -98.090566 
L 337.764964 -98.090566 
L 336.781606 -98.090566 
L 335.798248 -98.090566 
L 334.81489 -98.090566 
L 333.831532 -98.090566 
L 332.848174 -98.090566 
L 331.864816 -98.090566 
L 330.881457 -98.090566 
L 329.898099 -98.090566 
L 328.914741 -98.090566 
L 327.931383 -98.090566 
L 326.948025 -98.090566 
L 325.964667 -98.090566 
L 324.981309 -98.090566 
L 323.997951 -98.090566 
L 323.014593 -98.090566 
L 322.031234 -98.090566 
L 321.047876 -98.090566 
L 320.064518 -98.090566 
L 319.08116 -98.090566 
L 318.097802 -98.090566 
L 317.114444 -98.090566 
L 316.131086 -98.090566 
L 315.147728 -98.090566 
L 314.16437 -98.090566 
L 313.181012 -98.090566 
L 312.197653 -98.090566 
L 311.214295 -98.090566 
L 310.230937 -98.090566 
L 309.247579 -98.090566 
L 308.264221 -98.090566 
L 307.280863 -98.090566 
L 306.297505 -98.090566 
L 305.314147 -98.090566 
L 304.330789 -98.090566 
L 303.34743 -98.090566 
L 302.364072 -98.090566 
L 301.380714 -98.090566 
L 300.397356 -98.090566 
L 299.413998 -98.090566 
L 298.43064 -98.090566 
L 297.447282 -98.090566 
L 296.463924 -98.090566 
L 295.480566 -98.090566 
L 294.497207 -98.090566 
L 293.513849 -98.090566 
L 292.530491 -98.090566 
L 291.547133 -98.090566 
L 290.563775 -98.090566 
L 289.580417 -98.090566 
L 288.597059 -98.090566 
L 287.613701 -98.090566 
L 286.630343 -98.090566 
L 285.646984 -98.090566 
L 284.663626 -98.090566 
L 283.680268 -98.090566 
L 282.69691 -98.090566 
L 281.713552 -98.090566 
L 280.730194 -98.090566 
L 279.746836 -98.090566 
L 278.763478 -98.090566 
L 277.78012 -98.090566 
L 276.796761 -98.090566 
L 275.813403 -98.090566 
L 274.830045 -98.090566 
L 273.846687 -98.090566 
L 272.863329 -98.090566 
L 271.879971 -98.090566 
L 270.896613 -98.090566 
L 269.913255 -98.090566 
L 268.929897 -98.090566 
L 267.946539 -98.090566 
L 266.96318 -98.090566 
L 265.979822 -98.090566 
L 264.996464 -98.090566 
L 264.013106 -98.090566 
L 263.029748 -98.090566 
L 262.04639 -98.090566 
L 261.063032 -98.090566 
L 260.079674 -98.090566 
L 259.096316 -98.090566 
L 258.112957 -98.090566 
L 257.129599 -98.090566 
L 256.146241 -98.090566 
L 255.162883 -98.090566 
L 254.179525 -98.090566 
L 253.196167 -98.090566 
L 252.212809 -98.090566 
L 251.229451 -98.090566 
L 250.246093 -98.090566 
L 249.262734 -98.090566 
L 248.279376 -98.090566 
L 247.296018 -98.090566 
L 246.31266 -98.090566 
L 245.329302 -98.090566 
L 244.345944 -98.090566 
L 243.362586 -98.090566 
L 242.379228 -98.090566 
L 241.39587 -98.090566 
L 240.412511 -98.090566 
L 239.429153 -98.090566 
L 238.445795 -98.090566 
L 237.462437 -98.090566 
L 236.479079 -98.090566 
L 235.495721 -98.090566 
L 234.512363 -98.090566 
L 233.529005 -98.090566 
L 232.545647 -98.090566 
L 231.562288 -98.090566 
L 230.57893 -98.090566 
L 229.595572 -98.090566 
L 228.612214 -98.090566 
L 227.628856 -98.090566 
L 226.645498 -98.090566 
L 225.66214 -98.090566 
L 224.678782 -98.090566 
L 223.695424 -98.090566 
L 222.712066 -98.090566 
L 221.728707 -98.090566 
L 220.745349 -98.090566 
L 219.761991 -98.090566 
L 218.778633 -98.090566 
L 217.795275 -98.090566 
L 216.811917 -98.090566 
L 215.828559 -98.090566 
L 214.845201 -98.090566 
L 213.861843 -98.090566 
L 212.878484 -98.090566 
L 211.895126 -98.090566 
L 210.911768 -98.090566 
L 209.92841 -98.090566 
L 208.945052 -98.090566 
L 207.961694 -98.090566 
L 206.978336 -98.090566 
L 205.994978 -98.090566 
L 205.01162 -98.090566 
L 204.028261 -98.090566 
L 203.044903 -98.090566 
L 202.061545 -98.090566 
L 201.078187 -98.090566 
L 200.094829 -98.090566 
L 199.111471 -98.090566 
L 198.128113 -98.090566 
L 197.144755 -98.090566 
L 196.161397 -98.090566 
L 195.178038 -98.090566 
L 194.19468 -98.090566 
L 193.211322 -98.090566 
L 192.227964 -98.090566 
L 191.244606 -98.090566 
L 190.261248 -98.090566 
L 189.27789 -98.090566 
L 188.294532 -98.090566 
L 187.311174 -98.090566 
L 186.327815 -98.090566 
L 185.344457 -98.090566 
L 184.361099 -98.090566 
L 183.377741 -98.090566 
L 182.394383 -98.090566 
L 181.411025 -98.090566 
L 180.427667 -98.090566 
L 179.444309 -98.090566 
L 178.460951 -98.090566 
L 177.477593 -98.090566 
L 176.494234 -98.090566 
L 175.510876 -98.090566 
L 174.527518 -98.090566 
L 173.54416 -98.090566 
L 172.560802 -98.090566 
L 171.577444 -98.090566 
L 170.594086 -98.090566 
L 169.610728 -98.090566 
L 168.62737 -98.090566 
L 167.644011 -98.090566 
L 166.660653 -98.090566 
L 165.677295 -98.090566 
L 164.693937 -98.090566 
L 163.710579 -98.090566 
L 162.727221 -98.090566 
L 161.743863 -98.090566 
L 160.760505 -98.090566 
L 159.777147 -98.090566 
L 158.793788 -98.090566 
L 157.81043 -98.090566 
L 156.827072 -98.090566 
L 155.843714 -98.090566 
L 154.860356 -98.090566 
L 153.876998 -98.090566 
L 152.89364 -98.090566 
L 151.910282 -98.090566 
L 150.926924 -98.090566 
L 149.943565 -98.090566 
L 148.960207 -98.090566 
L 147.976849 -98.090566 
L 146.993491 -98.090566 
L 146.010133 -98.090566 
L 145.026775 -98.090566 
L 144.043417 -98.090566 
L 143.060059 -98.090566 
L 142.076701 -98.090566 
L 141.093342 -98.090566 
L 140.109984 -98.090566 
L 139.126626 -98.090566 
L 138.143268 -98.090566 
L 137.15991 -98.090566 
L 136.176552 -98.090566 
L 135.193194 -98.090566 
L 134.209836 -98.090566 
L 133.226478 -98.090566 
L 132.24312 -98.090566 
L 131.259761 -98.090566 
L 130.276403 -98.090566 
L 129.293045 -98.090566 
L 128.309687 -98.090566 
L 127.326329 -98.090566 
L 126.342971 -98.090566 
L 125.359613 -98.090566 
L 124.376255 -98.090566 
L 123.392897 -98.090566 
L 122.409538 -98.090566 
L 121.42618 -98.090566 
L 120.442822 -98.090566 
L 119.459464 -98.090566 
L 118.476106 -98.090566 
L 117.492748 -98.090566 
L 116.50939 -98.090566 
L 115.526032 -98.090566 
L 114.542674 -98.090566 
L 113.559315 -98.090566 
L 112.575957 -98.090566 
L 111.592599 -98.090566 
L 110.609241 -98.090566 
L 109.625883 -98.090566 
L 108.642525 -98.090566 
L 107.659167 -98.090566 
L 106.675809 -98.090566 
L 105.692451 -98.090566 
L 104.709092 -98.090566 
L 103.725734 -98.090566 
L 102.742376 -98.090566 
L 101.759018 -98.090566 
L 100.77566 -98.090566 
L 99.792302 -98.090566 
L 98.808944 -98.090566 
L 97.825586 -98.090566 
L 96.842228 -98.090566 
L 95.858869 -98.090566 
L 94.875511 -98.090566 
L 93.892153 -98.090566 
L 92.908795 -98.090566 
L 91.925437 -98.090566 
L 90.942079 -98.090566 
L 89.958721 -98.090566 
L 88.975363 -98.090566 
L 87.992005 -98.090566 
L 87.008647 -98.090566 
L 86.025288 -98.090566 
L 85.04193 -98.090566 
L 84.058572 -98.090566 
L 83.075214 -98.090566 
L 82.091856 -98.090566 
L 81.108498 -98.090566 
L 80.12514 -98.090566 
L 79.141782 -98.090566 
L 78.158424 -98.090566 
L 77.175065 -98.090566 
L 76.191707 -98.090566 
L 75.208349 -98.090566 
L 74.224991 -98.090566 
L 73.241633 -98.090566 
L 72.258275 -98.090566 
L 71.274917 -98.090566 
z
" style="stroke: #aec7e8; stroke-opacity: 0.35; stroke-width: 0.3"/>
    </defs>
    <g clip-path="url(#p72d1227a45)">
     <use xlink:href="#m676100ef99" x="0" y="504" style="fill: #aec7e8; fill-opacity: 0.35; stroke: #aec7e8; stroke-opacity: 0.35; stroke-width: 0.3"/>
    </g>
   </g>
   <g id="line2d_7">
    <path d="M 71.274917 302.616439 
L 76.191707 302.533963 
L 81.108498 302.16302 
L 86.025288 301.439099 
L 90.942079 300.23398 
L 93.892153 299.232532 
L 96.842228 298.012184 
L 99.792302 296.491457 
L 102.742376 294.670403 
L 104.709092 293.30584 
L 107.659167 290.992246 
L 110.609241 288.371003 
L 113.559315 285.448183 
L 117.492748 281.056404 
L 121.42618 276.201042 
L 127.326329 268.333251 
L 141.093342 249.412365 
L 145.026775 244.450737 
L 147.976849 240.958342 
L 151.910282 236.67433 
L 154.860356 233.777249 
L 157.81043 231.135525 
L 161.743863 227.922385 
L 165.677295 225.087796 
L 170.594086 221.870149 
L 183.377741 213.72029 
L 187.311174 210.89044 
L 190.261248 208.583705 
L 193.211322 206.076672 
L 198.128113 201.596756 
L 205.01162 194.773036 
L 215.828559 183.67402 
L 220.745349 178.871516 
L 224.678782 175.231353 
L 228.612214 171.943984 
L 233.529005 168.157108 
L 237.462437 165.337332 
L 243.362586 161.379723 
L 263.029748 148.521065 
L 271.879971 142.65795 
L 277.78012 138.930386 
L 281.713552 136.735199 
L 285.646984 134.856877 
L 288.597059 133.656179 
L 292.530491 132.321263 
L 296.463924 131.31334 
L 300.397356 130.574651 
L 305.314147 130.046216 
L 310.230937 129.852639 
L 315.147728 129.80259 
L 322.031234 130.057363 
L 325.964667 130.374414 
L 331.864816 131.103991 
L 336.781606 132.135281 
L 339.73168 132.954431 
L 342.681755 133.964924 
L 346.615187 135.533321 
L 349.565262 136.883845 
L 354.482052 139.486528 
L 361.365559 143.843042 
L 367.265707 147.843208 
L 376.11593 153.580422 
L 381.032721 156.502381 
L 386.93287 159.637225 
L 390.866302 161.449435 
L 395.783093 163.500274 
L 398.733167 164.610387 
L 406.600032 167.231235 
L 422.333762 172.073021 
L 430.200626 174.98387 
L 435.117417 177.036451 
L 439.050849 178.915118 
L 443.96764 181.620232 
L 447.901072 184.012241 
L 453.801221 188.004761 
L 461.668086 194.136874 
L 466.584876 198.348167 
L 471.501667 202.89287 
L 477.401816 208.70112 
L 484.285322 215.941207 
L 488.218755 220.323858 
L 493.135545 226.103447 
L 499.035694 233.477558 
L 503.952485 239.977002 
L 507.885917 245.388044 
L 513.786066 253.916956 
L 520.669572 264.273687 
L 530.503154 279.269289 
L 535.419944 286.487545 
L 540.336735 293.293349 
L 544.270167 298.258425 
L 547.220241 301.731293 
L 551.153674 305.8722 
L 554.103748 308.636725 
L 557.053822 311.024579 
L 559.020539 312.441237 
L 561.970613 314.228971 
L 563.937329 315.247063 
L 565.904045 316.095551 
L 568.85412 317.029345 
L 571.804194 317.589407 
L 573.77091 317.743809 
L 573.77091 317.743809 
" clip-path="url(#p72d1227a45)" style="fill: none; stroke: #aec7e8; stroke-width: 2; stroke-linecap: round"/>
   </g>
   <g id="line2d_8">
    <path d="M 71.274917 406.942364 
L 71.274917 302.616439 
" clip-path="url(#p72d1227a45)" style="fill: none; stroke: #aec7e8; stroke-width: 2; stroke-linecap: round"/>
   </g>
   <g id="line2d_9">
    <path d="M 573.77091 406.79109 
L 573.77091 317.743809 
" clip-path="url(#p72d1227a45)" style="fill: none; stroke: #aec7e8; stroke-width: 2; stroke-linecap: round"/>
   </g>
   <g id="line2d_10">
    <defs>
     <path id="m20cb528ac5" d="M 0 3.5 
C 0.928211 3.5 1.81853 3.131218 2.474874 2.474874 
C 3.131218 1.81853 3.5 0.928211 3.5 0 
C 3.5 -0.928211 3.131218 -1.81853 2.474874 -2.474874 
C 1.81853 -3.131218 0.928211 -3.5 0 -3.5 
C -0.928211 -3.5 -1.81853 -3.131218 -2.474874 -2.474874 
C -3.131218 -1.81853 -3.5 -0.928211 -3.5 0 
C -3.5 0.928211 -3.131218 1.81853 -2.474874 2.474874 
C -1.81853 3.131218 -0.928211 3.5 0 3.5 
z
"/>
    </defs>
    <g clip-path="url(#p72d1227a45)">
     <use xlink:href="#m20cb528ac5" x="323.162105" y="405.909434" style="fill: #aec7e8"/>
    </g>
   </g>
   <g id="patch_3">
    <path d="M 46.150117 420.8 
L 598.89571 420.8 
" style="fill: none; stroke: #333333; stroke-width: 1.5; stroke-linejoin: miter; stroke-linecap: square"/>
   </g>
   <g id="text_4">
    <!-- $x_1^2$ -->
    <g style="fill: #262626" transform="translate(280.342914 94.652)">
     <text>
      <tspan x="0" y="-0.421875" style="font-style: oblique; font-size: 76px; font-family: 'DejaVu Sans'; fill: #262626">x</tspan>
      <tspan x="44.976562" y="20.359375" style="font-size: 53.2px; font-family: 'DejaVu Sans'; fill: #262626">1</tspan>
      <tspan x="48.370833" y="-29.515625" style="font-size: 53.2px; font-family: 'DejaVu Sans'; fill: #262626">2</tspan>
     </text>
    </g>
   </g>
  </g>
 </g>
 <defs>
  <clipPath id="p72d1227a45">
   <rect x="46.150117" y="115.932" width="552.745593" height="304.868"/>
  </clipPath>
 </defs>
</svg>
