<?xml version="1.0" encoding="utf-8" standalone="no"?>
<!DOCTYPE svg PUBLIC "-//W3C//DTD SVG 1.1//EN"
  "http://www.w3.org/Graphics/SVG/1.1/DTD/svg11.dtd">
<svg xmlns:xlink="http://www.w3.org/1999/xlink" width="648pt" height="504pt" viewBox="0 0 648 504" xmlns="http://www.w3.org/2000/svg" version="1.1">
 <metadata>
  <rdf:RDF xmlns:dc="http://purl.org/dc/elements/1.1/" xmlns:cc="http://creativecommons.org/ns#" xmlns:rdf="http://www.w3.org/1999/02/22-rdf-syntax-ns#">
   <cc:Work>
    <dc:type rdf:resource="http://purl.org/dc/dcmitype/StillImage"/>
    <dc:date>2026-02-22T16:15:36.591967</dc:date>
    <dc:format>image/svg+xml</dc:format>
    <dc:creator>
     <cc:Agent>
      <dc:title>Matplotlib v3.10.6, https://matplotlib.org/</dc:title>
     </cc:Agent>
    </dc:creator>
   </cc:Work>
  </rdf:RDF>
 </metadata>
 <defs>
  <style type="text/css">*{stroke-linejoin: round; stroke-linecap: butt}</style>
 </defs>
 <g id="figure_1">
  <g id="patch_1">
   <path d="M 0 504 
L 648 504 
L 648 0 
L 0 0 
L 0 504 
z
" style="fill: none; opacity: 0"/>
  </g>
  <g id="axes_1">
   <g id="patch_2">
    <path d="M 25.92 420.8 
L 590.834106 420.8 
L 590.834106 115.932 
L 25.92 115.932 
L 25.92 420.8 
z
" style="fill: none"/>
   </g>
   <g id="matplotlib.axis_1">
    <g id="xtick_1">
     <g id="line2d_1">
      <path d="M 136.881317 420.8 
L 136.881317 115.932 
" clip-path="url(#p93b75ef14f)" style="fill: none; stroke: #ffffff; stroke-opacity: 0.4; stroke-linecap: round"/>
     </g>
     <g id="line2d_2"/>
     <g id="text_1">
      <text style="font-size: 52px; font-family: 'DejaVu Serif', 'Times New Roman', serif; text-anchor: middle; fill: #262626" x="136.881317" y="467.311875" transform="rotate(-0 136.881317 467.311875)">−0.26</text>
     </g>
    </g>
    <g id="xtick_2">
     <g id="line2d_3">
      <path d="M 336.612245 420.8 
L 336.612245 115.932 
" clip-path="url(#p93b75ef14f)" style="fill: none; stroke: #ffffff; stroke-opacity: 0.4; stroke-linecap: round"/>
     </g>
     <g id="line2d_4"/>
     <g id="text_2">
      <text style="font-size: 52px; font-family: 'DejaVu Serif', 'Times New Roman', serif; text-anchor: middle; fill: #262626" x="336.612245" y="467.311875" transform="rotate(-0 336.612245 467.311875)">−0.25</text>
     </g>
    </g>
    <g id="xtick_3">
     <g id="line2d_5">
      <path d="M 536.343173 420.8 
L 536.343173 115.932 
" clip-path="url(#p93b75ef14f)" style="fill: none; stroke: #ffffff; stroke-opacity: 0.4; stroke-linecap: round"/>
     </g>
     <g id="line2d_6"/>
     <g id="text_3">
      <text style="font-size: 52px; font-family: 'DejaVu Serif', 'Times New Roman', serif; text-anchor: middle; fill: #262626" x="536.343173" y="467.311875" transform="rotate(-0 536.343173 467.311875)">−0.24</text>
     </g>
    </g>
   </g>
   <g id="matplotlib.axis_2"/>
   <g id="FillBetweenPolyCollection_1">
    <defs>
     <path id="m8cde4f6d6d" d="M 51.597914 -98.12376 
L 51.597914 -204.7361 
L 52.60292 -204.769146 
L 53.607927 -204.809357 
L 54.612933 -204.903848 
L 55.61794 -205.017798 
L 56.622946 -205.168716 
L 57.627952 -205.359426 
L 58.632959 -205.599075 
L 59.637965 -205.858385 
L 60.642972 -206.136149 
L 61.647978 -206.455012 
L 62.652984 -206.804574 
L 63.657991 -207.17669 
L 64.662997 -207.574157 
L 65.668004 -207.996522 
L 66.67301 -208.466085 
L 67.678017 -208.952127 
L 68.683023 -209.441968 
L 69.688029 -210.002234 
L 70.693036 -210.571038 
L 71.698042 -211.166734 
L 72.703049 -211.787575 
L 73.708055 -212.426378 
L 74.713061 -213.086579 
L 75.718068 -213.766393 
L 76.723074 -214.464864 
L 77.728081 -215.203653 
L 78.733087 -215.95131 
L 79.738094 -216.708574 
L 80.7431 -217.467504 
L 81.748106 -218.247657 
L 82.753113 -219.041467 
L 83.758119 -219.850843 
L 84.763126 -220.689286 
L 85.768132 -221.53306 
L 86.773138 -222.37056 
L 87.778145 -223.223943 
L 88.783151 -224.087605 
L 89.788158 -224.96188 
L 90.793164 -225.832097 
L 91.798171 -226.712369 
L 92.803177 -227.615641 
L 93.808183 -228.503776 
L 94.81319 -229.412572 
L 95.818196 -230.305119 
L 96.823203 -231.244014 
L 97.828209 -232.1776 
L 98.833215 -233.130792 
L 99.838222 -234.07697 
L 100.843228 -235.035483 
L 101.848235 -235.993086 
L 102.853241 -236.952188 
L 103.858248 -237.919544 
L 104.863254 -238.913048 
L 105.86826 -239.890088 
L 106.873267 -240.87397 
L 107.878273 -241.86745 
L 108.88328 -242.877702 
L 109.888286 -243.874082 
L 110.893292 -244.900239 
L 111.898299 -245.920861 
L 112.903305 -246.951993 
L 113.908312 -247.985346 
L 114.913318 -249.033271 
L 115.918325 -250.089943 
L 116.923331 -251.152824 
L 117.928337 -252.222037 
L 118.933344 -253.303087 
L 119.93835 -254.375493 
L 120.943357 -255.463552 
L 121.948363 -256.569841 
L 122.953369 -257.680902 
L 123.958376 -258.76267 
L 124.963382 -259.877594 
L 125.968389 -260.994985 
L 126.973395 -262.093111 
L 127.978401 -263.207529 
L 128.983408 -264.310864 
L 129.988414 -265.428791 
L 130.993421 -266.524484 
L 131.998427 -267.607343 
L 133.003434 -268.746978 
L 134.00844 -269.820803 
L 135.013446 -270.902217 
L 136.018453 -271.974257 
L 137.023459 -273.046372 
L 138.028466 -274.104069 
L 139.033472 -275.147501 
L 140.038478 -276.19297 
L 141.043485 -277.217864 
L 142.048491 -278.210225 
L 143.053498 -279.186422 
L 144.058504 -280.175905 
L 145.063511 -281.128147 
L 146.068517 -282.062667 
L 147.073523 -282.99281 
L 148.07853 -283.876495 
L 149.083536 -284.730688 
L 150.088543 -285.579464 
L 151.093549 -286.408054 
L 152.098555 -287.22004 
L 153.103562 -288.000965 
L 154.108568 -288.778258 
L 155.113575 -289.533174 
L 156.118581 -290.252093 
L 157.123588 -290.994829 
L 158.128594 -291.702226 
L 159.1336 -292.372026 
L 160.138607 -293.070695 
L 161.143613 -293.75536 
L 162.14862 -294.416993 
L 163.153626 -295.076877 
L 164.158632 -295.720212 
L 165.163639 -296.361702 
L 166.168645 -297.00589 
L 167.173652 -297.601902 
L 168.178658 -298.228841 
L 169.183665 -298.848669 
L 170.188671 -299.476058 
L 171.193677 -300.099312 
L 172.198684 -300.740945 
L 173.20369 -301.39824 
L 174.208697 -302.048817 
L 175.213703 -302.751726 
L 176.218709 -303.441372 
L 177.223716 -304.155034 
L 178.228722 -304.89143 
L 179.233729 -305.621176 
L 180.238735 -306.399725 
L 181.243742 -307.165226 
L 182.248748 -307.957322 
L 183.253754 -308.773036 
L 184.258761 -309.619546 
L 185.263767 -310.478003 
L 186.268774 -311.348556 
L 187.27378 -312.253488 
L 188.278786 -313.162277 
L 189.283793 -314.101629 
L 190.288799 -315.063863 
L 191.293806 -316.051862 
L 192.298812 -317.063403 
L 193.303818 -318.105202 
L 194.308825 -319.14103 
L 195.313831 -320.209466 
L 196.318838 -321.293042 
L 197.323844 -322.405176 
L 198.328851 -323.522712 
L 199.333857 -324.649375 
L 200.338863 -325.80743 
L 201.34387 -326.948749 
L 202.348876 -328.11159 
L 203.353883 -329.260598 
L 204.358889 -330.419255 
L 205.363895 -331.596638 
L 206.368902 -332.742108 
L 207.373908 -333.90039 
L 208.378915 -335.080574 
L 209.383921 -336.214775 
L 210.388928 -337.351972 
L 211.393934 -338.473174 
L 212.39894 -339.623852 
L 213.403947 -340.736268 
L 214.408953 -341.854296 
L 215.41396 -342.957948 
L 216.418966 -344.060387 
L 217.423972 -345.116548 
L 218.428979 -346.157914 
L 219.433985 -347.220021 
L 220.438992 -348.260165 
L 221.443998 -349.284901 
L 222.449005 -350.288943 
L 223.454011 -351.249641 
L 224.459017 -352.195413 
L 225.464024 -353.155809 
L 226.46903 -354.075195 
L 227.474037 -354.957041 
L 228.479043 -355.818633 
L 229.484049 -356.692379 
L 230.489056 -357.53406 
L 231.494062 -358.33079 
L 232.499069 -359.136626 
L 233.504075 -359.913412 
L 234.509082 -360.666102 
L 235.514088 -361.40841 
L 236.519094 -362.099063 
L 237.524101 -362.808309 
L 238.529107 -363.470301 
L 239.534114 -364.147516 
L 240.53912 -364.787843 
L 241.544126 -365.393252 
L 242.549133 -365.990035 
L 243.554139 -366.557047 
L 244.559146 -367.100907 
L 245.564152 -367.639946 
L 246.569159 -368.171522 
L 247.574165 -368.649785 
L 248.579171 -369.113961 
L 249.584178 -369.563119 
L 250.589184 -370.005614 
L 251.594191 -370.422749 
L 252.599197 -370.808582 
L 253.604203 -371.192646 
L 254.60921 -371.559458 
L 255.614216 -371.870979 
L 256.619223 -372.173173 
L 257.624229 -372.440893 
L 258.629235 -372.700821 
L 259.634242 -372.935615 
L 260.639248 -373.141316 
L 261.644255 -373.336729 
L 262.649261 -373.509383 
L 263.654268 -373.676135 
L 264.659274 -373.81804 
L 265.66428 -373.929354 
L 266.669287 -374.037106 
L 267.674293 -374.109469 
L 268.6793 -374.179008 
L 269.684306 -374.198897 
L 270.689312 -374.210364 
L 271.694319 -374.206614 
L 272.699325 -374.158079 
L 273.704332 -374.121215 
L 274.709338 -374.070113 
L 275.714345 -373.989205 
L 276.719351 -373.89547 
L 277.724357 -373.796519 
L 278.729364 -373.672467 
L 279.73437 -373.548773 
L 280.739377 -373.397039 
L 281.744383 -373.224105 
L 282.749389 -373.05914 
L 283.754396 -372.869334 
L 284.759402 -372.669893 
L 285.764409 -372.473544 
L 286.769415 -372.253781 
L 287.774422 -372.04593 
L 288.779428 -371.814542 
L 289.784434 -371.551833 
L 290.789441 -371.321558 
L 291.794447 -371.037057 
L 292.799454 -370.819142 
L 293.80446 -370.558641 
L 294.809466 -370.303435 
L 295.814473 -370.031712 
L 296.819479 -369.760455 
L 297.824486 -369.477115 
L 298.829492 -369.181987 
L 299.834499 -368.915454 
L 300.839505 -368.661493 
L 301.844511 -368.368643 
L 302.849518 -368.073755 
L 303.854524 -367.788485 
L 304.859531 -367.502413 
L 305.864537 -367.199222 
L 306.869543 -366.949127 
L 307.87455 -366.675924 
L 308.879556 -366.381901 
L 309.884563 -366.103415 
L 310.889569 -365.814764 
L 311.894576 -365.527432 
L 312.899582 -365.242823 
L 313.904588 -364.981013 
L 314.909595 -364.700165 
L 315.914601 -364.398173 
L 316.919608 -364.126694 
L 317.924614 -363.87997 
L 318.92962 -363.575823 
L 319.934627 -363.297038 
L 320.939633 -363.012516 
L 321.94464 -362.741558 
L 322.949646 -362.474893 
L 323.954652 -362.222561 
L 324.959659 -361.939852 
L 325.964665 -361.695617 
L 326.969672 -361.444517 
L 327.974678 -361.197868 
L 328.979685 -360.965739 
L 329.984691 -360.720813 
L 330.989697 -360.483307 
L 331.994704 -360.253751 
L 332.99971 -360.031451 
L 334.004717 -359.786996 
L 335.009723 -359.581326 
L 336.014729 -359.377516 
L 337.019736 -359.159099 
L 338.024742 -358.946627 
L 339.029749 -358.741518 
L 340.034755 -358.562154 
L 341.039762 -358.383174 
L 342.044768 -358.193772 
L 343.049774 -357.996305 
L 344.054781 -357.818261 
L 345.059787 -357.642247 
L 346.064794 -357.47407 
L 347.0698 -357.313689 
L 348.074806 -357.154384 
L 349.079813 -356.99253 
L 350.084819 -356.806601 
L 351.089826 -356.620163 
L 352.094832 -356.433892 
L 353.099839 -356.229395 
L 354.104845 -356.048393 
L 355.109851 -355.866297 
L 356.114858 -355.641988 
L 357.119864 -355.424576 
L 358.124871 -355.212011 
L 359.129877 -354.959855 
L 360.134883 -354.726593 
L 361.13989 -354.47449 
L 362.144896 -354.239923 
L 363.149903 -353.977138 
L 364.154909 -353.689239 
L 365.159916 -353.395361 
L 366.164922 -353.069346 
L 367.169928 -352.736393 
L 368.174935 -352.392575 
L 369.179941 -352.029548 
L 370.184948 -351.664564 
L 371.189954 -351.234056 
L 372.19496 -350.814155 
L 373.199967 -350.352399 
L 374.204973 -349.862129 
L 375.20998 -349.37175 
L 376.214986 -348.860195 
L 377.219993 -348.313852 
L 378.224999 -347.722779 
L 379.230005 -347.115997 
L 380.235012 -346.487097 
L 381.240018 -345.852202 
L 382.245025 -345.206383 
L 383.250031 -344.539086 
L 384.255037 -343.793081 
L 385.260044 -343.059473 
L 386.26505 -342.337491 
L 387.270057 -341.561062 
L 388.275063 -340.756127 
L 389.280069 -339.940194 
L 390.285076 -339.148976 
L 391.290082 -338.283626 
L 392.295089 -337.405112 
L 393.300095 -336.533419 
L 394.305102 -335.644837 
L 395.310108 -334.7337 
L 396.315114 -333.785869 
L 397.320121 -332.857948 
L 398.325127 -331.908466 
L 399.330134 -330.943181 
L 400.33514 -330.022915 
L 401.340146 -329.055794 
L 402.345153 -328.079561 
L 403.350159 -327.115351 
L 404.355166 -326.126476 
L 405.360172 -325.135246 
L 406.365179 -324.152864 
L 407.370185 -323.154213 
L 408.375191 -322.156272 
L 409.380198 -321.145384 
L 410.385204 -320.154214 
L 411.390211 -319.174806 
L 412.395217 -318.191529 
L 413.400223 -317.21397 
L 414.40523 -316.243151 
L 415.410236 -315.285318 
L 416.415243 -314.340681 
L 417.420249 -313.382506 
L 418.425256 -312.426715 
L 419.430262 -311.497089 
L 420.435268 -310.567535 
L 421.440275 -309.632355 
L 422.445281 -308.680159 
L 423.450288 -307.740892 
L 424.455294 -306.839703 
L 425.4603 -305.941926 
L 426.465307 -305.051774 
L 427.470313 -304.167751 
L 428.47532 -303.302529 
L 429.480326 -302.464245 
L 430.485333 -301.613039 
L 431.490339 -300.791089 
L 432.495345 -299.982939 
L 433.500352 -299.159737 
L 434.505358 -298.357243 
L 435.510365 -297.554527 
L 436.515371 -296.755004 
L 437.520377 -295.978527 
L 438.525384 -295.199818 
L 439.53039 -294.42842 
L 440.535397 -293.682836 
L 441.540403 -292.953459 
L 442.54541 -292.22007 
L 443.550416 -291.502485 
L 444.555422 -290.79376 
L 445.560429 -290.078977 
L 446.565435 -289.375467 
L 447.570442 -288.691141 
L 448.575448 -288.037013 
L 449.580454 -287.356247 
L 450.585461 -286.692961 
L 451.590467 -286.006517 
L 452.595474 -285.355625 
L 453.60048 -284.688924 
L 454.605486 -284.039628 
L 455.610493 -283.39018 
L 456.615499 -282.74663 
L 457.620506 -282.118196 
L 458.625512 -281.468134 
L 459.630519 -280.806304 
L 460.635525 -280.180122 
L 461.640531 -279.544826 
L 462.645538 -278.911679 
L 463.650544 -278.276899 
L 464.655551 -277.639015 
L 465.660557 -276.97096 
L 466.665563 -276.306077 
L 467.67057 -275.665045 
L 468.675576 -274.98615 
L 469.680583 -274.315809 
L 470.685589 -273.6422 
L 471.690596 -272.942246 
L 472.695602 -272.214006 
L 473.700608 -271.515899 
L 474.705615 -270.79017 
L 475.710621 -270.049907 
L 476.715628 -269.297922 
L 477.720634 -268.553628 
L 478.72564 -267.772835 
L 479.730647 -266.994295 
L 480.735653 -266.197497 
L 481.74066 -265.386449 
L 482.745666 -264.550558 
L 483.750673 -263.720881 
L 484.755679 -262.856311 
L 485.760685 -261.968139 
L 486.765692 -261.069934 
L 487.770698 -260.155713 
L 488.775705 -259.224198 
L 489.780711 -258.278147 
L 490.785717 -257.304691 
L 491.790724 -256.33071 
L 492.79573 -255.339988 
L 493.800737 -254.330615 
L 494.805743 -253.290027 
L 495.81075 -252.254356 
L 496.815756 -251.222978 
L 497.820762 -250.144435 
L 498.825769 -249.050502 
L 499.830775 -247.954761 
L 500.835782 -246.857582 
L 501.840788 -245.744874 
L 502.845794 -244.608176 
L 503.850801 -243.468861 
L 504.855807 -242.310926 
L 505.860814 -241.142365 
L 506.86582 -239.96802 
L 507.870827 -238.795916 
L 508.875833 -237.628987 
L 509.880839 -236.45501 
L 510.885846 -235.279953 
L 511.890852 -234.12471 
L 512.895859 -232.946957 
L 513.900865 -231.767987 
L 514.905871 -230.600685 
L 515.910878 -229.439184 
L 516.915884 -228.286014 
L 517.920891 -227.142073 
L 518.925897 -225.998021 
L 519.930903 -224.855907 
L 520.93591 -223.710958 
L 521.940916 -222.594047 
L 522.945923 -221.479035 
L 523.950929 -220.394096 
L 524.955936 -219.333236 
L 525.960942 -218.262248 
L 526.965948 -217.229743 
L 527.970955 -216.224879 
L 528.975961 -215.188472 
L 529.980968 -214.20229 
L 530.985974 -213.234034 
L 531.99098 -212.297033 
L 532.995987 -211.384998 
L 534.000993 -210.473594 
L 535.006 -209.589292 
L 536.011006 -208.760878 
L 537.016013 -207.94542 
L 538.021019 -207.136879 
L 539.026025 -206.35931 
L 540.031032 -205.603678 
L 541.036038 -204.884114 
L 542.041045 -204.198693 
L 543.046051 -203.5443 
L 544.051057 -202.899607 
L 545.056064 -202.290548 
L 546.06107 -201.70751 
L 547.066077 -201.138735 
L 548.071083 -200.614564 
L 549.07609 -200.109979 
L 550.081096 -199.648239 
L 551.086102 -199.199355 
L 552.091109 -198.780237 
L 553.096115 -198.373189 
L 554.101122 -198.024854 
L 555.106128 -197.710394 
L 556.111134 -197.412576 
L 557.116141 -197.125515 
L 558.121147 -196.904275 
L 559.126154 -196.670699 
L 560.13116 -196.470169 
L 561.136167 -196.321297 
L 562.141173 -196.195836 
L 563.146179 -196.102385 
L 564.151186 -196.030723 
L 565.156192 -195.991498 
L 565.156192 -98.12376 
L 565.156192 -98.12376 
L 564.151186 -98.12376 
L 563.146179 -98.12376 
L 562.141173 -98.12376 
L 561.136167 -98.12376 
L 560.13116 -98.12376 
L 559.126154 -98.12376 
L 558.121147 -98.12376 
L 557.116141 -98.12376 
L 556.111134 -98.12376 
L 555.106128 -98.12376 
L 554.101122 -98.12376 
L 553.096115 -98.12376 
L 552.091109 -98.12376 
L 551.086102 -98.12376 
L 550.081096 -98.12376 
L 549.07609 -98.12376 
L 548.071083 -98.12376 
L 547.066077 -98.12376 
L 546.06107 -98.12376 
L 545.056064 -98.12376 
L 544.051057 -98.12376 
L 543.046051 -98.12376 
L 542.041045 -98.12376 
L 541.036038 -98.12376 
L 540.031032 -98.12376 
L 539.026025 -98.12376 
L 538.021019 -98.12376 
L 537.016013 -98.12376 
L 536.011006 -98.12376 
L 535.006 -98.12376 
L 534.000993 -98.12376 
L 532.995987 -98.12376 
L 531.99098 -98.12376 
L 530.985974 -98.12376 
L 529.980968 -98.12376 
L 528.975961 -98.12376 
L 527.970955 -98.12376 
L 526.965948 -98.12376 
L 525.960942 -98.12376 
L 524.955936 -98.12376 
L 523.950929 -98.12376 
L 522.945923 -98.12376 
L 521.940916 -98.12376 
L 520.93591 -98.12376 
L 519.930903 -98.12376 
L 518.925897 -98.12376 
L 517.920891 -98.12376 
L 516.915884 -98.12376 
L 515.910878 -98.12376 
L 514.905871 -98.12376 
L 513.900865 -98.12376 
L 512.895859 -98.12376 
L 511.890852 -98.12376 
L 510.885846 -98.12376 
L 509.880839 -98.12376 
L 508.875833 -98.12376 
L 507.870827 -98.12376 
L 506.86582 -98.12376 
L 505.860814 -98.12376 
L 504.855807 -98.12376 
L 503.850801 -98.12376 
L 502.845794 -98.12376 
L 501.840788 -98.12376 
L 500.835782 -98.12376 
L 499.830775 -98.12376 
L 498.825769 -98.12376 
L 497.820762 -98.12376 
L 496.815756 -98.12376 
L 495.81075 -98.12376 
L 494.805743 -98.12376 
L 493.800737 -98.12376 
L 492.79573 -98.12376 
L 491.790724 -98.12376 
L 490.785717 -98.12376 
L 489.780711 -98.12376 
L 488.775705 -98.12376 
L 487.770698 -98.12376 
L 486.765692 -98.12376 
L 485.760685 -98.12376 
L 484.755679 -98.12376 
L 483.750673 -98.12376 
L 482.745666 -98.12376 
L 481.74066 -98.12376 
L 480.735653 -98.12376 
L 479.730647 -98.12376 
L 478.72564 -98.12376 
L 477.720634 -98.12376 
L 476.715628 -98.12376 
L 475.710621 -98.12376 
L 474.705615 -98.12376 
L 473.700608 -98.12376 
L 472.695602 -98.12376 
L 471.690596 -98.12376 
L 470.685589 -98.12376 
L 469.680583 -98.12376 
L 468.675576 -98.12376 
L 467.67057 -98.12376 
L 466.665563 -98.12376 
L 465.660557 -98.12376 
L 464.655551 -98.12376 
L 463.650544 -98.12376 
L 462.645538 -98.12376 
L 461.640531 -98.12376 
L 460.635525 -98.12376 
L 459.630519 -98.12376 
L 458.625512 -98.12376 
L 457.620506 -98.12376 
L 456.615499 -98.12376 
L 455.610493 -98.12376 
L 454.605486 -98.12376 
L 453.60048 -98.12376 
L 452.595474 -98.12376 
L 451.590467 -98.12376 
L 450.585461 -98.12376 
L 449.580454 -98.12376 
L 448.575448 -98.12376 
L 447.570442 -98.12376 
L 446.565435 -98.12376 
L 445.560429 -98.12376 
L 444.555422 -98.12376 
L 443.550416 -98.12376 
L 442.54541 -98.12376 
L 441.540403 -98.12376 
L 440.535397 -98.12376 
L 439.53039 -98.12376 
L 438.525384 -98.12376 
L 437.520377 -98.12376 
L 436.515371 -98.12376 
L 435.510365 -98.12376 
L 434.505358 -98.12376 
L 433.500352 -98.12376 
L 432.495345 -98.12376 
L 431.490339 -98.12376 
L 430.485333 -98.12376 
L 429.480326 -98.12376 
L 428.47532 -98.12376 
L 427.470313 -98.12376 
L 426.465307 -98.12376 
L 425.4603 -98.12376 
L 424.455294 -98.12376 
L 423.450288 -98.12376 
L 422.445281 -98.12376 
L 421.440275 -98.12376 
L 420.435268 -98.12376 
L 419.430262 -98.12376 
L 418.425256 -98.12376 
L 417.420249 -98.12376 
L 416.415243 -98.12376 
L 415.410236 -98.12376 
L 414.40523 -98.12376 
L 413.400223 -98.12376 
L 412.395217 -98.12376 
L 411.390211 -98.12376 
L 410.385204 -98.12376 
L 409.380198 -98.12376 
L 408.375191 -98.12376 
L 407.370185 -98.12376 
L 406.365179 -98.12376 
L 405.360172 -98.12376 
L 404.355166 -98.12376 
L 403.350159 -98.12376 
L 402.345153 -98.12376 
L 401.340146 -98.12376 
L 400.33514 -98.12376 
L 399.330134 -98.12376 
L 398.325127 -98.12376 
L 397.320121 -98.12376 
L 396.315114 -98.12376 
L 395.310108 -98.12376 
L 394.305102 -98.12376 
L 393.300095 -98.12376 
L 392.295089 -98.12376 
L 391.290082 -98.12376 
L 390.285076 -98.12376 
L 389.280069 -98.12376 
L 388.275063 -98.12376 
L 387.270057 -98.12376 
L 386.26505 -98.12376 
L 385.260044 -98.12376 
L 384.255037 -98.12376 
L 383.250031 -98.12376 
L 382.245025 -98.12376 
L 381.240018 -98.12376 
L 380.235012 -98.12376 
L 379.230005 -98.12376 
L 378.224999 -98.12376 
L 377.219993 -98.12376 
L 376.214986 -98.12376 
L 375.20998 -98.12376 
L 374.204973 -98.12376 
L 373.199967 -98.12376 
L 372.19496 -98.12376 
L 371.189954 -98.12376 
L 370.184948 -98.12376 
L 369.179941 -98.12376 
L 368.174935 -98.12376 
L 367.169928 -98.12376 
L 366.164922 -98.12376 
L 365.159916 -98.12376 
L 364.154909 -98.12376 
L 363.149903 -98.12376 
L 362.144896 -98.12376 
L 361.13989 -98.12376 
L 360.134883 -98.12376 
L 359.129877 -98.12376 
L 358.124871 -98.12376 
L 357.119864 -98.12376 
L 356.114858 -98.12376 
L 355.109851 -98.12376 
L 354.104845 -98.12376 
L 353.099839 -98.12376 
L 352.094832 -98.12376 
L 351.089826 -98.12376 
L 350.084819 -98.12376 
L 349.079813 -98.12376 
L 348.074806 -98.12376 
L 347.0698 -98.12376 
L 346.064794 -98.12376 
L 345.059787 -98.12376 
L 344.054781 -98.12376 
L 343.049774 -98.12376 
L 342.044768 -98.12376 
L 341.039762 -98.12376 
L 340.034755 -98.12376 
L 339.029749 -98.12376 
L 338.024742 -98.12376 
L 337.019736 -98.12376 
L 336.014729 -98.12376 
L 335.009723 -98.12376 
L 334.004717 -98.12376 
L 332.99971 -98.12376 
L 331.994704 -98.12376 
L 330.989697 -98.12376 
L 329.984691 -98.12376 
L 328.979685 -98.12376 
L 327.974678 -98.12376 
L 326.969672 -98.12376 
L 325.964665 -98.12376 
L 324.959659 -98.12376 
L 323.954652 -98.12376 
L 322.949646 -98.12376 
L 321.94464 -98.12376 
L 320.939633 -98.12376 
L 319.934627 -98.12376 
L 318.92962 -98.12376 
L 317.924614 -98.12376 
L 316.919608 -98.12376 
L 315.914601 -98.12376 
L 314.909595 -98.12376 
L 313.904588 -98.12376 
L 312.899582 -98.12376 
L 311.894576 -98.12376 
L 310.889569 -98.12376 
L 309.884563 -98.12376 
L 308.879556 -98.12376 
L 307.87455 -98.12376 
L 306.869543 -98.12376 
L 305.864537 -98.12376 
L 304.859531 -98.12376 
L 303.854524 -98.12376 
L 302.849518 -98.12376 
L 301.844511 -98.12376 
L 300.839505 -98.12376 
L 299.834499 -98.12376 
L 298.829492 -98.12376 
L 297.824486 -98.12376 
L 296.819479 -98.12376 
L 295.814473 -98.12376 
L 294.809466 -98.12376 
L 293.80446 -98.12376 
L 292.799454 -98.12376 
L 291.794447 -98.12376 
L 290.789441 -98.12376 
L 289.784434 -98.12376 
L 288.779428 -98.12376 
L 287.774422 -98.12376 
L 286.769415 -98.12376 
L 285.764409 -98.12376 
L 284.759402 -98.12376 
L 283.754396 -98.12376 
L 282.749389 -98.12376 
L 281.744383 -98.12376 
L 280.739377 -98.12376 
L 279.73437 -98.12376 
L 278.729364 -98.12376 
L 277.724357 -98.12376 
L 276.719351 -98.12376 
L 275.714345 -98.12376 
L 274.709338 -98.12376 
L 273.704332 -98.12376 
L 272.699325 -98.12376 
L 271.694319 -98.12376 
L 270.689312 -98.12376 
L 269.684306 -98.12376 
L 268.6793 -98.12376 
L 267.674293 -98.12376 
L 266.669287 -98.12376 
L 265.66428 -98.12376 
L 264.659274 -98.12376 
L 263.654268 -98.12376 
L 262.649261 -98.12376 
L 261.644255 -98.12376 
L 260.639248 -98.12376 
L 259.634242 -98.12376 
L 258.629235 -98.12376 
L 257.624229 -98.12376 
L 256.619223 -98.12376 
L 255.614216 -98.12376 
L 254.60921 -98.12376 
L 253.604203 -98.12376 
L 252.599197 -98.12376 
L 251.594191 -98.12376 
L 250.589184 -98.12376 
L 249.584178 -98.12376 
L 248.579171 -98.12376 
L 247.574165 -98.12376 
L 246.569159 -98.12376 
L 245.564152 -98.12376 
L 244.559146 -98.12376 
L 243.554139 -98.12376 
L 242.549133 -98.12376 
L 241.544126 -98.12376 
L 240.53912 -98.12376 
L 239.534114 -98.12376 
L 238.529107 -98.12376 
L 237.524101 -98.12376 
L 236.519094 -98.12376 
L 235.514088 -98.12376 
L 234.509082 -98.12376 
L 233.504075 -98.12376 
L 232.499069 -98.12376 
L 231.494062 -98.12376 
L 230.489056 -98.12376 
L 229.484049 -98.12376 
L 228.479043 -98.12376 
L 227.474037 -98.12376 
L 226.46903 -98.12376 
L 225.464024 -98.12376 
L 224.459017 -98.12376 
L 223.454011 -98.12376 
L 222.449005 -98.12376 
L 221.443998 -98.12376 
L 220.438992 -98.12376 
L 219.433985 -98.12376 
L 218.428979 -98.12376 
L 217.423972 -98.12376 
L 216.418966 -98.12376 
L 215.41396 -98.12376 
L 214.408953 -98.12376 
L 213.403947 -98.12376 
L 212.39894 -98.12376 
L 211.393934 -98.12376 
L 210.388928 -98.12376 
L 209.383921 -98.12376 
L 208.378915 -98.12376 
L 207.373908 -98.12376 
L 206.368902 -98.12376 
L 205.363895 -98.12376 
L 204.358889 -98.12376 
L 203.353883 -98.12376 
L 202.348876 -98.12376 
L 201.34387 -98.12376 
L 200.338863 -98.12376 
L 199.333857 -98.12376 
L 198.328851 -98.12376 
L 197.323844 -98.12376 
L 196.318838 -98.12376 
L 195.313831 -98.12376 
L 194.308825 -98.12376 
L 193.303818 -98.12376 
L 192.298812 -98.12376 
L 191.293806 -98.12376 
L 190.288799 -98.12376 
L 189.283793 -98.12376 
L 188.278786 -98.12376 
L 187.27378 -98.12376 
L 186.268774 -98.12376 
L 185.263767 -98.12376 
L 184.258761 -98.12376 
L 183.253754 -98.12376 
L 182.248748 -98.12376 
L 181.243742 -98.12376 
L 180.238735 -98.12376 
L 179.233729 -98.12376 
L 178.228722 -98.12376 
L 177.223716 -98.12376 
L 176.218709 -98.12376 
L 175.213703 -98.12376 
L 174.208697 -98.12376 
L 173.20369 -98.12376 
L 172.198684 -98.12376 
L 171.193677 -98.12376 
L 170.188671 -98.12376 
L 169.183665 -98.12376 
L 168.178658 -98.12376 
L 167.173652 -98.12376 
L 166.168645 -98.12376 
L 165.163639 -98.12376 
L 164.158632 -98.12376 
L 163.153626 -98.12376 
L 162.14862 -98.12376 
L 161.143613 -98.12376 
L 160.138607 -98.12376 
L 159.1336 -98.12376 
L 158.128594 -98.12376 
L 157.123588 -98.12376 
L 156.118581 -98.12376 
L 155.113575 -98.12376 
L 154.108568 -98.12376 
L 153.103562 -98.12376 
L 152.098555 -98.12376 
L 151.093549 -98.12376 
L 150.088543 -98.12376 
L 149.083536 -98.12376 
L 148.07853 -98.12376 
L 147.073523 -98.12376 
L 146.068517 -98.12376 
L 145.063511 -98.12376 
L 144.058504 -98.12376 
L 143.053498 -98.12376 
L 142.048491 -98.12376 
L 141.043485 -98.12376 
L 140.038478 -98.12376 
L 139.033472 -98.12376 
L 138.028466 -98.12376 
L 137.023459 -98.12376 
L 136.018453 -98.12376 
L 135.013446 -98.12376 
L 134.00844 -98.12376 
L 133.003434 -98.12376 
L 131.998427 -98.12376 
L 130.993421 -98.12376 
L 129.988414 -98.12376 
L 128.983408 -98.12376 
L 127.978401 -98.12376 
L 126.973395 -98.12376 
L 125.968389 -98.12376 
L 124.963382 -98.12376 
L 123.958376 -98.12376 
L 122.953369 -98.12376 
L 121.948363 -98.12376 
L 120.943357 -98.12376 
L 119.93835 -98.12376 
L 118.933344 -98.12376 
L 117.928337 -98.12376 
L 116.923331 -98.12376 
L 115.918325 -98.12376 
L 114.913318 -98.12376 
L 113.908312 -98.12376 
L 112.903305 -98.12376 
L 111.898299 -98.12376 
L 110.893292 -98.12376 
L 109.888286 -98.12376 
L 108.88328 -98.12376 
L 107.878273 -98.12376 
L 106.873267 -98.12376 
L 105.86826 -98.12376 
L 104.863254 -98.12376 
L 103.858248 -98.12376 
L 102.853241 -98.12376 
L 101.848235 -98.12376 
L 100.843228 -98.12376 
L 99.838222 -98.12376 
L 98.833215 -98.12376 
L 97.828209 -98.12376 
L 96.823203 -98.12376 
L 95.818196 -98.12376 
L 94.81319 -98.12376 
L 93.808183 -98.12376 
L 92.803177 -98.12376 
L 91.798171 -98.12376 
L 90.793164 -98.12376 
L 89.788158 -98.12376 
L 88.783151 -98.12376 
L 87.778145 -98.12376 
L 86.773138 -98.12376 
L 85.768132 -98.12376 
L 84.763126 -98.12376 
L 83.758119 -98.12376 
L 82.753113 -98.12376 
L 81.748106 -98.12376 
L 80.7431 -98.12376 
L 79.738094 -98.12376 
L 78.733087 -98.12376 
L 77.728081 -98.12376 
L 76.723074 -98.12376 
L 75.718068 -98.12376 
L 74.713061 -98.12376 
L 73.708055 -98.12376 
L 72.703049 -98.12376 
L 71.698042 -98.12376 
L 70.693036 -98.12376 
L 69.688029 -98.12376 
L 68.683023 -98.12376 
L 67.678017 -98.12376 
L 66.67301 -98.12376 
L 65.668004 -98.12376 
L 64.662997 -98.12376 
L 63.657991 -98.12376 
L 62.652984 -98.12376 
L 61.647978 -98.12376 
L 60.642972 -98.12376 
L 59.637965 -98.12376 
L 58.632959 -98.12376 
L 57.627952 -98.12376 
L 56.622946 -98.12376 
L 55.61794 -98.12376 
L 54.612933 -98.12376 
L 53.607927 -98.12376 
L 52.60292 -98.12376 
L 51.597914 -98.12376 
z
" style="stroke: #2ca02c; stroke-opacity: 0.35; stroke-width: 0.3"/>
    </defs>
    <g clip-path="url(#p93b75ef14f)">
     <use xlink:href="#m8cde4f6d6d" x="0" y="504" style="fill: #2ca02c; fill-opacity: 0.35; stroke: #2ca02c; stroke-opacity: 0.35; stroke-width: 0.3"/>
    </g>
   </g>
   <g id="line2d_7">
    <path d="M 51.597914 299.2639 
L 54.612933 299.096152 
L 56.622946 298.831284 
L 58.632959 298.400925 
L 61.647978 297.544988 
L 64.662997 296.425843 
L 67.678017 295.047873 
L 69.688029 293.997766 
L 72.703049 292.212425 
L 76.723074 289.535136 
L 81.748106 285.752343 
L 85.768132 282.46694 
L 90.793164 278.167903 
L 96.823203 272.755986 
L 103.858248 266.080456 
L 113.908312 256.014654 
L 120.943357 248.536448 
L 137.023459 230.953628 
L 142.048491 225.789775 
L 147.073523 221.00719 
L 151.093549 217.591946 
L 155.113575 214.466826 
L 161.143613 210.24464 
L 167.173652 206.398098 
L 174.208697 201.951183 
L 180.238735 197.600275 
L 183.253754 195.226964 
L 187.27378 191.746512 
L 190.288799 188.936137 
L 194.308825 184.85897 
L 198.328851 180.477288 
L 204.358889 173.580745 
L 210.388928 166.648028 
L 218.428979 157.842086 
L 222.449005 153.711057 
L 227.474037 149.042959 
L 232.499069 144.863374 
L 235.514088 142.59159 
L 240.53912 139.212157 
L 244.559146 136.899093 
L 247.574165 135.350215 
L 251.594191 133.577251 
L 255.614216 132.129021 
L 258.629235 131.299179 
L 261.644255 130.663271 
L 265.66428 130.070646 
L 268.6793 129.820992 
L 272.699325 129.841921 
L 275.714345 130.010795 
L 279.73437 130.451227 
L 283.754396 131.130666 
L 288.779428 132.185458 
L 304.859531 136.497587 
L 308.879556 137.618099 
L 327.974678 142.802132 
L 339.029749 145.258482 
L 357.119864 148.575424 
L 361.13989 149.52551 
L 364.154909 150.310761 
L 367.169928 151.263607 
L 370.184948 152.335436 
L 374.204973 154.137871 
L 377.219993 155.686148 
L 381.240018 158.147798 
L 384.255037 160.206919 
L 388.275063 163.243873 
L 393.300095 167.466581 
L 397.320121 171.142052 
L 405.360172 178.864754 
L 419.430262 192.502911 
L 427.470313 199.832249 
L 432.495345 204.017061 
L 437.520377 208.021473 
L 442.54541 211.77993 
L 448.575448 215.962987 
L 455.610493 220.60982 
L 470.685589 230.3578 
L 475.710621 233.950093 
L 480.735653 237.802503 
L 484.755679 241.143689 
L 489.780711 245.721853 
L 494.805743 250.709973 
L 499.830775 256.045239 
L 504.855807 261.689074 
L 521.940916 281.405953 
L 525.960942 285.737752 
L 530.985974 290.765966 
L 535.006 294.410708 
L 539.026025 297.64069 
L 542.041045 299.801307 
L 546.06107 302.29249 
L 549.07609 303.890021 
L 553.096115 305.626811 
L 556.111134 306.587424 
L 558.121147 307.095725 
L 560.13116 307.529831 
L 563.146179 307.897615 
L 565.156192 308.008502 
L 565.156192 308.008502 
" clip-path="url(#p93b75ef14f)" style="fill: none; stroke: #2ca02c; stroke-width: 2; stroke-linecap: round"/>
   </g>
   <g id="line2d_8">
    <path d="M 51.597914 406.942364 
L 51.597914 299.2639 
" clip-path="url(#p93b75ef14f)" style="fill: none; stroke: #2ca02c; stroke-width: 2; stroke-linecap: round"/>
   </g>
   <g id="line2d_9">
    <path d="M 565.156192 406.854918 
L 565.156192 308.008502 
" clip-path="url(#p93b75ef14f)" style="fill: none; stroke: #2ca02c; stroke-width: 2; stroke-linecap: round"/>
   </g>
   <g id="line2d_10">
    <defs>
     <path id="m265866b914" d="M 0 3.5 
C 0.928211 3.5 1.81853 3.131218 2.474874 2.474874 
C 3.131218 1.81853 3.5 0.928211 3.5 0 
C 3.5 -0.928211 3.131218 -1.81853 2.474874 -2.474874 
C 1.81853 -3.131218 0.928211 -3.5 0 -3.5 
C -0.928211 -3.5 -1.81853 -3.131218 -2.474874 -2.474874 
C -3.131218 -1.81853 -3.5 -0.928211 -3.5 0 
C -3.5 0.928211 -3.131218 1.81853 -2.474874 2.474874 
C -1.81853 3.131218 -0.928211 3.5 0 3.5 
z
"/>
    </defs>
    <g clip-path="url(#p93b75ef14f)">
     <use xlink:href="#m265866b914" x="303.921931" y="405.87624" style="fill: #2ca02c"/>
    </g>
   </g>
   <g id="patch_3">
    <path d="M 25.92 420.8 
L 590.834106 420.8 
" style="fill: none; stroke: #333333; stroke-width: 1.5; stroke-linejoin: miter; stroke-linecap: square"/>
   </g>
   <g id="text_4">
    <!-- $x_1^2x_3$ -->
    <g style="fill: #262626" transform="translate(225.537053 94.652)">
     <text>
      <tspan x="0" y="-0.421875" style="font-style: oblique; font-size: 76px; font-family: 'DejaVu Sans'; fill: #262626">x</tspan>
      <tspan x="84.296419" y="-0.421875" style="font-style: oblique; font-size: 76px; font-family: 'DejaVu Sans'; fill: #262626">x</tspan>
      <tspan x="44.976562" y="20.359375" style="font-size: 53.2px; font-family: 'DejaVu Sans'; fill: #262626">1</tspan>
      <tspan x="48.370833" y="-29.515625" style="font-size: 53.2px; font-family: 'DejaVu Sans'; fill: #262626">2</tspan>
      <tspan x="129.272982" y="12.046875" style="font-size: 53.2px; font-family: 'DejaVu Sans'; fill: #262626">3</tspan>
     </text>
    </g>
   </g>
  </g>
 </g>
 <defs>
  <clipPath id="p93b75ef14f">
   <rect x="25.92" y="115.932" width="564.914106" height="304.868"/>
  </clipPath>
 </defs>
</svg>
