<?xml version="1.0" encoding="utf-8" standalone="no"?>
<!DOCTYPE svg PUBLIC "-//W3C//DTD SVG 1.1//EN"
  "http://www.w3.org/Graphics/SVG/1.1/DTD/svg11.dtd">
<svg xmlns:xlink="http://www.w3.org/1999/xlink" width="648pt" height="504pt" viewBox="0 0 648 504" xmlns="http://www.w3.org/2000/svg" version="1.1">
 <metadata>
  <rdf:RDF xmlns:dc="http://purl.org/dc/elements/1.1/" xmlns:cc="http://creativecommons.org/ns#" xmlns:rdf="http://www.w3.org/1999/02/22-rdf-syntax-ns#">
   <cc:Work>
    <dc:type rdf:resource="http://purl.org/dc/dcmitype/StillImage"/>
    <dc:date>2026-02-22T16:15:35.741645</dc:date>
    <dc:format>image/svg+xml</dc:format>
    <dc:creator>
     <cc:Agent>
      <dc:title>Matplotlib v3.10.6, https://matplotlib.org/</dc:title>
     </cc:Agent>
    </dc:creator>
   </cc:Work>
  </rdf:RDF>
 </metadata>
 <defs>
  <style type="text/css">*{stroke-linejoin: round; stroke-linecap: butt}</style>
 </defs>
 <g id="figure_1">
  <g id="patch_1">
   <path d="M 0 504 
L 648 504 
L 648 0 
L 0 0 
L 0 504 
z
" style="fill: none; opacity: 0"/>
  </g>
  <g id="axes_1">
   <g id="patch_2">
    <path d="M 41.515602 420.8 
L 622.08 420.8 
L 622.08 115.932 
L 41.515602 115.932 
L 41.515602 420.8 
z
" style="fill: none"/>
   </g>
   <g id="matplotlib.axis_1">
    <g id="xtick_1">
     <g id="line2d_1">
      <path d="M 109.54799 420.8 
L 109.54799 115.932 
" clip-path="url(#p5f336964d4)" style="fill: none; stroke: #ffffff; stroke-opacity: 0.4; stroke-linecap: round"/>
     </g>
     <g id="line2d_2"/>
     <g id="text_1">
      <text style="font-size: 52px; font-family: 'DejaVu Serif', 'Times New Roman', serif; text-anchor: middle; fill: #262626" x="109.54799" y="467.311875" transform="rotate(-0 109.54799 467.311875)">0.095</text>
     </g>
    </g>
    <g id="xtick_2">
     <g id="line2d_3">
      <path d="M 320.690967 420.8 
L 320.690967 115.932 
" clip-path="url(#p5f336964d4)" style="fill: none; stroke: #ffffff; stroke-opacity: 0.4; stroke-linecap: round"/>
     </g>
     <g id="line2d_4"/>
     <g id="text_2">
      <text style="font-size: 52px; font-family: 'DejaVu Serif', 'Times New Roman', serif; text-anchor: middle; fill: #262626" x="320.690967" y="467.311875" transform="rotate(-0 320.690967 467.311875)">0.100</text>
     </g>
    </g>
    <g id="xtick_3">
     <g id="line2d_5">
      <path d="M 531.833944 420.8 
L 531.833944 115.932 
" clip-path="url(#p5f336964d4)" style="fill: none; stroke: #ffffff; stroke-opacity: 0.4; stroke-linecap: round"/>
     </g>
     <g id="line2d_6"/>
     <g id="text_3">
      <text style="font-size: 52px; font-family: 'DejaVu Serif', 'Times New Roman', serif; text-anchor: middle; fill: #262626" x="531.833944" y="467.311875" transform="rotate(-0 531.833944 467.311875)">0.105</text>
     </g>
    </g>
   </g>
   <g id="matplotlib.axis_2"/>
   <g id="FillBetweenPolyCollection_1">
    <defs>
     <path id="m0383f7916f" d="M 67.904893 -97.916521 
L 67.904893 -183.804969 
L 68.937742 -183.811704 
L 69.970591 -183.853364 
L 71.003439 -183.897532 
L 72.036288 -183.960032 
L 73.069137 -184.059731 
L 74.101986 -184.181055 
L 75.134835 -184.329989 
L 76.167684 -184.477104 
L 77.200533 -184.64414 
L 78.233382 -184.825785 
L 79.266231 -185.035969 
L 80.29908 -185.245946 
L 81.331929 -185.48401 
L 82.364778 -185.753403 
L 83.397627 -186.031393 
L 84.430476 -186.343909 
L 85.463325 -186.680267 
L 86.496174 -187.037063 
L 87.529023 -187.421942 
L 88.561872 -187.819502 
L 89.594721 -188.225809 
L 90.62757 -188.662836 
L 91.660419 -189.124734 
L 92.693268 -189.612906 
L 93.726117 -190.121922 
L 94.758965 -190.651889 
L 95.791814 -191.214056 
L 96.824663 -191.801288 
L 97.857512 -192.39097 
L 98.890361 -193.00296 
L 99.92321 -193.665121 
L 100.956059 -194.328636 
L 101.988908 -194.99795 
L 103.021757 -195.715649 
L 104.054606 -196.446661 
L 105.087455 -197.212373 
L 106.120304 -197.999148 
L 107.153153 -198.789462 
L 108.186002 -199.622403 
L 109.218851 -200.458532 
L 110.2517 -201.310525 
L 111.284549 -202.188642 
L 112.317398 -203.073255 
L 113.350247 -203.979289 
L 114.383096 -204.895979 
L 115.415945 -205.835575 
L 116.448794 -206.79618 
L 117.481643 -207.7508 
L 118.514491 -208.725356 
L 119.54734 -209.699485 
L 120.580189 -210.716393 
L 121.613038 -211.72344 
L 122.645887 -212.733374 
L 123.678736 -213.744233 
L 124.711585 -214.757399 
L 125.744434 -215.77326 
L 126.777283 -216.802051 
L 127.810132 -217.832414 
L 128.842981 -218.842342 
L 129.87583 -219.875495 
L 130.908679 -220.874259 
L 131.941528 -221.884431 
L 132.974377 -222.919359 
L 134.007226 -223.922944 
L 135.040075 -224.924268 
L 136.072924 -225.913939 
L 137.105773 -226.900482 
L 138.138622 -227.877513 
L 139.171471 -228.858816 
L 140.20432 -229.830681 
L 141.237169 -230.781671 
L 142.270017 -231.694263 
L 143.302866 -232.609314 
L 144.335715 -233.515578 
L 145.368564 -234.400299 
L 146.401413 -235.268741 
L 147.434262 -236.15096 
L 148.467111 -237.019613 
L 149.49996 -237.864257 
L 150.532809 -238.713357 
L 151.565658 -239.558351 
L 152.598507 -240.386632 
L 153.631356 -241.186553 
L 154.664205 -241.988154 
L 155.697054 -242.78478 
L 156.729903 -243.563212 
L 157.762752 -244.343126 
L 158.795601 -245.099794 
L 159.82845 -245.834022 
L 160.861299 -246.59951 
L 161.894148 -247.35503 
L 162.926997 -248.105543 
L 163.959846 -248.865441 
L 164.992694 -249.625355 
L 166.025543 -250.400693 
L 167.058392 -251.174515 
L 168.091241 -251.941859 
L 169.12409 -252.711422 
L 170.156939 -253.489244 
L 171.189788 -254.256888 
L 172.222637 -255.041057 
L 173.255486 -255.834609 
L 174.288335 -256.643215 
L 175.321184 -257.477354 
L 176.354033 -258.298804 
L 177.386882 -259.133624 
L 178.419731 -259.982083 
L 179.45258 -260.864071 
L 180.485429 -261.745219 
L 181.518278 -262.644884 
L 182.551127 -263.546798 
L 183.583976 -264.493502 
L 184.616825 -265.454109 
L 185.649674 -266.42673 
L 186.682523 -267.404646 
L 187.715372 -268.40918 
L 188.74822 -269.434596 
L 189.781069 -270.478933 
L 190.813918 -271.553012 
L 191.846767 -272.624087 
L 192.879616 -273.74261 
L 193.912465 -274.853079 
L 194.945314 -276.020751 
L 195.978163 -277.18457 
L 197.011012 -278.356169 
L 198.043861 -279.5537 
L 199.07671 -280.745606 
L 200.109559 -281.944179 
L 201.142408 -283.150473 
L 202.175257 -284.379111 
L 203.208106 -285.626359 
L 204.240955 -286.875713 
L 205.273804 -288.13926 
L 206.306653 -289.402608 
L 207.339502 -290.680384 
L 208.372351 -291.962013 
L 209.4052 -293.250584 
L 210.438049 -294.503402 
L 211.470898 -295.765197 
L 212.503746 -297.012144 
L 213.536595 -298.286586 
L 214.569444 -299.567153 
L 215.602293 -300.819374 
L 216.635142 -302.100131 
L 217.667991 -303.364374 
L 218.70084 -304.606503 
L 219.733689 -305.841287 
L 220.766538 -307.042399 
L 221.799387 -308.217169 
L 222.832236 -309.394936 
L 223.865085 -310.572368 
L 224.897934 -311.719854 
L 225.930783 -312.855655 
L 226.963632 -313.984482 
L 227.996481 -315.09963 
L 229.02933 -316.190282 
L 230.062179 -317.277753 
L 231.095028 -318.333858 
L 232.127877 -319.351376 
L 233.160726 -320.347785 
L 234.193575 -321.358537 
L 235.226424 -322.35878 
L 236.259272 -323.306362 
L 237.292121 -324.259828 
L 238.32497 -325.225352 
L 239.357819 -326.103053 
L 240.390668 -326.983785 
L 241.423517 -327.852744 
L 242.456366 -328.69063 
L 243.489215 -329.51618 
L 244.522064 -330.337035 
L 245.554913 -331.119061 
L 246.587762 -331.897344 
L 247.620611 -332.675031 
L 248.65346 -333.437051 
L 249.686309 -334.171764 
L 250.719158 -334.890074 
L 251.752007 -335.589583 
L 252.784856 -336.276439 
L 253.817705 -336.956795 
L 254.850554 -337.611572 
L 255.883403 -338.293039 
L 256.916252 -338.934844 
L 257.949101 -339.541339 
L 258.981949 -340.177373 
L 260.014798 -340.803413 
L 261.047647 -341.408484 
L 262.080496 -342.016978 
L 263.113345 -342.599525 
L 264.146194 -343.164636 
L 265.179043 -343.7673 
L 266.211892 -344.333564 
L 267.244741 -344.900659 
L 268.27759 -345.47292 
L 269.310439 -346.0306 
L 270.343288 -346.597167 
L 271.376137 -347.133337 
L 272.408986 -347.680423 
L 273.441835 -348.20401 
L 274.474684 -348.728893 
L 275.507533 -349.261179 
L 276.540382 -349.799865 
L 277.573231 -350.326013 
L 278.60608 -350.815325 
L 279.638929 -351.345463 
L 280.671778 -351.890997 
L 281.704627 -352.412238 
L 282.737475 -352.946724 
L 283.770324 -353.464333 
L 284.803173 -353.975883 
L 285.836022 -354.501125 
L 286.868871 -355.025391 
L 287.90172 -355.562987 
L 288.934569 -356.096246 
L 289.967418 -356.615766 
L 291.000267 -357.086876 
L 292.033116 -357.594161 
L 293.065965 -358.11435 
L 294.098814 -358.633363 
L 295.131663 -359.161431 
L 296.164512 -359.673726 
L 297.197361 -360.170471 
L 298.23021 -360.676945 
L 299.263059 -361.198843 
L 300.295908 -361.717712 
L 301.328757 -362.22572 
L 302.361606 -362.735248 
L 303.394455 -363.229285 
L 304.427304 -363.734794 
L 305.460153 -364.211873 
L 306.493001 -364.679877 
L 307.52585 -365.1556 
L 308.558699 -365.619048 
L 309.591548 -366.108245 
L 310.624397 -366.550837 
L 311.657246 -367.021909 
L 312.690095 -367.471586 
L 313.722944 -367.900824 
L 314.755793 -368.326001 
L 315.788642 -368.756999 
L 316.821491 -369.170961 
L 317.85434 -369.584894 
L 318.887189 -369.954958 
L 319.920038 -370.314979 
L 320.952887 -370.671337 
L 321.985736 -371.011686 
L 323.018585 -371.320797 
L 324.051434 -371.618245 
L 325.084283 -371.901375 
L 326.117132 -372.15445 
L 327.149981 -372.426282 
L 328.18283 -372.699196 
L 329.215679 -372.943515 
L 330.248527 -373.16762 
L 331.281376 -373.356229 
L 332.314225 -373.525595 
L 333.347074 -373.686396 
L 334.379923 -373.831177 
L 335.412772 -373.941085 
L 336.445621 -374.051406 
L 337.47847 -374.104743 
L 338.511319 -374.15472 
L 339.544168 -374.192188 
L 340.577017 -374.210364 
L 341.609866 -374.17039 
L 342.642715 -374.107484 
L 343.675564 -374.011477 
L 344.708413 -373.923527 
L 345.741262 -373.819206 
L 346.774111 -373.673811 
L 347.80696 -373.503597 
L 348.839809 -373.296508 
L 349.872658 -373.076449 
L 350.905507 -372.82414 
L 351.938356 -372.575486 
L 352.971204 -372.271594 
L 354.004053 -371.956985 
L 355.036902 -371.640964 
L 356.069751 -371.299529 
L 357.1026 -370.940414 
L 358.135449 -370.542869 
L 359.168298 -370.15831 
L 360.201147 -369.720758 
L 361.233996 -369.273111 
L 362.266845 -368.79756 
L 363.299694 -368.317794 
L 364.332543 -367.815321 
L 365.365392 -367.300333 
L 366.398241 -366.768052 
L 367.43109 -366.206445 
L 368.463939 -365.653089 
L 369.496788 -365.091034 
L 370.529637 -364.501631 
L 371.562486 -363.883939 
L 372.595335 -363.265498 
L 373.628184 -362.639374 
L 374.661033 -362.001109 
L 375.693882 -361.343164 
L 376.72673 -360.692289 
L 377.759579 -360.023009 
L 378.792428 -359.364513 
L 379.825277 -358.70981 
L 380.858126 -358.025731 
L 381.890975 -357.33658 
L 382.923824 -356.646078 
L 383.956673 -355.947259 
L 384.989522 -355.253558 
L 386.022371 -354.536881 
L 387.05522 -353.831457 
L 388.088069 -353.094915 
L 389.120918 -352.376091 
L 390.153767 -351.651294 
L 391.186616 -350.924667 
L 392.219465 -350.165453 
L 393.252314 -349.407567 
L 394.285163 -348.649136 
L 395.318012 -347.866849 
L 396.350861 -347.050235 
L 397.38371 -346.276112 
L 398.416559 -345.4733 
L 399.449408 -344.669101 
L 400.482256 -343.870014 
L 401.515105 -343.035299 
L 402.547954 -342.197486 
L 403.580803 -341.353688 
L 404.613652 -340.472151 
L 405.646501 -339.584569 
L 406.67935 -338.668764 
L 407.712199 -337.742382 
L 408.745048 -336.805154 
L 409.777897 -335.843286 
L 410.810746 -334.871283 
L 411.843595 -333.879357 
L 412.876444 -332.89035 
L 413.909293 -331.84775 
L 414.942142 -330.79205 
L 415.974991 -329.731367 
L 417.00784 -328.635 
L 418.040689 -327.529159 
L 419.073538 -326.391868 
L 420.106387 -325.229797 
L 421.139236 -324.068099 
L 422.172085 -322.896317 
L 423.204934 -321.674513 
L 424.237782 -320.450198 
L 425.270631 -319.212213 
L 426.30348 -317.967434 
L 427.336329 -316.682988 
L 428.369178 -315.394794 
L 429.402027 -314.102994 
L 430.434876 -312.80532 
L 431.467725 -311.500863 
L 432.500574 -310.182379 
L 433.533423 -308.850792 
L 434.566272 -307.506566 
L 435.599121 -306.160354 
L 436.63197 -304.825886 
L 437.664819 -303.456653 
L 438.697668 -302.073813 
L 439.730517 -300.725844 
L 440.763366 -299.365678 
L 441.796215 -298.004731 
L 442.829064 -296.656952 
L 443.861913 -295.29823 
L 444.894762 -293.960428 
L 445.927611 -292.607726 
L 446.960459 -291.277278 
L 447.993308 -289.970558 
L 449.026157 -288.68059 
L 450.059006 -287.40373 
L 451.091855 -286.109775 
L 452.124704 -284.839739 
L 453.157553 -283.573309 
L 454.190402 -282.341005 
L 455.223251 -281.113654 
L 456.2561 -279.900464 
L 457.288949 -278.682654 
L 458.321798 -277.507997 
L 459.354647 -276.334577 
L 460.387496 -275.170688 
L 461.420345 -274.038285 
L 462.453194 -272.907634 
L 463.486043 -271.799212 
L 464.518892 -270.719434 
L 465.551741 -269.66198 
L 466.58459 -268.617963 
L 467.617439 -267.540641 
L 468.650288 -266.536967 
L 469.683137 -265.524386 
L 470.715985 -264.520503 
L 471.748834 -263.530894 
L 472.781683 -262.576556 
L 473.814532 -261.601052 
L 474.847381 -260.661516 
L 475.88023 -259.714696 
L 476.913079 -258.795425 
L 477.945928 -257.899351 
L 478.978777 -256.974671 
L 480.011626 -256.08215 
L 481.044475 -255.20407 
L 482.077324 -254.330859 
L 483.110173 -253.456314 
L 484.143022 -252.609818 
L 485.175871 -251.745951 
L 486.20872 -250.870262 
L 487.241569 -250.034022 
L 488.274418 -249.184488 
L 489.307267 -248.359514 
L 490.340116 -247.526537 
L 491.372965 -246.685405 
L 492.405814 -245.857717 
L 493.438663 -245.047742 
L 494.471511 -244.206783 
L 495.50436 -243.408284 
L 496.537209 -242.590874 
L 497.570058 -241.764477 
L 498.602907 -240.941509 
L 499.635756 -240.133232 
L 500.668605 -239.332684 
L 501.701454 -238.540303 
L 502.734303 -237.714272 
L 503.767152 -236.881272 
L 504.800001 -236.053828 
L 505.83285 -235.221052 
L 506.865699 -234.395553 
L 507.898548 -233.583247 
L 508.931397 -232.758957 
L 509.964246 -231.929934 
L 510.997095 -231.086709 
L 512.029944 -230.276696 
L 513.062793 -229.448372 
L 514.095642 -228.605665 
L 515.128491 -227.76136 
L 516.16134 -226.92963 
L 517.194189 -226.089565 
L 518.227037 -225.268603 
L 519.259886 -224.414052 
L 520.292735 -223.567024 
L 521.325584 -222.709124 
L 522.358433 -221.863421 
L 523.391282 -221.017623 
L 524.424131 -220.159056 
L 525.45698 -219.315661 
L 526.489829 -218.471437 
L 527.522678 -217.626682 
L 528.555527 -216.780895 
L 529.588376 -215.92716 
L 530.621225 -215.069139 
L 531.654074 -214.223319 
L 532.686923 -213.355355 
L 533.719772 -212.517607 
L 534.752621 -211.684497 
L 535.78547 -210.836542 
L 536.818319 -209.993035 
L 537.851168 -209.142003 
L 538.884017 -208.300491 
L 539.916866 -207.466378 
L 540.949715 -206.62052 
L 541.982563 -205.794603 
L 543.015412 -204.961314 
L 544.048261 -204.146816 
L 545.08111 -203.338488 
L 546.113959 -202.556288 
L 547.146808 -201.753154 
L 548.179657 -200.984501 
L 549.212506 -200.211872 
L 550.245355 -199.445054 
L 551.278204 -198.678729 
L 552.311053 -197.935753 
L 553.343902 -197.207414 
L 554.376751 -196.485031 
L 555.4096 -195.781295 
L 556.442449 -195.08324 
L 557.475298 -194.392672 
L 558.508147 -193.718522 
L 559.540996 -193.066016 
L 560.573845 -192.419778 
L 561.606694 -191.791201 
L 562.639543 -191.211496 
L 563.672392 -190.613242 
L 564.70524 -190.057878 
L 565.738089 -189.5103 
L 566.770938 -188.98104 
L 567.803787 -188.47333 
L 568.836636 -187.997239 
L 569.869485 -187.538479 
L 570.902334 -187.081864 
L 571.935183 -186.652681 
L 572.968032 -186.248921 
L 574.000881 -185.85097 
L 575.03373 -185.482206 
L 576.066579 -185.123292 
L 577.099428 -184.789879 
L 578.132277 -184.474557 
L 579.165126 -184.177127 
L 580.197975 -183.904605 
L 581.230824 -183.660658 
L 582.263673 -183.423359 
L 583.296522 -183.213563 
L 584.329371 -182.995198 
L 585.36222 -182.836741 
L 586.395069 -182.670606 
L 587.427918 -182.524481 
L 588.460766 -182.38574 
L 589.493615 -182.268167 
L 590.526464 -182.155662 
L 591.559313 -182.07233 
L 592.592162 -182.014575 
L 593.625011 -181.966096 
L 594.65786 -181.930222 
L 595.690709 -181.922704 
L 595.690709 -97.916521 
L 595.690709 -97.916521 
L 594.65786 -97.916521 
L 593.625011 -97.916521 
L 592.592162 -97.916521 
L 591.559313 -97.916521 
L 590.526464 -97.916521 
L 589.493615 -97.916521 
L 588.460766 -97.916521 
L 587.427918 -97.916521 
L 586.395069 -97.916521 
L 585.36222 -97.916521 
L 584.329371 -97.916521 
L 583.296522 -97.916521 
L 582.263673 -97.916521 
L 581.230824 -97.916521 
L 580.197975 -97.916521 
L 579.165126 -97.916521 
L 578.132277 -97.916521 
L 577.099428 -97.916521 
L 576.066579 -97.916521 
L 575.03373 -97.916521 
L 574.000881 -97.916521 
L 572.968032 -97.916521 
L 571.935183 -97.916521 
L 570.902334 -97.916521 
L 569.869485 -97.916521 
L 568.836636 -97.916521 
L 567.803787 -97.916521 
L 566.770938 -97.916521 
L 565.738089 -97.916521 
L 564.70524 -97.916521 
L 563.672392 -97.916521 
L 562.639543 -97.916521 
L 561.606694 -97.916521 
L 560.573845 -97.916521 
L 559.540996 -97.916521 
L 558.508147 -97.916521 
L 557.475298 -97.916521 
L 556.442449 -97.916521 
L 555.4096 -97.916521 
L 554.376751 -97.916521 
L 553.343902 -97.916521 
L 552.311053 -97.916521 
L 551.278204 -97.916521 
L 550.245355 -97.916521 
L 549.212506 -97.916521 
L 548.179657 -97.916521 
L 547.146808 -97.916521 
L 546.113959 -97.916521 
L 545.08111 -97.916521 
L 544.048261 -97.916521 
L 543.015412 -97.916521 
L 541.982563 -97.916521 
L 540.949715 -97.916521 
L 539.916866 -97.916521 
L 538.884017 -97.916521 
L 537.851168 -97.916521 
L 536.818319 -97.916521 
L 535.78547 -97.916521 
L 534.752621 -97.916521 
L 533.719772 -97.916521 
L 532.686923 -97.916521 
L 531.654074 -97.916521 
L 530.621225 -97.916521 
L 529.588376 -97.916521 
L 528.555527 -97.916521 
L 527.522678 -97.916521 
L 526.489829 -97.916521 
L 525.45698 -97.916521 
L 524.424131 -97.916521 
L 523.391282 -97.916521 
L 522.358433 -97.916521 
L 521.325584 -97.916521 
L 520.292735 -97.916521 
L 519.259886 -97.916521 
L 518.227037 -97.916521 
L 517.194189 -97.916521 
L 516.16134 -97.916521 
L 515.128491 -97.916521 
L 514.095642 -97.916521 
L 513.062793 -97.916521 
L 512.029944 -97.916521 
L 510.997095 -97.916521 
L 509.964246 -97.916521 
L 508.931397 -97.916521 
L 507.898548 -97.916521 
L 506.865699 -97.916521 
L 505.83285 -97.916521 
L 504.800001 -97.916521 
L 503.767152 -97.916521 
L 502.734303 -97.916521 
L 501.701454 -97.916521 
L 500.668605 -97.916521 
L 499.635756 -97.916521 
L 498.602907 -97.916521 
L 497.570058 -97.916521 
L 496.537209 -97.916521 
L 495.50436 -97.916521 
L 494.471511 -97.916521 
L 493.438663 -97.916521 
L 492.405814 -97.916521 
L 491.372965 -97.916521 
L 490.340116 -97.916521 
L 489.307267 -97.916521 
L 488.274418 -97.916521 
L 487.241569 -97.916521 
L 486.20872 -97.916521 
L 485.175871 -97.916521 
L 484.143022 -97.916521 
L 483.110173 -97.916521 
L 482.077324 -97.916521 
L 481.044475 -97.916521 
L 480.011626 -97.916521 
L 478.978777 -97.916521 
L 477.945928 -97.916521 
L 476.913079 -97.916521 
L 475.88023 -97.916521 
L 474.847381 -97.916521 
L 473.814532 -97.916521 
L 472.781683 -97.916521 
L 471.748834 -97.916521 
L 470.715985 -97.916521 
L 469.683137 -97.916521 
L 468.650288 -97.916521 
L 467.617439 -97.916521 
L 466.58459 -97.916521 
L 465.551741 -97.916521 
L 464.518892 -97.916521 
L 463.486043 -97.916521 
L 462.453194 -97.916521 
L 461.420345 -97.916521 
L 460.387496 -97.916521 
L 459.354647 -97.916521 
L 458.321798 -97.916521 
L 457.288949 -97.916521 
L 456.2561 -97.916521 
L 455.223251 -97.916521 
L 454.190402 -97.916521 
L 453.157553 -97.916521 
L 452.124704 -97.916521 
L 451.091855 -97.916521 
L 450.059006 -97.916521 
L 449.026157 -97.916521 
L 447.993308 -97.916521 
L 446.960459 -97.916521 
L 445.927611 -97.916521 
L 444.894762 -97.916521 
L 443.861913 -97.916521 
L 442.829064 -97.916521 
L 441.796215 -97.916521 
L 440.763366 -97.916521 
L 439.730517 -97.916521 
L 438.697668 -97.916521 
L 437.664819 -97.916521 
L 436.63197 -97.916521 
L 435.599121 -97.916521 
L 434.566272 -97.916521 
L 433.533423 -97.916521 
L 432.500574 -97.916521 
L 431.467725 -97.916521 
L 430.434876 -97.916521 
L 429.402027 -97.916521 
L 428.369178 -97.916521 
L 427.336329 -97.916521 
L 426.30348 -97.916521 
L 425.270631 -97.916521 
L 424.237782 -97.916521 
L 423.204934 -97.916521 
L 422.172085 -97.916521 
L 421.139236 -97.916521 
L 420.106387 -97.916521 
L 419.073538 -97.916521 
L 418.040689 -97.916521 
L 417.00784 -97.916521 
L 415.974991 -97.916521 
L 414.942142 -97.916521 
L 413.909293 -97.916521 
L 412.876444 -97.916521 
L 411.843595 -97.916521 
L 410.810746 -97.916521 
L 409.777897 -97.916521 
L 408.745048 -97.916521 
L 407.712199 -97.916521 
L 406.67935 -97.916521 
L 405.646501 -97.916521 
L 404.613652 -97.916521 
L 403.580803 -97.916521 
L 402.547954 -97.916521 
L 401.515105 -97.916521 
L 400.482256 -97.916521 
L 399.449408 -97.916521 
L 398.416559 -97.916521 
L 397.38371 -97.916521 
L 396.350861 -97.916521 
L 395.318012 -97.916521 
L 394.285163 -97.916521 
L 393.252314 -97.916521 
L 392.219465 -97.916521 
L 391.186616 -97.916521 
L 390.153767 -97.916521 
L 389.120918 -97.916521 
L 388.088069 -97.916521 
L 387.05522 -97.916521 
L 386.022371 -97.916521 
L 384.989522 -97.916521 
L 383.956673 -97.916521 
L 382.923824 -97.916521 
L 381.890975 -97.916521 
L 380.858126 -97.916521 
L 379.825277 -97.916521 
L 378.792428 -97.916521 
L 377.759579 -97.916521 
L 376.72673 -97.916521 
L 375.693882 -97.916521 
L 374.661033 -97.916521 
L 373.628184 -97.916521 
L 372.595335 -97.916521 
L 371.562486 -97.916521 
L 370.529637 -97.916521 
L 369.496788 -97.916521 
L 368.463939 -97.916521 
L 367.43109 -97.916521 
L 366.398241 -97.916521 
L 365.365392 -97.916521 
L 364.332543 -97.916521 
L 363.299694 -97.916521 
L 362.266845 -97.916521 
L 361.233996 -97.916521 
L 360.201147 -97.916521 
L 359.168298 -97.916521 
L 358.135449 -97.916521 
L 357.1026 -97.916521 
L 356.069751 -97.916521 
L 355.036902 -97.916521 
L 354.004053 -97.916521 
L 352.971204 -97.916521 
L 351.938356 -97.916521 
L 350.905507 -97.916521 
L 349.872658 -97.916521 
L 348.839809 -97.916521 
L 347.80696 -97.916521 
L 346.774111 -97.916521 
L 345.741262 -97.916521 
L 344.708413 -97.916521 
L 343.675564 -97.916521 
L 342.642715 -97.916521 
L 341.609866 -97.916521 
L 340.577017 -97.916521 
L 339.544168 -97.916521 
L 338.511319 -97.916521 
L 337.47847 -97.916521 
L 336.445621 -97.916521 
L 335.412772 -97.916521 
L 334.379923 -97.916521 
L 333.347074 -97.916521 
L 332.314225 -97.916521 
L 331.281376 -97.916521 
L 330.248527 -97.916521 
L 329.215679 -97.916521 
L 328.18283 -97.916521 
L 327.149981 -97.916521 
L 326.117132 -97.916521 
L 325.084283 -97.916521 
L 324.051434 -97.916521 
L 323.018585 -97.916521 
L 321.985736 -97.916521 
L 320.952887 -97.916521 
L 319.920038 -97.916521 
L 318.887189 -97.916521 
L 317.85434 -97.916521 
L 316.821491 -97.916521 
L 315.788642 -97.916521 
L 314.755793 -97.916521 
L 313.722944 -97.916521 
L 312.690095 -97.916521 
L 311.657246 -97.916521 
L 310.624397 -97.916521 
L 309.591548 -97.916521 
L 308.558699 -97.916521 
L 307.52585 -97.916521 
L 306.493001 -97.916521 
L 305.460153 -97.916521 
L 304.427304 -97.916521 
L 303.394455 -97.916521 
L 302.361606 -97.916521 
L 301.328757 -97.916521 
L 300.295908 -97.916521 
L 299.263059 -97.916521 
L 298.23021 -97.916521 
L 297.197361 -97.916521 
L 296.164512 -97.916521 
L 295.131663 -97.916521 
L 294.098814 -97.916521 
L 293.065965 -97.916521 
L 292.033116 -97.916521 
L 291.000267 -97.916521 
L 289.967418 -97.916521 
L 288.934569 -97.916521 
L 287.90172 -97.916521 
L 286.868871 -97.916521 
L 285.836022 -97.916521 
L 284.803173 -97.916521 
L 283.770324 -97.916521 
L 282.737475 -97.916521 
L 281.704627 -97.916521 
L 280.671778 -97.916521 
L 279.638929 -97.916521 
L 278.60608 -97.916521 
L 277.573231 -97.916521 
L 276.540382 -97.916521 
L 275.507533 -97.916521 
L 274.474684 -97.916521 
L 273.441835 -97.916521 
L 272.408986 -97.916521 
L 271.376137 -97.916521 
L 270.343288 -97.916521 
L 269.310439 -97.916521 
L 268.27759 -97.916521 
L 267.244741 -97.916521 
L 266.211892 -97.916521 
L 265.179043 -97.916521 
L 264.146194 -97.916521 
L 263.113345 -97.916521 
L 262.080496 -97.916521 
L 261.047647 -97.916521 
L 260.014798 -97.916521 
L 258.981949 -97.916521 
L 257.949101 -97.916521 
L 256.916252 -97.916521 
L 255.883403 -97.916521 
L 254.850554 -97.916521 
L 253.817705 -97.916521 
L 252.784856 -97.916521 
L 251.752007 -97.916521 
L 250.719158 -97.916521 
L 249.686309 -97.916521 
L 248.65346 -97.916521 
L 247.620611 -97.916521 
L 246.587762 -97.916521 
L 245.554913 -97.916521 
L 244.522064 -97.916521 
L 243.489215 -97.916521 
L 242.456366 -97.916521 
L 241.423517 -97.916521 
L 240.390668 -97.916521 
L 239.357819 -97.916521 
L 238.32497 -97.916521 
L 237.292121 -97.916521 
L 236.259272 -97.916521 
L 235.226424 -97.916521 
L 234.193575 -97.916521 
L 233.160726 -97.916521 
L 232.127877 -97.916521 
L 231.095028 -97.916521 
L 230.062179 -97.916521 
L 229.02933 -97.916521 
L 227.996481 -97.916521 
L 226.963632 -97.916521 
L 225.930783 -97.916521 
L 224.897934 -97.916521 
L 223.865085 -97.916521 
L 222.832236 -97.916521 
L 221.799387 -97.916521 
L 220.766538 -97.916521 
L 219.733689 -97.916521 
L 218.70084 -97.916521 
L 217.667991 -97.916521 
L 216.635142 -97.916521 
L 215.602293 -97.916521 
L 214.569444 -97.916521 
L 213.536595 -97.916521 
L 212.503746 -97.916521 
L 211.470898 -97.916521 
L 210.438049 -97.916521 
L 209.4052 -97.916521 
L 208.372351 -97.916521 
L 207.339502 -97.916521 
L 206.306653 -97.916521 
L 205.273804 -97.916521 
L 204.240955 -97.916521 
L 203.208106 -97.916521 
L 202.175257 -97.916521 
L 201.142408 -97.916521 
L 200.109559 -97.916521 
L 199.07671 -97.916521 
L 198.043861 -97.916521 
L 197.011012 -97.916521 
L 195.978163 -97.916521 
L 194.945314 -97.916521 
L 193.912465 -97.916521 
L 192.879616 -97.916521 
L 191.846767 -97.916521 
L 190.813918 -97.916521 
L 189.781069 -97.916521 
L 188.74822 -97.916521 
L 187.715372 -97.916521 
L 186.682523 -97.916521 
L 185.649674 -97.916521 
L 184.616825 -97.916521 
L 183.583976 -97.916521 
L 182.551127 -97.916521 
L 181.518278 -97.916521 
L 180.485429 -97.916521 
L 179.45258 -97.916521 
L 178.419731 -97.916521 
L 177.386882 -97.916521 
L 176.354033 -97.916521 
L 175.321184 -97.916521 
L 174.288335 -97.916521 
L 173.255486 -97.916521 
L 172.222637 -97.916521 
L 171.189788 -97.916521 
L 170.156939 -97.916521 
L 169.12409 -97.916521 
L 168.091241 -97.916521 
L 167.058392 -97.916521 
L 166.025543 -97.916521 
L 164.992694 -97.916521 
L 163.959846 -97.916521 
L 162.926997 -97.916521 
L 161.894148 -97.916521 
L 160.861299 -97.916521 
L 159.82845 -97.916521 
L 158.795601 -97.916521 
L 157.762752 -97.916521 
L 156.729903 -97.916521 
L 155.697054 -97.916521 
L 154.664205 -97.916521 
L 153.631356 -97.916521 
L 152.598507 -97.916521 
L 151.565658 -97.916521 
L 150.532809 -97.916521 
L 149.49996 -97.916521 
L 148.467111 -97.916521 
L 147.434262 -97.916521 
L 146.401413 -97.916521 
L 145.368564 -97.916521 
L 144.335715 -97.916521 
L 143.302866 -97.916521 
L 142.270017 -97.916521 
L 141.237169 -97.916521 
L 140.20432 -97.916521 
L 139.171471 -97.916521 
L 138.138622 -97.916521 
L 137.105773 -97.916521 
L 136.072924 -97.916521 
L 135.040075 -97.916521 
L 134.007226 -97.916521 
L 132.974377 -97.916521 
L 131.941528 -97.916521 
L 130.908679 -97.916521 
L 129.87583 -97.916521 
L 128.842981 -97.916521 
L 127.810132 -97.916521 
L 126.777283 -97.916521 
L 125.744434 -97.916521 
L 124.711585 -97.916521 
L 123.678736 -97.916521 
L 122.645887 -97.916521 
L 121.613038 -97.916521 
L 120.580189 -97.916521 
L 119.54734 -97.916521 
L 118.514491 -97.916521 
L 117.481643 -97.916521 
L 116.448794 -97.916521 
L 115.415945 -97.916521 
L 114.383096 -97.916521 
L 113.350247 -97.916521 
L 112.317398 -97.916521 
L 111.284549 -97.916521 
L 110.2517 -97.916521 
L 109.218851 -97.916521 
L 108.186002 -97.916521 
L 107.153153 -97.916521 
L 106.120304 -97.916521 
L 105.087455 -97.916521 
L 104.054606 -97.916521 
L 103.021757 -97.916521 
L 101.988908 -97.916521 
L 100.956059 -97.916521 
L 99.92321 -97.916521 
L 98.890361 -97.916521 
L 97.857512 -97.916521 
L 96.824663 -97.916521 
L 95.791814 -97.916521 
L 94.758965 -97.916521 
L 93.726117 -97.916521 
L 92.693268 -97.916521 
L 91.660419 -97.916521 
L 90.62757 -97.916521 
L 89.594721 -97.916521 
L 88.561872 -97.916521 
L 87.529023 -97.916521 
L 86.496174 -97.916521 
L 85.463325 -97.916521 
L 84.430476 -97.916521 
L 83.397627 -97.916521 
L 82.364778 -97.916521 
L 81.331929 -97.916521 
L 80.29908 -97.916521 
L 79.266231 -97.916521 
L 78.233382 -97.916521 
L 77.200533 -97.916521 
L 76.167684 -97.916521 
L 75.134835 -97.916521 
L 74.101986 -97.916521 
L 73.069137 -97.916521 
L 72.036288 -97.916521 
L 71.003439 -97.916521 
L 69.970591 -97.916521 
L 68.937742 -97.916521 
L 67.904893 -97.916521 
z
" style="stroke: #ff9896; stroke-opacity: 0.35; stroke-width: 0.3"/>
    </defs>
    <g clip-path="url(#p5f336964d4)">
     <use xlink:href="#m0383f7916f" x="0" y="504" style="fill: #ff9896; fill-opacity: 0.35; stroke: #ff9896; stroke-opacity: 0.35; stroke-width: 0.3"/>
    </g>
   </g>
   <g id="line2d_7">
    <path d="M 67.904893 320.195031 
L 71.003439 320.102468 
L 74.101986 319.818945 
L 79.266231 318.964031 
L 82.364778 318.246597 
L 85.463325 317.319733 
L 88.561872 316.180498 
L 91.660419 314.875266 
L 94.758965 313.348111 
L 98.890361 310.99704 
L 103.021757 308.284351 
L 106.120304 306.000852 
L 109.218851 303.541468 
L 113.350247 300.020711 
L 117.481643 296.2492 
L 123.678736 290.255767 
L 140.20432 274.169319 
L 144.335715 270.484422 
L 150.532809 265.286643 
L 154.664205 262.011846 
L 159.82845 258.165978 
L 174.288335 247.356785 
L 180.485429 242.254781 
L 184.616825 238.545891 
L 188.74822 234.565404 
L 192.879616 230.25739 
L 195.978163 226.81543 
L 202.175257 219.620889 
L 212.503746 206.987856 
L 220.766538 196.957601 
L 227.996481 188.90037 
L 232.127877 184.648624 
L 238.32497 178.774648 
L 243.489215 174.48382 
L 247.620611 171.324969 
L 251.752007 168.410417 
L 256.916252 165.065156 
L 267.244741 159.099341 
L 272.408986 156.319577 
L 301.328757 141.77428 
L 306.493001 139.320123 
L 313.722944 136.099176 
L 318.887189 134.045042 
L 323.018585 132.679203 
L 328.18283 131.300804 
L 331.281376 130.643771 
L 335.412772 130.058915 
L 337.47847 129.895257 
L 340.577017 129.789636 
L 343.675564 129.988523 
L 346.774111 130.326189 
L 349.872658 130.923551 
L 354.004053 132.043015 
L 357.1026 133.059586 
L 361.233996 134.726889 
L 365.365392 136.699667 
L 369.496788 138.908966 
L 373.628184 141.360626 
L 379.825277 145.29019 
L 387.05522 150.168543 
L 395.318012 156.133151 
L 405.646501 164.415431 
L 410.810746 169.128717 
L 414.942142 173.20795 
L 419.073538 177.608132 
L 424.237782 183.549802 
L 429.402027 189.897006 
L 435.599121 197.839646 
L 442.829064 207.343048 
L 449.026157 215.31941 
L 456.2561 224.099536 
L 460.387496 228.829312 
L 465.551741 234.33802 
L 471.748834 240.469106 
L 478.978777 247.025329 
L 486.20872 253.129738 
L 499.635756 263.866768 
L 506.865699 269.604447 
L 515.128491 276.23864 
L 526.489829 285.528563 
L 546.113959 301.443712 
L 551.278204 305.321271 
L 556.442449 308.91676 
L 560.573845 311.580222 
L 563.672392 313.386758 
L 567.803787 315.52667 
L 571.935183 317.347319 
L 576.066579 318.876708 
L 580.197975 320.095395 
L 584.329371 321.004802 
L 590.526464 321.844338 
L 594.65786 322.069778 
L 595.690709 322.077296 
L 595.690709 322.077296 
" clip-path="url(#p5f336964d4)" style="fill: none; stroke: #ff9896; stroke-width: 2; stroke-linecap: round"/>
   </g>
   <g id="line2d_8">
    <path d="M 67.904893 406.942364 
L 67.904893 320.195031 
" clip-path="url(#p5f336964d4)" style="fill: none; stroke: #ff9896; stroke-width: 2; stroke-linecap: round"/>
   </g>
   <g id="line2d_9">
    <path d="M 595.690709 406.923541 
L 595.690709 322.077296 
" clip-path="url(#p5f336964d4)" style="fill: none; stroke: #ff9896; stroke-width: 2; stroke-linecap: round"/>
   </g>
   <g id="line2d_10">
    <defs>
     <path id="m9e89f5a5d3" d="M 0 3.5 
C 0.928211 3.5 1.81853 3.131218 2.474874 2.474874 
C 3.131218 1.81853 3.5 0.928211 3.5 0 
C 3.5 -0.928211 3.131218 -1.81853 2.474874 -2.474874 
C 1.81853 -3.131218 0.928211 -3.5 0 -3.5 
C -0.928211 -3.5 -1.81853 -3.131218 -2.474874 -2.474874 
C -3.131218 -1.81853 -3.5 -0.928211 -3.5 0 
C -3.5 0.928211 -3.131218 1.81853 -2.474874 2.474874 
C -1.81853 3.131218 -0.928211 3.5 0 3.5 
z
"/>
    </defs>
    <g clip-path="url(#p5f336964d4)">
     <use xlink:href="#m9e89f5a5d3" x="327.885045" y="406.083479" style="fill: #ff9896"/>
    </g>
   </g>
   <g id="patch_3">
    <path d="M 41.515602 420.8 
L 622.08 420.8 
" style="fill: none; stroke: #333333; stroke-width: 1.5; stroke-linejoin: miter; stroke-linecap: square"/>
   </g>
   <g id="text_4">
    <!-- $x_1^3x_3$ -->
    <g style="fill: #262626" transform="translate(248.957801 94.652)">
     <text>
      <tspan x="0" y="-0.421875" style="font-style: oblique; font-size: 76px; font-family: 'DejaVu Sans'; fill: #262626">x</tspan>
      <tspan x="84.296419" y="-0.421875" style="font-style: oblique; font-size: 76px; font-family: 'DejaVu Sans'; fill: #262626">x</tspan>
      <tspan x="44.976562" y="20.359375" style="font-size: 53.2px; font-family: 'DejaVu Sans'; fill: #262626">1</tspan>
      <tspan x="48.370833" y="-29.515625" style="font-size: 53.2px; font-family: 'DejaVu Sans'; fill: #262626">3</tspan>
      <tspan x="129.272982" y="12.046875" style="font-size: 53.2px; font-family: 'DejaVu Sans'; fill: #262626">3</tspan>
     </text>
    </g>
   </g>
  </g>
 </g>
 <defs>
  <clipPath id="p5f336964d4">
   <rect x="41.515602" y="115.932" width="580.564398" height="304.868"/>
  </clipPath>
 </defs>
</svg>
