<?xml version="1.0" encoding="utf-8" standalone="no"?>
<!DOCTYPE svg PUBLIC "-//W3C//DTD SVG 1.1//EN"
  "http://www.w3.org/Graphics/SVG/1.1/DTD/svg11.dtd">
<svg xmlns:xlink="http://www.w3.org/1999/xlink" width="648pt" height="504pt" viewBox="0 0 648 504" xmlns="http://www.w3.org/2000/svg" version="1.1">
 <metadata>
  <rdf:RDF xmlns:dc="http://purl.org/dc/elements/1.1/" xmlns:cc="http://creativecommons.org/ns#" xmlns:rdf="http://www.w3.org/1999/02/22-rdf-syntax-ns#">
   <cc:Work>
    <dc:type rdf:resource="http://purl.org/dc/dcmitype/StillImage"/>
    <dc:date>2026-02-22T16:15:38.128880</dc:date>
    <dc:format>image/svg+xml</dc:format>
    <dc:creator>
     <cc:Agent>
      <dc:title>Matplotlib v3.10.6, https://matplotlib.org/</dc:title>
     </cc:Agent>
    </dc:creator>
   </cc:Work>
  </rdf:RDF>
 </metadata>
 <defs>
  <style type="text/css">*{stroke-linejoin: round; stroke-linecap: butt}</style>
 </defs>
 <g id="figure_1">
  <g id="patch_1">
   <path d="M 0 504 
L 648 504 
L 648 0 
L 0 0 
L 0 504 
z
" style="fill: none; opacity: 0"/>
  </g>
  <g id="axes_1">
   <g id="patch_2">
    <path d="M 61.13344 420.8 
L 622.08 420.8 
L 622.08 115.932 
L 61.13344 115.932 
L 61.13344 420.8 
z
" style="fill: none"/>
   </g>
   <g id="matplotlib.axis_1">
    <g id="xtick_1">
     <g id="line2d_1">
      <path d="M 110.810005 420.8 
L 110.810005 115.932 
" clip-path="url(#p4eb61cc1c8)" style="fill: none; stroke: #ffffff; stroke-opacity: 0.4; stroke-linecap: round"/>
     </g>
     <g id="line2d_2"/>
     <g id="text_1">
      <text style="font-size: 52px; font-family: 'DejaVu Serif', 'Times New Roman', serif; text-anchor: middle; fill: #262626" x="110.810005" y="467.311875" transform="rotate(-0 110.810005 467.311875)">−1.01</text>
     </g>
    </g>
    <g id="xtick_2">
     <g id="line2d_3">
      <path d="M 292.56208 420.8 
L 292.56208 115.932 
" clip-path="url(#p4eb61cc1c8)" style="fill: none; stroke: #ffffff; stroke-opacity: 0.4; stroke-linecap: round"/>
     </g>
     <g id="line2d_4"/>
     <g id="text_2">
      <text style="font-size: 52px; font-family: 'DejaVu Serif', 'Times New Roman', serif; text-anchor: middle; fill: #262626" x="292.56208" y="467.311875" transform="rotate(-0 292.56208 467.311875)">−1.00</text>
     </g>
    </g>
    <g id="xtick_3">
     <g id="line2d_5">
      <path d="M 474.314155 420.8 
L 474.314155 115.932 
" clip-path="url(#p4eb61cc1c8)" style="fill: none; stroke: #ffffff; stroke-opacity: 0.4; stroke-linecap: round"/>
     </g>
     <g id="line2d_6"/>
     <g id="text_3">
      <text style="font-size: 52px; font-family: 'DejaVu Serif', 'Times New Roman', serif; text-anchor: middle; fill: #262626" x="474.314155" y="467.311875" transform="rotate(-0 474.314155 467.311875)">−0.99</text>
     </g>
    </g>
   </g>
   <g id="matplotlib.axis_2"/>
   <g id="FillBetweenPolyCollection_1">
    <defs>
     <path id="m2c4d2e4a72" d="M 86.631011 -97.98118 
L 86.631011 -190.335572 
L 87.628959 -190.351486 
L 88.626907 -190.403489 
L 89.624855 -190.47142 
L 90.622803 -190.572559 
L 91.62075 -190.705116 
L 92.618698 -190.872336 
L 93.616646 -191.037599 
L 94.614594 -191.237302 
L 95.612542 -191.449814 
L 96.61049 -191.697298 
L 97.608438 -191.972099 
L 98.606386 -192.263878 
L 99.604334 -192.57851 
L 100.602282 -192.900966 
L 101.60023 -193.240056 
L 102.598178 -193.611801 
L 103.596126 -193.984308 
L 104.594074 -194.366738 
L 105.592022 -194.775427 
L 106.58997 -195.188293 
L 107.587918 -195.604934 
L 108.585866 -196.037992 
L 109.583814 -196.478868 
L 110.581762 -196.912621 
L 111.57971 -197.368142 
L 112.577658 -197.813779 
L 113.575606 -198.274888 
L 114.573554 -198.723505 
L 115.571502 -199.196427 
L 116.56945 -199.657762 
L 117.567398 -200.123743 
L 118.565346 -200.597614 
L 119.563294 -201.070632 
L 120.561242 -201.527761 
L 121.55919 -201.968809 
L 122.557138 -202.409474 
L 123.555086 -202.841967 
L 124.553034 -203.268547 
L 125.550982 -203.695682 
L 126.54893 -204.118232 
L 127.546878 -204.522607 
L 128.544826 -204.929202 
L 129.542774 -205.326002 
L 130.540722 -205.714213 
L 131.53867 -206.117335 
L 132.536618 -206.517119 
L 133.534566 -206.911323 
L 134.532514 -207.306382 
L 135.530462 -207.67259 
L 136.52841 -208.065733 
L 137.526358 -208.452677 
L 138.524306 -208.83023 
L 139.522254 -209.234643 
L 140.520202 -209.619513 
L 141.51815 -210.006683 
L 142.516098 -210.401657 
L 143.514046 -210.833601 
L 144.511994 -211.266311 
L 145.509941 -211.704776 
L 146.507889 -212.137549 
L 147.505837 -212.604173 
L 148.503785 -213.095871 
L 149.501733 -213.623483 
L 150.499681 -214.161779 
L 151.497629 -214.723931 
L 152.495577 -215.323068 
L 153.493525 -215.926101 
L 154.491473 -216.545784 
L 155.489421 -217.213707 
L 156.487369 -217.906322 
L 157.485317 -218.64161 
L 158.483265 -219.372211 
L 159.481213 -220.161771 
L 160.479161 -220.989705 
L 161.477109 -221.838063 
L 162.475057 -222.734855 
L 163.473005 -223.684538 
L 164.470953 -224.658089 
L 165.468901 -225.682858 
L 166.466849 -226.746316 
L 167.464797 -227.844396 
L 168.462745 -228.985526 
L 169.460693 -230.152678 
L 170.458641 -231.339403 
L 171.456589 -232.584252 
L 172.454537 -233.848303 
L 173.452485 -235.169414 
L 174.450433 -236.52716 
L 175.448381 -237.893783 
L 176.446329 -239.273246 
L 177.444277 -240.704096 
L 178.442225 -242.14978 
L 179.440173 -243.614792 
L 180.438121 -245.107563 
L 181.436069 -246.619741 
L 182.434017 -248.165634 
L 183.431965 -249.72292 
L 184.429913 -251.287271 
L 185.427861 -252.856977 
L 186.425809 -254.471986 
L 187.423757 -256.069718 
L 188.421705 -257.693444 
L 189.419653 -259.309532 
L 190.417601 -260.927759 
L 191.415549 -262.527977 
L 192.413497 -264.141566 
L 193.411445 -265.738505 
L 194.409393 -267.33353 
L 195.407341 -268.90745 
L 196.405289 -270.50407 
L 197.403237 -272.075557 
L 198.401184 -273.652544 
L 199.399132 -275.206989 
L 200.39708 -276.749355 
L 201.395028 -278.272113 
L 202.392976 -279.784108 
L 203.390924 -281.261712 
L 204.388872 -282.726952 
L 205.38682 -284.164827 
L 206.384768 -285.588474 
L 207.382716 -286.976245 
L 208.380664 -288.365851 
L 209.378612 -289.733715 
L 210.37656 -291.054962 
L 211.374508 -292.383422 
L 212.372456 -293.659494 
L 213.370404 -294.930825 
L 214.368352 -296.192795 
L 215.3663 -297.409679 
L 216.364248 -298.597239 
L 217.362196 -299.76306 
L 218.360144 -300.903446 
L 219.358092 -302.014725 
L 220.35604 -303.114545 
L 221.353988 -304.193556 
L 222.351936 -305.257502 
L 223.349884 -306.272298 
L 224.347832 -307.252935 
L 225.34578 -308.218818 
L 226.343728 -309.180008 
L 227.341676 -310.107882 
L 228.339624 -311.007277 
L 229.337572 -311.891103 
L 230.33552 -312.738361 
L 231.333468 -313.583723 
L 232.331416 -314.385461 
L 233.329364 -315.188281 
L 234.327312 -315.952847 
L 235.32526 -316.714045 
L 236.323208 -317.456223 
L 237.321156 -318.166957 
L 238.319104 -318.877704 
L 239.317052 -319.546669 
L 240.315 -320.228914 
L 241.312948 -320.892884 
L 242.310896 -321.536987 
L 243.308844 -322.1514 
L 244.306792 -322.774685 
L 245.30474 -323.388139 
L 246.302688 -323.988544 
L 247.300636 -324.545433 
L 248.298584 -325.135008 
L 249.296532 -325.690677 
L 250.29448 -326.251241 
L 251.292428 -326.812114 
L 252.290375 -327.360605 
L 253.288323 -327.915223 
L 254.286271 -328.481903 
L 255.284219 -329.033586 
L 256.282167 -329.572891 
L 257.280115 -330.150373 
L 258.278063 -330.739022 
L 259.276011 -331.323201 
L 260.273959 -331.889288 
L 261.271907 -332.47449 
L 262.269855 -333.084829 
L 263.267803 -333.688805 
L 264.265751 -334.309029 
L 265.263699 -334.966231 
L 266.261647 -335.634158 
L 267.259595 -336.300993 
L 268.257543 -337.015387 
L 269.255491 -337.71603 
L 270.253439 -338.450438 
L 271.251387 -339.198631 
L 272.249335 -339.981771 
L 273.247283 -340.762585 
L 274.245231 -341.558285 
L 275.243179 -342.361365 
L 276.241127 -343.206726 
L 277.239075 -344.027364 
L 278.237023 -344.917996 
L 279.234971 -345.785605 
L 280.232919 -346.716207 
L 281.230867 -347.621681 
L 282.228815 -348.557957 
L 283.226763 -349.498468 
L 284.224711 -350.442776 
L 285.222659 -351.398818 
L 286.220607 -352.370826 
L 287.218555 -353.344483 
L 288.216503 -354.301667 
L 289.214451 -355.266946 
L 290.212399 -356.234022 
L 291.210347 -357.225183 
L 292.208295 -358.180885 
L 293.206243 -359.132272 
L 294.204191 -360.059621 
L 295.202139 -360.987891 
L 296.200087 -361.894995 
L 297.198035 -362.793688 
L 298.195983 -363.691358 
L 299.193931 -364.576121 
L 300.191879 -365.414948 
L 301.189827 -366.23854 
L 302.187775 -367.027826 
L 303.185723 -367.798608 
L 304.183671 -368.497049 
L 305.181619 -369.203639 
L 306.179566 -369.854789 
L 307.177514 -370.48663 
L 308.175462 -371.059478 
L 309.17341 -371.60291 
L 310.171358 -372.062341 
L 311.169306 -372.490325 
L 312.167254 -372.882602 
L 313.165202 -373.212525 
L 314.16315 -373.506092 
L 315.161098 -373.752474 
L 316.159046 -373.942929 
L 317.156994 -374.108312 
L 318.154942 -374.181517 
L 319.15289 -374.210364 
L 320.150838 -374.209404 
L 321.148786 -374.15965 
L 322.146734 -374.036941 
L 323.144682 -373.904651 
L 324.14263 -373.713949 
L 325.140578 -373.465523 
L 326.138526 -373.164193 
L 327.136474 -372.803547 
L 328.134422 -372.405223 
L 329.13237 -371.993833 
L 330.130318 -371.513337 
L 331.128266 -370.994111 
L 332.126214 -370.457104 
L 333.124162 -369.863685 
L 334.12211 -369.255269 
L 335.120058 -368.633654 
L 336.118006 -367.997754 
L 337.115954 -367.340811 
L 338.113902 -366.650669 
L 339.11185 -365.963473 
L 340.109798 -365.262079 
L 341.107746 -364.552009 
L 342.105694 -363.853215 
L 343.103642 -363.118182 
L 344.10159 -362.429072 
L 345.099538 -361.716046 
L 346.097486 -361.04356 
L 347.095434 -360.346126 
L 348.093382 -359.686924 
L 349.09133 -359.055825 
L 350.089278 -358.430877 
L 351.087226 -357.823772 
L 352.085174 -357.238669 
L 353.083122 -356.660902 
L 354.08107 -356.106167 
L 355.079018 -355.601651 
L 356.076966 -355.104764 
L 357.074914 -354.666308 
L 358.072862 -354.225622 
L 359.07081 -353.823037 
L 360.068757 -353.493288 
L 361.066705 -353.148448 
L 362.064653 -352.8445 
L 363.062601 -352.57887 
L 364.060549 -352.337096 
L 365.058497 -352.111731 
L 366.056445 -351.912694 
L 367.054393 -351.690237 
L 368.052341 -351.538981 
L 369.050289 -351.415752 
L 370.048237 -351.308295 
L 371.046185 -351.209257 
L 372.044133 -351.114276 
L 373.042081 -351.019651 
L 374.040029 -350.946015 
L 375.037977 -350.873335 
L 376.035925 -350.810609 
L 377.033873 -350.755144 
L 378.031821 -350.673522 
L 379.029769 -350.623307 
L 380.027717 -350.549647 
L 381.025665 -350.475131 
L 382.023613 -350.379857 
L 383.021561 -350.26066 
L 384.019509 -350.162452 
L 385.017457 -350.030994 
L 386.015405 -349.894555 
L 387.013353 -349.73492 
L 388.011301 -349.558407 
L 389.009249 -349.36839 
L 390.007197 -349.159428 
L 391.005145 -348.929353 
L 392.003093 -348.706547 
L 393.001041 -348.430569 
L 393.998989 -348.195902 
L 394.996937 -347.894216 
L 395.994885 -347.582686 
L 396.992833 -347.258352 
L 397.990781 -346.907975 
L 398.988729 -346.544162 
L 399.986677 -346.191394 
L 400.984625 -345.810096 
L 401.982573 -345.402798 
L 402.980521 -344.987756 
L 403.978469 -344.575956 
L 404.976417 -344.169469 
L 405.974365 -343.77652 
L 406.972313 -343.350284 
L 407.970261 -342.917837 
L 408.968209 -342.483478 
L 409.966157 -342.041933 
L 410.964105 -341.598153 
L 411.962053 -341.18885 
L 412.96 -340.748574 
L 413.957948 -340.323346 
L 414.955896 -339.892573 
L 415.953844 -339.460415 
L 416.951792 -339.035406 
L 417.94974 -338.61056 
L 418.947688 -338.198684 
L 419.945636 -337.807196 
L 420.943584 -337.371918 
L 421.941532 -336.965791 
L 422.93948 -336.549504 
L 423.937428 -336.149682 
L 424.935376 -335.748568 
L 425.933324 -335.360978 
L 426.931272 -334.970887 
L 427.92922 -334.583487 
L 428.927168 -334.183964 
L 429.925116 -333.794485 
L 430.923064 -333.405141 
L 431.921012 -332.995114 
L 432.91896 -332.581823 
L 433.916908 -332.15954 
L 434.914856 -331.741579 
L 435.912804 -331.291505 
L 436.910752 -330.844647 
L 437.9087 -330.392049 
L 438.906648 -329.943507 
L 439.904596 -329.479149 
L 440.902544 -328.980884 
L 441.900492 -328.453945 
L 442.89844 -327.911129 
L 443.896388 -327.353929 
L 444.894336 -326.795328 
L 445.892284 -326.198731 
L 446.890232 -325.593581 
L 447.88818 -324.960527 
L 448.886128 -324.331977 
L 449.884076 -323.644173 
L 450.882024 -322.939983 
L 451.879972 -322.206197 
L 452.87792 -321.440511 
L 453.875868 -320.66644 
L 454.873816 -319.899659 
L 455.871764 -319.106529 
L 456.869712 -318.274827 
L 457.86766 -317.433456 
L 458.865608 -316.541279 
L 459.863556 -315.639922 
L 460.861504 -314.697323 
L 461.859452 -313.738398 
L 462.8574 -312.775015 
L 463.855348 -311.80854 
L 464.853296 -310.801674 
L 465.851244 -309.794877 
L 466.849191 -308.76403 
L 467.847139 -307.701346 
L 468.845087 -306.622894 
L 469.843035 -305.548804 
L 470.840983 -304.44868 
L 471.838931 -303.344165 
L 472.836879 -302.250684 
L 473.834827 -301.115435 
L 474.832775 -300.010388 
L 475.830723 -298.897341 
L 476.828671 -297.761648 
L 477.826619 -296.629598 
L 478.824567 -295.500772 
L 479.822515 -294.363939 
L 480.820463 -293.2313 
L 481.818411 -292.094616 
L 482.816359 -290.972723 
L 483.814307 -289.838215 
L 484.812255 -288.712389 
L 485.810203 -287.591104 
L 486.808151 -286.475063 
L 487.806099 -285.381165 
L 488.804047 -284.2697 
L 489.801995 -283.201662 
L 490.799943 -282.113647 
L 491.797891 -281.062408 
L 492.795839 -280.00332 
L 493.793787 -278.95906 
L 494.791735 -277.932698 
L 495.789683 -276.912308 
L 496.787631 -275.921233 
L 497.785579 -274.939909 
L 498.783527 -273.960448 
L 499.781475 -272.992927 
L 500.779423 -272.023769 
L 501.777371 -271.04729 
L 502.775319 -270.086111 
L 503.773267 -269.112998 
L 504.771215 -268.139437 
L 505.769163 -267.207139 
L 506.767111 -266.251657 
L 507.765059 -265.308063 
L 508.763007 -264.358875 
L 509.760955 -263.401452 
L 510.758903 -262.44486 
L 511.756851 -261.510002 
L 512.754799 -260.540122 
L 513.752747 -259.562967 
L 514.750695 -258.581313 
L 515.748643 -257.584406 
L 516.746591 -256.584589 
L 517.744539 -255.593456 
L 518.742487 -254.576247 
L 519.740435 -253.54844 
L 520.738382 -252.482064 
L 521.73633 -251.424219 
L 522.734278 -250.368459 
L 523.732226 -249.265146 
L 524.730174 -248.151382 
L 525.728122 -247.023137 
L 526.72607 -245.892861 
L 527.724018 -244.770184 
L 528.721966 -243.601236 
L 529.719914 -242.4026 
L 530.717862 -241.188498 
L 531.71581 -239.973277 
L 532.713758 -238.766611 
L 533.711706 -237.511941 
L 534.709654 -236.258063 
L 535.707602 -234.994592 
L 536.70555 -233.715386 
L 537.703498 -232.421132 
L 538.701446 -231.091221 
L 539.699394 -229.791844 
L 540.697342 -228.474503 
L 541.69529 -227.157818 
L 542.693238 -225.854211 
L 543.691186 -224.517833 
L 544.689134 -223.190913 
L 545.687082 -221.884527 
L 546.68503 -220.5556 
L 547.682978 -219.22698 
L 548.680926 -217.900095 
L 549.678874 -216.593099 
L 550.676822 -215.289876 
L 551.67477 -213.992788 
L 552.672718 -212.74219 
L 553.670666 -211.485917 
L 554.668614 -210.248156 
L 555.666562 -209.038562 
L 556.66451 -207.813882 
L 557.662458 -206.630125 
L 558.660406 -205.462263 
L 559.658354 -204.321496 
L 560.656302 -203.209526 
L 561.65425 -202.097205 
L 562.652198 -201.036191 
L 563.650146 -199.979971 
L 564.648094 -198.954287 
L 565.646042 -197.9694 
L 566.64399 -197.003452 
L 567.641938 -196.058951 
L 568.639886 -195.164536 
L 569.637834 -194.269631 
L 570.635782 -193.416192 
L 571.63373 -192.589952 
L 572.631678 -191.796956 
L 573.629626 -191.04415 
L 574.627573 -190.339957 
L 575.625521 -189.642172 
L 576.623469 -188.982986 
L 577.621417 -188.371507 
L 578.619365 -187.787563 
L 579.617313 -187.207239 
L 580.615261 -186.67879 
L 581.613209 -186.178098 
L 582.611157 -185.712297 
L 583.609105 -185.258588 
L 584.607053 -184.845147 
L 585.605001 -184.477992 
L 586.602949 -184.163373 
L 587.600897 -183.849295 
L 588.598845 -183.578154 
L 589.596793 -183.317213 
L 590.594741 -183.101054 
L 591.592689 -182.901348 
L 592.590637 -182.75812 
L 593.588585 -182.628311 
L 594.586533 -182.560784 
L 595.584481 -182.517259 
L 596.582429 -182.490712 
L 596.582429 -97.98118 
L 596.582429 -97.98118 
L 595.584481 -97.98118 
L 594.586533 -97.98118 
L 593.588585 -97.98118 
L 592.590637 -97.98118 
L 591.592689 -97.98118 
L 590.594741 -97.98118 
L 589.596793 -97.98118 
L 588.598845 -97.98118 
L 587.600897 -97.98118 
L 586.602949 -97.98118 
L 585.605001 -97.98118 
L 584.607053 -97.98118 
L 583.609105 -97.98118 
L 582.611157 -97.98118 
L 581.613209 -97.98118 
L 580.615261 -97.98118 
L 579.617313 -97.98118 
L 578.619365 -97.98118 
L 577.621417 -97.98118 
L 576.623469 -97.98118 
L 575.625521 -97.98118 
L 574.627573 -97.98118 
L 573.629626 -97.98118 
L 572.631678 -97.98118 
L 571.63373 -97.98118 
L 570.635782 -97.98118 
L 569.637834 -97.98118 
L 568.639886 -97.98118 
L 567.641938 -97.98118 
L 566.64399 -97.98118 
L 565.646042 -97.98118 
L 564.648094 -97.98118 
L 563.650146 -97.98118 
L 562.652198 -97.98118 
L 561.65425 -97.98118 
L 560.656302 -97.98118 
L 559.658354 -97.98118 
L 558.660406 -97.98118 
L 557.662458 -97.98118 
L 556.66451 -97.98118 
L 555.666562 -97.98118 
L 554.668614 -97.98118 
L 553.670666 -97.98118 
L 552.672718 -97.98118 
L 551.67477 -97.98118 
L 550.676822 -97.98118 
L 549.678874 -97.98118 
L 548.680926 -97.98118 
L 547.682978 -97.98118 
L 546.68503 -97.98118 
L 545.687082 -97.98118 
L 544.689134 -97.98118 
L 543.691186 -97.98118 
L 542.693238 -97.98118 
L 541.69529 -97.98118 
L 540.697342 -97.98118 
L 539.699394 -97.98118 
L 538.701446 -97.98118 
L 537.703498 -97.98118 
L 536.70555 -97.98118 
L 535.707602 -97.98118 
L 534.709654 -97.98118 
L 533.711706 -97.98118 
L 532.713758 -97.98118 
L 531.71581 -97.98118 
L 530.717862 -97.98118 
L 529.719914 -97.98118 
L 528.721966 -97.98118 
L 527.724018 -97.98118 
L 526.72607 -97.98118 
L 525.728122 -97.98118 
L 524.730174 -97.98118 
L 523.732226 -97.98118 
L 522.734278 -97.98118 
L 521.73633 -97.98118 
L 520.738382 -97.98118 
L 519.740435 -97.98118 
L 518.742487 -97.98118 
L 517.744539 -97.98118 
L 516.746591 -97.98118 
L 515.748643 -97.98118 
L 514.750695 -97.98118 
L 513.752747 -97.98118 
L 512.754799 -97.98118 
L 511.756851 -97.98118 
L 510.758903 -97.98118 
L 509.760955 -97.98118 
L 508.763007 -97.98118 
L 507.765059 -97.98118 
L 506.767111 -97.98118 
L 505.769163 -97.98118 
L 504.771215 -97.98118 
L 503.773267 -97.98118 
L 502.775319 -97.98118 
L 501.777371 -97.98118 
L 500.779423 -97.98118 
L 499.781475 -97.98118 
L 498.783527 -97.98118 
L 497.785579 -97.98118 
L 496.787631 -97.98118 
L 495.789683 -97.98118 
L 494.791735 -97.98118 
L 493.793787 -97.98118 
L 492.795839 -97.98118 
L 491.797891 -97.98118 
L 490.799943 -97.98118 
L 489.801995 -97.98118 
L 488.804047 -97.98118 
L 487.806099 -97.98118 
L 486.808151 -97.98118 
L 485.810203 -97.98118 
L 484.812255 -97.98118 
L 483.814307 -97.98118 
L 482.816359 -97.98118 
L 481.818411 -97.98118 
L 480.820463 -97.98118 
L 479.822515 -97.98118 
L 478.824567 -97.98118 
L 477.826619 -97.98118 
L 476.828671 -97.98118 
L 475.830723 -97.98118 
L 474.832775 -97.98118 
L 473.834827 -97.98118 
L 472.836879 -97.98118 
L 471.838931 -97.98118 
L 470.840983 -97.98118 
L 469.843035 -97.98118 
L 468.845087 -97.98118 
L 467.847139 -97.98118 
L 466.849191 -97.98118 
L 465.851244 -97.98118 
L 464.853296 -97.98118 
L 463.855348 -97.98118 
L 462.8574 -97.98118 
L 461.859452 -97.98118 
L 460.861504 -97.98118 
L 459.863556 -97.98118 
L 458.865608 -97.98118 
L 457.86766 -97.98118 
L 456.869712 -97.98118 
L 455.871764 -97.98118 
L 454.873816 -97.98118 
L 453.875868 -97.98118 
L 452.87792 -97.98118 
L 451.879972 -97.98118 
L 450.882024 -97.98118 
L 449.884076 -97.98118 
L 448.886128 -97.98118 
L 447.88818 -97.98118 
L 446.890232 -97.98118 
L 445.892284 -97.98118 
L 444.894336 -97.98118 
L 443.896388 -97.98118 
L 442.89844 -97.98118 
L 441.900492 -97.98118 
L 440.902544 -97.98118 
L 439.904596 -97.98118 
L 438.906648 -97.98118 
L 437.9087 -97.98118 
L 436.910752 -97.98118 
L 435.912804 -97.98118 
L 434.914856 -97.98118 
L 433.916908 -97.98118 
L 432.91896 -97.98118 
L 431.921012 -97.98118 
L 430.923064 -97.98118 
L 429.925116 -97.98118 
L 428.927168 -97.98118 
L 427.92922 -97.98118 
L 426.931272 -97.98118 
L 425.933324 -97.98118 
L 424.935376 -97.98118 
L 423.937428 -97.98118 
L 422.93948 -97.98118 
L 421.941532 -97.98118 
L 420.943584 -97.98118 
L 419.945636 -97.98118 
L 418.947688 -97.98118 
L 417.94974 -97.98118 
L 416.951792 -97.98118 
L 415.953844 -97.98118 
L 414.955896 -97.98118 
L 413.957948 -97.98118 
L 412.96 -97.98118 
L 411.962053 -97.98118 
L 410.964105 -97.98118 
L 409.966157 -97.98118 
L 408.968209 -97.98118 
L 407.970261 -97.98118 
L 406.972313 -97.98118 
L 405.974365 -97.98118 
L 404.976417 -97.98118 
L 403.978469 -97.98118 
L 402.980521 -97.98118 
L 401.982573 -97.98118 
L 400.984625 -97.98118 
L 399.986677 -97.98118 
L 398.988729 -97.98118 
L 397.990781 -97.98118 
L 396.992833 -97.98118 
L 395.994885 -97.98118 
L 394.996937 -97.98118 
L 393.998989 -97.98118 
L 393.001041 -97.98118 
L 392.003093 -97.98118 
L 391.005145 -97.98118 
L 390.007197 -97.98118 
L 389.009249 -97.98118 
L 388.011301 -97.98118 
L 387.013353 -97.98118 
L 386.015405 -97.98118 
L 385.017457 -97.98118 
L 384.019509 -97.98118 
L 383.021561 -97.98118 
L 382.023613 -97.98118 
L 381.025665 -97.98118 
L 380.027717 -97.98118 
L 379.029769 -97.98118 
L 378.031821 -97.98118 
L 377.033873 -97.98118 
L 376.035925 -97.98118 
L 375.037977 -97.98118 
L 374.040029 -97.98118 
L 373.042081 -97.98118 
L 372.044133 -97.98118 
L 371.046185 -97.98118 
L 370.048237 -97.98118 
L 369.050289 -97.98118 
L 368.052341 -97.98118 
L 367.054393 -97.98118 
L 366.056445 -97.98118 
L 365.058497 -97.98118 
L 364.060549 -97.98118 
L 363.062601 -97.98118 
L 362.064653 -97.98118 
L 361.066705 -97.98118 
L 360.068757 -97.98118 
L 359.07081 -97.98118 
L 358.072862 -97.98118 
L 357.074914 -97.98118 
L 356.076966 -97.98118 
L 355.079018 -97.98118 
L 354.08107 -97.98118 
L 353.083122 -97.98118 
L 352.085174 -97.98118 
L 351.087226 -97.98118 
L 350.089278 -97.98118 
L 349.09133 -97.98118 
L 348.093382 -97.98118 
L 347.095434 -97.98118 
L 346.097486 -97.98118 
L 345.099538 -97.98118 
L 344.10159 -97.98118 
L 343.103642 -97.98118 
L 342.105694 -97.98118 
L 341.107746 -97.98118 
L 340.109798 -97.98118 
L 339.11185 -97.98118 
L 338.113902 -97.98118 
L 337.115954 -97.98118 
L 336.118006 -97.98118 
L 335.120058 -97.98118 
L 334.12211 -97.98118 
L 333.124162 -97.98118 
L 332.126214 -97.98118 
L 331.128266 -97.98118 
L 330.130318 -97.98118 
L 329.13237 -97.98118 
L 328.134422 -97.98118 
L 327.136474 -97.98118 
L 326.138526 -97.98118 
L 325.140578 -97.98118 
L 324.14263 -97.98118 
L 323.144682 -97.98118 
L 322.146734 -97.98118 
L 321.148786 -97.98118 
L 320.150838 -97.98118 
L 319.15289 -97.98118 
L 318.154942 -97.98118 
L 317.156994 -97.98118 
L 316.159046 -97.98118 
L 315.161098 -97.98118 
L 314.16315 -97.98118 
L 313.165202 -97.98118 
L 312.167254 -97.98118 
L 311.169306 -97.98118 
L 310.171358 -97.98118 
L 309.17341 -97.98118 
L 308.175462 -97.98118 
L 307.177514 -97.98118 
L 306.179566 -97.98118 
L 305.181619 -97.98118 
L 304.183671 -97.98118 
L 303.185723 -97.98118 
L 302.187775 -97.98118 
L 301.189827 -97.98118 
L 300.191879 -97.98118 
L 299.193931 -97.98118 
L 298.195983 -97.98118 
L 297.198035 -97.98118 
L 296.200087 -97.98118 
L 295.202139 -97.98118 
L 294.204191 -97.98118 
L 293.206243 -97.98118 
L 292.208295 -97.98118 
L 291.210347 -97.98118 
L 290.212399 -97.98118 
L 289.214451 -97.98118 
L 288.216503 -97.98118 
L 287.218555 -97.98118 
L 286.220607 -97.98118 
L 285.222659 -97.98118 
L 284.224711 -97.98118 
L 283.226763 -97.98118 
L 282.228815 -97.98118 
L 281.230867 -97.98118 
L 280.232919 -97.98118 
L 279.234971 -97.98118 
L 278.237023 -97.98118 
L 277.239075 -97.98118 
L 276.241127 -97.98118 
L 275.243179 -97.98118 
L 274.245231 -97.98118 
L 273.247283 -97.98118 
L 272.249335 -97.98118 
L 271.251387 -97.98118 
L 270.253439 -97.98118 
L 269.255491 -97.98118 
L 268.257543 -97.98118 
L 267.259595 -97.98118 
L 266.261647 -97.98118 
L 265.263699 -97.98118 
L 264.265751 -97.98118 
L 263.267803 -97.98118 
L 262.269855 -97.98118 
L 261.271907 -97.98118 
L 260.273959 -97.98118 
L 259.276011 -97.98118 
L 258.278063 -97.98118 
L 257.280115 -97.98118 
L 256.282167 -97.98118 
L 255.284219 -97.98118 
L 254.286271 -97.98118 
L 253.288323 -97.98118 
L 252.290375 -97.98118 
L 251.292428 -97.98118 
L 250.29448 -97.98118 
L 249.296532 -97.98118 
L 248.298584 -97.98118 
L 247.300636 -97.98118 
L 246.302688 -97.98118 
L 245.30474 -97.98118 
L 244.306792 -97.98118 
L 243.308844 -97.98118 
L 242.310896 -97.98118 
L 241.312948 -97.98118 
L 240.315 -97.98118 
L 239.317052 -97.98118 
L 238.319104 -97.98118 
L 237.321156 -97.98118 
L 236.323208 -97.98118 
L 235.32526 -97.98118 
L 234.327312 -97.98118 
L 233.329364 -97.98118 
L 232.331416 -97.98118 
L 231.333468 -97.98118 
L 230.33552 -97.98118 
L 229.337572 -97.98118 
L 228.339624 -97.98118 
L 227.341676 -97.98118 
L 226.343728 -97.98118 
L 225.34578 -97.98118 
L 224.347832 -97.98118 
L 223.349884 -97.98118 
L 222.351936 -97.98118 
L 221.353988 -97.98118 
L 220.35604 -97.98118 
L 219.358092 -97.98118 
L 218.360144 -97.98118 
L 217.362196 -97.98118 
L 216.364248 -97.98118 
L 215.3663 -97.98118 
L 214.368352 -97.98118 
L 213.370404 -97.98118 
L 212.372456 -97.98118 
L 211.374508 -97.98118 
L 210.37656 -97.98118 
L 209.378612 -97.98118 
L 208.380664 -97.98118 
L 207.382716 -97.98118 
L 206.384768 -97.98118 
L 205.38682 -97.98118 
L 204.388872 -97.98118 
L 203.390924 -97.98118 
L 202.392976 -97.98118 
L 201.395028 -97.98118 
L 200.39708 -97.98118 
L 199.399132 -97.98118 
L 198.401184 -97.98118 
L 197.403237 -97.98118 
L 196.405289 -97.98118 
L 195.407341 -97.98118 
L 194.409393 -97.98118 
L 193.411445 -97.98118 
L 192.413497 -97.98118 
L 191.415549 -97.98118 
L 190.417601 -97.98118 
L 189.419653 -97.98118 
L 188.421705 -97.98118 
L 187.423757 -97.98118 
L 186.425809 -97.98118 
L 185.427861 -97.98118 
L 184.429913 -97.98118 
L 183.431965 -97.98118 
L 182.434017 -97.98118 
L 181.436069 -97.98118 
L 180.438121 -97.98118 
L 179.440173 -97.98118 
L 178.442225 -97.98118 
L 177.444277 -97.98118 
L 176.446329 -97.98118 
L 175.448381 -97.98118 
L 174.450433 -97.98118 
L 173.452485 -97.98118 
L 172.454537 -97.98118 
L 171.456589 -97.98118 
L 170.458641 -97.98118 
L 169.460693 -97.98118 
L 168.462745 -97.98118 
L 167.464797 -97.98118 
L 166.466849 -97.98118 
L 165.468901 -97.98118 
L 164.470953 -97.98118 
L 163.473005 -97.98118 
L 162.475057 -97.98118 
L 161.477109 -97.98118 
L 160.479161 -97.98118 
L 159.481213 -97.98118 
L 158.483265 -97.98118 
L 157.485317 -97.98118 
L 156.487369 -97.98118 
L 155.489421 -97.98118 
L 154.491473 -97.98118 
L 153.493525 -97.98118 
L 152.495577 -97.98118 
L 151.497629 -97.98118 
L 150.499681 -97.98118 
L 149.501733 -97.98118 
L 148.503785 -97.98118 
L 147.505837 -97.98118 
L 146.507889 -97.98118 
L 145.509941 -97.98118 
L 144.511994 -97.98118 
L 143.514046 -97.98118 
L 142.516098 -97.98118 
L 141.51815 -97.98118 
L 140.520202 -97.98118 
L 139.522254 -97.98118 
L 138.524306 -97.98118 
L 137.526358 -97.98118 
L 136.52841 -97.98118 
L 135.530462 -97.98118 
L 134.532514 -97.98118 
L 133.534566 -97.98118 
L 132.536618 -97.98118 
L 131.53867 -97.98118 
L 130.540722 -97.98118 
L 129.542774 -97.98118 
L 128.544826 -97.98118 
L 127.546878 -97.98118 
L 126.54893 -97.98118 
L 125.550982 -97.98118 
L 124.553034 -97.98118 
L 123.555086 -97.98118 
L 122.557138 -97.98118 
L 121.55919 -97.98118 
L 120.561242 -97.98118 
L 119.563294 -97.98118 
L 118.565346 -97.98118 
L 117.567398 -97.98118 
L 116.56945 -97.98118 
L 115.571502 -97.98118 
L 114.573554 -97.98118 
L 113.575606 -97.98118 
L 112.577658 -97.98118 
L 111.57971 -97.98118 
L 110.581762 -97.98118 
L 109.583814 -97.98118 
L 108.585866 -97.98118 
L 107.587918 -97.98118 
L 106.58997 -97.98118 
L 105.592022 -97.98118 
L 104.594074 -97.98118 
L 103.596126 -97.98118 
L 102.598178 -97.98118 
L 101.60023 -97.98118 
L 100.602282 -97.98118 
L 99.604334 -97.98118 
L 98.606386 -97.98118 
L 97.608438 -97.98118 
L 96.61049 -97.98118 
L 95.612542 -97.98118 
L 94.614594 -97.98118 
L 93.616646 -97.98118 
L 92.618698 -97.98118 
L 91.62075 -97.98118 
L 90.622803 -97.98118 
L 89.624855 -97.98118 
L 88.626907 -97.98118 
L 87.628959 -97.98118 
L 86.631011 -97.98118 
z
" style="stroke: #ff7f0e; stroke-opacity: 0.35; stroke-width: 0.3"/>
    </defs>
    <g clip-path="url(#p4eb61cc1c8)">
     <use xlink:href="#m2c4d2e4a72" x="0" y="504" style="fill: #ff7f0e; fill-opacity: 0.35; stroke: #ff7f0e; stroke-opacity: 0.35; stroke-width: 0.3"/>
    </g>
   </g>
   <g id="line2d_7">
    <path d="M 86.631011 313.664428 
L 89.624855 313.52858 
L 92.618698 313.127664 
L 95.612542 312.550186 
L 98.606386 311.736122 
L 102.598178 310.388199 
L 106.58997 308.811707 
L 111.57971 306.631858 
L 118.565346 303.402386 
L 123.555086 301.158033 
L 130.540722 298.285787 
L 139.522254 294.765357 
L 144.511994 292.733689 
L 148.503785 290.904129 
L 152.495577 288.676932 
L 155.489421 286.786293 
L 158.483265 284.627789 
L 161.477109 282.161937 
L 164.470953 279.341911 
L 167.464797 276.155604 
L 170.458641 272.660597 
L 173.452485 268.830586 
L 177.444277 263.295904 
L 181.436069 257.380259 
L 187.423757 247.930282 
L 196.405289 233.49593 
L 202.392976 224.215892 
L 207.382716 217.023755 
L 211.374508 211.616578 
L 216.364248 205.402761 
L 220.35604 200.885455 
L 223.349884 197.727702 
L 227.341676 193.892118 
L 231.333468 190.416277 
L 236.323208 186.543777 
L 241.312948 183.107116 
L 246.302688 180.011456 
L 260.273959 172.110712 
L 264.265751 169.690971 
L 269.255491 166.28397 
L 273.247283 163.237415 
L 277.239075 159.972636 
L 283.226763 154.501532 
L 290.212399 147.765978 
L 294.204191 143.940379 
L 299.193931 139.423879 
L 303.185723 136.201392 
L 307.177514 133.51337 
L 309.17341 132.39709 
L 312.167254 131.117398 
L 314.16315 130.493908 
L 316.159046 130.057071 
L 318.154942 129.818483 
L 321.148786 129.84035 
L 324.14263 130.286051 
L 326.138526 130.835807 
L 329.13237 132.006167 
L 332.126214 133.542896 
L 336.118006 136.002246 
L 340.109798 138.737921 
L 348.093382 144.313076 
L 353.083122 147.339098 
L 356.076966 148.895236 
L 359.07081 150.176963 
L 363.062601 151.42113 
L 367.054393 152.309763 
L 370.048237 152.691705 
L 376.035925 153.189391 
L 382.023613 153.620143 
L 388.011301 154.441593 
L 392.003093 155.293453 
L 396.992833 156.741648 
L 401.982573 158.597202 
L 414.955896 164.107427 
L 422.93948 167.450496 
L 436.910752 173.155353 
L 440.902544 175.019116 
L 444.894336 177.204672 
L 448.886128 179.668023 
L 451.879972 181.793803 
L 456.869712 185.725173 
L 459.863556 188.360078 
L 464.853296 193.198326 
L 468.845087 197.377106 
L 473.834827 202.884565 
L 480.820463 210.7687 
L 488.804047 219.7303 
L 495.789683 227.087692 
L 504.771215 235.860563 
L 512.754799 243.459878 
L 519.740435 250.45156 
L 525.728122 256.976863 
L 529.719914 261.5974 
L 535.707602 269.005408 
L 541.69529 276.842182 
L 555.666562 294.961438 
L 558.660406 298.537737 
L 562.652198 302.963809 
L 565.646042 306.0306 
L 568.639886 308.835464 
L 571.63373 311.410048 
L 574.627573 313.660043 
L 577.621417 315.628493 
L 580.615261 317.32121 
L 583.609105 318.741412 
L 585.605001 319.522008 
L 589.596793 320.682787 
L 592.590637 321.24188 
L 594.586533 321.439216 
L 596.582429 321.509288 
L 596.582429 321.509288 
" clip-path="url(#p4eb61cc1c8)" style="fill: none; stroke: #ff7f0e; stroke-width: 2; stroke-linecap: round"/>
   </g>
   <g id="line2d_8">
    <path d="M 86.631011 406.942364 
L 86.631011 313.664428 
" clip-path="url(#p4eb61cc1c8)" style="fill: none; stroke: #ff7f0e; stroke-width: 2; stroke-linecap: round"/>
   </g>
   <g id="line2d_9">
    <path d="M 596.582429 406.863915 
L 596.582429 321.509288 
" clip-path="url(#p4eb61cc1c8)" style="fill: none; stroke: #ff7f0e; stroke-width: 2; stroke-linecap: round"/>
   </g>
   <g id="line2d_10">
    <defs>
     <path id="m8ec68a841b" d="M 0 3.5 
C 0.928211 3.5 1.81853 3.131218 2.474874 2.474874 
C 3.131218 1.81853 3.5 0.928211 3.5 0 
C 3.5 -0.928211 3.131218 -1.81853 2.474874 -2.474874 
C 1.81853 -3.131218 0.928211 -3.5 0 -3.5 
C -0.928211 -3.5 -1.81853 -3.131218 -2.474874 -2.474874 
C -3.131218 -1.81853 -3.5 -0.928211 -3.5 0 
C -3.5 0.928211 -3.131218 1.81853 -2.474874 2.474874 
C -1.81853 3.131218 -0.928211 3.5 0 3.5 
z
"/>
    </defs>
    <g clip-path="url(#p4eb61cc1c8)">
     <use xlink:href="#m8ec68a841b" x="342.966799" y="406.01882" style="fill: #ff7f0e"/>
    </g>
   </g>
   <g id="patch_3">
    <path d="M 61.13344 420.8 
L 622.08 420.8 
" style="fill: none; stroke: #333333; stroke-width: 1.5; stroke-linejoin: miter; stroke-linecap: square"/>
   </g>
   <g id="text_4">
    <!-- $x_2^2$ -->
    <g style="fill: #262626" transform="translate(299.42672 94.652)">
     <text>
      <tspan x="0" y="-0.421875" style="font-style: oblique; font-size: 76px; font-family: 'DejaVu Sans'; fill: #262626">x</tspan>
      <tspan x="44.976562" y="20.359375" style="font-size: 53.2px; font-family: 'DejaVu Sans'; fill: #262626">2</tspan>
      <tspan x="48.370833" y="-29.515625" style="font-size: 53.2px; font-family: 'DejaVu Sans'; fill: #262626">2</tspan>
     </text>
    </g>
   </g>
  </g>
 </g>
 <defs>
  <clipPath id="p4eb61cc1c8">
   <rect x="61.13344" y="115.932" width="560.94656" height="304.868"/>
  </clipPath>
 </defs>
</svg>
