<?xml version="1.0" encoding="utf-8" standalone="no"?>
<!DOCTYPE svg PUBLIC "-//W3C//DTD SVG 1.1//EN"
  "http://www.w3.org/Graphics/SVG/1.1/DTD/svg11.dtd">
<svg xmlns:xlink="http://www.w3.org/1999/xlink" width="648pt" height="504pt" viewBox="0 0 648 504" xmlns="http://www.w3.org/2000/svg" version="1.1">
 <metadata>
  <rdf:RDF xmlns:dc="http://purl.org/dc/elements/1.1/" xmlns:cc="http://creativecommons.org/ns#" xmlns:rdf="http://www.w3.org/1999/02/22-rdf-syntax-ns#">
   <cc:Work>
    <dc:type rdf:resource="http://purl.org/dc/dcmitype/StillImage"/>
    <dc:date>2026-02-22T16:15:37.432871</dc:date>
    <dc:format>image/svg+xml</dc:format>
    <dc:creator>
     <cc:Agent>
      <dc:title>Matplotlib v3.10.6, https://matplotlib.org/</dc:title>
     </cc:Agent>
    </dc:creator>
   </cc:Work>
  </rdf:RDF>
 </metadata>
 <defs>
  <style type="text/css">*{stroke-linejoin: round; stroke-linecap: butt}</style>
 </defs>
 <g id="figure_1">
  <g id="patch_1">
   <path d="M 0 504 
L 648 504 
L 648 0 
L 0 0 
L 0 504 
z
" style="fill: none; opacity: 0"/>
  </g>
  <g id="axes_1">
   <g id="patch_2">
    <path d="M 89.189844 420.8 
L 622.08 420.8 
L 622.08 115.932 
L 89.189844 115.932 
L 89.189844 420.8 
z
" style="fill: none"/>
   </g>
   <g id="matplotlib.axis_1">
    <g id="xtick_1">
     <g id="line2d_1">
      <path d="M 106.610806 420.8 
L 106.610806 115.932 
" clip-path="url(#p21a06b8717)" style="fill: none; stroke: #ffffff; stroke-opacity: 0.4; stroke-linecap: round"/>
     </g>
     <g id="line2d_2"/>
     <g id="text_1">
      <text style="font-size: 52px; font-family: 'DejaVu Serif', 'Times New Roman', serif; text-anchor: middle; fill: #262626" x="106.610806" y="467.311875" transform="rotate(-0 106.610806 467.311875)">−0.30</text>
     </g>
    </g>
    <g id="xtick_2">
     <g id="line2d_3">
      <path d="M 371.913429 420.8 
L 371.913429 115.932 
" clip-path="url(#p21a06b8717)" style="fill: none; stroke: #ffffff; stroke-opacity: 0.4; stroke-linecap: round"/>
     </g>
     <g id="line2d_4"/>
     <g id="text_2">
      <text style="font-size: 52px; font-family: 'DejaVu Serif', 'Times New Roman', serif; text-anchor: middle; fill: #262626" x="371.913429" y="467.311875" transform="rotate(-0 371.913429 467.311875)">−0.25</text>
     </g>
    </g>
   </g>
   <g id="matplotlib.axis_2"/>
   <g id="FillBetweenPolyCollection_1">
    <defs>
     <path id="mae8cbd0fd3" d="M 113.412124 -98.052586 
L 113.412124 -197.547587 
L 114.360158 -197.569971 
L 115.308192 -197.59875 
L 116.256227 -197.633751 
L 117.204261 -197.668252 
L 118.152296 -197.722027 
L 119.10033 -197.780096 
L 120.048365 -197.846469 
L 120.996399 -197.929787 
L 121.944434 -198.020679 
L 122.892468 -198.136817 
L 123.840502 -198.23233 
L 124.788537 -198.340589 
L 125.736571 -198.476738 
L 126.684606 -198.593293 
L 127.63264 -198.753231 
L 128.580675 -198.947302 
L 129.528709 -199.131199 
L 130.476743 -199.298032 
L 131.424778 -199.528928 
L 132.372812 -199.74548 
L 133.320847 -199.982132 
L 134.268881 -200.249157 
L 135.216916 -200.543962 
L 136.16495 -200.838984 
L 137.112985 -201.156209 
L 138.061019 -201.504598 
L 139.009053 -201.870083 
L 139.957088 -202.248803 
L 140.905122 -202.620886 
L 141.853157 -203.060146 
L 142.801191 -203.489708 
L 143.749226 -203.957986 
L 144.69726 -204.445086 
L 145.645294 -204.958534 
L 146.593329 -205.484459 
L 147.541363 -206.047452 
L 148.489398 -206.632569 
L 149.437432 -207.229541 
L 150.385467 -207.86472 
L 151.333501 -208.524474 
L 152.281535 -209.190354 
L 153.22957 -209.905557 
L 154.177604 -210.633564 
L 155.125639 -211.383687 
L 156.073673 -212.184149 
L 157.021708 -213.036855 
L 157.969742 -213.8844 
L 158.917777 -214.758911 
L 159.865811 -215.663018 
L 160.813845 -216.58387 
L 161.76188 -217.551352 
L 162.709914 -218.530767 
L 163.657949 -219.540212 
L 164.605983 -220.557328 
L 165.554018 -221.621419 
L 166.502052 -222.681076 
L 167.450086 -223.780884 
L 168.398121 -224.898111 
L 169.346155 -226.060142 
L 170.29419 -227.221052 
L 171.242224 -228.407232 
L 172.190259 -229.628753 
L 173.138293 -230.857226 
L 174.086327 -232.089768 
L 175.034362 -233.349299 
L 175.982396 -234.621571 
L 176.930431 -235.890945 
L 177.878465 -237.181084 
L 178.8265 -238.482179 
L 179.774534 -239.793785 
L 180.722569 -241.111312 
L 181.670603 -242.403679 
L 182.618637 -243.712057 
L 183.566672 -245.02832 
L 184.514706 -246.352776 
L 185.462741 -247.696576 
L 186.410775 -249.020043 
L 187.35881 -250.32295 
L 188.306844 -251.642035 
L 189.254878 -252.959389 
L 190.202913 -254.267927 
L 191.150947 -255.575013 
L 192.098982 -256.857533 
L 193.047016 -258.13785 
L 193.995051 -259.404023 
L 194.943085 -260.6758 
L 195.89112 -261.946655 
L 196.839154 -263.187549 
L 197.787188 -264.418181 
L 198.735223 -265.642909 
L 199.683257 -266.855574 
L 200.631292 -268.048766 
L 201.579326 -269.222489 
L 202.527361 -270.390255 
L 203.475395 -271.519661 
L 204.423429 -272.656651 
L 205.371464 -273.772455 
L 206.319498 -274.879846 
L 207.267533 -275.962852 
L 208.215567 -277.026193 
L 209.163602 -278.121041 
L 210.111636 -279.192175 
L 211.05967 -280.227157 
L 212.007705 -281.247086 
L 212.955739 -282.327858 
L 213.903774 -283.357735 
L 214.851808 -284.391282 
L 215.799843 -285.420771 
L 216.747877 -286.444903 
L 217.695912 -287.442882 
L 218.643946 -288.456918 
L 219.59198 -289.425577 
L 220.540015 -290.427573 
L 221.488049 -291.438661 
L 222.436084 -292.421226 
L 223.384118 -293.377818 
L 224.332153 -294.352989 
L 225.280187 -295.304004 
L 226.228221 -296.254835 
L 227.176256 -297.217279 
L 228.12429 -298.193506 
L 229.072325 -299.134303 
L 230.020359 -300.079891 
L 230.968394 -301.01455 
L 231.916428 -301.963904 
L 232.864462 -302.886469 
L 233.812497 -303.805544 
L 234.760531 -304.726164 
L 235.708566 -305.622383 
L 236.6566 -306.53459 
L 237.604635 -307.417295 
L 238.552669 -308.283417 
L 239.500704 -309.121984 
L 240.448738 -309.977224 
L 241.396772 -310.814992 
L 242.344807 -311.660236 
L 243.292841 -312.485718 
L 244.240876 -313.289693 
L 245.18891 -314.073455 
L 246.136945 -314.887596 
L 247.084979 -315.683773 
L 248.033013 -316.439335 
L 248.981048 -317.213646 
L 249.929082 -317.958964 
L 250.877117 -318.677763 
L 251.825151 -319.382638 
L 252.773186 -320.068988 
L 253.72122 -320.780523 
L 254.669255 -321.439071 
L 255.617289 -322.118742 
L 256.565323 -322.767515 
L 257.513358 -323.412818 
L 258.461392 -324.039721 
L 259.409427 -324.634249 
L 260.357461 -325.24085 
L 261.305496 -325.858092 
L 262.25353 -326.457932 
L 263.201564 -327.068556 
L 264.149599 -327.678294 
L 265.097633 -328.249536 
L 266.045668 -328.831308 
L 266.993702 -329.378295 
L 267.941737 -329.977484 
L 268.889771 -330.574092 
L 269.837805 -331.123127 
L 270.78584 -331.715825 
L 271.733874 -332.269811 
L 272.681909 -332.806921 
L 273.629943 -333.380813 
L 274.577978 -333.951665 
L 275.526012 -334.521331 
L 276.474047 -335.080867 
L 277.422081 -335.659442 
L 278.370115 -336.248963 
L 279.31815 -336.804229 
L 280.266184 -337.389886 
L 281.214219 -337.968356 
L 282.162253 -338.533068 
L 283.110288 -339.144195 
L 284.058322 -339.746078 
L 285.006356 -340.364872 
L 285.954391 -340.95553 
L 286.902425 -341.595438 
L 287.85046 -342.218254 
L 288.798494 -342.844853 
L 289.746529 -343.460246 
L 290.694563 -344.10227 
L 291.642597 -344.744265 
L 292.590632 -345.388338 
L 293.538666 -346.032523 
L 294.486701 -346.685496 
L 295.434735 -347.322857 
L 296.38277 -347.96512 
L 297.330804 -348.598786 
L 298.278839 -349.242892 
L 299.226873 -349.899805 
L 300.174907 -350.524494 
L 301.122942 -351.143105 
L 302.070976 -351.791943 
L 303.019011 -352.446931 
L 303.967045 -353.071013 
L 304.91508 -353.701635 
L 305.863114 -354.335343 
L 306.811148 -354.954793 
L 307.759183 -355.573254 
L 308.707217 -356.211027 
L 309.655252 -356.821266 
L 310.603286 -357.446606 
L 311.551321 -358.070373 
L 312.499355 -358.663024 
L 313.44739 -359.244916 
L 314.395424 -359.841424 
L 315.343458 -360.412691 
L 316.291493 -360.950739 
L 317.239527 -361.523075 
L 318.187562 -362.083385 
L 319.135596 -362.612399 
L 320.083631 -363.157027 
L 321.031665 -363.66319 
L 321.979699 -364.160732 
L 322.927734 -364.656098 
L 323.875768 -365.121106 
L 324.823803 -365.560034 
L 325.771837 -366.033348 
L 326.719872 -366.49923 
L 327.667906 -366.927144 
L 328.61594 -367.327706 
L 329.563975 -367.724751 
L 330.512009 -368.107493 
L 331.460044 -368.485369 
L 332.408078 -368.837518 
L 333.356113 -369.179665 
L 334.304147 -369.509475 
L 335.252182 -369.809782 
L 336.200216 -370.146602 
L 337.14825 -370.439514 
L 338.096285 -370.721382 
L 339.044319 -370.993301 
L 339.992354 -371.251213 
L 340.940388 -371.508413 
L 341.888423 -371.7388 
L 342.836457 -371.957387 
L 343.784491 -372.154483 
L 344.732526 -372.357539 
L 345.68056 -372.542051 
L 346.628595 -372.729018 
L 347.576629 -372.925626 
L 348.524664 -373.090859 
L 349.472698 -373.243865 
L 350.420732 -373.393597 
L 351.368767 -373.538358 
L 352.316801 -373.668022 
L 353.264836 -373.764327 
L 354.21287 -373.866447 
L 355.160905 -373.963627 
L 356.108939 -374.054828 
L 357.056974 -374.106653 
L 358.005008 -374.137114 
L 358.953042 -374.173081 
L 359.901077 -374.189777 
L 360.849111 -374.183703 
L 361.797146 -374.210364 
L 362.74518 -374.193607 
L 363.693215 -374.184087 
L 364.641249 -374.137766 
L 365.589283 -374.076757 
L 366.537318 -374.007422 
L 367.485352 -373.929854 
L 368.433387 -373.818581 
L 369.381421 -373.704271 
L 370.329456 -373.591692 
L 371.27749 -373.438376 
L 372.225525 -373.230554 
L 373.173559 -373.031869 
L 374.121593 -372.809507 
L 375.069628 -372.572448 
L 376.017662 -372.297246 
L 376.965697 -372.044684 
L 377.913731 -371.762966 
L 378.861766 -371.457475 
L 379.8098 -371.125858 
L 380.757834 -370.774521 
L 381.705869 -370.404293 
L 382.653903 -370.035702 
L 383.601938 -369.663488 
L 384.549972 -369.257544 
L 385.498007 -368.800659 
L 386.446041 -368.342676 
L 387.394075 -367.902934 
L 388.34211 -367.43246 
L 389.290144 -366.930991 
L 390.238179 -366.412762 
L 391.186213 -365.884075 
L 392.134248 -365.378441 
L 393.082282 -364.831004 
L 394.030317 -364.291932 
L 394.978351 -363.753481 
L 395.926385 -363.230296 
L 396.87442 -362.706534 
L 397.822454 -362.147192 
L 398.770489 -361.609502 
L 399.718523 -361.037841 
L 400.666558 -360.484563 
L 401.614592 -359.939779 
L 402.562626 -359.373569 
L 403.510661 -358.854891 
L 404.458695 -358.337176 
L 405.40673 -357.806289 
L 406.354764 -357.304222 
L 407.302799 -356.793525 
L 408.250833 -356.282528 
L 409.198868 -355.78648 
L 410.146902 -355.289884 
L 411.094936 -354.842166 
L 412.042971 -354.360963 
L 412.991005 -353.892708 
L 413.93904 -353.463901 
L 414.887074 -353.015652 
L 415.835109 -352.585976 
L 416.783143 -352.161835 
L 417.731177 -351.715549 
L 418.679212 -351.32095 
L 419.627246 -350.888056 
L 420.575281 -350.506969 
L 421.523315 -350.121697 
L 422.47135 -349.71191 
L 423.419384 -349.337538 
L 424.367418 -348.9369 
L 425.315453 -348.559535 
L 426.263487 -348.180345 
L 427.211522 -347.775069 
L 428.159556 -347.378211 
L 429.107591 -346.988116 
L 430.055625 -346.611566 
L 431.00366 -346.203385 
L 431.951694 -345.826932 
L 432.899728 -345.439919 
L 433.847763 -345.046176 
L 434.795797 -344.652624 
L 435.743832 -344.269383 
L 436.691866 -343.854742 
L 437.639901 -343.476154 
L 438.587935 -343.0591 
L 439.535969 -342.668771 
L 440.484004 -342.252491 
L 441.432038 -341.841133 
L 442.380073 -341.43079 
L 443.328107 -340.985985 
L 444.276142 -340.554218 
L 445.224176 -340.111915 
L 446.17221 -339.650745 
L 447.120245 -339.220005 
L 448.068279 -338.75042 
L 449.016314 -338.277039 
L 449.964348 -337.783522 
L 450.912383 -337.309225 
L 451.860417 -336.804974 
L 452.808452 -336.299006 
L 453.756486 -335.779635 
L 454.70452 -335.228551 
L 455.652555 -334.670806 
L 456.600589 -334.144117 
L 457.548624 -333.573652 
L 458.496658 -332.998125 
L 459.444693 -332.416788 
L 460.392727 -331.826746 
L 461.340761 -331.194268 
L 462.288796 -330.564886 
L 463.23683 -329.907237 
L 464.184865 -329.232469 
L 465.132899 -328.560212 
L 466.080934 -327.841581 
L 467.028968 -327.091409 
L 467.977003 -326.351002 
L 468.925037 -325.582168 
L 469.873071 -324.776856 
L 470.821106 -323.940266 
L 471.76914 -323.096267 
L 472.717175 -322.22578 
L 473.665209 -321.301314 
L 474.613244 -320.381708 
L 475.561278 -319.444427 
L 476.509312 -318.464789 
L 477.457347 -317.449648 
L 478.405381 -316.417889 
L 479.353416 -315.355202 
L 480.30145 -314.248224 
L 481.249485 -313.136082 
L 482.197519 -311.995582 
L 483.145553 -310.810028 
L 484.093588 -309.595124 
L 485.041622 -308.361575 
L 485.989657 -307.104975 
L 486.937691 -305.815408 
L 487.885726 -304.50761 
L 488.83376 -303.187128 
L 489.781795 -301.842048 
L 490.729829 -300.458699 
L 491.677863 -299.052957 
L 492.625898 -297.622124 
L 493.573932 -296.188584 
L 494.521967 -294.742861 
L 495.470001 -293.278389 
L 496.418036 -291.803886 
L 497.36607 -290.296018 
L 498.314104 -288.794482 
L 499.262139 -287.293131 
L 500.210173 -285.772426 
L 501.158208 -284.232124 
L 502.106242 -282.703122 
L 503.054277 -281.181596 
L 504.002311 -279.645581 
L 504.950345 -278.120471 
L 505.89838 -276.552561 
L 506.846414 -275.005814 
L 507.794449 -273.452261 
L 508.742483 -271.91594 
L 509.690518 -270.3781 
L 510.638552 -268.843203 
L 511.586587 -267.313851 
L 512.534621 -265.790236 
L 513.482655 -264.262252 
L 514.43069 -262.722285 
L 515.378724 -261.185742 
L 516.326759 -259.674622 
L 517.274793 -258.163146 
L 518.222828 -256.670013 
L 519.170862 -255.166051 
L 520.118896 -253.678735 
L 521.066931 -252.186755 
L 522.014965 -250.69092 
L 522.963 -249.197526 
L 523.911034 -247.746849 
L 524.859069 -246.275795 
L 525.807103 -244.833589 
L 526.755138 -243.383142 
L 527.703172 -241.933268 
L 528.651206 -240.494205 
L 529.599241 -239.073613 
L 530.547275 -237.646678 
L 531.49531 -236.201398 
L 532.443344 -234.782395 
L 533.391379 -233.385287 
L 534.339413 -231.969564 
L 535.287447 -230.578261 
L 536.235482 -229.18768 
L 537.183516 -227.79743 
L 538.131551 -226.41362 
L 539.079585 -225.043743 
L 540.02762 -223.675825 
L 540.975654 -222.311373 
L 541.923688 -220.957508 
L 542.871723 -219.621856 
L 543.819757 -218.30432 
L 544.767792 -217.016099 
L 545.715826 -215.713679 
L 546.663861 -214.438502 
L 547.611895 -213.167421 
L 548.55993 -211.892912 
L 549.507964 -210.65846 
L 550.455998 -209.433853 
L 551.404033 -208.237663 
L 552.352067 -207.052308 
L 553.300102 -205.915503 
L 554.248136 -204.796814 
L 555.196171 -203.681039 
L 556.144205 -202.604371 
L 557.092239 -201.538504 
L 558.040274 -200.505568 
L 558.988308 -199.50024 
L 559.936343 -198.529326 
L 560.884377 -197.600113 
L 561.832412 -196.687898 
L 562.780446 -195.790478 
L 563.72848 -194.937017 
L 564.676515 -194.103719 
L 565.624549 -193.313979 
L 566.572584 -192.549046 
L 567.520618 -191.820752 
L 568.468653 -191.12829 
L 569.416687 -190.454926 
L 570.364722 -189.822316 
L 571.312756 -189.219158 
L 572.26079 -188.651735 
L 573.208825 -188.113245 
L 574.156859 -187.601398 
L 575.104894 -187.118527 
L 576.052928 -186.661691 
L 577.000963 -186.227391 
L 577.948997 -185.840069 
L 578.897031 -185.465096 
L 579.845066 -185.100597 
L 580.7931 -184.775786 
L 581.741135 -184.467875 
L 582.689169 -184.203758 
L 583.637204 -183.947288 
L 584.585238 -183.714727 
L 585.533273 -183.493537 
L 586.481307 -183.301255 
L 587.429341 -183.136545 
L 588.377376 -182.972662 
L 589.32541 -182.824 
L 590.273445 -182.70587 
L 591.221479 -182.565902 
L 592.169514 -182.492015 
L 593.117548 -182.430385 
L 594.065582 -182.367234 
L 595.013617 -182.306782 
L 595.961651 -182.277408 
L 596.909686 -182.236628 
L 597.85772 -182.239961 
L 597.85772 -98.052586 
L 597.85772 -98.052586 
L 596.909686 -98.052586 
L 595.961651 -98.052586 
L 595.013617 -98.052586 
L 594.065582 -98.052586 
L 593.117548 -98.052586 
L 592.169514 -98.052586 
L 591.221479 -98.052586 
L 590.273445 -98.052586 
L 589.32541 -98.052586 
L 588.377376 -98.052586 
L 587.429341 -98.052586 
L 586.481307 -98.052586 
L 585.533273 -98.052586 
L 584.585238 -98.052586 
L 583.637204 -98.052586 
L 582.689169 -98.052586 
L 581.741135 -98.052586 
L 580.7931 -98.052586 
L 579.845066 -98.052586 
L 578.897031 -98.052586 
L 577.948997 -98.052586 
L 577.000963 -98.052586 
L 576.052928 -98.052586 
L 575.104894 -98.052586 
L 574.156859 -98.052586 
L 573.208825 -98.052586 
L 572.26079 -98.052586 
L 571.312756 -98.052586 
L 570.364722 -98.052586 
L 569.416687 -98.052586 
L 568.468653 -98.052586 
L 567.520618 -98.052586 
L 566.572584 -98.052586 
L 565.624549 -98.052586 
L 564.676515 -98.052586 
L 563.72848 -98.052586 
L 562.780446 -98.052586 
L 561.832412 -98.052586 
L 560.884377 -98.052586 
L 559.936343 -98.052586 
L 558.988308 -98.052586 
L 558.040274 -98.052586 
L 557.092239 -98.052586 
L 556.144205 -98.052586 
L 555.196171 -98.052586 
L 554.248136 -98.052586 
L 553.300102 -98.052586 
L 552.352067 -98.052586 
L 551.404033 -98.052586 
L 550.455998 -98.052586 
L 549.507964 -98.052586 
L 548.55993 -98.052586 
L 547.611895 -98.052586 
L 546.663861 -98.052586 
L 545.715826 -98.052586 
L 544.767792 -98.052586 
L 543.819757 -98.052586 
L 542.871723 -98.052586 
L 541.923688 -98.052586 
L 540.975654 -98.052586 
L 540.02762 -98.052586 
L 539.079585 -98.052586 
L 538.131551 -98.052586 
L 537.183516 -98.052586 
L 536.235482 -98.052586 
L 535.287447 -98.052586 
L 534.339413 -98.052586 
L 533.391379 -98.052586 
L 532.443344 -98.052586 
L 531.49531 -98.052586 
L 530.547275 -98.052586 
L 529.599241 -98.052586 
L 528.651206 -98.052586 
L 527.703172 -98.052586 
L 526.755138 -98.052586 
L 525.807103 -98.052586 
L 524.859069 -98.052586 
L 523.911034 -98.052586 
L 522.963 -98.052586 
L 522.014965 -98.052586 
L 521.066931 -98.052586 
L 520.118896 -98.052586 
L 519.170862 -98.052586 
L 518.222828 -98.052586 
L 517.274793 -98.052586 
L 516.326759 -98.052586 
L 515.378724 -98.052586 
L 514.43069 -98.052586 
L 513.482655 -98.052586 
L 512.534621 -98.052586 
L 511.586587 -98.052586 
L 510.638552 -98.052586 
L 509.690518 -98.052586 
L 508.742483 -98.052586 
L 507.794449 -98.052586 
L 506.846414 -98.052586 
L 505.89838 -98.052586 
L 504.950345 -98.052586 
L 504.002311 -98.052586 
L 503.054277 -98.052586 
L 502.106242 -98.052586 
L 501.158208 -98.052586 
L 500.210173 -98.052586 
L 499.262139 -98.052586 
L 498.314104 -98.052586 
L 497.36607 -98.052586 
L 496.418036 -98.052586 
L 495.470001 -98.052586 
L 494.521967 -98.052586 
L 493.573932 -98.052586 
L 492.625898 -98.052586 
L 491.677863 -98.052586 
L 490.729829 -98.052586 
L 489.781795 -98.052586 
L 488.83376 -98.052586 
L 487.885726 -98.052586 
L 486.937691 -98.052586 
L 485.989657 -98.052586 
L 485.041622 -98.052586 
L 484.093588 -98.052586 
L 483.145553 -98.052586 
L 482.197519 -98.052586 
L 481.249485 -98.052586 
L 480.30145 -98.052586 
L 479.353416 -98.052586 
L 478.405381 -98.052586 
L 477.457347 -98.052586 
L 476.509312 -98.052586 
L 475.561278 -98.052586 
L 474.613244 -98.052586 
L 473.665209 -98.052586 
L 472.717175 -98.052586 
L 471.76914 -98.052586 
L 470.821106 -98.052586 
L 469.873071 -98.052586 
L 468.925037 -98.052586 
L 467.977003 -98.052586 
L 467.028968 -98.052586 
L 466.080934 -98.052586 
L 465.132899 -98.052586 
L 464.184865 -98.052586 
L 463.23683 -98.052586 
L 462.288796 -98.052586 
L 461.340761 -98.052586 
L 460.392727 -98.052586 
L 459.444693 -98.052586 
L 458.496658 -98.052586 
L 457.548624 -98.052586 
L 456.600589 -98.052586 
L 455.652555 -98.052586 
L 454.70452 -98.052586 
L 453.756486 -98.052586 
L 452.808452 -98.052586 
L 451.860417 -98.052586 
L 450.912383 -98.052586 
L 449.964348 -98.052586 
L 449.016314 -98.052586 
L 448.068279 -98.052586 
L 447.120245 -98.052586 
L 446.17221 -98.052586 
L 445.224176 -98.052586 
L 444.276142 -98.052586 
L 443.328107 -98.052586 
L 442.380073 -98.052586 
L 441.432038 -98.052586 
L 440.484004 -98.052586 
L 439.535969 -98.052586 
L 438.587935 -98.052586 
L 437.639901 -98.052586 
L 436.691866 -98.052586 
L 435.743832 -98.052586 
L 434.795797 -98.052586 
L 433.847763 -98.052586 
L 432.899728 -98.052586 
L 431.951694 -98.052586 
L 431.00366 -98.052586 
L 430.055625 -98.052586 
L 429.107591 -98.052586 
L 428.159556 -98.052586 
L 427.211522 -98.052586 
L 426.263487 -98.052586 
L 425.315453 -98.052586 
L 424.367418 -98.052586 
L 423.419384 -98.052586 
L 422.47135 -98.052586 
L 421.523315 -98.052586 
L 420.575281 -98.052586 
L 419.627246 -98.052586 
L 418.679212 -98.052586 
L 417.731177 -98.052586 
L 416.783143 -98.052586 
L 415.835109 -98.052586 
L 414.887074 -98.052586 
L 413.93904 -98.052586 
L 412.991005 -98.052586 
L 412.042971 -98.052586 
L 411.094936 -98.052586 
L 410.146902 -98.052586 
L 409.198868 -98.052586 
L 408.250833 -98.052586 
L 407.302799 -98.052586 
L 406.354764 -98.052586 
L 405.40673 -98.052586 
L 404.458695 -98.052586 
L 403.510661 -98.052586 
L 402.562626 -98.052586 
L 401.614592 -98.052586 
L 400.666558 -98.052586 
L 399.718523 -98.052586 
L 398.770489 -98.052586 
L 397.822454 -98.052586 
L 396.87442 -98.052586 
L 395.926385 -98.052586 
L 394.978351 -98.052586 
L 394.030317 -98.052586 
L 393.082282 -98.052586 
L 392.134248 -98.052586 
L 391.186213 -98.052586 
L 390.238179 -98.052586 
L 389.290144 -98.052586 
L 388.34211 -98.052586 
L 387.394075 -98.052586 
L 386.446041 -98.052586 
L 385.498007 -98.052586 
L 384.549972 -98.052586 
L 383.601938 -98.052586 
L 382.653903 -98.052586 
L 381.705869 -98.052586 
L 380.757834 -98.052586 
L 379.8098 -98.052586 
L 378.861766 -98.052586 
L 377.913731 -98.052586 
L 376.965697 -98.052586 
L 376.017662 -98.052586 
L 375.069628 -98.052586 
L 374.121593 -98.052586 
L 373.173559 -98.052586 
L 372.225525 -98.052586 
L 371.27749 -98.052586 
L 370.329456 -98.052586 
L 369.381421 -98.052586 
L 368.433387 -98.052586 
L 367.485352 -98.052586 
L 366.537318 -98.052586 
L 365.589283 -98.052586 
L 364.641249 -98.052586 
L 363.693215 -98.052586 
L 362.74518 -98.052586 
L 361.797146 -98.052586 
L 360.849111 -98.052586 
L 359.901077 -98.052586 
L 358.953042 -98.052586 
L 358.005008 -98.052586 
L 357.056974 -98.052586 
L 356.108939 -98.052586 
L 355.160905 -98.052586 
L 354.21287 -98.052586 
L 353.264836 -98.052586 
L 352.316801 -98.052586 
L 351.368767 -98.052586 
L 350.420732 -98.052586 
L 349.472698 -98.052586 
L 348.524664 -98.052586 
L 347.576629 -98.052586 
L 346.628595 -98.052586 
L 345.68056 -98.052586 
L 344.732526 -98.052586 
L 343.784491 -98.052586 
L 342.836457 -98.052586 
L 341.888423 -98.052586 
L 340.940388 -98.052586 
L 339.992354 -98.052586 
L 339.044319 -98.052586 
L 338.096285 -98.052586 
L 337.14825 -98.052586 
L 336.200216 -98.052586 
L 335.252182 -98.052586 
L 334.304147 -98.052586 
L 333.356113 -98.052586 
L 332.408078 -98.052586 
L 331.460044 -98.052586 
L 330.512009 -98.052586 
L 329.563975 -98.052586 
L 328.61594 -98.052586 
L 327.667906 -98.052586 
L 326.719872 -98.052586 
L 325.771837 -98.052586 
L 324.823803 -98.052586 
L 323.875768 -98.052586 
L 322.927734 -98.052586 
L 321.979699 -98.052586 
L 321.031665 -98.052586 
L 320.083631 -98.052586 
L 319.135596 -98.052586 
L 318.187562 -98.052586 
L 317.239527 -98.052586 
L 316.291493 -98.052586 
L 315.343458 -98.052586 
L 314.395424 -98.052586 
L 313.44739 -98.052586 
L 312.499355 -98.052586 
L 311.551321 -98.052586 
L 310.603286 -98.052586 
L 309.655252 -98.052586 
L 308.707217 -98.052586 
L 307.759183 -98.052586 
L 306.811148 -98.052586 
L 305.863114 -98.052586 
L 304.91508 -98.052586 
L 303.967045 -98.052586 
L 303.019011 -98.052586 
L 302.070976 -98.052586 
L 301.122942 -98.052586 
L 300.174907 -98.052586 
L 299.226873 -98.052586 
L 298.278839 -98.052586 
L 297.330804 -98.052586 
L 296.38277 -98.052586 
L 295.434735 -98.052586 
L 294.486701 -98.052586 
L 293.538666 -98.052586 
L 292.590632 -98.052586 
L 291.642597 -98.052586 
L 290.694563 -98.052586 
L 289.746529 -98.052586 
L 288.798494 -98.052586 
L 287.85046 -98.052586 
L 286.902425 -98.052586 
L 285.954391 -98.052586 
L 285.006356 -98.052586 
L 284.058322 -98.052586 
L 283.110288 -98.052586 
L 282.162253 -98.052586 
L 281.214219 -98.052586 
L 280.266184 -98.052586 
L 279.31815 -98.052586 
L 278.370115 -98.052586 
L 277.422081 -98.052586 
L 276.474047 -98.052586 
L 275.526012 -98.052586 
L 274.577978 -98.052586 
L 273.629943 -98.052586 
L 272.681909 -98.052586 
L 271.733874 -98.052586 
L 270.78584 -98.052586 
L 269.837805 -98.052586 
L 268.889771 -98.052586 
L 267.941737 -98.052586 
L 266.993702 -98.052586 
L 266.045668 -98.052586 
L 265.097633 -98.052586 
L 264.149599 -98.052586 
L 263.201564 -98.052586 
L 262.25353 -98.052586 
L 261.305496 -98.052586 
L 260.357461 -98.052586 
L 259.409427 -98.052586 
L 258.461392 -98.052586 
L 257.513358 -98.052586 
L 256.565323 -98.052586 
L 255.617289 -98.052586 
L 254.669255 -98.052586 
L 253.72122 -98.052586 
L 252.773186 -98.052586 
L 251.825151 -98.052586 
L 250.877117 -98.052586 
L 249.929082 -98.052586 
L 248.981048 -98.052586 
L 248.033013 -98.052586 
L 247.084979 -98.052586 
L 246.136945 -98.052586 
L 245.18891 -98.052586 
L 244.240876 -98.052586 
L 243.292841 -98.052586 
L 242.344807 -98.052586 
L 241.396772 -98.052586 
L 240.448738 -98.052586 
L 239.500704 -98.052586 
L 238.552669 -98.052586 
L 237.604635 -98.052586 
L 236.6566 -98.052586 
L 235.708566 -98.052586 
L 234.760531 -98.052586 
L 233.812497 -98.052586 
L 232.864462 -98.052586 
L 231.916428 -98.052586 
L 230.968394 -98.052586 
L 230.020359 -98.052586 
L 229.072325 -98.052586 
L 228.12429 -98.052586 
L 227.176256 -98.052586 
L 226.228221 -98.052586 
L 225.280187 -98.052586 
L 224.332153 -98.052586 
L 223.384118 -98.052586 
L 222.436084 -98.052586 
L 221.488049 -98.052586 
L 220.540015 -98.052586 
L 219.59198 -98.052586 
L 218.643946 -98.052586 
L 217.695912 -98.052586 
L 216.747877 -98.052586 
L 215.799843 -98.052586 
L 214.851808 -98.052586 
L 213.903774 -98.052586 
L 212.955739 -98.052586 
L 212.007705 -98.052586 
L 211.05967 -98.052586 
L 210.111636 -98.052586 
L 209.163602 -98.052586 
L 208.215567 -98.052586 
L 207.267533 -98.052586 
L 206.319498 -98.052586 
L 205.371464 -98.052586 
L 204.423429 -98.052586 
L 203.475395 -98.052586 
L 202.527361 -98.052586 
L 201.579326 -98.052586 
L 200.631292 -98.052586 
L 199.683257 -98.052586 
L 198.735223 -98.052586 
L 197.787188 -98.052586 
L 196.839154 -98.052586 
L 195.89112 -98.052586 
L 194.943085 -98.052586 
L 193.995051 -98.052586 
L 193.047016 -98.052586 
L 192.098982 -98.052586 
L 191.150947 -98.052586 
L 190.202913 -98.052586 
L 189.254878 -98.052586 
L 188.306844 -98.052586 
L 187.35881 -98.052586 
L 186.410775 -98.052586 
L 185.462741 -98.052586 
L 184.514706 -98.052586 
L 183.566672 -98.052586 
L 182.618637 -98.052586 
L 181.670603 -98.052586 
L 180.722569 -98.052586 
L 179.774534 -98.052586 
L 178.8265 -98.052586 
L 177.878465 -98.052586 
L 176.930431 -98.052586 
L 175.982396 -98.052586 
L 175.034362 -98.052586 
L 174.086327 -98.052586 
L 173.138293 -98.052586 
L 172.190259 -98.052586 
L 171.242224 -98.052586 
L 170.29419 -98.052586 
L 169.346155 -98.052586 
L 168.398121 -98.052586 
L 167.450086 -98.052586 
L 166.502052 -98.052586 
L 165.554018 -98.052586 
L 164.605983 -98.052586 
L 163.657949 -98.052586 
L 162.709914 -98.052586 
L 161.76188 -98.052586 
L 160.813845 -98.052586 
L 159.865811 -98.052586 
L 158.917777 -98.052586 
L 157.969742 -98.052586 
L 157.021708 -98.052586 
L 156.073673 -98.052586 
L 155.125639 -98.052586 
L 154.177604 -98.052586 
L 153.22957 -98.052586 
L 152.281535 -98.052586 
L 151.333501 -98.052586 
L 150.385467 -98.052586 
L 149.437432 -98.052586 
L 148.489398 -98.052586 
L 147.541363 -98.052586 
L 146.593329 -98.052586 
L 145.645294 -98.052586 
L 144.69726 -98.052586 
L 143.749226 -98.052586 
L 142.801191 -98.052586 
L 141.853157 -98.052586 
L 140.905122 -98.052586 
L 139.957088 -98.052586 
L 139.009053 -98.052586 
L 138.061019 -98.052586 
L 137.112985 -98.052586 
L 136.16495 -98.052586 
L 135.216916 -98.052586 
L 134.268881 -98.052586 
L 133.320847 -98.052586 
L 132.372812 -98.052586 
L 131.424778 -98.052586 
L 130.476743 -98.052586 
L 129.528709 -98.052586 
L 128.580675 -98.052586 
L 127.63264 -98.052586 
L 126.684606 -98.052586 
L 125.736571 -98.052586 
L 124.788537 -98.052586 
L 123.840502 -98.052586 
L 122.892468 -98.052586 
L 121.944434 -98.052586 
L 120.996399 -98.052586 
L 120.048365 -98.052586 
L 119.10033 -98.052586 
L 118.152296 -98.052586 
L 117.204261 -98.052586 
L 116.256227 -98.052586 
L 115.308192 -98.052586 
L 114.360158 -98.052586 
L 113.412124 -98.052586 
z
" style="stroke: #98df8a; stroke-opacity: 0.35; stroke-width: 0.3"/>
    </defs>
    <g clip-path="url(#p21a06b8717)">
     <use xlink:href="#mae8cbd0fd3" x="0" y="504" style="fill: #98df8a; fill-opacity: 0.35; stroke: #98df8a; stroke-opacity: 0.35; stroke-width: 0.3"/>
    </g>
   </g>
   <g id="line2d_5">
    <path d="M 113.412124 306.452413 
L 119.10033 306.219904 
L 122.892468 305.863183 
L 126.684606 305.406707 
L 130.476743 304.701968 
L 135.216916 303.456038 
L 138.061019 302.495402 
L 141.853157 300.939854 
L 144.69726 299.554914 
L 147.541363 297.952548 
L 150.385467 296.13528 
L 154.177604 293.366436 
L 156.073673 291.815851 
L 160.813845 287.41613 
L 164.605983 283.442672 
L 168.398121 279.101889 
L 173.138293 273.142774 
L 177.878465 266.818916 
L 198.735223 238.357091 
L 202.527361 233.609745 
L 208.215567 226.973807 
L 212.007705 222.752914 
L 215.799843 218.579229 
L 221.488049 212.561339 
L 228.12429 205.806494 
L 236.6566 197.46541 
L 241.396772 193.185008 
L 245.18891 189.926545 
L 248.981048 186.786354 
L 252.773186 183.931012 
L 255.617289 181.881258 
L 260.357461 178.75915 
L 266.045668 175.168692 
L 269.837805 172.876873 
L 273.629943 170.619187 
L 284.058322 164.253922 
L 294.486701 157.314504 
L 312.499355 145.336976 
L 319.135596 141.387601 
L 321.979699 139.839268 
L 325.771837 137.966652 
L 328.61594 136.672294 
L 332.408078 135.162482 
L 337.14825 133.560486 
L 341.888423 132.2612 
L 346.628595 131.270982 
L 349.472698 130.756135 
L 353.264836 130.235673 
L 357.056974 129.893347 
L 362.74518 129.806393 
L 365.589283 129.923243 
L 369.381421 130.295729 
L 371.27749 130.561624 
L 376.017662 131.702754 
L 378.861766 132.542525 
L 382.653903 133.964298 
L 385.498007 135.199341 
L 390.238179 137.587238 
L 400.666558 143.515437 
L 407.302799 147.206475 
L 412.042971 149.639037 
L 415.835109 151.414024 
L 422.47135 154.28809 
L 430.055625 157.388434 
L 436.691866 160.145258 
L 440.484004 161.747509 
L 445.224176 163.888085 
L 452.808452 167.700994 
L 456.600589 169.855883 
L 461.340761 172.805732 
L 465.132899 175.439788 
L 468.925037 178.417832 
L 472.717175 181.77422 
L 477.457347 186.550352 
L 480.30145 189.751776 
L 483.145553 193.189972 
L 486.937691 198.184592 
L 490.729829 203.541301 
L 495.470001 210.721611 
L 501.158208 219.767876 
L 523.911034 256.253151 
L 530.547275 266.353322 
L 535.287447 273.421739 
L 542.871723 284.378144 
L 548.55993 292.107088 
L 552.352067 296.947692 
L 557.092239 302.461496 
L 559.936343 305.470674 
L 563.72848 309.062983 
L 566.572584 311.450954 
L 569.416687 313.545074 
L 572.26079 315.348265 
L 575.104894 316.881473 
L 577.948997 318.159931 
L 580.7931 319.224214 
L 583.637204 320.052712 
L 586.481307 320.698745 
L 591.221479 321.434098 
L 595.961651 321.722592 
L 597.85772 321.760039 
L 597.85772 321.760039 
" clip-path="url(#p21a06b8717)" style="fill: none; stroke: #98df8a; stroke-width: 2; stroke-linecap: round"/>
   </g>
   <g id="line2d_6">
    <path d="M 113.412124 406.942364 
L 113.412124 306.452413 
" clip-path="url(#p21a06b8717)" style="fill: none; stroke: #98df8a; stroke-width: 2; stroke-linecap: round"/>
   </g>
   <g id="line2d_7">
    <path d="M 597.85772 406.789287 
L 597.85772 321.760039 
" clip-path="url(#p21a06b8717)" style="fill: none; stroke: #98df8a; stroke-width: 2; stroke-linecap: round"/>
   </g>
   <g id="line2d_8">
    <defs>
     <path id="m9a9f00f1a5" d="M 0 3.5 
C 0.928211 3.5 1.81853 3.131218 2.474874 2.474874 
C 3.131218 1.81853 3.5 0.928211 3.5 0 
C 3.5 -0.928211 3.131218 -1.81853 2.474874 -2.474874 
C 1.81853 -3.131218 0.928211 -3.5 0 -3.5 
C -0.928211 -3.5 -1.81853 -3.131218 -2.474874 -2.474874 
C -3.131218 -1.81853 -3.5 -0.928211 -3.5 0 
C -3.5 0.928211 -3.131218 1.81853 -2.474874 2.474874 
C -1.81853 3.131218 -0.928211 3.5 0 3.5 
z
"/>
    </defs>
    <g clip-path="url(#p21a06b8717)">
     <use xlink:href="#m9a9f00f1a5" x="355.233165" y="405.947414" style="fill: #98df8a"/>
    </g>
   </g>
   <g id="patch_3">
    <path d="M 89.189844 420.8 
L 622.08 420.8 
" style="fill: none; stroke: #333333; stroke-width: 1.5; stroke-linejoin: miter; stroke-linecap: square"/>
   </g>
   <g id="text_3">
    <!-- $x_2^2x_3$ -->
    <g style="fill: #262626" transform="translate(272.794922 94.652)">
     <text>
      <tspan x="0" y="-0.421875" style="font-style: oblique; font-size: 76px; font-family: 'DejaVu Sans'; fill: #262626">x</tspan>
      <tspan x="84.296419" y="-0.421875" style="font-style: oblique; font-size: 76px; font-family: 'DejaVu Sans'; fill: #262626">x</tspan>
      <tspan x="44.976562" y="20.359375" style="font-size: 53.2px; font-family: 'DejaVu Sans'; fill: #262626">2</tspan>
      <tspan x="48.370833" y="-29.515625" style="font-size: 53.2px; font-family: 'DejaVu Sans'; fill: #262626">2</tspan>
      <tspan x="129.272982" y="12.046875" style="font-size: 53.2px; font-family: 'DejaVu Sans'; fill: #262626">3</tspan>
     </text>
    </g>
   </g>
  </g>
 </g>
 <defs>
  <clipPath id="p21a06b8717">
   <rect x="89.189844" y="115.932" width="532.890156" height="304.868"/>
  </clipPath>
 </defs>
</svg>
