<?xml version="1.0" encoding="utf-8" standalone="no"?>
<!DOCTYPE svg PUBLIC "-//W3C//DTD SVG 1.1//EN"
  "http://www.w3.org/Graphics/SVG/1.1/DTD/svg11.dtd">
<svg xmlns:xlink="http://www.w3.org/1999/xlink" width="648pt" height="504pt" viewBox="0 0 648 504" xmlns="http://www.w3.org/2000/svg" version="1.1">
 <metadata>
  <rdf:RDF xmlns:dc="http://purl.org/dc/elements/1.1/" xmlns:cc="http://creativecommons.org/ns#" xmlns:rdf="http://www.w3.org/1999/02/22-rdf-syntax-ns#">
   <cc:Work>
    <dc:type rdf:resource="http://purl.org/dc/dcmitype/StillImage"/>
    <dc:date>2026-02-22T16:15:38.561448</dc:date>
    <dc:format>image/svg+xml</dc:format>
    <dc:creator>
     <cc:Agent>
      <dc:title>Matplotlib v3.10.6, https://matplotlib.org/</dc:title>
     </cc:Agent>
    </dc:creator>
   </cc:Work>
  </rdf:RDF>
 </metadata>
 <defs>
  <style type="text/css">*{stroke-linejoin: round; stroke-linecap: butt}</style>
 </defs>
 <g id="figure_1">
  <g id="patch_1">
   <path d="M 0 504 
L 648 504 
L 648 0 
L 0 0 
L 0 504 
z
" style="fill: none; opacity: 0"/>
  </g>
  <g id="axes_1">
   <g id="patch_2">
    <path d="M 59.419754 420.8 
L 622.08 420.8 
L 622.08 116.616 
L 59.419754 116.616 
L 59.419754 420.8 
z
" style="fill: none"/>
   </g>
   <g id="matplotlib.axis_1">
    <g id="xtick_1">
     <g id="line2d_1">
      <path d="M 111.168079 420.8 
L 111.168079 116.616 
" clip-path="url(#p7a1e64f2b3)" style="fill: none; stroke: #ffffff; stroke-opacity: 0.4; stroke-linecap: round"/>
     </g>
     <g id="line2d_2"/>
     <g id="text_1">
      <text style="font-size: 52px; font-family: 'DejaVu Serif', 'Times New Roman', serif; text-anchor: middle; fill: #262626" x="111.168079" y="467.311875" transform="rotate(-0 111.168079 467.311875)">−0.02</text>
     </g>
    </g>
    <g id="xtick_2">
     <g id="line2d_3">
      <path d="M 303.068213 420.8 
L 303.068213 116.616 
" clip-path="url(#p7a1e64f2b3)" style="fill: none; stroke: #ffffff; stroke-opacity: 0.4; stroke-linecap: round"/>
     </g>
     <g id="line2d_4"/>
     <g id="text_2">
      <text style="font-size: 52px; font-family: 'DejaVu Serif', 'Times New Roman', serif; text-anchor: middle; fill: #262626" x="303.068213" y="467.311875" transform="rotate(-0 303.068213 467.311875)">0.00</text>
     </g>
    </g>
    <g id="xtick_3">
     <g id="line2d_5">
      <path d="M 494.968348 420.8 
L 494.968348 116.616 
" clip-path="url(#p7a1e64f2b3)" style="fill: none; stroke: #ffffff; stroke-opacity: 0.4; stroke-linecap: round"/>
     </g>
     <g id="line2d_6"/>
     <g id="text_3">
      <text style="font-size: 52px; font-family: 'DejaVu Serif', 'Times New Roman', serif; text-anchor: middle; fill: #262626" x="494.968348" y="467.311875" transform="rotate(-0 494.968348 467.311875)">0.02</text>
     </g>
    </g>
   </g>
   <g id="matplotlib.axis_2"/>
   <g id="FillBetweenPolyCollection_1">
    <defs>
     <path id="mbccda0cac3" d="M 84.995219 -98.001163 
L 84.995219 -195.462933 
L 85.996216 -195.504216 
L 86.997213 -195.605005 
L 87.998209 -195.738894 
L 88.999206 -195.895472 
L 90.000203 -196.083729 
L 91.0012 -196.305448 
L 92.002196 -196.547957 
L 93.003193 -196.841573 
L 94.00419 -197.158937 
L 95.005186 -197.498814 
L 96.006183 -197.877531 
L 97.00718 -198.300195 
L 98.008176 -198.736499 
L 99.009173 -199.215565 
L 100.01017 -199.750973 
L 101.011167 -200.293096 
L 102.012163 -200.877801 
L 103.01316 -201.483055 
L 104.014157 -202.12027 
L 105.015153 -202.762035 
L 106.01615 -203.458921 
L 107.017147 -204.178714 
L 108.018144 -204.937601 
L 109.01914 -205.719786 
L 110.020137 -206.504188 
L 111.021134 -207.339366 
L 112.02213 -208.177125 
L 113.023127 -209.050023 
L 114.024124 -209.940039 
L 115.02512 -210.86251 
L 116.026117 -211.781159 
L 117.027114 -212.729342 
L 118.028111 -213.690226 
L 119.029107 -214.662136 
L 120.030104 -215.657099 
L 121.031101 -216.68224 
L 122.032097 -217.731105 
L 123.033094 -218.781892 
L 124.034091 -219.83936 
L 125.035087 -220.910707 
L 126.036084 -222.005437 
L 127.037081 -223.108351 
L 128.038078 -224.228656 
L 129.039074 -225.359159 
L 130.040071 -226.50291 
L 131.041068 -227.647777 
L 132.042064 -228.813668 
L 133.043061 -230.000192 
L 134.044058 -231.186234 
L 135.045054 -232.381269 
L 136.046051 -233.582263 
L 137.047048 -234.780924 
L 138.048045 -235.989299 
L 139.049041 -237.224296 
L 140.050038 -238.455483 
L 141.051035 -239.679443 
L 142.052031 -240.933939 
L 143.053028 -242.17519 
L 144.054025 -243.428692 
L 145.055021 -244.686621 
L 146.056018 -245.955776 
L 147.057015 -247.243886 
L 148.058012 -248.521065 
L 149.059008 -249.786228 
L 150.060005 -251.063338 
L 151.061002 -252.348889 
L 152.061998 -253.661353 
L 153.062995 -254.967324 
L 154.063992 -256.28317 
L 155.064989 -257.582116 
L 156.065985 -258.886178 
L 157.066982 -260.191508 
L 158.067979 -261.48485 
L 159.068975 -262.809348 
L 160.069972 -264.108301 
L 161.070969 -265.424883 
L 162.071965 -266.736499 
L 163.072962 -268.046363 
L 164.073959 -269.363486 
L 165.074956 -270.659584 
L 166.075952 -271.97689 
L 167.076949 -273.271895 
L 168.077946 -274.592074 
L 169.078942 -275.900254 
L 170.079939 -277.220107 
L 171.080936 -278.52118 
L 172.081932 -279.81078 
L 173.082929 -281.105297 
L 174.083926 -282.409976 
L 175.084923 -283.658171 
L 176.085919 -284.934944 
L 177.086916 -286.213879 
L 178.087913 -287.497675 
L 179.088909 -288.772668 
L 180.089906 -290.038084 
L 181.090903 -291.278883 
L 182.091899 -292.514861 
L 183.092896 -293.74934 
L 184.093893 -294.951037 
L 185.09489 -296.182728 
L 186.095886 -297.387 
L 187.096883 -298.561936 
L 188.09788 -299.751524 
L 189.098876 -300.919897 
L 190.099873 -302.086798 
L 191.10087 -303.2414 
L 192.101867 -304.38624 
L 193.102863 -305.518477 
L 194.10386 -306.613968 
L 195.104857 -307.70401 
L 196.105853 -308.776385 
L 197.10685 -309.837469 
L 198.107847 -310.863017 
L 199.108843 -311.889544 
L 200.10984 -312.892253 
L 201.110837 -313.862976 
L 202.111834 -314.829518 
L 203.11283 -315.793452 
L 204.113827 -316.700637 
L 205.114824 -317.59233 
L 206.11582 -318.475902 
L 207.116817 -319.314053 
L 208.117814 -320.152973 
L 209.11881 -320.945257 
L 210.119807 -321.746202 
L 211.120804 -322.512225 
L 212.121801 -323.236209 
L 213.122797 -323.920679 
L 214.123794 -324.620049 
L 215.124791 -325.287668 
L 216.125787 -325.955374 
L 217.126784 -326.568289 
L 218.127781 -327.167874 
L 219.128777 -327.735051 
L 220.129774 -328.264896 
L 221.130771 -328.807683 
L 222.131768 -329.313995 
L 223.132764 -329.81176 
L 224.133761 -330.290899 
L 225.134758 -330.74496 
L 226.135754 -331.155346 
L 227.136751 -331.584608 
L 228.137748 -331.977395 
L 229.138744 -332.377081 
L 230.139741 -332.772026 
L 231.140738 -333.164092 
L 232.141735 -333.548166 
L 233.142731 -333.905373 
L 234.143728 -334.283831 
L 235.144725 -334.654968 
L 236.145721 -334.996424 
L 237.146718 -335.345178 
L 238.147715 -335.682132 
L 239.148712 -336.043989 
L 240.149708 -336.382305 
L 241.150705 -336.738237 
L 242.151702 -337.06829 
L 243.152698 -337.416379 
L 244.153695 -337.782854 
L 245.154692 -338.171278 
L 246.155688 -338.561303 
L 247.156685 -338.956417 
L 248.157682 -339.37898 
L 249.158679 -339.799894 
L 250.159675 -340.247828 
L 251.160672 -340.682869 
L 252.161669 -341.11625 
L 253.162665 -341.591906 
L 254.163662 -342.07744 
L 255.164659 -342.564759 
L 256.165655 -343.081402 
L 257.166652 -343.585922 
L 258.167649 -344.101827 
L 259.168646 -344.665899 
L 260.169642 -345.22449 
L 261.170639 -345.787347 
L 262.171636 -346.356522 
L 263.172632 -346.92811 
L 264.173629 -347.502441 
L 265.174626 -348.100362 
L 266.175622 -348.712011 
L 267.176619 -349.315665 
L 268.177616 -349.90816 
L 269.178613 -350.550457 
L 270.179609 -351.148316 
L 271.180606 -351.780181 
L 272.181603 -352.385433 
L 273.182599 -353.013565 
L 274.183596 -353.640048 
L 275.184593 -354.267102 
L 276.18559 -354.854199 
L 277.186586 -355.44721 
L 278.187583 -356.062322 
L 279.18858 -356.685439 
L 280.189576 -357.272425 
L 281.190573 -357.855009 
L 282.19157 -358.435574 
L 283.192566 -358.989498 
L 284.193563 -359.549841 
L 285.19456 -360.090222 
L 286.195557 -360.610083 
L 287.196553 -361.111504 
L 288.19755 -361.594247 
L 289.198547 -362.095019 
L 290.199543 -362.588161 
L 291.20054 -363.067361 
L 292.201537 -363.522982 
L 293.202533 -363.959515 
L 294.20353 -364.367884 
L 295.204527 -364.76079 
L 296.205524 -365.150969 
L 297.20652 -365.524452 
L 298.207517 -365.909252 
L 299.208514 -366.264411 
L 300.20951 -366.619593 
L 301.210507 -366.949351 
L 302.211504 -367.261935 
L 303.2125 -367.570973 
L 304.213497 -367.881868 
L 305.214494 -368.183141 
L 306.215491 -368.444321 
L 307.216487 -368.697822 
L 308.217484 -368.959429 
L 309.218481 -369.202973 
L 310.219477 -369.437453 
L 311.220474 -369.668311 
L 312.221471 -369.893348 
L 313.222467 -370.105997 
L 314.223464 -370.289794 
L 315.224461 -370.499611 
L 316.225458 -370.682979 
L 317.226454 -370.867745 
L 318.227451 -371.026253 
L 319.228448 -371.201758 
L 320.229444 -371.384751 
L 321.230441 -371.534317 
L 322.231438 -371.704358 
L 323.232435 -371.825657 
L 324.233431 -371.989163 
L 325.234428 -372.102425 
L 326.235425 -372.240422 
L 327.236421 -372.417325 
L 328.237418 -372.554304 
L 329.238415 -372.657607 
L 330.239411 -372.791915 
L 331.240408 -372.885149 
L 332.241405 -373.006976 
L 333.242402 -373.094851 
L 334.243398 -373.166182 
L 335.244395 -373.271436 
L 336.245392 -373.352579 
L 337.246388 -373.410205 
L 338.247385 -373.457433 
L 339.248382 -373.513183 
L 340.249378 -373.523934 
L 341.250375 -373.546159 
L 342.251372 -373.557455 
L 343.252369 -373.556143 
L 344.253365 -373.529883 
L 345.254362 -373.494343 
L 346.255359 -373.460261 
L 347.256355 -373.375499 
L 348.257352 -373.278293 
L 349.258349 -373.169976 
L 350.259345 -373.05554 
L 351.260342 -372.942278 
L 352.261339 -372.790584 
L 353.262336 -372.635575 
L 354.263332 -372.430135 
L 355.264329 -372.205094 
L 356.265326 -371.978988 
L 357.266322 -371.731422 
L 358.267319 -371.427224 
L 359.268316 -371.162344 
L 360.269313 -370.848786 
L 361.270309 -370.517512 
L 362.271306 -370.175148 
L 363.272303 -369.79824 
L 364.273299 -369.416681 
L 365.274296 -368.982743 
L 366.275293 -368.532924 
L 367.276289 -368.080257 
L 368.277286 -367.593179 
L 369.278283 -367.070111 
L 370.27928 -366.496788 
L 371.280276 -365.913916 
L 372.281273 -365.344643 
L 373.28227 -364.740148 
L 374.283266 -364.113708 
L 375.284263 -363.461696 
L 376.28526 -362.791949 
L 377.286256 -362.116759 
L 378.287253 -361.41354 
L 379.28825 -360.695307 
L 380.289247 -359.965332 
L 381.290243 -359.223445 
L 382.29124 -358.423631 
L 383.292237 -357.643597 
L 384.293233 -356.823509 
L 385.29423 -355.994909 
L 386.295227 -355.149768 
L 387.296223 -354.292144 
L 388.29722 -353.427991 
L 389.298217 -352.534348 
L 390.299214 -351.62855 
L 391.30021 -350.744026 
L 392.301207 -349.834051 
L 393.302204 -348.911444 
L 394.3032 -347.951426 
L 395.304197 -347.011332 
L 396.305194 -346.062868 
L 397.30619 -345.096957 
L 398.307187 -344.143227 
L 399.308184 -343.166855 
L 400.309181 -342.177889 
L 401.310177 -341.175205 
L 402.311174 -340.192666 
L 403.312171 -339.183683 
L 404.313167 -338.178179 
L 405.314164 -337.158119 
L 406.315161 -336.167989 
L 407.316158 -335.168966 
L 408.317154 -334.159094 
L 409.318151 -333.133136 
L 410.319148 -332.104407 
L 411.320144 -331.084909 
L 412.321141 -330.074653 
L 413.322138 -329.071054 
L 414.323134 -328.042987 
L 415.324131 -327.027645 
L 416.325128 -326.02538 
L 417.326125 -325.022468 
L 418.327121 -324.000722 
L 419.328118 -323.014971 
L 420.329115 -322.015836 
L 421.330111 -321.000468 
L 422.331108 -320.01834 
L 423.332105 -319.034304 
L 424.333101 -318.031113 
L 425.334098 -317.069693 
L 426.335095 -316.114776 
L 427.336092 -315.156991 
L 428.337088 -314.178048 
L 429.338085 -313.214843 
L 430.339082 -312.25094 
L 431.340078 -311.315752 
L 432.341075 -310.372176 
L 433.342072 -309.421566 
L 434.343068 -308.457561 
L 435.344065 -307.543495 
L 436.345062 -306.622173 
L 437.346059 -305.699503 
L 438.347055 -304.794659 
L 439.348052 -303.874363 
L 440.349049 -302.97627 
L 441.350045 -302.072878 
L 442.351042 -301.193133 
L 443.352039 -300.310902 
L 444.353035 -299.427513 
L 445.354032 -298.524142 
L 446.355029 -297.657825 
L 447.356026 -296.803721 
L 448.357022 -295.949183 
L 449.358019 -295.097371 
L 450.359016 -294.278986 
L 451.360012 -293.438226 
L 452.361009 -292.585721 
L 453.362006 -291.73582 
L 454.363003 -290.904681 
L 455.363999 -290.068113 
L 456.364996 -289.236025 
L 457.365993 -288.404514 
L 458.366989 -287.59405 
L 459.367986 -286.784801 
L 460.368983 -285.971082 
L 461.369979 -285.183803 
L 462.370976 -284.373133 
L 463.371973 -283.563884 
L 464.37297 -282.759516 
L 465.373966 -281.972072 
L 466.374963 -281.173692 
L 467.37596 -280.36747 
L 468.376956 -279.576425 
L 469.377953 -278.775735 
L 470.37895 -277.969713 
L 471.379946 -277.176397 
L 472.380943 -276.350924 
L 473.38194 -275.547005 
L 474.382937 -274.728506 
L 475.383933 -273.906779 
L 476.38493 -273.093386 
L 477.385927 -272.265228 
L 478.386923 -271.441485 
L 479.38792 -270.571117 
L 480.388917 -269.737907 
L 481.389913 -268.873589 
L 482.39091 -267.980232 
L 483.391907 -267.098055 
L 484.392904 -266.213462 
L 485.3939 -265.332863 
L 486.394897 -264.45267 
L 487.395894 -263.531486 
L 488.39689 -262.615852 
L 489.397887 -261.709943 
L 490.398884 -260.755635 
L 491.399881 -259.826305 
L 492.400877 -258.890369 
L 493.401874 -257.937661 
L 494.402871 -256.972171 
L 495.403867 -256.014806 
L 496.404864 -255.029316 
L 497.405861 -254.052736 
L 498.406857 -253.044277 
L 499.407854 -252.051594 
L 500.408851 -251.041637 
L 501.409848 -250.030115 
L 502.410844 -249.025462 
L 503.411841 -248.012691 
L 504.412838 -247.002481 
L 505.413834 -245.989951 
L 506.414831 -244.96167 
L 507.415828 -243.941994 
L 508.416824 -242.917156 
L 509.417821 -241.900454 
L 510.418818 -240.889611 
L 511.419815 -239.879242 
L 512.420811 -238.871005 
L 513.421808 -237.871911 
L 514.422805 -236.863101 
L 515.423801 -235.882893 
L 516.424798 -234.895082 
L 517.425795 -233.927326 
L 518.426791 -232.952656 
L 519.427788 -232.004822 
L 520.428785 -231.080789 
L 521.429782 -230.152789 
L 522.430778 -229.23855 
L 523.431775 -228.351803 
L 524.432772 -227.459658 
L 525.433768 -226.598885 
L 526.434765 -225.722286 
L 527.435762 -224.868065 
L 528.436758 -224.029164 
L 529.437755 -223.204766 
L 530.438752 -222.390895 
L 531.439749 -221.574102 
L 532.440745 -220.76596 
L 533.441742 -219.980231 
L 534.442739 -219.209464 
L 535.443735 -218.435977 
L 536.444732 -217.675276 
L 537.445729 -216.935761 
L 538.446726 -216.20489 
L 539.447722 -215.493271 
L 540.448719 -214.773403 
L 541.449716 -214.065583 
L 542.450712 -213.362577 
L 543.451709 -212.666086 
L 544.452706 -211.985336 
L 545.453702 -211.309649 
L 546.454699 -210.615408 
L 547.455696 -209.949076 
L 548.456693 -209.286238 
L 549.457689 -208.626111 
L 550.458686 -207.968779 
L 551.459683 -207.288471 
L 552.460679 -206.644721 
L 553.461676 -205.984389 
L 554.462673 -205.334326 
L 555.463669 -204.68603 
L 556.464666 -204.047558 
L 557.465663 -203.403785 
L 558.46666 -202.742683 
L 559.467656 -202.120303 
L 560.468653 -201.47924 
L 561.46965 -200.833519 
L 562.470646 -200.202372 
L 563.471643 -199.572867 
L 564.47264 -198.951325 
L 565.473636 -198.34774 
L 566.474633 -197.734973 
L 567.47563 -197.116457 
L 568.476627 -196.524786 
L 569.477623 -195.935454 
L 570.47862 -195.347717 
L 571.479617 -194.759336 
L 572.480613 -194.197841 
L 573.48161 -193.648828 
L 574.482607 -193.098187 
L 575.483604 -192.567766 
L 576.4846 -192.057376 
L 577.485597 -191.547711 
L 578.486594 -191.066057 
L 579.48759 -190.60542 
L 580.488587 -190.158428 
L 581.489584 -189.710931 
L 582.49058 -189.302958 
L 583.491577 -188.91919 
L 584.492574 -188.563762 
L 585.493571 -188.224769 
L 586.494567 -187.916893 
L 587.495564 -187.624145 
L 588.496561 -187.370433 
L 589.497557 -187.160154 
L 590.498554 -186.941265 
L 591.499551 -186.756994 
L 592.500547 -186.613608 
L 593.501544 -186.509338 
L 594.502541 -186.420733 
L 595.503538 -186.361454 
L 596.504534 -186.341929 
L 596.504534 -98.001163 
L 596.504534 -98.001163 
L 595.503538 -98.001163 
L 594.502541 -98.001163 
L 593.501544 -98.001163 
L 592.500547 -98.001163 
L 591.499551 -98.001163 
L 590.498554 -98.001163 
L 589.497557 -98.001163 
L 588.496561 -98.001163 
L 587.495564 -98.001163 
L 586.494567 -98.001163 
L 585.493571 -98.001163 
L 584.492574 -98.001163 
L 583.491577 -98.001163 
L 582.49058 -98.001163 
L 581.489584 -98.001163 
L 580.488587 -98.001163 
L 579.48759 -98.001163 
L 578.486594 -98.001163 
L 577.485597 -98.001163 
L 576.4846 -98.001163 
L 575.483604 -98.001163 
L 574.482607 -98.001163 
L 573.48161 -98.001163 
L 572.480613 -98.001163 
L 571.479617 -98.001163 
L 570.47862 -98.001163 
L 569.477623 -98.001163 
L 568.476627 -98.001163 
L 567.47563 -98.001163 
L 566.474633 -98.001163 
L 565.473636 -98.001163 
L 564.47264 -98.001163 
L 563.471643 -98.001163 
L 562.470646 -98.001163 
L 561.46965 -98.001163 
L 560.468653 -98.001163 
L 559.467656 -98.001163 
L 558.46666 -98.001163 
L 557.465663 -98.001163 
L 556.464666 -98.001163 
L 555.463669 -98.001163 
L 554.462673 -98.001163 
L 553.461676 -98.001163 
L 552.460679 -98.001163 
L 551.459683 -98.001163 
L 550.458686 -98.001163 
L 549.457689 -98.001163 
L 548.456693 -98.001163 
L 547.455696 -98.001163 
L 546.454699 -98.001163 
L 545.453702 -98.001163 
L 544.452706 -98.001163 
L 543.451709 -98.001163 
L 542.450712 -98.001163 
L 541.449716 -98.001163 
L 540.448719 -98.001163 
L 539.447722 -98.001163 
L 538.446726 -98.001163 
L 537.445729 -98.001163 
L 536.444732 -98.001163 
L 535.443735 -98.001163 
L 534.442739 -98.001163 
L 533.441742 -98.001163 
L 532.440745 -98.001163 
L 531.439749 -98.001163 
L 530.438752 -98.001163 
L 529.437755 -98.001163 
L 528.436758 -98.001163 
L 527.435762 -98.001163 
L 526.434765 -98.001163 
L 525.433768 -98.001163 
L 524.432772 -98.001163 
L 523.431775 -98.001163 
L 522.430778 -98.001163 
L 521.429782 -98.001163 
L 520.428785 -98.001163 
L 519.427788 -98.001163 
L 518.426791 -98.001163 
L 517.425795 -98.001163 
L 516.424798 -98.001163 
L 515.423801 -98.001163 
L 514.422805 -98.001163 
L 513.421808 -98.001163 
L 512.420811 -98.001163 
L 511.419815 -98.001163 
L 510.418818 -98.001163 
L 509.417821 -98.001163 
L 508.416824 -98.001163 
L 507.415828 -98.001163 
L 506.414831 -98.001163 
L 505.413834 -98.001163 
L 504.412838 -98.001163 
L 503.411841 -98.001163 
L 502.410844 -98.001163 
L 501.409848 -98.001163 
L 500.408851 -98.001163 
L 499.407854 -98.001163 
L 498.406857 -98.001163 
L 497.405861 -98.001163 
L 496.404864 -98.001163 
L 495.403867 -98.001163 
L 494.402871 -98.001163 
L 493.401874 -98.001163 
L 492.400877 -98.001163 
L 491.399881 -98.001163 
L 490.398884 -98.001163 
L 489.397887 -98.001163 
L 488.39689 -98.001163 
L 487.395894 -98.001163 
L 486.394897 -98.001163 
L 485.3939 -98.001163 
L 484.392904 -98.001163 
L 483.391907 -98.001163 
L 482.39091 -98.001163 
L 481.389913 -98.001163 
L 480.388917 -98.001163 
L 479.38792 -98.001163 
L 478.386923 -98.001163 
L 477.385927 -98.001163 
L 476.38493 -98.001163 
L 475.383933 -98.001163 
L 474.382937 -98.001163 
L 473.38194 -98.001163 
L 472.380943 -98.001163 
L 471.379946 -98.001163 
L 470.37895 -98.001163 
L 469.377953 -98.001163 
L 468.376956 -98.001163 
L 467.37596 -98.001163 
L 466.374963 -98.001163 
L 465.373966 -98.001163 
L 464.37297 -98.001163 
L 463.371973 -98.001163 
L 462.370976 -98.001163 
L 461.369979 -98.001163 
L 460.368983 -98.001163 
L 459.367986 -98.001163 
L 458.366989 -98.001163 
L 457.365993 -98.001163 
L 456.364996 -98.001163 
L 455.363999 -98.001163 
L 454.363003 -98.001163 
L 453.362006 -98.001163 
L 452.361009 -98.001163 
L 451.360012 -98.001163 
L 450.359016 -98.001163 
L 449.358019 -98.001163 
L 448.357022 -98.001163 
L 447.356026 -98.001163 
L 446.355029 -98.001163 
L 445.354032 -98.001163 
L 444.353035 -98.001163 
L 443.352039 -98.001163 
L 442.351042 -98.001163 
L 441.350045 -98.001163 
L 440.349049 -98.001163 
L 439.348052 -98.001163 
L 438.347055 -98.001163 
L 437.346059 -98.001163 
L 436.345062 -98.001163 
L 435.344065 -98.001163 
L 434.343068 -98.001163 
L 433.342072 -98.001163 
L 432.341075 -98.001163 
L 431.340078 -98.001163 
L 430.339082 -98.001163 
L 429.338085 -98.001163 
L 428.337088 -98.001163 
L 427.336092 -98.001163 
L 426.335095 -98.001163 
L 425.334098 -98.001163 
L 424.333101 -98.001163 
L 423.332105 -98.001163 
L 422.331108 -98.001163 
L 421.330111 -98.001163 
L 420.329115 -98.001163 
L 419.328118 -98.001163 
L 418.327121 -98.001163 
L 417.326125 -98.001163 
L 416.325128 -98.001163 
L 415.324131 -98.001163 
L 414.323134 -98.001163 
L 413.322138 -98.001163 
L 412.321141 -98.001163 
L 411.320144 -98.001163 
L 410.319148 -98.001163 
L 409.318151 -98.001163 
L 408.317154 -98.001163 
L 407.316158 -98.001163 
L 406.315161 -98.001163 
L 405.314164 -98.001163 
L 404.313167 -98.001163 
L 403.312171 -98.001163 
L 402.311174 -98.001163 
L 401.310177 -98.001163 
L 400.309181 -98.001163 
L 399.308184 -98.001163 
L 398.307187 -98.001163 
L 397.30619 -98.001163 
L 396.305194 -98.001163 
L 395.304197 -98.001163 
L 394.3032 -98.001163 
L 393.302204 -98.001163 
L 392.301207 -98.001163 
L 391.30021 -98.001163 
L 390.299214 -98.001163 
L 389.298217 -98.001163 
L 388.29722 -98.001163 
L 387.296223 -98.001163 
L 386.295227 -98.001163 
L 385.29423 -98.001163 
L 384.293233 -98.001163 
L 383.292237 -98.001163 
L 382.29124 -98.001163 
L 381.290243 -98.001163 
L 380.289247 -98.001163 
L 379.28825 -98.001163 
L 378.287253 -98.001163 
L 377.286256 -98.001163 
L 376.28526 -98.001163 
L 375.284263 -98.001163 
L 374.283266 -98.001163 
L 373.28227 -98.001163 
L 372.281273 -98.001163 
L 371.280276 -98.001163 
L 370.27928 -98.001163 
L 369.278283 -98.001163 
L 368.277286 -98.001163 
L 367.276289 -98.001163 
L 366.275293 -98.001163 
L 365.274296 -98.001163 
L 364.273299 -98.001163 
L 363.272303 -98.001163 
L 362.271306 -98.001163 
L 361.270309 -98.001163 
L 360.269313 -98.001163 
L 359.268316 -98.001163 
L 358.267319 -98.001163 
L 357.266322 -98.001163 
L 356.265326 -98.001163 
L 355.264329 -98.001163 
L 354.263332 -98.001163 
L 353.262336 -98.001163 
L 352.261339 -98.001163 
L 351.260342 -98.001163 
L 350.259345 -98.001163 
L 349.258349 -98.001163 
L 348.257352 -98.001163 
L 347.256355 -98.001163 
L 346.255359 -98.001163 
L 345.254362 -98.001163 
L 344.253365 -98.001163 
L 343.252369 -98.001163 
L 342.251372 -98.001163 
L 341.250375 -98.001163 
L 340.249378 -98.001163 
L 339.248382 -98.001163 
L 338.247385 -98.001163 
L 337.246388 -98.001163 
L 336.245392 -98.001163 
L 335.244395 -98.001163 
L 334.243398 -98.001163 
L 333.242402 -98.001163 
L 332.241405 -98.001163 
L 331.240408 -98.001163 
L 330.239411 -98.001163 
L 329.238415 -98.001163 
L 328.237418 -98.001163 
L 327.236421 -98.001163 
L 326.235425 -98.001163 
L 325.234428 -98.001163 
L 324.233431 -98.001163 
L 323.232435 -98.001163 
L 322.231438 -98.001163 
L 321.230441 -98.001163 
L 320.229444 -98.001163 
L 319.228448 -98.001163 
L 318.227451 -98.001163 
L 317.226454 -98.001163 
L 316.225458 -98.001163 
L 315.224461 -98.001163 
L 314.223464 -98.001163 
L 313.222467 -98.001163 
L 312.221471 -98.001163 
L 311.220474 -98.001163 
L 310.219477 -98.001163 
L 309.218481 -98.001163 
L 308.217484 -98.001163 
L 307.216487 -98.001163 
L 306.215491 -98.001163 
L 305.214494 -98.001163 
L 304.213497 -98.001163 
L 303.2125 -98.001163 
L 302.211504 -98.001163 
L 301.210507 -98.001163 
L 300.20951 -98.001163 
L 299.208514 -98.001163 
L 298.207517 -98.001163 
L 297.20652 -98.001163 
L 296.205524 -98.001163 
L 295.204527 -98.001163 
L 294.20353 -98.001163 
L 293.202533 -98.001163 
L 292.201537 -98.001163 
L 291.20054 -98.001163 
L 290.199543 -98.001163 
L 289.198547 -98.001163 
L 288.19755 -98.001163 
L 287.196553 -98.001163 
L 286.195557 -98.001163 
L 285.19456 -98.001163 
L 284.193563 -98.001163 
L 283.192566 -98.001163 
L 282.19157 -98.001163 
L 281.190573 -98.001163 
L 280.189576 -98.001163 
L 279.18858 -98.001163 
L 278.187583 -98.001163 
L 277.186586 -98.001163 
L 276.18559 -98.001163 
L 275.184593 -98.001163 
L 274.183596 -98.001163 
L 273.182599 -98.001163 
L 272.181603 -98.001163 
L 271.180606 -98.001163 
L 270.179609 -98.001163 
L 269.178613 -98.001163 
L 268.177616 -98.001163 
L 267.176619 -98.001163 
L 266.175622 -98.001163 
L 265.174626 -98.001163 
L 264.173629 -98.001163 
L 263.172632 -98.001163 
L 262.171636 -98.001163 
L 261.170639 -98.001163 
L 260.169642 -98.001163 
L 259.168646 -98.001163 
L 258.167649 -98.001163 
L 257.166652 -98.001163 
L 256.165655 -98.001163 
L 255.164659 -98.001163 
L 254.163662 -98.001163 
L 253.162665 -98.001163 
L 252.161669 -98.001163 
L 251.160672 -98.001163 
L 250.159675 -98.001163 
L 249.158679 -98.001163 
L 248.157682 -98.001163 
L 247.156685 -98.001163 
L 246.155688 -98.001163 
L 245.154692 -98.001163 
L 244.153695 -98.001163 
L 243.152698 -98.001163 
L 242.151702 -98.001163 
L 241.150705 -98.001163 
L 240.149708 -98.001163 
L 239.148712 -98.001163 
L 238.147715 -98.001163 
L 237.146718 -98.001163 
L 236.145721 -98.001163 
L 235.144725 -98.001163 
L 234.143728 -98.001163 
L 233.142731 -98.001163 
L 232.141735 -98.001163 
L 231.140738 -98.001163 
L 230.139741 -98.001163 
L 229.138744 -98.001163 
L 228.137748 -98.001163 
L 227.136751 -98.001163 
L 226.135754 -98.001163 
L 225.134758 -98.001163 
L 224.133761 -98.001163 
L 223.132764 -98.001163 
L 222.131768 -98.001163 
L 221.130771 -98.001163 
L 220.129774 -98.001163 
L 219.128777 -98.001163 
L 218.127781 -98.001163 
L 217.126784 -98.001163 
L 216.125787 -98.001163 
L 215.124791 -98.001163 
L 214.123794 -98.001163 
L 213.122797 -98.001163 
L 212.121801 -98.001163 
L 211.120804 -98.001163 
L 210.119807 -98.001163 
L 209.11881 -98.001163 
L 208.117814 -98.001163 
L 207.116817 -98.001163 
L 206.11582 -98.001163 
L 205.114824 -98.001163 
L 204.113827 -98.001163 
L 203.11283 -98.001163 
L 202.111834 -98.001163 
L 201.110837 -98.001163 
L 200.10984 -98.001163 
L 199.108843 -98.001163 
L 198.107847 -98.001163 
L 197.10685 -98.001163 
L 196.105853 -98.001163 
L 195.104857 -98.001163 
L 194.10386 -98.001163 
L 193.102863 -98.001163 
L 192.101867 -98.001163 
L 191.10087 -98.001163 
L 190.099873 -98.001163 
L 189.098876 -98.001163 
L 188.09788 -98.001163 
L 187.096883 -98.001163 
L 186.095886 -98.001163 
L 185.09489 -98.001163 
L 184.093893 -98.001163 
L 183.092896 -98.001163 
L 182.091899 -98.001163 
L 181.090903 -98.001163 
L 180.089906 -98.001163 
L 179.088909 -98.001163 
L 178.087913 -98.001163 
L 177.086916 -98.001163 
L 176.085919 -98.001163 
L 175.084923 -98.001163 
L 174.083926 -98.001163 
L 173.082929 -98.001163 
L 172.081932 -98.001163 
L 171.080936 -98.001163 
L 170.079939 -98.001163 
L 169.078942 -98.001163 
L 168.077946 -98.001163 
L 167.076949 -98.001163 
L 166.075952 -98.001163 
L 165.074956 -98.001163 
L 164.073959 -98.001163 
L 163.072962 -98.001163 
L 162.071965 -98.001163 
L 161.070969 -98.001163 
L 160.069972 -98.001163 
L 159.068975 -98.001163 
L 158.067979 -98.001163 
L 157.066982 -98.001163 
L 156.065985 -98.001163 
L 155.064989 -98.001163 
L 154.063992 -98.001163 
L 153.062995 -98.001163 
L 152.061998 -98.001163 
L 151.061002 -98.001163 
L 150.060005 -98.001163 
L 149.059008 -98.001163 
L 148.058012 -98.001163 
L 147.057015 -98.001163 
L 146.056018 -98.001163 
L 145.055021 -98.001163 
L 144.054025 -98.001163 
L 143.053028 -98.001163 
L 142.052031 -98.001163 
L 141.051035 -98.001163 
L 140.050038 -98.001163 
L 139.049041 -98.001163 
L 138.048045 -98.001163 
L 137.047048 -98.001163 
L 136.046051 -98.001163 
L 135.045054 -98.001163 
L 134.044058 -98.001163 
L 133.043061 -98.001163 
L 132.042064 -98.001163 
L 131.041068 -98.001163 
L 130.040071 -98.001163 
L 129.039074 -98.001163 
L 128.038078 -98.001163 
L 127.037081 -98.001163 
L 126.036084 -98.001163 
L 125.035087 -98.001163 
L 124.034091 -98.001163 
L 123.033094 -98.001163 
L 122.032097 -98.001163 
L 121.031101 -98.001163 
L 120.030104 -98.001163 
L 119.029107 -98.001163 
L 118.028111 -98.001163 
L 117.027114 -98.001163 
L 116.026117 -98.001163 
L 115.02512 -98.001163 
L 114.024124 -98.001163 
L 113.023127 -98.001163 
L 112.02213 -98.001163 
L 111.021134 -98.001163 
L 110.020137 -98.001163 
L 109.01914 -98.001163 
L 108.018144 -98.001163 
L 107.017147 -98.001163 
L 106.01615 -98.001163 
L 105.015153 -98.001163 
L 104.014157 -98.001163 
L 103.01316 -98.001163 
L 102.012163 -98.001163 
L 101.011167 -98.001163 
L 100.01017 -98.001163 
L 99.009173 -98.001163 
L 98.008176 -98.001163 
L 97.00718 -98.001163 
L 96.006183 -98.001163 
L 95.005186 -98.001163 
L 94.00419 -98.001163 
L 93.003193 -98.001163 
L 92.002196 -98.001163 
L 91.0012 -98.001163 
L 90.000203 -98.001163 
L 88.999206 -98.001163 
L 87.998209 -98.001163 
L 86.997213 -98.001163 
L 85.996216 -98.001163 
L 84.995219 -98.001163 
z
" style="stroke: #c49c94; stroke-opacity: 0.35; stroke-width: 0.3"/>
    </defs>
    <g clip-path="url(#p7a1e64f2b3)">
     <use xlink:href="#mbccda0cac3" x="0" y="504" style="fill: #c49c94; fill-opacity: 0.35; stroke: #c49c94; stroke-opacity: 0.35; stroke-width: 0.3"/>
    </g>
   </g>
   <g id="line2d_7">
    <path d="M 84.995219 308.537067 
L 86.997213 308.394995 
L 90.000203 307.916271 
L 93.003193 307.158427 
L 96.006183 306.122469 
L 99.009173 304.784435 
L 103.01316 302.516945 
L 106.01615 300.541079 
L 109.01914 298.280214 
L 112.02213 295.822875 
L 116.026117 292.218841 
L 120.030104 288.342901 
L 125.035087 283.089293 
L 130.040071 277.49709 
L 135.045054 271.618731 
L 142.052031 263.066061 
L 149.059008 254.213772 
L 156.065985 245.113822 
L 180.089906 213.961916 
L 187.096883 205.438064 
L 192.101867 199.61376 
L 196.105853 195.223615 
L 200.10984 191.107747 
L 205.114824 186.40767 
L 208.117814 183.847027 
L 212.121801 180.763791 
L 217.126784 177.431711 
L 220.129774 175.735104 
L 223.132764 174.18824 
L 226.135754 172.844654 
L 230.139741 171.227974 
L 235.144725 169.345032 
L 245.154692 165.828722 
L 249.158679 164.200106 
L 255.164659 161.435241 
L 261.170639 158.212653 
L 267.176619 154.684335 
L 272.181603 151.614567 
L 279.18858 147.314561 
L 285.19456 143.909778 
L 290.199543 141.411839 
L 293.202533 140.040485 
L 298.207517 138.090748 
L 303.2125 136.429027 
L 306.215491 135.555679 
L 313.222467 133.894003 
L 322.231438 132.295642 
L 327.236421 131.582675 
L 332.241405 130.993024 
L 339.248382 130.486817 
L 345.254362 130.505657 
L 347.256355 130.624501 
L 352.261339 131.209416 
L 354.263332 131.569865 
L 358.267319 132.572776 
L 360.269313 133.151214 
L 364.273299 134.583319 
L 368.277286 136.406821 
L 371.280276 138.086084 
L 374.283266 139.886292 
L 378.287253 142.58646 
L 382.29124 145.576369 
L 385.29423 148.005091 
L 390.299214 152.37145 
L 394.3032 156.048574 
L 400.309181 161.822111 
L 430.339082 191.74906 
L 441.350045 201.927122 
L 450.359016 209.721014 
L 460.368983 218.028918 
L 471.379946 226.823603 
L 482.39091 236.019768 
L 489.397887 242.290057 
L 499.407854 251.948406 
L 519.427788 271.995178 
L 525.433768 277.401115 
L 529.437755 280.795234 
L 535.443735 285.564023 
L 539.447722 288.506729 
L 545.453702 292.690351 
L 550.458686 296.031221 
L 555.463669 299.31397 
L 567.47563 306.883543 
L 574.482607 310.901813 
L 578.486594 312.933943 
L 582.49058 314.697042 
L 585.493571 315.775231 
L 588.496561 316.629567 
L 592.500547 317.386392 
L 595.503538 317.638546 
L 596.504534 317.658071 
L 596.504534 317.658071 
" clip-path="url(#p7a1e64f2b3)" style="fill: none; stroke: #c49c94; stroke-width: 2; stroke-linecap: round"/>
   </g>
   <g id="line2d_8">
    <path d="M 84.995219 406.973455 
L 84.995219 308.537067 
" clip-path="url(#p7a1e64f2b3)" style="fill: none; stroke: #c49c94; stroke-width: 2; stroke-linecap: round"/>
   </g>
   <g id="line2d_9">
    <path d="M 596.504534 406.882245 
L 596.504534 317.658071 
" clip-path="url(#p7a1e64f2b3)" style="fill: none; stroke: #c49c94; stroke-width: 2; stroke-linecap: round"/>
   </g>
   <g id="line2d_10">
    <defs>
     <path id="m266837e023" d="M 0 3.5 
C 0.928211 3.5 1.81853 3.131218 2.474874 2.474874 
C 3.131218 1.81853 3.5 0.928211 3.5 0 
C 3.5 -0.928211 3.131218 -1.81853 2.474874 -2.474874 
C 1.81853 -3.131218 0.928211 -3.5 0 -3.5 
C -0.928211 -3.5 -1.81853 -3.131218 -2.474874 -2.474874 
C -3.131218 -1.81853 -3.5 -0.928211 -3.5 0 
C -3.5 0.928211 -3.131218 1.81853 -2.474874 2.474874 
C -1.81853 3.131218 -0.928211 3.5 0 3.5 
z
"/>
    </defs>
    <g clip-path="url(#p7a1e64f2b3)">
     <use xlink:href="#m266837e023" x="325.694052" y="405.998837" style="fill: #c49c94"/>
    </g>
   </g>
   <g id="patch_3">
    <path d="M 59.419754 420.8 
L 622.08 420.8 
" style="fill: none; stroke: #333333; stroke-width: 1.5; stroke-linejoin: miter; stroke-linecap: square"/>
   </g>
   <g id="text_4">
    <!-- $x_2^2x_3^2$ -->
    <g style="fill: #262626" transform="translate(256.389877 94.576)">
     <text>
      <tspan x="0" y="-0.421875" style="font-style: oblique; font-size: 76px; font-family: 'DejaVu Sans'; fill: #262626">x</tspan>
      <tspan x="84.296419" y="-0.421875" style="font-style: oblique; font-size: 76px; font-family: 'DejaVu Sans'; fill: #262626">x</tspan>
      <tspan x="44.976562" y="20.359375" style="font-size: 53.2px; font-family: 'DejaVu Sans'; fill: #262626">2</tspan>
      <tspan x="48.370833" y="-29.515625" style="font-size: 53.2px; font-family: 'DejaVu Sans'; fill: #262626">2</tspan>
      <tspan x="129.272982" y="20.359375" style="font-size: 53.2px; font-family: 'DejaVu Sans'; fill: #262626">3</tspan>
      <tspan x="132.667253" y="-29.515625" style="font-size: 53.2px; font-family: 'DejaVu Sans'; fill: #262626">2</tspan>
     </text>
    </g>
   </g>
  </g>
 </g>
 <defs>
  <clipPath id="p7a1e64f2b3">
   <rect x="59.419754" y="116.616" width="562.660246" height="304.184"/>
  </clipPath>
 </defs>
</svg>
