<?xml version="1.0" encoding="utf-8" standalone="no"?>
<!DOCTYPE svg PUBLIC "-//W3C//DTD SVG 1.1//EN"
  "http://www.w3.org/Graphics/SVG/1.1/DTD/svg11.dtd">
<svg xmlns:xlink="http://www.w3.org/1999/xlink" width="648pt" height="504pt" viewBox="0 0 648 504" xmlns="http://www.w3.org/2000/svg" version="1.1">
 <metadata>
  <rdf:RDF xmlns:dc="http://purl.org/dc/elements/1.1/" xmlns:cc="http://creativecommons.org/ns#" xmlns:rdf="http://www.w3.org/1999/02/22-rdf-syntax-ns#">
   <cc:Work>
    <dc:type rdf:resource="http://purl.org/dc/dcmitype/StillImage"/>
    <dc:date>2026-02-22T16:15:34.323524</dc:date>
    <dc:format>image/svg+xml</dc:format>
    <dc:creator>
     <cc:Agent>
      <dc:title>Matplotlib v3.10.6, https://matplotlib.org/</dc:title>
     </cc:Agent>
    </dc:creator>
   </cc:Work>
  </rdf:RDF>
 </metadata>
 <defs>
  <style type="text/css">*{stroke-linejoin: round; stroke-linecap: butt}</style>
 </defs>
 <g id="figure_1">
  <g id="patch_1">
   <path d="M 0 504 
L 648 504 
L 648 0 
L 0 0 
L 0 504 
z
" style="fill: none; opacity: 0"/>
  </g>
  <g id="axes_1">
   <g id="patch_2">
    <path d="M 29.18912 420.8 
L 622.08 420.8 
L 622.08 99.6 
L 29.18912 99.6 
L 29.18912 420.8 
z
" style="fill: none"/>
   </g>
   <g id="matplotlib.axis_1">
    <g id="xtick_1">
     <g id="line2d_1">
      <path d="M 93.685636 420.8 
L 93.685636 99.6 
" clip-path="url(#p2356b299a9)" style="fill: none; stroke: #ffffff; stroke-opacity: 0.4; stroke-linecap: round"/>
     </g>
     <g id="line2d_2"/>
     <g id="text_1">
      <text style="font-size: 52px; font-family: 'DejaVu Serif', 'Times New Roman', serif; text-anchor: middle; fill: #262626" x="93.685636" y="467.311875" transform="rotate(-0 93.685636 467.311875)">0.94</text>
     </g>
    </g>
    <g id="xtick_2">
     <g id="line2d_3">
      <path d="M 458.427251 420.8 
L 458.427251 99.6 
" clip-path="url(#p2356b299a9)" style="fill: none; stroke: #ffffff; stroke-opacity: 0.4; stroke-linecap: round"/>
     </g>
     <g id="line2d_4"/>
     <g id="text_2">
      <text style="font-size: 52px; font-family: 'DejaVu Serif', 'Times New Roman', serif; text-anchor: middle; fill: #262626" x="458.427251" y="467.311875" transform="rotate(-0 458.427251 467.311875)">0.96</text>
     </g>
    </g>
   </g>
   <g id="matplotlib.axis_2"/>
   <g id="FillBetweenPolyCollection_1">
    <defs>
     <path id="m467fefe7fe" d="M 56.138705 -98.778384 
L 56.138705 -192.308562 
L 57.193483 -192.31531 
L 58.248262 -192.370189 
L 59.30304 -192.483047 
L 60.357818 -192.622574 
L 61.412597 -192.796922 
L 62.467375 -193.011491 
L 63.522153 -193.251938 
L 64.576931 -193.532004 
L 65.63171 -193.852893 
L 66.686488 -194.210942 
L 67.741266 -194.639384 
L 68.796045 -195.07496 
L 69.850823 -195.567115 
L 70.905601 -196.067109 
L 71.96038 -196.611034 
L 73.015158 -197.182872 
L 74.069936 -197.808696 
L 75.124714 -198.463607 
L 76.179493 -199.132629 
L 77.234271 -199.831759 
L 78.289049 -200.569602 
L 79.343828 -201.337935 
L 80.398606 -202.129386 
L 81.453384 -202.93997 
L 82.508162 -203.785581 
L 83.562941 -204.655713 
L 84.617719 -205.562487 
L 85.672497 -206.482096 
L 86.727276 -207.418912 
L 87.782054 -208.369331 
L 88.836832 -209.357421 
L 89.891611 -210.355428 
L 90.946389 -211.367684 
L 92.001167 -212.385292 
L 93.055945 -213.43793 
L 94.110724 -214.496115 
L 95.165502 -215.590232 
L 96.22028 -216.694765 
L 97.275059 -217.807226 
L 98.329837 -218.932561 
L 99.384615 -220.061028 
L 100.439394 -221.201821 
L 101.494172 -222.354193 
L 102.54895 -223.520088 
L 103.603728 -224.664477 
L 104.658507 -225.833711 
L 105.713285 -227.006646 
L 106.768063 -228.18739 
L 107.822842 -229.375246 
L 108.87762 -230.56263 
L 109.932398 -231.77441 
L 110.987176 -232.977581 
L 112.041955 -234.172578 
L 113.096733 -235.380395 
L 114.151511 -236.604003 
L 115.20629 -237.8227 
L 116.261068 -239.041816 
L 117.315846 -240.273632 
L 118.370625 -241.490075 
L 119.425403 -242.710761 
L 120.480181 -243.914965 
L 121.534959 -245.11742 
L 122.589738 -246.337169 
L 123.644516 -247.535209 
L 124.699294 -248.733214 
L 125.754073 -249.958875 
L 126.808851 -251.174218 
L 127.863629 -252.380867 
L 128.918408 -253.594249 
L 129.973186 -254.771612 
L 131.027964 -255.971104 
L 132.082742 -257.14293 
L 133.137521 -258.332222 
L 134.192299 -259.512641 
L 135.247077 -260.677367 
L 136.301856 -261.8529 
L 137.356634 -263.009455 
L 138.411412 -264.173158 
L 139.46619 -265.341584 
L 140.520969 -266.471221 
L 141.575747 -267.615985 
L 142.630525 -268.746527 
L 143.685304 -269.84562 
L 144.740082 -270.951379 
L 145.79486 -272.066327 
L 146.849639 -273.167689 
L 147.904417 -274.253167 
L 148.959195 -275.322461 
L 150.013973 -276.395596 
L 151.068752 -277.449751 
L 152.12353 -278.514616 
L 153.178308 -279.547146 
L 154.233087 -280.581892 
L 155.287865 -281.593897 
L 156.342643 -282.595114 
L 157.397422 -283.578354 
L 158.4522 -284.57592 
L 159.506978 -285.589552 
L 160.561756 -286.547936 
L 161.616535 -287.507998 
L 162.671313 -288.441468 
L 163.726091 -289.37514 
L 164.78087 -290.325572 
L 165.835648 -291.224476 
L 166.890426 -292.122269 
L 167.945204 -293.032451 
L 168.999983 -293.930972 
L 170.054761 -294.804317 
L 171.109539 -295.655707 
L 172.164318 -296.519861 
L 173.219096 -297.369328 
L 174.273874 -298.224913 
L 175.328653 -299.073083 
L 176.383431 -299.911293 
L 177.438209 -300.739189 
L 178.492987 -301.548466 
L 179.547766 -302.355505 
L 180.602544 -303.162439 
L 181.657322 -303.973999 
L 182.712101 -304.742012 
L 183.766879 -305.519946 
L 184.821657 -306.301482 
L 185.876436 -307.095261 
L 186.931214 -307.880029 
L 187.985992 -308.642763 
L 189.04077 -309.435005 
L 190.095549 -310.201269 
L 191.150327 -310.977505 
L 192.205105 -311.752338 
L 193.259884 -312.547843 
L 194.314662 -313.329452 
L 195.36944 -314.102086 
L 196.424218 -314.870932 
L 197.478997 -315.653187 
L 198.533775 -316.414421 
L 199.588553 -317.197764 
L 200.643332 -317.976636 
L 201.69811 -318.767817 
L 202.752888 -319.544196 
L 203.807667 -320.334625 
L 204.862445 -321.115466 
L 205.917223 -321.917729 
L 206.972001 -322.729495 
L 208.02678 -323.5467 
L 209.081558 -324.357079 
L 210.136336 -325.173877 
L 211.191115 -325.98687 
L 212.245893 -326.81736 
L 213.300671 -327.65083 
L 214.35545 -328.508402 
L 215.410228 -329.35217 
L 216.465006 -330.204465 
L 217.519784 -331.075427 
L 218.574563 -331.933983 
L 219.629341 -332.812366 
L 220.684119 -333.686048 
L 221.738898 -334.545463 
L 222.793676 -335.438082 
L 223.848454 -336.343974 
L 224.903232 -337.252869 
L 225.958011 -338.131369 
L 227.012789 -339.044258 
L 228.067567 -339.980055 
L 229.122346 -340.903199 
L 230.177124 -341.817819 
L 231.231902 -342.762236 
L 232.286681 -343.72288 
L 233.341459 -344.670198 
L 234.396237 -345.611823 
L 235.451015 -346.561178 
L 236.505794 -347.516426 
L 237.560572 -348.473214 
L 238.61535 -349.462805 
L 239.670129 -350.422427 
L 240.724907 -351.399748 
L 241.779685 -352.379025 
L 242.834464 -353.373642 
L 243.889242 -354.363674 
L 244.94402 -355.345183 
L 245.998798 -356.334475 
L 247.053577 -357.308347 
L 248.108355 -358.288196 
L 249.163133 -359.275485 
L 250.217912 -360.263875 
L 251.27269 -361.224825 
L 252.327468 -362.195222 
L 253.382246 -363.166849 
L 254.437025 -364.11975 
L 255.491803 -365.077219 
L 256.546581 -366.054907 
L 257.60136 -367.013572 
L 258.656138 -367.939476 
L 259.710916 -368.860307 
L 260.765695 -369.781167 
L 261.820473 -370.70647 
L 262.875251 -371.620311 
L 263.930029 -372.505125 
L 264.984808 -373.382275 
L 266.039586 -374.23448 
L 267.094364 -375.043069 
L 268.149143 -375.865919 
L 269.203921 -376.670012 
L 270.258699 -377.444556 
L 271.313478 -378.207791 
L 272.368256 -378.932705 
L 273.423034 -379.664817 
L 274.477812 -380.364955 
L 275.532591 -381.029815 
L 276.587369 -381.662058 
L 277.642147 -382.279943 
L 278.696926 -382.896648 
L 279.751704 -383.473527 
L 280.806482 -384.019679 
L 281.86126 -384.557645 
L 282.916039 -385.066814 
L 283.970817 -385.57575 
L 285.025595 -386.019865 
L 286.080374 -386.44988 
L 287.135152 -386.848432 
L 288.18993 -387.198435 
L 289.244709 -387.530443 
L 290.299487 -387.846151 
L 291.354265 -388.132604 
L 292.409043 -388.42254 
L 293.463822 -388.671272 
L 294.5186 -388.921835 
L 295.573378 -389.102016 
L 296.628157 -389.266452 
L 297.682935 -389.412455 
L 298.737713 -389.549539 
L 299.792492 -389.652308 
L 300.84727 -389.720074 
L 301.902048 -389.757535 
L 302.956826 -389.792456 
L 304.011605 -389.788041 
L 305.066383 -389.788893 
L 306.121161 -389.8 
L 307.17594 -389.755955 
L 308.230718 -389.671642 
L 309.285496 -389.597303 
L 310.340274 -389.516633 
L 311.395053 -389.413474 
L 312.449831 -389.281985 
L 313.504609 -389.138761 
L 314.559388 -388.965168 
L 315.614166 -388.817595 
L 316.668944 -388.620385 
L 317.723723 -388.426079 
L 318.778501 -388.214813 
L 319.833279 -387.99624 
L 320.888057 -387.762587 
L 321.942836 -387.491175 
L 322.997614 -387.225706 
L 324.052392 -386.957915 
L 325.107171 -386.676476 
L 326.161949 -386.381814 
L 327.216727 -386.059035 
L 328.271506 -385.756568 
L 329.326284 -385.461066 
L 330.381062 -385.122345 
L 331.43584 -384.787613 
L 332.490619 -384.452999 
L 333.545397 -384.121276 
L 334.600175 -383.741345 
L 335.654954 -383.38689 
L 336.709732 -383.012362 
L 337.76451 -382.630196 
L 338.819289 -382.250698 
L 339.874067 -381.873861 
L 340.928845 -381.47672 
L 341.983623 -381.084385 
L 343.038402 -380.69417 
L 344.09318 -380.295542 
L 345.147958 -379.92799 
L 346.202737 -379.498841 
L 347.257515 -379.102418 
L 348.312293 -378.695071 
L 349.367071 -378.270467 
L 350.42185 -377.866016 
L 351.476628 -377.474418 
L 352.531406 -377.073386 
L 353.586185 -376.661004 
L 354.640963 -376.238074 
L 355.695741 -375.806454 
L 356.75052 -375.368792 
L 357.805298 -374.944265 
L 358.860076 -374.528608 
L 359.914854 -374.107118 
L 360.969633 -373.67595 
L 362.024411 -373.237627 
L 363.079189 -372.825812 
L 364.133968 -372.371512 
L 365.188746 -371.922188 
L 366.243524 -371.466658 
L 367.298303 -371.023691 
L 368.353081 -370.573141 
L 369.407859 -370.089134 
L 370.462637 -369.583719 
L 371.517416 -369.074432 
L 372.572194 -368.556667 
L 373.626972 -368.018071 
L 374.681751 -367.468668 
L 375.736529 -366.923801 
L 376.791307 -366.34952 
L 377.846085 -365.768214 
L 378.900864 -365.168125 
L 379.955642 -364.546122 
L 381.01042 -363.912112 
L 382.065199 -363.234061 
L 383.119977 -362.568793 
L 384.174755 -361.887452 
L 385.229534 -361.14091 
L 386.284312 -360.390432 
L 387.33909 -359.59584 
L 388.393868 -358.806021 
L 389.448647 -357.961923 
L 390.503425 -357.102343 
L 391.558203 -356.217691 
L 392.612982 -355.313325 
L 393.66776 -354.393398 
L 394.722538 -353.412307 
L 395.777317 -352.426785 
L 396.832095 -351.429124 
L 397.886873 -350.380539 
L 398.941651 -349.315023 
L 399.99643 -348.226379 
L 401.051208 -347.085065 
L 402.105986 -345.949548 
L 403.160765 -344.770934 
L 404.215543 -343.560136 
L 405.270321 -342.328869 
L 406.325099 -341.078549 
L 407.379878 -339.805577 
L 408.434656 -338.504201 
L 409.489434 -337.191269 
L 410.544213 -335.860773 
L 411.598991 -334.510696 
L 412.653769 -333.122957 
L 413.708548 -331.723677 
L 414.763326 -330.312584 
L 415.818104 -328.888557 
L 416.872882 -327.439297 
L 417.927661 -325.962385 
L 418.982439 -324.47342 
L 420.037217 -322.978035 
L 421.091996 -321.485554 
L 422.146774 -319.982883 
L 423.201552 -318.468179 
L 424.256331 -316.956501 
L 425.311109 -315.414317 
L 426.365887 -313.893131 
L 427.420665 -312.347757 
L 428.475444 -310.828389 
L 429.530222 -309.322586 
L 430.585 -307.786315 
L 431.639779 -306.257717 
L 432.694557 -304.727649 
L 433.749335 -303.210361 
L 434.804113 -301.676197 
L 435.858892 -300.176531 
L 436.91367 -298.669236 
L 437.968448 -297.176782 
L 439.023227 -295.689486 
L 440.078005 -294.204096 
L 441.132783 -292.720122 
L 442.187562 -291.248689 
L 443.24234 -289.806156 
L 444.297118 -288.361579 
L 445.351896 -286.951637 
L 446.406675 -285.54229 
L 447.461453 -284.16977 
L 448.516231 -282.80667 
L 449.57101 -281.452369 
L 450.625788 -280.110799 
L 451.680566 -278.792709 
L 452.735345 -277.488463 
L 453.790123 -276.208719 
L 454.844901 -274.938895 
L 455.899679 -273.682548 
L 456.954458 -272.439626 
L 458.009236 -271.237847 
L 459.064014 -270.049103 
L 460.118793 -268.874188 
L 461.173571 -267.709341 
L 462.228349 -266.573816 
L 463.283127 -265.458783 
L 464.337906 -264.367501 
L 465.392684 -263.302866 
L 466.447462 -262.247461 
L 467.502241 -261.199288 
L 468.557019 -260.14049 
L 469.611797 -259.134294 
L 470.666576 -258.13738 
L 471.721354 -257.139372 
L 472.776132 -256.146173 
L 473.83091 -255.183117 
L 474.885689 -254.236614 
L 475.940467 -253.31617 
L 476.995245 -252.398437 
L 478.050024 -251.490758 
L 479.104802 -250.611837 
L 480.15958 -249.727585 
L 481.214359 -248.870203 
L 482.269137 -248.006457 
L 483.323915 -247.163292 
L 484.378693 -246.332131 
L 485.433472 -245.523736 
L 486.48825 -244.711587 
L 487.543028 -243.905932 
L 488.597807 -243.116159 
L 489.652585 -242.325253 
L 490.707363 -241.542175 
L 491.762141 -240.758405 
L 492.81692 -239.986265 
L 493.871698 -239.218566 
L 494.926476 -238.478913 
L 495.981255 -237.73164 
L 497.036033 -237.01794 
L 498.090811 -236.304544 
L 499.14559 -235.588089 
L 500.200368 -234.878953 
L 501.255146 -234.170575 
L 502.309924 -233.469358 
L 503.364703 -232.794758 
L 504.419481 -232.123472 
L 505.474259 -231.459919 
L 506.529038 -230.781999 
L 507.583816 -230.119506 
L 508.638594 -229.483319 
L 509.693373 -228.839742 
L 510.748151 -228.19737 
L 511.802929 -227.57095 
L 512.857707 -226.950081 
L 513.912486 -226.315045 
L 514.967264 -225.715094 
L 516.022042 -225.125994 
L 517.076821 -224.540925 
L 518.131599 -223.95343 
L 519.186377 -223.378288 
L 520.241155 -222.820773 
L 521.295934 -222.25618 
L 522.350712 -221.685287 
L 523.40549 -221.146992 
L 524.460269 -220.598767 
L 525.515047 -220.052132 
L 526.569825 -219.532956 
L 527.624604 -219.013511 
L 528.679382 -218.50332 
L 529.73416 -217.976245 
L 530.788938 -217.471902 
L 531.843717 -216.967084 
L 532.898495 -216.492916 
L 533.953273 -216.016859 
L 535.008052 -215.545418 
L 536.06283 -215.094239 
L 537.117608 -214.618219 
L 538.172387 -214.146235 
L 539.227165 -213.681455 
L 540.281943 -213.220967 
L 541.336721 -212.760598 
L 542.3915 -212.310837 
L 543.446278 -211.856159 
L 544.501056 -211.437147 
L 545.555835 -210.9921 
L 546.610613 -210.555409 
L 547.665391 -210.145988 
L 548.720169 -209.710064 
L 549.774948 -209.302188 
L 550.829726 -208.885925 
L 551.884504 -208.477756 
L 552.939283 -208.056779 
L 553.994061 -207.642855 
L 555.048839 -207.228996 
L 556.103618 -206.806409 
L 557.158396 -206.40282 
L 558.213174 -205.993607 
L 559.267952 -205.579212 
L 560.322731 -205.18959 
L 561.377509 -204.790211 
L 562.432287 -204.39084 
L 563.487066 -204.020402 
L 564.541844 -203.630754 
L 565.596622 -203.261363 
L 566.651401 -202.893236 
L 567.706179 -202.517368 
L 568.760957 -202.144186 
L 569.815735 -201.797164 
L 570.870514 -201.440945 
L 571.925292 -201.091347 
L 572.98007 -200.74241 
L 574.034849 -200.411561 
L 575.089627 -200.08945 
L 576.144405 -199.795899 
L 577.199183 -199.502692 
L 578.253962 -199.20758 
L 579.30874 -198.936445 
L 580.363518 -198.676187 
L 581.418297 -198.414507 
L 582.473075 -198.169296 
L 583.527853 -197.954988 
L 584.582632 -197.753183 
L 585.63741 -197.571097 
L 586.692188 -197.383332 
L 587.746966 -197.232443 
L 588.801745 -197.085134 
L 589.856523 -196.967434 
L 590.911301 -196.84759 
L 591.96608 -196.742659 
L 593.020858 -196.67917 
L 594.075636 -196.621711 
L 595.130415 -196.616833 
L 595.130415 -98.778384 
L 595.130415 -98.778384 
L 594.075636 -98.778384 
L 593.020858 -98.778384 
L 591.96608 -98.778384 
L 590.911301 -98.778384 
L 589.856523 -98.778384 
L 588.801745 -98.778384 
L 587.746966 -98.778384 
L 586.692188 -98.778384 
L 585.63741 -98.778384 
L 584.582632 -98.778384 
L 583.527853 -98.778384 
L 582.473075 -98.778384 
L 581.418297 -98.778384 
L 580.363518 -98.778384 
L 579.30874 -98.778384 
L 578.253962 -98.778384 
L 577.199183 -98.778384 
L 576.144405 -98.778384 
L 575.089627 -98.778384 
L 574.034849 -98.778384 
L 572.98007 -98.778384 
L 571.925292 -98.778384 
L 570.870514 -98.778384 
L 569.815735 -98.778384 
L 568.760957 -98.778384 
L 567.706179 -98.778384 
L 566.651401 -98.778384 
L 565.596622 -98.778384 
L 564.541844 -98.778384 
L 563.487066 -98.778384 
L 562.432287 -98.778384 
L 561.377509 -98.778384 
L 560.322731 -98.778384 
L 559.267952 -98.778384 
L 558.213174 -98.778384 
L 557.158396 -98.778384 
L 556.103618 -98.778384 
L 555.048839 -98.778384 
L 553.994061 -98.778384 
L 552.939283 -98.778384 
L 551.884504 -98.778384 
L 550.829726 -98.778384 
L 549.774948 -98.778384 
L 548.720169 -98.778384 
L 547.665391 -98.778384 
L 546.610613 -98.778384 
L 545.555835 -98.778384 
L 544.501056 -98.778384 
L 543.446278 -98.778384 
L 542.3915 -98.778384 
L 541.336721 -98.778384 
L 540.281943 -98.778384 
L 539.227165 -98.778384 
L 538.172387 -98.778384 
L 537.117608 -98.778384 
L 536.06283 -98.778384 
L 535.008052 -98.778384 
L 533.953273 -98.778384 
L 532.898495 -98.778384 
L 531.843717 -98.778384 
L 530.788938 -98.778384 
L 529.73416 -98.778384 
L 528.679382 -98.778384 
L 527.624604 -98.778384 
L 526.569825 -98.778384 
L 525.515047 -98.778384 
L 524.460269 -98.778384 
L 523.40549 -98.778384 
L 522.350712 -98.778384 
L 521.295934 -98.778384 
L 520.241155 -98.778384 
L 519.186377 -98.778384 
L 518.131599 -98.778384 
L 517.076821 -98.778384 
L 516.022042 -98.778384 
L 514.967264 -98.778384 
L 513.912486 -98.778384 
L 512.857707 -98.778384 
L 511.802929 -98.778384 
L 510.748151 -98.778384 
L 509.693373 -98.778384 
L 508.638594 -98.778384 
L 507.583816 -98.778384 
L 506.529038 -98.778384 
L 505.474259 -98.778384 
L 504.419481 -98.778384 
L 503.364703 -98.778384 
L 502.309924 -98.778384 
L 501.255146 -98.778384 
L 500.200368 -98.778384 
L 499.14559 -98.778384 
L 498.090811 -98.778384 
L 497.036033 -98.778384 
L 495.981255 -98.778384 
L 494.926476 -98.778384 
L 493.871698 -98.778384 
L 492.81692 -98.778384 
L 491.762141 -98.778384 
L 490.707363 -98.778384 
L 489.652585 -98.778384 
L 488.597807 -98.778384 
L 487.543028 -98.778384 
L 486.48825 -98.778384 
L 485.433472 -98.778384 
L 484.378693 -98.778384 
L 483.323915 -98.778384 
L 482.269137 -98.778384 
L 481.214359 -98.778384 
L 480.15958 -98.778384 
L 479.104802 -98.778384 
L 478.050024 -98.778384 
L 476.995245 -98.778384 
L 475.940467 -98.778384 
L 474.885689 -98.778384 
L 473.83091 -98.778384 
L 472.776132 -98.778384 
L 471.721354 -98.778384 
L 470.666576 -98.778384 
L 469.611797 -98.778384 
L 468.557019 -98.778384 
L 467.502241 -98.778384 
L 466.447462 -98.778384 
L 465.392684 -98.778384 
L 464.337906 -98.778384 
L 463.283127 -98.778384 
L 462.228349 -98.778384 
L 461.173571 -98.778384 
L 460.118793 -98.778384 
L 459.064014 -98.778384 
L 458.009236 -98.778384 
L 456.954458 -98.778384 
L 455.899679 -98.778384 
L 454.844901 -98.778384 
L 453.790123 -98.778384 
L 452.735345 -98.778384 
L 451.680566 -98.778384 
L 450.625788 -98.778384 
L 449.57101 -98.778384 
L 448.516231 -98.778384 
L 447.461453 -98.778384 
L 446.406675 -98.778384 
L 445.351896 -98.778384 
L 444.297118 -98.778384 
L 443.24234 -98.778384 
L 442.187562 -98.778384 
L 441.132783 -98.778384 
L 440.078005 -98.778384 
L 439.023227 -98.778384 
L 437.968448 -98.778384 
L 436.91367 -98.778384 
L 435.858892 -98.778384 
L 434.804113 -98.778384 
L 433.749335 -98.778384 
L 432.694557 -98.778384 
L 431.639779 -98.778384 
L 430.585 -98.778384 
L 429.530222 -98.778384 
L 428.475444 -98.778384 
L 427.420665 -98.778384 
L 426.365887 -98.778384 
L 425.311109 -98.778384 
L 424.256331 -98.778384 
L 423.201552 -98.778384 
L 422.146774 -98.778384 
L 421.091996 -98.778384 
L 420.037217 -98.778384 
L 418.982439 -98.778384 
L 417.927661 -98.778384 
L 416.872882 -98.778384 
L 415.818104 -98.778384 
L 414.763326 -98.778384 
L 413.708548 -98.778384 
L 412.653769 -98.778384 
L 411.598991 -98.778384 
L 410.544213 -98.778384 
L 409.489434 -98.778384 
L 408.434656 -98.778384 
L 407.379878 -98.778384 
L 406.325099 -98.778384 
L 405.270321 -98.778384 
L 404.215543 -98.778384 
L 403.160765 -98.778384 
L 402.105986 -98.778384 
L 401.051208 -98.778384 
L 399.99643 -98.778384 
L 398.941651 -98.778384 
L 397.886873 -98.778384 
L 396.832095 -98.778384 
L 395.777317 -98.778384 
L 394.722538 -98.778384 
L 393.66776 -98.778384 
L 392.612982 -98.778384 
L 391.558203 -98.778384 
L 390.503425 -98.778384 
L 389.448647 -98.778384 
L 388.393868 -98.778384 
L 387.33909 -98.778384 
L 386.284312 -98.778384 
L 385.229534 -98.778384 
L 384.174755 -98.778384 
L 383.119977 -98.778384 
L 382.065199 -98.778384 
L 381.01042 -98.778384 
L 379.955642 -98.778384 
L 378.900864 -98.778384 
L 377.846085 -98.778384 
L 376.791307 -98.778384 
L 375.736529 -98.778384 
L 374.681751 -98.778384 
L 373.626972 -98.778384 
L 372.572194 -98.778384 
L 371.517416 -98.778384 
L 370.462637 -98.778384 
L 369.407859 -98.778384 
L 368.353081 -98.778384 
L 367.298303 -98.778384 
L 366.243524 -98.778384 
L 365.188746 -98.778384 
L 364.133968 -98.778384 
L 363.079189 -98.778384 
L 362.024411 -98.778384 
L 360.969633 -98.778384 
L 359.914854 -98.778384 
L 358.860076 -98.778384 
L 357.805298 -98.778384 
L 356.75052 -98.778384 
L 355.695741 -98.778384 
L 354.640963 -98.778384 
L 353.586185 -98.778384 
L 352.531406 -98.778384 
L 351.476628 -98.778384 
L 350.42185 -98.778384 
L 349.367071 -98.778384 
L 348.312293 -98.778384 
L 347.257515 -98.778384 
L 346.202737 -98.778384 
L 345.147958 -98.778384 
L 344.09318 -98.778384 
L 343.038402 -98.778384 
L 341.983623 -98.778384 
L 340.928845 -98.778384 
L 339.874067 -98.778384 
L 338.819289 -98.778384 
L 337.76451 -98.778384 
L 336.709732 -98.778384 
L 335.654954 -98.778384 
L 334.600175 -98.778384 
L 333.545397 -98.778384 
L 332.490619 -98.778384 
L 331.43584 -98.778384 
L 330.381062 -98.778384 
L 329.326284 -98.778384 
L 328.271506 -98.778384 
L 327.216727 -98.778384 
L 326.161949 -98.778384 
L 325.107171 -98.778384 
L 324.052392 -98.778384 
L 322.997614 -98.778384 
L 321.942836 -98.778384 
L 320.888057 -98.778384 
L 319.833279 -98.778384 
L 318.778501 -98.778384 
L 317.723723 -98.778384 
L 316.668944 -98.778384 
L 315.614166 -98.778384 
L 314.559388 -98.778384 
L 313.504609 -98.778384 
L 312.449831 -98.778384 
L 311.395053 -98.778384 
L 310.340274 -98.778384 
L 309.285496 -98.778384 
L 308.230718 -98.778384 
L 307.17594 -98.778384 
L 306.121161 -98.778384 
L 305.066383 -98.778384 
L 304.011605 -98.778384 
L 302.956826 -98.778384 
L 301.902048 -98.778384 
L 300.84727 -98.778384 
L 299.792492 -98.778384 
L 298.737713 -98.778384 
L 297.682935 -98.778384 
L 296.628157 -98.778384 
L 295.573378 -98.778384 
L 294.5186 -98.778384 
L 293.463822 -98.778384 
L 292.409043 -98.778384 
L 291.354265 -98.778384 
L 290.299487 -98.778384 
L 289.244709 -98.778384 
L 288.18993 -98.778384 
L 287.135152 -98.778384 
L 286.080374 -98.778384 
L 285.025595 -98.778384 
L 283.970817 -98.778384 
L 282.916039 -98.778384 
L 281.86126 -98.778384 
L 280.806482 -98.778384 
L 279.751704 -98.778384 
L 278.696926 -98.778384 
L 277.642147 -98.778384 
L 276.587369 -98.778384 
L 275.532591 -98.778384 
L 274.477812 -98.778384 
L 273.423034 -98.778384 
L 272.368256 -98.778384 
L 271.313478 -98.778384 
L 270.258699 -98.778384 
L 269.203921 -98.778384 
L 268.149143 -98.778384 
L 267.094364 -98.778384 
L 266.039586 -98.778384 
L 264.984808 -98.778384 
L 263.930029 -98.778384 
L 262.875251 -98.778384 
L 261.820473 -98.778384 
L 260.765695 -98.778384 
L 259.710916 -98.778384 
L 258.656138 -98.778384 
L 257.60136 -98.778384 
L 256.546581 -98.778384 
L 255.491803 -98.778384 
L 254.437025 -98.778384 
L 253.382246 -98.778384 
L 252.327468 -98.778384 
L 251.27269 -98.778384 
L 250.217912 -98.778384 
L 249.163133 -98.778384 
L 248.108355 -98.778384 
L 247.053577 -98.778384 
L 245.998798 -98.778384 
L 244.94402 -98.778384 
L 243.889242 -98.778384 
L 242.834464 -98.778384 
L 241.779685 -98.778384 
L 240.724907 -98.778384 
L 239.670129 -98.778384 
L 238.61535 -98.778384 
L 237.560572 -98.778384 
L 236.505794 -98.778384 
L 235.451015 -98.778384 
L 234.396237 -98.778384 
L 233.341459 -98.778384 
L 232.286681 -98.778384 
L 231.231902 -98.778384 
L 230.177124 -98.778384 
L 229.122346 -98.778384 
L 228.067567 -98.778384 
L 227.012789 -98.778384 
L 225.958011 -98.778384 
L 224.903232 -98.778384 
L 223.848454 -98.778384 
L 222.793676 -98.778384 
L 221.738898 -98.778384 
L 220.684119 -98.778384 
L 219.629341 -98.778384 
L 218.574563 -98.778384 
L 217.519784 -98.778384 
L 216.465006 -98.778384 
L 215.410228 -98.778384 
L 214.35545 -98.778384 
L 213.300671 -98.778384 
L 212.245893 -98.778384 
L 211.191115 -98.778384 
L 210.136336 -98.778384 
L 209.081558 -98.778384 
L 208.02678 -98.778384 
L 206.972001 -98.778384 
L 205.917223 -98.778384 
L 204.862445 -98.778384 
L 203.807667 -98.778384 
L 202.752888 -98.778384 
L 201.69811 -98.778384 
L 200.643332 -98.778384 
L 199.588553 -98.778384 
L 198.533775 -98.778384 
L 197.478997 -98.778384 
L 196.424218 -98.778384 
L 195.36944 -98.778384 
L 194.314662 -98.778384 
L 193.259884 -98.778384 
L 192.205105 -98.778384 
L 191.150327 -98.778384 
L 190.095549 -98.778384 
L 189.04077 -98.778384 
L 187.985992 -98.778384 
L 186.931214 -98.778384 
L 185.876436 -98.778384 
L 184.821657 -98.778384 
L 183.766879 -98.778384 
L 182.712101 -98.778384 
L 181.657322 -98.778384 
L 180.602544 -98.778384 
L 179.547766 -98.778384 
L 178.492987 -98.778384 
L 177.438209 -98.778384 
L 176.383431 -98.778384 
L 175.328653 -98.778384 
L 174.273874 -98.778384 
L 173.219096 -98.778384 
L 172.164318 -98.778384 
L 171.109539 -98.778384 
L 170.054761 -98.778384 
L 168.999983 -98.778384 
L 167.945204 -98.778384 
L 166.890426 -98.778384 
L 165.835648 -98.778384 
L 164.78087 -98.778384 
L 163.726091 -98.778384 
L 162.671313 -98.778384 
L 161.616535 -98.778384 
L 160.561756 -98.778384 
L 159.506978 -98.778384 
L 158.4522 -98.778384 
L 157.397422 -98.778384 
L 156.342643 -98.778384 
L 155.287865 -98.778384 
L 154.233087 -98.778384 
L 153.178308 -98.778384 
L 152.12353 -98.778384 
L 151.068752 -98.778384 
L 150.013973 -98.778384 
L 148.959195 -98.778384 
L 147.904417 -98.778384 
L 146.849639 -98.778384 
L 145.79486 -98.778384 
L 144.740082 -98.778384 
L 143.685304 -98.778384 
L 142.630525 -98.778384 
L 141.575747 -98.778384 
L 140.520969 -98.778384 
L 139.46619 -98.778384 
L 138.411412 -98.778384 
L 137.356634 -98.778384 
L 136.301856 -98.778384 
L 135.247077 -98.778384 
L 134.192299 -98.778384 
L 133.137521 -98.778384 
L 132.082742 -98.778384 
L 131.027964 -98.778384 
L 129.973186 -98.778384 
L 128.918408 -98.778384 
L 127.863629 -98.778384 
L 126.808851 -98.778384 
L 125.754073 -98.778384 
L 124.699294 -98.778384 
L 123.644516 -98.778384 
L 122.589738 -98.778384 
L 121.534959 -98.778384 
L 120.480181 -98.778384 
L 119.425403 -98.778384 
L 118.370625 -98.778384 
L 117.315846 -98.778384 
L 116.261068 -98.778384 
L 115.20629 -98.778384 
L 114.151511 -98.778384 
L 113.096733 -98.778384 
L 112.041955 -98.778384 
L 110.987176 -98.778384 
L 109.932398 -98.778384 
L 108.87762 -98.778384 
L 107.822842 -98.778384 
L 106.768063 -98.778384 
L 105.713285 -98.778384 
L 104.658507 -98.778384 
L 103.603728 -98.778384 
L 102.54895 -98.778384 
L 101.494172 -98.778384 
L 100.439394 -98.778384 
L 99.384615 -98.778384 
L 98.329837 -98.778384 
L 97.275059 -98.778384 
L 96.22028 -98.778384 
L 95.165502 -98.778384 
L 94.110724 -98.778384 
L 93.055945 -98.778384 
L 92.001167 -98.778384 
L 90.946389 -98.778384 
L 89.891611 -98.778384 
L 88.836832 -98.778384 
L 87.782054 -98.778384 
L 86.727276 -98.778384 
L 85.672497 -98.778384 
L 84.617719 -98.778384 
L 83.562941 -98.778384 
L 82.508162 -98.778384 
L 81.453384 -98.778384 
L 80.398606 -98.778384 
L 79.343828 -98.778384 
L 78.289049 -98.778384 
L 77.234271 -98.778384 
L 76.179493 -98.778384 
L 75.124714 -98.778384 
L 74.069936 -98.778384 
L 73.015158 -98.778384 
L 71.96038 -98.778384 
L 70.905601 -98.778384 
L 69.850823 -98.778384 
L 68.796045 -98.778384 
L 67.741266 -98.778384 
L 66.686488 -98.778384 
L 65.63171 -98.778384 
L 64.576931 -98.778384 
L 63.522153 -98.778384 
L 62.467375 -98.778384 
L 61.412597 -98.778384 
L 60.357818 -98.778384 
L 59.30304 -98.778384 
L 58.248262 -98.778384 
L 57.193483 -98.778384 
L 56.138705 -98.778384 
z
" style="stroke: #1f77b4; stroke-opacity: 0.35; stroke-width: 0.3"/>
    </defs>
    <g clip-path="url(#p2356b299a9)">
     <use xlink:href="#m467fefe7fe" x="0" y="504" style="fill: #1f77b4; fill-opacity: 0.35; stroke: #1f77b4; stroke-opacity: 0.35; stroke-width: 0.3"/>
    </g>
   </g>
   <g id="line2d_5">
    <path d="M 56.138705 311.691438 
L 58.248262 311.629811 
L 61.412597 311.203078 
L 64.576931 310.467996 
L 66.686488 309.789058 
L 69.850823 308.432885 
L 73.015158 306.817128 
L 76.179493 304.867371 
L 79.343828 302.662065 
L 82.508162 300.214419 
L 85.672497 297.517904 
L 89.891611 293.644572 
L 94.110724 289.503885 
L 100.439394 282.798179 
L 108.87762 273.43737 
L 134.192299 244.487359 
L 143.685304 234.15438 
L 151.068752 226.550249 
L 155.287865 222.406103 
L 161.616535 216.492002 
L 168.999983 210.069028 
L 176.383431 204.088707 
L 182.712101 199.257988 
L 208.02678 180.4533 
L 215.410228 174.64783 
L 222.793676 168.561918 
L 232.286681 160.27712 
L 241.779685 151.620975 
L 252.327468 141.804778 
L 259.710916 135.139693 
L 264.984808 130.617725 
L 269.203921 127.329988 
L 273.423034 124.335183 
L 276.587369 122.337942 
L 280.806482 119.980321 
L 283.970817 118.42425 
L 287.135152 117.151568 
L 291.354265 115.867396 
L 294.5186 115.078165 
L 298.737713 114.450461 
L 301.902048 114.242465 
L 306.121161 114.2 
L 310.340274 114.483367 
L 313.504609 114.861239 
L 319.833279 116.00376 
L 324.052392 117.042085 
L 329.326284 118.538934 
L 336.709732 120.987638 
L 348.312293 125.304929 
L 369.407859 133.910866 
L 374.681751 136.531332 
L 378.900864 138.831875 
L 383.119977 141.431207 
L 385.229534 142.85909 
L 388.393868 145.193979 
L 392.612982 148.686675 
L 395.777317 151.573215 
L 398.941651 154.684977 
L 402.105986 158.050452 
L 406.325099 162.921451 
L 410.544213 168.139227 
L 414.763326 173.687416 
L 418.982439 179.52658 
L 428.475444 193.171611 
L 444.297118 215.638421 
L 449.57101 222.547631 
L 453.790123 227.791281 
L 458.009236 232.762153 
L 463.283127 238.541217 
L 468.557019 243.85951 
L 474.885689 249.763386 
L 480.15958 254.272415 
L 486.48825 259.288413 
L 492.81692 264.013735 
L 497.036033 266.98206 
L 504.419481 271.876528 
L 511.802929 276.42905 
L 518.131599 280.04657 
L 525.515047 283.947868 
L 533.953273 287.983141 
L 543.446278 292.143841 
L 562.432287 299.60916 
L 574.034849 303.588439 
L 578.253962 304.79242 
L 583.527853 306.045012 
L 587.746966 306.767557 
L 591.96608 307.257341 
L 595.130415 307.383167 
L 595.130415 307.383167 
" clip-path="url(#p2356b299a9)" style="fill: none; stroke: #1f77b4; stroke-width: 2; stroke-linecap: round"/>
   </g>
   <g id="line2d_6">
    <path d="M 56.138705 406.156917 
L 56.138705 311.691438 
" clip-path="url(#p2356b299a9)" style="fill: none; stroke: #1f77b4; stroke-width: 2; stroke-linecap: round"/>
   </g>
   <g id="line2d_7">
    <path d="M 595.130415 406.2 
L 595.130415 307.383167 
" clip-path="url(#p2356b299a9)" style="fill: none; stroke: #1f77b4; stroke-width: 2; stroke-linecap: round"/>
   </g>
   <g id="line2d_8">
    <defs>
     <path id="m7883d11896" d="M 0 3.5 
C 0.928211 3.5 1.81853 3.131218 2.474874 2.474874 
C 3.131218 1.81853 3.5 0.928211 3.5 0 
C 3.5 -0.928211 3.131218 -1.81853 2.474874 -2.474874 
C 1.81853 -3.131218 0.928211 -3.5 0 -3.5 
C -0.928211 -3.5 -1.81853 -3.131218 -2.474874 -2.474874 
C -3.131218 -1.81853 -3.5 -0.928211 -3.5 0 
C -3.5 0.928211 -3.131218 1.81853 -2.474874 2.474874 
C -1.81853 3.131218 -0.928211 3.5 0 3.5 
z
"/>
    </defs>
    <g clip-path="url(#p2356b299a9)">
     <use xlink:href="#m7883d11896" x="315.622871" y="405.221616" style="fill: #1f77b4"/>
    </g>
   </g>
   <g id="patch_3">
    <path d="M 29.18912 420.8 
L 622.08 420.8 
" style="fill: none; stroke: #333333; stroke-width: 1.5; stroke-linejoin: miter; stroke-linecap: square"/>
   </g>
   <g id="text_3">
    <!-- $x_3$ -->
    <g style="fill: #262626" transform="translate(284.97456 83.794375)">
     <text>
      <tspan x="0" y="-0.4375" style="font-style: oblique; font-size: 76px; font-family: 'DejaVu Sans'; fill: #262626">x</tspan>
      <tspan x="44.976562" y="12.03125" style="font-size: 53.2px; font-family: 'DejaVu Sans'; fill: #262626">3</tspan>
     </text>
    </g>
   </g>
  </g>
 </g>
 <defs>
  <clipPath id="p2356b299a9">
   <rect x="29.18912" y="99.6" width="592.89088" height="321.2"/>
  </clipPath>
 </defs>
</svg>
