<?xml version="1.0" encoding="utf-8" standalone="no"?>
<!DOCTYPE svg PUBLIC "-//W3C//DTD SVG 1.1//EN"
  "http://www.w3.org/Graphics/SVG/1.1/DTD/svg11.dtd">
<svg xmlns:xlink="http://www.w3.org/1999/xlink" width="648pt" height="504pt" viewBox="0 0 648 504" xmlns="http://www.w3.org/2000/svg" version="1.1">
 <metadata>
  <rdf:RDF xmlns:dc="http://purl.org/dc/elements/1.1/" xmlns:cc="http://creativecommons.org/ns#" xmlns:rdf="http://www.w3.org/1999/02/22-rdf-syntax-ns#">
   <cc:Work>
    <dc:type rdf:resource="http://purl.org/dc/dcmitype/StillImage"/>
    <dc:date>2026-02-22T16:15:36.165056</dc:date>
    <dc:format>image/svg+xml</dc:format>
    <dc:creator>
     <cc:Agent>
      <dc:title>Matplotlib v3.10.6, https://matplotlib.org/</dc:title>
     </cc:Agent>
    </dc:creator>
   </cc:Work>
  </rdf:RDF>
 </metadata>
 <defs>
  <style type="text/css">*{stroke-linejoin: round; stroke-linecap: butt}</style>
 </defs>
 <g id="figure_1">
  <g id="patch_1">
   <path d="M 0 504 
L 648 504 
L 648 0 
L 0 0 
L 0 504 
z
" style="fill: none; opacity: 0"/>
  </g>
  <g id="axes_1">
   <g id="patch_2">
    <path d="M 25.92 420.8 
L 590.002749 420.8 
L 590.002749 116.616 
L 25.92 116.616 
L 25.92 420.8 
z
" style="fill: none"/>
   </g>
   <g id="matplotlib.axis_1">
    <g id="xtick_1">
     <g id="line2d_1">
      <path d="M 269.515703 420.8 
L 269.515703 116.616 
" clip-path="url(#pf5814af3e1)" style="fill: none; stroke: #ffffff; stroke-opacity: 0.4; stroke-linecap: round"/>
     </g>
     <g id="line2d_2"/>
     <g id="text_1">
      <text style="font-size: 52px; font-family: 'DejaVu Serif', 'Times New Roman', serif; text-anchor: middle; fill: #262626" x="269.515703" y="467.311875" transform="rotate(-0 269.515703 467.311875)">−0.335</text>
     </g>
    </g>
    <g id="xtick_2">
     <g id="line2d_3">
      <path d="M 517.942078 420.8 
L 517.942078 116.616 
" clip-path="url(#pf5814af3e1)" style="fill: none; stroke: #ffffff; stroke-opacity: 0.4; stroke-linecap: round"/>
     </g>
     <g id="line2d_4"/>
     <g id="text_2">
      <text style="font-size: 52px; font-family: 'DejaVu Serif', 'Times New Roman', serif; text-anchor: middle; fill: #262626" x="517.942078" y="467.311875" transform="rotate(-0 517.942078 467.311875)">−0.330</text>
     </g>
    </g>
   </g>
   <g id="matplotlib.axis_2"/>
   <g id="FillBetweenPolyCollection_1">
    <defs>
     <path id="m5b3f669731" d="M 51.560125 -98.08908 
L 51.560125 -182.717272 
L 52.563652 -182.698776 
L 53.56718 -182.697816 
L 54.570707 -182.714832 
L 55.574235 -182.741863 
L 56.577762 -182.759583 
L 57.581289 -182.770982 
L 58.584817 -182.789284 
L 59.588344 -182.817097 
L 60.591871 -182.843627 
L 61.595399 -182.869766 
L 62.598926 -182.924052 
L 63.602454 -182.974954 
L 64.605981 -183.035709 
L 65.609508 -183.094161 
L 66.613036 -183.150976 
L 67.616563 -183.226105 
L 68.620091 -183.313773 
L 69.623618 -183.410885 
L 70.627145 -183.518182 
L 71.630673 -183.653169 
L 72.6342 -183.781426 
L 73.637728 -183.948888 
L 74.641255 -184.099766 
L 75.644782 -184.267769 
L 76.64831 -184.47915 
L 77.651837 -184.705939 
L 78.655365 -184.93102 
L 79.658892 -185.154562 
L 80.662419 -185.415639 
L 81.665947 -185.697569 
L 82.669474 -185.987906 
L 83.673002 -186.306759 
L 84.676529 -186.645008 
L 85.680056 -186.99348 
L 86.683584 -187.361807 
L 87.687111 -187.756939 
L 88.690639 -188.182426 
L 89.694166 -188.627746 
L 90.697693 -189.089999 
L 91.701221 -189.579518 
L 92.704748 -190.09636 
L 93.708276 -190.628499 
L 94.711803 -191.175896 
L 95.71533 -191.77456 
L 96.718858 -192.383673 
L 97.722385 -192.99515 
L 98.725912 -193.634965 
L 99.72944 -194.286913 
L 100.732967 -194.976467 
L 101.736495 -195.66988 
L 102.740022 -196.381042 
L 103.743549 -197.121789 
L 104.747077 -197.889109 
L 105.750604 -198.663889 
L 106.754132 -199.451708 
L 107.757659 -200.259277 
L 108.761186 -201.089483 
L 109.764714 -201.923249 
L 110.768241 -202.788796 
L 111.771769 -203.679188 
L 112.775296 -204.574682 
L 113.778823 -205.467107 
L 114.782351 -206.388879 
L 115.785878 -207.320893 
L 116.789406 -208.251473 
L 117.792933 -209.198462 
L 118.79646 -210.176554 
L 119.799988 -211.127556 
L 120.803515 -212.105722 
L 121.807043 -213.084913 
L 122.81057 -214.095054 
L 123.814097 -215.123151 
L 124.817625 -216.136146 
L 125.821152 -217.179903 
L 126.82468 -218.226455 
L 127.828207 -219.264346 
L 128.831734 -220.304755 
L 129.835262 -221.360454 
L 130.838789 -222.43224 
L 131.842317 -223.486711 
L 132.845844 -224.541094 
L 133.849371 -225.60813 
L 134.852899 -226.671395 
L 135.856426 -227.76349 
L 136.859953 -228.862213 
L 137.863481 -229.960579 
L 138.867008 -231.02529 
L 139.870536 -232.118968 
L 140.874063 -233.223972 
L 141.87759 -234.311861 
L 142.881118 -235.426295 
L 143.884645 -236.549049 
L 144.888173 -237.650472 
L 145.8917 -238.755369 
L 146.895227 -239.870802 
L 147.898755 -240.986784 
L 148.902282 -242.082209 
L 149.90581 -243.192068 
L 150.909337 -244.268289 
L 151.912864 -245.351253 
L 152.916392 -246.454164 
L 153.919919 -247.566276 
L 154.923447 -248.660398 
L 155.926974 -249.764681 
L 156.930501 -250.872698 
L 157.934029 -251.971408 
L 158.937556 -253.060784 
L 159.941084 -254.140515 
L 160.944611 -255.210594 
L 161.948138 -256.27699 
L 162.951666 -257.359418 
L 163.955193 -258.427949 
L 164.958721 -259.484047 
L 165.962248 -260.550511 
L 166.965775 -261.61621 
L 167.969303 -262.673712 
L 168.97283 -263.704431 
L 169.976358 -264.737207 
L 170.979885 -265.769081 
L 171.983412 -266.796783 
L 172.98694 -267.815278 
L 173.990467 -268.83851 
L 174.993994 -269.836731 
L 175.997522 -270.83432 
L 177.001049 -271.841423 
L 178.004577 -272.815887 
L 179.008104 -273.819111 
L 180.011631 -274.807315 
L 181.015159 -275.757845 
L 182.018686 -276.711086 
L 183.022214 -277.645529 
L 184.025741 -278.591079 
L 185.029268 -279.513648 
L 186.032796 -280.437341 
L 187.036323 -281.360931 
L 188.039851 -282.259879 
L 189.043378 -283.163373 
L 190.046905 -284.065816 
L 191.050433 -284.972015 
L 192.05396 -285.862873 
L 193.057488 -286.741608 
L 194.061015 -287.591147 
L 195.064542 -288.45999 
L 196.06807 -289.309082 
L 197.071597 -290.160422 
L 198.075125 -291.005011 
L 199.078652 -291.847184 
L 200.082179 -292.672327 
L 201.085707 -293.515375 
L 202.089234 -294.322861 
L 203.092762 -295.144186 
L 204.096289 -295.978099 
L 205.099816 -296.771232 
L 206.103344 -297.574011 
L 207.106871 -298.364524 
L 208.110398 -299.140164 
L 209.113926 -299.918997 
L 210.117453 -300.690312 
L 211.120981 -301.45996 
L 212.124508 -302.200286 
L 213.128035 -302.972214 
L 214.131563 -303.744013 
L 215.13509 -304.512516 
L 216.138618 -305.281045 
L 217.142145 -306.021055 
L 218.145672 -306.780462 
L 219.1492 -307.528092 
L 220.152727 -308.284406 
L 221.156255 -309.029607 
L 222.159782 -309.80019 
L 223.163309 -310.530165 
L 224.166837 -311.262961 
L 225.170364 -311.993597 
L 226.173892 -312.718509 
L 227.177419 -313.437522 
L 228.180946 -314.145157 
L 229.184474 -314.867731 
L 230.188001 -315.577018 
L 231.191529 -316.307263 
L 232.195056 -317.026528 
L 233.198583 -317.728401 
L 234.202111 -318.453301 
L 235.205638 -319.18009 
L 236.209166 -319.899352 
L 237.212693 -320.617322 
L 238.21622 -321.358595 
L 239.219748 -322.101978 
L 240.223275 -322.820796 
L 241.226803 -323.571057 
L 242.23033 -324.304866 
L 243.233857 -325.053457 
L 244.237385 -325.764537 
L 245.240912 -326.495978 
L 246.244439 -327.253133 
L 247.247967 -328.008088 
L 248.251494 -328.757469 
L 249.255022 -329.507644 
L 250.258549 -330.26916 
L 251.262076 -331.028174 
L 252.265604 -331.775376 
L 253.269131 -332.530921 
L 254.272659 -333.315187 
L 255.276186 -334.089674 
L 256.279713 -334.886814 
L 257.283241 -335.671584 
L 258.286768 -336.48511 
L 259.290296 -337.272852 
L 260.293823 -338.044749 
L 261.29735 -338.820376 
L 262.300878 -339.627609 
L 263.304405 -340.410663 
L 264.307933 -341.191012 
L 265.31146 -341.962001 
L 266.314987 -342.76031 
L 267.318515 -343.506793 
L 268.322042 -344.26814 
L 269.32557 -345.032277 
L 270.329097 -345.806818 
L 271.332624 -346.549482 
L 272.336152 -347.288765 
L 273.339679 -348.032188 
L 274.343207 -348.77614 
L 275.346734 -349.480772 
L 276.350261 -350.215961 
L 277.353789 -350.902595 
L 278.357316 -351.60111 
L 279.360844 -352.292459 
L 280.364371 -352.968801 
L 281.367898 -353.651772 
L 282.371426 -354.289528 
L 283.374953 -354.917311 
L 284.37848 -355.538692 
L 285.382008 -356.141411 
L 286.385535 -356.746143 
L 287.389063 -357.326336 
L 288.39259 -357.906036 
L 289.396117 -358.46303 
L 290.399645 -359.011016 
L 291.403172 -359.558152 
L 292.4067 -360.053387 
L 293.410227 -360.54218 
L 294.413754 -361.031716 
L 295.417282 -361.541129 
L 296.420809 -361.98696 
L 297.424337 -362.432 
L 298.427864 -362.888069 
L 299.431391 -363.323272 
L 300.434919 -363.722776 
L 301.438446 -364.119499 
L 302.441974 -364.509297 
L 303.445501 -364.898207 
L 304.449028 -365.264092 
L 305.452556 -365.671329 
L 306.456083 -366.044339 
L 307.459611 -366.407413 
L 308.463138 -366.775719 
L 309.466665 -367.106613 
L 310.470193 -367.421696 
L 311.47372 -367.738779 
L 312.477248 -368.044665 
L 313.480775 -368.315996 
L 314.484302 -368.599928 
L 315.48783 -368.894768 
L 316.491357 -369.181693 
L 317.494885 -369.453577 
L 318.498412 -369.729858 
L 319.501939 -369.986891 
L 320.505467 -370.22307 
L 321.508994 -370.451345 
L 322.512521 -370.676609 
L 323.516049 -370.882206 
L 324.519576 -371.089505 
L 325.523104 -371.292527 
L 326.526631 -371.491654 
L 327.530158 -371.682509 
L 328.533686 -371.859115 
L 329.537213 -372.012002 
L 330.540741 -372.157788 
L 331.544268 -372.312324 
L 332.547795 -372.455154 
L 333.551323 -372.560561 
L 334.55485 -372.685722 
L 335.558378 -372.77346 
L 336.561905 -372.877796 
L 337.565432 -372.968026 
L 338.56896 -373.068164 
L 339.572487 -373.161897 
L 340.576015 -373.224275 
L 341.579542 -373.278343 
L 342.583069 -373.342904 
L 343.586597 -373.383069 
L 344.590124 -373.44254 
L 345.593652 -373.473623 
L 346.597179 -373.482671 
L 347.600706 -373.504511 
L 348.604234 -373.513965 
L 349.607761 -373.532818 
L 350.611289 -373.556747 
L 351.614816 -373.546573 
L 352.618343 -373.557455 
L 353.621871 -373.550883 
L 354.625398 -373.536822 
L 355.628926 -373.505732 
L 356.632453 -373.494321 
L 357.63598 -373.474484 
L 358.639508 -373.446269 
L 359.643035 -373.402533 
L 360.646562 -373.331884 
L 361.65009 -373.292666 
L 362.653617 -373.245661 
L 363.657145 -373.188151 
L 364.660672 -373.118706 
L 365.664199 -373.052138 
L 366.667727 -372.958084 
L 367.671254 -372.8467 
L 368.674782 -372.750417 
L 369.678309 -372.637714 
L 370.681836 -372.49251 
L 371.685364 -372.341648 
L 372.688891 -372.171026 
L 373.692419 -371.991098 
L 374.695946 -371.810997 
L 375.699473 -371.592189 
L 376.703001 -371.358903 
L 377.706528 -371.109577 
L 378.710056 -370.807361 
L 379.713583 -370.533225 
L 380.71711 -370.230456 
L 381.720638 -369.892659 
L 382.724165 -369.544476 
L 383.727693 -369.152214 
L 384.73122 -368.757808 
L 385.734747 -368.313485 
L 386.738275 -367.837329 
L 387.741802 -367.341403 
L 388.74533 -366.800003 
L 389.748857 -366.215384 
L 390.752384 -365.604276 
L 391.755912 -364.986592 
L 392.759439 -364.334162 
L 393.762967 -363.649391 
L 394.766494 -362.915171 
L 395.770021 -362.162531 
L 396.773549 -361.400515 
L 397.777076 -360.578527 
L 398.780603 -359.752138 
L 399.784131 -358.889019 
L 400.787658 -358.030976 
L 401.791186 -357.106555 
L 402.794713 -356.14751 
L 403.79824 -355.172594 
L 404.801768 -354.189204 
L 405.805295 -353.185592 
L 406.808823 -352.14704 
L 407.81235 -351.099288 
L 408.815877 -350.05087 
L 409.819405 -348.967941 
L 410.822932 -347.873405 
L 411.82646 -346.766791 
L 412.829987 -345.629649 
L 413.833514 -344.48207 
L 414.837042 -343.335452 
L 415.840569 -342.196258 
L 416.844097 -341.052155 
L 417.847624 -339.898086 
L 418.851151 -338.712526 
L 419.854679 -337.56529 
L 420.858206 -336.399193 
L 421.861734 -335.220217 
L 422.865261 -334.024436 
L 423.868788 -332.866431 
L 424.872316 -331.691702 
L 425.875843 -330.519411 
L 426.879371 -329.350251 
L 427.882898 -328.174129 
L 428.886425 -327.019942 
L 429.889953 -325.866252 
L 430.89348 -324.704428 
L 431.897008 -323.56864 
L 432.900535 -322.417076 
L 433.904062 -321.276671 
L 434.90759 -320.143661 
L 435.911117 -319.000319 
L 436.914644 -317.870471 
L 437.918172 -316.730699 
L 438.921699 -315.608249 
L 439.925227 -314.51272 
L 440.928754 -313.427714 
L 441.932281 -312.355477 
L 442.935809 -311.248235 
L 443.939336 -310.155059 
L 444.942864 -309.075219 
L 445.946391 -308.000433 
L 446.949918 -306.914566 
L 447.953446 -305.811606 
L 448.956973 -304.728512 
L 449.960501 -303.648553 
L 450.964028 -302.553229 
L 451.967555 -301.456165 
L 452.971083 -300.37238 
L 453.97461 -299.284765 
L 454.978138 -298.189937 
L 455.981665 -297.084044 
L 456.985192 -295.995057 
L 457.98872 -294.931842 
L 458.992247 -293.850134 
L 459.995775 -292.751555 
L 460.999302 -291.651078 
L 462.002829 -290.526529 
L 463.006357 -289.41185 
L 464.009884 -288.318129 
L 465.013412 -287.206696 
L 466.016939 -286.093868 
L 467.020466 -284.982663 
L 468.023994 -283.875368 
L 469.027521 -282.755788 
L 470.031049 -281.640354 
L 471.034576 -280.524981 
L 472.038103 -279.397351 
L 473.041631 -278.278569 
L 474.045158 -277.165429 
L 475.048685 -276.038864 
L 476.052213 -274.902881 
L 477.05574 -273.801173 
L 478.059268 -272.697286 
L 479.062795 -271.570113 
L 480.066322 -270.443492 
L 481.06985 -269.309517 
L 482.073377 -268.186447 
L 483.076905 -267.056721 
L 484.080432 -265.925509 
L 485.083959 -264.782162 
L 486.087487 -263.671825 
L 487.091014 -262.557228 
L 488.094542 -261.445474 
L 489.098069 -260.339832 
L 490.101596 -259.225225 
L 491.105124 -258.11695 
L 492.108651 -257.013403 
L 493.112179 -255.882899 
L 494.115706 -254.772365 
L 495.119233 -253.659064 
L 496.122761 -252.560627 
L 497.126288 -251.460913 
L 498.129816 -250.379112 
L 499.133343 -249.273406 
L 500.13687 -248.192574 
L 501.140398 -247.083462 
L 502.143925 -246.011129 
L 503.147453 -244.925709 
L 504.15098 -243.827871 
L 505.154507 -242.743953 
L 506.158035 -241.664281 
L 507.161562 -240.589116 
L 508.165089 -239.537342 
L 509.168617 -238.474179 
L 510.172144 -237.426288 
L 511.175672 -236.387756 
L 512.179199 -235.355369 
L 513.182726 -234.311188 
L 514.186254 -233.268964 
L 515.189781 -232.276137 
L 516.193309 -231.275863 
L 517.196836 -230.304669 
L 518.200363 -229.32014 
L 519.203891 -228.329472 
L 520.207418 -227.359439 
L 521.210946 -226.41068 
L 522.214473 -225.467996 
L 523.218 -224.551059 
L 524.221528 -223.634839 
L 525.225055 -222.727664 
L 526.228583 -221.818356 
L 527.23211 -220.941742 
L 528.235637 -220.091425 
L 529.239165 -219.258901 
L 530.242692 -218.457261 
L 531.24622 -217.653065 
L 532.249747 -216.879023 
L 533.253274 -216.135213 
L 534.256802 -215.413132 
L 535.260329 -214.728496 
L 536.263857 -214.039002 
L 537.267384 -213.360953 
L 538.270911 -212.727645 
L 539.274439 -212.104533 
L 540.277966 -211.516874 
L 541.281494 -210.923164 
L 542.285021 -210.372395 
L 543.288548 -209.871554 
L 544.292076 -209.37278 
L 545.295603 -208.904262 
L 546.29913 -208.474842 
L 547.302658 -208.035742 
L 548.306185 -207.633293 
L 549.309713 -207.264453 
L 550.31324 -206.919018 
L 551.316767 -206.580694 
L 552.320295 -206.265679 
L 553.323822 -205.964282 
L 554.32735 -205.698593 
L 555.330877 -205.473093 
L 556.334404 -205.245193 
L 557.337932 -205.046115 
L 558.341459 -204.895045 
L 559.344987 -204.74948 
L 560.348514 -204.626112 
L 561.352041 -204.512326 
L 562.355569 -204.417368 
L 563.359096 -204.36722 
L 564.362624 -204.342521 
L 564.362624 -98.08908 
L 564.362624 -98.08908 
L 563.359096 -98.08908 
L 562.355569 -98.08908 
L 561.352041 -98.08908 
L 560.348514 -98.08908 
L 559.344987 -98.08908 
L 558.341459 -98.08908 
L 557.337932 -98.08908 
L 556.334404 -98.08908 
L 555.330877 -98.08908 
L 554.32735 -98.08908 
L 553.323822 -98.08908 
L 552.320295 -98.08908 
L 551.316767 -98.08908 
L 550.31324 -98.08908 
L 549.309713 -98.08908 
L 548.306185 -98.08908 
L 547.302658 -98.08908 
L 546.29913 -98.08908 
L 545.295603 -98.08908 
L 544.292076 -98.08908 
L 543.288548 -98.08908 
L 542.285021 -98.08908 
L 541.281494 -98.08908 
L 540.277966 -98.08908 
L 539.274439 -98.08908 
L 538.270911 -98.08908 
L 537.267384 -98.08908 
L 536.263857 -98.08908 
L 535.260329 -98.08908 
L 534.256802 -98.08908 
L 533.253274 -98.08908 
L 532.249747 -98.08908 
L 531.24622 -98.08908 
L 530.242692 -98.08908 
L 529.239165 -98.08908 
L 528.235637 -98.08908 
L 527.23211 -98.08908 
L 526.228583 -98.08908 
L 525.225055 -98.08908 
L 524.221528 -98.08908 
L 523.218 -98.08908 
L 522.214473 -98.08908 
L 521.210946 -98.08908 
L 520.207418 -98.08908 
L 519.203891 -98.08908 
L 518.200363 -98.08908 
L 517.196836 -98.08908 
L 516.193309 -98.08908 
L 515.189781 -98.08908 
L 514.186254 -98.08908 
L 513.182726 -98.08908 
L 512.179199 -98.08908 
L 511.175672 -98.08908 
L 510.172144 -98.08908 
L 509.168617 -98.08908 
L 508.165089 -98.08908 
L 507.161562 -98.08908 
L 506.158035 -98.08908 
L 505.154507 -98.08908 
L 504.15098 -98.08908 
L 503.147453 -98.08908 
L 502.143925 -98.08908 
L 501.140398 -98.08908 
L 500.13687 -98.08908 
L 499.133343 -98.08908 
L 498.129816 -98.08908 
L 497.126288 -98.08908 
L 496.122761 -98.08908 
L 495.119233 -98.08908 
L 494.115706 -98.08908 
L 493.112179 -98.08908 
L 492.108651 -98.08908 
L 491.105124 -98.08908 
L 490.101596 -98.08908 
L 489.098069 -98.08908 
L 488.094542 -98.08908 
L 487.091014 -98.08908 
L 486.087487 -98.08908 
L 485.083959 -98.08908 
L 484.080432 -98.08908 
L 483.076905 -98.08908 
L 482.073377 -98.08908 
L 481.06985 -98.08908 
L 480.066322 -98.08908 
L 479.062795 -98.08908 
L 478.059268 -98.08908 
L 477.05574 -98.08908 
L 476.052213 -98.08908 
L 475.048685 -98.08908 
L 474.045158 -98.08908 
L 473.041631 -98.08908 
L 472.038103 -98.08908 
L 471.034576 -98.08908 
L 470.031049 -98.08908 
L 469.027521 -98.08908 
L 468.023994 -98.08908 
L 467.020466 -98.08908 
L 466.016939 -98.08908 
L 465.013412 -98.08908 
L 464.009884 -98.08908 
L 463.006357 -98.08908 
L 462.002829 -98.08908 
L 460.999302 -98.08908 
L 459.995775 -98.08908 
L 458.992247 -98.08908 
L 457.98872 -98.08908 
L 456.985192 -98.08908 
L 455.981665 -98.08908 
L 454.978138 -98.08908 
L 453.97461 -98.08908 
L 452.971083 -98.08908 
L 451.967555 -98.08908 
L 450.964028 -98.08908 
L 449.960501 -98.08908 
L 448.956973 -98.08908 
L 447.953446 -98.08908 
L 446.949918 -98.08908 
L 445.946391 -98.08908 
L 444.942864 -98.08908 
L 443.939336 -98.08908 
L 442.935809 -98.08908 
L 441.932281 -98.08908 
L 440.928754 -98.08908 
L 439.925227 -98.08908 
L 438.921699 -98.08908 
L 437.918172 -98.08908 
L 436.914644 -98.08908 
L 435.911117 -98.08908 
L 434.90759 -98.08908 
L 433.904062 -98.08908 
L 432.900535 -98.08908 
L 431.897008 -98.08908 
L 430.89348 -98.08908 
L 429.889953 -98.08908 
L 428.886425 -98.08908 
L 427.882898 -98.08908 
L 426.879371 -98.08908 
L 425.875843 -98.08908 
L 424.872316 -98.08908 
L 423.868788 -98.08908 
L 422.865261 -98.08908 
L 421.861734 -98.08908 
L 420.858206 -98.08908 
L 419.854679 -98.08908 
L 418.851151 -98.08908 
L 417.847624 -98.08908 
L 416.844097 -98.08908 
L 415.840569 -98.08908 
L 414.837042 -98.08908 
L 413.833514 -98.08908 
L 412.829987 -98.08908 
L 411.82646 -98.08908 
L 410.822932 -98.08908 
L 409.819405 -98.08908 
L 408.815877 -98.08908 
L 407.81235 -98.08908 
L 406.808823 -98.08908 
L 405.805295 -98.08908 
L 404.801768 -98.08908 
L 403.79824 -98.08908 
L 402.794713 -98.08908 
L 401.791186 -98.08908 
L 400.787658 -98.08908 
L 399.784131 -98.08908 
L 398.780603 -98.08908 
L 397.777076 -98.08908 
L 396.773549 -98.08908 
L 395.770021 -98.08908 
L 394.766494 -98.08908 
L 393.762967 -98.08908 
L 392.759439 -98.08908 
L 391.755912 -98.08908 
L 390.752384 -98.08908 
L 389.748857 -98.08908 
L 388.74533 -98.08908 
L 387.741802 -98.08908 
L 386.738275 -98.08908 
L 385.734747 -98.08908 
L 384.73122 -98.08908 
L 383.727693 -98.08908 
L 382.724165 -98.08908 
L 381.720638 -98.08908 
L 380.71711 -98.08908 
L 379.713583 -98.08908 
L 378.710056 -98.08908 
L 377.706528 -98.08908 
L 376.703001 -98.08908 
L 375.699473 -98.08908 
L 374.695946 -98.08908 
L 373.692419 -98.08908 
L 372.688891 -98.08908 
L 371.685364 -98.08908 
L 370.681836 -98.08908 
L 369.678309 -98.08908 
L 368.674782 -98.08908 
L 367.671254 -98.08908 
L 366.667727 -98.08908 
L 365.664199 -98.08908 
L 364.660672 -98.08908 
L 363.657145 -98.08908 
L 362.653617 -98.08908 
L 361.65009 -98.08908 
L 360.646562 -98.08908 
L 359.643035 -98.08908 
L 358.639508 -98.08908 
L 357.63598 -98.08908 
L 356.632453 -98.08908 
L 355.628926 -98.08908 
L 354.625398 -98.08908 
L 353.621871 -98.08908 
L 352.618343 -98.08908 
L 351.614816 -98.08908 
L 350.611289 -98.08908 
L 349.607761 -98.08908 
L 348.604234 -98.08908 
L 347.600706 -98.08908 
L 346.597179 -98.08908 
L 345.593652 -98.08908 
L 344.590124 -98.08908 
L 343.586597 -98.08908 
L 342.583069 -98.08908 
L 341.579542 -98.08908 
L 340.576015 -98.08908 
L 339.572487 -98.08908 
L 338.56896 -98.08908 
L 337.565432 -98.08908 
L 336.561905 -98.08908 
L 335.558378 -98.08908 
L 334.55485 -98.08908 
L 333.551323 -98.08908 
L 332.547795 -98.08908 
L 331.544268 -98.08908 
L 330.540741 -98.08908 
L 329.537213 -98.08908 
L 328.533686 -98.08908 
L 327.530158 -98.08908 
L 326.526631 -98.08908 
L 325.523104 -98.08908 
L 324.519576 -98.08908 
L 323.516049 -98.08908 
L 322.512521 -98.08908 
L 321.508994 -98.08908 
L 320.505467 -98.08908 
L 319.501939 -98.08908 
L 318.498412 -98.08908 
L 317.494885 -98.08908 
L 316.491357 -98.08908 
L 315.48783 -98.08908 
L 314.484302 -98.08908 
L 313.480775 -98.08908 
L 312.477248 -98.08908 
L 311.47372 -98.08908 
L 310.470193 -98.08908 
L 309.466665 -98.08908 
L 308.463138 -98.08908 
L 307.459611 -98.08908 
L 306.456083 -98.08908 
L 305.452556 -98.08908 
L 304.449028 -98.08908 
L 303.445501 -98.08908 
L 302.441974 -98.08908 
L 301.438446 -98.08908 
L 300.434919 -98.08908 
L 299.431391 -98.08908 
L 298.427864 -98.08908 
L 297.424337 -98.08908 
L 296.420809 -98.08908 
L 295.417282 -98.08908 
L 294.413754 -98.08908 
L 293.410227 -98.08908 
L 292.4067 -98.08908 
L 291.403172 -98.08908 
L 290.399645 -98.08908 
L 289.396117 -98.08908 
L 288.39259 -98.08908 
L 287.389063 -98.08908 
L 286.385535 -98.08908 
L 285.382008 -98.08908 
L 284.37848 -98.08908 
L 283.374953 -98.08908 
L 282.371426 -98.08908 
L 281.367898 -98.08908 
L 280.364371 -98.08908 
L 279.360844 -98.08908 
L 278.357316 -98.08908 
L 277.353789 -98.08908 
L 276.350261 -98.08908 
L 275.346734 -98.08908 
L 274.343207 -98.08908 
L 273.339679 -98.08908 
L 272.336152 -98.08908 
L 271.332624 -98.08908 
L 270.329097 -98.08908 
L 269.32557 -98.08908 
L 268.322042 -98.08908 
L 267.318515 -98.08908 
L 266.314987 -98.08908 
L 265.31146 -98.08908 
L 264.307933 -98.08908 
L 263.304405 -98.08908 
L 262.300878 -98.08908 
L 261.29735 -98.08908 
L 260.293823 -98.08908 
L 259.290296 -98.08908 
L 258.286768 -98.08908 
L 257.283241 -98.08908 
L 256.279713 -98.08908 
L 255.276186 -98.08908 
L 254.272659 -98.08908 
L 253.269131 -98.08908 
L 252.265604 -98.08908 
L 251.262076 -98.08908 
L 250.258549 -98.08908 
L 249.255022 -98.08908 
L 248.251494 -98.08908 
L 247.247967 -98.08908 
L 246.244439 -98.08908 
L 245.240912 -98.08908 
L 244.237385 -98.08908 
L 243.233857 -98.08908 
L 242.23033 -98.08908 
L 241.226803 -98.08908 
L 240.223275 -98.08908 
L 239.219748 -98.08908 
L 238.21622 -98.08908 
L 237.212693 -98.08908 
L 236.209166 -98.08908 
L 235.205638 -98.08908 
L 234.202111 -98.08908 
L 233.198583 -98.08908 
L 232.195056 -98.08908 
L 231.191529 -98.08908 
L 230.188001 -98.08908 
L 229.184474 -98.08908 
L 228.180946 -98.08908 
L 227.177419 -98.08908 
L 226.173892 -98.08908 
L 225.170364 -98.08908 
L 224.166837 -98.08908 
L 223.163309 -98.08908 
L 222.159782 -98.08908 
L 221.156255 -98.08908 
L 220.152727 -98.08908 
L 219.1492 -98.08908 
L 218.145672 -98.08908 
L 217.142145 -98.08908 
L 216.138618 -98.08908 
L 215.13509 -98.08908 
L 214.131563 -98.08908 
L 213.128035 -98.08908 
L 212.124508 -98.08908 
L 211.120981 -98.08908 
L 210.117453 -98.08908 
L 209.113926 -98.08908 
L 208.110398 -98.08908 
L 207.106871 -98.08908 
L 206.103344 -98.08908 
L 205.099816 -98.08908 
L 204.096289 -98.08908 
L 203.092762 -98.08908 
L 202.089234 -98.08908 
L 201.085707 -98.08908 
L 200.082179 -98.08908 
L 199.078652 -98.08908 
L 198.075125 -98.08908 
L 197.071597 -98.08908 
L 196.06807 -98.08908 
L 195.064542 -98.08908 
L 194.061015 -98.08908 
L 193.057488 -98.08908 
L 192.05396 -98.08908 
L 191.050433 -98.08908 
L 190.046905 -98.08908 
L 189.043378 -98.08908 
L 188.039851 -98.08908 
L 187.036323 -98.08908 
L 186.032796 -98.08908 
L 185.029268 -98.08908 
L 184.025741 -98.08908 
L 183.022214 -98.08908 
L 182.018686 -98.08908 
L 181.015159 -98.08908 
L 180.011631 -98.08908 
L 179.008104 -98.08908 
L 178.004577 -98.08908 
L 177.001049 -98.08908 
L 175.997522 -98.08908 
L 174.993994 -98.08908 
L 173.990467 -98.08908 
L 172.98694 -98.08908 
L 171.983412 -98.08908 
L 170.979885 -98.08908 
L 169.976358 -98.08908 
L 168.97283 -98.08908 
L 167.969303 -98.08908 
L 166.965775 -98.08908 
L 165.962248 -98.08908 
L 164.958721 -98.08908 
L 163.955193 -98.08908 
L 162.951666 -98.08908 
L 161.948138 -98.08908 
L 160.944611 -98.08908 
L 159.941084 -98.08908 
L 158.937556 -98.08908 
L 157.934029 -98.08908 
L 156.930501 -98.08908 
L 155.926974 -98.08908 
L 154.923447 -98.08908 
L 153.919919 -98.08908 
L 152.916392 -98.08908 
L 151.912864 -98.08908 
L 150.909337 -98.08908 
L 149.90581 -98.08908 
L 148.902282 -98.08908 
L 147.898755 -98.08908 
L 146.895227 -98.08908 
L 145.8917 -98.08908 
L 144.888173 -98.08908 
L 143.884645 -98.08908 
L 142.881118 -98.08908 
L 141.87759 -98.08908 
L 140.874063 -98.08908 
L 139.870536 -98.08908 
L 138.867008 -98.08908 
L 137.863481 -98.08908 
L 136.859953 -98.08908 
L 135.856426 -98.08908 
L 134.852899 -98.08908 
L 133.849371 -98.08908 
L 132.845844 -98.08908 
L 131.842317 -98.08908 
L 130.838789 -98.08908 
L 129.835262 -98.08908 
L 128.831734 -98.08908 
L 127.828207 -98.08908 
L 126.82468 -98.08908 
L 125.821152 -98.08908 
L 124.817625 -98.08908 
L 123.814097 -98.08908 
L 122.81057 -98.08908 
L 121.807043 -98.08908 
L 120.803515 -98.08908 
L 119.799988 -98.08908 
L 118.79646 -98.08908 
L 117.792933 -98.08908 
L 116.789406 -98.08908 
L 115.785878 -98.08908 
L 114.782351 -98.08908 
L 113.778823 -98.08908 
L 112.775296 -98.08908 
L 111.771769 -98.08908 
L 110.768241 -98.08908 
L 109.764714 -98.08908 
L 108.761186 -98.08908 
L 107.757659 -98.08908 
L 106.754132 -98.08908 
L 105.750604 -98.08908 
L 104.747077 -98.08908 
L 103.743549 -98.08908 
L 102.740022 -98.08908 
L 101.736495 -98.08908 
L 100.732967 -98.08908 
L 99.72944 -98.08908 
L 98.725912 -98.08908 
L 97.722385 -98.08908 
L 96.718858 -98.08908 
L 95.71533 -98.08908 
L 94.711803 -98.08908 
L 93.708276 -98.08908 
L 92.704748 -98.08908 
L 91.701221 -98.08908 
L 90.697693 -98.08908 
L 89.694166 -98.08908 
L 88.690639 -98.08908 
L 87.687111 -98.08908 
L 86.683584 -98.08908 
L 85.680056 -98.08908 
L 84.676529 -98.08908 
L 83.673002 -98.08908 
L 82.669474 -98.08908 
L 81.665947 -98.08908 
L 80.662419 -98.08908 
L 79.658892 -98.08908 
L 78.655365 -98.08908 
L 77.651837 -98.08908 
L 76.64831 -98.08908 
L 75.644782 -98.08908 
L 74.641255 -98.08908 
L 73.637728 -98.08908 
L 72.6342 -98.08908 
L 71.630673 -98.08908 
L 70.627145 -98.08908 
L 69.623618 -98.08908 
L 68.620091 -98.08908 
L 67.616563 -98.08908 
L 66.613036 -98.08908 
L 65.609508 -98.08908 
L 64.605981 -98.08908 
L 63.602454 -98.08908 
L 62.598926 -98.08908 
L 61.595399 -98.08908 
L 60.591871 -98.08908 
L 59.588344 -98.08908 
L 58.584817 -98.08908 
L 57.581289 -98.08908 
L 56.577762 -98.08908 
L 55.574235 -98.08908 
L 54.570707 -98.08908 
L 53.56718 -98.08908 
L 52.563652 -98.08908 
L 51.560125 -98.08908 
z
" style="stroke: #d62728; stroke-opacity: 0.35; stroke-width: 0.3"/>
    </defs>
    <g clip-path="url(#pf5814af3e1)">
     <use xlink:href="#m5b3f669731" x="0" y="504" style="fill: #d62728; fill-opacity: 0.35; stroke: #d62728; stroke-opacity: 0.35; stroke-width: 0.3"/>
    </g>
   </g>
   <g id="line2d_5">
    <path d="M 51.560125 321.282728 
L 55.574235 321.258137 
L 63.602454 321.025046 
L 69.623618 320.589115 
L 73.637728 320.051112 
L 76.64831 319.52085 
L 81.665947 318.302431 
L 84.676529 317.354992 
L 87.687111 316.243061 
L 91.701221 314.420482 
L 94.711803 312.824104 
L 99.72944 309.713087 
L 103.743549 306.878211 
L 108.761186 302.910517 
L 111.771769 300.320812 
L 117.792933 294.801538 
L 124.817625 287.863854 
L 135.856426 276.23651 
L 164.958721 244.515953 
L 171.983412 237.203217 
L 180.011631 229.192685 
L 188.039851 221.740121 
L 195.064542 215.54001 
L 204.096289 208.021901 
L 212.124508 201.799714 
L 222.159782 194.19981 
L 253.269131 171.469079 
L 271.332624 157.450518 
L 278.357316 152.39889 
L 282.371426 149.710472 
L 287.389063 146.673664 
L 291.403172 144.441848 
L 297.424337 141.568 
L 300.434919 140.277224 
L 307.459611 137.592587 
L 310.470193 136.578304 
L 315.48783 135.105232 
L 320.505467 133.77693 
L 326.526631 132.508346 
L 330.540741 131.842212 
L 334.55485 131.314278 
L 343.586597 130.616931 
L 346.597179 130.517329 
L 353.621871 130.449117 
L 359.643035 130.597467 
L 369.678309 131.362286 
L 374.695946 132.189003 
L 377.706528 132.890423 
L 382.724165 134.455524 
L 385.734747 135.686515 
L 388.74533 137.199997 
L 392.759439 139.665838 
L 395.770021 141.837469 
L 398.780603 144.247862 
L 401.791186 146.893445 
L 405.805295 150.814408 
L 410.822932 156.126595 
L 415.840569 161.803742 
L 422.865261 169.975564 
L 438.921699 188.391751 
L 475.048685 227.961136 
L 487.091014 241.442772 
L 503.147453 259.074291 
L 509.168617 265.525821 
L 516.193309 272.724137 
L 524.221528 280.365161 
L 528.235637 283.908575 
L 532.249747 287.120977 
L 536.263857 289.960998 
L 539.274439 291.895467 
L 543.288548 294.128446 
L 546.29913 295.525158 
L 549.309713 296.735547 
L 553.323822 298.035718 
L 556.334404 298.754807 
L 559.344987 299.25052 
L 563.359096 299.63278 
L 564.362624 299.657479 
L 564.362624 299.657479 
" clip-path="url(#pf5814af3e1)" style="fill: none; stroke: #d62728; stroke-width: 2; stroke-linecap: round"/>
   </g>
   <g id="line2d_6">
    <path d="M 51.560125 406.757202 
L 51.560125 321.282728 
" clip-path="url(#pf5814af3e1)" style="fill: none; stroke: #d62728; stroke-width: 2; stroke-linecap: round"/>
   </g>
   <g id="line2d_7">
    <path d="M 564.362624 406.973455 
L 564.362624 299.657479 
" clip-path="url(#pf5814af3e1)" style="fill: none; stroke: #d62728; stroke-width: 2; stroke-linecap: round"/>
   </g>
   <g id="line2d_8">
    <defs>
     <path id="md4da384a15" d="M 0 3.5 
C 0.928211 3.5 1.81853 3.131218 2.474874 2.474874 
C 3.131218 1.81853 3.5 0.928211 3.5 0 
C 3.5 -0.928211 3.131218 -1.81853 2.474874 -2.474874 
C 1.81853 -3.131218 0.928211 -3.5 0 -3.5 
C -0.928211 -3.5 -1.81853 -3.131218 -2.474874 -2.474874 
C -3.131218 -1.81853 -3.5 -0.928211 -3.5 0 
C -3.5 0.928211 -3.131218 1.81853 -2.474874 2.474874 
C -1.81853 3.131218 -0.928211 3.5 0 3.5 
z
"/>
    </defs>
    <g clip-path="url(#pf5814af3e1)">
     <use xlink:href="#md4da384a15" x="325.014802" y="405.91092" style="fill: #d62728"/>
    </g>
   </g>
   <g id="patch_3">
    <path d="M 25.92 420.8 
L 590.002749 420.8 
" style="fill: none; stroke: #333333; stroke-width: 1.5; stroke-linejoin: miter; stroke-linecap: square"/>
   </g>
   <g id="text_3">
    <!-- $x_3^3$ -->
    <g style="fill: #262626" transform="translate(265.781374 94.576)">
     <text>
      <tspan x="0" y="-0.421875" style="font-style: oblique; font-size: 76px; font-family: 'DejaVu Sans'; fill: #262626">x</tspan>
      <tspan x="44.976562" y="20.359375" style="font-size: 53.2px; font-family: 'DejaVu Sans'; fill: #262626">3</tspan>
      <tspan x="48.370833" y="-29.515625" style="font-size: 53.2px; font-family: 'DejaVu Sans'; fill: #262626">3</tspan>
     </text>
    </g>
   </g>
  </g>
 </g>
 <defs>
  <clipPath id="pf5814af3e1">
   <rect x="25.92" y="116.616" width="564.082749" height="304.184"/>
  </clipPath>
 </defs>
</svg>
