<?xml version="1.0" encoding="utf-8" standalone="no"?>
<!DOCTYPE svg PUBLIC "-//W3C//DTD SVG 1.1//EN"
  "http://www.w3.org/Graphics/SVG/1.1/DTD/svg11.dtd">
<svg xmlns:xlink="http://www.w3.org/1999/xlink" width="576pt" height="432pt" viewBox="0 0 576 432" xmlns="http://www.w3.org/2000/svg" version="1.1">
 <metadata>
  <rdf:RDF xmlns:dc="http://purl.org/dc/elements/1.1/" xmlns:cc="http://creativecommons.org/ns#" xmlns:rdf="http://www.w3.org/1999/02/22-rdf-syntax-ns#">
   <cc:Work>
    <dc:type rdf:resource="http://purl.org/dc/dcmitype/StillImage"/>
    <dc:date>2025-09-22T22:40:52.947460</dc:date>
    <dc:format>image/svg+xml</dc:format>
    <dc:creator>
     <cc:Agent>
      <dc:title>Matplotlib v3.10.0, https://matplotlib.org/</dc:title>
     </cc:Agent>
    </dc:creator>
   </cc:Work>
  </rdf:RDF>
 </metadata>
 <defs>
  <style type="text/css">*{stroke-linejoin: round; stroke-linecap: butt}</style>
 </defs>
 <g id="figure_1">
  <g id="patch_1">
   <path d="M 0 432 
L 576 432 
L 576 0 
L 0 0 
L 0 432 
z
" style="fill: none; opacity: 0"/>
  </g>
  <g id="axes_1">
   <g id="patch_2">
    <path d="M 23.76 381.9125 
L 552.24 381.9125 
L 552.24 52.8 
L 23.76 52.8 
L 23.76 381.9125 
z
" style="fill: none"/>
   </g>
   <g id="matplotlib.axis_1">
    <g id="xtick_1">
     <g id="line2d_1">
      <path d="M 78.353122 381.9125 
L 78.353122 52.8 
" clip-path="url(#p25e8f67a81)" style="fill: none; stroke: #cccccc; stroke-opacity: 0.4; stroke-linecap: round"/>
     </g>
     <g id="line2d_2"/>
     <g id="text_1">
      <text style="font-size: 20px; font-family: 'DejaVu Serif', 'Times New Roman', serif; text-anchor: middle; fill: #262626" x="78.353122" y="404.109375" transform="rotate(-0 78.353122 404.109375)">0.62</text>
     </g>
    </g>
    <g id="xtick_2">
     <g id="line2d_3">
      <path d="M 162.900679 381.9125 
L 162.900679 52.8 
" clip-path="url(#p25e8f67a81)" style="fill: none; stroke: #cccccc; stroke-opacity: 0.4; stroke-linecap: round"/>
     </g>
     <g id="line2d_4"/>
     <g id="text_2">
      <text style="font-size: 20px; font-family: 'DejaVu Serif', 'Times New Roman', serif; text-anchor: middle; fill: #262626" x="162.900679" y="404.109375" transform="rotate(-0 162.900679 404.109375)">0.63</text>
     </g>
    </g>
    <g id="xtick_3">
     <g id="line2d_5">
      <path d="M 247.448236 381.9125 
L 247.448236 52.8 
" clip-path="url(#p25e8f67a81)" style="fill: none; stroke: #cccccc; stroke-opacity: 0.4; stroke-linecap: round"/>
     </g>
     <g id="line2d_6"/>
     <g id="text_3">
      <text style="font-size: 20px; font-family: 'DejaVu Serif', 'Times New Roman', serif; text-anchor: middle; fill: #262626" x="247.448236" y="404.109375" transform="rotate(-0 247.448236 404.109375)">0.64</text>
     </g>
    </g>
    <g id="xtick_4">
     <g id="line2d_7">
      <path d="M 331.995794 381.9125 
L 331.995794 52.8 
" clip-path="url(#p25e8f67a81)" style="fill: none; stroke: #cccccc; stroke-opacity: 0.4; stroke-linecap: round"/>
     </g>
     <g id="line2d_8"/>
     <g id="text_4">
      <text style="font-size: 20px; font-family: 'DejaVu Serif', 'Times New Roman', serif; text-anchor: middle; fill: #262626" x="331.995794" y="404.109375" transform="rotate(-0 331.995794 404.109375)">0.65</text>
     </g>
    </g>
    <g id="xtick_5">
     <g id="line2d_9">
      <path d="M 416.543351 381.9125 
L 416.543351 52.8 
" clip-path="url(#p25e8f67a81)" style="fill: none; stroke: #cccccc; stroke-opacity: 0.4; stroke-linecap: round"/>
     </g>
     <g id="line2d_10"/>
     <g id="text_5">
      <text style="font-size: 20px; font-family: 'DejaVu Serif', 'Times New Roman', serif; text-anchor: middle; fill: #262626" x="416.543351" y="404.109375" transform="rotate(-0 416.543351 404.109375)">0.66</text>
     </g>
    </g>
    <g id="xtick_6">
     <g id="line2d_11">
      <path d="M 501.090908 381.9125 
L 501.090908 52.8 
" clip-path="url(#p25e8f67a81)" style="fill: none; stroke: #cccccc; stroke-opacity: 0.4; stroke-linecap: round"/>
     </g>
     <g id="line2d_12"/>
     <g id="text_6">
      <text style="font-size: 20px; font-family: 'DejaVu Serif', 'Times New Roman', serif; text-anchor: middle; fill: #262626" x="501.090908" y="404.109375" transform="rotate(-0 501.090908 404.109375)">0.67</text>
     </g>
    </g>
   </g>
   <g id="matplotlib.axis_2">
    <g id="ytick_1">
     <g id="line2d_13">
      <path d="M 23.76 368.6816 
L 552.24 368.6816 
" clip-path="url(#p25e8f67a81)" style="fill: none; stroke: #cccccc; stroke-opacity: 0.4; stroke-linecap: round"/>
     </g>
    </g>
    <g id="ytick_2">
     <g id="line2d_14">
      <path d="M 23.76 311.173861 
L 552.24 311.173861 
" clip-path="url(#p25e8f67a81)" style="fill: none; stroke: #cccccc; stroke-opacity: 0.4; stroke-linecap: round"/>
     </g>
    </g>
    <g id="ytick_3">
     <g id="line2d_15">
      <path d="M 23.76 253.666122 
L 552.24 253.666122 
" clip-path="url(#p25e8f67a81)" style="fill: none; stroke: #cccccc; stroke-opacity: 0.4; stroke-linecap: round"/>
     </g>
    </g>
    <g id="ytick_4">
     <g id="line2d_16">
      <path d="M 23.76 196.158382 
L 552.24 196.158382 
" clip-path="url(#p25e8f67a81)" style="fill: none; stroke: #cccccc; stroke-opacity: 0.4; stroke-linecap: round"/>
     </g>
    </g>
    <g id="ytick_5">
     <g id="line2d_17">
      <path d="M 23.76 138.650643 
L 552.24 138.650643 
" clip-path="url(#p25e8f67a81)" style="fill: none; stroke: #cccccc; stroke-opacity: 0.4; stroke-linecap: round"/>
     </g>
    </g>
    <g id="ytick_6">
     <g id="line2d_18">
      <path d="M 23.76 81.142904 
L 552.24 81.142904 
" clip-path="url(#p25e8f67a81)" style="fill: none; stroke: #cccccc; stroke-opacity: 0.4; stroke-linecap: round"/>
     </g>
    </g>
   </g>
   <g id="line2d_19">
    <path d="M 69.063975 365.565059 
L 76.964017 365.451985 
L 83.28405 365.150518 
L 88.81408 364.661689 
L 95.134113 363.795739 
L 99.874138 362.938892 
L 105.404168 361.78078 
L 110.144193 360.652766 
L 114.884218 359.408063 
L 120.414247 357.662795 
L 125.154273 355.754847 
L 129.104294 353.779559 
L 131.474306 352.402253 
L 134.634323 350.267484 
L 137.79434 347.801858 
L 140.954356 344.997752 
L 144.114373 341.919413 
L 147.27439 338.52993 
L 150.434407 334.909495 
L 155.174432 329.112987 
L 160.704461 322.206992 
L 168.604503 312.548336 
L 186.7746 291.185204 
L 189.934616 286.922881 
L 193.094633 282.252727 
L 195.464646 278.39518 
L 198.624663 272.790855 
L 200.994675 268.205872 
L 204.154692 261.710049 
L 207.314709 254.802333 
L 211.26473 245.637924 
L 218.374767 228.245299 
L 223.904797 214.634552 
L 230.22483 199.56623 
L 236.544864 185.062726 
L 245.23491 165.890066 
L 253.134952 149.120642 
L 259.454985 136.314356 
L 263.405006 128.818161 
L 266.565023 123.221655 
L 270.515044 116.766145 
L 273.675061 112.251453 
L 276.045073 109.218912 
L 278.415086 106.684488 
L 281.575103 103.78942 
L 283.155111 102.640994 
L 286.315128 100.913761 
L 287.895136 100.315614 
L 289.475145 99.909512 
L 291.845157 99.586975 
L 295.005174 99.605772 
L 297.375187 100.019268 
L 299.745199 100.61478 
L 302.905216 101.807944 
L 306.065233 103.312892 
L 308.435245 104.72195 
L 311.595262 106.773915 
L 314.755279 109.233058 
L 317.915296 111.957732 
L 320.285308 114.31093 
L 322.655321 116.985093 
L 324.235329 118.866802 
L 328.18535 124.142844 
L 331.345367 128.934643 
L 334.505384 134.077101 
L 339.245409 142.529415 
L 342.405426 148.406561 
L 350.305468 163.83883 
L 360.575522 183.672573 
L 366.895556 195.642079 
L 376.375606 213.841639 
L 381.115631 223.372465 
L 385.855656 233.396809 
L 392.17569 247.179138 
L 397.705719 259.393996 
L 401.65574 267.83114 
L 407.185769 278.958722 
L 411.13579 286.170848 
L 414.295807 291.440283 
L 417.455824 296.32528 
L 420.615841 300.803573 
L 423.775858 304.960375 
L 427.725878 309.731553 
L 432.465904 314.998522 
L 436.415925 318.997651 
L 441.15595 323.422795 
L 445.105971 326.764541 
L 450.636 330.893098 
L 453.796017 332.953008 
L 456.956034 334.732752 
L 459.326046 335.928855 
L 461.696059 336.96577 
L 464.856076 338.062009 
L 467.226088 338.666064 
L 469.596101 339.090696 
L 471.966113 339.305439 
L 472.756117 339.324653 
L 472.756117 339.324653 
" clip-path="url(#p25e8f67a81)" style="fill: none; stroke: #7570b3; stroke-width: 0.875; stroke-linecap: round"/>
   </g>
   <g id="line2d_20">
    <path d="M 92.553232 360.369147 
L 99.858686 360.258379 
L 105.540705 360.005649 
L 111.222724 359.443502 
L 115.28131 358.834541 
L 119.339895 358.012849 
L 123.39848 357.013267 
L 128.268783 355.542641 
L 135.574236 352.829683 
L 138.821104 351.457219 
L 143.691406 349.128999 
L 146.938275 347.36767 
L 150.185143 345.383547 
L 153.432011 343.061711 
L 155.867162 341.057814 
L 158.302313 338.875906 
L 161.549182 335.471481 
L 163.984333 332.544748 
L 166.419484 329.27658 
L 168.854635 325.662978 
L 172.101503 320.378004 
L 175.348371 314.673973 
L 179.406957 307.031882 
L 184.277259 297.344731 
L 195.641298 274.778125 
L 200.5116 265.707039 
L 206.193619 255.673279 
L 211.063922 247.318895 
L 215.122507 240.406354 
L 219.992809 231.637138 
L 223.239677 225.187601 
L 225.674829 219.95538 
L 228.10998 214.175582 
L 230.545131 207.982616 
L 233.791999 198.828669 
L 237.038867 188.892712 
L 240.285736 178.340497 
L 247.591189 153.368342 
L 251.649774 139.841212 
L 254.896642 129.695915 
L 258.143511 120.209006 
L 261.390379 111.626315 
L 263.82553 105.875881 
L 266.260681 100.665156 
L 268.695832 96.052816 
L 271.130983 91.87381 
L 273.566135 88.141666 
L 276.001286 85.019158 
L 278.436437 82.26818 
L 280.871588 79.915968 
L 282.495022 78.519283 
L 286.553607 75.451814 
L 288.988759 73.941566 
L 292.235627 72.077661 
L 296.294212 69.995742 
L 298.729363 68.993388 
L 300.352797 68.464178 
L 302.787948 67.914605 
L 304.411383 67.759659 
L 306.034817 67.803155 
L 307.658251 68.17228 
L 309.281685 68.841032 
L 310.905119 69.773081 
L 312.528553 71.070878 
L 314.151987 72.764266 
L 315.775421 74.872542 
L 317.398855 77.264703 
L 319.022289 80.100088 
L 320.645724 83.273176 
L 322.269158 86.821701 
L 324.704309 92.779798 
L 327.13946 99.400645 
L 330.386328 108.796738 
L 338.503499 133.786133 
L 343.373801 148.559453 
L 347.432386 160.22115 
L 352.302689 173.467823 
L 357.984708 188.016863 
L 363.666727 201.70317 
L 368.53703 212.727069 
L 373.407332 223.413454 
L 380.712785 238.839365 
L 399.382277 278.981475 
L 405.876014 292.186834 
L 409.122882 298.267762 
L 412.36975 303.959209 
L 415.616619 309.294239 
L 418.863487 314.255789 
L 422.110355 318.838566 
L 426.16894 324.071192 
L 430.227525 328.799068 
L 432.662677 331.376193 
L 435.909545 334.505027 
L 439.156413 337.258619 
L 442.403281 339.680009 
L 444.838432 341.348422 
L 449.708735 344.381278 
L 458.637622 349.430502 
L 466.754793 354.035363 
L 473.248529 357.576148 
L 477.307114 359.517853 
L 481.3657 361.157192 
L 484.612568 362.221892 
L 487.047719 362.889021 
L 490.294587 363.574879 
L 493.541455 364.08275 
L 495.976607 364.341899 
L 500.846909 364.63603 
L 507.340645 364.779917 
L 507.340645 364.779917 
" clip-path="url(#p25e8f67a81)" style="fill: none; stroke-dasharray: 0.875,1.44375; stroke-dashoffset: 0; stroke: #7570b3; stroke-width: 0.875"/>
   </g>
   <g id="line2d_21">
    <path d="M 85.01721 364.47826 
L 89.353814 364.3704 
L 95.425061 363.949191 
L 99.761665 363.424101 
L 104.96559 362.522845 
L 110.169516 361.364155 
L 114.50612 360.186311 
L 123.179329 357.571871 
L 128.383254 355.81888 
L 133.587179 353.91423 
L 139.658426 351.294962 
L 143.127709 349.532155 
L 146.596993 347.458422 
L 149.198955 345.697386 
L 151.800918 343.682836 
L 154.402881 341.411372 
L 157.004843 338.798731 
L 159.606806 335.876709 
L 162.208769 332.554452 
L 164.810731 328.90371 
L 167.412694 324.821326 
L 170.014657 320.33354 
L 172.616619 315.431692 
L 175.218582 310.13 
L 178.687865 302.524032 
L 182.157149 294.282398 
L 186.493753 283.387025 
L 192.565 267.075252 
L 202.105529 240.340194 
L 210.778738 216.206352 
L 215.982663 202.429451 
L 219.451947 193.890471 
L 222.921231 185.913392 
L 225.523193 180.359842 
L 228.125156 175.230288 
L 231.594439 168.974516 
L 234.196402 164.783655 
L 236.798365 160.943069 
L 239.400327 157.408195 
L 242.00229 154.259643 
L 245.471574 150.437907 
L 248.940857 146.863575 
L 252.410141 143.45986 
L 261.083349 134.923411 
L 268.021917 127.443545 
L 279.297088 114.824935 
L 281.899051 112.232047 
L 284.501013 109.857056 
L 287.970297 107.236404 
L 289.704939 106.170207 
L 291.43958 105.352691 
L 293.174222 104.677965 
L 295.776185 104.074394 
L 297.510827 103.93356 
L 299.245468 104.065693 
L 301.847431 104.533654 
L 304.449394 105.426433 
L 307.051356 106.582033 
L 309.653319 108.167336 
L 312.255282 109.974479 
L 316.591886 113.472473 
L 320.06117 116.629092 
L 323.530453 120.082105 
L 327.867058 124.959246 
L 330.46902 128.105307 
L 333.938304 132.773713 
L 337.407587 137.903372 
L 340.00955 142.07497 
L 343.478833 148.221877 
L 346.080796 153.098839 
L 349.55008 160.047592 
L 354.754005 171.062047 
L 359.090609 180.792275 
L 366.029176 196.834758 
L 377.304348 224.18035 
L 392.048803 260.733179 
L 396.385407 270.787803 
L 399.854691 278.300008 
L 403.323974 285.195169 
L 405.925937 289.953489 
L 408.5279 294.340092 
L 411.129862 298.376829 
L 414.599146 303.353461 
L 418.06843 307.888696 
L 420.670392 310.967972 
L 425.874317 316.794002 
L 431.078243 322.229101 
L 436.282168 327.41572 
L 441.486093 332.342444 
L 447.55734 337.697229 
L 451.893944 341.173772 
L 456.230548 344.322185 
L 460.567153 347.132676 
L 465.771078 350.168764 
L 472.709645 353.840185 
L 477.913571 356.35057 
L 485.719458 359.842595 
L 490.923384 361.914635 
L 495.259988 363.379464 
L 499.596593 364.542177 
L 503.933197 365.393225 
L 508.269801 365.949349 
L 511.739085 366.196605 
L 516.94301 366.339 
L 527.350861 366.304104 
L 528.218182 366.286234 
L 528.218182 366.286234 
" clip-path="url(#p25e8f67a81)" style="fill: none; stroke-dasharray: 3.2375,1.4; stroke-dashoffset: 0; stroke: #7570b3; stroke-width: 0.875"/>
   </g>
   <g id="line2d_22">
    <path d="M 47.781818 366.234923 
L 54.981424 366.337405 
L 80.180046 366.948626 
L 87.379652 366.816323 
L 91.879406 366.570021 
L 96.379159 366.176163 
L 100.878913 365.554681 
L 104.478716 364.851114 
L 107.178568 364.182022 
L 111.678322 362.748878 
L 115.278125 361.307589 
L 117.977978 360.011285 
L 120.67783 358.58275 
L 124.277633 356.361793 
L 127.877436 353.855644 
L 130.577288 351.715283 
L 135.077042 347.840931 
L 138.676845 344.411533 
L 143.176599 339.880126 
L 149.476254 333.076285 
L 156.67586 324.858031 
L 162.975516 317.240835 
L 167.47527 311.259041 
L 171.075073 306.106729 
L 174.674876 300.525404 
L 177.374728 295.972549 
L 180.974531 289.494296 
L 184.574334 282.488898 
L 189.074088 273.240626 
L 194.473792 261.556178 
L 201.673398 245.772048 
L 209.772955 228.696366 
L 220.572365 206.496056 
L 225.972069 195.049936 
L 232.271724 180.961233 
L 242.171183 158.937877 
L 245.770986 151.586477 
L 248.470838 146.482435 
L 252.070641 140.359633 
L 254.770493 136.274285 
L 258.370297 131.515185 
L 261.9701 127.372702 
L 268.269755 120.905006 
L 274.56941 114.602674 
L 281.769016 106.930774 
L 285.368819 103.145851 
L 288.968622 99.811265 
L 290.768524 98.319988 
L 292.568425 97.02618 
L 294.368327 96.033799 
L 296.168229 95.263584 
L 297.96813 94.716937 
L 299.768032 94.494159 
L 301.567933 94.55639 
L 303.367835 94.897062 
L 305.167736 95.553768 
L 306.967638 96.543801 
L 308.767539 97.768116 
L 310.567441 99.216046 
L 313.267293 101.839844 
L 315.967145 104.956485 
L 318.666998 108.440458 
L 322.266801 113.684421 
L 325.866604 119.592088 
L 329.466407 125.950346 
L 333.966161 134.47702 
L 338.465914 143.661055 
L 345.66552 159.314212 
L 349.265323 167.480279 
L 373.563994 222.540829 
L 387.963206 253.865023 
L 393.362911 265.230414 
L 402.362418 283.876043 
L 408.662074 296.426645 
L 412.261877 303.302671 
L 415.86168 309.748377 
L 419.461483 315.574579 
L 422.161335 319.573614 
L 424.861187 323.274391 
L 427.56104 326.531333 
L 430.260892 329.447694 
L 432.960744 332.035881 
L 435.660597 334.317115 
L 439.2604 337.051646 
L 443.760153 340.044602 
L 447.359957 342.225722 
L 451.85971 344.838955 
L 459.059316 348.835557 
L 467.158873 352.978317 
L 472.558578 355.253545 
L 477.058332 356.771322 
L 480.658135 357.706384 
L 484.257938 358.413107 
L 488.757692 358.999781 
L 494.157396 359.321597 
L 501.357002 359.48653 
L 507.656658 359.528004 
L 507.656658 359.528004 
" clip-path="url(#p25e8f67a81)" style="fill: none; stroke-dasharray: 5.6,1.4,0.875,1.4; stroke-dashoffset: 0; stroke: #7570b3; stroke-width: 0.875"/>
   </g>
   <g id="patch_3">
    <path d="M 23.76 381.9125 
L 552.24 381.9125 
" style="fill: none; stroke: #333333; stroke-width: 1.5; stroke-linejoin: miter; stroke-linecap: square"/>
   </g>
   <g id="text_7">
    <!-- $C$ -->
    <g style="fill: #262626" transform="translate(277.5 46.560937)">
     <text>
      <tspan x="0" y="-0.734375" style="font-style: oblique; font-size: 30px; font-family: 'DejaVu Sans'; fill: #262626">C</tspan>
     </text>
    </g>
   </g>
  </g>
 </g>
 <defs>
  <clipPath id="p25e8f67a81">
   <rect x="23.76" y="52.8" width="528.48" height="329.1125"/>
  </clipPath>
 </defs>
</svg>
