<?xml version="1.0" encoding="utf-8" standalone="no"?>
<!DOCTYPE svg PUBLIC "-//W3C//DTD SVG 1.1//EN"
  "http://www.w3.org/Graphics/SVG/1.1/DTD/svg11.dtd">
<svg xmlns:xlink="http://www.w3.org/1999/xlink" width="576pt" height="432pt" viewBox="0 0 576 432" xmlns="http://www.w3.org/2000/svg" version="1.1">
 <metadata>
  <rdf:RDF xmlns:dc="http://purl.org/dc/elements/1.1/" xmlns:cc="http://creativecommons.org/ns#" xmlns:rdf="http://www.w3.org/1999/02/22-rdf-syntax-ns#">
   <cc:Work>
    <dc:type rdf:resource="http://purl.org/dc/dcmitype/StillImage"/>
    <dc:date>2025-09-22T22:40:52.844382</dc:date>
    <dc:format>image/svg+xml</dc:format>
    <dc:creator>
     <cc:Agent>
      <dc:title>Matplotlib v3.10.0, https://matplotlib.org/</dc:title>
     </cc:Agent>
    </dc:creator>
   </cc:Work>
  </rdf:RDF>
 </metadata>
 <defs>
  <style type="text/css">*{stroke-linejoin: round; stroke-linecap: butt}</style>
 </defs>
 <g id="figure_1">
  <g id="patch_1">
   <path d="M 0 432 
L 576 432 
L 576 0 
L 0 0 
L 0 432 
z
" style="fill: none; opacity: 0"/>
  </g>
  <g id="axes_1">
   <g id="patch_2">
    <path d="M 23.76 381.9125 
L 531.040954 381.9125 
L 531.040954 52.8 
L 23.76 52.8 
L 23.76 381.9125 
z
" style="fill: none"/>
   </g>
   <g id="matplotlib.axis_1">
    <g id="xtick_1">
     <g id="line2d_1">
      <path d="M 115.680214 381.9125 
L 115.680214 52.8 
" clip-path="url(#p38a91e750b)" style="fill: none; stroke: #cccccc; stroke-opacity: 0.4; stroke-linecap: round"/>
     </g>
     <g id="line2d_2"/>
     <g id="text_1">
      <text style="font-size: 20px; font-family: 'DejaVu Serif', 'Times New Roman', serif; text-anchor: middle; fill: #262626" x="115.680214" y="404.109375" transform="rotate(-0 115.680214 404.109375)">0.305</text>
     </g>
    </g>
    <g id="xtick_2">
     <g id="line2d_3">
      <path d="M 217.412139 381.9125 
L 217.412139 52.8 
" clip-path="url(#p38a91e750b)" style="fill: none; stroke: #cccccc; stroke-opacity: 0.4; stroke-linecap: round"/>
     </g>
     <g id="line2d_4"/>
     <g id="text_2">
      <text style="font-size: 20px; font-family: 'DejaVu Serif', 'Times New Roman', serif; text-anchor: middle; fill: #262626" x="217.412139" y="404.109375" transform="rotate(-0 217.412139 404.109375)">0.310</text>
     </g>
    </g>
    <g id="xtick_3">
     <g id="line2d_5">
      <path d="M 319.144064 381.9125 
L 319.144064 52.8 
" clip-path="url(#p38a91e750b)" style="fill: none; stroke: #cccccc; stroke-opacity: 0.4; stroke-linecap: round"/>
     </g>
     <g id="line2d_6"/>
     <g id="text_3">
      <text style="font-size: 20px; font-family: 'DejaVu Serif', 'Times New Roman', serif; text-anchor: middle; fill: #262626" x="319.144064" y="404.109375" transform="rotate(-0 319.144064 404.109375)">0.315</text>
     </g>
    </g>
    <g id="xtick_4">
     <g id="line2d_7">
      <path d="M 420.87599 381.9125 
L 420.87599 52.8 
" clip-path="url(#p38a91e750b)" style="fill: none; stroke: #cccccc; stroke-opacity: 0.4; stroke-linecap: round"/>
     </g>
     <g id="line2d_8"/>
     <g id="text_4">
      <text style="font-size: 20px; font-family: 'DejaVu Serif', 'Times New Roman', serif; text-anchor: middle; fill: #262626" x="420.87599" y="404.109375" transform="rotate(-0 420.87599 404.109375)">0.320</text>
     </g>
    </g>
    <g id="xtick_5">
     <g id="line2d_9">
      <path d="M 522.607915 381.9125 
L 522.607915 52.8 
" clip-path="url(#p38a91e750b)" style="fill: none; stroke: #cccccc; stroke-opacity: 0.4; stroke-linecap: round"/>
     </g>
     <g id="line2d_10"/>
     <g id="text_5">
      <text style="font-size: 20px; font-family: 'DejaVu Serif', 'Times New Roman', serif; text-anchor: middle; fill: #262626" x="522.607915" y="404.109375" transform="rotate(-0 522.607915 404.109375)">0.325</text>
     </g>
    </g>
   </g>
   <g id="matplotlib.axis_2">
    <g id="ytick_1">
     <g id="line2d_11">
      <path d="M 23.76 367.372466 
L 531.040954 367.372466 
" clip-path="url(#p38a91e750b)" style="fill: none; stroke: #cccccc; stroke-opacity: 0.4; stroke-linecap: round"/>
     </g>
    </g>
    <g id="ytick_2">
     <g id="line2d_12">
      <path d="M 23.76 324.538023 
L 531.040954 324.538023 
" clip-path="url(#p38a91e750b)" style="fill: none; stroke: #cccccc; stroke-opacity: 0.4; stroke-linecap: round"/>
     </g>
    </g>
    <g id="ytick_3">
     <g id="line2d_13">
      <path d="M 23.76 281.703579 
L 531.040954 281.703579 
" clip-path="url(#p38a91e750b)" style="fill: none; stroke: #cccccc; stroke-opacity: 0.4; stroke-linecap: round"/>
     </g>
    </g>
    <g id="ytick_4">
     <g id="line2d_14">
      <path d="M 23.76 238.869136 
L 531.040954 238.869136 
" clip-path="url(#p38a91e750b)" style="fill: none; stroke: #cccccc; stroke-opacity: 0.4; stroke-linecap: round"/>
     </g>
    </g>
    <g id="ytick_5">
     <g id="line2d_15">
      <path d="M 23.76 196.034693 
L 531.040954 196.034693 
" clip-path="url(#p38a91e750b)" style="fill: none; stroke: #cccccc; stroke-opacity: 0.4; stroke-linecap: round"/>
     </g>
    </g>
    <g id="ytick_6">
     <g id="line2d_16">
      <path d="M 23.76 153.20025 
L 531.040954 153.20025 
" clip-path="url(#p38a91e750b)" style="fill: none; stroke: #cccccc; stroke-opacity: 0.4; stroke-linecap: round"/>
     </g>
    </g>
    <g id="ytick_7">
     <g id="line2d_17">
      <path d="M 23.76 110.365806 
L 531.040954 110.365806 
" clip-path="url(#p38a91e750b)" style="fill: none; stroke: #cccccc; stroke-opacity: 0.4; stroke-linecap: round"/>
     </g>
    </g>
    <g id="ytick_8">
     <g id="line2d_18">
      <path d="M 23.76 67.531363 
L 531.040954 67.531363 
" clip-path="url(#p38a91e750b)" style="fill: none; stroke: #cccccc; stroke-opacity: 0.4; stroke-linecap: round"/>
     </g>
    </g>
   </g>
   <g id="line2d_19">
    <path d="M 55.026486 355.746543 
L 57.941878 355.650974 
L 60.128422 355.384495 
L 63.043813 354.788308 
L 65.230357 354.194619 
L 68.874596 352.92355 
L 73.247683 351.003573 
L 77.620771 348.866352 
L 87.095793 343.734689 
L 95.11312 338.88181 
L 98.028511 336.833637 
L 100.943903 334.510747 
L 103.859294 331.867322 
L 106.774686 328.890369 
L 110.418925 324.52269 
L 113.334317 320.494658 
L 116.249708 316.018817 
L 119.1651 311.075836 
L 122.080491 305.662669 
L 126.453579 296.847247 
L 132.284362 284.286198 
L 145.403623 255.422489 
L 151.234406 243.268338 
L 159.980581 225.364879 
L 165.811364 212.827616 
L 170.913299 201.306463 
L 177.47293 186.057913 
L 182.574865 174.075315 
L 186.947953 164.021837 
L 193.507583 149.917513 
L 196.422975 144.151634 
L 200.067214 137.663165 
L 202.982606 132.950002 
L 205.897997 128.687719 
L 208.813389 124.949756 
L 212.457628 120.867905 
L 215.37302 117.954462 
L 219.017259 114.721729 
L 222.661499 111.806079 
L 226.305738 109.043635 
L 229.22113 106.97043 
L 232.136521 105.056548 
L 235.051913 103.54078 
L 237.967304 102.545557 
L 240.153848 102.215488 
L 241.611544 102.205778 
L 243.069239 102.340961 
L 244.526935 102.702311 
L 245.984631 103.248554 
L 247.442327 104.024514 
L 248.900022 104.979727 
L 250.357718 106.149321 
L 251.815414 107.488934 
L 254.730805 110.708029 
L 256.917349 113.590087 
L 260.561588 119.096904 
L 263.47698 124.080443 
L 266.392371 129.450891 
L 271.494307 139.764769 
L 276.596242 150.871936 
L 280.240481 159.266009 
L 290.444351 183.907763 
L 313.767484 242.408882 
L 318.869419 255.451992 
L 323.971354 267.928941 
L 327.615593 276.283343 
L 330.530985 282.512395 
L 334.175224 289.611751 
L 337.090616 294.694179 
L 340.006007 299.24625 
L 342.921399 303.365848 
L 345.83679 307.138032 
L 350.209878 312.241536 
L 355.311813 317.750542 
L 375.719553 339.12774 
L 380.092641 343.286976 
L 384.465728 347.099174 
L 388.838815 350.487504 
L 392.483055 352.95306 
L 396.127294 355.123047 
L 399.771533 356.997623 
L 403.415773 358.613518 
L 407.78886 360.181201 
L 411.433099 361.208532 
L 416.535035 362.241901 
L 420.179274 362.736301 
L 425.281209 363.118701 
L 427.467753 363.168142 
L 427.467753 363.168142 
" clip-path="url(#p38a91e750b)" style="fill: none; stroke: #7570b3; stroke-width: 0.875; stroke-linecap: round"/>
   </g>
   <g id="line2d_20">
    <path d="M 65.035125 355.313565 
L 72.332489 355.087726 
L 76.976266 354.53616 
L 81.620043 353.571199 
L 84.27363 352.810481 
L 87.590613 351.612173 
L 90.907597 350.061738 
L 94.224581 348.221085 
L 96.878167 346.519466 
L 99.531754 344.502013 
L 102.185341 342.19241 
L 104.838928 339.569349 
L 107.492515 336.588523 
L 110.146102 333.233728 
L 113.463085 328.511932 
L 116.116672 324.365475 
L 118.770259 319.850437 
L 123.414036 311.366305 
L 126.73102 305.022732 
L 132.70159 293.03282 
L 138.672161 280.531425 
L 141.989145 273.024572 
L 145.969525 263.355385 
L 148.623112 256.281173 
L 151.940095 246.729447 
L 155.257079 236.413185 
L 159.237459 223.054419 
L 163.881236 206.463571 
L 171.841997 177.604534 
L 175.822377 164.094091 
L 179.139361 153.744202 
L 181.792948 146.2472 
L 183.783138 141.137146 
L 185.773328 136.513663 
L 187.763518 132.35743 
L 189.753709 128.713387 
L 191.743899 125.541386 
L 193.070692 123.73333 
L 195.724279 120.727247 
L 197.714469 118.965692 
L 199.704659 117.618631 
L 201.69485 116.666101 
L 203.68504 115.933651 
L 207.002023 115.315394 
L 212.309197 114.689388 
L 214.299387 114.484883 
L 216.952974 114.073529 
L 218.943164 113.637004 
L 221.596751 112.663481 
L 224.913735 111.110047 
L 234.201289 105.755919 
L 235.528082 105.228114 
L 237.518273 104.591622 
L 239.508463 104.300358 
L 241.498653 104.351685 
L 242.825446 104.639777 
L 244.15224 105.073781 
L 245.479033 105.759336 
L 247.469223 107.101465 
L 250.12281 109.379338 
L 252.113001 111.515596 
L 254.766587 114.763052 
L 259.410364 121.065065 
L 264.717538 128.408381 
L 274.005092 141.380023 
L 277.322076 146.496482 
L 279.975663 151.179101 
L 282.62925 156.377325 
L 285.282837 162.180741 
L 287.936424 168.654141 
L 290.59001 175.625089 
L 294.570391 186.870593 
L 307.838325 226.046314 
L 311.818706 236.793305 
L 316.462483 248.587326 
L 321.769656 261.143364 
L 327.740227 274.330357 
L 333.047401 285.476276 
L 337.691178 294.674433 
L 341.671558 302.091906 
L 346.315335 310.181289 
L 350.295715 316.462118 
L 354.276096 322.273981 
L 357.593079 326.74606 
L 360.910063 330.893544 
L 365.55384 336.269108 
L 369.53422 340.503678 
L 372.187807 343.201184 
L 375.504791 346.216715 
L 378.821775 349.025642 
L 382.138758 351.570816 
L 385.455742 353.840289 
L 388.109329 355.439381 
L 391.426312 357.091415 
L 394.079899 358.164297 
L 398.06028 359.307757 
L 401.377263 359.866803 
L 404.03085 360.048272 
L 404.03085 360.048272 
" clip-path="url(#p38a91e750b)" style="fill: none; stroke-dasharray: 0.875,1.44375; stroke-dashoffset: 0; stroke: #7570b3; stroke-width: 0.875"/>
   </g>
   <g id="line2d_21">
    <path d="M 67.101965 350.124077 
L 72.740435 349.996586 
L 76.264479 349.794887 
L 79.083714 349.46281 
L 82.607758 348.827775 
L 85.426993 348.076622 
L 87.541419 347.36874 
L 90.360654 346.199906 
L 91.770272 345.487967 
L 95.294316 343.427671 
L 98.113551 341.465955 
L 101.637594 338.606178 
L 103.752021 336.617429 
L 106.571256 333.609601 
L 108.685682 331.108959 
L 110.800108 328.350001 
L 112.914534 325.291828 
L 115.028961 321.962989 
L 117.848196 317.069317 
L 121.372239 310.288341 
L 124.896283 302.917383 
L 130.534753 290.376586 
L 135.468414 279.388416 
L 138.992458 272.045584 
L 142.516502 265.30913 
L 146.745355 258.119226 
L 148.859781 254.885531 
L 151.679016 250.966307 
L 155.907868 245.645167 
L 163.660765 236.18041 
L 167.889617 230.252195 
L 170.004043 226.90828 
L 172.11847 223.282412 
L 175.642513 216.434177 
L 179.871366 206.947915 
L 182.690601 199.894926 
L 186.214645 190.438972 
L 191.853115 174.021014 
L 196.786776 158.967576 
L 208.063716 123.8352 
L 212.997377 108.781721 
L 217.931039 94.66729 
L 220.750274 87.336566 
L 222.8647 82.38557 
L 224.979126 78.000319 
L 226.388744 75.483075 
L 227.798361 73.335911 
L 229.207979 71.432968 
L 230.617596 69.941897 
L 232.027214 68.801104 
L 233.436831 68.062528 
L 234.846449 67.782655 
L 235.551257 67.759659 
L 236.256066 67.864676 
L 237.665684 68.4009 
L 239.075301 69.328768 
L 240.484919 70.624219 
L 241.894536 72.233138 
L 243.304154 74.210021 
L 245.41858 77.658945 
L 247.533006 81.727482 
L 249.647432 86.247832 
L 253.171476 94.448155 
L 269.382078 134.065528 
L 282.773444 163.516475 
L 286.297488 171.316964 
L 290.52634 181.093149 
L 294.755193 191.421455 
L 298.984045 202.437397 
L 303.917706 216.065148 
L 308.851368 230.047443 
L 314.489838 245.918209 
L 318.013882 255.272171 
L 321.537925 263.930129 
L 324.35716 270.289701 
L 326.471587 274.688505 
L 329.290822 280.028257 
L 331.405248 283.636968 
L 334.929292 289.146743 
L 339.158144 295.144531 
L 353.254319 314.005991 
L 359.597598 322.715685 
L 365.940877 330.835241 
L 370.169729 335.757572 
L 375.103391 340.881876 
L 378.627434 344.132516 
L 381.446669 346.483182 
L 384.265904 348.569713 
L 387.085139 350.427638 
L 389.904374 352.006466 
L 392.723609 353.319042 
L 395.542844 354.409162 
L 398.362079 355.279894 
L 401.886123 355.980216 
L 405.410167 356.382492 
L 409.639019 356.61268 
L 415.277489 356.54934 
L 426.55443 356.304674 
L 427.259238 356.301262 
L 427.259238 356.301262 
" clip-path="url(#p38a91e750b)" style="fill: none; stroke-dasharray: 3.2375,1.4; stroke-dashoffset: 0; stroke: #7570b3; stroke-width: 0.875"/>
   </g>
   <g id="line2d_22">
    <path d="M 46.818225 361.338711 
L 55.842971 361.140426 
L 60.355344 360.787989 
L 63.965242 360.252803 
L 68.477615 359.248356 
L 72.087513 358.211387 
L 78.404835 355.947606 
L 83.819682 353.704299 
L 89.23453 351.219992 
L 93.746903 348.878315 
L 97.356801 346.753931 
L 100.966699 344.254447 
L 103.674123 342.210418 
L 107.284021 339.150147 
L 109.991445 336.551558 
L 114.503818 331.619587 
L 117.211241 328.221071 
L 119.918665 324.458659 
L 121.723614 321.74036 
L 124.431038 317.315862 
L 128.040936 310.707242 
L 131.650835 303.26528 
L 134.358258 297.115614 
L 137.968157 288.201379 
L 140.67558 280.960411 
L 143.383004 273.278997 
L 147.895377 259.496699 
L 152.40775 244.830225 
L 161.432495 215.155409 
L 165.042394 203.904379 
L 168.652292 193.585851 
L 171.359716 186.444856 
L 174.969614 177.593746 
L 181.286936 163.166469 
L 187.604258 148.819531 
L 194.824054 131.295282 
L 200.238902 118.046497 
L 203.8488 109.830914 
L 206.556224 104.450059 
L 209.263647 99.778977 
L 211.068596 97.204769 
L 212.873546 95.022946 
L 214.678495 93.319795 
L 216.483444 92.013522 
L 218.288393 91.134986 
L 219.190868 90.870191 
L 220.995817 90.661541 
L 222.800766 90.812711 
L 224.605715 91.257863 
L 226.410664 91.903059 
L 229.118088 93.384052 
L 232.727986 95.743775 
L 241.752732 101.78144 
L 251.679952 108.199827 
L 253.484901 109.692283 
L 256.192325 112.306791 
L 257.997274 114.422916 
L 260.704698 118.155439 
L 263.412121 122.505586 
L 265.217071 125.715341 
L 267.924494 131.168935 
L 271.534393 139.156396 
L 279.656664 157.804769 
L 283.266562 165.517031 
L 287.778935 174.201408 
L 293.193782 183.723068 
L 297.706155 191.764471 
L 300.413579 197.030109 
L 303.121002 202.907752 
L 305.828426 209.482373 
L 308.53585 216.817821 
L 311.243273 224.862647 
L 314.853172 236.406255 
L 318.46307 248.65223 
L 326.585341 276.415077 
L 330.195239 287.993851 
L 333.805138 298.670912 
L 336.512561 305.989847 
L 339.219985 312.643432 
L 341.927409 318.601173 
L 344.634832 323.940102 
L 346.439782 327.063776 
L 348.244731 329.884787 
L 350.952154 333.599877 
L 352.757104 335.645161 
L 354.562053 337.508427 
L 356.367002 339.098378 
L 358.171951 340.455942 
L 359.9769 341.656699 
L 362.684324 343.129163 
L 365.391748 344.316196 
L 369.001646 345.629191 
L 373.514019 347.037067 
L 382.538764 349.699598 
L 391.56351 352.736293 
L 406.003103 357.545501 
L 411.41795 359.116601 
L 419.540222 361.178243 
L 424.955069 362.383762 
L 432.174866 363.757862 
L 438.492187 364.654348 
L 443.907035 365.239976 
L 453.834255 366.03505 
L 461.054052 366.505313 
L 471.883746 366.934542 
L 478.201068 366.913816 
L 484.51839 366.65617 
L 491.738187 366.106469 
L 502.567882 365.240549 
L 507.982729 365.075103 
L 507.982729 365.075103 
" clip-path="url(#p38a91e750b)" style="fill: none; stroke-dasharray: 5.6,1.4,0.875,1.4; stroke-dashoffset: 0; stroke: #7570b3; stroke-width: 0.875"/>
   </g>
   <g id="patch_3">
    <path d="M 23.76 381.9125 
L 531.040954 381.9125 
" style="fill: none; stroke: #333333; stroke-width: 1.5; stroke-linejoin: miter; stroke-linecap: square"/>
   </g>
   <g id="text_6">
    <!-- $\sigma$ -->
    <g style="fill: #262626" transform="translate(267.800477 46.560937)">
     <text>
      <tspan x="0" y="-0.578125" style="font-style: oblique; font-size: 30px; font-family: 'DejaVu Sans'; fill: #262626">σ</tspan>
     </text>
    </g>
   </g>
  </g>
 </g>
 <defs>
  <clipPath id="p38a91e750b">
   <rect x="23.76" y="52.8" width="507.280954" height="329.1125"/>
  </clipPath>
 </defs>
</svg>
