<?xml version="1.0" encoding="utf-8" standalone="no"?>
<!DOCTYPE svg PUBLIC "-//W3C//DTD SVG 1.1//EN"
  "http://www.w3.org/Graphics/SVG/1.1/DTD/svg11.dtd">
<svg xmlns:xlink="http://www.w3.org/1999/xlink" width="576pt" height="432pt" viewBox="0 0 576 432" xmlns="http://www.w3.org/2000/svg" version="1.1">
 <metadata>
  <rdf:RDF xmlns:dc="http://purl.org/dc/elements/1.1/" xmlns:cc="http://creativecommons.org/ns#" xmlns:rdf="http://www.w3.org/1999/02/22-rdf-syntax-ns#">
   <cc:Work>
    <dc:type rdf:resource="http://purl.org/dc/dcmitype/StillImage"/>
    <dc:date>2025-09-22T22:40:53.448037</dc:date>
    <dc:format>image/svg+xml</dc:format>
    <dc:creator>
     <cc:Agent>
      <dc:title>Matplotlib v3.10.0, https://matplotlib.org/</dc:title>
     </cc:Agent>
    </dc:creator>
   </cc:Work>
  </rdf:RDF>
 </metadata>
 <defs>
  <style type="text/css">*{stroke-linejoin: round; stroke-linecap: butt}</style>
 </defs>
 <g id="figure_1">
  <g id="patch_1">
   <path d="M 0 432 
L 576 432 
L 576 0 
L 0 0 
L 0 432 
z
" style="fill: none; opacity: 0"/>
  </g>
  <g id="axes_1">
   <g id="patch_2">
    <path d="M 23.76 381.9125 
L 547.352198 381.9125 
L 547.352198 59.592 
L 23.76 59.592 
L 23.76 381.9125 
z
" style="fill: none"/>
   </g>
   <g id="matplotlib.axis_1">
    <g id="xtick_1">
     <g id="line2d_1">
      <path d="M 85.793664 381.9125 
L 85.793664 59.592 
" clip-path="url(#p1453ee9533)" style="fill: none; stroke: #cccccc; stroke-opacity: 0.4; stroke-linecap: round"/>
     </g>
     <g id="line2d_2"/>
     <g id="text_1">
      <text style="font-size: 20px; font-family: 'DejaVu Serif', 'Times New Roman', serif; text-anchor: middle; fill: #262626" x="85.793664" y="404.109375" transform="rotate(-0 85.793664 404.109375)">−0.10</text>
     </g>
    </g>
    <g id="xtick_2">
     <g id="line2d_3">
      <path d="M 196.089241 381.9125 
L 196.089241 59.592 
" clip-path="url(#p1453ee9533)" style="fill: none; stroke: #cccccc; stroke-opacity: 0.4; stroke-linecap: round"/>
     </g>
     <g id="line2d_4"/>
     <g id="text_2">
      <text style="font-size: 20px; font-family: 'DejaVu Serif', 'Times New Roman', serif; text-anchor: middle; fill: #262626" x="196.089241" y="404.109375" transform="rotate(-0 196.089241 404.109375)">−0.05</text>
     </g>
    </g>
    <g id="xtick_3">
     <g id="line2d_5">
      <path d="M 306.384818 381.9125 
L 306.384818 59.592 
" clip-path="url(#p1453ee9533)" style="fill: none; stroke: #cccccc; stroke-opacity: 0.4; stroke-linecap: round"/>
     </g>
     <g id="line2d_6"/>
     <g id="text_3">
      <text style="font-size: 20px; font-family: 'DejaVu Serif', 'Times New Roman', serif; text-anchor: middle; fill: #262626" x="306.384818" y="404.109375" transform="rotate(-0 306.384818 404.109375)">0.00</text>
     </g>
    </g>
    <g id="xtick_4">
     <g id="line2d_7">
      <path d="M 416.680395 381.9125 
L 416.680395 59.592 
" clip-path="url(#p1453ee9533)" style="fill: none; stroke: #cccccc; stroke-opacity: 0.4; stroke-linecap: round"/>
     </g>
     <g id="line2d_8"/>
     <g id="text_4">
      <text style="font-size: 20px; font-family: 'DejaVu Serif', 'Times New Roman', serif; text-anchor: middle; fill: #262626" x="416.680395" y="404.109375" transform="rotate(-0 416.680395 404.109375)">0.05</text>
     </g>
    </g>
    <g id="xtick_5">
     <g id="line2d_9">
      <path d="M 526.975972 381.9125 
L 526.975972 59.592 
" clip-path="url(#p1453ee9533)" style="fill: none; stroke: #cccccc; stroke-opacity: 0.4; stroke-linecap: round"/>
     </g>
     <g id="line2d_10"/>
     <g id="text_5">
      <text style="font-size: 20px; font-family: 'DejaVu Serif', 'Times New Roman', serif; text-anchor: middle; fill: #262626" x="526.975972" y="404.109375" transform="rotate(-0 526.975972 404.109375)">0.10</text>
     </g>
    </g>
   </g>
   <g id="matplotlib.axis_2">
    <g id="ytick_1">
     <g id="line2d_11">
      <path d="M 23.76 369.982859 
L 547.352198 369.982859 
" clip-path="url(#p1453ee9533)" style="fill: none; stroke: #cccccc; stroke-opacity: 0.4; stroke-linecap: round"/>
     </g>
    </g>
    <g id="ytick_2">
     <g id="line2d_12">
      <path d="M 23.76 320.026216 
L 547.352198 320.026216 
" clip-path="url(#p1453ee9533)" style="fill: none; stroke: #cccccc; stroke-opacity: 0.4; stroke-linecap: round"/>
     </g>
    </g>
    <g id="ytick_3">
     <g id="line2d_13">
      <path d="M 23.76 270.069573 
L 547.352198 270.069573 
" clip-path="url(#p1453ee9533)" style="fill: none; stroke: #cccccc; stroke-opacity: 0.4; stroke-linecap: round"/>
     </g>
    </g>
    <g id="ytick_4">
     <g id="line2d_14">
      <path d="M 23.76 220.112931 
L 547.352198 220.112931 
" clip-path="url(#p1453ee9533)" style="fill: none; stroke: #cccccc; stroke-opacity: 0.4; stroke-linecap: round"/>
     </g>
    </g>
    <g id="ytick_5">
     <g id="line2d_15">
      <path d="M 23.76 170.156288 
L 547.352198 170.156288 
" clip-path="url(#p1453ee9533)" style="fill: none; stroke: #cccccc; stroke-opacity: 0.4; stroke-linecap: round"/>
     </g>
    </g>
    <g id="ytick_6">
     <g id="line2d_16">
      <path d="M 23.76 120.199645 
L 547.352198 120.199645 
" clip-path="url(#p1453ee9533)" style="fill: none; stroke: #cccccc; stroke-opacity: 0.4; stroke-linecap: round"/>
     </g>
    </g>
    <g id="ytick_7">
     <g id="line2d_17">
      <path d="M 23.76 70.243003 
L 547.352198 70.243003 
" clip-path="url(#p1453ee9533)" style="fill: none; stroke: #cccccc; stroke-opacity: 0.4; stroke-linecap: round"/>
     </g>
    </g>
   </g>
   <g id="line2d_18">
    <path d="M 75.399387 355.890145 
L 82.387953 355.848331 
L 88.502949 355.763549 
L 93.744373 355.403694 
L 97.238656 354.916748 
L 100.73294 354.172805 
L 103.353652 353.36821 
L 105.974364 352.374584 
L 108.595077 351.128184 
L 111.215789 349.616192 
L 114.710072 347.270799 
L 117.330784 345.213571 
L 120.825067 342.196477 
L 125.192921 338.033335 
L 132.181487 330.922633 
L 136.549341 326.408388 
L 144.411478 318.524151 
L 153.147186 309.585189 
L 156.641469 305.72555 
L 159.262182 302.622535 
L 162.756465 298.130177 
L 165.377177 294.487677 
L 167.997889 290.564607 
L 171.492172 284.883153 
L 174.112885 280.296595 
L 177.607168 273.75403 
L 182.848592 263.174394 
L 188.090017 251.778649 
L 193.331442 239.884394 
L 209.929286 200.590313 
L 230.894985 150.175567 
L 237.883551 133.811438 
L 243.124976 122.285658 
L 248.366401 111.557567 
L 251.860684 104.94629 
L 255.354967 98.787086 
L 258.84925 93.140191 
L 261.469962 89.34073 
L 264.964245 84.797261 
L 266.711387 82.68417 
L 268.458528 80.831929 
L 271.079241 78.464888 
L 272.826382 77.188167 
L 274.573524 76.09108 
L 276.320665 75.259492 
L 278.067807 74.698214 
L 279.814948 74.347404 
L 281.56209 74.242932 
L 284.182802 74.658102 
L 285.929944 75.179319 
L 287.677085 75.965977 
L 290.297798 77.553397 
L 292.91851 79.586457 
L 295.539222 82.019907 
L 299.033506 85.587203 
L 303.401359 90.429972 
L 313.010638 101.56952 
L 319.125633 108.387494 
L 323.493487 113.579383 
L 326.98777 118.134087 
L 329.608483 121.889353 
L 333.102766 127.379597 
L 335.723478 132.025617 
L 338.34419 137.030135 
L 342.712044 146.285134 
L 346.206327 154.344527 
L 349.700611 162.969527 
L 364.551314 200.922963 
L 368.919168 211.34705 
L 373.287021 221.17134 
L 375.907734 226.767916 
L 381.149158 237.356251 
L 387.264154 248.970689 
L 395.126291 263.373408 
L 403.861999 278.985688 
L 409.103423 288.055165 
L 414.344848 296.794899 
L 421.333414 307.82622 
L 425.701268 314.222119 
L 431.816263 322.636242 
L 436.184117 328.135236 
L 439.6784 332.232015 
L 444.046254 336.945685 
L 447.540537 340.374089 
L 451.03482 343.542173 
L 454.529104 346.345334 
L 458.896957 349.454703 
L 462.391241 351.632742 
L 465.011953 353.066946 
L 469.379807 355.239864 
L 473.747661 357.154397 
L 479.862656 359.452725 
L 485.104081 361.180222 
L 491.219076 362.859263 
L 495.58693 363.890791 
L 500.828355 364.825095 
L 506.069779 365.515641 
L 510.437633 365.882965 
L 517.426199 366.248024 
L 521.794053 366.298847 
L 521.794053 366.298847 
" clip-path="url(#p1453ee9533)" style="fill: none; stroke: #7570b3; stroke-width: 0.875; stroke-linecap: round"/>
   </g>
   <g id="line2d_19">
    <path d="M 47.559645 361.087795 
L 51.285617 361.219541 
L 58.737561 361.955563 
L 69.915477 363.243923 
L 73.641448 363.393711 
L 77.36742 363.30529 
L 80.161899 363.053066 
L 83.887871 362.430098 
L 87.613843 361.555177 
L 91.339815 360.415113 
L 95.99728 358.685734 
L 100.654745 356.748395 
L 111.83266 351.692669 
L 119.284604 348.283499 
L 125.805055 345.224744 
L 129.531027 343.330233 
L 133.256998 341.285005 
L 136.051477 339.558728 
L 138.845956 337.642598 
L 142.571928 334.906827 
L 146.2979 331.751712 
L 149.092379 329.127967 
L 152.818351 325.286393 
L 155.61283 322.056583 
L 158.407309 318.488291 
L 162.133281 313.11426 
L 164.927759 308.648121 
L 167.722238 303.697736 
L 170.516717 298.243986 
L 173.311196 292.381002 
L 177.037168 283.807739 
L 180.76314 274.520148 
L 185.420605 261.882581 
L 190.07807 248.665705 
L 194.735534 234.96467 
L 204.981957 204.712332 
L 213.365394 180.85484 
L 219.885845 163.396643 
L 224.543309 151.770732 
L 227.337788 145.236204 
L 231.06376 137.05745 
L 234.789732 129.60543 
L 238.515704 122.902646 
L 242.241676 116.892272 
L 245.036155 112.87745 
L 247.830634 109.194225 
L 251.556606 104.816819 
L 254.351084 101.885588 
L 258.077056 98.342168 
L 260.871535 95.882348 
L 265.529 92.436372 
L 268.323479 90.687055 
L 271.117958 89.161598 
L 273.912437 88.019907 
L 275.775423 87.42389 
L 279.501395 86.712408 
L 281.364381 86.57687 
L 283.227366 86.603568 
L 285.090352 86.837344 
L 286.953338 87.249054 
L 288.816324 87.798608 
L 290.67931 88.456111 
L 294.405282 90.263819 
L 297.199761 91.916365 
L 299.99424 93.98037 
L 302.788719 96.356355 
L 306.514691 99.900184 
L 309.30917 102.817718 
L 313.035141 107.257818 
L 318.624099 114.571609 
L 322.350071 119.851369 
L 327.007536 126.962639 
L 334.45948 139.019375 
L 359.60979 181.315129 
L 365.198748 190.662728 
L 371.719198 202.137158 
L 376.376663 211.014051 
L 380.102635 218.608455 
L 383.828607 226.743304 
L 388.486072 237.533883 
L 394.07503 250.95306 
L 400.595481 266.480603 
L 404.321452 274.805842 
L 408.047424 282.561412 
L 411.773396 289.618752 
L 414.567875 294.479491 
L 418.293847 300.229397 
L 422.019819 305.370421 
L 426.677284 311.196189 
L 430.403256 315.439896 
L 434.129227 319.485356 
L 440.649678 326.218577 
L 450.896101 336.217423 
L 457.416552 342.07531 
L 463.005509 346.592937 
L 466.731481 349.299558 
L 471.388946 352.343092 
L 475.114918 354.546709 
L 478.84089 356.484141 
L 483.498355 358.595421 
L 488.15582 360.431557 
L 492.813284 361.993973 
L 498.402242 363.49679 
L 502.128214 364.280149 
L 505.854186 364.924183 
L 511.443144 365.595478 
L 517.963595 366.002815 
L 522.621059 366.100191 
L 523.552552 366.104868 
L 523.552552 366.104868 
" clip-path="url(#p1453ee9533)" style="fill: none; stroke-dasharray: 0.875,1.44375; stroke-dashoffset: 0; stroke: #7570b3; stroke-width: 0.875"/>
   </g>
   <g id="line2d_20">
    <path d="M 50.383399 361.335084 
L 55.800985 361.216141 
L 60.31564 360.894645 
L 66.636158 360.225127 
L 75.665468 358.835399 
L 80.180124 357.957909 
L 86.500641 356.388588 
L 91.015296 354.978386 
L 93.72409 353.971375 
L 97.335814 352.433124 
L 100.947538 350.627026 
L 104.559262 348.621967 
L 109.073918 345.761381 
L 113.588573 342.633872 
L 119.90909 337.725113 
L 125.326677 333.121098 
L 131.647194 327.126787 
L 135.258918 323.41331 
L 138.870643 319.258407 
L 142.482367 314.707521 
L 146.094091 309.667807 
L 149.705815 304.156805 
L 154.220471 296.594789 
L 157.832195 290.12563 
L 163.249781 280.038624 
L 179.502541 249.831547 
L 192.143575 227.560981 
L 199.367024 213.77186 
L 202.978748 206.399504 
L 208.396335 194.875943 
L 228.260818 151.260617 
L 232.775473 141.941025 
L 238.19306 131.372776 
L 241.804784 124.727621 
L 246.319439 116.916258 
L 249.028232 112.573814 
L 253.542888 105.969936 
L 257.154612 101.270686 
L 259.863405 98.278745 
L 261.669267 96.462883 
L 264.37806 94.052691 
L 267.086854 92.127673 
L 268.892716 91.09536 
L 271.601509 89.894655 
L 273.407371 89.377773 
L 275.213233 88.991873 
L 277.922026 88.822289 
L 279.727889 88.979433 
L 281.533751 89.269719 
L 283.339613 89.742575 
L 286.048406 90.810661 
L 287.854268 91.725126 
L 291.465992 94.055966 
L 295.980648 97.619702 
L 300.495303 101.712282 
L 306.81582 108.186918 
L 313.136338 115.165271 
L 316.748062 119.53839 
L 321.262717 125.265274 
L 324.874442 130.242632 
L 328.486166 135.647144 
L 331.194959 140.041697 
L 335.709614 148.018371 
L 338.418408 153.169187 
L 344.738925 166.135292 
L 350.156511 178.046305 
L 366.409271 214.203011 
L 371.826857 225.368303 
L 377.244443 235.677064 
L 379.953237 240.568357 
L 385.370823 249.636225 
L 389.885478 256.608916 
L 395.303065 264.526209 
L 409.749962 285.176033 
L 417.876341 297.364624 
L 425.09979 308.315296 
L 432.323238 318.727915 
L 436.837894 324.82794 
L 442.25548 331.558467 
L 446.770135 336.77297 
L 450.381859 340.660822 
L 453.993584 344.298867 
L 459.41117 349.335304 
L 463.022894 352.399794 
L 466.634619 355.173269 
L 470.246343 357.642333 
L 472.955136 359.311178 
L 476.56686 361.274959 
L 479.275653 362.55001 
L 481.984447 363.59932 
L 484.69324 364.487494 
L 488.304964 365.447701 
L 491.916688 366.159488 
L 497.334275 366.794458 
L 502.751861 367.109206 
L 507.266516 367.225077 
L 511.781172 367.261568 
L 511.781172 367.261568 
" clip-path="url(#p1453ee9533)" style="fill: none; stroke-dasharray: 3.2375,1.4; stroke-dashoffset: 0; stroke: #7570b3; stroke-width: 0.875"/>
   </g>
   <g id="line2d_21">
    <path d="M 97.226557 354.808846 
L 98.797371 354.779806 
L 101.938997 354.36532 
L 104.295217 353.836327 
L 106.651437 353.069226 
L 109.007657 352.159273 
L 111.363877 351.033755 
L 114.505504 349.269784 
L 116.861724 347.762994 
L 121.574163 344.320207 
L 125.501197 341.102346 
L 138.85311 329.408535 
L 145.921769 323.101586 
L 149.848803 319.397898 
L 155.346649 313.748838 
L 158.488276 310.154773 
L 162.415309 305.30114 
L 165.556936 301.065547 
L 169.483969 295.375336 
L 174.196409 287.79756 
L 178.123442 281.120497 
L 182.835882 272.534801 
L 186.762915 264.87796 
L 190.689948 256.7279 
L 194.616982 247.883524 
L 197.758608 240.393656 
L 201.685641 230.224218 
L 204.827268 221.56631 
L 208.754301 210.042569 
L 212.681334 197.910012 
L 219.749994 175.219377 
L 224.462434 160.18291 
L 228.389467 148.255439 
L 232.3165 137.270441 
L 234.67272 131.221036 
L 237.02894 125.695647 
L 239.38516 120.69551 
L 241.74138 116.238902 
L 243.312194 113.524292 
L 245.668413 110.113278 
L 247.239227 108.091564 
L 249.595447 105.569775 
L 251.951667 103.589455 
L 253.52248 102.568928 
L 255.093293 101.75034 
L 257.449513 100.869245 
L 259.020326 100.43039 
L 261.376546 100.088891 
L 263.732766 99.951254 
L 270.801426 100.05004 
L 273.157646 99.909429 
L 276.299273 99.322837 
L 278.655493 98.695074 
L 281.011713 97.864817 
L 283.367932 96.828672 
L 287.294966 94.726916 
L 292.792812 91.431636 
L 295.934439 89.793241 
L 298.290659 88.7733 
L 299.861472 88.255163 
L 301.432285 87.951109 
L 303.003099 87.798735 
L 304.573912 87.787311 
L 306.144725 87.970292 
L 307.715538 88.375826 
L 310.071758 89.260989 
L 312.427978 90.555411 
L 314.784198 92.342472 
L 317.140418 94.408601 
L 319.496638 96.822163 
L 321.852858 99.653719 
L 324.994485 103.832255 
L 328.921518 109.797924 
L 332.848551 116.526024 
L 335.204771 120.877091 
L 339.131804 128.696671 
L 343.844244 138.96399 
L 350.127497 153.753248 
L 355.625344 167.229062 
L 361.12319 180.721166 
L 368.977257 199.361453 
L 383.114576 231.145438 
L 393.324863 253.300709 
L 402.749743 272.740935 
L 408.247589 283.377966 
L 414.530842 294.680837 
L 418.457876 301.063076 
L 422.384909 306.905001 
L 425.526535 311.132938 
L 427.882755 314.127063 
L 431.024382 317.741417 
L 433.380602 320.224001 
L 436.522228 323.235045 
L 440.449262 326.70751 
L 444.376295 329.881613 
L 451.444955 335.243018 
L 457.728208 339.746583 
L 466.367681 345.438563 
L 470.294714 347.691458 
L 475.007154 350.079785 
L 480.505001 352.398081 
L 484.432034 353.678802 
L 487.57366 354.466995 
L 490.715287 355.079108 
L 493.071507 355.415907 
L 496.99854 355.741749 
L 498.569353 355.79358 
L 498.569353 355.79358 
" clip-path="url(#p1453ee9533)" style="fill: none; stroke-dasharray: 5.6,1.4,0.875,1.4; stroke-dashoffset: 0; stroke: #7570b3; stroke-width: 0.875"/>
   </g>
   <g id="patch_3">
    <path d="M 23.76 381.9125 
L 547.352198 381.9125 
" style="fill: none; stroke: #333333; stroke-width: 1.5; stroke-linejoin: miter; stroke-linecap: square"/>
   </g>
   <g id="text_6">
    <!-- $x_1x_2^2x_3$ -->
    <g style="fill: #262626" transform="translate(236.956099 51.192)">
     <text>
      <tspan x="0" y="-0.929688" style="font-style: oblique; font-size: 30px; font-family: 'DejaVu Sans'; fill: #262626">x</tspan>
      <tspan x="31.935059" y="-0.929688" style="font-style: oblique; font-size: 30px; font-family: 'DejaVu Sans'; fill: #262626">x</tspan>
      <tspan x="65.209961" y="-0.929688" style="font-style: oblique; font-size: 30px; font-family: 'DejaVu Sans'; fill: #262626">x</tspan>
      <tspan x="17.753906" y="3.992188" style="font-size: 21px; font-family: 'DejaVu Sans'; fill: #262626">1</tspan>
      <tspan x="49.688965" y="7.273438" style="font-size: 21px; font-family: 'DejaVu Sans'; fill: #262626">2</tspan>
      <tspan x="51.028809" y="-12.414063" style="font-size: 21px; font-family: 'DejaVu Sans'; fill: #262626">2</tspan>
      <tspan x="82.963867" y="3.992188" style="font-size: 21px; font-family: 'DejaVu Sans'; fill: #262626">3</tspan>
     </text>
    </g>
   </g>
  </g>
 </g>
 <defs>
  <clipPath id="p1453ee9533">
   <rect x="23.76" y="59.592" width="523.592198" height="322.3205"/>
  </clipPath>
 </defs>
</svg>
