<?xml version="1.0" encoding="utf-8" standalone="no"?>
<!DOCTYPE svg PUBLIC "-//W3C//DTD SVG 1.1//EN"
  "http://www.w3.org/Graphics/SVG/1.1/DTD/svg11.dtd">
<svg xmlns:xlink="http://www.w3.org/1999/xlink" width="576pt" height="432pt" viewBox="0 0 576 432" xmlns="http://www.w3.org/2000/svg" version="1.1">
 <metadata>
  <rdf:RDF xmlns:dc="http://purl.org/dc/elements/1.1/" xmlns:cc="http://creativecommons.org/ns#" xmlns:rdf="http://www.w3.org/1999/02/22-rdf-syntax-ns#">
   <cc:Work>
    <dc:type rdf:resource="http://purl.org/dc/dcmitype/StillImage"/>
    <dc:date>2025-09-22T22:40:53.497559</dc:date>
    <dc:format>image/svg+xml</dc:format>
    <dc:creator>
     <cc:Agent>
      <dc:title>Matplotlib v3.10.0, https://matplotlib.org/</dc:title>
     </cc:Agent>
    </dc:creator>
   </cc:Work>
  </rdf:RDF>
 </metadata>
 <defs>
  <style type="text/css">*{stroke-linejoin: round; stroke-linecap: butt}</style>
 </defs>
 <g id="figure_1">
  <g id="patch_1">
   <path d="M 0 432 
L 576 432 
L 576 0 
L 0 0 
L 0 432 
z
" style="fill: none; opacity: 0"/>
  </g>
  <g id="axes_1">
   <g id="patch_2">
    <path d="M 25.392614 381.9125 
L 552.24 381.9125 
L 552.24 52.8 
L 25.392614 52.8 
L 25.392614 381.9125 
z
" style="fill: none"/>
   </g>
   <g id="matplotlib.axis_1">
    <g id="xtick_1">
     <g id="line2d_1">
      <path d="M 59.624577 381.9125 
L 59.624577 52.8 
" clip-path="url(#pa5fdb16020)" style="fill: none; stroke: #cccccc; stroke-opacity: 0.4; stroke-linecap: round"/>
     </g>
     <g id="line2d_2"/>
     <g id="text_1">
      <text style="font-size: 20px; font-family: 'DejaVu Serif', 'Times New Roman', serif; text-anchor: middle; fill: #262626" x="59.624577" y="404.109375" transform="rotate(-0 59.624577 404.109375)">−0.10</text>
     </g>
    </g>
    <g id="xtick_2">
     <g id="line2d_3">
      <path d="M 168.752139 381.9125 
L 168.752139 52.8 
" clip-path="url(#pa5fdb16020)" style="fill: none; stroke: #cccccc; stroke-opacity: 0.4; stroke-linecap: round"/>
     </g>
     <g id="line2d_4"/>
     <g id="text_2">
      <text style="font-size: 20px; font-family: 'DejaVu Serif', 'Times New Roman', serif; text-anchor: middle; fill: #262626" x="168.752139" y="404.109375" transform="rotate(-0 168.752139 404.109375)">−0.05</text>
     </g>
    </g>
    <g id="xtick_3">
     <g id="line2d_5">
      <path d="M 277.879701 381.9125 
L 277.879701 52.8 
" clip-path="url(#pa5fdb16020)" style="fill: none; stroke: #cccccc; stroke-opacity: 0.4; stroke-linecap: round"/>
     </g>
     <g id="line2d_6"/>
     <g id="text_3">
      <text style="font-size: 20px; font-family: 'DejaVu Serif', 'Times New Roman', serif; text-anchor: middle; fill: #262626" x="277.879701" y="404.109375" transform="rotate(-0 277.879701 404.109375)">0.00</text>
     </g>
    </g>
    <g id="xtick_4">
     <g id="line2d_7">
      <path d="M 387.007263 381.9125 
L 387.007263 52.8 
" clip-path="url(#pa5fdb16020)" style="fill: none; stroke: #cccccc; stroke-opacity: 0.4; stroke-linecap: round"/>
     </g>
     <g id="line2d_8"/>
     <g id="text_4">
      <text style="font-size: 20px; font-family: 'DejaVu Serif', 'Times New Roman', serif; text-anchor: middle; fill: #262626" x="387.007263" y="404.109375" transform="rotate(-0 387.007263 404.109375)">0.05</text>
     </g>
    </g>
    <g id="xtick_5">
     <g id="line2d_9">
      <path d="M 496.134825 381.9125 
L 496.134825 52.8 
" clip-path="url(#pa5fdb16020)" style="fill: none; stroke: #cccccc; stroke-opacity: 0.4; stroke-linecap: round"/>
     </g>
     <g id="line2d_10"/>
     <g id="text_5">
      <text style="font-size: 20px; font-family: 'DejaVu Serif', 'Times New Roman', serif; text-anchor: middle; fill: #262626" x="496.134825" y="404.109375" transform="rotate(-0 496.134825 404.109375)">0.10</text>
     </g>
    </g>
   </g>
   <g id="matplotlib.axis_2">
    <g id="ytick_1">
     <g id="line2d_11">
      <path d="M 25.392614 368.975824 
L 552.24 368.975824 
" clip-path="url(#pa5fdb16020)" style="fill: none; stroke: #cccccc; stroke-opacity: 0.4; stroke-linecap: round"/>
     </g>
    </g>
    <g id="ytick_2">
     <g id="line2d_12">
      <path d="M 25.392614 317.791306 
L 552.24 317.791306 
" clip-path="url(#pa5fdb16020)" style="fill: none; stroke: #cccccc; stroke-opacity: 0.4; stroke-linecap: round"/>
     </g>
    </g>
    <g id="ytick_3">
     <g id="line2d_13">
      <path d="M 25.392614 266.606789 
L 552.24 266.606789 
" clip-path="url(#pa5fdb16020)" style="fill: none; stroke: #cccccc; stroke-opacity: 0.4; stroke-linecap: round"/>
     </g>
    </g>
    <g id="ytick_4">
     <g id="line2d_14">
      <path d="M 25.392614 215.422272 
L 552.24 215.422272 
" clip-path="url(#pa5fdb16020)" style="fill: none; stroke: #cccccc; stroke-opacity: 0.4; stroke-linecap: round"/>
     </g>
    </g>
    <g id="ytick_5">
     <g id="line2d_15">
      <path d="M 25.392614 164.237754 
L 552.24 164.237754 
" clip-path="url(#pa5fdb16020)" style="fill: none; stroke: #cccccc; stroke-opacity: 0.4; stroke-linecap: round"/>
     </g>
    </g>
    <g id="ytick_6">
     <g id="line2d_16">
      <path d="M 25.392614 113.053237 
L 552.24 113.053237 
" clip-path="url(#pa5fdb16020)" style="fill: none; stroke: #cccccc; stroke-opacity: 0.4; stroke-linecap: round"/>
     </g>
    </g>
    <g id="ytick_7">
     <g id="line2d_17">
      <path d="M 25.392614 61.86872 
L 552.24 61.86872 
" clip-path="url(#pa5fdb16020)" style="fill: none; stroke: #cccccc; stroke-opacity: 0.4; stroke-linecap: round"/>
     </g>
    </g>
   </g>
   <g id="line2d_18">
    <path d="M 91.394404 365.001376 
L 95.669336 364.870426 
L 102.509226 364.152123 
L 105.929171 363.545054 
L 110.204102 362.579681 
L 115.33402 361.084276 
L 120.463938 359.300697 
L 133.288732 353.971185 
L 143.548567 349.103683 
L 148.678485 346.457266 
L 164.068238 337.789173 
L 169.198155 334.46553 
L 171.763114 332.551069 
L 174.328073 330.4678 
L 176.893032 328.034031 
L 179.457991 325.195008 
L 182.022949 321.866605 
L 184.587908 318.024226 
L 187.152867 313.578538 
L 189.717826 308.51747 
L 192.282785 302.863755 
L 195.70273 294.369709 
L 198.267689 287.46511 
L 201.687634 277.509261 
L 206.817552 261.562032 
L 221.352318 214.81266 
L 226.482236 199.287625 
L 229.902181 189.487422 
L 233.322126 180.310757 
L 235.887085 173.860142 
L 239.30703 165.919996 
L 241.871989 160.501461 
L 244.436948 155.522577 
L 247.001907 151.088902 
L 249.566865 147.174612 
L 252.131824 143.704015 
L 255.551769 139.616699 
L 258.116728 136.970906 
L 261.536673 133.751707 
L 270.941522 124.942738 
L 276.926426 118.605167 
L 282.91133 112.235889 
L 285.476289 109.818269 
L 287.186262 108.509172 
L 288.896234 107.321311 
L 290.606207 106.43237 
L 292.316179 105.772689 
L 294.026152 105.424353 
L 296.591111 105.468312 
L 298.301083 105.902106 
L 300.011056 106.598416 
L 301.721028 107.545614 
L 303.431001 108.75622 
L 305.99596 110.970268 
L 307.705932 112.600962 
L 310.270891 115.355423 
L 330.790562 138.862985 
L 336.775466 146.13268 
L 340.195411 150.66008 
L 343.615356 155.487494 
L 347.890287 162.15273 
L 350.455246 166.567815 
L 353.020205 171.272851 
L 356.44015 178.208461 
L 359.860095 185.973988 
L 363.28004 194.54823 
L 365.844999 201.514048 
L 369.264944 211.450232 
L 373.539875 224.475861 
L 384.654697 258.826771 
L 388.074642 268.504088 
L 391.494587 277.501051 
L 394.914532 285.770419 
L 397.479491 291.423014 
L 400.04445 296.736245 
L 403.464395 303.286017 
L 406.88434 309.23815 
L 410.304285 314.754852 
L 413.72423 319.807836 
L 417.144176 324.561504 
L 420.564121 328.849324 
L 423.984066 332.740578 
L 426.549025 335.419738 
L 429.96897 338.671391 
L 433.388915 341.516098 
L 435.953874 343.44251 
L 439.373819 345.74584 
L 444.503736 348.907812 
L 453.053599 353.684044 
L 458.183517 356.363445 
L 461.603462 357.940647 
L 465.878393 359.679158 
L 469.298338 360.730726 
L 472.718284 361.53961 
L 476.138229 362.072763 
L 478.703187 362.291195 
L 482.978119 362.431143 
L 489.818009 362.331335 
L 497.512886 362.263588 
L 511.192666 362.843703 
L 521.452501 363.43537 
L 528.292392 363.59837 
L 528.292392 363.59837 
" clip-path="url(#pa5fdb16020)" style="fill: none; stroke: #7570b3; stroke-width: 0.875; stroke-linecap: round"/>
   </g>
   <g id="line2d_19">
    <path d="M 144.282738 350.77157 
L 146.46057 350.59838 
L 147.912458 350.306891 
L 149.364346 349.82788 
L 151.542179 348.901784 
L 154.445955 347.169375 
L 157.349731 344.905732 
L 159.527564 342.904912 
L 162.43134 339.74826 
L 164.609172 337.009157 
L 167.512949 332.978429 
L 169.690781 329.622621 
L 172.594558 324.790662 
L 176.224278 318.131673 
L 179.128054 312.365937 
L 182.757775 304.725299 
L 190.74316 286.803751 
L 199.454489 267.158284 
L 207.439874 250.166352 
L 214.699315 234.975939 
L 220.506868 222.183263 
L 224.136589 213.638569 
L 228.492253 202.9974 
L 232.847918 191.974046 
L 243.737079 164.550519 
L 247.3668 155.926339 
L 250.270576 149.410889 
L 253.174353 143.291627 
L 256.078129 137.713048 
L 258.981905 132.671085 
L 261.159738 129.29356 
L 262.611626 127.291806 
L 265.515402 123.739723 
L 268.419179 120.85483 
L 271.322955 118.582796 
L 274.226731 116.79939 
L 277.130508 115.436664 
L 284.389949 112.781772 
L 287.293725 111.697041 
L 293.827222 108.907913 
L 296.730999 107.242657 
L 299.634775 105.56016 
L 302.538551 104.004333 
L 304.716384 102.897158 
L 306.894216 102.067205 
L 308.346104 101.587365 
L 310.523936 101.162472 
L 311.249881 101.105557 
L 314.153657 101.453422 
L 315.605545 101.967106 
L 317.057433 102.637031 
L 318.509322 103.584136 
L 319.96121 104.799977 
L 321.413098 106.295931 
L 322.864986 108.088384 
L 325.042818 111.219447 
L 327.220651 114.962239 
L 329.398483 119.252809 
L 331.576315 124.070551 
L 334.480092 131.107525 
L 337.383868 138.881319 
L 341.013589 149.327734 
L 346.095197 164.783676 
L 356.258415 196.309488 
L 360.614079 209.193778 
L 363.517856 217.255931 
L 367.147576 226.689756 
L 370.051353 233.79087 
L 373.681073 242.161722 
L 380.21457 256.166237 
L 386.748067 269.388212 
L 391.829676 279.409932 
L 396.911284 288.81782 
L 399.815061 293.598235 
L 402.718837 298.089873 
L 405.622613 302.041121 
L 409.252334 306.419898 
L 412.882054 310.213488 
L 419.415551 316.343428 
L 425.223104 321.844389 
L 430.304713 327.058343 
L 436.112266 333.470961 
L 445.549539 344.018244 
L 450.631148 349.233088 
L 454.986812 353.266095 
L 458.616533 356.235405 
L 462.246253 358.849558 
L 465.15003 360.638386 
L 467.327862 361.755101 
L 470.231638 363.022575 
L 473.135415 364.050887 
L 475.313247 364.655271 
L 478.217023 365.213814 
L 481.846744 365.641932 
L 485.476464 365.803251 
L 489.832129 365.753081 
L 496.365626 365.431874 
L 512.336396 364.666909 
L 515.240172 364.636521 
L 515.240172 364.636521 
" clip-path="url(#pa5fdb16020)" style="fill: none; stroke-dasharray: 0.875,1.44375; stroke-dashoffset: 0; stroke: #7570b3; stroke-width: 0.875"/>
   </g>
   <g id="line2d_20">
    <path d="M 133.349489 354.396413 
L 135.946501 354.243667 
L 139.842019 353.600221 
L 141.140525 353.274334 
L 143.737537 352.469927 
L 147.633055 350.912705 
L 150.87932 349.324726 
L 154.125585 347.505303 
L 156.722598 345.837279 
L 159.968863 343.532442 
L 163.215128 340.928303 
L 167.110646 337.334429 
L 171.655417 332.554468 
L 174.901682 328.818677 
L 179.446453 323.224566 
L 186.588237 314.055866 
L 194.379273 303.618945 
L 198.274791 297.959581 
L 200.871803 293.732655 
L 203.468815 289.056459 
L 206.065827 283.86682 
L 208.66284 278.061218 
L 211.259852 271.533806 
L 213.856864 264.316683 
L 216.453876 256.444526 
L 219.700141 245.815385 
L 223.595659 232.292242 
L 232.035948 202.204297 
L 235.282214 191.429726 
L 237.879226 183.410649 
L 240.476238 176.034071 
L 243.07325 169.369358 
L 245.670262 163.457241 
L 247.618021 159.547358 
L 249.56578 155.971567 
L 250.864286 153.759892 
L 253.461298 149.963652 
L 256.05831 146.668991 
L 258.00607 144.581792 
L 259.953829 142.64646 
L 261.901588 140.853795 
L 263.849347 139.131502 
L 268.394118 135.34136 
L 271.640383 132.390149 
L 274.237395 129.751619 
L 277.48366 125.86524 
L 280.080672 122.373758 
L 283.326937 117.384504 
L 287.222456 110.803223 
L 294.364239 98.226062 
L 297.610504 93.346242 
L 300.207516 90.10122 
L 302.155275 88.282037 
L 303.453781 87.339658 
L 305.40154 86.392396 
L 306.700046 86.156844 
L 307.998552 86.197084 
L 309.297059 86.552824 
L 310.595565 87.257128 
L 311.244818 87.663719 
L 313.192577 89.454718 
L 314.491083 90.995481 
L 316.438842 93.759762 
L 318.386601 97.048087 
L 320.983613 102.126418 
L 323.580625 107.835535 
L 327.476143 117.010816 
L 336.565686 139.114376 
L 343.707469 155.122465 
L 350.199999 168.709931 
L 357.341782 182.843785 
L 363.18506 194.200305 
L 367.080578 201.821106 
L 373.573108 215.208295 
L 378.117879 225.286816 
L 383.961156 239.06669 
L 392.401446 259.247886 
L 396.946217 269.530966 
L 402.140241 280.475258 
L 406.035759 288.1403 
L 410.580531 296.538901 
L 417.073061 307.937918 
L 420.968579 314.409228 
L 424.864097 320.461587 
L 427.461109 324.257266 
L 431.356627 329.549298 
L 435.252145 334.302297 
L 437.849158 337.153729 
L 441.095423 340.359364 
L 444.341688 343.128378 
L 446.9387 345.045488 
L 450.184965 347.060887 
L 452.781977 348.407205 
L 456.028242 349.70707 
L 458.625254 350.453216 
L 461.222266 351.031599 
L 463.819279 351.268137 
L 465.117785 351.338305 
L 465.117785 351.338305 
" clip-path="url(#pa5fdb16020)" style="fill: none; stroke-dasharray: 3.2375,1.4; stroke-dashoffset: 0; stroke: #7570b3; stroke-width: 0.875"/>
   </g>
   <g id="line2d_21">
    <path d="M 49.340222 366.192495 
L 57.607369 366.309233 
L 65.874516 366.407425 
L 71.385947 366.283937 
L 86.083097 365.15747 
L 90.675956 364.553087 
L 95.268816 363.719424 
L 98.943103 362.859187 
L 104.454534 361.301025 
L 112.721681 358.939359 
L 116.395969 358.159012 
L 119.151684 357.688653 
L 121.9074 357.396448 
L 127.418831 357.122984 
L 132.930263 356.967228 
L 136.60455 356.633647 
L 139.360266 356.101261 
L 141.197409 355.583232 
L 143.034553 354.919487 
L 144.871697 354.089556 
L 146.708841 353.062126 
L 149.464556 351.226928 
L 151.3017 349.765903 
L 154.057416 347.226073 
L 156.813131 344.3808 
L 159.568847 341.264916 
L 164.161706 335.670561 
L 188.963147 303.776918 
L 192.637434 298.42528 
L 197.230294 291.129029 
L 201.823153 283.152473 
L 209.171728 269.690791 
L 220.194591 248.54363 
L 225.706022 237.172342 
L 230.298881 226.881569 
L 234.891741 215.711518 
L 238.566028 206.205891 
L 243.158887 193.386511 
L 246.833175 182.461478 
L 251.426034 167.725659 
L 262.448897 131.522959 
L 265.204612 123.433824 
L 267.960328 116.155189 
L 269.797472 111.726788 
L 271.634615 107.706013 
L 273.471759 104.109707 
L 276.227475 99.282982 
L 278.98319 94.991667 
L 282.657478 89.837221 
L 292.761769 76.908726 
L 296.436056 72.865841 
L 298.2732 71.068278 
L 300.110344 69.632815 
L 301.028915 69.033965 
L 302.866059 68.261079 
L 304.703203 67.819569 
L 305.621775 67.759659 
L 306.540347 67.826943 
L 307.458919 68.015045 
L 309.296062 68.758077 
L 310.214634 69.289845 
L 312.051778 70.750428 
L 313.888922 72.765227 
L 315.726065 75.111003 
L 317.563209 77.867175 
L 319.400353 81.132626 
L 321.237497 84.760344 
L 323.993212 90.825411 
L 326.748928 97.701295 
L 329.504644 105.073897 
L 333.178931 115.753062 
L 336.853219 127.057057 
L 342.36465 144.881941 
L 347.876081 163.208718 
L 354.306084 185.210862 
L 366.247519 226.018533 
L 369.921806 237.79368 
L 372.677522 245.956244 
L 375.433237 253.416298 
L 378.188953 260.272652 
L 380.944668 266.525654 
L 383.700384 272.15128 
L 386.4561 277.262332 
L 390.130387 283.606355 
L 394.723247 290.725098 
L 402.071822 301.584466 
L 408.501825 310.745908 
L 417.687543 323.473507 
L 425.95469 334.552627 
L 429.628978 339.174914 
L 433.303265 343.442198 
L 436.058981 346.32398 
L 438.814697 348.828164 
L 441.570412 351.032211 
L 444.326128 352.888907 
L 446.163272 353.919363 
L 448.918987 355.195533 
L 451.674703 356.250413 
L 455.34899 357.375498 
L 459.94185 358.508611 
L 469.127568 360.741518 
L 477.394715 362.909342 
L 485.661862 364.985522 
L 490.254721 365.90885 
L 494.847581 366.555365 
L 498.521868 366.845949 
L 503.114728 366.94861 
L 507.707587 366.830058 
L 518.73045 366.460691 
L 518.73045 366.460691 
" clip-path="url(#pa5fdb16020)" style="fill: none; stroke-dasharray: 5.6,1.4,0.875,1.4; stroke-dashoffset: 0; stroke: #7570b3; stroke-width: 0.875"/>
   </g>
   <g id="patch_3">
    <path d="M 25.392614 381.9125 
L 552.24 381.9125 
" style="fill: none; stroke: #333333; stroke-width: 1.5; stroke-linejoin: miter; stroke-linecap: square"/>
   </g>
   <g id="text_6">
    <!-- $x_1x_3$ -->
    <g style="fill: #262626" transform="translate(256.866307 46.560937)">
     <text>
      <tspan x="0" y="-0.59375" style="font-style: oblique; font-size: 30px; font-family: 'DejaVu Sans'; fill: #262626">x</tspan>
      <tspan x="31.935059" y="-0.59375" style="font-style: oblique; font-size: 30px; font-family: 'DejaVu Sans'; fill: #262626">x</tspan>
      <tspan x="17.753906" y="4.328125" style="font-size: 21px; font-family: 'DejaVu Sans'; fill: #262626">1</tspan>
      <tspan x="49.688965" y="4.328125" style="font-size: 21px; font-family: 'DejaVu Sans'; fill: #262626">3</tspan>
     </text>
    </g>
   </g>
  </g>
 </g>
 <defs>
  <clipPath id="pa5fdb16020">
   <rect x="25.392614" y="52.8" width="526.847386" height="329.1125"/>
  </clipPath>
 </defs>
</svg>
