<?xml version="1.0" encoding="utf-8" standalone="no"?>
<!DOCTYPE svg PUBLIC "-//W3C//DTD SVG 1.1//EN"
  "http://www.w3.org/Graphics/SVG/1.1/DTD/svg11.dtd">
<svg xmlns:xlink="http://www.w3.org/1999/xlink" width="576pt" height="432pt" viewBox="0 0 576 432" xmlns="http://www.w3.org/2000/svg" version="1.1">
 <metadata>
  <rdf:RDF xmlns:dc="http://purl.org/dc/elements/1.1/" xmlns:cc="http://creativecommons.org/ns#" xmlns:rdf="http://www.w3.org/1999/02/22-rdf-syntax-ns#">
   <cc:Work>
    <dc:type rdf:resource="http://purl.org/dc/dcmitype/StillImage"/>
    <dc:date>2025-09-22T22:40:53.598464</dc:date>
    <dc:format>image/svg+xml</dc:format>
    <dc:creator>
     <cc:Agent>
      <dc:title>Matplotlib v3.10.0, https://matplotlib.org/</dc:title>
     </cc:Agent>
    </dc:creator>
   </cc:Work>
  </rdf:RDF>
 </metadata>
 <defs>
  <style type="text/css">*{stroke-linejoin: round; stroke-linecap: butt}</style>
 </defs>
 <g id="figure_1">
  <g id="patch_1">
   <path d="M 0 432 
L 576 432 
L 576 0 
L 0 0 
L 0 432 
z
" style="fill: none; opacity: 0"/>
  </g>
  <g id="axes_1">
   <g id="patch_2">
    <path d="M 23.76 381.9125 
L 552.24 381.9125 
L 552.24 59.592 
L 23.76 59.592 
L 23.76 381.9125 
z
" style="fill: none"/>
   </g>
   <g id="matplotlib.axis_1">
    <g id="xtick_1">
     <g id="line2d_1">
      <path d="M 67.427432 381.9125 
L 67.427432 59.592 
" clip-path="url(#p3450a191cc)" style="fill: none; stroke: #cccccc; stroke-opacity: 0.4; stroke-linecap: round"/>
     </g>
     <g id="line2d_2"/>
     <g id="text_1">
      <text style="font-size: 20px; font-family: 'DejaVu Serif', 'Times New Roman', serif; text-anchor: middle; fill: #262626" x="67.427432" y="404.109375" transform="rotate(-0 67.427432 404.109375)">−0.4</text>
     </g>
    </g>
    <g id="xtick_2">
     <g id="line2d_3">
      <path d="M 136.801557 381.9125 
L 136.801557 59.592 
" clip-path="url(#p3450a191cc)" style="fill: none; stroke: #cccccc; stroke-opacity: 0.4; stroke-linecap: round"/>
     </g>
     <g id="line2d_4"/>
     <g id="text_2">
      <text style="font-size: 20px; font-family: 'DejaVu Serif', 'Times New Roman', serif; text-anchor: middle; fill: #262626" x="136.801557" y="404.109375" transform="rotate(-0 136.801557 404.109375)">−0.3</text>
     </g>
    </g>
    <g id="xtick_3">
     <g id="line2d_5">
      <path d="M 206.175681 381.9125 
L 206.175681 59.592 
" clip-path="url(#p3450a191cc)" style="fill: none; stroke: #cccccc; stroke-opacity: 0.4; stroke-linecap: round"/>
     </g>
     <g id="line2d_6"/>
     <g id="text_3">
      <text style="font-size: 20px; font-family: 'DejaVu Serif', 'Times New Roman', serif; text-anchor: middle; fill: #262626" x="206.175681" y="404.109375" transform="rotate(-0 206.175681 404.109375)">−0.2</text>
     </g>
    </g>
    <g id="xtick_4">
     <g id="line2d_7">
      <path d="M 275.549806 381.9125 
L 275.549806 59.592 
" clip-path="url(#p3450a191cc)" style="fill: none; stroke: #cccccc; stroke-opacity: 0.4; stroke-linecap: round"/>
     </g>
     <g id="line2d_8"/>
     <g id="text_4">
      <text style="font-size: 20px; font-family: 'DejaVu Serif', 'Times New Roman', serif; text-anchor: middle; fill: #262626" x="275.549806" y="404.109375" transform="rotate(-0 275.549806 404.109375)">−0.1</text>
     </g>
    </g>
    <g id="xtick_5">
     <g id="line2d_9">
      <path d="M 344.923931 381.9125 
L 344.923931 59.592 
" clip-path="url(#p3450a191cc)" style="fill: none; stroke: #cccccc; stroke-opacity: 0.4; stroke-linecap: round"/>
     </g>
     <g id="line2d_10"/>
     <g id="text_5">
      <text style="font-size: 20px; font-family: 'DejaVu Serif', 'Times New Roman', serif; text-anchor: middle; fill: #262626" x="344.923931" y="404.109375" transform="rotate(-0 344.923931 404.109375)">0.0</text>
     </g>
    </g>
    <g id="xtick_6">
     <g id="line2d_11">
      <path d="M 414.298056 381.9125 
L 414.298056 59.592 
" clip-path="url(#p3450a191cc)" style="fill: none; stroke: #cccccc; stroke-opacity: 0.4; stroke-linecap: round"/>
     </g>
     <g id="line2d_12"/>
     <g id="text_6">
      <text style="font-size: 20px; font-family: 'DejaVu Serif', 'Times New Roman', serif; text-anchor: middle; fill: #262626" x="414.298056" y="404.109375" transform="rotate(-0 414.298056 404.109375)">0.1</text>
     </g>
    </g>
    <g id="xtick_7">
     <g id="line2d_13">
      <path d="M 483.672181 381.9125 
L 483.672181 59.592 
" clip-path="url(#p3450a191cc)" style="fill: none; stroke: #cccccc; stroke-opacity: 0.4; stroke-linecap: round"/>
     </g>
     <g id="line2d_14"/>
     <g id="text_7">
      <text style="font-size: 20px; font-family: 'DejaVu Serif', 'Times New Roman', serif; text-anchor: middle; fill: #262626" x="483.672181" y="404.109375" transform="rotate(-0 483.672181 404.109375)">0.2</text>
     </g>
    </g>
   </g>
   <g id="matplotlib.axis_2">
    <g id="ytick_1">
     <g id="line2d_15">
      <path d="M 23.76 369.274525 
L 552.24 369.274525 
" clip-path="url(#p3450a191cc)" style="fill: none; stroke: #cccccc; stroke-opacity: 0.4; stroke-linecap: round"/>
     </g>
    </g>
    <g id="ytick_2">
     <g id="line2d_16">
      <path d="M 23.76 303.521063 
L 552.24 303.521063 
" clip-path="url(#p3450a191cc)" style="fill: none; stroke: #cccccc; stroke-opacity: 0.4; stroke-linecap: round"/>
     </g>
    </g>
    <g id="ytick_3">
     <g id="line2d_17">
      <path d="M 23.76 237.7676 
L 552.24 237.7676 
" clip-path="url(#p3450a191cc)" style="fill: none; stroke: #cccccc; stroke-opacity: 0.4; stroke-linecap: round"/>
     </g>
    </g>
    <g id="ytick_4">
     <g id="line2d_18">
      <path d="M 23.76 172.014137 
L 552.24 172.014137 
" clip-path="url(#p3450a191cc)" style="fill: none; stroke: #cccccc; stroke-opacity: 0.4; stroke-linecap: round"/>
     </g>
    </g>
    <g id="ytick_5">
     <g id="line2d_19">
      <path d="M 23.76 106.260674 
L 552.24 106.260674 
" clip-path="url(#p3450a191cc)" style="fill: none; stroke: #cccccc; stroke-opacity: 0.4; stroke-linecap: round"/>
     </g>
    </g>
   </g>
   <g id="line2d_20">
    <path d="M 86.765813 366.511194 
L 97.132601 366.659638 
L 103.179894 366.65259 
L 107.499388 366.456659 
L 111.818883 366.031437 
L 115.274479 365.495144 
L 120.457873 364.292023 
L 123.913469 363.193856 
L 127.369064 361.889629 
L 130.82466 360.42946 
L 136.871953 357.41736 
L 141.191448 354.969325 
L 143.783145 353.360081 
L 148.102639 350.395048 
L 150.694336 348.331265 
L 153.286033 346.082943 
L 155.87773 343.592971 
L 158.469427 340.812102 
L 161.061124 337.780794 
L 164.51672 333.257787 
L 167.972316 328.354774 
L 172.29181 321.746288 
L 177.475204 313.609976 
L 183.522497 304.17959 
L 192.161486 291.325426 
L 197.34488 283.570391 
L 200.800476 278.235893 
L 205.98387 269.603342 
L 210.303365 261.990082 
L 217.214556 249.095327 
L 220.670152 242.43783 
L 224.989647 233.959065 
L 229.309142 225.030249 
L 232.764738 217.3655 
L 235.356434 211.051504 
L 237.948131 204.147613 
L 240.539828 196.77643 
L 243.131525 188.79213 
L 246.587121 177.384826 
L 250.906616 162.180493 
L 257.817807 137.886285 
L 261.273403 126.733343 
L 263.8651 119.066394 
L 267.320696 110.116955 
L 269.912393 104.250432 
L 271.640191 100.71314 
L 273.367989 97.563902 
L 275.095787 94.716561 
L 277.687483 90.93356 
L 280.27918 87.57015 
L 282.006978 85.575685 
L 284.598675 82.951745 
L 288.054271 79.989697 
L 290.645968 78.115773 
L 292.373766 77.02379 
L 294.101564 76.067626 
L 296.693261 74.980754 
L 298.421058 74.543487 
L 300.148856 74.27527 
L 301.876654 74.273532 
L 303.604452 74.535839 
L 305.33225 75.100728 
L 307.060048 76.057214 
L 308.787846 77.300989 
L 310.515644 78.891718 
L 312.243442 80.87645 
L 313.97124 83.078543 
L 315.699038 85.621768 
L 318.290735 90.002829 
L 320.018532 93.087238 
L 323.474128 100.000368 
L 327.793623 109.125469 
L 332.977017 120.641704 
L 339.02431 134.407429 
L 344.207703 147.184876 
L 346.7994 154.040882 
L 350.254996 163.787595 
L 354.574491 176.734693 
L 363.21348 203.376762 
L 368.396874 218.688284 
L 374.444167 235.38706 
L 383.083157 258.062132 
L 389.130449 273.71546 
L 394.313843 286.547137 
L 397.769439 294.38983 
L 400.361136 299.77499 
L 402.952833 304.593026 
L 405.54453 308.915955 
L 408.136226 312.69078 
L 410.727923 316.026073 
L 413.31962 318.855074 
L 415.911317 321.416118 
L 420.230812 325.271949 
L 425.414206 329.781461 
L 428.005902 332.141752 
L 433.189296 337.245347 
L 440.100488 344.403869 
L 443.556084 347.782573 
L 447.01168 350.84711 
L 449.603376 352.891279 
L 453.058972 355.246758 
L 456.514568 357.153798 
L 459.970164 358.68517 
L 463.42576 359.929831 
L 468.609154 361.486394 
L 473.792547 362.805719 
L 478.975941 363.983841 
L 483.295436 364.871443 
L 487.614931 365.606139 
L 492.798324 366.284075 
L 497.981718 366.687705 
L 503.165112 366.829743 
L 511.804102 366.637385 
L 526.490384 366.131008 
L 528.218182 366.127663 
L 528.218182 366.127663 
" clip-path="url(#p3450a191cc)" style="fill: none; stroke: #7570b3; stroke-width: 0.875; stroke-linecap: round"/>
   </g>
   <g id="line2d_21">
    <path d="M 52.200566 365.664054 
L 58.11992 365.789403 
L 64.884895 366.182275 
L 79.260468 367.123685 
L 85.179822 367.258206 
L 91.944798 367.177334 
L 98.709773 366.898502 
L 108.011615 366.412336 
L 113.930969 365.782035 
L 117.313456 365.237746 
L 120.695944 364.472524 
L 124.078432 363.366582 
L 127.46092 361.960549 
L 129.997786 360.681339 
L 132.534652 359.180476 
L 135.917139 356.846665 
L 140.145249 353.475104 
L 145.218981 348.88982 
L 151.138335 343.091525 
L 180.735103 312.82935 
L 183.271969 309.991057 
L 186.654457 305.882852 
L 189.191323 302.570257 
L 192.57381 297.620216 
L 195.110676 293.460508 
L 197.647542 288.908901 
L 200.184408 283.873929 
L 203.566896 276.598706 
L 206.103762 270.642967 
L 210.331872 260.020864 
L 214.559981 248.763617 
L 221.324957 229.888877 
L 240.774262 174.463167 
L 246.693616 158.815756 
L 250.921725 148.417913 
L 254.304213 140.622584 
L 257.686701 133.582519 
L 261.069189 127.240825 
L 263.606055 122.982483 
L 266.142921 119.214182 
L 268.679786 115.896333 
L 271.216652 113.013295 
L 273.753518 110.609169 
L 275.444762 109.257805 
L 277.981628 107.525407 
L 279.672872 106.564827 
L 282.209738 105.320568 
L 287.283469 103.4646 
L 290.665957 102.581614 
L 294.048445 101.773421 
L 297.430933 101.28101 
L 299.967799 101.149807 
L 302.504665 101.357887 
L 304.195909 101.746263 
L 305.887152 102.293866 
L 307.578396 103.053819 
L 309.26964 104.081336 
L 310.960884 105.404965 
L 312.652128 106.959685 
L 314.343372 108.773016 
L 316.880238 111.960448 
L 318.571482 114.365261 
L 321.108348 118.430628 
L 325.336457 126.027943 
L 329.564567 134.321706 
L 340.557653 156.708234 
L 363.389445 204.680852 
L 371.000043 220.526414 
L 376.919397 232.252007 
L 380.301885 238.631111 
L 387.06686 250.936404 
L 395.52308 265.606835 
L 432.730446 328.797528 
L 437.804178 336.639591 
L 441.186665 341.46798 
L 443.723531 344.773899 
L 447.106019 348.71451 
L 449.642885 351.329645 
L 452.179751 353.574685 
L 454.716617 355.522537 
L 457.253482 357.089033 
L 459.790348 358.370031 
L 461.481592 359.080795 
L 464.018458 359.890158 
L 467.400946 360.593826 
L 470.783434 360.985083 
L 474.165922 361.135942 
L 480.930897 361.144799 
L 484.313385 361.11514 
L 484.313385 361.11514 
" clip-path="url(#p3450a191cc)" style="fill: none; stroke-dasharray: 0.875,1.44375; stroke-dashoffset: 0; stroke: #7570b3; stroke-width: 0.875"/>
   </g>
   <g id="line2d_22">
    <path d="M 47.781818 364.340856 
L 57.120305 364.456633 
L 66.458792 364.826359 
L 82.588906 365.646487 
L 87.682626 365.652846 
L 91.927393 365.452671 
L 95.323207 365.122309 
L 100.416927 364.371018 
L 104.661694 363.49525 
L 110.604367 362.001088 
L 118.244947 359.76812 
L 124.187621 357.676077 
L 128.432388 355.858242 
L 131.828201 354.141315 
L 136.072968 351.514009 
L 138.619828 349.618822 
L 141.166688 347.510623 
L 143.713548 345.109238 
L 146.260408 342.415685 
L 148.807268 339.411596 
L 151.354129 336.108602 
L 153.900989 332.517026 
L 157.296802 327.317836 
L 160.692616 321.759731 
L 172.577963 301.59486 
L 176.822729 295.148906 
L 179.36959 291.638348 
L 181.91645 288.435559 
L 185.312263 284.434321 
L 194.65075 273.978597 
L 197.19761 270.648822 
L 199.74447 266.956941 
L 202.29133 262.721932 
L 204.83819 257.861673 
L 207.385051 252.505968 
L 209.931911 246.649629 
L 213.327724 238.039168 
L 220.968304 217.24765 
L 225.213071 205.947008 
L 228.608885 197.561221 
L 231.155745 191.796751 
L 233.702605 186.510274 
L 236.249465 181.790295 
L 237.947372 178.875796 
L 241.343185 173.678437 
L 243.041092 171.311333 
L 246.436905 167.124073 
L 250.681672 162.399409 
L 260.869112 151.322769 
L 263.415973 148.194696 
L 267.660739 142.607252 
L 275.30132 131.55883 
L 278.697133 126.609346 
L 282.092947 121.954594 
L 284.639807 118.837492 
L 287.186667 116.061018 
L 288.884573 114.37766 
L 290.58248 113.018798 
L 292.280387 111.841262 
L 293.978294 110.904838 
L 295.6762 110.160572 
L 297.374107 109.670056 
L 299.920967 109.197763 
L 301.618874 109.161999 
L 304.165734 109.42909 
L 305.863641 109.813054 
L 308.410501 110.682701 
L 311.806314 112.279008 
L 315.202128 114.301576 
L 317.748988 116.116526 
L 320.295848 118.233931 
L 321.993755 119.742897 
L 323.691661 121.465692 
L 326.238521 124.235857 
L 328.785382 127.414629 
L 331.332242 130.89243 
L 333.879102 134.81261 
L 336.425962 139.114288 
L 338.972822 143.859127 
L 341.519682 148.958988 
L 344.915495 156.468037 
L 349.160262 166.866667 
L 352.556076 175.761677 
L 355.951889 185.259668 
L 361.045609 200.383043 
L 376.32677 246.64784 
L 380.571537 258.240947 
L 383.96735 266.803364 
L 386.51421 272.74618 
L 389.06107 278.252683 
L 391.60793 283.24168 
L 395.003744 289.334562 
L 398.399557 294.557758 
L 401.795371 299.171611 
L 405.191184 303.279154 
L 408.586998 306.913875 
L 411.982811 310.241078 
L 416.227578 314.088205 
L 433.206645 329.053074 
L 451.034666 345.780324 
L 456.128386 349.972328 
L 459.524199 352.434781 
L 462.07106 354.069406 
L 466.315826 356.272558 
L 469.71164 357.658709 
L 473.107453 358.704819 
L 475.654313 359.24987 
L 479.050127 359.716451 
L 481.596987 359.829762 
L 481.596987 359.829762 
" clip-path="url(#p3450a191cc)" style="fill: none; stroke-dasharray: 3.2375,1.4; stroke-dashoffset: 0; stroke: #7570b3; stroke-width: 0.875"/>
   </g>
   <g id="line2d_23">
    <path d="M 68.130597 364.939879 
L 91.55443 364.85268 
L 97.627276 364.565427 
L 102.832572 364.030145 
L 106.30277 363.460598 
L 110.640516 362.411071 
L 114.978263 361.030383 
L 118.448461 359.686456 
L 122.786208 357.775254 
L 144.474942 347.425406 
L 154.885535 342.569125 
L 160.958381 339.363197 
L 164.428578 337.223857 
L 167.898776 334.715551 
L 170.501424 332.612816 
L 173.104072 330.186521 
L 175.70672 327.433014 
L 178.309368 324.41265 
L 180.912017 321.093935 
L 184.382214 316.154402 
L 187.852412 310.797472 
L 193.057708 302.127197 
L 199.130554 291.36672 
L 206.938498 276.807435 
L 211.276245 268.315038 
L 215.613992 259.086071 
L 219.08419 251.182701 
L 222.554387 242.689778 
L 226.024585 233.535293 
L 230.362332 221.133425 
L 236.435177 202.542883 
L 246.84577 170.637675 
L 251.183517 158.553756 
L 254.653714 149.703019 
L 258.123912 141.528192 
L 261.594109 134.111039 
L 264.196758 129.016555 
L 267.666955 122.743942 
L 270.269603 118.411781 
L 272.872251 114.480213 
L 276.342449 109.709861 
L 278.077548 107.504257 
L 280.680196 104.491577 
L 282.415295 102.648176 
L 285.017943 100.193926 
L 288.48814 97.495913 
L 290.223239 96.340144 
L 293.693437 94.592136 
L 295.428535 93.902154 
L 297.163634 93.392438 
L 299.766282 92.899978 
L 302.36893 92.584585 
L 304.104029 92.508537 
L 305.839128 92.547292 
L 308.441776 92.777632 
L 310.176875 93.08968 
L 311.911974 93.558409 
L 315.382171 94.771461 
L 317.984819 95.966412 
L 320.587468 97.491403 
L 322.322566 98.721269 
L 324.925214 100.997339 
L 327.527863 103.769518 
L 330.130511 107.141923 
L 332.733159 111.160936 
L 335.335807 115.696244 
L 337.938455 120.999513 
L 340.541103 126.950026 
L 344.011301 135.755865 
L 347.481498 145.487263 
L 350.951696 156.197723 
L 353.554344 164.598681 
L 358.75964 182.502141 
L 372.640431 231.257523 
L 376.110628 242.207199 
L 378.713276 249.687074 
L 381.315924 256.542747 
L 383.918573 262.642202 
L 386.521221 267.995143 
L 388.25632 271.231947 
L 389.991418 274.137424 
L 392.594066 277.989883 
L 395.196715 281.433881 
L 398.666912 285.46824 
L 404.739758 292.046383 
L 408.209955 295.789874 
L 412.547702 300.811707 
L 416.0179 305.256975 
L 419.488097 309.979114 
L 433.368888 329.736784 
L 436.839085 334.209916 
L 440.309283 338.298465 
L 443.77948 341.98406 
L 447.249678 345.269408 
L 450.719875 348.167309 
L 454.190073 350.808195 
L 458.52782 353.718684 
L 462.865567 356.348463 
L 468.070863 359.067491 
L 471.54106 360.651966 
L 475.011258 362.023684 
L 478.481456 363.185072 
L 481.951653 364.064146 
L 485.421851 364.744922 
L 488.892048 365.212009 
L 493.229795 365.562956 
L 498.435091 365.674571 
L 510.580783 365.577733 
L 511.448332 365.574958 
L 511.448332 365.574958 
" clip-path="url(#p3450a191cc)" style="fill: none; stroke-dasharray: 5.6,1.4,0.875,1.4; stroke-dashoffset: 0; stroke: #7570b3; stroke-width: 0.875"/>
   </g>
   <g id="patch_3">
    <path d="M 23.76 381.9125 
L 552.24 381.9125 
" style="fill: none; stroke: #333333; stroke-width: 1.5; stroke-linejoin: miter; stroke-linecap: square"/>
   </g>
   <g id="text_8">
    <!-- $x_1^2x_2^2x_3$ -->
    <g style="fill: #262626" transform="translate(238.65 51.192)">
     <text>
      <tspan x="0" y="-0.929688" style="font-style: oblique; font-size: 30px; font-family: 'DejaVu Sans'; fill: #262626">x</tspan>
      <tspan x="33.274902" y="-0.929688" style="font-style: oblique; font-size: 30px; font-family: 'DejaVu Sans'; fill: #262626">x</tspan>
      <tspan x="66.549805" y="-0.929688" style="font-style: oblique; font-size: 30px; font-family: 'DejaVu Sans'; fill: #262626">x</tspan>
      <tspan x="17.753906" y="7.273438" style="font-size: 21px; font-family: 'DejaVu Sans'; fill: #262626">1</tspan>
      <tspan x="19.09375" y="-12.414063" style="font-size: 21px; font-family: 'DejaVu Sans'; fill: #262626">2</tspan>
      <tspan x="51.028809" y="7.273438" style="font-size: 21px; font-family: 'DejaVu Sans'; fill: #262626">2</tspan>
      <tspan x="52.368652" y="-12.414063" style="font-size: 21px; font-family: 'DejaVu Sans'; fill: #262626">2</tspan>
      <tspan x="84.303711" y="3.992188" style="font-size: 21px; font-family: 'DejaVu Sans'; fill: #262626">3</tspan>
     </text>
    </g>
   </g>
  </g>
 </g>
 <defs>
  <clipPath id="p3450a191cc">
   <rect x="23.76" y="59.592" width="528.48" height="322.3205"/>
  </clipPath>
 </defs>
</svg>
