<?xml version="1.0" encoding="utf-8" standalone="no"?>
<!DOCTYPE svg PUBLIC "-//W3C//DTD SVG 1.1//EN"
  "http://www.w3.org/Graphics/SVG/1.1/DTD/svg11.dtd">
<svg xmlns:xlink="http://www.w3.org/1999/xlink" width="576pt" height="432pt" viewBox="0 0 576 432" xmlns="http://www.w3.org/2000/svg" version="1.1">
 <metadata>
  <rdf:RDF xmlns:dc="http://purl.org/dc/elements/1.1/" xmlns:cc="http://creativecommons.org/ns#" xmlns:rdf="http://www.w3.org/1999/02/22-rdf-syntax-ns#">
   <cc:Work>
    <dc:type rdf:resource="http://purl.org/dc/dcmitype/StillImage"/>
    <dc:date>2025-09-22T22:40:53.546365</dc:date>
    <dc:format>image/svg+xml</dc:format>
    <dc:creator>
     <cc:Agent>
      <dc:title>Matplotlib v3.10.0, https://matplotlib.org/</dc:title>
     </cc:Agent>
    </dc:creator>
   </cc:Work>
  </rdf:RDF>
 </metadata>
 <defs>
  <style type="text/css">*{stroke-linejoin: round; stroke-linecap: butt}</style>
 </defs>
 <g id="figure_1">
  <g id="patch_1">
   <path d="M 0 432 
L 576 432 
L 576 0 
L 0 0 
L 0 432 
z
" style="fill: none; opacity: 0"/>
  </g>
  <g id="axes_1">
   <g id="patch_2">
    <path d="M 23.76 381.9125 
L 539.051062 381.9125 
L 539.051062 59.592 
L 23.76 59.592 
L 23.76 381.9125 
z
" style="fill: none"/>
   </g>
   <g id="matplotlib.axis_1">
    <g id="xtick_1">
     <g id="line2d_1">
      <path d="M 108.617741 381.9125 
L 108.617741 59.592 
" clip-path="url(#pce3b1171cd)" style="fill: none; stroke: #cccccc; stroke-opacity: 0.4; stroke-linecap: round"/>
     </g>
     <g id="line2d_2"/>
     <g id="text_1">
      <text style="font-size: 20px; font-family: 'DejaVu Serif', 'Times New Roman', serif; text-anchor: middle; fill: #262626" x="108.617741" y="404.109375" transform="rotate(-0 108.617741 404.109375)">−0.2</text>
     </g>
    </g>
    <g id="xtick_2">
     <g id="line2d_3">
      <path d="M 194.078516 381.9125 
L 194.078516 59.592 
" clip-path="url(#pce3b1171cd)" style="fill: none; stroke: #cccccc; stroke-opacity: 0.4; stroke-linecap: round"/>
     </g>
     <g id="line2d_4"/>
     <g id="text_2">
      <text style="font-size: 20px; font-family: 'DejaVu Serif', 'Times New Roman', serif; text-anchor: middle; fill: #262626" x="194.078516" y="404.109375" transform="rotate(-0 194.078516 404.109375)">−0.1</text>
     </g>
    </g>
    <g id="xtick_3">
     <g id="line2d_5">
      <path d="M 279.53929 381.9125 
L 279.53929 59.592 
" clip-path="url(#pce3b1171cd)" style="fill: none; stroke: #cccccc; stroke-opacity: 0.4; stroke-linecap: round"/>
     </g>
     <g id="line2d_6"/>
     <g id="text_3">
      <text style="font-size: 20px; font-family: 'DejaVu Serif', 'Times New Roman', serif; text-anchor: middle; fill: #262626" x="279.53929" y="404.109375" transform="rotate(-0 279.53929 404.109375)">0.0</text>
     </g>
    </g>
    <g id="xtick_4">
     <g id="line2d_7">
      <path d="M 365.000064 381.9125 
L 365.000064 59.592 
" clip-path="url(#pce3b1171cd)" style="fill: none; stroke: #cccccc; stroke-opacity: 0.4; stroke-linecap: round"/>
     </g>
     <g id="line2d_8"/>
     <g id="text_4">
      <text style="font-size: 20px; font-family: 'DejaVu Serif', 'Times New Roman', serif; text-anchor: middle; fill: #262626" x="365.000064" y="404.109375" transform="rotate(-0 365.000064 404.109375)">0.1</text>
     </g>
    </g>
    <g id="xtick_5">
     <g id="line2d_9">
      <path d="M 450.460839 381.9125 
L 450.460839 59.592 
" clip-path="url(#pce3b1171cd)" style="fill: none; stroke: #cccccc; stroke-opacity: 0.4; stroke-linecap: round"/>
     </g>
     <g id="line2d_10"/>
     <g id="text_5">
      <text style="font-size: 20px; font-family: 'DejaVu Serif', 'Times New Roman', serif; text-anchor: middle; fill: #262626" x="450.460839" y="404.109375" transform="rotate(-0 450.460839 404.109375)">0.2</text>
     </g>
    </g>
    <g id="xtick_6">
     <g id="line2d_11">
      <path d="M 535.921613 381.9125 
L 535.921613 59.592 
" clip-path="url(#pce3b1171cd)" style="fill: none; stroke: #cccccc; stroke-opacity: 0.4; stroke-linecap: round"/>
     </g>
     <g id="line2d_12"/>
     <g id="text_6">
      <text style="font-size: 20px; font-family: 'DejaVu Serif', 'Times New Roman', serif; text-anchor: middle; fill: #262626" x="535.921613" y="404.109375" transform="rotate(-0 535.921613 404.109375)">0.3</text>
     </g>
    </g>
   </g>
   <g id="matplotlib.axis_2">
    <g id="ytick_1">
     <g id="line2d_13">
      <path d="M 23.76 368.469777 
L 539.051062 368.469777 
" clip-path="url(#pce3b1171cd)" style="fill: none; stroke: #cccccc; stroke-opacity: 0.4; stroke-linecap: round"/>
     </g>
    </g>
    <g id="ytick_2">
     <g id="line2d_14">
      <path d="M 23.76 314.471405 
L 539.051062 314.471405 
" clip-path="url(#pce3b1171cd)" style="fill: none; stroke: #cccccc; stroke-opacity: 0.4; stroke-linecap: round"/>
     </g>
    </g>
    <g id="ytick_3">
     <g id="line2d_15">
      <path d="M 23.76 260.473033 
L 539.051062 260.473033 
" clip-path="url(#pce3b1171cd)" style="fill: none; stroke: #cccccc; stroke-opacity: 0.4; stroke-linecap: round"/>
     </g>
    </g>
    <g id="ytick_4">
     <g id="line2d_16">
      <path d="M 23.76 206.474661 
L 539.051062 206.474661 
" clip-path="url(#pce3b1171cd)" style="fill: none; stroke: #cccccc; stroke-opacity: 0.4; stroke-linecap: round"/>
     </g>
    </g>
    <g id="ytick_5">
     <g id="line2d_17">
      <path d="M 23.76 152.476288 
L 539.051062 152.476288 
" clip-path="url(#pce3b1171cd)" style="fill: none; stroke: #cccccc; stroke-opacity: 0.4; stroke-linecap: round"/>
     </g>
    </g>
    <g id="ytick_6">
     <g id="line2d_18">
      <path d="M 23.76 98.477916 
L 539.051062 98.477916 
" clip-path="url(#pce3b1171cd)" style="fill: none; stroke: #cccccc; stroke-opacity: 0.4; stroke-linecap: round"/>
     </g>
    </g>
   </g>
   <g id="line2d_19">
    <path d="M 81.095113 357.17435 
L 84.906236 357.035825 
L 87.955135 356.731762 
L 93.290709 355.81868 
L 97.101833 354.851904 
L 100.912956 353.665624 
L 106.24853 351.626326 
L 111.584103 349.318274 
L 125.304149 342.74649 
L 132.926396 338.589758 
L 136.73752 336.158797 
L 141.310869 332.739621 
L 144.359768 329.970443 
L 146.646442 327.652756 
L 148.933116 325.084726 
L 151.219791 322.172048 
L 153.506465 318.954715 
L 155.793139 315.431232 
L 158.079813 311.479574 
L 160.366488 307.128173 
L 163.415387 300.680271 
L 165.702061 295.440901 
L 169.513185 285.900003 
L 173.324309 275.586522 
L 178.659882 260.088549 
L 184.75768 241.82824 
L 192.379928 219.042265 
L 200.7644 194.972116 
L 204.575524 184.742517 
L 208.386648 175.095756 
L 211.435547 167.921556 
L 214.484446 161.480315 
L 216.77112 157.11566 
L 219.057794 153.123208 
L 221.344469 149.461942 
L 224.393368 145.158043 
L 227.442267 141.28185 
L 230.491166 137.767436 
L 243.448987 124.444358 
L 249.546785 118.136978 
L 253.357909 114.224174 
L 256.406808 111.293792 
L 259.455707 108.661115 
L 264.029055 105.298547 
L 265.553505 104.366505 
L 268.602404 102.835049 
L 270.889078 101.965441 
L 272.413528 101.637091 
L 273.937977 101.48717 
L 276.986876 101.504933 
L 279.27355 101.885645 
L 281.560225 102.553514 
L 284.609124 103.896073 
L 287.658023 105.624305 
L 289.182472 106.595597 
L 292.231371 108.441346 
L 295.28027 110.47886 
L 298.32917 112.487428 
L 299.853619 113.491156 
L 303.664743 115.967702 
L 305.951417 117.573209 
L 309.762541 120.553668 
L 312.81144 123.41419 
L 315.098114 125.997089 
L 316.622564 128.005446 
L 318.909238 131.483959 
L 321.195912 135.602076 
L 322.720362 138.643796 
L 325.007036 143.847236 
L 327.29371 149.709095 
L 329.580385 156.153314 
L 331.867059 163.072853 
L 334.915958 173.125935 
L 338.727082 186.742479 
L 344.062655 206.611555 
L 352.447128 237.339351 
L 356.258251 250.131982 
L 360.069375 261.96455 
L 363.118274 270.659604 
L 366.167173 278.645484 
L 368.453848 284.103249 
L 371.502747 290.802774 
L 374.551646 296.745122 
L 377.600545 302.132461 
L 379.887219 305.827318 
L 383.698343 311.44334 
L 387.509467 316.587884 
L 401.991737 334.979907 
L 408.85176 343.315165 
L 411.900659 346.795492 
L 415.711783 350.676853 
L 418.760682 353.437168 
L 421.047356 355.265209 
L 423.33403 356.882092 
L 426.382929 358.697112 
L 429.431828 360.163705 
L 431.718503 361.034384 
L 434.005177 361.733432 
L 437.054076 362.453273 
L 440.8652 363.037733 
L 445.438548 363.344828 
L 448.487447 363.420813 
L 455.34747 363.302633 
L 469.067516 362.897764 
L 470.591966 362.888465 
L 470.591966 362.888465 
" clip-path="url(#pce3b1171cd)" style="fill: none; stroke: #7570b3; stroke-width: 0.875; stroke-linecap: round"/>
   </g>
   <g id="line2d_20">
    <path d="M 70.391435 363.220928 
L 77.361882 362.913856 
L 82.589718 362.394717 
L 86.946247 361.777858 
L 91.302777 360.90841 
L 95.659306 359.836952 
L 101.758447 357.956216 
L 106.114977 356.227649 
L 109.6002 354.590052 
L 112.214118 353.177039 
L 115.699341 351.008227 
L 119.184565 348.50606 
L 122.669788 345.682494 
L 126.155012 342.407064 
L 129.640235 338.702677 
L 133.996765 333.467164 
L 136.610682 330.015294 
L 139.2246 326.278818 
L 142.709824 320.903956 
L 145.323741 316.60711 
L 148.808965 310.506983 
L 153.165494 302.20965 
L 157.522024 293.270435 
L 163.621165 279.87766 
L 169.720306 265.695821 
L 178.433365 244.52089 
L 184.532506 229.62354 
L 189.760341 217.234136 
L 194.988177 205.378786 
L 202.82993 188.435046 
L 210.671682 171.391198 
L 214.156906 163.342588 
L 217.64213 154.927548 
L 225.483882 135.095033 
L 228.969106 126.443752 
L 232.45433 118.609384 
L 235.068247 113.328086 
L 236.810859 110.185122 
L 238.553471 107.441605 
L 240.296082 104.968244 
L 242.038694 102.892259 
L 243.781306 101.105714 
L 245.523918 99.681693 
L 248.137835 98.001516 
L 249.880447 97.21611 
L 252.494365 96.39635 
L 255.108282 95.944632 
L 258.593506 95.609709 
L 263.821341 95.272988 
L 266.435259 95.183258 
L 269.920482 95.311761 
L 272.5344 95.689523 
L 274.277012 96.144399 
L 276.019624 96.798332 
L 278.633541 98.110661 
L 280.376153 99.269557 
L 282.118765 100.618939 
L 283.861377 102.225471 
L 285.603988 104.116627 
L 287.3466 106.238965 
L 289.089212 108.562304 
L 292.574435 113.747202 
L 296.059659 119.592321 
L 298.673577 124.273156 
L 302.1588 130.866376 
L 306.51533 139.698917 
L 310.000553 147.131211 
L 313.485777 155.063784 
L 317.842306 165.724712 
L 321.32753 174.843055 
L 327.426671 191.656999 
L 337.882341 220.82706 
L 341.367565 229.74019 
L 345.724094 240.075232 
L 348.338012 245.770457 
L 351.823235 252.71369 
L 355.308459 258.961634 
L 358.793683 264.711956 
L 363.150212 271.517166 
L 370.991965 283.691012 
L 374.477188 289.480776 
L 378.833718 297.157157 
L 383.190247 305.27928 
L 391.903306 321.76419 
L 395.38853 327.871304 
L 398.873753 333.455393 
L 401.487671 337.199934 
L 404.101588 340.584852 
L 405.8442 342.606522 
L 408.458118 345.320667 
L 411.072035 347.752731 
L 413.685953 349.805466 
L 416.299871 351.610624 
L 418.913788 353.197313 
L 422.399012 355.000407 
L 425.01293 356.187121 
L 429.369459 357.931602 
L 433.725988 359.375937 
L 439.82513 361.021719 
L 447.666883 362.772024 
L 454.63733 364.101481 
L 461.607777 365.303659 
L 465.964306 365.982456 
L 472.063447 366.725579 
L 477.291283 367.130013 
L 481.647812 367.261568 
L 486.004341 367.169841 
L 489.489565 366.948867 
L 494.7174 366.389062 
L 511.272212 364.259078 
L 514.757436 364.09735 
L 515.628741 364.085563 
L 515.628741 364.085563 
" clip-path="url(#pce3b1171cd)" style="fill: none; stroke-dasharray: 0.875,1.44375; stroke-dashoffset: 0; stroke: #7570b3; stroke-width: 0.875"/>
   </g>
   <g id="line2d_21">
    <path d="M 86.187423 356.156906 
L 88.504783 355.976403 
L 90.822142 355.577579 
L 92.367048 355.141932 
L 94.684408 354.30095 
L 97.001767 353.231925 
L 100.09158 351.524176 
L 102.40894 350.013146 
L 107.043659 346.584572 
L 113.223284 341.611538 
L 121.720269 334.37697 
L 124.810081 331.54001 
L 130.217253 326.113969 
L 133.307066 322.685168 
L 136.396879 318.977561 
L 141.031598 312.981802 
L 153.390848 296.490544 
L 156.480661 292.771932 
L 159.570474 289.38073 
L 162.660286 286.426022 
L 165.750099 283.717007 
L 175.019537 276.063131 
L 177.336896 273.87187 
L 178.881803 272.227853 
L 181.199162 269.434262 
L 183.516522 266.130341 
L 185.061428 263.632925 
L 187.378788 259.426035 
L 189.696147 254.453166 
L 192.013507 248.875624 
L 193.558413 244.767232 
L 196.648225 235.58363 
L 198.965585 227.9887 
L 202.055398 217.009829 
L 205.917663 202.408979 
L 211.324836 181.845279 
L 214.414648 171.033139 
L 216.732008 163.623161 
L 219.049367 157.128491 
L 220.594274 153.374866 
L 222.13918 150.137561 
L 223.684086 147.355108 
L 225.228993 145.063475 
L 226.773899 143.257309 
L 228.318805 141.908821 
L 229.863712 140.996131 
L 231.408618 140.424158 
L 232.953524 140.221984 
L 234.498431 140.29119 
L 236.043337 140.53763 
L 237.588243 140.992666 
L 241.450509 142.373459 
L 244.540322 143.51293 
L 246.085228 143.871043 
L 248.402587 144.030396 
L 249.947494 143.829156 
L 251.4924 143.386314 
L 253.037306 142.684294 
L 254.582213 141.524212 
L 256.127119 140.132066 
L 257.672025 138.428301 
L 259.216932 136.313938 
L 261.534291 132.636316 
L 263.079198 129.85781 
L 265.396557 125.290709 
L 272.348636 110.848526 
L 273.893542 107.952919 
L 276.210901 104.16088 
L 277.755808 102.165341 
L 279.300714 100.537489 
L 280.073167 99.893584 
L 281.618073 99.02223 
L 282.390527 98.722123 
L 283.935433 98.536848 
L 285.480339 98.889964 
L 286.252792 99.231137 
L 287.797699 100.360499 
L 289.342605 101.931934 
L 290.887511 103.890057 
L 292.432418 106.259045 
L 293.977324 108.936761 
L 296.294684 113.553202 
L 299.384496 120.400585 
L 302.474309 127.853926 
L 310.198841 146.998995 
L 313.288653 154.024053 
L 315.606013 158.824221 
L 317.923372 163.186924 
L 320.240732 167.068227 
L 322.558091 170.426883 
L 324.875451 173.342546 
L 327.19281 175.8188 
L 329.51017 178.091427 
L 336.462248 184.681658 
L 338.779608 187.311919 
L 341.096967 190.422526 
L 342.641873 192.811776 
L 344.959233 196.859743 
L 347.276592 201.579983 
L 349.593952 206.809947 
L 351.911311 212.649029 
L 355.001124 221.174434 
L 359.635843 234.947916 
L 365.815468 253.439347 
L 368.905281 261.988746 
L 371.995094 269.859439 
L 374.312453 275.176782 
L 377.402266 281.642379 
L 380.492078 287.559981 
L 385.899251 296.970982 
L 390.53397 304.85702 
L 403.665673 327.437423 
L 405.983033 331.050671 
L 409.072845 335.468105 
L 411.390205 338.496904 
L 414.480018 342.092771 
L 417.56983 345.241072 
L 420.659643 347.987087 
L 423.749456 350.332536 
L 427.611721 352.872396 
L 430.701534 354.566811 
L 433.018893 355.627769 
L 436.108706 356.7783 
L 438.426066 357.510577 
L 441.515878 358.264942 
L 446.150597 359.021305 
L 450.785316 359.520314 
L 455.420035 359.820416 
L 463.144567 360.099481 
L 480.91099 360.010804 
L 480.91099 360.010804 
" clip-path="url(#pce3b1171cd)" style="fill: none; stroke-dasharray: 3.2375,1.4; stroke-dashoffset: 0; stroke: #7570b3; stroke-width: 0.875"/>
   </g>
   <g id="line2d_22">
    <path d="M 47.182321 366.096413 
L 53.025687 366.228561 
L 63.042885 366.572115 
L 67.216718 366.466537 
L 69.721018 366.250281 
L 73.060084 365.728277 
L 75.564384 365.112919 
L 78.068683 364.300375 
L 80.572983 363.278821 
L 83.077282 362.036989 
L 85.581582 360.544047 
L 88.085882 358.832558 
L 91.424948 356.271301 
L 96.433547 351.971263 
L 107.285512 342.226002 
L 110.624578 339.549579 
L 113.963645 337.192036 
L 116.467944 335.598962 
L 120.641777 333.287555 
L 123.980843 331.78268 
L 133.998042 327.621642 
L 139.841408 324.395794 
L 141.510941 323.235174 
L 144.01524 321.178789 
L 146.51954 318.735168 
L 149.02384 315.871176 
L 151.528139 312.526183 
L 154.032439 308.728013 
L 157.371505 302.968726 
L 161.545338 294.725267 
L 164.049637 289.398847 
L 170.72777 274.043413 
L 186.588334 237.152514 
L 198.275066 210.264347 
L 203.283665 197.766354 
L 206.622731 188.776685 
L 209.961797 179.261797 
L 213.300864 169.083278 
L 217.474696 155.505252 
L 228.326661 118.689798 
L 232.500494 105.623915 
L 235.004794 98.611009 
L 236.674327 94.383782 
L 239.178626 88.752624 
L 241.682926 84.07657 
L 243.352459 81.502533 
L 245.021992 79.301099 
L 246.691525 77.548629 
L 248.361058 76.228299 
L 250.030592 75.267908 
L 251.700125 74.611028 
L 254.204424 74.248947 
L 255.039191 74.242932 
L 257.54349 74.710985 
L 259.213024 75.271192 
L 260.882557 76.030606 
L 262.55209 77.049289 
L 265.056389 78.902529 
L 266.725922 80.327521 
L 269.230222 82.875803 
L 272.569288 86.977915 
L 275.073588 90.579899 
L 276.743121 93.205119 
L 280.082187 99.09387 
L 282.586487 103.999495 
L 286.76032 112.901101 
L 293.438452 128.469928 
L 299.281818 142.428978 
L 304.290417 154.096057 
L 310.133783 166.773865 
L 315.142382 176.872886 
L 317.646682 181.649986 
L 331.837713 207.472714 
L 336.011546 215.837646 
L 339.350612 223.009297 
L 342.689678 230.638185 
L 348.533044 244.792104 
L 357.715476 267.373948 
L 361.054542 275.102706 
L 364.393608 282.404593 
L 368.567441 290.732761 
L 371.071741 295.329052 
L 373.57604 299.606485 
L 376.915106 304.891924 
L 379.419406 308.582255 
L 382.758472 313.205064 
L 388.601838 320.44038 
L 392.775671 325.231092 
L 396.949503 329.686216 
L 401.958103 334.660173 
L 404.462402 336.994005 
L 408.636235 340.536239 
L 411.975301 343.088473 
L 416.983901 346.461635 
L 421.9925 349.456355 
L 426.166333 351.663547 
L 432.009698 354.439175 
L 437.018298 356.507101 
L 440.357364 357.727154 
L 444.531197 358.948322 
L 447.870263 359.661311 
L 451.209329 360.117184 
L 454.548395 360.318639 
L 457.887461 360.319493 
L 464.565594 359.88693 
L 472.913259 359.417397 
L 473.748026 359.40785 
L 473.748026 359.40785 
" clip-path="url(#pce3b1171cd)" style="fill: none; stroke-dasharray: 5.6,1.4,0.875,1.4; stroke-dashoffset: 0; stroke: #7570b3; stroke-width: 0.875"/>
   </g>
   <g id="patch_3">
    <path d="M 23.76 381.9125 
L 539.051062 381.9125 
" style="fill: none; stroke: #333333; stroke-width: 1.5; stroke-linejoin: miter; stroke-linecap: square"/>
   </g>
   <g id="text_7">
    <!-- $x_1^2x_2^2$ -->
    <g style="fill: #262626" transform="translate(248.105531 51.192)">
     <text>
      <tspan x="0" y="-0.929688" style="font-style: oblique; font-size: 30px; font-family: 'DejaVu Sans'; fill: #262626">x</tspan>
      <tspan x="33.274902" y="-0.929688" style="font-style: oblique; font-size: 30px; font-family: 'DejaVu Sans'; fill: #262626">x</tspan>
      <tspan x="17.753906" y="7.273438" style="font-size: 21px; font-family: 'DejaVu Sans'; fill: #262626">1</tspan>
      <tspan x="19.09375" y="-12.414063" style="font-size: 21px; font-family: 'DejaVu Sans'; fill: #262626">2</tspan>
      <tspan x="51.028809" y="7.273438" style="font-size: 21px; font-family: 'DejaVu Sans'; fill: #262626">2</tspan>
      <tspan x="52.368652" y="-12.414063" style="font-size: 21px; font-family: 'DejaVu Sans'; fill: #262626">2</tspan>
     </text>
    </g>
   </g>
  </g>
 </g>
 <defs>
  <clipPath id="pce3b1171cd">
   <rect x="23.76" y="59.592" width="515.291062" height="322.3205"/>
  </clipPath>
 </defs>
</svg>
