<?xml version="1.0" encoding="utf-8" standalone="no"?>
<!DOCTYPE svg PUBLIC "-//W3C//DTD SVG 1.1//EN"
  "http://www.w3.org/Graphics/SVG/1.1/DTD/svg11.dtd">
<svg xmlns:xlink="http://www.w3.org/1999/xlink" width="576pt" height="432pt" viewBox="0 0 576 432" xmlns="http://www.w3.org/2000/svg" version="1.1">
 <metadata>
  <rdf:RDF xmlns:dc="http://purl.org/dc/elements/1.1/" xmlns:cc="http://creativecommons.org/ns#" xmlns:rdf="http://www.w3.org/1999/02/22-rdf-syntax-ns#">
   <cc:Work>
    <dc:type rdf:resource="http://purl.org/dc/dcmitype/StillImage"/>
    <dc:date>2025-09-22T22:40:53.096897</dc:date>
    <dc:format>image/svg+xml</dc:format>
    <dc:creator>
     <cc:Agent>
      <dc:title>Matplotlib v3.10.0, https://matplotlib.org/</dc:title>
     </cc:Agent>
    </dc:creator>
   </cc:Work>
  </rdf:RDF>
 </metadata>
 <defs>
  <style type="text/css">*{stroke-linejoin: round; stroke-linecap: butt}</style>
 </defs>
 <g id="figure_1">
  <g id="patch_1">
   <path d="M 0 432 
L 576 432 
L 576 0 
L 0 0 
L 0 432 
z
" style="fill: none; opacity: 0"/>
  </g>
  <g id="axes_1">
   <g id="patch_2">
    <path d="M 45.990861 381.9125 
L 552.24 381.9125 
L 552.24 59.592 
L 45.990861 59.592 
L 45.990861 381.9125 
z
" style="fill: none"/>
   </g>
   <g id="matplotlib.axis_1">
    <g id="xtick_1">
     <g id="line2d_1">
      <path d="M 55.524584 381.9125 
L 55.524584 59.592 
" clip-path="url(#p4beb4e7591)" style="fill: none; stroke: #cccccc; stroke-opacity: 0.4; stroke-linecap: round"/>
     </g>
     <g id="line2d_2"/>
     <g id="text_1">
      <text style="font-size: 20px; font-family: 'DejaVu Serif', 'Times New Roman', serif; text-anchor: middle; fill: #262626" x="55.524584" y="404.109375" transform="rotate(-0 55.524584 404.109375)">−0.35</text>
     </g>
    </g>
    <g id="xtick_2">
     <g id="line2d_3">
      <path d="M 159.686471 381.9125 
L 159.686471 59.592 
" clip-path="url(#p4beb4e7591)" style="fill: none; stroke: #cccccc; stroke-opacity: 0.4; stroke-linecap: round"/>
     </g>
     <g id="line2d_4"/>
     <g id="text_2">
      <text style="font-size: 20px; font-family: 'DejaVu Serif', 'Times New Roman', serif; text-anchor: middle; fill: #262626" x="159.686471" y="404.109375" transform="rotate(-0 159.686471 404.109375)">−0.30</text>
     </g>
    </g>
    <g id="xtick_3">
     <g id="line2d_5">
      <path d="M 263.848358 381.9125 
L 263.848358 59.592 
" clip-path="url(#p4beb4e7591)" style="fill: none; stroke: #cccccc; stroke-opacity: 0.4; stroke-linecap: round"/>
     </g>
     <g id="line2d_6"/>
     <g id="text_3">
      <text style="font-size: 20px; font-family: 'DejaVu Serif', 'Times New Roman', serif; text-anchor: middle; fill: #262626" x="263.848358" y="404.109375" transform="rotate(-0 263.848358 404.109375)">−0.25</text>
     </g>
    </g>
    <g id="xtick_4">
     <g id="line2d_7">
      <path d="M 368.010245 381.9125 
L 368.010245 59.592 
" clip-path="url(#p4beb4e7591)" style="fill: none; stroke: #cccccc; stroke-opacity: 0.4; stroke-linecap: round"/>
     </g>
     <g id="line2d_8"/>
     <g id="text_4">
      <text style="font-size: 20px; font-family: 'DejaVu Serif', 'Times New Roman', serif; text-anchor: middle; fill: #262626" x="368.010245" y="404.109375" transform="rotate(-0 368.010245 404.109375)">−0.20</text>
     </g>
    </g>
    <g id="xtick_5">
     <g id="line2d_9">
      <path d="M 472.172132 381.9125 
L 472.172132 59.592 
" clip-path="url(#p4beb4e7591)" style="fill: none; stroke: #cccccc; stroke-opacity: 0.4; stroke-linecap: round"/>
     </g>
     <g id="line2d_10"/>
     <g id="text_5">
      <text style="font-size: 20px; font-family: 'DejaVu Serif', 'Times New Roman', serif; text-anchor: middle; fill: #262626" x="472.172132" y="404.109375" transform="rotate(-0 472.172132 404.109375)">−0.15</text>
     </g>
    </g>
   </g>
   <g id="matplotlib.axis_2">
    <g id="ytick_1">
     <g id="line2d_11">
      <path d="M 45.990861 370.243501 
L 552.24 370.243501 
" clip-path="url(#p4beb4e7591)" style="fill: none; stroke: #cccccc; stroke-opacity: 0.4; stroke-linecap: round"/>
     </g>
    </g>
    <g id="ytick_2">
     <g id="line2d_12">
      <path d="M 45.990861 319.030388 
L 552.24 319.030388 
" clip-path="url(#p4beb4e7591)" style="fill: none; stroke: #cccccc; stroke-opacity: 0.4; stroke-linecap: round"/>
     </g>
    </g>
    <g id="ytick_3">
     <g id="line2d_13">
      <path d="M 45.990861 267.817275 
L 552.24 267.817275 
" clip-path="url(#p4beb4e7591)" style="fill: none; stroke: #cccccc; stroke-opacity: 0.4; stroke-linecap: round"/>
     </g>
    </g>
    <g id="ytick_4">
     <g id="line2d_14">
      <path d="M 45.990861 216.604162 
L 552.24 216.604162 
" clip-path="url(#p4beb4e7591)" style="fill: none; stroke: #cccccc; stroke-opacity: 0.4; stroke-linecap: round"/>
     </g>
    </g>
    <g id="ytick_5">
     <g id="line2d_15">
      <path d="M 45.990861 165.391048 
L 552.24 165.391048 
" clip-path="url(#p4beb4e7591)" style="fill: none; stroke: #cccccc; stroke-opacity: 0.4; stroke-linecap: round"/>
     </g>
    </g>
    <g id="ytick_6">
     <g id="line2d_16">
      <path d="M 45.990861 114.177935 
L 552.24 114.177935 
" clip-path="url(#p4beb4e7591)" style="fill: none; stroke: #cccccc; stroke-opacity: 0.4; stroke-linecap: round"/>
     </g>
    </g>
    <g id="ytick_7">
     <g id="line2d_17">
      <path d="M 45.990861 62.964822 
L 552.24 62.964822 
" clip-path="url(#p4beb4e7591)" style="fill: none; stroke: #cccccc; stroke-opacity: 0.4; stroke-linecap: round"/>
     </g>
    </g>
   </g>
   <g id="line2d_18">
    <path d="M 84.371836 367.258829 
L 91.397879 367.149738 
L 96.081908 366.901683 
L 99.985265 366.50001 
L 103.10795 366.007877 
L 106.230636 365.328147 
L 108.57265 364.671338 
L 112.476008 363.304728 
L 115.598693 361.943374 
L 118.721379 360.266687 
L 124.186079 356.83042 
L 128.089436 353.971177 
L 131.992793 350.725307 
L 135.115479 347.871459 
L 139.018836 343.939174 
L 142.141522 340.485556 
L 146.044879 335.724626 
L 149.948236 330.473941 
L 153.851593 324.802969 
L 157.75495 318.680929 
L 160.877636 313.458637 
L 164.780993 306.731797 
L 170.245693 296.930263 
L 179.61375 279.391698 
L 200.691879 238.073783 
L 206.93725 224.938192 
L 210.840607 216.310004 
L 214.743965 207.385465 
L 220.208665 194.079955 
L 227.234707 176.058869 
L 243.628807 134.133358 
L 249.093507 121.229566 
L 252.996864 112.557995 
L 256.900222 104.486019 
L 260.803579 97.1073 
L 263.926264 91.862376 
L 266.268279 88.322584 
L 269.390964 84.206168 
L 270.952307 82.418198 
L 273.294322 80.132029 
L 275.636336 78.194649 
L 277.97835 76.661845 
L 279.539693 75.842265 
L 281.881707 74.957302 
L 284.223722 74.462018 
L 286.565736 74.244706 
L 288.127079 74.274923 
L 290.469093 74.578668 
L 292.811107 75.185446 
L 295.153122 76.015059 
L 298.275807 77.467372 
L 299.83715 78.357314 
L 301.398493 79.419625 
L 305.30185 82.467564 
L 307.643864 84.60041 
L 309.985879 87.112726 
L 312.327893 89.803573 
L 315.450579 93.924288 
L 318.573264 98.301649 
L 320.915279 101.921491 
L 324.818636 108.283436 
L 329.502664 116.237515 
L 337.309379 130.205779 
L 341.993407 138.951425 
L 346.677436 148.147318 
L 349.800121 154.625523 
L 353.703479 163.186505 
L 357.606836 172.261395 
L 361.510193 181.842192 
L 368.536236 199.915109 
L 378.684964 225.775536 
L 382.588321 235.072542 
L 385.711007 242.085979 
L 390.395036 252.064089 
L 394.298393 259.764049 
L 398.982421 268.371284 
L 403.66645 276.378936 
L 408.350479 284.045591 
L 413.034507 291.445341 
L 428.647936 315.512659 
L 433.331964 322.217472 
L 438.015993 328.47401 
L 441.138679 332.270714 
L 444.261364 335.640144 
L 446.603378 337.924124 
L 449.726064 340.623185 
L 452.84875 342.943247 
L 455.971436 344.916751 
L 459.094121 346.58147 
L 462.997478 348.309988 
L 465.339493 349.197508 
L 469.24285 350.341451 
L 472.365536 351.090822 
L 475.488221 351.622617 
L 477.830236 351.873884 
L 481.733593 352.131137 
L 483.294936 352.166445 
L 483.294936 352.166445 
" clip-path="url(#p4beb4e7591)" style="fill: none; stroke: #7570b3; stroke-width: 0.875; stroke-linecap: round"/>
   </g>
   <g id="line2d_19">
    <path d="M 94.273368 365.700718 
L 96.776018 365.657302 
L 100.947101 365.354937 
L 104.283968 364.854973 
L 107.620834 364.124665 
L 110.957701 363.134197 
L 114.294568 361.871792 
L 117.631435 360.316259 
L 120.134085 358.951868 
L 122.636735 357.401801 
L 125.973601 355.004634 
L 129.310468 352.329315 
L 131.813118 350.134433 
L 135.149985 346.872703 
L 139.321068 342.362112 
L 141.823718 339.370665 
L 145.160585 335.074376 
L 148.497452 330.408485 
L 151.834318 325.304891 
L 156.005402 318.409073 
L 161.010702 309.559519 
L 166.016002 300.229746 
L 174.358169 284.250277 
L 181.866119 270.377518 
L 186.871419 261.629894 
L 192.710936 251.916594 
L 197.716236 243.716523 
L 202.721536 235.287787 
L 207.726836 226.28317 
L 211.063703 219.9094 
L 214.400569 213.203132 
L 221.074303 198.677505 
L 231.91912 173.89132 
L 245.266587 143.749316 
L 248.603453 136.853922 
L 251.94032 130.658061 
L 254.44297 126.500067 
L 256.94562 122.865962 
L 258.614053 120.798716 
L 261.116703 118.309727 
L 262.785137 116.999651 
L 264.45357 115.880714 
L 266.122003 115.058249 
L 267.790437 114.548845 
L 270.293087 114.127959 
L 272.795737 114.213895 
L 276.132604 114.8546 
L 281.137904 116.179648 
L 283.640554 116.707467 
L 286.143204 117.09702 
L 288.645854 117.130776 
L 291.148504 116.852617 
L 293.651154 116.206522 
L 296.988021 114.871212 
L 299.490671 113.407313 
L 301.993321 111.705098 
L 305.330187 109.075165 
L 307.832837 106.826807 
L 312.003921 102.954419 
L 317.009221 98.171971 
L 321.180304 94.706318 
L 323.682954 93.187814 
L 326.185604 92.089564 
L 327.854038 91.610546 
L 329.522471 91.453534 
L 331.190904 91.599476 
L 332.025121 91.787994 
L 333.693555 92.464938 
L 335.361988 93.478798 
L 337.030421 94.813684 
L 338.698855 96.545524 
L 340.367288 98.607088 
L 342.035721 101.084779 
L 343.704155 103.883351 
L 346.206805 108.687911 
L 348.709455 114.059015 
L 351.212105 120.096609 
L 354.548971 128.845664 
L 358.720055 140.53378 
L 363.725355 155.429124 
L 387.083422 226.623786 
L 396.259805 253.512741 
L 402.099322 269.773949 
L 405.436189 278.650868 
L 408.773056 287.090501 
L 412.944139 296.876771 
L 416.281006 303.998532 
L 419.617872 310.310987 
L 422.120522 314.582755 
L 424.623173 318.457298 
L 427.125823 321.821844 
L 429.628473 324.769177 
L 432.131123 327.282821 
L 434.633773 329.489352 
L 437.970639 332.025182 
L 442.141723 334.73074 
L 452.152323 340.827204 
L 455.48919 343.081044 
L 462.162923 347.938709 
L 467.168223 351.764036 
L 473.00774 355.878236 
L 476.344607 357.938174 
L 478.847257 359.314493 
L 482.184123 360.840026 
L 484.686773 361.754762 
L 487.189423 362.466868 
L 490.52629 363.126244 
L 493.863157 363.41792 
L 496.365807 363.453229 
L 499.702674 363.278217 
L 503.873757 362.767644 
L 518.055441 360.91588 
L 520.558091 360.81913 
L 520.558091 360.81913 
" clip-path="url(#p4beb4e7591)" style="fill: none; stroke-dasharray: 0.875,1.44375; stroke-dashoffset: 0; stroke: #7570b3; stroke-width: 0.875"/>
   </g>
   <g id="line2d_20">
    <path d="M 69.002185 365.853026 
L 76.207296 365.960982 
L 88.816241 366.306113 
L 95.120714 365.996852 
L 99.623908 365.437518 
L 102.325825 364.903623 
L 106.82902 363.720268 
L 110.431576 362.491733 
L 113.133492 361.409283 
L 116.736048 359.733502 
L 121.239243 357.334696 
L 124.841798 355.166786 
L 129.344993 352.263532 
L 133.848188 349.117042 
L 137.450743 346.407358 
L 141.953938 342.770029 
L 145.556494 339.626508 
L 149.159049 336.235594 
L 152.761605 332.576663 
L 156.364161 328.579521 
L 159.966716 324.197926 
L 163.569272 319.511626 
L 168.072467 313.176279 
L 171.675022 307.63025 
L 176.178217 300.490215 
L 180.681412 292.907535 
L 186.985884 281.672315 
L 191.489079 272.940131 
L 195.091634 265.514201 
L 197.793551 259.584675 
L 201.396107 251.172357 
L 204.998663 242.24611 
L 209.501857 230.440727 
L 216.706969 210.614199 
L 223.011441 193.609504 
L 227.514636 182.167573 
L 231.117191 173.75029 
L 234.719747 166.014507 
L 238.322303 158.898136 
L 241.924859 152.44906 
L 246.428053 144.974895 
L 257.23572 128.530973 
L 264.440832 117.876416 
L 268.944026 111.014469 
L 279.751693 95.161048 
L 283.354249 90.219263 
L 286.056166 86.853267 
L 289.658722 82.625507 
L 292.360638 79.912947 
L 295.062555 77.662309 
L 296.863833 76.468152 
L 298.665111 75.506961 
L 300.466389 74.8095 
L 302.267667 74.422519 
L 304.068944 74.355904 
L 305.870222 74.568363 
L 307.6715 75.10244 
L 309.472778 75.987942 
L 311.274056 77.181863 
L 313.075334 78.782519 
L 314.876611 80.602044 
L 316.677889 82.695289 
L 318.479167 85.124404 
L 321.181084 89.197462 
L 323.883001 93.774082 
L 326.584917 98.759825 
L 331.088112 107.88861 
L 335.591307 117.508503 
L 343.697057 135.653412 
L 350.00153 149.647721 
L 359.908558 170.850703 
L 370.716225 193.436958 
L 377.921336 208.835585 
L 381.523892 216.83048 
L 393.232198 242.715551 
L 397.735393 252.211937 
L 402.238587 261.141232 
L 405.841143 267.906508 
L 409.443699 274.401654 
L 414.847532 283.713574 
L 422.052643 295.880257 
L 427.456477 304.653104 
L 434.661588 315.702361 
L 438.264144 320.774228 
L 440.966061 324.364052 
L 444.568617 328.714736 
L 449.071811 333.545966 
L 452.674367 336.951684 
L 455.376284 339.300641 
L 459.879478 342.811162 
L 463.482034 345.336136 
L 467.08459 347.638155 
L 471.587784 350.277384 
L 478.792896 353.934196 
L 484.196729 356.230548 
L 490.501202 358.573941 
L 496.805674 360.489297 
L 502.209508 361.834873 
L 506.712702 362.784909 
L 512.116536 363.695197 
L 517.520369 364.402467 
L 522.023564 364.798251 
L 529.228675 365.070486 
L 529.228675 365.070486 
" clip-path="url(#p4beb4e7591)" style="fill: none; stroke-dasharray: 3.2375,1.4; stroke-dashoffset: 0; stroke: #7570b3; stroke-width: 0.875"/>
   </g>
   <g id="line2d_21">
    <path d="M 86.820131 352.258125 
L 108.683438 352.21302 
L 113.728816 351.831337 
L 117.092402 351.362059 
L 119.615091 350.864136 
L 122.978677 349.963678 
L 125.501366 349.085629 
L 128.024056 348.02071 
L 130.546745 346.754308 
L 133.910331 344.70007 
L 137.273916 342.241178 
L 140.637502 339.398301 
L 143.160191 336.972198 
L 145.682881 334.342348 
L 149.046466 330.517641 
L 153.250949 325.341136 
L 158.296327 318.630566 
L 163.341706 311.414853 
L 167.546188 305.076913 
L 173.432463 295.698915 
L 176.796049 290.022884 
L 181.000531 282.431618 
L 185.205013 274.529413 
L 190.250391 264.322457 
L 196.136666 251.806741 
L 200.341149 242.473534 
L 207.909216 224.64162 
L 212.113699 214.240568 
L 217.159077 201.016863 
L 223.045352 184.685874 
L 236.499695 146.841478 
L 240.704177 136.274392 
L 244.067763 128.686771 
L 247.431349 121.846821 
L 250.794934 115.850383 
L 253.317624 111.818577 
L 256.681209 106.939279 
L 262.567484 99.425806 
L 268.453759 92.500566 
L 273.499138 87.034985 
L 276.862724 83.682582 
L 279.385413 81.426663 
L 281.908102 79.474262 
L 283.589895 78.340167 
L 286.112584 77.015193 
L 287.794377 76.387711 
L 289.47617 76.024521 
L 291.157963 75.927107 
L 292.839756 76.18229 
L 294.521549 76.667581 
L 296.203342 77.356097 
L 297.885134 78.325026 
L 299.566927 79.552905 
L 301.24872 81.135831 
L 302.930513 82.949557 
L 304.612306 84.953605 
L 307.134995 88.405179 
L 309.657685 92.261442 
L 311.339477 94.992296 
L 315.54396 102.617483 
L 333.202785 135.971967 
L 339.08906 145.879399 
L 342.452645 151.307431 
L 346.657127 158.00029 
L 353.384299 168.971361 
L 357.588781 176.153377 
L 360.952367 182.222857 
L 368.520435 196.868696 
L 374.40671 209.000667 
L 385.338363 232.374303 
L 410.565256 286.798524 
L 415.610635 297.051314 
L 419.815117 305.090024 
L 424.019599 312.496708 
L 426.542288 316.624135 
L 429.905874 321.621387 
L 433.26946 326.156209 
L 436.633045 330.242145 
L 439.155735 332.989695 
L 442.51932 336.338681 
L 445.882906 339.361151 
L 450.928285 343.483025 
L 458.496353 349.101915 
L 462.700835 351.953111 
L 466.905317 354.624712 
L 470.268903 356.572241 
L 472.791592 357.887458 
L 476.155178 359.366161 
L 478.677867 360.295226 
L 482.041453 361.28029 
L 484.564142 361.854469 
L 487.927728 362.36492 
L 491.291313 362.623184 
L 495.495796 362.71556 
L 501.382071 362.536547 
L 513.154621 362.098676 
L 516.518206 362.048641 
L 516.518206 362.048641 
" clip-path="url(#p4beb4e7591)" style="fill: none; stroke-dasharray: 5.6,1.4,0.875,1.4; stroke-dashoffset: 0; stroke: #7570b3; stroke-width: 0.875"/>
   </g>
   <g id="patch_3">
    <path d="M 45.990861 381.9125 
L 552.24 381.9125 
" style="fill: none; stroke: #333333; stroke-width: 1.5; stroke-linejoin: miter; stroke-linecap: square"/>
   </g>
   <g id="text_6">
    <!-- $x_1^2x_3$ -->
    <g style="fill: #262626" transform="translate(266.41543 51.192)">
     <text>
      <tspan x="0" y="-0.929688" style="font-style: oblique; font-size: 30px; font-family: 'DejaVu Sans'; fill: #262626">x</tspan>
      <tspan x="33.274902" y="-0.929688" style="font-style: oblique; font-size: 30px; font-family: 'DejaVu Sans'; fill: #262626">x</tspan>
      <tspan x="17.753906" y="7.273438" style="font-size: 21px; font-family: 'DejaVu Sans'; fill: #262626">1</tspan>
      <tspan x="19.09375" y="-12.414063" style="font-size: 21px; font-family: 'DejaVu Sans'; fill: #262626">2</tspan>
      <tspan x="51.028809" y="3.992188" style="font-size: 21px; font-family: 'DejaVu Sans'; fill: #262626">3</tspan>
     </text>
    </g>
   </g>
  </g>
 </g>
 <defs>
  <clipPath id="p4beb4e7591">
   <rect x="45.990861" y="59.592" width="506.249139" height="322.3205"/>
  </clipPath>
 </defs>
</svg>
