<?xml version="1.0" encoding="utf-8" standalone="no"?>
<!DOCTYPE svg PUBLIC "-//W3C//DTD SVG 1.1//EN"
  "http://www.w3.org/Graphics/SVG/1.1/DTD/svg11.dtd">
<svg xmlns:xlink="http://www.w3.org/1999/xlink" width="576pt" height="432pt" viewBox="0 0 576 432" xmlns="http://www.w3.org/2000/svg" version="1.1">
 <metadata>
  <rdf:RDF xmlns:dc="http://purl.org/dc/elements/1.1/" xmlns:cc="http://creativecommons.org/ns#" xmlns:rdf="http://www.w3.org/1999/02/22-rdf-syntax-ns#">
   <cc:Work>
    <dc:type rdf:resource="http://purl.org/dc/dcmitype/StillImage"/>
    <dc:date>2025-09-22T22:40:53.144462</dc:date>
    <dc:format>image/svg+xml</dc:format>
    <dc:creator>
     <cc:Agent>
      <dc:title>Matplotlib v3.10.0, https://matplotlib.org/</dc:title>
     </cc:Agent>
    </dc:creator>
   </cc:Work>
  </rdf:RDF>
 </metadata>
 <defs>
  <style type="text/css">*{stroke-linejoin: round; stroke-linecap: butt}</style>
 </defs>
 <g id="figure_1">
  <g id="patch_1">
   <path d="M 0 432 
L 576 432 
L 576 0 
L 0 0 
L 0 432 
z
" style="fill: none; opacity: 0"/>
  </g>
  <g id="axes_1">
   <g id="patch_2">
    <path d="M 47.848665 381.9125 
L 552.24 381.9125 
L 552.24 59.592 
L 47.848665 59.592 
L 47.848665 381.9125 
z
" style="fill: none"/>
   </g>
   <g id="matplotlib.axis_1">
    <g id="xtick_1">
     <g id="line2d_1">
      <path d="M 55.248252 381.9125 
L 55.248252 59.592 
" clip-path="url(#pd7bd05361b)" style="fill: none; stroke: #cccccc; stroke-opacity: 0.4; stroke-linecap: round"/>
     </g>
     <g id="line2d_2"/>
     <g id="text_1">
      <text style="font-size: 20px; font-family: 'DejaVu Serif', 'Times New Roman', serif; text-anchor: middle; fill: #262626" x="55.248252" y="404.109375" transform="rotate(-0 55.248252 404.109375)">−1.10</text>
     </g>
    </g>
    <g id="xtick_2">
     <g id="line2d_3">
      <path d="M 170.289439 381.9125 
L 170.289439 59.592 
" clip-path="url(#pd7bd05361b)" style="fill: none; stroke: #cccccc; stroke-opacity: 0.4; stroke-linecap: round"/>
     </g>
     <g id="line2d_4"/>
     <g id="text_2">
      <text style="font-size: 20px; font-family: 'DejaVu Serif', 'Times New Roman', serif; text-anchor: middle; fill: #262626" x="170.289439" y="404.109375" transform="rotate(-0 170.289439 404.109375)">−1.05</text>
     </g>
    </g>
    <g id="xtick_3">
     <g id="line2d_5">
      <path d="M 285.330627 381.9125 
L 285.330627 59.592 
" clip-path="url(#pd7bd05361b)" style="fill: none; stroke: #cccccc; stroke-opacity: 0.4; stroke-linecap: round"/>
     </g>
     <g id="line2d_6"/>
     <g id="text_3">
      <text style="font-size: 20px; font-family: 'DejaVu Serif', 'Times New Roman', serif; text-anchor: middle; fill: #262626" x="285.330627" y="404.109375" transform="rotate(-0 285.330627 404.109375)">−1.00</text>
     </g>
    </g>
    <g id="xtick_4">
     <g id="line2d_7">
      <path d="M 400.371815 381.9125 
L 400.371815 59.592 
" clip-path="url(#pd7bd05361b)" style="fill: none; stroke: #cccccc; stroke-opacity: 0.4; stroke-linecap: round"/>
     </g>
     <g id="line2d_8"/>
     <g id="text_4">
      <text style="font-size: 20px; font-family: 'DejaVu Serif', 'Times New Roman', serif; text-anchor: middle; fill: #262626" x="400.371815" y="404.109375" transform="rotate(-0 400.371815 404.109375)">−0.95</text>
     </g>
    </g>
    <g id="xtick_5">
     <g id="line2d_9">
      <path d="M 515.413002 381.9125 
L 515.413002 59.592 
" clip-path="url(#pd7bd05361b)" style="fill: none; stroke: #cccccc; stroke-opacity: 0.4; stroke-linecap: round"/>
     </g>
     <g id="line2d_10"/>
     <g id="text_5">
      <text style="font-size: 20px; font-family: 'DejaVu Serif', 'Times New Roman', serif; text-anchor: middle; fill: #262626" x="515.413002" y="404.109375" transform="rotate(-0 515.413002 404.109375)">−0.90</text>
     </g>
    </g>
   </g>
   <g id="matplotlib.axis_2">
    <g id="ytick_1">
     <g id="line2d_11">
      <path d="M 47.848665 370.427004 
L 552.24 370.427004 
" clip-path="url(#pd7bd05361b)" style="fill: none; stroke: #cccccc; stroke-opacity: 0.4; stroke-linecap: round"/>
     </g>
    </g>
    <g id="ytick_2">
     <g id="line2d_12">
      <path d="M 47.848665 323.15243 
L 552.24 323.15243 
" clip-path="url(#pd7bd05361b)" style="fill: none; stroke: #cccccc; stroke-opacity: 0.4; stroke-linecap: round"/>
     </g>
    </g>
    <g id="ytick_3">
     <g id="line2d_13">
      <path d="M 47.848665 275.877856 
L 552.24 275.877856 
" clip-path="url(#pd7bd05361b)" style="fill: none; stroke: #cccccc; stroke-opacity: 0.4; stroke-linecap: round"/>
     </g>
    </g>
    <g id="ytick_4">
     <g id="line2d_14">
      <path d="M 47.848665 228.603282 
L 552.24 228.603282 
" clip-path="url(#pd7bd05361b)" style="fill: none; stroke: #cccccc; stroke-opacity: 0.4; stroke-linecap: round"/>
     </g>
    </g>
    <g id="ytick_5">
     <g id="line2d_15">
      <path d="M 47.848665 181.328709 
L 552.24 181.328709 
" clip-path="url(#pd7bd05361b)" style="fill: none; stroke: #cccccc; stroke-opacity: 0.4; stroke-linecap: round"/>
     </g>
    </g>
    <g id="ytick_6">
     <g id="line2d_16">
      <path d="M 47.848665 134.054135 
L 552.24 134.054135 
" clip-path="url(#pd7bd05361b)" style="fill: none; stroke: #cccccc; stroke-opacity: 0.4; stroke-linecap: round"/>
     </g>
    </g>
    <g id="ytick_7">
     <g id="line2d_17">
      <path d="M 47.848665 86.779561 
L 552.24 86.779561 
" clip-path="url(#pd7bd05361b)" style="fill: none; stroke: #cccccc; stroke-opacity: 0.4; stroke-linecap: round"/>
     </g>
    </g>
   </g>
   <g id="line2d_18">
    <path d="M 95.935333 364.014288 
L 104.263673 363.79225 
L 108.427843 363.506293 
L 112.592012 363.104444 
L 116.756182 362.520529 
L 120.087518 361.906396 
L 124.251688 360.849051 
L 127.583024 359.798961 
L 130.91436 358.447809 
L 134.245695 356.790491 
L 137.577031 354.836984 
L 140.908367 352.567311 
L 143.406869 350.65476 
L 146.738205 347.799851 
L 150.069541 344.619069 
L 154.23371 340.415659 
L 158.39788 335.833395 
L 165.060552 327.916207 
L 169.224722 322.475133 
L 172.556058 317.78498 
L 176.720227 311.279741 
L 180.884397 304.046824 
L 184.215733 297.515356 
L 187.547069 290.416838 
L 190.045571 284.629304 
L 193.376907 276.511124 
L 196.708243 267.890265 
L 200.872412 256.560047 
L 215.03059 217.09869 
L 220.027593 204.090236 
L 223.358929 195.850136 
L 227.523099 186.217131 
L 231.687269 177.325367 
L 235.018605 170.639968 
L 240.015609 161.275621 
L 261.669292 123.023117 
L 266.666295 113.746562 
L 271.663299 104.640137 
L 275.827469 97.423658 
L 279.991639 90.968663 
L 283.322975 86.412372 
L 285.821476 83.519933 
L 288.319978 80.928092 
L 290.81848 78.799546 
L 293.316982 77.020368 
L 294.98265 76.125847 
L 297.481152 75.110683 
L 299.979654 74.47961 
L 301.645322 74.342355 
L 304.143824 74.245124 
L 306.642326 74.505725 
L 309.140827 75.051428 
L 311.639329 75.888694 
L 314.137831 76.947809 
L 317.469167 78.631096 
L 319.967669 80.162747 
L 322.466171 81.898999 
L 325.797507 84.48009 
L 329.128842 87.607482 
L 331.627344 90.273333 
L 333.293012 92.259689 
L 334.95868 94.386212 
L 337.457182 97.948568 
L 339.955684 101.986439 
L 342.454186 106.398958 
L 344.952688 111.373367 
L 347.45119 116.753713 
L 349.949692 122.41338 
L 354.946695 134.650174 
L 364.940703 159.614748 
L 368.272039 167.312521 
L 371.603375 174.643886 
L 375.767544 183.209288 
L 387.42722 206.915738 
L 391.59139 216.356616 
L 394.922725 224.468544 
L 399.086895 235.19194 
L 410.746571 265.972169 
L 414.077907 274.107328 
L 417.409242 281.734764 
L 420.740578 288.713752 
L 424.071914 295.064894 
L 426.570416 299.495602 
L 429.901752 304.922753 
L 433.233088 309.968867 
L 437.397258 315.723331 
L 441.561427 321.042902 
L 446.558431 327.135162 
L 451.555435 332.845517 
L 456.552439 338.268188 
L 462.382276 344.165038 
L 466.546446 347.971083 
L 470.710616 351.473353 
L 474.041952 353.983953 
L 477.373288 356.249374 
L 481.537458 358.689532 
L 484.868793 360.368702 
L 489.032963 362.150508 
L 492.364299 363.321653 
L 495.695635 364.299213 
L 499.859805 365.242343 
L 504.023975 365.920724 
L 509.020978 366.4585 
L 513.185148 366.723372 
L 519.84782 366.895463 
L 521.513488 366.901616 
L 521.513488 366.901616 
" clip-path="url(#pd7bd05361b)" style="fill: none; stroke: #7570b3; stroke-width: 0.875; stroke-linecap: round"/>
   </g>
   <g id="line2d_19">
    <path d="M 73.79256 358.90846 
L 78.062612 359.013604 
L 82.332665 359.365608 
L 87.456728 359.973719 
L 96.850843 361.166297 
L 101.120896 361.51406 
L 104.536938 361.639352 
L 108.80699 361.502355 
L 112.223032 361.154639 
L 115.639074 360.620906 
L 119.055116 359.817858 
L 123.325169 358.467029 
L 127.595221 356.773974 
L 131.865274 354.706329 
L 135.281316 352.777113 
L 137.843347 351.154862 
L 141.259389 348.766459 
L 144.675431 346.126881 
L 148.091473 343.257976 
L 152.361526 339.289223 
L 155.777568 335.720639 
L 160.901631 329.875737 
L 163.463662 326.732001 
L 170.295746 317.68557 
L 175.419809 310.383094 
L 180.543873 302.647755 
L 184.813925 295.948839 
L 190.791999 286.128349 
L 195.062051 278.813492 
L 201.040125 268.090336 
L 225.806429 222.424964 
L 230.076482 213.944986 
L 233.492524 206.756023 
L 236.908566 198.951756 
L 240.324608 190.567556 
L 244.59466 179.137898 
L 248.010702 169.477199 
L 253.134765 154.362122 
L 259.966849 133.744228 
L 263.382891 123.852711 
L 266.798933 114.581297 
L 270.214975 106.173771 
L 272.777007 100.388618 
L 275.339038 95.195633 
L 277.047059 92.110257 
L 279.609091 88.001668 
L 281.317112 85.601694 
L 283.025133 83.493997 
L 285.587164 80.907371 
L 287.295185 79.579789 
L 289.003206 78.490884 
L 290.711227 77.634234 
L 292.419248 76.979391 
L 294.98128 76.410544 
L 297.543312 76.261732 
L 300.105343 76.433991 
L 302.667375 76.924779 
L 307.791438 78.384641 
L 310.353469 79.336201 
L 318.893574 83.386431 
L 321.455606 84.782662 
L 324.017637 86.356678 
L 327.433679 88.88653 
L 329.995711 90.97538 
L 333.411753 94.070486 
L 336.827795 97.646903 
L 340.243837 101.6887 
L 343.659879 106.173892 
L 346.22191 109.733218 
L 349.637952 114.888701 
L 355.616026 124.854243 
L 359.032068 130.979534 
L 363.30212 138.982682 
L 368.426183 149.342521 
L 373.550246 160.365749 
L 378.674309 172.118675 
L 384.652383 186.604336 
L 389.776446 199.787857 
L 395.754519 215.591743 
L 406.002645 242.623503 
L 411.126708 255.526525 
L 417.104782 269.697927 
L 421.374835 279.236934 
L 425.644887 288.174415 
L 430.76895 298.345826 
L 435.893013 307.837916 
L 440.163066 315.229071 
L 444.433118 322.231905 
L 447.84916 327.491908 
L 451.265202 332.437507 
L 455.535255 338.082964 
L 459.805307 343.171777 
L 462.367339 345.914748 
L 464.92937 348.418203 
L 468.345412 351.389287 
L 470.907444 353.364453 
L 473.469475 355.095424 
L 476.031507 356.640948 
L 479.447549 358.380272 
L 482.863591 359.793829 
L 486.279633 360.87918 
L 489.695675 361.766876 
L 494.819738 362.717498 
L 499.08979 363.236794 
L 503.359843 363.559702 
L 510.191927 363.779038 
L 510.191927 363.779038 
" clip-path="url(#pd7bd05361b)" style="fill: none; stroke-dasharray: 0.875,1.44375; stroke-dashoffset: 0; stroke: #7570b3; stroke-width: 0.875"/>
   </g>
   <g id="line2d_20">
    <path d="M 70.775544 367.259595 
L 77.8664 367.160923 
L 84.957256 366.77532 
L 89.389041 366.277828 
L 94.707183 365.335618 
L 99.138968 364.236481 
L 102.684396 363.16291 
L 106.229824 361.906349 
L 110.66161 360.12033 
L 115.093395 358.043844 
L 118.638823 356.222024 
L 123.070608 353.735819 
L 128.38875 350.541332 
L 134.593249 346.437233 
L 140.797748 342.025003 
L 145.229533 338.590974 
L 150.547675 334.245744 
L 154.97946 330.210391 
L 159.411245 325.797039 
L 163.84303 320.820172 
L 167.388458 316.374369 
L 170.933886 311.524336 
L 174.479314 306.198353 
L 178.024742 300.460708 
L 180.683813 295.834736 
L 185.115598 287.692486 
L 190.43374 277.120914 
L 195.751883 265.871664 
L 202.842739 249.932099 
L 212.592666 227.022491 
L 225.888021 195.255707 
L 232.978877 178.976067 
L 238.297019 167.187381 
L 252.478731 136.598066 
L 260.455944 119.976748 
L 265.774086 109.732226 
L 268.433157 104.978443 
L 271.092228 100.643095 
L 272.864942 97.912507 
L 275.524013 94.218965 
L 279.069441 89.967237 
L 281.728512 87.298431 
L 284.387584 85.047992 
L 286.160298 83.775924 
L 287.933012 82.67624 
L 291.47844 80.964023 
L 293.251154 80.316631 
L 295.023868 79.828845 
L 296.796582 79.57503 
L 299.455653 79.378265 
L 302.114724 79.700448 
L 303.887438 80.115666 
L 305.660152 80.723562 
L 308.319223 82.005286 
L 310.091937 83.092459 
L 311.864651 84.37196 
L 313.637365 85.887975 
L 316.296436 88.497258 
L 318.955507 91.458725 
L 323.387292 97.113054 
L 328.705434 104.492035 
L 333.137219 110.748759 
L 336.682647 115.481046 
L 342.887146 123.28274 
L 349.091645 130.935697 
L 352.637073 135.544111 
L 355.296144 139.334162 
L 357.955215 143.501005 
L 360.614286 148.067558 
L 364.159714 154.737513 
L 366.818785 160.245302 
L 370.364214 168.265514 
L 373.909642 176.949945 
L 378.341427 188.370895 
L 387.204997 212.235347 
L 390.750425 221.683321 
L 396.068567 235.512544 
L 400.500352 246.539333 
L 404.932137 257.00908 
L 408.477565 265.087462 
L 412.90935 274.628432 
L 418.227492 285.38844 
L 423.545634 295.368203 
L 427.091062 301.684697 
L 430.63649 307.610362 
L 435.068275 314.500332 
L 439.50006 320.822207 
L 443.931845 326.568659 
L 447.477273 330.754981 
L 451.022701 334.656018 
L 454.568129 338.134844 
L 458.113558 341.307438 
L 461.658986 344.182867 
L 465.204414 346.764597 
L 468.749842 349.076711 
L 472.29527 351.188632 
L 478.499769 354.497802 
L 483.817911 356.953768 
L 487.363339 358.436866 
L 491.795124 360.128555 
L 496.226909 361.593083 
L 500.658694 362.842674 
L 504.204122 363.641077 
L 507.74955 364.282956 
L 511.294978 364.724584 
L 515.726763 365.109073 
L 520.158548 365.31256 
L 523.703976 365.365565 
L 523.703976 365.365565 
" clip-path="url(#pd7bd05361b)" style="fill: none; stroke-dasharray: 3.2375,1.4; stroke-dashoffset: 0; stroke: #7570b3; stroke-width: 0.875"/>
   </g>
   <g id="line2d_21">
    <path d="M 77.516786 366.863235 
L 85.47406 366.74888 
L 94.315475 366.338013 
L 100.504466 365.776103 
L 105.809316 365.051984 
L 112.882448 363.707842 
L 119.071439 362.220105 
L 122.608005 361.215425 
L 127.028713 359.821273 
L 132.333562 357.877714 
L 135.870129 356.33769 
L 138.522553 355.02848 
L 142.05912 353.026505 
L 145.595686 350.612401 
L 148.24811 348.507667 
L 150.900535 346.186121 
L 153.55296 343.593125 
L 156.205384 340.718816 
L 158.857809 337.576021 
L 161.510234 334.210396 
L 165.930942 328.152598 
L 171.235791 320.24168 
L 177.424782 310.402186 
L 181.84549 302.875032 
L 186.266197 294.845888 
L 189.802764 287.950079 
L 193.33933 280.492483 
L 196.875896 272.482279 
L 200.412462 263.891784 
L 203.949028 254.789516 
L 208.369736 242.946936 
L 218.095293 216.841054 
L 222.516001 205.752894 
L 226.052567 197.553484 
L 229.589134 189.954129 
L 233.1257 182.901377 
L 236.662266 176.430083 
L 241.082974 168.836808 
L 256.11338 144.056339 
L 268.491362 121.995189 
L 271.143787 117.220032 
L 276.448636 108.181194 
L 280.869344 101.238316 
L 283.521769 97.503484 
L 286.174193 94.069605 
L 288.826618 91.045548 
L 291.479043 88.466264 
L 293.247326 86.83685 
L 295.015609 85.495799 
L 296.783892 84.362025 
L 300.320458 82.651952 
L 302.088741 82.076609 
L 304.741166 81.539977 
L 306.509449 81.369134 
L 308.277732 81.409947 
L 310.930157 81.732658 
L 313.582581 82.444596 
L 316.235006 83.479462 
L 318.003289 84.302338 
L 319.771572 85.305134 
L 323.308139 87.650423 
L 326.844705 90.418994 
L 329.497129 92.836252 
L 332.149554 95.465536 
L 334.801979 98.428816 
L 337.454403 101.720629 
L 340.106828 105.262904 
L 342.759253 109.145807 
L 345.411677 113.401996 
L 348.064102 118.046179 
L 352.48481 126.573677 
L 356.021376 134.098586 
L 360.442084 144.192962 
L 368.399358 163.447126 
L 372.820066 174.398625 
L 378.124915 187.5602 
L 385.198047 204.180519 
L 387.850472 210.18396 
L 392.27118 219.746765 
L 396.691888 228.678471 
L 399.344312 233.751269 
L 404.649162 243.061339 
L 409.06987 250.24425 
L 413.490577 257.020331 
L 419.679568 266.344073 
L 425.868559 276.220379 
L 432.05755 286.874921 
L 438.246541 298.248685 
L 447.087956 314.752687 
L 451.508664 322.464379 
L 455.929372 329.511246 
L 458.581797 333.353464 
L 461.234221 336.904434 
L 463.886646 340.125017 
L 467.423212 343.911603 
L 470.075637 346.412183 
L 472.728062 348.641404 
L 476.264628 351.260263 
L 479.801194 353.508816 
L 482.453619 354.948934 
L 485.990185 356.670228 
L 489.526751 358.127586 
L 493.063317 359.382011 
L 498.368167 360.937344 
L 503.673016 362.099486 
L 508.093724 362.765251 
L 512.514432 363.173785 
L 517.819281 363.421714 
L 525.776555 363.522702 
L 529.313121 363.533291 
L 529.313121 363.533291 
" clip-path="url(#pd7bd05361b)" style="fill: none; stroke-dasharray: 5.6,1.4,0.875,1.4; stroke-dashoffset: 0; stroke: #7570b3; stroke-width: 0.875"/>
   </g>
   <g id="patch_3">
    <path d="M 47.848665 381.9125 
L 552.24 381.9125 
" style="fill: none; stroke: #333333; stroke-width: 1.5; stroke-linejoin: miter; stroke-linecap: square"/>
   </g>
   <g id="text_6">
    <!-- $x_1^2$ -->
    <g style="fill: #262626" transform="translate(283.394333 51.192)">
     <text>
      <tspan x="0" y="-0.929688" style="font-style: oblique; font-size: 30px; font-family: 'DejaVu Sans'; fill: #262626">x</tspan>
      <tspan x="17.753906" y="7.273438" style="font-size: 21px; font-family: 'DejaVu Sans'; fill: #262626">1</tspan>
      <tspan x="19.09375" y="-12.414063" style="font-size: 21px; font-family: 'DejaVu Sans'; fill: #262626">2</tspan>
     </text>
    </g>
   </g>
  </g>
 </g>
 <defs>
  <clipPath id="pd7bd05361b">
   <rect x="47.848665" y="59.592" width="504.391335" height="322.3205"/>
  </clipPath>
 </defs>
</svg>
