<?xml version="1.0" encoding="utf-8" standalone="no"?>
<!DOCTYPE svg PUBLIC "-//W3C//DTD SVG 1.1//EN"
  "http://www.w3.org/Graphics/SVG/1.1/DTD/svg11.dtd">
<svg xmlns:xlink="http://www.w3.org/1999/xlink" width="576pt" height="432pt" viewBox="0 0 576 432" xmlns="http://www.w3.org/2000/svg" version="1.1">
 <metadata>
  <rdf:RDF xmlns:dc="http://purl.org/dc/elements/1.1/" xmlns:cc="http://creativecommons.org/ns#" xmlns:rdf="http://www.w3.org/1999/02/22-rdf-syntax-ns#">
   <cc:Work>
    <dc:type rdf:resource="http://purl.org/dc/dcmitype/StillImage"/>
    <dc:date>2025-09-22T22:40:52.996477</dc:date>
    <dc:format>image/svg+xml</dc:format>
    <dc:creator>
     <cc:Agent>
      <dc:title>Matplotlib v3.10.0, https://matplotlib.org/</dc:title>
     </cc:Agent>
    </dc:creator>
   </cc:Work>
  </rdf:RDF>
 </metadata>
 <defs>
  <style type="text/css">*{stroke-linejoin: round; stroke-linecap: butt}</style>
 </defs>
 <g id="figure_1">
  <g id="patch_1">
   <path d="M 0 432 
L 576 432 
L 576 0 
L 0 0 
L 0 432 
z
" style="fill: none; opacity: 0"/>
  </g>
  <g id="axes_1">
   <g id="patch_2">
    <path d="M 32.914811 381.9125 
L 538.102374 381.9125 
L 538.102374 59.868 
L 32.914811 59.868 
L 32.914811 381.9125 
z
" style="fill: none"/>
   </g>
   <g id="matplotlib.axis_1">
    <g id="xtick_1">
     <g id="line2d_1">
      <path d="M 47.745856 381.9125 
L 47.745856 59.868 
" clip-path="url(#p6aad536e5f)" style="fill: none; stroke: #cccccc; stroke-opacity: 0.4; stroke-linecap: round"/>
     </g>
     <g id="line2d_2"/>
     <g id="text_1">
      <text style="font-size: 20px; font-family: 'DejaVu Serif', 'Times New Roman', serif; text-anchor: middle; fill: #262626" x="47.745856" y="404.109375" transform="rotate(-0 47.745856 404.109375)">0.00</text>
     </g>
    </g>
    <g id="xtick_2">
     <g id="line2d_3">
      <path d="M 168.036978 381.9125 
L 168.036978 59.868 
" clip-path="url(#p6aad536e5f)" style="fill: none; stroke: #cccccc; stroke-opacity: 0.4; stroke-linecap: round"/>
     </g>
     <g id="line2d_4"/>
     <g id="text_2">
      <text style="font-size: 20px; font-family: 'DejaVu Serif', 'Times New Roman', serif; text-anchor: middle; fill: #262626" x="168.036978" y="404.109375" transform="rotate(-0 168.036978 404.109375)">0.05</text>
     </g>
    </g>
    <g id="xtick_3">
     <g id="line2d_5">
      <path d="M 288.3281 381.9125 
L 288.3281 59.868 
" clip-path="url(#p6aad536e5f)" style="fill: none; stroke: #cccccc; stroke-opacity: 0.4; stroke-linecap: round"/>
     </g>
     <g id="line2d_6"/>
     <g id="text_3">
      <text style="font-size: 20px; font-family: 'DejaVu Serif', 'Times New Roman', serif; text-anchor: middle; fill: #262626" x="288.3281" y="404.109375" transform="rotate(-0 288.3281 404.109375)">0.10</text>
     </g>
    </g>
    <g id="xtick_4">
     <g id="line2d_7">
      <path d="M 408.619222 381.9125 
L 408.619222 59.868 
" clip-path="url(#p6aad536e5f)" style="fill: none; stroke: #cccccc; stroke-opacity: 0.4; stroke-linecap: round"/>
     </g>
     <g id="line2d_8"/>
     <g id="text_4">
      <text style="font-size: 20px; font-family: 'DejaVu Serif', 'Times New Roman', serif; text-anchor: middle; fill: #262626" x="408.619222" y="404.109375" transform="rotate(-0 408.619222 404.109375)">0.15</text>
     </g>
    </g>
    <g id="xtick_5">
     <g id="line2d_9">
      <path d="M 528.910344 381.9125 
L 528.910344 59.868 
" clip-path="url(#p6aad536e5f)" style="fill: none; stroke: #cccccc; stroke-opacity: 0.4; stroke-linecap: round"/>
     </g>
     <g id="line2d_10"/>
     <g id="text_5">
      <text style="font-size: 20px; font-family: 'DejaVu Serif', 'Times New Roman', serif; text-anchor: middle; fill: #262626" x="528.910344" y="404.109375" transform="rotate(-0 528.910344 404.109375)">0.20</text>
     </g>
    </g>
   </g>
   <g id="matplotlib.axis_2">
    <g id="ytick_1">
     <g id="line2d_11">
      <path d="M 32.914811 369.872174 
L 538.102374 369.872174 
" clip-path="url(#p6aad536e5f)" style="fill: none; stroke: #cccccc; stroke-opacity: 0.4; stroke-linecap: round"/>
     </g>
    </g>
    <g id="ytick_2">
     <g id="line2d_12">
      <path d="M 32.914811 321.066481 
L 538.102374 321.066481 
" clip-path="url(#p6aad536e5f)" style="fill: none; stroke: #cccccc; stroke-opacity: 0.4; stroke-linecap: round"/>
     </g>
    </g>
    <g id="ytick_3">
     <g id="line2d_13">
      <path d="M 32.914811 272.260787 
L 538.102374 272.260787 
" clip-path="url(#p6aad536e5f)" style="fill: none; stroke: #cccccc; stroke-opacity: 0.4; stroke-linecap: round"/>
     </g>
    </g>
    <g id="ytick_4">
     <g id="line2d_14">
      <path d="M 32.914811 223.455094 
L 538.102374 223.455094 
" clip-path="url(#p6aad536e5f)" style="fill: none; stroke: #cccccc; stroke-opacity: 0.4; stroke-linecap: round"/>
     </g>
    </g>
    <g id="ytick_5">
     <g id="line2d_15">
      <path d="M 32.914811 174.6494 
L 538.102374 174.6494 
" clip-path="url(#p6aad536e5f)" style="fill: none; stroke: #cccccc; stroke-opacity: 0.4; stroke-linecap: round"/>
     </g>
    </g>
    <g id="ytick_6">
     <g id="line2d_16">
      <path d="M 32.914811 125.843707 
L 538.102374 125.843707 
" clip-path="url(#p6aad536e5f)" style="fill: none; stroke: #cccccc; stroke-opacity: 0.4; stroke-linecap: round"/>
     </g>
    </g>
    <g id="ytick_7">
     <g id="line2d_17">
      <path d="M 32.914811 77.038013 
L 538.102374 77.038013 
" clip-path="url(#p6aad536e5f)" style="fill: none; stroke: #cccccc; stroke-opacity: 0.4; stroke-linecap: round"/>
     </g>
    </g>
   </g>
   <g id="line2d_18">
    <path d="M 55.877882 365.233543 
L 59.241858 365.265768 
L 65.969809 365.583054 
L 79.425712 366.207171 
L 82.789688 366.1301 
L 87.835651 365.698919 
L 91.199627 365.136511 
L 94.563602 364.355778 
L 97.927578 363.344672 
L 101.291554 362.04861 
L 104.65553 360.5004 
L 108.860499 358.300373 
L 113.065469 355.863585 
L 121.475408 350.811822 
L 125.680378 348.461361 
L 130.726341 345.9851 
L 134.931311 344.144298 
L 145.023238 340.018195 
L 148.387214 338.417115 
L 151.751189 336.564243 
L 155.115165 334.416042 
L 158.479141 331.971454 
L 162.68411 328.489221 
L 165.207092 326.161184 
L 169.412062 321.950842 
L 173.617032 317.319551 
L 176.981007 313.340817 
L 180.344983 309.153497 
L 183.708959 304.533151 
L 186.23194 300.754777 
L 189.595916 295.189033 
L 192.959892 288.998871 
L 195.482874 283.751395 
L 198.005855 278.016422 
L 201.369831 269.526783 
L 204.733807 260.105184 
L 208.097783 249.861708 
L 211.461758 239.045509 
L 222.394679 203.007951 
L 225.758655 192.792714 
L 229.963625 181.01124 
L 233.3276 172.559104 
L 235.009588 168.551399 
L 238.373564 161.255429 
L 241.73754 154.596415 
L 244.260521 149.913182 
L 248.465491 142.73331 
L 251.829467 137.484974 
L 256.034436 131.414509 
L 259.398412 127.146545 
L 261.921394 124.271726 
L 265.285369 120.897083 
L 268.649345 118.099053 
L 270.331333 116.844278 
L 272.854315 115.295455 
L 277.059284 113.242689 
L 283.787236 110.536804 
L 287.151212 109.127173 
L 290.515187 107.383907 
L 293.879163 105.340337 
L 299.76612 101.116687 
L 304.812084 97.534674 
L 306.494072 96.551747 
L 309.017054 95.377451 
L 310.699041 94.802969 
L 311.540035 94.605218 
L 313.222023 94.552755 
L 314.904011 94.806427 
L 316.585999 95.419994 
L 317.426993 95.8351 
L 319.108981 96.981541 
L 320.790969 98.482778 
L 322.472956 100.373231 
L 323.31395 101.419529 
L 325.836932 105.239854 
L 328.359914 109.778593 
L 331.72389 116.951308 
L 334.246871 122.919372 
L 337.610847 131.460947 
L 340.974823 140.459924 
L 352.748738 172.506472 
L 358.635695 187.636364 
L 363.681659 199.972309 
L 370.40961 216.387433 
L 376.296568 231.177258 
L 379.660543 240.137986 
L 384.706507 254.326689 
L 391.434458 274.161836 
L 397.321416 291.253546 
L 401.526386 302.619858 
L 404.049367 308.914261 
L 406.572349 314.676563 
L 409.095331 319.922203 
L 411.618313 324.703166 
L 413.3003 327.620164 
L 415.823282 331.466879 
L 418.346264 334.889812 
L 420.869246 337.939511 
L 423.392228 340.585467 
L 425.915209 342.960052 
L 429.279185 345.750774 
L 432.643161 348.251618 
L 437.689124 351.544363 
L 441.0531 353.5535 
L 446.940058 356.671048 
L 450.304033 358.217115 
L 453.668009 359.561611 
L 457.872979 360.918482 
L 460.39596 361.586248 
L 464.60093 362.430821 
L 467.964906 362.892052 
L 473.010869 363.318443 
L 476.374845 363.467898 
L 483.94379 363.544411 
L 485.625778 363.555085 
L 485.625778 363.555085 
" clip-path="url(#p6aad536e5f)" style="fill: none; stroke: #7570b3; stroke-width: 0.875; stroke-linecap: round"/>
   </g>
   <g id="line2d_19">
    <path d="M 118.275734 349.6884 
L 120.328109 349.576641 
L 122.380485 349.246274 
L 125.116986 348.568556 
L 127.853486 347.60928 
L 130.589987 346.463737 
L 134.694738 344.448291 
L 139.483615 341.868529 
L 144.956616 338.627218 
L 149.745492 335.460534 
L 153.166118 332.874498 
L 155.902619 330.586108 
L 158.63912 327.983924 
L 161.37562 325.095407 
L 164.112121 321.971503 
L 168.216872 316.719888 
L 174.373999 308.10105 
L 183.951752 293.6214 
L 188.740628 286.018921 
L 193.529504 277.875003 
L 196.95013 271.563448 
L 199.686631 266.091646 
L 203.107257 258.753633 
L 206.527883 250.859892 
L 212.000884 236.997231 
L 216.78976 224.034016 
L 222.946887 206.492956 
L 230.472264 184.496636 
L 246.207143 138.357544 
L 250.311894 127.207493 
L 253.048395 120.300376 
L 256.469021 112.452266 
L 259.205522 106.84059 
L 262.626148 100.769416 
L 263.994398 98.676984 
L 266.046774 95.876077 
L 268.099149 93.499062 
L 270.151525 91.451924 
L 271.519775 90.241214 
L 273.572151 88.804768 
L 276.308651 87.468907 
L 279.045152 86.604494 
L 281.781653 86.121657 
L 283.834028 86.012761 
L 285.886404 86.096922 
L 287.93878 86.192581 
L 292.727656 86.829049 
L 295.464157 87.394705 
L 301.621283 88.887304 
L 305.726034 90.238688 
L 311.199036 92.93449 
L 313.251411 94.281378 
L 315.987912 96.440782 
L 318.724413 99.134731 
L 320.776788 101.494508 
L 322.829164 104.191155 
L 324.88154 107.309705 
L 326.933915 110.831615 
L 328.986291 114.774579 
L 331.722791 120.630697 
L 333.775167 125.590323 
L 336.511668 132.879848 
L 339.932294 142.787668 
L 344.037045 155.601381 
L 355.667173 192.432295 
L 359.771924 204.248156 
L 363.19255 213.379858 
L 368.665551 227.149728 
L 383.03218 263.056627 
L 391.925808 285.692837 
L 397.398809 298.848205 
L 401.50356 308.170105 
L 405.608311 316.972752 
L 410.397188 326.551725 
L 414.501939 334.059463 
L 417.922565 339.769256 
L 420.659065 343.846438 
L 423.395566 347.491209 
L 425.447942 349.916053 
L 427.500317 352.064212 
L 430.236818 354.533613 
L 432.289193 356.000086 
L 434.341569 357.210155 
L 436.393945 358.159518 
L 438.44632 358.897592 
L 440.498696 359.427748 
L 442.551071 359.778358 
L 445.971697 360.036722 
L 450.076448 359.997778 
L 456.9177 359.667719 
L 465.127202 359.375223 
L 467.863703 359.369789 
L 467.863703 359.369789 
" clip-path="url(#p6aad536e5f)" style="fill: none; stroke-dasharray: 0.875,1.44375; stroke-dashoffset: 0; stroke: #7570b3; stroke-width: 0.875"/>
   </g>
   <g id="line2d_20">
    <path d="M 75.981768 364.71048 
L 82.373323 364.768923 
L 100.749042 365.15425 
L 105.542708 364.885863 
L 109.53743 364.43681 
L 114.331096 363.558582 
L 119.124762 362.285576 
L 123.119483 360.96441 
L 127.114205 359.368513 
L 130.309982 357.894384 
L 133.50576 356.215612 
L 137.500481 353.797075 
L 140.696258 351.57761 
L 143.892036 349.106148 
L 147.087813 346.3527 
L 149.484646 344.0347 
L 152.680423 340.699275 
L 155.077256 337.962717 
L 158.273034 334.016545 
L 160.669867 330.759147 
L 164.664588 324.848896 
L 167.860365 319.622296 
L 170.257198 315.383424 
L 174.25192 307.624825 
L 178.246642 299.112262 
L 182.241363 289.929318 
L 186.236085 280.189925 
L 191.828695 265.831066 
L 207.008637 226.137871 
L 232.574856 161.051186 
L 238.167466 147.616132 
L 242.162187 138.644528 
L 245.357965 131.822075 
L 248.553742 125.479029 
L 250.950575 121.122421 
L 253.347408 117.066796 
L 255.744241 113.426455 
L 258.141074 110.166585 
L 259.738962 108.225607 
L 261.336851 106.485544 
L 264.532628 103.610645 
L 266.929461 101.905074 
L 268.52735 101.028307 
L 270.924183 100.025192 
L 274.11996 99.195638 
L 278.114682 98.600023 
L 282.908348 97.965585 
L 286.903069 97.058378 
L 290.098847 96.06461 
L 293.294624 94.717095 
L 299.686179 92.052592 
L 302.083012 91.503814 
L 303.6809 91.38079 
L 305.278789 91.494478 
L 306.077733 91.65337 
L 307.675622 92.264679 
L 309.27351 93.132102 
L 310.871399 94.412672 
L 312.469288 96.11445 
L 314.067176 98.046705 
L 315.665065 100.363696 
L 317.262954 102.987662 
L 319.659787 107.545142 
L 322.05662 112.721409 
L 325.252397 120.39067 
L 328.448174 128.69375 
L 334.040784 143.968692 
L 360.405947 217.217151 
L 367.596446 235.692961 
L 371.591168 245.415423 
L 377.982722 260.389053 
L 383.575332 273.014965 
L 389.167943 285.174305 
L 394.760553 296.725461 
L 398.755275 304.404568 
L 401.951052 310.112719 
L 404.347885 314.11142 
L 406.744718 317.927971 
L 409.940495 322.562664 
L 412.337328 325.80494 
L 415.533105 329.832229 
L 418.728883 333.456971 
L 422.723604 337.607497 
L 425.919381 340.683895 
L 429.914103 344.273495 
L 433.10988 346.996867 
L 437.903546 350.649445 
L 441.898268 353.46199 
L 446.691934 356.405688 
L 449.887711 358.10038 
L 454.681377 360.251735 
L 457.877154 361.423619 
L 461.871876 362.581806 
L 465.866598 363.457152 
L 469.062375 364.003613 
L 473.856041 364.534623 
L 477.850762 364.809661 
L 484.242317 364.963028 
L 484.242317 364.963028 
" clip-path="url(#p6aad536e5f)" style="fill: none; stroke-dasharray: 3.2375,1.4; stroke-dashoffset: 0; stroke: #7570b3; stroke-width: 0.875"/>
   </g>
   <g id="line2d_21">
    <path d="M 74.751219 367.198396 
L 83.369381 367.247489 
L 90.263911 367.24245 
L 95.434808 366.978732 
L 99.743889 366.47015 
L 103.191154 365.868572 
L 107.500235 364.755449 
L 110.9475 363.633348 
L 114.394765 362.280242 
L 118.703846 360.268206 
L 122.151111 358.437324 
L 129.04564 354.350603 
L 134.216538 351.048131 
L 144.558332 343.77645 
L 148.867413 340.323086 
L 152.314678 337.227828 
L 156.623759 332.790306 
L 160.071024 328.80149 
L 162.656473 325.513688 
L 165.241921 321.998372 
L 169.551002 315.683355 
L 176.445532 304.95299 
L 182.478245 295.05673 
L 188.510959 284.638449 
L 191.958224 278.272113 
L 196.267305 269.570559 
L 199.71457 261.955592 
L 203.161835 253.767291 
L 207.470916 242.835182 
L 210.91818 233.629792 
L 225.569056 193.511141 
L 252.285359 121.987422 
L 255.732623 113.365803 
L 259.179888 105.252058 
L 261.765337 99.662297 
L 264.350786 94.423997 
L 266.936234 89.738506 
L 268.659867 86.90346 
L 271.245315 83.06226 
L 272.968948 80.888218 
L 274.69258 78.970441 
L 276.416212 77.409163 
L 279.001661 75.613267 
L 280.725294 74.894303 
L 282.448926 74.541979 
L 284.172558 74.561372 
L 285.896191 74.932231 
L 287.619823 75.648274 
L 288.481639 76.099597 
L 290.205272 77.435067 
L 291.928904 79.103601 
L 293.652537 81.077041 
L 295.376169 83.406639 
L 297.099802 86.019402 
L 299.68525 90.592639 
L 302.270699 95.612569 
L 305.717964 102.894208 
L 318.645207 130.878744 
L 322.092472 137.526473 
L 324.67792 142.226564 
L 328.125185 148.044629 
L 340.190612 167.81546 
L 343.637877 174.113516 
L 346.223326 179.147231 
L 350.532407 188.147733 
L 354.841488 197.927493 
L 360.874201 212.458246 
L 372.077812 239.589389 
L 375.525077 247.589646 
L 381.55779 261.151092 
L 388.45232 275.803932 
L 394.485033 288.020873 
L 397.932298 294.777655 
L 401.379563 301.147708 
L 406.55046 310.142917 
L 410.859541 316.972727 
L 414.306806 321.921986 
L 417.754071 326.378757 
L 421.201336 330.423612 
L 424.648601 334.013292 
L 427.234049 336.393371 
L 430.681314 339.27411 
L 434.990395 342.473716 
L 439.299476 345.283082 
L 447.055822 349.808708 
L 461.706698 357.761219 
L 465.153963 359.50273 
L 470.32486 361.85994 
L 474.633941 363.507552 
L 478.081206 364.567852 
L 481.528471 365.385617 
L 484.975736 365.960218 
L 488.423 366.317873 
L 492.732081 366.483316 
L 496.179346 366.441273 
L 503.073876 366.087165 
L 510.830222 365.648759 
L 515.139303 365.545179 
L 515.139303 365.545179 
" clip-path="url(#p6aad536e5f)" style="fill: none; stroke-dasharray: 5.6,1.4,0.875,1.4; stroke-dashoffset: 0; stroke: #7570b3; stroke-width: 0.875"/>
   </g>
   <g id="patch_3">
    <path d="M 32.914811 381.9125 
L 538.102374 381.9125 
" style="fill: none; stroke: #333333; stroke-width: 1.5; stroke-linejoin: miter; stroke-linecap: square"/>
   </g>
   <g id="text_6">
    <!-- $x_1^3x_3$ -->
    <g style="fill: #262626" transform="translate(252.808592 51.468)">
     <text>
      <tspan x="0" y="-0.929688" style="font-style: oblique; font-size: 30px; font-family: 'DejaVu Sans'; fill: #262626">x</tspan>
      <tspan x="33.274902" y="-0.929688" style="font-style: oblique; font-size: 30px; font-family: 'DejaVu Sans'; fill: #262626">x</tspan>
      <tspan x="17.753906" y="7.273438" style="font-size: 21px; font-family: 'DejaVu Sans'; fill: #262626">1</tspan>
      <tspan x="19.09375" y="-12.414063" style="font-size: 21px; font-family: 'DejaVu Sans'; fill: #262626">3</tspan>
      <tspan x="51.028809" y="3.992188" style="font-size: 21px; font-family: 'DejaVu Sans'; fill: #262626">3</tspan>
     </text>
    </g>
   </g>
  </g>
 </g>
 <defs>
  <clipPath id="p6aad536e5f">
   <rect x="32.914811" y="59.868" width="505.187563" height="322.0445"/>
  </clipPath>
 </defs>
</svg>
