<?xml version="1.0" encoding="utf-8" standalone="no"?>
<!DOCTYPE svg PUBLIC "-//W3C//DTD SVG 1.1//EN"
  "http://www.w3.org/Graphics/SVG/1.1/DTD/svg11.dtd">
<svg xmlns:xlink="http://www.w3.org/1999/xlink" width="576pt" height="432pt" viewBox="0 0 576 432" xmlns="http://www.w3.org/2000/svg" version="1.1">
 <metadata>
  <rdf:RDF xmlns:dc="http://purl.org/dc/elements/1.1/" xmlns:cc="http://creativecommons.org/ns#" xmlns:rdf="http://www.w3.org/1999/02/22-rdf-syntax-ns#">
   <cc:Work>
    <dc:type rdf:resource="http://purl.org/dc/dcmitype/StillImage"/>
    <dc:date>2025-09-22T22:40:53.647870</dc:date>
    <dc:format>image/svg+xml</dc:format>
    <dc:creator>
     <cc:Agent>
      <dc:title>Matplotlib v3.10.0, https://matplotlib.org/</dc:title>
     </cc:Agent>
    </dc:creator>
   </cc:Work>
  </rdf:RDF>
 </metadata>
 <defs>
  <style type="text/css">*{stroke-linejoin: round; stroke-linecap: butt}</style>
 </defs>
 <g id="figure_1">
  <g id="patch_1">
   <path d="M 0 432 
L 576 432 
L 576 0 
L 0 0 
L 0 432 
z
" style="fill: none; opacity: 0"/>
  </g>
  <g id="axes_1">
   <g id="patch_2">
    <path d="M 23.76 381.9125 
L 537.126787 381.9125 
L 537.126787 59.736 
L 23.76 59.736 
L 23.76 381.9125 
z
" style="fill: none"/>
   </g>
   <g id="matplotlib.axis_1">
    <g id="xtick_1">
     <g id="line2d_1">
      <path d="M 88.198974 381.9125 
L 88.198974 59.736 
" clip-path="url(#pd0b313dfe8)" style="fill: none; stroke: #cccccc; stroke-opacity: 0.4; stroke-linecap: round"/>
     </g>
     <g id="line2d_2"/>
     <g id="text_1">
      <text style="font-size: 20px; font-family: 'DejaVu Serif', 'Times New Roman', serif; text-anchor: middle; fill: #262626" x="88.198974" y="404.109375" transform="rotate(-0 88.198974 404.109375)">−0.03</text>
     </g>
    </g>
    <g id="xtick_2">
     <g id="line2d_3">
      <path d="M 161.650457 381.9125 
L 161.650457 59.736 
" clip-path="url(#pd0b313dfe8)" style="fill: none; stroke: #cccccc; stroke-opacity: 0.4; stroke-linecap: round"/>
     </g>
     <g id="line2d_4"/>
     <g id="text_2">
      <text style="font-size: 20px; font-family: 'DejaVu Serif', 'Times New Roman', serif; text-anchor: middle; fill: #262626" x="161.650457" y="404.109375" transform="rotate(-0 161.650457 404.109375)">−0.02</text>
     </g>
    </g>
    <g id="xtick_3">
     <g id="line2d_5">
      <path d="M 235.10194 381.9125 
L 235.10194 59.736 
" clip-path="url(#pd0b313dfe8)" style="fill: none; stroke: #cccccc; stroke-opacity: 0.4; stroke-linecap: round"/>
     </g>
     <g id="line2d_6"/>
     <g id="text_3">
      <text style="font-size: 20px; font-family: 'DejaVu Serif', 'Times New Roman', serif; text-anchor: middle; fill: #262626" x="235.10194" y="404.109375" transform="rotate(-0 235.10194 404.109375)">−0.01</text>
     </g>
    </g>
    <g id="xtick_4">
     <g id="line2d_7">
      <path d="M 308.553424 381.9125 
L 308.553424 59.736 
" clip-path="url(#pd0b313dfe8)" style="fill: none; stroke: #cccccc; stroke-opacity: 0.4; stroke-linecap: round"/>
     </g>
     <g id="line2d_8"/>
     <g id="text_4">
      <text style="font-size: 20px; font-family: 'DejaVu Serif', 'Times New Roman', serif; text-anchor: middle; fill: #262626" x="308.553424" y="404.109375" transform="rotate(-0 308.553424 404.109375)">0.00</text>
     </g>
    </g>
    <g id="xtick_5">
     <g id="line2d_9">
      <path d="M 382.004907 381.9125 
L 382.004907 59.736 
" clip-path="url(#pd0b313dfe8)" style="fill: none; stroke: #cccccc; stroke-opacity: 0.4; stroke-linecap: round"/>
     </g>
     <g id="line2d_10"/>
     <g id="text_5">
      <text style="font-size: 20px; font-family: 'DejaVu Serif', 'Times New Roman', serif; text-anchor: middle; fill: #262626" x="382.004907" y="404.109375" transform="rotate(-0 382.004907 404.109375)">0.01</text>
     </g>
    </g>
    <g id="xtick_6">
     <g id="line2d_11">
      <path d="M 455.45639 381.9125 
L 455.45639 59.736 
" clip-path="url(#pd0b313dfe8)" style="fill: none; stroke: #cccccc; stroke-opacity: 0.4; stroke-linecap: round"/>
     </g>
     <g id="line2d_12"/>
     <g id="text_6">
      <text style="font-size: 20px; font-family: 'DejaVu Serif', 'Times New Roman', serif; text-anchor: middle; fill: #262626" x="455.45639" y="404.109375" transform="rotate(-0 455.45639 404.109375)">0.02</text>
     </g>
    </g>
    <g id="xtick_7">
     <g id="line2d_13">
      <path d="M 528.907873 381.9125 
L 528.907873 59.736 
" clip-path="url(#pd0b313dfe8)" style="fill: none; stroke: #cccccc; stroke-opacity: 0.4; stroke-linecap: round"/>
     </g>
     <g id="line2d_14"/>
     <g id="text_7">
      <text style="font-size: 20px; font-family: 'DejaVu Serif', 'Times New Roman', serif; text-anchor: middle; fill: #262626" x="528.907873" y="404.109375" transform="rotate(-0 528.907873 404.109375)">0.03</text>
     </g>
    </g>
   </g>
   <g id="matplotlib.axis_2">
    <g id="ytick_1">
     <g id="line2d_15">
      <path d="M 23.76 369.966994 
L 537.126787 369.966994 
" clip-path="url(#pd0b313dfe8)" style="fill: none; stroke: #cccccc; stroke-opacity: 0.4; stroke-linecap: round"/>
     </g>
    </g>
    <g id="ytick_2">
     <g id="line2d_16">
      <path d="M 23.76 304.285627 
L 537.126787 304.285627 
" clip-path="url(#pd0b313dfe8)" style="fill: none; stroke: #cccccc; stroke-opacity: 0.4; stroke-linecap: round"/>
     </g>
    </g>
    <g id="ytick_3">
     <g id="line2d_17">
      <path d="M 23.76 238.604259 
L 537.126787 238.604259 
" clip-path="url(#pd0b313dfe8)" style="fill: none; stroke: #cccccc; stroke-opacity: 0.4; stroke-linecap: round"/>
     </g>
    </g>
    <g id="ytick_4">
     <g id="line2d_18">
      <path d="M 23.76 172.922892 
L 537.126787 172.922892 
" clip-path="url(#pd0b313dfe8)" style="fill: none; stroke: #cccccc; stroke-opacity: 0.4; stroke-linecap: round"/>
     </g>
    </g>
    <g id="ytick_5">
     <g id="line2d_19">
      <path d="M 23.76 107.241525 
L 537.126787 107.241525 
" clip-path="url(#pd0b313dfe8)" style="fill: none; stroke: #cccccc; stroke-opacity: 0.4; stroke-linecap: round"/>
     </g>
    </g>
   </g>
   <g id="line2d_20">
    <path d="M 47.094854 362.913919 
L 53.253551 362.852436 
L 62.051689 362.503023 
L 69.0902 362.026427 
L 76.12871 361.322902 
L 83.167221 360.352443 
L 85.806663 359.887398 
L 92.845173 358.296411 
L 96.364429 357.248604 
L 99.883684 355.976832 
L 103.402939 354.457114 
L 106.042381 353.132224 
L 108.681822 351.619098 
L 111.321264 349.938959 
L 114.840519 347.357485 
L 118.359774 344.436087 
L 122.758844 340.277482 
L 127.157913 335.653659 
L 130.677168 331.717018 
L 137.715679 323.414924 
L 155.311955 302.013699 
L 160.590838 295.288809 
L 164.110094 290.599755 
L 167.629349 285.59441 
L 171.148604 280.260207 
L 175.547674 273.050377 
L 179.066929 266.79487 
L 183.465998 258.430186 
L 186.985253 251.29984 
L 192.264136 239.972021 
L 208.980599 203.072687 
L 212.499854 196.042185 
L 216.01911 189.528124 
L 218.658551 185.061104 
L 221.297993 180.914957 
L 223.937434 177.135602 
L 226.576876 173.713774 
L 230.975945 168.719681 
L 234.4952 165.303198 
L 237.134642 162.917068 
L 241.533711 159.419485 
L 248.572222 154.252704 
L 252.091477 151.679588 
L 261.769429 144.896764 
L 266.168498 142.104289 
L 271.447381 139.417063 
L 274.966637 138.016416 
L 277.606078 137.329344 
L 280.24552 136.866868 
L 282.884961 136.706107 
L 285.524403 136.819639 
L 287.28403 137.068266 
L 289.923472 137.635264 
L 293.442727 138.788309 
L 296.961982 140.282092 
L 300.481238 142.075982 
L 303.120679 143.54235 
L 308.399562 146.914324 
L 311.918818 149.523217 
L 316.317887 153.045982 
L 321.59677 157.811362 
L 326.875653 163.235628 
L 332.154536 169.176933 
L 337.433419 175.67618 
L 342.712302 182.65366 
L 348.870999 191.518053 
L 353.270068 198.293805 
L 358.548951 207.082641 
L 364.707648 218.254044 
L 369.986531 228.506525 
L 385.82318 259.796274 
L 390.222249 267.714091 
L 394.621318 275.084589 
L 399.020387 281.997851 
L 404.29927 289.62965 
L 409.578153 296.782563 
L 418.376291 308.310614 
L 436.852382 332.118518 
L 441.251451 337.408463 
L 444.770706 341.391221 
L 448.289962 345.042608 
L 451.809217 348.328951 
L 454.448658 350.568548 
L 457.967914 353.185462 
L 461.487169 355.411139 
L 464.126611 356.82444 
L 465.886238 357.679582 
L 469.405494 359.090424 
L 472.044935 359.984258 
L 475.56419 360.969871 
L 479.083446 361.730453 
L 483.482515 362.444767 
L 488.761398 363.030831 
L 494.040281 363.345053 
L 496.679722 363.375967 
L 496.679722 363.375967 
" clip-path="url(#pd0b313dfe8)" style="fill: none; stroke: #7570b3; stroke-width: 0.875; stroke-linecap: round"/>
   </g>
   <g id="line2d_21">
    <path d="M 95.179727 349.197548 
L 102.219567 349.028362 
L 106.912793 348.646379 
L 110.041611 348.175 
L 112.388224 347.640359 
L 116.299246 346.306173 
L 118.645859 345.248817 
L 120.992473 343.97345 
L 123.339086 342.499966 
L 126.467903 340.22043 
L 129.596721 337.622832 
L 134.289948 333.218626 
L 138.983174 328.402469 
L 142.894196 324.290643 
L 149.934036 316.691395 
L 155.409467 310.67942 
L 159.320489 306.08788 
L 162.449307 302.176975 
L 165.578124 297.974864 
L 168.706942 293.386108 
L 172.617964 287.034624 
L 175.746782 281.523441 
L 179.657804 274.19536 
L 192.955279 248.771703 
L 197.648505 240.806074 
L 201.559527 234.645202 
L 209.381572 222.530912 
L 213.292594 215.922103 
L 216.421411 210.202291 
L 219.550229 203.903974 
L 224.243456 193.704098 
L 236.758726 164.811859 
L 239.887544 158.184172 
L 243.016362 152.022882 
L 246.145179 146.432433 
L 249.273997 141.335763 
L 252.402815 136.716532 
L 257.878245 129.344802 
L 261.007063 125.418771 
L 264.918085 120.562436 
L 270.393516 113.31402 
L 274.304538 107.80465 
L 278.21556 101.847343 
L 289.166422 84.434353 
L 291.513035 81.256327 
L 293.859649 78.449507 
L 295.424057 77.042141 
L 296.988466 75.839211 
L 298.552875 74.964214 
L 300.117284 74.466625 
L 301.681693 74.386146 
L 303.246102 74.744108 
L 304.81051 75.543066 
L 306.374919 76.803679 
L 307.157124 77.572712 
L 308.721533 79.526914 
L 310.285941 81.843298 
L 311.85035 84.596961 
L 313.414759 87.762075 
L 315.761372 93.174791 
L 318.107986 99.237922 
L 320.454599 105.902418 
L 323.583416 115.43664 
L 327.494439 127.834719 
L 332.969869 145.567041 
L 341.574118 172.098779 
L 346.267345 185.595058 
L 352.52498 202.744231 
L 361.911433 227.688489 
L 373.644499 258.476541 
L 379.11993 272.359734 
L 383.813157 283.723221 
L 387.724179 292.412537 
L 390.852996 298.791379 
L 393.981814 304.56594 
L 397.110632 309.844075 
L 400.239449 314.398961 
L 402.586063 317.475697 
L 404.932676 320.254785 
L 408.061493 323.455691 
L 410.408107 325.569978 
L 413.536924 328.069426 
L 416.665742 330.298104 
L 423.705582 334.773144 
L 429.181013 338.243242 
L 434.656444 342.133237 
L 438.567466 345.226753 
L 451.864941 355.856331 
L 455.775963 358.476973 
L 458.904781 360.275474 
L 462.033598 361.801023 
L 465.162416 363.048765 
L 468.291234 364.034408 
L 472.202256 364.967292 
L 476.113278 365.596867 
L 480.806504 366.076423 
L 487.06414 366.406578 
L 494.103979 366.492276 
L 494.886184 366.494005 
L 494.886184 366.494005 
" clip-path="url(#pd0b313dfe8)" style="fill: none; stroke-dasharray: 0.875,1.44375; stroke-dashoffset: 0; stroke: #7570b3; stroke-width: 0.875"/>
   </g>
   <g id="line2d_22">
    <path d="M 95.965616 363.436469 
L 101.947419 363.243506 
L 105.686045 362.947396 
L 110.920122 362.06031 
L 113.163298 361.521582 
L 116.1542 360.597763 
L 119.145101 359.400963 
L 122.136002 357.979059 
L 125.126903 356.19848 
L 128.117804 354.21571 
L 131.108706 351.93372 
L 134.099607 349.370924 
L 137.090508 346.43957 
L 139.333684 344.065504 
L 143.072311 339.65182 
L 146.063212 335.807201 
L 149.054113 331.701213 
L 158.026817 318.354733 
L 164.756345 308.281763 
L 171.485872 298.737516 
L 181.206301 285.277344 
L 184.197202 280.747194 
L 187.935829 274.670051 
L 190.92673 269.286896 
L 193.917631 263.457632 
L 197.656258 255.590262 
L 201.394885 247.093934 
L 205.881236 236.063256 
L 208.872138 228.390485 
L 214.85394 212.50012 
L 230.556172 170.313801 
L 233.547073 162.824421 
L 237.285699 154.222246 
L 239.528875 149.449901 
L 241.772051 144.965675 
L 244.015227 140.707972 
L 247.006128 135.522212 
L 250.744755 129.555646 
L 254.483381 124.092731 
L 261.960634 113.612463 
L 273.176514 98.210951 
L 277.662866 92.386868 
L 280.653767 88.895933 
L 283.644668 85.780292 
L 285.887844 83.865646 
L 288.13102 82.244853 
L 289.626471 81.349564 
L 291.869647 80.306689 
L 293.365097 79.885171 
L 295.608273 79.686655 
L 297.103724 79.874499 
L 298.599174 80.201559 
L 300.094625 80.785053 
L 301.590076 81.646616 
L 303.085526 82.780696 
L 304.580977 84.217241 
L 306.824153 86.793454 
L 308.319603 88.82559 
L 310.562779 92.41845 
L 312.805955 96.493361 
L 315.049131 100.954114 
L 318.040032 107.62938 
L 321.778659 116.701105 
L 328.508187 134.047835 
L 335.98544 153.157208 
L 342.714968 169.443461 
L 355.426298 198.254029 
L 363.651276 216.583672 
L 382.344409 259.00479 
L 388.326211 272.147774 
L 393.560288 282.996065 
L 398.04664 291.627205 
L 403.280717 300.975507 
L 407.019344 307.261709 
L 413.001146 316.7337 
L 419.730674 326.874356 
L 425.712477 335.395803 
L 429.451103 340.443976 
L 433.937455 345.912344 
L 436.928356 349.164242 
L 439.919257 352.030451 
L 442.910159 354.463405 
L 445.90106 356.465716 
L 448.144236 357.674586 
L 450.387412 358.635262 
L 452.630588 359.34517 
L 455.621489 359.949939 
L 458.61239 360.217571 
L 462.351017 360.244013 
L 466.089643 360.012196 
L 476.557797 359.287207 
L 478.053248 359.258585 
L 478.053248 359.258585 
" clip-path="url(#pd0b313dfe8)" style="fill: none; stroke-dasharray: 3.2375,1.4; stroke-dashoffset: 0; stroke: #7570b3; stroke-width: 0.875"/>
   </g>
   <g id="line2d_23">
    <path d="M 63.69798 365.717844 
L 71.625271 365.840437 
L 82.194992 365.854646 
L 85.718232 365.644377 
L 90.122282 365.188461 
L 93.645523 364.567781 
L 98.049573 363.514454 
L 100.692003 362.718122 
L 104.215244 361.490225 
L 107.738484 360.020814 
L 113.023345 357.313375 
L 115.665775 355.652783 
L 118.308205 353.834933 
L 121.831445 351.004936 
L 124.473876 348.552486 
L 127.116306 345.848655 
L 130.639546 341.809439 
L 134.162787 337.38394 
L 138.566837 331.318348 
L 144.732508 322.373246 
L 151.778988 312.193184 
L 157.063849 304.922315 
L 163.229519 296.860667 
L 169.39519 288.818313 
L 175.560861 280.287583 
L 180.845721 272.395371 
L 186.130582 264.075639 
L 193.177062 252.194168 
L 199.342733 241.091615 
L 202.865973 234.341673 
L 206.389214 227.156383 
L 210.793264 217.511209 
L 215.197314 206.996386 
L 218.720555 198.117459 
L 224.886225 181.819236 
L 230.171086 167.775393 
L 233.694326 158.876505 
L 237.217566 150.519605 
L 239.859997 144.687705 
L 242.502427 139.274932 
L 246.025667 132.785205 
L 248.668098 128.337656 
L 251.310528 124.323501 
L 253.952958 120.448504 
L 258.357009 114.608187 
L 263.641869 108.324987 
L 266.284299 105.339853 
L 268.92673 102.485215 
L 272.44997 98.972152 
L 274.21159 97.42822 
L 275.97321 96.002082 
L 279.496451 93.648663 
L 282.138881 92.334044 
L 283.900501 91.706309 
L 284.781311 91.413727 
L 286.542931 91.131986 
L 288.304551 91.035539 
L 290.066172 91.124574 
L 291.827792 91.427748 
L 293.589412 91.956061 
L 296.231842 93.228874 
L 297.993462 94.265067 
L 299.755082 95.56227 
L 301.516703 97.070128 
L 304.159133 99.742152 
L 306.801563 102.893269 
L 309.443993 106.498363 
L 312.086424 110.569678 
L 314.728854 115.122146 
L 318.252094 121.632298 
L 323.536955 132.404467 
L 330.583435 147.420375 
L 336.749106 160.294198 
L 344.676397 176.164981 
L 350.842067 188.779138 
L 356.126928 200.478458 
L 359.650168 208.922633 
L 364.054219 220.256586 
L 368.458269 232.322648 
L 373.74313 247.564954 
L 381.67042 270.749414 
L 385.193661 280.642443 
L 388.716901 290.002257 
L 392.240141 298.670928 
L 394.882572 304.622972 
L 397.525002 310.019556 
L 400.167432 314.933026 
L 402.809862 319.295685 
L 405.452293 323.173519 
L 408.094723 326.611692 
L 409.856343 328.659061 
L 413.379583 332.327507 
L 416.022014 334.768418 
L 420.426064 338.42547 
L 425.710925 342.454494 
L 432.757405 347.478247 
L 438.923076 351.482328 
L 443.327126 354.104607 
L 447.731177 356.410611 
L 452.135227 358.454987 
L 456.539278 360.174901 
L 460.943328 361.64619 
L 467.108999 363.337666 
L 472.393859 364.539075 
L 478.55953 365.646584 
L 484.7252 366.451048 
L 490.890871 366.964312 
L 497.056541 367.221985 
L 504.983832 367.2577 
L 513.791933 367.196421 
L 513.791933 367.196421 
" clip-path="url(#pd0b313dfe8)" style="fill: none; stroke-dasharray: 5.6,1.4,0.875,1.4; stroke-dashoffset: 0; stroke: #7570b3; stroke-width: 0.875"/>
   </g>
   <g id="patch_3">
    <path d="M 23.76 381.9125 
L 537.126787 381.9125 
" style="fill: none; stroke: #333333; stroke-width: 1.5; stroke-linejoin: miter; stroke-linecap: square"/>
   </g>
   <g id="text_8">
    <!-- $x_2x_3^2$ -->
    <g style="fill: #262626" transform="translate(247.743394 51.036)">
     <text>
      <tspan x="0" y="-0.929688" style="font-style: oblique; font-size: 30px; font-family: 'DejaVu Sans'; fill: #262626">x</tspan>
      <tspan x="31.935059" y="-0.929688" style="font-style: oblique; font-size: 30px; font-family: 'DejaVu Sans'; fill: #262626">x</tspan>
      <tspan x="17.753906" y="3.992188" style="font-size: 21px; font-family: 'DejaVu Sans'; fill: #262626">2</tspan>
      <tspan x="49.688965" y="7.273438" style="font-size: 21px; font-family: 'DejaVu Sans'; fill: #262626">3</tspan>
      <tspan x="51.028809" y="-12.414063" style="font-size: 21px; font-family: 'DejaVu Sans'; fill: #262626">2</tspan>
     </text>
    </g>
   </g>
  </g>
 </g>
 <defs>
  <clipPath id="pd0b313dfe8">
   <rect x="23.76" y="59.736" width="513.366787" height="322.1765"/>
  </clipPath>
 </defs>
</svg>
