<?xml version="1.0" encoding="utf-8" standalone="no"?>
<!DOCTYPE svg PUBLIC "-//W3C//DTD SVG 1.1//EN"
  "http://www.w3.org/Graphics/SVG/1.1/DTD/svg11.dtd">
<svg xmlns:xlink="http://www.w3.org/1999/xlink" width="576pt" height="432pt" viewBox="0 0 576 432" xmlns="http://www.w3.org/2000/svg" version="1.1">
 <metadata>
  <rdf:RDF xmlns:dc="http://purl.org/dc/elements/1.1/" xmlns:cc="http://creativecommons.org/ns#" xmlns:rdf="http://www.w3.org/1999/02/22-rdf-syntax-ns#">
   <cc:Work>
    <dc:type rdf:resource="http://purl.org/dc/dcmitype/StillImage"/>
    <dc:date>2025-09-22T22:40:53.399413</dc:date>
    <dc:format>image/svg+xml</dc:format>
    <dc:creator>
     <cc:Agent>
      <dc:title>Matplotlib v3.10.0, https://matplotlib.org/</dc:title>
     </cc:Agent>
    </dc:creator>
   </cc:Work>
  </rdf:RDF>
 </metadata>
 <defs>
  <style type="text/css">*{stroke-linejoin: round; stroke-linecap: butt}</style>
 </defs>
 <g id="figure_1">
  <g id="patch_1">
   <path d="M 0 432 
L 576 432 
L 576 0 
L 0 0 
L 0 432 
z
" style="fill: none; opacity: 0"/>
  </g>
  <g id="axes_1">
   <g id="patch_2">
    <path d="M 23.76 381.9125 
L 531.769234 381.9125 
L 531.769234 59.592 
L 23.76 59.592 
L 23.76 381.9125 
z
" style="fill: none"/>
   </g>
   <g id="matplotlib.axis_1">
    <g id="xtick_1">
     <g id="line2d_1">
      <path d="M 70.464098 381.9125 
L 70.464098 59.592 
" clip-path="url(#p1907aea9fd)" style="fill: none; stroke: #cccccc; stroke-opacity: 0.4; stroke-linecap: round"/>
     </g>
     <g id="line2d_2"/>
     <g id="text_1">
      <text style="font-size: 20px; font-family: 'DejaVu Serif', 'Times New Roman', serif; text-anchor: middle; fill: #262626" x="70.464098" y="404.109375" transform="rotate(-0 70.464098 404.109375)">−1.06</text>
     </g>
    </g>
    <g id="xtick_2">
     <g id="line2d_3">
      <path d="M 145.419974 381.9125 
L 145.419974 59.592 
" clip-path="url(#p1907aea9fd)" style="fill: none; stroke: #cccccc; stroke-opacity: 0.4; stroke-linecap: round"/>
     </g>
     <g id="line2d_4"/>
     <g id="text_2">
      <text style="font-size: 20px; font-family: 'DejaVu Serif', 'Times New Roman', serif; text-anchor: middle; fill: #262626" x="145.419974" y="404.109375" transform="rotate(-0 145.419974 404.109375)">−1.04</text>
     </g>
    </g>
    <g id="xtick_3">
     <g id="line2d_5">
      <path d="M 220.37585 381.9125 
L 220.37585 59.592 
" clip-path="url(#p1907aea9fd)" style="fill: none; stroke: #cccccc; stroke-opacity: 0.4; stroke-linecap: round"/>
     </g>
     <g id="line2d_6"/>
     <g id="text_3">
      <text style="font-size: 20px; font-family: 'DejaVu Serif', 'Times New Roman', serif; text-anchor: middle; fill: #262626" x="220.37585" y="404.109375" transform="rotate(-0 220.37585 404.109375)">−1.02</text>
     </g>
    </g>
    <g id="xtick_4">
     <g id="line2d_7">
      <path d="M 295.331726 381.9125 
L 295.331726 59.592 
" clip-path="url(#p1907aea9fd)" style="fill: none; stroke: #cccccc; stroke-opacity: 0.4; stroke-linecap: round"/>
     </g>
     <g id="line2d_8"/>
     <g id="text_4">
      <text style="font-size: 20px; font-family: 'DejaVu Serif', 'Times New Roman', serif; text-anchor: middle; fill: #262626" x="295.331726" y="404.109375" transform="rotate(-0 295.331726 404.109375)">−1.00</text>
     </g>
    </g>
    <g id="xtick_5">
     <g id="line2d_9">
      <path d="M 370.287602 381.9125 
L 370.287602 59.592 
" clip-path="url(#p1907aea9fd)" style="fill: none; stroke: #cccccc; stroke-opacity: 0.4; stroke-linecap: round"/>
     </g>
     <g id="line2d_10"/>
     <g id="text_5">
      <text style="font-size: 20px; font-family: 'DejaVu Serif', 'Times New Roman', serif; text-anchor: middle; fill: #262626" x="370.287602" y="404.109375" transform="rotate(-0 370.287602 404.109375)">−0.98</text>
     </g>
    </g>
    <g id="xtick_6">
     <g id="line2d_11">
      <path d="M 445.243477 381.9125 
L 445.243477 59.592 
" clip-path="url(#p1907aea9fd)" style="fill: none; stroke: #cccccc; stroke-opacity: 0.4; stroke-linecap: round"/>
     </g>
     <g id="line2d_12"/>
     <g id="text_6">
      <text style="font-size: 20px; font-family: 'DejaVu Serif', 'Times New Roman', serif; text-anchor: middle; fill: #262626" x="445.243477" y="404.109375" transform="rotate(-0 445.243477 404.109375)">−0.96</text>
     </g>
    </g>
    <g id="xtick_7">
     <g id="line2d_13">
      <path d="M 520.199353 381.9125 
L 520.199353 59.592 
" clip-path="url(#p1907aea9fd)" style="fill: none; stroke: #cccccc; stroke-opacity: 0.4; stroke-linecap: round"/>
     </g>
     <g id="line2d_14"/>
     <g id="text_7">
      <text style="font-size: 20px; font-family: 'DejaVu Serif', 'Times New Roman', serif; text-anchor: middle; fill: #262626" x="520.199353" y="404.109375" transform="rotate(-0 520.199353 404.109375)">−0.94</text>
     </g>
    </g>
   </g>
   <g id="matplotlib.axis_2">
    <g id="ytick_1">
     <g id="line2d_15">
      <path d="M 23.76 369.440841 
L 531.769234 369.440841 
" clip-path="url(#p1907aea9fd)" style="fill: none; stroke: #cccccc; stroke-opacity: 0.4; stroke-linecap: round"/>
     </g>
    </g>
    <g id="ytick_2">
     <g id="line2d_16">
      <path d="M 23.76 302.137423 
L 531.769234 302.137423 
" clip-path="url(#p1907aea9fd)" style="fill: none; stroke: #cccccc; stroke-opacity: 0.4; stroke-linecap: round"/>
     </g>
    </g>
    <g id="ytick_3">
     <g id="line2d_17">
      <path d="M 23.76 234.834006 
L 531.769234 234.834006 
" clip-path="url(#p1907aea9fd)" style="fill: none; stroke: #cccccc; stroke-opacity: 0.4; stroke-linecap: round"/>
     </g>
    </g>
    <g id="ytick_4">
     <g id="line2d_18">
      <path d="M 23.76 167.530588 
L 531.769234 167.530588 
" clip-path="url(#p1907aea9fd)" style="fill: none; stroke: #cccccc; stroke-opacity: 0.4; stroke-linecap: round"/>
     </g>
    </g>
    <g id="ytick_5">
     <g id="line2d_19">
      <path d="M 23.76 100.22717 
L 531.769234 100.22717 
" clip-path="url(#p1907aea9fd)" style="fill: none; stroke: #cccccc; stroke-opacity: 0.4; stroke-linecap: round"/>
     </g>
    </g>
   </g>
   <g id="line2d_20">
    <path d="M 73.189564 363.690206 
L 77.450702 363.574769 
L 81.711841 363.143974 
L 85.972979 362.447421 
L 88.529662 361.931216 
L 93.643028 360.510152 
L 97.904166 359.037696 
L 101.313077 357.644453 
L 106.426443 355.109161 
L 109.835354 353.061865 
L 113.244265 350.744807 
L 117.505403 347.397675 
L 120.062086 345.115218 
L 124.323224 340.95577 
L 127.732135 337.294349 
L 131.993273 332.303078 
L 135.402184 328.069481 
L 141.367778 320.138846 
L 146.481144 312.980439 
L 154.151193 301.825194 
L 160.116787 293.151682 
L 166.934608 283.529002 
L 172.047974 276.820271 
L 175.456885 272.603358 
L 182.274706 264.802061 
L 186.535844 260.046687 
L 191.64921 254.040732 
L 195.058121 249.60741 
L 198.467032 244.749541 
L 201.023715 240.692183 
L 204.432626 234.73426 
L 207.841536 228.215069 
L 211.250447 221.260801 
L 214.659358 213.836746 
L 221.477179 198.566667 
L 225.738317 189.005334 
L 231.703911 176.432545 
L 235.112822 169.75482 
L 237.669505 165.026491 
L 241.930643 157.769221 
L 244.487326 153.618896 
L 249.600692 146.01624 
L 253.861831 140.128779 
L 260.679652 131.71162 
L 264.94079 126.98375 
L 268.349701 123.551228 
L 271.758612 120.401844 
L 275.167522 117.61174 
L 277.724205 115.741477 
L 280.280889 114.137902 
L 282.837572 112.766257 
L 286.246482 111.221496 
L 288.803165 110.314037 
L 292.212076 109.485689 
L 295.620987 109.034625 
L 298.17767 108.959868 
L 299.882125 109.064937 
L 303.291036 109.621529 
L 304.995491 110.092422 
L 307.552174 111.097394 
L 309.256629 111.922164 
L 310.961085 112.921394 
L 313.517768 114.747109 
L 316.074451 116.911499 
L 318.631134 119.535464 
L 322.040044 123.706478 
L 325.448955 128.470287 
L 328.857866 133.714477 
L 332.266777 139.501667 
L 338.23237 150.474223 
L 342.493509 158.698999 
L 354.424696 181.922782 
L 368.060339 208.905278 
L 375.730388 224.563212 
L 385.95712 245.690095 
L 393.627169 261.191017 
L 400.44499 274.45516 
L 407.262812 287.183072 
L 412.376178 296.282488 
L 416.637316 303.62412 
L 420.898455 310.632663 
L 426.011821 318.569244 
L 431.125187 325.921637 
L 435.386325 331.493767 
L 438.795236 335.542905 
L 441.351919 338.358799 
L 445.613057 342.656487 
L 448.16974 344.947847 
L 450.726423 347.025444 
L 454.135334 349.504952 
L 457.544245 351.710693 
L 460.100928 353.178141 
L 463.509838 354.906294 
L 467.770977 356.746077 
L 471.179887 358.016174 
L 475.441026 359.399739 
L 479.702164 360.529691 
L 484.81553 361.621404 
L 490.781124 362.637968 
L 496.746717 363.341768 
L 502.712311 363.767953 
L 506.121222 363.895066 
L 508.677905 363.926315 
L 508.677905 363.926315 
" clip-path="url(#p1907aea9fd)" style="fill: none; stroke: #7570b3; stroke-width: 0.875; stroke-linecap: round"/>
   </g>
   <g id="line2d_21">
    <path d="M 91.425306 353.783392 
L 95.460436 353.752312 
L 101.109619 353.693393 
L 109.17988 353.262691 
L 112.407984 352.873013 
L 114.829063 352.477698 
L 119.671219 351.250187 
L 123.70635 349.801865 
L 127.741481 347.874722 
L 130.969585 345.97233 
L 134.19769 343.725291 
L 137.425794 341.137654 
L 140.653898 338.150684 
L 144.689029 333.964309 
L 147.917133 330.216044 
L 151.145238 326.104709 
L 153.566316 322.736895 
L 156.794421 318.015803 
L 160.022525 312.951515 
L 164.057656 306.186004 
L 168.092786 299.097374 
L 172.934943 290.074057 
L 189.882491 258.238632 
L 195.531674 248.372185 
L 201.180857 239.004041 
L 208.444092 227.378852 
L 211.672196 222.11065 
L 217.321379 212.168738 
L 221.35651 204.51535 
L 225.39164 196.28735 
L 229.426771 187.419215 
L 235.075954 174.281897 
L 241.532163 158.471045 
L 247.181345 144.761086 
L 252.023502 133.615757 
L 255.251606 126.719142 
L 258.479711 120.401785 
L 260.900789 116.096411 
L 263.321868 112.262772 
L 264.93592 109.898454 
L 268.164024 105.769671 
L 270.585103 103.151553 
L 273.006181 100.944595 
L 275.427259 99.136947 
L 279.46239 96.895555 
L 281.883468 95.9649 
L 283.49752 95.550037 
L 285.918599 95.07307 
L 288.339677 94.848879 
L 291.567782 94.792868 
L 294.795886 95.200602 
L 298.02399 96.06037 
L 300.445069 96.954535 
L 303.673173 98.418664 
L 306.094252 99.797197 
L 310.129382 102.460761 
L 313.357487 104.967206 
L 318.199643 109.086029 
L 323.848826 114.64415 
L 328.690983 120.154812 
L 331.919087 124.307914 
L 334.340166 127.662901 
L 336.761244 131.365781 
L 339.989348 136.84678 
L 342.410427 141.449979 
L 345.638531 148.002771 
L 348.866636 155.223768 
L 352.901766 165.031287 
L 356.129871 173.255744 
L 360.972027 186.205496 
L 369.042288 208.443752 
L 375.498497 226.270108 
L 383.568758 248.343275 
L 389.217941 263.103341 
L 394.060098 275.09376 
L 398.095229 284.423523 
L 401.323333 291.355865 
L 404.551437 297.806358 
L 407.779542 303.691739 
L 410.20062 307.728553 
L 413.428725 312.616964 
L 415.849803 315.976419 
L 419.077907 319.991159 
L 421.498986 322.735581 
L 424.72709 325.955349 
L 427.955195 328.873038 
L 431.183299 331.440259 
L 434.411404 333.807223 
L 439.25356 336.973261 
L 445.709769 340.73443 
L 452.973004 344.654229 
L 463.464344 350.106188 
L 469.920553 353.153587 
L 474.762709 355.139507 
L 477.990814 356.299971 
L 480.411892 357.066429 
L 483.639997 357.91553 
L 487.675127 358.703499 
L 490.903232 359.13911 
L 494.938362 359.509171 
L 502.201597 359.793785 
L 503.815649 359.812379 
L 503.815649 359.812379 
" clip-path="url(#p1907aea9fd)" style="fill: none; stroke-dasharray: 0.875,1.44375; stroke-dashoffset: 0; stroke: #7570b3; stroke-width: 0.875"/>
   </g>
   <g id="line2d_22">
    <path d="M 73.141035 366.104038 
L 78.822296 365.992816 
L 85.315167 365.55357 
L 90.18482 364.936319 
L 94.242864 364.195975 
L 98.300908 363.223482 
L 102.358952 361.978356 
L 106.416996 360.433331 
L 110.475041 358.64829 
L 114.533085 356.590098 
L 118.591129 354.290559 
L 123.460782 351.148563 
L 126.707217 348.849112 
L 129.953652 346.327186 
L 133.200088 343.598249 
L 137.258132 339.757393 
L 140.504567 336.358814 
L 143.751003 332.599413 
L 146.997438 328.438969 
L 150.243873 323.87395 
L 153.490309 318.885666 
L 157.548353 312.11625 
L 161.606397 304.739565 
L 168.099267 292.201025 
L 185.143053 258.790398 
L 192.447532 244.626281 
L 196.505576 236.391851 
L 200.563621 227.566073 
L 204.621665 218.119514 
L 209.491318 205.907839 
L 223.288668 170.057857 
L 227.346712 160.513542 
L 229.781538 155.326375 
L 233.027974 148.915516 
L 236.274409 143.199485 
L 238.709235 139.309497 
L 241.144062 135.677283 
L 244.390497 131.212253 
L 248.448541 126.233783 
L 252.506586 121.606457 
L 256.56463 117.292761 
L 259.811065 114.028466 
L 263.0575 111.058863 
L 267.115544 107.733455 
L 269.550371 106.057495 
L 271.985197 104.585165 
L 274.420024 103.395101 
L 276.043242 102.849632 
L 278.478068 102.317513 
L 280.101286 102.169125 
L 281.724503 102.23783 
L 283.347721 102.484671 
L 285.782548 103.279547 
L 287.405765 104.043712 
L 289.028983 105.065448 
L 290.6522 106.295042 
L 292.275418 107.779397 
L 293.898636 109.408332 
L 296.333462 112.288547 
L 298.768289 115.695307 
L 301.203115 119.438292 
L 304.449551 124.983341 
L 310.942421 137.29385 
L 318.246901 151.470464 
L 321.493336 157.286982 
L 325.55138 163.947113 
L 328.797815 168.716914 
L 332.044251 173.014336 
L 335.290686 176.841741 
L 340.971948 183.071475 
L 344.218383 186.498771 
L 349.088036 191.683652 
L 353.14608 196.430151 
L 356.392516 200.621882 
L 360.45056 206.311761 
L 364.508604 212.360065 
L 368.566648 218.91237 
L 377.494345 234.204347 
L 399.407783 272.221211 
L 405.089045 281.485941 
L 409.958698 289.000123 
L 413.205134 293.787423 
L 416.451569 298.34169 
L 421.321222 304.795576 
L 425.379266 309.724776 
L 428.625701 313.352277 
L 433.495354 318.244408 
L 437.553398 321.991937 
L 442.423051 326.018397 
L 445.669487 328.471858 
L 449.727531 331.330467 
L 453.785575 333.958517 
L 458.655228 336.839542 
L 461.901663 338.600654 
L 465.148099 340.237524 
L 468.394534 341.745411 
L 471.640969 343.02529 
L 475.699013 344.360791 
L 478.13384 345.009021 
L 483.003493 345.881669 
L 486.249928 346.135322 
L 487.873146 346.190606 
L 487.873146 346.190606 
" clip-path="url(#p1907aea9fd)" style="fill: none; stroke-dasharray: 3.2375,1.4; stroke-dashoffset: 0; stroke: #7570b3; stroke-width: 0.875"/>
   </g>
   <g id="line2d_23">
    <path d="M 46.851329 363.159793 
L 50.344319 363.286884 
L 54.710556 363.69712 
L 59.95004 364.482479 
L 73.048752 366.686003 
L 78.288236 367.190666 
L 84.400968 367.214365 
L 87.893958 366.969755 
L 91.386948 366.491398 
L 95.753185 365.562281 
L 99.246175 364.56756 
L 102.739165 363.353217 
L 106.232154 361.918463 
L 112.344886 358.919165 
L 114.964629 357.465347 
L 119.330866 354.870752 
L 130.683082 347.356992 
L 137.669062 342.315022 
L 143.781794 337.522125 
L 148.148031 333.78324 
L 151.641021 330.480915 
L 155.13401 326.84865 
L 157.753753 323.96317 
L 161.246743 319.746941 
L 164.739732 315.169669 
L 168.232722 310.319425 
L 171.725712 305.143733 
L 176.091949 298.228649 
L 183.951176 284.739234 
L 188.317413 276.802579 
L 192.68365 268.225111 
L 196.17664 260.888959 
L 200.542877 251.070297 
L 203.162619 244.797807 
L 208.402104 231.235188 
L 213.641589 216.8585 
L 229.360042 172.404007 
L 233.726279 161.269834 
L 237.219269 153.068727 
L 240.712259 145.579452 
L 243.332001 140.496603 
L 245.951744 135.787516 
L 248.571486 131.462353 
L 252.064476 126.126195 
L 255.557465 121.220325 
L 262.543445 111.822573 
L 267.782929 104.314889 
L 270.402672 100.35743 
L 275.642156 92.133655 
L 280.008393 85.556944 
L 282.628136 81.997896 
L 284.374631 79.850183 
L 286.121125 78.031184 
L 287.86762 76.503306 
L 289.614115 75.365156 
L 291.36061 74.593192 
L 292.233857 74.353231 
L 293.107105 74.242932 
L 294.8536 74.342043 
L 296.600095 74.879787 
L 298.34659 75.923084 
L 300.093084 77.382148 
L 301.839579 79.237811 
L 303.586074 81.544953 
L 305.332569 84.171204 
L 307.952311 88.682591 
L 309.698806 91.960814 
L 312.318548 97.321642 
L 321.051023 116.624381 
L 329.783497 136.105651 
L 337.642724 152.799758 
L 344.628703 167.243722 
L 352.48793 183.156319 
L 359.47391 196.877392 
L 368.206384 213.61973 
L 380.431848 237.281624 
L 397.023549 270.461414 
L 402.263034 280.529177 
L 408.375766 291.736626 
L 411.868756 297.644761 
L 416.234993 304.568517 
L 419.727983 309.702667 
L 424.09422 315.581811 
L 427.58721 319.92622 
L 432.826694 325.750061 
L 437.192931 330.193078 
L 442.432416 335.034175 
L 449.418395 340.969056 
L 452.911385 343.730549 
L 459.024117 348.13406 
L 464.263602 351.440908 
L 468.629839 353.805732 
L 472.122829 355.452897 
L 475.615818 356.814019 
L 479.108808 357.931226 
L 482.601798 358.830133 
L 486.094788 359.447244 
L 489.587777 359.829115 
L 493.080767 359.968391 
L 493.080767 359.968391 
" clip-path="url(#p1907aea9fd)" style="fill: none; stroke-dasharray: 5.6,1.4,0.875,1.4; stroke-dashoffset: 0; stroke: #7570b3; stroke-width: 0.875"/>
   </g>
   <g id="patch_3">
    <path d="M 23.76 381.9125 
L 531.769234 381.9125 
" style="fill: none; stroke: #333333; stroke-width: 1.5; stroke-linejoin: miter; stroke-linecap: square"/>
   </g>
   <g id="text_8">
    <!-- $x_2^2$ -->
    <g style="fill: #262626" transform="translate(261.114617 51.192)">
     <text>
      <tspan x="0" y="-0.929688" style="font-style: oblique; font-size: 30px; font-family: 'DejaVu Sans'; fill: #262626">x</tspan>
      <tspan x="17.753906" y="7.273438" style="font-size: 21px; font-family: 'DejaVu Sans'; fill: #262626">2</tspan>
      <tspan x="19.09375" y="-12.414063" style="font-size: 21px; font-family: 'DejaVu Sans'; fill: #262626">2</tspan>
     </text>
    </g>
   </g>
  </g>
 </g>
 <defs>
  <clipPath id="p1907aea9fd">
   <rect x="23.76" y="59.592" width="508.009234" height="322.3205"/>
  </clipPath>
 </defs>
</svg>
