<?xml version="1.0" encoding="utf-8" standalone="no"?>
<!DOCTYPE svg PUBLIC "-//W3C//DTD SVG 1.1//EN"
  "http://www.w3.org/Graphics/SVG/1.1/DTD/svg11.dtd">
<svg xmlns:xlink="http://www.w3.org/1999/xlink" width="576pt" height="432pt" viewBox="0 0 576 432" xmlns="http://www.w3.org/2000/svg" version="1.1">
 <metadata>
  <rdf:RDF xmlns:dc="http://purl.org/dc/elements/1.1/" xmlns:cc="http://creativecommons.org/ns#" xmlns:rdf="http://www.w3.org/1999/02/22-rdf-syntax-ns#">
   <cc:Work>
    <dc:type rdf:resource="http://purl.org/dc/dcmitype/StillImage"/>
    <dc:date>2025-09-22T22:40:53.193231</dc:date>
    <dc:format>image/svg+xml</dc:format>
    <dc:creator>
     <cc:Agent>
      <dc:title>Matplotlib v3.10.0, https://matplotlib.org/</dc:title>
     </cc:Agent>
    </dc:creator>
   </cc:Work>
  </rdf:RDF>
 </metadata>
 <defs>
  <style type="text/css">*{stroke-linejoin: round; stroke-linecap: butt}</style>
 </defs>
 <g id="figure_1">
  <g id="patch_1">
   <path d="M 0 432 
L 576 432 
L 576 0 
L 0 0 
L 0 432 
z
" style="fill: none; opacity: 0"/>
  </g>
  <g id="axes_1">
   <g id="patch_2">
    <path d="M 23.76 381.9125 
L 548.606168 381.9125 
L 548.606168 59.592 
L 23.76 59.592 
L 23.76 381.9125 
z
" style="fill: none"/>
   </g>
   <g id="matplotlib.axis_1">
    <g id="xtick_1">
     <g id="line2d_1">
      <path d="M 72.864543 381.9125 
L 72.864543 59.592 
" clip-path="url(#pc0bfd9231d)" style="fill: none; stroke: #cccccc; stroke-opacity: 0.4; stroke-linecap: round"/>
     </g>
     <g id="line2d_2"/>
     <g id="text_1">
      <text style="font-size: 20px; font-family: 'DejaVu Serif', 'Times New Roman', serif; text-anchor: middle; fill: #262626" x="72.864543" y="404.109375" transform="rotate(-0 72.864543 404.109375)">−0.300</text>
     </g>
    </g>
    <g id="xtick_2">
     <g id="line2d_3">
      <path d="M 146.863307 381.9125 
L 146.863307 59.592 
" clip-path="url(#pc0bfd9231d)" style="fill: none; stroke: #cccccc; stroke-opacity: 0.4; stroke-linecap: round"/>
     </g>
     <g id="line2d_4"/>
     <g id="text_2">
      <text style="font-size: 20px; font-family: 'DejaVu Serif', 'Times New Roman', serif; text-anchor: middle; fill: #262626" x="146.863307" y="404.109375" transform="rotate(-0 146.863307 404.109375)">−0.275</text>
     </g>
    </g>
    <g id="xtick_3">
     <g id="line2d_5">
      <path d="M 220.862071 381.9125 
L 220.862071 59.592 
" clip-path="url(#pc0bfd9231d)" style="fill: none; stroke: #cccccc; stroke-opacity: 0.4; stroke-linecap: round"/>
     </g>
     <g id="line2d_6"/>
     <g id="text_3">
      <text style="font-size: 20px; font-family: 'DejaVu Serif', 'Times New Roman', serif; text-anchor: middle; fill: #262626" x="220.862071" y="404.109375" transform="rotate(-0 220.862071 404.109375)">−0.250</text>
     </g>
    </g>
    <g id="xtick_4">
     <g id="line2d_7">
      <path d="M 294.860835 381.9125 
L 294.860835 59.592 
" clip-path="url(#pc0bfd9231d)" style="fill: none; stroke: #cccccc; stroke-opacity: 0.4; stroke-linecap: round"/>
     </g>
     <g id="line2d_8"/>
     <g id="text_4">
      <text style="font-size: 20px; font-family: 'DejaVu Serif', 'Times New Roman', serif; text-anchor: middle; fill: #262626" x="294.860835" y="404.109375" transform="rotate(-0 294.860835 404.109375)">−0.225</text>
     </g>
    </g>
    <g id="xtick_5">
     <g id="line2d_9">
      <path d="M 368.859599 381.9125 
L 368.859599 59.592 
" clip-path="url(#pc0bfd9231d)" style="fill: none; stroke: #cccccc; stroke-opacity: 0.4; stroke-linecap: round"/>
     </g>
     <g id="line2d_10"/>
     <g id="text_5">
      <text style="font-size: 20px; font-family: 'DejaVu Serif', 'Times New Roman', serif; text-anchor: middle; fill: #262626" x="368.859599" y="404.109375" transform="rotate(-0 368.859599 404.109375)">−0.200</text>
     </g>
    </g>
    <g id="xtick_6">
     <g id="line2d_11">
      <path d="M 442.858363 381.9125 
L 442.858363 59.592 
" clip-path="url(#pc0bfd9231d)" style="fill: none; stroke: #cccccc; stroke-opacity: 0.4; stroke-linecap: round"/>
     </g>
     <g id="line2d_12"/>
     <g id="text_6">
      <text style="font-size: 20px; font-family: 'DejaVu Serif', 'Times New Roman', serif; text-anchor: middle; fill: #262626" x="442.858363" y="404.109375" transform="rotate(-0 442.858363 404.109375)">−0.175</text>
     </g>
    </g>
    <g id="xtick_7">
     <g id="line2d_13">
      <path d="M 516.857128 381.9125 
L 516.857128 59.592 
" clip-path="url(#pc0bfd9231d)" style="fill: none; stroke: #cccccc; stroke-opacity: 0.4; stroke-linecap: round"/>
     </g>
     <g id="line2d_14"/>
     <g id="text_7">
      <text style="font-size: 20px; font-family: 'DejaVu Serif', 'Times New Roman', serif; text-anchor: middle; fill: #262626" x="516.857128" y="404.109375" transform="rotate(-0 516.857128 404.109375)">−0.150</text>
     </g>
    </g>
   </g>
   <g id="matplotlib.axis_2">
    <g id="ytick_1">
     <g id="line2d_15">
      <path d="M 23.76 368.049117 
L 548.606168 368.049117 
" clip-path="url(#pc0bfd9231d)" style="fill: none; stroke: #cccccc; stroke-opacity: 0.4; stroke-linecap: round"/>
     </g>
    </g>
    <g id="ytick_2">
     <g id="line2d_16">
      <path d="M 23.76 293.0548 
L 548.606168 293.0548 
" clip-path="url(#pc0bfd9231d)" style="fill: none; stroke: #cccccc; stroke-opacity: 0.4; stroke-linecap: round"/>
     </g>
    </g>
    <g id="ytick_3">
     <g id="line2d_17">
      <path d="M 23.76 218.060483 
L 548.606168 218.060483 
" clip-path="url(#pc0bfd9231d)" style="fill: none; stroke: #cccccc; stroke-opacity: 0.4; stroke-linecap: round"/>
     </g>
    </g>
    <g id="ytick_4">
     <g id="line2d_18">
      <path d="M 23.76 143.066166 
L 548.606168 143.066166 
" clip-path="url(#pc0bfd9231d)" style="fill: none; stroke: #cccccc; stroke-opacity: 0.4; stroke-linecap: round"/>
     </g>
    </g>
    <g id="ytick_5">
     <g id="line2d_19">
      <path d="M 23.76 68.071849 
L 548.606168 68.071849 
" clip-path="url(#pc0bfd9231d)" style="fill: none; stroke: #cccccc; stroke-opacity: 0.4; stroke-linecap: round"/>
     </g>
    </g>
   </g>
   <g id="line2d_20">
    <path d="M 47.616644 364.166126 
L 52.285263 364.288029 
L 56.953882 364.632052 
L 63.489949 365.360136 
L 74.694635 366.65993 
L 80.296978 367.064805 
L 84.965597 367.199192 
L 89.634217 367.07903 
L 94.302836 366.713341 
L 98.037731 366.259379 
L 102.70635 365.390741 
L 106.441246 364.479754 
L 111.109865 362.974246 
L 114.84476 361.43972 
L 117.645932 360.026984 
L 121.380827 357.893985 
L 124.181999 356.066816 
L 127.916894 353.291073 
L 131.651789 350.221499 
L 135.386685 346.832488 
L 139.12158 343.155866 
L 143.790199 338.25759 
L 153.127437 327.809545 
L 159.663504 320.598416 
L 165.265847 314.648643 
L 173.669362 305.904396 
L 178.337981 300.433152 
L 182.072876 295.462837 
L 184.874048 291.242814 
L 187.675219 286.570929 
L 190.476391 281.404097 
L 193.277562 275.760602 
L 196.078734 269.659214 
L 198.879905 263.137624 
L 203.548525 251.506576 
L 208.217144 239.416299 
L 217.554382 215.460501 
L 222.223001 204.264655 
L 228.759068 189.104859 
L 233.427687 178.291114 
L 239.03003 164.758911 
L 255.837059 122.755009 
L 260.505679 112.51571 
L 263.30685 106.762721 
L 265.174298 103.119496 
L 267.975469 98.025511 
L 270.776641 93.427971 
L 273.577812 89.262566 
L 276.378984 85.567457 
L 278.246431 83.437202 
L 280.113879 81.540749 
L 282.915051 79.221306 
L 284.782498 78.100605 
L 286.649946 77.298391 
L 287.58367 76.986905 
L 289.451117 76.68717 
L 291.318565 76.757346 
L 293.186013 77.192064 
L 294.119737 77.497722 
L 295.987184 78.430021 
L 296.920908 79.015463 
L 299.72208 81.397406 
L 301.589527 83.422061 
L 303.456975 85.806261 
L 304.390699 87.111335 
L 307.19187 91.685395 
L 309.059318 95.190662 
L 311.860489 101.158812 
L 314.661661 107.699308 
L 317.462832 114.891238 
L 322.131452 127.769116 
L 336.137309 167.093417 
L 344.540824 189.947072 
L 348.275719 200.633132 
L 352.944338 214.681138 
L 362.281577 244.421855 
L 366.016472 255.915073 
L 369.751367 266.609743 
L 372.552539 273.9318 
L 375.35371 280.555205 
L 378.154882 286.442435 
L 380.956053 291.538444 
L 383.757225 295.977652 
L 385.624672 298.582164 
L 387.49212 300.956016 
L 390.293292 304.162463 
L 394.028187 307.900727 
L 398.696806 312.212773 
L 406.166597 319.221173 
L 410.835216 324.228129 
L 415.503835 329.580813 
L 427.642245 343.654088 
L 431.37714 347.462621 
L 435.112036 350.799078 
L 437.913207 353.031298 
L 441.648103 355.622919 
L 445.382998 357.816168 
L 449.117893 359.656924 
L 451.919065 360.865288 
L 456.587684 362.553111 
L 461.256303 363.887463 
L 464.057475 364.564217 
L 469.659818 365.626889 
L 475.262161 366.371444 
L 478.997056 366.674162 
L 483.665675 366.88451 
L 489.268018 366.886599 
L 495.804085 366.610107 
L 501.406428 366.19628 
L 517.279733 364.986853 
L 523.8158 364.765765 
L 524.749524 364.756798 
L 524.749524 364.756798 
" clip-path="url(#pc0bfd9231d)" style="fill: none; stroke: #7570b3; stroke-width: 0.875; stroke-linecap: round"/>
   </g>
   <g id="line2d_21">
    <path d="M 108.215738 355.999954 
L 117.026763 356.005944 
L 120.698024 355.859895 
L 123.635032 355.593308 
L 127.306293 355.00526 
L 130.243301 354.244682 
L 133.914562 352.935667 
L 136.85157 351.569283 
L 139.788578 349.989682 
L 142.725587 348.154764 
L 144.928343 346.617039 
L 148.599604 343.812451 
L 152.270864 340.703478 
L 155.207873 337.985171 
L 158.879133 334.130029 
L 161.816142 330.632461 
L 164.75315 326.744213 
L 166.955906 323.594449 
L 169.892915 319.098096 
L 172.829923 314.18524 
L 177.235436 306.270415 
L 180.906696 299.268021 
L 184.577957 291.786175 
L 190.451974 279.30639 
L 195.591739 267.840231 
L 219.822058 210.55621 
L 224.961823 197.817408 
L 228.633083 188.307642 
L 233.772848 174.209476 
L 237.444109 163.556093 
L 241.849621 150.184717 
L 248.45789 128.962291 
L 254.331907 110.213445 
L 257.268916 101.431193 
L 259.471672 95.381645 
L 261.674428 89.863917 
L 263.877185 85.052202 
L 265.345689 82.252729 
L 266.814193 79.87182 
L 268.282697 77.913803 
L 269.751201 76.31563 
L 271.219706 75.203788 
L 271.953958 74.76663 
L 273.422462 74.291157 
L 274.890966 74.258613 
L 276.35947 74.666729 
L 277.827975 75.472687 
L 278.562227 75.959706 
L 280.030731 77.251191 
L 282.233487 79.715154 
L 283.701991 81.689551 
L 286.639 86.30749 
L 288.841756 90.183452 
L 294.715773 101.134626 
L 297.652781 106.466334 
L 301.324042 112.757594 
L 304.26105 117.399271 
L 307.198059 121.552569 
L 310.135067 125.327447 
L 314.54058 130.419827 
L 324.085857 140.869753 
L 326.288614 143.631977 
L 329.225622 147.884037 
L 331.428378 151.458766 
L 333.631135 155.530865 
L 335.833891 160.023345 
L 338.036647 165.018831 
L 340.239404 170.42093 
L 343.910664 180.343872 
L 348.316177 193.189264 
L 357.861454 221.343759 
L 361.532715 231.518562 
L 365.938227 243.028182 
L 371.077992 255.738131 
L 377.686261 271.439669 
L 382.826026 282.802484 
L 386.497286 290.212339 
L 389.434295 295.657867 
L 392.371303 300.62151 
L 395.308312 304.96562 
L 398.979572 309.810579 
L 402.650833 314.164594 
L 409.259102 321.676861 
L 412.930362 325.898981 
L 422.47564 337.023208 
L 426.1469 340.94898 
L 428.349656 343.091725 
L 431.286665 345.691749 
L 434.223673 347.980106 
L 437.160682 349.944623 
L 440.831942 352.0736 
L 444.503203 353.969314 
L 451.111472 357.046684 
L 456.985489 359.521147 
L 462.125253 361.364154 
L 465.796514 362.449444 
L 469.467774 363.282987 
L 472.404783 363.770304 
L 476.810296 364.274769 
L 479.747304 364.458533 
L 483.418565 364.530695 
L 483.418565 364.530695 
" clip-path="url(#pc0bfd9231d)" style="fill: none; stroke-dasharray: 0.875,1.44375; stroke-dashoffset: 0; stroke: #7570b3; stroke-width: 0.875"/>
   </g>
   <g id="line2d_22">
    <path d="M 82.090913 363.770769 
L 89.542238 363.704697 
L 96.165637 363.528484 
L 100.305262 363.271441 
L 106.100737 362.527474 
L 109.412436 361.823767 
L 112.724136 360.894197 
L 116.035836 359.69558 
L 119.347536 358.173494 
L 121.83131 356.811273 
L 125.14301 354.68688 
L 128.45471 352.160831 
L 130.938485 350.028406 
L 133.42226 347.616581 
L 137.561884 343.110635 
L 141.701509 338.178806 
L 154.948308 321.695931 
L 159.087933 317.228611 
L 162.399632 314.04475 
L 167.367182 309.71158 
L 174.818506 303.302409 
L 177.302281 300.795251 
L 179.786056 298.061826 
L 182.269831 294.899223 
L 184.753606 291.373423 
L 187.23738 287.407956 
L 188.89323 284.534989 
L 192.20493 278.254769 
L 194.688705 273.106971 
L 198.82833 263.959485 
L 213.730978 229.825691 
L 218.698528 218.151478 
L 222.010228 209.898321 
L 225.321928 201.03969 
L 228.633627 191.468271 
L 231.945327 181.247259 
L 236.912877 164.690374 
L 244.364201 139.345007 
L 248.503826 126.013763 
L 251.815526 116.315613 
L 254.2993 109.720235 
L 256.783075 103.793154 
L 259.26685 98.545606 
L 260.9227 95.480629 
L 263.406475 91.503214 
L 265.062325 89.334741 
L 266.718174 87.496088 
L 268.374024 86.000258 
L 270.029874 84.831901 
L 271.685724 83.984472 
L 273.341574 83.588331 
L 274.997424 83.382163 
L 276.653274 83.576077 
L 279.137049 84.259213 
L 280.792898 84.98844 
L 282.448748 85.927559 
L 284.932523 87.653709 
L 289.072148 91.216496 
L 291.555923 93.660392 
L 301.491022 104.070273 
L 307.286496 110.898577 
L 312.254046 117.280183 
L 316.393671 123.062853 
L 320.533295 129.466348 
L 323.01707 133.657317 
L 327.156695 141.267456 
L 329.64047 146.401669 
L 332.124245 151.88926 
L 335.435944 159.930839 
L 337.919719 166.466468 
L 341.231419 175.784313 
L 345.371044 188.306487 
L 349.510668 201.219424 
L 356.134068 221.780281 
L 360.273692 233.990119 
L 364.413317 245.499452 
L 368.552942 256.360537 
L 374.348416 270.312988 
L 377.660116 277.83168 
L 380.971816 284.831471 
L 384.283516 291.383917 
L 388.42314 298.841321 
L 392.562765 305.642867 
L 396.70239 311.864561 
L 402.497864 319.872371 
L 411.605039 331.924048 
L 418.228438 340.292565 
L 422.368063 345.125303 
L 425.679762 348.64871 
L 428.991462 351.734882 
L 431.475237 353.784635 
L 433.959012 355.560964 
L 436.442787 357.11949 
L 438.926561 358.399449 
L 441.410336 359.443288 
L 443.894111 360.273801 
L 447.205811 361.060685 
L 450.517511 361.569737 
L 453.82921 361.840552 
L 457.968835 361.969794 
L 472.043559 362.235361 
L 477.011109 362.628359 
L 493.569607 364.312961 
L 500.193007 364.631375 
L 505.160556 364.686938 
L 505.160556 364.686938 
" clip-path="url(#pc0bfd9231d)" style="fill: none; stroke-dasharray: 3.2375,1.4; stroke-dashoffset: 0; stroke: #7570b3; stroke-width: 0.875"/>
   </g>
   <g id="line2d_23">
    <path d="M 49.834834 365.779827 
L 55.407869 365.928897 
L 61.777051 366.355096 
L 72.923119 367.128129 
L 78.496153 367.260612 
L 83.27304 367.172113 
L 88.049926 366.885845 
L 94.419108 366.143757 
L 98.399847 365.479378 
L 101.584438 364.810552 
L 105.565176 363.748634 
L 109.545915 362.453238 
L 113.526654 360.896402 
L 117.507393 359.074831 
L 122.284279 356.601297 
L 143.780268 344.332407 
L 146.964859 342.161068 
L 149.353302 340.343782 
L 151.741746 338.25835 
L 154.130189 335.91306 
L 157.31478 332.26016 
L 158.907075 330.19149 
L 161.295519 326.848114 
L 163.683962 323.167475 
L 166.868553 317.818192 
L 170.053144 312.053553 
L 175.626178 301.168031 
L 212.248974 227.583885 
L 221.802747 206.838767 
L 225.783486 197.67193 
L 232.152668 182.121867 
L 239.317998 163.718137 
L 244.094884 151.444036 
L 249.667918 137.840434 
L 252.852509 130.654937 
L 256.833248 122.252907 
L 260.017839 116.067339 
L 267.183169 102.865488 
L 271.960055 94.691178 
L 275.940794 88.277003 
L 278.329237 84.793464 
L 279.921532 82.652917 
L 281.513828 80.800393 
L 283.106123 79.251583 
L 285.494567 77.466113 
L 287.086862 76.729239 
L 287.88301 76.467309 
L 288.679158 76.357153 
L 289.475305 76.369655 
L 291.067601 76.681266 
L 292.659896 77.473346 
L 294.252192 78.675038 
L 295.844487 80.333376 
L 297.436783 82.387531 
L 299.825226 86.171363 
L 301.417522 89.099641 
L 304.602113 95.681841 
L 308.582851 104.803425 
L 315.748181 121.464216 
L 319.72892 129.935557 
L 324.505806 139.380505 
L 330.874988 151.403948 
L 334.059579 157.797774 
L 337.24417 164.709721 
L 340.428761 172.289048 
L 343.613352 180.508521 
L 349.186386 196.499977 
L 357.147864 221.07971 
L 361.92475 235.719773 
L 365.109341 244.916007 
L 368.293932 253.483163 
L 371.478523 261.425834 
L 374.663114 268.737652 
L 377.847705 275.407926 
L 381.032296 281.498466 
L 385.809182 289.896671 
L 390.586069 297.680434 
L 405.712876 321.482973 
L 408.897467 326.225269 
L 412.082058 330.692894 
L 415.266649 334.767724 
L 417.655092 337.523044 
L 420.839683 340.800292 
L 423.228126 342.933662 
L 426.412717 345.309609 
L 429.597308 347.253669 
L 431.985752 348.492002 
L 435.170343 349.859284 
L 438.354934 350.98104 
L 442.335672 352.118676 
L 446.316411 353.002943 
L 450.29715 353.665821 
L 453.481741 353.973548 
L 456.666332 354.083304 
L 456.666332 354.083304 
" clip-path="url(#pc0bfd9231d)" style="fill: none; stroke-dasharray: 5.6,1.4,0.875,1.4; stroke-dashoffset: 0; stroke: #7570b3; stroke-width: 0.875"/>
   </g>
   <g id="patch_3">
    <path d="M 23.76 381.9125 
L 548.606168 381.9125 
" style="fill: none; stroke: #333333; stroke-width: 1.5; stroke-linejoin: miter; stroke-linecap: square"/>
   </g>
   <g id="text_8">
    <!-- $x_2^2x_3$ -->
    <g style="fill: #262626" transform="translate(253.483084 51.192)">
     <text>
      <tspan x="0" y="-0.929688" style="font-style: oblique; font-size: 30px; font-family: 'DejaVu Sans'; fill: #262626">x</tspan>
      <tspan x="33.274902" y="-0.929688" style="font-style: oblique; font-size: 30px; font-family: 'DejaVu Sans'; fill: #262626">x</tspan>
      <tspan x="17.753906" y="7.273438" style="font-size: 21px; font-family: 'DejaVu Sans'; fill: #262626">2</tspan>
      <tspan x="19.09375" y="-12.414063" style="font-size: 21px; font-family: 'DejaVu Sans'; fill: #262626">2</tspan>
      <tspan x="51.028809" y="3.992188" style="font-size: 21px; font-family: 'DejaVu Sans'; fill: #262626">3</tspan>
     </text>
    </g>
   </g>
  </g>
 </g>
 <defs>
  <clipPath id="pc0bfd9231d">
   <rect x="23.76" y="59.592" width="524.846168" height="322.3205"/>
  </clipPath>
 </defs>
</svg>
