<?xml version="1.0" encoding="utf-8" standalone="no"?>
<!DOCTYPE svg PUBLIC "-//W3C//DTD SVG 1.1//EN"
  "http://www.w3.org/Graphics/SVG/1.1/DTD/svg11.dtd">
<svg xmlns:xlink="http://www.w3.org/1999/xlink" width="576pt" height="432pt" viewBox="0 0 576 432" xmlns="http://www.w3.org/2000/svg" version="1.1">
 <metadata>
  <rdf:RDF xmlns:dc="http://purl.org/dc/elements/1.1/" xmlns:cc="http://creativecommons.org/ns#" xmlns:rdf="http://www.w3.org/1999/02/22-rdf-syntax-ns#">
   <cc:Work>
    <dc:type rdf:resource="http://purl.org/dc/dcmitype/StillImage"/>
    <dc:date>2025-09-22T22:40:52.898323</dc:date>
    <dc:format>image/svg+xml</dc:format>
    <dc:creator>
     <cc:Agent>
      <dc:title>Matplotlib v3.10.0, https://matplotlib.org/</dc:title>
     </cc:Agent>
    </dc:creator>
   </cc:Work>
  </rdf:RDF>
 </metadata>
 <defs>
  <style type="text/css">*{stroke-linejoin: round; stroke-linecap: butt}</style>
 </defs>
 <g id="figure_1">
  <g id="patch_1">
   <path d="M 0 432 
L 576 432 
L 576 0 
L 0 0 
L 0 432 
z
" style="fill: none; opacity: 0"/>
  </g>
  <g id="axes_1">
   <g id="patch_2">
    <path d="M 23.76 381.9125 
L 552.24 381.9125 
L 552.24 52.8 
L 23.76 52.8 
L 23.76 381.9125 
z
" style="fill: none"/>
   </g>
   <g id="matplotlib.axis_1">
    <g id="xtick_1">
     <g id="line2d_1">
      <path d="M 69.748155 381.9125 
L 69.748155 52.8 
" clip-path="url(#p42f9788f85)" style="fill: none; stroke: #cccccc; stroke-opacity: 0.4; stroke-linecap: round"/>
     </g>
     <g id="line2d_2"/>
     <g id="text_1">
      <text style="font-size: 20px; font-family: 'DejaVu Serif', 'Times New Roman', serif; text-anchor: middle; fill: #262626" x="69.748155" y="404.109375" transform="rotate(-0 69.748155 404.109375)">0.875</text>
     </g>
    </g>
    <g id="xtick_2">
     <g id="line2d_3">
      <path d="M 151.83066 381.9125 
L 151.83066 52.8 
" clip-path="url(#p42f9788f85)" style="fill: none; stroke: #cccccc; stroke-opacity: 0.4; stroke-linecap: round"/>
     </g>
     <g id="line2d_4"/>
     <g id="text_2">
      <text style="font-size: 20px; font-family: 'DejaVu Serif', 'Times New Roman', serif; text-anchor: middle; fill: #262626" x="151.83066" y="404.109375" transform="rotate(-0 151.83066 404.109375)">0.900</text>
     </g>
    </g>
    <g id="xtick_3">
     <g id="line2d_5">
      <path d="M 233.913166 381.9125 
L 233.913166 52.8 
" clip-path="url(#p42f9788f85)" style="fill: none; stroke: #cccccc; stroke-opacity: 0.4; stroke-linecap: round"/>
     </g>
     <g id="line2d_6"/>
     <g id="text_3">
      <text style="font-size: 20px; font-family: 'DejaVu Serif', 'Times New Roman', serif; text-anchor: middle; fill: #262626" x="233.913166" y="404.109375" transform="rotate(-0 233.913166 404.109375)">0.925</text>
     </g>
    </g>
    <g id="xtick_4">
     <g id="line2d_7">
      <path d="M 315.995671 381.9125 
L 315.995671 52.8 
" clip-path="url(#p42f9788f85)" style="fill: none; stroke: #cccccc; stroke-opacity: 0.4; stroke-linecap: round"/>
     </g>
     <g id="line2d_8"/>
     <g id="text_4">
      <text style="font-size: 20px; font-family: 'DejaVu Serif', 'Times New Roman', serif; text-anchor: middle; fill: #262626" x="315.995671" y="404.109375" transform="rotate(-0 315.995671 404.109375)">0.950</text>
     </g>
    </g>
    <g id="xtick_5">
     <g id="line2d_9">
      <path d="M 398.078177 381.9125 
L 398.078177 52.8 
" clip-path="url(#p42f9788f85)" style="fill: none; stroke: #cccccc; stroke-opacity: 0.4; stroke-linecap: round"/>
     </g>
     <g id="line2d_10"/>
     <g id="text_5">
      <text style="font-size: 20px; font-family: 'DejaVu Serif', 'Times New Roman', serif; text-anchor: middle; fill: #262626" x="398.078177" y="404.109375" transform="rotate(-0 398.078177 404.109375)">0.975</text>
     </g>
    </g>
    <g id="xtick_6">
     <g id="line2d_11">
      <path d="M 480.160682 381.9125 
L 480.160682 52.8 
" clip-path="url(#p42f9788f85)" style="fill: none; stroke: #cccccc; stroke-opacity: 0.4; stroke-linecap: round"/>
     </g>
     <g id="line2d_12"/>
     <g id="text_6">
      <text style="font-size: 20px; font-family: 'DejaVu Serif', 'Times New Roman', serif; text-anchor: middle; fill: #262626" x="480.160682" y="404.109375" transform="rotate(-0 480.160682 404.109375)">1.000</text>
     </g>
    </g>
   </g>
   <g id="matplotlib.axis_2">
    <g id="ytick_1">
     <g id="line2d_13">
      <path d="M 23.76 369.436927 
L 552.24 369.436927 
" clip-path="url(#p42f9788f85)" style="fill: none; stroke: #cccccc; stroke-opacity: 0.4; stroke-linecap: round"/>
     </g>
    </g>
    <g id="ytick_2">
     <g id="line2d_14">
      <path d="M 23.76 293.566463 
L 552.24 293.566463 
" clip-path="url(#p42f9788f85)" style="fill: none; stroke: #cccccc; stroke-opacity: 0.4; stroke-linecap: round"/>
     </g>
    </g>
    <g id="ytick_3">
     <g id="line2d_15">
      <path d="M 23.76 217.695999 
L 552.24 217.695999 
" clip-path="url(#p42f9788f85)" style="fill: none; stroke: #cccccc; stroke-opacity: 0.4; stroke-linecap: round"/>
     </g>
    </g>
    <g id="ytick_4">
     <g id="line2d_16">
      <path d="M 23.76 141.825534 
L 552.24 141.825534 
" clip-path="url(#p42f9788f85)" style="fill: none; stroke: #cccccc; stroke-opacity: 0.4; stroke-linecap: round"/>
     </g>
    </g>
    <g id="ytick_5">
     <g id="line2d_17">
      <path d="M 23.76 65.95507 
L 552.24 65.95507 
" clip-path="url(#p42f9788f85)" style="fill: none; stroke: #cccccc; stroke-opacity: 0.4; stroke-linecap: round"/>
     </g>
    </g>
   </g>
   <g id="line2d_18">
    <path d="M 48.176611 361.825513 
L 55.011736 361.712127 
L 63.555642 361.145284 
L 71.245158 360.38892 
L 95.168097 357.78033 
L 100.29444 356.898106 
L 103.712003 356.065239 
L 106.275175 355.308053 
L 108.838347 354.369971 
L 111.401519 353.247737 
L 113.964691 351.902374 
L 116.527863 350.297891 
L 119.091035 348.420103 
L 121.654207 346.284313 
L 124.217379 343.858327 
L 126.780551 341.165634 
L 129.343723 338.163582 
L 132.761285 333.766716 
L 136.178848 328.949707 
L 140.450801 322.476021 
L 149.849098 307.416499 
L 154.975442 299.448619 
L 159.247396 293.172657 
L 163.519349 287.296947 
L 167.791302 281.740971 
L 172.917646 275.543974 
L 180.607162 266.719727 
L 184.879115 261.774092 
L 191.71424 253.547877 
L 195.131803 249.160488 
L 201.966928 239.81772 
L 206.238882 233.564198 
L 211.365226 225.621288 
L 213.928397 221.428348 
L 220.763523 209.429159 
L 225.035476 201.336556 
L 231.016211 189.210445 
L 236.996945 176.306753 
L 248.104024 150.917277 
L 251.521586 143.099457 
L 255.79354 133.700973 
L 260.919883 123.296885 
L 263.483055 118.68514 
L 266.900618 113.196713 
L 269.46379 109.607703 
L 271.172571 107.590861 
L 272.881353 105.803363 
L 274.590134 104.318134 
L 276.298915 103.02126 
L 278.007697 102.033173 
L 279.716478 101.34075 
L 281.425259 100.937635 
L 283.134041 100.779058 
L 284.842822 100.842737 
L 286.551603 101.13472 
L 288.260384 101.690246 
L 290.823556 102.888284 
L 292.532338 103.870246 
L 295.09551 105.682947 
L 297.658682 107.749242 
L 300.221854 110.081338 
L 304.493807 114.152794 
L 324.999183 134.807289 
L 329.271136 139.454163 
L 331.834308 142.460025 
L 335.25187 146.694387 
L 338.669433 151.326993 
L 341.232605 155.109391 
L 345.504558 161.973849 
L 348.922121 168.079267 
L 351.485293 173.005736 
L 354.048465 178.292131 
L 358.320418 187.617177 
L 361.737981 195.604793 
L 367.718715 210.453652 
L 383.952138 251.59276 
L 388.224091 261.562807 
L 392.496044 271.02015 
L 395.913607 278.12279 
L 399.33117 284.846195 
L 403.603123 292.783754 
L 407.875076 300.258236 
L 412.147029 307.27005 
L 416.418983 313.837432 
L 419.836545 318.728568 
L 424.108499 324.332891 
L 427.526061 328.436168 
L 431.798014 332.977936 
L 434.361186 335.445749 
L 436.924358 337.722234 
L 441.196312 341.175085 
L 445.468265 344.201267 
L 448.031437 345.88121 
L 454.012171 349.325716 
L 458.284125 351.474971 
L 461.701687 353.006378 
L 465.973641 354.623656 
L 469.391203 355.699292 
L 473.663156 356.778487 
L 477.080719 357.399861 
L 481.352672 357.897293 
L 484.770235 358.047441 
L 484.770235 358.047441 
" clip-path="url(#p42f9788f85)" style="fill: none; stroke: #7570b3; stroke-width: 0.875; stroke-linecap: round"/>
   </g>
   <g id="line2d_19">
    <path d="M 47.781818 365.712501 
L 66.58559 365.671939 
L 74.107098 365.115919 
L 77.867853 364.589663 
L 81.628607 363.809649 
L 85.389361 362.828512 
L 88.209927 361.906941 
L 91.970681 360.439792 
L 95.731436 358.700754 
L 100.432379 356.149347 
L 105.133321 353.283544 
L 111.714642 348.950767 
L 120.176339 343.386103 
L 135.219356 333.965757 
L 138.039922 331.975431 
L 141.800676 329.015521 
L 145.56143 325.647761 
L 149.322185 321.711418 
L 152.14275 318.403593 
L 155.903505 313.583934 
L 159.664259 308.276728 
L 164.365202 301.19334 
L 169.066145 293.465765 
L 173.767088 285.400175 
L 178.468031 276.899826 
L 183.168973 267.938336 
L 188.810105 256.637837 
L 193.511048 246.878877 
L 205.733499 220.450106 
L 209.494254 212.188357 
L 219.836328 189.481535 
L 228.298025 170.095006 
L 234.879345 154.24238 
L 245.22142 129.631886 
L 248.041985 123.489278 
L 250.862551 117.846079 
L 252.742928 114.397553 
L 254.623305 111.216578 
L 256.503683 108.372689 
L 258.38406 105.867143 
L 260.264437 103.624407 
L 262.144814 101.758074 
L 264.025191 100.28306 
L 265.905568 99.042904 
L 267.785946 98.103082 
L 269.666323 97.47872 
L 272.486888 96.845153 
L 274.367266 96.633193 
L 277.187831 96.665681 
L 281.888774 96.972327 
L 293.171037 97.879714 
L 296.931791 98.342429 
L 300.692546 99.185787 
L 303.513112 100.122759 
L 306.333677 101.629686 
L 308.214054 102.886211 
L 310.094432 104.410756 
L 311.974809 106.159953 
L 313.855186 108.191379 
L 315.735563 110.530644 
L 317.61594 113.175297 
L 321.376695 119.175724 
L 323.257072 122.516715 
L 327.017826 129.923941 
L 330.77858 138.14321 
L 334.539335 146.984181 
L 338.300089 156.194264 
L 343.001032 168.196046 
L 352.402918 192.696751 
L 358.044049 207.278538 
L 363.685181 221.456597 
L 372.146878 241.767512 
L 378.728198 256.621115 
L 386.249706 272.873677 
L 392.831027 286.317314 
L 397.531969 295.370513 
L 401.292724 302.16166 
L 405.053478 308.406058 
L 407.874044 312.745461 
L 411.634798 318.053051 
L 414.455364 321.685518 
L 417.27593 324.996861 
L 421.036684 328.975182 
L 425.737627 333.528168 
L 430.43857 337.571911 
L 435.139513 341.383126 
L 441.720833 346.24598 
L 446.421775 349.422469 
L 450.18253 351.710995 
L 453.003096 353.269432 
L 456.76385 355.164058 
L 460.524604 356.767754 
L 465.225547 358.479413 
L 470.866679 360.264856 
L 477.447999 362.010276 
L 486.849884 364.203305 
L 493.431204 365.413719 
L 499.072336 366.207535 
L 503.773279 366.649339 
L 509.41441 366.902427 
L 515.99573 366.946293 
L 528.218182 366.850609 
L 528.218182 366.850609 
" clip-path="url(#p42f9788f85)" style="fill: none; stroke-dasharray: 0.875,1.44375; stroke-dashoffset: 0; stroke: #7570b3; stroke-width: 0.875"/>
   </g>
   <g id="line2d_20">
    <path d="M 91.983821 361.537172 
L 96.498072 361.582754 
L 104.774199 361.653713 
L 107.7837 361.564476 
L 111.545575 361.258287 
L 114.555076 360.801217 
L 117.564577 360.130228 
L 120.574077 359.204843 
L 123.583578 358.073096 
L 125.840703 357.032241 
L 129.602579 354.917057 
L 132.61208 352.885896 
L 134.869205 351.151453 
L 137.878706 348.50049 
L 142.392957 343.913142 
L 144.650082 341.354514 
L 149.164333 335.676587 
L 152.926209 330.625227 
L 158.94521 321.997602 
L 166.468962 310.983344 
L 183.021215 287.180426 
L 189.040216 278.358665 
L 193.554467 271.351343 
L 196.563968 266.336607 
L 199.573468 261.01824 
L 202.582969 255.222197 
L 205.59247 249.003441 
L 208.60197 242.249997 
L 210.859096 236.823799 
L 215.373347 225.310358 
L 221.392348 209.089889 
L 227.411349 192.98357 
L 231.173225 183.654057 
L 234.182726 176.719558 
L 236.439851 171.8481 
L 240.954102 163.161476 
L 244.715978 156.418907 
L 251.487354 144.30947 
L 254.496855 138.464977 
L 257.506355 132.082831 
L 261.268231 123.366032 
L 264.277732 116.037023 
L 271.801483 97.728621 
L 274.810984 91.134062 
L 277.068109 86.821139 
L 278.57286 84.207223 
L 280.07761 81.884587 
L 282.334735 78.841691 
L 284.591861 76.448849 
L 286.096611 75.08762 
L 288.353737 73.543091 
L 291.363237 72.01657 
L 293.620363 71.122169 
L 304.90599 68.168873 
L 307.915491 67.773946 
L 310.924991 67.866022 
L 312.429742 68.177834 
L 313.934492 68.73797 
L 315.439242 69.592107 
L 316.943993 70.722993 
L 318.448743 72.24979 
L 319.953493 74.239627 
L 321.458243 76.577263 
L 323.715369 80.950233 
L 325.220119 84.372177 
L 326.72487 88.219705 
L 328.981995 94.762748 
L 331.23912 102.246711 
L 333.496246 110.362727 
L 336.505747 121.941249 
L 341.019997 140.397269 
L 344.781873 155.738991 
L 348.543749 170.373307 
L 350.800874 178.580011 
L 353.810375 188.714502 
L 356.819876 197.845415 
L 359.077001 204.021715 
L 361.334127 209.636267 
L 363.591252 214.800979 
L 366.600753 220.983663 
L 369.610253 226.576357 
L 373.372129 233.057923 
L 384.657756 251.690806 
L 389.172007 259.742043 
L 393.686258 268.276486 
L 401.21001 283.191602 
L 405.724261 291.921084 
L 409.486137 298.863721 
L 413.248012 305.333103 
L 417.009888 311.202548 
L 420.019389 315.444458 
L 423.781264 320.251032 
L 426.790765 323.71767 
L 429.800266 326.910871 
L 435.066892 332.16754 
L 441.838268 338.369823 
L 445.600144 341.514803 
L 449.36202 344.356803 
L 452.37152 346.251435 
L 455.381021 347.809222 
L 457.638146 348.751426 
L 459.895272 349.493366 
L 462.904772 350.191934 
L 468.171399 350.71333 
L 472.685649 350.769062 
L 476.447525 350.780337 
L 476.447525 350.780337 
" clip-path="url(#p42f9788f85)" style="fill: none; stroke-dasharray: 3.2375,1.4; stroke-dashoffset: 0; stroke: #7570b3; stroke-width: 0.875"/>
   </g>
   <g id="line2d_21">
    <path d="M 98.124542 358.686827 
L 100.482733 358.600102 
L 103.626988 358.227215 
L 106.771243 357.565429 
L 110.701562 356.447514 
L 113.059754 355.58857 
L 117.776137 353.572782 
L 122.49252 351.321587 
L 140.571987 342.16602 
L 144.502306 339.900462 
L 146.860498 338.361114 
L 150.790817 335.458481 
L 153.149008 333.343305 
L 155.5072 330.945234 
L 157.865391 328.25579 
L 160.223582 325.213017 
L 162.581774 321.865879 
L 164.939965 318.148259 
L 168.084221 312.579952 
L 170.442412 308.03635 
L 174.372731 299.717893 
L 177.516986 292.569505 
L 181.447305 283.004833 
L 186.949752 268.585824 
L 191.666135 255.51639 
L 201.098901 228.088151 
L 207.387411 209.901663 
L 211.31773 198.896959 
L 215.248049 188.40358 
L 219.964432 176.715632 
L 223.108687 169.486197 
L 227.039006 161.184636 
L 230.969325 153.501211 
L 234.113581 147.737751 
L 241.974219 134.344604 
L 250.620921 119.715762 
L 257.695495 106.846918 
L 262.411878 98.253779 
L 265.556133 92.847037 
L 267.914324 89.073566 
L 270.272516 85.792239 
L 271.844643 83.898408 
L 274.202835 81.444053 
L 276.561026 79.771962 
L 278.133154 79.0792 
L 279.705282 78.705812 
L 281.277409 78.681711 
L 282.849537 79.037291 
L 283.635601 79.326696 
L 285.207728 80.223956 
L 286.779856 81.454781 
L 288.351983 82.995192 
L 290.710175 85.718117 
L 293.068366 88.97683 
L 296.212622 93.800107 
L 302.501132 103.827909 
L 305.645387 108.371592 
L 308.003579 111.369219 
L 311.147834 114.862091 
L 313.506025 117.115375 
L 315.864217 119.09292 
L 318.222408 120.832518 
L 322.938791 124.163346 
L 326.083046 126.649446 
L 329.227302 129.57461 
L 331.585493 132.298924 
L 333.943684 135.444458 
L 335.515812 137.808649 
L 337.874003 141.79455 
L 340.232195 146.244539 
L 342.590386 151.338813 
L 344.948578 156.752077 
L 348.092833 164.894718 
L 350.451024 171.455365 
L 353.59528 180.930881 
L 357.525599 193.591428 
L 366.958364 226.031111 
L 372.460811 244.613993 
L 375.605066 254.52711 
L 378.749322 263.77218 
L 381.107513 270.117365 
L 384.251768 277.781553 
L 386.60996 282.970742 
L 388.968151 287.627368 
L 391.326342 291.792391 
L 394.470598 296.714716 
L 396.828789 299.93137 
L 399.973044 303.772319 
L 403.903363 307.838367 
L 407.047619 310.851423 
L 412.550065 315.751221 
L 418.052512 320.568797 
L 424.341023 326.403082 
L 434.559852 335.632535 
L 439.276235 339.351755 
L 441.634426 340.98497 
L 444.778682 342.971587 
L 448.709001 345.160843 
L 454.997511 348.170838 
L 460.499958 350.542682 
L 469.932723 354.356495 
L 475.43517 356.238679 
L 479.365489 357.312716 
L 484.081872 358.221668 
L 487.226127 358.638148 
L 491.156446 358.937308 
L 496.658893 359.155671 
L 499.803148 359.168585 
L 499.803148 359.168585 
" clip-path="url(#p42f9788f85)" style="fill: none; stroke-dasharray: 5.6,1.4,0.875,1.4; stroke-dashoffset: 0; stroke: #7570b3; stroke-width: 0.875"/>
   </g>
   <g id="patch_3">
    <path d="M 23.76 381.9125 
L 552.24 381.9125 
" style="fill: none; stroke: #333333; stroke-width: 1.5; stroke-linejoin: miter; stroke-linecap: square"/>
   </g>
   <g id="text_7">
    <!-- $x_3$ -->
    <g style="fill: #262626" transform="translate(271.95 46.560937)">
     <text>
      <tspan x="0" y="-0.59375" style="font-style: oblique; font-size: 30px; font-family: 'DejaVu Sans'; fill: #262626">x</tspan>
      <tspan x="17.753906" y="4.328125" style="font-size: 21px; font-family: 'DejaVu Sans'; fill: #262626">3</tspan>
     </text>
    </g>
   </g>
  </g>
 </g>
 <defs>
  <clipPath id="p42f9788f85">
   <rect x="23.76" y="52.8" width="528.48" height="329.1125"/>
  </clipPath>
 </defs>
</svg>
