<?xml version="1.0" encoding="utf-8" standalone="no"?>
<!DOCTYPE svg PUBLIC "-//W3C//DTD SVG 1.1//EN"
  "http://www.w3.org/Graphics/SVG/1.1/DTD/svg11.dtd">
<svg xmlns:xlink="http://www.w3.org/1999/xlink" width="576pt" height="432pt" viewBox="0 0 576 432" xmlns="http://www.w3.org/2000/svg" version="1.1">
 <metadata>
  <rdf:RDF xmlns:dc="http://purl.org/dc/elements/1.1/" xmlns:cc="http://creativecommons.org/ns#" xmlns:rdf="http://www.w3.org/1999/02/22-rdf-syntax-ns#">
   <cc:Work>
    <dc:type rdf:resource="http://purl.org/dc/dcmitype/StillImage"/>
    <dc:date>2025-09-22T22:40:53.047128</dc:date>
    <dc:format>image/svg+xml</dc:format>
    <dc:creator>
     <cc:Agent>
      <dc:title>Matplotlib v3.10.0, https://matplotlib.org/</dc:title>
     </cc:Agent>
    </dc:creator>
   </cc:Work>
  </rdf:RDF>
 </metadata>
 <defs>
  <style type="text/css">*{stroke-linejoin: round; stroke-linecap: butt}</style>
 </defs>
 <g id="figure_1">
  <g id="patch_1">
   <path d="M 0 432 
L 576 432 
L 576 0 
L 0 0 
L 0 432 
z
" style="fill: none; opacity: 0"/>
  </g>
  <g id="axes_1">
   <g id="patch_2">
    <path d="M 23.76 381.9125 
L 552.24 381.9125 
L 552.24 60.012 
L 23.76 60.012 
L 23.76 381.9125 
z
" style="fill: none"/>
   </g>
   <g id="matplotlib.axis_1">
    <g id="xtick_1">
     <g id="line2d_1">
      <path d="M 94.98173 381.9125 
L 94.98173 60.012 
" clip-path="url(#p18c5603af1)" style="fill: none; stroke: #cccccc; stroke-opacity: 0.4; stroke-linecap: round"/>
     </g>
     <g id="line2d_2"/>
     <g id="text_1">
      <text style="font-size: 20px; font-family: 'DejaVu Serif', 'Times New Roman', serif; text-anchor: middle; fill: #262626" x="94.98173" y="404.109375" transform="rotate(-0 94.98173 404.109375)">−0.38</text>
     </g>
    </g>
    <g id="xtick_2">
     <g id="line2d_3">
      <path d="M 173.73861 381.9125 
L 173.73861 60.012 
" clip-path="url(#p18c5603af1)" style="fill: none; stroke: #cccccc; stroke-opacity: 0.4; stroke-linecap: round"/>
     </g>
     <g id="line2d_4"/>
     <g id="text_2">
      <text style="font-size: 20px; font-family: 'DejaVu Serif', 'Times New Roman', serif; text-anchor: middle; fill: #262626" x="173.73861" y="404.109375" transform="rotate(-0 173.73861 404.109375)">−0.36</text>
     </g>
    </g>
    <g id="xtick_3">
     <g id="line2d_5">
      <path d="M 252.495489 381.9125 
L 252.495489 60.012 
" clip-path="url(#p18c5603af1)" style="fill: none; stroke: #cccccc; stroke-opacity: 0.4; stroke-linecap: round"/>
     </g>
     <g id="line2d_6"/>
     <g id="text_3">
      <text style="font-size: 20px; font-family: 'DejaVu Serif', 'Times New Roman', serif; text-anchor: middle; fill: #262626" x="252.495489" y="404.109375" transform="rotate(-0 252.495489 404.109375)">−0.34</text>
     </g>
    </g>
    <g id="xtick_4">
     <g id="line2d_7">
      <path d="M 331.252368 381.9125 
L 331.252368 60.012 
" clip-path="url(#p18c5603af1)" style="fill: none; stroke: #cccccc; stroke-opacity: 0.4; stroke-linecap: round"/>
     </g>
     <g id="line2d_8"/>
     <g id="text_4">
      <text style="font-size: 20px; font-family: 'DejaVu Serif', 'Times New Roman', serif; text-anchor: middle; fill: #262626" x="331.252368" y="404.109375" transform="rotate(-0 331.252368 404.109375)">−0.32</text>
     </g>
    </g>
    <g id="xtick_5">
     <g id="line2d_9">
      <path d="M 410.009248 381.9125 
L 410.009248 60.012 
" clip-path="url(#p18c5603af1)" style="fill: none; stroke: #cccccc; stroke-opacity: 0.4; stroke-linecap: round"/>
     </g>
     <g id="line2d_10"/>
     <g id="text_5">
      <text style="font-size: 20px; font-family: 'DejaVu Serif', 'Times New Roman', serif; text-anchor: middle; fill: #262626" x="410.009248" y="404.109375" transform="rotate(-0 410.009248 404.109375)">−0.30</text>
     </g>
    </g>
    <g id="xtick_6">
     <g id="line2d_11">
      <path d="M 488.766127 381.9125 
L 488.766127 60.012 
" clip-path="url(#p18c5603af1)" style="fill: none; stroke: #cccccc; stroke-opacity: 0.4; stroke-linecap: round"/>
     </g>
     <g id="line2d_12"/>
     <g id="text_6">
      <text style="font-size: 20px; font-family: 'DejaVu Serif', 'Times New Roman', serif; text-anchor: middle; fill: #262626" x="488.766127" y="404.109375" transform="rotate(-0 488.766127 404.109375)">−0.28</text>
     </g>
    </g>
   </g>
   <g id="matplotlib.axis_2">
    <g id="ytick_1">
     <g id="line2d_13">
      <path d="M 23.76 369.782873 
L 552.24 369.782873 
" clip-path="url(#p18c5603af1)" style="fill: none; stroke: #cccccc; stroke-opacity: 0.4; stroke-linecap: round"/>
     </g>
    </g>
    <g id="ytick_2">
     <g id="line2d_14">
      <path d="M 23.76 309.666722 
L 552.24 309.666722 
" clip-path="url(#p18c5603af1)" style="fill: none; stroke: #cccccc; stroke-opacity: 0.4; stroke-linecap: round"/>
     </g>
    </g>
    <g id="ytick_3">
     <g id="line2d_15">
      <path d="M 23.76 249.550572 
L 552.24 249.550572 
" clip-path="url(#p18c5603af1)" style="fill: none; stroke: #cccccc; stroke-opacity: 0.4; stroke-linecap: round"/>
     </g>
    </g>
    <g id="ytick_4">
     <g id="line2d_16">
      <path d="M 23.76 189.434421 
L 552.24 189.434421 
" clip-path="url(#p18c5603af1)" style="fill: none; stroke: #cccccc; stroke-opacity: 0.4; stroke-linecap: round"/>
     </g>
    </g>
    <g id="ytick_5">
     <g id="line2d_17">
      <path d="M 23.76 129.31827 
L 552.24 129.31827 
" clip-path="url(#p18c5603af1)" style="fill: none; stroke: #cccccc; stroke-opacity: 0.4; stroke-linecap: round"/>
     </g>
    </g>
    <g id="ytick_6">
     <g id="line2d_18">
      <path d="M 23.76 69.20212 
L 552.24 69.20212 
" clip-path="url(#p18c5603af1)" style="fill: none; stroke: #cccccc; stroke-opacity: 0.4; stroke-linecap: round"/>
     </g>
    </g>
   </g>
   <g id="line2d_19">
    <path d="M 84.11943 364.582281 
L 87.595741 364.505984 
L 91.072052 364.239838 
L 94.548363 363.769891 
L 99.76283 362.725479 
L 104.108219 361.558789 
L 108.453608 360.107215 
L 112.798997 358.410769 
L 117.144386 356.401721 
L 120.620697 354.538839 
L 124.966086 351.84696 
L 127.573319 350.027482 
L 131.918708 346.475009 
L 134.525942 344.065524 
L 137.133175 341.36562 
L 139.740409 338.398937 
L 142.347642 335.203741 
L 145.823953 330.525848 
L 149.300264 325.50868 
L 157.121964 313.61046 
L 161.467353 307.038597 
L 165.812742 300.802196 
L 170.158131 295.021461 
L 173.634442 290.746047 
L 177.979831 285.865723 
L 184.932454 278.437978 
L 187.539687 275.588461 
L 191.015998 271.493062 
L 193.623232 268.200814 
L 196.230465 264.537968 
L 199.706776 259.192525 
L 202.31401 254.656726 
L 204.921243 249.68499 
L 207.528476 244.401434 
L 210.13571 238.694186 
L 213.612021 230.450357 
L 217.95741 219.38598 
L 224.040954 203.109486 
L 233.60081 177.468109 
L 238.815277 164.388884 
L 242.291588 156.235673 
L 246.636977 146.88418 
L 250.113288 140.11288 
L 252.720522 135.500939 
L 255.327755 131.341628 
L 257.934988 127.624334 
L 260.542222 124.372659 
L 263.149455 121.593558 
L 265.756688 119.248969 
L 267.494844 117.944513 
L 269.233 116.847682 
L 271.840233 115.562437 
L 274.447466 114.767583 
L 276.185622 114.441413 
L 278.792855 114.263245 
L 280.531011 114.327324 
L 282.269167 114.582721 
L 284.8764 115.261188 
L 287.483633 116.244123 
L 290.090867 117.463469 
L 292.6981 118.972809 
L 296.174411 121.440958 
L 298.781645 123.620567 
L 300.5198 125.161509 
L 303.996111 128.741864 
L 308.3415 133.760177 
L 312.686889 139.408282 
L 316.1632 144.308821 
L 324.853978 157.756405 
L 332.675679 170.8031 
L 341.366456 186.07277 
L 351.79539 205.258966 
L 357.009857 214.872904 
L 361.355246 222.601847 
L 365.700635 229.87667 
L 369.176946 235.229045 
L 372.653257 240.147877 
L 376.998646 245.637712 
L 382.213113 251.523106 
L 387.427579 256.875 
L 391.772968 261.285938 
L 399.594669 269.806529 
L 403.07098 273.996468 
L 407.416369 279.665565 
L 410.89268 284.509419 
L 417.845302 294.921884 
L 425.667002 307.337836 
L 434.35778 321.075139 
L 438.703169 327.542437 
L 443.048558 333.42419 
L 446.524869 337.636661 
L 448.263025 339.576227 
L 451.739336 343.034884 
L 454.346569 345.282765 
L 456.953803 347.182964 
L 459.561036 348.844903 
L 462.16827 350.208747 
L 463.906425 350.986809 
L 467.382736 352.234757 
L 470.859048 353.19334 
L 475.204436 354.104821 
L 493.45507 357.037957 
L 498.669537 358.181379 
L 507.360315 360.369076 
L 514.312937 362.045214 
L 518.658326 362.886304 
L 522.134637 363.355187 
L 525.610948 363.665021 
L 528.218182 363.760105 
L 528.218182 363.760105 
" clip-path="url(#p18c5603af1)" style="fill: none; stroke: #7570b3; stroke-width: 0.875; stroke-linecap: round"/>
   </g>
   <g id="line2d_20">
    <path d="M 47.781818 367.162855 
L 74.392726 367.103118 
L 83.263028 366.748003 
L 93.020361 365.999971 
L 98.342542 365.299583 
L 102.777694 364.470657 
L 105.438784 363.766204 
L 109.873936 362.30017 
L 113.422057 360.847839 
L 116.083147 359.568649 
L 119.631268 357.636838 
L 123.179389 355.445507 
L 127.614541 352.41005 
L 133.823752 347.757202 
L 153.338418 332.767896 
L 157.773569 329.021644 
L 161.32169 325.658342 
L 163.982781 322.773133 
L 166.643872 319.590291 
L 169.304962 315.964921 
L 172.853083 310.478197 
L 175.514174 305.825691 
L 178.175265 300.783562 
L 181.723386 293.449094 
L 186.158537 283.366724 
L 191.480719 270.613095 
L 200.351021 249.148296 
L 204.786172 238.933732 
L 208.334293 231.138255 
L 211.882414 223.813673 
L 215.430535 216.980191 
L 218.978656 210.502517 
L 223.413808 202.880782 
L 228.735989 194.43948 
L 233.17114 187.845029 
L 239.380352 179.13658 
L 249.137685 165.699429 
L 251.798776 161.74497 
L 255.346897 156.134121 
L 258.007987 151.637609 
L 261.556108 145.079536 
L 265.104229 137.993607 
L 277.522653 112.268798 
L 280.183744 107.610568 
L 281.957804 104.806186 
L 283.731865 102.3958 
L 285.505925 100.326061 
L 287.279986 98.653237 
L 289.054046 97.412668 
L 290.828107 96.505003 
L 292.602167 96.062668 
L 294.376228 95.911473 
L 296.150288 96.123451 
L 297.924349 96.687431 
L 299.698409 97.552828 
L 301.47247 98.720728 
L 303.24653 100.071847 
L 305.907621 102.519223 
L 308.568711 105.31039 
L 311.229802 108.465506 
L 315.664953 114.284986 
L 318.326044 118.21064 
L 321.874165 123.916519 
L 324.535256 128.581434 
L 328.083377 135.329185 
L 331.631498 142.571184 
L 338.72774 157.989299 
L 343.162891 167.585791 
L 347.598042 176.808615 
L 352.033194 185.282427 
L 356.468345 193.122568 
L 361.790526 202.167692 
L 367.112708 211.299525 
L 370.660829 217.884004 
L 374.20895 224.844452 
L 377.757071 232.234926 
L 382.192222 242.007246 
L 389.288464 258.397231 
L 395.497676 272.67373 
L 401.706888 286.3359 
L 405.255009 293.671447 
L 410.57719 303.849163 
L 414.125311 310.062709 
L 416.786402 314.446518 
L 419.447493 318.466485 
L 422.995614 323.358244 
L 426.543735 327.69062 
L 429.204825 330.500501 
L 432.752946 333.828564 
L 435.414037 335.98805 
L 438.962158 338.54917 
L 442.510279 340.71106 
L 446.0584 342.608481 
L 453.154642 345.794311 
L 465.573066 350.858148 
L 477.991489 355.588752 
L 481.53961 356.75562 
L 486.861792 358.250824 
L 490.409913 358.998462 
L 493.958034 359.558691 
L 497.506155 359.913828 
L 501.054276 360.048185 
L 501.054276 360.048185 
" clip-path="url(#p18c5603af1)" style="fill: none; stroke-dasharray: 0.875,1.44375; stroke-dashoffset: 0; stroke: #7570b3; stroke-width: 0.875"/>
   </g>
   <g id="line2d_21">
    <path d="M 83.046509 366.061311 
L 89.128013 365.968712 
L 92.928952 365.72803 
L 96.729892 365.259929 
L 99.770644 364.667921 
L 102.811395 363.816466 
L 105.852147 362.704886 
L 108.892899 361.36018 
L 112.693839 359.413338 
L 118.775342 355.707771 
L 125.617034 351.204416 
L 130.938349 347.3922 
L 134.739289 344.386512 
L 137.780041 341.765644 
L 141.58098 338.160221 
L 144.621732 334.989388 
L 148.422672 330.788516 
L 153.743987 324.769643 
L 158.305115 320.019787 
L 162.106055 316.470612 
L 168.947746 310.869453 
L 171.22831 308.999941 
L 174.269062 306.220423 
L 176.549625 303.813017 
L 178.070001 302.000289 
L 179.590377 299.914176 
L 181.870941 296.41508 
L 184.151505 292.320674 
L 186.432068 287.568615 
L 188.712632 282.154895 
L 190.993196 276.100172 
L 193.27376 269.380011 
L 196.314512 259.498052 
L 199.355263 248.771237 
L 203.156203 234.258565 
L 215.31921 186.261416 
L 219.880338 169.225646 
L 225.961841 147.781514 
L 229.762781 135.049425 
L 235.084096 117.867232 
L 240.405412 101.743087 
L 242.685976 95.442438 
L 244.96654 89.710288 
L 247.247103 84.661405 
L 248.767479 81.757805 
L 250.287855 79.350589 
L 251.808231 77.336224 
L 253.328607 75.8645 
L 254.088795 75.319442 
L 254.848983 74.936639 
L 255.609171 74.700304 
L 256.369359 74.643841 
L 257.889735 74.902449 
L 258.649922 75.285173 
L 260.170298 76.541237 
L 261.690674 78.296628 
L 263.21105 80.709254 
L 264.731426 83.659552 
L 266.251802 87.027032 
L 268.532366 92.691343 
L 271.573117 101.080388 
L 276.894433 115.969843 
L 279.174997 121.652262 
L 281.455561 126.467711 
L 283.736124 130.406788 
L 285.2565 132.49277 
L 286.016688 133.366439 
L 288.297252 135.223926 
L 289.817628 135.906551 
L 291.338004 136.197291 
L 292.85838 136.11475 
L 294.378756 135.763135 
L 295.899131 135.168097 
L 297.419507 134.436783 
L 300.460259 132.566572 
L 305.781575 129.374197 
L 307.30195 128.827445 
L 308.822326 128.472143 
L 310.342702 128.371745 
L 311.10289 128.410828 
L 312.623266 128.768912 
L 314.143642 129.391308 
L 315.664018 130.412606 
L 317.184394 131.713362 
L 318.70477 133.486765 
L 320.225145 135.479306 
L 322.505709 139.162856 
L 324.786273 143.372933 
L 327.066837 147.998533 
L 336.189092 166.758158 
L 339.229844 171.891441 
L 342.270596 176.33056 
L 348.352099 184.308228 
L 350.632663 187.599291 
L 352.913227 191.607524 
L 355.19379 196.332917 
L 357.474354 201.866611 
L 359.754918 208.269237 
L 362.035482 215.438186 
L 365.836422 228.451882 
L 371.157737 246.856373 
L 373.438301 254.019521 
L 375.718865 260.593643 
L 377.999429 266.491408 
L 380.279992 271.666463 
L 382.560556 276.245501 
L 385.601308 281.683795 
L 397.004127 300.95304 
L 400.805067 308.085178 
L 404.606006 315.2909 
L 408.406946 322.205206 
L 411.447698 327.205061 
L 413.728262 330.603803 
L 416.008825 333.68924 
L 418.289389 336.393069 
L 419.809765 338.014711 
L 422.090329 340.15172 
L 424.370893 341.943443 
L 426.651457 343.495616 
L 428.93202 344.869971 
L 431.972772 346.475104 
L 435.773712 348.285181 
L 442.615403 351.002952 
L 447.936719 352.843936 
L 451.737658 353.816322 
L 453.258034 354.123905 
L 456.298786 354.528261 
L 460.099726 354.758762 
L 465.421041 354.684039 
L 471.502545 354.564416 
L 471.502545 354.564416 
" clip-path="url(#p18c5603af1)" style="fill: none; stroke-dasharray: 3.2375,1.4; stroke-dashoffset: 0; stroke: #7570b3; stroke-width: 0.875"/>
   </g>
   <g id="line2d_22">
    <path d="M 79.022835 360.779012 
L 88.750079 361.037339 
L 96.232575 361.276373 
L 99.973823 361.166291 
L 103.715071 360.789189 
L 106.708069 360.258748 
L 111.197566 359.100741 
L 114.190565 358.122052 
L 118.680062 356.372753 
L 120.924811 355.393772 
L 125.414308 353.052252 
L 128.407307 351.204586 
L 131.400305 349.018198 
L 134.393303 346.560421 
L 137.386301 343.791294 
L 142.624048 338.557579 
L 152.351293 328.979739 
L 156.84079 325.07313 
L 161.330288 321.485262 
L 165.071535 318.723596 
L 172.554031 313.743761 
L 177.043528 310.679985 
L 180.784776 307.584388 
L 183.029525 305.398582 
L 185.274274 302.815278 
L 187.519022 299.755106 
L 189.763771 296.08396 
L 192.00852 291.899047 
L 194.253269 287.133682 
L 196.498017 281.837871 
L 198.742766 276.08033 
L 201.735764 267.83349 
L 204.728763 259.2314 
L 208.47001 248.224211 
L 212.211258 237.799664 
L 215.952506 228.342866 
L 218.945504 221.475568 
L 222.686752 213.500776 
L 226.428 205.673838 
L 229.420998 198.74716 
L 231.665747 192.84088 
L 233.910496 186.156684 
L 236.155244 178.68511 
L 238.399993 170.155029 
L 240.644742 160.731186 
L 243.63774 147.158011 
L 251.868485 108.712887 
L 254.113234 99.761092 
L 255.609733 94.560281 
L 257.106232 90.004869 
L 258.602732 86.301514 
L 260.099231 83.400923 
L 261.59573 81.380799 
L 262.343979 80.689268 
L 263.092229 80.212663 
L 263.840478 79.892868 
L 264.588728 79.861612 
L 265.336978 80.021279 
L 266.085227 80.432557 
L 266.833477 81.057532 
L 268.329976 82.772171 
L 269.826475 85.230776 
L 272.071224 89.831867 
L 274.315972 95.376418 
L 281.050219 112.885599 
L 282.546718 116.209912 
L 284.043217 119.035496 
L 285.539716 121.39217 
L 287.036215 123.182075 
L 287.784465 123.886484 
L 288.532714 124.427169 
L 290.029213 125.103986 
L 291.525713 125.254312 
L 292.273962 125.095293 
L 293.770461 124.352831 
L 295.26696 123.288841 
L 296.76346 121.909509 
L 298.259959 120.290025 
L 307.238953 108.843243 
L 308.735453 107.330652 
L 310.231952 105.984602 
L 311.728451 104.988539 
L 312.4767 104.504169 
L 314.721449 103.651165 
L 316.217948 103.285438 
L 317.714447 103.211444 
L 319.959196 103.655352 
L 320.707446 103.915082 
L 322.952194 105.053693 
L 324.448694 106.111804 
L 325.945193 107.380965 
L 328.189941 109.77433 
L 330.43469 112.643206 
L 332.679439 116.002485 
L 334.175938 118.546174 
L 336.420687 122.799005 
L 337.917186 125.893557 
L 340.161935 131.026933 
L 343.154933 138.644235 
L 346.147931 147.219285 
L 349.140929 156.521567 
L 353.630427 171.816975 
L 366.350669 215.512761 
L 369.343668 224.79594 
L 373.084916 235.534921 
L 376.077914 243.600326 
L 379.819162 252.937361 
L 382.81216 260.049127 
L 388.049907 271.685264 
L 391.791155 279.257214 
L 397.028902 289.019983 
L 401.518399 296.853978 
L 406.756146 305.37639 
L 411.245644 312.219121 
L 414.986891 317.70309 
L 420.972888 325.815863 
L 426.958885 333.37662 
L 432.196632 339.530765 
L 437.434379 345.274433 
L 439.679127 347.502147 
L 441.923876 349.566453 
L 444.916874 351.977298 
L 447.161623 353.565534 
L 449.406372 354.898195 
L 451.65112 355.95435 
L 453.895869 356.784543 
L 456.140618 357.396271 
L 459.881866 358.029581 
L 461.378365 358.08827 
L 461.378365 358.08827 
" clip-path="url(#p18c5603af1)" style="fill: none; stroke-dasharray: 5.6,1.4,0.875,1.4; stroke-dashoffset: 0; stroke: #7570b3; stroke-width: 0.875"/>
   </g>
   <g id="patch_3">
    <path d="M 23.76 381.9125 
L 552.24 381.9125 
" style="fill: none; stroke: #333333; stroke-width: 1.5; stroke-linejoin: miter; stroke-linecap: square"/>
   </g>
   <g id="text_7">
    <!-- $x_3^3$ -->
    <g style="fill: #262626" transform="translate(271.35 51.312)">
     <text>
      <tspan x="0" y="-0.929688" style="font-style: oblique; font-size: 30px; font-family: 'DejaVu Sans'; fill: #262626">x</tspan>
      <tspan x="17.753906" y="7.273438" style="font-size: 21px; font-family: 'DejaVu Sans'; fill: #262626">3</tspan>
      <tspan x="19.09375" y="-12.414063" style="font-size: 21px; font-family: 'DejaVu Sans'; fill: #262626">3</tspan>
     </text>
    </g>
   </g>
  </g>
 </g>
 <defs>
  <clipPath id="p18c5603af1">
   <rect x="23.76" y="60.012" width="528.48" height="321.9005"/>
  </clipPath>
 </defs>
</svg>
