<?xml version="1.0" encoding="utf-8" standalone="no"?>
<!DOCTYPE svg PUBLIC "-//W3C//DTD SVG 1.1//EN"
  "http://www.w3.org/Graphics/SVG/1.1/DTD/svg11.dtd">
<svg xmlns:xlink="http://www.w3.org/1999/xlink" width="576pt" height="432pt" viewBox="0 0 576 432" xmlns="http://www.w3.org/2000/svg" version="1.1">
 <metadata>
  <rdf:RDF xmlns:dc="http://purl.org/dc/elements/1.1/" xmlns:cc="http://creativecommons.org/ns#" xmlns:rdf="http://www.w3.org/1999/02/22-rdf-syntax-ns#">
   <cc:Work>
    <dc:type rdf:resource="http://purl.org/dc/dcmitype/StillImage"/>
    <dc:date>2025-09-22T22:40:53.695088</dc:date>
    <dc:format>image/svg+xml</dc:format>
    <dc:creator>
     <cc:Agent>
      <dc:title>Matplotlib v3.10.0, https://matplotlib.org/</dc:title>
     </cc:Agent>
    </dc:creator>
   </cc:Work>
  </rdf:RDF>
 </metadata>
 <defs>
  <style type="text/css">*{stroke-linejoin: round; stroke-linecap: butt}</style>
 </defs>
 <g id="figure_1">
  <g id="patch_1">
   <path d="M 0 432 
L 576 432 
L 576 0 
L 0 0 
L 0 432 
z
" style="fill: none; opacity: 0"/>
  </g>
  <g id="axes_1">
   <g id="patch_2">
    <path d="M 23.76 381.9125 
L 552.24 381.9125 
L 552.24 59.484 
L 23.76 59.484 
L 23.76 381.9125 
z
" style="fill: none"/>
   </g>
   <g id="matplotlib.axis_1">
    <g id="xtick_1">
     <g id="line2d_1">
      <path d="M 77.256125 381.9125 
L 77.256125 59.484 
" clip-path="url(#pefdf4d08db)" style="fill: none; stroke: #cccccc; stroke-opacity: 0.4; stroke-linecap: round"/>
     </g>
     <g id="line2d_2"/>
     <g id="text_1">
      <text style="font-size: 20px; font-family: 'DejaVu Serif', 'Times New Roman', serif; text-anchor: middle; fill: #262626" x="77.256125" y="404.109375" transform="rotate(-0 77.256125 404.109375)">−0.02</text>
     </g>
    </g>
    <g id="xtick_2">
     <g id="line2d_3">
      <path d="M 180.382041 381.9125 
L 180.382041 59.484 
" clip-path="url(#pefdf4d08db)" style="fill: none; stroke: #cccccc; stroke-opacity: 0.4; stroke-linecap: round"/>
     </g>
     <g id="line2d_4"/>
     <g id="text_2">
      <text style="font-size: 20px; font-family: 'DejaVu Serif', 'Times New Roman', serif; text-anchor: middle; fill: #262626" x="180.382041" y="404.109375" transform="rotate(-0 180.382041 404.109375)">−0.01</text>
     </g>
    </g>
    <g id="xtick_3">
     <g id="line2d_5">
      <path d="M 283.507957 381.9125 
L 283.507957 59.484 
" clip-path="url(#pefdf4d08db)" style="fill: none; stroke: #cccccc; stroke-opacity: 0.4; stroke-linecap: round"/>
     </g>
     <g id="line2d_6"/>
     <g id="text_3">
      <text style="font-size: 20px; font-family: 'DejaVu Serif', 'Times New Roman', serif; text-anchor: middle; fill: #262626" x="283.507957" y="404.109375" transform="rotate(-0 283.507957 404.109375)">0.00</text>
     </g>
    </g>
    <g id="xtick_4">
     <g id="line2d_7">
      <path d="M 386.633872 381.9125 
L 386.633872 59.484 
" clip-path="url(#pefdf4d08db)" style="fill: none; stroke: #cccccc; stroke-opacity: 0.4; stroke-linecap: round"/>
     </g>
     <g id="line2d_8"/>
     <g id="text_4">
      <text style="font-size: 20px; font-family: 'DejaVu Serif', 'Times New Roman', serif; text-anchor: middle; fill: #262626" x="386.633872" y="404.109375" transform="rotate(-0 386.633872 404.109375)">0.01</text>
     </g>
    </g>
    <g id="xtick_5">
     <g id="line2d_9">
      <path d="M 489.759788 381.9125 
L 489.759788 59.484 
" clip-path="url(#pefdf4d08db)" style="fill: none; stroke: #cccccc; stroke-opacity: 0.4; stroke-linecap: round"/>
     </g>
     <g id="line2d_10"/>
     <g id="text_5">
      <text style="font-size: 20px; font-family: 'DejaVu Serif', 'Times New Roman', serif; text-anchor: middle; fill: #262626" x="489.759788" y="404.109375" transform="rotate(-0 489.759788 404.109375)">0.02</text>
     </g>
    </g>
   </g>
   <g id="matplotlib.axis_2">
    <g id="ytick_1">
     <g id="line2d_11">
      <path d="M 23.76 369.359365 
L 552.24 369.359365 
" clip-path="url(#pefdf4d08db)" style="fill: none; stroke: #cccccc; stroke-opacity: 0.4; stroke-linecap: round"/>
     </g>
    </g>
    <g id="ytick_2">
     <g id="line2d_12">
      <path d="M 23.76 321.250002 
L 552.24 321.250002 
" clip-path="url(#pefdf4d08db)" style="fill: none; stroke: #cccccc; stroke-opacity: 0.4; stroke-linecap: round"/>
     </g>
    </g>
    <g id="ytick_3">
     <g id="line2d_13">
      <path d="M 23.76 273.140639 
L 552.24 273.140639 
" clip-path="url(#pefdf4d08db)" style="fill: none; stroke: #cccccc; stroke-opacity: 0.4; stroke-linecap: round"/>
     </g>
    </g>
    <g id="ytick_4">
     <g id="line2d_14">
      <path d="M 23.76 225.031277 
L 552.24 225.031277 
" clip-path="url(#pefdf4d08db)" style="fill: none; stroke: #cccccc; stroke-opacity: 0.4; stroke-linecap: round"/>
     </g>
    </g>
    <g id="ytick_5">
     <g id="line2d_15">
      <path d="M 23.76 176.921914 
L 552.24 176.921914 
" clip-path="url(#pefdf4d08db)" style="fill: none; stroke: #cccccc; stroke-opacity: 0.4; stroke-linecap: round"/>
     </g>
    </g>
    <g id="ytick_6">
     <g id="line2d_16">
      <path d="M 23.76 128.812551 
L 552.24 128.812551 
" clip-path="url(#pefdf4d08db)" style="fill: none; stroke: #cccccc; stroke-opacity: 0.4; stroke-linecap: round"/>
     </g>
    </g>
    <g id="ytick_7">
     <g id="line2d_17">
      <path d="M 23.76 80.703188 
L 552.24 80.703188 
" clip-path="url(#pefdf4d08db)" style="fill: none; stroke: #cccccc; stroke-opacity: 0.4; stroke-linecap: round"/>
     </g>
    </g>
   </g>
   <g id="line2d_18">
    <path d="M 47.781818 361.081307 
L 61.41156 360.965246 
L 69.078289 360.633499 
L 76.745019 359.977031 
L 83.55989 359.113414 
L 93.782196 357.410066 
L 98.04149 356.442119 
L 101.448926 355.446863 
L 104.856361 354.178899 
L 107.411938 353.021005 
L 109.967514 351.623734 
L 112.523091 350.019552 
L 115.078667 348.1313 
L 118.486103 345.220389 
L 121.041679 342.701549 
L 123.597256 339.952505 
L 126.152832 336.953762 
L 129.560268 332.480736 
L 132.967703 327.5844 
L 135.52328 323.605347 
L 139.782574 316.399949 
L 143.190009 310.200469 
L 148.301163 300.396572 
L 156.819751 284.143388 
L 159.375328 279.711286 
L 161.930904 275.641656 
L 164.486481 271.917644 
L 167.042057 268.606529 
L 169.597634 265.798989 
L 171.301352 264.109835 
L 173.856928 261.94509 
L 176.412505 260.031675 
L 178.968081 258.282698 
L 184.931093 254.505159 
L 187.48667 252.632309 
L 190.042246 250.454588 
L 192.597823 247.921647 
L 194.30154 245.967716 
L 196.857117 242.609216 
L 199.412694 238.797544 
L 201.96827 234.430433 
L 203.671988 231.20862 
L 207.079423 224.307831 
L 209.635 218.742785 
L 217.301729 201.256319 
L 220.709165 193.723946 
L 223.264741 188.325871 
L 225.820318 183.298687 
L 229.227753 177.163537 
L 231.78333 172.957642 
L 236.042624 166.702285 
L 241.153777 160.065296 
L 247.968648 151.48639 
L 253.079801 144.612741 
L 257.339095 138.499883 
L 262.450249 130.811579 
L 268.41326 121.81762 
L 271.820696 116.972228 
L 275.228131 112.476655 
L 277.783708 109.296502 
L 280.339284 106.344113 
L 282.894861 103.667073 
L 286.302296 100.464488 
L 288.857873 98.377776 
L 291.413449 96.517929 
L 293.969026 95.05112 
L 296.524603 93.906801 
L 298.22832 93.389147 
L 299.932038 93.066111 
L 301.635756 92.96428 
L 303.339473 93.12857 
L 304.191332 93.279743 
L 305.89505 93.927617 
L 307.598768 94.823755 
L 310.154344 96.881239 
L 311.858062 98.614483 
L 313.56178 100.714012 
L 315.265497 103.216712 
L 316.969215 106.069227 
L 318.672933 109.313239 
L 320.37665 112.908928 
L 322.080368 116.870852 
L 324.635945 123.367275 
L 327.191521 130.578393 
L 329.747098 138.358023 
L 332.302674 146.624426 
L 335.71011 158.335605 
L 341.673122 179.669719 
L 346.784275 197.859815 
L 350.19171 209.380824 
L 353.599146 220.030151 
L 356.154722 227.28483 
L 358.710299 233.784082 
L 360.414016 237.693961 
L 362.117734 241.240788 
L 364.673311 245.883324 
L 366.377028 248.603886 
L 368.080746 250.949029 
L 369.784464 253.004848 
L 371.488181 254.817098 
L 373.191899 256.367214 
L 375.747476 258.396586 
L 385.117923 265.134773 
L 387.6735 267.402089 
L 390.229076 270.013567 
L 392.784653 273.114903 
L 394.48837 275.391642 
L 397.895806 280.541136 
L 400.451382 284.703825 
L 404.710677 292.207391 
L 410.673689 302.801349 
L 414.081124 308.590658 
L 417.488559 313.957686 
L 420.895995 318.952843 
L 424.30343 323.496886 
L 428.562724 328.773811 
L 432.822019 333.668048 
L 437.933172 339.218918 
L 443.896184 345.209159 
L 448.155478 349.100465 
L 451.562913 351.894521 
L 454.970349 354.381924 
L 457.525925 356.029656 
L 460.081502 357.461469 
L 463.488937 359.086273 
L 466.896373 360.395309 
L 470.303808 361.375367 
L 473.711243 362.114504 
L 477.970538 362.736666 
L 480.526114 362.93923 
L 483.081691 363.007285 
L 483.081691 363.007285 
" clip-path="url(#pefdf4d08db)" style="fill: none; stroke: #7570b3; stroke-width: 0.875; stroke-linecap: round"/>
   </g>
   <g id="line2d_19">
    <path d="M 90.99907 344.974188 
L 96.988373 345.033221 
L 101.266446 345.046843 
L 108.111364 344.713767 
L 110.678208 344.399154 
L 113.245052 343.886088 
L 116.667511 342.937812 
L 119.234355 342.045804 
L 121.801199 340.924716 
L 125.223658 339.19794 
L 127.790502 337.736574 
L 132.068575 335.017472 
L 136.346649 331.929846 
L 139.769108 329.228953 
L 143.191566 326.337244 
L 146.614025 323.165363 
L 150.036484 319.625991 
L 153.458943 315.797958 
L 155.170172 313.731954 
L 159.448246 307.884897 
L 162.870705 302.665816 
L 165.437549 298.289734 
L 168.860007 291.986409 
L 173.138081 283.449832 
L 176.56054 276.126725 
L 188.539146 248.970191 
L 202.228981 216.822948 
L 207.362669 204.051717 
L 213.351972 188.490868 
L 223.619348 161.233328 
L 228.753036 148.654179 
L 232.175495 141.038299 
L 234.742339 135.764412 
L 237.309184 130.894578 
L 239.876028 126.513226 
L 242.442872 122.491207 
L 245.865331 117.787402 
L 248.432175 114.728121 
L 250.999019 111.875835 
L 254.421478 108.481817 
L 256.988322 106.233973 
L 261.266395 102.943654 
L 265.544469 99.99332 
L 269.822542 97.661776 
L 272.389386 96.529628 
L 274.100616 95.948423 
L 277.523074 95.209318 
L 280.089919 95.033991 
L 281.801148 95.103194 
L 283.512377 95.42148 
L 285.223607 96.029252 
L 286.934836 96.776377 
L 288.646066 97.802478 
L 290.357295 99.027767 
L 292.068524 100.549179 
L 293.779754 102.324765 
L 295.490983 104.315316 
L 298.057827 107.728757 
L 300.624671 111.691442 
L 303.191515 115.985 
L 316.025736 138.794261 
L 319.448195 144.197501 
L 322.015039 147.830469 
L 324.581883 151.166744 
L 328.004342 155.160164 
L 333.13803 160.438345 
L 337.416104 164.913308 
L 340.838562 168.958988 
L 343.405406 172.494434 
L 345.972251 176.439923 
L 348.539095 180.96836 
L 351.105939 186.044521 
L 353.672783 191.761078 
L 356.239627 198.016556 
L 359.662086 207.077957 
L 363.084545 216.812914 
L 377.629994 259.377602 
L 381.052453 268.297134 
L 383.619297 274.49584 
L 387.041756 282.09485 
L 390.464215 288.888217 
L 393.031059 293.516604 
L 396.453518 299.095252 
L 399.020362 303.029916 
L 403.298435 309.006745 
L 409.287738 316.771294 
L 420.41073 330.438012 
L 424.688803 335.325457 
L 428.111262 338.999844 
L 431.533721 342.39261 
L 434.956179 345.494469 
L 437.523024 347.605424 
L 440.945482 350.105919 
L 444.367941 352.322788 
L 447.7904 354.253997 
L 452.068473 356.342215 
L 456.346547 358.107039 
L 461.480235 359.944234 
L 465.758309 361.285015 
L 470.891997 362.683172 
L 476.025685 363.916869 
L 482.870603 365.228962 
L 488.859906 366.112446 
L 494.849208 366.768682 
L 500.838511 367.129307 
L 505.9722 367.253716 
L 512.817117 367.18443 
L 528.218182 366.874984 
L 528.218182 366.874984 
" clip-path="url(#pefdf4d08db)" style="fill: none; stroke-dasharray: 0.875,1.44375; stroke-dashoffset: 0; stroke: #7570b3; stroke-width: 0.875"/>
   </g>
   <g id="line2d_20">
    <path d="M 96.554262 356.508741 
L 107.135737 356.403949 
L 114.693934 355.946473 
L 119.228852 355.333434 
L 122.25213 354.738137 
L 125.275409 353.973071 
L 129.054507 352.790083 
L 132.833605 351.277656 
L 135.856884 349.728079 
L 138.124343 348.378585 
L 140.391802 346.785512 
L 143.41508 344.266191 
L 145.682539 342.043958 
L 147.949998 339.541974 
L 150.973277 335.70083 
L 153.996555 331.265773 
L 157.019834 326.294375 
L 160.043112 320.843632 
L 163.066391 314.899805 
L 166.845489 307.053981 
L 179.694423 279.843377 
L 182.717702 274.058994 
L 187.25262 266.068114 
L 191.031718 259.802897 
L 200.857373 244.188545 
L 206.148111 235.031155 
L 209.927209 227.918026 
L 213.706307 220.298438 
L 219.752865 207.268772 
L 225.043602 195.207571 
L 230.33434 182.548828 
L 234.869257 171.141574 
L 245.450733 144.177141 
L 249.229831 135.449265 
L 251.49729 130.669371 
L 253.764749 126.3977 
L 256.032208 122.606084 
L 258.299667 119.352312 
L 260.567125 116.602424 
L 262.078765 115.01506 
L 264.346224 113.115104 
L 267.369502 111.153268 
L 270.392781 109.758485 
L 277.950977 106.550616 
L 280.974256 104.776412 
L 283.997535 102.420539 
L 286.264993 100.228788 
L 289.288272 96.787887 
L 291.555731 93.987177 
L 301.381386 80.79126 
L 304.404665 77.640935 
L 305.916304 76.374189 
L 307.427944 75.37187 
L 308.939583 74.666014 
L 310.451222 74.240706 
L 311.962861 74.139841 
L 313.474501 74.388408 
L 314.98614 75.031978 
L 315.74196 75.422174 
L 318.009419 77.123362 
L 319.521058 78.667371 
L 321.032697 80.595815 
L 323.300156 83.918985 
L 325.567615 87.807365 
L 327.835074 92.365516 
L 330.102533 97.316994 
L 333.125812 104.711027 
L 336.14909 112.862121 
L 339.172369 121.632304 
L 342.951467 133.376795 
L 345.974746 143.281605 
L 350.509663 158.662734 
L 358.82368 187.59681 
L 364.114417 205.60051 
L 369.405155 222.459372 
L 374.695892 237.939074 
L 378.47499 248.160409 
L 381.498269 255.774933 
L 385.277367 264.482458 
L 389.056465 272.389697 
L 392.079744 278.153489 
L 395.858842 284.83119 
L 400.39376 292.165438 
L 404.172858 297.980279 
L 424.579989 328.542416 
L 429.114907 334.758429 
L 432.138185 338.54881 
L 435.161464 341.998241 
L 438.184742 345.116213 
L 440.452201 347.215953 
L 444.2313 350.326761 
L 447.254578 352.496904 
L 451.033676 354.890855 
L 454.812775 356.948027 
L 458.591873 358.747577 
L 462.370971 360.318503 
L 466.150069 361.600151 
L 469.929168 362.665227 
L 473.708266 363.440748 
L 476.731544 363.84842 
L 481.266462 364.16851 
L 482.778102 364.199082 
L 482.778102 364.199082 
" clip-path="url(#pefdf4d08db)" style="fill: none; stroke-dasharray: 3.2375,1.4; stroke-dashoffset: 0; stroke: #7570b3; stroke-width: 0.875"/>
   </g>
   <g id="line2d_21">
    <path d="M 111.996868 354.884522 
L 113.453433 354.814073 
L 114.909998 354.568008 
L 117.094845 353.961216 
L 119.279692 353.053528 
L 121.464539 351.836089 
L 123.649387 350.362836 
L 126.562517 348.079927 
L 129.475646 345.391845 
L 132.388776 342.371373 
L 138.215036 335.805006 
L 143.313013 329.996664 
L 147.682707 325.4113 
L 150.595837 322.700953 
L 154.237249 319.740923 
L 157.150379 317.673513 
L 162.976639 313.686265 
L 165.161486 312.000233 
L 168.074616 309.334809 
L 170.259463 306.895872 
L 171.716028 304.997128 
L 173.900875 301.824387 
L 175.35744 299.335877 
L 177.542287 295.12113 
L 179.727135 290.35021 
L 182.640264 283.197328 
L 185.553394 275.182167 
L 188.466524 266.491192 
L 192.107936 254.807966 
L 197.205913 237.299583 
L 200.847325 224.34372 
L 208.858432 194.729022 
L 214.684692 172.946949 
L 218.326104 159.731636 
L 221.967516 147.318268 
L 224.880646 138.207899 
L 227.065493 131.924007 
L 229.250341 126.204223 
L 231.435188 121.120172 
L 233.620035 116.736849 
L 235.804882 113.000911 
L 237.261447 110.844299 
L 238.718012 108.985766 
L 240.90286 106.748948 
L 242.359424 105.559766 
L 243.815989 104.661552 
L 245.272554 103.972869 
L 246.729119 103.42616 
L 249.642249 102.880415 
L 254.740226 102.887841 
L 262.02305 103.083839 
L 263.479615 102.954871 
L 267.121027 102.334646 
L 270.76244 101.251223 
L 272.947287 100.370447 
L 284.599806 94.303771 
L 289.697783 91.196958 
L 295.524043 87.136831 
L 298.437172 84.981659 
L 301.350302 82.893598 
L 304.263432 81.010029 
L 305.719997 80.245713 
L 307.904844 79.48798 
L 309.361409 79.357624 
L 310.817974 79.420712 
L 312.274539 79.902069 
L 313.731103 80.803969 
L 315.187668 82.110002 
L 316.644233 83.971629 
L 318.100798 86.321632 
L 319.557363 89.220028 
L 321.013928 92.65696 
L 322.470493 96.670901 
L 323.927058 101.198405 
L 325.383623 106.224237 
L 327.56847 114.690731 
L 329.753317 124.002392 
L 332.666447 137.45872 
L 342.862401 185.802061 
L 345.775531 197.912855 
L 347.960378 206.046565 
L 350.145225 213.390772 
L 352.330073 219.944298 
L 354.51492 225.838545 
L 356.699767 231.043779 
L 358.884615 235.790187 
L 361.797744 241.554261 
L 366.895722 251.069659 
L 371.993699 260.632333 
L 376.363393 269.44394 
L 385.831065 288.855179 
L 388.744195 294.317557 
L 391.657325 299.308972 
L 394.570454 303.762929 
L 397.483584 307.659067 
L 399.668431 310.223316 
L 402.581561 313.262816 
L 404.766408 315.298199 
L 407.679538 317.763788 
L 420.788622 328.345007 
L 430.984576 336.747761 
L 434.625988 339.376804 
L 438.267401 341.677703 
L 442.637095 344.086138 
L 457.931026 352.238871 
L 463.029004 355.169573 
L 468.126981 357.706645 
L 471.04011 358.918523 
L 473.95324 359.852124 
L 476.86637 360.604101 
L 480.507782 361.152602 
L 483.420912 361.360383 
L 484.149194 361.374566 
L 484.149194 361.374566 
" clip-path="url(#pefdf4d08db)" style="fill: none; stroke-dasharray: 5.6,1.4,0.875,1.4; stroke-dashoffset: 0; stroke: #7570b3; stroke-width: 0.875"/>
   </g>
   <g id="patch_3">
    <path d="M 23.76 381.9125 
L 552.24 381.9125 
" style="fill: none; stroke: #333333; stroke-width: 1.5; stroke-linejoin: miter; stroke-linecap: square"/>
   </g>
   <g id="text_6">
    <!-- $x_3^4$ -->
    <g style="fill: #262626" transform="translate(271.35 50.784)">
     <text>
      <tspan x="0" y="-0.203125" style="font-style: oblique; font-size: 30px; font-family: 'DejaVu Sans'; fill: #262626">x</tspan>
      <tspan x="17.753906" y="8" style="font-size: 21px; font-family: 'DejaVu Sans'; fill: #262626">3</tspan>
      <tspan x="19.09375" y="-11.6875" style="font-size: 21px; font-family: 'DejaVu Sans'; fill: #262626">4</tspan>
     </text>
    </g>
   </g>
  </g>
 </g>
 <defs>
  <clipPath id="pefdf4d08db">
   <rect x="23.76" y="59.484" width="528.48" height="322.4285"/>
  </clipPath>
 </defs>
</svg>
