<?xml version="1.0" encoding="utf-8" standalone="no"?>
<!DOCTYPE svg PUBLIC "-//W3C//DTD SVG 1.1//EN"
  "http://www.w3.org/Graphics/SVG/1.1/DTD/svg11.dtd">
<svg xmlns:xlink="http://www.w3.org/1999/xlink" width="576pt" height="432pt" viewBox="0 0 576 432" xmlns="http://www.w3.org/2000/svg" version="1.1">
 <metadata>
  <rdf:RDF xmlns:dc="http://purl.org/dc/elements/1.1/" xmlns:cc="http://creativecommons.org/ns#" xmlns:rdf="http://www.w3.org/1999/02/22-rdf-syntax-ns#">
   <cc:Work>
    <dc:type rdf:resource="http://purl.org/dc/dcmitype/StillImage"/>
    <dc:date>2025-09-22T23:00:34.425695</dc:date>
    <dc:format>image/svg+xml</dc:format>
    <dc:creator>
     <cc:Agent>
      <dc:title>Matplotlib v3.10.0, https://matplotlib.org/</dc:title>
     </cc:Agent>
    </dc:creator>
   </cc:Work>
  </rdf:RDF>
 </metadata>
 <defs>
  <style type="text/css">*{stroke-linejoin: round; stroke-linecap: butt}</style>
 </defs>
 <g id="figure_1">
  <g id="patch_1">
   <path d="M 0 432 
L 576 432 
L 576 0 
L 0 0 
L 0 432 
z
" style="fill: none; opacity: 0"/>
  </g>
  <g id="axes_1">
   <g id="patch_2">
    <path d="M 23.76 383.84 
L 552.24 383.84 
L 552.24 51.12 
L 23.76 51.12 
L 23.76 383.84 
z
" style="fill: none"/>
   </g>
   <g id="matplotlib.axis_1">
    <g id="xtick_1">
     <g id="line2d_1">
      <path d="M 100.080875 383.84 
L 100.080875 51.12 
" clip-path="url(#pd57dcfa82e)" style="fill: none; stroke: #ffffff; stroke-opacity: 0.4; stroke-linecap: round"/>
     </g>
     <g id="line2d_2"/>
     <g id="text_1">
      <text style="font-size: 18px; font-family: 'DejaVu Serif', 'Times New Roman', serif; text-anchor: middle; fill: #262626" x="100.080875" y="404.517187" transform="rotate(-0 100.080875 404.517187)">0.635</text>
     </g>
    </g>
    <g id="xtick_2">
     <g id="line2d_3">
      <path d="M 191.990703 383.84 
L 191.990703 51.12 
" clip-path="url(#pd57dcfa82e)" style="fill: none; stroke: #ffffff; stroke-opacity: 0.4; stroke-linecap: round"/>
     </g>
     <g id="line2d_4"/>
     <g id="text_2">
      <text style="font-size: 18px; font-family: 'DejaVu Serif', 'Times New Roman', serif; text-anchor: middle; fill: #262626" x="191.990703" y="404.517187" transform="rotate(-0 191.990703 404.517187)">0.640</text>
     </g>
    </g>
    <g id="xtick_3">
     <g id="line2d_5">
      <path d="M 283.90053 383.84 
L 283.90053 51.12 
" clip-path="url(#pd57dcfa82e)" style="fill: none; stroke: #ffffff; stroke-opacity: 0.4; stroke-linecap: round"/>
     </g>
     <g id="line2d_6"/>
     <g id="text_3">
      <text style="font-size: 18px; font-family: 'DejaVu Serif', 'Times New Roman', serif; text-anchor: middle; fill: #262626" x="283.90053" y="404.517187" transform="rotate(-0 283.90053 404.517187)">0.645</text>
     </g>
    </g>
    <g id="xtick_4">
     <g id="line2d_7">
      <path d="M 375.810358 383.84 
L 375.810358 51.12 
" clip-path="url(#pd57dcfa82e)" style="fill: none; stroke: #ffffff; stroke-opacity: 0.4; stroke-linecap: round"/>
     </g>
     <g id="line2d_8"/>
     <g id="text_4">
      <text style="font-size: 18px; font-family: 'DejaVu Serif', 'Times New Roman', serif; text-anchor: middle; fill: #262626" x="375.810358" y="404.517187" transform="rotate(-0 375.810358 404.517187)">0.650</text>
     </g>
    </g>
    <g id="xtick_5">
     <g id="line2d_9">
      <path d="M 467.720185 383.84 
L 467.720185 51.12 
" clip-path="url(#pd57dcfa82e)" style="fill: none; stroke: #ffffff; stroke-opacity: 0.4; stroke-linecap: round"/>
     </g>
     <g id="line2d_10"/>
     <g id="text_5">
      <text style="font-size: 18px; font-family: 'DejaVu Serif', 'Times New Roman', serif; text-anchor: middle; fill: #262626" x="467.720185" y="404.517187" transform="rotate(-0 467.720185 404.517187)">0.655</text>
     </g>
    </g>
   </g>
   <g id="matplotlib.axis_2"/>
   <g id="FillBetweenPolyCollection_1">
    <defs>
     <path id="me17a1c3d5a" d="M 47.781818 -64.456911 
L 47.781818 -156.966179 
L 48.722007 -156.985586 
L 49.662195 -157.029839 
L 50.602384 -157.118387 
L 51.542572 -157.213725 
L 52.482761 -157.351854 
L 53.42295 -157.531768 
L 54.363138 -157.731112 
L 55.303327 -157.967271 
L 56.243515 -158.229684 
L 57.183704 -158.501341 
L 58.123893 -158.850035 
L 59.064081 -159.197536 
L 60.00427 -159.555823 
L 60.944458 -159.978621 
L 61.884647 -160.426724 
L 62.824835 -160.87472 
L 63.765024 -161.338814 
L 64.705213 -161.86029 
L 65.645401 -162.376044 
L 66.58559 -162.92483 
L 67.525778 -163.51004 
L 68.465967 -164.124827 
L 69.406155 -164.754796 
L 70.346344 -165.393901 
L 71.286533 -166.055864 
L 72.226721 -166.749553 
L 73.16691 -167.468036 
L 74.107098 -168.21843 
L 75.047287 -168.964326 
L 75.987476 -169.747711 
L 76.927664 -170.532666 
L 77.867853 -171.360511 
L 78.808041 -172.186535 
L 79.74823 -173.034086 
L 80.688418 -173.902581 
L 81.628607 -174.793418 
L 82.568796 -175.712514 
L 83.508984 -176.633246 
L 84.449173 -177.56871 
L 85.389361 -178.512032 
L 86.32955 -179.470242 
L 87.269738 -180.445508 
L 88.209927 -181.442808 
L 89.150116 -182.452138 
L 90.090304 -183.462643 
L 91.030493 -184.475643 
L 91.970681 -185.500796 
L 92.91087 -186.552634 
L 93.851059 -187.600718 
L 94.791247 -188.663474 
L 95.731436 -189.713114 
L 96.671624 -190.803893 
L 97.611813 -191.871037 
L 98.552001 -192.940417 
L 99.49219 -194.011515 
L 100.432379 -195.110518 
L 101.372567 -196.208763 
L 102.312756 -197.308721 
L 103.252944 -198.402462 
L 104.193133 -199.499558 
L 105.133321 -200.599644 
L 106.07351 -201.67926 
L 107.013699 -202.778579 
L 107.953887 -203.886089 
L 108.894076 -204.966455 
L 109.834264 -206.072745 
L 110.774453 -207.153805 
L 111.714642 -208.267729 
L 112.65483 -209.340082 
L 113.595019 -210.427357 
L 114.535207 -211.478111 
L 115.475396 -212.536865 
L 116.415584 -213.607203 
L 117.355773 -214.656118 
L 118.295962 -215.685669 
L 119.23615 -216.719851 
L 120.176339 -217.738107 
L 121.116527 -218.760993 
L 122.056716 -219.76896 
L 122.996904 -220.744351 
L 123.937093 -221.760029 
L 124.877282 -222.731685 
L 125.81747 -223.718294 
L 126.757659 -224.69022 
L 127.697847 -225.672121 
L 128.638036 -226.623788 
L 129.578225 -227.596222 
L 130.518413 -228.535362 
L 131.458602 -229.455157 
L 132.39879 -230.369827 
L 133.338979 -231.299174 
L 134.279167 -232.224223 
L 135.219356 -233.145156 
L 136.159545 -234.0766 
L 137.099733 -235.024666 
L 138.039922 -235.931693 
L 138.98011 -236.862584 
L 139.920299 -237.76713 
L 140.860487 -238.659509 
L 141.800676 -239.588523 
L 142.740865 -240.492281 
L 143.681053 -241.422052 
L 144.621242 -242.35236 
L 145.56143 -243.279988 
L 146.501619 -244.212015 
L 147.441808 -245.122377 
L 148.381996 -246.045329 
L 149.322185 -246.981235 
L 150.262373 -247.926082 
L 151.202562 -248.873506 
L 152.14275 -249.855864 
L 153.082939 -250.840279 
L 154.023128 -251.838099 
L 154.963316 -252.84266 
L 155.903505 -253.864404 
L 156.843693 -254.879026 
L 157.783882 -255.906706 
L 158.72407 -256.969281 
L 159.664259 -258.001663 
L 160.604448 -259.051253 
L 161.544636 -260.123212 
L 162.484825 -261.231932 
L 163.425013 -262.350916 
L 164.365202 -263.475471 
L 165.30539 -264.607552 
L 166.245579 -265.723082 
L 167.185768 -266.849107 
L 168.125956 -268.017882 
L 169.066145 -269.199231 
L 170.006333 -270.353641 
L 170.946522 -271.543322 
L 171.886711 -272.740556 
L 172.826899 -273.927945 
L 173.767088 -275.132563 
L 174.707276 -276.347602 
L 175.647465 -277.555016 
L 176.587653 -278.767712 
L 177.527842 -279.993694 
L 178.468031 -281.245072 
L 179.408219 -282.470329 
L 180.348408 -283.698196 
L 181.288596 -284.946743 
L 182.228785 -286.185081 
L 183.168973 -287.394503 
L 184.109162 -288.627862 
L 185.049351 -289.84925 
L 185.989539 -291.070618 
L 186.929728 -292.281279 
L 187.869916 -293.47009 
L 188.810105 -294.657608 
L 189.750294 -295.823524 
L 190.690482 -296.998976 
L 191.630671 -298.151379 
L 192.570859 -299.300454 
L 193.511048 -300.427719 
L 194.451236 -301.533778 
L 195.391425 -302.590965 
L 196.331614 -303.659547 
L 197.271802 -304.706016 
L 198.211991 -305.734042 
L 199.152179 -306.736154 
L 200.092368 -307.732052 
L 201.032556 -308.690153 
L 201.972745 -309.650258 
L 202.912934 -310.581062 
L 203.853122 -311.468021 
L 204.793311 -312.356839 
L 205.733499 -313.204092 
L 206.673688 -314.028822 
L 207.613877 -314.869436 
L 208.554065 -315.643109 
L 209.494254 -316.406179 
L 210.434442 -317.174043 
L 211.374631 -317.905166 
L 212.314819 -318.609011 
L 213.255008 -319.353616 
L 214.195197 -320.04045 
L 215.135385 -320.703981 
L 216.075574 -321.382252 
L 217.015762 -322.038225 
L 217.955951 -322.685278 
L 218.896139 -323.294468 
L 219.836328 -323.895566 
L 220.776517 -324.479336 
L 221.716705 -325.035214 
L 222.656894 -325.587191 
L 223.597082 -326.145487 
L 224.537271 -326.685706 
L 225.47746 -327.254644 
L 226.417648 -327.794897 
L 227.357837 -328.331878 
L 228.298025 -328.857426 
L 229.238214 -329.38913 
L 230.178402 -329.924259 
L 231.118591 -330.460922 
L 232.05878 -331.009934 
L 232.998968 -331.531054 
L 233.939157 -332.083094 
L 234.879345 -332.626073 
L 235.819534 -333.184079 
L 236.759722 -333.744968 
L 237.699911 -334.312006 
L 238.6401 -334.877995 
L 239.580288 -335.454431 
L 240.520477 -336.055552 
L 241.460665 -336.67774 
L 242.400854 -337.28353 
L 243.341043 -337.876641 
L 244.281231 -338.50563 
L 245.22142 -339.125375 
L 246.161608 -339.757946 
L 247.101797 -340.376777 
L 248.041985 -341.02605 
L 248.982174 -341.698629 
L 249.922363 -342.371187 
L 250.862551 -343.03659 
L 251.80274 -343.70742 
L 252.742928 -344.382611 
L 253.683117 -345.07143 
L 254.623305 -345.76368 
L 255.563494 -346.470323 
L 256.503683 -347.166794 
L 257.443871 -347.854646 
L 258.38406 -348.540115 
L 259.324248 -349.238087 
L 260.264437 -349.913289 
L 261.204626 -350.606097 
L 262.144814 -351.255271 
L 263.085003 -351.926796 
L 264.025191 -352.59596 
L 264.96538 -353.268447 
L 265.905568 -353.904898 
L 266.845757 -354.539194 
L 267.785946 -355.183281 
L 268.726134 -355.811001 
L 269.666323 -356.414605 
L 270.606511 -357.0102 
L 271.5467 -357.576867 
L 272.486888 -358.141915 
L 273.427077 -358.703634 
L 274.367266 -359.205117 
L 275.307454 -359.701883 
L 276.247643 -360.206175 
L 277.187831 -360.675657 
L 278.12802 -361.126889 
L 279.068209 -361.555314 
L 280.008397 -361.956422 
L 280.948586 -362.357306 
L 281.888774 -362.739818 
L 282.828963 -363.103964 
L 283.769151 -363.425485 
L 284.70934 -363.718321 
L 285.649529 -363.999172 
L 286.589717 -364.220223 
L 287.529906 -364.423606 
L 288.470094 -364.635906 
L 289.410283 -364.816698 
L 290.350471 -364.997008 
L 291.29066 -365.148592 
L 292.230849 -365.276853 
L 293.171037 -365.405905 
L 294.111226 -365.481033 
L 295.051414 -365.569077 
L 295.991603 -365.644599 
L 296.931791 -365.686533 
L 297.87198 -365.728359 
L 298.812169 -365.743078 
L 299.752357 -365.756364 
L 300.692546 -365.734455 
L 301.632734 -365.711634 
L 302.572923 -365.639321 
L 303.513112 -365.554613 
L 304.4533 -365.461873 
L 305.393489 -365.361455 
L 306.333677 -365.272165 
L 307.273866 -365.166613 
L 308.214054 -365.046797 
L 309.154243 -364.911994 
L 310.094432 -364.828012 
L 311.03462 -364.678299 
L 311.974809 -364.516512 
L 312.914997 -364.338001 
L 313.855186 -364.164687 
L 314.795374 -363.999324 
L 315.735563 -363.816404 
L 316.675752 -363.634164 
L 317.61594 -363.445417 
L 318.556129 -363.222314 
L 319.496317 -363.010467 
L 320.436506 -362.814794 
L 321.376695 -362.596566 
L 322.316883 -362.362849 
L 323.257072 -362.140542 
L 324.19726 -361.885683 
L 325.137449 -361.64351 
L 326.077637 -361.375943 
L 327.017826 -361.101768 
L 327.958015 -360.820681 
L 328.898203 -360.52369 
L 329.838392 -360.231235 
L 330.77858 -359.913913 
L 331.718769 -359.548244 
L 332.658957 -359.198546 
L 333.599146 -358.850371 
L 334.539335 -358.472701 
L 335.479523 -358.085033 
L 336.419712 -357.694171 
L 337.3599 -357.26591 
L 338.300089 -356.839197 
L 339.240278 -356.420928 
L 340.180466 -355.961234 
L 341.120655 -355.469774 
L 342.060843 -354.983165 
L 343.001032 -354.468055 
L 343.94122 -353.954414 
L 344.881409 -353.423673 
L 345.821598 -352.89207 
L 346.761786 -352.318975 
L 347.701975 -351.740243 
L 348.642163 -351.129095 
L 349.582352 -350.50803 
L 350.52254 -349.874582 
L 351.462729 -349.231902 
L 352.402918 -348.555671 
L 353.343106 -347.876536 
L 354.283295 -347.193738 
L 355.223483 -346.471662 
L 356.163672 -345.755064 
L 357.103861 -345.026213 
L 358.044049 -344.249583 
L 358.984238 -343.472239 
L 359.924426 -342.685046 
L 360.864615 -341.88231 
L 361.804803 -341.034373 
L 362.744992 -340.184641 
L 363.685181 -339.312144 
L 364.625369 -338.451244 
L 365.565558 -337.573039 
L 366.505746 -336.671482 
L 367.445935 -335.763977 
L 368.386123 -334.817318 
L 369.326312 -333.87737 
L 370.266501 -332.925555 
L 371.206689 -331.962193 
L 372.146878 -331.017576 
L 373.087066 -330.030543 
L 374.027255 -329.019946 
L 374.967444 -328.008095 
L 375.907632 -326.981819 
L 376.847821 -325.958682 
L 377.788009 -324.922074 
L 378.728198 -323.87614 
L 379.668386 -322.824627 
L 380.608575 -321.747361 
L 381.548764 -320.665117 
L 382.488952 -319.568375 
L 383.429141 -318.491058 
L 384.369329 -317.390823 
L 385.309518 -316.281386 
L 386.249706 -315.148015 
L 387.189895 -314.011794 
L 388.130084 -312.883458 
L 389.070272 -311.763954 
L 390.010461 -310.62046 
L 390.950649 -309.470617 
L 391.890838 -308.312076 
L 392.831027 -307.161114 
L 393.771215 -306.016964 
L 394.711404 -304.868743 
L 395.651592 -303.723402 
L 396.591781 -302.583497 
L 397.531969 -301.42894 
L 398.472158 -300.263 
L 399.412347 -299.09087 
L 400.352535 -297.934824 
L 401.292724 -296.784877 
L 402.232912 -295.640646 
L 403.173101 -294.491798 
L 404.113289 -293.341884 
L 405.053478 -292.195634 
L 405.993667 -291.040986 
L 406.933855 -289.904762 
L 407.874044 -288.786367 
L 408.814232 -287.651401 
L 409.754421 -286.533069 
L 410.69461 -285.436028 
L 411.634798 -284.331171 
L 412.574987 -283.24184 
L 413.515175 -282.153922 
L 414.455364 -281.051283 
L 415.395552 -279.957394 
L 416.335741 -278.88853 
L 417.27593 -277.807705 
L 418.216118 -276.728396 
L 419.156307 -275.664 
L 420.096495 -274.611249 
L 421.036684 -273.563755 
L 421.976872 -272.514274 
L 422.917061 -271.463075 
L 423.85725 -270.427932 
L 424.797438 -269.384333 
L 425.737627 -268.370641 
L 426.677815 -267.316638 
L 427.618004 -266.291359 
L 428.558192 -265.249815 
L 429.498381 -264.235045 
L 430.43857 -263.208916 
L 431.378758 -262.192308 
L 432.318947 -261.171834 
L 433.259135 -260.150387 
L 434.199324 -259.147192 
L 435.139513 -258.141387 
L 436.079701 -257.132456 
L 437.01989 -256.139386 
L 437.960078 -255.142321 
L 438.900267 -254.14258 
L 439.840455 -253.141039 
L 440.780644 -252.134545 
L 441.720833 -251.132218 
L 442.661021 -250.113737 
L 443.60121 -249.113745 
L 444.541398 -248.117941 
L 445.481587 -247.096161 
L 446.421775 -246.087487 
L 447.361964 -245.090695 
L 448.302153 -244.091565 
L 449.242341 -243.10385 
L 450.18253 -242.087121 
L 451.122718 -241.108381 
L 452.062907 -240.10333 
L 453.003096 -239.137169 
L 453.943284 -238.172481 
L 454.883473 -237.207051 
L 455.823661 -236.241383 
L 456.76385 -235.245994 
L 457.704038 -234.27798 
L 458.644227 -233.30562 
L 459.584416 -232.333538 
L 460.524604 -231.347588 
L 461.464793 -230.400696 
L 462.404981 -229.463898 
L 463.34517 -228.5144 
L 464.285358 -227.566294 
L 465.225547 -226.630825 
L 466.165736 -225.703642 
L 467.105924 -224.78678 
L 468.046113 -223.87083 
L 468.986301 -222.963902 
L 469.92649 -222.053334 
L 470.866679 -221.149456 
L 471.806867 -220.251352 
L 472.747056 -219.354482 
L 473.687244 -218.462696 
L 474.627433 -217.583008 
L 475.567621 -216.688552 
L 476.50781 -215.822866 
L 477.447999 -214.961466 
L 478.388187 -214.097464 
L 479.328376 -213.231083 
L 480.268564 -212.369246 
L 481.208753 -211.531213 
L 482.148941 -210.698963 
L 483.08913 -209.862143 
L 484.029319 -209.018356 
L 484.969507 -208.20181 
L 485.909696 -207.38191 
L 486.849884 -206.551977 
L 487.790073 -205.749118 
L 488.730262 -204.946066 
L 489.67045 -204.120403 
L 490.610639 -203.309262 
L 491.550827 -202.511146 
L 492.491016 -201.716848 
L 493.431204 -200.913595 
L 494.371393 -200.121608 
L 495.311582 -199.341707 
L 496.25177 -198.56488 
L 497.191959 -197.805271 
L 498.132147 -197.040917 
L 499.072336 -196.288819 
L 500.012524 -195.530458 
L 500.952713 -194.791683 
L 501.892902 -194.060547 
L 502.83309 -193.347007 
L 503.773279 -192.642033 
L 504.713467 -191.943379 
L 505.653656 -191.251935 
L 506.593845 -190.586137 
L 507.534033 -189.930635 
L 508.474222 -189.306747 
L 509.41441 -188.694003 
L 510.354599 -188.098597 
L 511.294787 -187.508422 
L 512.234976 -186.979088 
L 513.175165 -186.450445 
L 514.115353 -185.94923 
L 515.055542 -185.463811 
L 515.99573 -185.000274 
L 516.935919 -184.569479 
L 517.876107 -184.165981 
L 518.816296 -183.797033 
L 519.756485 -183.476715 
L 520.696673 -183.168589 
L 521.636862 -182.886222 
L 522.57705 -182.613534 
L 523.517239 -182.398388 
L 524.457428 -182.21866 
L 525.397616 -182.06979 
L 526.337805 -181.941409 
L 527.277993 -181.847283 
L 528.218182 -181.784327 
L 528.218182 -64.456911 
L 528.218182 -64.456911 
L 527.277993 -64.456911 
L 526.337805 -64.456911 
L 525.397616 -64.456911 
L 524.457428 -64.456911 
L 523.517239 -64.456911 
L 522.57705 -64.456911 
L 521.636862 -64.456911 
L 520.696673 -64.456911 
L 519.756485 -64.456911 
L 518.816296 -64.456911 
L 517.876107 -64.456911 
L 516.935919 -64.456911 
L 515.99573 -64.456911 
L 515.055542 -64.456911 
L 514.115353 -64.456911 
L 513.175165 -64.456911 
L 512.234976 -64.456911 
L 511.294787 -64.456911 
L 510.354599 -64.456911 
L 509.41441 -64.456911 
L 508.474222 -64.456911 
L 507.534033 -64.456911 
L 506.593845 -64.456911 
L 505.653656 -64.456911 
L 504.713467 -64.456911 
L 503.773279 -64.456911 
L 502.83309 -64.456911 
L 501.892902 -64.456911 
L 500.952713 -64.456911 
L 500.012524 -64.456911 
L 499.072336 -64.456911 
L 498.132147 -64.456911 
L 497.191959 -64.456911 
L 496.25177 -64.456911 
L 495.311582 -64.456911 
L 494.371393 -64.456911 
L 493.431204 -64.456911 
L 492.491016 -64.456911 
L 491.550827 -64.456911 
L 490.610639 -64.456911 
L 489.67045 -64.456911 
L 488.730262 -64.456911 
L 487.790073 -64.456911 
L 486.849884 -64.456911 
L 485.909696 -64.456911 
L 484.969507 -64.456911 
L 484.029319 -64.456911 
L 483.08913 -64.456911 
L 482.148941 -64.456911 
L 481.208753 -64.456911 
L 480.268564 -64.456911 
L 479.328376 -64.456911 
L 478.388187 -64.456911 
L 477.447999 -64.456911 
L 476.50781 -64.456911 
L 475.567621 -64.456911 
L 474.627433 -64.456911 
L 473.687244 -64.456911 
L 472.747056 -64.456911 
L 471.806867 -64.456911 
L 470.866679 -64.456911 
L 469.92649 -64.456911 
L 468.986301 -64.456911 
L 468.046113 -64.456911 
L 467.105924 -64.456911 
L 466.165736 -64.456911 
L 465.225547 -64.456911 
L 464.285358 -64.456911 
L 463.34517 -64.456911 
L 462.404981 -64.456911 
L 461.464793 -64.456911 
L 460.524604 -64.456911 
L 459.584416 -64.456911 
L 458.644227 -64.456911 
L 457.704038 -64.456911 
L 456.76385 -64.456911 
L 455.823661 -64.456911 
L 454.883473 -64.456911 
L 453.943284 -64.456911 
L 453.003096 -64.456911 
L 452.062907 -64.456911 
L 451.122718 -64.456911 
L 450.18253 -64.456911 
L 449.242341 -64.456911 
L 448.302153 -64.456911 
L 447.361964 -64.456911 
L 446.421775 -64.456911 
L 445.481587 -64.456911 
L 444.541398 -64.456911 
L 443.60121 -64.456911 
L 442.661021 -64.456911 
L 441.720833 -64.456911 
L 440.780644 -64.456911 
L 439.840455 -64.456911 
L 438.900267 -64.456911 
L 437.960078 -64.456911 
L 437.01989 -64.456911 
L 436.079701 -64.456911 
L 435.139513 -64.456911 
L 434.199324 -64.456911 
L 433.259135 -64.456911 
L 432.318947 -64.456911 
L 431.378758 -64.456911 
L 430.43857 -64.456911 
L 429.498381 -64.456911 
L 428.558192 -64.456911 
L 427.618004 -64.456911 
L 426.677815 -64.456911 
L 425.737627 -64.456911 
L 424.797438 -64.456911 
L 423.85725 -64.456911 
L 422.917061 -64.456911 
L 421.976872 -64.456911 
L 421.036684 -64.456911 
L 420.096495 -64.456911 
L 419.156307 -64.456911 
L 418.216118 -64.456911 
L 417.27593 -64.456911 
L 416.335741 -64.456911 
L 415.395552 -64.456911 
L 414.455364 -64.456911 
L 413.515175 -64.456911 
L 412.574987 -64.456911 
L 411.634798 -64.456911 
L 410.69461 -64.456911 
L 409.754421 -64.456911 
L 408.814232 -64.456911 
L 407.874044 -64.456911 
L 406.933855 -64.456911 
L 405.993667 -64.456911 
L 405.053478 -64.456911 
L 404.113289 -64.456911 
L 403.173101 -64.456911 
L 402.232912 -64.456911 
L 401.292724 -64.456911 
L 400.352535 -64.456911 
L 399.412347 -64.456911 
L 398.472158 -64.456911 
L 397.531969 -64.456911 
L 396.591781 -64.456911 
L 395.651592 -64.456911 
L 394.711404 -64.456911 
L 393.771215 -64.456911 
L 392.831027 -64.456911 
L 391.890838 -64.456911 
L 390.950649 -64.456911 
L 390.010461 -64.456911 
L 389.070272 -64.456911 
L 388.130084 -64.456911 
L 387.189895 -64.456911 
L 386.249706 -64.456911 
L 385.309518 -64.456911 
L 384.369329 -64.456911 
L 383.429141 -64.456911 
L 382.488952 -64.456911 
L 381.548764 -64.456911 
L 380.608575 -64.456911 
L 379.668386 -64.456911 
L 378.728198 -64.456911 
L 377.788009 -64.456911 
L 376.847821 -64.456911 
L 375.907632 -64.456911 
L 374.967444 -64.456911 
L 374.027255 -64.456911 
L 373.087066 -64.456911 
L 372.146878 -64.456911 
L 371.206689 -64.456911 
L 370.266501 -64.456911 
L 369.326312 -64.456911 
L 368.386123 -64.456911 
L 367.445935 -64.456911 
L 366.505746 -64.456911 
L 365.565558 -64.456911 
L 364.625369 -64.456911 
L 363.685181 -64.456911 
L 362.744992 -64.456911 
L 361.804803 -64.456911 
L 360.864615 -64.456911 
L 359.924426 -64.456911 
L 358.984238 -64.456911 
L 358.044049 -64.456911 
L 357.103861 -64.456911 
L 356.163672 -64.456911 
L 355.223483 -64.456911 
L 354.283295 -64.456911 
L 353.343106 -64.456911 
L 352.402918 -64.456911 
L 351.462729 -64.456911 
L 350.52254 -64.456911 
L 349.582352 -64.456911 
L 348.642163 -64.456911 
L 347.701975 -64.456911 
L 346.761786 -64.456911 
L 345.821598 -64.456911 
L 344.881409 -64.456911 
L 343.94122 -64.456911 
L 343.001032 -64.456911 
L 342.060843 -64.456911 
L 341.120655 -64.456911 
L 340.180466 -64.456911 
L 339.240278 -64.456911 
L 338.300089 -64.456911 
L 337.3599 -64.456911 
L 336.419712 -64.456911 
L 335.479523 -64.456911 
L 334.539335 -64.456911 
L 333.599146 -64.456911 
L 332.658957 -64.456911 
L 331.718769 -64.456911 
L 330.77858 -64.456911 
L 329.838392 -64.456911 
L 328.898203 -64.456911 
L 327.958015 -64.456911 
L 327.017826 -64.456911 
L 326.077637 -64.456911 
L 325.137449 -64.456911 
L 324.19726 -64.456911 
L 323.257072 -64.456911 
L 322.316883 -64.456911 
L 321.376695 -64.456911 
L 320.436506 -64.456911 
L 319.496317 -64.456911 
L 318.556129 -64.456911 
L 317.61594 -64.456911 
L 316.675752 -64.456911 
L 315.735563 -64.456911 
L 314.795374 -64.456911 
L 313.855186 -64.456911 
L 312.914997 -64.456911 
L 311.974809 -64.456911 
L 311.03462 -64.456911 
L 310.094432 -64.456911 
L 309.154243 -64.456911 
L 308.214054 -64.456911 
L 307.273866 -64.456911 
L 306.333677 -64.456911 
L 305.393489 -64.456911 
L 304.4533 -64.456911 
L 303.513112 -64.456911 
L 302.572923 -64.456911 
L 301.632734 -64.456911 
L 300.692546 -64.456911 
L 299.752357 -64.456911 
L 298.812169 -64.456911 
L 297.87198 -64.456911 
L 296.931791 -64.456911 
L 295.991603 -64.456911 
L 295.051414 -64.456911 
L 294.111226 -64.456911 
L 293.171037 -64.456911 
L 292.230849 -64.456911 
L 291.29066 -64.456911 
L 290.350471 -64.456911 
L 289.410283 -64.456911 
L 288.470094 -64.456911 
L 287.529906 -64.456911 
L 286.589717 -64.456911 
L 285.649529 -64.456911 
L 284.70934 -64.456911 
L 283.769151 -64.456911 
L 282.828963 -64.456911 
L 281.888774 -64.456911 
L 280.948586 -64.456911 
L 280.008397 -64.456911 
L 279.068209 -64.456911 
L 278.12802 -64.456911 
L 277.187831 -64.456911 
L 276.247643 -64.456911 
L 275.307454 -64.456911 
L 274.367266 -64.456911 
L 273.427077 -64.456911 
L 272.486888 -64.456911 
L 271.5467 -64.456911 
L 270.606511 -64.456911 
L 269.666323 -64.456911 
L 268.726134 -64.456911 
L 267.785946 -64.456911 
L 266.845757 -64.456911 
L 265.905568 -64.456911 
L 264.96538 -64.456911 
L 264.025191 -64.456911 
L 263.085003 -64.456911 
L 262.144814 -64.456911 
L 261.204626 -64.456911 
L 260.264437 -64.456911 
L 259.324248 -64.456911 
L 258.38406 -64.456911 
L 257.443871 -64.456911 
L 256.503683 -64.456911 
L 255.563494 -64.456911 
L 254.623305 -64.456911 
L 253.683117 -64.456911 
L 252.742928 -64.456911 
L 251.80274 -64.456911 
L 250.862551 -64.456911 
L 249.922363 -64.456911 
L 248.982174 -64.456911 
L 248.041985 -64.456911 
L 247.101797 -64.456911 
L 246.161608 -64.456911 
L 245.22142 -64.456911 
L 244.281231 -64.456911 
L 243.341043 -64.456911 
L 242.400854 -64.456911 
L 241.460665 -64.456911 
L 240.520477 -64.456911 
L 239.580288 -64.456911 
L 238.6401 -64.456911 
L 237.699911 -64.456911 
L 236.759722 -64.456911 
L 235.819534 -64.456911 
L 234.879345 -64.456911 
L 233.939157 -64.456911 
L 232.998968 -64.456911 
L 232.05878 -64.456911 
L 231.118591 -64.456911 
L 230.178402 -64.456911 
L 229.238214 -64.456911 
L 228.298025 -64.456911 
L 227.357837 -64.456911 
L 226.417648 -64.456911 
L 225.47746 -64.456911 
L 224.537271 -64.456911 
L 223.597082 -64.456911 
L 222.656894 -64.456911 
L 221.716705 -64.456911 
L 220.776517 -64.456911 
L 219.836328 -64.456911 
L 218.896139 -64.456911 
L 217.955951 -64.456911 
L 217.015762 -64.456911 
L 216.075574 -64.456911 
L 215.135385 -64.456911 
L 214.195197 -64.456911 
L 213.255008 -64.456911 
L 212.314819 -64.456911 
L 211.374631 -64.456911 
L 210.434442 -64.456911 
L 209.494254 -64.456911 
L 208.554065 -64.456911 
L 207.613877 -64.456911 
L 206.673688 -64.456911 
L 205.733499 -64.456911 
L 204.793311 -64.456911 
L 203.853122 -64.456911 
L 202.912934 -64.456911 
L 201.972745 -64.456911 
L 201.032556 -64.456911 
L 200.092368 -64.456911 
L 199.152179 -64.456911 
L 198.211991 -64.456911 
L 197.271802 -64.456911 
L 196.331614 -64.456911 
L 195.391425 -64.456911 
L 194.451236 -64.456911 
L 193.511048 -64.456911 
L 192.570859 -64.456911 
L 191.630671 -64.456911 
L 190.690482 -64.456911 
L 189.750294 -64.456911 
L 188.810105 -64.456911 
L 187.869916 -64.456911 
L 186.929728 -64.456911 
L 185.989539 -64.456911 
L 185.049351 -64.456911 
L 184.109162 -64.456911 
L 183.168973 -64.456911 
L 182.228785 -64.456911 
L 181.288596 -64.456911 
L 180.348408 -64.456911 
L 179.408219 -64.456911 
L 178.468031 -64.456911 
L 177.527842 -64.456911 
L 176.587653 -64.456911 
L 175.647465 -64.456911 
L 174.707276 -64.456911 
L 173.767088 -64.456911 
L 172.826899 -64.456911 
L 171.886711 -64.456911 
L 170.946522 -64.456911 
L 170.006333 -64.456911 
L 169.066145 -64.456911 
L 168.125956 -64.456911 
L 167.185768 -64.456911 
L 166.245579 -64.456911 
L 165.30539 -64.456911 
L 164.365202 -64.456911 
L 163.425013 -64.456911 
L 162.484825 -64.456911 
L 161.544636 -64.456911 
L 160.604448 -64.456911 
L 159.664259 -64.456911 
L 158.72407 -64.456911 
L 157.783882 -64.456911 
L 156.843693 -64.456911 
L 155.903505 -64.456911 
L 154.963316 -64.456911 
L 154.023128 -64.456911 
L 153.082939 -64.456911 
L 152.14275 -64.456911 
L 151.202562 -64.456911 
L 150.262373 -64.456911 
L 149.322185 -64.456911 
L 148.381996 -64.456911 
L 147.441808 -64.456911 
L 146.501619 -64.456911 
L 145.56143 -64.456911 
L 144.621242 -64.456911 
L 143.681053 -64.456911 
L 142.740865 -64.456911 
L 141.800676 -64.456911 
L 140.860487 -64.456911 
L 139.920299 -64.456911 
L 138.98011 -64.456911 
L 138.039922 -64.456911 
L 137.099733 -64.456911 
L 136.159545 -64.456911 
L 135.219356 -64.456911 
L 134.279167 -64.456911 
L 133.338979 -64.456911 
L 132.39879 -64.456911 
L 131.458602 -64.456911 
L 130.518413 -64.456911 
L 129.578225 -64.456911 
L 128.638036 -64.456911 
L 127.697847 -64.456911 
L 126.757659 -64.456911 
L 125.81747 -64.456911 
L 124.877282 -64.456911 
L 123.937093 -64.456911 
L 122.996904 -64.456911 
L 122.056716 -64.456911 
L 121.116527 -64.456911 
L 120.176339 -64.456911 
L 119.23615 -64.456911 
L 118.295962 -64.456911 
L 117.355773 -64.456911 
L 116.415584 -64.456911 
L 115.475396 -64.456911 
L 114.535207 -64.456911 
L 113.595019 -64.456911 
L 112.65483 -64.456911 
L 111.714642 -64.456911 
L 110.774453 -64.456911 
L 109.834264 -64.456911 
L 108.894076 -64.456911 
L 107.953887 -64.456911 
L 107.013699 -64.456911 
L 106.07351 -64.456911 
L 105.133321 -64.456911 
L 104.193133 -64.456911 
L 103.252944 -64.456911 
L 102.312756 -64.456911 
L 101.372567 -64.456911 
L 100.432379 -64.456911 
L 99.49219 -64.456911 
L 98.552001 -64.456911 
L 97.611813 -64.456911 
L 96.671624 -64.456911 
L 95.731436 -64.456911 
L 94.791247 -64.456911 
L 93.851059 -64.456911 
L 92.91087 -64.456911 
L 91.970681 -64.456911 
L 91.030493 -64.456911 
L 90.090304 -64.456911 
L 89.150116 -64.456911 
L 88.209927 -64.456911 
L 87.269738 -64.456911 
L 86.32955 -64.456911 
L 85.389361 -64.456911 
L 84.449173 -64.456911 
L 83.508984 -64.456911 
L 82.568796 -64.456911 
L 81.628607 -64.456911 
L 80.688418 -64.456911 
L 79.74823 -64.456911 
L 78.808041 -64.456911 
L 77.867853 -64.456911 
L 76.927664 -64.456911 
L 75.987476 -64.456911 
L 75.047287 -64.456911 
L 74.107098 -64.456911 
L 73.16691 -64.456911 
L 72.226721 -64.456911 
L 71.286533 -64.456911 
L 70.346344 -64.456911 
L 69.406155 -64.456911 
L 68.465967 -64.456911 
L 67.525778 -64.456911 
L 66.58559 -64.456911 
L 65.645401 -64.456911 
L 64.705213 -64.456911 
L 63.765024 -64.456911 
L 62.824835 -64.456911 
L 61.884647 -64.456911 
L 60.944458 -64.456911 
L 60.00427 -64.456911 
L 59.064081 -64.456911 
L 58.123893 -64.456911 
L 57.183704 -64.456911 
L 56.243515 -64.456911 
L 55.303327 -64.456911 
L 54.363138 -64.456911 
L 53.42295 -64.456911 
L 52.482761 -64.456911 
L 51.542572 -64.456911 
L 50.602384 -64.456911 
L 49.662195 -64.456911 
L 48.722007 -64.456911 
L 47.781818 -64.456911 
z
" style="stroke: #6cb7ff; stroke-opacity: 0.6; stroke-width: 0.3"/>
    </defs>
    <g clip-path="url(#pd57dcfa82e)">
     <use xlink:href="#me17a1c3d5a" x="0" y="432" style="fill: #6cb7ff; fill-opacity: 0.6; stroke: #6cb7ff; stroke-opacity: 0.6; stroke-width: 0.3"/>
    </g>
   </g>
   <g id="line2d_11">
    <path d="M 47.781818 275.033821 
L 50.602384 274.881613 
L 52.482761 274.648146 
L 55.303327 274.032729 
L 58.123893 273.149965 
L 60.944458 272.021379 
L 64.705213 270.13971 
L 67.525778 268.48996 
L 71.286533 265.944136 
L 75.047287 263.035674 
L 78.808041 259.813465 
L 82.568796 256.287486 
L 87.269738 251.554492 
L 92.91087 245.447366 
L 99.49219 237.988485 
L 115.475396 219.463135 
L 120.176339 214.261893 
L 125.81747 208.281706 
L 132.39879 201.630173 
L 154.023128 180.161901 
L 159.664259 173.998337 
L 163.425013 169.649084 
L 170.006333 161.646359 
L 177.527842 152.006306 
L 185.049351 142.15075 
L 190.690482 135.001024 
L 195.391425 129.409035 
L 199.152179 125.263846 
L 202.912934 121.418938 
L 207.613877 117.130564 
L 212.314819 113.390989 
L 215.135385 111.296019 
L 218.896139 108.705532 
L 222.656894 106.412809 
L 229.238214 102.61087 
L 237.699911 97.687994 
L 241.460665 95.32226 
L 248.041985 90.97395 
L 258.38406 83.459885 
L 264.025191 79.40404 
L 267.785946 76.816719 
L 271.5467 74.423133 
L 274.367266 72.794883 
L 278.12802 70.873111 
L 281.888774 69.260182 
L 284.70934 68.281679 
L 286.589717 67.779777 
L 291.29066 66.851408 
L 295.051414 66.430923 
L 297.87198 66.271641 
L 301.632734 66.288366 
L 307.273866 66.833387 
L 312.914997 67.661999 
L 318.556129 68.777686 
L 325.137449 70.35649 
L 329.838392 71.768765 
L 333.599146 73.149629 
L 337.3599 74.73409 
L 341.120655 76.530226 
L 344.881409 78.576327 
L 347.701975 80.259757 
L 352.402918 83.444329 
L 357.103861 86.973787 
L 361.804803 90.965627 
L 366.505746 95.328518 
L 370.266501 99.074445 
L 374.967444 103.991905 
L 381.548764 111.334883 
L 389.070272 120.236046 
L 414.455364 150.948717 
L 421.036684 158.436245 
L 430.43857 168.791084 
L 446.421775 185.912513 
L 457.704038 197.72202 
L 465.225547 205.369175 
L 472.747056 212.645518 
L 480.268564 219.630754 
L 489.67045 227.879597 
L 496.25177 233.43512 
L 502.83309 238.652993 
L 507.534033 242.069365 
L 511.294787 244.491578 
L 515.055542 246.536189 
L 517.876107 247.834019 
L 520.696673 248.831411 
L 523.517239 249.601612 
L 526.337805 250.058591 
L 528.218182 250.215673 
L 528.218182 250.215673 
" clip-path="url(#pd57dcfa82e)" style="fill: none; stroke: #7570b3; stroke-width: 2; stroke-linecap: round"/>
   </g>
   <g id="line2d_12">
    <path d="M 47.781818 368.468182 
L 47.781818 275.033821 
" clip-path="url(#pd57dcfa82e)" style="fill: none; stroke: #7570b3; stroke-width: 2; stroke-linecap: round"/>
   </g>
   <g id="line2d_13">
    <path d="M 528.218182 368.716364 
L 528.218182 250.215673 
" clip-path="url(#pd57dcfa82e)" style="fill: none; stroke: #7570b3; stroke-width: 2; stroke-linecap: round"/>
   </g>
   <g id="line2d_14">
    <defs>
     <path id="md9e2ea3497" d="M 0 3.5 
C 0.928211 3.5 1.81853 3.131218 2.474874 2.474874 
C 3.131218 1.81853 3.5 0.928211 3.5 0 
C 3.5 -0.928211 3.131218 -1.81853 2.474874 -2.474874 
C 1.81853 -3.131218 0.928211 -3.5 0 -3.5 
C -0.928211 -3.5 -1.81853 -3.131218 -2.474874 -2.474874 
C -3.131218 -1.81853 -3.5 -0.928211 -3.5 0 
C -3.5 0.928211 -3.131218 1.81853 -2.474874 2.474874 
C -1.81853 3.131218 -0.928211 3.5 0 3.5 
z
"/>
    </defs>
    <g clip-path="url(#pd57dcfa82e)">
     <use xlink:href="#md9e2ea3497" x="299.097595" y="367.543089" style="fill: #7570b3"/>
    </g>
   </g>
   <g id="patch_3">
    <path d="M 23.76 383.84 
L 552.24 383.84 
" style="fill: none; stroke: #333333; stroke-width: 1.5; stroke-linejoin: miter; stroke-linecap: square"/>
   </g>
   <g id="text_6">
    <!-- $C$ -->
    <g style="fill: #262626" transform="translate(278.2 45.12)">
     <text>
      <tspan x="0" y="-0.21875" style="font-style: oblique; font-size: 28px; font-family: 'DejaVu Sans'; fill: #262626">C</tspan>
     </text>
    </g>
   </g>
  </g>
 </g>
 <defs>
  <clipPath id="pd57dcfa82e">
   <rect x="23.76" y="51.12" width="528.48" height="332.72"/>
  </clipPath>
 </defs>
</svg>
