<?xml version="1.0" encoding="utf-8" standalone="no"?>
<!DOCTYPE svg PUBLIC "-//W3C//DTD SVG 1.1//EN"
  "http://www.w3.org/Graphics/SVG/1.1/DTD/svg11.dtd">
<svg xmlns:xlink="http://www.w3.org/1999/xlink" width="576pt" height="432pt" viewBox="0 0 576 432" xmlns="http://www.w3.org/2000/svg" version="1.1">
 <metadata>
  <rdf:RDF xmlns:dc="http://purl.org/dc/elements/1.1/" xmlns:cc="http://creativecommons.org/ns#" xmlns:rdf="http://www.w3.org/1999/02/22-rdf-syntax-ns#">
   <cc:Work>
    <dc:type rdf:resource="http://purl.org/dc/dcmitype/StillImage"/>
    <dc:date>2025-09-22T23:00:34.358028</dc:date>
    <dc:format>image/svg+xml</dc:format>
    <dc:creator>
     <cc:Agent>
      <dc:title>Matplotlib v3.10.0, https://matplotlib.org/</dc:title>
     </cc:Agent>
    </dc:creator>
   </cc:Work>
  </rdf:RDF>
 </metadata>
 <defs>
  <style type="text/css">*{stroke-linejoin: round; stroke-linecap: butt}</style>
 </defs>
 <g id="figure_1">
  <g id="patch_1">
   <path d="M 0 432 
L 576 432 
L 576 0 
L 0 0 
L 0 432 
z
" style="fill: none; opacity: 0"/>
  </g>
  <g id="axes_1">
   <g id="patch_2">
    <path d="M 23.76 383.84 
L 530.346736 383.84 
L 530.346736 51.12 
L 23.76 51.12 
L 23.76 383.84 
z
" style="fill: none"/>
   </g>
   <g id="matplotlib.axis_1">
    <g id="xtick_1">
     <g id="line2d_1">
      <path d="M 54.257196 383.84 
L 54.257196 51.12 
" clip-path="url(#pb7f2d543ef)" style="fill: none; stroke: #ffffff; stroke-opacity: 0.4; stroke-linecap: round"/>
     </g>
     <g id="line2d_2"/>
     <g id="text_1">
      <text style="font-size: 18px; font-family: 'DejaVu Serif', 'Times New Roman', serif; text-anchor: middle; fill: #262626" x="54.257196" y="404.517187" transform="rotate(-0 54.257196 404.517187)">0.306</text>
     </g>
    </g>
    <g id="xtick_2">
     <g id="line2d_3">
      <path d="M 148.598624 383.84 
L 148.598624 51.12 
" clip-path="url(#pb7f2d543ef)" style="fill: none; stroke: #ffffff; stroke-opacity: 0.4; stroke-linecap: round"/>
     </g>
     <g id="line2d_4"/>
     <g id="text_2">
      <text style="font-size: 18px; font-family: 'DejaVu Serif', 'Times New Roman', serif; text-anchor: middle; fill: #262626" x="148.598624" y="404.517187" transform="rotate(-0 148.598624 404.517187)">0.308</text>
     </g>
    </g>
    <g id="xtick_3">
     <g id="line2d_5">
      <path d="M 242.940051 383.84 
L 242.940051 51.12 
" clip-path="url(#pb7f2d543ef)" style="fill: none; stroke: #ffffff; stroke-opacity: 0.4; stroke-linecap: round"/>
     </g>
     <g id="line2d_6"/>
     <g id="text_3">
      <text style="font-size: 18px; font-family: 'DejaVu Serif', 'Times New Roman', serif; text-anchor: middle; fill: #262626" x="242.940051" y="404.517187" transform="rotate(-0 242.940051 404.517187)">0.310</text>
     </g>
    </g>
    <g id="xtick_4">
     <g id="line2d_7">
      <path d="M 337.281479 383.84 
L 337.281479 51.12 
" clip-path="url(#pb7f2d543ef)" style="fill: none; stroke: #ffffff; stroke-opacity: 0.4; stroke-linecap: round"/>
     </g>
     <g id="line2d_8"/>
     <g id="text_4">
      <text style="font-size: 18px; font-family: 'DejaVu Serif', 'Times New Roman', serif; text-anchor: middle; fill: #262626" x="337.281479" y="404.517187" transform="rotate(-0 337.281479 404.517187)">0.312</text>
     </g>
    </g>
    <g id="xtick_5">
     <g id="line2d_9">
      <path d="M 431.622906 383.84 
L 431.622906 51.12 
" clip-path="url(#pb7f2d543ef)" style="fill: none; stroke: #ffffff; stroke-opacity: 0.4; stroke-linecap: round"/>
     </g>
     <g id="line2d_10"/>
     <g id="text_5">
      <text style="font-size: 18px; font-family: 'DejaVu Serif', 'Times New Roman', serif; text-anchor: middle; fill: #262626" x="431.622906" y="404.517187" transform="rotate(-0 431.622906 404.517187)">0.314</text>
     </g>
    </g>
    <g id="xtick_6">
     <g id="line2d_11">
      <path d="M 525.964334 383.84 
L 525.964334 51.12 
" clip-path="url(#pb7f2d543ef)" style="fill: none; stroke: #ffffff; stroke-opacity: 0.4; stroke-linecap: round"/>
     </g>
     <g id="line2d_12"/>
     <g id="text_6">
      <text style="font-size: 18px; font-family: 'DejaVu Serif', 'Times New Roman', serif; text-anchor: middle; fill: #262626" x="525.964334" y="404.517187" transform="rotate(-0 525.964334 404.517187)">0.316</text>
     </g>
    </g>
   </g>
   <g id="matplotlib.axis_2"/>
   <g id="FillBetweenPolyCollection_1">
    <defs>
     <path id="m77308977b4" d="M 46.78667 -64.320406 
L 46.78667 -167.997392 
L 47.687909 -168.001162 
L 48.589149 -168.029585 
L 49.490388 -168.105361 
L 50.391628 -168.217706 
L 51.292867 -168.349772 
L 52.194107 -168.497679 
L 53.095346 -168.667623 
L 53.996586 -168.8777 
L 54.897826 -169.127558 
L 55.799065 -169.395114 
L 56.700305 -169.676285 
L 57.601544 -169.980358 
L 58.502784 -170.289426 
L 59.404023 -170.623338 
L 60.305263 -170.982472 
L 61.206502 -171.377733 
L 62.107742 -171.807942 
L 63.008981 -172.250661 
L 63.910221 -172.680919 
L 64.81146 -173.178315 
L 65.7127 -173.674794 
L 66.613939 -174.183646 
L 67.515179 -174.700388 
L 68.416418 -175.248874 
L 69.317658 -175.826073 
L 70.218897 -176.399423 
L 71.120137 -176.993891 
L 72.021376 -177.581417 
L 72.922616 -178.194968 
L 73.823856 -178.82091 
L 74.725095 -179.460095 
L 75.626335 -180.129423 
L 76.527574 -180.782227 
L 77.428814 -181.442828 
L 78.330053 -182.114127 
L 79.231293 -182.805216 
L 80.132532 -183.509406 
L 81.033772 -184.21596 
L 81.935011 -184.928097 
L 82.836251 -185.64291 
L 83.73749 -186.37343 
L 84.63873 -187.123412 
L 85.539969 -187.851508 
L 86.441209 -188.61443 
L 87.342448 -189.391391 
L 88.243688 -190.179417 
L 89.144927 -190.979288 
L 90.046167 -191.78724 
L 90.947406 -192.596636 
L 91.848646 -193.432003 
L 92.749886 -194.275198 
L 93.651125 -195.128154 
L 94.552365 -196.005667 
L 95.453604 -196.891399 
L 96.354844 -197.800652 
L 97.256083 -198.695682 
L 98.157323 -199.610749 
L 99.058562 -200.556741 
L 99.959802 -201.502291 
L 100.861041 -202.464784 
L 101.762281 -203.438168 
L 102.66352 -204.445148 
L 103.56476 -205.457439 
L 104.465999 -206.481121 
L 105.367239 -207.52848 
L 106.268478 -208.570947 
L 107.169718 -209.612869 
L 108.070957 -210.706645 
L 108.972197 -211.810826 
L 109.873436 -212.933282 
L 110.774676 -214.067438 
L 111.675916 -215.214302 
L 112.577155 -216.371967 
L 113.478395 -217.532753 
L 114.379634 -218.716383 
L 115.280874 -219.879258 
L 116.182113 -221.073785 
L 117.083353 -222.282209 
L 117.984592 -223.460797 
L 118.885832 -224.661759 
L 119.787071 -225.895073 
L 120.688311 -227.106775 
L 121.58955 -228.319997 
L 122.49079 -229.547141 
L 123.392029 -230.766664 
L 124.293269 -231.98122 
L 125.194508 -233.200004 
L 126.095748 -234.401912 
L 126.996987 -235.608135 
L 127.898227 -236.799128 
L 128.799466 -237.986115 
L 129.700706 -239.169892 
L 130.601946 -240.336071 
L 131.503185 -241.512211 
L 132.404425 -242.673477 
L 133.305664 -243.824155 
L 134.206904 -244.967501 
L 135.108143 -246.078468 
L 136.009383 -247.201382 
L 136.910622 -248.293689 
L 137.811862 -249.397122 
L 138.713101 -250.489271 
L 139.614341 -251.560522 
L 140.51558 -252.620485 
L 141.41682 -253.671855 
L 142.318059 -254.707602 
L 143.219299 -255.723995 
L 144.120538 -256.739567 
L 145.021778 -257.743066 
L 145.923017 -258.72896 
L 146.824257 -259.711779 
L 147.725496 -260.699163 
L 148.626736 -261.66395 
L 149.527975 -262.637639 
L 150.429215 -263.581942 
L 151.330455 -264.522126 
L 152.231694 -265.479746 
L 153.132934 -266.449074 
L 154.034173 -267.411431 
L 154.935413 -268.337994 
L 155.836652 -269.316467 
L 156.737892 -270.2871 
L 157.639131 -271.245792 
L 158.540371 -272.221658 
L 159.44161 -273.189252 
L 160.34285 -274.14371 
L 161.244089 -275.13674 
L 162.145329 -276.106893 
L 163.046568 -277.08197 
L 163.947808 -278.101714 
L 164.849047 -279.100878 
L 165.750287 -280.099322 
L 166.651526 -281.106009 
L 167.552766 -282.138164 
L 168.454005 -283.1655 
L 169.355245 -284.198645 
L 170.256485 -285.245298 
L 171.157724 -286.287172 
L 172.058964 -287.33247 
L 172.960203 -288.372657 
L 173.861443 -289.428989 
L 174.762682 -290.462477 
L 175.663922 -291.537391 
L 176.565161 -292.58591 
L 177.466401 -293.610024 
L 178.36764 -294.689212 
L 179.26888 -295.780506 
L 180.170119 -296.872376 
L 181.071359 -297.945858 
L 181.972598 -299.015882 
L 182.873838 -300.071965 
L 183.775077 -301.13235 
L 184.676317 -302.196806 
L 185.577556 -303.246638 
L 186.478796 -304.308753 
L 187.380035 -305.347316 
L 188.281275 -306.365429 
L 189.182515 -307.378051 
L 190.083754 -308.394294 
L 190.984994 -309.398302 
L 191.886233 -310.396061 
L 192.787473 -311.392953 
L 193.688712 -312.375474 
L 194.589952 -313.35962 
L 195.491191 -314.345155 
L 196.392431 -315.275579 
L 197.29367 -316.228115 
L 198.19491 -317.165152 
L 199.096149 -318.106579 
L 199.997389 -319.034214 
L 200.898628 -319.957854 
L 201.799868 -320.839692 
L 202.701107 -321.732513 
L 203.602347 -322.60409 
L 204.503586 -323.469084 
L 205.404826 -324.312467 
L 206.306065 -325.156484 
L 207.207305 -325.978013 
L 208.108545 -326.806063 
L 209.009784 -327.604262 
L 209.911024 -328.413859 
L 210.812263 -329.19414 
L 211.713503 -329.960579 
L 212.614742 -330.726435 
L 213.515982 -331.448668 
L 214.417221 -332.207835 
L 215.318461 -332.94143 
L 216.2197 -333.634461 
L 217.12094 -334.310271 
L 218.022179 -334.968731 
L 218.923419 -335.644233 
L 219.824658 -336.286718 
L 220.725898 -336.93033 
L 221.627137 -337.56546 
L 222.528377 -338.17932 
L 223.429616 -338.7816 
L 224.330856 -339.364343 
L 225.232095 -339.938154 
L 226.133335 -340.488172 
L 227.034575 -341.01105 
L 227.935814 -341.537898 
L 228.837054 -342.049597 
L 229.738293 -342.562957 
L 230.639533 -343.002557 
L 231.540772 -343.465271 
L 232.442012 -343.918149 
L 233.343251 -344.342613 
L 234.244491 -344.755832 
L 235.14573 -345.161952 
L 236.04697 -345.57513 
L 236.948209 -345.948166 
L 237.849449 -346.312969 
L 238.750688 -346.657146 
L 239.651928 -347.001498 
L 240.553167 -347.349753 
L 241.454407 -347.654462 
L 242.355646 -347.952872 
L 243.256886 -348.252761 
L 244.158125 -348.531222 
L 245.059365 -348.801054 
L 245.960605 -349.070021 
L 246.861844 -349.352528 
L 247.763084 -349.601964 
L 248.664323 -349.880713 
L 249.565563 -350.167142 
L 250.466802 -350.443649 
L 251.368042 -350.713042 
L 252.269281 -350.953935 
L 253.170521 -351.215798 
L 254.07176 -351.488149 
L 254.973 -351.774987 
L 255.874239 -352.066827 
L 256.775479 -352.375555 
L 257.676718 -352.686678 
L 258.577958 -352.990152 
L 259.479197 -353.302106 
L 260.380437 -353.657417 
L 261.281676 -353.971901 
L 262.182916 -354.309789 
L 263.084155 -354.668681 
L 263.985395 -355.025909 
L 264.886635 -355.391577 
L 265.787874 -355.76626 
L 266.689114 -356.152845 
L 267.590353 -356.555026 
L 268.491593 -356.947622 
L 269.392832 -357.332245 
L 270.294072 -357.74936 
L 271.195311 -358.180847 
L 272.096551 -358.581054 
L 272.99779 -358.996311 
L 273.89903 -359.390758 
L 274.800269 -359.839063 
L 275.701509 -360.251184 
L 276.602748 -360.658833 
L 277.503988 -361.088817 
L 278.405227 -361.494539 
L 279.306467 -361.898248 
L 280.207706 -362.284825 
L 281.108946 -362.647764 
L 282.010185 -363.002042 
L 282.911425 -363.348259 
L 283.812664 -363.680981 
L 284.713904 -364.002271 
L 285.615144 -364.310167 
L 286.516383 -364.556677 
L 287.417623 -364.793499 
L 288.318862 -365.020727 
L 289.220102 -365.193681 
L 290.121341 -365.352692 
L 291.022581 -365.490233 
L 291.92382 -365.590239 
L 292.82506 -365.701404 
L 293.726299 -365.752795 
L 294.627539 -365.756364 
L 295.528778 -365.745616 
L 296.430018 -365.671984 
L 297.331257 -365.585993 
L 298.232497 -365.424388 
L 299.133736 -365.257146 
L 300.034976 -365.051128 
L 300.936215 -364.802594 
L 301.837455 -364.531024 
L 302.738694 -364.252721 
L 303.639934 -363.893932 
L 304.541174 -363.521286 
L 305.442413 -363.113649 
L 306.343653 -362.656747 
L 307.244892 -362.198754 
L 308.146132 -361.699999 
L 309.047371 -361.180928 
L 309.948611 -360.612078 
L 310.84985 -360.016059 
L 311.75109 -359.401105 
L 312.652329 -358.755901 
L 313.553569 -358.087488 
L 314.454808 -357.413223 
L 315.356048 -356.701463 
L 316.257287 -355.993198 
L 317.158527 -355.273523 
L 318.059766 -354.4998 
L 318.961006 -353.731014 
L 319.862245 -352.962746 
L 320.763485 -352.159204 
L 321.664724 -351.348103 
L 322.565964 -350.526959 
L 323.467204 -349.724064 
L 324.368443 -348.911125 
L 325.269683 -348.081603 
L 326.170922 -347.262632 
L 327.072162 -346.43618 
L 327.973401 -345.612746 
L 328.874641 -344.771529 
L 329.77588 -343.947851 
L 330.67712 -343.109604 
L 331.578359 -342.271415 
L 332.479599 -341.456123 
L 333.380838 -340.636467 
L 334.282078 -339.815425 
L 335.183317 -338.988604 
L 336.084557 -338.196689 
L 336.985796 -337.372227 
L 337.887036 -336.541478 
L 338.788275 -335.752365 
L 339.689515 -334.946709 
L 340.590754 -334.128125 
L 341.491994 -333.349376 
L 342.393234 -332.551648 
L 343.294473 -331.779472 
L 344.195713 -331.023361 
L 345.096952 -330.254931 
L 345.998192 -329.482956 
L 346.899431 -328.699231 
L 347.800671 -327.967069 
L 348.70191 -327.20539 
L 349.60315 -326.426514 
L 350.504389 -325.651653 
L 351.405629 -324.897886 
L 352.306868 -324.133985 
L 353.208108 -323.370999 
L 354.109347 -322.612543 
L 355.010587 -321.862282 
L 355.911826 -321.118539 
L 356.813066 -320.357623 
L 357.714305 -319.594338 
L 358.615545 -318.846567 
L 359.516784 -318.128477 
L 360.418024 -317.380957 
L 361.319264 -316.602084 
L 362.220503 -315.851014 
L 363.121743 -315.079047 
L 364.022982 -314.282545 
L 364.924222 -313.481883 
L 365.825461 -312.694171 
L 366.726701 -311.89062 
L 367.62794 -311.092188 
L 368.52918 -310.295279 
L 369.430419 -309.492261 
L 370.331659 -308.683395 
L 371.232898 -307.84927 
L 372.134138 -306.997798 
L 373.035377 -306.177268 
L 373.936617 -305.349421 
L 374.837856 -304.481477 
L 375.739096 -303.62974 
L 376.640335 -302.773618 
L 377.541575 -301.918184 
L 378.442814 -301.043493 
L 379.344054 -300.159448 
L 380.245294 -299.263925 
L 381.146533 -298.364387 
L 382.047773 -297.467942 
L 382.949012 -296.539864 
L 383.850252 -295.65429 
L 384.751491 -294.765749 
L 385.652731 -293.839132 
L 386.55397 -292.912218 
L 387.45521 -291.971903 
L 388.356449 -291.04745 
L 389.257689 -290.087271 
L 390.158928 -289.136519 
L 391.060168 -288.184982 
L 391.961407 -287.23082 
L 392.862647 -286.250777 
L 393.763886 -285.275992 
L 394.665126 -284.326131 
L 395.566365 -283.363689 
L 396.467605 -282.388865 
L 397.368844 -281.405417 
L 398.270084 -280.436011 
L 399.171323 -279.458207 
L 400.072563 -278.492539 
L 400.973803 -277.528385 
L 401.875042 -276.559687 
L 402.776282 -275.583986 
L 403.677521 -274.639362 
L 404.578761 -273.673232 
L 405.48 -272.711389 
L 406.38124 -271.763411 
L 407.282479 -270.81884 
L 408.183719 -269.867596 
L 409.084958 -268.92697 
L 409.986198 -267.980586 
L 410.887437 -267.059574 
L 411.788677 -266.137554 
L 412.689916 -265.214478 
L 413.591156 -264.284913 
L 414.492395 -263.39836 
L 415.393635 -262.505052 
L 416.294874 -261.603596 
L 417.196114 -260.686017 
L 418.097353 -259.800704 
L 418.998593 -258.902348 
L 419.899833 -258.005745 
L 420.801072 -257.103782 
L 421.702312 -256.212202 
L 422.603551 -255.30244 
L 423.504791 -254.394664 
L 424.40603 -253.487193 
L 425.30727 -252.579236 
L 426.208509 -251.659741 
L 427.109749 -250.735263 
L 428.010988 -249.809068 
L 428.912228 -248.900027 
L 429.813467 -247.973077 
L 430.714707 -247.022329 
L 431.615946 -246.076068 
L 432.517186 -245.115954 
L 433.418425 -244.135643 
L 434.319665 -243.154517 
L 435.220904 -242.14289 
L 436.122144 -241.134972 
L 437.023383 -240.135493 
L 437.924623 -239.097865 
L 438.825863 -238.059018 
L 439.727102 -237.033363 
L 440.628342 -235.975346 
L 441.529581 -234.878817 
L 442.430821 -233.799923 
L 443.33206 -232.678712 
L 444.2333 -231.550942 
L 445.134539 -230.418404 
L 446.035779 -229.283747 
L 446.937018 -228.128408 
L 447.838258 -226.959807 
L 448.739497 -225.761137 
L 449.640737 -224.547997 
L 450.541976 -223.337552 
L 451.443216 -222.111774 
L 452.344455 -220.881937 
L 453.245695 -219.648732 
L 454.146934 -218.399412 
L 455.048174 -217.146326 
L 455.949413 -215.896457 
L 456.850653 -214.629394 
L 457.751893 -213.372499 
L 458.653132 -212.085334 
L 459.554372 -210.823828 
L 460.455611 -209.562045 
L 461.356851 -208.290499 
L 462.25809 -207.012286 
L 463.15933 -205.731716 
L 464.060569 -204.457205 
L 464.961809 -203.193505 
L 465.863048 -201.920744 
L 466.764288 -200.663712 
L 467.665527 -199.419333 
L 468.566767 -198.165341 
L 469.468006 -196.917507 
L 470.369246 -195.697253 
L 471.270485 -194.487508 
L 472.171725 -193.296339 
L 473.072964 -192.117023 
L 473.974204 -190.960964 
L 474.875443 -189.788698 
L 475.776683 -188.657454 
L 476.677923 -187.539912 
L 477.579162 -186.419405 
L 478.480402 -185.300837 
L 479.381641 -184.247279 
L 480.282881 -183.219814 
L 481.18412 -182.187895 
L 482.08536 -181.181199 
L 482.986599 -180.224841 
L 483.887839 -179.258301 
L 484.789078 -178.33128 
L 485.690318 -177.415778 
L 486.591557 -176.532343 
L 487.492797 -175.684967 
L 488.394036 -174.868559 
L 489.295276 -174.089633 
L 490.196515 -173.327431 
L 491.097755 -172.629691 
L 491.998994 -171.945073 
L 492.900234 -171.290859 
L 493.801473 -170.662166 
L 494.702713 -170.056392 
L 495.603953 -169.488037 
L 496.505192 -168.966347 
L 497.406432 -168.475967 
L 498.307671 -168.030984 
L 499.208911 -167.596122 
L 500.11015 -167.208984 
L 501.01139 -166.891723 
L 501.912629 -166.555744 
L 502.813869 -166.294309 
L 503.715108 -166.095678 
L 504.616348 -165.915559 
L 505.517587 -165.782617 
L 506.418827 -165.695823 
L 507.320066 -165.651336 
L 507.320066 -64.320406 
L 507.320066 -64.320406 
L 506.418827 -64.320406 
L 505.517587 -64.320406 
L 504.616348 -64.320406 
L 503.715108 -64.320406 
L 502.813869 -64.320406 
L 501.912629 -64.320406 
L 501.01139 -64.320406 
L 500.11015 -64.320406 
L 499.208911 -64.320406 
L 498.307671 -64.320406 
L 497.406432 -64.320406 
L 496.505192 -64.320406 
L 495.603953 -64.320406 
L 494.702713 -64.320406 
L 493.801473 -64.320406 
L 492.900234 -64.320406 
L 491.998994 -64.320406 
L 491.097755 -64.320406 
L 490.196515 -64.320406 
L 489.295276 -64.320406 
L 488.394036 -64.320406 
L 487.492797 -64.320406 
L 486.591557 -64.320406 
L 485.690318 -64.320406 
L 484.789078 -64.320406 
L 483.887839 -64.320406 
L 482.986599 -64.320406 
L 482.08536 -64.320406 
L 481.18412 -64.320406 
L 480.282881 -64.320406 
L 479.381641 -64.320406 
L 478.480402 -64.320406 
L 477.579162 -64.320406 
L 476.677923 -64.320406 
L 475.776683 -64.320406 
L 474.875443 -64.320406 
L 473.974204 -64.320406 
L 473.072964 -64.320406 
L 472.171725 -64.320406 
L 471.270485 -64.320406 
L 470.369246 -64.320406 
L 469.468006 -64.320406 
L 468.566767 -64.320406 
L 467.665527 -64.320406 
L 466.764288 -64.320406 
L 465.863048 -64.320406 
L 464.961809 -64.320406 
L 464.060569 -64.320406 
L 463.15933 -64.320406 
L 462.25809 -64.320406 
L 461.356851 -64.320406 
L 460.455611 -64.320406 
L 459.554372 -64.320406 
L 458.653132 -64.320406 
L 457.751893 -64.320406 
L 456.850653 -64.320406 
L 455.949413 -64.320406 
L 455.048174 -64.320406 
L 454.146934 -64.320406 
L 453.245695 -64.320406 
L 452.344455 -64.320406 
L 451.443216 -64.320406 
L 450.541976 -64.320406 
L 449.640737 -64.320406 
L 448.739497 -64.320406 
L 447.838258 -64.320406 
L 446.937018 -64.320406 
L 446.035779 -64.320406 
L 445.134539 -64.320406 
L 444.2333 -64.320406 
L 443.33206 -64.320406 
L 442.430821 -64.320406 
L 441.529581 -64.320406 
L 440.628342 -64.320406 
L 439.727102 -64.320406 
L 438.825863 -64.320406 
L 437.924623 -64.320406 
L 437.023383 -64.320406 
L 436.122144 -64.320406 
L 435.220904 -64.320406 
L 434.319665 -64.320406 
L 433.418425 -64.320406 
L 432.517186 -64.320406 
L 431.615946 -64.320406 
L 430.714707 -64.320406 
L 429.813467 -64.320406 
L 428.912228 -64.320406 
L 428.010988 -64.320406 
L 427.109749 -64.320406 
L 426.208509 -64.320406 
L 425.30727 -64.320406 
L 424.40603 -64.320406 
L 423.504791 -64.320406 
L 422.603551 -64.320406 
L 421.702312 -64.320406 
L 420.801072 -64.320406 
L 419.899833 -64.320406 
L 418.998593 -64.320406 
L 418.097353 -64.320406 
L 417.196114 -64.320406 
L 416.294874 -64.320406 
L 415.393635 -64.320406 
L 414.492395 -64.320406 
L 413.591156 -64.320406 
L 412.689916 -64.320406 
L 411.788677 -64.320406 
L 410.887437 -64.320406 
L 409.986198 -64.320406 
L 409.084958 -64.320406 
L 408.183719 -64.320406 
L 407.282479 -64.320406 
L 406.38124 -64.320406 
L 405.48 -64.320406 
L 404.578761 -64.320406 
L 403.677521 -64.320406 
L 402.776282 -64.320406 
L 401.875042 -64.320406 
L 400.973803 -64.320406 
L 400.072563 -64.320406 
L 399.171323 -64.320406 
L 398.270084 -64.320406 
L 397.368844 -64.320406 
L 396.467605 -64.320406 
L 395.566365 -64.320406 
L 394.665126 -64.320406 
L 393.763886 -64.320406 
L 392.862647 -64.320406 
L 391.961407 -64.320406 
L 391.060168 -64.320406 
L 390.158928 -64.320406 
L 389.257689 -64.320406 
L 388.356449 -64.320406 
L 387.45521 -64.320406 
L 386.55397 -64.320406 
L 385.652731 -64.320406 
L 384.751491 -64.320406 
L 383.850252 -64.320406 
L 382.949012 -64.320406 
L 382.047773 -64.320406 
L 381.146533 -64.320406 
L 380.245294 -64.320406 
L 379.344054 -64.320406 
L 378.442814 -64.320406 
L 377.541575 -64.320406 
L 376.640335 -64.320406 
L 375.739096 -64.320406 
L 374.837856 -64.320406 
L 373.936617 -64.320406 
L 373.035377 -64.320406 
L 372.134138 -64.320406 
L 371.232898 -64.320406 
L 370.331659 -64.320406 
L 369.430419 -64.320406 
L 368.52918 -64.320406 
L 367.62794 -64.320406 
L 366.726701 -64.320406 
L 365.825461 -64.320406 
L 364.924222 -64.320406 
L 364.022982 -64.320406 
L 363.121743 -64.320406 
L 362.220503 -64.320406 
L 361.319264 -64.320406 
L 360.418024 -64.320406 
L 359.516784 -64.320406 
L 358.615545 -64.320406 
L 357.714305 -64.320406 
L 356.813066 -64.320406 
L 355.911826 -64.320406 
L 355.010587 -64.320406 
L 354.109347 -64.320406 
L 353.208108 -64.320406 
L 352.306868 -64.320406 
L 351.405629 -64.320406 
L 350.504389 -64.320406 
L 349.60315 -64.320406 
L 348.70191 -64.320406 
L 347.800671 -64.320406 
L 346.899431 -64.320406 
L 345.998192 -64.320406 
L 345.096952 -64.320406 
L 344.195713 -64.320406 
L 343.294473 -64.320406 
L 342.393234 -64.320406 
L 341.491994 -64.320406 
L 340.590754 -64.320406 
L 339.689515 -64.320406 
L 338.788275 -64.320406 
L 337.887036 -64.320406 
L 336.985796 -64.320406 
L 336.084557 -64.320406 
L 335.183317 -64.320406 
L 334.282078 -64.320406 
L 333.380838 -64.320406 
L 332.479599 -64.320406 
L 331.578359 -64.320406 
L 330.67712 -64.320406 
L 329.77588 -64.320406 
L 328.874641 -64.320406 
L 327.973401 -64.320406 
L 327.072162 -64.320406 
L 326.170922 -64.320406 
L 325.269683 -64.320406 
L 324.368443 -64.320406 
L 323.467204 -64.320406 
L 322.565964 -64.320406 
L 321.664724 -64.320406 
L 320.763485 -64.320406 
L 319.862245 -64.320406 
L 318.961006 -64.320406 
L 318.059766 -64.320406 
L 317.158527 -64.320406 
L 316.257287 -64.320406 
L 315.356048 -64.320406 
L 314.454808 -64.320406 
L 313.553569 -64.320406 
L 312.652329 -64.320406 
L 311.75109 -64.320406 
L 310.84985 -64.320406 
L 309.948611 -64.320406 
L 309.047371 -64.320406 
L 308.146132 -64.320406 
L 307.244892 -64.320406 
L 306.343653 -64.320406 
L 305.442413 -64.320406 
L 304.541174 -64.320406 
L 303.639934 -64.320406 
L 302.738694 -64.320406 
L 301.837455 -64.320406 
L 300.936215 -64.320406 
L 300.034976 -64.320406 
L 299.133736 -64.320406 
L 298.232497 -64.320406 
L 297.331257 -64.320406 
L 296.430018 -64.320406 
L 295.528778 -64.320406 
L 294.627539 -64.320406 
L 293.726299 -64.320406 
L 292.82506 -64.320406 
L 291.92382 -64.320406 
L 291.022581 -64.320406 
L 290.121341 -64.320406 
L 289.220102 -64.320406 
L 288.318862 -64.320406 
L 287.417623 -64.320406 
L 286.516383 -64.320406 
L 285.615144 -64.320406 
L 284.713904 -64.320406 
L 283.812664 -64.320406 
L 282.911425 -64.320406 
L 282.010185 -64.320406 
L 281.108946 -64.320406 
L 280.207706 -64.320406 
L 279.306467 -64.320406 
L 278.405227 -64.320406 
L 277.503988 -64.320406 
L 276.602748 -64.320406 
L 275.701509 -64.320406 
L 274.800269 -64.320406 
L 273.89903 -64.320406 
L 272.99779 -64.320406 
L 272.096551 -64.320406 
L 271.195311 -64.320406 
L 270.294072 -64.320406 
L 269.392832 -64.320406 
L 268.491593 -64.320406 
L 267.590353 -64.320406 
L 266.689114 -64.320406 
L 265.787874 -64.320406 
L 264.886635 -64.320406 
L 263.985395 -64.320406 
L 263.084155 -64.320406 
L 262.182916 -64.320406 
L 261.281676 -64.320406 
L 260.380437 -64.320406 
L 259.479197 -64.320406 
L 258.577958 -64.320406 
L 257.676718 -64.320406 
L 256.775479 -64.320406 
L 255.874239 -64.320406 
L 254.973 -64.320406 
L 254.07176 -64.320406 
L 253.170521 -64.320406 
L 252.269281 -64.320406 
L 251.368042 -64.320406 
L 250.466802 -64.320406 
L 249.565563 -64.320406 
L 248.664323 -64.320406 
L 247.763084 -64.320406 
L 246.861844 -64.320406 
L 245.960605 -64.320406 
L 245.059365 -64.320406 
L 244.158125 -64.320406 
L 243.256886 -64.320406 
L 242.355646 -64.320406 
L 241.454407 -64.320406 
L 240.553167 -64.320406 
L 239.651928 -64.320406 
L 238.750688 -64.320406 
L 237.849449 -64.320406 
L 236.948209 -64.320406 
L 236.04697 -64.320406 
L 235.14573 -64.320406 
L 234.244491 -64.320406 
L 233.343251 -64.320406 
L 232.442012 -64.320406 
L 231.540772 -64.320406 
L 230.639533 -64.320406 
L 229.738293 -64.320406 
L 228.837054 -64.320406 
L 227.935814 -64.320406 
L 227.034575 -64.320406 
L 226.133335 -64.320406 
L 225.232095 -64.320406 
L 224.330856 -64.320406 
L 223.429616 -64.320406 
L 222.528377 -64.320406 
L 221.627137 -64.320406 
L 220.725898 -64.320406 
L 219.824658 -64.320406 
L 218.923419 -64.320406 
L 218.022179 -64.320406 
L 217.12094 -64.320406 
L 216.2197 -64.320406 
L 215.318461 -64.320406 
L 214.417221 -64.320406 
L 213.515982 -64.320406 
L 212.614742 -64.320406 
L 211.713503 -64.320406 
L 210.812263 -64.320406 
L 209.911024 -64.320406 
L 209.009784 -64.320406 
L 208.108545 -64.320406 
L 207.207305 -64.320406 
L 206.306065 -64.320406 
L 205.404826 -64.320406 
L 204.503586 -64.320406 
L 203.602347 -64.320406 
L 202.701107 -64.320406 
L 201.799868 -64.320406 
L 200.898628 -64.320406 
L 199.997389 -64.320406 
L 199.096149 -64.320406 
L 198.19491 -64.320406 
L 197.29367 -64.320406 
L 196.392431 -64.320406 
L 195.491191 -64.320406 
L 194.589952 -64.320406 
L 193.688712 -64.320406 
L 192.787473 -64.320406 
L 191.886233 -64.320406 
L 190.984994 -64.320406 
L 190.083754 -64.320406 
L 189.182515 -64.320406 
L 188.281275 -64.320406 
L 187.380035 -64.320406 
L 186.478796 -64.320406 
L 185.577556 -64.320406 
L 184.676317 -64.320406 
L 183.775077 -64.320406 
L 182.873838 -64.320406 
L 181.972598 -64.320406 
L 181.071359 -64.320406 
L 180.170119 -64.320406 
L 179.26888 -64.320406 
L 178.36764 -64.320406 
L 177.466401 -64.320406 
L 176.565161 -64.320406 
L 175.663922 -64.320406 
L 174.762682 -64.320406 
L 173.861443 -64.320406 
L 172.960203 -64.320406 
L 172.058964 -64.320406 
L 171.157724 -64.320406 
L 170.256485 -64.320406 
L 169.355245 -64.320406 
L 168.454005 -64.320406 
L 167.552766 -64.320406 
L 166.651526 -64.320406 
L 165.750287 -64.320406 
L 164.849047 -64.320406 
L 163.947808 -64.320406 
L 163.046568 -64.320406 
L 162.145329 -64.320406 
L 161.244089 -64.320406 
L 160.34285 -64.320406 
L 159.44161 -64.320406 
L 158.540371 -64.320406 
L 157.639131 -64.320406 
L 156.737892 -64.320406 
L 155.836652 -64.320406 
L 154.935413 -64.320406 
L 154.034173 -64.320406 
L 153.132934 -64.320406 
L 152.231694 -64.320406 
L 151.330455 -64.320406 
L 150.429215 -64.320406 
L 149.527975 -64.320406 
L 148.626736 -64.320406 
L 147.725496 -64.320406 
L 146.824257 -64.320406 
L 145.923017 -64.320406 
L 145.021778 -64.320406 
L 144.120538 -64.320406 
L 143.219299 -64.320406 
L 142.318059 -64.320406 
L 141.41682 -64.320406 
L 140.51558 -64.320406 
L 139.614341 -64.320406 
L 138.713101 -64.320406 
L 137.811862 -64.320406 
L 136.910622 -64.320406 
L 136.009383 -64.320406 
L 135.108143 -64.320406 
L 134.206904 -64.320406 
L 133.305664 -64.320406 
L 132.404425 -64.320406 
L 131.503185 -64.320406 
L 130.601946 -64.320406 
L 129.700706 -64.320406 
L 128.799466 -64.320406 
L 127.898227 -64.320406 
L 126.996987 -64.320406 
L 126.095748 -64.320406 
L 125.194508 -64.320406 
L 124.293269 -64.320406 
L 123.392029 -64.320406 
L 122.49079 -64.320406 
L 121.58955 -64.320406 
L 120.688311 -64.320406 
L 119.787071 -64.320406 
L 118.885832 -64.320406 
L 117.984592 -64.320406 
L 117.083353 -64.320406 
L 116.182113 -64.320406 
L 115.280874 -64.320406 
L 114.379634 -64.320406 
L 113.478395 -64.320406 
L 112.577155 -64.320406 
L 111.675916 -64.320406 
L 110.774676 -64.320406 
L 109.873436 -64.320406 
L 108.972197 -64.320406 
L 108.070957 -64.320406 
L 107.169718 -64.320406 
L 106.268478 -64.320406 
L 105.367239 -64.320406 
L 104.465999 -64.320406 
L 103.56476 -64.320406 
L 102.66352 -64.320406 
L 101.762281 -64.320406 
L 100.861041 -64.320406 
L 99.959802 -64.320406 
L 99.058562 -64.320406 
L 98.157323 -64.320406 
L 97.256083 -64.320406 
L 96.354844 -64.320406 
L 95.453604 -64.320406 
L 94.552365 -64.320406 
L 93.651125 -64.320406 
L 92.749886 -64.320406 
L 91.848646 -64.320406 
L 90.947406 -64.320406 
L 90.046167 -64.320406 
L 89.144927 -64.320406 
L 88.243688 -64.320406 
L 87.342448 -64.320406 
L 86.441209 -64.320406 
L 85.539969 -64.320406 
L 84.63873 -64.320406 
L 83.73749 -64.320406 
L 82.836251 -64.320406 
L 81.935011 -64.320406 
L 81.033772 -64.320406 
L 80.132532 -64.320406 
L 79.231293 -64.320406 
L 78.330053 -64.320406 
L 77.428814 -64.320406 
L 76.527574 -64.320406 
L 75.626335 -64.320406 
L 74.725095 -64.320406 
L 73.823856 -64.320406 
L 72.922616 -64.320406 
L 72.021376 -64.320406 
L 71.120137 -64.320406 
L 70.218897 -64.320406 
L 69.317658 -64.320406 
L 68.416418 -64.320406 
L 67.515179 -64.320406 
L 66.613939 -64.320406 
L 65.7127 -64.320406 
L 64.81146 -64.320406 
L 63.910221 -64.320406 
L 63.008981 -64.320406 
L 62.107742 -64.320406 
L 61.206502 -64.320406 
L 60.305263 -64.320406 
L 59.404023 -64.320406 
L 58.502784 -64.320406 
L 57.601544 -64.320406 
L 56.700305 -64.320406 
L 55.799065 -64.320406 
L 54.897826 -64.320406 
L 53.996586 -64.320406 
L 53.095346 -64.320406 
L 52.194107 -64.320406 
L 51.292867 -64.320406 
L 50.391628 -64.320406 
L 49.490388 -64.320406 
L 48.589149 -64.320406 
L 47.687909 -64.320406 
L 46.78667 -64.320406 
z
" style="stroke: #6cb7ff; stroke-opacity: 0.6; stroke-width: 0.3"/>
    </defs>
    <g clip-path="url(#pb7f2d543ef)">
     <use xlink:href="#m77308977b4" x="0" y="432" style="fill: #6cb7ff; fill-opacity: 0.6; stroke: #6cb7ff; stroke-opacity: 0.6; stroke-width: 0.3"/>
    </g>
   </g>
   <g id="line2d_13">
    <path d="M 46.78667 264.002608 
L 49.490388 263.894639 
L 52.194107 263.502321 
L 53.996586 263.1223 
L 57.601544 262.019642 
L 60.305263 261.017528 
L 63.910221 259.319081 
L 68.416418 256.751126 
L 73.823856 253.17909 
L 78.330053 249.885873 
L 83.73749 245.62657 
L 89.144927 241.020712 
L 93.651125 236.871846 
L 98.157323 232.389251 
L 102.66352 227.554852 
L 107.169718 222.387131 
L 111.675916 216.785698 
L 117.984592 208.539203 
L 134.206904 187.032499 
L 140.51558 179.379515 
L 145.021778 174.256934 
L 152.231694 166.520254 
L 166.651526 150.893991 
L 178.36764 137.310788 
L 185.577556 128.753362 
L 190.083754 123.605706 
L 196.392431 116.724421 
L 201.799868 111.160308 
L 206.306065 106.843516 
L 211.713503 102.039421 
L 215.318461 99.05857 
L 219.824658 95.713282 
L 223.429616 93.2184 
L 227.034575 90.98895 
L 230.639533 88.997443 
L 234.244491 87.244168 
L 237.849449 85.687031 
L 242.355646 84.047128 
L 246.861844 82.647472 
L 252.269281 81.046065 
L 256.775479 79.624445 
L 263.084155 77.331319 
L 267.590353 75.444974 
L 273.89903 72.609242 
L 277.503988 70.911183 
L 282.010185 68.997958 
L 285.615144 67.689833 
L 289.220102 66.806319 
L 291.92382 66.409761 
L 293.726299 66.247205 
L 296.430018 66.328016 
L 298.232497 66.575612 
L 300.034976 66.948872 
L 302.738694 67.747279 
L 305.442413 68.886351 
L 309.047371 70.819072 
L 311.75109 72.598895 
L 315.356048 75.298537 
L 318.961006 78.268986 
L 322.565964 81.473041 
L 328.874641 87.228471 
L 342.393234 99.448352 
L 355.010587 110.137718 
L 364.022982 117.717455 
L 373.936617 126.650579 
L 383.850252 136.34571 
L 387.45521 140.028097 
L 391.961407 144.76918 
L 404.578761 158.326768 
L 411.788677 165.862446 
L 418.998593 173.097652 
L 428.912228 183.099973 
L 433.418425 187.864357 
L 437.924623 192.902135 
L 442.430821 198.200077 
L 447.838258 205.040193 
L 454.146934 213.600588 
L 465.863048 230.079256 
L 472.171725 238.703661 
L 476.677923 244.460088 
L 480.282881 248.780186 
L 483.887839 252.741699 
L 487.492797 256.315033 
L 490.196515 258.672569 
L 493.801473 261.337834 
L 496.505192 263.033653 
L 499.208911 264.403878 
L 501.01139 265.108277 
L 502.813869 265.705691 
L 505.517587 266.217383 
L 507.320066 266.348664 
L 507.320066 266.348664 
" clip-path="url(#pb7f2d543ef)" style="fill: none; stroke: #7570b3; stroke-width: 2; stroke-linecap: round"/>
   </g>
   <g id="line2d_14">
    <path d="M 46.78667 368.716364 
L 46.78667 264.002608 
" clip-path="url(#pb7f2d543ef)" style="fill: none; stroke: #7570b3; stroke-width: 2; stroke-linecap: round"/>
   </g>
   <g id="line2d_15">
    <path d="M 507.320066 368.692903 
L 507.320066 266.348664 
" clip-path="url(#pb7f2d543ef)" style="fill: none; stroke: #7570b3; stroke-width: 2; stroke-linecap: round"/>
   </g>
   <g id="line2d_16">
    <defs>
     <path id="md66ae38d91" d="M 0 3.5 
C 0.928211 3.5 1.81853 3.131218 2.474874 2.474874 
C 3.131218 1.81853 3.5 0.928211 3.5 0 
C 3.5 -0.928211 3.131218 -1.81853 2.474874 -2.474874 
C 1.81853 -3.131218 0.928211 -3.5 0 -3.5 
C -0.928211 -3.5 -1.81853 -3.131218 -2.474874 -2.474874 
C -3.131218 -1.81853 -3.5 -0.928211 -3.5 0 
C -3.5 0.928211 -3.131218 1.81853 -2.474874 2.474874 
C -1.81853 3.131218 -0.928211 3.5 0 3.5 
z
"/>
    </defs>
    <g clip-path="url(#pb7f2d543ef)">
     <use xlink:href="#md66ae38d91" x="282.75959" y="367.679594" style="fill: #7570b3"/>
    </g>
   </g>
   <g id="patch_3">
    <path d="M 23.76 383.84 
L 530.346736 383.84 
" style="fill: none; stroke: #333333; stroke-width: 1.5; stroke-linejoin: miter; stroke-linecap: square"/>
   </g>
   <g id="text_7">
    <!-- $\sigma$ -->
    <g style="fill: #262626" transform="translate(268.093368 45.12)">
     <text>
      <tspan x="0" y="-0.671875" style="font-style: oblique; font-size: 28px; font-family: 'DejaVu Sans'; fill: #262626">σ</tspan>
     </text>
    </g>
   </g>
  </g>
 </g>
 <defs>
  <clipPath id="pb7f2d543ef">
   <rect x="23.76" y="51.12" width="506.586736" height="332.72"/>
  </clipPath>
 </defs>
</svg>
