<?xml version="1.0" encoding="utf-8" standalone="no"?>
<!DOCTYPE svg PUBLIC "-//W3C//DTD SVG 1.1//EN"
  "http://www.w3.org/Graphics/SVG/1.1/DTD/svg11.dtd">
<svg xmlns:xlink="http://www.w3.org/1999/xlink" width="576pt" height="432pt" viewBox="0 0 576 432" xmlns="http://www.w3.org/2000/svg" version="1.1">
 <metadata>
  <rdf:RDF xmlns:dc="http://purl.org/dc/elements/1.1/" xmlns:cc="http://creativecommons.org/ns#" xmlns:rdf="http://www.w3.org/1999/02/22-rdf-syntax-ns#">
   <cc:Work>
    <dc:type rdf:resource="http://purl.org/dc/dcmitype/StillImage"/>
    <dc:date>2025-09-22T23:00:34.712624</dc:date>
    <dc:format>image/svg+xml</dc:format>
    <dc:creator>
     <cc:Agent>
      <dc:title>Matplotlib v3.10.0, https://matplotlib.org/</dc:title>
     </cc:Agent>
    </dc:creator>
   </cc:Work>
  </rdf:RDF>
 </metadata>
 <defs>
  <style type="text/css">*{stroke-linejoin: round; stroke-linecap: butt}</style>
 </defs>
 <g id="figure_1">
  <g id="patch_1">
   <path d="M 0 432 
L 576 432 
L 576 0 
L 0 0 
L 0 432 
z
" style="fill: none; opacity: 0"/>
  </g>
  <g id="axes_1">
   <g id="patch_2">
    <path d="M 40.780719 383.84 
L 533.728595 383.84 
L 533.728595 51.12 
L 40.780719 51.12 
L 40.780719 383.84 
z
" style="fill: none"/>
   </g>
   <g id="matplotlib.axis_1">
    <g id="xtick_1">
     <g id="line2d_1">
      <path d="M 52.430015 383.84 
L 52.430015 51.12 
" clip-path="url(#p7f81911f21)" style="fill: none; stroke: #ffffff; stroke-opacity: 0.4; stroke-linecap: round"/>
     </g>
     <g id="line2d_2"/>
     <g id="text_1">
      <text style="font-size: 18px; font-family: 'DejaVu Serif', 'Times New Roman', serif; text-anchor: middle; fill: #262626" x="52.430015" y="404.517187" transform="rotate(-0 52.430015 404.517187)">−0.04</text>
     </g>
    </g>
    <g id="xtick_2">
     <g id="line2d_3">
      <path d="M 148.35379 383.84 
L 148.35379 51.12 
" clip-path="url(#p7f81911f21)" style="fill: none; stroke: #ffffff; stroke-opacity: 0.4; stroke-linecap: round"/>
     </g>
     <g id="line2d_4"/>
     <g id="text_2">
      <text style="font-size: 18px; font-family: 'DejaVu Serif', 'Times New Roman', serif; text-anchor: middle; fill: #262626" x="148.35379" y="404.517187" transform="rotate(-0 148.35379 404.517187)">−0.02</text>
     </g>
    </g>
    <g id="xtick_3">
     <g id="line2d_5">
      <path d="M 244.277565 383.84 
L 244.277565 51.12 
" clip-path="url(#p7f81911f21)" style="fill: none; stroke: #ffffff; stroke-opacity: 0.4; stroke-linecap: round"/>
     </g>
     <g id="line2d_6"/>
     <g id="text_3">
      <text style="font-size: 18px; font-family: 'DejaVu Serif', 'Times New Roman', serif; text-anchor: middle; fill: #262626" x="244.277565" y="404.517187" transform="rotate(-0 244.277565 404.517187)">0.00</text>
     </g>
    </g>
    <g id="xtick_4">
     <g id="line2d_7">
      <path d="M 340.20134 383.84 
L 340.20134 51.12 
" clip-path="url(#p7f81911f21)" style="fill: none; stroke: #ffffff; stroke-opacity: 0.4; stroke-linecap: round"/>
     </g>
     <g id="line2d_8"/>
     <g id="text_4">
      <text style="font-size: 18px; font-family: 'DejaVu Serif', 'Times New Roman', serif; text-anchor: middle; fill: #262626" x="340.20134" y="404.517187" transform="rotate(-0 340.20134 404.517187)">0.02</text>
     </g>
    </g>
    <g id="xtick_5">
     <g id="line2d_9">
      <path d="M 436.125115 383.84 
L 436.125115 51.12 
" clip-path="url(#p7f81911f21)" style="fill: none; stroke: #ffffff; stroke-opacity: 0.4; stroke-linecap: round"/>
     </g>
     <g id="line2d_10"/>
     <g id="text_5">
      <text style="font-size: 18px; font-family: 'DejaVu Serif', 'Times New Roman', serif; text-anchor: middle; fill: #262626" x="436.125115" y="404.517187" transform="rotate(-0 436.125115 404.517187)">0.04</text>
     </g>
    </g>
    <g id="xtick_6">
     <g id="line2d_11">
      <path d="M 532.048889 383.84 
L 532.048889 51.12 
" clip-path="url(#p7f81911f21)" style="fill: none; stroke: #ffffff; stroke-opacity: 0.4; stroke-linecap: round"/>
     </g>
     <g id="line2d_12"/>
     <g id="text_6">
      <text style="font-size: 18px; font-family: 'DejaVu Serif', 'Times New Roman', serif; text-anchor: middle; fill: #262626" x="532.048889" y="404.517187" transform="rotate(-0 532.048889 404.517187)">0.06</text>
     </g>
    </g>
   </g>
   <g id="matplotlib.axis_2"/>
   <g id="FillBetweenPolyCollection_1">
    <defs>
     <path id="m2eb660852d" d="M 63.18744 -64.289041 
L 63.18744 -164.829486 
L 64.064416 -164.848683 
L 64.941391 -164.870448 
L 65.818367 -164.942318 
L 66.695342 -165.03317 
L 67.572317 -165.150562 
L 68.449293 -165.300214 
L 69.326268 -165.485462 
L 70.203244 -165.671407 
L 71.080219 -165.878838 
L 71.957194 -166.117919 
L 72.83417 -166.377787 
L 73.711145 -166.702946 
L 74.588121 -167.020822 
L 75.465096 -167.360873 
L 76.342072 -167.72315 
L 77.219047 -168.107649 
L 78.096022 -168.495684 
L 78.972998 -168.931346 
L 79.849973 -169.402518 
L 80.726949 -169.869143 
L 81.603924 -170.390367 
L 82.480899 -170.921891 
L 83.357875 -171.480504 
L 84.23485 -172.061986 
L 85.111826 -172.616606 
L 85.988801 -173.222748 
L 86.865776 -173.849719 
L 87.742752 -174.479688 
L 88.619727 -175.119971 
L 89.496703 -175.804236 
L 90.373678 -176.491393 
L 91.250653 -177.193644 
L 92.127629 -177.914208 
L 93.004604 -178.63638 
L 93.88158 -179.372775 
L 94.758555 -180.137597 
L 95.63553 -180.902396 
L 96.512506 -181.711147 
L 97.389481 -182.498803 
L 98.266457 -183.314796 
L 99.143432 -184.12452 
L 100.020407 -184.952164 
L 100.897383 -185.773188 
L 101.774358 -186.638496 
L 102.651334 -187.534459 
L 103.528309 -188.39389 
L 104.405285 -189.253795 
L 105.28226 -190.140391 
L 106.159235 -191.032836 
L 107.036211 -191.935185 
L 107.913186 -192.848169 
L 108.790162 -193.80693 
L 109.667137 -194.746777 
L 110.544112 -195.689857 
L 111.421088 -196.670411 
L 112.298063 -197.655977 
L 113.175039 -198.652958 
L 114.052014 -199.678716 
L 114.928989 -200.720092 
L 115.805965 -201.773089 
L 116.68294 -202.825361 
L 117.559916 -203.900629 
L 118.436891 -205.001279 
L 119.313866 -206.129749 
L 120.190842 -207.266843 
L 121.067817 -208.424319 
L 121.944793 -209.603951 
L 122.821768 -210.795387 
L 123.698743 -212.004248 
L 124.575719 -213.219378 
L 125.452694 -214.470574 
L 126.32967 -215.746959 
L 127.206645 -217.049536 
L 128.083621 -218.356386 
L 128.960596 -219.694615 
L 129.837571 -221.045408 
L 130.714547 -222.401224 
L 131.591522 -223.771958 
L 132.468498 -225.178383 
L 133.345473 -226.605565 
L 134.222448 -228.008479 
L 135.099424 -229.435283 
L 135.976399 -230.878156 
L 136.853375 -232.32457 
L 137.73035 -233.762318 
L 138.607325 -235.216651 
L 139.484301 -236.648027 
L 140.361276 -238.113218 
L 141.238252 -239.568753 
L 142.115227 -241.037029 
L 142.992202 -242.505392 
L 143.869178 -243.951811 
L 144.746153 -245.379256 
L 145.623129 -246.809677 
L 146.500104 -248.220981 
L 147.377079 -249.626948 
L 148.254055 -251.028399 
L 149.13103 -252.406856 
L 150.008006 -253.765848 
L 150.884981 -255.123351 
L 151.761956 -256.440435 
L 152.638932 -257.747362 
L 153.515907 -259.015247 
L 154.392883 -260.26491 
L 155.269858 -261.488202 
L 156.146834 -262.68762 
L 157.023809 -263.850995 
L 157.900784 -265.003867 
L 158.77776 -266.124766 
L 159.654735 -267.215797 
L 160.531711 -268.293322 
L 161.408686 -269.331359 
L 162.285661 -270.362348 
L 163.162637 -271.387446 
L 164.039612 -272.378972 
L 164.916588 -273.376696 
L 165.793563 -274.338963 
L 166.670538 -275.295764 
L 167.547514 -276.219423 
L 168.424489 -277.108349 
L 169.301465 -278.026234 
L 170.17844 -278.926959 
L 171.055415 -279.782057 
L 171.932391 -280.660632 
L 172.809366 -281.550343 
L 173.686342 -282.41173 
L 174.563317 -283.264851 
L 175.440292 -284.126904 
L 176.317268 -284.98019 
L 177.194243 -285.821011 
L 178.071219 -286.692919 
L 178.948194 -287.574252 
L 179.82517 -288.42225 
L 180.702145 -289.298304 
L 181.57912 -290.1705 
L 182.456096 -291.046999 
L 183.333071 -291.938246 
L 184.210047 -292.82975 
L 185.087022 -293.742225 
L 185.963997 -294.646174 
L 186.840973 -295.561995 
L 187.717948 -296.489844 
L 188.594924 -297.411634 
L 189.471899 -298.345779 
L 190.348874 -299.289113 
L 191.22585 -300.214579 
L 192.102825 -301.160676 
L 192.979801 -302.123415 
L 193.856776 -303.078913 
L 194.733751 -304.011171 
L 195.610727 -304.952052 
L 196.487702 -305.877594 
L 197.364678 -306.807607 
L 198.241653 -307.744725 
L 199.118628 -308.681211 
L 199.995604 -309.593233 
L 200.872579 -310.486373 
L 201.749555 -311.348851 
L 202.62653 -312.214639 
L 203.503505 -313.064382 
L 204.380481 -313.885953 
L 205.257456 -314.710676 
L 206.134432 -315.511001 
L 207.011407 -316.289043 
L 207.888383 -317.032642 
L 208.765358 -317.739498 
L 209.642333 -318.425127 
L 210.519309 -319.114856 
L 211.396284 -319.782149 
L 212.27326 -320.404651 
L 213.150235 -321.031699 
L 214.02721 -321.601077 
L 214.904186 -322.121168 
L 215.781161 -322.617617 
L 216.658137 -323.082193 
L 217.535112 -323.526298 
L 218.412087 -323.965403 
L 219.289063 -324.349895 
L 220.166038 -324.743419 
L 221.043014 -325.112919 
L 221.919989 -325.452835 
L 222.796964 -325.771091 
L 223.67394 -326.076194 
L 224.550915 -326.332426 
L 225.427891 -326.575561 
L 226.304866 -326.778745 
L 227.181841 -326.982876 
L 228.058817 -327.177996 
L 228.935792 -327.334118 
L 229.812768 -327.515652 
L 230.689743 -327.684314 
L 231.566719 -327.82517 
L 232.443694 -328.001547 
L 233.320669 -328.146758 
L 234.197645 -328.287072 
L 235.07462 -328.430076 
L 235.951596 -328.585667 
L 236.828571 -328.709338 
L 237.705546 -328.835936 
L 238.582522 -329.022407 
L 239.459497 -329.233522 
L 240.336473 -329.42979 
L 241.213448 -329.626462 
L 242.090423 -329.835188 
L 242.967399 -330.061709 
L 243.844374 -330.274282 
L 244.72135 -330.537513 
L 245.598325 -330.827941 
L 246.4753 -331.116603 
L 247.352276 -331.420565 
L 248.229251 -331.798414 
L 249.106227 -332.139029 
L 249.983202 -332.535637 
L 250.860177 -332.957296 
L 251.737153 -333.366401 
L 252.614128 -333.812687 
L 253.491104 -334.304693 
L 254.368079 -334.80287 
L 255.245054 -335.314181 
L 256.12203 -335.886392 
L 256.999005 -336.464866 
L 257.875981 -337.065941 
L 258.752956 -337.671289 
L 259.629932 -338.310647 
L 260.506907 -338.983099 
L 261.383882 -339.645633 
L 262.260858 -340.345148 
L 263.137833 -341.066985 
L 264.014809 -341.786544 
L 264.891784 -342.519504 
L 265.768759 -343.294274 
L 266.645735 -344.063064 
L 267.52271 -344.839031 
L 268.399686 -345.618416 
L 269.276661 -346.410957 
L 270.153636 -347.19482 
L 271.030612 -347.987961 
L 271.907587 -348.789317 
L 272.784563 -349.589371 
L 273.661538 -350.372783 
L 274.538513 -351.190184 
L 275.415489 -351.978802 
L 276.292464 -352.764014 
L 277.16944 -353.513395 
L 278.046415 -354.252707 
L 278.92339 -354.999689 
L 279.800366 -355.747368 
L 280.677341 -356.448883 
L 281.554317 -357.157257 
L 282.431292 -357.833969 
L 283.308268 -358.464691 
L 284.185243 -359.102809 
L 285.062218 -359.69788 
L 285.939194 -360.266805 
L 286.816169 -360.820457 
L 287.693145 -361.330701 
L 288.57012 -361.82136 
L 289.447095 -362.276768 
L 290.324071 -362.733365 
L 291.201046 -363.155884 
L 292.078022 -363.553269 
L 292.954997 -363.927299 
L 293.831972 -364.283322 
L 294.708948 -364.590321 
L 295.585923 -364.867664 
L 296.462899 -365.098465 
L 297.339874 -365.287864 
L 298.216849 -365.429307 
L 299.093825 -365.554875 
L 299.9708 -365.639946 
L 300.847776 -365.702904 
L 301.724751 -365.733127 
L 302.601726 -365.756364 
L 303.478702 -365.747556 
L 304.355677 -365.713551 
L 305.232653 -365.644622 
L 306.109628 -365.570392 
L 306.986603 -365.456009 
L 307.863579 -365.288883 
L 308.740554 -365.113016 
L 309.61753 -364.91427 
L 310.494505 -364.702954 
L 311.371481 -364.484154 
L 312.248456 -364.223417 
L 313.125431 -363.964944 
L 314.002407 -363.652237 
L 314.879382 -363.377676 
L 315.756358 -363.04572 
L 316.633333 -362.698005 
L 317.510308 -362.33458 
L 318.387284 -361.966891 
L 319.264259 -361.581127 
L 320.141235 -361.192086 
L 321.01821 -360.796935 
L 321.895185 -360.376699 
L 322.772161 -359.939349 
L 323.649136 -359.492275 
L 324.526112 -359.033211 
L 325.403087 -358.560288 
L 326.280062 -358.086076 
L 327.157038 -357.573886 
L 328.034013 -357.045872 
L 328.910989 -356.511716 
L 329.787964 -355.988788 
L 330.664939 -355.431045 
L 331.541915 -354.872627 
L 332.41889 -354.28457 
L 333.295866 -353.670663 
L 334.172841 -353.023512 
L 335.049817 -352.372896 
L 335.926792 -351.707057 
L 336.803767 -351.059177 
L 337.680743 -350.376335 
L 338.557718 -349.67246 
L 339.434694 -348.950009 
L 340.311669 -348.198486 
L 341.188644 -347.438925 
L 342.06562 -346.656674 
L 342.942595 -345.861555 
L 343.819571 -345.036205 
L 344.696546 -344.207822 
L 345.573521 -343.348316 
L 346.450497 -342.453813 
L 347.327472 -341.562652 
L 348.204448 -340.605895 
L 349.081423 -339.652302 
L 349.958398 -338.694978 
L 350.835374 -337.72844 
L 351.712349 -336.738731 
L 352.589325 -335.727199 
L 353.4663 -334.674142 
L 354.343275 -333.626213 
L 355.220251 -332.563379 
L 356.097226 -331.479424 
L 356.974202 -330.374073 
L 357.851177 -329.253711 
L 358.728152 -328.134644 
L 359.605128 -327.02821 
L 360.482103 -325.901646 
L 361.359079 -324.769855 
L 362.236054 -323.630971 
L 363.11303 -322.4912 
L 363.990005 -321.344416 
L 364.86698 -320.175233 
L 365.743956 -319.002462 
L 366.620931 -317.849089 
L 367.497907 -316.697502 
L 368.374882 -315.555993 
L 369.251857 -314.427224 
L 370.128833 -313.296616 
L 371.005808 -312.162212 
L 371.882784 -311.063977 
L 372.759759 -309.95174 
L 373.636734 -308.86289 
L 374.51371 -307.753468 
L 375.390685 -306.673843 
L 376.267661 -305.623369 
L 377.144636 -304.569003 
L 378.021611 -303.529009 
L 378.898587 -302.497132 
L 379.775562 -301.468045 
L 380.652538 -300.455287 
L 381.529513 -299.44548 
L 382.406488 -298.460033 
L 383.283464 -297.442393 
L 384.160439 -296.483382 
L 385.037415 -295.494949 
L 385.91439 -294.531427 
L 386.791366 -293.593442 
L 387.668341 -292.643045 
L 388.545316 -291.688739 
L 389.422292 -290.762877 
L 390.299267 -289.816435 
L 391.176243 -288.860241 
L 392.053218 -287.907421 
L 392.930193 -286.954981 
L 393.807169 -286.00517 
L 394.684144 -285.059892 
L 395.56112 -284.0986 
L 396.438095 -283.15335 
L 397.31507 -282.16231 
L 398.192046 -281.171316 
L 399.069021 -280.185298 
L 399.945997 -279.196013 
L 400.822972 -278.161316 
L 401.699947 -277.133983 
L 402.576923 -276.084337 
L 403.453898 -275.03809 
L 404.330874 -273.990267 
L 405.207849 -272.917055 
L 406.084824 -271.826472 
L 406.9618 -270.735118 
L 407.838775 -269.617852 
L 408.715751 -268.507336 
L 409.592726 -267.357149 
L 410.469701 -266.202908 
L 411.346677 -265.023884 
L 412.223652 -263.833768 
L 413.100628 -262.668318 
L 413.977603 -261.490522 
L 414.854579 -260.270565 
L 415.731554 -259.065448 
L 416.608529 -257.856463 
L 417.485505 -256.640717 
L 418.36248 -255.429707 
L 419.239456 -254.189107 
L 420.116431 -252.959868 
L 420.993406 -251.728165 
L 421.870382 -250.500805 
L 422.747357 -249.273675 
L 423.624333 -248.047853 
L 424.501308 -246.824873 
L 425.378283 -245.575093 
L 426.255259 -244.340224 
L 427.132234 -243.101923 
L 428.00921 -241.839705 
L 428.886185 -240.606253 
L 429.76316 -239.390078 
L 430.640136 -238.162535 
L 431.517111 -236.97075 
L 432.394087 -235.788123 
L 433.271062 -234.610484 
L 434.148037 -233.445486 
L 435.025013 -232.26826 
L 435.901988 -231.111039 
L 436.778964 -229.945366 
L 437.655939 -228.797495 
L 438.532915 -227.654044 
L 439.40989 -226.497713 
L 440.286865 -225.374566 
L 441.163841 -224.250637 
L 442.040816 -223.129079 
L 442.917792 -222.037851 
L 443.794767 -220.941514 
L 444.671742 -219.858068 
L 445.548718 -218.772596 
L 446.425693 -217.686243 
L 447.302669 -216.613044 
L 448.179644 -215.523607 
L 449.056619 -214.45959 
L 449.933595 -213.385345 
L 450.81057 -212.322935 
L 451.687546 -211.264465 
L 452.564521 -210.220708 
L 453.441496 -209.151907 
L 454.318472 -208.104102 
L 455.195447 -207.037916 
L 456.072423 -205.989787 
L 456.949398 -204.951967 
L 457.826373 -203.909684 
L 458.703349 -202.884923 
L 459.580324 -201.839127 
L 460.4573 -200.80479 
L 461.334275 -199.785394 
L 462.21125 -198.765551 
L 463.088226 -197.744222 
L 463.965201 -196.747535 
L 464.842177 -195.727244 
L 465.719152 -194.730539 
L 466.596128 -193.735561 
L 467.473103 -192.742431 
L 468.350078 -191.761787 
L 469.227054 -190.797663 
L 470.104029 -189.850439 
L 470.981005 -188.889023 
L 471.85798 -187.926922 
L 472.734955 -186.973234 
L 473.611931 -186.041937 
L 474.488906 -185.118915 
L 475.365882 -184.212003 
L 476.242857 -183.330001 
L 477.119832 -182.45651 
L 477.996808 -181.579485 
L 478.873783 -180.716694 
L 479.750759 -179.890608 
L 480.627734 -179.052171 
L 481.504709 -178.264327 
L 482.381685 -177.477573 
L 483.25866 -176.744658 
L 484.135636 -176.005285 
L 485.012611 -175.270562 
L 485.889586 -174.576251 
L 486.766562 -173.898928 
L 487.643537 -173.242435 
L 488.520513 -172.602477 
L 489.397488 -171.99329 
L 490.274464 -171.391756 
L 491.151439 -170.810415 
L 492.028414 -170.269082 
L 492.90539 -169.752339 
L 493.782365 -169.258494 
L 494.659341 -168.789184 
L 495.536316 -168.343288 
L 496.413291 -167.915837 
L 497.290267 -167.506951 
L 498.167242 -167.109928 
L 499.044218 -166.760961 
L 499.921193 -166.417133 
L 500.798168 -166.13532 
L 501.675144 -165.83833 
L 502.552119 -165.559014 
L 503.429095 -165.303849 
L 504.30607 -165.090315 
L 505.183045 -164.888792 
L 506.060021 -164.720217 
L 506.936996 -164.560138 
L 507.813972 -164.448066 
L 508.690947 -164.334346 
L 509.567922 -164.254684 
L 510.444898 -164.182777 
L 511.321873 -164.140841 
L 511.321873 -64.289041 
L 511.321873 -64.289041 
L 510.444898 -64.289041 
L 509.567922 -64.289041 
L 508.690947 -64.289041 
L 507.813972 -64.289041 
L 506.936996 -64.289041 
L 506.060021 -64.289041 
L 505.183045 -64.289041 
L 504.30607 -64.289041 
L 503.429095 -64.289041 
L 502.552119 -64.289041 
L 501.675144 -64.289041 
L 500.798168 -64.289041 
L 499.921193 -64.289041 
L 499.044218 -64.289041 
L 498.167242 -64.289041 
L 497.290267 -64.289041 
L 496.413291 -64.289041 
L 495.536316 -64.289041 
L 494.659341 -64.289041 
L 493.782365 -64.289041 
L 492.90539 -64.289041 
L 492.028414 -64.289041 
L 491.151439 -64.289041 
L 490.274464 -64.289041 
L 489.397488 -64.289041 
L 488.520513 -64.289041 
L 487.643537 -64.289041 
L 486.766562 -64.289041 
L 485.889586 -64.289041 
L 485.012611 -64.289041 
L 484.135636 -64.289041 
L 483.25866 -64.289041 
L 482.381685 -64.289041 
L 481.504709 -64.289041 
L 480.627734 -64.289041 
L 479.750759 -64.289041 
L 478.873783 -64.289041 
L 477.996808 -64.289041 
L 477.119832 -64.289041 
L 476.242857 -64.289041 
L 475.365882 -64.289041 
L 474.488906 -64.289041 
L 473.611931 -64.289041 
L 472.734955 -64.289041 
L 471.85798 -64.289041 
L 470.981005 -64.289041 
L 470.104029 -64.289041 
L 469.227054 -64.289041 
L 468.350078 -64.289041 
L 467.473103 -64.289041 
L 466.596128 -64.289041 
L 465.719152 -64.289041 
L 464.842177 -64.289041 
L 463.965201 -64.289041 
L 463.088226 -64.289041 
L 462.21125 -64.289041 
L 461.334275 -64.289041 
L 460.4573 -64.289041 
L 459.580324 -64.289041 
L 458.703349 -64.289041 
L 457.826373 -64.289041 
L 456.949398 -64.289041 
L 456.072423 -64.289041 
L 455.195447 -64.289041 
L 454.318472 -64.289041 
L 453.441496 -64.289041 
L 452.564521 -64.289041 
L 451.687546 -64.289041 
L 450.81057 -64.289041 
L 449.933595 -64.289041 
L 449.056619 -64.289041 
L 448.179644 -64.289041 
L 447.302669 -64.289041 
L 446.425693 -64.289041 
L 445.548718 -64.289041 
L 444.671742 -64.289041 
L 443.794767 -64.289041 
L 442.917792 -64.289041 
L 442.040816 -64.289041 
L 441.163841 -64.289041 
L 440.286865 -64.289041 
L 439.40989 -64.289041 
L 438.532915 -64.289041 
L 437.655939 -64.289041 
L 436.778964 -64.289041 
L 435.901988 -64.289041 
L 435.025013 -64.289041 
L 434.148037 -64.289041 
L 433.271062 -64.289041 
L 432.394087 -64.289041 
L 431.517111 -64.289041 
L 430.640136 -64.289041 
L 429.76316 -64.289041 
L 428.886185 -64.289041 
L 428.00921 -64.289041 
L 427.132234 -64.289041 
L 426.255259 -64.289041 
L 425.378283 -64.289041 
L 424.501308 -64.289041 
L 423.624333 -64.289041 
L 422.747357 -64.289041 
L 421.870382 -64.289041 
L 420.993406 -64.289041 
L 420.116431 -64.289041 
L 419.239456 -64.289041 
L 418.36248 -64.289041 
L 417.485505 -64.289041 
L 416.608529 -64.289041 
L 415.731554 -64.289041 
L 414.854579 -64.289041 
L 413.977603 -64.289041 
L 413.100628 -64.289041 
L 412.223652 -64.289041 
L 411.346677 -64.289041 
L 410.469701 -64.289041 
L 409.592726 -64.289041 
L 408.715751 -64.289041 
L 407.838775 -64.289041 
L 406.9618 -64.289041 
L 406.084824 -64.289041 
L 405.207849 -64.289041 
L 404.330874 -64.289041 
L 403.453898 -64.289041 
L 402.576923 -64.289041 
L 401.699947 -64.289041 
L 400.822972 -64.289041 
L 399.945997 -64.289041 
L 399.069021 -64.289041 
L 398.192046 -64.289041 
L 397.31507 -64.289041 
L 396.438095 -64.289041 
L 395.56112 -64.289041 
L 394.684144 -64.289041 
L 393.807169 -64.289041 
L 392.930193 -64.289041 
L 392.053218 -64.289041 
L 391.176243 -64.289041 
L 390.299267 -64.289041 
L 389.422292 -64.289041 
L 388.545316 -64.289041 
L 387.668341 -64.289041 
L 386.791366 -64.289041 
L 385.91439 -64.289041 
L 385.037415 -64.289041 
L 384.160439 -64.289041 
L 383.283464 -64.289041 
L 382.406488 -64.289041 
L 381.529513 -64.289041 
L 380.652538 -64.289041 
L 379.775562 -64.289041 
L 378.898587 -64.289041 
L 378.021611 -64.289041 
L 377.144636 -64.289041 
L 376.267661 -64.289041 
L 375.390685 -64.289041 
L 374.51371 -64.289041 
L 373.636734 -64.289041 
L 372.759759 -64.289041 
L 371.882784 -64.289041 
L 371.005808 -64.289041 
L 370.128833 -64.289041 
L 369.251857 -64.289041 
L 368.374882 -64.289041 
L 367.497907 -64.289041 
L 366.620931 -64.289041 
L 365.743956 -64.289041 
L 364.86698 -64.289041 
L 363.990005 -64.289041 
L 363.11303 -64.289041 
L 362.236054 -64.289041 
L 361.359079 -64.289041 
L 360.482103 -64.289041 
L 359.605128 -64.289041 
L 358.728152 -64.289041 
L 357.851177 -64.289041 
L 356.974202 -64.289041 
L 356.097226 -64.289041 
L 355.220251 -64.289041 
L 354.343275 -64.289041 
L 353.4663 -64.289041 
L 352.589325 -64.289041 
L 351.712349 -64.289041 
L 350.835374 -64.289041 
L 349.958398 -64.289041 
L 349.081423 -64.289041 
L 348.204448 -64.289041 
L 347.327472 -64.289041 
L 346.450497 -64.289041 
L 345.573521 -64.289041 
L 344.696546 -64.289041 
L 343.819571 -64.289041 
L 342.942595 -64.289041 
L 342.06562 -64.289041 
L 341.188644 -64.289041 
L 340.311669 -64.289041 
L 339.434694 -64.289041 
L 338.557718 -64.289041 
L 337.680743 -64.289041 
L 336.803767 -64.289041 
L 335.926792 -64.289041 
L 335.049817 -64.289041 
L 334.172841 -64.289041 
L 333.295866 -64.289041 
L 332.41889 -64.289041 
L 331.541915 -64.289041 
L 330.664939 -64.289041 
L 329.787964 -64.289041 
L 328.910989 -64.289041 
L 328.034013 -64.289041 
L 327.157038 -64.289041 
L 326.280062 -64.289041 
L 325.403087 -64.289041 
L 324.526112 -64.289041 
L 323.649136 -64.289041 
L 322.772161 -64.289041 
L 321.895185 -64.289041 
L 321.01821 -64.289041 
L 320.141235 -64.289041 
L 319.264259 -64.289041 
L 318.387284 -64.289041 
L 317.510308 -64.289041 
L 316.633333 -64.289041 
L 315.756358 -64.289041 
L 314.879382 -64.289041 
L 314.002407 -64.289041 
L 313.125431 -64.289041 
L 312.248456 -64.289041 
L 311.371481 -64.289041 
L 310.494505 -64.289041 
L 309.61753 -64.289041 
L 308.740554 -64.289041 
L 307.863579 -64.289041 
L 306.986603 -64.289041 
L 306.109628 -64.289041 
L 305.232653 -64.289041 
L 304.355677 -64.289041 
L 303.478702 -64.289041 
L 302.601726 -64.289041 
L 301.724751 -64.289041 
L 300.847776 -64.289041 
L 299.9708 -64.289041 
L 299.093825 -64.289041 
L 298.216849 -64.289041 
L 297.339874 -64.289041 
L 296.462899 -64.289041 
L 295.585923 -64.289041 
L 294.708948 -64.289041 
L 293.831972 -64.289041 
L 292.954997 -64.289041 
L 292.078022 -64.289041 
L 291.201046 -64.289041 
L 290.324071 -64.289041 
L 289.447095 -64.289041 
L 288.57012 -64.289041 
L 287.693145 -64.289041 
L 286.816169 -64.289041 
L 285.939194 -64.289041 
L 285.062218 -64.289041 
L 284.185243 -64.289041 
L 283.308268 -64.289041 
L 282.431292 -64.289041 
L 281.554317 -64.289041 
L 280.677341 -64.289041 
L 279.800366 -64.289041 
L 278.92339 -64.289041 
L 278.046415 -64.289041 
L 277.16944 -64.289041 
L 276.292464 -64.289041 
L 275.415489 -64.289041 
L 274.538513 -64.289041 
L 273.661538 -64.289041 
L 272.784563 -64.289041 
L 271.907587 -64.289041 
L 271.030612 -64.289041 
L 270.153636 -64.289041 
L 269.276661 -64.289041 
L 268.399686 -64.289041 
L 267.52271 -64.289041 
L 266.645735 -64.289041 
L 265.768759 -64.289041 
L 264.891784 -64.289041 
L 264.014809 -64.289041 
L 263.137833 -64.289041 
L 262.260858 -64.289041 
L 261.383882 -64.289041 
L 260.506907 -64.289041 
L 259.629932 -64.289041 
L 258.752956 -64.289041 
L 257.875981 -64.289041 
L 256.999005 -64.289041 
L 256.12203 -64.289041 
L 255.245054 -64.289041 
L 254.368079 -64.289041 
L 253.491104 -64.289041 
L 252.614128 -64.289041 
L 251.737153 -64.289041 
L 250.860177 -64.289041 
L 249.983202 -64.289041 
L 249.106227 -64.289041 
L 248.229251 -64.289041 
L 247.352276 -64.289041 
L 246.4753 -64.289041 
L 245.598325 -64.289041 
L 244.72135 -64.289041 
L 243.844374 -64.289041 
L 242.967399 -64.289041 
L 242.090423 -64.289041 
L 241.213448 -64.289041 
L 240.336473 -64.289041 
L 239.459497 -64.289041 
L 238.582522 -64.289041 
L 237.705546 -64.289041 
L 236.828571 -64.289041 
L 235.951596 -64.289041 
L 235.07462 -64.289041 
L 234.197645 -64.289041 
L 233.320669 -64.289041 
L 232.443694 -64.289041 
L 231.566719 -64.289041 
L 230.689743 -64.289041 
L 229.812768 -64.289041 
L 228.935792 -64.289041 
L 228.058817 -64.289041 
L 227.181841 -64.289041 
L 226.304866 -64.289041 
L 225.427891 -64.289041 
L 224.550915 -64.289041 
L 223.67394 -64.289041 
L 222.796964 -64.289041 
L 221.919989 -64.289041 
L 221.043014 -64.289041 
L 220.166038 -64.289041 
L 219.289063 -64.289041 
L 218.412087 -64.289041 
L 217.535112 -64.289041 
L 216.658137 -64.289041 
L 215.781161 -64.289041 
L 214.904186 -64.289041 
L 214.02721 -64.289041 
L 213.150235 -64.289041 
L 212.27326 -64.289041 
L 211.396284 -64.289041 
L 210.519309 -64.289041 
L 209.642333 -64.289041 
L 208.765358 -64.289041 
L 207.888383 -64.289041 
L 207.011407 -64.289041 
L 206.134432 -64.289041 
L 205.257456 -64.289041 
L 204.380481 -64.289041 
L 203.503505 -64.289041 
L 202.62653 -64.289041 
L 201.749555 -64.289041 
L 200.872579 -64.289041 
L 199.995604 -64.289041 
L 199.118628 -64.289041 
L 198.241653 -64.289041 
L 197.364678 -64.289041 
L 196.487702 -64.289041 
L 195.610727 -64.289041 
L 194.733751 -64.289041 
L 193.856776 -64.289041 
L 192.979801 -64.289041 
L 192.102825 -64.289041 
L 191.22585 -64.289041 
L 190.348874 -64.289041 
L 189.471899 -64.289041 
L 188.594924 -64.289041 
L 187.717948 -64.289041 
L 186.840973 -64.289041 
L 185.963997 -64.289041 
L 185.087022 -64.289041 
L 184.210047 -64.289041 
L 183.333071 -64.289041 
L 182.456096 -64.289041 
L 181.57912 -64.289041 
L 180.702145 -64.289041 
L 179.82517 -64.289041 
L 178.948194 -64.289041 
L 178.071219 -64.289041 
L 177.194243 -64.289041 
L 176.317268 -64.289041 
L 175.440292 -64.289041 
L 174.563317 -64.289041 
L 173.686342 -64.289041 
L 172.809366 -64.289041 
L 171.932391 -64.289041 
L 171.055415 -64.289041 
L 170.17844 -64.289041 
L 169.301465 -64.289041 
L 168.424489 -64.289041 
L 167.547514 -64.289041 
L 166.670538 -64.289041 
L 165.793563 -64.289041 
L 164.916588 -64.289041 
L 164.039612 -64.289041 
L 163.162637 -64.289041 
L 162.285661 -64.289041 
L 161.408686 -64.289041 
L 160.531711 -64.289041 
L 159.654735 -64.289041 
L 158.77776 -64.289041 
L 157.900784 -64.289041 
L 157.023809 -64.289041 
L 156.146834 -64.289041 
L 155.269858 -64.289041 
L 154.392883 -64.289041 
L 153.515907 -64.289041 
L 152.638932 -64.289041 
L 151.761956 -64.289041 
L 150.884981 -64.289041 
L 150.008006 -64.289041 
L 149.13103 -64.289041 
L 148.254055 -64.289041 
L 147.377079 -64.289041 
L 146.500104 -64.289041 
L 145.623129 -64.289041 
L 144.746153 -64.289041 
L 143.869178 -64.289041 
L 142.992202 -64.289041 
L 142.115227 -64.289041 
L 141.238252 -64.289041 
L 140.361276 -64.289041 
L 139.484301 -64.289041 
L 138.607325 -64.289041 
L 137.73035 -64.289041 
L 136.853375 -64.289041 
L 135.976399 -64.289041 
L 135.099424 -64.289041 
L 134.222448 -64.289041 
L 133.345473 -64.289041 
L 132.468498 -64.289041 
L 131.591522 -64.289041 
L 130.714547 -64.289041 
L 129.837571 -64.289041 
L 128.960596 -64.289041 
L 128.083621 -64.289041 
L 127.206645 -64.289041 
L 126.32967 -64.289041 
L 125.452694 -64.289041 
L 124.575719 -64.289041 
L 123.698743 -64.289041 
L 122.821768 -64.289041 
L 121.944793 -64.289041 
L 121.067817 -64.289041 
L 120.190842 -64.289041 
L 119.313866 -64.289041 
L 118.436891 -64.289041 
L 117.559916 -64.289041 
L 116.68294 -64.289041 
L 115.805965 -64.289041 
L 114.928989 -64.289041 
L 114.052014 -64.289041 
L 113.175039 -64.289041 
L 112.298063 -64.289041 
L 111.421088 -64.289041 
L 110.544112 -64.289041 
L 109.667137 -64.289041 
L 108.790162 -64.289041 
L 107.913186 -64.289041 
L 107.036211 -64.289041 
L 106.159235 -64.289041 
L 105.28226 -64.289041 
L 104.405285 -64.289041 
L 103.528309 -64.289041 
L 102.651334 -64.289041 
L 101.774358 -64.289041 
L 100.897383 -64.289041 
L 100.020407 -64.289041 
L 99.143432 -64.289041 
L 98.266457 -64.289041 
L 97.389481 -64.289041 
L 96.512506 -64.289041 
L 95.63553 -64.289041 
L 94.758555 -64.289041 
L 93.88158 -64.289041 
L 93.004604 -64.289041 
L 92.127629 -64.289041 
L 91.250653 -64.289041 
L 90.373678 -64.289041 
L 89.496703 -64.289041 
L 88.619727 -64.289041 
L 87.742752 -64.289041 
L 86.865776 -64.289041 
L 85.988801 -64.289041 
L 85.111826 -64.289041 
L 84.23485 -64.289041 
L 83.357875 -64.289041 
L 82.480899 -64.289041 
L 81.603924 -64.289041 
L 80.726949 -64.289041 
L 79.849973 -64.289041 
L 78.972998 -64.289041 
L 78.096022 -64.289041 
L 77.219047 -64.289041 
L 76.342072 -64.289041 
L 75.465096 -64.289041 
L 74.588121 -64.289041 
L 73.711145 -64.289041 
L 72.83417 -64.289041 
L 71.957194 -64.289041 
L 71.080219 -64.289041 
L 70.203244 -64.289041 
L 69.326268 -64.289041 
L 68.449293 -64.289041 
L 67.572317 -64.289041 
L 66.695342 -64.289041 
L 65.818367 -64.289041 
L 64.941391 -64.289041 
L 64.064416 -64.289041 
L 63.18744 -64.289041 
z
" style="stroke: #6cb7ff; stroke-opacity: 0.6; stroke-width: 0.3"/>
    </defs>
    <g clip-path="url(#p7f81911f21)">
     <use xlink:href="#m2eb660852d" x="0" y="432" style="fill: #6cb7ff; fill-opacity: 0.6; stroke: #6cb7ff; stroke-opacity: 0.6; stroke-width: 0.3"/>
    </g>
   </g>
   <g id="line2d_13">
    <path d="M 63.18744 267.170514 
L 65.818367 267.057682 
L 68.449293 266.699786 
L 71.957194 265.882081 
L 73.711145 265.297054 
L 76.342072 264.27685 
L 78.972998 263.068654 
L 82.480899 261.078109 
L 85.988801 258.777252 
L 90.373678 255.508607 
L 94.758555 251.862403 
L 98.266457 248.685204 
L 101.774358 245.361504 
L 110.544112 236.310143 
L 114.928989 231.279908 
L 119.313866 225.870251 
L 122.821768 221.204613 
L 126.32967 216.253041 
L 130.714547 209.598776 
L 135.099424 202.564717 
L 150.008006 178.234152 
L 153.515907 172.984753 
L 157.023809 168.149005 
L 160.531711 163.706678 
L 164.916588 158.623304 
L 169.301465 153.973766 
L 173.686342 149.58827 
L 183.333071 140.061754 
L 188.594924 134.588366 
L 202.62653 119.785361 
L 206.134432 116.488999 
L 208.765358 114.260502 
L 213.150235 110.968301 
L 215.781161 109.382383 
L 218.412087 108.034597 
L 222.796964 106.228909 
L 225.427891 105.424439 
L 230.689743 104.315686 
L 238.582522 102.977593 
L 244.72135 101.462487 
L 248.229251 100.201586 
L 249.983202 99.464363 
L 253.491104 97.695307 
L 256.12203 96.113608 
L 259.629932 93.689353 
L 264.014809 90.213456 
L 267.52271 87.160969 
L 280.677341 75.551117 
L 283.308268 73.535309 
L 285.939194 71.733195 
L 288.57012 70.17864 
L 292.078022 68.446731 
L 294.708948 67.409679 
L 296.462899 66.901535 
L 299.093825 66.445125 
L 301.724751 66.266873 
L 304.355677 66.286449 
L 306.986603 66.543991 
L 310.494505 67.297046 
L 313.125431 68.035056 
L 317.510308 69.66542 
L 321.895185 71.623301 
L 326.280062 73.913924 
L 330.664939 76.568955 
L 333.295866 78.329337 
L 338.557718 82.32754 
L 342.06562 85.343326 
L 345.573521 88.651684 
L 349.081423 92.347698 
L 352.589325 96.272801 
L 357.851177 102.746289 
L 365.743956 112.997538 
L 372.759759 122.04826 
L 378.898587 129.502868 
L 384.160439 135.516618 
L 388.545316 140.311261 
L 394.684144 146.940108 
L 399.945997 152.803987 
L 406.084824 160.173528 
L 410.469701 165.797092 
L 418.36248 176.570293 
L 431.517111 195.02925 
L 439.40989 205.502287 
L 446.425693 214.313757 
L 457.826373 228.090316 
L 468.350078 240.238213 
L 475.365882 247.787997 
L 480.627734 252.947829 
L 484.135636 255.994715 
L 486.766562 258.101072 
L 490.274464 260.608244 
L 492.90539 262.247661 
L 495.536316 263.656712 
L 498.167242 264.890072 
L 500.798168 265.86468 
L 503.429095 266.696151 
L 506.936996 267.439862 
L 510.444898 267.817223 
L 511.321873 267.859159 
L 511.321873 267.859159 
" clip-path="url(#p7f81911f21)" style="fill: none; stroke: #7570b3; stroke-width: 2; stroke-linecap: round"/>
   </g>
   <g id="line2d_14">
    <path d="M 63.18744 368.716364 
L 63.18744 267.170514 
" clip-path="url(#p7f81911f21)" style="fill: none; stroke: #7570b3; stroke-width: 2; stroke-linecap: round"/>
   </g>
   <g id="line2d_15">
    <path d="M 511.321873 368.709477 
L 511.321873 267.859159 
" clip-path="url(#p7f81911f21)" style="fill: none; stroke: #7570b3; stroke-width: 2; stroke-linecap: round"/>
   </g>
   <g id="line2d_16">
    <defs>
     <path id="me80c5e4161" d="M 0 3.5 
C 0.928211 3.5 1.81853 3.131218 2.474874 2.474874 
C 3.131218 1.81853 3.5 0.928211 3.5 0 
C 3.5 -0.928211 3.131218 -1.81853 2.474874 -2.474874 
C 1.81853 -3.131218 0.928211 -3.5 0 -3.5 
C -0.928211 -3.5 -1.81853 -3.131218 -2.474874 -2.474874 
C -3.131218 -1.81853 -3.5 -0.928211 -3.5 0 
C -3.5 0.928211 -3.131218 1.81853 -2.474874 2.474874 
C -1.81853 3.131218 -0.928211 3.5 0 3.5 
z
"/>
    </defs>
    <g clip-path="url(#p7f81911f21)">
     <use xlink:href="#me80c5e4161" x="288.733794" y="367.710959" style="fill: #7570b3"/>
    </g>
   </g>
   <g id="patch_3">
    <path d="M 40.780719 383.84 
L 533.728595 383.84 
" style="fill: none; stroke: #333333; stroke-width: 1.5; stroke-linejoin: miter; stroke-linecap: square"/>
   </g>
   <g id="text_7">
    <!-- $x_1x_3$ -->
    <g style="fill: #262626" transform="translate(257.434657 45.12)">
     <text>
      <tspan x="0" y="-0.6875" style="font-style: oblique; font-size: 28px; font-family: 'DejaVu Sans'; fill: #262626">x</tspan>
      <tspan x="29.806055" y="-0.6875" style="font-style: oblique; font-size: 28px; font-family: 'DejaVu Sans'; fill: #262626">x</tspan>
      <tspan x="16.570312" y="3.90625" style="font-size: 19.6px; font-family: 'DejaVu Sans'; fill: #262626">1</tspan>
      <tspan x="46.376367" y="3.90625" style="font-size: 19.6px; font-family: 'DejaVu Sans'; fill: #262626">3</tspan>
     </text>
    </g>
   </g>
  </g>
 </g>
 <defs>
  <clipPath id="p7f81911f21">
   <rect x="40.780719" y="51.12" width="492.947876" height="332.72"/>
  </clipPath>
 </defs>
</svg>
