<?xml version="1.0" encoding="utf-8" standalone="no"?>
<!DOCTYPE svg PUBLIC "-//W3C//DTD SVG 1.1//EN"
  "http://www.w3.org/Graphics/SVG/1.1/DTD/svg11.dtd">
<svg xmlns:xlink="http://www.w3.org/1999/xlink" width="576pt" height="432pt" viewBox="0 0 576 432" xmlns="http://www.w3.org/2000/svg" version="1.1">
 <metadata>
  <rdf:RDF xmlns:dc="http://purl.org/dc/elements/1.1/" xmlns:cc="http://creativecommons.org/ns#" xmlns:rdf="http://www.w3.org/1999/02/22-rdf-syntax-ns#">
   <cc:Work>
    <dc:type rdf:resource="http://purl.org/dc/dcmitype/StillImage"/>
    <dc:date>2025-09-22T23:00:34.678568</dc:date>
    <dc:format>image/svg+xml</dc:format>
    <dc:creator>
     <cc:Agent>
      <dc:title>Matplotlib v3.10.0, https://matplotlib.org/</dc:title>
     </cc:Agent>
    </dc:creator>
   </cc:Work>
  </rdf:RDF>
 </metadata>
 <defs>
  <style type="text/css">*{stroke-linejoin: round; stroke-linecap: butt}</style>
 </defs>
 <g id="figure_1">
  <g id="patch_1">
   <path d="M 0 432 
L 576 432 
L 576 0 
L 0 0 
L 0 432 
z
" style="fill: none; opacity: 0"/>
  </g>
  <g id="axes_1">
   <g id="patch_2">
    <path d="M 29.946488 383.84 
L 552.24 383.84 
L 552.24 57.42 
L 29.946488 57.42 
L 29.946488 383.84 
z
" style="fill: none"/>
   </g>
   <g id="matplotlib.axis_1">
    <g id="xtick_1">
     <g id="line2d_1">
      <path d="M 54.965461 383.84 
L 54.965461 57.42 
" clip-path="url(#p67d0f4cc99)" style="fill: none; stroke: #ffffff; stroke-opacity: 0.4; stroke-linecap: round"/>
     </g>
     <g id="line2d_2"/>
     <g id="text_1">
      <text style="font-size: 18px; font-family: 'DejaVu Serif', 'Times New Roman', serif; text-anchor: middle; fill: #262626" x="54.965461" y="404.517187" transform="rotate(-0 54.965461 404.517187)">−0.06</text>
     </g>
    </g>
    <g id="xtick_2">
     <g id="line2d_3">
      <path d="M 142.082889 383.84 
L 142.082889 57.42 
" clip-path="url(#p67d0f4cc99)" style="fill: none; stroke: #ffffff; stroke-opacity: 0.4; stroke-linecap: round"/>
     </g>
     <g id="line2d_4"/>
     <g id="text_2">
      <text style="font-size: 18px; font-family: 'DejaVu Serif', 'Times New Roman', serif; text-anchor: middle; fill: #262626" x="142.082889" y="404.517187" transform="rotate(-0 142.082889 404.517187)">−0.04</text>
     </g>
    </g>
    <g id="xtick_3">
     <g id="line2d_5">
      <path d="M 229.200317 383.84 
L 229.200317 57.42 
" clip-path="url(#p67d0f4cc99)" style="fill: none; stroke: #ffffff; stroke-opacity: 0.4; stroke-linecap: round"/>
     </g>
     <g id="line2d_6"/>
     <g id="text_3">
      <text style="font-size: 18px; font-family: 'DejaVu Serif', 'Times New Roman', serif; text-anchor: middle; fill: #262626" x="229.200317" y="404.517187" transform="rotate(-0 229.200317 404.517187)">−0.02</text>
     </g>
    </g>
    <g id="xtick_4">
     <g id="line2d_7">
      <path d="M 316.317745 383.84 
L 316.317745 57.42 
" clip-path="url(#p67d0f4cc99)" style="fill: none; stroke: #ffffff; stroke-opacity: 0.4; stroke-linecap: round"/>
     </g>
     <g id="line2d_8"/>
     <g id="text_4">
      <text style="font-size: 18px; font-family: 'DejaVu Serif', 'Times New Roman', serif; text-anchor: middle; fill: #262626" x="316.317745" y="404.517187" transform="rotate(-0 316.317745 404.517187)">0.00</text>
     </g>
    </g>
    <g id="xtick_5">
     <g id="line2d_9">
      <path d="M 403.435173 383.84 
L 403.435173 57.42 
" clip-path="url(#p67d0f4cc99)" style="fill: none; stroke: #ffffff; stroke-opacity: 0.4; stroke-linecap: round"/>
     </g>
     <g id="line2d_10"/>
     <g id="text_5">
      <text style="font-size: 18px; font-family: 'DejaVu Serif', 'Times New Roman', serif; text-anchor: middle; fill: #262626" x="403.435173" y="404.517187" transform="rotate(-0 403.435173 404.517187)">0.02</text>
     </g>
    </g>
    <g id="xtick_6">
     <g id="line2d_11">
      <path d="M 490.552601 383.84 
L 490.552601 57.42 
" clip-path="url(#p67d0f4cc99)" style="fill: none; stroke: #ffffff; stroke-opacity: 0.4; stroke-linecap: round"/>
     </g>
     <g id="line2d_12"/>
     <g id="text_6">
      <text style="font-size: 18px; font-family: 'DejaVu Serif', 'Times New Roman', serif; text-anchor: middle; fill: #262626" x="490.552601" y="404.517187" transform="rotate(-0 490.552601 404.517187)">0.04</text>
     </g>
    </g>
   </g>
   <g id="matplotlib.axis_2"/>
   <g id="FillBetweenPolyCollection_1">
    <defs>
     <path id="mb90d37fff6" d="M 53.687103 -64.157828 
L 53.687103 -180.213397 
L 54.616285 -180.211713 
L 55.545468 -180.230301 
L 56.47465 -180.271496 
L 57.403833 -180.332923 
L 58.333015 -180.415109 
L 59.262198 -180.517778 
L 60.19138 -180.622814 
L 61.120563 -180.766429 
L 62.049745 -180.90903 
L 62.978928 -181.074006 
L 63.908111 -181.254064 
L 64.837293 -181.481336 
L 65.766476 -181.697636 
L 66.695658 -181.960394 
L 67.624841 -182.235596 
L 68.554023 -182.525326 
L 69.483206 -182.84664 
L 70.412388 -183.183156 
L 71.341571 -183.547418 
L 72.270754 -183.919562 
L 73.199936 -184.339271 
L 74.129119 -184.750175 
L 75.058301 -185.186846 
L 75.987484 -185.634163 
L 76.916666 -186.110612 
L 77.845849 -186.647831 
L 78.775031 -187.168704 
L 79.704214 -187.716781 
L 80.633396 -188.281771 
L 81.562579 -188.890123 
L 82.491762 -189.51684 
L 83.420944 -190.159062 
L 84.350127 -190.84911 
L 85.279309 -191.536962 
L 86.208492 -192.272079 
L 87.137674 -193.028751 
L 88.066857 -193.80608 
L 88.996039 -194.609635 
L 89.925222 -195.439753 
L 90.854405 -196.281959 
L 91.783587 -197.1421 
L 92.71277 -198.028103 
L 93.641952 -198.935927 
L 94.571135 -199.857369 
L 95.500317 -200.817446 
L 96.4295 -201.77402 
L 97.358682 -202.77532 
L 98.287865 -203.789426 
L 99.217048 -204.815066 
L 100.14623 -205.830349 
L 101.075413 -206.89475 
L 102.004595 -207.9672 
L 102.933778 -209.059721 
L 103.86296 -210.181109 
L 104.792143 -211.315032 
L 105.721325 -212.468027 
L 106.650508 -213.621184 
L 107.57969 -214.787455 
L 108.508873 -215.984371 
L 109.438056 -217.175858 
L 110.367238 -218.378161 
L 111.296421 -219.58919 
L 112.225603 -220.80793 
L 113.154786 -222.069096 
L 114.083968 -223.317568 
L 115.013151 -224.593884 
L 115.942333 -225.866654 
L 116.871516 -227.148158 
L 117.800699 -228.430617 
L 118.729881 -229.750631 
L 119.659064 -231.063002 
L 120.588246 -232.387527 
L 121.517429 -233.727699 
L 122.446611 -235.05964 
L 123.375794 -236.400249 
L 124.304976 -237.759458 
L 125.234159 -239.122703 
L 126.163341 -240.486055 
L 127.092524 -241.863137 
L 128.021707 -243.2537 
L 128.950889 -244.618538 
L 129.880072 -246.016112 
L 130.809254 -247.415816 
L 131.738437 -248.832543 
L 132.667619 -250.227453 
L 133.596802 -251.647444 
L 134.525984 -253.097123 
L 135.455167 -254.51316 
L 136.38435 -255.945721 
L 137.313532 -257.396466 
L 138.242715 -258.851094 
L 139.171897 -260.301825 
L 140.10108 -261.773673 
L 141.030262 -263.216651 
L 141.959445 -264.682158 
L 142.888627 -266.138551 
L 143.81781 -267.603743 
L 144.746992 -269.070672 
L 145.676175 -270.53295 
L 146.605358 -271.974315 
L 147.53454 -273.41116 
L 148.463723 -274.857885 
L 149.392905 -276.292882 
L 150.322088 -277.718656 
L 151.25127 -279.137668 
L 152.180453 -280.555655 
L 153.109635 -281.952711 
L 154.038818 -283.334512 
L 154.968001 -284.714074 
L 155.897183 -286.109118 
L 156.826366 -287.47975 
L 157.755548 -288.823652 
L 158.684731 -290.16558 
L 159.613913 -291.502558 
L 160.543096 -292.827183 
L 161.472278 -294.153472 
L 162.401461 -295.431584 
L 163.330643 -296.705239 
L 164.259826 -297.970356 
L 165.189009 -299.223849 
L 166.118191 -300.451168 
L 167.047374 -301.680387 
L 167.976556 -302.907563 
L 168.905739 -304.108695 
L 169.834921 -305.296079 
L 170.764104 -306.472668 
L 171.693286 -307.618148 
L 172.622469 -308.774802 
L 173.551652 -309.911349 
L 174.480834 -311.028923 
L 175.410017 -312.106778 
L 176.339199 -313.207545 
L 177.268382 -314.291206 
L 178.197564 -315.332506 
L 179.126747 -316.356353 
L 180.055929 -317.383002 
L 180.985112 -318.404323 
L 181.914294 -319.427318 
L 182.843477 -320.443898 
L 183.77266 -321.447761 
L 184.701842 -322.400945 
L 185.631025 -323.381583 
L 186.560207 -324.342272 
L 187.48939 -325.275158 
L 188.418572 -326.197443 
L 189.347755 -327.095337 
L 190.276937 -327.979937 
L 191.20612 -328.872126 
L 192.135303 -329.73068 
L 193.064485 -330.601088 
L 193.993668 -331.426905 
L 194.92285 -332.245676 
L 195.852033 -333.071276 
L 196.781215 -333.887795 
L 197.710398 -334.659791 
L 198.63958 -335.435178 
L 199.568763 -336.201096 
L 200.497946 -336.923005 
L 201.427128 -337.629927 
L 202.356311 -338.316495 
L 203.285493 -338.974518 
L 204.214676 -339.626665 
L 205.143858 -340.275333 
L 206.073041 -340.885247 
L 207.002223 -341.459073 
L 207.931406 -342.014121 
L 208.860588 -342.570603 
L 209.789771 -343.110478 
L 210.718954 -343.670967 
L 211.648136 -344.167117 
L 212.577319 -344.66759 
L 213.506501 -345.169656 
L 214.435684 -345.615073 
L 215.364866 -346.044334 
L 216.294049 -346.464826 
L 217.223231 -346.867717 
L 218.152414 -347.258809 
L 219.081597 -347.658369 
L 220.010779 -348.024402 
L 220.939962 -348.375718 
L 221.869144 -348.717821 
L 222.798327 -349.079798 
L 223.727509 -349.411994 
L 224.656692 -349.708313 
L 225.585874 -350.016795 
L 226.515057 -350.307012 
L 227.444239 -350.619018 
L 228.373422 -350.897499 
L 229.302605 -351.188132 
L 230.231787 -351.475289 
L 231.16097 -351.747014 
L 232.090152 -352.034114 
L 233.019335 -352.273608 
L 233.948517 -352.504111 
L 234.8777 -352.749267 
L 235.806882 -352.984054 
L 236.736065 -353.230595 
L 237.665248 -353.500899 
L 238.59443 -353.740994 
L 239.523613 -353.989353 
L 240.452795 -354.250946 
L 241.381978 -354.504089 
L 242.31116 -354.734804 
L 243.240343 -354.980475 
L 244.169525 -355.220886 
L 245.098708 -355.459953 
L 246.02789 -355.706819 
L 246.957073 -355.971182 
L 247.886256 -356.179265 
L 248.815438 -356.400686 
L 249.744621 -356.620679 
L 250.673803 -356.835627 
L 251.602986 -357.032523 
L 252.532168 -357.231329 
L 253.461351 -357.438155 
L 254.390533 -357.616134 
L 255.319716 -357.800924 
L 256.248899 -357.974517 
L 257.178081 -358.156598 
L 258.107264 -358.321273 
L 259.036446 -358.484634 
L 259.965629 -358.64214 
L 260.894811 -358.794971 
L 261.823994 -358.930638 
L 262.753176 -359.044386 
L 263.682359 -359.165318 
L 264.611541 -359.264974 
L 265.540724 -359.33785 
L 266.469907 -359.437744 
L 267.399089 -359.496858 
L 268.328272 -359.54881 
L 269.257454 -359.597375 
L 270.186637 -359.641855 
L 271.115819 -359.675961 
L 272.045002 -359.695815 
L 272.974184 -359.725829 
L 273.903367 -359.742727 
L 274.83255 -359.721021 
L 275.761732 -359.717709 
L 276.690915 -359.677007 
L 277.620097 -359.638934 
L 278.54928 -359.573476 
L 279.478462 -359.528699 
L 280.407645 -359.447562 
L 281.336827 -359.338532 
L 282.26601 -359.242142 
L 283.195193 -359.113793 
L 284.124375 -358.954841 
L 285.053558 -358.815248 
L 285.98274 -358.646003 
L 286.911923 -358.468529 
L 287.841105 -358.296049 
L 288.770288 -358.096487 
L 289.69947 -357.872493 
L 290.628653 -357.627027 
L 291.557835 -357.381943 
L 292.487018 -357.139926 
L 293.416201 -356.866872 
L 294.345383 -356.611565 
L 295.274566 -356.310519 
L 296.203748 -356.012176 
L 297.132931 -355.695904 
L 298.062113 -355.375954 
L 298.991296 -355.017043 
L 299.920478 -354.658378 
L 300.849661 -354.281837 
L 301.778844 -353.891086 
L 302.708026 -353.467346 
L 303.637209 -353.052235 
L 304.566391 -352.649105 
L 305.495574 -352.19974 
L 306.424756 -351.758006 
L 307.353939 -351.282762 
L 308.283121 -350.794948 
L 309.212304 -350.336866 
L 310.141486 -349.837558 
L 311.070669 -349.339033 
L 311.999852 -348.826087 
L 312.929034 -348.31986 
L 313.858217 -347.786737 
L 314.787399 -347.229446 
L 315.716582 -346.701277 
L 316.645764 -346.17835 
L 317.574947 -345.639743 
L 318.504129 -345.09881 
L 319.433312 -344.568227 
L 320.362495 -344.025056 
L 321.291677 -343.464509 
L 322.22086 -342.930819 
L 323.150042 -342.38786 
L 324.079225 -341.857136 
L 325.008407 -341.345005 
L 325.93759 -340.838386 
L 326.866772 -340.301962 
L 327.795955 -339.75464 
L 328.725137 -339.218354 
L 329.65432 -338.668202 
L 330.583503 -338.143526 
L 331.512685 -337.641163 
L 332.441868 -337.113431 
L 333.37105 -336.588928 
L 334.300233 -336.101408 
L 335.229415 -335.620902 
L 336.158598 -335.144222 
L 337.08778 -334.682934 
L 338.016963 -334.188285 
L 338.946146 -333.726297 
L 339.875328 -333.249259 
L 340.804511 -332.782857 
L 341.733693 -332.322061 
L 342.662876 -331.872707 
L 343.592058 -331.413009 
L 344.521241 -330.961088 
L 345.450423 -330.505218 
L 346.379606 -330.039871 
L 347.308788 -329.599041 
L 348.237971 -329.155756 
L 349.167154 -328.704369 
L 350.096336 -328.257221 
L 351.025519 -327.769368 
L 351.954701 -327.284093 
L 352.883884 -326.807696 
L 353.813066 -326.319425 
L 354.742249 -325.8244 
L 355.671431 -325.311834 
L 356.600614 -324.784355 
L 357.529797 -324.208105 
L 358.458979 -323.651661 
L 359.388162 -323.073945 
L 360.317344 -322.47173 
L 361.246527 -321.896643 
L 362.175709 -321.296932 
L 363.104892 -320.667658 
L 364.034074 -320.011617 
L 364.963257 -319.351179 
L 365.892439 -318.673426 
L 366.821622 -317.954856 
L 367.750805 -317.239375 
L 368.679987 -316.490394 
L 369.60917 -315.705032 
L 370.538352 -314.901666 
L 371.467535 -314.080958 
L 372.396717 -313.241769 
L 373.3259 -312.378318 
L 374.255082 -311.470517 
L 375.184265 -310.563296 
L 376.113448 -309.629391 
L 377.04263 -308.652277 
L 377.971813 -307.652108 
L 378.900995 -306.631904 
L 379.830178 -305.600933 
L 380.75936 -304.558476 
L 381.688543 -303.495979 
L 382.617725 -302.399997 
L 383.546908 -301.256997 
L 384.476091 -300.086951 
L 385.405273 -298.920728 
L 386.334456 -297.724374 
L 387.263638 -296.500471 
L 388.192821 -295.270285 
L 389.122003 -294.041758 
L 390.051186 -292.776678 
L 390.980368 -291.497414 
L 391.909551 -290.209135 
L 392.838733 -288.912957 
L 393.767916 -287.589567 
L 394.697099 -286.290766 
L 395.626281 -284.965032 
L 396.555464 -283.660469 
L 397.484646 -282.327007 
L 398.413829 -280.978159 
L 399.343011 -279.631425 
L 400.272194 -278.282336 
L 401.201376 -276.948445 
L 402.130559 -275.571184 
L 403.059742 -274.246625 
L 403.988924 -272.893796 
L 404.918107 -271.545758 
L 405.847289 -270.202198 
L 406.776472 -268.84857 
L 407.705654 -267.518048 
L 408.634837 -266.206924 
L 409.564019 -264.922289 
L 410.493202 -263.624994 
L 411.422384 -262.346621 
L 412.351567 -261.081966 
L 413.28075 -259.78721 
L 414.209932 -258.54505 
L 415.139115 -257.299554 
L 416.068297 -256.069305 
L 416.99748 -254.851926 
L 417.926662 -253.641694 
L 418.855845 -252.448661 
L 419.785027 -251.267362 
L 420.71421 -250.095938 
L 421.643393 -248.96011 
L 422.572575 -247.83501 
L 423.501758 -246.728144 
L 424.43094 -245.619094 
L 425.360123 -244.529017 
L 426.289305 -243.447457 
L 427.218488 -242.394572 
L 428.14767 -241.348797 
L 429.076853 -240.319616 
L 430.006035 -239.308665 
L 430.935218 -238.304961 
L 431.864401 -237.302856 
L 432.793583 -236.330981 
L 433.722766 -235.342962 
L 434.651948 -234.368784 
L 435.581131 -233.418822 
L 436.510313 -232.492079 
L 437.439496 -231.562665 
L 438.368678 -230.626761 
L 439.297861 -229.701714 
L 440.227044 -228.806889 
L 441.156226 -227.883246 
L 442.085409 -226.980092 
L 443.014591 -226.078695 
L 443.943774 -225.171418 
L 444.872956 -224.267727 
L 445.802139 -223.387364 
L 446.731321 -222.488004 
L 447.660504 -221.617779 
L 448.589686 -220.727526 
L 449.518869 -219.847859 
L 450.448052 -218.957001 
L 451.377234 -218.058996 
L 452.306417 -217.174187 
L 453.235599 -216.285409 
L 454.164782 -215.406242 
L 455.093964 -214.528213 
L 456.023147 -213.650098 
L 456.952329 -212.803452 
L 457.881512 -211.920445 
L 458.810695 -211.035511 
L 459.739877 -210.152361 
L 460.66906 -209.260396 
L 461.598242 -208.365748 
L 462.527425 -207.454932 
L 463.456607 -206.539372 
L 464.38579 -205.639426 
L 465.314972 -204.744099 
L 466.244155 -203.819603 
L 467.173338 -202.914667 
L 468.10252 -202.017063 
L 469.031703 -201.105327 
L 469.960885 -200.188363 
L 470.890068 -199.280712 
L 471.81925 -198.358478 
L 472.748433 -197.439892 
L 473.677615 -196.541089 
L 474.606798 -195.62638 
L 475.53598 -194.72071 
L 476.465163 -193.824527 
L 477.394346 -192.915081 
L 478.323528 -191.98994 
L 479.252711 -191.069357 
L 480.181893 -190.174945 
L 481.111076 -189.263022 
L 482.040258 -188.360967 
L 482.969441 -187.444581 
L 483.898623 -186.535887 
L 484.827806 -185.648696 
L 485.756989 -184.759347 
L 486.686171 -183.869178 
L 487.615354 -183.01218 
L 488.544536 -182.136596 
L 489.473719 -181.269276 
L 490.402901 -180.420972 
L 491.332084 -179.587351 
L 492.261266 -178.7548 
L 493.190449 -177.939265 
L 494.119631 -177.113633 
L 495.048814 -176.312455 
L 495.977997 -175.529042 
L 496.907179 -174.749823 
L 497.836362 -173.98533 
L 498.765544 -173.222783 
L 499.694727 -172.463203 
L 500.623909 -171.752162 
L 501.553092 -171.04214 
L 502.482274 -170.343638 
L 503.411457 -169.678642 
L 504.34064 -169.034898 
L 505.269822 -168.398887 
L 506.199005 -167.788547 
L 507.128187 -167.180024 
L 508.05737 -166.581682 
L 508.986552 -166.025935 
L 509.915735 -165.495757 
L 510.844917 -164.96915 
L 511.7741 -164.469851 
L 512.703282 -163.979972 
L 513.632465 -163.52439 
L 514.561648 -163.070975 
L 515.49083 -162.676027 
L 516.420013 -162.306881 
L 517.349195 -161.950062 
L 518.278378 -161.628321 
L 519.20756 -161.317409 
L 520.136743 -161.036024 
L 521.065925 -160.784363 
L 521.995108 -160.551963 
L 522.924291 -160.332382 
L 523.853473 -160.167382 
L 524.782656 -160.028874 
L 525.711838 -159.905538 
L 526.641021 -159.825345 
L 527.570203 -159.746685 
L 528.499386 -159.694523 
L 528.499386 -64.157828 
L 528.499386 -64.157828 
L 527.570203 -64.157828 
L 526.641021 -64.157828 
L 525.711838 -64.157828 
L 524.782656 -64.157828 
L 523.853473 -64.157828 
L 522.924291 -64.157828 
L 521.995108 -64.157828 
L 521.065925 -64.157828 
L 520.136743 -64.157828 
L 519.20756 -64.157828 
L 518.278378 -64.157828 
L 517.349195 -64.157828 
L 516.420013 -64.157828 
L 515.49083 -64.157828 
L 514.561648 -64.157828 
L 513.632465 -64.157828 
L 512.703282 -64.157828 
L 511.7741 -64.157828 
L 510.844917 -64.157828 
L 509.915735 -64.157828 
L 508.986552 -64.157828 
L 508.05737 -64.157828 
L 507.128187 -64.157828 
L 506.199005 -64.157828 
L 505.269822 -64.157828 
L 504.34064 -64.157828 
L 503.411457 -64.157828 
L 502.482274 -64.157828 
L 501.553092 -64.157828 
L 500.623909 -64.157828 
L 499.694727 -64.157828 
L 498.765544 -64.157828 
L 497.836362 -64.157828 
L 496.907179 -64.157828 
L 495.977997 -64.157828 
L 495.048814 -64.157828 
L 494.119631 -64.157828 
L 493.190449 -64.157828 
L 492.261266 -64.157828 
L 491.332084 -64.157828 
L 490.402901 -64.157828 
L 489.473719 -64.157828 
L 488.544536 -64.157828 
L 487.615354 -64.157828 
L 486.686171 -64.157828 
L 485.756989 -64.157828 
L 484.827806 -64.157828 
L 483.898623 -64.157828 
L 482.969441 -64.157828 
L 482.040258 -64.157828 
L 481.111076 -64.157828 
L 480.181893 -64.157828 
L 479.252711 -64.157828 
L 478.323528 -64.157828 
L 477.394346 -64.157828 
L 476.465163 -64.157828 
L 475.53598 -64.157828 
L 474.606798 -64.157828 
L 473.677615 -64.157828 
L 472.748433 -64.157828 
L 471.81925 -64.157828 
L 470.890068 -64.157828 
L 469.960885 -64.157828 
L 469.031703 -64.157828 
L 468.10252 -64.157828 
L 467.173338 -64.157828 
L 466.244155 -64.157828 
L 465.314972 -64.157828 
L 464.38579 -64.157828 
L 463.456607 -64.157828 
L 462.527425 -64.157828 
L 461.598242 -64.157828 
L 460.66906 -64.157828 
L 459.739877 -64.157828 
L 458.810695 -64.157828 
L 457.881512 -64.157828 
L 456.952329 -64.157828 
L 456.023147 -64.157828 
L 455.093964 -64.157828 
L 454.164782 -64.157828 
L 453.235599 -64.157828 
L 452.306417 -64.157828 
L 451.377234 -64.157828 
L 450.448052 -64.157828 
L 449.518869 -64.157828 
L 448.589686 -64.157828 
L 447.660504 -64.157828 
L 446.731321 -64.157828 
L 445.802139 -64.157828 
L 444.872956 -64.157828 
L 443.943774 -64.157828 
L 443.014591 -64.157828 
L 442.085409 -64.157828 
L 441.156226 -64.157828 
L 440.227044 -64.157828 
L 439.297861 -64.157828 
L 438.368678 -64.157828 
L 437.439496 -64.157828 
L 436.510313 -64.157828 
L 435.581131 -64.157828 
L 434.651948 -64.157828 
L 433.722766 -64.157828 
L 432.793583 -64.157828 
L 431.864401 -64.157828 
L 430.935218 -64.157828 
L 430.006035 -64.157828 
L 429.076853 -64.157828 
L 428.14767 -64.157828 
L 427.218488 -64.157828 
L 426.289305 -64.157828 
L 425.360123 -64.157828 
L 424.43094 -64.157828 
L 423.501758 -64.157828 
L 422.572575 -64.157828 
L 421.643393 -64.157828 
L 420.71421 -64.157828 
L 419.785027 -64.157828 
L 418.855845 -64.157828 
L 417.926662 -64.157828 
L 416.99748 -64.157828 
L 416.068297 -64.157828 
L 415.139115 -64.157828 
L 414.209932 -64.157828 
L 413.28075 -64.157828 
L 412.351567 -64.157828 
L 411.422384 -64.157828 
L 410.493202 -64.157828 
L 409.564019 -64.157828 
L 408.634837 -64.157828 
L 407.705654 -64.157828 
L 406.776472 -64.157828 
L 405.847289 -64.157828 
L 404.918107 -64.157828 
L 403.988924 -64.157828 
L 403.059742 -64.157828 
L 402.130559 -64.157828 
L 401.201376 -64.157828 
L 400.272194 -64.157828 
L 399.343011 -64.157828 
L 398.413829 -64.157828 
L 397.484646 -64.157828 
L 396.555464 -64.157828 
L 395.626281 -64.157828 
L 394.697099 -64.157828 
L 393.767916 -64.157828 
L 392.838733 -64.157828 
L 391.909551 -64.157828 
L 390.980368 -64.157828 
L 390.051186 -64.157828 
L 389.122003 -64.157828 
L 388.192821 -64.157828 
L 387.263638 -64.157828 
L 386.334456 -64.157828 
L 385.405273 -64.157828 
L 384.476091 -64.157828 
L 383.546908 -64.157828 
L 382.617725 -64.157828 
L 381.688543 -64.157828 
L 380.75936 -64.157828 
L 379.830178 -64.157828 
L 378.900995 -64.157828 
L 377.971813 -64.157828 
L 377.04263 -64.157828 
L 376.113448 -64.157828 
L 375.184265 -64.157828 
L 374.255082 -64.157828 
L 373.3259 -64.157828 
L 372.396717 -64.157828 
L 371.467535 -64.157828 
L 370.538352 -64.157828 
L 369.60917 -64.157828 
L 368.679987 -64.157828 
L 367.750805 -64.157828 
L 366.821622 -64.157828 
L 365.892439 -64.157828 
L 364.963257 -64.157828 
L 364.034074 -64.157828 
L 363.104892 -64.157828 
L 362.175709 -64.157828 
L 361.246527 -64.157828 
L 360.317344 -64.157828 
L 359.388162 -64.157828 
L 358.458979 -64.157828 
L 357.529797 -64.157828 
L 356.600614 -64.157828 
L 355.671431 -64.157828 
L 354.742249 -64.157828 
L 353.813066 -64.157828 
L 352.883884 -64.157828 
L 351.954701 -64.157828 
L 351.025519 -64.157828 
L 350.096336 -64.157828 
L 349.167154 -64.157828 
L 348.237971 -64.157828 
L 347.308788 -64.157828 
L 346.379606 -64.157828 
L 345.450423 -64.157828 
L 344.521241 -64.157828 
L 343.592058 -64.157828 
L 342.662876 -64.157828 
L 341.733693 -64.157828 
L 340.804511 -64.157828 
L 339.875328 -64.157828 
L 338.946146 -64.157828 
L 338.016963 -64.157828 
L 337.08778 -64.157828 
L 336.158598 -64.157828 
L 335.229415 -64.157828 
L 334.300233 -64.157828 
L 333.37105 -64.157828 
L 332.441868 -64.157828 
L 331.512685 -64.157828 
L 330.583503 -64.157828 
L 329.65432 -64.157828 
L 328.725137 -64.157828 
L 327.795955 -64.157828 
L 326.866772 -64.157828 
L 325.93759 -64.157828 
L 325.008407 -64.157828 
L 324.079225 -64.157828 
L 323.150042 -64.157828 
L 322.22086 -64.157828 
L 321.291677 -64.157828 
L 320.362495 -64.157828 
L 319.433312 -64.157828 
L 318.504129 -64.157828 
L 317.574947 -64.157828 
L 316.645764 -64.157828 
L 315.716582 -64.157828 
L 314.787399 -64.157828 
L 313.858217 -64.157828 
L 312.929034 -64.157828 
L 311.999852 -64.157828 
L 311.070669 -64.157828 
L 310.141486 -64.157828 
L 309.212304 -64.157828 
L 308.283121 -64.157828 
L 307.353939 -64.157828 
L 306.424756 -64.157828 
L 305.495574 -64.157828 
L 304.566391 -64.157828 
L 303.637209 -64.157828 
L 302.708026 -64.157828 
L 301.778844 -64.157828 
L 300.849661 -64.157828 
L 299.920478 -64.157828 
L 298.991296 -64.157828 
L 298.062113 -64.157828 
L 297.132931 -64.157828 
L 296.203748 -64.157828 
L 295.274566 -64.157828 
L 294.345383 -64.157828 
L 293.416201 -64.157828 
L 292.487018 -64.157828 
L 291.557835 -64.157828 
L 290.628653 -64.157828 
L 289.69947 -64.157828 
L 288.770288 -64.157828 
L 287.841105 -64.157828 
L 286.911923 -64.157828 
L 285.98274 -64.157828 
L 285.053558 -64.157828 
L 284.124375 -64.157828 
L 283.195193 -64.157828 
L 282.26601 -64.157828 
L 281.336827 -64.157828 
L 280.407645 -64.157828 
L 279.478462 -64.157828 
L 278.54928 -64.157828 
L 277.620097 -64.157828 
L 276.690915 -64.157828 
L 275.761732 -64.157828 
L 274.83255 -64.157828 
L 273.903367 -64.157828 
L 272.974184 -64.157828 
L 272.045002 -64.157828 
L 271.115819 -64.157828 
L 270.186637 -64.157828 
L 269.257454 -64.157828 
L 268.328272 -64.157828 
L 267.399089 -64.157828 
L 266.469907 -64.157828 
L 265.540724 -64.157828 
L 264.611541 -64.157828 
L 263.682359 -64.157828 
L 262.753176 -64.157828 
L 261.823994 -64.157828 
L 260.894811 -64.157828 
L 259.965629 -64.157828 
L 259.036446 -64.157828 
L 258.107264 -64.157828 
L 257.178081 -64.157828 
L 256.248899 -64.157828 
L 255.319716 -64.157828 
L 254.390533 -64.157828 
L 253.461351 -64.157828 
L 252.532168 -64.157828 
L 251.602986 -64.157828 
L 250.673803 -64.157828 
L 249.744621 -64.157828 
L 248.815438 -64.157828 
L 247.886256 -64.157828 
L 246.957073 -64.157828 
L 246.02789 -64.157828 
L 245.098708 -64.157828 
L 244.169525 -64.157828 
L 243.240343 -64.157828 
L 242.31116 -64.157828 
L 241.381978 -64.157828 
L 240.452795 -64.157828 
L 239.523613 -64.157828 
L 238.59443 -64.157828 
L 237.665248 -64.157828 
L 236.736065 -64.157828 
L 235.806882 -64.157828 
L 234.8777 -64.157828 
L 233.948517 -64.157828 
L 233.019335 -64.157828 
L 232.090152 -64.157828 
L 231.16097 -64.157828 
L 230.231787 -64.157828 
L 229.302605 -64.157828 
L 228.373422 -64.157828 
L 227.444239 -64.157828 
L 226.515057 -64.157828 
L 225.585874 -64.157828 
L 224.656692 -64.157828 
L 223.727509 -64.157828 
L 222.798327 -64.157828 
L 221.869144 -64.157828 
L 220.939962 -64.157828 
L 220.010779 -64.157828 
L 219.081597 -64.157828 
L 218.152414 -64.157828 
L 217.223231 -64.157828 
L 216.294049 -64.157828 
L 215.364866 -64.157828 
L 214.435684 -64.157828 
L 213.506501 -64.157828 
L 212.577319 -64.157828 
L 211.648136 -64.157828 
L 210.718954 -64.157828 
L 209.789771 -64.157828 
L 208.860588 -64.157828 
L 207.931406 -64.157828 
L 207.002223 -64.157828 
L 206.073041 -64.157828 
L 205.143858 -64.157828 
L 204.214676 -64.157828 
L 203.285493 -64.157828 
L 202.356311 -64.157828 
L 201.427128 -64.157828 
L 200.497946 -64.157828 
L 199.568763 -64.157828 
L 198.63958 -64.157828 
L 197.710398 -64.157828 
L 196.781215 -64.157828 
L 195.852033 -64.157828 
L 194.92285 -64.157828 
L 193.993668 -64.157828 
L 193.064485 -64.157828 
L 192.135303 -64.157828 
L 191.20612 -64.157828 
L 190.276937 -64.157828 
L 189.347755 -64.157828 
L 188.418572 -64.157828 
L 187.48939 -64.157828 
L 186.560207 -64.157828 
L 185.631025 -64.157828 
L 184.701842 -64.157828 
L 183.77266 -64.157828 
L 182.843477 -64.157828 
L 181.914294 -64.157828 
L 180.985112 -64.157828 
L 180.055929 -64.157828 
L 179.126747 -64.157828 
L 178.197564 -64.157828 
L 177.268382 -64.157828 
L 176.339199 -64.157828 
L 175.410017 -64.157828 
L 174.480834 -64.157828 
L 173.551652 -64.157828 
L 172.622469 -64.157828 
L 171.693286 -64.157828 
L 170.764104 -64.157828 
L 169.834921 -64.157828 
L 168.905739 -64.157828 
L 167.976556 -64.157828 
L 167.047374 -64.157828 
L 166.118191 -64.157828 
L 165.189009 -64.157828 
L 164.259826 -64.157828 
L 163.330643 -64.157828 
L 162.401461 -64.157828 
L 161.472278 -64.157828 
L 160.543096 -64.157828 
L 159.613913 -64.157828 
L 158.684731 -64.157828 
L 157.755548 -64.157828 
L 156.826366 -64.157828 
L 155.897183 -64.157828 
L 154.968001 -64.157828 
L 154.038818 -64.157828 
L 153.109635 -64.157828 
L 152.180453 -64.157828 
L 151.25127 -64.157828 
L 150.322088 -64.157828 
L 149.392905 -64.157828 
L 148.463723 -64.157828 
L 147.53454 -64.157828 
L 146.605358 -64.157828 
L 145.676175 -64.157828 
L 144.746992 -64.157828 
L 143.81781 -64.157828 
L 142.888627 -64.157828 
L 141.959445 -64.157828 
L 141.030262 -64.157828 
L 140.10108 -64.157828 
L 139.171897 -64.157828 
L 138.242715 -64.157828 
L 137.313532 -64.157828 
L 136.38435 -64.157828 
L 135.455167 -64.157828 
L 134.525984 -64.157828 
L 133.596802 -64.157828 
L 132.667619 -64.157828 
L 131.738437 -64.157828 
L 130.809254 -64.157828 
L 129.880072 -64.157828 
L 128.950889 -64.157828 
L 128.021707 -64.157828 
L 127.092524 -64.157828 
L 126.163341 -64.157828 
L 125.234159 -64.157828 
L 124.304976 -64.157828 
L 123.375794 -64.157828 
L 122.446611 -64.157828 
L 121.517429 -64.157828 
L 120.588246 -64.157828 
L 119.659064 -64.157828 
L 118.729881 -64.157828 
L 117.800699 -64.157828 
L 116.871516 -64.157828 
L 115.942333 -64.157828 
L 115.013151 -64.157828 
L 114.083968 -64.157828 
L 113.154786 -64.157828 
L 112.225603 -64.157828 
L 111.296421 -64.157828 
L 110.367238 -64.157828 
L 109.438056 -64.157828 
L 108.508873 -64.157828 
L 107.57969 -64.157828 
L 106.650508 -64.157828 
L 105.721325 -64.157828 
L 104.792143 -64.157828 
L 103.86296 -64.157828 
L 102.933778 -64.157828 
L 102.004595 -64.157828 
L 101.075413 -64.157828 
L 100.14623 -64.157828 
L 99.217048 -64.157828 
L 98.287865 -64.157828 
L 97.358682 -64.157828 
L 96.4295 -64.157828 
L 95.500317 -64.157828 
L 94.571135 -64.157828 
L 93.641952 -64.157828 
L 92.71277 -64.157828 
L 91.783587 -64.157828 
L 90.854405 -64.157828 
L 89.925222 -64.157828 
L 88.996039 -64.157828 
L 88.066857 -64.157828 
L 87.137674 -64.157828 
L 86.208492 -64.157828 
L 85.279309 -64.157828 
L 84.350127 -64.157828 
L 83.420944 -64.157828 
L 82.491762 -64.157828 
L 81.562579 -64.157828 
L 80.633396 -64.157828 
L 79.704214 -64.157828 
L 78.775031 -64.157828 
L 77.845849 -64.157828 
L 76.916666 -64.157828 
L 75.987484 -64.157828 
L 75.058301 -64.157828 
L 74.129119 -64.157828 
L 73.199936 -64.157828 
L 72.270754 -64.157828 
L 71.341571 -64.157828 
L 70.412388 -64.157828 
L 69.483206 -64.157828 
L 68.554023 -64.157828 
L 67.624841 -64.157828 
L 66.695658 -64.157828 
L 65.766476 -64.157828 
L 64.837293 -64.157828 
L 63.908111 -64.157828 
L 62.978928 -64.157828 
L 62.049745 -64.157828 
L 61.120563 -64.157828 
L 60.19138 -64.157828 
L 59.262198 -64.157828 
L 58.333015 -64.157828 
L 57.403833 -64.157828 
L 56.47465 -64.157828 
L 55.545468 -64.157828 
L 54.616285 -64.157828 
L 53.687103 -64.157828 
z
" style="stroke: #6cb7ff; stroke-opacity: 0.6; stroke-width: 0.3"/>
    </defs>
    <g clip-path="url(#p67d0f4cc99)">
     <use xlink:href="#mb90d37fff6" x="0" y="432" style="fill: #6cb7ff; fill-opacity: 0.6; stroke: #6cb7ff; stroke-opacity: 0.6; stroke-width: 0.3"/>
    </g>
   </g>
   <g id="line2d_13">
    <path d="M 53.687103 251.786603 
L 56.47465 251.728504 
L 60.19138 251.377186 
L 63.908111 250.745936 
L 67.624841 249.764404 
L 70.412388 248.816844 
L 74.129119 247.249825 
L 76.916666 245.889388 
L 81.562579 243.109877 
L 84.350127 241.15089 
L 87.137674 238.971249 
L 90.854405 235.718041 
L 94.571135 232.142631 
L 99.217048 227.184934 
L 102.004595 224.0328 
L 105.721325 219.531973 
L 110.367238 213.621839 
L 115.013151 207.406116 
L 120.588246 199.612473 
L 128.950889 187.381462 
L 137.313532 174.603534 
L 153.109635 150.047289 
L 160.543096 139.172817 
L 164.259826 134.029644 
L 168.905739 127.891305 
L 173.551652 122.088651 
L 178.197564 116.667494 
L 185.631025 108.618417 
L 189.347755 104.904663 
L 193.993668 100.573095 
L 199.568763 95.798904 
L 203.285493 93.025482 
L 207.002223 90.540927 
L 212.577319 87.33241 
L 214.435684 86.384927 
L 219.081597 84.341631 
L 223.727509 82.588006 
L 233.019335 79.726392 
L 239.523613 78.010647 
L 246.957073 76.028818 
L 257.178081 73.843402 
L 262.753176 72.955614 
L 266.469907 72.562256 
L 272.045002 72.304185 
L 275.761732 72.282291 
L 280.407645 72.552438 
L 285.053558 73.184752 
L 289.69947 74.127507 
L 295.274566 75.689481 
L 298.991296 76.982957 
L 302.708026 78.532654 
L 307.353939 80.717238 
L 313.858217 84.213263 
L 319.433312 87.431773 
L 330.583503 93.856474 
L 338.946146 98.273703 
L 345.450423 101.494782 
L 355.671431 106.688166 
L 358.458979 108.348339 
L 363.104892 111.332342 
L 366.821622 114.045144 
L 369.60917 116.294968 
L 373.3259 119.621682 
L 377.04263 123.347723 
L 381.688543 128.504021 
L 384.476091 131.913049 
L 388.192821 136.729715 
L 391.909551 141.790865 
L 398.413829 151.021841 
L 410.493202 168.375006 
L 416.99748 177.148074 
L 421.643393 183.03989 
L 426.289305 188.552543 
L 430.935218 193.695039 
L 435.581131 198.581178 
L 444.872956 207.732273 
L 464.38579 226.360574 
L 473.677615 235.458911 
L 486.686171 248.130822 
L 494.119631 254.886367 
L 498.765544 258.777217 
L 501.553092 260.95786 
L 504.34064 262.965102 
L 508.05737 265.418318 
L 511.7741 267.530149 
L 514.561648 268.929025 
L 517.349195 270.049938 
L 520.136743 270.963976 
L 522.924291 271.667618 
L 525.711838 272.094462 
L 528.499386 272.305477 
L 528.499386 272.305477 
" clip-path="url(#p67d0f4cc99)" style="fill: none; stroke: #7570b3; stroke-width: 2; stroke-linecap: round"/>
   </g>
   <g id="line2d_14">
    <path d="M 53.687103 369.002727 
L 53.687103 251.786603 
" clip-path="url(#p67d0f4cc99)" style="fill: none; stroke: #7570b3; stroke-width: 2; stroke-linecap: round"/>
   </g>
   <g id="line2d_15">
    <path d="M 528.499386 368.797539 
L 528.499386 272.305477 
" clip-path="url(#p67d0f4cc99)" style="fill: none; stroke: #7570b3; stroke-width: 2; stroke-linecap: round"/>
   </g>
   <g id="line2d_16">
    <defs>
     <path id="mceb2be23b2" d="M 0 3.5 
C 0.928211 3.5 1.81853 3.131218 2.474874 2.474874 
C 3.131218 1.81853 3.5 0.928211 3.5 0 
C 3.5 -0.928211 3.131218 -1.81853 2.474874 -2.474874 
C 1.81853 -3.131218 0.928211 -3.5 0 -3.5 
C -0.928211 -3.5 -1.81853 -3.131218 -2.474874 -2.474874 
C -3.131218 -1.81853 -3.5 -0.928211 -3.5 0 
C -3.5 0.928211 -3.131218 1.81853 -2.474874 2.474874 
C -1.81853 3.131218 -0.928211 3.5 0 3.5 
z
"/>
    </defs>
    <g clip-path="url(#p67d0f4cc99)">
     <use xlink:href="#mceb2be23b2" x="279.190343" y="367.842172" style="fill: #7570b3"/>
    </g>
   </g>
   <g id="patch_3">
    <path d="M 29.946488 383.84 
L 552.24 383.84 
" style="fill: none; stroke: #333333; stroke-width: 1.5; stroke-linejoin: miter; stroke-linecap: square"/>
   </g>
   <g id="text_7">
    <!-- $x_1x_2^2x_3$ -->
    <g style="fill: #262626" transform="translate(245.733244 49.58)">
     <text>
      <tspan x="0" y="-0.734375" style="font-style: oblique; font-size: 28px; font-family: 'DejaVu Sans'; fill: #262626">x</tspan>
      <tspan x="29.806055" y="-0.734375" style="font-style: oblique; font-size: 28px; font-family: 'DejaVu Sans'; fill: #262626">x</tspan>
      <tspan x="60.86263" y="-0.734375" style="font-style: oblique; font-size: 28px; font-family: 'DejaVu Sans'; fill: #262626">x</tspan>
      <tspan x="16.570312" y="3.859375" style="font-size: 19.6px; font-family: 'DejaVu Sans'; fill: #262626">1</tspan>
      <tspan x="46.376367" y="6.921875" style="font-size: 19.6px; font-family: 'DejaVu Sans'; fill: #262626">2</tspan>
      <tspan x="47.626888" y="-11.453125" style="font-size: 19.6px; font-family: 'DejaVu Sans'; fill: #262626">2</tspan>
      <tspan x="77.432943" y="3.859375" style="font-size: 19.6px; font-family: 'DejaVu Sans'; fill: #262626">3</tspan>
     </text>
    </g>
   </g>
  </g>
 </g>
 <defs>
  <clipPath id="p67d0f4cc99">
   <rect x="29.946488" y="57.42" width="522.293512" height="326.42"/>
  </clipPath>
 </defs>
</svg>
