<?xml version="1.0" encoding="utf-8" standalone="no"?>
<!DOCTYPE svg PUBLIC "-//W3C//DTD SVG 1.1//EN"
  "http://www.w3.org/Graphics/SVG/1.1/DTD/svg11.dtd">
<svg xmlns:xlink="http://www.w3.org/1999/xlink" width="576pt" height="432pt" viewBox="0 0 576 432" xmlns="http://www.w3.org/2000/svg" version="1.1">
 <metadata>
  <rdf:RDF xmlns:dc="http://purl.org/dc/elements/1.1/" xmlns:cc="http://creativecommons.org/ns#" xmlns:rdf="http://www.w3.org/1999/02/22-rdf-syntax-ns#">
   <cc:Work>
    <dc:type rdf:resource="http://purl.org/dc/dcmitype/StillImage"/>
    <dc:date>2025-09-22T23:00:34.778439</dc:date>
    <dc:format>image/svg+xml</dc:format>
    <dc:creator>
     <cc:Agent>
      <dc:title>Matplotlib v3.10.0, https://matplotlib.org/</dc:title>
     </cc:Agent>
    </dc:creator>
   </cc:Work>
  </rdf:RDF>
 </metadata>
 <defs>
  <style type="text/css">*{stroke-linejoin: round; stroke-linecap: butt}</style>
 </defs>
 <g id="figure_1">
  <g id="patch_1">
   <path d="M 0 432 
L 576 432 
L 576 0 
L 0 0 
L 0 432 
z
" style="fill: none; opacity: 0"/>
  </g>
  <g id="axes_1">
   <g id="patch_2">
    <path d="M 45.227755 383.84 
L 552.24 383.84 
L 552.24 57.42 
L 45.227755 57.42 
L 45.227755 383.84 
z
" style="fill: none"/>
   </g>
   <g id="matplotlib.axis_1">
    <g id="xtick_1">
     <g id="line2d_1">
      <path d="M 52.158564 383.84 
L 52.158564 57.42 
" clip-path="url(#p96fe3a76f9)" style="fill: none; stroke: #ffffff; stroke-opacity: 0.4; stroke-linecap: round"/>
     </g>
     <g id="line2d_2"/>
     <g id="text_1">
      <text style="font-size: 18px; font-family: 'DejaVu Serif', 'Times New Roman', serif; text-anchor: middle; fill: #262626" x="52.158564" y="404.517187" transform="rotate(-0 52.158564 404.517187)">−0.25</text>
     </g>
    </g>
    <g id="xtick_2">
     <g id="line2d_3">
      <path d="M 125.903409 383.84 
L 125.903409 57.42 
" clip-path="url(#p96fe3a76f9)" style="fill: none; stroke: #ffffff; stroke-opacity: 0.4; stroke-linecap: round"/>
     </g>
     <g id="line2d_4"/>
     <g id="text_2">
      <text style="font-size: 18px; font-family: 'DejaVu Serif', 'Times New Roman', serif; text-anchor: middle; fill: #262626" x="125.903409" y="404.517187" transform="rotate(-0 125.903409 404.517187)">−0.20</text>
     </g>
    </g>
    <g id="xtick_3">
     <g id="line2d_5">
      <path d="M 199.648255 383.84 
L 199.648255 57.42 
" clip-path="url(#p96fe3a76f9)" style="fill: none; stroke: #ffffff; stroke-opacity: 0.4; stroke-linecap: round"/>
     </g>
     <g id="line2d_6"/>
     <g id="text_3">
      <text style="font-size: 18px; font-family: 'DejaVu Serif', 'Times New Roman', serif; text-anchor: middle; fill: #262626" x="199.648255" y="404.517187" transform="rotate(-0 199.648255 404.517187)">−0.15</text>
     </g>
    </g>
    <g id="xtick_4">
     <g id="line2d_7">
      <path d="M 273.393101 383.84 
L 273.393101 57.42 
" clip-path="url(#p96fe3a76f9)" style="fill: none; stroke: #ffffff; stroke-opacity: 0.4; stroke-linecap: round"/>
     </g>
     <g id="line2d_8"/>
     <g id="text_4">
      <text style="font-size: 18px; font-family: 'DejaVu Serif', 'Times New Roman', serif; text-anchor: middle; fill: #262626" x="273.393101" y="404.517187" transform="rotate(-0 273.393101 404.517187)">−0.10</text>
     </g>
    </g>
    <g id="xtick_5">
     <g id="line2d_9">
      <path d="M 347.137946 383.84 
L 347.137946 57.42 
" clip-path="url(#p96fe3a76f9)" style="fill: none; stroke: #ffffff; stroke-opacity: 0.4; stroke-linecap: round"/>
     </g>
     <g id="line2d_10"/>
     <g id="text_5">
      <text style="font-size: 18px; font-family: 'DejaVu Serif', 'Times New Roman', serif; text-anchor: middle; fill: #262626" x="347.137946" y="404.517187" transform="rotate(-0 347.137946 404.517187)">−0.05</text>
     </g>
    </g>
    <g id="xtick_6">
     <g id="line2d_11">
      <path d="M 420.882792 383.84 
L 420.882792 57.42 
" clip-path="url(#p96fe3a76f9)" style="fill: none; stroke: #ffffff; stroke-opacity: 0.4; stroke-linecap: round"/>
     </g>
     <g id="line2d_12"/>
     <g id="text_6">
      <text style="font-size: 18px; font-family: 'DejaVu Serif', 'Times New Roman', serif; text-anchor: middle; fill: #262626" x="420.882792" y="404.517187" transform="rotate(-0 420.882792 404.517187)">0.00</text>
     </g>
    </g>
    <g id="xtick_7">
     <g id="line2d_13">
      <path d="M 494.627638 383.84 
L 494.627638 57.42 
" clip-path="url(#p96fe3a76f9)" style="fill: none; stroke: #ffffff; stroke-opacity: 0.4; stroke-linecap: round"/>
     </g>
     <g id="line2d_14"/>
     <g id="text_7">
      <text style="font-size: 18px; font-family: 'DejaVu Serif', 'Times New Roman', serif; text-anchor: middle; fill: #262626" x="494.627638" y="404.517187" transform="rotate(-0 494.627638 404.517187)">0.05</text>
     </g>
    </g>
   </g>
   <g id="matplotlib.axis_2"/>
   <g id="FillBetweenPolyCollection_1">
    <defs>
     <path id="m3fb512b830" d="M 68.273766 -64.062751 
L 68.273766 -143.937341 
L 69.175763 -143.937629 
L 70.077759 -143.942106 
L 70.979756 -143.958049 
L 71.881752 -143.962181 
L 72.783749 -143.950935 
L 73.685746 -143.964342 
L 74.587742 -143.979061 
L 75.489739 -143.999756 
L 76.391735 -144.012681 
L 77.293732 -144.034243 
L 78.195728 -144.061065 
L 79.097725 -144.090712 
L 79.999721 -144.116718 
L 80.901718 -144.146095 
L 81.803714 -144.179095 
L 82.705711 -144.218723 
L 83.607707 -144.269802 
L 84.509704 -144.315196 
L 85.4117 -144.369232 
L 86.313697 -144.453535 
L 87.215693 -144.520578 
L 88.11769 -144.593903 
L 89.019686 -144.683952 
L 89.921683 -144.785052 
L 90.823679 -144.881215 
L 91.725676 -144.986125 
L 92.627672 -145.087687 
L 93.529669 -145.223818 
L 94.431666 -145.374544 
L 95.333662 -145.524895 
L 96.235659 -145.685534 
L 97.137655 -145.860328 
L 98.039652 -146.064438 
L 98.941648 -146.287567 
L 99.843645 -146.515885 
L 100.745641 -146.757502 
L 101.647638 -147.034044 
L 102.549634 -147.302349 
L 103.451631 -147.586197 
L 104.353627 -147.900676 
L 105.255624 -148.243419 
L 106.15762 -148.621667 
L 107.059617 -149.019338 
L 107.961613 -149.416672 
L 108.86361 -149.863058 
L 109.765606 -150.312441 
L 110.667603 -150.794365 
L 111.569599 -151.303557 
L 112.471596 -151.855037 
L 113.373592 -152.410732 
L 114.275589 -153.017978 
L 115.177585 -153.661529 
L 116.079582 -154.314469 
L 116.981579 -155.006454 
L 117.883575 -155.728719 
L 118.785572 -156.460705 
L 119.687568 -157.219386 
L 120.589565 -158.060402 
L 121.491561 -158.908202 
L 122.393558 -159.775776 
L 123.295554 -160.687987 
L 124.197551 -161.62192 
L 125.099547 -162.594215 
L 126.001544 -163.595832 
L 126.90354 -164.622118 
L 127.805537 -165.668255 
L 128.707533 -166.7396 
L 129.60953 -167.846316 
L 130.511526 -168.974233 
L 131.413523 -170.121277 
L 132.315519 -171.286102 
L 133.217516 -172.482971 
L 134.119512 -173.71726 
L 135.021509 -174.952561 
L 135.923505 -176.198183 
L 136.825502 -177.459677 
L 137.727499 -178.727691 
L 138.629495 -180.021603 
L 139.531492 -181.326212 
L 140.433488 -182.648499 
L 141.335485 -183.957106 
L 142.237481 -185.274604 
L 143.139478 -186.59433 
L 144.041474 -187.906901 
L 144.943471 -189.235324 
L 145.845467 -190.54779 
L 146.747464 -191.887332 
L 147.64946 -193.202607 
L 148.551457 -194.532897 
L 149.453453 -195.844191 
L 150.35545 -197.125011 
L 151.257446 -198.413812 
L 152.159443 -199.692894 
L 153.061439 -200.988947 
L 153.963436 -202.260093 
L 154.865432 -203.485581 
L 155.767429 -204.730101 
L 156.669425 -205.955944 
L 157.571422 -207.161176 
L 158.473419 -208.355143 
L 159.375415 -209.553144 
L 160.277412 -210.717602 
L 161.179408 -211.864974 
L 162.081405 -213.013521 
L 162.983401 -214.130312 
L 163.885398 -215.270778 
L 164.787394 -216.367632 
L 165.689391 -217.467971 
L 166.591387 -218.55587 
L 167.493384 -219.652044 
L 168.39538 -220.740456 
L 169.297377 -221.808716 
L 170.199373 -222.868649 
L 171.10137 -223.921669 
L 172.003366 -224.975065 
L 172.905363 -226.043403 
L 173.807359 -227.079175 
L 174.709356 -228.1446 
L 175.611352 -229.196593 
L 176.513349 -230.24605 
L 177.415345 -231.306387 
L 178.317342 -232.372164 
L 179.219339 -233.444236 
L 180.121335 -234.540574 
L 181.023332 -235.633756 
L 181.925328 -236.71461 
L 182.827325 -237.824642 
L 183.729321 -238.918443 
L 184.631318 -240.064842 
L 185.533314 -241.20083 
L 186.435311 -242.338985 
L 187.337307 -243.497478 
L 188.239304 -244.680549 
L 189.1413 -245.826184 
L 190.043297 -247.029664 
L 190.945293 -248.235037 
L 191.84729 -249.430517 
L 192.749286 -250.627004 
L 193.651283 -251.849093 
L 194.553279 -253.098493 
L 195.455276 -254.326161 
L 196.357272 -255.563009 
L 197.259269 -256.790179 
L 198.161265 -258.020129 
L 199.063262 -259.295425 
L 199.965259 -260.548554 
L 200.867255 -261.824617 
L 201.769252 -263.072678 
L 202.671248 -264.349784 
L 203.573245 -265.613561 
L 204.475241 -266.893262 
L 205.377238 -268.161871 
L 206.279234 -269.453241 
L 207.181231 -270.723444 
L 208.083227 -271.977593 
L 208.985224 -273.223815 
L 209.88722 -274.490992 
L 210.789217 -275.727978 
L 211.691213 -276.954266 
L 212.59321 -278.159052 
L 213.495206 -279.378384 
L 214.397203 -280.592188 
L 215.299199 -281.79722 
L 216.201196 -283.001125 
L 217.103192 -284.20768 
L 218.005189 -285.388866 
L 218.907185 -286.542282 
L 219.809182 -287.697367 
L 220.711179 -288.843035 
L 221.613175 -289.978321 
L 222.515172 -291.099587 
L 223.417168 -292.198176 
L 224.319165 -293.296556 
L 225.221161 -294.379461 
L 226.123158 -295.446915 
L 227.025154 -296.517831 
L 227.927151 -297.572115 
L 228.829147 -298.607749 
L 229.731144 -299.641979 
L 230.63314 -300.666412 
L 231.535137 -301.682622 
L 232.437133 -302.680507 
L 233.33913 -303.675636 
L 234.241126 -304.65427 
L 235.143123 -305.613824 
L 236.045119 -306.592666 
L 236.947116 -307.567685 
L 237.849112 -308.53572 
L 238.751109 -309.473271 
L 239.653105 -310.434207 
L 240.555102 -311.38067 
L 241.457099 -312.306273 
L 242.359095 -313.228774 
L 243.261092 -314.12802 
L 244.163088 -315.04185 
L 245.065085 -315.93841 
L 245.967081 -316.821299 
L 246.869078 -317.711581 
L 247.771074 -318.608401 
L 248.673071 -319.493364 
L 249.575067 -320.360194 
L 250.477064 -321.219224 
L 251.37906 -322.077027 
L 252.281057 -322.890488 
L 253.183053 -323.750147 
L 254.08505 -324.589118 
L 254.987046 -325.4108 
L 255.889043 -326.233384 
L 256.791039 -327.038542 
L 257.693036 -327.815349 
L 258.595032 -328.618579 
L 259.497029 -329.402814 
L 260.399025 -330.157235 
L 261.301022 -330.91586 
L 262.203019 -331.661845 
L 263.105015 -332.400054 
L 264.007012 -333.151141 
L 264.909008 -333.880576 
L 265.811005 -334.607473 
L 266.713001 -335.313053 
L 267.614998 -336.007381 
L 268.516994 -336.678021 
L 269.418991 -337.355263 
L 270.320987 -337.979309 
L 271.222984 -338.596494 
L 272.12498 -339.238319 
L 273.026977 -339.854685 
L 273.928973 -340.440179 
L 274.83097 -341.037956 
L 275.732966 -341.570051 
L 276.634963 -342.084388 
L 277.536959 -342.612089 
L 278.438956 -343.106602 
L 279.340952 -343.575935 
L 280.242949 -344.05733 
L 281.144945 -344.542825 
L 282.046942 -344.986875 
L 282.948939 -345.411926 
L 283.850935 -345.797904 
L 284.752932 -346.207967 
L 285.654928 -346.571755 
L 286.556925 -346.915232 
L 287.458921 -347.271096 
L 288.360918 -347.613238 
L 289.262914 -347.968843 
L 290.164911 -348.28286 
L 291.066907 -348.591206 
L 291.968904 -348.906395 
L 292.8709 -349.181976 
L 293.772897 -349.444749 
L 294.674893 -349.749902 
L 295.57689 -350.046688 
L 296.478886 -350.302914 
L 297.380883 -350.567734 
L 298.282879 -350.809153 
L 299.184876 -351.056221 
L 300.086872 -351.31099 
L 300.988869 -351.544913 
L 301.890865 -351.79875 
L 302.792862 -352.037652 
L 303.694858 -352.29014 
L 304.596855 -352.537433 
L 305.498852 -352.77644 
L 306.400848 -353.026924 
L 307.302845 -353.254057 
L 308.204841 -353.497997 
L 309.106838 -353.767791 
L 310.008834 -354.028478 
L 310.910831 -354.305061 
L 311.812827 -354.545802 
L 312.714824 -354.807637 
L 313.61682 -355.080798 
L 314.518817 -355.336559 
L 315.420813 -355.576201 
L 316.32281 -355.829101 
L 317.224806 -356.068672 
L 318.126803 -356.345351 
L 319.028799 -356.614745 
L 319.930796 -356.854062 
L 320.832792 -357.124995 
L 321.734789 -357.347275 
L 322.636785 -357.58457 
L 323.538782 -357.824504 
L 324.440778 -358.054281 
L 325.342775 -358.249341 
L 326.244772 -358.462555 
L 327.146768 -358.618331 
L 328.048765 -358.788983 
L 328.950761 -358.991268 
L 329.852758 -359.168615 
L 330.754754 -359.274278 
L 331.656751 -359.383498 
L 332.558747 -359.502765 
L 333.460744 -359.591248 
L 334.36274 -359.688362 
L 335.264737 -359.742727 
L 336.166733 -359.738787 
L 337.06873 -359.74096 
L 337.970726 -359.689074 
L 338.872723 -359.661208 
L 339.774719 -359.587989 
L 340.676716 -359.491181 
L 341.578712 -359.352412 
L 342.480709 -359.188345 
L 343.382705 -358.964226 
L 344.284702 -358.762299 
L 345.186698 -358.545891 
L 346.088695 -358.310717 
L 346.990692 -358.030053 
L 347.892688 -357.716307 
L 348.794685 -357.399458 
L 349.696681 -357.049768 
L 350.598678 -356.667302 
L 351.500674 -356.268703 
L 352.402671 -355.845532 
L 353.304667 -355.363691 
L 354.206664 -354.870816 
L 355.10866 -354.367315 
L 356.010657 -353.847133 
L 356.912653 -353.311017 
L 357.81465 -352.728129 
L 358.716646 -352.148706 
L 359.618643 -351.554595 
L 360.520639 -350.940402 
L 361.422636 -350.305299 
L 362.324632 -349.670063 
L 363.226629 -349.023144 
L 364.128625 -348.339932 
L 365.030622 -347.654723 
L 365.932618 -346.963159 
L 366.834615 -346.256816 
L 367.736612 -345.534859 
L 368.638608 -344.80947 
L 369.540605 -344.081185 
L 370.442601 -343.335281 
L 371.344598 -342.592498 
L 372.246594 -341.840241 
L 373.148591 -341.070308 
L 374.050587 -340.301816 
L 374.952584 -339.521441 
L 375.85458 -338.755475 
L 376.756577 -337.97073 
L 377.658573 -337.21277 
L 378.56057 -336.44487 
L 379.462566 -335.673517 
L 380.364563 -334.915926 
L 381.266559 -334.13567 
L 382.168556 -333.368729 
L 383.070552 -332.598305 
L 383.972549 -331.825523 
L 384.874545 -331.050961 
L 385.776542 -330.269192 
L 386.678538 -329.492303 
L 387.580535 -328.741891 
L 388.482532 -327.964345 
L 389.384528 -327.212724 
L 390.286525 -326.448153 
L 391.188521 -325.672175 
L 392.090518 -324.910147 
L 392.992514 -324.150968 
L 393.894511 -323.390321 
L 394.796507 -322.640034 
L 395.698504 -321.849305 
L 396.6005 -321.073848 
L 397.502497 -320.302262 
L 398.404493 -319.513707 
L 399.30649 -318.728663 
L 400.208486 -317.960478 
L 401.110483 -317.152724 
L 402.012479 -316.361466 
L 402.914476 -315.559009 
L 403.816472 -314.738342 
L 404.718469 -313.914454 
L 405.620465 -313.120434 
L 406.522462 -312.296792 
L 407.424458 -311.46876 
L 408.326455 -310.64447 
L 409.228452 -309.761206 
L 410.130448 -308.88572 
L 411.032445 -308.019112 
L 411.934441 -307.134704 
L 412.836438 -306.250993 
L 413.738434 -305.363718 
L 414.640431 -304.427037 
L 415.542427 -303.51704 
L 416.444424 -302.58131 
L 417.34642 -301.616483 
L 418.248417 -300.611246 
L 419.150413 -299.616341 
L 420.05241 -298.60572 
L 420.954406 -297.570092 
L 421.856403 -296.514845 
L 422.758399 -295.453987 
L 423.660396 -294.377441 
L 424.562392 -293.281881 
L 425.464389 -292.154929 
L 426.366385 -290.984484 
L 427.268382 -289.835834 
L 428.170378 -288.662941 
L 429.072375 -287.464444 
L 429.974372 -286.260139 
L 430.876368 -285.048858 
L 431.778365 -283.778505 
L 432.680361 -282.495815 
L 433.582358 -281.224251 
L 434.484354 -279.931343 
L 435.386351 -278.639734 
L 436.288347 -277.299601 
L 437.190344 -275.93527 
L 438.09234 -274.568277 
L 438.994337 -273.182478 
L 439.896333 -271.798354 
L 440.79833 -270.380166 
L 441.700326 -268.956102 
L 442.602323 -267.515689 
L 443.504319 -266.065607 
L 444.406316 -264.619394 
L 445.308312 -263.147012 
L 446.210309 -261.652455 
L 447.112305 -260.151786 
L 448.014302 -258.654439 
L 448.916298 -257.167293 
L 449.818295 -255.670819 
L 450.720292 -254.135931 
L 451.622288 -252.610766 
L 452.524285 -251.104844 
L 453.426281 -249.571496 
L 454.328278 -248.056705 
L 455.230274 -246.515883 
L 456.132271 -244.980881 
L 457.034267 -243.463358 
L 457.936264 -241.94393 
L 458.83826 -240.442376 
L 459.740257 -238.928137 
L 460.642253 -237.407869 
L 461.54425 -235.904658 
L 462.446246 -234.433188 
L 463.348243 -232.947578 
L 464.250239 -231.477475 
L 465.152236 -230.012284 
L 466.054232 -228.529082 
L 466.956229 -227.064285 
L 467.858225 -225.641824 
L 468.760222 -224.205529 
L 469.662218 -222.781937 
L 470.564215 -221.373294 
L 471.466211 -219.959687 
L 472.368208 -218.575595 
L 473.270205 -217.192979 
L 474.172201 -215.840038 
L 475.074198 -214.517222 
L 475.976194 -213.17187 
L 476.878191 -211.846101 
L 477.780187 -210.562741 
L 478.682184 -209.276805 
L 479.58418 -208.018047 
L 480.486177 -206.782508 
L 481.388173 -205.527874 
L 482.29017 -204.297571 
L 483.192166 -203.085495 
L 484.094163 -201.901849 
L 484.996159 -200.745299 
L 485.898156 -199.589301 
L 486.800152 -198.451327 
L 487.702149 -197.330364 
L 488.604145 -196.225721 
L 489.506142 -195.13851 
L 490.408138 -194.104681 
L 491.310135 -193.077048 
L 492.212131 -192.059272 
L 493.114128 -191.084253 
L 494.016125 -190.098852 
L 494.918121 -189.154293 
L 495.820118 -188.219863 
L 496.722114 -187.312016 
L 497.624111 -186.421113 
L 498.526107 -185.558726 
L 499.428104 -184.715628 
L 500.3301 -183.879345 
L 501.232097 -183.080104 
L 502.134093 -182.31847 
L 503.03609 -181.563161 
L 503.938086 -180.82733 
L 504.840083 -180.133019 
L 505.742079 -179.443799 
L 506.644076 -178.796613 
L 507.546072 -178.176716 
L 508.448069 -177.591479 
L 509.350065 -177.014075 
L 510.252062 -176.456765 
L 511.154058 -175.916312 
L 512.056055 -175.430463 
L 512.958051 -174.95201 
L 513.860048 -174.500384 
L 514.762045 -174.048901 
L 515.664041 -173.656331 
L 516.566038 -173.271298 
L 517.468034 -172.927992 
L 518.370031 -172.617451 
L 519.272027 -172.320539 
L 520.174024 -172.032826 
L 521.07602 -171.79252 
L 521.978017 -171.559565 
L 522.880013 -171.357383 
L 523.78201 -171.19955 
L 524.684006 -171.042103 
L 525.586003 -170.911243 
L 526.487999 -170.802923 
L 527.389996 -170.701717 
L 528.291992 -170.634031 
L 529.193989 -170.61057 
L 529.193989 -64.062751 
L 529.193989 -64.062751 
L 528.291992 -64.062751 
L 527.389996 -64.062751 
L 526.487999 -64.062751 
L 525.586003 -64.062751 
L 524.684006 -64.062751 
L 523.78201 -64.062751 
L 522.880013 -64.062751 
L 521.978017 -64.062751 
L 521.07602 -64.062751 
L 520.174024 -64.062751 
L 519.272027 -64.062751 
L 518.370031 -64.062751 
L 517.468034 -64.062751 
L 516.566038 -64.062751 
L 515.664041 -64.062751 
L 514.762045 -64.062751 
L 513.860048 -64.062751 
L 512.958051 -64.062751 
L 512.056055 -64.062751 
L 511.154058 -64.062751 
L 510.252062 -64.062751 
L 509.350065 -64.062751 
L 508.448069 -64.062751 
L 507.546072 -64.062751 
L 506.644076 -64.062751 
L 505.742079 -64.062751 
L 504.840083 -64.062751 
L 503.938086 -64.062751 
L 503.03609 -64.062751 
L 502.134093 -64.062751 
L 501.232097 -64.062751 
L 500.3301 -64.062751 
L 499.428104 -64.062751 
L 498.526107 -64.062751 
L 497.624111 -64.062751 
L 496.722114 -64.062751 
L 495.820118 -64.062751 
L 494.918121 -64.062751 
L 494.016125 -64.062751 
L 493.114128 -64.062751 
L 492.212131 -64.062751 
L 491.310135 -64.062751 
L 490.408138 -64.062751 
L 489.506142 -64.062751 
L 488.604145 -64.062751 
L 487.702149 -64.062751 
L 486.800152 -64.062751 
L 485.898156 -64.062751 
L 484.996159 -64.062751 
L 484.094163 -64.062751 
L 483.192166 -64.062751 
L 482.29017 -64.062751 
L 481.388173 -64.062751 
L 480.486177 -64.062751 
L 479.58418 -64.062751 
L 478.682184 -64.062751 
L 477.780187 -64.062751 
L 476.878191 -64.062751 
L 475.976194 -64.062751 
L 475.074198 -64.062751 
L 474.172201 -64.062751 
L 473.270205 -64.062751 
L 472.368208 -64.062751 
L 471.466211 -64.062751 
L 470.564215 -64.062751 
L 469.662218 -64.062751 
L 468.760222 -64.062751 
L 467.858225 -64.062751 
L 466.956229 -64.062751 
L 466.054232 -64.062751 
L 465.152236 -64.062751 
L 464.250239 -64.062751 
L 463.348243 -64.062751 
L 462.446246 -64.062751 
L 461.54425 -64.062751 
L 460.642253 -64.062751 
L 459.740257 -64.062751 
L 458.83826 -64.062751 
L 457.936264 -64.062751 
L 457.034267 -64.062751 
L 456.132271 -64.062751 
L 455.230274 -64.062751 
L 454.328278 -64.062751 
L 453.426281 -64.062751 
L 452.524285 -64.062751 
L 451.622288 -64.062751 
L 450.720292 -64.062751 
L 449.818295 -64.062751 
L 448.916298 -64.062751 
L 448.014302 -64.062751 
L 447.112305 -64.062751 
L 446.210309 -64.062751 
L 445.308312 -64.062751 
L 444.406316 -64.062751 
L 443.504319 -64.062751 
L 442.602323 -64.062751 
L 441.700326 -64.062751 
L 440.79833 -64.062751 
L 439.896333 -64.062751 
L 438.994337 -64.062751 
L 438.09234 -64.062751 
L 437.190344 -64.062751 
L 436.288347 -64.062751 
L 435.386351 -64.062751 
L 434.484354 -64.062751 
L 433.582358 -64.062751 
L 432.680361 -64.062751 
L 431.778365 -64.062751 
L 430.876368 -64.062751 
L 429.974372 -64.062751 
L 429.072375 -64.062751 
L 428.170378 -64.062751 
L 427.268382 -64.062751 
L 426.366385 -64.062751 
L 425.464389 -64.062751 
L 424.562392 -64.062751 
L 423.660396 -64.062751 
L 422.758399 -64.062751 
L 421.856403 -64.062751 
L 420.954406 -64.062751 
L 420.05241 -64.062751 
L 419.150413 -64.062751 
L 418.248417 -64.062751 
L 417.34642 -64.062751 
L 416.444424 -64.062751 
L 415.542427 -64.062751 
L 414.640431 -64.062751 
L 413.738434 -64.062751 
L 412.836438 -64.062751 
L 411.934441 -64.062751 
L 411.032445 -64.062751 
L 410.130448 -64.062751 
L 409.228452 -64.062751 
L 408.326455 -64.062751 
L 407.424458 -64.062751 
L 406.522462 -64.062751 
L 405.620465 -64.062751 
L 404.718469 -64.062751 
L 403.816472 -64.062751 
L 402.914476 -64.062751 
L 402.012479 -64.062751 
L 401.110483 -64.062751 
L 400.208486 -64.062751 
L 399.30649 -64.062751 
L 398.404493 -64.062751 
L 397.502497 -64.062751 
L 396.6005 -64.062751 
L 395.698504 -64.062751 
L 394.796507 -64.062751 
L 393.894511 -64.062751 
L 392.992514 -64.062751 
L 392.090518 -64.062751 
L 391.188521 -64.062751 
L 390.286525 -64.062751 
L 389.384528 -64.062751 
L 388.482532 -64.062751 
L 387.580535 -64.062751 
L 386.678538 -64.062751 
L 385.776542 -64.062751 
L 384.874545 -64.062751 
L 383.972549 -64.062751 
L 383.070552 -64.062751 
L 382.168556 -64.062751 
L 381.266559 -64.062751 
L 380.364563 -64.062751 
L 379.462566 -64.062751 
L 378.56057 -64.062751 
L 377.658573 -64.062751 
L 376.756577 -64.062751 
L 375.85458 -64.062751 
L 374.952584 -64.062751 
L 374.050587 -64.062751 
L 373.148591 -64.062751 
L 372.246594 -64.062751 
L 371.344598 -64.062751 
L 370.442601 -64.062751 
L 369.540605 -64.062751 
L 368.638608 -64.062751 
L 367.736612 -64.062751 
L 366.834615 -64.062751 
L 365.932618 -64.062751 
L 365.030622 -64.062751 
L 364.128625 -64.062751 
L 363.226629 -64.062751 
L 362.324632 -64.062751 
L 361.422636 -64.062751 
L 360.520639 -64.062751 
L 359.618643 -64.062751 
L 358.716646 -64.062751 
L 357.81465 -64.062751 
L 356.912653 -64.062751 
L 356.010657 -64.062751 
L 355.10866 -64.062751 
L 354.206664 -64.062751 
L 353.304667 -64.062751 
L 352.402671 -64.062751 
L 351.500674 -64.062751 
L 350.598678 -64.062751 
L 349.696681 -64.062751 
L 348.794685 -64.062751 
L 347.892688 -64.062751 
L 346.990692 -64.062751 
L 346.088695 -64.062751 
L 345.186698 -64.062751 
L 344.284702 -64.062751 
L 343.382705 -64.062751 
L 342.480709 -64.062751 
L 341.578712 -64.062751 
L 340.676716 -64.062751 
L 339.774719 -64.062751 
L 338.872723 -64.062751 
L 337.970726 -64.062751 
L 337.06873 -64.062751 
L 336.166733 -64.062751 
L 335.264737 -64.062751 
L 334.36274 -64.062751 
L 333.460744 -64.062751 
L 332.558747 -64.062751 
L 331.656751 -64.062751 
L 330.754754 -64.062751 
L 329.852758 -64.062751 
L 328.950761 -64.062751 
L 328.048765 -64.062751 
L 327.146768 -64.062751 
L 326.244772 -64.062751 
L 325.342775 -64.062751 
L 324.440778 -64.062751 
L 323.538782 -64.062751 
L 322.636785 -64.062751 
L 321.734789 -64.062751 
L 320.832792 -64.062751 
L 319.930796 -64.062751 
L 319.028799 -64.062751 
L 318.126803 -64.062751 
L 317.224806 -64.062751 
L 316.32281 -64.062751 
L 315.420813 -64.062751 
L 314.518817 -64.062751 
L 313.61682 -64.062751 
L 312.714824 -64.062751 
L 311.812827 -64.062751 
L 310.910831 -64.062751 
L 310.008834 -64.062751 
L 309.106838 -64.062751 
L 308.204841 -64.062751 
L 307.302845 -64.062751 
L 306.400848 -64.062751 
L 305.498852 -64.062751 
L 304.596855 -64.062751 
L 303.694858 -64.062751 
L 302.792862 -64.062751 
L 301.890865 -64.062751 
L 300.988869 -64.062751 
L 300.086872 -64.062751 
L 299.184876 -64.062751 
L 298.282879 -64.062751 
L 297.380883 -64.062751 
L 296.478886 -64.062751 
L 295.57689 -64.062751 
L 294.674893 -64.062751 
L 293.772897 -64.062751 
L 292.8709 -64.062751 
L 291.968904 -64.062751 
L 291.066907 -64.062751 
L 290.164911 -64.062751 
L 289.262914 -64.062751 
L 288.360918 -64.062751 
L 287.458921 -64.062751 
L 286.556925 -64.062751 
L 285.654928 -64.062751 
L 284.752932 -64.062751 
L 283.850935 -64.062751 
L 282.948939 -64.062751 
L 282.046942 -64.062751 
L 281.144945 -64.062751 
L 280.242949 -64.062751 
L 279.340952 -64.062751 
L 278.438956 -64.062751 
L 277.536959 -64.062751 
L 276.634963 -64.062751 
L 275.732966 -64.062751 
L 274.83097 -64.062751 
L 273.928973 -64.062751 
L 273.026977 -64.062751 
L 272.12498 -64.062751 
L 271.222984 -64.062751 
L 270.320987 -64.062751 
L 269.418991 -64.062751 
L 268.516994 -64.062751 
L 267.614998 -64.062751 
L 266.713001 -64.062751 
L 265.811005 -64.062751 
L 264.909008 -64.062751 
L 264.007012 -64.062751 
L 263.105015 -64.062751 
L 262.203019 -64.062751 
L 261.301022 -64.062751 
L 260.399025 -64.062751 
L 259.497029 -64.062751 
L 258.595032 -64.062751 
L 257.693036 -64.062751 
L 256.791039 -64.062751 
L 255.889043 -64.062751 
L 254.987046 -64.062751 
L 254.08505 -64.062751 
L 253.183053 -64.062751 
L 252.281057 -64.062751 
L 251.37906 -64.062751 
L 250.477064 -64.062751 
L 249.575067 -64.062751 
L 248.673071 -64.062751 
L 247.771074 -64.062751 
L 246.869078 -64.062751 
L 245.967081 -64.062751 
L 245.065085 -64.062751 
L 244.163088 -64.062751 
L 243.261092 -64.062751 
L 242.359095 -64.062751 
L 241.457099 -64.062751 
L 240.555102 -64.062751 
L 239.653105 -64.062751 
L 238.751109 -64.062751 
L 237.849112 -64.062751 
L 236.947116 -64.062751 
L 236.045119 -64.062751 
L 235.143123 -64.062751 
L 234.241126 -64.062751 
L 233.33913 -64.062751 
L 232.437133 -64.062751 
L 231.535137 -64.062751 
L 230.63314 -64.062751 
L 229.731144 -64.062751 
L 228.829147 -64.062751 
L 227.927151 -64.062751 
L 227.025154 -64.062751 
L 226.123158 -64.062751 
L 225.221161 -64.062751 
L 224.319165 -64.062751 
L 223.417168 -64.062751 
L 222.515172 -64.062751 
L 221.613175 -64.062751 
L 220.711179 -64.062751 
L 219.809182 -64.062751 
L 218.907185 -64.062751 
L 218.005189 -64.062751 
L 217.103192 -64.062751 
L 216.201196 -64.062751 
L 215.299199 -64.062751 
L 214.397203 -64.062751 
L 213.495206 -64.062751 
L 212.59321 -64.062751 
L 211.691213 -64.062751 
L 210.789217 -64.062751 
L 209.88722 -64.062751 
L 208.985224 -64.062751 
L 208.083227 -64.062751 
L 207.181231 -64.062751 
L 206.279234 -64.062751 
L 205.377238 -64.062751 
L 204.475241 -64.062751 
L 203.573245 -64.062751 
L 202.671248 -64.062751 
L 201.769252 -64.062751 
L 200.867255 -64.062751 
L 199.965259 -64.062751 
L 199.063262 -64.062751 
L 198.161265 -64.062751 
L 197.259269 -64.062751 
L 196.357272 -64.062751 
L 195.455276 -64.062751 
L 194.553279 -64.062751 
L 193.651283 -64.062751 
L 192.749286 -64.062751 
L 191.84729 -64.062751 
L 190.945293 -64.062751 
L 190.043297 -64.062751 
L 189.1413 -64.062751 
L 188.239304 -64.062751 
L 187.337307 -64.062751 
L 186.435311 -64.062751 
L 185.533314 -64.062751 
L 184.631318 -64.062751 
L 183.729321 -64.062751 
L 182.827325 -64.062751 
L 181.925328 -64.062751 
L 181.023332 -64.062751 
L 180.121335 -64.062751 
L 179.219339 -64.062751 
L 178.317342 -64.062751 
L 177.415345 -64.062751 
L 176.513349 -64.062751 
L 175.611352 -64.062751 
L 174.709356 -64.062751 
L 173.807359 -64.062751 
L 172.905363 -64.062751 
L 172.003366 -64.062751 
L 171.10137 -64.062751 
L 170.199373 -64.062751 
L 169.297377 -64.062751 
L 168.39538 -64.062751 
L 167.493384 -64.062751 
L 166.591387 -64.062751 
L 165.689391 -64.062751 
L 164.787394 -64.062751 
L 163.885398 -64.062751 
L 162.983401 -64.062751 
L 162.081405 -64.062751 
L 161.179408 -64.062751 
L 160.277412 -64.062751 
L 159.375415 -64.062751 
L 158.473419 -64.062751 
L 157.571422 -64.062751 
L 156.669425 -64.062751 
L 155.767429 -64.062751 
L 154.865432 -64.062751 
L 153.963436 -64.062751 
L 153.061439 -64.062751 
L 152.159443 -64.062751 
L 151.257446 -64.062751 
L 150.35545 -64.062751 
L 149.453453 -64.062751 
L 148.551457 -64.062751 
L 147.64946 -64.062751 
L 146.747464 -64.062751 
L 145.845467 -64.062751 
L 144.943471 -64.062751 
L 144.041474 -64.062751 
L 143.139478 -64.062751 
L 142.237481 -64.062751 
L 141.335485 -64.062751 
L 140.433488 -64.062751 
L 139.531492 -64.062751 
L 138.629495 -64.062751 
L 137.727499 -64.062751 
L 136.825502 -64.062751 
L 135.923505 -64.062751 
L 135.021509 -64.062751 
L 134.119512 -64.062751 
L 133.217516 -64.062751 
L 132.315519 -64.062751 
L 131.413523 -64.062751 
L 130.511526 -64.062751 
L 129.60953 -64.062751 
L 128.707533 -64.062751 
L 127.805537 -64.062751 
L 126.90354 -64.062751 
L 126.001544 -64.062751 
L 125.099547 -64.062751 
L 124.197551 -64.062751 
L 123.295554 -64.062751 
L 122.393558 -64.062751 
L 121.491561 -64.062751 
L 120.589565 -64.062751 
L 119.687568 -64.062751 
L 118.785572 -64.062751 
L 117.883575 -64.062751 
L 116.981579 -64.062751 
L 116.079582 -64.062751 
L 115.177585 -64.062751 
L 114.275589 -64.062751 
L 113.373592 -64.062751 
L 112.471596 -64.062751 
L 111.569599 -64.062751 
L 110.667603 -64.062751 
L 109.765606 -64.062751 
L 108.86361 -64.062751 
L 107.961613 -64.062751 
L 107.059617 -64.062751 
L 106.15762 -64.062751 
L 105.255624 -64.062751 
L 104.353627 -64.062751 
L 103.451631 -64.062751 
L 102.549634 -64.062751 
L 101.647638 -64.062751 
L 100.745641 -64.062751 
L 99.843645 -64.062751 
L 98.941648 -64.062751 
L 98.039652 -64.062751 
L 97.137655 -64.062751 
L 96.235659 -64.062751 
L 95.333662 -64.062751 
L 94.431666 -64.062751 
L 93.529669 -64.062751 
L 92.627672 -64.062751 
L 91.725676 -64.062751 
L 90.823679 -64.062751 
L 89.921683 -64.062751 
L 89.019686 -64.062751 
L 88.11769 -64.062751 
L 87.215693 -64.062751 
L 86.313697 -64.062751 
L 85.4117 -64.062751 
L 84.509704 -64.062751 
L 83.607707 -64.062751 
L 82.705711 -64.062751 
L 81.803714 -64.062751 
L 80.901718 -64.062751 
L 79.999721 -64.062751 
L 79.097725 -64.062751 
L 78.195728 -64.062751 
L 77.293732 -64.062751 
L 76.391735 -64.062751 
L 75.489739 -64.062751 
L 74.587742 -64.062751 
L 73.685746 -64.062751 
L 72.783749 -64.062751 
L 71.881752 -64.062751 
L 70.979756 -64.062751 
L 70.077759 -64.062751 
L 69.175763 -64.062751 
L 68.273766 -64.062751 
z
" style="stroke: #6cb7ff; stroke-opacity: 0.6; stroke-width: 0.3"/>
    </defs>
    <g clip-path="url(#p96fe3a76f9)">
     <use xlink:href="#m3fb512b830" x="0" y="432" style="fill: #6cb7ff; fill-opacity: 0.6; stroke: #6cb7ff; stroke-opacity: 0.6; stroke-width: 0.3"/>
    </g>
   </g>
   <g id="line2d_15">
    <path d="M 68.273766 288.062659 
L 77.293732 287.965757 
L 85.4117 287.630768 
L 93.529669 286.776182 
L 98.039652 285.935562 
L 101.647638 284.965956 
L 104.353627 284.099324 
L 107.059617 282.980662 
L 109.765606 281.687559 
L 112.471596 280.144963 
L 114.275589 278.982022 
L 116.981579 276.993546 
L 119.687568 274.780614 
L 123.295554 271.312013 
L 126.001544 268.404168 
L 129.60953 264.153684 
L 133.217516 259.517029 
L 138.629495 251.978397 
L 156.669425 226.044056 
L 162.081405 218.986479 
L 169.297377 210.191284 
L 183.729321 193.081557 
L 190.945293 183.764963 
L 196.357272 176.436991 
L 201.769252 168.927322 
L 211.691213 155.045734 
L 220.711179 143.156965 
L 225.221161 137.620539 
L 231.535137 130.317378 
L 237.849112 123.46428 
L 245.967081 115.178701 
L 251.37906 109.922973 
L 261.301022 101.08414 
L 267.614998 95.992619 
L 272.12498 92.761681 
L 275.732966 90.429949 
L 281.144945 87.457175 
L 284.752932 85.792033 
L 290.164911 83.71714 
L 295.57689 81.953312 
L 306.400848 78.973076 
L 310.008834 77.971522 
L 315.420813 76.423799 
L 325.342775 73.750659 
L 328.950761 73.008732 
L 330.754754 72.725722 
L 335.264737 72.257273 
L 338.872723 72.338792 
L 341.578712 72.647588 
L 344.284702 73.237701 
L 346.990692 73.969947 
L 350.598678 75.332698 
L 353.304667 76.636309 
L 356.912653 78.688983 
L 361.422636 81.694701 
L 365.030622 84.345277 
L 369.540605 87.918815 
L 376.756577 94.02927 
L 387.580535 103.258109 
L 406.522462 119.703208 
L 411.032445 123.980888 
L 416.444424 129.41869 
L 420.05241 133.39428 
L 424.562392 138.718119 
L 428.170378 143.337059 
L 432.680361 149.504185 
L 436.288347 154.700399 
L 441.700326 163.043898 
L 447.112305 171.848214 
L 456.132271 187.019119 
L 465.152236 201.987716 
L 469.662218 209.218063 
L 475.074198 217.482778 
L 478.682184 222.723195 
L 484.094163 230.098151 
L 489.506142 236.86149 
L 494.016125 241.901148 
L 497.624111 245.578887 
L 501.232097 248.919896 
L 504.840083 251.866981 
L 507.546072 253.823284 
L 511.154058 256.083688 
L 514.762045 257.951099 
L 517.468034 259.072008 
L 521.07602 260.20748 
L 523.78201 260.80045 
L 526.487999 261.197077 
L 529.193989 261.38943 
L 529.193989 261.38943 
" clip-path="url(#p96fe3a76f9)" style="fill: none; stroke: #7570b3; stroke-width: 2; stroke-linecap: round"/>
   </g>
   <g id="line2d_16">
    <path d="M 68.273766 368.735995 
L 68.273766 288.062659 
" clip-path="url(#p96fe3a76f9)" style="fill: none; stroke: #7570b3; stroke-width: 2; stroke-linecap: round"/>
   </g>
   <g id="line2d_17">
    <path d="M 529.193989 369.002727 
L 529.193989 261.38943 
" clip-path="url(#p96fe3a76f9)" style="fill: none; stroke: #7570b3; stroke-width: 2; stroke-linecap: round"/>
   </g>
   <g id="line2d_18">
    <defs>
     <path id="m5ff475e12c" d="M 0 3.5 
C 0.928211 3.5 1.81853 3.131218 2.474874 2.474874 
C 3.131218 1.81853 3.5 0.928211 3.5 0 
C 3.5 -0.928211 3.131218 -1.81853 2.474874 -2.474874 
C 1.81853 -3.131218 0.928211 -3.5 0 -3.5 
C -0.928211 -3.5 -1.81853 -3.131218 -2.474874 -2.474874 
C -3.131218 -1.81853 -3.5 -0.928211 -3.5 0 
C -3.5 0.928211 -3.131218 1.81853 -2.474874 2.474874 
C -1.81853 3.131218 -0.928211 3.5 0 3.5 
z
"/>
    </defs>
    <g clip-path="url(#p96fe3a76f9)">
     <use xlink:href="#m5ff475e12c" x="319.123265" y="367.937249" style="fill: #7570b3"/>
    </g>
   </g>
   <g id="patch_3">
    <path d="M 45.227755 383.84 
L 552.24 383.84 
" style="fill: none; stroke: #333333; stroke-width: 1.5; stroke-linejoin: miter; stroke-linecap: square"/>
   </g>
   <g id="text_8">
    <!-- $x_1^2x_2^2x_3$ -->
    <g style="fill: #262626" transform="translate(252.673878 49.58)">
     <text>
      <tspan x="0" y="-0.734375" style="font-style: oblique; font-size: 28px; font-family: 'DejaVu Sans'; fill: #262626">x</tspan>
      <tspan x="31.056576" y="-0.734375" style="font-style: oblique; font-size: 28px; font-family: 'DejaVu Sans'; fill: #262626">x</tspan>
      <tspan x="62.113151" y="-0.734375" style="font-style: oblique; font-size: 28px; font-family: 'DejaVu Sans'; fill: #262626">x</tspan>
      <tspan x="16.570312" y="6.921875" style="font-size: 19.6px; font-family: 'DejaVu Sans'; fill: #262626">1</tspan>
      <tspan x="17.820833" y="-11.453125" style="font-size: 19.6px; font-family: 'DejaVu Sans'; fill: #262626">2</tspan>
      <tspan x="47.626888" y="6.921875" style="font-size: 19.6px; font-family: 'DejaVu Sans'; fill: #262626">2</tspan>
      <tspan x="48.877409" y="-11.453125" style="font-size: 19.6px; font-family: 'DejaVu Sans'; fill: #262626">2</tspan>
      <tspan x="78.683464" y="3.859375" style="font-size: 19.6px; font-family: 'DejaVu Sans'; fill: #262626">3</tspan>
     </text>
    </g>
   </g>
  </g>
 </g>
 <defs>
  <clipPath id="p96fe3a76f9">
   <rect x="45.227755" y="57.42" width="507.012245" height="326.42"/>
  </clipPath>
 </defs>
</svg>
