<?xml version="1.0" encoding="utf-8" standalone="no"?>
<!DOCTYPE svg PUBLIC "-//W3C//DTD SVG 1.1//EN"
  "http://www.w3.org/Graphics/SVG/1.1/DTD/svg11.dtd">
<svg xmlns:xlink="http://www.w3.org/1999/xlink" width="576pt" height="432pt" viewBox="0 0 576 432" xmlns="http://www.w3.org/2000/svg" version="1.1">
 <metadata>
  <rdf:RDF xmlns:dc="http://purl.org/dc/elements/1.1/" xmlns:cc="http://creativecommons.org/ns#" xmlns:rdf="http://www.w3.org/1999/02/22-rdf-syntax-ns#">
   <cc:Work>
    <dc:type rdf:resource="http://purl.org/dc/dcmitype/StillImage"/>
    <dc:date>2025-09-22T23:00:34.570679</dc:date>
    <dc:format>image/svg+xml</dc:format>
    <dc:creator>
     <cc:Agent>
      <dc:title>Matplotlib v3.10.0, https://matplotlib.org/</dc:title>
     </cc:Agent>
    </dc:creator>
   </cc:Work>
  </rdf:RDF>
 </metadata>
 <defs>
  <style type="text/css">*{stroke-linejoin: round; stroke-linecap: butt}</style>
 </defs>
 <g id="figure_1">
  <g id="patch_1">
   <path d="M 0 432 
L 576 432 
L 576 0 
L 0 0 
L 0 432 
z
" style="fill: none; opacity: 0"/>
  </g>
  <g id="axes_1">
   <g id="patch_2">
    <path d="M 41.286577 383.84 
L 550.982668 383.84 
L 550.982668 57.42 
L 41.286577 57.42 
L 41.286577 383.84 
z
" style="fill: none"/>
   </g>
   <g id="matplotlib.axis_1">
    <g id="xtick_1">
     <g id="line2d_1">
      <path d="M 52.75408 383.84 
L 52.75408 57.42 
" clip-path="url(#pde12443272)" style="fill: none; stroke: #ffffff; stroke-opacity: 0.4; stroke-linecap: round"/>
     </g>
     <g id="line2d_2"/>
     <g id="text_1">
      <text style="font-size: 18px; font-family: 'DejaVu Serif', 'Times New Roman', serif; text-anchor: middle; fill: #262626" x="52.75408" y="404.517187" transform="rotate(-0 52.75408 404.517187)">−1.04</text>
     </g>
    </g>
    <g id="xtick_2">
     <g id="line2d_3">
      <path d="M 146.391077 383.84 
L 146.391077 57.42 
" clip-path="url(#pde12443272)" style="fill: none; stroke: #ffffff; stroke-opacity: 0.4; stroke-linecap: round"/>
     </g>
     <g id="line2d_4"/>
     <g id="text_2">
      <text style="font-size: 18px; font-family: 'DejaVu Serif', 'Times New Roman', serif; text-anchor: middle; fill: #262626" x="146.391077" y="404.517187" transform="rotate(-0 146.391077 404.517187)">−1.02</text>
     </g>
    </g>
    <g id="xtick_3">
     <g id="line2d_5">
      <path d="M 240.028074 383.84 
L 240.028074 57.42 
" clip-path="url(#pde12443272)" style="fill: none; stroke: #ffffff; stroke-opacity: 0.4; stroke-linecap: round"/>
     </g>
     <g id="line2d_6"/>
     <g id="text_3">
      <text style="font-size: 18px; font-family: 'DejaVu Serif', 'Times New Roman', serif; text-anchor: middle; fill: #262626" x="240.028074" y="404.517187" transform="rotate(-0 240.028074 404.517187)">−1.00</text>
     </g>
    </g>
    <g id="xtick_4">
     <g id="line2d_7">
      <path d="M 333.665072 383.84 
L 333.665072 57.42 
" clip-path="url(#pde12443272)" style="fill: none; stroke: #ffffff; stroke-opacity: 0.4; stroke-linecap: round"/>
     </g>
     <g id="line2d_8"/>
     <g id="text_4">
      <text style="font-size: 18px; font-family: 'DejaVu Serif', 'Times New Roman', serif; text-anchor: middle; fill: #262626" x="333.665072" y="404.517187" transform="rotate(-0 333.665072 404.517187)">−0.98</text>
     </g>
    </g>
    <g id="xtick_5">
     <g id="line2d_9">
      <path d="M 427.302069 383.84 
L 427.302069 57.42 
" clip-path="url(#pde12443272)" style="fill: none; stroke: #ffffff; stroke-opacity: 0.4; stroke-linecap: round"/>
     </g>
     <g id="line2d_10"/>
     <g id="text_5">
      <text style="font-size: 18px; font-family: 'DejaVu Serif', 'Times New Roman', serif; text-anchor: middle; fill: #262626" x="427.302069" y="404.517187" transform="rotate(-0 427.302069 404.517187)">−0.96</text>
     </g>
    </g>
    <g id="xtick_6">
     <g id="line2d_11">
      <path d="M 520.939066 383.84 
L 520.939066 57.42 
" clip-path="url(#pde12443272)" style="fill: none; stroke: #ffffff; stroke-opacity: 0.4; stroke-linecap: round"/>
     </g>
     <g id="line2d_12"/>
     <g id="text_6">
      <text style="font-size: 18px; font-family: 'DejaVu Serif', 'Times New Roman', serif; text-anchor: middle; fill: #262626" x="520.939066" y="404.517187" transform="rotate(-0 520.939066 404.517187)">−0.94</text>
     </g>
    </g>
   </g>
   <g id="matplotlib.axis_2"/>
   <g id="FillBetweenPolyCollection_1">
    <defs>
     <path id="m26f5b88e83" d="M 64.454581 -64.30807 
L 64.454581 -195.387839 
L 65.361352 -195.405876 
L 66.268123 -195.465971 
L 67.174894 -195.553957 
L 68.081666 -195.681349 
L 68.988437 -195.831793 
L 69.895208 -196.045504 
L 70.801979 -196.285186 
L 71.70875 -196.599255 
L 72.615522 -196.908691 
L 73.522293 -197.233089 
L 74.429064 -197.606265 
L 75.335835 -197.997656 
L 76.242606 -198.4397 
L 77.149378 -198.912554 
L 78.056149 -199.40359 
L 78.96292 -199.946402 
L 79.869691 -200.519263 
L 80.776462 -201.120874 
L 81.683234 -201.741377 
L 82.590005 -202.376494 
L 83.496776 -203.06695 
L 84.403547 -203.737292 
L 85.310318 -204.475172 
L 86.21709 -205.22525 
L 87.123861 -205.979201 
L 88.030632 -206.752256 
L 88.937403 -207.538649 
L 89.844174 -208.361226 
L 90.750946 -209.191461 
L 91.657717 -210.030962 
L 92.564488 -210.868401 
L 93.471259 -211.736622 
L 94.37803 -212.61961 
L 95.284802 -213.502147 
L 96.191573 -214.381785 
L 97.098344 -215.281832 
L 98.005115 -216.172925 
L 98.911886 -217.073953 
L 99.818658 -218.009219 
L 100.725429 -218.905403 
L 101.6322 -219.822584 
L 102.538971 -220.737317 
L 103.445742 -221.652338 
L 104.352514 -222.586542 
L 105.259285 -223.504709 
L 106.166056 -224.407851 
L 107.072827 -225.317737 
L 107.979598 -226.251138 
L 108.88637 -227.137356 
L 109.793141 -228.010719 
L 110.699912 -228.917665 
L 111.606683 -229.799255 
L 112.513454 -230.669264 
L 113.420226 -231.528457 
L 114.326997 -232.387365 
L 115.233768 -233.238892 
L 116.140539 -234.08887 
L 117.04731 -234.942112 
L 117.954082 -235.792293 
L 118.860853 -236.629547 
L 119.767624 -237.45685 
L 120.674395 -238.261381 
L 121.581166 -239.080643 
L 122.487938 -239.888786 
L 123.394709 -240.683721 
L 124.30148 -241.490305 
L 125.208251 -242.277973 
L 126.115022 -243.053505 
L 127.021794 -243.809899 
L 127.928565 -244.586006 
L 128.835336 -245.368971 
L 129.742107 -246.127498 
L 130.648878 -246.887683 
L 131.55565 -247.632592 
L 132.462421 -248.394385 
L 133.369192 -249.128817 
L 134.275963 -249.86715 
L 135.182734 -250.605305 
L 136.089506 -251.364557 
L 136.996277 -252.113587 
L 137.903048 -252.839123 
L 138.809819 -253.568295 
L 139.71659 -254.308119 
L 140.623362 -255.050773 
L 141.530133 -255.791369 
L 142.436904 -256.548754 
L 143.343675 -257.297492 
L 144.250446 -258.060822 
L 145.157218 -258.81539 
L 146.063989 -259.596168 
L 146.97076 -260.348462 
L 147.877531 -261.120406 
L 148.784302 -261.882111 
L 149.691074 -262.659176 
L 150.597845 -263.467254 
L 151.504616 -264.261766 
L 152.411387 -265.06155 
L 153.318158 -265.863728 
L 154.22493 -266.679083 
L 155.131701 -267.499893 
L 156.038472 -268.308345 
L 156.945243 -269.128763 
L 157.852014 -269.956564 
L 158.758786 -270.788304 
L 159.665557 -271.634211 
L 160.572328 -272.473956 
L 161.479099 -273.33097 
L 162.38587 -274.167941 
L 163.292642 -275.054501 
L 164.199413 -275.937421 
L 165.106184 -276.802369 
L 166.012955 -277.709247 
L 166.919726 -278.606319 
L 167.826498 -279.501758 
L 168.733269 -280.419284 
L 169.64004 -281.33272 
L 170.546811 -282.257384 
L 171.453582 -283.213093 
L 172.360354 -284.181088 
L 173.267125 -285.159273 
L 174.173896 -286.13184 
L 175.080667 -287.107277 
L 175.987438 -288.113402 
L 176.89421 -289.130302 
L 177.800981 -290.147305 
L 178.707752 -291.193172 
L 179.614523 -292.223025 
L 180.521294 -293.248854 
L 181.428066 -294.30467 
L 182.334837 -295.356576 
L 183.241608 -296.435389 
L 184.148379 -297.513217 
L 185.05515 -298.614452 
L 185.961922 -299.728518 
L 186.868693 -300.826661 
L 187.775464 -301.964526 
L 188.682235 -303.092053 
L 189.589006 -304.218088 
L 190.495778 -305.358569 
L 191.402549 -306.519804 
L 192.30932 -307.671976 
L 193.216091 -308.845039 
L 194.122862 -310.023888 
L 195.029634 -311.208327 
L 195.936405 -312.396439 
L 196.843176 -313.581887 
L 197.749947 -314.788835 
L 198.656718 -316.002471 
L 199.56349 -317.212038 
L 200.470261 -318.405823 
L 201.377032 -319.605405 
L 202.283803 -320.789175 
L 203.190574 -321.981618 
L 204.097346 -323.178345 
L 205.004117 -324.375763 
L 205.910888 -325.544567 
L 206.817659 -326.732636 
L 207.72443 -327.877232 
L 208.631202 -329.032115 
L 209.537973 -330.185963 
L 210.444744 -331.326333 
L 211.351515 -332.445242 
L 212.258286 -333.552793 
L 213.165058 -334.644186 
L 214.071829 -335.710586 
L 214.9786 -336.740279 
L 215.885371 -337.791983 
L 216.792142 -338.790268 
L 217.698914 -339.77139 
L 218.605685 -340.715305 
L 219.512456 -341.672772 
L 220.419227 -342.592137 
L 221.325998 -343.489051 
L 222.23277 -344.378544 
L 223.139541 -345.214144 
L 224.046312 -346.045488 
L 224.953083 -346.854867 
L 225.859854 -347.611425 
L 226.766626 -348.363641 
L 227.673397 -349.069887 
L 228.580168 -349.764934 
L 229.486939 -350.435562 
L 230.39371 -351.037203 
L 231.300482 -351.644607 
L 232.207253 -352.218579 
L 233.114024 -352.750154 
L 234.020795 -353.257144 
L 234.927566 -353.756746 
L 235.834337 -354.236266 
L 236.741109 -354.662176 
L 237.64788 -355.083339 
L 238.554651 -355.465425 
L 239.461422 -355.835682 
L 240.368193 -356.200694 
L 241.274965 -356.483809 
L 242.181736 -356.778917 
L 243.088507 -357.063117 
L 243.995278 -357.299543 
L 244.902049 -357.532016 
L 245.808821 -357.744545 
L 246.715592 -357.916367 
L 247.622363 -358.120323 
L 248.529134 -358.267332 
L 249.435905 -358.406554 
L 250.342677 -358.525118 
L 251.249448 -358.663353 
L 252.156219 -358.782532 
L 253.06299 -358.878816 
L 253.969761 -358.96792 
L 254.876533 -359.013644 
L 255.783304 -359.085369 
L 256.690075 -359.16772 
L 257.596846 -359.229128 
L 258.503617 -359.28019 
L 259.410389 -359.33773 
L 260.31716 -359.379103 
L 261.223931 -359.411803 
L 262.130702 -359.443638 
L 263.037473 -359.475126 
L 263.944245 -359.48423 
L 264.851016 -359.495336 
L 265.757787 -359.505402 
L 266.664558 -359.524211 
L 267.571329 -359.574921 
L 268.478101 -359.582693 
L 269.384872 -359.603172 
L 270.291643 -359.609431 
L 271.198414 -359.611796 
L 272.105185 -359.620492 
L 273.011957 -359.638082 
L 273.918728 -359.667618 
L 274.825499 -359.686919 
L 275.73227 -359.696997 
L 276.639041 -359.70908 
L 277.545813 -359.724313 
L 278.452584 -359.742727 
L 279.359355 -359.737376 
L 280.266126 -359.730129 
L 281.172897 -359.708976 
L 282.079669 -359.678795 
L 282.98644 -359.654457 
L 283.893211 -359.628725 
L 284.799982 -359.595543 
L 285.706753 -359.54884 
L 286.613525 -359.470008 
L 287.520296 -359.413166 
L 288.427067 -359.314341 
L 289.333838 -359.214386 
L 290.240609 -359.108293 
L 291.147381 -358.987941 
L 292.054152 -358.842014 
L 292.960923 -358.676851 
L 293.867694 -358.530261 
L 294.774465 -358.350594 
L 295.681237 -358.165095 
L 296.588008 -357.935875 
L 297.494779 -357.673594 
L 298.40155 -357.444046 
L 299.308321 -357.191508 
L 300.215093 -356.896946 
L 301.121864 -356.604897 
L 302.028635 -356.288078 
L 302.935406 -355.958277 
L 303.842177 -355.598071 
L 304.748949 -355.212632 
L 305.65572 -354.822832 
L 306.562491 -354.398193 
L 307.469262 -353.973038 
L 308.376033 -353.505758 
L 309.282805 -353.033145 
L 310.189576 -352.526998 
L 311.096347 -352.032409 
L 312.003118 -351.53183 
L 312.909889 -351.01152 
L 313.816661 -350.479533 
L 314.723432 -349.914889 
L 315.630203 -349.359746 
L 316.536974 -348.794021 
L 317.443745 -348.20211 
L 318.350517 -347.623563 
L 319.257288 -347.028692 
L 320.164059 -346.403756 
L 321.07083 -345.808102 
L 321.977601 -345.221595 
L 322.884373 -344.619019 
L 323.791144 -344.019269 
L 324.697915 -343.447652 
L 325.604686 -342.841046 
L 326.511457 -342.266741 
L 327.418229 -341.70683 
L 328.325 -341.14231 
L 329.231771 -340.591868 
L 330.138542 -340.039486 
L 331.045313 -339.502782 
L 331.952085 -338.97318 
L 332.858856 -338.451622 
L 333.765627 -337.957396 
L 334.672398 -337.443832 
L 335.579169 -336.956506 
L 336.485941 -336.476039 
L 337.392712 -336.022877 
L 338.299483 -335.560325 
L 339.206254 -335.104903 
L 340.113025 -334.67702 
L 341.019797 -334.252843 
L 341.926568 -333.834938 
L 342.833339 -333.420843 
L 343.74011 -332.995472 
L 344.646881 -332.61893 
L 345.553653 -332.212581 
L 346.460424 -331.814099 
L 347.367195 -331.445861 
L 348.273966 -331.053148 
L 349.180737 -330.688451 
L 350.087509 -330.308174 
L 350.99428 -329.928641 
L 351.901051 -329.554445 
L 352.807822 -329.202027 
L 353.714593 -328.795409 
L 354.621365 -328.403102 
L 355.528136 -327.979039 
L 356.434907 -327.546696 
L 357.341678 -327.100944 
L 358.248449 -326.63991 
L 359.155221 -326.159371 
L 360.061992 -325.67568 
L 360.968763 -325.188093 
L 361.875534 -324.666627 
L 362.782305 -324.082855 
L 363.689077 -323.50793 
L 364.595848 -322.924376 
L 365.502619 -322.294022 
L 366.40939 -321.6402 
L 367.316161 -320.985947 
L 368.222933 -320.281707 
L 369.129704 -319.538287 
L 370.036475 -318.809545 
L 370.943246 -318.0375 
L 371.850017 -317.232626 
L 372.756789 -316.426004 
L 373.66356 -315.537896 
L 374.570331 -314.65882 
L 375.477102 -313.754068 
L 376.383873 -312.822175 
L 377.290645 -311.889898 
L 378.197416 -310.927585 
L 379.104187 -309.920547 
L 380.010958 -308.913506 
L 380.917729 -307.899084 
L 381.824501 -306.845219 
L 382.731272 -305.774492 
L 383.638043 -304.70145 
L 384.544814 -303.585607 
L 385.451585 -302.475286 
L 386.358357 -301.348151 
L 387.265128 -300.191187 
L 388.171899 -299.055963 
L 389.07867 -297.910944 
L 389.985441 -296.738815 
L 390.892213 -295.584417 
L 391.798984 -294.406555 
L 392.705755 -293.234819 
L 393.612526 -292.054533 
L 394.519297 -290.853279 
L 395.426069 -289.686886 
L 396.33284 -288.504688 
L 397.239611 -287.323879 
L 398.146382 -286.130623 
L 399.053153 -284.951525 
L 399.959925 -283.785291 
L 400.866696 -282.637924 
L 401.773467 -281.499841 
L 402.680238 -280.361833 
L 403.587009 -279.228231 
L 404.493781 -278.097631 
L 405.400552 -276.971275 
L 406.307323 -275.865946 
L 407.214094 -274.783953 
L 408.120865 -273.697484 
L 409.027637 -272.638197 
L 409.934408 -271.572566 
L 410.841179 -270.524423 
L 411.74795 -269.486572 
L 412.654721 -268.448528 
L 413.561493 -267.430672 
L 414.468264 -266.395805 
L 415.375035 -265.397837 
L 416.281806 -264.402687 
L 417.188577 -263.416863 
L 418.095349 -262.431869 
L 419.00212 -261.454031 
L 419.908891 -260.483184 
L 420.815662 -259.512683 
L 421.722433 -258.539398 
L 422.629205 -257.579363 
L 423.535976 -256.644636 
L 424.442747 -255.706794 
L 425.349518 -254.780101 
L 426.256289 -253.857499 
L 427.163061 -252.939503 
L 428.069832 -252.024678 
L 428.976603 -251.096336 
L 429.883374 -250.154525 
L 430.790145 -249.208766 
L 431.696917 -248.288685 
L 432.603688 -247.369422 
L 433.510459 -246.455974 
L 434.41723 -245.51399 
L 435.324001 -244.578197 
L 436.230773 -243.626959 
L 437.137544 -242.66958 
L 438.044315 -241.705301 
L 438.951086 -240.743462 
L 439.857857 -239.76613 
L 440.764629 -238.763825 
L 441.6714 -237.763966 
L 442.578171 -236.756239 
L 443.484942 -235.753764 
L 444.391713 -234.738012 
L 445.298485 -233.67156 
L 446.205256 -232.622987 
L 447.112027 -231.57332 
L 448.018798 -230.483632 
L 448.925569 -229.401849 
L 449.832341 -228.313692 
L 450.739112 -227.215527 
L 451.645883 -226.093748 
L 452.552654 -224.958466 
L 453.459425 -223.816636 
L 454.366197 -222.668929 
L 455.272968 -221.514929 
L 456.179739 -220.350325 
L 457.08651 -219.163323 
L 457.993281 -217.94611 
L 458.900053 -216.726112 
L 459.806824 -215.496226 
L 460.713595 -214.267604 
L 461.620366 -213.046719 
L 462.527137 -211.796803 
L 463.433909 -210.545796 
L 464.34068 -209.287496 
L 465.247451 -208.008992 
L 466.154222 -206.738245 
L 467.060993 -205.484812 
L 467.967765 -204.223972 
L 468.874536 -202.961601 
L 469.781307 -201.69548 
L 470.688078 -200.432998 
L 471.594849 -199.159037 
L 472.501621 -197.912299 
L 473.408392 -196.675681 
L 474.315163 -195.437007 
L 475.221934 -194.215022 
L 476.128705 -193.001539 
L 477.035477 -191.808466 
L 477.942248 -190.623168 
L 478.849019 -189.454705 
L 479.75579 -188.308064 
L 480.662561 -187.169648 
L 481.569333 -186.050299 
L 482.476104 -184.958411 
L 483.382875 -183.901573 
L 484.289646 -182.843541 
L 485.196417 -181.830374 
L 486.103189 -180.85306 
L 487.00996 -179.875226 
L 487.916731 -178.931846 
L 488.823502 -178.012715 
L 489.730273 -177.134089 
L 490.637045 -176.28571 
L 491.543816 -175.425883 
L 492.450587 -174.623539 
L 493.357358 -173.852619 
L 494.264129 -173.097184 
L 495.170901 -172.389425 
L 496.077672 -171.705162 
L 496.984443 -171.04663 
L 497.891214 -170.424033 
L 498.797985 -169.827007 
L 499.704757 -169.239449 
L 500.611528 -168.715454 
L 501.518299 -168.211855 
L 502.42507 -167.749105 
L 503.331841 -167.295727 
L 504.238613 -166.878023 
L 505.145384 -166.485287 
L 506.052155 -166.113614 
L 506.958926 -165.763063 
L 507.865697 -165.423543 
L 508.772469 -165.127042 
L 509.67924 -164.86103 
L 510.586011 -164.604254 
L 511.492782 -164.343408 
L 512.399553 -164.132181 
L 513.306325 -163.928684 
L 514.213096 -163.73204 
L 515.119867 -163.560569 
L 516.026638 -163.420687 
L 516.933409 -163.264204 
L 517.840181 -163.131677 
L 518.746952 -163.02592 
L 519.653723 -162.898335 
L 520.560494 -162.812839 
L 521.467265 -162.743839 
L 522.374037 -162.674807 
L 523.280808 -162.612506 
L 524.187579 -162.566935 
L 525.09435 -162.518016 
L 526.001121 -162.485042 
L 526.907893 -162.449546 
L 527.814664 -162.439422 
L 527.814664 -64.30807 
L 527.814664 -64.30807 
L 526.907893 -64.30807 
L 526.001121 -64.30807 
L 525.09435 -64.30807 
L 524.187579 -64.30807 
L 523.280808 -64.30807 
L 522.374037 -64.30807 
L 521.467265 -64.30807 
L 520.560494 -64.30807 
L 519.653723 -64.30807 
L 518.746952 -64.30807 
L 517.840181 -64.30807 
L 516.933409 -64.30807 
L 516.026638 -64.30807 
L 515.119867 -64.30807 
L 514.213096 -64.30807 
L 513.306325 -64.30807 
L 512.399553 -64.30807 
L 511.492782 -64.30807 
L 510.586011 -64.30807 
L 509.67924 -64.30807 
L 508.772469 -64.30807 
L 507.865697 -64.30807 
L 506.958926 -64.30807 
L 506.052155 -64.30807 
L 505.145384 -64.30807 
L 504.238613 -64.30807 
L 503.331841 -64.30807 
L 502.42507 -64.30807 
L 501.518299 -64.30807 
L 500.611528 -64.30807 
L 499.704757 -64.30807 
L 498.797985 -64.30807 
L 497.891214 -64.30807 
L 496.984443 -64.30807 
L 496.077672 -64.30807 
L 495.170901 -64.30807 
L 494.264129 -64.30807 
L 493.357358 -64.30807 
L 492.450587 -64.30807 
L 491.543816 -64.30807 
L 490.637045 -64.30807 
L 489.730273 -64.30807 
L 488.823502 -64.30807 
L 487.916731 -64.30807 
L 487.00996 -64.30807 
L 486.103189 -64.30807 
L 485.196417 -64.30807 
L 484.289646 -64.30807 
L 483.382875 -64.30807 
L 482.476104 -64.30807 
L 481.569333 -64.30807 
L 480.662561 -64.30807 
L 479.75579 -64.30807 
L 478.849019 -64.30807 
L 477.942248 -64.30807 
L 477.035477 -64.30807 
L 476.128705 -64.30807 
L 475.221934 -64.30807 
L 474.315163 -64.30807 
L 473.408392 -64.30807 
L 472.501621 -64.30807 
L 471.594849 -64.30807 
L 470.688078 -64.30807 
L 469.781307 -64.30807 
L 468.874536 -64.30807 
L 467.967765 -64.30807 
L 467.060993 -64.30807 
L 466.154222 -64.30807 
L 465.247451 -64.30807 
L 464.34068 -64.30807 
L 463.433909 -64.30807 
L 462.527137 -64.30807 
L 461.620366 -64.30807 
L 460.713595 -64.30807 
L 459.806824 -64.30807 
L 458.900053 -64.30807 
L 457.993281 -64.30807 
L 457.08651 -64.30807 
L 456.179739 -64.30807 
L 455.272968 -64.30807 
L 454.366197 -64.30807 
L 453.459425 -64.30807 
L 452.552654 -64.30807 
L 451.645883 -64.30807 
L 450.739112 -64.30807 
L 449.832341 -64.30807 
L 448.925569 -64.30807 
L 448.018798 -64.30807 
L 447.112027 -64.30807 
L 446.205256 -64.30807 
L 445.298485 -64.30807 
L 444.391713 -64.30807 
L 443.484942 -64.30807 
L 442.578171 -64.30807 
L 441.6714 -64.30807 
L 440.764629 -64.30807 
L 439.857857 -64.30807 
L 438.951086 -64.30807 
L 438.044315 -64.30807 
L 437.137544 -64.30807 
L 436.230773 -64.30807 
L 435.324001 -64.30807 
L 434.41723 -64.30807 
L 433.510459 -64.30807 
L 432.603688 -64.30807 
L 431.696917 -64.30807 
L 430.790145 -64.30807 
L 429.883374 -64.30807 
L 428.976603 -64.30807 
L 428.069832 -64.30807 
L 427.163061 -64.30807 
L 426.256289 -64.30807 
L 425.349518 -64.30807 
L 424.442747 -64.30807 
L 423.535976 -64.30807 
L 422.629205 -64.30807 
L 421.722433 -64.30807 
L 420.815662 -64.30807 
L 419.908891 -64.30807 
L 419.00212 -64.30807 
L 418.095349 -64.30807 
L 417.188577 -64.30807 
L 416.281806 -64.30807 
L 415.375035 -64.30807 
L 414.468264 -64.30807 
L 413.561493 -64.30807 
L 412.654721 -64.30807 
L 411.74795 -64.30807 
L 410.841179 -64.30807 
L 409.934408 -64.30807 
L 409.027637 -64.30807 
L 408.120865 -64.30807 
L 407.214094 -64.30807 
L 406.307323 -64.30807 
L 405.400552 -64.30807 
L 404.493781 -64.30807 
L 403.587009 -64.30807 
L 402.680238 -64.30807 
L 401.773467 -64.30807 
L 400.866696 -64.30807 
L 399.959925 -64.30807 
L 399.053153 -64.30807 
L 398.146382 -64.30807 
L 397.239611 -64.30807 
L 396.33284 -64.30807 
L 395.426069 -64.30807 
L 394.519297 -64.30807 
L 393.612526 -64.30807 
L 392.705755 -64.30807 
L 391.798984 -64.30807 
L 390.892213 -64.30807 
L 389.985441 -64.30807 
L 389.07867 -64.30807 
L 388.171899 -64.30807 
L 387.265128 -64.30807 
L 386.358357 -64.30807 
L 385.451585 -64.30807 
L 384.544814 -64.30807 
L 383.638043 -64.30807 
L 382.731272 -64.30807 
L 381.824501 -64.30807 
L 380.917729 -64.30807 
L 380.010958 -64.30807 
L 379.104187 -64.30807 
L 378.197416 -64.30807 
L 377.290645 -64.30807 
L 376.383873 -64.30807 
L 375.477102 -64.30807 
L 374.570331 -64.30807 
L 373.66356 -64.30807 
L 372.756789 -64.30807 
L 371.850017 -64.30807 
L 370.943246 -64.30807 
L 370.036475 -64.30807 
L 369.129704 -64.30807 
L 368.222933 -64.30807 
L 367.316161 -64.30807 
L 366.40939 -64.30807 
L 365.502619 -64.30807 
L 364.595848 -64.30807 
L 363.689077 -64.30807 
L 362.782305 -64.30807 
L 361.875534 -64.30807 
L 360.968763 -64.30807 
L 360.061992 -64.30807 
L 359.155221 -64.30807 
L 358.248449 -64.30807 
L 357.341678 -64.30807 
L 356.434907 -64.30807 
L 355.528136 -64.30807 
L 354.621365 -64.30807 
L 353.714593 -64.30807 
L 352.807822 -64.30807 
L 351.901051 -64.30807 
L 350.99428 -64.30807 
L 350.087509 -64.30807 
L 349.180737 -64.30807 
L 348.273966 -64.30807 
L 347.367195 -64.30807 
L 346.460424 -64.30807 
L 345.553653 -64.30807 
L 344.646881 -64.30807 
L 343.74011 -64.30807 
L 342.833339 -64.30807 
L 341.926568 -64.30807 
L 341.019797 -64.30807 
L 340.113025 -64.30807 
L 339.206254 -64.30807 
L 338.299483 -64.30807 
L 337.392712 -64.30807 
L 336.485941 -64.30807 
L 335.579169 -64.30807 
L 334.672398 -64.30807 
L 333.765627 -64.30807 
L 332.858856 -64.30807 
L 331.952085 -64.30807 
L 331.045313 -64.30807 
L 330.138542 -64.30807 
L 329.231771 -64.30807 
L 328.325 -64.30807 
L 327.418229 -64.30807 
L 326.511457 -64.30807 
L 325.604686 -64.30807 
L 324.697915 -64.30807 
L 323.791144 -64.30807 
L 322.884373 -64.30807 
L 321.977601 -64.30807 
L 321.07083 -64.30807 
L 320.164059 -64.30807 
L 319.257288 -64.30807 
L 318.350517 -64.30807 
L 317.443745 -64.30807 
L 316.536974 -64.30807 
L 315.630203 -64.30807 
L 314.723432 -64.30807 
L 313.816661 -64.30807 
L 312.909889 -64.30807 
L 312.003118 -64.30807 
L 311.096347 -64.30807 
L 310.189576 -64.30807 
L 309.282805 -64.30807 
L 308.376033 -64.30807 
L 307.469262 -64.30807 
L 306.562491 -64.30807 
L 305.65572 -64.30807 
L 304.748949 -64.30807 
L 303.842177 -64.30807 
L 302.935406 -64.30807 
L 302.028635 -64.30807 
L 301.121864 -64.30807 
L 300.215093 -64.30807 
L 299.308321 -64.30807 
L 298.40155 -64.30807 
L 297.494779 -64.30807 
L 296.588008 -64.30807 
L 295.681237 -64.30807 
L 294.774465 -64.30807 
L 293.867694 -64.30807 
L 292.960923 -64.30807 
L 292.054152 -64.30807 
L 291.147381 -64.30807 
L 290.240609 -64.30807 
L 289.333838 -64.30807 
L 288.427067 -64.30807 
L 287.520296 -64.30807 
L 286.613525 -64.30807 
L 285.706753 -64.30807 
L 284.799982 -64.30807 
L 283.893211 -64.30807 
L 282.98644 -64.30807 
L 282.079669 -64.30807 
L 281.172897 -64.30807 
L 280.266126 -64.30807 
L 279.359355 -64.30807 
L 278.452584 -64.30807 
L 277.545813 -64.30807 
L 276.639041 -64.30807 
L 275.73227 -64.30807 
L 274.825499 -64.30807 
L 273.918728 -64.30807 
L 273.011957 -64.30807 
L 272.105185 -64.30807 
L 271.198414 -64.30807 
L 270.291643 -64.30807 
L 269.384872 -64.30807 
L 268.478101 -64.30807 
L 267.571329 -64.30807 
L 266.664558 -64.30807 
L 265.757787 -64.30807 
L 264.851016 -64.30807 
L 263.944245 -64.30807 
L 263.037473 -64.30807 
L 262.130702 -64.30807 
L 261.223931 -64.30807 
L 260.31716 -64.30807 
L 259.410389 -64.30807 
L 258.503617 -64.30807 
L 257.596846 -64.30807 
L 256.690075 -64.30807 
L 255.783304 -64.30807 
L 254.876533 -64.30807 
L 253.969761 -64.30807 
L 253.06299 -64.30807 
L 252.156219 -64.30807 
L 251.249448 -64.30807 
L 250.342677 -64.30807 
L 249.435905 -64.30807 
L 248.529134 -64.30807 
L 247.622363 -64.30807 
L 246.715592 -64.30807 
L 245.808821 -64.30807 
L 244.902049 -64.30807 
L 243.995278 -64.30807 
L 243.088507 -64.30807 
L 242.181736 -64.30807 
L 241.274965 -64.30807 
L 240.368193 -64.30807 
L 239.461422 -64.30807 
L 238.554651 -64.30807 
L 237.64788 -64.30807 
L 236.741109 -64.30807 
L 235.834337 -64.30807 
L 234.927566 -64.30807 
L 234.020795 -64.30807 
L 233.114024 -64.30807 
L 232.207253 -64.30807 
L 231.300482 -64.30807 
L 230.39371 -64.30807 
L 229.486939 -64.30807 
L 228.580168 -64.30807 
L 227.673397 -64.30807 
L 226.766626 -64.30807 
L 225.859854 -64.30807 
L 224.953083 -64.30807 
L 224.046312 -64.30807 
L 223.139541 -64.30807 
L 222.23277 -64.30807 
L 221.325998 -64.30807 
L 220.419227 -64.30807 
L 219.512456 -64.30807 
L 218.605685 -64.30807 
L 217.698914 -64.30807 
L 216.792142 -64.30807 
L 215.885371 -64.30807 
L 214.9786 -64.30807 
L 214.071829 -64.30807 
L 213.165058 -64.30807 
L 212.258286 -64.30807 
L 211.351515 -64.30807 
L 210.444744 -64.30807 
L 209.537973 -64.30807 
L 208.631202 -64.30807 
L 207.72443 -64.30807 
L 206.817659 -64.30807 
L 205.910888 -64.30807 
L 205.004117 -64.30807 
L 204.097346 -64.30807 
L 203.190574 -64.30807 
L 202.283803 -64.30807 
L 201.377032 -64.30807 
L 200.470261 -64.30807 
L 199.56349 -64.30807 
L 198.656718 -64.30807 
L 197.749947 -64.30807 
L 196.843176 -64.30807 
L 195.936405 -64.30807 
L 195.029634 -64.30807 
L 194.122862 -64.30807 
L 193.216091 -64.30807 
L 192.30932 -64.30807 
L 191.402549 -64.30807 
L 190.495778 -64.30807 
L 189.589006 -64.30807 
L 188.682235 -64.30807 
L 187.775464 -64.30807 
L 186.868693 -64.30807 
L 185.961922 -64.30807 
L 185.05515 -64.30807 
L 184.148379 -64.30807 
L 183.241608 -64.30807 
L 182.334837 -64.30807 
L 181.428066 -64.30807 
L 180.521294 -64.30807 
L 179.614523 -64.30807 
L 178.707752 -64.30807 
L 177.800981 -64.30807 
L 176.89421 -64.30807 
L 175.987438 -64.30807 
L 175.080667 -64.30807 
L 174.173896 -64.30807 
L 173.267125 -64.30807 
L 172.360354 -64.30807 
L 171.453582 -64.30807 
L 170.546811 -64.30807 
L 169.64004 -64.30807 
L 168.733269 -64.30807 
L 167.826498 -64.30807 
L 166.919726 -64.30807 
L 166.012955 -64.30807 
L 165.106184 -64.30807 
L 164.199413 -64.30807 
L 163.292642 -64.30807 
L 162.38587 -64.30807 
L 161.479099 -64.30807 
L 160.572328 -64.30807 
L 159.665557 -64.30807 
L 158.758786 -64.30807 
L 157.852014 -64.30807 
L 156.945243 -64.30807 
L 156.038472 -64.30807 
L 155.131701 -64.30807 
L 154.22493 -64.30807 
L 153.318158 -64.30807 
L 152.411387 -64.30807 
L 151.504616 -64.30807 
L 150.597845 -64.30807 
L 149.691074 -64.30807 
L 148.784302 -64.30807 
L 147.877531 -64.30807 
L 146.97076 -64.30807 
L 146.063989 -64.30807 
L 145.157218 -64.30807 
L 144.250446 -64.30807 
L 143.343675 -64.30807 
L 142.436904 -64.30807 
L 141.530133 -64.30807 
L 140.623362 -64.30807 
L 139.71659 -64.30807 
L 138.809819 -64.30807 
L 137.903048 -64.30807 
L 136.996277 -64.30807 
L 136.089506 -64.30807 
L 135.182734 -64.30807 
L 134.275963 -64.30807 
L 133.369192 -64.30807 
L 132.462421 -64.30807 
L 131.55565 -64.30807 
L 130.648878 -64.30807 
L 129.742107 -64.30807 
L 128.835336 -64.30807 
L 127.928565 -64.30807 
L 127.021794 -64.30807 
L 126.115022 -64.30807 
L 125.208251 -64.30807 
L 124.30148 -64.30807 
L 123.394709 -64.30807 
L 122.487938 -64.30807 
L 121.581166 -64.30807 
L 120.674395 -64.30807 
L 119.767624 -64.30807 
L 118.860853 -64.30807 
L 117.954082 -64.30807 
L 117.04731 -64.30807 
L 116.140539 -64.30807 
L 115.233768 -64.30807 
L 114.326997 -64.30807 
L 113.420226 -64.30807 
L 112.513454 -64.30807 
L 111.606683 -64.30807 
L 110.699912 -64.30807 
L 109.793141 -64.30807 
L 108.88637 -64.30807 
L 107.979598 -64.30807 
L 107.072827 -64.30807 
L 106.166056 -64.30807 
L 105.259285 -64.30807 
L 104.352514 -64.30807 
L 103.445742 -64.30807 
L 102.538971 -64.30807 
L 101.6322 -64.30807 
L 100.725429 -64.30807 
L 99.818658 -64.30807 
L 98.911886 -64.30807 
L 98.005115 -64.30807 
L 97.098344 -64.30807 
L 96.191573 -64.30807 
L 95.284802 -64.30807 
L 94.37803 -64.30807 
L 93.471259 -64.30807 
L 92.564488 -64.30807 
L 91.657717 -64.30807 
L 90.750946 -64.30807 
L 89.844174 -64.30807 
L 88.937403 -64.30807 
L 88.030632 -64.30807 
L 87.123861 -64.30807 
L 86.21709 -64.30807 
L 85.310318 -64.30807 
L 84.403547 -64.30807 
L 83.496776 -64.30807 
L 82.590005 -64.30807 
L 81.683234 -64.30807 
L 80.776462 -64.30807 
L 79.869691 -64.30807 
L 78.96292 -64.30807 
L 78.056149 -64.30807 
L 77.149378 -64.30807 
L 76.242606 -64.30807 
L 75.335835 -64.30807 
L 74.429064 -64.30807 
L 73.522293 -64.30807 
L 72.615522 -64.30807 
L 71.70875 -64.30807 
L 70.801979 -64.30807 
L 69.895208 -64.30807 
L 68.988437 -64.30807 
L 68.081666 -64.30807 
L 67.174894 -64.30807 
L 66.268123 -64.30807 
L 65.361352 -64.30807 
L 64.454581 -64.30807 
z
" style="stroke: #6cb7ff; stroke-opacity: 0.6; stroke-width: 0.3"/>
    </defs>
    <g clip-path="url(#pde12443272)">
     <use xlink:href="#m26f5b88e83" x="0" y="432" style="fill: #6cb7ff; fill-opacity: 0.6; stroke: #6cb7ff; stroke-opacity: 0.6; stroke-width: 0.3"/>
    </g>
   </g>
   <g id="line2d_13">
    <path d="M 64.454581 236.612161 
L 66.268123 236.534029 
L 68.988437 236.168207 
L 70.801979 235.714814 
L 74.429064 234.393735 
L 76.242606 233.5603 
L 78.96292 232.053598 
L 81.683234 230.258623 
L 84.403547 228.262708 
L 88.937403 224.461351 
L 94.37803 219.38039 
L 101.6322 212.177416 
L 112.513454 201.330736 
L 120.674395 193.738619 
L 126.115022 188.946495 
L 153.318158 166.136272 
L 161.479099 158.66903 
L 165.106184 155.197631 
L 172.360354 147.818912 
L 177.800981 141.852695 
L 185.961922 132.271482 
L 190.495778 126.641431 
L 197.749947 117.211165 
L 205.910888 106.455433 
L 210.444744 100.673667 
L 214.071829 96.289414 
L 218.605685 91.284695 
L 221.325998 88.510949 
L 224.046312 85.954512 
L 226.766626 83.636359 
L 229.486939 81.564438 
L 233.114024 79.249846 
L 236.741109 77.337824 
L 239.461422 76.164318 
L 241.274965 75.516191 
L 243.995278 74.700457 
L 247.622363 73.879677 
L 252.156219 73.217468 
L 256.690075 72.83228 
L 262.130702 72.556362 
L 269.384872 72.396828 
L 283.893211 72.371275 
L 287.520296 72.586834 
L 292.054152 73.157986 
L 296.588008 74.064125 
L 302.028635 75.711922 
L 304.748949 76.787368 
L 307.469262 78.026962 
L 312.003118 80.46817 
L 315.630203 82.640254 
L 320.164059 85.596244 
L 328.325 90.85769 
L 333.765627 94.042604 
L 337.392712 95.977123 
L 341.019797 97.747157 
L 347.367195 100.554139 
L 358.248449 105.36009 
L 361.875534 107.333373 
L 366.40939 110.3598 
L 368.222933 111.718293 
L 372.756789 115.573996 
L 377.290645 120.110102 
L 380.917729 124.100916 
L 385.451585 129.524714 
L 390.892213 136.415583 
L 404.493781 153.902369 
L 409.027637 159.361803 
L 414.468264 165.604195 
L 421.722433 173.460602 
L 427.163061 179.060497 
L 435.324001 187.421803 
L 441.6714 194.236034 
L 447.112027 200.42668 
L 453.459425 208.183364 
L 457.993281 214.05389 
L 465.247451 223.991008 
L 475.221934 237.784978 
L 479.75579 243.691936 
L 483.382875 248.098427 
L 486.103189 251.14694 
L 488.823502 253.987285 
L 492.450587 257.376461 
L 495.170901 259.610575 
L 497.891214 261.575967 
L 500.611528 263.284546 
L 503.331841 264.704273 
L 506.052155 265.886386 
L 508.772469 266.872958 
L 512.399553 267.867819 
L 516.026638 268.579313 
L 519.653723 269.101665 
L 524.187579 269.433065 
L 527.814664 269.560578 
L 527.814664 269.560578 
" clip-path="url(#pde12443272)" style="fill: none; stroke: #7570b3; stroke-width: 2; stroke-linecap: round"/>
   </g>
   <g id="line2d_14">
    <path d="M 64.454581 369.002727 
L 64.454581 236.612161 
" clip-path="url(#pde12443272)" style="fill: none; stroke: #7570b3; stroke-width: 2; stroke-linecap: round"/>
   </g>
   <g id="line2d_15">
    <path d="M 527.814664 368.673243 
L 527.814664 269.560578 
" clip-path="url(#pde12443272)" style="fill: none; stroke: #7570b3; stroke-width: 2; stroke-linecap: round"/>
   </g>
   <g id="line2d_16">
    <defs>
     <path id="m00aed9f6b2" d="M 0 3.5 
C 0.928211 3.5 1.81853 3.131218 2.474874 2.474874 
C 3.131218 1.81853 3.5 0.928211 3.5 0 
C 3.5 -0.928211 3.131218 -1.81853 2.474874 -2.474874 
C 1.81853 -3.131218 0.928211 -3.5 0 -3.5 
C -0.928211 -3.5 -1.81853 -3.131218 -2.474874 -2.474874 
C -3.131218 -1.81853 -3.5 -0.928211 -3.5 0 
C -3.5 0.928211 -3.131218 1.81853 -2.474874 2.474874 
C -1.81853 3.131218 -0.928211 3.5 0 3.5 
z
"/>
    </defs>
    <g clip-path="url(#pde12443272)">
     <use xlink:href="#m00aed9f6b2" x="280.863259" y="367.69193" style="fill: #7570b3"/>
    </g>
   </g>
   <g id="patch_3">
    <path d="M 41.286577 383.84 
L 550.982668 383.84 
" style="fill: none; stroke: #333333; stroke-width: 1.5; stroke-linejoin: miter; stroke-linecap: square"/>
   </g>
   <g id="text_7">
    <!-- $x_1^2$ -->
    <g style="fill: #262626" transform="translate(280.594622 49.58)">
     <text>
      <tspan x="0" y="-0.734375" style="font-style: oblique; font-size: 28px; font-family: 'DejaVu Sans'; fill: #262626">x</tspan>
      <tspan x="16.570312" y="6.921875" style="font-size: 19.6px; font-family: 'DejaVu Sans'; fill: #262626">1</tspan>
      <tspan x="17.820833" y="-11.453125" style="font-size: 19.6px; font-family: 'DejaVu Sans'; fill: #262626">2</tspan>
     </text>
    </g>
   </g>
  </g>
 </g>
 <defs>
  <clipPath id="pde12443272">
   <rect x="41.286577" y="57.42" width="509.696091" height="326.42"/>
  </clipPath>
 </defs>
</svg>
