<?xml version="1.0" encoding="utf-8" standalone="no"?>
<!DOCTYPE svg PUBLIC "-//W3C//DTD SVG 1.1//EN"
  "http://www.w3.org/Graphics/SVG/1.1/DTD/svg11.dtd">
<svg xmlns:xlink="http://www.w3.org/1999/xlink" width="576pt" height="432pt" viewBox="0 0 576 432" xmlns="http://www.w3.org/2000/svg" version="1.1">
 <metadata>
  <rdf:RDF xmlns:dc="http://purl.org/dc/elements/1.1/" xmlns:cc="http://creativecommons.org/ns#" xmlns:rdf="http://www.w3.org/1999/02/22-rdf-syntax-ns#">
   <cc:Work>
    <dc:type rdf:resource="http://purl.org/dc/dcmitype/StillImage"/>
    <dc:date>2025-09-22T23:00:34.744467</dc:date>
    <dc:format>image/svg+xml</dc:format>
    <dc:creator>
     <cc:Agent>
      <dc:title>Matplotlib v3.10.0, https://matplotlib.org/</dc:title>
     </cc:Agent>
    </dc:creator>
   </cc:Work>
  </rdf:RDF>
 </metadata>
 <defs>
  <style type="text/css">*{stroke-linejoin: round; stroke-linecap: butt}</style>
 </defs>
 <g id="figure_1">
  <g id="patch_1">
   <path d="M 0 432 
L 576 432 
L 576 0 
L 0 0 
L 0 432 
z
" style="fill: none; opacity: 0"/>
  </g>
  <g id="axes_1">
   <g id="patch_2">
    <path d="M 23.76 383.84 
L 552.24 383.84 
L 552.24 57.42 
L 23.76 57.42 
L 23.76 383.84 
z
" style="fill: none"/>
   </g>
   <g id="matplotlib.axis_1">
    <g id="xtick_1">
     <g id="line2d_1">
      <path d="M 119.175909 383.84 
L 119.175909 57.42 
" clip-path="url(#p6bf6bfd1cb)" style="fill: none; stroke: #ffffff; stroke-opacity: 0.4; stroke-linecap: round"/>
     </g>
     <g id="line2d_2"/>
     <g id="text_1">
      <text style="font-size: 18px; font-family: 'DejaVu Serif', 'Times New Roman', serif; text-anchor: middle; fill: #262626" x="119.175909" y="404.517187" transform="rotate(-0 119.175909 404.517187)">−0.10</text>
     </g>
    </g>
    <g id="xtick_2">
     <g id="line2d_3">
      <path d="M 215.664165 383.84 
L 215.664165 57.42 
" clip-path="url(#p6bf6bfd1cb)" style="fill: none; stroke: #ffffff; stroke-opacity: 0.4; stroke-linecap: round"/>
     </g>
     <g id="line2d_4"/>
     <g id="text_2">
      <text style="font-size: 18px; font-family: 'DejaVu Serif', 'Times New Roman', serif; text-anchor: middle; fill: #262626" x="215.664165" y="404.517187" transform="rotate(-0 215.664165 404.517187)">−0.05</text>
     </g>
    </g>
    <g id="xtick_3">
     <g id="line2d_5">
      <path d="M 312.15242 383.84 
L 312.15242 57.42 
" clip-path="url(#p6bf6bfd1cb)" style="fill: none; stroke: #ffffff; stroke-opacity: 0.4; stroke-linecap: round"/>
     </g>
     <g id="line2d_6"/>
     <g id="text_3">
      <text style="font-size: 18px; font-family: 'DejaVu Serif', 'Times New Roman', serif; text-anchor: middle; fill: #262626" x="312.15242" y="404.517187" transform="rotate(-0 312.15242 404.517187)">0.00</text>
     </g>
    </g>
    <g id="xtick_4">
     <g id="line2d_7">
      <path d="M 408.640676 383.84 
L 408.640676 57.42 
" clip-path="url(#p6bf6bfd1cb)" style="fill: none; stroke: #ffffff; stroke-opacity: 0.4; stroke-linecap: round"/>
     </g>
     <g id="line2d_8"/>
     <g id="text_4">
      <text style="font-size: 18px; font-family: 'DejaVu Serif', 'Times New Roman', serif; text-anchor: middle; fill: #262626" x="408.640676" y="404.517187" transform="rotate(-0 408.640676 404.517187)">0.05</text>
     </g>
    </g>
    <g id="xtick_5">
     <g id="line2d_9">
      <path d="M 505.128932 383.84 
L 505.128932 57.42 
" clip-path="url(#p6bf6bfd1cb)" style="fill: none; stroke: #ffffff; stroke-opacity: 0.4; stroke-linecap: round"/>
     </g>
     <g id="line2d_10"/>
     <g id="text_5">
      <text style="font-size: 18px; font-family: 'DejaVu Serif', 'Times New Roman', serif; text-anchor: middle; fill: #262626" x="505.128932" y="404.517187" transform="rotate(-0 505.128932 404.517187)">0.10</text>
     </g>
    </g>
   </g>
   <g id="matplotlib.axis_2"/>
   <g id="FillBetweenPolyCollection_1">
    <defs>
     <path id="m5028502c79" d="M 47.781818 -63.992862 
L 47.781818 -163.551786 
L 48.722007 -163.56457 
L 49.662195 -163.609801 
L 50.602384 -163.67239 
L 51.542572 -163.777699 
L 52.482761 -163.901525 
L 53.42295 -164.066441 
L 54.363138 -164.229043 
L 55.303327 -164.413667 
L 56.243515 -164.651834 
L 57.183704 -164.910218 
L 58.123893 -165.207573 
L 59.064081 -165.516417 
L 60.00427 -165.846809 
L 60.944458 -166.208262 
L 61.884647 -166.568267 
L 62.824835 -166.96641 
L 63.765024 -167.414397 
L 64.705213 -167.886632 
L 65.645401 -168.370589 
L 66.58559 -168.880558 
L 67.525778 -169.416341 
L 68.465967 -169.964193 
L 69.406155 -170.534851 
L 70.346344 -171.138556 
L 71.286533 -171.717509 
L 72.226721 -172.324393 
L 73.16691 -172.967528 
L 74.107098 -173.643769 
L 75.047287 -174.335181 
L 75.987476 -175.044089 
L 76.927664 -175.781442 
L 77.867853 -176.535638 
L 78.808041 -177.317741 
L 79.74823 -178.09546 
L 80.688418 -178.910666 
L 81.628607 -179.694805 
L 82.568796 -180.51638 
L 83.508984 -181.351484 
L 84.449173 -182.19598 
L 85.389361 -183.08579 
L 86.32955 -183.963648 
L 87.269738 -184.847269 
L 88.209927 -185.74168 
L 89.150116 -186.626308 
L 90.090304 -187.564484 
L 91.030493 -188.477185 
L 91.970681 -189.426422 
L 92.91087 -190.386237 
L 93.851059 -191.330274 
L 94.791247 -192.287415 
L 95.731436 -193.261054 
L 96.671624 -194.23161 
L 97.611813 -195.210286 
L 98.552001 -196.205436 
L 99.49219 -197.183157 
L 100.432379 -198.167718 
L 101.372567 -199.167449 
L 102.312756 -200.18749 
L 103.252944 -201.179212 
L 104.193133 -202.188263 
L 105.133321 -203.177856 
L 106.07351 -204.157789 
L 107.013699 -205.143913 
L 107.953887 -206.169582 
L 108.894076 -207.172595 
L 109.834264 -208.192846 
L 110.774453 -209.215858 
L 111.714642 -210.252326 
L 112.65483 -211.270563 
L 113.595019 -212.3222 
L 114.535207 -213.381569 
L 115.475396 -214.430332 
L 116.415584 -215.480368 
L 117.355773 -216.543056 
L 118.295962 -217.611553 
L 119.23615 -218.697872 
L 120.176339 -219.773169 
L 121.116527 -220.839812 
L 122.056716 -221.926974 
L 122.996904 -223.011885 
L 123.937093 -224.101593 
L 124.877282 -225.195293 
L 125.81747 -226.31539 
L 126.757659 -227.420822 
L 127.697847 -228.529121 
L 128.638036 -229.663941 
L 129.578225 -230.807672 
L 130.518413 -231.938826 
L 131.458602 -233.090655 
L 132.39879 -234.246846 
L 133.338979 -235.417072 
L 134.279167 -236.625454 
L 135.219356 -237.806691 
L 136.159545 -239.018157 
L 137.099733 -240.239626 
L 138.039922 -241.470712 
L 138.98011 -242.718711 
L 139.920299 -243.942684 
L 140.860487 -245.21471 
L 141.800676 -246.473506 
L 142.740865 -247.748285 
L 143.681053 -249.021423 
L 144.621242 -250.332167 
L 145.56143 -251.622039 
L 146.501619 -252.935472 
L 147.441808 -254.249486 
L 148.381996 -255.566001 
L 149.322185 -256.905181 
L 150.262373 -258.22619 
L 151.202562 -259.565099 
L 152.14275 -260.92131 
L 153.082939 -262.241657 
L 154.023128 -263.594661 
L 154.963316 -264.944356 
L 155.903505 -266.268685 
L 156.843693 -267.649115 
L 157.783882 -268.993429 
L 158.72407 -270.354795 
L 159.664259 -271.729564 
L 160.604448 -273.107513 
L 161.544636 -274.466426 
L 162.484825 -275.81867 
L 163.425013 -277.178904 
L 164.365202 -278.540207 
L 165.30539 -279.884161 
L 166.245579 -281.203739 
L 167.185768 -282.551153 
L 168.125956 -283.90418 
L 169.066145 -285.214716 
L 170.006333 -286.553546 
L 170.946522 -287.854259 
L 171.886711 -289.147675 
L 172.826899 -290.437076 
L 173.767088 -291.735462 
L 174.707276 -293.008308 
L 175.647465 -294.265896 
L 176.587653 -295.521384 
L 177.527842 -296.762472 
L 178.468031 -297.997558 
L 179.408219 -299.218762 
L 180.348408 -300.431762 
L 181.288596 -301.625364 
L 182.228785 -302.78537 
L 183.168973 -303.937865 
L 184.109162 -305.104695 
L 185.049351 -306.238069 
L 185.989539 -307.380761 
L 186.929728 -308.496601 
L 187.869916 -309.626518 
L 188.810105 -310.712786 
L 189.750294 -311.802574 
L 190.690482 -312.872759 
L 191.630671 -313.919977 
L 192.570859 -314.961884 
L 193.511048 -315.973678 
L 194.451236 -317.001277 
L 195.391425 -318.00353 
L 196.331614 -319.012143 
L 197.271802 -320.015106 
L 198.211991 -320.995112 
L 199.152179 -321.940039 
L 200.092368 -322.863478 
L 201.032556 -323.796184 
L 201.972745 -324.71564 
L 202.912934 -325.612862 
L 203.853122 -326.508649 
L 204.793311 -327.388656 
L 205.733499 -328.209954 
L 206.673688 -329.052192 
L 207.613877 -329.86315 
L 208.554065 -330.639706 
L 209.494254 -331.410283 
L 210.434442 -332.15705 
L 211.374631 -332.901263 
L 212.314819 -333.614141 
L 213.255008 -334.333974 
L 214.195197 -335.026031 
L 215.135385 -335.662289 
L 216.075574 -336.276015 
L 217.015762 -336.879707 
L 217.955951 -337.450427 
L 218.896139 -337.983989 
L 219.836328 -338.501694 
L 220.776517 -338.978633 
L 221.716705 -339.446817 
L 222.656894 -339.864695 
L 223.597082 -340.270223 
L 224.537271 -340.625797 
L 225.47746 -340.963191 
L 226.417648 -341.276225 
L 227.357837 -341.541024 
L 228.298025 -341.807101 
L 229.238214 -342.027385 
L 230.178402 -342.2175 
L 231.118591 -342.370499 
L 232.05878 -342.482376 
L 232.998968 -342.596445 
L 233.939157 -342.653134 
L 234.879345 -342.705188 
L 235.819534 -342.719859 
L 236.759722 -342.715594 
L 237.699911 -342.661255 
L 238.6401 -342.626959 
L 239.580288 -342.551106 
L 240.520477 -342.461839 
L 241.460665 -342.382712 
L 242.400854 -342.25184 
L 243.341043 -342.091936 
L 244.281231 -341.929348 
L 245.22142 -341.760345 
L 246.161608 -341.56204 
L 247.101797 -341.387102 
L 248.041985 -341.200774 
L 248.982174 -341.002523 
L 249.922363 -340.793591 
L 250.862551 -340.617174 
L 251.80274 -340.417404 
L 252.742928 -340.243823 
L 253.683117 -340.059239 
L 254.623305 -339.897688 
L 255.563494 -339.752655 
L 256.503683 -339.608472 
L 257.443871 -339.494187 
L 258.38406 -339.412764 
L 259.324248 -339.329597 
L 260.264437 -339.270543 
L 261.204626 -339.223112 
L 262.144814 -339.224291 
L 263.085003 -339.259095 
L 264.025191 -339.329794 
L 264.96538 -339.429938 
L 265.905568 -339.559673 
L 266.845757 -339.718369 
L 267.785946 -339.903747 
L 268.726134 -340.136501 
L 269.666323 -340.420381 
L 270.606511 -340.706932 
L 271.5467 -341.031676 
L 272.486888 -341.377825 
L 273.427077 -341.777913 
L 274.367266 -342.221083 
L 275.307454 -342.683912 
L 276.247643 -343.133833 
L 277.187831 -343.678117 
L 278.12802 -344.21069 
L 279.068209 -344.769714 
L 280.008397 -345.333297 
L 280.948586 -345.931726 
L 281.888774 -346.553807 
L 282.828963 -347.179045 
L 283.769151 -347.858551 
L 284.70934 -348.509647 
L 285.649529 -349.213268 
L 286.589717 -349.880764 
L 287.529906 -350.572222 
L 288.470094 -351.241588 
L 289.410283 -351.928514 
L 290.350471 -352.572388 
L 291.29066 -353.233335 
L 292.230849 -353.883123 
L 293.171037 -354.534655 
L 294.111226 -355.124244 
L 295.051414 -355.724478 
L 295.991603 -356.275599 
L 296.931791 -356.789658 
L 297.87198 -357.284095 
L 298.812169 -357.720566 
L 299.752357 -358.143702 
L 300.692546 -358.499149 
L 301.632734 -358.830358 
L 302.572923 -359.086057 
L 303.513112 -359.324521 
L 304.4533 -359.514292 
L 305.393489 -359.636184 
L 306.333677 -359.707699 
L 307.273866 -359.742727 
L 308.214054 -359.717965 
L 309.154243 -359.639248 
L 310.094432 -359.493707 
L 311.03462 -359.354108 
L 311.974809 -359.127569 
L 312.914997 -358.85586 
L 313.855186 -358.526463 
L 314.795374 -358.144772 
L 315.735563 -357.68923 
L 316.675752 -357.22124 
L 317.61594 -356.686994 
L 318.556129 -356.126789 
L 319.496317 -355.53633 
L 320.436506 -354.893731 
L 321.376695 -354.195023 
L 322.316883 -353.480971 
L 323.257072 -352.713908 
L 324.19726 -351.950194 
L 325.137449 -351.143259 
L 326.077637 -350.315454 
L 327.017826 -349.450134 
L 327.958015 -348.555105 
L 328.898203 -347.643758 
L 329.838392 -346.6937 
L 330.77858 -345.765297 
L 331.718769 -344.810626 
L 332.658957 -343.867543 
L 333.599146 -342.936945 
L 334.539335 -342.008727 
L 335.479523 -341.036647 
L 336.419712 -340.036552 
L 337.3599 -339.04835 
L 338.300089 -338.051187 
L 339.240278 -337.064518 
L 340.180466 -336.067681 
L 341.120655 -335.098734 
L 342.060843 -334.128736 
L 343.001032 -333.161301 
L 343.94122 -332.205246 
L 344.881409 -331.255884 
L 345.821598 -330.317543 
L 346.761786 -329.380938 
L 347.701975 -328.474355 
L 348.642163 -327.555219 
L 349.582352 -326.65984 
L 350.52254 -325.778355 
L 351.462729 -324.927834 
L 352.402918 -324.055561 
L 353.343106 -323.162543 
L 354.283295 -322.307667 
L 355.223483 -321.448711 
L 356.163672 -320.598878 
L 357.103861 -319.776725 
L 358.044049 -318.930927 
L 358.984238 -318.111081 
L 359.924426 -317.288333 
L 360.864615 -316.502306 
L 361.804803 -315.710858 
L 362.744992 -314.920526 
L 363.685181 -314.142088 
L 364.625369 -313.374353 
L 365.565558 -312.600759 
L 366.505746 -311.853349 
L 367.445935 -311.0997 
L 368.386123 -310.325585 
L 369.326312 -309.582127 
L 370.266501 -308.818392 
L 371.206689 -308.06237 
L 372.146878 -307.302467 
L 373.087066 -306.559847 
L 374.027255 -305.830279 
L 374.967444 -305.077302 
L 375.907632 -304.333188 
L 376.847821 -303.595471 
L 377.788009 -302.879181 
L 378.728198 -302.131576 
L 379.668386 -301.416382 
L 380.608575 -300.68509 
L 381.548764 -299.930571 
L 382.488952 -299.191301 
L 383.429141 -298.443562 
L 384.369329 -297.73613 
L 385.309518 -297.019824 
L 386.249706 -296.280574 
L 387.189895 -295.567852 
L 388.130084 -294.850406 
L 389.070272 -294.121539 
L 390.010461 -293.385082 
L 390.950649 -292.632756 
L 391.890838 -291.906764 
L 392.831027 -291.147782 
L 393.771215 -290.397188 
L 394.711404 -289.62498 
L 395.651592 -288.870954 
L 396.591781 -288.101799 
L 397.531969 -287.326512 
L 398.472158 -286.55896 
L 399.412347 -285.771204 
L 400.352535 -284.986663 
L 401.292724 -284.22021 
L 402.232912 -283.429623 
L 403.173101 -282.646772 
L 404.113289 -281.862083 
L 405.053478 -281.068471 
L 405.993667 -280.248133 
L 406.933855 -279.455897 
L 407.874044 -278.645087 
L 408.814232 -277.815692 
L 409.754421 -277.000334 
L 410.69461 -276.161838 
L 411.634798 -275.318757 
L 412.574987 -274.479456 
L 413.515175 -273.642336 
L 414.455364 -272.802029 
L 415.395552 -271.93717 
L 416.335741 -271.055565 
L 417.27593 -270.177455 
L 418.216118 -269.313048 
L 419.156307 -268.408993 
L 420.096495 -267.53564 
L 421.036684 -266.648922 
L 421.976872 -265.771912 
L 422.917061 -264.86843 
L 423.85725 -263.962944 
L 424.797438 -263.044713 
L 425.737627 -262.08354 
L 426.677815 -261.127645 
L 427.618004 -260.133103 
L 428.558192 -259.161887 
L 429.498381 -258.183753 
L 430.43857 -257.187844 
L 431.378758 -256.187906 
L 432.318947 -255.168831 
L 433.259135 -254.127015 
L 434.199324 -253.094049 
L 435.139513 -252.033709 
L 436.079701 -250.970521 
L 437.01989 -249.878449 
L 437.960078 -248.799813 
L 438.900267 -247.698187 
L 439.840455 -246.58299 
L 440.780644 -245.458308 
L 441.720833 -244.309957 
L 442.661021 -243.173918 
L 443.60121 -241.990342 
L 444.541398 -240.824598 
L 445.481587 -239.629444 
L 446.421775 -238.430845 
L 447.361964 -237.221578 
L 448.302153 -236.009413 
L 449.242341 -234.797351 
L 450.18253 -233.571227 
L 451.122718 -232.329429 
L 452.062907 -231.08417 
L 453.003096 -229.801303 
L 453.943284 -228.53275 
L 454.883473 -227.277162 
L 455.823661 -226.023759 
L 456.76385 -224.759402 
L 457.704038 -223.49259 
L 458.644227 -222.211464 
L 459.584416 -220.941256 
L 460.524604 -219.671107 
L 461.464793 -218.377518 
L 462.404981 -217.097067 
L 463.34517 -215.838525 
L 464.285358 -214.565939 
L 465.225547 -213.312675 
L 466.165736 -212.032575 
L 467.105924 -210.790579 
L 468.046113 -209.519256 
L 468.986301 -208.277858 
L 469.92649 -207.036065 
L 470.866679 -205.801591 
L 471.806867 -204.574914 
L 472.747056 -203.339102 
L 473.687244 -202.113705 
L 474.627433 -200.887905 
L 475.567621 -199.662345 
L 476.50781 -198.428326 
L 477.447999 -197.245183 
L 478.388187 -196.079586 
L 479.328376 -194.89638 
L 480.268564 -193.72294 
L 481.208753 -192.560025 
L 482.148941 -191.411835 
L 483.08913 -190.274016 
L 484.029319 -189.136421 
L 484.969507 -188.004697 
L 485.909696 -186.883516 
L 486.849884 -185.787279 
L 487.790073 -184.684205 
L 488.730262 -183.592551 
L 489.67045 -182.501125 
L 490.610639 -181.436251 
L 491.550827 -180.399817 
L 492.491016 -179.373724 
L 493.431204 -178.331551 
L 494.371393 -177.347004 
L 495.311582 -176.388702 
L 496.25177 -175.437389 
L 497.191959 -174.487234 
L 498.132147 -173.56946 
L 499.072336 -172.662306 
L 500.012524 -171.772423 
L 500.952713 -170.891354 
L 501.892902 -170.04239 
L 502.83309 -169.198217 
L 503.773279 -168.38633 
L 504.713467 -167.610245 
L 505.653656 -166.833522 
L 506.593845 -166.114523 
L 507.534033 -165.413488 
L 508.474222 -164.73835 
L 509.41441 -164.098415 
L 510.354599 -163.4819 
L 511.294787 -162.878335 
L 512.234976 -162.328683 
L 513.175165 -161.796477 
L 514.115353 -161.288074 
L 515.055542 -160.815451 
L 515.99573 -160.37369 
L 516.935919 -159.950694 
L 517.876107 -159.563625 
L 518.816296 -159.204448 
L 519.756485 -158.863634 
L 520.696673 -158.582749 
L 521.636862 -158.310906 
L 522.57705 -158.063985 
L 523.517239 -157.884857 
L 524.457428 -157.73856 
L 525.397616 -157.593037 
L 526.337805 -157.479106 
L 527.277993 -157.412011 
L 528.218182 -157.376782 
L 528.218182 -63.992862 
L 528.218182 -63.992862 
L 527.277993 -63.992862 
L 526.337805 -63.992862 
L 525.397616 -63.992862 
L 524.457428 -63.992862 
L 523.517239 -63.992862 
L 522.57705 -63.992862 
L 521.636862 -63.992862 
L 520.696673 -63.992862 
L 519.756485 -63.992862 
L 518.816296 -63.992862 
L 517.876107 -63.992862 
L 516.935919 -63.992862 
L 515.99573 -63.992862 
L 515.055542 -63.992862 
L 514.115353 -63.992862 
L 513.175165 -63.992862 
L 512.234976 -63.992862 
L 511.294787 -63.992862 
L 510.354599 -63.992862 
L 509.41441 -63.992862 
L 508.474222 -63.992862 
L 507.534033 -63.992862 
L 506.593845 -63.992862 
L 505.653656 -63.992862 
L 504.713467 -63.992862 
L 503.773279 -63.992862 
L 502.83309 -63.992862 
L 501.892902 -63.992862 
L 500.952713 -63.992862 
L 500.012524 -63.992862 
L 499.072336 -63.992862 
L 498.132147 -63.992862 
L 497.191959 -63.992862 
L 496.25177 -63.992862 
L 495.311582 -63.992862 
L 494.371393 -63.992862 
L 493.431204 -63.992862 
L 492.491016 -63.992862 
L 491.550827 -63.992862 
L 490.610639 -63.992862 
L 489.67045 -63.992862 
L 488.730262 -63.992862 
L 487.790073 -63.992862 
L 486.849884 -63.992862 
L 485.909696 -63.992862 
L 484.969507 -63.992862 
L 484.029319 -63.992862 
L 483.08913 -63.992862 
L 482.148941 -63.992862 
L 481.208753 -63.992862 
L 480.268564 -63.992862 
L 479.328376 -63.992862 
L 478.388187 -63.992862 
L 477.447999 -63.992862 
L 476.50781 -63.992862 
L 475.567621 -63.992862 
L 474.627433 -63.992862 
L 473.687244 -63.992862 
L 472.747056 -63.992862 
L 471.806867 -63.992862 
L 470.866679 -63.992862 
L 469.92649 -63.992862 
L 468.986301 -63.992862 
L 468.046113 -63.992862 
L 467.105924 -63.992862 
L 466.165736 -63.992862 
L 465.225547 -63.992862 
L 464.285358 -63.992862 
L 463.34517 -63.992862 
L 462.404981 -63.992862 
L 461.464793 -63.992862 
L 460.524604 -63.992862 
L 459.584416 -63.992862 
L 458.644227 -63.992862 
L 457.704038 -63.992862 
L 456.76385 -63.992862 
L 455.823661 -63.992862 
L 454.883473 -63.992862 
L 453.943284 -63.992862 
L 453.003096 -63.992862 
L 452.062907 -63.992862 
L 451.122718 -63.992862 
L 450.18253 -63.992862 
L 449.242341 -63.992862 
L 448.302153 -63.992862 
L 447.361964 -63.992862 
L 446.421775 -63.992862 
L 445.481587 -63.992862 
L 444.541398 -63.992862 
L 443.60121 -63.992862 
L 442.661021 -63.992862 
L 441.720833 -63.992862 
L 440.780644 -63.992862 
L 439.840455 -63.992862 
L 438.900267 -63.992862 
L 437.960078 -63.992862 
L 437.01989 -63.992862 
L 436.079701 -63.992862 
L 435.139513 -63.992862 
L 434.199324 -63.992862 
L 433.259135 -63.992862 
L 432.318947 -63.992862 
L 431.378758 -63.992862 
L 430.43857 -63.992862 
L 429.498381 -63.992862 
L 428.558192 -63.992862 
L 427.618004 -63.992862 
L 426.677815 -63.992862 
L 425.737627 -63.992862 
L 424.797438 -63.992862 
L 423.85725 -63.992862 
L 422.917061 -63.992862 
L 421.976872 -63.992862 
L 421.036684 -63.992862 
L 420.096495 -63.992862 
L 419.156307 -63.992862 
L 418.216118 -63.992862 
L 417.27593 -63.992862 
L 416.335741 -63.992862 
L 415.395552 -63.992862 
L 414.455364 -63.992862 
L 413.515175 -63.992862 
L 412.574987 -63.992862 
L 411.634798 -63.992862 
L 410.69461 -63.992862 
L 409.754421 -63.992862 
L 408.814232 -63.992862 
L 407.874044 -63.992862 
L 406.933855 -63.992862 
L 405.993667 -63.992862 
L 405.053478 -63.992862 
L 404.113289 -63.992862 
L 403.173101 -63.992862 
L 402.232912 -63.992862 
L 401.292724 -63.992862 
L 400.352535 -63.992862 
L 399.412347 -63.992862 
L 398.472158 -63.992862 
L 397.531969 -63.992862 
L 396.591781 -63.992862 
L 395.651592 -63.992862 
L 394.711404 -63.992862 
L 393.771215 -63.992862 
L 392.831027 -63.992862 
L 391.890838 -63.992862 
L 390.950649 -63.992862 
L 390.010461 -63.992862 
L 389.070272 -63.992862 
L 388.130084 -63.992862 
L 387.189895 -63.992862 
L 386.249706 -63.992862 
L 385.309518 -63.992862 
L 384.369329 -63.992862 
L 383.429141 -63.992862 
L 382.488952 -63.992862 
L 381.548764 -63.992862 
L 380.608575 -63.992862 
L 379.668386 -63.992862 
L 378.728198 -63.992862 
L 377.788009 -63.992862 
L 376.847821 -63.992862 
L 375.907632 -63.992862 
L 374.967444 -63.992862 
L 374.027255 -63.992862 
L 373.087066 -63.992862 
L 372.146878 -63.992862 
L 371.206689 -63.992862 
L 370.266501 -63.992862 
L 369.326312 -63.992862 
L 368.386123 -63.992862 
L 367.445935 -63.992862 
L 366.505746 -63.992862 
L 365.565558 -63.992862 
L 364.625369 -63.992862 
L 363.685181 -63.992862 
L 362.744992 -63.992862 
L 361.804803 -63.992862 
L 360.864615 -63.992862 
L 359.924426 -63.992862 
L 358.984238 -63.992862 
L 358.044049 -63.992862 
L 357.103861 -63.992862 
L 356.163672 -63.992862 
L 355.223483 -63.992862 
L 354.283295 -63.992862 
L 353.343106 -63.992862 
L 352.402918 -63.992862 
L 351.462729 -63.992862 
L 350.52254 -63.992862 
L 349.582352 -63.992862 
L 348.642163 -63.992862 
L 347.701975 -63.992862 
L 346.761786 -63.992862 
L 345.821598 -63.992862 
L 344.881409 -63.992862 
L 343.94122 -63.992862 
L 343.001032 -63.992862 
L 342.060843 -63.992862 
L 341.120655 -63.992862 
L 340.180466 -63.992862 
L 339.240278 -63.992862 
L 338.300089 -63.992862 
L 337.3599 -63.992862 
L 336.419712 -63.992862 
L 335.479523 -63.992862 
L 334.539335 -63.992862 
L 333.599146 -63.992862 
L 332.658957 -63.992862 
L 331.718769 -63.992862 
L 330.77858 -63.992862 
L 329.838392 -63.992862 
L 328.898203 -63.992862 
L 327.958015 -63.992862 
L 327.017826 -63.992862 
L 326.077637 -63.992862 
L 325.137449 -63.992862 
L 324.19726 -63.992862 
L 323.257072 -63.992862 
L 322.316883 -63.992862 
L 321.376695 -63.992862 
L 320.436506 -63.992862 
L 319.496317 -63.992862 
L 318.556129 -63.992862 
L 317.61594 -63.992862 
L 316.675752 -63.992862 
L 315.735563 -63.992862 
L 314.795374 -63.992862 
L 313.855186 -63.992862 
L 312.914997 -63.992862 
L 311.974809 -63.992862 
L 311.03462 -63.992862 
L 310.094432 -63.992862 
L 309.154243 -63.992862 
L 308.214054 -63.992862 
L 307.273866 -63.992862 
L 306.333677 -63.992862 
L 305.393489 -63.992862 
L 304.4533 -63.992862 
L 303.513112 -63.992862 
L 302.572923 -63.992862 
L 301.632734 -63.992862 
L 300.692546 -63.992862 
L 299.752357 -63.992862 
L 298.812169 -63.992862 
L 297.87198 -63.992862 
L 296.931791 -63.992862 
L 295.991603 -63.992862 
L 295.051414 -63.992862 
L 294.111226 -63.992862 
L 293.171037 -63.992862 
L 292.230849 -63.992862 
L 291.29066 -63.992862 
L 290.350471 -63.992862 
L 289.410283 -63.992862 
L 288.470094 -63.992862 
L 287.529906 -63.992862 
L 286.589717 -63.992862 
L 285.649529 -63.992862 
L 284.70934 -63.992862 
L 283.769151 -63.992862 
L 282.828963 -63.992862 
L 281.888774 -63.992862 
L 280.948586 -63.992862 
L 280.008397 -63.992862 
L 279.068209 -63.992862 
L 278.12802 -63.992862 
L 277.187831 -63.992862 
L 276.247643 -63.992862 
L 275.307454 -63.992862 
L 274.367266 -63.992862 
L 273.427077 -63.992862 
L 272.486888 -63.992862 
L 271.5467 -63.992862 
L 270.606511 -63.992862 
L 269.666323 -63.992862 
L 268.726134 -63.992862 
L 267.785946 -63.992862 
L 266.845757 -63.992862 
L 265.905568 -63.992862 
L 264.96538 -63.992862 
L 264.025191 -63.992862 
L 263.085003 -63.992862 
L 262.144814 -63.992862 
L 261.204626 -63.992862 
L 260.264437 -63.992862 
L 259.324248 -63.992862 
L 258.38406 -63.992862 
L 257.443871 -63.992862 
L 256.503683 -63.992862 
L 255.563494 -63.992862 
L 254.623305 -63.992862 
L 253.683117 -63.992862 
L 252.742928 -63.992862 
L 251.80274 -63.992862 
L 250.862551 -63.992862 
L 249.922363 -63.992862 
L 248.982174 -63.992862 
L 248.041985 -63.992862 
L 247.101797 -63.992862 
L 246.161608 -63.992862 
L 245.22142 -63.992862 
L 244.281231 -63.992862 
L 243.341043 -63.992862 
L 242.400854 -63.992862 
L 241.460665 -63.992862 
L 240.520477 -63.992862 
L 239.580288 -63.992862 
L 238.6401 -63.992862 
L 237.699911 -63.992862 
L 236.759722 -63.992862 
L 235.819534 -63.992862 
L 234.879345 -63.992862 
L 233.939157 -63.992862 
L 232.998968 -63.992862 
L 232.05878 -63.992862 
L 231.118591 -63.992862 
L 230.178402 -63.992862 
L 229.238214 -63.992862 
L 228.298025 -63.992862 
L 227.357837 -63.992862 
L 226.417648 -63.992862 
L 225.47746 -63.992862 
L 224.537271 -63.992862 
L 223.597082 -63.992862 
L 222.656894 -63.992862 
L 221.716705 -63.992862 
L 220.776517 -63.992862 
L 219.836328 -63.992862 
L 218.896139 -63.992862 
L 217.955951 -63.992862 
L 217.015762 -63.992862 
L 216.075574 -63.992862 
L 215.135385 -63.992862 
L 214.195197 -63.992862 
L 213.255008 -63.992862 
L 212.314819 -63.992862 
L 211.374631 -63.992862 
L 210.434442 -63.992862 
L 209.494254 -63.992862 
L 208.554065 -63.992862 
L 207.613877 -63.992862 
L 206.673688 -63.992862 
L 205.733499 -63.992862 
L 204.793311 -63.992862 
L 203.853122 -63.992862 
L 202.912934 -63.992862 
L 201.972745 -63.992862 
L 201.032556 -63.992862 
L 200.092368 -63.992862 
L 199.152179 -63.992862 
L 198.211991 -63.992862 
L 197.271802 -63.992862 
L 196.331614 -63.992862 
L 195.391425 -63.992862 
L 194.451236 -63.992862 
L 193.511048 -63.992862 
L 192.570859 -63.992862 
L 191.630671 -63.992862 
L 190.690482 -63.992862 
L 189.750294 -63.992862 
L 188.810105 -63.992862 
L 187.869916 -63.992862 
L 186.929728 -63.992862 
L 185.989539 -63.992862 
L 185.049351 -63.992862 
L 184.109162 -63.992862 
L 183.168973 -63.992862 
L 182.228785 -63.992862 
L 181.288596 -63.992862 
L 180.348408 -63.992862 
L 179.408219 -63.992862 
L 178.468031 -63.992862 
L 177.527842 -63.992862 
L 176.587653 -63.992862 
L 175.647465 -63.992862 
L 174.707276 -63.992862 
L 173.767088 -63.992862 
L 172.826899 -63.992862 
L 171.886711 -63.992862 
L 170.946522 -63.992862 
L 170.006333 -63.992862 
L 169.066145 -63.992862 
L 168.125956 -63.992862 
L 167.185768 -63.992862 
L 166.245579 -63.992862 
L 165.30539 -63.992862 
L 164.365202 -63.992862 
L 163.425013 -63.992862 
L 162.484825 -63.992862 
L 161.544636 -63.992862 
L 160.604448 -63.992862 
L 159.664259 -63.992862 
L 158.72407 -63.992862 
L 157.783882 -63.992862 
L 156.843693 -63.992862 
L 155.903505 -63.992862 
L 154.963316 -63.992862 
L 154.023128 -63.992862 
L 153.082939 -63.992862 
L 152.14275 -63.992862 
L 151.202562 -63.992862 
L 150.262373 -63.992862 
L 149.322185 -63.992862 
L 148.381996 -63.992862 
L 147.441808 -63.992862 
L 146.501619 -63.992862 
L 145.56143 -63.992862 
L 144.621242 -63.992862 
L 143.681053 -63.992862 
L 142.740865 -63.992862 
L 141.800676 -63.992862 
L 140.860487 -63.992862 
L 139.920299 -63.992862 
L 138.98011 -63.992862 
L 138.039922 -63.992862 
L 137.099733 -63.992862 
L 136.159545 -63.992862 
L 135.219356 -63.992862 
L 134.279167 -63.992862 
L 133.338979 -63.992862 
L 132.39879 -63.992862 
L 131.458602 -63.992862 
L 130.518413 -63.992862 
L 129.578225 -63.992862 
L 128.638036 -63.992862 
L 127.697847 -63.992862 
L 126.757659 -63.992862 
L 125.81747 -63.992862 
L 124.877282 -63.992862 
L 123.937093 -63.992862 
L 122.996904 -63.992862 
L 122.056716 -63.992862 
L 121.116527 -63.992862 
L 120.176339 -63.992862 
L 119.23615 -63.992862 
L 118.295962 -63.992862 
L 117.355773 -63.992862 
L 116.415584 -63.992862 
L 115.475396 -63.992862 
L 114.535207 -63.992862 
L 113.595019 -63.992862 
L 112.65483 -63.992862 
L 111.714642 -63.992862 
L 110.774453 -63.992862 
L 109.834264 -63.992862 
L 108.894076 -63.992862 
L 107.953887 -63.992862 
L 107.013699 -63.992862 
L 106.07351 -63.992862 
L 105.133321 -63.992862 
L 104.193133 -63.992862 
L 103.252944 -63.992862 
L 102.312756 -63.992862 
L 101.372567 -63.992862 
L 100.432379 -63.992862 
L 99.49219 -63.992862 
L 98.552001 -63.992862 
L 97.611813 -63.992862 
L 96.671624 -63.992862 
L 95.731436 -63.992862 
L 94.791247 -63.992862 
L 93.851059 -63.992862 
L 92.91087 -63.992862 
L 91.970681 -63.992862 
L 91.030493 -63.992862 
L 90.090304 -63.992862 
L 89.150116 -63.992862 
L 88.209927 -63.992862 
L 87.269738 -63.992862 
L 86.32955 -63.992862 
L 85.389361 -63.992862 
L 84.449173 -63.992862 
L 83.508984 -63.992862 
L 82.568796 -63.992862 
L 81.628607 -63.992862 
L 80.688418 -63.992862 
L 79.74823 -63.992862 
L 78.808041 -63.992862 
L 77.867853 -63.992862 
L 76.927664 -63.992862 
L 75.987476 -63.992862 
L 75.047287 -63.992862 
L 74.107098 -63.992862 
L 73.16691 -63.992862 
L 72.226721 -63.992862 
L 71.286533 -63.992862 
L 70.346344 -63.992862 
L 69.406155 -63.992862 
L 68.465967 -63.992862 
L 67.525778 -63.992862 
L 66.58559 -63.992862 
L 65.645401 -63.992862 
L 64.705213 -63.992862 
L 63.765024 -63.992862 
L 62.824835 -63.992862 
L 61.884647 -63.992862 
L 60.944458 -63.992862 
L 60.00427 -63.992862 
L 59.064081 -63.992862 
L 58.123893 -63.992862 
L 57.183704 -63.992862 
L 56.243515 -63.992862 
L 55.303327 -63.992862 
L 54.363138 -63.992862 
L 53.42295 -63.992862 
L 52.482761 -63.992862 
L 51.542572 -63.992862 
L 50.602384 -63.992862 
L 49.662195 -63.992862 
L 48.722007 -63.992862 
L 47.781818 -63.992862 
z
" style="stroke: #6cb7ff; stroke-opacity: 0.6; stroke-width: 0.3"/>
    </defs>
    <g clip-path="url(#p6bf6bfd1cb)">
     <use xlink:href="#m5028502c79" x="0" y="432" style="fill: #6cb7ff; fill-opacity: 0.6; stroke: #6cb7ff; stroke-opacity: 0.6; stroke-width: 0.3"/>
    </g>
   </g>
   <g id="line2d_11">
    <path d="M 47.781818 268.448214 
L 50.602384 268.32761 
L 53.42295 267.933559 
L 56.243515 267.348166 
L 59.064081 266.483583 
L 61.884647 265.431733 
L 63.765024 264.585603 
L 67.525778 262.583659 
L 71.286533 260.282491 
L 74.107098 258.356231 
L 77.867853 255.464362 
L 83.508984 250.648516 
L 87.269738 247.152731 
L 91.970681 242.573578 
L 101.372567 232.832551 
L 119.23615 213.302128 
L 127.697847 203.470879 
L 134.279167 195.374546 
L 138.039922 190.529288 
L 145.56143 180.377961 
L 154.963316 167.055644 
L 159.664259 160.270436 
L 166.245579 150.796261 
L 171.886711 142.852325 
L 178.468031 134.002442 
L 183.168973 128.062135 
L 187.869916 122.373482 
L 192.570859 117.038116 
L 199.152179 110.059961 
L 204.793311 104.611344 
L 209.494254 100.589717 
L 214.195197 96.973969 
L 217.955951 94.549573 
L 220.776517 93.021367 
L 223.597082 91.729777 
L 226.417648 90.723775 
L 229.238214 89.972615 
L 231.118591 89.629501 
L 233.939157 89.346866 
L 236.759722 89.284406 
L 241.460665 89.617288 
L 245.22142 90.239655 
L 253.683117 91.940761 
L 257.443871 92.505813 
L 261.204626 92.776888 
L 264.025191 92.670206 
L 266.845757 92.281631 
L 268.726134 91.863499 
L 272.486888 90.622175 
L 275.307454 89.316088 
L 277.187831 88.321883 
L 280.948586 86.068274 
L 284.70934 83.490353 
L 289.410283 80.071486 
L 295.051414 76.275522 
L 297.87198 74.715905 
L 300.692546 73.500851 
L 302.572923 72.913943 
L 304.4533 72.485708 
L 306.333677 72.292301 
L 308.214054 72.282035 
L 310.094432 72.506293 
L 311.974809 72.872431 
L 313.855186 73.473537 
L 315.735563 74.31077 
L 317.61594 75.313006 
L 320.436506 77.106269 
L 323.257072 79.286092 
L 326.077637 81.684546 
L 328.898203 84.356242 
L 339.240278 94.935482 
L 343.94122 99.794754 
L 349.582352 105.34016 
L 356.163672 111.401122 
L 363.685181 117.857912 
L 374.027255 126.169721 
L 382.488952 132.808699 
L 387.189895 136.432148 
L 392.831027 140.852218 
L 399.412347 146.228796 
L 409.754421 154.999666 
L 418.216118 162.686952 
L 427.618004 171.866897 
L 432.318947 176.831169 
L 437.960078 183.200187 
L 442.661021 188.826082 
L 450.18253 198.428773 
L 458.644227 209.788536 
L 472.747056 228.660898 
L 479.328376 237.10362 
L 484.969507 243.995303 
L 490.610639 250.563749 
L 495.311582 255.611298 
L 500.012524 260.227577 
L 503.773279 263.61367 
L 507.534033 266.586512 
L 510.354599 268.5181 
L 513.175165 270.203523 
L 515.99573 271.62631 
L 518.816296 272.795552 
L 520.696673 273.417251 
L 522.57705 273.936015 
L 525.397616 274.406963 
L 527.277993 274.587989 
L 528.218182 274.623218 
L 528.218182 274.623218 
" clip-path="url(#p6bf6bfd1cb)" style="fill: none; stroke: #7570b3; stroke-width: 2; stroke-linecap: round"/>
   </g>
   <g id="line2d_12">
    <path d="M 47.781818 369.002727 
L 47.781818 268.448214 
" clip-path="url(#p6bf6bfd1cb)" style="fill: none; stroke: #7570b3; stroke-width: 2; stroke-linecap: round"/>
   </g>
   <g id="line2d_13">
    <path d="M 528.218182 368.940977 
L 528.218182 274.623218 
" clip-path="url(#p6bf6bfd1cb)" style="fill: none; stroke: #7570b3; stroke-width: 2; stroke-linecap: round"/>
   </g>
   <g id="line2d_14">
    <defs>
     <path id="m4ed2039e73" d="M 0 3.5 
C 0.928211 3.5 1.81853 3.131218 2.474874 2.474874 
C 3.131218 1.81853 3.5 0.928211 3.5 0 
C 3.5 -0.928211 3.131218 -1.81853 2.474874 -2.474874 
C 1.81853 -3.131218 0.928211 -3.5 0 -3.5 
C -0.928211 -3.5 -1.81853 -3.131218 -2.474874 -2.474874 
C -3.131218 -1.81853 -3.5 -0.928211 -3.5 0 
C -3.5 0.928211 -3.131218 1.81853 -2.474874 2.474874 
C -1.81853 3.131218 -0.928211 3.5 0 3.5 
z
"/>
    </defs>
    <g clip-path="url(#p6bf6bfd1cb)">
     <use xlink:href="#m4ed2039e73" x="286.085862" y="368.007138" style="fill: #7570b3"/>
    </g>
   </g>
   <g id="patch_3">
    <path d="M 23.76 383.84 
L 552.24 383.84 
" style="fill: none; stroke: #333333; stroke-width: 1.5; stroke-linejoin: miter; stroke-linecap: square"/>
   </g>
   <g id="text_6">
    <!-- $x_1^2x_2^2$ -->
    <g style="fill: #262626" transform="translate(256.92 49.58)">
     <text>
      <tspan x="0" y="-0.734375" style="font-style: oblique; font-size: 28px; font-family: 'DejaVu Sans'; fill: #262626">x</tspan>
      <tspan x="31.056576" y="-0.734375" style="font-style: oblique; font-size: 28px; font-family: 'DejaVu Sans'; fill: #262626">x</tspan>
      <tspan x="16.570312" y="6.921875" style="font-size: 19.6px; font-family: 'DejaVu Sans'; fill: #262626">1</tspan>
      <tspan x="17.820833" y="-11.453125" style="font-size: 19.6px; font-family: 'DejaVu Sans'; fill: #262626">2</tspan>
      <tspan x="47.626888" y="6.921875" style="font-size: 19.6px; font-family: 'DejaVu Sans'; fill: #262626">2</tspan>
      <tspan x="48.877409" y="-11.453125" style="font-size: 19.6px; font-family: 'DejaVu Sans'; fill: #262626">2</tspan>
     </text>
    </g>
   </g>
  </g>
 </g>
 <defs>
  <clipPath id="p6bf6bfd1cb">
   <rect x="23.76" y="57.42" width="528.48" height="326.42"/>
  </clipPath>
 </defs>
</svg>
