<?xml version="1.0" encoding="utf-8" standalone="no"?>
<!DOCTYPE svg PUBLIC "-//W3C//DTD SVG 1.1//EN"
  "http://www.w3.org/Graphics/SVG/1.1/DTD/svg11.dtd">
<svg xmlns:xlink="http://www.w3.org/1999/xlink" width="576pt" height="432pt" viewBox="0 0 576 432" xmlns="http://www.w3.org/2000/svg" version="1.1">
 <metadata>
  <rdf:RDF xmlns:dc="http://purl.org/dc/elements/1.1/" xmlns:cc="http://creativecommons.org/ns#" xmlns:rdf="http://www.w3.org/1999/02/22-rdf-syntax-ns#">
   <cc:Work>
    <dc:type rdf:resource="http://purl.org/dc/dcmitype/StillImage"/>
    <dc:date>2025-09-22T23:00:34.537059</dc:date>
    <dc:format>image/svg+xml</dc:format>
    <dc:creator>
     <cc:Agent>
      <dc:title>Matplotlib v3.10.0, https://matplotlib.org/</dc:title>
     </cc:Agent>
    </dc:creator>
   </cc:Work>
  </rdf:RDF>
 </metadata>
 <defs>
  <style type="text/css">*{stroke-linejoin: round; stroke-linecap: butt}</style>
 </defs>
 <g id="figure_1">
  <g id="patch_1">
   <path d="M 0 432 
L 576 432 
L 576 0 
L 0 0 
L 0 432 
z
" style="fill: none; opacity: 0"/>
  </g>
  <g id="axes_1">
   <g id="patch_2">
    <path d="M 23.76 383.84 
L 552.24 383.84 
L 552.24 57.42 
L 23.76 57.42 
L 23.76 383.84 
z
" style="fill: none"/>
   </g>
   <g id="matplotlib.axis_1">
    <g id="xtick_1">
     <g id="line2d_1">
      <path d="M 80.298951 383.84 
L 80.298951 57.42 
" clip-path="url(#p426b5f6215)" style="fill: none; stroke: #ffffff; stroke-opacity: 0.4; stroke-linecap: round"/>
     </g>
     <g id="line2d_2"/>
     <g id="text_1">
      <text style="font-size: 18px; font-family: 'DejaVu Serif', 'Times New Roman', serif; text-anchor: middle; fill: #262626" x="80.298951" y="404.517187" transform="rotate(-0 80.298951 404.517187)">−0.28</text>
     </g>
    </g>
    <g id="xtick_2">
     <g id="line2d_3">
      <path d="M 167.27519 383.84 
L 167.27519 57.42 
" clip-path="url(#p426b5f6215)" style="fill: none; stroke: #ffffff; stroke-opacity: 0.4; stroke-linecap: round"/>
     </g>
     <g id="line2d_4"/>
     <g id="text_2">
      <text style="font-size: 18px; font-family: 'DejaVu Serif', 'Times New Roman', serif; text-anchor: middle; fill: #262626" x="167.27519" y="404.517187" transform="rotate(-0 167.27519 404.517187)">−0.26</text>
     </g>
    </g>
    <g id="xtick_3">
     <g id="line2d_5">
      <path d="M 254.251428 383.84 
L 254.251428 57.42 
" clip-path="url(#p426b5f6215)" style="fill: none; stroke: #ffffff; stroke-opacity: 0.4; stroke-linecap: round"/>
     </g>
     <g id="line2d_6"/>
     <g id="text_3">
      <text style="font-size: 18px; font-family: 'DejaVu Serif', 'Times New Roman', serif; text-anchor: middle; fill: #262626" x="254.251428" y="404.517187" transform="rotate(-0 254.251428 404.517187)">−0.24</text>
     </g>
    </g>
    <g id="xtick_4">
     <g id="line2d_7">
      <path d="M 341.227667 383.84 
L 341.227667 57.42 
" clip-path="url(#p426b5f6215)" style="fill: none; stroke: #ffffff; stroke-opacity: 0.4; stroke-linecap: round"/>
     </g>
     <g id="line2d_8"/>
     <g id="text_4">
      <text style="font-size: 18px; font-family: 'DejaVu Serif', 'Times New Roman', serif; text-anchor: middle; fill: #262626" x="341.227667" y="404.517187" transform="rotate(-0 341.227667 404.517187)">−0.22</text>
     </g>
    </g>
    <g id="xtick_5">
     <g id="line2d_9">
      <path d="M 428.203905 383.84 
L 428.203905 57.42 
" clip-path="url(#p426b5f6215)" style="fill: none; stroke: #ffffff; stroke-opacity: 0.4; stroke-linecap: round"/>
     </g>
     <g id="line2d_10"/>
     <g id="text_5">
      <text style="font-size: 18px; font-family: 'DejaVu Serif', 'Times New Roman', serif; text-anchor: middle; fill: #262626" x="428.203905" y="404.517187" transform="rotate(-0 428.203905 404.517187)">−0.20</text>
     </g>
    </g>
    <g id="xtick_6">
     <g id="line2d_11">
      <path d="M 515.180144 383.84 
L 515.180144 57.42 
" clip-path="url(#p426b5f6215)" style="fill: none; stroke: #ffffff; stroke-opacity: 0.4; stroke-linecap: round"/>
     </g>
     <g id="line2d_12"/>
     <g id="text_6">
      <text style="font-size: 18px; font-family: 'DejaVu Serif', 'Times New Roman', serif; text-anchor: middle; fill: #262626" x="515.180144" y="404.517187" transform="rotate(-0 515.180144 404.517187)">−0.18</text>
     </g>
    </g>
   </g>
   <g id="matplotlib.axis_2"/>
   <g id="FillBetweenPolyCollection_1">
    <defs>
     <path id="mf9c1a2e96f" d="M 47.781818 -64.19519 
L 47.781818 -183.986934 
L 48.722007 -184.022153 
L 49.662195 -184.075389 
L 50.602384 -184.137313 
L 51.542572 -184.239097 
L 52.482761 -184.375758 
L 53.42295 -184.506986 
L 54.363138 -184.704202 
L 55.303327 -184.898904 
L 56.243515 -185.14067 
L 57.183704 -185.387052 
L 58.123893 -185.653093 
L 59.064081 -185.953759 
L 60.00427 -186.273721 
L 60.944458 -186.618659 
L 61.884647 -186.958892 
L 62.824835 -187.354655 
L 63.765024 -187.751104 
L 64.705213 -188.161033 
L 65.645401 -188.59178 
L 66.58559 -189.034215 
L 67.525778 -189.49687 
L 68.465967 -189.984291 
L 69.406155 -190.468274 
L 70.346344 -190.947766 
L 71.286533 -191.490705 
L 72.226721 -192.032054 
L 73.16691 -192.574066 
L 74.107098 -193.127382 
L 75.047287 -193.711624 
L 75.987476 -194.288504 
L 76.927664 -194.880961 
L 77.867853 -195.498594 
L 78.808041 -196.129908 
L 79.74823 -196.754561 
L 80.688418 -197.398671 
L 81.628607 -198.050628 
L 82.568796 -198.687132 
L 83.508984 -199.36632 
L 84.449173 -200.066177 
L 85.389361 -200.780046 
L 86.32955 -201.493706 
L 87.269738 -202.218958 
L 88.209927 -202.975197 
L 89.150116 -203.752492 
L 90.090304 -204.55064 
L 91.030493 -205.350479 
L 91.970681 -206.189256 
L 92.91087 -207.025206 
L 93.851059 -207.881207 
L 94.791247 -208.76534 
L 95.731436 -209.683122 
L 96.671624 -210.614619 
L 97.611813 -211.582318 
L 98.552001 -212.526194 
L 99.49219 -213.539866 
L 100.432379 -214.569043 
L 101.372567 -215.592615 
L 102.312756 -216.650152 
L 103.252944 -217.737837 
L 104.193133 -218.845575 
L 105.133321 -220.002777 
L 106.07351 -221.153821 
L 107.013699 -222.347192 
L 107.953887 -223.55198 
L 108.894076 -224.77155 
L 109.834264 -226.007311 
L 110.774453 -227.266079 
L 111.714642 -228.537796 
L 112.65483 -229.828156 
L 113.595019 -231.14569 
L 114.535207 -232.49357 
L 115.475396 -233.865865 
L 116.415584 -235.243074 
L 117.355773 -236.625677 
L 118.295962 -238.012384 
L 119.23615 -239.4313 
L 120.176339 -240.837775 
L 121.116527 -242.265672 
L 122.056716 -243.709965 
L 122.996904 -245.134857 
L 123.937093 -246.593413 
L 124.877282 -248.051477 
L 125.81747 -249.507331 
L 126.757659 -250.971074 
L 127.697847 -252.43099 
L 128.638036 -253.895977 
L 129.578225 -255.332507 
L 130.518413 -256.759417 
L 131.458602 -258.185443 
L 132.39879 -259.599715 
L 133.338979 -261.017553 
L 134.279167 -262.412662 
L 135.219356 -263.822264 
L 136.159545 -265.195057 
L 137.099733 -266.569729 
L 138.039922 -267.942232 
L 138.98011 -269.274507 
L 139.920299 -270.605461 
L 140.860487 -271.907707 
L 141.800676 -273.202159 
L 142.740865 -274.477435 
L 143.681053 -275.726423 
L 144.621242 -276.97646 
L 145.56143 -278.212184 
L 146.501619 -279.422293 
L 147.441808 -280.669578 
L 148.381996 -281.859758 
L 149.322185 -283.044763 
L 150.262373 -284.191585 
L 151.202562 -285.312607 
L 152.14275 -286.448341 
L 153.082939 -287.566296 
L 154.023128 -288.6622 
L 154.963316 -289.754085 
L 155.903505 -290.826062 
L 156.843693 -291.913221 
L 157.783882 -292.959455 
L 158.72407 -293.998801 
L 159.664259 -295.030403 
L 160.604448 -296.058569 
L 161.544636 -297.058588 
L 162.484825 -298.031677 
L 163.425013 -299.024295 
L 164.365202 -300.006466 
L 165.30539 -300.972318 
L 166.245579 -301.919215 
L 167.185768 -302.889394 
L 168.125956 -303.851322 
L 169.066145 -304.79245 
L 170.006333 -305.715943 
L 170.946522 -306.642044 
L 171.886711 -307.563743 
L 172.826899 -308.484558 
L 173.767088 -309.408934 
L 174.707276 -310.303095 
L 175.647465 -311.214673 
L 176.587653 -312.114339 
L 177.527842 -313.003806 
L 178.468031 -313.882222 
L 179.408219 -314.735632 
L 180.348408 -315.574232 
L 181.288596 -316.418621 
L 182.228785 -317.273615 
L 183.168973 -318.097442 
L 184.109162 -318.940292 
L 185.049351 -319.766241 
L 185.989539 -320.567023 
L 186.929728 -321.348462 
L 187.869916 -322.145782 
L 188.810105 -322.951534 
L 189.750294 -323.740806 
L 190.690482 -324.531599 
L 191.630671 -325.280917 
L 192.570859 -326.041882 
L 193.511048 -326.782341 
L 194.451236 -327.510972 
L 195.391425 -328.223701 
L 196.331614 -328.939054 
L 197.271802 -329.635384 
L 198.211991 -330.316699 
L 199.152179 -330.986963 
L 200.092368 -331.676344 
L 201.032556 -332.364813 
L 201.972745 -333.019754 
L 202.912934 -333.666756 
L 203.853122 -334.284814 
L 204.793311 -334.883846 
L 205.733499 -335.481728 
L 206.673688 -336.073376 
L 207.613877 -336.659191 
L 208.554065 -337.199564 
L 209.494254 -337.769554 
L 210.434442 -338.316196 
L 211.374631 -338.866371 
L 212.314819 -339.377244 
L 213.255008 -339.894981 
L 214.195197 -340.404411 
L 215.135385 -340.895526 
L 216.075574 -341.388942 
L 217.015762 -341.858646 
L 217.955951 -342.321186 
L 218.896139 -342.788916 
L 219.836328 -343.242211 
L 220.776517 -343.656871 
L 221.716705 -344.069021 
L 222.656894 -344.488266 
L 223.597082 -344.889936 
L 224.537271 -345.27253 
L 225.47746 -345.650803 
L 226.417648 -346.025975 
L 227.357837 -346.399083 
L 228.298025 -346.744363 
L 229.238214 -347.119615 
L 230.178402 -347.480618 
L 231.118591 -347.829897 
L 232.05878 -348.163213 
L 232.998968 -348.477117 
L 233.939157 -348.771821 
L 234.879345 -349.080751 
L 235.819534 -349.386582 
L 236.759722 -349.674533 
L 237.699911 -349.949147 
L 238.6401 -350.226291 
L 239.580288 -350.472502 
L 240.520477 -350.754333 
L 241.460665 -350.995264 
L 242.400854 -351.252284 
L 243.341043 -351.474712 
L 244.281231 -351.716936 
L 245.22142 -351.95863 
L 246.161608 -352.175268 
L 247.101797 -352.41078 
L 248.041985 -352.63595 
L 248.982174 -352.873389 
L 249.922363 -353.103771 
L 250.862551 -353.354779 
L 251.80274 -353.567931 
L 252.742928 -353.774056 
L 253.683117 -353.977424 
L 254.623305 -354.157403 
L 255.563494 -354.388707 
L 256.503683 -354.600459 
L 257.443871 -354.823181 
L 258.38406 -355.046123 
L 259.324248 -355.267292 
L 260.264437 -355.506315 
L 261.204626 -355.736675 
L 262.144814 -355.945004 
L 263.085003 -356.158582 
L 264.025191 -356.334825 
L 264.96538 -356.495141 
L 265.905568 -356.716011 
L 266.845757 -356.921999 
L 267.785946 -357.110307 
L 268.726134 -357.288146 
L 269.666323 -357.472692 
L 270.606511 -357.644945 
L 271.5467 -357.796897 
L 272.486888 -357.955971 
L 273.427077 -358.123972 
L 274.367266 -358.276406 
L 275.307454 -358.429425 
L 276.247643 -358.568984 
L 277.187831 -358.720569 
L 278.12802 -358.836032 
L 279.068209 -358.985757 
L 280.008397 -359.129816 
L 280.948586 -359.256552 
L 281.888774 -359.369852 
L 282.828963 -359.448685 
L 283.769151 -359.519225 
L 284.70934 -359.580775 
L 285.649529 -359.655508 
L 286.589717 -359.6849 
L 287.529906 -359.696447 
L 288.470094 -359.731939 
L 289.410283 -359.742272 
L 290.350471 -359.742727 
L 291.29066 -359.710186 
L 292.230849 -359.660954 
L 293.171037 -359.597894 
L 294.111226 -359.528175 
L 295.051414 -359.422853 
L 295.991603 -359.29709 
L 296.931791 -359.158146 
L 297.87198 -359.004279 
L 298.812169 -358.838782 
L 299.752357 -358.664354 
L 300.692546 -358.474218 
L 301.632734 -358.248225 
L 302.572923 -358.000111 
L 303.513112 -357.754143 
L 304.4533 -357.463683 
L 305.393489 -357.169127 
L 306.333677 -356.826423 
L 307.273866 -356.499844 
L 308.214054 -356.155427 
L 309.154243 -355.777408 
L 310.094432 -355.368887 
L 311.03462 -354.984786 
L 311.974809 -354.565085 
L 312.914997 -354.131339 
L 313.855186 -353.650332 
L 314.795374 -353.153437 
L 315.735563 -352.659951 
L 316.675752 -352.135505 
L 317.61594 -351.596179 
L 318.556129 -351.042877 
L 319.496317 -350.500532 
L 320.436506 -349.945154 
L 321.376695 -349.397555 
L 322.316883 -348.804523 
L 323.257072 -348.18701 
L 324.19726 -347.556151 
L 325.137449 -346.920571 
L 326.077637 -346.266147 
L 327.017826 -345.638895 
L 327.958015 -345.004866 
L 328.898203 -344.356587 
L 329.838392 -343.715149 
L 330.77858 -343.045346 
L 331.718769 -342.371627 
L 332.658957 -341.695601 
L 333.599146 -341.003205 
L 334.539335 -340.305469 
L 335.479523 -339.641572 
L 336.419712 -338.97229 
L 337.3599 -338.298819 
L 338.300089 -337.604995 
L 339.240278 -336.927419 
L 340.180466 -336.257349 
L 341.120655 -335.602003 
L 342.060843 -334.920574 
L 343.001032 -334.237198 
L 343.94122 -333.556148 
L 344.881409 -332.906934 
L 345.821598 -332.260729 
L 346.761786 -331.610586 
L 347.701975 -330.951878 
L 348.642163 -330.294974 
L 349.582352 -329.620333 
L 350.52254 -328.939666 
L 351.462729 -328.302386 
L 352.402918 -327.663019 
L 353.343106 -327.016516 
L 354.283295 -326.40872 
L 355.223483 -325.768779 
L 356.163672 -325.121909 
L 357.103861 -324.459838 
L 358.044049 -323.823365 
L 358.984238 -323.162655 
L 359.924426 -322.506844 
L 360.864615 -321.865698 
L 361.804803 -321.220992 
L 362.744992 -320.567524 
L 363.685181 -319.916142 
L 364.625369 -319.229678 
L 365.565558 -318.5528 
L 366.505746 -317.871043 
L 367.445935 -317.148066 
L 368.386123 -316.419674 
L 369.326312 -315.699379 
L 370.266501 -314.95328 
L 371.206689 -314.21227 
L 372.146878 -313.45193 
L 373.087066 -312.683186 
L 374.027255 -311.899366 
L 374.967444 -311.092055 
L 375.907632 -310.28434 
L 376.847821 -309.452891 
L 377.788009 -308.605448 
L 378.728198 -307.73119 
L 379.668386 -306.86979 
L 380.608575 -305.987894 
L 381.548764 -305.101848 
L 382.488952 -304.19659 
L 383.429141 -303.300931 
L 384.369329 -302.374572 
L 385.309518 -301.432608 
L 386.249706 -300.485015 
L 387.189895 -299.506069 
L 388.130084 -298.50655 
L 389.070272 -297.559192 
L 390.010461 -296.550823 
L 390.950649 -295.550189 
L 391.890838 -294.509419 
L 392.831027 -293.469646 
L 393.771215 -292.406947 
L 394.711404 -291.353419 
L 395.651592 -290.284361 
L 396.591781 -289.188881 
L 397.531969 -288.103102 
L 398.472158 -286.996832 
L 399.412347 -285.878467 
L 400.352535 -284.754562 
L 401.292724 -283.660797 
L 402.232912 -282.560337 
L 403.173101 -281.439155 
L 404.113289 -280.314608 
L 405.053478 -279.193252 
L 405.993667 -278.03741 
L 406.933855 -276.882694 
L 407.874044 -275.718834 
L 408.814232 -274.565742 
L 409.754421 -273.393925 
L 410.69461 -272.218707 
L 411.634798 -271.069113 
L 412.574987 -269.908863 
L 413.515175 -268.766497 
L 414.455364 -267.627367 
L 415.395552 -266.436952 
L 416.335741 -265.271536 
L 417.27593 -264.111037 
L 418.216118 -262.955773 
L 419.156307 -261.803207 
L 420.096495 -260.642337 
L 421.036684 -259.485739 
L 421.976872 -258.325685 
L 422.917061 -257.154819 
L 423.85725 -255.996045 
L 424.797438 -254.838169 
L 425.737627 -253.670858 
L 426.677815 -252.494589 
L 427.618004 -251.336597 
L 428.558192 -250.157777 
L 429.498381 -248.988347 
L 430.43857 -247.824377 
L 431.378758 -246.651004 
L 432.318947 -245.496211 
L 433.259135 -244.351483 
L 434.199324 -243.199644 
L 435.139513 -242.042854 
L 436.079701 -240.897792 
L 437.01989 -239.76313 
L 437.960078 -238.604018 
L 438.900267 -237.43543 
L 439.840455 -236.283161 
L 440.780644 -235.138973 
L 441.720833 -233.986234 
L 442.661021 -232.842875 
L 443.60121 -231.681025 
L 444.541398 -230.539559 
L 445.481587 -229.375432 
L 446.421775 -228.201047 
L 447.361964 -227.051354 
L 448.302153 -225.895828 
L 449.242341 -224.734337 
L 450.18253 -223.556179 
L 451.122718 -222.382506 
L 452.062907 -221.238831 
L 453.003096 -220.068921 
L 453.943284 -218.911032 
L 454.883473 -217.733288 
L 455.823661 -216.561397 
L 456.76385 -215.396344 
L 457.704038 -214.21265 
L 458.644227 -213.039792 
L 459.584416 -211.870032 
L 460.524604 -210.673525 
L 461.464793 -209.490936 
L 462.404981 -208.307881 
L 463.34517 -207.144554 
L 464.285358 -205.97891 
L 465.225547 -204.79157 
L 466.165736 -203.616007 
L 467.105924 -202.424297 
L 468.046113 -201.245662 
L 468.986301 -200.071632 
L 469.92649 -198.885745 
L 470.866679 -197.689496 
L 471.806867 -196.544028 
L 472.747056 -195.398042 
L 473.687244 -194.276973 
L 474.627433 -193.147131 
L 475.567621 -192.04072 
L 476.50781 -190.91935 
L 477.447999 -189.806756 
L 478.388187 -188.724436 
L 479.328376 -187.651994 
L 480.268564 -186.600569 
L 481.208753 -185.542607 
L 482.148941 -184.515186 
L 483.08913 -183.508289 
L 484.029319 -182.533415 
L 484.969507 -181.556715 
L 485.909696 -180.611882 
L 486.849884 -179.666881 
L 487.790073 -178.780034 
L 488.730262 -177.888238 
L 489.67045 -177.017773 
L 490.610639 -176.180484 
L 491.550827 -175.374657 
L 492.491016 -174.602408 
L 493.431204 -173.843239 
L 494.371393 -173.102604 
L 495.311582 -172.388712 
L 496.25177 -171.697412 
L 497.191959 -171.048862 
L 498.132147 -170.410276 
L 499.072336 -169.818656 
L 500.012524 -169.238222 
L 500.952713 -168.66496 
L 501.892902 -168.145596 
L 502.83309 -167.636039 
L 503.773279 -167.170057 
L 504.713467 -166.705255 
L 505.653656 -166.277989 
L 506.593845 -165.887759 
L 507.534033 -165.520309 
L 508.474222 -165.161349 
L 509.41441 -164.820351 
L 510.354599 -164.505106 
L 511.294787 -164.201502 
L 512.234976 -163.925116 
L 513.175165 -163.654174 
L 514.115353 -163.452282 
L 515.055542 -163.228523 
L 515.99573 -163.017105 
L 516.935919 -162.830239 
L 517.876107 -162.679108 
L 518.816296 -162.53306 
L 519.756485 -162.435051 
L 520.696673 -162.312504 
L 521.636862 -162.192257 
L 522.57705 -162.107032 
L 523.517239 -162.022011 
L 524.457428 -161.986491 
L 525.397616 -161.946598 
L 526.337805 -161.898447 
L 527.277993 -161.873319 
L 528.218182 -161.860127 
L 528.218182 -64.19519 
L 528.218182 -64.19519 
L 527.277993 -64.19519 
L 526.337805 -64.19519 
L 525.397616 -64.19519 
L 524.457428 -64.19519 
L 523.517239 -64.19519 
L 522.57705 -64.19519 
L 521.636862 -64.19519 
L 520.696673 -64.19519 
L 519.756485 -64.19519 
L 518.816296 -64.19519 
L 517.876107 -64.19519 
L 516.935919 -64.19519 
L 515.99573 -64.19519 
L 515.055542 -64.19519 
L 514.115353 -64.19519 
L 513.175165 -64.19519 
L 512.234976 -64.19519 
L 511.294787 -64.19519 
L 510.354599 -64.19519 
L 509.41441 -64.19519 
L 508.474222 -64.19519 
L 507.534033 -64.19519 
L 506.593845 -64.19519 
L 505.653656 -64.19519 
L 504.713467 -64.19519 
L 503.773279 -64.19519 
L 502.83309 -64.19519 
L 501.892902 -64.19519 
L 500.952713 -64.19519 
L 500.012524 -64.19519 
L 499.072336 -64.19519 
L 498.132147 -64.19519 
L 497.191959 -64.19519 
L 496.25177 -64.19519 
L 495.311582 -64.19519 
L 494.371393 -64.19519 
L 493.431204 -64.19519 
L 492.491016 -64.19519 
L 491.550827 -64.19519 
L 490.610639 -64.19519 
L 489.67045 -64.19519 
L 488.730262 -64.19519 
L 487.790073 -64.19519 
L 486.849884 -64.19519 
L 485.909696 -64.19519 
L 484.969507 -64.19519 
L 484.029319 -64.19519 
L 483.08913 -64.19519 
L 482.148941 -64.19519 
L 481.208753 -64.19519 
L 480.268564 -64.19519 
L 479.328376 -64.19519 
L 478.388187 -64.19519 
L 477.447999 -64.19519 
L 476.50781 -64.19519 
L 475.567621 -64.19519 
L 474.627433 -64.19519 
L 473.687244 -64.19519 
L 472.747056 -64.19519 
L 471.806867 -64.19519 
L 470.866679 -64.19519 
L 469.92649 -64.19519 
L 468.986301 -64.19519 
L 468.046113 -64.19519 
L 467.105924 -64.19519 
L 466.165736 -64.19519 
L 465.225547 -64.19519 
L 464.285358 -64.19519 
L 463.34517 -64.19519 
L 462.404981 -64.19519 
L 461.464793 -64.19519 
L 460.524604 -64.19519 
L 459.584416 -64.19519 
L 458.644227 -64.19519 
L 457.704038 -64.19519 
L 456.76385 -64.19519 
L 455.823661 -64.19519 
L 454.883473 -64.19519 
L 453.943284 -64.19519 
L 453.003096 -64.19519 
L 452.062907 -64.19519 
L 451.122718 -64.19519 
L 450.18253 -64.19519 
L 449.242341 -64.19519 
L 448.302153 -64.19519 
L 447.361964 -64.19519 
L 446.421775 -64.19519 
L 445.481587 -64.19519 
L 444.541398 -64.19519 
L 443.60121 -64.19519 
L 442.661021 -64.19519 
L 441.720833 -64.19519 
L 440.780644 -64.19519 
L 439.840455 -64.19519 
L 438.900267 -64.19519 
L 437.960078 -64.19519 
L 437.01989 -64.19519 
L 436.079701 -64.19519 
L 435.139513 -64.19519 
L 434.199324 -64.19519 
L 433.259135 -64.19519 
L 432.318947 -64.19519 
L 431.378758 -64.19519 
L 430.43857 -64.19519 
L 429.498381 -64.19519 
L 428.558192 -64.19519 
L 427.618004 -64.19519 
L 426.677815 -64.19519 
L 425.737627 -64.19519 
L 424.797438 -64.19519 
L 423.85725 -64.19519 
L 422.917061 -64.19519 
L 421.976872 -64.19519 
L 421.036684 -64.19519 
L 420.096495 -64.19519 
L 419.156307 -64.19519 
L 418.216118 -64.19519 
L 417.27593 -64.19519 
L 416.335741 -64.19519 
L 415.395552 -64.19519 
L 414.455364 -64.19519 
L 413.515175 -64.19519 
L 412.574987 -64.19519 
L 411.634798 -64.19519 
L 410.69461 -64.19519 
L 409.754421 -64.19519 
L 408.814232 -64.19519 
L 407.874044 -64.19519 
L 406.933855 -64.19519 
L 405.993667 -64.19519 
L 405.053478 -64.19519 
L 404.113289 -64.19519 
L 403.173101 -64.19519 
L 402.232912 -64.19519 
L 401.292724 -64.19519 
L 400.352535 -64.19519 
L 399.412347 -64.19519 
L 398.472158 -64.19519 
L 397.531969 -64.19519 
L 396.591781 -64.19519 
L 395.651592 -64.19519 
L 394.711404 -64.19519 
L 393.771215 -64.19519 
L 392.831027 -64.19519 
L 391.890838 -64.19519 
L 390.950649 -64.19519 
L 390.010461 -64.19519 
L 389.070272 -64.19519 
L 388.130084 -64.19519 
L 387.189895 -64.19519 
L 386.249706 -64.19519 
L 385.309518 -64.19519 
L 384.369329 -64.19519 
L 383.429141 -64.19519 
L 382.488952 -64.19519 
L 381.548764 -64.19519 
L 380.608575 -64.19519 
L 379.668386 -64.19519 
L 378.728198 -64.19519 
L 377.788009 -64.19519 
L 376.847821 -64.19519 
L 375.907632 -64.19519 
L 374.967444 -64.19519 
L 374.027255 -64.19519 
L 373.087066 -64.19519 
L 372.146878 -64.19519 
L 371.206689 -64.19519 
L 370.266501 -64.19519 
L 369.326312 -64.19519 
L 368.386123 -64.19519 
L 367.445935 -64.19519 
L 366.505746 -64.19519 
L 365.565558 -64.19519 
L 364.625369 -64.19519 
L 363.685181 -64.19519 
L 362.744992 -64.19519 
L 361.804803 -64.19519 
L 360.864615 -64.19519 
L 359.924426 -64.19519 
L 358.984238 -64.19519 
L 358.044049 -64.19519 
L 357.103861 -64.19519 
L 356.163672 -64.19519 
L 355.223483 -64.19519 
L 354.283295 -64.19519 
L 353.343106 -64.19519 
L 352.402918 -64.19519 
L 351.462729 -64.19519 
L 350.52254 -64.19519 
L 349.582352 -64.19519 
L 348.642163 -64.19519 
L 347.701975 -64.19519 
L 346.761786 -64.19519 
L 345.821598 -64.19519 
L 344.881409 -64.19519 
L 343.94122 -64.19519 
L 343.001032 -64.19519 
L 342.060843 -64.19519 
L 341.120655 -64.19519 
L 340.180466 -64.19519 
L 339.240278 -64.19519 
L 338.300089 -64.19519 
L 337.3599 -64.19519 
L 336.419712 -64.19519 
L 335.479523 -64.19519 
L 334.539335 -64.19519 
L 333.599146 -64.19519 
L 332.658957 -64.19519 
L 331.718769 -64.19519 
L 330.77858 -64.19519 
L 329.838392 -64.19519 
L 328.898203 -64.19519 
L 327.958015 -64.19519 
L 327.017826 -64.19519 
L 326.077637 -64.19519 
L 325.137449 -64.19519 
L 324.19726 -64.19519 
L 323.257072 -64.19519 
L 322.316883 -64.19519 
L 321.376695 -64.19519 
L 320.436506 -64.19519 
L 319.496317 -64.19519 
L 318.556129 -64.19519 
L 317.61594 -64.19519 
L 316.675752 -64.19519 
L 315.735563 -64.19519 
L 314.795374 -64.19519 
L 313.855186 -64.19519 
L 312.914997 -64.19519 
L 311.974809 -64.19519 
L 311.03462 -64.19519 
L 310.094432 -64.19519 
L 309.154243 -64.19519 
L 308.214054 -64.19519 
L 307.273866 -64.19519 
L 306.333677 -64.19519 
L 305.393489 -64.19519 
L 304.4533 -64.19519 
L 303.513112 -64.19519 
L 302.572923 -64.19519 
L 301.632734 -64.19519 
L 300.692546 -64.19519 
L 299.752357 -64.19519 
L 298.812169 -64.19519 
L 297.87198 -64.19519 
L 296.931791 -64.19519 
L 295.991603 -64.19519 
L 295.051414 -64.19519 
L 294.111226 -64.19519 
L 293.171037 -64.19519 
L 292.230849 -64.19519 
L 291.29066 -64.19519 
L 290.350471 -64.19519 
L 289.410283 -64.19519 
L 288.470094 -64.19519 
L 287.529906 -64.19519 
L 286.589717 -64.19519 
L 285.649529 -64.19519 
L 284.70934 -64.19519 
L 283.769151 -64.19519 
L 282.828963 -64.19519 
L 281.888774 -64.19519 
L 280.948586 -64.19519 
L 280.008397 -64.19519 
L 279.068209 -64.19519 
L 278.12802 -64.19519 
L 277.187831 -64.19519 
L 276.247643 -64.19519 
L 275.307454 -64.19519 
L 274.367266 -64.19519 
L 273.427077 -64.19519 
L 272.486888 -64.19519 
L 271.5467 -64.19519 
L 270.606511 -64.19519 
L 269.666323 -64.19519 
L 268.726134 -64.19519 
L 267.785946 -64.19519 
L 266.845757 -64.19519 
L 265.905568 -64.19519 
L 264.96538 -64.19519 
L 264.025191 -64.19519 
L 263.085003 -64.19519 
L 262.144814 -64.19519 
L 261.204626 -64.19519 
L 260.264437 -64.19519 
L 259.324248 -64.19519 
L 258.38406 -64.19519 
L 257.443871 -64.19519 
L 256.503683 -64.19519 
L 255.563494 -64.19519 
L 254.623305 -64.19519 
L 253.683117 -64.19519 
L 252.742928 -64.19519 
L 251.80274 -64.19519 
L 250.862551 -64.19519 
L 249.922363 -64.19519 
L 248.982174 -64.19519 
L 248.041985 -64.19519 
L 247.101797 -64.19519 
L 246.161608 -64.19519 
L 245.22142 -64.19519 
L 244.281231 -64.19519 
L 243.341043 -64.19519 
L 242.400854 -64.19519 
L 241.460665 -64.19519 
L 240.520477 -64.19519 
L 239.580288 -64.19519 
L 238.6401 -64.19519 
L 237.699911 -64.19519 
L 236.759722 -64.19519 
L 235.819534 -64.19519 
L 234.879345 -64.19519 
L 233.939157 -64.19519 
L 232.998968 -64.19519 
L 232.05878 -64.19519 
L 231.118591 -64.19519 
L 230.178402 -64.19519 
L 229.238214 -64.19519 
L 228.298025 -64.19519 
L 227.357837 -64.19519 
L 226.417648 -64.19519 
L 225.47746 -64.19519 
L 224.537271 -64.19519 
L 223.597082 -64.19519 
L 222.656894 -64.19519 
L 221.716705 -64.19519 
L 220.776517 -64.19519 
L 219.836328 -64.19519 
L 218.896139 -64.19519 
L 217.955951 -64.19519 
L 217.015762 -64.19519 
L 216.075574 -64.19519 
L 215.135385 -64.19519 
L 214.195197 -64.19519 
L 213.255008 -64.19519 
L 212.314819 -64.19519 
L 211.374631 -64.19519 
L 210.434442 -64.19519 
L 209.494254 -64.19519 
L 208.554065 -64.19519 
L 207.613877 -64.19519 
L 206.673688 -64.19519 
L 205.733499 -64.19519 
L 204.793311 -64.19519 
L 203.853122 -64.19519 
L 202.912934 -64.19519 
L 201.972745 -64.19519 
L 201.032556 -64.19519 
L 200.092368 -64.19519 
L 199.152179 -64.19519 
L 198.211991 -64.19519 
L 197.271802 -64.19519 
L 196.331614 -64.19519 
L 195.391425 -64.19519 
L 194.451236 -64.19519 
L 193.511048 -64.19519 
L 192.570859 -64.19519 
L 191.630671 -64.19519 
L 190.690482 -64.19519 
L 189.750294 -64.19519 
L 188.810105 -64.19519 
L 187.869916 -64.19519 
L 186.929728 -64.19519 
L 185.989539 -64.19519 
L 185.049351 -64.19519 
L 184.109162 -64.19519 
L 183.168973 -64.19519 
L 182.228785 -64.19519 
L 181.288596 -64.19519 
L 180.348408 -64.19519 
L 179.408219 -64.19519 
L 178.468031 -64.19519 
L 177.527842 -64.19519 
L 176.587653 -64.19519 
L 175.647465 -64.19519 
L 174.707276 -64.19519 
L 173.767088 -64.19519 
L 172.826899 -64.19519 
L 171.886711 -64.19519 
L 170.946522 -64.19519 
L 170.006333 -64.19519 
L 169.066145 -64.19519 
L 168.125956 -64.19519 
L 167.185768 -64.19519 
L 166.245579 -64.19519 
L 165.30539 -64.19519 
L 164.365202 -64.19519 
L 163.425013 -64.19519 
L 162.484825 -64.19519 
L 161.544636 -64.19519 
L 160.604448 -64.19519 
L 159.664259 -64.19519 
L 158.72407 -64.19519 
L 157.783882 -64.19519 
L 156.843693 -64.19519 
L 155.903505 -64.19519 
L 154.963316 -64.19519 
L 154.023128 -64.19519 
L 153.082939 -64.19519 
L 152.14275 -64.19519 
L 151.202562 -64.19519 
L 150.262373 -64.19519 
L 149.322185 -64.19519 
L 148.381996 -64.19519 
L 147.441808 -64.19519 
L 146.501619 -64.19519 
L 145.56143 -64.19519 
L 144.621242 -64.19519 
L 143.681053 -64.19519 
L 142.740865 -64.19519 
L 141.800676 -64.19519 
L 140.860487 -64.19519 
L 139.920299 -64.19519 
L 138.98011 -64.19519 
L 138.039922 -64.19519 
L 137.099733 -64.19519 
L 136.159545 -64.19519 
L 135.219356 -64.19519 
L 134.279167 -64.19519 
L 133.338979 -64.19519 
L 132.39879 -64.19519 
L 131.458602 -64.19519 
L 130.518413 -64.19519 
L 129.578225 -64.19519 
L 128.638036 -64.19519 
L 127.697847 -64.19519 
L 126.757659 -64.19519 
L 125.81747 -64.19519 
L 124.877282 -64.19519 
L 123.937093 -64.19519 
L 122.996904 -64.19519 
L 122.056716 -64.19519 
L 121.116527 -64.19519 
L 120.176339 -64.19519 
L 119.23615 -64.19519 
L 118.295962 -64.19519 
L 117.355773 -64.19519 
L 116.415584 -64.19519 
L 115.475396 -64.19519 
L 114.535207 -64.19519 
L 113.595019 -64.19519 
L 112.65483 -64.19519 
L 111.714642 -64.19519 
L 110.774453 -64.19519 
L 109.834264 -64.19519 
L 108.894076 -64.19519 
L 107.953887 -64.19519 
L 107.013699 -64.19519 
L 106.07351 -64.19519 
L 105.133321 -64.19519 
L 104.193133 -64.19519 
L 103.252944 -64.19519 
L 102.312756 -64.19519 
L 101.372567 -64.19519 
L 100.432379 -64.19519 
L 99.49219 -64.19519 
L 98.552001 -64.19519 
L 97.611813 -64.19519 
L 96.671624 -64.19519 
L 95.731436 -64.19519 
L 94.791247 -64.19519 
L 93.851059 -64.19519 
L 92.91087 -64.19519 
L 91.970681 -64.19519 
L 91.030493 -64.19519 
L 90.090304 -64.19519 
L 89.150116 -64.19519 
L 88.209927 -64.19519 
L 87.269738 -64.19519 
L 86.32955 -64.19519 
L 85.389361 -64.19519 
L 84.449173 -64.19519 
L 83.508984 -64.19519 
L 82.568796 -64.19519 
L 81.628607 -64.19519 
L 80.688418 -64.19519 
L 79.74823 -64.19519 
L 78.808041 -64.19519 
L 77.867853 -64.19519 
L 76.927664 -64.19519 
L 75.987476 -64.19519 
L 75.047287 -64.19519 
L 74.107098 -64.19519 
L 73.16691 -64.19519 
L 72.226721 -64.19519 
L 71.286533 -64.19519 
L 70.346344 -64.19519 
L 69.406155 -64.19519 
L 68.465967 -64.19519 
L 67.525778 -64.19519 
L 66.58559 -64.19519 
L 65.645401 -64.19519 
L 64.705213 -64.19519 
L 63.765024 -64.19519 
L 62.824835 -64.19519 
L 61.884647 -64.19519 
L 60.944458 -64.19519 
L 60.00427 -64.19519 
L 59.064081 -64.19519 
L 58.123893 -64.19519 
L 57.183704 -64.19519 
L 56.243515 -64.19519 
L 55.303327 -64.19519 
L 54.363138 -64.19519 
L 53.42295 -64.19519 
L 52.482761 -64.19519 
L 51.542572 -64.19519 
L 50.602384 -64.19519 
L 49.662195 -64.19519 
L 48.722007 -64.19519 
L 47.781818 -64.19519 
z
" style="stroke: #6cb7ff; stroke-opacity: 0.6; stroke-width: 0.3"/>
    </defs>
    <g clip-path="url(#p426b5f6215)">
     <use xlink:href="#mf9c1a2e96f" x="0" y="432" style="fill: #6cb7ff; fill-opacity: 0.6; stroke: #6cb7ff; stroke-opacity: 0.6; stroke-width: 0.3"/>
    </g>
   </g>
   <g id="line2d_13">
    <path d="M 47.781818 248.013066 
L 50.602384 247.862687 
L 53.42295 247.493014 
L 57.183704 246.612948 
L 60.00427 245.726279 
L 63.765024 244.248896 
L 67.525778 242.50313 
L 72.226721 239.967946 
L 75.987476 237.711496 
L 79.74823 235.245439 
L 84.449173 231.933823 
L 89.150116 228.247508 
L 93.851059 224.118793 
L 96.671624 221.385381 
L 101.372567 216.407385 
L 104.193133 213.154425 
L 108.894076 207.22845 
L 112.65483 202.171844 
L 116.415584 196.756926 
L 122.056716 188.290035 
L 127.697847 179.56901 
L 133.338979 170.982447 
L 139.920299 161.394539 
L 144.621242 155.02354 
L 149.322185 148.955237 
L 154.963316 142.245915 
L 160.604448 135.941431 
L 166.245579 130.080785 
L 170.946522 125.357956 
L 178.468031 118.117778 
L 185.989539 111.432977 
L 194.451236 104.489028 
L 201.032556 99.635187 
L 204.793311 97.116154 
L 209.494254 94.230446 
L 214.195197 91.595589 
L 219.836328 88.757789 
L 226.417648 85.974025 
L 232.05878 83.836787 
L 237.699911 82.050853 
L 242.400854 80.747716 
L 266.845757 75.078001 
L 272.486888 74.044029 
L 277.187831 73.279431 
L 285.649529 72.344492 
L 290.350471 72.257273 
L 294.111226 72.471825 
L 297.87198 72.995721 
L 301.632734 73.751775 
L 305.393489 74.830873 
L 310.094432 76.631113 
L 312.914997 77.868661 
L 316.675752 79.864495 
L 322.316883 83.195477 
L 328.898203 87.643413 
L 332.658957 90.304399 
L 341.120655 96.397997 
L 347.701975 101.048122 
L 368.386123 115.580326 
L 373.087066 119.316814 
L 376.847821 122.547109 
L 381.548764 126.898152 
L 386.249706 131.514985 
L 391.890838 137.490581 
L 396.591781 142.811119 
L 403.173101 150.560845 
L 408.814232 157.434258 
L 422.917061 174.845181 
L 461.464793 222.509064 
L 473.687244 237.723027 
L 479.328376 244.348006 
L 484.029319 249.466585 
L 487.790073 253.219966 
L 490.610639 255.819516 
L 494.371393 258.897396 
L 497.191959 260.951138 
L 500.012524 262.761778 
L 502.83309 264.363961 
L 506.593845 266.112241 
L 510.354599 267.494894 
L 513.175165 268.345826 
L 518.816296 269.46694 
L 525.397616 270.053402 
L 528.218182 270.139873 
L 528.218182 270.139873 
" clip-path="url(#p426b5f6215)" style="fill: none; stroke: #7570b3; stroke-width: 2; stroke-linecap: round"/>
   </g>
   <g id="line2d_14">
    <path d="M 47.781818 369.002727 
L 47.781818 248.013066 
" clip-path="url(#p426b5f6215)" style="fill: none; stroke: #7570b3; stroke-width: 2; stroke-linecap: round"/>
   </g>
   <g id="line2d_15">
    <path d="M 528.218182 368.781459 
L 528.218182 270.139873 
" clip-path="url(#p426b5f6215)" style="fill: none; stroke: #7570b3; stroke-width: 2; stroke-linecap: round"/>
   </g>
   <g id="line2d_16">
    <defs>
     <path id="m9a7d412eed" d="M 0 3.5 
C 0.928211 3.5 1.81853 3.131218 2.474874 2.474874 
C 3.131218 1.81853 3.5 0.928211 3.5 0 
C 3.5 -0.928211 3.131218 -1.81853 2.474874 -2.474874 
C 1.81853 -3.131218 0.928211 -3.5 0 -3.5 
C -0.928211 -3.5 -1.81853 -3.131218 -2.474874 -2.474874 
C -3.131218 -1.81853 -3.5 -0.928211 -3.5 0 
C -3.5 0.928211 -3.131218 1.81853 -2.474874 2.474874 
C -1.81853 3.131218 -0.928211 3.5 0 3.5 
z
"/>
    </defs>
    <g clip-path="url(#p426b5f6215)">
     <use xlink:href="#m9a7d412eed" x="277.099833" y="367.80481" style="fill: #7570b3"/>
    </g>
   </g>
   <g id="patch_3">
    <path d="M 23.76 383.84 
L 552.24 383.84 
" style="fill: none; stroke: #333333; stroke-width: 1.5; stroke-linejoin: miter; stroke-linecap: square"/>
   </g>
   <g id="text_7">
    <!-- $x_1^2x_3$ -->
    <g style="fill: #262626" transform="translate(257.48 49.58)">
     <text>
      <tspan x="0" y="-0.734375" style="font-style: oblique; font-size: 28px; font-family: 'DejaVu Sans'; fill: #262626">x</tspan>
      <tspan x="31.056576" y="-0.734375" style="font-style: oblique; font-size: 28px; font-family: 'DejaVu Sans'; fill: #262626">x</tspan>
      <tspan x="16.570312" y="6.921875" style="font-size: 19.6px; font-family: 'DejaVu Sans'; fill: #262626">1</tspan>
      <tspan x="17.820833" y="-11.453125" style="font-size: 19.6px; font-family: 'DejaVu Sans'; fill: #262626">2</tspan>
      <tspan x="47.626888" y="3.859375" style="font-size: 19.6px; font-family: 'DejaVu Sans'; fill: #262626">3</tspan>
     </text>
    </g>
   </g>
  </g>
 </g>
 <defs>
  <clipPath id="p426b5f6215">
   <rect x="23.76" y="57.42" width="528.48" height="326.42"/>
  </clipPath>
 </defs>
</svg>
