<?xml version="1.0" encoding="utf-8" standalone="no"?>
<!DOCTYPE svg PUBLIC "-//W3C//DTD SVG 1.1//EN"
  "http://www.w3.org/Graphics/SVG/1.1/DTD/svg11.dtd">
<svg xmlns:xlink="http://www.w3.org/1999/xlink" width="576pt" height="432pt" viewBox="0 0 576 432" xmlns="http://www.w3.org/2000/svg" version="1.1">
 <metadata>
  <rdf:RDF xmlns:dc="http://purl.org/dc/elements/1.1/" xmlns:cc="http://creativecommons.org/ns#" xmlns:rdf="http://www.w3.org/1999/02/22-rdf-syntax-ns#">
   <cc:Work>
    <dc:type rdf:resource="http://purl.org/dc/dcmitype/StillImage"/>
    <dc:date>2025-09-22T23:00:34.456312</dc:date>
    <dc:format>image/svg+xml</dc:format>
    <dc:creator>
     <cc:Agent>
      <dc:title>Matplotlib v3.10.0, https://matplotlib.org/</dc:title>
     </cc:Agent>
    </dc:creator>
   </cc:Work>
  </rdf:RDF>
 </metadata>
 <defs>
  <style type="text/css">*{stroke-linejoin: round; stroke-linecap: butt}</style>
 </defs>
 <g id="figure_1">
  <g id="patch_1">
   <path d="M 0 432 
L 576 432 
L 576 0 
L 0 0 
L 0 432 
z
" style="fill: none; opacity: 0"/>
  </g>
  <g id="axes_1">
   <g id="patch_2">
    <path d="M 23.76 383.84 
L 552.24 383.84 
L 552.24 57.336 
L 23.76 57.336 
L 23.76 383.84 
z
" style="fill: none"/>
   </g>
   <g id="matplotlib.axis_1">
    <g id="xtick_1">
     <g id="line2d_1">
      <path d="M 66.011759 383.84 
L 66.011759 57.336 
" clip-path="url(#pcd4f2f9775)" style="fill: none; stroke: #ffffff; stroke-opacity: 0.4; stroke-linecap: round"/>
     </g>
     <g id="line2d_2"/>
     <g id="text_1">
      <text style="font-size: 18px; font-family: 'DejaVu Serif', 'Times New Roman', serif; text-anchor: middle; fill: #262626" x="66.011759" y="404.517187" transform="rotate(-0 66.011759 404.517187)">0.06</text>
     </g>
    </g>
    <g id="xtick_2">
     <g id="line2d_3">
      <path d="M 178.522374 383.84 
L 178.522374 57.336 
" clip-path="url(#pcd4f2f9775)" style="fill: none; stroke: #ffffff; stroke-opacity: 0.4; stroke-linecap: round"/>
     </g>
     <g id="line2d_4"/>
     <g id="text_2">
      <text style="font-size: 18px; font-family: 'DejaVu Serif', 'Times New Roman', serif; text-anchor: middle; fill: #262626" x="178.522374" y="404.517187" transform="rotate(-0 178.522374 404.517187)">0.08</text>
     </g>
    </g>
    <g id="xtick_3">
     <g id="line2d_5">
      <path d="M 291.032989 383.84 
L 291.032989 57.336 
" clip-path="url(#pcd4f2f9775)" style="fill: none; stroke: #ffffff; stroke-opacity: 0.4; stroke-linecap: round"/>
     </g>
     <g id="line2d_6"/>
     <g id="text_3">
      <text style="font-size: 18px; font-family: 'DejaVu Serif', 'Times New Roman', serif; text-anchor: middle; fill: #262626" x="291.032989" y="404.517187" transform="rotate(-0 291.032989 404.517187)">0.10</text>
     </g>
    </g>
    <g id="xtick_4">
     <g id="line2d_7">
      <path d="M 403.543604 383.84 
L 403.543604 57.336 
" clip-path="url(#pcd4f2f9775)" style="fill: none; stroke: #ffffff; stroke-opacity: 0.4; stroke-linecap: round"/>
     </g>
     <g id="line2d_8"/>
     <g id="text_4">
      <text style="font-size: 18px; font-family: 'DejaVu Serif', 'Times New Roman', serif; text-anchor: middle; fill: #262626" x="403.543604" y="404.517187" transform="rotate(-0 403.543604 404.517187)">0.12</text>
     </g>
    </g>
    <g id="xtick_5">
     <g id="line2d_9">
      <path d="M 516.054218 383.84 
L 516.054218 57.336 
" clip-path="url(#pcd4f2f9775)" style="fill: none; stroke: #ffffff; stroke-opacity: 0.4; stroke-linecap: round"/>
     </g>
     <g id="line2d_10"/>
     <g id="text_5">
      <text style="font-size: 18px; font-family: 'DejaVu Serif', 'Times New Roman', serif; text-anchor: middle; fill: #262626" x="516.054218" y="404.517187" transform="rotate(-0 516.054218 404.517187)">0.14</text>
     </g>
    </g>
   </g>
   <g id="matplotlib.axis_2"/>
   <g id="FillBetweenPolyCollection_1">
    <defs>
     <path id="m108e47ae01" d="M 47.781818 -64.2147 
L 47.781818 -160.840107 
L 48.722007 -160.831598 
L 49.662195 -160.831222 
L 50.602384 -160.850907 
L 51.542572 -160.896574 
L 52.482761 -160.985396 
L 53.42295 -161.06851 
L 54.363138 -161.149693 
L 55.303327 -161.237619 
L 56.243515 -161.366902 
L 57.183704 -161.499237 
L 58.123893 -161.64223 
L 59.064081 -161.810065 
L 60.00427 -161.993525 
L 60.944458 -162.18671 
L 61.884647 -162.394438 
L 62.824835 -162.617314 
L 63.765024 -162.854595 
L 64.705213 -163.109671 
L 65.645401 -163.39098 
L 66.58559 -163.689647 
L 67.525778 -164.034409 
L 68.465967 -164.4158 
L 69.406155 -164.787982 
L 70.346344 -165.162353 
L 71.286533 -165.596901 
L 72.226721 -166.034689 
L 73.16691 -166.500602 
L 74.107098 -166.996404 
L 75.047287 -167.529171 
L 75.987476 -168.063803 
L 76.927664 -168.649384 
L 77.867853 -169.249842 
L 78.808041 -169.880855 
L 79.74823 -170.546427 
L 80.688418 -171.239373 
L 81.628607 -171.968302 
L 82.568796 -172.708618 
L 83.508984 -173.477278 
L 84.449173 -174.281268 
L 85.389361 -175.116822 
L 86.32955 -175.97025 
L 87.269738 -176.863336 
L 88.209927 -177.76731 
L 89.150116 -178.723586 
L 90.090304 -179.708446 
L 91.030493 -180.714213 
L 91.970681 -181.749589 
L 92.91087 -182.782291 
L 93.851059 -183.865037 
L 94.791247 -184.983661 
L 95.731436 -186.105815 
L 96.671624 -187.250573 
L 97.611813 -188.420863 
L 98.552001 -189.620924 
L 99.49219 -190.835019 
L 100.432379 -192.072593 
L 101.372567 -193.341105 
L 102.312756 -194.629416 
L 103.252944 -195.907203 
L 104.193133 -197.219254 
L 105.133321 -198.547578 
L 106.07351 -199.884074 
L 107.013699 -201.252457 
L 107.953887 -202.626019 
L 108.894076 -203.999511 
L 109.834264 -205.374996 
L 110.774453 -206.77643 
L 111.714642 -208.196059 
L 112.65483 -209.615915 
L 113.595019 -211.042815 
L 114.535207 -212.467294 
L 115.475396 -213.884412 
L 116.415584 -215.317273 
L 117.355773 -216.747769 
L 118.295962 -218.179336 
L 119.23615 -219.628651 
L 120.176339 -221.073244 
L 121.116527 -222.508464 
L 122.056716 -223.927606 
L 122.996904 -225.351565 
L 123.937093 -226.763956 
L 124.877282 -228.186449 
L 125.81747 -229.597588 
L 126.757659 -230.993744 
L 127.697847 -232.377838 
L 128.638036 -233.780984 
L 129.578225 -235.153907 
L 130.518413 -236.508772 
L 131.458602 -237.85064 
L 132.39879 -239.198476 
L 133.338979 -240.53785 
L 134.279167 -241.853563 
L 135.219356 -243.164007 
L 136.159545 -244.44369 
L 137.099733 -245.719131 
L 138.039922 -246.976068 
L 138.98011 -248.208157 
L 139.920299 -249.440453 
L 140.860487 -250.663025 
L 141.800676 -251.861869 
L 142.740865 -253.061 
L 143.681053 -254.261993 
L 144.621242 -255.433872 
L 145.56143 -256.581831 
L 146.501619 -257.708536 
L 147.441808 -258.821644 
L 148.381996 -259.93171 
L 149.322185 -261.017965 
L 150.262373 -262.101799 
L 151.202562 -263.177017 
L 152.14275 -264.242553 
L 153.082939 -265.339223 
L 154.023128 -266.408007 
L 154.963316 -267.452188 
L 155.903505 -268.496416 
L 156.843693 -269.524052 
L 157.783882 -270.557751 
L 158.72407 -271.577175 
L 159.664259 -272.584546 
L 160.604448 -273.604884 
L 161.544636 -274.608378 
L 162.484825 -275.628002 
L 163.425013 -276.628923 
L 164.365202 -277.612831 
L 165.30539 -278.626099 
L 166.245579 -279.610659 
L 167.185768 -280.623638 
L 168.125956 -281.65622 
L 169.066145 -282.679981 
L 170.006333 -283.690529 
L 170.946522 -284.708089 
L 171.886711 -285.723594 
L 172.826899 -286.754278 
L 173.767088 -287.771012 
L 174.707276 -288.815049 
L 175.647465 -289.855231 
L 176.587653 -290.905596 
L 177.527842 -291.963459 
L 178.468031 -293.0129 
L 179.408219 -294.075857 
L 180.348408 -295.137331 
L 181.288596 -296.207063 
L 182.228785 -297.278267 
L 183.168973 -298.347365 
L 184.109162 -299.438829 
L 185.049351 -300.530864 
L 185.989539 -301.625593 
L 186.929728 -302.730149 
L 187.869916 -303.827273 
L 188.810105 -304.940491 
L 189.750294 -306.023894 
L 190.690482 -307.119852 
L 191.630671 -308.230126 
L 192.570859 -309.339242 
L 193.511048 -310.424856 
L 194.451236 -311.527266 
L 195.391425 -312.631281 
L 196.331614 -313.742435 
L 197.271802 -314.858452 
L 198.211991 -315.97847 
L 199.152179 -317.074852 
L 200.092368 -318.15161 
L 201.032556 -319.222447 
L 201.972745 -320.297969 
L 202.912934 -321.380334 
L 203.853122 -322.46704 
L 204.793311 -323.529534 
L 205.733499 -324.565903 
L 206.673688 -325.617148 
L 207.613877 -326.667116 
L 208.554065 -327.69514 
L 209.494254 -328.717605 
L 210.434442 -329.704488 
L 211.374631 -330.730029 
L 212.314819 -331.746053 
L 213.255008 -332.759032 
L 214.195197 -333.726227 
L 215.135385 -334.655307 
L 216.075574 -335.584857 
L 217.015762 -336.507398 
L 217.955951 -337.413134 
L 218.896139 -338.316677 
L 219.836328 -339.19537 
L 220.776517 -340.076865 
L 221.716705 -340.935554 
L 222.656894 -341.756969 
L 223.597082 -342.598149 
L 224.537271 -343.402128 
L 225.47746 -344.18787 
L 226.417648 -344.950773 
L 227.357837 -345.6908 
L 228.298025 -346.43033 
L 229.238214 -347.13761 
L 230.178402 -347.849645 
L 231.118591 -348.549388 
L 232.05878 -349.194363 
L 232.998968 -349.832574 
L 233.939157 -350.462231 
L 234.879345 -351.039668 
L 235.819534 -351.598759 
L 236.759722 -352.153613 
L 237.699911 -352.683799 
L 238.6401 -353.191322 
L 239.580288 -353.685898 
L 240.520477 -354.174078 
L 241.460665 -354.626085 
L 242.400854 -355.04808 
L 243.341043 -355.449205 
L 244.281231 -355.843482 
L 245.22142 -356.230183 
L 246.161608 -356.566946 
L 247.101797 -356.882386 
L 248.041985 -357.19434 
L 248.982174 -357.47488 
L 249.922363 -357.732502 
L 250.862551 -357.978987 
L 251.80274 -358.193668 
L 252.742928 -358.397352 
L 253.683117 -358.589616 
L 254.623305 -358.745065 
L 255.563494 -358.907442 
L 256.503683 -359.038714 
L 257.443871 -359.154423 
L 258.38406 -359.287777 
L 259.324248 -359.359287 
L 260.264437 -359.421877 
L 261.204626 -359.47397 
L 262.144814 -359.501965 
L 263.085003 -359.525639 
L 264.025191 -359.534319 
L 264.96538 -359.517347 
L 265.905568 -359.490132 
L 266.845757 -359.461985 
L 267.785946 -359.406281 
L 268.726134 -359.340475 
L 269.666323 -359.264224 
L 270.606511 -359.193071 
L 271.5467 -359.077611 
L 272.486888 -358.968637 
L 273.427077 -358.863887 
L 274.367266 -358.722326 
L 275.307454 -358.567078 
L 276.247643 -358.431336 
L 277.187831 -358.276226 
L 278.12802 -358.127681 
L 279.068209 -358.010937 
L 280.008397 -357.885023 
L 280.948586 -357.697226 
L 281.888774 -357.539154 
L 282.828963 -357.388121 
L 283.769151 -357.220675 
L 284.70934 -357.078994 
L 285.649529 -356.954282 
L 286.589717 -356.808881 
L 287.529906 -356.655674 
L 288.470094 -356.521237 
L 289.410283 -356.395106 
L 290.350471 -356.274097 
L 291.29066 -356.147049 
L 292.230849 -356.027236 
L 293.171037 -355.941089 
L 294.111226 -355.862043 
L 295.051414 -355.803303 
L 295.991603 -355.748423 
L 296.931791 -355.705238 
L 297.87198 -355.666982 
L 298.812169 -355.640808 
L 299.752357 -355.606031 
L 300.692546 -355.581001 
L 301.632734 -355.542961 
L 302.572923 -355.559867 
L 303.513112 -355.599288 
L 304.4533 -355.638286 
L 305.393489 -355.708467 
L 306.333677 -355.764055 
L 307.273866 -355.838299 
L 308.214054 -355.962003 
L 309.154243 -356.080276 
L 310.094432 -356.229069 
L 311.03462 -356.354858 
L 311.974809 -356.519183 
L 312.914997 -356.690508 
L 313.855186 -356.873081 
L 314.795374 -357.064059 
L 315.735563 -357.244247 
L 316.675752 -357.410425 
L 317.61594 -357.561027 
L 318.556129 -357.770357 
L 319.496317 -357.941007 
L 320.436506 -358.134651 
L 321.376695 -358.326256 
L 322.316883 -358.520065 
L 323.257072 -358.680732 
L 324.19726 -358.863689 
L 325.137449 -359.029629 
L 326.077637 -359.173706 
L 327.017826 -359.301273 
L 327.958015 -359.42182 
L 328.898203 -359.526237 
L 329.838392 -359.638248 
L 330.77858 -359.730197 
L 331.718769 -359.785023 
L 332.658957 -359.818724 
L 333.599146 -359.822909 
L 334.539335 -359.812722 
L 335.479523 -359.770468 
L 336.419712 -359.720721 
L 337.3599 -359.653149 
L 338.300089 -359.548389 
L 339.240278 -359.396507 
L 340.180466 -359.23233 
L 341.120655 -359.027599 
L 342.060843 -358.781757 
L 343.001032 -358.513364 
L 343.94122 -358.212129 
L 344.881409 -357.888108 
L 345.821598 -357.526256 
L 346.761786 -357.133571 
L 347.701975 -356.717607 
L 348.642163 -356.255751 
L 349.582352 -355.786738 
L 350.52254 -355.312078 
L 351.462729 -354.773167 
L 352.402918 -354.195588 
L 353.343106 -353.604441 
L 354.283295 -352.991434 
L 355.223483 -352.347337 
L 356.163672 -351.661833 
L 357.103861 -350.960363 
L 358.044049 -350.224946 
L 358.984238 -349.508873 
L 359.924426 -348.716967 
L 360.864615 -347.911238 
L 361.804803 -347.078275 
L 362.744992 -346.264256 
L 363.685181 -345.446515 
L 364.625369 -344.594862 
L 365.565558 -343.713413 
L 366.505746 -342.862655 
L 367.445935 -341.969307 
L 368.386123 -341.048369 
L 369.326312 -340.151548 
L 370.266501 -339.250563 
L 371.206689 -338.348833 
L 372.146878 -337.420474 
L 373.087066 -336.512558 
L 374.027255 -335.595977 
L 374.967444 -334.673818 
L 375.907632 -333.750333 
L 376.847821 -332.817759 
L 377.788009 -331.890778 
L 378.728198 -330.958024 
L 379.668386 -330.028163 
L 380.608575 -329.125164 
L 381.548764 -328.231578 
L 382.488952 -327.322208 
L 383.429141 -326.459122 
L 384.369329 -325.577999 
L 385.309518 -324.700425 
L 386.249706 -323.824294 
L 387.189895 -322.943164 
L 388.130084 -322.065997 
L 389.070272 -321.185576 
L 390.010461 -320.332163 
L 390.950649 -319.472402 
L 391.890838 -318.598948 
L 392.831027 -317.717394 
L 393.771215 -316.841518 
L 394.711404 -315.992182 
L 395.651592 -315.118357 
L 396.591781 -314.236291 
L 397.531969 -313.344741 
L 398.472158 -312.449877 
L 399.412347 -311.529711 
L 400.352535 -310.636903 
L 401.292724 -309.707463 
L 402.232912 -308.770879 
L 403.173101 -307.839558 
L 404.113289 -306.875321 
L 405.053478 -305.901441 
L 405.993667 -304.921727 
L 406.933855 -303.895264 
L 407.874044 -302.880571 
L 408.814232 -301.825454 
L 409.754421 -300.743577 
L 410.69461 -299.673937 
L 411.634798 -298.562275 
L 412.574987 -297.454139 
L 413.515175 -296.310089 
L 414.455364 -295.143686 
L 415.395552 -293.94636 
L 416.335741 -292.735967 
L 417.27593 -291.511889 
L 418.216118 -290.263391 
L 419.156307 -288.988621 
L 420.096495 -287.703838 
L 421.036684 -286.411466 
L 421.976872 -285.064654 
L 422.917061 -283.734214 
L 423.85725 -282.391996 
L 424.797438 -281.005607 
L 425.737627 -279.606211 
L 426.677815 -278.188068 
L 427.618004 -276.735509 
L 428.558192 -275.285678 
L 429.498381 -273.884541 
L 430.43857 -272.445432 
L 431.378758 -270.995805 
L 432.318947 -269.562172 
L 433.259135 -268.114502 
L 434.199324 -266.648351 
L 435.139513 -265.214056 
L 436.079701 -263.786371 
L 437.01989 -262.350184 
L 437.960078 -260.905119 
L 438.900267 -259.494354 
L 439.840455 -258.086261 
L 440.780644 -256.693523 
L 441.720833 -255.301482 
L 442.661021 -253.941473 
L 443.60121 -252.60071 
L 444.541398 -251.270105 
L 445.481587 -249.953144 
L 446.421775 -248.65689 
L 447.361964 -247.396692 
L 448.302153 -246.148154 
L 449.242341 -244.925187 
L 450.18253 -243.736805 
L 451.122718 -242.539012 
L 452.062907 -241.356412 
L 453.003096 -240.219563 
L 453.943284 -239.087222 
L 454.883473 -237.993992 
L 455.823661 -236.920655 
L 456.76385 -235.850945 
L 457.704038 -234.800187 
L 458.644227 -233.75363 
L 459.584416 -232.755458 
L 460.524604 -231.781016 
L 461.464793 -230.829213 
L 462.404981 -229.856664 
L 463.34517 -228.933919 
L 464.285358 -228.009932 
L 465.225547 -227.110467 
L 466.165736 -226.240696 
L 467.105924 -225.372957 
L 468.046113 -224.527442 
L 468.986301 -223.677578 
L 469.92649 -222.841947 
L 470.866679 -222.011679 
L 471.806867 -221.189104 
L 472.747056 -220.370407 
L 473.687244 -219.571585 
L 474.627433 -218.774068 
L 475.567621 -217.990774 
L 476.50781 -217.197142 
L 477.447999 -216.420668 
L 478.388187 -215.627432 
L 479.328376 -214.835935 
L 480.268564 -214.068264 
L 481.208753 -213.303049 
L 482.148941 -212.535963 
L 483.08913 -211.754342 
L 484.029319 -210.976211 
L 484.969507 -210.192396 
L 485.909696 -209.400755 
L 486.849884 -208.632134 
L 487.790073 -207.874153 
L 488.730262 -207.091515 
L 489.67045 -206.330779 
L 490.610639 -205.560015 
L 491.550827 -204.794544 
L 492.491016 -204.036133 
L 493.431204 -203.274553 
L 494.371393 -202.534777 
L 495.311582 -201.785692 
L 496.25177 -201.049553 
L 497.191959 -200.318373 
L 498.132147 -199.600921 
L 499.072336 -198.854334 
L 500.012524 -198.156173 
L 500.952713 -197.453535 
L 501.892902 -196.753025 
L 502.83309 -196.087357 
L 503.773279 -195.41999 
L 504.713467 -194.773876 
L 505.653656 -194.135084 
L 506.593845 -193.543099 
L 507.534033 -192.937189 
L 508.474222 -192.363885 
L 509.41441 -191.805168 
L 510.354599 -191.264533 
L 511.294787 -190.725174 
L 512.234976 -190.230567 
L 513.175165 -189.739482 
L 514.115353 -189.280878 
L 515.055542 -188.831622 
L 515.99573 -188.43882 
L 516.935919 -188.070266 
L 517.876107 -187.684229 
L 518.816296 -187.328402 
L 519.756485 -187.020976 
L 520.696673 -186.731057 
L 521.636862 -186.480194 
L 522.57705 -186.253924 
L 523.517239 -186.076214 
L 524.457428 -185.923684 
L 525.397616 -185.793981 
L 526.337805 -185.693633 
L 527.277993 -185.617205 
L 528.218182 -185.575632 
L 528.218182 -64.2147 
L 528.218182 -64.2147 
L 527.277993 -64.2147 
L 526.337805 -64.2147 
L 525.397616 -64.2147 
L 524.457428 -64.2147 
L 523.517239 -64.2147 
L 522.57705 -64.2147 
L 521.636862 -64.2147 
L 520.696673 -64.2147 
L 519.756485 -64.2147 
L 518.816296 -64.2147 
L 517.876107 -64.2147 
L 516.935919 -64.2147 
L 515.99573 -64.2147 
L 515.055542 -64.2147 
L 514.115353 -64.2147 
L 513.175165 -64.2147 
L 512.234976 -64.2147 
L 511.294787 -64.2147 
L 510.354599 -64.2147 
L 509.41441 -64.2147 
L 508.474222 -64.2147 
L 507.534033 -64.2147 
L 506.593845 -64.2147 
L 505.653656 -64.2147 
L 504.713467 -64.2147 
L 503.773279 -64.2147 
L 502.83309 -64.2147 
L 501.892902 -64.2147 
L 500.952713 -64.2147 
L 500.012524 -64.2147 
L 499.072336 -64.2147 
L 498.132147 -64.2147 
L 497.191959 -64.2147 
L 496.25177 -64.2147 
L 495.311582 -64.2147 
L 494.371393 -64.2147 
L 493.431204 -64.2147 
L 492.491016 -64.2147 
L 491.550827 -64.2147 
L 490.610639 -64.2147 
L 489.67045 -64.2147 
L 488.730262 -64.2147 
L 487.790073 -64.2147 
L 486.849884 -64.2147 
L 485.909696 -64.2147 
L 484.969507 -64.2147 
L 484.029319 -64.2147 
L 483.08913 -64.2147 
L 482.148941 -64.2147 
L 481.208753 -64.2147 
L 480.268564 -64.2147 
L 479.328376 -64.2147 
L 478.388187 -64.2147 
L 477.447999 -64.2147 
L 476.50781 -64.2147 
L 475.567621 -64.2147 
L 474.627433 -64.2147 
L 473.687244 -64.2147 
L 472.747056 -64.2147 
L 471.806867 -64.2147 
L 470.866679 -64.2147 
L 469.92649 -64.2147 
L 468.986301 -64.2147 
L 468.046113 -64.2147 
L 467.105924 -64.2147 
L 466.165736 -64.2147 
L 465.225547 -64.2147 
L 464.285358 -64.2147 
L 463.34517 -64.2147 
L 462.404981 -64.2147 
L 461.464793 -64.2147 
L 460.524604 -64.2147 
L 459.584416 -64.2147 
L 458.644227 -64.2147 
L 457.704038 -64.2147 
L 456.76385 -64.2147 
L 455.823661 -64.2147 
L 454.883473 -64.2147 
L 453.943284 -64.2147 
L 453.003096 -64.2147 
L 452.062907 -64.2147 
L 451.122718 -64.2147 
L 450.18253 -64.2147 
L 449.242341 -64.2147 
L 448.302153 -64.2147 
L 447.361964 -64.2147 
L 446.421775 -64.2147 
L 445.481587 -64.2147 
L 444.541398 -64.2147 
L 443.60121 -64.2147 
L 442.661021 -64.2147 
L 441.720833 -64.2147 
L 440.780644 -64.2147 
L 439.840455 -64.2147 
L 438.900267 -64.2147 
L 437.960078 -64.2147 
L 437.01989 -64.2147 
L 436.079701 -64.2147 
L 435.139513 -64.2147 
L 434.199324 -64.2147 
L 433.259135 -64.2147 
L 432.318947 -64.2147 
L 431.378758 -64.2147 
L 430.43857 -64.2147 
L 429.498381 -64.2147 
L 428.558192 -64.2147 
L 427.618004 -64.2147 
L 426.677815 -64.2147 
L 425.737627 -64.2147 
L 424.797438 -64.2147 
L 423.85725 -64.2147 
L 422.917061 -64.2147 
L 421.976872 -64.2147 
L 421.036684 -64.2147 
L 420.096495 -64.2147 
L 419.156307 -64.2147 
L 418.216118 -64.2147 
L 417.27593 -64.2147 
L 416.335741 -64.2147 
L 415.395552 -64.2147 
L 414.455364 -64.2147 
L 413.515175 -64.2147 
L 412.574987 -64.2147 
L 411.634798 -64.2147 
L 410.69461 -64.2147 
L 409.754421 -64.2147 
L 408.814232 -64.2147 
L 407.874044 -64.2147 
L 406.933855 -64.2147 
L 405.993667 -64.2147 
L 405.053478 -64.2147 
L 404.113289 -64.2147 
L 403.173101 -64.2147 
L 402.232912 -64.2147 
L 401.292724 -64.2147 
L 400.352535 -64.2147 
L 399.412347 -64.2147 
L 398.472158 -64.2147 
L 397.531969 -64.2147 
L 396.591781 -64.2147 
L 395.651592 -64.2147 
L 394.711404 -64.2147 
L 393.771215 -64.2147 
L 392.831027 -64.2147 
L 391.890838 -64.2147 
L 390.950649 -64.2147 
L 390.010461 -64.2147 
L 389.070272 -64.2147 
L 388.130084 -64.2147 
L 387.189895 -64.2147 
L 386.249706 -64.2147 
L 385.309518 -64.2147 
L 384.369329 -64.2147 
L 383.429141 -64.2147 
L 382.488952 -64.2147 
L 381.548764 -64.2147 
L 380.608575 -64.2147 
L 379.668386 -64.2147 
L 378.728198 -64.2147 
L 377.788009 -64.2147 
L 376.847821 -64.2147 
L 375.907632 -64.2147 
L 374.967444 -64.2147 
L 374.027255 -64.2147 
L 373.087066 -64.2147 
L 372.146878 -64.2147 
L 371.206689 -64.2147 
L 370.266501 -64.2147 
L 369.326312 -64.2147 
L 368.386123 -64.2147 
L 367.445935 -64.2147 
L 366.505746 -64.2147 
L 365.565558 -64.2147 
L 364.625369 -64.2147 
L 363.685181 -64.2147 
L 362.744992 -64.2147 
L 361.804803 -64.2147 
L 360.864615 -64.2147 
L 359.924426 -64.2147 
L 358.984238 -64.2147 
L 358.044049 -64.2147 
L 357.103861 -64.2147 
L 356.163672 -64.2147 
L 355.223483 -64.2147 
L 354.283295 -64.2147 
L 353.343106 -64.2147 
L 352.402918 -64.2147 
L 351.462729 -64.2147 
L 350.52254 -64.2147 
L 349.582352 -64.2147 
L 348.642163 -64.2147 
L 347.701975 -64.2147 
L 346.761786 -64.2147 
L 345.821598 -64.2147 
L 344.881409 -64.2147 
L 343.94122 -64.2147 
L 343.001032 -64.2147 
L 342.060843 -64.2147 
L 341.120655 -64.2147 
L 340.180466 -64.2147 
L 339.240278 -64.2147 
L 338.300089 -64.2147 
L 337.3599 -64.2147 
L 336.419712 -64.2147 
L 335.479523 -64.2147 
L 334.539335 -64.2147 
L 333.599146 -64.2147 
L 332.658957 -64.2147 
L 331.718769 -64.2147 
L 330.77858 -64.2147 
L 329.838392 -64.2147 
L 328.898203 -64.2147 
L 327.958015 -64.2147 
L 327.017826 -64.2147 
L 326.077637 -64.2147 
L 325.137449 -64.2147 
L 324.19726 -64.2147 
L 323.257072 -64.2147 
L 322.316883 -64.2147 
L 321.376695 -64.2147 
L 320.436506 -64.2147 
L 319.496317 -64.2147 
L 318.556129 -64.2147 
L 317.61594 -64.2147 
L 316.675752 -64.2147 
L 315.735563 -64.2147 
L 314.795374 -64.2147 
L 313.855186 -64.2147 
L 312.914997 -64.2147 
L 311.974809 -64.2147 
L 311.03462 -64.2147 
L 310.094432 -64.2147 
L 309.154243 -64.2147 
L 308.214054 -64.2147 
L 307.273866 -64.2147 
L 306.333677 -64.2147 
L 305.393489 -64.2147 
L 304.4533 -64.2147 
L 303.513112 -64.2147 
L 302.572923 -64.2147 
L 301.632734 -64.2147 
L 300.692546 -64.2147 
L 299.752357 -64.2147 
L 298.812169 -64.2147 
L 297.87198 -64.2147 
L 296.931791 -64.2147 
L 295.991603 -64.2147 
L 295.051414 -64.2147 
L 294.111226 -64.2147 
L 293.171037 -64.2147 
L 292.230849 -64.2147 
L 291.29066 -64.2147 
L 290.350471 -64.2147 
L 289.410283 -64.2147 
L 288.470094 -64.2147 
L 287.529906 -64.2147 
L 286.589717 -64.2147 
L 285.649529 -64.2147 
L 284.70934 -64.2147 
L 283.769151 -64.2147 
L 282.828963 -64.2147 
L 281.888774 -64.2147 
L 280.948586 -64.2147 
L 280.008397 -64.2147 
L 279.068209 -64.2147 
L 278.12802 -64.2147 
L 277.187831 -64.2147 
L 276.247643 -64.2147 
L 275.307454 -64.2147 
L 274.367266 -64.2147 
L 273.427077 -64.2147 
L 272.486888 -64.2147 
L 271.5467 -64.2147 
L 270.606511 -64.2147 
L 269.666323 -64.2147 
L 268.726134 -64.2147 
L 267.785946 -64.2147 
L 266.845757 -64.2147 
L 265.905568 -64.2147 
L 264.96538 -64.2147 
L 264.025191 -64.2147 
L 263.085003 -64.2147 
L 262.144814 -64.2147 
L 261.204626 -64.2147 
L 260.264437 -64.2147 
L 259.324248 -64.2147 
L 258.38406 -64.2147 
L 257.443871 -64.2147 
L 256.503683 -64.2147 
L 255.563494 -64.2147 
L 254.623305 -64.2147 
L 253.683117 -64.2147 
L 252.742928 -64.2147 
L 251.80274 -64.2147 
L 250.862551 -64.2147 
L 249.922363 -64.2147 
L 248.982174 -64.2147 
L 248.041985 -64.2147 
L 247.101797 -64.2147 
L 246.161608 -64.2147 
L 245.22142 -64.2147 
L 244.281231 -64.2147 
L 243.341043 -64.2147 
L 242.400854 -64.2147 
L 241.460665 -64.2147 
L 240.520477 -64.2147 
L 239.580288 -64.2147 
L 238.6401 -64.2147 
L 237.699911 -64.2147 
L 236.759722 -64.2147 
L 235.819534 -64.2147 
L 234.879345 -64.2147 
L 233.939157 -64.2147 
L 232.998968 -64.2147 
L 232.05878 -64.2147 
L 231.118591 -64.2147 
L 230.178402 -64.2147 
L 229.238214 -64.2147 
L 228.298025 -64.2147 
L 227.357837 -64.2147 
L 226.417648 -64.2147 
L 225.47746 -64.2147 
L 224.537271 -64.2147 
L 223.597082 -64.2147 
L 222.656894 -64.2147 
L 221.716705 -64.2147 
L 220.776517 -64.2147 
L 219.836328 -64.2147 
L 218.896139 -64.2147 
L 217.955951 -64.2147 
L 217.015762 -64.2147 
L 216.075574 -64.2147 
L 215.135385 -64.2147 
L 214.195197 -64.2147 
L 213.255008 -64.2147 
L 212.314819 -64.2147 
L 211.374631 -64.2147 
L 210.434442 -64.2147 
L 209.494254 -64.2147 
L 208.554065 -64.2147 
L 207.613877 -64.2147 
L 206.673688 -64.2147 
L 205.733499 -64.2147 
L 204.793311 -64.2147 
L 203.853122 -64.2147 
L 202.912934 -64.2147 
L 201.972745 -64.2147 
L 201.032556 -64.2147 
L 200.092368 -64.2147 
L 199.152179 -64.2147 
L 198.211991 -64.2147 
L 197.271802 -64.2147 
L 196.331614 -64.2147 
L 195.391425 -64.2147 
L 194.451236 -64.2147 
L 193.511048 -64.2147 
L 192.570859 -64.2147 
L 191.630671 -64.2147 
L 190.690482 -64.2147 
L 189.750294 -64.2147 
L 188.810105 -64.2147 
L 187.869916 -64.2147 
L 186.929728 -64.2147 
L 185.989539 -64.2147 
L 185.049351 -64.2147 
L 184.109162 -64.2147 
L 183.168973 -64.2147 
L 182.228785 -64.2147 
L 181.288596 -64.2147 
L 180.348408 -64.2147 
L 179.408219 -64.2147 
L 178.468031 -64.2147 
L 177.527842 -64.2147 
L 176.587653 -64.2147 
L 175.647465 -64.2147 
L 174.707276 -64.2147 
L 173.767088 -64.2147 
L 172.826899 -64.2147 
L 171.886711 -64.2147 
L 170.946522 -64.2147 
L 170.006333 -64.2147 
L 169.066145 -64.2147 
L 168.125956 -64.2147 
L 167.185768 -64.2147 
L 166.245579 -64.2147 
L 165.30539 -64.2147 
L 164.365202 -64.2147 
L 163.425013 -64.2147 
L 162.484825 -64.2147 
L 161.544636 -64.2147 
L 160.604448 -64.2147 
L 159.664259 -64.2147 
L 158.72407 -64.2147 
L 157.783882 -64.2147 
L 156.843693 -64.2147 
L 155.903505 -64.2147 
L 154.963316 -64.2147 
L 154.023128 -64.2147 
L 153.082939 -64.2147 
L 152.14275 -64.2147 
L 151.202562 -64.2147 
L 150.262373 -64.2147 
L 149.322185 -64.2147 
L 148.381996 -64.2147 
L 147.441808 -64.2147 
L 146.501619 -64.2147 
L 145.56143 -64.2147 
L 144.621242 -64.2147 
L 143.681053 -64.2147 
L 142.740865 -64.2147 
L 141.800676 -64.2147 
L 140.860487 -64.2147 
L 139.920299 -64.2147 
L 138.98011 -64.2147 
L 138.039922 -64.2147 
L 137.099733 -64.2147 
L 136.159545 -64.2147 
L 135.219356 -64.2147 
L 134.279167 -64.2147 
L 133.338979 -64.2147 
L 132.39879 -64.2147 
L 131.458602 -64.2147 
L 130.518413 -64.2147 
L 129.578225 -64.2147 
L 128.638036 -64.2147 
L 127.697847 -64.2147 
L 126.757659 -64.2147 
L 125.81747 -64.2147 
L 124.877282 -64.2147 
L 123.937093 -64.2147 
L 122.996904 -64.2147 
L 122.056716 -64.2147 
L 121.116527 -64.2147 
L 120.176339 -64.2147 
L 119.23615 -64.2147 
L 118.295962 -64.2147 
L 117.355773 -64.2147 
L 116.415584 -64.2147 
L 115.475396 -64.2147 
L 114.535207 -64.2147 
L 113.595019 -64.2147 
L 112.65483 -64.2147 
L 111.714642 -64.2147 
L 110.774453 -64.2147 
L 109.834264 -64.2147 
L 108.894076 -64.2147 
L 107.953887 -64.2147 
L 107.013699 -64.2147 
L 106.07351 -64.2147 
L 105.133321 -64.2147 
L 104.193133 -64.2147 
L 103.252944 -64.2147 
L 102.312756 -64.2147 
L 101.372567 -64.2147 
L 100.432379 -64.2147 
L 99.49219 -64.2147 
L 98.552001 -64.2147 
L 97.611813 -64.2147 
L 96.671624 -64.2147 
L 95.731436 -64.2147 
L 94.791247 -64.2147 
L 93.851059 -64.2147 
L 92.91087 -64.2147 
L 91.970681 -64.2147 
L 91.030493 -64.2147 
L 90.090304 -64.2147 
L 89.150116 -64.2147 
L 88.209927 -64.2147 
L 87.269738 -64.2147 
L 86.32955 -64.2147 
L 85.389361 -64.2147 
L 84.449173 -64.2147 
L 83.508984 -64.2147 
L 82.568796 -64.2147 
L 81.628607 -64.2147 
L 80.688418 -64.2147 
L 79.74823 -64.2147 
L 78.808041 -64.2147 
L 77.867853 -64.2147 
L 76.927664 -64.2147 
L 75.987476 -64.2147 
L 75.047287 -64.2147 
L 74.107098 -64.2147 
L 73.16691 -64.2147 
L 72.226721 -64.2147 
L 71.286533 -64.2147 
L 70.346344 -64.2147 
L 69.406155 -64.2147 
L 68.465967 -64.2147 
L 67.525778 -64.2147 
L 66.58559 -64.2147 
L 65.645401 -64.2147 
L 64.705213 -64.2147 
L 63.765024 -64.2147 
L 62.824835 -64.2147 
L 61.884647 -64.2147 
L 60.944458 -64.2147 
L 60.00427 -64.2147 
L 59.064081 -64.2147 
L 58.123893 -64.2147 
L 57.183704 -64.2147 
L 56.243515 -64.2147 
L 55.303327 -64.2147 
L 54.363138 -64.2147 
L 53.42295 -64.2147 
L 52.482761 -64.2147 
L 51.542572 -64.2147 
L 50.602384 -64.2147 
L 49.662195 -64.2147 
L 48.722007 -64.2147 
L 47.781818 -64.2147 
z
" style="stroke: #6cb7ff; stroke-opacity: 0.6; stroke-width: 0.3"/>
    </defs>
    <g clip-path="url(#pcd4f2f9775)">
     <use xlink:href="#m108e47ae01" x="0" y="432" style="fill: #6cb7ff; fill-opacity: 0.6; stroke: #6cb7ff; stroke-opacity: 0.6; stroke-width: 0.3"/>
    </g>
   </g>
   <g id="line2d_11">
    <path d="M 47.781818 271.159893 
L 51.542572 271.103426 
L 57.183704 270.500763 
L 60.00427 270.006475 
L 63.765024 269.145405 
L 66.58559 268.310353 
L 70.346344 266.837647 
L 74.107098 265.003596 
L 77.867853 262.750158 
L 80.688418 260.760627 
L 84.449173 257.718732 
L 88.209927 254.23269 
L 91.970681 250.250411 
L 94.791247 247.016339 
L 98.552001 242.379076 
L 102.312756 237.370584 
L 106.07351 232.115926 
L 112.65483 222.384085 
L 129.578225 196.846093 
L 136.159545 187.55631 
L 140.860487 181.336975 
L 146.501619 174.291464 
L 153.082939 166.660777 
L 157.783882 161.442249 
L 181.288596 135.792937 
L 188.810105 127.059509 
L 197.271802 117.141548 
L 201.972745 111.702031 
L 207.613877 105.332884 
L 214.195197 98.273773 
L 220.776517 91.923135 
L 224.537271 88.597872 
L 228.298025 85.56967 
L 232.998968 82.167426 
L 235.819534 80.401241 
L 238.6401 78.808678 
L 242.400854 76.95192 
L 246.161608 75.433054 
L 249.922363 74.267498 
L 252.742928 73.602648 
L 255.563494 73.092558 
L 259.324248 72.640713 
L 263.085003 72.474361 
L 266.845757 72.538015 
L 271.5467 72.922389 
L 276.247643 73.568664 
L 288.470094 75.478763 
L 294.111226 76.137957 
L 299.752357 76.393969 
L 303.513112 76.400712 
L 307.273866 76.161701 
L 312.914997 75.309492 
L 326.077637 72.826294 
L 330.77858 72.269803 
L 333.599146 72.177091 
L 336.419712 72.279279 
L 338.300089 72.451611 
L 341.120655 72.972401 
L 343.94122 73.787871 
L 346.761786 74.866429 
L 349.582352 76.213262 
L 351.462729 77.226833 
L 355.223483 79.652663 
L 358.984238 82.491127 
L 363.685181 86.553485 
L 368.386123 90.951631 
L 375.907632 98.249667 
L 382.488952 104.677792 
L 396.591781 117.763709 
L 402.232912 123.229121 
L 405.993667 127.078273 
L 410.69461 132.326063 
L 415.395552 138.05364 
L 419.156307 143.011379 
L 423.85725 149.608004 
L 429.498381 158.115459 
L 441.720833 176.698518 
L 446.421775 183.34311 
L 451.122718 189.460988 
L 453.943284 192.912778 
L 458.644227 198.24637 
L 462.404981 202.143336 
L 467.105924 206.627043 
L 473.687244 212.428415 
L 482.148941 219.464037 
L 493.431204 228.725447 
L 501.892902 235.246975 
L 506.593845 238.456901 
L 509.41441 240.194832 
L 513.175165 242.260518 
L 515.99573 243.56118 
L 519.756485 244.979024 
L 522.57705 245.746076 
L 525.397616 246.206019 
L 528.218182 246.424368 
L 528.218182 246.424368 
" clip-path="url(#pcd4f2f9775)" style="fill: none; stroke: #7570b3; stroke-width: 2; stroke-linecap: round"/>
   </g>
   <g id="line2d_12">
    <path d="M 47.781818 368.751554 
L 47.781818 271.159893 
" clip-path="url(#pcd4f2f9775)" style="fill: none; stroke: #7570b3; stroke-width: 2; stroke-linecap: round"/>
   </g>
   <g id="line2d_13">
    <path d="M 528.218182 368.998909 
L 528.218182 246.424368 
" clip-path="url(#pcd4f2f9775)" style="fill: none; stroke: #7570b3; stroke-width: 2; stroke-linecap: round"/>
   </g>
   <g id="line2d_14">
    <defs>
     <path id="mcb3f101b2f" d="M 0 3.5 
C 0.928211 3.5 1.81853 3.131218 2.474874 2.474874 
C 3.131218 1.81853 3.5 0.928211 3.5 0 
C 3.5 -0.928211 3.131218 -1.81853 2.474874 -2.474874 
C 1.81853 -3.131218 0.928211 -3.5 0 -3.5 
C -0.928211 -3.5 -1.81853 -3.131218 -2.474874 -2.474874 
C -3.131218 -1.81853 -3.5 -0.928211 -3.5 0 
C -3.5 0.928211 -3.131218 1.81853 -2.474874 2.474874 
C -1.81853 3.131218 -0.928211 3.5 0 3.5 
z
"/>
    </defs>
    <g clip-path="url(#pcd4f2f9775)">
     <use xlink:href="#mcb3f101b2f" x="292.735481" y="367.7853" style="fill: #7570b3"/>
    </g>
   </g>
   <g id="patch_3">
    <path d="M 23.76 383.84 
L 552.24 383.84 
" style="fill: none; stroke: #333333; stroke-width: 1.5; stroke-linejoin: miter; stroke-linecap: square"/>
   </g>
   <g id="text_6">
    <!-- $x_1^3x_3$ -->
    <g style="fill: #262626" transform="translate(257.48 49.496)">
     <text>
      <tspan x="0" y="-0.734375" style="font-style: oblique; font-size: 28px; font-family: 'DejaVu Sans'; fill: #262626">x</tspan>
      <tspan x="31.056576" y="-0.734375" style="font-style: oblique; font-size: 28px; font-family: 'DejaVu Sans'; fill: #262626">x</tspan>
      <tspan x="16.570312" y="6.921875" style="font-size: 19.6px; font-family: 'DejaVu Sans'; fill: #262626">1</tspan>
      <tspan x="17.820833" y="-11.453125" style="font-size: 19.6px; font-family: 'DejaVu Sans'; fill: #262626">3</tspan>
      <tspan x="47.626888" y="3.859375" style="font-size: 19.6px; font-family: 'DejaVu Sans'; fill: #262626">3</tspan>
     </text>
    </g>
   </g>
  </g>
 </g>
 <defs>
  <clipPath id="pcd4f2f9775">
   <rect x="23.76" y="57.336" width="528.48" height="326.504"/>
  </clipPath>
 </defs>
</svg>
