<?xml version="1.0" encoding="utf-8" standalone="no"?>
<!DOCTYPE svg PUBLIC "-//W3C//DTD SVG 1.1//EN"
  "http://www.w3.org/Graphics/SVG/1.1/DTD/svg11.dtd">
<svg xmlns:xlink="http://www.w3.org/1999/xlink" width="576pt" height="432pt" viewBox="0 0 576 432" xmlns="http://www.w3.org/2000/svg" version="1.1">
 <metadata>
  <rdf:RDF xmlns:dc="http://purl.org/dc/elements/1.1/" xmlns:cc="http://creativecommons.org/ns#" xmlns:rdf="http://www.w3.org/1999/02/22-rdf-syntax-ns#">
   <cc:Work>
    <dc:type rdf:resource="http://purl.org/dc/dcmitype/StillImage"/>
    <dc:date>2025-09-22T23:00:34.816162</dc:date>
    <dc:format>image/svg+xml</dc:format>
    <dc:creator>
     <cc:Agent>
      <dc:title>Matplotlib v3.10.0, https://matplotlib.org/</dc:title>
     </cc:Agent>
    </dc:creator>
   </cc:Work>
  </rdf:RDF>
 </metadata>
 <defs>
  <style type="text/css">*{stroke-linejoin: round; stroke-linecap: butt}</style>
 </defs>
 <g id="figure_1">
  <g id="patch_1">
   <path d="M 0 432 
L 576 432 
L 576 0 
L 0 0 
L 0 432 
z
" style="fill: none; opacity: 0"/>
  </g>
  <g id="axes_1">
   <g id="patch_2">
    <path d="M 32.727646 383.84 
L 552.24 383.84 
L 552.24 57.648 
L 32.727646 57.648 
L 32.727646 383.84 
z
" style="fill: none"/>
   </g>
   <g id="matplotlib.axis_1">
    <g id="xtick_1">
     <g id="line2d_1">
      <path d="M 61.036477 383.84 
L 61.036477 57.648 
" clip-path="url(#p3990bb1d28)" style="fill: none; stroke: #ffffff; stroke-opacity: 0.4; stroke-linecap: round"/>
     </g>
     <g id="line2d_2"/>
     <g id="text_1">
      <text style="font-size: 18px; font-family: 'DejaVu Serif', 'Times New Roman', serif; text-anchor: middle; fill: #262626" x="61.036477" y="404.517187" transform="rotate(-0 61.036477 404.517187)">−0.020</text>
     </g>
    </g>
    <g id="xtick_2">
     <g id="line2d_3">
      <path d="M 137.460863 383.84 
L 137.460863 57.648 
" clip-path="url(#p3990bb1d28)" style="fill: none; stroke: #ffffff; stroke-opacity: 0.4; stroke-linecap: round"/>
     </g>
     <g id="line2d_4"/>
     <g id="text_2">
      <text style="font-size: 18px; font-family: 'DejaVu Serif', 'Times New Roman', serif; text-anchor: middle; fill: #262626" x="137.460863" y="404.517187" transform="rotate(-0 137.460863 404.517187)">−0.015</text>
     </g>
    </g>
    <g id="xtick_3">
     <g id="line2d_5">
      <path d="M 213.88525 383.84 
L 213.88525 57.648 
" clip-path="url(#p3990bb1d28)" style="fill: none; stroke: #ffffff; stroke-opacity: 0.4; stroke-linecap: round"/>
     </g>
     <g id="line2d_6"/>
     <g id="text_3">
      <text style="font-size: 18px; font-family: 'DejaVu Serif', 'Times New Roman', serif; text-anchor: middle; fill: #262626" x="213.88525" y="404.517187" transform="rotate(-0 213.88525 404.517187)">−0.010</text>
     </g>
    </g>
    <g id="xtick_4">
     <g id="line2d_7">
      <path d="M 290.309636 383.84 
L 290.309636 57.648 
" clip-path="url(#p3990bb1d28)" style="fill: none; stroke: #ffffff; stroke-opacity: 0.4; stroke-linecap: round"/>
     </g>
     <g id="line2d_8"/>
     <g id="text_4">
      <text style="font-size: 18px; font-family: 'DejaVu Serif', 'Times New Roman', serif; text-anchor: middle; fill: #262626" x="290.309636" y="404.517187" transform="rotate(-0 290.309636 404.517187)">−0.005</text>
     </g>
    </g>
    <g id="xtick_5">
     <g id="line2d_9">
      <path d="M 366.734022 383.84 
L 366.734022 57.648 
" clip-path="url(#p3990bb1d28)" style="fill: none; stroke: #ffffff; stroke-opacity: 0.4; stroke-linecap: round"/>
     </g>
     <g id="line2d_10"/>
     <g id="text_5">
      <text style="font-size: 18px; font-family: 'DejaVu Serif', 'Times New Roman', serif; text-anchor: middle; fill: #262626" x="366.734022" y="404.517187" transform="rotate(-0 366.734022 404.517187)">0.000</text>
     </g>
    </g>
    <g id="xtick_6">
     <g id="line2d_11">
      <path d="M 443.158409 383.84 
L 443.158409 57.648 
" clip-path="url(#p3990bb1d28)" style="fill: none; stroke: #ffffff; stroke-opacity: 0.4; stroke-linecap: round"/>
     </g>
     <g id="line2d_12"/>
     <g id="text_6">
      <text style="font-size: 18px; font-family: 'DejaVu Serif', 'Times New Roman', serif; text-anchor: middle; fill: #262626" x="443.158409" y="404.517187" transform="rotate(-0 443.158409 404.517187)">0.005</text>
     </g>
    </g>
    <g id="xtick_7">
     <g id="line2d_13">
      <path d="M 519.582795 383.84 
L 519.582795 57.648 
" clip-path="url(#p3990bb1d28)" style="fill: none; stroke: #ffffff; stroke-opacity: 0.4; stroke-linecap: round"/>
     </g>
     <g id="line2d_14"/>
     <g id="text_7">
      <text style="font-size: 18px; font-family: 'DejaVu Serif', 'Times New Roman', serif; text-anchor: middle; fill: #262626" x="519.582795" y="404.517187" transform="rotate(-0 519.582795 404.517187)">0.010</text>
     </g>
    </g>
   </g>
   <g id="matplotlib.axis_2"/>
   <g id="FillBetweenPolyCollection_1">
    <defs>
     <path id="m1053a65e92" d="M 56.341844 -64.202537 
L 56.341844 -146.301206 
L 57.266078 -146.322157 
L 58.190313 -146.351239 
L 59.114548 -146.374301 
L 60.038783 -146.415297 
L 60.963017 -146.478826 
L 61.887252 -146.547126 
L 62.811487 -146.622274 
L 63.735722 -146.718669 
L 64.659956 -146.819465 
L 65.584191 -146.927209 
L 66.508426 -147.058506 
L 67.432661 -147.207165 
L 68.356895 -147.357958 
L 69.28113 -147.536038 
L 70.205365 -147.739494 
L 71.1296 -147.930193 
L 72.053834 -148.130686 
L 72.978069 -148.362851 
L 73.902304 -148.610483 
L 74.826539 -148.866258 
L 75.750773 -149.133802 
L 76.675008 -149.416249 
L 77.599243 -149.729082 
L 78.523478 -150.052457 
L 79.447712 -150.389155 
L 80.371947 -150.768115 
L 81.296182 -151.130025 
L 82.220417 -151.499964 
L 83.144651 -151.906092 
L 84.068886 -152.333471 
L 84.993121 -152.800327 
L 85.917356 -153.272525 
L 86.84159 -153.770696 
L 87.765825 -154.281322 
L 88.69006 -154.822578 
L 89.614295 -155.369864 
L 90.538529 -155.933417 
L 91.462764 -156.531619 
L 92.386999 -157.11564 
L 93.311234 -157.748733 
L 94.235468 -158.397054 
L 95.159703 -159.069269 
L 96.083938 -159.779036 
L 97.008173 -160.498634 
L 97.932407 -161.252334 
L 98.856642 -161.993947 
L 99.780877 -162.766431 
L 100.705112 -163.553121 
L 101.629346 -164.378817 
L 102.553581 -165.205322 
L 103.477816 -166.030732 
L 104.402051 -166.884672 
L 105.326285 -167.752954 
L 106.25052 -168.636934 
L 107.174755 -169.525578 
L 108.09899 -170.451622 
L 109.023224 -171.376442 
L 109.947459 -172.31207 
L 110.871694 -173.262073 
L 111.795929 -174.248028 
L 112.720163 -175.219501 
L 113.644398 -176.197377 
L 114.568633 -177.198647 
L 115.492868 -178.197456 
L 116.417102 -179.203093 
L 117.341337 -180.194525 
L 118.265572 -181.202039 
L 119.189807 -182.204806 
L 120.114041 -183.22218 
L 121.038276 -184.232588 
L 121.962511 -185.238854 
L 122.886746 -186.247462 
L 123.81098 -187.261736 
L 124.735215 -188.266729 
L 125.65945 -189.264546 
L 126.583685 -190.265093 
L 127.50792 -191.236401 
L 128.432154 -192.220062 
L 129.356389 -193.20534 
L 130.280624 -194.180787 
L 131.204859 -195.16399 
L 132.129093 -196.116047 
L 133.053328 -197.074432 
L 133.977563 -198.033357 
L 134.901798 -198.967471 
L 135.826032 -199.921406 
L 136.750267 -200.880935 
L 137.674502 -201.819261 
L 138.598737 -202.741455 
L 139.522971 -203.675479 
L 140.447206 -204.58162 
L 141.371441 -205.486129 
L 142.295676 -206.398688 
L 143.21991 -207.300002 
L 144.144145 -208.194315 
L 145.06838 -209.064638 
L 145.992615 -209.956528 
L 146.916849 -210.843373 
L 147.841084 -211.725389 
L 148.765319 -212.614256 
L 149.689554 -213.480195 
L 150.613788 -214.356538 
L 151.538023 -215.246675 
L 152.462258 -216.131459 
L 153.386493 -217.040583 
L 154.310727 -217.943603 
L 155.234962 -218.858436 
L 156.159197 -219.775802 
L 157.083432 -220.717768 
L 158.007666 -221.640146 
L 158.931901 -222.562207 
L 159.856136 -223.516755 
L 160.780371 -224.467609 
L 161.704605 -225.43705 
L 162.62884 -226.380076 
L 163.553075 -227.347694 
L 164.47731 -228.340184 
L 165.401544 -229.344111 
L 166.325779 -230.381515 
L 167.250014 -231.41057 
L 168.174249 -232.436728 
L 169.098483 -233.494637 
L 170.022718 -234.5503 
L 170.946953 -235.635061 
L 171.871188 -236.733235 
L 172.795422 -237.84575 
L 173.719657 -238.93471 
L 174.643892 -240.079434 
L 175.568127 -241.233738 
L 176.492361 -242.397464 
L 177.416596 -243.574031 
L 178.340831 -244.752504 
L 179.265066 -245.945778 
L 180.1893 -247.142262 
L 181.113535 -248.370282 
L 182.03777 -249.602094 
L 182.962005 -250.818236 
L 183.886239 -252.051908 
L 184.810474 -253.303492 
L 185.734709 -254.569789 
L 186.658944 -255.843108 
L 187.583178 -257.104677 
L 188.507413 -258.395003 
L 189.431648 -259.651401 
L 190.355883 -260.916064 
L 191.280117 -262.204844 
L 192.204352 -263.479777 
L 193.128587 -264.760055 
L 194.052822 -266.041793 
L 194.977056 -267.328952 
L 195.901291 -268.607628 
L 196.825526 -269.868592 
L 197.749761 -271.108495 
L 198.673995 -272.363876 
L 199.59823 -273.592148 
L 200.522465 -274.824341 
L 201.4467 -276.025656 
L 202.370934 -277.22727 
L 203.295169 -278.428988 
L 204.219404 -279.597065 
L 205.143639 -280.753138 
L 206.067873 -281.920244 
L 206.992108 -283.043253 
L 207.916343 -284.155031 
L 208.840578 -285.268675 
L 209.764812 -286.341564 
L 210.689047 -287.39705 
L 211.613282 -288.43971 
L 212.537517 -289.459804 
L 213.461751 -290.429634 
L 214.385986 -291.412723 
L 215.310221 -292.376133 
L 216.234456 -293.314553 
L 217.15869 -294.225497 
L 218.082925 -295.114004 
L 219.00716 -295.986477 
L 219.931395 -296.831923 
L 220.85563 -297.644769 
L 221.779864 -298.457674 
L 222.704099 -299.246032 
L 223.628334 -300.000846 
L 224.552569 -300.766678 
L 225.476803 -301.479638 
L 226.401038 -302.177433 
L 227.325273 -302.879717 
L 228.249508 -303.551958 
L 229.173742 -304.200818 
L 230.097977 -304.828786 
L 231.022212 -305.439647 
L 231.946447 -306.012736 
L 232.870681 -306.607456 
L 233.794916 -307.176577 
L 234.719151 -307.699141 
L 235.643386 -308.236038 
L 236.56762 -308.744885 
L 237.491855 -309.267137 
L 238.41609 -309.764458 
L 239.340325 -310.251837 
L 240.264559 -310.741473 
L 241.188794 -311.199169 
L 242.113029 -311.671817 
L 243.037264 -312.138665 
L 243.961498 -312.577071 
L 244.885733 -313.005669 
L 245.809968 -313.458221 
L 246.734203 -313.906287 
L 247.658437 -314.342662 
L 248.582672 -314.757663 
L 249.506907 -315.170382 
L 250.431142 -315.570008 
L 251.355376 -315.955747 
L 252.279611 -316.364336 
L 253.203846 -316.768297 
L 254.128081 -317.198579 
L 255.052315 -317.585351 
L 255.97655 -318.006202 
L 256.900785 -318.439777 
L 257.82502 -318.849497 
L 258.749254 -319.253814 
L 259.673489 -319.676644 
L 260.597724 -320.14945 
L 261.521959 -320.597993 
L 262.446193 -321.053458 
L 263.370428 -321.52016 
L 264.294663 -321.981213 
L 265.218898 -322.449593 
L 266.143132 -322.937168 
L 267.067367 -323.417585 
L 267.991602 -323.921579 
L 268.915837 -324.4389 
L 269.840071 -324.93763 
L 270.764306 -325.486532 
L 271.688541 -326.018034 
L 272.612776 -326.581919 
L 273.53701 -327.15111 
L 274.461245 -327.707684 
L 275.38548 -328.298494 
L 276.309715 -328.896185 
L 277.233949 -329.476966 
L 278.158184 -330.115976 
L 279.082419 -330.723969 
L 280.006654 -331.329728 
L 280.930888 -331.971099 
L 281.855123 -332.617121 
L 282.779358 -333.252331 
L 283.703593 -333.907518 
L 284.627827 -334.591501 
L 285.552062 -335.258811 
L 286.476297 -335.918184 
L 287.400532 -336.599798 
L 288.324766 -337.310909 
L 289.249001 -337.984829 
L 290.173236 -338.705687 
L 291.097471 -339.404039 
L 292.021705 -340.095195 
L 292.94594 -340.798926 
L 293.870175 -341.49513 
L 294.79441 -342.172329 
L 295.718644 -342.840078 
L 296.642879 -343.473248 
L 297.567114 -344.12256 
L 298.491349 -344.76376 
L 299.415583 -345.407291 
L 300.339818 -346.025474 
L 301.264053 -346.658455 
L 302.188288 -347.263832 
L 303.112522 -347.837643 
L 304.036757 -348.40064 
L 304.960992 -348.941854 
L 305.885227 -349.50854 
L 306.809461 -350.040548 
L 307.733696 -350.55184 
L 308.657931 -351.042538 
L 309.582166 -351.503054 
L 310.5064 -351.952471 
L 311.430635 -352.431709 
L 312.35487 -352.855778 
L 313.279105 -353.257658 
L 314.20334 -353.666907 
L 315.127574 -354.016053 
L 316.051809 -354.37392 
L 316.976044 -354.715984 
L 317.900279 -355.024722 
L 318.824513 -355.328994 
L 319.748748 -355.604359 
L 320.672983 -355.889908 
L 321.597218 -356.1517 
L 322.521452 -356.421296 
L 323.445687 -356.657165 
L 324.369922 -356.859506 
L 325.294157 -357.078913 
L 326.218391 -357.290344 
L 327.142626 -357.490015 
L 328.066861 -357.662874 
L 328.991096 -357.824122 
L 329.91533 -357.98889 
L 330.839565 -358.153578 
L 331.7638 -358.27588 
L 332.688035 -358.428376 
L 333.612269 -358.579736 
L 334.536504 -358.674181 
L 335.460739 -358.80286 
L 336.384974 -358.911466 
L 337.309208 -359.003231 
L 338.233443 -359.060368 
L 339.157678 -359.131094 
L 340.081913 -359.207524 
L 341.006147 -359.309159 
L 341.930382 -359.381852 
L 342.854617 -359.445115 
L 343.778852 -359.462492 
L 344.703086 -359.495263 
L 345.627321 -359.525091 
L 346.551556 -359.503599 
L 347.475791 -359.481174 
L 348.400025 -359.474113 
L 349.32426 -359.424605 
L 350.248495 -359.380286 
L 351.17273 -359.307402 
L 352.096964 -359.205164 
L 353.021199 -359.084542 
L 353.945434 -358.953453 
L 354.869669 -358.788567 
L 355.793903 -358.61061 
L 356.718138 -358.421628 
L 357.642373 -358.180572 
L 358.566608 -357.902386 
L 359.490842 -357.604994 
L 360.415077 -357.26688 
L 361.339312 -356.934869 
L 362.263547 -356.543152 
L 363.187781 -356.120004 
L 364.112016 -355.647066 
L 365.036251 -355.149627 
L 365.960486 -354.61034 
L 366.88472 -354.027674 
L 367.808955 -353.404237 
L 368.73319 -352.769987 
L 369.657425 -352.093021 
L 370.581659 -351.373153 
L 371.505894 -350.60937 
L 372.430129 -349.80562 
L 373.354364 -348.970498 
L 374.278598 -348.097466 
L 375.202833 -347.188968 
L 376.127068 -346.23268 
L 377.051303 -345.244828 
L 377.975537 -344.245245 
L 378.899772 -343.221746 
L 379.824007 -342.12862 
L 380.748242 -341.006127 
L 381.672476 -339.851317 
L 382.596711 -338.660856 
L 383.520946 -337.477343 
L 384.445181 -336.24991 
L 385.369415 -335.03056 
L 386.29365 -333.745139 
L 387.217885 -332.466372 
L 388.14212 -331.18039 
L 389.066354 -329.838866 
L 389.990589 -328.515482 
L 390.914824 -327.151861 
L 391.839059 -325.799677 
L 392.763293 -324.419782 
L 393.687528 -323.065213 
L 394.611763 -321.695685 
L 395.535998 -320.307594 
L 396.460232 -318.920243 
L 397.384467 -317.502923 
L 398.308702 -316.112339 
L 399.232937 -314.734881 
L 400.157171 -313.356394 
L 401.081406 -311.984415 
L 402.005641 -310.62965 
L 402.929876 -309.287066 
L 403.85411 -307.914134 
L 404.778345 -306.57072 
L 405.70258 -305.246244 
L 406.626815 -303.942927 
L 407.55105 -302.654324 
L 408.475284 -301.379077 
L 409.399519 -300.115967 
L 410.323754 -298.876613 
L 411.247989 -297.665277 
L 412.172223 -296.447953 
L 413.096458 -295.267061 
L 414.020693 -294.067131 
L 414.944928 -292.912087 
L 415.869162 -291.758527 
L 416.793397 -290.616433 
L 417.717632 -289.515098 
L 418.641867 -288.419349 
L 419.566101 -287.332999 
L 420.490336 -286.286542 
L 421.414571 -285.228481 
L 422.338806 -284.203894 
L 423.26304 -283.194397 
L 424.187275 -282.186131 
L 425.11151 -281.204849 
L 426.035745 -280.242262 
L 426.959979 -279.280844 
L 427.884214 -278.320442 
L 428.808449 -277.377847 
L 429.732684 -276.454335 
L 430.656918 -275.525778 
L 431.581153 -274.594067 
L 432.505388 -273.688829 
L 433.429623 -272.758983 
L 434.353857 -271.863441 
L 435.278092 -270.997829 
L 436.202327 -270.1133 
L 437.126562 -269.252252 
L 438.050796 -268.382011 
L 438.975031 -267.525166 
L 439.899266 -266.688238 
L 440.823501 -265.836426 
L 441.747735 -264.969787 
L 442.67197 -264.109373 
L 443.596205 -263.244473 
L 444.52044 -262.380973 
L 445.444674 -261.54838 
L 446.368909 -260.719275 
L 447.293144 -259.875603 
L 448.217379 -259.019026 
L 449.141613 -258.182698 
L 450.065848 -257.336396 
L 450.990083 -256.488725 
L 451.914318 -255.628376 
L 452.838552 -254.783092 
L 453.762787 -253.949454 
L 454.687022 -253.065993 
L 455.611257 -252.20871 
L 456.535491 -251.369107 
L 457.459726 -250.479228 
L 458.383961 -249.624389 
L 459.308196 -248.752289 
L 460.23243 -247.887529 
L 461.156665 -247.007414 
L 462.0809 -246.136536 
L 463.005135 -245.264594 
L 463.929369 -244.356422 
L 464.853604 -243.460002 
L 465.777839 -242.548205 
L 466.702074 -241.666305 
L 467.626308 -240.75308 
L 468.550543 -239.814757 
L 469.474778 -238.908 
L 470.399013 -237.974159 
L 471.323247 -237.029221 
L 472.247482 -236.075711 
L 473.171717 -235.110977 
L 474.095952 -234.138395 
L 475.020186 -233.180404 
L 475.944421 -232.203303 
L 476.868656 -231.211596 
L 477.792891 -230.230269 
L 478.717125 -229.2225 
L 479.64136 -228.21081 
L 480.565595 -227.223439 
L 481.48983 -226.22177 
L 482.414064 -225.198106 
L 483.338299 -224.163888 
L 484.262534 -223.106528 
L 485.186769 -222.04834 
L 486.111003 -220.991603 
L 487.035238 -219.945253 
L 487.959473 -218.882372 
L 488.883708 -217.808215 
L 489.807942 -216.751157 
L 490.732177 -215.683614 
L 491.656412 -214.593998 
L 492.580647 -213.519432 
L 493.504881 -212.436882 
L 494.429116 -211.370876 
L 495.353351 -210.301386 
L 496.277586 -209.230011 
L 497.20182 -208.167611 
L 498.126055 -207.121905 
L 499.05029 -206.060092 
L 499.974525 -205.025737 
L 500.89876 -204.019803 
L 501.822994 -203.013632 
L 502.747229 -202.002272 
L 503.671464 -201.029469 
L 504.595699 -200.064406 
L 505.519933 -199.127022 
L 506.444168 -198.220028 
L 507.368403 -197.323559 
L 508.292638 -196.436003 
L 509.216872 -195.598425 
L 510.141107 -194.777058 
L 511.065342 -193.982353 
L 511.989577 -193.205677 
L 512.913811 -192.473726 
L 513.838046 -191.751856 
L 514.762281 -191.068921 
L 515.686516 -190.452041 
L 516.61075 -189.864424 
L 517.534985 -189.303328 
L 518.45922 -188.793069 
L 519.383455 -188.307629 
L 520.307689 -187.862285 
L 521.231924 -187.461611 
L 522.156159 -187.08005 
L 523.080394 -186.762419 
L 524.004628 -186.47383 
L 524.928863 -186.241461 
L 525.853098 -186.069414 
L 526.777333 -185.89893 
L 527.701567 -185.830971 
L 528.625802 -185.765371 
L 528.625802 -64.202537 
L 528.625802 -64.202537 
L 527.701567 -64.202537 
L 526.777333 -64.202537 
L 525.853098 -64.202537 
L 524.928863 -64.202537 
L 524.004628 -64.202537 
L 523.080394 -64.202537 
L 522.156159 -64.202537 
L 521.231924 -64.202537 
L 520.307689 -64.202537 
L 519.383455 -64.202537 
L 518.45922 -64.202537 
L 517.534985 -64.202537 
L 516.61075 -64.202537 
L 515.686516 -64.202537 
L 514.762281 -64.202537 
L 513.838046 -64.202537 
L 512.913811 -64.202537 
L 511.989577 -64.202537 
L 511.065342 -64.202537 
L 510.141107 -64.202537 
L 509.216872 -64.202537 
L 508.292638 -64.202537 
L 507.368403 -64.202537 
L 506.444168 -64.202537 
L 505.519933 -64.202537 
L 504.595699 -64.202537 
L 503.671464 -64.202537 
L 502.747229 -64.202537 
L 501.822994 -64.202537 
L 500.89876 -64.202537 
L 499.974525 -64.202537 
L 499.05029 -64.202537 
L 498.126055 -64.202537 
L 497.20182 -64.202537 
L 496.277586 -64.202537 
L 495.353351 -64.202537 
L 494.429116 -64.202537 
L 493.504881 -64.202537 
L 492.580647 -64.202537 
L 491.656412 -64.202537 
L 490.732177 -64.202537 
L 489.807942 -64.202537 
L 488.883708 -64.202537 
L 487.959473 -64.202537 
L 487.035238 -64.202537 
L 486.111003 -64.202537 
L 485.186769 -64.202537 
L 484.262534 -64.202537 
L 483.338299 -64.202537 
L 482.414064 -64.202537 
L 481.48983 -64.202537 
L 480.565595 -64.202537 
L 479.64136 -64.202537 
L 478.717125 -64.202537 
L 477.792891 -64.202537 
L 476.868656 -64.202537 
L 475.944421 -64.202537 
L 475.020186 -64.202537 
L 474.095952 -64.202537 
L 473.171717 -64.202537 
L 472.247482 -64.202537 
L 471.323247 -64.202537 
L 470.399013 -64.202537 
L 469.474778 -64.202537 
L 468.550543 -64.202537 
L 467.626308 -64.202537 
L 466.702074 -64.202537 
L 465.777839 -64.202537 
L 464.853604 -64.202537 
L 463.929369 -64.202537 
L 463.005135 -64.202537 
L 462.0809 -64.202537 
L 461.156665 -64.202537 
L 460.23243 -64.202537 
L 459.308196 -64.202537 
L 458.383961 -64.202537 
L 457.459726 -64.202537 
L 456.535491 -64.202537 
L 455.611257 -64.202537 
L 454.687022 -64.202537 
L 453.762787 -64.202537 
L 452.838552 -64.202537 
L 451.914318 -64.202537 
L 450.990083 -64.202537 
L 450.065848 -64.202537 
L 449.141613 -64.202537 
L 448.217379 -64.202537 
L 447.293144 -64.202537 
L 446.368909 -64.202537 
L 445.444674 -64.202537 
L 444.52044 -64.202537 
L 443.596205 -64.202537 
L 442.67197 -64.202537 
L 441.747735 -64.202537 
L 440.823501 -64.202537 
L 439.899266 -64.202537 
L 438.975031 -64.202537 
L 438.050796 -64.202537 
L 437.126562 -64.202537 
L 436.202327 -64.202537 
L 435.278092 -64.202537 
L 434.353857 -64.202537 
L 433.429623 -64.202537 
L 432.505388 -64.202537 
L 431.581153 -64.202537 
L 430.656918 -64.202537 
L 429.732684 -64.202537 
L 428.808449 -64.202537 
L 427.884214 -64.202537 
L 426.959979 -64.202537 
L 426.035745 -64.202537 
L 425.11151 -64.202537 
L 424.187275 -64.202537 
L 423.26304 -64.202537 
L 422.338806 -64.202537 
L 421.414571 -64.202537 
L 420.490336 -64.202537 
L 419.566101 -64.202537 
L 418.641867 -64.202537 
L 417.717632 -64.202537 
L 416.793397 -64.202537 
L 415.869162 -64.202537 
L 414.944928 -64.202537 
L 414.020693 -64.202537 
L 413.096458 -64.202537 
L 412.172223 -64.202537 
L 411.247989 -64.202537 
L 410.323754 -64.202537 
L 409.399519 -64.202537 
L 408.475284 -64.202537 
L 407.55105 -64.202537 
L 406.626815 -64.202537 
L 405.70258 -64.202537 
L 404.778345 -64.202537 
L 403.85411 -64.202537 
L 402.929876 -64.202537 
L 402.005641 -64.202537 
L 401.081406 -64.202537 
L 400.157171 -64.202537 
L 399.232937 -64.202537 
L 398.308702 -64.202537 
L 397.384467 -64.202537 
L 396.460232 -64.202537 
L 395.535998 -64.202537 
L 394.611763 -64.202537 
L 393.687528 -64.202537 
L 392.763293 -64.202537 
L 391.839059 -64.202537 
L 390.914824 -64.202537 
L 389.990589 -64.202537 
L 389.066354 -64.202537 
L 388.14212 -64.202537 
L 387.217885 -64.202537 
L 386.29365 -64.202537 
L 385.369415 -64.202537 
L 384.445181 -64.202537 
L 383.520946 -64.202537 
L 382.596711 -64.202537 
L 381.672476 -64.202537 
L 380.748242 -64.202537 
L 379.824007 -64.202537 
L 378.899772 -64.202537 
L 377.975537 -64.202537 
L 377.051303 -64.202537 
L 376.127068 -64.202537 
L 375.202833 -64.202537 
L 374.278598 -64.202537 
L 373.354364 -64.202537 
L 372.430129 -64.202537 
L 371.505894 -64.202537 
L 370.581659 -64.202537 
L 369.657425 -64.202537 
L 368.73319 -64.202537 
L 367.808955 -64.202537 
L 366.88472 -64.202537 
L 365.960486 -64.202537 
L 365.036251 -64.202537 
L 364.112016 -64.202537 
L 363.187781 -64.202537 
L 362.263547 -64.202537 
L 361.339312 -64.202537 
L 360.415077 -64.202537 
L 359.490842 -64.202537 
L 358.566608 -64.202537 
L 357.642373 -64.202537 
L 356.718138 -64.202537 
L 355.793903 -64.202537 
L 354.869669 -64.202537 
L 353.945434 -64.202537 
L 353.021199 -64.202537 
L 352.096964 -64.202537 
L 351.17273 -64.202537 
L 350.248495 -64.202537 
L 349.32426 -64.202537 
L 348.400025 -64.202537 
L 347.475791 -64.202537 
L 346.551556 -64.202537 
L 345.627321 -64.202537 
L 344.703086 -64.202537 
L 343.778852 -64.202537 
L 342.854617 -64.202537 
L 341.930382 -64.202537 
L 341.006147 -64.202537 
L 340.081913 -64.202537 
L 339.157678 -64.202537 
L 338.233443 -64.202537 
L 337.309208 -64.202537 
L 336.384974 -64.202537 
L 335.460739 -64.202537 
L 334.536504 -64.202537 
L 333.612269 -64.202537 
L 332.688035 -64.202537 
L 331.7638 -64.202537 
L 330.839565 -64.202537 
L 329.91533 -64.202537 
L 328.991096 -64.202537 
L 328.066861 -64.202537 
L 327.142626 -64.202537 
L 326.218391 -64.202537 
L 325.294157 -64.202537 
L 324.369922 -64.202537 
L 323.445687 -64.202537 
L 322.521452 -64.202537 
L 321.597218 -64.202537 
L 320.672983 -64.202537 
L 319.748748 -64.202537 
L 318.824513 -64.202537 
L 317.900279 -64.202537 
L 316.976044 -64.202537 
L 316.051809 -64.202537 
L 315.127574 -64.202537 
L 314.20334 -64.202537 
L 313.279105 -64.202537 
L 312.35487 -64.202537 
L 311.430635 -64.202537 
L 310.5064 -64.202537 
L 309.582166 -64.202537 
L 308.657931 -64.202537 
L 307.733696 -64.202537 
L 306.809461 -64.202537 
L 305.885227 -64.202537 
L 304.960992 -64.202537 
L 304.036757 -64.202537 
L 303.112522 -64.202537 
L 302.188288 -64.202537 
L 301.264053 -64.202537 
L 300.339818 -64.202537 
L 299.415583 -64.202537 
L 298.491349 -64.202537 
L 297.567114 -64.202537 
L 296.642879 -64.202537 
L 295.718644 -64.202537 
L 294.79441 -64.202537 
L 293.870175 -64.202537 
L 292.94594 -64.202537 
L 292.021705 -64.202537 
L 291.097471 -64.202537 
L 290.173236 -64.202537 
L 289.249001 -64.202537 
L 288.324766 -64.202537 
L 287.400532 -64.202537 
L 286.476297 -64.202537 
L 285.552062 -64.202537 
L 284.627827 -64.202537 
L 283.703593 -64.202537 
L 282.779358 -64.202537 
L 281.855123 -64.202537 
L 280.930888 -64.202537 
L 280.006654 -64.202537 
L 279.082419 -64.202537 
L 278.158184 -64.202537 
L 277.233949 -64.202537 
L 276.309715 -64.202537 
L 275.38548 -64.202537 
L 274.461245 -64.202537 
L 273.53701 -64.202537 
L 272.612776 -64.202537 
L 271.688541 -64.202537 
L 270.764306 -64.202537 
L 269.840071 -64.202537 
L 268.915837 -64.202537 
L 267.991602 -64.202537 
L 267.067367 -64.202537 
L 266.143132 -64.202537 
L 265.218898 -64.202537 
L 264.294663 -64.202537 
L 263.370428 -64.202537 
L 262.446193 -64.202537 
L 261.521959 -64.202537 
L 260.597724 -64.202537 
L 259.673489 -64.202537 
L 258.749254 -64.202537 
L 257.82502 -64.202537 
L 256.900785 -64.202537 
L 255.97655 -64.202537 
L 255.052315 -64.202537 
L 254.128081 -64.202537 
L 253.203846 -64.202537 
L 252.279611 -64.202537 
L 251.355376 -64.202537 
L 250.431142 -64.202537 
L 249.506907 -64.202537 
L 248.582672 -64.202537 
L 247.658437 -64.202537 
L 246.734203 -64.202537 
L 245.809968 -64.202537 
L 244.885733 -64.202537 
L 243.961498 -64.202537 
L 243.037264 -64.202537 
L 242.113029 -64.202537 
L 241.188794 -64.202537 
L 240.264559 -64.202537 
L 239.340325 -64.202537 
L 238.41609 -64.202537 
L 237.491855 -64.202537 
L 236.56762 -64.202537 
L 235.643386 -64.202537 
L 234.719151 -64.202537 
L 233.794916 -64.202537 
L 232.870681 -64.202537 
L 231.946447 -64.202537 
L 231.022212 -64.202537 
L 230.097977 -64.202537 
L 229.173742 -64.202537 
L 228.249508 -64.202537 
L 227.325273 -64.202537 
L 226.401038 -64.202537 
L 225.476803 -64.202537 
L 224.552569 -64.202537 
L 223.628334 -64.202537 
L 222.704099 -64.202537 
L 221.779864 -64.202537 
L 220.85563 -64.202537 
L 219.931395 -64.202537 
L 219.00716 -64.202537 
L 218.082925 -64.202537 
L 217.15869 -64.202537 
L 216.234456 -64.202537 
L 215.310221 -64.202537 
L 214.385986 -64.202537 
L 213.461751 -64.202537 
L 212.537517 -64.202537 
L 211.613282 -64.202537 
L 210.689047 -64.202537 
L 209.764812 -64.202537 
L 208.840578 -64.202537 
L 207.916343 -64.202537 
L 206.992108 -64.202537 
L 206.067873 -64.202537 
L 205.143639 -64.202537 
L 204.219404 -64.202537 
L 203.295169 -64.202537 
L 202.370934 -64.202537 
L 201.4467 -64.202537 
L 200.522465 -64.202537 
L 199.59823 -64.202537 
L 198.673995 -64.202537 
L 197.749761 -64.202537 
L 196.825526 -64.202537 
L 195.901291 -64.202537 
L 194.977056 -64.202537 
L 194.052822 -64.202537 
L 193.128587 -64.202537 
L 192.204352 -64.202537 
L 191.280117 -64.202537 
L 190.355883 -64.202537 
L 189.431648 -64.202537 
L 188.507413 -64.202537 
L 187.583178 -64.202537 
L 186.658944 -64.202537 
L 185.734709 -64.202537 
L 184.810474 -64.202537 
L 183.886239 -64.202537 
L 182.962005 -64.202537 
L 182.03777 -64.202537 
L 181.113535 -64.202537 
L 180.1893 -64.202537 
L 179.265066 -64.202537 
L 178.340831 -64.202537 
L 177.416596 -64.202537 
L 176.492361 -64.202537 
L 175.568127 -64.202537 
L 174.643892 -64.202537 
L 173.719657 -64.202537 
L 172.795422 -64.202537 
L 171.871188 -64.202537 
L 170.946953 -64.202537 
L 170.022718 -64.202537 
L 169.098483 -64.202537 
L 168.174249 -64.202537 
L 167.250014 -64.202537 
L 166.325779 -64.202537 
L 165.401544 -64.202537 
L 164.47731 -64.202537 
L 163.553075 -64.202537 
L 162.62884 -64.202537 
L 161.704605 -64.202537 
L 160.780371 -64.202537 
L 159.856136 -64.202537 
L 158.931901 -64.202537 
L 158.007666 -64.202537 
L 157.083432 -64.202537 
L 156.159197 -64.202537 
L 155.234962 -64.202537 
L 154.310727 -64.202537 
L 153.386493 -64.202537 
L 152.462258 -64.202537 
L 151.538023 -64.202537 
L 150.613788 -64.202537 
L 149.689554 -64.202537 
L 148.765319 -64.202537 
L 147.841084 -64.202537 
L 146.916849 -64.202537 
L 145.992615 -64.202537 
L 145.06838 -64.202537 
L 144.144145 -64.202537 
L 143.21991 -64.202537 
L 142.295676 -64.202537 
L 141.371441 -64.202537 
L 140.447206 -64.202537 
L 139.522971 -64.202537 
L 138.598737 -64.202537 
L 137.674502 -64.202537 
L 136.750267 -64.202537 
L 135.826032 -64.202537 
L 134.901798 -64.202537 
L 133.977563 -64.202537 
L 133.053328 -64.202537 
L 132.129093 -64.202537 
L 131.204859 -64.202537 
L 130.280624 -64.202537 
L 129.356389 -64.202537 
L 128.432154 -64.202537 
L 127.50792 -64.202537 
L 126.583685 -64.202537 
L 125.65945 -64.202537 
L 124.735215 -64.202537 
L 123.81098 -64.202537 
L 122.886746 -64.202537 
L 121.962511 -64.202537 
L 121.038276 -64.202537 
L 120.114041 -64.202537 
L 119.189807 -64.202537 
L 118.265572 -64.202537 
L 117.341337 -64.202537 
L 116.417102 -64.202537 
L 115.492868 -64.202537 
L 114.568633 -64.202537 
L 113.644398 -64.202537 
L 112.720163 -64.202537 
L 111.795929 -64.202537 
L 110.871694 -64.202537 
L 109.947459 -64.202537 
L 109.023224 -64.202537 
L 108.09899 -64.202537 
L 107.174755 -64.202537 
L 106.25052 -64.202537 
L 105.326285 -64.202537 
L 104.402051 -64.202537 
L 103.477816 -64.202537 
L 102.553581 -64.202537 
L 101.629346 -64.202537 
L 100.705112 -64.202537 
L 99.780877 -64.202537 
L 98.856642 -64.202537 
L 97.932407 -64.202537 
L 97.008173 -64.202537 
L 96.083938 -64.202537 
L 95.159703 -64.202537 
L 94.235468 -64.202537 
L 93.311234 -64.202537 
L 92.386999 -64.202537 
L 91.462764 -64.202537 
L 90.538529 -64.202537 
L 89.614295 -64.202537 
L 88.69006 -64.202537 
L 87.765825 -64.202537 
L 86.84159 -64.202537 
L 85.917356 -64.202537 
L 84.993121 -64.202537 
L 84.068886 -64.202537 
L 83.144651 -64.202537 
L 82.220417 -64.202537 
L 81.296182 -64.202537 
L 80.371947 -64.202537 
L 79.447712 -64.202537 
L 78.523478 -64.202537 
L 77.599243 -64.202537 
L 76.675008 -64.202537 
L 75.750773 -64.202537 
L 74.826539 -64.202537 
L 73.902304 -64.202537 
L 72.978069 -64.202537 
L 72.053834 -64.202537 
L 71.1296 -64.202537 
L 70.205365 -64.202537 
L 69.28113 -64.202537 
L 68.356895 -64.202537 
L 67.432661 -64.202537 
L 66.508426 -64.202537 
L 65.584191 -64.202537 
L 64.659956 -64.202537 
L 63.735722 -64.202537 
L 62.811487 -64.202537 
L 61.887252 -64.202537 
L 60.963017 -64.202537 
L 60.038783 -64.202537 
L 59.114548 -64.202537 
L 58.190313 -64.202537 
L 57.266078 -64.202537 
L 56.341844 -64.202537 
z
" style="stroke: #6cb7ff; stroke-opacity: 0.6; stroke-width: 0.3"/>
    </defs>
    <g clip-path="url(#p3990bb1d28)">
     <use xlink:href="#m1053a65e92" x="0" y="432" style="fill: #6cb7ff; fill-opacity: 0.6; stroke: #6cb7ff; stroke-opacity: 0.6; stroke-width: 0.3"/>
    </g>
   </g>
   <g id="line2d_15">
    <path d="M 56.341844 285.698794 
L 60.963017 285.521174 
L 65.584191 285.072791 
L 69.28113 284.463962 
L 74.826539 283.133742 
L 77.599243 282.270918 
L 81.296182 280.869975 
L 84.068886 279.666529 
L 87.765825 277.718678 
L 92.386999 274.88436 
L 96.083938 272.220964 
L 99.780877 269.233569 
L 103.477816 265.969268 
L 108.09899 261.548378 
L 112.720163 256.780499 
L 119.189807 249.795194 
L 128.432154 239.779938 
L 134.901798 233.032529 
L 141.371441 226.513871 
L 147.841084 220.274611 
L 158.007666 210.359854 
L 162.62884 205.619924 
L 166.325779 201.618485 
L 170.946953 196.364939 
L 175.568127 190.766262 
L 181.113535 183.629718 
L 188.507413 173.604997 
L 204.219404 152.402935 
L 208.840578 146.731325 
L 212.537517 142.540196 
L 217.15869 137.774503 
L 220.85563 134.355231 
L 224.552569 131.233322 
L 229.173742 127.799182 
L 232.870681 125.392544 
L 235.643386 123.763962 
L 242.113029 120.328183 
L 246.734203 118.093713 
L 250.431142 116.429992 
L 255.052315 114.414649 
L 262.446193 110.946542 
L 268.915837 107.5611 
L 271.688541 105.981966 
L 277.233949 102.523034 
L 287.400532 95.400202 
L 294.79441 89.827671 
L 299.415583 86.592709 
L 304.036757 83.59936 
L 308.657931 80.957462 
L 313.279105 78.742342 
L 316.051809 77.62608 
L 318.824513 76.671006 
L 323.445687 75.342835 
L 329.91533 74.01111 
L 333.612269 73.420264 
L 342.854617 72.554885 
L 348.400025 72.525887 
L 352.096964 72.794836 
L 354.869669 73.211433 
L 357.642373 73.819428 
L 360.415077 74.73312 
L 362.263547 75.456848 
L 364.112016 76.352934 
L 365.960486 77.38966 
L 368.73319 79.230013 
L 371.505894 81.39063 
L 374.278598 83.902534 
L 377.051303 86.755172 
L 379.824007 89.87138 
L 383.520946 94.522657 
L 388.14212 100.81961 
L 396.460232 113.079757 
L 401.081406 120.015585 
L 407.55105 129.345676 
L 412.172223 135.552047 
L 417.717632 142.484902 
L 422.338806 147.796106 
L 426.959979 152.719156 
L 431.581153 157.405933 
L 438.050796 163.617989 
L 465.777839 189.451795 
L 469.474778 193.092 
L 475.020186 198.819596 
L 481.48983 205.77823 
L 487.035238 212.054747 
L 502.747229 229.997728 
L 506.444168 233.779972 
L 510.141107 237.222942 
L 512.913811 239.526274 
L 514.762281 240.931079 
L 517.534985 242.696672 
L 520.307689 244.137715 
L 523.080394 245.237581 
L 524.928863 245.758539 
L 527.701567 246.169029 
L 528.625802 246.234629 
L 528.625802 246.234629 
" clip-path="url(#p3990bb1d28)" style="fill: none; stroke: #7570b3; stroke-width: 2; stroke-linecap: round"/>
   </g>
   <g id="line2d_16">
    <path d="M 56.341844 368.618449 
L 56.341844 285.698794 
" clip-path="url(#p3990bb1d28)" style="fill: none; stroke: #7570b3; stroke-width: 2; stroke-linecap: round"/>
   </g>
   <g id="line2d_17">
    <path d="M 528.625802 369.013091 
L 528.625802 246.234629 
" clip-path="url(#p3990bb1d28)" style="fill: none; stroke: #7570b3; stroke-width: 2; stroke-linecap: round"/>
   </g>
   <g id="line2d_18">
    <defs>
     <path id="m641b59ab6d" d="M 0 3.5 
C 0.928211 3.5 1.81853 3.131218 2.474874 2.474874 
C 3.131218 1.81853 3.5 0.928211 3.5 0 
C 3.5 -0.928211 3.131218 -1.81853 2.474874 -2.474874 
C 1.81853 -3.131218 0.928211 -3.5 0 -3.5 
C -0.928211 -3.5 -1.81853 -3.131218 -2.474874 -2.474874 
C -3.131218 -1.81853 -3.5 -0.928211 -3.5 0 
C -3.5 0.928211 -3.131218 1.81853 -2.474874 2.474874 
C -1.81853 3.131218 -0.928211 3.5 0 3.5 
z
"/>
    </defs>
    <g clip-path="url(#p3990bb1d28)">
     <use xlink:href="#m641b59ab6d" x="313.721393" y="367.797463" style="fill: #7570b3"/>
    </g>
   </g>
   <g id="patch_3">
    <path d="M 32.727646 383.84 
L 552.24 383.84 
" style="fill: none; stroke: #333333; stroke-width: 1.5; stroke-linejoin: miter; stroke-linecap: square"/>
   </g>
   <g id="text_8">
    <!-- $x_2x_3^2$ -->
    <g style="fill: #262626" transform="translate(261.963823 49.528)">
     <text>
      <tspan x="0" y="-0.734375" style="font-style: oblique; font-size: 28px; font-family: 'DejaVu Sans'; fill: #262626">x</tspan>
      <tspan x="29.806055" y="-0.734375" style="font-style: oblique; font-size: 28px; font-family: 'DejaVu Sans'; fill: #262626">x</tspan>
      <tspan x="16.570312" y="3.859375" style="font-size: 19.6px; font-family: 'DejaVu Sans'; fill: #262626">2</tspan>
      <tspan x="46.376367" y="6.921875" style="font-size: 19.6px; font-family: 'DejaVu Sans'; fill: #262626">3</tspan>
      <tspan x="47.626888" y="-11.453125" style="font-size: 19.6px; font-family: 'DejaVu Sans'; fill: #262626">2</tspan>
     </text>
    </g>
   </g>
  </g>
 </g>
 <defs>
  <clipPath id="p3990bb1d28">
   <rect x="32.727646" y="57.648" width="519.512354" height="326.192"/>
  </clipPath>
 </defs>
</svg>
