<?xml version="1.0" encoding="utf-8" standalone="no"?>
<!DOCTYPE svg PUBLIC "-//W3C//DTD SVG 1.1//EN"
  "http://www.w3.org/Graphics/SVG/1.1/DTD/svg11.dtd">
<svg xmlns:xlink="http://www.w3.org/1999/xlink" width="576pt" height="432pt" viewBox="0 0 576 432" xmlns="http://www.w3.org/2000/svg" version="1.1">
 <metadata>
  <rdf:RDF xmlns:dc="http://purl.org/dc/elements/1.1/" xmlns:cc="http://creativecommons.org/ns#" xmlns:rdf="http://www.w3.org/1999/02/22-rdf-syntax-ns#">
   <cc:Work>
    <dc:type rdf:resource="http://purl.org/dc/dcmitype/StillImage"/>
    <dc:date>2025-09-22T23:00:34.608256</dc:date>
    <dc:format>image/svg+xml</dc:format>
    <dc:creator>
     <cc:Agent>
      <dc:title>Matplotlib v3.10.0, https://matplotlib.org/</dc:title>
     </cc:Agent>
    </dc:creator>
   </cc:Work>
  </rdf:RDF>
 </metadata>
 <defs>
  <style type="text/css">*{stroke-linejoin: round; stroke-linecap: butt}</style>
 </defs>
 <g id="figure_1">
  <g id="patch_1">
   <path d="M 0 432 
L 576 432 
L 576 0 
L 0 0 
L 0 432 
z
" style="fill: none; opacity: 0"/>
  </g>
  <g id="axes_1">
   <g id="patch_2">
    <path d="M 23.76 383.84 
L 552.24 383.84 
L 552.24 57.42 
L 23.76 57.42 
L 23.76 383.84 
z
" style="fill: none"/>
   </g>
   <g id="matplotlib.axis_1">
    <g id="xtick_1">
     <g id="line2d_1">
      <path d="M 77.819797 383.84 
L 77.819797 57.42 
" clip-path="url(#p52cdb8c42b)" style="fill: none; stroke: #ffffff; stroke-opacity: 0.4; stroke-linecap: round"/>
     </g>
     <g id="line2d_2"/>
     <g id="text_1">
      <text style="font-size: 18px; font-family: 'DejaVu Serif', 'Times New Roman', serif; text-anchor: middle; fill: #262626" x="77.819797" y="404.517187" transform="rotate(-0 77.819797 404.517187)">−0.26</text>
     </g>
    </g>
    <g id="xtick_2">
     <g id="line2d_3">
      <path d="M 147.580044 383.84 
L 147.580044 57.42 
" clip-path="url(#p52cdb8c42b)" style="fill: none; stroke: #ffffff; stroke-opacity: 0.4; stroke-linecap: round"/>
     </g>
     <g id="line2d_4"/>
     <g id="text_2">
      <text style="font-size: 18px; font-family: 'DejaVu Serif', 'Times New Roman', serif; text-anchor: middle; fill: #262626" x="147.580044" y="404.517187" transform="rotate(-0 147.580044 404.517187)">−0.25</text>
     </g>
    </g>
    <g id="xtick_3">
     <g id="line2d_5">
      <path d="M 217.340291 383.84 
L 217.340291 57.42 
" clip-path="url(#p52cdb8c42b)" style="fill: none; stroke: #ffffff; stroke-opacity: 0.4; stroke-linecap: round"/>
     </g>
     <g id="line2d_6"/>
     <g id="text_3">
      <text style="font-size: 18px; font-family: 'DejaVu Serif', 'Times New Roman', serif; text-anchor: middle; fill: #262626" x="217.340291" y="404.517187" transform="rotate(-0 217.340291 404.517187)">−0.24</text>
     </g>
    </g>
    <g id="xtick_4">
     <g id="line2d_7">
      <path d="M 287.100537 383.84 
L 287.100537 57.42 
" clip-path="url(#p52cdb8c42b)" style="fill: none; stroke: #ffffff; stroke-opacity: 0.4; stroke-linecap: round"/>
     </g>
     <g id="line2d_8"/>
     <g id="text_4">
      <text style="font-size: 18px; font-family: 'DejaVu Serif', 'Times New Roman', serif; text-anchor: middle; fill: #262626" x="287.100537" y="404.517187" transform="rotate(-0 287.100537 404.517187)">−0.23</text>
     </g>
    </g>
    <g id="xtick_5">
     <g id="line2d_9">
      <path d="M 356.860784 383.84 
L 356.860784 57.42 
" clip-path="url(#p52cdb8c42b)" style="fill: none; stroke: #ffffff; stroke-opacity: 0.4; stroke-linecap: round"/>
     </g>
     <g id="line2d_10"/>
     <g id="text_5">
      <text style="font-size: 18px; font-family: 'DejaVu Serif', 'Times New Roman', serif; text-anchor: middle; fill: #262626" x="356.860784" y="404.517187" transform="rotate(-0 356.860784 404.517187)">−0.22</text>
     </g>
    </g>
    <g id="xtick_6">
     <g id="line2d_11">
      <path d="M 426.621031 383.84 
L 426.621031 57.42 
" clip-path="url(#p52cdb8c42b)" style="fill: none; stroke: #ffffff; stroke-opacity: 0.4; stroke-linecap: round"/>
     </g>
     <g id="line2d_12"/>
     <g id="text_6">
      <text style="font-size: 18px; font-family: 'DejaVu Serif', 'Times New Roman', serif; text-anchor: middle; fill: #262626" x="426.621031" y="404.517187" transform="rotate(-0 426.621031 404.517187)">−0.21</text>
     </g>
    </g>
    <g id="xtick_7">
     <g id="line2d_13">
      <path d="M 496.381278 383.84 
L 496.381278 57.42 
" clip-path="url(#p52cdb8c42b)" style="fill: none; stroke: #ffffff; stroke-opacity: 0.4; stroke-linecap: round"/>
     </g>
     <g id="line2d_14"/>
     <g id="text_7">
      <text style="font-size: 18px; font-family: 'DejaVu Serif', 'Times New Roman', serif; text-anchor: middle; fill: #262626" x="496.381278" y="404.517187" transform="rotate(-0 496.381278 404.517187)">−0.20</text>
     </g>
    </g>
   </g>
   <g id="matplotlib.axis_2"/>
   <g id="FillBetweenPolyCollection_1">
    <defs>
     <path id="m09864234a9" d="M 47.781818 -63.975887 
L 47.781818 -144.9775 
L 48.722007 -144.988546 
L 49.662195 -144.997152 
L 50.602384 -145.033392 
L 51.542572 -145.107754 
L 52.482761 -145.171564 
L 53.42295 -145.252849 
L 54.363138 -145.370212 
L 55.303327 -145.492465 
L 56.243515 -145.637502 
L 57.183704 -145.7945 
L 58.123893 -145.946879 
L 59.064081 -146.1279 
L 60.00427 -146.320415 
L 60.944458 -146.54176 
L 61.884647 -146.801897 
L 62.824835 -147.047238 
L 63.765024 -147.306924 
L 64.705213 -147.614272 
L 65.645401 -147.931136 
L 66.58559 -148.254228 
L 67.525778 -148.605104 
L 68.465967 -148.984587 
L 69.406155 -149.365203 
L 70.346344 -149.777394 
L 71.286533 -150.224721 
L 72.226721 -150.701882 
L 73.16691 -151.187153 
L 74.107098 -151.712926 
L 75.047287 -152.265915 
L 75.987476 -152.832385 
L 76.927664 -153.437653 
L 77.867853 -154.042875 
L 78.808041 -154.682608 
L 79.74823 -155.361642 
L 80.688418 -156.041429 
L 81.628607 -156.734145 
L 82.568796 -157.465372 
L 83.508984 -158.224439 
L 84.449173 -158.988863 
L 85.389361 -159.793977 
L 86.32955 -160.633189 
L 87.269738 -161.474934 
L 88.209927 -162.346447 
L 89.150116 -163.249939 
L 90.090304 -164.170205 
L 91.030493 -165.101872 
L 91.970681 -166.051174 
L 92.91087 -166.999661 
L 93.851059 -167.996649 
L 94.791247 -168.991599 
L 95.731436 -170.010793 
L 96.671624 -171.033233 
L 97.611813 -172.105366 
L 98.552001 -173.162543 
L 99.49219 -174.233868 
L 100.432379 -175.310132 
L 101.372567 -176.404251 
L 102.312756 -177.508912 
L 103.252944 -178.589934 
L 104.193133 -179.710115 
L 105.133321 -180.820159 
L 106.07351 -181.940166 
L 107.013699 -183.036911 
L 107.953887 -184.144482 
L 108.894076 -185.229513 
L 109.834264 -186.317529 
L 110.774453 -187.420918 
L 111.714642 -188.507896 
L 112.65483 -189.6038 
L 113.595019 -190.693141 
L 114.535207 -191.751096 
L 115.475396 -192.82297 
L 116.415584 -193.879185 
L 117.355773 -194.914837 
L 118.295962 -195.935349 
L 119.23615 -196.939979 
L 120.176339 -197.945964 
L 121.116527 -198.92824 
L 122.056716 -199.914644 
L 122.996904 -200.901638 
L 123.937093 -201.857117 
L 124.877282 -202.787573 
L 125.81747 -203.711649 
L 126.757659 -204.632587 
L 127.697847 -205.532558 
L 128.638036 -206.424372 
L 129.578225 -207.294056 
L 130.518413 -208.170131 
L 131.458602 -209.05067 
L 132.39879 -209.888236 
L 133.338979 -210.723905 
L 134.279167 -211.559587 
L 135.219356 -212.367165 
L 136.159545 -213.167047 
L 137.099733 -213.982934 
L 138.039922 -214.759029 
L 138.98011 -215.534204 
L 139.920299 -216.317594 
L 140.860487 -217.059509 
L 141.800676 -217.812417 
L 142.740865 -218.56657 
L 143.681053 -219.32413 
L 144.621242 -220.091621 
L 145.56143 -220.841305 
L 146.501619 -221.600601 
L 147.441808 -222.341249 
L 148.381996 -223.077305 
L 149.322185 -223.806167 
L 150.262373 -224.536912 
L 151.202562 -225.303686 
L 152.14275 -226.057445 
L 153.082939 -226.80898 
L 154.023128 -227.602981 
L 154.963316 -228.377311 
L 155.903505 -229.167852 
L 156.843693 -229.968024 
L 157.783882 -230.759446 
L 158.72407 -231.584923 
L 159.664259 -232.400041 
L 160.604448 -233.232946 
L 161.544636 -234.081061 
L 162.484825 -234.96827 
L 163.425013 -235.85309 
L 164.365202 -236.742497 
L 165.30539 -237.647039 
L 166.245579 -238.575272 
L 167.185768 -239.524928 
L 168.125956 -240.45734 
L 169.066145 -241.448179 
L 170.006333 -242.441212 
L 170.946522 -243.45749 
L 171.886711 -244.504778 
L 172.826899 -245.560709 
L 173.767088 -246.662672 
L 174.707276 -247.754265 
L 175.647465 -248.885082 
L 176.587653 -250.013041 
L 177.527842 -251.172219 
L 178.468031 -252.353276 
L 179.408219 -253.578521 
L 180.348408 -254.814778 
L 181.288596 -256.061841 
L 182.228785 -257.330549 
L 183.168973 -258.61328 
L 184.109162 -259.898044 
L 185.049351 -261.19053 
L 185.989539 -262.533102 
L 186.929728 -263.853105 
L 187.869916 -265.191828 
L 188.810105 -266.542381 
L 189.750294 -267.917639 
L 190.690482 -269.317838 
L 191.630671 -270.692345 
L 192.570859 -272.082233 
L 193.511048 -273.498907 
L 194.451236 -274.915731 
L 195.391425 -276.3447 
L 196.331614 -277.782822 
L 197.271802 -279.198903 
L 198.211991 -280.621958 
L 199.152179 -282.043242 
L 200.092368 -283.446926 
L 201.032556 -284.868044 
L 201.972745 -286.277643 
L 202.912934 -287.708637 
L 203.853122 -289.108849 
L 204.793311 -290.540248 
L 205.733499 -291.930955 
L 206.673688 -293.344952 
L 207.613877 -294.71955 
L 208.554065 -296.075888 
L 209.494254 -297.436319 
L 210.434442 -298.775263 
L 211.374631 -300.118642 
L 212.314819 -301.435801 
L 213.255008 -302.730937 
L 214.195197 -304.03846 
L 215.135385 -305.32407 
L 216.075574 -306.587926 
L 217.015762 -307.839111 
L 217.955951 -309.100385 
L 218.896139 -310.343364 
L 219.836328 -311.576562 
L 220.776517 -312.757878 
L 221.716705 -313.949255 
L 222.656894 -315.14582 
L 223.597082 -316.310286 
L 224.537271 -317.445375 
L 225.47746 -318.588603 
L 226.417648 -319.702074 
L 227.357837 -320.805352 
L 228.298025 -321.936492 
L 229.238214 -323.008921 
L 230.178402 -324.081097 
L 231.118591 -325.139706 
L 232.05878 -326.197984 
L 232.998968 -327.227256 
L 233.939157 -328.247383 
L 234.879345 -329.227156 
L 235.819534 -330.224384 
L 236.759722 -331.20418 
L 237.699911 -332.133557 
L 238.6401 -333.048483 
L 239.580288 -333.967892 
L 240.520477 -334.87185 
L 241.460665 -335.744208 
L 242.400854 -336.590808 
L 243.341043 -337.442335 
L 244.281231 -338.302436 
L 245.22142 -339.111276 
L 246.161608 -339.930991 
L 247.101797 -340.700268 
L 248.041985 -341.492129 
L 248.982174 -342.224073 
L 249.922363 -342.964855 
L 250.862551 -343.708337 
L 251.80274 -344.425011 
L 252.742928 -345.142002 
L 253.683117 -345.821901 
L 254.623305 -346.46966 
L 255.563494 -347.131654 
L 256.503683 -347.756205 
L 257.443871 -348.348555 
L 258.38406 -348.919511 
L 259.324248 -349.481648 
L 260.264437 -350.062226 
L 261.204626 -350.610501 
L 262.144814 -351.139898 
L 263.085003 -351.654295 
L 264.025191 -352.144758 
L 264.96538 -352.620733 
L 265.905568 -353.106323 
L 266.845757 -353.545533 
L 267.785946 -354.002987 
L 268.726134 -354.426469 
L 269.666323 -354.815064 
L 270.606511 -355.187903 
L 271.5467 -355.560222 
L 272.486888 -355.89538 
L 273.427077 -356.258225 
L 274.367266 -356.59073 
L 275.307454 -356.882368 
L 276.247643 -357.204056 
L 277.187831 -357.518075 
L 278.12802 -357.780169 
L 279.068209 -358.048739 
L 280.008397 -358.271351 
L 280.948586 -358.469302 
L 281.888774 -358.665228 
L 282.828963 -358.854983 
L 283.769151 -359.015595 
L 284.70934 -359.166492 
L 285.649529 -359.273753 
L 286.589717 -359.354763 
L 287.529906 -359.469736 
L 288.470094 -359.556182 
L 289.410283 -359.640501 
L 290.350471 -359.713322 
L 291.29066 -359.742727 
L 292.230849 -359.736629 
L 293.171037 -359.704185 
L 294.111226 -359.660646 
L 295.051414 -359.602807 
L 295.991603 -359.528126 
L 296.931791 -359.427128 
L 297.87198 -359.294981 
L 298.812169 -359.18018 
L 299.752357 -359.031469 
L 300.692546 -358.863235 
L 301.632734 -358.670106 
L 302.572923 -358.44521 
L 303.513112 -358.187175 
L 304.4533 -357.902126 
L 305.393489 -357.616498 
L 306.333677 -357.305464 
L 307.273866 -356.985272 
L 308.214054 -356.640214 
L 309.154243 -356.297672 
L 310.094432 -355.90964 
L 311.03462 -355.508203 
L 311.974809 -355.066481 
L 312.914997 -354.613513 
L 313.855186 -354.156724 
L 314.795374 -353.640821 
L 315.735563 -353.165566 
L 316.675752 -352.670774 
L 317.61594 -352.153457 
L 318.556129 -351.615229 
L 319.496317 -351.050514 
L 320.436506 -350.464418 
L 321.376695 -349.866705 
L 322.316883 -349.279499 
L 323.257072 -348.684426 
L 324.19726 -348.082598 
L 325.137449 -347.473323 
L 326.077637 -346.878596 
L 327.017826 -346.22231 
L 327.958015 -345.609642 
L 328.898203 -344.973879 
L 329.838392 -344.337975 
L 330.77858 -343.678026 
L 331.718769 -343.006676 
L 332.658957 -342.34454 
L 333.599146 -341.676916 
L 334.539335 -340.997058 
L 335.479523 -340.31981 
L 336.419712 -339.611307 
L 337.3599 -338.911508 
L 338.300089 -338.210922 
L 339.240278 -337.510938 
L 340.180466 -336.808648 
L 341.120655 -336.110629 
L 342.060843 -335.400792 
L 343.001032 -334.690833 
L 343.94122 -333.927691 
L 344.881409 -333.208059 
L 345.821598 -332.466496 
L 346.761786 -331.722463 
L 347.701975 -330.938321 
L 348.642163 -330.212139 
L 349.582352 -329.459938 
L 350.52254 -328.689179 
L 351.462729 -327.920918 
L 352.402918 -327.139993 
L 353.343106 -326.351491 
L 354.283295 -325.562489 
L 355.223483 -324.740508 
L 356.163672 -323.914687 
L 357.103861 -323.088305 
L 358.044049 -322.283255 
L 358.984238 -321.416413 
L 359.924426 -320.556807 
L 360.864615 -319.71929 
L 361.804803 -318.872413 
L 362.744992 -318.017935 
L 363.685181 -317.166058 
L 364.625369 -316.290299 
L 365.565558 -315.450121 
L 366.505746 -314.579736 
L 367.445935 -313.731241 
L 368.386123 -312.842191 
L 369.326312 -311.920997 
L 370.266501 -311.055589 
L 371.206689 -310.171049 
L 372.146878 -309.327805 
L 373.087066 -308.456338 
L 374.027255 -307.612964 
L 374.967444 -306.77338 
L 375.907632 -305.964252 
L 376.847821 -305.131146 
L 377.788009 -304.317946 
L 378.728198 -303.541691 
L 379.668386 -302.760085 
L 380.608575 -301.985772 
L 381.548764 -301.244015 
L 382.488952 -300.504947 
L 383.429141 -299.788089 
L 384.369329 -299.061253 
L 385.309518 -298.358472 
L 386.249706 -297.665108 
L 387.189895 -296.98897 
L 388.130084 -296.343006 
L 389.070272 -295.720348 
L 390.010461 -295.124073 
L 390.950649 -294.518593 
L 391.890838 -293.908402 
L 392.831027 -293.31935 
L 393.771215 -292.723379 
L 394.711404 -292.150745 
L 395.651592 -291.619074 
L 396.591781 -291.099005 
L 397.531969 -290.550272 
L 398.472158 -290.02997 
L 399.412347 -289.531612 
L 400.352535 -289.029492 
L 401.292724 -288.482102 
L 402.232912 -287.937611 
L 403.173101 -287.42247 
L 404.113289 -286.894003 
L 405.053478 -286.353904 
L 405.993667 -285.827923 
L 406.933855 -285.276797 
L 407.874044 -284.745736 
L 408.814232 -284.155087 
L 409.754421 -283.554646 
L 410.69461 -282.977257 
L 411.634798 -282.385886 
L 412.574987 -281.752075 
L 413.515175 -281.095811 
L 414.455364 -280.41064 
L 415.395552 -279.713651 
L 416.335741 -279.006577 
L 417.27593 -278.250691 
L 418.216118 -277.472677 
L 419.156307 -276.674819 
L 420.096495 -275.857721 
L 421.036684 -275.025965 
L 421.976872 -274.167821 
L 422.917061 -273.286335 
L 423.85725 -272.357712 
L 424.797438 -271.396775 
L 425.737627 -270.400873 
L 426.677815 -269.369287 
L 427.618004 -268.351986 
L 428.558192 -267.245778 
L 429.498381 -266.126015 
L 430.43857 -264.966712 
L 431.378758 -263.795643 
L 432.318947 -262.59843 
L 433.259135 -261.384965 
L 434.199324 -260.162081 
L 435.139513 -258.901025 
L 436.079701 -257.587521 
L 437.01989 -256.257655 
L 437.960078 -254.914174 
L 438.900267 -253.557204 
L 439.840455 -252.16387 
L 440.780644 -250.73668 
L 441.720833 -249.311648 
L 442.661021 -247.86795 
L 443.60121 -246.406105 
L 444.541398 -244.920498 
L 445.481587 -243.439548 
L 446.421775 -241.932837 
L 447.361964 -240.416619 
L 448.302153 -238.865089 
L 449.242341 -237.331069 
L 450.18253 -235.773685 
L 451.122718 -234.207672 
L 452.062907 -232.651037 
L 453.003096 -231.103553 
L 453.943284 -229.541939 
L 454.883473 -228.001783 
L 455.823661 -226.449007 
L 456.76385 -224.899881 
L 457.704038 -223.336071 
L 458.644227 -221.808021 
L 459.584416 -220.275686 
L 460.524604 -218.757028 
L 461.464793 -217.249641 
L 462.404981 -215.768117 
L 463.34517 -214.299265 
L 464.285358 -212.81461 
L 465.225547 -211.349569 
L 466.165736 -209.90452 
L 467.105924 -208.459911 
L 468.046113 -207.062126 
L 468.986301 -205.660851 
L 469.92649 -204.289128 
L 470.866679 -202.941357 
L 471.806867 -201.618 
L 472.747056 -200.312402 
L 473.687244 -199.031518 
L 474.627433 -197.772323 
L 475.567621 -196.542139 
L 476.50781 -195.331271 
L 477.447999 -194.143188 
L 478.388187 -192.977979 
L 479.328376 -191.849415 
L 480.268564 -190.735478 
L 481.208753 -189.636655 
L 482.148941 -188.567468 
L 483.08913 -187.511717 
L 484.029319 -186.483809 
L 484.969507 -185.503908 
L 485.909696 -184.528206 
L 486.849884 -183.565964 
L 487.790073 -182.627761 
L 488.730262 -181.716727 
L 489.67045 -180.816068 
L 490.610639 -179.958494 
L 491.550827 -179.096217 
L 492.491016 -178.282262 
L 493.431204 -177.474501 
L 494.371393 -176.687372 
L 495.311582 -175.921134 
L 496.25177 -175.185099 
L 497.191959 -174.457506 
L 498.132147 -173.752384 
L 499.072336 -173.046405 
L 500.012524 -172.39641 
L 500.952713 -171.764786 
L 501.892902 -171.117153 
L 502.83309 -170.510416 
L 503.773279 -169.914356 
L 504.713467 -169.315611 
L 505.653656 -168.775253 
L 506.593845 -168.233859 
L 507.534033 -167.731067 
L 508.474222 -167.206081 
L 509.41441 -166.738503 
L 510.354599 -166.321426 
L 511.294787 -165.906765 
L 512.234976 -165.515767 
L 513.175165 -165.103928 
L 514.115353 -164.756262 
L 515.055542 -164.416041 
L 515.99573 -164.085967 
L 516.935919 -163.7553 
L 517.876107 -163.485316 
L 518.816296 -163.21585 
L 519.756485 -162.974888 
L 520.696673 -162.740366 
L 521.636862 -162.56279 
L 522.57705 -162.387184 
L 523.517239 -162.250596 
L 524.457428 -162.130679 
L 525.397616 -162.029035 
L 526.337805 -161.942477 
L 527.277993 -161.877173 
L 528.218182 -161.83731 
L 528.218182 -63.975887 
L 528.218182 -63.975887 
L 527.277993 -63.975887 
L 526.337805 -63.975887 
L 525.397616 -63.975887 
L 524.457428 -63.975887 
L 523.517239 -63.975887 
L 522.57705 -63.975887 
L 521.636862 -63.975887 
L 520.696673 -63.975887 
L 519.756485 -63.975887 
L 518.816296 -63.975887 
L 517.876107 -63.975887 
L 516.935919 -63.975887 
L 515.99573 -63.975887 
L 515.055542 -63.975887 
L 514.115353 -63.975887 
L 513.175165 -63.975887 
L 512.234976 -63.975887 
L 511.294787 -63.975887 
L 510.354599 -63.975887 
L 509.41441 -63.975887 
L 508.474222 -63.975887 
L 507.534033 -63.975887 
L 506.593845 -63.975887 
L 505.653656 -63.975887 
L 504.713467 -63.975887 
L 503.773279 -63.975887 
L 502.83309 -63.975887 
L 501.892902 -63.975887 
L 500.952713 -63.975887 
L 500.012524 -63.975887 
L 499.072336 -63.975887 
L 498.132147 -63.975887 
L 497.191959 -63.975887 
L 496.25177 -63.975887 
L 495.311582 -63.975887 
L 494.371393 -63.975887 
L 493.431204 -63.975887 
L 492.491016 -63.975887 
L 491.550827 -63.975887 
L 490.610639 -63.975887 
L 489.67045 -63.975887 
L 488.730262 -63.975887 
L 487.790073 -63.975887 
L 486.849884 -63.975887 
L 485.909696 -63.975887 
L 484.969507 -63.975887 
L 484.029319 -63.975887 
L 483.08913 -63.975887 
L 482.148941 -63.975887 
L 481.208753 -63.975887 
L 480.268564 -63.975887 
L 479.328376 -63.975887 
L 478.388187 -63.975887 
L 477.447999 -63.975887 
L 476.50781 -63.975887 
L 475.567621 -63.975887 
L 474.627433 -63.975887 
L 473.687244 -63.975887 
L 472.747056 -63.975887 
L 471.806867 -63.975887 
L 470.866679 -63.975887 
L 469.92649 -63.975887 
L 468.986301 -63.975887 
L 468.046113 -63.975887 
L 467.105924 -63.975887 
L 466.165736 -63.975887 
L 465.225547 -63.975887 
L 464.285358 -63.975887 
L 463.34517 -63.975887 
L 462.404981 -63.975887 
L 461.464793 -63.975887 
L 460.524604 -63.975887 
L 459.584416 -63.975887 
L 458.644227 -63.975887 
L 457.704038 -63.975887 
L 456.76385 -63.975887 
L 455.823661 -63.975887 
L 454.883473 -63.975887 
L 453.943284 -63.975887 
L 453.003096 -63.975887 
L 452.062907 -63.975887 
L 451.122718 -63.975887 
L 450.18253 -63.975887 
L 449.242341 -63.975887 
L 448.302153 -63.975887 
L 447.361964 -63.975887 
L 446.421775 -63.975887 
L 445.481587 -63.975887 
L 444.541398 -63.975887 
L 443.60121 -63.975887 
L 442.661021 -63.975887 
L 441.720833 -63.975887 
L 440.780644 -63.975887 
L 439.840455 -63.975887 
L 438.900267 -63.975887 
L 437.960078 -63.975887 
L 437.01989 -63.975887 
L 436.079701 -63.975887 
L 435.139513 -63.975887 
L 434.199324 -63.975887 
L 433.259135 -63.975887 
L 432.318947 -63.975887 
L 431.378758 -63.975887 
L 430.43857 -63.975887 
L 429.498381 -63.975887 
L 428.558192 -63.975887 
L 427.618004 -63.975887 
L 426.677815 -63.975887 
L 425.737627 -63.975887 
L 424.797438 -63.975887 
L 423.85725 -63.975887 
L 422.917061 -63.975887 
L 421.976872 -63.975887 
L 421.036684 -63.975887 
L 420.096495 -63.975887 
L 419.156307 -63.975887 
L 418.216118 -63.975887 
L 417.27593 -63.975887 
L 416.335741 -63.975887 
L 415.395552 -63.975887 
L 414.455364 -63.975887 
L 413.515175 -63.975887 
L 412.574987 -63.975887 
L 411.634798 -63.975887 
L 410.69461 -63.975887 
L 409.754421 -63.975887 
L 408.814232 -63.975887 
L 407.874044 -63.975887 
L 406.933855 -63.975887 
L 405.993667 -63.975887 
L 405.053478 -63.975887 
L 404.113289 -63.975887 
L 403.173101 -63.975887 
L 402.232912 -63.975887 
L 401.292724 -63.975887 
L 400.352535 -63.975887 
L 399.412347 -63.975887 
L 398.472158 -63.975887 
L 397.531969 -63.975887 
L 396.591781 -63.975887 
L 395.651592 -63.975887 
L 394.711404 -63.975887 
L 393.771215 -63.975887 
L 392.831027 -63.975887 
L 391.890838 -63.975887 
L 390.950649 -63.975887 
L 390.010461 -63.975887 
L 389.070272 -63.975887 
L 388.130084 -63.975887 
L 387.189895 -63.975887 
L 386.249706 -63.975887 
L 385.309518 -63.975887 
L 384.369329 -63.975887 
L 383.429141 -63.975887 
L 382.488952 -63.975887 
L 381.548764 -63.975887 
L 380.608575 -63.975887 
L 379.668386 -63.975887 
L 378.728198 -63.975887 
L 377.788009 -63.975887 
L 376.847821 -63.975887 
L 375.907632 -63.975887 
L 374.967444 -63.975887 
L 374.027255 -63.975887 
L 373.087066 -63.975887 
L 372.146878 -63.975887 
L 371.206689 -63.975887 
L 370.266501 -63.975887 
L 369.326312 -63.975887 
L 368.386123 -63.975887 
L 367.445935 -63.975887 
L 366.505746 -63.975887 
L 365.565558 -63.975887 
L 364.625369 -63.975887 
L 363.685181 -63.975887 
L 362.744992 -63.975887 
L 361.804803 -63.975887 
L 360.864615 -63.975887 
L 359.924426 -63.975887 
L 358.984238 -63.975887 
L 358.044049 -63.975887 
L 357.103861 -63.975887 
L 356.163672 -63.975887 
L 355.223483 -63.975887 
L 354.283295 -63.975887 
L 353.343106 -63.975887 
L 352.402918 -63.975887 
L 351.462729 -63.975887 
L 350.52254 -63.975887 
L 349.582352 -63.975887 
L 348.642163 -63.975887 
L 347.701975 -63.975887 
L 346.761786 -63.975887 
L 345.821598 -63.975887 
L 344.881409 -63.975887 
L 343.94122 -63.975887 
L 343.001032 -63.975887 
L 342.060843 -63.975887 
L 341.120655 -63.975887 
L 340.180466 -63.975887 
L 339.240278 -63.975887 
L 338.300089 -63.975887 
L 337.3599 -63.975887 
L 336.419712 -63.975887 
L 335.479523 -63.975887 
L 334.539335 -63.975887 
L 333.599146 -63.975887 
L 332.658957 -63.975887 
L 331.718769 -63.975887 
L 330.77858 -63.975887 
L 329.838392 -63.975887 
L 328.898203 -63.975887 
L 327.958015 -63.975887 
L 327.017826 -63.975887 
L 326.077637 -63.975887 
L 325.137449 -63.975887 
L 324.19726 -63.975887 
L 323.257072 -63.975887 
L 322.316883 -63.975887 
L 321.376695 -63.975887 
L 320.436506 -63.975887 
L 319.496317 -63.975887 
L 318.556129 -63.975887 
L 317.61594 -63.975887 
L 316.675752 -63.975887 
L 315.735563 -63.975887 
L 314.795374 -63.975887 
L 313.855186 -63.975887 
L 312.914997 -63.975887 
L 311.974809 -63.975887 
L 311.03462 -63.975887 
L 310.094432 -63.975887 
L 309.154243 -63.975887 
L 308.214054 -63.975887 
L 307.273866 -63.975887 
L 306.333677 -63.975887 
L 305.393489 -63.975887 
L 304.4533 -63.975887 
L 303.513112 -63.975887 
L 302.572923 -63.975887 
L 301.632734 -63.975887 
L 300.692546 -63.975887 
L 299.752357 -63.975887 
L 298.812169 -63.975887 
L 297.87198 -63.975887 
L 296.931791 -63.975887 
L 295.991603 -63.975887 
L 295.051414 -63.975887 
L 294.111226 -63.975887 
L 293.171037 -63.975887 
L 292.230849 -63.975887 
L 291.29066 -63.975887 
L 290.350471 -63.975887 
L 289.410283 -63.975887 
L 288.470094 -63.975887 
L 287.529906 -63.975887 
L 286.589717 -63.975887 
L 285.649529 -63.975887 
L 284.70934 -63.975887 
L 283.769151 -63.975887 
L 282.828963 -63.975887 
L 281.888774 -63.975887 
L 280.948586 -63.975887 
L 280.008397 -63.975887 
L 279.068209 -63.975887 
L 278.12802 -63.975887 
L 277.187831 -63.975887 
L 276.247643 -63.975887 
L 275.307454 -63.975887 
L 274.367266 -63.975887 
L 273.427077 -63.975887 
L 272.486888 -63.975887 
L 271.5467 -63.975887 
L 270.606511 -63.975887 
L 269.666323 -63.975887 
L 268.726134 -63.975887 
L 267.785946 -63.975887 
L 266.845757 -63.975887 
L 265.905568 -63.975887 
L 264.96538 -63.975887 
L 264.025191 -63.975887 
L 263.085003 -63.975887 
L 262.144814 -63.975887 
L 261.204626 -63.975887 
L 260.264437 -63.975887 
L 259.324248 -63.975887 
L 258.38406 -63.975887 
L 257.443871 -63.975887 
L 256.503683 -63.975887 
L 255.563494 -63.975887 
L 254.623305 -63.975887 
L 253.683117 -63.975887 
L 252.742928 -63.975887 
L 251.80274 -63.975887 
L 250.862551 -63.975887 
L 249.922363 -63.975887 
L 248.982174 -63.975887 
L 248.041985 -63.975887 
L 247.101797 -63.975887 
L 246.161608 -63.975887 
L 245.22142 -63.975887 
L 244.281231 -63.975887 
L 243.341043 -63.975887 
L 242.400854 -63.975887 
L 241.460665 -63.975887 
L 240.520477 -63.975887 
L 239.580288 -63.975887 
L 238.6401 -63.975887 
L 237.699911 -63.975887 
L 236.759722 -63.975887 
L 235.819534 -63.975887 
L 234.879345 -63.975887 
L 233.939157 -63.975887 
L 232.998968 -63.975887 
L 232.05878 -63.975887 
L 231.118591 -63.975887 
L 230.178402 -63.975887 
L 229.238214 -63.975887 
L 228.298025 -63.975887 
L 227.357837 -63.975887 
L 226.417648 -63.975887 
L 225.47746 -63.975887 
L 224.537271 -63.975887 
L 223.597082 -63.975887 
L 222.656894 -63.975887 
L 221.716705 -63.975887 
L 220.776517 -63.975887 
L 219.836328 -63.975887 
L 218.896139 -63.975887 
L 217.955951 -63.975887 
L 217.015762 -63.975887 
L 216.075574 -63.975887 
L 215.135385 -63.975887 
L 214.195197 -63.975887 
L 213.255008 -63.975887 
L 212.314819 -63.975887 
L 211.374631 -63.975887 
L 210.434442 -63.975887 
L 209.494254 -63.975887 
L 208.554065 -63.975887 
L 207.613877 -63.975887 
L 206.673688 -63.975887 
L 205.733499 -63.975887 
L 204.793311 -63.975887 
L 203.853122 -63.975887 
L 202.912934 -63.975887 
L 201.972745 -63.975887 
L 201.032556 -63.975887 
L 200.092368 -63.975887 
L 199.152179 -63.975887 
L 198.211991 -63.975887 
L 197.271802 -63.975887 
L 196.331614 -63.975887 
L 195.391425 -63.975887 
L 194.451236 -63.975887 
L 193.511048 -63.975887 
L 192.570859 -63.975887 
L 191.630671 -63.975887 
L 190.690482 -63.975887 
L 189.750294 -63.975887 
L 188.810105 -63.975887 
L 187.869916 -63.975887 
L 186.929728 -63.975887 
L 185.989539 -63.975887 
L 185.049351 -63.975887 
L 184.109162 -63.975887 
L 183.168973 -63.975887 
L 182.228785 -63.975887 
L 181.288596 -63.975887 
L 180.348408 -63.975887 
L 179.408219 -63.975887 
L 178.468031 -63.975887 
L 177.527842 -63.975887 
L 176.587653 -63.975887 
L 175.647465 -63.975887 
L 174.707276 -63.975887 
L 173.767088 -63.975887 
L 172.826899 -63.975887 
L 171.886711 -63.975887 
L 170.946522 -63.975887 
L 170.006333 -63.975887 
L 169.066145 -63.975887 
L 168.125956 -63.975887 
L 167.185768 -63.975887 
L 166.245579 -63.975887 
L 165.30539 -63.975887 
L 164.365202 -63.975887 
L 163.425013 -63.975887 
L 162.484825 -63.975887 
L 161.544636 -63.975887 
L 160.604448 -63.975887 
L 159.664259 -63.975887 
L 158.72407 -63.975887 
L 157.783882 -63.975887 
L 156.843693 -63.975887 
L 155.903505 -63.975887 
L 154.963316 -63.975887 
L 154.023128 -63.975887 
L 153.082939 -63.975887 
L 152.14275 -63.975887 
L 151.202562 -63.975887 
L 150.262373 -63.975887 
L 149.322185 -63.975887 
L 148.381996 -63.975887 
L 147.441808 -63.975887 
L 146.501619 -63.975887 
L 145.56143 -63.975887 
L 144.621242 -63.975887 
L 143.681053 -63.975887 
L 142.740865 -63.975887 
L 141.800676 -63.975887 
L 140.860487 -63.975887 
L 139.920299 -63.975887 
L 138.98011 -63.975887 
L 138.039922 -63.975887 
L 137.099733 -63.975887 
L 136.159545 -63.975887 
L 135.219356 -63.975887 
L 134.279167 -63.975887 
L 133.338979 -63.975887 
L 132.39879 -63.975887 
L 131.458602 -63.975887 
L 130.518413 -63.975887 
L 129.578225 -63.975887 
L 128.638036 -63.975887 
L 127.697847 -63.975887 
L 126.757659 -63.975887 
L 125.81747 -63.975887 
L 124.877282 -63.975887 
L 123.937093 -63.975887 
L 122.996904 -63.975887 
L 122.056716 -63.975887 
L 121.116527 -63.975887 
L 120.176339 -63.975887 
L 119.23615 -63.975887 
L 118.295962 -63.975887 
L 117.355773 -63.975887 
L 116.415584 -63.975887 
L 115.475396 -63.975887 
L 114.535207 -63.975887 
L 113.595019 -63.975887 
L 112.65483 -63.975887 
L 111.714642 -63.975887 
L 110.774453 -63.975887 
L 109.834264 -63.975887 
L 108.894076 -63.975887 
L 107.953887 -63.975887 
L 107.013699 -63.975887 
L 106.07351 -63.975887 
L 105.133321 -63.975887 
L 104.193133 -63.975887 
L 103.252944 -63.975887 
L 102.312756 -63.975887 
L 101.372567 -63.975887 
L 100.432379 -63.975887 
L 99.49219 -63.975887 
L 98.552001 -63.975887 
L 97.611813 -63.975887 
L 96.671624 -63.975887 
L 95.731436 -63.975887 
L 94.791247 -63.975887 
L 93.851059 -63.975887 
L 92.91087 -63.975887 
L 91.970681 -63.975887 
L 91.030493 -63.975887 
L 90.090304 -63.975887 
L 89.150116 -63.975887 
L 88.209927 -63.975887 
L 87.269738 -63.975887 
L 86.32955 -63.975887 
L 85.389361 -63.975887 
L 84.449173 -63.975887 
L 83.508984 -63.975887 
L 82.568796 -63.975887 
L 81.628607 -63.975887 
L 80.688418 -63.975887 
L 79.74823 -63.975887 
L 78.808041 -63.975887 
L 77.867853 -63.975887 
L 76.927664 -63.975887 
L 75.987476 -63.975887 
L 75.047287 -63.975887 
L 74.107098 -63.975887 
L 73.16691 -63.975887 
L 72.226721 -63.975887 
L 71.286533 -63.975887 
L 70.346344 -63.975887 
L 69.406155 -63.975887 
L 68.465967 -63.975887 
L 67.525778 -63.975887 
L 66.58559 -63.975887 
L 65.645401 -63.975887 
L 64.705213 -63.975887 
L 63.765024 -63.975887 
L 62.824835 -63.975887 
L 61.884647 -63.975887 
L 60.944458 -63.975887 
L 60.00427 -63.975887 
L 59.064081 -63.975887 
L 58.123893 -63.975887 
L 57.183704 -63.975887 
L 56.243515 -63.975887 
L 55.303327 -63.975887 
L 54.363138 -63.975887 
L 53.42295 -63.975887 
L 52.482761 -63.975887 
L 51.542572 -63.975887 
L 50.602384 -63.975887 
L 49.662195 -63.975887 
L 48.722007 -63.975887 
L 47.781818 -63.975887 
z
" style="stroke: #6cb7ff; stroke-opacity: 0.6; stroke-width: 0.3"/>
    </defs>
    <g clip-path="url(#p52cdb8c42b)">
     <use xlink:href="#m09864234a9" x="0" y="432" style="fill: #6cb7ff; fill-opacity: 0.6; stroke: #6cb7ff; stroke-opacity: 0.6; stroke-width: 0.3"/>
    </g>
   </g>
   <g id="line2d_15">
    <path d="M 47.781818 287.0225 
L 51.542572 286.892246 
L 54.363138 286.629788 
L 58.123893 286.053121 
L 60.944458 285.45824 
L 65.645401 284.068864 
L 68.465967 283.015413 
L 71.286533 281.775279 
L 74.107098 280.287074 
L 77.867853 277.957125 
L 81.628607 275.265855 
L 85.389361 272.206023 
L 89.150116 268.750061 
L 93.851059 264.003351 
L 97.611813 259.894634 
L 103.252944 253.410066 
L 111.714642 243.492104 
L 117.355773 237.085163 
L 122.996904 231.098362 
L 127.697847 226.467442 
L 132.39879 222.111764 
L 138.039922 217.240971 
L 146.501619 210.399399 
L 154.963316 203.622689 
L 160.604448 198.767054 
L 164.365202 195.257503 
L 168.125956 191.54266 
L 172.826899 186.439291 
L 177.527842 180.827781 
L 181.288596 175.938159 
L 186.929728 168.146895 
L 191.630671 161.307655 
L 197.271802 152.801097 
L 208.554065 135.924112 
L 213.255008 129.269063 
L 217.955951 122.899615 
L 222.656894 116.85418 
L 227.357837 111.194648 
L 230.178402 107.918903 
L 234.879345 102.772844 
L 237.699911 99.866443 
L 242.400854 95.409192 
L 247.101797 91.299732 
L 249.922363 89.035145 
L 253.683117 86.178099 
L 257.443871 83.651445 
L 263.085003 80.345705 
L 267.785946 77.997013 
L 270.606511 76.812097 
L 274.367266 75.40927 
L 280.008397 73.728649 
L 284.70934 72.833508 
L 290.350471 72.286678 
L 293.171037 72.295815 
L 296.931791 72.572872 
L 301.632734 73.329894 
L 304.4533 74.097874 
L 307.273866 75.014728 
L 311.03462 76.491797 
L 314.795374 78.359179 
L 317.61594 79.846543 
L 320.436506 81.535582 
L 328.898203 87.026121 
L 333.599146 90.323084 
L 341.120655 95.889371 
L 346.761786 100.277537 
L 358.984238 110.583587 
L 377.788009 127.682054 
L 383.429141 132.211911 
L 387.189895 135.01103 
L 390.950649 137.481407 
L 394.711404 139.849255 
L 409.754421 148.445354 
L 412.574987 150.247925 
L 416.335741 152.993423 
L 420.096495 156.142279 
L 422.917061 158.713665 
L 425.737627 161.599127 
L 429.498381 165.873985 
L 434.199324 171.837919 
L 437.01989 175.742345 
L 440.780644 181.26332 
L 445.481587 188.560452 
L 451.122718 197.792328 
L 461.464793 214.750359 
L 468.046113 224.937874 
L 471.806867 230.382 
L 475.567621 235.457861 
L 479.328376 240.150585 
L 483.08913 244.488283 
L 485.909696 247.471794 
L 489.67045 251.183932 
L 493.431204 254.525499 
L 497.191959 257.542494 
L 500.952713 260.235214 
L 503.773279 262.085644 
L 506.593845 263.766141 
L 510.354599 265.678574 
L 514.115353 267.243738 
L 517.876107 268.514684 
L 520.696673 269.259634 
L 524.457428 269.869321 
L 527.277993 270.122827 
L 528.218182 270.16269 
L 528.218182 270.16269 
" clip-path="url(#p52cdb8c42b)" style="fill: none; stroke: #7570b3; stroke-width: 2; stroke-linecap: round"/>
   </g>
   <g id="line2d_16">
    <path d="M 47.781818 368.834129 
L 47.781818 287.0225 
" clip-path="url(#p52cdb8c42b)" style="fill: none; stroke: #7570b3; stroke-width: 2; stroke-linecap: round"/>
   </g>
   <g id="line2d_17">
    <path d="M 528.218182 369.002727 
L 528.218182 270.16269 
" clip-path="url(#p52cdb8c42b)" style="fill: none; stroke: #7570b3; stroke-width: 2; stroke-linecap: round"/>
   </g>
   <g id="line2d_18">
    <defs>
     <path id="md035d37667" d="M 0 3.5 
C 0.928211 3.5 1.81853 3.131218 2.474874 2.474874 
C 3.131218 1.81853 3.5 0.928211 3.5 0 
C 3.5 -0.928211 3.131218 -1.81853 2.474874 -2.474874 
C 1.81853 -3.131218 0.928211 -3.5 0 -3.5 
C -0.928211 -3.5 -1.81853 -3.131218 -2.474874 -2.474874 
C -3.131218 -1.81853 -3.5 -0.928211 -3.5 0 
C -3.5 0.928211 -3.131218 1.81853 -2.474874 2.474874 
C -1.81853 3.131218 -0.928211 3.5 0 3.5 
z
"/>
    </defs>
    <g clip-path="url(#p52cdb8c42b)">
     <use xlink:href="#md035d37667" x="298.205031" y="368.024113" style="fill: #7570b3"/>
    </g>
   </g>
   <g id="patch_3">
    <path d="M 23.76 383.84 
L 552.24 383.84 
" style="fill: none; stroke: #333333; stroke-width: 1.5; stroke-linejoin: miter; stroke-linecap: square"/>
   </g>
   <g id="text_8">
    <!-- $x_2^2x_3$ -->
    <g style="fill: #262626" transform="translate(257.48 49.58)">
     <text>
      <tspan x="0" y="-0.734375" style="font-style: oblique; font-size: 28px; font-family: 'DejaVu Sans'; fill: #262626">x</tspan>
      <tspan x="31.056576" y="-0.734375" style="font-style: oblique; font-size: 28px; font-family: 'DejaVu Sans'; fill: #262626">x</tspan>
      <tspan x="16.570312" y="6.921875" style="font-size: 19.6px; font-family: 'DejaVu Sans'; fill: #262626">2</tspan>
      <tspan x="17.820833" y="-11.453125" style="font-size: 19.6px; font-family: 'DejaVu Sans'; fill: #262626">2</tspan>
      <tspan x="47.626888" y="3.859375" style="font-size: 19.6px; font-family: 'DejaVu Sans'; fill: #262626">3</tspan>
     </text>
    </g>
   </g>
  </g>
 </g>
 <defs>
  <clipPath id="p52cdb8c42b">
   <rect x="23.76" y="57.42" width="528.48" height="326.42"/>
  </clipPath>
 </defs>
</svg>
