<?xml version="1.0" encoding="utf-8" standalone="no"?>
<!DOCTYPE svg PUBLIC "-//W3C//DTD SVG 1.1//EN"
  "http://www.w3.org/Graphics/SVG/1.1/DTD/svg11.dtd">
<svg xmlns:xlink="http://www.w3.org/1999/xlink" width="576pt" height="432pt" viewBox="0 0 576 432" xmlns="http://www.w3.org/2000/svg" version="1.1">
 <metadata>
  <rdf:RDF xmlns:dc="http://purl.org/dc/elements/1.1/" xmlns:cc="http://creativecommons.org/ns#" xmlns:rdf="http://www.w3.org/1999/02/22-rdf-syntax-ns#">
   <cc:Work>
    <dc:type rdf:resource="http://purl.org/dc/dcmitype/StillImage"/>
    <dc:date>2025-09-22T23:00:34.645117</dc:date>
    <dc:format>image/svg+xml</dc:format>
    <dc:creator>
     <cc:Agent>
      <dc:title>Matplotlib v3.10.0, https://matplotlib.org/</dc:title>
     </cc:Agent>
    </dc:creator>
   </cc:Work>
  </rdf:RDF>
 </metadata>
 <defs>
  <style type="text/css">*{stroke-linejoin: round; stroke-linecap: butt}</style>
 </defs>
 <g id="figure_1">
  <g id="patch_1">
   <path d="M 0 432 
L 576 432 
L 576 0 
L 0 0 
L 0 432 
z
" style="fill: none; opacity: 0"/>
  </g>
  <g id="axes_1">
   <g id="patch_2">
    <path d="M 23.76 383.84 
L 535.523268 383.84 
L 535.523268 57.42 
L 23.76 57.42 
L 23.76 383.84 
z
" style="fill: none"/>
   </g>
   <g id="matplotlib.axis_1">
    <g id="xtick_1">
     <g id="line2d_1">
      <path d="M 76.294107 383.84 
L 76.294107 57.42 
" clip-path="url(#pbc96349b1f)" style="fill: none; stroke: #ffffff; stroke-opacity: 0.4; stroke-linecap: round"/>
     </g>
     <g id="line2d_2"/>
     <g id="text_1">
      <text style="font-size: 18px; font-family: 'DejaVu Serif', 'Times New Roman', serif; text-anchor: middle; fill: #262626" x="76.294107" y="404.517187" transform="rotate(-0 76.294107 404.517187)">−1.03</text>
     </g>
    </g>
    <g id="xtick_2">
     <g id="line2d_3">
      <path d="M 150.758561 383.84 
L 150.758561 57.42 
" clip-path="url(#pbc96349b1f)" style="fill: none; stroke: #ffffff; stroke-opacity: 0.4; stroke-linecap: round"/>
     </g>
     <g id="line2d_4"/>
     <g id="text_2">
      <text style="font-size: 18px; font-family: 'DejaVu Serif', 'Times New Roman', serif; text-anchor: middle; fill: #262626" x="150.758561" y="404.517187" transform="rotate(-0 150.758561 404.517187)">−1.02</text>
     </g>
    </g>
    <g id="xtick_3">
     <g id="line2d_5">
      <path d="M 225.223015 383.84 
L 225.223015 57.42 
" clip-path="url(#pbc96349b1f)" style="fill: none; stroke: #ffffff; stroke-opacity: 0.4; stroke-linecap: round"/>
     </g>
     <g id="line2d_6"/>
     <g id="text_3">
      <text style="font-size: 18px; font-family: 'DejaVu Serif', 'Times New Roman', serif; text-anchor: middle; fill: #262626" x="225.223015" y="404.517187" transform="rotate(-0 225.223015 404.517187)">−1.01</text>
     </g>
    </g>
    <g id="xtick_4">
     <g id="line2d_7">
      <path d="M 299.687469 383.84 
L 299.687469 57.42 
" clip-path="url(#pbc96349b1f)" style="fill: none; stroke: #ffffff; stroke-opacity: 0.4; stroke-linecap: round"/>
     </g>
     <g id="line2d_8"/>
     <g id="text_4">
      <text style="font-size: 18px; font-family: 'DejaVu Serif', 'Times New Roman', serif; text-anchor: middle; fill: #262626" x="299.687469" y="404.517187" transform="rotate(-0 299.687469 404.517187)">−1.00</text>
     </g>
    </g>
    <g id="xtick_5">
     <g id="line2d_9">
      <path d="M 374.151923 383.84 
L 374.151923 57.42 
" clip-path="url(#pbc96349b1f)" style="fill: none; stroke: #ffffff; stroke-opacity: 0.4; stroke-linecap: round"/>
     </g>
     <g id="line2d_10"/>
     <g id="text_5">
      <text style="font-size: 18px; font-family: 'DejaVu Serif', 'Times New Roman', serif; text-anchor: middle; fill: #262626" x="374.151923" y="404.517187" transform="rotate(-0 374.151923 404.517187)">−0.99</text>
     </g>
    </g>
    <g id="xtick_6">
     <g id="line2d_11">
      <path d="M 448.616377 383.84 
L 448.616377 57.42 
" clip-path="url(#pbc96349b1f)" style="fill: none; stroke: #ffffff; stroke-opacity: 0.4; stroke-linecap: round"/>
     </g>
     <g id="line2d_12"/>
     <g id="text_6">
      <text style="font-size: 18px; font-family: 'DejaVu Serif', 'Times New Roman', serif; text-anchor: middle; fill: #262626" x="448.616377" y="404.517187" transform="rotate(-0 448.616377 404.517187)">−0.98</text>
     </g>
    </g>
    <g id="xtick_7">
     <g id="line2d_13">
      <path d="M 523.080831 383.84 
L 523.080831 57.42 
" clip-path="url(#pbc96349b1f)" style="fill: none; stroke: #ffffff; stroke-opacity: 0.4; stroke-linecap: round"/>
     </g>
     <g id="line2d_14"/>
     <g id="text_7">
      <text style="font-size: 18px; font-family: 'DejaVu Serif', 'Times New Roman', serif; text-anchor: middle; fill: #262626" x="523.080831" y="404.517187" transform="rotate(-0 523.080831 404.517187)">−0.97</text>
     </g>
    </g>
   </g>
   <g id="matplotlib.axis_2"/>
   <g id="FillBetweenPolyCollection_1">
    <defs>
     <path id="m42c9265d07" d="M 47.021967 -64.073998 
L 47.021967 -167.087365 
L 47.932416 -167.105848 
L 48.842864 -167.143641 
L 49.753313 -167.176665 
L 50.663762 -167.235383 
L 51.574211 -167.306419 
L 52.484659 -167.392398 
L 53.395108 -167.486678 
L 54.305557 -167.598995 
L 55.216006 -167.748744 
L 56.126455 -167.902861 
L 57.036903 -168.085344 
L 57.947352 -168.28928 
L 58.857801 -168.479551 
L 59.76825 -168.672277 
L 60.678699 -168.876975 
L 61.589147 -169.097119 
L 62.499596 -169.346282 
L 63.410045 -169.597103 
L 64.320494 -169.863221 
L 65.230943 -170.130034 
L 66.141391 -170.417933 
L 67.05184 -170.713584 
L 67.962289 -171.016913 
L 68.872738 -171.329335 
L 69.783187 -171.638131 
L 70.693635 -171.953551 
L 71.604084 -172.293121 
L 72.514533 -172.633466 
L 73.424982 -172.979668 
L 74.335431 -173.34495 
L 75.245879 -173.709722 
L 76.156328 -174.086925 
L 77.066777 -174.463463 
L 77.977226 -174.842272 
L 78.887675 -175.235084 
L 79.798123 -175.61799 
L 80.708572 -176.025852 
L 81.619021 -176.416719 
L 82.52947 -176.828745 
L 83.439919 -177.234573 
L 84.350367 -177.644255 
L 85.260816 -178.054593 
L 86.171265 -178.472462 
L 87.081714 -178.890685 
L 87.992162 -179.316218 
L 88.902611 -179.764233 
L 89.81306 -180.207342 
L 90.723509 -180.655141 
L 91.633958 -181.10761 
L 92.544406 -181.581017 
L 93.454855 -182.040887 
L 94.365304 -182.524297 
L 95.275753 -183.002546 
L 96.186202 -183.508502 
L 97.09665 -184.012323 
L 98.007099 -184.519834 
L 98.917548 -185.045345 
L 99.827997 -185.587625 
L 100.738446 -186.151955 
L 101.648894 -186.727064 
L 102.559343 -187.317066 
L 103.469792 -187.915587 
L 104.380241 -188.553667 
L 105.29069 -189.195363 
L 106.201138 -189.841624 
L 107.111587 -190.5037 
L 108.022036 -191.194733 
L 108.932485 -191.904611 
L 109.842934 -192.621243 
L 110.753382 -193.365334 
L 111.663831 -194.136645 
L 112.57428 -194.919316 
L 113.484729 -195.725578 
L 114.395178 -196.537643 
L 115.305626 -197.399578 
L 116.216075 -198.296165 
L 117.126524 -199.209724 
L 118.036973 -200.134188 
L 118.947422 -201.081019 
L 119.85787 -202.0603 
L 120.768319 -203.058783 
L 121.678768 -204.109797 
L 122.589217 -205.164255 
L 123.499666 -206.253481 
L 124.410114 -207.372196 
L 125.320563 -208.500118 
L 126.231012 -209.652903 
L 127.141461 -210.857055 
L 128.051909 -212.078503 
L 128.962358 -213.310442 
L 129.872807 -214.576032 
L 130.783256 -215.870646 
L 131.693705 -217.177659 
L 132.604153 -218.482181 
L 133.514602 -219.83344 
L 134.425051 -221.192232 
L 135.3355 -222.570773 
L 136.245949 -223.962789 
L 137.156397 -225.399395 
L 138.066846 -226.83575 
L 138.977295 -228.285241 
L 139.887744 -229.74213 
L 140.798193 -231.214267 
L 141.708641 -232.700708 
L 142.61909 -234.179102 
L 143.529539 -235.656632 
L 144.439988 -237.169471 
L 145.350437 -238.678747 
L 146.260885 -240.179329 
L 147.171334 -241.672356 
L 148.081783 -243.193988 
L 148.992232 -244.69977 
L 149.902681 -246.201452 
L 150.813129 -247.694711 
L 151.723578 -249.188491 
L 152.634027 -250.65673 
L 153.544476 -252.128879 
L 154.454925 -253.601605 
L 155.365373 -255.056372 
L 156.275822 -256.494349 
L 157.186271 -257.925283 
L 158.09672 -259.326328 
L 159.007169 -260.702809 
L 159.917617 -262.110584 
L 160.828066 -263.449215 
L 161.738515 -264.768112 
L 162.648964 -266.102391 
L 163.559412 -267.393269 
L 164.469861 -268.655911 
L 165.38031 -269.9027 
L 166.290759 -271.124111 
L 167.201208 -272.320328 
L 168.111656 -273.508525 
L 169.022105 -274.665022 
L 169.932554 -275.79463 
L 170.843003 -276.901944 
L 171.753452 -277.995707 
L 172.6639 -279.061732 
L 173.574349 -280.110029 
L 174.484798 -281.144715 
L 175.395247 -282.167263 
L 176.305696 -283.167533 
L 177.216144 -284.145879 
L 178.126593 -285.103492 
L 179.037042 -286.051192 
L 179.947491 -286.997546 
L 180.85794 -287.936336 
L 181.768388 -288.854587 
L 182.678837 -289.735584 
L 183.589286 -290.631692 
L 184.499735 -291.514178 
L 185.410184 -292.375246 
L 186.320632 -293.232205 
L 187.231081 -294.074539 
L 188.14153 -294.924364 
L 189.051979 -295.751455 
L 189.962428 -296.561119 
L 190.872876 -297.380723 
L 191.783325 -298.17862 
L 192.693774 -298.975609 
L 193.604223 -299.792902 
L 194.514672 -300.600339 
L 195.42512 -301.37641 
L 196.335569 -302.171386 
L 197.246018 -302.973818 
L 198.156467 -303.784792 
L 199.066916 -304.566714 
L 199.977364 -305.361929 
L 200.887813 -306.125313 
L 201.798262 -306.912223 
L 202.708711 -307.676137 
L 203.619159 -308.458531 
L 204.529608 -309.250537 
L 205.440057 -310.007461 
L 206.350506 -310.770519 
L 207.260955 -311.523398 
L 208.171403 -312.28677 
L 209.081852 -313.061357 
L 209.992301 -313.805673 
L 210.90275 -314.528249 
L 211.813199 -315.248319 
L 212.723647 -315.989656 
L 213.634096 -316.738488 
L 214.544545 -317.456605 
L 215.454994 -318.14662 
L 216.365443 -318.854559 
L 217.275891 -319.567024 
L 218.18634 -320.235219 
L 219.096789 -320.924916 
L 220.007238 -321.609915 
L 220.917687 -322.287425 
L 221.828135 -322.95981 
L 222.738584 -323.633104 
L 223.649033 -324.308294 
L 224.559482 -324.954989 
L 225.469931 -325.631221 
L 226.380379 -326.269278 
L 227.290828 -326.927234 
L 228.201277 -327.58206 
L 229.111726 -328.234117 
L 230.022175 -328.869215 
L 230.932623 -329.510915 
L 231.843072 -330.12441 
L 232.753521 -330.716547 
L 233.66397 -331.321345 
L 234.574419 -331.939173 
L 235.484867 -332.546394 
L 236.395316 -333.137885 
L 237.305765 -333.746927 
L 238.216214 -334.349406 
L 239.126662 -334.942987 
L 240.037111 -335.528444 
L 240.94756 -336.123383 
L 241.858009 -336.744281 
L 242.768458 -337.332974 
L 243.678906 -337.916806 
L 244.589355 -338.485987 
L 245.499804 -339.04044 
L 246.410253 -339.596177 
L 247.320702 -340.181891 
L 248.23115 -340.751288 
L 249.141599 -341.303774 
L 250.052048 -341.893853 
L 250.962497 -342.456796 
L 251.872946 -343.01052 
L 252.783394 -343.568992 
L 253.693843 -344.11888 
L 254.604292 -344.662467 
L 255.514741 -345.203301 
L 256.42519 -345.727618 
L 257.335638 -346.245727 
L 258.246087 -346.791732 
L 259.156536 -347.264576 
L 260.066985 -347.772274 
L 260.977434 -348.268058 
L 261.887882 -348.753765 
L 262.798331 -349.239754 
L 263.70878 -349.715915 
L 264.619229 -350.178539 
L 265.529678 -350.627053 
L 266.440126 -351.070442 
L 267.350575 -351.505288 
L 268.261024 -351.933925 
L 269.171473 -352.363013 
L 270.081922 -352.798471 
L 270.99237 -353.188748 
L 271.902819 -353.592344 
L 272.813268 -353.970759 
L 273.723717 -354.350179 
L 274.634165 -354.724739 
L 275.544614 -355.077257 
L 276.455063 -355.443088 
L 277.365512 -355.780493 
L 278.275961 -356.127378 
L 279.186409 -356.459743 
L 280.096858 -356.763997 
L 281.007307 -357.036775 
L 281.917756 -357.297762 
L 282.828205 -357.578377 
L 283.738653 -357.840169 
L 284.649102 -358.102218 
L 285.559551 -358.322893 
L 286.47 -358.558531 
L 287.380449 -358.77306 
L 288.290897 -358.934376 
L 289.201346 -359.129831 
L 290.111795 -359.287607 
L 291.022244 -359.442777 
L 291.932693 -359.533097 
L 292.843141 -359.60906 
L 293.75359 -359.669172 
L 294.664039 -359.728286 
L 295.574488 -359.737714 
L 296.484937 -359.742727 
L 297.395385 -359.716004 
L 298.305834 -359.655217 
L 299.216283 -359.569127 
L 300.126732 -359.451558 
L 301.037181 -359.309373 
L 301.947629 -359.144197 
L 302.858078 -358.972789 
L 303.768527 -358.71883 
L 304.678976 -358.475762 
L 305.589425 -358.193229 
L 306.499873 -357.848456 
L 307.410322 -357.495704 
L 308.320771 -357.127081 
L 309.23122 -356.729425 
L 310.141669 -356.282848 
L 311.052117 -355.810842 
L 311.962566 -355.297209 
L 312.873015 -354.770496 
L 313.783464 -354.208624 
L 314.693912 -353.609031 
L 315.604361 -352.970002 
L 316.51481 -352.315515 
L 317.425259 -351.632747 
L 318.335708 -350.908966 
L 319.246156 -350.145055 
L 320.156605 -349.383362 
L 321.067054 -348.583975 
L 321.977503 -347.771809 
L 322.887952 -346.923983 
L 323.7984 -346.045769 
L 324.708849 -345.166996 
L 325.619298 -344.268943 
L 326.529747 -343.371926 
L 327.440196 -342.418308 
L 328.350644 -341.464967 
L 329.261093 -340.51904 
L 330.171542 -339.561172 
L 331.081991 -338.591281 
L 331.99244 -337.60814 
L 332.902888 -336.626506 
L 333.813337 -335.65587 
L 334.723786 -334.67095 
L 335.634235 -333.670485 
L 336.544684 -332.689627 
L 337.455132 -331.69086 
L 338.365581 -330.714139 
L 339.27603 -329.766846 
L 340.186479 -328.797706 
L 341.096928 -327.801481 
L 342.007376 -326.838599 
L 342.917825 -325.889828 
L 343.828274 -324.938713 
L 344.738723 -324.018919 
L 345.649172 -323.090569 
L 346.55962 -322.193599 
L 347.470069 -321.295908 
L 348.380518 -320.407733 
L 349.290967 -319.545858 
L 350.201415 -318.678731 
L 351.111864 -317.834668 
L 352.022313 -316.99767 
L 352.932762 -316.162065 
L 353.843211 -315.346393 
L 354.753659 -314.557865 
L 355.664108 -313.785798 
L 356.574557 -313.02933 
L 357.485006 -312.258454 
L 358.395455 -311.526128 
L 359.305903 -310.80291 
L 360.216352 -310.075978 
L 361.126801 -309.352848 
L 362.03725 -308.658516 
L 362.947699 -307.955405 
L 363.858147 -307.250888 
L 364.768596 -306.572338 
L 365.679045 -305.894448 
L 366.589494 -305.233394 
L 367.499943 -304.547847 
L 368.410391 -303.879457 
L 369.32084 -303.204033 
L 370.231289 -302.530692 
L 371.141738 -301.872204 
L 372.052187 -301.191592 
L 372.962635 -300.539459 
L 373.873084 -299.895029 
L 374.783533 -299.243243 
L 375.693982 -298.588291 
L 376.604431 -297.941659 
L 377.514879 -297.282859 
L 378.425328 -296.602239 
L 379.335777 -295.934299 
L 380.246226 -295.252088 
L 381.156675 -294.568006 
L 382.067123 -293.864734 
L 382.977572 -293.176873 
L 383.888021 -292.452146 
L 384.79847 -291.727041 
L 385.708919 -290.985432 
L 386.619367 -290.265107 
L 387.529816 -289.51987 
L 388.440265 -288.786884 
L 389.350714 -288.067642 
L 390.261162 -287.309958 
L 391.171611 -286.536461 
L 392.08206 -285.749133 
L 392.992509 -284.981222 
L 393.902958 -284.161577 
L 394.813406 -283.351139 
L 395.723855 -282.540419 
L 396.634304 -281.720673 
L 397.544753 -280.892828 
L 398.455202 -280.052074 
L 399.36565 -279.216685 
L 400.276099 -278.355442 
L 401.186548 -277.502267 
L 402.096997 -276.632575 
L 403.007446 -275.777884 
L 403.917894 -274.869721 
L 404.828343 -273.978708 
L 405.738792 -273.084118 
L 406.649241 -272.179855 
L 407.55969 -271.26259 
L 408.470138 -270.349068 
L 409.380587 -269.425118 
L 410.291036 -268.493029 
L 411.201485 -267.54264 
L 412.111934 -266.586324 
L 413.022382 -265.62833 
L 413.932831 -264.655183 
L 414.84328 -263.704071 
L 415.753729 -262.731117 
L 416.664178 -261.763154 
L 417.574626 -260.793287 
L 418.485075 -259.813562 
L 419.395524 -258.826683 
L 420.305973 -257.845807 
L 421.216422 -256.847135 
L 422.12687 -255.84824 
L 423.037319 -254.832862 
L 423.947768 -253.838563 
L 424.858217 -252.83786 
L 425.768665 -251.851216 
L 426.679114 -250.819135 
L 427.589563 -249.810114 
L 428.500012 -248.779606 
L 429.410461 -247.782435 
L 430.320909 -246.753235 
L 431.231358 -245.743216 
L 432.141807 -244.744925 
L 433.052256 -243.709681 
L 433.962705 -242.689882 
L 434.873153 -241.659718 
L 435.783602 -240.64166 
L 436.694051 -239.63176 
L 437.6045 -238.610094 
L 438.514949 -237.568342 
L 439.425397 -236.561562 
L 440.335846 -235.541137 
L 441.246295 -234.518028 
L 442.156744 -233.492649 
L 443.067193 -232.481452 
L 443.977641 -231.476855 
L 444.88809 -230.455278 
L 445.798539 -229.443268 
L 446.708988 -228.404258 
L 447.619437 -227.382745 
L 448.529885 -226.3564 
L 449.440334 -225.342883 
L 450.350783 -224.335814 
L 451.261232 -223.328478 
L 452.171681 -222.300867 
L 453.082129 -221.270202 
L 453.992578 -220.253662 
L 454.903027 -219.237132 
L 455.813476 -218.210146 
L 456.723925 -217.183525 
L 457.634373 -216.177759 
L 458.544822 -215.155135 
L 459.455271 -214.146299 
L 460.36572 -213.119959 
L 461.276168 -212.100313 
L 462.186617 -211.080173 
L 463.097066 -210.076156 
L 464.007515 -209.048315 
L 464.917964 -208.041909 
L 465.828412 -207.033925 
L 466.738861 -206.020219 
L 467.64931 -205.017578 
L 468.559759 -204.003928 
L 469.470208 -202.990062 
L 470.380656 -201.985919 
L 471.291105 -201.001146 
L 472.201554 -200.001282 
L 473.112003 -198.977986 
L 474.022452 -197.990303 
L 474.9329 -197.007733 
L 475.843349 -196.034525 
L 476.753798 -195.071368 
L 477.664247 -194.125889 
L 478.574696 -193.16838 
L 479.485144 -192.236194 
L 480.395593 -191.288707 
L 481.306042 -190.373042 
L 482.216491 -189.460771 
L 483.12694 -188.53497 
L 484.037388 -187.667522 
L 484.947837 -186.803444 
L 485.858286 -185.943331 
L 486.768735 -185.107116 
L 487.679184 -184.28123 
L 488.589632 -183.468521 
L 489.500081 -182.680759 
L 490.41053 -181.936233 
L 491.320979 -181.201477 
L 492.231428 -180.478432 
L 493.141876 -179.777686 
L 494.052325 -179.109808 
L 494.962774 -178.46296 
L 495.873223 -177.828027 
L 496.783672 -177.233185 
L 497.69412 -176.675276 
L 498.604569 -176.129824 
L 499.515018 -175.604455 
L 500.425467 -175.105975 
L 501.335915 -174.655921 
L 502.246364 -174.21948 
L 503.156813 -173.835048 
L 504.067262 -173.46989 
L 504.977711 -173.140992 
L 505.888159 -172.84113 
L 506.798608 -172.574744 
L 507.709057 -172.338095 
L 508.619506 -172.135888 
L 509.529955 -171.990138 
L 510.440403 -171.86739 
L 511.350852 -171.77985 
L 512.261301 -171.746529 
L 512.261301 -64.073998 
L 512.261301 -64.073998 
L 511.350852 -64.073998 
L 510.440403 -64.073998 
L 509.529955 -64.073998 
L 508.619506 -64.073998 
L 507.709057 -64.073998 
L 506.798608 -64.073998 
L 505.888159 -64.073998 
L 504.977711 -64.073998 
L 504.067262 -64.073998 
L 503.156813 -64.073998 
L 502.246364 -64.073998 
L 501.335915 -64.073998 
L 500.425467 -64.073998 
L 499.515018 -64.073998 
L 498.604569 -64.073998 
L 497.69412 -64.073998 
L 496.783672 -64.073998 
L 495.873223 -64.073998 
L 494.962774 -64.073998 
L 494.052325 -64.073998 
L 493.141876 -64.073998 
L 492.231428 -64.073998 
L 491.320979 -64.073998 
L 490.41053 -64.073998 
L 489.500081 -64.073998 
L 488.589632 -64.073998 
L 487.679184 -64.073998 
L 486.768735 -64.073998 
L 485.858286 -64.073998 
L 484.947837 -64.073998 
L 484.037388 -64.073998 
L 483.12694 -64.073998 
L 482.216491 -64.073998 
L 481.306042 -64.073998 
L 480.395593 -64.073998 
L 479.485144 -64.073998 
L 478.574696 -64.073998 
L 477.664247 -64.073998 
L 476.753798 -64.073998 
L 475.843349 -64.073998 
L 474.9329 -64.073998 
L 474.022452 -64.073998 
L 473.112003 -64.073998 
L 472.201554 -64.073998 
L 471.291105 -64.073998 
L 470.380656 -64.073998 
L 469.470208 -64.073998 
L 468.559759 -64.073998 
L 467.64931 -64.073998 
L 466.738861 -64.073998 
L 465.828412 -64.073998 
L 464.917964 -64.073998 
L 464.007515 -64.073998 
L 463.097066 -64.073998 
L 462.186617 -64.073998 
L 461.276168 -64.073998 
L 460.36572 -64.073998 
L 459.455271 -64.073998 
L 458.544822 -64.073998 
L 457.634373 -64.073998 
L 456.723925 -64.073998 
L 455.813476 -64.073998 
L 454.903027 -64.073998 
L 453.992578 -64.073998 
L 453.082129 -64.073998 
L 452.171681 -64.073998 
L 451.261232 -64.073998 
L 450.350783 -64.073998 
L 449.440334 -64.073998 
L 448.529885 -64.073998 
L 447.619437 -64.073998 
L 446.708988 -64.073998 
L 445.798539 -64.073998 
L 444.88809 -64.073998 
L 443.977641 -64.073998 
L 443.067193 -64.073998 
L 442.156744 -64.073998 
L 441.246295 -64.073998 
L 440.335846 -64.073998 
L 439.425397 -64.073998 
L 438.514949 -64.073998 
L 437.6045 -64.073998 
L 436.694051 -64.073998 
L 435.783602 -64.073998 
L 434.873153 -64.073998 
L 433.962705 -64.073998 
L 433.052256 -64.073998 
L 432.141807 -64.073998 
L 431.231358 -64.073998 
L 430.320909 -64.073998 
L 429.410461 -64.073998 
L 428.500012 -64.073998 
L 427.589563 -64.073998 
L 426.679114 -64.073998 
L 425.768665 -64.073998 
L 424.858217 -64.073998 
L 423.947768 -64.073998 
L 423.037319 -64.073998 
L 422.12687 -64.073998 
L 421.216422 -64.073998 
L 420.305973 -64.073998 
L 419.395524 -64.073998 
L 418.485075 -64.073998 
L 417.574626 -64.073998 
L 416.664178 -64.073998 
L 415.753729 -64.073998 
L 414.84328 -64.073998 
L 413.932831 -64.073998 
L 413.022382 -64.073998 
L 412.111934 -64.073998 
L 411.201485 -64.073998 
L 410.291036 -64.073998 
L 409.380587 -64.073998 
L 408.470138 -64.073998 
L 407.55969 -64.073998 
L 406.649241 -64.073998 
L 405.738792 -64.073998 
L 404.828343 -64.073998 
L 403.917894 -64.073998 
L 403.007446 -64.073998 
L 402.096997 -64.073998 
L 401.186548 -64.073998 
L 400.276099 -64.073998 
L 399.36565 -64.073998 
L 398.455202 -64.073998 
L 397.544753 -64.073998 
L 396.634304 -64.073998 
L 395.723855 -64.073998 
L 394.813406 -64.073998 
L 393.902958 -64.073998 
L 392.992509 -64.073998 
L 392.08206 -64.073998 
L 391.171611 -64.073998 
L 390.261162 -64.073998 
L 389.350714 -64.073998 
L 388.440265 -64.073998 
L 387.529816 -64.073998 
L 386.619367 -64.073998 
L 385.708919 -64.073998 
L 384.79847 -64.073998 
L 383.888021 -64.073998 
L 382.977572 -64.073998 
L 382.067123 -64.073998 
L 381.156675 -64.073998 
L 380.246226 -64.073998 
L 379.335777 -64.073998 
L 378.425328 -64.073998 
L 377.514879 -64.073998 
L 376.604431 -64.073998 
L 375.693982 -64.073998 
L 374.783533 -64.073998 
L 373.873084 -64.073998 
L 372.962635 -64.073998 
L 372.052187 -64.073998 
L 371.141738 -64.073998 
L 370.231289 -64.073998 
L 369.32084 -64.073998 
L 368.410391 -64.073998 
L 367.499943 -64.073998 
L 366.589494 -64.073998 
L 365.679045 -64.073998 
L 364.768596 -64.073998 
L 363.858147 -64.073998 
L 362.947699 -64.073998 
L 362.03725 -64.073998 
L 361.126801 -64.073998 
L 360.216352 -64.073998 
L 359.305903 -64.073998 
L 358.395455 -64.073998 
L 357.485006 -64.073998 
L 356.574557 -64.073998 
L 355.664108 -64.073998 
L 354.753659 -64.073998 
L 353.843211 -64.073998 
L 352.932762 -64.073998 
L 352.022313 -64.073998 
L 351.111864 -64.073998 
L 350.201415 -64.073998 
L 349.290967 -64.073998 
L 348.380518 -64.073998 
L 347.470069 -64.073998 
L 346.55962 -64.073998 
L 345.649172 -64.073998 
L 344.738723 -64.073998 
L 343.828274 -64.073998 
L 342.917825 -64.073998 
L 342.007376 -64.073998 
L 341.096928 -64.073998 
L 340.186479 -64.073998 
L 339.27603 -64.073998 
L 338.365581 -64.073998 
L 337.455132 -64.073998 
L 336.544684 -64.073998 
L 335.634235 -64.073998 
L 334.723786 -64.073998 
L 333.813337 -64.073998 
L 332.902888 -64.073998 
L 331.99244 -64.073998 
L 331.081991 -64.073998 
L 330.171542 -64.073998 
L 329.261093 -64.073998 
L 328.350644 -64.073998 
L 327.440196 -64.073998 
L 326.529747 -64.073998 
L 325.619298 -64.073998 
L 324.708849 -64.073998 
L 323.7984 -64.073998 
L 322.887952 -64.073998 
L 321.977503 -64.073998 
L 321.067054 -64.073998 
L 320.156605 -64.073998 
L 319.246156 -64.073998 
L 318.335708 -64.073998 
L 317.425259 -64.073998 
L 316.51481 -64.073998 
L 315.604361 -64.073998 
L 314.693912 -64.073998 
L 313.783464 -64.073998 
L 312.873015 -64.073998 
L 311.962566 -64.073998 
L 311.052117 -64.073998 
L 310.141669 -64.073998 
L 309.23122 -64.073998 
L 308.320771 -64.073998 
L 307.410322 -64.073998 
L 306.499873 -64.073998 
L 305.589425 -64.073998 
L 304.678976 -64.073998 
L 303.768527 -64.073998 
L 302.858078 -64.073998 
L 301.947629 -64.073998 
L 301.037181 -64.073998 
L 300.126732 -64.073998 
L 299.216283 -64.073998 
L 298.305834 -64.073998 
L 297.395385 -64.073998 
L 296.484937 -64.073998 
L 295.574488 -64.073998 
L 294.664039 -64.073998 
L 293.75359 -64.073998 
L 292.843141 -64.073998 
L 291.932693 -64.073998 
L 291.022244 -64.073998 
L 290.111795 -64.073998 
L 289.201346 -64.073998 
L 288.290897 -64.073998 
L 287.380449 -64.073998 
L 286.47 -64.073998 
L 285.559551 -64.073998 
L 284.649102 -64.073998 
L 283.738653 -64.073998 
L 282.828205 -64.073998 
L 281.917756 -64.073998 
L 281.007307 -64.073998 
L 280.096858 -64.073998 
L 279.186409 -64.073998 
L 278.275961 -64.073998 
L 277.365512 -64.073998 
L 276.455063 -64.073998 
L 275.544614 -64.073998 
L 274.634165 -64.073998 
L 273.723717 -64.073998 
L 272.813268 -64.073998 
L 271.902819 -64.073998 
L 270.99237 -64.073998 
L 270.081922 -64.073998 
L 269.171473 -64.073998 
L 268.261024 -64.073998 
L 267.350575 -64.073998 
L 266.440126 -64.073998 
L 265.529678 -64.073998 
L 264.619229 -64.073998 
L 263.70878 -64.073998 
L 262.798331 -64.073998 
L 261.887882 -64.073998 
L 260.977434 -64.073998 
L 260.066985 -64.073998 
L 259.156536 -64.073998 
L 258.246087 -64.073998 
L 257.335638 -64.073998 
L 256.42519 -64.073998 
L 255.514741 -64.073998 
L 254.604292 -64.073998 
L 253.693843 -64.073998 
L 252.783394 -64.073998 
L 251.872946 -64.073998 
L 250.962497 -64.073998 
L 250.052048 -64.073998 
L 249.141599 -64.073998 
L 248.23115 -64.073998 
L 247.320702 -64.073998 
L 246.410253 -64.073998 
L 245.499804 -64.073998 
L 244.589355 -64.073998 
L 243.678906 -64.073998 
L 242.768458 -64.073998 
L 241.858009 -64.073998 
L 240.94756 -64.073998 
L 240.037111 -64.073998 
L 239.126662 -64.073998 
L 238.216214 -64.073998 
L 237.305765 -64.073998 
L 236.395316 -64.073998 
L 235.484867 -64.073998 
L 234.574419 -64.073998 
L 233.66397 -64.073998 
L 232.753521 -64.073998 
L 231.843072 -64.073998 
L 230.932623 -64.073998 
L 230.022175 -64.073998 
L 229.111726 -64.073998 
L 228.201277 -64.073998 
L 227.290828 -64.073998 
L 226.380379 -64.073998 
L 225.469931 -64.073998 
L 224.559482 -64.073998 
L 223.649033 -64.073998 
L 222.738584 -64.073998 
L 221.828135 -64.073998 
L 220.917687 -64.073998 
L 220.007238 -64.073998 
L 219.096789 -64.073998 
L 218.18634 -64.073998 
L 217.275891 -64.073998 
L 216.365443 -64.073998 
L 215.454994 -64.073998 
L 214.544545 -64.073998 
L 213.634096 -64.073998 
L 212.723647 -64.073998 
L 211.813199 -64.073998 
L 210.90275 -64.073998 
L 209.992301 -64.073998 
L 209.081852 -64.073998 
L 208.171403 -64.073998 
L 207.260955 -64.073998 
L 206.350506 -64.073998 
L 205.440057 -64.073998 
L 204.529608 -64.073998 
L 203.619159 -64.073998 
L 202.708711 -64.073998 
L 201.798262 -64.073998 
L 200.887813 -64.073998 
L 199.977364 -64.073998 
L 199.066916 -64.073998 
L 198.156467 -64.073998 
L 197.246018 -64.073998 
L 196.335569 -64.073998 
L 195.42512 -64.073998 
L 194.514672 -64.073998 
L 193.604223 -64.073998 
L 192.693774 -64.073998 
L 191.783325 -64.073998 
L 190.872876 -64.073998 
L 189.962428 -64.073998 
L 189.051979 -64.073998 
L 188.14153 -64.073998 
L 187.231081 -64.073998 
L 186.320632 -64.073998 
L 185.410184 -64.073998 
L 184.499735 -64.073998 
L 183.589286 -64.073998 
L 182.678837 -64.073998 
L 181.768388 -64.073998 
L 180.85794 -64.073998 
L 179.947491 -64.073998 
L 179.037042 -64.073998 
L 178.126593 -64.073998 
L 177.216144 -64.073998 
L 176.305696 -64.073998 
L 175.395247 -64.073998 
L 174.484798 -64.073998 
L 173.574349 -64.073998 
L 172.6639 -64.073998 
L 171.753452 -64.073998 
L 170.843003 -64.073998 
L 169.932554 -64.073998 
L 169.022105 -64.073998 
L 168.111656 -64.073998 
L 167.201208 -64.073998 
L 166.290759 -64.073998 
L 165.38031 -64.073998 
L 164.469861 -64.073998 
L 163.559412 -64.073998 
L 162.648964 -64.073998 
L 161.738515 -64.073998 
L 160.828066 -64.073998 
L 159.917617 -64.073998 
L 159.007169 -64.073998 
L 158.09672 -64.073998 
L 157.186271 -64.073998 
L 156.275822 -64.073998 
L 155.365373 -64.073998 
L 154.454925 -64.073998 
L 153.544476 -64.073998 
L 152.634027 -64.073998 
L 151.723578 -64.073998 
L 150.813129 -64.073998 
L 149.902681 -64.073998 
L 148.992232 -64.073998 
L 148.081783 -64.073998 
L 147.171334 -64.073998 
L 146.260885 -64.073998 
L 145.350437 -64.073998 
L 144.439988 -64.073998 
L 143.529539 -64.073998 
L 142.61909 -64.073998 
L 141.708641 -64.073998 
L 140.798193 -64.073998 
L 139.887744 -64.073998 
L 138.977295 -64.073998 
L 138.066846 -64.073998 
L 137.156397 -64.073998 
L 136.245949 -64.073998 
L 135.3355 -64.073998 
L 134.425051 -64.073998 
L 133.514602 -64.073998 
L 132.604153 -64.073998 
L 131.693705 -64.073998 
L 130.783256 -64.073998 
L 129.872807 -64.073998 
L 128.962358 -64.073998 
L 128.051909 -64.073998 
L 127.141461 -64.073998 
L 126.231012 -64.073998 
L 125.320563 -64.073998 
L 124.410114 -64.073998 
L 123.499666 -64.073998 
L 122.589217 -64.073998 
L 121.678768 -64.073998 
L 120.768319 -64.073998 
L 119.85787 -64.073998 
L 118.947422 -64.073998 
L 118.036973 -64.073998 
L 117.126524 -64.073998 
L 116.216075 -64.073998 
L 115.305626 -64.073998 
L 114.395178 -64.073998 
L 113.484729 -64.073998 
L 112.57428 -64.073998 
L 111.663831 -64.073998 
L 110.753382 -64.073998 
L 109.842934 -64.073998 
L 108.932485 -64.073998 
L 108.022036 -64.073998 
L 107.111587 -64.073998 
L 106.201138 -64.073998 
L 105.29069 -64.073998 
L 104.380241 -64.073998 
L 103.469792 -64.073998 
L 102.559343 -64.073998 
L 101.648894 -64.073998 
L 100.738446 -64.073998 
L 99.827997 -64.073998 
L 98.917548 -64.073998 
L 98.007099 -64.073998 
L 97.09665 -64.073998 
L 96.186202 -64.073998 
L 95.275753 -64.073998 
L 94.365304 -64.073998 
L 93.454855 -64.073998 
L 92.544406 -64.073998 
L 91.633958 -64.073998 
L 90.723509 -64.073998 
L 89.81306 -64.073998 
L 88.902611 -64.073998 
L 87.992162 -64.073998 
L 87.081714 -64.073998 
L 86.171265 -64.073998 
L 85.260816 -64.073998 
L 84.350367 -64.073998 
L 83.439919 -64.073998 
L 82.52947 -64.073998 
L 81.619021 -64.073998 
L 80.708572 -64.073998 
L 79.798123 -64.073998 
L 78.887675 -64.073998 
L 77.977226 -64.073998 
L 77.066777 -64.073998 
L 76.156328 -64.073998 
L 75.245879 -64.073998 
L 74.335431 -64.073998 
L 73.424982 -64.073998 
L 72.514533 -64.073998 
L 71.604084 -64.073998 
L 70.693635 -64.073998 
L 69.783187 -64.073998 
L 68.872738 -64.073998 
L 67.962289 -64.073998 
L 67.05184 -64.073998 
L 66.141391 -64.073998 
L 65.230943 -64.073998 
L 64.320494 -64.073998 
L 63.410045 -64.073998 
L 62.499596 -64.073998 
L 61.589147 -64.073998 
L 60.678699 -64.073998 
L 59.76825 -64.073998 
L 58.857801 -64.073998 
L 57.947352 -64.073998 
L 57.036903 -64.073998 
L 56.126455 -64.073998 
L 55.216006 -64.073998 
L 54.305557 -64.073998 
L 53.395108 -64.073998 
L 52.484659 -64.073998 
L 51.574211 -64.073998 
L 50.663762 -64.073998 
L 49.753313 -64.073998 
L 48.842864 -64.073998 
L 47.932416 -64.073998 
L 47.021967 -64.073998 
z
" style="stroke: #6cb7ff; stroke-opacity: 0.6; stroke-width: 0.3"/>
    </defs>
    <g clip-path="url(#pbc96349b1f)">
     <use xlink:href="#m42c9265d07" x="0" y="432" style="fill: #6cb7ff; fill-opacity: 0.6; stroke: #6cb7ff; stroke-opacity: 0.6; stroke-width: 0.3"/>
    </g>
   </g>
   <g id="line2d_15">
    <path d="M 47.021967 264.912635 
L 50.663762 264.764617 
L 54.305557 264.401005 
L 57.947352 263.71072 
L 62.499596 262.653718 
L 67.05184 261.286416 
L 72.514533 259.366534 
L 77.066777 257.536537 
L 83.439919 254.765427 
L 89.81306 251.792658 
L 95.275753 248.997454 
L 100.738446 245.848045 
L 104.380241 243.446333 
L 108.022036 240.805267 
L 111.663831 237.863355 
L 115.305626 234.600422 
L 118.947422 230.918981 
L 121.678768 227.890203 
L 124.410114 224.627804 
L 127.141461 221.142945 
L 130.783256 216.129354 
L 135.3355 209.429227 
L 138.977295 203.714759 
L 145.350437 193.321253 
L 156.275822 175.505651 
L 160.828066 168.550785 
L 165.38031 162.0973 
L 169.022105 157.334978 
L 172.6639 152.938268 
L 177.216144 147.854121 
L 182.678837 142.264416 
L 187.231081 137.925461 
L 191.783325 133.82138 
L 205.440057 121.992539 
L 213.634096 115.261512 
L 219.096789 111.075084 
L 226.380379 105.730722 
L 231.843072 101.87559 
L 250.962497 89.543204 
L 258.246087 85.208268 
L 269.171473 79.636987 
L 271.902819 78.407656 
L 278.275961 75.872622 
L 281.007307 74.963225 
L 287.380449 73.22694 
L 291.932693 72.466903 
L 295.574488 72.262286 
L 298.305834 72.344783 
L 301.037181 72.690627 
L 303.768527 73.28117 
L 305.589425 73.806771 
L 309.23122 75.270575 
L 311.962566 76.702791 
L 314.693912 78.390969 
L 317.425259 80.367253 
L 320.156605 82.616638 
L 323.7984 85.954231 
L 327.440196 89.581692 
L 334.723786 97.32905 
L 341.096928 104.198519 
L 345.649172 108.909431 
L 351.111864 114.165332 
L 355.664108 118.214202 
L 361.126801 122.647152 
L 370.231289 129.469308 
L 382.977572 138.823127 
L 391.171611 145.463539 
L 397.544753 151.107172 
L 403.917894 157.130279 
L 410.291036 163.506971 
L 418.485075 172.186438 
L 427.589563 182.189886 
L 441.246295 197.481972 
L 464.007515 222.951685 
L 476.753798 236.928632 
L 484.037388 244.332478 
L 488.589632 248.531479 
L 491.320979 250.798523 
L 494.052325 252.890192 
L 496.783672 254.766815 
L 500.425467 256.894025 
L 503.156813 258.164952 
L 505.888159 259.15887 
L 508.619506 259.864112 
L 511.350852 260.22015 
L 512.261301 260.253471 
L 512.261301 260.253471 
" clip-path="url(#pbc96349b1f)" style="fill: none; stroke: #7570b3; stroke-width: 2; stroke-linecap: round"/>
   </g>
   <g id="line2d_16">
    <path d="M 47.021967 368.956136 
L 47.021967 264.912635 
" clip-path="url(#pbc96349b1f)" style="fill: none; stroke: #7570b3; stroke-width: 2; stroke-linecap: round"/>
   </g>
   <g id="line2d_17">
    <path d="M 512.261301 369.002727 
L 512.261301 260.253471 
" clip-path="url(#pbc96349b1f)" style="fill: none; stroke: #7570b3; stroke-width: 2; stroke-linecap: round"/>
   </g>
   <g id="line2d_18">
    <defs>
     <path id="m17ee60ad49" d="M 0 3.5 
C 0.928211 3.5 1.81853 3.131218 2.474874 2.474874 
C 3.131218 1.81853 3.5 0.928211 3.5 0 
C 3.5 -0.928211 3.131218 -1.81853 2.474874 -2.474874 
C 1.81853 -3.131218 0.928211 -3.5 0 -3.5 
C -0.928211 -3.5 -1.81853 -3.131218 -2.474874 -2.474874 
C -3.131218 -1.81853 -3.5 -0.928211 -3.5 0 
C -3.5 0.928211 -3.131218 1.81853 -2.474874 2.474874 
C -1.81853 3.131218 -0.928211 3.5 0 3.5 
z
"/>
    </defs>
    <g clip-path="url(#pbc96349b1f)">
     <use xlink:href="#m17ee60ad49" x="289.822394" y="367.926002" style="fill: #7570b3"/>
    </g>
   </g>
   <g id="patch_3">
    <path d="M 23.76 383.84 
L 535.523268 383.84 
" style="fill: none; stroke: #333333; stroke-width: 1.5; stroke-linejoin: miter; stroke-linecap: square"/>
   </g>
   <g id="text_8">
    <!-- $x_2^2$ -->
    <g style="fill: #262626" transform="translate(264.101634 49.58)">
     <text>
      <tspan x="0" y="-0.734375" style="font-style: oblique; font-size: 28px; font-family: 'DejaVu Sans'; fill: #262626">x</tspan>
      <tspan x="16.570312" y="6.921875" style="font-size: 19.6px; font-family: 'DejaVu Sans'; fill: #262626">2</tspan>
      <tspan x="17.820833" y="-11.453125" style="font-size: 19.6px; font-family: 'DejaVu Sans'; fill: #262626">2</tspan>
     </text>
    </g>
   </g>
  </g>
 </g>
 <defs>
  <clipPath id="pbc96349b1f">
   <rect x="23.76" y="57.42" width="511.763268" height="326.42"/>
  </clipPath>
 </defs>
</svg>
