<?xml version="1.0" encoding="utf-8" standalone="no"?>
<!DOCTYPE svg PUBLIC "-//W3C//DTD SVG 1.1//EN"
  "http://www.w3.org/Graphics/SVG/1.1/DTD/svg11.dtd">
<svg xmlns:xlink="http://www.w3.org/1999/xlink" width="576pt" height="432pt" viewBox="0 0 576 432" xmlns="http://www.w3.org/2000/svg" version="1.1">
 <metadata>
  <rdf:RDF xmlns:dc="http://purl.org/dc/elements/1.1/" xmlns:cc="http://creativecommons.org/ns#" xmlns:rdf="http://www.w3.org/1999/02/22-rdf-syntax-ns#">
   <cc:Work>
    <dc:type rdf:resource="http://purl.org/dc/dcmitype/StillImage"/>
    <dc:date>2025-09-22T23:00:34.395522</dc:date>
    <dc:format>image/svg+xml</dc:format>
    <dc:creator>
     <cc:Agent>
      <dc:title>Matplotlib v3.10.0, https://matplotlib.org/</dc:title>
     </cc:Agent>
    </dc:creator>
   </cc:Work>
  </rdf:RDF>
 </metadata>
 <defs>
  <style type="text/css">*{stroke-linejoin: round; stroke-linecap: butt}</style>
 </defs>
 <g id="figure_1">
  <g id="patch_1">
   <path d="M 0 432 
L 576 432 
L 576 0 
L 0 0 
L 0 432 
z
" style="fill: none; opacity: 0"/>
  </g>
  <g id="axes_1">
   <g id="patch_2">
    <path d="M 23.76 383.84 
L 552.24 383.84 
L 552.24 51.12 
L 23.76 51.12 
L 23.76 383.84 
z
" style="fill: none"/>
   </g>
   <g id="matplotlib.axis_1">
    <g id="xtick_1">
     <g id="line2d_1">
      <path d="M 71.29996 383.84 
L 71.29996 51.12 
" clip-path="url(#pd33f72aaa3)" style="fill: none; stroke: #ffffff; stroke-opacity: 0.4; stroke-linecap: round"/>
     </g>
     <g id="line2d_2"/>
     <g id="text_1">
      <text style="font-size: 18px; font-family: 'DejaVu Serif', 'Times New Roman', serif; text-anchor: middle; fill: #262626" x="71.29996" y="404.517187" transform="rotate(-0 71.29996 404.517187)">0.91</text>
     </g>
    </g>
    <g id="xtick_2">
     <g id="line2d_3">
      <path d="M 140.554283 383.84 
L 140.554283 51.12 
" clip-path="url(#pd33f72aaa3)" style="fill: none; stroke: #ffffff; stroke-opacity: 0.4; stroke-linecap: round"/>
     </g>
     <g id="line2d_4"/>
     <g id="text_2">
      <text style="font-size: 18px; font-family: 'DejaVu Serif', 'Times New Roman', serif; text-anchor: middle; fill: #262626" x="140.554283" y="404.517187" transform="rotate(-0 140.554283 404.517187)">0.92</text>
     </g>
    </g>
    <g id="xtick_3">
     <g id="line2d_5">
      <path d="M 209.808607 383.84 
L 209.808607 51.12 
" clip-path="url(#pd33f72aaa3)" style="fill: none; stroke: #ffffff; stroke-opacity: 0.4; stroke-linecap: round"/>
     </g>
     <g id="line2d_6"/>
     <g id="text_3">
      <text style="font-size: 18px; font-family: 'DejaVu Serif', 'Times New Roman', serif; text-anchor: middle; fill: #262626" x="209.808607" y="404.517187" transform="rotate(-0 209.808607 404.517187)">0.93</text>
     </g>
    </g>
    <g id="xtick_4">
     <g id="line2d_7">
      <path d="M 279.06293 383.84 
L 279.06293 51.12 
" clip-path="url(#pd33f72aaa3)" style="fill: none; stroke: #ffffff; stroke-opacity: 0.4; stroke-linecap: round"/>
     </g>
     <g id="line2d_8"/>
     <g id="text_4">
      <text style="font-size: 18px; font-family: 'DejaVu Serif', 'Times New Roman', serif; text-anchor: middle; fill: #262626" x="279.06293" y="404.517187" transform="rotate(-0 279.06293 404.517187)">0.94</text>
     </g>
    </g>
    <g id="xtick_5">
     <g id="line2d_9">
      <path d="M 348.317254 383.84 
L 348.317254 51.12 
" clip-path="url(#pd33f72aaa3)" style="fill: none; stroke: #ffffff; stroke-opacity: 0.4; stroke-linecap: round"/>
     </g>
     <g id="line2d_10"/>
     <g id="text_5">
      <text style="font-size: 18px; font-family: 'DejaVu Serif', 'Times New Roman', serif; text-anchor: middle; fill: #262626" x="348.317254" y="404.517187" transform="rotate(-0 348.317254 404.517187)">0.95</text>
     </g>
    </g>
    <g id="xtick_6">
     <g id="line2d_11">
      <path d="M 417.571578 383.84 
L 417.571578 51.12 
" clip-path="url(#pd33f72aaa3)" style="fill: none; stroke: #ffffff; stroke-opacity: 0.4; stroke-linecap: round"/>
     </g>
     <g id="line2d_12"/>
     <g id="text_6">
      <text style="font-size: 18px; font-family: 'DejaVu Serif', 'Times New Roman', serif; text-anchor: middle; fill: #262626" x="417.571578" y="404.517187" transform="rotate(-0 417.571578 404.517187)">0.96</text>
     </g>
    </g>
    <g id="xtick_7">
     <g id="line2d_13">
      <path d="M 486.825901 383.84 
L 486.825901 51.12 
" clip-path="url(#pd33f72aaa3)" style="fill: none; stroke: #ffffff; stroke-opacity: 0.4; stroke-linecap: round"/>
     </g>
     <g id="line2d_14"/>
     <g id="text_7">
      <text style="font-size: 18px; font-family: 'DejaVu Serif', 'Times New Roman', serif; text-anchor: middle; fill: #262626" x="486.825901" y="404.517187" transform="rotate(-0 486.825901 404.517187)">0.97</text>
     </g>
    </g>
   </g>
   <g id="matplotlib.axis_2"/>
   <g id="FillBetweenPolyCollection_1">
    <defs>
     <path id="m7ea926586d" d="M 47.781818 -64.269229 
L 47.781818 -162.828452 
L 48.722007 -162.842404 
L 49.662195 -162.860145 
L 50.602384 -162.915859 
L 51.542572 -162.978452 
L 52.482761 -163.055607 
L 53.42295 -163.167067 
L 54.363138 -163.280296 
L 55.303327 -163.43675 
L 56.243515 -163.606616 
L 57.183704 -163.782367 
L 58.123893 -164.001771 
L 59.064081 -164.241128 
L 60.00427 -164.486075 
L 60.944458 -164.753175 
L 61.884647 -165.059026 
L 62.824835 -165.368924 
L 63.765024 -165.713913 
L 64.705213 -166.055598 
L 65.645401 -166.431454 
L 66.58559 -166.825224 
L 67.525778 -167.214997 
L 68.465967 -167.627895 
L 69.406155 -168.059521 
L 70.346344 -168.52312 
L 71.286533 -169.000557 
L 72.226721 -169.492156 
L 73.16691 -170.015821 
L 74.107098 -170.55437 
L 75.047287 -171.08968 
L 75.987476 -171.660823 
L 76.927664 -172.247677 
L 77.867853 -172.859875 
L 78.808041 -173.519592 
L 79.74823 -174.157519 
L 80.688418 -174.820414 
L 81.628607 -175.503093 
L 82.568796 -176.201282 
L 83.508984 -176.934235 
L 84.449173 -177.666747 
L 85.389361 -178.417748 
L 86.32955 -179.176378 
L 87.269738 -179.956241 
L 88.209927 -180.739425 
L 89.150116 -181.557921 
L 90.090304 -182.368243 
L 91.030493 -183.204222 
L 91.970681 -184.046906 
L 92.91087 -184.909238 
L 93.851059 -185.799035 
L 94.791247 -186.671834 
L 95.731436 -187.581739 
L 96.671624 -188.482846 
L 97.611813 -189.416247 
L 98.552001 -190.349956 
L 99.49219 -191.286218 
L 100.432379 -192.237838 
L 101.372567 -193.197245 
L 102.312756 -194.176269 
L 103.252944 -195.160961 
L 104.193133 -196.152316 
L 105.133321 -197.151168 
L 106.07351 -198.14769 
L 107.013699 -199.172402 
L 107.953887 -200.188854 
L 108.894076 -201.230966 
L 109.834264 -202.256773 
L 110.774453 -203.293243 
L 111.714642 -204.355735 
L 112.65483 -205.391754 
L 113.595019 -206.441318 
L 114.535207 -207.507843 
L 115.475396 -208.570794 
L 116.415584 -209.619782 
L 117.355773 -210.681836 
L 118.295962 -211.720558 
L 119.23615 -212.810954 
L 120.176339 -213.884824 
L 121.116527 -214.950049 
L 122.056716 -216.027703 
L 122.996904 -217.097216 
L 123.937093 -218.19688 
L 124.877282 -219.27528 
L 125.81747 -220.358793 
L 126.757659 -221.457099 
L 127.697847 -222.531311 
L 128.638036 -223.601621 
L 129.578225 -224.700599 
L 130.518413 -225.77955 
L 131.458602 -226.865221 
L 132.39879 -227.950506 
L 133.338979 -229.035252 
L 134.279167 -230.112774 
L 135.219356 -231.168868 
L 136.159545 -232.249348 
L 137.099733 -233.351616 
L 138.039922 -234.440049 
L 138.98011 -235.507137 
L 139.920299 -236.601694 
L 140.860487 -237.685194 
L 141.800676 -238.786262 
L 142.740865 -239.866938 
L 143.681053 -240.957321 
L 144.621242 -242.026297 
L 145.56143 -243.130212 
L 146.501619 -244.196385 
L 147.441808 -245.257151 
L 148.381996 -246.335449 
L 149.322185 -247.415364 
L 150.262373 -248.482964 
L 151.202562 -249.541799 
L 152.14275 -250.616218 
L 153.082939 -251.691396 
L 154.023128 -252.763656 
L 154.963316 -253.833016 
L 155.903505 -254.888353 
L 156.843693 -255.972618 
L 157.783882 -257.046487 
L 158.72407 -258.086955 
L 159.664259 -259.151781 
L 160.604448 -260.204663 
L 161.544636 -261.250054 
L 162.484825 -262.316028 
L 163.425013 -263.378495 
L 164.365202 -264.434223 
L 165.30539 -265.475743 
L 166.245579 -266.519552 
L 167.185768 -267.557144 
L 168.125956 -268.601739 
L 169.066145 -269.640147 
L 170.006333 -270.708777 
L 170.946522 -271.72948 
L 171.886711 -272.730769 
L 172.826899 -273.744916 
L 173.767088 -274.737576 
L 174.707276 -275.764277 
L 175.647465 -276.796171 
L 176.587653 -277.797588 
L 177.527842 -278.791491 
L 178.468031 -279.784955 
L 179.408219 -280.793886 
L 180.348408 -281.776997 
L 181.288596 -282.733633 
L 182.228785 -283.71622 
L 183.168973 -284.70236 
L 184.109162 -285.668039 
L 185.049351 -286.611878 
L 185.989539 -287.5861 
L 186.929728 -288.524597 
L 187.869916 -289.460769 
L 188.810105 -290.388514 
L 189.750294 -291.319807 
L 190.690482 -292.257149 
L 191.630671 -293.161437 
L 192.570859 -294.103624 
L 193.511048 -295.014636 
L 194.451236 -295.953708 
L 195.391425 -296.873241 
L 196.331614 -297.775681 
L 197.271802 -298.677664 
L 198.211991 -299.583283 
L 199.152179 -300.492582 
L 200.092368 -301.37042 
L 201.032556 -302.279061 
L 201.972745 -303.187994 
L 202.912934 -304.109407 
L 203.853122 -305.003178 
L 204.793311 -305.908811 
L 205.733499 -306.808279 
L 206.673688 -307.709369 
L 207.613877 -308.649925 
L 208.554065 -309.579658 
L 209.494254 -310.507635 
L 210.434442 -311.451108 
L 211.374631 -312.366086 
L 212.314819 -313.319528 
L 213.255008 -314.247508 
L 214.195197 -315.179001 
L 215.135385 -316.121861 
L 216.075574 -317.065905 
L 217.015762 -318.03286 
L 217.955951 -318.989365 
L 218.896139 -319.956176 
L 219.836328 -320.946209 
L 220.776517 -321.940413 
L 221.716705 -322.940114 
L 222.656894 -323.936947 
L 223.597082 -324.903239 
L 224.537271 -325.902794 
L 225.47746 -326.930993 
L 226.417648 -327.960241 
L 227.357837 -328.993086 
L 228.298025 -329.998958 
L 229.238214 -331.03929 
L 230.178402 -332.077937 
L 231.118591 -333.146827 
L 232.05878 -334.201163 
L 232.998968 -335.248934 
L 233.939157 -336.279285 
L 234.879345 -337.313069 
L 235.819534 -338.341058 
L 236.759722 -339.38311 
L 237.699911 -340.403097 
L 238.6401 -341.400293 
L 239.580288 -342.445102 
L 240.520477 -343.460568 
L 241.460665 -344.490612 
L 242.400854 -345.488855 
L 243.341043 -346.503257 
L 244.281231 -347.497175 
L 245.22142 -348.471443 
L 246.161608 -349.428087 
L 247.101797 -350.345768 
L 248.041985 -351.287262 
L 248.982174 -352.198507 
L 249.922363 -353.062888 
L 250.862551 -353.938527 
L 251.80274 -354.772971 
L 252.742928 -355.60554 
L 253.683117 -356.378336 
L 254.623305 -357.181488 
L 255.563494 -357.938318 
L 256.503683 -358.648528 
L 257.443871 -359.351613 
L 258.38406 -360.024289 
L 259.324248 -360.656219 
L 260.264437 -361.238479 
L 261.204626 -361.792209 
L 262.144814 -362.323729 
L 263.085003 -362.842891 
L 264.025191 -363.271182 
L 264.96538 -363.692444 
L 265.905568 -364.086696 
L 266.845757 -364.407236 
L 267.785946 -364.704933 
L 268.726134 -364.960732 
L 269.666323 -365.178475 
L 270.606511 -365.377549 
L 271.5467 -365.516827 
L 272.486888 -365.640528 
L 273.427077 -365.720397 
L 274.367266 -365.741107 
L 275.307454 -365.756364 
L 276.247643 -365.717422 
L 277.187831 -365.641797 
L 278.12802 -365.545165 
L 279.068209 -365.415633 
L 280.008397 -365.263798 
L 280.948586 -365.060468 
L 281.888774 -364.797135 
L 282.828963 -364.533264 
L 283.769151 -364.248895 
L 284.70934 -363.914005 
L 285.649529 -363.575786 
L 286.589717 -363.191656 
L 287.529906 -362.800559 
L 288.470094 -362.389202 
L 289.410283 -361.984624 
L 290.350471 -361.530635 
L 291.29066 -361.065 
L 292.230849 -360.599592 
L 293.171037 -360.127206 
L 294.111226 -359.631357 
L 295.051414 -359.144715 
L 295.991603 -358.651855 
L 296.931791 -358.136886 
L 297.87198 -357.595797 
L 298.812169 -357.078912 
L 299.752357 -356.572717 
L 300.692546 -356.052861 
L 301.632734 -355.525274 
L 302.572923 -354.9748 
L 303.513112 -354.471539 
L 304.4533 -353.939716 
L 305.393489 -353.419977 
L 306.333677 -352.921434 
L 307.273866 -352.411107 
L 308.214054 -351.906818 
L 309.154243 -351.423033 
L 310.094432 -350.963655 
L 311.03462 -350.515102 
L 311.974809 -350.073083 
L 312.914997 -349.645191 
L 313.855186 -349.252337 
L 314.795374 -348.81639 
L 315.735563 -348.460537 
L 316.675752 -348.102689 
L 317.61594 -347.743485 
L 318.556129 -347.397222 
L 319.496317 -347.051143 
L 320.436506 -346.720537 
L 321.376695 -346.403605 
L 322.316883 -346.130939 
L 323.257072 -345.859532 
L 324.19726 -345.576807 
L 325.137449 -345.323701 
L 326.077637 -345.083796 
L 327.017826 -344.832145 
L 327.958015 -344.584129 
L 328.898203 -344.396277 
L 329.838392 -344.211161 
L 330.77858 -344.028213 
L 331.718769 -343.878675 
L 332.658957 -343.731943 
L 333.599146 -343.602147 
L 334.539335 -343.457954 
L 335.479523 -343.335965 
L 336.419712 -343.231128 
L 337.3599 -343.090597 
L 338.300089 -342.982572 
L 339.240278 -342.857605 
L 340.180466 -342.742539 
L 341.120655 -342.655541 
L 342.060843 -342.560287 
L 343.001032 -342.459289 
L 343.94122 -342.343855 
L 344.881409 -342.249727 
L 345.821598 -342.100937 
L 346.761786 -341.980591 
L 347.701975 -341.80095 
L 348.642163 -341.649195 
L 349.582352 -341.487668 
L 350.52254 -341.31819 
L 351.462729 -341.129194 
L 352.402918 -340.912628 
L 353.343106 -340.674832 
L 354.283295 -340.417241 
L 355.223483 -340.14903 
L 356.163672 -339.873046 
L 357.103861 -339.538589 
L 358.044049 -339.219474 
L 358.984238 -338.882394 
L 359.924426 -338.514536 
L 360.864615 -338.115256 
L 361.804803 -337.663026 
L 362.744992 -337.195923 
L 363.685181 -336.71051 
L 364.625369 -336.174837 
L 365.565558 -335.599439 
L 366.505746 -334.998065 
L 367.445935 -334.383289 
L 368.386123 -333.758259 
L 369.326312 -333.09406 
L 370.266501 -332.355686 
L 371.206689 -331.602323 
L 372.146878 -330.816856 
L 373.087066 -330.013386 
L 374.027255 -329.156639 
L 374.967444 -328.274703 
L 375.907632 -327.345576 
L 376.847821 -326.398238 
L 377.788009 -325.434642 
L 378.728198 -324.433741 
L 379.668386 -323.406455 
L 380.608575 -322.363806 
L 381.548764 -321.265031 
L 382.488952 -320.177214 
L 383.429141 -319.04545 
L 384.369329 -317.85448 
L 385.309518 -316.676782 
L 386.249706 -315.473039 
L 387.189895 -314.235636 
L 388.130084 -312.975328 
L 389.070272 -311.711155 
L 390.010461 -310.454542 
L 390.950649 -309.168529 
L 391.890838 -307.870388 
L 392.831027 -306.516513 
L 393.771215 -305.184844 
L 394.711404 -303.854957 
L 395.651592 -302.479198 
L 396.591781 -301.100401 
L 397.531969 -299.723382 
L 398.472158 -298.345227 
L 399.412347 -296.937435 
L 400.352535 -295.526865 
L 401.292724 -294.123763 
L 402.232912 -292.714783 
L 403.173101 -291.311536 
L 404.113289 -289.901535 
L 405.053478 -288.504323 
L 405.993667 -287.108894 
L 406.933855 -285.699901 
L 407.874044 -284.297442 
L 408.814232 -282.898935 
L 409.754421 -281.497151 
L 410.69461 -280.095809 
L 411.634798 -278.718081 
L 412.574987 -277.354293 
L 413.515175 -275.968748 
L 414.455364 -274.595551 
L 415.395552 -273.232076 
L 416.335741 -271.875688 
L 417.27593 -270.518221 
L 418.216118 -269.166612 
L 419.156307 -267.82818 
L 420.096495 -266.47961 
L 421.036684 -265.144291 
L 421.976872 -263.824772 
L 422.917061 -262.490649 
L 423.85725 -261.15907 
L 424.797438 -259.832289 
L 425.737627 -258.517127 
L 426.677815 -257.229832 
L 427.618004 -255.942806 
L 428.558192 -254.657153 
L 429.498381 -253.367122 
L 430.43857 -252.071897 
L 431.378758 -250.782114 
L 432.318947 -249.500172 
L 433.259135 -248.200709 
L 434.199324 -246.894723 
L 435.139513 -245.607065 
L 436.079701 -244.343016 
L 437.01989 -243.066433 
L 437.960078 -241.767861 
L 438.900267 -240.468703 
L 439.840455 -239.17232 
L 440.780644 -237.865422 
L 441.720833 -236.578358 
L 442.661021 -235.30567 
L 443.60121 -233.998893 
L 444.541398 -232.677329 
L 445.481587 -231.381634 
L 446.421775 -230.05582 
L 447.361964 -228.765239 
L 448.302153 -227.468062 
L 449.242341 -226.18692 
L 450.18253 -224.872848 
L 451.122718 -223.550724 
L 452.062907 -222.238834 
L 453.003096 -220.937132 
L 453.943284 -219.640564 
L 454.883473 -218.325646 
L 455.823661 -217.012815 
L 456.76385 -215.711869 
L 457.704038 -214.395126 
L 458.644227 -213.0726 
L 459.584416 -211.778955 
L 460.524604 -210.497646 
L 461.464793 -209.219668 
L 462.404981 -207.947269 
L 463.34517 -206.680326 
L 464.285358 -205.412188 
L 465.225547 -204.172698 
L 466.165736 -202.948868 
L 467.105924 -201.699494 
L 468.046113 -200.457122 
L 468.986301 -199.238976 
L 469.92649 -198.031336 
L 470.866679 -196.844624 
L 471.806867 -195.679149 
L 472.747056 -194.522289 
L 473.687244 -193.348732 
L 474.627433 -192.21497 
L 475.567621 -191.078965 
L 476.50781 -189.962439 
L 477.447999 -188.872321 
L 478.388187 -187.78913 
L 479.328376 -186.741096 
L 480.268564 -185.692649 
L 481.208753 -184.65759 
L 482.148941 -183.659858 
L 483.08913 -182.675769 
L 484.029319 -181.706149 
L 484.969507 -180.757815 
L 485.909696 -179.828694 
L 486.849884 -178.934769 
L 487.790073 -178.04449 
L 488.730262 -177.187856 
L 489.67045 -176.326258 
L 490.610639 -175.497777 
L 491.550827 -174.678844 
L 492.491016 -173.904708 
L 493.431204 -173.139503 
L 494.371393 -172.390754 
L 495.311582 -171.673317 
L 496.25177 -170.959491 
L 497.191959 -170.25703 
L 498.132147 -169.593542 
L 499.072336 -168.981619 
L 500.012524 -168.345049 
L 500.952713 -167.746728 
L 501.892902 -167.186648 
L 502.83309 -166.629321 
L 503.773279 -166.074713 
L 504.713467 -165.544748 
L 505.653656 -165.042876 
L 506.593845 -164.579168 
L 507.534033 -164.115179 
L 508.474222 -163.665075 
L 509.41441 -163.245294 
L 510.354599 -162.84826 
L 511.294787 -162.481699 
L 512.234976 -162.117764 
L 513.175165 -161.771046 
L 514.115353 -161.451499 
L 515.055542 -161.174823 
L 515.99573 -160.902211 
L 516.935919 -160.648 
L 517.876107 -160.401907 
L 518.816296 -160.183292 
L 519.756485 -159.992513 
L 520.696673 -159.813759 
L 521.636862 -159.639126 
L 522.57705 -159.499487 
L 523.517239 -159.381778 
L 524.457428 -159.300857 
L 525.397616 -159.211962 
L 526.337805 -159.158736 
L 527.277993 -159.08887 
L 528.218182 -159.079989 
L 528.218182 -64.269229 
L 528.218182 -64.269229 
L 527.277993 -64.269229 
L 526.337805 -64.269229 
L 525.397616 -64.269229 
L 524.457428 -64.269229 
L 523.517239 -64.269229 
L 522.57705 -64.269229 
L 521.636862 -64.269229 
L 520.696673 -64.269229 
L 519.756485 -64.269229 
L 518.816296 -64.269229 
L 517.876107 -64.269229 
L 516.935919 -64.269229 
L 515.99573 -64.269229 
L 515.055542 -64.269229 
L 514.115353 -64.269229 
L 513.175165 -64.269229 
L 512.234976 -64.269229 
L 511.294787 -64.269229 
L 510.354599 -64.269229 
L 509.41441 -64.269229 
L 508.474222 -64.269229 
L 507.534033 -64.269229 
L 506.593845 -64.269229 
L 505.653656 -64.269229 
L 504.713467 -64.269229 
L 503.773279 -64.269229 
L 502.83309 -64.269229 
L 501.892902 -64.269229 
L 500.952713 -64.269229 
L 500.012524 -64.269229 
L 499.072336 -64.269229 
L 498.132147 -64.269229 
L 497.191959 -64.269229 
L 496.25177 -64.269229 
L 495.311582 -64.269229 
L 494.371393 -64.269229 
L 493.431204 -64.269229 
L 492.491016 -64.269229 
L 491.550827 -64.269229 
L 490.610639 -64.269229 
L 489.67045 -64.269229 
L 488.730262 -64.269229 
L 487.790073 -64.269229 
L 486.849884 -64.269229 
L 485.909696 -64.269229 
L 484.969507 -64.269229 
L 484.029319 -64.269229 
L 483.08913 -64.269229 
L 482.148941 -64.269229 
L 481.208753 -64.269229 
L 480.268564 -64.269229 
L 479.328376 -64.269229 
L 478.388187 -64.269229 
L 477.447999 -64.269229 
L 476.50781 -64.269229 
L 475.567621 -64.269229 
L 474.627433 -64.269229 
L 473.687244 -64.269229 
L 472.747056 -64.269229 
L 471.806867 -64.269229 
L 470.866679 -64.269229 
L 469.92649 -64.269229 
L 468.986301 -64.269229 
L 468.046113 -64.269229 
L 467.105924 -64.269229 
L 466.165736 -64.269229 
L 465.225547 -64.269229 
L 464.285358 -64.269229 
L 463.34517 -64.269229 
L 462.404981 -64.269229 
L 461.464793 -64.269229 
L 460.524604 -64.269229 
L 459.584416 -64.269229 
L 458.644227 -64.269229 
L 457.704038 -64.269229 
L 456.76385 -64.269229 
L 455.823661 -64.269229 
L 454.883473 -64.269229 
L 453.943284 -64.269229 
L 453.003096 -64.269229 
L 452.062907 -64.269229 
L 451.122718 -64.269229 
L 450.18253 -64.269229 
L 449.242341 -64.269229 
L 448.302153 -64.269229 
L 447.361964 -64.269229 
L 446.421775 -64.269229 
L 445.481587 -64.269229 
L 444.541398 -64.269229 
L 443.60121 -64.269229 
L 442.661021 -64.269229 
L 441.720833 -64.269229 
L 440.780644 -64.269229 
L 439.840455 -64.269229 
L 438.900267 -64.269229 
L 437.960078 -64.269229 
L 437.01989 -64.269229 
L 436.079701 -64.269229 
L 435.139513 -64.269229 
L 434.199324 -64.269229 
L 433.259135 -64.269229 
L 432.318947 -64.269229 
L 431.378758 -64.269229 
L 430.43857 -64.269229 
L 429.498381 -64.269229 
L 428.558192 -64.269229 
L 427.618004 -64.269229 
L 426.677815 -64.269229 
L 425.737627 -64.269229 
L 424.797438 -64.269229 
L 423.85725 -64.269229 
L 422.917061 -64.269229 
L 421.976872 -64.269229 
L 421.036684 -64.269229 
L 420.096495 -64.269229 
L 419.156307 -64.269229 
L 418.216118 -64.269229 
L 417.27593 -64.269229 
L 416.335741 -64.269229 
L 415.395552 -64.269229 
L 414.455364 -64.269229 
L 413.515175 -64.269229 
L 412.574987 -64.269229 
L 411.634798 -64.269229 
L 410.69461 -64.269229 
L 409.754421 -64.269229 
L 408.814232 -64.269229 
L 407.874044 -64.269229 
L 406.933855 -64.269229 
L 405.993667 -64.269229 
L 405.053478 -64.269229 
L 404.113289 -64.269229 
L 403.173101 -64.269229 
L 402.232912 -64.269229 
L 401.292724 -64.269229 
L 400.352535 -64.269229 
L 399.412347 -64.269229 
L 398.472158 -64.269229 
L 397.531969 -64.269229 
L 396.591781 -64.269229 
L 395.651592 -64.269229 
L 394.711404 -64.269229 
L 393.771215 -64.269229 
L 392.831027 -64.269229 
L 391.890838 -64.269229 
L 390.950649 -64.269229 
L 390.010461 -64.269229 
L 389.070272 -64.269229 
L 388.130084 -64.269229 
L 387.189895 -64.269229 
L 386.249706 -64.269229 
L 385.309518 -64.269229 
L 384.369329 -64.269229 
L 383.429141 -64.269229 
L 382.488952 -64.269229 
L 381.548764 -64.269229 
L 380.608575 -64.269229 
L 379.668386 -64.269229 
L 378.728198 -64.269229 
L 377.788009 -64.269229 
L 376.847821 -64.269229 
L 375.907632 -64.269229 
L 374.967444 -64.269229 
L 374.027255 -64.269229 
L 373.087066 -64.269229 
L 372.146878 -64.269229 
L 371.206689 -64.269229 
L 370.266501 -64.269229 
L 369.326312 -64.269229 
L 368.386123 -64.269229 
L 367.445935 -64.269229 
L 366.505746 -64.269229 
L 365.565558 -64.269229 
L 364.625369 -64.269229 
L 363.685181 -64.269229 
L 362.744992 -64.269229 
L 361.804803 -64.269229 
L 360.864615 -64.269229 
L 359.924426 -64.269229 
L 358.984238 -64.269229 
L 358.044049 -64.269229 
L 357.103861 -64.269229 
L 356.163672 -64.269229 
L 355.223483 -64.269229 
L 354.283295 -64.269229 
L 353.343106 -64.269229 
L 352.402918 -64.269229 
L 351.462729 -64.269229 
L 350.52254 -64.269229 
L 349.582352 -64.269229 
L 348.642163 -64.269229 
L 347.701975 -64.269229 
L 346.761786 -64.269229 
L 345.821598 -64.269229 
L 344.881409 -64.269229 
L 343.94122 -64.269229 
L 343.001032 -64.269229 
L 342.060843 -64.269229 
L 341.120655 -64.269229 
L 340.180466 -64.269229 
L 339.240278 -64.269229 
L 338.300089 -64.269229 
L 337.3599 -64.269229 
L 336.419712 -64.269229 
L 335.479523 -64.269229 
L 334.539335 -64.269229 
L 333.599146 -64.269229 
L 332.658957 -64.269229 
L 331.718769 -64.269229 
L 330.77858 -64.269229 
L 329.838392 -64.269229 
L 328.898203 -64.269229 
L 327.958015 -64.269229 
L 327.017826 -64.269229 
L 326.077637 -64.269229 
L 325.137449 -64.269229 
L 324.19726 -64.269229 
L 323.257072 -64.269229 
L 322.316883 -64.269229 
L 321.376695 -64.269229 
L 320.436506 -64.269229 
L 319.496317 -64.269229 
L 318.556129 -64.269229 
L 317.61594 -64.269229 
L 316.675752 -64.269229 
L 315.735563 -64.269229 
L 314.795374 -64.269229 
L 313.855186 -64.269229 
L 312.914997 -64.269229 
L 311.974809 -64.269229 
L 311.03462 -64.269229 
L 310.094432 -64.269229 
L 309.154243 -64.269229 
L 308.214054 -64.269229 
L 307.273866 -64.269229 
L 306.333677 -64.269229 
L 305.393489 -64.269229 
L 304.4533 -64.269229 
L 303.513112 -64.269229 
L 302.572923 -64.269229 
L 301.632734 -64.269229 
L 300.692546 -64.269229 
L 299.752357 -64.269229 
L 298.812169 -64.269229 
L 297.87198 -64.269229 
L 296.931791 -64.269229 
L 295.991603 -64.269229 
L 295.051414 -64.269229 
L 294.111226 -64.269229 
L 293.171037 -64.269229 
L 292.230849 -64.269229 
L 291.29066 -64.269229 
L 290.350471 -64.269229 
L 289.410283 -64.269229 
L 288.470094 -64.269229 
L 287.529906 -64.269229 
L 286.589717 -64.269229 
L 285.649529 -64.269229 
L 284.70934 -64.269229 
L 283.769151 -64.269229 
L 282.828963 -64.269229 
L 281.888774 -64.269229 
L 280.948586 -64.269229 
L 280.008397 -64.269229 
L 279.068209 -64.269229 
L 278.12802 -64.269229 
L 277.187831 -64.269229 
L 276.247643 -64.269229 
L 275.307454 -64.269229 
L 274.367266 -64.269229 
L 273.427077 -64.269229 
L 272.486888 -64.269229 
L 271.5467 -64.269229 
L 270.606511 -64.269229 
L 269.666323 -64.269229 
L 268.726134 -64.269229 
L 267.785946 -64.269229 
L 266.845757 -64.269229 
L 265.905568 -64.269229 
L 264.96538 -64.269229 
L 264.025191 -64.269229 
L 263.085003 -64.269229 
L 262.144814 -64.269229 
L 261.204626 -64.269229 
L 260.264437 -64.269229 
L 259.324248 -64.269229 
L 258.38406 -64.269229 
L 257.443871 -64.269229 
L 256.503683 -64.269229 
L 255.563494 -64.269229 
L 254.623305 -64.269229 
L 253.683117 -64.269229 
L 252.742928 -64.269229 
L 251.80274 -64.269229 
L 250.862551 -64.269229 
L 249.922363 -64.269229 
L 248.982174 -64.269229 
L 248.041985 -64.269229 
L 247.101797 -64.269229 
L 246.161608 -64.269229 
L 245.22142 -64.269229 
L 244.281231 -64.269229 
L 243.341043 -64.269229 
L 242.400854 -64.269229 
L 241.460665 -64.269229 
L 240.520477 -64.269229 
L 239.580288 -64.269229 
L 238.6401 -64.269229 
L 237.699911 -64.269229 
L 236.759722 -64.269229 
L 235.819534 -64.269229 
L 234.879345 -64.269229 
L 233.939157 -64.269229 
L 232.998968 -64.269229 
L 232.05878 -64.269229 
L 231.118591 -64.269229 
L 230.178402 -64.269229 
L 229.238214 -64.269229 
L 228.298025 -64.269229 
L 227.357837 -64.269229 
L 226.417648 -64.269229 
L 225.47746 -64.269229 
L 224.537271 -64.269229 
L 223.597082 -64.269229 
L 222.656894 -64.269229 
L 221.716705 -64.269229 
L 220.776517 -64.269229 
L 219.836328 -64.269229 
L 218.896139 -64.269229 
L 217.955951 -64.269229 
L 217.015762 -64.269229 
L 216.075574 -64.269229 
L 215.135385 -64.269229 
L 214.195197 -64.269229 
L 213.255008 -64.269229 
L 212.314819 -64.269229 
L 211.374631 -64.269229 
L 210.434442 -64.269229 
L 209.494254 -64.269229 
L 208.554065 -64.269229 
L 207.613877 -64.269229 
L 206.673688 -64.269229 
L 205.733499 -64.269229 
L 204.793311 -64.269229 
L 203.853122 -64.269229 
L 202.912934 -64.269229 
L 201.972745 -64.269229 
L 201.032556 -64.269229 
L 200.092368 -64.269229 
L 199.152179 -64.269229 
L 198.211991 -64.269229 
L 197.271802 -64.269229 
L 196.331614 -64.269229 
L 195.391425 -64.269229 
L 194.451236 -64.269229 
L 193.511048 -64.269229 
L 192.570859 -64.269229 
L 191.630671 -64.269229 
L 190.690482 -64.269229 
L 189.750294 -64.269229 
L 188.810105 -64.269229 
L 187.869916 -64.269229 
L 186.929728 -64.269229 
L 185.989539 -64.269229 
L 185.049351 -64.269229 
L 184.109162 -64.269229 
L 183.168973 -64.269229 
L 182.228785 -64.269229 
L 181.288596 -64.269229 
L 180.348408 -64.269229 
L 179.408219 -64.269229 
L 178.468031 -64.269229 
L 177.527842 -64.269229 
L 176.587653 -64.269229 
L 175.647465 -64.269229 
L 174.707276 -64.269229 
L 173.767088 -64.269229 
L 172.826899 -64.269229 
L 171.886711 -64.269229 
L 170.946522 -64.269229 
L 170.006333 -64.269229 
L 169.066145 -64.269229 
L 168.125956 -64.269229 
L 167.185768 -64.269229 
L 166.245579 -64.269229 
L 165.30539 -64.269229 
L 164.365202 -64.269229 
L 163.425013 -64.269229 
L 162.484825 -64.269229 
L 161.544636 -64.269229 
L 160.604448 -64.269229 
L 159.664259 -64.269229 
L 158.72407 -64.269229 
L 157.783882 -64.269229 
L 156.843693 -64.269229 
L 155.903505 -64.269229 
L 154.963316 -64.269229 
L 154.023128 -64.269229 
L 153.082939 -64.269229 
L 152.14275 -64.269229 
L 151.202562 -64.269229 
L 150.262373 -64.269229 
L 149.322185 -64.269229 
L 148.381996 -64.269229 
L 147.441808 -64.269229 
L 146.501619 -64.269229 
L 145.56143 -64.269229 
L 144.621242 -64.269229 
L 143.681053 -64.269229 
L 142.740865 -64.269229 
L 141.800676 -64.269229 
L 140.860487 -64.269229 
L 139.920299 -64.269229 
L 138.98011 -64.269229 
L 138.039922 -64.269229 
L 137.099733 -64.269229 
L 136.159545 -64.269229 
L 135.219356 -64.269229 
L 134.279167 -64.269229 
L 133.338979 -64.269229 
L 132.39879 -64.269229 
L 131.458602 -64.269229 
L 130.518413 -64.269229 
L 129.578225 -64.269229 
L 128.638036 -64.269229 
L 127.697847 -64.269229 
L 126.757659 -64.269229 
L 125.81747 -64.269229 
L 124.877282 -64.269229 
L 123.937093 -64.269229 
L 122.996904 -64.269229 
L 122.056716 -64.269229 
L 121.116527 -64.269229 
L 120.176339 -64.269229 
L 119.23615 -64.269229 
L 118.295962 -64.269229 
L 117.355773 -64.269229 
L 116.415584 -64.269229 
L 115.475396 -64.269229 
L 114.535207 -64.269229 
L 113.595019 -64.269229 
L 112.65483 -64.269229 
L 111.714642 -64.269229 
L 110.774453 -64.269229 
L 109.834264 -64.269229 
L 108.894076 -64.269229 
L 107.953887 -64.269229 
L 107.013699 -64.269229 
L 106.07351 -64.269229 
L 105.133321 -64.269229 
L 104.193133 -64.269229 
L 103.252944 -64.269229 
L 102.312756 -64.269229 
L 101.372567 -64.269229 
L 100.432379 -64.269229 
L 99.49219 -64.269229 
L 98.552001 -64.269229 
L 97.611813 -64.269229 
L 96.671624 -64.269229 
L 95.731436 -64.269229 
L 94.791247 -64.269229 
L 93.851059 -64.269229 
L 92.91087 -64.269229 
L 91.970681 -64.269229 
L 91.030493 -64.269229 
L 90.090304 -64.269229 
L 89.150116 -64.269229 
L 88.209927 -64.269229 
L 87.269738 -64.269229 
L 86.32955 -64.269229 
L 85.389361 -64.269229 
L 84.449173 -64.269229 
L 83.508984 -64.269229 
L 82.568796 -64.269229 
L 81.628607 -64.269229 
L 80.688418 -64.269229 
L 79.74823 -64.269229 
L 78.808041 -64.269229 
L 77.867853 -64.269229 
L 76.927664 -64.269229 
L 75.987476 -64.269229 
L 75.047287 -64.269229 
L 74.107098 -64.269229 
L 73.16691 -64.269229 
L 72.226721 -64.269229 
L 71.286533 -64.269229 
L 70.346344 -64.269229 
L 69.406155 -64.269229 
L 68.465967 -64.269229 
L 67.525778 -64.269229 
L 66.58559 -64.269229 
L 65.645401 -64.269229 
L 64.705213 -64.269229 
L 63.765024 -64.269229 
L 62.824835 -64.269229 
L 61.884647 -64.269229 
L 60.944458 -64.269229 
L 60.00427 -64.269229 
L 59.064081 -64.269229 
L 58.123893 -64.269229 
L 57.183704 -64.269229 
L 56.243515 -64.269229 
L 55.303327 -64.269229 
L 54.363138 -64.269229 
L 53.42295 -64.269229 
L 52.482761 -64.269229 
L 51.542572 -64.269229 
L 50.602384 -64.269229 
L 49.662195 -64.269229 
L 48.722007 -64.269229 
L 47.781818 -64.269229 
z
" style="stroke: #6cb7ff; stroke-opacity: 0.6; stroke-width: 0.3"/>
    </defs>
    <g clip-path="url(#pd33f72aaa3)">
     <use xlink:href="#m7ea926586d" x="0" y="432" style="fill: #6cb7ff; fill-opacity: 0.6; stroke: #6cb7ff; stroke-opacity: 0.6; stroke-width: 0.3"/>
    </g>
   </g>
   <g id="line2d_15">
    <path d="M 47.781818 269.171548 
L 51.542572 269.021548 
L 54.363138 268.719704 
L 58.123893 267.998229 
L 61.884647 266.940974 
L 64.705213 265.944402 
L 68.465967 264.372105 
L 71.286533 262.999443 
L 75.047287 260.91032 
L 77.867853 259.140125 
L 83.508984 255.065765 
L 87.269738 252.043759 
L 91.030493 248.795778 
L 94.791247 245.328166 
L 100.432379 239.762162 
L 106.07351 233.85231 
L 114.535207 224.492157 
L 128.638036 208.398379 
L 138.039922 197.559951 
L 148.381996 185.664551 
L 159.664259 172.848219 
L 172.826899 158.255084 
L 186.929728 143.475403 
L 197.271802 133.322336 
L 212.314819 118.680472 
L 218.896139 112.043824 
L 228.298025 102.001042 
L 243.341043 85.496743 
L 247.101797 81.654232 
L 249.922363 78.937112 
L 252.742928 76.39446 
L 257.443871 72.648387 
L 260.264437 70.761521 
L 263.085003 69.157109 
L 265.905568 67.913304 
L 268.726134 67.039268 
L 271.5467 66.483173 
L 273.427077 66.279603 
L 276.247643 66.282578 
L 279.068209 66.584367 
L 280.948586 66.939532 
L 284.70934 68.085995 
L 287.529906 69.199441 
L 291.29066 70.935 
L 295.991603 73.348145 
L 311.03462 81.484898 
L 314.795374 83.18361 
L 321.376695 85.596395 
L 327.958015 87.415871 
L 332.658957 88.268057 
L 341.120655 89.344459 
L 346.761786 90.019409 
L 353.343106 91.325168 
L 357.103861 92.461411 
L 359.924426 93.485464 
L 361.804803 94.336974 
L 364.625369 95.825163 
L 368.386123 98.241741 
L 370.266501 99.644314 
L 373.087066 101.986614 
L 375.907632 104.654424 
L 379.668386 108.593545 
L 382.488952 111.822786 
L 385.309518 115.323218 
L 389.070272 120.288845 
L 392.831027 125.483487 
L 398.472158 133.654773 
L 414.455364 157.404449 
L 422.917061 169.509351 
L 428.558192 177.342847 
L 453.943284 212.359436 
L 463.34517 225.319674 
L 468.986301 232.761024 
L 473.687244 238.651268 
L 478.388187 244.21087 
L 483.08913 249.324231 
L 486.849884 253.065231 
L 490.610639 256.502223 
L 493.431204 258.860497 
L 497.191959 261.74297 
L 500.012524 263.654951 
L 503.773279 265.925287 
L 506.593845 267.420832 
L 509.41441 268.754706 
L 513.175165 270.228954 
L 515.99573 271.097789 
L 519.756485 272.007487 
L 523.517239 272.618222 
L 528.218182 272.920011 
L 528.218182 272.920011 
" clip-path="url(#pd33f72aaa3)" style="fill: none; stroke: #7570b3; stroke-width: 2; stroke-linecap: round"/>
   </g>
   <g id="line2d_16">
    <path d="M 47.781818 368.716364 
L 47.781818 269.171548 
" clip-path="url(#pd33f72aaa3)" style="fill: none; stroke: #7570b3; stroke-width: 2; stroke-linecap: round"/>
   </g>
   <g id="line2d_17">
    <path d="M 528.218182 368.678879 
L 528.218182 272.920011 
" clip-path="url(#pd33f72aaa3)" style="fill: none; stroke: #7570b3; stroke-width: 2; stroke-linecap: round"/>
   </g>
   <g id="line2d_18">
    <defs>
     <path id="m730ebb9361" d="M 0 3.5 
C 0.928211 3.5 1.81853 3.131218 2.474874 2.474874 
C 3.131218 1.81853 3.5 0.928211 3.5 0 
C 3.5 -0.928211 3.131218 -1.81853 2.474874 -2.474874 
C 1.81853 -3.131218 0.928211 -3.5 0 -3.5 
C -0.928211 -3.5 -1.81853 -3.131218 -2.474874 -2.474874 
C -3.131218 -1.81853 -3.5 -0.928211 -3.5 0 
C -3.5 0.928211 -3.131218 1.81853 -2.474874 2.474874 
C -1.81853 3.131218 -0.928211 3.5 0 3.5 
z
"/>
    </defs>
    <g clip-path="url(#pd33f72aaa3)">
     <use xlink:href="#m730ebb9361" x="288.03728" y="367.730771" style="fill: #7570b3"/>
    </g>
   </g>
   <g id="patch_3">
    <path d="M 23.76 383.84 
L 552.24 383.84 
" style="fill: none; stroke: #333333; stroke-width: 1.5; stroke-linejoin: miter; stroke-linecap: square"/>
   </g>
   <g id="text_8">
    <!-- $x_3$ -->
    <g style="fill: #262626" transform="translate(273.02 45.12)">
     <text>
      <tspan x="0" y="-0.6875" style="font-style: oblique; font-size: 28px; font-family: 'DejaVu Sans'; fill: #262626">x</tspan>
      <tspan x="16.570312" y="3.90625" style="font-size: 19.6px; font-family: 'DejaVu Sans'; fill: #262626">3</tspan>
     </text>
    </g>
   </g>
  </g>
 </g>
 <defs>
  <clipPath id="pd33f72aaa3">
   <rect x="23.76" y="51.12" width="528.48" height="332.72"/>
  </clipPath>
 </defs>
</svg>
