<?xml version="1.0" encoding="utf-8" standalone="no"?>
<!DOCTYPE svg PUBLIC "-//W3C//DTD SVG 1.1//EN"
  "http://www.w3.org/Graphics/SVG/1.1/DTD/svg11.dtd">
<svg xmlns:xlink="http://www.w3.org/1999/xlink" width="576pt" height="432pt" viewBox="0 0 576 432" xmlns="http://www.w3.org/2000/svg" version="1.1">
 <metadata>
  <rdf:RDF xmlns:dc="http://purl.org/dc/elements/1.1/" xmlns:cc="http://creativecommons.org/ns#" xmlns:rdf="http://www.w3.org/1999/02/22-rdf-syntax-ns#">
   <cc:Work>
    <dc:type rdf:resource="http://purl.org/dc/dcmitype/StillImage"/>
    <dc:date>2025-09-22T23:00:34.492057</dc:date>
    <dc:format>image/svg+xml</dc:format>
    <dc:creator>
     <cc:Agent>
      <dc:title>Matplotlib v3.10.0, https://matplotlib.org/</dc:title>
     </cc:Agent>
    </dc:creator>
   </cc:Work>
  </rdf:RDF>
 </metadata>
 <defs>
  <style type="text/css">*{stroke-linejoin: round; stroke-linecap: butt}</style>
 </defs>
 <g id="figure_1">
  <g id="patch_1">
   <path d="M 0 432 
L 576 432 
L 576 0 
L 0 0 
L 0 432 
z
" style="fill: none; opacity: 0"/>
  </g>
  <g id="axes_1">
   <g id="patch_2">
    <path d="M 49.747165 383.84 
L 545.559577 383.84 
L 545.559577 57.564 
L 49.747165 57.564 
L 49.747165 383.84 
z
" style="fill: none"/>
   </g>
   <g id="matplotlib.axis_1">
    <g id="xtick_1">
     <g id="line2d_1">
      <path d="M 51.505205 383.84 
L 51.505205 57.564 
" clip-path="url(#pd66e0af195)" style="fill: none; stroke: #ffffff; stroke-opacity: 0.4; stroke-linecap: round"/>
     </g>
     <g id="line2d_2"/>
     <g id="text_1">
      <text style="font-size: 18px; font-family: 'DejaVu Serif', 'Times New Roman', serif; text-anchor: middle; fill: #262626" x="51.505205" y="404.517187" transform="rotate(-0 51.505205 404.517187)">−0.36</text>
     </g>
    </g>
    <g id="xtick_2">
     <g id="line2d_3">
      <path d="M 129.980624 383.84 
L 129.980624 57.564 
" clip-path="url(#pd66e0af195)" style="fill: none; stroke: #ffffff; stroke-opacity: 0.4; stroke-linecap: round"/>
     </g>
     <g id="line2d_4"/>
     <g id="text_2">
      <text style="font-size: 18px; font-family: 'DejaVu Serif', 'Times New Roman', serif; text-anchor: middle; fill: #262626" x="129.980624" y="404.517187" transform="rotate(-0 129.980624 404.517187)">−0.35</text>
     </g>
    </g>
    <g id="xtick_3">
     <g id="line2d_5">
      <path d="M 208.456042 383.84 
L 208.456042 57.564 
" clip-path="url(#pd66e0af195)" style="fill: none; stroke: #ffffff; stroke-opacity: 0.4; stroke-linecap: round"/>
     </g>
     <g id="line2d_6"/>
     <g id="text_3">
      <text style="font-size: 18px; font-family: 'DejaVu Serif', 'Times New Roman', serif; text-anchor: middle; fill: #262626" x="208.456042" y="404.517187" transform="rotate(-0 208.456042 404.517187)">−0.34</text>
     </g>
    </g>
    <g id="xtick_4">
     <g id="line2d_7">
      <path d="M 286.93146 383.84 
L 286.93146 57.564 
" clip-path="url(#pd66e0af195)" style="fill: none; stroke: #ffffff; stroke-opacity: 0.4; stroke-linecap: round"/>
     </g>
     <g id="line2d_8"/>
     <g id="text_4">
      <text style="font-size: 18px; font-family: 'DejaVu Serif', 'Times New Roman', serif; text-anchor: middle; fill: #262626" x="286.93146" y="404.517187" transform="rotate(-0 286.93146 404.517187)">−0.33</text>
     </g>
    </g>
    <g id="xtick_5">
     <g id="line2d_9">
      <path d="M 365.406878 383.84 
L 365.406878 57.564 
" clip-path="url(#pd66e0af195)" style="fill: none; stroke: #ffffff; stroke-opacity: 0.4; stroke-linecap: round"/>
     </g>
     <g id="line2d_10"/>
     <g id="text_5">
      <text style="font-size: 18px; font-family: 'DejaVu Serif', 'Times New Roman', serif; text-anchor: middle; fill: #262626" x="365.406878" y="404.517187" transform="rotate(-0 365.406878 404.517187)">−0.32</text>
     </g>
    </g>
    <g id="xtick_6">
     <g id="line2d_11">
      <path d="M 443.882296 383.84 
L 443.882296 57.564 
" clip-path="url(#pd66e0af195)" style="fill: none; stroke: #ffffff; stroke-opacity: 0.4; stroke-linecap: round"/>
     </g>
     <g id="line2d_12"/>
     <g id="text_6">
      <text style="font-size: 18px; font-family: 'DejaVu Serif', 'Times New Roman', serif; text-anchor: middle; fill: #262626" x="443.882296" y="404.517187" transform="rotate(-0 443.882296 404.517187)">−0.31</text>
     </g>
    </g>
    <g id="xtick_7">
     <g id="line2d_13">
      <path d="M 522.357714 383.84 
L 522.357714 57.564 
" clip-path="url(#pd66e0af195)" style="fill: none; stroke: #ffffff; stroke-opacity: 0.4; stroke-linecap: round"/>
     </g>
     <g id="line2d_14"/>
     <g id="text_7">
      <text style="font-size: 18px; font-family: 'DejaVu Serif', 'Times New Roman', serif; text-anchor: middle; fill: #262626" x="522.357714" y="404.517187" transform="rotate(-0 522.357714 404.517187)">−0.30</text>
     </g>
    </g>
   </g>
   <g id="matplotlib.axis_2"/>
   <g id="FillBetweenPolyCollection_1">
    <defs>
     <path id="mfbdbcdecab" d="M 72.284092 -63.990752 
L 72.284092 -163.993256 
L 73.166164 -164.00406 
L 74.048236 -164.085732 
L 74.930307 -164.194672 
L 75.812379 -164.335541 
L 76.69445 -164.491148 
L 77.576522 -164.675906 
L 78.458593 -164.89831 
L 79.340665 -165.18864 
L 80.222736 -165.487167 
L 81.104808 -165.837286 
L 81.986879 -166.21776 
L 82.868951 -166.644997 
L 83.751022 -167.096351 
L 84.633094 -167.604136 
L 85.515166 -168.124017 
L 86.397237 -168.677078 
L 87.279309 -169.279005 
L 88.16138 -169.915646 
L 89.043452 -170.543282 
L 89.925523 -171.254919 
L 90.807595 -171.975368 
L 91.689666 -172.743706 
L 92.571738 -173.54885 
L 93.453809 -174.39182 
L 94.335881 -175.242212 
L 95.217952 -176.149518 
L 96.100024 -177.083242 
L 96.982096 -178.058737 
L 97.864167 -179.06971 
L 98.746239 -180.099754 
L 99.62831 -181.153557 
L 100.510382 -182.226973 
L 101.392453 -183.33651 
L 102.274525 -184.456204 
L 103.156596 -185.597073 
L 104.038668 -186.77635 
L 104.920739 -187.963558 
L 105.802811 -189.192342 
L 106.684882 -190.396938 
L 107.566954 -191.652668 
L 108.449026 -192.93323 
L 109.331097 -194.229841 
L 110.213169 -195.556446 
L 111.09524 -196.902516 
L 111.977312 -198.256145 
L 112.859383 -199.616451 
L 113.741455 -200.981006 
L 114.623526 -202.373876 
L 115.505598 -203.755521 
L 116.387669 -205.164479 
L 117.269741 -206.56651 
L 118.151812 -207.962961 
L 119.033884 -209.373388 
L 119.915956 -210.791347 
L 120.798027 -212.210446 
L 121.680099 -213.651852 
L 122.56217 -215.095429 
L 123.444242 -216.522016 
L 124.326313 -217.945565 
L 125.208385 -219.367409 
L 126.090456 -220.81355 
L 126.972528 -222.247494 
L 127.854599 -223.685845 
L 128.736671 -225.101298 
L 129.618742 -226.529176 
L 130.500814 -227.982335 
L 131.382886 -229.409771 
L 132.264957 -230.831334 
L 133.147029 -232.235923 
L 134.0291 -233.629251 
L 134.911172 -234.980221 
L 135.793243 -236.317726 
L 136.675315 -237.673053 
L 137.557386 -239.031507 
L 138.439458 -240.371879 
L 139.321529 -241.700006 
L 140.203601 -243.029492 
L 141.085672 -244.328708 
L 141.967744 -245.621954 
L 142.849816 -246.89351 
L 143.731887 -248.180811 
L 144.613959 -249.440511 
L 145.49603 -250.693958 
L 146.378102 -251.9196 
L 147.260173 -253.147025 
L 148.142245 -254.339817 
L 149.024316 -255.549848 
L 149.906388 -256.72789 
L 150.788459 -257.90287 
L 151.670531 -259.07632 
L 152.552602 -260.219969 
L 153.434674 -261.383706 
L 154.316746 -262.525008 
L 155.198817 -263.633608 
L 156.080889 -264.772937 
L 156.96296 -265.916063 
L 157.845032 -267.064309 
L 158.727103 -268.190129 
L 159.609175 -269.318449 
L 160.491246 -270.42877 
L 161.373318 -271.55453 
L 162.255389 -272.689709 
L 163.137461 -273.810486 
L 164.019532 -274.950818 
L 164.901604 -276.089703 
L 165.783676 -277.238897 
L 166.665747 -278.38839 
L 167.547819 -279.534774 
L 168.42989 -280.713104 
L 169.311962 -281.867725 
L 170.194033 -283.077882 
L 171.076105 -284.278717 
L 171.958176 -285.500768 
L 172.840248 -286.726691 
L 173.722319 -288.002287 
L 174.604391 -289.272185 
L 175.486462 -290.552707 
L 176.368534 -291.859984 
L 177.250606 -293.167646 
L 178.132677 -294.501729 
L 179.014749 -295.83752 
L 179.89682 -297.195488 
L 180.778892 -298.559816 
L 181.660963 -299.915904 
L 182.543035 -301.333877 
L 183.425106 -302.730146 
L 184.307178 -304.148263 
L 185.189249 -305.578111 
L 186.071321 -307.045312 
L 186.953392 -308.471787 
L 187.835464 -309.907804 
L 188.717536 -311.371647 
L 189.599607 -312.838312 
L 190.481679 -314.32528 
L 191.36375 -315.825069 
L 192.245822 -317.296432 
L 193.127893 -318.765851 
L 194.009965 -320.24037 
L 194.892036 -321.713545 
L 195.774108 -323.172162 
L 196.656179 -324.627504 
L 197.538251 -326.076844 
L 198.420322 -327.516013 
L 199.302394 -328.960658 
L 200.184466 -330.38604 
L 201.066537 -331.79491 
L 201.948609 -333.195794 
L 202.83068 -334.544602 
L 203.712752 -335.884322 
L 204.594823 -337.202953 
L 205.476895 -338.469171 
L 206.358966 -339.750427 
L 207.241038 -340.991425 
L 208.123109 -342.209784 
L 209.005181 -343.398578 
L 209.887252 -344.548989 
L 210.769324 -345.683611 
L 211.651396 -346.759561 
L 212.533467 -347.811551 
L 213.415539 -348.791807 
L 214.29761 -349.751309 
L 215.179682 -350.672681 
L 216.061753 -351.558043 
L 216.943825 -352.401488 
L 217.825896 -353.212694 
L 218.707968 -353.935325 
L 219.590039 -354.659124 
L 220.472111 -355.31642 
L 221.354182 -355.922576 
L 222.236254 -356.487219 
L 223.118326 -357.000825 
L 224.000397 -357.491691 
L 224.882469 -357.914124 
L 225.76454 -358.291924 
L 226.646612 -358.610835 
L 227.528683 -358.8793 
L 228.410755 -359.095677 
L 229.292826 -359.280643 
L 230.174898 -359.41459 
L 231.056969 -359.520536 
L 231.939041 -359.586076 
L 232.821113 -359.605273 
L 233.703184 -359.567411 
L 234.585256 -359.488252 
L 235.467327 -359.364768 
L 236.349399 -359.212338 
L 237.23147 -359.036878 
L 238.113542 -358.834424 
L 238.995613 -358.576026 
L 239.877685 -358.279376 
L 240.759756 -357.942725 
L 241.641828 -357.576283 
L 242.523899 -357.196061 
L 243.405971 -356.808104 
L 244.288043 -356.40614 
L 245.170114 -355.970464 
L 246.052186 -355.540663 
L 246.934257 -355.086506 
L 247.816329 -354.619708 
L 248.6984 -354.147132 
L 249.580472 -353.682469 
L 250.462543 -353.183011 
L 251.344615 -352.679631 
L 252.226686 -352.136869 
L 253.108758 -351.620768 
L 253.990829 -351.092742 
L 254.872901 -350.571083 
L 255.754973 -350.087654 
L 256.637044 -349.563495 
L 257.519116 -349.064563 
L 258.401187 -348.551061 
L 259.283259 -348.073297 
L 260.16533 -347.605468 
L 261.047402 -347.127514 
L 261.929473 -346.66836 
L 262.811545 -346.211001 
L 263.693616 -345.785135 
L 264.575688 -345.376643 
L 265.457759 -344.986905 
L 266.339831 -344.60472 
L 267.221903 -344.235647 
L 268.103974 -343.875947 
L 268.986046 -343.53817 
L 269.868117 -343.210215 
L 270.750189 -342.89527 
L 271.63226 -342.608494 
L 272.514332 -342.349676 
L 273.396403 -342.088689 
L 274.278475 -341.84148 
L 275.160546 -341.62387 
L 276.042618 -341.436314 
L 276.924689 -341.252776 
L 277.806761 -341.087105 
L 278.688833 -340.961304 
L 279.570904 -340.833286 
L 280.452976 -340.72447 
L 281.335047 -340.625262 
L 282.217119 -340.543774 
L 283.09919 -340.50549 
L 283.981262 -340.473816 
L 284.863333 -340.459364 
L 285.745405 -340.466423 
L 286.627476 -340.466394 
L 287.509548 -340.494146 
L 288.391619 -340.504853 
L 289.273691 -340.561562 
L 290.155763 -340.630021 
L 291.037834 -340.716101 
L 291.919906 -340.811695 
L 292.801977 -340.897997 
L 293.684049 -341.01347 
L 294.56612 -341.109764 
L 295.448192 -341.240207 
L 296.330263 -341.376275 
L 297.212335 -341.516553 
L 298.094406 -341.646567 
L 298.976478 -341.746797 
L 299.858549 -341.88968 
L 300.740621 -341.994442 
L 301.622693 -342.125434 
L 302.504764 -342.223593 
L 303.386836 -342.322367 
L 304.268907 -342.393862 
L 305.150979 -342.498483 
L 306.03305 -342.594255 
L 306.915122 -342.682327 
L 307.797193 -342.752835 
L 308.679265 -342.800713 
L 309.561336 -342.855159 
L 310.443408 -342.854781 
L 311.325479 -342.89297 
L 312.207551 -342.89803 
L 313.089623 -342.867274 
L 313.971694 -342.848588 
L 314.853766 -342.798438 
L 315.735837 -342.713287 
L 316.617909 -342.624216 
L 317.49998 -342.521941 
L 318.382052 -342.412301 
L 319.264123 -342.288759 
L 320.146195 -342.151654 
L 321.028266 -341.968992 
L 321.910338 -341.770782 
L 322.792409 -341.567232 
L 323.674481 -341.35712 
L 324.556553 -341.093882 
L 325.438624 -340.85279 
L 326.320696 -340.602736 
L 327.202767 -340.346567 
L 328.084839 -340.069792 
L 328.96691 -339.769387 
L 329.848982 -339.451783 
L 330.731053 -339.14604 
L 331.613125 -338.824922 
L 332.495196 -338.484301 
L 333.377268 -338.13826 
L 334.259339 -337.787837 
L 335.141411 -337.412341 
L 336.023483 -337.022753 
L 336.905554 -336.6009 
L 337.787626 -336.200329 
L 338.669697 -335.76811 
L 339.551769 -335.33517 
L 340.43384 -334.844487 
L 341.315912 -334.346227 
L 342.197983 -333.86885 
L 343.080055 -333.353758 
L 343.962126 -332.850904 
L 344.844198 -332.323086 
L 345.726269 -331.757673 
L 346.608341 -331.175153 
L 347.490413 -330.555427 
L 348.372484 -329.896067 
L 349.254556 -329.232162 
L 350.136627 -328.577366 
L 351.018699 -327.904767 
L 351.90077 -327.176029 
L 352.782842 -326.436131 
L 353.664913 -325.642277 
L 354.546985 -324.809893 
L 355.429056 -323.995947 
L 356.311128 -323.160951 
L 357.193199 -322.285963 
L 358.075271 -321.388732 
L 358.957343 -320.467351 
L 359.839414 -319.525401 
L 360.721486 -318.558926 
L 361.603557 -317.554896 
L 362.485629 -316.530189 
L 363.3677 -315.485866 
L 364.249772 -314.451682 
L 365.131843 -313.37425 
L 366.013915 -312.304916 
L 366.895986 -311.187095 
L 367.778058 -310.090066 
L 368.660129 -308.934158 
L 369.542201 -307.795818 
L 370.424273 -306.656615 
L 371.306344 -305.506955 
L 372.188416 -304.360408 
L 373.070487 -303.197255 
L 373.952559 -302.035262 
L 374.83463 -300.876688 
L 375.716702 -299.707307 
L 376.598773 -298.540173 
L 377.480845 -297.400296 
L 378.362916 -296.262586 
L 379.244988 -295.144815 
L 380.127059 -294.021223 
L 381.009131 -292.915018 
L 381.891203 -291.829511 
L 382.773274 -290.782501 
L 383.655346 -289.731039 
L 384.537417 -288.685924 
L 385.419489 -287.664436 
L 386.30156 -286.614603 
L 387.183632 -285.617174 
L 388.065703 -284.624106 
L 388.947775 -283.655267 
L 389.829846 -282.699059 
L 390.711918 -281.758696 
L 391.593989 -280.820349 
L 392.476061 -279.909575 
L 393.358133 -279.01188 
L 394.240204 -278.119455 
L 395.122276 -277.243195 
L 396.004347 -276.37661 
L 396.886419 -275.521882 
L 397.76849 -274.644924 
L 398.650562 -273.774094 
L 399.532633 -272.89759 
L 400.414705 -272.022365 
L 401.296776 -271.133595 
L 402.178848 -270.278709 
L 403.060919 -269.404118 
L 403.942991 -268.543155 
L 404.825063 -267.647232 
L 405.707134 -266.736605 
L 406.589206 -265.799571 
L 407.471277 -264.88186 
L 408.353349 -263.942675 
L 409.23542 -262.970233 
L 410.117492 -261.993215 
L 410.999563 -261.006721 
L 411.881635 -260.004642 
L 412.763706 -258.972312 
L 413.645778 -257.902275 
L 414.527849 -256.811603 
L 415.409921 -255.71459 
L 416.291993 -254.626379 
L 417.174064 -253.481414 
L 418.056136 -252.30035 
L 418.938207 -251.129396 
L 419.820279 -249.918111 
L 420.70235 -248.692843 
L 421.584422 -247.44727 
L 422.466493 -246.166975 
L 423.348565 -244.892121 
L 424.230636 -243.603843 
L 425.112708 -242.287836 
L 425.994779 -240.944255 
L 426.876851 -239.57607 
L 427.758923 -238.213307 
L 428.640994 -236.856378 
L 429.523066 -235.502682 
L 430.405137 -234.100544 
L 431.287209 -232.704702 
L 432.16928 -231.295634 
L 433.051352 -229.889569 
L 433.933423 -228.478706 
L 434.815495 -227.050874 
L 435.697566 -225.630455 
L 436.579638 -224.198388 
L 437.461709 -222.771685 
L 438.343781 -221.364952 
L 439.225853 -219.976056 
L 440.107924 -218.582664 
L 440.989996 -217.230449 
L 441.872067 -215.841603 
L 442.754139 -214.488006 
L 443.63621 -213.153244 
L 444.518282 -211.82524 
L 445.400353 -210.5396 
L 446.282425 -209.2606 
L 447.164496 -207.993841 
L 448.046568 -206.769385 
L 448.928639 -205.548316 
L 449.810711 -204.345999 
L 450.692783 -203.163105 
L 451.574854 -202.013676 
L 452.456926 -200.898718 
L 453.338997 -199.812497 
L 454.221069 -198.736648 
L 455.10314 -197.691173 
L 455.985212 -196.64134 
L 456.867283 -195.617656 
L 457.749355 -194.62682 
L 458.631426 -193.676511 
L 459.513498 -192.751814 
L 460.395569 -191.834344 
L 461.277641 -190.933437 
L 462.159713 -190.0655 
L 463.041784 -189.21799 
L 463.923856 -188.393288 
L 464.805927 -187.588897 
L 465.687999 -186.811962 
L 466.57007 -186.061991 
L 467.452142 -185.307621 
L 468.334213 -184.557292 
L 469.216285 -183.842004 
L 470.098356 -183.138867 
L 470.980428 -182.450148 
L 471.862499 -181.773326 
L 472.744571 -181.080254 
L 473.626643 -180.413554 
L 474.508714 -179.763898 
L 475.390786 -179.094564 
L 476.272857 -178.432846 
L 477.154929 -177.780486 
L 478.037 -177.14325 
L 478.919072 -176.506845 
L 479.801143 -175.862849 
L 480.683215 -175.189717 
L 481.565286 -174.514396 
L 482.447358 -173.870208 
L 483.329429 -173.207836 
L 484.211501 -172.551853 
L 485.093573 -171.894172 
L 485.975644 -171.232634 
L 486.857716 -170.543396 
L 487.739787 -169.882689 
L 488.621859 -169.218779 
L 489.50393 -168.549567 
L 490.386002 -167.874479 
L 491.268073 -167.196391 
L 492.150145 -166.515366 
L 493.032216 -165.82478 
L 493.914288 -165.159116 
L 494.796359 -164.470107 
L 495.678431 -163.781818 
L 496.560503 -163.098057 
L 497.442574 -162.430985 
L 498.324646 -161.728199 
L 499.206717 -161.06693 
L 500.088789 -160.388568 
L 500.97086 -159.733889 
L 501.852932 -159.106215 
L 502.735003 -158.47193 
L 503.617075 -157.841234 
L 504.499146 -157.215018 
L 505.381218 -156.617282 
L 506.263289 -156.049027 
L 507.145361 -155.486303 
L 508.027433 -154.939799 
L 508.909504 -154.413864 
L 509.791576 -153.91621 
L 510.673647 -153.435249 
L 511.555719 -152.974752 
L 512.43779 -152.534985 
L 513.319862 -152.121405 
L 514.201933 -151.750527 
L 515.084005 -151.415326 
L 515.966076 -151.117033 
L 516.848148 -150.842387 
L 517.730219 -150.569221 
L 518.612291 -150.341583 
L 519.494363 -150.160562 
L 520.376434 -149.990579 
L 521.258506 -149.852217 
L 522.140577 -149.761076 
L 523.022649 -149.708656 
L 523.022649 -63.990752 
L 523.022649 -63.990752 
L 522.140577 -63.990752 
L 521.258506 -63.990752 
L 520.376434 -63.990752 
L 519.494363 -63.990752 
L 518.612291 -63.990752 
L 517.730219 -63.990752 
L 516.848148 -63.990752 
L 515.966076 -63.990752 
L 515.084005 -63.990752 
L 514.201933 -63.990752 
L 513.319862 -63.990752 
L 512.43779 -63.990752 
L 511.555719 -63.990752 
L 510.673647 -63.990752 
L 509.791576 -63.990752 
L 508.909504 -63.990752 
L 508.027433 -63.990752 
L 507.145361 -63.990752 
L 506.263289 -63.990752 
L 505.381218 -63.990752 
L 504.499146 -63.990752 
L 503.617075 -63.990752 
L 502.735003 -63.990752 
L 501.852932 -63.990752 
L 500.97086 -63.990752 
L 500.088789 -63.990752 
L 499.206717 -63.990752 
L 498.324646 -63.990752 
L 497.442574 -63.990752 
L 496.560503 -63.990752 
L 495.678431 -63.990752 
L 494.796359 -63.990752 
L 493.914288 -63.990752 
L 493.032216 -63.990752 
L 492.150145 -63.990752 
L 491.268073 -63.990752 
L 490.386002 -63.990752 
L 489.50393 -63.990752 
L 488.621859 -63.990752 
L 487.739787 -63.990752 
L 486.857716 -63.990752 
L 485.975644 -63.990752 
L 485.093573 -63.990752 
L 484.211501 -63.990752 
L 483.329429 -63.990752 
L 482.447358 -63.990752 
L 481.565286 -63.990752 
L 480.683215 -63.990752 
L 479.801143 -63.990752 
L 478.919072 -63.990752 
L 478.037 -63.990752 
L 477.154929 -63.990752 
L 476.272857 -63.990752 
L 475.390786 -63.990752 
L 474.508714 -63.990752 
L 473.626643 -63.990752 
L 472.744571 -63.990752 
L 471.862499 -63.990752 
L 470.980428 -63.990752 
L 470.098356 -63.990752 
L 469.216285 -63.990752 
L 468.334213 -63.990752 
L 467.452142 -63.990752 
L 466.57007 -63.990752 
L 465.687999 -63.990752 
L 464.805927 -63.990752 
L 463.923856 -63.990752 
L 463.041784 -63.990752 
L 462.159713 -63.990752 
L 461.277641 -63.990752 
L 460.395569 -63.990752 
L 459.513498 -63.990752 
L 458.631426 -63.990752 
L 457.749355 -63.990752 
L 456.867283 -63.990752 
L 455.985212 -63.990752 
L 455.10314 -63.990752 
L 454.221069 -63.990752 
L 453.338997 -63.990752 
L 452.456926 -63.990752 
L 451.574854 -63.990752 
L 450.692783 -63.990752 
L 449.810711 -63.990752 
L 448.928639 -63.990752 
L 448.046568 -63.990752 
L 447.164496 -63.990752 
L 446.282425 -63.990752 
L 445.400353 -63.990752 
L 444.518282 -63.990752 
L 443.63621 -63.990752 
L 442.754139 -63.990752 
L 441.872067 -63.990752 
L 440.989996 -63.990752 
L 440.107924 -63.990752 
L 439.225853 -63.990752 
L 438.343781 -63.990752 
L 437.461709 -63.990752 
L 436.579638 -63.990752 
L 435.697566 -63.990752 
L 434.815495 -63.990752 
L 433.933423 -63.990752 
L 433.051352 -63.990752 
L 432.16928 -63.990752 
L 431.287209 -63.990752 
L 430.405137 -63.990752 
L 429.523066 -63.990752 
L 428.640994 -63.990752 
L 427.758923 -63.990752 
L 426.876851 -63.990752 
L 425.994779 -63.990752 
L 425.112708 -63.990752 
L 424.230636 -63.990752 
L 423.348565 -63.990752 
L 422.466493 -63.990752 
L 421.584422 -63.990752 
L 420.70235 -63.990752 
L 419.820279 -63.990752 
L 418.938207 -63.990752 
L 418.056136 -63.990752 
L 417.174064 -63.990752 
L 416.291993 -63.990752 
L 415.409921 -63.990752 
L 414.527849 -63.990752 
L 413.645778 -63.990752 
L 412.763706 -63.990752 
L 411.881635 -63.990752 
L 410.999563 -63.990752 
L 410.117492 -63.990752 
L 409.23542 -63.990752 
L 408.353349 -63.990752 
L 407.471277 -63.990752 
L 406.589206 -63.990752 
L 405.707134 -63.990752 
L 404.825063 -63.990752 
L 403.942991 -63.990752 
L 403.060919 -63.990752 
L 402.178848 -63.990752 
L 401.296776 -63.990752 
L 400.414705 -63.990752 
L 399.532633 -63.990752 
L 398.650562 -63.990752 
L 397.76849 -63.990752 
L 396.886419 -63.990752 
L 396.004347 -63.990752 
L 395.122276 -63.990752 
L 394.240204 -63.990752 
L 393.358133 -63.990752 
L 392.476061 -63.990752 
L 391.593989 -63.990752 
L 390.711918 -63.990752 
L 389.829846 -63.990752 
L 388.947775 -63.990752 
L 388.065703 -63.990752 
L 387.183632 -63.990752 
L 386.30156 -63.990752 
L 385.419489 -63.990752 
L 384.537417 -63.990752 
L 383.655346 -63.990752 
L 382.773274 -63.990752 
L 381.891203 -63.990752 
L 381.009131 -63.990752 
L 380.127059 -63.990752 
L 379.244988 -63.990752 
L 378.362916 -63.990752 
L 377.480845 -63.990752 
L 376.598773 -63.990752 
L 375.716702 -63.990752 
L 374.83463 -63.990752 
L 373.952559 -63.990752 
L 373.070487 -63.990752 
L 372.188416 -63.990752 
L 371.306344 -63.990752 
L 370.424273 -63.990752 
L 369.542201 -63.990752 
L 368.660129 -63.990752 
L 367.778058 -63.990752 
L 366.895986 -63.990752 
L 366.013915 -63.990752 
L 365.131843 -63.990752 
L 364.249772 -63.990752 
L 363.3677 -63.990752 
L 362.485629 -63.990752 
L 361.603557 -63.990752 
L 360.721486 -63.990752 
L 359.839414 -63.990752 
L 358.957343 -63.990752 
L 358.075271 -63.990752 
L 357.193199 -63.990752 
L 356.311128 -63.990752 
L 355.429056 -63.990752 
L 354.546985 -63.990752 
L 353.664913 -63.990752 
L 352.782842 -63.990752 
L 351.90077 -63.990752 
L 351.018699 -63.990752 
L 350.136627 -63.990752 
L 349.254556 -63.990752 
L 348.372484 -63.990752 
L 347.490413 -63.990752 
L 346.608341 -63.990752 
L 345.726269 -63.990752 
L 344.844198 -63.990752 
L 343.962126 -63.990752 
L 343.080055 -63.990752 
L 342.197983 -63.990752 
L 341.315912 -63.990752 
L 340.43384 -63.990752 
L 339.551769 -63.990752 
L 338.669697 -63.990752 
L 337.787626 -63.990752 
L 336.905554 -63.990752 
L 336.023483 -63.990752 
L 335.141411 -63.990752 
L 334.259339 -63.990752 
L 333.377268 -63.990752 
L 332.495196 -63.990752 
L 331.613125 -63.990752 
L 330.731053 -63.990752 
L 329.848982 -63.990752 
L 328.96691 -63.990752 
L 328.084839 -63.990752 
L 327.202767 -63.990752 
L 326.320696 -63.990752 
L 325.438624 -63.990752 
L 324.556553 -63.990752 
L 323.674481 -63.990752 
L 322.792409 -63.990752 
L 321.910338 -63.990752 
L 321.028266 -63.990752 
L 320.146195 -63.990752 
L 319.264123 -63.990752 
L 318.382052 -63.990752 
L 317.49998 -63.990752 
L 316.617909 -63.990752 
L 315.735837 -63.990752 
L 314.853766 -63.990752 
L 313.971694 -63.990752 
L 313.089623 -63.990752 
L 312.207551 -63.990752 
L 311.325479 -63.990752 
L 310.443408 -63.990752 
L 309.561336 -63.990752 
L 308.679265 -63.990752 
L 307.797193 -63.990752 
L 306.915122 -63.990752 
L 306.03305 -63.990752 
L 305.150979 -63.990752 
L 304.268907 -63.990752 
L 303.386836 -63.990752 
L 302.504764 -63.990752 
L 301.622693 -63.990752 
L 300.740621 -63.990752 
L 299.858549 -63.990752 
L 298.976478 -63.990752 
L 298.094406 -63.990752 
L 297.212335 -63.990752 
L 296.330263 -63.990752 
L 295.448192 -63.990752 
L 294.56612 -63.990752 
L 293.684049 -63.990752 
L 292.801977 -63.990752 
L 291.919906 -63.990752 
L 291.037834 -63.990752 
L 290.155763 -63.990752 
L 289.273691 -63.990752 
L 288.391619 -63.990752 
L 287.509548 -63.990752 
L 286.627476 -63.990752 
L 285.745405 -63.990752 
L 284.863333 -63.990752 
L 283.981262 -63.990752 
L 283.09919 -63.990752 
L 282.217119 -63.990752 
L 281.335047 -63.990752 
L 280.452976 -63.990752 
L 279.570904 -63.990752 
L 278.688833 -63.990752 
L 277.806761 -63.990752 
L 276.924689 -63.990752 
L 276.042618 -63.990752 
L 275.160546 -63.990752 
L 274.278475 -63.990752 
L 273.396403 -63.990752 
L 272.514332 -63.990752 
L 271.63226 -63.990752 
L 270.750189 -63.990752 
L 269.868117 -63.990752 
L 268.986046 -63.990752 
L 268.103974 -63.990752 
L 267.221903 -63.990752 
L 266.339831 -63.990752 
L 265.457759 -63.990752 
L 264.575688 -63.990752 
L 263.693616 -63.990752 
L 262.811545 -63.990752 
L 261.929473 -63.990752 
L 261.047402 -63.990752 
L 260.16533 -63.990752 
L 259.283259 -63.990752 
L 258.401187 -63.990752 
L 257.519116 -63.990752 
L 256.637044 -63.990752 
L 255.754973 -63.990752 
L 254.872901 -63.990752 
L 253.990829 -63.990752 
L 253.108758 -63.990752 
L 252.226686 -63.990752 
L 251.344615 -63.990752 
L 250.462543 -63.990752 
L 249.580472 -63.990752 
L 248.6984 -63.990752 
L 247.816329 -63.990752 
L 246.934257 -63.990752 
L 246.052186 -63.990752 
L 245.170114 -63.990752 
L 244.288043 -63.990752 
L 243.405971 -63.990752 
L 242.523899 -63.990752 
L 241.641828 -63.990752 
L 240.759756 -63.990752 
L 239.877685 -63.990752 
L 238.995613 -63.990752 
L 238.113542 -63.990752 
L 237.23147 -63.990752 
L 236.349399 -63.990752 
L 235.467327 -63.990752 
L 234.585256 -63.990752 
L 233.703184 -63.990752 
L 232.821113 -63.990752 
L 231.939041 -63.990752 
L 231.056969 -63.990752 
L 230.174898 -63.990752 
L 229.292826 -63.990752 
L 228.410755 -63.990752 
L 227.528683 -63.990752 
L 226.646612 -63.990752 
L 225.76454 -63.990752 
L 224.882469 -63.990752 
L 224.000397 -63.990752 
L 223.118326 -63.990752 
L 222.236254 -63.990752 
L 221.354182 -63.990752 
L 220.472111 -63.990752 
L 219.590039 -63.990752 
L 218.707968 -63.990752 
L 217.825896 -63.990752 
L 216.943825 -63.990752 
L 216.061753 -63.990752 
L 215.179682 -63.990752 
L 214.29761 -63.990752 
L 213.415539 -63.990752 
L 212.533467 -63.990752 
L 211.651396 -63.990752 
L 210.769324 -63.990752 
L 209.887252 -63.990752 
L 209.005181 -63.990752 
L 208.123109 -63.990752 
L 207.241038 -63.990752 
L 206.358966 -63.990752 
L 205.476895 -63.990752 
L 204.594823 -63.990752 
L 203.712752 -63.990752 
L 202.83068 -63.990752 
L 201.948609 -63.990752 
L 201.066537 -63.990752 
L 200.184466 -63.990752 
L 199.302394 -63.990752 
L 198.420322 -63.990752 
L 197.538251 -63.990752 
L 196.656179 -63.990752 
L 195.774108 -63.990752 
L 194.892036 -63.990752 
L 194.009965 -63.990752 
L 193.127893 -63.990752 
L 192.245822 -63.990752 
L 191.36375 -63.990752 
L 190.481679 -63.990752 
L 189.599607 -63.990752 
L 188.717536 -63.990752 
L 187.835464 -63.990752 
L 186.953392 -63.990752 
L 186.071321 -63.990752 
L 185.189249 -63.990752 
L 184.307178 -63.990752 
L 183.425106 -63.990752 
L 182.543035 -63.990752 
L 181.660963 -63.990752 
L 180.778892 -63.990752 
L 179.89682 -63.990752 
L 179.014749 -63.990752 
L 178.132677 -63.990752 
L 177.250606 -63.990752 
L 176.368534 -63.990752 
L 175.486462 -63.990752 
L 174.604391 -63.990752 
L 173.722319 -63.990752 
L 172.840248 -63.990752 
L 171.958176 -63.990752 
L 171.076105 -63.990752 
L 170.194033 -63.990752 
L 169.311962 -63.990752 
L 168.42989 -63.990752 
L 167.547819 -63.990752 
L 166.665747 -63.990752 
L 165.783676 -63.990752 
L 164.901604 -63.990752 
L 164.019532 -63.990752 
L 163.137461 -63.990752 
L 162.255389 -63.990752 
L 161.373318 -63.990752 
L 160.491246 -63.990752 
L 159.609175 -63.990752 
L 158.727103 -63.990752 
L 157.845032 -63.990752 
L 156.96296 -63.990752 
L 156.080889 -63.990752 
L 155.198817 -63.990752 
L 154.316746 -63.990752 
L 153.434674 -63.990752 
L 152.552602 -63.990752 
L 151.670531 -63.990752 
L 150.788459 -63.990752 
L 149.906388 -63.990752 
L 149.024316 -63.990752 
L 148.142245 -63.990752 
L 147.260173 -63.990752 
L 146.378102 -63.990752 
L 145.49603 -63.990752 
L 144.613959 -63.990752 
L 143.731887 -63.990752 
L 142.849816 -63.990752 
L 141.967744 -63.990752 
L 141.085672 -63.990752 
L 140.203601 -63.990752 
L 139.321529 -63.990752 
L 138.439458 -63.990752 
L 137.557386 -63.990752 
L 136.675315 -63.990752 
L 135.793243 -63.990752 
L 134.911172 -63.990752 
L 134.0291 -63.990752 
L 133.147029 -63.990752 
L 132.264957 -63.990752 
L 131.382886 -63.990752 
L 130.500814 -63.990752 
L 129.618742 -63.990752 
L 128.736671 -63.990752 
L 127.854599 -63.990752 
L 126.972528 -63.990752 
L 126.090456 -63.990752 
L 125.208385 -63.990752 
L 124.326313 -63.990752 
L 123.444242 -63.990752 
L 122.56217 -63.990752 
L 121.680099 -63.990752 
L 120.798027 -63.990752 
L 119.915956 -63.990752 
L 119.033884 -63.990752 
L 118.151812 -63.990752 
L 117.269741 -63.990752 
L 116.387669 -63.990752 
L 115.505598 -63.990752 
L 114.623526 -63.990752 
L 113.741455 -63.990752 
L 112.859383 -63.990752 
L 111.977312 -63.990752 
L 111.09524 -63.990752 
L 110.213169 -63.990752 
L 109.331097 -63.990752 
L 108.449026 -63.990752 
L 107.566954 -63.990752 
L 106.684882 -63.990752 
L 105.802811 -63.990752 
L 104.920739 -63.990752 
L 104.038668 -63.990752 
L 103.156596 -63.990752 
L 102.274525 -63.990752 
L 101.392453 -63.990752 
L 100.510382 -63.990752 
L 99.62831 -63.990752 
L 98.746239 -63.990752 
L 97.864167 -63.990752 
L 96.982096 -63.990752 
L 96.100024 -63.990752 
L 95.217952 -63.990752 
L 94.335881 -63.990752 
L 93.453809 -63.990752 
L 92.571738 -63.990752 
L 91.689666 -63.990752 
L 90.807595 -63.990752 
L 89.925523 -63.990752 
L 89.043452 -63.990752 
L 88.16138 -63.990752 
L 87.279309 -63.990752 
L 86.397237 -63.990752 
L 85.515166 -63.990752 
L 84.633094 -63.990752 
L 83.751022 -63.990752 
L 82.868951 -63.990752 
L 81.986879 -63.990752 
L 81.104808 -63.990752 
L 80.222736 -63.990752 
L 79.340665 -63.990752 
L 78.458593 -63.990752 
L 77.576522 -63.990752 
L 76.69445 -63.990752 
L 75.812379 -63.990752 
L 74.930307 -63.990752 
L 74.048236 -63.990752 
L 73.166164 -63.990752 
L 72.284092 -63.990752 
z
" style="stroke: #6cb7ff; stroke-opacity: 0.6; stroke-width: 0.3"/>
    </defs>
    <g clip-path="url(#pd66e0af195)">
     <use xlink:href="#mfbdbcdecab" x="0" y="432" style="fill: #6cb7ff; fill-opacity: 0.6; stroke: #6cb7ff; stroke-opacity: 0.6; stroke-width: 0.3"/>
    </g>
   </g>
   <g id="line2d_15">
    <path d="M 72.284092 268.006744 
L 74.048236 267.914268 
L 76.69445 267.508852 
L 78.458593 267.10169 
L 81.104808 266.162714 
L 83.751022 264.903649 
L 86.397237 263.322922 
L 89.043452 261.456718 
L 91.689666 259.256294 
L 94.335881 256.757788 
L 96.982096 253.941263 
L 100.510382 249.773027 
L 104.038668 245.22365 
L 107.566954 240.347332 
L 111.09524 235.097484 
L 117.269741 225.43349 
L 124.326313 214.054435 
L 136.675315 194.326947 
L 141.967744 186.378046 
L 148.142245 177.660183 
L 152.552602 171.780031 
L 158.727103 163.809871 
L 169.311962 150.132275 
L 174.604391 142.727815 
L 179.014749 136.16248 
L 184.307178 127.851737 
L 190.481679 117.67472 
L 196.656179 107.372496 
L 201.948609 98.804206 
L 206.358966 92.249573 
L 209.887252 87.451011 
L 212.533467 84.188449 
L 215.179682 81.327319 
L 217.825896 78.787306 
L 220.472111 76.68358 
L 223.118326 74.999175 
L 224.882469 74.085876 
L 226.646612 73.389165 
L 228.410755 72.904323 
L 230.174898 72.58541 
L 231.939041 72.413924 
L 233.703184 72.432589 
L 235.467327 72.635232 
L 238.113542 73.165576 
L 239.877685 73.720624 
L 242.523899 74.803939 
L 246.052186 76.459337 
L 250.462543 78.816989 
L 262.811545 85.788999 
L 266.339831 87.39528 
L 269.868117 88.789785 
L 272.514332 89.650324 
L 275.160546 90.37613 
L 278.688833 91.038696 
L 282.217119 91.456226 
L 285.745405 91.533577 
L 289.273691 91.438438 
L 293.684049 90.98653 
L 296.330263 90.623725 
L 301.622693 89.874566 
L 308.679265 89.199287 
L 311.325479 89.10703 
L 313.971694 89.151412 
L 316.617909 89.375784 
L 320.146195 89.848346 
L 323.674481 90.64288 
L 330.731053 92.85396 
L 334.259339 94.212163 
L 337.787626 95.799671 
L 340.43384 97.155513 
L 345.726269 100.242327 
L 348.372484 102.103933 
L 351.90077 104.823971 
L 353.664913 106.357723 
L 358.075271 110.611268 
L 361.603557 114.445104 
L 366.013915 119.695084 
L 373.070487 128.802745 
L 381.009131 139.084982 
L 384.537417 143.314076 
L 389.829846 149.300941 
L 394.240204 153.880545 
L 408.353349 168.057325 
L 412.763706 173.027688 
L 417.174064 178.518586 
L 421.584422 184.55273 
L 426.876851 192.42393 
L 433.933423 203.521294 
L 440.989996 214.769551 
L 444.518282 220.17476 
L 448.928639 226.451684 
L 452.456926 231.101282 
L 456.867283 236.382344 
L 459.513498 239.248186 
L 463.041784 242.78201 
L 466.57007 245.938009 
L 470.098356 248.861133 
L 476.272857 253.567154 
L 490.386002 264.125521 
L 503.617075 274.158766 
L 506.263289 275.950973 
L 509.791576 278.08379 
L 512.43779 279.465015 
L 515.084005 280.584674 
L 517.730219 281.430779 
L 520.376434 282.009421 
L 522.140577 282.238924 
L 523.022649 282.291344 
L 523.022649 282.291344 
" clip-path="url(#pd66e0af195)" style="fill: none; stroke: #7570b3; stroke-width: 2; stroke-linecap: round"/>
   </g>
   <g id="line2d_16">
    <path d="M 72.284092 369.009273 
L 72.284092 268.006744 
" clip-path="url(#pd66e0af195)" style="fill: none; stroke: #7570b3; stroke-width: 2; stroke-linecap: round"/>
   </g>
   <g id="line2d_17">
    <path d="M 523.022649 368.866427 
L 523.022649 282.291344 
" clip-path="url(#pd66e0af195)" style="fill: none; stroke: #7570b3; stroke-width: 2; stroke-linecap: round"/>
   </g>
   <g id="line2d_18">
    <defs>
     <path id="mf920961ad8" d="M 0 3.5 
C 0.928211 3.5 1.81853 3.131218 2.474874 2.474874 
C 3.131218 1.81853 3.5 0.928211 3.5 0 
C 3.5 -0.928211 3.131218 -1.81853 2.474874 -2.474874 
C 1.81853 -3.131218 0.928211 -3.5 0 -3.5 
C -0.928211 -3.5 -1.81853 -3.131218 -2.474874 -2.474874 
C -3.131218 -1.81853 -3.5 -0.928211 -3.5 0 
C -3.5 0.928211 -3.131218 1.81853 -2.474874 2.474874 
C -1.81853 3.131218 -0.928211 3.5 0 3.5 
z
"/>
    </defs>
    <g clip-path="url(#pd66e0af195)">
     <use xlink:href="#mf920961ad8" x="283.665456" y="368.009248" style="fill: #7570b3"/>
    </g>
   </g>
   <g id="patch_3">
    <path d="M 49.747165 383.84 
L 545.559577 383.84 
" style="fill: none; stroke: #333333; stroke-width: 1.5; stroke-linejoin: miter; stroke-linecap: square"/>
   </g>
   <g id="text_8">
    <!-- $x_3^3$ -->
    <g style="fill: #262626" transform="translate(282.113371 49.444)">
     <text>
      <tspan x="0" y="-0.734375" style="font-style: oblique; font-size: 28px; font-family: 'DejaVu Sans'; fill: #262626">x</tspan>
      <tspan x="16.570312" y="6.921875" style="font-size: 19.6px; font-family: 'DejaVu Sans'; fill: #262626">3</tspan>
      <tspan x="17.820833" y="-11.453125" style="font-size: 19.6px; font-family: 'DejaVu Sans'; fill: #262626">3</tspan>
     </text>
    </g>
   </g>
  </g>
 </g>
 <defs>
  <clipPath id="pd66e0af195">
   <rect x="49.747165" y="57.564" width="495.812412" height="326.276"/>
  </clipPath>
 </defs>
</svg>
