<?xml version="1.0" encoding="utf-8" standalone="no"?>
<!DOCTYPE svg PUBLIC "-//W3C//DTD SVG 1.1//EN"
  "http://www.w3.org/Graphics/SVG/1.1/DTD/svg11.dtd">
<svg xmlns:xlink="http://www.w3.org/1999/xlink" width="576pt" height="432pt" viewBox="0 0 576 432" xmlns="http://www.w3.org/2000/svg" version="1.1">
 <metadata>
  <rdf:RDF xmlns:dc="http://purl.org/dc/elements/1.1/" xmlns:cc="http://creativecommons.org/ns#" xmlns:rdf="http://www.w3.org/1999/02/22-rdf-syntax-ns#">
   <cc:Work>
    <dc:type rdf:resource="http://purl.org/dc/dcmitype/StillImage"/>
    <dc:date>2025-09-22T23:00:34.847782</dc:date>
    <dc:format>image/svg+xml</dc:format>
    <dc:creator>
     <cc:Agent>
      <dc:title>Matplotlib v3.10.0, https://matplotlib.org/</dc:title>
     </cc:Agent>
    </dc:creator>
   </cc:Work>
  </rdf:RDF>
 </metadata>
 <defs>
  <style type="text/css">*{stroke-linejoin: round; stroke-linecap: butt}</style>
 </defs>
 <g id="figure_1">
  <g id="patch_1">
   <path d="M 0 432 
L 576 432 
L 576 0 
L 0 0 
L 0 432 
z
" style="fill: none; opacity: 0"/>
  </g>
  <g id="axes_1">
   <g id="patch_2">
    <path d="M 23.76 383.84 
L 552.24 383.84 
L 552.24 57.264 
L 23.76 57.264 
L 23.76 383.84 
z
" style="fill: none"/>
   </g>
   <g id="matplotlib.axis_1">
    <g id="xtick_1">
     <g id="line2d_1">
      <path d="M 66.421496 383.84 
L 66.421496 57.264 
" clip-path="url(#pc473cf6031)" style="fill: none; stroke: #ffffff; stroke-opacity: 0.4; stroke-linecap: round"/>
     </g>
     <g id="line2d_2"/>
     <g id="text_1">
      <text style="font-size: 18px; font-family: 'DejaVu Serif', 'Times New Roman', serif; text-anchor: middle; fill: #262626" x="66.421496" y="404.517187" transform="rotate(-0 66.421496 404.517187)">−0.010</text>
     </g>
    </g>
    <g id="xtick_2">
     <g id="line2d_3">
      <path d="M 175.49241 383.84 
L 175.49241 57.264 
" clip-path="url(#pc473cf6031)" style="fill: none; stroke: #ffffff; stroke-opacity: 0.4; stroke-linecap: round"/>
     </g>
     <g id="line2d_4"/>
     <g id="text_2">
      <text style="font-size: 18px; font-family: 'DejaVu Serif', 'Times New Roman', serif; text-anchor: middle; fill: #262626" x="175.49241" y="404.517187" transform="rotate(-0 175.49241 404.517187)">−0.005</text>
     </g>
    </g>
    <g id="xtick_3">
     <g id="line2d_5">
      <path d="M 284.563324 383.84 
L 284.563324 57.264 
" clip-path="url(#pc473cf6031)" style="fill: none; stroke: #ffffff; stroke-opacity: 0.4; stroke-linecap: round"/>
     </g>
     <g id="line2d_6"/>
     <g id="text_3">
      <text style="font-size: 18px; font-family: 'DejaVu Serif', 'Times New Roman', serif; text-anchor: middle; fill: #262626" x="284.563324" y="404.517187" transform="rotate(-0 284.563324 404.517187)">0.000</text>
     </g>
    </g>
    <g id="xtick_4">
     <g id="line2d_7">
      <path d="M 393.634238 383.84 
L 393.634238 57.264 
" clip-path="url(#pc473cf6031)" style="fill: none; stroke: #ffffff; stroke-opacity: 0.4; stroke-linecap: round"/>
     </g>
     <g id="line2d_8"/>
     <g id="text_4">
      <text style="font-size: 18px; font-family: 'DejaVu Serif', 'Times New Roman', serif; text-anchor: middle; fill: #262626" x="393.634238" y="404.517187" transform="rotate(-0 393.634238 404.517187)">0.005</text>
     </g>
    </g>
    <g id="xtick_5">
     <g id="line2d_9">
      <path d="M 502.705152 383.84 
L 502.705152 57.264 
" clip-path="url(#pc473cf6031)" style="fill: none; stroke: #ffffff; stroke-opacity: 0.4; stroke-linecap: round"/>
     </g>
     <g id="line2d_10"/>
     <g id="text_5">
      <text style="font-size: 18px; font-family: 'DejaVu Serif', 'Times New Roman', serif; text-anchor: middle; fill: #262626" x="502.705152" y="404.517187" transform="rotate(-0 502.705152 404.517187)">0.010</text>
     </g>
    </g>
   </g>
   <g id="matplotlib.axis_2"/>
   <g id="FillBetweenPolyCollection_1">
    <defs>
     <path id="mcad3faec5e" d="M 47.781818 -64.017332 
L 47.781818 -165.314133 
L 48.722007 -165.323766 
L 49.662195 -165.37063 
L 50.602384 -165.434252 
L 51.542572 -165.536411 
L 52.482761 -165.640042 
L 53.42295 -165.7861 
L 54.363138 -165.941653 
L 55.303327 -166.14612 
L 56.243515 -166.379285 
L 57.183704 -166.639931 
L 58.123893 -166.910684 
L 59.064081 -167.209505 
L 60.00427 -167.521686 
L 60.944458 -167.877606 
L 61.884647 -168.284046 
L 62.824835 -168.683367 
L 63.765024 -169.085617 
L 64.705213 -169.542865 
L 65.645401 -170.009709 
L 66.58559 -170.499982 
L 67.525778 -171.016789 
L 68.465967 -171.52872 
L 69.406155 -172.081948 
L 70.346344 -172.637589 
L 71.286533 -173.209688 
L 72.226721 -173.785003 
L 73.16691 -174.38172 
L 74.107098 -175.003014 
L 75.047287 -175.629811 
L 75.987476 -176.252229 
L 76.927664 -176.910874 
L 77.867853 -177.577447 
L 78.808041 -178.286051 
L 79.74823 -178.949478 
L 80.688418 -179.619731 
L 81.628607 -180.319614 
L 82.568796 -181.006448 
L 83.508984 -181.716361 
L 84.449173 -182.39912 
L 85.389361 -183.126921 
L 86.32955 -183.851699 
L 87.269738 -184.553788 
L 88.209927 -185.259115 
L 89.150116 -185.982447 
L 90.090304 -186.697989 
L 91.030493 -187.400917 
L 91.970681 -188.118435 
L 92.91087 -188.822514 
L 93.851059 -189.552834 
L 94.791247 -190.273028 
L 95.731436 -190.979343 
L 96.671624 -191.682529 
L 97.611813 -192.401156 
L 98.552001 -193.134062 
L 99.49219 -193.860399 
L 100.432379 -194.562662 
L 101.372567 -195.332587 
L 102.312756 -196.080176 
L 103.252944 -196.840866 
L 104.193133 -197.628186 
L 105.133321 -198.413118 
L 106.07351 -199.218127 
L 107.013699 -200.02431 
L 107.953887 -200.840864 
L 108.894076 -201.679358 
L 109.834264 -202.554829 
L 110.774453 -203.438678 
L 111.714642 -204.32982 
L 112.65483 -205.266396 
L 113.595019 -206.223465 
L 114.535207 -207.202723 
L 115.475396 -208.215022 
L 116.415584 -209.243375 
L 117.355773 -210.292908 
L 118.295962 -211.372398 
L 119.23615 -212.487536 
L 120.176339 -213.67272 
L 121.116527 -214.865805 
L 122.056716 -216.112388 
L 122.996904 -217.360693 
L 123.937093 -218.658708 
L 124.877282 -219.996016 
L 125.81747 -221.332414 
L 126.757659 -222.717257 
L 127.697847 -224.129809 
L 128.638036 -225.558837 
L 129.578225 -227.011751 
L 130.518413 -228.483111 
L 131.458602 -230.003298 
L 132.39879 -231.556576 
L 133.338979 -233.127706 
L 134.279167 -234.680851 
L 135.219356 -236.271144 
L 136.159545 -237.864656 
L 137.099733 -239.47497 
L 138.039922 -241.110335 
L 138.98011 -242.764066 
L 139.920299 -244.427606 
L 140.860487 -246.095379 
L 141.800676 -247.735026 
L 142.740865 -249.382515 
L 143.681053 -251.008644 
L 144.621242 -252.625883 
L 145.56143 -254.256421 
L 146.501619 -255.888281 
L 147.441808 -257.496172 
L 148.381996 -259.080569 
L 149.322185 -260.631685 
L 150.262373 -262.158136 
L 151.202562 -263.666603 
L 152.14275 -265.19369 
L 153.082939 -266.656915 
L 154.023128 -268.112772 
L 154.963316 -269.521131 
L 155.903505 -270.920253 
L 156.843693 -272.306396 
L 157.783882 -273.622086 
L 158.72407 -274.940633 
L 159.664259 -276.213113 
L 160.604448 -277.476296 
L 161.544636 -278.68651 
L 162.484825 -279.863248 
L 163.425013 -281.025618 
L 164.365202 -282.129277 
L 165.30539 -283.229481 
L 166.245579 -284.293765 
L 167.185768 -285.314542 
L 168.125956 -286.33186 
L 169.066145 -287.325249 
L 170.006333 -288.296764 
L 170.946522 -289.233 
L 171.886711 -290.169154 
L 172.826899 -291.077933 
L 173.767088 -291.931028 
L 174.707276 -292.789828 
L 175.647465 -293.644407 
L 176.587653 -294.449909 
L 177.527842 -295.229252 
L 178.468031 -296.007636 
L 179.408219 -296.779195 
L 180.348408 -297.544961 
L 181.288596 -298.316755 
L 182.228785 -299.05295 
L 183.168973 -299.773872 
L 184.109162 -300.49921 
L 185.049351 -301.207366 
L 185.989539 -301.934548 
L 186.929728 -302.649478 
L 187.869916 -303.348055 
L 188.810105 -304.059088 
L 189.750294 -304.754975 
L 190.690482 -305.446436 
L 191.630671 -306.135287 
L 192.570859 -306.806282 
L 193.511048 -307.498974 
L 194.451236 -308.159119 
L 195.391425 -308.825607 
L 196.331614 -309.484239 
L 197.271802 -310.138267 
L 198.211991 -310.798666 
L 199.152179 -311.482797 
L 200.092368 -312.135352 
L 201.032556 -312.783471 
L 201.972745 -313.402026 
L 202.912934 -314.017146 
L 203.853122 -314.672048 
L 204.793311 -315.283435 
L 205.733499 -315.879972 
L 206.673688 -316.499397 
L 207.613877 -317.094125 
L 208.554065 -317.704995 
L 209.494254 -318.312793 
L 210.434442 -318.894474 
L 211.374631 -319.477343 
L 212.314819 -320.057693 
L 213.255008 -320.633895 
L 214.195197 -321.191676 
L 215.135385 -321.739033 
L 216.075574 -322.287366 
L 217.015762 -322.830756 
L 217.955951 -323.349207 
L 218.896139 -323.840463 
L 219.836328 -324.325377 
L 220.776517 -324.845844 
L 221.716705 -325.351459 
L 222.656894 -325.841424 
L 223.597082 -326.313342 
L 224.537271 -326.78179 
L 225.47746 -327.252224 
L 226.417648 -327.680524 
L 227.357837 -328.087335 
L 228.298025 -328.517615 
L 229.238214 -328.959757 
L 230.178402 -329.368298 
L 231.118591 -329.787159 
L 232.05878 -330.208888 
L 232.998968 -330.582815 
L 233.939157 -330.962999 
L 234.879345 -331.324232 
L 235.819534 -331.696711 
L 236.759722 -332.053462 
L 237.699911 -332.426853 
L 238.6401 -332.774505 
L 239.580288 -333.089851 
L 240.520477 -333.412288 
L 241.460665 -333.760441 
L 242.400854 -334.019803 
L 243.341043 -334.359343 
L 244.281231 -334.661748 
L 245.22142 -334.936969 
L 246.161608 -335.238977 
L 247.101797 -335.528117 
L 248.041985 -335.816282 
L 248.982174 -336.122733 
L 249.922363 -336.42661 
L 250.862551 -336.729006 
L 251.80274 -337.014502 
L 252.742928 -337.288922 
L 253.683117 -337.55255 
L 254.623305 -337.808951 
L 255.563494 -338.065501 
L 256.503683 -338.345175 
L 257.443871 -338.608916 
L 258.38406 -338.893501 
L 259.324248 -339.14437 
L 260.264437 -339.386412 
L 261.204626 -339.622344 
L 262.144814 -339.866541 
L 263.085003 -340.113537 
L 264.025191 -340.385632 
L 264.96538 -340.624093 
L 265.905568 -340.86568 
L 266.845757 -341.132558 
L 267.785946 -341.4068 
L 268.726134 -341.669623 
L 269.666323 -341.946888 
L 270.606511 -342.202263 
L 271.5467 -342.48246 
L 272.486888 -342.725344 
L 273.427077 -342.959863 
L 274.367266 -343.19775 
L 275.307454 -343.478147 
L 276.247643 -343.770112 
L 277.187831 -344.026844 
L 278.12802 -344.267879 
L 279.068209 -344.511506 
L 280.008397 -344.755101 
L 280.948586 -344.973188 
L 281.888774 -345.213073 
L 282.828963 -345.466882 
L 283.769151 -345.71437 
L 284.70934 -345.988827 
L 285.649529 -346.231887 
L 286.589717 -346.459793 
L 287.529906 -346.693459 
L 288.470094 -346.947649 
L 289.410283 -347.191699 
L 290.350471 -347.438227 
L 291.29066 -347.69841 
L 292.230849 -347.948996 
L 293.171037 -348.166602 
L 294.111226 -348.435126 
L 295.051414 -348.677865 
L 295.991603 -348.939076 
L 296.931791 -349.189175 
L 297.87198 -349.437299 
L 298.812169 -349.697896 
L 299.752357 -349.972885 
L 300.692546 -350.217492 
L 301.632734 -350.486772 
L 302.572923 -350.764335 
L 303.513112 -351.038724 
L 304.4533 -351.322133 
L 305.393489 -351.624836 
L 306.333677 -351.909943 
L 307.273866 -352.237574 
L 308.214054 -352.540194 
L 309.154243 -352.872038 
L 310.094432 -353.195867 
L 311.03462 -353.514681 
L 311.974809 -353.857053 
L 312.914997 -354.164456 
L 313.855186 -354.482507 
L 314.795374 -354.846576 
L 315.735563 -355.20484 
L 316.675752 -355.53062 
L 317.61594 -355.872712 
L 318.556129 -356.244943 
L 319.496317 -356.583573 
L 320.436506 -356.889185 
L 321.376695 -357.215915 
L 322.316883 -357.516828 
L 323.257072 -357.819307 
L 324.19726 -358.102616 
L 325.137449 -358.388232 
L 326.077637 -358.644754 
L 327.017826 -358.876171 
L 327.958015 -359.081422 
L 328.898203 -359.286229 
L 329.838392 -359.452272 
L 330.77858 -359.608278 
L 331.718769 -359.721902 
L 332.658957 -359.786938 
L 333.599146 -359.86715 
L 334.539335 -359.885679 
L 335.479523 -359.891636 
L 336.419712 -359.845385 
L 337.3599 -359.771939 
L 338.300089 -359.675127 
L 339.240278 -359.506524 
L 340.180466 -359.297225 
L 341.120655 -359.06829 
L 342.060843 -358.798411 
L 343.001032 -358.486392 
L 343.94122 -358.127777 
L 344.881409 -357.713271 
L 345.821598 -357.300867 
L 346.761786 -356.804643 
L 347.701975 -356.273644 
L 348.642163 -355.690878 
L 349.582352 -355.056903 
L 350.52254 -354.391249 
L 351.462729 -353.705431 
L 352.402918 -352.965497 
L 353.343106 -352.198323 
L 354.283295 -351.393499 
L 355.223483 -350.55966 
L 356.163672 -349.698745 
L 357.103861 -348.798203 
L 358.044049 -347.883943 
L 358.984238 -346.929998 
L 359.924426 -345.975013 
L 360.864615 -344.979477 
L 361.804803 -343.916334 
L 362.744992 -342.876807 
L 363.685181 -341.800136 
L 364.625369 -340.708625 
L 365.565558 -339.587996 
L 366.505746 -338.479749 
L 367.445935 -337.363802 
L 368.386123 -336.238122 
L 369.326312 -335.107463 
L 370.266501 -333.922434 
L 371.206689 -332.753295 
L 372.146878 -331.553091 
L 373.087066 -330.359705 
L 374.027255 -329.169715 
L 374.967444 -327.967123 
L 375.907632 -326.752267 
L 376.847821 -325.537935 
L 377.788009 -324.3165 
L 378.728198 -323.088495 
L 379.668386 -321.847528 
L 380.608575 -320.621215 
L 381.548764 -319.375981 
L 382.488952 -318.090173 
L 383.429141 -316.831333 
L 384.369329 -315.515829 
L 385.309518 -314.232315 
L 386.249706 -312.941925 
L 387.189895 -311.625307 
L 388.130084 -310.289661 
L 389.070272 -308.957183 
L 390.010461 -307.592771 
L 390.950649 -306.222023 
L 391.890838 -304.829738 
L 392.831027 -303.450402 
L 393.771215 -302.068254 
L 394.711404 -300.679936 
L 395.651592 -299.250661 
L 396.591781 -297.804306 
L 397.531969 -296.332045 
L 398.472158 -294.857171 
L 399.412347 -293.342843 
L 400.352535 -291.839215 
L 401.292724 -290.31942 
L 402.232912 -288.778033 
L 403.173101 -287.245693 
L 404.113289 -285.697905 
L 405.053478 -284.118 
L 405.993667 -282.537885 
L 406.933855 -280.942885 
L 407.874044 -279.343593 
L 408.814232 -277.739999 
L 409.754421 -276.132282 
L 410.69461 -274.490972 
L 411.634798 -272.867123 
L 412.574987 -271.237032 
L 413.515175 -269.616004 
L 414.455364 -267.992259 
L 415.395552 -266.375846 
L 416.335741 -264.740347 
L 417.27593 -263.085312 
L 418.216118 -261.472875 
L 419.156307 -259.876053 
L 420.096495 -258.285461 
L 421.036684 -256.676559 
L 421.976872 -255.119419 
L 422.917061 -253.535509 
L 423.85725 -251.981195 
L 424.797438 -250.427291 
L 425.737627 -248.859465 
L 426.677815 -247.33651 
L 427.618004 -245.81914 
L 428.558192 -244.320478 
L 429.498381 -242.831221 
L 430.43857 -241.353188 
L 431.378758 -239.898794 
L 432.318947 -238.447276 
L 433.259135 -237.010757 
L 434.199324 -235.611062 
L 435.139513 -234.204939 
L 436.079701 -232.82481 
L 437.01989 -231.463226 
L 437.960078 -230.111789 
L 438.900267 -228.765886 
L 439.840455 -227.447046 
L 440.780644 -226.13262 
L 441.720833 -224.857355 
L 442.661021 -223.554483 
L 443.60121 -222.276487 
L 444.541398 -221.016121 
L 445.481587 -219.755505 
L 446.421775 -218.520477 
L 447.361964 -217.272823 
L 448.302153 -216.027574 
L 449.242341 -214.816775 
L 450.18253 -213.580767 
L 451.122718 -212.376809 
L 452.062907 -211.178312 
L 453.003096 -209.965528 
L 453.943284 -208.804185 
L 454.883473 -207.638883 
L 455.823661 -206.455986 
L 456.76385 -205.273725 
L 457.704038 -204.119113 
L 458.644227 -202.973661 
L 459.584416 -201.810618 
L 460.524604 -200.676595 
L 461.464793 -199.553804 
L 462.404981 -198.425436 
L 463.34517 -197.308628 
L 464.285358 -196.211393 
L 465.225547 -195.103961 
L 466.165736 -193.993825 
L 467.105924 -192.929746 
L 468.046113 -191.855829 
L 468.986301 -190.78952 
L 469.92649 -189.746257 
L 470.866679 -188.686133 
L 471.806867 -187.658021 
L 472.747056 -186.644354 
L 473.687244 -185.651072 
L 474.627433 -184.639336 
L 475.567621 -183.635185 
L 476.50781 -182.649006 
L 477.447999 -181.688325 
L 478.388187 -180.720876 
L 479.328376 -179.762811 
L 480.268564 -178.827834 
L 481.208753 -177.902444 
L 482.148941 -176.99501 
L 483.08913 -176.100845 
L 484.029319 -175.234718 
L 484.969507 -174.370674 
L 485.909696 -173.515719 
L 486.849884 -172.663108 
L 487.790073 -171.843996 
L 488.730262 -171.037133 
L 489.67045 -170.262654 
L 490.610639 -169.48693 
L 491.550827 -168.724347 
L 492.491016 -167.949294 
L 493.431204 -167.198639 
L 494.371393 -166.477212 
L 495.311582 -165.763295 
L 496.25177 -165.075531 
L 497.191959 -164.377661 
L 498.132147 -163.713025 
L 499.072336 -163.067705 
L 500.012524 -162.440581 
L 500.952713 -161.810557 
L 501.892902 -161.193792 
L 502.83309 -160.632812 
L 503.773279 -160.054236 
L 504.713467 -159.498249 
L 505.653656 -158.97589 
L 506.593845 -158.461433 
L 507.534033 -157.944126 
L 508.474222 -157.451866 
L 509.41441 -156.990729 
L 510.354599 -156.543619 
L 511.294787 -156.115868 
L 512.234976 -155.695247 
L 513.175165 -155.30781 
L 514.115353 -154.940786 
L 515.055542 -154.592132 
L 515.99573 -154.268117 
L 516.935919 -153.949695 
L 517.876107 -153.644836 
L 518.816296 -153.368212 
L 519.756485 -153.109697 
L 520.696673 -152.88492 
L 521.636862 -152.663881 
L 522.57705 -152.471357 
L 523.517239 -152.33704 
L 524.457428 -152.222378 
L 525.397616 -152.123401 
L 526.337805 -152.033049 
L 527.277993 -151.977632 
L 528.218182 -151.949497 
L 528.218182 -64.017332 
L 528.218182 -64.017332 
L 527.277993 -64.017332 
L 526.337805 -64.017332 
L 525.397616 -64.017332 
L 524.457428 -64.017332 
L 523.517239 -64.017332 
L 522.57705 -64.017332 
L 521.636862 -64.017332 
L 520.696673 -64.017332 
L 519.756485 -64.017332 
L 518.816296 -64.017332 
L 517.876107 -64.017332 
L 516.935919 -64.017332 
L 515.99573 -64.017332 
L 515.055542 -64.017332 
L 514.115353 -64.017332 
L 513.175165 -64.017332 
L 512.234976 -64.017332 
L 511.294787 -64.017332 
L 510.354599 -64.017332 
L 509.41441 -64.017332 
L 508.474222 -64.017332 
L 507.534033 -64.017332 
L 506.593845 -64.017332 
L 505.653656 -64.017332 
L 504.713467 -64.017332 
L 503.773279 -64.017332 
L 502.83309 -64.017332 
L 501.892902 -64.017332 
L 500.952713 -64.017332 
L 500.012524 -64.017332 
L 499.072336 -64.017332 
L 498.132147 -64.017332 
L 497.191959 -64.017332 
L 496.25177 -64.017332 
L 495.311582 -64.017332 
L 494.371393 -64.017332 
L 493.431204 -64.017332 
L 492.491016 -64.017332 
L 491.550827 -64.017332 
L 490.610639 -64.017332 
L 489.67045 -64.017332 
L 488.730262 -64.017332 
L 487.790073 -64.017332 
L 486.849884 -64.017332 
L 485.909696 -64.017332 
L 484.969507 -64.017332 
L 484.029319 -64.017332 
L 483.08913 -64.017332 
L 482.148941 -64.017332 
L 481.208753 -64.017332 
L 480.268564 -64.017332 
L 479.328376 -64.017332 
L 478.388187 -64.017332 
L 477.447999 -64.017332 
L 476.50781 -64.017332 
L 475.567621 -64.017332 
L 474.627433 -64.017332 
L 473.687244 -64.017332 
L 472.747056 -64.017332 
L 471.806867 -64.017332 
L 470.866679 -64.017332 
L 469.92649 -64.017332 
L 468.986301 -64.017332 
L 468.046113 -64.017332 
L 467.105924 -64.017332 
L 466.165736 -64.017332 
L 465.225547 -64.017332 
L 464.285358 -64.017332 
L 463.34517 -64.017332 
L 462.404981 -64.017332 
L 461.464793 -64.017332 
L 460.524604 -64.017332 
L 459.584416 -64.017332 
L 458.644227 -64.017332 
L 457.704038 -64.017332 
L 456.76385 -64.017332 
L 455.823661 -64.017332 
L 454.883473 -64.017332 
L 453.943284 -64.017332 
L 453.003096 -64.017332 
L 452.062907 -64.017332 
L 451.122718 -64.017332 
L 450.18253 -64.017332 
L 449.242341 -64.017332 
L 448.302153 -64.017332 
L 447.361964 -64.017332 
L 446.421775 -64.017332 
L 445.481587 -64.017332 
L 444.541398 -64.017332 
L 443.60121 -64.017332 
L 442.661021 -64.017332 
L 441.720833 -64.017332 
L 440.780644 -64.017332 
L 439.840455 -64.017332 
L 438.900267 -64.017332 
L 437.960078 -64.017332 
L 437.01989 -64.017332 
L 436.079701 -64.017332 
L 435.139513 -64.017332 
L 434.199324 -64.017332 
L 433.259135 -64.017332 
L 432.318947 -64.017332 
L 431.378758 -64.017332 
L 430.43857 -64.017332 
L 429.498381 -64.017332 
L 428.558192 -64.017332 
L 427.618004 -64.017332 
L 426.677815 -64.017332 
L 425.737627 -64.017332 
L 424.797438 -64.017332 
L 423.85725 -64.017332 
L 422.917061 -64.017332 
L 421.976872 -64.017332 
L 421.036684 -64.017332 
L 420.096495 -64.017332 
L 419.156307 -64.017332 
L 418.216118 -64.017332 
L 417.27593 -64.017332 
L 416.335741 -64.017332 
L 415.395552 -64.017332 
L 414.455364 -64.017332 
L 413.515175 -64.017332 
L 412.574987 -64.017332 
L 411.634798 -64.017332 
L 410.69461 -64.017332 
L 409.754421 -64.017332 
L 408.814232 -64.017332 
L 407.874044 -64.017332 
L 406.933855 -64.017332 
L 405.993667 -64.017332 
L 405.053478 -64.017332 
L 404.113289 -64.017332 
L 403.173101 -64.017332 
L 402.232912 -64.017332 
L 401.292724 -64.017332 
L 400.352535 -64.017332 
L 399.412347 -64.017332 
L 398.472158 -64.017332 
L 397.531969 -64.017332 
L 396.591781 -64.017332 
L 395.651592 -64.017332 
L 394.711404 -64.017332 
L 393.771215 -64.017332 
L 392.831027 -64.017332 
L 391.890838 -64.017332 
L 390.950649 -64.017332 
L 390.010461 -64.017332 
L 389.070272 -64.017332 
L 388.130084 -64.017332 
L 387.189895 -64.017332 
L 386.249706 -64.017332 
L 385.309518 -64.017332 
L 384.369329 -64.017332 
L 383.429141 -64.017332 
L 382.488952 -64.017332 
L 381.548764 -64.017332 
L 380.608575 -64.017332 
L 379.668386 -64.017332 
L 378.728198 -64.017332 
L 377.788009 -64.017332 
L 376.847821 -64.017332 
L 375.907632 -64.017332 
L 374.967444 -64.017332 
L 374.027255 -64.017332 
L 373.087066 -64.017332 
L 372.146878 -64.017332 
L 371.206689 -64.017332 
L 370.266501 -64.017332 
L 369.326312 -64.017332 
L 368.386123 -64.017332 
L 367.445935 -64.017332 
L 366.505746 -64.017332 
L 365.565558 -64.017332 
L 364.625369 -64.017332 
L 363.685181 -64.017332 
L 362.744992 -64.017332 
L 361.804803 -64.017332 
L 360.864615 -64.017332 
L 359.924426 -64.017332 
L 358.984238 -64.017332 
L 358.044049 -64.017332 
L 357.103861 -64.017332 
L 356.163672 -64.017332 
L 355.223483 -64.017332 
L 354.283295 -64.017332 
L 353.343106 -64.017332 
L 352.402918 -64.017332 
L 351.462729 -64.017332 
L 350.52254 -64.017332 
L 349.582352 -64.017332 
L 348.642163 -64.017332 
L 347.701975 -64.017332 
L 346.761786 -64.017332 
L 345.821598 -64.017332 
L 344.881409 -64.017332 
L 343.94122 -64.017332 
L 343.001032 -64.017332 
L 342.060843 -64.017332 
L 341.120655 -64.017332 
L 340.180466 -64.017332 
L 339.240278 -64.017332 
L 338.300089 -64.017332 
L 337.3599 -64.017332 
L 336.419712 -64.017332 
L 335.479523 -64.017332 
L 334.539335 -64.017332 
L 333.599146 -64.017332 
L 332.658957 -64.017332 
L 331.718769 -64.017332 
L 330.77858 -64.017332 
L 329.838392 -64.017332 
L 328.898203 -64.017332 
L 327.958015 -64.017332 
L 327.017826 -64.017332 
L 326.077637 -64.017332 
L 325.137449 -64.017332 
L 324.19726 -64.017332 
L 323.257072 -64.017332 
L 322.316883 -64.017332 
L 321.376695 -64.017332 
L 320.436506 -64.017332 
L 319.496317 -64.017332 
L 318.556129 -64.017332 
L 317.61594 -64.017332 
L 316.675752 -64.017332 
L 315.735563 -64.017332 
L 314.795374 -64.017332 
L 313.855186 -64.017332 
L 312.914997 -64.017332 
L 311.974809 -64.017332 
L 311.03462 -64.017332 
L 310.094432 -64.017332 
L 309.154243 -64.017332 
L 308.214054 -64.017332 
L 307.273866 -64.017332 
L 306.333677 -64.017332 
L 305.393489 -64.017332 
L 304.4533 -64.017332 
L 303.513112 -64.017332 
L 302.572923 -64.017332 
L 301.632734 -64.017332 
L 300.692546 -64.017332 
L 299.752357 -64.017332 
L 298.812169 -64.017332 
L 297.87198 -64.017332 
L 296.931791 -64.017332 
L 295.991603 -64.017332 
L 295.051414 -64.017332 
L 294.111226 -64.017332 
L 293.171037 -64.017332 
L 292.230849 -64.017332 
L 291.29066 -64.017332 
L 290.350471 -64.017332 
L 289.410283 -64.017332 
L 288.470094 -64.017332 
L 287.529906 -64.017332 
L 286.589717 -64.017332 
L 285.649529 -64.017332 
L 284.70934 -64.017332 
L 283.769151 -64.017332 
L 282.828963 -64.017332 
L 281.888774 -64.017332 
L 280.948586 -64.017332 
L 280.008397 -64.017332 
L 279.068209 -64.017332 
L 278.12802 -64.017332 
L 277.187831 -64.017332 
L 276.247643 -64.017332 
L 275.307454 -64.017332 
L 274.367266 -64.017332 
L 273.427077 -64.017332 
L 272.486888 -64.017332 
L 271.5467 -64.017332 
L 270.606511 -64.017332 
L 269.666323 -64.017332 
L 268.726134 -64.017332 
L 267.785946 -64.017332 
L 266.845757 -64.017332 
L 265.905568 -64.017332 
L 264.96538 -64.017332 
L 264.025191 -64.017332 
L 263.085003 -64.017332 
L 262.144814 -64.017332 
L 261.204626 -64.017332 
L 260.264437 -64.017332 
L 259.324248 -64.017332 
L 258.38406 -64.017332 
L 257.443871 -64.017332 
L 256.503683 -64.017332 
L 255.563494 -64.017332 
L 254.623305 -64.017332 
L 253.683117 -64.017332 
L 252.742928 -64.017332 
L 251.80274 -64.017332 
L 250.862551 -64.017332 
L 249.922363 -64.017332 
L 248.982174 -64.017332 
L 248.041985 -64.017332 
L 247.101797 -64.017332 
L 246.161608 -64.017332 
L 245.22142 -64.017332 
L 244.281231 -64.017332 
L 243.341043 -64.017332 
L 242.400854 -64.017332 
L 241.460665 -64.017332 
L 240.520477 -64.017332 
L 239.580288 -64.017332 
L 238.6401 -64.017332 
L 237.699911 -64.017332 
L 236.759722 -64.017332 
L 235.819534 -64.017332 
L 234.879345 -64.017332 
L 233.939157 -64.017332 
L 232.998968 -64.017332 
L 232.05878 -64.017332 
L 231.118591 -64.017332 
L 230.178402 -64.017332 
L 229.238214 -64.017332 
L 228.298025 -64.017332 
L 227.357837 -64.017332 
L 226.417648 -64.017332 
L 225.47746 -64.017332 
L 224.537271 -64.017332 
L 223.597082 -64.017332 
L 222.656894 -64.017332 
L 221.716705 -64.017332 
L 220.776517 -64.017332 
L 219.836328 -64.017332 
L 218.896139 -64.017332 
L 217.955951 -64.017332 
L 217.015762 -64.017332 
L 216.075574 -64.017332 
L 215.135385 -64.017332 
L 214.195197 -64.017332 
L 213.255008 -64.017332 
L 212.314819 -64.017332 
L 211.374631 -64.017332 
L 210.434442 -64.017332 
L 209.494254 -64.017332 
L 208.554065 -64.017332 
L 207.613877 -64.017332 
L 206.673688 -64.017332 
L 205.733499 -64.017332 
L 204.793311 -64.017332 
L 203.853122 -64.017332 
L 202.912934 -64.017332 
L 201.972745 -64.017332 
L 201.032556 -64.017332 
L 200.092368 -64.017332 
L 199.152179 -64.017332 
L 198.211991 -64.017332 
L 197.271802 -64.017332 
L 196.331614 -64.017332 
L 195.391425 -64.017332 
L 194.451236 -64.017332 
L 193.511048 -64.017332 
L 192.570859 -64.017332 
L 191.630671 -64.017332 
L 190.690482 -64.017332 
L 189.750294 -64.017332 
L 188.810105 -64.017332 
L 187.869916 -64.017332 
L 186.929728 -64.017332 
L 185.989539 -64.017332 
L 185.049351 -64.017332 
L 184.109162 -64.017332 
L 183.168973 -64.017332 
L 182.228785 -64.017332 
L 181.288596 -64.017332 
L 180.348408 -64.017332 
L 179.408219 -64.017332 
L 178.468031 -64.017332 
L 177.527842 -64.017332 
L 176.587653 -64.017332 
L 175.647465 -64.017332 
L 174.707276 -64.017332 
L 173.767088 -64.017332 
L 172.826899 -64.017332 
L 171.886711 -64.017332 
L 170.946522 -64.017332 
L 170.006333 -64.017332 
L 169.066145 -64.017332 
L 168.125956 -64.017332 
L 167.185768 -64.017332 
L 166.245579 -64.017332 
L 165.30539 -64.017332 
L 164.365202 -64.017332 
L 163.425013 -64.017332 
L 162.484825 -64.017332 
L 161.544636 -64.017332 
L 160.604448 -64.017332 
L 159.664259 -64.017332 
L 158.72407 -64.017332 
L 157.783882 -64.017332 
L 156.843693 -64.017332 
L 155.903505 -64.017332 
L 154.963316 -64.017332 
L 154.023128 -64.017332 
L 153.082939 -64.017332 
L 152.14275 -64.017332 
L 151.202562 -64.017332 
L 150.262373 -64.017332 
L 149.322185 -64.017332 
L 148.381996 -64.017332 
L 147.441808 -64.017332 
L 146.501619 -64.017332 
L 145.56143 -64.017332 
L 144.621242 -64.017332 
L 143.681053 -64.017332 
L 142.740865 -64.017332 
L 141.800676 -64.017332 
L 140.860487 -64.017332 
L 139.920299 -64.017332 
L 138.98011 -64.017332 
L 138.039922 -64.017332 
L 137.099733 -64.017332 
L 136.159545 -64.017332 
L 135.219356 -64.017332 
L 134.279167 -64.017332 
L 133.338979 -64.017332 
L 132.39879 -64.017332 
L 131.458602 -64.017332 
L 130.518413 -64.017332 
L 129.578225 -64.017332 
L 128.638036 -64.017332 
L 127.697847 -64.017332 
L 126.757659 -64.017332 
L 125.81747 -64.017332 
L 124.877282 -64.017332 
L 123.937093 -64.017332 
L 122.996904 -64.017332 
L 122.056716 -64.017332 
L 121.116527 -64.017332 
L 120.176339 -64.017332 
L 119.23615 -64.017332 
L 118.295962 -64.017332 
L 117.355773 -64.017332 
L 116.415584 -64.017332 
L 115.475396 -64.017332 
L 114.535207 -64.017332 
L 113.595019 -64.017332 
L 112.65483 -64.017332 
L 111.714642 -64.017332 
L 110.774453 -64.017332 
L 109.834264 -64.017332 
L 108.894076 -64.017332 
L 107.953887 -64.017332 
L 107.013699 -64.017332 
L 106.07351 -64.017332 
L 105.133321 -64.017332 
L 104.193133 -64.017332 
L 103.252944 -64.017332 
L 102.312756 -64.017332 
L 101.372567 -64.017332 
L 100.432379 -64.017332 
L 99.49219 -64.017332 
L 98.552001 -64.017332 
L 97.611813 -64.017332 
L 96.671624 -64.017332 
L 95.731436 -64.017332 
L 94.791247 -64.017332 
L 93.851059 -64.017332 
L 92.91087 -64.017332 
L 91.970681 -64.017332 
L 91.030493 -64.017332 
L 90.090304 -64.017332 
L 89.150116 -64.017332 
L 88.209927 -64.017332 
L 87.269738 -64.017332 
L 86.32955 -64.017332 
L 85.389361 -64.017332 
L 84.449173 -64.017332 
L 83.508984 -64.017332 
L 82.568796 -64.017332 
L 81.628607 -64.017332 
L 80.688418 -64.017332 
L 79.74823 -64.017332 
L 78.808041 -64.017332 
L 77.867853 -64.017332 
L 76.927664 -64.017332 
L 75.987476 -64.017332 
L 75.047287 -64.017332 
L 74.107098 -64.017332 
L 73.16691 -64.017332 
L 72.226721 -64.017332 
L 71.286533 -64.017332 
L 70.346344 -64.017332 
L 69.406155 -64.017332 
L 68.465967 -64.017332 
L 67.525778 -64.017332 
L 66.58559 -64.017332 
L 65.645401 -64.017332 
L 64.705213 -64.017332 
L 63.765024 -64.017332 
L 62.824835 -64.017332 
L 61.884647 -64.017332 
L 60.944458 -64.017332 
L 60.00427 -64.017332 
L 59.064081 -64.017332 
L 58.123893 -64.017332 
L 57.183704 -64.017332 
L 56.243515 -64.017332 
L 55.303327 -64.017332 
L 54.363138 -64.017332 
L 53.42295 -64.017332 
L 52.482761 -64.017332 
L 51.542572 -64.017332 
L 50.602384 -64.017332 
L 49.662195 -64.017332 
L 48.722007 -64.017332 
L 47.781818 -64.017332 
z
" style="stroke: #6cb7ff; stroke-opacity: 0.6; stroke-width: 0.3"/>
    </defs>
    <g clip-path="url(#pc473cf6031)">
     <use xlink:href="#mcad3faec5e" x="0" y="432" style="fill: #6cb7ff; fill-opacity: 0.6; stroke: #6cb7ff; stroke-opacity: 0.6; stroke-width: 0.3"/>
    </g>
   </g>
   <g id="line2d_11">
    <path d="M 47.781818 266.685867 
L 50.602384 266.565748 
L 54.363138 266.058347 
L 57.183704 265.360069 
L 60.00427 264.478314 
L 62.824835 263.316633 
L 65.645401 261.990291 
L 69.406155 259.918052 
L 73.16691 257.61828 
L 77.867853 254.422553 
L 103.252944 235.159134 
L 108.894076 230.320642 
L 112.65483 226.733604 
L 116.415584 222.756625 
L 119.23615 219.512464 
L 122.996904 214.639307 
L 126.757659 209.282743 
L 130.518413 203.516889 
L 135.219356 195.728856 
L 139.920299 187.572394 
L 146.501619 176.111719 
L 150.262373 169.841864 
L 154.963316 162.478869 
L 158.72407 157.059367 
L 162.484825 152.136752 
L 165.30539 148.770519 
L 169.066145 144.674751 
L 172.826899 140.922067 
L 177.527842 136.770748 
L 183.168973 132.226128 
L 190.690482 126.553564 
L 197.271802 121.861733 
L 203.853122 117.327952 
L 212.314819 111.942307 
L 217.015762 109.169244 
L 222.656894 106.158576 
L 227.357837 103.912665 
L 232.998968 101.417185 
L 238.6401 99.225495 
L 248.041985 96.183718 
L 253.683117 94.44745 
L 291.29066 84.30159 
L 303.513112 80.961276 
L 308.214054 79.459806 
L 324.19726 73.897384 
L 327.017826 73.123829 
L 330.77858 72.391722 
L 333.599146 72.13285 
L 336.419712 72.154615 
L 338.300089 72.324873 
L 341.120655 72.93171 
L 343.001032 73.513608 
L 345.821598 74.699133 
L 348.642163 76.309122 
L 351.462729 78.294569 
L 354.283295 80.606501 
L 357.103861 83.201797 
L 359.924426 86.024987 
L 362.744992 89.123193 
L 367.445935 94.636198 
L 371.206689 99.246705 
L 381.548764 112.624019 
L 389.070272 123.042817 
L 395.651592 132.749339 
L 400.352535 140.160785 
L 405.993667 149.462115 
L 415.395552 165.624154 
L 421.976872 176.880581 
L 427.618004 186.18086 
L 433.259135 194.989243 
L 438.900267 203.234114 
L 444.541398 210.983879 
L 451.122718 219.623191 
L 457.704038 227.880887 
L 465.225547 236.896039 
L 468.986301 241.21048 
L 475.567621 248.364815 
L 480.268564 253.172166 
L 484.029319 256.765282 
L 488.730262 260.962867 
L 494.371393 265.522788 
L 498.132147 268.286975 
L 501.892902 270.806208 
L 507.534033 274.055874 
L 510.354599 275.456381 
L 514.115353 277.059214 
L 517.876107 278.355164 
L 520.696673 279.11508 
L 522.57705 279.528643 
L 526.337805 279.966951 
L 528.218182 280.050503 
L 528.218182 280.050503 
" clip-path="url(#pc473cf6031)" style="fill: none; stroke: #7570b3; stroke-width: 2; stroke-linecap: round"/>
   </g>
   <g id="line2d_12">
    <path d="M 47.781818 368.995636 
L 47.781818 266.685867 
" clip-path="url(#pc473cf6031)" style="fill: none; stroke: #7570b3; stroke-width: 2; stroke-linecap: round"/>
   </g>
   <g id="line2d_13">
    <path d="M 528.218182 368.86199 
L 528.218182 280.050503 
" clip-path="url(#pc473cf6031)" style="fill: none; stroke: #7570b3; stroke-width: 2; stroke-linecap: round"/>
   </g>
   <g id="line2d_14">
    <defs>
     <path id="m429f04be42" d="M 0 3.5 
C 0.928211 3.5 1.81853 3.131218 2.474874 2.474874 
C 3.131218 1.81853 3.5 0.928211 3.5 0 
C 3.5 -0.928211 3.131218 -1.81853 2.474874 -2.474874 
C 1.81853 -3.131218 0.928211 -3.5 0 -3.5 
C -0.928211 -3.5 -1.81853 -3.131218 -2.474874 -2.474874 
C -3.131218 -1.81853 -3.5 -0.928211 -3.5 0 
C -3.5 0.928211 -3.131218 1.81853 -2.474874 2.474874 
C -1.81853 3.131218 -0.928211 3.5 0 3.5 
z
"/>
    </defs>
    <g clip-path="url(#pc473cf6031)">
     <use xlink:href="#m429f04be42" x="283.884901" y="367.982668" style="fill: #7570b3"/>
    </g>
   </g>
   <g id="patch_3">
    <path d="M 23.76 383.84 
L 552.24 383.84 
" style="fill: none; stroke: #333333; stroke-width: 1.5; stroke-linejoin: miter; stroke-linecap: square"/>
   </g>
   <g id="text_6">
    <!-- $x_3^4$ -->
    <g style="fill: #262626" transform="translate(272.46 49.144)">
     <text>
      <tspan x="0" y="-0.996875" style="font-style: oblique; font-size: 28px; font-family: 'DejaVu Sans'; fill: #262626">x</tspan>
      <tspan x="16.570312" y="6.659375" style="font-size: 19.6px; font-family: 'DejaVu Sans'; fill: #262626">3</tspan>
      <tspan x="17.820833" y="-11.715625" style="font-size: 19.6px; font-family: 'DejaVu Sans'; fill: #262626">4</tspan>
     </text>
    </g>
   </g>
  </g>
 </g>
 <defs>
  <clipPath id="pc473cf6031">
   <rect x="23.76" y="57.264" width="528.48" height="326.576"/>
  </clipPath>
 </defs>
</svg>
