<?xml version="1.0" encoding="utf-8" standalone="no"?>
<!DOCTYPE svg PUBLIC "-//W3C//DTD SVG 1.1//EN"
  "http://www.w3.org/Graphics/SVG/1.1/DTD/svg11.dtd">
<svg xmlns:xlink="http://www.w3.org/1999/xlink" width="1050.145pt" height="600.15396pt" viewBox="0 0 1050.145 600.15396" xmlns="http://www.w3.org/2000/svg" version="1.1">
 <metadata>
  <rdf:RDF xmlns:dc="http://purl.org/dc/elements/1.1/" xmlns:cc="http://creativecommons.org/ns#" xmlns:rdf="http://www.w3.org/1999/02/22-rdf-syntax-ns#">
   <cc:Work>
    <dc:type rdf:resource="http://purl.org/dc/dcmitype/StillImage"/>
    <dc:date>2026-02-22T15:40:20.275374</dc:date>
    <dc:format>image/svg+xml</dc:format>
    <dc:creator>
     <cc:Agent>
      <dc:title>Matplotlib v3.10.6, https://matplotlib.org/</dc:title>
     </cc:Agent>
    </dc:creator>
   </cc:Work>
  </rdf:RDF>
 </metadata>
 <defs>
  <style type="text/css">*{stroke-linejoin: round; stroke-linecap: butt}</style>
 </defs>
 <g id="figure_1">
  <g id="patch_1">
   <path d="M 0 600.15396 
L 1050.145 600.15396 
L 1050.145 0 
L 0 0 
L 0 600.15396 
z
" style="fill: none"/>
  </g>
  <g id="axes_1">
   <g id="patch_2">
    <path d="M 129.225 518.00396 
L 1042.945 518.00396 
L 1042.945 7.2 
L 129.225 7.2 
L 129.225 518.00396 
z
" style="fill: none"/>
   </g>
   <g id="matplotlib.axis_1">
    <g id="xtick_1">
     <g id="line2d_1">
      <path d="M 173.918895 518.00396 
L 173.918895 7.2 
" clip-path="url(#p21bb34fb3c)" style="fill: none; stroke: #b0b0b0; stroke-opacity: 0.3; stroke-width: 0.8; stroke-linecap: square"/>
     </g>
     <g id="line2d_2">
      <defs>
       <path id="m9a25da3512" d="M 0 0 
L 0 3.5 
" style="stroke: #000000"/>
      </defs>
      <g>
       <use xlink:href="#m9a25da3512" x="173.918895" y="518.00396" style="stroke: #000000"/>
      </g>
     </g>
     <g id="text_1">
      <!-- −6.5 -->
      <g transform="translate(135.066395 549.31896) scale(0.32 -0.32)">
       <defs>
        <path id="DejaVuSerif-2212" d="M 678 2259 
L 4684 2259 
L 4684 1753 
L 678 1753 
L 678 2259 
z
" transform="scale(0.015625)"/>
        <path id="DejaVuSerif-36" d="M 2094 219 
Q 2534 219 2771 542 
Q 3009 866 3009 1472 
Q 3009 2078 2771 2401 
Q 2534 2725 2094 2725 
Q 1647 2725 1412 2412 
Q 1178 2100 1178 1509 
Q 1178 888 1415 553 
Q 1653 219 2094 219 
z
M 1075 2569 
Q 1288 2803 1556 2918 
Q 1825 3034 2163 3034 
Q 2859 3034 3264 2615 
Q 3669 2197 3669 1472 
Q 3669 763 3233 336 
Q 2797 -91 2069 -91 
Q 1278 -91 853 498 
Q 428 1088 428 2181 
Q 428 3406 931 4078 
Q 1434 4750 2350 4750 
Q 2597 4750 2869 4703 
Q 3141 4656 3425 4563 
L 3425 3794 
L 3072 3794 
Q 3034 4109 2831 4275 
Q 2628 4441 2284 4441 
Q 1678 4441 1381 3981 
Q 1084 3522 1075 2569 
z
" transform="scale(0.015625)"/>
        <path id="DejaVuSerif-2e" d="M 603 325 
Q 603 500 722 622 
Q 841 744 1019 744 
Q 1191 744 1312 622 
Q 1434 500 1434 325 
Q 1434 153 1312 31 
Q 1191 -91 1019 -91 
Q 841 -91 722 29 
Q 603 150 603 325 
z
" transform="scale(0.015625)"/>
        <path id="DejaVuSerif-35" d="M 3219 4666 
L 3219 4153 
L 1081 4153 
L 1081 2816 
Q 1244 2928 1461 2984 
Q 1678 3041 1947 3041 
Q 2703 3041 3140 2622 
Q 3578 2203 3578 1478 
Q 3578 738 3136 323 
Q 2694 -91 1894 -91 
Q 1572 -91 1234 -12 
Q 897 66 544 225 
L 544 1131 
L 897 1131 
Q 925 688 1179 453 
Q 1434 219 1894 219 
Q 2388 219 2653 544 
Q 2919 869 2919 1478 
Q 2919 2084 2655 2407 
Q 2391 2731 1894 2731 
Q 1613 2731 1398 2631 
Q 1184 2531 1019 2322 
L 750 2322 
L 750 4666 
L 3219 4666 
z
" transform="scale(0.015625)"/>
       </defs>
       <use xlink:href="#DejaVuSerif-2212"/>
       <use xlink:href="#DejaVuSerif-36" transform="translate(83.789062 0)"/>
       <use xlink:href="#DejaVuSerif-2e" transform="translate(147.412109 0)"/>
       <use xlink:href="#DejaVuSerif-35" transform="translate(179.199219 0)"/>
      </g>
     </g>
    </g>
    <g id="xtick_2">
     <g id="line2d_3">
      <path d="M 288.94813 518.00396 
L 288.94813 7.2 
" clip-path="url(#p21bb34fb3c)" style="fill: none; stroke: #b0b0b0; stroke-opacity: 0.3; stroke-width: 0.8; stroke-linecap: square"/>
     </g>
     <g id="line2d_4">
      <g>
       <use xlink:href="#m9a25da3512" x="288.94813" y="518.00396" style="stroke: #000000"/>
      </g>
     </g>
     <g id="text_2">
      <!-- −6.0 -->
      <g transform="translate(250.09563 549.31896) scale(0.32 -0.32)">
       <defs>
        <path id="DejaVuSerif-30" d="M 2034 219 
Q 2513 219 2750 744 
Q 2988 1269 2988 2328 
Q 2988 3391 2750 3916 
Q 2513 4441 2034 4441 
Q 1556 4441 1318 3916 
Q 1081 3391 1081 2328 
Q 1081 1269 1318 744 
Q 1556 219 2034 219 
z
M 2034 -91 
Q 1275 -91 848 546 
Q 422 1184 422 2328 
Q 422 3475 848 4112 
Q 1275 4750 2034 4750 
Q 2797 4750 3222 4112 
Q 3647 3475 3647 2328 
Q 3647 1184 3222 546 
Q 2797 -91 2034 -91 
z
" transform="scale(0.015625)"/>
       </defs>
       <use xlink:href="#DejaVuSerif-2212"/>
       <use xlink:href="#DejaVuSerif-36" transform="translate(83.789062 0)"/>
       <use xlink:href="#DejaVuSerif-2e" transform="translate(147.412109 0)"/>
       <use xlink:href="#DejaVuSerif-30" transform="translate(179.199219 0)"/>
      </g>
     </g>
    </g>
    <g id="xtick_3">
     <g id="line2d_5">
      <path d="M 403.977364 518.00396 
L 403.977364 7.2 
" clip-path="url(#p21bb34fb3c)" style="fill: none; stroke: #b0b0b0; stroke-opacity: 0.3; stroke-width: 0.8; stroke-linecap: square"/>
     </g>
     <g id="line2d_6">
      <g>
       <use xlink:href="#m9a25da3512" x="403.977364" y="518.00396" style="stroke: #000000"/>
      </g>
     </g>
     <g id="text_3">
      <!-- −5.5 -->
      <g transform="translate(365.124864 549.31896) scale(0.32 -0.32)">
       <use xlink:href="#DejaVuSerif-2212"/>
       <use xlink:href="#DejaVuSerif-35" transform="translate(83.789062 0)"/>
       <use xlink:href="#DejaVuSerif-2e" transform="translate(147.412109 0)"/>
       <use xlink:href="#DejaVuSerif-35" transform="translate(179.199219 0)"/>
      </g>
     </g>
    </g>
    <g id="xtick_4">
     <g id="line2d_7">
      <path d="M 519.006598 518.00396 
L 519.006598 7.2 
" clip-path="url(#p21bb34fb3c)" style="fill: none; stroke: #b0b0b0; stroke-opacity: 0.3; stroke-width: 0.8; stroke-linecap: square"/>
     </g>
     <g id="line2d_8">
      <g>
       <use xlink:href="#m9a25da3512" x="519.006598" y="518.00396" style="stroke: #000000"/>
      </g>
     </g>
     <g id="text_4">
      <!-- −5.0 -->
      <g transform="translate(480.154098 549.31896) scale(0.32 -0.32)">
       <use xlink:href="#DejaVuSerif-2212"/>
       <use xlink:href="#DejaVuSerif-35" transform="translate(83.789062 0)"/>
       <use xlink:href="#DejaVuSerif-2e" transform="translate(147.412109 0)"/>
       <use xlink:href="#DejaVuSerif-30" transform="translate(179.199219 0)"/>
      </g>
     </g>
    </g>
    <g id="xtick_5">
     <g id="line2d_9">
      <path d="M 634.035833 518.00396 
L 634.035833 7.2 
" clip-path="url(#p21bb34fb3c)" style="fill: none; stroke: #b0b0b0; stroke-opacity: 0.3; stroke-width: 0.8; stroke-linecap: square"/>
     </g>
     <g id="line2d_10">
      <g>
       <use xlink:href="#m9a25da3512" x="634.035833" y="518.00396" style="stroke: #000000"/>
      </g>
     </g>
     <g id="text_5">
      <!-- −4.5 -->
      <g transform="translate(595.183333 549.31896) scale(0.32 -0.32)">
       <defs>
        <path id="DejaVuSerif-34" d="M 2234 1581 
L 2234 4063 
L 641 1581 
L 2234 1581 
z
M 3609 0 
L 1484 0 
L 1484 331 
L 2234 331 
L 2234 1247 
L 197 1247 
L 197 1588 
L 2241 4750 
L 2859 4750 
L 2859 1581 
L 3750 1581 
L 3750 1247 
L 2859 1247 
L 2859 331 
L 3609 331 
L 3609 0 
z
" transform="scale(0.015625)"/>
       </defs>
       <use xlink:href="#DejaVuSerif-2212"/>
       <use xlink:href="#DejaVuSerif-34" transform="translate(83.789062 0)"/>
       <use xlink:href="#DejaVuSerif-2e" transform="translate(147.412109 0)"/>
       <use xlink:href="#DejaVuSerif-35" transform="translate(179.199219 0)"/>
      </g>
     </g>
    </g>
    <g id="xtick_6">
     <g id="line2d_11">
      <path d="M 749.065067 518.00396 
L 749.065067 7.2 
" clip-path="url(#p21bb34fb3c)" style="fill: none; stroke: #b0b0b0; stroke-opacity: 0.3; stroke-width: 0.8; stroke-linecap: square"/>
     </g>
     <g id="line2d_12">
      <g>
       <use xlink:href="#m9a25da3512" x="749.065067" y="518.00396" style="stroke: #000000"/>
      </g>
     </g>
     <g id="text_6">
      <!-- −4.0 -->
      <g transform="translate(710.212567 549.31896) scale(0.32 -0.32)">
       <use xlink:href="#DejaVuSerif-2212"/>
       <use xlink:href="#DejaVuSerif-34" transform="translate(83.789062 0)"/>
       <use xlink:href="#DejaVuSerif-2e" transform="translate(147.412109 0)"/>
       <use xlink:href="#DejaVuSerif-30" transform="translate(179.199219 0)"/>
      </g>
     </g>
    </g>
    <g id="xtick_7">
     <g id="line2d_13">
      <path d="M 864.094301 518.00396 
L 864.094301 7.2 
" clip-path="url(#p21bb34fb3c)" style="fill: none; stroke: #b0b0b0; stroke-opacity: 0.3; stroke-width: 0.8; stroke-linecap: square"/>
     </g>
     <g id="line2d_14">
      <g>
       <use xlink:href="#m9a25da3512" x="864.094301" y="518.00396" style="stroke: #000000"/>
      </g>
     </g>
     <g id="text_7">
      <!-- −3.5 -->
      <g transform="translate(825.241801 549.31896) scale(0.32 -0.32)">
       <defs>
        <path id="DejaVuSerif-33" d="M 622 4469 
Q 988 4606 1323 4678 
Q 1659 4750 1953 4750 
Q 2638 4750 3022 4454 
Q 3406 4159 3406 3634 
Q 3406 3213 3140 2930 
Q 2875 2647 2388 2547 
Q 2963 2466 3280 2130 
Q 3597 1794 3597 1259 
Q 3597 606 3158 257 
Q 2719 -91 1894 -91 
Q 1528 -91 1179 -12 
Q 831 66 488 225 
L 488 1131 
L 838 1131 
Q 869 681 1141 450 
Q 1413 219 1906 219 
Q 2384 219 2661 495 
Q 2938 772 2938 1253 
Q 2938 1803 2653 2086 
Q 2369 2369 1819 2369 
L 1522 2369 
L 1522 2688 
L 1678 2688 
Q 2225 2688 2498 2914 
Q 2772 3141 2772 3597 
Q 2772 4006 2547 4223 
Q 2322 4441 1900 4441 
Q 1478 4441 1245 4241 
Q 1013 4041 972 3647 
L 622 3647 
L 622 4469 
z
" transform="scale(0.015625)"/>
       </defs>
       <use xlink:href="#DejaVuSerif-2212"/>
       <use xlink:href="#DejaVuSerif-33" transform="translate(83.789062 0)"/>
       <use xlink:href="#DejaVuSerif-2e" transform="translate(147.412109 0)"/>
       <use xlink:href="#DejaVuSerif-35" transform="translate(179.199219 0)"/>
      </g>
     </g>
    </g>
    <g id="xtick_8">
     <g id="line2d_15">
      <path d="M 979.123536 518.00396 
L 979.123536 7.2 
" clip-path="url(#p21bb34fb3c)" style="fill: none; stroke: #b0b0b0; stroke-opacity: 0.3; stroke-width: 0.8; stroke-linecap: square"/>
     </g>
     <g id="line2d_16">
      <g>
       <use xlink:href="#m9a25da3512" x="979.123536" y="518.00396" style="stroke: #000000"/>
      </g>
     </g>
     <g id="text_8">
      <!-- −3.0 -->
      <g transform="translate(940.271036 549.31896) scale(0.32 -0.32)">
       <use xlink:href="#DejaVuSerif-2212"/>
       <use xlink:href="#DejaVuSerif-33" transform="translate(83.789062 0)"/>
       <use xlink:href="#DejaVuSerif-2e" transform="translate(147.412109 0)"/>
       <use xlink:href="#DejaVuSerif-30" transform="translate(179.199219 0)"/>
      </g>
     </g>
    </g>
    <g id="text_9">
     <!-- $\log(\lambda)$ -->
     <g transform="translate(536.785 585.81396) scale(0.34 -0.34)">
      <defs>
       <path id="DejaVuSans-6c" d="M 603 4863 
L 1178 4863 
L 1178 0 
L 603 0 
L 603 4863 
z
" transform="scale(0.015625)"/>
       <path id="DejaVuSans-6f" d="M 1959 3097 
Q 1497 3097 1228 2736 
Q 959 2375 959 1747 
Q 959 1119 1226 758 
Q 1494 397 1959 397 
Q 2419 397 2687 759 
Q 2956 1122 2956 1747 
Q 2956 2369 2687 2733 
Q 2419 3097 1959 3097 
z
M 1959 3584 
Q 2709 3584 3137 3096 
Q 3566 2609 3566 1747 
Q 3566 888 3137 398 
Q 2709 -91 1959 -91 
Q 1206 -91 779 398 
Q 353 888 353 1747 
Q 353 2609 779 3096 
Q 1206 3584 1959 3584 
z
" transform="scale(0.015625)"/>
       <path id="DejaVuSans-67" d="M 2906 1791 
Q 2906 2416 2648 2759 
Q 2391 3103 1925 3103 
Q 1463 3103 1205 2759 
Q 947 2416 947 1791 
Q 947 1169 1205 825 
Q 1463 481 1925 481 
Q 2391 481 2648 825 
Q 2906 1169 2906 1791 
z
M 3481 434 
Q 3481 -459 3084 -895 
Q 2688 -1331 1869 -1331 
Q 1566 -1331 1297 -1286 
Q 1028 -1241 775 -1147 
L 775 -588 
Q 1028 -725 1275 -790 
Q 1522 -856 1778 -856 
Q 2344 -856 2625 -561 
Q 2906 -266 2906 331 
L 2906 616 
Q 2728 306 2450 153 
Q 2172 0 1784 0 
Q 1141 0 747 490 
Q 353 981 353 1791 
Q 353 2603 747 3093 
Q 1141 3584 1784 3584 
Q 2172 3584 2450 3431 
Q 2728 3278 2906 2969 
L 2906 3500 
L 3481 3500 
L 3481 434 
z
" transform="scale(0.015625)"/>
       <path id="DejaVuSans-28" d="M 1984 4856 
Q 1566 4138 1362 3434 
Q 1159 2731 1159 2009 
Q 1159 1288 1364 580 
Q 1569 -128 1984 -844 
L 1484 -844 
Q 1016 -109 783 600 
Q 550 1309 550 2009 
Q 550 2706 781 3412 
Q 1013 4119 1484 4856 
L 1984 4856 
z
" transform="scale(0.015625)"/>
       <path id="DejaVuSans-Oblique-3bb" d="M 2350 4316 
L 3125 0 
L 2516 0 
L 2038 2588 
L 328 0 
L -281 0 
L 1903 3356 
L 1794 3975 
Q 1725 4369 1391 4369 
L 1091 4369 
L 1184 4863 
L 1550 4856 
Q 2253 4847 2350 4316 
z
" transform="scale(0.015625)"/>
       <path id="DejaVuSans-29" d="M 513 4856 
L 1013 4856 
Q 1481 4119 1714 3412 
Q 1947 2706 1947 2009 
Q 1947 1309 1714 600 
Q 1481 -109 1013 -844 
L 513 -844 
Q 928 -128 1133 580 
Q 1338 1288 1338 2009 
Q 1338 2731 1133 3434 
Q 928 4138 513 4856 
z
" transform="scale(0.015625)"/>
      </defs>
      <use xlink:href="#DejaVuSans-6c" transform="translate(0 0.015625)"/>
      <use xlink:href="#DejaVuSans-6f" transform="translate(27.783203 0.015625)"/>
      <use xlink:href="#DejaVuSans-67" transform="translate(88.964844 0.015625)"/>
      <use xlink:href="#DejaVuSans-28" transform="translate(152.441406 0.015625)"/>
      <use xlink:href="#DejaVuSans-Oblique-3bb" transform="translate(191.455078 0.015625)"/>
      <use xlink:href="#DejaVuSans-29" transform="translate(250.634766 0.015625)"/>
     </g>
    </g>
   </g>
   <g id="matplotlib.axis_2">
    <g id="ytick_1">
     <g id="line2d_17">
      <path d="M 129.225 484.08308 
L 1042.945 484.08308 
" clip-path="url(#p21bb34fb3c)" style="fill: none; stroke: #b0b0b0; stroke-opacity: 0.3; stroke-width: 0.8; stroke-linecap: square"/>
     </g>
     <g id="line2d_18">
      <defs>
       <path id="md4e433b0e8" d="M 0 0 
L -3.5 0 
" style="stroke: #000000"/>
      </defs>
      <g>
       <use xlink:href="#md4e433b0e8" x="129.225" y="484.08308" style="stroke: #000000"/>
      </g>
     </g>
     <g id="text_10">
      <!-- −1.0 -->
      <g transform="translate(44.52 496.24058) scale(0.32 -0.32)">
       <defs>
        <path id="DejaVuSerif-31" d="M 909 0 
L 909 331 
L 1722 331 
L 1722 4213 
L 781 3603 
L 781 4013 
L 1919 4750 
L 2350 4750 
L 2350 331 
L 3163 331 
L 3163 0 
L 909 0 
z
" transform="scale(0.015625)"/>
       </defs>
       <use xlink:href="#DejaVuSerif-2212"/>
       <use xlink:href="#DejaVuSerif-31" transform="translate(83.789062 0)"/>
       <use xlink:href="#DejaVuSerif-2e" transform="translate(147.412109 0)"/>
       <use xlink:href="#DejaVuSerif-30" transform="translate(179.199219 0)"/>
      </g>
     </g>
    </g>
    <g id="ytick_2">
     <g id="line2d_19">
      <path d="M 129.225 368.001254 
L 1042.945 368.001254 
" clip-path="url(#p21bb34fb3c)" style="fill: none; stroke: #b0b0b0; stroke-opacity: 0.3; stroke-width: 0.8; stroke-linecap: square"/>
     </g>
     <g id="line2d_20">
      <g>
       <use xlink:href="#md4e433b0e8" x="129.225" y="368.001254" style="stroke: #000000"/>
      </g>
     </g>
     <g id="text_11">
      <!-- −0.5 -->
      <g transform="translate(44.52 380.158754) scale(0.32 -0.32)">
       <use xlink:href="#DejaVuSerif-2212"/>
       <use xlink:href="#DejaVuSerif-30" transform="translate(83.789062 0)"/>
       <use xlink:href="#DejaVuSerif-2e" transform="translate(147.412109 0)"/>
       <use xlink:href="#DejaVuSerif-35" transform="translate(179.199219 0)"/>
      </g>
     </g>
    </g>
    <g id="ytick_3">
     <g id="line2d_21">
      <path d="M 129.225 251.919427 
L 1042.945 251.919427 
" clip-path="url(#p21bb34fb3c)" style="fill: none; stroke: #b0b0b0; stroke-opacity: 0.3; stroke-width: 0.8; stroke-linecap: square"/>
     </g>
     <g id="line2d_22">
      <g>
       <use xlink:href="#md4e433b0e8" x="129.225" y="251.919427" style="stroke: #000000"/>
      </g>
     </g>
     <g id="text_12">
      <!-- 0.0 -->
      <g transform="translate(71.335 264.076927) scale(0.32 -0.32)">
       <use xlink:href="#DejaVuSerif-30"/>
       <use xlink:href="#DejaVuSerif-2e" transform="translate(63.623047 0)"/>
       <use xlink:href="#DejaVuSerif-30" transform="translate(95.410156 0)"/>
      </g>
     </g>
    </g>
    <g id="ytick_4">
     <g id="line2d_23">
      <path d="M 129.225 135.837601 
L 1042.945 135.837601 
" clip-path="url(#p21bb34fb3c)" style="fill: none; stroke: #b0b0b0; stroke-opacity: 0.3; stroke-width: 0.8; stroke-linecap: square"/>
     </g>
     <g id="line2d_24">
      <g>
       <use xlink:href="#md4e433b0e8" x="129.225" y="135.837601" style="stroke: #000000"/>
      </g>
     </g>
     <g id="text_13">
      <!-- 0.5 -->
      <g transform="translate(71.335 147.995101) scale(0.32 -0.32)">
       <use xlink:href="#DejaVuSerif-30"/>
       <use xlink:href="#DejaVuSerif-2e" transform="translate(63.623047 0)"/>
       <use xlink:href="#DejaVuSerif-35" transform="translate(95.410156 0)"/>
      </g>
     </g>
    </g>
    <g id="ytick_5">
     <g id="line2d_25">
      <path d="M 129.225 19.755775 
L 1042.945 19.755775 
" clip-path="url(#p21bb34fb3c)" style="fill: none; stroke: #b0b0b0; stroke-opacity: 0.3; stroke-width: 0.8; stroke-linecap: square"/>
     </g>
     <g id="line2d_26">
      <g>
       <use xlink:href="#md4e433b0e8" x="129.225" y="19.755775" style="stroke: #000000"/>
      </g>
     </g>
     <g id="text_14">
      <!-- 1.0 -->
      <g transform="translate(71.335 31.913275) scale(0.32 -0.32)">
       <use xlink:href="#DejaVuSerif-31"/>
       <use xlink:href="#DejaVuSerif-2e" transform="translate(63.623047 0)"/>
       <use xlink:href="#DejaVuSerif-30" transform="translate(95.410156 0)"/>
      </g>
     </g>
    </g>
    <g id="text_15">
     <!-- $\beta$ -->
     <g transform="translate(33.38 273.48198) rotate(-90) scale(0.34 -0.34)">
      <defs>
       <path id="DejaVuSans-Oblique-3b2" d="M 872 216 
L 572 -1331 
L -6 -1331 
L 928 3478 
Q 1206 4903 2538 4903 
Q 3888 4903 3659 3700 
Q 3503 2844 2894 2531 
Q 3713 2250 3553 1416 
Q 3272 -69 1759 -66 
Q 1097 -63 872 216 
z
M 1019 966 
Q 1259 422 1875 425 
Q 2775 425 2966 1406 
Q 3138 2288 1675 2219 
L 1778 2750 
Q 2909 2731 3106 3750 
Q 3241 4438 2509 4434 
Q 1691 4434 1503 3459 
L 1019 966 
z
" transform="scale(0.015625)"/>
      </defs>
      <use xlink:href="#DejaVuSans-Oblique-3b2" transform="translate(0 0.390625)"/>
     </g>
    </g>
   </g>
   <g id="line2d_27">
    <path d="M 1042.945 251.919427 
L 1040.69471 251.919427 
L 1038.422192 251.919427 
L 1036.127001 251.919427 
L 1033.808681 251.919427 
L 1031.466762 251.919427 
L 1029.100757 251.919427 
L 1026.710166 251.116793 
L 1024.294473 249.733093 
L 1021.853145 248.406321 
L 1019.385632 247.015705 
L 1016.891366 245.688393 
L 1014.369761 244.297713 
L 1011.820211 242.970394 
L 1009.242089 241.579713 
L 1006.634748 240.252395 
L 1003.997519 238.861714 
L 1001.329706 237.534395 
L 998.630594 236.143714 
L 995.899439 234.816396 
L 993.135471 233.425715 
L 990.337892 232.098396 
L 987.505874 230.707715 
L 984.638559 229.380397 
L 981.735056 227.989716 
L 978.79444 226.662397 
L 975.81575 225.271716 
L 972.797986 223.944398 
L 969.740111 222.553717 
L 966.641042 221.226398 
L 963.499657 219.835717 
L 960.314782 218.508399 
L 957.085197 217.117718 
L 953.809628 215.790399 
L 950.486747 214.399718 
L 947.115168 213.0724 
L 943.693441 211.681719 
L 940.220052 210.3544 
L 936.693418 208.963719 
L 933.111881 207.636401 
L 929.473703 206.245719 
L 925.777064 204.918401 
L 922.020056 203.52772 
L 918.200674 202.200401 
L 914.316811 200.80972 
L 910.366252 199.482402 
L 906.346668 198.091721 
L 902.255603 196.764402 
L 898.090468 195.373721 
L 893.848532 194.046403 
L 889.52691 192.655722 
L 885.12255 191.328403 
L 880.632222 189.937722 
L 876.052503 188.610404 
L 871.379762 187.219723 
L 866.610141 185.892404 
L 861.739538 184.501723 
L 856.763584 183.174405 
L 851.677622 181.783724 
L 846.476676 180.456405 
L 841.155426 179.065724 
L 835.708177 177.738406 
L 830.128814 176.347725 
L 824.410771 174.946653 
L 818.546978 173.385767 
L 812.529808 171.354031 
L 806.351024 169.546526 
L 800.001702 167.687117 
L 793.472161 165.832906 
L 786.751871 163.980373 
L 779.829351 162.128639 
L 772.692051 160.277285 
L 765.326216 158.426111 
L 757.716724 156.575023 
L 749.846903 154.723974 
L 741.698307 152.872945 
L 733.250459 151.021926 
L 724.480538 149.17091 
L 715.363009 147.639124 
L 705.869176 146.083391 
L 695.966633 144.549701 
L 685.618602 143.020043 
L 674.783104 141.491001 
L 663.411933 139.962052 
L 651.449357 138.433116 
L 638.830469 136.836411 
L 625.47905 135.381875 
L 611.304784 133.340124 
L 596.199547 131.45788 
L 580.032395 129.526979 
L 562.642654 127.453511 
L 543.830175 124.871422 
L 523.341246 122.396085 
L 500.847586 119.922359 
L 475.913915 117.449394 
L 447.945731 114.976833 
L 416.100721 112.504487 
L 379.128466 109.988989 
L 335.05507 107.939803 
L 280.488443 105.078902 
" clip-path="url(#p21bb34fb3c)" style="fill: none; stroke: #1f77b4; stroke-opacity: 0.9; stroke-width: 2; stroke-linecap: square"/>
   </g>
   <g id="line2d_28">
    <path d="M 1042.945 378.722573 
L 1040.69471 378.832575 
L 1038.422192 378.919398 
L 1036.127001 378.9988 
L 1033.808681 379.075839 
L 1031.466762 379.152127 
L 1029.100757 379.228176 
L 1026.710166 379.262012 
L 1024.294473 379.327188 
L 1021.853145 379.387002 
L 1019.385632 379.463059 
L 1016.891366 379.523224 
L 1014.369761 379.59931 
L 1011.820211 379.659477 
L 1009.242089 379.735563 
L 1006.634748 379.79573 
L 1003.997519 379.871817 
L 1001.329706 379.931984 
L 998.630594 380.008071 
L 995.899439 380.068238 
L 993.135471 380.144324 
L 990.337892 380.204491 
L 987.505874 380.280578 
L 984.638559 380.340745 
L 981.735056 380.416831 
L 978.79444 380.476999 
L 975.81575 380.553085 
L 972.797986 380.613252 
L 969.740111 380.689339 
L 966.641042 380.749506 
L 963.499657 380.825592 
L 960.314782 380.885759 
L 957.085197 380.961846 
L 953.809628 381.022013 
L 950.486747 381.0981 
L 947.115168 381.158267 
L 943.693441 381.234353 
L 940.220052 381.29452 
L 936.693418 381.370607 
L 933.111881 381.430774 
L 929.473703 381.50686 
L 925.777064 381.567027 
L 922.020056 381.643114 
L 918.200674 381.703281 
L 914.316811 381.779368 
L 910.366252 381.839535 
L 906.346668 381.915621 
L 902.255603 381.975788 
L 898.090468 382.051875 
L 893.848532 382.112042 
L 889.52691 382.188128 
L 885.12255 382.248296 
L 880.632222 382.324382 
L 876.052503 382.384549 
L 871.379762 382.460636 
L 866.610141 382.520803 
L 861.739538 382.596889 
L 856.763584 382.657056 
L 851.677622 382.733143 
L 846.476676 382.79331 
L 841.155426 382.869396 
L 835.708177 382.929564 
L 830.128814 383.00565 
L 824.410771 383.038816 
L 818.546978 382.967495 
L 812.529808 382.681161 
L 806.351024 382.428125 
L 800.001702 382.159721 
L 793.472161 381.890547 
L 786.751871 381.62234 
L 779.829351 381.354595 
L 772.692051 381.087068 
L 765.326216 380.819645 
L 757.716724 380.552271 
L 749.846903 380.284921 
L 741.698307 380.017582 
L 733.250459 379.750248 
L 724.480538 379.482916 
L 715.363009 379.204736 
L 705.869176 379.069301 
L 695.966633 378.950287 
L 685.618602 378.832095 
L 674.783104 378.713983 
L 663.411933 378.595881 
L 651.449357 378.477782 
L 638.830469 378.349166 
L 625.47905 378.169442 
L 611.304784 377.642749 
L 596.199547 377.221633 
L 580.032395 376.768366 
L 562.642654 376.294038 
L 543.830175 375.765522 
L 523.341246 375.23748 
L 500.847586 374.709461 
L 475.913915 374.181538 
L 447.945731 373.653667 
L 416.100721 373.125823 
L 379.128466 372.591796 
L 335.05507 372.106717 
L 280.488443 371.627131 
" clip-path="url(#p21bb34fb3c)" style="fill: none; stroke: #aec7e8; stroke-opacity: 0.9; stroke-width: 2; stroke-linecap: square"/>
   </g>
   <g id="line2d_29">
    <path d="M 1042.945 251.919427 
L 1040.69471 251.919427 
L 1038.422192 251.919427 
L 1036.127001 251.919427 
L 1033.808681 251.919427 
L 1031.466762 251.919427 
L 1029.100757 251.919427 
L 1026.710166 251.919427 
L 1024.294473 251.919427 
L 1021.853145 251.919427 
L 1019.385632 251.919427 
L 1016.891366 251.919427 
L 1014.369761 251.919427 
L 1011.820211 251.919427 
L 1009.242089 251.919427 
L 1006.634748 251.919427 
L 1003.997519 251.919427 
L 1001.329706 251.919427 
L 998.630594 251.919427 
L 995.899439 251.919427 
L 993.135471 251.919427 
L 990.337892 251.919427 
L 987.505874 251.919427 
L 984.638559 251.919427 
L 981.735056 251.919427 
L 978.79444 251.919427 
L 975.81575 251.919427 
L 972.797986 251.919427 
L 969.740111 251.919427 
L 966.641042 251.919427 
L 963.499657 251.919427 
L 960.314782 251.919427 
L 957.085197 251.919427 
L 953.809628 251.919427 
L 950.486747 251.919427 
L 947.115168 251.919427 
L 943.693441 251.919427 
L 940.220052 251.919427 
L 936.693418 251.919427 
L 933.111881 251.919427 
L 929.473703 251.919427 
L 925.777064 251.919427 
L 922.020056 251.919427 
L 918.200674 251.919427 
L 914.316811 251.919427 
L 910.366252 251.919427 
L 906.346668 251.919427 
L 902.255603 251.919427 
L 898.090468 251.919427 
L 893.848532 251.919427 
L 889.52691 251.919427 
L 885.12255 251.919427 
L 880.632222 251.919427 
L 876.052503 251.919427 
L 871.379762 251.919427 
L 866.610141 251.919427 
L 861.739538 251.919427 
L 856.763584 251.919427 
L 851.677622 251.919427 
L 846.476676 251.919427 
L 841.155426 251.919427 
L 835.708177 251.919427 
L 830.128814 251.919427 
L 824.410771 251.919427 
L 818.546978 251.919427 
L 812.529808 251.919427 
L 806.351024 251.919427 
L 800.001702 251.919427 
L 793.472161 251.919427 
L 786.751871 251.919427 
L 779.829351 251.919427 
L 772.692051 251.919427 
L 765.326216 251.919427 
L 757.716724 251.919427 
L 749.846903 251.919427 
L 741.698307 251.919427 
L 733.250459 251.919427 
L 724.480538 251.919427 
L 715.363009 251.919427 
L 705.869176 251.919427 
L 695.966633 251.919427 
L 685.618602 251.919427 
L 674.783104 251.919427 
L 663.411933 251.919427 
L 651.449357 251.919427 
L 638.830469 251.919427 
L 625.47905 251.919427 
L 611.304784 251.919427 
L 596.199547 251.919427 
L 580.032395 251.919427 
L 562.642654 251.919427 
L 543.830175 251.919427 
L 523.341246 251.919427 
L 500.847586 251.919427 
L 475.913915 251.919427 
L 447.945731 251.919427 
L 416.100721 251.919427 
L 379.128466 251.919427 
L 335.05507 251.919427 
L 280.488443 251.919427 
" clip-path="url(#p21bb34fb3c)" style="fill: none; stroke: #aec7e8; stroke-opacity: 0.9; stroke-width: 2; stroke-linecap: square"/>
   </g>
   <g id="line2d_30">
    <path d="M 1042.945 364.658403 
L 1040.69471 364.756609 
L 1038.422192 364.843846 
L 1036.127001 364.928152 
L 1033.808681 365.011596 
L 1031.466762 365.094776 
L 1029.100757 365.177873 
L 1026.710166 365.235935 
L 1024.294473 365.321943 
L 1021.853145 365.403345 
L 1019.385632 365.49394 
L 1016.891366 365.5755 
L 1014.369761 365.666109 
L 1011.820211 365.74767 
L 1009.242089 365.838279 
L 1006.634748 365.91984 
L 1003.997519 366.010449 
L 1001.329706 366.09201 
L 998.630594 366.182619 
L 995.899439 366.26418 
L 993.135471 366.354789 
L 990.337892 366.43635 
L 987.505874 366.52696 
L 984.638559 366.608521 
L 981.735056 366.69913 
L 978.79444 366.780691 
L 975.81575 366.8713 
L 972.797986 366.952861 
L 969.740111 367.04347 
L 966.641042 367.125031 
L 963.499657 367.21564 
L 960.314782 367.297201 
L 957.085197 367.38781 
L 953.809628 367.469372 
L 950.486747 367.559981 
L 947.115168 367.641542 
L 943.693441 367.732151 
L 940.220052 367.813712 
L 936.693418 367.904321 
L 933.111881 367.985882 
L 929.473703 368.076491 
L 925.777064 368.158052 
L 922.020056 368.248661 
L 918.200674 368.330223 
L 914.316811 368.420832 
L 910.366252 368.502393 
L 906.346668 368.593002 
L 902.255603 368.674563 
L 898.090468 368.765172 
L 893.848532 368.846733 
L 889.52691 368.937342 
L 885.12255 369.018903 
L 880.632222 369.109512 
L 876.052503 369.191073 
L 871.379762 369.281683 
L 866.610141 369.363244 
L 861.739538 369.453853 
L 856.763584 369.535414 
L 851.677622 369.626023 
L 846.476676 369.707584 
L 841.155426 369.798193 
L 835.708177 369.879754 
L 830.128814 369.970363 
L 824.410771 370.051792 
L 818.546978 370.124245 
L 812.529808 370.195066 
L 806.351024 370.251405 
L 800.001702 370.309514 
L 793.472161 370.366921 
L 786.751871 370.424379 
L 779.829351 370.481861 
L 772.692051 370.539355 
L 765.326216 370.596854 
L 757.716724 370.654356 
L 749.846903 370.711859 
L 741.698307 370.769363 
L 733.250459 370.826867 
L 724.480538 370.884371 
L 715.363009 370.94276 
L 705.869176 371.021406 
L 695.966633 371.101387 
L 685.618602 371.181018 
L 674.783104 371.260581 
L 663.411933 371.340135 
L 651.449357 371.419686 
L 638.830469 371.509086 
L 625.47905 371.523686 
L 611.304784 371.655686 
L 596.199547 371.807901 
L 580.032395 371.953791 
L 562.642654 371.969945 
L 543.830175 371.681982 
L 523.341246 371.319541 
L 500.847586 370.957892 
L 475.913915 370.596875 
L 447.945731 370.236192 
L 416.100721 369.875687 
L 379.128466 369.48055 
L 335.05507 369.315725 
L 280.488443 368.807187 
" clip-path="url(#p21bb34fb3c)" style="fill: none; stroke: #ff7f0e; stroke-opacity: 0.9; stroke-width: 2; stroke-linecap: square"/>
   </g>
   <g id="line2d_31">
    <path d="M 1042.945 251.919427 
L 1040.69471 251.919427 
L 1038.422192 251.919427 
L 1036.127001 251.919427 
L 1033.808681 251.919427 
L 1031.466762 251.919427 
L 1029.100757 251.919427 
L 1026.710166 251.919427 
L 1024.294473 251.919427 
L 1021.853145 251.919427 
L 1019.385632 251.919427 
L 1016.891366 251.919427 
L 1014.369761 251.919427 
L 1011.820211 251.919427 
L 1009.242089 251.919427 
L 1006.634748 251.919427 
L 1003.997519 251.919427 
L 1001.329706 251.919427 
L 998.630594 251.919427 
L 995.899439 251.919427 
L 993.135471 251.919427 
L 990.337892 251.919427 
L 987.505874 251.919427 
L 984.638559 251.919427 
L 981.735056 251.919427 
L 978.79444 251.919427 
L 975.81575 251.919427 
L 972.797986 251.919427 
L 969.740111 251.919427 
L 966.641042 251.919427 
L 963.499657 251.919427 
L 960.314782 251.919427 
L 957.085197 251.919427 
L 953.809628 251.919427 
L 950.486747 251.919427 
L 947.115168 251.919427 
L 943.693441 251.919427 
L 940.220052 251.919427 
L 936.693418 251.919427 
L 933.111881 251.919427 
L 929.473703 251.919427 
L 925.777064 251.919427 
L 922.020056 251.919427 
L 918.200674 251.919427 
L 914.316811 251.919427 
L 910.366252 251.919427 
L 906.346668 251.919427 
L 902.255603 251.919427 
L 898.090468 251.919427 
L 893.848532 251.919427 
L 889.52691 251.919427 
L 885.12255 251.919427 
L 880.632222 251.919427 
L 876.052503 251.919427 
L 871.379762 251.919427 
L 866.610141 251.919427 
L 861.739538 251.919427 
L 856.763584 251.919427 
L 851.677622 251.919427 
L 846.476676 251.919427 
L 841.155426 251.919427 
L 835.708177 251.919427 
L 830.128814 251.919427 
L 824.410771 252.109123 
L 818.546978 252.798707 
L 812.529808 254.532276 
L 806.351024 255.919833 
L 800.001702 257.408366 
L 793.472161 258.89131 
L 786.751871 260.370101 
L 779.829351 261.846921 
L 772.692051 263.322808 
L 765.326216 264.79825 
L 757.716724 266.273483 
L 749.846903 267.748616 
L 741.698307 269.223702 
L 733.250459 270.698765 
L 724.480538 272.173818 
L 715.363009 272.859706 
L 705.869176 273.269831 
L 695.966633 273.661885 
L 685.618602 274.052647 
L 674.783104 274.443253 
L 663.411933 274.833836 
L 651.449357 275.224417 
L 638.830469 275.649772 
L 625.47905 276.117037 
L 611.304784 276.435043 
L 596.199547 276.639116 
L 580.032395 276.874965 
L 562.642654 277.113962 
L 543.830175 277.355731 
L 523.341246 277.60701 
L 500.847586 277.858463 
L 475.913915 278.109896 
L 447.945731 278.361318 
L 416.100721 278.612734 
L 379.128466 278.870593 
L 335.05507 279.11601 
L 280.488443 279.401911 
" clip-path="url(#p21bb34fb3c)" style="fill: none; stroke: #2ca02c; stroke-opacity: 0.9; stroke-width: 2; stroke-linecap: square"/>
   </g>
   <g id="line2d_32">
    <path d="M 1042.945 251.919427 
L 1040.69471 251.919427 
L 1038.422192 251.919427 
L 1036.127001 251.919427 
L 1033.808681 251.919427 
L 1031.466762 251.919427 
L 1029.100757 251.919427 
L 1026.710166 251.919427 
L 1024.294473 251.919427 
L 1021.853145 251.919427 
L 1019.385632 251.919427 
L 1016.891366 251.919427 
L 1014.369761 251.919427 
L 1011.820211 251.919427 
L 1009.242089 251.919427 
L 1006.634748 251.919427 
L 1003.997519 251.919427 
L 1001.329706 251.919427 
L 998.630594 251.919427 
L 995.899439 251.919427 
L 993.135471 251.919427 
L 990.337892 251.919427 
L 987.505874 251.919427 
L 984.638559 251.919427 
L 981.735056 251.919427 
L 978.79444 251.919427 
L 975.81575 251.919427 
L 972.797986 251.919427 
L 969.740111 251.919427 
L 966.641042 251.919427 
L 963.499657 251.919427 
L 960.314782 251.919427 
L 957.085197 251.919427 
L 953.809628 251.919427 
L 950.486747 251.919427 
L 947.115168 251.919427 
L 943.693441 251.919427 
L 940.220052 251.919427 
L 936.693418 251.919427 
L 933.111881 251.919427 
L 929.473703 251.919427 
L 925.777064 251.919427 
L 922.020056 251.919427 
L 918.200674 251.919427 
L 914.316811 251.919427 
L 910.366252 251.919427 
L 906.346668 251.919427 
L 902.255603 251.919427 
L 898.090468 251.919427 
L 893.848532 251.919427 
L 889.52691 251.919427 
L 885.12255 251.919427 
L 880.632222 251.919427 
L 876.052503 251.919427 
L 871.379762 251.919427 
L 866.610141 251.919427 
L 861.739538 251.919427 
L 856.763584 251.919427 
L 851.677622 251.919427 
L 846.476676 251.919427 
L 841.155426 251.919427 
L 835.708177 251.919427 
L 830.128814 251.919427 
L 824.410771 251.919427 
L 818.546978 251.919427 
L 812.529808 251.919427 
L 806.351024 251.919427 
L 800.001702 251.919427 
L 793.472161 251.919427 
L 786.751871 251.919427 
L 779.829351 251.919427 
L 772.692051 251.919427 
L 765.326216 251.919427 
L 757.716724 251.919427 
L 749.846903 251.919427 
L 741.698307 251.919427 
L 733.250459 251.919427 
L 724.480538 251.919427 
L 715.363009 251.919427 
L 705.869176 251.919427 
L 695.966633 251.919427 
L 685.618602 251.919427 
L 674.783104 251.919427 
L 663.411933 251.919427 
L 651.449357 251.919427 
L 638.830469 251.919427 
L 625.47905 251.919427 
L 611.304784 251.919427 
L 596.199547 251.919427 
L 580.032395 251.932059 
L 562.642654 252.49038 
L 543.830175 254.310075 
L 523.341246 256.236966 
L 500.847586 258.159925 
L 475.913915 260.080536 
L 447.945731 261.999902 
L 416.100721 263.918607 
L 379.128466 265.970571 
L 335.05507 267.001229 
L 280.488443 269.958015 
" clip-path="url(#p21bb34fb3c)" style="fill: none; stroke: #98df8a; stroke-opacity: 0.9; stroke-width: 2; stroke-linecap: square"/>
   </g>
   <g id="line2d_33">
    <path d="M 1042.945 251.919427 
L 1040.69471 251.919427 
L 1038.422192 251.919427 
L 1036.127001 251.919427 
L 1033.808681 251.919427 
L 1031.466762 251.919427 
L 1029.100757 251.919427 
L 1026.710166 251.919427 
L 1024.294473 251.919427 
L 1021.853145 251.919427 
L 1019.385632 251.919427 
L 1016.891366 251.919427 
L 1014.369761 251.919427 
L 1011.820211 251.919427 
L 1009.242089 251.919427 
L 1006.634748 251.919427 
L 1003.997519 251.919427 
L 1001.329706 251.919427 
L 998.630594 251.919427 
L 995.899439 251.919427 
L 993.135471 251.919427 
L 990.337892 251.919427 
L 987.505874 251.919427 
L 984.638559 251.919427 
L 981.735056 251.919427 
L 978.79444 251.919427 
L 975.81575 251.919427 
L 972.797986 251.919427 
L 969.740111 251.919427 
L 966.641042 251.919427 
L 963.499657 251.919427 
L 960.314782 251.919427 
L 957.085197 251.919427 
L 953.809628 251.919427 
L 950.486747 251.919427 
L 947.115168 251.919427 
L 943.693441 251.919427 
L 940.220052 251.919427 
L 936.693418 251.919427 
L 933.111881 251.919427 
L 929.473703 251.919427 
L 925.777064 251.919427 
L 922.020056 251.919427 
L 918.200674 251.919427 
L 914.316811 251.919427 
L 910.366252 251.919427 
L 906.346668 251.919427 
L 902.255603 251.919427 
L 898.090468 251.919427 
L 893.848532 251.919427 
L 889.52691 251.919427 
L 885.12255 251.919427 
L 880.632222 251.919427 
L 876.052503 251.919427 
L 871.379762 251.919427 
L 866.610141 251.919427 
L 861.739538 251.919427 
L 856.763584 251.919427 
L 851.677622 251.919427 
L 846.476676 251.919427 
L 841.155426 251.919427 
L 835.708177 251.919427 
L 830.128814 251.919427 
L 824.410771 251.919427 
L 818.546978 251.919427 
L 812.529808 251.919427 
L 806.351024 251.919427 
L 800.001702 251.919427 
L 793.472161 251.919427 
L 786.751871 251.919427 
L 779.829351 251.919427 
L 772.692051 251.919427 
L 765.326216 251.919427 
L 757.716724 251.919427 
L 749.846903 251.919427 
L 741.698307 251.919427 
L 733.250459 251.919427 
L 724.480538 251.919427 
L 715.363009 251.919427 
L 705.869176 251.919427 
L 695.966633 251.919427 
L 685.618602 251.919427 
L 674.783104 251.919427 
L 663.411933 251.919427 
L 651.449357 251.919427 
L 638.830469 251.800097 
L 625.47905 251.583361 
L 611.304784 251.561243 
L 596.199547 251.566286 
L 580.032395 251.560708 
L 562.642654 251.559817 
L 543.830175 251.64198 
L 523.341246 251.68703 
L 500.847586 251.731693 
L 475.913915 251.776259 
L 447.945731 251.820774 
L 416.100721 251.865262 
L 379.128466 251.906109 
L 335.05507 251.885085 
L 280.488443 251.919427 
" clip-path="url(#p21bb34fb3c)" style="fill: none; stroke: #d62728; stroke-opacity: 0.9; stroke-width: 2; stroke-linecap: square"/>
   </g>
   <g id="line2d_34">
    <path d="M 1042.945 261.843069 
L 1040.69471 261.907238 
L 1038.422192 261.952832 
L 1036.127001 261.992759 
L 1033.808681 262.030918 
L 1031.466762 262.068518 
L 1029.100757 262.105943 
L 1026.710166 262.715976 
L 1024.294473 263.884026 
L 1021.853145 264.987199 
L 1019.385632 266.171465 
L 1016.891366 267.275495 
L 1014.369761 268.459853 
L 1011.820211 269.563892 
L 1009.242089 270.748251 
L 1006.634748 271.85229 
L 1003.997519 273.036649 
L 1001.329706 274.140689 
L 998.630594 275.325048 
L 995.899439 276.429087 
L 993.135471 277.613446 
L 990.337892 278.717485 
L 987.505874 279.901844 
L 984.638559 281.005883 
L 981.735056 282.190242 
L 978.79444 283.294281 
L 975.81575 284.47864 
L 972.797986 285.58268 
L 969.740111 286.767039 
L 966.641042 287.871078 
L 963.499657 289.055437 
L 960.314782 290.159476 
L 957.085197 291.343835 
L 953.809628 292.447874 
L 950.486747 293.632233 
L 947.115168 294.736272 
L 943.693441 295.920631 
L 940.220052 297.02467 
L 936.693418 298.209029 
L 933.111881 299.313069 
L 929.473703 300.497428 
L 925.777064 301.601467 
L 922.020056 302.785826 
L 918.200674 303.889865 
L 914.316811 305.074224 
L 910.366252 306.178263 
L 906.346668 307.362622 
L 902.255603 308.466661 
L 898.090468 309.65102 
L 893.848532 310.75506 
L 889.52691 311.939419 
L 885.12255 313.043458 
L 880.632222 314.227817 
L 876.052503 315.331856 
L 871.379762 316.516215 
L 866.610141 317.620254 
L 861.739538 318.804613 
L 856.763584 319.908652 
L 851.677622 321.093011 
L 846.476676 322.19705 
L 841.155426 323.381409 
L 835.708177 324.485449 
L 830.128814 325.669808 
L 824.410771 326.859855 
L 818.546978 328.220382 
L 812.529808 330.094905 
L 806.351024 331.698405 
L 800.001702 333.362372 
L 793.472161 335.019323 
L 786.751871 336.674521 
L 779.829351 338.328884 
L 772.692051 339.982851 
L 765.326216 341.636631 
L 757.716724 343.290321 
L 749.846903 344.943969 
L 741.698307 346.597598 
L 733.250459 348.251216 
L 724.480538 349.90483 
L 715.363009 351.072527 
L 705.869176 352.333132 
L 695.966633 353.57898 
L 685.618602 354.820871 
L 674.783104 356.06213 
L 663.411933 357.303294 
L 651.449357 358.544443 
L 638.830469 359.817396 
L 625.47905 360.853864 
L 611.304784 362.755895 
L 596.199547 364.554426 
L 580.032395 366.38621 
L 562.642654 368.348071 
L 543.830175 370.828729 
L 523.341246 373.148197 
L 500.847586 375.465823 
L 475.913915 377.782743 
L 447.945731 380.099287 
L 416.100721 382.415632 
L 379.128466 384.766893 
L 335.05507 386.635252 
L 280.488443 389.313659 
" clip-path="url(#p21bb34fb3c)" style="fill: none; stroke: #d62728; stroke-opacity: 0.9; stroke-width: 2; stroke-linecap: square"/>
   </g>
   <g id="line2d_35">
    <path d="M 1042.945 251.919427 
L 1040.69471 251.919427 
L 1038.422192 251.919427 
L 1036.127001 251.919427 
L 1033.808681 251.919427 
L 1031.466762 251.919427 
L 1029.100757 251.919427 
L 1026.710166 251.919427 
L 1024.294473 251.919427 
L 1021.853145 251.919427 
L 1019.385632 251.919427 
L 1016.891366 251.919427 
L 1014.369761 251.919427 
L 1011.820211 251.919427 
L 1009.242089 251.919427 
L 1006.634748 251.919427 
L 1003.997519 251.919427 
L 1001.329706 251.919427 
L 998.630594 251.919427 
L 995.899439 251.919427 
L 993.135471 251.919427 
L 990.337892 251.919427 
L 987.505874 251.919427 
L 984.638559 251.919427 
L 981.735056 251.919427 
L 978.79444 251.919427 
L 975.81575 251.919427 
L 972.797986 251.919427 
L 969.740111 251.919427 
L 966.641042 251.919427 
L 963.499657 251.919427 
L 960.314782 251.919427 
L 957.085197 251.919427 
L 953.809628 251.919427 
L 950.486747 251.919427 
L 947.115168 251.919427 
L 943.693441 251.919427 
L 940.220052 251.919427 
L 936.693418 251.919427 
L 933.111881 251.919427 
L 929.473703 251.919427 
L 925.777064 251.919427 
L 922.020056 251.919427 
L 918.200674 251.919427 
L 914.316811 251.919427 
L 910.366252 251.919427 
L 906.346668 251.919427 
L 902.255603 251.919427 
L 898.090468 251.919427 
L 893.848532 251.919427 
L 889.52691 251.919427 
L 885.12255 251.919427 
L 880.632222 251.919427 
L 876.052503 251.919427 
L 871.379762 251.919427 
L 866.610141 251.919427 
L 861.739538 251.919427 
L 856.763584 251.919427 
L 851.677622 251.919427 
L 846.476676 251.919427 
L 841.155426 251.919427 
L 835.708177 251.919427 
L 830.128814 251.919427 
L 824.410771 251.919427 
L 818.546978 251.919427 
L 812.529808 251.919427 
L 806.351024 251.919427 
L 800.001702 251.919427 
L 793.472161 251.919427 
L 786.751871 251.919427 
L 779.829351 251.919427 
L 772.692051 251.919427 
L 765.326216 251.919427 
L 757.716724 251.919427 
L 749.846903 251.919427 
L 741.698307 251.919427 
L 733.250459 251.919427 
L 724.480538 251.919427 
L 715.363009 251.919427 
L 705.869176 251.919427 
L 695.966633 251.919427 
L 685.618602 251.919427 
L 674.783104 251.919427 
L 663.411933 251.919427 
L 651.449357 251.919427 
L 638.830469 251.919427 
L 625.47905 251.919427 
L 611.304784 251.046134 
L 596.199547 250.187724 
L 580.032395 249.321469 
L 562.642654 248.442862 
L 543.830175 247.493579 
L 523.341246 246.583048 
L 500.847586 245.67279 
L 475.913915 244.762606 
L 447.945731 243.852462 
L 416.100721 242.942338 
L 379.128466 242.031096 
L 335.05507 241.185336 
L 280.488443 240.239002 
" clip-path="url(#p21bb34fb3c)" style="fill: none; stroke: #ff9896; stroke-opacity: 0.9; stroke-width: 2; stroke-linecap: square"/>
   </g>
   <g id="line2d_36">
    <path d="M 1042.945 251.919427 
L 1040.69471 251.919427 
L 1038.422192 251.919427 
L 1036.127001 251.919427 
L 1033.808681 251.919427 
L 1031.466762 251.919427 
L 1029.100757 251.919427 
L 1026.710166 251.919427 
L 1024.294473 251.919427 
L 1021.853145 251.919427 
L 1019.385632 251.919427 
L 1016.891366 251.919427 
L 1014.369761 251.919427 
L 1011.820211 251.919427 
L 1009.242089 251.919427 
L 1006.634748 251.919427 
L 1003.997519 251.919427 
L 1001.329706 251.919427 
L 998.630594 251.919427 
L 995.899439 251.919427 
L 993.135471 251.919427 
L 990.337892 251.919427 
L 987.505874 251.919427 
L 984.638559 251.919427 
L 981.735056 251.919427 
L 978.79444 251.919427 
L 975.81575 251.919427 
L 972.797986 251.919427 
L 969.740111 251.919427 
L 966.641042 251.919427 
L 963.499657 251.919427 
L 960.314782 251.919427 
L 957.085197 251.919427 
L 953.809628 251.919427 
L 950.486747 251.919427 
L 947.115168 251.919427 
L 943.693441 251.919427 
L 940.220052 251.919427 
L 936.693418 251.919427 
L 933.111881 251.919427 
L 929.473703 251.919427 
L 925.777064 251.919427 
L 922.020056 251.919427 
L 918.200674 251.919427 
L 914.316811 251.919427 
L 910.366252 251.919427 
L 906.346668 251.919427 
L 902.255603 251.919427 
L 898.090468 251.919427 
L 893.848532 251.919427 
L 889.52691 251.919427 
L 885.12255 251.919427 
L 880.632222 251.919427 
L 876.052503 251.919427 
L 871.379762 251.919427 
L 866.610141 251.919427 
L 861.739538 251.919427 
L 856.763584 251.919427 
L 851.677622 251.919427 
L 846.476676 251.919427 
L 841.155426 251.919427 
L 835.708177 251.919427 
L 830.128814 251.919427 
L 824.410771 251.919427 
L 818.546978 251.919427 
L 812.529808 251.919427 
L 806.351024 251.919427 
L 800.001702 251.919427 
L 793.472161 251.919427 
L 786.751871 251.919427 
L 779.829351 251.919427 
L 772.692051 251.919427 
L 765.326216 251.919427 
L 757.716724 251.919427 
L 749.846903 251.919427 
L 741.698307 251.919427 
L 733.250459 251.919427 
L 724.480538 251.919427 
L 715.363009 251.919427 
L 705.869176 251.919427 
L 695.966633 251.919427 
L 685.618602 251.919427 
L 674.783104 251.919427 
L 663.411933 251.919427 
L 651.449357 251.919427 
L 638.830469 251.919427 
L 625.47905 251.919427 
L 611.304784 251.919427 
L 596.199547 251.919427 
L 580.032395 251.919427 
L 562.642654 251.919427 
L 543.830175 251.919427 
L 523.341246 251.919427 
L 500.847586 251.919427 
L 475.913915 251.919427 
L 447.945731 251.919427 
L 416.100721 251.919427 
L 379.128466 251.919427 
L 335.05507 251.893187 
L 280.488443 251.709166 
" clip-path="url(#p21bb34fb3c)" style="fill: none; stroke: #9467bd; stroke-opacity: 0.9; stroke-width: 2; stroke-linecap: square"/>
   </g>
   <g id="line2d_37">
    <path d="M 1042.945 256.644123 
L 1040.69471 256.600573 
L 1038.422192 256.580125 
L 1036.127001 256.567054 
L 1033.808681 256.556329 
L 1031.466762 256.546348 
L 1029.100757 256.536603 
L 1026.710166 256.678689 
L 1024.294473 256.845932 
L 1021.853145 257.015064 
L 1019.385632 257.171726 
L 1016.891366 257.340537 
L 1014.369761 257.497174 
L 1011.820211 257.665983 
L 1009.242089 257.822619 
L 1006.634748 257.991428 
L 1003.997519 258.148064 
L 1001.329706 258.316873 
L 998.630594 258.473509 
L 995.899439 258.642318 
L 993.135471 258.798954 
L 990.337892 258.967763 
L 987.505874 259.1244 
L 984.638559 259.293208 
L 981.735056 259.449845 
L 978.79444 259.618654 
L 975.81575 259.77529 
L 972.797986 259.944099 
L 969.740111 260.100735 
L 966.641042 260.269544 
L 963.499657 260.42618 
L 960.314782 260.594989 
L 957.085197 260.751625 
L 953.809628 260.920434 
L 950.486747 261.07707 
L 947.115168 261.245879 
L 943.693441 261.402516 
L 940.220052 261.571324 
L 936.693418 261.727961 
L 933.111881 261.89677 
L 929.473703 262.053406 
L 925.777064 262.222215 
L 922.020056 262.378851 
L 918.200674 262.54766 
L 914.316811 262.704296 
L 910.366252 262.873105 
L 906.346668 263.029741 
L 902.255603 263.19855 
L 898.090468 263.355186 
L 893.848532 263.523995 
L 889.52691 263.680632 
L 885.12255 263.84944 
L 880.632222 264.006077 
L 876.052503 264.174886 
L 871.379762 264.331522 
L 866.610141 264.500331 
L 861.739538 264.656967 
L 856.763584 264.825776 
L 851.677622 264.982412 
L 846.476676 265.151221 
L 841.155426 265.307857 
L 835.708177 265.476666 
L 830.128814 265.633302 
L 824.410771 265.63881 
L 818.546978 265.241063 
L 812.529808 264.001753 
L 806.351024 263.074279 
L 800.001702 262.060501 
L 793.472161 261.052939 
L 786.751871 260.048628 
L 779.829351 259.045856 
L 772.692051 258.043814 
L 765.326216 257.042118 
L 757.716724 256.040587 
L 749.846903 255.039133 
L 741.698307 254.037716 
L 733.250459 253.036317 
L 724.480538 252.034927 
L 715.363009 251.919427 
L 705.869176 251.919427 
L 695.966633 251.919427 
L 685.618602 251.919427 
L 674.783104 251.919427 
L 663.411933 251.919427 
L 651.449357 251.919427 
L 638.830469 251.919427 
L 625.47905 251.919427 
L 611.304784 251.919427 
L 596.199547 251.919427 
L 580.032395 251.919427 
L 562.642654 251.919427 
L 543.830175 251.919427 
L 523.341246 251.919427 
L 500.847586 251.919427 
L 475.913915 251.919427 
L 447.945731 251.919427 
L 416.100721 251.919427 
L 379.128466 251.919427 
L 335.05507 251.919427 
L 280.488443 251.919427 
" clip-path="url(#p21bb34fb3c)" style="fill: none; stroke: #9467bd; stroke-opacity: 0.9; stroke-width: 2; stroke-linecap: square"/>
   </g>
   <g id="line2d_38">
    <path d="M 1042.945 258.971275 
L 1040.69471 258.986863 
L 1038.422192 259.016036 
L 1036.127001 259.049029 
L 1033.808681 259.083172 
L 1031.466762 259.117671 
L 1029.100757 259.152282 
L 1026.710166 259.301089 
L 1024.294473 259.461673 
L 1021.853145 259.624919 
L 1019.385632 259.779772 
L 1016.891366 259.942838 
L 1014.369761 260.097676 
L 1011.820211 260.260741 
L 1009.242089 260.415578 
L 1006.634748 260.578643 
L 1003.997519 260.73348 
L 1001.329706 260.896545 
L 998.630594 261.051382 
L 995.899439 261.214447 
L 993.135471 261.369285 
L 990.337892 261.532349 
L 987.505874 261.687187 
L 984.638559 261.850251 
L 981.735056 262.005089 
L 978.79444 262.168153 
L 975.81575 262.322991 
L 972.797986 262.486055 
L 969.740111 262.640893 
L 966.641042 262.803958 
L 963.499657 262.958795 
L 960.314782 263.12186 
L 957.085197 263.276697 
L 953.809628 263.439762 
L 950.486747 263.594599 
L 947.115168 263.757664 
L 943.693441 263.912502 
L 940.220052 264.075566 
L 936.693418 264.230404 
L 933.111881 264.393468 
L 929.473703 264.548306 
L 925.777064 264.71137 
L 922.020056 264.866208 
L 918.200674 265.029272 
L 914.316811 265.18411 
L 910.366252 265.347175 
L 906.346668 265.502012 
L 902.255603 265.665077 
L 898.090468 265.819914 
L 893.848532 265.982979 
L 889.52691 266.137816 
L 885.12255 266.300881 
L 880.632222 266.455719 
L 876.052503 266.618783 
L 871.379762 266.773621 
L 866.610141 266.936685 
L 861.739538 267.091523 
L 856.763584 267.254587 
L 851.677622 267.409425 
L 846.476676 267.572489 
L 841.155426 267.727327 
L 835.708177 267.890392 
L 830.128814 268.045229 
L 824.410771 268.205541 
L 818.546978 268.366146 
L 812.529808 268.512631 
L 806.351024 268.679802 
L 800.001702 268.843379 
L 793.472161 269.007829 
L 786.751871 269.172288 
L 779.829351 269.336749 
L 772.692051 269.501213 
L 765.326216 269.665677 
L 757.716724 269.830142 
L 749.846903 269.994607 
L 741.698307 270.159071 
L 733.250459 270.323536 
L 724.480538 270.488001 
L 715.363009 270.672605 
L 705.869176 270.843532 
L 695.966633 271.01153 
L 685.618602 271.179714 
L 674.783104 271.347944 
L 663.411933 271.51618 
L 651.449357 271.684417 
L 638.830469 271.924883 
L 625.47905 272.299831 
L 611.304784 272.411382 
L 596.199547 272.475925 
L 580.032395 272.543238 
L 562.642654 272.160554 
L 543.830175 270.691056 
L 523.341246 269.202851 
L 500.847586 267.718276 
L 475.913915 266.235625 
L 447.945731 264.753996 
L 416.100721 263.272908 
L 379.128466 261.689226 
L 335.05507 260.998431 
L 280.488443 258.668211 
" clip-path="url(#p21bb34fb3c)" style="fill: none; stroke: #c49c94; stroke-opacity: 0.9; stroke-width: 2; stroke-linecap: square"/>
   </g>
   <g id="line2d_39">
    <path d="M 216.005997 42.427859 
L 280.488443 105.078902 
" clip-path="url(#p21bb34fb3c)" style="fill: none; stroke-dasharray: 1,1.65; stroke-dashoffset: 0; stroke: #1f77b4; stroke-opacity: 0.5"/>
   </g>
   <g id="line2d_40">
    <path d="M 216.005997 442.744443 
L 280.488443 371.627131 
" clip-path="url(#p21bb34fb3c)" style="fill: none; stroke-dasharray: 1,1.65; stroke-dashoffset: 0; stroke: #aec7e8; stroke-opacity: 0.5"/>
   </g>
   <g id="line2d_41">
    <path d="M 216.005997 202.554493 
L 280.488443 251.919427 
" clip-path="url(#p21bb34fb3c)" style="fill: none; stroke-dasharray: 1,1.65; stroke-dashoffset: 0; stroke: #aec7e8; stroke-opacity: 0.5"/>
   </g>
   <g id="line2d_42">
    <path d="M 216.005997 402.712784 
L 280.488443 368.807187 
" clip-path="url(#p21bb34fb3c)" style="fill: none; stroke-dasharray: 1,1.65; stroke-dashoffset: 0; stroke: #ff7f0e; stroke-opacity: 0.5"/>
   </g>
   <g id="line2d_43">
    <path d="M 216.005997 362.681126 
L 280.488443 279.401911 
" clip-path="url(#p21bb34fb3c)" style="fill: none; stroke-dasharray: 1,1.65; stroke-dashoffset: 0; stroke: #2ca02c; stroke-opacity: 0.5"/>
   </g>
   <g id="line2d_44">
    <path d="M 216.005997 322.649468 
L 280.488443 269.958015 
" clip-path="url(#p21bb34fb3c)" style="fill: none; stroke-dasharray: 1,1.65; stroke-dashoffset: 0; stroke: #98df8a; stroke-opacity: 0.5"/>
   </g>
   <g id="line2d_45">
    <path d="M 216.005997 162.522834 
L 280.488443 251.885085 
" clip-path="url(#p21bb34fb3c)" style="fill: none; stroke-dasharray: 1,1.65; stroke-dashoffset: 0; stroke: #d62728; stroke-opacity: 0.5"/>
   </g>
   <g id="line2d_46">
    <path d="M 216.005997 482.776101 
L 280.488443 389.313659 
" clip-path="url(#p21bb34fb3c)" style="fill: none; stroke-dasharray: 1,1.65; stroke-dashoffset: 0; stroke: #d62728; stroke-opacity: 0.5"/>
   </g>
   <g id="line2d_47">
    <path d="M 216.005997 82.459518 
L 280.488443 240.239002 
" clip-path="url(#p21bb34fb3c)" style="fill: none; stroke-dasharray: 1,1.65; stroke-dashoffset: 0; stroke: #ff9896; stroke-opacity: 0.5"/>
   </g>
   <g id="line2d_48">
    <path d="M 216.005997 122.491176 
L 280.488443 251.709166 
" clip-path="url(#p21bb34fb3c)" style="fill: none; stroke-dasharray: 1,1.65; stroke-dashoffset: 0; stroke: #9467bd; stroke-opacity: 0.5"/>
   </g>
   <g id="line2d_49">
    <path d="M 216.005997 242.586151 
L 280.488443 252.034927 
" clip-path="url(#p21bb34fb3c)" style="fill: none; stroke-dasharray: 1,1.65; stroke-dashoffset: 0; stroke: #9467bd; stroke-opacity: 0.5"/>
   </g>
   <g id="line2d_50">
    <path d="M 216.005997 282.617809 
L 280.488443 258.668211 
" clip-path="url(#p21bb34fb3c)" style="fill: none; stroke-dasharray: 1,1.65; stroke-dashoffset: 0; stroke: #c49c94; stroke-opacity: 0.5"/>
   </g>
   <g id="line2d_51">
    <path d="M 492.32078 518.00396 
L 492.32078 7.2 
" clip-path="url(#p21bb34fb3c)" style="fill: none; stroke-dasharray: 6.66,2.88; stroke-dashoffset: 0; stroke: #7570b3; stroke-opacity: 0.9; stroke-width: 1.8"/>
   </g>
   <g id="patch_3">
    <path d="M 129.225 518.00396 
L 129.225 7.2 
" style="fill: none; stroke: #000000; stroke-width: 1.2; stroke-linejoin: miter; stroke-linecap: square"/>
   </g>
   <g id="patch_4">
    <path d="M 129.225 518.00396 
L 1042.945 518.00396 
" style="fill: none; stroke: #000000; stroke-width: 1.2; stroke-linejoin: miter; stroke-linecap: square"/>
   </g>
   <g id="text_16">
    <g id="patch_5">
     <path d="M 168.189148 58.880672 
L 204.569148 58.880672 
L 204.569148 25.975047 
L 168.189148 25.975047 
z
" style="fill: #ffffff; opacity: 0.72"/>
    </g>
    <!-- $x_3$ -->
    <g style="fill: #1f77b4" transform="translate(168.189148 51.809734) scale(0.34 -0.34)">
     <defs>
      <path id="DejaVuSans-Oblique-78" d="M 3841 3500 
L 2234 1784 
L 3219 0 
L 2559 0 
L 1819 1388 
L 531 0 
L -166 0 
L 1556 1844 
L 641 3500 
L 1300 3500 
L 1972 2234 
L 3144 3500 
L 3841 3500 
z
" transform="scale(0.015625)"/>
      <path id="DejaVuSans-33" d="M 2597 2516 
Q 3050 2419 3304 2112 
Q 3559 1806 3559 1356 
Q 3559 666 3084 287 
Q 2609 -91 1734 -91 
Q 1441 -91 1130 -33 
Q 819 25 488 141 
L 488 750 
Q 750 597 1062 519 
Q 1375 441 1716 441 
Q 2309 441 2620 675 
Q 2931 909 2931 1356 
Q 2931 1769 2642 2001 
Q 2353 2234 1838 2234 
L 1294 2234 
L 1294 2753 
L 1863 2753 
Q 2328 2753 2575 2939 
Q 2822 3125 2822 3475 
Q 2822 3834 2567 4026 
Q 2313 4219 1838 4219 
Q 1578 4219 1281 4162 
Q 984 4106 628 3988 
L 628 4550 
Q 988 4650 1302 4700 
Q 1616 4750 1894 4750 
Q 2613 4750 3031 4423 
Q 3450 4097 3450 3541 
Q 3450 3153 3228 2886 
Q 3006 2619 2597 2516 
z
" transform="scale(0.015625)"/>
     </defs>
     <use xlink:href="#DejaVuSans-Oblique-78" transform="translate(0 0.3125)"/>
     <use xlink:href="#DejaVuSans-33" transform="translate(59.179688 -16.09375) scale(0.7)"/>
    </g>
   </g>
   <g id="text_17">
    <g id="patch_6">
     <path d="M 166.829148 462.974443 
L 204.569148 462.974443 
L 204.569148 422.514443 
L 166.829148 422.514443 
z
" style="fill: #ffffff; opacity: 0.72"/>
    </g>
    <!-- $x_1^2$ -->
    <g style="fill: #aec7e8" transform="translate(166.829148 453.454443) scale(0.34 -0.34)">
     <defs>
      <path id="DejaVuSans-32" d="M 1228 531 
L 3431 531 
L 3431 0 
L 469 0 
L 469 531 
Q 828 903 1448 1529 
Q 2069 2156 2228 2338 
Q 2531 2678 2651 2914 
Q 2772 3150 2772 3378 
Q 2772 3750 2511 3984 
Q 2250 4219 1831 4219 
Q 1534 4219 1204 4116 
Q 875 4013 500 3803 
L 500 4441 
Q 881 4594 1212 4672 
Q 1544 4750 1819 4750 
Q 2544 4750 2975 4387 
Q 3406 4025 3406 3419 
Q 3406 3131 3298 2873 
Q 3191 2616 2906 2266 
Q 2828 2175 2409 1742 
Q 1991 1309 1228 531 
z
" transform="scale(0.015625)"/>
      <path id="DejaVuSans-31" d="M 794 531 
L 1825 531 
L 1825 4091 
L 703 3866 
L 703 4441 
L 1819 4666 
L 2450 4666 
L 2450 531 
L 3481 531 
L 3481 0 
L 794 0 
L 794 531 
z
" transform="scale(0.015625)"/>
     </defs>
     <use xlink:href="#DejaVuSans-Oblique-78" transform="translate(0 0.765625)"/>
     <use xlink:href="#DejaVuSans-32" transform="translate(63.645833 39.046875) scale(0.7)"/>
     <use xlink:href="#DejaVuSans-31" transform="translate(59.179688 -26.578125) scale(0.7)"/>
    </g>
   </g>
   <g id="text_18">
    <g id="patch_7">
     <path d="M 132.149148 219.007305 
L 204.569148 219.007305 
L 204.569148 186.10168 
L 132.149148 186.10168 
z
" style="fill: #ffffff; opacity: 0.72"/>
    </g>
    <!-- $x_1 x_3$ -->
    <g style="fill: #aec7e8" transform="translate(132.149148 211.936368) scale(0.34 -0.34)">
     <use xlink:href="#DejaVuSans-Oblique-78" transform="translate(0 0.3125)"/>
     <use xlink:href="#DejaVuSans-31" transform="translate(59.179688 -16.09375) scale(0.7)"/>
     <use xlink:href="#DejaVuSans-Oblique-78" transform="translate(106.450195 0.3125)"/>
     <use xlink:href="#DejaVuSans-33" transform="translate(165.629883 -16.09375) scale(0.7)"/>
    </g>
   </g>
   <g id="text_19">
    <g id="patch_8">
     <path d="M 166.829148 422.942784 
L 204.569148 422.942784 
L 204.569148 382.482784 
L 166.829148 382.482784 
z
" style="fill: #ffffff; opacity: 0.72"/>
    </g>
    <!-- $x_2^2$ -->
    <g style="fill: #ff7f0e" transform="translate(166.829148 413.422784) scale(0.34 -0.34)">
     <use xlink:href="#DejaVuSans-Oblique-78" transform="translate(0 0.765625)"/>
     <use xlink:href="#DejaVuSans-32" transform="translate(63.645833 39.046875) scale(0.7)"/>
     <use xlink:href="#DejaVuSans-32" transform="translate(59.179688 -26.578125) scale(0.7)"/>
    </g>
   </g>
   <g id="text_20">
    <g id="patch_9">
     <path d="M 130.449148 382.911126 
L 204.569148 382.911126 
L 204.569148 342.451126 
L 130.449148 342.451126 
z
" style="fill: #ffffff; opacity: 0.72"/>
    </g>
    <!-- $x_1^2 x_3$ -->
    <g style="fill: #2ca02c" transform="translate(130.449148 373.391126) scale(0.34 -0.34)">
     <use xlink:href="#DejaVuSans-Oblique-78" transform="translate(0 0.765625)"/>
     <use xlink:href="#DejaVuSans-32" transform="translate(63.645833 39.046875) scale(0.7)"/>
     <use xlink:href="#DejaVuSans-31" transform="translate(59.179688 -26.578125) scale(0.7)"/>
     <use xlink:href="#DejaVuSans-Oblique-78" transform="translate(110.916341 0.765625)"/>
     <use xlink:href="#DejaVuSans-33" transform="translate(170.096029 -15.640625) scale(0.7)"/>
    </g>
   </g>
   <g id="text_21">
    <g id="patch_10">
     <path d="M 130.449148 342.879468 
L 204.569148 342.879468 
L 204.569148 302.419468 
L 130.449148 302.419468 
z
" style="fill: #ffffff; opacity: 0.72"/>
    </g>
    <!-- $x_2^2 x_3$ -->
    <g style="fill: #98df8a" transform="translate(130.449148 333.359468) scale(0.34 -0.34)">
     <use xlink:href="#DejaVuSans-Oblique-78" transform="translate(0 0.765625)"/>
     <use xlink:href="#DejaVuSans-32" transform="translate(63.645833 39.046875) scale(0.7)"/>
     <use xlink:href="#DejaVuSans-32" transform="translate(59.179688 -26.578125) scale(0.7)"/>
     <use xlink:href="#DejaVuSans-Oblique-78" transform="translate(110.916341 0.765625)"/>
     <use xlink:href="#DejaVuSans-33" transform="translate(170.096029 -15.640625) scale(0.7)"/>
    </g>
   </g>
   <g id="text_22">
    <g id="patch_11">
     <path d="M 130.449148 182.922834 
L 204.569148 182.922834 
L 204.569148 142.122834 
L 130.449148 142.122834 
z
" style="fill: #ffffff; opacity: 0.72"/>
    </g>
    <!-- $x_2 x_3^2$ -->
    <g style="fill: #d62728" transform="translate(130.449148 173.062834) scale(0.34 -0.34)">
     <use xlink:href="#DejaVuSans-Oblique-78" transform="translate(0 0.765625)"/>
     <use xlink:href="#DejaVuSans-32" transform="translate(59.179688 -15.640625) scale(0.7)"/>
     <use xlink:href="#DejaVuSans-Oblique-78" transform="translate(106.450195 0.765625)"/>
     <use xlink:href="#DejaVuSans-32" transform="translate(170.096029 39.046875) scale(0.7)"/>
     <use xlink:href="#DejaVuSans-33" transform="translate(165.629883 -26.578125) scale(0.7)"/>
    </g>
   </g>
   <g id="text_23">
    <g id="patch_12">
     <path d="M 166.829148 503.176101 
L 204.569148 503.176101 
L 204.569148 462.376101 
L 166.829148 462.376101 
z
" style="fill: #ffffff; opacity: 0.72"/>
    </g>
    <!-- $x_3^3$ -->
    <g style="fill: #d62728" transform="translate(166.829148 493.316101) scale(0.34 -0.34)">
     <use xlink:href="#DejaVuSans-Oblique-78" transform="translate(0 0.765625)"/>
     <use xlink:href="#DejaVuSans-33" transform="translate(63.645833 39.046875) scale(0.7)"/>
     <use xlink:href="#DejaVuSans-33" transform="translate(59.179688 -26.578125) scale(0.7)"/>
    </g>
   </g>
   <g id="text_24">
    <g id="patch_13">
     <path d="M 130.449148 102.689518 
L 204.569148 102.689518 
L 204.569148 62.229518 
L 130.449148 62.229518 
z
" style="fill: #ffffff; opacity: 0.72"/>
    </g>
    <!-- $x_1^3 x_3$ -->
    <g style="fill: #ff9896" transform="translate(130.449148 93.169518) scale(0.34 -0.34)">
     <use xlink:href="#DejaVuSans-Oblique-78" transform="translate(0 0.765625)"/>
     <use xlink:href="#DejaVuSans-33" transform="translate(63.645833 39.046875) scale(0.7)"/>
     <use xlink:href="#DejaVuSans-31" transform="translate(59.179688 -26.578125) scale(0.7)"/>
     <use xlink:href="#DejaVuSans-Oblique-78" transform="translate(110.916341 0.765625)"/>
     <use xlink:href="#DejaVuSans-33" transform="translate(170.096029 -15.640625) scale(0.7)"/>
    </g>
   </g>
   <g id="text_25">
    <g id="patch_14">
     <path d="M 129.089148 142.721176 
L 204.569148 142.721176 
L 204.569148 102.261176 
L 129.089148 102.261176 
z
" style="fill: #ffffff; opacity: 0.72"/>
    </g>
    <!-- $x_1^2 x_2^2$ -->
    <g style="fill: #9467bd" transform="translate(129.089148 133.201176) scale(0.34 -0.34)">
     <use xlink:href="#DejaVuSans-Oblique-78" transform="translate(0 0.765625)"/>
     <use xlink:href="#DejaVuSans-32" transform="translate(63.645833 39.046875) scale(0.7)"/>
     <use xlink:href="#DejaVuSans-31" transform="translate(59.179688 -26.578125) scale(0.7)"/>
     <use xlink:href="#DejaVuSans-Oblique-78" transform="translate(110.916341 0.765625)"/>
     <use xlink:href="#DejaVuSans-32" transform="translate(174.562174 39.046875) scale(0.7)"/>
     <use xlink:href="#DejaVuSans-32" transform="translate(170.096029 -26.578125) scale(0.7)"/>
    </g>
   </g>
   <g id="text_26">
    <g id="patch_15">
     <path d="M 129.089148 262.986151 
L 204.569148 262.986151 
L 204.569148 222.186151 
L 129.089148 222.186151 
z
" style="fill: #ffffff; opacity: 0.72"/>
    </g>
    <!-- $x_1^2 x_3^2$ -->
    <g style="fill: #9467bd" transform="translate(129.089148 253.126151) scale(0.34 -0.34)">
     <use xlink:href="#DejaVuSans-Oblique-78" transform="translate(0 0.765625)"/>
     <use xlink:href="#DejaVuSans-32" transform="translate(63.645833 39.046875) scale(0.7)"/>
     <use xlink:href="#DejaVuSans-31" transform="translate(59.179688 -26.578125) scale(0.7)"/>
     <use xlink:href="#DejaVuSans-Oblique-78" transform="translate(110.916341 0.765625)"/>
     <use xlink:href="#DejaVuSans-32" transform="translate(174.562174 39.046875) scale(0.7)"/>
     <use xlink:href="#DejaVuSans-33" transform="translate(170.096029 -26.578125) scale(0.7)"/>
    </g>
   </g>
   <g id="text_27">
    <g id="patch_16">
     <path d="M 129.089148 303.017809 
L 204.569148 303.017809 
L 204.569148 262.217809 
L 129.089148 262.217809 
z
" style="fill: #ffffff; opacity: 0.72"/>
    </g>
    <!-- $x_2^2 x_3^2$ -->
    <g style="fill: #c49c94" transform="translate(129.089148 293.157809) scale(0.34 -0.34)">
     <use xlink:href="#DejaVuSans-Oblique-78" transform="translate(0 0.765625)"/>
     <use xlink:href="#DejaVuSans-32" transform="translate(63.645833 39.046875) scale(0.7)"/>
     <use xlink:href="#DejaVuSans-32" transform="translate(59.179688 -26.578125) scale(0.7)"/>
     <use xlink:href="#DejaVuSans-Oblique-78" transform="translate(110.916341 0.765625)"/>
     <use xlink:href="#DejaVuSans-32" transform="translate(174.562174 39.046875) scale(0.7)"/>
     <use xlink:href="#DejaVuSans-33" transform="translate(170.096029 -26.578125) scale(0.7)"/>
    </g>
   </g>
   <g id="text_28">
    <!-- $\lambda^*=$0.006 -->
    <g style="fill: #7570b3" transform="translate(498.32078 45.59375) scale(0.4 -0.4)">
     <defs>
      <path id="DejaVuSans-2a" d="M 3009 3897 
L 1888 3291 
L 3009 2681 
L 2828 2375 
L 1778 3009 
L 1778 1831 
L 1422 1831 
L 1422 3009 
L 372 2375 
L 191 2681 
L 1313 3291 
L 191 3897 
L 372 4206 
L 1422 3572 
L 1422 4750 
L 1778 4750 
L 1778 3572 
L 2828 4206 
L 3009 3897 
z
" transform="scale(0.015625)"/>
      <path id="DejaVuSans-3d" d="M 678 2906 
L 4684 2906 
L 4684 2381 
L 678 2381 
L 678 2906 
z
M 678 1631 
L 4684 1631 
L 4684 1100 
L 678 1100 
L 678 1631 
z
" transform="scale(0.015625)"/>
     </defs>
     <use xlink:href="#DejaVuSans-Oblique-3bb" transform="translate(0 0.765625)"/>
     <use xlink:href="#DejaVuSans-2a" transform="translate(80.265091 39.046875) scale(0.7)"/>
     <use xlink:href="#DejaVuSans-3d" transform="translate(151.119583 0.765625)"/>
     <use xlink:href="#DejaVuSerif-30" transform="translate(254.391068 0.765625)"/>
     <use xlink:href="#DejaVuSerif-2e" transform="translate(318.014115 0.765625)"/>
     <use xlink:href="#DejaVuSerif-30" transform="translate(349.801224 0.765625)"/>
     <use xlink:href="#DejaVuSerif-30" transform="translate(413.424271 0.765625)"/>
     <use xlink:href="#DejaVuSerif-36" transform="translate(477.047318 0.765625)"/>
    </g>
   </g>
  </g>
 </g>
 <defs>
  <clipPath id="p21bb34fb3c">
   <rect x="129.225" y="7.2" width="913.72" height="510.80396"/>
  </clipPath>
 </defs>
</svg>
