<?xml version="1.0" encoding="utf-8" standalone="no"?>
<!DOCTYPE svg PUBLIC "-//W3C//DTD SVG 1.1//EN"
  "http://www.w3.org/Graphics/SVG/1.1/DTD/svg11.dtd">
<svg xmlns:xlink="http://www.w3.org/1999/xlink" width="1070.505pt" height="556.579004pt" viewBox="0 0 1070.505 556.579004" xmlns="http://www.w3.org/2000/svg" version="1.1">
 <metadata>
  <rdf:RDF xmlns:dc="http://purl.org/dc/elements/1.1/" xmlns:cc="http://creativecommons.org/ns#" xmlns:rdf="http://www.w3.org/1999/02/22-rdf-syntax-ns#">
   <cc:Work>
    <dc:type rdf:resource="http://purl.org/dc/dcmitype/StillImage"/>
    <dc:date>2026-02-22T15:40:20.066900</dc:date>
    <dc:format>image/svg+xml</dc:format>
    <dc:creator>
     <cc:Agent>
      <dc:title>Matplotlib v3.10.6, https://matplotlib.org/</dc:title>
     </cc:Agent>
    </dc:creator>
   </cc:Work>
  </rdf:RDF>
 </metadata>
 <defs>
  <style type="text/css">*{stroke-linejoin: round; stroke-linecap: butt}</style>
 </defs>
 <g id="figure_1">
  <g id="patch_1">
   <path d="M 0 556.579004 
L 1070.505 556.579004 
L 1070.505 0 
L 0 0 
L 0 556.579004 
z
" style="fill: none"/>
  </g>
  <g id="axes_1">
   <g id="patch_2">
    <path d="M 149.585 474.429004 
L 1063.305 474.429004 
L 1063.305 17.429004 
L 149.585 17.429004 
L 149.585 474.429004 
z
" style="fill: none"/>
   </g>
   <g id="matplotlib.axis_1">
    <g id="xtick_1">
     <g id="line2d_1">
      <path d="M 194.278895 474.429004 
L 194.278895 17.429004 
" clip-path="url(#p139919726e)" style="fill: none; stroke: #b0b0b0; stroke-opacity: 0.3; stroke-width: 0.8; stroke-linecap: square"/>
     </g>
     <g id="line2d_2">
      <defs>
       <path id="mf13479bba6" d="M 0 0 
L 0 3.5 
" style="stroke: #000000"/>
      </defs>
      <g>
       <use xlink:href="#mf13479bba6" x="194.278895" y="474.429004" style="stroke: #000000"/>
      </g>
     </g>
     <g id="text_1">
      <!-- −6.5 -->
      <g transform="translate(155.426395 505.744004) scale(0.32 -0.32)">
       <defs>
        <path id="DejaVuSerif-2212" d="M 678 2259 
L 4684 2259 
L 4684 1753 
L 678 1753 
L 678 2259 
z
" transform="scale(0.015625)"/>
        <path id="DejaVuSerif-36" d="M 2094 219 
Q 2534 219 2771 542 
Q 3009 866 3009 1472 
Q 3009 2078 2771 2401 
Q 2534 2725 2094 2725 
Q 1647 2725 1412 2412 
Q 1178 2100 1178 1509 
Q 1178 888 1415 553 
Q 1653 219 2094 219 
z
M 1075 2569 
Q 1288 2803 1556 2918 
Q 1825 3034 2163 3034 
Q 2859 3034 3264 2615 
Q 3669 2197 3669 1472 
Q 3669 763 3233 336 
Q 2797 -91 2069 -91 
Q 1278 -91 853 498 
Q 428 1088 428 2181 
Q 428 3406 931 4078 
Q 1434 4750 2350 4750 
Q 2597 4750 2869 4703 
Q 3141 4656 3425 4563 
L 3425 3794 
L 3072 3794 
Q 3034 4109 2831 4275 
Q 2628 4441 2284 4441 
Q 1678 4441 1381 3981 
Q 1084 3522 1075 2569 
z
" transform="scale(0.015625)"/>
        <path id="DejaVuSerif-2e" d="M 603 325 
Q 603 500 722 622 
Q 841 744 1019 744 
Q 1191 744 1312 622 
Q 1434 500 1434 325 
Q 1434 153 1312 31 
Q 1191 -91 1019 -91 
Q 841 -91 722 29 
Q 603 150 603 325 
z
" transform="scale(0.015625)"/>
        <path id="DejaVuSerif-35" d="M 3219 4666 
L 3219 4153 
L 1081 4153 
L 1081 2816 
Q 1244 2928 1461 2984 
Q 1678 3041 1947 3041 
Q 2703 3041 3140 2622 
Q 3578 2203 3578 1478 
Q 3578 738 3136 323 
Q 2694 -91 1894 -91 
Q 1572 -91 1234 -12 
Q 897 66 544 225 
L 544 1131 
L 897 1131 
Q 925 688 1179 453 
Q 1434 219 1894 219 
Q 2388 219 2653 544 
Q 2919 869 2919 1478 
Q 2919 2084 2655 2407 
Q 2391 2731 1894 2731 
Q 1613 2731 1398 2631 
Q 1184 2531 1019 2322 
L 750 2322 
L 750 4666 
L 3219 4666 
z
" transform="scale(0.015625)"/>
       </defs>
       <use xlink:href="#DejaVuSerif-2212"/>
       <use xlink:href="#DejaVuSerif-36" transform="translate(83.789062 0)"/>
       <use xlink:href="#DejaVuSerif-2e" transform="translate(147.412109 0)"/>
       <use xlink:href="#DejaVuSerif-35" transform="translate(179.199219 0)"/>
      </g>
     </g>
    </g>
    <g id="xtick_2">
     <g id="line2d_3">
      <path d="M 309.30813 474.429004 
L 309.30813 17.429004 
" clip-path="url(#p139919726e)" style="fill: none; stroke: #b0b0b0; stroke-opacity: 0.3; stroke-width: 0.8; stroke-linecap: square"/>
     </g>
     <g id="line2d_4">
      <g>
       <use xlink:href="#mf13479bba6" x="309.30813" y="474.429004" style="stroke: #000000"/>
      </g>
     </g>
     <g id="text_2">
      <!-- −6.0 -->
      <g transform="translate(270.45563 505.744004) scale(0.32 -0.32)">
       <defs>
        <path id="DejaVuSerif-30" d="M 2034 219 
Q 2513 219 2750 744 
Q 2988 1269 2988 2328 
Q 2988 3391 2750 3916 
Q 2513 4441 2034 4441 
Q 1556 4441 1318 3916 
Q 1081 3391 1081 2328 
Q 1081 1269 1318 744 
Q 1556 219 2034 219 
z
M 2034 -91 
Q 1275 -91 848 546 
Q 422 1184 422 2328 
Q 422 3475 848 4112 
Q 1275 4750 2034 4750 
Q 2797 4750 3222 4112 
Q 3647 3475 3647 2328 
Q 3647 1184 3222 546 
Q 2797 -91 2034 -91 
z
" transform="scale(0.015625)"/>
       </defs>
       <use xlink:href="#DejaVuSerif-2212"/>
       <use xlink:href="#DejaVuSerif-36" transform="translate(83.789062 0)"/>
       <use xlink:href="#DejaVuSerif-2e" transform="translate(147.412109 0)"/>
       <use xlink:href="#DejaVuSerif-30" transform="translate(179.199219 0)"/>
      </g>
     </g>
    </g>
    <g id="xtick_3">
     <g id="line2d_5">
      <path d="M 424.337364 474.429004 
L 424.337364 17.429004 
" clip-path="url(#p139919726e)" style="fill: none; stroke: #b0b0b0; stroke-opacity: 0.3; stroke-width: 0.8; stroke-linecap: square"/>
     </g>
     <g id="line2d_6">
      <g>
       <use xlink:href="#mf13479bba6" x="424.337364" y="474.429004" style="stroke: #000000"/>
      </g>
     </g>
     <g id="text_3">
      <!-- −5.5 -->
      <g transform="translate(385.484864 505.744004) scale(0.32 -0.32)">
       <use xlink:href="#DejaVuSerif-2212"/>
       <use xlink:href="#DejaVuSerif-35" transform="translate(83.789062 0)"/>
       <use xlink:href="#DejaVuSerif-2e" transform="translate(147.412109 0)"/>
       <use xlink:href="#DejaVuSerif-35" transform="translate(179.199219 0)"/>
      </g>
     </g>
    </g>
    <g id="xtick_4">
     <g id="line2d_7">
      <path d="M 539.366598 474.429004 
L 539.366598 17.429004 
" clip-path="url(#p139919726e)" style="fill: none; stroke: #b0b0b0; stroke-opacity: 0.3; stroke-width: 0.8; stroke-linecap: square"/>
     </g>
     <g id="line2d_8">
      <g>
       <use xlink:href="#mf13479bba6" x="539.366598" y="474.429004" style="stroke: #000000"/>
      </g>
     </g>
     <g id="text_4">
      <!-- −5.0 -->
      <g transform="translate(500.514098 505.744004) scale(0.32 -0.32)">
       <use xlink:href="#DejaVuSerif-2212"/>
       <use xlink:href="#DejaVuSerif-35" transform="translate(83.789062 0)"/>
       <use xlink:href="#DejaVuSerif-2e" transform="translate(147.412109 0)"/>
       <use xlink:href="#DejaVuSerif-30" transform="translate(179.199219 0)"/>
      </g>
     </g>
    </g>
    <g id="xtick_5">
     <g id="line2d_9">
      <path d="M 654.395833 474.429004 
L 654.395833 17.429004 
" clip-path="url(#p139919726e)" style="fill: none; stroke: #b0b0b0; stroke-opacity: 0.3; stroke-width: 0.8; stroke-linecap: square"/>
     </g>
     <g id="line2d_10">
      <g>
       <use xlink:href="#mf13479bba6" x="654.395833" y="474.429004" style="stroke: #000000"/>
      </g>
     </g>
     <g id="text_5">
      <!-- −4.5 -->
      <g transform="translate(615.543333 505.744004) scale(0.32 -0.32)">
       <defs>
        <path id="DejaVuSerif-34" d="M 2234 1581 
L 2234 4063 
L 641 1581 
L 2234 1581 
z
M 3609 0 
L 1484 0 
L 1484 331 
L 2234 331 
L 2234 1247 
L 197 1247 
L 197 1588 
L 2241 4750 
L 2859 4750 
L 2859 1581 
L 3750 1581 
L 3750 1247 
L 2859 1247 
L 2859 331 
L 3609 331 
L 3609 0 
z
" transform="scale(0.015625)"/>
       </defs>
       <use xlink:href="#DejaVuSerif-2212"/>
       <use xlink:href="#DejaVuSerif-34" transform="translate(83.789062 0)"/>
       <use xlink:href="#DejaVuSerif-2e" transform="translate(147.412109 0)"/>
       <use xlink:href="#DejaVuSerif-35" transform="translate(179.199219 0)"/>
      </g>
     </g>
    </g>
    <g id="xtick_6">
     <g id="line2d_11">
      <path d="M 769.425067 474.429004 
L 769.425067 17.429004 
" clip-path="url(#p139919726e)" style="fill: none; stroke: #b0b0b0; stroke-opacity: 0.3; stroke-width: 0.8; stroke-linecap: square"/>
     </g>
     <g id="line2d_12">
      <g>
       <use xlink:href="#mf13479bba6" x="769.425067" y="474.429004" style="stroke: #000000"/>
      </g>
     </g>
     <g id="text_6">
      <!-- −4.0 -->
      <g transform="translate(730.572567 505.744004) scale(0.32 -0.32)">
       <use xlink:href="#DejaVuSerif-2212"/>
       <use xlink:href="#DejaVuSerif-34" transform="translate(83.789062 0)"/>
       <use xlink:href="#DejaVuSerif-2e" transform="translate(147.412109 0)"/>
       <use xlink:href="#DejaVuSerif-30" transform="translate(179.199219 0)"/>
      </g>
     </g>
    </g>
    <g id="xtick_7">
     <g id="line2d_13">
      <path d="M 884.454301 474.429004 
L 884.454301 17.429004 
" clip-path="url(#p139919726e)" style="fill: none; stroke: #b0b0b0; stroke-opacity: 0.3; stroke-width: 0.8; stroke-linecap: square"/>
     </g>
     <g id="line2d_14">
      <g>
       <use xlink:href="#mf13479bba6" x="884.454301" y="474.429004" style="stroke: #000000"/>
      </g>
     </g>
     <g id="text_7">
      <!-- −3.5 -->
      <g transform="translate(845.601801 505.744004) scale(0.32 -0.32)">
       <defs>
        <path id="DejaVuSerif-33" d="M 622 4469 
Q 988 4606 1323 4678 
Q 1659 4750 1953 4750 
Q 2638 4750 3022 4454 
Q 3406 4159 3406 3634 
Q 3406 3213 3140 2930 
Q 2875 2647 2388 2547 
Q 2963 2466 3280 2130 
Q 3597 1794 3597 1259 
Q 3597 606 3158 257 
Q 2719 -91 1894 -91 
Q 1528 -91 1179 -12 
Q 831 66 488 225 
L 488 1131 
L 838 1131 
Q 869 681 1141 450 
Q 1413 219 1906 219 
Q 2384 219 2661 495 
Q 2938 772 2938 1253 
Q 2938 1803 2653 2086 
Q 2369 2369 1819 2369 
L 1522 2369 
L 1522 2688 
L 1678 2688 
Q 2225 2688 2498 2914 
Q 2772 3141 2772 3597 
Q 2772 4006 2547 4223 
Q 2322 4441 1900 4441 
Q 1478 4441 1245 4241 
Q 1013 4041 972 3647 
L 622 3647 
L 622 4469 
z
" transform="scale(0.015625)"/>
       </defs>
       <use xlink:href="#DejaVuSerif-2212"/>
       <use xlink:href="#DejaVuSerif-33" transform="translate(83.789062 0)"/>
       <use xlink:href="#DejaVuSerif-2e" transform="translate(147.412109 0)"/>
       <use xlink:href="#DejaVuSerif-35" transform="translate(179.199219 0)"/>
      </g>
     </g>
    </g>
    <g id="xtick_8">
     <g id="line2d_15">
      <path d="M 999.483536 474.429004 
L 999.483536 17.429004 
" clip-path="url(#p139919726e)" style="fill: none; stroke: #b0b0b0; stroke-opacity: 0.3; stroke-width: 0.8; stroke-linecap: square"/>
     </g>
     <g id="line2d_16">
      <g>
       <use xlink:href="#mf13479bba6" x="999.483536" y="474.429004" style="stroke: #000000"/>
      </g>
     </g>
     <g id="text_8">
      <!-- −3.0 -->
      <g transform="translate(960.631036 505.744004) scale(0.32 -0.32)">
       <use xlink:href="#DejaVuSerif-2212"/>
       <use xlink:href="#DejaVuSerif-33" transform="translate(83.789062 0)"/>
       <use xlink:href="#DejaVuSerif-2e" transform="translate(147.412109 0)"/>
       <use xlink:href="#DejaVuSerif-30" transform="translate(179.199219 0)"/>
      </g>
     </g>
    </g>
    <g id="text_9">
     <!-- $\log(\lambda)$ -->
     <g transform="translate(557.145 542.239004) scale(0.34 -0.34)">
      <defs>
       <path id="DejaVuSans-6c" d="M 603 4863 
L 1178 4863 
L 1178 0 
L 603 0 
L 603 4863 
z
" transform="scale(0.015625)"/>
       <path id="DejaVuSans-6f" d="M 1959 3097 
Q 1497 3097 1228 2736 
Q 959 2375 959 1747 
Q 959 1119 1226 758 
Q 1494 397 1959 397 
Q 2419 397 2687 759 
Q 2956 1122 2956 1747 
Q 2956 2369 2687 2733 
Q 2419 3097 1959 3097 
z
M 1959 3584 
Q 2709 3584 3137 3096 
Q 3566 2609 3566 1747 
Q 3566 888 3137 398 
Q 2709 -91 1959 -91 
Q 1206 -91 779 398 
Q 353 888 353 1747 
Q 353 2609 779 3096 
Q 1206 3584 1959 3584 
z
" transform="scale(0.015625)"/>
       <path id="DejaVuSans-67" d="M 2906 1791 
Q 2906 2416 2648 2759 
Q 2391 3103 1925 3103 
Q 1463 3103 1205 2759 
Q 947 2416 947 1791 
Q 947 1169 1205 825 
Q 1463 481 1925 481 
Q 2391 481 2648 825 
Q 2906 1169 2906 1791 
z
M 3481 434 
Q 3481 -459 3084 -895 
Q 2688 -1331 1869 -1331 
Q 1566 -1331 1297 -1286 
Q 1028 -1241 775 -1147 
L 775 -588 
Q 1028 -725 1275 -790 
Q 1522 -856 1778 -856 
Q 2344 -856 2625 -561 
Q 2906 -266 2906 331 
L 2906 616 
Q 2728 306 2450 153 
Q 2172 0 1784 0 
Q 1141 0 747 490 
Q 353 981 353 1791 
Q 353 2603 747 3093 
Q 1141 3584 1784 3584 
Q 2172 3584 2450 3431 
Q 2728 3278 2906 2969 
L 2906 3500 
L 3481 3500 
L 3481 434 
z
" transform="scale(0.015625)"/>
       <path id="DejaVuSans-28" d="M 1984 4856 
Q 1566 4138 1362 3434 
Q 1159 2731 1159 2009 
Q 1159 1288 1364 580 
Q 1569 -128 1984 -844 
L 1484 -844 
Q 1016 -109 783 600 
Q 550 1309 550 2009 
Q 550 2706 781 3412 
Q 1013 4119 1484 4856 
L 1984 4856 
z
" transform="scale(0.015625)"/>
       <path id="DejaVuSans-Oblique-3bb" d="M 2350 4316 
L 3125 0 
L 2516 0 
L 2038 2588 
L 328 0 
L -281 0 
L 1903 3356 
L 1794 3975 
Q 1725 4369 1391 4369 
L 1091 4369 
L 1184 4863 
L 1550 4856 
Q 2253 4847 2350 4316 
z
" transform="scale(0.015625)"/>
       <path id="DejaVuSans-29" d="M 513 4856 
L 1013 4856 
Q 1481 4119 1714 3412 
Q 1947 2706 1947 2009 
Q 1947 1309 1714 600 
Q 1481 -109 1013 -844 
L 513 -844 
Q 928 -128 1133 580 
Q 1338 1288 1338 2009 
Q 1338 2731 1133 3434 
Q 928 4138 513 4856 
z
" transform="scale(0.015625)"/>
      </defs>
      <use xlink:href="#DejaVuSans-6c" transform="translate(0 0.015625)"/>
      <use xlink:href="#DejaVuSans-6f" transform="translate(27.783203 0.015625)"/>
      <use xlink:href="#DejaVuSans-67" transform="translate(88.964844 0.015625)"/>
      <use xlink:href="#DejaVuSans-28" transform="translate(152.441406 0.015625)"/>
      <use xlink:href="#DejaVuSans-Oblique-3bb" transform="translate(191.455078 0.015625)"/>
      <use xlink:href="#DejaVuSans-29" transform="translate(250.634766 0.015625)"/>
     </g>
    </g>
   </g>
   <g id="matplotlib.axis_2">
    <g id="ytick_1">
     <g id="line2d_17">
      <path d="M 149.585 439.77572 
L 1063.305 439.77572 
" clip-path="url(#p139919726e)" style="fill: none; stroke: #b0b0b0; stroke-opacity: 0.3; stroke-width: 0.8; stroke-linecap: square"/>
     </g>
     <g id="line2d_18">
      <defs>
       <path id="m59aefed3a5" d="M 0 0 
L -3.5 0 
" style="stroke: #000000"/>
      </defs>
      <g>
       <use xlink:href="#m59aefed3a5" x="149.585" y="439.77572" style="stroke: #000000"/>
      </g>
     </g>
     <g id="text_10">
      <!-- −0.75 -->
      <g transform="translate(44.52 451.93322) scale(0.32 -0.32)">
       <defs>
        <path id="DejaVuSerif-37" d="M 3609 4347 
L 1784 0 
L 1319 0 
L 3059 4153 
L 903 4153 
L 903 3578 
L 538 3578 
L 538 4666 
L 3609 4666 
L 3609 4347 
z
" transform="scale(0.015625)"/>
       </defs>
       <use xlink:href="#DejaVuSerif-2212"/>
       <use xlink:href="#DejaVuSerif-30" transform="translate(83.789062 0)"/>
       <use xlink:href="#DejaVuSerif-2e" transform="translate(147.412109 0)"/>
       <use xlink:href="#DejaVuSerif-37" transform="translate(179.199219 0)"/>
       <use xlink:href="#DejaVuSerif-35" transform="translate(242.822266 0)"/>
      </g>
     </g>
    </g>
    <g id="ytick_2">
     <g id="line2d_19">
      <path d="M 149.585 369.706016 
L 1063.305 369.706016 
" clip-path="url(#p139919726e)" style="fill: none; stroke: #b0b0b0; stroke-opacity: 0.3; stroke-width: 0.8; stroke-linecap: square"/>
     </g>
     <g id="line2d_20">
      <g>
       <use xlink:href="#m59aefed3a5" x="149.585" y="369.706016" style="stroke: #000000"/>
      </g>
     </g>
     <g id="text_11">
      <!-- −0.50 -->
      <g transform="translate(44.52 381.863516) scale(0.32 -0.32)">
       <use xlink:href="#DejaVuSerif-2212"/>
       <use xlink:href="#DejaVuSerif-30" transform="translate(83.789062 0)"/>
       <use xlink:href="#DejaVuSerif-2e" transform="translate(147.412109 0)"/>
       <use xlink:href="#DejaVuSerif-35" transform="translate(179.199219 0)"/>
       <use xlink:href="#DejaVuSerif-30" transform="translate(242.822266 0)"/>
      </g>
     </g>
    </g>
    <g id="ytick_3">
     <g id="line2d_21">
      <path d="M 149.585 299.636313 
L 1063.305 299.636313 
" clip-path="url(#p139919726e)" style="fill: none; stroke: #b0b0b0; stroke-opacity: 0.3; stroke-width: 0.8; stroke-linecap: square"/>
     </g>
     <g id="line2d_22">
      <g>
       <use xlink:href="#m59aefed3a5" x="149.585" y="299.636313" style="stroke: #000000"/>
      </g>
     </g>
     <g id="text_12">
      <!-- −0.25 -->
      <g transform="translate(44.52 311.793813) scale(0.32 -0.32)">
       <defs>
        <path id="DejaVuSerif-32" d="M 819 3553 
L 469 3553 
L 469 4384 
Q 803 4563 1142 4656 
Q 1481 4750 1806 4750 
Q 2534 4750 2956 4397 
Q 3378 4044 3378 3438 
Q 3378 2753 2422 1800 
Q 2347 1728 2309 1691 
L 1131 513 
L 3078 513 
L 3078 1088 
L 3444 1088 
L 3444 0 
L 434 0 
L 434 341 
L 1850 1753 
Q 2319 2222 2519 2614 
Q 2719 3006 2719 3438 
Q 2719 3909 2473 4175 
Q 2228 4441 1797 4441 
Q 1350 4441 1106 4219 
Q 863 3997 819 3553 
z
" transform="scale(0.015625)"/>
       </defs>
       <use xlink:href="#DejaVuSerif-2212"/>
       <use xlink:href="#DejaVuSerif-30" transform="translate(83.789062 0)"/>
       <use xlink:href="#DejaVuSerif-2e" transform="translate(147.412109 0)"/>
       <use xlink:href="#DejaVuSerif-32" transform="translate(179.199219 0)"/>
       <use xlink:href="#DejaVuSerif-35" transform="translate(242.822266 0)"/>
      </g>
     </g>
    </g>
    <g id="ytick_4">
     <g id="line2d_23">
      <path d="M 149.585 229.56661 
L 1063.305 229.56661 
" clip-path="url(#p139919726e)" style="fill: none; stroke: #b0b0b0; stroke-opacity: 0.3; stroke-width: 0.8; stroke-linecap: square"/>
     </g>
     <g id="line2d_24">
      <g>
       <use xlink:href="#m59aefed3a5" x="149.585" y="229.56661" style="stroke: #000000"/>
      </g>
     </g>
     <g id="text_13">
      <!-- 0.00 -->
      <g transform="translate(71.335 241.72411) scale(0.32 -0.32)">
       <use xlink:href="#DejaVuSerif-30"/>
       <use xlink:href="#DejaVuSerif-2e" transform="translate(63.623047 0)"/>
       <use xlink:href="#DejaVuSerif-30" transform="translate(95.410156 0)"/>
       <use xlink:href="#DejaVuSerif-30" transform="translate(159.033203 0)"/>
      </g>
     </g>
    </g>
    <g id="ytick_5">
     <g id="line2d_25">
      <path d="M 149.585 159.496907 
L 1063.305 159.496907 
" clip-path="url(#p139919726e)" style="fill: none; stroke: #b0b0b0; stroke-opacity: 0.3; stroke-width: 0.8; stroke-linecap: square"/>
     </g>
     <g id="line2d_26">
      <g>
       <use xlink:href="#m59aefed3a5" x="149.585" y="159.496907" style="stroke: #000000"/>
      </g>
     </g>
     <g id="text_14">
      <!-- 0.25 -->
      <g transform="translate(71.335 171.654407) scale(0.32 -0.32)">
       <use xlink:href="#DejaVuSerif-30"/>
       <use xlink:href="#DejaVuSerif-2e" transform="translate(63.623047 0)"/>
       <use xlink:href="#DejaVuSerif-32" transform="translate(95.410156 0)"/>
       <use xlink:href="#DejaVuSerif-35" transform="translate(159.033203 0)"/>
      </g>
     </g>
    </g>
    <g id="ytick_6">
     <g id="line2d_27">
      <path d="M 149.585 89.427203 
L 1063.305 89.427203 
" clip-path="url(#p139919726e)" style="fill: none; stroke: #b0b0b0; stroke-opacity: 0.3; stroke-width: 0.8; stroke-linecap: square"/>
     </g>
     <g id="line2d_28">
      <g>
       <use xlink:href="#m59aefed3a5" x="149.585" y="89.427203" style="stroke: #000000"/>
      </g>
     </g>
     <g id="text_15">
      <!-- 0.50 -->
      <g transform="translate(71.335 101.584703) scale(0.32 -0.32)">
       <use xlink:href="#DejaVuSerif-30"/>
       <use xlink:href="#DejaVuSerif-2e" transform="translate(63.623047 0)"/>
       <use xlink:href="#DejaVuSerif-35" transform="translate(95.410156 0)"/>
       <use xlink:href="#DejaVuSerif-30" transform="translate(159.033203 0)"/>
      </g>
     </g>
    </g>
    <g id="ytick_7">
     <g id="line2d_29">
      <path d="M 149.585 19.3575 
L 1063.305 19.3575 
" clip-path="url(#p139919726e)" style="fill: none; stroke: #b0b0b0; stroke-opacity: 0.3; stroke-width: 0.8; stroke-linecap: square"/>
     </g>
     <g id="line2d_30">
      <g>
       <use xlink:href="#m59aefed3a5" x="149.585" y="19.3575" style="stroke: #000000"/>
      </g>
     </g>
     <g id="text_16">
      <!-- 0.75 -->
      <g transform="translate(71.335 31.515) scale(0.32 -0.32)">
       <use xlink:href="#DejaVuSerif-30"/>
       <use xlink:href="#DejaVuSerif-2e" transform="translate(63.623047 0)"/>
       <use xlink:href="#DejaVuSerif-37" transform="translate(95.410156 0)"/>
       <use xlink:href="#DejaVuSerif-35" transform="translate(159.033203 0)"/>
      </g>
     </g>
    </g>
    <g id="text_17">
     <!-- $\beta$ -->
     <g transform="translate(33.38 256.809004) rotate(-90) scale(0.34 -0.34)">
      <defs>
       <path id="DejaVuSans-Oblique-3b2" d="M 872 216 
L 572 -1331 
L -6 -1331 
L 928 3478 
Q 1206 4903 2538 4903 
Q 3888 4903 3659 3700 
Q 3503 2844 2894 2531 
Q 3713 2250 3553 1416 
Q 3272 -69 1759 -66 
Q 1097 -63 872 216 
z
M 1019 966 
Q 1259 422 1875 425 
Q 2775 425 2966 1406 
Q 3138 2288 1675 2219 
L 1778 2750 
Q 2909 2731 3106 3750 
Q 3241 4438 2509 4434 
Q 1691 4434 1503 3459 
L 1019 966 
z
" transform="scale(0.015625)"/>
      </defs>
      <use xlink:href="#DejaVuSans-Oblique-3b2" transform="translate(0 0.390625)"/>
     </g>
    </g>
   </g>
   <g id="line2d_31">
    <path d="M 1063.305 229.56661 
L 1061.05471 229.56661 
L 1058.782192 229.56661 
L 1056.487001 229.56661 
L 1054.168681 229.56661 
L 1051.826762 229.56661 
L 1049.460757 229.56661 
L 1047.070166 229.56661 
L 1044.654473 229.56661 
L 1042.213145 229.56661 
L 1039.745632 229.56661 
L 1037.251366 229.56661 
L 1034.729761 229.56661 
L 1032.180211 229.56661 
L 1029.602089 229.56661 
L 1026.994748 229.56661 
L 1024.357519 229.56661 
L 1021.689706 229.56661 
L 1018.990594 229.56661 
L 1016.259439 229.56661 
L 1013.495471 229.56661 
L 1010.697892 229.56661 
L 1007.865874 229.56661 
L 1004.998559 229.56661 
L 1002.095056 229.56661 
L 999.15444 229.56661 
L 996.17575 229.56661 
L 993.157986 229.56661 
L 990.100111 229.56661 
L 987.001042 229.56661 
L 983.859657 229.56661 
L 980.674782 229.56661 
L 977.445197 229.56661 
L 974.169628 229.56661 
L 970.846747 229.56661 
L 967.475168 229.56661 
L 964.053441 229.56661 
L 960.580052 229.56661 
L 957.053418 229.56661 
L 953.471881 229.56661 
L 949.833703 229.56661 
L 946.137064 229.56661 
L 942.380056 229.56661 
L 938.560674 229.56661 
L 934.676811 229.56661 
L 930.726252 229.56661 
L 926.706668 229.56661 
L 922.615603 229.56661 
L 918.450468 229.56661 
L 914.208532 229.56661 
L 909.88691 229.56661 
L 905.48255 229.56661 
L 900.992222 229.56661 
L 896.412503 229.56661 
L 891.739762 229.56661 
L 886.970141 229.56661 
L 882.099538 229.56661 
L 877.123584 229.56661 
L 872.037622 229.56661 
L 866.836676 229.56661 
L 861.515426 229.56661 
L 856.068177 229.56661 
L 850.488814 229.56661 
L 844.770771 229.56661 
L 838.906978 229.56661 
L 832.889808 229.56661 
L 826.711024 229.56661 
L 820.361702 229.56661 
L 813.832161 229.56661 
L 807.111871 229.56661 
L 800.189351 229.56661 
L 793.052051 229.56661 
L 785.686216 229.56661 
L 778.076724 229.56661 
L 770.206903 229.56661 
L 762.058307 229.56661 
L 753.610459 229.56661 
L 744.840538 229.56661 
L 735.723009 229.56661 
L 726.229176 229.56661 
L 716.326633 229.56661 
L 705.978602 229.56661 
L 695.143104 229.56661 
L 683.771933 229.56661 
L 671.809357 229.56661 
L 659.190469 229.56661 
L 645.83905 229.56661 
L 631.664784 229.56661 
L 616.559547 229.435865 
L 600.392395 227.210502 
L 583.002654 224.493059 
L 564.190175 221.737735 
L 543.701246 211.689486 
L 521.207586 198.696109 
L 496.273915 185.679476 
L 468.305731 172.662295 
L 436.460721 159.645102 
L 399.488466 146.627908 
L 355.41507 133.610714 
L 300.848443 119.105915 
" clip-path="url(#p139919726e)" style="fill: none; stroke: #1f77b4; stroke-opacity: 0.9; stroke-width: 2; stroke-linecap: square"/>
   </g>
   <g id="line2d_32">
    <path d="M 1063.305 367.954444 
L 1061.05471 368.199623 
L 1058.782192 368.444801 
L 1056.487001 368.68998 
L 1054.168681 368.935158 
L 1051.826762 369.180337 
L 1049.460757 369.425516 
L 1047.070166 369.670694 
L 1044.654473 369.915873 
L 1042.213145 370.161051 
L 1039.745632 370.40623 
L 1037.251366 370.651409 
L 1034.729761 370.896587 
L 1032.180211 371.141766 
L 1029.602089 371.386944 
L 1026.994748 371.632123 
L 1024.357519 371.877302 
L 1021.689706 372.12248 
L 1018.990594 372.367659 
L 1016.259439 372.612837 
L 1013.495471 372.858016 
L 1010.697892 373.103195 
L 1007.865874 373.348373 
L 1004.998559 373.593552 
L 1002.095056 373.83873 
L 999.15444 374.083909 
L 996.17575 374.329088 
L 993.157986 374.574266 
L 990.100111 374.819445 
L 987.001042 375.064623 
L 983.859657 375.309802 
L 980.674782 375.554981 
L 977.445197 375.800159 
L 974.169628 376.045338 
L 970.846747 376.290516 
L 967.475168 376.535695 
L 964.053441 376.780874 
L 960.580052 377.026052 
L 957.053418 377.271231 
L 953.471881 377.516409 
L 949.833703 377.761588 
L 946.137064 378.006767 
L 942.380056 378.251945 
L 938.560674 378.497124 
L 934.676811 378.742302 
L 930.726252 378.987481 
L 926.706668 379.23266 
L 922.615603 379.477838 
L 918.450468 379.723017 
L 914.208532 379.968195 
L 909.88691 380.213374 
L 905.48255 380.458553 
L 900.992222 380.703731 
L 896.412503 380.94891 
L 891.739762 381.194088 
L 886.970141 381.439267 
L 882.099538 381.684446 
L 877.123584 381.929624 
L 872.037622 382.174803 
L 866.836676 382.419981 
L 861.515426 382.66516 
L 856.068177 382.910339 
L 850.488814 383.155517 
L 844.770771 383.400696 
L 838.906978 383.645874 
L 832.889808 383.891053 
L 826.711024 384.136232 
L 820.361702 384.38141 
L 813.832161 384.626589 
L 807.111871 384.871767 
L 800.189351 385.116946 
L 793.052051 385.362125 
L 785.686216 385.607303 
L 778.076724 385.852482 
L 770.206903 386.09766 
L 762.058307 386.342839 
L 753.610459 386.588018 
L 744.840538 386.833196 
L 735.723009 387.078375 
L 726.229176 387.323553 
L 716.326633 387.568732 
L 705.978602 387.813911 
L 695.143104 388.059089 
L 683.771933 388.304268 
L 671.809357 388.583238 
L 659.190469 388.887005 
L 645.83905 389.191018 
L 631.664784 389.495031 
L 616.559547 389.802146 
L 600.392395 388.889997 
L 583.002654 387.341338 
L 564.190175 386.048423 
L 543.701246 386.23865 
L 521.207586 386.751228 
L 496.273915 387.266089 
L 468.305731 387.781037 
L 436.460721 388.295988 
L 399.488466 388.810938 
L 355.41507 389.325889 
L 300.848443 388.252796 
" clip-path="url(#p139919726e)" style="fill: none; stroke: #aec7e8; stroke-opacity: 0.9; stroke-width: 2; stroke-linecap: square"/>
   </g>
   <g id="line2d_33">
    <path d="M 1063.305 357.155615 
L 1061.05471 357.393045 
L 1058.782192 357.630476 
L 1056.487001 357.867906 
L 1054.168681 358.105337 
L 1051.826762 358.342767 
L 1049.460757 358.580198 
L 1047.070166 358.817628 
L 1044.654473 359.055059 
L 1042.213145 359.292489 
L 1039.745632 359.529919 
L 1037.251366 359.76735 
L 1034.729761 360.00478 
L 1032.180211 360.242211 
L 1029.602089 360.479641 
L 1026.994748 360.717072 
L 1024.357519 360.954502 
L 1021.689706 361.191933 
L 1018.990594 361.429363 
L 1016.259439 361.666793 
L 1013.495471 361.904224 
L 1010.697892 362.141654 
L 1007.865874 362.379085 
L 1004.998559 362.616515 
L 1002.095056 362.853946 
L 999.15444 363.091376 
L 996.17575 363.328807 
L 993.157986 363.566237 
L 990.100111 363.803668 
L 987.001042 364.041098 
L 983.859657 364.278528 
L 980.674782 364.515959 
L 977.445197 364.753389 
L 974.169628 364.99082 
L 970.846747 365.22825 
L 967.475168 365.465681 
L 964.053441 365.703111 
L 960.580052 365.940542 
L 957.053418 366.177972 
L 953.471881 366.415403 
L 949.833703 366.652833 
L 946.137064 366.890263 
L 942.380056 367.127694 
L 938.560674 367.365124 
L 934.676811 367.602555 
L 930.726252 367.839985 
L 926.706668 368.077416 
L 922.615603 368.314846 
L 918.450468 368.552277 
L 914.208532 368.789707 
L 909.88691 369.027138 
L 905.48255 369.264568 
L 900.992222 369.501998 
L 896.412503 369.739429 
L 891.739762 369.976859 
L 886.970141 370.21429 
L 882.099538 370.45172 
L 877.123584 370.689151 
L 872.037622 370.926581 
L 866.836676 371.164012 
L 861.515426 371.401442 
L 856.068177 371.638872 
L 850.488814 371.876303 
L 844.770771 372.113733 
L 838.906978 372.351164 
L 832.889808 372.588594 
L 826.711024 372.826025 
L 820.361702 373.063455 
L 813.832161 373.300886 
L 807.111871 373.538316 
L 800.189351 373.775747 
L 793.052051 374.013177 
L 785.686216 374.250607 
L 778.076724 374.488038 
L 770.206903 374.725468 
L 762.058307 374.962899 
L 753.610459 375.200329 
L 744.840538 375.43776 
L 735.723009 375.67519 
L 726.229176 375.912621 
L 716.326633 376.150051 
L 705.978602 376.387482 
L 695.143104 376.624912 
L 683.771933 376.862342 
L 671.809357 376.709912 
L 659.190469 376.273104 
L 645.83905 375.834696 
L 631.664784 375.396287 
L 616.559547 374.929739 
L 600.392395 374.13307 
L 583.002654 373.359834 
L 564.190175 372.827719 
L 543.701246 373.150823 
L 521.207586 373.507684 
L 496.273915 373.861059 
L 468.305731 374.214368 
L 436.460721 374.567676 
L 399.488466 374.920984 
L 355.41507 375.274291 
L 300.848443 375.656377 
" clip-path="url(#p139919726e)" style="fill: none; stroke: #ff7f0e; stroke-opacity: 0.9; stroke-width: 2; stroke-linecap: square"/>
   </g>
   <g id="line2d_34">
    <path d="M 1063.305 229.56661 
L 1061.05471 229.56661 
L 1058.782192 229.56661 
L 1056.487001 229.56661 
L 1054.168681 229.56661 
L 1051.826762 229.56661 
L 1049.460757 229.56661 
L 1047.070166 229.56661 
L 1044.654473 229.56661 
L 1042.213145 229.56661 
L 1039.745632 229.56661 
L 1037.251366 229.56661 
L 1034.729761 229.56661 
L 1032.180211 229.56661 
L 1029.602089 229.56661 
L 1026.994748 229.56661 
L 1024.357519 229.56661 
L 1021.689706 229.56661 
L 1018.990594 229.56661 
L 1016.259439 229.56661 
L 1013.495471 229.56661 
L 1010.697892 229.56661 
L 1007.865874 229.56661 
L 1004.998559 229.56661 
L 1002.095056 229.56661 
L 999.15444 229.56661 
L 996.17575 229.56661 
L 993.157986 229.56661 
L 990.100111 229.56661 
L 987.001042 229.56661 
L 983.859657 229.56661 
L 980.674782 229.56661 
L 977.445197 229.56661 
L 974.169628 229.56661 
L 970.846747 229.56661 
L 967.475168 229.56661 
L 964.053441 229.56661 
L 960.580052 229.56661 
L 957.053418 229.56661 
L 953.471881 229.56661 
L 949.833703 229.56661 
L 946.137064 229.56661 
L 942.380056 229.56661 
L 938.560674 229.56661 
L 934.676811 229.56661 
L 930.726252 229.56661 
L 926.706668 229.56661 
L 922.615603 229.56661 
L 918.450468 229.56661 
L 914.208532 229.56661 
L 909.88691 229.56661 
L 905.48255 229.56661 
L 900.992222 229.56661 
L 896.412503 229.56661 
L 891.739762 229.56661 
L 886.970141 229.56661 
L 882.099538 229.56661 
L 877.123584 229.56661 
L 872.037622 229.56661 
L 866.836676 229.56661 
L 861.515426 229.56661 
L 856.068177 229.56661 
L 850.488814 229.56661 
L 844.770771 229.56661 
L 838.906978 229.56661 
L 832.889808 229.56661 
L 826.711024 229.56661 
L 820.361702 229.56661 
L 813.832161 229.56661 
L 807.111871 229.56661 
L 800.189351 229.56661 
L 793.052051 229.56661 
L 785.686216 229.56661 
L 778.076724 229.56661 
L 770.206903 229.56661 
L 762.058307 229.56661 
L 753.610459 229.56661 
L 744.840538 229.56661 
L 735.723009 229.56661 
L 726.229176 229.56661 
L 716.326633 229.56661 
L 705.978602 229.56661 
L 695.143104 229.56661 
L 683.771933 229.56661 
L 671.809357 229.56661 
L 659.190469 229.56661 
L 645.83905 229.56661 
L 631.664784 229.56661 
L 616.559547 229.56661 
L 600.392395 229.56661 
L 583.002654 229.56661 
L 564.190175 229.56661 
L 543.701246 238.682802 
L 521.207586 251.309792 
L 496.273915 263.961304 
L 468.305731 276.61341 
L 436.460721 289.265531 
L 399.488466 301.917652 
L 355.41507 314.569773 
L 300.848443 328.867095 
" clip-path="url(#p139919726e)" style="fill: none; stroke: #d62728; stroke-opacity: 0.9; stroke-width: 2; stroke-linecap: square"/>
   </g>
   <g id="line2d_35">
    <path d="M 1063.305 229.56661 
L 1061.05471 229.56661 
L 1058.782192 229.56661 
L 1056.487001 229.56661 
L 1054.168681 229.56661 
L 1051.826762 229.56661 
L 1049.460757 229.56661 
L 1047.070166 229.56661 
L 1044.654473 229.56661 
L 1042.213145 229.56661 
L 1039.745632 229.56661 
L 1037.251366 229.56661 
L 1034.729761 229.56661 
L 1032.180211 229.56661 
L 1029.602089 229.56661 
L 1026.994748 229.56661 
L 1024.357519 229.56661 
L 1021.689706 229.56661 
L 1018.990594 229.56661 
L 1016.259439 229.56661 
L 1013.495471 229.56661 
L 1010.697892 229.56661 
L 1007.865874 229.56661 
L 1004.998559 229.56661 
L 1002.095056 229.56661 
L 999.15444 229.56661 
L 996.17575 229.56661 
L 993.157986 229.56661 
L 990.100111 229.56661 
L 987.001042 229.56661 
L 983.859657 229.56661 
L 980.674782 229.56661 
L 977.445197 229.56661 
L 974.169628 229.56661 
L 970.846747 229.56661 
L 967.475168 229.56661 
L 964.053441 229.56661 
L 960.580052 229.56661 
L 957.053418 229.56661 
L 953.471881 229.56661 
L 949.833703 229.56661 
L 946.137064 229.56661 
L 942.380056 229.56661 
L 938.560674 229.56661 
L 934.676811 229.56661 
L 930.726252 229.56661 
L 926.706668 229.56661 
L 922.615603 229.56661 
L 918.450468 229.56661 
L 914.208532 229.56661 
L 909.88691 229.56661 
L 905.48255 229.56661 
L 900.992222 229.56661 
L 896.412503 229.56661 
L 891.739762 229.56661 
L 886.970141 229.56661 
L 882.099538 229.56661 
L 877.123584 229.56661 
L 872.037622 229.56661 
L 866.836676 229.56661 
L 861.515426 229.56661 
L 856.068177 229.56661 
L 850.488814 229.56661 
L 844.770771 229.56661 
L 838.906978 229.56661 
L 832.889808 229.56661 
L 826.711024 229.56661 
L 820.361702 229.56661 
L 813.832161 229.56661 
L 807.111871 229.56661 
L 800.189351 229.56661 
L 793.052051 229.56661 
L 785.686216 229.56661 
L 778.076724 229.56661 
L 770.206903 229.56661 
L 762.058307 229.56661 
L 753.610459 229.56661 
L 744.840538 229.56661 
L 735.723009 229.56661 
L 726.229176 229.56661 
L 716.326633 229.56661 
L 705.978602 229.56661 
L 695.143104 229.56661 
L 683.771933 229.56661 
L 671.809357 229.56661 
L 659.190469 229.56661 
L 645.83905 229.56661 
L 631.664784 229.56661 
L 616.559547 229.56661 
L 600.392395 229.56661 
L 583.002654 229.56661 
L 564.190175 229.56661 
L 543.701246 229.56661 
L 521.207586 229.56661 
L 496.273915 229.56661 
L 468.305731 229.56661 
L 436.460721 229.56661 
L 399.488466 229.56661 
L 355.41507 229.56661 
L 300.848443 227.217248 
" clip-path="url(#p139919726e)" style="fill: none; stroke: #ff9896; stroke-opacity: 0.9; stroke-width: 2; stroke-linecap: square"/>
   </g>
   <g id="line2d_36">
    <path d="M 1063.305 229.56661 
L 1061.05471 229.56661 
L 1058.782192 229.56661 
L 1056.487001 229.56661 
L 1054.168681 229.56661 
L 1051.826762 229.56661 
L 1049.460757 229.56661 
L 1047.070166 229.56661 
L 1044.654473 229.56661 
L 1042.213145 229.56661 
L 1039.745632 229.56661 
L 1037.251366 229.56661 
L 1034.729761 229.56661 
L 1032.180211 229.56661 
L 1029.602089 229.56661 
L 1026.994748 229.56661 
L 1024.357519 229.56661 
L 1021.689706 229.56661 
L 1018.990594 229.56661 
L 1016.259439 229.56661 
L 1013.495471 229.56661 
L 1010.697892 229.56661 
L 1007.865874 229.56661 
L 1004.998559 229.56661 
L 1002.095056 229.56661 
L 999.15444 229.56661 
L 996.17575 229.56661 
L 993.157986 229.56661 
L 990.100111 229.56661 
L 987.001042 229.56661 
L 983.859657 229.56661 
L 980.674782 229.56661 
L 977.445197 229.56661 
L 974.169628 229.56661 
L 970.846747 229.56661 
L 967.475168 229.56661 
L 964.053441 229.56661 
L 960.580052 229.56661 
L 957.053418 229.56661 
L 953.471881 229.56661 
L 949.833703 229.56661 
L 946.137064 229.56661 
L 942.380056 229.56661 
L 938.560674 229.56661 
L 934.676811 229.56661 
L 930.726252 229.56661 
L 926.706668 229.56661 
L 922.615603 229.56661 
L 918.450468 229.56661 
L 914.208532 229.56661 
L 909.88691 229.56661 
L 905.48255 229.56661 
L 900.992222 229.56661 
L 896.412503 229.56661 
L 891.739762 229.56661 
L 886.970141 229.56661 
L 882.099538 229.56661 
L 877.123584 229.56661 
L 872.037622 229.56661 
L 866.836676 229.56661 
L 861.515426 229.56661 
L 856.068177 229.56661 
L 850.488814 229.56661 
L 844.770771 229.56661 
L 838.906978 229.56661 
L 832.889808 229.56661 
L 826.711024 229.56661 
L 820.361702 229.56661 
L 813.832161 229.56661 
L 807.111871 229.56661 
L 800.189351 229.56661 
L 793.052051 229.56661 
L 785.686216 229.56661 
L 778.076724 229.56661 
L 770.206903 229.56661 
L 762.058307 229.56661 
L 753.610459 229.56661 
L 744.840538 229.56661 
L 735.723009 229.56661 
L 726.229176 229.56661 
L 716.326633 229.56661 
L 705.978602 229.56661 
L 695.143104 229.56661 
L 683.771933 229.56661 
L 671.809357 229.56661 
L 659.190469 229.56661 
L 645.83905 229.56661 
L 631.664784 229.56661 
L 616.559547 229.56661 
L 600.392395 229.56661 
L 583.002654 229.56661 
L 564.190175 228.996196 
L 543.701246 228.578796 
L 521.207586 228.56356 
L 496.273915 228.552475 
L 468.305731 228.541474 
L 436.460721 228.530475 
L 399.488466 228.519477 
L 355.41507 228.508478 
L 300.848443 228.784104 
" clip-path="url(#p139919726e)" style="fill: none; stroke: #9467bd; stroke-opacity: 0.9; stroke-width: 2; stroke-linecap: square"/>
   </g>
   <g id="line2d_37">
    <path d="M 1063.305 229.56661 
L 1061.05471 229.56661 
L 1058.782192 229.56661 
L 1056.487001 229.56661 
L 1054.168681 229.56661 
L 1051.826762 229.56661 
L 1049.460757 229.56661 
L 1047.070166 229.56661 
L 1044.654473 229.56661 
L 1042.213145 229.56661 
L 1039.745632 229.56661 
L 1037.251366 229.56661 
L 1034.729761 229.56661 
L 1032.180211 229.56661 
L 1029.602089 229.56661 
L 1026.994748 229.56661 
L 1024.357519 229.56661 
L 1021.689706 229.56661 
L 1018.990594 229.56661 
L 1016.259439 229.56661 
L 1013.495471 229.56661 
L 1010.697892 229.56661 
L 1007.865874 229.56661 
L 1004.998559 229.56661 
L 1002.095056 229.56661 
L 999.15444 229.56661 
L 996.17575 229.56661 
L 993.157986 229.56661 
L 990.100111 229.56661 
L 987.001042 229.56661 
L 983.859657 229.56661 
L 980.674782 229.56661 
L 977.445197 229.56661 
L 974.169628 229.56661 
L 970.846747 229.56661 
L 967.475168 229.56661 
L 964.053441 229.56661 
L 960.580052 229.56661 
L 957.053418 229.56661 
L 953.471881 229.56661 
L 949.833703 229.56661 
L 946.137064 229.56661 
L 942.380056 229.56661 
L 938.560674 229.56661 
L 934.676811 229.56661 
L 930.726252 229.56661 
L 926.706668 229.56661 
L 922.615603 229.56661 
L 918.450468 229.56661 
L 914.208532 229.56661 
L 909.88691 229.56661 
L 905.48255 229.56661 
L 900.992222 229.56661 
L 896.412503 229.56661 
L 891.739762 229.56661 
L 886.970141 229.56661 
L 882.099538 229.56661 
L 877.123584 229.56661 
L 872.037622 229.56661 
L 866.836676 229.56661 
L 861.515426 229.56661 
L 856.068177 229.56661 
L 850.488814 229.56661 
L 844.770771 229.56661 
L 838.906978 229.56661 
L 832.889808 229.56661 
L 826.711024 229.56661 
L 820.361702 229.56661 
L 813.832161 229.56661 
L 807.111871 229.56661 
L 800.189351 229.56661 
L 793.052051 229.56661 
L 785.686216 229.56661 
L 778.076724 229.56661 
L 770.206903 229.56661 
L 762.058307 229.56661 
L 753.610459 229.56661 
L 744.840538 229.56661 
L 735.723009 229.56661 
L 726.229176 229.56661 
L 716.326633 229.56661 
L 705.978602 229.56661 
L 695.143104 229.56661 
L 683.771933 229.56661 
L 671.809357 229.56661 
L 659.190469 229.56661 
L 645.83905 229.56661 
L 631.664784 229.56661 
L 616.559547 229.56661 
L 600.392395 231.541233 
L 583.002654 234.471728 
L 564.190175 237.439729 
L 543.701246 239.171748 
L 521.207586 240.555689 
L 496.273915 241.938596 
L 468.305731 243.321455 
L 436.460721 244.704312 
L 399.488466 246.087169 
L 355.41507 247.470026 
L 300.848443 249.199796 
" clip-path="url(#p139919726e)" style="fill: none; stroke: #9467bd; stroke-opacity: 0.9; stroke-width: 2; stroke-linecap: square"/>
   </g>
   <g id="line2d_38">
    <path d="M 1063.305 229.56661 
L 1061.05471 229.56661 
L 1058.782192 229.56661 
L 1056.487001 229.56661 
L 1054.168681 229.56661 
L 1051.826762 229.56661 
L 1049.460757 229.56661 
L 1047.070166 229.56661 
L 1044.654473 229.56661 
L 1042.213145 229.56661 
L 1039.745632 229.56661 
L 1037.251366 229.56661 
L 1034.729761 229.56661 
L 1032.180211 229.56661 
L 1029.602089 229.56661 
L 1026.994748 229.56661 
L 1024.357519 229.56661 
L 1021.689706 229.56661 
L 1018.990594 229.56661 
L 1016.259439 229.56661 
L 1013.495471 229.56661 
L 1010.697892 229.56661 
L 1007.865874 229.56661 
L 1004.998559 229.56661 
L 1002.095056 229.56661 
L 999.15444 229.56661 
L 996.17575 229.56661 
L 993.157986 229.56661 
L 990.100111 229.56661 
L 987.001042 229.56661 
L 983.859657 229.56661 
L 980.674782 229.56661 
L 977.445197 229.56661 
L 974.169628 229.56661 
L 970.846747 229.56661 
L 967.475168 229.56661 
L 964.053441 229.56661 
L 960.580052 229.56661 
L 957.053418 229.56661 
L 953.471881 229.56661 
L 949.833703 229.56661 
L 946.137064 229.56661 
L 942.380056 229.56661 
L 938.560674 229.56661 
L 934.676811 229.56661 
L 930.726252 229.56661 
L 926.706668 229.56661 
L 922.615603 229.56661 
L 918.450468 229.56661 
L 914.208532 229.56661 
L 909.88691 229.56661 
L 905.48255 229.56661 
L 900.992222 229.56661 
L 896.412503 229.56661 
L 891.739762 229.56661 
L 886.970141 229.56661 
L 882.099538 229.56661 
L 877.123584 229.56661 
L 872.037622 229.56661 
L 866.836676 229.56661 
L 861.515426 229.56661 
L 856.068177 229.56661 
L 850.488814 229.56661 
L 844.770771 229.56661 
L 838.906978 229.56661 
L 832.889808 229.56661 
L 826.711024 229.56661 
L 820.361702 229.56661 
L 813.832161 229.56661 
L 807.111871 229.56661 
L 800.189351 229.56661 
L 793.052051 229.56661 
L 785.686216 229.56661 
L 778.076724 229.56661 
L 770.206903 229.56661 
L 762.058307 229.56661 
L 753.610459 229.56661 
L 744.840538 229.56661 
L 735.723009 229.56661 
L 726.229176 229.56661 
L 716.326633 229.56661 
L 705.978602 229.56661 
L 695.143104 229.56661 
L 683.771933 229.56661 
L 671.809357 230.317347 
L 659.190469 231.6126 
L 645.83905 232.908693 
L 631.664784 234.204787 
L 616.559547 235.573186 
L 600.392395 237.735283 
L 583.002654 239.958343 
L 564.190175 242.221777 
L 543.701246 243.618354 
L 521.207586 244.835968 
L 496.273915 246.05647 
L 468.305731 247.277032 
L 436.460721 248.497594 
L 399.488466 249.718157 
L 355.41507 250.938719 
L 300.848443 251.960217 
" clip-path="url(#p139919726e)" style="fill: none; stroke: #c49c94; stroke-opacity: 0.9; stroke-width: 2; stroke-linecap: square"/>
   </g>
   <g id="line2d_39">
    <path d="M 250.169505 50.868029 
L 300.848443 119.105915 
" clip-path="url(#p139919726e)" style="fill: none; stroke-dasharray: 1,1.65; stroke-dashoffset: 0; stroke: #1f77b4; stroke-opacity: 0.5"/>
   </g>
   <g id="line2d_40">
    <path d="M 250.169505 440.98998 
L 300.848443 388.252796 
" clip-path="url(#p139919726e)" style="fill: none; stroke-dasharray: 1,1.65; stroke-dashoffset: 0; stroke: #aec7e8; stroke-opacity: 0.5"/>
   </g>
   <g id="line2d_41">
    <path d="M 250.169505 385.258273 
L 300.848443 375.656377 
" clip-path="url(#p139919726e)" style="fill: none; stroke-dasharray: 1,1.65; stroke-dashoffset: 0; stroke: #ff7f0e; stroke-opacity: 0.5"/>
   </g>
   <g id="line2d_42">
    <path d="M 250.169505 329.526565 
L 300.848443 328.867095 
" clip-path="url(#p139919726e)" style="fill: none; stroke-dasharray: 1,1.65; stroke-dashoffset: 0; stroke: #d62728; stroke-opacity: 0.5"/>
   </g>
   <g id="line2d_43">
    <path d="M 250.169505 106.599736 
L 300.848443 227.217248 
" clip-path="url(#p139919726e)" style="fill: none; stroke-dasharray: 1,1.65; stroke-dashoffset: 0; stroke: #ff9896; stroke-opacity: 0.5"/>
   </g>
   <g id="line2d_44">
    <path d="M 250.169505 162.331444 
L 300.848443 228.784104 
" clip-path="url(#p139919726e)" style="fill: none; stroke-dasharray: 1,1.65; stroke-dashoffset: 0; stroke: #9467bd; stroke-opacity: 0.5"/>
   </g>
   <g id="line2d_45">
    <path d="M 250.169505 218.063151 
L 300.848443 249.199796 
" clip-path="url(#p139919726e)" style="fill: none; stroke-dasharray: 1,1.65; stroke-dashoffset: 0; stroke: #9467bd; stroke-opacity: 0.5"/>
   </g>
   <g id="line2d_46">
    <path d="M 250.169505 273.794858 
L 300.848443 251.960217 
" clip-path="url(#p139919726e)" style="fill: none; stroke-dasharray: 1,1.65; stroke-dashoffset: 0; stroke: #c49c94; stroke-opacity: 0.5"/>
   </g>
   <g id="line2d_47">
    <path d="M 512.68078 474.429004 
L 512.68078 17.429004 
" clip-path="url(#p139919726e)" style="fill: none; stroke-dasharray: 6.66,2.88; stroke-dashoffset: 0; stroke: #7570b3; stroke-opacity: 0.9; stroke-width: 1.8"/>
   </g>
   <g id="patch_3">
    <path d="M 149.585 474.429004 
L 149.585 17.429004 
" style="fill: none; stroke: #000000; stroke-width: 1.2; stroke-linejoin: miter; stroke-linecap: square"/>
   </g>
   <g id="patch_4">
    <path d="M 149.585 474.429004 
L 1063.305 474.429004 
" style="fill: none; stroke: #000000; stroke-width: 1.2; stroke-linejoin: miter; stroke-linecap: square"/>
   </g>
   <g id="text_18">
    <g id="patch_5">
     <path d="M 198.072657 69.256466 
L 238.732657 69.256466 
L 238.732657 32.479591 
L 198.072657 32.479591 
z
" style="fill: #ffffff; opacity: 0.72"/>
    </g>
    <!-- $x_3$ -->
    <g style="fill: #1f77b4" transform="translate(198.072657 61.353654) scale(0.38 -0.38)">
     <defs>
      <path id="DejaVuSans-Oblique-78" d="M 3841 3500 
L 2234 1784 
L 3219 0 
L 2559 0 
L 1819 1388 
L 531 0 
L -166 0 
L 1556 1844 
L 641 3500 
L 1300 3500 
L 1972 2234 
L 3144 3500 
L 3841 3500 
z
" transform="scale(0.015625)"/>
      <path id="DejaVuSans-33" d="M 2597 2516 
Q 3050 2419 3304 2112 
Q 3559 1806 3559 1356 
Q 3559 666 3084 287 
Q 2609 -91 1734 -91 
Q 1441 -91 1130 -33 
Q 819 25 488 141 
L 488 750 
Q 750 597 1062 519 
Q 1375 441 1716 441 
Q 2309 441 2620 675 
Q 2931 909 2931 1356 
Q 2931 1769 2642 2001 
Q 2353 2234 1838 2234 
L 1294 2234 
L 1294 2753 
L 1863 2753 
Q 2328 2753 2575 2939 
Q 2822 3125 2822 3475 
Q 2822 3834 2567 4026 
Q 2313 4219 1838 4219 
Q 1578 4219 1281 4162 
Q 984 4106 628 3988 
L 628 4550 
Q 988 4650 1302 4700 
Q 1616 4750 1894 4750 
Q 2613 4750 3031 4423 
Q 3450 4097 3450 3541 
Q 3450 3153 3228 2886 
Q 3006 2619 2597 2516 
z
" transform="scale(0.015625)"/>
     </defs>
     <use xlink:href="#DejaVuSans-Oblique-78" transform="translate(0 0.3125)"/>
     <use xlink:href="#DejaVuSans-33" transform="translate(59.179688 -16.09375) scale(0.7)"/>
    </g>
   </g>
   <g id="text_19">
    <g id="patch_6">
     <path d="M 196.552657 463.59998 
L 238.732657 463.59998 
L 238.732657 418.37998 
L 196.552657 418.37998 
z
" style="fill: #ffffff; opacity: 0.72"/>
    </g>
    <!-- $x_1^2$ -->
    <g style="fill: #aec7e8" transform="translate(196.552657 452.95998) scale(0.38 -0.38)">
     <defs>
      <path id="DejaVuSans-32" d="M 1228 531 
L 3431 531 
L 3431 0 
L 469 0 
L 469 531 
Q 828 903 1448 1529 
Q 2069 2156 2228 2338 
Q 2531 2678 2651 2914 
Q 2772 3150 2772 3378 
Q 2772 3750 2511 3984 
Q 2250 4219 1831 4219 
Q 1534 4219 1204 4116 
Q 875 4013 500 3803 
L 500 4441 
Q 881 4594 1212 4672 
Q 1544 4750 1819 4750 
Q 2544 4750 2975 4387 
Q 3406 4025 3406 3419 
Q 3406 3131 3298 2873 
Q 3191 2616 2906 2266 
Q 2828 2175 2409 1742 
Q 1991 1309 1228 531 
z
" transform="scale(0.015625)"/>
      <path id="DejaVuSans-31" d="M 794 531 
L 1825 531 
L 1825 4091 
L 703 3866 
L 703 4441 
L 1819 4666 
L 2450 4666 
L 2450 531 
L 3481 531 
L 3481 0 
L 794 0 
L 794 531 
z
" transform="scale(0.015625)"/>
     </defs>
     <use xlink:href="#DejaVuSans-Oblique-78" transform="translate(0 0.765625)"/>
     <use xlink:href="#DejaVuSans-32" transform="translate(63.645833 39.046875) scale(0.7)"/>
     <use xlink:href="#DejaVuSans-31" transform="translate(59.179688 -26.578125) scale(0.7)"/>
    </g>
   </g>
   <g id="text_20">
    <g id="patch_7">
     <path d="M 196.552657 407.868273 
L 238.732657 407.868273 
L 238.732657 362.648273 
L 196.552657 362.648273 
z
" style="fill: #ffffff; opacity: 0.72"/>
    </g>
    <!-- $x_2^2$ -->
    <g style="fill: #ff7f0e" transform="translate(196.552657 397.228273) scale(0.38 -0.38)">
     <use xlink:href="#DejaVuSans-Oblique-78" transform="translate(0 0.765625)"/>
     <use xlink:href="#DejaVuSans-32" transform="translate(63.645833 39.046875) scale(0.7)"/>
     <use xlink:href="#DejaVuSans-32" transform="translate(59.179688 -26.578125) scale(0.7)"/>
    </g>
   </g>
   <g id="text_21">
    <g id="patch_8">
     <path d="M 196.552657 352.326565 
L 238.732657 352.326565 
L 238.732657 306.726565 
L 196.552657 306.726565 
z
" style="fill: #ffffff; opacity: 0.72"/>
    </g>
    <!-- $x_3^3$ -->
    <g style="fill: #d62728" transform="translate(196.552657 341.306565) scale(0.38 -0.38)">
     <use xlink:href="#DejaVuSans-Oblique-78" transform="translate(0 0.765625)"/>
     <use xlink:href="#DejaVuSans-33" transform="translate(63.645833 39.046875) scale(0.7)"/>
     <use xlink:href="#DejaVuSans-33" transform="translate(59.179688 -26.578125) scale(0.7)"/>
    </g>
   </g>
   <g id="text_22">
    <g id="patch_9">
     <path d="M 155.892657 129.209736 
L 238.732657 129.209736 
L 238.732657 83.989736 
L 155.892657 83.989736 
z
" style="fill: #ffffff; opacity: 0.72"/>
    </g>
    <!-- $x_1^3 x_3$ -->
    <g style="fill: #ff9896" transform="translate(155.892657 118.569736) scale(0.38 -0.38)">
     <use xlink:href="#DejaVuSans-Oblique-78" transform="translate(0 0.765625)"/>
     <use xlink:href="#DejaVuSans-33" transform="translate(63.645833 39.046875) scale(0.7)"/>
     <use xlink:href="#DejaVuSans-31" transform="translate(59.179688 -26.578125) scale(0.7)"/>
     <use xlink:href="#DejaVuSans-Oblique-78" transform="translate(110.916341 0.765625)"/>
     <use xlink:href="#DejaVuSans-33" transform="translate(170.096029 -15.640625) scale(0.7)"/>
    </g>
   </g>
   <g id="text_23">
    <g id="patch_10">
     <path d="M 154.372657 184.941444 
L 238.732657 184.941444 
L 238.732657 139.721444 
L 154.372657 139.721444 
z
" style="fill: #ffffff; opacity: 0.72"/>
    </g>
    <!-- $x_1^2 x_2^2$ -->
    <g style="fill: #9467bd" transform="translate(154.372657 174.301444) scale(0.38 -0.38)">
     <use xlink:href="#DejaVuSans-Oblique-78" transform="translate(0 0.765625)"/>
     <use xlink:href="#DejaVuSans-32" transform="translate(63.645833 39.046875) scale(0.7)"/>
     <use xlink:href="#DejaVuSans-31" transform="translate(59.179688 -26.578125) scale(0.7)"/>
     <use xlink:href="#DejaVuSans-Oblique-78" transform="translate(110.916341 0.765625)"/>
     <use xlink:href="#DejaVuSans-32" transform="translate(174.562174 39.046875) scale(0.7)"/>
     <use xlink:href="#DejaVuSans-32" transform="translate(170.096029 -26.578125) scale(0.7)"/>
    </g>
   </g>
   <g id="text_24">
    <g id="patch_11">
     <path d="M 154.372657 240.863151 
L 238.732657 240.863151 
L 238.732657 195.263151 
L 154.372657 195.263151 
z
" style="fill: #ffffff; opacity: 0.72"/>
    </g>
    <!-- $x_1^2 x_3^2$ -->
    <g style="fill: #9467bd" transform="translate(154.372657 229.843151) scale(0.38 -0.38)">
     <use xlink:href="#DejaVuSans-Oblique-78" transform="translate(0 0.765625)"/>
     <use xlink:href="#DejaVuSans-32" transform="translate(63.645833 39.046875) scale(0.7)"/>
     <use xlink:href="#DejaVuSans-31" transform="translate(59.179688 -26.578125) scale(0.7)"/>
     <use xlink:href="#DejaVuSans-Oblique-78" transform="translate(110.916341 0.765625)"/>
     <use xlink:href="#DejaVuSans-32" transform="translate(174.562174 39.046875) scale(0.7)"/>
     <use xlink:href="#DejaVuSans-33" transform="translate(170.096029 -26.578125) scale(0.7)"/>
    </g>
   </g>
   <g id="text_25">
    <g id="patch_12">
     <path d="M 154.372657 296.594858 
L 238.732657 296.594858 
L 238.732657 250.994858 
L 154.372657 250.994858 
z
" style="fill: #ffffff; opacity: 0.72"/>
    </g>
    <!-- $x_2^2 x_3^2$ -->
    <g style="fill: #c49c94" transform="translate(154.372657 285.574858) scale(0.38 -0.38)">
     <use xlink:href="#DejaVuSans-Oblique-78" transform="translate(0 0.765625)"/>
     <use xlink:href="#DejaVuSans-32" transform="translate(63.645833 39.046875) scale(0.7)"/>
     <use xlink:href="#DejaVuSans-32" transform="translate(59.179688 -26.578125) scale(0.7)"/>
     <use xlink:href="#DejaVuSans-Oblique-78" transform="translate(110.916341 0.765625)"/>
     <use xlink:href="#DejaVuSans-32" transform="translate(174.562174 39.046875) scale(0.7)"/>
     <use xlink:href="#DejaVuSans-33" transform="translate(170.096029 -26.578125) scale(0.7)"/>
    </g>
   </g>
   <g id="text_26">
    <!-- $\lambda^*=$0.006 -->
    <g style="fill: #7570b3" transform="translate(518.68078 55.822754) scale(0.4 -0.4)">
     <defs>
      <path id="DejaVuSans-2a" d="M 3009 3897 
L 1888 3291 
L 3009 2681 
L 2828 2375 
L 1778 3009 
L 1778 1831 
L 1422 1831 
L 1422 3009 
L 372 2375 
L 191 2681 
L 1313 3291 
L 191 3897 
L 372 4206 
L 1422 3572 
L 1422 4750 
L 1778 4750 
L 1778 3572 
L 2828 4206 
L 3009 3897 
z
" transform="scale(0.015625)"/>
      <path id="DejaVuSans-3d" d="M 678 2906 
L 4684 2906 
L 4684 2381 
L 678 2381 
L 678 2906 
z
M 678 1631 
L 4684 1631 
L 4684 1100 
L 678 1100 
L 678 1631 
z
" transform="scale(0.015625)"/>
     </defs>
     <use xlink:href="#DejaVuSans-Oblique-3bb" transform="translate(0 0.765625)"/>
     <use xlink:href="#DejaVuSans-2a" transform="translate(80.265091 39.046875) scale(0.7)"/>
     <use xlink:href="#DejaVuSans-3d" transform="translate(151.119583 0.765625)"/>
     <use xlink:href="#DejaVuSerif-30" transform="translate(254.391068 0.765625)"/>
     <use xlink:href="#DejaVuSerif-2e" transform="translate(318.014115 0.765625)"/>
     <use xlink:href="#DejaVuSerif-30" transform="translate(349.801224 0.765625)"/>
     <use xlink:href="#DejaVuSerif-30" transform="translate(413.424271 0.765625)"/>
     <use xlink:href="#DejaVuSerif-36" transform="translate(477.047318 0.765625)"/>
    </g>
   </g>
  </g>
 </g>
 <defs>
  <clipPath id="p139919726e">
   <rect x="149.585" y="17.429004" width="913.72" height="457"/>
  </clipPath>
 </defs>
</svg>
