<?xml version="1.0" encoding="utf-8" standalone="no"?>
<!DOCTYPE svg PUBLIC "-//W3C//DTD SVG 1.1//EN"
  "http://www.w3.org/Graphics/SVG/1.1/DTD/svg11.dtd">
<svg xmlns:xlink="http://www.w3.org/1999/xlink" width="648pt" height="504pt" viewBox="0 0 648 504" xmlns="http://www.w3.org/2000/svg" version="1.1">
 <metadata>
  <rdf:RDF xmlns:dc="http://purl.org/dc/elements/1.1/" xmlns:cc="http://creativecommons.org/ns#" xmlns:rdf="http://www.w3.org/1999/02/22-rdf-syntax-ns#">
   <cc:Work>
    <dc:type rdf:resource="http://purl.org/dc/dcmitype/StillImage"/>
    <dc:date>2026-02-22T16:15:35.361095</dc:date>
    <dc:format>image/svg+xml</dc:format>
    <dc:creator>
     <cc:Agent>
      <dc:title>Matplotlib v3.10.6, https://matplotlib.org/</dc:title>
     </cc:Agent>
    </dc:creator>
   </cc:Work>
  </rdf:RDF>
 </metadata>
 <defs>
  <style type="text/css">*{stroke-linejoin: round; stroke-linecap: butt}</style>
 </defs>
 <g id="figure_1">
  <g id="patch_1">
   <path d="M 0 504 
L 648 504 
L 648 0 
L 0 0 
L 0 504 
z
" style="fill: none; opacity: 0"/>
  </g>
  <g id="axes_1">
   <g id="patch_2">
    <path d="M 25.92 417.8 
L 603.899675 417.8 
L 603.899675 99.6 
L 25.92 99.6 
L 25.92 417.8 
z
" style="fill: none"/>
   </g>
   <g id="matplotlib.axis_1">
    <g id="xtick_1">
     <g id="line2d_1">
      <path d="M 209.568305 417.8 
L 209.568305 99.6 
" clip-path="url(#p7dc0856225)" style="fill: none; stroke: #ffffff; stroke-opacity: 0.4; stroke-linecap: round"/>
     </g>
     <g id="line2d_2">
      <defs>
       <path id="m06229666b9" d="M 0 0 
L 0 3 
" style="stroke: #808080"/>
      </defs>
      <g>
       <use xlink:href="#m06229666b9" x="209.568305" y="417.8" style="fill: #808080; stroke: #808080"/>
      </g>
     </g>
     <g id="text_1">
      <text style="font-size: 52px; font-family: 'DejaVu Serif', 'Times New Roman', serif; text-anchor: middle; fill: #262626" x="209.568305" y="467.311875" transform="rotate(-0 209.568305 467.311875)">0.64</text>
     </g>
    </g>
    <g id="xtick_2">
     <g id="line2d_3">
      <path d="M 539.481014 417.8 
L 539.481014 99.6 
" clip-path="url(#p7dc0856225)" style="fill: none; stroke: #ffffff; stroke-opacity: 0.4; stroke-linecap: round"/>
     </g>
     <g id="line2d_4">
      <g>
       <use xlink:href="#m06229666b9" x="539.481014" y="417.8" style="fill: #808080; stroke: #808080"/>
      </g>
     </g>
     <g id="text_2">
      <text style="font-size: 52px; font-family: 'DejaVu Serif', 'Times New Roman', serif; text-anchor: middle; fill: #262626" x="539.481014" y="467.311875" transform="rotate(-0 539.481014 467.311875)">0.66</text>
     </g>
    </g>
   </g>
   <g id="matplotlib.axis_2"/>
   <g id="FillBetweenPolyCollection_1">
    <defs>
     <path id="mfa97e587bd" d="M 52.191803 -100.663636 
L 52.191803 -101.442038 
L 53.220054 -101.437478 
L 54.248305 -101.42844 
L 55.276555 -101.41508 
L 56.304806 -101.397629 
L 57.333056 -101.376385 
L 58.361307 -101.351701 
L 59.389558 -101.323982 
L 60.417808 -101.293668 
L 61.446059 -101.261224 
L 62.47431 -101.227132 
L 63.50256 -101.191872 
L 64.530811 -101.155918 
L 65.559061 -101.119724 
L 66.587312 -101.083717 
L 67.615563 -101.048286 
L 68.643813 -101.01378 
L 69.672064 -100.980504 
L 70.700315 -100.94871 
L 71.728565 -100.918604 
L 72.756816 -100.890342 
L 73.785066 -100.864031 
L 74.813317 -100.839737 
L 75.841568 -100.817482 
L 76.869818 -100.797252 
L 77.898069 -100.779003 
L 78.92632 -100.762662 
L 79.95457 -100.751661 
L 80.982821 -100.739767 
L 82.011071 -100.729668 
L 83.039322 -100.721276 
L 84.067573 -100.714501 
L 85.095823 -100.709262 
L 86.124074 -100.705481 
L 87.152325 -100.703092 
L 88.180575 -100.70204 
L 89.208826 -100.702278 
L 90.237076 -100.703773 
L 91.265327 -100.7065 
L 92.293578 -100.710444 
L 93.321828 -100.71282 
L 94.350079 -100.720524 
L 95.37833 -100.730082 
L 96.40658 -100.740824 
L 97.434831 -100.752818 
L 98.463081 -100.76612 
L 99.491332 -100.780777 
L 100.519583 -100.79682 
L 101.547833 -100.814261 
L 102.576084 -100.836618 
L 103.604334 -100.857739 
L 104.632585 -100.880385 
L 105.660836 -100.908042 
L 106.689086 -100.934529 
L 107.717337 -100.966104 
L 108.745588 -100.996586 
L 109.773838 -101.028712 
L 110.802089 -101.062436 
L 111.830339 -101.097704 
L 112.85859 -101.13446 
L 113.886841 -101.17264 
L 114.915091 -101.215702 
L 115.943342 -101.260977 
L 116.971593 -101.315649 
L 117.999843 -101.36412 
L 119.028094 -101.418342 
L 120.056344 -101.479358 
L 121.084595 -101.53786 
L 122.112846 -101.599648 
L 123.141096 -101.664986 
L 124.169347 -101.734151 
L 125.197598 -101.807424 
L 126.225848 -101.88508 
L 127.254099 -101.967381 
L 128.282349 -102.061607 
L 129.3106 -102.159224 
L 130.338851 -102.263394 
L 131.367101 -102.370952 
L 132.395352 -102.488348 
L 133.423603 -102.613058 
L 134.451853 -102.741757 
L 135.480104 -102.884229 
L 136.508354 -103.031608 
L 137.536605 -103.19371 
L 138.564856 -103.35468 
L 139.593106 -103.522579 
L 140.621357 -103.707607 
L 141.649607 -103.894443 
L 142.677858 -104.088344 
L 143.706109 -104.288958 
L 144.734359 -104.499412 
L 145.76261 -104.709628 
L 146.790861 -104.928084 
L 147.819111 -105.162107 
L 148.847362 -105.399903 
L 149.875612 -105.644238 
L 150.903863 -105.888156 
L 151.932114 -106.140586 
L 152.960364 -106.402368 
L 153.988615 -106.664052 
L 155.016866 -106.938396 
L 156.045116 -107.213386 
L 157.073367 -107.501995 
L 158.101617 -107.795933 
L 159.129868 -108.102225 
L 160.158119 -108.422585 
L 161.186369 -108.751935 
L 162.21462 -109.087142 
L 163.242871 -109.438853 
L 164.271121 -109.801744 
L 165.299372 -110.178617 
L 166.327622 -110.573642 
L 167.355873 -110.98823 
L 168.384124 -111.427323 
L 169.412374 -111.882713 
L 170.440625 -112.361272 
L 171.468876 -112.857297 
L 172.497126 -113.380892 
L 173.525377 -113.930498 
L 174.553627 -114.493316 
L 175.581878 -115.077647 
L 176.610129 -115.679813 
L 177.638379 -116.299375 
L 178.66663 -116.956014 
L 179.69488 -117.628103 
L 180.723131 -118.303315 
L 181.751382 -119.004958 
L 182.779632 -119.720425 
L 183.807883 -120.483222 
L 184.836134 -121.237192 
L 185.864384 -122.014299 
L 186.892635 -122.812047 
L 187.920885 -123.626669 
L 188.949136 -124.458715 
L 189.977387 -125.308052 
L 191.005637 -126.167553 
L 192.033888 -127.045889 
L 193.062139 -127.946297 
L 194.090389 -128.845576 
L 195.11864 -129.777775 
L 196.14689 -130.715493 
L 197.175141 -131.655688 
L 198.203392 -132.637587 
L 199.231642 -133.611995 
L 200.259893 -134.6159 
L 201.288144 -135.633807 
L 202.316394 -136.677381 
L 203.344645 -137.715546 
L 204.372895 -138.773525 
L 205.401146 -139.833679 
L 206.429397 -140.907522 
L 207.457647 -141.988799 
L 208.485898 -143.080481 
L 209.514149 -144.172583 
L 210.542399 -145.281019 
L 211.57065 -146.389005 
L 212.5989 -147.513249 
L 213.627151 -148.655908 
L 214.655402 -149.809441 
L 215.683652 -150.972254 
L 216.711903 -152.157029 
L 217.740154 -153.353181 
L 218.768404 -154.569663 
L 219.796655 -155.841688 
L 220.824905 -157.131737 
L 221.853156 -158.47066 
L 222.881407 -159.85632 
L 223.909657 -161.279059 
L 224.937908 -162.783046 
L 225.966158 -164.353269 
L 226.994409 -165.981417 
L 228.02266 -167.648985 
L 229.05091 -169.410399 
L 230.079161 -171.234574 
L 231.107412 -173.126849 
L 232.135662 -175.094103 
L 233.163913 -177.138002 
L 234.192163 -179.248805 
L 235.220414 -181.442988 
L 236.248665 -183.683642 
L 237.276915 -185.98493 
L 238.305166 -188.373226 
L 239.333417 -190.801465 
L 240.361667 -193.270854 
L 241.389918 -195.777919 
L 242.418168 -198.29773 
L 243.446419 -200.823201 
L 244.47467 -203.373831 
L 245.50292 -205.949641 
L 246.531171 -208.48867 
L 247.559422 -211.045187 
L 248.587672 -213.586605 
L 249.615923 -216.080002 
L 250.644173 -218.535935 
L 251.672424 -220.984615 
L 252.700675 -223.376339 
L 253.728925 -225.719819 
L 254.757176 -228.021087 
L 255.785427 -230.265633 
L 256.813677 -232.448555 
L 257.841928 -234.581975 
L 258.870178 -236.692637 
L 259.898429 -238.729087 
L 260.92668 -240.711417 
L 261.95493 -242.641145 
L 262.983181 -244.525143 
L 264.011431 -246.382612 
L 265.039682 -248.182552 
L 266.067933 -249.958805 
L 267.096183 -251.669365 
L 268.124434 -253.4078 
L 269.152685 -255.114405 
L 270.180935 -256.811561 
L 271.209186 -258.481049 
L 272.237436 -260.169479 
L 273.265687 -261.880396 
L 274.293938 -263.586706 
L 275.322188 -265.323805 
L 276.350439 -267.098231 
L 277.37869 -268.880435 
L 278.40694 -270.701602 
L 279.435191 -272.593683 
L 280.463441 -274.535192 
L 281.491692 -276.469201 
L 282.519943 -278.462533 
L 283.548193 -280.507979 
L 284.576444 -282.623151 
L 285.604695 -284.792182 
L 286.632945 -287.017331 
L 287.661196 -289.291202 
L 288.689446 -291.621371 
L 289.717697 -294.000698 
L 290.745948 -296.435827 
L 291.774198 -298.913182 
L 292.802449 -301.417867 
L 293.8307 -303.933336 
L 294.85895 -306.524594 
L 295.887201 -309.138956 
L 296.915451 -311.769084 
L 297.943702 -314.421512 
L 298.971953 -317.085686 
L 300.000203 -319.790748 
L 301.028454 -322.519308 
L 302.056704 -325.261128 
L 303.084955 -327.963317 
L 304.113206 -330.706159 
L 305.141456 -333.431527 
L 306.169707 -336.131094 
L 307.197958 -338.826199 
L 308.226208 -341.495859 
L 309.254459 -344.147053 
L 310.282709 -346.771598 
L 311.31096 -349.396719 
L 312.339211 -351.950762 
L 313.367461 -354.430346 
L 314.395712 -356.863856 
L 315.423963 -359.219701 
L 316.452213 -361.509321 
L 317.480464 -363.684565 
L 318.508714 -365.754437 
L 319.536965 -367.752101 
L 320.565216 -369.667389 
L 321.593466 -371.422526 
L 322.621717 -373.074472 
L 323.649968 -374.614856 
L 324.678218 -376.033067 
L 325.706469 -377.321025 
L 326.734719 -378.515392 
L 327.76297 -379.55808 
L 328.791221 -380.462962 
L 329.819471 -381.300929 
L 330.847722 -382.016408 
L 331.875973 -382.633128 
L 332.904223 -383.146972 
L 333.932474 -383.607889 
L 334.960724 -384.009741 
L 335.988975 -384.345534 
L 337.017226 -384.661831 
L 338.045476 -384.919617 
L 339.073727 -385.164647 
L 340.101978 -385.399728 
L 341.130228 -385.649171 
L 342.158479 -385.875688 
L 343.186729 -386.110071 
L 344.21498 -386.380742 
L 345.243231 -386.646115 
L 346.271481 -386.933745 
L 347.299732 -387.232841 
L 348.327982 -387.539223 
L 349.356233 -387.848543 
L 350.384484 -388.168289 
L 351.412734 -388.514788 
L 352.440985 -388.81086 
L 353.469236 -389.084547 
L 354.497486 -389.345421 
L 355.525737 -389.547263 
L 356.553987 -389.71535 
L 357.582238 -389.854518 
L 358.610489 -389.936364 
L 359.638739 -389.891299 
L 360.66699 -389.810899 
L 361.695241 -389.620129 
L 362.723491 -389.34621 
L 363.751742 -388.987833 
L 364.779992 -388.548564 
L 365.808243 -388.032284 
L 366.836494 -387.406076 
L 367.864744 -386.68117 
L 368.892995 -385.84662 
L 369.921246 -384.93584 
L 370.949496 -383.964084 
L 371.977747 -382.86003 
L 373.005997 -381.689616 
L 374.034248 -380.448986 
L 375.062499 -379.129646 
L 376.090749 -377.762617 
L 377.119 -376.328346 
L 378.147251 -374.774847 
L 379.175501 -373.169326 
L 380.203752 -371.50928 
L 381.232002 -369.798808 
L 382.260253 -368.050216 
L 383.288504 -366.210447 
L 384.316754 -364.32455 
L 385.345005 -362.378908 
L 386.373255 -360.403274 
L 387.401506 -358.341668 
L 388.429757 -356.290504 
L 389.458007 -354.185555 
L 390.486258 -352.015697 
L 391.514509 -349.828642 
L 392.542759 -347.576359 
L 393.57101 -345.318801 
L 394.59926 -343.003278 
L 395.627511 -340.674794 
L 396.655762 -338.3374 
L 397.684012 -335.951206 
L 398.712263 -333.55343 
L 399.740514 -331.121397 
L 400.768764 -328.690021 
L 401.797015 -326.211699 
L 402.825265 -323.723345 
L 403.853516 -321.201455 
L 404.881767 -318.656011 
L 405.910017 -316.099292 
L 406.938268 -313.505266 
L 407.966519 -310.916012 
L 408.994769 -308.304243 
L 410.02302 -305.640293 
L 411.05127 -302.960762 
L 412.079521 -300.245617 
L 413.107772 -297.480181 
L 414.136022 -294.693517 
L 415.164273 -291.883896 
L 416.192524 -289.075915 
L 417.220774 -286.216046 
L 418.249025 -283.316334 
L 419.277275 -280.445879 
L 420.305526 -277.527234 
L 421.333777 -274.63923 
L 422.362027 -271.737019 
L 423.390278 -268.832071 
L 424.418528 -265.921033 
L 425.446779 -263.029978 
L 426.47503 -260.207293 
L 427.50328 -257.37906 
L 428.531531 -254.580462 
L 429.559782 -251.833479 
L 430.588032 -249.114918 
L 431.616283 -246.468839 
L 432.644533 -243.849071 
L 433.672784 -241.27893 
L 434.701035 -238.728988 
L 435.729285 -236.293733 
L 436.757536 -233.907947 
L 437.785787 -231.573857 
L 438.814037 -229.284798 
L 439.842288 -227.026474 
L 440.870538 -224.82451 
L 441.898789 -222.663278 
L 442.92704 -220.596201 
L 443.95529 -218.557922 
L 444.983541 -216.567427 
L 446.011792 -214.588099 
L 447.040042 -212.673578 
L 448.068293 -210.80659 
L 449.096543 -208.960579 
L 450.124794 -207.149711 
L 451.153045 -205.380249 
L 452.181295 -203.659154 
L 453.209546 -201.985552 
L 454.237797 -200.314319 
L 455.266047 -198.731655 
L 456.294298 -197.16107 
L 457.322548 -195.622922 
L 458.350799 -194.125407 
L 459.37905 -192.662431 
L 460.4073 -191.233766 
L 461.435551 -189.835865 
L 462.463801 -188.454509 
L 463.492052 -187.103587 
L 464.520303 -185.765619 
L 465.548553 -184.418353 
L 466.576804 -183.094167 
L 467.605055 -181.765198 
L 468.633305 -180.441064 
L 469.661556 -179.120123 
L 470.689806 -177.790296 
L 471.718057 -176.399785 
L 472.746308 -175.028103 
L 473.774558 -173.634516 
L 474.802809 -172.191387 
L 475.83106 -170.741194 
L 476.85931 -169.251166 
L 477.887561 -167.765276 
L 478.915811 -166.230912 
L 479.944062 -164.683226 
L 480.972313 -163.13007 
L 482.000563 -161.548398 
L 483.028814 -159.95835 
L 484.057065 -158.367232 
L 485.085315 -156.781359 
L 486.113566 -155.178433 
L 487.141816 -153.593156 
L 488.170067 -152.043802 
L 489.198318 -150.514286 
L 490.226568 -149.016165 
L 491.254819 -147.534932 
L 492.28307 -146.109823 
L 493.31132 -144.726208 
L 494.339571 -143.398957 
L 495.367821 -142.123159 
L 496.396072 -140.889857 
L 497.424323 -139.694805 
L 498.452573 -138.554865 
L 499.480824 -137.466081 
L 500.509075 -136.421179 
L 501.537325 -135.410069 
L 502.565576 -134.443192 
L 503.593826 -133.531129 
L 504.622077 -132.649318 
L 505.650328 -131.798545 
L 506.678578 -130.985396 
L 507.706829 -130.199406 
L 508.735079 -129.42819 
L 509.76333 -128.657819 
L 510.791581 -127.913459 
L 511.819831 -127.198451 
L 512.848082 -126.476276 
L 513.876333 -125.772967 
L 514.904583 -125.052626 
L 515.932834 -124.354294 
L 516.961084 -123.653232 
L 517.989335 -122.943336 
L 519.017586 -122.231821 
L 520.045836 -121.531038 
L 521.074087 -120.831099 
L 522.102338 -120.135086 
L 523.130588 -119.443741 
L 524.158839 -118.752619 
L 525.187089 -118.06709 
L 526.21534 -117.389111 
L 527.243591 -116.729769 
L 528.271841 -116.07264 
L 529.300092 -115.440574 
L 530.328343 -114.808009 
L 531.356593 -114.199537 
L 532.384844 -113.615232 
L 533.413094 -113.046889 
L 534.441345 -112.501963 
L 535.469596 -111.977935 
L 536.497846 -111.476976 
L 537.526097 -111.012102 
L 538.554348 -110.557434 
L 539.582598 -110.122702 
L 540.610849 -109.705395 
L 541.639099 -109.317158 
L 542.66735 -108.947403 
L 543.695601 -108.604164 
L 544.723851 -108.285125 
L 545.752102 -107.982617 
L 546.780352 -107.688327 
L 547.808603 -107.408838 
L 548.836854 -107.153972 
L 549.865104 -106.906848 
L 550.893355 -106.679036 
L 551.921606 -106.460067 
L 552.949856 -106.247165 
L 553.978107 -106.055491 
L 555.006357 -105.876886 
L 556.034608 -105.695824 
L 557.062859 -105.533998 
L 558.091109 -105.37863 
L 559.11936 -105.238503 
L 560.147611 -105.10385 
L 561.175861 -104.967731 
L 562.204112 -104.860236 
L 563.232362 -104.75427 
L 564.260613 -104.644996 
L 565.288864 -104.556938 
L 566.317114 -104.476703 
L 567.345365 -104.406967 
L 568.373616 -104.343465 
L 569.401866 -104.290373 
L 570.430117 -104.235872 
L 571.458367 -104.194144 
L 572.486618 -104.157987 
L 573.514869 -104.130725 
L 574.543119 -104.106747 
L 575.57137 -104.089386 
L 576.599621 -104.077759 
L 577.627871 -104.065466 
L 577.627871 -100.663636 
L 577.627871 -100.663636 
L 576.599621 -100.663636 
L 575.57137 -100.663636 
L 574.543119 -100.663636 
L 573.514869 -100.663636 
L 572.486618 -100.663636 
L 571.458367 -100.663636 
L 570.430117 -100.663636 
L 569.401866 -100.663636 
L 568.373616 -100.663636 
L 567.345365 -100.663636 
L 566.317114 -100.663636 
L 565.288864 -100.663636 
L 564.260613 -100.663636 
L 563.232362 -100.663636 
L 562.204112 -100.663636 
L 561.175861 -100.663636 
L 560.147611 -100.663636 
L 559.11936 -100.663636 
L 558.091109 -100.663636 
L 557.062859 -100.663636 
L 556.034608 -100.663636 
L 555.006357 -100.663636 
L 553.978107 -100.663636 
L 552.949856 -100.663636 
L 551.921606 -100.663636 
L 550.893355 -100.663636 
L 549.865104 -100.663636 
L 548.836854 -100.663636 
L 547.808603 -100.663636 
L 546.780352 -100.663636 
L 545.752102 -100.663636 
L 544.723851 -100.663636 
L 543.695601 -100.663636 
L 542.66735 -100.663636 
L 541.639099 -100.663636 
L 540.610849 -100.663636 
L 539.582598 -100.663636 
L 538.554348 -100.663636 
L 537.526097 -100.663636 
L 536.497846 -100.663636 
L 535.469596 -100.663636 
L 534.441345 -100.663636 
L 533.413094 -100.663636 
L 532.384844 -100.663636 
L 531.356593 -100.663636 
L 530.328343 -100.663636 
L 529.300092 -100.663636 
L 528.271841 -100.663636 
L 527.243591 -100.663636 
L 526.21534 -100.663636 
L 525.187089 -100.663636 
L 524.158839 -100.663636 
L 523.130588 -100.663636 
L 522.102338 -100.663636 
L 521.074087 -100.663636 
L 520.045836 -100.663636 
L 519.017586 -100.663636 
L 517.989335 -100.663636 
L 516.961084 -100.663636 
L 515.932834 -100.663636 
L 514.904583 -100.663636 
L 513.876333 -100.663636 
L 512.848082 -100.663636 
L 511.819831 -100.663636 
L 510.791581 -100.663636 
L 509.76333 -100.663636 
L 508.735079 -100.663636 
L 507.706829 -100.663636 
L 506.678578 -100.663636 
L 505.650328 -100.663636 
L 504.622077 -100.663636 
L 503.593826 -100.663636 
L 502.565576 -100.663636 
L 501.537325 -100.663636 
L 500.509075 -100.663636 
L 499.480824 -100.663636 
L 498.452573 -100.663636 
L 497.424323 -100.663636 
L 496.396072 -100.663636 
L 495.367821 -100.663636 
L 494.339571 -100.663636 
L 493.31132 -100.663636 
L 492.28307 -100.663636 
L 491.254819 -100.663636 
L 490.226568 -100.663636 
L 489.198318 -100.663636 
L 488.170067 -100.663636 
L 487.141816 -100.663636 
L 486.113566 -100.663636 
L 485.085315 -100.663636 
L 484.057065 -100.663636 
L 483.028814 -100.663636 
L 482.000563 -100.663636 
L 480.972313 -100.663636 
L 479.944062 -100.663636 
L 478.915811 -100.663636 
L 477.887561 -100.663636 
L 476.85931 -100.663636 
L 475.83106 -100.663636 
L 474.802809 -100.663636 
L 473.774558 -100.663636 
L 472.746308 -100.663636 
L 471.718057 -100.663636 
L 470.689806 -100.663636 
L 469.661556 -100.663636 
L 468.633305 -100.663636 
L 467.605055 -100.663636 
L 466.576804 -100.663636 
L 465.548553 -100.663636 
L 464.520303 -100.663636 
L 463.492052 -100.663636 
L 462.463801 -100.663636 
L 461.435551 -100.663636 
L 460.4073 -100.663636 
L 459.37905 -100.663636 
L 458.350799 -100.663636 
L 457.322548 -100.663636 
L 456.294298 -100.663636 
L 455.266047 -100.663636 
L 454.237797 -100.663636 
L 453.209546 -100.663636 
L 452.181295 -100.663636 
L 451.153045 -100.663636 
L 450.124794 -100.663636 
L 449.096543 -100.663636 
L 448.068293 -100.663636 
L 447.040042 -100.663636 
L 446.011792 -100.663636 
L 444.983541 -100.663636 
L 443.95529 -100.663636 
L 442.92704 -100.663636 
L 441.898789 -100.663636 
L 440.870538 -100.663636 
L 439.842288 -100.663636 
L 438.814037 -100.663636 
L 437.785787 -100.663636 
L 436.757536 -100.663636 
L 435.729285 -100.663636 
L 434.701035 -100.663636 
L 433.672784 -100.663636 
L 432.644533 -100.663636 
L 431.616283 -100.663636 
L 430.588032 -100.663636 
L 429.559782 -100.663636 
L 428.531531 -100.663636 
L 427.50328 -100.663636 
L 426.47503 -100.663636 
L 425.446779 -100.663636 
L 424.418528 -100.663636 
L 423.390278 -100.663636 
L 422.362027 -100.663636 
L 421.333777 -100.663636 
L 420.305526 -100.663636 
L 419.277275 -100.663636 
L 418.249025 -100.663636 
L 417.220774 -100.663636 
L 416.192524 -100.663636 
L 415.164273 -100.663636 
L 414.136022 -100.663636 
L 413.107772 -100.663636 
L 412.079521 -100.663636 
L 411.05127 -100.663636 
L 410.02302 -100.663636 
L 408.994769 -100.663636 
L 407.966519 -100.663636 
L 406.938268 -100.663636 
L 405.910017 -100.663636 
L 404.881767 -100.663636 
L 403.853516 -100.663636 
L 402.825265 -100.663636 
L 401.797015 -100.663636 
L 400.768764 -100.663636 
L 399.740514 -100.663636 
L 398.712263 -100.663636 
L 397.684012 -100.663636 
L 396.655762 -100.663636 
L 395.627511 -100.663636 
L 394.59926 -100.663636 
L 393.57101 -100.663636 
L 392.542759 -100.663636 
L 391.514509 -100.663636 
L 390.486258 -100.663636 
L 389.458007 -100.663636 
L 388.429757 -100.663636 
L 387.401506 -100.663636 
L 386.373255 -100.663636 
L 385.345005 -100.663636 
L 384.316754 -100.663636 
L 383.288504 -100.663636 
L 382.260253 -100.663636 
L 381.232002 -100.663636 
L 380.203752 -100.663636 
L 379.175501 -100.663636 
L 378.147251 -100.663636 
L 377.119 -100.663636 
L 376.090749 -100.663636 
L 375.062499 -100.663636 
L 374.034248 -100.663636 
L 373.005997 -100.663636 
L 371.977747 -100.663636 
L 370.949496 -100.663636 
L 369.921246 -100.663636 
L 368.892995 -100.663636 
L 367.864744 -100.663636 
L 366.836494 -100.663636 
L 365.808243 -100.663636 
L 364.779992 -100.663636 
L 363.751742 -100.663636 
L 362.723491 -100.663636 
L 361.695241 -100.663636 
L 360.66699 -100.663636 
L 359.638739 -100.663636 
L 358.610489 -100.663636 
L 357.582238 -100.663636 
L 356.553987 -100.663636 
L 355.525737 -100.663636 
L 354.497486 -100.663636 
L 353.469236 -100.663636 
L 352.440985 -100.663636 
L 351.412734 -100.663636 
L 350.384484 -100.663636 
L 349.356233 -100.663636 
L 348.327982 -100.663636 
L 347.299732 -100.663636 
L 346.271481 -100.663636 
L 345.243231 -100.663636 
L 344.21498 -100.663636 
L 343.186729 -100.663636 
L 342.158479 -100.663636 
L 341.130228 -100.663636 
L 340.101978 -100.663636 
L 339.073727 -100.663636 
L 338.045476 -100.663636 
L 337.017226 -100.663636 
L 335.988975 -100.663636 
L 334.960724 -100.663636 
L 333.932474 -100.663636 
L 332.904223 -100.663636 
L 331.875973 -100.663636 
L 330.847722 -100.663636 
L 329.819471 -100.663636 
L 328.791221 -100.663636 
L 327.76297 -100.663636 
L 326.734719 -100.663636 
L 325.706469 -100.663636 
L 324.678218 -100.663636 
L 323.649968 -100.663636 
L 322.621717 -100.663636 
L 321.593466 -100.663636 
L 320.565216 -100.663636 
L 319.536965 -100.663636 
L 318.508714 -100.663636 
L 317.480464 -100.663636 
L 316.452213 -100.663636 
L 315.423963 -100.663636 
L 314.395712 -100.663636 
L 313.367461 -100.663636 
L 312.339211 -100.663636 
L 311.31096 -100.663636 
L 310.282709 -100.663636 
L 309.254459 -100.663636 
L 308.226208 -100.663636 
L 307.197958 -100.663636 
L 306.169707 -100.663636 
L 305.141456 -100.663636 
L 304.113206 -100.663636 
L 303.084955 -100.663636 
L 302.056704 -100.663636 
L 301.028454 -100.663636 
L 300.000203 -100.663636 
L 298.971953 -100.663636 
L 297.943702 -100.663636 
L 296.915451 -100.663636 
L 295.887201 -100.663636 
L 294.85895 -100.663636 
L 293.8307 -100.663636 
L 292.802449 -100.663636 
L 291.774198 -100.663636 
L 290.745948 -100.663636 
L 289.717697 -100.663636 
L 288.689446 -100.663636 
L 287.661196 -100.663636 
L 286.632945 -100.663636 
L 285.604695 -100.663636 
L 284.576444 -100.663636 
L 283.548193 -100.663636 
L 282.519943 -100.663636 
L 281.491692 -100.663636 
L 280.463441 -100.663636 
L 279.435191 -100.663636 
L 278.40694 -100.663636 
L 277.37869 -100.663636 
L 276.350439 -100.663636 
L 275.322188 -100.663636 
L 274.293938 -100.663636 
L 273.265687 -100.663636 
L 272.237436 -100.663636 
L 271.209186 -100.663636 
L 270.180935 -100.663636 
L 269.152685 -100.663636 
L 268.124434 -100.663636 
L 267.096183 -100.663636 
L 266.067933 -100.663636 
L 265.039682 -100.663636 
L 264.011431 -100.663636 
L 262.983181 -100.663636 
L 261.95493 -100.663636 
L 260.92668 -100.663636 
L 259.898429 -100.663636 
L 258.870178 -100.663636 
L 257.841928 -100.663636 
L 256.813677 -100.663636 
L 255.785427 -100.663636 
L 254.757176 -100.663636 
L 253.728925 -100.663636 
L 252.700675 -100.663636 
L 251.672424 -100.663636 
L 250.644173 -100.663636 
L 249.615923 -100.663636 
L 248.587672 -100.663636 
L 247.559422 -100.663636 
L 246.531171 -100.663636 
L 245.50292 -100.663636 
L 244.47467 -100.663636 
L 243.446419 -100.663636 
L 242.418168 -100.663636 
L 241.389918 -100.663636 
L 240.361667 -100.663636 
L 239.333417 -100.663636 
L 238.305166 -100.663636 
L 237.276915 -100.663636 
L 236.248665 -100.663636 
L 235.220414 -100.663636 
L 234.192163 -100.663636 
L 233.163913 -100.663636 
L 232.135662 -100.663636 
L 231.107412 -100.663636 
L 230.079161 -100.663636 
L 229.05091 -100.663636 
L 228.02266 -100.663636 
L 226.994409 -100.663636 
L 225.966158 -100.663636 
L 224.937908 -100.663636 
L 223.909657 -100.663636 
L 222.881407 -100.663636 
L 221.853156 -100.663636 
L 220.824905 -100.663636 
L 219.796655 -100.663636 
L 218.768404 -100.663636 
L 217.740154 -100.663636 
L 216.711903 -100.663636 
L 215.683652 -100.663636 
L 214.655402 -100.663636 
L 213.627151 -100.663636 
L 212.5989 -100.663636 
L 211.57065 -100.663636 
L 210.542399 -100.663636 
L 209.514149 -100.663636 
L 208.485898 -100.663636 
L 207.457647 -100.663636 
L 206.429397 -100.663636 
L 205.401146 -100.663636 
L 204.372895 -100.663636 
L 203.344645 -100.663636 
L 202.316394 -100.663636 
L 201.288144 -100.663636 
L 200.259893 -100.663636 
L 199.231642 -100.663636 
L 198.203392 -100.663636 
L 197.175141 -100.663636 
L 196.14689 -100.663636 
L 195.11864 -100.663636 
L 194.090389 -100.663636 
L 193.062139 -100.663636 
L 192.033888 -100.663636 
L 191.005637 -100.663636 
L 189.977387 -100.663636 
L 188.949136 -100.663636 
L 187.920885 -100.663636 
L 186.892635 -100.663636 
L 185.864384 -100.663636 
L 184.836134 -100.663636 
L 183.807883 -100.663636 
L 182.779632 -100.663636 
L 181.751382 -100.663636 
L 180.723131 -100.663636 
L 179.69488 -100.663636 
L 178.66663 -100.663636 
L 177.638379 -100.663636 
L 176.610129 -100.663636 
L 175.581878 -100.663636 
L 174.553627 -100.663636 
L 173.525377 -100.663636 
L 172.497126 -100.663636 
L 171.468876 -100.663636 
L 170.440625 -100.663636 
L 169.412374 -100.663636 
L 168.384124 -100.663636 
L 167.355873 -100.663636 
L 166.327622 -100.663636 
L 165.299372 -100.663636 
L 164.271121 -100.663636 
L 163.242871 -100.663636 
L 162.21462 -100.663636 
L 161.186369 -100.663636 
L 160.158119 -100.663636 
L 159.129868 -100.663636 
L 158.101617 -100.663636 
L 157.073367 -100.663636 
L 156.045116 -100.663636 
L 155.016866 -100.663636 
L 153.988615 -100.663636 
L 152.960364 -100.663636 
L 151.932114 -100.663636 
L 150.903863 -100.663636 
L 149.875612 -100.663636 
L 148.847362 -100.663636 
L 147.819111 -100.663636 
L 146.790861 -100.663636 
L 145.76261 -100.663636 
L 144.734359 -100.663636 
L 143.706109 -100.663636 
L 142.677858 -100.663636 
L 141.649607 -100.663636 
L 140.621357 -100.663636 
L 139.593106 -100.663636 
L 138.564856 -100.663636 
L 137.536605 -100.663636 
L 136.508354 -100.663636 
L 135.480104 -100.663636 
L 134.451853 -100.663636 
L 133.423603 -100.663636 
L 132.395352 -100.663636 
L 131.367101 -100.663636 
L 130.338851 -100.663636 
L 129.3106 -100.663636 
L 128.282349 -100.663636 
L 127.254099 -100.663636 
L 126.225848 -100.663636 
L 125.197598 -100.663636 
L 124.169347 -100.663636 
L 123.141096 -100.663636 
L 122.112846 -100.663636 
L 121.084595 -100.663636 
L 120.056344 -100.663636 
L 119.028094 -100.663636 
L 117.999843 -100.663636 
L 116.971593 -100.663636 
L 115.943342 -100.663636 
L 114.915091 -100.663636 
L 113.886841 -100.663636 
L 112.85859 -100.663636 
L 111.830339 -100.663636 
L 110.802089 -100.663636 
L 109.773838 -100.663636 
L 108.745588 -100.663636 
L 107.717337 -100.663636 
L 106.689086 -100.663636 
L 105.660836 -100.663636 
L 104.632585 -100.663636 
L 103.604334 -100.663636 
L 102.576084 -100.663636 
L 101.547833 -100.663636 
L 100.519583 -100.663636 
L 99.491332 -100.663636 
L 98.463081 -100.663636 
L 97.434831 -100.663636 
L 96.40658 -100.663636 
L 95.37833 -100.663636 
L 94.350079 -100.663636 
L 93.321828 -100.663636 
L 92.293578 -100.663636 
L 91.265327 -100.663636 
L 90.237076 -100.663636 
L 89.208826 -100.663636 
L 88.180575 -100.663636 
L 87.152325 -100.663636 
L 86.124074 -100.663636 
L 85.095823 -100.663636 
L 84.067573 -100.663636 
L 83.039322 -100.663636 
L 82.011071 -100.663636 
L 80.982821 -100.663636 
L 79.95457 -100.663636 
L 78.92632 -100.663636 
L 77.898069 -100.663636 
L 76.869818 -100.663636 
L 75.841568 -100.663636 
L 74.813317 -100.663636 
L 73.785066 -100.663636 
L 72.756816 -100.663636 
L 71.728565 -100.663636 
L 70.700315 -100.663636 
L 69.672064 -100.663636 
L 68.643813 -100.663636 
L 67.615563 -100.663636 
L 66.587312 -100.663636 
L 65.559061 -100.663636 
L 64.530811 -100.663636 
L 63.50256 -100.663636 
L 62.47431 -100.663636 
L 61.446059 -100.663636 
L 60.417808 -100.663636 
L 59.389558 -100.663636 
L 58.361307 -100.663636 
L 57.333056 -100.663636 
L 56.304806 -100.663636 
L 55.276555 -100.663636 
L 54.248305 -100.663636 
L 53.220054 -100.663636 
L 52.191803 -100.663636 
z
" style="stroke: #7570b3; stroke-opacity: 0.6; stroke-width: 0.3"/>
    </defs>
    <g clip-path="url(#p7dc0856225)">
     <use xlink:href="#mfa97e587bd" x="0" y="504" style="fill: #7570b3; fill-opacity: 0.6; stroke: #7570b3; stroke-opacity: 0.6; stroke-width: 0.3"/>
    </g>
   </g>
   <g id="line2d_5">
    <path d="M 52.191803 402.557962 
L 59.389558 402.676018 
L 83.039322 403.278724 
L 96.40658 403.259176 
L 107.717337 403.033896 
L 117.999843 402.63588 
L 126.225848 402.11492 
L 132.395352 401.511652 
L 137.536605 400.80629 
L 142.677858 399.911656 
L 148.847362 398.600097 
L 156.045116 396.786614 
L 161.186369 395.248065 
L 165.299372 393.821383 
L 168.384124 392.572677 
L 171.468876 391.142703 
L 174.553627 389.506684 
L 178.66663 387.043986 
L 182.779632 384.279575 
L 187.920885 380.373331 
L 192.033888 376.954111 
L 197.175141 372.344312 
L 202.316394 367.322619 
L 207.457647 362.011201 
L 213.627151 355.344092 
L 218.768404 349.430337 
L 221.853156 345.52934 
L 224.937908 341.216954 
L 228.02266 336.351015 
L 231.107412 330.873151 
L 234.192163 324.751195 
L 237.276915 318.01507 
L 241.389918 308.222081 
L 252.700675 280.623661 
L 255.785427 273.734367 
L 258.870178 267.307363 
L 261.95493 261.358855 
L 266.067933 254.041195 
L 277.37869 235.119565 
L 280.463441 229.464808 
L 283.548193 223.492021 
L 286.632945 216.982669 
L 289.717697 209.999302 
L 293.8307 200.066664 
L 298.971953 186.914314 
L 312.339211 152.049238 
L 315.423963 144.780299 
L 317.480464 140.315435 
L 320.565216 134.332611 
L 322.621717 130.925528 
L 324.678218 127.966933 
L 326.734719 125.484608 
L 328.791221 123.537038 
L 330.847722 121.983592 
L 332.904223 120.853028 
L 334.960724 119.990259 
L 338.045476 119.080383 
L 347.299732 116.767159 
L 354.497486 114.654579 
L 357.582238 114.145482 
L 358.610489 114.063636 
L 360.66699 114.189101 
L 362.723491 114.65379 
L 364.779992 115.451436 
L 366.836494 116.593924 
L 368.892995 118.15338 
L 370.949496 120.035916 
L 373.005997 122.310384 
L 375.062499 124.870354 
L 377.119 127.671654 
L 380.203752 132.49072 
L 383.288504 137.789553 
L 386.373255 143.596726 
L 390.486258 151.984303 
L 393.57101 158.681199 
L 398.712263 170.44657 
L 403.853516 182.798545 
L 410.02302 198.359707 
L 414.136022 209.306483 
L 420.305526 226.472766 
L 429.559782 252.166521 
L 432.644533 260.150929 
L 435.729285 267.706267 
L 439.842288 276.973526 
L 442.92704 283.403799 
L 447.040042 291.326422 
L 451.153045 298.619751 
L 454.237797 303.685681 
L 458.350799 309.874593 
L 462.463801 315.545491 
L 475.83106 333.258806 
L 480.972313 340.86993 
L 490.226568 354.983835 
L 493.31132 359.273792 
L 496.396072 363.110143 
L 499.480824 366.533919 
L 502.565576 369.556808 
L 505.650328 372.201455 
L 509.76333 375.342181 
L 514.904583 378.947374 
L 528.271841 387.92736 
L 532.384844 390.384768 
L 535.469596 392.022065 
L 538.554348 393.442566 
L 541.639099 394.682842 
L 544.723851 395.714875 
L 548.836854 396.846028 
L 552.949856 397.752835 
L 558.091109 398.62137 
L 564.260613 399.355004 
L 569.401866 399.709627 
L 574.543119 399.893253 
L 577.627871 399.934534 
L 577.627871 399.934534 
" clip-path="url(#p7dc0856225)" style="fill: none; stroke: #7570b3; stroke-width: 2; stroke-linecap: round"/>
   </g>
   <g id="line2d_6">
    <path d="M 238.912481 397.261636 
L 472.525338 397.261636 
" clip-path="url(#p7dc0856225)" style="fill: none; stroke: #000000; stroke-width: 3.5"/>
   </g>
   <g id="patch_3">
    <path d="M 25.92 417.8 
L 603.899675 417.8 
" style="fill: none; stroke: #333333; stroke-width: 1.5; stroke-linejoin: miter; stroke-linecap: square"/>
   </g>
   <g id="text_3">
    <text style="font-size: 52px; font-family: 'DejaVu Serif', 'Times New Roman', serif; text-anchor: end; fill: #262626" x="238.912481" y="382.074818" transform="rotate(-0 238.912481 382.074818)">0.64 </text>
   </g>
   <g id="text_4">
    <text style="font-size: 52px; font-family: 'DejaVu Serif', 'Times New Roman', serif; text-anchor: start; fill: #262626" x="472.525338" y="382.074818" transform="rotate(-0 472.525338 382.074818)"> 0.66</text>
   </g>
   <g id="text_5">
    <text style="font-size: 52px; font-family: 'DejaVu Serif', 'Times New Roman', serif; text-anchor: middle; fill: #262626" x="355.71891" y="312.215455" transform="rotate(-0 355.71891 312.215455)">90%</text>
   </g>
   <g id="text_6">
    <!-- $\mu$=0.65 -->
    <g style="fill: #262626" transform="translate(254.494105 160.347273)">
     <text>
      <tspan x="0" y="-0.40625" style="font-style: oblique; font-size: 52px; font-family: 'DejaVu Sans'; fill: #262626">μ</tspan>
      <tspan x="33.083984" y="-0.40625" style="font-size: 52px; font-family: 'DejaVu Serif'; fill: #262626">=</tspan>
      <tspan x="76.654297" y="-0.40625" style="font-size: 52px; font-family: 'DejaVu Serif'; fill: #262626">0</tspan>
      <tspan x="109.738281" y="-0.40625" style="font-size: 52px; font-family: 'DejaVu Serif'; fill: #262626">.</tspan>
      <tspan x="126.267578" y="-0.40625" style="font-size: 52px; font-family: 'DejaVu Serif'; fill: #262626">6</tspan>
      <tspan x="159.351562" y="-0.40625" style="font-size: 52px; font-family: 'DejaVu Serif'; fill: #262626">5</tspan>
     </text>
    </g>
   </g>
   <g id="text_7">
    <!-- $C$ -->
    <g style="fill: #262626" transform="translate(288.309837 83.794375)">
     <text>
      <tspan x="0" y="-0.59375" style="font-style: oblique; font-size: 76px; font-family: 'DejaVu Sans'; fill: #262626">C</tspan>
     </text>
    </g>
   </g>
  </g>
 </g>
 <defs>
  <clipPath id="p7dc0856225">
   <rect x="25.92" y="99.6" width="577.979675" height="318.2"/>
  </clipPath>
 </defs>
</svg>
