<?xml version="1.0" encoding="utf-8" standalone="no"?>
<!DOCTYPE svg PUBLIC "-//W3C//DTD SVG 1.1//EN"
  "http://www.w3.org/Graphics/SVG/1.1/DTD/svg11.dtd">
<svg xmlns:xlink="http://www.w3.org/1999/xlink" width="648pt" height="504pt" viewBox="0 0 648 504" xmlns="http://www.w3.org/2000/svg" version="1.1">
 <metadata>
  <rdf:RDF xmlns:dc="http://purl.org/dc/elements/1.1/" xmlns:cc="http://creativecommons.org/ns#" xmlns:rdf="http://www.w3.org/1999/02/22-rdf-syntax-ns#">
   <cc:Work>
    <dc:type rdf:resource="http://purl.org/dc/dcmitype/StillImage"/>
    <dc:date>2026-02-22T16:15:33.931682</dc:date>
    <dc:format>image/svg+xml</dc:format>
    <dc:creator>
     <cc:Agent>
      <dc:title>Matplotlib v3.10.6, https://matplotlib.org/</dc:title>
     </cc:Agent>
    </dc:creator>
   </cc:Work>
  </rdf:RDF>
 </metadata>
 <defs>
  <style type="text/css">*{stroke-linejoin: round; stroke-linecap: butt}</style>
 </defs>
 <g id="figure_1">
  <g id="patch_1">
   <path d="M 0 504 
L 648 504 
L 648 0 
L 0 0 
L 0 504 
z
" style="fill: none; opacity: 0"/>
  </g>
  <g id="axes_1">
   <g id="patch_2">
    <path d="M 32.898359 417.8 
L 551.728649 417.8 
L 551.728649 99.6 
L 32.898359 99.6 
L 32.898359 417.8 
z
" style="fill: none"/>
   </g>
   <g id="matplotlib.axis_1">
    <g id="xtick_1">
     <g id="line2d_1">
      <path d="M 267.552465 417.8 
L 267.552465 99.6 
" clip-path="url(#pf16e10df17)" style="fill: none; stroke: #ffffff; stroke-opacity: 0.4; stroke-linecap: round"/>
     </g>
     <g id="line2d_2">
      <defs>
       <path id="mec660a025b" d="M 0 0 
L 0 3 
" style="stroke: #808080"/>
      </defs>
      <g>
       <use xlink:href="#mec660a025b" x="267.552465" y="417.8" style="fill: #808080; stroke: #808080"/>
      </g>
     </g>
     <g id="text_1">
      <text style="font-size: 52px; font-family: 'DejaVu Serif', 'Times New Roman', serif; text-anchor: middle; fill: #262626" x="267.552465" y="467.311875" transform="rotate(-0 267.552465 467.311875)">0.135</text>
     </g>
    </g>
    <g id="xtick_2">
     <g id="line2d_3">
      <path d="M 547.499439 417.8 
L 547.499439 99.6 
" clip-path="url(#pf16e10df17)" style="fill: none; stroke: #ffffff; stroke-opacity: 0.4; stroke-linecap: round"/>
     </g>
     <g id="line2d_4">
      <g>
       <use xlink:href="#mec660a025b" x="547.499439" y="417.8" style="fill: #808080; stroke: #808080"/>
      </g>
     </g>
     <g id="text_2">
      <text style="font-size: 52px; font-family: 'DejaVu Serif', 'Times New Roman', serif; text-anchor: middle; fill: #262626" x="547.499439" y="467.311875" transform="rotate(-0 547.499439 467.311875)">0.140</text>
     </g>
    </g>
   </g>
   <g id="matplotlib.axis_2"/>
   <g id="FillBetweenPolyCollection_1">
    <defs>
     <path id="m1ccda61efb" d="M 56.481554 -100.663636 
L 56.481554 -104.654891 
L 57.404575 -104.661405 
L 58.327596 -104.672342 
L 59.250618 -104.687188 
L 60.173639 -104.710975 
L 61.09666 -104.740678 
L 62.019682 -104.776939 
L 62.942703 -104.817294 
L 63.865724 -104.866761 
L 64.788746 -104.922861 
L 65.711767 -104.989294 
L 66.634788 -105.063093 
L 67.55781 -105.135644 
L 68.480831 -105.224189 
L 69.403852 -105.323176 
L 70.326874 -105.429664 
L 71.249895 -105.537584 
L 72.172916 -105.649342 
L 73.095938 -105.770862 
L 74.018959 -105.911234 
L 74.94198 -106.050652 
L 75.865002 -106.190927 
L 76.788023 -106.339826 
L 77.711044 -106.509423 
L 78.634066 -106.67175 
L 79.557087 -106.842786 
L 80.480108 -107.016657 
L 81.40313 -107.199215 
L 82.326151 -107.393906 
L 83.249172 -107.591454 
L 84.172194 -107.788141 
L 85.095215 -107.994988 
L 86.018236 -108.206928 
L 86.941258 -108.424563 
L 87.864279 -108.651083 
L 88.7873 -108.88055 
L 89.710322 -109.112605 
L 90.633343 -109.359235 
L 91.556364 -109.607175 
L 92.479386 -109.856224 
L 93.402407 -110.11785 
L 94.325428 -110.393073 
L 95.24845 -110.671332 
L 96.171471 -110.955103 
L 97.094492 -111.262843 
L 98.017514 -111.57977 
L 98.940535 -111.897487 
L 99.863556 -112.235915 
L 100.786578 -112.588284 
L 101.709599 -112.946689 
L 102.63262 -113.318645 
L 103.555642 -113.704599 
L 104.478663 -114.101819 
L 105.401684 -114.531046 
L 106.324706 -114.974728 
L 107.247727 -115.435965 
L 108.170748 -115.905969 
L 109.09377 -116.389345 
L 110.016791 -116.920113 
L 110.939812 -117.455293 
L 111.862834 -117.994267 
L 112.785855 -118.564864 
L 113.708876 -119.148342 
L 114.631898 -119.749584 
L 115.554919 -120.375106 
L 116.47794 -121.013546 
L 117.400962 -121.665924 
L 118.323983 -122.328011 
L 119.247004 -123.031903 
L 120.170026 -123.748647 
L 121.093047 -124.465635 
L 122.016068 -125.212699 
L 122.93909 -125.970062 
L 123.862111 -126.763909 
L 124.785132 -127.551325 
L 125.708154 -128.358086 
L 126.631175 -129.173022 
L 127.554196 -130.003578 
L 128.477218 -130.842913 
L 129.400239 -131.70885 
L 130.32326 -132.570447 
L 131.246282 -133.45073 
L 132.169303 -134.347151 
L 133.092324 -135.266677 
L 134.015346 -136.202956 
L 134.938367 -137.120797 
L 135.861388 -138.065291 
L 136.78441 -139.011282 
L 137.707431 -139.972745 
L 138.630452 -140.956322 
L 139.553474 -141.946056 
L 140.476495 -142.93542 
L 141.399516 -143.933853 
L 142.322538 -144.95 
L 143.245559 -145.97399 
L 144.16858 -147.021514 
L 145.091602 -148.086243 
L 146.014623 -149.160922 
L 146.937644 -150.251427 
L 147.860666 -151.342022 
L 148.783687 -152.473112 
L 149.706708 -153.601611 
L 150.62973 -154.734062 
L 151.552751 -155.896282 
L 152.475772 -157.094309 
L 153.398794 -158.289974 
L 154.321815 -159.514321 
L 155.244836 -160.766577 
L 156.167858 -162.032001 
L 157.090879 -163.328402 
L 158.0139 -164.63438 
L 158.936922 -165.962486 
L 159.859943 -167.305103 
L 160.782964 -168.684028 
L 161.705986 -170.090504 
L 162.629007 -171.487295 
L 163.552028 -172.92841 
L 164.47505 -174.390877 
L 165.398071 -175.889055 
L 166.321092 -177.375809 
L 167.244114 -178.886263 
L 168.167135 -180.421652 
L 169.090156 -181.957836 
L 170.013178 -183.500219 
L 170.936199 -185.050609 
L 171.85922 -186.602806 
L 172.782242 -188.167304 
L 173.705263 -189.725397 
L 174.628284 -191.280648 
L 175.551306 -192.834102 
L 176.474327 -194.368934 
L 177.397348 -195.92601 
L 178.32037 -197.468689 
L 179.243391 -198.995525 
L 180.166412 -200.526284 
L 181.089434 -202.043018 
L 182.012455 -203.529435 
L 182.935476 -204.995745 
L 183.858498 -206.455988 
L 184.781519 -207.919841 
L 185.70454 -209.341724 
L 186.627562 -210.758658 
L 187.550583 -212.183248 
L 188.473604 -213.583524 
L 189.396626 -214.987809 
L 190.319647 -216.405687 
L 191.242668 -217.819711 
L 192.16569 -219.244913 
L 193.088711 -220.692289 
L 194.011732 -222.146484 
L 194.934754 -223.628281 
L 195.857775 -225.121019 
L 196.780796 -226.642711 
L 197.703818 -228.207994 
L 198.626839 -229.783173 
L 199.54986 -231.423612 
L 200.472882 -233.12126 
L 201.395903 -234.857801 
L 202.318924 -236.64845 
L 203.241945 -238.49809 
L 204.164967 -240.399095 
L 205.087988 -242.379268 
L 206.011009 -244.407274 
L 206.934031 -246.516166 
L 207.857052 -248.674037 
L 208.780073 -250.90227 
L 209.703095 -253.22761 
L 210.626116 -255.583588 
L 211.549137 -257.99585 
L 212.472159 -260.444552 
L 213.39518 -262.994078 
L 214.318201 -265.572596 
L 215.241223 -268.199617 
L 216.164244 -270.854939 
L 217.087265 -273.548829 
L 218.010287 -276.254904 
L 218.933308 -278.99125 
L 219.856329 -281.744909 
L 220.779351 -284.503323 
L 221.702372 -287.231554 
L 222.625393 -289.949912 
L 223.548415 -292.679576 
L 224.471436 -295.369755 
L 225.394457 -298.036651 
L 226.317479 -300.684986 
L 227.2405 -303.26617 
L 228.163521 -305.813243 
L 229.086543 -308.305289 
L 230.009564 -310.774778 
L 230.932585 -313.149599 
L 231.855607 -315.461003 
L 232.778628 -317.708512 
L 233.701649 -319.917662 
L 234.624671 -322.042864 
L 235.547692 -324.102551 
L 236.470713 -326.123698 
L 237.393735 -328.065689 
L 238.316756 -329.93395 
L 239.239777 -331.756169 
L 240.162799 -333.489928 
L 241.08582 -335.159445 
L 242.008841 -336.799094 
L 242.931863 -338.375132 
L 243.854884 -339.89722 
L 244.777905 -341.383903 
L 245.700927 -342.810289 
L 246.623948 -344.194161 
L 247.546969 -345.572367 
L 248.469991 -346.925175 
L 249.393012 -348.231329 
L 250.316033 -349.50799 
L 251.239055 -350.778721 
L 252.162076 -352.00255 
L 253.085097 -353.21091 
L 254.008119 -354.416094 
L 254.93114 -355.591155 
L 255.854161 -356.781774 
L 256.777183 -357.933259 
L 257.700204 -359.071477 
L 258.623225 -360.237825 
L 259.546247 -361.371582 
L 260.469268 -362.50395 
L 261.392289 -363.624534 
L 262.315311 -364.743091 
L 263.238332 -365.866772 
L 264.161353 -366.96797 
L 265.084375 -368.053593 
L 266.007396 -369.158561 
L 266.930417 -370.235416 
L 267.853439 -371.294558 
L 268.77646 -372.371246 
L 269.699481 -373.425943 
L 270.622503 -374.489496 
L 271.545524 -375.552206 
L 272.468545 -376.57835 
L 273.391567 -377.59223 
L 274.314588 -378.63468 
L 275.237609 -379.62035 
L 276.160631 -380.581067 
L 277.083652 -381.512601 
L 278.006673 -382.407851 
L 278.929695 -383.280731 
L 279.852716 -384.110069 
L 280.775737 -384.89309 
L 281.698759 -385.642512 
L 282.62178 -386.339502 
L 283.544801 -386.969692 
L 284.467823 -387.598691 
L 285.390844 -388.161033 
L 286.313865 -388.633263 
L 287.236887 -389.042119 
L 288.159908 -389.369681 
L 289.082929 -389.637929 
L 290.005951 -389.813461 
L 290.928972 -389.90857 
L 291.851993 -389.936364 
L 292.775015 -389.877835 
L 293.698036 -389.705377 
L 294.621057 -389.466061 
L 295.544079 -389.142255 
L 296.4671 -388.730603 
L 297.390121 -388.22933 
L 298.313143 -387.629502 
L 299.236164 -386.96494 
L 300.159185 -386.225828 
L 301.082207 -385.421422 
L 302.005228 -384.525859 
L 302.928249 -383.571978 
L 303.851271 -382.535457 
L 304.774292 -381.458804 
L 305.697313 -380.313322 
L 306.620335 -379.133466 
L 307.543356 -377.917312 
L 308.466377 -376.638265 
L 309.389399 -375.322969 
L 310.31242 -374.02081 
L 311.235441 -372.679946 
L 312.158463 -371.305326 
L 313.081484 -369.928351 
L 314.004505 -368.534126 
L 314.927527 -367.126929 
L 315.850548 -365.720824 
L 316.773569 -364.307457 
L 317.696591 -362.886735 
L 318.619612 -361.413024 
L 319.542633 -359.96294 
L 320.465655 -358.515021 
L 321.388676 -357.048719 
L 322.311697 -355.552646 
L 323.234719 -354.081557 
L 324.15774 -352.60085 
L 325.080761 -351.092489 
L 326.003783 -349.564536 
L 326.926804 -348.070645 
L 327.849825 -346.551202 
L 328.772847 -344.999751 
L 329.695868 -343.436758 
L 330.618889 -341.835891 
L 331.541911 -340.224314 
L 332.464932 -338.587236 
L 333.387953 -336.94116 
L 334.310975 -335.288099 
L 335.233996 -333.612428 
L 336.157017 -331.89084 
L 337.080039 -330.139806 
L 338.00306 -328.387065 
L 338.926081 -326.609067 
L 339.849103 -324.828493 
L 340.772124 -323.046087 
L 341.695145 -321.252432 
L 342.618167 -319.408643 
L 343.541188 -317.609698 
L 344.464209 -315.769856 
L 345.387231 -313.95636 
L 346.310252 -312.136668 
L 347.233273 -310.283212 
L 348.156295 -308.464546 
L 349.079316 -306.627803 
L 350.002337 -304.795344 
L 350.925359 -302.951236 
L 351.84838 -301.108193 
L 352.771401 -299.268284 
L 353.694423 -297.450031 
L 354.617444 -295.588012 
L 355.540465 -293.755399 
L 356.463487 -291.936125 
L 357.386508 -290.076396 
L 358.309529 -288.239899 
L 359.232551 -286.396871 
L 360.155572 -284.540241 
L 361.078593 -282.69599 
L 362.001615 -280.823181 
L 362.924636 -278.924626 
L 363.847657 -277.050479 
L 364.770679 -275.165973 
L 365.6937 -273.293586 
L 366.616721 -271.386826 
L 367.539743 -269.463188 
L 368.462764 -267.541975 
L 369.385785 -265.613792 
L 370.308807 -263.658589 
L 371.231828 -261.69971 
L 372.154849 -259.731239 
L 373.077871 -257.726972 
L 374.000892 -255.7286 
L 374.923913 -253.741546 
L 375.846935 -251.728857 
L 376.769956 -249.71564 
L 377.692977 -247.678526 
L 378.615999 -245.634512 
L 379.53902 -243.585275 
L 380.462041 -241.514804 
L 381.385063 -239.442993 
L 382.308084 -237.388541 
L 383.231105 -235.308613 
L 384.154127 -233.2175 
L 385.077148 -231.118613 
L 386.000169 -229.040519 
L 386.923191 -226.955792 
L 387.846212 -224.886915 
L 388.769233 -222.818109 
L 389.692255 -220.752697 
L 390.615276 -218.691411 
L 391.538297 -216.643234 
L 392.461319 -214.624272 
L 393.38434 -212.59979 
L 394.307361 -210.602999 
L 395.230383 -208.606699 
L 396.153404 -206.631078 
L 397.076425 -204.693351 
L 397.999447 -202.777415 
L 398.922468 -200.861666 
L 399.845489 -198.984164 
L 400.768511 -197.137265 
L 401.691532 -195.301768 
L 402.614553 -193.499364 
L 403.537575 -191.712874 
L 404.460596 -189.967169 
L 405.383617 -188.249916 
L 406.306639 -186.567451 
L 407.22966 -184.926454 
L 408.152681 -183.300035 
L 409.075703 -181.686193 
L 409.998724 -180.096771 
L 410.921745 -178.524993 
L 411.844767 -176.970119 
L 412.767788 -175.433829 
L 413.690809 -173.922339 
L 414.613831 -172.416629 
L 415.536852 -170.9079 
L 416.459873 -169.416174 
L 417.382895 -167.965954 
L 418.305916 -166.499779 
L 419.228937 -165.056303 
L 420.151959 -163.615501 
L 421.07498 -162.194816 
L 421.998001 -160.769832 
L 422.921023 -159.345156 
L 423.844044 -157.948013 
L 424.767065 -156.55891 
L 425.690087 -155.204046 
L 426.613108 -153.852346 
L 427.536129 -152.513825 
L 428.459151 -151.189192 
L 429.382172 -149.881385 
L 430.305193 -148.592697 
L 431.228215 -147.343027 
L 432.151236 -146.103883 
L 433.074257 -144.896826 
L 433.997279 -143.707196 
L 434.9203 -142.564251 
L 435.843321 -141.443365 
L 436.766343 -140.344209 
L 437.689364 -139.293664 
L 438.612385 -138.271998 
L 439.535407 -137.290927 
L 440.458428 -136.337165 
L 441.381449 -135.421443 
L 442.304471 -134.531358 
L 443.227492 -133.670695 
L 444.150513 -132.846846 
L 445.073535 -132.047815 
L 445.996556 -131.286865 
L 446.919577 -130.551262 
L 447.842598 -129.837369 
L 448.76562 -129.149436 
L 449.688641 -128.488567 
L 450.611662 -127.855378 
L 451.534684 -127.243078 
L 452.457705 -126.66544 
L 453.380726 -126.093714 
L 454.303748 -125.536146 
L 455.226769 -125.010414 
L 456.14979 -124.489186 
L 457.072812 -123.989 
L 457.995833 -123.492889 
L 458.918854 -123.014236 
L 459.841876 -122.54662 
L 460.764897 -122.104974 
L 461.687918 -121.663422 
L 462.61094 -121.236253 
L 463.533961 -120.817909 
L 464.456982 -120.415988 
L 465.380004 -120.020866 
L 466.303025 -119.63522 
L 467.226046 -119.266215 
L 468.149068 -118.901885 
L 469.072089 -118.539997 
L 469.99511 -118.18935 
L 470.918132 -117.841392 
L 471.841153 -117.513807 
L 472.764174 -117.186512 
L 473.687196 -116.86791 
L 474.610217 -116.546498 
L 475.533238 -116.238599 
L 476.45626 -115.932117 
L 477.379281 -115.632293 
L 478.302302 -115.333767 
L 479.225324 -115.039237 
L 480.148345 -114.752797 
L 481.071366 -114.46552 
L 481.994388 -114.185247 
L 482.917409 -113.900588 
L 483.84043 -113.620497 
L 484.763452 -113.342211 
L 485.686473 -113.062998 
L 486.609494 -112.785695 
L 487.532516 -112.509519 
L 488.455537 -112.233733 
L 489.378558 -111.963267 
L 490.30158 -111.692019 
L 491.224601 -111.415055 
L 492.147622 -111.139101 
L 493.070644 -110.864186 
L 493.993665 -110.584786 
L 494.916686 -110.314671 
L 495.839708 -110.042373 
L 496.762729 -109.773841 
L 497.68575 -109.507023 
L 498.608772 -109.237401 
L 499.531793 -108.973534 
L 500.454814 -108.713454 
L 501.377836 -108.457777 
L 502.300857 -108.204062 
L 503.223878 -107.963576 
L 504.1469 -107.7279 
L 505.069921 -107.495356 
L 505.992942 -107.267213 
L 506.915964 -107.055287 
L 507.838985 -106.848559 
L 508.762006 -106.647662 
L 509.685028 -106.453608 
L 510.608049 -106.272282 
L 511.53107 -106.103381 
L 512.454092 -105.944064 
L 513.377113 -105.795045 
L 514.300134 -105.64877 
L 515.223156 -105.514182 
L 516.146177 -105.404653 
L 517.069198 -105.299661 
L 517.99222 -105.213904 
L 518.915241 -105.130532 
L 519.838262 -105.053734 
L 520.761284 -104.983073 
L 521.684305 -104.926146 
L 522.607326 -104.871317 
L 523.530348 -104.829835 
L 524.453369 -104.793184 
L 525.37639 -104.769112 
L 526.299412 -104.748154 
L 527.222433 -104.733189 
L 528.145454 -104.721514 
L 528.145454 -100.663636 
L 528.145454 -100.663636 
L 527.222433 -100.663636 
L 526.299412 -100.663636 
L 525.37639 -100.663636 
L 524.453369 -100.663636 
L 523.530348 -100.663636 
L 522.607326 -100.663636 
L 521.684305 -100.663636 
L 520.761284 -100.663636 
L 519.838262 -100.663636 
L 518.915241 -100.663636 
L 517.99222 -100.663636 
L 517.069198 -100.663636 
L 516.146177 -100.663636 
L 515.223156 -100.663636 
L 514.300134 -100.663636 
L 513.377113 -100.663636 
L 512.454092 -100.663636 
L 511.53107 -100.663636 
L 510.608049 -100.663636 
L 509.685028 -100.663636 
L 508.762006 -100.663636 
L 507.838985 -100.663636 
L 506.915964 -100.663636 
L 505.992942 -100.663636 
L 505.069921 -100.663636 
L 504.1469 -100.663636 
L 503.223878 -100.663636 
L 502.300857 -100.663636 
L 501.377836 -100.663636 
L 500.454814 -100.663636 
L 499.531793 -100.663636 
L 498.608772 -100.663636 
L 497.68575 -100.663636 
L 496.762729 -100.663636 
L 495.839708 -100.663636 
L 494.916686 -100.663636 
L 493.993665 -100.663636 
L 493.070644 -100.663636 
L 492.147622 -100.663636 
L 491.224601 -100.663636 
L 490.30158 -100.663636 
L 489.378558 -100.663636 
L 488.455537 -100.663636 
L 487.532516 -100.663636 
L 486.609494 -100.663636 
L 485.686473 -100.663636 
L 484.763452 -100.663636 
L 483.84043 -100.663636 
L 482.917409 -100.663636 
L 481.994388 -100.663636 
L 481.071366 -100.663636 
L 480.148345 -100.663636 
L 479.225324 -100.663636 
L 478.302302 -100.663636 
L 477.379281 -100.663636 
L 476.45626 -100.663636 
L 475.533238 -100.663636 
L 474.610217 -100.663636 
L 473.687196 -100.663636 
L 472.764174 -100.663636 
L 471.841153 -100.663636 
L 470.918132 -100.663636 
L 469.99511 -100.663636 
L 469.072089 -100.663636 
L 468.149068 -100.663636 
L 467.226046 -100.663636 
L 466.303025 -100.663636 
L 465.380004 -100.663636 
L 464.456982 -100.663636 
L 463.533961 -100.663636 
L 462.61094 -100.663636 
L 461.687918 -100.663636 
L 460.764897 -100.663636 
L 459.841876 -100.663636 
L 458.918854 -100.663636 
L 457.995833 -100.663636 
L 457.072812 -100.663636 
L 456.14979 -100.663636 
L 455.226769 -100.663636 
L 454.303748 -100.663636 
L 453.380726 -100.663636 
L 452.457705 -100.663636 
L 451.534684 -100.663636 
L 450.611662 -100.663636 
L 449.688641 -100.663636 
L 448.76562 -100.663636 
L 447.842598 -100.663636 
L 446.919577 -100.663636 
L 445.996556 -100.663636 
L 445.073535 -100.663636 
L 444.150513 -100.663636 
L 443.227492 -100.663636 
L 442.304471 -100.663636 
L 441.381449 -100.663636 
L 440.458428 -100.663636 
L 439.535407 -100.663636 
L 438.612385 -100.663636 
L 437.689364 -100.663636 
L 436.766343 -100.663636 
L 435.843321 -100.663636 
L 434.9203 -100.663636 
L 433.997279 -100.663636 
L 433.074257 -100.663636 
L 432.151236 -100.663636 
L 431.228215 -100.663636 
L 430.305193 -100.663636 
L 429.382172 -100.663636 
L 428.459151 -100.663636 
L 427.536129 -100.663636 
L 426.613108 -100.663636 
L 425.690087 -100.663636 
L 424.767065 -100.663636 
L 423.844044 -100.663636 
L 422.921023 -100.663636 
L 421.998001 -100.663636 
L 421.07498 -100.663636 
L 420.151959 -100.663636 
L 419.228937 -100.663636 
L 418.305916 -100.663636 
L 417.382895 -100.663636 
L 416.459873 -100.663636 
L 415.536852 -100.663636 
L 414.613831 -100.663636 
L 413.690809 -100.663636 
L 412.767788 -100.663636 
L 411.844767 -100.663636 
L 410.921745 -100.663636 
L 409.998724 -100.663636 
L 409.075703 -100.663636 
L 408.152681 -100.663636 
L 407.22966 -100.663636 
L 406.306639 -100.663636 
L 405.383617 -100.663636 
L 404.460596 -100.663636 
L 403.537575 -100.663636 
L 402.614553 -100.663636 
L 401.691532 -100.663636 
L 400.768511 -100.663636 
L 399.845489 -100.663636 
L 398.922468 -100.663636 
L 397.999447 -100.663636 
L 397.076425 -100.663636 
L 396.153404 -100.663636 
L 395.230383 -100.663636 
L 394.307361 -100.663636 
L 393.38434 -100.663636 
L 392.461319 -100.663636 
L 391.538297 -100.663636 
L 390.615276 -100.663636 
L 389.692255 -100.663636 
L 388.769233 -100.663636 
L 387.846212 -100.663636 
L 386.923191 -100.663636 
L 386.000169 -100.663636 
L 385.077148 -100.663636 
L 384.154127 -100.663636 
L 383.231105 -100.663636 
L 382.308084 -100.663636 
L 381.385063 -100.663636 
L 380.462041 -100.663636 
L 379.53902 -100.663636 
L 378.615999 -100.663636 
L 377.692977 -100.663636 
L 376.769956 -100.663636 
L 375.846935 -100.663636 
L 374.923913 -100.663636 
L 374.000892 -100.663636 
L 373.077871 -100.663636 
L 372.154849 -100.663636 
L 371.231828 -100.663636 
L 370.308807 -100.663636 
L 369.385785 -100.663636 
L 368.462764 -100.663636 
L 367.539743 -100.663636 
L 366.616721 -100.663636 
L 365.6937 -100.663636 
L 364.770679 -100.663636 
L 363.847657 -100.663636 
L 362.924636 -100.663636 
L 362.001615 -100.663636 
L 361.078593 -100.663636 
L 360.155572 -100.663636 
L 359.232551 -100.663636 
L 358.309529 -100.663636 
L 357.386508 -100.663636 
L 356.463487 -100.663636 
L 355.540465 -100.663636 
L 354.617444 -100.663636 
L 353.694423 -100.663636 
L 352.771401 -100.663636 
L 351.84838 -100.663636 
L 350.925359 -100.663636 
L 350.002337 -100.663636 
L 349.079316 -100.663636 
L 348.156295 -100.663636 
L 347.233273 -100.663636 
L 346.310252 -100.663636 
L 345.387231 -100.663636 
L 344.464209 -100.663636 
L 343.541188 -100.663636 
L 342.618167 -100.663636 
L 341.695145 -100.663636 
L 340.772124 -100.663636 
L 339.849103 -100.663636 
L 338.926081 -100.663636 
L 338.00306 -100.663636 
L 337.080039 -100.663636 
L 336.157017 -100.663636 
L 335.233996 -100.663636 
L 334.310975 -100.663636 
L 333.387953 -100.663636 
L 332.464932 -100.663636 
L 331.541911 -100.663636 
L 330.618889 -100.663636 
L 329.695868 -100.663636 
L 328.772847 -100.663636 
L 327.849825 -100.663636 
L 326.926804 -100.663636 
L 326.003783 -100.663636 
L 325.080761 -100.663636 
L 324.15774 -100.663636 
L 323.234719 -100.663636 
L 322.311697 -100.663636 
L 321.388676 -100.663636 
L 320.465655 -100.663636 
L 319.542633 -100.663636 
L 318.619612 -100.663636 
L 317.696591 -100.663636 
L 316.773569 -100.663636 
L 315.850548 -100.663636 
L 314.927527 -100.663636 
L 314.004505 -100.663636 
L 313.081484 -100.663636 
L 312.158463 -100.663636 
L 311.235441 -100.663636 
L 310.31242 -100.663636 
L 309.389399 -100.663636 
L 308.466377 -100.663636 
L 307.543356 -100.663636 
L 306.620335 -100.663636 
L 305.697313 -100.663636 
L 304.774292 -100.663636 
L 303.851271 -100.663636 
L 302.928249 -100.663636 
L 302.005228 -100.663636 
L 301.082207 -100.663636 
L 300.159185 -100.663636 
L 299.236164 -100.663636 
L 298.313143 -100.663636 
L 297.390121 -100.663636 
L 296.4671 -100.663636 
L 295.544079 -100.663636 
L 294.621057 -100.663636 
L 293.698036 -100.663636 
L 292.775015 -100.663636 
L 291.851993 -100.663636 
L 290.928972 -100.663636 
L 290.005951 -100.663636 
L 289.082929 -100.663636 
L 288.159908 -100.663636 
L 287.236887 -100.663636 
L 286.313865 -100.663636 
L 285.390844 -100.663636 
L 284.467823 -100.663636 
L 283.544801 -100.663636 
L 282.62178 -100.663636 
L 281.698759 -100.663636 
L 280.775737 -100.663636 
L 279.852716 -100.663636 
L 278.929695 -100.663636 
L 278.006673 -100.663636 
L 277.083652 -100.663636 
L 276.160631 -100.663636 
L 275.237609 -100.663636 
L 274.314588 -100.663636 
L 273.391567 -100.663636 
L 272.468545 -100.663636 
L 271.545524 -100.663636 
L 270.622503 -100.663636 
L 269.699481 -100.663636 
L 268.77646 -100.663636 
L 267.853439 -100.663636 
L 266.930417 -100.663636 
L 266.007396 -100.663636 
L 265.084375 -100.663636 
L 264.161353 -100.663636 
L 263.238332 -100.663636 
L 262.315311 -100.663636 
L 261.392289 -100.663636 
L 260.469268 -100.663636 
L 259.546247 -100.663636 
L 258.623225 -100.663636 
L 257.700204 -100.663636 
L 256.777183 -100.663636 
L 255.854161 -100.663636 
L 254.93114 -100.663636 
L 254.008119 -100.663636 
L 253.085097 -100.663636 
L 252.162076 -100.663636 
L 251.239055 -100.663636 
L 250.316033 -100.663636 
L 249.393012 -100.663636 
L 248.469991 -100.663636 
L 247.546969 -100.663636 
L 246.623948 -100.663636 
L 245.700927 -100.663636 
L 244.777905 -100.663636 
L 243.854884 -100.663636 
L 242.931863 -100.663636 
L 242.008841 -100.663636 
L 241.08582 -100.663636 
L 240.162799 -100.663636 
L 239.239777 -100.663636 
L 238.316756 -100.663636 
L 237.393735 -100.663636 
L 236.470713 -100.663636 
L 235.547692 -100.663636 
L 234.624671 -100.663636 
L 233.701649 -100.663636 
L 232.778628 -100.663636 
L 231.855607 -100.663636 
L 230.932585 -100.663636 
L 230.009564 -100.663636 
L 229.086543 -100.663636 
L 228.163521 -100.663636 
L 227.2405 -100.663636 
L 226.317479 -100.663636 
L 225.394457 -100.663636 
L 224.471436 -100.663636 
L 223.548415 -100.663636 
L 222.625393 -100.663636 
L 221.702372 -100.663636 
L 220.779351 -100.663636 
L 219.856329 -100.663636 
L 218.933308 -100.663636 
L 218.010287 -100.663636 
L 217.087265 -100.663636 
L 216.164244 -100.663636 
L 215.241223 -100.663636 
L 214.318201 -100.663636 
L 213.39518 -100.663636 
L 212.472159 -100.663636 
L 211.549137 -100.663636 
L 210.626116 -100.663636 
L 209.703095 -100.663636 
L 208.780073 -100.663636 
L 207.857052 -100.663636 
L 206.934031 -100.663636 
L 206.011009 -100.663636 
L 205.087988 -100.663636 
L 204.164967 -100.663636 
L 203.241945 -100.663636 
L 202.318924 -100.663636 
L 201.395903 -100.663636 
L 200.472882 -100.663636 
L 199.54986 -100.663636 
L 198.626839 -100.663636 
L 197.703818 -100.663636 
L 196.780796 -100.663636 
L 195.857775 -100.663636 
L 194.934754 -100.663636 
L 194.011732 -100.663636 
L 193.088711 -100.663636 
L 192.16569 -100.663636 
L 191.242668 -100.663636 
L 190.319647 -100.663636 
L 189.396626 -100.663636 
L 188.473604 -100.663636 
L 187.550583 -100.663636 
L 186.627562 -100.663636 
L 185.70454 -100.663636 
L 184.781519 -100.663636 
L 183.858498 -100.663636 
L 182.935476 -100.663636 
L 182.012455 -100.663636 
L 181.089434 -100.663636 
L 180.166412 -100.663636 
L 179.243391 -100.663636 
L 178.32037 -100.663636 
L 177.397348 -100.663636 
L 176.474327 -100.663636 
L 175.551306 -100.663636 
L 174.628284 -100.663636 
L 173.705263 -100.663636 
L 172.782242 -100.663636 
L 171.85922 -100.663636 
L 170.936199 -100.663636 
L 170.013178 -100.663636 
L 169.090156 -100.663636 
L 168.167135 -100.663636 
L 167.244114 -100.663636 
L 166.321092 -100.663636 
L 165.398071 -100.663636 
L 164.47505 -100.663636 
L 163.552028 -100.663636 
L 162.629007 -100.663636 
L 161.705986 -100.663636 
L 160.782964 -100.663636 
L 159.859943 -100.663636 
L 158.936922 -100.663636 
L 158.0139 -100.663636 
L 157.090879 -100.663636 
L 156.167858 -100.663636 
L 155.244836 -100.663636 
L 154.321815 -100.663636 
L 153.398794 -100.663636 
L 152.475772 -100.663636 
L 151.552751 -100.663636 
L 150.62973 -100.663636 
L 149.706708 -100.663636 
L 148.783687 -100.663636 
L 147.860666 -100.663636 
L 146.937644 -100.663636 
L 146.014623 -100.663636 
L 145.091602 -100.663636 
L 144.16858 -100.663636 
L 143.245559 -100.663636 
L 142.322538 -100.663636 
L 141.399516 -100.663636 
L 140.476495 -100.663636 
L 139.553474 -100.663636 
L 138.630452 -100.663636 
L 137.707431 -100.663636 
L 136.78441 -100.663636 
L 135.861388 -100.663636 
L 134.938367 -100.663636 
L 134.015346 -100.663636 
L 133.092324 -100.663636 
L 132.169303 -100.663636 
L 131.246282 -100.663636 
L 130.32326 -100.663636 
L 129.400239 -100.663636 
L 128.477218 -100.663636 
L 127.554196 -100.663636 
L 126.631175 -100.663636 
L 125.708154 -100.663636 
L 124.785132 -100.663636 
L 123.862111 -100.663636 
L 122.93909 -100.663636 
L 122.016068 -100.663636 
L 121.093047 -100.663636 
L 120.170026 -100.663636 
L 119.247004 -100.663636 
L 118.323983 -100.663636 
L 117.400962 -100.663636 
L 116.47794 -100.663636 
L 115.554919 -100.663636 
L 114.631898 -100.663636 
L 113.708876 -100.663636 
L 112.785855 -100.663636 
L 111.862834 -100.663636 
L 110.939812 -100.663636 
L 110.016791 -100.663636 
L 109.09377 -100.663636 
L 108.170748 -100.663636 
L 107.247727 -100.663636 
L 106.324706 -100.663636 
L 105.401684 -100.663636 
L 104.478663 -100.663636 
L 103.555642 -100.663636 
L 102.63262 -100.663636 
L 101.709599 -100.663636 
L 100.786578 -100.663636 
L 99.863556 -100.663636 
L 98.940535 -100.663636 
L 98.017514 -100.663636 
L 97.094492 -100.663636 
L 96.171471 -100.663636 
L 95.24845 -100.663636 
L 94.325428 -100.663636 
L 93.402407 -100.663636 
L 92.479386 -100.663636 
L 91.556364 -100.663636 
L 90.633343 -100.663636 
L 89.710322 -100.663636 
L 88.7873 -100.663636 
L 87.864279 -100.663636 
L 86.941258 -100.663636 
L 86.018236 -100.663636 
L 85.095215 -100.663636 
L 84.172194 -100.663636 
L 83.249172 -100.663636 
L 82.326151 -100.663636 
L 81.40313 -100.663636 
L 80.480108 -100.663636 
L 79.557087 -100.663636 
L 78.634066 -100.663636 
L 77.711044 -100.663636 
L 76.788023 -100.663636 
L 75.865002 -100.663636 
L 74.94198 -100.663636 
L 74.018959 -100.663636 
L 73.095938 -100.663636 
L 72.172916 -100.663636 
L 71.249895 -100.663636 
L 70.326874 -100.663636 
L 69.403852 -100.663636 
L 68.480831 -100.663636 
L 67.55781 -100.663636 
L 66.634788 -100.663636 
L 65.711767 -100.663636 
L 64.788746 -100.663636 
L 63.865724 -100.663636 
L 62.942703 -100.663636 
L 62.019682 -100.663636 
L 61.09666 -100.663636 
L 60.173639 -100.663636 
L 59.250618 -100.663636 
L 58.327596 -100.663636 
L 57.404575 -100.663636 
L 56.481554 -100.663636 
z
" style="stroke: #7570b3; stroke-opacity: 0.6; stroke-width: 0.3"/>
    </defs>
    <g clip-path="url(#pf16e10df17)">
     <use xlink:href="#m1ccda61efb" x="0" y="504" style="fill: #7570b3; fill-opacity: 0.6; stroke: #7570b3; stroke-opacity: 0.6; stroke-width: 0.3"/>
    </g>
   </g>
   <g id="line2d_5">
    <path d="M 56.481554 399.345109 
L 62.019682 399.223061 
L 66.634788 398.936907 
L 70.326874 398.570336 
L 74.94198 397.949348 
L 79.557087 397.157214 
L 85.095215 396.005012 
L 90.633343 394.640765 
L 96.171471 393.044897 
L 100.786578 391.411716 
L 104.478663 389.898181 
L 108.170748 388.094031 
L 110.939812 386.544707 
L 113.708876 384.851658 
L 117.400962 382.334076 
L 120.170026 380.251353 
L 122.93909 378.029938 
L 128.477218 373.157087 
L 133.092324 368.733323 
L 139.553474 362.053944 
L 144.16858 356.978486 
L 148.783687 351.526888 
L 153.398794 345.710026 
L 157.090879 340.671598 
L 160.782964 335.315972 
L 165.398071 328.110945 
L 170.013178 320.499781 
L 182.935476 299.004255 
L 188.473604 290.416476 
L 194.011732 281.853516 
L 197.703818 275.792006 
L 200.472882 270.87874 
L 203.241945 265.50191 
L 206.011009 259.592726 
L 208.780073 253.09773 
L 212.472159 243.555448 
L 216.164244 233.145061 
L 229.086543 195.694711 
L 231.855607 188.538997 
L 234.624671 181.957136 
L 237.393735 175.934311 
L 240.162799 170.510072 
L 242.931863 165.624868 
L 245.700927 161.189711 
L 249.393012 155.768671 
L 253.085097 150.78909 
L 257.700204 144.928523 
L 262.315311 139.256909 
L 266.930417 133.764584 
L 275.237609 124.37965 
L 278.006673 121.592149 
L 280.775737 119.10691 
L 282.62178 117.660498 
L 285.390844 115.838967 
L 287.236887 114.957881 
L 289.082929 114.362071 
L 290.928972 114.09143 
L 292.775015 114.122165 
L 294.621057 114.533939 
L 296.4671 115.269397 
L 298.313143 116.370498 
L 300.159185 117.774172 
L 302.005228 119.474141 
L 303.851271 121.464543 
L 305.697313 123.686678 
L 308.466377 127.361735 
L 313.081484 134.071649 
L 318.619612 142.586976 
L 325.080761 152.907511 
L 331.541911 163.775686 
L 336.157017 172.10916 
L 342.618167 184.591357 
L 350.002337 199.204656 
L 366.616721 232.613174 
L 373.077871 246.273028 
L 380.462041 262.485196 
L 395.230383 295.393301 
L 399.845489 305.015836 
L 404.460596 314.032831 
L 408.152681 320.699965 
L 412.767788 328.566171 
L 419.228937 338.943697 
L 424.767065 347.44109 
L 430.305193 355.407303 
L 433.997279 360.292804 
L 437.689364 364.706336 
L 440.458428 367.662835 
L 443.227492 370.329305 
L 445.996556 372.713135 
L 448.76562 374.850564 
L 451.534684 376.756922 
L 455.226769 378.989586 
L 458.918854 380.985764 
L 462.61094 382.763747 
L 467.226046 384.733785 
L 472.764174 386.813488 
L 480.148345 389.247203 
L 491.224601 392.584945 
L 502.300857 395.795938 
L 507.838985 397.151441 
L 512.454092 398.055936 
L 517.069198 398.700339 
L 522.607326 399.128683 
L 528.145454 399.278486 
L 528.145454 399.278486 
" clip-path="url(#pf16e10df17)" style="fill: none; stroke: #7570b3; stroke-width: 2; stroke-linecap: round"/>
   </g>
   <g id="line2d_6">
    <path d="M 162.401004 397.261636 
L 406.056832 397.261636 
" clip-path="url(#pf16e10df17)" style="fill: none; stroke: #000000; stroke-width: 3.5"/>
   </g>
   <g id="patch_3">
    <path d="M 32.898359 417.8 
L 551.728649 417.8 
" style="fill: none; stroke: #333333; stroke-width: 1.5; stroke-linejoin: miter; stroke-linecap: square"/>
   </g>
   <g id="text_3">
    <text style="font-size: 52px; font-family: 'DejaVu Serif', 'Times New Roman', serif; text-anchor: end; fill: #262626" x="162.401004" y="382.074818" transform="rotate(-0 162.401004 382.074818)">0.13 </text>
   </g>
   <g id="text_4">
    <text style="font-size: 52px; font-family: 'DejaVu Serif', 'Times New Roman', serif; text-anchor: start; fill: #262626" x="406.056832" y="382.074818" transform="rotate(-0 406.056832 382.074818)"> 0.14</text>
   </g>
   <g id="text_5">
    <text style="font-size: 52px; font-family: 'DejaVu Serif', 'Times New Roman', serif; text-anchor: middle; fill: #262626" x="284.228918" y="312.215455" transform="rotate(-0 284.228918 312.215455)">90%</text>
   </g>
   <g id="text_6">
    <!-- $\mu$=0.14 -->
    <g style="fill: #262626" transform="translate(193.13445 160.347273)">
     <text>
      <tspan x="0" y="-0.40625" style="font-style: oblique; font-size: 52px; font-family: 'DejaVu Sans'; fill: #262626">μ</tspan>
      <tspan x="33.083984" y="-0.40625" style="font-size: 52px; font-family: 'DejaVu Serif'; fill: #262626">=</tspan>
      <tspan x="76.654297" y="-0.40625" style="font-size: 52px; font-family: 'DejaVu Serif'; fill: #262626">0</tspan>
      <tspan x="109.738281" y="-0.40625" style="font-size: 52px; font-family: 'DejaVu Serif'; fill: #262626">.</tspan>
      <tspan x="126.267578" y="-0.40625" style="font-size: 52px; font-family: 'DejaVu Serif'; fill: #262626">1</tspan>
      <tspan x="159.351562" y="-0.40625" style="font-size: 52px; font-family: 'DejaVu Serif'; fill: #262626">4</tspan>
     </text>
    </g>
   </g>
   <g id="text_7">
    <!-- $\sigma$ -->
    <g style="fill: #262626" transform="translate(267.993504 83.794375)">
     <text>
      <tspan x="0" y="-0.40625" style="font-style: oblique; font-size: 76px; font-family: 'DejaVu Sans'; fill: #262626">σ</tspan>
     </text>
    </g>
   </g>
  </g>
 </g>
 <defs>
  <clipPath id="pf16e10df17">
   <rect x="32.898359" y="99.6" width="518.830291" height="318.2"/>
  </clipPath>
 </defs>
</svg>
