<?xml version="1.0" encoding="utf-8" standalone="no"?>
<!DOCTYPE svg PUBLIC "-//W3C//DTD SVG 1.1//EN"
  "http://www.w3.org/Graphics/SVG/1.1/DTD/svg11.dtd">
<svg xmlns:xlink="http://www.w3.org/1999/xlink" width="648pt" height="504pt" viewBox="0 0 648 504" xmlns="http://www.w3.org/2000/svg" version="1.1">
 <metadata>
  <rdf:RDF xmlns:dc="http://purl.org/dc/elements/1.1/" xmlns:cc="http://creativecommons.org/ns#" xmlns:rdf="http://www.w3.org/1999/02/22-rdf-syntax-ns#">
   <cc:Work>
    <dc:type rdf:resource="http://purl.org/dc/dcmitype/StillImage"/>
    <dc:date>2026-02-22T16:15:36.647038</dc:date>
    <dc:format>image/svg+xml</dc:format>
    <dc:creator>
     <cc:Agent>
      <dc:title>Matplotlib v3.10.6, https://matplotlib.org/</dc:title>
     </cc:Agent>
    </dc:creator>
   </cc:Work>
  </rdf:RDF>
 </metadata>
 <defs>
  <style type="text/css">*{stroke-linejoin: round; stroke-linecap: butt}</style>
 </defs>
 <g id="figure_1">
  <g id="patch_1">
   <path d="M 0 504 
L 648 504 
L 648 0 
L 0 0 
L 0 504 
z
" style="fill: none; opacity: 0"/>
  </g>
  <g id="axes_1">
   <g id="patch_2">
    <path d="M 91.275993 417.8 
L 600.462299 417.8 
L 600.462299 115.932 
L 91.275993 115.932 
L 91.275993 417.8 
z
" style="fill: none"/>
   </g>
   <g id="matplotlib.axis_1">
    <g id="xtick_1">
     <g id="line2d_1">
      <path d="M 105.806871 417.8 
L 105.806871 115.932 
" clip-path="url(#p3d4ae6a9da)" style="fill: none; stroke: #ffffff; stroke-opacity: 0.4; stroke-linecap: round"/>
     </g>
     <g id="line2d_2">
      <defs>
       <path id="m137a24c195" d="M 0 0 
L 0 3 
" style="stroke: #808080"/>
      </defs>
      <g>
       <use xlink:href="#m137a24c195" x="105.806871" y="417.8" style="fill: #808080; stroke: #808080"/>
      </g>
     </g>
     <g id="text_1">
      <text style="font-size: 52px; font-family: 'DejaVu Serif', 'Times New Roman', serif; text-anchor: middle; fill: #262626" x="105.806871" y="467.311875" transform="rotate(-0 105.806871 467.311875)">−0.28</text>
     </g>
    </g>
    <g id="xtick_2">
     <g id="line2d_3">
      <path d="M 281.651283 417.8 
L 281.651283 115.932 
" clip-path="url(#p3d4ae6a9da)" style="fill: none; stroke: #ffffff; stroke-opacity: 0.4; stroke-linecap: round"/>
     </g>
     <g id="line2d_4">
      <g>
       <use xlink:href="#m137a24c195" x="281.651283" y="417.8" style="fill: #808080; stroke: #808080"/>
      </g>
     </g>
     <g id="text_2">
      <text style="font-size: 52px; font-family: 'DejaVu Serif', 'Times New Roman', serif; text-anchor: middle; fill: #262626" x="281.651283" y="467.311875" transform="rotate(-0 281.651283 467.311875)">−0.26</text>
     </g>
    </g>
    <g id="xtick_3">
     <g id="line2d_5">
      <path d="M 457.495694 417.8 
L 457.495694 115.932 
" clip-path="url(#p3d4ae6a9da)" style="fill: none; stroke: #ffffff; stroke-opacity: 0.4; stroke-linecap: round"/>
     </g>
     <g id="line2d_6">
      <g>
       <use xlink:href="#m137a24c195" x="457.495694" y="417.8" style="fill: #808080; stroke: #808080"/>
      </g>
     </g>
     <g id="text_3">
      <text style="font-size: 52px; font-family: 'DejaVu Serif', 'Times New Roman', serif; text-anchor: middle; fill: #262626" x="457.495694" y="467.311875" transform="rotate(-0 457.495694 467.311875)">−0.24</text>
     </g>
    </g>
   </g>
   <g id="matplotlib.axis_2"/>
   <g id="FillBetweenPolyCollection_1">
    <defs>
     <path id="m846dd71c19" d="M 114.420825 -99.921273 
L 114.420825 -101.887427 
L 115.32669 -101.884127 
L 116.232554 -101.882466 
L 117.138418 -101.895524 
L 118.044282 -101.90928 
L 118.950147 -101.926457 
L 119.856011 -101.947399 
L 120.761875 -101.972476 
L 121.66774 -102.002073 
L 122.573604 -102.036577 
L 123.479468 -102.076925 
L 124.385332 -102.126463 
L 125.291197 -102.179658 
L 126.197061 -102.236793 
L 127.102925 -102.303956 
L 128.008789 -102.37104 
L 128.914654 -102.453487 
L 129.820518 -102.545322 
L 130.726382 -102.644115 
L 131.632247 -102.746767 
L 132.538111 -102.852941 
L 133.443975 -102.967496 
L 134.349839 -103.086889 
L 135.255704 -103.21344 
L 136.161568 -103.344077 
L 137.067432 -103.478078 
L 137.973296 -103.614669 
L 138.879161 -103.750053 
L 139.785025 -103.885708 
L 140.690889 -104.02366 
L 141.596753 -104.160636 
L 142.502618 -104.292833 
L 143.408482 -104.424781 
L 144.314346 -104.553342 
L 145.220211 -104.677877 
L 146.126075 -104.800832 
L 147.031939 -104.919459 
L 147.937803 -105.030581 
L 148.843668 -105.133468 
L 149.749532 -105.236366 
L 150.655396 -105.337609 
L 151.56126 -105.429252 
L 152.467125 -105.523068 
L 153.372989 -105.611985 
L 154.278853 -105.695694 
L 155.184718 -105.777455 
L 156.090582 -105.861199 
L 156.996446 -105.943229 
L 157.90231 -106.024692 
L 158.808175 -106.117539 
L 159.714039 -106.209478 
L 160.619903 -106.312683 
L 161.525767 -106.420913 
L 162.431632 -106.532688 
L 163.337496 -106.663105 
L 164.24336 -106.802931 
L 165.149224 -106.959025 
L 166.055089 -107.130464 
L 166.960953 -107.318686 
L 167.866817 -107.525057 
L 168.772682 -107.741887 
L 169.678546 -107.992206 
L 170.58441 -108.256165 
L 171.490274 -108.547794 
L 172.396139 -108.851154 
L 173.302003 -109.179187 
L 174.207867 -109.52964 
L 175.113731 -109.911439 
L 176.019596 -110.314421 
L 176.92546 -110.731864 
L 177.831324 -111.173318 
L 178.737189 -111.635536 
L 179.643053 -112.123453 
L 180.548917 -112.643153 
L 181.454781 -113.169273 
L 182.360646 -113.713102 
L 183.26651 -114.279086 
L 184.172374 -114.860394 
L 185.078238 -115.458502 
L 185.984103 -116.07849 
L 186.889967 -116.689747 
L 187.795831 -117.322223 
L 188.701695 -117.957644 
L 189.60756 -118.610608 
L 190.513424 -119.260758 
L 191.419288 -119.920544 
L 192.325153 -120.575136 
L 193.231017 -121.244977 
L 194.136881 -121.902502 
L 195.042745 -122.567925 
L 195.94861 -123.22464 
L 196.854474 -123.894343 
L 197.760338 -124.55618 
L 198.666202 -125.21625 
L 199.572067 -125.872388 
L 200.477931 -126.533994 
L 201.383795 -127.192754 
L 202.28966 -127.870243 
L 203.195524 -128.544405 
L 204.101388 -129.2292 
L 205.007252 -129.921373 
L 205.913117 -130.622602 
L 206.818981 -131.334625 
L 207.724845 -132.04725 
L 208.630709 -132.778002 
L 209.536574 -133.532984 
L 210.442438 -134.31202 
L 211.348302 -135.099577 
L 212.254166 -135.913169 
L 213.160031 -136.749304 
L 214.065895 -137.599658 
L 214.971759 -138.469759 
L 215.877624 -139.365926 
L 216.783488 -140.291367 
L 217.689352 -141.255821 
L 218.595216 -142.25372 
L 219.501081 -143.283892 
L 220.406945 -144.342246 
L 221.312809 -145.411517 
L 222.218673 -146.505591 
L 223.124538 -147.623666 
L 224.030402 -148.791118 
L 224.936266 -149.967573 
L 225.84213 -151.18827 
L 226.747995 -152.424786 
L 227.653859 -153.697703 
L 228.559723 -154.997234 
L 229.465588 -156.335798 
L 230.371452 -157.701068 
L 231.277316 -159.09332 
L 232.18318 -160.515702 
L 233.089045 -161.982705 
L 233.994909 -163.475685 
L 234.900773 -165.006257 
L 235.806637 -166.565556 
L 236.712502 -168.172654 
L 237.618366 -169.816128 
L 238.52423 -171.499392 
L 239.430095 -173.229939 
L 240.335959 -175.015149 
L 241.241823 -176.826094 
L 242.147687 -178.668554 
L 243.053552 -180.551185 
L 243.959416 -182.476764 
L 244.86528 -184.450885 
L 245.771144 -186.459447 
L 246.677009 -188.491666 
L 247.582873 -190.577463 
L 248.488737 -192.69606 
L 249.394601 -194.830985 
L 250.300466 -196.994605 
L 251.20633 -199.185331 
L 252.112194 -201.389173 
L 253.018059 -203.610526 
L 253.923923 -205.850878 
L 254.829787 -208.101055 
L 255.735651 -210.347299 
L 256.641516 -212.592512 
L 257.54738 -214.867598 
L 258.453244 -217.136292 
L 259.359108 -219.384094 
L 260.264973 -221.636683 
L 261.170837 -223.883536 
L 262.076701 -226.138507 
L 262.982566 -228.381842 
L 263.88843 -230.633279 
L 264.794294 -232.863956 
L 265.700158 -235.085329 
L 266.606023 -237.312987 
L 267.511887 -239.53773 
L 268.417751 -241.763999 
L 269.323615 -243.990346 
L 270.22948 -246.205756 
L 271.135344 -248.410083 
L 272.041208 -250.617163 
L 272.947072 -252.834706 
L 273.852937 -255.029324 
L 274.758801 -257.220223 
L 275.664665 -259.427471 
L 276.57053 -261.580244 
L 277.476394 -263.746494 
L 278.382258 -265.886033 
L 279.288122 -267.993973 
L 280.193987 -270.075786 
L 281.099851 -272.134337 
L 282.005715 -274.145176 
L 282.911579 -276.14162 
L 283.817444 -278.097957 
L 284.723308 -280.040365 
L 285.629172 -281.959101 
L 286.535037 -283.83841 
L 287.440901 -285.648684 
L 288.346765 -287.444407 
L 289.252629 -289.197434 
L 290.158494 -290.920805 
L 291.064358 -292.629412 
L 291.970222 -294.2997 
L 292.876086 -295.968884 
L 293.781951 -297.621664 
L 294.687815 -299.242431 
L 295.593679 -300.868979 
L 296.499543 -302.494561 
L 297.405408 -304.123071 
L 298.311272 -305.777656 
L 299.217136 -307.466702 
L 300.123001 -309.173005 
L 301.028865 -310.927078 
L 301.934729 -312.690492 
L 302.840593 -314.494063 
L 303.746458 -316.299508 
L 304.652322 -318.1422 
L 305.558186 -320.042507 
L 306.46405 -321.960411 
L 307.369915 -323.91217 
L 308.275779 -325.909855 
L 309.181643 -327.922023 
L 310.087508 -329.953745 
L 310.993372 -332.002764 
L 311.899236 -334.071097 
L 312.8051 -336.093326 
L 313.710965 -338.16069 
L 314.616829 -340.18097 
L 315.522693 -342.210972 
L 316.428557 -344.203405 
L 317.334422 -346.177387 
L 318.240286 -348.112879 
L 319.14615 -350.00293 
L 320.052014 -351.846842 
L 320.957879 -353.634753 
L 321.863743 -355.352485 
L 322.769607 -357.019326 
L 323.675472 -358.60998 
L 324.581336 -360.154501 
L 325.4872 -361.590526 
L 326.393064 -362.966241 
L 327.298929 -364.268932 
L 328.204793 -365.493609 
L 329.110657 -366.606266 
L 330.016521 -367.661995 
L 330.922386 -368.637177 
L 331.82825 -369.549718 
L 332.734114 -370.34823 
L 333.639978 -371.069128 
L 334.545843 -371.707372 
L 335.451707 -372.278431 
L 336.357571 -372.769999 
L 337.263436 -373.220481 
L 338.1693 -373.575061 
L 339.075164 -373.854155 
L 339.981028 -374.058133 
L 340.886893 -374.239572 
L 341.792757 -374.317456 
L 342.698621 -374.346727 
L 343.604485 -374.329822 
L 344.51035 -374.264222 
L 345.416214 -374.112836 
L 346.322078 -373.954693 
L 347.227943 -373.719139 
L 348.133807 -373.450402 
L 349.039671 -373.138001 
L 349.945535 -372.801914 
L 350.8514 -372.425293 
L 351.757264 -372.021409 
L 352.663128 -371.6027 
L 353.568992 -371.164885 
L 354.474857 -370.69478 
L 355.380721 -370.223026 
L 356.286585 -369.744438 
L 357.192449 -369.243204 
L 358.098314 -368.730846 
L 359.004178 -368.228799 
L 359.910042 -367.713362 
L 360.815907 -367.172018 
L 361.721771 -366.682068 
L 362.627635 -366.154334 
L 363.533499 -365.639515 
L 364.439364 -365.150775 
L 365.345228 -364.64315 
L 366.251092 -364.152668 
L 367.156956 -363.675885 
L 368.062821 -363.178287 
L 368.968685 -362.686023 
L 369.874549 -362.177465 
L 370.780414 -361.654584 
L 371.686278 -361.13841 
L 372.592142 -360.619575 
L 373.498006 -360.109299 
L 374.403871 -359.579475 
L 375.309735 -359.02396 
L 376.215599 -358.457312 
L 377.121463 -357.882276 
L 378.027328 -357.275714 
L 378.933192 -356.629743 
L 379.839056 -355.962773 
L 380.74492 -355.222366 
L 381.650785 -354.474319 
L 382.556649 -353.659195 
L 383.462513 -352.778984 
L 384.368378 -351.861046 
L 385.274242 -350.882229 
L 386.180106 -349.838848 
L 387.08597 -348.741413 
L 387.991835 -347.58496 
L 388.897699 -346.371303 
L 389.803563 -345.107312 
L 390.709427 -343.796008 
L 391.615292 -342.441425 
L 392.521156 -341.019614 
L 393.42702 -339.504588 
L 394.332885 -337.938365 
L 395.238749 -336.354446 
L 396.144613 -334.7133 
L 397.050477 -333.034128 
L 397.956342 -331.356133 
L 398.862206 -329.600085 
L 399.76807 -327.839467 
L 400.673934 -326.022082 
L 401.579799 -324.229243 
L 402.485663 -322.395998 
L 403.391527 -320.577386 
L 404.297391 -318.771401 
L 405.203256 -316.948871 
L 406.10912 -315.130666 
L 407.014984 -313.33779 
L 407.920849 -311.531801 
L 408.826713 -309.769052 
L 409.732577 -308.000586 
L 410.638441 -306.270004 
L 411.544306 -304.576707 
L 412.45017 -302.904404 
L 413.356034 -301.241808 
L 414.261898 -299.615764 
L 415.167763 -297.981384 
L 416.073627 -296.379049 
L 416.979491 -294.78558 
L 417.885356 -293.243667 
L 418.79122 -291.711438 
L 419.697084 -290.200056 
L 420.602948 -288.676033 
L 421.508813 -287.165122 
L 422.414677 -285.63406 
L 423.320541 -284.138086 
L 424.226405 -282.64721 
L 425.13227 -281.138767 
L 426.038134 -279.606254 
L 426.943998 -278.089232 
L 427.849862 -276.517337 
L 428.755727 -274.930367 
L 429.661591 -273.317247 
L 430.567455 -271.691968 
L 431.47332 -269.997628 
L 432.379184 -268.307998 
L 433.285048 -266.5591 
L 434.190912 -264.759218 
L 435.096777 -262.920295 
L 436.002641 -261.040583 
L 436.908505 -259.121996 
L 437.814369 -257.135913 
L 438.720234 -255.111592 
L 439.626098 -253.051614 
L 440.531962 -250.953992 
L 441.437827 -248.796916 
L 442.343691 -246.6258 
L 443.249555 -244.392333 
L 444.155419 -242.143638 
L 445.061284 -239.850417 
L 445.967148 -237.544428 
L 446.873012 -235.20448 
L 447.778876 -232.867462 
L 448.684741 -230.490764 
L 449.590605 -228.114807 
L 450.496469 -225.728911 
L 451.402333 -223.331167 
L 452.308198 -220.92502 
L 453.214062 -218.537048 
L 454.119926 -216.150351 
L 455.025791 -213.793134 
L 455.931655 -211.446724 
L 456.837519 -209.109633 
L 457.743383 -206.802081 
L 458.649248 -204.50033 
L 459.555112 -202.232773 
L 460.460976 -199.989885 
L 461.36684 -197.764028 
L 462.272705 -195.563781 
L 463.178569 -193.389196 
L 464.084433 -191.251396 
L 464.990297 -189.153776 
L 465.896162 -187.109076 
L 466.802026 -185.07348 
L 467.70789 -183.080842 
L 468.613755 -181.130517 
L 469.519619 -179.19952 
L 470.425483 -177.318912 
L 471.331347 -175.467346 
L 472.237212 -173.668147 
L 473.143076 -171.891532 
L 474.04894 -170.182691 
L 474.954804 -168.496394 
L 475.860669 -166.818718 
L 476.766533 -165.211504 
L 477.672397 -163.648198 
L 478.578262 -162.145498 
L 479.484126 -160.673188 
L 480.38999 -159.224414 
L 481.295854 -157.810174 
L 482.201719 -156.442417 
L 483.107583 -155.110508 
L 484.013447 -153.810192 
L 484.919311 -152.558602 
L 485.825176 -151.347043 
L 486.73104 -150.143414 
L 487.636904 -148.981454 
L 488.542768 -147.822055 
L 489.448633 -146.698303 
L 490.354497 -145.604289 
L 491.260361 -144.541098 
L 492.166226 -143.495003 
L 493.07209 -142.476312 
L 493.977954 -141.459201 
L 494.883818 -140.465302 
L 495.789683 -139.492734 
L 496.695547 -138.522461 
L 497.601411 -137.5711 
L 498.507275 -136.653315 
L 499.41314 -135.743814 
L 500.319004 -134.850236 
L 501.224868 -133.960461 
L 502.130733 -133.095802 
L 503.036597 -132.230491 
L 503.942461 -131.385022 
L 504.848325 -130.569411 
L 505.75419 -129.769591 
L 506.660054 -128.980972 
L 507.565918 -128.215484 
L 508.471782 -127.458147 
L 509.377647 -126.721101 
L 510.283511 -126.012883 
L 511.189375 -125.314666 
L 512.095239 -124.650402 
L 513.001104 -124.005473 
L 513.906968 -123.37166 
L 514.812832 -122.772744 
L 515.718697 -122.183734 
L 516.624561 -121.61873 
L 517.530425 -121.057041 
L 518.436289 -120.52669 
L 519.342154 -120.014726 
L 520.248018 -119.515294 
L 521.153882 -119.030738 
L 522.059746 -118.555506 
L 522.965611 -118.101891 
L 523.871475 -117.650587 
L 524.777339 -117.219739 
L 525.683204 -116.792947 
L 526.589068 -116.393275 
L 527.494932 -115.99223 
L 528.400796 -115.607757 
L 529.306661 -115.220844 
L 530.212525 -114.852393 
L 531.118389 -114.485341 
L 532.024253 -114.123357 
L 532.930118 -113.76411 
L 533.835982 -113.422107 
L 534.741846 -113.075596 
L 535.64771 -112.751145 
L 536.553575 -112.426744 
L 537.459439 -112.107814 
L 538.365303 -111.793821 
L 539.271168 -111.487224 
L 540.177032 -111.176042 
L 541.082896 -110.876809 
L 541.98876 -110.58782 
L 542.894625 -110.300868 
L 543.800489 -110.009308 
L 544.706353 -109.72959 
L 545.612217 -109.465888 
L 546.518082 -109.199858 
L 547.423946 -108.944741 
L 548.32981 -108.696626 
L 549.235675 -108.4528 
L 550.141539 -108.208649 
L 551.047403 -107.970151 
L 551.953267 -107.737309 
L 552.859132 -107.514978 
L 553.764996 -107.292546 
L 554.67086 -107.073555 
L 555.576724 -106.869293 
L 556.482589 -106.666203 
L 557.388453 -106.47703 
L 558.294317 -106.29077 
L 559.200181 -106.107683 
L 560.106046 -105.934445 
L 561.01191 -105.768327 
L 561.917774 -105.60959 
L 562.823639 -105.456641 
L 563.729503 -105.306677 
L 564.635367 -105.168085 
L 565.541231 -105.040408 
L 566.447096 -104.920302 
L 567.35296 -104.810933 
L 568.258824 -104.709565 
L 569.164688 -104.615854 
L 570.070553 -104.525122 
L 570.976417 -104.445688 
L 571.882281 -104.375132 
L 572.788145 -104.315858 
L 573.69401 -104.273339 
L 574.599874 -104.226855 
L 575.505738 -104.197306 
L 576.411603 -104.173429 
L 577.317467 -104.156342 
L 577.317467 -99.921273 
L 577.317467 -99.921273 
L 576.411603 -99.921273 
L 575.505738 -99.921273 
L 574.599874 -99.921273 
L 573.69401 -99.921273 
L 572.788145 -99.921273 
L 571.882281 -99.921273 
L 570.976417 -99.921273 
L 570.070553 -99.921273 
L 569.164688 -99.921273 
L 568.258824 -99.921273 
L 567.35296 -99.921273 
L 566.447096 -99.921273 
L 565.541231 -99.921273 
L 564.635367 -99.921273 
L 563.729503 -99.921273 
L 562.823639 -99.921273 
L 561.917774 -99.921273 
L 561.01191 -99.921273 
L 560.106046 -99.921273 
L 559.200181 -99.921273 
L 558.294317 -99.921273 
L 557.388453 -99.921273 
L 556.482589 -99.921273 
L 555.576724 -99.921273 
L 554.67086 -99.921273 
L 553.764996 -99.921273 
L 552.859132 -99.921273 
L 551.953267 -99.921273 
L 551.047403 -99.921273 
L 550.141539 -99.921273 
L 549.235675 -99.921273 
L 548.32981 -99.921273 
L 547.423946 -99.921273 
L 546.518082 -99.921273 
L 545.612217 -99.921273 
L 544.706353 -99.921273 
L 543.800489 -99.921273 
L 542.894625 -99.921273 
L 541.98876 -99.921273 
L 541.082896 -99.921273 
L 540.177032 -99.921273 
L 539.271168 -99.921273 
L 538.365303 -99.921273 
L 537.459439 -99.921273 
L 536.553575 -99.921273 
L 535.64771 -99.921273 
L 534.741846 -99.921273 
L 533.835982 -99.921273 
L 532.930118 -99.921273 
L 532.024253 -99.921273 
L 531.118389 -99.921273 
L 530.212525 -99.921273 
L 529.306661 -99.921273 
L 528.400796 -99.921273 
L 527.494932 -99.921273 
L 526.589068 -99.921273 
L 525.683204 -99.921273 
L 524.777339 -99.921273 
L 523.871475 -99.921273 
L 522.965611 -99.921273 
L 522.059746 -99.921273 
L 521.153882 -99.921273 
L 520.248018 -99.921273 
L 519.342154 -99.921273 
L 518.436289 -99.921273 
L 517.530425 -99.921273 
L 516.624561 -99.921273 
L 515.718697 -99.921273 
L 514.812832 -99.921273 
L 513.906968 -99.921273 
L 513.001104 -99.921273 
L 512.095239 -99.921273 
L 511.189375 -99.921273 
L 510.283511 -99.921273 
L 509.377647 -99.921273 
L 508.471782 -99.921273 
L 507.565918 -99.921273 
L 506.660054 -99.921273 
L 505.75419 -99.921273 
L 504.848325 -99.921273 
L 503.942461 -99.921273 
L 503.036597 -99.921273 
L 502.130733 -99.921273 
L 501.224868 -99.921273 
L 500.319004 -99.921273 
L 499.41314 -99.921273 
L 498.507275 -99.921273 
L 497.601411 -99.921273 
L 496.695547 -99.921273 
L 495.789683 -99.921273 
L 494.883818 -99.921273 
L 493.977954 -99.921273 
L 493.07209 -99.921273 
L 492.166226 -99.921273 
L 491.260361 -99.921273 
L 490.354497 -99.921273 
L 489.448633 -99.921273 
L 488.542768 -99.921273 
L 487.636904 -99.921273 
L 486.73104 -99.921273 
L 485.825176 -99.921273 
L 484.919311 -99.921273 
L 484.013447 -99.921273 
L 483.107583 -99.921273 
L 482.201719 -99.921273 
L 481.295854 -99.921273 
L 480.38999 -99.921273 
L 479.484126 -99.921273 
L 478.578262 -99.921273 
L 477.672397 -99.921273 
L 476.766533 -99.921273 
L 475.860669 -99.921273 
L 474.954804 -99.921273 
L 474.04894 -99.921273 
L 473.143076 -99.921273 
L 472.237212 -99.921273 
L 471.331347 -99.921273 
L 470.425483 -99.921273 
L 469.519619 -99.921273 
L 468.613755 -99.921273 
L 467.70789 -99.921273 
L 466.802026 -99.921273 
L 465.896162 -99.921273 
L 464.990297 -99.921273 
L 464.084433 -99.921273 
L 463.178569 -99.921273 
L 462.272705 -99.921273 
L 461.36684 -99.921273 
L 460.460976 -99.921273 
L 459.555112 -99.921273 
L 458.649248 -99.921273 
L 457.743383 -99.921273 
L 456.837519 -99.921273 
L 455.931655 -99.921273 
L 455.025791 -99.921273 
L 454.119926 -99.921273 
L 453.214062 -99.921273 
L 452.308198 -99.921273 
L 451.402333 -99.921273 
L 450.496469 -99.921273 
L 449.590605 -99.921273 
L 448.684741 -99.921273 
L 447.778876 -99.921273 
L 446.873012 -99.921273 
L 445.967148 -99.921273 
L 445.061284 -99.921273 
L 444.155419 -99.921273 
L 443.249555 -99.921273 
L 442.343691 -99.921273 
L 441.437827 -99.921273 
L 440.531962 -99.921273 
L 439.626098 -99.921273 
L 438.720234 -99.921273 
L 437.814369 -99.921273 
L 436.908505 -99.921273 
L 436.002641 -99.921273 
L 435.096777 -99.921273 
L 434.190912 -99.921273 
L 433.285048 -99.921273 
L 432.379184 -99.921273 
L 431.47332 -99.921273 
L 430.567455 -99.921273 
L 429.661591 -99.921273 
L 428.755727 -99.921273 
L 427.849862 -99.921273 
L 426.943998 -99.921273 
L 426.038134 -99.921273 
L 425.13227 -99.921273 
L 424.226405 -99.921273 
L 423.320541 -99.921273 
L 422.414677 -99.921273 
L 421.508813 -99.921273 
L 420.602948 -99.921273 
L 419.697084 -99.921273 
L 418.79122 -99.921273 
L 417.885356 -99.921273 
L 416.979491 -99.921273 
L 416.073627 -99.921273 
L 415.167763 -99.921273 
L 414.261898 -99.921273 
L 413.356034 -99.921273 
L 412.45017 -99.921273 
L 411.544306 -99.921273 
L 410.638441 -99.921273 
L 409.732577 -99.921273 
L 408.826713 -99.921273 
L 407.920849 -99.921273 
L 407.014984 -99.921273 
L 406.10912 -99.921273 
L 405.203256 -99.921273 
L 404.297391 -99.921273 
L 403.391527 -99.921273 
L 402.485663 -99.921273 
L 401.579799 -99.921273 
L 400.673934 -99.921273 
L 399.76807 -99.921273 
L 398.862206 -99.921273 
L 397.956342 -99.921273 
L 397.050477 -99.921273 
L 396.144613 -99.921273 
L 395.238749 -99.921273 
L 394.332885 -99.921273 
L 393.42702 -99.921273 
L 392.521156 -99.921273 
L 391.615292 -99.921273 
L 390.709427 -99.921273 
L 389.803563 -99.921273 
L 388.897699 -99.921273 
L 387.991835 -99.921273 
L 387.08597 -99.921273 
L 386.180106 -99.921273 
L 385.274242 -99.921273 
L 384.368378 -99.921273 
L 383.462513 -99.921273 
L 382.556649 -99.921273 
L 381.650785 -99.921273 
L 380.74492 -99.921273 
L 379.839056 -99.921273 
L 378.933192 -99.921273 
L 378.027328 -99.921273 
L 377.121463 -99.921273 
L 376.215599 -99.921273 
L 375.309735 -99.921273 
L 374.403871 -99.921273 
L 373.498006 -99.921273 
L 372.592142 -99.921273 
L 371.686278 -99.921273 
L 370.780414 -99.921273 
L 369.874549 -99.921273 
L 368.968685 -99.921273 
L 368.062821 -99.921273 
L 367.156956 -99.921273 
L 366.251092 -99.921273 
L 365.345228 -99.921273 
L 364.439364 -99.921273 
L 363.533499 -99.921273 
L 362.627635 -99.921273 
L 361.721771 -99.921273 
L 360.815907 -99.921273 
L 359.910042 -99.921273 
L 359.004178 -99.921273 
L 358.098314 -99.921273 
L 357.192449 -99.921273 
L 356.286585 -99.921273 
L 355.380721 -99.921273 
L 354.474857 -99.921273 
L 353.568992 -99.921273 
L 352.663128 -99.921273 
L 351.757264 -99.921273 
L 350.8514 -99.921273 
L 349.945535 -99.921273 
L 349.039671 -99.921273 
L 348.133807 -99.921273 
L 347.227943 -99.921273 
L 346.322078 -99.921273 
L 345.416214 -99.921273 
L 344.51035 -99.921273 
L 343.604485 -99.921273 
L 342.698621 -99.921273 
L 341.792757 -99.921273 
L 340.886893 -99.921273 
L 339.981028 -99.921273 
L 339.075164 -99.921273 
L 338.1693 -99.921273 
L 337.263436 -99.921273 
L 336.357571 -99.921273 
L 335.451707 -99.921273 
L 334.545843 -99.921273 
L 333.639978 -99.921273 
L 332.734114 -99.921273 
L 331.82825 -99.921273 
L 330.922386 -99.921273 
L 330.016521 -99.921273 
L 329.110657 -99.921273 
L 328.204793 -99.921273 
L 327.298929 -99.921273 
L 326.393064 -99.921273 
L 325.4872 -99.921273 
L 324.581336 -99.921273 
L 323.675472 -99.921273 
L 322.769607 -99.921273 
L 321.863743 -99.921273 
L 320.957879 -99.921273 
L 320.052014 -99.921273 
L 319.14615 -99.921273 
L 318.240286 -99.921273 
L 317.334422 -99.921273 
L 316.428557 -99.921273 
L 315.522693 -99.921273 
L 314.616829 -99.921273 
L 313.710965 -99.921273 
L 312.8051 -99.921273 
L 311.899236 -99.921273 
L 310.993372 -99.921273 
L 310.087508 -99.921273 
L 309.181643 -99.921273 
L 308.275779 -99.921273 
L 307.369915 -99.921273 
L 306.46405 -99.921273 
L 305.558186 -99.921273 
L 304.652322 -99.921273 
L 303.746458 -99.921273 
L 302.840593 -99.921273 
L 301.934729 -99.921273 
L 301.028865 -99.921273 
L 300.123001 -99.921273 
L 299.217136 -99.921273 
L 298.311272 -99.921273 
L 297.405408 -99.921273 
L 296.499543 -99.921273 
L 295.593679 -99.921273 
L 294.687815 -99.921273 
L 293.781951 -99.921273 
L 292.876086 -99.921273 
L 291.970222 -99.921273 
L 291.064358 -99.921273 
L 290.158494 -99.921273 
L 289.252629 -99.921273 
L 288.346765 -99.921273 
L 287.440901 -99.921273 
L 286.535037 -99.921273 
L 285.629172 -99.921273 
L 284.723308 -99.921273 
L 283.817444 -99.921273 
L 282.911579 -99.921273 
L 282.005715 -99.921273 
L 281.099851 -99.921273 
L 280.193987 -99.921273 
L 279.288122 -99.921273 
L 278.382258 -99.921273 
L 277.476394 -99.921273 
L 276.57053 -99.921273 
L 275.664665 -99.921273 
L 274.758801 -99.921273 
L 273.852937 -99.921273 
L 272.947072 -99.921273 
L 272.041208 -99.921273 
L 271.135344 -99.921273 
L 270.22948 -99.921273 
L 269.323615 -99.921273 
L 268.417751 -99.921273 
L 267.511887 -99.921273 
L 266.606023 -99.921273 
L 265.700158 -99.921273 
L 264.794294 -99.921273 
L 263.88843 -99.921273 
L 262.982566 -99.921273 
L 262.076701 -99.921273 
L 261.170837 -99.921273 
L 260.264973 -99.921273 
L 259.359108 -99.921273 
L 258.453244 -99.921273 
L 257.54738 -99.921273 
L 256.641516 -99.921273 
L 255.735651 -99.921273 
L 254.829787 -99.921273 
L 253.923923 -99.921273 
L 253.018059 -99.921273 
L 252.112194 -99.921273 
L 251.20633 -99.921273 
L 250.300466 -99.921273 
L 249.394601 -99.921273 
L 248.488737 -99.921273 
L 247.582873 -99.921273 
L 246.677009 -99.921273 
L 245.771144 -99.921273 
L 244.86528 -99.921273 
L 243.959416 -99.921273 
L 243.053552 -99.921273 
L 242.147687 -99.921273 
L 241.241823 -99.921273 
L 240.335959 -99.921273 
L 239.430095 -99.921273 
L 238.52423 -99.921273 
L 237.618366 -99.921273 
L 236.712502 -99.921273 
L 235.806637 -99.921273 
L 234.900773 -99.921273 
L 233.994909 -99.921273 
L 233.089045 -99.921273 
L 232.18318 -99.921273 
L 231.277316 -99.921273 
L 230.371452 -99.921273 
L 229.465588 -99.921273 
L 228.559723 -99.921273 
L 227.653859 -99.921273 
L 226.747995 -99.921273 
L 225.84213 -99.921273 
L 224.936266 -99.921273 
L 224.030402 -99.921273 
L 223.124538 -99.921273 
L 222.218673 -99.921273 
L 221.312809 -99.921273 
L 220.406945 -99.921273 
L 219.501081 -99.921273 
L 218.595216 -99.921273 
L 217.689352 -99.921273 
L 216.783488 -99.921273 
L 215.877624 -99.921273 
L 214.971759 -99.921273 
L 214.065895 -99.921273 
L 213.160031 -99.921273 
L 212.254166 -99.921273 
L 211.348302 -99.921273 
L 210.442438 -99.921273 
L 209.536574 -99.921273 
L 208.630709 -99.921273 
L 207.724845 -99.921273 
L 206.818981 -99.921273 
L 205.913117 -99.921273 
L 205.007252 -99.921273 
L 204.101388 -99.921273 
L 203.195524 -99.921273 
L 202.28966 -99.921273 
L 201.383795 -99.921273 
L 200.477931 -99.921273 
L 199.572067 -99.921273 
L 198.666202 -99.921273 
L 197.760338 -99.921273 
L 196.854474 -99.921273 
L 195.94861 -99.921273 
L 195.042745 -99.921273 
L 194.136881 -99.921273 
L 193.231017 -99.921273 
L 192.325153 -99.921273 
L 191.419288 -99.921273 
L 190.513424 -99.921273 
L 189.60756 -99.921273 
L 188.701695 -99.921273 
L 187.795831 -99.921273 
L 186.889967 -99.921273 
L 185.984103 -99.921273 
L 185.078238 -99.921273 
L 184.172374 -99.921273 
L 183.26651 -99.921273 
L 182.360646 -99.921273 
L 181.454781 -99.921273 
L 180.548917 -99.921273 
L 179.643053 -99.921273 
L 178.737189 -99.921273 
L 177.831324 -99.921273 
L 176.92546 -99.921273 
L 176.019596 -99.921273 
L 175.113731 -99.921273 
L 174.207867 -99.921273 
L 173.302003 -99.921273 
L 172.396139 -99.921273 
L 171.490274 -99.921273 
L 170.58441 -99.921273 
L 169.678546 -99.921273 
L 168.772682 -99.921273 
L 167.866817 -99.921273 
L 166.960953 -99.921273 
L 166.055089 -99.921273 
L 165.149224 -99.921273 
L 164.24336 -99.921273 
L 163.337496 -99.921273 
L 162.431632 -99.921273 
L 161.525767 -99.921273 
L 160.619903 -99.921273 
L 159.714039 -99.921273 
L 158.808175 -99.921273 
L 157.90231 -99.921273 
L 156.996446 -99.921273 
L 156.090582 -99.921273 
L 155.184718 -99.921273 
L 154.278853 -99.921273 
L 153.372989 -99.921273 
L 152.467125 -99.921273 
L 151.56126 -99.921273 
L 150.655396 -99.921273 
L 149.749532 -99.921273 
L 148.843668 -99.921273 
L 147.937803 -99.921273 
L 147.031939 -99.921273 
L 146.126075 -99.921273 
L 145.220211 -99.921273 
L 144.314346 -99.921273 
L 143.408482 -99.921273 
L 142.502618 -99.921273 
L 141.596753 -99.921273 
L 140.690889 -99.921273 
L 139.785025 -99.921273 
L 138.879161 -99.921273 
L 137.973296 -99.921273 
L 137.067432 -99.921273 
L 136.161568 -99.921273 
L 135.255704 -99.921273 
L 134.349839 -99.921273 
L 133.443975 -99.921273 
L 132.538111 -99.921273 
L 131.632247 -99.921273 
L 130.726382 -99.921273 
L 129.820518 -99.921273 
L 128.914654 -99.921273 
L 128.008789 -99.921273 
L 127.102925 -99.921273 
L 126.197061 -99.921273 
L 125.291197 -99.921273 
L 124.385332 -99.921273 
L 123.479468 -99.921273 
L 122.573604 -99.921273 
L 121.66774 -99.921273 
L 120.761875 -99.921273 
L 119.856011 -99.921273 
L 118.950147 -99.921273 
L 118.044282 -99.921273 
L 117.138418 -99.921273 
L 116.232554 -99.921273 
L 115.32669 -99.921273 
L 114.420825 -99.921273 
z
" style="stroke: #2ca02c; stroke-opacity: 0.6; stroke-width: 0.3"/>
    </defs>
    <g clip-path="url(#p3d4ae6a9da)">
     <use xlink:href="#m846dd71c19" x="0" y="504" style="fill: #2ca02c; fill-opacity: 0.6; stroke: #2ca02c; stroke-opacity: 0.6; stroke-width: 0.3"/>
    </g>
   </g>
   <g id="line2d_7">
    <path d="M 114.420825 402.112573 
L 120.761875 402.027524 
L 126.197061 401.763207 
L 131.632247 401.253233 
L 137.067432 400.521922 
L 147.937803 398.969419 
L 156.090582 398.138801 
L 162.431632 397.467312 
L 166.055089 396.869536 
L 169.678546 396.007794 
L 172.396139 395.148846 
L 175.113731 394.088561 
L 178.737189 392.364464 
L 182.360646 390.286898 
L 185.984103 387.92151 
L 190.513424 384.739242 
L 205.007252 374.078627 
L 209.536574 370.467016 
L 213.160031 367.250696 
L 216.783488 363.708633 
L 219.501081 360.716108 
L 223.124538 356.376334 
L 226.747995 351.575214 
L 230.371452 346.298932 
L 233.089045 342.017295 
L 235.806637 337.434444 
L 238.52423 332.500608 
L 241.241823 327.173906 
L 243.959416 321.523236 
L 247.582873 313.422537 
L 252.112194 302.610827 
L 261.170837 280.116464 
L 271.135344 255.589917 
L 279.288122 236.006027 
L 282.911579 227.85838 
L 286.535037 220.16159 
L 290.158494 213.079195 
L 294.687815 204.757569 
L 300.123001 194.826995 
L 304.652322 185.8578 
L 308.275779 178.090145 
L 320.052014 152.153158 
L 322.769607 146.980674 
L 325.4872 142.409474 
L 327.298929 139.731068 
L 329.110657 137.393734 
L 330.922386 135.362823 
L 332.734114 133.65177 
L 334.545843 132.292628 
L 336.357571 131.230001 
L 338.1693 130.424939 
L 339.981028 129.941867 
L 341.792757 129.682544 
L 343.604485 129.670178 
L 345.416214 129.887164 
L 347.227943 130.280861 
L 349.945535 131.198086 
L 352.663128 132.3973 
L 356.286585 134.255562 
L 373.498006 143.890701 
L 377.121463 146.117724 
L 379.839056 148.037227 
L 382.556649 150.340805 
L 385.274242 153.117771 
L 387.991835 156.41504 
L 390.709427 160.203992 
L 392.521156 162.980386 
L 395.238749 167.645554 
L 398.862206 174.399915 
L 403.391527 183.422614 
L 410.638441 197.729996 
L 415.167763 206.018616 
L 418.79122 212.288562 
L 428.755727 229.069633 
L 432.379184 235.692002 
L 435.096777 241.079705 
L 437.814369 246.864087 
L 441.437827 255.203084 
L 445.061284 264.149583 
L 450.496469 278.271089 
L 457.743383 297.197919 
L 462.272705 308.436219 
L 465.896162 316.890924 
L 469.519619 324.80048 
L 473.143076 332.108468 
L 476.766533 338.788496 
L 479.484126 343.326812 
L 482.201719 347.557583 
L 484.919311 351.441398 
L 488.542768 356.177945 
L 492.166226 360.504997 
L 496.695547 365.477539 
L 500.319004 369.149764 
L 503.942461 372.614978 
L 507.565918 375.784516 
L 511.189375 378.685334 
L 514.812832 381.227256 
L 518.436289 383.47331 
L 522.059746 385.444494 
L 526.589068 387.606725 
L 531.118389 389.514659 
L 536.553575 391.573256 
L 542.894625 393.699132 
L 547.423946 395.055259 
L 554.67086 396.926445 
L 560.106046 398.065555 
L 565.541231 398.959592 
L 570.070553 399.474878 
L 574.599874 399.773145 
L 577.317467 399.843658 
L 577.317467 399.843658 
" clip-path="url(#p3d4ae6a9da)" style="fill: none; stroke: #2ca02c; stroke-width: 2; stroke-linecap: round"/>
   </g>
   <g id="line2d_8">
    <path d="M 243.888047 398.315793 
L 470.400483 398.315793 
" clip-path="url(#p3d4ae6a9da)" style="fill: none; stroke: #000000; stroke-width: 3.5"/>
   </g>
   <g id="patch_3">
    <path d="M 91.275993 417.8 
L 600.462299 417.8 
" style="fill: none; stroke: #333333; stroke-width: 1.5; stroke-linejoin: miter; stroke-linecap: square"/>
   </g>
   <g id="text_4">
    <text style="font-size: 52px; font-family: 'DejaVu Serif', 'Times New Roman', serif; text-anchor: end; fill: #262626" x="243.888047" y="383.908456" transform="rotate(-0 243.888047 383.908456)">-0.26 </text>
   </g>
   <g id="text_5">
    <text style="font-size: 52px; font-family: 'DejaVu Serif', 'Times New Roman', serif; text-anchor: start; fill: #262626" x="470.400483" y="383.908456" transform="rotate(-0 470.400483 383.908456)"> -0.24</text>
   </g>
   <g id="text_6">
    <text style="font-size: 52px; font-family: 'DejaVu Serif', 'Times New Roman', serif; text-anchor: middle; fill: #262626" x="357.144265" y="317.634709" transform="rotate(-0 357.144265 317.634709)">90%</text>
   </g>
   <g id="text_7">
    <!-- $\mu$=-0.25 -->
    <g style="fill: #262626" transform="translate(250.663106 173.561345)">
     <text>
      <tspan x="0" y="-0.40625" style="font-style: oblique; font-size: 52px; font-family: 'DejaVu Sans'; fill: #262626">μ</tspan>
      <tspan x="33.083984" y="-0.40625" style="font-size: 52px; font-family: 'DejaVu Serif'; fill: #262626">=</tspan>
      <tspan x="76.654297" y="-0.40625" style="font-size: 52px; font-family: 'DejaVu Serif'; fill: #262626">-</tspan>
      <tspan x="94.224609" y="-0.40625" style="font-size: 52px; font-family: 'DejaVu Serif'; fill: #262626">0</tspan>
      <tspan x="127.308594" y="-0.40625" style="font-size: 52px; font-family: 'DejaVu Serif'; fill: #262626">.</tspan>
      <tspan x="142.462891" y="-0.40625" style="font-size: 52px; font-family: 'DejaVu Serif'; fill: #262626">2</tspan>
      <tspan x="175.546875" y="-0.40625" style="font-size: 52px; font-family: 'DejaVu Serif'; fill: #262626">5</tspan>
     </text>
    </g>
   </g>
   <g id="text_8">
    <!-- $x_1^2x_3$ -->
    <g style="fill: #262626" transform="translate(263.029146 94.652)">
     <text>
      <tspan x="0" y="-0.421875" style="font-style: oblique; font-size: 76px; font-family: 'DejaVu Sans'; fill: #262626">x</tspan>
      <tspan x="84.296419" y="-0.421875" style="font-style: oblique; font-size: 76px; font-family: 'DejaVu Sans'; fill: #262626">x</tspan>
      <tspan x="44.976562" y="20.359375" style="font-size: 53.2px; font-family: 'DejaVu Sans'; fill: #262626">1</tspan>
      <tspan x="48.370833" y="-29.515625" style="font-size: 53.2px; font-family: 'DejaVu Sans'; fill: #262626">2</tspan>
      <tspan x="129.272982" y="12.046875" style="font-size: 53.2px; font-family: 'DejaVu Sans'; fill: #262626">3</tspan>
     </text>
    </g>
   </g>
  </g>
 </g>
 <defs>
  <clipPath id="p3d4ae6a9da">
   <rect x="91.275993" y="115.932" width="509.186306" height="301.868"/>
  </clipPath>
 </defs>
</svg>
