<?xml version="1.0" encoding="utf-8" standalone="no"?>
<!DOCTYPE svg PUBLIC "-//W3C//DTD SVG 1.1//EN"
  "http://www.w3.org/Graphics/SVG/1.1/DTD/svg11.dtd">
<svg xmlns:xlink="http://www.w3.org/1999/xlink" width="648pt" height="504pt" viewBox="0 0 648 504" xmlns="http://www.w3.org/2000/svg" version="1.1">
 <metadata>
  <rdf:RDF xmlns:dc="http://purl.org/dc/elements/1.1/" xmlns:cc="http://creativecommons.org/ns#" xmlns:rdf="http://www.w3.org/1999/02/22-rdf-syntax-ns#">
   <cc:Work>
    <dc:type rdf:resource="http://purl.org/dc/dcmitype/StillImage"/>
    <dc:date>2026-02-22T16:15:37.069741</dc:date>
    <dc:format>image/svg+xml</dc:format>
    <dc:creator>
     <cc:Agent>
      <dc:title>Matplotlib v3.10.6, https://matplotlib.org/</dc:title>
     </cc:Agent>
    </dc:creator>
   </cc:Work>
  </rdf:RDF>
 </metadata>
 <defs>
  <style type="text/css">*{stroke-linejoin: round; stroke-linecap: butt}</style>
 </defs>
 <g id="figure_1">
  <g id="patch_1">
   <path d="M 0 504 
L 648 504 
L 648 0 
L 0 0 
L 0 504 
z
" style="fill: none; opacity: 0"/>
  </g>
  <g id="axes_1">
   <g id="patch_2">
    <path d="M 42.707717 417.8 
L 622.08 417.8 
L 622.08 115.932 
L 42.707717 115.932 
L 42.707717 417.8 
z
" style="fill: none"/>
   </g>
   <g id="matplotlib.axis_1">
    <g id="xtick_1">
     <g id="line2d_1">
      <path d="M 115.27321 417.8 
L 115.27321 115.932 
" clip-path="url(#p0ab5bd5b67)" style="fill: none; stroke: #ffffff; stroke-opacity: 0.4; stroke-linecap: round"/>
     </g>
     <g id="line2d_2">
      <defs>
       <path id="m1776fe91d5" d="M 0 0 
L 0 3 
" style="stroke: #808080"/>
      </defs>
      <g>
       <use xlink:href="#m1776fe91d5" x="115.27321" y="417.8" style="fill: #808080; stroke: #808080"/>
      </g>
     </g>
     <g id="text_1">
      <text style="font-size: 52px; font-family: 'DejaVu Serif', 'Times New Roman', serif; text-anchor: middle; fill: #262626" x="115.27321" y="467.311875" transform="rotate(-0 115.27321 467.311875)">−1.02</text>
     </g>
    </g>
    <g id="xtick_2">
     <g id="line2d_3">
      <path d="M 310.779415 417.8 
L 310.779415 115.932 
" clip-path="url(#p0ab5bd5b67)" style="fill: none; stroke: #ffffff; stroke-opacity: 0.4; stroke-linecap: round"/>
     </g>
     <g id="line2d_4">
      <g>
       <use xlink:href="#m1776fe91d5" x="310.779415" y="417.8" style="fill: #808080; stroke: #808080"/>
      </g>
     </g>
     <g id="text_2">
      <text style="font-size: 52px; font-family: 'DejaVu Serif', 'Times New Roman', serif; text-anchor: middle; fill: #262626" x="310.779415" y="467.311875" transform="rotate(-0 310.779415 467.311875)">−1.00</text>
     </g>
    </g>
    <g id="xtick_3">
     <g id="line2d_5">
      <path d="M 506.28562 417.8 
L 506.28562 115.932 
" clip-path="url(#p0ab5bd5b67)" style="fill: none; stroke: #ffffff; stroke-opacity: 0.4; stroke-linecap: round"/>
     </g>
     <g id="line2d_6">
      <g>
       <use xlink:href="#m1776fe91d5" x="506.28562" y="417.8" style="fill: #808080; stroke: #808080"/>
      </g>
     </g>
     <g id="text_3">
      <text style="font-size: 52px; font-family: 'DejaVu Serif', 'Times New Roman', serif; text-anchor: middle; fill: #262626" x="506.28562" y="467.311875" transform="rotate(-0 506.28562 467.311875)">−0.98</text>
     </g>
    </g>
   </g>
   <g id="matplotlib.axis_2"/>
   <g id="FillBetweenPolyCollection_1">
    <defs>
     <path id="m66efdbeadf" d="M 69.042821 -99.921273 
L 69.042821 -102.021121 
L 70.073549 -102.015516 
L 71.104277 -102.010581 
L 72.135006 -102.018493 
L 73.165734 -102.022095 
L 74.196462 -102.026399 
L 75.22719 -102.035974 
L 76.257918 -102.049222 
L 77.288646 -102.060761 
L 78.319374 -102.0829 
L 79.350102 -102.107823 
L 80.380831 -102.139068 
L 81.411559 -102.172531 
L 82.442287 -102.220356 
L 83.473015 -102.280205 
L 84.503743 -102.353661 
L 85.534471 -102.43914 
L 86.565199 -102.534282 
L 87.595928 -102.642202 
L 88.626656 -102.763317 
L 89.657384 -102.897877 
L 90.688112 -103.045953 
L 91.71884 -103.207436 
L 92.749568 -103.382032 
L 93.780296 -103.566061 
L 94.811024 -103.76768 
L 95.841753 -103.977935 
L 96.872481 -104.198417 
L 97.903209 -104.43127 
L 98.933937 -104.67041 
L 99.964665 -104.923609 
L 100.995393 -105.18102 
L 102.026121 -105.437758 
L 103.05685 -105.700839 
L 104.087578 -105.9641 
L 105.118306 -106.232136 
L 106.149034 -106.510456 
L 107.179762 -106.781484 
L 108.21049 -107.049021 
L 109.241218 -107.318191 
L 110.271946 -107.5861 
L 111.302675 -107.846775 
L 112.333403 -108.105572 
L 113.364131 -108.374363 
L 114.394859 -108.6395 
L 115.425587 -108.903853 
L 116.456315 -109.177448 
L 117.487043 -109.443952 
L 118.517771 -109.717937 
L 119.5485 -109.986236 
L 120.579228 -110.282595 
L 121.609956 -110.558841 
L 122.640684 -110.851077 
L 123.671412 -111.137285 
L 124.70214 -111.435056 
L 125.732868 -111.743111 
L 126.763597 -112.052532 
L 127.794325 -112.371972 
L 128.825053 -112.718598 
L 129.855781 -113.059265 
L 130.886509 -113.412929 
L 131.917237 -113.787345 
L 132.947965 -114.169631 
L 133.978693 -114.556169 
L 135.009422 -114.967939 
L 136.04015 -115.39271 
L 137.070878 -115.846894 
L 138.101606 -116.312418 
L 139.132334 -116.798262 
L 140.163062 -117.299421 
L 141.19379 -117.818887 
L 142.224518 -118.36466 
L 143.255247 -118.94482 
L 144.285975 -119.548562 
L 145.316703 -120.179537 
L 146.347431 -120.839372 
L 147.378159 -121.522448 
L 148.408887 -122.243763 
L 149.439615 -122.992992 
L 150.470344 -123.76571 
L 151.501072 -124.567203 
L 152.5318 -125.414091 
L 153.562528 -126.284465 
L 154.593256 -127.177332 
L 155.623984 -128.12072 
L 156.654712 -129.097108 
L 157.68544 -130.086372 
L 158.716169 -131.112169 
L 159.746897 -132.16412 
L 160.777625 -133.223575 
L 161.808353 -134.314496 
L 162.839081 -135.436465 
L 163.869809 -136.574887 
L 164.900537 -137.727701 
L 165.931266 -138.898416 
L 166.961994 -140.105456 
L 167.992722 -141.327336 
L 169.02345 -142.563449 
L 170.054178 -143.829779 
L 171.084906 -145.094283 
L 172.115634 -146.382577 
L 173.146362 -147.698391 
L 174.177091 -149.034366 
L 175.207819 -150.409972 
L 176.238547 -151.791789 
L 177.269275 -153.20482 
L 178.300003 -154.635483 
L 179.330731 -156.097798 
L 180.361459 -157.581812 
L 181.392187 -159.093788 
L 182.422916 -160.64955 
L 183.453644 -162.21898 
L 184.484372 -163.808669 
L 185.5151 -165.423574 
L 186.545828 -167.065967 
L 187.576556 -168.717545 
L 188.607284 -170.418204 
L 189.638013 -172.13326 
L 190.668741 -173.888859 
L 191.699469 -175.640017 
L 192.730197 -177.433733 
L 193.760925 -179.253232 
L 194.791653 -181.068063 
L 195.822381 -182.940246 
L 196.853109 -184.815124 
L 197.883838 -186.713779 
L 198.914566 -188.652876 
L 199.945294 -190.60077 
L 200.976022 -192.579187 
L 202.00675 -194.592461 
L 203.037478 -196.639879 
L 204.068206 -198.728906 
L 205.098935 -200.859413 
L 206.129663 -203.040103 
L 207.160391 -205.288329 
L 208.191119 -207.597549 
L 209.221847 -209.959216 
L 210.252575 -212.354197 
L 211.283303 -214.795425 
L 212.314031 -217.307341 
L 213.34476 -219.840758 
L 214.375488 -222.41884 
L 215.406216 -225.045652 
L 216.436944 -227.752057 
L 217.467672 -230.459006 
L 218.4984 -233.196381 
L 219.529128 -235.95407 
L 220.559856 -238.709577 
L 221.590585 -241.466392 
L 222.621313 -244.185706 
L 223.652041 -246.922041 
L 224.682769 -249.625395 
L 225.713497 -252.291183 
L 226.744225 -254.935453 
L 227.774953 -257.508065 
L 228.805682 -259.994461 
L 229.83641 -262.433633 
L 230.867138 -264.822241 
L 231.897866 -267.127705 
L 232.928594 -269.350419 
L 233.959322 -271.526989 
L 234.99005 -273.641045 
L 236.020778 -275.697071 
L 237.051507 -277.687501 
L 238.082235 -279.611194 
L 239.112963 -281.49755 
L 240.143691 -283.356239 
L 241.174419 -285.177587 
L 242.205147 -287.001574 
L 243.235875 -288.835691 
L 244.266603 -290.619355 
L 245.297332 -292.407884 
L 246.32806 -294.230776 
L 247.358788 -296.034786 
L 248.389516 -297.879775 
L 249.420244 -299.749758 
L 250.450972 -301.651104 
L 251.4817 -303.565762 
L 252.512429 -305.485684 
L 253.543157 -307.468102 
L 254.573885 -309.428524 
L 255.604613 -311.431656 
L 256.635341 -313.441987 
L 257.666069 -315.449184 
L 258.696797 -317.452773 
L 259.727525 -319.458351 
L 260.758254 -321.42776 
L 261.788982 -323.415504 
L 262.81971 -325.371443 
L 263.850438 -327.311024 
L 264.881166 -329.235397 
L 265.911894 -331.104666 
L 266.942622 -332.948446 
L 267.973351 -334.738164 
L 269.004079 -336.522054 
L 270.034807 -338.272921 
L 271.065535 -340.003128 
L 272.096263 -341.669106 
L 273.126991 -343.336323 
L 274.157719 -344.95439 
L 275.188447 -346.534324 
L 276.219176 -348.101223 
L 277.249904 -349.638396 
L 278.280632 -351.142511 
L 279.31136 -352.636669 
L 280.342088 -354.124889 
L 281.372816 -355.560167 
L 282.403544 -356.974673 
L 283.434272 -358.361985 
L 284.465001 -359.671699 
L 285.495729 -360.987458 
L 286.526457 -362.228061 
L 287.557185 -363.442308 
L 288.587913 -364.615536 
L 289.618641 -365.720568 
L 290.649369 -366.773752 
L 291.680098 -367.748688 
L 292.710826 -368.653414 
L 293.741554 -369.482012 
L 294.772282 -370.26183 
L 295.80301 -370.979297 
L 296.833738 -371.65707 
L 297.864466 -372.225407 
L 298.895194 -372.736671 
L 299.925923 -373.168638 
L 300.956651 -373.55798 
L 301.987379 -373.822292 
L 303.018107 -374.031281 
L 304.048835 -374.203586 
L 305.079563 -374.311637 
L 306.110291 -374.346727 
L 307.141019 -374.291766 
L 308.171748 -374.200967 
L 309.202476 -374.015103 
L 310.233204 -373.779067 
L 311.263932 -373.495243 
L 312.29466 -373.150857 
L 313.325388 -372.752721 
L 314.356116 -372.305031 
L 315.386845 -371.793278 
L 316.417573 -371.199515 
L 317.448301 -370.521835 
L 318.479029 -369.852938 
L 319.509757 -369.056783 
L 320.540485 -368.220955 
L 321.571213 -367.327216 
L 322.601941 -366.391622 
L 323.63267 -365.393716 
L 324.663398 -364.388527 
L 325.694126 -363.303745 
L 326.724854 -362.186237 
L 327.755582 -361.014757 
L 328.78631 -359.844335 
L 329.817038 -358.677837 
L 330.847767 -357.481437 
L 331.878495 -356.263801 
L 332.909223 -355.115835 
L 333.939951 -353.887439 
L 334.970679 -352.690639 
L 336.001407 -351.514955 
L 337.032135 -350.3628 
L 338.062863 -349.236162 
L 339.093592 -348.117034 
L 340.12432 -347.04918 
L 341.155048 -345.97984 
L 342.185776 -344.964741 
L 343.216504 -343.983332 
L 344.247232 -343.009112 
L 345.27796 -342.067724 
L 346.308688 -341.167378 
L 347.339417 -340.24688 
L 348.370145 -339.34921 
L 349.400873 -338.470814 
L 350.431601 -337.587215 
L 351.462329 -336.72577 
L 352.493057 -335.878949 
L 353.523785 -335.015088 
L 354.554514 -334.100442 
L 355.585242 -333.215254 
L 356.61597 -332.269099 
L 357.646698 -331.32893 
L 358.677426 -330.345054 
L 359.708154 -329.311673 
L 360.738882 -328.253518 
L 361.76961 -327.121182 
L 362.800339 -325.967524 
L 363.831067 -324.742843 
L 364.861795 -323.492482 
L 365.892523 -322.165741 
L 366.923251 -320.78059 
L 367.953979 -319.34068 
L 368.984707 -317.839519 
L 370.015436 -316.285744 
L 371.046164 -314.646812 
L 372.076892 -312.960963 
L 373.10762 -311.189899 
L 374.138348 -309.345776 
L 375.169076 -307.456295 
L 376.199804 -305.490331 
L 377.230532 -303.465508 
L 378.261261 -301.383816 
L 379.291989 -299.227275 
L 380.322717 -297.000596 
L 381.353445 -294.709413 
L 382.384173 -292.343617 
L 383.414901 -289.93834 
L 384.445629 -287.482409 
L 385.476357 -284.949539 
L 386.507086 -282.343472 
L 387.537814 -279.695946 
L 388.568542 -277.003726 
L 389.59927 -274.22386 
L 390.629998 -271.40349 
L 391.660726 -268.547136 
L 392.691454 -265.678876 
L 393.722183 -262.72415 
L 394.752911 -259.728807 
L 395.783639 -256.68566 
L 396.814367 -253.613183 
L 397.845095 -250.494173 
L 398.875823 -247.357936 
L 399.906551 -244.217755 
L 400.937279 -241.058214 
L 401.968008 -237.904031 
L 402.998736 -234.782887 
L 404.029464 -231.613474 
L 405.060192 -228.485916 
L 406.09092 -225.382249 
L 407.121648 -222.308227 
L 408.152376 -219.273739 
L 409.183104 -216.281368 
L 410.213833 -213.303971 
L 411.244561 -210.428967 
L 412.275289 -207.578147 
L 413.306017 -204.803958 
L 414.336745 -202.075412 
L 415.367473 -199.442665 
L 416.398201 -196.884272 
L 417.42893 -194.381771 
L 418.459658 -191.913147 
L 419.490386 -189.567209 
L 420.521114 -187.264207 
L 421.551842 -185.018825 
L 422.58257 -182.855075 
L 423.613298 -180.739405 
L 424.644026 -178.678249 
L 425.674755 -176.692884 
L 426.705483 -174.753791 
L 427.736211 -172.865067 
L 428.766939 -171.021893 
L 429.797667 -169.232771 
L 430.828395 -167.479365 
L 431.859123 -165.762338 
L 432.889852 -164.117716 
L 433.92058 -162.50858 
L 434.951308 -160.926857 
L 435.982036 -159.38061 
L 437.012764 -157.87653 
L 438.043492 -156.390523 
L 439.07422 -154.959445 
L 440.104948 -153.583763 
L 441.135677 -152.202712 
L 442.166405 -150.88495 
L 443.197133 -149.589162 
L 444.227861 -148.315131 
L 445.258589 -147.079287 
L 446.289317 -145.873352 
L 447.320045 -144.701195 
L 448.350773 -143.556818 
L 449.381502 -142.43735 
L 450.41223 -141.30126 
L 451.442958 -140.216135 
L 452.473686 -139.146207 
L 453.504414 -138.106173 
L 454.535142 -137.07197 
L 455.56587 -136.060102 
L 456.596599 -135.058233 
L 457.627327 -134.074467 
L 458.658055 -133.089949 
L 459.688783 -132.130586 
L 460.719511 -131.171314 
L 461.750239 -130.23823 
L 462.780967 -129.311491 
L 463.811695 -128.411791 
L 464.842424 -127.524607 
L 465.873152 -126.662089 
L 466.90388 -125.816277 
L 467.934608 -124.974001 
L 468.965336 -124.155714 
L 469.996064 -123.350051 
L 471.026792 -122.571378 
L 472.05752 -121.810663 
L 473.088249 -121.06698 
L 474.118977 -120.341766 
L 475.149705 -119.637094 
L 476.180433 -118.938607 
L 477.211161 -118.249353 
L 478.241889 -117.564498 
L 479.272617 -116.915624 
L 480.303346 -116.279968 
L 481.334074 -115.654239 
L 482.364802 -115.03085 
L 483.39553 -114.421749 
L 484.426258 -113.830826 
L 485.456986 -113.249878 
L 486.487714 -112.675426 
L 487.518442 -112.114735 
L 488.549171 -111.565664 
L 489.579899 -111.034389 
L 490.610627 -110.526661 
L 491.641355 -110.021964 
L 492.672083 -109.545705 
L 493.702811 -109.079611 
L 494.733539 -108.64688 
L 495.764268 -108.236007 
L 496.794996 -107.843709 
L 497.825724 -107.487182 
L 498.856452 -107.146252 
L 499.88718 -106.831431 
L 500.917908 -106.540141 
L 501.948636 -106.271954 
L 502.979364 -106.03434 
L 504.010093 -105.815034 
L 505.040821 -105.624242 
L 506.071549 -105.456876 
L 507.102277 -105.313526 
L 508.133005 -105.176428 
L 509.163733 -105.066657 
L 510.194461 -104.967399 
L 511.225189 -104.882719 
L 512.255918 -104.805276 
L 513.286646 -104.739064 
L 514.317374 -104.67995 
L 515.348102 -104.626398 
L 516.37883 -104.571211 
L 517.409558 -104.521719 
L 518.440286 -104.468284 
L 519.471015 -104.415841 
L 520.501743 -104.365617 
L 521.532471 -104.315941 
L 522.563199 -104.262878 
L 523.593927 -104.203289 
L 524.624655 -104.139772 
L 525.655383 -104.071856 
L 526.686111 -103.9992 
L 527.71684 -103.921588 
L 528.747568 -103.843994 
L 529.778296 -103.760267 
L 530.809024 -103.668193 
L 531.839752 -103.576969 
L 532.87048 -103.473168 
L 533.901208 -103.363466 
L 534.931937 -103.258891 
L 535.962665 -103.150513 
L 536.993393 -103.03904 
L 538.024121 -102.92519 
L 539.054849 -102.809679 
L 540.085577 -102.693221 
L 541.116305 -102.576515 
L 542.147033 -102.460238 
L 543.177762 -102.345042 
L 544.20849 -102.231541 
L 545.239218 -102.120308 
L 546.269946 -102.011865 
L 547.300674 -101.906681 
L 548.331402 -101.805165 
L 549.36213 -101.705128 
L 550.392858 -101.612468 
L 551.423587 -101.51914 
L 552.454315 -101.434008 
L 553.485043 -101.359625 
L 554.515771 -101.290496 
L 555.546499 -101.223622 
L 556.577227 -101.159026 
L 557.607955 -101.099758 
L 558.638684 -101.048175 
L 559.669412 -101.001 
L 560.70014 -100.95559 
L 561.730868 -100.917427 
L 562.761596 -100.883169 
L 563.792324 -100.852665 
L 564.823052 -100.825748 
L 565.85378 -100.799713 
L 566.884509 -100.780002 
L 567.915237 -100.760718 
L 568.945965 -100.74733 
L 569.976693 -100.736503 
L 571.007421 -100.725575 
L 572.038149 -100.717499 
L 573.068877 -100.712043 
L 574.099605 -100.711523 
L 575.130334 -100.712654 
L 576.161062 -100.718551 
L 577.19179 -100.723509 
L 578.222518 -100.727424 
L 579.253246 -100.735789 
L 580.283974 -100.745273 
L 581.314702 -100.755729 
L 582.345431 -100.764451 
L 583.376159 -100.77686 
L 584.406887 -100.789555 
L 585.437615 -100.799786 
L 586.468343 -100.812936 
L 587.499071 -100.825575 
L 588.529799 -100.837474 
L 589.560527 -100.848399 
L 590.591256 -100.85812 
L 591.621984 -100.866422 
L 592.652712 -100.873104 
L 593.68344 -100.881201 
L 594.714168 -100.884977 
L 595.744896 -100.886886 
L 595.744896 -99.921273 
L 595.744896 -99.921273 
L 594.714168 -99.921273 
L 593.68344 -99.921273 
L 592.652712 -99.921273 
L 591.621984 -99.921273 
L 590.591256 -99.921273 
L 589.560527 -99.921273 
L 588.529799 -99.921273 
L 587.499071 -99.921273 
L 586.468343 -99.921273 
L 585.437615 -99.921273 
L 584.406887 -99.921273 
L 583.376159 -99.921273 
L 582.345431 -99.921273 
L 581.314702 -99.921273 
L 580.283974 -99.921273 
L 579.253246 -99.921273 
L 578.222518 -99.921273 
L 577.19179 -99.921273 
L 576.161062 -99.921273 
L 575.130334 -99.921273 
L 574.099605 -99.921273 
L 573.068877 -99.921273 
L 572.038149 -99.921273 
L 571.007421 -99.921273 
L 569.976693 -99.921273 
L 568.945965 -99.921273 
L 567.915237 -99.921273 
L 566.884509 -99.921273 
L 565.85378 -99.921273 
L 564.823052 -99.921273 
L 563.792324 -99.921273 
L 562.761596 -99.921273 
L 561.730868 -99.921273 
L 560.70014 -99.921273 
L 559.669412 -99.921273 
L 558.638684 -99.921273 
L 557.607955 -99.921273 
L 556.577227 -99.921273 
L 555.546499 -99.921273 
L 554.515771 -99.921273 
L 553.485043 -99.921273 
L 552.454315 -99.921273 
L 551.423587 -99.921273 
L 550.392858 -99.921273 
L 549.36213 -99.921273 
L 548.331402 -99.921273 
L 547.300674 -99.921273 
L 546.269946 -99.921273 
L 545.239218 -99.921273 
L 544.20849 -99.921273 
L 543.177762 -99.921273 
L 542.147033 -99.921273 
L 541.116305 -99.921273 
L 540.085577 -99.921273 
L 539.054849 -99.921273 
L 538.024121 -99.921273 
L 536.993393 -99.921273 
L 535.962665 -99.921273 
L 534.931937 -99.921273 
L 533.901208 -99.921273 
L 532.87048 -99.921273 
L 531.839752 -99.921273 
L 530.809024 -99.921273 
L 529.778296 -99.921273 
L 528.747568 -99.921273 
L 527.71684 -99.921273 
L 526.686111 -99.921273 
L 525.655383 -99.921273 
L 524.624655 -99.921273 
L 523.593927 -99.921273 
L 522.563199 -99.921273 
L 521.532471 -99.921273 
L 520.501743 -99.921273 
L 519.471015 -99.921273 
L 518.440286 -99.921273 
L 517.409558 -99.921273 
L 516.37883 -99.921273 
L 515.348102 -99.921273 
L 514.317374 -99.921273 
L 513.286646 -99.921273 
L 512.255918 -99.921273 
L 511.225189 -99.921273 
L 510.194461 -99.921273 
L 509.163733 -99.921273 
L 508.133005 -99.921273 
L 507.102277 -99.921273 
L 506.071549 -99.921273 
L 505.040821 -99.921273 
L 504.010093 -99.921273 
L 502.979364 -99.921273 
L 501.948636 -99.921273 
L 500.917908 -99.921273 
L 499.88718 -99.921273 
L 498.856452 -99.921273 
L 497.825724 -99.921273 
L 496.794996 -99.921273 
L 495.764268 -99.921273 
L 494.733539 -99.921273 
L 493.702811 -99.921273 
L 492.672083 -99.921273 
L 491.641355 -99.921273 
L 490.610627 -99.921273 
L 489.579899 -99.921273 
L 488.549171 -99.921273 
L 487.518442 -99.921273 
L 486.487714 -99.921273 
L 485.456986 -99.921273 
L 484.426258 -99.921273 
L 483.39553 -99.921273 
L 482.364802 -99.921273 
L 481.334074 -99.921273 
L 480.303346 -99.921273 
L 479.272617 -99.921273 
L 478.241889 -99.921273 
L 477.211161 -99.921273 
L 476.180433 -99.921273 
L 475.149705 -99.921273 
L 474.118977 -99.921273 
L 473.088249 -99.921273 
L 472.05752 -99.921273 
L 471.026792 -99.921273 
L 469.996064 -99.921273 
L 468.965336 -99.921273 
L 467.934608 -99.921273 
L 466.90388 -99.921273 
L 465.873152 -99.921273 
L 464.842424 -99.921273 
L 463.811695 -99.921273 
L 462.780967 -99.921273 
L 461.750239 -99.921273 
L 460.719511 -99.921273 
L 459.688783 -99.921273 
L 458.658055 -99.921273 
L 457.627327 -99.921273 
L 456.596599 -99.921273 
L 455.56587 -99.921273 
L 454.535142 -99.921273 
L 453.504414 -99.921273 
L 452.473686 -99.921273 
L 451.442958 -99.921273 
L 450.41223 -99.921273 
L 449.381502 -99.921273 
L 448.350773 -99.921273 
L 447.320045 -99.921273 
L 446.289317 -99.921273 
L 445.258589 -99.921273 
L 444.227861 -99.921273 
L 443.197133 -99.921273 
L 442.166405 -99.921273 
L 441.135677 -99.921273 
L 440.104948 -99.921273 
L 439.07422 -99.921273 
L 438.043492 -99.921273 
L 437.012764 -99.921273 
L 435.982036 -99.921273 
L 434.951308 -99.921273 
L 433.92058 -99.921273 
L 432.889852 -99.921273 
L 431.859123 -99.921273 
L 430.828395 -99.921273 
L 429.797667 -99.921273 
L 428.766939 -99.921273 
L 427.736211 -99.921273 
L 426.705483 -99.921273 
L 425.674755 -99.921273 
L 424.644026 -99.921273 
L 423.613298 -99.921273 
L 422.58257 -99.921273 
L 421.551842 -99.921273 
L 420.521114 -99.921273 
L 419.490386 -99.921273 
L 418.459658 -99.921273 
L 417.42893 -99.921273 
L 416.398201 -99.921273 
L 415.367473 -99.921273 
L 414.336745 -99.921273 
L 413.306017 -99.921273 
L 412.275289 -99.921273 
L 411.244561 -99.921273 
L 410.213833 -99.921273 
L 409.183104 -99.921273 
L 408.152376 -99.921273 
L 407.121648 -99.921273 
L 406.09092 -99.921273 
L 405.060192 -99.921273 
L 404.029464 -99.921273 
L 402.998736 -99.921273 
L 401.968008 -99.921273 
L 400.937279 -99.921273 
L 399.906551 -99.921273 
L 398.875823 -99.921273 
L 397.845095 -99.921273 
L 396.814367 -99.921273 
L 395.783639 -99.921273 
L 394.752911 -99.921273 
L 393.722183 -99.921273 
L 392.691454 -99.921273 
L 391.660726 -99.921273 
L 390.629998 -99.921273 
L 389.59927 -99.921273 
L 388.568542 -99.921273 
L 387.537814 -99.921273 
L 386.507086 -99.921273 
L 385.476357 -99.921273 
L 384.445629 -99.921273 
L 383.414901 -99.921273 
L 382.384173 -99.921273 
L 381.353445 -99.921273 
L 380.322717 -99.921273 
L 379.291989 -99.921273 
L 378.261261 -99.921273 
L 377.230532 -99.921273 
L 376.199804 -99.921273 
L 375.169076 -99.921273 
L 374.138348 -99.921273 
L 373.10762 -99.921273 
L 372.076892 -99.921273 
L 371.046164 -99.921273 
L 370.015436 -99.921273 
L 368.984707 -99.921273 
L 367.953979 -99.921273 
L 366.923251 -99.921273 
L 365.892523 -99.921273 
L 364.861795 -99.921273 
L 363.831067 -99.921273 
L 362.800339 -99.921273 
L 361.76961 -99.921273 
L 360.738882 -99.921273 
L 359.708154 -99.921273 
L 358.677426 -99.921273 
L 357.646698 -99.921273 
L 356.61597 -99.921273 
L 355.585242 -99.921273 
L 354.554514 -99.921273 
L 353.523785 -99.921273 
L 352.493057 -99.921273 
L 351.462329 -99.921273 
L 350.431601 -99.921273 
L 349.400873 -99.921273 
L 348.370145 -99.921273 
L 347.339417 -99.921273 
L 346.308688 -99.921273 
L 345.27796 -99.921273 
L 344.247232 -99.921273 
L 343.216504 -99.921273 
L 342.185776 -99.921273 
L 341.155048 -99.921273 
L 340.12432 -99.921273 
L 339.093592 -99.921273 
L 338.062863 -99.921273 
L 337.032135 -99.921273 
L 336.001407 -99.921273 
L 334.970679 -99.921273 
L 333.939951 -99.921273 
L 332.909223 -99.921273 
L 331.878495 -99.921273 
L 330.847767 -99.921273 
L 329.817038 -99.921273 
L 328.78631 -99.921273 
L 327.755582 -99.921273 
L 326.724854 -99.921273 
L 325.694126 -99.921273 
L 324.663398 -99.921273 
L 323.63267 -99.921273 
L 322.601941 -99.921273 
L 321.571213 -99.921273 
L 320.540485 -99.921273 
L 319.509757 -99.921273 
L 318.479029 -99.921273 
L 317.448301 -99.921273 
L 316.417573 -99.921273 
L 315.386845 -99.921273 
L 314.356116 -99.921273 
L 313.325388 -99.921273 
L 312.29466 -99.921273 
L 311.263932 -99.921273 
L 310.233204 -99.921273 
L 309.202476 -99.921273 
L 308.171748 -99.921273 
L 307.141019 -99.921273 
L 306.110291 -99.921273 
L 305.079563 -99.921273 
L 304.048835 -99.921273 
L 303.018107 -99.921273 
L 301.987379 -99.921273 
L 300.956651 -99.921273 
L 299.925923 -99.921273 
L 298.895194 -99.921273 
L 297.864466 -99.921273 
L 296.833738 -99.921273 
L 295.80301 -99.921273 
L 294.772282 -99.921273 
L 293.741554 -99.921273 
L 292.710826 -99.921273 
L 291.680098 -99.921273 
L 290.649369 -99.921273 
L 289.618641 -99.921273 
L 288.587913 -99.921273 
L 287.557185 -99.921273 
L 286.526457 -99.921273 
L 285.495729 -99.921273 
L 284.465001 -99.921273 
L 283.434272 -99.921273 
L 282.403544 -99.921273 
L 281.372816 -99.921273 
L 280.342088 -99.921273 
L 279.31136 -99.921273 
L 278.280632 -99.921273 
L 277.249904 -99.921273 
L 276.219176 -99.921273 
L 275.188447 -99.921273 
L 274.157719 -99.921273 
L 273.126991 -99.921273 
L 272.096263 -99.921273 
L 271.065535 -99.921273 
L 270.034807 -99.921273 
L 269.004079 -99.921273 
L 267.973351 -99.921273 
L 266.942622 -99.921273 
L 265.911894 -99.921273 
L 264.881166 -99.921273 
L 263.850438 -99.921273 
L 262.81971 -99.921273 
L 261.788982 -99.921273 
L 260.758254 -99.921273 
L 259.727525 -99.921273 
L 258.696797 -99.921273 
L 257.666069 -99.921273 
L 256.635341 -99.921273 
L 255.604613 -99.921273 
L 254.573885 -99.921273 
L 253.543157 -99.921273 
L 252.512429 -99.921273 
L 251.4817 -99.921273 
L 250.450972 -99.921273 
L 249.420244 -99.921273 
L 248.389516 -99.921273 
L 247.358788 -99.921273 
L 246.32806 -99.921273 
L 245.297332 -99.921273 
L 244.266603 -99.921273 
L 243.235875 -99.921273 
L 242.205147 -99.921273 
L 241.174419 -99.921273 
L 240.143691 -99.921273 
L 239.112963 -99.921273 
L 238.082235 -99.921273 
L 237.051507 -99.921273 
L 236.020778 -99.921273 
L 234.99005 -99.921273 
L 233.959322 -99.921273 
L 232.928594 -99.921273 
L 231.897866 -99.921273 
L 230.867138 -99.921273 
L 229.83641 -99.921273 
L 228.805682 -99.921273 
L 227.774953 -99.921273 
L 226.744225 -99.921273 
L 225.713497 -99.921273 
L 224.682769 -99.921273 
L 223.652041 -99.921273 
L 222.621313 -99.921273 
L 221.590585 -99.921273 
L 220.559856 -99.921273 
L 219.529128 -99.921273 
L 218.4984 -99.921273 
L 217.467672 -99.921273 
L 216.436944 -99.921273 
L 215.406216 -99.921273 
L 214.375488 -99.921273 
L 213.34476 -99.921273 
L 212.314031 -99.921273 
L 211.283303 -99.921273 
L 210.252575 -99.921273 
L 209.221847 -99.921273 
L 208.191119 -99.921273 
L 207.160391 -99.921273 
L 206.129663 -99.921273 
L 205.098935 -99.921273 
L 204.068206 -99.921273 
L 203.037478 -99.921273 
L 202.00675 -99.921273 
L 200.976022 -99.921273 
L 199.945294 -99.921273 
L 198.914566 -99.921273 
L 197.883838 -99.921273 
L 196.853109 -99.921273 
L 195.822381 -99.921273 
L 194.791653 -99.921273 
L 193.760925 -99.921273 
L 192.730197 -99.921273 
L 191.699469 -99.921273 
L 190.668741 -99.921273 
L 189.638013 -99.921273 
L 188.607284 -99.921273 
L 187.576556 -99.921273 
L 186.545828 -99.921273 
L 185.5151 -99.921273 
L 184.484372 -99.921273 
L 183.453644 -99.921273 
L 182.422916 -99.921273 
L 181.392187 -99.921273 
L 180.361459 -99.921273 
L 179.330731 -99.921273 
L 178.300003 -99.921273 
L 177.269275 -99.921273 
L 176.238547 -99.921273 
L 175.207819 -99.921273 
L 174.177091 -99.921273 
L 173.146362 -99.921273 
L 172.115634 -99.921273 
L 171.084906 -99.921273 
L 170.054178 -99.921273 
L 169.02345 -99.921273 
L 167.992722 -99.921273 
L 166.961994 -99.921273 
L 165.931266 -99.921273 
L 164.900537 -99.921273 
L 163.869809 -99.921273 
L 162.839081 -99.921273 
L 161.808353 -99.921273 
L 160.777625 -99.921273 
L 159.746897 -99.921273 
L 158.716169 -99.921273 
L 157.68544 -99.921273 
L 156.654712 -99.921273 
L 155.623984 -99.921273 
L 154.593256 -99.921273 
L 153.562528 -99.921273 
L 152.5318 -99.921273 
L 151.501072 -99.921273 
L 150.470344 -99.921273 
L 149.439615 -99.921273 
L 148.408887 -99.921273 
L 147.378159 -99.921273 
L 146.347431 -99.921273 
L 145.316703 -99.921273 
L 144.285975 -99.921273 
L 143.255247 -99.921273 
L 142.224518 -99.921273 
L 141.19379 -99.921273 
L 140.163062 -99.921273 
L 139.132334 -99.921273 
L 138.101606 -99.921273 
L 137.070878 -99.921273 
L 136.04015 -99.921273 
L 135.009422 -99.921273 
L 133.978693 -99.921273 
L 132.947965 -99.921273 
L 131.917237 -99.921273 
L 130.886509 -99.921273 
L 129.855781 -99.921273 
L 128.825053 -99.921273 
L 127.794325 -99.921273 
L 126.763597 -99.921273 
L 125.732868 -99.921273 
L 124.70214 -99.921273 
L 123.671412 -99.921273 
L 122.640684 -99.921273 
L 121.609956 -99.921273 
L 120.579228 -99.921273 
L 119.5485 -99.921273 
L 118.517771 -99.921273 
L 117.487043 -99.921273 
L 116.456315 -99.921273 
L 115.425587 -99.921273 
L 114.394859 -99.921273 
L 113.364131 -99.921273 
L 112.333403 -99.921273 
L 111.302675 -99.921273 
L 110.271946 -99.921273 
L 109.241218 -99.921273 
L 108.21049 -99.921273 
L 107.179762 -99.921273 
L 106.149034 -99.921273 
L 105.118306 -99.921273 
L 104.087578 -99.921273 
L 103.05685 -99.921273 
L 102.026121 -99.921273 
L 100.995393 -99.921273 
L 99.964665 -99.921273 
L 98.933937 -99.921273 
L 97.903209 -99.921273 
L 96.872481 -99.921273 
L 95.841753 -99.921273 
L 94.811024 -99.921273 
L 93.780296 -99.921273 
L 92.749568 -99.921273 
L 91.71884 -99.921273 
L 90.688112 -99.921273 
L 89.657384 -99.921273 
L 88.626656 -99.921273 
L 87.595928 -99.921273 
L 86.565199 -99.921273 
L 85.534471 -99.921273 
L 84.503743 -99.921273 
L 83.473015 -99.921273 
L 82.442287 -99.921273 
L 81.411559 -99.921273 
L 80.380831 -99.921273 
L 79.350102 -99.921273 
L 78.319374 -99.921273 
L 77.288646 -99.921273 
L 76.257918 -99.921273 
L 75.22719 -99.921273 
L 74.196462 -99.921273 
L 73.165734 -99.921273 
L 72.135006 -99.921273 
L 71.104277 -99.921273 
L 70.073549 -99.921273 
L 69.042821 -99.921273 
z
" style="stroke: #aec7e8; stroke-opacity: 0.6; stroke-width: 0.3"/>
    </defs>
    <g clip-path="url(#p0ab5bd5b67)">
     <use xlink:href="#m66efdbeadf" x="0" y="504" style="fill: #aec7e8; fill-opacity: 0.6; stroke: #aec7e8; stroke-opacity: 0.6; stroke-width: 0.3"/>
    </g>
   </g>
   <g id="line2d_7">
    <path d="M 69.042821 401.978879 
L 77.288646 401.939239 
L 83.473015 401.719795 
L 87.595928 401.357798 
L 91.71884 400.792564 
L 95.841753 400.022065 
L 100.995393 398.81898 
L 113.364131 395.625637 
L 123.671412 392.862715 
L 128.825053 391.281402 
L 132.947965 389.830369 
L 136.04015 388.60729 
L 140.163062 386.700579 
L 143.255247 385.05518 
L 146.347431 383.160628 
L 149.439615 381.007008 
L 152.5318 378.585909 
L 155.623984 375.87928 
L 159.746897 371.83588 
L 162.839081 368.563535 
L 166.961994 363.894544 
L 172.115634 357.617423 
L 176.238547 352.208211 
L 180.361459 346.418188 
L 184.484372 340.191331 
L 188.607284 333.581796 
L 192.730197 326.566267 
L 197.883838 317.286221 
L 203.037478 307.360121 
L 206.129663 300.959897 
L 209.221847 294.040784 
L 212.314031 286.692659 
L 215.406216 278.954348 
L 228.805682 244.005539 
L 231.897866 236.872295 
L 234.99005 230.358955 
L 238.082235 224.388806 
L 243.235875 215.164309 
L 249.420244 204.250242 
L 254.573885 194.571476 
L 264.881166 174.764603 
L 269.004079 167.477946 
L 273.126991 160.663677 
L 277.249904 154.361604 
L 282.403544 147.025327 
L 285.495729 143.012542 
L 288.587913 139.384464 
L 290.649369 137.226248 
L 292.710826 135.346586 
L 294.772282 133.73817 
L 296.833738 132.34293 
L 298.895194 131.263329 
L 300.956651 130.44202 
L 303.018107 129.968719 
L 305.079563 129.688363 
L 307.141019 129.708234 
L 309.202476 129.984897 
L 311.263932 130.504757 
L 313.325388 131.247279 
L 315.386845 132.206722 
L 317.448301 133.478165 
L 319.509757 134.943217 
L 321.571213 136.672784 
L 324.663398 139.611473 
L 327.755582 142.985243 
L 340.12432 156.95082 
L 343.216504 160.016668 
L 346.308688 162.832622 
L 350.431601 166.412785 
L 355.585242 170.784746 
L 359.708154 174.688327 
L 361.76961 176.878818 
L 363.831067 179.257157 
L 365.892523 181.834259 
L 368.984707 186.160481 
L 371.046164 189.353188 
L 373.10762 192.810101 
L 376.199804 198.509669 
L 379.291989 204.772725 
L 382.384173 211.656383 
L 385.476357 219.050461 
L 389.59927 229.77614 
L 393.722183 241.27585 
L 397.845095 253.505827 
L 409.183104 287.718632 
L 412.275289 296.421853 
L 415.367473 304.557335 
L 418.459658 312.086853 
L 421.551842 318.981175 
L 424.644026 325.321751 
L 427.736211 331.134933 
L 430.828395 336.520635 
L 433.92058 341.49142 
L 437.012764 346.12347 
L 440.104948 350.416237 
L 443.197133 354.410838 
L 446.289317 358.126648 
L 450.41223 362.69874 
L 454.535142 366.92803 
L 459.688783 371.869414 
L 463.811695 375.588209 
L 467.934608 379.025999 
L 472.05752 382.189337 
L 476.180433 385.061393 
L 480.303346 387.720032 
L 485.456986 390.750122 
L 489.579899 392.965611 
L 493.702811 394.920389 
L 496.794996 396.156291 
L 499.88718 397.168569 
L 502.979364 397.96566 
L 506.071549 398.543124 
L 510.194461 399.032601 
L 515.348102 399.373602 
L 529.778296 400.239733 
L 538.024121 401.07481 
L 551.423587 402.48086 
L 557.607955 402.900242 
L 564.823052 403.174252 
L 573.068877 403.287957 
L 586.468343 403.187064 
L 595.744896 403.113114 
L 595.744896 403.113114 
" clip-path="url(#p0ab5bd5b67)" style="fill: none; stroke: #aec7e8; stroke-width: 2; stroke-linecap: round"/>
   </g>
   <g id="line2d_8">
    <path d="M 194.258808 398.315793 
L 425.804682 398.315793 
" clip-path="url(#p0ab5bd5b67)" style="fill: none; stroke: #000000; stroke-width: 3.5"/>
   </g>
   <g id="patch_3">
    <path d="M 42.707717 417.8 
L 622.08 417.8 
" style="fill: none; stroke: #333333; stroke-width: 1.5; stroke-linejoin: miter; stroke-linecap: square"/>
   </g>
   <g id="text_4">
    <text style="font-size: 52px; font-family: 'DejaVu Serif', 'Times New Roman', serif; text-anchor: end; fill: #262626" x="194.258808" y="383.908456" transform="rotate(-0 194.258808 383.908456)">-1 </text>
   </g>
   <g id="text_5">
    <text style="font-size: 52px; font-family: 'DejaVu Serif', 'Times New Roman', serif; text-anchor: start; fill: #262626" x="425.804682" y="383.908456" transform="rotate(-0 425.804682 383.908456)"> -0.99</text>
   </g>
   <g id="text_6">
    <text style="font-size: 52px; font-family: 'DejaVu Serif', 'Times New Roman', serif; text-anchor: middle; fill: #262626" x="310.031745" y="317.634709" transform="rotate(-0 310.031745 317.634709)">90%</text>
   </g>
   <g id="text_7">
    <!-- $\mu$=-1 -->
    <g style="fill: #262626" transform="translate(246.625704 173.561345)">
     <text>
      <tspan x="0" y="-0.40625" style="font-style: oblique; font-size: 52px; font-family: 'DejaVu Sans'; fill: #262626">μ</tspan>
      <tspan x="33.083984" y="-0.40625" style="font-size: 52px; font-family: 'DejaVu Serif'; fill: #262626">=</tspan>
      <tspan x="76.654297" y="-0.40625" style="font-size: 52px; font-family: 'DejaVu Serif'; fill: #262626">-</tspan>
      <tspan x="94.224609" y="-0.40625" style="font-size: 52px; font-family: 'DejaVu Serif'; fill: #262626">1</tspan>
     </text>
    </g>
   </g>
   <g id="text_8">
    <!-- $x_1^2$ -->
    <g style="fill: #262626" transform="translate(290.213859 94.652)">
     <text>
      <tspan x="0" y="-0.421875" style="font-style: oblique; font-size: 76px; font-family: 'DejaVu Sans'; fill: #262626">x</tspan>
      <tspan x="44.976562" y="20.359375" style="font-size: 53.2px; font-family: 'DejaVu Sans'; fill: #262626">1</tspan>
      <tspan x="48.370833" y="-29.515625" style="font-size: 53.2px; font-family: 'DejaVu Sans'; fill: #262626">2</tspan>
     </text>
    </g>
   </g>
  </g>
 </g>
 <defs>
  <clipPath id="p0ab5bd5b67">
   <rect x="42.707717" y="115.932" width="579.372283" height="301.868"/>
  </clipPath>
 </defs>
</svg>
