<?xml version="1.0" encoding="utf-8" standalone="no"?>
<!DOCTYPE svg PUBLIC "-//W3C//DTD SVG 1.1//EN"
  "http://www.w3.org/Graphics/SVG/1.1/DTD/svg11.dtd">
<svg xmlns:xlink="http://www.w3.org/1999/xlink" width="648pt" height="504pt" viewBox="0 0 648 504" xmlns="http://www.w3.org/2000/svg" version="1.1">
 <metadata>
  <rdf:RDF xmlns:dc="http://purl.org/dc/elements/1.1/" xmlns:cc="http://creativecommons.org/ns#" xmlns:rdf="http://www.w3.org/1999/02/22-rdf-syntax-ns#">
   <cc:Work>
    <dc:type rdf:resource="http://purl.org/dc/dcmitype/StillImage"/>
    <dc:date>2026-02-22T16:15:35.796244</dc:date>
    <dc:format>image/svg+xml</dc:format>
    <dc:creator>
     <cc:Agent>
      <dc:title>Matplotlib v3.10.6, https://matplotlib.org/</dc:title>
     </cc:Agent>
    </dc:creator>
   </cc:Work>
  </rdf:RDF>
 </metadata>
 <defs>
  <style type="text/css">*{stroke-linejoin: round; stroke-linecap: butt}</style>
 </defs>
 <g id="figure_1">
  <g id="patch_1">
   <path d="M 0 504 
L 648 504 
L 648 0 
L 0 0 
L 0 504 
z
" style="fill: none; opacity: 0"/>
  </g>
  <g id="axes_1">
   <g id="patch_2">
    <path d="M 44.943787 417.8 
L 622.08 417.8 
L 622.08 115.932 
L 44.943787 115.932 
L 44.943787 417.8 
z
" style="fill: none"/>
   </g>
   <g id="matplotlib.axis_1">
    <g id="xtick_1">
     <g id="line2d_1">
      <path d="M 131.292594 417.8 
L 131.292594 115.932 
" clip-path="url(#pd016887f06)" style="fill: none; stroke: #ffffff; stroke-opacity: 0.4; stroke-linecap: round"/>
     </g>
     <g id="line2d_2">
      <defs>
       <path id="mad79e89837" d="M 0 0 
L 0 3 
" style="stroke: #808080"/>
      </defs>
      <g>
       <use xlink:href="#mad79e89837" x="131.292594" y="417.8" style="fill: #808080; stroke: #808080"/>
      </g>
     </g>
     <g id="text_1">
      <text style="font-size: 52px; font-family: 'DejaVu Serif', 'Times New Roman', serif; text-anchor: middle; fill: #262626" x="131.292594" y="467.311875" transform="rotate(-0 131.292594 467.311875)">0.09</text>
     </g>
    </g>
    <g id="xtick_2">
     <g id="line2d_3">
      <path d="M 335.939022 417.8 
L 335.939022 115.932 
" clip-path="url(#pd016887f06)" style="fill: none; stroke: #ffffff; stroke-opacity: 0.4; stroke-linecap: round"/>
     </g>
     <g id="line2d_4">
      <g>
       <use xlink:href="#mad79e89837" x="335.939022" y="417.8" style="fill: #808080; stroke: #808080"/>
      </g>
     </g>
     <g id="text_2">
      <text style="font-size: 52px; font-family: 'DejaVu Serif', 'Times New Roman', serif; text-anchor: middle; fill: #262626" x="335.939022" y="467.311875" transform="rotate(-0 335.939022 467.311875)">0.10</text>
     </g>
    </g>
    <g id="xtick_3">
     <g id="line2d_5">
      <path d="M 540.58545 417.8 
L 540.58545 115.932 
" clip-path="url(#pd016887f06)" style="fill: none; stroke: #ffffff; stroke-opacity: 0.4; stroke-linecap: round"/>
     </g>
     <g id="line2d_6">
      <g>
       <use xlink:href="#mad79e89837" x="540.58545" y="417.8" style="fill: #808080; stroke: #808080"/>
      </g>
     </g>
     <g id="text_3">
      <text style="font-size: 52px; font-family: 'DejaVu Serif', 'Times New Roman', serif; text-anchor: middle; fill: #262626" x="540.58545" y="467.311875" transform="rotate(-0 540.58545 467.311875)">0.11</text>
     </g>
    </g>
   </g>
   <g id="matplotlib.axis_2"/>
   <g id="FillBetweenPolyCollection_1">
    <defs>
     <path id="m79d21ea099" d="M 71.177252 -99.921273 
L 71.177252 -101.934538 
L 72.204002 -101.933843 
L 73.230752 -101.931936 
L 74.257502 -101.926503 
L 75.284252 -101.926499 
L 76.311002 -101.924264 
L 77.337752 -101.923411 
L 78.364502 -101.923872 
L 79.391252 -101.926263 
L 80.418002 -101.931235 
L 81.444752 -101.936322 
L 82.471502 -101.947715 
L 83.498252 -101.962911 
L 84.525003 -101.985634 
L 85.551753 -102.010881 
L 86.578503 -102.041616 
L 87.605253 -102.078195 
L 88.632003 -102.118355 
L 89.658753 -102.167767 
L 90.685503 -102.226463 
L 91.712253 -102.288829 
L 92.739003 -102.357173 
L 93.765753 -102.434304 
L 94.792503 -102.514252 
L 95.819253 -102.602119 
L 96.846003 -102.694877 
L 97.872753 -102.789421 
L 98.899503 -102.893778 
L 99.926254 -102.995481 
L 100.953004 -103.111302 
L 101.979754 -103.21834 
L 103.006504 -103.325887 
L 104.033254 -103.436342 
L 105.060004 -103.549761 
L 106.086754 -103.65699 
L 107.113504 -103.768807 
L 108.140254 -103.876879 
L 109.167004 -103.98669 
L 110.193754 -104.089545 
L 111.220504 -104.19359 
L 112.247254 -104.293407 
L 113.274004 -104.391741 
L 114.300754 -104.492074 
L 115.327505 -104.587441 
L 116.354255 -104.690851 
L 117.381005 -104.793726 
L 118.407755 -104.901273 
L 119.434505 -105.008808 
L 120.461255 -105.125966 
L 121.488005 -105.255085 
L 122.514755 -105.38934 
L 123.541505 -105.526171 
L 124.568255 -105.677786 
L 125.595005 -105.830814 
L 126.621755 -106.002806 
L 127.648505 -106.180785 
L 128.675255 -106.385941 
L 129.702005 -106.590999 
L 130.728756 -106.811915 
L 131.755506 -107.049552 
L 132.782256 -107.295359 
L 133.809006 -107.554854 
L 134.835756 -107.843494 
L 135.862506 -108.135868 
L 136.889256 -108.438685 
L 137.916006 -108.757207 
L 138.942756 -109.091749 
L 139.969506 -109.436458 
L 140.996256 -109.802946 
L 142.023006 -110.186918 
L 143.049756 -110.574257 
L 144.076506 -110.987508 
L 145.103256 -111.400841 
L 146.130007 -111.829966 
L 147.156757 -112.278819 
L 148.183507 -112.745993 
L 149.210257 -113.226512 
L 150.237007 -113.724128 
L 151.263757 -114.242646 
L 152.290507 -114.770963 
L 153.317257 -115.320206 
L 154.344007 -115.891527 
L 155.370757 -116.483631 
L 156.397507 -117.090148 
L 157.424257 -117.722548 
L 158.451007 -118.382368 
L 159.477757 -119.067508 
L 160.504507 -119.760809 
L 161.531258 -120.483911 
L 162.558008 -121.225379 
L 163.584758 -121.990439 
L 164.611508 -122.783022 
L 165.638258 -123.582712 
L 166.665008 -124.407296 
L 167.691758 -125.256469 
L 168.718508 -126.121288 
L 169.745258 -127.018988 
L 170.772008 -127.929738 
L 171.798758 -128.839128 
L 172.825508 -129.776544 
L 173.852258 -130.716687 
L 174.879008 -131.680857 
L 175.905758 -132.660719 
L 176.932509 -133.653134 
L 177.959259 -134.648123 
L 178.986009 -135.664896 
L 180.012759 -136.668589 
L 181.039509 -137.687427 
L 182.066259 -138.728014 
L 183.093009 -139.76558 
L 184.119759 -140.818874 
L 185.146509 -141.870639 
L 186.173259 -142.925253 
L 187.200009 -143.984453 
L 188.226759 -145.054345 
L 189.253509 -146.141281 
L 190.280259 -147.22702 
L 191.307009 -148.321902 
L 192.33376 -149.433299 
L 193.36051 -150.520738 
L 194.38726 -151.625352 
L 195.41401 -152.739863 
L 196.44076 -153.852838 
L 197.46751 -154.966401 
L 198.49426 -156.073111 
L 199.52101 -157.204024 
L 200.54776 -158.350976 
L 201.57451 -159.485664 
L 202.60126 -160.616171 
L 203.62801 -161.738394 
L 204.65476 -162.878599 
L 205.68151 -164.035574 
L 206.70826 -165.211942 
L 207.735011 -166.379075 
L 208.761761 -167.553056 
L 209.788511 -168.732586 
L 210.815261 -169.917718 
L 211.842011 -171.096597 
L 212.868761 -172.305175 
L 213.895511 -173.533941 
L 214.922261 -174.785768 
L 215.949011 -176.036348 
L 216.975761 -177.32468 
L 218.002511 -178.602689 
L 219.029261 -179.939538 
L 220.056011 -181.302261 
L 221.082761 -182.684735 
L 222.109511 -184.092162 
L 223.136262 -185.555624 
L 224.163012 -187.03219 
L 225.189762 -188.567361 
L 226.216512 -190.141872 
L 227.243262 -191.747345 
L 228.270012 -193.3896 
L 229.296762 -195.067504 
L 230.323512 -196.796152 
L 231.350262 -198.569847 
L 232.377012 -200.37692 
L 233.403762 -202.232587 
L 234.430512 -204.101229 
L 235.457262 -206.009894 
L 236.484012 -207.944222 
L 237.510762 -209.88943 
L 238.537513 -211.872599 
L 239.564263 -213.868693 
L 240.591013 -215.851204 
L 241.617763 -217.877329 
L 242.644513 -219.887995 
L 243.671263 -221.857472 
L 244.698013 -223.836541 
L 245.724763 -225.826963 
L 246.751513 -227.793735 
L 247.778263 -229.744129 
L 248.805013 -231.652208 
L 249.831763 -233.565239 
L 250.858513 -235.434496 
L 251.885263 -237.283971 
L 252.912013 -239.124811 
L 253.938764 -240.926869 
L 254.965514 -242.767963 
L 255.992264 -244.553319 
L 257.019014 -246.306899 
L 258.045764 -248.059862 
L 259.072514 -249.814633 
L 260.099264 -251.562236 
L 261.126014 -253.331158 
L 262.152764 -255.089086 
L 263.179514 -256.881145 
L 264.206264 -258.688362 
L 265.233014 -260.513108 
L 266.259764 -262.3952 
L 267.286514 -264.323558 
L 268.313264 -266.282512 
L 269.340015 -268.311152 
L 270.366765 -270.358555 
L 271.393515 -272.421442 
L 272.420265 -274.54397 
L 273.447015 -276.712322 
L 274.473765 -278.925095 
L 275.500515 -281.197119 
L 276.527265 -283.479261 
L 277.554015 -285.782053 
L 278.580765 -288.113657 
L 279.607515 -290.492469 
L 280.634265 -292.872887 
L 281.661015 -295.217121 
L 282.687765 -297.617074 
L 283.714515 -299.999346 
L 284.741266 -302.3616 
L 285.768016 -304.713831 
L 286.794766 -307.022072 
L 287.821516 -309.314055 
L 288.848266 -311.562787 
L 289.875016 -313.790517 
L 290.901766 -315.960662 
L 291.928516 -318.072519 
L 292.955266 -320.16279 
L 293.982016 -322.171091 
L 295.008766 -324.118808 
L 296.035516 -326.003945 
L 297.062266 -327.833061 
L 298.089016 -329.624103 
L 299.115766 -331.335569 
L 300.142517 -333.001453 
L 301.169267 -334.649754 
L 302.196017 -336.193653 
L 303.222767 -337.720129 
L 304.249517 -339.17208 
L 305.276267 -340.616857 
L 306.303017 -341.987862 
L 307.329767 -343.362704 
L 308.356517 -344.654373 
L 309.383267 -345.933719 
L 310.410017 -347.199463 
L 311.436767 -348.450175 
L 312.463517 -349.666499 
L 313.490267 -350.887974 
L 314.517017 -352.05198 
L 315.543768 -353.186165 
L 316.570518 -354.324234 
L 317.597268 -355.461568 
L 318.624018 -356.576271 
L 319.650768 -357.657676 
L 320.677518 -358.728451 
L 321.704268 -359.782775 
L 322.731018 -360.804349 
L 323.757768 -361.840456 
L 324.784518 -362.8591 
L 325.811268 -363.833053 
L 326.838018 -364.787693 
L 327.864768 -365.723171 
L 328.891518 -366.610139 
L 329.918268 -367.500366 
L 330.945019 -368.317012 
L 331.971769 -369.100677 
L 332.998519 -369.875773 
L 334.025269 -370.602928 
L 335.052019 -371.253376 
L 336.078769 -371.87314 
L 337.105519 -372.422637 
L 338.132269 -372.915161 
L 339.159019 -373.350554 
L 340.185769 -373.702833 
L 341.212519 -373.978238 
L 342.239269 -374.196289 
L 343.266019 -374.331093 
L 344.292769 -374.346727 
L 345.319519 -374.342723 
L 346.34627 -374.243347 
L 347.37302 -374.078238 
L 348.39977 -373.801009 
L 349.42652 -373.463613 
L 350.45327 -373.05287 
L 351.48002 -372.565202 
L 352.50677 -371.989419 
L 353.53352 -371.31928 
L 354.56027 -370.586366 
L 355.58702 -369.759616 
L 356.61377 -368.863053 
L 357.64052 -367.894377 
L 358.66727 -366.87996 
L 359.69402 -365.83184 
L 360.72077 -364.738616 
L 361.747521 -363.574167 
L 362.774271 -362.350909 
L 363.801021 -361.070524 
L 364.827771 -359.735814 
L 365.854521 -358.375176 
L 366.881271 -356.966544 
L 367.908021 -355.506094 
L 368.934771 -353.990454 
L 369.961521 -352.46865 
L 370.988271 -350.907438 
L 372.015021 -349.277916 
L 373.041771 -347.567535 
L 374.068521 -345.846852 
L 375.095271 -344.060624 
L 376.122022 -342.24718 
L 377.148772 -340.359482 
L 378.175522 -338.403878 
L 379.202272 -336.365794 
L 380.229022 -334.306536 
L 381.255772 -332.204153 
L 382.282522 -330.014134 
L 383.309272 -327.793627 
L 384.336022 -325.514919 
L 385.362772 -323.191585 
L 386.389522 -320.816786 
L 387.416272 -318.385442 
L 388.443022 -315.933332 
L 389.469772 -313.437306 
L 390.496522 -310.89809 
L 391.523273 -308.375726 
L 392.550023 -305.796596 
L 393.576773 -303.243631 
L 394.603523 -300.670096 
L 395.630273 -298.116267 
L 396.657023 -295.541896 
L 397.683773 -293.019354 
L 398.710523 -290.495361 
L 399.737273 -288.013101 
L 400.764023 -285.559306 
L 401.790773 -283.126186 
L 402.817523 -280.725304 
L 403.844273 -278.412417 
L 404.871023 -276.139773 
L 405.897773 -273.897748 
L 406.924524 -271.679186 
L 407.951274 -269.528645 
L 408.978024 -267.410051 
L 410.004774 -265.345858 
L 411.031524 -263.331483 
L 412.058274 -261.370415 
L 413.085024 -259.427431 
L 414.111774 -257.500029 
L 415.138524 -255.624169 
L 416.165274 -253.771213 
L 417.192024 -251.944863 
L 418.218774 -250.14821 
L 419.245524 -248.349517 
L 420.272274 -246.580273 
L 421.299024 -244.840058 
L 422.325775 -243.099218 
L 423.352525 -241.344775 
L 424.379275 -239.607582 
L 425.406025 -237.865865 
L 426.432775 -236.13668 
L 427.459525 -234.422131 
L 428.486275 -232.688872 
L 429.513025 -230.974028 
L 430.539775 -229.263191 
L 431.566525 -227.49736 
L 432.593275 -225.750509 
L 433.620025 -224.006213 
L 434.646775 -222.257425 
L 435.673525 -220.521165 
L 436.700275 -218.749451 
L 437.727026 -217.001082 
L 438.753776 -215.233821 
L 439.780526 -213.460713 
L 440.807276 -211.689061 
L 441.834026 -209.922556 
L 442.860776 -208.16891 
L 443.887526 -206.411248 
L 444.914276 -204.654378 
L 445.941026 -202.91674 
L 446.967776 -201.187802 
L 447.994526 -199.450742 
L 449.021276 -197.733081 
L 450.048026 -196.021749 
L 451.074776 -194.341558 
L 452.101526 -192.664571 
L 453.128277 -191.018065 
L 454.155027 -189.368908 
L 455.181777 -187.745754 
L 456.208527 -186.141075 
L 457.235277 -184.54723 
L 458.262027 -182.969317 
L 459.288777 -181.395239 
L 460.315527 -179.857975 
L 461.342277 -178.337915 
L 462.369027 -176.853701 
L 463.395777 -175.351336 
L 464.422527 -173.877651 
L 465.449277 -172.414749 
L 466.476027 -170.969694 
L 467.502777 -169.544107 
L 468.529528 -168.128631 
L 469.556278 -166.733945 
L 470.583028 -165.3473 
L 471.609778 -163.974642 
L 472.636528 -162.605703 
L 473.663278 -161.249942 
L 474.690028 -159.918096 
L 475.716778 -158.613845 
L 476.743528 -157.329568 
L 477.770278 -156.059759 
L 478.797028 -154.808857 
L 479.823778 -153.569387 
L 480.850528 -152.347314 
L 481.877278 -151.143403 
L 482.904028 -149.96388 
L 483.930779 -148.804955 
L 484.957529 -147.675198 
L 485.984279 -146.572653 
L 487.011029 -145.483491 
L 488.037779 -144.422809 
L 489.064529 -143.369982 
L 490.091279 -142.356896 
L 491.118029 -141.376433 
L 492.144779 -140.417988 
L 493.171529 -139.473322 
L 494.198279 -138.561338 
L 495.225029 -137.660523 
L 496.251779 -136.786546 
L 497.278529 -135.922057 
L 498.305279 -135.085673 
L 499.33203 -134.249346 
L 500.35878 -133.44141 
L 501.38553 -132.631085 
L 502.41228 -131.855886 
L 503.43903 -131.096507 
L 504.46578 -130.350123 
L 505.49253 -129.624629 
L 506.51928 -128.885016 
L 507.54603 -128.178648 
L 508.57278 -127.486049 
L 509.59953 -126.796049 
L 510.62628 -126.112816 
L 511.65303 -125.442202 
L 512.67978 -124.786346 
L 513.70653 -124.14691 
L 514.733281 -123.512597 
L 515.760031 -122.900087 
L 516.786781 -122.297628 
L 517.813531 -121.697173 
L 518.840281 -121.114735 
L 519.867031 -120.530833 
L 520.893781 -119.975039 
L 521.920531 -119.423082 
L 522.947281 -118.879324 
L 523.974031 -118.323585 
L 525.000781 -117.788732 
L 526.027531 -117.264234 
L 527.054281 -116.73907 
L 528.081031 -116.232038 
L 529.107781 -115.731089 
L 530.134532 -115.236148 
L 531.161282 -114.74406 
L 532.188032 -114.262906 
L 533.214782 -113.786633 
L 534.241532 -113.318023 
L 535.268282 -112.846834 
L 536.295032 -112.387633 
L 537.321782 -111.932068 
L 538.348532 -111.479251 
L 539.375282 -111.04321 
L 540.402032 -110.61016 
L 541.428782 -110.194369 
L 542.455532 -109.781617 
L 543.482282 -109.386296 
L 544.509032 -108.998013 
L 545.535783 -108.615615 
L 546.562533 -108.247715 
L 547.589283 -107.884162 
L 548.616033 -107.542019 
L 549.642783 -107.214807 
L 550.669533 -106.890425 
L 551.696283 -106.5895 
L 552.723033 -106.305382 
L 553.749783 -106.032737 
L 554.776533 -105.77421 
L 555.803283 -105.531753 
L 556.830033 -105.299816 
L 557.856783 -105.086463 
L 558.883533 -104.880454 
L 559.910283 -104.690952 
L 560.937034 -104.514654 
L 561.963784 -104.350731 
L 562.990534 -104.201452 
L 564.017284 -104.064136 
L 565.044034 -103.93858 
L 566.070784 -103.817025 
L 567.097534 -103.7083 
L 568.124284 -103.608717 
L 569.151034 -103.528303 
L 570.177784 -103.457365 
L 571.204534 -103.398106 
L 572.231284 -103.344643 
L 573.258034 -103.297203 
L 574.284784 -103.26088 
L 575.311534 -103.237726 
L 576.338285 -103.218694 
L 577.365035 -103.203354 
L 578.391785 -103.19424 
L 579.418535 -103.185687 
L 580.445285 -103.183066 
L 581.472035 -103.196775 
L 582.498785 -103.206317 
L 583.525535 -103.221593 
L 584.552285 -103.241311 
L 585.579035 -103.261765 
L 586.605785 -103.282363 
L 587.632535 -103.30564 
L 588.659285 -103.328615 
L 589.686035 -103.3452 
L 590.712785 -103.362922 
L 591.739536 -103.378179 
L 592.766286 -103.388043 
L 593.793036 -103.395182 
L 594.819786 -103.396691 
L 595.846536 -103.400315 
L 595.846536 -99.921273 
L 595.846536 -99.921273 
L 594.819786 -99.921273 
L 593.793036 -99.921273 
L 592.766286 -99.921273 
L 591.739536 -99.921273 
L 590.712785 -99.921273 
L 589.686035 -99.921273 
L 588.659285 -99.921273 
L 587.632535 -99.921273 
L 586.605785 -99.921273 
L 585.579035 -99.921273 
L 584.552285 -99.921273 
L 583.525535 -99.921273 
L 582.498785 -99.921273 
L 581.472035 -99.921273 
L 580.445285 -99.921273 
L 579.418535 -99.921273 
L 578.391785 -99.921273 
L 577.365035 -99.921273 
L 576.338285 -99.921273 
L 575.311534 -99.921273 
L 574.284784 -99.921273 
L 573.258034 -99.921273 
L 572.231284 -99.921273 
L 571.204534 -99.921273 
L 570.177784 -99.921273 
L 569.151034 -99.921273 
L 568.124284 -99.921273 
L 567.097534 -99.921273 
L 566.070784 -99.921273 
L 565.044034 -99.921273 
L 564.017284 -99.921273 
L 562.990534 -99.921273 
L 561.963784 -99.921273 
L 560.937034 -99.921273 
L 559.910283 -99.921273 
L 558.883533 -99.921273 
L 557.856783 -99.921273 
L 556.830033 -99.921273 
L 555.803283 -99.921273 
L 554.776533 -99.921273 
L 553.749783 -99.921273 
L 552.723033 -99.921273 
L 551.696283 -99.921273 
L 550.669533 -99.921273 
L 549.642783 -99.921273 
L 548.616033 -99.921273 
L 547.589283 -99.921273 
L 546.562533 -99.921273 
L 545.535783 -99.921273 
L 544.509032 -99.921273 
L 543.482282 -99.921273 
L 542.455532 -99.921273 
L 541.428782 -99.921273 
L 540.402032 -99.921273 
L 539.375282 -99.921273 
L 538.348532 -99.921273 
L 537.321782 -99.921273 
L 536.295032 -99.921273 
L 535.268282 -99.921273 
L 534.241532 -99.921273 
L 533.214782 -99.921273 
L 532.188032 -99.921273 
L 531.161282 -99.921273 
L 530.134532 -99.921273 
L 529.107781 -99.921273 
L 528.081031 -99.921273 
L 527.054281 -99.921273 
L 526.027531 -99.921273 
L 525.000781 -99.921273 
L 523.974031 -99.921273 
L 522.947281 -99.921273 
L 521.920531 -99.921273 
L 520.893781 -99.921273 
L 519.867031 -99.921273 
L 518.840281 -99.921273 
L 517.813531 -99.921273 
L 516.786781 -99.921273 
L 515.760031 -99.921273 
L 514.733281 -99.921273 
L 513.70653 -99.921273 
L 512.67978 -99.921273 
L 511.65303 -99.921273 
L 510.62628 -99.921273 
L 509.59953 -99.921273 
L 508.57278 -99.921273 
L 507.54603 -99.921273 
L 506.51928 -99.921273 
L 505.49253 -99.921273 
L 504.46578 -99.921273 
L 503.43903 -99.921273 
L 502.41228 -99.921273 
L 501.38553 -99.921273 
L 500.35878 -99.921273 
L 499.33203 -99.921273 
L 498.305279 -99.921273 
L 497.278529 -99.921273 
L 496.251779 -99.921273 
L 495.225029 -99.921273 
L 494.198279 -99.921273 
L 493.171529 -99.921273 
L 492.144779 -99.921273 
L 491.118029 -99.921273 
L 490.091279 -99.921273 
L 489.064529 -99.921273 
L 488.037779 -99.921273 
L 487.011029 -99.921273 
L 485.984279 -99.921273 
L 484.957529 -99.921273 
L 483.930779 -99.921273 
L 482.904028 -99.921273 
L 481.877278 -99.921273 
L 480.850528 -99.921273 
L 479.823778 -99.921273 
L 478.797028 -99.921273 
L 477.770278 -99.921273 
L 476.743528 -99.921273 
L 475.716778 -99.921273 
L 474.690028 -99.921273 
L 473.663278 -99.921273 
L 472.636528 -99.921273 
L 471.609778 -99.921273 
L 470.583028 -99.921273 
L 469.556278 -99.921273 
L 468.529528 -99.921273 
L 467.502777 -99.921273 
L 466.476027 -99.921273 
L 465.449277 -99.921273 
L 464.422527 -99.921273 
L 463.395777 -99.921273 
L 462.369027 -99.921273 
L 461.342277 -99.921273 
L 460.315527 -99.921273 
L 459.288777 -99.921273 
L 458.262027 -99.921273 
L 457.235277 -99.921273 
L 456.208527 -99.921273 
L 455.181777 -99.921273 
L 454.155027 -99.921273 
L 453.128277 -99.921273 
L 452.101526 -99.921273 
L 451.074776 -99.921273 
L 450.048026 -99.921273 
L 449.021276 -99.921273 
L 447.994526 -99.921273 
L 446.967776 -99.921273 
L 445.941026 -99.921273 
L 444.914276 -99.921273 
L 443.887526 -99.921273 
L 442.860776 -99.921273 
L 441.834026 -99.921273 
L 440.807276 -99.921273 
L 439.780526 -99.921273 
L 438.753776 -99.921273 
L 437.727026 -99.921273 
L 436.700275 -99.921273 
L 435.673525 -99.921273 
L 434.646775 -99.921273 
L 433.620025 -99.921273 
L 432.593275 -99.921273 
L 431.566525 -99.921273 
L 430.539775 -99.921273 
L 429.513025 -99.921273 
L 428.486275 -99.921273 
L 427.459525 -99.921273 
L 426.432775 -99.921273 
L 425.406025 -99.921273 
L 424.379275 -99.921273 
L 423.352525 -99.921273 
L 422.325775 -99.921273 
L 421.299024 -99.921273 
L 420.272274 -99.921273 
L 419.245524 -99.921273 
L 418.218774 -99.921273 
L 417.192024 -99.921273 
L 416.165274 -99.921273 
L 415.138524 -99.921273 
L 414.111774 -99.921273 
L 413.085024 -99.921273 
L 412.058274 -99.921273 
L 411.031524 -99.921273 
L 410.004774 -99.921273 
L 408.978024 -99.921273 
L 407.951274 -99.921273 
L 406.924524 -99.921273 
L 405.897773 -99.921273 
L 404.871023 -99.921273 
L 403.844273 -99.921273 
L 402.817523 -99.921273 
L 401.790773 -99.921273 
L 400.764023 -99.921273 
L 399.737273 -99.921273 
L 398.710523 -99.921273 
L 397.683773 -99.921273 
L 396.657023 -99.921273 
L 395.630273 -99.921273 
L 394.603523 -99.921273 
L 393.576773 -99.921273 
L 392.550023 -99.921273 
L 391.523273 -99.921273 
L 390.496522 -99.921273 
L 389.469772 -99.921273 
L 388.443022 -99.921273 
L 387.416272 -99.921273 
L 386.389522 -99.921273 
L 385.362772 -99.921273 
L 384.336022 -99.921273 
L 383.309272 -99.921273 
L 382.282522 -99.921273 
L 381.255772 -99.921273 
L 380.229022 -99.921273 
L 379.202272 -99.921273 
L 378.175522 -99.921273 
L 377.148772 -99.921273 
L 376.122022 -99.921273 
L 375.095271 -99.921273 
L 374.068521 -99.921273 
L 373.041771 -99.921273 
L 372.015021 -99.921273 
L 370.988271 -99.921273 
L 369.961521 -99.921273 
L 368.934771 -99.921273 
L 367.908021 -99.921273 
L 366.881271 -99.921273 
L 365.854521 -99.921273 
L 364.827771 -99.921273 
L 363.801021 -99.921273 
L 362.774271 -99.921273 
L 361.747521 -99.921273 
L 360.72077 -99.921273 
L 359.69402 -99.921273 
L 358.66727 -99.921273 
L 357.64052 -99.921273 
L 356.61377 -99.921273 
L 355.58702 -99.921273 
L 354.56027 -99.921273 
L 353.53352 -99.921273 
L 352.50677 -99.921273 
L 351.48002 -99.921273 
L 350.45327 -99.921273 
L 349.42652 -99.921273 
L 348.39977 -99.921273 
L 347.37302 -99.921273 
L 346.34627 -99.921273 
L 345.319519 -99.921273 
L 344.292769 -99.921273 
L 343.266019 -99.921273 
L 342.239269 -99.921273 
L 341.212519 -99.921273 
L 340.185769 -99.921273 
L 339.159019 -99.921273 
L 338.132269 -99.921273 
L 337.105519 -99.921273 
L 336.078769 -99.921273 
L 335.052019 -99.921273 
L 334.025269 -99.921273 
L 332.998519 -99.921273 
L 331.971769 -99.921273 
L 330.945019 -99.921273 
L 329.918268 -99.921273 
L 328.891518 -99.921273 
L 327.864768 -99.921273 
L 326.838018 -99.921273 
L 325.811268 -99.921273 
L 324.784518 -99.921273 
L 323.757768 -99.921273 
L 322.731018 -99.921273 
L 321.704268 -99.921273 
L 320.677518 -99.921273 
L 319.650768 -99.921273 
L 318.624018 -99.921273 
L 317.597268 -99.921273 
L 316.570518 -99.921273 
L 315.543768 -99.921273 
L 314.517017 -99.921273 
L 313.490267 -99.921273 
L 312.463517 -99.921273 
L 311.436767 -99.921273 
L 310.410017 -99.921273 
L 309.383267 -99.921273 
L 308.356517 -99.921273 
L 307.329767 -99.921273 
L 306.303017 -99.921273 
L 305.276267 -99.921273 
L 304.249517 -99.921273 
L 303.222767 -99.921273 
L 302.196017 -99.921273 
L 301.169267 -99.921273 
L 300.142517 -99.921273 
L 299.115766 -99.921273 
L 298.089016 -99.921273 
L 297.062266 -99.921273 
L 296.035516 -99.921273 
L 295.008766 -99.921273 
L 293.982016 -99.921273 
L 292.955266 -99.921273 
L 291.928516 -99.921273 
L 290.901766 -99.921273 
L 289.875016 -99.921273 
L 288.848266 -99.921273 
L 287.821516 -99.921273 
L 286.794766 -99.921273 
L 285.768016 -99.921273 
L 284.741266 -99.921273 
L 283.714515 -99.921273 
L 282.687765 -99.921273 
L 281.661015 -99.921273 
L 280.634265 -99.921273 
L 279.607515 -99.921273 
L 278.580765 -99.921273 
L 277.554015 -99.921273 
L 276.527265 -99.921273 
L 275.500515 -99.921273 
L 274.473765 -99.921273 
L 273.447015 -99.921273 
L 272.420265 -99.921273 
L 271.393515 -99.921273 
L 270.366765 -99.921273 
L 269.340015 -99.921273 
L 268.313264 -99.921273 
L 267.286514 -99.921273 
L 266.259764 -99.921273 
L 265.233014 -99.921273 
L 264.206264 -99.921273 
L 263.179514 -99.921273 
L 262.152764 -99.921273 
L 261.126014 -99.921273 
L 260.099264 -99.921273 
L 259.072514 -99.921273 
L 258.045764 -99.921273 
L 257.019014 -99.921273 
L 255.992264 -99.921273 
L 254.965514 -99.921273 
L 253.938764 -99.921273 
L 252.912013 -99.921273 
L 251.885263 -99.921273 
L 250.858513 -99.921273 
L 249.831763 -99.921273 
L 248.805013 -99.921273 
L 247.778263 -99.921273 
L 246.751513 -99.921273 
L 245.724763 -99.921273 
L 244.698013 -99.921273 
L 243.671263 -99.921273 
L 242.644513 -99.921273 
L 241.617763 -99.921273 
L 240.591013 -99.921273 
L 239.564263 -99.921273 
L 238.537513 -99.921273 
L 237.510762 -99.921273 
L 236.484012 -99.921273 
L 235.457262 -99.921273 
L 234.430512 -99.921273 
L 233.403762 -99.921273 
L 232.377012 -99.921273 
L 231.350262 -99.921273 
L 230.323512 -99.921273 
L 229.296762 -99.921273 
L 228.270012 -99.921273 
L 227.243262 -99.921273 
L 226.216512 -99.921273 
L 225.189762 -99.921273 
L 224.163012 -99.921273 
L 223.136262 -99.921273 
L 222.109511 -99.921273 
L 221.082761 -99.921273 
L 220.056011 -99.921273 
L 219.029261 -99.921273 
L 218.002511 -99.921273 
L 216.975761 -99.921273 
L 215.949011 -99.921273 
L 214.922261 -99.921273 
L 213.895511 -99.921273 
L 212.868761 -99.921273 
L 211.842011 -99.921273 
L 210.815261 -99.921273 
L 209.788511 -99.921273 
L 208.761761 -99.921273 
L 207.735011 -99.921273 
L 206.70826 -99.921273 
L 205.68151 -99.921273 
L 204.65476 -99.921273 
L 203.62801 -99.921273 
L 202.60126 -99.921273 
L 201.57451 -99.921273 
L 200.54776 -99.921273 
L 199.52101 -99.921273 
L 198.49426 -99.921273 
L 197.46751 -99.921273 
L 196.44076 -99.921273 
L 195.41401 -99.921273 
L 194.38726 -99.921273 
L 193.36051 -99.921273 
L 192.33376 -99.921273 
L 191.307009 -99.921273 
L 190.280259 -99.921273 
L 189.253509 -99.921273 
L 188.226759 -99.921273 
L 187.200009 -99.921273 
L 186.173259 -99.921273 
L 185.146509 -99.921273 
L 184.119759 -99.921273 
L 183.093009 -99.921273 
L 182.066259 -99.921273 
L 181.039509 -99.921273 
L 180.012759 -99.921273 
L 178.986009 -99.921273 
L 177.959259 -99.921273 
L 176.932509 -99.921273 
L 175.905758 -99.921273 
L 174.879008 -99.921273 
L 173.852258 -99.921273 
L 172.825508 -99.921273 
L 171.798758 -99.921273 
L 170.772008 -99.921273 
L 169.745258 -99.921273 
L 168.718508 -99.921273 
L 167.691758 -99.921273 
L 166.665008 -99.921273 
L 165.638258 -99.921273 
L 164.611508 -99.921273 
L 163.584758 -99.921273 
L 162.558008 -99.921273 
L 161.531258 -99.921273 
L 160.504507 -99.921273 
L 159.477757 -99.921273 
L 158.451007 -99.921273 
L 157.424257 -99.921273 
L 156.397507 -99.921273 
L 155.370757 -99.921273 
L 154.344007 -99.921273 
L 153.317257 -99.921273 
L 152.290507 -99.921273 
L 151.263757 -99.921273 
L 150.237007 -99.921273 
L 149.210257 -99.921273 
L 148.183507 -99.921273 
L 147.156757 -99.921273 
L 146.130007 -99.921273 
L 145.103256 -99.921273 
L 144.076506 -99.921273 
L 143.049756 -99.921273 
L 142.023006 -99.921273 
L 140.996256 -99.921273 
L 139.969506 -99.921273 
L 138.942756 -99.921273 
L 137.916006 -99.921273 
L 136.889256 -99.921273 
L 135.862506 -99.921273 
L 134.835756 -99.921273 
L 133.809006 -99.921273 
L 132.782256 -99.921273 
L 131.755506 -99.921273 
L 130.728756 -99.921273 
L 129.702005 -99.921273 
L 128.675255 -99.921273 
L 127.648505 -99.921273 
L 126.621755 -99.921273 
L 125.595005 -99.921273 
L 124.568255 -99.921273 
L 123.541505 -99.921273 
L 122.514755 -99.921273 
L 121.488005 -99.921273 
L 120.461255 -99.921273 
L 119.434505 -99.921273 
L 118.407755 -99.921273 
L 117.381005 -99.921273 
L 116.354255 -99.921273 
L 115.327505 -99.921273 
L 114.300754 -99.921273 
L 113.274004 -99.921273 
L 112.247254 -99.921273 
L 111.220504 -99.921273 
L 110.193754 -99.921273 
L 109.167004 -99.921273 
L 108.140254 -99.921273 
L 107.113504 -99.921273 
L 106.086754 -99.921273 
L 105.060004 -99.921273 
L 104.033254 -99.921273 
L 103.006504 -99.921273 
L 101.979754 -99.921273 
L 100.953004 -99.921273 
L 99.926254 -99.921273 
L 98.899503 -99.921273 
L 97.872753 -99.921273 
L 96.846003 -99.921273 
L 95.819253 -99.921273 
L 94.792503 -99.921273 
L 93.765753 -99.921273 
L 92.739003 -99.921273 
L 91.712253 -99.921273 
L 90.685503 -99.921273 
L 89.658753 -99.921273 
L 88.632003 -99.921273 
L 87.605253 -99.921273 
L 86.578503 -99.921273 
L 85.551753 -99.921273 
L 84.525003 -99.921273 
L 83.498252 -99.921273 
L 82.471502 -99.921273 
L 81.444752 -99.921273 
L 80.418002 -99.921273 
L 79.391252 -99.921273 
L 78.364502 -99.921273 
L 77.337752 -99.921273 
L 76.311002 -99.921273 
L 75.284252 -99.921273 
L 74.257502 -99.921273 
L 73.230752 -99.921273 
L 72.204002 -99.921273 
L 71.177252 -99.921273 
z
" style="stroke: #ff9896; stroke-opacity: 0.6; stroke-width: 0.3"/>
    </defs>
    <g clip-path="url(#pd016887f06)">
     <use xlink:href="#m79d21ea099" x="0" y="504" style="fill: #ff9896; fill-opacity: 0.6; stroke: #ff9896; stroke-opacity: 0.6; stroke-width: 0.3"/>
    </g>
   </g>
   <g id="line2d_7">
    <path d="M 71.177252 402.065462 
L 85.551753 401.989119 
L 91.712253 401.711171 
L 97.872753 401.210579 
L 122.514755 398.61066 
L 127.648505 397.819215 
L 132.782256 396.704641 
L 136.889256 395.561315 
L 140.996256 394.197054 
L 146.130007 392.170034 
L 150.237007 390.275872 
L 154.344007 388.108473 
L 158.451007 385.617632 
L 162.558008 382.774621 
L 166.665008 379.592704 
L 170.772008 376.070262 
L 174.879008 372.319143 
L 181.039509 366.312573 
L 189.253509 357.858719 
L 198.49426 347.926889 
L 207.735011 337.620925 
L 213.895511 330.466059 
L 219.029261 324.060462 
L 223.136262 318.444376 
L 226.216512 313.858128 
L 229.296762 308.932496 
L 232.377012 303.62308 
L 236.484012 296.055778 
L 241.617763 286.122671 
L 247.778263 274.255871 
L 252.912013 264.875189 
L 261.126014 250.668842 
L 265.233014 243.486892 
L 268.313264 237.717488 
L 272.420265 229.45603 
L 275.500515 222.802881 
L 280.634265 211.127113 
L 289.875016 190.209483 
L 292.955266 183.83721 
L 296.035516 177.996055 
L 299.115766 172.664431 
L 302.196017 167.806347 
L 305.276267 163.383143 
L 309.383267 158.066281 
L 313.490267 153.112026 
L 318.624018 147.423729 
L 323.757768 142.159544 
L 326.838018 139.212307 
L 329.918268 136.499634 
L 332.998519 134.124227 
L 335.052019 132.746624 
L 337.105519 131.577363 
L 339.159019 130.649446 
L 341.212519 130.021762 
L 343.266019 129.668907 
L 345.319519 129.657277 
L 347.37302 129.921762 
L 349.42652 130.536387 
L 351.48002 131.434798 
L 353.53352 132.68072 
L 355.58702 134.240384 
L 357.64052 136.105623 
L 360.72077 139.261384 
L 362.774271 141.649091 
L 365.854521 145.624824 
L 368.934771 150.009546 
L 372.015021 154.722084 
L 376.122022 161.75282 
L 379.202272 167.634206 
L 382.282522 173.985866 
L 385.362772 180.808415 
L 389.469772 190.562694 
L 401.790773 220.873814 
L 404.871023 227.860227 
L 408.978024 236.589949 
L 412.058274 242.629585 
L 416.165274 250.228787 
L 421.299024 259.159942 
L 453.128277 312.981935 
L 458.262027 321.030683 
L 462.369027 327.146299 
L 466.476027 333.030306 
L 472.636528 341.394297 
L 476.743528 346.670432 
L 481.877278 352.856597 
L 485.984279 357.427347 
L 490.091279 361.643104 
L 494.198279 365.438662 
L 498.305279 368.914327 
L 502.41228 372.144114 
L 507.54603 375.821352 
L 513.70653 379.85309 
L 517.813531 382.302827 
L 523.974031 385.676415 
L 530.134532 388.763852 
L 536.295032 391.612367 
L 541.428782 393.805631 
L 546.562533 395.752285 
L 550.669533 397.109575 
L 554.776533 398.22579 
L 558.883533 399.119546 
L 562.990534 399.798548 
L 568.124284 400.391283 
L 573.258034 400.702797 
L 579.418535 400.814313 
L 585.579035 400.738235 
L 595.846536 400.599685 
L 595.846536 400.599685 
" clip-path="url(#pd016887f06)" style="fill: none; stroke: #ff9896; stroke-width: 2; stroke-linecap: round"/>
   </g>
   <g id="line2d_8">
    <path d="M 213.184639 398.315793 
L 469.458498 398.315793 
" clip-path="url(#pd016887f06)" style="fill: none; stroke: #000000; stroke-width: 3.5"/>
   </g>
   <g id="patch_3">
    <path d="M 44.943787 417.8 
L 622.08 417.8 
" style="fill: none; stroke: #333333; stroke-width: 1.5; stroke-linejoin: miter; stroke-linecap: square"/>
   </g>
   <g id="text_4">
    <text style="font-size: 52px; font-family: 'DejaVu Serif', 'Times New Roman', serif; text-anchor: end; fill: #262626" x="213.184639" y="383.908456" transform="rotate(-0 213.184639 383.908456)">0.094 </text>
   </g>
   <g id="text_5">
    <text style="font-size: 52px; font-family: 'DejaVu Serif', 'Times New Roman', serif; text-anchor: start; fill: #262626" x="469.458498" y="383.908456" transform="rotate(-0 469.458498 383.908456)"> 0.11</text>
   </g>
   <g id="text_6">
    <text style="font-size: 52px; font-family: 'DejaVu Serif', 'Times New Roman', serif; text-anchor: middle; fill: #262626" x="341.321569" y="317.634709" transform="rotate(-0 341.321569 317.634709)">90%</text>
   </g>
   <g id="text_7">
    <!-- $\mu$=0.1 -->
    <g style="fill: #262626" transform="translate(259.605385 173.561345)">
     <text>
      <tspan x="0" y="-0.40625" style="font-style: oblique; font-size: 52px; font-family: 'DejaVu Sans'; fill: #262626">μ</tspan>
      <tspan x="33.083984" y="-0.40625" style="font-size: 52px; font-family: 'DejaVu Serif'; fill: #262626">=</tspan>
      <tspan x="76.654297" y="-0.40625" style="font-size: 52px; font-family: 'DejaVu Serif'; fill: #262626">0</tspan>
      <tspan x="109.738281" y="-0.40625" style="font-size: 52px; font-family: 'DejaVu Serif'; fill: #262626">.</tspan>
      <tspan x="126.267578" y="-0.40625" style="font-size: 52px; font-family: 'DejaVu Serif'; fill: #262626">1</tspan>
     </text>
    </g>
   </g>
   <g id="text_8">
    <!-- $x_1^3x_3$ -->
    <g style="fill: #262626" transform="translate(250.671894 94.652)">
     <text>
      <tspan x="0" y="-0.421875" style="font-style: oblique; font-size: 76px; font-family: 'DejaVu Sans'; fill: #262626">x</tspan>
      <tspan x="84.296419" y="-0.421875" style="font-style: oblique; font-size: 76px; font-family: 'DejaVu Sans'; fill: #262626">x</tspan>
      <tspan x="44.976562" y="20.359375" style="font-size: 53.2px; font-family: 'DejaVu Sans'; fill: #262626">1</tspan>
      <tspan x="48.370833" y="-29.515625" style="font-size: 53.2px; font-family: 'DejaVu Sans'; fill: #262626">3</tspan>
      <tspan x="129.272982" y="12.046875" style="font-size: 53.2px; font-family: 'DejaVu Sans'; fill: #262626">3</tspan>
     </text>
    </g>
   </g>
  </g>
 </g>
 <defs>
  <clipPath id="pd016887f06">
   <rect x="44.943787" y="115.932" width="577.136213" height="301.868"/>
  </clipPath>
 </defs>
</svg>
