<?xml version="1.0" encoding="utf-8" standalone="no"?>
<!DOCTYPE svg PUBLIC "-//W3C//DTD SVG 1.1//EN"
  "http://www.w3.org/Graphics/SVG/1.1/DTD/svg11.dtd">
<svg xmlns:xlink="http://www.w3.org/1999/xlink" width="648pt" height="504pt" viewBox="0 0 648 504" xmlns="http://www.w3.org/2000/svg" version="1.1">
 <metadata>
  <rdf:RDF xmlns:dc="http://purl.org/dc/elements/1.1/" xmlns:cc="http://creativecommons.org/ns#" xmlns:rdf="http://www.w3.org/1999/02/22-rdf-syntax-ns#">
   <cc:Work>
    <dc:type rdf:resource="http://purl.org/dc/dcmitype/StillImage"/>
    <dc:date>2026-02-22T16:15:37.484992</dc:date>
    <dc:format>image/svg+xml</dc:format>
    <dc:creator>
     <cc:Agent>
      <dc:title>Matplotlib v3.10.6, https://matplotlib.org/</dc:title>
     </cc:Agent>
    </dc:creator>
   </cc:Work>
  </rdf:RDF>
 </metadata>
 <defs>
  <style type="text/css">*{stroke-linejoin: round; stroke-linecap: butt}</style>
 </defs>
 <g id="figure_1">
  <g id="patch_1">
   <path d="M 0 504 
L 648 504 
L 648 0 
L 0 0 
L 0 504 
z
" style="fill: none; opacity: 0"/>
  </g>
  <g id="axes_1">
   <g id="patch_2">
    <path d="M 25.92 417.8 
L 610.220595 417.8 
L 610.220595 115.932 
L 25.92 115.932 
L 25.92 417.8 
z
" style="fill: none"/>
   </g>
   <g id="matplotlib.axis_1">
    <g id="xtick_1">
     <g id="line2d_1">
      <path d="M 184.825299 417.8 
L 184.825299 115.932 
" clip-path="url(#p36b469dea9)" style="fill: none; stroke: #ffffff; stroke-opacity: 0.4; stroke-linecap: round"/>
     </g>
     <g id="line2d_2">
      <defs>
       <path id="m44fa260812" d="M 0 0 
L 0 3 
" style="stroke: #808080"/>
      </defs>
      <g>
       <use xlink:href="#m44fa260812" x="184.825299" y="417.8" style="fill: #808080; stroke: #808080"/>
      </g>
     </g>
     <g id="text_1">
      <text style="font-size: 52px; font-family: 'DejaVu Serif', 'Times New Roman', serif; text-anchor: middle; fill: #262626" x="184.825299" y="467.311875" transform="rotate(-0 184.825299 467.311875)">−0.3</text>
     </g>
    </g>
    <g id="xtick_2">
     <g id="line2d_3">
      <path d="M 470.558017 417.8 
L 470.558017 115.932 
" clip-path="url(#p36b469dea9)" style="fill: none; stroke: #ffffff; stroke-opacity: 0.4; stroke-linecap: round"/>
     </g>
     <g id="line2d_4">
      <g>
       <use xlink:href="#m44fa260812" x="470.558017" y="417.8" style="fill: #808080; stroke: #808080"/>
      </g>
     </g>
     <g id="text_2">
      <text style="font-size: 52px; font-family: 'DejaVu Serif', 'Times New Roman', serif; text-anchor: middle; fill: #262626" x="470.558017" y="467.311875" transform="rotate(-0 470.558017 467.311875)">−0.2</text>
     </g>
    </g>
   </g>
   <g id="matplotlib.axis_2"/>
   <g id="FillBetweenPolyCollection_1">
    <defs>
     <path id="m6df1701311" d="M 52.479118 -99.921273 
L 52.479118 -101.109843 
L 53.518614 -101.113476 
L 54.55811 -101.120168 
L 55.597605 -101.136409 
L 56.637101 -101.150919 
L 57.676597 -101.166431 
L 58.716093 -101.192012 
L 59.755589 -101.222148 
L 60.795084 -101.253938 
L 61.83458 -101.296598 
L 62.874076 -101.340173 
L 63.913572 -101.390077 
L 64.953068 -101.452347 
L 65.992564 -101.51904 
L 67.032059 -101.589267 
L 68.071555 -101.672243 
L 69.111051 -101.756746 
L 70.150547 -101.845499 
L 71.190043 -101.950706 
L 72.229538 -102.061044 
L 73.269034 -102.176046 
L 74.30853 -102.295707 
L 75.348026 -102.425674 
L 76.387522 -102.569073 
L 77.427017 -102.717619 
L 78.466513 -102.873894 
L 79.506009 -103.03786 
L 80.545505 -103.20946 
L 81.585001 -103.391828 
L 82.624496 -103.57597 
L 83.663992 -103.770063 
L 84.703488 -103.974586 
L 85.742984 -104.180473 
L 86.78248 -104.39261 
L 87.821976 -104.62028 
L 88.861471 -104.852444 
L 89.900967 -105.094746 
L 90.940463 -105.33488 
L 91.979959 -105.586609 
L 93.019455 -105.844477 
L 94.05895 -106.111405 
L 95.098446 -106.378179 
L 96.137942 -106.64633 
L 97.177438 -106.921056 
L 98.216934 -107.208867 
L 99.256429 -107.495987 
L 100.295925 -107.787852 
L 101.335421 -108.086739 
L 102.374917 -108.379648 
L 103.414413 -108.686757 
L 104.453909 -108.988092 
L 105.493404 -109.294427 
L 106.5329 -109.609545 
L 107.572396 -109.918895 
L 108.611892 -110.23993 
L 109.651388 -110.555693 
L 110.690883 -110.874191 
L 111.730379 -111.20856 
L 112.769875 -111.536406 
L 113.809371 -111.874997 
L 114.848867 -112.210246 
L 115.888362 -112.559999 
L 116.927858 -112.920454 
L 117.967354 -113.286711 
L 119.00685 -113.668588 
L 120.046346 -114.052269 
L 121.085841 -114.452596 
L 122.125337 -114.861958 
L 123.164833 -115.283546 
L 124.204329 -115.717855 
L 125.243825 -116.159447 
L 126.283321 -116.623161 
L 127.322816 -117.097598 
L 128.362312 -117.585321 
L 129.401808 -118.093189 
L 130.441304 -118.62238 
L 131.4808 -119.1672 
L 132.520295 -119.718077 
L 133.559791 -120.285678 
L 134.599287 -120.858114 
L 135.638783 -121.448938 
L 136.678279 -122.046695 
L 137.717774 -122.678395 
L 138.75727 -123.318418 
L 139.796766 -123.968832 
L 140.836262 -124.622661 
L 141.875758 -125.300964 
L 142.915254 -125.996955 
L 143.954749 -126.724173 
L 144.994245 -127.46149 
L 146.033741 -128.202028 
L 147.073237 -128.947529 
L 148.112733 -129.715442 
L 149.152228 -130.504108 
L 150.191724 -131.313272 
L 151.23122 -132.153741 
L 152.270716 -133.024497 
L 153.310212 -133.922814 
L 154.349707 -134.838344 
L 155.389203 -135.795113 
L 156.428699 -136.775513 
L 157.468195 -137.780292 
L 158.507691 -138.842579 
L 159.547186 -139.934215 
L 160.586682 -141.048669 
L 161.626178 -142.216661 
L 162.665674 -143.401438 
L 163.70517 -144.633568 
L 164.744666 -145.901055 
L 165.784161 -147.217204 
L 166.823657 -148.552305 
L 167.863153 -149.941482 
L 168.902649 -151.3454 
L 169.942145 -152.799796 
L 170.98164 -154.282668 
L 172.021136 -155.772542 
L 173.060632 -157.299789 
L 174.100128 -158.835664 
L 175.139624 -160.390184 
L 176.179119 -161.960932 
L 177.218615 -163.537836 
L 178.258111 -165.125451 
L 179.297607 -166.719368 
L 180.337103 -168.335384 
L 181.376599 -169.9516 
L 182.416094 -171.545135 
L 183.45559 -173.129429 
L 184.495086 -174.736651 
L 185.534582 -176.303297 
L 186.574078 -177.852264 
L 187.613573 -179.414677 
L 188.653069 -180.945164 
L 189.692565 -182.476887 
L 190.732061 -183.998814 
L 191.771557 -185.522371 
L 192.811052 -187.016078 
L 193.850548 -188.513316 
L 194.890044 -190.001842 
L 195.92954 -191.47681 
L 196.969036 -192.959095 
L 198.008531 -194.431967 
L 199.048027 -195.938365 
L 200.087523 -197.432227 
L 201.127019 -198.958854 
L 202.166515 -200.490129 
L 203.206011 -202.077903 
L 204.245506 -203.682299 
L 205.285002 -205.315307 
L 206.324498 -206.982479 
L 207.363994 -208.692917 
L 208.40349 -210.429769 
L 209.442985 -212.223421 
L 210.482481 -214.066048 
L 211.521977 -215.975061 
L 212.561473 -217.903669 
L 213.600969 -219.893552 
L 214.640464 -221.949226 
L 215.67996 -224.072579 
L 216.719456 -226.205726 
L 217.758952 -228.394495 
L 218.798448 -230.644838 
L 219.837944 -232.928152 
L 220.877439 -235.252476 
L 221.916935 -237.605556 
L 222.956431 -239.981151 
L 223.995927 -242.384624 
L 225.035423 -244.78843 
L 226.074918 -247.228069 
L 227.114414 -249.681817 
L 228.15391 -252.115493 
L 229.193406 -254.563072 
L 230.232902 -256.987686 
L 231.272397 -259.420424 
L 232.311893 -261.803714 
L 233.351389 -264.207349 
L 234.390885 -266.595889 
L 235.430381 -268.990753 
L 236.469876 -271.327169 
L 237.509372 -273.627242 
L 238.548868 -275.905731 
L 239.588364 -278.13741 
L 240.62786 -280.340102 
L 241.667356 -282.566447 
L 242.706851 -284.741727 
L 243.746347 -286.888804 
L 244.785843 -288.988076 
L 245.825339 -291.069591 
L 246.864835 -293.089737 
L 247.90433 -295.06504 
L 248.943826 -297.040975 
L 249.983322 -298.966136 
L 251.022818 -300.87223 
L 252.062314 -302.765628 
L 253.101809 -304.60763 
L 254.141305 -306.400173 
L 255.180801 -308.182139 
L 256.220297 -309.925477 
L 257.259793 -311.638929 
L 258.299289 -313.312316 
L 259.338784 -314.952769 
L 260.37828 -316.552163 
L 261.417776 -318.137337 
L 262.457272 -319.648558 
L 263.496768 -321.173693 
L 264.536263 -322.625911 
L 265.575759 -324.043533 
L 266.615255 -325.450856 
L 267.654751 -326.826576 
L 268.694247 -328.195146 
L 269.733742 -329.519458 
L 270.773238 -330.805512 
L 271.812734 -332.121689 
L 272.85223 -333.382212 
L 273.891726 -334.65065 
L 274.931221 -335.876962 
L 275.970717 -337.125218 
L 277.010213 -338.374699 
L 278.049709 -339.614616 
L 279.089205 -340.818618 
L 280.128701 -342.044735 
L 281.168196 -343.28457 
L 282.207692 -344.507693 
L 283.247188 -345.724958 
L 284.286684 -346.932586 
L 285.32618 -348.142731 
L 286.365675 -349.367943 
L 287.405171 -350.574977 
L 288.444667 -351.782164 
L 289.484163 -352.988961 
L 290.523659 -354.188022 
L 291.563154 -355.375793 
L 292.60265 -356.557575 
L 293.642146 -357.682833 
L 294.681642 -358.813107 
L 295.721138 -359.894645 
L 296.760633 -360.983054 
L 297.800129 -361.977829 
L 298.839625 -362.989478 
L 299.879121 -363.978259 
L 300.918617 -364.906951 
L 301.958113 -365.815579 
L 302.997608 -366.686305 
L 304.037104 -367.504727 
L 305.0766 -368.277284 
L 306.116096 -369.007692 
L 307.155592 -369.731711 
L 308.195087 -370.372648 
L 309.234583 -370.974133 
L 310.274079 -371.503249 
L 311.313575 -372.055993 
L 312.353071 -372.515844 
L 313.392566 -372.917284 
L 314.432062 -373.293687 
L 315.471558 -373.594376 
L 316.511054 -373.847743 
L 317.55055 -374.044295 
L 318.590046 -374.216085 
L 319.629541 -374.310098 
L 320.669037 -374.346727 
L 321.708533 -374.331324 
L 322.748029 -374.287225 
L 323.787525 -374.145541 
L 324.82702 -373.97149 
L 325.866516 -373.719157 
L 326.906012 -373.413329 
L 327.945508 -373.023111 
L 328.985004 -372.578726 
L 330.024499 -372.058742 
L 331.063995 -371.515012 
L 332.103491 -370.932098 
L 333.142987 -370.291482 
L 334.182483 -369.614288 
L 335.221978 -368.895505 
L 336.261474 -368.098453 
L 337.30097 -367.305194 
L 338.340466 -366.47398 
L 339.379962 -365.612096 
L 340.419458 -364.720175 
L 341.458953 -363.839817 
L 342.498449 -362.946118 
L 343.537945 -361.996496 
L 344.577441 -361.074574 
L 345.616937 -360.147495 
L 346.656432 -359.193645 
L 347.695928 -358.239042 
L 348.735424 -357.305258 
L 349.77492 -356.356584 
L 350.814416 -355.415838 
L 351.853911 -354.50344 
L 352.893407 -353.580987 
L 353.932903 -352.686927 
L 354.972399 -351.779448 
L 356.011895 -350.87574 
L 357.051391 -349.98692 
L 358.090886 -349.064125 
L 359.130382 -348.175525 
L 360.169878 -347.27004 
L 361.209374 -346.361091 
L 362.24887 -345.420757 
L 363.288365 -344.458259 
L 364.327861 -343.507651 
L 365.367357 -342.54161 
L 366.406853 -341.501899 
L 367.446349 -340.484521 
L 368.485844 -339.386931 
L 369.52534 -338.269309 
L 370.564836 -337.078227 
L 371.604332 -335.853818 
L 372.643828 -334.596245 
L 373.683323 -333.280025 
L 374.722819 -331.92934 
L 375.762315 -330.481647 
L 376.801811 -328.97443 
L 377.841307 -327.424511 
L 378.880803 -325.785664 
L 379.920298 -324.066699 
L 380.959794 -322.236422 
L 381.99929 -320.37959 
L 383.038786 -318.421619 
L 384.078282 -316.384972 
L 385.117777 -314.277273 
L 386.157273 -312.090277 
L 387.196769 -309.808543 
L 388.236265 -307.487605 
L 389.275761 -305.077283 
L 390.315256 -302.600854 
L 391.354752 -300.048648 
L 392.394248 -297.454463 
L 393.433744 -294.77967 
L 394.47324 -292.05008 
L 395.512736 -289.283515 
L 396.552231 -286.460367 
L 397.591727 -283.606336 
L 398.631223 -280.723606 
L 399.670719 -277.813769 
L 400.710215 -274.855102 
L 401.74971 -271.893747 
L 402.789206 -268.942134 
L 403.828702 -265.966298 
L 404.868198 -262.996538 
L 405.907694 -260.001264 
L 406.947189 -257.040661 
L 407.986685 -254.078524 
L 409.026181 -251.117878 
L 410.065677 -248.196756 
L 411.105173 -245.287652 
L 412.144668 -242.403978 
L 413.184164 -239.516331 
L 414.22366 -236.681422 
L 415.263156 -233.858262 
L 416.302652 -231.071926 
L 417.342148 -228.320494 
L 418.381643 -225.634294 
L 419.421139 -222.97554 
L 420.460635 -220.366927 
L 421.500131 -217.818466 
L 422.539627 -215.314651 
L 423.579122 -212.864605 
L 424.618618 -210.482395 
L 425.658114 -208.157053 
L 426.69761 -205.879176 
L 427.737106 -203.662305 
L 428.776601 -201.520878 
L 429.816097 -199.435288 
L 430.855593 -197.410151 
L 431.895089 -195.43132 
L 432.934585 -193.514618 
L 433.974081 -191.684538 
L 435.013576 -189.910588 
L 436.053072 -188.1792 
L 437.092568 -186.515929 
L 438.132064 -184.918925 
L 439.17156 -183.342724 
L 440.211055 -181.804371 
L 441.250551 -180.327171 
L 442.290047 -178.890087 
L 443.329543 -177.495969 
L 444.369039 -176.139106 
L 445.408534 -174.79417 
L 446.44803 -173.457872 
L 447.487526 -172.15823 
L 448.527022 -170.856234 
L 449.566518 -169.584548 
L 450.606013 -168.339297 
L 451.645509 -167.115358 
L 452.685005 -165.908187 
L 453.724501 -164.698707 
L 454.763997 -163.506288 
L 455.803493 -162.314628 
L 456.842988 -161.140685 
L 457.882484 -159.972182 
L 458.92198 -158.801822 
L 459.961476 -157.642528 
L 461.000972 -156.504823 
L 462.040467 -155.36091 
L 463.079963 -154.250199 
L 464.119459 -153.143457 
L 465.158955 -152.047958 
L 466.198451 -150.958099 
L 467.237946 -149.866188 
L 468.277442 -148.786124 
L 469.316938 -147.704178 
L 470.356434 -146.637301 
L 471.39593 -145.564751 
L 472.435426 -144.498858 
L 473.474921 -143.45217 
L 474.514417 -142.424913 
L 475.553913 -141.403153 
L 476.593409 -140.367247 
L 477.632905 -139.35296 
L 478.6724 -138.339422 
L 479.711896 -137.335909 
L 480.751392 -136.341507 
L 481.790888 -135.359363 
L 482.830384 -134.373396 
L 483.869879 -133.414699 
L 484.909375 -132.467309 
L 485.948871 -131.532622 
L 486.988367 -130.617137 
L 488.027863 -129.716465 
L 489.067358 -128.8325 
L 490.106854 -127.971569 
L 491.14635 -127.136845 
L 492.185846 -126.324468 
L 493.225342 -125.527277 
L 494.264838 -124.749912 
L 495.304333 -124.012909 
L 496.343829 -123.28762 
L 497.383325 -122.589825 
L 498.422821 -121.924963 
L 499.462317 -121.286983 
L 500.501812 -120.678727 
L 501.541308 -120.099797 
L 502.580804 -119.550368 
L 503.6203 -119.024759 
L 504.659796 -118.52022 
L 505.699291 -118.056857 
L 506.738787 -117.616523 
L 507.778283 -117.190437 
L 508.817779 -116.805418 
L 509.857275 -116.439113 
L 510.896771 -116.093924 
L 511.936266 -115.763643 
L 512.975762 -115.453277 
L 514.015258 -115.165099 
L 515.054754 -114.886566 
L 516.09425 -114.629942 
L 517.133745 -114.384435 
L 518.173241 -114.150711 
L 519.212737 -113.924836 
L 520.252233 -113.705999 
L 521.291729 -113.502502 
L 522.331224 -113.297244 
L 523.37072 -113.100027 
L 524.410216 -112.908135 
L 525.449712 -112.706195 
L 526.489208 -112.505058 
L 527.528703 -112.308194 
L 528.568199 -112.100783 
L 529.607695 -111.886606 
L 530.647191 -111.675493 
L 531.686687 -111.449393 
L 532.726183 -111.220369 
L 533.765678 -110.985345 
L 534.805174 -110.74723 
L 535.84467 -110.503392 
L 536.884166 -110.26035 
L 537.923662 -110.002963 
L 538.963157 -109.744176 
L 540.002653 -109.484197 
L 541.042149 -109.229113 
L 542.081645 -108.973652 
L 543.121141 -108.718951 
L 544.160636 -108.468697 
L 545.200132 -108.218837 
L 546.239628 -107.974152 
L 547.279124 -107.729726 
L 548.31862 -107.491956 
L 549.358116 -107.26654 
L 550.397611 -107.050278 
L 551.437107 -106.837971 
L 552.476603 -106.635782 
L 553.516099 -106.438239 
L 554.555595 -106.251867 
L 555.59509 -106.071592 
L 556.634586 -105.89735 
L 557.674082 -105.731501 
L 558.713578 -105.582162 
L 559.753074 -105.437112 
L 560.792569 -105.302621 
L 561.832065 -105.172824 
L 562.871561 -105.049516 
L 563.911057 -104.929901 
L 564.950553 -104.819468 
L 565.990048 -104.714805 
L 567.029544 -104.615717 
L 568.06904 -104.525231 
L 569.108536 -104.430936 
L 570.148032 -104.347234 
L 571.187528 -104.272049 
L 572.227023 -104.202715 
L 573.266519 -104.141792 
L 574.306015 -104.082958 
L 575.345511 -104.026816 
L 576.385007 -103.981652 
L 577.424502 -103.94115 
L 578.463998 -103.900201 
L 579.503494 -103.868278 
L 580.54299 -103.84534 
L 581.582486 -103.825036 
L 582.621981 -103.816326 
L 583.661477 -103.810965 
L 583.661477 -99.921273 
L 583.661477 -99.921273 
L 582.621981 -99.921273 
L 581.582486 -99.921273 
L 580.54299 -99.921273 
L 579.503494 -99.921273 
L 578.463998 -99.921273 
L 577.424502 -99.921273 
L 576.385007 -99.921273 
L 575.345511 -99.921273 
L 574.306015 -99.921273 
L 573.266519 -99.921273 
L 572.227023 -99.921273 
L 571.187528 -99.921273 
L 570.148032 -99.921273 
L 569.108536 -99.921273 
L 568.06904 -99.921273 
L 567.029544 -99.921273 
L 565.990048 -99.921273 
L 564.950553 -99.921273 
L 563.911057 -99.921273 
L 562.871561 -99.921273 
L 561.832065 -99.921273 
L 560.792569 -99.921273 
L 559.753074 -99.921273 
L 558.713578 -99.921273 
L 557.674082 -99.921273 
L 556.634586 -99.921273 
L 555.59509 -99.921273 
L 554.555595 -99.921273 
L 553.516099 -99.921273 
L 552.476603 -99.921273 
L 551.437107 -99.921273 
L 550.397611 -99.921273 
L 549.358116 -99.921273 
L 548.31862 -99.921273 
L 547.279124 -99.921273 
L 546.239628 -99.921273 
L 545.200132 -99.921273 
L 544.160636 -99.921273 
L 543.121141 -99.921273 
L 542.081645 -99.921273 
L 541.042149 -99.921273 
L 540.002653 -99.921273 
L 538.963157 -99.921273 
L 537.923662 -99.921273 
L 536.884166 -99.921273 
L 535.84467 -99.921273 
L 534.805174 -99.921273 
L 533.765678 -99.921273 
L 532.726183 -99.921273 
L 531.686687 -99.921273 
L 530.647191 -99.921273 
L 529.607695 -99.921273 
L 528.568199 -99.921273 
L 527.528703 -99.921273 
L 526.489208 -99.921273 
L 525.449712 -99.921273 
L 524.410216 -99.921273 
L 523.37072 -99.921273 
L 522.331224 -99.921273 
L 521.291729 -99.921273 
L 520.252233 -99.921273 
L 519.212737 -99.921273 
L 518.173241 -99.921273 
L 517.133745 -99.921273 
L 516.09425 -99.921273 
L 515.054754 -99.921273 
L 514.015258 -99.921273 
L 512.975762 -99.921273 
L 511.936266 -99.921273 
L 510.896771 -99.921273 
L 509.857275 -99.921273 
L 508.817779 -99.921273 
L 507.778283 -99.921273 
L 506.738787 -99.921273 
L 505.699291 -99.921273 
L 504.659796 -99.921273 
L 503.6203 -99.921273 
L 502.580804 -99.921273 
L 501.541308 -99.921273 
L 500.501812 -99.921273 
L 499.462317 -99.921273 
L 498.422821 -99.921273 
L 497.383325 -99.921273 
L 496.343829 -99.921273 
L 495.304333 -99.921273 
L 494.264838 -99.921273 
L 493.225342 -99.921273 
L 492.185846 -99.921273 
L 491.14635 -99.921273 
L 490.106854 -99.921273 
L 489.067358 -99.921273 
L 488.027863 -99.921273 
L 486.988367 -99.921273 
L 485.948871 -99.921273 
L 484.909375 -99.921273 
L 483.869879 -99.921273 
L 482.830384 -99.921273 
L 481.790888 -99.921273 
L 480.751392 -99.921273 
L 479.711896 -99.921273 
L 478.6724 -99.921273 
L 477.632905 -99.921273 
L 476.593409 -99.921273 
L 475.553913 -99.921273 
L 474.514417 -99.921273 
L 473.474921 -99.921273 
L 472.435426 -99.921273 
L 471.39593 -99.921273 
L 470.356434 -99.921273 
L 469.316938 -99.921273 
L 468.277442 -99.921273 
L 467.237946 -99.921273 
L 466.198451 -99.921273 
L 465.158955 -99.921273 
L 464.119459 -99.921273 
L 463.079963 -99.921273 
L 462.040467 -99.921273 
L 461.000972 -99.921273 
L 459.961476 -99.921273 
L 458.92198 -99.921273 
L 457.882484 -99.921273 
L 456.842988 -99.921273 
L 455.803493 -99.921273 
L 454.763997 -99.921273 
L 453.724501 -99.921273 
L 452.685005 -99.921273 
L 451.645509 -99.921273 
L 450.606013 -99.921273 
L 449.566518 -99.921273 
L 448.527022 -99.921273 
L 447.487526 -99.921273 
L 446.44803 -99.921273 
L 445.408534 -99.921273 
L 444.369039 -99.921273 
L 443.329543 -99.921273 
L 442.290047 -99.921273 
L 441.250551 -99.921273 
L 440.211055 -99.921273 
L 439.17156 -99.921273 
L 438.132064 -99.921273 
L 437.092568 -99.921273 
L 436.053072 -99.921273 
L 435.013576 -99.921273 
L 433.974081 -99.921273 
L 432.934585 -99.921273 
L 431.895089 -99.921273 
L 430.855593 -99.921273 
L 429.816097 -99.921273 
L 428.776601 -99.921273 
L 427.737106 -99.921273 
L 426.69761 -99.921273 
L 425.658114 -99.921273 
L 424.618618 -99.921273 
L 423.579122 -99.921273 
L 422.539627 -99.921273 
L 421.500131 -99.921273 
L 420.460635 -99.921273 
L 419.421139 -99.921273 
L 418.381643 -99.921273 
L 417.342148 -99.921273 
L 416.302652 -99.921273 
L 415.263156 -99.921273 
L 414.22366 -99.921273 
L 413.184164 -99.921273 
L 412.144668 -99.921273 
L 411.105173 -99.921273 
L 410.065677 -99.921273 
L 409.026181 -99.921273 
L 407.986685 -99.921273 
L 406.947189 -99.921273 
L 405.907694 -99.921273 
L 404.868198 -99.921273 
L 403.828702 -99.921273 
L 402.789206 -99.921273 
L 401.74971 -99.921273 
L 400.710215 -99.921273 
L 399.670719 -99.921273 
L 398.631223 -99.921273 
L 397.591727 -99.921273 
L 396.552231 -99.921273 
L 395.512736 -99.921273 
L 394.47324 -99.921273 
L 393.433744 -99.921273 
L 392.394248 -99.921273 
L 391.354752 -99.921273 
L 390.315256 -99.921273 
L 389.275761 -99.921273 
L 388.236265 -99.921273 
L 387.196769 -99.921273 
L 386.157273 -99.921273 
L 385.117777 -99.921273 
L 384.078282 -99.921273 
L 383.038786 -99.921273 
L 381.99929 -99.921273 
L 380.959794 -99.921273 
L 379.920298 -99.921273 
L 378.880803 -99.921273 
L 377.841307 -99.921273 
L 376.801811 -99.921273 
L 375.762315 -99.921273 
L 374.722819 -99.921273 
L 373.683323 -99.921273 
L 372.643828 -99.921273 
L 371.604332 -99.921273 
L 370.564836 -99.921273 
L 369.52534 -99.921273 
L 368.485844 -99.921273 
L 367.446349 -99.921273 
L 366.406853 -99.921273 
L 365.367357 -99.921273 
L 364.327861 -99.921273 
L 363.288365 -99.921273 
L 362.24887 -99.921273 
L 361.209374 -99.921273 
L 360.169878 -99.921273 
L 359.130382 -99.921273 
L 358.090886 -99.921273 
L 357.051391 -99.921273 
L 356.011895 -99.921273 
L 354.972399 -99.921273 
L 353.932903 -99.921273 
L 352.893407 -99.921273 
L 351.853911 -99.921273 
L 350.814416 -99.921273 
L 349.77492 -99.921273 
L 348.735424 -99.921273 
L 347.695928 -99.921273 
L 346.656432 -99.921273 
L 345.616937 -99.921273 
L 344.577441 -99.921273 
L 343.537945 -99.921273 
L 342.498449 -99.921273 
L 341.458953 -99.921273 
L 340.419458 -99.921273 
L 339.379962 -99.921273 
L 338.340466 -99.921273 
L 337.30097 -99.921273 
L 336.261474 -99.921273 
L 335.221978 -99.921273 
L 334.182483 -99.921273 
L 333.142987 -99.921273 
L 332.103491 -99.921273 
L 331.063995 -99.921273 
L 330.024499 -99.921273 
L 328.985004 -99.921273 
L 327.945508 -99.921273 
L 326.906012 -99.921273 
L 325.866516 -99.921273 
L 324.82702 -99.921273 
L 323.787525 -99.921273 
L 322.748029 -99.921273 
L 321.708533 -99.921273 
L 320.669037 -99.921273 
L 319.629541 -99.921273 
L 318.590046 -99.921273 
L 317.55055 -99.921273 
L 316.511054 -99.921273 
L 315.471558 -99.921273 
L 314.432062 -99.921273 
L 313.392566 -99.921273 
L 312.353071 -99.921273 
L 311.313575 -99.921273 
L 310.274079 -99.921273 
L 309.234583 -99.921273 
L 308.195087 -99.921273 
L 307.155592 -99.921273 
L 306.116096 -99.921273 
L 305.0766 -99.921273 
L 304.037104 -99.921273 
L 302.997608 -99.921273 
L 301.958113 -99.921273 
L 300.918617 -99.921273 
L 299.879121 -99.921273 
L 298.839625 -99.921273 
L 297.800129 -99.921273 
L 296.760633 -99.921273 
L 295.721138 -99.921273 
L 294.681642 -99.921273 
L 293.642146 -99.921273 
L 292.60265 -99.921273 
L 291.563154 -99.921273 
L 290.523659 -99.921273 
L 289.484163 -99.921273 
L 288.444667 -99.921273 
L 287.405171 -99.921273 
L 286.365675 -99.921273 
L 285.32618 -99.921273 
L 284.286684 -99.921273 
L 283.247188 -99.921273 
L 282.207692 -99.921273 
L 281.168196 -99.921273 
L 280.128701 -99.921273 
L 279.089205 -99.921273 
L 278.049709 -99.921273 
L 277.010213 -99.921273 
L 275.970717 -99.921273 
L 274.931221 -99.921273 
L 273.891726 -99.921273 
L 272.85223 -99.921273 
L 271.812734 -99.921273 
L 270.773238 -99.921273 
L 269.733742 -99.921273 
L 268.694247 -99.921273 
L 267.654751 -99.921273 
L 266.615255 -99.921273 
L 265.575759 -99.921273 
L 264.536263 -99.921273 
L 263.496768 -99.921273 
L 262.457272 -99.921273 
L 261.417776 -99.921273 
L 260.37828 -99.921273 
L 259.338784 -99.921273 
L 258.299289 -99.921273 
L 257.259793 -99.921273 
L 256.220297 -99.921273 
L 255.180801 -99.921273 
L 254.141305 -99.921273 
L 253.101809 -99.921273 
L 252.062314 -99.921273 
L 251.022818 -99.921273 
L 249.983322 -99.921273 
L 248.943826 -99.921273 
L 247.90433 -99.921273 
L 246.864835 -99.921273 
L 245.825339 -99.921273 
L 244.785843 -99.921273 
L 243.746347 -99.921273 
L 242.706851 -99.921273 
L 241.667356 -99.921273 
L 240.62786 -99.921273 
L 239.588364 -99.921273 
L 238.548868 -99.921273 
L 237.509372 -99.921273 
L 236.469876 -99.921273 
L 235.430381 -99.921273 
L 234.390885 -99.921273 
L 233.351389 -99.921273 
L 232.311893 -99.921273 
L 231.272397 -99.921273 
L 230.232902 -99.921273 
L 229.193406 -99.921273 
L 228.15391 -99.921273 
L 227.114414 -99.921273 
L 226.074918 -99.921273 
L 225.035423 -99.921273 
L 223.995927 -99.921273 
L 222.956431 -99.921273 
L 221.916935 -99.921273 
L 220.877439 -99.921273 
L 219.837944 -99.921273 
L 218.798448 -99.921273 
L 217.758952 -99.921273 
L 216.719456 -99.921273 
L 215.67996 -99.921273 
L 214.640464 -99.921273 
L 213.600969 -99.921273 
L 212.561473 -99.921273 
L 211.521977 -99.921273 
L 210.482481 -99.921273 
L 209.442985 -99.921273 
L 208.40349 -99.921273 
L 207.363994 -99.921273 
L 206.324498 -99.921273 
L 205.285002 -99.921273 
L 204.245506 -99.921273 
L 203.206011 -99.921273 
L 202.166515 -99.921273 
L 201.127019 -99.921273 
L 200.087523 -99.921273 
L 199.048027 -99.921273 
L 198.008531 -99.921273 
L 196.969036 -99.921273 
L 195.92954 -99.921273 
L 194.890044 -99.921273 
L 193.850548 -99.921273 
L 192.811052 -99.921273 
L 191.771557 -99.921273 
L 190.732061 -99.921273 
L 189.692565 -99.921273 
L 188.653069 -99.921273 
L 187.613573 -99.921273 
L 186.574078 -99.921273 
L 185.534582 -99.921273 
L 184.495086 -99.921273 
L 183.45559 -99.921273 
L 182.416094 -99.921273 
L 181.376599 -99.921273 
L 180.337103 -99.921273 
L 179.297607 -99.921273 
L 178.258111 -99.921273 
L 177.218615 -99.921273 
L 176.179119 -99.921273 
L 175.139624 -99.921273 
L 174.100128 -99.921273 
L 173.060632 -99.921273 
L 172.021136 -99.921273 
L 170.98164 -99.921273 
L 169.942145 -99.921273 
L 168.902649 -99.921273 
L 167.863153 -99.921273 
L 166.823657 -99.921273 
L 165.784161 -99.921273 
L 164.744666 -99.921273 
L 163.70517 -99.921273 
L 162.665674 -99.921273 
L 161.626178 -99.921273 
L 160.586682 -99.921273 
L 159.547186 -99.921273 
L 158.507691 -99.921273 
L 157.468195 -99.921273 
L 156.428699 -99.921273 
L 155.389203 -99.921273 
L 154.349707 -99.921273 
L 153.310212 -99.921273 
L 152.270716 -99.921273 
L 151.23122 -99.921273 
L 150.191724 -99.921273 
L 149.152228 -99.921273 
L 148.112733 -99.921273 
L 147.073237 -99.921273 
L 146.033741 -99.921273 
L 144.994245 -99.921273 
L 143.954749 -99.921273 
L 142.915254 -99.921273 
L 141.875758 -99.921273 
L 140.836262 -99.921273 
L 139.796766 -99.921273 
L 138.75727 -99.921273 
L 137.717774 -99.921273 
L 136.678279 -99.921273 
L 135.638783 -99.921273 
L 134.599287 -99.921273 
L 133.559791 -99.921273 
L 132.520295 -99.921273 
L 131.4808 -99.921273 
L 130.441304 -99.921273 
L 129.401808 -99.921273 
L 128.362312 -99.921273 
L 127.322816 -99.921273 
L 126.283321 -99.921273 
L 125.243825 -99.921273 
L 124.204329 -99.921273 
L 123.164833 -99.921273 
L 122.125337 -99.921273 
L 121.085841 -99.921273 
L 120.046346 -99.921273 
L 119.00685 -99.921273 
L 117.967354 -99.921273 
L 116.927858 -99.921273 
L 115.888362 -99.921273 
L 114.848867 -99.921273 
L 113.809371 -99.921273 
L 112.769875 -99.921273 
L 111.730379 -99.921273 
L 110.690883 -99.921273 
L 109.651388 -99.921273 
L 108.611892 -99.921273 
L 107.572396 -99.921273 
L 106.5329 -99.921273 
L 105.493404 -99.921273 
L 104.453909 -99.921273 
L 103.414413 -99.921273 
L 102.374917 -99.921273 
L 101.335421 -99.921273 
L 100.295925 -99.921273 
L 99.256429 -99.921273 
L 98.216934 -99.921273 
L 97.177438 -99.921273 
L 96.137942 -99.921273 
L 95.098446 -99.921273 
L 94.05895 -99.921273 
L 93.019455 -99.921273 
L 91.979959 -99.921273 
L 90.940463 -99.921273 
L 89.900967 -99.921273 
L 88.861471 -99.921273 
L 87.821976 -99.921273 
L 86.78248 -99.921273 
L 85.742984 -99.921273 
L 84.703488 -99.921273 
L 83.663992 -99.921273 
L 82.624496 -99.921273 
L 81.585001 -99.921273 
L 80.545505 -99.921273 
L 79.506009 -99.921273 
L 78.466513 -99.921273 
L 77.427017 -99.921273 
L 76.387522 -99.921273 
L 75.348026 -99.921273 
L 74.30853 -99.921273 
L 73.269034 -99.921273 
L 72.229538 -99.921273 
L 71.190043 -99.921273 
L 70.150547 -99.921273 
L 69.111051 -99.921273 
L 68.071555 -99.921273 
L 67.032059 -99.921273 
L 65.992564 -99.921273 
L 64.953068 -99.921273 
L 63.913572 -99.921273 
L 62.874076 -99.921273 
L 61.83458 -99.921273 
L 60.795084 -99.921273 
L 59.755589 -99.921273 
L 58.716093 -99.921273 
L 57.676597 -99.921273 
L 56.637101 -99.921273 
L 55.597605 -99.921273 
L 54.55811 -99.921273 
L 53.518614 -99.921273 
L 52.479118 -99.921273 
z
" style="stroke: #98df8a; stroke-opacity: 0.6; stroke-width: 0.3"/>
    </defs>
    <g clip-path="url(#p36b469dea9)">
     <use xlink:href="#m6df1701311" x="0" y="504" style="fill: #98df8a; fill-opacity: 0.6; stroke: #98df8a; stroke-opacity: 0.6; stroke-width: 0.3"/>
    </g>
   </g>
   <g id="line2d_5">
    <path d="M 52.479118 402.890157 
L 59.755589 402.777852 
L 65.992564 402.48096 
L 71.190043 402.049294 
L 77.427017 401.282381 
L 82.624496 400.42403 
L 88.861471 399.147556 
L 96.137942 397.35367 
L 102.374917 395.620352 
L 112.769875 392.463594 
L 119.00685 390.331412 
L 123.164833 388.716454 
L 127.322816 386.902402 
L 131.4808 384.8328 
L 136.678279 381.953305 
L 141.875758 378.699036 
L 146.033741 375.797972 
L 150.191724 372.686728 
L 153.310212 370.077186 
L 156.428699 367.224487 
L 159.547186 364.065785 
L 162.665674 360.598562 
L 165.784161 356.782796 
L 168.902649 352.6546 
L 173.060632 346.700211 
L 178.258111 338.874549 
L 189.692565 321.523113 
L 196.969036 311.040905 
L 202.166515 303.509871 
L 206.324498 297.017521 
L 209.442985 291.776579 
L 212.561473 286.096331 
L 215.67996 279.927421 
L 218.798448 273.355162 
L 222.956431 264.018849 
L 238.548868 228.094269 
L 243.746347 217.111196 
L 247.90433 208.93496 
L 252.062314 201.234372 
L 256.220297 194.074523 
L 259.338784 189.047231 
L 263.496768 182.826307 
L 267.654751 177.173424 
L 271.812734 171.878311 
L 280.128701 161.955265 
L 287.405171 153.425023 
L 293.642146 146.317167 
L 296.760633 143.016946 
L 301.958113 138.184421 
L 304.037104 136.495273 
L 307.155592 134.268289 
L 309.234583 133.025867 
L 312.353071 131.484156 
L 314.432062 130.706313 
L 316.511054 130.152257 
L 318.590046 129.783915 
L 320.669037 129.653273 
L 322.748029 129.712775 
L 324.82702 130.02851 
L 326.906012 130.586671 
L 328.985004 131.421274 
L 332.103491 133.067902 
L 335.221978 135.104495 
L 339.379962 138.387904 
L 345.616937 143.852505 
L 352.893407 150.419013 
L 362.24887 158.579243 
L 367.446349 163.515479 
L 370.564836 166.921773 
L 373.683323 170.719975 
L 375.762315 173.518353 
L 378.880803 178.214336 
L 380.959794 181.763578 
L 383.038786 185.578381 
L 386.157273 191.909723 
L 389.275761 198.922717 
L 392.394248 206.545537 
L 396.552231 217.539633 
L 401.74971 232.106253 
L 414.22366 267.318578 
L 418.381643 278.365706 
L 421.500131 286.181534 
L 424.618618 293.517605 
L 427.737106 300.337695 
L 430.855593 306.589849 
L 433.974081 312.315462 
L 437.092568 317.484071 
L 441.250551 323.672829 
L 444.369039 327.860894 
L 449.566518 334.415452 
L 454.763997 340.493712 
L 461.000972 347.495177 
L 465.158955 351.952042 
L 473.474921 360.54783 
L 481.790888 368.640637 
L 485.948871 372.467378 
L 490.106854 376.028431 
L 494.264838 379.250088 
L 498.422821 382.075037 
L 501.541308 383.900203 
L 504.659796 385.47978 
L 507.778283 386.809563 
L 511.936266 388.236357 
L 516.09425 389.370058 
L 521.291729 390.497498 
L 534.805174 393.25277 
L 553.516099 397.561761 
L 558.713578 398.417838 
L 564.950553 399.180532 
L 571.187528 399.727951 
L 577.424502 400.05885 
L 582.621981 400.183674 
L 583.661477 400.189035 
L 583.661477 400.189035 
" clip-path="url(#p36b469dea9)" style="fill: none; stroke: #98df8a; stroke-width: 2; stroke-linecap: round"/>
   </g>
   <g id="line2d_6">
    <path d="M 188.232572 398.315793 
L 449.618683 398.315793 
" clip-path="url(#p36b469dea9)" style="fill: none; stroke: #000000; stroke-width: 3.5"/>
   </g>
   <g id="patch_3">
    <path d="M 25.92 417.8 
L 610.220595 417.8 
" style="fill: none; stroke: #333333; stroke-width: 1.5; stroke-linejoin: miter; stroke-linecap: square"/>
   </g>
   <g id="text_3">
    <text style="font-size: 52px; font-family: 'DejaVu Serif', 'Times New Roman', serif; text-anchor: end; fill: #262626" x="188.232572" y="383.908456" transform="rotate(-0 188.232572 383.908456)">-0.3 </text>
   </g>
   <g id="text_4">
    <text style="font-size: 52px; font-family: 'DejaVu Serif', 'Times New Roman', serif; text-anchor: start; fill: #262626" x="449.618683" y="383.908456" transform="rotate(-0 449.618683 383.908456)"> -0.21</text>
   </g>
   <g id="text_5">
    <text style="font-size: 52px; font-family: 'DejaVu Serif', 'Times New Roman', serif; text-anchor: middle; fill: #262626" x="318.925627" y="317.634709" transform="rotate(-0 318.925627 317.634709)">90%</text>
   </g>
   <g id="text_6">
    <!-- $\mu$=-0.25 -->
    <g style="fill: #262626" transform="translate(214.18928 173.561345)">
     <text>
      <tspan x="0" y="-0.40625" style="font-style: oblique; font-size: 52px; font-family: 'DejaVu Sans'; fill: #262626">μ</tspan>
      <tspan x="33.083984" y="-0.40625" style="font-size: 52px; font-family: 'DejaVu Serif'; fill: #262626">=</tspan>
      <tspan x="76.654297" y="-0.40625" style="font-size: 52px; font-family: 'DejaVu Serif'; fill: #262626">-</tspan>
      <tspan x="94.224609" y="-0.40625" style="font-size: 52px; font-family: 'DejaVu Serif'; fill: #262626">0</tspan>
      <tspan x="127.308594" y="-0.40625" style="font-size: 52px; font-family: 'DejaVu Serif'; fill: #262626">.</tspan>
      <tspan x="142.462891" y="-0.40625" style="font-size: 52px; font-family: 'DejaVu Serif'; fill: #262626">2</tspan>
      <tspan x="175.546875" y="-0.40625" style="font-size: 52px; font-family: 'DejaVu Serif'; fill: #262626">5</tspan>
     </text>
    </g>
   </g>
   <g id="text_7">
    <!-- $x_2^2x_3$ -->
    <g style="fill: #262626" transform="translate(235.230298 94.652)">
     <text>
      <tspan x="0" y="-0.421875" style="font-style: oblique; font-size: 76px; font-family: 'DejaVu Sans'; fill: #262626">x</tspan>
      <tspan x="84.296419" y="-0.421875" style="font-style: oblique; font-size: 76px; font-family: 'DejaVu Sans'; fill: #262626">x</tspan>
      <tspan x="44.976562" y="20.359375" style="font-size: 53.2px; font-family: 'DejaVu Sans'; fill: #262626">2</tspan>
      <tspan x="48.370833" y="-29.515625" style="font-size: 53.2px; font-family: 'DejaVu Sans'; fill: #262626">2</tspan>
      <tspan x="129.272982" y="12.046875" style="font-size: 53.2px; font-family: 'DejaVu Sans'; fill: #262626">3</tspan>
     </text>
    </g>
   </g>
  </g>
 </g>
 <defs>
  <clipPath id="p36b469dea9">
   <rect x="25.92" y="115.932" width="584.300595" height="301.868"/>
  </clipPath>
 </defs>
</svg>
