<?xml version="1.0" encoding="utf-8" standalone="no"?>
<!DOCTYPE svg PUBLIC "-//W3C//DTD SVG 1.1//EN"
  "http://www.w3.org/Graphics/SVG/1.1/DTD/svg11.dtd">
<svg xmlns:xlink="http://www.w3.org/1999/xlink" width="648pt" height="504pt" viewBox="0 0 648 504" xmlns="http://www.w3.org/2000/svg" version="1.1">
 <metadata>
  <rdf:RDF xmlns:dc="http://purl.org/dc/elements/1.1/" xmlns:cc="http://creativecommons.org/ns#" xmlns:rdf="http://www.w3.org/1999/02/22-rdf-syntax-ns#">
   <cc:Work>
    <dc:type rdf:resource="http://purl.org/dc/dcmitype/StillImage"/>
    <dc:date>2026-02-22T16:15:38.181261</dc:date>
    <dc:format>image/svg+xml</dc:format>
    <dc:creator>
     <cc:Agent>
      <dc:title>Matplotlib v3.10.6, https://matplotlib.org/</dc:title>
     </cc:Agent>
    </dc:creator>
   </cc:Work>
  </rdf:RDF>
 </metadata>
 <defs>
  <style type="text/css">*{stroke-linejoin: round; stroke-linecap: butt}</style>
 </defs>
 <g id="figure_1">
  <g id="patch_1">
   <path d="M 0 504 
L 648 504 
L 648 0 
L 0 0 
L 0 504 
z
" style="fill: none; opacity: 0"/>
  </g>
  <g id="axes_1">
   <g id="patch_2">
    <path d="M 79.536573 417.8 
L 618.938078 417.8 
L 618.938078 115.932 
L 79.536573 115.932 
L 79.536573 417.8 
z
" style="fill: none"/>
   </g>
   <g id="matplotlib.axis_1">
    <g id="xtick_1">
     <g id="line2d_1">
      <path d="M 125.309363 417.8 
L 125.309363 115.932 
" clip-path="url(#p696f19d488)" style="fill: none; stroke: #ffffff; stroke-opacity: 0.4; stroke-linecap: round"/>
     </g>
     <g id="line2d_2">
      <defs>
       <path id="md4952b68ef" d="M 0 0 
L 0 3 
" style="stroke: #808080"/>
      </defs>
      <g>
       <use xlink:href="#md4952b68ef" x="125.309363" y="417.8" style="fill: #808080; stroke: #808080"/>
      </g>
     </g>
     <g id="text_1">
      <text style="font-size: 52px; font-family: 'DejaVu Serif', 'Times New Roman', serif; text-anchor: middle; fill: #262626" x="125.309363" y="467.311875" transform="rotate(-0 125.309363 467.311875)">−1.025</text>
     </g>
    </g>
    <g id="xtick_2">
     <g id="line2d_3">
      <path d="M 322.130493 417.8 
L 322.130493 115.932 
" clip-path="url(#p696f19d488)" style="fill: none; stroke: #ffffff; stroke-opacity: 0.4; stroke-linecap: round"/>
     </g>
     <g id="line2d_4">
      <g>
       <use xlink:href="#md4952b68ef" x="322.130493" y="417.8" style="fill: #808080; stroke: #808080"/>
      </g>
     </g>
     <g id="text_2">
      <text style="font-size: 52px; font-family: 'DejaVu Serif', 'Times New Roman', serif; text-anchor: middle; fill: #262626" x="322.130493" y="467.311875" transform="rotate(-0 322.130493 467.311875)">−1.000</text>
     </g>
    </g>
    <g id="xtick_3">
     <g id="line2d_5">
      <path d="M 518.951623 417.8 
L 518.951623 115.932 
" clip-path="url(#p696f19d488)" style="fill: none; stroke: #ffffff; stroke-opacity: 0.4; stroke-linecap: round"/>
     </g>
     <g id="line2d_6">
      <g>
       <use xlink:href="#md4952b68ef" x="518.951623" y="417.8" style="fill: #808080; stroke: #808080"/>
      </g>
     </g>
     <g id="text_3">
      <text style="font-size: 52px; font-family: 'DejaVu Serif', 'Times New Roman', serif; text-anchor: middle; fill: #262626" x="518.951623" y="467.311875" transform="rotate(-0 518.951623 467.311875)">−0.975</text>
     </g>
    </g>
   </g>
   <g id="matplotlib.axis_2"/>
   <g id="FillBetweenPolyCollection_1">
    <defs>
     <path id="mdb8361aaa7" d="M 104.054823 -99.921273 
L 104.054823 -101.519031 
L 105.014442 -101.517566 
L 105.97406 -101.505667 
L 106.933679 -101.489521 
L 107.893297 -101.472137 
L 108.852915 -101.457521 
L 109.812534 -101.438172 
L 110.772152 -101.414461 
L 111.731771 -101.390033 
L 112.691389 -101.369292 
L 113.651008 -101.350863 
L 114.610626 -101.336026 
L 115.570244 -101.322732 
L 116.529863 -101.31472 
L 117.489481 -101.310403 
L 118.4491 -101.316569 
L 119.408718 -101.334088 
L 120.368336 -101.357897 
L 121.327955 -101.394592 
L 122.287573 -101.438836 
L 123.247192 -101.496937 
L 124.20681 -101.566594 
L 125.166428 -101.647991 
L 126.126047 -101.737828 
L 127.085665 -101.838468 
L 128.045284 -101.949476 
L 129.004902 -102.070254 
L 129.96452 -102.203386 
L 130.924139 -102.348841 
L 131.883757 -102.496625 
L 132.843376 -102.650921 
L 133.802994 -102.810548 
L 134.762612 -102.997627 
L 135.722231 -103.176874 
L 136.681849 -103.357269 
L 137.641468 -103.537167 
L 138.601086 -103.718157 
L 139.560704 -103.896617 
L 140.520323 -104.077459 
L 141.479941 -104.263212 
L 142.43956 -104.438922 
L 143.399178 -104.615844 
L 144.358796 -104.800284 
L 145.318415 -104.977225 
L 146.278033 -105.146098 
L 147.237652 -105.32551 
L 148.19727 -105.498298 
L 149.156888 -105.67032 
L 150.116507 -105.842271 
L 151.076125 -106.018269 
L 152.035744 -106.203358 
L 152.995362 -106.390312 
L 153.95498 -106.579718 
L 154.914599 -106.77203 
L 155.874217 -106.977538 
L 156.833836 -107.188873 
L 157.793454 -107.403004 
L 158.753072 -107.629131 
L 159.712691 -107.861872 
L 160.672309 -108.110803 
L 161.631928 -108.381074 
L 162.591546 -108.652164 
L 163.551164 -108.934599 
L 164.510783 -109.231553 
L 165.470401 -109.536885 
L 166.43002 -109.866124 
L 167.389638 -110.208797 
L 168.349256 -110.558969 
L 169.308875 -110.924984 
L 170.268493 -111.300072 
L 171.228112 -111.689974 
L 172.18773 -112.085328 
L 173.147349 -112.497751 
L 174.106967 -112.932023 
L 175.066585 -113.367484 
L 176.026204 -113.824787 
L 176.985822 -114.300064 
L 177.945441 -114.788355 
L 178.905059 -115.284027 
L 179.864677 -115.799782 
L 180.824296 -116.326659 
L 181.783914 -116.874123 
L 182.743533 -117.437988 
L 183.703151 -118.031192 
L 184.662769 -118.633256 
L 185.622388 -119.272249 
L 186.582006 -119.924623 
L 187.541625 -120.612541 
L 188.501243 -121.317974 
L 189.460861 -122.062158 
L 190.42048 -122.829675 
L 191.380098 -123.627055 
L 192.339717 -124.454595 
L 193.299335 -125.3216 
L 194.258953 -126.222926 
L 195.218572 -127.155881 
L 196.17819 -128.113393 
L 197.137809 -129.093693 
L 198.097427 -130.100292 
L 199.057045 -131.144389 
L 200.016664 -132.216909 
L 200.976282 -133.296545 
L 201.935901 -134.414242 
L 202.895519 -135.531993 
L 203.855137 -136.665063 
L 204.814756 -137.820396 
L 205.774374 -138.978353 
L 206.733993 -140.158308 
L 207.693611 -141.326211 
L 208.653229 -142.483793 
L 209.612848 -143.685262 
L 210.572466 -144.86589 
L 211.532085 -146.056344 
L 212.491703 -147.217544 
L 213.451321 -148.406095 
L 214.41094 -149.611382 
L 215.370558 -150.817265 
L 216.330177 -152.037622 
L 217.289795 -153.253823 
L 218.249413 -154.485192 
L 219.209032 -155.730266 
L 220.16865 -156.991321 
L 221.128269 -158.276351 
L 222.087887 -159.594177 
L 223.047505 -160.94224 
L 224.007124 -162.327475 
L 224.966742 -163.734904 
L 225.926361 -165.170184 
L 226.885979 -166.643999 
L 227.845597 -168.160824 
L 228.805216 -169.699563 
L 229.764834 -171.260959 
L 230.724453 -172.860552 
L 231.684071 -174.492365 
L 232.643689 -176.149343 
L 233.603308 -177.818682 
L 234.562926 -179.507969 
L 235.522545 -181.211275 
L 236.482163 -182.907294 
L 237.441782 -184.611185 
L 238.4014 -186.307434 
L 239.361018 -188.003906 
L 240.320637 -189.687041 
L 241.280255 -191.352828 
L 242.239874 -192.975431 
L 243.199492 -194.569768 
L 244.15911 -196.118545 
L 245.118729 -197.655229 
L 246.078347 -199.172828 
L 247.037966 -200.653998 
L 247.997584 -202.088116 
L 248.957202 -203.483614 
L 249.916821 -204.871186 
L 250.876439 -206.230684 
L 251.836058 -207.549987 
L 252.795676 -208.885148 
L 253.755294 -210.226438 
L 254.714913 -211.550584 
L 255.674531 -212.906615 
L 256.63415 -214.269161 
L 257.593768 -215.672605 
L 258.553386 -217.130667 
L 259.513005 -218.662162 
L 260.472623 -220.262519 
L 261.432242 -221.935749 
L 262.39186 -223.697977 
L 263.351478 -225.565403 
L 264.311097 -227.499635 
L 265.270715 -229.529898 
L 266.230334 -231.679148 
L 267.189952 -233.938974 
L 268.14957 -236.308672 
L 269.109189 -238.802335 
L 270.068807 -241.397361 
L 271.028426 -244.055741 
L 271.988044 -246.816546 
L 272.947662 -249.671122 
L 273.907281 -252.610546 
L 274.866899 -255.611253 
L 275.826518 -258.676592 
L 276.786136 -261.750849 
L 277.745754 -264.853123 
L 278.705373 -268.007034 
L 279.664991 -271.133891 
L 280.62461 -274.279504 
L 281.584228 -277.401198 
L 282.543846 -280.470048 
L 283.503465 -283.514537 
L 284.463083 -286.518046 
L 285.422702 -289.433667 
L 286.38232 -292.320111 
L 287.341938 -295.091221 
L 288.301557 -297.799315 
L 289.261175 -300.422926 
L 290.220794 -302.984386 
L 291.180412 -305.447234 
L 292.14003 -307.822091 
L 293.099649 -310.121831 
L 294.059267 -312.339703 
L 295.018886 -314.463211 
L 295.978504 -316.510066 
L 296.938123 -318.484185 
L 297.897741 -320.393552 
L 298.857359 -322.218511 
L 299.816978 -324.01851 
L 300.776596 -325.733415 
L 301.736215 -327.420204 
L 302.695833 -329.076941 
L 303.655451 -330.705738 
L 304.61507 -332.313479 
L 305.574688 -333.891783 
L 306.534307 -335.470019 
L 307.493925 -337.066809 
L 308.453543 -338.670641 
L 309.413162 -340.288929 
L 310.37278 -341.903288 
L 311.332399 -343.530791 
L 312.292017 -345.188483 
L 313.251635 -346.845862 
L 314.211254 -348.547417 
L 315.170872 -350.237229 
L 316.130491 -351.949945 
L 317.090109 -353.667072 
L 318.049727 -355.396681 
L 319.009346 -357.126035 
L 319.968964 -358.82012 
L 320.928583 -360.5199 
L 321.888201 -362.183501 
L 322.847819 -363.755149 
L 323.807438 -365.245087 
L 324.767056 -366.682085 
L 325.726675 -368.033304 
L 326.686293 -369.293374 
L 327.645911 -370.408366 
L 328.60553 -371.414333 
L 329.565148 -372.296407 
L 330.524767 -373.010695 
L 331.484385 -373.559224 
L 332.444003 -373.974042 
L 333.403622 -374.218594 
L 334.36324 -374.346727 
L 335.322859 -374.308852 
L 336.282477 -374.147134 
L 337.242095 -373.823824 
L 338.201714 -373.38497 
L 339.161332 -372.84476 
L 340.120951 -372.195218 
L 341.080569 -371.430379 
L 342.040187 -370.63836 
L 342.999806 -369.7758 
L 343.959424 -368.900199 
L 344.919043 -367.952746 
L 345.878661 -367.022154 
L 346.838279 -366.041725 
L 347.797898 -365.098124 
L 348.757516 -364.198831 
L 349.717135 -363.295757 
L 350.676753 -362.430778 
L 351.636371 -361.582298 
L 352.59599 -360.82275 
L 353.555608 -360.062651 
L 354.515227 -359.360929 
L 355.474845 -358.716066 
L 356.434464 -358.059473 
L 357.394082 -357.439687 
L 358.3537 -356.84146 
L 359.313319 -356.269873 
L 360.272937 -355.698206 
L 361.232556 -355.125394 
L 362.192174 -354.522298 
L 363.151792 -353.972629 
L 364.111411 -353.388411 
L 365.071029 -352.782857 
L 366.030648 -352.160029 
L 366.990266 -351.502039 
L 367.949884 -350.805965 
L 368.909503 -350.088736 
L 369.869121 -349.357588 
L 370.82874 -348.572835 
L 371.788358 -347.777972 
L 372.747976 -346.994986 
L 373.707595 -346.15988 
L 374.667213 -345.303546 
L 375.626832 -344.404187 
L 376.58645 -343.499542 
L 377.546068 -342.53157 
L 378.505687 -341.610761 
L 379.465305 -340.614179 
L 380.424924 -339.585252 
L 381.384542 -338.547759 
L 382.34416 -337.454042 
L 383.303779 -336.31542 
L 384.263397 -335.138362 
L 385.223016 -333.908206 
L 386.182634 -332.624831 
L 387.142252 -331.261462 
L 388.101871 -329.852737 
L 389.061489 -328.393894 
L 390.021108 -326.863502 
L 390.980726 -325.268239 
L 391.940344 -323.576727 
L 392.899963 -321.827634 
L 393.859581 -320.002953 
L 394.8192 -318.090769 
L 395.778818 -316.109849 
L 396.738436 -314.069773 
L 397.698055 -311.992701 
L 398.657673 -309.834386 
L 399.617292 -307.622177 
L 400.57691 -305.396811 
L 401.536528 -303.14024 
L 402.496147 -300.8423 
L 403.455765 -298.547244 
L 404.415384 -296.217255 
L 405.375002 -293.871938 
L 406.33462 -291.505079 
L 407.294239 -289.139168 
L 408.253857 -286.79407 
L 409.213476 -284.437449 
L 410.173094 -282.075898 
L 411.132712 -279.72775 
L 412.092331 -277.360281 
L 413.051949 -274.993937 
L 414.011568 -272.601541 
L 414.971186 -270.239912 
L 415.930804 -267.842201 
L 416.890423 -265.425429 
L 417.850041 -263.023647 
L 418.80966 -260.598859 
L 419.769278 -258.141872 
L 420.728897 -255.65878 
L 421.688515 -253.105386 
L 422.648133 -250.573388 
L 423.607752 -247.984064 
L 424.56737 -245.394612 
L 425.526989 -242.743901 
L 426.486607 -240.077365 
L 427.446225 -237.394029 
L 428.405844 -234.661062 
L 429.365462 -231.931982 
L 430.325081 -229.157021 
L 431.284699 -226.410467 
L 432.244317 -223.65571 
L 433.203936 -220.887105 
L 434.163554 -218.148369 
L 435.123173 -215.433552 
L 436.082791 -212.735905 
L 437.042409 -210.060683 
L 438.002028 -207.445273 
L 438.961646 -204.856074 
L 439.921265 -202.314424 
L 440.880883 -199.830707 
L 441.840501 -197.389794 
L 442.80012 -195.024353 
L 443.759738 -192.721289 
L 444.719357 -190.480939 
L 445.678975 -188.300347 
L 446.638593 -186.18244 
L 447.598212 -184.111151 
L 448.55783 -182.127874 
L 449.517449 -180.173468 
L 450.477067 -178.266179 
L 451.436685 -176.428558 
L 452.396304 -174.630084 
L 453.355922 -172.899313 
L 454.315541 -171.197581 
L 455.275159 -169.532841 
L 456.234777 -167.878607 
L 457.194396 -166.289853 
L 458.154014 -164.734327 
L 459.113633 -163.191107 
L 460.073251 -161.684338 
L 461.032869 -160.209588 
L 461.992488 -158.754711 
L 462.952106 -157.313111 
L 463.911725 -155.893698 
L 464.871343 -154.515872 
L 465.830961 -153.161775 
L 466.79058 -151.812832 
L 467.750198 -150.474314 
L 468.709817 -149.174612 
L 469.669435 -147.9005 
L 470.629053 -146.648969 
L 471.588672 -145.406503 
L 472.54829 -144.193284 
L 473.507909 -143.006451 
L 474.467527 -141.824981 
L 475.427145 -140.668859 
L 476.386764 -139.529929 
L 477.346382 -138.417879 
L 478.306001 -137.314236 
L 479.265619 -136.227361 
L 480.225238 -135.147811 
L 481.184856 -134.073942 
L 482.144474 -133.032894 
L 483.104093 -132.025446 
L 484.063711 -131.023667 
L 485.02333 -130.043977 
L 485.982948 -129.065544 
L 486.942566 -128.124448 
L 487.902185 -127.205335 
L 488.861803 -126.293279 
L 489.821422 -125.409187 
L 490.78104 -124.551492 
L 491.740658 -123.724576 
L 492.700277 -122.905852 
L 493.659895 -122.148848 
L 494.619514 -121.425328 
L 495.579132 -120.727097 
L 496.53875 -120.064298 
L 497.498369 -119.435991 
L 498.457987 -118.851534 
L 499.417606 -118.300969 
L 500.377224 -117.770739 
L 501.336842 -117.273365 
L 502.296461 -116.814035 
L 503.256079 -116.391943 
L 504.215698 -115.993941 
L 505.175316 -115.618401 
L 506.134934 -115.278445 
L 507.094553 -114.94739 
L 508.054171 -114.626616 
L 509.01379 -114.325793 
L 509.973408 -114.035651 
L 510.933026 -113.753023 
L 511.892645 -113.480879 
L 512.852263 -113.208118 
L 513.811882 -112.933742 
L 514.7715 -112.662154 
L 515.731118 -112.383655 
L 516.690737 -112.109124 
L 517.650355 -111.83671 
L 518.609974 -111.538831 
L 519.569592 -111.24935 
L 520.52921 -110.960923 
L 521.488829 -110.673277 
L 522.448447 -110.383822 
L 523.408066 -110.096032 
L 524.367684 -109.804967 
L 525.327302 -109.51483 
L 526.286921 -109.226445 
L 527.246539 -108.945811 
L 528.206158 -108.66715 
L 529.165776 -108.39118 
L 530.125394 -108.118422 
L 531.085013 -107.849917 
L 532.044631 -107.583201 
L 533.00425 -107.320795 
L 533.963868 -107.065094 
L 534.923486 -106.812563 
L 535.883105 -106.560288 
L 536.842723 -106.31376 
L 537.802342 -106.071932 
L 538.76196 -105.831278 
L 539.721578 -105.586375 
L 540.681197 -105.343519 
L 541.640815 -105.105084 
L 542.600434 -104.870384 
L 543.560052 -104.633739 
L 544.519671 -104.398748 
L 545.479289 -104.16843 
L 546.438907 -103.937463 
L 547.398526 -103.707149 
L 548.358144 -103.48137 
L 549.317763 -103.260757 
L 550.277381 -103.048626 
L 551.236999 -102.842491 
L 552.196618 -102.645808 
L 553.156236 -102.456145 
L 554.115855 -102.266419 
L 555.075473 -102.086926 
L 556.035091 -101.923849 
L 556.99471 -101.774289 
L 557.954328 -101.634685 
L 558.913947 -101.504682 
L 559.873565 -101.379215 
L 560.833183 -101.264735 
L 561.792802 -101.166185 
L 562.75242 -101.07151 
L 563.712039 -100.992148 
L 564.671657 -100.918519 
L 565.631275 -100.856109 
L 566.590894 -100.801201 
L 567.550512 -100.753378 
L 568.510131 -100.7122 
L 569.469749 -100.677221 
L 570.429367 -100.648001 
L 571.388986 -100.624114 
L 572.348604 -100.602523 
L 573.308223 -100.58342 
L 574.267841 -100.574793 
L 575.227459 -100.569693 
L 576.187078 -100.562599 
L 577.146696 -100.564916 
L 578.106315 -100.564486 
L 579.065933 -100.572745 
L 580.025551 -100.582806 
L 580.98517 -100.594432 
L 581.944788 -100.605432 
L 582.904407 -100.621361 
L 583.864025 -100.635275 
L 584.823643 -100.652714 
L 585.783262 -100.670039 
L 586.74288 -100.684301 
L 587.702499 -100.700997 
L 588.662117 -100.716475 
L 589.621735 -100.730426 
L 590.581354 -100.74256 
L 591.540972 -100.752614 
L 592.500591 -100.760364 
L 593.460209 -100.765633 
L 594.419827 -100.768298 
L 594.419827 -99.921273 
L 594.419827 -99.921273 
L 593.460209 -99.921273 
L 592.500591 -99.921273 
L 591.540972 -99.921273 
L 590.581354 -99.921273 
L 589.621735 -99.921273 
L 588.662117 -99.921273 
L 587.702499 -99.921273 
L 586.74288 -99.921273 
L 585.783262 -99.921273 
L 584.823643 -99.921273 
L 583.864025 -99.921273 
L 582.904407 -99.921273 
L 581.944788 -99.921273 
L 580.98517 -99.921273 
L 580.025551 -99.921273 
L 579.065933 -99.921273 
L 578.106315 -99.921273 
L 577.146696 -99.921273 
L 576.187078 -99.921273 
L 575.227459 -99.921273 
L 574.267841 -99.921273 
L 573.308223 -99.921273 
L 572.348604 -99.921273 
L 571.388986 -99.921273 
L 570.429367 -99.921273 
L 569.469749 -99.921273 
L 568.510131 -99.921273 
L 567.550512 -99.921273 
L 566.590894 -99.921273 
L 565.631275 -99.921273 
L 564.671657 -99.921273 
L 563.712039 -99.921273 
L 562.75242 -99.921273 
L 561.792802 -99.921273 
L 560.833183 -99.921273 
L 559.873565 -99.921273 
L 558.913947 -99.921273 
L 557.954328 -99.921273 
L 556.99471 -99.921273 
L 556.035091 -99.921273 
L 555.075473 -99.921273 
L 554.115855 -99.921273 
L 553.156236 -99.921273 
L 552.196618 -99.921273 
L 551.236999 -99.921273 
L 550.277381 -99.921273 
L 549.317763 -99.921273 
L 548.358144 -99.921273 
L 547.398526 -99.921273 
L 546.438907 -99.921273 
L 545.479289 -99.921273 
L 544.519671 -99.921273 
L 543.560052 -99.921273 
L 542.600434 -99.921273 
L 541.640815 -99.921273 
L 540.681197 -99.921273 
L 539.721578 -99.921273 
L 538.76196 -99.921273 
L 537.802342 -99.921273 
L 536.842723 -99.921273 
L 535.883105 -99.921273 
L 534.923486 -99.921273 
L 533.963868 -99.921273 
L 533.00425 -99.921273 
L 532.044631 -99.921273 
L 531.085013 -99.921273 
L 530.125394 -99.921273 
L 529.165776 -99.921273 
L 528.206158 -99.921273 
L 527.246539 -99.921273 
L 526.286921 -99.921273 
L 525.327302 -99.921273 
L 524.367684 -99.921273 
L 523.408066 -99.921273 
L 522.448447 -99.921273 
L 521.488829 -99.921273 
L 520.52921 -99.921273 
L 519.569592 -99.921273 
L 518.609974 -99.921273 
L 517.650355 -99.921273 
L 516.690737 -99.921273 
L 515.731118 -99.921273 
L 514.7715 -99.921273 
L 513.811882 -99.921273 
L 512.852263 -99.921273 
L 511.892645 -99.921273 
L 510.933026 -99.921273 
L 509.973408 -99.921273 
L 509.01379 -99.921273 
L 508.054171 -99.921273 
L 507.094553 -99.921273 
L 506.134934 -99.921273 
L 505.175316 -99.921273 
L 504.215698 -99.921273 
L 503.256079 -99.921273 
L 502.296461 -99.921273 
L 501.336842 -99.921273 
L 500.377224 -99.921273 
L 499.417606 -99.921273 
L 498.457987 -99.921273 
L 497.498369 -99.921273 
L 496.53875 -99.921273 
L 495.579132 -99.921273 
L 494.619514 -99.921273 
L 493.659895 -99.921273 
L 492.700277 -99.921273 
L 491.740658 -99.921273 
L 490.78104 -99.921273 
L 489.821422 -99.921273 
L 488.861803 -99.921273 
L 487.902185 -99.921273 
L 486.942566 -99.921273 
L 485.982948 -99.921273 
L 485.02333 -99.921273 
L 484.063711 -99.921273 
L 483.104093 -99.921273 
L 482.144474 -99.921273 
L 481.184856 -99.921273 
L 480.225238 -99.921273 
L 479.265619 -99.921273 
L 478.306001 -99.921273 
L 477.346382 -99.921273 
L 476.386764 -99.921273 
L 475.427145 -99.921273 
L 474.467527 -99.921273 
L 473.507909 -99.921273 
L 472.54829 -99.921273 
L 471.588672 -99.921273 
L 470.629053 -99.921273 
L 469.669435 -99.921273 
L 468.709817 -99.921273 
L 467.750198 -99.921273 
L 466.79058 -99.921273 
L 465.830961 -99.921273 
L 464.871343 -99.921273 
L 463.911725 -99.921273 
L 462.952106 -99.921273 
L 461.992488 -99.921273 
L 461.032869 -99.921273 
L 460.073251 -99.921273 
L 459.113633 -99.921273 
L 458.154014 -99.921273 
L 457.194396 -99.921273 
L 456.234777 -99.921273 
L 455.275159 -99.921273 
L 454.315541 -99.921273 
L 453.355922 -99.921273 
L 452.396304 -99.921273 
L 451.436685 -99.921273 
L 450.477067 -99.921273 
L 449.517449 -99.921273 
L 448.55783 -99.921273 
L 447.598212 -99.921273 
L 446.638593 -99.921273 
L 445.678975 -99.921273 
L 444.719357 -99.921273 
L 443.759738 -99.921273 
L 442.80012 -99.921273 
L 441.840501 -99.921273 
L 440.880883 -99.921273 
L 439.921265 -99.921273 
L 438.961646 -99.921273 
L 438.002028 -99.921273 
L 437.042409 -99.921273 
L 436.082791 -99.921273 
L 435.123173 -99.921273 
L 434.163554 -99.921273 
L 433.203936 -99.921273 
L 432.244317 -99.921273 
L 431.284699 -99.921273 
L 430.325081 -99.921273 
L 429.365462 -99.921273 
L 428.405844 -99.921273 
L 427.446225 -99.921273 
L 426.486607 -99.921273 
L 425.526989 -99.921273 
L 424.56737 -99.921273 
L 423.607752 -99.921273 
L 422.648133 -99.921273 
L 421.688515 -99.921273 
L 420.728897 -99.921273 
L 419.769278 -99.921273 
L 418.80966 -99.921273 
L 417.850041 -99.921273 
L 416.890423 -99.921273 
L 415.930804 -99.921273 
L 414.971186 -99.921273 
L 414.011568 -99.921273 
L 413.051949 -99.921273 
L 412.092331 -99.921273 
L 411.132712 -99.921273 
L 410.173094 -99.921273 
L 409.213476 -99.921273 
L 408.253857 -99.921273 
L 407.294239 -99.921273 
L 406.33462 -99.921273 
L 405.375002 -99.921273 
L 404.415384 -99.921273 
L 403.455765 -99.921273 
L 402.496147 -99.921273 
L 401.536528 -99.921273 
L 400.57691 -99.921273 
L 399.617292 -99.921273 
L 398.657673 -99.921273 
L 397.698055 -99.921273 
L 396.738436 -99.921273 
L 395.778818 -99.921273 
L 394.8192 -99.921273 
L 393.859581 -99.921273 
L 392.899963 -99.921273 
L 391.940344 -99.921273 
L 390.980726 -99.921273 
L 390.021108 -99.921273 
L 389.061489 -99.921273 
L 388.101871 -99.921273 
L 387.142252 -99.921273 
L 386.182634 -99.921273 
L 385.223016 -99.921273 
L 384.263397 -99.921273 
L 383.303779 -99.921273 
L 382.34416 -99.921273 
L 381.384542 -99.921273 
L 380.424924 -99.921273 
L 379.465305 -99.921273 
L 378.505687 -99.921273 
L 377.546068 -99.921273 
L 376.58645 -99.921273 
L 375.626832 -99.921273 
L 374.667213 -99.921273 
L 373.707595 -99.921273 
L 372.747976 -99.921273 
L 371.788358 -99.921273 
L 370.82874 -99.921273 
L 369.869121 -99.921273 
L 368.909503 -99.921273 
L 367.949884 -99.921273 
L 366.990266 -99.921273 
L 366.030648 -99.921273 
L 365.071029 -99.921273 
L 364.111411 -99.921273 
L 363.151792 -99.921273 
L 362.192174 -99.921273 
L 361.232556 -99.921273 
L 360.272937 -99.921273 
L 359.313319 -99.921273 
L 358.3537 -99.921273 
L 357.394082 -99.921273 
L 356.434464 -99.921273 
L 355.474845 -99.921273 
L 354.515227 -99.921273 
L 353.555608 -99.921273 
L 352.59599 -99.921273 
L 351.636371 -99.921273 
L 350.676753 -99.921273 
L 349.717135 -99.921273 
L 348.757516 -99.921273 
L 347.797898 -99.921273 
L 346.838279 -99.921273 
L 345.878661 -99.921273 
L 344.919043 -99.921273 
L 343.959424 -99.921273 
L 342.999806 -99.921273 
L 342.040187 -99.921273 
L 341.080569 -99.921273 
L 340.120951 -99.921273 
L 339.161332 -99.921273 
L 338.201714 -99.921273 
L 337.242095 -99.921273 
L 336.282477 -99.921273 
L 335.322859 -99.921273 
L 334.36324 -99.921273 
L 333.403622 -99.921273 
L 332.444003 -99.921273 
L 331.484385 -99.921273 
L 330.524767 -99.921273 
L 329.565148 -99.921273 
L 328.60553 -99.921273 
L 327.645911 -99.921273 
L 326.686293 -99.921273 
L 325.726675 -99.921273 
L 324.767056 -99.921273 
L 323.807438 -99.921273 
L 322.847819 -99.921273 
L 321.888201 -99.921273 
L 320.928583 -99.921273 
L 319.968964 -99.921273 
L 319.009346 -99.921273 
L 318.049727 -99.921273 
L 317.090109 -99.921273 
L 316.130491 -99.921273 
L 315.170872 -99.921273 
L 314.211254 -99.921273 
L 313.251635 -99.921273 
L 312.292017 -99.921273 
L 311.332399 -99.921273 
L 310.37278 -99.921273 
L 309.413162 -99.921273 
L 308.453543 -99.921273 
L 307.493925 -99.921273 
L 306.534307 -99.921273 
L 305.574688 -99.921273 
L 304.61507 -99.921273 
L 303.655451 -99.921273 
L 302.695833 -99.921273 
L 301.736215 -99.921273 
L 300.776596 -99.921273 
L 299.816978 -99.921273 
L 298.857359 -99.921273 
L 297.897741 -99.921273 
L 296.938123 -99.921273 
L 295.978504 -99.921273 
L 295.018886 -99.921273 
L 294.059267 -99.921273 
L 293.099649 -99.921273 
L 292.14003 -99.921273 
L 291.180412 -99.921273 
L 290.220794 -99.921273 
L 289.261175 -99.921273 
L 288.301557 -99.921273 
L 287.341938 -99.921273 
L 286.38232 -99.921273 
L 285.422702 -99.921273 
L 284.463083 -99.921273 
L 283.503465 -99.921273 
L 282.543846 -99.921273 
L 281.584228 -99.921273 
L 280.62461 -99.921273 
L 279.664991 -99.921273 
L 278.705373 -99.921273 
L 277.745754 -99.921273 
L 276.786136 -99.921273 
L 275.826518 -99.921273 
L 274.866899 -99.921273 
L 273.907281 -99.921273 
L 272.947662 -99.921273 
L 271.988044 -99.921273 
L 271.028426 -99.921273 
L 270.068807 -99.921273 
L 269.109189 -99.921273 
L 268.14957 -99.921273 
L 267.189952 -99.921273 
L 266.230334 -99.921273 
L 265.270715 -99.921273 
L 264.311097 -99.921273 
L 263.351478 -99.921273 
L 262.39186 -99.921273 
L 261.432242 -99.921273 
L 260.472623 -99.921273 
L 259.513005 -99.921273 
L 258.553386 -99.921273 
L 257.593768 -99.921273 
L 256.63415 -99.921273 
L 255.674531 -99.921273 
L 254.714913 -99.921273 
L 253.755294 -99.921273 
L 252.795676 -99.921273 
L 251.836058 -99.921273 
L 250.876439 -99.921273 
L 249.916821 -99.921273 
L 248.957202 -99.921273 
L 247.997584 -99.921273 
L 247.037966 -99.921273 
L 246.078347 -99.921273 
L 245.118729 -99.921273 
L 244.15911 -99.921273 
L 243.199492 -99.921273 
L 242.239874 -99.921273 
L 241.280255 -99.921273 
L 240.320637 -99.921273 
L 239.361018 -99.921273 
L 238.4014 -99.921273 
L 237.441782 -99.921273 
L 236.482163 -99.921273 
L 235.522545 -99.921273 
L 234.562926 -99.921273 
L 233.603308 -99.921273 
L 232.643689 -99.921273 
L 231.684071 -99.921273 
L 230.724453 -99.921273 
L 229.764834 -99.921273 
L 228.805216 -99.921273 
L 227.845597 -99.921273 
L 226.885979 -99.921273 
L 225.926361 -99.921273 
L 224.966742 -99.921273 
L 224.007124 -99.921273 
L 223.047505 -99.921273 
L 222.087887 -99.921273 
L 221.128269 -99.921273 
L 220.16865 -99.921273 
L 219.209032 -99.921273 
L 218.249413 -99.921273 
L 217.289795 -99.921273 
L 216.330177 -99.921273 
L 215.370558 -99.921273 
L 214.41094 -99.921273 
L 213.451321 -99.921273 
L 212.491703 -99.921273 
L 211.532085 -99.921273 
L 210.572466 -99.921273 
L 209.612848 -99.921273 
L 208.653229 -99.921273 
L 207.693611 -99.921273 
L 206.733993 -99.921273 
L 205.774374 -99.921273 
L 204.814756 -99.921273 
L 203.855137 -99.921273 
L 202.895519 -99.921273 
L 201.935901 -99.921273 
L 200.976282 -99.921273 
L 200.016664 -99.921273 
L 199.057045 -99.921273 
L 198.097427 -99.921273 
L 197.137809 -99.921273 
L 196.17819 -99.921273 
L 195.218572 -99.921273 
L 194.258953 -99.921273 
L 193.299335 -99.921273 
L 192.339717 -99.921273 
L 191.380098 -99.921273 
L 190.42048 -99.921273 
L 189.460861 -99.921273 
L 188.501243 -99.921273 
L 187.541625 -99.921273 
L 186.582006 -99.921273 
L 185.622388 -99.921273 
L 184.662769 -99.921273 
L 183.703151 -99.921273 
L 182.743533 -99.921273 
L 181.783914 -99.921273 
L 180.824296 -99.921273 
L 179.864677 -99.921273 
L 178.905059 -99.921273 
L 177.945441 -99.921273 
L 176.985822 -99.921273 
L 176.026204 -99.921273 
L 175.066585 -99.921273 
L 174.106967 -99.921273 
L 173.147349 -99.921273 
L 172.18773 -99.921273 
L 171.228112 -99.921273 
L 170.268493 -99.921273 
L 169.308875 -99.921273 
L 168.349256 -99.921273 
L 167.389638 -99.921273 
L 166.43002 -99.921273 
L 165.470401 -99.921273 
L 164.510783 -99.921273 
L 163.551164 -99.921273 
L 162.591546 -99.921273 
L 161.631928 -99.921273 
L 160.672309 -99.921273 
L 159.712691 -99.921273 
L 158.753072 -99.921273 
L 157.793454 -99.921273 
L 156.833836 -99.921273 
L 155.874217 -99.921273 
L 154.914599 -99.921273 
L 153.95498 -99.921273 
L 152.995362 -99.921273 
L 152.035744 -99.921273 
L 151.076125 -99.921273 
L 150.116507 -99.921273 
L 149.156888 -99.921273 
L 148.19727 -99.921273 
L 147.237652 -99.921273 
L 146.278033 -99.921273 
L 145.318415 -99.921273 
L 144.358796 -99.921273 
L 143.399178 -99.921273 
L 142.43956 -99.921273 
L 141.479941 -99.921273 
L 140.520323 -99.921273 
L 139.560704 -99.921273 
L 138.601086 -99.921273 
L 137.641468 -99.921273 
L 136.681849 -99.921273 
L 135.722231 -99.921273 
L 134.762612 -99.921273 
L 133.802994 -99.921273 
L 132.843376 -99.921273 
L 131.883757 -99.921273 
L 130.924139 -99.921273 
L 129.96452 -99.921273 
L 129.004902 -99.921273 
L 128.045284 -99.921273 
L 127.085665 -99.921273 
L 126.126047 -99.921273 
L 125.166428 -99.921273 
L 124.20681 -99.921273 
L 123.247192 -99.921273 
L 122.287573 -99.921273 
L 121.327955 -99.921273 
L 120.368336 -99.921273 
L 119.408718 -99.921273 
L 118.4491 -99.921273 
L 117.489481 -99.921273 
L 116.529863 -99.921273 
L 115.570244 -99.921273 
L 114.610626 -99.921273 
L 113.651008 -99.921273 
L 112.691389 -99.921273 
L 111.731771 -99.921273 
L 110.772152 -99.921273 
L 109.812534 -99.921273 
L 108.852915 -99.921273 
L 107.893297 -99.921273 
L 106.933679 -99.921273 
L 105.97406 -99.921273 
L 105.014442 -99.921273 
L 104.054823 -99.921273 
z
" style="stroke: #ff7f0e; stroke-opacity: 0.6; stroke-width: 0.3"/>
    </defs>
    <g clip-path="url(#p696f19d488)">
     <use xlink:href="#mdb8361aaa7" x="0" y="504" style="fill: #ff7f0e; fill-opacity: 0.6; stroke: #ff7f0e; stroke-opacity: 0.6; stroke-width: 0.3"/>
    </g>
   </g>
   <g id="line2d_7">
    <path d="M 104.054823 402.480969 
L 110.772152 402.585539 
L 118.4491 402.683431 
L 123.247192 402.503063 
L 128.045284 402.050524 
L 132.843376 401.349079 
L 138.601086 400.281843 
L 156.833836 396.811127 
L 160.672309 395.889197 
L 165.470401 394.463115 
L 170.268493 392.699928 
L 175.066585 390.632516 
L 178.905059 388.715973 
L 182.743533 386.562012 
L 186.582006 384.075377 
L 189.460861 381.937842 
L 192.339717 379.545405 
L 195.218572 376.844119 
L 198.097427 373.899708 
L 201.935901 369.585758 
L 206.733993 363.841692 
L 215.370558 353.182735 
L 221.128269 345.723649 
L 224.966742 340.265096 
L 227.845597 335.839176 
L 231.684071 329.507635 
L 238.4014 317.692566 
L 243.199492 309.430232 
L 247.037966 303.346002 
L 250.876439 297.769316 
L 256.63415 289.730839 
L 259.513005 285.337838 
L 261.432242 282.064251 
L 263.351478 278.434597 
L 265.270715 274.470102 
L 267.189952 270.061026 
L 269.109189 265.197665 
L 271.988044 257.183454 
L 274.866899 248.388747 
L 287.341938 208.908779 
L 290.220794 201.015614 
L 293.099649 193.878169 
L 295.978504 187.489934 
L 298.857359 181.781489 
L 301.736215 176.579796 
L 305.574688 170.108217 
L 311.332399 160.469209 
L 317.090109 150.332928 
L 321.888201 141.816499 
L 323.807438 138.754913 
L 325.726675 135.966696 
L 327.645911 133.591634 
L 329.565148 131.703593 
L 330.524767 130.989305 
L 331.484385 130.440776 
L 332.444003 130.025958 
L 333.403622 129.781406 
L 334.36324 129.653273 
L 335.322859 129.691148 
L 336.282477 129.852866 
L 338.201714 130.61503 
L 340.120951 131.804782 
L 342.999806 134.2242 
L 345.878661 136.977846 
L 348.757516 139.801169 
L 351.636371 142.417702 
L 354.515227 144.639071 
L 359.313319 147.730127 
L 366.030648 151.839971 
L 368.909503 153.911264 
L 371.788358 156.222028 
L 374.667213 158.696454 
L 378.505687 162.389239 
L 381.384542 165.452241 
L 384.263397 168.861638 
L 386.182634 171.375169 
L 389.061489 175.606106 
L 390.980726 178.731761 
L 393.859581 183.997047 
L 396.738436 189.930227 
L 399.617292 196.377823 
L 404.415384 207.782745 
L 415.930804 236.157799 
L 421.688515 250.894614 
L 425.526989 261.256099 
L 430.325081 274.842979 
L 438.002028 296.554727 
L 441.840501 306.610206 
L 444.719357 313.519061 
L 447.598212 319.888849 
L 451.436685 327.571442 
L 454.315541 332.802419 
L 458.154014 339.265673 
L 461.992488 345.245289 
L 465.830961 350.838225 
L 469.669435 356.0995 
L 474.467527 362.175019 
L 478.306001 366.685764 
L 483.104093 371.974554 
L 486.942566 375.875552 
L 490.78104 379.448508 
L 493.659895 381.851152 
L 496.53875 383.935702 
L 499.417606 385.699031 
L 502.296461 387.185965 
L 505.175316 388.381599 
L 509.973408 389.964349 
L 533.963868 396.934906 
L 544.519671 399.601252 
L 552.196618 401.354192 
L 556.99471 402.225711 
L 561.792802 402.833815 
L 566.590894 403.198799 
L 572.348604 403.397477 
L 579.065933 403.427255 
L 594.419827 403.231702 
L 594.419827 403.231702 
" clip-path="url(#p696f19d488)" style="fill: none; stroke: #ff7f0e; stroke-width: 2; stroke-linecap: round"/>
   </g>
   <g id="line2d_8">
    <path d="M 232.712434 398.315793 
L 454.037295 398.315793 
" clip-path="url(#p696f19d488)" style="fill: none; stroke: #000000; stroke-width: 3.5"/>
   </g>
   <g id="patch_3">
    <path d="M 79.536573 417.8 
L 618.938078 417.8 
" style="fill: none; stroke: #333333; stroke-width: 1.5; stroke-linejoin: miter; stroke-linecap: square"/>
   </g>
   <g id="text_4">
    <text style="font-size: 52px; font-family: 'DejaVu Serif', 'Times New Roman', serif; text-anchor: end; fill: #262626" x="232.712434" y="383.908456" transform="rotate(-0 232.712434 383.908456)">-1 </text>
   </g>
   <g id="text_5">
    <text style="font-size: 52px; font-family: 'DejaVu Serif', 'Times New Roman', serif; text-anchor: start; fill: #262626" x="454.037295" y="383.908456" transform="rotate(-0 454.037295 383.908456)"> -0.98</text>
   </g>
   <g id="text_6">
    <text style="font-size: 52px; font-family: 'DejaVu Serif', 'Times New Roman', serif; text-anchor: middle; fill: #262626" x="343.374864" y="317.634709" transform="rotate(-0 343.374864 317.634709)">90%</text>
   </g>
   <g id="text_7">
    <!-- $\mu$=-1 -->
    <g style="fill: #262626" transform="translate(280.264001 173.561345)">
     <text>
      <tspan x="0" y="-0.40625" style="font-style: oblique; font-size: 52px; font-family: 'DejaVu Sans'; fill: #262626">μ</tspan>
      <tspan x="33.083984" y="-0.40625" style="font-size: 52px; font-family: 'DejaVu Serif'; fill: #262626">=</tspan>
      <tspan x="76.654297" y="-0.40625" style="font-size: 52px; font-family: 'DejaVu Serif'; fill: #262626">-</tspan>
      <tspan x="94.224609" y="-0.40625" style="font-size: 52px; font-family: 'DejaVu Serif'; fill: #262626">1</tspan>
     </text>
    </g>
   </g>
   <g id="text_8">
    <!-- $x_2^2$ -->
    <g style="fill: #262626" transform="translate(307.057325 94.652)">
     <text>
      <tspan x="0" y="-0.421875" style="font-style: oblique; font-size: 76px; font-family: 'DejaVu Sans'; fill: #262626">x</tspan>
      <tspan x="44.976562" y="20.359375" style="font-size: 53.2px; font-family: 'DejaVu Sans'; fill: #262626">2</tspan>
      <tspan x="48.370833" y="-29.515625" style="font-size: 53.2px; font-family: 'DejaVu Sans'; fill: #262626">2</tspan>
     </text>
    </g>
   </g>
  </g>
 </g>
 <defs>
  <clipPath id="p696f19d488">
   <rect x="79.536573" y="115.932" width="539.401504" height="301.868"/>
  </clipPath>
 </defs>
</svg>
