<?xml version="1.0" encoding="utf-8" standalone="no"?>
<!DOCTYPE svg PUBLIC "-//W3C//DTD SVG 1.1//EN"
  "http://www.w3.org/Graphics/SVG/1.1/DTD/svg11.dtd">
<svg xmlns:xlink="http://www.w3.org/1999/xlink" width="648pt" height="504pt" viewBox="0 0 648 504" xmlns="http://www.w3.org/2000/svg" version="1.1">
 <metadata>
  <rdf:RDF xmlns:dc="http://purl.org/dc/elements/1.1/" xmlns:cc="http://creativecommons.org/ns#" xmlns:rdf="http://www.w3.org/1999/02/22-rdf-syntax-ns#">
   <cc:Work>
    <dc:type rdf:resource="http://purl.org/dc/dcmitype/StillImage"/>
    <dc:date>2026-02-22T16:15:38.619034</dc:date>
    <dc:format>image/svg+xml</dc:format>
    <dc:creator>
     <cc:Agent>
      <dc:title>Matplotlib v3.10.6, https://matplotlib.org/</dc:title>
     </cc:Agent>
    </dc:creator>
   </cc:Work>
  </rdf:RDF>
 </metadata>
 <defs>
  <style type="text/css">*{stroke-linejoin: round; stroke-linecap: butt}</style>
 </defs>
 <g id="figure_1">
  <g id="patch_1">
   <path d="M 0 504 
L 648 504 
L 648 0 
L 0 0 
L 0 504 
z
" style="fill: none; opacity: 0"/>
  </g>
  <g id="axes_1">
   <g id="patch_2">
    <path d="M 63.378442 417.8 
L 582.952325 417.8 
L 582.952325 116.616 
L 63.378442 116.616 
L 63.378442 417.8 
z
" style="fill: none"/>
   </g>
   <g id="matplotlib.axis_1">
    <g id="xtick_1">
     <g id="line2d_1">
      <path d="M 107.068437 417.8 
L 107.068437 116.616 
" clip-path="url(#p8426d20e84)" style="fill: none; stroke: #ffffff; stroke-opacity: 0.4; stroke-linecap: round"/>
     </g>
     <g id="line2d_2">
      <defs>
       <path id="m6407749f2b" d="M 0 0 
L 0 3 
" style="stroke: #808080"/>
      </defs>
      <g>
       <use xlink:href="#m6407749f2b" x="107.068437" y="417.8" style="fill: #808080; stroke: #808080"/>
      </g>
     </g>
     <g id="text_1">
      <text style="font-size: 52px; font-family: 'DejaVu Serif', 'Times New Roman', serif; text-anchor: middle; fill: #262626" x="107.068437" y="467.311875" transform="rotate(-0 107.068437 467.311875)">−0.05</text>
     </g>
    </g>
    <g id="xtick_2">
     <g id="line2d_3">
      <path d="M 321.135023 417.8 
L 321.135023 116.616 
" clip-path="url(#p8426d20e84)" style="fill: none; stroke: #ffffff; stroke-opacity: 0.4; stroke-linecap: round"/>
     </g>
     <g id="line2d_4">
      <g>
       <use xlink:href="#m6407749f2b" x="321.135023" y="417.8" style="fill: #808080; stroke: #808080"/>
      </g>
     </g>
     <g id="text_2">
      <text style="font-size: 52px; font-family: 'DejaVu Serif', 'Times New Roman', serif; text-anchor: middle; fill: #262626" x="321.135023" y="467.311875" transform="rotate(-0 321.135023 467.311875)">0.00</text>
     </g>
    </g>
    <g id="xtick_3">
     <g id="line2d_5">
      <path d="M 535.201609 417.8 
L 535.201609 116.616 
" clip-path="url(#p8426d20e84)" style="fill: none; stroke: #ffffff; stroke-opacity: 0.4; stroke-linecap: round"/>
     </g>
     <g id="line2d_6">
      <g>
       <use xlink:href="#m6407749f2b" x="535.201609" y="417.8" style="fill: #808080; stroke: #808080"/>
      </g>
     </g>
     <g id="text_3">
      <text style="font-size: 52px; font-family: 'DejaVu Serif', 'Times New Roman', serif; text-anchor: middle; fill: #262626" x="535.201609" y="467.311875" transform="rotate(-0 535.201609 467.311875)">0.05</text>
     </g>
    </g>
   </g>
   <g id="matplotlib.axis_2"/>
   <g id="FillBetweenPolyCollection_1">
    <defs>
     <path id="mb9db77e8da" d="M 86.995436 -99.890182 
L 86.995436 -103.138607 
L 87.919781 -103.137873 
L 88.844125 -103.147178 
L 89.768469 -103.158109 
L 90.692813 -103.173115 
L 91.617158 -103.19459 
L 92.541502 -103.216558 
L 93.465846 -103.238704 
L 94.39019 -103.270241 
L 95.314534 -103.301884 
L 96.238879 -103.335272 
L 97.163223 -103.373282 
L 98.087567 -103.407261 
L 99.011911 -103.448446 
L 99.936255 -103.490862 
L 100.8606 -103.537644 
L 101.784944 -103.579833 
L 102.709288 -103.625787 
L 103.633632 -103.673634 
L 104.557977 -103.72357 
L 105.482321 -103.77203 
L 106.406665 -103.82507 
L 107.331009 -103.877253 
L 108.255353 -103.934726 
L 109.179698 -103.992124 
L 110.104042 -104.050439 
L 111.028386 -104.115771 
L 111.95273 -104.187896 
L 112.877074 -104.258874 
L 113.801419 -104.337361 
L 114.725763 -104.417815 
L 115.650107 -104.509393 
L 116.574451 -104.607157 
L 117.498796 -104.715166 
L 118.42314 -104.830483 
L 119.347484 -104.955954 
L 120.271828 -105.079601 
L 121.196172 -105.215566 
L 122.120517 -105.361912 
L 123.044861 -105.509698 
L 123.969205 -105.673656 
L 124.893549 -105.842928 
L 125.817893 -106.010513 
L 126.742238 -106.190382 
L 127.666582 -106.377268 
L 128.590926 -106.565301 
L 129.51527 -106.760067 
L 130.439615 -106.970421 
L 131.363959 -107.184915 
L 132.288303 -107.406313 
L 133.212647 -107.631607 
L 134.136991 -107.870012 
L 135.061336 -108.107098 
L 135.98568 -108.354053 
L 136.910024 -108.615023 
L 137.834368 -108.878919 
L 138.758712 -109.154537 
L 139.683057 -109.442989 
L 140.607401 -109.733222 
L 141.531745 -110.037135 
L 142.456089 -110.34859 
L 143.380434 -110.676761 
L 144.304778 -111.019929 
L 145.229122 -111.369323 
L 146.153466 -111.733309 
L 147.07781 -112.105339 
L 148.002155 -112.485643 
L 148.926499 -112.882596 
L 149.850843 -113.295583 
L 150.775187 -113.715625 
L 151.699531 -114.13805 
L 152.623876 -114.573289 
L 153.54822 -115.011762 
L 154.472564 -115.455301 
L 155.396908 -115.895966 
L 156.321253 -116.349437 
L 157.245597 -116.807141 
L 158.169941 -117.252325 
L 159.094285 -117.696945 
L 160.018629 -118.13427 
L 160.942974 -118.578264 
L 161.867318 -119.016966 
L 162.791662 -119.44643 
L 163.716006 -119.866038 
L 164.64035 -120.281752 
L 165.564695 -120.687024 
L 166.489039 -121.090343 
L 167.413383 -121.480611 
L 168.337727 -121.864243 
L 169.262072 -122.251763 
L 170.186416 -122.620693 
L 171.11076 -122.99483 
L 172.035104 -123.368007 
L 172.959448 -123.739446 
L 173.883793 -124.125897 
L 174.808137 -124.509739 
L 175.732481 -124.901004 
L 176.656825 -125.307785 
L 177.58117 -125.712495 
L 178.505514 -126.149398 
L 179.429858 -126.591263 
L 180.354202 -127.064001 
L 181.278546 -127.553064 
L 182.202891 -128.052702 
L 183.127235 -128.591346 
L 184.051579 -129.155025 
L 184.975923 -129.747064 
L 185.900267 -130.371196 
L 186.824612 -131.007707 
L 187.748956 -131.688371 
L 188.6733 -132.421852 
L 189.597644 -133.171526 
L 190.521989 -133.949839 
L 191.446333 -134.765535 
L 192.370677 -135.619558 
L 193.295021 -136.483866 
L 194.219365 -137.401212 
L 195.14371 -138.337344 
L 196.068054 -139.30801 
L 196.992398 -140.309605 
L 197.916742 -141.32242 
L 198.841086 -142.368104 
L 199.765431 -143.448385 
L 200.689775 -144.542794 
L 201.614119 -145.670037 
L 202.538463 -146.821378 
L 203.462808 -148.004475 
L 204.387152 -149.17514 
L 205.311496 -150.378527 
L 206.23584 -151.619555 
L 207.160184 -152.8575 
L 208.084529 -154.133109 
L 209.008873 -155.438173 
L 209.933217 -156.748904 
L 210.857561 -158.076684 
L 211.781905 -159.449661 
L 212.70625 -160.841399 
L 213.630594 -162.230712 
L 214.554938 -163.654989 
L 215.479282 -165.091214 
L 216.403627 -166.562509 
L 217.327971 -168.063122 
L 218.252315 -169.626193 
L 219.176659 -171.224018 
L 220.101003 -172.818744 
L 221.025348 -174.467437 
L 221.949692 -176.123548 
L 222.874036 -177.837645 
L 223.79838 -179.598795 
L 224.722724 -181.383482 
L 225.647069 -183.226963 
L 226.571413 -185.083506 
L 227.495757 -186.990953 
L 228.420101 -188.944632 
L 229.344446 -190.92901 
L 230.26879 -192.953929 
L 231.193134 -195.012878 
L 232.117478 -197.114518 
L 233.041822 -199.231326 
L 233.966167 -201.418883 
L 234.890511 -203.627267 
L 235.814855 -205.861676 
L 236.739199 -208.129427 
L 237.663543 -210.432632 
L 238.587888 -212.795529 
L 239.512232 -215.163298 
L 240.436576 -217.548205 
L 241.36092 -219.960219 
L 242.285265 -222.402842 
L 243.209609 -224.873953 
L 244.133953 -227.346498 
L 245.058297 -229.867692 
L 245.982641 -232.383694 
L 246.906986 -234.925254 
L 247.83133 -237.503177 
L 248.755674 -240.084517 
L 249.680018 -242.661837 
L 250.604362 -245.265045 
L 251.528707 -247.882403 
L 252.453051 -250.511923 
L 253.377395 -253.1285 
L 254.301739 -255.756559 
L 255.226084 -258.410653 
L 256.150428 -261.042148 
L 257.074772 -263.689281 
L 257.999116 -266.314937 
L 258.92346 -268.967825 
L 259.847805 -271.604991 
L 260.772149 -274.227127 
L 261.696493 -276.807922 
L 262.620837 -279.401821 
L 263.545181 -281.964435 
L 264.469526 -284.535527 
L 265.39387 -287.088688 
L 266.318214 -289.581521 
L 267.242558 -292.038193 
L 268.166903 -294.465159 
L 269.091247 -296.856753 
L 270.015591 -299.237323 
L 270.939935 -301.523327 
L 271.864279 -303.748534 
L 272.788624 -305.936117 
L 273.712968 -308.065688 
L 274.637312 -310.099751 
L 275.561656 -312.114299 
L 276.486001 -314.062753 
L 277.410345 -315.915461 
L 278.334689 -317.693395 
L 279.259033 -319.409583 
L 280.183377 -321.028922 
L 281.107722 -322.604832 
L 282.032066 -324.099908 
L 282.95641 -325.52883 
L 283.880754 -326.901369 
L 284.805098 -328.196097 
L 285.729443 -329.411699 
L 286.653787 -330.59317 
L 287.578131 -331.73774 
L 288.502475 -332.823528 
L 289.42682 -333.859966 
L 290.351164 -334.891338 
L 291.275508 -335.862173 
L 292.199852 -336.815305 
L 293.124196 -337.79345 
L 294.048541 -338.731366 
L 294.972885 -339.66636 
L 295.897229 -340.612475 
L 296.821573 -341.572834 
L 297.745917 -342.521738 
L 298.670262 -343.502431 
L 299.594606 -344.489529 
L 300.51895 -345.474041 
L 301.443294 -346.471877 
L 302.367639 -347.483137 
L 303.291983 -348.552626 
L 304.216327 -349.629615 
L 305.140671 -350.721516 
L 306.065015 -351.795145 
L 306.98936 -352.879675 
L 307.913704 -353.966736 
L 308.838048 -355.07219 
L 309.762392 -356.166638 
L 310.686736 -357.217358 
L 311.611081 -358.244523 
L 312.535425 -359.295151 
L 313.459769 -360.321704 
L 314.384113 -361.339729 
L 315.308458 -362.309469 
L 316.232802 -363.247236 
L 317.157146 -364.135168 
L 318.08149 -364.99857 
L 319.005834 -365.810733 
L 319.930179 -366.596467 
L 320.854523 -367.334136 
L 321.778867 -368.004724 
L 322.703211 -368.653273 
L 323.627555 -369.268285 
L 324.5519 -369.863998 
L 325.476244 -370.424483 
L 326.400588 -370.926391 
L 327.324932 -371.386606 
L 328.249277 -371.795122 
L 329.173621 -372.196386 
L 330.097965 -372.525423 
L 331.022309 -372.79713 
L 331.946653 -373.04168 
L 332.870998 -373.27019 
L 333.795342 -373.46846 
L 334.719686 -373.577323 
L 335.64403 -373.632061 
L 336.568374 -373.693818 
L 337.492719 -373.673592 
L 338.417063 -373.5773 
L 339.341407 -373.469399 
L 340.265751 -373.288405 
L 341.190096 -373.082305 
L 342.11444 -372.786531 
L 343.038784 -372.406757 
L 343.963128 -371.979219 
L 344.887472 -371.484125 
L 345.811817 -370.89676 
L 346.736161 -370.222917 
L 347.660505 -369.475918 
L 348.584849 -368.661098 
L 349.509193 -367.789921 
L 350.433538 -366.829815 
L 351.357882 -365.794705 
L 352.282226 -364.682691 
L 353.20657 -363.47476 
L 354.130915 -362.233241 
L 355.055259 -360.89557 
L 355.979603 -359.496828 
L 356.903947 -358.041632 
L 357.828291 -356.546437 
L 358.752636 -354.933534 
L 359.67698 -353.295924 
L 360.601324 -351.609019 
L 361.525668 -349.892486 
L 362.450013 -348.113623 
L 363.374357 -346.312898 
L 364.298701 -344.466009 
L 365.223045 -342.585623 
L 366.147389 -340.6519 
L 367.071734 -338.727885 
L 367.996078 -336.769089 
L 368.920422 -334.836483 
L 369.844766 -332.893145 
L 370.76911 -330.922232 
L 371.693455 -328.949961 
L 372.617799 -326.971816 
L 373.542143 -324.985436 
L 374.466487 -323.020894 
L 375.390832 -321.045342 
L 376.315176 -319.057781 
L 377.23952 -317.117771 
L 378.163864 -315.167703 
L 379.088208 -313.237467 
L 380.012553 -311.313802 
L 380.936897 -309.433449 
L 381.861241 -307.550452 
L 382.785585 -305.66467 
L 383.709929 -303.812598 
L 384.634274 -301.978009 
L 385.558618 -300.131127 
L 386.482962 -298.297277 
L 387.407306 -296.471588 
L 388.331651 -294.676819 
L 389.255995 -292.892335 
L 390.180339 -291.112168 
L 391.104683 -289.34567 
L 392.029027 -287.562088 
L 392.953372 -285.80681 
L 393.877716 -284.066859 
L 394.80206 -282.317484 
L 395.726404 -280.525016 
L 396.650748 -278.740328 
L 397.575093 -276.934038 
L 398.499437 -275.141189 
L 399.423781 -273.344976 
L 400.348125 -271.517433 
L 401.27247 -269.692927 
L 402.196814 -267.866789 
L 403.121158 -266.017685 
L 404.045502 -264.128295 
L 404.969846 -262.242908 
L 405.894191 -260.340162 
L 406.818535 -258.41197 
L 407.742879 -256.466862 
L 408.667223 -254.504932 
L 409.591567 -252.566526 
L 410.515912 -250.624336 
L 411.440256 -248.67126 
L 412.3646 -246.720559 
L 413.288944 -244.79932 
L 414.213289 -242.874119 
L 415.137633 -240.958874 
L 416.061977 -239.03099 
L 416.986321 -237.098844 
L 417.910665 -235.232036 
L 418.83501 -233.380082 
L 419.759354 -231.521512 
L 420.683698 -229.689092 
L 421.608042 -227.881073 
L 422.532386 -226.072574 
L 423.456731 -224.287855 
L 424.381075 -222.515259 
L 425.305419 -220.770327 
L 426.229763 -219.064916 
L 427.154108 -217.352687 
L 428.078452 -215.656181 
L 429.002796 -213.954663 
L 429.92714 -212.271562 
L 430.851484 -210.559668 
L 431.775829 -208.843264 
L 432.700173 -207.118983 
L 433.624517 -205.396704 
L 434.548861 -203.662501 
L 435.473205 -201.88605 
L 436.39755 -200.101267 
L 437.321894 -198.298234 
L 438.246238 -196.487139 
L 439.170582 -194.641721 
L 440.094927 -192.763603 
L 441.019271 -190.868808 
L 441.943615 -188.960589 
L 442.867959 -187.025543 
L 443.792303 -185.090534 
L 444.716648 -183.133066 
L 445.640992 -181.183145 
L 446.565336 -179.223935 
L 447.48968 -177.25299 
L 448.414024 -175.292214 
L 449.338369 -173.365902 
L 450.262713 -171.416515 
L 451.187057 -169.520426 
L 452.111401 -167.625724 
L 453.035746 -165.744667 
L 453.96009 -163.93097 
L 454.884434 -162.15197 
L 455.808778 -160.424892 
L 456.733122 -158.732051 
L 457.657467 -157.089786 
L 458.581811 -155.517849 
L 459.506155 -153.987604 
L 460.430499 -152.504329 
L 461.354844 -151.077564 
L 462.279188 -149.705856 
L 463.203532 -148.405313 
L 464.127876 -147.138258 
L 465.05222 -145.934151 
L 465.976565 -144.797804 
L 466.900909 -143.704293 
L 467.825253 -142.642713 
L 468.749597 -141.662805 
L 469.673941 -140.715723 
L 470.598286 -139.808171 
L 471.52263 -138.936943 
L 472.446974 -138.096065 
L 473.371318 -137.285789 
L 474.295663 -136.505719 
L 475.220007 -135.74457 
L 476.144351 -135.005183 
L 477.068695 -134.282856 
L 477.993039 -133.582098 
L 478.917384 -132.893667 
L 479.841728 -132.20403 
L 480.766072 -131.529288 
L 481.690416 -130.849953 
L 482.61476 -130.180841 
L 483.539105 -129.507656 
L 484.463449 -128.829177 
L 485.387793 -128.14561 
L 486.312137 -127.450935 
L 487.236482 -126.776833 
L 488.160826 -126.084406 
L 489.08517 -125.386894 
L 490.009514 -124.698546 
L 490.933858 -123.997496 
L 491.858203 -123.292158 
L 492.782547 -122.576205 
L 493.706891 -121.882667 
L 494.631235 -121.183485 
L 495.555579 -120.489239 
L 496.479924 -119.79959 
L 497.404268 -119.125199 
L 498.328612 -118.464714 
L 499.252956 -117.822687 
L 500.177301 -117.195362 
L 501.101645 -116.577452 
L 502.025989 -115.980611 
L 502.950333 -115.40661 
L 503.874677 -114.864784 
L 504.799022 -114.341821 
L 505.723366 -113.850371 
L 506.64771 -113.377033 
L 507.572054 -112.934222 
L 508.496398 -112.513397 
L 509.420743 -112.122914 
L 510.345087 -111.766443 
L 511.269431 -111.430787 
L 512.193775 -111.120399 
L 513.11812 -110.820072 
L 514.042464 -110.545637 
L 514.966808 -110.288418 
L 515.891152 -110.046047 
L 516.815496 -109.816067 
L 517.739841 -109.588165 
L 518.664185 -109.388054 
L 519.588529 -109.189252 
L 520.512873 -108.984614 
L 521.437217 -108.781054 
L 522.361562 -108.576635 
L 523.285906 -108.374871 
L 524.21025 -108.162892 
L 525.134594 -107.951185 
L 526.058939 -107.732642 
L 526.983283 -107.49907 
L 527.907627 -107.264915 
L 528.831971 -107.016008 
L 529.756315 -106.769866 
L 530.68066 -106.522663 
L 531.605004 -106.266424 
L 532.529348 -105.997682 
L 533.453692 -105.737456 
L 534.378036 -105.469147 
L 535.302381 -105.197952 
L 536.226725 -104.930988 
L 537.151069 -104.66906 
L 538.075413 -104.405253 
L 538.999758 -104.144653 
L 539.924102 -103.90196 
L 540.848446 -103.665701 
L 541.77279 -103.429341 
L 542.697134 -103.205933 
L 543.621479 -102.998199 
L 544.545823 -102.806949 
L 545.470167 -102.618785 
L 546.394511 -102.448321 
L 547.318856 -102.290148 
L 548.2432 -102.144539 
L 549.167544 -102.008401 
L 550.091888 -101.881624 
L 551.016232 -101.769696 
L 551.940577 -101.669077 
L 552.864921 -101.582597 
L 553.789265 -101.507323 
L 554.713609 -101.439674 
L 555.637953 -101.388224 
L 556.562298 -101.341707 
L 557.486642 -101.311993 
L 558.410986 -101.284728 
L 559.33533 -101.270611 
L 559.33533 -99.890182 
L 559.33533 -99.890182 
L 558.410986 -99.890182 
L 557.486642 -99.890182 
L 556.562298 -99.890182 
L 555.637953 -99.890182 
L 554.713609 -99.890182 
L 553.789265 -99.890182 
L 552.864921 -99.890182 
L 551.940577 -99.890182 
L 551.016232 -99.890182 
L 550.091888 -99.890182 
L 549.167544 -99.890182 
L 548.2432 -99.890182 
L 547.318856 -99.890182 
L 546.394511 -99.890182 
L 545.470167 -99.890182 
L 544.545823 -99.890182 
L 543.621479 -99.890182 
L 542.697134 -99.890182 
L 541.77279 -99.890182 
L 540.848446 -99.890182 
L 539.924102 -99.890182 
L 538.999758 -99.890182 
L 538.075413 -99.890182 
L 537.151069 -99.890182 
L 536.226725 -99.890182 
L 535.302381 -99.890182 
L 534.378036 -99.890182 
L 533.453692 -99.890182 
L 532.529348 -99.890182 
L 531.605004 -99.890182 
L 530.68066 -99.890182 
L 529.756315 -99.890182 
L 528.831971 -99.890182 
L 527.907627 -99.890182 
L 526.983283 -99.890182 
L 526.058939 -99.890182 
L 525.134594 -99.890182 
L 524.21025 -99.890182 
L 523.285906 -99.890182 
L 522.361562 -99.890182 
L 521.437217 -99.890182 
L 520.512873 -99.890182 
L 519.588529 -99.890182 
L 518.664185 -99.890182 
L 517.739841 -99.890182 
L 516.815496 -99.890182 
L 515.891152 -99.890182 
L 514.966808 -99.890182 
L 514.042464 -99.890182 
L 513.11812 -99.890182 
L 512.193775 -99.890182 
L 511.269431 -99.890182 
L 510.345087 -99.890182 
L 509.420743 -99.890182 
L 508.496398 -99.890182 
L 507.572054 -99.890182 
L 506.64771 -99.890182 
L 505.723366 -99.890182 
L 504.799022 -99.890182 
L 503.874677 -99.890182 
L 502.950333 -99.890182 
L 502.025989 -99.890182 
L 501.101645 -99.890182 
L 500.177301 -99.890182 
L 499.252956 -99.890182 
L 498.328612 -99.890182 
L 497.404268 -99.890182 
L 496.479924 -99.890182 
L 495.555579 -99.890182 
L 494.631235 -99.890182 
L 493.706891 -99.890182 
L 492.782547 -99.890182 
L 491.858203 -99.890182 
L 490.933858 -99.890182 
L 490.009514 -99.890182 
L 489.08517 -99.890182 
L 488.160826 -99.890182 
L 487.236482 -99.890182 
L 486.312137 -99.890182 
L 485.387793 -99.890182 
L 484.463449 -99.890182 
L 483.539105 -99.890182 
L 482.61476 -99.890182 
L 481.690416 -99.890182 
L 480.766072 -99.890182 
L 479.841728 -99.890182 
L 478.917384 -99.890182 
L 477.993039 -99.890182 
L 477.068695 -99.890182 
L 476.144351 -99.890182 
L 475.220007 -99.890182 
L 474.295663 -99.890182 
L 473.371318 -99.890182 
L 472.446974 -99.890182 
L 471.52263 -99.890182 
L 470.598286 -99.890182 
L 469.673941 -99.890182 
L 468.749597 -99.890182 
L 467.825253 -99.890182 
L 466.900909 -99.890182 
L 465.976565 -99.890182 
L 465.05222 -99.890182 
L 464.127876 -99.890182 
L 463.203532 -99.890182 
L 462.279188 -99.890182 
L 461.354844 -99.890182 
L 460.430499 -99.890182 
L 459.506155 -99.890182 
L 458.581811 -99.890182 
L 457.657467 -99.890182 
L 456.733122 -99.890182 
L 455.808778 -99.890182 
L 454.884434 -99.890182 
L 453.96009 -99.890182 
L 453.035746 -99.890182 
L 452.111401 -99.890182 
L 451.187057 -99.890182 
L 450.262713 -99.890182 
L 449.338369 -99.890182 
L 448.414024 -99.890182 
L 447.48968 -99.890182 
L 446.565336 -99.890182 
L 445.640992 -99.890182 
L 444.716648 -99.890182 
L 443.792303 -99.890182 
L 442.867959 -99.890182 
L 441.943615 -99.890182 
L 441.019271 -99.890182 
L 440.094927 -99.890182 
L 439.170582 -99.890182 
L 438.246238 -99.890182 
L 437.321894 -99.890182 
L 436.39755 -99.890182 
L 435.473205 -99.890182 
L 434.548861 -99.890182 
L 433.624517 -99.890182 
L 432.700173 -99.890182 
L 431.775829 -99.890182 
L 430.851484 -99.890182 
L 429.92714 -99.890182 
L 429.002796 -99.890182 
L 428.078452 -99.890182 
L 427.154108 -99.890182 
L 426.229763 -99.890182 
L 425.305419 -99.890182 
L 424.381075 -99.890182 
L 423.456731 -99.890182 
L 422.532386 -99.890182 
L 421.608042 -99.890182 
L 420.683698 -99.890182 
L 419.759354 -99.890182 
L 418.83501 -99.890182 
L 417.910665 -99.890182 
L 416.986321 -99.890182 
L 416.061977 -99.890182 
L 415.137633 -99.890182 
L 414.213289 -99.890182 
L 413.288944 -99.890182 
L 412.3646 -99.890182 
L 411.440256 -99.890182 
L 410.515912 -99.890182 
L 409.591567 -99.890182 
L 408.667223 -99.890182 
L 407.742879 -99.890182 
L 406.818535 -99.890182 
L 405.894191 -99.890182 
L 404.969846 -99.890182 
L 404.045502 -99.890182 
L 403.121158 -99.890182 
L 402.196814 -99.890182 
L 401.27247 -99.890182 
L 400.348125 -99.890182 
L 399.423781 -99.890182 
L 398.499437 -99.890182 
L 397.575093 -99.890182 
L 396.650748 -99.890182 
L 395.726404 -99.890182 
L 394.80206 -99.890182 
L 393.877716 -99.890182 
L 392.953372 -99.890182 
L 392.029027 -99.890182 
L 391.104683 -99.890182 
L 390.180339 -99.890182 
L 389.255995 -99.890182 
L 388.331651 -99.890182 
L 387.407306 -99.890182 
L 386.482962 -99.890182 
L 385.558618 -99.890182 
L 384.634274 -99.890182 
L 383.709929 -99.890182 
L 382.785585 -99.890182 
L 381.861241 -99.890182 
L 380.936897 -99.890182 
L 380.012553 -99.890182 
L 379.088208 -99.890182 
L 378.163864 -99.890182 
L 377.23952 -99.890182 
L 376.315176 -99.890182 
L 375.390832 -99.890182 
L 374.466487 -99.890182 
L 373.542143 -99.890182 
L 372.617799 -99.890182 
L 371.693455 -99.890182 
L 370.76911 -99.890182 
L 369.844766 -99.890182 
L 368.920422 -99.890182 
L 367.996078 -99.890182 
L 367.071734 -99.890182 
L 366.147389 -99.890182 
L 365.223045 -99.890182 
L 364.298701 -99.890182 
L 363.374357 -99.890182 
L 362.450013 -99.890182 
L 361.525668 -99.890182 
L 360.601324 -99.890182 
L 359.67698 -99.890182 
L 358.752636 -99.890182 
L 357.828291 -99.890182 
L 356.903947 -99.890182 
L 355.979603 -99.890182 
L 355.055259 -99.890182 
L 354.130915 -99.890182 
L 353.20657 -99.890182 
L 352.282226 -99.890182 
L 351.357882 -99.890182 
L 350.433538 -99.890182 
L 349.509193 -99.890182 
L 348.584849 -99.890182 
L 347.660505 -99.890182 
L 346.736161 -99.890182 
L 345.811817 -99.890182 
L 344.887472 -99.890182 
L 343.963128 -99.890182 
L 343.038784 -99.890182 
L 342.11444 -99.890182 
L 341.190096 -99.890182 
L 340.265751 -99.890182 
L 339.341407 -99.890182 
L 338.417063 -99.890182 
L 337.492719 -99.890182 
L 336.568374 -99.890182 
L 335.64403 -99.890182 
L 334.719686 -99.890182 
L 333.795342 -99.890182 
L 332.870998 -99.890182 
L 331.946653 -99.890182 
L 331.022309 -99.890182 
L 330.097965 -99.890182 
L 329.173621 -99.890182 
L 328.249277 -99.890182 
L 327.324932 -99.890182 
L 326.400588 -99.890182 
L 325.476244 -99.890182 
L 324.5519 -99.890182 
L 323.627555 -99.890182 
L 322.703211 -99.890182 
L 321.778867 -99.890182 
L 320.854523 -99.890182 
L 319.930179 -99.890182 
L 319.005834 -99.890182 
L 318.08149 -99.890182 
L 317.157146 -99.890182 
L 316.232802 -99.890182 
L 315.308458 -99.890182 
L 314.384113 -99.890182 
L 313.459769 -99.890182 
L 312.535425 -99.890182 
L 311.611081 -99.890182 
L 310.686736 -99.890182 
L 309.762392 -99.890182 
L 308.838048 -99.890182 
L 307.913704 -99.890182 
L 306.98936 -99.890182 
L 306.065015 -99.890182 
L 305.140671 -99.890182 
L 304.216327 -99.890182 
L 303.291983 -99.890182 
L 302.367639 -99.890182 
L 301.443294 -99.890182 
L 300.51895 -99.890182 
L 299.594606 -99.890182 
L 298.670262 -99.890182 
L 297.745917 -99.890182 
L 296.821573 -99.890182 
L 295.897229 -99.890182 
L 294.972885 -99.890182 
L 294.048541 -99.890182 
L 293.124196 -99.890182 
L 292.199852 -99.890182 
L 291.275508 -99.890182 
L 290.351164 -99.890182 
L 289.42682 -99.890182 
L 288.502475 -99.890182 
L 287.578131 -99.890182 
L 286.653787 -99.890182 
L 285.729443 -99.890182 
L 284.805098 -99.890182 
L 283.880754 -99.890182 
L 282.95641 -99.890182 
L 282.032066 -99.890182 
L 281.107722 -99.890182 
L 280.183377 -99.890182 
L 279.259033 -99.890182 
L 278.334689 -99.890182 
L 277.410345 -99.890182 
L 276.486001 -99.890182 
L 275.561656 -99.890182 
L 274.637312 -99.890182 
L 273.712968 -99.890182 
L 272.788624 -99.890182 
L 271.864279 -99.890182 
L 270.939935 -99.890182 
L 270.015591 -99.890182 
L 269.091247 -99.890182 
L 268.166903 -99.890182 
L 267.242558 -99.890182 
L 266.318214 -99.890182 
L 265.39387 -99.890182 
L 264.469526 -99.890182 
L 263.545181 -99.890182 
L 262.620837 -99.890182 
L 261.696493 -99.890182 
L 260.772149 -99.890182 
L 259.847805 -99.890182 
L 258.92346 -99.890182 
L 257.999116 -99.890182 
L 257.074772 -99.890182 
L 256.150428 -99.890182 
L 255.226084 -99.890182 
L 254.301739 -99.890182 
L 253.377395 -99.890182 
L 252.453051 -99.890182 
L 251.528707 -99.890182 
L 250.604362 -99.890182 
L 249.680018 -99.890182 
L 248.755674 -99.890182 
L 247.83133 -99.890182 
L 246.906986 -99.890182 
L 245.982641 -99.890182 
L 245.058297 -99.890182 
L 244.133953 -99.890182 
L 243.209609 -99.890182 
L 242.285265 -99.890182 
L 241.36092 -99.890182 
L 240.436576 -99.890182 
L 239.512232 -99.890182 
L 238.587888 -99.890182 
L 237.663543 -99.890182 
L 236.739199 -99.890182 
L 235.814855 -99.890182 
L 234.890511 -99.890182 
L 233.966167 -99.890182 
L 233.041822 -99.890182 
L 232.117478 -99.890182 
L 231.193134 -99.890182 
L 230.26879 -99.890182 
L 229.344446 -99.890182 
L 228.420101 -99.890182 
L 227.495757 -99.890182 
L 226.571413 -99.890182 
L 225.647069 -99.890182 
L 224.722724 -99.890182 
L 223.79838 -99.890182 
L 222.874036 -99.890182 
L 221.949692 -99.890182 
L 221.025348 -99.890182 
L 220.101003 -99.890182 
L 219.176659 -99.890182 
L 218.252315 -99.890182 
L 217.327971 -99.890182 
L 216.403627 -99.890182 
L 215.479282 -99.890182 
L 214.554938 -99.890182 
L 213.630594 -99.890182 
L 212.70625 -99.890182 
L 211.781905 -99.890182 
L 210.857561 -99.890182 
L 209.933217 -99.890182 
L 209.008873 -99.890182 
L 208.084529 -99.890182 
L 207.160184 -99.890182 
L 206.23584 -99.890182 
L 205.311496 -99.890182 
L 204.387152 -99.890182 
L 203.462808 -99.890182 
L 202.538463 -99.890182 
L 201.614119 -99.890182 
L 200.689775 -99.890182 
L 199.765431 -99.890182 
L 198.841086 -99.890182 
L 197.916742 -99.890182 
L 196.992398 -99.890182 
L 196.068054 -99.890182 
L 195.14371 -99.890182 
L 194.219365 -99.890182 
L 193.295021 -99.890182 
L 192.370677 -99.890182 
L 191.446333 -99.890182 
L 190.521989 -99.890182 
L 189.597644 -99.890182 
L 188.6733 -99.890182 
L 187.748956 -99.890182 
L 186.824612 -99.890182 
L 185.900267 -99.890182 
L 184.975923 -99.890182 
L 184.051579 -99.890182 
L 183.127235 -99.890182 
L 182.202891 -99.890182 
L 181.278546 -99.890182 
L 180.354202 -99.890182 
L 179.429858 -99.890182 
L 178.505514 -99.890182 
L 177.58117 -99.890182 
L 176.656825 -99.890182 
L 175.732481 -99.890182 
L 174.808137 -99.890182 
L 173.883793 -99.890182 
L 172.959448 -99.890182 
L 172.035104 -99.890182 
L 171.11076 -99.890182 
L 170.186416 -99.890182 
L 169.262072 -99.890182 
L 168.337727 -99.890182 
L 167.413383 -99.890182 
L 166.489039 -99.890182 
L 165.564695 -99.890182 
L 164.64035 -99.890182 
L 163.716006 -99.890182 
L 162.791662 -99.890182 
L 161.867318 -99.890182 
L 160.942974 -99.890182 
L 160.018629 -99.890182 
L 159.094285 -99.890182 
L 158.169941 -99.890182 
L 157.245597 -99.890182 
L 156.321253 -99.890182 
L 155.396908 -99.890182 
L 154.472564 -99.890182 
L 153.54822 -99.890182 
L 152.623876 -99.890182 
L 151.699531 -99.890182 
L 150.775187 -99.890182 
L 149.850843 -99.890182 
L 148.926499 -99.890182 
L 148.002155 -99.890182 
L 147.07781 -99.890182 
L 146.153466 -99.890182 
L 145.229122 -99.890182 
L 144.304778 -99.890182 
L 143.380434 -99.890182 
L 142.456089 -99.890182 
L 141.531745 -99.890182 
L 140.607401 -99.890182 
L 139.683057 -99.890182 
L 138.758712 -99.890182 
L 137.834368 -99.890182 
L 136.910024 -99.890182 
L 135.98568 -99.890182 
L 135.061336 -99.890182 
L 134.136991 -99.890182 
L 133.212647 -99.890182 
L 132.288303 -99.890182 
L 131.363959 -99.890182 
L 130.439615 -99.890182 
L 129.51527 -99.890182 
L 128.590926 -99.890182 
L 127.666582 -99.890182 
L 126.742238 -99.890182 
L 125.817893 -99.890182 
L 124.893549 -99.890182 
L 123.969205 -99.890182 
L 123.044861 -99.890182 
L 122.120517 -99.890182 
L 121.196172 -99.890182 
L 120.271828 -99.890182 
L 119.347484 -99.890182 
L 118.42314 -99.890182 
L 117.498796 -99.890182 
L 116.574451 -99.890182 
L 115.650107 -99.890182 
L 114.725763 -99.890182 
L 113.801419 -99.890182 
L 112.877074 -99.890182 
L 111.95273 -99.890182 
L 111.028386 -99.890182 
L 110.104042 -99.890182 
L 109.179698 -99.890182 
L 108.255353 -99.890182 
L 107.331009 -99.890182 
L 106.406665 -99.890182 
L 105.482321 -99.890182 
L 104.557977 -99.890182 
L 103.633632 -99.890182 
L 102.709288 -99.890182 
L 101.784944 -99.890182 
L 100.8606 -99.890182 
L 99.936255 -99.890182 
L 99.011911 -99.890182 
L 98.087567 -99.890182 
L 97.163223 -99.890182 
L 96.238879 -99.890182 
L 95.314534 -99.890182 
L 94.39019 -99.890182 
L 93.465846 -99.890182 
L 92.541502 -99.890182 
L 91.617158 -99.890182 
L 90.692813 -99.890182 
L 89.768469 -99.890182 
L 88.844125 -99.890182 
L 87.919781 -99.890182 
L 86.995436 -99.890182 
z
" style="stroke: #c49c94; stroke-opacity: 0.6; stroke-width: 0.3"/>
    </defs>
    <g clip-path="url(#p8426d20e84)">
     <use xlink:href="#mb9db77e8da" x="0" y="504" style="fill: #c49c94; fill-opacity: 0.6; stroke: #c49c94; stroke-opacity: 0.6; stroke-width: 0.3"/>
    </g>
   </g>
   <g id="line2d_7">
    <path d="M 86.995436 400.861393 
L 93.465846 400.761296 
L 104.557977 400.27643 
L 112.877074 399.741126 
L 118.42314 399.169517 
L 123.969205 398.326344 
L 130.439615 397.029579 
L 135.98568 395.645947 
L 140.607401 394.266778 
L 145.229122 392.630677 
L 149.850843 390.704417 
L 156.321253 387.650563 
L 162.791662 384.55357 
L 168.337727 382.135757 
L 179.429858 377.408737 
L 183.127235 375.408654 
L 185.900267 373.628804 
L 187.748956 372.311629 
L 190.521989 370.050161 
L 193.295021 367.516134 
L 196.992398 363.690395 
L 199.765431 360.551615 
L 202.538463 357.178622 
L 207.160184 351.1425 
L 210.857561 345.923316 
L 215.479282 338.908786 
L 218.252315 334.373807 
L 221.949692 327.876452 
L 224.722724 322.616518 
L 228.420101 315.055368 
L 232.117478 306.885482 
L 234.890511 300.372733 
L 238.587888 291.204471 
L 243.209609 279.126047 
L 247.83133 266.496823 
L 256.150428 242.957852 
L 264.469526 219.464473 
L 268.166903 209.534841 
L 271.864279 200.251466 
L 274.637312 193.900249 
L 277.410345 188.084539 
L 280.183377 182.971078 
L 282.032066 179.900092 
L 284.805098 175.803903 
L 287.578131 172.26226 
L 290.351164 169.108662 
L 303.291983 155.447374 
L 314.384113 142.660271 
L 317.157146 139.864832 
L 319.930179 137.403533 
L 321.778867 135.995276 
L 324.5519 134.136002 
L 326.400588 133.073609 
L 329.173621 131.803614 
L 331.022309 131.20287 
L 333.795342 130.53154 
L 336.568374 130.306182 
L 338.417063 130.4227 
L 340.265751 130.711595 
L 342.11444 131.213469 
L 343.963128 132.020781 
L 345.811817 133.10324 
L 347.660505 134.524082 
L 349.509193 136.210079 
L 351.357882 138.205295 
L 353.20657 140.52524 
L 355.055259 143.10443 
L 357.828291 147.453563 
L 361.525668 154.107514 
L 365.223045 161.414377 
L 374.466487 180.979106 
L 380.936897 194.566551 
L 387.407306 207.528412 
L 405.894191 243.659838 
L 420.683698 274.310908 
L 426.229763 284.935084 
L 437.321894 305.701766 
L 441.019271 313.131192 
L 446.565336 324.776065 
L 452.111401 336.374276 
L 454.884434 341.84803 
L 457.657467 346.910214 
L 460.430499 351.495671 
L 463.203532 355.594687 
L 465.05222 358.065849 
L 467.825253 361.357287 
L 470.598286 364.191829 
L 473.371318 366.714211 
L 477.068695 369.717144 
L 483.539105 374.492344 
L 491.858203 380.707842 
L 497.404268 384.874801 
L 501.101645 387.422548 
L 503.874677 389.135216 
L 506.64771 390.622967 
L 509.420743 391.877086 
L 512.193775 392.879601 
L 514.966808 393.711582 
L 519.588529 394.810748 
L 527.907627 396.735085 
L 537.151069 399.33094 
L 541.77279 400.570659 
L 545.470167 401.381215 
L 549.167544 401.991599 
L 552.864921 402.417403 
L 557.486642 402.688007 
L 559.33533 402.729389 
L 559.33533 402.729389 
" clip-path="url(#p8426d20e84)" style="fill: none; stroke: #c49c94; stroke-width: 2; stroke-linecap: round"/>
   </g>
   <g id="line2d_8">
    <path d="M 223.606626 398.359942 
L 452.290848 398.359942 
" clip-path="url(#p8426d20e84)" style="fill: none; stroke: #000000; stroke-width: 3.5"/>
   </g>
   <g id="patch_3">
    <path d="M 63.378442 417.8 
L 582.952325 417.8 
" style="fill: none; stroke: #333333; stroke-width: 1.5; stroke-linejoin: miter; stroke-linecap: square"/>
   </g>
   <g id="text_4">
    <text style="font-size: 52px; font-family: 'DejaVu Serif', 'Times New Roman', serif; text-anchor: end; fill: #262626" x="223.606626" y="383.985251" transform="rotate(-0 223.606626 383.985251)">-0.023 </text>
   </g>
   <g id="text_5">
    <text style="font-size: 52px; font-family: 'DejaVu Serif', 'Times New Roman', serif; text-anchor: start; fill: #262626" x="452.290848" y="383.985251" transform="rotate(-0 452.290848 383.985251)"> 0.031</text>
   </g>
   <g id="text_6">
    <text style="font-size: 52px; font-family: 'DejaVu Serif', 'Times New Roman', serif; text-anchor: middle; fill: #262626" x="337.948737" y="317.861673" transform="rotate(-0 337.948737 317.861673)">90%</text>
   </g>
   <g id="text_7">
    <!-- $\mu$=0.0024 -->
    <g style="fill: #262626" transform="translate(201.750766 174.114764)">
     <text>
      <tspan x="0" y="-0.40625" style="font-style: oblique; font-size: 52px; font-family: 'DejaVu Sans'; fill: #262626">μ</tspan>
      <tspan x="33.083984" y="-0.40625" style="font-size: 52px; font-family: 'DejaVu Serif'; fill: #262626">=</tspan>
      <tspan x="76.654297" y="-0.40625" style="font-size: 52px; font-family: 'DejaVu Serif'; fill: #262626">0</tspan>
      <tspan x="109.738281" y="-0.40625" style="font-size: 52px; font-family: 'DejaVu Serif'; fill: #262626">.</tspan>
      <tspan x="126.267578" y="-0.40625" style="font-size: 52px; font-family: 'DejaVu Serif'; fill: #262626">0</tspan>
      <tspan x="159.351562" y="-0.40625" style="font-size: 52px; font-family: 'DejaVu Serif'; fill: #262626">0</tspan>
      <tspan x="192.435547" y="-0.40625" style="font-size: 52px; font-family: 'DejaVu Serif'; fill: #262626">2</tspan>
      <tspan x="225.519531" y="-0.40625" style="font-size: 52px; font-family: 'DejaVu Serif'; fill: #262626">4</tspan>
     </text>
    </g>
   </g>
   <g id="text_8">
    <!-- $x_2^2x_3^2$ -->
    <g style="fill: #262626" transform="translate(238.805383 94.576)">
     <text>
      <tspan x="0" y="-0.421875" style="font-style: oblique; font-size: 76px; font-family: 'DejaVu Sans'; fill: #262626">x</tspan>
      <tspan x="84.296419" y="-0.421875" style="font-style: oblique; font-size: 76px; font-family: 'DejaVu Sans'; fill: #262626">x</tspan>
      <tspan x="44.976562" y="20.359375" style="font-size: 53.2px; font-family: 'DejaVu Sans'; fill: #262626">2</tspan>
      <tspan x="48.370833" y="-29.515625" style="font-size: 53.2px; font-family: 'DejaVu Sans'; fill: #262626">2</tspan>
      <tspan x="129.272982" y="20.359375" style="font-size: 53.2px; font-family: 'DejaVu Sans'; fill: #262626">3</tspan>
      <tspan x="132.667253" y="-29.515625" style="font-size: 53.2px; font-family: 'DejaVu Sans'; fill: #262626">2</tspan>
     </text>
    </g>
   </g>
  </g>
 </g>
 <defs>
  <clipPath id="p8426d20e84">
   <rect x="63.378442" y="116.616" width="519.573883" height="301.184"/>
  </clipPath>
 </defs>
</svg>
