<?xml version="1.0" encoding="utf-8" standalone="no"?>
<!DOCTYPE svg PUBLIC "-//W3C//DTD SVG 1.1//EN"
  "http://www.w3.org/Graphics/SVG/1.1/DTD/svg11.dtd">
<svg xmlns:xlink="http://www.w3.org/1999/xlink" width="648pt" height="504pt" viewBox="0 0 648 504" xmlns="http://www.w3.org/2000/svg" version="1.1">
 <metadata>
  <rdf:RDF xmlns:dc="http://purl.org/dc/elements/1.1/" xmlns:cc="http://creativecommons.org/ns#" xmlns:rdf="http://www.w3.org/1999/02/22-rdf-syntax-ns#">
   <cc:Work>
    <dc:type rdf:resource="http://purl.org/dc/dcmitype/StillImage"/>
    <dc:date>2026-02-22T16:15:34.387226</dc:date>
    <dc:format>image/svg+xml</dc:format>
    <dc:creator>
     <cc:Agent>
      <dc:title>Matplotlib v3.10.6, https://matplotlib.org/</dc:title>
     </cc:Agent>
    </dc:creator>
   </cc:Work>
  </rdf:RDF>
 </metadata>
 <defs>
  <style type="text/css">*{stroke-linejoin: round; stroke-linecap: butt}</style>
 </defs>
 <g id="figure_1">
  <g id="patch_1">
   <path d="M 0 504 
L 648 504 
L 648 0 
L 0 0 
L 0 504 
z
" style="fill: none; opacity: 0"/>
  </g>
  <g id="axes_1">
   <g id="patch_2">
    <path d="M 25.92 417.8 
L 620.896664 417.8 
L 620.896664 99.6 
L 25.92 99.6 
L 25.92 417.8 
z
" style="fill: none"/>
   </g>
   <g id="matplotlib.axis_1">
    <g id="xtick_1">
     <g id="line2d_1">
      <path d="M 148.140917 417.8 
L 148.140917 99.6 
" clip-path="url(#pe4db3cdfce)" style="fill: none; stroke: #ffffff; stroke-opacity: 0.4; stroke-linecap: round"/>
     </g>
     <g id="line2d_2">
      <defs>
       <path id="m31a7820c0c" d="M 0 0 
L 0 3 
" style="stroke: #808080"/>
      </defs>
      <g>
       <use xlink:href="#m31a7820c0c" x="148.140917" y="417.8" style="fill: #808080; stroke: #808080"/>
      </g>
     </g>
     <g id="text_1">
      <text style="font-size: 52px; font-family: 'DejaVu Serif', 'Times New Roman', serif; text-anchor: middle; fill: #262626" x="148.140917" y="467.311875" transform="rotate(-0 148.140917 467.311875)">0.925</text>
     </g>
    </g>
    <g id="xtick_2">
     <g id="line2d_3">
      <path d="M 334.726696 417.8 
L 334.726696 99.6 
" clip-path="url(#pe4db3cdfce)" style="fill: none; stroke: #ffffff; stroke-opacity: 0.4; stroke-linecap: round"/>
     </g>
     <g id="line2d_4">
      <g>
       <use xlink:href="#m31a7820c0c" x="334.726696" y="417.8" style="fill: #808080; stroke: #808080"/>
      </g>
     </g>
     <g id="text_2">
      <text style="font-size: 52px; font-family: 'DejaVu Serif', 'Times New Roman', serif; text-anchor: middle; fill: #262626" x="334.726696" y="467.311875" transform="rotate(-0 334.726696 467.311875)">0.950</text>
     </g>
    </g>
    <g id="xtick_3">
     <g id="line2d_5">
      <path d="M 521.312475 417.8 
L 521.312475 99.6 
" clip-path="url(#pe4db3cdfce)" style="fill: none; stroke: #ffffff; stroke-opacity: 0.4; stroke-linecap: round"/>
     </g>
     <g id="line2d_6">
      <g>
       <use xlink:href="#m31a7820c0c" x="521.312475" y="417.8" style="fill: #808080; stroke: #808080"/>
      </g>
     </g>
     <g id="text_3">
      <text style="font-size: 52px; font-family: 'DejaVu Serif', 'Times New Roman', serif; text-anchor: middle; fill: #262626" x="521.312475" y="467.311875" transform="rotate(-0 521.312475 467.311875)">0.975</text>
     </g>
    </g>
   </g>
   <g id="matplotlib.axis_2"/>
   <g id="FillBetweenPolyCollection_1">
    <defs>
     <path id="me20eb0e36c" d="M 52.964394 -100.663636 
L 52.964394 -101.831088 
L 54.022883 -101.826436 
L 55.081372 -101.820586 
L 56.139861 -101.807854 
L 57.19835 -101.791048 
L 58.256839 -101.770425 
L 59.315328 -101.746295 
L 60.373817 -101.719011 
L 61.432306 -101.688963 
L 62.490795 -101.656578 
L 63.549284 -101.622303 
L 64.607773 -101.586606 
L 65.666262 -101.549964 
L 66.724751 -101.512856 
L 67.78324 -101.475755 
L 68.841729 -101.43912 
L 69.900218 -101.403387 
L 70.958707 -101.368962 
L 72.017196 -101.339611 
L 73.075685 -101.309866 
L 74.134174 -101.282643 
L 75.192663 -101.258206 
L 76.251152 -101.236758 
L 77.309641 -101.215843 
L 78.36813 -101.20137 
L 79.426619 -101.18999 
L 80.485108 -101.181685 
L 81.543597 -101.17637 
L 82.602086 -101.173895 
L 83.660575 -101.174059 
L 84.719064 -101.176611 
L 85.777553 -101.18126 
L 86.836042 -101.187684 
L 87.894531 -101.195542 
L 88.95302 -101.20448 
L 90.011509 -101.214141 
L 91.069998 -101.221572 
L 92.128487 -101.233061 
L 93.186976 -101.244961 
L 94.245465 -101.256288 
L 95.303954 -101.273671 
L 96.362443 -101.285388 
L 97.420932 -101.296621 
L 98.479421 -101.307392 
L 99.53791 -101.317762 
L 100.596399 -101.327834 
L 101.654888 -101.337749 
L 102.713377 -101.347683 
L 103.771866 -101.35784 
L 104.830355 -101.368453 
L 105.888844 -101.377164 
L 106.947333 -101.39006 
L 108.005822 -101.404035 
L 109.064311 -101.419362 
L 110.1228 -101.436291 
L 111.181289 -101.455035 
L 112.239778 -101.475757 
L 113.298267 -101.498559 
L 114.356756 -101.52687 
L 115.415245 -101.554846 
L 116.473734 -101.584992 
L 117.532223 -101.617118 
L 118.590712 -101.650941 
L 119.649201 -101.686082 
L 120.70769 -101.728876 
L 121.766179 -101.770592 
L 122.824668 -101.813525 
L 123.883157 -101.857373 
L 124.941645 -101.898473 
L 126.000134 -101.949213 
L 127.058623 -101.991862 
L 128.117112 -102.037478 
L 129.175601 -102.080232 
L 130.23409 -102.12287 
L 131.292579 -102.169076 
L 132.351068 -102.214293 
L 133.409557 -102.261794 
L 134.468046 -102.321824 
L 135.526535 -102.38137 
L 136.585024 -102.447027 
L 137.643513 -102.516895 
L 138.702002 -102.598326 
L 139.760491 -102.686854 
L 140.81898 -102.789764 
L 141.877469 -102.902409 
L 142.935958 -103.035179 
L 143.994447 -103.180627 
L 145.052936 -103.342092 
L 146.111425 -103.520021 
L 147.169914 -103.711139 
L 148.228403 -103.921027 
L 149.286892 -104.140478 
L 150.345381 -104.383563 
L 151.40387 -104.640602 
L 152.462359 -104.906851 
L 153.520848 -105.186537 
L 154.579337 -105.468488 
L 155.637826 -105.765802 
L 156.696315 -106.058673 
L 157.754804 -106.355936 
L 158.813293 -106.652825 
L 159.871782 -106.957473 
L 160.930271 -107.247199 
L 161.98876 -107.537426 
L 163.047249 -107.821794 
L 164.105738 -108.102874 
L 165.164227 -108.370988 
L 166.222716 -108.634448 
L 167.281205 -108.89428 
L 168.339694 -109.138469 
L 169.398183 -109.376133 
L 170.456672 -109.614822 
L 171.515161 -109.849891 
L 172.57365 -110.087858 
L 173.632139 -110.32126 
L 174.690628 -110.562211 
L 175.749117 -110.810996 
L 176.807606 -111.063912 
L 177.866095 -111.335843 
L 178.924584 -111.618215 
L 179.983073 -111.929667 
L 181.041562 -112.23924 
L 182.100051 -112.573854 
L 183.15854 -112.927064 
L 184.217029 -113.316925 
L 185.275518 -113.718594 
L 186.334007 -114.156826 
L 187.392496 -114.619014 
L 188.450985 -115.11529 
L 189.509474 -115.637844 
L 190.567963 -116.192932 
L 191.626452 -116.795763 
L 192.684941 -117.430551 
L 193.74343 -118.099211 
L 194.801919 -118.818366 
L 195.860408 -119.571715 
L 196.918897 -120.364708 
L 197.977386 -121.18182 
L 199.035875 -122.042138 
L 200.094364 -122.961775 
L 201.152853 -123.918316 
L 202.211342 -124.912246 
L 203.269831 -125.916256 
L 204.32832 -126.957689 
L 205.386809 -128.043902 
L 206.445298 -129.135997 
L 207.503787 -130.258057 
L 208.562276 -131.38979 
L 209.620765 -132.539623 
L 210.679254 -133.697601 
L 211.737743 -134.864924 
L 212.796232 -136.022985 
L 213.854721 -137.204325 
L 214.91321 -138.348591 
L 215.971699 -139.498575 
L 217.030188 -140.653496 
L 218.088677 -141.799677 
L 219.147166 -142.933671 
L 220.205655 -144.089759 
L 221.264144 -145.210568 
L 222.322633 -146.345417 
L 223.381122 -147.487949 
L 224.439611 -148.648815 
L 225.4981 -149.835132 
L 226.556589 -151.041284 
L 227.615078 -152.242301 
L 228.673567 -153.483033 
L 229.732056 -154.759788 
L 230.790545 -156.077323 
L 231.849034 -157.446169 
L 232.907523 -158.873356 
L 233.966012 -160.331358 
L 235.024501 -161.849306 
L 236.08299 -163.446229 
L 237.141479 -165.085703 
L 238.199968 -166.780004 
L 239.258457 -168.536985 
L 240.316946 -170.356155 
L 241.375435 -172.23842 
L 242.433924 -174.189527 
L 243.492413 -176.203229 
L 244.550902 -178.287294 
L 245.609391 -180.441223 
L 246.66788 -182.67822 
L 247.726369 -184.940649 
L 248.784858 -187.274617 
L 249.843347 -189.646558 
L 250.901836 -192.118031 
L 251.960325 -194.629509 
L 253.018814 -197.199925 
L 254.077303 -199.824178 
L 255.135792 -202.48758 
L 256.194281 -205.222296 
L 257.25277 -207.96258 
L 258.311259 -210.754459 
L 259.369748 -213.59352 
L 260.428237 -216.443353 
L 261.486726 -219.333706 
L 262.545215 -222.266659 
L 263.603704 -225.208029 
L 264.662193 -228.171673 
L 265.720682 -231.127444 
L 266.779171 -234.095391 
L 267.83766 -237.08532 
L 268.896149 -240.069481 
L 269.954638 -243.033246 
L 271.013127 -245.984439 
L 272.071616 -248.924106 
L 273.130105 -251.867075 
L 274.188594 -254.772549 
L 275.247083 -257.635978 
L 276.305572 -260.512058 
L 277.364061 -263.31146 
L 278.42255 -266.099409 
L 279.481039 -268.832438 
L 280.539528 -271.527544 
L 281.598017 -274.22732 
L 282.656506 -276.818461 
L 283.714995 -279.405753 
L 284.773484 -281.917026 
L 285.831973 -284.383537 
L 286.890462 -286.800397 
L 287.948951 -289.178699 
L 289.00744 -291.497362 
L 290.065929 -293.772319 
L 291.124418 -295.994182 
L 292.182907 -298.199905 
L 293.241396 -300.34812 
L 294.299885 -302.445024 
L 295.358374 -304.545682 
L 296.416863 -306.616971 
L 297.475352 -308.626714 
L 298.533841 -310.67569 
L 299.59233 -312.690092 
L 300.650819 -314.676904 
L 301.709308 -316.694578 
L 302.767797 -318.683579 
L 303.826286 -320.696684 
L 304.884775 -322.730435 
L 305.943264 -324.765465 
L 307.001753 -326.799226 
L 308.060242 -328.85519 
L 309.118731 -330.90874 
L 310.17722 -333.004219 
L 311.235709 -335.144208 
L 312.294198 -337.265976 
L 313.352687 -339.403992 
L 314.411176 -341.577103 
L 315.469665 -343.798771 
L 316.528154 -346.022568 
L 317.586643 -348.261125 
L 318.645132 -350.518458 
L 319.703621 -352.762429 
L 320.76211 -355.022985 
L 321.820599 -357.291181 
L 322.879088 -359.533617 
L 323.937577 -361.765544 
L 324.996066 -363.981795 
L 326.054555 -366.118708 
L 327.113044 -368.246598 
L 328.171533 -370.300963 
L 329.230022 -372.29435 
L 330.288511 -374.208098 
L 331.347 -376.068355 
L 332.405489 -377.835127 
L 333.463978 -379.458866 
L 334.522467 -381.013255 
L 335.580956 -382.466372 
L 336.639445 -383.798827 
L 337.697934 -384.982769 
L 338.756423 -386.050621 
L 339.814912 -386.957557 
L 340.873401 -387.739225 
L 341.93189 -388.409212 
L 342.990379 -388.973272 
L 344.048868 -389.410676 
L 345.107356 -389.694558 
L 346.165845 -389.863616 
L 347.224334 -389.936364 
L 348.282823 -389.908077 
L 349.341312 -389.760607 
L 350.399801 -389.505702 
L 351.45829 -389.194029 
L 352.516779 -388.830494 
L 353.575268 -388.313609 
L 354.633757 -387.770759 
L 355.692246 -387.132205 
L 356.750735 -386.46048 
L 357.809224 -385.74736 
L 358.867713 -384.93972 
L 359.926202 -384.133212 
L 360.984691 -383.273373 
L 362.04318 -382.3685 
L 363.101669 -381.414963 
L 364.160158 -380.419999 
L 365.218647 -379.412477 
L 366.277136 -378.354471 
L 367.335625 -377.288885 
L 368.394114 -376.131067 
L 369.452603 -374.928688 
L 370.511092 -373.689695 
L 371.569581 -372.38885 
L 372.62807 -371.002388 
L 373.686559 -369.568034 
L 374.745048 -368.052446 
L 375.803537 -366.431954 
L 376.862026 -364.750773 
L 377.920515 -362.988099 
L 378.979004 -361.061404 
L 380.037493 -359.065998 
L 381.095982 -356.933034 
L 382.154471 -354.702246 
L 383.21296 -352.348226 
L 384.271449 -349.887286 
L 385.329938 -347.280783 
L 386.388427 -344.577472 
L 387.446916 -341.71221 
L 388.505405 -338.753752 
L 389.563894 -335.725727 
L 390.622383 -332.583022 
L 391.680872 -329.351464 
L 392.739361 -326.050672 
L 393.79785 -322.681044 
L 394.856339 -319.287852 
L 395.914828 -315.832706 
L 396.973317 -312.357924 
L 398.031806 -308.863759 
L 399.090295 -305.383368 
L 400.148784 -301.915092 
L 401.207273 -298.454923 
L 402.265762 -295.070332 
L 403.324251 -291.747747 
L 404.38274 -288.437082 
L 405.441229 -285.196835 
L 406.499718 -282.05139 
L 407.558207 -278.972477 
L 408.616696 -275.957774 
L 409.675185 -273.014726 
L 410.733674 -270.191146 
L 411.792163 -267.460661 
L 412.850652 -264.795317 
L 413.909141 -262.208702 
L 414.96763 -259.759029 
L 416.026119 -257.34948 
L 417.084608 -255.031188 
L 418.143097 -252.776413 
L 419.201586 -250.599322 
L 420.260075 -248.477595 
L 421.318564 -246.417695 
L 422.377053 -244.447351 
L 423.435542 -242.530995 
L 424.494031 -240.682734 
L 425.55252 -238.862015 
L 426.611009 -237.111406 
L 427.669498 -235.396027 
L 428.727987 -233.716251 
L 429.786476 -232.068995 
L 430.844965 -230.515862 
L 431.903454 -228.970935 
L 432.961943 -227.478242 
L 434.020432 -226.018233 
L 435.078921 -224.57266 
L 436.13741 -223.14276 
L 437.195899 -221.737325 
L 438.254388 -220.350909 
L 439.312877 -218.991786 
L 440.371366 -217.638207 
L 441.429855 -216.29578 
L 442.488344 -214.916972 
L 443.546833 -213.548306 
L 444.605322 -212.149933 
L 445.663811 -210.777028 
L 446.7223 -209.370592 
L 447.780789 -207.913759 
L 448.839278 -206.430767 
L 449.897767 -204.889709 
L 450.956256 -203.298307 
L 452.014745 -201.681792 
L 453.073234 -200.003436 
L 454.131723 -198.258846 
L 455.190212 -196.46244 
L 456.248701 -194.630272 
L 457.30719 -192.739065 
L 458.365679 -190.809692 
L 459.424168 -188.827127 
L 460.482657 -186.806639 
L 461.541146 -184.740824 
L 462.599635 -182.65016 
L 463.658124 -180.538848 
L 464.716613 -178.407789 
L 465.775102 -176.262676 
L 466.833591 -174.101346 
L 467.89208 -171.943425 
L 468.950569 -169.801749 
L 470.009058 -167.665134 
L 471.067547 -165.570264 
L 472.126036 -163.493387 
L 473.184525 -161.483848 
L 474.243014 -159.524905 
L 475.301503 -157.603376 
L 476.359992 -155.719359 
L 477.418481 -153.932089 
L 478.47697 -152.200411 
L 479.535459 -150.518362 
L 480.593948 -148.907263 
L 481.652437 -147.375042 
L 482.710926 -145.886571 
L 483.769415 -144.460937 
L 484.827904 -143.107235 
L 485.886393 -141.809002 
L 486.944882 -140.590312 
L 488.003371 -139.408645 
L 489.06186 -138.259327 
L 490.120349 -137.159196 
L 491.178838 -136.093048 
L 492.237327 -135.058048 
L 493.295816 -134.065126 
L 494.354305 -133.119618 
L 495.412794 -132.198505 
L 496.471283 -131.272763 
L 497.529772 -130.383292 
L 498.588261 -129.514442 
L 499.64675 -128.657694 
L 500.705239 -127.819952 
L 501.763728 -127.003565 
L 502.822217 -126.21505 
L 503.880706 -125.424829 
L 504.939195 -124.66647 
L 505.997684 -123.921521 
L 507.056173 -123.196837 
L 508.114662 -122.475089 
L 509.173151 -121.786775 
L 510.23164 -121.115286 
L 511.290129 -120.458801 
L 512.348618 -119.831366 
L 513.407107 -119.236398 
L 514.465596 -118.654737 
L 515.524085 -118.084472 
L 516.582574 -117.536874 
L 517.641063 -117.009801 
L 518.699552 -116.48044 
L 519.758041 -115.974575 
L 520.81653 -115.486936 
L 521.875019 -115.007391 
L 522.933508 -114.527206 
L 523.991997 -114.063595 
L 525.050486 -113.606109 
L 526.108975 -113.15707 
L 527.167464 -112.723395 
L 528.225953 -112.297313 
L 529.284442 -111.867698 
L 530.342931 -111.452196 
L 531.40142 -111.033132 
L 532.459909 -110.62319 
L 533.518398 -110.224393 
L 534.576887 -109.822799 
L 535.635376 -109.431373 
L 536.693865 -109.044558 
L 537.752354 -108.663459 
L 538.810843 -108.299473 
L 539.869332 -107.945761 
L 540.927821 -107.589355 
L 541.98631 -107.25429 
L 543.044799 -106.925084 
L 544.103288 -106.608126 
L 545.161777 -106.303059 
L 546.220266 -106.00434 
L 547.278755 -105.715481 
L 548.337244 -105.436478 
L 549.395733 -105.162012 
L 550.454222 -104.895743 
L 551.512711 -104.648175 
L 552.5712 -104.408969 
L 553.629689 -104.177942 
L 554.688178 -103.949679 
L 555.746667 -103.736433 
L 556.805156 -103.537328 
L 557.863645 -103.342536 
L 558.922134 -103.149659 
L 559.980623 -102.970586 
L 561.039112 -102.793644 
L 562.097601 -102.628242 
L 563.15609 -102.471251 
L 564.214579 -102.320376 
L 565.273067 -102.179175 
L 566.331556 -102.045247 
L 567.390045 -101.929846 
L 568.448534 -101.823362 
L 569.507023 -101.726281 
L 570.565512 -101.636371 
L 571.624001 -101.55711 
L 572.68249 -101.488483 
L 573.740979 -101.432969 
L 574.799468 -101.384503 
L 575.857957 -101.348695 
L 576.916446 -101.316608 
L 577.974935 -101.296818 
L 579.033424 -101.282601 
L 580.091913 -101.281567 
L 581.150402 -101.286211 
L 582.208891 -101.295712 
L 583.26738 -101.30916 
L 584.325869 -101.32558 
L 585.384358 -101.341355 
L 586.442847 -101.361292 
L 587.501336 -101.381018 
L 588.559825 -101.399594 
L 589.618314 -101.416143 
L 590.676803 -101.427271 
L 591.735292 -101.44152 
L 592.793781 -101.446563 
L 593.85227 -101.450478 
L 593.85227 -100.663636 
L 593.85227 -100.663636 
L 592.793781 -100.663636 
L 591.735292 -100.663636 
L 590.676803 -100.663636 
L 589.618314 -100.663636 
L 588.559825 -100.663636 
L 587.501336 -100.663636 
L 586.442847 -100.663636 
L 585.384358 -100.663636 
L 584.325869 -100.663636 
L 583.26738 -100.663636 
L 582.208891 -100.663636 
L 581.150402 -100.663636 
L 580.091913 -100.663636 
L 579.033424 -100.663636 
L 577.974935 -100.663636 
L 576.916446 -100.663636 
L 575.857957 -100.663636 
L 574.799468 -100.663636 
L 573.740979 -100.663636 
L 572.68249 -100.663636 
L 571.624001 -100.663636 
L 570.565512 -100.663636 
L 569.507023 -100.663636 
L 568.448534 -100.663636 
L 567.390045 -100.663636 
L 566.331556 -100.663636 
L 565.273067 -100.663636 
L 564.214579 -100.663636 
L 563.15609 -100.663636 
L 562.097601 -100.663636 
L 561.039112 -100.663636 
L 559.980623 -100.663636 
L 558.922134 -100.663636 
L 557.863645 -100.663636 
L 556.805156 -100.663636 
L 555.746667 -100.663636 
L 554.688178 -100.663636 
L 553.629689 -100.663636 
L 552.5712 -100.663636 
L 551.512711 -100.663636 
L 550.454222 -100.663636 
L 549.395733 -100.663636 
L 548.337244 -100.663636 
L 547.278755 -100.663636 
L 546.220266 -100.663636 
L 545.161777 -100.663636 
L 544.103288 -100.663636 
L 543.044799 -100.663636 
L 541.98631 -100.663636 
L 540.927821 -100.663636 
L 539.869332 -100.663636 
L 538.810843 -100.663636 
L 537.752354 -100.663636 
L 536.693865 -100.663636 
L 535.635376 -100.663636 
L 534.576887 -100.663636 
L 533.518398 -100.663636 
L 532.459909 -100.663636 
L 531.40142 -100.663636 
L 530.342931 -100.663636 
L 529.284442 -100.663636 
L 528.225953 -100.663636 
L 527.167464 -100.663636 
L 526.108975 -100.663636 
L 525.050486 -100.663636 
L 523.991997 -100.663636 
L 522.933508 -100.663636 
L 521.875019 -100.663636 
L 520.81653 -100.663636 
L 519.758041 -100.663636 
L 518.699552 -100.663636 
L 517.641063 -100.663636 
L 516.582574 -100.663636 
L 515.524085 -100.663636 
L 514.465596 -100.663636 
L 513.407107 -100.663636 
L 512.348618 -100.663636 
L 511.290129 -100.663636 
L 510.23164 -100.663636 
L 509.173151 -100.663636 
L 508.114662 -100.663636 
L 507.056173 -100.663636 
L 505.997684 -100.663636 
L 504.939195 -100.663636 
L 503.880706 -100.663636 
L 502.822217 -100.663636 
L 501.763728 -100.663636 
L 500.705239 -100.663636 
L 499.64675 -100.663636 
L 498.588261 -100.663636 
L 497.529772 -100.663636 
L 496.471283 -100.663636 
L 495.412794 -100.663636 
L 494.354305 -100.663636 
L 493.295816 -100.663636 
L 492.237327 -100.663636 
L 491.178838 -100.663636 
L 490.120349 -100.663636 
L 489.06186 -100.663636 
L 488.003371 -100.663636 
L 486.944882 -100.663636 
L 485.886393 -100.663636 
L 484.827904 -100.663636 
L 483.769415 -100.663636 
L 482.710926 -100.663636 
L 481.652437 -100.663636 
L 480.593948 -100.663636 
L 479.535459 -100.663636 
L 478.47697 -100.663636 
L 477.418481 -100.663636 
L 476.359992 -100.663636 
L 475.301503 -100.663636 
L 474.243014 -100.663636 
L 473.184525 -100.663636 
L 472.126036 -100.663636 
L 471.067547 -100.663636 
L 470.009058 -100.663636 
L 468.950569 -100.663636 
L 467.89208 -100.663636 
L 466.833591 -100.663636 
L 465.775102 -100.663636 
L 464.716613 -100.663636 
L 463.658124 -100.663636 
L 462.599635 -100.663636 
L 461.541146 -100.663636 
L 460.482657 -100.663636 
L 459.424168 -100.663636 
L 458.365679 -100.663636 
L 457.30719 -100.663636 
L 456.248701 -100.663636 
L 455.190212 -100.663636 
L 454.131723 -100.663636 
L 453.073234 -100.663636 
L 452.014745 -100.663636 
L 450.956256 -100.663636 
L 449.897767 -100.663636 
L 448.839278 -100.663636 
L 447.780789 -100.663636 
L 446.7223 -100.663636 
L 445.663811 -100.663636 
L 444.605322 -100.663636 
L 443.546833 -100.663636 
L 442.488344 -100.663636 
L 441.429855 -100.663636 
L 440.371366 -100.663636 
L 439.312877 -100.663636 
L 438.254388 -100.663636 
L 437.195899 -100.663636 
L 436.13741 -100.663636 
L 435.078921 -100.663636 
L 434.020432 -100.663636 
L 432.961943 -100.663636 
L 431.903454 -100.663636 
L 430.844965 -100.663636 
L 429.786476 -100.663636 
L 428.727987 -100.663636 
L 427.669498 -100.663636 
L 426.611009 -100.663636 
L 425.55252 -100.663636 
L 424.494031 -100.663636 
L 423.435542 -100.663636 
L 422.377053 -100.663636 
L 421.318564 -100.663636 
L 420.260075 -100.663636 
L 419.201586 -100.663636 
L 418.143097 -100.663636 
L 417.084608 -100.663636 
L 416.026119 -100.663636 
L 414.96763 -100.663636 
L 413.909141 -100.663636 
L 412.850652 -100.663636 
L 411.792163 -100.663636 
L 410.733674 -100.663636 
L 409.675185 -100.663636 
L 408.616696 -100.663636 
L 407.558207 -100.663636 
L 406.499718 -100.663636 
L 405.441229 -100.663636 
L 404.38274 -100.663636 
L 403.324251 -100.663636 
L 402.265762 -100.663636 
L 401.207273 -100.663636 
L 400.148784 -100.663636 
L 399.090295 -100.663636 
L 398.031806 -100.663636 
L 396.973317 -100.663636 
L 395.914828 -100.663636 
L 394.856339 -100.663636 
L 393.79785 -100.663636 
L 392.739361 -100.663636 
L 391.680872 -100.663636 
L 390.622383 -100.663636 
L 389.563894 -100.663636 
L 388.505405 -100.663636 
L 387.446916 -100.663636 
L 386.388427 -100.663636 
L 385.329938 -100.663636 
L 384.271449 -100.663636 
L 383.21296 -100.663636 
L 382.154471 -100.663636 
L 381.095982 -100.663636 
L 380.037493 -100.663636 
L 378.979004 -100.663636 
L 377.920515 -100.663636 
L 376.862026 -100.663636 
L 375.803537 -100.663636 
L 374.745048 -100.663636 
L 373.686559 -100.663636 
L 372.62807 -100.663636 
L 371.569581 -100.663636 
L 370.511092 -100.663636 
L 369.452603 -100.663636 
L 368.394114 -100.663636 
L 367.335625 -100.663636 
L 366.277136 -100.663636 
L 365.218647 -100.663636 
L 364.160158 -100.663636 
L 363.101669 -100.663636 
L 362.04318 -100.663636 
L 360.984691 -100.663636 
L 359.926202 -100.663636 
L 358.867713 -100.663636 
L 357.809224 -100.663636 
L 356.750735 -100.663636 
L 355.692246 -100.663636 
L 354.633757 -100.663636 
L 353.575268 -100.663636 
L 352.516779 -100.663636 
L 351.45829 -100.663636 
L 350.399801 -100.663636 
L 349.341312 -100.663636 
L 348.282823 -100.663636 
L 347.224334 -100.663636 
L 346.165845 -100.663636 
L 345.107356 -100.663636 
L 344.048868 -100.663636 
L 342.990379 -100.663636 
L 341.93189 -100.663636 
L 340.873401 -100.663636 
L 339.814912 -100.663636 
L 338.756423 -100.663636 
L 337.697934 -100.663636 
L 336.639445 -100.663636 
L 335.580956 -100.663636 
L 334.522467 -100.663636 
L 333.463978 -100.663636 
L 332.405489 -100.663636 
L 331.347 -100.663636 
L 330.288511 -100.663636 
L 329.230022 -100.663636 
L 328.171533 -100.663636 
L 327.113044 -100.663636 
L 326.054555 -100.663636 
L 324.996066 -100.663636 
L 323.937577 -100.663636 
L 322.879088 -100.663636 
L 321.820599 -100.663636 
L 320.76211 -100.663636 
L 319.703621 -100.663636 
L 318.645132 -100.663636 
L 317.586643 -100.663636 
L 316.528154 -100.663636 
L 315.469665 -100.663636 
L 314.411176 -100.663636 
L 313.352687 -100.663636 
L 312.294198 -100.663636 
L 311.235709 -100.663636 
L 310.17722 -100.663636 
L 309.118731 -100.663636 
L 308.060242 -100.663636 
L 307.001753 -100.663636 
L 305.943264 -100.663636 
L 304.884775 -100.663636 
L 303.826286 -100.663636 
L 302.767797 -100.663636 
L 301.709308 -100.663636 
L 300.650819 -100.663636 
L 299.59233 -100.663636 
L 298.533841 -100.663636 
L 297.475352 -100.663636 
L 296.416863 -100.663636 
L 295.358374 -100.663636 
L 294.299885 -100.663636 
L 293.241396 -100.663636 
L 292.182907 -100.663636 
L 291.124418 -100.663636 
L 290.065929 -100.663636 
L 289.00744 -100.663636 
L 287.948951 -100.663636 
L 286.890462 -100.663636 
L 285.831973 -100.663636 
L 284.773484 -100.663636 
L 283.714995 -100.663636 
L 282.656506 -100.663636 
L 281.598017 -100.663636 
L 280.539528 -100.663636 
L 279.481039 -100.663636 
L 278.42255 -100.663636 
L 277.364061 -100.663636 
L 276.305572 -100.663636 
L 275.247083 -100.663636 
L 274.188594 -100.663636 
L 273.130105 -100.663636 
L 272.071616 -100.663636 
L 271.013127 -100.663636 
L 269.954638 -100.663636 
L 268.896149 -100.663636 
L 267.83766 -100.663636 
L 266.779171 -100.663636 
L 265.720682 -100.663636 
L 264.662193 -100.663636 
L 263.603704 -100.663636 
L 262.545215 -100.663636 
L 261.486726 -100.663636 
L 260.428237 -100.663636 
L 259.369748 -100.663636 
L 258.311259 -100.663636 
L 257.25277 -100.663636 
L 256.194281 -100.663636 
L 255.135792 -100.663636 
L 254.077303 -100.663636 
L 253.018814 -100.663636 
L 251.960325 -100.663636 
L 250.901836 -100.663636 
L 249.843347 -100.663636 
L 248.784858 -100.663636 
L 247.726369 -100.663636 
L 246.66788 -100.663636 
L 245.609391 -100.663636 
L 244.550902 -100.663636 
L 243.492413 -100.663636 
L 242.433924 -100.663636 
L 241.375435 -100.663636 
L 240.316946 -100.663636 
L 239.258457 -100.663636 
L 238.199968 -100.663636 
L 237.141479 -100.663636 
L 236.08299 -100.663636 
L 235.024501 -100.663636 
L 233.966012 -100.663636 
L 232.907523 -100.663636 
L 231.849034 -100.663636 
L 230.790545 -100.663636 
L 229.732056 -100.663636 
L 228.673567 -100.663636 
L 227.615078 -100.663636 
L 226.556589 -100.663636 
L 225.4981 -100.663636 
L 224.439611 -100.663636 
L 223.381122 -100.663636 
L 222.322633 -100.663636 
L 221.264144 -100.663636 
L 220.205655 -100.663636 
L 219.147166 -100.663636 
L 218.088677 -100.663636 
L 217.030188 -100.663636 
L 215.971699 -100.663636 
L 214.91321 -100.663636 
L 213.854721 -100.663636 
L 212.796232 -100.663636 
L 211.737743 -100.663636 
L 210.679254 -100.663636 
L 209.620765 -100.663636 
L 208.562276 -100.663636 
L 207.503787 -100.663636 
L 206.445298 -100.663636 
L 205.386809 -100.663636 
L 204.32832 -100.663636 
L 203.269831 -100.663636 
L 202.211342 -100.663636 
L 201.152853 -100.663636 
L 200.094364 -100.663636 
L 199.035875 -100.663636 
L 197.977386 -100.663636 
L 196.918897 -100.663636 
L 195.860408 -100.663636 
L 194.801919 -100.663636 
L 193.74343 -100.663636 
L 192.684941 -100.663636 
L 191.626452 -100.663636 
L 190.567963 -100.663636 
L 189.509474 -100.663636 
L 188.450985 -100.663636 
L 187.392496 -100.663636 
L 186.334007 -100.663636 
L 185.275518 -100.663636 
L 184.217029 -100.663636 
L 183.15854 -100.663636 
L 182.100051 -100.663636 
L 181.041562 -100.663636 
L 179.983073 -100.663636 
L 178.924584 -100.663636 
L 177.866095 -100.663636 
L 176.807606 -100.663636 
L 175.749117 -100.663636 
L 174.690628 -100.663636 
L 173.632139 -100.663636 
L 172.57365 -100.663636 
L 171.515161 -100.663636 
L 170.456672 -100.663636 
L 169.398183 -100.663636 
L 168.339694 -100.663636 
L 167.281205 -100.663636 
L 166.222716 -100.663636 
L 165.164227 -100.663636 
L 164.105738 -100.663636 
L 163.047249 -100.663636 
L 161.98876 -100.663636 
L 160.930271 -100.663636 
L 159.871782 -100.663636 
L 158.813293 -100.663636 
L 157.754804 -100.663636 
L 156.696315 -100.663636 
L 155.637826 -100.663636 
L 154.579337 -100.663636 
L 153.520848 -100.663636 
L 152.462359 -100.663636 
L 151.40387 -100.663636 
L 150.345381 -100.663636 
L 149.286892 -100.663636 
L 148.228403 -100.663636 
L 147.169914 -100.663636 
L 146.111425 -100.663636 
L 145.052936 -100.663636 
L 143.994447 -100.663636 
L 142.935958 -100.663636 
L 141.877469 -100.663636 
L 140.81898 -100.663636 
L 139.760491 -100.663636 
L 138.702002 -100.663636 
L 137.643513 -100.663636 
L 136.585024 -100.663636 
L 135.526535 -100.663636 
L 134.468046 -100.663636 
L 133.409557 -100.663636 
L 132.351068 -100.663636 
L 131.292579 -100.663636 
L 130.23409 -100.663636 
L 129.175601 -100.663636 
L 128.117112 -100.663636 
L 127.058623 -100.663636 
L 126.000134 -100.663636 
L 124.941645 -100.663636 
L 123.883157 -100.663636 
L 122.824668 -100.663636 
L 121.766179 -100.663636 
L 120.70769 -100.663636 
L 119.649201 -100.663636 
L 118.590712 -100.663636 
L 117.532223 -100.663636 
L 116.473734 -100.663636 
L 115.415245 -100.663636 
L 114.356756 -100.663636 
L 113.298267 -100.663636 
L 112.239778 -100.663636 
L 111.181289 -100.663636 
L 110.1228 -100.663636 
L 109.064311 -100.663636 
L 108.005822 -100.663636 
L 106.947333 -100.663636 
L 105.888844 -100.663636 
L 104.830355 -100.663636 
L 103.771866 -100.663636 
L 102.713377 -100.663636 
L 101.654888 -100.663636 
L 100.596399 -100.663636 
L 99.53791 -100.663636 
L 98.479421 -100.663636 
L 97.420932 -100.663636 
L 96.362443 -100.663636 
L 95.303954 -100.663636 
L 94.245465 -100.663636 
L 93.186976 -100.663636 
L 92.128487 -100.663636 
L 91.069998 -100.663636 
L 90.011509 -100.663636 
L 88.95302 -100.663636 
L 87.894531 -100.663636 
L 86.836042 -100.663636 
L 85.777553 -100.663636 
L 84.719064 -100.663636 
L 83.660575 -100.663636 
L 82.602086 -100.663636 
L 81.543597 -100.663636 
L 80.485108 -100.663636 
L 79.426619 -100.663636 
L 78.36813 -100.663636 
L 77.309641 -100.663636 
L 76.251152 -100.663636 
L 75.192663 -100.663636 
L 74.134174 -100.663636 
L 73.075685 -100.663636 
L 72.017196 -100.663636 
L 70.958707 -100.663636 
L 69.900218 -100.663636 
L 68.841729 -100.663636 
L 67.78324 -100.663636 
L 66.724751 -100.663636 
L 65.666262 -100.663636 
L 64.607773 -100.663636 
L 63.549284 -100.663636 
L 62.490795 -100.663636 
L 61.432306 -100.663636 
L 60.373817 -100.663636 
L 59.315328 -100.663636 
L 58.256839 -100.663636 
L 57.19835 -100.663636 
L 56.139861 -100.663636 
L 55.081372 -100.663636 
L 54.022883 -100.663636 
L 52.964394 -100.663636 
z
" style="stroke: #1f77b4; stroke-opacity: 0.6; stroke-width: 0.3"/>
    </defs>
    <g clip-path="url(#pe4db3cdfce)">
     <use xlink:href="#me20eb0e36c" x="0" y="504" style="fill: #1f77b4; fill-opacity: 0.6; stroke: #1f77b4; stroke-opacity: 0.6; stroke-width: 0.3"/>
    </g>
   </g>
   <g id="line2d_7">
    <path d="M 52.964394 402.168912 
L 61.432306 402.311037 
L 81.543597 402.82363 
L 94.245465 402.743712 
L 122.824668 402.186475 
L 137.643513 401.483105 
L 142.935958 400.964821 
L 147.169914 400.288861 
L 151.40387 399.359398 
L 156.696315 397.941327 
L 166.222716 395.365552 
L 172.57365 393.912142 
L 177.866095 392.664157 
L 182.100051 391.426146 
L 185.275518 390.281406 
L 188.450985 388.88471 
L 191.626452 387.204237 
L 194.801919 385.181634 
L 197.977386 382.81818 
L 200.094364 381.038225 
L 203.269831 378.083744 
L 206.445298 374.864003 
L 212.796232 367.977015 
L 218.088677 362.200323 
L 225.4981 354.164868 
L 229.732056 349.240212 
L 232.907523 345.126644 
L 235.024501 342.150694 
L 238.199968 337.219996 
L 241.375435 331.76158 
L 244.550902 325.712706 
L 247.726369 319.059351 
L 250.901836 311.881969 
L 254.077303 304.175822 
L 258.311259 293.245541 
L 263.603704 278.791971 
L 276.305572 243.487942 
L 281.598017 229.77268 
L 285.831973 219.616463 
L 289.00744 212.502638 
L 293.241396 203.65188 
L 299.59233 191.309908 
L 307.001753 177.200774 
L 312.294198 166.734024 
L 316.528154 157.977432 
L 327.113044 135.753402 
L 330.288511 129.791902 
L 332.405489 126.164873 
L 334.522467 122.986745 
L 336.639445 120.201173 
L 338.756423 117.949379 
L 340.873401 116.260775 
L 342.990379 115.026728 
L 344.048868 114.589324 
L 346.165845 114.136384 
L 348.282823 114.091923 
L 350.399801 114.494298 
L 352.516779 115.169506 
L 354.633757 116.229241 
L 357.809224 118.25264 
L 360.984691 120.726627 
L 364.160158 123.580001 
L 367.335625 126.711115 
L 370.511092 130.310305 
L 372.62807 132.997612 
L 374.745048 135.947554 
L 377.920515 141.011901 
L 380.037493 144.934002 
L 382.154471 149.297754 
L 384.271449 154.112714 
L 386.388427 159.422528 
L 389.563894 168.274273 
L 392.739361 177.949328 
L 398.031806 195.136241 
L 403.324251 212.252253 
L 406.499718 221.94861 
L 409.675185 230.985274 
L 412.850652 239.204683 
L 414.96763 244.240971 
L 418.143097 251.223587 
L 421.318564 257.582305 
L 424.494031 263.317266 
L 427.669498 268.603973 
L 430.844965 273.484138 
L 434.020432 277.981767 
L 438.254388 283.649091 
L 446.7223 294.629408 
L 449.897767 299.110291 
L 453.073234 303.996564 
L 456.248701 309.369728 
L 459.424168 315.172873 
L 463.658124 323.461152 
L 473.184525 342.516152 
L 476.359992 348.280641 
L 479.535459 353.481638 
L 482.710926 358.113429 
L 484.827904 360.892765 
L 486.944882 363.409688 
L 490.120349 366.840804 
L 493.295816 369.934874 
L 497.529772 373.616708 
L 501.763728 376.996435 
L 507.056173 380.803163 
L 510.23164 382.884714 
L 513.407107 384.763602 
L 517.641063 386.990199 
L 521.875019 388.992609 
L 527.167464 391.276605 
L 535.635376 394.568627 
L 540.927821 396.410645 
L 546.220266 397.99566 
L 551.512711 399.351825 
L 556.805156 400.462672 
L 563.15609 401.528749 
L 568.448534 402.176638 
L 573.740979 402.567031 
L 579.033424 402.717399 
L 587.501336 402.618982 
L 593.85227 402.549522 
L 593.85227 402.549522 
" clip-path="url(#pe4db3cdfce)" style="fill: none; stroke: #1f77b4; stroke-width: 2; stroke-linecap: round"/>
   </g>
   <g id="line2d_8">
    <path d="M 244.510665 397.261636 
L 465.521904 397.261636 
" clip-path="url(#pe4db3cdfce)" style="fill: none; stroke: #000000; stroke-width: 3.5"/>
   </g>
   <g id="patch_3">
    <path d="M 25.92 417.8 
L 620.896664 417.8 
" style="fill: none; stroke: #333333; stroke-width: 1.5; stroke-linejoin: miter; stroke-linecap: square"/>
   </g>
   <g id="text_4">
    <text style="font-size: 52px; font-family: 'DejaVu Serif', 'Times New Roman', serif; text-anchor: end; fill: #262626" x="244.510665" y="382.074818" transform="rotate(-0 244.510665 382.074818)">0.94 </text>
   </g>
   <g id="text_5">
    <text style="font-size: 52px; font-family: 'DejaVu Serif', 'Times New Roman', serif; text-anchor: start; fill: #262626" x="465.521904" y="382.074818" transform="rotate(-0 465.521904 382.074818)"> 0.97</text>
   </g>
   <g id="text_6">
    <text style="font-size: 52px; font-family: 'DejaVu Serif', 'Times New Roman', serif; text-anchor: middle; fill: #262626" x="355.016284" y="312.215455" transform="rotate(-0 355.016284 312.215455)">90%</text>
   </g>
   <g id="text_7">
    <!-- $\mu$=0.95 -->
    <g style="fill: #262626" transform="translate(254.459052 160.347273)">
     <text>
      <tspan x="0" y="-0.40625" style="font-style: oblique; font-size: 52px; font-family: 'DejaVu Sans'; fill: #262626">μ</tspan>
      <tspan x="33.083984" y="-0.40625" style="font-size: 52px; font-family: 'DejaVu Serif'; fill: #262626">=</tspan>
      <tspan x="76.654297" y="-0.40625" style="font-size: 52px; font-family: 'DejaVu Serif'; fill: #262626">0</tspan>
      <tspan x="109.738281" y="-0.40625" style="font-size: 52px; font-family: 'DejaVu Serif'; fill: #262626">.</tspan>
      <tspan x="126.267578" y="-0.40625" style="font-size: 52px; font-family: 'DejaVu Serif'; fill: #262626">9</tspan>
      <tspan x="159.351562" y="-0.40625" style="font-size: 52px; font-family: 'DejaVu Serif'; fill: #262626">5</tspan>
     </text>
    </g>
   </g>
   <g id="text_8">
    <!-- $x_3$ -->
    <g style="fill: #262626" transform="translate(282.748332 83.794375)">
     <text>
      <tspan x="0" y="-0.4375" style="font-style: oblique; font-size: 76px; font-family: 'DejaVu Sans'; fill: #262626">x</tspan>
      <tspan x="44.976562" y="12.03125" style="font-size: 53.2px; font-family: 'DejaVu Sans'; fill: #262626">3</tspan>
     </text>
    </g>
   </g>
  </g>
 </g>
 <defs>
  <clipPath id="pe4db3cdfce">
   <rect x="25.92" y="99.6" width="594.976664" height="318.2"/>
  </clipPath>
 </defs>
</svg>
