<?xml version="1.0" encoding="utf-8" standalone="no"?>
<!DOCTYPE svg PUBLIC "-//W3C//DTD SVG 1.1//EN"
  "http://www.w3.org/Graphics/SVG/1.1/DTD/svg11.dtd">
<svg xmlns:xlink="http://www.w3.org/1999/xlink" width="648pt" height="504pt" viewBox="0 0 648 504" xmlns="http://www.w3.org/2000/svg" version="1.1">
 <metadata>
  <rdf:RDF xmlns:dc="http://purl.org/dc/elements/1.1/" xmlns:cc="http://creativecommons.org/ns#" xmlns:rdf="http://www.w3.org/1999/02/22-rdf-syntax-ns#">
   <cc:Work>
    <dc:type rdf:resource="http://purl.org/dc/dcmitype/StillImage"/>
    <dc:date>2026-02-22T16:15:36.221017</dc:date>
    <dc:format>image/svg+xml</dc:format>
    <dc:creator>
     <cc:Agent>
      <dc:title>Matplotlib v3.10.6, https://matplotlib.org/</dc:title>
     </cc:Agent>
    </dc:creator>
   </cc:Work>
  </rdf:RDF>
 </metadata>
 <defs>
  <style type="text/css">*{stroke-linejoin: round; stroke-linecap: butt}</style>
 </defs>
 <g id="figure_1">
  <g id="patch_1">
   <path d="M 0 504 
L 648 504 
L 648 0 
L 0 0 
L 0 504 
z
" style="fill: none; opacity: 0"/>
  </g>
  <g id="axes_1">
   <g id="patch_2">
    <path d="M 59.86961 417.8 
L 559.880324 417.8 
L 559.880324 116.616 
L 59.86961 116.616 
L 59.86961 417.8 
z
" style="fill: none"/>
   </g>
   <g id="matplotlib.axis_1">
    <g id="xtick_1">
     <g id="line2d_1">
      <path d="M 163.892106 417.8 
L 163.892106 116.616 
" clip-path="url(#pf66a823b5b)" style="fill: none; stroke: #ffffff; stroke-opacity: 0.4; stroke-linecap: round"/>
     </g>
     <g id="line2d_2">
      <defs>
       <path id="m479796d9e8" d="M 0 0 
L 0 3 
" style="stroke: #808080"/>
      </defs>
      <g>
       <use xlink:href="#m479796d9e8" x="163.892106" y="417.8" style="fill: #808080; stroke: #808080"/>
      </g>
     </g>
     <g id="text_1">
      <text style="font-size: 52px; font-family: 'DejaVu Serif', 'Times New Roman', serif; text-anchor: middle; fill: #262626" x="163.892106" y="467.311875" transform="rotate(-0 163.892106 467.311875)">−0.34</text>
     </g>
    </g>
    <g id="xtick_2">
     <g id="line2d_3">
      <path d="M 353.180421 417.8 
L 353.180421 116.616 
" clip-path="url(#pf66a823b5b)" style="fill: none; stroke: #ffffff; stroke-opacity: 0.4; stroke-linecap: round"/>
     </g>
     <g id="line2d_4">
      <g>
       <use xlink:href="#m479796d9e8" x="353.180421" y="417.8" style="fill: #808080; stroke: #808080"/>
      </g>
     </g>
     <g id="text_2">
      <text style="font-size: 52px; font-family: 'DejaVu Serif', 'Times New Roman', serif; text-anchor: middle; fill: #262626" x="353.180421" y="467.311875" transform="rotate(-0 353.180421 467.311875)">−0.33</text>
     </g>
    </g>
    <g id="xtick_3">
     <g id="line2d_5">
      <path d="M 542.468736 417.8 
L 542.468736 116.616 
" clip-path="url(#pf66a823b5b)" style="fill: none; stroke: #ffffff; stroke-opacity: 0.4; stroke-linecap: round"/>
     </g>
     <g id="line2d_6">
      <g>
       <use xlink:href="#m479796d9e8" x="542.468736" y="417.8" style="fill: #808080; stroke: #808080"/>
      </g>
     </g>
     <g id="text_3">
      <text style="font-size: 52px; font-family: 'DejaVu Serif', 'Times New Roman', serif; text-anchor: middle; fill: #262626" x="542.468736" y="467.311875" transform="rotate(-0 542.468736 467.311875)">−0.32</text>
     </g>
    </g>
   </g>
   <g id="matplotlib.axis_2"/>
   <g id="FillBetweenPolyCollection_1">
    <defs>
     <path id="mbfc737e168" d="M 82.597369 -99.890182 
L 82.597369 -102.136016 
L 83.48691 -102.139674 
L 84.37645 -102.137787 
L 85.265991 -102.14083 
L 86.155531 -102.148141 
L 87.045072 -102.154532 
L 87.934612 -102.168374 
L 88.824153 -102.184673 
L 89.713693 -102.196118 
L 90.603234 -102.215726 
L 91.492774 -102.243792 
L 92.382315 -102.273228 
L 93.271855 -102.318853 
L 94.161396 -102.363428 
L 95.050936 -102.40878 
L 95.940477 -102.460125 
L 96.830017 -102.520974 
L 97.719558 -102.595629 
L 98.609098 -102.67137 
L 99.498639 -102.759417 
L 100.388179 -102.855101 
L 101.27772 -102.963619 
L 102.16726 -103.077879 
L 103.056801 -103.211807 
L 103.946341 -103.355333 
L 104.835882 -103.517192 
L 105.725422 -103.699305 
L 106.614963 -103.880538 
L 107.504503 -104.077933 
L 108.394044 -104.297492 
L 109.283584 -104.526519 
L 110.173125 -104.772657 
L 111.062665 -105.034209 
L 111.952206 -105.311101 
L 112.841746 -105.605539 
L 113.731287 -105.924102 
L 114.620827 -106.251112 
L 115.510368 -106.590522 
L 116.399908 -106.941414 
L 117.289449 -107.311656 
L 118.178989 -107.690987 
L 119.06853 -108.084223 
L 119.95807 -108.496171 
L 120.847611 -108.912242 
L 121.737151 -109.347734 
L 122.626692 -109.804268 
L 123.516232 -110.271951 
L 124.405773 -110.747204 
L 125.295313 -111.231556 
L 126.184854 -111.730706 
L 127.074394 -112.242189 
L 127.963935 -112.771264 
L 128.853475 -113.328469 
L 129.743016 -113.888174 
L 130.632556 -114.454257 
L 131.522097 -115.03686 
L 132.411637 -115.642235 
L 133.301178 -116.258058 
L 134.190718 -116.892448 
L 135.080259 -117.532293 
L 135.969799 -118.207907 
L 136.85934 -118.88219 
L 137.74888 -119.581083 
L 138.638421 -120.294772 
L 139.527961 -121.021933 
L 140.417502 -121.773581 
L 141.307042 -122.554628 
L 142.196583 -123.353157 
L 143.086123 -124.162812 
L 143.975664 -125.011391 
L 144.865204 -125.883249 
L 145.754745 -126.752258 
L 146.644285 -127.648045 
L 147.533826 -128.546757 
L 148.423366 -129.482335 
L 149.312907 -130.430857 
L 150.202447 -131.391073 
L 151.091988 -132.384633 
L 151.981528 -133.385233 
L 152.871069 -134.420659 
L 153.760609 -135.461207 
L 154.65015 -136.514259 
L 155.53969 -137.584247 
L 156.429231 -138.667339 
L 157.318771 -139.774605 
L 158.208312 -140.887316 
L 159.097852 -142.009375 
L 159.987393 -143.157827 
L 160.876933 -144.308159 
L 161.766474 -145.468442 
L 162.656014 -146.630322 
L 163.545555 -147.809369 
L 164.435095 -148.984844 
L 165.324636 -150.188741 
L 166.214176 -151.395083 
L 167.103717 -152.627621 
L 167.993257 -153.855971 
L 168.882798 -155.081497 
L 169.772338 -156.326989 
L 170.661879 -157.56483 
L 171.551419 -158.844662 
L 172.44096 -160.121216 
L 173.3305 -161.397489 
L 174.220041 -162.684063 
L 175.109581 -163.985365 
L 175.999122 -165.27097 
L 176.888662 -166.564015 
L 177.778203 -167.889072 
L 178.667743 -169.219789 
L 179.557284 -170.570487 
L 180.446824 -171.930526 
L 181.336365 -173.290735 
L 182.225905 -174.659416 
L 183.115446 -176.048375 
L 184.004986 -177.460416 
L 184.894527 -178.880349 
L 185.784067 -180.363108 
L 186.673608 -181.864669 
L 187.563148 -183.414028 
L 188.452689 -184.983629 
L 189.342229 -186.579199 
L 190.23177 -188.226727 
L 191.12131 -189.890936 
L 192.010851 -191.616761 
L 192.900391 -193.387311 
L 193.789932 -195.183998 
L 194.679472 -197.038825 
L 195.569013 -198.949553 
L 196.458553 -200.904295 
L 197.348094 -202.890525 
L 198.237634 -204.957783 
L 199.127175 -207.057917 
L 200.016715 -209.187122 
L 200.906256 -211.353143 
L 201.795796 -213.56182 
L 202.685337 -215.840471 
L 203.574877 -218.125884 
L 204.464418 -220.46505 
L 205.353958 -222.836181 
L 206.243499 -225.229629 
L 207.133039 -227.616426 
L 208.02258 -230.026408 
L 208.91212 -232.467498 
L 209.801661 -234.924376 
L 210.691201 -237.413665 
L 211.580742 -239.868132 
L 212.470282 -242.331783 
L 213.359823 -244.789164 
L 214.249363 -247.273611 
L 215.138904 -249.696617 
L 216.028444 -252.130639 
L 216.917985 -254.603873 
L 217.807525 -257.048648 
L 218.697066 -259.485503 
L 219.586606 -261.885838 
L 220.476147 -264.24501 
L 221.365687 -266.58955 
L 222.255228 -268.875201 
L 223.144768 -271.191294 
L 224.034309 -273.443572 
L 224.923849 -275.680132 
L 225.81339 -277.883629 
L 226.70293 -280.077143 
L 227.592471 -282.227426 
L 228.482011 -284.333891 
L 229.371552 -286.420506 
L 230.261092 -288.446369 
L 231.150633 -290.440216 
L 232.040173 -292.449849 
L 232.929714 -294.439994 
L 233.819254 -296.389809 
L 234.708795 -298.324919 
L 235.598335 -300.223593 
L 236.487876 -302.073944 
L 237.377416 -303.903195 
L 238.266957 -305.6939 
L 239.156497 -307.504082 
L 240.046038 -309.296145 
L 240.935578 -311.056531 
L 241.825119 -312.817814 
L 242.714659 -314.54909 
L 243.6042 -316.259481 
L 244.49374 -317.997461 
L 245.383281 -319.72536 
L 246.272821 -321.457832 
L 247.162362 -323.190811 
L 248.051902 -324.941089 
L 248.941443 -326.674302 
L 249.830983 -328.381951 
L 250.720524 -330.092699 
L 251.610064 -331.810197 
L 252.499605 -333.52917 
L 253.389145 -335.246079 
L 254.278686 -336.948369 
L 255.168226 -338.634644 
L 256.057767 -340.324793 
L 256.947307 -341.977766 
L 257.836848 -343.646531 
L 258.726388 -345.24494 
L 259.615929 -346.830029 
L 260.505469 -348.403411 
L 261.39501 -349.93072 
L 262.28455 -351.433277 
L 263.174091 -352.897954 
L 264.063631 -354.307697 
L 264.953172 -355.676032 
L 265.842712 -356.973744 
L 266.732253 -358.264834 
L 267.621793 -359.486938 
L 268.511334 -360.687697 
L 269.400874 -361.782461 
L 270.290415 -362.832591 
L 271.179955 -363.849725 
L 272.069496 -364.845116 
L 272.959036 -365.740512 
L 273.848577 -366.575894 
L 274.738117 -367.37616 
L 275.627658 -368.1288 
L 276.517198 -368.824084 
L 277.406739 -369.480361 
L 278.296279 -370.093863 
L 279.18582 -370.67684 
L 280.07536 -371.172347 
L 280.964901 -371.613124 
L 281.854441 -372.012746 
L 282.743982 -372.403811 
L 283.633522 -372.729177 
L 284.523063 -373.018636 
L 285.412603 -373.229921 
L 286.302144 -373.457671 
L 287.191684 -373.58932 
L 288.081225 -373.653321 
L 288.970765 -373.693818 
L 289.860306 -373.674999 
L 290.749846 -373.627613 
L 291.639387 -373.571234 
L 292.528927 -373.434355 
L 293.418468 -373.263258 
L 294.308008 -372.977189 
L 295.197549 -372.635137 
L 296.087089 -372.244066 
L 296.97663 -371.790909 
L 297.86617 -371.213037 
L 298.755711 -370.56559 
L 299.645251 -369.833615 
L 300.534792 -368.99288 
L 301.424332 -368.083568 
L 302.313873 -367.043575 
L 303.203413 -365.867363 
L 304.092954 -364.56238 
L 304.982494 -363.188797 
L 305.872035 -361.678254 
L 306.761575 -360.083338 
L 307.651116 -358.37845 
L 308.540656 -356.575044 
L 309.430197 -354.657505 
L 310.319737 -352.619948 
L 311.209278 -350.491532 
L 312.098818 -348.289155 
L 312.988359 -346.025924 
L 313.877899 -343.682254 
L 314.76744 -341.312072 
L 315.65698 -338.861274 
L 316.546521 -336.372444 
L 317.436061 -333.843029 
L 318.325602 -331.322094 
L 319.215142 -328.760168 
L 320.104683 -326.200457 
L 320.994223 -323.655061 
L 321.883764 -321.083815 
L 322.773304 -318.511758 
L 323.662845 -315.950345 
L 324.552385 -313.376273 
L 325.441926 -310.837348 
L 326.331466 -308.282612 
L 327.221007 -305.727607 
L 328.110547 -303.182151 
L 329.000088 -300.613742 
L 329.889628 -298.083937 
L 330.779168 -295.550814 
L 331.668709 -293.011023 
L 332.558249 -290.474805 
L 333.44779 -287.92466 
L 334.33733 -285.345788 
L 335.226871 -282.767066 
L 336.116411 -280.215628 
L 337.005952 -277.635995 
L 337.895492 -275.010739 
L 338.785033 -272.425953 
L 339.674573 -269.801942 
L 340.564114 -267.214601 
L 341.453654 -264.619745 
L 342.343195 -262.011461 
L 343.232735 -259.397308 
L 344.122276 -256.816548 
L 345.011816 -254.204817 
L 345.901357 -251.611805 
L 346.790897 -248.997682 
L 347.680438 -246.403079 
L 348.569978 -243.82302 
L 349.459519 -241.255962 
L 350.349059 -238.682901 
L 351.2386 -236.134369 
L 352.12814 -233.607563 
L 353.017681 -231.080319 
L 353.907221 -228.576594 
L 354.796762 -226.088628 
L 355.686302 -223.626735 
L 356.575843 -221.196056 
L 357.465383 -218.764973 
L 358.354924 -216.386895 
L 359.244464 -214.025496 
L 360.134005 -211.681067 
L 361.023545 -209.371911 
L 361.913086 -207.074492 
L 362.802626 -204.784815 
L 363.692167 -202.541746 
L 364.581707 -200.320259 
L 365.471248 -198.135952 
L 366.360788 -195.981971 
L 367.250329 -193.841943 
L 368.139869 -191.710534 
L 369.02941 -189.638145 
L 369.91895 -187.565439 
L 370.808491 -185.504102 
L 371.698031 -183.475158 
L 372.587572 -181.459117 
L 373.477112 -179.458791 
L 374.366653 -177.466783 
L 375.256193 -175.507507 
L 376.145734 -173.549322 
L 377.035274 -171.627067 
L 377.924815 -169.705782 
L 378.814355 -167.816248 
L 379.703896 -165.943411 
L 380.593436 -164.094272 
L 381.482977 -162.264809 
L 382.372517 -160.481346 
L 383.262058 -158.710758 
L 384.151598 -156.963562 
L 385.041139 -155.251669 
L 385.930679 -153.573207 
L 386.82022 -151.944203 
L 387.70976 -150.347271 
L 388.599301 -148.796563 
L 389.488841 -147.276882 
L 390.378382 -145.815499 
L 391.267922 -144.403058 
L 392.157463 -143.050656 
L 393.047003 -141.754234 
L 393.936544 -140.508959 
L 394.826084 -139.310184 
L 395.715625 -138.173837 
L 396.605165 -137.062741 
L 397.494706 -136.027871 
L 398.384246 -135.040589 
L 399.273787 -134.097895 
L 400.163327 -133.217123 
L 401.052868 -132.383883 
L 401.942408 -131.589117 
L 402.831949 -130.831495 
L 403.721489 -130.103841 
L 404.61103 -129.433729 
L 405.50057 -128.794418 
L 406.390111 -128.181711 
L 407.279651 -127.57151 
L 408.169192 -127.014699 
L 409.058732 -126.46819 
L 409.948273 -125.924193 
L 410.837813 -125.40615 
L 411.727354 -124.884352 
L 412.616894 -124.380959 
L 413.506435 -123.88027 
L 414.395975 -123.381041 
L 415.285516 -122.891564 
L 416.175056 -122.401155 
L 417.064597 -121.901303 
L 417.954137 -121.412334 
L 418.843678 -120.914459 
L 419.733218 -120.410432 
L 420.622759 -119.906031 
L 421.512299 -119.400702 
L 422.40184 -118.888832 
L 423.29138 -118.373755 
L 424.180921 -117.851225 
L 425.070461 -117.328157 
L 425.960002 -116.812008 
L 426.849542 -116.291739 
L 427.739083 -115.77354 
L 428.628623 -115.255436 
L 429.518164 -114.738468 
L 430.407704 -114.22603 
L 431.297245 -113.713967 
L 432.186785 -113.213998 
L 433.076326 -112.713889 
L 433.965866 -112.222459 
L 434.855407 -111.735587 
L 435.744947 -111.254946 
L 436.634488 -110.782021 
L 437.524028 -110.327496 
L 438.413569 -109.876352 
L 439.303109 -109.442756 
L 440.19265 -109.012015 
L 441.08219 -108.610211 
L 441.971731 -108.22013 
L 442.861271 -107.835313 
L 443.750812 -107.460053 
L 444.640352 -107.107 
L 445.529893 -106.771805 
L 446.419433 -106.446221 
L 447.308974 -106.126016 
L 448.198514 -105.817137 
L 449.088055 -105.534106 
L 449.977595 -105.259436 
L 450.867136 -104.992779 
L 451.756676 -104.738959 
L 452.646217 -104.494592 
L 453.535757 -104.249915 
L 454.425298 -104.027743 
L 455.314838 -103.801249 
L 456.204379 -103.594024 
L 457.093919 -103.391617 
L 457.98346 -103.194461 
L 458.873 -103.012288 
L 459.762541 -102.836276 
L 460.652081 -102.666586 
L 461.541622 -102.498691 
L 462.431162 -102.340816 
L 463.320703 -102.187674 
L 464.210243 -102.039842 
L 465.099784 -101.907813 
L 465.989324 -101.780505 
L 466.878865 -101.663356 
L 467.768405 -101.551245 
L 468.657946 -101.444224 
L 469.547486 -101.345178 
L 470.437027 -101.25632 
L 471.326567 -101.176977 
L 472.216108 -101.10187 
L 473.105648 -101.033864 
L 473.995189 -100.972785 
L 474.884729 -100.920768 
L 475.77427 -100.870017 
L 476.66381 -100.830793 
L 477.553351 -100.796942 
L 478.442891 -100.76826 
L 479.332432 -100.744507 
L 480.221972 -100.725411 
L 481.111513 -100.70833 
L 482.001053 -100.698159 
L 482.890594 -100.691586 
L 483.780134 -100.68594 
L 484.669675 -100.683742 
L 485.559215 -100.684528 
L 486.448756 -100.687839 
L 487.338296 -100.695569 
L 488.227837 -100.704403 
L 489.117377 -100.71166 
L 490.006918 -100.722199 
L 490.896458 -100.732676 
L 491.785999 -100.740389 
L 492.675539 -100.750186 
L 493.56508 -100.758727 
L 494.45462 -100.765671 
L 495.344161 -100.770688 
L 496.233701 -100.771124 
L 497.123242 -100.771906 
L 498.012782 -100.769809 
L 498.902323 -100.764649 
L 499.791863 -100.756285 
L 500.681404 -100.744632 
L 501.570944 -100.729659 
L 502.460485 -100.714397 
L 503.350025 -100.694407 
L 504.239566 -100.672245 
L 505.129106 -100.647558 
L 506.018647 -100.620707 
L 506.908187 -100.592102 
L 507.797728 -100.562199 
L 508.687268 -100.531492 
L 509.576809 -100.500496 
L 510.466349 -100.469744 
L 511.35589 -100.439773 
L 512.24543 -100.411108 
L 513.134971 -100.384257 
L 514.024511 -100.359697 
L 514.914052 -100.337863 
L 515.803592 -100.319141 
L 516.693133 -100.303857 
L 517.582673 -100.292272 
L 518.472214 -100.284575 
L 519.361754 -100.280878 
L 520.251295 -100.27887 
L 521.140835 -100.283716 
L 522.030376 -100.292314 
L 522.919916 -100.304475 
L 523.809457 -100.319933 
L 524.698997 -100.338348 
L 525.588538 -100.35931 
L 526.478078 -100.382352 
L 527.367619 -100.406955 
L 528.257159 -100.43256 
L 529.1467 -100.458582 
L 530.03624 -100.484418 
L 530.925781 -100.509467 
L 531.815321 -100.533137 
L 532.704862 -100.554863 
L 533.594402 -100.574118 
L 534.483943 -100.590429 
L 535.373483 -100.60338 
L 536.263024 -100.610288 
L 537.152564 -100.616101 
L 537.152564 -99.890182 
L 537.152564 -99.890182 
L 536.263024 -99.890182 
L 535.373483 -99.890182 
L 534.483943 -99.890182 
L 533.594402 -99.890182 
L 532.704862 -99.890182 
L 531.815321 -99.890182 
L 530.925781 -99.890182 
L 530.03624 -99.890182 
L 529.1467 -99.890182 
L 528.257159 -99.890182 
L 527.367619 -99.890182 
L 526.478078 -99.890182 
L 525.588538 -99.890182 
L 524.698997 -99.890182 
L 523.809457 -99.890182 
L 522.919916 -99.890182 
L 522.030376 -99.890182 
L 521.140835 -99.890182 
L 520.251295 -99.890182 
L 519.361754 -99.890182 
L 518.472214 -99.890182 
L 517.582673 -99.890182 
L 516.693133 -99.890182 
L 515.803592 -99.890182 
L 514.914052 -99.890182 
L 514.024511 -99.890182 
L 513.134971 -99.890182 
L 512.24543 -99.890182 
L 511.35589 -99.890182 
L 510.466349 -99.890182 
L 509.576809 -99.890182 
L 508.687268 -99.890182 
L 507.797728 -99.890182 
L 506.908187 -99.890182 
L 506.018647 -99.890182 
L 505.129106 -99.890182 
L 504.239566 -99.890182 
L 503.350025 -99.890182 
L 502.460485 -99.890182 
L 501.570944 -99.890182 
L 500.681404 -99.890182 
L 499.791863 -99.890182 
L 498.902323 -99.890182 
L 498.012782 -99.890182 
L 497.123242 -99.890182 
L 496.233701 -99.890182 
L 495.344161 -99.890182 
L 494.45462 -99.890182 
L 493.56508 -99.890182 
L 492.675539 -99.890182 
L 491.785999 -99.890182 
L 490.896458 -99.890182 
L 490.006918 -99.890182 
L 489.117377 -99.890182 
L 488.227837 -99.890182 
L 487.338296 -99.890182 
L 486.448756 -99.890182 
L 485.559215 -99.890182 
L 484.669675 -99.890182 
L 483.780134 -99.890182 
L 482.890594 -99.890182 
L 482.001053 -99.890182 
L 481.111513 -99.890182 
L 480.221972 -99.890182 
L 479.332432 -99.890182 
L 478.442891 -99.890182 
L 477.553351 -99.890182 
L 476.66381 -99.890182 
L 475.77427 -99.890182 
L 474.884729 -99.890182 
L 473.995189 -99.890182 
L 473.105648 -99.890182 
L 472.216108 -99.890182 
L 471.326567 -99.890182 
L 470.437027 -99.890182 
L 469.547486 -99.890182 
L 468.657946 -99.890182 
L 467.768405 -99.890182 
L 466.878865 -99.890182 
L 465.989324 -99.890182 
L 465.099784 -99.890182 
L 464.210243 -99.890182 
L 463.320703 -99.890182 
L 462.431162 -99.890182 
L 461.541622 -99.890182 
L 460.652081 -99.890182 
L 459.762541 -99.890182 
L 458.873 -99.890182 
L 457.98346 -99.890182 
L 457.093919 -99.890182 
L 456.204379 -99.890182 
L 455.314838 -99.890182 
L 454.425298 -99.890182 
L 453.535757 -99.890182 
L 452.646217 -99.890182 
L 451.756676 -99.890182 
L 450.867136 -99.890182 
L 449.977595 -99.890182 
L 449.088055 -99.890182 
L 448.198514 -99.890182 
L 447.308974 -99.890182 
L 446.419433 -99.890182 
L 445.529893 -99.890182 
L 444.640352 -99.890182 
L 443.750812 -99.890182 
L 442.861271 -99.890182 
L 441.971731 -99.890182 
L 441.08219 -99.890182 
L 440.19265 -99.890182 
L 439.303109 -99.890182 
L 438.413569 -99.890182 
L 437.524028 -99.890182 
L 436.634488 -99.890182 
L 435.744947 -99.890182 
L 434.855407 -99.890182 
L 433.965866 -99.890182 
L 433.076326 -99.890182 
L 432.186785 -99.890182 
L 431.297245 -99.890182 
L 430.407704 -99.890182 
L 429.518164 -99.890182 
L 428.628623 -99.890182 
L 427.739083 -99.890182 
L 426.849542 -99.890182 
L 425.960002 -99.890182 
L 425.070461 -99.890182 
L 424.180921 -99.890182 
L 423.29138 -99.890182 
L 422.40184 -99.890182 
L 421.512299 -99.890182 
L 420.622759 -99.890182 
L 419.733218 -99.890182 
L 418.843678 -99.890182 
L 417.954137 -99.890182 
L 417.064597 -99.890182 
L 416.175056 -99.890182 
L 415.285516 -99.890182 
L 414.395975 -99.890182 
L 413.506435 -99.890182 
L 412.616894 -99.890182 
L 411.727354 -99.890182 
L 410.837813 -99.890182 
L 409.948273 -99.890182 
L 409.058732 -99.890182 
L 408.169192 -99.890182 
L 407.279651 -99.890182 
L 406.390111 -99.890182 
L 405.50057 -99.890182 
L 404.61103 -99.890182 
L 403.721489 -99.890182 
L 402.831949 -99.890182 
L 401.942408 -99.890182 
L 401.052868 -99.890182 
L 400.163327 -99.890182 
L 399.273787 -99.890182 
L 398.384246 -99.890182 
L 397.494706 -99.890182 
L 396.605165 -99.890182 
L 395.715625 -99.890182 
L 394.826084 -99.890182 
L 393.936544 -99.890182 
L 393.047003 -99.890182 
L 392.157463 -99.890182 
L 391.267922 -99.890182 
L 390.378382 -99.890182 
L 389.488841 -99.890182 
L 388.599301 -99.890182 
L 387.70976 -99.890182 
L 386.82022 -99.890182 
L 385.930679 -99.890182 
L 385.041139 -99.890182 
L 384.151598 -99.890182 
L 383.262058 -99.890182 
L 382.372517 -99.890182 
L 381.482977 -99.890182 
L 380.593436 -99.890182 
L 379.703896 -99.890182 
L 378.814355 -99.890182 
L 377.924815 -99.890182 
L 377.035274 -99.890182 
L 376.145734 -99.890182 
L 375.256193 -99.890182 
L 374.366653 -99.890182 
L 373.477112 -99.890182 
L 372.587572 -99.890182 
L 371.698031 -99.890182 
L 370.808491 -99.890182 
L 369.91895 -99.890182 
L 369.02941 -99.890182 
L 368.139869 -99.890182 
L 367.250329 -99.890182 
L 366.360788 -99.890182 
L 365.471248 -99.890182 
L 364.581707 -99.890182 
L 363.692167 -99.890182 
L 362.802626 -99.890182 
L 361.913086 -99.890182 
L 361.023545 -99.890182 
L 360.134005 -99.890182 
L 359.244464 -99.890182 
L 358.354924 -99.890182 
L 357.465383 -99.890182 
L 356.575843 -99.890182 
L 355.686302 -99.890182 
L 354.796762 -99.890182 
L 353.907221 -99.890182 
L 353.017681 -99.890182 
L 352.12814 -99.890182 
L 351.2386 -99.890182 
L 350.349059 -99.890182 
L 349.459519 -99.890182 
L 348.569978 -99.890182 
L 347.680438 -99.890182 
L 346.790897 -99.890182 
L 345.901357 -99.890182 
L 345.011816 -99.890182 
L 344.122276 -99.890182 
L 343.232735 -99.890182 
L 342.343195 -99.890182 
L 341.453654 -99.890182 
L 340.564114 -99.890182 
L 339.674573 -99.890182 
L 338.785033 -99.890182 
L 337.895492 -99.890182 
L 337.005952 -99.890182 
L 336.116411 -99.890182 
L 335.226871 -99.890182 
L 334.33733 -99.890182 
L 333.44779 -99.890182 
L 332.558249 -99.890182 
L 331.668709 -99.890182 
L 330.779168 -99.890182 
L 329.889628 -99.890182 
L 329.000088 -99.890182 
L 328.110547 -99.890182 
L 327.221007 -99.890182 
L 326.331466 -99.890182 
L 325.441926 -99.890182 
L 324.552385 -99.890182 
L 323.662845 -99.890182 
L 322.773304 -99.890182 
L 321.883764 -99.890182 
L 320.994223 -99.890182 
L 320.104683 -99.890182 
L 319.215142 -99.890182 
L 318.325602 -99.890182 
L 317.436061 -99.890182 
L 316.546521 -99.890182 
L 315.65698 -99.890182 
L 314.76744 -99.890182 
L 313.877899 -99.890182 
L 312.988359 -99.890182 
L 312.098818 -99.890182 
L 311.209278 -99.890182 
L 310.319737 -99.890182 
L 309.430197 -99.890182 
L 308.540656 -99.890182 
L 307.651116 -99.890182 
L 306.761575 -99.890182 
L 305.872035 -99.890182 
L 304.982494 -99.890182 
L 304.092954 -99.890182 
L 303.203413 -99.890182 
L 302.313873 -99.890182 
L 301.424332 -99.890182 
L 300.534792 -99.890182 
L 299.645251 -99.890182 
L 298.755711 -99.890182 
L 297.86617 -99.890182 
L 296.97663 -99.890182 
L 296.087089 -99.890182 
L 295.197549 -99.890182 
L 294.308008 -99.890182 
L 293.418468 -99.890182 
L 292.528927 -99.890182 
L 291.639387 -99.890182 
L 290.749846 -99.890182 
L 289.860306 -99.890182 
L 288.970765 -99.890182 
L 288.081225 -99.890182 
L 287.191684 -99.890182 
L 286.302144 -99.890182 
L 285.412603 -99.890182 
L 284.523063 -99.890182 
L 283.633522 -99.890182 
L 282.743982 -99.890182 
L 281.854441 -99.890182 
L 280.964901 -99.890182 
L 280.07536 -99.890182 
L 279.18582 -99.890182 
L 278.296279 -99.890182 
L 277.406739 -99.890182 
L 276.517198 -99.890182 
L 275.627658 -99.890182 
L 274.738117 -99.890182 
L 273.848577 -99.890182 
L 272.959036 -99.890182 
L 272.069496 -99.890182 
L 271.179955 -99.890182 
L 270.290415 -99.890182 
L 269.400874 -99.890182 
L 268.511334 -99.890182 
L 267.621793 -99.890182 
L 266.732253 -99.890182 
L 265.842712 -99.890182 
L 264.953172 -99.890182 
L 264.063631 -99.890182 
L 263.174091 -99.890182 
L 262.28455 -99.890182 
L 261.39501 -99.890182 
L 260.505469 -99.890182 
L 259.615929 -99.890182 
L 258.726388 -99.890182 
L 257.836848 -99.890182 
L 256.947307 -99.890182 
L 256.057767 -99.890182 
L 255.168226 -99.890182 
L 254.278686 -99.890182 
L 253.389145 -99.890182 
L 252.499605 -99.890182 
L 251.610064 -99.890182 
L 250.720524 -99.890182 
L 249.830983 -99.890182 
L 248.941443 -99.890182 
L 248.051902 -99.890182 
L 247.162362 -99.890182 
L 246.272821 -99.890182 
L 245.383281 -99.890182 
L 244.49374 -99.890182 
L 243.6042 -99.890182 
L 242.714659 -99.890182 
L 241.825119 -99.890182 
L 240.935578 -99.890182 
L 240.046038 -99.890182 
L 239.156497 -99.890182 
L 238.266957 -99.890182 
L 237.377416 -99.890182 
L 236.487876 -99.890182 
L 235.598335 -99.890182 
L 234.708795 -99.890182 
L 233.819254 -99.890182 
L 232.929714 -99.890182 
L 232.040173 -99.890182 
L 231.150633 -99.890182 
L 230.261092 -99.890182 
L 229.371552 -99.890182 
L 228.482011 -99.890182 
L 227.592471 -99.890182 
L 226.70293 -99.890182 
L 225.81339 -99.890182 
L 224.923849 -99.890182 
L 224.034309 -99.890182 
L 223.144768 -99.890182 
L 222.255228 -99.890182 
L 221.365687 -99.890182 
L 220.476147 -99.890182 
L 219.586606 -99.890182 
L 218.697066 -99.890182 
L 217.807525 -99.890182 
L 216.917985 -99.890182 
L 216.028444 -99.890182 
L 215.138904 -99.890182 
L 214.249363 -99.890182 
L 213.359823 -99.890182 
L 212.470282 -99.890182 
L 211.580742 -99.890182 
L 210.691201 -99.890182 
L 209.801661 -99.890182 
L 208.91212 -99.890182 
L 208.02258 -99.890182 
L 207.133039 -99.890182 
L 206.243499 -99.890182 
L 205.353958 -99.890182 
L 204.464418 -99.890182 
L 203.574877 -99.890182 
L 202.685337 -99.890182 
L 201.795796 -99.890182 
L 200.906256 -99.890182 
L 200.016715 -99.890182 
L 199.127175 -99.890182 
L 198.237634 -99.890182 
L 197.348094 -99.890182 
L 196.458553 -99.890182 
L 195.569013 -99.890182 
L 194.679472 -99.890182 
L 193.789932 -99.890182 
L 192.900391 -99.890182 
L 192.010851 -99.890182 
L 191.12131 -99.890182 
L 190.23177 -99.890182 
L 189.342229 -99.890182 
L 188.452689 -99.890182 
L 187.563148 -99.890182 
L 186.673608 -99.890182 
L 185.784067 -99.890182 
L 184.894527 -99.890182 
L 184.004986 -99.890182 
L 183.115446 -99.890182 
L 182.225905 -99.890182 
L 181.336365 -99.890182 
L 180.446824 -99.890182 
L 179.557284 -99.890182 
L 178.667743 -99.890182 
L 177.778203 -99.890182 
L 176.888662 -99.890182 
L 175.999122 -99.890182 
L 175.109581 -99.890182 
L 174.220041 -99.890182 
L 173.3305 -99.890182 
L 172.44096 -99.890182 
L 171.551419 -99.890182 
L 170.661879 -99.890182 
L 169.772338 -99.890182 
L 168.882798 -99.890182 
L 167.993257 -99.890182 
L 167.103717 -99.890182 
L 166.214176 -99.890182 
L 165.324636 -99.890182 
L 164.435095 -99.890182 
L 163.545555 -99.890182 
L 162.656014 -99.890182 
L 161.766474 -99.890182 
L 160.876933 -99.890182 
L 159.987393 -99.890182 
L 159.097852 -99.890182 
L 158.208312 -99.890182 
L 157.318771 -99.890182 
L 156.429231 -99.890182 
L 155.53969 -99.890182 
L 154.65015 -99.890182 
L 153.760609 -99.890182 
L 152.871069 -99.890182 
L 151.981528 -99.890182 
L 151.091988 -99.890182 
L 150.202447 -99.890182 
L 149.312907 -99.890182 
L 148.423366 -99.890182 
L 147.533826 -99.890182 
L 146.644285 -99.890182 
L 145.754745 -99.890182 
L 144.865204 -99.890182 
L 143.975664 -99.890182 
L 143.086123 -99.890182 
L 142.196583 -99.890182 
L 141.307042 -99.890182 
L 140.417502 -99.890182 
L 139.527961 -99.890182 
L 138.638421 -99.890182 
L 137.74888 -99.890182 
L 136.85934 -99.890182 
L 135.969799 -99.890182 
L 135.080259 -99.890182 
L 134.190718 -99.890182 
L 133.301178 -99.890182 
L 132.411637 -99.890182 
L 131.522097 -99.890182 
L 130.632556 -99.890182 
L 129.743016 -99.890182 
L 128.853475 -99.890182 
L 127.963935 -99.890182 
L 127.074394 -99.890182 
L 126.184854 -99.890182 
L 125.295313 -99.890182 
L 124.405773 -99.890182 
L 123.516232 -99.890182 
L 122.626692 -99.890182 
L 121.737151 -99.890182 
L 120.847611 -99.890182 
L 119.95807 -99.890182 
L 119.06853 -99.890182 
L 118.178989 -99.890182 
L 117.289449 -99.890182 
L 116.399908 -99.890182 
L 115.510368 -99.890182 
L 114.620827 -99.890182 
L 113.731287 -99.890182 
L 112.841746 -99.890182 
L 111.952206 -99.890182 
L 111.062665 -99.890182 
L 110.173125 -99.890182 
L 109.283584 -99.890182 
L 108.394044 -99.890182 
L 107.504503 -99.890182 
L 106.614963 -99.890182 
L 105.725422 -99.890182 
L 104.835882 -99.890182 
L 103.946341 -99.890182 
L 103.056801 -99.890182 
L 102.16726 -99.890182 
L 101.27772 -99.890182 
L 100.388179 -99.890182 
L 99.498639 -99.890182 
L 98.609098 -99.890182 
L 97.719558 -99.890182 
L 96.830017 -99.890182 
L 95.940477 -99.890182 
L 95.050936 -99.890182 
L 94.161396 -99.890182 
L 93.271855 -99.890182 
L 92.382315 -99.890182 
L 91.492774 -99.890182 
L 90.603234 -99.890182 
L 89.713693 -99.890182 
L 88.824153 -99.890182 
L 87.934612 -99.890182 
L 87.045072 -99.890182 
L 86.155531 -99.890182 
L 85.265991 -99.890182 
L 84.37645 -99.890182 
L 83.48691 -99.890182 
L 82.597369 -99.890182 
z
" style="stroke: #d62728; stroke-opacity: 0.6; stroke-width: 0.3"/>
    </defs>
    <g clip-path="url(#pf66a823b5b)">
     <use xlink:href="#mbfc737e168" x="0" y="504" style="fill: #d62728; fill-opacity: 0.6; stroke: #d62728; stroke-opacity: 0.6; stroke-width: 0.3"/>
    </g>
   </g>
   <g id="line2d_7">
    <path d="M 82.597369 401.863984 
L 92.382315 401.726772 
L 98.609098 401.32863 
L 103.056801 400.788193 
L 106.614963 400.119462 
L 110.173125 399.227343 
L 113.731287 398.075898 
L 117.289449 396.688344 
L 120.847611 395.087758 
L 124.405773 393.252796 
L 127.963935 391.228736 
L 132.411637 388.357765 
L 135.969799 385.792093 
L 139.527961 382.978067 
L 143.086123 379.837188 
L 147.533826 375.453243 
L 151.981528 370.614767 
L 156.429231 365.332661 
L 161.766474 358.531558 
L 166.214176 352.604917 
L 173.3305 342.602511 
L 179.557284 333.429513 
L 184.894527 325.119651 
L 188.452689 319.016371 
L 191.12131 314.109064 
L 193.789932 308.816002 
L 196.458553 303.095705 
L 199.127175 296.942083 
L 202.685337 288.159529 
L 206.243499 278.770371 
L 211.580742 264.131868 
L 220.476147 239.75499 
L 224.923849 228.319868 
L 229.371552 217.579494 
L 234.708795 205.675081 
L 238.266957 198.3061 
L 242.714659 189.45091 
L 259.615929 157.169971 
L 263.174091 151.102046 
L 265.842712 147.026256 
L 268.511334 143.312303 
L 271.179955 140.150275 
L 272.959036 138.259488 
L 275.627658 135.8712 
L 278.296279 133.906137 
L 280.07536 132.827653 
L 282.743982 131.596189 
L 284.523063 130.981364 
L 287.191684 130.41068 
L 289.860306 130.325001 
L 292.528927 130.565645 
L 293.418468 130.736742 
L 295.197549 131.364863 
L 296.97663 132.209091 
L 298.755711 133.43441 
L 300.534792 135.00712 
L 302.313873 136.956425 
L 304.092954 139.43762 
L 305.872035 142.321746 
L 307.651116 145.62155 
L 309.430197 149.342495 
L 312.098818 155.710845 
L 314.76744 162.687928 
L 319.215142 175.239832 
L 345.011816 249.795183 
L 353.907221 275.423406 
L 358.354924 287.613105 
L 362.802626 299.215185 
L 367.250329 310.158057 
L 370.808491 318.495898 
L 376.145734 330.450678 
L 381.482977 341.735191 
L 385.930679 350.426793 
L 389.488841 356.723118 
L 392.157463 360.949344 
L 394.826084 364.689816 
L 397.494706 367.972129 
L 400.163327 370.782877 
L 402.831949 373.168505 
L 404.61103 374.566271 
L 407.279651 376.42849 
L 411.727354 379.115648 
L 438.413569 394.123648 
L 441.971731 395.77987 
L 445.529893 397.228195 
L 449.977595 398.740564 
L 454.425298 399.972257 
L 457.98346 400.805539 
L 463.320703 401.812326 
L 467.768405 402.448755 
L 472.216108 402.89813 
L 477.553351 403.203058 
L 483.780134 403.31406 
L 494.45462 403.234329 
L 502.460485 403.285603 
L 523.809457 403.680067 
L 537.152564 403.383899 
L 537.152564 403.383899 
" clip-path="url(#pf66a823b5b)" style="fill: none; stroke: #d62728; stroke-width: 2; stroke-linecap: round"/>
   </g>
   <g id="line2d_8">
    <path d="M 175.309549 398.359942 
L 371.056633 398.359942 
" clip-path="url(#pf66a823b5b)" style="fill: none; stroke: #000000; stroke-width: 3.5"/>
   </g>
   <g id="patch_3">
    <path d="M 59.86961 417.8 
L 559.880324 417.8 
" style="fill: none; stroke: #333333; stroke-width: 1.5; stroke-linejoin: miter; stroke-linecap: square"/>
   </g>
   <g id="text_4">
    <text style="font-size: 52px; font-family: 'DejaVu Serif', 'Times New Roman', serif; text-anchor: end; fill: #262626" x="175.309549" y="383.985251" transform="rotate(-0 175.309549 383.985251)">-0.34 </text>
   </g>
   <g id="text_5">
    <text style="font-size: 52px; font-family: 'DejaVu Serif', 'Times New Roman', serif; text-anchor: start; fill: #262626" x="371.056633" y="383.985251" transform="rotate(-0 371.056633 383.985251)"> -0.33</text>
   </g>
   <g id="text_6">
    <text style="font-size: 52px; font-family: 'DejaVu Serif', 'Times New Roman', serif; text-anchor: middle; fill: #262626" x="273.183091" y="317.861673" transform="rotate(-0 273.183091 317.861673)">90%</text>
   </g>
   <g id="text_7">
    <!-- $\mu$=-0.33 -->
    <g style="fill: #262626" transform="translate(174.640015 174.114764)">
     <text>
      <tspan x="0" y="-0.40625" style="font-style: oblique; font-size: 52px; font-family: 'DejaVu Sans'; fill: #262626">μ</tspan>
      <tspan x="33.083984" y="-0.40625" style="font-size: 52px; font-family: 'DejaVu Serif'; fill: #262626">=</tspan>
      <tspan x="76.654297" y="-0.40625" style="font-size: 52px; font-family: 'DejaVu Serif'; fill: #262626">-</tspan>
      <tspan x="94.224609" y="-0.40625" style="font-size: 52px; font-family: 'DejaVu Serif'; fill: #262626">0</tspan>
      <tspan x="127.308594" y="-0.40625" style="font-size: 52px; font-family: 'DejaVu Serif'; fill: #262626">.</tspan>
      <tspan x="143.837891" y="-0.40625" style="font-size: 52px; font-family: 'DejaVu Serif'; fill: #262626">3</tspan>
      <tspan x="176.921875" y="-0.40625" style="font-size: 52px; font-family: 'DejaVu Serif'; fill: #262626">3</tspan>
     </text>
    </g>
   </g>
   <g id="text_8">
    <!-- $x_3^3$ -->
    <g style="fill: #262626" transform="translate(267.694967 94.576)">
     <text>
      <tspan x="0" y="-0.421875" style="font-style: oblique; font-size: 76px; font-family: 'DejaVu Sans'; fill: #262626">x</tspan>
      <tspan x="44.976562" y="20.359375" style="font-size: 53.2px; font-family: 'DejaVu Sans'; fill: #262626">3</tspan>
      <tspan x="48.370833" y="-29.515625" style="font-size: 53.2px; font-family: 'DejaVu Sans'; fill: #262626">3</tspan>
     </text>
    </g>
   </g>
  </g>
 </g>
 <defs>
  <clipPath id="pf66a823b5b">
   <rect x="59.86961" y="116.616" width="500.010714" height="301.184"/>
  </clipPath>
 </defs>
</svg>
