<?xml version="1.0" encoding="utf-8" standalone="no"?>
<!DOCTYPE svg PUBLIC "-//W3C//DTD SVG 1.1//EN"
  "http://www.w3.org/Graphics/SVG/1.1/DTD/svg11.dtd">
<svg xmlns:xlink="http://www.w3.org/1999/xlink" width="892.738125pt" height="251.964375pt" viewBox="0 0 892.738125 251.964375" xmlns="http://www.w3.org/2000/svg" version="1.1">
 <metadata>
  <rdf:RDF xmlns:dc="http://purl.org/dc/elements/1.1/" xmlns:cc="http://creativecommons.org/ns#" xmlns:rdf="http://www.w3.org/1999/02/22-rdf-syntax-ns#">
   <cc:Work>
    <dc:type rdf:resource="http://purl.org/dc/dcmitype/StillImage"/>
    <dc:date>2026-02-24T16:51:49.890063</dc:date>
    <dc:format>image/svg+xml</dc:format>
    <dc:creator>
     <cc:Agent>
      <dc:title>Matplotlib v3.10.6, https://matplotlib.org/</dc:title>
     </cc:Agent>
    </dc:creator>
   </cc:Work>
  </rdf:RDF>
 </metadata>
 <defs>
  <style type="text/css">*{stroke-linejoin: round; stroke-linecap: butt}</style>
 </defs>
 <g id="figure_1">
  <g id="patch_1">
   <path d="M -0 251.964375 
L 892.738125 251.964375 
L 892.738125 0 
L -0 0 
z
" style="fill: #ffffff"/>
  </g>
  <g id="axes_1">
   <g id="patch_2">
    <path d="M 71.298125 193.11625 
L 885.538125 193.11625 
L 885.538125 35.43625 
L 71.298125 35.43625 
z
" style="fill: #ffffff"/>
   </g>
   <g id="matplotlib.axis_1">
    <g id="xtick_1">
     <g id="line2d_1">
      <path d="M 108.309034 193.11625 
L 108.309034 35.43625 
" clip-path="url(#p53a6f3434e)" style="fill: none; stroke-dasharray: 2.96,1.28; stroke-dashoffset: 0; stroke: #b0b0b0; stroke-opacity: 0.3; stroke-width: 0.8"/>
     </g>
     <g id="line2d_2">
      <defs>
       <path id="m3335bbdaf8" d="M 0 0 
L 0 3.5 
" style="stroke: #000000; stroke-width: 0.8"/>
      </defs>
      <g>
       <use xlink:href="#m3335bbdaf8" x="108.309034" y="193.11625" style="stroke: #000000; stroke-width: 0.8"/>
      </g>
     </g>
     <g id="text_1">
      <!-- 0 -->
      <g transform="translate(101.946534 215.313125) scale(0.2 -0.2)">
       <defs>
        <path id="DejaVuSans-30" d="M 2034 4250 
Q 1547 4250 1301 3770 
Q 1056 3291 1056 2328 
Q 1056 1369 1301 889 
Q 1547 409 2034 409 
Q 2525 409 2770 889 
Q 3016 1369 3016 2328 
Q 3016 3291 2770 3770 
Q 2525 4250 2034 4250 
z
M 2034 4750 
Q 2819 4750 3233 4129 
Q 3647 3509 3647 2328 
Q 3647 1150 3233 529 
Q 2819 -91 2034 -91 
Q 1250 -91 836 529 
Q 422 1150 422 2328 
Q 422 3509 836 4129 
Q 1250 4750 2034 4750 
z
" transform="scale(0.015625)"/>
       </defs>
       <use xlink:href="#DejaVuSans-30"/>
      </g>
     </g>
    </g>
    <g id="xtick_2">
     <g id="line2d_3">
      <path d="M 214.130075 193.11625 
L 214.130075 35.43625 
" clip-path="url(#p53a6f3434e)" style="fill: none; stroke-dasharray: 2.96,1.28; stroke-dashoffset: 0; stroke: #b0b0b0; stroke-opacity: 0.3; stroke-width: 0.8"/>
     </g>
     <g id="line2d_4">
      <g>
       <use xlink:href="#m3335bbdaf8" x="214.130075" y="193.11625" style="stroke: #000000; stroke-width: 0.8"/>
      </g>
     </g>
     <g id="text_2">
      <!-- 200 -->
      <g transform="translate(195.042575 215.313125) scale(0.2 -0.2)">
       <defs>
        <path id="DejaVuSans-32" d="M 1228 531 
L 3431 531 
L 3431 0 
L 469 0 
L 469 531 
Q 828 903 1448 1529 
Q 2069 2156 2228 2338 
Q 2531 2678 2651 2914 
Q 2772 3150 2772 3378 
Q 2772 3750 2511 3984 
Q 2250 4219 1831 4219 
Q 1534 4219 1204 4116 
Q 875 4013 500 3803 
L 500 4441 
Q 881 4594 1212 4672 
Q 1544 4750 1819 4750 
Q 2544 4750 2975 4387 
Q 3406 4025 3406 3419 
Q 3406 3131 3298 2873 
Q 3191 2616 2906 2266 
Q 2828 2175 2409 1742 
Q 1991 1309 1228 531 
z
" transform="scale(0.015625)"/>
       </defs>
       <use xlink:href="#DejaVuSans-32"/>
       <use xlink:href="#DejaVuSans-30" transform="translate(63.623047 0)"/>
       <use xlink:href="#DejaVuSans-30" transform="translate(127.246094 0)"/>
      </g>
     </g>
    </g>
    <g id="xtick_3">
     <g id="line2d_5">
      <path d="M 319.951116 193.11625 
L 319.951116 35.43625 
" clip-path="url(#p53a6f3434e)" style="fill: none; stroke-dasharray: 2.96,1.28; stroke-dashoffset: 0; stroke: #b0b0b0; stroke-opacity: 0.3; stroke-width: 0.8"/>
     </g>
     <g id="line2d_6">
      <g>
       <use xlink:href="#m3335bbdaf8" x="319.951116" y="193.11625" style="stroke: #000000; stroke-width: 0.8"/>
      </g>
     </g>
     <g id="text_3">
      <!-- 400 -->
      <g transform="translate(300.863616 215.313125) scale(0.2 -0.2)">
       <defs>
        <path id="DejaVuSans-34" d="M 2419 4116 
L 825 1625 
L 2419 1625 
L 2419 4116 
z
M 2253 4666 
L 3047 4666 
L 3047 1625 
L 3713 1625 
L 3713 1100 
L 3047 1100 
L 3047 0 
L 2419 0 
L 2419 1100 
L 313 1100 
L 313 1709 
L 2253 4666 
z
" transform="scale(0.015625)"/>
       </defs>
       <use xlink:href="#DejaVuSans-34"/>
       <use xlink:href="#DejaVuSans-30" transform="translate(63.623047 0)"/>
       <use xlink:href="#DejaVuSans-30" transform="translate(127.246094 0)"/>
      </g>
     </g>
    </g>
    <g id="xtick_4">
     <g id="line2d_7">
      <path d="M 425.772157 193.11625 
L 425.772157 35.43625 
" clip-path="url(#p53a6f3434e)" style="fill: none; stroke-dasharray: 2.96,1.28; stroke-dashoffset: 0; stroke: #b0b0b0; stroke-opacity: 0.3; stroke-width: 0.8"/>
     </g>
     <g id="line2d_8">
      <g>
       <use xlink:href="#m3335bbdaf8" x="425.772157" y="193.11625" style="stroke: #000000; stroke-width: 0.8"/>
      </g>
     </g>
     <g id="text_4">
      <!-- 600 -->
      <g transform="translate(406.684657 215.313125) scale(0.2 -0.2)">
       <defs>
        <path id="DejaVuSans-36" d="M 2113 2584 
Q 1688 2584 1439 2293 
Q 1191 2003 1191 1497 
Q 1191 994 1439 701 
Q 1688 409 2113 409 
Q 2538 409 2786 701 
Q 3034 994 3034 1497 
Q 3034 2003 2786 2293 
Q 2538 2584 2113 2584 
z
M 3366 4563 
L 3366 3988 
Q 3128 4100 2886 4159 
Q 2644 4219 2406 4219 
Q 1781 4219 1451 3797 
Q 1122 3375 1075 2522 
Q 1259 2794 1537 2939 
Q 1816 3084 2150 3084 
Q 2853 3084 3261 2657 
Q 3669 2231 3669 1497 
Q 3669 778 3244 343 
Q 2819 -91 2113 -91 
Q 1303 -91 875 529 
Q 447 1150 447 2328 
Q 447 3434 972 4092 
Q 1497 4750 2381 4750 
Q 2619 4750 2861 4703 
Q 3103 4656 3366 4563 
z
" transform="scale(0.015625)"/>
       </defs>
       <use xlink:href="#DejaVuSans-36"/>
       <use xlink:href="#DejaVuSans-30" transform="translate(63.623047 0)"/>
       <use xlink:href="#DejaVuSans-30" transform="translate(127.246094 0)"/>
      </g>
     </g>
    </g>
    <g id="xtick_5">
     <g id="line2d_9">
      <path d="M 531.593198 193.11625 
L 531.593198 35.43625 
" clip-path="url(#p53a6f3434e)" style="fill: none; stroke-dasharray: 2.96,1.28; stroke-dashoffset: 0; stroke: #b0b0b0; stroke-opacity: 0.3; stroke-width: 0.8"/>
     </g>
     <g id="line2d_10">
      <g>
       <use xlink:href="#m3335bbdaf8" x="531.593198" y="193.11625" style="stroke: #000000; stroke-width: 0.8"/>
      </g>
     </g>
     <g id="text_5">
      <!-- 800 -->
      <g transform="translate(512.505698 215.313125) scale(0.2 -0.2)">
       <defs>
        <path id="DejaVuSans-38" d="M 2034 2216 
Q 1584 2216 1326 1975 
Q 1069 1734 1069 1313 
Q 1069 891 1326 650 
Q 1584 409 2034 409 
Q 2484 409 2743 651 
Q 3003 894 3003 1313 
Q 3003 1734 2745 1975 
Q 2488 2216 2034 2216 
z
M 1403 2484 
Q 997 2584 770 2862 
Q 544 3141 544 3541 
Q 544 4100 942 4425 
Q 1341 4750 2034 4750 
Q 2731 4750 3128 4425 
Q 3525 4100 3525 3541 
Q 3525 3141 3298 2862 
Q 3072 2584 2669 2484 
Q 3125 2378 3379 2068 
Q 3634 1759 3634 1313 
Q 3634 634 3220 271 
Q 2806 -91 2034 -91 
Q 1263 -91 848 271 
Q 434 634 434 1313 
Q 434 1759 690 2068 
Q 947 2378 1403 2484 
z
M 1172 3481 
Q 1172 3119 1398 2916 
Q 1625 2713 2034 2713 
Q 2441 2713 2670 2916 
Q 2900 3119 2900 3481 
Q 2900 3844 2670 4047 
Q 2441 4250 2034 4250 
Q 1625 4250 1398 4047 
Q 1172 3844 1172 3481 
z
" transform="scale(0.015625)"/>
       </defs>
       <use xlink:href="#DejaVuSans-38"/>
       <use xlink:href="#DejaVuSans-30" transform="translate(63.623047 0)"/>
       <use xlink:href="#DejaVuSans-30" transform="translate(127.246094 0)"/>
      </g>
     </g>
    </g>
    <g id="xtick_6">
     <g id="line2d_11">
      <path d="M 637.414239 193.11625 
L 637.414239 35.43625 
" clip-path="url(#p53a6f3434e)" style="fill: none; stroke-dasharray: 2.96,1.28; stroke-dashoffset: 0; stroke: #b0b0b0; stroke-opacity: 0.3; stroke-width: 0.8"/>
     </g>
     <g id="line2d_12">
      <g>
       <use xlink:href="#m3335bbdaf8" x="637.414239" y="193.11625" style="stroke: #000000; stroke-width: 0.8"/>
      </g>
     </g>
     <g id="text_6">
      <!-- 1000 -->
      <g transform="translate(611.964239 215.313125) scale(0.2 -0.2)">
       <defs>
        <path id="DejaVuSans-31" d="M 794 531 
L 1825 531 
L 1825 4091 
L 703 3866 
L 703 4441 
L 1819 4666 
L 2450 4666 
L 2450 531 
L 3481 531 
L 3481 0 
L 794 0 
L 794 531 
z
" transform="scale(0.015625)"/>
       </defs>
       <use xlink:href="#DejaVuSans-31"/>
       <use xlink:href="#DejaVuSans-30" transform="translate(63.623047 0)"/>
       <use xlink:href="#DejaVuSans-30" transform="translate(127.246094 0)"/>
       <use xlink:href="#DejaVuSans-30" transform="translate(190.869141 0)"/>
      </g>
     </g>
    </g>
    <g id="xtick_7">
     <g id="line2d_13">
      <path d="M 743.23528 193.11625 
L 743.23528 35.43625 
" clip-path="url(#p53a6f3434e)" style="fill: none; stroke-dasharray: 2.96,1.28; stroke-dashoffset: 0; stroke: #b0b0b0; stroke-opacity: 0.3; stroke-width: 0.8"/>
     </g>
     <g id="line2d_14">
      <g>
       <use xlink:href="#m3335bbdaf8" x="743.23528" y="193.11625" style="stroke: #000000; stroke-width: 0.8"/>
      </g>
     </g>
     <g id="text_7">
      <!-- 1200 -->
      <g transform="translate(717.78528 215.313125) scale(0.2 -0.2)">
       <use xlink:href="#DejaVuSans-31"/>
       <use xlink:href="#DejaVuSans-32" transform="translate(63.623047 0)"/>
       <use xlink:href="#DejaVuSans-30" transform="translate(127.246094 0)"/>
       <use xlink:href="#DejaVuSans-30" transform="translate(190.869141 0)"/>
      </g>
     </g>
    </g>
    <g id="xtick_8">
     <g id="line2d_15">
      <path d="M 849.056321 193.11625 
L 849.056321 35.43625 
" clip-path="url(#p53a6f3434e)" style="fill: none; stroke-dasharray: 2.96,1.28; stroke-dashoffset: 0; stroke: #b0b0b0; stroke-opacity: 0.3; stroke-width: 0.8"/>
     </g>
     <g id="line2d_16">
      <g>
       <use xlink:href="#m3335bbdaf8" x="849.056321" y="193.11625" style="stroke: #000000; stroke-width: 0.8"/>
      </g>
     </g>
     <g id="text_8">
      <!-- 1400 -->
      <g transform="translate(823.606321 215.313125) scale(0.2 -0.2)">
       <use xlink:href="#DejaVuSans-31"/>
       <use xlink:href="#DejaVuSans-34" transform="translate(63.623047 0)"/>
       <use xlink:href="#DejaVuSans-30" transform="translate(127.246094 0)"/>
       <use xlink:href="#DejaVuSans-30" transform="translate(190.869141 0)"/>
      </g>
     </g>
    </g>
    <g id="text_9">
     <!-- Time Index -->
     <g transform="translate(410.037656 240.189062) scale(0.22 -0.22)">
      <defs>
       <path id="DejaVuSans-Bold-54" d="M 31 4666 
L 4331 4666 
L 4331 3756 
L 2784 3756 
L 2784 0 
L 1581 0 
L 1581 3756 
L 31 3756 
L 31 4666 
z
" transform="scale(0.015625)"/>
       <path id="DejaVuSans-Bold-69" d="M 538 3500 
L 1656 3500 
L 1656 0 
L 538 0 
L 538 3500 
z
M 538 4863 
L 1656 4863 
L 1656 3950 
L 538 3950 
L 538 4863 
z
" transform="scale(0.015625)"/>
       <path id="DejaVuSans-Bold-6d" d="M 3781 2919 
Q 3994 3244 4286 3414 
Q 4578 3584 4928 3584 
Q 5531 3584 5847 3212 
Q 6163 2841 6163 2131 
L 6163 0 
L 5038 0 
L 5038 1825 
Q 5041 1866 5042 1909 
Q 5044 1953 5044 2034 
Q 5044 2406 4934 2573 
Q 4825 2741 4581 2741 
Q 4263 2741 4089 2478 
Q 3916 2216 3909 1719 
L 3909 0 
L 2784 0 
L 2784 1825 
Q 2784 2406 2684 2573 
Q 2584 2741 2328 2741 
Q 2006 2741 1831 2477 
Q 1656 2213 1656 1722 
L 1656 0 
L 531 0 
L 531 3500 
L 1656 3500 
L 1656 2988 
Q 1863 3284 2130 3434 
Q 2397 3584 2719 3584 
Q 3081 3584 3359 3409 
Q 3638 3234 3781 2919 
z
" transform="scale(0.015625)"/>
       <path id="DejaVuSans-Bold-65" d="M 4031 1759 
L 4031 1441 
L 1416 1441 
Q 1456 1047 1700 850 
Q 1944 653 2381 653 
Q 2734 653 3104 758 
Q 3475 863 3866 1075 
L 3866 213 
Q 3469 63 3072 -14 
Q 2675 -91 2278 -91 
Q 1328 -91 801 392 
Q 275 875 275 1747 
Q 275 2603 792 3093 
Q 1309 3584 2216 3584 
Q 3041 3584 3536 3087 
Q 4031 2591 4031 1759 
z
M 2881 2131 
Q 2881 2450 2695 2645 
Q 2509 2841 2209 2841 
Q 1884 2841 1681 2658 
Q 1478 2475 1428 2131 
L 2881 2131 
z
" transform="scale(0.015625)"/>
       <path id="DejaVuSans-Bold-20" transform="scale(0.015625)"/>
       <path id="DejaVuSans-Bold-49" d="M 588 4666 
L 1791 4666 
L 1791 0 
L 588 0 
L 588 4666 
z
" transform="scale(0.015625)"/>
       <path id="DejaVuSans-Bold-6e" d="M 4056 2131 
L 4056 0 
L 2931 0 
L 2931 347 
L 2931 1631 
Q 2931 2084 2911 2256 
Q 2891 2428 2841 2509 
Q 2775 2619 2662 2680 
Q 2550 2741 2406 2741 
Q 2056 2741 1856 2470 
Q 1656 2200 1656 1722 
L 1656 0 
L 538 0 
L 538 3500 
L 1656 3500 
L 1656 2988 
Q 1909 3294 2193 3439 
Q 2478 3584 2822 3584 
Q 3428 3584 3742 3212 
Q 4056 2841 4056 2131 
z
" transform="scale(0.015625)"/>
       <path id="DejaVuSans-Bold-64" d="M 2919 2988 
L 2919 4863 
L 4044 4863 
L 4044 0 
L 2919 0 
L 2919 506 
Q 2688 197 2409 53 
Q 2131 -91 1766 -91 
Q 1119 -91 703 423 
Q 288 938 288 1747 
Q 288 2556 703 3070 
Q 1119 3584 1766 3584 
Q 2128 3584 2408 3439 
Q 2688 3294 2919 2988 
z
M 2181 722 
Q 2541 722 2730 984 
Q 2919 1247 2919 1747 
Q 2919 2247 2730 2509 
Q 2541 2772 2181 2772 
Q 1825 2772 1636 2509 
Q 1447 2247 1447 1747 
Q 1447 1247 1636 984 
Q 1825 722 2181 722 
z
" transform="scale(0.015625)"/>
       <path id="DejaVuSans-Bold-78" d="M 1422 1791 
L 159 3500 
L 1344 3500 
L 2059 2463 
L 2784 3500 
L 3969 3500 
L 2706 1797 
L 4031 0 
L 2847 0 
L 2059 1106 
L 1281 0 
L 97 0 
L 1422 1791 
z
" transform="scale(0.015625)"/>
      </defs>
      <use xlink:href="#DejaVuSans-Bold-54"/>
      <use xlink:href="#DejaVuSans-Bold-69" transform="translate(68.212891 0)"/>
      <use xlink:href="#DejaVuSans-Bold-6d" transform="translate(102.490234 0)"/>
      <use xlink:href="#DejaVuSans-Bold-65" transform="translate(206.689453 0)"/>
      <use xlink:href="#DejaVuSans-Bold-20" transform="translate(274.511719 0)"/>
      <use xlink:href="#DejaVuSans-Bold-49" transform="translate(309.326172 0)"/>
      <use xlink:href="#DejaVuSans-Bold-6e" transform="translate(346.533203 0)"/>
      <use xlink:href="#DejaVuSans-Bold-64" transform="translate(417.724609 0)"/>
      <use xlink:href="#DejaVuSans-Bold-65" transform="translate(489.306641 0)"/>
      <use xlink:href="#DejaVuSans-Bold-78" transform="translate(557.128906 0)"/>
     </g>
    </g>
   </g>
   <g id="matplotlib.axis_2">
    <g id="ytick_1">
     <g id="line2d_17">
      <path d="M 71.298125 185.948977 
L 885.538125 185.948977 
" clip-path="url(#p53a6f3434e)" style="fill: none; stroke-dasharray: 2.96,1.28; stroke-dashoffset: 0; stroke: #b0b0b0; stroke-opacity: 0.3; stroke-width: 0.8"/>
     </g>
     <g id="line2d_18">
      <defs>
       <path id="m6b73af35ac" d="M 0 0 
L -3.5 0 
" style="stroke: #000000; stroke-width: 0.8"/>
      </defs>
      <g>
       <use xlink:href="#m6b73af35ac" x="71.298125" y="185.948977" style="stroke: #000000; stroke-width: 0.8"/>
      </g>
     </g>
     <g id="text_10">
      <!-- 0.0 -->
      <g transform="translate(32.491875 193.547415) scale(0.2 -0.2)">
       <defs>
        <path id="DejaVuSans-2e" d="M 684 794 
L 1344 794 
L 1344 0 
L 684 0 
L 684 794 
z
" transform="scale(0.015625)"/>
       </defs>
       <use xlink:href="#DejaVuSans-30"/>
       <use xlink:href="#DejaVuSans-2e" transform="translate(63.623047 0)"/>
       <use xlink:href="#DejaVuSans-30" transform="translate(95.410156 0)"/>
      </g>
     </g>
    </g>
    <g id="ytick_2">
     <g id="line2d_19">
      <path d="M 71.298125 114.27625 
L 885.538125 114.27625 
" clip-path="url(#p53a6f3434e)" style="fill: none; stroke-dasharray: 2.96,1.28; stroke-dashoffset: 0; stroke: #b0b0b0; stroke-opacity: 0.3; stroke-width: 0.8"/>
     </g>
     <g id="line2d_20">
      <g>
       <use xlink:href="#m6b73af35ac" x="71.298125" y="114.27625" style="stroke: #000000; stroke-width: 0.8"/>
      </g>
     </g>
     <g id="text_11">
      <!-- 0.5 -->
      <g transform="translate(32.491875 121.874687) scale(0.2 -0.2)">
       <defs>
        <path id="DejaVuSans-35" d="M 691 4666 
L 3169 4666 
L 3169 4134 
L 1269 4134 
L 1269 2991 
Q 1406 3038 1543 3061 
Q 1681 3084 1819 3084 
Q 2600 3084 3056 2656 
Q 3513 2228 3513 1497 
Q 3513 744 3044 326 
Q 2575 -91 1722 -91 
Q 1428 -91 1123 -41 
Q 819 9 494 109 
L 494 744 
Q 775 591 1075 516 
Q 1375 441 1709 441 
Q 2250 441 2565 725 
Q 2881 1009 2881 1497 
Q 2881 1984 2565 2268 
Q 2250 2553 1709 2553 
Q 1456 2553 1204 2497 
Q 953 2441 691 2322 
L 691 4666 
z
" transform="scale(0.015625)"/>
       </defs>
       <use xlink:href="#DejaVuSans-30"/>
       <use xlink:href="#DejaVuSans-2e" transform="translate(63.623047 0)"/>
       <use xlink:href="#DejaVuSans-35" transform="translate(95.410156 0)"/>
      </g>
     </g>
    </g>
    <g id="ytick_3">
     <g id="line2d_21">
      <path d="M 71.298125 42.603523 
L 885.538125 42.603523 
" clip-path="url(#p53a6f3434e)" style="fill: none; stroke-dasharray: 2.96,1.28; stroke-dashoffset: 0; stroke: #b0b0b0; stroke-opacity: 0.3; stroke-width: 0.8"/>
     </g>
     <g id="line2d_22">
      <g>
       <use xlink:href="#m6b73af35ac" x="71.298125" y="42.603523" style="stroke: #000000; stroke-width: 0.8"/>
      </g>
     </g>
     <g id="text_12">
      <!-- 1.0 -->
      <g transform="translate(32.491875 50.20196) scale(0.2 -0.2)">
       <use xlink:href="#DejaVuSans-31"/>
       <use xlink:href="#DejaVuSans-2e" transform="translate(63.623047 0)"/>
       <use xlink:href="#DejaVuSans-30" transform="translate(95.410156 0)"/>
      </g>
     </g>
    </g>
    <g id="text_13">
     <!-- Normalized SST -->
     <g transform="translate(23.916563 200.839375) rotate(-90) scale(0.22 -0.22)">
      <defs>
       <path id="DejaVuSans-4e" d="M 628 4666 
L 1478 4666 
L 3547 763 
L 3547 4666 
L 4159 4666 
L 4159 0 
L 3309 0 
L 1241 3903 
L 1241 0 
L 628 0 
L 628 4666 
z
" transform="scale(0.015625)"/>
       <path id="DejaVuSans-6f" d="M 1959 3097 
Q 1497 3097 1228 2736 
Q 959 2375 959 1747 
Q 959 1119 1226 758 
Q 1494 397 1959 397 
Q 2419 397 2687 759 
Q 2956 1122 2956 1747 
Q 2956 2369 2687 2733 
Q 2419 3097 1959 3097 
z
M 1959 3584 
Q 2709 3584 3137 3096 
Q 3566 2609 3566 1747 
Q 3566 888 3137 398 
Q 2709 -91 1959 -91 
Q 1206 -91 779 398 
Q 353 888 353 1747 
Q 353 2609 779 3096 
Q 1206 3584 1959 3584 
z
" transform="scale(0.015625)"/>
       <path id="DejaVuSans-72" d="M 2631 2963 
Q 2534 3019 2420 3045 
Q 2306 3072 2169 3072 
Q 1681 3072 1420 2755 
Q 1159 2438 1159 1844 
L 1159 0 
L 581 0 
L 581 3500 
L 1159 3500 
L 1159 2956 
Q 1341 3275 1631 3429 
Q 1922 3584 2338 3584 
Q 2397 3584 2469 3576 
Q 2541 3569 2628 3553 
L 2631 2963 
z
" transform="scale(0.015625)"/>
       <path id="DejaVuSans-6d" d="M 3328 2828 
Q 3544 3216 3844 3400 
Q 4144 3584 4550 3584 
Q 5097 3584 5394 3201 
Q 5691 2819 5691 2113 
L 5691 0 
L 5113 0 
L 5113 2094 
Q 5113 2597 4934 2840 
Q 4756 3084 4391 3084 
Q 3944 3084 3684 2787 
Q 3425 2491 3425 1978 
L 3425 0 
L 2847 0 
L 2847 2094 
Q 2847 2600 2669 2842 
Q 2491 3084 2119 3084 
Q 1678 3084 1418 2786 
Q 1159 2488 1159 1978 
L 1159 0 
L 581 0 
L 581 3500 
L 1159 3500 
L 1159 2956 
Q 1356 3278 1631 3431 
Q 1906 3584 2284 3584 
Q 2666 3584 2933 3390 
Q 3200 3197 3328 2828 
z
" transform="scale(0.015625)"/>
       <path id="DejaVuSans-61" d="M 2194 1759 
Q 1497 1759 1228 1600 
Q 959 1441 959 1056 
Q 959 750 1161 570 
Q 1363 391 1709 391 
Q 2188 391 2477 730 
Q 2766 1069 2766 1631 
L 2766 1759 
L 2194 1759 
z
M 3341 1997 
L 3341 0 
L 2766 0 
L 2766 531 
Q 2569 213 2275 61 
Q 1981 -91 1556 -91 
Q 1019 -91 701 211 
Q 384 513 384 1019 
Q 384 1609 779 1909 
Q 1175 2209 1959 2209 
L 2766 2209 
L 2766 2266 
Q 2766 2663 2505 2880 
Q 2244 3097 1772 3097 
Q 1472 3097 1187 3025 
Q 903 2953 641 2809 
L 641 3341 
Q 956 3463 1253 3523 
Q 1550 3584 1831 3584 
Q 2591 3584 2966 3190 
Q 3341 2797 3341 1997 
z
" transform="scale(0.015625)"/>
       <path id="DejaVuSans-6c" d="M 603 4863 
L 1178 4863 
L 1178 0 
L 603 0 
L 603 4863 
z
" transform="scale(0.015625)"/>
       <path id="DejaVuSans-69" d="M 603 3500 
L 1178 3500 
L 1178 0 
L 603 0 
L 603 3500 
z
M 603 4863 
L 1178 4863 
L 1178 4134 
L 603 4134 
L 603 4863 
z
" transform="scale(0.015625)"/>
       <path id="DejaVuSans-7a" d="M 353 3500 
L 3084 3500 
L 3084 2975 
L 922 459 
L 3084 459 
L 3084 0 
L 275 0 
L 275 525 
L 2438 3041 
L 353 3041 
L 353 3500 
z
" transform="scale(0.015625)"/>
       <path id="DejaVuSans-65" d="M 3597 1894 
L 3597 1613 
L 953 1613 
Q 991 1019 1311 708 
Q 1631 397 2203 397 
Q 2534 397 2845 478 
Q 3156 559 3463 722 
L 3463 178 
Q 3153 47 2828 -22 
Q 2503 -91 2169 -91 
Q 1331 -91 842 396 
Q 353 884 353 1716 
Q 353 2575 817 3079 
Q 1281 3584 2069 3584 
Q 2775 3584 3186 3129 
Q 3597 2675 3597 1894 
z
M 3022 2063 
Q 3016 2534 2758 2815 
Q 2500 3097 2075 3097 
Q 1594 3097 1305 2825 
Q 1016 2553 972 2059 
L 3022 2063 
z
" transform="scale(0.015625)"/>
       <path id="DejaVuSans-64" d="M 2906 2969 
L 2906 4863 
L 3481 4863 
L 3481 0 
L 2906 0 
L 2906 525 
Q 2725 213 2448 61 
Q 2172 -91 1784 -91 
Q 1150 -91 751 415 
Q 353 922 353 1747 
Q 353 2572 751 3078 
Q 1150 3584 1784 3584 
Q 2172 3584 2448 3432 
Q 2725 3281 2906 2969 
z
M 947 1747 
Q 947 1113 1208 752 
Q 1469 391 1925 391 
Q 2381 391 2643 752 
Q 2906 1113 2906 1747 
Q 2906 2381 2643 2742 
Q 2381 3103 1925 3103 
Q 1469 3103 1208 2742 
Q 947 2381 947 1747 
z
" transform="scale(0.015625)"/>
       <path id="DejaVuSans-20" transform="scale(0.015625)"/>
       <path id="DejaVuSans-53" d="M 3425 4513 
L 3425 3897 
Q 3066 4069 2747 4153 
Q 2428 4238 2131 4238 
Q 1616 4238 1336 4038 
Q 1056 3838 1056 3469 
Q 1056 3159 1242 3001 
Q 1428 2844 1947 2747 
L 2328 2669 
Q 3034 2534 3370 2195 
Q 3706 1856 3706 1288 
Q 3706 609 3251 259 
Q 2797 -91 1919 -91 
Q 1588 -91 1214 -16 
Q 841 59 441 206 
L 441 856 
Q 825 641 1194 531 
Q 1563 422 1919 422 
Q 2459 422 2753 634 
Q 3047 847 3047 1241 
Q 3047 1584 2836 1778 
Q 2625 1972 2144 2069 
L 1759 2144 
Q 1053 2284 737 2584 
Q 422 2884 422 3419 
Q 422 4038 858 4394 
Q 1294 4750 2059 4750 
Q 2388 4750 2728 4690 
Q 3069 4631 3425 4513 
z
" transform="scale(0.015625)"/>
       <path id="DejaVuSans-54" d="M -19 4666 
L 3928 4666 
L 3928 4134 
L 2272 4134 
L 2272 0 
L 1638 0 
L 1638 4134 
L -19 4134 
L -19 4666 
z
" transform="scale(0.015625)"/>
      </defs>
      <use xlink:href="#DejaVuSans-4e"/>
      <use xlink:href="#DejaVuSans-6f" transform="translate(74.804688 0)"/>
      <use xlink:href="#DejaVuSans-72" transform="translate(135.986328 0)"/>
      <use xlink:href="#DejaVuSans-6d" transform="translate(175.349609 0)"/>
      <use xlink:href="#DejaVuSans-61" transform="translate(272.761719 0)"/>
      <use xlink:href="#DejaVuSans-6c" transform="translate(334.041016 0)"/>
      <use xlink:href="#DejaVuSans-69" transform="translate(361.824219 0)"/>
      <use xlink:href="#DejaVuSans-7a" transform="translate(389.607422 0)"/>
      <use xlink:href="#DejaVuSans-65" transform="translate(442.097656 0)"/>
      <use xlink:href="#DejaVuSans-64" transform="translate(503.621094 0)"/>
      <use xlink:href="#DejaVuSans-20" transform="translate(567.097656 0)"/>
      <use xlink:href="#DejaVuSans-53" transform="translate(598.884766 0)"/>
      <use xlink:href="#DejaVuSans-53" transform="translate(662.361328 0)"/>
      <use xlink:href="#DejaVuSans-54" transform="translate(725.837891 0)"/>
     </g>
    </g>
   </g>
   <g id="line2d_23">
    <path d="M 108.309034 185.948977 
L 118.362033 185.948977 
L 118.891138 183.004783 
L 119.420243 185.212929 
L 119.949349 185.948977 
L 121.007559 185.948977 
L 121.536664 171.780043 
L 122.065769 162.763448 
L 122.594875 160.923327 
L 123.653085 119.152572 
L 124.18219 125.408984 
L 124.711295 130.009288 
L 125.240401 90.446678 
L 125.769506 97.807164 
L 126.298611 67.813185 
L 126.827716 79.40595 
L 127.356821 85.478351 
L 127.885927 80.510023 
L 128.415032 118.416523 
L 128.944137 133.505518 
L 129.473242 115.104305 
L 130.002347 113.080171 
L 130.531453 144.178222 
L 131.060558 154.482902 
L 131.589663 167.363751 
L 132.118768 172.332079 
L 132.647874 185.212929 
L 133.176979 185.948977 
L 144.817293 185.948977 
L 145.346398 184.844904 
L 145.875504 184.108856 
L 146.404609 185.948977 
L 147.462819 185.948977 
L 147.991924 184.108856 
L 148.52103 183.372807 
L 149.050135 185.948977 
L 149.57924 185.396941 
L 150.108345 183.372807 
L 150.63745 171.964055 
L 151.166556 168.835849 
L 151.695661 155.034938 
L 152.753871 164.787582 
L 153.282977 164.419557 
L 153.812082 161.291351 
L 154.341187 151.538708 
L 154.870292 153.746853 
L 155.399397 146.754392 
L 155.928503 144.178222 
L 156.457608 148.594514 
L 156.986713 151.906732 
L 157.515818 149.514574 
L 158.044923 144.730259 
L 158.574029 142.338101 
L 159.103134 139.025882 
L 159.632239 151.354696 
L 160.161344 166.627703 
L 160.690449 169.203873 
L 161.219555 174.908249 
L 161.74866 183.740832 
L 162.277765 185.948977 
L 163.335975 185.948977 
L 163.865081 185.764965 
L 164.394186 185.948977 
L 164.923291 185.580953 
L 165.452396 185.948977 
L 171.272553 185.948977 
L 171.801659 185.764965 
L 172.330764 185.948977 
L 176.563606 185.948977 
L 177.092711 183.740832 
L 177.621816 184.47688 
L 178.150921 180.796637 
L 178.680026 158.899193 
L 179.209132 157.611108 
L 179.738237 152.458768 
L 180.796447 121.912754 
L 181.325552 100.383334 
L 181.854658 115.104305 
L 182.912868 157.243084 
L 183.441973 166.995727 
L 183.971078 173.988188 
L 184.500184 159.267217 
L 185.029289 153.562841 
L 185.558394 155.21895 
L 186.087499 169.387885 
L 186.616604 161.291351 
L 187.14571 159.267217 
L 187.674815 168.0998 
L 188.20392 183.004783 
L 188.733025 185.948977 
L 200.902445 185.948977 
L 201.43155 185.212929 
L 201.960655 184.108856 
L 202.489761 183.372807 
L 203.018866 183.372807 
L 203.547971 181.348674 
L 204.077076 182.636759 
L 204.606181 178.772504 
L 205.135287 171.228006 
L 206.722602 94.678957 
L 207.251707 76.645768 
L 207.780813 66.709113 
L 208.309918 52.356166 
L 208.839023 42.603523 
L 209.368128 50.332032 
L 209.897233 61.372761 
L 210.426339 53.092215 
L 210.955444 76.277744 
L 211.484549 126.145033 
L 212.013654 135.897676 
L 212.542759 149.698586 
L 213.071865 157.611108 
L 213.60097 169.203873 
L 214.130075 171.043994 
L 214.65918 167.363751 
L 215.188286 178.40448 
L 215.717391 181.348674 
L 216.246496 185.948977 
L 217.304706 185.948977 
L 217.833812 184.844904 
L 218.362917 185.948977 
L 218.892022 182.452747 
L 219.421127 185.948977 
L 220.479338 185.948977 
L 221.008443 185.580953 
L 221.537548 185.948977 
L 227.88681 185.948977 
L 228.945021 185.580953 
L 229.474126 177.300407 
L 230.003231 180.612625 
L 230.532336 185.580953 
L 231.061442 179.692565 
L 231.590547 185.948977 
L 233.177862 185.948977 
L 233.706968 183.556819 
L 234.236073 169.755909 
L 234.765178 148.410501 
L 235.294283 112.712147 
L 235.823388 105.535674 
L 236.352494 105.903698 
L 236.881599 82.902181 
L 237.410704 94.678957 
L 237.939809 125.04096 
L 238.468915 147.858465 
L 239.527125 175.276273 
L 240.05623 185.948977 
L 241.114441 185.948977 
L 241.643546 182.820771 
L 242.172651 185.948977 
L 243.759967 185.948977 
L 244.289072 185.764965 
L 244.818177 185.764965 
L 245.347282 185.948977 
L 254.342071 185.948977 
L 254.871176 181.164662 
L 255.400281 182.636759 
L 255.929386 182.820771 
L 256.458491 183.740832 
L 256.987597 185.764965 
L 257.516702 185.948977 
L 258.574912 185.948977 
L 259.104018 185.764965 
L 259.633123 185.948977 
L 260.691333 177.668431 
L 261.220438 167.915788 
L 261.749544 169.939921 
L 262.278649 164.971594 
L 262.807754 157.243084 
L 263.336859 144.362234 
L 263.865964 146.202356 
L 264.39507 150.986671 
L 264.924175 149.698586 
L 265.45328 143.258162 
L 265.982385 133.873543 
L 266.51149 131.665397 
L 267.040596 135.161628 
L 267.569701 150.986671 
L 268.098806 154.29889 
L 268.627911 166.259679 
L 269.157016 158.899193 
L 269.686122 161.659375 
L 270.744332 180.796637 
L 271.273437 177.116395 
L 271.802542 185.948977 
L 272.331648 185.948977 
L 272.860753 184.47688 
L 273.389858 185.948977 
L 282.913752 185.948977 
L 283.442857 182.820771 
L 283.971962 185.948977 
L 286.088383 185.948977 
L 286.617488 175.644298 
L 287.146593 176.012322 
L 287.675699 165.155606 
L 288.204804 158.899193 
L 288.733909 150.802659 
L 289.263014 134.425579 
L 289.792119 123.016826 
L 290.321225 98.543212 
L 290.85033 106.639746 
L 291.379435 100.383334 
L 291.90854 103.143516 
L 292.437645 79.037926 
L 292.966751 87.13446 
L 293.495856 126.513057 
L 294.024961 149.14655 
L 294.554066 147.306429 
L 295.083171 157.611108 
L 295.612277 159.083205 
L 296.141382 167.547764 
L 296.670487 163.683509 
L 297.199592 171.964055 
L 297.728697 171.412018 
L 298.257803 159.267217 
L 298.786908 169.755909 
L 299.316013 184.660892 
L 299.845118 185.948977 
L 304.607065 185.948977 
L 305.13617 185.396941 
L 305.665276 185.948977 
L 308.310802 185.948977 
L 308.839907 185.764965 
L 309.369012 185.948977 
L 310.427222 185.948977 
L 310.956328 184.47688 
L 311.485433 180.244601 
L 312.014538 182.268735 
L 312.543643 185.948977 
L 313.072748 185.396941 
L 313.601854 185.948977 
L 314.130959 185.948977 
L 314.660064 171.964055 
L 315.189169 167.179739 
L 315.718274 160.37129 
L 316.776485 126.881081 
L 317.30559 118.784547 
L 317.834695 116.576402 
L 318.3638 88.974581 
L 318.892906 88.974581 
L 319.422011 98.911237 
L 319.951116 104.615613 
L 320.480221 95.967042 
L 321.009327 81.614096 
L 321.538432 84.742302 
L 322.067537 105.903698 
L 322.596642 107.743819 
L 323.125747 120.440657 
L 323.654853 123.384851 
L 324.183958 132.953482 
L 324.713063 136.817737 
L 325.242168 136.817737 
L 325.771273 131.113361 
L 326.300379 140.129955 
L 326.829484 152.642781 
L 327.358589 174.172201 
L 327.887694 184.844904 
L 328.416799 185.948977 
L 330.004115 185.948977 
L 330.53322 185.396941 
L 331.062325 185.948977 
L 333.707851 185.948977 
L 334.236957 185.764965 
L 334.766062 185.948977 
L 335.295167 185.028917 
L 335.824272 185.948977 
L 338.998903 185.948977 
L 339.528009 185.028917 
L 340.057114 184.844904 
L 340.586219 182.084722 
L 341.115324 185.948977 
L 342.173535 185.948977 
L 342.70264 182.452747 
L 343.231745 180.98065 
L 343.76085 167.547764 
L 344.819061 122.280778 
L 345.348166 123.384851 
L 345.877271 91.734763 
L 346.406376 79.773974 
L 346.935482 90.262666 
L 347.464587 151.72272 
L 347.993692 150.066611 
L 348.522797 157.79512 
L 349.051902 140.681992 
L 349.581008 140.313967 
L 350.110113 149.14655 
L 350.639218 140.681992 
L 351.168323 123.016826 
L 351.697428 132.585458 
L 352.226534 152.826793 
L 352.755639 152.826793 
L 353.284744 151.170683 
L 353.813849 173.068128 
L 354.342954 184.844904 
L 354.87206 185.948977 
L 365.454164 185.948977 
L 365.983269 185.212929 
L 366.512374 185.764965 
L 367.041479 185.028917 
L 367.570585 185.948977 
L 368.628795 185.948977 
L 369.1579 181.348674 
L 369.687005 185.948977 
L 370.216111 185.948977 
L 370.745216 179.140528 
L 371.274321 177.116395 
L 371.803426 155.954999 
L 372.332531 147.122416 
L 373.390742 112.344123 
L 373.919847 74.989659 
L 374.448952 97.807164 
L 374.978057 112.344123 
L 375.507163 101.303394 
L 376.036268 105.903698 
L 376.565373 112.344123 
L 377.094478 106.271722 
L 377.623583 103.879564 
L 378.152689 121.912754 
L 378.681794 130.929348 
L 380.269109 175.276273 
L 380.798215 182.636759 
L 381.32732 185.948977 
L 381.856425 184.660892 
L 382.38553 185.948977 
L 389.263898 185.948977 
L 389.793003 185.212929 
L 390.322108 185.948977 
L 395.084055 185.948977 
L 395.61316 185.764965 
L 396.142266 185.948977 
L 397.200476 185.948977 
L 397.729581 183.372807 
L 398.258686 179.508552 
L 398.787792 174.172201 
L 399.316897 164.419557 
L 399.846002 150.434635 
L 400.375107 144.362234 
L 401.962423 111.608074 
L 402.491528 112.712147 
L 403.020633 111.24005 
L 403.549738 109.215916 
L 404.078844 119.336584 
L 404.607949 122.648802 
L 405.137054 142.338101 
L 405.666159 152.826793 
L 406.195265 156.323023 
L 406.72437 169.755909 
L 407.78258 185.948977 
L 409.899001 185.948977 
L 410.428106 184.660892 
L 410.957211 185.948977 
L 419.952 185.948977 
L 420.481105 185.396941 
L 421.01021 185.948977 
L 421.539315 185.948977 
L 422.068421 185.028917 
L 422.597526 185.948977 
L 424.184841 185.948977 
L 424.713947 185.396941 
L 425.243052 180.612625 
L 425.772157 169.571897 
L 426.301262 167.179739 
L 426.830368 156.323023 
L 427.359473 136.633725 
L 427.888578 136.2657 
L 428.417683 134.241567 
L 428.946788 118.784547 
L 429.475894 112.712147 
L 430.004999 98.175188 
L 430.534104 115.472329 
L 431.063209 113.81622 
L 431.592314 106.639746 
L 432.12142 119.152572 
L 432.650525 150.434635 
L 433.708735 179.508552 
L 434.23784 185.948977 
L 435.825156 185.948977 
L 436.883366 185.580953 
L 437.412472 185.948977 
L 441.645313 185.948977 
L 442.174418 185.028917 
L 442.703524 185.948977 
L 443.232629 185.396941 
L 443.761734 185.948977 
L 444.290839 185.948977 
L 444.819944 185.396941 
L 445.34905 185.948977 
L 448.523681 185.948977 
L 449.052786 184.660892 
L 449.581891 185.948977 
L 450.110997 185.948977 
L 450.640102 184.47688 
L 451.169207 184.660892 
L 451.698312 185.948977 
L 452.227417 180.060589 
L 452.756523 172.884116 
L 453.285628 173.068128 
L 453.814733 175.092261 
L 454.343838 149.698586 
L 454.872943 118.416523 
L 455.931154 85.662363 
L 456.460259 75.909719 
L 456.989364 70.573368 
L 457.518469 73.885586 
L 458.047575 78.301877 
L 458.57668 116.208377 
L 459.105785 121.544729 
L 459.63489 103.879564 
L 460.163995 102.775491 
L 460.693101 132.217433 
L 461.222206 127.249106 
L 462.280416 157.611108 
L 462.809521 163.315484 
L 463.338627 177.668431 
L 463.867732 184.108856 
L 464.396837 185.948977 
L 468.100574 185.948977 
L 468.629679 185.396941 
L 469.158784 185.948977 
L 474.449836 185.948977 
L 474.978941 185.028917 
L 475.508046 185.948977 
L 476.037152 184.660892 
L 476.566257 184.108856 
L 477.095362 185.764965 
L 477.624467 185.948977 
L 478.153572 185.948977 
L 478.682678 184.47688 
L 479.211783 185.948977 
L 480.269993 164.971594 
L 480.799098 139.209895 
L 481.328204 123.752875 
L 481.857309 100.93537 
L 482.386414 88.606557 
L 482.915519 99.279261 
L 483.444624 120.072632 
L 483.97373 103.879564 
L 484.502835 111.976098 
L 485.03194 112.344123 
L 485.561045 119.152572 
L 486.09015 144.914271 
L 486.619256 147.122416 
L 487.148361 146.386368 
L 487.677466 143.810198 
L 488.206571 137.92181 
L 488.735676 135.529652 
L 489.264782 143.810198 
L 489.793887 143.99421 
L 490.322992 140.313967 
L 490.852097 149.330562 
L 491.381203 162.211412 
L 491.910308 170.307946 
L 492.439413 185.948977 
L 494.026729 185.948977 
L 494.555834 181.348674 
L 495.084939 185.212929 
L 495.614044 185.948977 
L 504.079727 185.948977 
L 504.608833 183.556819 
L 505.137938 184.108856 
L 505.667043 185.948977 
L 506.196148 184.47688 
L 506.725253 185.948977 
L 507.254359 182.268735 
L 507.783464 174.356213 
L 508.841674 142.154089 
L 509.370779 131.665397 
L 509.899885 116.576402 
L 510.42899 96.703091 
L 510.958095 85.110326 
L 511.4872 51.620117 
L 512.016306 43.339571 
L 512.545411 73.885586 
L 513.603621 86.030387 
L 514.132726 87.13446 
L 514.661832 82.166132 
L 515.190937 98.911237 
L 515.720042 98.911237 
L 516.249147 107.743819 
L 516.778252 110.872025 
L 517.836463 138.84187 
L 518.365568 157.79512 
L 518.894673 152.274756 
L 519.423778 156.691048 
L 519.952884 173.068128 
L 520.481989 185.948977 
L 521.540199 185.948977 
L 522.069304 185.764965 
L 522.59841 184.844904 
L 523.127515 185.764965 
L 523.65662 185.948977 
L 527.889462 185.948977 
L 528.418567 185.580953 
L 528.947672 185.948977 
L 530.534988 185.948977 
L 531.064093 185.764965 
L 531.593198 185.948977 
L 532.122303 185.764965 
L 532.651409 185.948977 
L 533.180514 185.580953 
L 533.709619 184.47688 
L 534.238724 180.612625 
L 534.767829 177.852443 
L 535.296935 165.155606 
L 535.82604 160.003266 
L 536.355145 151.538708 
L 536.88425 140.497979 
L 537.413355 124.672936 
L 537.942461 96.703091 
L 538.471566 89.342605 
L 539.529776 56.956469 
L 540.058881 52.356166 
L 540.587987 46.283765 
L 541.117092 64.684979 
L 541.646197 75.173671 
L 542.704407 65.237016 
L 543.233513 107.007771 
L 543.762618 106.639746 
L 544.291723 111.608074 
L 544.820828 118.416523 
L 545.349933 132.585458 
L 545.879039 134.977615 
L 546.408144 143.810198 
L 546.937249 166.443691 
L 547.466354 182.084722 
L 547.995459 183.740832 
L 548.524565 185.028917 
L 549.05367 185.948977 
L 552.757406 185.948977 
L 553.286512 185.396941 
L 553.815617 185.764965 
L 554.344722 185.580953 
L 554.873827 185.948977 
L 559.635774 185.948977 
L 560.164879 185.396941 
L 560.693984 185.948977 
L 561.752195 185.948977 
L 562.2813 185.764965 
L 562.810405 185.948977 
L 563.33951 181.348674 
L 563.868616 172.148067 
L 564.397721 170.307946 
L 564.926826 157.611108 
L 565.455931 126.881081 
L 565.985036 113.080171 
L 566.514142 103.51154 
L 567.043247 98.911237 
L 567.572352 113.448195 
L 568.101457 122.648802 
L 568.630562 95.78303 
L 569.159668 114.184244 
L 569.688773 102.775491 
L 570.217878 122.280778 
L 570.746983 113.81622 
L 571.276088 128.905215 
L 571.805194 116.576402 
L 572.334299 120.808681 
L 572.863404 140.313967 
L 573.392509 152.090744 
L 573.921615 158.347157 
L 574.45072 166.811715 
L 574.979825 166.995727 
L 575.50893 162.027399 
L 576.038035 182.268735 
L 576.567141 185.948977 
L 579.741772 185.948977 
L 580.270877 185.580953 
L 580.799982 185.948977 
L 586.091034 185.948977 
L 586.620139 185.396941 
L 587.149245 185.948977 
L 587.67835 185.764965 
L 588.207455 185.764965 
L 588.73656 185.396941 
L 589.265665 181.532686 
L 589.794771 178.772504 
L 590.323876 169.755909 
L 590.852981 162.94746 
L 591.382086 125.408984 
L 591.911191 112.344123 
L 592.440297 82.166132 
L 593.498507 59.164615 
L 594.027612 60.084676 
L 594.556718 56.772457 
L 595.085823 77.565829 
L 595.614928 74.989659 
L 596.144033 66.157076 
L 596.673138 66.709113 
L 597.202244 65.237016 
L 597.731349 63.02887 
L 598.789559 90.63069 
L 599.318664 116.944426 
L 599.84777 111.976098 
L 600.376875 110.872025 
L 600.90598 137.185761 
L 601.435085 144.178222 
L 601.96419 160.923327 
L 602.493296 171.780043 
L 603.022401 172.148067 
L 604.080611 185.948977 
L 614.13361 185.948977 
L 615.19182 184.108856 
L 615.720926 185.396941 
L 616.250031 185.948977 
L 618.366452 185.948977 
L 618.895557 177.484419 
L 619.424662 166.443691 
L 619.953767 138.105822 
L 620.482873 119.336584 
L 621.011978 107.375795 
L 621.541083 104.799625 
L 622.070188 105.535674 
L 622.599293 101.671419 
L 623.128399 118.784547 
L 623.657504 126.145033 
L 624.186609 130.009288 
L 624.715714 127.249106 
L 625.244819 115.472329 
L 625.773925 123.016826 
L 626.832135 135.34564 
L 627.36124 138.105822 
L 627.890345 154.114878 
L 628.419451 150.618647 
L 628.948556 160.739315 
L 629.477661 175.276273 
L 630.006766 185.212929 
L 630.535871 185.948977 
L 631.064977 184.108856 
L 631.594082 185.948977 
L 641.647081 185.948977 
L 642.176186 168.651836 
L 642.705291 174.908249 
L 643.234396 185.764965 
L 643.763502 185.948977 
L 645.879922 185.948977 
L 646.409028 185.212929 
L 646.938133 177.484419 
L 647.467238 160.923327 
L 647.996343 135.713664 
L 648.525448 120.808681 
L 649.054554 99.279261 
L 649.583659 97.439139 
L 650.112764 94.310933 
L 650.641869 90.078654 
L 651.170974 90.446678 
L 651.70008 97.807164 
L 652.75829 105.351661 
L 653.287395 123.016826 
L 653.8165 120.440657 
L 654.345606 120.072632 
L 654.874711 128.353178 
L 655.403816 130.929348 
L 655.932921 140.129955 
L 657.520237 178.588492 
L 658.049342 185.948977 
L 665.98592 185.948977 
L 666.515025 185.764965 
L 667.044131 185.948977 
L 669.160551 185.948977 
L 669.689657 185.396941 
L 670.747867 185.396941 
L 671.276972 181.532686 
L 671.806077 181.90071 
L 672.335183 176.012322 
L 672.864288 178.40448 
L 673.393393 169.387885 
L 673.922498 162.579436 
L 674.451603 150.066611 
L 674.980709 152.458768 
L 675.509814 146.57038 
L 676.038919 116.208377 
L 676.568024 109.951965 
L 677.097129 95.967042 
L 677.626235 89.342605 
L 678.15534 86.398411 
L 678.684445 92.838836 
L 679.742656 74.25361 
L 680.271761 88.606557 
L 680.800866 107.007771 
L 681.329971 133.321506 
L 681.859076 151.72272 
L 682.388182 146.754392 
L 682.917287 157.611108 
L 683.446392 161.843387 
L 683.975497 181.90071 
L 684.504602 183.740832 
L 685.033708 174.540225 
L 685.562813 172.700103 
L 686.091918 185.948977 
L 698.790443 185.948977 
L 699.319548 185.212929 
L 699.848653 181.348674 
L 700.377759 179.140528 
L 700.906864 163.499497 
L 701.435969 155.21895 
L 702.494179 128.905215 
L 703.023285 108.111843 
L 704.081495 78.301877 
L 704.6106 74.069598 
L 705.139705 102.407467 
L 705.668811 96.335067 
L 706.197916 76.645768 
L 706.727021 86.766436 
L 707.256126 74.621635 
L 707.785231 71.125404 
L 708.314337 93.20686 
L 708.843442 105.351661 
L 709.901652 112.344123 
L 710.430757 124.672936 
L 711.488968 139.761931 
L 712.018073 151.906732 
L 712.547178 160.555302 
L 713.076283 178.036455 
L 713.605389 183.556819 
L 714.663599 185.396941 
L 715.192704 185.764965 
L 722.600177 185.764965 
L 723.129282 185.580953 
L 723.658388 185.764965 
L 727.362124 185.764965 
L 727.891229 182.820771 
L 728.420334 185.580953 
L 728.94944 184.660892 
L 729.478545 169.755909 
L 730.00765 158.347157 
L 730.536755 150.066611 
L 731.06586 135.713664 
L 731.594966 126.513057 
L 732.124071 124.488924 
L 732.653176 134.425579 
L 733.182281 113.81622 
L 733.711386 119.88862 
L 734.240492 110.688013 
L 735.298702 143.810198 
L 735.827807 135.161628 
L 736.886018 142.338101 
L 737.415123 160.37129 
L 737.944228 161.107339 
L 738.473333 152.642781 
L 739.002438 172.884116 
L 740.060649 185.396941 
L 740.589754 185.764965 
L 742.17707 185.764965 
L 742.706175 185.396941 
L 743.23528 185.764965 
L 746.939017 185.764965 
L 747.468122 185.580953 
L 747.997227 185.764965 
L 749.584543 185.764965 
L 750.113648 185.580953 
L 750.642753 185.764965 
L 754.875595 185.764965 
L 755.4047 185.580953 
L 755.933805 185.764965 
L 756.46291 184.660892 
L 756.992015 172.332079 
L 757.521121 139.025882 
L 758.050226 120.256644 
L 759.108436 94.310933 
L 759.637541 103.143516 
L 760.166647 98.911237 
L 760.695752 100.383334 
L 761.224857 124.672936 
L 761.753962 114.552268 
L 762.283067 126.881081 
L 762.812173 128.353178 
L 763.341278 141.234028 
L 763.870383 143.626186 
L 764.399488 140.681992 
L 764.928594 142.890137 
L 766.515909 169.755909 
L 767.045014 168.283812 
L 767.57412 174.356213 
L 768.103225 183.740832 
L 768.63233 185.764965 
L 769.161435 185.028917 
L 769.69054 185.764965 
L 772.336066 185.764965 
L 772.865172 185.028917 
L 773.394277 185.764965 
L 773.923382 185.764965 
L 774.452487 185.948977 
L 778.685329 185.948977 
L 779.214434 185.580953 
L 779.743539 181.532686 
L 780.272644 185.764965 
L 780.80175 185.948977 
L 781.85996 185.948977 
L 782.389065 184.660892 
L 782.91817 185.948977 
L 783.447276 185.948977 
L 783.976381 183.372807 
L 784.505486 174.908249 
L 785.034591 154.114878 
L 785.563697 144.546246 
L 786.092802 137.737797 
L 786.621907 138.289834 
L 787.151012 144.546246 
L 787.680117 137.737797 
L 788.209223 90.814703 
L 788.738328 86.766436 
L 789.267433 104.983637 
L 789.796538 113.81622 
L 790.325643 115.472329 
L 790.854749 124.120899 
L 791.383854 127.985154 
L 791.912959 128.721203 
L 792.442064 139.025882 
L 792.971169 143.258162 
L 793.500275 152.274756 
L 794.02938 159.267217 
L 794.558485 158.163145 
L 795.08759 164.787582 
L 795.616695 161.659375 
L 796.674906 183.740832 
L 797.204011 185.948977 
L 797.733116 185.948977 
L 798.262221 185.580953 
L 798.791327 185.948977 
L 808.31522 185.948977 
L 808.844326 185.396941 
L 809.373431 185.396941 
L 809.902536 185.948977 
L 810.431641 184.660892 
L 810.960746 179.140528 
L 811.489852 156.691048 
L 812.018957 153.378829 
L 812.548062 120.440657 
L 813.077167 96.703091 
L 813.606272 82.534156 
L 814.135378 79.037926 
L 814.664483 80.141999 
L 815.193588 76.645768 
L 815.722693 91.182727 
L 816.251798 92.838836 
L 816.780904 101.671419 
L 817.310009 101.671419 
L 817.839114 97.807164 
L 818.897324 121.912754 
L 819.42643 117.680475 
L 819.955535 137.737797 
L 820.48464 149.14655 
L 821.013745 155.586975 
L 821.54285 151.538708 
L 822.071956 166.259679 
L 822.601061 173.068128 
L 823.130166 173.25214 
L 823.659271 180.796637 
L 824.188376 185.948977 
L 832.65406 185.948977 
L 833.183165 185.396941 
L 833.71227 185.580953 
L 834.241375 185.948977 
L 836.357796 185.948977 
L 836.886901 184.108856 
L 837.416007 183.372807 
L 837.945112 185.948977 
L 838.474217 185.764965 
L 839.003322 179.692565 
L 839.532427 171.043994 
L 840.061533 159.083205 
L 840.590638 134.977615 
L 841.119743 125.04096 
L 841.648848 98.175188 
L 842.177953 115.472329 
L 842.707059 111.976098 
L 843.236164 103.879564 
L 843.765269 89.342605 
L 844.294374 90.814703 
L 844.823479 94.678957 
L 845.352585 97.439139 
L 845.88169 109.583941 
L 846.410795 109.215916 
L 846.9399 114.552268 
L 847.469005 111.976098 
L 847.998111 137.185761 
L 848.527216 134.241567 
L 848.527216 134.241567 
" clip-path="url(#p53a6f3434e)" style="fill: none; stroke: #9467bd; stroke-opacity: 0.9; stroke-width: 1.8; stroke-linecap: square"/>
   </g>
   <g id="patch_3">
    <path d="M 71.298125 193.11625 
L 71.298125 35.43625 
" style="fill: none; stroke: #000000; stroke-width: 0.8; stroke-linejoin: miter; stroke-linecap: square"/>
   </g>
   <g id="patch_4">
    <path d="M 885.538125 193.11625 
L 885.538125 35.43625 
" style="fill: none; stroke: #000000; stroke-width: 0.8; stroke-linejoin: miter; stroke-linecap: square"/>
   </g>
   <g id="patch_5">
    <path d="M 71.298125 193.11625 
L 885.538125 193.11625 
" style="fill: none; stroke: #000000; stroke-width: 0.8; stroke-linejoin: miter; stroke-linecap: square"/>
   </g>
   <g id="patch_6">
    <path d="M 71.298125 35.43625 
L 885.538125 35.43625 
" style="fill: none; stroke: #000000; stroke-width: 0.8; stroke-linejoin: miter; stroke-linecap: square"/>
   </g>
   <g id="text_14">
    <!-- Sensor Location 5650 -->
    <g transform="translate(348.360625 25.43625) scale(0.24 -0.24)">
     <defs>
      <path id="DejaVuSans-6e" d="M 3513 2113 
L 3513 0 
L 2938 0 
L 2938 2094 
Q 2938 2591 2744 2837 
Q 2550 3084 2163 3084 
Q 1697 3084 1428 2787 
Q 1159 2491 1159 1978 
L 1159 0 
L 581 0 
L 581 3500 
L 1159 3500 
L 1159 2956 
Q 1366 3272 1645 3428 
Q 1925 3584 2291 3584 
Q 2894 3584 3203 3211 
Q 3513 2838 3513 2113 
z
" transform="scale(0.015625)"/>
      <path id="DejaVuSans-73" d="M 2834 3397 
L 2834 2853 
Q 2591 2978 2328 3040 
Q 2066 3103 1784 3103 
Q 1356 3103 1142 2972 
Q 928 2841 928 2578 
Q 928 2378 1081 2264 
Q 1234 2150 1697 2047 
L 1894 2003 
Q 2506 1872 2764 1633 
Q 3022 1394 3022 966 
Q 3022 478 2636 193 
Q 2250 -91 1575 -91 
Q 1294 -91 989 -36 
Q 684 19 347 128 
L 347 722 
Q 666 556 975 473 
Q 1284 391 1588 391 
Q 1994 391 2212 530 
Q 2431 669 2431 922 
Q 2431 1156 2273 1281 
Q 2116 1406 1581 1522 
L 1381 1569 
Q 847 1681 609 1914 
Q 372 2147 372 2553 
Q 372 3047 722 3315 
Q 1072 3584 1716 3584 
Q 2034 3584 2315 3537 
Q 2597 3491 2834 3397 
z
" transform="scale(0.015625)"/>
      <path id="DejaVuSans-4c" d="M 628 4666 
L 1259 4666 
L 1259 531 
L 3531 531 
L 3531 0 
L 628 0 
L 628 4666 
z
" transform="scale(0.015625)"/>
      <path id="DejaVuSans-63" d="M 3122 3366 
L 3122 2828 
Q 2878 2963 2633 3030 
Q 2388 3097 2138 3097 
Q 1578 3097 1268 2742 
Q 959 2388 959 1747 
Q 959 1106 1268 751 
Q 1578 397 2138 397 
Q 2388 397 2633 464 
Q 2878 531 3122 666 
L 3122 134 
Q 2881 22 2623 -34 
Q 2366 -91 2075 -91 
Q 1284 -91 818 406 
Q 353 903 353 1747 
Q 353 2603 823 3093 
Q 1294 3584 2113 3584 
Q 2378 3584 2631 3529 
Q 2884 3475 3122 3366 
z
" transform="scale(0.015625)"/>
      <path id="DejaVuSans-74" d="M 1172 4494 
L 1172 3500 
L 2356 3500 
L 2356 3053 
L 1172 3053 
L 1172 1153 
Q 1172 725 1289 603 
Q 1406 481 1766 481 
L 2356 481 
L 2356 0 
L 1766 0 
Q 1100 0 847 248 
Q 594 497 594 1153 
L 594 3053 
L 172 3053 
L 172 3500 
L 594 3500 
L 594 4494 
L 1172 4494 
z
" transform="scale(0.015625)"/>
     </defs>
     <use xlink:href="#DejaVuSans-53"/>
     <use xlink:href="#DejaVuSans-65" transform="translate(63.476562 0)"/>
     <use xlink:href="#DejaVuSans-6e" transform="translate(125 0)"/>
     <use xlink:href="#DejaVuSans-73" transform="translate(188.378906 0)"/>
     <use xlink:href="#DejaVuSans-6f" transform="translate(240.478516 0)"/>
     <use xlink:href="#DejaVuSans-72" transform="translate(301.660156 0)"/>
     <use xlink:href="#DejaVuSans-20" transform="translate(342.773438 0)"/>
     <use xlink:href="#DejaVuSans-4c" transform="translate(374.560547 0)"/>
     <use xlink:href="#DejaVuSans-6f" transform="translate(428.523438 0)"/>
     <use xlink:href="#DejaVuSans-63" transform="translate(489.705078 0)"/>
     <use xlink:href="#DejaVuSans-61" transform="translate(544.685547 0)"/>
     <use xlink:href="#DejaVuSans-74" transform="translate(605.964844 0)"/>
     <use xlink:href="#DejaVuSans-69" transform="translate(645.173828 0)"/>
     <use xlink:href="#DejaVuSans-6f" transform="translate(672.957031 0)"/>
     <use xlink:href="#DejaVuSans-6e" transform="translate(734.138672 0)"/>
     <use xlink:href="#DejaVuSans-20" transform="translate(797.517578 0)"/>
     <use xlink:href="#DejaVuSans-35" transform="translate(829.304688 0)"/>
     <use xlink:href="#DejaVuSans-36" transform="translate(892.927734 0)"/>
     <use xlink:href="#DejaVuSans-35" transform="translate(956.550781 0)"/>
     <use xlink:href="#DejaVuSans-30" transform="translate(1020.173828 0)"/>
    </g>
   </g>
  </g>
 </g>
 <defs>
  <clipPath id="p53a6f3434e">
   <rect x="71.298125" y="35.43625" width="814.24" height="157.68"/>
  </clipPath>
 </defs>
</svg>
