<?xml version="1.0" encoding="utf-8" standalone="no"?>
<!DOCTYPE svg PUBLIC "-//W3C//DTD SVG 1.1//EN"
  "http://www.w3.org/Graphics/SVG/1.1/DTD/svg11.dtd">
<svg xmlns:xlink="http://www.w3.org/1999/xlink" width="892.738125pt" height="251.964375pt" viewBox="0 0 892.738125 251.964375" xmlns="http://www.w3.org/2000/svg" version="1.1">
 <metadata>
  <rdf:RDF xmlns:dc="http://purl.org/dc/elements/1.1/" xmlns:cc="http://creativecommons.org/ns#" xmlns:rdf="http://www.w3.org/1999/02/22-rdf-syntax-ns#">
   <cc:Work>
    <dc:type rdf:resource="http://purl.org/dc/dcmitype/StillImage"/>
    <dc:date>2026-02-24T16:51:49.960371</dc:date>
    <dc:format>image/svg+xml</dc:format>
    <dc:creator>
     <cc:Agent>
      <dc:title>Matplotlib v3.10.6, https://matplotlib.org/</dc:title>
     </cc:Agent>
    </dc:creator>
   </cc:Work>
  </rdf:RDF>
 </metadata>
 <defs>
  <style type="text/css">*{stroke-linejoin: round; stroke-linecap: butt}</style>
 </defs>
 <g id="figure_1">
  <g id="patch_1">
   <path d="M -0 251.964375 
L 892.738125 251.964375 
L 892.738125 0 
L -0 0 
z
" style="fill: #ffffff"/>
  </g>
  <g id="axes_1">
   <g id="patch_2">
    <path d="M 71.298125 193.11625 
L 885.538125 193.11625 
L 885.538125 35.43625 
L 71.298125 35.43625 
z
" style="fill: #ffffff"/>
   </g>
   <g id="matplotlib.axis_1">
    <g id="xtick_1">
     <g id="line2d_1">
      <path d="M 108.309034 193.11625 
L 108.309034 35.43625 
" clip-path="url(#p45963f21cd)" style="fill: none; stroke-dasharray: 2.96,1.28; stroke-dashoffset: 0; stroke: #b0b0b0; stroke-opacity: 0.3; stroke-width: 0.8"/>
     </g>
     <g id="line2d_2">
      <defs>
       <path id="m8fc9562187" d="M 0 0 
L 0 3.5 
" style="stroke: #000000; stroke-width: 0.8"/>
      </defs>
      <g>
       <use xlink:href="#m8fc9562187" x="108.309034" y="193.11625" style="stroke: #000000; stroke-width: 0.8"/>
      </g>
     </g>
     <g id="text_1">
      <!-- 0 -->
      <g transform="translate(101.946534 215.313125) scale(0.2 -0.2)">
       <defs>
        <path id="DejaVuSans-30" d="M 2034 4250 
Q 1547 4250 1301 3770 
Q 1056 3291 1056 2328 
Q 1056 1369 1301 889 
Q 1547 409 2034 409 
Q 2525 409 2770 889 
Q 3016 1369 3016 2328 
Q 3016 3291 2770 3770 
Q 2525 4250 2034 4250 
z
M 2034 4750 
Q 2819 4750 3233 4129 
Q 3647 3509 3647 2328 
Q 3647 1150 3233 529 
Q 2819 -91 2034 -91 
Q 1250 -91 836 529 
Q 422 1150 422 2328 
Q 422 3509 836 4129 
Q 1250 4750 2034 4750 
z
" transform="scale(0.015625)"/>
       </defs>
       <use xlink:href="#DejaVuSans-30"/>
      </g>
     </g>
    </g>
    <g id="xtick_2">
     <g id="line2d_3">
      <path d="M 214.130075 193.11625 
L 214.130075 35.43625 
" clip-path="url(#p45963f21cd)" style="fill: none; stroke-dasharray: 2.96,1.28; stroke-dashoffset: 0; stroke: #b0b0b0; stroke-opacity: 0.3; stroke-width: 0.8"/>
     </g>
     <g id="line2d_4">
      <g>
       <use xlink:href="#m8fc9562187" x="214.130075" y="193.11625" style="stroke: #000000; stroke-width: 0.8"/>
      </g>
     </g>
     <g id="text_2">
      <!-- 200 -->
      <g transform="translate(195.042575 215.313125) scale(0.2 -0.2)">
       <defs>
        <path id="DejaVuSans-32" d="M 1228 531 
L 3431 531 
L 3431 0 
L 469 0 
L 469 531 
Q 828 903 1448 1529 
Q 2069 2156 2228 2338 
Q 2531 2678 2651 2914 
Q 2772 3150 2772 3378 
Q 2772 3750 2511 3984 
Q 2250 4219 1831 4219 
Q 1534 4219 1204 4116 
Q 875 4013 500 3803 
L 500 4441 
Q 881 4594 1212 4672 
Q 1544 4750 1819 4750 
Q 2544 4750 2975 4387 
Q 3406 4025 3406 3419 
Q 3406 3131 3298 2873 
Q 3191 2616 2906 2266 
Q 2828 2175 2409 1742 
Q 1991 1309 1228 531 
z
" transform="scale(0.015625)"/>
       </defs>
       <use xlink:href="#DejaVuSans-32"/>
       <use xlink:href="#DejaVuSans-30" transform="translate(63.623047 0)"/>
       <use xlink:href="#DejaVuSans-30" transform="translate(127.246094 0)"/>
      </g>
     </g>
    </g>
    <g id="xtick_3">
     <g id="line2d_5">
      <path d="M 319.951116 193.11625 
L 319.951116 35.43625 
" clip-path="url(#p45963f21cd)" style="fill: none; stroke-dasharray: 2.96,1.28; stroke-dashoffset: 0; stroke: #b0b0b0; stroke-opacity: 0.3; stroke-width: 0.8"/>
     </g>
     <g id="line2d_6">
      <g>
       <use xlink:href="#m8fc9562187" x="319.951116" y="193.11625" style="stroke: #000000; stroke-width: 0.8"/>
      </g>
     </g>
     <g id="text_3">
      <!-- 400 -->
      <g transform="translate(300.863616 215.313125) scale(0.2 -0.2)">
       <defs>
        <path id="DejaVuSans-34" d="M 2419 4116 
L 825 1625 
L 2419 1625 
L 2419 4116 
z
M 2253 4666 
L 3047 4666 
L 3047 1625 
L 3713 1625 
L 3713 1100 
L 3047 1100 
L 3047 0 
L 2419 0 
L 2419 1100 
L 313 1100 
L 313 1709 
L 2253 4666 
z
" transform="scale(0.015625)"/>
       </defs>
       <use xlink:href="#DejaVuSans-34"/>
       <use xlink:href="#DejaVuSans-30" transform="translate(63.623047 0)"/>
       <use xlink:href="#DejaVuSans-30" transform="translate(127.246094 0)"/>
      </g>
     </g>
    </g>
    <g id="xtick_4">
     <g id="line2d_7">
      <path d="M 425.772157 193.11625 
L 425.772157 35.43625 
" clip-path="url(#p45963f21cd)" style="fill: none; stroke-dasharray: 2.96,1.28; stroke-dashoffset: 0; stroke: #b0b0b0; stroke-opacity: 0.3; stroke-width: 0.8"/>
     </g>
     <g id="line2d_8">
      <g>
       <use xlink:href="#m8fc9562187" x="425.772157" y="193.11625" style="stroke: #000000; stroke-width: 0.8"/>
      </g>
     </g>
     <g id="text_4">
      <!-- 600 -->
      <g transform="translate(406.684657 215.313125) scale(0.2 -0.2)">
       <defs>
        <path id="DejaVuSans-36" d="M 2113 2584 
Q 1688 2584 1439 2293 
Q 1191 2003 1191 1497 
Q 1191 994 1439 701 
Q 1688 409 2113 409 
Q 2538 409 2786 701 
Q 3034 994 3034 1497 
Q 3034 2003 2786 2293 
Q 2538 2584 2113 2584 
z
M 3366 4563 
L 3366 3988 
Q 3128 4100 2886 4159 
Q 2644 4219 2406 4219 
Q 1781 4219 1451 3797 
Q 1122 3375 1075 2522 
Q 1259 2794 1537 2939 
Q 1816 3084 2150 3084 
Q 2853 3084 3261 2657 
Q 3669 2231 3669 1497 
Q 3669 778 3244 343 
Q 2819 -91 2113 -91 
Q 1303 -91 875 529 
Q 447 1150 447 2328 
Q 447 3434 972 4092 
Q 1497 4750 2381 4750 
Q 2619 4750 2861 4703 
Q 3103 4656 3366 4563 
z
" transform="scale(0.015625)"/>
       </defs>
       <use xlink:href="#DejaVuSans-36"/>
       <use xlink:href="#DejaVuSans-30" transform="translate(63.623047 0)"/>
       <use xlink:href="#DejaVuSans-30" transform="translate(127.246094 0)"/>
      </g>
     </g>
    </g>
    <g id="xtick_5">
     <g id="line2d_9">
      <path d="M 531.593198 193.11625 
L 531.593198 35.43625 
" clip-path="url(#p45963f21cd)" style="fill: none; stroke-dasharray: 2.96,1.28; stroke-dashoffset: 0; stroke: #b0b0b0; stroke-opacity: 0.3; stroke-width: 0.8"/>
     </g>
     <g id="line2d_10">
      <g>
       <use xlink:href="#m8fc9562187" x="531.593198" y="193.11625" style="stroke: #000000; stroke-width: 0.8"/>
      </g>
     </g>
     <g id="text_5">
      <!-- 800 -->
      <g transform="translate(512.505698 215.313125) scale(0.2 -0.2)">
       <defs>
        <path id="DejaVuSans-38" d="M 2034 2216 
Q 1584 2216 1326 1975 
Q 1069 1734 1069 1313 
Q 1069 891 1326 650 
Q 1584 409 2034 409 
Q 2484 409 2743 651 
Q 3003 894 3003 1313 
Q 3003 1734 2745 1975 
Q 2488 2216 2034 2216 
z
M 1403 2484 
Q 997 2584 770 2862 
Q 544 3141 544 3541 
Q 544 4100 942 4425 
Q 1341 4750 2034 4750 
Q 2731 4750 3128 4425 
Q 3525 4100 3525 3541 
Q 3525 3141 3298 2862 
Q 3072 2584 2669 2484 
Q 3125 2378 3379 2068 
Q 3634 1759 3634 1313 
Q 3634 634 3220 271 
Q 2806 -91 2034 -91 
Q 1263 -91 848 271 
Q 434 634 434 1313 
Q 434 1759 690 2068 
Q 947 2378 1403 2484 
z
M 1172 3481 
Q 1172 3119 1398 2916 
Q 1625 2713 2034 2713 
Q 2441 2713 2670 2916 
Q 2900 3119 2900 3481 
Q 2900 3844 2670 4047 
Q 2441 4250 2034 4250 
Q 1625 4250 1398 4047 
Q 1172 3844 1172 3481 
z
" transform="scale(0.015625)"/>
       </defs>
       <use xlink:href="#DejaVuSans-38"/>
       <use xlink:href="#DejaVuSans-30" transform="translate(63.623047 0)"/>
       <use xlink:href="#DejaVuSans-30" transform="translate(127.246094 0)"/>
      </g>
     </g>
    </g>
    <g id="xtick_6">
     <g id="line2d_11">
      <path d="M 637.414239 193.11625 
L 637.414239 35.43625 
" clip-path="url(#p45963f21cd)" style="fill: none; stroke-dasharray: 2.96,1.28; stroke-dashoffset: 0; stroke: #b0b0b0; stroke-opacity: 0.3; stroke-width: 0.8"/>
     </g>
     <g id="line2d_12">
      <g>
       <use xlink:href="#m8fc9562187" x="637.414239" y="193.11625" style="stroke: #000000; stroke-width: 0.8"/>
      </g>
     </g>
     <g id="text_6">
      <!-- 1000 -->
      <g transform="translate(611.964239 215.313125) scale(0.2 -0.2)">
       <defs>
        <path id="DejaVuSans-31" d="M 794 531 
L 1825 531 
L 1825 4091 
L 703 3866 
L 703 4441 
L 1819 4666 
L 2450 4666 
L 2450 531 
L 3481 531 
L 3481 0 
L 794 0 
L 794 531 
z
" transform="scale(0.015625)"/>
       </defs>
       <use xlink:href="#DejaVuSans-31"/>
       <use xlink:href="#DejaVuSans-30" transform="translate(63.623047 0)"/>
       <use xlink:href="#DejaVuSans-30" transform="translate(127.246094 0)"/>
       <use xlink:href="#DejaVuSans-30" transform="translate(190.869141 0)"/>
      </g>
     </g>
    </g>
    <g id="xtick_7">
     <g id="line2d_13">
      <path d="M 743.23528 193.11625 
L 743.23528 35.43625 
" clip-path="url(#p45963f21cd)" style="fill: none; stroke-dasharray: 2.96,1.28; stroke-dashoffset: 0; stroke: #b0b0b0; stroke-opacity: 0.3; stroke-width: 0.8"/>
     </g>
     <g id="line2d_14">
      <g>
       <use xlink:href="#m8fc9562187" x="743.23528" y="193.11625" style="stroke: #000000; stroke-width: 0.8"/>
      </g>
     </g>
     <g id="text_7">
      <!-- 1200 -->
      <g transform="translate(717.78528 215.313125) scale(0.2 -0.2)">
       <use xlink:href="#DejaVuSans-31"/>
       <use xlink:href="#DejaVuSans-32" transform="translate(63.623047 0)"/>
       <use xlink:href="#DejaVuSans-30" transform="translate(127.246094 0)"/>
       <use xlink:href="#DejaVuSans-30" transform="translate(190.869141 0)"/>
      </g>
     </g>
    </g>
    <g id="xtick_8">
     <g id="line2d_15">
      <path d="M 849.056321 193.11625 
L 849.056321 35.43625 
" clip-path="url(#p45963f21cd)" style="fill: none; stroke-dasharray: 2.96,1.28; stroke-dashoffset: 0; stroke: #b0b0b0; stroke-opacity: 0.3; stroke-width: 0.8"/>
     </g>
     <g id="line2d_16">
      <g>
       <use xlink:href="#m8fc9562187" x="849.056321" y="193.11625" style="stroke: #000000; stroke-width: 0.8"/>
      </g>
     </g>
     <g id="text_8">
      <!-- 1400 -->
      <g transform="translate(823.606321 215.313125) scale(0.2 -0.2)">
       <use xlink:href="#DejaVuSans-31"/>
       <use xlink:href="#DejaVuSans-34" transform="translate(63.623047 0)"/>
       <use xlink:href="#DejaVuSans-30" transform="translate(127.246094 0)"/>
       <use xlink:href="#DejaVuSans-30" transform="translate(190.869141 0)"/>
      </g>
     </g>
    </g>
    <g id="text_9">
     <!-- Time Index -->
     <g transform="translate(410.037656 240.189062) scale(0.22 -0.22)">
      <defs>
       <path id="DejaVuSans-Bold-54" d="M 31 4666 
L 4331 4666 
L 4331 3756 
L 2784 3756 
L 2784 0 
L 1581 0 
L 1581 3756 
L 31 3756 
L 31 4666 
z
" transform="scale(0.015625)"/>
       <path id="DejaVuSans-Bold-69" d="M 538 3500 
L 1656 3500 
L 1656 0 
L 538 0 
L 538 3500 
z
M 538 4863 
L 1656 4863 
L 1656 3950 
L 538 3950 
L 538 4863 
z
" transform="scale(0.015625)"/>
       <path id="DejaVuSans-Bold-6d" d="M 3781 2919 
Q 3994 3244 4286 3414 
Q 4578 3584 4928 3584 
Q 5531 3584 5847 3212 
Q 6163 2841 6163 2131 
L 6163 0 
L 5038 0 
L 5038 1825 
Q 5041 1866 5042 1909 
Q 5044 1953 5044 2034 
Q 5044 2406 4934 2573 
Q 4825 2741 4581 2741 
Q 4263 2741 4089 2478 
Q 3916 2216 3909 1719 
L 3909 0 
L 2784 0 
L 2784 1825 
Q 2784 2406 2684 2573 
Q 2584 2741 2328 2741 
Q 2006 2741 1831 2477 
Q 1656 2213 1656 1722 
L 1656 0 
L 531 0 
L 531 3500 
L 1656 3500 
L 1656 2988 
Q 1863 3284 2130 3434 
Q 2397 3584 2719 3584 
Q 3081 3584 3359 3409 
Q 3638 3234 3781 2919 
z
" transform="scale(0.015625)"/>
       <path id="DejaVuSans-Bold-65" d="M 4031 1759 
L 4031 1441 
L 1416 1441 
Q 1456 1047 1700 850 
Q 1944 653 2381 653 
Q 2734 653 3104 758 
Q 3475 863 3866 1075 
L 3866 213 
Q 3469 63 3072 -14 
Q 2675 -91 2278 -91 
Q 1328 -91 801 392 
Q 275 875 275 1747 
Q 275 2603 792 3093 
Q 1309 3584 2216 3584 
Q 3041 3584 3536 3087 
Q 4031 2591 4031 1759 
z
M 2881 2131 
Q 2881 2450 2695 2645 
Q 2509 2841 2209 2841 
Q 1884 2841 1681 2658 
Q 1478 2475 1428 2131 
L 2881 2131 
z
" transform="scale(0.015625)"/>
       <path id="DejaVuSans-Bold-20" transform="scale(0.015625)"/>
       <path id="DejaVuSans-Bold-49" d="M 588 4666 
L 1791 4666 
L 1791 0 
L 588 0 
L 588 4666 
z
" transform="scale(0.015625)"/>
       <path id="DejaVuSans-Bold-6e" d="M 4056 2131 
L 4056 0 
L 2931 0 
L 2931 347 
L 2931 1631 
Q 2931 2084 2911 2256 
Q 2891 2428 2841 2509 
Q 2775 2619 2662 2680 
Q 2550 2741 2406 2741 
Q 2056 2741 1856 2470 
Q 1656 2200 1656 1722 
L 1656 0 
L 538 0 
L 538 3500 
L 1656 3500 
L 1656 2988 
Q 1909 3294 2193 3439 
Q 2478 3584 2822 3584 
Q 3428 3584 3742 3212 
Q 4056 2841 4056 2131 
z
" transform="scale(0.015625)"/>
       <path id="DejaVuSans-Bold-64" d="M 2919 2988 
L 2919 4863 
L 4044 4863 
L 4044 0 
L 2919 0 
L 2919 506 
Q 2688 197 2409 53 
Q 2131 -91 1766 -91 
Q 1119 -91 703 423 
Q 288 938 288 1747 
Q 288 2556 703 3070 
Q 1119 3584 1766 3584 
Q 2128 3584 2408 3439 
Q 2688 3294 2919 2988 
z
M 2181 722 
Q 2541 722 2730 984 
Q 2919 1247 2919 1747 
Q 2919 2247 2730 2509 
Q 2541 2772 2181 2772 
Q 1825 2772 1636 2509 
Q 1447 2247 1447 1747 
Q 1447 1247 1636 984 
Q 1825 722 2181 722 
z
" transform="scale(0.015625)"/>
       <path id="DejaVuSans-Bold-78" d="M 1422 1791 
L 159 3500 
L 1344 3500 
L 2059 2463 
L 2784 3500 
L 3969 3500 
L 2706 1797 
L 4031 0 
L 2847 0 
L 2059 1106 
L 1281 0 
L 97 0 
L 1422 1791 
z
" transform="scale(0.015625)"/>
      </defs>
      <use xlink:href="#DejaVuSans-Bold-54"/>
      <use xlink:href="#DejaVuSans-Bold-69" transform="translate(68.212891 0)"/>
      <use xlink:href="#DejaVuSans-Bold-6d" transform="translate(102.490234 0)"/>
      <use xlink:href="#DejaVuSans-Bold-65" transform="translate(206.689453 0)"/>
      <use xlink:href="#DejaVuSans-Bold-20" transform="translate(274.511719 0)"/>
      <use xlink:href="#DejaVuSans-Bold-49" transform="translate(309.326172 0)"/>
      <use xlink:href="#DejaVuSans-Bold-6e" transform="translate(346.533203 0)"/>
      <use xlink:href="#DejaVuSans-Bold-64" transform="translate(417.724609 0)"/>
      <use xlink:href="#DejaVuSans-Bold-65" transform="translate(489.306641 0)"/>
      <use xlink:href="#DejaVuSans-Bold-78" transform="translate(557.128906 0)"/>
     </g>
    </g>
   </g>
   <g id="matplotlib.axis_2">
    <g id="ytick_1">
     <g id="line2d_17">
      <path d="M 71.298125 185.948977 
L 885.538125 185.948977 
" clip-path="url(#p45963f21cd)" style="fill: none; stroke-dasharray: 2.96,1.28; stroke-dashoffset: 0; stroke: #b0b0b0; stroke-opacity: 0.3; stroke-width: 0.8"/>
     </g>
     <g id="line2d_18">
      <defs>
       <path id="m2b422aaf66" d="M 0 0 
L -3.5 0 
" style="stroke: #000000; stroke-width: 0.8"/>
      </defs>
      <g>
       <use xlink:href="#m2b422aaf66" x="71.298125" y="185.948977" style="stroke: #000000; stroke-width: 0.8"/>
      </g>
     </g>
     <g id="text_10">
      <!-- 0.0 -->
      <g transform="translate(32.491875 193.547415) scale(0.2 -0.2)">
       <defs>
        <path id="DejaVuSans-2e" d="M 684 794 
L 1344 794 
L 1344 0 
L 684 0 
L 684 794 
z
" transform="scale(0.015625)"/>
       </defs>
       <use xlink:href="#DejaVuSans-30"/>
       <use xlink:href="#DejaVuSans-2e" transform="translate(63.623047 0)"/>
       <use xlink:href="#DejaVuSans-30" transform="translate(95.410156 0)"/>
      </g>
     </g>
    </g>
    <g id="ytick_2">
     <g id="line2d_19">
      <path d="M 71.298125 114.27625 
L 885.538125 114.27625 
" clip-path="url(#p45963f21cd)" style="fill: none; stroke-dasharray: 2.96,1.28; stroke-dashoffset: 0; stroke: #b0b0b0; stroke-opacity: 0.3; stroke-width: 0.8"/>
     </g>
     <g id="line2d_20">
      <g>
       <use xlink:href="#m2b422aaf66" x="71.298125" y="114.27625" style="stroke: #000000; stroke-width: 0.8"/>
      </g>
     </g>
     <g id="text_11">
      <!-- 0.5 -->
      <g transform="translate(32.491875 121.874687) scale(0.2 -0.2)">
       <defs>
        <path id="DejaVuSans-35" d="M 691 4666 
L 3169 4666 
L 3169 4134 
L 1269 4134 
L 1269 2991 
Q 1406 3038 1543 3061 
Q 1681 3084 1819 3084 
Q 2600 3084 3056 2656 
Q 3513 2228 3513 1497 
Q 3513 744 3044 326 
Q 2575 -91 1722 -91 
Q 1428 -91 1123 -41 
Q 819 9 494 109 
L 494 744 
Q 775 591 1075 516 
Q 1375 441 1709 441 
Q 2250 441 2565 725 
Q 2881 1009 2881 1497 
Q 2881 1984 2565 2268 
Q 2250 2553 1709 2553 
Q 1456 2553 1204 2497 
Q 953 2441 691 2322 
L 691 4666 
z
" transform="scale(0.015625)"/>
       </defs>
       <use xlink:href="#DejaVuSans-30"/>
       <use xlink:href="#DejaVuSans-2e" transform="translate(63.623047 0)"/>
       <use xlink:href="#DejaVuSans-35" transform="translate(95.410156 0)"/>
      </g>
     </g>
    </g>
    <g id="ytick_3">
     <g id="line2d_21">
      <path d="M 71.298125 42.603523 
L 885.538125 42.603523 
" clip-path="url(#p45963f21cd)" style="fill: none; stroke-dasharray: 2.96,1.28; stroke-dashoffset: 0; stroke: #b0b0b0; stroke-opacity: 0.3; stroke-width: 0.8"/>
     </g>
     <g id="line2d_22">
      <g>
       <use xlink:href="#m2b422aaf66" x="71.298125" y="42.603523" style="stroke: #000000; stroke-width: 0.8"/>
      </g>
     </g>
     <g id="text_12">
      <!-- 1.0 -->
      <g transform="translate(32.491875 50.20196) scale(0.2 -0.2)">
       <use xlink:href="#DejaVuSans-31"/>
       <use xlink:href="#DejaVuSans-2e" transform="translate(63.623047 0)"/>
       <use xlink:href="#DejaVuSans-30" transform="translate(95.410156 0)"/>
      </g>
     </g>
    </g>
    <g id="text_13">
     <!-- Normalized SST -->
     <g transform="translate(23.916563 200.839375) rotate(-90) scale(0.22 -0.22)">
      <defs>
       <path id="DejaVuSans-4e" d="M 628 4666 
L 1478 4666 
L 3547 763 
L 3547 4666 
L 4159 4666 
L 4159 0 
L 3309 0 
L 1241 3903 
L 1241 0 
L 628 0 
L 628 4666 
z
" transform="scale(0.015625)"/>
       <path id="DejaVuSans-6f" d="M 1959 3097 
Q 1497 3097 1228 2736 
Q 959 2375 959 1747 
Q 959 1119 1226 758 
Q 1494 397 1959 397 
Q 2419 397 2687 759 
Q 2956 1122 2956 1747 
Q 2956 2369 2687 2733 
Q 2419 3097 1959 3097 
z
M 1959 3584 
Q 2709 3584 3137 3096 
Q 3566 2609 3566 1747 
Q 3566 888 3137 398 
Q 2709 -91 1959 -91 
Q 1206 -91 779 398 
Q 353 888 353 1747 
Q 353 2609 779 3096 
Q 1206 3584 1959 3584 
z
" transform="scale(0.015625)"/>
       <path id="DejaVuSans-72" d="M 2631 2963 
Q 2534 3019 2420 3045 
Q 2306 3072 2169 3072 
Q 1681 3072 1420 2755 
Q 1159 2438 1159 1844 
L 1159 0 
L 581 0 
L 581 3500 
L 1159 3500 
L 1159 2956 
Q 1341 3275 1631 3429 
Q 1922 3584 2338 3584 
Q 2397 3584 2469 3576 
Q 2541 3569 2628 3553 
L 2631 2963 
z
" transform="scale(0.015625)"/>
       <path id="DejaVuSans-6d" d="M 3328 2828 
Q 3544 3216 3844 3400 
Q 4144 3584 4550 3584 
Q 5097 3584 5394 3201 
Q 5691 2819 5691 2113 
L 5691 0 
L 5113 0 
L 5113 2094 
Q 5113 2597 4934 2840 
Q 4756 3084 4391 3084 
Q 3944 3084 3684 2787 
Q 3425 2491 3425 1978 
L 3425 0 
L 2847 0 
L 2847 2094 
Q 2847 2600 2669 2842 
Q 2491 3084 2119 3084 
Q 1678 3084 1418 2786 
Q 1159 2488 1159 1978 
L 1159 0 
L 581 0 
L 581 3500 
L 1159 3500 
L 1159 2956 
Q 1356 3278 1631 3431 
Q 1906 3584 2284 3584 
Q 2666 3584 2933 3390 
Q 3200 3197 3328 2828 
z
" transform="scale(0.015625)"/>
       <path id="DejaVuSans-61" d="M 2194 1759 
Q 1497 1759 1228 1600 
Q 959 1441 959 1056 
Q 959 750 1161 570 
Q 1363 391 1709 391 
Q 2188 391 2477 730 
Q 2766 1069 2766 1631 
L 2766 1759 
L 2194 1759 
z
M 3341 1997 
L 3341 0 
L 2766 0 
L 2766 531 
Q 2569 213 2275 61 
Q 1981 -91 1556 -91 
Q 1019 -91 701 211 
Q 384 513 384 1019 
Q 384 1609 779 1909 
Q 1175 2209 1959 2209 
L 2766 2209 
L 2766 2266 
Q 2766 2663 2505 2880 
Q 2244 3097 1772 3097 
Q 1472 3097 1187 3025 
Q 903 2953 641 2809 
L 641 3341 
Q 956 3463 1253 3523 
Q 1550 3584 1831 3584 
Q 2591 3584 2966 3190 
Q 3341 2797 3341 1997 
z
" transform="scale(0.015625)"/>
       <path id="DejaVuSans-6c" d="M 603 4863 
L 1178 4863 
L 1178 0 
L 603 0 
L 603 4863 
z
" transform="scale(0.015625)"/>
       <path id="DejaVuSans-69" d="M 603 3500 
L 1178 3500 
L 1178 0 
L 603 0 
L 603 3500 
z
M 603 4863 
L 1178 4863 
L 1178 4134 
L 603 4134 
L 603 4863 
z
" transform="scale(0.015625)"/>
       <path id="DejaVuSans-7a" d="M 353 3500 
L 3084 3500 
L 3084 2975 
L 922 459 
L 3084 459 
L 3084 0 
L 275 0 
L 275 525 
L 2438 3041 
L 353 3041 
L 353 3500 
z
" transform="scale(0.015625)"/>
       <path id="DejaVuSans-65" d="M 3597 1894 
L 3597 1613 
L 953 1613 
Q 991 1019 1311 708 
Q 1631 397 2203 397 
Q 2534 397 2845 478 
Q 3156 559 3463 722 
L 3463 178 
Q 3153 47 2828 -22 
Q 2503 -91 2169 -91 
Q 1331 -91 842 396 
Q 353 884 353 1716 
Q 353 2575 817 3079 
Q 1281 3584 2069 3584 
Q 2775 3584 3186 3129 
Q 3597 2675 3597 1894 
z
M 3022 2063 
Q 3016 2534 2758 2815 
Q 2500 3097 2075 3097 
Q 1594 3097 1305 2825 
Q 1016 2553 972 2059 
L 3022 2063 
z
" transform="scale(0.015625)"/>
       <path id="DejaVuSans-64" d="M 2906 2969 
L 2906 4863 
L 3481 4863 
L 3481 0 
L 2906 0 
L 2906 525 
Q 2725 213 2448 61 
Q 2172 -91 1784 -91 
Q 1150 -91 751 415 
Q 353 922 353 1747 
Q 353 2572 751 3078 
Q 1150 3584 1784 3584 
Q 2172 3584 2448 3432 
Q 2725 3281 2906 2969 
z
M 947 1747 
Q 947 1113 1208 752 
Q 1469 391 1925 391 
Q 2381 391 2643 752 
Q 2906 1113 2906 1747 
Q 2906 2381 2643 2742 
Q 2381 3103 1925 3103 
Q 1469 3103 1208 2742 
Q 947 2381 947 1747 
z
" transform="scale(0.015625)"/>
       <path id="DejaVuSans-20" transform="scale(0.015625)"/>
       <path id="DejaVuSans-53" d="M 3425 4513 
L 3425 3897 
Q 3066 4069 2747 4153 
Q 2428 4238 2131 4238 
Q 1616 4238 1336 4038 
Q 1056 3838 1056 3469 
Q 1056 3159 1242 3001 
Q 1428 2844 1947 2747 
L 2328 2669 
Q 3034 2534 3370 2195 
Q 3706 1856 3706 1288 
Q 3706 609 3251 259 
Q 2797 -91 1919 -91 
Q 1588 -91 1214 -16 
Q 841 59 441 206 
L 441 856 
Q 825 641 1194 531 
Q 1563 422 1919 422 
Q 2459 422 2753 634 
Q 3047 847 3047 1241 
Q 3047 1584 2836 1778 
Q 2625 1972 2144 2069 
L 1759 2144 
Q 1053 2284 737 2584 
Q 422 2884 422 3419 
Q 422 4038 858 4394 
Q 1294 4750 2059 4750 
Q 2388 4750 2728 4690 
Q 3069 4631 3425 4513 
z
" transform="scale(0.015625)"/>
       <path id="DejaVuSans-54" d="M -19 4666 
L 3928 4666 
L 3928 4134 
L 2272 4134 
L 2272 0 
L 1638 0 
L 1638 4134 
L -19 4134 
L -19 4666 
z
" transform="scale(0.015625)"/>
      </defs>
      <use xlink:href="#DejaVuSans-4e"/>
      <use xlink:href="#DejaVuSans-6f" transform="translate(74.804688 0)"/>
      <use xlink:href="#DejaVuSans-72" transform="translate(135.986328 0)"/>
      <use xlink:href="#DejaVuSans-6d" transform="translate(175.349609 0)"/>
      <use xlink:href="#DejaVuSans-61" transform="translate(272.761719 0)"/>
      <use xlink:href="#DejaVuSans-6c" transform="translate(334.041016 0)"/>
      <use xlink:href="#DejaVuSans-69" transform="translate(361.824219 0)"/>
      <use xlink:href="#DejaVuSans-7a" transform="translate(389.607422 0)"/>
      <use xlink:href="#DejaVuSans-65" transform="translate(442.097656 0)"/>
      <use xlink:href="#DejaVuSans-64" transform="translate(503.621094 0)"/>
      <use xlink:href="#DejaVuSans-20" transform="translate(567.097656 0)"/>
      <use xlink:href="#DejaVuSans-53" transform="translate(598.884766 0)"/>
      <use xlink:href="#DejaVuSans-53" transform="translate(662.361328 0)"/>
      <use xlink:href="#DejaVuSans-54" transform="translate(725.837891 0)"/>
     </g>
    </g>
   </g>
   <g id="line2d_23">
    <path d="M 108.309034 97.459186 
L 108.838139 95.457154 
L 109.367245 87.449028 
L 109.89635 70.631964 
L 110.425455 57.418556 
L 110.95456 56.617743 
L 111.483665 63.42465 
L 112.012771 59.020181 
L 112.541876 70.231557 
L 113.070981 90.251872 
L 113.600086 104.666499 
L 114.129191 105.467311 
L 114.658297 115.077063 
L 115.187402 122.284376 
L 115.716507 121.083157 
L 116.245612 116.278281 
L 116.774717 109.471374 
L 117.303823 95.457154 
L 117.832928 98.660404 
L 118.362033 107.469343 
L 118.891138 130.292502 
L 119.949349 149.111598 
L 121.007559 181.144102 
L 121.536664 185.148165 
L 122.065769 185.948977 
L 123.12398 185.948977 
L 123.653085 185.148165 
L 124.18219 185.948977 
L 126.298611 185.948977 
L 126.827716 185.548571 
L 130.002347 185.548571 
L 130.531453 185.948977 
L 131.060558 184.747758 
L 131.589663 185.548571 
L 132.118768 185.948977 
L 132.647874 166.329069 
L 133.176979 157.119724 
L 133.706084 142.705097 
L 134.235189 137.499815 
L 135.2934 104.666499 
L 135.822505 89.851466 
L 136.35161 81.442934 
L 136.880715 87.048622 
L 137.938926 93.455123 
L 138.468031 77.038464 
L 138.997136 71.833182 
L 139.526241 73.835214 
L 140.055346 74.636027 
L 140.584452 76.237652 
L 141.113557 102.664467 
L 141.642662 103.46528 
L 142.700872 130.692908 
L 143.229978 125.08722 
L 143.759083 127.089252 
L 144.288188 139.501847 
L 144.817293 145.107535 
L 145.346398 155.518099 
L 145.875504 151.113629 
L 146.404609 153.916473 
L 146.933714 153.516067 
L 147.462819 150.312817 
L 147.991924 157.52013 
L 148.52103 159.922568 
L 149.57924 181.144102 
L 150.108345 185.948977 
L 159.103134 185.948977 
L 159.632239 185.548571 
L 160.161344 181.544508 
L 160.690449 178.741664 
L 161.219555 167.530288 
L 162.277765 119.081126 
L 162.80687 107.869749 
L 163.335975 82.243746 
L 163.865081 86.247809 
L 164.394186 48.209211 
L 164.923291 48.209211 
L 165.452396 54.215305 
L 165.981501 49.810836 
L 166.510607 51.412461 
L 167.039712 55.816931 
L 167.568817 62.623838 
L 168.097922 79.440902 
L 168.627027 101.062842 
L 169.156133 91.052685 
L 169.685238 106.268124 
L 170.214343 105.867718 
L 170.743448 115.077063 
L 171.272553 121.88397 
L 171.801659 134.696971 
L 172.330764 140.703066 
L 172.859869 132.69494 
L 173.91808 139.501847 
L 174.447185 136.298596 
L 174.97629 150.312817 
L 176.563606 174.737601 
L 177.092711 179.542477 
L 177.621816 181.144102 
L 178.150921 184.747758 
L 179.209132 185.548571 
L 182.383763 185.548571 
L 182.912868 185.948977 
L 185.558394 185.948977 
L 186.087499 177.140039 
L 186.616604 180.743695 
L 187.14571 180.343289 
L 187.674815 176.339226 
L 188.20392 178.341258 
L 188.733025 175.138007 
L 189.26213 166.729475 
L 189.791236 147.109566 
L 190.320341 135.097377 
L 190.849446 134.696971 
L 191.907656 118.680719 
L 192.436762 96.658373 
L 192.965867 83.845371 
L 193.494972 90.251872 
L 194.024077 101.463248 
L 194.553183 100.662436 
L 195.082288 102.664467 
L 196.140498 95.457154 
L 196.669603 102.664467 
L 197.198709 101.463248 
L 197.727814 120.282344 
L 198.256919 121.88397 
L 198.786024 133.896159 
L 199.315129 143.105503 
L 199.844235 139.902253 
L 200.37334 148.711192 
L 200.902445 150.713223 
L 201.43155 162.725412 
L 201.960655 170.333132 
L 202.489761 176.339226 
L 203.018866 178.741664 
L 203.547971 185.948977 
L 205.135287 185.948977 
L 205.664392 185.548571 
L 207.251707 185.548571 
L 207.780813 185.948977 
L 208.309918 185.948977 
L 208.839023 185.548571 
L 212.542759 185.548571 
L 213.071865 185.948977 
L 213.60097 185.948977 
L 214.130075 185.548571 
L 214.65918 180.343289 
L 215.188286 183.546539 
L 215.717391 172.735569 
L 217.304706 127.489658 
L 217.833812 111.873812 
L 218.362917 108.670562 
L 218.892022 99.461217 
L 219.421127 76.638058 
L 219.950232 71.833182 
L 220.479338 59.820994 
L 221.008443 53.414493 
L 221.537548 54.215305 
L 222.066653 59.820994 
L 222.595758 51.812868 
L 223.124864 66.227494 
L 223.653969 89.45106 
L 224.712179 101.463248 
L 225.241284 113.875844 
L 225.77039 120.282344 
L 226.299495 122.284376 
L 226.8286 118.680719 
L 227.357705 125.888033 
L 228.415916 152.715255 
L 228.945021 163.125818 
L 229.474126 161.123787 
L 231.061442 182.745727 
L 231.590547 185.948977 
L 234.765178 185.948977 
L 235.294283 185.548571 
L 235.823388 184.347352 
L 236.352494 185.948977 
L 237.939809 185.948977 
L 238.468915 180.743695 
L 238.99802 183.546539 
L 239.527125 185.148165 
L 240.585335 185.948977 
L 241.643546 185.948977 
L 242.172651 185.548571 
L 242.701756 183.146133 
L 243.230861 181.944914 
L 243.759967 176.339226 
L 245.876387 113.875844 
L 247.463703 85.847403 
L 247.992808 85.446997 
L 248.521913 81.042527 
L 249.051019 81.042527 
L 249.580124 85.446997 
L 250.109229 82.243746 
L 250.638334 90.251872 
L 251.167439 109.471374 
L 251.696545 117.079094 
L 252.22565 117.879907 
L 253.28386 132.294533 
L 253.812965 133.095346 
L 254.342071 127.890064 
L 254.871176 142.705097 
L 255.400281 148.711192 
L 256.458491 172.335163 
L 256.987597 173.536382 
L 257.516702 177.940851 
L 258.045807 185.948977 
L 258.574912 184.347352 
L 259.104018 185.948977 
L 268.098806 185.948977 
L 268.627911 183.946946 
L 269.157016 185.948977 
L 269.686122 185.948977 
L 270.215227 181.944914 
L 270.744332 172.335163 
L 271.273437 167.129881 
L 271.802542 156.318911 
L 272.331648 152.715255 
L 274.977174 95.056748 
L 275.506279 90.251872 
L 276.035384 81.042527 
L 276.564489 77.038464 
L 277.093594 80.642121 
L 277.6227 81.442934 
L 278.151805 88.249841 
L 278.68091 82.644152 
L 279.210015 94.656341 
L 279.739121 101.463248 
L 280.268226 113.875844 
L 280.797331 109.871781 
L 281.326436 113.875844 
L 281.855541 122.284376 
L 282.384647 123.886001 
L 283.442857 143.906316 
L 283.971962 157.52013 
L 285.030173 170.733538 
L 285.559278 180.743695 
L 286.088383 185.948977 
L 291.379435 185.948977 
L 291.90854 182.745727 
L 292.437645 183.946946 
L 292.966751 185.948977 
L 295.083171 185.948977 
L 295.612277 185.548571 
L 296.141382 185.948977 
L 296.670487 185.948977 
L 297.199592 183.946946 
L 298.257803 155.117692 
L 299.316013 138.300628 
L 299.845118 132.294533 
L 301.961539 92.253904 
L 302.490644 85.04659 
L 303.01975 70.631964 
L 303.548855 63.42465 
L 304.07796 59.820994 
L 304.607065 63.42465 
L 305.13617 68.629932 
L 305.665276 72.233589 
L 306.194381 74.636027 
L 307.781696 107.068937 
L 308.839907 119.481532 
L 309.369012 113.875844 
L 309.898117 124.686814 
L 310.427222 131.493721 
L 310.956328 130.692908 
L 311.485433 144.306722 
L 312.014538 149.111598 
L 312.543643 159.121755 
L 313.072748 176.339226 
L 313.601854 183.946946 
L 314.130959 185.948977 
L 314.660064 185.948977 
L 315.718274 185.148165 
L 316.776485 185.948977 
L 318.892906 185.948977 
L 319.422011 184.747758 
L 319.951116 185.948977 
L 325.242168 185.948977 
L 325.771273 183.546539 
L 326.300379 171.934757 
L 326.829484 171.534351 
L 327.358589 171.934757 
L 327.887694 167.930694 
L 328.416799 134.696971 
L 330.004115 100.26203 
L 330.53322 123.085189 
L 331.062325 105.066905 
L 331.591431 109.471374 
L 332.120536 103.46528 
L 332.649641 105.066905 
L 333.178746 107.869749 
L 333.707851 117.4795 
L 334.236957 105.467311 
L 334.766062 109.070968 
L 335.295167 121.083157 
L 335.824272 124.286407 
L 336.353377 134.696971 
L 336.882483 135.097377 
L 337.411588 133.095346 
L 337.940693 138.300628 
L 338.469798 148.310785 
L 338.998903 145.507941 
L 339.528009 143.906316 
L 340.057114 150.312817 
L 340.586219 163.526225 
L 341.115324 169.932725 
L 342.173535 185.948977 
L 343.76085 185.948977 
L 344.289956 181.544508 
L 344.819061 184.747758 
L 345.348166 183.546539 
L 345.877271 184.347352 
L 346.406376 184.347352 
L 346.935482 179.542477 
L 347.464587 181.144102 
L 347.993692 183.146133 
L 348.522797 184.347352 
L 349.051902 185.948977 
L 351.697428 185.948977 
L 352.226534 184.347352 
L 352.755639 185.948977 
L 353.284744 185.948977 
L 353.813849 184.347352 
L 354.342954 178.741664 
L 354.87206 175.93882 
L 355.401165 175.138007 
L 355.93027 160.322974 
L 356.459375 136.699003 
L 356.98848 134.696971 
L 357.517586 123.886001 
L 358.046691 115.877875 
L 358.575796 103.865686 
L 359.104901 85.847403 
L 359.634006 90.251872 
L 360.163112 102.264061 
L 360.692217 109.070968 
L 361.221322 102.264061 
L 362.279532 109.871781 
L 362.808638 123.485595 
L 363.337743 131.894127 
L 363.866848 127.890064 
L 364.395953 134.696971 
L 364.925059 149.512004 
L 365.454164 143.906316 
L 365.983269 152.715255 
L 367.041479 162.325006 
L 367.570585 173.936788 
L 368.09969 181.944914 
L 368.628795 185.948977 
L 370.745216 185.948977 
L 371.274321 185.548571 
L 371.803426 185.548571 
L 372.332531 179.942883 
L 372.861637 185.148165 
L 373.390742 185.948977 
L 378.152689 185.948977 
L 378.681794 182.745727 
L 379.210899 182.745727 
L 379.740004 183.146133 
L 380.798215 167.129881 
L 381.32732 158.721349 
L 382.38553 137.499815 
L 382.914635 124.286407 
L 383.443741 120.682751 
L 383.972846 113.075031 
L 384.501951 98.660404 
L 385.560162 84.245778 
L 386.089267 66.627901 
L 386.618372 66.627901 
L 387.147477 70.631964 
L 387.676582 83.444965 
L 388.205688 90.652278 
L 388.734793 99.861623 
L 389.263898 105.066905 
L 390.851214 133.095346 
L 391.909424 143.105503 
L 392.438529 145.507941 
L 392.967634 146.70916 
L 393.49674 147.109566 
L 394.025845 153.115661 
L 394.55495 171.133944 
L 395.084055 179.14207 
L 395.61316 179.14207 
L 396.142266 183.546539 
L 396.671371 181.944914 
L 397.729581 185.548571 
L 398.258686 185.948977 
L 401.962423 185.948977 
L 402.491528 179.14207 
L 403.020633 183.946946 
L 403.549738 185.548571 
L 404.078844 185.548571 
L 404.607949 185.948977 
L 405.666159 185.948977 
L 406.195265 185.548571 
L 406.72437 185.948977 
L 407.253475 177.540445 
L 407.78258 178.341258 
L 408.311685 175.138007 
L 408.840791 163.526225 
L 409.369896 158.320943 
L 410.428106 130.692908 
L 411.486317 115.077063 
L 412.015422 100.26203 
L 412.544527 101.463248 
L 413.073632 84.646184 
L 413.602737 72.633995 
L 414.131843 67.829119 
L 414.660948 66.227494 
L 415.190053 59.020181 
L 415.719158 57.418556 
L 416.248263 68.629932 
L 416.777369 82.243746 
L 417.835579 100.662436 
L 418.364684 104.266093 
L 418.893789 111.873812 
L 419.422895 121.083157 
L 419.952 122.284376 
L 420.481105 120.282344 
L 421.539315 133.495752 
L 422.597526 161.123787 
L 423.126631 171.133944 
L 423.655736 167.530288 
L 424.184841 185.548571 
L 424.713947 185.948977 
L 425.243052 185.548571 
L 425.772157 185.948977 
L 430.534104 185.948977 
L 431.063209 185.548571 
L 431.592314 182.745727 
L 432.12142 185.148165 
L 433.17963 185.948977 
L 434.766946 185.948977 
L 435.296051 184.747758 
L 435.825156 180.343289 
L 436.883366 175.138007 
L 437.412472 171.534351 
L 437.941577 157.920536 
L 438.470682 149.91241 
L 438.999787 136.699003 
L 439.528892 137.099409 
L 440.057998 135.097377 
L 440.587103 126.688845 
L 441.116208 122.284376 
L 442.174418 119.081126 
L 442.703524 117.879907 
L 443.232629 121.88397 
L 443.761734 116.678688 
L 444.290839 127.890064 
L 444.819944 125.08722 
L 445.34905 127.489658 
L 445.878155 127.489658 
L 446.40726 129.091283 
L 446.936365 127.089252 
L 447.465471 131.894127 
L 447.994576 134.696971 
L 449.052786 163.526225 
L 449.581891 154.717286 
L 450.110997 154.717286 
L 450.640102 153.516067 
L 451.169207 163.526225 
L 451.698312 179.14207 
L 452.227417 185.548571 
L 452.756523 185.948977 
L 460.693101 185.948977 
L 461.222206 185.548571 
L 461.751311 185.948977 
L 462.280416 184.347352 
L 462.809521 180.743695 
L 463.338627 181.544508 
L 463.867732 177.540445 
L 464.396837 165.928662 
L 465.984153 120.682751 
L 466.513258 115.477469 
L 467.571468 89.45106 
L 468.100574 92.253904 
L 468.629679 83.444965 
L 469.158784 66.627901 
L 469.687889 72.233589 
L 470.216994 59.020181 
L 470.7461 54.215305 
L 471.275205 60.621806 
L 471.80431 72.233589 
L 472.333415 79.841308 
L 472.86252 95.056748 
L 474.449836 120.282344 
L 474.978941 122.684782 
L 475.508046 130.292502 
L 476.037152 123.886001 
L 476.566257 126.688845 
L 477.095362 135.497784 
L 477.624467 149.512004 
L 478.153572 175.538414 
L 478.682678 184.347352 
L 479.211783 185.548571 
L 479.740888 185.948977 
L 480.799098 185.948977 
L 481.328204 185.548571 
L 481.857309 185.548571 
L 482.386414 185.948977 
L 487.148361 185.948977 
L 487.677466 181.944914 
L 488.206571 181.944914 
L 488.735676 185.948977 
L 489.264782 185.948977 
L 489.793887 181.944914 
L 490.322992 174.737601 
L 490.852097 175.538414 
L 491.381203 171.133944 
L 491.910308 159.121755 
L 492.968518 144.707129 
L 493.497623 135.497784 
L 494.026729 115.477469 
L 494.555834 111.473406 
L 495.084939 112.274219 
L 495.614044 116.678688 
L 496.143149 98.259998 
L 496.672255 92.65431 
L 497.20136 88.650247 
L 497.730465 82.243746 
L 498.25957 84.646184 
L 498.788675 81.84334 
L 499.317781 88.249841 
L 500.375991 109.871781 
L 500.905096 111.073 
L 501.434201 119.081126 
L 502.492412 153.115661 
L 503.021517 152.314848 
L 503.550622 155.918505 
L 504.079727 141.503878 
L 504.608833 141.103472 
L 505.137938 144.306722 
L 505.667043 143.906316 
L 506.725253 181.144102 
L 507.254359 185.948977 
L 508.841674 185.948977 
L 509.370779 185.548571 
L 509.899885 185.948977 
L 510.958095 185.948977 
L 511.4872 182.745727 
L 512.545411 181.144102 
L 513.074516 183.946946 
L 513.603621 175.538414 
L 514.132726 181.944914 
L 514.661832 177.140039 
L 515.190937 174.737601 
L 515.720042 179.14207 
L 516.249147 179.542477 
L 516.778252 173.936788 
L 517.307358 183.946946 
L 517.836463 178.741664 
L 518.365568 176.339226 
L 518.894673 166.329069 
L 519.423778 162.325006 
L 519.952884 157.119724 
L 521.011094 131.493721 
L 521.540199 113.075031 
L 522.069304 80.642121 
L 523.127515 42.603523 
L 523.65662 64.225463 
L 524.185725 65.827088 
L 524.71483 73.835214 
L 525.243936 71.03237 
L 525.773041 77.839277 
L 526.302146 78.239683 
L 526.831251 88.650247 
L 527.360356 91.052685 
L 527.889462 90.251872 
L 528.418567 98.660404 
L 528.947672 95.056748 
L 529.476777 103.46528 
L 530.005882 108.670562 
L 531.064093 111.873812 
L 531.593198 118.680719 
L 532.651409 139.902253 
L 533.180514 145.908348 
L 534.238724 169.532319 
L 534.767829 179.14207 
L 535.296935 177.140039 
L 535.82604 175.93882 
L 536.355145 179.942883 
L 536.88425 185.948977 
L 537.413355 183.546539 
L 537.942461 185.548571 
L 539.000671 181.544508 
L 539.529776 181.944914 
L 540.058881 181.144102 
L 541.117092 185.548571 
L 541.646197 184.347352 
L 542.175302 181.944914 
L 542.704407 185.148165 
L 543.233513 185.548571 
L 543.762618 179.14207 
L 544.291723 185.948977 
L 544.820828 185.948977 
L 545.349933 185.548571 
L 545.879039 175.93882 
L 546.408144 172.335163 
L 546.937249 172.335163 
L 547.466354 158.721349 
L 547.995459 151.113629 
L 548.524565 138.300628 
L 549.05367 130.692908 
L 549.582775 131.493721 
L 550.11188 121.483563 
L 550.640985 93.054716 
L 551.170091 84.245778 
L 551.699196 79.841308 
L 552.228301 72.633995 
L 552.757406 81.042527 
L 553.286512 73.034401 
L 553.815617 80.642121 
L 554.344722 80.642121 
L 555.402932 93.855529 
L 556.461143 111.073 
L 556.990248 117.879907 
L 558.048458 141.904285 
L 558.577564 150.312817 
L 559.106669 152.715255 
L 559.635774 150.713223 
L 560.164879 150.312817 
L 560.693984 151.914442 
L 561.22309 176.739632 
L 561.752195 185.948977 
L 562.2813 185.948977 
L 562.810405 185.148165 
L 563.33951 175.138007 
L 563.868616 180.343289 
L 564.397721 175.93882 
L 564.926826 173.135976 
L 565.455931 178.341258 
L 565.985036 177.940851 
L 566.514142 174.737601 
L 567.043247 181.544508 
L 567.572352 184.347352 
L 568.101457 184.347352 
L 568.630562 185.148165 
L 569.159668 184.747758 
L 570.217878 185.548571 
L 570.746983 182.745727 
L 571.276088 185.148165 
L 571.805194 185.548571 
L 572.334299 184.347352 
L 572.863404 184.747758 
L 573.392509 183.946946 
L 573.921615 184.347352 
L 574.45072 177.140039 
L 574.979825 173.536382 
L 576.038035 145.507941 
L 576.567141 127.489658 
L 577.096246 117.079094 
L 577.625351 113.475437 
L 578.154456 113.075031 
L 578.683561 95.85756 
L 579.212667 98.660404 
L 580.270877 79.841308 
L 580.799982 85.04659 
L 581.329087 86.648215 
L 581.858193 94.255935 
L 582.387298 98.259998 
L 582.916403 92.65431 
L 583.974613 112.274219 
L 584.503719 122.684782 
L 585.561929 137.900222 
L 586.091034 154.31688 
L 586.620139 157.920536 
L 587.149245 159.522162 
L 587.67835 151.914442 
L 588.207455 157.52013 
L 588.73656 165.928662 
L 589.265665 176.339226 
L 589.794771 183.146133 
L 590.323876 185.948977 
L 591.382086 185.948977 
L 591.911191 185.548571 
L 592.969402 185.548571 
L 593.498507 185.948977 
L 594.027612 185.948977 
L 594.556718 181.944914 
L 595.085823 185.548571 
L 595.614928 185.948977 
L 597.731349 185.948977 
L 598.260454 185.548571 
L 598.789559 185.548571 
L 599.318664 184.747758 
L 599.84777 185.548571 
L 600.376875 185.948977 
L 603.022401 185.948977 
L 603.551506 183.946946 
L 604.609716 163.526225 
L 605.667927 133.896159 
L 606.197032 121.88397 
L 606.726137 95.457154 
L 607.255242 96.257967 
L 607.784348 94.656341 
L 608.313453 95.457154 
L 609.371663 109.471374 
L 609.900768 122.684782 
L 610.429874 125.487626 
L 611.488084 144.306722 
L 612.017189 149.111598 
L 612.546294 152.314848 
L 613.0754 148.310785 
L 613.604505 153.115661 
L 614.13361 148.711192 
L 614.662715 153.516067 
L 615.19182 169.532319 
L 615.720926 171.534351 
L 616.250031 183.146133 
L 616.779136 183.946946 
L 617.308241 183.946946 
L 617.837347 185.948977 
L 618.366452 185.948977 
L 618.895557 183.946946 
L 619.424662 179.14207 
L 619.953767 180.743695 
L 620.482873 183.946946 
L 621.011978 185.548571 
L 621.541083 183.946946 
L 622.070188 185.548571 
L 622.599293 183.946946 
L 623.128399 185.548571 
L 623.657504 185.948977 
L 625.773925 185.948977 
L 626.30303 183.946946 
L 626.832135 185.548571 
L 627.36124 185.948977 
L 629.477661 185.948977 
L 630.006766 185.548571 
L 631.594082 161.924599 
L 632.123187 158.320943 
L 632.652292 148.711192 
L 633.181397 131.894127 
L 633.710503 130.292502 
L 634.239608 125.888033 
L 634.768713 130.292502 
L 636.356029 114.27625 
L 636.885134 120.282344 
L 637.414239 134.696971 
L 637.943344 133.896159 
L 638.47245 125.888033 
L 639.001555 125.08722 
L 639.53066 133.095346 
L 640.059765 134.696971 
L 641.117976 161.123787 
L 641.647081 161.123787 
L 642.176186 150.312817 
L 642.705291 179.14207 
L 643.234396 185.948977 
L 657.520237 185.948977 
L 658.049342 185.548571 
L 658.578447 183.946946 
L 659.107553 178.341258 
L 659.636658 167.129881 
L 660.165763 142.304691 
L 660.694868 125.888033 
L 661.223973 125.08722 
L 661.753079 121.483563 
L 662.282184 103.46528 
L 662.811289 103.46528 
L 663.340394 91.453091 
L 663.869499 86.648215 
L 664.398605 85.446997 
L 664.92771 83.845371 
L 665.98592 108.670562 
L 667.573236 135.097377 
L 668.102341 133.495752 
L 668.631446 145.507941 
L 669.160551 147.910379 
L 669.689657 147.109566 
L 670.218762 149.512004 
L 670.747867 153.115661 
L 671.276972 174.337195 
L 671.806077 184.347352 
L 672.335183 185.948977 
L 673.393393 185.948977 
L 673.922498 185.548571 
L 676.038919 185.548571 
L 676.568024 185.948977 
L 684.504602 185.948977 
L 685.033708 184.347352 
L 685.562813 177.140039 
L 686.091918 172.735569 
L 686.621023 165.528256 
L 687.150128 144.306722 
L 687.679234 134.296565 
L 688.208339 130.292502 
L 688.737444 128.690877 
L 689.266549 111.073 
L 690.32476 95.85756 
L 690.853865 95.056748 
L 691.38297 100.662436 
L 691.912075 101.863655 
L 692.44118 102.664467 
L 692.970286 103.064874 
L 693.499391 104.266093 
L 694.028496 110.672593 
L 694.557601 113.875844 
L 695.086706 131.493721 
L 695.615812 139.10144 
L 696.144917 140.302659 
L 696.674022 147.109566 
L 697.203127 149.111598 
L 697.732232 147.509973 
L 698.261338 151.914442 
L 699.848653 180.743695 
L 700.377759 185.948977 
L 701.435969 185.948977 
L 701.965074 185.548571 
L 704.081495 185.548571 
L 704.6106 185.148165 
L 706.197916 185.148165 
L 706.727021 185.548571 
L 709.372547 185.548571 
L 709.901652 185.148165 
L 710.430757 183.546539 
L 710.959863 184.747758 
L 711.488968 183.946946 
L 712.018073 183.546539 
L 712.547178 184.747758 
L 713.076283 185.548571 
L 713.605389 185.148165 
L 714.134494 178.341258 
L 714.663599 168.3311 
L 715.192704 168.731506 
L 715.721809 159.121755 
L 716.250915 155.918505 
L 716.78002 149.512004 
L 717.309125 137.499815 
L 717.83823 132.69494 
L 718.367335 120.282344 
L 718.896441 117.4795 
L 719.425546 110.272187 
L 719.954651 110.672593 
L 720.483756 121.483563 
L 721.012862 122.284376 
L 721.541967 125.08722 
L 722.071072 124.686814 
L 722.600177 129.892096 
L 723.129282 147.509973 
L 723.658388 149.111598 
L 724.187493 152.715255 
L 725.245703 170.333132 
L 726.833019 183.946946 
L 727.362124 185.548571 
L 728.94944 185.548571 
L 729.478545 185.148165 
L 730.536755 185.148165 
L 731.06586 185.548571 
L 731.594966 185.148165 
L 732.653176 185.148165 
L 733.182281 185.548571 
L 734.240492 185.548571 
L 734.769597 185.148165 
L 735.298702 185.548571 
L 735.827807 185.548571 
L 736.356912 185.148165 
L 736.886018 183.546539 
L 737.415123 183.146133 
L 737.944228 183.946946 
L 738.473333 183.146133 
L 739.002438 181.544508 
L 740.060649 172.735569 
L 740.589754 168.3311 
L 741.118859 160.723381 
L 741.647964 135.89819 
L 742.17707 125.487626 
L 742.706175 121.88397 
L 743.23528 119.081126 
L 743.764385 92.253904 
L 744.293491 87.048622 
L 745.351701 63.825057 
L 745.880806 62.623838 
L 746.409911 56.617743 
L 746.939017 69.430745 
L 748.526332 83.044559 
L 749.055437 85.446997 
L 749.584543 95.056748 
L 750.113648 109.070968 
L 750.642753 105.467311 
L 751.171858 121.483563 
L 751.700963 129.892096 
L 752.759174 157.119724 
L 753.288279 158.721349 
L 753.817384 170.333132 
L 754.346489 176.739632 
L 754.875595 179.542477 
L 755.4047 185.548571 
L 758.579331 185.548571 
L 759.108436 185.148165 
L 760.695752 185.148165 
L 761.224857 185.548571 
L 765.986804 185.548571 
L 766.515909 185.148165 
L 767.045014 185.548571 
L 767.57412 185.548571 
L 768.103225 185.148165 
L 768.63233 183.146133 
L 769.161435 176.339226 
L 769.69054 164.727443 
L 770.219646 137.900222 
L 770.748751 131.093314 
L 771.277856 125.888033 
L 772.865172 93.054716 
L 773.394277 85.04659 
L 773.923382 88.650247 
L 774.452487 94.255935 
L 774.981592 93.054716 
L 775.510698 94.255935 
L 776.039803 93.054716 
L 776.568908 112.674625 
L 777.098013 118.680719 
L 777.627118 131.894127 
L 778.156224 137.499815 
L 778.685329 152.715255 
L 779.214434 163.125818 
L 780.272644 176.739632 
L 780.80175 177.940851 
L 781.330855 185.548571 
L 781.85996 181.144102 
L 782.389065 185.148165 
L 782.91817 185.948977 
L 783.976381 185.948977 
L 784.505486 181.144102 
L 785.034591 183.546539 
L 785.563697 184.747758 
L 786.621907 185.548571 
L 788.209223 185.548571 
L 788.738328 185.148165 
L 789.267433 185.548571 
L 790.325643 185.548571 
L 790.854749 184.347352 
L 791.383854 182.745727 
L 791.912959 182.745727 
L 792.442064 184.747758 
L 793.500275 185.548571 
L 794.02938 183.546539 
L 794.558485 180.743695 
L 795.08759 173.135976 
L 795.616695 163.926631 
L 796.145801 159.522162 
L 796.674906 158.320943 
L 797.204011 150.312817 
L 797.733116 144.306722 
L 798.791327 125.08722 
L 799.849537 95.457154 
L 800.378642 74.636027 
L 800.907747 61.022212 
L 801.436853 52.61368 
L 801.965958 53.414493 
L 803.024168 83.444965 
L 804.082379 94.255935 
L 804.611484 99.861623 
L 805.140589 109.871781 
L 805.669694 110.272187 
L 806.1988 141.904285 
L 806.727905 145.908348 
L 807.25701 145.507941 
L 807.786115 163.125818 
L 808.31522 174.737601 
L 809.902536 185.948977 
L 810.960746 185.948977 
L 811.489852 185.548571 
L 812.548062 185.548571 
L 813.077167 185.948977 
L 813.606272 185.948977 
L 814.135378 185.548571 
L 814.664483 185.948977 
L 817.310009 185.948977 
L 817.839114 185.148165 
L 818.368219 185.548571 
L 818.897324 185.548571 
L 819.42643 185.948977 
L 821.013745 185.948977 
L 821.54285 185.548571 
L 822.071956 183.146133 
L 822.601061 178.741664 
L 823.659271 183.946946 
L 824.188376 178.341258 
L 825.246587 145.507941 
L 826.304797 133.495752 
L 827.363008 115.077063 
L 827.892113 99.461217 
L 828.421218 99.461217 
L 828.950323 92.65431 
L 829.479429 77.038464 
L 830.008534 91.453091 
L 830.537639 98.660404 
L 831.066744 96.257967 
L 831.595849 94.656341 
L 832.65406 124.286407 
L 833.183165 145.107535 
L 833.71227 141.103472 
L 834.241375 143.906316 
L 835.299586 157.52013 
L 835.828691 155.117692 
L 836.886901 155.918505 
L 837.416007 162.325006 
L 837.945112 181.944914 
L 838.474217 185.948977 
L 839.003322 185.948977 
L 839.532427 183.946946 
L 840.061533 183.946946 
L 840.590638 181.944914 
L 841.119743 185.548571 
L 841.648848 179.942883 
L 842.177953 184.747758 
L 842.707059 185.948977 
L 843.236164 185.548571 
L 843.765269 185.948977 
L 844.294374 185.948977 
L 844.823479 184.747758 
L 845.352585 185.548571 
L 845.88169 185.948977 
L 846.410795 181.944914 
L 846.9399 182.745727 
L 847.469005 184.747758 
L 847.998111 185.548571 
L 848.527216 183.946946 
L 848.527216 183.946946 
" clip-path="url(#p45963f21cd)" style="fill: none; stroke: #8c564b; stroke-opacity: 0.9; stroke-width: 1.8; stroke-linecap: square"/>
   </g>
   <g id="patch_3">
    <path d="M 71.298125 193.11625 
L 71.298125 35.43625 
" style="fill: none; stroke: #000000; stroke-width: 0.8; stroke-linejoin: miter; stroke-linecap: square"/>
   </g>
   <g id="patch_4">
    <path d="M 885.538125 193.11625 
L 885.538125 35.43625 
" style="fill: none; stroke: #000000; stroke-width: 0.8; stroke-linejoin: miter; stroke-linecap: square"/>
   </g>
   <g id="patch_5">
    <path d="M 71.298125 193.11625 
L 885.538125 193.11625 
" style="fill: none; stroke: #000000; stroke-width: 0.8; stroke-linejoin: miter; stroke-linecap: square"/>
   </g>
   <g id="patch_6">
    <path d="M 71.298125 35.43625 
L 885.538125 35.43625 
" style="fill: none; stroke: #000000; stroke-width: 0.8; stroke-linejoin: miter; stroke-linecap: square"/>
   </g>
   <g id="text_14">
    <!-- Sensor Location 42037 -->
    <g transform="translate(340.725625 25.43625) scale(0.24 -0.24)">
     <defs>
      <path id="DejaVuSans-6e" d="M 3513 2113 
L 3513 0 
L 2938 0 
L 2938 2094 
Q 2938 2591 2744 2837 
Q 2550 3084 2163 3084 
Q 1697 3084 1428 2787 
Q 1159 2491 1159 1978 
L 1159 0 
L 581 0 
L 581 3500 
L 1159 3500 
L 1159 2956 
Q 1366 3272 1645 3428 
Q 1925 3584 2291 3584 
Q 2894 3584 3203 3211 
Q 3513 2838 3513 2113 
z
" transform="scale(0.015625)"/>
      <path id="DejaVuSans-73" d="M 2834 3397 
L 2834 2853 
Q 2591 2978 2328 3040 
Q 2066 3103 1784 3103 
Q 1356 3103 1142 2972 
Q 928 2841 928 2578 
Q 928 2378 1081 2264 
Q 1234 2150 1697 2047 
L 1894 2003 
Q 2506 1872 2764 1633 
Q 3022 1394 3022 966 
Q 3022 478 2636 193 
Q 2250 -91 1575 -91 
Q 1294 -91 989 -36 
Q 684 19 347 128 
L 347 722 
Q 666 556 975 473 
Q 1284 391 1588 391 
Q 1994 391 2212 530 
Q 2431 669 2431 922 
Q 2431 1156 2273 1281 
Q 2116 1406 1581 1522 
L 1381 1569 
Q 847 1681 609 1914 
Q 372 2147 372 2553 
Q 372 3047 722 3315 
Q 1072 3584 1716 3584 
Q 2034 3584 2315 3537 
Q 2597 3491 2834 3397 
z
" transform="scale(0.015625)"/>
      <path id="DejaVuSans-4c" d="M 628 4666 
L 1259 4666 
L 1259 531 
L 3531 531 
L 3531 0 
L 628 0 
L 628 4666 
z
" transform="scale(0.015625)"/>
      <path id="DejaVuSans-63" d="M 3122 3366 
L 3122 2828 
Q 2878 2963 2633 3030 
Q 2388 3097 2138 3097 
Q 1578 3097 1268 2742 
Q 959 2388 959 1747 
Q 959 1106 1268 751 
Q 1578 397 2138 397 
Q 2388 397 2633 464 
Q 2878 531 3122 666 
L 3122 134 
Q 2881 22 2623 -34 
Q 2366 -91 2075 -91 
Q 1284 -91 818 406 
Q 353 903 353 1747 
Q 353 2603 823 3093 
Q 1294 3584 2113 3584 
Q 2378 3584 2631 3529 
Q 2884 3475 3122 3366 
z
" transform="scale(0.015625)"/>
      <path id="DejaVuSans-74" d="M 1172 4494 
L 1172 3500 
L 2356 3500 
L 2356 3053 
L 1172 3053 
L 1172 1153 
Q 1172 725 1289 603 
Q 1406 481 1766 481 
L 2356 481 
L 2356 0 
L 1766 0 
Q 1100 0 847 248 
Q 594 497 594 1153 
L 594 3053 
L 172 3053 
L 172 3500 
L 594 3500 
L 594 4494 
L 1172 4494 
z
" transform="scale(0.015625)"/>
      <path id="DejaVuSans-33" d="M 2597 2516 
Q 3050 2419 3304 2112 
Q 3559 1806 3559 1356 
Q 3559 666 3084 287 
Q 2609 -91 1734 -91 
Q 1441 -91 1130 -33 
Q 819 25 488 141 
L 488 750 
Q 750 597 1062 519 
Q 1375 441 1716 441 
Q 2309 441 2620 675 
Q 2931 909 2931 1356 
Q 2931 1769 2642 2001 
Q 2353 2234 1838 2234 
L 1294 2234 
L 1294 2753 
L 1863 2753 
Q 2328 2753 2575 2939 
Q 2822 3125 2822 3475 
Q 2822 3834 2567 4026 
Q 2313 4219 1838 4219 
Q 1578 4219 1281 4162 
Q 984 4106 628 3988 
L 628 4550 
Q 988 4650 1302 4700 
Q 1616 4750 1894 4750 
Q 2613 4750 3031 4423 
Q 3450 4097 3450 3541 
Q 3450 3153 3228 2886 
Q 3006 2619 2597 2516 
z
" transform="scale(0.015625)"/>
      <path id="DejaVuSans-37" d="M 525 4666 
L 3525 4666 
L 3525 4397 
L 1831 0 
L 1172 0 
L 2766 4134 
L 525 4134 
L 525 4666 
z
" transform="scale(0.015625)"/>
     </defs>
     <use xlink:href="#DejaVuSans-53"/>
     <use xlink:href="#DejaVuSans-65" transform="translate(63.476562 0)"/>
     <use xlink:href="#DejaVuSans-6e" transform="translate(125 0)"/>
     <use xlink:href="#DejaVuSans-73" transform="translate(188.378906 0)"/>
     <use xlink:href="#DejaVuSans-6f" transform="translate(240.478516 0)"/>
     <use xlink:href="#DejaVuSans-72" transform="translate(301.660156 0)"/>
     <use xlink:href="#DejaVuSans-20" transform="translate(342.773438 0)"/>
     <use xlink:href="#DejaVuSans-4c" transform="translate(374.560547 0)"/>
     <use xlink:href="#DejaVuSans-6f" transform="translate(428.523438 0)"/>
     <use xlink:href="#DejaVuSans-63" transform="translate(489.705078 0)"/>
     <use xlink:href="#DejaVuSans-61" transform="translate(544.685547 0)"/>
     <use xlink:href="#DejaVuSans-74" transform="translate(605.964844 0)"/>
     <use xlink:href="#DejaVuSans-69" transform="translate(645.173828 0)"/>
     <use xlink:href="#DejaVuSans-6f" transform="translate(672.957031 0)"/>
     <use xlink:href="#DejaVuSans-6e" transform="translate(734.138672 0)"/>
     <use xlink:href="#DejaVuSans-20" transform="translate(797.517578 0)"/>
     <use xlink:href="#DejaVuSans-34" transform="translate(829.304688 0)"/>
     <use xlink:href="#DejaVuSans-32" transform="translate(892.927734 0)"/>
     <use xlink:href="#DejaVuSans-30" transform="translate(956.550781 0)"/>
     <use xlink:href="#DejaVuSans-33" transform="translate(1020.173828 0)"/>
     <use xlink:href="#DejaVuSans-37" transform="translate(1083.796875 0)"/>
    </g>
   </g>
  </g>
 </g>
 <defs>
  <clipPath id="p45963f21cd">
   <rect x="71.298125" y="35.43625" width="814.24" height="157.68"/>
  </clipPath>
 </defs>
</svg>
