<?xml version="1.0" encoding="utf-8" standalone="no"?>
<!DOCTYPE svg PUBLIC "-//W3C//DTD SVG 1.1//EN"
  "http://www.w3.org/Graphics/SVG/1.1/DTD/svg11.dtd">
<svg xmlns:xlink="http://www.w3.org/1999/xlink" width="892.738125pt" height="251.964375pt" viewBox="0 0 892.738125 251.964375" xmlns="http://www.w3.org/2000/svg" version="1.1">
 <metadata>
  <rdf:RDF xmlns:dc="http://purl.org/dc/elements/1.1/" xmlns:cc="http://creativecommons.org/ns#" xmlns:rdf="http://www.w3.org/1999/02/22-rdf-syntax-ns#">
   <cc:Work>
    <dc:type rdf:resource="http://purl.org/dc/dcmitype/StillImage"/>
    <dc:date>2026-02-24T16:51:50.032447</dc:date>
    <dc:format>image/svg+xml</dc:format>
    <dc:creator>
     <cc:Agent>
      <dc:title>Matplotlib v3.10.6, https://matplotlib.org/</dc:title>
     </cc:Agent>
    </dc:creator>
   </cc:Work>
  </rdf:RDF>
 </metadata>
 <defs>
  <style type="text/css">*{stroke-linejoin: round; stroke-linecap: butt}</style>
 </defs>
 <g id="figure_1">
  <g id="patch_1">
   <path d="M -0 251.964375 
L 892.738125 251.964375 
L 892.738125 0 
L -0 0 
z
" style="fill: #ffffff"/>
  </g>
  <g id="axes_1">
   <g id="patch_2">
    <path d="M 71.298125 193.11625 
L 885.538125 193.11625 
L 885.538125 35.43625 
L 71.298125 35.43625 
z
" style="fill: #ffffff"/>
   </g>
   <g id="matplotlib.axis_1">
    <g id="xtick_1">
     <g id="line2d_1">
      <path d="M 108.309034 193.11625 
L 108.309034 35.43625 
" clip-path="url(#p666e346138)" style="fill: none; stroke-dasharray: 2.96,1.28; stroke-dashoffset: 0; stroke: #b0b0b0; stroke-opacity: 0.3; stroke-width: 0.8"/>
     </g>
     <g id="line2d_2">
      <defs>
       <path id="m6b5cbe2943" d="M 0 0 
L 0 3.5 
" style="stroke: #000000; stroke-width: 0.8"/>
      </defs>
      <g>
       <use xlink:href="#m6b5cbe2943" x="108.309034" y="193.11625" style="stroke: #000000; stroke-width: 0.8"/>
      </g>
     </g>
     <g id="text_1">
      <!-- 0 -->
      <g transform="translate(101.946534 215.313125) scale(0.2 -0.2)">
       <defs>
        <path id="DejaVuSans-30" d="M 2034 4250 
Q 1547 4250 1301 3770 
Q 1056 3291 1056 2328 
Q 1056 1369 1301 889 
Q 1547 409 2034 409 
Q 2525 409 2770 889 
Q 3016 1369 3016 2328 
Q 3016 3291 2770 3770 
Q 2525 4250 2034 4250 
z
M 2034 4750 
Q 2819 4750 3233 4129 
Q 3647 3509 3647 2328 
Q 3647 1150 3233 529 
Q 2819 -91 2034 -91 
Q 1250 -91 836 529 
Q 422 1150 422 2328 
Q 422 3509 836 4129 
Q 1250 4750 2034 4750 
z
" transform="scale(0.015625)"/>
       </defs>
       <use xlink:href="#DejaVuSans-30"/>
      </g>
     </g>
    </g>
    <g id="xtick_2">
     <g id="line2d_3">
      <path d="M 214.130075 193.11625 
L 214.130075 35.43625 
" clip-path="url(#p666e346138)" style="fill: none; stroke-dasharray: 2.96,1.28; stroke-dashoffset: 0; stroke: #b0b0b0; stroke-opacity: 0.3; stroke-width: 0.8"/>
     </g>
     <g id="line2d_4">
      <g>
       <use xlink:href="#m6b5cbe2943" x="214.130075" y="193.11625" style="stroke: #000000; stroke-width: 0.8"/>
      </g>
     </g>
     <g id="text_2">
      <!-- 200 -->
      <g transform="translate(195.042575 215.313125) scale(0.2 -0.2)">
       <defs>
        <path id="DejaVuSans-32" d="M 1228 531 
L 3431 531 
L 3431 0 
L 469 0 
L 469 531 
Q 828 903 1448 1529 
Q 2069 2156 2228 2338 
Q 2531 2678 2651 2914 
Q 2772 3150 2772 3378 
Q 2772 3750 2511 3984 
Q 2250 4219 1831 4219 
Q 1534 4219 1204 4116 
Q 875 4013 500 3803 
L 500 4441 
Q 881 4594 1212 4672 
Q 1544 4750 1819 4750 
Q 2544 4750 2975 4387 
Q 3406 4025 3406 3419 
Q 3406 3131 3298 2873 
Q 3191 2616 2906 2266 
Q 2828 2175 2409 1742 
Q 1991 1309 1228 531 
z
" transform="scale(0.015625)"/>
       </defs>
       <use xlink:href="#DejaVuSans-32"/>
       <use xlink:href="#DejaVuSans-30" transform="translate(63.623047 0)"/>
       <use xlink:href="#DejaVuSans-30" transform="translate(127.246094 0)"/>
      </g>
     </g>
    </g>
    <g id="xtick_3">
     <g id="line2d_5">
      <path d="M 319.951116 193.11625 
L 319.951116 35.43625 
" clip-path="url(#p666e346138)" style="fill: none; stroke-dasharray: 2.96,1.28; stroke-dashoffset: 0; stroke: #b0b0b0; stroke-opacity: 0.3; stroke-width: 0.8"/>
     </g>
     <g id="line2d_6">
      <g>
       <use xlink:href="#m6b5cbe2943" x="319.951116" y="193.11625" style="stroke: #000000; stroke-width: 0.8"/>
      </g>
     </g>
     <g id="text_3">
      <!-- 400 -->
      <g transform="translate(300.863616 215.313125) scale(0.2 -0.2)">
       <defs>
        <path id="DejaVuSans-34" d="M 2419 4116 
L 825 1625 
L 2419 1625 
L 2419 4116 
z
M 2253 4666 
L 3047 4666 
L 3047 1625 
L 3713 1625 
L 3713 1100 
L 3047 1100 
L 3047 0 
L 2419 0 
L 2419 1100 
L 313 1100 
L 313 1709 
L 2253 4666 
z
" transform="scale(0.015625)"/>
       </defs>
       <use xlink:href="#DejaVuSans-34"/>
       <use xlink:href="#DejaVuSans-30" transform="translate(63.623047 0)"/>
       <use xlink:href="#DejaVuSans-30" transform="translate(127.246094 0)"/>
      </g>
     </g>
    </g>
    <g id="xtick_4">
     <g id="line2d_7">
      <path d="M 425.772157 193.11625 
L 425.772157 35.43625 
" clip-path="url(#p666e346138)" style="fill: none; stroke-dasharray: 2.96,1.28; stroke-dashoffset: 0; stroke: #b0b0b0; stroke-opacity: 0.3; stroke-width: 0.8"/>
     </g>
     <g id="line2d_8">
      <g>
       <use xlink:href="#m6b5cbe2943" x="425.772157" y="193.11625" style="stroke: #000000; stroke-width: 0.8"/>
      </g>
     </g>
     <g id="text_4">
      <!-- 600 -->
      <g transform="translate(406.684657 215.313125) scale(0.2 -0.2)">
       <defs>
        <path id="DejaVuSans-36" d="M 2113 2584 
Q 1688 2584 1439 2293 
Q 1191 2003 1191 1497 
Q 1191 994 1439 701 
Q 1688 409 2113 409 
Q 2538 409 2786 701 
Q 3034 994 3034 1497 
Q 3034 2003 2786 2293 
Q 2538 2584 2113 2584 
z
M 3366 4563 
L 3366 3988 
Q 3128 4100 2886 4159 
Q 2644 4219 2406 4219 
Q 1781 4219 1451 3797 
Q 1122 3375 1075 2522 
Q 1259 2794 1537 2939 
Q 1816 3084 2150 3084 
Q 2853 3084 3261 2657 
Q 3669 2231 3669 1497 
Q 3669 778 3244 343 
Q 2819 -91 2113 -91 
Q 1303 -91 875 529 
Q 447 1150 447 2328 
Q 447 3434 972 4092 
Q 1497 4750 2381 4750 
Q 2619 4750 2861 4703 
Q 3103 4656 3366 4563 
z
" transform="scale(0.015625)"/>
       </defs>
       <use xlink:href="#DejaVuSans-36"/>
       <use xlink:href="#DejaVuSans-30" transform="translate(63.623047 0)"/>
       <use xlink:href="#DejaVuSans-30" transform="translate(127.246094 0)"/>
      </g>
     </g>
    </g>
    <g id="xtick_5">
     <g id="line2d_9">
      <path d="M 531.593198 193.11625 
L 531.593198 35.43625 
" clip-path="url(#p666e346138)" style="fill: none; stroke-dasharray: 2.96,1.28; stroke-dashoffset: 0; stroke: #b0b0b0; stroke-opacity: 0.3; stroke-width: 0.8"/>
     </g>
     <g id="line2d_10">
      <g>
       <use xlink:href="#m6b5cbe2943" x="531.593198" y="193.11625" style="stroke: #000000; stroke-width: 0.8"/>
      </g>
     </g>
     <g id="text_5">
      <!-- 800 -->
      <g transform="translate(512.505698 215.313125) scale(0.2 -0.2)">
       <defs>
        <path id="DejaVuSans-38" d="M 2034 2216 
Q 1584 2216 1326 1975 
Q 1069 1734 1069 1313 
Q 1069 891 1326 650 
Q 1584 409 2034 409 
Q 2484 409 2743 651 
Q 3003 894 3003 1313 
Q 3003 1734 2745 1975 
Q 2488 2216 2034 2216 
z
M 1403 2484 
Q 997 2584 770 2862 
Q 544 3141 544 3541 
Q 544 4100 942 4425 
Q 1341 4750 2034 4750 
Q 2731 4750 3128 4425 
Q 3525 4100 3525 3541 
Q 3525 3141 3298 2862 
Q 3072 2584 2669 2484 
Q 3125 2378 3379 2068 
Q 3634 1759 3634 1313 
Q 3634 634 3220 271 
Q 2806 -91 2034 -91 
Q 1263 -91 848 271 
Q 434 634 434 1313 
Q 434 1759 690 2068 
Q 947 2378 1403 2484 
z
M 1172 3481 
Q 1172 3119 1398 2916 
Q 1625 2713 2034 2713 
Q 2441 2713 2670 2916 
Q 2900 3119 2900 3481 
Q 2900 3844 2670 4047 
Q 2441 4250 2034 4250 
Q 1625 4250 1398 4047 
Q 1172 3844 1172 3481 
z
" transform="scale(0.015625)"/>
       </defs>
       <use xlink:href="#DejaVuSans-38"/>
       <use xlink:href="#DejaVuSans-30" transform="translate(63.623047 0)"/>
       <use xlink:href="#DejaVuSans-30" transform="translate(127.246094 0)"/>
      </g>
     </g>
    </g>
    <g id="xtick_6">
     <g id="line2d_11">
      <path d="M 637.414239 193.11625 
L 637.414239 35.43625 
" clip-path="url(#p666e346138)" style="fill: none; stroke-dasharray: 2.96,1.28; stroke-dashoffset: 0; stroke: #b0b0b0; stroke-opacity: 0.3; stroke-width: 0.8"/>
     </g>
     <g id="line2d_12">
      <g>
       <use xlink:href="#m6b5cbe2943" x="637.414239" y="193.11625" style="stroke: #000000; stroke-width: 0.8"/>
      </g>
     </g>
     <g id="text_6">
      <!-- 1000 -->
      <g transform="translate(611.964239 215.313125) scale(0.2 -0.2)">
       <defs>
        <path id="DejaVuSans-31" d="M 794 531 
L 1825 531 
L 1825 4091 
L 703 3866 
L 703 4441 
L 1819 4666 
L 2450 4666 
L 2450 531 
L 3481 531 
L 3481 0 
L 794 0 
L 794 531 
z
" transform="scale(0.015625)"/>
       </defs>
       <use xlink:href="#DejaVuSans-31"/>
       <use xlink:href="#DejaVuSans-30" transform="translate(63.623047 0)"/>
       <use xlink:href="#DejaVuSans-30" transform="translate(127.246094 0)"/>
       <use xlink:href="#DejaVuSans-30" transform="translate(190.869141 0)"/>
      </g>
     </g>
    </g>
    <g id="xtick_7">
     <g id="line2d_13">
      <path d="M 743.23528 193.11625 
L 743.23528 35.43625 
" clip-path="url(#p666e346138)" style="fill: none; stroke-dasharray: 2.96,1.28; stroke-dashoffset: 0; stroke: #b0b0b0; stroke-opacity: 0.3; stroke-width: 0.8"/>
     </g>
     <g id="line2d_14">
      <g>
       <use xlink:href="#m6b5cbe2943" x="743.23528" y="193.11625" style="stroke: #000000; stroke-width: 0.8"/>
      </g>
     </g>
     <g id="text_7">
      <!-- 1200 -->
      <g transform="translate(717.78528 215.313125) scale(0.2 -0.2)">
       <use xlink:href="#DejaVuSans-31"/>
       <use xlink:href="#DejaVuSans-32" transform="translate(63.623047 0)"/>
       <use xlink:href="#DejaVuSans-30" transform="translate(127.246094 0)"/>
       <use xlink:href="#DejaVuSans-30" transform="translate(190.869141 0)"/>
      </g>
     </g>
    </g>
    <g id="xtick_8">
     <g id="line2d_15">
      <path d="M 849.056321 193.11625 
L 849.056321 35.43625 
" clip-path="url(#p666e346138)" style="fill: none; stroke-dasharray: 2.96,1.28; stroke-dashoffset: 0; stroke: #b0b0b0; stroke-opacity: 0.3; stroke-width: 0.8"/>
     </g>
     <g id="line2d_16">
      <g>
       <use xlink:href="#m6b5cbe2943" x="849.056321" y="193.11625" style="stroke: #000000; stroke-width: 0.8"/>
      </g>
     </g>
     <g id="text_8">
      <!-- 1400 -->
      <g transform="translate(823.606321 215.313125) scale(0.2 -0.2)">
       <use xlink:href="#DejaVuSans-31"/>
       <use xlink:href="#DejaVuSans-34" transform="translate(63.623047 0)"/>
       <use xlink:href="#DejaVuSans-30" transform="translate(127.246094 0)"/>
       <use xlink:href="#DejaVuSans-30" transform="translate(190.869141 0)"/>
      </g>
     </g>
    </g>
    <g id="text_9">
     <!-- Time Index -->
     <g transform="translate(410.037656 240.189062) scale(0.22 -0.22)">
      <defs>
       <path id="DejaVuSans-Bold-54" d="M 31 4666 
L 4331 4666 
L 4331 3756 
L 2784 3756 
L 2784 0 
L 1581 0 
L 1581 3756 
L 31 3756 
L 31 4666 
z
" transform="scale(0.015625)"/>
       <path id="DejaVuSans-Bold-69" d="M 538 3500 
L 1656 3500 
L 1656 0 
L 538 0 
L 538 3500 
z
M 538 4863 
L 1656 4863 
L 1656 3950 
L 538 3950 
L 538 4863 
z
" transform="scale(0.015625)"/>
       <path id="DejaVuSans-Bold-6d" d="M 3781 2919 
Q 3994 3244 4286 3414 
Q 4578 3584 4928 3584 
Q 5531 3584 5847 3212 
Q 6163 2841 6163 2131 
L 6163 0 
L 5038 0 
L 5038 1825 
Q 5041 1866 5042 1909 
Q 5044 1953 5044 2034 
Q 5044 2406 4934 2573 
Q 4825 2741 4581 2741 
Q 4263 2741 4089 2478 
Q 3916 2216 3909 1719 
L 3909 0 
L 2784 0 
L 2784 1825 
Q 2784 2406 2684 2573 
Q 2584 2741 2328 2741 
Q 2006 2741 1831 2477 
Q 1656 2213 1656 1722 
L 1656 0 
L 531 0 
L 531 3500 
L 1656 3500 
L 1656 2988 
Q 1863 3284 2130 3434 
Q 2397 3584 2719 3584 
Q 3081 3584 3359 3409 
Q 3638 3234 3781 2919 
z
" transform="scale(0.015625)"/>
       <path id="DejaVuSans-Bold-65" d="M 4031 1759 
L 4031 1441 
L 1416 1441 
Q 1456 1047 1700 850 
Q 1944 653 2381 653 
Q 2734 653 3104 758 
Q 3475 863 3866 1075 
L 3866 213 
Q 3469 63 3072 -14 
Q 2675 -91 2278 -91 
Q 1328 -91 801 392 
Q 275 875 275 1747 
Q 275 2603 792 3093 
Q 1309 3584 2216 3584 
Q 3041 3584 3536 3087 
Q 4031 2591 4031 1759 
z
M 2881 2131 
Q 2881 2450 2695 2645 
Q 2509 2841 2209 2841 
Q 1884 2841 1681 2658 
Q 1478 2475 1428 2131 
L 2881 2131 
z
" transform="scale(0.015625)"/>
       <path id="DejaVuSans-Bold-20" transform="scale(0.015625)"/>
       <path id="DejaVuSans-Bold-49" d="M 588 4666 
L 1791 4666 
L 1791 0 
L 588 0 
L 588 4666 
z
" transform="scale(0.015625)"/>
       <path id="DejaVuSans-Bold-6e" d="M 4056 2131 
L 4056 0 
L 2931 0 
L 2931 347 
L 2931 1631 
Q 2931 2084 2911 2256 
Q 2891 2428 2841 2509 
Q 2775 2619 2662 2680 
Q 2550 2741 2406 2741 
Q 2056 2741 1856 2470 
Q 1656 2200 1656 1722 
L 1656 0 
L 538 0 
L 538 3500 
L 1656 3500 
L 1656 2988 
Q 1909 3294 2193 3439 
Q 2478 3584 2822 3584 
Q 3428 3584 3742 3212 
Q 4056 2841 4056 2131 
z
" transform="scale(0.015625)"/>
       <path id="DejaVuSans-Bold-64" d="M 2919 2988 
L 2919 4863 
L 4044 4863 
L 4044 0 
L 2919 0 
L 2919 506 
Q 2688 197 2409 53 
Q 2131 -91 1766 -91 
Q 1119 -91 703 423 
Q 288 938 288 1747 
Q 288 2556 703 3070 
Q 1119 3584 1766 3584 
Q 2128 3584 2408 3439 
Q 2688 3294 2919 2988 
z
M 2181 722 
Q 2541 722 2730 984 
Q 2919 1247 2919 1747 
Q 2919 2247 2730 2509 
Q 2541 2772 2181 2772 
Q 1825 2772 1636 2509 
Q 1447 2247 1447 1747 
Q 1447 1247 1636 984 
Q 1825 722 2181 722 
z
" transform="scale(0.015625)"/>
       <path id="DejaVuSans-Bold-78" d="M 1422 1791 
L 159 3500 
L 1344 3500 
L 2059 2463 
L 2784 3500 
L 3969 3500 
L 2706 1797 
L 4031 0 
L 2847 0 
L 2059 1106 
L 1281 0 
L 97 0 
L 1422 1791 
z
" transform="scale(0.015625)"/>
      </defs>
      <use xlink:href="#DejaVuSans-Bold-54"/>
      <use xlink:href="#DejaVuSans-Bold-69" transform="translate(68.212891 0)"/>
      <use xlink:href="#DejaVuSans-Bold-6d" transform="translate(102.490234 0)"/>
      <use xlink:href="#DejaVuSans-Bold-65" transform="translate(206.689453 0)"/>
      <use xlink:href="#DejaVuSans-Bold-20" transform="translate(274.511719 0)"/>
      <use xlink:href="#DejaVuSans-Bold-49" transform="translate(309.326172 0)"/>
      <use xlink:href="#DejaVuSans-Bold-6e" transform="translate(346.533203 0)"/>
      <use xlink:href="#DejaVuSans-Bold-64" transform="translate(417.724609 0)"/>
      <use xlink:href="#DejaVuSans-Bold-65" transform="translate(489.306641 0)"/>
      <use xlink:href="#DejaVuSans-Bold-78" transform="translate(557.128906 0)"/>
     </g>
    </g>
   </g>
   <g id="matplotlib.axis_2">
    <g id="ytick_1">
     <g id="line2d_17">
      <path d="M 71.298125 185.093184 
L 885.538125 185.093184 
" clip-path="url(#p666e346138)" style="fill: none; stroke-dasharray: 2.96,1.28; stroke-dashoffset: 0; stroke: #b0b0b0; stroke-opacity: 0.3; stroke-width: 0.8"/>
     </g>
     <g id="line2d_18">
      <defs>
       <path id="mb50e544929" d="M 0 0 
L -3.5 0 
" style="stroke: #000000; stroke-width: 0.8"/>
      </defs>
      <g>
       <use xlink:href="#mb50e544929" x="71.298125" y="185.093184" style="stroke: #000000; stroke-width: 0.8"/>
      </g>
     </g>
     <g id="text_10">
      <!-- 0.0 -->
      <g transform="translate(32.491875 192.691621) scale(0.2 -0.2)">
       <defs>
        <path id="DejaVuSans-2e" d="M 684 794 
L 1344 794 
L 1344 0 
L 684 0 
L 684 794 
z
" transform="scale(0.015625)"/>
       </defs>
       <use xlink:href="#DejaVuSans-30"/>
       <use xlink:href="#DejaVuSans-2e" transform="translate(63.623047 0)"/>
       <use xlink:href="#DejaVuSans-30" transform="translate(95.410156 0)"/>
      </g>
     </g>
    </g>
    <g id="ytick_2">
     <g id="line2d_19">
      <path d="M 71.298125 113.848353 
L 885.538125 113.848353 
" clip-path="url(#p666e346138)" style="fill: none; stroke-dasharray: 2.96,1.28; stroke-dashoffset: 0; stroke: #b0b0b0; stroke-opacity: 0.3; stroke-width: 0.8"/>
     </g>
     <g id="line2d_20">
      <g>
       <use xlink:href="#mb50e544929" x="71.298125" y="113.848353" style="stroke: #000000; stroke-width: 0.8"/>
      </g>
     </g>
     <g id="text_11">
      <!-- 0.5 -->
      <g transform="translate(32.491875 121.446791) scale(0.2 -0.2)">
       <defs>
        <path id="DejaVuSans-35" d="M 691 4666 
L 3169 4666 
L 3169 4134 
L 1269 4134 
L 1269 2991 
Q 1406 3038 1543 3061 
Q 1681 3084 1819 3084 
Q 2600 3084 3056 2656 
Q 3513 2228 3513 1497 
Q 3513 744 3044 326 
Q 2575 -91 1722 -91 
Q 1428 -91 1123 -41 
Q 819 9 494 109 
L 494 744 
Q 775 591 1075 516 
Q 1375 441 1709 441 
Q 2250 441 2565 725 
Q 2881 1009 2881 1497 
Q 2881 1984 2565 2268 
Q 2250 2553 1709 2553 
Q 1456 2553 1204 2497 
Q 953 2441 691 2322 
L 691 4666 
z
" transform="scale(0.015625)"/>
       </defs>
       <use xlink:href="#DejaVuSans-30"/>
       <use xlink:href="#DejaVuSans-2e" transform="translate(63.623047 0)"/>
       <use xlink:href="#DejaVuSans-35" transform="translate(95.410156 0)"/>
      </g>
     </g>
    </g>
    <g id="ytick_3">
     <g id="line2d_21">
      <path d="M 71.298125 42.603523 
L 885.538125 42.603523 
" clip-path="url(#p666e346138)" style="fill: none; stroke-dasharray: 2.96,1.28; stroke-dashoffset: 0; stroke: #b0b0b0; stroke-opacity: 0.3; stroke-width: 0.8"/>
     </g>
     <g id="line2d_22">
      <g>
       <use xlink:href="#mb50e544929" x="71.298125" y="42.603523" style="stroke: #000000; stroke-width: 0.8"/>
      </g>
     </g>
     <g id="text_12">
      <!-- 1.0 -->
      <g transform="translate(32.491875 50.20196) scale(0.2 -0.2)">
       <use xlink:href="#DejaVuSans-31"/>
       <use xlink:href="#DejaVuSans-2e" transform="translate(63.623047 0)"/>
       <use xlink:href="#DejaVuSans-30" transform="translate(95.410156 0)"/>
      </g>
     </g>
    </g>
    <g id="text_13">
     <!-- Normalized SST -->
     <g transform="translate(23.916563 200.839375) rotate(-90) scale(0.22 -0.22)">
      <defs>
       <path id="DejaVuSans-4e" d="M 628 4666 
L 1478 4666 
L 3547 763 
L 3547 4666 
L 4159 4666 
L 4159 0 
L 3309 0 
L 1241 3903 
L 1241 0 
L 628 0 
L 628 4666 
z
" transform="scale(0.015625)"/>
       <path id="DejaVuSans-6f" d="M 1959 3097 
Q 1497 3097 1228 2736 
Q 959 2375 959 1747 
Q 959 1119 1226 758 
Q 1494 397 1959 397 
Q 2419 397 2687 759 
Q 2956 1122 2956 1747 
Q 2956 2369 2687 2733 
Q 2419 3097 1959 3097 
z
M 1959 3584 
Q 2709 3584 3137 3096 
Q 3566 2609 3566 1747 
Q 3566 888 3137 398 
Q 2709 -91 1959 -91 
Q 1206 -91 779 398 
Q 353 888 353 1747 
Q 353 2609 779 3096 
Q 1206 3584 1959 3584 
z
" transform="scale(0.015625)"/>
       <path id="DejaVuSans-72" d="M 2631 2963 
Q 2534 3019 2420 3045 
Q 2306 3072 2169 3072 
Q 1681 3072 1420 2755 
Q 1159 2438 1159 1844 
L 1159 0 
L 581 0 
L 581 3500 
L 1159 3500 
L 1159 2956 
Q 1341 3275 1631 3429 
Q 1922 3584 2338 3584 
Q 2397 3584 2469 3576 
Q 2541 3569 2628 3553 
L 2631 2963 
z
" transform="scale(0.015625)"/>
       <path id="DejaVuSans-6d" d="M 3328 2828 
Q 3544 3216 3844 3400 
Q 4144 3584 4550 3584 
Q 5097 3584 5394 3201 
Q 5691 2819 5691 2113 
L 5691 0 
L 5113 0 
L 5113 2094 
Q 5113 2597 4934 2840 
Q 4756 3084 4391 3084 
Q 3944 3084 3684 2787 
Q 3425 2491 3425 1978 
L 3425 0 
L 2847 0 
L 2847 2094 
Q 2847 2600 2669 2842 
Q 2491 3084 2119 3084 
Q 1678 3084 1418 2786 
Q 1159 2488 1159 1978 
L 1159 0 
L 581 0 
L 581 3500 
L 1159 3500 
L 1159 2956 
Q 1356 3278 1631 3431 
Q 1906 3584 2284 3584 
Q 2666 3584 2933 3390 
Q 3200 3197 3328 2828 
z
" transform="scale(0.015625)"/>
       <path id="DejaVuSans-61" d="M 2194 1759 
Q 1497 1759 1228 1600 
Q 959 1441 959 1056 
Q 959 750 1161 570 
Q 1363 391 1709 391 
Q 2188 391 2477 730 
Q 2766 1069 2766 1631 
L 2766 1759 
L 2194 1759 
z
M 3341 1997 
L 3341 0 
L 2766 0 
L 2766 531 
Q 2569 213 2275 61 
Q 1981 -91 1556 -91 
Q 1019 -91 701 211 
Q 384 513 384 1019 
Q 384 1609 779 1909 
Q 1175 2209 1959 2209 
L 2766 2209 
L 2766 2266 
Q 2766 2663 2505 2880 
Q 2244 3097 1772 3097 
Q 1472 3097 1187 3025 
Q 903 2953 641 2809 
L 641 3341 
Q 956 3463 1253 3523 
Q 1550 3584 1831 3584 
Q 2591 3584 2966 3190 
Q 3341 2797 3341 1997 
z
" transform="scale(0.015625)"/>
       <path id="DejaVuSans-6c" d="M 603 4863 
L 1178 4863 
L 1178 0 
L 603 0 
L 603 4863 
z
" transform="scale(0.015625)"/>
       <path id="DejaVuSans-69" d="M 603 3500 
L 1178 3500 
L 1178 0 
L 603 0 
L 603 3500 
z
M 603 4863 
L 1178 4863 
L 1178 4134 
L 603 4134 
L 603 4863 
z
" transform="scale(0.015625)"/>
       <path id="DejaVuSans-7a" d="M 353 3500 
L 3084 3500 
L 3084 2975 
L 922 459 
L 3084 459 
L 3084 0 
L 275 0 
L 275 525 
L 2438 3041 
L 353 3041 
L 353 3500 
z
" transform="scale(0.015625)"/>
       <path id="DejaVuSans-65" d="M 3597 1894 
L 3597 1613 
L 953 1613 
Q 991 1019 1311 708 
Q 1631 397 2203 397 
Q 2534 397 2845 478 
Q 3156 559 3463 722 
L 3463 178 
Q 3153 47 2828 -22 
Q 2503 -91 2169 -91 
Q 1331 -91 842 396 
Q 353 884 353 1716 
Q 353 2575 817 3079 
Q 1281 3584 2069 3584 
Q 2775 3584 3186 3129 
Q 3597 2675 3597 1894 
z
M 3022 2063 
Q 3016 2534 2758 2815 
Q 2500 3097 2075 3097 
Q 1594 3097 1305 2825 
Q 1016 2553 972 2059 
L 3022 2063 
z
" transform="scale(0.015625)"/>
       <path id="DejaVuSans-64" d="M 2906 2969 
L 2906 4863 
L 3481 4863 
L 3481 0 
L 2906 0 
L 2906 525 
Q 2725 213 2448 61 
Q 2172 -91 1784 -91 
Q 1150 -91 751 415 
Q 353 922 353 1747 
Q 353 2572 751 3078 
Q 1150 3584 1784 3584 
Q 2172 3584 2448 3432 
Q 2725 3281 2906 2969 
z
M 947 1747 
Q 947 1113 1208 752 
Q 1469 391 1925 391 
Q 2381 391 2643 752 
Q 2906 1113 2906 1747 
Q 2906 2381 2643 2742 
Q 2381 3103 1925 3103 
Q 1469 3103 1208 2742 
Q 947 2381 947 1747 
z
" transform="scale(0.015625)"/>
       <path id="DejaVuSans-20" transform="scale(0.015625)"/>
       <path id="DejaVuSans-53" d="M 3425 4513 
L 3425 3897 
Q 3066 4069 2747 4153 
Q 2428 4238 2131 4238 
Q 1616 4238 1336 4038 
Q 1056 3838 1056 3469 
Q 1056 3159 1242 3001 
Q 1428 2844 1947 2747 
L 2328 2669 
Q 3034 2534 3370 2195 
Q 3706 1856 3706 1288 
Q 3706 609 3251 259 
Q 2797 -91 1919 -91 
Q 1588 -91 1214 -16 
Q 841 59 441 206 
L 441 856 
Q 825 641 1194 531 
Q 1563 422 1919 422 
Q 2459 422 2753 634 
Q 3047 847 3047 1241 
Q 3047 1584 2836 1778 
Q 2625 1972 2144 2069 
L 1759 2144 
Q 1053 2284 737 2584 
Q 422 2884 422 3419 
Q 422 4038 858 4394 
Q 1294 4750 2059 4750 
Q 2388 4750 2728 4690 
Q 3069 4631 3425 4513 
z
" transform="scale(0.015625)"/>
       <path id="DejaVuSans-54" d="M -19 4666 
L 3928 4666 
L 3928 4134 
L 2272 4134 
L 2272 0 
L 1638 0 
L 1638 4134 
L -19 4134 
L -19 4666 
z
" transform="scale(0.015625)"/>
      </defs>
      <use xlink:href="#DejaVuSans-4e"/>
      <use xlink:href="#DejaVuSans-6f" transform="translate(74.804688 0)"/>
      <use xlink:href="#DejaVuSans-72" transform="translate(135.986328 0)"/>
      <use xlink:href="#DejaVuSans-6d" transform="translate(175.349609 0)"/>
      <use xlink:href="#DejaVuSans-61" transform="translate(272.761719 0)"/>
      <use xlink:href="#DejaVuSans-6c" transform="translate(334.041016 0)"/>
      <use xlink:href="#DejaVuSans-69" transform="translate(361.824219 0)"/>
      <use xlink:href="#DejaVuSans-7a" transform="translate(389.607422 0)"/>
      <use xlink:href="#DejaVuSans-65" transform="translate(442.097656 0)"/>
      <use xlink:href="#DejaVuSans-64" transform="translate(503.621094 0)"/>
      <use xlink:href="#DejaVuSans-20" transform="translate(567.097656 0)"/>
      <use xlink:href="#DejaVuSans-53" transform="translate(598.884766 0)"/>
      <use xlink:href="#DejaVuSans-53" transform="translate(662.361328 0)"/>
      <use xlink:href="#DejaVuSans-54" transform="translate(725.837891 0)"/>
     </g>
    </g>
   </g>
   <g id="line2d_23">
    <path d="M 108.309034 168.833102 
L 109.367245 169.474947 
L 109.89635 169.047051 
L 110.425455 169.902844 
L 110.95456 170.972586 
L 111.483665 173.967865 
L 112.012771 178.353808 
L 112.541876 180.493292 
L 113.070981 179.316576 
L 113.600086 177.39104 
L 114.129191 177.818937 
L 114.658297 177.177091 
L 115.187402 176.749194 
L 115.716507 170.009819 
L 116.245612 168.619154 
L 117.303823 148.187078 
L 118.362033 132.140945 
L 118.891138 124.866698 
L 119.420243 105.611338 
L 120.478454 80.900293 
L 121.007559 85.500185 
L 121.536664 86.035056 
L 122.065769 74.48184 
L 122.594875 82.07701 
L 123.12398 79.830551 
L 123.653085 81.32819 
L 124.18219 84.965314 
L 124.711295 87.211772 
L 125.240401 81.007268 
L 125.769506 81.756087 
L 126.298611 83.039778 
L 126.827716 85.393211 
L 127.356821 88.709411 
L 127.885927 94.379045 
L 128.415032 97.374323 
L 128.944137 104.541596 
L 129.473242 109.890307 
L 130.002347 124.973672 
L 130.531453 127.648027 
L 131.060558 132.675816 
L 131.589663 139.308217 
L 132.118768 149.363794 
L 132.647874 151.824201 
L 133.176979 156.317118 
L 133.706084 157.707783 
L 134.235189 159.740293 
L 134.764294 165.944798 
L 135.2934 167.870334 
L 135.822505 173.005097 
L 136.35161 170.865612 
L 136.880715 173.646942 
L 137.40982 174.823658 
L 137.938926 178.032885 
L 138.468031 183.274622 
L 138.997136 183.274622 
L 139.526241 179.42355 
L 140.055346 181.563034 
L 140.584452 181.242112 
L 141.113557 182.632776 
L 141.642662 180.172369 
L 142.171767 181.990931 
L 142.700872 182.418828 
L 143.759083 174.823658 
L 144.288188 169.902844 
L 144.817293 169.581922 
L 145.346398 167.870334 
L 145.875504 161.665829 
L 146.404609 150.005639 
L 146.933714 145.833645 
L 147.991924 131.713048 
L 149.57924 100.048679 
L 150.108345 92.667458 
L 151.166556 74.053943 
L 151.695661 85.393211 
L 152.224766 87.639669 
L 152.753871 90.741922 
L 153.282977 90.420999 
L 153.812082 90.741922 
L 154.341187 89.030334 
L 154.870292 94.699968 
L 155.399397 98.764988 
L 155.928503 106.146209 
L 156.457608 109.890307 
L 156.986713 114.811121 
L 157.515818 122.727213 
L 158.574029 129.466589 
L 159.103134 135.56412 
L 159.632239 135.778068 
L 160.161344 140.164011 
L 160.690449 143.266264 
L 161.219555 144.977851 
L 161.74866 147.759181 
L 162.277765 151.610253 
L 162.80687 156.531067 
L 163.335975 159.740293 
L 163.865081 159.847268 
L 164.394186 158.563577 
L 164.923291 158.13568 
L 165.452396 164.98203 
L 165.981501 159.847268 
L 166.510607 163.056494 
L 167.039712 168.405205 
L 167.568817 170.116793 
L 168.097922 170.330741 
L 168.627027 169.154025 
L 169.685238 170.758638 
L 170.214343 169.581922 
L 170.743448 166.479669 
L 171.272553 165.73085 
L 171.801659 161.558855 
L 172.330764 154.07066 
L 172.859869 153.428814 
L 173.388974 149.042871 
L 173.91808 138.880321 
L 174.97629 125.080646 
L 175.505395 102.936983 
L 176.0345 96.304581 
L 176.563606 98.444065 
L 177.621816 84.644391 
L 178.150921 79.402654 
L 178.680026 79.188706 
L 179.209132 79.188706 
L 179.738237 81.114242 
L 180.796447 90.848896 
L 181.325552 94.486019 
L 181.854658 96.625504 
L 182.383763 103.685802 
L 183.441973 125.080646 
L 183.971078 127.220131 
L 184.500184 133.959506 
L 185.029289 139.201243 
L 185.558394 142.303496 
L 186.087499 142.517444 
L 186.616604 142.41047 
L 187.14571 142.838367 
L 188.20392 147.010361 
L 188.733025 149.149846 
L 189.26213 155.033428 
L 189.791236 154.712505 
L 190.320341 157.493835 
L 190.849446 158.028706 
L 191.378551 154.819479 
L 192.436762 160.703061 
L 192.965867 165.089004 
L 193.494972 168.191257 
L 194.024077 167.01454 
L 195.082288 173.219045 
L 195.611393 172.5772 
L 196.140498 175.679452 
L 196.669603 171.614432 
L 197.198709 173.219045 
L 197.727814 169.154025 
L 198.256919 169.154025 
L 198.786024 170.330741 
L 199.844235 148.187078 
L 200.37334 158.456603 
L 201.960655 128.289873 
L 202.489761 107.002003 
L 204.077076 91.276793 
L 204.606181 81.542139 
L 205.135287 77.691067 
L 205.664392 58.970578 
L 206.193497 60.896114 
L 206.722602 57.258991 
L 207.251707 60.147295 
L 207.780813 57.472939 
L 208.309918 63.356521 
L 208.839023 73.091175 
L 209.368128 75.872505 
L 212.013654 115.239018 
L 212.542759 116.843631 
L 213.071865 123.15511 
L 213.60097 127.541053 
L 215.188286 135.778068 
L 215.717391 147.010361 
L 216.246496 148.721949 
L 216.775601 152.786969 
L 217.304706 154.07066 
L 217.833812 156.317118 
L 218.362917 155.35435 
L 218.892022 157.172912 
L 219.421127 162.521623 
L 219.950232 161.986752 
L 220.479338 164.661108 
L 221.008443 169.154025 
L 221.537548 167.228489 
L 222.066653 168.619154 
L 222.595758 172.791148 
L 223.124864 173.967865 
L 223.653969 172.5772 
L 224.183074 169.688896 
L 224.712179 172.791148 
L 225.241284 173.219045 
L 225.77039 167.335463 
L 226.299495 169.260999 
L 226.8286 166.158747 
L 227.357705 161.023984 
L 227.88681 159.633319 
L 228.415916 155.033428 
L 228.945021 148.935897 
L 229.474126 144.549954 
L 230.532336 125.93644 
L 231.061442 109.569384 
L 231.590547 102.402112 
L 232.119652 90.314025 
L 232.648757 82.07701 
L 233.177862 77.049222 
L 233.706968 82.397932 
L 235.294283 60.468217 
L 235.823388 57.045042 
L 236.352494 65.923903 
L 236.881599 79.616603 
L 237.410704 87.853618 
L 237.939809 87.639669 
L 238.468915 96.090633 
L 238.99802 109.141487 
L 239.527125 113.634405 
L 240.05623 123.796956 
L 240.585335 130.429357 
L 241.114441 133.959506 
L 241.643546 134.922274 
L 242.172651 138.987295 
L 242.701756 141.875599 
L 243.230861 143.266264 
L 243.759967 148.508 
L 244.818177 155.782247 
L 245.347282 158.028706 
L 245.876387 163.377417 
L 246.405493 162.94952 
L 246.934598 164.661108 
L 247.463703 167.870334 
L 247.992808 168.833102 
L 248.521913 172.149303 
L 249.051019 168.405205 
L 249.580124 172.149303 
L 250.109229 173.967865 
L 250.638334 174.823658 
L 251.167439 177.925911 
L 251.696545 175.893401 
L 252.754755 177.39104 
L 253.28386 171.400483 
L 253.812965 173.005097 
L 254.342071 171.721406 
L 254.871176 165.409927 
L 255.400281 149.149846 
L 255.929386 150.754459 
L 256.458491 143.159289 
L 256.987597 138.880321 
L 257.516702 135.778068 
L 258.045807 133.959506 
L 258.574912 119.731935 
L 259.104018 112.24374 
L 259.633123 106.467132 
L 260.162228 89.458231 
L 260.691333 84.002546 
L 261.749544 86.783876 
L 262.278649 86.249004 
L 262.807754 84.537417 
L 263.336859 88.17454 
L 263.865964 84.537417 
L 264.39507 84.537417 
L 265.982385 97.160375 
L 267.040596 105.611338 
L 267.569701 113.52743 
L 268.098806 116.843631 
L 268.627911 122.834188 
L 269.157016 127.327105 
L 270.215227 140.057037 
L 270.744332 142.303496 
L 271.273437 148.080103 
L 271.802542 155.35435 
L 272.331648 159.312397 
L 272.860753 159.847268 
L 273.389858 161.986752 
L 273.918963 161.986752 
L 274.448068 165.944798 
L 274.977174 165.73085 
L 275.506279 173.967865 
L 276.035384 173.86089 
L 276.564489 172.256277 
L 277.093594 173.539968 
L 277.6227 177.070117 
L 278.151805 176.321297 
L 278.68091 178.032885 
L 279.210015 174.395762 
L 279.739121 177.070117 
L 280.268226 177.925911 
L 280.797331 176.963143 
L 281.326436 174.502736 
L 281.855541 169.902844 
L 282.913752 156.638041 
L 283.971962 129.573563 
L 284.501067 126.792234 
L 285.030173 125.080646 
L 285.559278 111.708869 
L 286.088383 108.178719 
L 286.617488 98.444065 
L 287.146593 94.806942 
L 287.675699 90.314025 
L 288.204804 90.100076 
L 288.733909 87.318747 
L 289.263014 78.546861 
L 289.792119 71.700511 
L 290.321225 74.053943 
L 290.85033 69.988923 
L 291.90854 77.691067 
L 292.437645 80.365422 
L 292.966751 81.114242 
L 293.495856 92.025612 
L 294.024961 106.039235 
L 295.612277 126.471311 
L 296.141382 131.392125 
L 296.670487 134.922274 
L 297.199592 140.698882 
L 297.728697 143.801135 
L 298.257803 145.512722 
L 298.786908 150.326562 
L 299.316013 151.28933 
L 299.845118 158.349629 
L 300.374224 157.921732 
L 300.903329 164.126236 
L 301.432434 166.051772 
L 301.961539 170.009819 
L 302.490644 172.042329 
L 303.01975 173.219045 
L 303.548855 173.112071 
L 304.07796 174.288787 
L 304.607065 173.86089 
L 305.13617 174.395762 
L 305.665276 173.967865 
L 306.194381 178.567756 
L 306.723486 178.888679 
L 307.252591 178.995653 
L 307.781696 180.172369 
L 308.839907 171.721406 
L 309.369012 173.967865 
L 309.898117 169.902844 
L 310.956328 153.856711 
L 311.485433 151.824201 
L 312.014538 140.912831 
L 312.543643 116.629683 
L 313.072748 103.257905 
L 313.601854 94.913916 
L 314.130959 91.276793 
L 314.660064 77.370144 
L 315.189169 68.491284 
L 315.718274 64.640212 
L 316.24738 62.393753 
L 316.776485 66.244825 
L 317.30559 65.389032 
L 317.834695 57.152017 
L 318.3638 60.682166 
L 318.892906 59.505449 
L 319.422011 60.361243 
L 319.951116 65.282057 
L 320.480221 68.705232 
L 321.009327 74.053943 
L 322.067537 91.811664 
L 322.596642 101.974215 
L 323.125747 116.843631 
L 323.654853 123.262084 
L 324.183958 127.220131 
L 325.771273 135.671094 
L 326.829484 139.308217 
L 327.358589 138.238475 
L 327.887694 145.619696 
L 328.416799 144.015083 
L 329.47501 155.889222 
L 330.004115 154.391582 
L 330.53322 153.428814 
L 331.062325 156.317118 
L 331.591431 156.638041 
L 332.120536 155.675273 
L 332.649641 155.675273 
L 333.178746 158.456603 
L 333.707851 158.777525 
L 334.236957 161.879778 
L 334.766062 153.856711 
L 335.295167 158.991474 
L 335.824272 158.991474 
L 336.353377 154.07066 
L 336.882483 157.172912 
L 337.411588 150.861433 
L 337.940693 149.577743 
L 338.469798 145.084825 
L 338.998903 144.763903 
L 339.528009 140.057037 
L 340.057114 132.461867 
L 340.586219 121.443523 
L 341.115324 115.987838 
L 341.64443 107.750823 
L 342.173535 102.402112 
L 342.70264 86.783876 
L 343.231745 86.355979 
L 344.289956 80.151474 
L 344.819061 79.616603 
L 345.348166 73.19815 
L 345.877271 76.728299 
L 346.406376 77.049222 
L 346.935482 84.430443 
L 347.464587 97.909194 
L 347.993692 101.546318 
L 348.522797 101.011447 
L 349.051902 103.257905 
L 350.639218 122.620239 
L 351.168323 122.941162 
L 352.755639 136.205965 
L 353.284744 136.312939 
L 353.813849 142.41047 
L 354.342954 142.945341 
L 354.87206 146.689439 
L 355.93027 149.898665 
L 356.459375 154.284608 
L 356.98848 154.926454 
L 357.517586 159.740293 
L 358.046691 162.414649 
L 358.575796 166.372695 
L 359.104901 167.870334 
L 359.634006 168.833102 
L 360.163112 169.474947 
L 360.692217 175.144581 
L 361.221322 176.107349 
L 361.750427 174.074839 
L 362.279532 174.716684 
L 362.808638 173.967865 
L 363.337743 172.5772 
L 363.866848 171.614432 
L 364.925059 164.661108 
L 365.454164 163.805314 
L 367.041479 147.331284 
L 367.570585 140.484934 
L 368.09969 138.452424 
L 368.628795 115.239018 
L 369.1579 103.792776 
L 369.687005 100.690524 
L 370.216111 86.035056 
L 370.745216 78.332912 
L 371.274321 81.007268 
L 371.803426 81.114242 
L 372.861637 73.19815 
L 373.390742 71.700511 
L 373.919847 72.556304 
L 374.448952 81.542139 
L 374.978057 86.462953 
L 375.507163 93.844174 
L 376.036268 103.899751 
L 377.094478 115.773889 
L 377.623583 118.876141 
L 378.152689 124.224852 
L 378.681794 131.606074 
L 379.210899 136.526888 
L 379.740004 143.373238 
L 380.269109 146.047593 
L 380.798215 145.619696 
L 381.32732 150.005639 
L 381.856425 150.968407 
L 382.914635 161.130958 
L 383.443741 158.563577 
L 383.972846 159.419371 
L 385.031056 165.944798 
L 386.618372 176.214323 
L 387.147477 171.721406 
L 387.676582 171.82838 
L 388.205688 172.684174 
L 388.734793 170.758638 
L 389.263898 173.86089 
L 389.793003 173.967865 
L 390.322108 170.330741 
L 390.851214 168.084283 
L 391.380319 167.335463 
L 391.909424 166.051772 
L 392.438529 161.451881 
L 392.967634 163.805314 
L 393.49674 158.777525 
L 394.55495 146.047593 
L 395.084055 134.708326 
L 395.61316 117.05758 
L 397.200476 91.70469 
L 398.258686 83.895572 
L 398.787792 75.872505 
L 399.316897 75.979479 
L 399.846002 75.123686 
L 400.375107 79.830551 
L 400.904212 77.905015 
L 401.433318 74.053943 
L 401.962423 82.290958 
L 402.491528 84.537417 
L 403.020633 86.035056 
L 406.72437 134.8153 
L 407.253475 137.382681 
L 408.311685 146.261542 
L 408.840791 146.47549 
L 409.369896 146.047593 
L 410.428106 158.563577 
L 410.957211 157.707783 
L 411.486317 160.703061 
L 412.015422 160.596087 
L 412.544527 158.028706 
L 413.073632 159.205422 
L 413.602737 162.307675 
L 414.131843 158.8845 
L 414.660948 162.842546 
L 415.190053 168.726128 
L 416.248263 164.340185 
L 416.777369 164.126236 
L 417.306474 167.228489 
L 417.835579 166.586643 
L 418.364684 166.479669 
L 418.893789 166.158747 
L 419.422895 166.372695 
L 419.952 165.089004 
L 420.481105 162.735572 
L 421.01021 162.521623 
L 421.539315 158.456603 
L 422.597526 141.982573 
L 423.126631 128.610795 
L 423.655736 120.908652 
L 424.184841 107.750823 
L 424.713947 103.257905 
L 425.243052 85.821108 
L 425.772157 83.895572 
L 426.301262 90.314025 
L 427.359473 80.900293 
L 427.888578 71.593536 
L 428.417683 67.956413 
L 428.946788 61.003089 
L 429.475894 75.658557 
L 430.534104 91.276793 
L 431.063209 96.090633 
L 431.592314 98.337091 
L 432.650525 107.4299 
L 433.17963 112.671637 
L 434.766946 134.708326 
L 435.296051 138.024527 
L 435.825156 139.843089 
L 436.883366 142.517444 
L 437.412472 151.396304 
L 438.470682 158.8845 
L 438.999787 159.633319 
L 439.528892 159.312397 
L 440.057998 159.205422 
L 440.587103 160.16819 
L 441.116208 167.870334 
L 441.645313 168.726128 
L 442.174418 168.726128 
L 442.703524 170.865612 
L 443.232629 177.070117 
L 443.761734 177.925911 
L 444.290839 182.846725 
L 444.819944 181.883957 
L 445.34905 183.48857 
L 445.878155 180.065395 
L 446.40726 182.097905 
L 446.936365 177.818937 
L 447.465471 180.600266 
L 447.994576 177.070117 
L 448.523681 164.768082 
L 449.052786 158.991474 
L 449.581891 146.796413 
L 450.110997 127.648027 
L 450.640102 121.550497 
L 451.169207 120.694703 
L 451.698312 117.806399 
L 452.227417 107.750823 
L 452.756523 100.476576 
L 453.285628 90.314025 
L 453.814733 76.407376 
L 454.343838 71.165639 
L 454.872943 73.946969 
L 455.402049 69.133129 
L 455.931154 66.672722 
L 456.460259 73.839995 
L 456.989364 73.091175 
L 457.518469 79.402654 
L 458.047575 79.830551 
L 459.63489 102.081189 
L 460.693101 112.350714 
L 461.222206 117.913373 
L 461.751311 121.764445 
L 462.280416 124.652749 
L 462.809521 126.899208 
L 463.338627 133.317661 
L 463.867732 134.494378 
L 464.396837 134.708326 
L 464.925942 135.56412 
L 465.455047 138.238475 
L 465.984153 140.057037 
L 466.513258 145.1918 
L 467.042363 146.368516 
L 467.571468 146.903387 
L 468.100574 150.005639 
L 468.629679 149.149846 
L 469.158784 151.610253 
L 469.687889 149.149846 
L 470.216994 152.679995 
L 470.7461 153.963686 
L 471.275205 153.642763 
L 471.80431 155.35435 
L 472.333415 163.805314 
L 472.86252 163.056494 
L 473.391626 162.842546 
L 473.920731 163.270443 
L 474.449836 162.521623 
L 474.978941 160.810036 
L 475.508046 155.033428 
L 476.037152 143.159289 
L 476.566257 139.308217 
L 477.095362 140.164011 
L 477.624467 128.182899 
L 478.153572 123.15511 
L 478.682678 121.015626 
L 479.211783 113.099534 
L 479.740888 100.262627 
L 480.269993 97.909194 
L 480.799098 88.709411 
L 481.328204 72.556304 
L 481.857309 65.709954 
L 482.386414 66.3518 
L 482.915519 71.593536 
L 483.444624 64.105341 
L 483.97373 67.742464 
L 484.502835 75.016711 
L 485.03194 87.104798 
L 485.561045 88.602437 
L 486.09015 88.067566 
L 486.619256 93.416277 
L 487.148361 102.830008 
L 488.206571 110.853075 
L 488.735676 117.05758 
L 489.264782 120.480755 
L 489.793887 122.941162 
L 491.381203 140.698882 
L 491.910308 144.015083 
L 492.439413 150.112614 
L 492.968518 153.107892 
L 493.497623 155.35435 
L 494.026729 159.847268 
L 494.555834 161.023984 
L 495.084939 163.805314 
L 495.614044 165.089004 
L 496.672255 170.865612 
L 497.20136 172.042329 
L 497.730465 168.298231 
L 498.25957 170.009819 
L 498.788675 169.154025 
L 499.317781 172.256277 
L 499.846886 174.395762 
L 500.375991 175.786426 
L 500.905096 173.539968 
L 501.434201 177.818937 
L 502.492412 167.870334 
L 503.021517 167.335463 
L 503.550622 164.340185 
L 505.137938 127.113156 
L 505.667043 125.401569 
L 506.196148 117.05758 
L 506.725253 113.099534 
L 507.783464 79.830551 
L 508.312569 69.988923 
L 509.370779 56.510171 
L 509.899885 61.324011 
L 510.42899 67.742464 
L 510.958095 61.110063 
L 511.4872 48.594079 
L 512.016306 42.603523 
L 512.545411 46.240646 
L 513.074516 61.110063 
L 513.603621 67.63549 
L 515.190937 104.327648 
L 516.249147 115.773889 
L 517.307358 125.93644 
L 518.365568 146.689439 
L 518.894673 146.689439 
L 519.423778 148.187078 
L 519.952884 148.294052 
L 520.481989 154.498557 
L 521.011094 153.642763 
L 521.540199 153.214866 
L 522.069304 160.596087 
L 522.59841 161.558855 
L 523.127515 166.158747 
L 523.65662 161.130958 
L 524.185725 168.084283 
L 525.243936 173.219045 
L 525.773041 173.112071 
L 526.302146 174.930633 
L 526.831251 172.684174 
L 527.360356 172.042329 
L 527.889462 173.112071 
L 528.418567 172.5772 
L 528.947672 170.865612 
L 529.476777 173.005097 
L 530.534988 162.842546 
L 532.122303 113.955327 
L 532.651409 114.169276 
L 533.180514 108.285694 
L 533.709619 103.899751 
L 534.238724 98.123143 
L 535.296935 75.123686 
L 536.355145 53.728842 
L 536.88425 57.686888 
L 537.413355 56.189249 
L 537.942461 58.970578 
L 538.471566 72.556304 
L 539.000671 65.068109 
L 539.529776 63.57047 
L 540.058881 70.523794 
L 541.117092 79.723577 
L 541.646197 81.221216 
L 542.175302 88.067566 
L 543.233513 109.034513 
L 543.762618 116.629683 
L 544.291723 119.304038 
L 544.820828 126.792234 
L 545.349933 130.857254 
L 546.408144 143.801135 
L 546.937249 145.833645 
L 547.466354 150.112614 
L 547.995459 153.107892 
L 548.524565 153.963686 
L 549.05367 152.252098 
L 549.582775 156.210144 
L 550.11188 158.456603 
L 550.640985 159.633319 
L 551.170091 161.130958 
L 551.699196 163.484391 
L 552.228301 167.870334 
L 552.757406 164.554133 
L 553.286512 166.479669 
L 553.815617 168.833102 
L 554.344722 172.042329 
L 554.873827 173.005097 
L 555.402932 174.288787 
L 555.932038 174.074839 
L 556.461143 173.005097 
L 556.990248 171.186535 
L 557.519353 170.437715 
L 558.048458 167.870334 
L 558.577564 167.870334 
L 559.106669 166.051772 
L 560.164879 152.679995 
L 561.22309 106.360158 
L 561.752195 89.886128 
L 562.2813 92.132586 
L 562.810405 100.155653 
L 563.33951 99.192885 
L 564.397721 72.984201 
L 564.926826 76.193428 
L 565.455931 80.900293 
L 565.985036 80.472397 
L 566.514142 80.472397 
L 567.572352 89.030334 
L 568.101457 93.416277 
L 568.630562 100.048679 
L 569.159668 101.546318 
L 569.688773 106.146209 
L 570.217878 107.322926 
L 571.276088 120.159832 
L 571.805194 121.1226 
L 572.334299 125.508543 
L 572.863404 135.992017 
L 574.45072 155.782247 
L 574.979825 161.558855 
L 576.038035 164.98203 
L 576.567141 168.833102 
L 577.096246 169.902844 
L 578.154456 173.539968 
L 578.683561 173.005097 
L 579.212667 171.400483 
L 579.741772 171.400483 
L 580.270877 174.288787 
L 580.799982 174.930633 
L 581.329087 175.786426 
L 583.445508 184.451338 
L 583.974613 182.311854 
L 584.503719 183.595544 
L 586.091034 174.395762 
L 586.620139 168.619154 
L 587.149245 156.638041 
L 587.67835 151.610253 
L 588.207455 143.801135 
L 588.73656 145.084825 
L 589.265665 141.66165 
L 590.323876 115.345992 
L 590.852981 96.946426 
L 591.382086 90.848896 
L 591.911191 96.732478 
L 592.440297 83.895572 
L 592.969402 87.211772 
L 593.498507 81.114242 
L 594.027612 70.309846 
L 594.556718 66.030877 
L 595.085823 78.225938 
L 595.614928 76.51435 
L 596.673138 86.355979 
L 598.260454 109.034513 
L 598.789559 120.908652 
L 599.318664 128.71777 
L 599.84777 130.643306 
L 600.90598 138.880321 
L 601.435085 142.945341 
L 601.96419 144.763903 
L 602.493296 148.294052 
L 603.551506 158.8845 
L 604.080611 160.061216 
L 604.609716 160.16819 
L 605.138822 164.768082 
L 605.667927 167.335463 
L 606.197032 168.084283 
L 606.726137 172.149303 
L 607.784348 177.070117 
L 608.313453 177.604988 
L 608.842558 181.242112 
L 609.371663 182.418828 
L 609.900768 180.814215 
L 610.429874 182.846725 
L 610.958979 182.632776 
L 611.488084 183.809493 
L 612.017189 184.023441 
L 612.546294 181.883957 
L 613.0754 182.846725 
L 613.604505 173.539968 
L 614.13361 171.400483 
L 614.662715 167.870334 
L 615.19182 165.195979 
L 615.720926 157.493835 
L 616.250031 145.619696 
L 617.308241 133.317661 
L 617.837347 122.620239 
L 618.895557 106.360158 
L 619.953767 94.486019 
L 620.482873 93.095354 
L 621.011978 100.155653 
L 621.541083 94.058122 
L 622.070188 90.527973 
L 622.599293 95.448787 
L 623.128399 93.951148 
L 623.657504 97.481297 
L 624.186609 103.685802 
L 624.715714 105.932261 
L 625.244819 109.46241 
L 625.773925 109.890307 
L 626.30303 120.266806 
L 626.832135 127.220131 
L 627.36124 130.429357 
L 628.419451 141.554676 
L 628.948556 145.619696 
L 629.477661 148.080103 
L 630.006766 152.252098 
L 630.535871 154.498557 
L 631.064977 155.033428 
L 632.123187 162.414649 
L 633.181397 170.54469 
L 633.710503 173.646942 
L 634.239608 173.967865 
L 634.768713 175.465504 
L 635.826923 185.093184 
L 636.356029 183.48857 
L 636.885134 183.809493 
L 637.414239 185.093184 
L 637.943344 184.665287 
L 638.47245 185.948977 
L 639.001555 184.023441 
L 639.53066 183.060673 
L 640.059765 181.563034 
L 640.58887 179.316576 
L 641.117976 174.502736 
L 641.647081 166.051772 
L 642.176186 153.642763 
L 642.705291 148.187078 
L 643.234396 133.959506 
L 643.763502 129.573563 
L 644.292607 117.05758 
L 644.821712 107.643848 
L 645.350817 102.402112 
L 645.879922 101.439344 
L 646.409028 91.383767 
L 646.938133 76.621325 
L 647.467238 74.053943 
L 647.996343 87.639669 
L 648.525448 90.95587 
L 649.054554 85.928082 
L 649.583659 83.253726 
L 650.112764 83.039778 
L 651.170974 95.662736 
L 651.70008 92.025612 
L 652.229185 99.620782 
L 652.75829 103.685802 
L 653.287395 110.853075 
L 653.8165 112.778611 
L 656.462026 134.922274 
L 656.991132 142.41047 
L 657.520237 144.229032 
L 660.694868 165.623876 
L 661.223973 165.623876 
L 662.811289 169.260999 
L 663.340394 170.116793 
L 663.869499 168.191257 
L 664.398605 169.688896 
L 664.92771 168.726128 
L 665.456815 169.581922 
L 665.98592 166.907566 
L 666.515025 169.154025 
L 667.044131 164.126236 
L 667.573236 164.340185 
L 668.102341 166.051772 
L 668.631446 162.093726 
L 669.160551 156.317118 
L 669.689657 147.438258 
L 670.218762 145.084825 
L 670.747867 140.164011 
L 671.806077 107.322926 
L 672.335183 103.257905 
L 672.864288 107.750823 
L 673.393393 95.234839 
L 673.922498 92.025612 
L 674.451603 94.486019 
L 674.980709 93.951148 
L 675.509814 92.132586 
L 676.038919 95.341813 
L 676.568024 90.314025 
L 677.097129 89.779154 
L 677.626235 86.676901 
L 678.15534 84.965314 
L 678.684445 82.07701 
L 679.21355 89.030334 
L 679.742656 91.70469 
L 680.271761 98.55104 
L 681.329971 122.406291 
L 681.859076 125.615517 
L 682.388182 129.787512 
L 682.917287 130.964228 
L 683.975497 140.057037 
L 684.504602 142.41047 
L 685.033708 145.512722 
L 685.562813 147.010361 
L 686.621023 153.107892 
L 687.150128 156.638041 
L 687.679234 158.8845 
L 688.737444 165.73085 
L 689.266549 170.330741 
L 689.795654 169.902844 
L 690.32476 169.902844 
L 690.853865 169.581922 
L 691.38297 172.042329 
L 691.912075 173.646942 
L 692.44118 174.288787 
L 693.499391 178.032885 
L 694.028496 174.716684 
L 694.557601 175.144581 
L 695.086706 174.288787 
L 695.615812 173.967865 
L 696.144917 167.228489 
L 696.674022 163.377417 
L 697.203127 157.172912 
L 697.732232 146.903387 
L 698.261338 139.308217 
L 699.319548 114.490198 
L 699.848653 108.606616 
L 700.377759 92.560483 
L 700.906864 83.895572 
L 701.965074 74.053943 
L 702.494179 71.379588 
L 703.023285 69.988923 
L 703.55239 64.961135 
L 704.6106 81.970036 
L 705.139705 84.430443 
L 705.668811 91.062844 
L 706.197916 95.876684 
L 706.727021 104.541596 
L 707.256126 103.578828 
L 707.785231 107.964771 
L 708.314337 109.248462 
L 708.843442 116.415734 
L 709.372547 119.624961 
L 710.430757 130.322383 
L 710.959863 132.354893 
L 712.018073 144.44298 
L 712.547178 147.331284 
L 713.076283 155.568299 
L 713.605389 156.638041 
L 714.663599 163.591365 
L 715.192704 168.512179 
L 715.721809 169.154025 
L 716.250915 171.079561 
L 716.78002 175.144581 
L 717.83823 180.065395 
L 718.367335 180.172369 
L 718.896441 178.353808 
L 719.425546 181.135137 
L 720.483756 183.702519 
L 721.012862 184.665287 
L 721.541967 185.307132 
L 722.071072 179.637498 
L 722.600177 177.498014 
L 723.129282 172.898122 
L 723.658388 165.944798 
L 724.187493 157.386861 
L 724.716598 154.498557 
L 725.245703 154.284608 
L 725.774808 150.433536 
L 726.303914 144.229032 
L 726.833019 143.480212 
L 727.362124 130.75028 
L 727.891229 126.685259 
L 728.420334 117.271528 
L 728.94944 110.853075 
L 729.478545 106.039235 
L 730.00765 111.067023 
L 730.536755 110.532152 
L 731.06586 104.006725 
L 731.594966 94.486019 
L 732.124071 91.276793 
L 732.653176 86.249004 
L 733.182281 84.85834 
L 733.711386 86.249004 
L 734.240492 94.486019 
L 734.769597 100.690524 
L 735.298702 104.006725 
L 736.356912 119.304038 
L 736.886018 119.945884 
L 738.473333 143.266264 
L 739.002438 144.229032 
L 739.531544 145.726671 
L 740.589754 155.675273 
L 741.118859 160.382139 
L 741.647964 161.986752 
L 742.17707 164.98203 
L 742.706175 165.73085 
L 743.23528 166.800592 
L 743.764385 168.405205 
L 744.293491 169.581922 
L 744.822596 169.047051 
L 745.351701 173.112071 
L 746.409911 173.967865 
L 747.468122 175.679452 
L 747.997227 177.498014 
L 748.526332 176.000375 
L 749.055437 178.888679 
L 749.584543 177.818937 
L 750.642753 177.498014 
L 751.171858 174.823658 
L 751.700963 173.753916 
L 752.230069 170.330741 
L 752.759174 163.484391 
L 753.288279 161.558855 
L 753.817384 154.819479 
L 754.346489 136.205965 
L 754.875595 126.685259 
L 755.933805 86.14203 
L 756.46291 76.728299 
L 756.992015 80.365422 
L 757.521121 75.979479 
L 758.050226 63.998367 
L 758.579331 55.868326 
L 759.108436 57.045042 
L 759.637541 71.272614 
L 760.166647 77.905015 
L 760.695752 80.900293 
L 761.224857 81.542139 
L 761.753962 80.686345 
L 762.283067 92.560483 
L 762.812173 96.197607 
L 763.341278 104.862519 
L 763.870383 109.248462 
L 764.399488 111.280972 
L 764.928594 118.020348 
L 765.457699 116.30876 
L 765.986804 120.801677 
L 766.515909 123.583007 
L 767.57412 139.201243 
L 768.103225 146.796413 
L 769.161435 156.210144 
L 769.69054 157.814757 
L 770.219646 158.349629 
L 771.277856 164.661108 
L 771.806961 166.372695 
L 772.336066 165.195979 
L 772.865172 162.628597 
L 773.394277 168.833102 
L 773.923382 171.079561 
L 774.452487 174.823658 
L 774.981592 176.214323 
L 775.510698 173.86089 
L 776.039803 175.144581 
L 776.568908 174.823658 
L 777.098013 175.251555 
L 777.627118 175.465504 
L 778.156224 174.930633 
L 778.685329 166.907566 
L 779.214434 164.661108 
L 779.743539 158.13568 
L 781.330855 120.694703 
L 781.85996 117.485477 
L 782.389065 115.02507 
L 782.91817 106.467132 
L 783.447276 106.146209 
L 783.976381 98.871962 
L 784.505486 84.751365 
L 785.034591 81.221216 
L 785.563697 80.0445 
L 786.092802 73.305124 
L 786.621907 68.705232 
L 787.151012 72.021433 
L 787.680117 78.546861 
L 788.209223 77.049222 
L 788.738328 77.370144 
L 789.267433 79.402654 
L 789.796538 79.723577 
L 790.854749 90.420999 
L 791.383854 98.978937 
L 791.912959 112.671637 
L 792.442064 109.034513 
L 792.971169 112.350714 
L 793.500275 117.592451 
L 794.02938 121.336549 
L 794.558485 123.689981 
L 795.08759 125.508543 
L 795.616695 130.429357 
L 796.145801 131.285151 
L 796.674906 133.424635 
L 797.733116 141.982573 
L 798.262221 141.875599 
L 798.791327 145.512722 
L 799.320432 148.187078 
L 799.849537 151.824201 
L 800.907747 154.819479 
L 801.436853 156.638041 
L 801.965958 156.10317 
L 802.495063 156.638041 
L 803.024168 159.419371 
L 803.553273 161.130958 
L 804.082379 161.986752 
L 805.140589 160.061216 
L 805.669694 157.493835 
L 806.1988 156.745015 
L 806.727905 153.856711 
L 807.25701 147.331284 
L 807.786115 138.880321 
L 808.31522 134.387403 
L 809.373431 109.46241 
L 809.902536 109.034513 
L 810.431641 109.141487 
L 810.960746 88.281515 
L 811.489852 76.728299 
L 812.018957 77.691067 
L 812.548062 72.663278 
L 813.077167 69.988923 
L 813.606272 72.235382 
L 814.135378 67.207593 
L 814.664483 59.719398 
L 815.193588 60.896114 
L 815.722693 64.640212 
L 816.251798 70.844717 
L 816.780904 80.258448 
L 817.839114 91.383767 
L 818.368219 101.011447 
L 818.897324 106.895029 
L 819.42643 115.773889 
L 819.955535 114.918095 
L 820.48464 116.522709 
L 821.013745 117.05758 
L 821.54285 124.224852 
L 822.071956 128.182899 
L 822.601061 135.671094 
L 823.130166 137.59663 
L 824.188376 143.69416 
L 824.717482 148.508 
L 825.246587 150.968407 
L 825.775692 150.754459 
L 826.304797 153.428814 
L 826.833903 155.033428 
L 827.363008 155.35435 
L 827.892113 153.107892 
L 828.421218 155.889222 
L 828.950323 155.35435 
L 829.479429 157.921732 
L 830.008534 158.028706 
L 830.537639 158.456603 
L 831.066744 159.205422 
L 831.595849 157.600809 
L 832.124955 150.968407 
L 832.65406 149.898665 
L 833.183165 152.252098 
L 833.71227 149.149846 
L 834.241375 143.159289 
L 834.770481 142.41047 
L 835.299586 140.484934 
L 836.357796 117.485477 
L 837.416007 91.597715 
L 837.945112 87.211772 
L 838.474217 69.133129 
L 839.003322 70.844717 
L 839.532427 75.979479 
L 840.061533 67.956413 
L 840.590638 56.296223 
L 841.119743 53.19397 
L 841.648848 63.035599 
L 842.177953 67.849439 
L 842.707059 69.454052 
L 843.236164 77.370144 
L 843.765269 79.402654 
L 844.294374 72.877227 
L 844.823479 74.909737 
L 845.352585 79.616603 
L 846.410795 102.402112 
L 847.469005 112.24374 
L 847.998111 114.918095 
L 848.527216 119.304038 
L 848.527216 119.304038 
" clip-path="url(#p666e346138)" style="fill: none; stroke: #e377c2; stroke-opacity: 0.9; stroke-width: 1.8; stroke-linecap: square"/>
   </g>
   <g id="patch_3">
    <path d="M 71.298125 193.11625 
L 71.298125 35.43625 
" style="fill: none; stroke: #000000; stroke-width: 0.8; stroke-linejoin: miter; stroke-linecap: square"/>
   </g>
   <g id="patch_4">
    <path d="M 885.538125 193.11625 
L 885.538125 35.43625 
" style="fill: none; stroke: #000000; stroke-width: 0.8; stroke-linejoin: miter; stroke-linecap: square"/>
   </g>
   <g id="patch_5">
    <path d="M 71.298125 193.11625 
L 885.538125 193.11625 
" style="fill: none; stroke: #000000; stroke-width: 0.8; stroke-linejoin: miter; stroke-linecap: square"/>
   </g>
   <g id="patch_6">
    <path d="M 71.298125 35.43625 
L 885.538125 35.43625 
" style="fill: none; stroke: #000000; stroke-width: 0.8; stroke-linejoin: miter; stroke-linecap: square"/>
   </g>
   <g id="text_14">
    <!-- Sensor Location 7384 -->
    <g transform="translate(348.360625 25.43625) scale(0.24 -0.24)">
     <defs>
      <path id="DejaVuSans-6e" d="M 3513 2113 
L 3513 0 
L 2938 0 
L 2938 2094 
Q 2938 2591 2744 2837 
Q 2550 3084 2163 3084 
Q 1697 3084 1428 2787 
Q 1159 2491 1159 1978 
L 1159 0 
L 581 0 
L 581 3500 
L 1159 3500 
L 1159 2956 
Q 1366 3272 1645 3428 
Q 1925 3584 2291 3584 
Q 2894 3584 3203 3211 
Q 3513 2838 3513 2113 
z
" transform="scale(0.015625)"/>
      <path id="DejaVuSans-73" d="M 2834 3397 
L 2834 2853 
Q 2591 2978 2328 3040 
Q 2066 3103 1784 3103 
Q 1356 3103 1142 2972 
Q 928 2841 928 2578 
Q 928 2378 1081 2264 
Q 1234 2150 1697 2047 
L 1894 2003 
Q 2506 1872 2764 1633 
Q 3022 1394 3022 966 
Q 3022 478 2636 193 
Q 2250 -91 1575 -91 
Q 1294 -91 989 -36 
Q 684 19 347 128 
L 347 722 
Q 666 556 975 473 
Q 1284 391 1588 391 
Q 1994 391 2212 530 
Q 2431 669 2431 922 
Q 2431 1156 2273 1281 
Q 2116 1406 1581 1522 
L 1381 1569 
Q 847 1681 609 1914 
Q 372 2147 372 2553 
Q 372 3047 722 3315 
Q 1072 3584 1716 3584 
Q 2034 3584 2315 3537 
Q 2597 3491 2834 3397 
z
" transform="scale(0.015625)"/>
      <path id="DejaVuSans-4c" d="M 628 4666 
L 1259 4666 
L 1259 531 
L 3531 531 
L 3531 0 
L 628 0 
L 628 4666 
z
" transform="scale(0.015625)"/>
      <path id="DejaVuSans-63" d="M 3122 3366 
L 3122 2828 
Q 2878 2963 2633 3030 
Q 2388 3097 2138 3097 
Q 1578 3097 1268 2742 
Q 959 2388 959 1747 
Q 959 1106 1268 751 
Q 1578 397 2138 397 
Q 2388 397 2633 464 
Q 2878 531 3122 666 
L 3122 134 
Q 2881 22 2623 -34 
Q 2366 -91 2075 -91 
Q 1284 -91 818 406 
Q 353 903 353 1747 
Q 353 2603 823 3093 
Q 1294 3584 2113 3584 
Q 2378 3584 2631 3529 
Q 2884 3475 3122 3366 
z
" transform="scale(0.015625)"/>
      <path id="DejaVuSans-74" d="M 1172 4494 
L 1172 3500 
L 2356 3500 
L 2356 3053 
L 1172 3053 
L 1172 1153 
Q 1172 725 1289 603 
Q 1406 481 1766 481 
L 2356 481 
L 2356 0 
L 1766 0 
Q 1100 0 847 248 
Q 594 497 594 1153 
L 594 3053 
L 172 3053 
L 172 3500 
L 594 3500 
L 594 4494 
L 1172 4494 
z
" transform="scale(0.015625)"/>
      <path id="DejaVuSans-37" d="M 525 4666 
L 3525 4666 
L 3525 4397 
L 1831 0 
L 1172 0 
L 2766 4134 
L 525 4134 
L 525 4666 
z
" transform="scale(0.015625)"/>
      <path id="DejaVuSans-33" d="M 2597 2516 
Q 3050 2419 3304 2112 
Q 3559 1806 3559 1356 
Q 3559 666 3084 287 
Q 2609 -91 1734 -91 
Q 1441 -91 1130 -33 
Q 819 25 488 141 
L 488 750 
Q 750 597 1062 519 
Q 1375 441 1716 441 
Q 2309 441 2620 675 
Q 2931 909 2931 1356 
Q 2931 1769 2642 2001 
Q 2353 2234 1838 2234 
L 1294 2234 
L 1294 2753 
L 1863 2753 
Q 2328 2753 2575 2939 
Q 2822 3125 2822 3475 
Q 2822 3834 2567 4026 
Q 2313 4219 1838 4219 
Q 1578 4219 1281 4162 
Q 984 4106 628 3988 
L 628 4550 
Q 988 4650 1302 4700 
Q 1616 4750 1894 4750 
Q 2613 4750 3031 4423 
Q 3450 4097 3450 3541 
Q 3450 3153 3228 2886 
Q 3006 2619 2597 2516 
z
" transform="scale(0.015625)"/>
     </defs>
     <use xlink:href="#DejaVuSans-53"/>
     <use xlink:href="#DejaVuSans-65" transform="translate(63.476562 0)"/>
     <use xlink:href="#DejaVuSans-6e" transform="translate(125 0)"/>
     <use xlink:href="#DejaVuSans-73" transform="translate(188.378906 0)"/>
     <use xlink:href="#DejaVuSans-6f" transform="translate(240.478516 0)"/>
     <use xlink:href="#DejaVuSans-72" transform="translate(301.660156 0)"/>
     <use xlink:href="#DejaVuSans-20" transform="translate(342.773438 0)"/>
     <use xlink:href="#DejaVuSans-4c" transform="translate(374.560547 0)"/>
     <use xlink:href="#DejaVuSans-6f" transform="translate(428.523438 0)"/>
     <use xlink:href="#DejaVuSans-63" transform="translate(489.705078 0)"/>
     <use xlink:href="#DejaVuSans-61" transform="translate(544.685547 0)"/>
     <use xlink:href="#DejaVuSans-74" transform="translate(605.964844 0)"/>
     <use xlink:href="#DejaVuSans-69" transform="translate(645.173828 0)"/>
     <use xlink:href="#DejaVuSans-6f" transform="translate(672.957031 0)"/>
     <use xlink:href="#DejaVuSans-6e" transform="translate(734.138672 0)"/>
     <use xlink:href="#DejaVuSans-20" transform="translate(797.517578 0)"/>
     <use xlink:href="#DejaVuSans-37" transform="translate(829.304688 0)"/>
     <use xlink:href="#DejaVuSans-33" transform="translate(892.927734 0)"/>
     <use xlink:href="#DejaVuSans-38" transform="translate(956.550781 0)"/>
     <use xlink:href="#DejaVuSans-34" transform="translate(1020.173828 0)"/>
    </g>
   </g>
  </g>
 </g>
 <defs>
  <clipPath id="p666e346138">
   <rect x="71.298125" y="35.43625" width="814.24" height="157.68"/>
  </clipPath>
 </defs>
</svg>
