<?xml version="1.0" encoding="utf-8" standalone="no"?>
<!DOCTYPE svg PUBLIC "-//W3C//DTD SVG 1.1//EN"
  "http://www.w3.org/Graphics/SVG/1.1/DTD/svg11.dtd">
<svg xmlns:xlink="http://www.w3.org/1999/xlink" width="892.738125pt" height="251.964375pt" viewBox="0 0 892.738125 251.964375" xmlns="http://www.w3.org/2000/svg" version="1.1">
 <metadata>
  <rdf:RDF xmlns:dc="http://purl.org/dc/elements/1.1/" xmlns:cc="http://creativecommons.org/ns#" xmlns:rdf="http://www.w3.org/1999/02/22-rdf-syntax-ns#">
   <cc:Work>
    <dc:type rdf:resource="http://purl.org/dc/dcmitype/StillImage"/>
    <dc:date>2026-02-24T16:51:49.764090</dc:date>
    <dc:format>image/svg+xml</dc:format>
    <dc:creator>
     <cc:Agent>
      <dc:title>Matplotlib v3.10.6, https://matplotlib.org/</dc:title>
     </cc:Agent>
    </dc:creator>
   </cc:Work>
  </rdf:RDF>
 </metadata>
 <defs>
  <style type="text/css">*{stroke-linejoin: round; stroke-linecap: butt}</style>
 </defs>
 <g id="figure_1">
  <g id="patch_1">
   <path d="M -0 251.964375 
L 892.738125 251.964375 
L 892.738125 0 
L -0 0 
z
" style="fill: #ffffff"/>
  </g>
  <g id="axes_1">
   <g id="patch_2">
    <path d="M 71.298125 193.11625 
L 885.538125 193.11625 
L 885.538125 35.43625 
L 71.298125 35.43625 
z
" style="fill: #ffffff"/>
   </g>
   <g id="matplotlib.axis_1">
    <g id="xtick_1">
     <g id="line2d_1">
      <path d="M 108.309034 193.11625 
L 108.309034 35.43625 
" clip-path="url(#pfbc0208276)" style="fill: none; stroke-dasharray: 2.96,1.28; stroke-dashoffset: 0; stroke: #b0b0b0; stroke-opacity: 0.3; stroke-width: 0.8"/>
     </g>
     <g id="line2d_2">
      <defs>
       <path id="m6d183b9dfd" d="M 0 0 
L 0 3.5 
" style="stroke: #000000; stroke-width: 0.8"/>
      </defs>
      <g>
       <use xlink:href="#m6d183b9dfd" x="108.309034" y="193.11625" style="stroke: #000000; stroke-width: 0.8"/>
      </g>
     </g>
     <g id="text_1">
      <!-- 0 -->
      <g transform="translate(101.946534 215.313125) scale(0.2 -0.2)">
       <defs>
        <path id="DejaVuSans-30" d="M 2034 4250 
Q 1547 4250 1301 3770 
Q 1056 3291 1056 2328 
Q 1056 1369 1301 889 
Q 1547 409 2034 409 
Q 2525 409 2770 889 
Q 3016 1369 3016 2328 
Q 3016 3291 2770 3770 
Q 2525 4250 2034 4250 
z
M 2034 4750 
Q 2819 4750 3233 4129 
Q 3647 3509 3647 2328 
Q 3647 1150 3233 529 
Q 2819 -91 2034 -91 
Q 1250 -91 836 529 
Q 422 1150 422 2328 
Q 422 3509 836 4129 
Q 1250 4750 2034 4750 
z
" transform="scale(0.015625)"/>
       </defs>
       <use xlink:href="#DejaVuSans-30"/>
      </g>
     </g>
    </g>
    <g id="xtick_2">
     <g id="line2d_3">
      <path d="M 214.130075 193.11625 
L 214.130075 35.43625 
" clip-path="url(#pfbc0208276)" style="fill: none; stroke-dasharray: 2.96,1.28; stroke-dashoffset: 0; stroke: #b0b0b0; stroke-opacity: 0.3; stroke-width: 0.8"/>
     </g>
     <g id="line2d_4">
      <g>
       <use xlink:href="#m6d183b9dfd" x="214.130075" y="193.11625" style="stroke: #000000; stroke-width: 0.8"/>
      </g>
     </g>
     <g id="text_2">
      <!-- 200 -->
      <g transform="translate(195.042575 215.313125) scale(0.2 -0.2)">
       <defs>
        <path id="DejaVuSans-32" d="M 1228 531 
L 3431 531 
L 3431 0 
L 469 0 
L 469 531 
Q 828 903 1448 1529 
Q 2069 2156 2228 2338 
Q 2531 2678 2651 2914 
Q 2772 3150 2772 3378 
Q 2772 3750 2511 3984 
Q 2250 4219 1831 4219 
Q 1534 4219 1204 4116 
Q 875 4013 500 3803 
L 500 4441 
Q 881 4594 1212 4672 
Q 1544 4750 1819 4750 
Q 2544 4750 2975 4387 
Q 3406 4025 3406 3419 
Q 3406 3131 3298 2873 
Q 3191 2616 2906 2266 
Q 2828 2175 2409 1742 
Q 1991 1309 1228 531 
z
" transform="scale(0.015625)"/>
       </defs>
       <use xlink:href="#DejaVuSans-32"/>
       <use xlink:href="#DejaVuSans-30" transform="translate(63.623047 0)"/>
       <use xlink:href="#DejaVuSans-30" transform="translate(127.246094 0)"/>
      </g>
     </g>
    </g>
    <g id="xtick_3">
     <g id="line2d_5">
      <path d="M 319.951116 193.11625 
L 319.951116 35.43625 
" clip-path="url(#pfbc0208276)" style="fill: none; stroke-dasharray: 2.96,1.28; stroke-dashoffset: 0; stroke: #b0b0b0; stroke-opacity: 0.3; stroke-width: 0.8"/>
     </g>
     <g id="line2d_6">
      <g>
       <use xlink:href="#m6d183b9dfd" x="319.951116" y="193.11625" style="stroke: #000000; stroke-width: 0.8"/>
      </g>
     </g>
     <g id="text_3">
      <!-- 400 -->
      <g transform="translate(300.863616 215.313125) scale(0.2 -0.2)">
       <defs>
        <path id="DejaVuSans-34" d="M 2419 4116 
L 825 1625 
L 2419 1625 
L 2419 4116 
z
M 2253 4666 
L 3047 4666 
L 3047 1625 
L 3713 1625 
L 3713 1100 
L 3047 1100 
L 3047 0 
L 2419 0 
L 2419 1100 
L 313 1100 
L 313 1709 
L 2253 4666 
z
" transform="scale(0.015625)"/>
       </defs>
       <use xlink:href="#DejaVuSans-34"/>
       <use xlink:href="#DejaVuSans-30" transform="translate(63.623047 0)"/>
       <use xlink:href="#DejaVuSans-30" transform="translate(127.246094 0)"/>
      </g>
     </g>
    </g>
    <g id="xtick_4">
     <g id="line2d_7">
      <path d="M 425.772157 193.11625 
L 425.772157 35.43625 
" clip-path="url(#pfbc0208276)" style="fill: none; stroke-dasharray: 2.96,1.28; stroke-dashoffset: 0; stroke: #b0b0b0; stroke-opacity: 0.3; stroke-width: 0.8"/>
     </g>
     <g id="line2d_8">
      <g>
       <use xlink:href="#m6d183b9dfd" x="425.772157" y="193.11625" style="stroke: #000000; stroke-width: 0.8"/>
      </g>
     </g>
     <g id="text_4">
      <!-- 600 -->
      <g transform="translate(406.684657 215.313125) scale(0.2 -0.2)">
       <defs>
        <path id="DejaVuSans-36" d="M 2113 2584 
Q 1688 2584 1439 2293 
Q 1191 2003 1191 1497 
Q 1191 994 1439 701 
Q 1688 409 2113 409 
Q 2538 409 2786 701 
Q 3034 994 3034 1497 
Q 3034 2003 2786 2293 
Q 2538 2584 2113 2584 
z
M 3366 4563 
L 3366 3988 
Q 3128 4100 2886 4159 
Q 2644 4219 2406 4219 
Q 1781 4219 1451 3797 
Q 1122 3375 1075 2522 
Q 1259 2794 1537 2939 
Q 1816 3084 2150 3084 
Q 2853 3084 3261 2657 
Q 3669 2231 3669 1497 
Q 3669 778 3244 343 
Q 2819 -91 2113 -91 
Q 1303 -91 875 529 
Q 447 1150 447 2328 
Q 447 3434 972 4092 
Q 1497 4750 2381 4750 
Q 2619 4750 2861 4703 
Q 3103 4656 3366 4563 
z
" transform="scale(0.015625)"/>
       </defs>
       <use xlink:href="#DejaVuSans-36"/>
       <use xlink:href="#DejaVuSans-30" transform="translate(63.623047 0)"/>
       <use xlink:href="#DejaVuSans-30" transform="translate(127.246094 0)"/>
      </g>
     </g>
    </g>
    <g id="xtick_5">
     <g id="line2d_9">
      <path d="M 531.593198 193.11625 
L 531.593198 35.43625 
" clip-path="url(#pfbc0208276)" style="fill: none; stroke-dasharray: 2.96,1.28; stroke-dashoffset: 0; stroke: #b0b0b0; stroke-opacity: 0.3; stroke-width: 0.8"/>
     </g>
     <g id="line2d_10">
      <g>
       <use xlink:href="#m6d183b9dfd" x="531.593198" y="193.11625" style="stroke: #000000; stroke-width: 0.8"/>
      </g>
     </g>
     <g id="text_5">
      <!-- 800 -->
      <g transform="translate(512.505698 215.313125) scale(0.2 -0.2)">
       <defs>
        <path id="DejaVuSans-38" d="M 2034 2216 
Q 1584 2216 1326 1975 
Q 1069 1734 1069 1313 
Q 1069 891 1326 650 
Q 1584 409 2034 409 
Q 2484 409 2743 651 
Q 3003 894 3003 1313 
Q 3003 1734 2745 1975 
Q 2488 2216 2034 2216 
z
M 1403 2484 
Q 997 2584 770 2862 
Q 544 3141 544 3541 
Q 544 4100 942 4425 
Q 1341 4750 2034 4750 
Q 2731 4750 3128 4425 
Q 3525 4100 3525 3541 
Q 3525 3141 3298 2862 
Q 3072 2584 2669 2484 
Q 3125 2378 3379 2068 
Q 3634 1759 3634 1313 
Q 3634 634 3220 271 
Q 2806 -91 2034 -91 
Q 1263 -91 848 271 
Q 434 634 434 1313 
Q 434 1759 690 2068 
Q 947 2378 1403 2484 
z
M 1172 3481 
Q 1172 3119 1398 2916 
Q 1625 2713 2034 2713 
Q 2441 2713 2670 2916 
Q 2900 3119 2900 3481 
Q 2900 3844 2670 4047 
Q 2441 4250 2034 4250 
Q 1625 4250 1398 4047 
Q 1172 3844 1172 3481 
z
" transform="scale(0.015625)"/>
       </defs>
       <use xlink:href="#DejaVuSans-38"/>
       <use xlink:href="#DejaVuSans-30" transform="translate(63.623047 0)"/>
       <use xlink:href="#DejaVuSans-30" transform="translate(127.246094 0)"/>
      </g>
     </g>
    </g>
    <g id="xtick_6">
     <g id="line2d_11">
      <path d="M 637.414239 193.11625 
L 637.414239 35.43625 
" clip-path="url(#pfbc0208276)" style="fill: none; stroke-dasharray: 2.96,1.28; stroke-dashoffset: 0; stroke: #b0b0b0; stroke-opacity: 0.3; stroke-width: 0.8"/>
     </g>
     <g id="line2d_12">
      <g>
       <use xlink:href="#m6d183b9dfd" x="637.414239" y="193.11625" style="stroke: #000000; stroke-width: 0.8"/>
      </g>
     </g>
     <g id="text_6">
      <!-- 1000 -->
      <g transform="translate(611.964239 215.313125) scale(0.2 -0.2)">
       <defs>
        <path id="DejaVuSans-31" d="M 794 531 
L 1825 531 
L 1825 4091 
L 703 3866 
L 703 4441 
L 1819 4666 
L 2450 4666 
L 2450 531 
L 3481 531 
L 3481 0 
L 794 0 
L 794 531 
z
" transform="scale(0.015625)"/>
       </defs>
       <use xlink:href="#DejaVuSans-31"/>
       <use xlink:href="#DejaVuSans-30" transform="translate(63.623047 0)"/>
       <use xlink:href="#DejaVuSans-30" transform="translate(127.246094 0)"/>
       <use xlink:href="#DejaVuSans-30" transform="translate(190.869141 0)"/>
      </g>
     </g>
    </g>
    <g id="xtick_7">
     <g id="line2d_13">
      <path d="M 743.23528 193.11625 
L 743.23528 35.43625 
" clip-path="url(#pfbc0208276)" style="fill: none; stroke-dasharray: 2.96,1.28; stroke-dashoffset: 0; stroke: #b0b0b0; stroke-opacity: 0.3; stroke-width: 0.8"/>
     </g>
     <g id="line2d_14">
      <g>
       <use xlink:href="#m6d183b9dfd" x="743.23528" y="193.11625" style="stroke: #000000; stroke-width: 0.8"/>
      </g>
     </g>
     <g id="text_7">
      <!-- 1200 -->
      <g transform="translate(717.78528 215.313125) scale(0.2 -0.2)">
       <use xlink:href="#DejaVuSans-31"/>
       <use xlink:href="#DejaVuSans-32" transform="translate(63.623047 0)"/>
       <use xlink:href="#DejaVuSans-30" transform="translate(127.246094 0)"/>
       <use xlink:href="#DejaVuSans-30" transform="translate(190.869141 0)"/>
      </g>
     </g>
    </g>
    <g id="xtick_8">
     <g id="line2d_15">
      <path d="M 849.056321 193.11625 
L 849.056321 35.43625 
" clip-path="url(#pfbc0208276)" style="fill: none; stroke-dasharray: 2.96,1.28; stroke-dashoffset: 0; stroke: #b0b0b0; stroke-opacity: 0.3; stroke-width: 0.8"/>
     </g>
     <g id="line2d_16">
      <g>
       <use xlink:href="#m6d183b9dfd" x="849.056321" y="193.11625" style="stroke: #000000; stroke-width: 0.8"/>
      </g>
     </g>
     <g id="text_8">
      <!-- 1400 -->
      <g transform="translate(823.606321 215.313125) scale(0.2 -0.2)">
       <use xlink:href="#DejaVuSans-31"/>
       <use xlink:href="#DejaVuSans-34" transform="translate(63.623047 0)"/>
       <use xlink:href="#DejaVuSans-30" transform="translate(127.246094 0)"/>
       <use xlink:href="#DejaVuSans-30" transform="translate(190.869141 0)"/>
      </g>
     </g>
    </g>
    <g id="text_9">
     <!-- Time Index -->
     <g transform="translate(410.037656 240.189062) scale(0.22 -0.22)">
      <defs>
       <path id="DejaVuSans-Bold-54" d="M 31 4666 
L 4331 4666 
L 4331 3756 
L 2784 3756 
L 2784 0 
L 1581 0 
L 1581 3756 
L 31 3756 
L 31 4666 
z
" transform="scale(0.015625)"/>
       <path id="DejaVuSans-Bold-69" d="M 538 3500 
L 1656 3500 
L 1656 0 
L 538 0 
L 538 3500 
z
M 538 4863 
L 1656 4863 
L 1656 3950 
L 538 3950 
L 538 4863 
z
" transform="scale(0.015625)"/>
       <path id="DejaVuSans-Bold-6d" d="M 3781 2919 
Q 3994 3244 4286 3414 
Q 4578 3584 4928 3584 
Q 5531 3584 5847 3212 
Q 6163 2841 6163 2131 
L 6163 0 
L 5038 0 
L 5038 1825 
Q 5041 1866 5042 1909 
Q 5044 1953 5044 2034 
Q 5044 2406 4934 2573 
Q 4825 2741 4581 2741 
Q 4263 2741 4089 2478 
Q 3916 2216 3909 1719 
L 3909 0 
L 2784 0 
L 2784 1825 
Q 2784 2406 2684 2573 
Q 2584 2741 2328 2741 
Q 2006 2741 1831 2477 
Q 1656 2213 1656 1722 
L 1656 0 
L 531 0 
L 531 3500 
L 1656 3500 
L 1656 2988 
Q 1863 3284 2130 3434 
Q 2397 3584 2719 3584 
Q 3081 3584 3359 3409 
Q 3638 3234 3781 2919 
z
" transform="scale(0.015625)"/>
       <path id="DejaVuSans-Bold-65" d="M 4031 1759 
L 4031 1441 
L 1416 1441 
Q 1456 1047 1700 850 
Q 1944 653 2381 653 
Q 2734 653 3104 758 
Q 3475 863 3866 1075 
L 3866 213 
Q 3469 63 3072 -14 
Q 2675 -91 2278 -91 
Q 1328 -91 801 392 
Q 275 875 275 1747 
Q 275 2603 792 3093 
Q 1309 3584 2216 3584 
Q 3041 3584 3536 3087 
Q 4031 2591 4031 1759 
z
M 2881 2131 
Q 2881 2450 2695 2645 
Q 2509 2841 2209 2841 
Q 1884 2841 1681 2658 
Q 1478 2475 1428 2131 
L 2881 2131 
z
" transform="scale(0.015625)"/>
       <path id="DejaVuSans-Bold-20" transform="scale(0.015625)"/>
       <path id="DejaVuSans-Bold-49" d="M 588 4666 
L 1791 4666 
L 1791 0 
L 588 0 
L 588 4666 
z
" transform="scale(0.015625)"/>
       <path id="DejaVuSans-Bold-6e" d="M 4056 2131 
L 4056 0 
L 2931 0 
L 2931 347 
L 2931 1631 
Q 2931 2084 2911 2256 
Q 2891 2428 2841 2509 
Q 2775 2619 2662 2680 
Q 2550 2741 2406 2741 
Q 2056 2741 1856 2470 
Q 1656 2200 1656 1722 
L 1656 0 
L 538 0 
L 538 3500 
L 1656 3500 
L 1656 2988 
Q 1909 3294 2193 3439 
Q 2478 3584 2822 3584 
Q 3428 3584 3742 3212 
Q 4056 2841 4056 2131 
z
" transform="scale(0.015625)"/>
       <path id="DejaVuSans-Bold-64" d="M 2919 2988 
L 2919 4863 
L 4044 4863 
L 4044 0 
L 2919 0 
L 2919 506 
Q 2688 197 2409 53 
Q 2131 -91 1766 -91 
Q 1119 -91 703 423 
Q 288 938 288 1747 
Q 288 2556 703 3070 
Q 1119 3584 1766 3584 
Q 2128 3584 2408 3439 
Q 2688 3294 2919 2988 
z
M 2181 722 
Q 2541 722 2730 984 
Q 2919 1247 2919 1747 
Q 2919 2247 2730 2509 
Q 2541 2772 2181 2772 
Q 1825 2772 1636 2509 
Q 1447 2247 1447 1747 
Q 1447 1247 1636 984 
Q 1825 722 2181 722 
z
" transform="scale(0.015625)"/>
       <path id="DejaVuSans-Bold-78" d="M 1422 1791 
L 159 3500 
L 1344 3500 
L 2059 2463 
L 2784 3500 
L 3969 3500 
L 2706 1797 
L 4031 0 
L 2847 0 
L 2059 1106 
L 1281 0 
L 97 0 
L 1422 1791 
z
" transform="scale(0.015625)"/>
      </defs>
      <use xlink:href="#DejaVuSans-Bold-54"/>
      <use xlink:href="#DejaVuSans-Bold-69" transform="translate(68.212891 0)"/>
      <use xlink:href="#DejaVuSans-Bold-6d" transform="translate(102.490234 0)"/>
      <use xlink:href="#DejaVuSans-Bold-65" transform="translate(206.689453 0)"/>
      <use xlink:href="#DejaVuSans-Bold-20" transform="translate(274.511719 0)"/>
      <use xlink:href="#DejaVuSans-Bold-49" transform="translate(309.326172 0)"/>
      <use xlink:href="#DejaVuSans-Bold-6e" transform="translate(346.533203 0)"/>
      <use xlink:href="#DejaVuSans-Bold-64" transform="translate(417.724609 0)"/>
      <use xlink:href="#DejaVuSans-Bold-65" transform="translate(489.306641 0)"/>
      <use xlink:href="#DejaVuSans-Bold-78" transform="translate(557.128906 0)"/>
     </g>
    </g>
   </g>
   <g id="matplotlib.axis_2">
    <g id="ytick_1">
     <g id="line2d_17">
      <path d="M 71.298125 185.948977 
L 885.538125 185.948977 
" clip-path="url(#pfbc0208276)" style="fill: none; stroke-dasharray: 2.96,1.28; stroke-dashoffset: 0; stroke: #b0b0b0; stroke-opacity: 0.3; stroke-width: 0.8"/>
     </g>
     <g id="line2d_18">
      <defs>
       <path id="mc92180b737" d="M 0 0 
L -3.5 0 
" style="stroke: #000000; stroke-width: 0.8"/>
      </defs>
      <g>
       <use xlink:href="#mc92180b737" x="71.298125" y="185.948977" style="stroke: #000000; stroke-width: 0.8"/>
      </g>
     </g>
     <g id="text_10">
      <!-- 0.0 -->
      <g transform="translate(32.491875 193.547415) scale(0.2 -0.2)">
       <defs>
        <path id="DejaVuSans-2e" d="M 684 794 
L 1344 794 
L 1344 0 
L 684 0 
L 684 794 
z
" transform="scale(0.015625)"/>
       </defs>
       <use xlink:href="#DejaVuSans-30"/>
       <use xlink:href="#DejaVuSans-2e" transform="translate(63.623047 0)"/>
       <use xlink:href="#DejaVuSans-30" transform="translate(95.410156 0)"/>
      </g>
     </g>
    </g>
    <g id="ytick_2">
     <g id="line2d_19">
      <path d="M 71.298125 115.013072 
L 885.538125 115.013072 
" clip-path="url(#pfbc0208276)" style="fill: none; stroke-dasharray: 2.96,1.28; stroke-dashoffset: 0; stroke: #b0b0b0; stroke-opacity: 0.3; stroke-width: 0.8"/>
     </g>
     <g id="line2d_20">
      <g>
       <use xlink:href="#mc92180b737" x="71.298125" y="115.013072" style="stroke: #000000; stroke-width: 0.8"/>
      </g>
     </g>
     <g id="text_11">
      <!-- 0.5 -->
      <g transform="translate(32.491875 122.61151) scale(0.2 -0.2)">
       <defs>
        <path id="DejaVuSans-35" d="M 691 4666 
L 3169 4666 
L 3169 4134 
L 1269 4134 
L 1269 2991 
Q 1406 3038 1543 3061 
Q 1681 3084 1819 3084 
Q 2600 3084 3056 2656 
Q 3513 2228 3513 1497 
Q 3513 744 3044 326 
Q 2575 -91 1722 -91 
Q 1428 -91 1123 -41 
Q 819 9 494 109 
L 494 744 
Q 775 591 1075 516 
Q 1375 441 1709 441 
Q 2250 441 2565 725 
Q 2881 1009 2881 1497 
Q 2881 1984 2565 2268 
Q 2250 2553 1709 2553 
Q 1456 2553 1204 2497 
Q 953 2441 691 2322 
L 691 4666 
z
" transform="scale(0.015625)"/>
       </defs>
       <use xlink:href="#DejaVuSans-30"/>
       <use xlink:href="#DejaVuSans-2e" transform="translate(63.623047 0)"/>
       <use xlink:href="#DejaVuSans-35" transform="translate(95.410156 0)"/>
      </g>
     </g>
    </g>
    <g id="ytick_3">
     <g id="line2d_21">
      <path d="M 71.298125 44.077168 
L 885.538125 44.077168 
" clip-path="url(#pfbc0208276)" style="fill: none; stroke-dasharray: 2.96,1.28; stroke-dashoffset: 0; stroke: #b0b0b0; stroke-opacity: 0.3; stroke-width: 0.8"/>
     </g>
     <g id="line2d_22">
      <g>
       <use xlink:href="#mc92180b737" x="71.298125" y="44.077168" style="stroke: #000000; stroke-width: 0.8"/>
      </g>
     </g>
     <g id="text_12">
      <!-- 1.0 -->
      <g transform="translate(32.491875 51.675605) scale(0.2 -0.2)">
       <use xlink:href="#DejaVuSans-31"/>
       <use xlink:href="#DejaVuSans-2e" transform="translate(63.623047 0)"/>
       <use xlink:href="#DejaVuSans-30" transform="translate(95.410156 0)"/>
      </g>
     </g>
    </g>
    <g id="text_13">
     <!-- Normalized SST -->
     <g transform="translate(23.916563 200.839375) rotate(-90) scale(0.22 -0.22)">
      <defs>
       <path id="DejaVuSans-4e" d="M 628 4666 
L 1478 4666 
L 3547 763 
L 3547 4666 
L 4159 4666 
L 4159 0 
L 3309 0 
L 1241 3903 
L 1241 0 
L 628 0 
L 628 4666 
z
" transform="scale(0.015625)"/>
       <path id="DejaVuSans-6f" d="M 1959 3097 
Q 1497 3097 1228 2736 
Q 959 2375 959 1747 
Q 959 1119 1226 758 
Q 1494 397 1959 397 
Q 2419 397 2687 759 
Q 2956 1122 2956 1747 
Q 2956 2369 2687 2733 
Q 2419 3097 1959 3097 
z
M 1959 3584 
Q 2709 3584 3137 3096 
Q 3566 2609 3566 1747 
Q 3566 888 3137 398 
Q 2709 -91 1959 -91 
Q 1206 -91 779 398 
Q 353 888 353 1747 
Q 353 2609 779 3096 
Q 1206 3584 1959 3584 
z
" transform="scale(0.015625)"/>
       <path id="DejaVuSans-72" d="M 2631 2963 
Q 2534 3019 2420 3045 
Q 2306 3072 2169 3072 
Q 1681 3072 1420 2755 
Q 1159 2438 1159 1844 
L 1159 0 
L 581 0 
L 581 3500 
L 1159 3500 
L 1159 2956 
Q 1341 3275 1631 3429 
Q 1922 3584 2338 3584 
Q 2397 3584 2469 3576 
Q 2541 3569 2628 3553 
L 2631 2963 
z
" transform="scale(0.015625)"/>
       <path id="DejaVuSans-6d" d="M 3328 2828 
Q 3544 3216 3844 3400 
Q 4144 3584 4550 3584 
Q 5097 3584 5394 3201 
Q 5691 2819 5691 2113 
L 5691 0 
L 5113 0 
L 5113 2094 
Q 5113 2597 4934 2840 
Q 4756 3084 4391 3084 
Q 3944 3084 3684 2787 
Q 3425 2491 3425 1978 
L 3425 0 
L 2847 0 
L 2847 2094 
Q 2847 2600 2669 2842 
Q 2491 3084 2119 3084 
Q 1678 3084 1418 2786 
Q 1159 2488 1159 1978 
L 1159 0 
L 581 0 
L 581 3500 
L 1159 3500 
L 1159 2956 
Q 1356 3278 1631 3431 
Q 1906 3584 2284 3584 
Q 2666 3584 2933 3390 
Q 3200 3197 3328 2828 
z
" transform="scale(0.015625)"/>
       <path id="DejaVuSans-61" d="M 2194 1759 
Q 1497 1759 1228 1600 
Q 959 1441 959 1056 
Q 959 750 1161 570 
Q 1363 391 1709 391 
Q 2188 391 2477 730 
Q 2766 1069 2766 1631 
L 2766 1759 
L 2194 1759 
z
M 3341 1997 
L 3341 0 
L 2766 0 
L 2766 531 
Q 2569 213 2275 61 
Q 1981 -91 1556 -91 
Q 1019 -91 701 211 
Q 384 513 384 1019 
Q 384 1609 779 1909 
Q 1175 2209 1959 2209 
L 2766 2209 
L 2766 2266 
Q 2766 2663 2505 2880 
Q 2244 3097 1772 3097 
Q 1472 3097 1187 3025 
Q 903 2953 641 2809 
L 641 3341 
Q 956 3463 1253 3523 
Q 1550 3584 1831 3584 
Q 2591 3584 2966 3190 
Q 3341 2797 3341 1997 
z
" transform="scale(0.015625)"/>
       <path id="DejaVuSans-6c" d="M 603 4863 
L 1178 4863 
L 1178 0 
L 603 0 
L 603 4863 
z
" transform="scale(0.015625)"/>
       <path id="DejaVuSans-69" d="M 603 3500 
L 1178 3500 
L 1178 0 
L 603 0 
L 603 3500 
z
M 603 4863 
L 1178 4863 
L 1178 4134 
L 603 4134 
L 603 4863 
z
" transform="scale(0.015625)"/>
       <path id="DejaVuSans-7a" d="M 353 3500 
L 3084 3500 
L 3084 2975 
L 922 459 
L 3084 459 
L 3084 0 
L 275 0 
L 275 525 
L 2438 3041 
L 353 3041 
L 353 3500 
z
" transform="scale(0.015625)"/>
       <path id="DejaVuSans-65" d="M 3597 1894 
L 3597 1613 
L 953 1613 
Q 991 1019 1311 708 
Q 1631 397 2203 397 
Q 2534 397 2845 478 
Q 3156 559 3463 722 
L 3463 178 
Q 3153 47 2828 -22 
Q 2503 -91 2169 -91 
Q 1331 -91 842 396 
Q 353 884 353 1716 
Q 353 2575 817 3079 
Q 1281 3584 2069 3584 
Q 2775 3584 3186 3129 
Q 3597 2675 3597 1894 
z
M 3022 2063 
Q 3016 2534 2758 2815 
Q 2500 3097 2075 3097 
Q 1594 3097 1305 2825 
Q 1016 2553 972 2059 
L 3022 2063 
z
" transform="scale(0.015625)"/>
       <path id="DejaVuSans-64" d="M 2906 2969 
L 2906 4863 
L 3481 4863 
L 3481 0 
L 2906 0 
L 2906 525 
Q 2725 213 2448 61 
Q 2172 -91 1784 -91 
Q 1150 -91 751 415 
Q 353 922 353 1747 
Q 353 2572 751 3078 
Q 1150 3584 1784 3584 
Q 2172 3584 2448 3432 
Q 2725 3281 2906 2969 
z
M 947 1747 
Q 947 1113 1208 752 
Q 1469 391 1925 391 
Q 2381 391 2643 752 
Q 2906 1113 2906 1747 
Q 2906 2381 2643 2742 
Q 2381 3103 1925 3103 
Q 1469 3103 1208 2742 
Q 947 2381 947 1747 
z
" transform="scale(0.015625)"/>
       <path id="DejaVuSans-20" transform="scale(0.015625)"/>
       <path id="DejaVuSans-53" d="M 3425 4513 
L 3425 3897 
Q 3066 4069 2747 4153 
Q 2428 4238 2131 4238 
Q 1616 4238 1336 4038 
Q 1056 3838 1056 3469 
Q 1056 3159 1242 3001 
Q 1428 2844 1947 2747 
L 2328 2669 
Q 3034 2534 3370 2195 
Q 3706 1856 3706 1288 
Q 3706 609 3251 259 
Q 2797 -91 1919 -91 
Q 1588 -91 1214 -16 
Q 841 59 441 206 
L 441 856 
Q 825 641 1194 531 
Q 1563 422 1919 422 
Q 2459 422 2753 634 
Q 3047 847 3047 1241 
Q 3047 1584 2836 1778 
Q 2625 1972 2144 2069 
L 1759 2144 
Q 1053 2284 737 2584 
Q 422 2884 422 3419 
Q 422 4038 858 4394 
Q 1294 4750 2059 4750 
Q 2388 4750 2728 4690 
Q 3069 4631 3425 4513 
z
" transform="scale(0.015625)"/>
       <path id="DejaVuSans-54" d="M -19 4666 
L 3928 4666 
L 3928 4134 
L 2272 4134 
L 2272 0 
L 1638 0 
L 1638 4134 
L -19 4134 
L -19 4666 
z
" transform="scale(0.015625)"/>
      </defs>
      <use xlink:href="#DejaVuSans-4e"/>
      <use xlink:href="#DejaVuSans-6f" transform="translate(74.804688 0)"/>
      <use xlink:href="#DejaVuSans-72" transform="translate(135.986328 0)"/>
      <use xlink:href="#DejaVuSans-6d" transform="translate(175.349609 0)"/>
      <use xlink:href="#DejaVuSans-61" transform="translate(272.761719 0)"/>
      <use xlink:href="#DejaVuSans-6c" transform="translate(334.041016 0)"/>
      <use xlink:href="#DejaVuSans-69" transform="translate(361.824219 0)"/>
      <use xlink:href="#DejaVuSans-7a" transform="translate(389.607422 0)"/>
      <use xlink:href="#DejaVuSans-65" transform="translate(442.097656 0)"/>
      <use xlink:href="#DejaVuSans-64" transform="translate(503.621094 0)"/>
      <use xlink:href="#DejaVuSans-20" transform="translate(567.097656 0)"/>
      <use xlink:href="#DejaVuSans-53" transform="translate(598.884766 0)"/>
      <use xlink:href="#DejaVuSans-53" transform="translate(662.361328 0)"/>
      <use xlink:href="#DejaVuSans-54" transform="translate(725.837891 0)"/>
     </g>
    </g>
   </g>
   <g id="line2d_23">
    <path d="M 108.309034 152.591016 
L 108.838139 147.09834 
L 109.367245 151.251339 
L 109.89635 143.883115 
L 110.425455 140.132019 
L 110.95456 145.624695 
L 111.483665 147.902146 
L 112.541876 141.337728 
L 113.070981 137.854568 
L 113.600086 132.897762 
L 114.129191 136.514891 
L 114.658297 128.34286 
L 115.187402 126.869215 
L 115.716507 136.782826 
L 116.774717 128.476828 
L 117.303823 113.740379 
L 117.832928 113.204508 
L 118.362033 110.793089 
L 118.891138 109.051509 
L 119.420243 102.755027 
L 119.949349 87.88461 
L 120.478454 81.186225 
L 121.007559 79.71258 
L 122.065769 67.38755 
L 122.594875 62.028841 
L 123.12398 67.253582 
L 123.653085 64.172325 
L 124.711295 59.215519 
L 125.240401 58.545681 
L 125.769506 60.9571 
L 126.298611 53.32094 
L 126.827716 57.473939 
L 127.356821 56.670133 
L 128.415032 71.674517 
L 128.944137 73.818 
L 129.473242 74.889742 
L 130.002347 77.569096 
L 131.060558 100.20964 
L 131.589663 106.506123 
L 132.118768 117.22354 
L 132.647874 121.510507 
L 133.176979 118.161314 
L 133.706084 123.252087 
L 134.235189 126.333344 
L 134.764294 118.295281 
L 135.2934 124.457796 
L 135.822505 126.333344 
L 136.35161 126.199377 
L 136.880715 133.969504 
L 137.40982 136.514891 
L 137.938926 135.175213 
L 138.468031 142.141535 
L 138.997136 144.552953 
L 139.526241 151.78721 
L 140.055346 150.849436 
L 140.584452 147.09834 
L 141.113557 151.519275 
L 141.642662 150.983404 
L 142.171767 151.921178 
L 142.700872 149.107856 
L 143.759083 131.692053 
L 144.288188 130.486343 
L 144.817293 114.946089 
L 145.346398 104.228671 
L 145.875504 97.26235 
L 146.404609 94.850931 
L 146.933714 83.597643 
L 147.462819 77.837032 
L 147.991924 89.09032 
L 148.52103 77.167193 
L 149.050135 77.435129 
L 150.108345 60.689164 
L 150.63745 61.49297 
L 151.166556 56.8041 
L 152.224766 61.359003 
L 152.753871 57.473939 
L 153.282977 66.583744 
L 153.812082 62.162809 
L 154.341187 62.162809 
L 154.870292 66.047873 
L 155.399397 62.028841 
L 156.986713 92.439513 
L 157.515818 98.735995 
L 158.044923 98.735995 
L 158.574029 102.888994 
L 159.632239 122.314313 
L 160.161344 119.902894 
L 160.690449 119.634959 
L 161.219555 118.161314 
L 161.74866 120.304797 
L 162.277765 130.08444 
L 162.80687 132.093956 
L 163.335975 125.529538 
L 163.865081 129.816505 
L 164.394186 142.811373 
L 164.923291 146.562469 
L 165.452396 147.902146 
L 165.981501 146.830405 
L 166.510607 150.715468 
L 167.039712 148.973888 
L 167.568817 151.653242 
L 168.097922 139.730116 
L 168.627027 142.945341 
L 169.156133 143.213276 
L 169.685238 137.318697 
L 170.214343 139.194245 
L 170.743448 133.835536 
L 171.272553 135.041246 
L 171.801659 126.869215 
L 172.330764 127.806989 
L 172.859869 124.189861 
L 173.388974 124.189861 
L 173.91808 117.759411 
L 174.447185 108.247703 
L 174.97629 96.458544 
L 175.505395 81.856063 
L 176.0345 78.50687 
L 176.563606 79.980515 
L 177.092711 75.961484 
L 177.621816 64.306292 
L 178.150921 61.225035 
L 178.680026 63.636454 
L 179.209132 61.359003 
L 179.738237 62.564712 
L 180.267342 60.287261 
L 180.796447 61.626938 
L 181.325552 59.617422 
L 181.854658 65.110099 
L 182.383763 61.626938 
L 182.912868 68.325324 
L 183.441973 70.602775 
L 183.971078 75.02371 
L 184.500184 91.635706 
L 185.029289 95.788705 
L 185.558394 102.085188 
L 186.087499 101.147414 
L 186.616604 101.683285 
L 187.14571 108.649606 
L 187.674815 118.161314 
L 188.20392 119.634959 
L 188.733025 119.768926 
L 189.26213 124.993667 
L 189.791236 143.347244 
L 190.320341 136.112987 
L 190.849446 136.916794 
L 191.378551 142.275502 
L 191.907656 133.03173 
L 192.436762 132.629827 
L 192.965867 137.050761 
L 193.494972 132.227924 
L 194.024077 138.122503 
L 194.553183 148.83992 
L 195.082288 144.017083 
L 195.611393 150.313565 
L 196.140498 153.394823 
L 196.669603 155.538306 
L 197.198709 152.189113 
L 197.727814 153.126887 
L 198.256919 158.351628 
L 198.786024 148.304049 
L 199.315129 145.088824 
L 199.844235 137.988535 
L 200.37334 132.763795 
L 201.43155 111.596896 
L 201.960655 116.419733 
L 203.018866 91.501739 
L 203.547971 84.937321 
L 204.077076 80.516386 
L 204.606181 71.808484 
L 205.664392 63.368518 
L 206.193497 59.617422 
L 206.722602 58.411713 
L 207.251707 60.823132 
L 207.780813 64.306292 
L 208.309918 61.49297 
L 208.839023 57.206004 
L 209.368128 54.258714 
L 209.897233 55.06252 
L 210.426339 57.607907 
L 210.955444 62.296777 
L 211.484549 71.540549 
L 212.013654 85.071288 
L 212.542759 89.894126 
L 213.071865 90.162061 
L 213.60097 100.075672 
L 214.130075 115.615927 
L 214.65918 111.998799 
L 215.188286 109.721348 
L 215.717391 118.831152 
L 216.246496 117.089572 
L 216.775601 122.180345 
L 217.304706 137.7206 
L 217.833812 131.558085 
L 218.362917 135.97902 
L 218.892022 141.873599 
L 219.421127 144.820889 
L 219.950232 141.739631 
L 220.479338 142.677405 
L 221.008443 140.801857 
L 221.537548 143.481212 
L 222.066653 144.017083 
L 223.124864 157.547822 
L 223.653969 157.413854 
L 224.183074 161.16495 
L 224.712179 162.504627 
L 226.8286 133.433633 
L 227.357705 132.227924 
L 228.415916 113.070541 
L 228.945021 111.998799 
L 229.474126 113.472444 
L 230.003231 103.424865 
L 230.532336 95.52077 
L 231.061442 84.133514 
L 231.590547 79.310677 
L 232.119652 83.463676 
L 232.648757 79.444644 
L 233.177862 69.665001 
L 233.706968 70.200872 
L 234.236073 72.880226 
L 234.765178 67.253582 
L 235.294283 71.540549 
L 235.823388 70.33484 
L 236.352494 72.478323 
L 236.881599 71.406581 
L 237.410704 75.425613 
L 237.939809 74.219903 
L 238.468915 82.257966 
L 238.99802 85.875095 
L 239.527125 94.716964 
L 240.05623 97.128383 
L 240.585335 103.022962 
L 241.114441 101.817253 
L 241.643546 103.558833 
L 242.172651 104.094704 
L 242.701756 116.151798 
L 243.230861 120.036862 
L 243.759967 116.01783 
L 244.289072 116.151798 
L 244.818177 123.921925 
L 245.347282 127.940957 
L 246.405493 140.801857 
L 246.934598 143.079309 
L 247.463703 143.749147 
L 247.992808 146.160566 
L 248.521913 150.849436 
L 249.051019 159.289402 
L 249.580124 158.887499 
L 250.109229 161.030982 
L 250.638334 159.825273 
L 251.167439 166.523659 
L 251.696545 167.997304 
L 252.22565 155.672274 
L 253.28386 148.83992 
L 253.812965 139.46218 
L 254.342071 135.041246 
L 254.871176 133.701569 
L 255.929386 120.572733 
L 256.458491 107.979767 
L 256.987597 103.290897 
L 257.516702 92.975383 
L 258.045807 89.760158 
L 258.574912 87.616675 
L 259.104018 86.946836 
L 259.633123 78.50687 
L 261.749544 57.473939 
L 262.278649 64.172325 
L 262.807754 63.770422 
L 263.336859 56.8041 
L 264.39507 66.985647 
L 264.924175 72.210388 
L 265.45328 71.540549 
L 265.982385 70.602775 
L 266.51149 79.71258 
L 267.040596 85.473191 
L 267.569701 81.722095 
L 268.098806 93.109351 
L 268.627911 97.932189 
L 269.157016 100.075672 
L 270.215227 117.491475 
L 270.744332 116.285766 
L 271.273437 123.118119 
L 271.802542 119.768926 
L 272.331648 124.457796 
L 272.860753 135.711084 
L 273.389858 152.323081 
L 273.918963 149.107856 
L 274.448068 152.724984 
L 274.977174 151.117371 
L 275.506279 143.213276 
L 276.035384 142.677405 
L 276.564489 148.438017 
L 277.093594 146.696437 
L 277.6227 155.404338 
L 278.151805 147.768179 
L 278.68091 150.849436 
L 279.210015 150.715468 
L 279.739121 156.877983 
L 280.268226 167.461433 
L 280.797331 167.863336 
L 281.326436 167.327465 
L 281.855541 162.102724 
L 282.384647 143.615179 
L 282.913752 134.505375 
L 283.442857 115.749895 
L 283.971962 115.214024 
L 285.030173 97.396318 
L 285.559278 98.46806 
L 286.617488 83.865579 
L 287.146593 71.540549 
L 287.675699 75.559581 
L 288.204804 83.19574 
L 288.733909 80.650354 
L 289.263014 72.746258 
L 289.792119 68.459292 
L 290.321225 65.913905 
L 290.85033 66.449776 
L 291.379435 66.18184 
L 291.90854 65.378034 
L 292.437645 73.951968 
L 292.966751 71.674517 
L 293.495856 76.363387 
L 294.024961 79.980515 
L 294.554066 84.535417 
L 295.612277 104.764542 
L 296.141382 109.855315 
L 296.670487 106.238187 
L 297.199592 112.132767 
L 297.728697 114.946089 
L 298.257803 118.96512 
L 298.786908 121.778442 
L 299.316013 123.386055 
L 299.845118 127.940957 
L 300.374224 130.218408 
L 300.903329 130.888247 
L 301.432434 127.539054 
L 301.961539 132.763795 
L 302.490644 145.35676 
L 303.01975 148.036114 
L 303.548855 144.954857 
L 304.07796 133.165698 
L 304.607065 128.476828 
L 305.13617 132.227924 
L 305.665276 137.050761 
L 306.194381 133.433633 
L 306.723486 133.433633 
L 307.252591 138.390439 
L 307.781696 139.730116 
L 308.310802 140.533922 
L 308.839907 142.141535 
L 309.369012 140.66789 
L 309.898117 141.605664 
L 310.427222 132.763795 
L 310.956328 126.467312 
L 311.485433 126.869215 
L 312.014538 108.783574 
L 312.543643 109.721348 
L 313.072748 108.381671 
L 313.601854 108.917541 
L 314.130959 94.984899 
L 314.660064 76.899258 
L 315.718274 68.593259 
L 316.24738 67.119614 
L 316.776485 64.172325 
L 317.30559 59.215519 
L 317.834695 60.689164 
L 318.3638 60.689164 
L 318.892906 55.866326 
L 319.422011 64.038357 
L 320.480221 72.210388 
L 321.009327 67.789453 
L 321.538432 62.430744 
L 322.067537 77.703064 
L 322.596642 82.123999 
L 323.125747 87.482707 
L 323.654853 98.869963 
L 324.713063 112.400702 
L 325.242168 122.314313 
L 325.771273 123.65399 
L 326.300379 118.831152 
L 326.829484 119.500991 
L 327.358589 129.146666 
L 327.887694 129.414602 
L 328.416799 132.763795 
L 328.945905 156.342112 
L 329.47501 154.198629 
L 330.004115 144.686921 
L 330.53322 158.753531 
L 331.062325 156.744016 
L 331.591431 174.561722 
L 332.120536 165.451917 
L 332.649641 164.514143 
L 333.178746 154.332597 
L 333.707851 162.37066 
L 334.236957 172.28427 
L 334.766062 158.21766 
L 335.295167 160.629079 
L 335.824272 143.749147 
L 336.353377 147.09834 
L 336.882483 148.83992 
L 337.411588 134.371407 
L 337.940693 130.888247 
L 338.469798 118.429249 
L 338.998903 120.7067 
L 340.057114 88.018578 
L 340.586219 76.229419 
L 341.115324 81.186225 
L 341.64443 76.899258 
L 342.173535 63.234551 
L 342.70264 62.430744 
L 343.231745 60.421229 
L 343.76085 64.44026 
L 344.289956 61.49297 
L 344.819061 54.392682 
L 345.348166 67.38755 
L 345.877271 58.00981 
L 346.406376 54.526649 
L 346.935482 57.339971 
L 347.464587 58.679648 
L 348.522797 69.531033 
L 349.051902 70.602775 
L 349.581008 76.899258 
L 350.110113 72.612291 
L 350.639218 75.827516 
L 351.168323 87.750643 
L 351.697428 96.056641 
L 352.226534 97.128383 
L 352.755639 105.970252 
L 353.284744 101.415349 
L 353.813849 108.381671 
L 354.342954 112.132767 
L 354.87206 113.338476 
L 355.93027 125.663506 
L 356.459375 130.352376 
L 356.98848 129.280634 
L 357.517586 133.567601 
L 358.046691 135.443149 
L 358.575796 134.639343 
L 359.104901 139.328213 
L 359.634006 137.452665 
L 360.163112 142.811373 
L 361.221322 150.04563 
L 361.750427 157.145919 
L 362.279532 155.806242 
L 362.808638 152.323081 
L 363.337743 142.40947 
L 363.866848 137.7206 
L 364.395953 137.586632 
L 364.925059 138.122503 
L 365.454164 135.443149 
L 365.983269 136.380923 
L 366.512374 124.457796 
L 367.041479 119.634959 
L 368.09969 104.496607 
L 368.628795 93.377287 
L 369.1579 86.678901 
L 369.687005 91.635706 
L 370.216111 85.607159 
L 371.274321 68.861195 
L 372.332531 54.124746 
L 372.861637 52.919037 
L 373.390742 57.875842 
L 373.919847 55.196488 
L 374.448952 55.866326 
L 374.978057 73.951968 
L 375.507163 70.33484 
L 376.036268 76.631322 
L 376.565373 90.028094 
L 377.094478 86.009062 
L 377.623583 88.286513 
L 378.152689 88.688417 
L 378.681794 96.994415 
L 379.210899 107.711832 
L 379.740004 113.204508 
L 380.269109 113.740379 
L 380.798215 120.974636 
L 381.32732 126.333344 
L 381.856425 132.897762 
L 382.38553 137.452665 
L 382.914635 137.988535 
L 383.443741 136.916794 
L 383.972846 140.935825 
L 384.501951 138.256471 
L 385.031056 141.605664 
L 385.560162 146.696437 
L 386.089267 155.404338 
L 386.618372 160.093208 
L 387.147477 155.940209 
L 387.676582 156.744016 
L 388.205688 154.332597 
L 389.263898 141.337728 
L 389.793003 145.222792 
L 390.322108 145.624695 
L 390.851214 139.998051 
L 391.380319 143.883115 
L 391.909424 149.509759 
L 392.438529 147.366275 
L 392.967634 143.749147 
L 393.49674 138.122503 
L 394.025845 121.510507 
L 394.55495 108.783574 
L 395.084055 104.764542 
L 395.61316 96.592512 
L 396.142266 94.716964 
L 396.671371 87.348739 
L 397.200476 73.684032 
L 397.729581 73.014194 
L 398.258686 75.425613 
L 398.787792 72.746258 
L 399.316897 68.191356 
L 399.846002 68.861195 
L 400.375107 66.985647 
L 400.904212 62.69868 
L 401.433318 61.359003 
L 401.962423 64.708196 
L 402.491528 64.44026 
L 403.020633 65.110099 
L 404.078844 74.219903 
L 404.607949 78.640838 
L 405.137054 86.410965 
L 405.666159 96.458544 
L 406.195265 95.654738 
L 406.72437 100.20964 
L 407.253475 108.113735 
L 407.78258 110.659122 
L 408.311685 113.874347 
L 408.840791 113.740379 
L 409.369896 120.7067 
L 409.899001 130.888247 
L 410.428106 122.984151 
L 411.486317 137.452665 
L 412.544527 161.968756 
L 413.073632 156.47608 
L 413.602737 161.16495 
L 414.131843 166.925562 
L 414.660948 163.040498 
L 415.190053 153.662758 
L 415.719158 161.030982 
L 416.248263 158.753531 
L 416.777369 158.351628 
L 417.306474 160.495112 
L 417.835579 169.470948 
L 418.364684 159.959241 
L 418.893789 155.940209 
L 419.422895 136.380923 
L 419.952 143.749147 
L 420.481105 139.730116 
L 421.01021 140.935825 
L 422.597526 109.051509 
L 423.126631 101.95122 
L 423.655736 86.544933 
L 424.184841 84.40145 
L 425.772157 65.779937 
L 426.301262 65.110099 
L 426.830368 71.406581 
L 427.359473 71.808484 
L 427.888578 69.12913 
L 428.417683 65.378034 
L 428.946788 60.823132 
L 429.475894 60.555196 
L 430.534104 64.038357 
L 431.063209 66.315808 
L 431.592314 82.525902 
L 432.12142 78.908773 
L 432.650525 91.367771 
L 433.708735 100.611543 
L 434.23784 102.085188 
L 434.766946 114.544185 
L 435.296051 117.893378 
L 435.825156 122.180345 
L 436.354261 123.386055 
L 436.883366 120.974636 
L 437.412472 120.974636 
L 438.470682 123.386055 
L 438.999787 134.103472 
L 440.057998 152.189113 
L 440.587103 152.591016 
L 441.116208 156.744016 
L 441.645313 153.52879 
L 442.174418 162.772563 
L 442.703524 164.11224 
L 443.232629 159.825273 
L 443.761734 158.887499 
L 444.290839 162.772563 
L 444.819944 156.342112 
L 445.34905 146.696437 
L 446.40726 134.907278 
L 446.936365 132.495859 
L 447.465471 114.142282 
L 447.994576 115.481959 
L 449.052786 102.888994 
L 449.581891 99.673769 
L 450.110997 110.659122 
L 450.640102 105.300413 
L 451.169207 91.903642 
L 451.698312 89.760158 
L 452.227417 84.669385 
L 452.756523 90.429997 
L 453.814733 69.665001 
L 454.343838 60.287261 
L 454.872943 60.689164 
L 455.402049 57.741874 
L 455.931154 67.655485 
L 456.460259 65.779937 
L 456.989364 58.545681 
L 457.518469 59.081552 
L 458.047575 64.574228 
L 458.57668 67.789453 
L 459.105785 64.306292 
L 459.63489 68.057388 
L 460.163995 68.861195 
L 460.693101 73.014194 
L 461.222206 81.990031 
L 461.751311 88.822384 
L 462.280416 92.975383 
L 462.809521 95.654738 
L 463.338627 103.692801 
L 463.867732 117.089572 
L 464.925942 126.333344 
L 465.455047 126.199377 
L 466.513258 143.883115 
L 467.042363 149.509759 
L 467.571468 164.246208 
L 468.100574 162.772563 
L 468.629679 168.533174 
L 469.158784 168.80111 
L 469.687889 167.05953 
L 470.216994 166.389691 
L 470.7461 163.978272 
L 471.275205 163.308434 
L 471.80431 170.676658 
L 472.333415 143.615179 
L 472.86252 137.452665 
L 473.391626 139.194245 
L 473.920731 148.571985 
L 474.449836 148.973888 
L 474.978941 148.571985 
L 475.508046 134.237439 
L 476.037152 122.984151 
L 476.566257 101.415349 
L 477.095362 103.290897 
L 477.624467 106.64009 
L 478.153572 98.602027 
L 478.682678 94.181093 
L 479.211783 86.410965 
L 479.740888 74.487839 
L 480.269993 77.033225 
L 480.799098 74.085936 
L 481.328204 67.789453 
L 481.857309 68.325324 
L 482.386414 70.33484 
L 482.915519 70.736743 
L 483.444624 78.104967 
L 483.97373 74.487839 
L 484.502835 67.38755 
L 485.561045 59.75139 
L 486.09015 78.104967 
L 486.619256 74.755774 
L 487.148361 73.282129 
L 487.677466 79.71258 
L 488.206571 82.257966 
L 488.735676 85.607159 
L 489.264782 93.109351 
L 489.793887 93.377287 
L 490.322992 91.099835 
L 491.381203 109.989283 
L 491.910308 108.649606 
L 492.439413 111.864831 
L 492.968518 120.7067 
L 493.497623 126.60128 
L 494.026729 141.203761 
L 494.555834 145.892631 
L 495.084939 144.954857 
L 495.614044 147.500243 
L 496.143149 148.973888 
L 496.672255 154.600532 
L 497.20136 152.992919 
L 497.730465 158.887499 
L 498.25957 160.495112 
L 498.788675 155.136403 
L 499.317781 154.868468 
L 500.375991 145.624695 
L 500.905096 151.519275 
L 501.434201 150.447533 
L 501.963307 153.930694 
L 502.492412 151.78721 
L 503.021517 147.232308 
L 504.079727 132.763795 
L 504.608833 123.921925 
L 505.137938 112.668637 
L 505.667043 106.104219 
L 506.196148 101.817253 
L 506.725253 93.511254 
L 507.254359 88.152546 
L 507.783464 75.693548 
L 508.841674 64.172325 
L 509.370779 64.306292 
L 509.899885 68.593259 
L 510.42899 62.564712 
L 511.4872 71.674517 
L 512.016306 67.655485 
L 512.545411 61.760906 
L 513.074516 62.296777 
L 513.603621 71.540549 
L 514.132726 68.727227 
L 514.661832 82.659869 
L 515.190937 82.123999 
L 515.720042 78.908773 
L 516.249147 92.305545 
L 516.778252 94.850931 
L 517.307358 98.869963 
L 517.836463 95.788705 
L 518.365568 106.506123 
L 518.894673 114.812121 
L 519.423778 111.32896 
L 520.481989 128.610795 
L 521.011094 141.873599 
L 521.540199 140.66789 
L 522.069304 151.117371 
L 522.59841 148.304049 
L 523.127515 139.864083 
L 523.65662 145.758663 
L 524.185725 142.40947 
L 524.71483 156.47608 
L 525.243936 153.52879 
L 525.773041 156.208145 
L 526.302146 155.136403 
L 526.831251 153.662758 
L 527.360356 157.413854 
L 527.889462 167.997304 
L 528.418567 159.825273 
L 528.947672 155.806242 
L 529.476777 159.42337 
L 530.005882 155.404338 
L 530.534988 148.304049 
L 531.064093 147.09834 
L 531.593198 146.294534 
L 532.122303 134.77331 
L 532.651409 119.099088 
L 533.180514 118.429249 
L 533.709619 100.343608 
L 534.238724 94.850931 
L 534.767829 82.257966 
L 535.296935 83.329708 
L 535.82604 78.238935 
L 536.88425 54.660617 
L 537.413355 45.550812 
L 537.942461 48.364134 
L 538.471566 54.660617 
L 539.000671 54.526649 
L 539.529776 44.077168 
L 540.587987 51.177456 
L 541.117092 60.287261 
L 541.646197 77.301161 
L 542.704407 65.110099 
L 543.233513 69.12913 
L 543.762618 74.353871 
L 544.820828 93.109351 
L 545.349933 106.238187 
L 545.879039 103.692801 
L 546.408144 108.515638 
L 546.937249 124.859699 
L 547.466354 126.467312 
L 547.995459 130.486343 
L 548.524565 142.677405 
L 549.05367 143.615179 
L 550.11188 155.002435 
L 550.640985 152.457049 
L 551.170091 156.47608 
L 551.699196 165.719852 
L 552.228301 170.274755 
L 552.757406 176.035366 
L 553.286512 185.948977 
L 553.815617 178.446785 
L 555.402932 163.844304 
L 555.932038 164.380175 
L 556.461143 164.246208 
L 556.990248 151.519275 
L 557.519353 148.571985 
L 558.577564 133.567601 
L 559.106669 138.390439 
L 559.635774 127.271118 
L 560.164879 126.333344 
L 561.22309 97.798221 
L 561.752195 91.769674 
L 562.2813 88.822384 
L 562.810405 81.856063 
L 563.868616 62.832648 
L 564.397721 64.976131 
L 564.926826 62.296777 
L 565.455931 60.555196 
L 565.985036 56.402197 
L 566.514142 56.402197 
L 567.043247 64.44026 
L 567.572352 58.545681 
L 568.101457 58.813616 
L 568.630562 59.75139 
L 569.159668 66.315808 
L 569.688773 69.397066 
L 570.217878 69.798969 
L 570.746983 70.87071 
L 571.276088 81.588128 
L 571.805194 87.348739 
L 572.334299 97.798221 
L 572.863404 103.960736 
L 573.392509 115.214024 
L 573.921615 117.357507 
L 574.45072 133.969504 
L 574.979825 128.744763 
L 575.50893 132.763795 
L 576.038035 133.03173 
L 576.567141 121.376539 
L 577.096246 125.127635 
L 577.625351 133.03173 
L 578.154456 123.787958 
L 579.212667 130.218408 
L 579.741772 143.347244 
L 580.270877 140.66789 
L 580.799982 153.796726 
L 581.329087 144.552953 
L 581.858193 143.079309 
L 582.387298 153.52879 
L 582.916403 155.538306 
L 583.445508 156.074177 
L 583.974613 146.294534 
L 584.503719 143.347244 
L 585.032824 141.873599 
L 585.561929 145.892631 
L 586.091034 139.596148 
L 586.620139 125.663506 
L 587.149245 125.931441 
L 587.67835 127.673021 
L 588.207455 120.840668 
L 588.73656 105.702316 
L 589.265665 103.290897 
L 589.794771 98.46806 
L 590.323876 90.8319 
L 590.852981 78.238935 
L 591.382086 77.970999 
L 592.440297 66.047873 
L 592.969402 64.44026 
L 593.498507 60.9571 
L 594.027612 53.856811 
L 594.556718 49.167941 
L 595.085823 49.033973 
L 595.614928 45.952716 
L 596.144033 54.794585 
L 596.673138 59.617422 
L 597.202244 66.18184 
L 597.731349 64.842163 
L 598.260454 75.425613 
L 598.789559 75.693548 
L 599.318664 83.999547 
L 599.84777 84.803353 
L 600.376875 93.645222 
L 600.90598 107.309929 
L 601.435085 113.472444 
L 601.96419 116.821637 
L 602.493296 121.644474 
L 603.022401 121.242571 
L 603.551506 127.806989 
L 604.080611 131.826021 
L 604.609716 124.591764 
L 605.138822 134.371407 
L 605.667927 141.203761 
L 606.197032 142.007567 
L 606.726137 137.854568 
L 607.255242 131.558085 
L 607.784348 131.424117 
L 608.313453 133.969504 
L 608.842558 142.811373 
L 609.371663 146.428501 
L 609.900768 156.342112 
L 610.429874 153.52879 
L 610.958979 159.557338 
L 611.488084 158.083693 
L 612.546294 141.605664 
L 613.0754 147.768179 
L 613.604505 140.935825 
L 614.662715 121.376539 
L 615.19182 129.682537 
L 615.720926 121.242571 
L 616.250031 114.812121 
L 617.308241 83.329708 
L 617.837347 78.908773 
L 618.366452 79.578612 
L 618.895557 82.257966 
L 619.424662 81.588128 
L 619.953767 76.631322 
L 620.482873 76.229419 
L 621.011978 70.468807 
L 621.541083 70.066904 
L 622.070188 67.119614 
L 622.599293 73.951968 
L 623.128399 64.038357 
L 623.657504 65.64597 
L 624.186609 64.708196 
L 624.715714 61.894874 
L 625.244819 79.846547 
L 625.773925 86.009062 
L 626.30303 93.645222 
L 626.832135 93.511254 
L 627.890345 109.58738 
L 628.419451 115.749895 
L 628.948556 116.01783 
L 629.477661 119.634959 
L 630.006766 130.754279 
L 630.535871 133.701569 
L 631.064977 134.639343 
L 631.594082 139.998051 
L 632.123187 143.347244 
L 632.652292 142.141535 
L 633.181397 148.304049 
L 633.710503 149.509759 
L 634.239608 165.050014 
L 634.768713 175.633463 
L 635.297818 171.346496 
L 635.826923 168.533174 
L 636.356029 169.069045 
L 636.885134 168.533174 
L 637.414239 180.456301 
L 637.943344 170.140787 
L 638.47245 156.877983 
L 639.001555 152.189113 
L 639.53066 157.547822 
L 640.059765 152.724984 
L 640.58887 152.724984 
L 641.117976 149.777694 
L 642.176186 123.787958 
L 642.705291 114.946089 
L 643.234396 121.108603 
L 643.763502 114.27625 
L 644.292607 98.46806 
L 645.350817 81.186225 
L 645.879922 67.253582 
L 646.409028 68.861195 
L 646.938133 69.665001 
L 647.467238 71.138646 
L 647.996343 65.512002 
L 648.525448 62.564712 
L 649.054554 63.636454 
L 649.583659 62.296777 
L 650.112764 58.679648 
L 650.641869 62.69868 
L 651.170974 64.44026 
L 651.70008 68.861195 
L 652.229185 65.779937 
L 652.75829 64.976131 
L 653.287395 66.047873 
L 653.8165 71.540549 
L 654.345606 75.693548 
L 654.874711 95.788705 
L 655.403816 94.582996 
L 655.932921 99.539801 
L 656.462026 109.58738 
L 656.991132 110.123251 
L 657.520237 115.080056 
L 658.049342 112.802605 
L 658.578447 114.544185 
L 659.107553 120.036862 
L 659.636658 121.376539 
L 660.165763 128.34286 
L 660.694868 131.826021 
L 661.223973 150.983404 
L 661.753079 151.385307 
L 662.282184 154.198629 
L 663.340394 171.346496 
L 663.869499 164.916046 
L 664.398605 161.16495 
L 664.92771 170.408722 
L 665.456815 168.265239 
L 665.98592 169.470948 
L 666.515025 172.552206 
L 667.044131 159.155434 
L 667.573236 152.323081 
L 668.102341 153.394823 
L 668.631446 143.481212 
L 669.160551 147.902146 
L 669.689657 139.060277 
L 670.218762 127.405086 
L 670.747867 109.989283 
L 671.806077 97.128383 
L 672.335183 83.999547 
L 672.864288 63.502486 
L 673.393393 56.402197 
L 673.922498 58.277745 
L 674.451603 67.38755 
L 674.980709 61.894874 
L 675.509814 58.813616 
L 676.568024 50.239682 
L 677.097129 52.919037 
L 677.626235 46.488586 
L 678.15534 50.775553 
L 678.684445 60.287261 
L 679.21355 58.947584 
L 679.742656 60.555196 
L 680.271761 63.100583 
L 680.800866 68.995162 
L 681.329971 80.382418 
L 681.859076 81.856063 
L 682.388182 89.492223 
L 682.917287 88.956352 
L 683.446392 96.324576 
L 683.975497 114.27625 
L 684.504602 116.553701 
L 685.033708 124.725732 
L 685.562813 127.003183 
L 686.621023 154.198629 
L 687.150128 145.758663 
L 687.679234 155.404338 
L 688.208339 160.495112 
L 688.737444 161.298918 
L 689.266549 154.198629 
L 689.795654 160.897015 
L 690.32476 159.825273 
L 690.853865 168.667142 
L 691.38297 174.025851 
L 691.912075 166.523659 
L 692.970286 161.16495 
L 693.499391 162.504627 
L 694.028496 157.145919 
L 694.557601 149.777694 
L 695.086706 156.47608 
L 695.615812 142.40947 
L 696.144917 142.275502 
L 696.674022 125.797473 
L 697.203127 125.127635 
L 698.261338 115.080056 
L 699.319548 88.688417 
L 699.848653 87.080804 
L 700.906864 69.932936 
L 701.435969 76.095451 
L 701.965074 74.353871 
L 702.494179 69.12913 
L 703.023285 69.263098 
L 703.55239 60.823132 
L 704.081495 56.938068 
L 704.6106 52.11523 
L 705.139705 52.651101 
L 705.668811 59.081552 
L 706.197916 69.12913 
L 706.727021 62.430744 
L 707.256126 63.368518 
L 707.785231 68.057388 
L 708.314337 63.636454 
L 708.843442 74.889742 
L 709.372547 81.856063 
L 709.901652 87.348739 
L 711.488968 120.170829 
L 712.018073 121.91241 
L 712.547178 129.548569 
L 713.605389 127.137151 
L 714.134494 138.524406 
L 714.663599 141.069793 
L 715.192704 144.285018 
L 715.721809 151.653242 
L 716.250915 154.868468 
L 716.78002 159.825273 
L 717.309125 160.361144 
L 717.83823 165.451917 
L 718.367335 161.030982 
L 718.896441 158.753531 
L 719.425546 159.42337 
L 719.954651 157.011951 
L 720.483756 153.394823 
L 721.012862 145.088824 
L 721.541967 128.744763 
L 722.071072 134.77331 
L 722.600177 129.816505 
L 723.129282 135.309181 
L 723.658388 135.175213 
L 724.187493 134.371407 
L 724.716598 117.491475 
L 725.245703 109.185477 
L 725.774808 107.577864 
L 726.303914 102.888994 
L 726.833019 95.52077 
L 727.362124 94.047125 
L 727.891229 90.429997 
L 728.94944 87.214772 
L 729.478545 73.550065 
L 730.00765 64.44026 
L 730.536755 63.636454 
L 731.06586 61.49297 
L 731.594966 63.368518 
L 732.124071 64.038357 
L 732.653176 66.717711 
L 733.182281 67.253582 
L 733.711386 66.851679 
L 734.240492 60.153293 
L 734.769597 68.191356 
L 735.827807 69.397066 
L 736.356912 66.851679 
L 737.415123 81.722095 
L 737.944228 89.626191 
L 739.002438 125.261603 
L 739.531544 131.29015 
L 740.060649 132.495859 
L 740.589754 131.826021 
L 741.118859 125.797473 
L 741.647964 117.089572 
L 742.17707 124.055893 
L 742.706175 128.610795 
L 743.23528 136.380923 
L 743.764385 141.605664 
L 744.293491 133.03173 
L 744.822596 130.486343 
L 745.880806 138.524406 
L 746.409911 143.883115 
L 746.939017 146.964372 
L 747.468122 143.749147 
L 747.997227 141.605664 
L 748.526332 150.581501 
L 749.055437 153.126887 
L 749.584543 153.930694 
L 750.113648 155.940209 
L 750.642753 151.385307 
L 751.171858 139.864083 
L 751.700963 136.246955 
L 752.230069 134.639343 
L 753.288279 120.170829 
L 753.817384 108.113735 
L 754.875595 95.52077 
L 755.4047 81.45416 
L 755.933805 78.372903 
L 756.46291 79.444644 
L 756.992015 85.741127 
L 757.521121 78.104967 
L 758.050226 74.889742 
L 758.579331 75.693548 
L 759.108436 71.406581 
L 760.166647 59.349487 
L 760.695752 56.8041 
L 761.224857 64.038357 
L 761.753962 60.153293 
L 762.283067 62.430744 
L 762.812173 66.717711 
L 763.870383 82.525902 
L 764.399488 84.803353 
L 764.928594 86.14303 
L 765.986804 96.324576 
L 766.515909 107.443897 
L 767.045014 122.046377 
L 767.57412 108.381671 
L 768.103225 114.946089 
L 768.63233 117.357507 
L 769.69054 129.414602 
L 770.219646 131.558085 
L 770.748751 127.137151 
L 771.277856 138.122503 
L 771.806961 137.318697 
L 772.336066 143.749147 
L 772.865172 144.418986 
L 773.394277 130.888247 
L 773.923382 133.567601 
L 774.452487 143.481212 
L 775.510698 132.897762 
L 776.568908 135.711084 
L 777.098013 138.122503 
L 777.627118 139.328213 
L 778.156224 137.586632 
L 778.685329 140.265987 
L 779.214434 140.132019 
L 779.743539 130.620311 
L 780.272644 115.080056 
L 780.80175 106.64009 
L 781.330855 110.123251 
L 781.85996 103.960736 
L 782.389065 100.477575 
L 782.91817 88.286513 
L 783.447276 83.865579 
L 783.976381 73.951968 
L 784.505486 70.066904 
L 785.034591 69.12913 
L 785.563697 67.789453 
L 786.092802 62.564712 
L 786.621907 59.215519 
L 787.151012 60.689164 
L 787.680117 57.206004 
L 788.209223 52.651101 
L 788.738328 60.287261 
L 789.267433 51.713327 
L 789.796538 55.732359 
L 790.325643 51.981263 
L 790.854749 63.770422 
L 791.912959 79.310677 
L 792.442064 75.425613 
L 793.500275 92.171577 
L 794.02938 108.113735 
L 794.558485 120.170829 
L 795.08759 120.572733 
L 795.616695 117.625443 
L 796.145801 118.563217 
L 796.674906 123.252087 
L 797.204011 130.08444 
L 797.733116 122.314313 
L 798.262221 124.725732 
L 798.791327 114.678153 
L 799.320432 128.208892 
L 799.849537 121.376539 
L 800.378642 124.859699 
L 800.907747 132.227924 
L 801.436853 127.940957 
L 801.965958 131.558085 
L 802.495063 140.399954 
L 803.024168 139.46218 
L 803.553273 140.265987 
L 804.082379 141.337728 
L 804.611484 150.179597 
L 805.140589 156.342112 
L 806.1988 136.246955 
L 807.25701 123.386055 
L 807.786115 131.424117 
L 808.31522 116.01783 
L 808.844326 104.228671 
L 809.373431 99.539801 
L 809.902536 87.88461 
L 810.431641 85.339224 
L 810.960746 66.315808 
L 811.489852 62.69868 
L 812.018957 69.665001 
L 812.548062 66.985647 
L 813.077167 66.583744 
L 813.606272 64.976131 
L 814.135378 60.823132 
L 814.664483 63.234551 
L 815.722693 54.928552 
L 816.251798 49.033973 
L 816.780904 49.569844 
L 817.310009 54.258714 
L 817.839114 63.636454 
L 818.368219 70.602775 
L 818.897324 68.593259 
L 819.955535 83.999547 
L 820.48464 96.056641 
L 821.013745 98.066157 
L 821.54285 94.984899 
L 822.071956 94.582996 
L 822.601061 103.022962 
L 823.130166 120.170829 
L 823.659271 131.29015 
L 824.188376 119.768926 
L 824.717482 111.730863 
L 825.246587 118.697185 
L 825.775692 107.175961 
L 826.304797 133.835536 
L 826.833903 143.749147 
L 827.363008 156.47608 
L 827.892113 152.858952 
L 828.421218 143.347244 
L 828.950323 145.222792 
L 829.479429 150.447533 
L 830.008534 150.983404 
L 830.537639 150.447533 
L 831.066744 152.055145 
L 831.595849 140.132019 
L 832.124955 136.916794 
L 832.65406 146.026598 
L 833.183165 142.945341 
L 833.71227 142.543438 
L 834.241375 136.246955 
L 834.770481 125.39557 
L 835.299586 120.304797 
L 835.828691 109.721348 
L 836.357796 105.970252 
L 836.886901 103.692801 
L 837.416007 89.09032 
L 837.945112 79.176709 
L 838.474217 74.085936 
L 839.003322 74.889742 
L 839.532427 63.100583 
L 840.061533 57.206004 
L 840.590638 48.364134 
L 841.119743 44.211135 
L 841.648848 42.603523 
L 842.177953 44.077168 
L 842.707059 48.498102 
L 843.236164 47.828264 
L 843.765269 46.220651 
L 844.294374 52.651101 
L 844.823479 60.689164 
L 845.352585 59.081552 
L 845.88169 60.287261 
L 846.410795 62.564712 
L 847.469005 84.535417 
L 847.998111 86.14303 
L 848.527216 97.26235 
L 848.527216 97.26235 
" clip-path="url(#pfbc0208276)" style="fill: none; stroke: #2ca02c; stroke-opacity: 0.9; stroke-width: 1.8; stroke-linecap: square"/>
   </g>
   <g id="patch_3">
    <path d="M 71.298125 193.11625 
L 71.298125 35.43625 
" style="fill: none; stroke: #000000; stroke-width: 0.8; stroke-linejoin: miter; stroke-linecap: square"/>
   </g>
   <g id="patch_4">
    <path d="M 885.538125 193.11625 
L 885.538125 35.43625 
" style="fill: none; stroke: #000000; stroke-width: 0.8; stroke-linejoin: miter; stroke-linecap: square"/>
   </g>
   <g id="patch_5">
    <path d="M 71.298125 193.11625 
L 885.538125 193.11625 
" style="fill: none; stroke: #000000; stroke-width: 0.8; stroke-linejoin: miter; stroke-linecap: square"/>
   </g>
   <g id="patch_6">
    <path d="M 71.298125 35.43625 
L 885.538125 35.43625 
" style="fill: none; stroke: #000000; stroke-width: 0.8; stroke-linejoin: miter; stroke-linecap: square"/>
   </g>
   <g id="text_14">
    <!-- Sensor Location 12933 -->
    <g transform="translate(340.725625 25.43625) scale(0.24 -0.24)">
     <defs>
      <path id="DejaVuSans-6e" d="M 3513 2113 
L 3513 0 
L 2938 0 
L 2938 2094 
Q 2938 2591 2744 2837 
Q 2550 3084 2163 3084 
Q 1697 3084 1428 2787 
Q 1159 2491 1159 1978 
L 1159 0 
L 581 0 
L 581 3500 
L 1159 3500 
L 1159 2956 
Q 1366 3272 1645 3428 
Q 1925 3584 2291 3584 
Q 2894 3584 3203 3211 
Q 3513 2838 3513 2113 
z
" transform="scale(0.015625)"/>
      <path id="DejaVuSans-73" d="M 2834 3397 
L 2834 2853 
Q 2591 2978 2328 3040 
Q 2066 3103 1784 3103 
Q 1356 3103 1142 2972 
Q 928 2841 928 2578 
Q 928 2378 1081 2264 
Q 1234 2150 1697 2047 
L 1894 2003 
Q 2506 1872 2764 1633 
Q 3022 1394 3022 966 
Q 3022 478 2636 193 
Q 2250 -91 1575 -91 
Q 1294 -91 989 -36 
Q 684 19 347 128 
L 347 722 
Q 666 556 975 473 
Q 1284 391 1588 391 
Q 1994 391 2212 530 
Q 2431 669 2431 922 
Q 2431 1156 2273 1281 
Q 2116 1406 1581 1522 
L 1381 1569 
Q 847 1681 609 1914 
Q 372 2147 372 2553 
Q 372 3047 722 3315 
Q 1072 3584 1716 3584 
Q 2034 3584 2315 3537 
Q 2597 3491 2834 3397 
z
" transform="scale(0.015625)"/>
      <path id="DejaVuSans-4c" d="M 628 4666 
L 1259 4666 
L 1259 531 
L 3531 531 
L 3531 0 
L 628 0 
L 628 4666 
z
" transform="scale(0.015625)"/>
      <path id="DejaVuSans-63" d="M 3122 3366 
L 3122 2828 
Q 2878 2963 2633 3030 
Q 2388 3097 2138 3097 
Q 1578 3097 1268 2742 
Q 959 2388 959 1747 
Q 959 1106 1268 751 
Q 1578 397 2138 397 
Q 2388 397 2633 464 
Q 2878 531 3122 666 
L 3122 134 
Q 2881 22 2623 -34 
Q 2366 -91 2075 -91 
Q 1284 -91 818 406 
Q 353 903 353 1747 
Q 353 2603 823 3093 
Q 1294 3584 2113 3584 
Q 2378 3584 2631 3529 
Q 2884 3475 3122 3366 
z
" transform="scale(0.015625)"/>
      <path id="DejaVuSans-74" d="M 1172 4494 
L 1172 3500 
L 2356 3500 
L 2356 3053 
L 1172 3053 
L 1172 1153 
Q 1172 725 1289 603 
Q 1406 481 1766 481 
L 2356 481 
L 2356 0 
L 1766 0 
Q 1100 0 847 248 
Q 594 497 594 1153 
L 594 3053 
L 172 3053 
L 172 3500 
L 594 3500 
L 594 4494 
L 1172 4494 
z
" transform="scale(0.015625)"/>
      <path id="DejaVuSans-39" d="M 703 97 
L 703 672 
Q 941 559 1184 500 
Q 1428 441 1663 441 
Q 2288 441 2617 861 
Q 2947 1281 2994 2138 
Q 2813 1869 2534 1725 
Q 2256 1581 1919 1581 
Q 1219 1581 811 2004 
Q 403 2428 403 3163 
Q 403 3881 828 4315 
Q 1253 4750 1959 4750 
Q 2769 4750 3195 4129 
Q 3622 3509 3622 2328 
Q 3622 1225 3098 567 
Q 2575 -91 1691 -91 
Q 1453 -91 1209 -44 
Q 966 3 703 97 
z
M 1959 2075 
Q 2384 2075 2632 2365 
Q 2881 2656 2881 3163 
Q 2881 3666 2632 3958 
Q 2384 4250 1959 4250 
Q 1534 4250 1286 3958 
Q 1038 3666 1038 3163 
Q 1038 2656 1286 2365 
Q 1534 2075 1959 2075 
z
" transform="scale(0.015625)"/>
      <path id="DejaVuSans-33" d="M 2597 2516 
Q 3050 2419 3304 2112 
Q 3559 1806 3559 1356 
Q 3559 666 3084 287 
Q 2609 -91 1734 -91 
Q 1441 -91 1130 -33 
Q 819 25 488 141 
L 488 750 
Q 750 597 1062 519 
Q 1375 441 1716 441 
Q 2309 441 2620 675 
Q 2931 909 2931 1356 
Q 2931 1769 2642 2001 
Q 2353 2234 1838 2234 
L 1294 2234 
L 1294 2753 
L 1863 2753 
Q 2328 2753 2575 2939 
Q 2822 3125 2822 3475 
Q 2822 3834 2567 4026 
Q 2313 4219 1838 4219 
Q 1578 4219 1281 4162 
Q 984 4106 628 3988 
L 628 4550 
Q 988 4650 1302 4700 
Q 1616 4750 1894 4750 
Q 2613 4750 3031 4423 
Q 3450 4097 3450 3541 
Q 3450 3153 3228 2886 
Q 3006 2619 2597 2516 
z
" transform="scale(0.015625)"/>
     </defs>
     <use xlink:href="#DejaVuSans-53"/>
     <use xlink:href="#DejaVuSans-65" transform="translate(63.476562 0)"/>
     <use xlink:href="#DejaVuSans-6e" transform="translate(125 0)"/>
     <use xlink:href="#DejaVuSans-73" transform="translate(188.378906 0)"/>
     <use xlink:href="#DejaVuSans-6f" transform="translate(240.478516 0)"/>
     <use xlink:href="#DejaVuSans-72" transform="translate(301.660156 0)"/>
     <use xlink:href="#DejaVuSans-20" transform="translate(342.773438 0)"/>
     <use xlink:href="#DejaVuSans-4c" transform="translate(374.560547 0)"/>
     <use xlink:href="#DejaVuSans-6f" transform="translate(428.523438 0)"/>
     <use xlink:href="#DejaVuSans-63" transform="translate(489.705078 0)"/>
     <use xlink:href="#DejaVuSans-61" transform="translate(544.685547 0)"/>
     <use xlink:href="#DejaVuSans-74" transform="translate(605.964844 0)"/>
     <use xlink:href="#DejaVuSans-69" transform="translate(645.173828 0)"/>
     <use xlink:href="#DejaVuSans-6f" transform="translate(672.957031 0)"/>
     <use xlink:href="#DejaVuSans-6e" transform="translate(734.138672 0)"/>
     <use xlink:href="#DejaVuSans-20" transform="translate(797.517578 0)"/>
     <use xlink:href="#DejaVuSans-31" transform="translate(829.304688 0)"/>
     <use xlink:href="#DejaVuSans-32" transform="translate(892.927734 0)"/>
     <use xlink:href="#DejaVuSans-39" transform="translate(956.550781 0)"/>
     <use xlink:href="#DejaVuSans-33" transform="translate(1020.173828 0)"/>
     <use xlink:href="#DejaVuSans-33" transform="translate(1083.796875 0)"/>
    </g>
   </g>
  </g>
 </g>
 <defs>
  <clipPath id="pfbc0208276">
   <rect x="71.298125" y="35.43625" width="814.24" height="157.68"/>
  </clipPath>
 </defs>
</svg>
