<?xml version="1.0" encoding="utf-8" standalone="no"?>
<!DOCTYPE svg PUBLIC "-//W3C//DTD SVG 1.1//EN"
  "http://www.w3.org/Graphics/SVG/1.1/DTD/svg11.dtd">
<svg xmlns:xlink="http://www.w3.org/1999/xlink" width="892.738125pt" height="251.964375pt" viewBox="0 0 892.738125 251.964375" xmlns="http://www.w3.org/2000/svg" version="1.1">
 <metadata>
  <rdf:RDF xmlns:dc="http://purl.org/dc/elements/1.1/" xmlns:cc="http://creativecommons.org/ns#" xmlns:rdf="http://www.w3.org/1999/02/22-rdf-syntax-ns#">
   <cc:Work>
    <dc:type rdf:resource="http://purl.org/dc/dcmitype/StillImage"/>
    <dc:date>2026-02-24T16:51:50.254167</dc:date>
    <dc:format>image/svg+xml</dc:format>
    <dc:creator>
     <cc:Agent>
      <dc:title>Matplotlib v3.10.6, https://matplotlib.org/</dc:title>
     </cc:Agent>
    </dc:creator>
   </cc:Work>
  </rdf:RDF>
 </metadata>
 <defs>
  <style type="text/css">*{stroke-linejoin: round; stroke-linecap: butt}</style>
 </defs>
 <g id="figure_1">
  <g id="patch_1">
   <path d="M -0 251.964375 
L 892.738125 251.964375 
L 892.738125 0 
L -0 0 
z
" style="fill: #ffffff"/>
  </g>
  <g id="axes_1">
   <g id="patch_2">
    <path d="M 71.298125 193.11625 
L 885.538125 193.11625 
L 885.538125 35.43625 
L 71.298125 35.43625 
z
" style="fill: #ffffff"/>
   </g>
   <g id="matplotlib.axis_1">
    <g id="xtick_1">
     <g id="line2d_1">
      <path d="M 108.309034 193.11625 
L 108.309034 35.43625 
" clip-path="url(#pf001d02a6c)" style="fill: none; stroke-dasharray: 2.96,1.28; stroke-dashoffset: 0; stroke: #b0b0b0; stroke-opacity: 0.3; stroke-width: 0.8"/>
     </g>
     <g id="line2d_2">
      <defs>
       <path id="m68f3e7d44d" d="M 0 0 
L 0 3.5 
" style="stroke: #000000; stroke-width: 0.8"/>
      </defs>
      <g>
       <use xlink:href="#m68f3e7d44d" x="108.309034" y="193.11625" style="stroke: #000000; stroke-width: 0.8"/>
      </g>
     </g>
     <g id="text_1">
      <!-- 0 -->
      <g transform="translate(101.946534 215.313125) scale(0.2 -0.2)">
       <defs>
        <path id="DejaVuSans-30" d="M 2034 4250 
Q 1547 4250 1301 3770 
Q 1056 3291 1056 2328 
Q 1056 1369 1301 889 
Q 1547 409 2034 409 
Q 2525 409 2770 889 
Q 3016 1369 3016 2328 
Q 3016 3291 2770 3770 
Q 2525 4250 2034 4250 
z
M 2034 4750 
Q 2819 4750 3233 4129 
Q 3647 3509 3647 2328 
Q 3647 1150 3233 529 
Q 2819 -91 2034 -91 
Q 1250 -91 836 529 
Q 422 1150 422 2328 
Q 422 3509 836 4129 
Q 1250 4750 2034 4750 
z
" transform="scale(0.015625)"/>
       </defs>
       <use xlink:href="#DejaVuSans-30"/>
      </g>
     </g>
    </g>
    <g id="xtick_2">
     <g id="line2d_3">
      <path d="M 214.130075 193.11625 
L 214.130075 35.43625 
" clip-path="url(#pf001d02a6c)" style="fill: none; stroke-dasharray: 2.96,1.28; stroke-dashoffset: 0; stroke: #b0b0b0; stroke-opacity: 0.3; stroke-width: 0.8"/>
     </g>
     <g id="line2d_4">
      <g>
       <use xlink:href="#m68f3e7d44d" x="214.130075" y="193.11625" style="stroke: #000000; stroke-width: 0.8"/>
      </g>
     </g>
     <g id="text_2">
      <!-- 200 -->
      <g transform="translate(195.042575 215.313125) scale(0.2 -0.2)">
       <defs>
        <path id="DejaVuSans-32" d="M 1228 531 
L 3431 531 
L 3431 0 
L 469 0 
L 469 531 
Q 828 903 1448 1529 
Q 2069 2156 2228 2338 
Q 2531 2678 2651 2914 
Q 2772 3150 2772 3378 
Q 2772 3750 2511 3984 
Q 2250 4219 1831 4219 
Q 1534 4219 1204 4116 
Q 875 4013 500 3803 
L 500 4441 
Q 881 4594 1212 4672 
Q 1544 4750 1819 4750 
Q 2544 4750 2975 4387 
Q 3406 4025 3406 3419 
Q 3406 3131 3298 2873 
Q 3191 2616 2906 2266 
Q 2828 2175 2409 1742 
Q 1991 1309 1228 531 
z
" transform="scale(0.015625)"/>
       </defs>
       <use xlink:href="#DejaVuSans-32"/>
       <use xlink:href="#DejaVuSans-30" transform="translate(63.623047 0)"/>
       <use xlink:href="#DejaVuSans-30" transform="translate(127.246094 0)"/>
      </g>
     </g>
    </g>
    <g id="xtick_3">
     <g id="line2d_5">
      <path d="M 319.951116 193.11625 
L 319.951116 35.43625 
" clip-path="url(#pf001d02a6c)" style="fill: none; stroke-dasharray: 2.96,1.28; stroke-dashoffset: 0; stroke: #b0b0b0; stroke-opacity: 0.3; stroke-width: 0.8"/>
     </g>
     <g id="line2d_6">
      <g>
       <use xlink:href="#m68f3e7d44d" x="319.951116" y="193.11625" style="stroke: #000000; stroke-width: 0.8"/>
      </g>
     </g>
     <g id="text_3">
      <!-- 400 -->
      <g transform="translate(300.863616 215.313125) scale(0.2 -0.2)">
       <defs>
        <path id="DejaVuSans-34" d="M 2419 4116 
L 825 1625 
L 2419 1625 
L 2419 4116 
z
M 2253 4666 
L 3047 4666 
L 3047 1625 
L 3713 1625 
L 3713 1100 
L 3047 1100 
L 3047 0 
L 2419 0 
L 2419 1100 
L 313 1100 
L 313 1709 
L 2253 4666 
z
" transform="scale(0.015625)"/>
       </defs>
       <use xlink:href="#DejaVuSans-34"/>
       <use xlink:href="#DejaVuSans-30" transform="translate(63.623047 0)"/>
       <use xlink:href="#DejaVuSans-30" transform="translate(127.246094 0)"/>
      </g>
     </g>
    </g>
    <g id="xtick_4">
     <g id="line2d_7">
      <path d="M 425.772157 193.11625 
L 425.772157 35.43625 
" clip-path="url(#pf001d02a6c)" style="fill: none; stroke-dasharray: 2.96,1.28; stroke-dashoffset: 0; stroke: #b0b0b0; stroke-opacity: 0.3; stroke-width: 0.8"/>
     </g>
     <g id="line2d_8">
      <g>
       <use xlink:href="#m68f3e7d44d" x="425.772157" y="193.11625" style="stroke: #000000; stroke-width: 0.8"/>
      </g>
     </g>
     <g id="text_4">
      <!-- 600 -->
      <g transform="translate(406.684657 215.313125) scale(0.2 -0.2)">
       <defs>
        <path id="DejaVuSans-36" d="M 2113 2584 
Q 1688 2584 1439 2293 
Q 1191 2003 1191 1497 
Q 1191 994 1439 701 
Q 1688 409 2113 409 
Q 2538 409 2786 701 
Q 3034 994 3034 1497 
Q 3034 2003 2786 2293 
Q 2538 2584 2113 2584 
z
M 3366 4563 
L 3366 3988 
Q 3128 4100 2886 4159 
Q 2644 4219 2406 4219 
Q 1781 4219 1451 3797 
Q 1122 3375 1075 2522 
Q 1259 2794 1537 2939 
Q 1816 3084 2150 3084 
Q 2853 3084 3261 2657 
Q 3669 2231 3669 1497 
Q 3669 778 3244 343 
Q 2819 -91 2113 -91 
Q 1303 -91 875 529 
Q 447 1150 447 2328 
Q 447 3434 972 4092 
Q 1497 4750 2381 4750 
Q 2619 4750 2861 4703 
Q 3103 4656 3366 4563 
z
" transform="scale(0.015625)"/>
       </defs>
       <use xlink:href="#DejaVuSans-36"/>
       <use xlink:href="#DejaVuSans-30" transform="translate(63.623047 0)"/>
       <use xlink:href="#DejaVuSans-30" transform="translate(127.246094 0)"/>
      </g>
     </g>
    </g>
    <g id="xtick_5">
     <g id="line2d_9">
      <path d="M 531.593198 193.11625 
L 531.593198 35.43625 
" clip-path="url(#pf001d02a6c)" style="fill: none; stroke-dasharray: 2.96,1.28; stroke-dashoffset: 0; stroke: #b0b0b0; stroke-opacity: 0.3; stroke-width: 0.8"/>
     </g>
     <g id="line2d_10">
      <g>
       <use xlink:href="#m68f3e7d44d" x="531.593198" y="193.11625" style="stroke: #000000; stroke-width: 0.8"/>
      </g>
     </g>
     <g id="text_5">
      <!-- 800 -->
      <g transform="translate(512.505698 215.313125) scale(0.2 -0.2)">
       <defs>
        <path id="DejaVuSans-38" d="M 2034 2216 
Q 1584 2216 1326 1975 
Q 1069 1734 1069 1313 
Q 1069 891 1326 650 
Q 1584 409 2034 409 
Q 2484 409 2743 651 
Q 3003 894 3003 1313 
Q 3003 1734 2745 1975 
Q 2488 2216 2034 2216 
z
M 1403 2484 
Q 997 2584 770 2862 
Q 544 3141 544 3541 
Q 544 4100 942 4425 
Q 1341 4750 2034 4750 
Q 2731 4750 3128 4425 
Q 3525 4100 3525 3541 
Q 3525 3141 3298 2862 
Q 3072 2584 2669 2484 
Q 3125 2378 3379 2068 
Q 3634 1759 3634 1313 
Q 3634 634 3220 271 
Q 2806 -91 2034 -91 
Q 1263 -91 848 271 
Q 434 634 434 1313 
Q 434 1759 690 2068 
Q 947 2378 1403 2484 
z
M 1172 3481 
Q 1172 3119 1398 2916 
Q 1625 2713 2034 2713 
Q 2441 2713 2670 2916 
Q 2900 3119 2900 3481 
Q 2900 3844 2670 4047 
Q 2441 4250 2034 4250 
Q 1625 4250 1398 4047 
Q 1172 3844 1172 3481 
z
" transform="scale(0.015625)"/>
       </defs>
       <use xlink:href="#DejaVuSans-38"/>
       <use xlink:href="#DejaVuSans-30" transform="translate(63.623047 0)"/>
       <use xlink:href="#DejaVuSans-30" transform="translate(127.246094 0)"/>
      </g>
     </g>
    </g>
    <g id="xtick_6">
     <g id="line2d_11">
      <path d="M 637.414239 193.11625 
L 637.414239 35.43625 
" clip-path="url(#pf001d02a6c)" style="fill: none; stroke-dasharray: 2.96,1.28; stroke-dashoffset: 0; stroke: #b0b0b0; stroke-opacity: 0.3; stroke-width: 0.8"/>
     </g>
     <g id="line2d_12">
      <g>
       <use xlink:href="#m68f3e7d44d" x="637.414239" y="193.11625" style="stroke: #000000; stroke-width: 0.8"/>
      </g>
     </g>
     <g id="text_6">
      <!-- 1000 -->
      <g transform="translate(611.964239 215.313125) scale(0.2 -0.2)">
       <defs>
        <path id="DejaVuSans-31" d="M 794 531 
L 1825 531 
L 1825 4091 
L 703 3866 
L 703 4441 
L 1819 4666 
L 2450 4666 
L 2450 531 
L 3481 531 
L 3481 0 
L 794 0 
L 794 531 
z
" transform="scale(0.015625)"/>
       </defs>
       <use xlink:href="#DejaVuSans-31"/>
       <use xlink:href="#DejaVuSans-30" transform="translate(63.623047 0)"/>
       <use xlink:href="#DejaVuSans-30" transform="translate(127.246094 0)"/>
       <use xlink:href="#DejaVuSans-30" transform="translate(190.869141 0)"/>
      </g>
     </g>
    </g>
    <g id="xtick_7">
     <g id="line2d_13">
      <path d="M 743.23528 193.11625 
L 743.23528 35.43625 
" clip-path="url(#pf001d02a6c)" style="fill: none; stroke-dasharray: 2.96,1.28; stroke-dashoffset: 0; stroke: #b0b0b0; stroke-opacity: 0.3; stroke-width: 0.8"/>
     </g>
     <g id="line2d_14">
      <g>
       <use xlink:href="#m68f3e7d44d" x="743.23528" y="193.11625" style="stroke: #000000; stroke-width: 0.8"/>
      </g>
     </g>
     <g id="text_7">
      <!-- 1200 -->
      <g transform="translate(717.78528 215.313125) scale(0.2 -0.2)">
       <use xlink:href="#DejaVuSans-31"/>
       <use xlink:href="#DejaVuSans-32" transform="translate(63.623047 0)"/>
       <use xlink:href="#DejaVuSans-30" transform="translate(127.246094 0)"/>
       <use xlink:href="#DejaVuSans-30" transform="translate(190.869141 0)"/>
      </g>
     </g>
    </g>
    <g id="xtick_8">
     <g id="line2d_15">
      <path d="M 849.056321 193.11625 
L 849.056321 35.43625 
" clip-path="url(#pf001d02a6c)" style="fill: none; stroke-dasharray: 2.96,1.28; stroke-dashoffset: 0; stroke: #b0b0b0; stroke-opacity: 0.3; stroke-width: 0.8"/>
     </g>
     <g id="line2d_16">
      <g>
       <use xlink:href="#m68f3e7d44d" x="849.056321" y="193.11625" style="stroke: #000000; stroke-width: 0.8"/>
      </g>
     </g>
     <g id="text_8">
      <!-- 1400 -->
      <g transform="translate(823.606321 215.313125) scale(0.2 -0.2)">
       <use xlink:href="#DejaVuSans-31"/>
       <use xlink:href="#DejaVuSans-34" transform="translate(63.623047 0)"/>
       <use xlink:href="#DejaVuSans-30" transform="translate(127.246094 0)"/>
       <use xlink:href="#DejaVuSans-30" transform="translate(190.869141 0)"/>
      </g>
     </g>
    </g>
    <g id="text_9">
     <!-- Time Index -->
     <g transform="translate(410.037656 240.189062) scale(0.22 -0.22)">
      <defs>
       <path id="DejaVuSans-Bold-54" d="M 31 4666 
L 4331 4666 
L 4331 3756 
L 2784 3756 
L 2784 0 
L 1581 0 
L 1581 3756 
L 31 3756 
L 31 4666 
z
" transform="scale(0.015625)"/>
       <path id="DejaVuSans-Bold-69" d="M 538 3500 
L 1656 3500 
L 1656 0 
L 538 0 
L 538 3500 
z
M 538 4863 
L 1656 4863 
L 1656 3950 
L 538 3950 
L 538 4863 
z
" transform="scale(0.015625)"/>
       <path id="DejaVuSans-Bold-6d" d="M 3781 2919 
Q 3994 3244 4286 3414 
Q 4578 3584 4928 3584 
Q 5531 3584 5847 3212 
Q 6163 2841 6163 2131 
L 6163 0 
L 5038 0 
L 5038 1825 
Q 5041 1866 5042 1909 
Q 5044 1953 5044 2034 
Q 5044 2406 4934 2573 
Q 4825 2741 4581 2741 
Q 4263 2741 4089 2478 
Q 3916 2216 3909 1719 
L 3909 0 
L 2784 0 
L 2784 1825 
Q 2784 2406 2684 2573 
Q 2584 2741 2328 2741 
Q 2006 2741 1831 2477 
Q 1656 2213 1656 1722 
L 1656 0 
L 531 0 
L 531 3500 
L 1656 3500 
L 1656 2988 
Q 1863 3284 2130 3434 
Q 2397 3584 2719 3584 
Q 3081 3584 3359 3409 
Q 3638 3234 3781 2919 
z
" transform="scale(0.015625)"/>
       <path id="DejaVuSans-Bold-65" d="M 4031 1759 
L 4031 1441 
L 1416 1441 
Q 1456 1047 1700 850 
Q 1944 653 2381 653 
Q 2734 653 3104 758 
Q 3475 863 3866 1075 
L 3866 213 
Q 3469 63 3072 -14 
Q 2675 -91 2278 -91 
Q 1328 -91 801 392 
Q 275 875 275 1747 
Q 275 2603 792 3093 
Q 1309 3584 2216 3584 
Q 3041 3584 3536 3087 
Q 4031 2591 4031 1759 
z
M 2881 2131 
Q 2881 2450 2695 2645 
Q 2509 2841 2209 2841 
Q 1884 2841 1681 2658 
Q 1478 2475 1428 2131 
L 2881 2131 
z
" transform="scale(0.015625)"/>
       <path id="DejaVuSans-Bold-20" transform="scale(0.015625)"/>
       <path id="DejaVuSans-Bold-49" d="M 588 4666 
L 1791 4666 
L 1791 0 
L 588 0 
L 588 4666 
z
" transform="scale(0.015625)"/>
       <path id="DejaVuSans-Bold-6e" d="M 4056 2131 
L 4056 0 
L 2931 0 
L 2931 347 
L 2931 1631 
Q 2931 2084 2911 2256 
Q 2891 2428 2841 2509 
Q 2775 2619 2662 2680 
Q 2550 2741 2406 2741 
Q 2056 2741 1856 2470 
Q 1656 2200 1656 1722 
L 1656 0 
L 538 0 
L 538 3500 
L 1656 3500 
L 1656 2988 
Q 1909 3294 2193 3439 
Q 2478 3584 2822 3584 
Q 3428 3584 3742 3212 
Q 4056 2841 4056 2131 
z
" transform="scale(0.015625)"/>
       <path id="DejaVuSans-Bold-64" d="M 2919 2988 
L 2919 4863 
L 4044 4863 
L 4044 0 
L 2919 0 
L 2919 506 
Q 2688 197 2409 53 
Q 2131 -91 1766 -91 
Q 1119 -91 703 423 
Q 288 938 288 1747 
Q 288 2556 703 3070 
Q 1119 3584 1766 3584 
Q 2128 3584 2408 3439 
Q 2688 3294 2919 2988 
z
M 2181 722 
Q 2541 722 2730 984 
Q 2919 1247 2919 1747 
Q 2919 2247 2730 2509 
Q 2541 2772 2181 2772 
Q 1825 2772 1636 2509 
Q 1447 2247 1447 1747 
Q 1447 1247 1636 984 
Q 1825 722 2181 722 
z
" transform="scale(0.015625)"/>
       <path id="DejaVuSans-Bold-78" d="M 1422 1791 
L 159 3500 
L 1344 3500 
L 2059 2463 
L 2784 3500 
L 3969 3500 
L 2706 1797 
L 4031 0 
L 2847 0 
L 2059 1106 
L 1281 0 
L 97 0 
L 1422 1791 
z
" transform="scale(0.015625)"/>
      </defs>
      <use xlink:href="#DejaVuSans-Bold-54"/>
      <use xlink:href="#DejaVuSans-Bold-69" transform="translate(68.212891 0)"/>
      <use xlink:href="#DejaVuSans-Bold-6d" transform="translate(102.490234 0)"/>
      <use xlink:href="#DejaVuSans-Bold-65" transform="translate(206.689453 0)"/>
      <use xlink:href="#DejaVuSans-Bold-20" transform="translate(274.511719 0)"/>
      <use xlink:href="#DejaVuSans-Bold-49" transform="translate(309.326172 0)"/>
      <use xlink:href="#DejaVuSans-Bold-6e" transform="translate(346.533203 0)"/>
      <use xlink:href="#DejaVuSans-Bold-64" transform="translate(417.724609 0)"/>
      <use xlink:href="#DejaVuSans-Bold-65" transform="translate(489.306641 0)"/>
      <use xlink:href="#DejaVuSans-Bold-78" transform="translate(557.128906 0)"/>
     </g>
    </g>
   </g>
   <g id="matplotlib.axis_2">
    <g id="ytick_1">
     <g id="line2d_17">
      <path d="M 71.298125 185.948977 
L 885.538125 185.948977 
" clip-path="url(#pf001d02a6c)" style="fill: none; stroke-dasharray: 2.96,1.28; stroke-dashoffset: 0; stroke: #b0b0b0; stroke-opacity: 0.3; stroke-width: 0.8"/>
     </g>
     <g id="line2d_18">
      <defs>
       <path id="m2bdf93ef9c" d="M 0 0 
L -3.5 0 
" style="stroke: #000000; stroke-width: 0.8"/>
      </defs>
      <g>
       <use xlink:href="#m2bdf93ef9c" x="71.298125" y="185.948977" style="stroke: #000000; stroke-width: 0.8"/>
      </g>
     </g>
     <g id="text_10">
      <!-- 0.0 -->
      <g transform="translate(32.491875 193.547415) scale(0.2 -0.2)">
       <defs>
        <path id="DejaVuSans-2e" d="M 684 794 
L 1344 794 
L 1344 0 
L 684 0 
L 684 794 
z
" transform="scale(0.015625)"/>
       </defs>
       <use xlink:href="#DejaVuSans-30"/>
       <use xlink:href="#DejaVuSans-2e" transform="translate(63.623047 0)"/>
       <use xlink:href="#DejaVuSans-30" transform="translate(95.410156 0)"/>
      </g>
     </g>
    </g>
    <g id="ytick_2">
     <g id="line2d_19">
      <path d="M 71.298125 114.27625 
L 885.538125 114.27625 
" clip-path="url(#pf001d02a6c)" style="fill: none; stroke-dasharray: 2.96,1.28; stroke-dashoffset: 0; stroke: #b0b0b0; stroke-opacity: 0.3; stroke-width: 0.8"/>
     </g>
     <g id="line2d_20">
      <g>
       <use xlink:href="#m2bdf93ef9c" x="71.298125" y="114.27625" style="stroke: #000000; stroke-width: 0.8"/>
      </g>
     </g>
     <g id="text_11">
      <!-- 0.5 -->
      <g transform="translate(32.491875 121.874687) scale(0.2 -0.2)">
       <defs>
        <path id="DejaVuSans-35" d="M 691 4666 
L 3169 4666 
L 3169 4134 
L 1269 4134 
L 1269 2991 
Q 1406 3038 1543 3061 
Q 1681 3084 1819 3084 
Q 2600 3084 3056 2656 
Q 3513 2228 3513 1497 
Q 3513 744 3044 326 
Q 2575 -91 1722 -91 
Q 1428 -91 1123 -41 
Q 819 9 494 109 
L 494 744 
Q 775 591 1075 516 
Q 1375 441 1709 441 
Q 2250 441 2565 725 
Q 2881 1009 2881 1497 
Q 2881 1984 2565 2268 
Q 2250 2553 1709 2553 
Q 1456 2553 1204 2497 
Q 953 2441 691 2322 
L 691 4666 
z
" transform="scale(0.015625)"/>
       </defs>
       <use xlink:href="#DejaVuSans-30"/>
       <use xlink:href="#DejaVuSans-2e" transform="translate(63.623047 0)"/>
       <use xlink:href="#DejaVuSans-35" transform="translate(95.410156 0)"/>
      </g>
     </g>
    </g>
    <g id="ytick_3">
     <g id="line2d_21">
      <path d="M 71.298125 42.603523 
L 885.538125 42.603523 
" clip-path="url(#pf001d02a6c)" style="fill: none; stroke-dasharray: 2.96,1.28; stroke-dashoffset: 0; stroke: #b0b0b0; stroke-opacity: 0.3; stroke-width: 0.8"/>
     </g>
     <g id="line2d_22">
      <g>
       <use xlink:href="#m2bdf93ef9c" x="71.298125" y="42.603523" style="stroke: #000000; stroke-width: 0.8"/>
      </g>
     </g>
     <g id="text_12">
      <!-- 1.0 -->
      <g transform="translate(32.491875 50.20196) scale(0.2 -0.2)">
       <use xlink:href="#DejaVuSans-31"/>
       <use xlink:href="#DejaVuSans-2e" transform="translate(63.623047 0)"/>
       <use xlink:href="#DejaVuSans-30" transform="translate(95.410156 0)"/>
      </g>
     </g>
    </g>
    <g id="text_13">
     <!-- Normalized SST -->
     <g transform="translate(23.916563 200.839375) rotate(-90) scale(0.22 -0.22)">
      <defs>
       <path id="DejaVuSans-4e" d="M 628 4666 
L 1478 4666 
L 3547 763 
L 3547 4666 
L 4159 4666 
L 4159 0 
L 3309 0 
L 1241 3903 
L 1241 0 
L 628 0 
L 628 4666 
z
" transform="scale(0.015625)"/>
       <path id="DejaVuSans-6f" d="M 1959 3097 
Q 1497 3097 1228 2736 
Q 959 2375 959 1747 
Q 959 1119 1226 758 
Q 1494 397 1959 397 
Q 2419 397 2687 759 
Q 2956 1122 2956 1747 
Q 2956 2369 2687 2733 
Q 2419 3097 1959 3097 
z
M 1959 3584 
Q 2709 3584 3137 3096 
Q 3566 2609 3566 1747 
Q 3566 888 3137 398 
Q 2709 -91 1959 -91 
Q 1206 -91 779 398 
Q 353 888 353 1747 
Q 353 2609 779 3096 
Q 1206 3584 1959 3584 
z
" transform="scale(0.015625)"/>
       <path id="DejaVuSans-72" d="M 2631 2963 
Q 2534 3019 2420 3045 
Q 2306 3072 2169 3072 
Q 1681 3072 1420 2755 
Q 1159 2438 1159 1844 
L 1159 0 
L 581 0 
L 581 3500 
L 1159 3500 
L 1159 2956 
Q 1341 3275 1631 3429 
Q 1922 3584 2338 3584 
Q 2397 3584 2469 3576 
Q 2541 3569 2628 3553 
L 2631 2963 
z
" transform="scale(0.015625)"/>
       <path id="DejaVuSans-6d" d="M 3328 2828 
Q 3544 3216 3844 3400 
Q 4144 3584 4550 3584 
Q 5097 3584 5394 3201 
Q 5691 2819 5691 2113 
L 5691 0 
L 5113 0 
L 5113 2094 
Q 5113 2597 4934 2840 
Q 4756 3084 4391 3084 
Q 3944 3084 3684 2787 
Q 3425 2491 3425 1978 
L 3425 0 
L 2847 0 
L 2847 2094 
Q 2847 2600 2669 2842 
Q 2491 3084 2119 3084 
Q 1678 3084 1418 2786 
Q 1159 2488 1159 1978 
L 1159 0 
L 581 0 
L 581 3500 
L 1159 3500 
L 1159 2956 
Q 1356 3278 1631 3431 
Q 1906 3584 2284 3584 
Q 2666 3584 2933 3390 
Q 3200 3197 3328 2828 
z
" transform="scale(0.015625)"/>
       <path id="DejaVuSans-61" d="M 2194 1759 
Q 1497 1759 1228 1600 
Q 959 1441 959 1056 
Q 959 750 1161 570 
Q 1363 391 1709 391 
Q 2188 391 2477 730 
Q 2766 1069 2766 1631 
L 2766 1759 
L 2194 1759 
z
M 3341 1997 
L 3341 0 
L 2766 0 
L 2766 531 
Q 2569 213 2275 61 
Q 1981 -91 1556 -91 
Q 1019 -91 701 211 
Q 384 513 384 1019 
Q 384 1609 779 1909 
Q 1175 2209 1959 2209 
L 2766 2209 
L 2766 2266 
Q 2766 2663 2505 2880 
Q 2244 3097 1772 3097 
Q 1472 3097 1187 3025 
Q 903 2953 641 2809 
L 641 3341 
Q 956 3463 1253 3523 
Q 1550 3584 1831 3584 
Q 2591 3584 2966 3190 
Q 3341 2797 3341 1997 
z
" transform="scale(0.015625)"/>
       <path id="DejaVuSans-6c" d="M 603 4863 
L 1178 4863 
L 1178 0 
L 603 0 
L 603 4863 
z
" transform="scale(0.015625)"/>
       <path id="DejaVuSans-69" d="M 603 3500 
L 1178 3500 
L 1178 0 
L 603 0 
L 603 3500 
z
M 603 4863 
L 1178 4863 
L 1178 4134 
L 603 4134 
L 603 4863 
z
" transform="scale(0.015625)"/>
       <path id="DejaVuSans-7a" d="M 353 3500 
L 3084 3500 
L 3084 2975 
L 922 459 
L 3084 459 
L 3084 0 
L 275 0 
L 275 525 
L 2438 3041 
L 353 3041 
L 353 3500 
z
" transform="scale(0.015625)"/>
       <path id="DejaVuSans-65" d="M 3597 1894 
L 3597 1613 
L 953 1613 
Q 991 1019 1311 708 
Q 1631 397 2203 397 
Q 2534 397 2845 478 
Q 3156 559 3463 722 
L 3463 178 
Q 3153 47 2828 -22 
Q 2503 -91 2169 -91 
Q 1331 -91 842 396 
Q 353 884 353 1716 
Q 353 2575 817 3079 
Q 1281 3584 2069 3584 
Q 2775 3584 3186 3129 
Q 3597 2675 3597 1894 
z
M 3022 2063 
Q 3016 2534 2758 2815 
Q 2500 3097 2075 3097 
Q 1594 3097 1305 2825 
Q 1016 2553 972 2059 
L 3022 2063 
z
" transform="scale(0.015625)"/>
       <path id="DejaVuSans-64" d="M 2906 2969 
L 2906 4863 
L 3481 4863 
L 3481 0 
L 2906 0 
L 2906 525 
Q 2725 213 2448 61 
Q 2172 -91 1784 -91 
Q 1150 -91 751 415 
Q 353 922 353 1747 
Q 353 2572 751 3078 
Q 1150 3584 1784 3584 
Q 2172 3584 2448 3432 
Q 2725 3281 2906 2969 
z
M 947 1747 
Q 947 1113 1208 752 
Q 1469 391 1925 391 
Q 2381 391 2643 752 
Q 2906 1113 2906 1747 
Q 2906 2381 2643 2742 
Q 2381 3103 1925 3103 
Q 1469 3103 1208 2742 
Q 947 2381 947 1747 
z
" transform="scale(0.015625)"/>
       <path id="DejaVuSans-20" transform="scale(0.015625)"/>
       <path id="DejaVuSans-53" d="M 3425 4513 
L 3425 3897 
Q 3066 4069 2747 4153 
Q 2428 4238 2131 4238 
Q 1616 4238 1336 4038 
Q 1056 3838 1056 3469 
Q 1056 3159 1242 3001 
Q 1428 2844 1947 2747 
L 2328 2669 
Q 3034 2534 3370 2195 
Q 3706 1856 3706 1288 
Q 3706 609 3251 259 
Q 2797 -91 1919 -91 
Q 1588 -91 1214 -16 
Q 841 59 441 206 
L 441 856 
Q 825 641 1194 531 
Q 1563 422 1919 422 
Q 2459 422 2753 634 
Q 3047 847 3047 1241 
Q 3047 1584 2836 1778 
Q 2625 1972 2144 2069 
L 1759 2144 
Q 1053 2284 737 2584 
Q 422 2884 422 3419 
Q 422 4038 858 4394 
Q 1294 4750 2059 4750 
Q 2388 4750 2728 4690 
Q 3069 4631 3425 4513 
z
" transform="scale(0.015625)"/>
       <path id="DejaVuSans-54" d="M -19 4666 
L 3928 4666 
L 3928 4134 
L 2272 4134 
L 2272 0 
L 1638 0 
L 1638 4134 
L -19 4134 
L -19 4666 
z
" transform="scale(0.015625)"/>
      </defs>
      <use xlink:href="#DejaVuSans-4e"/>
      <use xlink:href="#DejaVuSans-6f" transform="translate(74.804688 0)"/>
      <use xlink:href="#DejaVuSans-72" transform="translate(135.986328 0)"/>
      <use xlink:href="#DejaVuSans-6d" transform="translate(175.349609 0)"/>
      <use xlink:href="#DejaVuSans-61" transform="translate(272.761719 0)"/>
      <use xlink:href="#DejaVuSans-6c" transform="translate(334.041016 0)"/>
      <use xlink:href="#DejaVuSans-69" transform="translate(361.824219 0)"/>
      <use xlink:href="#DejaVuSans-7a" transform="translate(389.607422 0)"/>
      <use xlink:href="#DejaVuSans-65" transform="translate(442.097656 0)"/>
      <use xlink:href="#DejaVuSans-64" transform="translate(503.621094 0)"/>
      <use xlink:href="#DejaVuSans-20" transform="translate(567.097656 0)"/>
      <use xlink:href="#DejaVuSans-53" transform="translate(598.884766 0)"/>
      <use xlink:href="#DejaVuSans-53" transform="translate(662.361328 0)"/>
      <use xlink:href="#DejaVuSans-54" transform="translate(725.837891 0)"/>
     </g>
    </g>
   </g>
   <g id="line2d_23">
    <path d="M 108.309034 117.136621 
L 108.838139 112.560027 
L 109.367245 111.088979 
L 109.89635 99.320595 
L 110.425455 93.436403 
L 110.95456 95.7247 
L 111.483665 102.426141 
L 112.012771 84.773565 
L 112.541876 96.378499 
L 113.070981 95.397801 
L 113.600086 92.128805 
L 114.129191 94.580552 
L 114.658297 95.070901 
L 115.187402 89.023259 
L 115.716507 87.715661 
L 116.245612 99.974395 
L 116.774717 102.91649 
L 117.303823 102.589591 
L 117.832928 104.877888 
L 118.362033 116.482822 
L 118.891138 132.010551 
L 119.420243 128.578105 
L 119.949349 133.808498 
L 120.478454 142.961686 
L 121.007559 145.086533 
L 121.536664 140.673389 
L 122.065769 140.673389 
L 122.594875 157.835616 
L 123.12398 154.40317 
L 123.653085 152.932122 
L 124.18219 163.229458 
L 124.711295 168.786751 
L 125.240401 170.421248 
L 125.769506 170.421248 
L 126.298611 171.401947 
L 126.827716 167.642602 
L 127.356821 168.296401 
L 127.885927 161.59496 
L 128.415032 152.278323 
L 128.944137 161.431511 
L 129.473242 163.392908 
L 130.002347 146.557581 
L 130.531453 137.731293 
L 131.060558 140.346489 
L 131.589663 132.174001 
L 132.118768 130.866402 
L 132.647874 105.695137 
L 133.176979 98.339897 
L 133.706084 100.301294 
L 134.235189 96.705399 
L 134.764294 86.898412 
L 135.822505 71.697583 
L 136.35161 75.947277 
L 136.880715 65.159592 
L 137.40982 69.245836 
L 137.938926 66.140291 
L 138.468031 73.98588 
L 138.997136 62.217496 
L 139.526241 77.581775 
L 140.055346 75.130028 
L 140.584452 77.091426 
L 141.113557 73.65898 
L 141.642662 81.34112 
L 142.171767 72.678282 
L 142.700872 76.764526 
L 143.229978 88.69636 
L 143.759083 95.88815 
L 144.288188 105.858586 
L 145.346398 113.213826 
L 145.875504 115.011774 
L 146.404609 121.876665 
L 146.933714 122.530464 
L 147.462819 136.914044 
L 147.991924 140.01959 
L 148.52103 139.202341 
L 149.050135 165.354305 
L 149.57924 153.912821 
L 150.108345 161.431511 
L 150.63745 164.046707 
L 151.166556 163.066008 
L 151.695661 166.171554 
L 152.224766 170.257799 
L 152.753871 168.623301 
L 153.282977 168.9502 
L 153.812082 174.344043 
L 154.341187 172.055746 
L 154.870292 167.479152 
L 155.399397 157.835616 
L 155.928503 158.652864 
L 156.457608 157.181816 
L 156.986713 155.220419 
L 157.515818 167.479152 
L 158.044923 148.355529 
L 158.574029 160.287362 
L 159.632239 131.847101 
L 160.161344 123.020813 
L 160.690449 123.838062 
L 161.219555 132.991249 
L 161.74866 139.69269 
L 162.277765 133.808498 
L 162.80687 123.511162 
L 163.335975 123.184263 
L 163.865081 102.589591 
L 164.394186 74.639679 
L 164.923291 64.342343 
L 165.981501 81.50457 
L 166.510607 85.590814 
L 167.039712 96.868849 
L 167.568817 100.137844 
L 168.097922 95.7247 
L 168.627027 88.206011 
L 169.156133 90.003958 
L 169.685238 100.628194 
L 170.214343 86.571513 
L 170.743448 90.984657 
L 171.272553 85.917714 
L 171.801659 111.906228 
L 172.330764 108.964132 
L 172.859869 112.233128 
L 173.388974 118.11732 
L 173.91808 115.502123 
L 174.447185 134.298848 
L 174.97629 136.260245 
L 175.505395 143.615485 
L 176.0345 147.701729 
L 177.092711 158.652864 
L 177.621816 159.633563 
L 178.680026 173.363344 
L 179.209132 178.103388 
L 179.738237 180.555135 
L 180.267342 178.757187 
L 180.796447 183.98758 
L 181.325552 181.045484 
L 181.854658 185.948977 
L 182.383763 180.228235 
L 182.912868 179.247536 
L 183.441973 176.46889 
L 183.971078 169.767449 
L 184.500184 173.690244 
L 185.029289 168.296401 
L 185.558394 164.863956 
L 186.087499 153.585921 
L 186.616604 139.529241 
L 187.14571 139.202341 
L 187.674815 139.202341 
L 188.20392 120.242167 
L 189.26213 108.800682 
L 190.320341 85.917714 
L 190.849446 92.455705 
L 191.378551 75.947277 
L 191.907656 64.178893 
L 192.436762 57.477452 
L 192.965867 43.747671 
L 193.494972 42.603523 
L 194.024077 45.055269 
L 194.553183 61.727147 
L 195.082288 71.207234 
L 195.611393 94.253652 
L 196.140498 89.513609 
L 196.669603 68.755487 
L 197.727814 91.965355 
L 198.256919 97.195748 
L 198.786024 110.27173 
L 199.315129 105.858586 
L 199.844235 103.07994 
L 200.37334 106.675835 
L 200.902445 114.521425 
L 201.43155 114.031075 
L 201.960655 120.569066 
L 202.489761 113.377276 
L 203.018866 128.578105 
L 203.547971 134.952647 
L 204.077076 135.442996 
L 204.606181 141.817537 
L 205.664392 169.2771 
L 206.193497 168.132952 
L 206.722602 173.526794 
L 207.251707 175.651641 
L 207.780813 176.141991 
L 208.309918 156.037668 
L 209.368128 179.247536 
L 209.897233 174.834392 
L 210.426339 173.199895 
L 210.955444 181.699283 
L 211.484549 175.815091 
L 212.013654 174.834392 
L 212.542759 165.027406 
L 213.071865 164.700506 
L 213.60097 160.614262 
L 214.130075 139.85614 
L 214.65918 153.259022 
L 215.188286 148.355529 
L 215.717391 147.865179 
L 216.246496 145.903782 
L 216.775601 121.876665 
L 217.304706 106.348936 
L 217.833812 100.301294 
L 218.362917 101.281993 
L 219.421127 93.109504 
L 219.950232 103.07994 
L 220.479338 109.781381 
L 221.008443 95.397801 
L 221.537548 95.561251 
L 222.066653 100.791643 
L 223.124864 78.889373 
L 223.653969 73.005181 
L 224.183074 73.168631 
L 224.712179 89.677059 
L 225.241284 83.956316 
L 225.77039 85.427364 
L 226.299495 98.666796 
L 226.8286 106.022036 
L 227.357705 106.185486 
L 227.88681 105.041338 
L 228.415916 111.742778 
L 228.945021 129.885704 
L 229.474126 139.038891 
L 230.003231 140.673389 
L 230.532336 143.288585 
L 231.061442 151.787974 
L 231.590547 157.018367 
L 232.119652 157.672166 
L 232.648757 162.08531 
L 233.177862 157.508716 
L 233.706968 165.844655 
L 234.236073 168.623301 
L 234.765178 179.901336 
L 235.294283 161.75841 
L 236.352494 167.969502 
L 236.881599 160.287362 
L 237.410704 165.844655 
L 237.939809 165.354305 
L 238.468915 160.941161 
L 238.99802 165.517755 
L 239.527125 146.394131 
L 240.05623 162.739109 
L 240.585335 153.095572 
L 241.114441 149.663127 
L 241.643546 143.288585 
L 242.172651 151.461074 
L 242.701756 154.89352 
L 243.230861 137.567843 
L 243.759967 110.92553 
L 244.289072 122.203564 
L 244.818177 121.713215 
L 245.347282 85.754264 
L 245.876387 75.130028 
L 246.405493 91.801906 
L 246.934598 98.339897 
L 247.463703 94.744002 
L 247.992808 94.417102 
L 249.051019 52.573959 
L 249.580124 50.449112 
L 250.109229 71.370684 
L 250.638334 72.678282 
L 251.167439 87.552211 
L 251.696545 75.947277 
L 252.22565 77.745225 
L 252.754755 87.061862 
L 253.28386 85.917714 
L 253.812965 103.07994 
L 254.342071 104.060639 
L 255.400281 119.588368 
L 255.929386 128.414656 
L 256.458491 141.327188 
L 256.987597 140.673389 
L 257.516702 142.144437 
L 258.045807 152.114873 
L 258.574912 147.37483 
L 259.104018 156.528017 
L 259.633123 145.740332 
L 260.162228 151.787974 
L 260.691333 167.315703 
L 261.220438 169.767449 
L 261.749544 166.171554 
L 262.278649 171.565397 
L 262.807754 170.911598 
L 263.336859 177.613039 
L 263.865964 174.344043 
L 264.39507 169.2771 
L 264.924175 167.969502 
L 265.45328 179.247536 
L 265.982385 180.228235 
L 266.51149 169.930899 
L 267.040596 163.066008 
L 267.569701 158.816314 
L 268.098806 158.652864 
L 268.627911 149.990026 
L 269.157016 145.086533 
L 269.686122 146.394131 
L 270.215227 129.395354 
L 270.744332 128.414656 
L 271.273437 122.203564 
L 271.802542 118.771119 
L 272.331648 113.050377 
L 272.860753 109.781381 
L 273.389858 108.800682 
L 273.918963 92.946054 
L 274.448068 87.879111 
L 275.506279 80.360421 
L 276.564489 65.159592 
L 277.093594 68.101688 
L 278.151805 99.320595 
L 278.68091 95.070901 
L 279.210015 100.301294 
L 279.739121 91.638456 
L 280.268226 88.36946 
L 280.797331 91.148107 
L 281.326436 103.40684 
L 281.855541 109.781381 
L 282.384647 111.088979 
L 282.913752 116.973171 
L 283.442857 119.424918 
L 283.971962 118.607669 
L 285.030173 140.509939 
L 285.559278 138.875441 
L 286.088383 141.654088 
L 286.617488 149.499677 
L 288.204804 167.152253 
L 288.733909 169.44055 
L 289.263014 177.613039 
L 289.792119 181.372384 
L 290.321225 183.98758 
L 290.85033 184.641379 
L 291.379435 183.66068 
L 291.90854 185.458628 
L 292.437645 179.901336 
L 292.966751 178.430288 
L 293.495856 183.82413 
L 294.024961 183.98758 
L 294.554066 181.535833 
L 295.083171 174.997842 
L 295.612277 171.728847 
L 296.141382 167.315703 
L 296.670487 159.960463 
L 297.199592 141.000289 
L 297.728697 139.69269 
L 298.257803 140.673389 
L 298.786908 138.875441 
L 299.316013 135.933345 
L 299.845118 123.838062 
L 300.374224 120.569066 
L 300.903329 104.224089 
L 301.432434 96.705399 
L 301.961539 99.810945 
L 302.490644 99.320595 
L 303.01975 98.339897 
L 304.07796 90.821207 
L 304.607065 97.032299 
L 305.665276 88.85981 
L 306.194381 87.879111 
L 306.723486 87.552211 
L 307.252591 85.427364 
L 307.781696 68.428588 
L 308.310802 73.168631 
L 308.839907 94.744002 
L 309.369012 102.262691 
L 310.427222 114.521425 
L 310.956328 116.646272 
L 311.485433 133.318149 
L 312.014538 131.847101 
L 312.543643 144.269284 
L 313.072748 145.903782 
L 313.601854 151.624524 
L 314.130959 164.863956 
L 314.660064 166.008104 
L 315.189169 165.844655 
L 316.24738 179.084087 
L 316.776485 173.363344 
L 317.30559 172.219196 
L 317.834695 177.613039 
L 318.3638 176.141991 
L 318.892906 170.094349 
L 319.422011 172.219196 
L 319.951116 176.63234 
L 320.480221 175.651641 
L 321.009327 175.324742 
L 321.538432 160.614262 
L 322.067537 166.988803 
L 322.596642 167.315703 
L 323.125747 154.239721 
L 323.654853 156.037668 
L 324.183958 150.643825 
L 324.713063 151.787974 
L 325.242168 144.923083 
L 325.771273 133.971948 
L 326.300379 134.135398 
L 326.829484 129.722254 
L 327.358589 111.415879 
L 327.887694 118.771119 
L 328.416799 113.540726 
L 328.945905 103.24339 
L 329.47501 88.85981 
L 330.004115 89.186709 
L 330.53322 82.648718 
L 331.062325 66.140291 
L 331.591431 56.496754 
L 332.120536 58.131252 
L 332.649641 64.342343 
L 333.178746 64.832692 
L 333.707851 70.553435 
L 334.236957 92.455705 
L 334.766062 93.109504 
L 335.295167 81.831469 
L 336.353377 89.186709 
L 336.882483 100.137844 
L 337.411588 99.974395 
L 337.940693 103.897189 
L 338.469798 110.27173 
L 338.998903 107.493084 
L 339.528009 122.040114 
L 340.057114 127.107058 
L 340.586219 130.376053 
L 341.115324 130.049153 
L 342.173535 142.961686 
L 342.70264 154.73007 
L 343.76085 164.863956 
L 344.289956 166.335004 
L 344.819061 171.892296 
L 345.348166 172.382646 
L 345.877271 174.180593 
L 346.406376 169.11365 
L 346.935482 174.834392 
L 347.464587 168.296401 
L 347.993692 173.526794 
L 348.522797 173.036445 
L 349.051902 170.257799 
L 349.581008 170.421248 
L 350.110113 171.075048 
L 350.639218 161.75841 
L 351.168323 158.979764 
L 351.697428 152.768673 
L 352.226534 144.923083 
L 352.755639 144.105834 
L 353.284744 147.865179 
L 353.813849 129.068455 
L 354.342954 120.078717 
L 354.87206 117.62697 
L 355.401165 110.108281 
L 355.93027 98.503347 
L 356.459375 95.070901 
L 356.98848 93.926753 
L 357.517586 90.494307 
L 358.046691 75.947277 
L 358.575796 72.187932 
L 359.104901 83.302517 
L 359.634006 77.254875 
L 360.163112 77.091426 
L 360.692217 78.725923 
L 361.221322 81.01422 
L 361.750427 80.850771 
L 362.279532 81.994919 
L 362.808638 80.523871 
L 363.337743 74.639679 
L 363.866848 77.254875 
L 364.395953 78.725923 
L 364.925059 86.081163 
L 365.454164 90.167408 
L 365.983269 102.753041 
L 366.512374 107.819984 
L 367.041479 117.62697 
L 368.09969 133.154699 
L 368.628795 135.606446 
L 369.1579 136.423695 
L 369.687005 145.576882 
L 370.216111 150.807275 
L 370.745216 168.132952 
L 371.274321 168.132952 
L 371.803426 171.728847 
L 372.332531 176.95924 
L 372.861637 176.141991 
L 373.390742 170.748148 
L 373.919847 180.228235 
L 374.448952 180.391685 
L 374.978057 182.353082 
L 375.507163 179.737886 
L 376.036268 175.161292 
L 376.565373 167.479152 
L 377.094478 163.066008 
L 377.623583 169.930899 
L 378.152689 156.364568 
L 378.681794 147.37483 
L 379.210899 146.230681 
L 379.740004 141.327188 
L 380.269109 118.771119 
L 380.798215 124.491861 
L 381.32732 123.511162 
L 381.856425 136.423695 
L 382.38553 128.251206 
L 382.914635 112.886927 
L 383.443741 105.204787 
L 383.972846 94.417102 
L 384.501951 90.657757 
L 385.031056 101.445442 
L 385.560162 95.88815 
L 386.089267 82.812168 
L 386.618372 85.263915 
L 387.147477 90.657757 
L 387.676582 94.417102 
L 388.205688 93.763303 
L 388.734793 88.042561 
L 389.263898 98.176447 
L 389.793003 97.195748 
L 390.322108 94.744002 
L 390.851214 100.464744 
L 391.380319 95.7247 
L 391.909424 95.234351 
L 392.438529 99.484045 
L 392.967634 101.935792 
L 393.49674 101.281993 
L 394.025845 108.637233 
L 394.55495 118.444219 
L 395.61316 126.943608 
L 396.142266 135.442996 
L 396.671371 138.875441 
L 397.200476 143.288585 
L 397.729581 151.787974 
L 398.258686 154.73007 
L 398.787792 163.883257 
L 399.846002 165.681205 
L 400.375107 162.412209 
L 400.904212 170.257799 
L 401.433318 169.44055 
L 401.962423 173.199895 
L 402.491528 178.266838 
L 403.020633 166.988803 
L 403.549738 168.296401 
L 404.078844 172.872995 
L 405.666159 158.325965 
L 406.195265 162.08531 
L 406.72437 156.201118 
L 407.253475 155.220419 
L 407.78258 154.56662 
L 408.311685 151.134175 
L 408.840791 154.40317 
L 409.369896 140.18304 
L 409.899001 121.876665 
L 410.428106 97.032299 
L 410.957211 105.858586 
L 411.486317 99.810945 
L 412.015422 96.0516 
L 413.073632 90.821207 
L 413.602737 94.417102 
L 414.131843 93.436403 
L 414.660948 83.302517 
L 415.190053 79.052823 
L 415.719158 83.302517 
L 416.248263 78.889373 
L 416.777369 72.024483 
L 417.306474 81.668019 
L 417.835579 78.889373 
L 418.364684 77.091426 
L 418.893789 75.947277 
L 419.952 96.0516 
L 420.481105 98.339897 
L 422.068421 112.560027 
L 422.597526 115.338674 
L 424.184841 134.625747 
L 424.713947 150.153476 
L 425.243052 154.40317 
L 425.772157 156.854917 
L 426.301262 152.441773 
L 427.359473 160.777712 
L 427.888578 166.661904 
L 428.417683 169.44055 
L 428.946788 166.825353 
L 429.475894 167.479152 
L 430.004999 169.44055 
L 430.534104 167.969502 
L 431.592314 147.701729 
L 432.12142 146.230681 
L 432.650525 149.172777 
L 433.17963 162.739109 
L 433.708735 154.89352 
L 434.23784 153.095572 
L 434.766946 152.605223 
L 435.296051 152.278323 
L 435.825156 149.663127 
L 436.883366 121.713215 
L 437.412472 116.973171 
L 437.941577 108.146883 
L 438.470682 110.92553 
L 438.999787 102.589591 
L 439.528892 100.628194 
L 440.057998 105.531687 
L 440.587103 83.139067 
L 441.116208 87.061862 
L 441.645313 80.850771 
L 442.174418 78.072124 
L 442.703524 81.50457 
L 443.232629 74.803129 
L 444.819944 67.447889 
L 445.34905 77.581775 
L 445.878155 79.216273 
L 446.40726 98.339897 
L 446.936365 105.368237 
L 447.465471 103.57029 
L 447.994576 106.675835 
L 449.052786 121.549765 
L 450.110997 130.212603 
L 450.640102 140.18304 
L 451.169207 141.490638 
L 452.756523 159.306664 
L 453.285628 156.201118 
L 453.814733 157.835616 
L 454.343838 161.92186 
L 454.872943 167.969502 
L 455.402049 167.806052 
L 455.931154 166.498454 
L 456.460259 170.911598 
L 456.989364 173.853694 
L 457.518469 178.430288 
L 458.047575 173.363344 
L 458.57668 166.825353 
L 459.105785 171.565397 
L 459.63489 162.739109 
L 460.163995 157.018367 
L 460.693101 141.000289 
L 461.222206 149.336227 
L 461.751311 155.710769 
L 462.280416 153.422472 
L 462.809521 127.433957 
L 463.338627 123.184263 
L 463.867732 117.300071 
L 464.396837 114.194525 
L 464.925942 107.002735 
L 465.455047 103.57029 
L 465.984153 103.57029 
L 466.513258 97.522648 
L 467.042363 96.541949 
L 467.571468 88.53291 
L 468.100574 96.378499 
L 468.629679 93.436403 
L 469.687889 80.360421 
L 470.216994 79.543172 
L 470.7461 93.272954 
L 471.275205 94.417102 
L 471.80431 91.965355 
L 472.333415 98.993696 
L 472.86252 97.195748 
L 473.920731 99.647495 
L 474.449836 106.675835 
L 474.978941 121.222866 
L 476.037152 116.646272 
L 476.566257 124.655311 
L 477.095362 135.279546 
L 478.153572 143.452035 
L 479.211783 147.04793 
L 479.740888 153.585921 
L 480.269993 174.180593 
L 480.799098 175.815091 
L 481.328204 175.651641 
L 481.857309 174.507493 
L 482.386414 176.63234 
L 482.915519 181.862733 
L 483.444624 176.30544 
L 483.97373 164.700506 
L 484.502835 172.546096 
L 485.03194 172.709545 
L 486.09015 162.08531 
L 486.619256 173.199895 
L 487.148361 169.767449 
L 487.677466 172.219196 
L 488.206571 167.969502 
L 488.735676 169.2771 
L 489.264782 161.104611 
L 489.793887 157.181816 
L 490.322992 128.578105 
L 490.852097 124.818761 
L 491.381203 118.771119 
L 491.910308 108.637233 
L 492.439413 82.158369 
L 492.968518 72.678282 
L 493.497623 69.572736 
L 494.026729 69.082387 
L 494.555834 69.082387 
L 495.084939 76.601076 
L 495.614044 67.447889 
L 496.143149 55.679505 
L 496.672255 54.208457 
L 497.20136 55.516055 
L 497.730465 49.795313 
L 498.25957 76.274177 
L 498.788675 70.389985 
L 499.317781 72.024483 
L 499.846886 77.908675 
L 500.375991 77.908675 
L 500.905096 85.100465 
L 501.434201 88.85981 
L 502.492412 93.926753 
L 503.021517 100.791643 
L 503.550622 104.387538 
L 504.079727 114.684874 
L 504.608833 115.338674 
L 505.137938 125.799459 
L 505.667043 127.924306 
L 506.196148 131.520201 
L 506.725253 139.69269 
L 507.254359 143.615485 
L 507.783464 152.441773 
L 508.312569 156.037668 
L 508.841674 161.59496 
L 509.370779 157.672166 
L 509.899885 158.979764 
L 510.42899 162.08531 
L 510.958095 162.575659 
L 511.4872 160.287362 
L 512.016306 160.614262 
L 512.545411 158.489415 
L 513.074516 161.75841 
L 513.603621 157.181816 
L 514.132726 154.73007 
L 514.661832 158.652864 
L 515.190937 152.441773 
L 515.720042 157.018367 
L 516.778252 143.288585 
L 517.307358 140.673389 
L 517.836463 135.933345 
L 518.365568 136.587145 
L 518.894673 137.567843 
L 519.952884 117.300071 
L 520.481989 113.050377 
L 521.011094 100.301294 
L 521.540199 78.562474 
L 522.069304 92.292255 
L 522.59841 94.417102 
L 524.185725 53.718108 
L 524.71483 53.718108 
L 525.243936 46.199418 
L 525.773041 46.035968 
L 526.302146 62.380946 
L 526.831251 57.967802 
L 527.360356 58.294701 
L 527.889462 58.9485 
L 528.418567 75.947277 
L 528.947672 85.263915 
L 529.476777 82.321819 
L 530.005882 97.522648 
L 530.534988 97.522648 
L 531.064093 95.070901 
L 531.593198 96.21505 
L 532.122303 107.983434 
L 532.651409 113.867626 
L 533.709619 132.8278 
L 534.238724 136.587145 
L 535.296935 139.202341 
L 536.355145 145.413433 
L 536.88425 152.605223 
L 537.413355 161.75841 
L 537.942461 165.190856 
L 538.471566 166.661904 
L 539.000671 169.11365 
L 539.529776 167.479152 
L 540.058881 175.488192 
L 540.587987 177.776488 
L 541.117092 174.344043 
L 541.646197 176.79579 
L 542.175302 171.401947 
L 542.704407 168.296401 
L 543.233513 162.24876 
L 543.762618 161.75841 
L 544.291723 163.229458 
L 544.820828 157.835616 
L 545.349933 164.537056 
L 545.879039 156.201118 
L 546.408144 136.750594 
L 546.937249 142.634786 
L 547.466354 124.818761 
L 547.995459 111.415879 
L 548.524565 91.475006 
L 549.05367 84.773565 
L 549.582775 65.976841 
L 550.11188 82.321819 
L 550.640985 77.254875 
L 551.170091 61.563697 
L 551.699196 59.43885 
L 552.228301 59.929199 
L 552.757406 56.006404 
L 553.286512 48.160815 
L 553.815617 50.285662 
L 554.344722 47.180116 
L 554.873827 58.131252 
L 555.402932 60.092649 
L 555.932038 67.120989 
L 556.461143 68.755487 
L 556.990248 68.101688 
L 557.519353 71.534133 
L 558.048458 77.908675 
L 558.577564 76.601076 
L 559.106669 84.610115 
L 560.164879 113.050377 
L 560.693984 113.540726 
L 561.22309 116.809722 
L 561.752195 118.28077 
L 562.2813 121.386315 
L 562.810405 128.087756 
L 563.33951 131.847101 
L 563.868616 144.105834 
L 564.397721 150.970725 
L 565.455931 157.835616 
L 567.572352 170.584698 
L 568.101457 177.286139 
L 568.630562 170.421248 
L 569.159668 169.930899 
L 569.688773 166.498454 
L 570.217878 167.152253 
L 570.746983 168.296401 
L 571.276088 169.930899 
L 571.805194 166.988803 
L 572.334299 151.951424 
L 572.863404 154.076271 
L 573.392509 140.509939 
L 573.921615 141.654088 
L 574.45072 125.47256 
L 574.979825 116.973171 
L 576.038035 85.590814 
L 576.567141 67.938238 
L 577.096246 85.917714 
L 577.625351 76.274177 
L 578.154456 77.091426 
L 578.683561 83.629417 
L 579.212667 72.351382 
L 579.741772 71.697583 
L 580.270877 69.899636 
L 580.799982 64.832692 
L 581.329087 55.842955 
L 581.858193 70.880334 
L 582.387298 75.783827 
L 582.916403 85.917714 
L 583.445508 83.302517 
L 583.974613 72.351382 
L 584.503719 76.764526 
L 585.032824 80.196971 
L 585.561929 91.311556 
L 586.091034 95.88815 
L 586.620139 103.57029 
L 587.67835 111.579329 
L 588.207455 114.194525 
L 588.73656 115.338674 
L 589.265665 124.328411 
L 589.794771 128.251206 
L 590.323876 140.509939 
L 591.382086 147.37483 
L 591.911191 143.778935 
L 592.969402 155.710769 
L 593.498507 150.807275 
L 594.027612 160.123912 
L 594.556718 159.143214 
L 595.085823 167.315703 
L 595.614928 166.008104 
L 596.144033 164.210157 
L 596.673138 162.902559 
L 597.202244 168.459851 
L 598.789559 166.498454 
L 599.318664 168.459851 
L 600.90598 146.067232 
L 601.435085 129.558804 
L 601.96419 102.589591 
L 602.493296 84.283216 
L 603.022401 100.791643 
L 603.551506 97.032299 
L 604.080611 82.975618 
L 604.609716 90.494307 
L 605.138822 92.128805 
L 605.667927 85.100465 
L 606.197032 75.456928 
L 606.726137 73.82243 
L 607.255242 64.178893 
L 607.784348 66.95754 
L 608.842558 82.158369 
L 609.371663 77.581775 
L 609.900768 74.803129 
L 610.429874 83.956316 
L 610.958979 77.581775 
L 611.488084 81.50457 
L 612.017189 81.994919 
L 612.546294 83.302517 
L 613.0754 86.244613 
L 614.13361 97.032299 
L 614.662715 104.714438 
L 615.19182 107.329634 
L 616.779136 126.453258 
L 617.837347 143.942385 
L 618.366452 149.990026 
L 618.895557 150.807275 
L 619.424662 156.691467 
L 619.953767 160.450812 
L 620.482873 165.517755 
L 621.011978 168.786751 
L 621.541083 165.517755 
L 622.070188 158.979764 
L 622.599293 164.046707 
L 623.657504 157.181816 
L 624.186609 156.364568 
L 624.715714 156.037668 
L 625.244819 162.412209 
L 625.773925 153.095572 
L 626.30303 149.336227 
L 626.832135 138.548542 
L 627.36124 141.000289 
L 627.890345 136.914044 
L 628.419451 124.001512 
L 628.948556 117.300071 
L 629.477661 112.723477 
L 630.006766 109.291032 
L 630.535871 104.714438 
L 631.064977 93.599853 
L 631.594082 93.272954 
L 632.123187 77.745225 
L 632.652292 74.639679 
L 633.181397 70.553435 
L 633.710503 95.88815 
L 634.239608 87.061862 
L 634.768713 75.293478 
L 635.297818 77.418325 
L 635.826923 76.437627 
L 636.356029 76.437627 
L 636.885134 79.052823 
L 637.414239 80.033522 
L 637.943344 90.494307 
L 638.47245 90.167408 
L 639.001555 88.042561 
L 639.53066 99.157146 
L 640.059765 96.0516 
L 640.58887 96.378499 
L 641.117976 93.763303 
L 641.647081 100.955093 
L 642.705291 107.166185 
L 643.234396 118.934569 
L 643.763502 124.001512 
L 644.292607 123.838062 
L 644.821712 124.818761 
L 645.350817 126.616708 
L 645.879922 135.279546 
L 646.938133 146.557581 
L 647.467238 149.172777 
L 647.996343 149.336227 
L 648.525448 150.807275 
L 649.054554 161.75841 
L 649.583659 169.767449 
L 650.112764 173.363344 
L 650.641869 172.382646 
L 651.170974 164.863956 
L 651.70008 173.036445 
L 652.229185 166.008104 
L 652.75829 155.056969 
L 653.287395 163.229458 
L 653.8165 153.585921 
L 654.345606 152.441773 
L 654.874711 141.490638 
L 655.403816 139.365791 
L 656.462026 112.886927 
L 656.991132 106.185486 
L 657.520237 111.579329 
L 658.578447 88.042561 
L 659.107553 81.50457 
L 659.636658 73.005181 
L 660.165763 67.447889 
L 660.694868 66.95754 
L 661.223973 83.792867 
L 661.753079 84.119766 
L 662.282184 77.908675 
L 662.811289 63.361644 
L 663.340394 56.660204 
L 663.869499 66.30374 
L 664.398605 66.95754 
L 664.92771 66.79409 
L 665.456815 73.65898 
L 665.98592 72.514832 
L 666.515025 76.110727 
L 667.044131 77.418325 
L 669.160551 92.946054 
L 669.689657 88.53291 
L 670.218762 94.417102 
L 670.747867 106.675835 
L 671.276972 112.069678 
L 671.806077 119.588368 
L 672.864288 126.943608 
L 673.393393 128.905005 
L 673.922498 137.731293 
L 674.451603 144.105834 
L 674.980709 146.557581 
L 675.509814 146.230681 
L 676.038919 149.663127 
L 676.568024 155.056969 
L 677.097129 165.190856 
L 677.626235 166.825353 
L 678.15534 166.498454 
L 678.684445 166.825353 
L 679.21355 160.941161 
L 679.742656 158.162515 
L 680.271761 157.672166 
L 680.800866 159.143214 
L 681.329971 153.259022 
L 681.859076 144.923083 
L 682.388182 142.307887 
L 682.917287 130.376053 
L 683.446392 130.866402 
L 683.975497 134.298848 
L 684.504602 120.732516 
L 685.562813 106.348936 
L 686.091918 105.858586 
L 686.621023 87.552211 
L 687.679234 58.9485 
L 688.208339 55.679505 
L 688.737444 62.217496 
L 689.266549 59.2754 
L 689.795654 70.063085 
L 690.32476 72.514832 
L 690.853865 70.389985 
L 691.38297 67.284439 
L 691.912075 69.736186 
L 692.44118 65.649941 
L 692.970286 65.976841 
L 693.499391 59.765749 
L 694.028496 61.563697 
L 694.557601 62.054046 
L 695.086706 63.361644 
L 695.615812 67.120989 
L 696.144917 78.072124 
L 696.674022 80.850771 
L 697.203127 82.485268 
L 698.261338 100.137844 
L 698.790443 108.310333 
L 699.319548 110.59863 
L 699.848653 117.136621 
L 700.377759 120.078717 
L 700.906864 125.63601 
L 701.435969 135.279546 
L 701.965074 135.279546 
L 702.494179 144.596184 
L 703.023285 149.172777 
L 704.081495 147.865179 
L 704.6106 154.239721 
L 705.139705 156.691467 
L 705.668811 156.854917 
L 706.197916 155.547319 
L 706.727021 151.787974 
L 707.256126 160.941161 
L 707.785231 155.547319 
L 708.314337 151.951424 
L 708.843442 152.441773 
L 709.372547 148.518978 
L 709.901652 147.37483 
L 710.430757 137.731293 
L 710.959863 147.53828 
L 711.488968 130.702953 
L 712.018073 101.118543 
L 712.547178 106.185486 
L 713.076283 112.886927 
L 713.605389 117.62697 
L 714.134494 116.155922 
L 714.663599 125.799459 
L 715.721809 99.647495 
L 716.250915 107.819984 
L 716.78002 110.59863 
L 717.309125 109.944831 
L 717.83823 101.445442 
L 718.367335 90.657757 
L 718.896441 75.130028 
L 719.425546 71.534133 
L 719.954651 76.601076 
L 720.483756 84.283216 
L 721.012862 85.754264 
L 721.541967 88.85981 
L 722.071072 89.023259 
L 722.600177 91.148107 
L 723.129282 97.032299 
L 723.658388 100.137844 
L 724.187493 107.166185 
L 725.245703 116.646272 
L 725.774808 119.751818 
L 726.303914 126.780158 
L 726.833019 139.365791 
L 727.362124 140.836839 
L 727.891229 147.04793 
L 728.420334 147.37483 
L 728.94944 151.787974 
L 729.478545 154.076271 
L 730.00765 153.259022 
L 730.536755 156.854917 
L 731.06586 154.239721 
L 731.594966 157.345266 
L 732.124071 151.461074 
L 732.653176 158.162515 
L 733.182281 157.999065 
L 733.711386 158.162515 
L 734.240492 152.441773 
L 734.769597 156.691467 
L 735.298702 163.556358 
L 735.827807 157.835616 
L 736.356912 150.316926 
L 736.886018 150.643825 
L 737.944228 146.230681 
L 738.473333 145.903782 
L 739.002438 142.961686 
L 739.531544 122.693914 
L 740.589754 101.608892 
L 741.118859 95.7247 
L 742.17707 89.350159 
L 742.706175 88.53291 
L 743.23528 96.21505 
L 743.764385 78.399024 
L 744.293491 78.235574 
L 745.351701 62.707845 
L 745.880806 62.707845 
L 746.939017 80.687321 
L 747.468122 85.263915 
L 747.997227 88.69636 
L 748.526332 87.715661 
L 749.055437 89.513609 
L 749.584543 89.513609 
L 750.113648 93.109504 
L 750.642753 94.580552 
L 751.171858 105.041338 
L 751.700963 107.819984 
L 752.230069 115.829023 
L 752.759174 118.607669 
L 753.288279 125.47256 
L 753.817384 129.558804 
L 754.346489 131.520201 
L 754.875595 139.202341 
L 755.4047 140.509939 
L 755.933805 140.836839 
L 756.992015 153.749371 
L 757.521121 151.951424 
L 758.050226 160.614262 
L 758.579331 156.528017 
L 759.108436 156.528017 
L 759.637541 159.797013 
L 760.166647 158.489415 
L 760.695752 152.768673 
L 761.224857 156.201118 
L 761.753962 158.652864 
L 762.283067 156.201118 
L 762.812173 154.56662 
L 763.341278 150.643825 
L 763.870383 149.990026 
L 764.399488 150.316926 
L 764.928594 145.740332 
L 765.457699 142.144437 
L 765.986804 144.269284 
L 767.045014 110.76208 
L 767.57412 101.772342 
L 768.103225 105.368237 
L 768.63233 90.330858 
L 769.161435 83.956316 
L 769.69054 80.360421 
L 770.219646 93.436403 
L 770.748751 93.926753 
L 771.277856 86.244613 
L 771.806961 86.081163 
L 772.336066 78.889373 
L 772.865172 80.850771 
L 773.394277 87.715661 
L 773.923382 83.302517 
L 774.452487 74.639679 
L 774.981592 75.783827 
L 775.510698 76.110727 
L 776.568908 63.361644 
L 777.098013 65.813391 
L 778.156224 76.601076 
L 778.685329 81.50457 
L 779.743539 87.879111 
L 780.272644 97.686098 
L 780.80175 100.301294 
L 781.330855 111.906228 
L 781.85996 120.242167 
L 782.389065 124.001512 
L 783.447276 133.808498 
L 784.505486 144.759633 
L 785.034591 146.884481 
L 785.563697 147.701729 
L 786.092802 153.422472 
L 786.621907 156.037668 
L 787.151012 163.392908 
L 787.680117 165.681205 
L 788.209223 169.44055 
L 788.738328 163.392908 
L 789.267433 169.2771 
L 789.796538 168.132952 
L 790.325643 168.9502 
L 791.383854 161.59496 
L 791.912959 152.278323 
L 792.442064 137.077494 
L 792.971169 137.894743 
L 793.500275 141.490638 
L 794.02938 133.645049 
L 794.558485 131.029852 
L 795.616695 84.610115 
L 796.145801 83.139067 
L 796.674906 91.311556 
L 797.204011 85.590814 
L 797.733116 71.207234 
L 798.262221 65.976841 
L 798.791327 56.006404 
L 799.320432 55.516055 
L 799.849537 78.562474 
L 800.378642 78.725923 
L 800.907747 76.927976 
L 801.436853 73.168631 
L 801.965958 72.024483 
L 802.495063 71.534133 
L 803.024168 81.17767 
L 803.553273 80.196971 
L 804.082379 86.244613 
L 804.611484 85.263915 
L 805.140589 82.485268 
L 806.1988 88.042561 
L 806.727905 83.465967 
L 807.25701 90.984657 
L 807.786115 91.638456 
L 808.31522 104.224089 
L 808.844326 110.43518 
L 809.373431 109.291032 
L 809.902536 116.646272 
L 810.960746 125.63601 
L 811.489852 133.154699 
L 812.018957 134.135398 
L 812.548062 133.645049 
L 813.606272 151.134175 
L 814.135378 153.422472 
L 814.664483 149.499677 
L 815.193588 152.605223 
L 815.722693 154.40317 
L 816.251798 155.547319 
L 816.780904 158.325965 
L 817.310009 163.229458 
L 817.839114 161.59496 
L 818.368219 163.229458 
L 818.897324 162.412209 
L 819.42643 159.797013 
L 819.955535 149.990026 
L 820.48464 145.740332 
L 821.013745 144.269284 
L 821.54285 144.923083 
L 822.071956 146.557581 
L 822.601061 130.866402 
L 823.659271 108.146883 
L 824.188376 88.042561 
L 824.717482 78.725923 
L 825.246587 57.967802 
L 825.775692 52.573959 
L 826.304797 64.832692 
L 826.833903 69.082387 
L 827.363008 64.342343 
L 827.892113 74.803129 
L 828.950323 80.687321 
L 829.479429 80.850771 
L 830.008534 70.063085 
L 830.537639 67.611339 
L 831.066744 75.130028 
L 831.595849 73.168631 
L 832.124955 72.678282 
L 832.65406 77.091426 
L 833.183165 78.562474 
L 833.71227 81.994919 
L 834.241375 90.003958 
L 834.770481 92.782604 
L 835.299586 97.849547 
L 835.828691 107.166185 
L 836.357796 114.031075 
L 836.886901 126.616708 
L 839.003322 154.89352 
L 839.532427 158.162515 
L 840.590638 172.055746 
L 841.119743 171.075048 
L 841.648848 167.806052 
L 842.177953 173.690244 
L 842.707059 166.008104 
L 843.236164 167.642602 
L 843.765269 161.104611 
L 844.294374 166.825353 
L 844.823479 165.027406 
L 845.352585 158.652864 
L 845.88169 160.614262 
L 846.410795 157.508716 
L 846.9399 151.134175 
L 847.469005 153.749371 
L 847.998111 143.778935 
L 848.527216 141.327188 
L 848.527216 141.327188 
" clip-path="url(#pf001d02a6c)" style="fill: none; stroke: #17becf; stroke-opacity: 0.9; stroke-width: 1.8; stroke-linecap: square"/>
   </g>
   <g id="patch_3">
    <path d="M 71.298125 193.11625 
L 71.298125 35.43625 
" style="fill: none; stroke: #000000; stroke-width: 0.8; stroke-linejoin: miter; stroke-linecap: square"/>
   </g>
   <g id="patch_4">
    <path d="M 885.538125 193.11625 
L 885.538125 35.43625 
" style="fill: none; stroke: #000000; stroke-width: 0.8; stroke-linejoin: miter; stroke-linecap: square"/>
   </g>
   <g id="patch_5">
    <path d="M 71.298125 193.11625 
L 885.538125 193.11625 
" style="fill: none; stroke: #000000; stroke-width: 0.8; stroke-linejoin: miter; stroke-linecap: square"/>
   </g>
   <g id="patch_6">
    <path d="M 71.298125 35.43625 
L 885.538125 35.43625 
" style="fill: none; stroke: #000000; stroke-width: 0.8; stroke-linejoin: miter; stroke-linecap: square"/>
   </g>
   <g id="text_14">
    <!-- Sensor Location 29044 -->
    <g transform="translate(340.725625 25.43625) scale(0.24 -0.24)">
     <defs>
      <path id="DejaVuSans-6e" d="M 3513 2113 
L 3513 0 
L 2938 0 
L 2938 2094 
Q 2938 2591 2744 2837 
Q 2550 3084 2163 3084 
Q 1697 3084 1428 2787 
Q 1159 2491 1159 1978 
L 1159 0 
L 581 0 
L 581 3500 
L 1159 3500 
L 1159 2956 
Q 1366 3272 1645 3428 
Q 1925 3584 2291 3584 
Q 2894 3584 3203 3211 
Q 3513 2838 3513 2113 
z
" transform="scale(0.015625)"/>
      <path id="DejaVuSans-73" d="M 2834 3397 
L 2834 2853 
Q 2591 2978 2328 3040 
Q 2066 3103 1784 3103 
Q 1356 3103 1142 2972 
Q 928 2841 928 2578 
Q 928 2378 1081 2264 
Q 1234 2150 1697 2047 
L 1894 2003 
Q 2506 1872 2764 1633 
Q 3022 1394 3022 966 
Q 3022 478 2636 193 
Q 2250 -91 1575 -91 
Q 1294 -91 989 -36 
Q 684 19 347 128 
L 347 722 
Q 666 556 975 473 
Q 1284 391 1588 391 
Q 1994 391 2212 530 
Q 2431 669 2431 922 
Q 2431 1156 2273 1281 
Q 2116 1406 1581 1522 
L 1381 1569 
Q 847 1681 609 1914 
Q 372 2147 372 2553 
Q 372 3047 722 3315 
Q 1072 3584 1716 3584 
Q 2034 3584 2315 3537 
Q 2597 3491 2834 3397 
z
" transform="scale(0.015625)"/>
      <path id="DejaVuSans-4c" d="M 628 4666 
L 1259 4666 
L 1259 531 
L 3531 531 
L 3531 0 
L 628 0 
L 628 4666 
z
" transform="scale(0.015625)"/>
      <path id="DejaVuSans-63" d="M 3122 3366 
L 3122 2828 
Q 2878 2963 2633 3030 
Q 2388 3097 2138 3097 
Q 1578 3097 1268 2742 
Q 959 2388 959 1747 
Q 959 1106 1268 751 
Q 1578 397 2138 397 
Q 2388 397 2633 464 
Q 2878 531 3122 666 
L 3122 134 
Q 2881 22 2623 -34 
Q 2366 -91 2075 -91 
Q 1284 -91 818 406 
Q 353 903 353 1747 
Q 353 2603 823 3093 
Q 1294 3584 2113 3584 
Q 2378 3584 2631 3529 
Q 2884 3475 3122 3366 
z
" transform="scale(0.015625)"/>
      <path id="DejaVuSans-74" d="M 1172 4494 
L 1172 3500 
L 2356 3500 
L 2356 3053 
L 1172 3053 
L 1172 1153 
Q 1172 725 1289 603 
Q 1406 481 1766 481 
L 2356 481 
L 2356 0 
L 1766 0 
Q 1100 0 847 248 
Q 594 497 594 1153 
L 594 3053 
L 172 3053 
L 172 3500 
L 594 3500 
L 594 4494 
L 1172 4494 
z
" transform="scale(0.015625)"/>
      <path id="DejaVuSans-39" d="M 703 97 
L 703 672 
Q 941 559 1184 500 
Q 1428 441 1663 441 
Q 2288 441 2617 861 
Q 2947 1281 2994 2138 
Q 2813 1869 2534 1725 
Q 2256 1581 1919 1581 
Q 1219 1581 811 2004 
Q 403 2428 403 3163 
Q 403 3881 828 4315 
Q 1253 4750 1959 4750 
Q 2769 4750 3195 4129 
Q 3622 3509 3622 2328 
Q 3622 1225 3098 567 
Q 2575 -91 1691 -91 
Q 1453 -91 1209 -44 
Q 966 3 703 97 
z
M 1959 2075 
Q 2384 2075 2632 2365 
Q 2881 2656 2881 3163 
Q 2881 3666 2632 3958 
Q 2384 4250 1959 4250 
Q 1534 4250 1286 3958 
Q 1038 3666 1038 3163 
Q 1038 2656 1286 2365 
Q 1534 2075 1959 2075 
z
" transform="scale(0.015625)"/>
     </defs>
     <use xlink:href="#DejaVuSans-53"/>
     <use xlink:href="#DejaVuSans-65" transform="translate(63.476562 0)"/>
     <use xlink:href="#DejaVuSans-6e" transform="translate(125 0)"/>
     <use xlink:href="#DejaVuSans-73" transform="translate(188.378906 0)"/>
     <use xlink:href="#DejaVuSans-6f" transform="translate(240.478516 0)"/>
     <use xlink:href="#DejaVuSans-72" transform="translate(301.660156 0)"/>
     <use xlink:href="#DejaVuSans-20" transform="translate(342.773438 0)"/>
     <use xlink:href="#DejaVuSans-4c" transform="translate(374.560547 0)"/>
     <use xlink:href="#DejaVuSans-6f" transform="translate(428.523438 0)"/>
     <use xlink:href="#DejaVuSans-63" transform="translate(489.705078 0)"/>
     <use xlink:href="#DejaVuSans-61" transform="translate(544.685547 0)"/>
     <use xlink:href="#DejaVuSans-74" transform="translate(605.964844 0)"/>
     <use xlink:href="#DejaVuSans-69" transform="translate(645.173828 0)"/>
     <use xlink:href="#DejaVuSans-6f" transform="translate(672.957031 0)"/>
     <use xlink:href="#DejaVuSans-6e" transform="translate(734.138672 0)"/>
     <use xlink:href="#DejaVuSans-20" transform="translate(797.517578 0)"/>
     <use xlink:href="#DejaVuSans-32" transform="translate(829.304688 0)"/>
     <use xlink:href="#DejaVuSans-39" transform="translate(892.927734 0)"/>
     <use xlink:href="#DejaVuSans-30" transform="translate(956.550781 0)"/>
     <use xlink:href="#DejaVuSans-34" transform="translate(1020.173828 0)"/>
     <use xlink:href="#DejaVuSans-34" transform="translate(1083.796875 0)"/>
    </g>
   </g>
  </g>
 </g>
 <defs>
  <clipPath id="pf001d02a6c">
   <rect x="71.298125" y="35.43625" width="814.24" height="157.68"/>
  </clipPath>
 </defs>
</svg>
