<?xml version="1.0" encoding="utf-8" standalone="no"?>
<!DOCTYPE svg PUBLIC "-//W3C//DTD SVG 1.1//EN"
  "http://www.w3.org/Graphics/SVG/1.1/DTD/svg11.dtd">
<svg xmlns:xlink="http://www.w3.org/1999/xlink" width="892.738125pt" height="251.964375pt" viewBox="0 0 892.738125 251.964375" xmlns="http://www.w3.org/2000/svg" version="1.1">
 <metadata>
  <rdf:RDF xmlns:dc="http://purl.org/dc/elements/1.1/" xmlns:cc="http://creativecommons.org/ns#" xmlns:rdf="http://www.w3.org/1999/02/22-rdf-syntax-ns#">
   <cc:Work>
    <dc:type rdf:resource="http://purl.org/dc/dcmitype/StillImage"/>
    <dc:date>2026-02-24T16:51:50.178695</dc:date>
    <dc:format>image/svg+xml</dc:format>
    <dc:creator>
     <cc:Agent>
      <dc:title>Matplotlib v3.10.6, https://matplotlib.org/</dc:title>
     </cc:Agent>
    </dc:creator>
   </cc:Work>
  </rdf:RDF>
 </metadata>
 <defs>
  <style type="text/css">*{stroke-linejoin: round; stroke-linecap: butt}</style>
 </defs>
 <g id="figure_1">
  <g id="patch_1">
   <path d="M -0 251.964375 
L 892.738125 251.964375 
L 892.738125 0 
L -0 0 
z
" style="fill: #ffffff"/>
  </g>
  <g id="axes_1">
   <g id="patch_2">
    <path d="M 71.298125 193.11625 
L 885.538125 193.11625 
L 885.538125 35.43625 
L 71.298125 35.43625 
z
" style="fill: #ffffff"/>
   </g>
   <g id="matplotlib.axis_1">
    <g id="xtick_1">
     <g id="line2d_1">
      <path d="M 108.309034 193.11625 
L 108.309034 35.43625 
" clip-path="url(#pf161e4cb9e)" style="fill: none; stroke-dasharray: 2.96,1.28; stroke-dashoffset: 0; stroke: #b0b0b0; stroke-opacity: 0.3; stroke-width: 0.8"/>
     </g>
     <g id="line2d_2">
      <defs>
       <path id="md1b13d0cdb" d="M 0 0 
L 0 3.5 
" style="stroke: #000000; stroke-width: 0.8"/>
      </defs>
      <g>
       <use xlink:href="#md1b13d0cdb" x="108.309034" y="193.11625" style="stroke: #000000; stroke-width: 0.8"/>
      </g>
     </g>
     <g id="text_1">
      <!-- 0 -->
      <g transform="translate(101.946534 215.313125) scale(0.2 -0.2)">
       <defs>
        <path id="DejaVuSans-30" d="M 2034 4250 
Q 1547 4250 1301 3770 
Q 1056 3291 1056 2328 
Q 1056 1369 1301 889 
Q 1547 409 2034 409 
Q 2525 409 2770 889 
Q 3016 1369 3016 2328 
Q 3016 3291 2770 3770 
Q 2525 4250 2034 4250 
z
M 2034 4750 
Q 2819 4750 3233 4129 
Q 3647 3509 3647 2328 
Q 3647 1150 3233 529 
Q 2819 -91 2034 -91 
Q 1250 -91 836 529 
Q 422 1150 422 2328 
Q 422 3509 836 4129 
Q 1250 4750 2034 4750 
z
" transform="scale(0.015625)"/>
       </defs>
       <use xlink:href="#DejaVuSans-30"/>
      </g>
     </g>
    </g>
    <g id="xtick_2">
     <g id="line2d_3">
      <path d="M 214.130075 193.11625 
L 214.130075 35.43625 
" clip-path="url(#pf161e4cb9e)" style="fill: none; stroke-dasharray: 2.96,1.28; stroke-dashoffset: 0; stroke: #b0b0b0; stroke-opacity: 0.3; stroke-width: 0.8"/>
     </g>
     <g id="line2d_4">
      <g>
       <use xlink:href="#md1b13d0cdb" x="214.130075" y="193.11625" style="stroke: #000000; stroke-width: 0.8"/>
      </g>
     </g>
     <g id="text_2">
      <!-- 200 -->
      <g transform="translate(195.042575 215.313125) scale(0.2 -0.2)">
       <defs>
        <path id="DejaVuSans-32" d="M 1228 531 
L 3431 531 
L 3431 0 
L 469 0 
L 469 531 
Q 828 903 1448 1529 
Q 2069 2156 2228 2338 
Q 2531 2678 2651 2914 
Q 2772 3150 2772 3378 
Q 2772 3750 2511 3984 
Q 2250 4219 1831 4219 
Q 1534 4219 1204 4116 
Q 875 4013 500 3803 
L 500 4441 
Q 881 4594 1212 4672 
Q 1544 4750 1819 4750 
Q 2544 4750 2975 4387 
Q 3406 4025 3406 3419 
Q 3406 3131 3298 2873 
Q 3191 2616 2906 2266 
Q 2828 2175 2409 1742 
Q 1991 1309 1228 531 
z
" transform="scale(0.015625)"/>
       </defs>
       <use xlink:href="#DejaVuSans-32"/>
       <use xlink:href="#DejaVuSans-30" transform="translate(63.623047 0)"/>
       <use xlink:href="#DejaVuSans-30" transform="translate(127.246094 0)"/>
      </g>
     </g>
    </g>
    <g id="xtick_3">
     <g id="line2d_5">
      <path d="M 319.951116 193.11625 
L 319.951116 35.43625 
" clip-path="url(#pf161e4cb9e)" style="fill: none; stroke-dasharray: 2.96,1.28; stroke-dashoffset: 0; stroke: #b0b0b0; stroke-opacity: 0.3; stroke-width: 0.8"/>
     </g>
     <g id="line2d_6">
      <g>
       <use xlink:href="#md1b13d0cdb" x="319.951116" y="193.11625" style="stroke: #000000; stroke-width: 0.8"/>
      </g>
     </g>
     <g id="text_3">
      <!-- 400 -->
      <g transform="translate(300.863616 215.313125) scale(0.2 -0.2)">
       <defs>
        <path id="DejaVuSans-34" d="M 2419 4116 
L 825 1625 
L 2419 1625 
L 2419 4116 
z
M 2253 4666 
L 3047 4666 
L 3047 1625 
L 3713 1625 
L 3713 1100 
L 3047 1100 
L 3047 0 
L 2419 0 
L 2419 1100 
L 313 1100 
L 313 1709 
L 2253 4666 
z
" transform="scale(0.015625)"/>
       </defs>
       <use xlink:href="#DejaVuSans-34"/>
       <use xlink:href="#DejaVuSans-30" transform="translate(63.623047 0)"/>
       <use xlink:href="#DejaVuSans-30" transform="translate(127.246094 0)"/>
      </g>
     </g>
    </g>
    <g id="xtick_4">
     <g id="line2d_7">
      <path d="M 425.772157 193.11625 
L 425.772157 35.43625 
" clip-path="url(#pf161e4cb9e)" style="fill: none; stroke-dasharray: 2.96,1.28; stroke-dashoffset: 0; stroke: #b0b0b0; stroke-opacity: 0.3; stroke-width: 0.8"/>
     </g>
     <g id="line2d_8">
      <g>
       <use xlink:href="#md1b13d0cdb" x="425.772157" y="193.11625" style="stroke: #000000; stroke-width: 0.8"/>
      </g>
     </g>
     <g id="text_4">
      <!-- 600 -->
      <g transform="translate(406.684657 215.313125) scale(0.2 -0.2)">
       <defs>
        <path id="DejaVuSans-36" d="M 2113 2584 
Q 1688 2584 1439 2293 
Q 1191 2003 1191 1497 
Q 1191 994 1439 701 
Q 1688 409 2113 409 
Q 2538 409 2786 701 
Q 3034 994 3034 1497 
Q 3034 2003 2786 2293 
Q 2538 2584 2113 2584 
z
M 3366 4563 
L 3366 3988 
Q 3128 4100 2886 4159 
Q 2644 4219 2406 4219 
Q 1781 4219 1451 3797 
Q 1122 3375 1075 2522 
Q 1259 2794 1537 2939 
Q 1816 3084 2150 3084 
Q 2853 3084 3261 2657 
Q 3669 2231 3669 1497 
Q 3669 778 3244 343 
Q 2819 -91 2113 -91 
Q 1303 -91 875 529 
Q 447 1150 447 2328 
Q 447 3434 972 4092 
Q 1497 4750 2381 4750 
Q 2619 4750 2861 4703 
Q 3103 4656 3366 4563 
z
" transform="scale(0.015625)"/>
       </defs>
       <use xlink:href="#DejaVuSans-36"/>
       <use xlink:href="#DejaVuSans-30" transform="translate(63.623047 0)"/>
       <use xlink:href="#DejaVuSans-30" transform="translate(127.246094 0)"/>
      </g>
     </g>
    </g>
    <g id="xtick_5">
     <g id="line2d_9">
      <path d="M 531.593198 193.11625 
L 531.593198 35.43625 
" clip-path="url(#pf161e4cb9e)" style="fill: none; stroke-dasharray: 2.96,1.28; stroke-dashoffset: 0; stroke: #b0b0b0; stroke-opacity: 0.3; stroke-width: 0.8"/>
     </g>
     <g id="line2d_10">
      <g>
       <use xlink:href="#md1b13d0cdb" x="531.593198" y="193.11625" style="stroke: #000000; stroke-width: 0.8"/>
      </g>
     </g>
     <g id="text_5">
      <!-- 800 -->
      <g transform="translate(512.505698 215.313125) scale(0.2 -0.2)">
       <defs>
        <path id="DejaVuSans-38" d="M 2034 2216 
Q 1584 2216 1326 1975 
Q 1069 1734 1069 1313 
Q 1069 891 1326 650 
Q 1584 409 2034 409 
Q 2484 409 2743 651 
Q 3003 894 3003 1313 
Q 3003 1734 2745 1975 
Q 2488 2216 2034 2216 
z
M 1403 2484 
Q 997 2584 770 2862 
Q 544 3141 544 3541 
Q 544 4100 942 4425 
Q 1341 4750 2034 4750 
Q 2731 4750 3128 4425 
Q 3525 4100 3525 3541 
Q 3525 3141 3298 2862 
Q 3072 2584 2669 2484 
Q 3125 2378 3379 2068 
Q 3634 1759 3634 1313 
Q 3634 634 3220 271 
Q 2806 -91 2034 -91 
Q 1263 -91 848 271 
Q 434 634 434 1313 
Q 434 1759 690 2068 
Q 947 2378 1403 2484 
z
M 1172 3481 
Q 1172 3119 1398 2916 
Q 1625 2713 2034 2713 
Q 2441 2713 2670 2916 
Q 2900 3119 2900 3481 
Q 2900 3844 2670 4047 
Q 2441 4250 2034 4250 
Q 1625 4250 1398 4047 
Q 1172 3844 1172 3481 
z
" transform="scale(0.015625)"/>
       </defs>
       <use xlink:href="#DejaVuSans-38"/>
       <use xlink:href="#DejaVuSans-30" transform="translate(63.623047 0)"/>
       <use xlink:href="#DejaVuSans-30" transform="translate(127.246094 0)"/>
      </g>
     </g>
    </g>
    <g id="xtick_6">
     <g id="line2d_11">
      <path d="M 637.414239 193.11625 
L 637.414239 35.43625 
" clip-path="url(#pf161e4cb9e)" style="fill: none; stroke-dasharray: 2.96,1.28; stroke-dashoffset: 0; stroke: #b0b0b0; stroke-opacity: 0.3; stroke-width: 0.8"/>
     </g>
     <g id="line2d_12">
      <g>
       <use xlink:href="#md1b13d0cdb" x="637.414239" y="193.11625" style="stroke: #000000; stroke-width: 0.8"/>
      </g>
     </g>
     <g id="text_6">
      <!-- 1000 -->
      <g transform="translate(611.964239 215.313125) scale(0.2 -0.2)">
       <defs>
        <path id="DejaVuSans-31" d="M 794 531 
L 1825 531 
L 1825 4091 
L 703 3866 
L 703 4441 
L 1819 4666 
L 2450 4666 
L 2450 531 
L 3481 531 
L 3481 0 
L 794 0 
L 794 531 
z
" transform="scale(0.015625)"/>
       </defs>
       <use xlink:href="#DejaVuSans-31"/>
       <use xlink:href="#DejaVuSans-30" transform="translate(63.623047 0)"/>
       <use xlink:href="#DejaVuSans-30" transform="translate(127.246094 0)"/>
       <use xlink:href="#DejaVuSans-30" transform="translate(190.869141 0)"/>
      </g>
     </g>
    </g>
    <g id="xtick_7">
     <g id="line2d_13">
      <path d="M 743.23528 193.11625 
L 743.23528 35.43625 
" clip-path="url(#pf161e4cb9e)" style="fill: none; stroke-dasharray: 2.96,1.28; stroke-dashoffset: 0; stroke: #b0b0b0; stroke-opacity: 0.3; stroke-width: 0.8"/>
     </g>
     <g id="line2d_14">
      <g>
       <use xlink:href="#md1b13d0cdb" x="743.23528" y="193.11625" style="stroke: #000000; stroke-width: 0.8"/>
      </g>
     </g>
     <g id="text_7">
      <!-- 1200 -->
      <g transform="translate(717.78528 215.313125) scale(0.2 -0.2)">
       <use xlink:href="#DejaVuSans-31"/>
       <use xlink:href="#DejaVuSans-32" transform="translate(63.623047 0)"/>
       <use xlink:href="#DejaVuSans-30" transform="translate(127.246094 0)"/>
       <use xlink:href="#DejaVuSans-30" transform="translate(190.869141 0)"/>
      </g>
     </g>
    </g>
    <g id="xtick_8">
     <g id="line2d_15">
      <path d="M 849.056321 193.11625 
L 849.056321 35.43625 
" clip-path="url(#pf161e4cb9e)" style="fill: none; stroke-dasharray: 2.96,1.28; stroke-dashoffset: 0; stroke: #b0b0b0; stroke-opacity: 0.3; stroke-width: 0.8"/>
     </g>
     <g id="line2d_16">
      <g>
       <use xlink:href="#md1b13d0cdb" x="849.056321" y="193.11625" style="stroke: #000000; stroke-width: 0.8"/>
      </g>
     </g>
     <g id="text_8">
      <!-- 1400 -->
      <g transform="translate(823.606321 215.313125) scale(0.2 -0.2)">
       <use xlink:href="#DejaVuSans-31"/>
       <use xlink:href="#DejaVuSans-34" transform="translate(63.623047 0)"/>
       <use xlink:href="#DejaVuSans-30" transform="translate(127.246094 0)"/>
       <use xlink:href="#DejaVuSans-30" transform="translate(190.869141 0)"/>
      </g>
     </g>
    </g>
    <g id="text_9">
     <!-- Time Index -->
     <g transform="translate(410.037656 240.189062) scale(0.22 -0.22)">
      <defs>
       <path id="DejaVuSans-Bold-54" d="M 31 4666 
L 4331 4666 
L 4331 3756 
L 2784 3756 
L 2784 0 
L 1581 0 
L 1581 3756 
L 31 3756 
L 31 4666 
z
" transform="scale(0.015625)"/>
       <path id="DejaVuSans-Bold-69" d="M 538 3500 
L 1656 3500 
L 1656 0 
L 538 0 
L 538 3500 
z
M 538 4863 
L 1656 4863 
L 1656 3950 
L 538 3950 
L 538 4863 
z
" transform="scale(0.015625)"/>
       <path id="DejaVuSans-Bold-6d" d="M 3781 2919 
Q 3994 3244 4286 3414 
Q 4578 3584 4928 3584 
Q 5531 3584 5847 3212 
Q 6163 2841 6163 2131 
L 6163 0 
L 5038 0 
L 5038 1825 
Q 5041 1866 5042 1909 
Q 5044 1953 5044 2034 
Q 5044 2406 4934 2573 
Q 4825 2741 4581 2741 
Q 4263 2741 4089 2478 
Q 3916 2216 3909 1719 
L 3909 0 
L 2784 0 
L 2784 1825 
Q 2784 2406 2684 2573 
Q 2584 2741 2328 2741 
Q 2006 2741 1831 2477 
Q 1656 2213 1656 1722 
L 1656 0 
L 531 0 
L 531 3500 
L 1656 3500 
L 1656 2988 
Q 1863 3284 2130 3434 
Q 2397 3584 2719 3584 
Q 3081 3584 3359 3409 
Q 3638 3234 3781 2919 
z
" transform="scale(0.015625)"/>
       <path id="DejaVuSans-Bold-65" d="M 4031 1759 
L 4031 1441 
L 1416 1441 
Q 1456 1047 1700 850 
Q 1944 653 2381 653 
Q 2734 653 3104 758 
Q 3475 863 3866 1075 
L 3866 213 
Q 3469 63 3072 -14 
Q 2675 -91 2278 -91 
Q 1328 -91 801 392 
Q 275 875 275 1747 
Q 275 2603 792 3093 
Q 1309 3584 2216 3584 
Q 3041 3584 3536 3087 
Q 4031 2591 4031 1759 
z
M 2881 2131 
Q 2881 2450 2695 2645 
Q 2509 2841 2209 2841 
Q 1884 2841 1681 2658 
Q 1478 2475 1428 2131 
L 2881 2131 
z
" transform="scale(0.015625)"/>
       <path id="DejaVuSans-Bold-20" transform="scale(0.015625)"/>
       <path id="DejaVuSans-Bold-49" d="M 588 4666 
L 1791 4666 
L 1791 0 
L 588 0 
L 588 4666 
z
" transform="scale(0.015625)"/>
       <path id="DejaVuSans-Bold-6e" d="M 4056 2131 
L 4056 0 
L 2931 0 
L 2931 347 
L 2931 1631 
Q 2931 2084 2911 2256 
Q 2891 2428 2841 2509 
Q 2775 2619 2662 2680 
Q 2550 2741 2406 2741 
Q 2056 2741 1856 2470 
Q 1656 2200 1656 1722 
L 1656 0 
L 538 0 
L 538 3500 
L 1656 3500 
L 1656 2988 
Q 1909 3294 2193 3439 
Q 2478 3584 2822 3584 
Q 3428 3584 3742 3212 
Q 4056 2841 4056 2131 
z
" transform="scale(0.015625)"/>
       <path id="DejaVuSans-Bold-64" d="M 2919 2988 
L 2919 4863 
L 4044 4863 
L 4044 0 
L 2919 0 
L 2919 506 
Q 2688 197 2409 53 
Q 2131 -91 1766 -91 
Q 1119 -91 703 423 
Q 288 938 288 1747 
Q 288 2556 703 3070 
Q 1119 3584 1766 3584 
Q 2128 3584 2408 3439 
Q 2688 3294 2919 2988 
z
M 2181 722 
Q 2541 722 2730 984 
Q 2919 1247 2919 1747 
Q 2919 2247 2730 2509 
Q 2541 2772 2181 2772 
Q 1825 2772 1636 2509 
Q 1447 2247 1447 1747 
Q 1447 1247 1636 984 
Q 1825 722 2181 722 
z
" transform="scale(0.015625)"/>
       <path id="DejaVuSans-Bold-78" d="M 1422 1791 
L 159 3500 
L 1344 3500 
L 2059 2463 
L 2784 3500 
L 3969 3500 
L 2706 1797 
L 4031 0 
L 2847 0 
L 2059 1106 
L 1281 0 
L 97 0 
L 1422 1791 
z
" transform="scale(0.015625)"/>
      </defs>
      <use xlink:href="#DejaVuSans-Bold-54"/>
      <use xlink:href="#DejaVuSans-Bold-69" transform="translate(68.212891 0)"/>
      <use xlink:href="#DejaVuSans-Bold-6d" transform="translate(102.490234 0)"/>
      <use xlink:href="#DejaVuSans-Bold-65" transform="translate(206.689453 0)"/>
      <use xlink:href="#DejaVuSans-Bold-20" transform="translate(274.511719 0)"/>
      <use xlink:href="#DejaVuSans-Bold-49" transform="translate(309.326172 0)"/>
      <use xlink:href="#DejaVuSans-Bold-6e" transform="translate(346.533203 0)"/>
      <use xlink:href="#DejaVuSans-Bold-64" transform="translate(417.724609 0)"/>
      <use xlink:href="#DejaVuSans-Bold-65" transform="translate(489.306641 0)"/>
      <use xlink:href="#DejaVuSans-Bold-78" transform="translate(557.128906 0)"/>
     </g>
    </g>
   </g>
   <g id="matplotlib.axis_2">
    <g id="ytick_1">
     <g id="line2d_17">
      <path d="M 71.298125 180.617318 
L 885.538125 180.617318 
" clip-path="url(#pf161e4cb9e)" style="fill: none; stroke-dasharray: 2.96,1.28; stroke-dashoffset: 0; stroke: #b0b0b0; stroke-opacity: 0.3; stroke-width: 0.8"/>
     </g>
     <g id="line2d_18">
      <defs>
       <path id="m57626d09f2" d="M 0 0 
L -3.5 0 
" style="stroke: #000000; stroke-width: 0.8"/>
      </defs>
      <g>
       <use xlink:href="#m57626d09f2" x="71.298125" y="180.617318" style="stroke: #000000; stroke-width: 0.8"/>
      </g>
     </g>
     <g id="text_10">
      <!-- 0.0 -->
      <g transform="translate(32.491875 188.215756) scale(0.2 -0.2)">
       <defs>
        <path id="DejaVuSans-2e" d="M 684 794 
L 1344 794 
L 1344 0 
L 684 0 
L 684 794 
z
" transform="scale(0.015625)"/>
       </defs>
       <use xlink:href="#DejaVuSans-30"/>
       <use xlink:href="#DejaVuSans-2e" transform="translate(63.623047 0)"/>
       <use xlink:href="#DejaVuSans-30" transform="translate(95.410156 0)"/>
      </g>
     </g>
    </g>
    <g id="ytick_2">
     <g id="line2d_19">
      <path d="M 71.298125 116.028081 
L 885.538125 116.028081 
" clip-path="url(#pf161e4cb9e)" style="fill: none; stroke-dasharray: 2.96,1.28; stroke-dashoffset: 0; stroke: #b0b0b0; stroke-opacity: 0.3; stroke-width: 0.8"/>
     </g>
     <g id="line2d_20">
      <g>
       <use xlink:href="#m57626d09f2" x="71.298125" y="116.028081" style="stroke: #000000; stroke-width: 0.8"/>
      </g>
     </g>
     <g id="text_11">
      <!-- 0.5 -->
      <g transform="translate(32.491875 123.626518) scale(0.2 -0.2)">
       <defs>
        <path id="DejaVuSans-35" d="M 691 4666 
L 3169 4666 
L 3169 4134 
L 1269 4134 
L 1269 2991 
Q 1406 3038 1543 3061 
Q 1681 3084 1819 3084 
Q 2600 3084 3056 2656 
Q 3513 2228 3513 1497 
Q 3513 744 3044 326 
Q 2575 -91 1722 -91 
Q 1428 -91 1123 -41 
Q 819 9 494 109 
L 494 744 
Q 775 591 1075 516 
Q 1375 441 1709 441 
Q 2250 441 2565 725 
Q 2881 1009 2881 1497 
Q 2881 1984 2565 2268 
Q 2250 2553 1709 2553 
Q 1456 2553 1204 2497 
Q 953 2441 691 2322 
L 691 4666 
z
" transform="scale(0.015625)"/>
       </defs>
       <use xlink:href="#DejaVuSans-30"/>
       <use xlink:href="#DejaVuSans-2e" transform="translate(63.623047 0)"/>
       <use xlink:href="#DejaVuSans-35" transform="translate(95.410156 0)"/>
      </g>
     </g>
    </g>
    <g id="ytick_3">
     <g id="line2d_21">
      <path d="M 71.298125 51.438843 
L 885.538125 51.438843 
" clip-path="url(#pf161e4cb9e)" style="fill: none; stroke-dasharray: 2.96,1.28; stroke-dashoffset: 0; stroke: #b0b0b0; stroke-opacity: 0.3; stroke-width: 0.8"/>
     </g>
     <g id="line2d_22">
      <g>
       <use xlink:href="#m57626d09f2" x="71.298125" y="51.438843" style="stroke: #000000; stroke-width: 0.8"/>
      </g>
     </g>
     <g id="text_12">
      <!-- 1.0 -->
      <g transform="translate(32.491875 59.03728) scale(0.2 -0.2)">
       <use xlink:href="#DejaVuSans-31"/>
       <use xlink:href="#DejaVuSans-2e" transform="translate(63.623047 0)"/>
       <use xlink:href="#DejaVuSans-30" transform="translate(95.410156 0)"/>
      </g>
     </g>
    </g>
    <g id="text_13">
     <!-- Normalized SST -->
     <g transform="translate(23.916563 200.839375) rotate(-90) scale(0.22 -0.22)">
      <defs>
       <path id="DejaVuSans-4e" d="M 628 4666 
L 1478 4666 
L 3547 763 
L 3547 4666 
L 4159 4666 
L 4159 0 
L 3309 0 
L 1241 3903 
L 1241 0 
L 628 0 
L 628 4666 
z
" transform="scale(0.015625)"/>
       <path id="DejaVuSans-6f" d="M 1959 3097 
Q 1497 3097 1228 2736 
Q 959 2375 959 1747 
Q 959 1119 1226 758 
Q 1494 397 1959 397 
Q 2419 397 2687 759 
Q 2956 1122 2956 1747 
Q 2956 2369 2687 2733 
Q 2419 3097 1959 3097 
z
M 1959 3584 
Q 2709 3584 3137 3096 
Q 3566 2609 3566 1747 
Q 3566 888 3137 398 
Q 2709 -91 1959 -91 
Q 1206 -91 779 398 
Q 353 888 353 1747 
Q 353 2609 779 3096 
Q 1206 3584 1959 3584 
z
" transform="scale(0.015625)"/>
       <path id="DejaVuSans-72" d="M 2631 2963 
Q 2534 3019 2420 3045 
Q 2306 3072 2169 3072 
Q 1681 3072 1420 2755 
Q 1159 2438 1159 1844 
L 1159 0 
L 581 0 
L 581 3500 
L 1159 3500 
L 1159 2956 
Q 1341 3275 1631 3429 
Q 1922 3584 2338 3584 
Q 2397 3584 2469 3576 
Q 2541 3569 2628 3553 
L 2631 2963 
z
" transform="scale(0.015625)"/>
       <path id="DejaVuSans-6d" d="M 3328 2828 
Q 3544 3216 3844 3400 
Q 4144 3584 4550 3584 
Q 5097 3584 5394 3201 
Q 5691 2819 5691 2113 
L 5691 0 
L 5113 0 
L 5113 2094 
Q 5113 2597 4934 2840 
Q 4756 3084 4391 3084 
Q 3944 3084 3684 2787 
Q 3425 2491 3425 1978 
L 3425 0 
L 2847 0 
L 2847 2094 
Q 2847 2600 2669 2842 
Q 2491 3084 2119 3084 
Q 1678 3084 1418 2786 
Q 1159 2488 1159 1978 
L 1159 0 
L 581 0 
L 581 3500 
L 1159 3500 
L 1159 2956 
Q 1356 3278 1631 3431 
Q 1906 3584 2284 3584 
Q 2666 3584 2933 3390 
Q 3200 3197 3328 2828 
z
" transform="scale(0.015625)"/>
       <path id="DejaVuSans-61" d="M 2194 1759 
Q 1497 1759 1228 1600 
Q 959 1441 959 1056 
Q 959 750 1161 570 
Q 1363 391 1709 391 
Q 2188 391 2477 730 
Q 2766 1069 2766 1631 
L 2766 1759 
L 2194 1759 
z
M 3341 1997 
L 3341 0 
L 2766 0 
L 2766 531 
Q 2569 213 2275 61 
Q 1981 -91 1556 -91 
Q 1019 -91 701 211 
Q 384 513 384 1019 
Q 384 1609 779 1909 
Q 1175 2209 1959 2209 
L 2766 2209 
L 2766 2266 
Q 2766 2663 2505 2880 
Q 2244 3097 1772 3097 
Q 1472 3097 1187 3025 
Q 903 2953 641 2809 
L 641 3341 
Q 956 3463 1253 3523 
Q 1550 3584 1831 3584 
Q 2591 3584 2966 3190 
Q 3341 2797 3341 1997 
z
" transform="scale(0.015625)"/>
       <path id="DejaVuSans-6c" d="M 603 4863 
L 1178 4863 
L 1178 0 
L 603 0 
L 603 4863 
z
" transform="scale(0.015625)"/>
       <path id="DejaVuSans-69" d="M 603 3500 
L 1178 3500 
L 1178 0 
L 603 0 
L 603 3500 
z
M 603 4863 
L 1178 4863 
L 1178 4134 
L 603 4134 
L 603 4863 
z
" transform="scale(0.015625)"/>
       <path id="DejaVuSans-7a" d="M 353 3500 
L 3084 3500 
L 3084 2975 
L 922 459 
L 3084 459 
L 3084 0 
L 275 0 
L 275 525 
L 2438 3041 
L 353 3041 
L 353 3500 
z
" transform="scale(0.015625)"/>
       <path id="DejaVuSans-65" d="M 3597 1894 
L 3597 1613 
L 953 1613 
Q 991 1019 1311 708 
Q 1631 397 2203 397 
Q 2534 397 2845 478 
Q 3156 559 3463 722 
L 3463 178 
Q 3153 47 2828 -22 
Q 2503 -91 2169 -91 
Q 1331 -91 842 396 
Q 353 884 353 1716 
Q 353 2575 817 3079 
Q 1281 3584 2069 3584 
Q 2775 3584 3186 3129 
Q 3597 2675 3597 1894 
z
M 3022 2063 
Q 3016 2534 2758 2815 
Q 2500 3097 2075 3097 
Q 1594 3097 1305 2825 
Q 1016 2553 972 2059 
L 3022 2063 
z
" transform="scale(0.015625)"/>
       <path id="DejaVuSans-64" d="M 2906 2969 
L 2906 4863 
L 3481 4863 
L 3481 0 
L 2906 0 
L 2906 525 
Q 2725 213 2448 61 
Q 2172 -91 1784 -91 
Q 1150 -91 751 415 
Q 353 922 353 1747 
Q 353 2572 751 3078 
Q 1150 3584 1784 3584 
Q 2172 3584 2448 3432 
Q 2725 3281 2906 2969 
z
M 947 1747 
Q 947 1113 1208 752 
Q 1469 391 1925 391 
Q 2381 391 2643 752 
Q 2906 1113 2906 1747 
Q 2906 2381 2643 2742 
Q 2381 3103 1925 3103 
Q 1469 3103 1208 2742 
Q 947 2381 947 1747 
z
" transform="scale(0.015625)"/>
       <path id="DejaVuSans-20" transform="scale(0.015625)"/>
       <path id="DejaVuSans-53" d="M 3425 4513 
L 3425 3897 
Q 3066 4069 2747 4153 
Q 2428 4238 2131 4238 
Q 1616 4238 1336 4038 
Q 1056 3838 1056 3469 
Q 1056 3159 1242 3001 
Q 1428 2844 1947 2747 
L 2328 2669 
Q 3034 2534 3370 2195 
Q 3706 1856 3706 1288 
Q 3706 609 3251 259 
Q 2797 -91 1919 -91 
Q 1588 -91 1214 -16 
Q 841 59 441 206 
L 441 856 
Q 825 641 1194 531 
Q 1563 422 1919 422 
Q 2459 422 2753 634 
Q 3047 847 3047 1241 
Q 3047 1584 2836 1778 
Q 2625 1972 2144 2069 
L 1759 2144 
Q 1053 2284 737 2584 
Q 422 2884 422 3419 
Q 422 4038 858 4394 
Q 1294 4750 2059 4750 
Q 2388 4750 2728 4690 
Q 3069 4631 3425 4513 
z
" transform="scale(0.015625)"/>
       <path id="DejaVuSans-54" d="M -19 4666 
L 3928 4666 
L 3928 4134 
L 2272 4134 
L 2272 0 
L 1638 0 
L 1638 4134 
L -19 4134 
L -19 4666 
z
" transform="scale(0.015625)"/>
      </defs>
      <use xlink:href="#DejaVuSans-4e"/>
      <use xlink:href="#DejaVuSans-6f" transform="translate(74.804688 0)"/>
      <use xlink:href="#DejaVuSans-72" transform="translate(135.986328 0)"/>
      <use xlink:href="#DejaVuSans-6d" transform="translate(175.349609 0)"/>
      <use xlink:href="#DejaVuSans-61" transform="translate(272.761719 0)"/>
      <use xlink:href="#DejaVuSans-6c" transform="translate(334.041016 0)"/>
      <use xlink:href="#DejaVuSans-69" transform="translate(361.824219 0)"/>
      <use xlink:href="#DejaVuSans-7a" transform="translate(389.607422 0)"/>
      <use xlink:href="#DejaVuSans-65" transform="translate(442.097656 0)"/>
      <use xlink:href="#DejaVuSans-64" transform="translate(503.621094 0)"/>
      <use xlink:href="#DejaVuSans-20" transform="translate(567.097656 0)"/>
      <use xlink:href="#DejaVuSans-53" transform="translate(598.884766 0)"/>
      <use xlink:href="#DejaVuSans-53" transform="translate(662.361328 0)"/>
      <use xlink:href="#DejaVuSans-54" transform="translate(725.837891 0)"/>
     </g>
    </g>
   </g>
   <g id="line2d_23">
    <path d="M 108.309034 144.362039 
L 108.838139 143.752706 
L 109.367245 150.912362 
L 109.89635 155.634689 
L 110.425455 148.170367 
L 110.95456 148.3227 
L 111.483665 153.654358 
L 112.012771 152.588027 
L 112.541876 157.919685 
L 113.070981 164.470009 
L 113.600086 155.025356 
L 114.129191 165.841007 
L 114.658297 161.880346 
L 115.187402 156.548687 
L 115.716507 159.13835 
L 116.245612 138.116381 
L 116.774717 128.367062 
L 117.303823 140.249045 
L 117.832928 139.944379 
L 118.362033 139.792046 
L 118.891138 138.421048 
L 119.420243 129.128728 
L 119.949349 107.345094 
L 120.478454 104.298431 
L 121.007559 103.2321 
L 121.536664 104.755431 
L 122.065769 112.372086 
L 122.594875 103.993765 
L 123.12398 98.966773 
L 123.653085 87.389456 
L 124.18219 82.971796 
L 124.711295 85.10446 
L 125.240401 76.573806 
L 125.769506 64.387157 
L 126.298611 69.261817 
L 126.827716 68.652484 
L 127.356821 70.480481 
L 127.885927 73.83181 
L 128.415032 65.301156 
L 128.944137 72.460812 
L 129.473242 72.765478 
L 130.002347 78.554136 
L 130.531453 79.011136 
L 131.060558 83.276463 
L 131.589663 90.283786 
L 132.118768 101.404102 
L 132.647874 108.259092 
L 133.176979 121.055073 
L 133.706084 121.055073 
L 134.764294 132.327723 
L 135.2934 141.163044 
L 135.822505 139.944379 
L 136.35161 140.553711 
L 136.880715 135.069719 
L 137.938926 155.177689 
L 138.468031 159.747683 
L 138.997136 158.529018 
L 139.526241 160.966348 
L 140.584452 170.868 
L 141.113557 169.344669 
L 141.642662 164.927008 
L 142.171767 161.880346 
L 142.700872 157.767352 
L 143.229978 146.190036 
L 143.759083 143.44804 
L 144.288188 140.096712 
L 144.817293 128.671729 
L 145.346398 129.281061 
L 145.875504 124.406402 
L 146.404609 125.168067 
L 146.933714 123.187737 
L 147.462819 120.598074 
L 147.991924 111.458088 
L 148.52103 107.497427 
L 149.57924 86.932457 
L 150.108345 85.409126 
L 150.63745 88.760454 
L 151.166556 74.288809 
L 151.695661 78.858802 
L 152.224766 73.070144 
L 153.282977 65.148823 
L 153.812082 69.261817 
L 154.341187 60.731163 
L 154.870292 59.055498 
L 155.399397 64.99649 
L 155.928503 65.605822 
L 156.457608 71.699146 
L 156.986713 69.261817 
L 158.044923 87.237123 
L 159.103134 93.482781 
L 159.632239 91.045451 
L 160.161344 95.767777 
L 161.219555 116.789746 
L 161.74866 119.531742 
L 162.277765 125.625067 
L 162.80687 136.136051 
L 163.335975 138.116381 
L 163.865081 137.507049 
L 164.394186 151.826361 
L 164.923291 162.337346 
L 165.452396 162.489679 
L 165.981501 166.755006 
L 166.510607 169.192335 
L 167.039712 180.617318 
L 167.568817 179.550987 
L 168.097922 172.391331 
L 168.627027 175.742659 
L 169.156133 163.708344 
L 170.214343 144.209706 
L 170.743448 155.634689 
L 171.272553 148.018033 
L 171.801659 150.607696 
L 172.330764 149.389031 
L 172.859869 151.978694 
L 173.388974 142.381708 
L 174.447185 138.268714 
L 174.97629 130.347393 
L 175.505395 118.46541 
L 176.0345 101.251769 
L 176.563606 100.490104 
L 177.092711 96.681776 
L 177.621816 96.986442 
L 178.150921 95.767777 
L 178.680026 97.138775 
L 179.209132 95.767777 
L 179.738237 91.654783 
L 180.267342 85.866125 
L 180.796447 81.600798 
L 181.325552 76.26914 
L 181.854658 77.944804 
L 182.383763 77.944804 
L 182.912868 72.003813 
L 183.441973 71.39448 
L 183.971078 73.374811 
L 185.029289 90.131452 
L 185.558394 95.463111 
L 186.087499 102.013435 
L 186.616604 110.848755 
L 187.14571 115.723415 
L 187.674815 117.703745 
L 188.20392 131.109058 
L 188.733025 133.851054 
L 190.320341 140.096712 
L 190.849446 137.811715 
L 191.907656 158.072019 
L 192.436762 159.443016 
L 192.965867 163.251344 
L 193.494972 175.894992 
L 194.024077 176.047325 
L 194.553183 173.152996 
L 195.082288 160.814014 
L 195.611393 165.231675 
L 196.140498 171.324999 
L 196.669603 170.258667 
L 197.727814 142.077042 
L 198.256919 138.421048 
L 198.786024 132.784723 
L 199.315129 134.917386 
L 199.844235 128.519396 
L 200.37334 119.531742 
L 201.43155 128.062396 
L 201.960655 123.644736 
L 202.489761 101.861102 
L 203.018866 91.807117 
L 203.547971 83.885795 
L 204.077076 84.799794 
L 204.606181 78.401803 
L 205.135287 77.183138 
L 205.664392 77.030805 
L 206.193497 73.83181 
L 206.722602 77.640138 
L 207.251707 77.944804 
L 207.780813 74.745808 
L 208.309918 75.81214 
L 208.839023 68.652484 
L 209.897233 64.844156 
L 210.426339 65.148823 
L 210.955444 66.97682 
L 211.484549 73.070144 
L 212.013654 75.050475 
L 212.542759 83.124129 
L 213.071865 89.369787 
L 213.60097 98.052774 
L 214.65918 120.445741 
L 215.188286 118.92241 
L 215.717391 122.273738 
L 216.246496 131.261392 
L 217.304706 137.964048 
L 217.833812 137.202383 
L 219.421127 159.59535 
L 219.950232 159.900016 
L 220.479338 163.860677 
L 221.008443 169.954001 
L 221.537548 161.728013 
L 222.066653 162.794345 
L 222.595758 167.059672 
L 223.124864 163.403677 
L 223.653969 157.15802 
L 224.183074 169.801668 
L 224.712179 168.43067 
L 225.241284 165.231675 
L 225.77039 154.72069 
L 226.299495 158.072019 
L 226.8286 155.787022 
L 227.357705 144.666705 
L 227.88681 139.639712 
L 228.415916 139.487379 
L 228.945021 133.698721 
L 229.474126 121.35974 
L 230.532336 101.404102 
L 231.061442 101.556435 
L 231.590547 99.119106 
L 232.119652 105.974096 
L 232.648757 102.470434 
L 233.706968 87.54179 
L 234.236073 83.276463 
L 234.765178 83.581129 
L 235.294283 66.824487 
L 235.823388 68.500151 
L 236.352494 68.043152 
L 237.410704 72.156146 
L 237.939809 76.116806 
L 238.468915 69.41415 
L 238.99802 64.844156 
L 239.527125 73.679477 
L 240.05623 71.851479 
L 240.585335 74.898142 
L 241.114441 82.057798 
L 241.643546 85.866125 
L 242.172651 87.389456 
L 242.701756 94.853779 
L 243.230861 92.568782 
L 243.759967 97.138775 
L 244.289072 104.603098 
L 244.818177 105.21243 
L 245.876387 115.875748 
L 246.405493 122.730737 
L 246.934598 124.558735 
L 247.463703 129.585727 
L 247.992808 129.128728 
L 249.051019 145.88537 
L 249.580124 158.529018 
L 250.109229 155.482356 
L 250.638334 155.787022 
L 251.167439 162.032679 
L 251.696545 160.052349 
L 252.22565 160.509348 
L 252.754755 162.642012 
L 253.28386 163.251344 
L 254.342071 149.541364 
L 254.871176 157.615019 
L 255.400281 154.111358 
L 255.929386 148.932032 
L 256.458491 138.878047 
L 256.987597 124.406402 
L 257.516702 124.558735 
L 258.045807 106.126429 
L 258.574912 103.689099 
L 259.633123 80.6868 
L 260.162228 80.382133 
L 260.691333 85.561459 
L 261.220438 76.878472 
L 261.749544 80.6868 
L 262.278649 78.554136 
L 262.807754 83.276463 
L 263.336859 85.10446 
L 263.865964 79.468135 
L 264.39507 79.163469 
L 264.924175 73.984143 
L 265.45328 73.679477 
L 265.982385 79.772801 
L 266.51149 72.613145 
L 267.040596 75.659807 
L 267.569701 79.925134 
L 268.098806 80.6868 
L 268.627911 79.011136 
L 269.686122 97.443442 
L 270.215227 101.404102 
L 270.744332 106.735761 
L 271.273437 113.743084 
L 271.802542 113.133752 
L 272.331648 121.512073 
L 272.860753 114.352417 
L 273.389858 125.3204 
L 273.918963 130.652059 
L 274.977174 147.8657 
L 275.506279 145.123704 
L 276.035384 146.951702 
L 276.564489 153.654358 
L 277.093594 166.298006 
L 277.6227 167.821337 
L 278.151805 167.364338 
L 278.68091 169.497002 
L 279.210015 163.403677 
L 279.739121 160.052349 
L 280.268226 171.324999 
L 280.797331 155.025356 
L 281.326436 148.475033 
L 281.855541 146.799369 
L 282.384647 131.261392 
L 282.913752 146.799369 
L 283.442857 156.853354 
L 283.971962 140.096712 
L 284.501067 118.008411 
L 285.030173 107.19276 
L 285.559278 105.517096 
L 286.088383 109.934756 
L 287.146593 88.608121 
L 287.675699 92.264116 
L 288.204804 87.08479 
L 288.733909 87.846456 
L 290.85033 61.188162 
L 291.379435 59.512498 
L 291.90854 59.969497 
L 292.437645 52.809841 
L 292.966751 60.731163 
L 293.495856 59.817164 
L 294.024961 59.512498 
L 294.554066 62.863826 
L 295.083171 71.699146 
L 295.612277 77.944804 
L 296.141382 79.925134 
L 297.199592 87.694123 
L 298.257803 122.730737 
L 298.786908 123.797069 
L 299.316013 116.028081 
L 299.845118 124.558735 
L 300.374224 143.295707 
L 300.903329 148.170367 
L 301.432434 160.357015 
L 301.961539 162.794345 
L 302.490644 169.497002 
L 303.01975 178.332322 
L 304.07796 172.543664 
L 304.607065 162.337346 
L 305.13617 160.204682 
L 305.665276 160.966348 
L 306.194381 147.104035 
L 306.723486 144.971371 
L 307.252591 146.190036 
L 307.781696 150.760029 
L 308.310802 158.833684 
L 308.839907 155.634689 
L 309.369012 140.706044 
L 309.898117 151.674028 
L 310.427222 141.01071 
L 310.956328 141.924709 
L 311.485433 153.806692 
L 312.014538 153.045026 
L 312.543643 148.3227 
L 313.072748 133.394055 
L 313.601854 108.716092 
L 314.130959 90.436119 
L 314.660064 101.099436 
L 315.189169 97.748108 
L 315.718274 92.721115 
L 316.24738 88.760454 
L 316.776485 83.733462 
L 317.30559 83.276463 
L 317.834695 71.089814 
L 318.3638 62.711493 
L 318.892906 65.910488 
L 319.422011 65.301156 
L 319.951116 63.473159 
L 320.480221 70.023482 
L 321.009327 72.765478 
L 321.538432 63.473159 
L 322.067537 67.586152 
L 322.596642 66.97682 
L 323.125747 70.023482 
L 323.654853 75.81214 
L 324.183958 79.925134 
L 324.713063 91.350117 
L 325.242168 105.974096 
L 325.771273 108.716092 
L 326.300379 127.300731 
L 326.829484 125.625067 
L 327.358589 135.831385 
L 327.887694 141.772376 
L 328.416799 137.202383 
L 329.47501 159.290683 
L 330.004115 158.681351 
L 330.53322 158.833684 
L 331.062325 166.450339 
L 331.591431 176.656658 
L 332.649641 168.583003 
L 333.707851 157.15802 
L 334.236957 154.568357 
L 334.766062 155.939355 
L 335.295167 163.708344 
L 336.353377 140.249045 
L 336.882483 144.819038 
L 337.411588 135.069719 
L 338.469798 151.826361 
L 338.998903 141.163044 
L 339.528009 139.944379 
L 340.586219 115.114082 
L 341.115324 109.63009 
L 342.173535 105.517096 
L 342.70264 104.603098 
L 343.231745 105.060097 
L 343.76085 100.337771 
L 344.289956 92.416449 
L 344.819061 94.092113 
L 345.348166 93.93978 
L 345.877271 87.08479 
L 346.406376 83.428796 
L 346.935482 86.475458 
L 347.464587 84.190461 
L 347.993692 67.433819 
L 348.522797 73.527144 
L 349.051902 74.136476 
L 349.581008 75.507474 
L 350.110113 79.011136 
L 350.639218 80.534467 
L 351.168323 83.428796 
L 352.226534 79.925134 
L 352.755639 90.131452 
L 353.284744 97.900441 
L 353.813849 102.470434 
L 354.342954 108.106759 
L 354.87206 109.325424 
L 355.401165 107.64976 
L 355.93027 117.094412 
L 356.98848 125.3204 
L 357.517586 131.261392 
L 358.046691 128.214729 
L 358.575796 137.354716 
L 359.104901 137.507049 
L 359.634006 138.725714 
L 360.163112 136.59305 
L 360.692217 138.573381 
L 361.221322 139.792046 
L 361.750427 137.659382 
L 362.279532 137.964048 
L 362.808638 138.573381 
L 363.337743 137.964048 
L 363.866848 141.620043 
L 364.395953 137.05005 
L 364.925059 130.499726 
L 365.454164 119.227076 
L 365.983269 114.809416 
L 366.512374 113.286085 
L 367.041479 117.551412 
L 367.570585 106.431095 
L 368.09969 107.802093 
L 368.628795 103.993765 
L 369.1579 97.291108 
L 370.216111 93.635114 
L 370.745216 89.674453 
L 371.274321 88.760454 
L 371.803426 89.826786 
L 372.332531 88.912788 
L 372.861637 86.627791 
L 373.390742 79.620468 
L 373.919847 76.726139 
L 374.448952 73.070144 
L 374.978057 74.745808 
L 375.507163 72.765478 
L 376.036268 72.613145 
L 376.565373 68.804817 
L 377.094478 66.519821 
L 377.623583 72.003813 
L 378.152689 72.308479 
L 378.681794 76.26914 
L 379.210899 81.753131 
L 379.740004 85.10446 
L 380.269109 95.92011 
L 380.798215 98.662106 
L 381.32732 104.146098 
L 381.856425 108.259092 
L 382.38553 114.961749 
L 382.914635 109.782423 
L 383.443741 118.313077 
L 383.972846 124.711068 
L 384.501951 125.7774 
L 385.031056 125.625067 
L 385.560162 135.679052 
L 386.089267 137.05005 
L 386.618372 140.401378 
L 387.147477 138.878047 
L 387.676582 141.620043 
L 388.205688 133.698721 
L 388.734793 129.128728 
L 389.263898 135.679052 
L 389.793003 134.917386 
L 390.322108 128.367062 
L 390.851214 126.843731 
L 391.380319 142.381708 
L 391.909424 141.772376 
L 392.967634 126.843731 
L 393.49674 114.961749 
L 394.025845 108.563758 
L 394.55495 100.642437 
L 395.084055 97.138775 
L 395.61316 88.455788 
L 396.142266 93.330448 
L 396.671371 82.819463 
L 397.200476 81.753131 
L 397.729581 83.885795 
L 398.258686 83.581129 
L 398.787792 84.952127 
L 399.316897 87.998789 
L 400.375107 82.971796 
L 400.904212 77.183138 
L 401.433318 76.116806 
L 401.962423 78.401803 
L 402.491528 79.772801 
L 403.020633 76.116806 
L 403.549738 78.401803 
L 404.078844 73.984143 
L 404.607949 74.745808 
L 405.137054 74.898142 
L 405.666159 78.24947 
L 406.195265 79.925134 
L 406.72437 84.342794 
L 407.253475 83.885795 
L 407.78258 85.713792 
L 408.311685 89.065121 
L 409.369896 99.119106 
L 409.899001 98.35744 
L 410.428106 107.345094 
L 410.957211 108.259092 
L 412.015422 122.121405 
L 412.544527 126.843731 
L 413.073632 128.671729 
L 413.602737 127.300731 
L 414.131843 130.347393 
L 414.660948 134.61272 
L 415.190053 134.917386 
L 415.719158 141.924709 
L 416.248263 138.878047 
L 416.777369 141.01071 
L 417.306474 132.17539 
L 417.835579 139.639712 
L 418.893789 128.214729 
L 419.422895 126.996065 
L 419.952 123.949402 
L 420.481105 124.863401 
L 421.01021 121.055073 
L 421.539315 114.200083 
L 422.068421 100.185438 
L 422.597526 101.708769 
L 423.655736 96.37711 
L 424.184841 92.111783 
L 424.713947 83.885795 
L 425.243052 80.991466 
L 425.772157 81.296132 
L 426.301262 79.468135 
L 426.830368 80.2298 
L 427.359473 78.401803 
L 427.888578 82.057798 
L 428.946788 80.6868 
L 429.475894 80.534467 
L 430.004999 71.242147 
L 431.063209 61.797494 
L 431.592314 58.1415 
L 432.12142 63.930158 
L 433.17963 72.460812 
L 433.708735 74.441142 
L 434.23784 83.428796 
L 434.766946 87.998789 
L 435.296051 88.608121 
L 435.825156 98.662106 
L 436.354261 98.35744 
L 436.883366 99.423772 
L 437.412472 109.173091 
L 437.941577 106.278762 
L 438.470682 110.391756 
L 438.999787 121.969072 
L 439.528892 127.75773 
L 440.057998 144.362039 
L 440.587103 144.819038 
L 441.116208 146.799369 
L 441.645313 150.150697 
L 442.174418 151.521695 
L 442.703524 157.310353 
L 443.232629 150.912362 
L 443.761734 153.045026 
L 444.290839 153.806692 
L 445.34905 150.455363 
L 445.878155 152.435694 
L 446.40726 162.642012 
L 446.936365 150.150697 
L 447.465471 151.064696 
L 447.994576 141.924709 
L 448.523681 148.018033 
L 449.052786 148.3227 
L 450.110997 123.644736 
L 451.169207 97.748108 
L 452.227417 84.647461 
L 452.756523 87.389456 
L 453.285628 84.799794 
L 453.814733 84.038128 
L 454.343838 87.08479 
L 454.872943 78.097137 
L 455.402049 73.222477 
L 455.931154 72.003813 
L 456.460259 75.659807 
L 456.989364 69.718816 
L 457.518469 60.274163 
L 458.047575 65.910488 
L 458.57668 69.261817 
L 459.105785 70.480481 
L 459.63489 75.202808 
L 460.163995 80.991466 
L 460.693101 83.124129 
L 461.222206 86.932457 
L 461.751311 88.455788 
L 462.280416 95.158445 
L 462.809521 94.701446 
L 463.338627 103.079767 
L 463.867732 108.106759 
L 464.396837 111.305754 
L 464.925942 122.883071 
L 465.984153 136.288384 
L 466.513258 142.534042 
L 467.042363 142.838708 
L 467.571468 152.892693 
L 468.100574 158.529018 
L 468.629679 171.020333 
L 469.158784 176.961324 
L 469.687889 173.000663 
L 470.216994 174.219328 
L 470.7461 170.868 
L 471.275205 160.204682 
L 471.80431 159.443016 
L 472.333415 158.986017 
L 472.86252 156.091688 
L 473.391626 147.713367 
L 473.920731 151.826361 
L 474.449836 144.209706 
L 474.978941 139.792046 
L 475.508046 139.487379 
L 476.037152 133.394055 
L 476.566257 136.136051 
L 477.095362 129.585727 
L 477.624467 125.3204 
L 478.153572 117.551412 
L 478.682678 103.689099 
L 479.211783 95.006112 
L 479.740888 95.158445 
L 480.269993 79.163469 
L 480.799098 81.143799 
L 481.328204 90.588452 
L 481.857309 82.362464 
L 483.444624 74.593475 
L 483.97373 70.632815 
L 484.502835 83.581129 
L 485.03194 77.335471 
L 485.561045 68.95715 
L 486.09015 65.301156 
L 486.619256 66.824487 
L 487.148361 66.97682 
L 487.677466 66.367488 
L 488.206571 72.765478 
L 488.735676 72.156146 
L 489.264782 74.745808 
L 490.322992 92.568782 
L 490.852097 86.018458 
L 491.910308 98.052774 
L 492.439413 110.696422 
L 493.497623 123.187737 
L 494.026729 116.789746 
L 494.555834 124.406402 
L 495.084939 126.691398 
L 496.143149 139.792046 
L 496.672255 137.659382 
L 497.20136 132.480056 
L 497.730465 144.819038 
L 498.25957 146.951702 
L 498.788675 148.475033 
L 499.317781 152.435694 
L 499.846886 151.978694 
L 500.375991 157.919685 
L 500.905096 156.853354 
L 501.434201 147.256368 
L 501.963307 152.435694 
L 502.492412 140.553711 
L 503.021517 132.17539 
L 503.550622 137.811715 
L 504.079727 134.308054 
L 504.608833 136.59305 
L 505.137938 128.824062 
L 506.196148 118.770077 
L 506.725253 111.610421 
L 507.783464 103.993765 
L 508.841674 82.66713 
L 509.370779 82.66713 
L 509.899885 79.620468 
L 510.42899 72.765478 
L 510.958095 74.136476 
L 511.4872 72.917811 
L 512.016306 67.586152 
L 512.545411 57.836834 
L 513.074516 53.72384 
L 513.603621 55.094838 
L 514.132726 54.485505 
L 514.661832 61.188162 
L 515.190937 60.578829 
L 515.720042 68.652484 
L 516.249147 66.367488 
L 516.778252 74.745808 
L 517.307358 80.077467 
L 517.836463 81.448465 
L 518.365568 86.780124 
L 518.894673 100.337771 
L 519.952884 113.286085 
L 520.481989 118.313077 
L 521.011094 125.7774 
L 522.069304 130.499726 
L 522.59841 144.057373 
L 523.127515 152.892693 
L 524.185725 162.337346 
L 524.71483 162.337346 
L 525.243936 158.529018 
L 525.773041 164.622342 
L 526.831251 157.310353 
L 527.360356 169.801668 
L 527.889462 173.914662 
L 528.418567 171.020333 
L 528.947672 162.946678 
L 529.476777 159.443016 
L 530.005882 145.123704 
L 530.534988 135.222052 
L 531.064093 140.401378 
L 531.593198 149.541364 
L 532.122303 119.684075 
L 532.651409 107.64976 
L 533.180514 103.841432 
L 533.709619 97.595775 
L 534.238724 83.581129 
L 534.767829 86.475458 
L 535.296935 83.124129 
L 535.82604 75.050475 
L 536.355145 76.116806 
L 536.88425 78.401803 
L 537.413355 69.566483 
L 537.942461 72.308479 
L 538.471566 68.652484 
L 539.000671 62.55916 
L 539.529776 60.274163 
L 540.058881 51.591176 
L 540.587987 51.438843 
L 541.117092 58.1415 
L 541.646197 61.035829 
L 542.175302 66.824487 
L 542.704407 67.586152 
L 543.233513 72.003813 
L 543.762618 72.308479 
L 544.291723 77.183138 
L 544.820828 83.428796 
L 545.349933 84.190461 
L 545.879039 87.54179 
L 546.408144 89.674453 
L 546.937249 99.271439 
L 547.466354 105.974096 
L 547.995459 110.239423 
L 548.524565 116.180414 
L 549.05367 128.214729 
L 549.582775 131.261392 
L 550.11188 137.964048 
L 550.640985 140.401378 
L 551.170091 139.03038 
L 551.699196 138.573381 
L 552.228301 136.440717 
L 552.757406 141.772376 
L 553.286512 153.806692 
L 553.815617 153.806692 
L 554.344722 153.654358 
L 554.873827 147.104035 
L 555.402932 138.878047 
L 555.932038 133.241722 
L 556.461143 133.089389 
L 556.990248 132.327723 
L 557.519353 132.480056 
L 558.048458 128.671729 
L 558.577564 128.519396 
L 559.106669 129.585727 
L 559.635774 126.691398 
L 560.164879 131.261392 
L 560.693984 124.101735 
L 561.752195 99.880771 
L 562.2813 92.568782 
L 562.810405 94.853779 
L 563.33951 92.721115 
L 563.868616 85.713792 
L 564.397721 80.6868 
L 564.926826 77.792471 
L 565.455931 72.613145 
L 565.985036 72.917811 
L 566.514142 77.335471 
L 567.043247 75.659807 
L 567.572352 67.890819 
L 568.630562 71.089814 
L 569.688773 75.964473 
L 570.217878 65.758155 
L 570.746983 70.328148 
L 571.276088 73.374811 
L 571.805194 78.097137 
L 572.334299 85.10446 
L 572.863404 93.93978 
L 573.392509 100.79477 
L 573.921615 98.35744 
L 574.45072 105.364763 
L 574.979825 105.060097 
L 575.50893 114.809416 
L 576.038035 114.200083 
L 577.096246 125.3204 
L 578.154456 130.499726 
L 578.683561 131.870724 
L 579.212667 136.745383 
L 579.741772 157.15802 
L 580.270877 156.853354 
L 581.329087 146.951702 
L 581.858193 137.202383 
L 582.387298 141.772376 
L 582.916403 142.838708 
L 583.445508 125.7774 
L 583.974613 129.585727 
L 584.503719 137.964048 
L 585.032824 132.023057 
L 585.561929 123.644736 
L 586.091034 125.168067 
L 586.620139 117.246746 
L 587.149245 123.949402 
L 587.67835 115.571081 
L 588.207455 105.364763 
L 588.73656 101.404102 
L 589.265665 99.576105 
L 589.794771 91.50245 
L 590.852981 94.853779 
L 591.382086 90.283786 
L 591.911191 76.878472 
L 592.440297 79.163469 
L 592.969402 82.210131 
L 593.498507 76.573806 
L 594.027612 75.355141 
L 594.556718 74.745808 
L 595.085823 75.81214 
L 595.614928 73.070144 
L 596.144033 72.003813 
L 596.673138 66.062821 
L 597.731349 75.81214 
L 598.260454 80.839133 
L 598.789559 82.971796 
L 599.318664 84.495127 
L 599.84777 87.54179 
L 600.376875 91.807117 
L 600.90598 88.912788 
L 601.435085 91.95945 
L 601.96419 101.099436 
L 602.493296 102.622767 
L 603.022401 115.266415 
L 603.551506 122.121405 
L 604.080611 124.863401 
L 604.609716 123.035404 
L 605.138822 131.109058 
L 605.667927 129.73806 
L 606.197032 136.440717 
L 606.726137 137.964048 
L 607.255242 141.315377 
L 607.784348 136.136051 
L 608.313453 134.003387 
L 609.371663 148.475033 
L 609.900768 141.620043 
L 610.429874 139.792046 
L 610.958979 135.222052 
L 611.488084 128.519396 
L 612.017189 119.227076 
L 612.546294 135.222052 
L 613.0754 138.116381 
L 613.604505 139.487379 
L 614.662715 111.915087 
L 615.720926 100.642437 
L 616.250031 103.536766 
L 617.308241 87.389456 
L 618.366452 80.839133 
L 618.895557 82.362464 
L 619.424662 76.421473 
L 619.953767 74.136476 
L 620.482873 74.898142 
L 621.011978 79.772801 
L 621.541083 77.792471 
L 622.070188 70.632815 
L 623.128399 65.910488 
L 623.657504 64.99649 
L 624.186609 62.254494 
L 624.715714 60.12183 
L 625.244819 60.426496 
L 625.773925 61.949827 
L 626.30303 65.301156 
L 627.36124 79.163469 
L 628.419451 98.205107 
L 628.948556 99.576105 
L 629.477661 106.735761 
L 630.006766 109.020758 
L 631.064977 125.472733 
L 631.594082 129.281061 
L 632.123187 126.843731 
L 632.652292 126.082066 
L 633.181397 125.7774 
L 633.710503 130.042727 
L 634.239608 145.428371 
L 635.297818 150.455363 
L 635.826923 148.627366 
L 636.356029 147.408701 
L 636.885134 156.091688 
L 637.414239 160.814014 
L 637.943344 156.091688 
L 638.47245 157.919685 
L 639.001555 151.674028 
L 639.53066 148.3227 
L 640.58887 135.069719 
L 641.117976 145.580704 
L 642.176186 131.261392 
L 642.705291 130.042727 
L 643.234396 139.487379 
L 643.763502 130.042727 
L 644.292607 118.008411 
L 644.821712 95.463111 
L 645.350817 84.190461 
L 645.879922 85.256793 
L 646.409028 77.792471 
L 646.938133 73.527144 
L 647.467238 73.374811 
L 647.996343 70.328148 
L 648.525448 65.605822 
L 649.054554 67.586152 
L 650.112764 63.625492 
L 650.641869 66.672154 
L 651.170974 63.473159 
L 652.229185 60.426496 
L 652.75829 57.532167 
L 653.287395 62.102161 
L 654.345606 76.116806 
L 654.874711 75.964473 
L 655.403816 84.190461 
L 655.932921 98.662106 
L 656.462026 104.907764 
L 656.991132 113.590751 
L 657.520237 114.200083 
L 658.049342 122.578404 
L 659.107553 132.937056 
L 659.636658 137.05005 
L 660.165763 138.725714 
L 660.694868 141.46771 
L 661.223973 157.615019 
L 661.753079 157.462686 
L 662.282184 156.853354 
L 663.340394 162.185012 
L 663.869499 159.290683 
L 664.398605 161.423347 
L 664.92771 168.126004 
L 665.456815 162.794345 
L 665.98592 167.059672 
L 666.515025 169.497002 
L 667.044131 159.747683 
L 667.573236 154.568357 
L 668.102341 157.15802 
L 668.631446 152.892693 
L 669.160551 135.222052 
L 669.689657 137.811715 
L 670.218762 124.711068 
L 670.747867 106.431095 
L 671.276972 104.603098 
L 671.806077 93.330448 
L 672.335183 84.952127 
L 672.864288 86.475458 
L 673.393393 82.819463 
L 673.922498 85.10446 
L 674.451603 78.24947 
L 674.980709 74.745808 
L 676.038919 69.718816 
L 676.568024 73.070144 
L 677.626235 68.652484 
L 678.15534 69.41415 
L 678.684445 71.546813 
L 679.21355 71.546813 
L 679.742656 69.109484 
L 680.271761 65.148823 
L 680.800866 65.453489 
L 681.329971 70.937481 
L 682.388182 72.308479 
L 682.917287 76.421473 
L 683.446392 79.620468 
L 683.975497 92.568782 
L 684.504602 96.681776 
L 685.033708 99.880771 
L 685.562813 101.404102 
L 686.091918 111.153421 
L 686.621023 116.789746 
L 687.150128 123.949402 
L 687.679234 126.386732 
L 688.208339 123.949402 
L 688.737444 133.089389 
L 689.266549 140.249045 
L 689.795654 137.05005 
L 690.853865 148.475033 
L 691.38297 149.846031 
L 691.912075 148.627366 
L 692.44118 149.236698 
L 692.970286 150.912362 
L 694.028496 148.475033 
L 694.557601 147.256368 
L 695.086706 145.123704 
L 695.615812 138.421048 
L 696.144917 130.19506 
L 696.674022 126.691398 
L 697.203127 125.168067 
L 697.732232 127.148398 
L 698.261338 119.227076 
L 698.790443 109.325424 
L 699.319548 105.517096 
L 699.848653 98.81444 
L 701.435969 87.08479 
L 701.965074 84.799794 
L 702.494179 83.276463 
L 703.023285 82.66713 
L 703.55239 82.514797 
L 704.081495 81.296132 
L 704.6106 80.6868 
L 705.139705 74.898142 
L 705.668811 63.016159 
L 706.197916 61.797494 
L 706.727021 61.645161 
L 707.256126 63.016159 
L 707.785231 62.254494 
L 708.314337 68.804817 
L 708.843442 68.652484 
L 709.372547 73.83181 
L 709.901652 80.2298 
L 710.430757 83.885795 
L 710.959863 86.475458 
L 711.488968 91.197784 
L 712.018073 91.807117 
L 712.547178 95.92011 
L 713.076283 106.888094 
L 713.605389 111.153421 
L 714.134494 110.239423 
L 715.192704 122.426071 
L 715.721809 125.7774 
L 716.250915 124.254069 
L 716.78002 130.956725 
L 717.309125 132.480056 
L 717.83823 136.59305 
L 718.367335 134.003387 
L 718.896441 139.182713 
L 719.425546 139.487379 
L 719.954651 142.229375 
L 720.483756 145.580704 
L 721.012862 152.28336 
L 721.541967 151.826361 
L 722.071072 148.779699 
L 722.600177 144.057373 
L 723.129282 142.381708 
L 723.658388 129.433394 
L 724.187493 140.249045 
L 724.716598 130.804392 
L 725.245703 117.246746 
L 726.303914 97.291108 
L 726.833019 98.81444 
L 727.362124 91.197784 
L 727.891229 87.389456 
L 728.420334 90.283786 
L 728.94944 89.674453 
L 729.478545 95.158445 
L 730.00765 92.264116 
L 730.536755 86.475458 
L 731.06586 82.362464 
L 731.594966 83.124129 
L 732.124071 81.753131 
L 733.711386 69.871149 
L 734.769597 76.421473 
L 735.298702 75.355141 
L 735.827807 72.613145 
L 736.356912 71.546813 
L 736.886018 77.640138 
L 737.415123 80.839133 
L 737.944228 86.932457 
L 739.002438 89.369787 
L 739.531544 92.111783 
L 740.589754 104.603098 
L 741.118859 107.040427 
L 741.647964 116.637413 
L 742.706175 119.531742 
L 743.764385 127.453064 
L 744.293491 133.394055 
L 744.822596 141.163044 
L 745.351701 139.792046 
L 745.880806 140.858377 
L 746.409911 142.838708 
L 747.468122 137.507049 
L 748.526332 145.580704 
L 749.055437 149.389031 
L 749.584543 148.932032 
L 750.113648 147.104035 
L 750.642753 139.03038 
L 751.171858 138.878047 
L 751.700963 132.17539 
L 752.230069 132.327723 
L 752.759174 133.394055 
L 753.288279 132.17539 
L 753.817384 123.644736 
L 754.875595 93.025781 
L 755.4047 96.37711 
L 755.933805 92.111783 
L 756.46291 84.647461 
L 756.992015 80.382133 
L 758.050226 75.507474 
L 759.637541 58.750832 
L 760.166647 62.406827 
L 760.695752 55.399504 
L 761.224857 57.075168 
L 761.753962 53.876173 
L 762.283067 54.637838 
L 763.341278 64.234824 
L 763.870383 68.804817 
L 764.399488 70.175815 
L 764.928594 74.288809 
L 765.457699 84.190461 
L 765.986804 86.475458 
L 766.515909 92.721115 
L 767.045014 106.888094 
L 767.57412 114.50475 
L 768.103225 116.637413 
L 768.63233 119.836408 
L 769.161435 123.949402 
L 769.69054 124.254069 
L 770.219646 126.234399 
L 770.748751 130.804392 
L 771.277856 140.249045 
L 771.806961 140.858377 
L 772.336066 155.939355 
L 772.865172 160.661681 
L 773.394277 164.01301 
L 773.923382 165.384008 
L 774.452487 162.794345 
L 774.981592 162.642012 
L 775.510698 167.669004 
L 776.039803 165.384008 
L 776.568908 168.126004 
L 777.098013 160.509348 
L 777.627118 156.396354 
L 778.156224 157.15802 
L 778.685329 146.037703 
L 780.272644 131.718391 
L 780.80175 134.61272 
L 781.330855 133.394055 
L 782.91817 104.298431 
L 783.447276 99.880771 
L 784.505486 84.799794 
L 785.034591 73.679477 
L 785.563697 73.679477 
L 786.092802 71.699146 
L 787.151012 57.6845 
L 787.680117 51.134177 
L 788.209223 49.915512 
L 789.267433 51.591176 
L 789.796538 42.603523 
L 790.325643 46.107184 
L 790.854749 51.895842 
L 791.383854 51.591176 
L 791.912959 52.200509 
L 792.442064 59.817164 
L 792.971169 63.016159 
L 793.500275 69.718816 
L 794.02938 81.296132 
L 794.558485 97.900441 
L 795.08759 100.185438 
L 796.145801 118.46541 
L 796.674906 124.406402 
L 797.204011 127.75773 
L 797.733116 145.276037 
L 798.262221 151.064696 
L 798.791327 158.376685 
L 799.320432 157.615019 
L 799.849537 157.615019 
L 800.907747 170.715666 
L 801.436853 180.007986 
L 801.965958 181.378984 
L 802.495063 176.656658 
L 803.024168 184.882646 
L 803.553273 185.948977 
L 804.082379 181.988316 
L 804.611484 169.497002 
L 805.140589 166.298006 
L 805.669694 154.416024 
L 806.1988 151.978694 
L 806.727905 140.096712 
L 807.25701 145.123704 
L 807.786115 130.652059 
L 808.844326 108.259092 
L 809.373431 122.273738 
L 809.902536 107.64976 
L 810.431641 107.19276 
L 810.960746 98.052774 
L 811.489852 96.072444 
L 812.018957 92.416449 
L 812.548062 79.925134 
L 813.077167 79.925134 
L 813.606272 78.097137 
L 814.135378 74.593475 
L 814.664483 72.613145 
L 815.193588 69.718816 
L 816.251798 57.379834 
L 816.780904 65.910488 
L 817.310009 70.175815 
L 817.839114 68.347818 
L 818.368219 67.281486 
L 818.897324 75.659807 
L 819.42643 86.323125 
L 819.955535 88.303455 
L 820.48464 89.52212 
L 821.013745 92.416449 
L 821.54285 92.416449 
L 822.071956 99.119106 
L 822.601061 102.318101 
L 823.130166 104.298431 
L 823.659271 114.657083 
L 824.188376 113.895417 
L 824.717482 118.617744 
L 825.775692 125.472733 
L 826.304797 132.17539 
L 826.833903 136.745383 
L 827.363008 135.679052 
L 827.892113 140.401378 
L 828.421218 138.878047 
L 828.950323 144.971371 
L 829.479429 147.561034 
L 830.008534 150.912362 
L 830.537639 158.224352 
L 831.066744 161.118681 
L 831.595849 156.091688 
L 832.124955 152.131027 
L 832.65406 150.455363 
L 833.183165 149.541364 
L 833.71227 150.150697 
L 834.241375 145.276037 
L 834.770481 124.406402 
L 835.299586 124.711068 
L 835.828691 134.61272 
L 836.357796 127.75773 
L 836.886901 111.153421 
L 837.416007 111.458088 
L 837.945112 113.743084 
L 838.474217 107.19276 
L 839.003322 104.146098 
L 839.532427 102.013435 
L 840.590638 91.045451 
L 841.648848 84.495127 
L 842.177953 78.706469 
L 842.707059 78.097137 
L 843.236164 78.401803 
L 843.765269 74.441142 
L 844.294374 72.003813 
L 844.823479 72.308479 
L 845.352585 67.738486 
L 845.88169 68.195485 
L 846.410795 70.480481 
L 846.9399 69.718816 
L 847.469005 72.917811 
L 847.998111 72.613145 
L 848.527216 76.26914 
L 848.527216 76.26914 
" clip-path="url(#pf161e4cb9e)" style="fill: none; stroke: #bcbd22; stroke-opacity: 0.9; stroke-width: 1.8; stroke-linecap: square"/>
   </g>
   <g id="patch_3">
    <path d="M 71.298125 193.11625 
L 71.298125 35.43625 
" style="fill: none; stroke: #000000; stroke-width: 0.8; stroke-linejoin: miter; stroke-linecap: square"/>
   </g>
   <g id="patch_4">
    <path d="M 885.538125 193.11625 
L 885.538125 35.43625 
" style="fill: none; stroke: #000000; stroke-width: 0.8; stroke-linejoin: miter; stroke-linecap: square"/>
   </g>
   <g id="patch_5">
    <path d="M 71.298125 193.11625 
L 885.538125 193.11625 
" style="fill: none; stroke: #000000; stroke-width: 0.8; stroke-linejoin: miter; stroke-linecap: square"/>
   </g>
   <g id="patch_6">
    <path d="M 71.298125 35.43625 
L 885.538125 35.43625 
" style="fill: none; stroke: #000000; stroke-width: 0.8; stroke-linejoin: miter; stroke-linecap: square"/>
   </g>
   <g id="text_14">
    <!-- Sensor Location 13723 -->
    <g transform="translate(340.725625 25.43625) scale(0.24 -0.24)">
     <defs>
      <path id="DejaVuSans-6e" d="M 3513 2113 
L 3513 0 
L 2938 0 
L 2938 2094 
Q 2938 2591 2744 2837 
Q 2550 3084 2163 3084 
Q 1697 3084 1428 2787 
Q 1159 2491 1159 1978 
L 1159 0 
L 581 0 
L 581 3500 
L 1159 3500 
L 1159 2956 
Q 1366 3272 1645 3428 
Q 1925 3584 2291 3584 
Q 2894 3584 3203 3211 
Q 3513 2838 3513 2113 
z
" transform="scale(0.015625)"/>
      <path id="DejaVuSans-73" d="M 2834 3397 
L 2834 2853 
Q 2591 2978 2328 3040 
Q 2066 3103 1784 3103 
Q 1356 3103 1142 2972 
Q 928 2841 928 2578 
Q 928 2378 1081 2264 
Q 1234 2150 1697 2047 
L 1894 2003 
Q 2506 1872 2764 1633 
Q 3022 1394 3022 966 
Q 3022 478 2636 193 
Q 2250 -91 1575 -91 
Q 1294 -91 989 -36 
Q 684 19 347 128 
L 347 722 
Q 666 556 975 473 
Q 1284 391 1588 391 
Q 1994 391 2212 530 
Q 2431 669 2431 922 
Q 2431 1156 2273 1281 
Q 2116 1406 1581 1522 
L 1381 1569 
Q 847 1681 609 1914 
Q 372 2147 372 2553 
Q 372 3047 722 3315 
Q 1072 3584 1716 3584 
Q 2034 3584 2315 3537 
Q 2597 3491 2834 3397 
z
" transform="scale(0.015625)"/>
      <path id="DejaVuSans-4c" d="M 628 4666 
L 1259 4666 
L 1259 531 
L 3531 531 
L 3531 0 
L 628 0 
L 628 4666 
z
" transform="scale(0.015625)"/>
      <path id="DejaVuSans-63" d="M 3122 3366 
L 3122 2828 
Q 2878 2963 2633 3030 
Q 2388 3097 2138 3097 
Q 1578 3097 1268 2742 
Q 959 2388 959 1747 
Q 959 1106 1268 751 
Q 1578 397 2138 397 
Q 2388 397 2633 464 
Q 2878 531 3122 666 
L 3122 134 
Q 2881 22 2623 -34 
Q 2366 -91 2075 -91 
Q 1284 -91 818 406 
Q 353 903 353 1747 
Q 353 2603 823 3093 
Q 1294 3584 2113 3584 
Q 2378 3584 2631 3529 
Q 2884 3475 3122 3366 
z
" transform="scale(0.015625)"/>
      <path id="DejaVuSans-74" d="M 1172 4494 
L 1172 3500 
L 2356 3500 
L 2356 3053 
L 1172 3053 
L 1172 1153 
Q 1172 725 1289 603 
Q 1406 481 1766 481 
L 2356 481 
L 2356 0 
L 1766 0 
Q 1100 0 847 248 
Q 594 497 594 1153 
L 594 3053 
L 172 3053 
L 172 3500 
L 594 3500 
L 594 4494 
L 1172 4494 
z
" transform="scale(0.015625)"/>
      <path id="DejaVuSans-33" d="M 2597 2516 
Q 3050 2419 3304 2112 
Q 3559 1806 3559 1356 
Q 3559 666 3084 287 
Q 2609 -91 1734 -91 
Q 1441 -91 1130 -33 
Q 819 25 488 141 
L 488 750 
Q 750 597 1062 519 
Q 1375 441 1716 441 
Q 2309 441 2620 675 
Q 2931 909 2931 1356 
Q 2931 1769 2642 2001 
Q 2353 2234 1838 2234 
L 1294 2234 
L 1294 2753 
L 1863 2753 
Q 2328 2753 2575 2939 
Q 2822 3125 2822 3475 
Q 2822 3834 2567 4026 
Q 2313 4219 1838 4219 
Q 1578 4219 1281 4162 
Q 984 4106 628 3988 
L 628 4550 
Q 988 4650 1302 4700 
Q 1616 4750 1894 4750 
Q 2613 4750 3031 4423 
Q 3450 4097 3450 3541 
Q 3450 3153 3228 2886 
Q 3006 2619 2597 2516 
z
" transform="scale(0.015625)"/>
      <path id="DejaVuSans-37" d="M 525 4666 
L 3525 4666 
L 3525 4397 
L 1831 0 
L 1172 0 
L 2766 4134 
L 525 4134 
L 525 4666 
z
" transform="scale(0.015625)"/>
     </defs>
     <use xlink:href="#DejaVuSans-53"/>
     <use xlink:href="#DejaVuSans-65" transform="translate(63.476562 0)"/>
     <use xlink:href="#DejaVuSans-6e" transform="translate(125 0)"/>
     <use xlink:href="#DejaVuSans-73" transform="translate(188.378906 0)"/>
     <use xlink:href="#DejaVuSans-6f" transform="translate(240.478516 0)"/>
     <use xlink:href="#DejaVuSans-72" transform="translate(301.660156 0)"/>
     <use xlink:href="#DejaVuSans-20" transform="translate(342.773438 0)"/>
     <use xlink:href="#DejaVuSans-4c" transform="translate(374.560547 0)"/>
     <use xlink:href="#DejaVuSans-6f" transform="translate(428.523438 0)"/>
     <use xlink:href="#DejaVuSans-63" transform="translate(489.705078 0)"/>
     <use xlink:href="#DejaVuSans-61" transform="translate(544.685547 0)"/>
     <use xlink:href="#DejaVuSans-74" transform="translate(605.964844 0)"/>
     <use xlink:href="#DejaVuSans-69" transform="translate(645.173828 0)"/>
     <use xlink:href="#DejaVuSans-6f" transform="translate(672.957031 0)"/>
     <use xlink:href="#DejaVuSans-6e" transform="translate(734.138672 0)"/>
     <use xlink:href="#DejaVuSans-20" transform="translate(797.517578 0)"/>
     <use xlink:href="#DejaVuSans-31" transform="translate(829.304688 0)"/>
     <use xlink:href="#DejaVuSans-33" transform="translate(892.927734 0)"/>
     <use xlink:href="#DejaVuSans-37" transform="translate(956.550781 0)"/>
     <use xlink:href="#DejaVuSans-32" transform="translate(1020.173828 0)"/>
     <use xlink:href="#DejaVuSans-33" transform="translate(1083.796875 0)"/>
    </g>
   </g>
  </g>
 </g>
 <defs>
  <clipPath id="pf161e4cb9e">
   <rect x="71.298125" y="35.43625" width="814.24" height="157.68"/>
  </clipPath>
 </defs>
</svg>
