<?xml version="1.0" encoding="utf-8" standalone="no"?>
<!DOCTYPE svg PUBLIC "-//W3C//DTD SVG 1.1//EN"
  "http://www.w3.org/Graphics/SVG/1.1/DTD/svg11.dtd">
<svg xmlns:xlink="http://www.w3.org/1999/xlink" width="892.738125pt" height="251.964375pt" viewBox="0 0 892.738125 251.964375" xmlns="http://www.w3.org/2000/svg" version="1.1">
 <metadata>
  <rdf:RDF xmlns:dc="http://purl.org/dc/elements/1.1/" xmlns:cc="http://creativecommons.org/ns#" xmlns:rdf="http://www.w3.org/1999/02/22-rdf-syntax-ns#">
   <cc:Work>
    <dc:type rdf:resource="http://purl.org/dc/dcmitype/StillImage"/>
    <dc:date>2026-02-24T16:51:49.701136</dc:date>
    <dc:format>image/svg+xml</dc:format>
    <dc:creator>
     <cc:Agent>
      <dc:title>Matplotlib v3.10.6, https://matplotlib.org/</dc:title>
     </cc:Agent>
    </dc:creator>
   </cc:Work>
  </rdf:RDF>
 </metadata>
 <defs>
  <style type="text/css">*{stroke-linejoin: round; stroke-linecap: butt}</style>
 </defs>
 <g id="figure_1">
  <g id="patch_1">
   <path d="M -0 251.964375 
L 892.738125 251.964375 
L 892.738125 0 
L -0 0 
z
" style="fill: #ffffff"/>
  </g>
  <g id="axes_1">
   <g id="patch_2">
    <path d="M 71.298125 193.11625 
L 885.538125 193.11625 
L 885.538125 35.43625 
L 71.298125 35.43625 
z
" style="fill: #ffffff"/>
   </g>
   <g id="matplotlib.axis_1">
    <g id="xtick_1">
     <g id="line2d_1">
      <path d="M 108.309034 193.11625 
L 108.309034 35.43625 
" clip-path="url(#p6ddef9058c)" style="fill: none; stroke-dasharray: 2.96,1.28; stroke-dashoffset: 0; stroke: #b0b0b0; stroke-opacity: 0.3; stroke-width: 0.8"/>
     </g>
     <g id="line2d_2">
      <defs>
       <path id="mc1695982d0" d="M 0 0 
L 0 3.5 
" style="stroke: #000000; stroke-width: 0.8"/>
      </defs>
      <g>
       <use xlink:href="#mc1695982d0" x="108.309034" y="193.11625" style="stroke: #000000; stroke-width: 0.8"/>
      </g>
     </g>
     <g id="text_1">
      <!-- 0 -->
      <g transform="translate(101.946534 215.313125) scale(0.2 -0.2)">
       <defs>
        <path id="DejaVuSans-30" d="M 2034 4250 
Q 1547 4250 1301 3770 
Q 1056 3291 1056 2328 
Q 1056 1369 1301 889 
Q 1547 409 2034 409 
Q 2525 409 2770 889 
Q 3016 1369 3016 2328 
Q 3016 3291 2770 3770 
Q 2525 4250 2034 4250 
z
M 2034 4750 
Q 2819 4750 3233 4129 
Q 3647 3509 3647 2328 
Q 3647 1150 3233 529 
Q 2819 -91 2034 -91 
Q 1250 -91 836 529 
Q 422 1150 422 2328 
Q 422 3509 836 4129 
Q 1250 4750 2034 4750 
z
" transform="scale(0.015625)"/>
       </defs>
       <use xlink:href="#DejaVuSans-30"/>
      </g>
     </g>
    </g>
    <g id="xtick_2">
     <g id="line2d_3">
      <path d="M 214.130075 193.11625 
L 214.130075 35.43625 
" clip-path="url(#p6ddef9058c)" style="fill: none; stroke-dasharray: 2.96,1.28; stroke-dashoffset: 0; stroke: #b0b0b0; stroke-opacity: 0.3; stroke-width: 0.8"/>
     </g>
     <g id="line2d_4">
      <g>
       <use xlink:href="#mc1695982d0" x="214.130075" y="193.11625" style="stroke: #000000; stroke-width: 0.8"/>
      </g>
     </g>
     <g id="text_2">
      <!-- 200 -->
      <g transform="translate(195.042575 215.313125) scale(0.2 -0.2)">
       <defs>
        <path id="DejaVuSans-32" d="M 1228 531 
L 3431 531 
L 3431 0 
L 469 0 
L 469 531 
Q 828 903 1448 1529 
Q 2069 2156 2228 2338 
Q 2531 2678 2651 2914 
Q 2772 3150 2772 3378 
Q 2772 3750 2511 3984 
Q 2250 4219 1831 4219 
Q 1534 4219 1204 4116 
Q 875 4013 500 3803 
L 500 4441 
Q 881 4594 1212 4672 
Q 1544 4750 1819 4750 
Q 2544 4750 2975 4387 
Q 3406 4025 3406 3419 
Q 3406 3131 3298 2873 
Q 3191 2616 2906 2266 
Q 2828 2175 2409 1742 
Q 1991 1309 1228 531 
z
" transform="scale(0.015625)"/>
       </defs>
       <use xlink:href="#DejaVuSans-32"/>
       <use xlink:href="#DejaVuSans-30" transform="translate(63.623047 0)"/>
       <use xlink:href="#DejaVuSans-30" transform="translate(127.246094 0)"/>
      </g>
     </g>
    </g>
    <g id="xtick_3">
     <g id="line2d_5">
      <path d="M 319.951116 193.11625 
L 319.951116 35.43625 
" clip-path="url(#p6ddef9058c)" style="fill: none; stroke-dasharray: 2.96,1.28; stroke-dashoffset: 0; stroke: #b0b0b0; stroke-opacity: 0.3; stroke-width: 0.8"/>
     </g>
     <g id="line2d_6">
      <g>
       <use xlink:href="#mc1695982d0" x="319.951116" y="193.11625" style="stroke: #000000; stroke-width: 0.8"/>
      </g>
     </g>
     <g id="text_3">
      <!-- 400 -->
      <g transform="translate(300.863616 215.313125) scale(0.2 -0.2)">
       <defs>
        <path id="DejaVuSans-34" d="M 2419 4116 
L 825 1625 
L 2419 1625 
L 2419 4116 
z
M 2253 4666 
L 3047 4666 
L 3047 1625 
L 3713 1625 
L 3713 1100 
L 3047 1100 
L 3047 0 
L 2419 0 
L 2419 1100 
L 313 1100 
L 313 1709 
L 2253 4666 
z
" transform="scale(0.015625)"/>
       </defs>
       <use xlink:href="#DejaVuSans-34"/>
       <use xlink:href="#DejaVuSans-30" transform="translate(63.623047 0)"/>
       <use xlink:href="#DejaVuSans-30" transform="translate(127.246094 0)"/>
      </g>
     </g>
    </g>
    <g id="xtick_4">
     <g id="line2d_7">
      <path d="M 425.772157 193.11625 
L 425.772157 35.43625 
" clip-path="url(#p6ddef9058c)" style="fill: none; stroke-dasharray: 2.96,1.28; stroke-dashoffset: 0; stroke: #b0b0b0; stroke-opacity: 0.3; stroke-width: 0.8"/>
     </g>
     <g id="line2d_8">
      <g>
       <use xlink:href="#mc1695982d0" x="425.772157" y="193.11625" style="stroke: #000000; stroke-width: 0.8"/>
      </g>
     </g>
     <g id="text_4">
      <!-- 600 -->
      <g transform="translate(406.684657 215.313125) scale(0.2 -0.2)">
       <defs>
        <path id="DejaVuSans-36" d="M 2113 2584 
Q 1688 2584 1439 2293 
Q 1191 2003 1191 1497 
Q 1191 994 1439 701 
Q 1688 409 2113 409 
Q 2538 409 2786 701 
Q 3034 994 3034 1497 
Q 3034 2003 2786 2293 
Q 2538 2584 2113 2584 
z
M 3366 4563 
L 3366 3988 
Q 3128 4100 2886 4159 
Q 2644 4219 2406 4219 
Q 1781 4219 1451 3797 
Q 1122 3375 1075 2522 
Q 1259 2794 1537 2939 
Q 1816 3084 2150 3084 
Q 2853 3084 3261 2657 
Q 3669 2231 3669 1497 
Q 3669 778 3244 343 
Q 2819 -91 2113 -91 
Q 1303 -91 875 529 
Q 447 1150 447 2328 
Q 447 3434 972 4092 
Q 1497 4750 2381 4750 
Q 2619 4750 2861 4703 
Q 3103 4656 3366 4563 
z
" transform="scale(0.015625)"/>
       </defs>
       <use xlink:href="#DejaVuSans-36"/>
       <use xlink:href="#DejaVuSans-30" transform="translate(63.623047 0)"/>
       <use xlink:href="#DejaVuSans-30" transform="translate(127.246094 0)"/>
      </g>
     </g>
    </g>
    <g id="xtick_5">
     <g id="line2d_9">
      <path d="M 531.593198 193.11625 
L 531.593198 35.43625 
" clip-path="url(#p6ddef9058c)" style="fill: none; stroke-dasharray: 2.96,1.28; stroke-dashoffset: 0; stroke: #b0b0b0; stroke-opacity: 0.3; stroke-width: 0.8"/>
     </g>
     <g id="line2d_10">
      <g>
       <use xlink:href="#mc1695982d0" x="531.593198" y="193.11625" style="stroke: #000000; stroke-width: 0.8"/>
      </g>
     </g>
     <g id="text_5">
      <!-- 800 -->
      <g transform="translate(512.505698 215.313125) scale(0.2 -0.2)">
       <defs>
        <path id="DejaVuSans-38" d="M 2034 2216 
Q 1584 2216 1326 1975 
Q 1069 1734 1069 1313 
Q 1069 891 1326 650 
Q 1584 409 2034 409 
Q 2484 409 2743 651 
Q 3003 894 3003 1313 
Q 3003 1734 2745 1975 
Q 2488 2216 2034 2216 
z
M 1403 2484 
Q 997 2584 770 2862 
Q 544 3141 544 3541 
Q 544 4100 942 4425 
Q 1341 4750 2034 4750 
Q 2731 4750 3128 4425 
Q 3525 4100 3525 3541 
Q 3525 3141 3298 2862 
Q 3072 2584 2669 2484 
Q 3125 2378 3379 2068 
Q 3634 1759 3634 1313 
Q 3634 634 3220 271 
Q 2806 -91 2034 -91 
Q 1263 -91 848 271 
Q 434 634 434 1313 
Q 434 1759 690 2068 
Q 947 2378 1403 2484 
z
M 1172 3481 
Q 1172 3119 1398 2916 
Q 1625 2713 2034 2713 
Q 2441 2713 2670 2916 
Q 2900 3119 2900 3481 
Q 2900 3844 2670 4047 
Q 2441 4250 2034 4250 
Q 1625 4250 1398 4047 
Q 1172 3844 1172 3481 
z
" transform="scale(0.015625)"/>
       </defs>
       <use xlink:href="#DejaVuSans-38"/>
       <use xlink:href="#DejaVuSans-30" transform="translate(63.623047 0)"/>
       <use xlink:href="#DejaVuSans-30" transform="translate(127.246094 0)"/>
      </g>
     </g>
    </g>
    <g id="xtick_6">
     <g id="line2d_11">
      <path d="M 637.414239 193.11625 
L 637.414239 35.43625 
" clip-path="url(#p6ddef9058c)" style="fill: none; stroke-dasharray: 2.96,1.28; stroke-dashoffset: 0; stroke: #b0b0b0; stroke-opacity: 0.3; stroke-width: 0.8"/>
     </g>
     <g id="line2d_12">
      <g>
       <use xlink:href="#mc1695982d0" x="637.414239" y="193.11625" style="stroke: #000000; stroke-width: 0.8"/>
      </g>
     </g>
     <g id="text_6">
      <!-- 1000 -->
      <g transform="translate(611.964239 215.313125) scale(0.2 -0.2)">
       <defs>
        <path id="DejaVuSans-31" d="M 794 531 
L 1825 531 
L 1825 4091 
L 703 3866 
L 703 4441 
L 1819 4666 
L 2450 4666 
L 2450 531 
L 3481 531 
L 3481 0 
L 794 0 
L 794 531 
z
" transform="scale(0.015625)"/>
       </defs>
       <use xlink:href="#DejaVuSans-31"/>
       <use xlink:href="#DejaVuSans-30" transform="translate(63.623047 0)"/>
       <use xlink:href="#DejaVuSans-30" transform="translate(127.246094 0)"/>
       <use xlink:href="#DejaVuSans-30" transform="translate(190.869141 0)"/>
      </g>
     </g>
    </g>
    <g id="xtick_7">
     <g id="line2d_13">
      <path d="M 743.23528 193.11625 
L 743.23528 35.43625 
" clip-path="url(#p6ddef9058c)" style="fill: none; stroke-dasharray: 2.96,1.28; stroke-dashoffset: 0; stroke: #b0b0b0; stroke-opacity: 0.3; stroke-width: 0.8"/>
     </g>
     <g id="line2d_14">
      <g>
       <use xlink:href="#mc1695982d0" x="743.23528" y="193.11625" style="stroke: #000000; stroke-width: 0.8"/>
      </g>
     </g>
     <g id="text_7">
      <!-- 1200 -->
      <g transform="translate(717.78528 215.313125) scale(0.2 -0.2)">
       <use xlink:href="#DejaVuSans-31"/>
       <use xlink:href="#DejaVuSans-32" transform="translate(63.623047 0)"/>
       <use xlink:href="#DejaVuSans-30" transform="translate(127.246094 0)"/>
       <use xlink:href="#DejaVuSans-30" transform="translate(190.869141 0)"/>
      </g>
     </g>
    </g>
    <g id="xtick_8">
     <g id="line2d_15">
      <path d="M 849.056321 193.11625 
L 849.056321 35.43625 
" clip-path="url(#p6ddef9058c)" style="fill: none; stroke-dasharray: 2.96,1.28; stroke-dashoffset: 0; stroke: #b0b0b0; stroke-opacity: 0.3; stroke-width: 0.8"/>
     </g>
     <g id="line2d_16">
      <g>
       <use xlink:href="#mc1695982d0" x="849.056321" y="193.11625" style="stroke: #000000; stroke-width: 0.8"/>
      </g>
     </g>
     <g id="text_8">
      <!-- 1400 -->
      <g transform="translate(823.606321 215.313125) scale(0.2 -0.2)">
       <use xlink:href="#DejaVuSans-31"/>
       <use xlink:href="#DejaVuSans-34" transform="translate(63.623047 0)"/>
       <use xlink:href="#DejaVuSans-30" transform="translate(127.246094 0)"/>
       <use xlink:href="#DejaVuSans-30" transform="translate(190.869141 0)"/>
      </g>
     </g>
    </g>
    <g id="text_9">
     <!-- Time Index -->
     <g transform="translate(410.037656 240.189062) scale(0.22 -0.22)">
      <defs>
       <path id="DejaVuSans-Bold-54" d="M 31 4666 
L 4331 4666 
L 4331 3756 
L 2784 3756 
L 2784 0 
L 1581 0 
L 1581 3756 
L 31 3756 
L 31 4666 
z
" transform="scale(0.015625)"/>
       <path id="DejaVuSans-Bold-69" d="M 538 3500 
L 1656 3500 
L 1656 0 
L 538 0 
L 538 3500 
z
M 538 4863 
L 1656 4863 
L 1656 3950 
L 538 3950 
L 538 4863 
z
" transform="scale(0.015625)"/>
       <path id="DejaVuSans-Bold-6d" d="M 3781 2919 
Q 3994 3244 4286 3414 
Q 4578 3584 4928 3584 
Q 5531 3584 5847 3212 
Q 6163 2841 6163 2131 
L 6163 0 
L 5038 0 
L 5038 1825 
Q 5041 1866 5042 1909 
Q 5044 1953 5044 2034 
Q 5044 2406 4934 2573 
Q 4825 2741 4581 2741 
Q 4263 2741 4089 2478 
Q 3916 2216 3909 1719 
L 3909 0 
L 2784 0 
L 2784 1825 
Q 2784 2406 2684 2573 
Q 2584 2741 2328 2741 
Q 2006 2741 1831 2477 
Q 1656 2213 1656 1722 
L 1656 0 
L 531 0 
L 531 3500 
L 1656 3500 
L 1656 2988 
Q 1863 3284 2130 3434 
Q 2397 3584 2719 3584 
Q 3081 3584 3359 3409 
Q 3638 3234 3781 2919 
z
" transform="scale(0.015625)"/>
       <path id="DejaVuSans-Bold-65" d="M 4031 1759 
L 4031 1441 
L 1416 1441 
Q 1456 1047 1700 850 
Q 1944 653 2381 653 
Q 2734 653 3104 758 
Q 3475 863 3866 1075 
L 3866 213 
Q 3469 63 3072 -14 
Q 2675 -91 2278 -91 
Q 1328 -91 801 392 
Q 275 875 275 1747 
Q 275 2603 792 3093 
Q 1309 3584 2216 3584 
Q 3041 3584 3536 3087 
Q 4031 2591 4031 1759 
z
M 2881 2131 
Q 2881 2450 2695 2645 
Q 2509 2841 2209 2841 
Q 1884 2841 1681 2658 
Q 1478 2475 1428 2131 
L 2881 2131 
z
" transform="scale(0.015625)"/>
       <path id="DejaVuSans-Bold-20" transform="scale(0.015625)"/>
       <path id="DejaVuSans-Bold-49" d="M 588 4666 
L 1791 4666 
L 1791 0 
L 588 0 
L 588 4666 
z
" transform="scale(0.015625)"/>
       <path id="DejaVuSans-Bold-6e" d="M 4056 2131 
L 4056 0 
L 2931 0 
L 2931 347 
L 2931 1631 
Q 2931 2084 2911 2256 
Q 2891 2428 2841 2509 
Q 2775 2619 2662 2680 
Q 2550 2741 2406 2741 
Q 2056 2741 1856 2470 
Q 1656 2200 1656 1722 
L 1656 0 
L 538 0 
L 538 3500 
L 1656 3500 
L 1656 2988 
Q 1909 3294 2193 3439 
Q 2478 3584 2822 3584 
Q 3428 3584 3742 3212 
Q 4056 2841 4056 2131 
z
" transform="scale(0.015625)"/>
       <path id="DejaVuSans-Bold-64" d="M 2919 2988 
L 2919 4863 
L 4044 4863 
L 4044 0 
L 2919 0 
L 2919 506 
Q 2688 197 2409 53 
Q 2131 -91 1766 -91 
Q 1119 -91 703 423 
Q 288 938 288 1747 
Q 288 2556 703 3070 
Q 1119 3584 1766 3584 
Q 2128 3584 2408 3439 
Q 2688 3294 2919 2988 
z
M 2181 722 
Q 2541 722 2730 984 
Q 2919 1247 2919 1747 
Q 2919 2247 2730 2509 
Q 2541 2772 2181 2772 
Q 1825 2772 1636 2509 
Q 1447 2247 1447 1747 
Q 1447 1247 1636 984 
Q 1825 722 2181 722 
z
" transform="scale(0.015625)"/>
       <path id="DejaVuSans-Bold-78" d="M 1422 1791 
L 159 3500 
L 1344 3500 
L 2059 2463 
L 2784 3500 
L 3969 3500 
L 2706 1797 
L 4031 0 
L 2847 0 
L 2059 1106 
L 1281 0 
L 97 0 
L 1422 1791 
z
" transform="scale(0.015625)"/>
      </defs>
      <use xlink:href="#DejaVuSans-Bold-54"/>
      <use xlink:href="#DejaVuSans-Bold-69" transform="translate(68.212891 0)"/>
      <use xlink:href="#DejaVuSans-Bold-6d" transform="translate(102.490234 0)"/>
      <use xlink:href="#DejaVuSans-Bold-65" transform="translate(206.689453 0)"/>
      <use xlink:href="#DejaVuSans-Bold-20" transform="translate(274.511719 0)"/>
      <use xlink:href="#DejaVuSans-Bold-49" transform="translate(309.326172 0)"/>
      <use xlink:href="#DejaVuSans-Bold-6e" transform="translate(346.533203 0)"/>
      <use xlink:href="#DejaVuSans-Bold-64" transform="translate(417.724609 0)"/>
      <use xlink:href="#DejaVuSans-Bold-65" transform="translate(489.306641 0)"/>
      <use xlink:href="#DejaVuSans-Bold-78" transform="translate(557.128906 0)"/>
     </g>
    </g>
   </g>
   <g id="matplotlib.axis_2">
    <g id="ytick_1">
     <g id="line2d_17">
      <path d="M 71.298125 185.948977 
L 885.538125 185.948977 
" clip-path="url(#p6ddef9058c)" style="fill: none; stroke-dasharray: 2.96,1.28; stroke-dashoffset: 0; stroke: #b0b0b0; stroke-opacity: 0.3; stroke-width: 0.8"/>
     </g>
     <g id="line2d_18">
      <defs>
       <path id="m739391c241" d="M 0 0 
L -3.5 0 
" style="stroke: #000000; stroke-width: 0.8"/>
      </defs>
      <g>
       <use xlink:href="#m739391c241" x="71.298125" y="185.948977" style="stroke: #000000; stroke-width: 0.8"/>
      </g>
     </g>
     <g id="text_10">
      <!-- 0.0 -->
      <g transform="translate(32.491875 193.547415) scale(0.2 -0.2)">
       <defs>
        <path id="DejaVuSans-2e" d="M 684 794 
L 1344 794 
L 1344 0 
L 684 0 
L 684 794 
z
" transform="scale(0.015625)"/>
       </defs>
       <use xlink:href="#DejaVuSans-30"/>
       <use xlink:href="#DejaVuSans-2e" transform="translate(63.623047 0)"/>
       <use xlink:href="#DejaVuSans-30" transform="translate(95.410156 0)"/>
      </g>
     </g>
    </g>
    <g id="ytick_2">
     <g id="line2d_19">
      <path d="M 71.298125 116.29236 
L 885.538125 116.29236 
" clip-path="url(#p6ddef9058c)" style="fill: none; stroke-dasharray: 2.96,1.28; stroke-dashoffset: 0; stroke: #b0b0b0; stroke-opacity: 0.3; stroke-width: 0.8"/>
     </g>
     <g id="line2d_20">
      <g>
       <use xlink:href="#m739391c241" x="71.298125" y="116.29236" style="stroke: #000000; stroke-width: 0.8"/>
      </g>
     </g>
     <g id="text_11">
      <!-- 0.5 -->
      <g transform="translate(32.491875 123.890798) scale(0.2 -0.2)">
       <defs>
        <path id="DejaVuSans-35" d="M 691 4666 
L 3169 4666 
L 3169 4134 
L 1269 4134 
L 1269 2991 
Q 1406 3038 1543 3061 
Q 1681 3084 1819 3084 
Q 2600 3084 3056 2656 
Q 3513 2228 3513 1497 
Q 3513 744 3044 326 
Q 2575 -91 1722 -91 
Q 1428 -91 1123 -41 
Q 819 9 494 109 
L 494 744 
Q 775 591 1075 516 
Q 1375 441 1709 441 
Q 2250 441 2565 725 
Q 2881 1009 2881 1497 
Q 2881 1984 2565 2268 
Q 2250 2553 1709 2553 
Q 1456 2553 1204 2497 
Q 953 2441 691 2322 
L 691 4666 
z
" transform="scale(0.015625)"/>
       </defs>
       <use xlink:href="#DejaVuSans-30"/>
       <use xlink:href="#DejaVuSans-2e" transform="translate(63.623047 0)"/>
       <use xlink:href="#DejaVuSans-35" transform="translate(95.410156 0)"/>
      </g>
     </g>
    </g>
    <g id="ytick_3">
     <g id="line2d_21">
      <path d="M 71.298125 46.635744 
L 885.538125 46.635744 
" clip-path="url(#p6ddef9058c)" style="fill: none; stroke-dasharray: 2.96,1.28; stroke-dashoffset: 0; stroke: #b0b0b0; stroke-opacity: 0.3; stroke-width: 0.8"/>
     </g>
     <g id="line2d_22">
      <g>
       <use xlink:href="#m739391c241" x="71.298125" y="46.635744" style="stroke: #000000; stroke-width: 0.8"/>
      </g>
     </g>
     <g id="text_12">
      <!-- 1.0 -->
      <g transform="translate(32.491875 54.234181) scale(0.2 -0.2)">
       <use xlink:href="#DejaVuSans-31"/>
       <use xlink:href="#DejaVuSans-2e" transform="translate(63.623047 0)"/>
       <use xlink:href="#DejaVuSans-30" transform="translate(95.410156 0)"/>
      </g>
     </g>
    </g>
    <g id="text_13">
     <!-- Normalized SST -->
     <g transform="translate(23.916563 200.839375) rotate(-90) scale(0.22 -0.22)">
      <defs>
       <path id="DejaVuSans-4e" d="M 628 4666 
L 1478 4666 
L 3547 763 
L 3547 4666 
L 4159 4666 
L 4159 0 
L 3309 0 
L 1241 3903 
L 1241 0 
L 628 0 
L 628 4666 
z
" transform="scale(0.015625)"/>
       <path id="DejaVuSans-6f" d="M 1959 3097 
Q 1497 3097 1228 2736 
Q 959 2375 959 1747 
Q 959 1119 1226 758 
Q 1494 397 1959 397 
Q 2419 397 2687 759 
Q 2956 1122 2956 1747 
Q 2956 2369 2687 2733 
Q 2419 3097 1959 3097 
z
M 1959 3584 
Q 2709 3584 3137 3096 
Q 3566 2609 3566 1747 
Q 3566 888 3137 398 
Q 2709 -91 1959 -91 
Q 1206 -91 779 398 
Q 353 888 353 1747 
Q 353 2609 779 3096 
Q 1206 3584 1959 3584 
z
" transform="scale(0.015625)"/>
       <path id="DejaVuSans-72" d="M 2631 2963 
Q 2534 3019 2420 3045 
Q 2306 3072 2169 3072 
Q 1681 3072 1420 2755 
Q 1159 2438 1159 1844 
L 1159 0 
L 581 0 
L 581 3500 
L 1159 3500 
L 1159 2956 
Q 1341 3275 1631 3429 
Q 1922 3584 2338 3584 
Q 2397 3584 2469 3576 
Q 2541 3569 2628 3553 
L 2631 2963 
z
" transform="scale(0.015625)"/>
       <path id="DejaVuSans-6d" d="M 3328 2828 
Q 3544 3216 3844 3400 
Q 4144 3584 4550 3584 
Q 5097 3584 5394 3201 
Q 5691 2819 5691 2113 
L 5691 0 
L 5113 0 
L 5113 2094 
Q 5113 2597 4934 2840 
Q 4756 3084 4391 3084 
Q 3944 3084 3684 2787 
Q 3425 2491 3425 1978 
L 3425 0 
L 2847 0 
L 2847 2094 
Q 2847 2600 2669 2842 
Q 2491 3084 2119 3084 
Q 1678 3084 1418 2786 
Q 1159 2488 1159 1978 
L 1159 0 
L 581 0 
L 581 3500 
L 1159 3500 
L 1159 2956 
Q 1356 3278 1631 3431 
Q 1906 3584 2284 3584 
Q 2666 3584 2933 3390 
Q 3200 3197 3328 2828 
z
" transform="scale(0.015625)"/>
       <path id="DejaVuSans-61" d="M 2194 1759 
Q 1497 1759 1228 1600 
Q 959 1441 959 1056 
Q 959 750 1161 570 
Q 1363 391 1709 391 
Q 2188 391 2477 730 
Q 2766 1069 2766 1631 
L 2766 1759 
L 2194 1759 
z
M 3341 1997 
L 3341 0 
L 2766 0 
L 2766 531 
Q 2569 213 2275 61 
Q 1981 -91 1556 -91 
Q 1019 -91 701 211 
Q 384 513 384 1019 
Q 384 1609 779 1909 
Q 1175 2209 1959 2209 
L 2766 2209 
L 2766 2266 
Q 2766 2663 2505 2880 
Q 2244 3097 1772 3097 
Q 1472 3097 1187 3025 
Q 903 2953 641 2809 
L 641 3341 
Q 956 3463 1253 3523 
Q 1550 3584 1831 3584 
Q 2591 3584 2966 3190 
Q 3341 2797 3341 1997 
z
" transform="scale(0.015625)"/>
       <path id="DejaVuSans-6c" d="M 603 4863 
L 1178 4863 
L 1178 0 
L 603 0 
L 603 4863 
z
" transform="scale(0.015625)"/>
       <path id="DejaVuSans-69" d="M 603 3500 
L 1178 3500 
L 1178 0 
L 603 0 
L 603 3500 
z
M 603 4863 
L 1178 4863 
L 1178 4134 
L 603 4134 
L 603 4863 
z
" transform="scale(0.015625)"/>
       <path id="DejaVuSans-7a" d="M 353 3500 
L 3084 3500 
L 3084 2975 
L 922 459 
L 3084 459 
L 3084 0 
L 275 0 
L 275 525 
L 2438 3041 
L 353 3041 
L 353 3500 
z
" transform="scale(0.015625)"/>
       <path id="DejaVuSans-65" d="M 3597 1894 
L 3597 1613 
L 953 1613 
Q 991 1019 1311 708 
Q 1631 397 2203 397 
Q 2534 397 2845 478 
Q 3156 559 3463 722 
L 3463 178 
Q 3153 47 2828 -22 
Q 2503 -91 2169 -91 
Q 1331 -91 842 396 
Q 353 884 353 1716 
Q 353 2575 817 3079 
Q 1281 3584 2069 3584 
Q 2775 3584 3186 3129 
Q 3597 2675 3597 1894 
z
M 3022 2063 
Q 3016 2534 2758 2815 
Q 2500 3097 2075 3097 
Q 1594 3097 1305 2825 
Q 1016 2553 972 2059 
L 3022 2063 
z
" transform="scale(0.015625)"/>
       <path id="DejaVuSans-64" d="M 2906 2969 
L 2906 4863 
L 3481 4863 
L 3481 0 
L 2906 0 
L 2906 525 
Q 2725 213 2448 61 
Q 2172 -91 1784 -91 
Q 1150 -91 751 415 
Q 353 922 353 1747 
Q 353 2572 751 3078 
Q 1150 3584 1784 3584 
Q 2172 3584 2448 3432 
Q 2725 3281 2906 2969 
z
M 947 1747 
Q 947 1113 1208 752 
Q 1469 391 1925 391 
Q 2381 391 2643 752 
Q 2906 1113 2906 1747 
Q 2906 2381 2643 2742 
Q 2381 3103 1925 3103 
Q 1469 3103 1208 2742 
Q 947 2381 947 1747 
z
" transform="scale(0.015625)"/>
       <path id="DejaVuSans-20" transform="scale(0.015625)"/>
       <path id="DejaVuSans-53" d="M 3425 4513 
L 3425 3897 
Q 3066 4069 2747 4153 
Q 2428 4238 2131 4238 
Q 1616 4238 1336 4038 
Q 1056 3838 1056 3469 
Q 1056 3159 1242 3001 
Q 1428 2844 1947 2747 
L 2328 2669 
Q 3034 2534 3370 2195 
Q 3706 1856 3706 1288 
Q 3706 609 3251 259 
Q 2797 -91 1919 -91 
Q 1588 -91 1214 -16 
Q 841 59 441 206 
L 441 856 
Q 825 641 1194 531 
Q 1563 422 1919 422 
Q 2459 422 2753 634 
Q 3047 847 3047 1241 
Q 3047 1584 2836 1778 
Q 2625 1972 2144 2069 
L 1759 2144 
Q 1053 2284 737 2584 
Q 422 2884 422 3419 
Q 422 4038 858 4394 
Q 1294 4750 2059 4750 
Q 2388 4750 2728 4690 
Q 3069 4631 3425 4513 
z
" transform="scale(0.015625)"/>
       <path id="DejaVuSans-54" d="M -19 4666 
L 3928 4666 
L 3928 4134 
L 2272 4134 
L 2272 0 
L 1638 0 
L 1638 4134 
L -19 4134 
L -19 4666 
z
" transform="scale(0.015625)"/>
      </defs>
      <use xlink:href="#DejaVuSans-4e"/>
      <use xlink:href="#DejaVuSans-6f" transform="translate(74.804688 0)"/>
      <use xlink:href="#DejaVuSans-72" transform="translate(135.986328 0)"/>
      <use xlink:href="#DejaVuSans-6d" transform="translate(175.349609 0)"/>
      <use xlink:href="#DejaVuSans-61" transform="translate(272.761719 0)"/>
      <use xlink:href="#DejaVuSans-6c" transform="translate(334.041016 0)"/>
      <use xlink:href="#DejaVuSans-69" transform="translate(361.824219 0)"/>
      <use xlink:href="#DejaVuSans-7a" transform="translate(389.607422 0)"/>
      <use xlink:href="#DejaVuSans-65" transform="translate(442.097656 0)"/>
      <use xlink:href="#DejaVuSans-64" transform="translate(503.621094 0)"/>
      <use xlink:href="#DejaVuSans-20" transform="translate(567.097656 0)"/>
      <use xlink:href="#DejaVuSans-53" transform="translate(598.884766 0)"/>
      <use xlink:href="#DejaVuSans-53" transform="translate(662.361328 0)"/>
      <use xlink:href="#DejaVuSans-54" transform="translate(725.837891 0)"/>
     </g>
    </g>
   </g>
   <g id="line2d_23">
    <path d="M 108.309034 97.84495 
L 108.838139 104.094892 
L 109.367245 95.425617 
L 109.89635 97.038505 
L 110.425455 97.240117 
L 110.95456 111.35289 
L 111.483665 94.215951 
L 112.012771 96.836894 
L 112.541876 85.748287 
L 113.070981 84.337009 
L 113.600086 77.683845 
L 114.129191 76.070957 
L 114.658297 64.780738 
L 115.187402 69.417792 
L 115.716507 67.603293 
L 116.245612 63.369461 
L 116.774717 66.192015 
L 117.303823 68.409737 
L 117.832928 68.006515 
L 118.362033 73.248402 
L 118.891138 73.651624 
L 119.420243 83.328954 
L 119.949349 87.764397 
L 120.478454 86.957953 
L 121.007559 90.788563 
L 121.536664 107.52228 
L 122.065769 105.70778 
L 122.594875 132.52205 
L 123.12398 138.570381 
L 124.18219 162.562096 
L 125.240401 185.948977 
L 125.769506 165.586262 
L 126.298611 162.360485 
L 126.827716 157.118598 
L 127.885927 135.949438 
L 128.415032 131.917217 
L 128.944137 137.763937 
L 129.473242 115.788333 
L 130.002347 111.554501 
L 130.531453 98.046561 
L 131.060558 90.586952 
L 131.589663 86.756342 
L 132.118768 87.764397 
L 132.647874 82.52251 
L 133.176979 82.320899 
L 133.706084 80.103178 
L 134.235189 86.35312 
L 134.764294 78.893511 
L 135.2934 80.5064 
L 135.822505 83.732176 
L 136.35161 79.296733 
L 136.880715 84.538621 
L 137.40982 71.433902 
L 137.938926 65.587182 
L 138.468031 69.821014 
L 138.997136 78.288678 
L 139.526241 75.869346 
L 140.055346 82.925732 
L 141.113557 70.022625 
L 141.642662 73.248402 
L 142.171767 62.361405 
L 142.700872 72.038736 
L 143.229978 78.288678 
L 143.759083 77.280623 
L 144.288188 64.377516 
L 144.817293 61.554961 
L 145.875504 70.627458 
L 146.404609 79.095122 
L 148.52103 96.03045 
L 149.050135 91.998229 
L 149.57924 93.006285 
L 150.63745 116.393166 
L 151.166556 115.989944 
L 151.695661 134.53816 
L 152.224766 131.917217 
L 152.753871 143.005824 
L 153.282977 163.973373 
L 153.812082 150.263822 
L 154.341187 140.586492 
L 154.870292 137.763937 
L 155.399397 133.933327 
L 155.928503 132.925272 
L 156.457608 120.828609 
L 156.986713 135.949438 
L 157.515818 127.280163 
L 158.044923 125.264052 
L 159.103134 104.498114 
L 159.632239 103.490059 
L 160.161344 100.264282 
L 160.690449 104.296503 
L 161.219555 102.482004 
L 161.74866 89.175675 
L 162.277765 78.893511 
L 162.80687 84.941843 
L 163.335975 85.748287 
L 163.865081 109.941612 
L 164.394186 123.852775 
L 164.923291 94.820784 
L 165.452396 97.038505 
L 165.981501 86.957953 
L 166.510607 68.409737 
L 167.039712 75.062901 
L 167.568817 96.03045 
L 168.097922 76.877401 
L 168.627027 78.490289 
L 169.156133 82.724121 
L 169.685238 78.087067 
L 170.214343 72.441958 
L 170.743448 59.740462 
L 171.272553 62.764627 
L 172.330764 57.119518 
L 172.859869 61.554961 
L 173.388974 68.812959 
L 173.91808 70.224236 
L 174.97629 90.990174 
L 175.505395 94.820784 
L 176.0345 118.006054 
L 176.563606 129.699495 
L 177.092711 130.70755 
L 177.621816 145.425157 
L 178.150921 156.513764 
L 178.680026 158.933097 
L 179.209132 156.513764 
L 179.738237 163.166929 
L 180.267342 160.949207 
L 180.796447 163.973373 
L 181.854658 151.473488 
L 182.383763 152.481543 
L 182.912868 146.836434 
L 183.441973 139.981659 
L 183.971078 121.635053 
L 184.500184 125.868885 
L 185.029289 115.1835 
L 185.558394 116.594777 
L 186.087499 113.570611 
L 186.616604 104.498114 
L 188.20392 90.385341 
L 188.733025 90.586952 
L 189.26213 84.135398 
L 189.791236 86.35312 
L 190.320341 71.837125 
L 190.849446 69.821014 
L 191.378551 88.974064 
L 191.907656 88.974064 
L 192.436762 91.998229 
L 192.965867 85.546676 
L 193.494972 91.393396 
L 194.024077 93.409507 
L 194.553183 79.699955 
L 195.082288 81.312844 
L 195.611393 81.917677 
L 196.140498 81.716066 
L 196.669603 82.925732 
L 197.198709 85.546676 
L 198.256919 65.587182 
L 198.786024 60.546906 
L 199.315129 60.950128 
L 199.844235 66.595237 
L 200.37334 59.33724 
L 200.902445 58.732407 
L 201.43155 58.934018 
L 201.960655 69.01457 
L 202.489761 76.272568 
L 203.018866 89.982119 
L 203.547971 110.748057 
L 204.077076 98.651394 
L 205.135287 126.473718 
L 205.664392 146.634823 
L 206.193497 155.102487 
L 206.722602 152.279932 
L 207.251707 157.118598 
L 207.780813 146.02999 
L 208.309918 145.021935 
L 208.839023 157.925042 
L 209.368128 157.118598 
L 209.897233 134.53816 
L 210.426339 136.151049 
L 210.955444 126.272107 
L 211.484549 123.247942 
L 212.013654 111.554501 
L 212.542759 108.127113 
L 213.071865 97.84495 
L 213.60097 84.941843 
L 214.130075 85.748287 
L 214.65918 75.264512 
L 215.188286 79.296733 
L 215.717391 76.877401 
L 216.246496 82.119288 
L 216.775601 85.345065 
L 217.304706 72.038736 
L 217.833812 69.619403 
L 218.362917 70.627458 
L 218.892022 79.095122 
L 219.421127 70.425847 
L 219.950232 71.837125 
L 220.479338 84.337009 
L 221.008443 85.546676 
L 221.537548 90.385341 
L 222.066653 77.280623 
L 222.595758 67.804904 
L 223.124864 79.901566 
L 223.653969 78.288678 
L 224.183074 73.853235 
L 224.712179 63.369461 
L 225.77039 55.50663 
L 226.299495 61.756572 
L 226.8286 57.925962 
L 227.357705 61.554961 
L 227.88681 71.03068 
L 228.415916 55.305019 
L 228.945021 75.869346 
L 230.003231 65.990404 
L 230.532336 66.595237 
L 231.590547 108.731946 
L 232.119652 113.369 
L 232.648757 112.965778 
L 233.177862 137.562326 
L 234.236073 147.038045 
L 234.765178 138.771992 
L 235.294283 138.973603 
L 235.823388 153.086377 
L 236.352494 156.312153 
L 236.881599 154.900876 
L 237.410704 158.328264 
L 237.939809 148.0461 
L 238.468915 125.667274 
L 238.99802 129.296273 
L 239.527125 128.69144 
L 240.585335 103.086837 
L 241.114441 96.232061 
L 241.643546 93.006285 
L 242.701756 80.103178 
L 243.230861 80.103178 
L 243.759967 79.296733 
L 244.289072 86.554731 
L 244.818177 83.530565 
L 245.347282 75.062901 
L 245.876387 70.224236 
L 246.405493 70.022625 
L 246.934598 83.530565 
L 247.463703 90.586952 
L 247.992808 90.385341 
L 248.521913 88.570841 
L 249.051019 83.933787 
L 249.580124 85.546676 
L 250.109229 76.474179 
L 250.638334 73.651624 
L 251.167439 75.667734 
L 251.696545 60.950128 
L 252.22565 70.627458 
L 252.754755 59.135629 
L 253.28386 61.756572 
L 253.812965 49.659909 
L 254.342071 62.563016 
L 254.871176 62.159794 
L 255.400281 56.917907 
L 255.929386 55.708241 
L 256.458491 55.103408 
L 256.987597 70.829069 
L 257.516702 64.780738 
L 258.045807 65.788793 
L 258.574912 73.450013 
L 259.104018 77.885456 
L 260.162228 98.853005 
L 260.691333 108.731946 
L 261.220438 123.651164 
L 261.749544 123.852775 
L 262.278649 128.288218 
L 262.807754 148.0461 
L 263.336859 146.836434 
L 263.865964 147.844489 
L 264.39507 151.070266 
L 265.45328 143.409046 
L 265.982385 144.820324 
L 266.51149 137.562326 
L 267.040596 142.804213 
L 267.569701 116.796388 
L 268.098806 117.804443 
L 268.627911 108.933557 
L 269.157016 103.086837 
L 270.215227 78.490289 
L 270.744332 72.84518 
L 271.273437 72.643569 
L 271.802542 74.054846 
L 272.331648 81.716066 
L 272.860753 82.320899 
L 273.389858 80.5064 
L 273.918963 83.732176 
L 274.448068 95.425617 
L 274.977174 86.756342 
L 275.506279 95.627228 
L 276.035384 85.345065 
L 276.564489 89.175675 
L 277.093594 88.36923 
L 277.6227 86.151509 
L 278.151805 73.651624 
L 278.68091 74.256457 
L 279.210015 83.127343 
L 279.739121 77.683845 
L 280.268226 83.127343 
L 280.797331 67.401682 
L 281.326436 58.530795 
L 281.855541 63.571072 
L 282.384647 56.514685 
L 282.913752 55.305019 
L 283.442857 59.33724 
L 283.971962 53.490519 
L 284.501067 61.958183 
L 285.030173 81.917677 
L 285.559278 85.345065 
L 286.088383 79.296733 
L 287.146593 95.224006 
L 287.675699 111.756112 
L 288.204804 100.062671 
L 289.263014 133.328494 
L 289.792119 134.336549 
L 290.321225 151.070266 
L 290.85033 140.384881 
L 291.379435 146.634823 
L 291.90854 142.804213 
L 292.437645 142.804213 
L 293.495856 154.296043 
L 294.024961 151.271877 
L 294.554066 145.626768 
L 295.083171 141.796158 
L 296.670487 97.441728 
L 297.199592 100.465893 
L 297.728697 98.853005 
L 298.257803 99.256227 
L 298.786908 93.207896 
L 299.316013 96.232061 
L 299.845118 97.240117 
L 300.903329 82.320899 
L 301.432434 95.425617 
L 301.961539 96.433672 
L 302.490644 100.465893 
L 303.01975 103.086837 
L 303.548855 93.207896 
L 304.07796 91.595007 
L 304.607065 87.764397 
L 305.13617 76.877401 
L 305.665276 73.651624 
L 306.194381 72.643569 
L 306.723486 65.18396 
L 307.252591 78.087067 
L 307.781696 82.925732 
L 308.310802 82.119288 
L 308.839907 84.740232 
L 309.369012 72.84518 
L 310.427222 90.586952 
L 310.956328 73.450013 
L 311.485433 72.643569 
L 312.014538 77.079012 
L 312.543643 75.667734 
L 313.072748 83.732176 
L 313.601854 102.280393 
L 314.130959 113.369 
L 314.660064 106.917447 
L 315.189169 112.562556 
L 316.24738 132.320439 
L 316.776485 149.457378 
L 317.30559 151.271877 
L 317.834695 170.424927 
L 318.3638 171.836204 
L 318.892906 153.489599 
L 319.422011 152.481543 
L 319.951116 143.409046 
L 320.480221 146.836434 
L 321.538432 132.925272 
L 322.067537 117.804443 
L 322.596642 119.618943 
L 323.125747 98.248172 
L 323.654853 105.304558 
L 324.183958 90.18373 
L 324.713063 86.957953 
L 325.242168 78.6919 
L 325.771273 76.67579 
L 326.300379 80.909622 
L 326.829484 79.498344 
L 327.358589 75.466123 
L 327.887694 80.103178 
L 328.416799 70.224236 
L 328.945905 65.587182 
L 329.47501 77.482234 
L 330.004115 81.111233 
L 330.53322 94.215951 
L 331.591431 60.143684 
L 332.120536 68.409737 
L 332.649641 69.821014 
L 333.178746 58.934018 
L 333.707851 65.788793 
L 334.236957 56.111463 
L 334.766062 66.796848 
L 335.295167 53.288908 
L 335.824272 53.288908 
L 336.882483 55.103408 
L 337.411588 56.716296 
L 337.940693 52.885686 
L 338.469798 64.175905 
L 338.998903 56.716296 
L 339.528009 59.740462 
L 340.057114 67.401682 
L 342.70264 123.046331 
L 343.231745 132.52205 
L 343.76085 139.981659 
L 344.289956 137.763937 
L 344.819061 138.36877 
L 345.348166 141.392936 
L 345.877271 145.425157 
L 346.406376 159.53793 
L 346.935482 164.174984 
L 347.464587 154.497654 
L 348.522797 143.812268 
L 349.581008 126.87694 
L 350.110113 130.70755 
L 350.639218 113.772222 
L 351.168323 110.344835 
L 351.697428 91.191785 
L 352.226534 86.35312 
L 352.755639 77.079012 
L 353.284744 76.474179 
L 353.813849 71.03068 
L 354.342954 74.256457 
L 354.87206 70.022625 
L 355.401165 81.716066 
L 355.93027 69.01457 
L 356.459375 76.67579 
L 356.98848 66.998459 
L 358.046691 85.143454 
L 358.575796 88.974064 
L 359.634006 82.925732 
L 360.163112 76.67579 
L 360.692217 76.877401 
L 361.221322 73.046791 
L 361.750427 74.054846 
L 362.808638 59.740462 
L 363.337743 72.441958 
L 363.866848 76.272568 
L 364.395953 68.611348 
L 364.925059 63.571072 
L 365.454164 65.385571 
L 365.983269 58.530795 
L 366.512374 66.998459 
L 367.041479 71.433902 
L 367.570585 64.780738 
L 368.09969 77.482234 
L 368.628795 74.659679 
L 369.1579 73.248402 
L 369.687005 84.135398 
L 370.216111 92.603062 
L 370.745216 111.151279 
L 371.274321 111.35289 
L 371.803426 103.893281 
L 372.332531 110.344835 
L 373.390742 144.417102 
L 373.919847 136.957493 
L 374.448952 148.0461 
L 374.978057 143.812268 
L 375.507163 151.473488 
L 376.036268 150.263822 
L 376.565373 147.038045 
L 377.094478 137.763937 
L 377.623583 137.965548 
L 378.152689 135.747827 
L 378.681794 122.239886 
L 380.269109 97.441728 
L 381.32732 90.788563 
L 382.914635 70.627458 
L 383.443741 67.804904 
L 385.560162 93.409507 
L 386.089267 90.586952 
L 386.618372 101.272337 
L 387.147477 91.191785 
L 387.676582 89.578897 
L 388.205688 74.054846 
L 388.734793 67.603293 
L 389.263898 65.587182 
L 389.793003 61.958183 
L 390.322108 60.546906 
L 390.851214 64.780738 
L 391.380319 72.441958 
L 391.909424 63.974294 
L 392.438529 64.780738 
L 392.967634 68.006515 
L 393.49674 63.369461 
L 394.025845 48.248632 
L 394.55495 51.474409 
L 395.084055 60.546906 
L 395.61316 80.5064 
L 396.142266 95.627228 
L 396.671371 97.643339 
L 397.200476 103.69167 
L 397.729581 112.360945 
L 398.258686 130.102717 
L 398.787792 125.062441 
L 399.316897 143.610657 
L 399.846002 146.836434 
L 400.375107 151.271877 
L 400.904212 138.36877 
L 401.433318 140.788103 
L 401.962423 144.618713 
L 402.491528 139.780047 
L 403.020633 137.562326 
L 403.549738 138.973603 
L 404.078844 146.634823 
L 404.607949 138.771992 
L 405.137054 144.013879 
L 405.666159 140.788103 
L 406.195265 126.070496 
L 406.72437 115.586722 
L 407.253475 100.465893 
L 407.78258 97.643339 
L 408.311685 95.627228 
L 409.369896 81.111233 
L 409.899001 77.683845 
L 410.428106 85.748287 
L 410.957211 82.52251 
L 411.486317 86.35312 
L 412.015422 95.828839 
L 412.544527 97.643339 
L 413.073632 85.143454 
L 413.602737 88.36923 
L 414.131843 97.643339 
L 414.660948 85.949898 
L 415.190053 88.772453 
L 415.719158 86.957953 
L 416.248263 61.958183 
L 416.777369 66.192015 
L 417.306474 73.046791 
L 417.835579 71.03068 
L 418.364684 73.248402 
L 418.893789 67.20007 
L 419.422895 65.990404 
L 419.952 72.84518 
L 420.481105 74.054846 
L 421.01021 65.18396 
L 421.539315 53.288908 
L 422.068421 75.667734 
L 422.597526 58.732407 
L 423.126631 74.054846 
L 423.655736 77.482234 
L 424.184841 98.046561 
L 424.713947 94.417562 
L 425.243052 110.748057 
L 425.772157 116.796388 
L 426.301262 116.997999 
L 426.830368 117.804443 
L 427.359473 136.35266 
L 427.888578 146.02999 
L 428.417683 149.8606 
L 428.946788 148.247711 
L 429.475894 141.392936 
L 430.004999 148.0461 
L 430.534104 146.433212 
L 431.063209 145.828379 
L 431.592314 144.013879 
L 432.12142 145.626768 
L 432.650525 140.788103 
L 433.17963 131.513995 
L 433.708735 127.078551 
L 434.23784 111.554501 
L 434.766946 102.885226 
L 435.296051 104.296503 
L 435.825156 94.820784 
L 436.354261 87.562786 
L 436.883366 77.683845 
L 437.412472 78.893511 
L 437.941577 78.087067 
L 438.470682 74.458068 
L 438.999787 79.901566 
L 439.528892 82.724121 
L 440.057998 79.296733 
L 440.587103 89.377286 
L 441.116208 87.562786 
L 441.645313 89.578897 
L 442.174418 90.385341 
L 442.703524 80.708011 
L 443.232629 68.409737 
L 443.761734 76.67579 
L 444.290839 78.490289 
L 444.819944 71.03068 
L 445.34905 76.474179 
L 445.878155 70.224236 
L 446.40726 66.796848 
L 446.936365 72.643569 
L 447.465471 84.135398 
L 447.994576 70.829069 
L 448.523681 73.450013 
L 449.581891 63.974294 
L 450.110997 67.401682 
L 450.640102 68.006515 
L 451.169207 67.804904 
L 451.698312 79.699955 
L 452.227417 84.135398 
L 453.285628 109.941612 
L 453.814733 114.175444 
L 454.343838 132.723661 
L 454.872943 142.602602 
L 455.402049 146.836434 
L 455.931154 145.425157 
L 456.460259 151.473488 
L 456.989364 145.223546 
L 457.518469 156.715375 
L 458.57668 162.965318 
L 459.105785 147.239656 
L 459.63489 135.344604 
L 460.163995 131.917217 
L 460.693101 121.03022 
L 461.222206 114.981889 
L 461.751311 100.264282 
L 462.280416 91.796618 
L 462.809521 93.006285 
L 463.338627 89.578897 
L 463.867732 80.708011 
L 464.396837 75.062901 
L 464.925942 75.667734 
L 465.455047 79.901566 
L 465.984153 72.643569 
L 466.513258 76.070957 
L 467.042363 71.635514 
L 467.571468 71.232291 
L 468.100574 81.716066 
L 468.629679 88.167619 
L 469.158784 84.337009 
L 469.687889 79.498344 
L 470.216994 73.248402 
L 470.7461 77.280623 
L 471.275205 79.901566 
L 471.80431 66.998459 
L 472.86252 57.52274 
L 473.391626 54.700186 
L 473.920731 62.764627 
L 474.449836 60.950128 
L 474.978941 61.554961 
L 475.508046 63.974294 
L 476.037152 63.974294 
L 476.566257 53.288908 
L 477.095362 59.740462 
L 477.624467 63.369461 
L 478.153572 65.385571 
L 479.211783 88.36923 
L 479.740888 96.836894 
L 480.269993 112.562556 
L 481.328204 127.481774 
L 481.857309 126.675329 
L 482.386414 134.941382 
L 482.915519 146.433212 
L 483.444624 144.417102 
L 483.97373 138.167159 
L 484.502835 149.255767 
L 485.03194 153.892821 
L 485.561045 148.852545 
L 486.09015 140.586492 
L 486.619256 136.35266 
L 487.148361 126.473718 
L 487.677466 110.748057 
L 488.206571 117.401221 
L 489.264782 91.191785 
L 489.793887 84.337009 
L 490.322992 81.716066 
L 490.852097 71.837125 
L 491.381203 72.643569 
L 491.910308 66.998459 
L 492.439413 71.837125 
L 492.968518 68.409737 
L 493.497623 82.320899 
L 494.026729 73.248402 
L 494.555834 77.885456 
L 495.084939 74.256457 
L 496.143149 87.562786 
L 496.672255 84.538621 
L 497.20136 79.498344 
L 497.730465 87.159564 
L 498.25957 76.877401 
L 498.788675 69.417792 
L 499.317781 65.18396 
L 499.846886 74.054846 
L 500.375991 67.20007 
L 500.905096 63.571072 
L 501.434201 56.514685 
L 501.963307 76.877401 
L 502.492412 74.659679 
L 503.021517 60.546906 
L 503.550622 65.587182 
L 504.079727 65.587182 
L 504.608833 68.409737 
L 505.137938 72.643569 
L 505.667043 80.5064 
L 506.196148 92.804673 
L 506.725253 95.224006 
L 507.254359 106.514225 
L 507.783464 112.965778 
L 508.841674 140.788103 
L 509.370779 145.021935 
L 509.899885 145.626768 
L 510.42899 155.908931 
L 510.958095 161.150818 
L 511.4872 155.908931 
L 512.016306 161.150818 
L 512.545411 152.078321 
L 513.074516 134.941382 
L 513.603621 135.142993 
L 514.132726 126.473718 
L 514.661832 115.586722 
L 515.190937 110.748057 
L 515.720042 110.344835 
L 516.249147 105.102947 
L 516.778252 102.683615 
L 517.307358 101.272337 
L 517.836463 87.764397 
L 518.365568 81.716066 
L 518.894673 81.514455 
L 519.423778 74.659679 
L 519.952884 72.038736 
L 520.481989 73.450013 
L 521.011094 79.095122 
L 521.540199 74.256457 
L 522.069304 76.67579 
L 522.59841 87.562786 
L 523.127515 87.764397 
L 523.65662 81.312844 
L 524.185725 85.748287 
L 524.71483 77.482234 
L 525.243936 84.135398 
L 525.773041 80.103178 
L 526.302146 69.821014 
L 526.831251 65.385571 
L 527.360356 64.175905 
L 527.889462 69.417792 
L 528.418567 65.385571 
L 528.947672 66.796848 
L 529.476777 61.151739 
L 530.005882 49.256687 
L 530.534988 51.877631 
L 531.064093 65.18396 
L 531.593198 70.022625 
L 532.122303 72.84518 
L 532.651409 78.288678 
L 533.180514 73.853235 
L 534.238724 102.280393 
L 534.767829 119.215721 
L 535.296935 126.675329 
L 535.82604 136.151049 
L 536.355145 136.151049 
L 536.88425 133.933327 
L 537.413355 140.18327 
L 537.942461 156.312153 
L 538.471566 159.739541 
L 539.000671 159.336319 
L 539.529776 164.578206 
L 540.587987 156.110542 
L 541.117092 147.038045 
L 541.646197 145.626768 
L 542.175302 134.53816 
L 542.704407 130.505939 
L 543.233513 117.401221 
L 543.762618 112.965778 
L 544.291723 105.304558 
L 544.820828 88.167619 
L 545.349933 87.764397 
L 545.879039 81.917677 
L 546.408144 83.530565 
L 546.937249 80.5064 
L 547.466354 78.6919 
L 547.995459 81.917677 
L 548.524565 76.877401 
L 549.05367 74.86129 
L 549.582775 82.925732 
L 550.11188 83.933787 
L 550.640985 88.570841 
L 551.170091 85.748287 
L 551.699196 87.159564 
L 552.228301 84.538621 
L 552.757406 85.143454 
L 553.286512 74.256457 
L 553.815617 74.458068 
L 554.344722 73.651624 
L 554.873827 69.216181 
L 555.402932 65.788793 
L 555.932038 63.772683 
L 556.461143 63.571072 
L 557.519353 56.514685 
L 558.048458 46.635744 
L 558.577564 49.055076 
L 559.106669 53.288908 
L 559.635774 53.288908 
L 560.164879 68.812959 
L 560.693984 72.441958 
L 561.22309 68.409737 
L 561.752195 71.837125 
L 562.2813 81.312844 
L 562.810405 93.409507 
L 563.33951 95.828839 
L 563.868616 113.772222 
L 565.455931 133.328494 
L 565.985036 153.69121 
L 566.514142 140.788103 
L 567.043247 145.828379 
L 567.572352 143.610657 
L 568.101457 137.159104 
L 568.630562 141.997769 
L 569.159668 141.392936 
L 570.217878 129.094662 
L 570.746983 118.409276 
L 571.276088 112.360945 
L 571.805194 109.740001 
L 572.334299 99.86106 
L 572.863404 98.248172 
L 573.392509 87.562786 
L 573.921615 79.901566 
L 574.45072 83.933787 
L 574.979825 71.433902 
L 575.50893 61.756572 
L 576.038035 67.603293 
L 576.567141 70.829069 
L 577.096246 82.925732 
L 577.625351 90.18373 
L 578.154456 81.917677 
L 579.212667 97.643339 
L 579.741772 82.320899 
L 580.270877 75.264512 
L 580.799982 78.6919 
L 581.329087 87.966008 
L 581.858193 81.111233 
L 582.387298 70.022625 
L 582.916403 77.079012 
L 583.445508 61.554961 
L 583.974613 63.369461 
L 584.503719 61.554961 
L 585.032824 57.321129 
L 585.561929 65.990404 
L 586.091034 61.958183 
L 586.620139 75.466123 
L 587.149245 69.417792 
L 587.67835 61.958183 
L 588.207455 75.869346 
L 588.73656 64.175905 
L 589.265665 75.667734 
L 589.794771 91.998229 
L 590.323876 98.449783 
L 590.852981 110.143224 
L 591.382086 109.336779 
L 591.911191 118.409276 
L 592.440297 118.207665 
L 593.498507 132.52205 
L 594.027612 151.473488 
L 594.556718 144.215491 
L 595.085823 143.005824 
L 595.614928 130.304328 
L 596.673138 145.828379 
L 597.731349 121.03022 
L 598.260454 115.788333 
L 598.789559 121.433442 
L 599.318664 114.981889 
L 599.84777 100.264282 
L 600.376875 91.998229 
L 600.90598 90.990174 
L 601.435085 82.119288 
L 601.96419 90.586952 
L 602.493296 77.482234 
L 603.022401 85.345065 
L 603.551506 76.67579 
L 604.080611 73.651624 
L 604.609716 77.683845 
L 605.138822 73.651624 
L 605.667927 79.699955 
L 606.197032 88.974064 
L 606.726137 95.828839 
L 607.255242 82.724121 
L 607.784348 91.393396 
L 608.842558 77.280623 
L 609.371663 77.885456 
L 610.429874 61.554961 
L 610.958979 69.417792 
L 611.488084 61.958183 
L 612.017189 62.159794 
L 612.546294 71.03068 
L 613.0754 72.441958 
L 614.13361 57.52274 
L 614.662715 60.546906 
L 615.19182 52.885686 
L 616.250031 85.949898 
L 616.779136 79.296733 
L 617.308241 82.925732 
L 618.895557 102.683615 
L 619.424662 119.417332 
L 619.953767 116.393166 
L 620.482873 130.102717 
L 621.011978 123.852775 
L 621.541083 121.635053 
L 622.070188 124.255997 
L 622.599293 141.191325 
L 623.128399 140.18327 
L 623.657504 139.780047 
L 624.715714 130.505939 
L 625.773925 115.586722 
L 626.30303 120.828609 
L 626.832135 103.893281 
L 627.36124 90.990174 
L 627.890345 83.732176 
L 628.419451 88.772453 
L 628.948556 89.780508 
L 629.477661 80.103178 
L 630.006766 74.256457 
L 630.535871 83.328954 
L 631.064977 81.312844 
L 631.594082 69.216181 
L 632.123187 76.474179 
L 632.652292 87.562786 
L 633.181397 83.328954 
L 633.710503 80.304789 
L 634.239608 100.667504 
L 635.297818 68.812959 
L 635.826923 70.627458 
L 636.356029 82.320899 
L 636.885134 69.417792 
L 637.414239 63.369461 
L 637.943344 65.18396 
L 638.47245 72.038736 
L 639.001555 64.377516 
L 639.53066 73.651624 
L 640.059765 70.022625 
L 640.58887 80.304789 
L 641.117976 69.01457 
L 641.647081 62.159794 
L 642.176186 73.248402 
L 642.705291 79.095122 
L 643.234396 69.619403 
L 643.763502 71.433902 
L 644.292607 70.425847 
L 644.821712 81.716066 
L 645.350817 68.611348 
L 645.879922 94.619173 
L 646.409028 99.054616 
L 646.938133 101.272337 
L 647.996343 138.771992 
L 648.525448 148.852545 
L 649.054554 139.780047 
L 650.112764 157.320209 
L 650.641869 154.497654 
L 651.170974 145.626768 
L 651.70008 139.175214 
L 652.229185 141.191325 
L 652.75829 150.062211 
L 653.287395 132.52205 
L 653.8165 128.288218 
L 654.345606 129.497884 
L 654.874711 123.449553 
L 655.932921 105.102947 
L 656.462026 104.901336 
L 656.991132 96.433672 
L 657.520237 83.328954 
L 658.049342 81.111233 
L 658.578447 72.84518 
L 659.107553 68.812959 
L 659.636658 73.853235 
L 660.694868 64.780738 
L 661.223973 73.853235 
L 661.753079 73.853235 
L 662.282184 72.038736 
L 662.811289 63.772683 
L 663.340394 64.175905 
L 663.869499 57.321129 
L 664.398605 63.571072 
L 664.92771 62.159794 
L 665.456815 54.700186 
L 665.98592 58.530795 
L 666.515025 52.885686 
L 667.044131 57.321129 
L 667.573236 44.0148 
L 668.102341 53.288908 
L 668.631446 43.611578 
L 669.160551 53.288908 
L 669.689657 59.740462 
L 670.218762 55.909852 
L 670.747867 56.917907 
L 671.276972 62.966238 
L 671.806077 74.86129 
L 672.335183 73.046791 
L 672.864288 89.982119 
L 673.393393 83.127343 
L 673.922498 99.659449 
L 674.451603 122.038275 
L 674.980709 113.772222 
L 675.509814 122.038275 
L 676.038919 120.223776 
L 677.097129 136.35266 
L 677.626235 132.723661 
L 678.15534 138.167159 
L 678.684445 130.70755 
L 679.21355 118.610888 
L 679.742656 117.804443 
L 680.271761 122.239886 
L 680.800866 114.578667 
L 681.329971 103.490059 
L 681.859076 102.482004 
L 682.388182 96.433672 
L 682.917287 92.401451 
L 683.975497 89.780508 
L 684.504602 77.482234 
L 685.033708 77.482234 
L 685.562813 73.450013 
L 686.091918 72.038736 
L 686.621023 66.595237 
L 687.150128 68.812959 
L 687.679234 70.022625 
L 688.208339 76.877401 
L 688.737444 75.062901 
L 689.266549 85.143454 
L 689.795654 74.86129 
L 690.32476 72.84518 
L 690.853865 73.450013 
L 691.38297 82.724121 
L 692.44118 70.627458 
L 692.970286 71.03068 
L 693.499391 68.409737 
L 694.028496 66.796848 
L 694.557601 65.990404 
L 695.086706 64.780738 
L 695.615812 62.361405 
L 696.144917 60.546906 
L 696.674022 74.659679 
L 697.203127 65.18396 
L 697.732232 57.724351 
L 698.261338 61.756572 
L 698.790443 67.603293 
L 699.319548 69.821014 
L 699.848653 80.5064 
L 700.377759 83.933787 
L 700.906864 101.272337 
L 701.435969 108.731946 
L 701.965074 107.925502 
L 702.494179 118.812499 
L 703.023285 133.933327 
L 703.55239 141.191325 
L 704.081495 152.279932 
L 704.6106 148.852545 
L 705.139705 154.497654 
L 705.668811 147.844489 
L 706.197916 135.949438 
L 706.727021 133.126883 
L 707.256126 138.36877 
L 707.785231 132.925272 
L 708.843442 112.562556 
L 709.372547 104.296503 
L 709.901652 106.715836 
L 710.430757 106.917447 
L 710.959863 97.643339 
L 711.488968 100.667504 
L 712.018073 77.885456 
L 712.547178 90.586952 
L 713.076283 80.708011 
L 713.605389 74.256457 
L 714.134494 80.909622 
L 715.192704 71.433902 
L 715.721809 64.377516 
L 716.250915 65.385571 
L 716.78002 74.458068 
L 717.309125 67.603293 
L 718.367335 108.328724 
L 718.896441 102.482004 
L 719.425546 94.417562 
L 719.954651 88.570841 
L 720.483756 77.683845 
L 721.012862 70.425847 
L 721.541967 70.829069 
L 722.071072 63.369461 
L 722.600177 66.595237 
L 723.129282 69.01457 
L 723.658388 84.740232 
L 724.187493 71.232291 
L 724.716598 74.054846 
L 725.245703 64.780738 
L 725.774808 74.256457 
L 726.303914 79.498344 
L 726.833019 81.111233 
L 727.891229 98.046561 
L 728.420334 86.151509 
L 728.94944 109.941612 
L 729.478545 120.223776 
L 730.00765 122.84472 
L 730.536755 128.288218 
L 731.06586 151.473488 
L 731.594966 151.070266 
L 732.124071 149.658989 
L 732.653176 159.739541 
L 733.182281 163.570151 
L 733.711386 143.005824 
L 734.240492 151.070266 
L 734.769597 133.126883 
L 735.298702 138.973603 
L 735.827807 124.255997 
L 736.356912 123.651164 
L 736.886018 106.312614 
L 737.415123 112.764167 
L 737.944228 106.312614 
L 738.473333 96.635283 
L 739.002438 96.433672 
L 739.531544 85.748287 
L 740.060649 88.974064 
L 740.589754 87.764397 
L 741.118859 83.530565 
L 741.647964 83.933787 
L 742.17707 80.103178 
L 742.706175 72.84518 
L 743.23528 75.869346 
L 743.764385 71.635514 
L 744.293491 72.240347 
L 744.822596 61.756572 
L 745.351701 66.595237 
L 745.880806 76.070957 
L 746.409911 75.667734 
L 747.997227 61.554961 
L 748.526332 60.345295 
L 749.055437 66.192015 
L 749.584543 60.143684 
L 750.113648 55.708241 
L 750.642753 52.885686 
L 751.171858 55.708241 
L 751.700963 52.885686 
L 752.230069 57.119518 
L 752.759174 43.409967 
L 753.288279 73.248402 
L 753.817384 69.01457 
L 754.346489 60.143684 
L 754.875595 66.796848 
L 755.4047 82.925732 
L 755.933805 90.18373 
L 756.46291 95.627228 
L 756.992015 120.022165 
L 757.521121 132.52205 
L 758.050226 130.909161 
L 758.579331 139.578436 
L 759.108436 151.473488 
L 759.637541 154.094432 
L 760.166647 150.667044 
L 760.695752 148.852545 
L 761.224857 139.780047 
L 761.753962 138.570381 
L 762.283067 144.820324 
L 763.870383 130.505939 
L 764.399488 130.102717 
L 764.928594 122.84472 
L 765.457699 111.151279 
L 765.986804 104.498114 
L 766.515909 89.982119 
L 767.045014 99.256227 
L 767.57412 89.377286 
L 768.103225 89.175675 
L 768.63233 74.256457 
L 769.161435 83.530565 
L 769.69054 82.724121 
L 770.748751 79.095122 
L 771.277856 74.86129 
L 771.806961 84.337009 
L 772.336066 83.127343 
L 772.865172 83.328954 
L 773.394277 86.35312 
L 773.923382 84.740232 
L 774.452487 72.240347 
L 774.981592 72.441958 
L 775.510698 84.135398 
L 776.039803 78.893511 
L 776.568908 72.240347 
L 777.098013 75.264512 
L 777.627118 66.595237 
L 778.156224 64.780738 
L 778.685329 68.409737 
L 779.743539 56.111463 
L 780.272644 60.748517 
L 780.80175 69.01457 
L 781.330855 63.571072 
L 781.85996 62.764627 
L 782.389065 71.837125 
L 782.91817 84.941843 
L 783.447276 84.941843 
L 783.976381 92.19984 
L 784.505486 103.288448 
L 785.034591 111.151279 
L 785.563697 111.151279 
L 787.151012 145.626768 
L 787.680117 148.0461 
L 788.209223 151.87671 
L 788.738328 150.465433 
L 789.267433 142.602602 
L 789.796538 146.02999 
L 790.325643 138.771992 
L 790.854749 135.344604 
L 791.383854 129.094662 
L 791.912959 126.675329 
L 792.971169 103.893281 
L 793.500275 98.651394 
L 794.02938 102.683615 
L 794.558485 103.490059 
L 795.08759 93.006285 
L 795.616695 84.740232 
L 796.145801 87.562786 
L 796.674906 82.52251 
L 797.204011 80.5064 
L 797.733116 73.651624 
L 798.262221 73.651624 
L 798.791327 79.498344 
L 799.320432 81.312844 
L 799.849537 90.18373 
L 800.907747 79.498344 
L 801.436853 77.683845 
L 801.965958 72.643569 
L 802.495063 78.893511 
L 803.024168 76.67579 
L 803.553273 63.571072 
L 804.611484 57.321129 
L 805.140589 65.587182 
L 805.669694 55.50663 
L 806.1988 60.345295 
L 806.727905 55.103408 
L 807.25701 52.885686 
L 807.786115 45.426077 
L 808.31522 42.603523 
L 808.844326 57.321129 
L 809.373431 55.708241 
L 809.902536 60.748517 
L 810.431641 61.554961 
L 810.960746 87.361175 
L 812.018957 122.84472 
L 813.077167 110.143224 
L 813.606272 129.497884 
L 814.135378 127.884996 
L 814.664483 145.626768 
L 815.193588 131.917217 
L 815.722693 142.400991 
L 816.251798 140.989714 
L 816.780904 144.013879 
L 817.310009 141.594547 
L 817.839114 142.602602 
L 818.368219 142.400991 
L 818.897324 130.102717 
L 819.42643 121.635053 
L 819.955535 104.901336 
L 820.48464 101.877171 
L 821.013745 96.635283 
L 821.54285 93.006285 
L 822.071956 87.966008 
L 822.601061 90.586952 
L 823.130166 75.062901 
L 823.659271 68.006515 
L 824.188376 84.538621 
L 824.717482 66.595237 
L 825.246587 81.716066 
L 825.775692 82.52251 
L 826.304797 87.966008 
L 826.833903 88.772453 
L 827.363008 89.982119 
L 827.892113 88.974064 
L 828.421218 104.094892 
L 828.950323 107.52228 
L 829.479429 101.67556 
L 830.537639 75.062901 
L 831.066744 80.304789 
L 831.595849 77.280623 
L 832.124955 65.587182 
L 832.65406 67.804904 
L 833.183165 75.667734 
L 834.241375 66.595237 
L 834.770481 55.103408 
L 835.299586 57.119518 
L 835.828691 61.756572 
L 836.357796 73.248402 
L 836.886901 80.708011 
L 837.416007 79.901566 
L 837.945112 99.256227 
L 838.474217 101.473949 
L 839.003322 101.070726 
L 839.532427 122.441497 
L 840.061533 122.441497 
L 840.590638 131.917217 
L 841.119743 147.844489 
L 841.648848 157.118598 
L 842.177953 138.973603 
L 842.707059 145.425157 
L 843.236164 159.336319 
L 844.823479 128.893051 
L 845.352585 131.715606 
L 846.9399 112.562556 
L 847.469005 107.119058 
L 848.527216 90.788563 
L 848.527216 90.788563 
" clip-path="url(#p6ddef9058c)" style="fill: none; stroke: #ff7f0e; stroke-opacity: 0.9; stroke-width: 1.8; stroke-linecap: square"/>
   </g>
   <g id="patch_3">
    <path d="M 71.298125 193.11625 
L 71.298125 35.43625 
" style="fill: none; stroke: #000000; stroke-width: 0.8; stroke-linejoin: miter; stroke-linecap: square"/>
   </g>
   <g id="patch_4">
    <path d="M 885.538125 193.11625 
L 885.538125 35.43625 
" style="fill: none; stroke: #000000; stroke-width: 0.8; stroke-linejoin: miter; stroke-linecap: square"/>
   </g>
   <g id="patch_5">
    <path d="M 71.298125 193.11625 
L 885.538125 193.11625 
" style="fill: none; stroke: #000000; stroke-width: 0.8; stroke-linejoin: miter; stroke-linecap: square"/>
   </g>
   <g id="patch_6">
    <path d="M 71.298125 35.43625 
L 885.538125 35.43625 
" style="fill: none; stroke: #000000; stroke-width: 0.8; stroke-linejoin: miter; stroke-linecap: square"/>
   </g>
   <g id="text_14">
    <!-- Sensor Location 20234 -->
    <g transform="translate(340.725625 25.43625) scale(0.24 -0.24)">
     <defs>
      <path id="DejaVuSans-6e" d="M 3513 2113 
L 3513 0 
L 2938 0 
L 2938 2094 
Q 2938 2591 2744 2837 
Q 2550 3084 2163 3084 
Q 1697 3084 1428 2787 
Q 1159 2491 1159 1978 
L 1159 0 
L 581 0 
L 581 3500 
L 1159 3500 
L 1159 2956 
Q 1366 3272 1645 3428 
Q 1925 3584 2291 3584 
Q 2894 3584 3203 3211 
Q 3513 2838 3513 2113 
z
" transform="scale(0.015625)"/>
      <path id="DejaVuSans-73" d="M 2834 3397 
L 2834 2853 
Q 2591 2978 2328 3040 
Q 2066 3103 1784 3103 
Q 1356 3103 1142 2972 
Q 928 2841 928 2578 
Q 928 2378 1081 2264 
Q 1234 2150 1697 2047 
L 1894 2003 
Q 2506 1872 2764 1633 
Q 3022 1394 3022 966 
Q 3022 478 2636 193 
Q 2250 -91 1575 -91 
Q 1294 -91 989 -36 
Q 684 19 347 128 
L 347 722 
Q 666 556 975 473 
Q 1284 391 1588 391 
Q 1994 391 2212 530 
Q 2431 669 2431 922 
Q 2431 1156 2273 1281 
Q 2116 1406 1581 1522 
L 1381 1569 
Q 847 1681 609 1914 
Q 372 2147 372 2553 
Q 372 3047 722 3315 
Q 1072 3584 1716 3584 
Q 2034 3584 2315 3537 
Q 2597 3491 2834 3397 
z
" transform="scale(0.015625)"/>
      <path id="DejaVuSans-4c" d="M 628 4666 
L 1259 4666 
L 1259 531 
L 3531 531 
L 3531 0 
L 628 0 
L 628 4666 
z
" transform="scale(0.015625)"/>
      <path id="DejaVuSans-63" d="M 3122 3366 
L 3122 2828 
Q 2878 2963 2633 3030 
Q 2388 3097 2138 3097 
Q 1578 3097 1268 2742 
Q 959 2388 959 1747 
Q 959 1106 1268 751 
Q 1578 397 2138 397 
Q 2388 397 2633 464 
Q 2878 531 3122 666 
L 3122 134 
Q 2881 22 2623 -34 
Q 2366 -91 2075 -91 
Q 1284 -91 818 406 
Q 353 903 353 1747 
Q 353 2603 823 3093 
Q 1294 3584 2113 3584 
Q 2378 3584 2631 3529 
Q 2884 3475 3122 3366 
z
" transform="scale(0.015625)"/>
      <path id="DejaVuSans-74" d="M 1172 4494 
L 1172 3500 
L 2356 3500 
L 2356 3053 
L 1172 3053 
L 1172 1153 
Q 1172 725 1289 603 
Q 1406 481 1766 481 
L 2356 481 
L 2356 0 
L 1766 0 
Q 1100 0 847 248 
Q 594 497 594 1153 
L 594 3053 
L 172 3053 
L 172 3500 
L 594 3500 
L 594 4494 
L 1172 4494 
z
" transform="scale(0.015625)"/>
      <path id="DejaVuSans-33" d="M 2597 2516 
Q 3050 2419 3304 2112 
Q 3559 1806 3559 1356 
Q 3559 666 3084 287 
Q 2609 -91 1734 -91 
Q 1441 -91 1130 -33 
Q 819 25 488 141 
L 488 750 
Q 750 597 1062 519 
Q 1375 441 1716 441 
Q 2309 441 2620 675 
Q 2931 909 2931 1356 
Q 2931 1769 2642 2001 
Q 2353 2234 1838 2234 
L 1294 2234 
L 1294 2753 
L 1863 2753 
Q 2328 2753 2575 2939 
Q 2822 3125 2822 3475 
Q 2822 3834 2567 4026 
Q 2313 4219 1838 4219 
Q 1578 4219 1281 4162 
Q 984 4106 628 3988 
L 628 4550 
Q 988 4650 1302 4700 
Q 1616 4750 1894 4750 
Q 2613 4750 3031 4423 
Q 3450 4097 3450 3541 
Q 3450 3153 3228 2886 
Q 3006 2619 2597 2516 
z
" transform="scale(0.015625)"/>
     </defs>
     <use xlink:href="#DejaVuSans-53"/>
     <use xlink:href="#DejaVuSans-65" transform="translate(63.476562 0)"/>
     <use xlink:href="#DejaVuSans-6e" transform="translate(125 0)"/>
     <use xlink:href="#DejaVuSans-73" transform="translate(188.378906 0)"/>
     <use xlink:href="#DejaVuSans-6f" transform="translate(240.478516 0)"/>
     <use xlink:href="#DejaVuSans-72" transform="translate(301.660156 0)"/>
     <use xlink:href="#DejaVuSans-20" transform="translate(342.773438 0)"/>
     <use xlink:href="#DejaVuSans-4c" transform="translate(374.560547 0)"/>
     <use xlink:href="#DejaVuSans-6f" transform="translate(428.523438 0)"/>
     <use xlink:href="#DejaVuSans-63" transform="translate(489.705078 0)"/>
     <use xlink:href="#DejaVuSans-61" transform="translate(544.685547 0)"/>
     <use xlink:href="#DejaVuSans-74" transform="translate(605.964844 0)"/>
     <use xlink:href="#DejaVuSans-69" transform="translate(645.173828 0)"/>
     <use xlink:href="#DejaVuSans-6f" transform="translate(672.957031 0)"/>
     <use xlink:href="#DejaVuSans-6e" transform="translate(734.138672 0)"/>
     <use xlink:href="#DejaVuSans-20" transform="translate(797.517578 0)"/>
     <use xlink:href="#DejaVuSans-32" transform="translate(829.304688 0)"/>
     <use xlink:href="#DejaVuSans-30" transform="translate(892.927734 0)"/>
     <use xlink:href="#DejaVuSans-32" transform="translate(956.550781 0)"/>
     <use xlink:href="#DejaVuSans-33" transform="translate(1020.173828 0)"/>
     <use xlink:href="#DejaVuSans-34" transform="translate(1083.796875 0)"/>
    </g>
   </g>
  </g>
 </g>
 <defs>
  <clipPath id="p6ddef9058c">
   <rect x="71.298125" y="35.43625" width="814.24" height="157.68"/>
  </clipPath>
 </defs>
</svg>
