<?xml version="1.0" encoding="utf-8" standalone="no"?>
<!DOCTYPE svg PUBLIC "-//W3C//DTD SVG 1.1//EN"
  "http://www.w3.org/Graphics/SVG/1.1/DTD/svg11.dtd">
<svg xmlns:xlink="http://www.w3.org/1999/xlink" width="892.738125pt" height="251.964375pt" viewBox="0 0 892.738125 251.964375" xmlns="http://www.w3.org/2000/svg" version="1.1">
 <metadata>
  <rdf:RDF xmlns:dc="http://purl.org/dc/elements/1.1/" xmlns:cc="http://creativecommons.org/ns#" xmlns:rdf="http://www.w3.org/1999/02/22-rdf-syntax-ns#">
   <cc:Work>
    <dc:type rdf:resource="http://purl.org/dc/dcmitype/StillImage"/>
    <dc:date>2026-02-24T16:51:50.106803</dc:date>
    <dc:format>image/svg+xml</dc:format>
    <dc:creator>
     <cc:Agent>
      <dc:title>Matplotlib v3.10.6, https://matplotlib.org/</dc:title>
     </cc:Agent>
    </dc:creator>
   </cc:Work>
  </rdf:RDF>
 </metadata>
 <defs>
  <style type="text/css">*{stroke-linejoin: round; stroke-linecap: butt}</style>
 </defs>
 <g id="figure_1">
  <g id="patch_1">
   <path d="M -0 251.964375 
L 892.738125 251.964375 
L 892.738125 0 
L -0 0 
z
" style="fill: #ffffff"/>
  </g>
  <g id="axes_1">
   <g id="patch_2">
    <path d="M 71.298125 193.11625 
L 885.538125 193.11625 
L 885.538125 35.43625 
L 71.298125 35.43625 
z
" style="fill: #ffffff"/>
   </g>
   <g id="matplotlib.axis_1">
    <g id="xtick_1">
     <g id="line2d_1">
      <path d="M 108.309034 193.11625 
L 108.309034 35.43625 
" clip-path="url(#p8d5ddb6005)" style="fill: none; stroke-dasharray: 2.96,1.28; stroke-dashoffset: 0; stroke: #b0b0b0; stroke-opacity: 0.3; stroke-width: 0.8"/>
     </g>
     <g id="line2d_2">
      <defs>
       <path id="m360c8fdcab" d="M 0 0 
L 0 3.5 
" style="stroke: #000000; stroke-width: 0.8"/>
      </defs>
      <g>
       <use xlink:href="#m360c8fdcab" x="108.309034" y="193.11625" style="stroke: #000000; stroke-width: 0.8"/>
      </g>
     </g>
     <g id="text_1">
      <!-- 0 -->
      <g transform="translate(101.946534 215.313125) scale(0.2 -0.2)">
       <defs>
        <path id="DejaVuSans-30" d="M 2034 4250 
Q 1547 4250 1301 3770 
Q 1056 3291 1056 2328 
Q 1056 1369 1301 889 
Q 1547 409 2034 409 
Q 2525 409 2770 889 
Q 3016 1369 3016 2328 
Q 3016 3291 2770 3770 
Q 2525 4250 2034 4250 
z
M 2034 4750 
Q 2819 4750 3233 4129 
Q 3647 3509 3647 2328 
Q 3647 1150 3233 529 
Q 2819 -91 2034 -91 
Q 1250 -91 836 529 
Q 422 1150 422 2328 
Q 422 3509 836 4129 
Q 1250 4750 2034 4750 
z
" transform="scale(0.015625)"/>
       </defs>
       <use xlink:href="#DejaVuSans-30"/>
      </g>
     </g>
    </g>
    <g id="xtick_2">
     <g id="line2d_3">
      <path d="M 214.130075 193.11625 
L 214.130075 35.43625 
" clip-path="url(#p8d5ddb6005)" style="fill: none; stroke-dasharray: 2.96,1.28; stroke-dashoffset: 0; stroke: #b0b0b0; stroke-opacity: 0.3; stroke-width: 0.8"/>
     </g>
     <g id="line2d_4">
      <g>
       <use xlink:href="#m360c8fdcab" x="214.130075" y="193.11625" style="stroke: #000000; stroke-width: 0.8"/>
      </g>
     </g>
     <g id="text_2">
      <!-- 200 -->
      <g transform="translate(195.042575 215.313125) scale(0.2 -0.2)">
       <defs>
        <path id="DejaVuSans-32" d="M 1228 531 
L 3431 531 
L 3431 0 
L 469 0 
L 469 531 
Q 828 903 1448 1529 
Q 2069 2156 2228 2338 
Q 2531 2678 2651 2914 
Q 2772 3150 2772 3378 
Q 2772 3750 2511 3984 
Q 2250 4219 1831 4219 
Q 1534 4219 1204 4116 
Q 875 4013 500 3803 
L 500 4441 
Q 881 4594 1212 4672 
Q 1544 4750 1819 4750 
Q 2544 4750 2975 4387 
Q 3406 4025 3406 3419 
Q 3406 3131 3298 2873 
Q 3191 2616 2906 2266 
Q 2828 2175 2409 1742 
Q 1991 1309 1228 531 
z
" transform="scale(0.015625)"/>
       </defs>
       <use xlink:href="#DejaVuSans-32"/>
       <use xlink:href="#DejaVuSans-30" transform="translate(63.623047 0)"/>
       <use xlink:href="#DejaVuSans-30" transform="translate(127.246094 0)"/>
      </g>
     </g>
    </g>
    <g id="xtick_3">
     <g id="line2d_5">
      <path d="M 319.951116 193.11625 
L 319.951116 35.43625 
" clip-path="url(#p8d5ddb6005)" style="fill: none; stroke-dasharray: 2.96,1.28; stroke-dashoffset: 0; stroke: #b0b0b0; stroke-opacity: 0.3; stroke-width: 0.8"/>
     </g>
     <g id="line2d_6">
      <g>
       <use xlink:href="#m360c8fdcab" x="319.951116" y="193.11625" style="stroke: #000000; stroke-width: 0.8"/>
      </g>
     </g>
     <g id="text_3">
      <!-- 400 -->
      <g transform="translate(300.863616 215.313125) scale(0.2 -0.2)">
       <defs>
        <path id="DejaVuSans-34" d="M 2419 4116 
L 825 1625 
L 2419 1625 
L 2419 4116 
z
M 2253 4666 
L 3047 4666 
L 3047 1625 
L 3713 1625 
L 3713 1100 
L 3047 1100 
L 3047 0 
L 2419 0 
L 2419 1100 
L 313 1100 
L 313 1709 
L 2253 4666 
z
" transform="scale(0.015625)"/>
       </defs>
       <use xlink:href="#DejaVuSans-34"/>
       <use xlink:href="#DejaVuSans-30" transform="translate(63.623047 0)"/>
       <use xlink:href="#DejaVuSans-30" transform="translate(127.246094 0)"/>
      </g>
     </g>
    </g>
    <g id="xtick_4">
     <g id="line2d_7">
      <path d="M 425.772157 193.11625 
L 425.772157 35.43625 
" clip-path="url(#p8d5ddb6005)" style="fill: none; stroke-dasharray: 2.96,1.28; stroke-dashoffset: 0; stroke: #b0b0b0; stroke-opacity: 0.3; stroke-width: 0.8"/>
     </g>
     <g id="line2d_8">
      <g>
       <use xlink:href="#m360c8fdcab" x="425.772157" y="193.11625" style="stroke: #000000; stroke-width: 0.8"/>
      </g>
     </g>
     <g id="text_4">
      <!-- 600 -->
      <g transform="translate(406.684657 215.313125) scale(0.2 -0.2)">
       <defs>
        <path id="DejaVuSans-36" d="M 2113 2584 
Q 1688 2584 1439 2293 
Q 1191 2003 1191 1497 
Q 1191 994 1439 701 
Q 1688 409 2113 409 
Q 2538 409 2786 701 
Q 3034 994 3034 1497 
Q 3034 2003 2786 2293 
Q 2538 2584 2113 2584 
z
M 3366 4563 
L 3366 3988 
Q 3128 4100 2886 4159 
Q 2644 4219 2406 4219 
Q 1781 4219 1451 3797 
Q 1122 3375 1075 2522 
Q 1259 2794 1537 2939 
Q 1816 3084 2150 3084 
Q 2853 3084 3261 2657 
Q 3669 2231 3669 1497 
Q 3669 778 3244 343 
Q 2819 -91 2113 -91 
Q 1303 -91 875 529 
Q 447 1150 447 2328 
Q 447 3434 972 4092 
Q 1497 4750 2381 4750 
Q 2619 4750 2861 4703 
Q 3103 4656 3366 4563 
z
" transform="scale(0.015625)"/>
       </defs>
       <use xlink:href="#DejaVuSans-36"/>
       <use xlink:href="#DejaVuSans-30" transform="translate(63.623047 0)"/>
       <use xlink:href="#DejaVuSans-30" transform="translate(127.246094 0)"/>
      </g>
     </g>
    </g>
    <g id="xtick_5">
     <g id="line2d_9">
      <path d="M 531.593198 193.11625 
L 531.593198 35.43625 
" clip-path="url(#p8d5ddb6005)" style="fill: none; stroke-dasharray: 2.96,1.28; stroke-dashoffset: 0; stroke: #b0b0b0; stroke-opacity: 0.3; stroke-width: 0.8"/>
     </g>
     <g id="line2d_10">
      <g>
       <use xlink:href="#m360c8fdcab" x="531.593198" y="193.11625" style="stroke: #000000; stroke-width: 0.8"/>
      </g>
     </g>
     <g id="text_5">
      <!-- 800 -->
      <g transform="translate(512.505698 215.313125) scale(0.2 -0.2)">
       <defs>
        <path id="DejaVuSans-38" d="M 2034 2216 
Q 1584 2216 1326 1975 
Q 1069 1734 1069 1313 
Q 1069 891 1326 650 
Q 1584 409 2034 409 
Q 2484 409 2743 651 
Q 3003 894 3003 1313 
Q 3003 1734 2745 1975 
Q 2488 2216 2034 2216 
z
M 1403 2484 
Q 997 2584 770 2862 
Q 544 3141 544 3541 
Q 544 4100 942 4425 
Q 1341 4750 2034 4750 
Q 2731 4750 3128 4425 
Q 3525 4100 3525 3541 
Q 3525 3141 3298 2862 
Q 3072 2584 2669 2484 
Q 3125 2378 3379 2068 
Q 3634 1759 3634 1313 
Q 3634 634 3220 271 
Q 2806 -91 2034 -91 
Q 1263 -91 848 271 
Q 434 634 434 1313 
Q 434 1759 690 2068 
Q 947 2378 1403 2484 
z
M 1172 3481 
Q 1172 3119 1398 2916 
Q 1625 2713 2034 2713 
Q 2441 2713 2670 2916 
Q 2900 3119 2900 3481 
Q 2900 3844 2670 4047 
Q 2441 4250 2034 4250 
Q 1625 4250 1398 4047 
Q 1172 3844 1172 3481 
z
" transform="scale(0.015625)"/>
       </defs>
       <use xlink:href="#DejaVuSans-38"/>
       <use xlink:href="#DejaVuSans-30" transform="translate(63.623047 0)"/>
       <use xlink:href="#DejaVuSans-30" transform="translate(127.246094 0)"/>
      </g>
     </g>
    </g>
    <g id="xtick_6">
     <g id="line2d_11">
      <path d="M 637.414239 193.11625 
L 637.414239 35.43625 
" clip-path="url(#p8d5ddb6005)" style="fill: none; stroke-dasharray: 2.96,1.28; stroke-dashoffset: 0; stroke: #b0b0b0; stroke-opacity: 0.3; stroke-width: 0.8"/>
     </g>
     <g id="line2d_12">
      <g>
       <use xlink:href="#m360c8fdcab" x="637.414239" y="193.11625" style="stroke: #000000; stroke-width: 0.8"/>
      </g>
     </g>
     <g id="text_6">
      <!-- 1000 -->
      <g transform="translate(611.964239 215.313125) scale(0.2 -0.2)">
       <defs>
        <path id="DejaVuSans-31" d="M 794 531 
L 1825 531 
L 1825 4091 
L 703 3866 
L 703 4441 
L 1819 4666 
L 2450 4666 
L 2450 531 
L 3481 531 
L 3481 0 
L 794 0 
L 794 531 
z
" transform="scale(0.015625)"/>
       </defs>
       <use xlink:href="#DejaVuSans-31"/>
       <use xlink:href="#DejaVuSans-30" transform="translate(63.623047 0)"/>
       <use xlink:href="#DejaVuSans-30" transform="translate(127.246094 0)"/>
       <use xlink:href="#DejaVuSans-30" transform="translate(190.869141 0)"/>
      </g>
     </g>
    </g>
    <g id="xtick_7">
     <g id="line2d_13">
      <path d="M 743.23528 193.11625 
L 743.23528 35.43625 
" clip-path="url(#p8d5ddb6005)" style="fill: none; stroke-dasharray: 2.96,1.28; stroke-dashoffset: 0; stroke: #b0b0b0; stroke-opacity: 0.3; stroke-width: 0.8"/>
     </g>
     <g id="line2d_14">
      <g>
       <use xlink:href="#m360c8fdcab" x="743.23528" y="193.11625" style="stroke: #000000; stroke-width: 0.8"/>
      </g>
     </g>
     <g id="text_7">
      <!-- 1200 -->
      <g transform="translate(717.78528 215.313125) scale(0.2 -0.2)">
       <use xlink:href="#DejaVuSans-31"/>
       <use xlink:href="#DejaVuSans-32" transform="translate(63.623047 0)"/>
       <use xlink:href="#DejaVuSans-30" transform="translate(127.246094 0)"/>
       <use xlink:href="#DejaVuSans-30" transform="translate(190.869141 0)"/>
      </g>
     </g>
    </g>
    <g id="xtick_8">
     <g id="line2d_15">
      <path d="M 849.056321 193.11625 
L 849.056321 35.43625 
" clip-path="url(#p8d5ddb6005)" style="fill: none; stroke-dasharray: 2.96,1.28; stroke-dashoffset: 0; stroke: #b0b0b0; stroke-opacity: 0.3; stroke-width: 0.8"/>
     </g>
     <g id="line2d_16">
      <g>
       <use xlink:href="#m360c8fdcab" x="849.056321" y="193.11625" style="stroke: #000000; stroke-width: 0.8"/>
      </g>
     </g>
     <g id="text_8">
      <!-- 1400 -->
      <g transform="translate(823.606321 215.313125) scale(0.2 -0.2)">
       <use xlink:href="#DejaVuSans-31"/>
       <use xlink:href="#DejaVuSans-34" transform="translate(63.623047 0)"/>
       <use xlink:href="#DejaVuSans-30" transform="translate(127.246094 0)"/>
       <use xlink:href="#DejaVuSans-30" transform="translate(190.869141 0)"/>
      </g>
     </g>
    </g>
    <g id="text_9">
     <!-- Time Index -->
     <g transform="translate(410.037656 240.189062) scale(0.22 -0.22)">
      <defs>
       <path id="DejaVuSans-Bold-54" d="M 31 4666 
L 4331 4666 
L 4331 3756 
L 2784 3756 
L 2784 0 
L 1581 0 
L 1581 3756 
L 31 3756 
L 31 4666 
z
" transform="scale(0.015625)"/>
       <path id="DejaVuSans-Bold-69" d="M 538 3500 
L 1656 3500 
L 1656 0 
L 538 0 
L 538 3500 
z
M 538 4863 
L 1656 4863 
L 1656 3950 
L 538 3950 
L 538 4863 
z
" transform="scale(0.015625)"/>
       <path id="DejaVuSans-Bold-6d" d="M 3781 2919 
Q 3994 3244 4286 3414 
Q 4578 3584 4928 3584 
Q 5531 3584 5847 3212 
Q 6163 2841 6163 2131 
L 6163 0 
L 5038 0 
L 5038 1825 
Q 5041 1866 5042 1909 
Q 5044 1953 5044 2034 
Q 5044 2406 4934 2573 
Q 4825 2741 4581 2741 
Q 4263 2741 4089 2478 
Q 3916 2216 3909 1719 
L 3909 0 
L 2784 0 
L 2784 1825 
Q 2784 2406 2684 2573 
Q 2584 2741 2328 2741 
Q 2006 2741 1831 2477 
Q 1656 2213 1656 1722 
L 1656 0 
L 531 0 
L 531 3500 
L 1656 3500 
L 1656 2988 
Q 1863 3284 2130 3434 
Q 2397 3584 2719 3584 
Q 3081 3584 3359 3409 
Q 3638 3234 3781 2919 
z
" transform="scale(0.015625)"/>
       <path id="DejaVuSans-Bold-65" d="M 4031 1759 
L 4031 1441 
L 1416 1441 
Q 1456 1047 1700 850 
Q 1944 653 2381 653 
Q 2734 653 3104 758 
Q 3475 863 3866 1075 
L 3866 213 
Q 3469 63 3072 -14 
Q 2675 -91 2278 -91 
Q 1328 -91 801 392 
Q 275 875 275 1747 
Q 275 2603 792 3093 
Q 1309 3584 2216 3584 
Q 3041 3584 3536 3087 
Q 4031 2591 4031 1759 
z
M 2881 2131 
Q 2881 2450 2695 2645 
Q 2509 2841 2209 2841 
Q 1884 2841 1681 2658 
Q 1478 2475 1428 2131 
L 2881 2131 
z
" transform="scale(0.015625)"/>
       <path id="DejaVuSans-Bold-20" transform="scale(0.015625)"/>
       <path id="DejaVuSans-Bold-49" d="M 588 4666 
L 1791 4666 
L 1791 0 
L 588 0 
L 588 4666 
z
" transform="scale(0.015625)"/>
       <path id="DejaVuSans-Bold-6e" d="M 4056 2131 
L 4056 0 
L 2931 0 
L 2931 347 
L 2931 1631 
Q 2931 2084 2911 2256 
Q 2891 2428 2841 2509 
Q 2775 2619 2662 2680 
Q 2550 2741 2406 2741 
Q 2056 2741 1856 2470 
Q 1656 2200 1656 1722 
L 1656 0 
L 538 0 
L 538 3500 
L 1656 3500 
L 1656 2988 
Q 1909 3294 2193 3439 
Q 2478 3584 2822 3584 
Q 3428 3584 3742 3212 
Q 4056 2841 4056 2131 
z
" transform="scale(0.015625)"/>
       <path id="DejaVuSans-Bold-64" d="M 2919 2988 
L 2919 4863 
L 4044 4863 
L 4044 0 
L 2919 0 
L 2919 506 
Q 2688 197 2409 53 
Q 2131 -91 1766 -91 
Q 1119 -91 703 423 
Q 288 938 288 1747 
Q 288 2556 703 3070 
Q 1119 3584 1766 3584 
Q 2128 3584 2408 3439 
Q 2688 3294 2919 2988 
z
M 2181 722 
Q 2541 722 2730 984 
Q 2919 1247 2919 1747 
Q 2919 2247 2730 2509 
Q 2541 2772 2181 2772 
Q 1825 2772 1636 2509 
Q 1447 2247 1447 1747 
Q 1447 1247 1636 984 
Q 1825 722 2181 722 
z
" transform="scale(0.015625)"/>
       <path id="DejaVuSans-Bold-78" d="M 1422 1791 
L 159 3500 
L 1344 3500 
L 2059 2463 
L 2784 3500 
L 3969 3500 
L 2706 1797 
L 4031 0 
L 2847 0 
L 2059 1106 
L 1281 0 
L 97 0 
L 1422 1791 
z
" transform="scale(0.015625)"/>
      </defs>
      <use xlink:href="#DejaVuSans-Bold-54"/>
      <use xlink:href="#DejaVuSans-Bold-69" transform="translate(68.212891 0)"/>
      <use xlink:href="#DejaVuSans-Bold-6d" transform="translate(102.490234 0)"/>
      <use xlink:href="#DejaVuSans-Bold-65" transform="translate(206.689453 0)"/>
      <use xlink:href="#DejaVuSans-Bold-20" transform="translate(274.511719 0)"/>
      <use xlink:href="#DejaVuSans-Bold-49" transform="translate(309.326172 0)"/>
      <use xlink:href="#DejaVuSans-Bold-6e" transform="translate(346.533203 0)"/>
      <use xlink:href="#DejaVuSans-Bold-64" transform="translate(417.724609 0)"/>
      <use xlink:href="#DejaVuSans-Bold-65" transform="translate(489.306641 0)"/>
      <use xlink:href="#DejaVuSans-Bold-78" transform="translate(557.128906 0)"/>
     </g>
    </g>
   </g>
   <g id="matplotlib.axis_2">
    <g id="ytick_1">
     <g id="line2d_17">
      <path d="M 71.298125 185.948977 
L 885.538125 185.948977 
" clip-path="url(#p8d5ddb6005)" style="fill: none; stroke-dasharray: 2.96,1.28; stroke-dashoffset: 0; stroke: #b0b0b0; stroke-opacity: 0.3; stroke-width: 0.8"/>
     </g>
     <g id="line2d_18">
      <defs>
       <path id="m0b3ca5cf59" d="M 0 0 
L -3.5 0 
" style="stroke: #000000; stroke-width: 0.8"/>
      </defs>
      <g>
       <use xlink:href="#m0b3ca5cf59" x="71.298125" y="185.948977" style="stroke: #000000; stroke-width: 0.8"/>
      </g>
     </g>
     <g id="text_10">
      <!-- 0.0 -->
      <g transform="translate(32.491875 193.547415) scale(0.2 -0.2)">
       <defs>
        <path id="DejaVuSans-2e" d="M 684 794 
L 1344 794 
L 1344 0 
L 684 0 
L 684 794 
z
" transform="scale(0.015625)"/>
       </defs>
       <use xlink:href="#DejaVuSans-30"/>
       <use xlink:href="#DejaVuSans-2e" transform="translate(63.623047 0)"/>
       <use xlink:href="#DejaVuSans-30" transform="translate(95.410156 0)"/>
      </g>
     </g>
    </g>
    <g id="ytick_2">
     <g id="line2d_19">
      <path d="M 71.298125 114.27625 
L 885.538125 114.27625 
" clip-path="url(#p8d5ddb6005)" style="fill: none; stroke-dasharray: 2.96,1.28; stroke-dashoffset: 0; stroke: #b0b0b0; stroke-opacity: 0.3; stroke-width: 0.8"/>
     </g>
     <g id="line2d_20">
      <g>
       <use xlink:href="#m0b3ca5cf59" x="71.298125" y="114.27625" style="stroke: #000000; stroke-width: 0.8"/>
      </g>
     </g>
     <g id="text_11">
      <!-- 0.5 -->
      <g transform="translate(32.491875 121.874687) scale(0.2 -0.2)">
       <defs>
        <path id="DejaVuSans-35" d="M 691 4666 
L 3169 4666 
L 3169 4134 
L 1269 4134 
L 1269 2991 
Q 1406 3038 1543 3061 
Q 1681 3084 1819 3084 
Q 2600 3084 3056 2656 
Q 3513 2228 3513 1497 
Q 3513 744 3044 326 
Q 2575 -91 1722 -91 
Q 1428 -91 1123 -41 
Q 819 9 494 109 
L 494 744 
Q 775 591 1075 516 
Q 1375 441 1709 441 
Q 2250 441 2565 725 
Q 2881 1009 2881 1497 
Q 2881 1984 2565 2268 
Q 2250 2553 1709 2553 
Q 1456 2553 1204 2497 
Q 953 2441 691 2322 
L 691 4666 
z
" transform="scale(0.015625)"/>
       </defs>
       <use xlink:href="#DejaVuSans-30"/>
       <use xlink:href="#DejaVuSans-2e" transform="translate(63.623047 0)"/>
       <use xlink:href="#DejaVuSans-35" transform="translate(95.410156 0)"/>
      </g>
     </g>
    </g>
    <g id="ytick_3">
     <g id="line2d_21">
      <path d="M 71.298125 42.603523 
L 885.538125 42.603523 
" clip-path="url(#p8d5ddb6005)" style="fill: none; stroke-dasharray: 2.96,1.28; stroke-dashoffset: 0; stroke: #b0b0b0; stroke-opacity: 0.3; stroke-width: 0.8"/>
     </g>
     <g id="line2d_22">
      <g>
       <use xlink:href="#m0b3ca5cf59" x="71.298125" y="42.603523" style="stroke: #000000; stroke-width: 0.8"/>
      </g>
     </g>
     <g id="text_12">
      <!-- 1.0 -->
      <g transform="translate(32.491875 50.20196) scale(0.2 -0.2)">
       <use xlink:href="#DejaVuSans-31"/>
       <use xlink:href="#DejaVuSans-2e" transform="translate(63.623047 0)"/>
       <use xlink:href="#DejaVuSans-30" transform="translate(95.410156 0)"/>
      </g>
     </g>
    </g>
    <g id="text_13">
     <!-- Normalized SST -->
     <g transform="translate(23.916563 200.839375) rotate(-90) scale(0.22 -0.22)">
      <defs>
       <path id="DejaVuSans-4e" d="M 628 4666 
L 1478 4666 
L 3547 763 
L 3547 4666 
L 4159 4666 
L 4159 0 
L 3309 0 
L 1241 3903 
L 1241 0 
L 628 0 
L 628 4666 
z
" transform="scale(0.015625)"/>
       <path id="DejaVuSans-6f" d="M 1959 3097 
Q 1497 3097 1228 2736 
Q 959 2375 959 1747 
Q 959 1119 1226 758 
Q 1494 397 1959 397 
Q 2419 397 2687 759 
Q 2956 1122 2956 1747 
Q 2956 2369 2687 2733 
Q 2419 3097 1959 3097 
z
M 1959 3584 
Q 2709 3584 3137 3096 
Q 3566 2609 3566 1747 
Q 3566 888 3137 398 
Q 2709 -91 1959 -91 
Q 1206 -91 779 398 
Q 353 888 353 1747 
Q 353 2609 779 3096 
Q 1206 3584 1959 3584 
z
" transform="scale(0.015625)"/>
       <path id="DejaVuSans-72" d="M 2631 2963 
Q 2534 3019 2420 3045 
Q 2306 3072 2169 3072 
Q 1681 3072 1420 2755 
Q 1159 2438 1159 1844 
L 1159 0 
L 581 0 
L 581 3500 
L 1159 3500 
L 1159 2956 
Q 1341 3275 1631 3429 
Q 1922 3584 2338 3584 
Q 2397 3584 2469 3576 
Q 2541 3569 2628 3553 
L 2631 2963 
z
" transform="scale(0.015625)"/>
       <path id="DejaVuSans-6d" d="M 3328 2828 
Q 3544 3216 3844 3400 
Q 4144 3584 4550 3584 
Q 5097 3584 5394 3201 
Q 5691 2819 5691 2113 
L 5691 0 
L 5113 0 
L 5113 2094 
Q 5113 2597 4934 2840 
Q 4756 3084 4391 3084 
Q 3944 3084 3684 2787 
Q 3425 2491 3425 1978 
L 3425 0 
L 2847 0 
L 2847 2094 
Q 2847 2600 2669 2842 
Q 2491 3084 2119 3084 
Q 1678 3084 1418 2786 
Q 1159 2488 1159 1978 
L 1159 0 
L 581 0 
L 581 3500 
L 1159 3500 
L 1159 2956 
Q 1356 3278 1631 3431 
Q 1906 3584 2284 3584 
Q 2666 3584 2933 3390 
Q 3200 3197 3328 2828 
z
" transform="scale(0.015625)"/>
       <path id="DejaVuSans-61" d="M 2194 1759 
Q 1497 1759 1228 1600 
Q 959 1441 959 1056 
Q 959 750 1161 570 
Q 1363 391 1709 391 
Q 2188 391 2477 730 
Q 2766 1069 2766 1631 
L 2766 1759 
L 2194 1759 
z
M 3341 1997 
L 3341 0 
L 2766 0 
L 2766 531 
Q 2569 213 2275 61 
Q 1981 -91 1556 -91 
Q 1019 -91 701 211 
Q 384 513 384 1019 
Q 384 1609 779 1909 
Q 1175 2209 1959 2209 
L 2766 2209 
L 2766 2266 
Q 2766 2663 2505 2880 
Q 2244 3097 1772 3097 
Q 1472 3097 1187 3025 
Q 903 2953 641 2809 
L 641 3341 
Q 956 3463 1253 3523 
Q 1550 3584 1831 3584 
Q 2591 3584 2966 3190 
Q 3341 2797 3341 1997 
z
" transform="scale(0.015625)"/>
       <path id="DejaVuSans-6c" d="M 603 4863 
L 1178 4863 
L 1178 0 
L 603 0 
L 603 4863 
z
" transform="scale(0.015625)"/>
       <path id="DejaVuSans-69" d="M 603 3500 
L 1178 3500 
L 1178 0 
L 603 0 
L 603 3500 
z
M 603 4863 
L 1178 4863 
L 1178 4134 
L 603 4134 
L 603 4863 
z
" transform="scale(0.015625)"/>
       <path id="DejaVuSans-7a" d="M 353 3500 
L 3084 3500 
L 3084 2975 
L 922 459 
L 3084 459 
L 3084 0 
L 275 0 
L 275 525 
L 2438 3041 
L 353 3041 
L 353 3500 
z
" transform="scale(0.015625)"/>
       <path id="DejaVuSans-65" d="M 3597 1894 
L 3597 1613 
L 953 1613 
Q 991 1019 1311 708 
Q 1631 397 2203 397 
Q 2534 397 2845 478 
Q 3156 559 3463 722 
L 3463 178 
Q 3153 47 2828 -22 
Q 2503 -91 2169 -91 
Q 1331 -91 842 396 
Q 353 884 353 1716 
Q 353 2575 817 3079 
Q 1281 3584 2069 3584 
Q 2775 3584 3186 3129 
Q 3597 2675 3597 1894 
z
M 3022 2063 
Q 3016 2534 2758 2815 
Q 2500 3097 2075 3097 
Q 1594 3097 1305 2825 
Q 1016 2553 972 2059 
L 3022 2063 
z
" transform="scale(0.015625)"/>
       <path id="DejaVuSans-64" d="M 2906 2969 
L 2906 4863 
L 3481 4863 
L 3481 0 
L 2906 0 
L 2906 525 
Q 2725 213 2448 61 
Q 2172 -91 1784 -91 
Q 1150 -91 751 415 
Q 353 922 353 1747 
Q 353 2572 751 3078 
Q 1150 3584 1784 3584 
Q 2172 3584 2448 3432 
Q 2725 3281 2906 2969 
z
M 947 1747 
Q 947 1113 1208 752 
Q 1469 391 1925 391 
Q 2381 391 2643 752 
Q 2906 1113 2906 1747 
Q 2906 2381 2643 2742 
Q 2381 3103 1925 3103 
Q 1469 3103 1208 2742 
Q 947 2381 947 1747 
z
" transform="scale(0.015625)"/>
       <path id="DejaVuSans-20" transform="scale(0.015625)"/>
       <path id="DejaVuSans-53" d="M 3425 4513 
L 3425 3897 
Q 3066 4069 2747 4153 
Q 2428 4238 2131 4238 
Q 1616 4238 1336 4038 
Q 1056 3838 1056 3469 
Q 1056 3159 1242 3001 
Q 1428 2844 1947 2747 
L 2328 2669 
Q 3034 2534 3370 2195 
Q 3706 1856 3706 1288 
Q 3706 609 3251 259 
Q 2797 -91 1919 -91 
Q 1588 -91 1214 -16 
Q 841 59 441 206 
L 441 856 
Q 825 641 1194 531 
Q 1563 422 1919 422 
Q 2459 422 2753 634 
Q 3047 847 3047 1241 
Q 3047 1584 2836 1778 
Q 2625 1972 2144 2069 
L 1759 2144 
Q 1053 2284 737 2584 
Q 422 2884 422 3419 
Q 422 4038 858 4394 
Q 1294 4750 2059 4750 
Q 2388 4750 2728 4690 
Q 3069 4631 3425 4513 
z
" transform="scale(0.015625)"/>
       <path id="DejaVuSans-54" d="M -19 4666 
L 3928 4666 
L 3928 4134 
L 2272 4134 
L 2272 0 
L 1638 0 
L 1638 4134 
L -19 4134 
L -19 4666 
z
" transform="scale(0.015625)"/>
      </defs>
      <use xlink:href="#DejaVuSans-4e"/>
      <use xlink:href="#DejaVuSans-6f" transform="translate(74.804688 0)"/>
      <use xlink:href="#DejaVuSans-72" transform="translate(135.986328 0)"/>
      <use xlink:href="#DejaVuSans-6d" transform="translate(175.349609 0)"/>
      <use xlink:href="#DejaVuSans-61" transform="translate(272.761719 0)"/>
      <use xlink:href="#DejaVuSans-6c" transform="translate(334.041016 0)"/>
      <use xlink:href="#DejaVuSans-69" transform="translate(361.824219 0)"/>
      <use xlink:href="#DejaVuSans-7a" transform="translate(389.607422 0)"/>
      <use xlink:href="#DejaVuSans-65" transform="translate(442.097656 0)"/>
      <use xlink:href="#DejaVuSans-64" transform="translate(503.621094 0)"/>
      <use xlink:href="#DejaVuSans-20" transform="translate(567.097656 0)"/>
      <use xlink:href="#DejaVuSans-53" transform="translate(598.884766 0)"/>
      <use xlink:href="#DejaVuSans-53" transform="translate(662.361328 0)"/>
      <use xlink:href="#DejaVuSans-54" transform="translate(725.837891 0)"/>
     </g>
    </g>
   </g>
   <g id="line2d_23">
    <path d="M 108.309034 86.306405 
L 108.838139 76.866583 
L 109.367245 80.362813 
L 109.89635 72.321483 
L 110.425455 56.238822 
L 110.95456 48.197492 
L 111.483665 58.33656 
L 112.012771 60.783922 
L 112.541876 69.524498 
L 113.070981 65.678645 
L 113.600086 75.817713 
L 114.658297 88.054521 
L 115.187402 85.257536 
L 115.716507 76.51696 
L 116.245612 84.55829 
L 116.774717 81.761305 
L 117.303823 77.216206 
L 117.832928 86.656028 
L 118.362033 92.59962 
L 118.891138 99.941705 
L 119.949349 125.813811 
L 120.478454 128.610795 
L 121.007559 121.268711 
L 121.536664 105.885297 
L 122.065769 116.373988 
L 122.594875 120.919088 
L 123.12398 128.960419 
L 124.18219 150.986671 
L 124.711295 162.174609 
L 125.769506 153.783656 
L 126.298611 154.133279 
L 126.827716 163.573101 
L 127.356821 163.922725 
L 127.885927 167.418955 
L 128.415032 169.16707 
L 128.944137 163.573101 
L 129.473242 162.873855 
L 130.002347 159.377625 
L 130.531453 159.377625 
L 131.060558 161.824986 
L 131.589663 156.231017 
L 132.118768 152.734787 
L 132.647874 150.986671 
L 133.176979 142.246095 
L 133.706084 122.31758 
L 134.235189 122.31758 
L 134.764294 121.268711 
L 135.2934 102.738689 
L 135.822505 97.14472 
L 136.35161 85.607159 
L 136.880715 89.10339 
L 137.40982 90.152259 
L 137.938926 76.866583 
L 138.468031 78.964321 
L 138.997136 73.719975 
L 139.526241 61.483168 
L 140.055346 67.776383 
L 140.584452 66.377891 
L 141.113557 84.208667 
L 141.642662 82.810175 
L 142.700872 105.885297 
L 143.229978 109.381527 
L 143.759083 78.964321 
L 144.288188 93.648489 
L 144.817293 100.640951 
L 145.346398 111.828889 
L 145.875504 113.577004 
L 146.404609 123.016826 
L 146.933714 124.065696 
L 147.462819 130.358911 
L 147.991924 133.855141 
L 148.52103 133.855141 
L 149.050135 142.945341 
L 149.57924 146.441572 
L 150.108345 161.12574 
L 150.63745 172.663301 
L 151.166556 169.866317 
L 151.695661 173.362547 
L 152.224766 182.452747 
L 152.753871 180.355008 
L 153.282977 175.110662 
L 153.812082 175.460285 
L 154.341187 180.355008 
L 154.870292 181.753501 
L 155.399397 181.753501 
L 155.928503 185.948977 
L 156.457608 185.948977 
L 156.986713 182.452747 
L 157.515818 183.851239 
L 158.044923 181.403877 
L 159.103134 173.71217 
L 159.632239 175.110662 
L 160.161344 170.915186 
L 160.690449 164.971594 
L 161.219555 150.637048 
L 162.277765 148.53931 
L 162.80687 140.847603 
L 163.335975 135.95288 
L 163.865081 120.919088 
L 164.394186 117.772481 
L 165.981501 82.110928 
L 166.510607 92.249997 
L 167.039712 89.10339 
L 168.097922 95.746228 
L 168.627027 93.998113 
L 169.156133 95.396605 
L 169.685238 97.494343 
L 170.214343 110.780019 
L 170.743448 113.227381 
L 171.272553 114.625873 
L 171.801659 110.080773 
L 172.330764 103.787558 
L 172.859869 113.926627 
L 173.388974 132.806272 
L 173.91808 141.197226 
L 174.447185 141.197226 
L 174.97629 150.637048 
L 176.0345 177.907647 
L 176.563606 177.208401 
L 177.092711 174.411416 
L 177.621816 185.948977 
L 178.150921 185.948977 
L 178.680026 185.249731 
L 179.209132 185.948977 
L 179.738237 185.948977 
L 180.267342 183.151993 
L 180.796447 181.403877 
L 181.325552 174.761039 
L 181.854658 174.761039 
L 182.383763 172.663301 
L 182.912868 168.467824 
L 183.441973 165.321217 
L 183.971078 168.118201 
L 184.500184 164.971594 
L 185.029289 166.370086 
L 185.558394 163.573101 
L 186.087499 159.377625 
L 186.616604 150.986671 
L 187.14571 150.287425 
L 187.674815 146.091948 
L 188.20392 143.99421 
L 188.733025 137.001749 
L 189.26213 140.148356 
L 189.791236 133.505518 
L 190.320341 130.358911 
L 190.849446 124.764942 
L 191.378551 113.926627 
L 192.436762 60.783922 
L 192.965867 55.539576 
L 193.494972 52.043345 
L 194.024077 56.238822 
L 194.553183 52.043345 
L 195.082288 69.524498 
L 195.611393 70.922991 
L 196.140498 59.035807 
L 196.669603 76.51696 
L 197.198709 76.51696 
L 198.786024 112.877758 
L 199.315129 107.983035 
L 199.844235 102.039443 
L 200.37334 113.577004 
L 200.902445 108.682281 
L 201.43155 109.73115 
L 201.960655 122.667203 
L 202.489761 117.422858 
L 203.018866 123.36645 
L 203.547971 134.204764 
L 204.077076 137.001749 
L 204.606181 142.595718 
L 205.135287 158.328756 
L 205.664392 160.776117 
L 206.193497 166.020463 
L 206.722602 167.069332 
L 207.251707 171.614432 
L 207.780813 178.25727 
L 208.839023 181.054254 
L 209.368128 177.558024 
L 209.897233 176.159532 
L 210.426339 177.208401 
L 210.955444 179.655762 
L 211.484549 178.606893 
L 212.013654 178.956516 
L 212.542759 174.761039 
L 213.071865 178.956516 
L 213.60097 178.606893 
L 214.130075 170.565563 
L 214.65918 168.118201 
L 216.775601 123.016826 
L 217.304706 118.82135 
L 218.362917 105.535674 
L 218.892022 87.355274 
L 219.421127 75.817713 
L 219.950232 72.321483 
L 220.479338 67.776383 
L 221.008443 52.742591 
L 221.537548 42.603523 
L 222.595758 50.29523 
L 223.124864 67.776383 
L 224.183074 84.208667 
L 224.712179 95.396605 
L 225.241284 87.355274 
L 225.77039 91.550751 
L 226.299495 92.59962 
L 226.8286 99.592081 
L 227.357705 98.193589 
L 227.88681 99.592081 
L 228.415916 117.073234 
L 228.945021 121.268711 
L 229.474126 112.877758 
L 230.003231 127.911549 
L 230.532336 129.310042 
L 231.061442 150.287425 
L 231.590547 159.028002 
L 232.119652 145.742325 
L 232.648757 152.385164 
L 233.177862 155.531771 
L 233.706968 167.418955 
L 234.236073 165.321217 
L 234.765178 178.25727 
L 235.294283 175.809909 
L 235.823388 178.25727 
L 236.352494 181.403877 
L 236.881599 183.851239 
L 237.410704 180.355008 
L 237.939809 174.411416 
L 238.468915 174.061793 
L 239.527125 161.824986 
L 240.05623 162.174609 
L 240.585335 162.873855 
L 241.114441 163.223478 
L 241.643546 166.020463 
L 242.172651 159.028002 
L 242.701756 154.832525 
L 243.230861 146.791195 
L 243.759967 145.392702 
L 244.289072 141.197226 
L 245.347282 127.561926 
L 246.405493 111.129642 
L 247.463703 102.039443 
L 247.992808 101.340197 
L 248.521913 97.843966 
L 249.051019 95.396605 
L 249.580124 99.242458 
L 250.109229 96.795097 
L 250.638334 95.046982 
L 251.167439 94.347736 
L 252.22565 98.543212 
L 252.754755 103.787558 
L 253.28386 110.780019 
L 253.812965 104.836427 
L 254.342071 106.584543 
L 254.871176 121.967957 
L 255.400281 125.114565 
L 255.929386 120.919088 
L 256.458491 126.163434 
L 256.987597 121.967957 
L 257.516702 137.001749 
L 258.045807 132.107026 
L 258.574912 125.114565 
L 259.104018 134.554387 
L 259.633123 131.757403 
L 260.162228 142.246095 
L 260.691333 135.253634 
L 261.220438 138.400241 
L 262.278649 157.979132 
L 262.807754 154.482902 
L 263.336859 169.16707 
L 263.865964 163.922725 
L 264.39507 172.313678 
L 264.924175 176.858778 
L 265.45328 184.200862 
L 265.982385 183.851239 
L 266.51149 182.452747 
L 267.040596 177.558024 
L 267.569701 175.809909 
L 268.098806 176.509155 
L 268.627911 172.663301 
L 269.686122 157.979132 
L 270.215227 152.385164 
L 270.744332 149.588179 
L 271.273437 148.189687 
L 271.802542 141.546849 
L 272.331648 139.798733 
L 272.860753 134.904011 
L 273.918963 113.577004 
L 274.448068 110.080773 
L 274.977174 98.543212 
L 275.506279 95.746228 
L 276.035384 99.941705 
L 276.564489 85.956782 
L 277.093594 75.118467 
L 277.6227 106.584543 
L 278.151805 87.005651 
L 278.68091 89.10339 
L 279.210015 72.321483 
L 279.739121 64.979399 
L 280.268226 70.922991 
L 280.797331 83.859044 
L 281.326436 83.859044 
L 281.855541 80.362813 
L 282.384647 98.193589 
L 282.913752 101.68982 
L 283.971962 129.310042 
L 284.501067 135.95288 
L 285.030173 127.561926 
L 285.559278 125.114565 
L 286.088383 131.058157 
L 286.617488 141.896472 
L 287.146593 133.505518 
L 287.675699 142.945341 
L 289.263014 162.524232 
L 289.792119 157.279886 
L 290.321225 172.663301 
L 290.85033 174.761039 
L 291.379435 169.866317 
L 291.90854 170.565563 
L 292.966751 176.858778 
L 293.495856 177.558024 
L 294.024961 175.809909 
L 294.554066 170.915186 
L 295.083171 176.159532 
L 295.612277 173.71217 
L 296.141382 170.21594 
L 296.670487 169.16707 
L 297.199592 175.460285 
L 297.728697 161.475363 
L 298.257803 154.832525 
L 298.786908 142.246095 
L 299.316013 133.155895 
L 299.845118 128.960419 
L 300.374224 129.659665 
L 301.432434 112.178512 
L 301.961539 101.340197 
L 302.490644 73.020729 
L 303.01975 70.223744 
L 303.548855 68.126006 
L 304.07796 59.38543 
L 304.607065 56.938068 
L 305.665276 58.33656 
L 306.194381 62.88166 
L 306.723486 76.866583 
L 307.252591 79.663567 
L 307.781696 78.964321 
L 308.310802 73.020729 
L 308.839907 83.509421 
L 309.369012 90.501882 
L 309.898117 91.550751 
L 310.956328 104.486804 
L 311.485433 98.543212 
L 312.014538 106.934166 
L 312.543643 112.877758 
L 313.072748 121.618334 
L 313.601854 126.163434 
L 314.130959 132.806272 
L 314.660064 134.554387 
L 315.189169 123.016826 
L 315.718274 141.546849 
L 316.24738 143.294964 
L 316.776485 144.343833 
L 317.30559 150.637048 
L 317.834695 166.020463 
L 318.3638 173.71217 
L 318.892906 169.16707 
L 319.422011 165.67084 
L 319.951116 168.817447 
L 320.480221 169.516693 
L 321.009327 169.16707 
L 321.538432 177.208401 
L 322.067537 179.306139 
L 322.596642 176.509155 
L 323.125747 176.858778 
L 323.654853 170.21594 
L 324.183958 174.061793 
L 324.713063 170.21594 
L 325.242168 163.922725 
L 325.771273 161.475363 
L 326.300379 160.076871 
L 327.358589 156.930263 
L 327.887694 150.287425 
L 328.416799 137.001749 
L 328.945905 132.456649 
L 329.47501 126.163434 
L 330.004115 114.975496 
L 330.53322 111.828889 
L 331.062325 105.885297 
L 331.591431 95.396605 
L 332.120536 104.486804 
L 332.649641 102.738689 
L 333.178746 103.787558 
L 333.707851 122.667203 
L 334.236957 110.780019 
L 334.766062 104.836427 
L 335.295167 113.926627 
L 335.824272 89.10339 
L 336.353377 106.934166 
L 336.882483 109.73115 
L 337.411588 123.016826 
L 337.940693 118.82135 
L 338.469798 119.520596 
L 339.528009 129.310042 
L 340.057114 131.40778 
L 340.586219 131.757403 
L 341.115324 137.001749 
L 341.64443 150.637048 
L 342.173535 151.685917 
L 342.70264 154.133279 
L 343.231745 148.888933 
L 343.76085 150.637048 
L 344.289956 150.986671 
L 344.819061 163.573101 
L 345.348166 169.16707 
L 345.877271 169.516693 
L 346.406376 159.028002 
L 346.935482 164.971594 
L 347.464587 163.922725 
L 347.993692 166.370086 
L 348.522797 166.020463 
L 349.051902 167.768578 
L 349.581008 164.272348 
L 350.110113 158.328756 
L 350.639218 162.873855 
L 351.168323 159.377625 
L 351.697428 159.727248 
L 352.226534 165.321217 
L 352.755639 163.922725 
L 353.284744 167.418955 
L 353.813849 160.076871 
L 354.342954 148.189687 
L 354.87206 145.392702 
L 355.401165 139.798733 
L 355.93027 132.806272 
L 356.459375 123.016826 
L 356.98848 116.024365 
L 357.517586 119.870219 
L 358.046691 87.355274 
L 359.104901 51.344099 
L 359.634006 46.099753 
L 360.163112 51.344099 
L 360.692217 58.33656 
L 361.221322 50.29523 
L 361.750427 57.637314 
L 362.808638 88.054521 
L 363.866848 64.280152 
L 364.395953 82.810175 
L 364.925059 84.55829 
L 365.454164 85.257536 
L 365.983269 96.095851 
L 366.512374 98.193589 
L 367.041479 83.159798 
L 368.628795 111.479266 
L 369.1579 115.325119 
L 369.687005 121.618334 
L 370.216111 126.163434 
L 370.745216 128.261172 
L 371.274321 129.659665 
L 371.803426 137.700995 
L 372.332531 133.155895 
L 372.861637 129.659665 
L 373.390742 137.001749 
L 373.919847 146.791195 
L 374.448952 151.685917 
L 374.978057 163.573101 
L 376.036268 170.565563 
L 377.094478 158.678379 
L 377.623583 163.223478 
L 378.152689 162.873855 
L 378.681794 152.03554 
L 379.210899 154.832525 
L 379.740004 154.482902 
L 380.269109 156.58064 
L 381.32732 148.189687 
L 382.38553 136.652126 
L 382.914635 135.95288 
L 383.443741 138.050618 
L 383.972846 137.351372 
L 384.501951 112.877758 
L 385.560162 92.949243 
L 386.089267 78.964321 
L 386.618372 82.810175 
L 387.147477 67.077137 
L 387.676582 90.501882 
L 388.205688 93.298866 
L 388.734793 88.753767 
L 389.263898 95.396605 
L 389.793003 87.704897 
L 390.322108 96.095851 
L 390.851214 102.039443 
L 391.380319 109.381527 
L 391.909424 94.347736 
L 392.438529 96.445474 
L 392.967634 103.437935 
L 393.49674 106.584543 
L 394.025845 102.039443 
L 394.55495 113.227381 
L 395.084055 112.528135 
L 395.61316 126.163434 
L 396.142266 106.584543 
L 396.671371 113.577004 
L 397.729581 131.757403 
L 398.258686 131.058157 
L 398.787792 147.490441 
L 399.316897 147.140818 
L 399.846002 149.588179 
L 400.375107 145.043079 
L 400.904212 153.08441 
L 401.433318 155.182148 
L 401.962423 160.076871 
L 402.491528 168.817447 
L 403.020633 172.313678 
L 403.549738 166.370086 
L 404.078844 165.321217 
L 404.607949 169.866317 
L 405.137054 171.614432 
L 405.666159 170.21594 
L 406.195265 165.321217 
L 406.72437 164.971594 
L 407.253475 165.321217 
L 407.78258 167.418955 
L 408.311685 162.174609 
L 408.840791 161.12574 
L 410.428106 135.253634 
L 410.957211 129.310042 
L 411.486317 127.212303 
L 412.015422 101.68982 
L 412.544527 89.10339 
L 413.073632 73.719975 
L 413.602737 81.062059 
L 414.131843 67.077137 
L 414.660948 63.580906 
L 415.190053 67.077137 
L 415.719158 60.783922 
L 416.248263 71.622237 
L 416.777369 91.550751 
L 417.306474 94.347736 
L 417.835579 93.998113 
L 418.364684 92.249997 
L 419.422895 106.23492 
L 419.952 111.479266 
L 420.481105 114.975496 
L 421.01021 110.430396 
L 421.539315 115.325119 
L 422.068421 126.163434 
L 422.597526 129.310042 
L 423.126631 121.967957 
L 423.655736 124.764942 
L 424.184841 140.847603 
L 425.243052 154.832525 
L 425.772157 154.133279 
L 426.301262 159.028002 
L 427.359473 171.964055 
L 427.888578 171.264809 
L 428.417683 167.768578 
L 428.946788 166.370086 
L 429.475894 162.873855 
L 430.004999 163.223478 
L 430.534104 166.020463 
L 431.063209 163.223478 
L 431.592314 167.418955 
L 432.12142 165.67084 
L 432.650525 162.524232 
L 433.17963 161.824986 
L 433.708735 162.174609 
L 434.23784 166.719709 
L 434.766946 161.12574 
L 435.296051 152.385164 
L 435.825156 146.791195 
L 436.354261 138.749864 
L 436.883366 133.505518 
L 437.412472 121.967957 
L 437.941577 120.219842 
L 438.470682 117.772481 
L 438.999787 112.877758 
L 439.528892 101.68982 
L 440.057998 70.922991 
L 440.587103 80.362813 
L 441.116208 81.062059 
L 441.645313 79.663567 
L 442.174418 67.077137 
L 442.703524 65.678645 
L 443.232629 75.118467 
L 443.761734 55.539576 
L 444.290839 68.126006 
L 444.819944 68.825252 
L 445.34905 59.735053 
L 445.878155 55.539576 
L 446.40726 70.223744 
L 446.936365 81.062059 
L 447.465471 81.062059 
L 447.994576 85.257536 
L 448.523681 81.761305 
L 449.052786 86.656028 
L 449.581891 98.892835 
L 450.110997 115.674742 
L 450.640102 120.219842 
L 451.169207 125.813811 
L 451.698312 125.464188 
L 452.227417 133.505518 
L 452.756523 132.107026 
L 453.285628 131.757403 
L 453.814733 136.652126 
L 454.343838 138.400241 
L 454.872943 141.546849 
L 455.931154 163.573101 
L 456.460259 156.930263 
L 456.989364 156.231017 
L 457.518469 163.573101 
L 458.047575 163.573101 
L 459.105785 169.516693 
L 459.63489 165.67084 
L 460.163995 166.370086 
L 460.693101 165.67084 
L 461.222206 169.16707 
L 461.751311 165.67084 
L 462.280416 155.531771 
L 462.809521 148.888933 
L 463.338627 149.238556 
L 464.396837 141.896472 
L 464.925942 141.546849 
L 465.455047 138.749864 
L 465.984153 145.043079 
L 466.513258 142.945341 
L 467.042363 139.099487 
L 467.571468 125.464188 
L 468.100574 99.242458 
L 468.629679 86.656028 
L 469.158784 82.110928 
L 469.687889 69.524498 
L 470.216994 72.321483 
L 470.7461 69.524498 
L 471.275205 70.922991 
L 471.80431 70.922991 
L 472.333415 74.419221 
L 472.86252 75.817713 
L 473.920731 100.640951 
L 474.449836 107.633412 
L 474.978941 129.310042 
L 475.508046 125.813811 
L 476.037152 128.261172 
L 476.566257 129.659665 
L 477.095362 130.708534 
L 477.624467 140.497979 
L 478.153572 146.441572 
L 478.682678 139.099487 
L 479.740888 162.873855 
L 480.269993 169.516693 
L 481.328204 156.930263 
L 481.857309 163.922725 
L 482.386414 164.272348 
L 482.915519 163.573101 
L 483.444624 165.67084 
L 483.97373 159.028002 
L 484.502835 157.629509 
L 485.03194 158.328756 
L 485.561045 159.727248 
L 486.09015 159.727248 
L 486.619256 160.076871 
L 487.148361 159.727248 
L 487.677466 153.783656 
L 488.206571 152.385164 
L 488.735676 155.531771 
L 489.264782 154.482902 
L 489.793887 154.832525 
L 490.322992 149.937802 
L 490.852097 143.644587 
L 491.910308 140.847603 
L 492.439413 138.050618 
L 492.968518 133.505518 
L 493.497623 125.464188 
L 494.026729 124.764942 
L 494.555834 127.561926 
L 495.084939 123.016826 
L 495.614044 122.667203 
L 496.143149 124.065696 
L 496.672255 120.919088 
L 497.730465 103.437935 
L 498.25957 104.137181 
L 498.788675 99.941705 
L 499.317781 109.381527 
L 499.846886 108.332658 
L 500.375991 113.926627 
L 500.905096 129.310042 
L 501.434201 118.471727 
L 501.963307 102.039443 
L 502.492412 93.298866 
L 503.021517 103.437935 
L 503.550622 116.024365 
L 504.079727 119.170973 
L 504.608833 124.065696 
L 505.137938 133.855141 
L 505.667043 133.855141 
L 506.196148 133.505518 
L 506.725253 133.855141 
L 507.254359 137.001749 
L 507.783464 146.091948 
L 508.312569 149.937802 
L 508.841674 158.678379 
L 509.370779 157.629509 
L 509.899885 159.377625 
L 510.42899 160.076871 
L 510.958095 167.069332 
L 511.4872 172.313678 
L 512.016306 172.663301 
L 512.545411 176.858778 
L 513.074516 174.061793 
L 513.603621 167.768578 
L 514.661832 158.678379 
L 515.190937 160.076871 
L 515.720042 162.174609 
L 516.249147 164.971594 
L 517.307358 161.12574 
L 517.836463 153.08441 
L 518.365568 154.832525 
L 518.894673 159.028002 
L 519.423778 156.58064 
L 519.952884 143.99421 
L 520.481989 138.050618 
L 521.011094 137.001749 
L 522.069304 119.170973 
L 523.127515 113.926627 
L 523.65662 106.584543 
L 524.185725 102.738689 
L 524.71483 93.998113 
L 525.243936 91.550751 
L 526.302146 100.640951 
L 526.831251 98.543212 
L 527.360356 98.892835 
L 527.889462 96.095851 
L 528.418567 84.208667 
L 528.947672 84.55829 
L 529.476777 75.817713 
L 530.005882 81.062059 
L 530.534988 89.802636 
L 531.064093 103.088312 
L 532.122303 110.780019 
L 532.651409 125.114565 
L 533.180514 118.82135 
L 533.709619 121.967957 
L 534.238724 125.813811 
L 534.767829 132.107026 
L 535.296935 140.148356 
L 536.355145 148.888933 
L 536.88425 155.531771 
L 537.413355 158.328756 
L 537.942461 159.028002 
L 538.471566 164.272348 
L 539.000671 170.915186 
L 539.529776 167.069332 
L 540.058881 170.565563 
L 540.587987 180.005385 
L 541.117092 176.858778 
L 541.646197 175.809909 
L 542.175302 175.110662 
L 542.704407 174.761039 
L 543.233513 163.573101 
L 543.762618 164.971594 
L 544.291723 168.467824 
L 544.820828 174.761039 
L 545.349933 176.509155 
L 545.879039 173.362547 
L 546.937249 159.727248 
L 547.466354 155.531771 
L 547.995459 149.937802 
L 548.524565 141.896472 
L 549.05367 138.400241 
L 549.582775 132.456649 
L 550.11188 134.904011 
L 550.640985 117.073234 
L 551.170091 107.283789 
L 551.699196 110.430396 
L 552.228301 96.795097 
L 552.757406 93.998113 
L 553.286512 87.355274 
L 553.815617 89.802636 
L 554.344722 88.753767 
L 554.873827 88.404144 
L 555.402932 87.355274 
L 555.932038 83.159798 
L 556.461143 84.55829 
L 556.990248 88.404144 
L 557.519353 106.23492 
L 558.048458 101.68982 
L 558.577564 106.23492 
L 559.106669 90.851505 
L 560.164879 104.486804 
L 560.693984 100.640951 
L 561.22309 108.682281 
L 561.752195 110.430396 
L 562.2813 114.27625 
L 562.810405 132.107026 
L 563.33951 130.708534 
L 563.868616 133.155895 
L 564.397721 134.904011 
L 564.926826 145.742325 
L 565.455931 146.091948 
L 565.985036 156.930263 
L 566.514142 164.971594 
L 567.572352 176.509155 
L 568.101457 177.558024 
L 568.630562 181.403877 
L 569.159668 174.411416 
L 569.688773 176.858778 
L 570.217878 183.151993 
L 570.746983 175.460285 
L 572.334299 181.753501 
L 572.863404 175.110662 
L 573.392509 172.313678 
L 573.921615 168.467824 
L 574.45072 163.573101 
L 574.979825 160.776117 
L 576.038035 139.099487 
L 577.096246 129.659665 
L 579.212667 97.14472 
L 579.741772 95.046982 
L 580.270877 97.843966 
L 580.799982 91.900374 
L 581.329087 88.054521 
L 581.858193 77.216206 
L 582.387298 92.249997 
L 582.916403 102.389066 
L 583.445508 102.039443 
L 583.974613 103.437935 
L 584.503719 102.039443 
L 585.032824 105.18605 
L 585.561929 113.926627 
L 586.091034 110.780019 
L 586.620139 109.381527 
L 587.149245 111.479266 
L 587.67835 117.073234 
L 588.207455 116.024365 
L 588.73656 129.310042 
L 589.265665 127.561926 
L 590.323876 140.497979 
L 590.852981 133.855141 
L 591.382086 145.742325 
L 591.911191 145.392702 
L 592.440297 152.03554 
L 593.498507 161.12574 
L 594.027612 164.272348 
L 594.556718 165.321217 
L 595.085823 177.208401 
L 595.614928 175.460285 
L 596.144033 177.558024 
L 596.673138 181.403877 
L 597.202244 179.655762 
L 598.260454 173.012924 
L 598.789559 173.012924 
L 599.318664 177.208401 
L 599.84777 171.964055 
L 600.376875 162.524232 
L 600.90598 157.979132 
L 601.435085 157.279886 
L 601.96419 150.986671 
L 602.493296 155.182148 
L 603.022401 153.08441 
L 603.551506 145.043079 
L 604.080611 134.554387 
L 604.609716 128.960419 
L 605.667927 106.23492 
L 606.197032 111.828889 
L 606.726137 90.851505 
L 607.784348 80.362813 
L 608.313453 85.257536 
L 608.842558 88.404144 
L 609.371663 86.656028 
L 609.900768 81.761305 
L 610.429874 92.949243 
L 610.958979 93.298866 
L 611.488084 98.543212 
L 612.017189 106.584543 
L 612.546294 102.738689 
L 613.0754 110.430396 
L 613.604505 112.178512 
L 614.13361 116.723611 
L 615.19182 107.983035 
L 615.720926 117.073234 
L 616.250031 132.456649 
L 616.779136 134.204764 
L 617.308241 141.546849 
L 617.837347 141.896472 
L 618.366452 148.888933 
L 618.895557 149.238556 
L 619.424662 148.53931 
L 619.953767 161.475363 
L 621.011978 175.460285 
L 621.541083 181.753501 
L 622.070188 178.956516 
L 622.599293 172.663301 
L 623.128399 174.761039 
L 623.657504 181.403877 
L 624.186609 180.355008 
L 624.715714 175.809909 
L 625.244819 180.355008 
L 625.773925 177.907647 
L 626.30303 176.858778 
L 626.832135 176.858778 
L 627.36124 177.907647 
L 627.890345 175.809909 
L 629.477661 157.979132 
L 630.006766 159.377625 
L 630.535871 157.979132 
L 631.064977 145.392702 
L 631.594082 138.050618 
L 632.123187 137.700995 
L 632.652292 113.926627 
L 633.181397 105.18605 
L 633.710503 98.543212 
L 634.239608 89.10339 
L 634.768713 93.298866 
L 635.297818 105.535674 
L 635.826923 88.054521 
L 636.356029 88.054521 
L 637.414239 108.332658 
L 637.943344 113.577004 
L 638.47245 93.998113 
L 639.001555 98.892835 
L 639.53066 91.550751 
L 640.059765 75.817713 
L 641.117976 96.095851 
L 641.647081 95.396605 
L 642.176186 87.704897 
L 642.705291 99.242458 
L 643.234396 116.723611 
L 643.763502 123.716073 
L 644.292607 118.82135 
L 644.821712 123.36645 
L 645.350817 123.016826 
L 645.879922 127.212303 
L 646.409028 135.253634 
L 647.467238 140.847603 
L 647.996343 146.441572 
L 648.525448 146.441572 
L 650.112764 159.377625 
L 650.641869 166.719709 
L 651.170974 164.971594 
L 652.229185 171.964055 
L 652.75829 171.614432 
L 653.287395 177.907647 
L 653.8165 175.809909 
L 654.345606 175.460285 
L 654.874711 168.467824 
L 655.403816 156.930263 
L 655.932921 150.986671 
L 656.462026 141.896472 
L 657.520237 127.212303 
L 658.049342 116.373988 
L 658.578447 119.170973 
L 659.636658 105.535674 
L 660.165763 94.697359 
L 661.223973 97.494343 
L 661.753079 73.020729 
L 662.282184 70.922991 
L 662.811289 76.866583 
L 663.340394 61.483168 
L 663.869499 60.783922 
L 664.398605 64.979399 
L 664.92771 66.377891 
L 665.456815 68.475629 
L 665.98592 66.377891 
L 666.515025 71.622237 
L 667.044131 75.118467 
L 667.573236 82.810175 
L 668.102341 92.249997 
L 668.631446 90.152259 
L 669.160551 109.381527 
L 669.689657 113.926627 
L 670.218762 108.682281 
L 670.747867 123.016826 
L 671.276972 123.36645 
L 671.806077 131.058157 
L 672.335183 133.505518 
L 672.864288 134.904011 
L 673.393393 133.155895 
L 673.922498 132.806272 
L 674.451603 140.148356 
L 674.980709 141.197226 
L 675.509814 146.091948 
L 677.626235 178.25727 
L 678.15534 182.103124 
L 678.684445 182.452747 
L 679.742656 184.550485 
L 680.271761 180.005385 
L 680.800866 180.355008 
L 681.329971 177.208401 
L 681.859076 172.663301 
L 682.388182 170.21594 
L 682.917287 172.313678 
L 683.446392 173.362547 
L 683.975497 174.061793 
L 684.504602 166.719709 
L 685.562813 144.343833 
L 686.621023 134.204764 
L 687.150128 123.016826 
L 687.679234 114.975496 
L 688.208339 102.389066 
L 688.737444 98.892835 
L 689.266549 81.411682 
L 689.795654 73.719975 
L 690.32476 50.29523 
L 690.853865 62.182414 
L 691.38297 60.084676 
L 691.912075 72.321483 
L 692.44118 70.223744 
L 692.970286 66.377891 
L 693.499391 78.265075 
L 694.028496 81.062059 
L 694.557601 73.020729 
L 695.086706 70.922991 
L 695.615812 66.377891 
L 696.144917 75.817713 
L 696.674022 88.404144 
L 697.203127 90.851505 
L 697.732232 98.543212 
L 698.261338 93.998113 
L 698.790443 108.682281 
L 699.319548 118.82135 
L 699.848653 107.983035 
L 700.377759 123.016826 
L 700.906864 125.813811 
L 701.435969 126.163434 
L 701.965074 124.065696 
L 702.494179 132.107026 
L 703.023285 129.310042 
L 703.55239 134.204764 
L 704.081495 143.294964 
L 704.6106 156.58064 
L 705.139705 157.979132 
L 705.668811 163.223478 
L 706.197916 174.761039 
L 706.727021 175.460285 
L 707.256126 177.558024 
L 707.785231 176.858778 
L 708.314337 172.313678 
L 708.843442 172.313678 
L 709.372547 177.558024 
L 709.901652 175.809909 
L 710.430757 177.907647 
L 710.959863 179.306139 
L 711.488968 176.159532 
L 712.018073 172.313678 
L 712.547178 166.020463 
L 713.076283 155.531771 
L 713.605389 150.287425 
L 714.134494 147.490441 
L 714.663599 142.945341 
L 715.192704 137.001749 
L 715.721809 132.806272 
L 716.250915 121.967957 
L 716.78002 117.422858 
L 717.309125 114.625873 
L 718.896441 91.900374 
L 719.425546 98.543212 
L 719.954651 102.389066 
L 720.483756 115.325119 
L 721.012862 99.592081 
L 721.541967 92.949243 
L 722.071072 106.584543 
L 722.600177 107.983035 
L 723.658388 127.212303 
L 724.187493 107.283789 
L 724.716598 104.486804 
L 725.245703 106.584543 
L 725.774808 117.073234 
L 726.303914 121.618334 
L 726.833019 125.114565 
L 727.362124 131.757403 
L 727.891229 131.058157 
L 728.94944 138.749864 
L 729.478545 145.392702 
L 730.00765 146.441572 
L 730.536755 147.840064 
L 731.06586 150.637048 
L 731.594966 154.832525 
L 732.653176 168.467824 
L 733.182281 172.663301 
L 733.711386 172.663301 
L 734.240492 177.208401 
L 734.769597 180.704631 
L 735.298702 182.103124 
L 735.827807 181.054254 
L 736.356912 172.663301 
L 736.886018 173.012924 
L 737.415123 176.509155 
L 737.944228 173.362547 
L 738.473333 168.118201 
L 739.002438 158.328756 
L 739.531544 155.182148 
L 740.060649 148.53931 
L 740.589754 146.441572 
L 741.647964 134.904011 
L 742.17707 135.95288 
L 742.706175 127.561926 
L 743.23528 129.659665 
L 744.293491 105.535674 
L 745.351701 64.979399 
L 745.880806 68.475629 
L 746.939017 70.573368 
L 747.468122 67.776383 
L 748.526332 81.062059 
L 749.584543 102.738689 
L 750.113648 97.494343 
L 750.642753 85.956782 
L 751.171858 86.306405 
L 751.700963 98.892835 
L 752.230069 86.656028 
L 752.759174 77.216206 
L 753.288279 96.795097 
L 753.817384 104.137181 
L 754.875595 113.926627 
L 755.4047 114.27625 
L 755.933805 119.520596 
L 756.46291 126.513057 
L 756.992015 141.197226 
L 757.521121 146.091948 
L 758.050226 142.246095 
L 758.579331 146.791195 
L 759.108436 148.189687 
L 759.637541 157.279886 
L 760.166647 147.140818 
L 760.695752 149.588179 
L 761.224857 160.776117 
L 761.753962 166.370086 
L 762.283067 168.467824 
L 762.812173 176.509155 
L 763.341278 170.565563 
L 763.870383 175.110662 
L 764.399488 177.907647 
L 764.928594 171.614432 
L 765.457699 170.915186 
L 765.986804 168.118201 
L 766.515909 162.524232 
L 767.045014 161.475363 
L 767.57412 159.028002 
L 768.103225 154.482902 
L 768.63233 154.133279 
L 769.161435 152.03554 
L 769.69054 150.637048 
L 770.748751 138.749864 
L 771.277856 137.700995 
L 771.806961 135.95288 
L 772.336066 126.513057 
L 772.865172 114.27625 
L 773.394277 94.697359 
L 774.452487 77.216206 
L 774.981592 78.964321 
L 775.510698 81.761305 
L 776.039803 88.054521 
L 776.568908 85.607159 
L 777.098013 95.396605 
L 777.627118 111.479266 
L 778.156224 115.325119 
L 779.214434 101.340197 
L 779.743539 113.577004 
L 780.272644 114.27625 
L 780.80175 124.065696 
L 781.85996 146.791195 
L 782.389065 148.53931 
L 782.91817 155.182148 
L 783.447276 156.58064 
L 783.976381 154.832525 
L 785.034591 167.768578 
L 785.563697 171.264809 
L 786.092802 175.809909 
L 786.621907 176.858778 
L 787.151012 181.403877 
L 787.680117 181.753501 
L 788.209223 179.306139 
L 788.738328 182.452747 
L 789.267433 182.452747 
L 789.796538 181.403877 
L 790.325643 178.25727 
L 790.854749 171.614432 
L 791.383854 177.558024 
L 791.912959 179.655762 
L 792.442064 174.411416 
L 792.971169 173.012924 
L 793.500275 170.21594 
L 794.02938 171.264809 
L 794.558485 167.418955 
L 795.616695 158.328756 
L 796.145801 153.783656 
L 796.674906 148.189687 
L 797.733116 140.148356 
L 798.262221 133.505518 
L 798.791327 132.456649 
L 799.320432 130.358911 
L 799.849537 132.456649 
L 800.907747 112.178512 
L 801.436853 97.494343 
L 801.965958 99.592081 
L 802.495063 95.396605 
L 803.024168 104.836427 
L 803.553273 112.178512 
L 804.082379 102.039443 
L 804.611484 104.137181 
L 805.140589 69.524498 
L 805.669694 88.404144 
L 806.1988 95.746228 
L 806.727905 117.772481 
L 807.25701 107.983035 
L 807.786115 112.178512 
L 808.31522 123.016826 
L 808.844326 123.016826 
L 809.373431 133.155895 
L 809.902536 135.95288 
L 810.431641 132.806272 
L 810.960746 135.253634 
L 812.018957 142.945341 
L 812.548062 150.287425 
L 813.077167 153.783656 
L 813.606272 153.783656 
L 814.135378 167.768578 
L 814.664483 171.964055 
L 815.193588 168.817447 
L 815.722693 164.971594 
L 816.251798 178.956516 
L 816.780904 179.655762 
L 817.310009 175.460285 
L 817.839114 172.663301 
L 818.368219 174.411416 
L 818.897324 174.761039 
L 819.42643 171.964055 
L 819.955535 173.71217 
L 820.48464 170.21594 
L 821.013745 173.012924 
L 821.54285 163.922725 
L 822.071956 166.719709 
L 822.601061 166.719709 
L 823.130166 172.313678 
L 823.659271 163.573101 
L 824.188376 163.573101 
L 824.717482 152.734787 
L 825.246587 147.140818 
L 825.775692 143.99421 
L 826.304797 139.798733 
L 826.833903 133.855141 
L 828.421218 101.340197 
L 828.950323 91.900374 
L 829.479429 92.59962 
L 830.008534 94.697359 
L 830.537639 86.656028 
L 831.066744 88.054521 
L 831.595849 102.738689 
L 832.124955 96.795097 
L 832.65406 88.054521 
L 833.183165 96.445474 
L 833.71227 95.746228 
L 834.770481 110.780019 
L 835.299586 114.975496 
L 835.828691 117.422858 
L 836.886901 138.050618 
L 837.416007 145.392702 
L 837.945112 150.637048 
L 839.532427 173.012924 
L 840.061533 174.411416 
L 840.590638 182.452747 
L 841.119743 184.900108 
L 841.648848 181.054254 
L 842.177953 185.948977 
L 842.707059 184.900108 
L 843.236164 179.306139 
L 843.765269 181.403877 
L 844.294374 184.550485 
L 844.823479 183.851239 
L 845.352585 176.159532 
L 845.88169 177.907647 
L 846.410795 173.012924 
L 846.9399 166.370086 
L 847.469005 163.573101 
L 847.998111 159.377625 
L 848.527216 156.231017 
L 848.527216 156.231017 
" clip-path="url(#p8d5ddb6005)" style="fill: none; stroke: #7f7f7f; stroke-opacity: 0.9; stroke-width: 1.8; stroke-linecap: square"/>
   </g>
   <g id="patch_3">
    <path d="M 71.298125 193.11625 
L 71.298125 35.43625 
" style="fill: none; stroke: #000000; stroke-width: 0.8; stroke-linejoin: miter; stroke-linecap: square"/>
   </g>
   <g id="patch_4">
    <path d="M 885.538125 193.11625 
L 885.538125 35.43625 
" style="fill: none; stroke: #000000; stroke-width: 0.8; stroke-linejoin: miter; stroke-linecap: square"/>
   </g>
   <g id="patch_5">
    <path d="M 71.298125 193.11625 
L 885.538125 193.11625 
" style="fill: none; stroke: #000000; stroke-width: 0.8; stroke-linejoin: miter; stroke-linecap: square"/>
   </g>
   <g id="patch_6">
    <path d="M 71.298125 35.43625 
L 885.538125 35.43625 
" style="fill: none; stroke: #000000; stroke-width: 0.8; stroke-linejoin: miter; stroke-linecap: square"/>
   </g>
   <g id="text_14">
    <!-- Sensor Location 39863 -->
    <g transform="translate(340.725625 25.43625) scale(0.24 -0.24)">
     <defs>
      <path id="DejaVuSans-6e" d="M 3513 2113 
L 3513 0 
L 2938 0 
L 2938 2094 
Q 2938 2591 2744 2837 
Q 2550 3084 2163 3084 
Q 1697 3084 1428 2787 
Q 1159 2491 1159 1978 
L 1159 0 
L 581 0 
L 581 3500 
L 1159 3500 
L 1159 2956 
Q 1366 3272 1645 3428 
Q 1925 3584 2291 3584 
Q 2894 3584 3203 3211 
Q 3513 2838 3513 2113 
z
" transform="scale(0.015625)"/>
      <path id="DejaVuSans-73" d="M 2834 3397 
L 2834 2853 
Q 2591 2978 2328 3040 
Q 2066 3103 1784 3103 
Q 1356 3103 1142 2972 
Q 928 2841 928 2578 
Q 928 2378 1081 2264 
Q 1234 2150 1697 2047 
L 1894 2003 
Q 2506 1872 2764 1633 
Q 3022 1394 3022 966 
Q 3022 478 2636 193 
Q 2250 -91 1575 -91 
Q 1294 -91 989 -36 
Q 684 19 347 128 
L 347 722 
Q 666 556 975 473 
Q 1284 391 1588 391 
Q 1994 391 2212 530 
Q 2431 669 2431 922 
Q 2431 1156 2273 1281 
Q 2116 1406 1581 1522 
L 1381 1569 
Q 847 1681 609 1914 
Q 372 2147 372 2553 
Q 372 3047 722 3315 
Q 1072 3584 1716 3584 
Q 2034 3584 2315 3537 
Q 2597 3491 2834 3397 
z
" transform="scale(0.015625)"/>
      <path id="DejaVuSans-4c" d="M 628 4666 
L 1259 4666 
L 1259 531 
L 3531 531 
L 3531 0 
L 628 0 
L 628 4666 
z
" transform="scale(0.015625)"/>
      <path id="DejaVuSans-63" d="M 3122 3366 
L 3122 2828 
Q 2878 2963 2633 3030 
Q 2388 3097 2138 3097 
Q 1578 3097 1268 2742 
Q 959 2388 959 1747 
Q 959 1106 1268 751 
Q 1578 397 2138 397 
Q 2388 397 2633 464 
Q 2878 531 3122 666 
L 3122 134 
Q 2881 22 2623 -34 
Q 2366 -91 2075 -91 
Q 1284 -91 818 406 
Q 353 903 353 1747 
Q 353 2603 823 3093 
Q 1294 3584 2113 3584 
Q 2378 3584 2631 3529 
Q 2884 3475 3122 3366 
z
" transform="scale(0.015625)"/>
      <path id="DejaVuSans-74" d="M 1172 4494 
L 1172 3500 
L 2356 3500 
L 2356 3053 
L 1172 3053 
L 1172 1153 
Q 1172 725 1289 603 
Q 1406 481 1766 481 
L 2356 481 
L 2356 0 
L 1766 0 
Q 1100 0 847 248 
Q 594 497 594 1153 
L 594 3053 
L 172 3053 
L 172 3500 
L 594 3500 
L 594 4494 
L 1172 4494 
z
" transform="scale(0.015625)"/>
      <path id="DejaVuSans-33" d="M 2597 2516 
Q 3050 2419 3304 2112 
Q 3559 1806 3559 1356 
Q 3559 666 3084 287 
Q 2609 -91 1734 -91 
Q 1441 -91 1130 -33 
Q 819 25 488 141 
L 488 750 
Q 750 597 1062 519 
Q 1375 441 1716 441 
Q 2309 441 2620 675 
Q 2931 909 2931 1356 
Q 2931 1769 2642 2001 
Q 2353 2234 1838 2234 
L 1294 2234 
L 1294 2753 
L 1863 2753 
Q 2328 2753 2575 2939 
Q 2822 3125 2822 3475 
Q 2822 3834 2567 4026 
Q 2313 4219 1838 4219 
Q 1578 4219 1281 4162 
Q 984 4106 628 3988 
L 628 4550 
Q 988 4650 1302 4700 
Q 1616 4750 1894 4750 
Q 2613 4750 3031 4423 
Q 3450 4097 3450 3541 
Q 3450 3153 3228 2886 
Q 3006 2619 2597 2516 
z
" transform="scale(0.015625)"/>
      <path id="DejaVuSans-39" d="M 703 97 
L 703 672 
Q 941 559 1184 500 
Q 1428 441 1663 441 
Q 2288 441 2617 861 
Q 2947 1281 2994 2138 
Q 2813 1869 2534 1725 
Q 2256 1581 1919 1581 
Q 1219 1581 811 2004 
Q 403 2428 403 3163 
Q 403 3881 828 4315 
Q 1253 4750 1959 4750 
Q 2769 4750 3195 4129 
Q 3622 3509 3622 2328 
Q 3622 1225 3098 567 
Q 2575 -91 1691 -91 
Q 1453 -91 1209 -44 
Q 966 3 703 97 
z
M 1959 2075 
Q 2384 2075 2632 2365 
Q 2881 2656 2881 3163 
Q 2881 3666 2632 3958 
Q 2384 4250 1959 4250 
Q 1534 4250 1286 3958 
Q 1038 3666 1038 3163 
Q 1038 2656 1286 2365 
Q 1534 2075 1959 2075 
z
" transform="scale(0.015625)"/>
     </defs>
     <use xlink:href="#DejaVuSans-53"/>
     <use xlink:href="#DejaVuSans-65" transform="translate(63.476562 0)"/>
     <use xlink:href="#DejaVuSans-6e" transform="translate(125 0)"/>
     <use xlink:href="#DejaVuSans-73" transform="translate(188.378906 0)"/>
     <use xlink:href="#DejaVuSans-6f" transform="translate(240.478516 0)"/>
     <use xlink:href="#DejaVuSans-72" transform="translate(301.660156 0)"/>
     <use xlink:href="#DejaVuSans-20" transform="translate(342.773438 0)"/>
     <use xlink:href="#DejaVuSans-4c" transform="translate(374.560547 0)"/>
     <use xlink:href="#DejaVuSans-6f" transform="translate(428.523438 0)"/>
     <use xlink:href="#DejaVuSans-63" transform="translate(489.705078 0)"/>
     <use xlink:href="#DejaVuSans-61" transform="translate(544.685547 0)"/>
     <use xlink:href="#DejaVuSans-74" transform="translate(605.964844 0)"/>
     <use xlink:href="#DejaVuSans-69" transform="translate(645.173828 0)"/>
     <use xlink:href="#DejaVuSans-6f" transform="translate(672.957031 0)"/>
     <use xlink:href="#DejaVuSans-6e" transform="translate(734.138672 0)"/>
     <use xlink:href="#DejaVuSans-20" transform="translate(797.517578 0)"/>
     <use xlink:href="#DejaVuSans-33" transform="translate(829.304688 0)"/>
     <use xlink:href="#DejaVuSans-39" transform="translate(892.927734 0)"/>
     <use xlink:href="#DejaVuSans-38" transform="translate(956.550781 0)"/>
     <use xlink:href="#DejaVuSans-36" transform="translate(1020.173828 0)"/>
     <use xlink:href="#DejaVuSans-33" transform="translate(1083.796875 0)"/>
    </g>
   </g>
  </g>
 </g>
 <defs>
  <clipPath id="p8d5ddb6005">
   <rect x="71.298125" y="35.43625" width="814.24" height="157.68"/>
  </clipPath>
 </defs>
</svg>
