<?xml version="1.0" encoding="utf-8" standalone="no"?>
<!DOCTYPE svg PUBLIC "-//W3C//DTD SVG 1.1//EN"
  "http://www.w3.org/Graphics/SVG/1.1/DTD/svg11.dtd">
<svg xmlns:xlink="http://www.w3.org/1999/xlink" width="576pt" height="432pt" viewBox="0 0 576 432" xmlns="http://www.w3.org/2000/svg" version="1.1">
 <metadata>
  <rdf:RDF xmlns:dc="http://purl.org/dc/elements/1.1/" xmlns:cc="http://creativecommons.org/ns#" xmlns:rdf="http://www.w3.org/1999/02/22-rdf-syntax-ns#">
   <cc:Work>
    <dc:type rdf:resource="http://purl.org/dc/dcmitype/StillImage"/>
    <dc:date>2025-09-22T22:41:52.413182</dc:date>
    <dc:format>image/svg+xml</dc:format>
    <dc:creator>
     <cc:Agent>
      <dc:title>Matplotlib v3.10.0, https://matplotlib.org/</dc:title>
     </cc:Agent>
    </dc:creator>
   </cc:Work>
  </rdf:RDF>
 </metadata>
 <defs>
  <style type="text/css">*{stroke-linejoin: round; stroke-linecap: butt}</style>
 </defs>
 <g id="figure_1">
  <g id="patch_1">
   <path d="M 0 432 
L 576 432 
L 576 0 
L 0 0 
L 0 432 
z
" style="fill: none; opacity: 0"/>
  </g>
  <g id="axes_1">
   <g id="patch_2">
    <path d="M 23.76 380.84 
L 552.24 380.84 
L 552.24 51.12 
L 23.76 51.12 
L 23.76 380.84 
z
" style="fill: none"/>
   </g>
   <g id="matplotlib.axis_1">
    <g id="xtick_1">
     <g id="line2d_1">
      <path d="M 78.336647 380.84 
L 78.336647 51.12 
" clip-path="url(#p29d6e074a0)" style="fill: none; stroke: #ffffff; stroke-opacity: 0.4; stroke-linecap: round"/>
     </g>
     <g id="line2d_2">
      <defs>
       <path id="m2341ac1e77" d="M 0 0 
L 0 3 
" style="stroke: #808080"/>
      </defs>
      <g>
       <use xlink:href="#m2341ac1e77" x="78.336647" y="380.84" style="fill: #808080; stroke: #808080"/>
      </g>
     </g>
     <g id="text_1">
      <text style="font-size: 18px; font-family: 'DejaVu Serif', 'Times New Roman', serif; text-anchor: middle; fill: #262626" x="78.336647" y="404.517187" transform="rotate(-0 78.336647 404.517187)">0.62</text>
     </g>
    </g>
    <g id="xtick_2">
     <g id="line2d_3">
      <path d="M 162.894139 380.84 
L 162.894139 51.12 
" clip-path="url(#p29d6e074a0)" style="fill: none; stroke: #ffffff; stroke-opacity: 0.4; stroke-linecap: round"/>
     </g>
     <g id="line2d_4">
      <g>
       <use xlink:href="#m2341ac1e77" x="162.894139" y="380.84" style="fill: #808080; stroke: #808080"/>
      </g>
     </g>
     <g id="text_2">
      <text style="font-size: 18px; font-family: 'DejaVu Serif', 'Times New Roman', serif; text-anchor: middle; fill: #262626" x="162.894139" y="404.517187" transform="rotate(-0 162.894139 404.517187)">0.63</text>
     </g>
    </g>
    <g id="xtick_3">
     <g id="line2d_5">
      <path d="M 247.45163 380.84 
L 247.45163 51.12 
" clip-path="url(#p29d6e074a0)" style="fill: none; stroke: #ffffff; stroke-opacity: 0.4; stroke-linecap: round"/>
     </g>
     <g id="line2d_6">
      <g>
       <use xlink:href="#m2341ac1e77" x="247.45163" y="380.84" style="fill: #808080; stroke: #808080"/>
      </g>
     </g>
     <g id="text_3">
      <text style="font-size: 18px; font-family: 'DejaVu Serif', 'Times New Roman', serif; text-anchor: middle; fill: #262626" x="247.45163" y="404.517187" transform="rotate(-0 247.45163 404.517187)">0.64</text>
     </g>
    </g>
    <g id="xtick_4">
     <g id="line2d_7">
      <path d="M 332.009121 380.84 
L 332.009121 51.12 
" clip-path="url(#p29d6e074a0)" style="fill: none; stroke: #ffffff; stroke-opacity: 0.4; stroke-linecap: round"/>
     </g>
     <g id="line2d_8">
      <g>
       <use xlink:href="#m2341ac1e77" x="332.009121" y="380.84" style="fill: #808080; stroke: #808080"/>
      </g>
     </g>
     <g id="text_4">
      <text style="font-size: 18px; font-family: 'DejaVu Serif', 'Times New Roman', serif; text-anchor: middle; fill: #262626" x="332.009121" y="404.517187" transform="rotate(-0 332.009121 404.517187)">0.65</text>
     </g>
    </g>
    <g id="xtick_5">
     <g id="line2d_9">
      <path d="M 416.566613 380.84 
L 416.566613 51.12 
" clip-path="url(#p29d6e074a0)" style="fill: none; stroke: #ffffff; stroke-opacity: 0.4; stroke-linecap: round"/>
     </g>
     <g id="line2d_10">
      <g>
       <use xlink:href="#m2341ac1e77" x="416.566613" y="380.84" style="fill: #808080; stroke: #808080"/>
      </g>
     </g>
     <g id="text_5">
      <text style="font-size: 18px; font-family: 'DejaVu Serif', 'Times New Roman', serif; text-anchor: middle; fill: #262626" x="416.566613" y="404.517187" transform="rotate(-0 416.566613 404.517187)">0.66</text>
     </g>
    </g>
    <g id="xtick_6">
     <g id="line2d_11">
      <path d="M 501.124104 380.84 
L 501.124104 51.12 
" clip-path="url(#p29d6e074a0)" style="fill: none; stroke: #ffffff; stroke-opacity: 0.4; stroke-linecap: round"/>
     </g>
     <g id="line2d_12">
      <g>
       <use xlink:href="#m2341ac1e77" x="501.124104" y="380.84" style="fill: #808080; stroke: #808080"/>
      </g>
     </g>
     <g id="text_6">
      <text style="font-size: 18px; font-family: 'DejaVu Serif', 'Times New Roman', serif; text-anchor: middle; fill: #262626" x="501.124104" y="404.517187" transform="rotate(-0 501.124104 404.517187)">0.67</text>
     </g>
    </g>
   </g>
   <g id="matplotlib.axis_2"/>
   <g id="FillBetweenPolyCollection_1">
    <defs>
     <path id="me3bda520e9" d="M 47.781818 -66.147273 
L 47.781818 -67.179699 
L 48.722007 -67.178446 
L 49.662195 -67.175984 
L 50.602384 -67.1724 
L 51.542572 -67.165811 
L 52.482761 -67.162314 
L 53.42295 -67.158138 
L 54.363138 -67.153563 
L 55.303327 -67.148883 
L 56.243515 -67.144402 
L 57.183704 -67.140423 
L 58.123893 -67.140597 
L 59.064081 -67.142675 
L 60.00427 -67.143737 
L 60.944458 -67.146755 
L 61.884647 -67.151992 
L 62.824835 -67.159679 
L 63.765024 -67.170009 
L 64.705213 -67.183139 
L 65.645401 -67.199177 
L 66.58559 -67.221544 
L 67.525778 -67.2484 
L 68.465967 -67.276558 
L 69.406155 -67.308049 
L 70.346344 -67.342857 
L 71.286533 -67.380926 
L 72.226721 -67.422164 
L 73.16691 -67.476505 
L 74.107098 -67.526126 
L 75.047287 -67.585661 
L 75.987476 -67.643202 
L 76.927664 -67.707367 
L 77.867853 -67.772163 
L 78.808041 -67.84354 
L 79.74823 -67.915527 
L 80.688418 -67.990745 
L 81.628607 -68.072497 
L 82.568796 -68.158199 
L 83.508984 -68.244625 
L 84.449173 -68.334463 
L 85.389361 -68.434435 
L 86.32955 -68.536132 
L 87.269738 -68.642435 
L 88.209927 -68.747532 
L 89.150116 -68.867483 
L 90.090304 -68.987271 
L 91.030493 -69.115094 
L 91.970681 -69.255255 
L 92.91087 -69.396233 
L 93.851059 -69.547028 
L 94.791247 -69.69866 
L 95.731436 -69.8566 
L 96.671624 -70.024254 
L 97.611813 -70.195718 
L 98.552001 -70.37361 
L 99.49219 -70.56114 
L 100.432379 -70.755548 
L 101.372567 -70.960045 
L 102.312756 -71.168537 
L 103.252944 -71.383455 
L 104.193133 -71.611204 
L 105.133321 -71.846355 
L 106.07351 -72.088839 
L 107.013699 -72.331888 
L 107.953887 -72.580526 
L 108.894076 -72.837756 
L 109.834264 -73.097993 
L 110.774453 -73.366942 
L 111.714642 -73.647797 
L 112.65483 -73.932004 
L 113.595019 -74.218993 
L 114.535207 -74.508117 
L 115.475396 -74.815409 
L 116.415584 -75.120642 
L 117.355773 -75.435461 
L 118.295962 -75.767712 
L 119.23615 -76.093578 
L 120.176339 -76.426886 
L 121.116527 -76.774813 
L 122.056716 -77.132795 
L 122.996904 -77.505051 
L 123.937093 -77.889973 
L 124.877282 -78.278641 
L 125.81747 -78.681204 
L 126.757659 -79.105142 
L 127.697847 -79.558216 
L 128.638036 -80.017892 
L 129.578225 -80.492595 
L 130.518413 -80.98584 
L 131.458602 -81.5084 
L 132.39879 -82.04317 
L 133.338979 -82.595956 
L 134.279167 -83.182975 
L 135.219356 -83.786601 
L 136.159545 -84.425614 
L 137.099733 -85.079583 
L 138.039922 -85.759663 
L 138.98011 -86.46621 
L 139.920299 -87.190142 
L 140.860487 -87.946752 
L 141.800676 -88.713394 
L 142.740865 -89.50228 
L 143.681053 -90.306151 
L 144.621242 -91.149661 
L 145.56143 -91.996666 
L 146.501619 -92.852584 
L 147.441808 -93.734609 
L 148.381996 -94.641737 
L 149.322185 -95.550044 
L 150.262373 -96.478052 
L 151.202562 -97.428663 
L 152.14275 -98.40073 
L 153.082939 -99.372897 
L 154.023128 -100.34891 
L 154.963316 -101.342414 
L 155.903505 -102.351355 
L 156.843693 -103.365878 
L 157.783882 -104.424862 
L 158.72407 -105.485458 
L 159.664259 -106.565191 
L 160.604448 -107.682343 
L 161.544636 -108.832482 
L 162.484825 -109.988728 
L 163.425013 -111.185595 
L 164.365202 -112.42856 
L 165.30539 -113.688705 
L 166.245579 -114.983098 
L 167.185768 -116.31446 
L 168.125956 -117.704669 
L 169.066145 -119.121838 
L 170.006333 -120.586071 
L 170.946522 -122.090557 
L 171.886711 -123.644757 
L 172.826899 -125.218474 
L 173.767088 -126.851206 
L 174.707276 -128.539282 
L 175.647465 -130.267216 
L 176.587653 -132.032556 
L 177.527842 -133.835161 
L 178.468031 -135.680692 
L 179.408219 -137.575608 
L 180.348408 -139.470533 
L 181.288596 -141.433247 
L 182.228785 -143.397736 
L 183.168973 -145.365786 
L 184.109162 -147.379831 
L 185.049351 -149.412337 
L 185.989539 -151.471938 
L 186.929728 -153.552953 
L 187.869916 -155.637176 
L 188.810105 -157.768266 
L 189.750294 -159.907585 
L 190.690482 -162.063197 
L 191.630671 -164.241973 
L 192.570859 -166.435111 
L 193.511048 -168.639831 
L 194.451236 -170.838409 
L 195.391425 -173.077176 
L 196.331614 -175.327123 
L 197.271802 -177.589137 
L 198.211991 -179.85242 
L 199.152179 -182.141622 
L 200.092368 -184.421448 
L 201.032556 -186.733832 
L 201.972745 -189.052416 
L 202.912934 -191.376662 
L 203.853122 -193.705752 
L 204.793311 -196.044696 
L 205.733499 -198.376511 
L 206.673688 -200.714579 
L 207.613877 -203.031034 
L 208.554065 -205.340861 
L 209.494254 -207.644432 
L 210.434442 -209.946436 
L 211.374631 -212.253568 
L 212.314819 -214.544837 
L 213.255008 -216.780757 
L 214.195197 -219.027775 
L 215.135385 -221.256876 
L 216.075574 -223.49049 
L 217.015762 -225.694816 
L 217.955951 -227.865401 
L 218.896139 -230.032961 
L 219.836328 -232.186887 
L 220.776517 -234.306805 
L 221.716705 -236.419172 
L 222.656894 -238.534647 
L 223.597082 -240.693256 
L 224.537271 -242.832457 
L 225.47746 -244.990602 
L 226.417648 -247.111295 
L 227.357837 -249.300752 
L 228.298025 -251.516534 
L 229.238214 -253.704797 
L 230.178402 -255.935186 
L 231.118591 -258.183147 
L 232.05878 -260.444638 
L 232.998968 -262.74267 
L 233.939157 -265.052464 
L 234.879345 -267.41023 
L 235.819534 -269.784121 
L 236.759722 -272.194983 
L 237.699911 -274.604716 
L 238.6401 -277.046136 
L 239.580288 -279.457127 
L 240.520477 -281.908038 
L 241.460665 -284.344346 
L 242.400854 -286.737443 
L 243.341043 -289.123987 
L 244.281231 -291.531516 
L 245.22142 -293.885548 
L 246.161608 -296.189686 
L 247.101797 -298.477885 
L 248.041985 -300.738653 
L 248.982174 -302.916223 
L 249.922363 -305.049854 
L 250.862551 -307.161218 
L 251.80274 -309.202563 
L 252.742928 -311.194896 
L 253.683117 -313.10696 
L 254.623305 -314.949049 
L 255.563494 -316.718623 
L 256.503683 -318.421562 
L 257.443871 -320.085616 
L 258.38406 -321.69172 
L 259.324248 -323.266792 
L 260.264437 -324.771355 
L 261.204626 -326.240891 
L 262.144814 -327.705268 
L 263.085003 -329.104614 
L 264.025191 -330.527615 
L 264.96538 -331.932767 
L 265.905568 -333.27699 
L 266.845757 -334.62535 
L 267.785946 -335.977344 
L 268.726134 -337.31078 
L 269.666323 -338.670388 
L 270.606511 -340.02292 
L 271.5467 -341.366739 
L 272.486888 -342.703519 
L 273.427077 -344.038422 
L 274.367266 -345.375679 
L 275.307454 -346.712208 
L 276.247643 -348.059779 
L 277.187831 -349.359329 
L 278.12802 -350.662321 
L 279.068209 -351.92883 
L 280.008397 -353.207123 
L 280.948586 -354.430382 
L 281.888774 -355.622561 
L 282.828963 -356.779178 
L 283.769151 -357.865459 
L 284.70934 -358.86538 
L 285.649529 -359.810887 
L 286.589717 -360.717326 
L 287.529906 -361.559512 
L 288.470094 -362.342536 
L 289.410283 -363.061307 
L 290.350471 -363.705122 
L 291.29066 -364.233778 
L 292.230849 -364.679691 
L 293.171037 -365.036753 
L 294.111226 -365.347835 
L 295.051414 -365.61938 
L 295.991603 -365.786043 
L 296.931791 -365.890636 
L 297.87198 -365.892727 
L 298.812169 -365.859002 
L 299.752357 -365.763599 
L 300.692546 -365.620934 
L 301.632734 -365.420431 
L 302.572923 -365.186836 
L 303.513112 -364.887331 
L 304.4533 -364.526523 
L 305.393489 -364.060666 
L 306.333677 -363.588004 
L 307.273866 -363.035402 
L 308.214054 -362.451415 
L 309.154243 -361.803465 
L 310.094432 -361.086315 
L 311.03462 -360.345267 
L 311.974809 -359.531662 
L 312.914997 -358.679124 
L 313.855186 -357.777067 
L 314.795374 -356.783178 
L 315.735563 -355.751679 
L 316.675752 -354.65686 
L 317.61594 -353.503297 
L 318.556129 -352.251753 
L 319.496317 -350.943526 
L 320.436506 -349.581088 
L 321.376695 -348.153734 
L 322.316883 -346.629035 
L 323.257072 -345.048002 
L 324.19726 -343.41361 
L 325.137449 -341.703729 
L 326.077637 -339.919017 
L 327.017826 -338.103586 
L 327.958015 -336.218786 
L 328.898203 -334.264093 
L 329.838392 -332.254233 
L 330.77858 -330.189429 
L 331.718769 -328.071413 
L 332.658957 -325.884602 
L 333.599146 -323.672866 
L 334.539335 -321.426061 
L 335.479523 -319.16448 
L 336.419712 -316.878532 
L 337.3599 -314.560422 
L 338.300089 -312.214259 
L 339.240278 -309.836513 
L 340.180466 -307.455172 
L 341.120655 -305.034233 
L 342.060843 -302.644222 
L 343.001032 -300.239863 
L 343.94122 -297.81739 
L 344.881409 -295.398797 
L 345.821598 -292.984461 
L 346.761786 -290.589149 
L 347.701975 -288.232505 
L 348.642163 -285.856102 
L 349.582352 -283.47293 
L 350.52254 -281.116238 
L 351.462729 -278.767957 
L 352.402918 -276.425626 
L 353.343106 -274.116967 
L 354.283295 -271.826111 
L 355.223483 -269.560726 
L 356.163672 -267.294678 
L 357.103861 -265.041985 
L 358.044049 -262.805889 
L 358.984238 -260.581035 
L 359.924426 -258.351983 
L 360.864615 -256.140147 
L 361.804803 -253.939093 
L 362.744992 -251.733655 
L 363.685181 -249.542845 
L 364.625369 -247.362495 
L 365.565558 -245.216635 
L 366.505746 -243.090149 
L 367.445935 -240.967085 
L 368.386123 -238.817192 
L 369.326312 -236.676879 
L 370.266501 -234.528159 
L 371.206689 -232.39714 
L 372.146878 -230.267384 
L 373.087066 -228.160331 
L 374.027255 -226.065318 
L 374.967444 -223.970753 
L 375.907632 -221.842856 
L 376.847821 -219.712036 
L 377.788009 -217.590553 
L 378.728198 -215.441746 
L 379.668386 -213.29456 
L 380.608575 -211.125043 
L 381.548764 -208.93926 
L 382.488952 -206.718114 
L 383.429141 -204.483028 
L 384.369329 -202.217911 
L 385.309518 -199.941663 
L 386.249706 -197.633392 
L 387.189895 -195.330081 
L 388.130084 -192.978138 
L 389.070272 -190.620712 
L 390.010461 -188.246016 
L 390.950649 -185.831005 
L 391.890838 -183.418522 
L 392.831027 -180.997671 
L 393.771215 -178.556785 
L 394.711404 -176.123474 
L 395.651592 -173.694448 
L 396.591781 -171.283306 
L 397.531969 -168.87185 
L 398.472158 -166.489361 
L 399.412347 -164.141077 
L 400.352535 -161.836227 
L 401.292724 -159.586788 
L 402.232912 -157.35141 
L 403.173101 -155.176686 
L 404.113289 -153.066216 
L 405.053478 -151.007438 
L 405.993667 -148.999715 
L 406.933855 -147.042794 
L 407.874044 -145.136042 
L 408.814232 -143.282426 
L 409.754421 -141.504732 
L 410.69461 -139.789026 
L 411.634798 -138.119782 
L 412.574987 -136.52958 
L 413.515175 -134.967361 
L 414.455364 -133.45794 
L 415.395552 -131.991349 
L 416.335741 -130.548131 
L 417.27593 -129.165046 
L 418.216118 -127.816237 
L 419.156307 -126.483383 
L 420.096495 -125.192622 
L 421.036684 -123.923984 
L 421.976872 -122.684386 
L 422.917061 -121.477191 
L 423.85725 -120.272961 
L 424.797438 -119.093953 
L 425.737627 -117.958093 
L 426.677815 -116.836911 
L 427.618004 -115.736718 
L 428.558192 -114.655169 
L 429.498381 -113.595177 
L 430.43857 -112.571672 
L 431.378758 -111.574654 
L 432.318947 -110.604221 
L 433.259135 -109.648368 
L 434.199324 -108.72666 
L 435.139513 -107.82666 
L 436.079701 -106.949627 
L 437.01989 -106.081775 
L 437.960078 -105.251966 
L 438.900267 -104.439862 
L 439.840455 -103.647527 
L 440.780644 -102.884833 
L 441.720833 -102.134484 
L 442.661021 -101.40098 
L 443.60121 -100.663342 
L 444.541398 -99.960075 
L 445.481587 -99.263007 
L 446.421775 -98.557335 
L 447.361964 -97.86115 
L 448.302153 -97.178073 
L 449.242341 -96.488835 
L 450.18253 -95.801455 
L 451.122718 -95.122166 
L 452.062907 -94.449085 
L 453.003096 -93.761457 
L 453.943284 -93.074375 
L 454.883473 -92.387162 
L 455.823661 -91.688719 
L 456.76385 -90.981131 
L 457.704038 -90.2797 
L 458.644227 -89.575391 
L 459.584416 -88.869255 
L 460.524604 -88.175765 
L 461.464793 -87.483207 
L 462.404981 -86.792656 
L 463.34517 -86.107221 
L 464.285358 -85.42477 
L 465.225547 -84.741128 
L 466.165736 -84.069257 
L 467.105924 -83.404258 
L 468.046113 -82.747912 
L 468.986301 -82.097961 
L 469.92649 -81.460713 
L 470.866679 -80.836531 
L 471.806867 -80.220492 
L 472.747056 -79.614184 
L 473.687244 -79.027065 
L 474.627433 -78.453387 
L 475.567621 -77.894034 
L 476.50781 -77.347137 
L 477.447999 -76.816657 
L 478.388187 -76.305819 
L 479.328376 -75.814554 
L 480.268564 -75.332097 
L 481.208753 -74.874014 
L 482.148941 -74.431248 
L 483.08913 -74.007253 
L 484.029319 -73.602041 
L 484.969507 -73.220891 
L 485.909696 -72.851811 
L 486.849884 -72.503885 
L 487.790073 -72.176847 
L 488.730262 -71.867799 
L 489.67045 -71.573101 
L 490.610639 -71.289585 
L 491.550827 -71.025837 
L 492.491016 -70.780486 
L 493.431204 -70.544216 
L 494.371393 -70.325525 
L 495.311582 -70.120302 
L 496.25177 -69.933146 
L 497.191959 -69.754163 
L 498.132147 -69.591408 
L 499.072336 -69.427049 
L 500.012524 -69.284298 
L 500.952713 -69.149374 
L 501.892902 -69.016543 
L 502.83309 -68.894568 
L 503.773279 -68.77964 
L 504.713467 -68.671331 
L 505.653656 -68.56924 
L 506.593845 -68.473001 
L 507.534033 -68.382271 
L 508.474222 -68.300095 
L 509.41441 -68.21561 
L 510.354599 -68.145781 
L 511.294787 -68.0745 
L 512.234976 -68.010888 
L 513.175165 -67.948796 
L 514.115353 -67.894021 
L 515.055542 -67.849147 
L 515.99573 -67.796914 
L 516.935919 -67.757749 
L 517.876107 -67.721638 
L 518.816296 -67.688597 
L 519.756485 -67.658612 
L 520.696673 -67.631639 
L 521.636862 -67.607612 
L 522.57705 -67.583762 
L 523.517239 -67.565895 
L 524.457428 -67.551235 
L 525.397616 -67.539696 
L 526.337805 -67.530533 
L 527.277993 -67.527027 
L 528.218182 -67.526566 
L 528.218182 -66.147273 
L 528.218182 -66.147273 
L 527.277993 -66.147273 
L 526.337805 -66.147273 
L 525.397616 -66.147273 
L 524.457428 -66.147273 
L 523.517239 -66.147273 
L 522.57705 -66.147273 
L 521.636862 -66.147273 
L 520.696673 -66.147273 
L 519.756485 -66.147273 
L 518.816296 -66.147273 
L 517.876107 -66.147273 
L 516.935919 -66.147273 
L 515.99573 -66.147273 
L 515.055542 -66.147273 
L 514.115353 -66.147273 
L 513.175165 -66.147273 
L 512.234976 -66.147273 
L 511.294787 -66.147273 
L 510.354599 -66.147273 
L 509.41441 -66.147273 
L 508.474222 -66.147273 
L 507.534033 -66.147273 
L 506.593845 -66.147273 
L 505.653656 -66.147273 
L 504.713467 -66.147273 
L 503.773279 -66.147273 
L 502.83309 -66.147273 
L 501.892902 -66.147273 
L 500.952713 -66.147273 
L 500.012524 -66.147273 
L 499.072336 -66.147273 
L 498.132147 -66.147273 
L 497.191959 -66.147273 
L 496.25177 -66.147273 
L 495.311582 -66.147273 
L 494.371393 -66.147273 
L 493.431204 -66.147273 
L 492.491016 -66.147273 
L 491.550827 -66.147273 
L 490.610639 -66.147273 
L 489.67045 -66.147273 
L 488.730262 -66.147273 
L 487.790073 -66.147273 
L 486.849884 -66.147273 
L 485.909696 -66.147273 
L 484.969507 -66.147273 
L 484.029319 -66.147273 
L 483.08913 -66.147273 
L 482.148941 -66.147273 
L 481.208753 -66.147273 
L 480.268564 -66.147273 
L 479.328376 -66.147273 
L 478.388187 -66.147273 
L 477.447999 -66.147273 
L 476.50781 -66.147273 
L 475.567621 -66.147273 
L 474.627433 -66.147273 
L 473.687244 -66.147273 
L 472.747056 -66.147273 
L 471.806867 -66.147273 
L 470.866679 -66.147273 
L 469.92649 -66.147273 
L 468.986301 -66.147273 
L 468.046113 -66.147273 
L 467.105924 -66.147273 
L 466.165736 -66.147273 
L 465.225547 -66.147273 
L 464.285358 -66.147273 
L 463.34517 -66.147273 
L 462.404981 -66.147273 
L 461.464793 -66.147273 
L 460.524604 -66.147273 
L 459.584416 -66.147273 
L 458.644227 -66.147273 
L 457.704038 -66.147273 
L 456.76385 -66.147273 
L 455.823661 -66.147273 
L 454.883473 -66.147273 
L 453.943284 -66.147273 
L 453.003096 -66.147273 
L 452.062907 -66.147273 
L 451.122718 -66.147273 
L 450.18253 -66.147273 
L 449.242341 -66.147273 
L 448.302153 -66.147273 
L 447.361964 -66.147273 
L 446.421775 -66.147273 
L 445.481587 -66.147273 
L 444.541398 -66.147273 
L 443.60121 -66.147273 
L 442.661021 -66.147273 
L 441.720833 -66.147273 
L 440.780644 -66.147273 
L 439.840455 -66.147273 
L 438.900267 -66.147273 
L 437.960078 -66.147273 
L 437.01989 -66.147273 
L 436.079701 -66.147273 
L 435.139513 -66.147273 
L 434.199324 -66.147273 
L 433.259135 -66.147273 
L 432.318947 -66.147273 
L 431.378758 -66.147273 
L 430.43857 -66.147273 
L 429.498381 -66.147273 
L 428.558192 -66.147273 
L 427.618004 -66.147273 
L 426.677815 -66.147273 
L 425.737627 -66.147273 
L 424.797438 -66.147273 
L 423.85725 -66.147273 
L 422.917061 -66.147273 
L 421.976872 -66.147273 
L 421.036684 -66.147273 
L 420.096495 -66.147273 
L 419.156307 -66.147273 
L 418.216118 -66.147273 
L 417.27593 -66.147273 
L 416.335741 -66.147273 
L 415.395552 -66.147273 
L 414.455364 -66.147273 
L 413.515175 -66.147273 
L 412.574987 -66.147273 
L 411.634798 -66.147273 
L 410.69461 -66.147273 
L 409.754421 -66.147273 
L 408.814232 -66.147273 
L 407.874044 -66.147273 
L 406.933855 -66.147273 
L 405.993667 -66.147273 
L 405.053478 -66.147273 
L 404.113289 -66.147273 
L 403.173101 -66.147273 
L 402.232912 -66.147273 
L 401.292724 -66.147273 
L 400.352535 -66.147273 
L 399.412347 -66.147273 
L 398.472158 -66.147273 
L 397.531969 -66.147273 
L 396.591781 -66.147273 
L 395.651592 -66.147273 
L 394.711404 -66.147273 
L 393.771215 -66.147273 
L 392.831027 -66.147273 
L 391.890838 -66.147273 
L 390.950649 -66.147273 
L 390.010461 -66.147273 
L 389.070272 -66.147273 
L 388.130084 -66.147273 
L 387.189895 -66.147273 
L 386.249706 -66.147273 
L 385.309518 -66.147273 
L 384.369329 -66.147273 
L 383.429141 -66.147273 
L 382.488952 -66.147273 
L 381.548764 -66.147273 
L 380.608575 -66.147273 
L 379.668386 -66.147273 
L 378.728198 -66.147273 
L 377.788009 -66.147273 
L 376.847821 -66.147273 
L 375.907632 -66.147273 
L 374.967444 -66.147273 
L 374.027255 -66.147273 
L 373.087066 -66.147273 
L 372.146878 -66.147273 
L 371.206689 -66.147273 
L 370.266501 -66.147273 
L 369.326312 -66.147273 
L 368.386123 -66.147273 
L 367.445935 -66.147273 
L 366.505746 -66.147273 
L 365.565558 -66.147273 
L 364.625369 -66.147273 
L 363.685181 -66.147273 
L 362.744992 -66.147273 
L 361.804803 -66.147273 
L 360.864615 -66.147273 
L 359.924426 -66.147273 
L 358.984238 -66.147273 
L 358.044049 -66.147273 
L 357.103861 -66.147273 
L 356.163672 -66.147273 
L 355.223483 -66.147273 
L 354.283295 -66.147273 
L 353.343106 -66.147273 
L 352.402918 -66.147273 
L 351.462729 -66.147273 
L 350.52254 -66.147273 
L 349.582352 -66.147273 
L 348.642163 -66.147273 
L 347.701975 -66.147273 
L 346.761786 -66.147273 
L 345.821598 -66.147273 
L 344.881409 -66.147273 
L 343.94122 -66.147273 
L 343.001032 -66.147273 
L 342.060843 -66.147273 
L 341.120655 -66.147273 
L 340.180466 -66.147273 
L 339.240278 -66.147273 
L 338.300089 -66.147273 
L 337.3599 -66.147273 
L 336.419712 -66.147273 
L 335.479523 -66.147273 
L 334.539335 -66.147273 
L 333.599146 -66.147273 
L 332.658957 -66.147273 
L 331.718769 -66.147273 
L 330.77858 -66.147273 
L 329.838392 -66.147273 
L 328.898203 -66.147273 
L 327.958015 -66.147273 
L 327.017826 -66.147273 
L 326.077637 -66.147273 
L 325.137449 -66.147273 
L 324.19726 -66.147273 
L 323.257072 -66.147273 
L 322.316883 -66.147273 
L 321.376695 -66.147273 
L 320.436506 -66.147273 
L 319.496317 -66.147273 
L 318.556129 -66.147273 
L 317.61594 -66.147273 
L 316.675752 -66.147273 
L 315.735563 -66.147273 
L 314.795374 -66.147273 
L 313.855186 -66.147273 
L 312.914997 -66.147273 
L 311.974809 -66.147273 
L 311.03462 -66.147273 
L 310.094432 -66.147273 
L 309.154243 -66.147273 
L 308.214054 -66.147273 
L 307.273866 -66.147273 
L 306.333677 -66.147273 
L 305.393489 -66.147273 
L 304.4533 -66.147273 
L 303.513112 -66.147273 
L 302.572923 -66.147273 
L 301.632734 -66.147273 
L 300.692546 -66.147273 
L 299.752357 -66.147273 
L 298.812169 -66.147273 
L 297.87198 -66.147273 
L 296.931791 -66.147273 
L 295.991603 -66.147273 
L 295.051414 -66.147273 
L 294.111226 -66.147273 
L 293.171037 -66.147273 
L 292.230849 -66.147273 
L 291.29066 -66.147273 
L 290.350471 -66.147273 
L 289.410283 -66.147273 
L 288.470094 -66.147273 
L 287.529906 -66.147273 
L 286.589717 -66.147273 
L 285.649529 -66.147273 
L 284.70934 -66.147273 
L 283.769151 -66.147273 
L 282.828963 -66.147273 
L 281.888774 -66.147273 
L 280.948586 -66.147273 
L 280.008397 -66.147273 
L 279.068209 -66.147273 
L 278.12802 -66.147273 
L 277.187831 -66.147273 
L 276.247643 -66.147273 
L 275.307454 -66.147273 
L 274.367266 -66.147273 
L 273.427077 -66.147273 
L 272.486888 -66.147273 
L 271.5467 -66.147273 
L 270.606511 -66.147273 
L 269.666323 -66.147273 
L 268.726134 -66.147273 
L 267.785946 -66.147273 
L 266.845757 -66.147273 
L 265.905568 -66.147273 
L 264.96538 -66.147273 
L 264.025191 -66.147273 
L 263.085003 -66.147273 
L 262.144814 -66.147273 
L 261.204626 -66.147273 
L 260.264437 -66.147273 
L 259.324248 -66.147273 
L 258.38406 -66.147273 
L 257.443871 -66.147273 
L 256.503683 -66.147273 
L 255.563494 -66.147273 
L 254.623305 -66.147273 
L 253.683117 -66.147273 
L 252.742928 -66.147273 
L 251.80274 -66.147273 
L 250.862551 -66.147273 
L 249.922363 -66.147273 
L 248.982174 -66.147273 
L 248.041985 -66.147273 
L 247.101797 -66.147273 
L 246.161608 -66.147273 
L 245.22142 -66.147273 
L 244.281231 -66.147273 
L 243.341043 -66.147273 
L 242.400854 -66.147273 
L 241.460665 -66.147273 
L 240.520477 -66.147273 
L 239.580288 -66.147273 
L 238.6401 -66.147273 
L 237.699911 -66.147273 
L 236.759722 -66.147273 
L 235.819534 -66.147273 
L 234.879345 -66.147273 
L 233.939157 -66.147273 
L 232.998968 -66.147273 
L 232.05878 -66.147273 
L 231.118591 -66.147273 
L 230.178402 -66.147273 
L 229.238214 -66.147273 
L 228.298025 -66.147273 
L 227.357837 -66.147273 
L 226.417648 -66.147273 
L 225.47746 -66.147273 
L 224.537271 -66.147273 
L 223.597082 -66.147273 
L 222.656894 -66.147273 
L 221.716705 -66.147273 
L 220.776517 -66.147273 
L 219.836328 -66.147273 
L 218.896139 -66.147273 
L 217.955951 -66.147273 
L 217.015762 -66.147273 
L 216.075574 -66.147273 
L 215.135385 -66.147273 
L 214.195197 -66.147273 
L 213.255008 -66.147273 
L 212.314819 -66.147273 
L 211.374631 -66.147273 
L 210.434442 -66.147273 
L 209.494254 -66.147273 
L 208.554065 -66.147273 
L 207.613877 -66.147273 
L 206.673688 -66.147273 
L 205.733499 -66.147273 
L 204.793311 -66.147273 
L 203.853122 -66.147273 
L 202.912934 -66.147273 
L 201.972745 -66.147273 
L 201.032556 -66.147273 
L 200.092368 -66.147273 
L 199.152179 -66.147273 
L 198.211991 -66.147273 
L 197.271802 -66.147273 
L 196.331614 -66.147273 
L 195.391425 -66.147273 
L 194.451236 -66.147273 
L 193.511048 -66.147273 
L 192.570859 -66.147273 
L 191.630671 -66.147273 
L 190.690482 -66.147273 
L 189.750294 -66.147273 
L 188.810105 -66.147273 
L 187.869916 -66.147273 
L 186.929728 -66.147273 
L 185.989539 -66.147273 
L 185.049351 -66.147273 
L 184.109162 -66.147273 
L 183.168973 -66.147273 
L 182.228785 -66.147273 
L 181.288596 -66.147273 
L 180.348408 -66.147273 
L 179.408219 -66.147273 
L 178.468031 -66.147273 
L 177.527842 -66.147273 
L 176.587653 -66.147273 
L 175.647465 -66.147273 
L 174.707276 -66.147273 
L 173.767088 -66.147273 
L 172.826899 -66.147273 
L 171.886711 -66.147273 
L 170.946522 -66.147273 
L 170.006333 -66.147273 
L 169.066145 -66.147273 
L 168.125956 -66.147273 
L 167.185768 -66.147273 
L 166.245579 -66.147273 
L 165.30539 -66.147273 
L 164.365202 -66.147273 
L 163.425013 -66.147273 
L 162.484825 -66.147273 
L 161.544636 -66.147273 
L 160.604448 -66.147273 
L 159.664259 -66.147273 
L 158.72407 -66.147273 
L 157.783882 -66.147273 
L 156.843693 -66.147273 
L 155.903505 -66.147273 
L 154.963316 -66.147273 
L 154.023128 -66.147273 
L 153.082939 -66.147273 
L 152.14275 -66.147273 
L 151.202562 -66.147273 
L 150.262373 -66.147273 
L 149.322185 -66.147273 
L 148.381996 -66.147273 
L 147.441808 -66.147273 
L 146.501619 -66.147273 
L 145.56143 -66.147273 
L 144.621242 -66.147273 
L 143.681053 -66.147273 
L 142.740865 -66.147273 
L 141.800676 -66.147273 
L 140.860487 -66.147273 
L 139.920299 -66.147273 
L 138.98011 -66.147273 
L 138.039922 -66.147273 
L 137.099733 -66.147273 
L 136.159545 -66.147273 
L 135.219356 -66.147273 
L 134.279167 -66.147273 
L 133.338979 -66.147273 
L 132.39879 -66.147273 
L 131.458602 -66.147273 
L 130.518413 -66.147273 
L 129.578225 -66.147273 
L 128.638036 -66.147273 
L 127.697847 -66.147273 
L 126.757659 -66.147273 
L 125.81747 -66.147273 
L 124.877282 -66.147273 
L 123.937093 -66.147273 
L 122.996904 -66.147273 
L 122.056716 -66.147273 
L 121.116527 -66.147273 
L 120.176339 -66.147273 
L 119.23615 -66.147273 
L 118.295962 -66.147273 
L 117.355773 -66.147273 
L 116.415584 -66.147273 
L 115.475396 -66.147273 
L 114.535207 -66.147273 
L 113.595019 -66.147273 
L 112.65483 -66.147273 
L 111.714642 -66.147273 
L 110.774453 -66.147273 
L 109.834264 -66.147273 
L 108.894076 -66.147273 
L 107.953887 -66.147273 
L 107.013699 -66.147273 
L 106.07351 -66.147273 
L 105.133321 -66.147273 
L 104.193133 -66.147273 
L 103.252944 -66.147273 
L 102.312756 -66.147273 
L 101.372567 -66.147273 
L 100.432379 -66.147273 
L 99.49219 -66.147273 
L 98.552001 -66.147273 
L 97.611813 -66.147273 
L 96.671624 -66.147273 
L 95.731436 -66.147273 
L 94.791247 -66.147273 
L 93.851059 -66.147273 
L 92.91087 -66.147273 
L 91.970681 -66.147273 
L 91.030493 -66.147273 
L 90.090304 -66.147273 
L 89.150116 -66.147273 
L 88.209927 -66.147273 
L 87.269738 -66.147273 
L 86.32955 -66.147273 
L 85.389361 -66.147273 
L 84.449173 -66.147273 
L 83.508984 -66.147273 
L 82.568796 -66.147273 
L 81.628607 -66.147273 
L 80.688418 -66.147273 
L 79.74823 -66.147273 
L 78.808041 -66.147273 
L 77.867853 -66.147273 
L 76.927664 -66.147273 
L 75.987476 -66.147273 
L 75.047287 -66.147273 
L 74.107098 -66.147273 
L 73.16691 -66.147273 
L 72.226721 -66.147273 
L 71.286533 -66.147273 
L 70.346344 -66.147273 
L 69.406155 -66.147273 
L 68.465967 -66.147273 
L 67.525778 -66.147273 
L 66.58559 -66.147273 
L 65.645401 -66.147273 
L 64.705213 -66.147273 
L 63.765024 -66.147273 
L 62.824835 -66.147273 
L 61.884647 -66.147273 
L 60.944458 -66.147273 
L 60.00427 -66.147273 
L 59.064081 -66.147273 
L 58.123893 -66.147273 
L 57.183704 -66.147273 
L 56.243515 -66.147273 
L 55.303327 -66.147273 
L 54.363138 -66.147273 
L 53.42295 -66.147273 
L 52.482761 -66.147273 
L 51.542572 -66.147273 
L 50.602384 -66.147273 
L 49.662195 -66.147273 
L 48.722007 -66.147273 
L 47.781818 -66.147273 
z
" style="stroke: #7570b3; stroke-opacity: 0.6; stroke-width: 0.3"/>
    </defs>
    <g clip-path="url(#p29d6e074a0)">
     <use xlink:href="#me3bda520e9" x="0" y="432" style="fill: #7570b3; fill-opacity: 0.6; stroke: #7570b3; stroke-opacity: 0.6; stroke-width: 0.3"/>
    </g>
   </g>
   <g id="line2d_13">
    <path d="M 47.781818 364.820301 
L 67.525778 364.7516 
L 74.107098 364.473874 
L 82.568796 363.841801 
L 89.150116 363.132517 
L 93.851059 362.452972 
L 99.49219 361.43886 
L 104.193133 360.388796 
L 110.774453 358.633058 
L 117.355773 356.564539 
L 122.996904 354.494949 
L 126.757659 352.894858 
L 130.518413 351.01416 
L 134.279167 348.817025 
L 137.099733 346.920417 
L 139.920299 344.809858 
L 143.681053 341.693849 
L 148.381996 337.358263 
L 152.14275 333.59927 
L 156.843693 328.634122 
L 160.604448 324.317657 
L 164.365202 319.57144 
L 167.185768 315.68554 
L 170.006333 311.413929 
L 172.826899 306.781526 
L 175.647465 301.732784 
L 178.468031 296.319308 
L 183.168973 286.634214 
L 187.869916 276.362824 
L 193.511048 263.360169 
L 198.211991 252.14758 
L 207.613877 228.968966 
L 215.135385 210.743124 
L 219.836328 199.813113 
L 228.298025 180.483466 
L 232.05878 171.555362 
L 236.759722 159.805017 
L 247.101797 133.522115 
L 249.922363 126.950146 
L 252.742928 120.805104 
L 255.563494 115.281377 
L 258.38406 110.30828 
L 261.204626 105.759109 
L 264.96538 100.067233 
L 279.068209 80.07117 
L 281.888774 76.377439 
L 283.769151 74.134541 
L 286.589717 71.282674 
L 288.470094 69.657464 
L 290.350471 68.294878 
L 292.230849 67.320309 
L 294.111226 66.652165 
L 295.991603 66.213957 
L 297.87198 66.107273 
L 299.752357 66.236401 
L 301.632734 66.579569 
L 303.513112 67.112669 
L 305.393489 67.939334 
L 307.273866 68.964598 
L 309.154243 70.196535 
L 311.974809 72.468338 
L 313.855186 74.222933 
L 316.675752 77.34314 
L 318.556129 79.748247 
L 321.376695 83.846266 
L 324.19726 88.58639 
L 327.017826 93.896414 
L 329.838392 99.745767 
L 332.658957 106.115398 
L 337.3599 117.439578 
L 343.001032 131.760137 
L 350.52254 150.883762 
L 356.163672 164.705322 
L 363.685181 182.457155 
L 370.266501 197.471841 
L 383.429141 227.516972 
L 389.070272 241.379288 
L 394.711404 255.876526 
L 400.352535 270.163773 
L 404.113289 278.933784 
L 406.933855 284.957206 
L 409.754421 290.495268 
L 412.574987 295.47042 
L 415.395552 300.008651 
L 418.216118 304.183763 
L 421.036684 308.076016 
L 424.797438 312.906047 
L 428.558192 317.344831 
L 431.378758 320.425346 
L 435.139513 324.17334 
L 438.900267 327.560138 
L 442.661021 330.59902 
L 446.421775 333.442665 
L 466.165736 347.930743 
L 470.866679 351.163469 
L 474.627433 353.546613 
L 478.388187 355.694181 
L 482.148941 357.568752 
L 485.909696 359.148189 
L 489.67045 360.426899 
L 493.431204 361.455784 
L 497.191959 362.245837 
L 501.892902 362.983457 
L 507.534033 363.617729 
L 514.115353 364.105979 
L 522.57705 364.416238 
L 528.218182 364.473434 
L 528.218182 364.473434 
" clip-path="url(#p29d6e074a0)" style="fill: none; stroke: #7570b3; stroke-width: 2; stroke-linecap: round"/>
   </g>
   <g id="line2d_14">
    <path d="M 180.898946 359.558073 
L 402.333338 359.558073 
" clip-path="url(#p29d6e074a0)" style="fill: none; stroke: #000000; stroke-width: 3.5"/>
   </g>
   <g id="patch_3">
    <path d="M 23.76 380.84 
L 552.24 380.84 
" style="fill: none; stroke: #333333; stroke-width: 1.5; stroke-linejoin: miter; stroke-linecap: square"/>
   </g>
   <g id="text_7">
    <text style="font-size: 22px; font-family: 'DejaVu Serif', 'Times New Roman', serif; text-anchor: end; fill: #262626" x="180.898946" y="343.821436" transform="rotate(-0 180.898946 343.821436)">0.63 </text>
   </g>
   <g id="text_8">
    <text style="font-size: 22px; font-family: 'DejaVu Serif', 'Times New Roman', serif; text-anchor: start; fill: #262626" x="402.333338" y="343.821436" transform="rotate(-0 402.333338 343.821436)"> 0.66</text>
   </g>
   <g id="text_9">
    <text style="font-size: 22px; font-family: 'DejaVu Serif', 'Times New Roman', serif; text-anchor: middle; fill: #262626" x="291.616142" y="271.432909" transform="rotate(-0 291.616142 271.432909)">90% HDI</text>
   </g>
   <g id="text_10">
    <text style="font-size: 22px; font-family: 'DejaVu Serif', 'Times New Roman', serif; text-anchor: middle; fill: #262626" x="296.721063" y="114.066545" transform="rotate(-0 296.721063 114.066545)">mean=0.65</text>
   </g>
   <g id="text_11">
    <!-- $C$ -->
    <g style="fill: #262626" transform="translate(278.2 45.12)">
     <text>
      <tspan x="0" y="-0.21875" style="font-style: oblique; font-size: 28px; font-family: 'DejaVu Sans'; fill: #262626">C</tspan>
     </text>
    </g>
   </g>
  </g>
 </g>
 <defs>
  <clipPath id="p29d6e074a0">
   <rect x="23.76" y="51.12" width="528.48" height="329.72"/>
  </clipPath>
 </defs>
</svg>
