<?xml version="1.0" encoding="utf-8" standalone="no"?>
<!DOCTYPE svg PUBLIC "-//W3C//DTD SVG 1.1//EN"
  "http://www.w3.org/Graphics/SVG/1.1/DTD/svg11.dtd">
<svg xmlns:xlink="http://www.w3.org/1999/xlink" width="576pt" height="432pt" viewBox="0 0 576 432" xmlns="http://www.w3.org/2000/svg" version="1.1">
 <metadata>
  <rdf:RDF xmlns:dc="http://purl.org/dc/elements/1.1/" xmlns:cc="http://creativecommons.org/ns#" xmlns:rdf="http://www.w3.org/1999/02/22-rdf-syntax-ns#">
   <cc:Work>
    <dc:type rdf:resource="http://purl.org/dc/dcmitype/StillImage"/>
    <dc:date>2025-09-22T22:41:52.337826</dc:date>
    <dc:format>image/svg+xml</dc:format>
    <dc:creator>
     <cc:Agent>
      <dc:title>Matplotlib v3.10.0, https://matplotlib.org/</dc:title>
     </cc:Agent>
    </dc:creator>
   </cc:Work>
  </rdf:RDF>
 </metadata>
 <defs>
  <style type="text/css">*{stroke-linejoin: round; stroke-linecap: butt}</style>
 </defs>
 <g id="figure_1">
  <g id="patch_1">
   <path d="M 0 432 
L 576 432 
L 576 0 
L 0 0 
L 0 432 
z
" style="fill: none; opacity: 0"/>
  </g>
  <g id="axes_1">
   <g id="patch_2">
    <path d="M 23.76 380.84 
L 533.905954 380.84 
L 533.905954 51.12 
L 23.76 51.12 
L 23.76 380.84 
z
" style="fill: none"/>
   </g>
   <g id="matplotlib.axis_1">
    <g id="xtick_1">
     <g id="line2d_1">
      <path d="M 116.199357 380.84 
L 116.199357 51.12 
" clip-path="url(#p89bf2586c2)" style="fill: none; stroke: #ffffff; stroke-opacity: 0.4; stroke-linecap: round"/>
     </g>
     <g id="line2d_2">
      <defs>
       <path id="m8d8d5fab6f" d="M 0 0 
L 0 3 
" style="stroke: #808080"/>
      </defs>
      <g>
       <use xlink:href="#m8d8d5fab6f" x="116.199357" y="380.84" style="fill: #808080; stroke: #808080"/>
      </g>
     </g>
     <g id="text_1">
      <text style="font-size: 18px; font-family: 'DejaVu Serif', 'Times New Roman', serif; text-anchor: middle; fill: #262626" x="116.199357" y="404.517187" transform="rotate(-0 116.199357 404.517187)">0.305</text>
     </g>
    </g>
    <g id="xtick_2">
     <g id="line2d_3">
      <path d="M 218.50584 380.84 
L 218.50584 51.12 
" clip-path="url(#p89bf2586c2)" style="fill: none; stroke: #ffffff; stroke-opacity: 0.4; stroke-linecap: round"/>
     </g>
     <g id="line2d_4">
      <g>
       <use xlink:href="#m8d8d5fab6f" x="218.50584" y="380.84" style="fill: #808080; stroke: #808080"/>
      </g>
     </g>
     <g id="text_2">
      <text style="font-size: 18px; font-family: 'DejaVu Serif', 'Times New Roman', serif; text-anchor: middle; fill: #262626" x="218.50584" y="404.517187" transform="rotate(-0 218.50584 404.517187)">0.310</text>
     </g>
    </g>
    <g id="xtick_3">
     <g id="line2d_5">
      <path d="M 320.812322 380.84 
L 320.812322 51.12 
" clip-path="url(#p89bf2586c2)" style="fill: none; stroke: #ffffff; stroke-opacity: 0.4; stroke-linecap: round"/>
     </g>
     <g id="line2d_6">
      <g>
       <use xlink:href="#m8d8d5fab6f" x="320.812322" y="380.84" style="fill: #808080; stroke: #808080"/>
      </g>
     </g>
     <g id="text_3">
      <text style="font-size: 18px; font-family: 'DejaVu Serif', 'Times New Roman', serif; text-anchor: middle; fill: #262626" x="320.812322" y="404.517187" transform="rotate(-0 320.812322 404.517187)">0.315</text>
     </g>
    </g>
    <g id="xtick_4">
     <g id="line2d_7">
      <path d="M 423.118805 380.84 
L 423.118805 51.12 
" clip-path="url(#p89bf2586c2)" style="fill: none; stroke: #ffffff; stroke-opacity: 0.4; stroke-linecap: round"/>
     </g>
     <g id="line2d_8">
      <g>
       <use xlink:href="#m8d8d5fab6f" x="423.118805" y="380.84" style="fill: #808080; stroke: #808080"/>
      </g>
     </g>
     <g id="text_4">
      <text style="font-size: 18px; font-family: 'DejaVu Serif', 'Times New Roman', serif; text-anchor: middle; fill: #262626" x="423.118805" y="404.517187" transform="rotate(-0 423.118805 404.517187)">0.320</text>
     </g>
    </g>
    <g id="xtick_5">
     <g id="line2d_9">
      <path d="M 525.425287 380.84 
L 525.425287 51.12 
" clip-path="url(#p89bf2586c2)" style="fill: none; stroke: #ffffff; stroke-opacity: 0.4; stroke-linecap: round"/>
     </g>
     <g id="line2d_10">
      <g>
       <use xlink:href="#m8d8d5fab6f" x="525.425287" y="380.84" style="fill: #808080; stroke: #808080"/>
      </g>
     </g>
     <g id="text_5">
      <text style="font-size: 18px; font-family: 'DejaVu Serif', 'Times New Roman', serif; text-anchor: middle; fill: #262626" x="525.425287" y="404.517187" transform="rotate(-0 525.425287 404.517187)">0.325</text>
     </g>
    </g>
   </g>
   <g id="matplotlib.axis_2"/>
   <g id="FillBetweenPolyCollection_1">
    <defs>
     <path id="mcbf085ab36" d="M 46.948452 -66.147273 
L 46.948452 -70.047644 
L 47.856024 -70.056046 
L 48.763596 -70.085223 
L 49.671167 -70.127664 
L 50.578739 -70.188496 
L 51.48631 -70.267742 
L 52.393882 -70.364258 
L 53.301453 -70.492236 
L 54.209025 -70.630736 
L 55.116596 -70.800591 
L 56.024168 -70.984152 
L 56.931739 -71.184845 
L 57.839311 -71.412355 
L 58.746882 -71.654385 
L 59.654454 -71.92225 
L 60.562025 -72.209892 
L 61.469597 -72.516938 
L 62.377168 -72.839594 
L 63.28474 -73.179601 
L 64.192311 -73.530131 
L 65.099883 -73.897467 
L 66.007455 -74.278279 
L 66.915026 -74.674964 
L 67.822598 -75.088625 
L 68.730169 -75.515477 
L 69.637741 -75.948628 
L 70.545312 -76.38295 
L 71.452884 -76.828691 
L 72.360455 -77.276363 
L 73.268027 -77.733938 
L 74.175598 -78.189023 
L 75.08317 -78.645886 
L 75.990741 -79.101204 
L 76.898313 -79.560045 
L 77.805884 -80.021922 
L 78.713456 -80.477505 
L 79.621027 -80.928248 
L 80.528599 -81.385988 
L 81.43617 -81.842965 
L 82.343742 -82.293352 
L 83.251313 -82.745316 
L 84.158885 -83.20927 
L 85.066457 -83.669653 
L 85.974028 -84.134549 
L 86.8816 -84.598696 
L 87.789171 -85.061881 
L 88.696743 -85.536144 
L 89.604314 -86.017882 
L 90.511886 -86.486002 
L 91.419457 -86.969239 
L 92.327029 -87.464697 
L 93.2346 -87.975735 
L 94.142172 -88.482654 
L 95.049743 -88.998851 
L 95.957315 -89.52895 
L 96.864886 -90.075278 
L 97.772458 -90.630672 
L 98.680029 -91.202058 
L 99.587601 -91.794587 
L 100.495172 -92.430687 
L 101.402744 -93.079358 
L 102.310316 -93.776542 
L 103.217887 -94.489198 
L 104.125459 -95.244202 
L 105.03303 -96.022773 
L 105.940602 -96.850865 
L 106.848173 -97.71645 
L 107.755745 -98.620539 
L 108.663316 -99.60599 
L 109.570888 -100.644362 
L 110.478459 -101.728598 
L 111.386031 -102.890454 
L 112.293602 -104.101299 
L 113.201174 -105.368158 
L 114.108745 -106.708508 
L 115.016317 -108.114212 
L 115.923888 -109.582367 
L 116.83146 -111.103681 
L 117.739031 -112.682113 
L 118.646603 -114.325347 
L 119.554174 -116.019604 
L 120.461746 -117.786756 
L 121.369318 -119.610864 
L 122.276889 -121.51878 
L 123.184461 -123.435938 
L 124.092032 -125.391504 
L 124.999604 -127.404692 
L 125.907175 -129.450029 
L 126.814747 -131.523517 
L 127.722318 -133.655943 
L 128.62989 -135.800689 
L 129.537461 -137.979606 
L 130.445033 -140.1846 
L 131.352604 -142.412221 
L 132.260176 -144.631906 
L 133.167747 -146.885272 
L 134.075319 -149.148551 
L 134.98289 -151.406302 
L 135.890462 -153.675089 
L 136.798033 -155.940298 
L 137.705605 -158.217232 
L 138.613177 -160.487149 
L 139.520748 -162.765819 
L 140.42832 -165.031359 
L 141.335891 -167.272737 
L 142.243463 -169.505179 
L 143.151034 -171.719881 
L 144.058606 -173.920992 
L 144.966177 -176.12864 
L 145.873749 -178.33533 
L 146.78132 -180.538859 
L 147.688892 -182.703523 
L 148.596463 -184.900801 
L 149.504035 -187.082315 
L 150.411606 -189.276092 
L 151.319178 -191.474435 
L 152.226749 -193.709828 
L 153.134321 -195.961919 
L 154.041892 -198.215462 
L 154.949464 -200.525764 
L 155.857036 -202.837656 
L 156.764607 -205.187693 
L 157.672179 -207.562396 
L 158.57975 -209.951143 
L 159.487322 -212.396208 
L 160.394893 -214.877909 
L 161.302465 -217.382308 
L 162.210036 -219.929341 
L 163.117608 -222.478045 
L 164.025179 -225.070217 
L 164.932751 -227.667526 
L 165.840322 -230.277434 
L 166.747894 -232.864051 
L 167.655465 -235.486144 
L 168.563037 -238.099013 
L 169.470608 -240.695088 
L 170.37818 -243.288717 
L 171.285751 -245.870779 
L 172.193323 -248.43534 
L 173.100894 -250.962735 
L 174.008466 -253.490628 
L 174.916038 -255.971197 
L 175.823609 -258.473255 
L 176.731181 -260.914497 
L 177.638752 -263.356792 
L 178.546324 -265.801991 
L 179.453895 -268.221937 
L 180.361467 -270.625638 
L 181.269038 -273.044258 
L 182.17661 -275.451391 
L 183.084181 -277.822121 
L 183.991753 -280.185197 
L 184.899324 -282.587891 
L 185.806896 -284.976589 
L 186.714467 -287.360716 
L 187.622039 -289.76087 
L 188.52961 -292.147574 
L 189.437182 -294.513435 
L 190.344753 -296.882505 
L 191.252325 -299.264781 
L 192.159897 -301.633857 
L 193.067468 -303.987492 
L 193.97504 -306.319521 
L 194.882611 -308.619121 
L 195.790183 -310.88667 
L 196.697754 -313.067713 
L 197.605326 -315.267231 
L 198.512897 -317.447996 
L 199.420469 -319.566029 
L 200.32804 -321.642804 
L 201.235612 -323.646265 
L 202.143183 -325.570394 
L 203.050755 -327.452371 
L 203.958326 -329.298283 
L 204.865898 -331.07235 
L 205.773469 -332.769929 
L 206.681041 -334.466884 
L 207.588612 -336.061041 
L 208.496184 -337.563841 
L 209.403756 -339.050273 
L 210.311327 -340.46096 
L 211.218899 -341.800906 
L 212.12647 -343.055121 
L 213.034042 -344.253429 
L 213.941613 -345.390155 
L 214.849185 -346.48207 
L 215.756756 -347.564858 
L 216.664328 -348.561565 
L 217.571899 -349.524518 
L 218.479471 -350.4812 
L 219.387042 -351.371766 
L 220.294614 -352.250131 
L 221.202185 -353.109719 
L 222.109757 -353.969622 
L 223.017328 -354.802977 
L 223.9249 -355.622343 
L 224.832471 -356.436343 
L 225.740043 -357.225547 
L 226.647614 -358.016725 
L 227.555186 -358.797461 
L 228.462758 -359.607796 
L 229.370329 -360.351304 
L 230.277901 -361.101717 
L 231.185472 -361.839392 
L 232.093044 -362.543716 
L 233.000615 -363.197272 
L 233.908187 -363.811704 
L 234.815758 -364.351928 
L 235.72333 -364.846952 
L 236.630901 -365.236807 
L 237.538473 -365.551761 
L 238.446044 -365.76538 
L 239.353616 -365.872886 
L 240.261187 -365.892727 
L 241.168759 -365.794775 
L 242.07633 -365.520955 
L 242.983902 -365.158938 
L 243.891473 -364.666641 
L 244.799045 -364.040188 
L 245.706617 -363.288197 
L 246.614188 -362.4199 
L 247.52176 -361.455826 
L 248.429331 -360.342479 
L 249.336903 -359.149466 
L 250.244474 -357.828394 
L 251.152046 -356.435835 
L 252.059617 -354.980954 
L 252.967189 -353.462167 
L 253.87476 -351.861706 
L 254.782332 -350.214076 
L 255.689903 -348.524502 
L 256.597475 -346.824688 
L 257.505046 -345.071604 
L 258.412618 -343.316723 
L 259.320189 -341.490621 
L 260.227761 -339.676617 
L 261.135332 -337.890874 
L 262.042904 -336.083593 
L 262.950476 -334.290512 
L 263.858047 -332.475925 
L 264.765619 -330.657024 
L 265.67319 -328.78857 
L 266.580762 -326.938706 
L 267.488333 -325.077997 
L 268.395905 -323.224097 
L 269.303476 -321.347313 
L 270.211048 -319.439109 
L 271.118619 -317.573308 
L 272.026191 -315.646146 
L 272.933762 -313.687548 
L 273.841334 -311.731726 
L 274.748905 -309.736827 
L 275.656477 -307.753591 
L 276.564048 -305.736949 
L 277.47162 -303.707912 
L 278.379191 -301.616546 
L 279.286763 -299.518465 
L 280.194334 -297.426498 
L 281.101906 -295.277567 
L 282.009478 -293.149095 
L 282.917049 -291.02834 
L 283.824621 -288.859909 
L 284.732192 -286.69103 
L 285.639764 -284.537657 
L 286.547335 -282.390732 
L 287.454907 -280.252702 
L 288.362478 -278.104317 
L 289.27005 -275.944832 
L 290.177621 -273.758215 
L 291.085193 -271.591025 
L 291.992764 -269.414475 
L 292.900336 -267.212002 
L 293.807907 -265.038567 
L 294.715479 -262.815978 
L 295.62305 -260.590184 
L 296.530622 -258.368304 
L 297.438193 -256.100591 
L 298.345765 -253.833046 
L 299.253337 -251.523485 
L 300.160908 -249.202506 
L 301.06848 -246.8205 
L 301.976051 -244.407252 
L 302.883623 -241.948535 
L 303.791194 -239.453814 
L 304.698766 -236.911169 
L 305.606337 -234.322775 
L 306.513909 -231.687589 
L 307.42148 -229.023738 
L 308.329052 -226.295576 
L 309.236623 -223.534377 
L 310.144195 -220.72042 
L 311.051766 -217.890395 
L 311.959338 -215.032547 
L 312.866909 -212.125009 
L 313.774481 -209.232454 
L 314.682052 -206.278512 
L 315.589624 -203.352114 
L 316.497195 -200.43025 
L 317.404767 -197.492478 
L 318.312339 -194.564807 
L 319.21991 -191.634948 
L 320.127482 -188.743116 
L 321.035053 -185.863247 
L 321.942625 -183.007143 
L 322.850196 -180.204947 
L 323.757768 -177.426552 
L 324.665339 -174.701046 
L 325.572911 -172.032276 
L 326.480482 -169.396743 
L 327.388054 -166.795913 
L 328.295625 -164.298192 
L 329.203197 -161.833281 
L 330.110768 -159.412188 
L 331.01834 -157.0422 
L 331.925911 -154.765037 
L 332.833483 -152.543335 
L 333.741054 -150.393477 
L 334.648626 -148.279442 
L 335.556198 -146.214634 
L 336.463769 -144.228735 
L 337.371341 -142.290313 
L 338.278912 -140.452422 
L 339.186484 -138.649651 
L 340.094055 -136.923528 
L 341.001627 -135.241419 
L 341.909198 -133.607069 
L 342.81677 -132.017224 
L 343.724341 -130.477711 
L 344.631913 -129.01091 
L 345.539484 -127.550082 
L 346.447056 -126.157522 
L 347.354627 -124.803228 
L 348.262199 -123.463239 
L 349.16977 -122.183031 
L 350.077342 -120.921892 
L 350.984913 -119.694393 
L 351.892485 -118.489531 
L 352.800057 -117.317017 
L 353.707628 -116.173339 
L 354.6152 -115.038178 
L 355.522771 -113.925773 
L 356.430343 -112.825241 
L 357.337914 -111.747028 
L 358.245486 -110.689654 
L 359.153057 -109.642947 
L 360.060629 -108.609742 
L 360.9682 -107.581979 
L 361.875772 -106.563643 
L 362.783343 -105.557887 
L 363.690915 -104.577472 
L 364.598486 -103.624179 
L 365.506058 -102.690069 
L 366.413629 -101.7566 
L 367.321201 -100.828206 
L 368.228772 -99.901211 
L 369.136344 -99.003574 
L 370.043915 -98.116682 
L 370.951487 -97.233724 
L 371.859059 -96.371264 
L 372.76663 -95.519655 
L 373.674202 -94.676435 
L 374.581773 -93.84481 
L 375.489345 -93.020292 
L 376.396916 -92.216177 
L 377.304488 -91.411932 
L 378.212059 -90.630631 
L 379.119631 -89.864725 
L 380.027202 -89.092923 
L 380.934774 -88.348231 
L 381.842345 -87.607278 
L 382.749917 -86.883443 
L 383.657488 -86.18244 
L 384.56506 -85.494166 
L 385.472631 -84.818994 
L 386.380203 -84.152795 
L 387.287774 -83.511186 
L 388.195346 -82.875155 
L 389.102918 -82.262659 
L 390.010489 -81.660822 
L 390.918061 -81.079644 
L 391.825632 -80.523752 
L 392.733204 -79.989577 
L 393.640775 -79.485938 
L 394.548347 -78.977476 
L 395.455918 -78.507079 
L 396.36349 -78.055383 
L 397.271061 -77.617325 
L 398.178633 -77.201671 
L 399.086204 -76.807425 
L 399.993776 -76.428481 
L 400.901347 -76.065017 
L 401.808919 -75.722136 
L 402.71649 -75.393356 
L 403.624062 -75.08625 
L 404.531633 -74.793687 
L 405.439205 -74.515004 
L 406.346777 -74.249478 
L 407.254348 -73.988621 
L 408.16192 -73.753873 
L 409.069491 -73.528386 
L 409.977063 -73.309001 
L 410.884634 -73.093045 
L 411.792206 -72.885951 
L 412.699777 -72.678924 
L 413.607349 -72.499004 
L 414.51492 -72.317792 
L 415.422492 -72.135297 
L 416.330063 -71.959664 
L 417.237635 -71.784291 
L 418.145206 -71.619312 
L 419.052778 -71.449422 
L 419.960349 -71.283118 
L 420.867921 -71.114175 
L 421.775492 -70.942839 
L 422.683064 -70.779611 
L 423.590635 -70.609608 
L 424.498207 -70.441797 
L 425.405779 -70.275593 
L 426.31335 -70.105502 
L 427.220922 -69.935064 
L 428.128493 -69.764646 
L 429.036065 -69.59212 
L 429.943636 -69.423702 
L 430.851208 -69.259291 
L 431.758779 -69.093812 
L 432.666351 -68.931158 
L 433.573922 -68.774532 
L 434.481494 -68.618848 
L 435.389065 -68.470512 
L 436.296637 -68.324341 
L 437.204208 -68.186617 
L 438.11178 -68.052012 
L 439.019351 -67.918925 
L 439.926923 -67.798956 
L 440.834494 -67.688297 
L 441.742066 -67.58388 
L 442.649638 -67.485788 
L 443.557209 -67.394 
L 444.464781 -67.305825 
L 445.372352 -67.224192 
L 446.279924 -67.151288 
L 447.187495 -67.08099 
L 448.095067 -67.018669 
L 449.002638 -66.958148 
L 449.91021 -66.902199 
L 450.817781 -66.852914 
L 451.725353 -66.806709 
L 452.632924 -66.763276 
L 453.540496 -66.722327 
L 454.448067 -66.6836 
L 455.355639 -66.644292 
L 456.26321 -66.60991 
L 457.170782 -66.571903 
L 458.078353 -66.539001 
L 458.985925 -66.51034 
L 459.893496 -66.482666 
L 460.801068 -66.456007 
L 461.70864 -66.427827 
L 462.616211 -66.403873 
L 463.523783 -66.380945 
L 464.431354 -66.356539 
L 465.338926 -66.336413 
L 466.246497 -66.317372 
L 467.154069 -66.299472 
L 468.06164 -66.277611 
L 468.969212 -66.263219 
L 469.876783 -66.249814 
L 470.784355 -66.23743 
L 471.691926 -66.226079 
L 472.599498 -66.215756 
L 473.507069 -66.206437 
L 474.414641 -66.201357 
L 475.322212 -66.198063 
L 476.229784 -66.193427 
L 477.137355 -66.190029 
L 478.044927 -66.187883 
L 478.952499 -66.18701 
L 479.86007 -66.187439 
L 480.767642 -66.189212 
L 481.675213 -66.192379 
L 482.582785 -66.197004 
L 483.490356 -66.203158 
L 484.397928 -66.210922 
L 485.305499 -66.220383 
L 486.213071 -66.231629 
L 487.120642 -66.244748 
L 488.028214 -66.257253 
L 488.935785 -66.27492 
L 489.843357 -66.294562 
L 490.750928 -66.316237 
L 491.6585 -66.339971 
L 492.566071 -66.36576 
L 493.473643 -66.393557 
L 494.381214 -66.423274 
L 495.288786 -66.454774 
L 496.196358 -66.487874 
L 497.103929 -66.52234 
L 498.011501 -66.557887 
L 498.919072 -66.594185 
L 499.826644 -66.630858 
L 500.734215 -66.667492 
L 501.641787 -66.703642 
L 502.549358 -66.738838 
L 503.45693 -66.772597 
L 504.364501 -66.804432 
L 505.272073 -66.833865 
L 506.179644 -66.860438 
L 507.087216 -66.883725 
L 507.994787 -66.903342 
L 508.902359 -66.91896 
L 509.80993 -66.930313 
L 510.717502 -66.937204 
L 510.717502 -66.147273 
L 510.717502 -66.147273 
L 509.80993 -66.147273 
L 508.902359 -66.147273 
L 507.994787 -66.147273 
L 507.087216 -66.147273 
L 506.179644 -66.147273 
L 505.272073 -66.147273 
L 504.364501 -66.147273 
L 503.45693 -66.147273 
L 502.549358 -66.147273 
L 501.641787 -66.147273 
L 500.734215 -66.147273 
L 499.826644 -66.147273 
L 498.919072 -66.147273 
L 498.011501 -66.147273 
L 497.103929 -66.147273 
L 496.196358 -66.147273 
L 495.288786 -66.147273 
L 494.381214 -66.147273 
L 493.473643 -66.147273 
L 492.566071 -66.147273 
L 491.6585 -66.147273 
L 490.750928 -66.147273 
L 489.843357 -66.147273 
L 488.935785 -66.147273 
L 488.028214 -66.147273 
L 487.120642 -66.147273 
L 486.213071 -66.147273 
L 485.305499 -66.147273 
L 484.397928 -66.147273 
L 483.490356 -66.147273 
L 482.582785 -66.147273 
L 481.675213 -66.147273 
L 480.767642 -66.147273 
L 479.86007 -66.147273 
L 478.952499 -66.147273 
L 478.044927 -66.147273 
L 477.137355 -66.147273 
L 476.229784 -66.147273 
L 475.322212 -66.147273 
L 474.414641 -66.147273 
L 473.507069 -66.147273 
L 472.599498 -66.147273 
L 471.691926 -66.147273 
L 470.784355 -66.147273 
L 469.876783 -66.147273 
L 468.969212 -66.147273 
L 468.06164 -66.147273 
L 467.154069 -66.147273 
L 466.246497 -66.147273 
L 465.338926 -66.147273 
L 464.431354 -66.147273 
L 463.523783 -66.147273 
L 462.616211 -66.147273 
L 461.70864 -66.147273 
L 460.801068 -66.147273 
L 459.893496 -66.147273 
L 458.985925 -66.147273 
L 458.078353 -66.147273 
L 457.170782 -66.147273 
L 456.26321 -66.147273 
L 455.355639 -66.147273 
L 454.448067 -66.147273 
L 453.540496 -66.147273 
L 452.632924 -66.147273 
L 451.725353 -66.147273 
L 450.817781 -66.147273 
L 449.91021 -66.147273 
L 449.002638 -66.147273 
L 448.095067 -66.147273 
L 447.187495 -66.147273 
L 446.279924 -66.147273 
L 445.372352 -66.147273 
L 444.464781 -66.147273 
L 443.557209 -66.147273 
L 442.649638 -66.147273 
L 441.742066 -66.147273 
L 440.834494 -66.147273 
L 439.926923 -66.147273 
L 439.019351 -66.147273 
L 438.11178 -66.147273 
L 437.204208 -66.147273 
L 436.296637 -66.147273 
L 435.389065 -66.147273 
L 434.481494 -66.147273 
L 433.573922 -66.147273 
L 432.666351 -66.147273 
L 431.758779 -66.147273 
L 430.851208 -66.147273 
L 429.943636 -66.147273 
L 429.036065 -66.147273 
L 428.128493 -66.147273 
L 427.220922 -66.147273 
L 426.31335 -66.147273 
L 425.405779 -66.147273 
L 424.498207 -66.147273 
L 423.590635 -66.147273 
L 422.683064 -66.147273 
L 421.775492 -66.147273 
L 420.867921 -66.147273 
L 419.960349 -66.147273 
L 419.052778 -66.147273 
L 418.145206 -66.147273 
L 417.237635 -66.147273 
L 416.330063 -66.147273 
L 415.422492 -66.147273 
L 414.51492 -66.147273 
L 413.607349 -66.147273 
L 412.699777 -66.147273 
L 411.792206 -66.147273 
L 410.884634 -66.147273 
L 409.977063 -66.147273 
L 409.069491 -66.147273 
L 408.16192 -66.147273 
L 407.254348 -66.147273 
L 406.346777 -66.147273 
L 405.439205 -66.147273 
L 404.531633 -66.147273 
L 403.624062 -66.147273 
L 402.71649 -66.147273 
L 401.808919 -66.147273 
L 400.901347 -66.147273 
L 399.993776 -66.147273 
L 399.086204 -66.147273 
L 398.178633 -66.147273 
L 397.271061 -66.147273 
L 396.36349 -66.147273 
L 395.455918 -66.147273 
L 394.548347 -66.147273 
L 393.640775 -66.147273 
L 392.733204 -66.147273 
L 391.825632 -66.147273 
L 390.918061 -66.147273 
L 390.010489 -66.147273 
L 389.102918 -66.147273 
L 388.195346 -66.147273 
L 387.287774 -66.147273 
L 386.380203 -66.147273 
L 385.472631 -66.147273 
L 384.56506 -66.147273 
L 383.657488 -66.147273 
L 382.749917 -66.147273 
L 381.842345 -66.147273 
L 380.934774 -66.147273 
L 380.027202 -66.147273 
L 379.119631 -66.147273 
L 378.212059 -66.147273 
L 377.304488 -66.147273 
L 376.396916 -66.147273 
L 375.489345 -66.147273 
L 374.581773 -66.147273 
L 373.674202 -66.147273 
L 372.76663 -66.147273 
L 371.859059 -66.147273 
L 370.951487 -66.147273 
L 370.043915 -66.147273 
L 369.136344 -66.147273 
L 368.228772 -66.147273 
L 367.321201 -66.147273 
L 366.413629 -66.147273 
L 365.506058 -66.147273 
L 364.598486 -66.147273 
L 363.690915 -66.147273 
L 362.783343 -66.147273 
L 361.875772 -66.147273 
L 360.9682 -66.147273 
L 360.060629 -66.147273 
L 359.153057 -66.147273 
L 358.245486 -66.147273 
L 357.337914 -66.147273 
L 356.430343 -66.147273 
L 355.522771 -66.147273 
L 354.6152 -66.147273 
L 353.707628 -66.147273 
L 352.800057 -66.147273 
L 351.892485 -66.147273 
L 350.984913 -66.147273 
L 350.077342 -66.147273 
L 349.16977 -66.147273 
L 348.262199 -66.147273 
L 347.354627 -66.147273 
L 346.447056 -66.147273 
L 345.539484 -66.147273 
L 344.631913 -66.147273 
L 343.724341 -66.147273 
L 342.81677 -66.147273 
L 341.909198 -66.147273 
L 341.001627 -66.147273 
L 340.094055 -66.147273 
L 339.186484 -66.147273 
L 338.278912 -66.147273 
L 337.371341 -66.147273 
L 336.463769 -66.147273 
L 335.556198 -66.147273 
L 334.648626 -66.147273 
L 333.741054 -66.147273 
L 332.833483 -66.147273 
L 331.925911 -66.147273 
L 331.01834 -66.147273 
L 330.110768 -66.147273 
L 329.203197 -66.147273 
L 328.295625 -66.147273 
L 327.388054 -66.147273 
L 326.480482 -66.147273 
L 325.572911 -66.147273 
L 324.665339 -66.147273 
L 323.757768 -66.147273 
L 322.850196 -66.147273 
L 321.942625 -66.147273 
L 321.035053 -66.147273 
L 320.127482 -66.147273 
L 319.21991 -66.147273 
L 318.312339 -66.147273 
L 317.404767 -66.147273 
L 316.497195 -66.147273 
L 315.589624 -66.147273 
L 314.682052 -66.147273 
L 313.774481 -66.147273 
L 312.866909 -66.147273 
L 311.959338 -66.147273 
L 311.051766 -66.147273 
L 310.144195 -66.147273 
L 309.236623 -66.147273 
L 308.329052 -66.147273 
L 307.42148 -66.147273 
L 306.513909 -66.147273 
L 305.606337 -66.147273 
L 304.698766 -66.147273 
L 303.791194 -66.147273 
L 302.883623 -66.147273 
L 301.976051 -66.147273 
L 301.06848 -66.147273 
L 300.160908 -66.147273 
L 299.253337 -66.147273 
L 298.345765 -66.147273 
L 297.438193 -66.147273 
L 296.530622 -66.147273 
L 295.62305 -66.147273 
L 294.715479 -66.147273 
L 293.807907 -66.147273 
L 292.900336 -66.147273 
L 291.992764 -66.147273 
L 291.085193 -66.147273 
L 290.177621 -66.147273 
L 289.27005 -66.147273 
L 288.362478 -66.147273 
L 287.454907 -66.147273 
L 286.547335 -66.147273 
L 285.639764 -66.147273 
L 284.732192 -66.147273 
L 283.824621 -66.147273 
L 282.917049 -66.147273 
L 282.009478 -66.147273 
L 281.101906 -66.147273 
L 280.194334 -66.147273 
L 279.286763 -66.147273 
L 278.379191 -66.147273 
L 277.47162 -66.147273 
L 276.564048 -66.147273 
L 275.656477 -66.147273 
L 274.748905 -66.147273 
L 273.841334 -66.147273 
L 272.933762 -66.147273 
L 272.026191 -66.147273 
L 271.118619 -66.147273 
L 270.211048 -66.147273 
L 269.303476 -66.147273 
L 268.395905 -66.147273 
L 267.488333 -66.147273 
L 266.580762 -66.147273 
L 265.67319 -66.147273 
L 264.765619 -66.147273 
L 263.858047 -66.147273 
L 262.950476 -66.147273 
L 262.042904 -66.147273 
L 261.135332 -66.147273 
L 260.227761 -66.147273 
L 259.320189 -66.147273 
L 258.412618 -66.147273 
L 257.505046 -66.147273 
L 256.597475 -66.147273 
L 255.689903 -66.147273 
L 254.782332 -66.147273 
L 253.87476 -66.147273 
L 252.967189 -66.147273 
L 252.059617 -66.147273 
L 251.152046 -66.147273 
L 250.244474 -66.147273 
L 249.336903 -66.147273 
L 248.429331 -66.147273 
L 247.52176 -66.147273 
L 246.614188 -66.147273 
L 245.706617 -66.147273 
L 244.799045 -66.147273 
L 243.891473 -66.147273 
L 242.983902 -66.147273 
L 242.07633 -66.147273 
L 241.168759 -66.147273 
L 240.261187 -66.147273 
L 239.353616 -66.147273 
L 238.446044 -66.147273 
L 237.538473 -66.147273 
L 236.630901 -66.147273 
L 235.72333 -66.147273 
L 234.815758 -66.147273 
L 233.908187 -66.147273 
L 233.000615 -66.147273 
L 232.093044 -66.147273 
L 231.185472 -66.147273 
L 230.277901 -66.147273 
L 229.370329 -66.147273 
L 228.462758 -66.147273 
L 227.555186 -66.147273 
L 226.647614 -66.147273 
L 225.740043 -66.147273 
L 224.832471 -66.147273 
L 223.9249 -66.147273 
L 223.017328 -66.147273 
L 222.109757 -66.147273 
L 221.202185 -66.147273 
L 220.294614 -66.147273 
L 219.387042 -66.147273 
L 218.479471 -66.147273 
L 217.571899 -66.147273 
L 216.664328 -66.147273 
L 215.756756 -66.147273 
L 214.849185 -66.147273 
L 213.941613 -66.147273 
L 213.034042 -66.147273 
L 212.12647 -66.147273 
L 211.218899 -66.147273 
L 210.311327 -66.147273 
L 209.403756 -66.147273 
L 208.496184 -66.147273 
L 207.588612 -66.147273 
L 206.681041 -66.147273 
L 205.773469 -66.147273 
L 204.865898 -66.147273 
L 203.958326 -66.147273 
L 203.050755 -66.147273 
L 202.143183 -66.147273 
L 201.235612 -66.147273 
L 200.32804 -66.147273 
L 199.420469 -66.147273 
L 198.512897 -66.147273 
L 197.605326 -66.147273 
L 196.697754 -66.147273 
L 195.790183 -66.147273 
L 194.882611 -66.147273 
L 193.97504 -66.147273 
L 193.067468 -66.147273 
L 192.159897 -66.147273 
L 191.252325 -66.147273 
L 190.344753 -66.147273 
L 189.437182 -66.147273 
L 188.52961 -66.147273 
L 187.622039 -66.147273 
L 186.714467 -66.147273 
L 185.806896 -66.147273 
L 184.899324 -66.147273 
L 183.991753 -66.147273 
L 183.084181 -66.147273 
L 182.17661 -66.147273 
L 181.269038 -66.147273 
L 180.361467 -66.147273 
L 179.453895 -66.147273 
L 178.546324 -66.147273 
L 177.638752 -66.147273 
L 176.731181 -66.147273 
L 175.823609 -66.147273 
L 174.916038 -66.147273 
L 174.008466 -66.147273 
L 173.100894 -66.147273 
L 172.193323 -66.147273 
L 171.285751 -66.147273 
L 170.37818 -66.147273 
L 169.470608 -66.147273 
L 168.563037 -66.147273 
L 167.655465 -66.147273 
L 166.747894 -66.147273 
L 165.840322 -66.147273 
L 164.932751 -66.147273 
L 164.025179 -66.147273 
L 163.117608 -66.147273 
L 162.210036 -66.147273 
L 161.302465 -66.147273 
L 160.394893 -66.147273 
L 159.487322 -66.147273 
L 158.57975 -66.147273 
L 157.672179 -66.147273 
L 156.764607 -66.147273 
L 155.857036 -66.147273 
L 154.949464 -66.147273 
L 154.041892 -66.147273 
L 153.134321 -66.147273 
L 152.226749 -66.147273 
L 151.319178 -66.147273 
L 150.411606 -66.147273 
L 149.504035 -66.147273 
L 148.596463 -66.147273 
L 147.688892 -66.147273 
L 146.78132 -66.147273 
L 145.873749 -66.147273 
L 144.966177 -66.147273 
L 144.058606 -66.147273 
L 143.151034 -66.147273 
L 142.243463 -66.147273 
L 141.335891 -66.147273 
L 140.42832 -66.147273 
L 139.520748 -66.147273 
L 138.613177 -66.147273 
L 137.705605 -66.147273 
L 136.798033 -66.147273 
L 135.890462 -66.147273 
L 134.98289 -66.147273 
L 134.075319 -66.147273 
L 133.167747 -66.147273 
L 132.260176 -66.147273 
L 131.352604 -66.147273 
L 130.445033 -66.147273 
L 129.537461 -66.147273 
L 128.62989 -66.147273 
L 127.722318 -66.147273 
L 126.814747 -66.147273 
L 125.907175 -66.147273 
L 124.999604 -66.147273 
L 124.092032 -66.147273 
L 123.184461 -66.147273 
L 122.276889 -66.147273 
L 121.369318 -66.147273 
L 120.461746 -66.147273 
L 119.554174 -66.147273 
L 118.646603 -66.147273 
L 117.739031 -66.147273 
L 116.83146 -66.147273 
L 115.923888 -66.147273 
L 115.016317 -66.147273 
L 114.108745 -66.147273 
L 113.201174 -66.147273 
L 112.293602 -66.147273 
L 111.386031 -66.147273 
L 110.478459 -66.147273 
L 109.570888 -66.147273 
L 108.663316 -66.147273 
L 107.755745 -66.147273 
L 106.848173 -66.147273 
L 105.940602 -66.147273 
L 105.03303 -66.147273 
L 104.125459 -66.147273 
L 103.217887 -66.147273 
L 102.310316 -66.147273 
L 101.402744 -66.147273 
L 100.495172 -66.147273 
L 99.587601 -66.147273 
L 98.680029 -66.147273 
L 97.772458 -66.147273 
L 96.864886 -66.147273 
L 95.957315 -66.147273 
L 95.049743 -66.147273 
L 94.142172 -66.147273 
L 93.2346 -66.147273 
L 92.327029 -66.147273 
L 91.419457 -66.147273 
L 90.511886 -66.147273 
L 89.604314 -66.147273 
L 88.696743 -66.147273 
L 87.789171 -66.147273 
L 86.8816 -66.147273 
L 85.974028 -66.147273 
L 85.066457 -66.147273 
L 84.158885 -66.147273 
L 83.251313 -66.147273 
L 82.343742 -66.147273 
L 81.43617 -66.147273 
L 80.528599 -66.147273 
L 79.621027 -66.147273 
L 78.713456 -66.147273 
L 77.805884 -66.147273 
L 76.898313 -66.147273 
L 75.990741 -66.147273 
L 75.08317 -66.147273 
L 74.175598 -66.147273 
L 73.268027 -66.147273 
L 72.360455 -66.147273 
L 71.452884 -66.147273 
L 70.545312 -66.147273 
L 69.637741 -66.147273 
L 68.730169 -66.147273 
L 67.822598 -66.147273 
L 66.915026 -66.147273 
L 66.007455 -66.147273 
L 65.099883 -66.147273 
L 64.192311 -66.147273 
L 63.28474 -66.147273 
L 62.377168 -66.147273 
L 61.469597 -66.147273 
L 60.562025 -66.147273 
L 59.654454 -66.147273 
L 58.746882 -66.147273 
L 57.839311 -66.147273 
L 56.931739 -66.147273 
L 56.024168 -66.147273 
L 55.116596 -66.147273 
L 54.209025 -66.147273 
L 53.301453 -66.147273 
L 52.393882 -66.147273 
L 51.48631 -66.147273 
L 50.578739 -66.147273 
L 49.671167 -66.147273 
L 48.763596 -66.147273 
L 47.856024 -66.147273 
L 46.948452 -66.147273 
z
" style="stroke: #7570b3; stroke-opacity: 0.6; stroke-width: 0.3"/>
    </defs>
    <g clip-path="url(#p89bf2586c2)">
     <use xlink:href="#mcbf085ab36" x="0" y="432" style="fill: #7570b3; fill-opacity: 0.6; stroke: #7570b3; stroke-opacity: 0.6; stroke-width: 0.3"/>
    </g>
   </g>
   <g id="line2d_11">
    <path d="M 46.948452 361.952356 
L 50.578739 361.811504 
L 53.301453 361.507764 
L 56.024168 361.015848 
L 58.746882 360.345615 
L 62.377168 359.160406 
L 66.007455 357.721721 
L 70.545312 355.61705 
L 83.251313 349.254684 
L 92.327029 344.535303 
L 97.772458 341.369328 
L 100.495172 339.569313 
L 103.217887 337.510802 
L 105.940602 335.149135 
L 107.755745 333.379461 
L 110.478459 330.271402 
L 113.201174 326.631842 
L 115.923888 322.417633 
L 118.646603 317.674653 
L 121.369318 312.389136 
L 124.999604 304.595308 
L 128.62989 296.199311 
L 134.075319 282.851449 
L 146.78132 251.461141 
L 153.134321 236.038081 
L 156.764607 226.812307 
L 160.394893 217.122091 
L 164.932751 204.332474 
L 174.008466 178.509372 
L 181.269038 158.955742 
L 192.159897 130.366143 
L 195.790183 121.11333 
L 200.32804 110.357196 
L 203.050755 104.547629 
L 205.773469 99.230071 
L 207.588612 95.938959 
L 210.311327 91.53904 
L 212.12647 88.944879 
L 214.849185 85.51793 
L 216.664328 83.438435 
L 219.387042 80.628234 
L 223.9249 76.377657 
L 228.462758 72.392204 
L 233.000615 68.802728 
L 234.815758 67.648072 
L 236.630901 66.763193 
L 238.446044 66.23462 
L 240.261187 66.107273 
L 241.168759 66.205225 
L 242.983902 66.841062 
L 243.891473 67.333359 
L 245.706617 68.711803 
L 247.52176 70.544174 
L 249.336903 72.850534 
L 251.152046 75.564165 
L 253.87476 80.138294 
L 257.505046 86.928396 
L 262.042904 95.916407 
L 266.580762 105.061294 
L 272.933762 118.312452 
L 277.47162 128.292088 
L 283.824621 143.140091 
L 297.438193 175.899409 
L 301.06848 185.1795 
L 304.698766 195.088831 
L 308.329052 205.704424 
L 311.959338 216.967453 
L 323.757768 254.573448 
L 327.388054 265.204087 
L 331.01834 274.9578 
L 333.741054 281.606523 
L 336.463769 287.771265 
L 339.186484 293.350349 
L 341.909198 298.392931 
L 344.631913 302.98909 
L 347.354627 307.196772 
L 350.077342 311.078108 
L 353.707628 315.826661 
L 357.337914 320.252972 
L 362.783343 326.442113 
L 366.413629 330.2434 
L 370.951487 334.766276 
L 375.489345 338.979708 
L 380.027202 342.907077 
L 384.56506 346.505834 
L 388.195346 349.124845 
L 391.825632 351.476248 
L 395.455918 353.492921 
L 399.086204 355.192575 
L 402.71649 356.606644 
L 406.346777 357.750522 
L 409.977063 358.690999 
L 414.51492 359.682208 
L 422.683064 361.220389 
L 436.296637 363.675659 
L 441.742066 364.41612 
L 447.187495 364.91901 
L 454.448067 365.3164 
L 464.431354 365.643461 
L 476.229784 365.806573 
L 488.028214 365.742747 
L 498.011501 365.442113 
L 509.80993 365.069687 
L 510.717502 365.062796 
L 510.717502 365.062796 
" clip-path="url(#p89bf2586c2)" style="fill: none; stroke: #7570b3; stroke-width: 2; stroke-linecap: round"/>
   </g>
   <g id="line2d_12">
    <path d="M 133.224689 359.558073 
L 333.381738 359.558073 
" clip-path="url(#p89bf2586c2)" style="fill: none; stroke: #000000; stroke-width: 3.5"/>
   </g>
   <g id="patch_3">
    <path d="M 23.76 380.84 
L 533.905954 380.84 
" style="fill: none; stroke: #333333; stroke-width: 1.5; stroke-linejoin: miter; stroke-linecap: square"/>
   </g>
   <g id="text_6">
    <text style="font-size: 22px; font-family: 'DejaVu Serif', 'Times New Roman', serif; text-anchor: end; fill: #262626" x="133.224689" y="343.821436" transform="rotate(-0 133.224689 343.821436)">0.31 </text>
   </g>
   <g id="text_7">
    <text style="font-size: 22px; font-family: 'DejaVu Serif', 'Times New Roman', serif; text-anchor: start; fill: #262626" x="333.381738" y="343.821436" transform="rotate(-0 333.381738 343.821436)"> 0.32</text>
   </g>
   <g id="text_8">
    <text style="font-size: 22px; font-family: 'DejaVu Serif', 'Times New Roman', serif; text-anchor: middle; fill: #262626" x="233.303213" y="271.432909" transform="rotate(-0 233.303213 271.432909)">90% HDI</text>
   </g>
   <g id="text_9">
    <text style="font-size: 22px; font-family: 'DejaVu Serif', 'Times New Roman', serif; text-anchor: middle; fill: #262626" x="235.778408" y="114.066545" transform="rotate(-0 235.778408 114.066545)">mean=0.31</text>
   </g>
   <g id="text_10">
    <!-- $\sigma$ -->
    <g style="fill: #262626" transform="translate(269.872977 45.12)">
     <text>
      <tspan x="0" y="-0.671875" style="font-style: oblique; font-size: 28px; font-family: 'DejaVu Sans'; fill: #262626">σ</tspan>
     </text>
    </g>
   </g>
  </g>
 </g>
 <defs>
  <clipPath id="p89bf2586c2">
   <rect x="23.76" y="51.12" width="510.145954" height="329.72"/>
  </clipPath>
 </defs>
</svg>
