<?xml version="1.0" encoding="utf-8" standalone="no"?>
<!DOCTYPE svg PUBLIC "-//W3C//DTD SVG 1.1//EN"
  "http://www.w3.org/Graphics/SVG/1.1/DTD/svg11.dtd">
<svg xmlns:xlink="http://www.w3.org/1999/xlink" width="576pt" height="432pt" viewBox="0 0 576 432" xmlns="http://www.w3.org/2000/svg" version="1.1">
 <metadata>
  <rdf:RDF xmlns:dc="http://purl.org/dc/elements/1.1/" xmlns:cc="http://creativecommons.org/ns#" xmlns:rdf="http://www.w3.org/1999/02/22-rdf-syntax-ns#">
   <cc:Work>
    <dc:type rdf:resource="http://purl.org/dc/dcmitype/StillImage"/>
    <dc:date>2025-09-22T22:41:52.694985</dc:date>
    <dc:format>image/svg+xml</dc:format>
    <dc:creator>
     <cc:Agent>
      <dc:title>Matplotlib v3.10.0, https://matplotlib.org/</dc:title>
     </cc:Agent>
    </dc:creator>
   </cc:Work>
  </rdf:RDF>
 </metadata>
 <defs>
  <style type="text/css">*{stroke-linejoin: round; stroke-linecap: butt}</style>
 </defs>
 <g id="figure_1">
  <g id="patch_1">
   <path d="M 0 432 
L 576 432 
L 576 0 
L 0 0 
L 0 432 
z
" style="fill: none; opacity: 0"/>
  </g>
  <g id="axes_1">
   <g id="patch_2">
    <path d="M 23.76 380.84 
L 549.579698 380.84 
L 549.579698 57.42 
L 23.76 57.42 
L 23.76 380.84 
z
" style="fill: none"/>
   </g>
   <g id="matplotlib.axis_1">
    <g id="xtick_1">
     <g id="line2d_1">
      <path d="M 86.057572 380.84 
L 86.057572 57.42 
" clip-path="url(#p103e41382e)" style="fill: none; stroke: #ffffff; stroke-opacity: 0.4; stroke-linecap: round"/>
     </g>
     <g id="line2d_2">
      <defs>
       <path id="mff15dc0316" d="M 0 0 
L 0 3 
" style="stroke: #808080"/>
      </defs>
      <g>
       <use xlink:href="#mff15dc0316" x="86.057572" y="380.84" style="fill: #808080; stroke: #808080"/>
      </g>
     </g>
     <g id="text_1">
      <text style="font-size: 18px; font-family: 'DejaVu Serif', 'Times New Roman', serif; text-anchor: middle; fill: #262626" x="86.057572" y="404.517187" transform="rotate(-0 86.057572 404.517187)">−0.10</text>
     </g>
    </g>
    <g id="xtick_2">
     <g id="line2d_3">
      <path d="M 196.822376 380.84 
L 196.822376 57.42 
" clip-path="url(#p103e41382e)" style="fill: none; stroke: #ffffff; stroke-opacity: 0.4; stroke-linecap: round"/>
     </g>
     <g id="line2d_4">
      <g>
       <use xlink:href="#mff15dc0316" x="196.822376" y="380.84" style="fill: #808080; stroke: #808080"/>
      </g>
     </g>
     <g id="text_2">
      <text style="font-size: 18px; font-family: 'DejaVu Serif', 'Times New Roman', serif; text-anchor: middle; fill: #262626" x="196.822376" y="404.517187" transform="rotate(-0 196.822376 404.517187)">−0.05</text>
     </g>
    </g>
    <g id="xtick_3">
     <g id="line2d_5">
      <path d="M 307.587179 380.84 
L 307.587179 57.42 
" clip-path="url(#p103e41382e)" style="fill: none; stroke: #ffffff; stroke-opacity: 0.4; stroke-linecap: round"/>
     </g>
     <g id="line2d_6">
      <g>
       <use xlink:href="#mff15dc0316" x="307.587179" y="380.84" style="fill: #808080; stroke: #808080"/>
      </g>
     </g>
     <g id="text_3">
      <text style="font-size: 18px; font-family: 'DejaVu Serif', 'Times New Roman', serif; text-anchor: middle; fill: #262626" x="307.587179" y="404.517187" transform="rotate(-0 307.587179 404.517187)">0.00</text>
     </g>
    </g>
    <g id="xtick_4">
     <g id="line2d_7">
      <path d="M 418.351983 380.84 
L 418.351983 57.42 
" clip-path="url(#p103e41382e)" style="fill: none; stroke: #ffffff; stroke-opacity: 0.4; stroke-linecap: round"/>
     </g>
     <g id="line2d_8">
      <g>
       <use xlink:href="#mff15dc0316" x="418.351983" y="380.84" style="fill: #808080; stroke: #808080"/>
      </g>
     </g>
     <g id="text_4">
      <text style="font-size: 18px; font-family: 'DejaVu Serif', 'Times New Roman', serif; text-anchor: middle; fill: #262626" x="418.351983" y="404.517187" transform="rotate(-0 418.351983 404.517187)">0.05</text>
     </g>
    </g>
    <g id="xtick_5">
     <g id="line2d_9">
      <path d="M 529.116786 380.84 
L 529.116786 57.42 
" clip-path="url(#p103e41382e)" style="fill: none; stroke: #ffffff; stroke-opacity: 0.4; stroke-linecap: round"/>
     </g>
     <g id="line2d_10">
      <g>
       <use xlink:href="#mff15dc0316" x="529.116786" y="380.84" style="fill: #808080; stroke: #808080"/>
      </g>
     </g>
     <g id="text_5">
      <text style="font-size: 18px; font-family: 'DejaVu Serif', 'Times New Roman', serif; text-anchor: middle; fill: #262626" x="529.116786" y="404.517187" transform="rotate(-0 529.116786 404.517187)">0.10</text>
     </g>
    </g>
   </g>
   <g id="matplotlib.axis_2"/>
   <g id="FillBetweenPolyCollection_1">
    <defs>
     <path id="m56de22016b" d="M 47.660895 -65.860909 
L 47.660895 -70.403675 
L 48.596351 -70.409916 
L 49.531807 -70.407601 
L 50.467263 -70.405666 
L 51.402718 -70.404174 
L 52.338174 -70.410024 
L 53.27363 -70.420849 
L 54.209086 -70.430438 
L 55.144542 -70.43866 
L 56.079997 -70.455467 
L 57.015453 -70.469185 
L 57.950909 -70.492553 
L 58.886365 -70.511142 
L 59.821821 -70.534188 
L 60.757276 -70.564752 
L 61.692732 -70.599816 
L 62.628188 -70.639707 
L 63.563644 -70.691482 
L 64.4991 -70.740512 
L 65.434555 -70.805346 
L 66.370011 -70.871278 
L 67.305467 -70.941186 
L 68.240923 -71.018419 
L 69.176378 -71.109057 
L 70.111834 -71.209814 
L 71.04729 -71.314712 
L 71.982746 -71.429933 
L 72.918202 -71.549417 
L 73.853657 -71.672488 
L 74.789113 -71.811881 
L 75.724569 -71.952616 
L 76.660025 -72.106874 
L 77.595481 -72.262419 
L 78.530936 -72.428022 
L 79.466392 -72.600874 
L 80.401848 -72.780931 
L 81.337304 -72.968163 
L 82.272759 -73.152997 
L 83.208215 -73.36097 
L 84.143671 -73.564944 
L 85.079127 -73.785396 
L 86.014583 -74.01025 
L 86.950038 -74.239043 
L 87.885494 -74.484796 
L 88.82095 -74.730126 
L 89.756406 -74.983511 
L 90.691862 -75.251334 
L 91.627317 -75.522394 
L 92.562773 -75.816735 
L 93.498229 -76.116736 
L 94.433685 -76.431403 
L 95.36914 -76.749294 
L 96.304596 -77.089467 
L 97.240052 -77.443958 
L 98.175508 -77.810373 
L 99.110964 -78.195774 
L 100.046419 -78.588864 
L 100.981875 -79.002635 
L 101.917331 -79.431685 
L 102.852787 -79.878753 
L 103.788243 -80.357295 
L 104.723698 -80.846946 
L 105.659154 -81.356433 
L 106.59461 -81.882655 
L 107.530066 -82.44196 
L 108.465521 -83.023603 
L 109.400977 -83.617584 
L 110.336433 -84.235271 
L 111.271889 -84.876897 
L 112.207345 -85.532454 
L 113.1428 -86.21339 
L 114.078256 -86.899774 
L 115.013712 -87.648697 
L 115.949168 -88.371814 
L 116.884624 -89.129836 
L 117.820079 -89.897572 
L 118.755535 -90.681831 
L 119.690991 -91.478387 
L 120.626447 -92.275538 
L 121.561903 -93.0892 
L 122.497358 -93.912816 
L 123.432814 -94.748858 
L 124.36827 -95.57757 
L 125.303726 -96.415757 
L 126.239181 -97.245725 
L 127.174637 -98.070132 
L 128.110093 -98.900237 
L 129.045549 -99.729869 
L 129.981005 -100.565415 
L 130.91646 -101.391278 
L 131.851916 -102.22665 
L 132.787372 -103.05447 
L 133.722828 -103.866917 
L 134.658284 -104.685244 
L 135.593739 -105.497724 
L 136.529195 -106.313988 
L 137.464651 -107.11734 
L 138.400107 -107.940119 
L 139.335562 -108.749337 
L 140.271018 -109.563651 
L 141.206474 -110.379834 
L 142.14193 -111.196815 
L 143.077386 -112.048219 
L 144.012841 -112.909883 
L 144.948297 -113.767447 
L 145.883753 -114.656437 
L 146.819209 -115.551993 
L 147.754665 -116.480816 
L 148.69012 -117.419482 
L 149.625576 -118.387737 
L 150.561032 -119.392191 
L 151.496488 -120.409729 
L 152.431943 -121.463609 
L 153.367399 -122.563275 
L 154.302855 -123.695954 
L 155.238311 -124.856249 
L 156.173767 -126.062225 
L 157.109222 -127.303125 
L 158.044678 -128.559151 
L 158.980134 -129.876889 
L 159.91559 -131.24107 
L 160.851046 -132.625877 
L 161.786501 -134.074189 
L 162.721957 -135.565848 
L 163.657413 -137.082142 
L 164.592869 -138.63996 
L 165.528324 -140.218563 
L 166.46378 -141.840209 
L 167.399236 -143.484206 
L 168.334692 -145.157372 
L 169.270148 -146.867609 
L 170.205603 -148.6419 
L 171.141059 -150.417263 
L 172.076515 -152.191574 
L 173.011971 -154.015444 
L 173.947427 -155.874684 
L 174.882882 -157.744263 
L 175.818338 -159.619111 
L 176.753794 -161.520071 
L 177.68925 -163.417942 
L 178.624705 -165.332497 
L 179.560161 -167.274359 
L 180.495617 -169.226192 
L 181.431073 -171.17838 
L 182.366529 -173.168774 
L 183.301984 -175.177524 
L 184.23744 -177.205104 
L 185.172896 -179.249555 
L 186.108352 -181.289388 
L 187.043808 -183.360664 
L 187.979263 -185.453985 
L 188.914719 -187.563832 
L 189.850175 -189.686785 
L 190.785631 -191.822599 
L 191.721087 -193.986453 
L 192.656542 -196.176294 
L 193.591998 -198.380835 
L 194.527454 -200.624083 
L 195.46291 -202.868909 
L 196.398365 -205.129883 
L 197.333821 -207.438483 
L 198.269277 -209.777226 
L 199.204733 -212.118713 
L 200.140189 -214.510087 
L 201.075644 -216.932126 
L 202.0111 -219.365244 
L 202.946556 -221.841814 
L 203.882012 -224.297189 
L 204.817468 -226.804826 
L 205.752923 -229.333736 
L 206.688379 -231.8879 
L 207.623835 -234.485691 
L 208.559291 -237.080521 
L 209.494746 -239.721394 
L 210.430202 -242.395428 
L 211.365658 -245.056166 
L 212.301114 -247.757746 
L 213.23657 -250.479007 
L 214.172025 -253.163839 
L 215.107481 -255.889392 
L 216.042937 -258.60978 
L 216.978393 -261.331828 
L 217.913849 -264.041521 
L 218.849304 -266.765818 
L 219.78476 -269.474859 
L 220.720216 -272.154253 
L 221.655672 -274.851347 
L 222.591127 -277.523919 
L 223.526583 -280.172513 
L 224.462039 -282.813608 
L 225.397495 -285.450468 
L 226.332951 -288.043714 
L 227.268406 -290.604879 
L 228.203862 -293.157006 
L 229.139318 -295.656054 
L 230.074774 -298.097203 
L 231.01023 -300.486758 
L 231.945685 -302.857469 
L 232.881141 -305.188355 
L 233.816597 -307.497696 
L 234.752053 -309.744488 
L 235.687508 -311.924474 
L 236.622964 -314.062749 
L 237.55842 -316.175661 
L 238.493876 -318.212477 
L 239.429332 -320.204217 
L 240.364787 -322.133229 
L 241.300243 -324.016404 
L 242.235699 -325.804537 
L 243.171155 -327.543657 
L 244.106611 -329.259302 
L 245.042066 -330.882212 
L 245.977522 -332.446016 
L 246.912978 -334.023706 
L 247.848434 -335.504264 
L 248.78389 -336.912636 
L 249.719345 -338.269642 
L 250.654801 -339.547687 
L 251.590257 -340.770405 
L 252.525713 -341.963876 
L 253.461168 -343.095349 
L 254.396624 -344.16523 
L 255.33208 -345.202921 
L 256.267536 -346.211152 
L 257.202992 -347.161797 
L 258.138447 -348.02335 
L 259.073903 -348.804133 
L 260.009359 -349.591835 
L 260.944815 -350.359224 
L 261.880271 -351.08758 
L 262.815726 -351.755263 
L 263.751182 -352.409014 
L 264.686638 -353.051095 
L 265.622094 -353.634145 
L 266.557549 -354.209498 
L 267.493005 -354.758488 
L 268.428461 -355.250898 
L 269.363917 -355.727718 
L 270.299373 -356.182872 
L 271.234828 -356.616664 
L 272.170284 -357.043436 
L 273.10574 -357.418296 
L 274.041196 -357.764315 
L 274.976652 -358.119679 
L 275.912107 -358.410971 
L 276.847563 -358.680013 
L 277.783019 -358.929009 
L 278.718475 -359.186313 
L 279.65393 -359.385498 
L 280.589386 -359.556368 
L 281.524842 -359.689921 
L 282.460298 -359.799998 
L 283.395754 -359.839527 
L 284.331209 -359.879091 
L 285.266665 -359.874985 
L 286.202121 -359.817962 
L 287.137577 -359.700087 
L 288.073033 -359.581378 
L 289.008488 -359.387507 
L 289.943944 -359.159433 
L 290.8794 -358.912042 
L 291.814856 -358.601817 
L 292.750311 -358.244393 
L 293.685767 -357.869056 
L 294.621223 -357.438924 
L 295.556679 -356.971717 
L 296.492135 -356.435685 
L 297.42759 -355.85548 
L 298.363046 -355.239932 
L 299.298502 -354.564886 
L 300.233958 -353.905314 
L 301.169414 -353.164671 
L 302.104869 -352.422637 
L 303.040325 -351.666498 
L 303.975781 -350.858229 
L 304.911237 -350.042704 
L 305.846692 -349.186443 
L 306.782148 -348.289205 
L 307.717604 -347.35319 
L 308.65306 -346.43566 
L 309.588516 -345.501101 
L 310.523971 -344.544962 
L 311.459427 -343.594462 
L 312.394883 -342.628166 
L 313.330339 -341.636171 
L 314.265795 -340.635984 
L 315.20125 -339.636869 
L 316.136706 -338.633112 
L 317.072162 -337.607335 
L 318.007618 -336.579844 
L 318.943074 -335.57476 
L 319.878529 -334.555385 
L 320.813985 -333.469775 
L 321.749441 -332.376328 
L 322.684897 -331.263063 
L 323.620352 -330.15242 
L 324.555808 -329.02483 
L 325.491264 -327.870124 
L 326.42672 -326.674146 
L 327.362176 -325.456346 
L 328.297631 -324.17785 
L 329.233087 -322.8927 
L 330.168543 -321.533911 
L 331.103999 -320.17134 
L 332.039455 -318.716992 
L 332.97491 -317.191521 
L 333.910366 -315.642202 
L 334.845822 -314.00896 
L 335.781278 -312.270337 
L 336.716733 -310.486595 
L 337.652189 -308.666405 
L 338.587645 -306.789867 
L 339.523101 -304.850883 
L 340.458557 -302.851357 
L 341.394012 -300.797548 
L 342.329468 -298.670103 
L 343.264924 -296.512822 
L 344.20038 -294.282591 
L 345.135836 -292.016231 
L 346.071291 -289.708556 
L 347.006747 -287.421308 
L 347.942203 -285.097214 
L 348.877659 -282.730646 
L 349.813114 -280.315943 
L 350.74857 -277.887253 
L 351.684026 -275.469002 
L 352.619482 -273.046617 
L 353.554938 -270.635118 
L 354.490393 -268.252267 
L 355.425849 -265.883549 
L 356.361305 -263.520872 
L 357.296761 -261.182047 
L 358.232217 -258.853094 
L 359.167672 -256.569292 
L 360.103128 -254.279858 
L 361.038584 -252.018391 
L 361.97404 -249.833803 
L 362.909495 -247.667703 
L 363.844951 -245.527326 
L 364.780407 -243.439178 
L 365.715863 -241.361088 
L 366.651319 -239.314447 
L 367.586774 -237.274847 
L 368.52223 -235.281595 
L 369.457686 -233.310989 
L 370.393142 -231.3617 
L 371.328598 -229.464498 
L 372.264053 -227.570394 
L 373.199509 -225.680329 
L 374.134965 -223.807275 
L 375.070421 -221.927686 
L 376.005876 -220.088207 
L 376.941332 -218.235879 
L 377.876788 -216.385563 
L 378.812244 -214.533975 
L 379.7477 -212.674881 
L 380.683155 -210.824066 
L 381.618611 -208.993866 
L 382.554067 -207.132493 
L 383.489523 -205.267414 
L 384.424979 -203.388136 
L 385.360434 -201.523775 
L 386.29589 -199.668382 
L 387.231346 -197.781755 
L 388.166802 -195.887093 
L 389.102258 -193.963997 
L 390.037713 -192.064709 
L 390.973169 -190.138071 
L 391.908625 -188.243151 
L 392.844081 -186.327181 
L 393.779536 -184.397633 
L 394.714992 -182.467902 
L 395.650448 -180.56077 
L 396.585904 -178.636966 
L 397.52136 -176.698082 
L 398.456815 -174.761775 
L 399.392271 -172.830688 
L 400.327727 -170.904163 
L 401.263183 -168.988572 
L 402.198639 -167.087693 
L 403.134094 -165.179402 
L 404.06955 -163.301241 
L 405.005006 -161.425809 
L 405.940462 -159.579211 
L 406.875917 -157.762146 
L 407.811373 -155.941321 
L 408.746829 -154.152434 
L 409.682285 -152.379144 
L 410.617741 -150.627958 
L 411.553196 -148.892104 
L 412.488652 -147.178614 
L 413.424108 -145.504121 
L 414.359564 -143.842528 
L 415.29502 -142.205312 
L 416.230475 -140.60056 
L 417.165931 -139.033641 
L 418.101387 -137.477871 
L 419.036843 -135.961214 
L 419.972298 -134.459862 
L 420.907754 -133.011836 
L 421.84321 -131.584818 
L 422.778666 -130.180038 
L 423.714122 -128.827276 
L 424.649577 -127.492113 
L 425.585033 -126.186765 
L 426.520489 -124.896018 
L 427.455945 -123.638264 
L 428.391401 -122.406758 
L 429.326856 -121.204216 
L 430.262312 -120.00385 
L 431.197768 -118.86378 
L 432.133224 -117.735328 
L 433.068679 -116.624531 
L 434.004135 -115.519364 
L 434.939591 -114.455204 
L 435.875047 -113.388752 
L 436.810503 -112.353834 
L 437.745958 -111.332366 
L 438.681414 -110.341867 
L 439.61687 -109.359897 
L 440.552326 -108.384232 
L 441.487782 -107.426278 
L 442.423237 -106.464164 
L 443.358693 -105.506954 
L 444.294149 -104.562974 
L 445.229605 -103.636788 
L 446.165061 -102.720485 
L 447.100516 -101.818069 
L 448.035972 -100.903536 
L 448.971428 -100.013415 
L 449.906884 -99.118814 
L 450.842339 -98.227921 
L 451.777795 -97.352601 
L 452.713251 -96.477167 
L 453.648707 -95.615086 
L 454.584163 -94.763202 
L 455.519618 -93.915783 
L 456.455074 -93.06892 
L 457.39053 -92.253502 
L 458.325986 -91.433511 
L 459.261442 -90.620754 
L 460.196897 -89.806222 
L 461.132353 -89.04088 
L 462.067809 -88.28331 
L 463.003265 -87.535883 
L 463.93872 -86.817247 
L 464.874176 -86.109434 
L 465.809632 -85.414455 
L 466.745088 -84.747789 
L 467.680544 -84.099845 
L 468.615999 -83.468266 
L 469.551455 -82.862096 
L 470.486911 -82.26428 
L 471.422367 -81.696258 
L 472.357823 -81.144238 
L 473.293278 -80.619434 
L 474.228734 -80.100315 
L 475.16419 -79.605119 
L 476.099646 -79.126328 
L 477.035101 -78.665895 
L 477.970557 -78.222423 
L 478.906013 -77.783502 
L 479.841469 -77.360997 
L 480.776925 -76.942891 
L 481.71238 -76.549829 
L 482.647836 -76.167566 
L 483.583292 -75.798273 
L 484.518748 -75.432001 
L 485.454204 -75.07714 
L 486.389659 -74.7272 
L 487.325115 -74.390756 
L 488.260571 -74.049933 
L 489.196027 -73.726224 
L 490.131482 -73.406763 
L 491.066938 -73.097765 
L 492.002394 -72.796091 
L 492.93785 -72.504821 
L 493.873306 -72.224433 
L 494.808761 -71.946629 
L 495.744217 -71.672466 
L 496.679673 -71.411734 
L 497.615129 -71.161418 
L 498.550585 -70.930196 
L 499.48604 -70.705812 
L 500.421496 -70.492165 
L 501.356952 -70.281398 
L 502.292408 -70.086498 
L 503.227863 -69.901412 
L 504.163319 -69.734998 
L 505.098775 -69.58332 
L 506.034231 -69.44031 
L 506.969687 -69.318152 
L 507.905142 -69.201231 
L 508.840598 -69.098226 
L 509.776054 -69.005494 
L 510.71151 -68.926059 
L 511.646966 -68.853411 
L 512.582421 -68.784227 
L 513.517877 -68.730605 
L 514.453333 -68.682331 
L 515.388789 -68.644129 
L 516.324245 -68.612506 
L 517.2597 -68.583955 
L 518.195156 -68.557627 
L 519.130612 -68.544907 
L 520.066068 -68.529524 
L 521.001523 -68.516896 
L 521.936979 -68.509097 
L 522.872435 -68.509 
L 523.807891 -68.504701 
L 524.743347 -68.505411 
L 525.678802 -68.498702 
L 525.678802 -65.860909 
L 525.678802 -65.860909 
L 524.743347 -65.860909 
L 523.807891 -65.860909 
L 522.872435 -65.860909 
L 521.936979 -65.860909 
L 521.001523 -65.860909 
L 520.066068 -65.860909 
L 519.130612 -65.860909 
L 518.195156 -65.860909 
L 517.2597 -65.860909 
L 516.324245 -65.860909 
L 515.388789 -65.860909 
L 514.453333 -65.860909 
L 513.517877 -65.860909 
L 512.582421 -65.860909 
L 511.646966 -65.860909 
L 510.71151 -65.860909 
L 509.776054 -65.860909 
L 508.840598 -65.860909 
L 507.905142 -65.860909 
L 506.969687 -65.860909 
L 506.034231 -65.860909 
L 505.098775 -65.860909 
L 504.163319 -65.860909 
L 503.227863 -65.860909 
L 502.292408 -65.860909 
L 501.356952 -65.860909 
L 500.421496 -65.860909 
L 499.48604 -65.860909 
L 498.550585 -65.860909 
L 497.615129 -65.860909 
L 496.679673 -65.860909 
L 495.744217 -65.860909 
L 494.808761 -65.860909 
L 493.873306 -65.860909 
L 492.93785 -65.860909 
L 492.002394 -65.860909 
L 491.066938 -65.860909 
L 490.131482 -65.860909 
L 489.196027 -65.860909 
L 488.260571 -65.860909 
L 487.325115 -65.860909 
L 486.389659 -65.860909 
L 485.454204 -65.860909 
L 484.518748 -65.860909 
L 483.583292 -65.860909 
L 482.647836 -65.860909 
L 481.71238 -65.860909 
L 480.776925 -65.860909 
L 479.841469 -65.860909 
L 478.906013 -65.860909 
L 477.970557 -65.860909 
L 477.035101 -65.860909 
L 476.099646 -65.860909 
L 475.16419 -65.860909 
L 474.228734 -65.860909 
L 473.293278 -65.860909 
L 472.357823 -65.860909 
L 471.422367 -65.860909 
L 470.486911 -65.860909 
L 469.551455 -65.860909 
L 468.615999 -65.860909 
L 467.680544 -65.860909 
L 466.745088 -65.860909 
L 465.809632 -65.860909 
L 464.874176 -65.860909 
L 463.93872 -65.860909 
L 463.003265 -65.860909 
L 462.067809 -65.860909 
L 461.132353 -65.860909 
L 460.196897 -65.860909 
L 459.261442 -65.860909 
L 458.325986 -65.860909 
L 457.39053 -65.860909 
L 456.455074 -65.860909 
L 455.519618 -65.860909 
L 454.584163 -65.860909 
L 453.648707 -65.860909 
L 452.713251 -65.860909 
L 451.777795 -65.860909 
L 450.842339 -65.860909 
L 449.906884 -65.860909 
L 448.971428 -65.860909 
L 448.035972 -65.860909 
L 447.100516 -65.860909 
L 446.165061 -65.860909 
L 445.229605 -65.860909 
L 444.294149 -65.860909 
L 443.358693 -65.860909 
L 442.423237 -65.860909 
L 441.487782 -65.860909 
L 440.552326 -65.860909 
L 439.61687 -65.860909 
L 438.681414 -65.860909 
L 437.745958 -65.860909 
L 436.810503 -65.860909 
L 435.875047 -65.860909 
L 434.939591 -65.860909 
L 434.004135 -65.860909 
L 433.068679 -65.860909 
L 432.133224 -65.860909 
L 431.197768 -65.860909 
L 430.262312 -65.860909 
L 429.326856 -65.860909 
L 428.391401 -65.860909 
L 427.455945 -65.860909 
L 426.520489 -65.860909 
L 425.585033 -65.860909 
L 424.649577 -65.860909 
L 423.714122 -65.860909 
L 422.778666 -65.860909 
L 421.84321 -65.860909 
L 420.907754 -65.860909 
L 419.972298 -65.860909 
L 419.036843 -65.860909 
L 418.101387 -65.860909 
L 417.165931 -65.860909 
L 416.230475 -65.860909 
L 415.29502 -65.860909 
L 414.359564 -65.860909 
L 413.424108 -65.860909 
L 412.488652 -65.860909 
L 411.553196 -65.860909 
L 410.617741 -65.860909 
L 409.682285 -65.860909 
L 408.746829 -65.860909 
L 407.811373 -65.860909 
L 406.875917 -65.860909 
L 405.940462 -65.860909 
L 405.005006 -65.860909 
L 404.06955 -65.860909 
L 403.134094 -65.860909 
L 402.198639 -65.860909 
L 401.263183 -65.860909 
L 400.327727 -65.860909 
L 399.392271 -65.860909 
L 398.456815 -65.860909 
L 397.52136 -65.860909 
L 396.585904 -65.860909 
L 395.650448 -65.860909 
L 394.714992 -65.860909 
L 393.779536 -65.860909 
L 392.844081 -65.860909 
L 391.908625 -65.860909 
L 390.973169 -65.860909 
L 390.037713 -65.860909 
L 389.102258 -65.860909 
L 388.166802 -65.860909 
L 387.231346 -65.860909 
L 386.29589 -65.860909 
L 385.360434 -65.860909 
L 384.424979 -65.860909 
L 383.489523 -65.860909 
L 382.554067 -65.860909 
L 381.618611 -65.860909 
L 380.683155 -65.860909 
L 379.7477 -65.860909 
L 378.812244 -65.860909 
L 377.876788 -65.860909 
L 376.941332 -65.860909 
L 376.005876 -65.860909 
L 375.070421 -65.860909 
L 374.134965 -65.860909 
L 373.199509 -65.860909 
L 372.264053 -65.860909 
L 371.328598 -65.860909 
L 370.393142 -65.860909 
L 369.457686 -65.860909 
L 368.52223 -65.860909 
L 367.586774 -65.860909 
L 366.651319 -65.860909 
L 365.715863 -65.860909 
L 364.780407 -65.860909 
L 363.844951 -65.860909 
L 362.909495 -65.860909 
L 361.97404 -65.860909 
L 361.038584 -65.860909 
L 360.103128 -65.860909 
L 359.167672 -65.860909 
L 358.232217 -65.860909 
L 357.296761 -65.860909 
L 356.361305 -65.860909 
L 355.425849 -65.860909 
L 354.490393 -65.860909 
L 353.554938 -65.860909 
L 352.619482 -65.860909 
L 351.684026 -65.860909 
L 350.74857 -65.860909 
L 349.813114 -65.860909 
L 348.877659 -65.860909 
L 347.942203 -65.860909 
L 347.006747 -65.860909 
L 346.071291 -65.860909 
L 345.135836 -65.860909 
L 344.20038 -65.860909 
L 343.264924 -65.860909 
L 342.329468 -65.860909 
L 341.394012 -65.860909 
L 340.458557 -65.860909 
L 339.523101 -65.860909 
L 338.587645 -65.860909 
L 337.652189 -65.860909 
L 336.716733 -65.860909 
L 335.781278 -65.860909 
L 334.845822 -65.860909 
L 333.910366 -65.860909 
L 332.97491 -65.860909 
L 332.039455 -65.860909 
L 331.103999 -65.860909 
L 330.168543 -65.860909 
L 329.233087 -65.860909 
L 328.297631 -65.860909 
L 327.362176 -65.860909 
L 326.42672 -65.860909 
L 325.491264 -65.860909 
L 324.555808 -65.860909 
L 323.620352 -65.860909 
L 322.684897 -65.860909 
L 321.749441 -65.860909 
L 320.813985 -65.860909 
L 319.878529 -65.860909 
L 318.943074 -65.860909 
L 318.007618 -65.860909 
L 317.072162 -65.860909 
L 316.136706 -65.860909 
L 315.20125 -65.860909 
L 314.265795 -65.860909 
L 313.330339 -65.860909 
L 312.394883 -65.860909 
L 311.459427 -65.860909 
L 310.523971 -65.860909 
L 309.588516 -65.860909 
L 308.65306 -65.860909 
L 307.717604 -65.860909 
L 306.782148 -65.860909 
L 305.846692 -65.860909 
L 304.911237 -65.860909 
L 303.975781 -65.860909 
L 303.040325 -65.860909 
L 302.104869 -65.860909 
L 301.169414 -65.860909 
L 300.233958 -65.860909 
L 299.298502 -65.860909 
L 298.363046 -65.860909 
L 297.42759 -65.860909 
L 296.492135 -65.860909 
L 295.556679 -65.860909 
L 294.621223 -65.860909 
L 293.685767 -65.860909 
L 292.750311 -65.860909 
L 291.814856 -65.860909 
L 290.8794 -65.860909 
L 289.943944 -65.860909 
L 289.008488 -65.860909 
L 288.073033 -65.860909 
L 287.137577 -65.860909 
L 286.202121 -65.860909 
L 285.266665 -65.860909 
L 284.331209 -65.860909 
L 283.395754 -65.860909 
L 282.460298 -65.860909 
L 281.524842 -65.860909 
L 280.589386 -65.860909 
L 279.65393 -65.860909 
L 278.718475 -65.860909 
L 277.783019 -65.860909 
L 276.847563 -65.860909 
L 275.912107 -65.860909 
L 274.976652 -65.860909 
L 274.041196 -65.860909 
L 273.10574 -65.860909 
L 272.170284 -65.860909 
L 271.234828 -65.860909 
L 270.299373 -65.860909 
L 269.363917 -65.860909 
L 268.428461 -65.860909 
L 267.493005 -65.860909 
L 266.557549 -65.860909 
L 265.622094 -65.860909 
L 264.686638 -65.860909 
L 263.751182 -65.860909 
L 262.815726 -65.860909 
L 261.880271 -65.860909 
L 260.944815 -65.860909 
L 260.009359 -65.860909 
L 259.073903 -65.860909 
L 258.138447 -65.860909 
L 257.202992 -65.860909 
L 256.267536 -65.860909 
L 255.33208 -65.860909 
L 254.396624 -65.860909 
L 253.461168 -65.860909 
L 252.525713 -65.860909 
L 251.590257 -65.860909 
L 250.654801 -65.860909 
L 249.719345 -65.860909 
L 248.78389 -65.860909 
L 247.848434 -65.860909 
L 246.912978 -65.860909 
L 245.977522 -65.860909 
L 245.042066 -65.860909 
L 244.106611 -65.860909 
L 243.171155 -65.860909 
L 242.235699 -65.860909 
L 241.300243 -65.860909 
L 240.364787 -65.860909 
L 239.429332 -65.860909 
L 238.493876 -65.860909 
L 237.55842 -65.860909 
L 236.622964 -65.860909 
L 235.687508 -65.860909 
L 234.752053 -65.860909 
L 233.816597 -65.860909 
L 232.881141 -65.860909 
L 231.945685 -65.860909 
L 231.01023 -65.860909 
L 230.074774 -65.860909 
L 229.139318 -65.860909 
L 228.203862 -65.860909 
L 227.268406 -65.860909 
L 226.332951 -65.860909 
L 225.397495 -65.860909 
L 224.462039 -65.860909 
L 223.526583 -65.860909 
L 222.591127 -65.860909 
L 221.655672 -65.860909 
L 220.720216 -65.860909 
L 219.78476 -65.860909 
L 218.849304 -65.860909 
L 217.913849 -65.860909 
L 216.978393 -65.860909 
L 216.042937 -65.860909 
L 215.107481 -65.860909 
L 214.172025 -65.860909 
L 213.23657 -65.860909 
L 212.301114 -65.860909 
L 211.365658 -65.860909 
L 210.430202 -65.860909 
L 209.494746 -65.860909 
L 208.559291 -65.860909 
L 207.623835 -65.860909 
L 206.688379 -65.860909 
L 205.752923 -65.860909 
L 204.817468 -65.860909 
L 203.882012 -65.860909 
L 202.946556 -65.860909 
L 202.0111 -65.860909 
L 201.075644 -65.860909 
L 200.140189 -65.860909 
L 199.204733 -65.860909 
L 198.269277 -65.860909 
L 197.333821 -65.860909 
L 196.398365 -65.860909 
L 195.46291 -65.860909 
L 194.527454 -65.860909 
L 193.591998 -65.860909 
L 192.656542 -65.860909 
L 191.721087 -65.860909 
L 190.785631 -65.860909 
L 189.850175 -65.860909 
L 188.914719 -65.860909 
L 187.979263 -65.860909 
L 187.043808 -65.860909 
L 186.108352 -65.860909 
L 185.172896 -65.860909 
L 184.23744 -65.860909 
L 183.301984 -65.860909 
L 182.366529 -65.860909 
L 181.431073 -65.860909 
L 180.495617 -65.860909 
L 179.560161 -65.860909 
L 178.624705 -65.860909 
L 177.68925 -65.860909 
L 176.753794 -65.860909 
L 175.818338 -65.860909 
L 174.882882 -65.860909 
L 173.947427 -65.860909 
L 173.011971 -65.860909 
L 172.076515 -65.860909 
L 171.141059 -65.860909 
L 170.205603 -65.860909 
L 169.270148 -65.860909 
L 168.334692 -65.860909 
L 167.399236 -65.860909 
L 166.46378 -65.860909 
L 165.528324 -65.860909 
L 164.592869 -65.860909 
L 163.657413 -65.860909 
L 162.721957 -65.860909 
L 161.786501 -65.860909 
L 160.851046 -65.860909 
L 159.91559 -65.860909 
L 158.980134 -65.860909 
L 158.044678 -65.860909 
L 157.109222 -65.860909 
L 156.173767 -65.860909 
L 155.238311 -65.860909 
L 154.302855 -65.860909 
L 153.367399 -65.860909 
L 152.431943 -65.860909 
L 151.496488 -65.860909 
L 150.561032 -65.860909 
L 149.625576 -65.860909 
L 148.69012 -65.860909 
L 147.754665 -65.860909 
L 146.819209 -65.860909 
L 145.883753 -65.860909 
L 144.948297 -65.860909 
L 144.012841 -65.860909 
L 143.077386 -65.860909 
L 142.14193 -65.860909 
L 141.206474 -65.860909 
L 140.271018 -65.860909 
L 139.335562 -65.860909 
L 138.400107 -65.860909 
L 137.464651 -65.860909 
L 136.529195 -65.860909 
L 135.593739 -65.860909 
L 134.658284 -65.860909 
L 133.722828 -65.860909 
L 132.787372 -65.860909 
L 131.851916 -65.860909 
L 130.91646 -65.860909 
L 129.981005 -65.860909 
L 129.045549 -65.860909 
L 128.110093 -65.860909 
L 127.174637 -65.860909 
L 126.239181 -65.860909 
L 125.303726 -65.860909 
L 124.36827 -65.860909 
L 123.432814 -65.860909 
L 122.497358 -65.860909 
L 121.561903 -65.860909 
L 120.626447 -65.860909 
L 119.690991 -65.860909 
L 118.755535 -65.860909 
L 117.820079 -65.860909 
L 116.884624 -65.860909 
L 115.949168 -65.860909 
L 115.013712 -65.860909 
L 114.078256 -65.860909 
L 113.1428 -65.860909 
L 112.207345 -65.860909 
L 111.271889 -65.860909 
L 110.336433 -65.860909 
L 109.400977 -65.860909 
L 108.465521 -65.860909 
L 107.530066 -65.860909 
L 106.59461 -65.860909 
L 105.659154 -65.860909 
L 104.723698 -65.860909 
L 103.788243 -65.860909 
L 102.852787 -65.860909 
L 101.917331 -65.860909 
L 100.981875 -65.860909 
L 100.046419 -65.860909 
L 99.110964 -65.860909 
L 98.175508 -65.860909 
L 97.240052 -65.860909 
L 96.304596 -65.860909 
L 95.36914 -65.860909 
L 94.433685 -65.860909 
L 93.498229 -65.860909 
L 92.562773 -65.860909 
L 91.627317 -65.860909 
L 90.691862 -65.860909 
L 89.756406 -65.860909 
L 88.82095 -65.860909 
L 87.885494 -65.860909 
L 86.950038 -65.860909 
L 86.014583 -65.860909 
L 85.079127 -65.860909 
L 84.143671 -65.860909 
L 83.208215 -65.860909 
L 82.272759 -65.860909 
L 81.337304 -65.860909 
L 80.401848 -65.860909 
L 79.466392 -65.860909 
L 78.530936 -65.860909 
L 77.595481 -65.860909 
L 76.660025 -65.860909 
L 75.724569 -65.860909 
L 74.789113 -65.860909 
L 73.853657 -65.860909 
L 72.918202 -65.860909 
L 71.982746 -65.860909 
L 71.04729 -65.860909 
L 70.111834 -65.860909 
L 69.176378 -65.860909 
L 68.240923 -65.860909 
L 67.305467 -65.860909 
L 66.370011 -65.860909 
L 65.434555 -65.860909 
L 64.4991 -65.860909 
L 63.563644 -65.860909 
L 62.628188 -65.860909 
L 61.692732 -65.860909 
L 60.757276 -65.860909 
L 59.821821 -65.860909 
L 58.886365 -65.860909 
L 57.950909 -65.860909 
L 57.015453 -65.860909 
L 56.079997 -65.860909 
L 55.144542 -65.860909 
L 54.209086 -65.860909 
L 53.27363 -65.860909 
L 52.338174 -65.860909 
L 51.402718 -65.860909 
L 50.467263 -65.860909 
L 49.531807 -65.860909 
L 48.596351 -65.860909 
L 47.660895 -65.860909 
z
" style="stroke: #7570b3; stroke-opacity: 0.6; stroke-width: 0.3"/>
    </defs>
    <g clip-path="url(#p103e41382e)">
     <use xlink:href="#m56de22016b" x="0" y="432" style="fill: #7570b3; fill-opacity: 0.6; stroke: #7570b3; stroke-opacity: 0.6; stroke-width: 0.3"/>
    </g>
   </g>
   <g id="line2d_11">
    <path d="M 47.660895 361.596325 
L 61.692732 361.400184 
L 67.305467 361.058814 
L 71.982746 360.570067 
L 76.660025 359.893126 
L 81.337304 359.031837 
L 85.079127 358.214604 
L 89.756406 357.016489 
L 94.433685 355.568597 
L 98.175508 354.189627 
L 101.917331 352.568315 
L 104.723698 351.153054 
L 107.530066 349.55804 
L 111.271889 347.123103 
L 114.078256 345.100226 
L 120.626447 339.724462 
L 129.045549 332.270131 
L 138.400107 324.059881 
L 144.012841 319.090117 
L 147.754665 315.519184 
L 150.561032 312.607809 
L 153.367399 309.436725 
L 156.173767 305.937775 
L 158.980134 302.123111 
L 161.786501 297.925811 
L 165.528324 291.781437 
L 169.270148 285.132391 
L 174.882882 274.255737 
L 180.495617 262.773808 
L 184.23744 254.794896 
L 189.850175 242.313215 
L 194.527454 231.375917 
L 199.204733 219.881287 
L 203.882012 207.702811 
L 208.559291 194.919479 
L 215.107481 176.110608 
L 224.462039 149.186392 
L 228.203862 138.842994 
L 231.945685 129.142531 
L 235.687508 120.075526 
L 239.429332 111.795783 
L 242.235699 106.195463 
L 245.042066 101.117788 
L 247.848434 96.495736 
L 250.654801 92.452313 
L 253.461168 88.904651 
L 256.267536 85.788848 
L 258.138447 83.97665 
L 261.880271 80.91242 
L 265.622094 78.365855 
L 268.428461 76.749102 
L 272.170284 74.956564 
L 274.976652 73.880321 
L 278.718475 72.813687 
L 281.524842 72.310079 
L 283.395754 72.160473 
L 285.266665 72.125015 
L 287.137577 72.299913 
L 289.008488 72.612493 
L 291.814856 73.398183 
L 294.621223 74.561076 
L 296.492135 75.564315 
L 299.298502 77.435114 
L 301.169414 78.835329 
L 303.975781 81.141771 
L 306.782148 83.710795 
L 313.330339 90.363829 
L 319.878529 97.444615 
L 324.555808 102.97517 
L 327.362176 106.543654 
L 331.103999 111.82866 
L 333.910366 116.357798 
L 335.781278 119.729663 
L 338.587645 125.210133 
L 341.394012 131.202452 
L 345.135836 139.983769 
L 350.74857 154.112747 
L 357.296761 170.817953 
L 361.97404 182.166197 
L 365.715863 190.638912 
L 370.393142 200.6383 
L 378.812244 217.466025 
L 390.973169 241.861929 
L 398.456815 257.238225 
L 405.005006 270.574191 
L 409.682285 279.620856 
L 414.359564 288.157472 
L 418.101387 294.522129 
L 421.84321 300.415182 
L 424.649577 304.507887 
L 428.391401 309.593242 
L 432.133224 314.264672 
L 435.875047 318.611248 
L 439.61687 322.640103 
L 445.229605 328.363212 
L 451.777795 334.647399 
L 456.455074 338.93108 
L 462.067809 343.71669 
L 465.809632 346.585545 
L 469.551455 349.137904 
L 472.357823 350.855762 
L 476.099646 352.873672 
L 480.776925 355.057109 
L 485.454204 356.92286 
L 490.131482 358.593237 
L 494.808761 360.053371 
L 498.550585 361.069804 
L 503.227863 362.098588 
L 506.969687 362.681848 
L 510.71151 363.073941 
L 515.388789 363.355871 
L 521.936979 363.490903 
L 525.678802 363.501298 
L 525.678802 363.501298 
" clip-path="url(#p103e41382e)" style="fill: none; stroke: #7570b3; stroke-width: 2; stroke-linecap: round"/>
   </g>
   <g id="line2d_12">
    <path d="M 173.782991 359.964709 
L 415.734165 359.964709 
" clip-path="url(#p103e41382e)" style="fill: none; stroke: #000000; stroke-width: 3.5"/>
   </g>
   <g id="patch_3">
    <path d="M 23.76 380.84 
L 549.579698 380.84 
" style="fill: none; stroke: #333333; stroke-width: 1.5; stroke-linejoin: miter; stroke-linecap: square"/>
   </g>
   <g id="text_6">
    <text style="font-size: 22px; font-family: 'DejaVu Serif', 'Times New Roman', serif; text-anchor: end; fill: #262626" x="173.782991" y="344.528755" transform="rotate(-0 173.782991 344.528755)">-0.06 </text>
   </g>
   <g id="text_7">
    <text style="font-size: 22px; font-family: 'DejaVu Serif', 'Times New Roman', serif; text-anchor: start; fill: #262626" x="415.734165" y="344.528755" transform="rotate(-0 415.734165 344.528755)"> 0.049</text>
   </g>
   <g id="text_8">
    <text style="font-size: 22px; font-family: 'DejaVu Serif', 'Times New Roman', serif; text-anchor: middle; fill: #262626" x="294.758578" y="273.523364" transform="rotate(-0 294.758578 273.523364)">90% HDI</text>
   </g>
   <g id="text_9">
    <text style="font-size: 22px; font-family: 'DejaVu Serif', 'Times New Roman', serif; text-anchor: middle; fill: #262626" x="288.705036" y="119.163818" transform="rotate(-0 288.705036 119.163818)">mean=-0.0085</text>
   </g>
   <g id="text_10">
    <!-- $x_1x_2^2x_3$ -->
    <g style="fill: #262626" transform="translate(241.309849 49.58)">
     <text>
      <tspan x="0" y="-0.734375" style="font-style: oblique; font-size: 28px; font-family: 'DejaVu Sans'; fill: #262626">x</tspan>
      <tspan x="29.806055" y="-0.734375" style="font-style: oblique; font-size: 28px; font-family: 'DejaVu Sans'; fill: #262626">x</tspan>
      <tspan x="60.86263" y="-0.734375" style="font-style: oblique; font-size: 28px; font-family: 'DejaVu Sans'; fill: #262626">x</tspan>
      <tspan x="16.570312" y="3.859375" style="font-size: 19.6px; font-family: 'DejaVu Sans'; fill: #262626">1</tspan>
      <tspan x="46.376367" y="6.921875" style="font-size: 19.6px; font-family: 'DejaVu Sans'; fill: #262626">2</tspan>
      <tspan x="47.626888" y="-11.453125" style="font-size: 19.6px; font-family: 'DejaVu Sans'; fill: #262626">2</tspan>
      <tspan x="77.432943" y="3.859375" style="font-size: 19.6px; font-family: 'DejaVu Sans'; fill: #262626">3</tspan>
     </text>
    </g>
   </g>
  </g>
 </g>
 <defs>
  <clipPath id="p103e41382e">
   <rect x="23.76" y="57.42" width="525.819698" height="323.42"/>
  </clipPath>
 </defs>
</svg>
