<?xml version="1.0" encoding="utf-8" standalone="no"?>
<!DOCTYPE svg PUBLIC "-//W3C//DTD SVG 1.1//EN"
  "http://www.w3.org/Graphics/SVG/1.1/DTD/svg11.dtd">
<svg xmlns:xlink="http://www.w3.org/1999/xlink" width="576pt" height="432pt" viewBox="0 0 576 432" xmlns="http://www.w3.org/2000/svg" version="1.1">
 <metadata>
  <rdf:RDF xmlns:dc="http://purl.org/dc/elements/1.1/" xmlns:cc="http://creativecommons.org/ns#" xmlns:rdf="http://www.w3.org/1999/02/22-rdf-syntax-ns#">
   <cc:Work>
    <dc:type rdf:resource="http://purl.org/dc/dcmitype/StillImage"/>
    <dc:date>2025-09-22T22:41:52.730026</dc:date>
    <dc:format>image/svg+xml</dc:format>
    <dc:creator>
     <cc:Agent>
      <dc:title>Matplotlib v3.10.0, https://matplotlib.org/</dc:title>
     </cc:Agent>
    </dc:creator>
   </cc:Work>
  </rdf:RDF>
 </metadata>
 <defs>
  <style type="text/css">*{stroke-linejoin: round; stroke-linecap: butt}</style>
 </defs>
 <g id="figure_1">
  <g id="patch_1">
   <path d="M 0 432 
L 576 432 
L 576 0 
L 0 0 
L 0 432 
z
" style="fill: none; opacity: 0"/>
  </g>
  <g id="axes_1">
   <g id="patch_2">
    <path d="M 23.76 380.84 
L 552.24 380.84 
L 552.24 51.12 
L 23.76 51.12 
L 23.76 380.84 
z
" style="fill: none"/>
   </g>
   <g id="matplotlib.axis_1">
    <g id="xtick_1">
     <g id="line2d_1">
      <path d="M 58.089792 380.84 
L 58.089792 51.12 
" clip-path="url(#p1bb57772fc)" style="fill: none; stroke: #ffffff; stroke-opacity: 0.4; stroke-linecap: round"/>
     </g>
     <g id="line2d_2">
      <defs>
       <path id="mf1787a7241" d="M 0 0 
L 0 3 
" style="stroke: #808080"/>
      </defs>
      <g>
       <use xlink:href="#mf1787a7241" x="58.089792" y="380.84" style="fill: #808080; stroke: #808080"/>
      </g>
     </g>
     <g id="text_1">
      <text style="font-size: 18px; font-family: 'DejaVu Serif', 'Times New Roman', serif; text-anchor: middle; fill: #262626" x="58.089792" y="404.517187" transform="rotate(-0 58.089792 404.517187)">−0.10</text>
     </g>
    </g>
    <g id="xtick_2">
     <g id="line2d_3">
      <path d="M 167.567044 380.84 
L 167.567044 51.12 
" clip-path="url(#p1bb57772fc)" style="fill: none; stroke: #ffffff; stroke-opacity: 0.4; stroke-linecap: round"/>
     </g>
     <g id="line2d_4">
      <g>
       <use xlink:href="#mf1787a7241" x="167.567044" y="380.84" style="fill: #808080; stroke: #808080"/>
      </g>
     </g>
     <g id="text_2">
      <text style="font-size: 18px; font-family: 'DejaVu Serif', 'Times New Roman', serif; text-anchor: middle; fill: #262626" x="167.567044" y="404.517187" transform="rotate(-0 167.567044 404.517187)">−0.05</text>
     </g>
    </g>
    <g id="xtick_3">
     <g id="line2d_5">
      <path d="M 277.044296 380.84 
L 277.044296 51.12 
" clip-path="url(#p1bb57772fc)" style="fill: none; stroke: #ffffff; stroke-opacity: 0.4; stroke-linecap: round"/>
     </g>
     <g id="line2d_6">
      <g>
       <use xlink:href="#mf1787a7241" x="277.044296" y="380.84" style="fill: #808080; stroke: #808080"/>
      </g>
     </g>
     <g id="text_3">
      <text style="font-size: 18px; font-family: 'DejaVu Serif', 'Times New Roman', serif; text-anchor: middle; fill: #262626" x="277.044296" y="404.517187" transform="rotate(-0 277.044296 404.517187)">0.00</text>
     </g>
    </g>
    <g id="xtick_4">
     <g id="line2d_7">
      <path d="M 386.521548 380.84 
L 386.521548 51.12 
" clip-path="url(#p1bb57772fc)" style="fill: none; stroke: #ffffff; stroke-opacity: 0.4; stroke-linecap: round"/>
     </g>
     <g id="line2d_8">
      <g>
       <use xlink:href="#mf1787a7241" x="386.521548" y="380.84" style="fill: #808080; stroke: #808080"/>
      </g>
     </g>
     <g id="text_4">
      <text style="font-size: 18px; font-family: 'DejaVu Serif', 'Times New Roman', serif; text-anchor: middle; fill: #262626" x="386.521548" y="404.517187" transform="rotate(-0 386.521548 404.517187)">0.05</text>
     </g>
    </g>
    <g id="xtick_5">
     <g id="line2d_9">
      <path d="M 495.9988 380.84 
L 495.9988 51.12 
" clip-path="url(#p1bb57772fc)" style="fill: none; stroke: #ffffff; stroke-opacity: 0.4; stroke-linecap: round"/>
     </g>
     <g id="line2d_10">
      <g>
       <use xlink:href="#mf1787a7241" x="495.9988" y="380.84" style="fill: #808080; stroke: #808080"/>
      </g>
     </g>
     <g id="text_5">
      <text style="font-size: 18px; font-family: 'DejaVu Serif', 'Times New Roman', serif; text-anchor: middle; fill: #262626" x="495.9988" y="404.517187" transform="rotate(-0 495.9988 404.517187)">0.10</text>
     </g>
    </g>
   </g>
   <g id="matplotlib.axis_2"/>
   <g id="FillBetweenPolyCollection_1">
    <defs>
     <path id="m56135df1dc" d="M 47.781818 -66.147273 
L 47.781818 -66.97187 
L 48.722007 -66.968361 
L 49.662195 -66.961451 
L 50.602384 -66.951359 
L 51.542572 -66.932737 
L 52.482761 -66.92219 
L 53.42295 -66.906766 
L 54.363138 -66.889928 
L 55.303327 -66.872346 
L 56.243515 -66.854715 
L 57.183704 -66.837736 
L 58.123893 -66.8221 
L 59.064081 -66.808461 
L 60.00427 -66.797428 
L 60.944458 -66.789543 
L 61.884647 -66.785266 
L 62.824835 -66.784965 
L 63.765024 -66.7889 
L 64.705213 -66.797223 
L 65.645401 -66.809967 
L 66.58559 -66.827047 
L 67.525778 -66.848258 
L 68.465967 -66.8769 
L 69.406155 -66.906288 
L 70.346344 -66.938771 
L 71.286533 -66.973787 
L 72.226721 -67.014321 
L 73.16691 -67.053437 
L 74.107098 -67.093296 
L 75.047287 -67.136834 
L 75.987476 -67.17712 
L 76.927664 -67.216384 
L 77.867853 -67.25407 
L 78.808041 -67.293306 
L 79.74823 -67.338267 
L 80.688418 -67.372722 
L 81.628607 -67.408711 
L 82.568796 -67.440021 
L 83.508984 -67.469688 
L 84.449173 -67.498823 
L 85.389361 -67.525063 
L 86.32955 -67.554521 
L 87.269738 -67.587917 
L 88.209927 -67.619768 
L 89.150116 -67.657377 
L 90.090304 -67.695355 
L 91.030493 -67.737433 
L 91.970681 -67.791707 
L 92.91087 -67.846457 
L 93.851059 -67.915361 
L 94.791247 -67.990182 
L 95.731436 -68.070931 
L 96.671624 -68.160929 
L 97.611813 -68.26773 
L 98.552001 -68.378951 
L 99.49219 -68.503889 
L 100.432379 -68.636104 
L 101.372567 -68.781704 
L 102.312756 -68.933897 
L 103.252944 -69.094835 
L 104.193133 -69.270894 
L 105.133321 -69.448541 
L 106.07351 -69.635976 
L 107.013699 -69.825742 
L 107.953887 -70.019417 
L 108.894076 -70.23014 
L 109.834264 -70.435117 
L 110.774453 -70.645399 
L 111.714642 -70.850099 
L 112.65483 -71.057404 
L 113.595019 -71.263637 
L 114.535207 -71.478908 
L 115.475396 -71.683823 
L 116.415584 -71.890119 
L 117.355773 -72.087696 
L 118.295962 -72.279947 
L 119.23615 -72.480318 
L 120.176339 -72.675596 
L 121.116527 -72.872663 
L 122.056716 -73.062194 
L 122.996904 -73.264804 
L 123.937093 -73.466834 
L 124.877282 -73.668761 
L 125.81747 -73.881833 
L 126.757659 -74.091944 
L 127.697847 -74.312408 
L 128.638036 -74.548248 
L 129.578225 -74.784732 
L 130.518413 -75.035231 
L 131.458602 -75.298274 
L 132.39879 -75.589609 
L 133.338979 -75.896228 
L 134.279167 -76.215502 
L 135.219356 -76.558087 
L 136.159545 -76.915383 
L 137.099733 -77.297681 
L 138.039922 -77.699568 
L 138.98011 -78.139045 
L 139.920299 -78.587974 
L 140.860487 -79.07525 
L 141.800676 -79.583093 
L 142.740865 -80.11825 
L 143.681053 -80.684483 
L 144.621242 -81.274739 
L 145.56143 -81.898906 
L 146.501619 -82.559337 
L 147.441808 -83.239794 
L 148.381996 -83.944062 
L 149.322185 -84.667865 
L 150.262373 -85.433742 
L 151.202562 -86.226244 
L 152.14275 -87.037528 
L 153.082939 -87.883797 
L 154.023128 -88.758248 
L 154.963316 -89.637828 
L 155.903505 -90.536326 
L 156.843693 -91.462752 
L 157.783882 -92.413581 
L 158.72407 -93.375468 
L 159.664259 -94.359689 
L 160.604448 -95.391018 
L 161.544636 -96.408953 
L 162.484825 -97.451509 
L 163.425013 -98.502427 
L 164.365202 -99.573881 
L 165.30539 -100.648361 
L 166.245579 -101.74257 
L 167.185768 -102.843548 
L 168.125956 -103.963967 
L 169.066145 -105.095629 
L 170.006333 -106.232904 
L 170.946522 -107.413282 
L 171.886711 -108.596493 
L 172.826899 -109.794201 
L 173.767088 -111.005899 
L 174.707276 -112.271469 
L 175.647465 -113.547228 
L 176.587653 -114.842144 
L 177.527842 -116.166438 
L 178.468031 -117.535145 
L 179.408219 -118.910592 
L 180.348408 -120.341135 
L 181.288596 -121.816418 
L 182.228785 -123.310877 
L 183.168973 -124.82076 
L 184.109162 -126.391979 
L 185.049351 -128.011303 
L 185.989539 -129.655265 
L 186.929728 -131.355197 
L 187.869916 -133.083596 
L 188.810105 -134.831726 
L 189.750294 -136.664967 
L 190.690482 -138.541868 
L 191.630671 -140.443089 
L 192.570859 -142.402007 
L 193.511048 -144.373225 
L 194.451236 -146.376651 
L 195.391425 -148.452444 
L 196.331614 -150.564382 
L 197.271802 -152.69082 
L 198.211991 -154.844891 
L 199.152179 -157.028703 
L 200.092368 -159.223114 
L 201.032556 -161.468692 
L 201.972745 -163.729538 
L 202.912934 -165.996754 
L 203.853122 -168.304178 
L 204.793311 -170.626409 
L 205.733499 -172.97789 
L 206.673688 -175.282141 
L 207.613877 -177.614617 
L 208.554065 -180.001886 
L 209.494254 -182.357308 
L 210.434442 -184.780737 
L 211.374631 -187.215072 
L 212.314819 -189.671321 
L 213.255008 -192.136428 
L 214.195197 -194.661751 
L 215.135385 -197.203494 
L 216.075574 -199.76876 
L 217.015762 -202.409734 
L 217.955951 -205.070284 
L 218.896139 -207.784219 
L 219.836328 -210.566085 
L 220.776517 -213.367221 
L 221.716705 -216.23827 
L 222.656894 -219.142376 
L 223.597082 -222.107575 
L 224.537271 -225.10834 
L 225.47746 -228.155697 
L 226.417648 -231.197269 
L 227.357837 -234.279476 
L 228.298025 -237.378927 
L 229.238214 -240.488982 
L 230.178402 -243.564333 
L 231.118591 -246.599753 
L 232.05878 -249.591655 
L 232.998968 -252.557251 
L 233.939157 -255.499088 
L 234.879345 -258.359094 
L 235.819534 -261.19792 
L 236.759722 -263.97844 
L 237.699911 -266.67806 
L 238.6401 -269.31988 
L 239.580288 -271.904574 
L 240.520477 -274.415155 
L 241.460665 -276.862171 
L 242.400854 -279.25919 
L 243.341043 -281.613775 
L 244.281231 -283.910689 
L 245.22142 -286.156883 
L 246.161608 -288.358508 
L 247.101797 -290.572763 
L 248.041985 -292.736718 
L 248.982174 -294.83244 
L 249.922363 -296.950053 
L 250.862551 -299.029966 
L 251.80274 -301.083598 
L 252.742928 -303.09597 
L 253.683117 -305.106453 
L 254.623305 -307.041097 
L 255.563494 -308.956332 
L 256.503683 -310.861854 
L 257.443871 -312.682433 
L 258.38406 -314.420278 
L 259.324248 -316.091963 
L 260.264437 -317.739852 
L 261.204626 -319.300281 
L 262.144814 -320.740236 
L 263.085003 -322.095763 
L 264.025191 -323.366448 
L 264.96538 -324.576677 
L 265.905568 -325.717257 
L 266.845757 -326.75446 
L 267.785946 -327.747098 
L 268.726134 -328.716646 
L 269.666323 -329.572748 
L 270.606511 -330.394762 
L 271.5467 -331.217861 
L 272.486888 -332.0457 
L 273.427077 -332.867914 
L 274.367266 -333.664756 
L 275.307454 -334.478551 
L 276.247643 -335.340542 
L 277.187831 -336.224572 
L 278.12802 -337.142592 
L 279.068209 -338.12566 
L 280.008397 -339.143497 
L 280.948586 -340.282734 
L 281.888774 -341.455422 
L 282.828963 -342.641926 
L 283.769151 -343.925364 
L 284.70934 -345.226453 
L 285.649529 -346.604241 
L 286.589717 -347.996696 
L 287.529906 -349.432518 
L 288.470094 -350.850403 
L 289.410283 -352.29695 
L 290.350471 -353.69939 
L 291.29066 -355.052933 
L 292.230849 -356.413788 
L 293.171037 -357.758301 
L 294.111226 -358.997799 
L 295.051414 -360.155531 
L 295.991603 -361.218081 
L 296.931791 -362.215479 
L 297.87198 -363.083816 
L 298.812169 -363.844416 
L 299.752357 -364.462437 
L 300.692546 -364.999754 
L 301.632734 -365.390481 
L 302.572923 -365.658 
L 303.513112 -365.835516 
L 304.4533 -365.892727 
L 305.393489 -365.855139 
L 306.333677 -365.681116 
L 307.273866 -365.381058 
L 308.214054 -364.934099 
L 309.154243 -364.381938 
L 310.094432 -363.72713 
L 311.03462 -362.953858 
L 311.974809 -362.066978 
L 312.914997 -361.106257 
L 313.855186 -360.054501 
L 314.795374 -358.896898 
L 315.735563 -357.661518 
L 316.675752 -356.32031 
L 317.61594 -354.891244 
L 318.556129 -353.368233 
L 319.496317 -351.73832 
L 320.436506 -350.028239 
L 321.376695 -348.221593 
L 322.316883 -346.324634 
L 323.257072 -344.379931 
L 324.19726 -342.294144 
L 325.137449 -340.179603 
L 326.077637 -337.966 
L 327.017826 -335.73014 
L 327.958015 -333.425372 
L 328.898203 -331.077047 
L 329.838392 -328.664909 
L 330.77858 -326.224572 
L 331.718769 -323.799611 
L 332.658957 -321.338886 
L 333.599146 -318.865742 
L 334.539335 -316.355891 
L 335.479523 -313.854644 
L 336.419712 -311.4074 
L 337.3599 -308.970134 
L 338.300089 -306.498824 
L 339.240278 -304.024956 
L 340.180466 -301.592873 
L 341.120655 -299.161949 
L 342.060843 -296.737051 
L 343.001032 -294.277111 
L 343.94122 -291.847872 
L 344.881409 -289.42314 
L 345.821598 -286.973448 
L 346.761786 -284.480005 
L 347.701975 -281.98128 
L 348.642163 -279.508964 
L 349.582352 -276.980733 
L 350.52254 -274.41042 
L 351.462729 -271.843815 
L 352.402918 -269.227397 
L 353.343106 -266.579386 
L 354.283295 -263.911383 
L 355.223483 -261.210265 
L 356.163672 -258.496835 
L 357.103861 -255.779637 
L 358.044049 -253.032427 
L 358.984238 -250.26726 
L 359.924426 -247.49401 
L 360.864615 -244.736566 
L 361.804803 -241.987222 
L 362.744992 -239.245433 
L 363.685181 -236.478535 
L 364.625369 -233.788534 
L 365.565558 -231.081384 
L 366.505746 -228.384017 
L 367.445935 -225.651623 
L 368.386123 -222.988986 
L 369.326312 -220.370904 
L 370.266501 -217.757641 
L 371.206689 -215.134263 
L 372.146878 -212.532276 
L 373.087066 -209.938341 
L 374.027255 -207.375925 
L 374.967444 -204.83529 
L 375.907632 -202.28106 
L 376.847821 -199.735929 
L 377.788009 -197.212857 
L 378.728198 -194.709491 
L 379.668386 -192.197482 
L 380.608575 -189.719211 
L 381.548764 -187.241412 
L 382.488952 -184.803501 
L 383.429141 -182.377445 
L 384.369329 -179.964435 
L 385.309518 -177.581932 
L 386.249706 -175.268581 
L 387.189895 -172.935624 
L 388.130084 -170.620805 
L 389.070272 -168.342089 
L 390.010461 -166.100699 
L 390.950649 -163.891113 
L 391.890838 -161.715255 
L 392.831027 -159.603854 
L 393.771215 -157.5288 
L 394.711404 -155.511906 
L 395.651592 -153.512686 
L 396.591781 -151.588173 
L 397.531969 -149.6914 
L 398.472158 -147.874305 
L 399.412347 -146.07968 
L 400.352535 -144.352344 
L 401.292724 -142.634667 
L 402.232912 -140.98956 
L 403.173101 -139.406957 
L 404.113289 -137.869203 
L 405.053478 -136.369526 
L 405.993667 -134.912259 
L 406.933855 -133.516545 
L 407.874044 -132.140065 
L 408.814232 -130.804414 
L 409.754421 -129.503455 
L 410.69461 -128.221083 
L 411.634798 -126.95209 
L 412.574987 -125.701004 
L 413.515175 -124.466206 
L 414.455364 -123.222444 
L 415.395552 -121.996112 
L 416.335741 -120.763371 
L 417.27593 -119.527323 
L 418.216118 -118.286189 
L 419.156307 -117.027717 
L 420.096495 -115.758512 
L 421.036684 -114.502074 
L 421.976872 -113.225827 
L 422.917061 -111.930636 
L 423.85725 -110.64235 
L 424.797438 -109.359809 
L 425.737627 -108.071331 
L 426.677815 -106.802202 
L 427.618004 -105.53344 
L 428.558192 -104.293033 
L 429.498381 -103.060034 
L 430.43857 -101.851282 
L 431.378758 -100.66755 
L 432.318947 -99.530389 
L 433.259135 -98.416505 
L 434.199324 -97.329565 
L 435.139513 -96.295521 
L 436.079701 -95.283226 
L 437.01989 -94.330904 
L 437.960078 -93.421801 
L 438.900267 -92.524263 
L 439.840455 -91.670835 
L 440.780644 -90.834526 
L 441.720833 -90.049298 
L 442.661021 -89.270607 
L 443.60121 -88.525981 
L 444.541398 -87.804486 
L 445.481587 -87.104698 
L 446.421775 -86.417115 
L 447.361964 -85.736785 
L 448.302153 -85.065279 
L 449.242341 -84.390336 
L 450.18253 -83.732981 
L 451.122718 -83.080662 
L 452.062907 -82.418709 
L 453.003096 -81.772817 
L 453.943284 -81.138697 
L 454.883473 -80.510732 
L 455.823661 -79.89497 
L 456.76385 -79.273796 
L 457.704038 -78.671382 
L 458.644227 -78.078733 
L 459.584416 -77.497722 
L 460.524604 -76.916812 
L 461.464793 -76.361542 
L 462.404981 -75.833809 
L 463.34517 -75.329464 
L 464.285358 -74.841142 
L 465.225547 -74.371121 
L 466.165736 -73.929007 
L 467.105924 -73.505916 
L 468.046113 -73.106187 
L 468.986301 -72.72462 
L 469.92649 -72.374018 
L 470.866679 -72.053637 
L 471.806867 -71.750739 
L 472.747056 -71.471387 
L 473.687244 -71.217848 
L 474.627433 -70.988769 
L 475.567621 -70.780733 
L 476.50781 -70.590178 
L 477.447999 -70.413268 
L 478.388187 -70.258651 
L 479.328376 -70.12221 
L 480.268564 -70.005478 
L 481.208753 -69.900077 
L 482.148941 -69.814721 
L 483.08913 -69.738334 
L 484.029319 -69.661228 
L 484.969507 -69.604548 
L 485.909696 -69.556219 
L 486.849884 -69.517878 
L 487.790073 -69.479247 
L 488.730262 -69.451937 
L 489.67045 -69.427836 
L 490.610639 -69.406098 
L 491.550827 -69.392375 
L 492.491016 -69.374158 
L 493.431204 -69.357257 
L 494.371393 -69.340362 
L 495.311582 -69.323021 
L 496.25177 -69.307696 
L 497.191959 -69.290633 
L 498.132147 -69.268908 
L 499.072336 -69.245931 
L 500.012524 -69.221565 
L 500.952713 -69.198565 
L 501.892902 -69.177058 
L 502.83309 -69.145254 
L 503.773279 -69.118747 
L 504.713467 -69.094155 
L 505.653656 -69.065436 
L 506.593845 -69.032829 
L 507.534033 -69.002848 
L 508.474222 -68.975718 
L 509.41441 -68.945381 
L 510.354599 -68.914875 
L 511.294787 -68.881553 
L 512.234976 -68.851865 
L 513.175165 -68.825977 
L 514.115353 -68.794936 
L 515.055542 -68.768017 
L 515.99573 -68.741768 
L 516.935919 -68.71633 
L 517.876107 -68.688994 
L 518.816296 -68.666154 
L 519.756485 -68.647923 
L 520.696673 -68.62813 
L 521.636862 -68.609705 
L 522.57705 -68.596341 
L 523.517239 -68.582611 
L 524.457428 -68.571438 
L 525.397616 -68.562139 
L 526.337805 -68.554784 
L 527.277993 -68.549414 
L 528.218182 -68.543204 
L 528.218182 -66.147273 
L 528.218182 -66.147273 
L 527.277993 -66.147273 
L 526.337805 -66.147273 
L 525.397616 -66.147273 
L 524.457428 -66.147273 
L 523.517239 -66.147273 
L 522.57705 -66.147273 
L 521.636862 -66.147273 
L 520.696673 -66.147273 
L 519.756485 -66.147273 
L 518.816296 -66.147273 
L 517.876107 -66.147273 
L 516.935919 -66.147273 
L 515.99573 -66.147273 
L 515.055542 -66.147273 
L 514.115353 -66.147273 
L 513.175165 -66.147273 
L 512.234976 -66.147273 
L 511.294787 -66.147273 
L 510.354599 -66.147273 
L 509.41441 -66.147273 
L 508.474222 -66.147273 
L 507.534033 -66.147273 
L 506.593845 -66.147273 
L 505.653656 -66.147273 
L 504.713467 -66.147273 
L 503.773279 -66.147273 
L 502.83309 -66.147273 
L 501.892902 -66.147273 
L 500.952713 -66.147273 
L 500.012524 -66.147273 
L 499.072336 -66.147273 
L 498.132147 -66.147273 
L 497.191959 -66.147273 
L 496.25177 -66.147273 
L 495.311582 -66.147273 
L 494.371393 -66.147273 
L 493.431204 -66.147273 
L 492.491016 -66.147273 
L 491.550827 -66.147273 
L 490.610639 -66.147273 
L 489.67045 -66.147273 
L 488.730262 -66.147273 
L 487.790073 -66.147273 
L 486.849884 -66.147273 
L 485.909696 -66.147273 
L 484.969507 -66.147273 
L 484.029319 -66.147273 
L 483.08913 -66.147273 
L 482.148941 -66.147273 
L 481.208753 -66.147273 
L 480.268564 -66.147273 
L 479.328376 -66.147273 
L 478.388187 -66.147273 
L 477.447999 -66.147273 
L 476.50781 -66.147273 
L 475.567621 -66.147273 
L 474.627433 -66.147273 
L 473.687244 -66.147273 
L 472.747056 -66.147273 
L 471.806867 -66.147273 
L 470.866679 -66.147273 
L 469.92649 -66.147273 
L 468.986301 -66.147273 
L 468.046113 -66.147273 
L 467.105924 -66.147273 
L 466.165736 -66.147273 
L 465.225547 -66.147273 
L 464.285358 -66.147273 
L 463.34517 -66.147273 
L 462.404981 -66.147273 
L 461.464793 -66.147273 
L 460.524604 -66.147273 
L 459.584416 -66.147273 
L 458.644227 -66.147273 
L 457.704038 -66.147273 
L 456.76385 -66.147273 
L 455.823661 -66.147273 
L 454.883473 -66.147273 
L 453.943284 -66.147273 
L 453.003096 -66.147273 
L 452.062907 -66.147273 
L 451.122718 -66.147273 
L 450.18253 -66.147273 
L 449.242341 -66.147273 
L 448.302153 -66.147273 
L 447.361964 -66.147273 
L 446.421775 -66.147273 
L 445.481587 -66.147273 
L 444.541398 -66.147273 
L 443.60121 -66.147273 
L 442.661021 -66.147273 
L 441.720833 -66.147273 
L 440.780644 -66.147273 
L 439.840455 -66.147273 
L 438.900267 -66.147273 
L 437.960078 -66.147273 
L 437.01989 -66.147273 
L 436.079701 -66.147273 
L 435.139513 -66.147273 
L 434.199324 -66.147273 
L 433.259135 -66.147273 
L 432.318947 -66.147273 
L 431.378758 -66.147273 
L 430.43857 -66.147273 
L 429.498381 -66.147273 
L 428.558192 -66.147273 
L 427.618004 -66.147273 
L 426.677815 -66.147273 
L 425.737627 -66.147273 
L 424.797438 -66.147273 
L 423.85725 -66.147273 
L 422.917061 -66.147273 
L 421.976872 -66.147273 
L 421.036684 -66.147273 
L 420.096495 -66.147273 
L 419.156307 -66.147273 
L 418.216118 -66.147273 
L 417.27593 -66.147273 
L 416.335741 -66.147273 
L 415.395552 -66.147273 
L 414.455364 -66.147273 
L 413.515175 -66.147273 
L 412.574987 -66.147273 
L 411.634798 -66.147273 
L 410.69461 -66.147273 
L 409.754421 -66.147273 
L 408.814232 -66.147273 
L 407.874044 -66.147273 
L 406.933855 -66.147273 
L 405.993667 -66.147273 
L 405.053478 -66.147273 
L 404.113289 -66.147273 
L 403.173101 -66.147273 
L 402.232912 -66.147273 
L 401.292724 -66.147273 
L 400.352535 -66.147273 
L 399.412347 -66.147273 
L 398.472158 -66.147273 
L 397.531969 -66.147273 
L 396.591781 -66.147273 
L 395.651592 -66.147273 
L 394.711404 -66.147273 
L 393.771215 -66.147273 
L 392.831027 -66.147273 
L 391.890838 -66.147273 
L 390.950649 -66.147273 
L 390.010461 -66.147273 
L 389.070272 -66.147273 
L 388.130084 -66.147273 
L 387.189895 -66.147273 
L 386.249706 -66.147273 
L 385.309518 -66.147273 
L 384.369329 -66.147273 
L 383.429141 -66.147273 
L 382.488952 -66.147273 
L 381.548764 -66.147273 
L 380.608575 -66.147273 
L 379.668386 -66.147273 
L 378.728198 -66.147273 
L 377.788009 -66.147273 
L 376.847821 -66.147273 
L 375.907632 -66.147273 
L 374.967444 -66.147273 
L 374.027255 -66.147273 
L 373.087066 -66.147273 
L 372.146878 -66.147273 
L 371.206689 -66.147273 
L 370.266501 -66.147273 
L 369.326312 -66.147273 
L 368.386123 -66.147273 
L 367.445935 -66.147273 
L 366.505746 -66.147273 
L 365.565558 -66.147273 
L 364.625369 -66.147273 
L 363.685181 -66.147273 
L 362.744992 -66.147273 
L 361.804803 -66.147273 
L 360.864615 -66.147273 
L 359.924426 -66.147273 
L 358.984238 -66.147273 
L 358.044049 -66.147273 
L 357.103861 -66.147273 
L 356.163672 -66.147273 
L 355.223483 -66.147273 
L 354.283295 -66.147273 
L 353.343106 -66.147273 
L 352.402918 -66.147273 
L 351.462729 -66.147273 
L 350.52254 -66.147273 
L 349.582352 -66.147273 
L 348.642163 -66.147273 
L 347.701975 -66.147273 
L 346.761786 -66.147273 
L 345.821598 -66.147273 
L 344.881409 -66.147273 
L 343.94122 -66.147273 
L 343.001032 -66.147273 
L 342.060843 -66.147273 
L 341.120655 -66.147273 
L 340.180466 -66.147273 
L 339.240278 -66.147273 
L 338.300089 -66.147273 
L 337.3599 -66.147273 
L 336.419712 -66.147273 
L 335.479523 -66.147273 
L 334.539335 -66.147273 
L 333.599146 -66.147273 
L 332.658957 -66.147273 
L 331.718769 -66.147273 
L 330.77858 -66.147273 
L 329.838392 -66.147273 
L 328.898203 -66.147273 
L 327.958015 -66.147273 
L 327.017826 -66.147273 
L 326.077637 -66.147273 
L 325.137449 -66.147273 
L 324.19726 -66.147273 
L 323.257072 -66.147273 
L 322.316883 -66.147273 
L 321.376695 -66.147273 
L 320.436506 -66.147273 
L 319.496317 -66.147273 
L 318.556129 -66.147273 
L 317.61594 -66.147273 
L 316.675752 -66.147273 
L 315.735563 -66.147273 
L 314.795374 -66.147273 
L 313.855186 -66.147273 
L 312.914997 -66.147273 
L 311.974809 -66.147273 
L 311.03462 -66.147273 
L 310.094432 -66.147273 
L 309.154243 -66.147273 
L 308.214054 -66.147273 
L 307.273866 -66.147273 
L 306.333677 -66.147273 
L 305.393489 -66.147273 
L 304.4533 -66.147273 
L 303.513112 -66.147273 
L 302.572923 -66.147273 
L 301.632734 -66.147273 
L 300.692546 -66.147273 
L 299.752357 -66.147273 
L 298.812169 -66.147273 
L 297.87198 -66.147273 
L 296.931791 -66.147273 
L 295.991603 -66.147273 
L 295.051414 -66.147273 
L 294.111226 -66.147273 
L 293.171037 -66.147273 
L 292.230849 -66.147273 
L 291.29066 -66.147273 
L 290.350471 -66.147273 
L 289.410283 -66.147273 
L 288.470094 -66.147273 
L 287.529906 -66.147273 
L 286.589717 -66.147273 
L 285.649529 -66.147273 
L 284.70934 -66.147273 
L 283.769151 -66.147273 
L 282.828963 -66.147273 
L 281.888774 -66.147273 
L 280.948586 -66.147273 
L 280.008397 -66.147273 
L 279.068209 -66.147273 
L 278.12802 -66.147273 
L 277.187831 -66.147273 
L 276.247643 -66.147273 
L 275.307454 -66.147273 
L 274.367266 -66.147273 
L 273.427077 -66.147273 
L 272.486888 -66.147273 
L 271.5467 -66.147273 
L 270.606511 -66.147273 
L 269.666323 -66.147273 
L 268.726134 -66.147273 
L 267.785946 -66.147273 
L 266.845757 -66.147273 
L 265.905568 -66.147273 
L 264.96538 -66.147273 
L 264.025191 -66.147273 
L 263.085003 -66.147273 
L 262.144814 -66.147273 
L 261.204626 -66.147273 
L 260.264437 -66.147273 
L 259.324248 -66.147273 
L 258.38406 -66.147273 
L 257.443871 -66.147273 
L 256.503683 -66.147273 
L 255.563494 -66.147273 
L 254.623305 -66.147273 
L 253.683117 -66.147273 
L 252.742928 -66.147273 
L 251.80274 -66.147273 
L 250.862551 -66.147273 
L 249.922363 -66.147273 
L 248.982174 -66.147273 
L 248.041985 -66.147273 
L 247.101797 -66.147273 
L 246.161608 -66.147273 
L 245.22142 -66.147273 
L 244.281231 -66.147273 
L 243.341043 -66.147273 
L 242.400854 -66.147273 
L 241.460665 -66.147273 
L 240.520477 -66.147273 
L 239.580288 -66.147273 
L 238.6401 -66.147273 
L 237.699911 -66.147273 
L 236.759722 -66.147273 
L 235.819534 -66.147273 
L 234.879345 -66.147273 
L 233.939157 -66.147273 
L 232.998968 -66.147273 
L 232.05878 -66.147273 
L 231.118591 -66.147273 
L 230.178402 -66.147273 
L 229.238214 -66.147273 
L 228.298025 -66.147273 
L 227.357837 -66.147273 
L 226.417648 -66.147273 
L 225.47746 -66.147273 
L 224.537271 -66.147273 
L 223.597082 -66.147273 
L 222.656894 -66.147273 
L 221.716705 -66.147273 
L 220.776517 -66.147273 
L 219.836328 -66.147273 
L 218.896139 -66.147273 
L 217.955951 -66.147273 
L 217.015762 -66.147273 
L 216.075574 -66.147273 
L 215.135385 -66.147273 
L 214.195197 -66.147273 
L 213.255008 -66.147273 
L 212.314819 -66.147273 
L 211.374631 -66.147273 
L 210.434442 -66.147273 
L 209.494254 -66.147273 
L 208.554065 -66.147273 
L 207.613877 -66.147273 
L 206.673688 -66.147273 
L 205.733499 -66.147273 
L 204.793311 -66.147273 
L 203.853122 -66.147273 
L 202.912934 -66.147273 
L 201.972745 -66.147273 
L 201.032556 -66.147273 
L 200.092368 -66.147273 
L 199.152179 -66.147273 
L 198.211991 -66.147273 
L 197.271802 -66.147273 
L 196.331614 -66.147273 
L 195.391425 -66.147273 
L 194.451236 -66.147273 
L 193.511048 -66.147273 
L 192.570859 -66.147273 
L 191.630671 -66.147273 
L 190.690482 -66.147273 
L 189.750294 -66.147273 
L 188.810105 -66.147273 
L 187.869916 -66.147273 
L 186.929728 -66.147273 
L 185.989539 -66.147273 
L 185.049351 -66.147273 
L 184.109162 -66.147273 
L 183.168973 -66.147273 
L 182.228785 -66.147273 
L 181.288596 -66.147273 
L 180.348408 -66.147273 
L 179.408219 -66.147273 
L 178.468031 -66.147273 
L 177.527842 -66.147273 
L 176.587653 -66.147273 
L 175.647465 -66.147273 
L 174.707276 -66.147273 
L 173.767088 -66.147273 
L 172.826899 -66.147273 
L 171.886711 -66.147273 
L 170.946522 -66.147273 
L 170.006333 -66.147273 
L 169.066145 -66.147273 
L 168.125956 -66.147273 
L 167.185768 -66.147273 
L 166.245579 -66.147273 
L 165.30539 -66.147273 
L 164.365202 -66.147273 
L 163.425013 -66.147273 
L 162.484825 -66.147273 
L 161.544636 -66.147273 
L 160.604448 -66.147273 
L 159.664259 -66.147273 
L 158.72407 -66.147273 
L 157.783882 -66.147273 
L 156.843693 -66.147273 
L 155.903505 -66.147273 
L 154.963316 -66.147273 
L 154.023128 -66.147273 
L 153.082939 -66.147273 
L 152.14275 -66.147273 
L 151.202562 -66.147273 
L 150.262373 -66.147273 
L 149.322185 -66.147273 
L 148.381996 -66.147273 
L 147.441808 -66.147273 
L 146.501619 -66.147273 
L 145.56143 -66.147273 
L 144.621242 -66.147273 
L 143.681053 -66.147273 
L 142.740865 -66.147273 
L 141.800676 -66.147273 
L 140.860487 -66.147273 
L 139.920299 -66.147273 
L 138.98011 -66.147273 
L 138.039922 -66.147273 
L 137.099733 -66.147273 
L 136.159545 -66.147273 
L 135.219356 -66.147273 
L 134.279167 -66.147273 
L 133.338979 -66.147273 
L 132.39879 -66.147273 
L 131.458602 -66.147273 
L 130.518413 -66.147273 
L 129.578225 -66.147273 
L 128.638036 -66.147273 
L 127.697847 -66.147273 
L 126.757659 -66.147273 
L 125.81747 -66.147273 
L 124.877282 -66.147273 
L 123.937093 -66.147273 
L 122.996904 -66.147273 
L 122.056716 -66.147273 
L 121.116527 -66.147273 
L 120.176339 -66.147273 
L 119.23615 -66.147273 
L 118.295962 -66.147273 
L 117.355773 -66.147273 
L 116.415584 -66.147273 
L 115.475396 -66.147273 
L 114.535207 -66.147273 
L 113.595019 -66.147273 
L 112.65483 -66.147273 
L 111.714642 -66.147273 
L 110.774453 -66.147273 
L 109.834264 -66.147273 
L 108.894076 -66.147273 
L 107.953887 -66.147273 
L 107.013699 -66.147273 
L 106.07351 -66.147273 
L 105.133321 -66.147273 
L 104.193133 -66.147273 
L 103.252944 -66.147273 
L 102.312756 -66.147273 
L 101.372567 -66.147273 
L 100.432379 -66.147273 
L 99.49219 -66.147273 
L 98.552001 -66.147273 
L 97.611813 -66.147273 
L 96.671624 -66.147273 
L 95.731436 -66.147273 
L 94.791247 -66.147273 
L 93.851059 -66.147273 
L 92.91087 -66.147273 
L 91.970681 -66.147273 
L 91.030493 -66.147273 
L 90.090304 -66.147273 
L 89.150116 -66.147273 
L 88.209927 -66.147273 
L 87.269738 -66.147273 
L 86.32955 -66.147273 
L 85.389361 -66.147273 
L 84.449173 -66.147273 
L 83.508984 -66.147273 
L 82.568796 -66.147273 
L 81.628607 -66.147273 
L 80.688418 -66.147273 
L 79.74823 -66.147273 
L 78.808041 -66.147273 
L 77.867853 -66.147273 
L 76.927664 -66.147273 
L 75.987476 -66.147273 
L 75.047287 -66.147273 
L 74.107098 -66.147273 
L 73.16691 -66.147273 
L 72.226721 -66.147273 
L 71.286533 -66.147273 
L 70.346344 -66.147273 
L 69.406155 -66.147273 
L 68.465967 -66.147273 
L 67.525778 -66.147273 
L 66.58559 -66.147273 
L 65.645401 -66.147273 
L 64.705213 -66.147273 
L 63.765024 -66.147273 
L 62.824835 -66.147273 
L 61.884647 -66.147273 
L 60.944458 -66.147273 
L 60.00427 -66.147273 
L 59.064081 -66.147273 
L 58.123893 -66.147273 
L 57.183704 -66.147273 
L 56.243515 -66.147273 
L 55.303327 -66.147273 
L 54.363138 -66.147273 
L 53.42295 -66.147273 
L 52.482761 -66.147273 
L 51.542572 -66.147273 
L 50.602384 -66.147273 
L 49.662195 -66.147273 
L 48.722007 -66.147273 
L 47.781818 -66.147273 
z
" style="stroke: #7570b3; stroke-opacity: 0.6; stroke-width: 0.3"/>
    </defs>
    <g clip-path="url(#p1bb57772fc)">
     <use xlink:href="#m56135df1dc" x="0" y="432" style="fill: #7570b3; fill-opacity: 0.6; stroke: #7570b3; stroke-opacity: 0.6; stroke-width: 0.3"/>
    </g>
   </g>
   <g id="line2d_11">
    <path d="M 47.781818 365.02813 
L 57.183704 365.162264 
L 64.705213 365.202777 
L 71.286533 365.026213 
L 96.671624 363.839071 
L 101.372567 363.218296 
L 106.07351 362.364024 
L 113.595019 360.736363 
L 121.116527 359.127337 
L 127.697847 357.687592 
L 132.39879 356.410391 
L 136.159545 355.084617 
L 138.98011 353.860955 
L 141.800676 352.416907 
L 144.621242 350.725261 
L 147.441808 348.760206 
L 150.262373 346.566258 
L 153.082939 344.116203 
L 156.843693 340.537248 
L 160.604448 336.608982 
L 164.365202 332.426119 
L 169.066145 326.904371 
L 172.826899 322.205799 
L 175.647465 318.452772 
L 179.408219 313.089408 
L 183.168973 307.17924 
L 185.989539 302.344735 
L 189.750294 295.335033 
L 193.511048 287.626775 
L 196.331614 281.435618 
L 201.032556 270.531308 
L 206.673688 256.717859 
L 211.374631 244.784928 
L 216.075574 232.23124 
L 219.836328 221.433915 
L 223.597082 209.892425 
L 228.298025 194.621073 
L 232.998968 179.442749 
L 236.759722 168.02156 
L 239.580288 160.095426 
L 242.400854 152.74081 
L 245.22142 145.843117 
L 249.922363 135.049947 
L 253.683117 126.893547 
L 257.443871 119.317567 
L 260.264437 114.260148 
L 262.144814 111.259764 
L 264.025191 108.633552 
L 265.905568 106.282743 
L 268.726134 103.283354 
L 273.427077 99.132086 
L 276.247643 96.659458 
L 279.068209 93.87434 
L 280.948586 91.717266 
L 283.769151 88.074636 
L 286.589717 84.003304 
L 292.230849 75.586212 
L 294.111226 73.002201 
L 295.991603 70.781919 
L 297.87198 68.916184 
L 299.752357 67.537563 
L 300.692546 67.000246 
L 301.632734 66.609519 
L 303.513112 66.164484 
L 305.393489 66.144861 
L 306.333677 66.318884 
L 307.273866 66.618942 
L 309.154243 67.618062 
L 311.03462 69.046142 
L 312.914997 70.893743 
L 314.795374 73.103102 
L 316.675752 75.67969 
L 318.556129 78.631767 
L 320.436506 81.971761 
L 323.257072 87.620069 
L 326.077637 94.034 
L 328.898203 100.922953 
L 334.539335 115.644109 
L 341.120655 132.838051 
L 348.642163 152.491036 
L 353.343106 165.420614 
L 358.984238 181.73274 
L 367.445935 206.348377 
L 373.087066 222.061659 
L 380.608575 242.280789 
L 385.309518 254.418068 
L 390.950649 268.108887 
L 393.771215 274.4712 
L 397.531969 282.3086 
L 401.292724 289.365333 
L 404.113289 294.130797 
L 406.933855 298.483455 
L 409.754421 302.496545 
L 415.395552 310.003888 
L 421.976872 318.774173 
L 428.558192 327.706967 
L 432.318947 332.469611 
L 435.139513 335.704479 
L 437.960078 338.578199 
L 440.780644 341.165474 
L 444.541398 344.195514 
L 450.18253 348.267019 
L 456.76385 352.726204 
L 461.464793 355.638458 
L 465.225547 357.628879 
L 468.986301 359.27538 
L 471.806867 360.249261 
L 474.627433 361.011231 
L 478.388187 361.741349 
L 482.148941 362.185279 
L 486.849884 362.482122 
L 493.431204 362.642743 
L 507.534033 362.997152 
L 526.337805 363.445216 
L 528.218182 363.456796 
L 528.218182 363.456796 
" clip-path="url(#p1bb57772fc)" style="fill: none; stroke: #7570b3; stroke-width: 2; stroke-linecap: round"/>
   </g>
   <g id="line2d_12">
    <path d="M 194.173272 359.558073 
L 399.154926 359.558073 
" clip-path="url(#p1bb57772fc)" style="fill: none; stroke: #000000; stroke-width: 3.5"/>
   </g>
   <g id="patch_3">
    <path d="M 23.76 380.84 
L 552.24 380.84 
" style="fill: none; stroke: #333333; stroke-width: 1.5; stroke-linejoin: miter; stroke-linecap: square"/>
   </g>
   <g id="text_6">
    <text style="font-size: 22px; font-family: 'DejaVu Serif', 'Times New Roman', serif; text-anchor: end; fill: #262626" x="194.173272" y="343.821436" transform="rotate(-0 194.173272 343.821436)">-0.038 </text>
   </g>
   <g id="text_7">
    <text style="font-size: 22px; font-family: 'DejaVu Serif', 'Times New Roman', serif; text-anchor: start; fill: #262626" x="399.154926" y="343.821436" transform="rotate(-0 399.154926 343.821436)"> 0.056</text>
   </g>
   <g id="text_8">
    <text style="font-size: 22px; font-family: 'DejaVu Serif', 'Times New Roman', serif; text-anchor: middle; fill: #262626" x="296.664099" y="271.432909" transform="rotate(-0 296.664099 271.432909)">90% HDI</text>
   </g>
   <g id="text_9">
    <text style="font-size: 22px; font-family: 'DejaVu Serif', 'Times New Roman', serif; text-anchor: middle; fill: #262626" x="297.339352" y="114.066545" transform="rotate(-0 297.339352 114.066545)">mean=0.0093</text>
   </g>
   <g id="text_10">
    <!-- $x_1x_3$ -->
    <g style="fill: #262626" transform="translate(258.18 45.12)">
     <text>
      <tspan x="0" y="-0.6875" style="font-style: oblique; font-size: 28px; font-family: 'DejaVu Sans'; fill: #262626">x</tspan>
      <tspan x="29.806055" y="-0.6875" style="font-style: oblique; font-size: 28px; font-family: 'DejaVu Sans'; fill: #262626">x</tspan>
      <tspan x="16.570312" y="3.90625" style="font-size: 19.6px; font-family: 'DejaVu Sans'; fill: #262626">1</tspan>
      <tspan x="46.376367" y="3.90625" style="font-size: 19.6px; font-family: 'DejaVu Sans'; fill: #262626">3</tspan>
     </text>
    </g>
   </g>
  </g>
 </g>
 <defs>
  <clipPath id="p1bb57772fc">
   <rect x="23.76" y="51.12" width="528.48" height="329.72"/>
  </clipPath>
 </defs>
</svg>
