<?xml version="1.0" encoding="utf-8" standalone="no"?>
<!DOCTYPE svg PUBLIC "-//W3C//DTD SVG 1.1//EN"
  "http://www.w3.org/Graphics/SVG/1.1/DTD/svg11.dtd">
<svg xmlns:xlink="http://www.w3.org/1999/xlink" width="576pt" height="432pt" viewBox="0 0 576 432" xmlns="http://www.w3.org/2000/svg" version="1.1">
 <metadata>
  <rdf:RDF xmlns:dc="http://purl.org/dc/elements/1.1/" xmlns:cc="http://creativecommons.org/ns#" xmlns:rdf="http://www.w3.org/1999/02/22-rdf-syntax-ns#">
   <cc:Work>
    <dc:type rdf:resource="http://purl.org/dc/dcmitype/StillImage"/>
    <dc:date>2025-09-22T22:41:52.764366</dc:date>
    <dc:format>image/svg+xml</dc:format>
    <dc:creator>
     <cc:Agent>
      <dc:title>Matplotlib v3.10.0, https://matplotlib.org/</dc:title>
     </cc:Agent>
    </dc:creator>
   </cc:Work>
  </rdf:RDF>
 </metadata>
 <defs>
  <style type="text/css">*{stroke-linejoin: round; stroke-linecap: butt}</style>
 </defs>
 <g id="figure_1">
  <g id="patch_1">
   <path d="M 0 432 
L 576 432 
L 576 0 
L 0 0 
L 0 432 
z
" style="fill: none; opacity: 0"/>
  </g>
  <g id="axes_1">
   <g id="patch_2">
    <path d="M 23.76 380.84 
L 540.619054 380.84 
L 540.619054 57.42 
L 23.76 57.42 
L 23.76 380.84 
z
" style="fill: none"/>
   </g>
   <g id="matplotlib.axis_1">
    <g id="xtick_1">
     <g id="line2d_1">
      <path d="M 108.843273 380.84 
L 108.843273 57.42 
" clip-path="url(#p732b812546)" style="fill: none; stroke: #ffffff; stroke-opacity: 0.4; stroke-linecap: round"/>
     </g>
     <g id="line2d_2">
      <defs>
       <path id="mbbe4a401c3" d="M 0 0 
L 0 3 
" style="stroke: #808080"/>
      </defs>
      <g>
       <use xlink:href="#mbbe4a401c3" x="108.843273" y="380.84" style="fill: #808080; stroke: #808080"/>
      </g>
     </g>
     <g id="text_1">
      <text style="font-size: 18px; font-family: 'DejaVu Serif', 'Times New Roman', serif; text-anchor: middle; fill: #262626" x="108.843273" y="404.517187" transform="rotate(-0 108.843273 404.517187)">−0.2</text>
     </g>
    </g>
    <g id="xtick_2">
     <g id="line2d_3">
      <path d="M 194.575731 380.84 
L 194.575731 57.42 
" clip-path="url(#p732b812546)" style="fill: none; stroke: #ffffff; stroke-opacity: 0.4; stroke-linecap: round"/>
     </g>
     <g id="line2d_4">
      <g>
       <use xlink:href="#mbbe4a401c3" x="194.575731" y="380.84" style="fill: #808080; stroke: #808080"/>
      </g>
     </g>
     <g id="text_2">
      <text style="font-size: 18px; font-family: 'DejaVu Serif', 'Times New Roman', serif; text-anchor: middle; fill: #262626" x="194.575731" y="404.517187" transform="rotate(-0 194.575731 404.517187)">−0.1</text>
     </g>
    </g>
    <g id="xtick_3">
     <g id="line2d_5">
      <path d="M 280.308189 380.84 
L 280.308189 57.42 
" clip-path="url(#p732b812546)" style="fill: none; stroke: #ffffff; stroke-opacity: 0.4; stroke-linecap: round"/>
     </g>
     <g id="line2d_6">
      <g>
       <use xlink:href="#mbbe4a401c3" x="280.308189" y="380.84" style="fill: #808080; stroke: #808080"/>
      </g>
     </g>
     <g id="text_3">
      <text style="font-size: 18px; font-family: 'DejaVu Serif', 'Times New Roman', serif; text-anchor: middle; fill: #262626" x="280.308189" y="404.517187" transform="rotate(-0 280.308189 404.517187)">0.0</text>
     </g>
    </g>
    <g id="xtick_4">
     <g id="line2d_7">
      <path d="M 366.040647 380.84 
L 366.040647 57.42 
" clip-path="url(#p732b812546)" style="fill: none; stroke: #ffffff; stroke-opacity: 0.4; stroke-linecap: round"/>
     </g>
     <g id="line2d_8">
      <g>
       <use xlink:href="#mbbe4a401c3" x="366.040647" y="380.84" style="fill: #808080; stroke: #808080"/>
      </g>
     </g>
     <g id="text_4">
      <text style="font-size: 18px; font-family: 'DejaVu Serif', 'Times New Roman', serif; text-anchor: middle; fill: #262626" x="366.040647" y="404.517187" transform="rotate(-0 366.040647 404.517187)">0.1</text>
     </g>
    </g>
    <g id="xtick_5">
     <g id="line2d_9">
      <path d="M 451.773106 380.84 
L 451.773106 57.42 
" clip-path="url(#p732b812546)" style="fill: none; stroke: #ffffff; stroke-opacity: 0.4; stroke-linecap: round"/>
     </g>
     <g id="line2d_10">
      <g>
       <use xlink:href="#mbbe4a401c3" x="451.773106" y="380.84" style="fill: #808080; stroke: #808080"/>
      </g>
     </g>
     <g id="text_5">
      <text style="font-size: 18px; font-family: 'DejaVu Serif', 'Times New Roman', serif; text-anchor: middle; fill: #262626" x="451.773106" y="404.517187" transform="rotate(-0 451.773106 404.517187)">0.2</text>
     </g>
    </g>
    <g id="xtick_6">
     <g id="line2d_11">
      <path d="M 537.505564 380.84 
L 537.505564 57.42 
" clip-path="url(#p732b812546)" style="fill: none; stroke: #ffffff; stroke-opacity: 0.4; stroke-linecap: round"/>
     </g>
     <g id="line2d_12">
      <g>
       <use xlink:href="#mbbe4a401c3" x="537.505564" y="380.84" style="fill: #808080; stroke: #808080"/>
      </g>
     </g>
     <g id="text_6">
      <text style="font-size: 18px; font-family: 'DejaVu Serif', 'Times New Roman', serif; text-anchor: middle; fill: #262626" x="537.505564" y="404.517187" transform="rotate(-0 537.505564 404.517187)">0.3</text>
     </g>
    </g>
   </g>
   <g id="matplotlib.axis_2"/>
   <g id="FillBetweenPolyCollection_1">
    <defs>
     <path id="mb10815a478" d="M 47.253593 -65.860909 
L 47.253593 -66.816956 
L 48.173108 -66.819727 
L 49.092622 -66.815651 
L 50.012137 -66.813794 
L 50.931651 -66.810864 
L 51.851165 -66.804345 
L 52.77068 -66.800711 
L 53.690194 -66.803851 
L 54.609709 -66.801909 
L 55.529223 -66.804445 
L 56.448738 -66.812834 
L 57.368252 -66.818119 
L 58.287766 -66.826438 
L 59.207281 -66.84185 
L 60.126795 -66.862261 
L 61.04631 -66.888354 
L 61.965824 -66.917292 
L 62.885338 -66.953074 
L 63.804853 -67.006687 
L 64.724367 -67.059453 
L 65.643882 -67.123691 
L 66.563396 -67.200685 
L 67.482911 -67.28483 
L 68.402425 -67.379429 
L 69.321939 -67.491984 
L 70.241454 -67.607175 
L 71.160968 -67.740679 
L 72.080483 -67.883986 
L 72.999997 -68.040276 
L 73.919512 -68.220422 
L 74.839026 -68.409847 
L 75.75854 -68.614621 
L 76.678055 -68.83172 
L 77.597569 -69.071237 
L 78.517084 -69.321148 
L 79.436598 -69.594267 
L 80.356112 -69.889016 
L 81.275627 -70.192714 
L 82.195141 -70.513861 
L 83.114656 -70.859538 
L 84.03417 -71.217459 
L 84.953685 -71.614175 
L 85.873199 -72.013455 
L 86.792713 -72.429144 
L 87.712228 -72.87353 
L 88.631742 -73.341124 
L 89.551257 -73.822299 
L 90.470771 -74.32244 
L 91.390285 -74.837754 
L 92.3098 -75.37048 
L 93.229314 -75.92344 
L 94.148829 -76.489674 
L 95.068343 -77.078022 
L 95.987858 -77.682117 
L 96.907372 -78.294034 
L 97.826886 -78.921501 
L 98.746401 -79.574403 
L 99.665915 -80.233726 
L 100.58543 -80.900315 
L 101.504944 -81.575505 
L 102.424458 -82.261258 
L 103.343973 -82.956838 
L 104.263487 -83.647601 
L 105.183002 -84.343599 
L 106.102516 -85.036842 
L 107.022031 -85.738776 
L 107.941545 -86.432645 
L 108.861059 -87.132935 
L 109.780574 -87.82395 
L 110.700088 -88.51361 
L 111.619603 -89.190583 
L 112.539117 -89.852511 
L 113.458631 -90.510927 
L 114.378146 -91.173711 
L 115.29766 -91.812459 
L 116.217175 -92.440885 
L 117.136689 -93.073005 
L 118.056204 -93.687971 
L 118.975718 -94.301762 
L 119.895232 -94.906407 
L 120.814747 -95.506565 
L 121.734261 -96.124608 
L 122.653776 -96.724485 
L 123.57329 -97.321815 
L 124.492805 -97.924482 
L 125.412319 -98.531439 
L 126.331833 -99.154905 
L 127.251348 -99.784389 
L 128.170862 -100.431552 
L 129.090377 -101.096383 
L 130.009891 -101.788734 
L 130.929405 -102.476146 
L 131.84892 -103.192682 
L 132.768434 -103.920309 
L 133.687949 -104.666281 
L 134.607463 -105.436816 
L 135.526978 -106.235301 
L 136.446492 -107.050579 
L 137.366006 -107.892692 
L 138.285521 -108.797697 
L 139.205035 -109.69758 
L 140.12455 -110.633826 
L 141.044064 -111.622026 
L 141.963578 -112.621973 
L 142.883093 -113.645575 
L 143.802607 -114.70039 
L 144.722122 -115.800963 
L 145.641636 -116.947069 
L 146.561151 -118.119373 
L 147.480665 -119.329367 
L 148.400179 -120.559817 
L 149.319694 -121.846524 
L 150.239208 -123.176375 
L 151.158723 -124.542534 
L 152.078237 -125.941133 
L 152.997751 -127.40334 
L 153.917266 -128.923473 
L 154.83678 -130.456992 
L 155.756295 -132.055569 
L 156.675809 -133.689253 
L 157.595324 -135.332918 
L 158.514838 -137.063248 
L 159.434352 -138.804357 
L 160.353867 -140.587804 
L 161.273381 -142.434132 
L 162.192896 -144.277465 
L 163.11241 -146.176396 
L 164.031924 -148.126196 
L 164.951439 -150.092219 
L 165.870953 -152.085191 
L 166.790468 -154.098177 
L 167.709982 -156.12598 
L 168.629497 -158.191761 
L 169.549011 -160.283161 
L 170.468525 -162.407697 
L 171.38804 -164.542727 
L 172.307554 -166.667962 
L 173.227069 -168.832704 
L 174.146583 -171.001461 
L 175.066098 -173.201287 
L 175.985612 -175.393877 
L 176.905126 -177.588151 
L 177.824641 -179.813022 
L 178.744155 -182.047569 
L 179.66367 -184.274421 
L 180.583184 -186.539331 
L 181.502698 -188.795112 
L 182.422213 -191.028653 
L 183.341727 -193.292277 
L 184.261242 -195.565654 
L 185.180756 -197.853808 
L 186.100271 -200.155974 
L 187.019785 -202.471802 
L 187.939299 -204.819429 
L 188.858814 -207.150844 
L 189.778328 -209.495709 
L 190.697843 -211.8561 
L 191.617357 -214.21051 
L 192.536871 -216.613278 
L 193.456386 -219.027893 
L 194.3759 -221.443354 
L 195.295415 -223.905717 
L 196.214929 -226.386569 
L 197.134444 -228.889851 
L 198.053958 -231.422651 
L 198.973472 -233.980177 
L 199.892987 -236.574484 
L 200.812501 -239.237997 
L 201.732016 -241.900475 
L 202.65153 -244.568588 
L 203.571044 -247.255323 
L 204.490559 -249.996031 
L 205.410073 -252.73666 
L 206.329588 -255.526448 
L 207.249102 -258.319 
L 208.168617 -261.173519 
L 209.088131 -264.020116 
L 210.007645 -266.894461 
L 210.92716 -269.757209 
L 211.846674 -272.616768 
L 212.766189 -275.514206 
L 213.685703 -278.378917 
L 214.605217 -281.241487 
L 215.524732 -284.044913 
L 216.444246 -286.865431 
L 217.363761 -289.662179 
L 218.283275 -292.407882 
L 219.20279 -295.166318 
L 220.122304 -297.851514 
L 221.041818 -300.482244 
L 221.961333 -303.103753 
L 222.880847 -305.676463 
L 223.800362 -308.19267 
L 224.719876 -310.670991 
L 225.639391 -313.083348 
L 226.558905 -315.42663 
L 227.478419 -317.693263 
L 228.397934 -319.870749 
L 229.317448 -322.020489 
L 230.236963 -324.071162 
L 231.156477 -326.016598 
L 232.075991 -327.918447 
L 232.995506 -329.727818 
L 233.91502 -331.452947 
L 234.834535 -333.083941 
L 235.754049 -334.602956 
L 236.673564 -336.047729 
L 237.593078 -337.383292 
L 238.512592 -338.599484 
L 239.432107 -339.745281 
L 240.351621 -340.771937 
L 241.271136 -341.712897 
L 242.19065 -342.553677 
L 243.110164 -343.290468 
L 244.029679 -343.932933 
L 244.949193 -344.475164 
L 245.868708 -344.899563 
L 246.788222 -345.284259 
L 247.707737 -345.578188 
L 248.627251 -345.840533 
L 249.546765 -346.052132 
L 250.46628 -346.204443 
L 251.385794 -346.323473 
L 252.305309 -346.417131 
L 253.224823 -346.51473 
L 254.144337 -346.644209 
L 255.063852 -346.795948 
L 255.983366 -346.943487 
L 256.902881 -347.171556 
L 257.822395 -347.40141 
L 258.74191 -347.746923 
L 259.661424 -348.128368 
L 260.580938 -348.548347 
L 261.500453 -349.049985 
L 262.419967 -349.635081 
L 263.339482 -350.268265 
L 264.258996 -350.951683 
L 265.17851 -351.677375 
L 266.098025 -352.479688 
L 267.017539 -353.304707 
L 267.937054 -354.126937 
L 268.856568 -354.963502 
L 269.776083 -355.76619 
L 270.695597 -356.544607 
L 271.615111 -357.288013 
L 272.534626 -357.940176 
L 273.45414 -358.551741 
L 274.373655 -359.041486 
L 275.293169 -359.426433 
L 276.212684 -359.705148 
L 277.132198 -359.879091 
L 278.051712 -359.856194 
L 278.971227 -359.718944 
L 279.890741 -359.488438 
L 280.810256 -359.068307 
L 281.72977 -358.459697 
L 282.649284 -357.751676 
L 283.568799 -356.903538 
L 284.488313 -355.890201 
L 285.407828 -354.730717 
L 286.327342 -353.463667 
L 287.246857 -352.084568 
L 288.166371 -350.612091 
L 289.085885 -349.06784 
L 290.0054 -347.407698 
L 290.924914 -345.72255 
L 291.844429 -343.971237 
L 292.763943 -342.188529 
L 293.683457 -340.348883 
L 294.602972 -338.480291 
L 295.522486 -336.624532 
L 296.442001 -334.745367 
L 297.361515 -332.898245 
L 298.28103 -331.046888 
L 299.200544 -329.150502 
L 300.120058 -327.259897 
L 301.039573 -325.399286 
L 301.959087 -323.543226 
L 302.878602 -321.746983 
L 303.798116 -319.936489 
L 304.71763 -318.153083 
L 305.637145 -316.410999 
L 306.556659 -314.640202 
L 307.476174 -312.877387 
L 308.395688 -311.141915 
L 309.315203 -309.421892 
L 310.234717 -307.674229 
L 311.154231 -305.931621 
L 312.073746 -304.220529 
L 312.99326 -302.483689 
L 313.912775 -300.731911 
L 314.832289 -298.995081 
L 315.751803 -297.245391 
L 316.671318 -295.47706 
L 317.590832 -293.709047 
L 318.510347 -291.917654 
L 319.429861 -290.113532 
L 320.349376 -288.294597 
L 321.26889 -286.478599 
L 322.188404 -284.678183 
L 323.107919 -282.850985 
L 324.027433 -280.961549 
L 324.946948 -279.030512 
L 325.866462 -277.081838 
L 326.785977 -275.119771 
L 327.705491 -273.107281 
L 328.625005 -271.083517 
L 329.54452 -269.016975 
L 330.464034 -266.904678 
L 331.383549 -264.742013 
L 332.303063 -262.528413 
L 333.222577 -260.293588 
L 334.142092 -258.001512 
L 335.061606 -255.699925 
L 335.981121 -253.311835 
L 336.900635 -250.92411 
L 337.82015 -248.494664 
L 338.739664 -245.996102 
L 339.659178 -243.442617 
L 340.578693 -240.865977 
L 341.498207 -238.275059 
L 342.417722 -235.646451 
L 343.337236 -233.00291 
L 344.25675 -230.328075 
L 345.176265 -227.656474 
L 346.095779 -224.949803 
L 347.015294 -222.222645 
L 347.934808 -219.494163 
L 348.854323 -216.747523 
L 349.773837 -214.034402 
L 350.693351 -211.278028 
L 351.612866 -208.559877 
L 352.53238 -205.846032 
L 353.451895 -203.128318 
L 354.371409 -200.424842 
L 355.290923 -197.770061 
L 356.210438 -195.138154 
L 357.129952 -192.502158 
L 358.049467 -189.927191 
L 358.968981 -187.392292 
L 359.888496 -184.853424 
L 360.80801 -182.327737 
L 361.727524 -179.885419 
L 362.647039 -177.476986 
L 363.566553 -175.113535 
L 364.486068 -172.795739 
L 365.405582 -170.519894 
L 366.325096 -168.278318 
L 367.244611 -166.094656 
L 368.164125 -163.955416 
L 369.08364 -161.872874 
L 370.003154 -159.846493 
L 370.922669 -157.888651 
L 371.842183 -155.970154 
L 372.761697 -154.075596 
L 373.681212 -152.252032 
L 374.600726 -150.467176 
L 375.520241 -148.73821 
L 376.439755 -147.055219 
L 377.35927 -145.410212 
L 378.278784 -143.799156 
L 379.198298 -142.218528 
L 380.117813 -140.636127 
L 381.037327 -139.101508 
L 381.956842 -137.573798 
L 382.876356 -136.050375 
L 383.79587 -134.542359 
L 384.715385 -133.04955 
L 385.634899 -131.555968 
L 386.554414 -130.036341 
L 387.473928 -128.540168 
L 388.393443 -127.034878 
L 389.312957 -125.5144 
L 390.232471 -123.985502 
L 391.151986 -122.465961 
L 392.0715 -120.914941 
L 392.991015 -119.373506 
L 393.910529 -117.829958 
L 394.830043 -116.293403 
L 395.749558 -114.740137 
L 396.669072 -113.212121 
L 397.588587 -111.697845 
L 398.508101 -110.190459 
L 399.427616 -108.673104 
L 400.34713 -107.19587 
L 401.266644 -105.741665 
L 402.186159 -104.344739 
L 403.105673 -102.960812 
L 404.025188 -101.62001 
L 404.944702 -100.319466 
L 405.864216 -99.051237 
L 406.783731 -97.816578 
L 407.703245 -96.625686 
L 408.62276 -95.474439 
L 409.542274 -94.35763 
L 410.461789 -93.295872 
L 411.381303 -92.261241 
L 412.300817 -91.252975 
L 413.220332 -90.302853 
L 414.139846 -89.388846 
L 415.059361 -88.501466 
L 415.978875 -87.655888 
L 416.89839 -86.849337 
L 417.817904 -86.073044 
L 418.737418 -85.326686 
L 419.656933 -84.612757 
L 420.576447 -83.918598 
L 421.495962 -83.26473 
L 422.415476 -82.616453 
L 423.33499 -82.007346 
L 424.254505 -81.434542 
L 425.174019 -80.872777 
L 426.093534 -80.343749 
L 427.013048 -79.814415 
L 427.932563 -79.324666 
L 428.852077 -78.86195 
L 429.771591 -78.413341 
L 430.691106 -77.985157 
L 431.61062 -77.587186 
L 432.530135 -77.200264 
L 433.449649 -76.834808 
L 434.369163 -76.484641 
L 435.288678 -76.155298 
L 436.208192 -75.839162 
L 437.127707 -75.544553 
L 438.047221 -75.270276 
L 438.966736 -75.009116 
L 439.88625 -74.76362 
L 440.805764 -74.530163 
L 441.725279 -74.296731 
L 442.644793 -74.087753 
L 443.564308 -73.88627 
L 444.483822 -73.687113 
L 445.403336 -73.509131 
L 446.322851 -73.338746 
L 447.242365 -73.178327 
L 448.16188 -73.030227 
L 449.081394 -72.887832 
L 450.000909 -72.756919 
L 450.920423 -72.625213 
L 451.839937 -72.513486 
L 452.759452 -72.401799 
L 453.678966 -72.296459 
L 454.598481 -72.199496 
L 455.517995 -72.103963 
L 456.437509 -72.012514 
L 457.357024 -71.924273 
L 458.276538 -71.835558 
L 459.196053 -71.75441 
L 460.115567 -71.670289 
L 461.035082 -71.591388 
L 461.954596 -71.507326 
L 462.87411 -71.420887 
L 463.793625 -71.334174 
L 464.713139 -71.243181 
L 465.632654 -71.147455 
L 466.552168 -71.046601 
L 467.471683 -70.940291 
L 468.391197 -70.825494 
L 469.310711 -70.705421 
L 470.230226 -70.577111 
L 471.14974 -70.446659 
L 472.069255 -70.305063 
L 472.988769 -70.16761 
L 473.908283 -70.024249 
L 474.827798 -69.875521 
L 475.747312 -69.719971 
L 476.666827 -69.564442 
L 477.586341 -69.405494 
L 478.505856 -69.243953 
L 479.42537 -69.084186 
L 480.344884 -68.921664 
L 481.264399 -68.754547 
L 482.183913 -68.595397 
L 483.103428 -68.435427 
L 484.022942 -68.27972 
L 484.942456 -68.131927 
L 485.861971 -67.988824 
L 486.781485 -67.851361 
L 487.701 -67.72042 
L 488.620514 -67.594026 
L 489.540029 -67.479066 
L 490.459543 -67.372697 
L 491.379057 -67.275492 
L 492.298572 -67.187925 
L 493.218086 -67.107579 
L 494.137601 -67.040873 
L 495.057115 -66.984472 
L 495.976629 -66.935654 
L 496.896144 -66.897731 
L 497.815658 -66.870418 
L 498.735173 -66.853332 
L 499.654687 -66.848779 
L 500.574202 -66.852813 
L 501.493716 -66.862096 
L 502.41323 -66.882118 
L 503.332745 -66.905846 
L 504.252259 -66.9386 
L 505.171774 -66.975981 
L 506.091288 -67.017024 
L 507.010802 -67.060713 
L 507.930317 -67.105993 
L 508.849831 -67.143434 
L 509.769346 -67.190429 
L 510.68886 -67.235466 
L 511.608375 -67.274802 
L 512.527889 -67.313681 
L 513.447403 -67.347773 
L 514.366918 -67.379847 
L 515.286432 -67.400343 
L 516.205947 -67.4177 
L 517.125461 -67.42527 
L 517.125461 -65.860909 
L 517.125461 -65.860909 
L 516.205947 -65.860909 
L 515.286432 -65.860909 
L 514.366918 -65.860909 
L 513.447403 -65.860909 
L 512.527889 -65.860909 
L 511.608375 -65.860909 
L 510.68886 -65.860909 
L 509.769346 -65.860909 
L 508.849831 -65.860909 
L 507.930317 -65.860909 
L 507.010802 -65.860909 
L 506.091288 -65.860909 
L 505.171774 -65.860909 
L 504.252259 -65.860909 
L 503.332745 -65.860909 
L 502.41323 -65.860909 
L 501.493716 -65.860909 
L 500.574202 -65.860909 
L 499.654687 -65.860909 
L 498.735173 -65.860909 
L 497.815658 -65.860909 
L 496.896144 -65.860909 
L 495.976629 -65.860909 
L 495.057115 -65.860909 
L 494.137601 -65.860909 
L 493.218086 -65.860909 
L 492.298572 -65.860909 
L 491.379057 -65.860909 
L 490.459543 -65.860909 
L 489.540029 -65.860909 
L 488.620514 -65.860909 
L 487.701 -65.860909 
L 486.781485 -65.860909 
L 485.861971 -65.860909 
L 484.942456 -65.860909 
L 484.022942 -65.860909 
L 483.103428 -65.860909 
L 482.183913 -65.860909 
L 481.264399 -65.860909 
L 480.344884 -65.860909 
L 479.42537 -65.860909 
L 478.505856 -65.860909 
L 477.586341 -65.860909 
L 476.666827 -65.860909 
L 475.747312 -65.860909 
L 474.827798 -65.860909 
L 473.908283 -65.860909 
L 472.988769 -65.860909 
L 472.069255 -65.860909 
L 471.14974 -65.860909 
L 470.230226 -65.860909 
L 469.310711 -65.860909 
L 468.391197 -65.860909 
L 467.471683 -65.860909 
L 466.552168 -65.860909 
L 465.632654 -65.860909 
L 464.713139 -65.860909 
L 463.793625 -65.860909 
L 462.87411 -65.860909 
L 461.954596 -65.860909 
L 461.035082 -65.860909 
L 460.115567 -65.860909 
L 459.196053 -65.860909 
L 458.276538 -65.860909 
L 457.357024 -65.860909 
L 456.437509 -65.860909 
L 455.517995 -65.860909 
L 454.598481 -65.860909 
L 453.678966 -65.860909 
L 452.759452 -65.860909 
L 451.839937 -65.860909 
L 450.920423 -65.860909 
L 450.000909 -65.860909 
L 449.081394 -65.860909 
L 448.16188 -65.860909 
L 447.242365 -65.860909 
L 446.322851 -65.860909 
L 445.403336 -65.860909 
L 444.483822 -65.860909 
L 443.564308 -65.860909 
L 442.644793 -65.860909 
L 441.725279 -65.860909 
L 440.805764 -65.860909 
L 439.88625 -65.860909 
L 438.966736 -65.860909 
L 438.047221 -65.860909 
L 437.127707 -65.860909 
L 436.208192 -65.860909 
L 435.288678 -65.860909 
L 434.369163 -65.860909 
L 433.449649 -65.860909 
L 432.530135 -65.860909 
L 431.61062 -65.860909 
L 430.691106 -65.860909 
L 429.771591 -65.860909 
L 428.852077 -65.860909 
L 427.932563 -65.860909 
L 427.013048 -65.860909 
L 426.093534 -65.860909 
L 425.174019 -65.860909 
L 424.254505 -65.860909 
L 423.33499 -65.860909 
L 422.415476 -65.860909 
L 421.495962 -65.860909 
L 420.576447 -65.860909 
L 419.656933 -65.860909 
L 418.737418 -65.860909 
L 417.817904 -65.860909 
L 416.89839 -65.860909 
L 415.978875 -65.860909 
L 415.059361 -65.860909 
L 414.139846 -65.860909 
L 413.220332 -65.860909 
L 412.300817 -65.860909 
L 411.381303 -65.860909 
L 410.461789 -65.860909 
L 409.542274 -65.860909 
L 408.62276 -65.860909 
L 407.703245 -65.860909 
L 406.783731 -65.860909 
L 405.864216 -65.860909 
L 404.944702 -65.860909 
L 404.025188 -65.860909 
L 403.105673 -65.860909 
L 402.186159 -65.860909 
L 401.266644 -65.860909 
L 400.34713 -65.860909 
L 399.427616 -65.860909 
L 398.508101 -65.860909 
L 397.588587 -65.860909 
L 396.669072 -65.860909 
L 395.749558 -65.860909 
L 394.830043 -65.860909 
L 393.910529 -65.860909 
L 392.991015 -65.860909 
L 392.0715 -65.860909 
L 391.151986 -65.860909 
L 390.232471 -65.860909 
L 389.312957 -65.860909 
L 388.393443 -65.860909 
L 387.473928 -65.860909 
L 386.554414 -65.860909 
L 385.634899 -65.860909 
L 384.715385 -65.860909 
L 383.79587 -65.860909 
L 382.876356 -65.860909 
L 381.956842 -65.860909 
L 381.037327 -65.860909 
L 380.117813 -65.860909 
L 379.198298 -65.860909 
L 378.278784 -65.860909 
L 377.35927 -65.860909 
L 376.439755 -65.860909 
L 375.520241 -65.860909 
L 374.600726 -65.860909 
L 373.681212 -65.860909 
L 372.761697 -65.860909 
L 371.842183 -65.860909 
L 370.922669 -65.860909 
L 370.003154 -65.860909 
L 369.08364 -65.860909 
L 368.164125 -65.860909 
L 367.244611 -65.860909 
L 366.325096 -65.860909 
L 365.405582 -65.860909 
L 364.486068 -65.860909 
L 363.566553 -65.860909 
L 362.647039 -65.860909 
L 361.727524 -65.860909 
L 360.80801 -65.860909 
L 359.888496 -65.860909 
L 358.968981 -65.860909 
L 358.049467 -65.860909 
L 357.129952 -65.860909 
L 356.210438 -65.860909 
L 355.290923 -65.860909 
L 354.371409 -65.860909 
L 353.451895 -65.860909 
L 352.53238 -65.860909 
L 351.612866 -65.860909 
L 350.693351 -65.860909 
L 349.773837 -65.860909 
L 348.854323 -65.860909 
L 347.934808 -65.860909 
L 347.015294 -65.860909 
L 346.095779 -65.860909 
L 345.176265 -65.860909 
L 344.25675 -65.860909 
L 343.337236 -65.860909 
L 342.417722 -65.860909 
L 341.498207 -65.860909 
L 340.578693 -65.860909 
L 339.659178 -65.860909 
L 338.739664 -65.860909 
L 337.82015 -65.860909 
L 336.900635 -65.860909 
L 335.981121 -65.860909 
L 335.061606 -65.860909 
L 334.142092 -65.860909 
L 333.222577 -65.860909 
L 332.303063 -65.860909 
L 331.383549 -65.860909 
L 330.464034 -65.860909 
L 329.54452 -65.860909 
L 328.625005 -65.860909 
L 327.705491 -65.860909 
L 326.785977 -65.860909 
L 325.866462 -65.860909 
L 324.946948 -65.860909 
L 324.027433 -65.860909 
L 323.107919 -65.860909 
L 322.188404 -65.860909 
L 321.26889 -65.860909 
L 320.349376 -65.860909 
L 319.429861 -65.860909 
L 318.510347 -65.860909 
L 317.590832 -65.860909 
L 316.671318 -65.860909 
L 315.751803 -65.860909 
L 314.832289 -65.860909 
L 313.912775 -65.860909 
L 312.99326 -65.860909 
L 312.073746 -65.860909 
L 311.154231 -65.860909 
L 310.234717 -65.860909 
L 309.315203 -65.860909 
L 308.395688 -65.860909 
L 307.476174 -65.860909 
L 306.556659 -65.860909 
L 305.637145 -65.860909 
L 304.71763 -65.860909 
L 303.798116 -65.860909 
L 302.878602 -65.860909 
L 301.959087 -65.860909 
L 301.039573 -65.860909 
L 300.120058 -65.860909 
L 299.200544 -65.860909 
L 298.28103 -65.860909 
L 297.361515 -65.860909 
L 296.442001 -65.860909 
L 295.522486 -65.860909 
L 294.602972 -65.860909 
L 293.683457 -65.860909 
L 292.763943 -65.860909 
L 291.844429 -65.860909 
L 290.924914 -65.860909 
L 290.0054 -65.860909 
L 289.085885 -65.860909 
L 288.166371 -65.860909 
L 287.246857 -65.860909 
L 286.327342 -65.860909 
L 285.407828 -65.860909 
L 284.488313 -65.860909 
L 283.568799 -65.860909 
L 282.649284 -65.860909 
L 281.72977 -65.860909 
L 280.810256 -65.860909 
L 279.890741 -65.860909 
L 278.971227 -65.860909 
L 278.051712 -65.860909 
L 277.132198 -65.860909 
L 276.212684 -65.860909 
L 275.293169 -65.860909 
L 274.373655 -65.860909 
L 273.45414 -65.860909 
L 272.534626 -65.860909 
L 271.615111 -65.860909 
L 270.695597 -65.860909 
L 269.776083 -65.860909 
L 268.856568 -65.860909 
L 267.937054 -65.860909 
L 267.017539 -65.860909 
L 266.098025 -65.860909 
L 265.17851 -65.860909 
L 264.258996 -65.860909 
L 263.339482 -65.860909 
L 262.419967 -65.860909 
L 261.500453 -65.860909 
L 260.580938 -65.860909 
L 259.661424 -65.860909 
L 258.74191 -65.860909 
L 257.822395 -65.860909 
L 256.902881 -65.860909 
L 255.983366 -65.860909 
L 255.063852 -65.860909 
L 254.144337 -65.860909 
L 253.224823 -65.860909 
L 252.305309 -65.860909 
L 251.385794 -65.860909 
L 250.46628 -65.860909 
L 249.546765 -65.860909 
L 248.627251 -65.860909 
L 247.707737 -65.860909 
L 246.788222 -65.860909 
L 245.868708 -65.860909 
L 244.949193 -65.860909 
L 244.029679 -65.860909 
L 243.110164 -65.860909 
L 242.19065 -65.860909 
L 241.271136 -65.860909 
L 240.351621 -65.860909 
L 239.432107 -65.860909 
L 238.512592 -65.860909 
L 237.593078 -65.860909 
L 236.673564 -65.860909 
L 235.754049 -65.860909 
L 234.834535 -65.860909 
L 233.91502 -65.860909 
L 232.995506 -65.860909 
L 232.075991 -65.860909 
L 231.156477 -65.860909 
L 230.236963 -65.860909 
L 229.317448 -65.860909 
L 228.397934 -65.860909 
L 227.478419 -65.860909 
L 226.558905 -65.860909 
L 225.639391 -65.860909 
L 224.719876 -65.860909 
L 223.800362 -65.860909 
L 222.880847 -65.860909 
L 221.961333 -65.860909 
L 221.041818 -65.860909 
L 220.122304 -65.860909 
L 219.20279 -65.860909 
L 218.283275 -65.860909 
L 217.363761 -65.860909 
L 216.444246 -65.860909 
L 215.524732 -65.860909 
L 214.605217 -65.860909 
L 213.685703 -65.860909 
L 212.766189 -65.860909 
L 211.846674 -65.860909 
L 210.92716 -65.860909 
L 210.007645 -65.860909 
L 209.088131 -65.860909 
L 208.168617 -65.860909 
L 207.249102 -65.860909 
L 206.329588 -65.860909 
L 205.410073 -65.860909 
L 204.490559 -65.860909 
L 203.571044 -65.860909 
L 202.65153 -65.860909 
L 201.732016 -65.860909 
L 200.812501 -65.860909 
L 199.892987 -65.860909 
L 198.973472 -65.860909 
L 198.053958 -65.860909 
L 197.134444 -65.860909 
L 196.214929 -65.860909 
L 195.295415 -65.860909 
L 194.3759 -65.860909 
L 193.456386 -65.860909 
L 192.536871 -65.860909 
L 191.617357 -65.860909 
L 190.697843 -65.860909 
L 189.778328 -65.860909 
L 188.858814 -65.860909 
L 187.939299 -65.860909 
L 187.019785 -65.860909 
L 186.100271 -65.860909 
L 185.180756 -65.860909 
L 184.261242 -65.860909 
L 183.341727 -65.860909 
L 182.422213 -65.860909 
L 181.502698 -65.860909 
L 180.583184 -65.860909 
L 179.66367 -65.860909 
L 178.744155 -65.860909 
L 177.824641 -65.860909 
L 176.905126 -65.860909 
L 175.985612 -65.860909 
L 175.066098 -65.860909 
L 174.146583 -65.860909 
L 173.227069 -65.860909 
L 172.307554 -65.860909 
L 171.38804 -65.860909 
L 170.468525 -65.860909 
L 169.549011 -65.860909 
L 168.629497 -65.860909 
L 167.709982 -65.860909 
L 166.790468 -65.860909 
L 165.870953 -65.860909 
L 164.951439 -65.860909 
L 164.031924 -65.860909 
L 163.11241 -65.860909 
L 162.192896 -65.860909 
L 161.273381 -65.860909 
L 160.353867 -65.860909 
L 159.434352 -65.860909 
L 158.514838 -65.860909 
L 157.595324 -65.860909 
L 156.675809 -65.860909 
L 155.756295 -65.860909 
L 154.83678 -65.860909 
L 153.917266 -65.860909 
L 152.997751 -65.860909 
L 152.078237 -65.860909 
L 151.158723 -65.860909 
L 150.239208 -65.860909 
L 149.319694 -65.860909 
L 148.400179 -65.860909 
L 147.480665 -65.860909 
L 146.561151 -65.860909 
L 145.641636 -65.860909 
L 144.722122 -65.860909 
L 143.802607 -65.860909 
L 142.883093 -65.860909 
L 141.963578 -65.860909 
L 141.044064 -65.860909 
L 140.12455 -65.860909 
L 139.205035 -65.860909 
L 138.285521 -65.860909 
L 137.366006 -65.860909 
L 136.446492 -65.860909 
L 135.526978 -65.860909 
L 134.607463 -65.860909 
L 133.687949 -65.860909 
L 132.768434 -65.860909 
L 131.84892 -65.860909 
L 130.929405 -65.860909 
L 130.009891 -65.860909 
L 129.090377 -65.860909 
L 128.170862 -65.860909 
L 127.251348 -65.860909 
L 126.331833 -65.860909 
L 125.412319 -65.860909 
L 124.492805 -65.860909 
L 123.57329 -65.860909 
L 122.653776 -65.860909 
L 121.734261 -65.860909 
L 120.814747 -65.860909 
L 119.895232 -65.860909 
L 118.975718 -65.860909 
L 118.056204 -65.860909 
L 117.136689 -65.860909 
L 116.217175 -65.860909 
L 115.29766 -65.860909 
L 114.378146 -65.860909 
L 113.458631 -65.860909 
L 112.539117 -65.860909 
L 111.619603 -65.860909 
L 110.700088 -65.860909 
L 109.780574 -65.860909 
L 108.861059 -65.860909 
L 107.941545 -65.860909 
L 107.022031 -65.860909 
L 106.102516 -65.860909 
L 105.183002 -65.860909 
L 104.263487 -65.860909 
L 103.343973 -65.860909 
L 102.424458 -65.860909 
L 101.504944 -65.860909 
L 100.58543 -65.860909 
L 99.665915 -65.860909 
L 98.746401 -65.860909 
L 97.826886 -65.860909 
L 96.907372 -65.860909 
L 95.987858 -65.860909 
L 95.068343 -65.860909 
L 94.148829 -65.860909 
L 93.229314 -65.860909 
L 92.3098 -65.860909 
L 91.390285 -65.860909 
L 90.470771 -65.860909 
L 89.551257 -65.860909 
L 88.631742 -65.860909 
L 87.712228 -65.860909 
L 86.792713 -65.860909 
L 85.873199 -65.860909 
L 84.953685 -65.860909 
L 84.03417 -65.860909 
L 83.114656 -65.860909 
L 82.195141 -65.860909 
L 81.275627 -65.860909 
L 80.356112 -65.860909 
L 79.436598 -65.860909 
L 78.517084 -65.860909 
L 77.597569 -65.860909 
L 76.678055 -65.860909 
L 75.75854 -65.860909 
L 74.839026 -65.860909 
L 73.919512 -65.860909 
L 72.999997 -65.860909 
L 72.080483 -65.860909 
L 71.160968 -65.860909 
L 70.241454 -65.860909 
L 69.321939 -65.860909 
L 68.402425 -65.860909 
L 67.482911 -65.860909 
L 66.563396 -65.860909 
L 65.643882 -65.860909 
L 64.724367 -65.860909 
L 63.804853 -65.860909 
L 62.885338 -65.860909 
L 61.965824 -65.860909 
L 61.04631 -65.860909 
L 60.126795 -65.860909 
L 59.207281 -65.860909 
L 58.287766 -65.860909 
L 57.368252 -65.860909 
L 56.448738 -65.860909 
L 55.529223 -65.860909 
L 54.609709 -65.860909 
L 53.690194 -65.860909 
L 52.77068 -65.860909 
L 51.851165 -65.860909 
L 50.931651 -65.860909 
L 50.012137 -65.860909 
L 49.092622 -65.860909 
L 48.173108 -65.860909 
L 47.253593 -65.860909 
z
" style="stroke: #7570b3; stroke-opacity: 0.6; stroke-width: 0.3"/>
    </defs>
    <g clip-path="url(#p732b812546)">
     <use xlink:href="#mb10815a478" x="0" y="432" style="fill: #7570b3; fill-opacity: 0.6; stroke: #7570b3; stroke-opacity: 0.6; stroke-width: 0.3"/>
    </g>
   </g>
   <g id="line2d_13">
    <path d="M 47.253593 365.183044 
L 62.885338 365.046926 
L 68.402425 364.620571 
L 72.999997 363.959724 
L 76.678055 363.16828 
L 80.356112 362.110984 
L 84.03417 360.782541 
L 87.712228 359.12647 
L 91.390285 357.162246 
L 95.068343 354.921978 
L 98.746401 352.425597 
L 104.263487 348.352399 
L 114.378146 340.826289 
L 119.895232 337.093593 
L 128.170862 331.568448 
L 131.84892 328.807318 
L 135.526978 325.764699 
L 138.285521 323.202303 
L 141.044064 320.377974 
L 143.802607 317.29961 
L 146.561151 313.880627 
L 149.319694 310.153476 
L 152.078237 306.058867 
L 154.83678 301.543008 
L 158.514838 294.936752 
L 161.273381 289.565868 
L 164.031924 283.873804 
L 168.629497 273.808239 
L 174.146583 260.998539 
L 182.422213 240.971347 
L 188.858814 224.849156 
L 194.3759 210.556646 
L 198.973472 198.019823 
L 203.571044 184.744677 
L 209.088131 167.979884 
L 218.283275 139.592118 
L 221.961333 128.896247 
L 225.639391 118.916652 
L 228.397934 112.129251 
L 230.236963 107.928838 
L 232.995506 102.272182 
L 234.834535 98.916059 
L 236.673564 95.952271 
L 238.512592 93.400516 
L 240.351621 91.228063 
L 242.19065 89.446323 
L 244.029679 88.067067 
L 245.868708 87.100437 
L 247.707737 86.421812 
L 249.546765 85.947868 
L 252.305309 85.582869 
L 255.063852 85.204052 
L 256.902881 84.828444 
L 257.822395 84.59859 
L 260.580938 83.451653 
L 262.419967 82.364919 
L 264.258996 81.048317 
L 266.098025 79.520312 
L 271.615111 74.711987 
L 273.45414 73.448259 
L 275.293169 72.573567 
L 277.132198 72.120909 
L 278.051712 72.143806 
L 279.890741 72.511562 
L 280.810256 72.931693 
L 282.649284 74.248324 
L 283.568799 75.096462 
L 285.407828 77.269283 
L 287.246857 79.915432 
L 289.085885 82.93216 
L 291.844429 88.028763 
L 295.522486 95.375468 
L 303.798116 112.063511 
L 310.234717 124.325771 
L 320.349376 143.705403 
L 324.946948 152.969488 
L 328.625005 160.916483 
L 331.383549 167.257987 
L 335.061606 176.300075 
L 338.739664 186.003898 
L 343.337236 198.99709 
L 350.693351 220.721972 
L 357.129952 239.497842 
L 361.727524 252.114581 
L 365.405582 261.480106 
L 368.164125 268.044584 
L 370.922669 274.111349 
L 374.600726 281.532824 
L 377.35927 286.589788 
L 381.956842 294.426202 
L 401.266644 326.258335 
L 404.944702 331.680534 
L 407.703245 335.374314 
L 410.461789 338.704128 
L 413.220332 341.697147 
L 415.978875 344.344112 
L 418.737418 346.673314 
L 421.495962 348.73527 
L 424.254505 350.565458 
L 427.013048 352.185585 
L 429.771591 353.586659 
L 432.530135 354.799736 
L 436.208192 356.160838 
L 439.88625 357.23638 
L 444.483822 358.312887 
L 449.081394 359.112168 
L 454.598481 359.800504 
L 472.069255 361.694937 
L 478.505856 362.756047 
L 488.620514 364.405974 
L 493.218086 364.892421 
L 497.815658 365.129582 
L 502.41323 365.117882 
L 508.849831 364.856566 
L 516.205947 364.5823 
L 517.125461 364.57473 
L 517.125461 364.57473 
" clip-path="url(#p732b812546)" style="fill: none; stroke: #7570b3; stroke-width: 2; stroke-linecap: round"/>
   </g>
   <g id="line2d_14">
    <path d="M 162.649082 359.964709 
L 376.507209 359.964709 
" clip-path="url(#p732b812546)" style="fill: none; stroke: #000000; stroke-width: 3.5"/>
   </g>
   <g id="patch_3">
    <path d="M 23.76 380.84 
L 540.619054 380.84 
" style="fill: none; stroke: #333333; stroke-width: 1.5; stroke-linejoin: miter; stroke-linecap: square"/>
   </g>
   <g id="text_7">
    <text style="font-size: 22px; font-family: 'DejaVu Serif', 'Times New Roman', serif; text-anchor: end; fill: #262626" x="162.649082" y="344.528755" transform="rotate(-0 162.649082 344.528755)">-0.14 </text>
   </g>
   <g id="text_8">
    <text style="font-size: 22px; font-family: 'DejaVu Serif', 'Times New Roman', serif; text-anchor: start; fill: #262626" x="376.507209" y="344.528755" transform="rotate(-0 376.507209 344.528755)"> 0.11</text>
   </g>
   <g id="text_9">
    <text style="font-size: 22px; font-family: 'DejaVu Serif', 'Times New Roman', serif; text-anchor: middle; fill: #262626" x="269.578146" y="273.523364" transform="rotate(-0 269.578146 273.523364)">90% HDI</text>
   </g>
   <g id="text_10">
    <text style="font-size: 22px; font-family: 'DejaVu Serif', 'Times New Roman', serif; text-anchor: middle; fill: #262626" x="268.727763" y="119.163818" transform="rotate(-0 268.727763 119.163818)">mean=-0.014</text>
   </g>
   <g id="text_11">
    <!-- $x_1^2x_2^2$ -->
    <g style="fill: #262626" transform="translate(251.109527 49.58)">
     <text>
      <tspan x="0" y="-0.734375" style="font-style: oblique; font-size: 28px; font-family: 'DejaVu Sans'; fill: #262626">x</tspan>
      <tspan x="31.056576" y="-0.734375" style="font-style: oblique; font-size: 28px; font-family: 'DejaVu Sans'; fill: #262626">x</tspan>
      <tspan x="16.570312" y="6.921875" style="font-size: 19.6px; font-family: 'DejaVu Sans'; fill: #262626">1</tspan>
      <tspan x="17.820833" y="-11.453125" style="font-size: 19.6px; font-family: 'DejaVu Sans'; fill: #262626">2</tspan>
      <tspan x="47.626888" y="6.921875" style="font-size: 19.6px; font-family: 'DejaVu Sans'; fill: #262626">2</tspan>
      <tspan x="48.877409" y="-11.453125" style="font-size: 19.6px; font-family: 'DejaVu Sans'; fill: #262626">2</tspan>
     </text>
    </g>
   </g>
  </g>
 </g>
 <defs>
  <clipPath id="p732b812546">
   <rect x="23.76" y="57.42" width="516.859054" height="323.42"/>
  </clipPath>
 </defs>
</svg>
