<?xml version="1.0" encoding="utf-8" standalone="no"?>
<!DOCTYPE svg PUBLIC "-//W3C//DTD SVG 1.1//EN"
  "http://www.w3.org/Graphics/SVG/1.1/DTD/svg11.dtd">
<svg xmlns:xlink="http://www.w3.org/1999/xlink" width="576pt" height="432pt" viewBox="0 0 576 432" xmlns="http://www.w3.org/2000/svg" version="1.1">
 <metadata>
  <rdf:RDF xmlns:dc="http://purl.org/dc/elements/1.1/" xmlns:cc="http://creativecommons.org/ns#" xmlns:rdf="http://www.w3.org/1999/02/22-rdf-syntax-ns#">
   <cc:Work>
    <dc:type rdf:resource="http://purl.org/dc/dcmitype/StillImage"/>
    <dc:date>2025-09-22T22:41:52.805002</dc:date>
    <dc:format>image/svg+xml</dc:format>
    <dc:creator>
     <cc:Agent>
      <dc:title>Matplotlib v3.10.0, https://matplotlib.org/</dc:title>
     </cc:Agent>
    </dc:creator>
   </cc:Work>
  </rdf:RDF>
 </metadata>
 <defs>
  <style type="text/css">*{stroke-linejoin: round; stroke-linecap: butt}</style>
 </defs>
 <g id="figure_1">
  <g id="patch_1">
   <path d="M 0 432 
L 576 432 
L 576 0 
L 0 0 
L 0 432 
z
" style="fill: none; opacity: 0"/>
  </g>
  <g id="axes_1">
   <g id="patch_2">
    <path d="M 23.76 380.84 
L 552.24 380.84 
L 552.24 57.42 
L 23.76 57.42 
L 23.76 380.84 
z
" style="fill: none"/>
   </g>
   <g id="matplotlib.axis_1">
    <g id="xtick_1">
     <g id="line2d_1">
      <path d="M 67.385307 380.84 
L 67.385307 57.42 
" clip-path="url(#p6a872b446f)" style="fill: none; stroke: #ffffff; stroke-opacity: 0.4; stroke-linecap: round"/>
     </g>
     <g id="line2d_2">
      <defs>
       <path id="mf9b6bbf5e3" d="M 0 0 
L 0 3 
" style="stroke: #808080"/>
      </defs>
      <g>
       <use xlink:href="#mf9b6bbf5e3" x="67.385307" y="380.84" style="fill: #808080; stroke: #808080"/>
      </g>
     </g>
     <g id="text_1">
      <text style="font-size: 18px; font-family: 'DejaVu Serif', 'Times New Roman', serif; text-anchor: middle; fill: #262626" x="67.385307" y="404.517187" transform="rotate(-0 67.385307 404.517187)">−0.4</text>
     </g>
    </g>
    <g id="xtick_2">
     <g id="line2d_3">
      <path d="M 136.771506 380.84 
L 136.771506 57.42 
" clip-path="url(#p6a872b446f)" style="fill: none; stroke: #ffffff; stroke-opacity: 0.4; stroke-linecap: round"/>
     </g>
     <g id="line2d_4">
      <g>
       <use xlink:href="#mf9b6bbf5e3" x="136.771506" y="380.84" style="fill: #808080; stroke: #808080"/>
      </g>
     </g>
     <g id="text_2">
      <text style="font-size: 18px; font-family: 'DejaVu Serif', 'Times New Roman', serif; text-anchor: middle; fill: #262626" x="136.771506" y="404.517187" transform="rotate(-0 136.771506 404.517187)">−0.3</text>
     </g>
    </g>
    <g id="xtick_3">
     <g id="line2d_5">
      <path d="M 206.157704 380.84 
L 206.157704 57.42 
" clip-path="url(#p6a872b446f)" style="fill: none; stroke: #ffffff; stroke-opacity: 0.4; stroke-linecap: round"/>
     </g>
     <g id="line2d_6">
      <g>
       <use xlink:href="#mf9b6bbf5e3" x="206.157704" y="380.84" style="fill: #808080; stroke: #808080"/>
      </g>
     </g>
     <g id="text_3">
      <text style="font-size: 18px; font-family: 'DejaVu Serif', 'Times New Roman', serif; text-anchor: middle; fill: #262626" x="206.157704" y="404.517187" transform="rotate(-0 206.157704 404.517187)">−0.2</text>
     </g>
    </g>
    <g id="xtick_4">
     <g id="line2d_7">
      <path d="M 275.543903 380.84 
L 275.543903 57.42 
" clip-path="url(#p6a872b446f)" style="fill: none; stroke: #ffffff; stroke-opacity: 0.4; stroke-linecap: round"/>
     </g>
     <g id="line2d_8">
      <g>
       <use xlink:href="#mf9b6bbf5e3" x="275.543903" y="380.84" style="fill: #808080; stroke: #808080"/>
      </g>
     </g>
     <g id="text_4">
      <text style="font-size: 18px; font-family: 'DejaVu Serif', 'Times New Roman', serif; text-anchor: middle; fill: #262626" x="275.543903" y="404.517187" transform="rotate(-0 275.543903 404.517187)">−0.1</text>
     </g>
    </g>
    <g id="xtick_5">
     <g id="line2d_9">
      <path d="M 344.930101 380.84 
L 344.930101 57.42 
" clip-path="url(#p6a872b446f)" style="fill: none; stroke: #ffffff; stroke-opacity: 0.4; stroke-linecap: round"/>
     </g>
     <g id="line2d_10">
      <g>
       <use xlink:href="#mf9b6bbf5e3" x="344.930101" y="380.84" style="fill: #808080; stroke: #808080"/>
      </g>
     </g>
     <g id="text_5">
      <text style="font-size: 18px; font-family: 'DejaVu Serif', 'Times New Roman', serif; text-anchor: middle; fill: #262626" x="344.930101" y="404.517187" transform="rotate(-0 344.930101 404.517187)">0.0</text>
     </g>
    </g>
    <g id="xtick_6">
     <g id="line2d_11">
      <path d="M 414.3163 380.84 
L 414.3163 57.42 
" clip-path="url(#p6a872b446f)" style="fill: none; stroke: #ffffff; stroke-opacity: 0.4; stroke-linecap: round"/>
     </g>
     <g id="line2d_12">
      <g>
       <use xlink:href="#mf9b6bbf5e3" x="414.3163" y="380.84" style="fill: #808080; stroke: #808080"/>
      </g>
     </g>
     <g id="text_6">
      <text style="font-size: 18px; font-family: 'DejaVu Serif', 'Times New Roman', serif; text-anchor: middle; fill: #262626" x="414.3163" y="404.517187" transform="rotate(-0 414.3163 404.517187)">0.1</text>
     </g>
    </g>
    <g id="xtick_7">
     <g id="line2d_13">
      <path d="M 483.702498 380.84 
L 483.702498 57.42 
" clip-path="url(#p6a872b446f)" style="fill: none; stroke: #ffffff; stroke-opacity: 0.4; stroke-linecap: round"/>
     </g>
     <g id="line2d_14">
      <g>
       <use xlink:href="#mf9b6bbf5e3" x="483.702498" y="380.84" style="fill: #808080; stroke: #808080"/>
      </g>
     </g>
     <g id="text_7">
      <text style="font-size: 18px; font-family: 'DejaVu Serif', 'Times New Roman', serif; text-anchor: middle; fill: #262626" x="483.702498" y="404.517187" transform="rotate(-0 483.702498 404.517187)">0.2</text>
     </g>
    </g>
   </g>
   <g id="matplotlib.axis_2"/>
   <g id="FillBetweenPolyCollection_1">
    <defs>
     <path id="m7db0f9decd" d="M 47.781818 -65.860909 
L 47.781818 -68.298292 
L 48.722007 -68.299683 
L 49.662195 -68.302482 
L 50.602384 -68.305982 
L 51.542572 -68.310204 
L 52.482761 -68.315153 
L 53.42295 -68.320813 
L 54.363138 -68.32714 
L 55.303327 -68.331301 
L 56.243515 -68.339315 
L 57.183704 -68.351062 
L 58.123893 -68.360286 
L 59.064081 -68.36958 
L 60.00427 -68.378738 
L 60.944458 -68.387523 
L 61.884647 -68.395667 
L 62.824835 -68.402886 
L 63.765024 -68.409626 
L 64.705213 -68.419119 
L 65.645401 -68.422266 
L 66.58559 -68.427789 
L 67.525778 -68.43135 
L 68.465967 -68.432894 
L 69.406155 -68.429639 
L 70.346344 -68.42773 
L 71.286533 -68.427259 
L 72.226721 -68.422255 
L 73.16691 -68.415682 
L 74.107098 -68.407774 
L 75.047287 -68.3988 
L 75.987476 -68.392559 
L 76.927664 -68.38326 
L 77.867853 -68.377518 
L 78.808041 -68.369579 
L 79.74823 -68.362569 
L 80.688418 -68.360341 
L 81.628607 -68.354348 
L 82.568796 -68.360807 
L 83.508984 -68.364307 
L 84.449173 -68.370678 
L 85.389361 -68.377407 
L 86.32955 -68.38805 
L 87.269738 -68.4124 
L 88.209927 -68.438376 
L 89.150116 -68.465518 
L 90.090304 -68.49741 
L 91.030493 -68.537608 
L 91.970681 -68.579287 
L 92.91087 -68.632225 
L 93.851059 -68.684177 
L 94.791247 -68.740639 
L 95.731436 -68.801546 
L 96.671624 -68.870311 
L 97.611813 -68.944217 
L 98.552001 -69.019807 
L 99.49219 -69.099726 
L 100.432379 -69.187338 
L 101.372567 -69.2869 
L 102.312756 -69.386966 
L 103.252944 -69.50018 
L 104.193133 -69.613737 
L 105.133321 -69.733369 
L 106.07351 -69.850257 
L 107.013699 -69.986478 
L 107.953887 -70.123632 
L 108.894076 -70.277886 
L 109.834264 -70.440823 
L 110.774453 -70.609598 
L 111.714642 -70.791022 
L 112.65483 -70.983064 
L 113.595019 -71.175988 
L 114.535207 -71.378404 
L 115.475396 -71.597615 
L 116.415584 -71.825916 
L 117.355773 -72.063008 
L 118.295962 -72.314685 
L 119.23615 -72.592581 
L 120.176339 -72.886641 
L 121.116527 -73.190905 
L 122.056716 -73.504639 
L 122.996904 -73.838018 
L 123.937093 -74.188783 
L 124.877282 -74.550366 
L 125.81747 -74.942356 
L 126.757659 -75.353524 
L 127.697847 -75.777341 
L 128.638036 -76.215873 
L 129.578225 -76.689133 
L 130.518413 -77.162631 
L 131.458602 -77.662732 
L 132.39879 -78.184198 
L 133.338979 -78.721055 
L 134.279167 -79.282369 
L 135.219356 -79.861391 
L 136.159545 -80.464595 
L 137.099733 -81.086226 
L 138.039922 -81.715587 
L 138.98011 -82.356856 
L 139.920299 -83.009291 
L 140.860487 -83.675535 
L 141.800676 -84.375843 
L 142.740865 -85.082695 
L 143.681053 -85.807204 
L 144.621242 -86.546992 
L 145.56143 -87.295619 
L 146.501619 -88.062537 
L 147.441808 -88.860477 
L 148.381996 -89.665932 
L 149.322185 -90.497376 
L 150.262373 -91.350877 
L 151.202562 -92.217628 
L 152.14275 -93.107943 
L 153.082939 -94.040614 
L 154.023128 -94.989834 
L 154.963316 -95.975036 
L 155.903505 -96.977475 
L 156.843693 -98.027176 
L 157.783882 -99.101033 
L 158.72407 -100.201556 
L 159.664259 -101.348118 
L 160.604448 -102.538776 
L 161.544636 -103.744389 
L 162.484825 -105.001404 
L 163.425013 -106.266014 
L 164.365202 -107.565752 
L 165.30539 -108.894632 
L 166.245579 -110.243582 
L 167.185768 -111.619708 
L 168.125956 -113.020258 
L 169.066145 -114.419401 
L 170.006333 -115.836881 
L 170.946522 -117.258518 
L 171.886711 -118.69371 
L 172.826899 -120.110493 
L 173.767088 -121.525508 
L 174.707276 -122.941923 
L 175.647465 -124.326603 
L 176.587653 -125.710755 
L 177.527842 -127.052341 
L 178.468031 -128.381685 
L 179.408219 -129.678062 
L 180.348408 -130.961406 
L 181.288596 -132.215475 
L 182.228785 -133.439315 
L 183.168973 -134.637713 
L 184.109162 -135.796138 
L 185.049351 -136.93162 
L 185.989539 -138.0491 
L 186.929728 -139.159361 
L 187.869916 -140.245236 
L 188.810105 -141.327401 
L 189.750294 -142.393145 
L 190.690482 -143.482095 
L 191.630671 -144.566653 
L 192.570859 -145.680049 
L 193.511048 -146.824187 
L 194.451236 -147.982992 
L 195.391425 -149.187697 
L 196.331614 -150.449386 
L 197.271802 -151.753518 
L 198.211991 -153.162412 
L 199.152179 -154.640311 
L 200.092368 -156.203084 
L 201.032556 -157.827273 
L 201.972745 -159.53327 
L 202.912934 -161.334646 
L 203.853122 -163.252969 
L 204.793311 -165.26085 
L 205.733499 -167.334936 
L 206.673688 -169.514008 
L 207.613877 -171.775237 
L 208.554065 -174.088269 
L 209.494254 -176.475283 
L 210.434442 -178.954634 
L 211.374631 -181.494469 
L 212.314819 -184.063633 
L 213.255008 -186.68761 
L 214.195197 -189.344424 
L 215.135385 -192.01564 
L 216.075574 -194.704628 
L 217.015762 -197.394741 
L 217.955951 -200.086137 
L 218.896139 -202.756699 
L 219.836328 -205.436807 
L 220.776517 -208.083287 
L 221.716705 -210.721972 
L 222.656894 -213.325476 
L 223.597082 -215.897615 
L 224.537271 -218.4881 
L 225.47746 -221.053225 
L 226.417648 -223.598359 
L 227.357837 -226.122761 
L 228.298025 -228.665063 
L 229.238214 -231.191238 
L 230.178402 -233.705896 
L 231.118591 -236.250044 
L 232.05878 -238.793219 
L 232.998968 -241.320654 
L 233.939157 -243.840004 
L 234.879345 -246.414631 
L 235.819534 -248.984845 
L 236.759722 -251.57398 
L 237.699911 -254.211019 
L 238.6401 -256.840073 
L 239.580288 -259.484703 
L 240.520477 -262.118382 
L 241.460665 -264.755179 
L 242.400854 -267.422933 
L 243.341043 -270.095767 
L 244.281231 -272.731483 
L 245.22142 -275.375297 
L 246.161608 -278.005445 
L 247.101797 -280.580619 
L 248.041985 -283.150217 
L 248.982174 -285.690379 
L 249.922363 -288.219895 
L 250.862551 -290.678178 
L 251.80274 -293.138047 
L 252.742928 -295.55591 
L 253.683117 -297.943728 
L 254.623305 -300.286098 
L 255.563494 -302.567541 
L 256.503683 -304.821339 
L 257.443871 -307.03789 
L 258.38406 -309.226394 
L 259.324248 -311.341498 
L 260.264437 -313.438451 
L 261.204626 -315.482493 
L 262.144814 -317.487026 
L 263.085003 -319.457096 
L 264.025191 -321.37464 
L 264.96538 -323.262046 
L 265.905568 -325.141715 
L 266.845757 -326.94927 
L 267.785946 -328.725473 
L 268.726134 -330.430802 
L 269.666323 -332.094294 
L 270.606511 -333.711867 
L 271.5467 -335.238738 
L 272.486888 -336.689887 
L 273.427077 -338.148758 
L 274.367266 -339.487989 
L 275.307454 -340.789901 
L 276.247643 -342.009163 
L 277.187831 -343.248188 
L 278.12802 -344.40144 
L 279.068209 -345.459559 
L 280.008397 -346.511417 
L 280.948586 -347.468707 
L 281.888774 -348.384109 
L 282.828963 -349.281099 
L 283.769151 -350.106086 
L 284.70934 -350.918065 
L 285.649529 -351.654056 
L 286.589717 -352.369577 
L 287.529906 -353.0496 
L 288.470094 -353.717424 
L 289.410283 -354.321428 
L 290.350471 -354.937409 
L 291.29066 -355.532304 
L 292.230849 -356.089082 
L 293.171037 -356.625607 
L 294.111226 -357.114053 
L 295.051414 -357.585729 
L 295.991603 -358.047236 
L 296.931791 -358.449737 
L 297.87198 -358.825209 
L 298.812169 -359.161685 
L 299.752357 -359.430931 
L 300.692546 -359.648027 
L 301.632734 -359.780563 
L 302.572923 -359.834233 
L 303.513112 -359.879091 
L 304.4533 -359.784207 
L 305.393489 -359.622718 
L 306.333677 -359.412012 
L 307.273866 -359.076014 
L 308.214054 -358.645978 
L 309.154243 -358.133578 
L 310.094432 -357.565481 
L 311.03462 -356.846767 
L 311.974809 -356.074304 
L 312.914997 -355.192683 
L 313.855186 -354.218647 
L 314.795374 -353.181759 
L 315.735563 -352.063221 
L 316.675752 -350.908696 
L 317.61594 -349.654715 
L 318.556129 -348.328683 
L 319.496317 -346.938983 
L 320.436506 -345.523485 
L 321.376695 -344.05296 
L 322.316883 -342.5368 
L 323.257072 -341.005679 
L 324.19726 -339.40689 
L 325.137449 -337.816813 
L 326.077637 -336.166678 
L 327.017826 -334.525037 
L 327.958015 -332.826185 
L 328.898203 -331.108959 
L 329.838392 -329.394057 
L 330.77858 -327.651495 
L 331.718769 -325.914253 
L 332.658957 -324.14958 
L 333.599146 -322.328706 
L 334.539335 -320.483974 
L 335.479523 -318.629423 
L 336.419712 -316.742948 
L 337.3599 -314.810797 
L 338.300089 -312.839432 
L 339.240278 -310.791388 
L 340.180466 -308.729145 
L 341.120655 -306.594589 
L 342.060843 -304.400696 
L 343.001032 -302.153971 
L 343.94122 -299.839719 
L 344.881409 -297.495005 
L 345.821598 -295.077574 
L 346.761786 -292.582769 
L 347.701975 -290.046421 
L 348.642163 -287.462739 
L 349.582352 -284.750643 
L 350.52254 -282.00195 
L 351.462729 -279.178198 
L 352.402918 -276.33379 
L 353.343106 -273.352966 
L 354.283295 -270.357518 
L 355.223483 -267.353614 
L 356.163672 -264.231997 
L 357.103861 -261.157897 
L 358.044049 -258.040115 
L 358.984238 -254.847941 
L 359.924426 -251.66387 
L 360.864615 -248.458907 
L 361.804803 -245.285066 
L 362.744992 -242.065376 
L 363.685181 -238.874967 
L 364.625369 -235.69247 
L 365.565558 -232.550064 
L 366.505746 -229.425382 
L 367.445935 -226.30984 
L 368.386123 -223.244575 
L 369.326312 -220.216412 
L 370.266501 -217.229045 
L 371.206689 -214.28903 
L 372.146878 -211.360018 
L 373.087066 -208.504863 
L 374.027255 -205.691107 
L 374.967444 -202.922933 
L 375.907632 -200.203582 
L 376.847821 -197.518888 
L 377.788009 -194.911385 
L 378.728198 -192.384212 
L 379.668386 -189.843528 
L 380.608575 -187.398804 
L 381.548764 -184.992191 
L 382.488952 -182.629558 
L 383.429141 -180.336449 
L 384.369329 -178.101247 
L 385.309518 -175.898888 
L 386.249706 -173.74297 
L 387.189895 -171.658642 
L 388.130084 -169.605075 
L 389.070272 -167.613309 
L 390.010461 -165.678446 
L 390.950649 -163.77142 
L 391.890838 -161.955153 
L 392.831027 -160.146208 
L 393.771215 -158.426593 
L 394.711404 -156.740926 
L 395.651592 -155.112344 
L 396.591781 -153.538141 
L 397.531969 -151.99969 
L 398.472158 -150.510463 
L 399.412347 -149.067914 
L 400.352535 -147.663223 
L 401.292724 -146.275653 
L 402.232912 -144.941608 
L 403.173101 -143.645753 
L 404.113289 -142.390851 
L 405.053478 -141.149372 
L 405.993667 -139.926426 
L 406.933855 -138.743883 
L 407.874044 -137.583946 
L 408.814232 -136.427488 
L 409.754421 -135.314734 
L 410.69461 -134.216255 
L 411.634798 -133.121659 
L 412.574987 -132.018666 
L 413.515175 -130.932503 
L 414.455364 -129.845097 
L 415.395552 -128.773613 
L 416.335741 -127.680447 
L 417.27593 -126.583098 
L 418.216118 -125.466474 
L 419.156307 -124.346516 
L 420.096495 -123.213278 
L 421.036684 -122.050388 
L 421.976872 -120.879533 
L 422.917061 -119.702808 
L 423.85725 -118.487363 
L 424.797438 -117.238534 
L 425.737627 -115.98717 
L 426.677815 -114.710463 
L 427.618004 -113.410491 
L 428.558192 -112.078643 
L 429.498381 -110.764336 
L 430.43857 -109.425121 
L 431.378758 -108.06326 
L 432.318947 -106.712609 
L 433.259135 -105.3317 
L 434.199324 -103.965648 
L 435.139513 -102.627306 
L 436.079701 -101.289079 
L 437.01989 -99.962729 
L 437.960078 -98.638228 
L 438.900267 -97.342152 
L 439.840455 -96.062778 
L 440.780644 -94.824508 
L 441.720833 -93.617173 
L 442.661021 -92.420654 
L 443.60121 -91.28828 
L 444.541398 -90.183129 
L 445.481587 -89.111499 
L 446.421775 -88.083072 
L 447.361964 -87.103854 
L 448.302153 -86.152897 
L 449.242341 -85.259785 
L 450.18253 -84.390029 
L 451.122718 -83.568766 
L 452.062907 -82.793345 
L 453.003096 -82.047524 
L 453.943284 -81.340351 
L 454.883473 -80.650989 
L 455.823661 -80.012525 
L 456.76385 -79.401606 
L 457.704038 -78.823844 
L 458.644227 -78.274317 
L 459.584416 -77.752168 
L 460.524604 -77.272964 
L 461.464793 -76.820913 
L 462.404981 -76.380463 
L 463.34517 -75.955659 
L 464.285358 -75.557643 
L 465.225547 -75.186507 
L 466.165736 -74.83088 
L 467.105924 -74.509105 
L 468.046113 -74.186229 
L 468.986301 -73.891969 
L 469.92649 -73.596162 
L 470.866679 -73.308619 
L 471.806867 -73.031327 
L 472.747056 -72.765654 
L 473.687244 -72.515274 
L 474.627433 -72.269861 
L 475.567621 -72.028962 
L 476.50781 -71.791488 
L 477.447999 -71.557195 
L 478.388187 -71.323185 
L 479.328376 -71.090033 
L 480.268564 -70.863838 
L 481.208753 -70.64398 
L 482.148941 -70.430102 
L 483.08913 -70.213776 
L 484.029319 -69.999604 
L 484.969507 -69.794131 
L 485.909696 -69.599868 
L 486.849884 -69.399551 
L 487.790073 -69.215672 
L 488.730262 -69.041111 
L 489.67045 -68.870312 
L 490.610639 -68.707991 
L 491.550827 -68.558055 
L 492.491016 -68.413991 
L 493.431204 -68.278815 
L 494.371393 -68.15544 
L 495.311582 -68.037787 
L 496.25177 -67.932047 
L 497.191959 -67.831921 
L 498.132147 -67.737876 
L 499.072336 -67.655685 
L 500.012524 -67.58422 
L 500.952713 -67.519683 
L 501.892902 -67.458954 
L 502.83309 -67.407756 
L 503.773279 -67.359406 
L 504.713467 -67.319593 
L 505.653656 -67.281625 
L 506.593845 -67.248439 
L 507.534033 -67.225763 
L 508.474222 -67.200867 
L 509.41441 -67.182317 
L 510.354599 -67.166326 
L 511.294787 -67.149864 
L 512.234976 -67.136045 
L 513.175165 -67.12451 
L 514.115353 -67.121205 
L 515.055542 -67.113612 
L 515.99573 -67.110496 
L 516.935919 -67.105486 
L 517.876107 -67.10184 
L 518.816296 -67.102087 
L 519.756485 -67.102645 
L 520.696673 -67.100664 
L 521.636862 -67.102173 
L 522.57705 -67.103581 
L 523.517239 -67.102034 
L 524.457428 -67.103565 
L 525.397616 -67.1081 
L 526.337805 -67.109473 
L 527.277993 -67.11041 
L 528.218182 -67.110885 
L 528.218182 -65.860909 
L 528.218182 -65.860909 
L 527.277993 -65.860909 
L 526.337805 -65.860909 
L 525.397616 -65.860909 
L 524.457428 -65.860909 
L 523.517239 -65.860909 
L 522.57705 -65.860909 
L 521.636862 -65.860909 
L 520.696673 -65.860909 
L 519.756485 -65.860909 
L 518.816296 -65.860909 
L 517.876107 -65.860909 
L 516.935919 -65.860909 
L 515.99573 -65.860909 
L 515.055542 -65.860909 
L 514.115353 -65.860909 
L 513.175165 -65.860909 
L 512.234976 -65.860909 
L 511.294787 -65.860909 
L 510.354599 -65.860909 
L 509.41441 -65.860909 
L 508.474222 -65.860909 
L 507.534033 -65.860909 
L 506.593845 -65.860909 
L 505.653656 -65.860909 
L 504.713467 -65.860909 
L 503.773279 -65.860909 
L 502.83309 -65.860909 
L 501.892902 -65.860909 
L 500.952713 -65.860909 
L 500.012524 -65.860909 
L 499.072336 -65.860909 
L 498.132147 -65.860909 
L 497.191959 -65.860909 
L 496.25177 -65.860909 
L 495.311582 -65.860909 
L 494.371393 -65.860909 
L 493.431204 -65.860909 
L 492.491016 -65.860909 
L 491.550827 -65.860909 
L 490.610639 -65.860909 
L 489.67045 -65.860909 
L 488.730262 -65.860909 
L 487.790073 -65.860909 
L 486.849884 -65.860909 
L 485.909696 -65.860909 
L 484.969507 -65.860909 
L 484.029319 -65.860909 
L 483.08913 -65.860909 
L 482.148941 -65.860909 
L 481.208753 -65.860909 
L 480.268564 -65.860909 
L 479.328376 -65.860909 
L 478.388187 -65.860909 
L 477.447999 -65.860909 
L 476.50781 -65.860909 
L 475.567621 -65.860909 
L 474.627433 -65.860909 
L 473.687244 -65.860909 
L 472.747056 -65.860909 
L 471.806867 -65.860909 
L 470.866679 -65.860909 
L 469.92649 -65.860909 
L 468.986301 -65.860909 
L 468.046113 -65.860909 
L 467.105924 -65.860909 
L 466.165736 -65.860909 
L 465.225547 -65.860909 
L 464.285358 -65.860909 
L 463.34517 -65.860909 
L 462.404981 -65.860909 
L 461.464793 -65.860909 
L 460.524604 -65.860909 
L 459.584416 -65.860909 
L 458.644227 -65.860909 
L 457.704038 -65.860909 
L 456.76385 -65.860909 
L 455.823661 -65.860909 
L 454.883473 -65.860909 
L 453.943284 -65.860909 
L 453.003096 -65.860909 
L 452.062907 -65.860909 
L 451.122718 -65.860909 
L 450.18253 -65.860909 
L 449.242341 -65.860909 
L 448.302153 -65.860909 
L 447.361964 -65.860909 
L 446.421775 -65.860909 
L 445.481587 -65.860909 
L 444.541398 -65.860909 
L 443.60121 -65.860909 
L 442.661021 -65.860909 
L 441.720833 -65.860909 
L 440.780644 -65.860909 
L 439.840455 -65.860909 
L 438.900267 -65.860909 
L 437.960078 -65.860909 
L 437.01989 -65.860909 
L 436.079701 -65.860909 
L 435.139513 -65.860909 
L 434.199324 -65.860909 
L 433.259135 -65.860909 
L 432.318947 -65.860909 
L 431.378758 -65.860909 
L 430.43857 -65.860909 
L 429.498381 -65.860909 
L 428.558192 -65.860909 
L 427.618004 -65.860909 
L 426.677815 -65.860909 
L 425.737627 -65.860909 
L 424.797438 -65.860909 
L 423.85725 -65.860909 
L 422.917061 -65.860909 
L 421.976872 -65.860909 
L 421.036684 -65.860909 
L 420.096495 -65.860909 
L 419.156307 -65.860909 
L 418.216118 -65.860909 
L 417.27593 -65.860909 
L 416.335741 -65.860909 
L 415.395552 -65.860909 
L 414.455364 -65.860909 
L 413.515175 -65.860909 
L 412.574987 -65.860909 
L 411.634798 -65.860909 
L 410.69461 -65.860909 
L 409.754421 -65.860909 
L 408.814232 -65.860909 
L 407.874044 -65.860909 
L 406.933855 -65.860909 
L 405.993667 -65.860909 
L 405.053478 -65.860909 
L 404.113289 -65.860909 
L 403.173101 -65.860909 
L 402.232912 -65.860909 
L 401.292724 -65.860909 
L 400.352535 -65.860909 
L 399.412347 -65.860909 
L 398.472158 -65.860909 
L 397.531969 -65.860909 
L 396.591781 -65.860909 
L 395.651592 -65.860909 
L 394.711404 -65.860909 
L 393.771215 -65.860909 
L 392.831027 -65.860909 
L 391.890838 -65.860909 
L 390.950649 -65.860909 
L 390.010461 -65.860909 
L 389.070272 -65.860909 
L 388.130084 -65.860909 
L 387.189895 -65.860909 
L 386.249706 -65.860909 
L 385.309518 -65.860909 
L 384.369329 -65.860909 
L 383.429141 -65.860909 
L 382.488952 -65.860909 
L 381.548764 -65.860909 
L 380.608575 -65.860909 
L 379.668386 -65.860909 
L 378.728198 -65.860909 
L 377.788009 -65.860909 
L 376.847821 -65.860909 
L 375.907632 -65.860909 
L 374.967444 -65.860909 
L 374.027255 -65.860909 
L 373.087066 -65.860909 
L 372.146878 -65.860909 
L 371.206689 -65.860909 
L 370.266501 -65.860909 
L 369.326312 -65.860909 
L 368.386123 -65.860909 
L 367.445935 -65.860909 
L 366.505746 -65.860909 
L 365.565558 -65.860909 
L 364.625369 -65.860909 
L 363.685181 -65.860909 
L 362.744992 -65.860909 
L 361.804803 -65.860909 
L 360.864615 -65.860909 
L 359.924426 -65.860909 
L 358.984238 -65.860909 
L 358.044049 -65.860909 
L 357.103861 -65.860909 
L 356.163672 -65.860909 
L 355.223483 -65.860909 
L 354.283295 -65.860909 
L 353.343106 -65.860909 
L 352.402918 -65.860909 
L 351.462729 -65.860909 
L 350.52254 -65.860909 
L 349.582352 -65.860909 
L 348.642163 -65.860909 
L 347.701975 -65.860909 
L 346.761786 -65.860909 
L 345.821598 -65.860909 
L 344.881409 -65.860909 
L 343.94122 -65.860909 
L 343.001032 -65.860909 
L 342.060843 -65.860909 
L 341.120655 -65.860909 
L 340.180466 -65.860909 
L 339.240278 -65.860909 
L 338.300089 -65.860909 
L 337.3599 -65.860909 
L 336.419712 -65.860909 
L 335.479523 -65.860909 
L 334.539335 -65.860909 
L 333.599146 -65.860909 
L 332.658957 -65.860909 
L 331.718769 -65.860909 
L 330.77858 -65.860909 
L 329.838392 -65.860909 
L 328.898203 -65.860909 
L 327.958015 -65.860909 
L 327.017826 -65.860909 
L 326.077637 -65.860909 
L 325.137449 -65.860909 
L 324.19726 -65.860909 
L 323.257072 -65.860909 
L 322.316883 -65.860909 
L 321.376695 -65.860909 
L 320.436506 -65.860909 
L 319.496317 -65.860909 
L 318.556129 -65.860909 
L 317.61594 -65.860909 
L 316.675752 -65.860909 
L 315.735563 -65.860909 
L 314.795374 -65.860909 
L 313.855186 -65.860909 
L 312.914997 -65.860909 
L 311.974809 -65.860909 
L 311.03462 -65.860909 
L 310.094432 -65.860909 
L 309.154243 -65.860909 
L 308.214054 -65.860909 
L 307.273866 -65.860909 
L 306.333677 -65.860909 
L 305.393489 -65.860909 
L 304.4533 -65.860909 
L 303.513112 -65.860909 
L 302.572923 -65.860909 
L 301.632734 -65.860909 
L 300.692546 -65.860909 
L 299.752357 -65.860909 
L 298.812169 -65.860909 
L 297.87198 -65.860909 
L 296.931791 -65.860909 
L 295.991603 -65.860909 
L 295.051414 -65.860909 
L 294.111226 -65.860909 
L 293.171037 -65.860909 
L 292.230849 -65.860909 
L 291.29066 -65.860909 
L 290.350471 -65.860909 
L 289.410283 -65.860909 
L 288.470094 -65.860909 
L 287.529906 -65.860909 
L 286.589717 -65.860909 
L 285.649529 -65.860909 
L 284.70934 -65.860909 
L 283.769151 -65.860909 
L 282.828963 -65.860909 
L 281.888774 -65.860909 
L 280.948586 -65.860909 
L 280.008397 -65.860909 
L 279.068209 -65.860909 
L 278.12802 -65.860909 
L 277.187831 -65.860909 
L 276.247643 -65.860909 
L 275.307454 -65.860909 
L 274.367266 -65.860909 
L 273.427077 -65.860909 
L 272.486888 -65.860909 
L 271.5467 -65.860909 
L 270.606511 -65.860909 
L 269.666323 -65.860909 
L 268.726134 -65.860909 
L 267.785946 -65.860909 
L 266.845757 -65.860909 
L 265.905568 -65.860909 
L 264.96538 -65.860909 
L 264.025191 -65.860909 
L 263.085003 -65.860909 
L 262.144814 -65.860909 
L 261.204626 -65.860909 
L 260.264437 -65.860909 
L 259.324248 -65.860909 
L 258.38406 -65.860909 
L 257.443871 -65.860909 
L 256.503683 -65.860909 
L 255.563494 -65.860909 
L 254.623305 -65.860909 
L 253.683117 -65.860909 
L 252.742928 -65.860909 
L 251.80274 -65.860909 
L 250.862551 -65.860909 
L 249.922363 -65.860909 
L 248.982174 -65.860909 
L 248.041985 -65.860909 
L 247.101797 -65.860909 
L 246.161608 -65.860909 
L 245.22142 -65.860909 
L 244.281231 -65.860909 
L 243.341043 -65.860909 
L 242.400854 -65.860909 
L 241.460665 -65.860909 
L 240.520477 -65.860909 
L 239.580288 -65.860909 
L 238.6401 -65.860909 
L 237.699911 -65.860909 
L 236.759722 -65.860909 
L 235.819534 -65.860909 
L 234.879345 -65.860909 
L 233.939157 -65.860909 
L 232.998968 -65.860909 
L 232.05878 -65.860909 
L 231.118591 -65.860909 
L 230.178402 -65.860909 
L 229.238214 -65.860909 
L 228.298025 -65.860909 
L 227.357837 -65.860909 
L 226.417648 -65.860909 
L 225.47746 -65.860909 
L 224.537271 -65.860909 
L 223.597082 -65.860909 
L 222.656894 -65.860909 
L 221.716705 -65.860909 
L 220.776517 -65.860909 
L 219.836328 -65.860909 
L 218.896139 -65.860909 
L 217.955951 -65.860909 
L 217.015762 -65.860909 
L 216.075574 -65.860909 
L 215.135385 -65.860909 
L 214.195197 -65.860909 
L 213.255008 -65.860909 
L 212.314819 -65.860909 
L 211.374631 -65.860909 
L 210.434442 -65.860909 
L 209.494254 -65.860909 
L 208.554065 -65.860909 
L 207.613877 -65.860909 
L 206.673688 -65.860909 
L 205.733499 -65.860909 
L 204.793311 -65.860909 
L 203.853122 -65.860909 
L 202.912934 -65.860909 
L 201.972745 -65.860909 
L 201.032556 -65.860909 
L 200.092368 -65.860909 
L 199.152179 -65.860909 
L 198.211991 -65.860909 
L 197.271802 -65.860909 
L 196.331614 -65.860909 
L 195.391425 -65.860909 
L 194.451236 -65.860909 
L 193.511048 -65.860909 
L 192.570859 -65.860909 
L 191.630671 -65.860909 
L 190.690482 -65.860909 
L 189.750294 -65.860909 
L 188.810105 -65.860909 
L 187.869916 -65.860909 
L 186.929728 -65.860909 
L 185.989539 -65.860909 
L 185.049351 -65.860909 
L 184.109162 -65.860909 
L 183.168973 -65.860909 
L 182.228785 -65.860909 
L 181.288596 -65.860909 
L 180.348408 -65.860909 
L 179.408219 -65.860909 
L 178.468031 -65.860909 
L 177.527842 -65.860909 
L 176.587653 -65.860909 
L 175.647465 -65.860909 
L 174.707276 -65.860909 
L 173.767088 -65.860909 
L 172.826899 -65.860909 
L 171.886711 -65.860909 
L 170.946522 -65.860909 
L 170.006333 -65.860909 
L 169.066145 -65.860909 
L 168.125956 -65.860909 
L 167.185768 -65.860909 
L 166.245579 -65.860909 
L 165.30539 -65.860909 
L 164.365202 -65.860909 
L 163.425013 -65.860909 
L 162.484825 -65.860909 
L 161.544636 -65.860909 
L 160.604448 -65.860909 
L 159.664259 -65.860909 
L 158.72407 -65.860909 
L 157.783882 -65.860909 
L 156.843693 -65.860909 
L 155.903505 -65.860909 
L 154.963316 -65.860909 
L 154.023128 -65.860909 
L 153.082939 -65.860909 
L 152.14275 -65.860909 
L 151.202562 -65.860909 
L 150.262373 -65.860909 
L 149.322185 -65.860909 
L 148.381996 -65.860909 
L 147.441808 -65.860909 
L 146.501619 -65.860909 
L 145.56143 -65.860909 
L 144.621242 -65.860909 
L 143.681053 -65.860909 
L 142.740865 -65.860909 
L 141.800676 -65.860909 
L 140.860487 -65.860909 
L 139.920299 -65.860909 
L 138.98011 -65.860909 
L 138.039922 -65.860909 
L 137.099733 -65.860909 
L 136.159545 -65.860909 
L 135.219356 -65.860909 
L 134.279167 -65.860909 
L 133.338979 -65.860909 
L 132.39879 -65.860909 
L 131.458602 -65.860909 
L 130.518413 -65.860909 
L 129.578225 -65.860909 
L 128.638036 -65.860909 
L 127.697847 -65.860909 
L 126.757659 -65.860909 
L 125.81747 -65.860909 
L 124.877282 -65.860909 
L 123.937093 -65.860909 
L 122.996904 -65.860909 
L 122.056716 -65.860909 
L 121.116527 -65.860909 
L 120.176339 -65.860909 
L 119.23615 -65.860909 
L 118.295962 -65.860909 
L 117.355773 -65.860909 
L 116.415584 -65.860909 
L 115.475396 -65.860909 
L 114.535207 -65.860909 
L 113.595019 -65.860909 
L 112.65483 -65.860909 
L 111.714642 -65.860909 
L 110.774453 -65.860909 
L 109.834264 -65.860909 
L 108.894076 -65.860909 
L 107.953887 -65.860909 
L 107.013699 -65.860909 
L 106.07351 -65.860909 
L 105.133321 -65.860909 
L 104.193133 -65.860909 
L 103.252944 -65.860909 
L 102.312756 -65.860909 
L 101.372567 -65.860909 
L 100.432379 -65.860909 
L 99.49219 -65.860909 
L 98.552001 -65.860909 
L 97.611813 -65.860909 
L 96.671624 -65.860909 
L 95.731436 -65.860909 
L 94.791247 -65.860909 
L 93.851059 -65.860909 
L 92.91087 -65.860909 
L 91.970681 -65.860909 
L 91.030493 -65.860909 
L 90.090304 -65.860909 
L 89.150116 -65.860909 
L 88.209927 -65.860909 
L 87.269738 -65.860909 
L 86.32955 -65.860909 
L 85.389361 -65.860909 
L 84.449173 -65.860909 
L 83.508984 -65.860909 
L 82.568796 -65.860909 
L 81.628607 -65.860909 
L 80.688418 -65.860909 
L 79.74823 -65.860909 
L 78.808041 -65.860909 
L 77.867853 -65.860909 
L 76.927664 -65.860909 
L 75.987476 -65.860909 
L 75.047287 -65.860909 
L 74.107098 -65.860909 
L 73.16691 -65.860909 
L 72.226721 -65.860909 
L 71.286533 -65.860909 
L 70.346344 -65.860909 
L 69.406155 -65.860909 
L 68.465967 -65.860909 
L 67.525778 -65.860909 
L 66.58559 -65.860909 
L 65.645401 -65.860909 
L 64.705213 -65.860909 
L 63.765024 -65.860909 
L 62.824835 -65.860909 
L 61.884647 -65.860909 
L 60.944458 -65.860909 
L 60.00427 -65.860909 
L 59.064081 -65.860909 
L 58.123893 -65.860909 
L 57.183704 -65.860909 
L 56.243515 -65.860909 
L 55.303327 -65.860909 
L 54.363138 -65.860909 
L 53.42295 -65.860909 
L 52.482761 -65.860909 
L 51.542572 -65.860909 
L 50.602384 -65.860909 
L 49.662195 -65.860909 
L 48.722007 -65.860909 
L 47.781818 -65.860909 
z
" style="stroke: #7570b3; stroke-opacity: 0.6; stroke-width: 0.3"/>
    </defs>
    <g clip-path="url(#p6a872b446f)">
     <use xlink:href="#m7db0f9decd" x="0" y="432" style="fill: #7570b3; fill-opacity: 0.6; stroke: #7570b3; stroke-opacity: 0.6; stroke-width: 0.3"/>
    </g>
   </g>
   <g id="line2d_15">
    <path d="M 47.781818 363.701708 
L 89.150116 363.534482 
L 94.791247 363.259361 
L 100.432379 362.812662 
L 107.013699 362.013522 
L 110.774453 361.390402 
L 115.475396 360.402385 
L 119.23615 359.407419 
L 122.996904 358.161982 
L 126.757659 356.646476 
L 130.518413 354.837369 
L 134.279167 352.717631 
L 138.039922 350.284413 
L 141.800676 347.624157 
L 145.56143 344.704381 
L 149.322185 341.502624 
L 153.082939 337.959386 
L 155.903505 335.022525 
L 158.72407 331.798444 
L 161.544636 328.255611 
L 165.30539 323.105368 
L 169.066145 317.580599 
L 177.527842 304.947659 
L 181.288596 299.784525 
L 185.049351 295.06838 
L 190.690482 288.517905 
L 194.451236 284.017008 
L 197.271802 280.246482 
L 199.152179 277.359689 
L 201.972745 272.46673 
L 203.853122 268.747031 
L 206.673688 262.485992 
L 209.494254 255.524717 
L 213.255008 245.31239 
L 226.417648 208.401641 
L 236.759722 180.42602 
L 249.922363 143.780105 
L 254.623305 131.713902 
L 258.38406 122.773606 
L 262.144814 114.512974 
L 265.905568 106.858285 
L 268.726134 101.569198 
L 271.5467 96.761262 
L 274.367266 92.512011 
L 277.187831 88.751812 
L 279.068209 86.540441 
L 280.948586 84.531293 
L 283.769151 81.893914 
L 285.649529 80.345944 
L 288.470094 78.282576 
L 293.171037 75.374393 
L 295.991603 73.952764 
L 298.812169 72.838315 
L 300.692546 72.351973 
L 302.572923 72.165767 
L 303.513112 72.120909 
L 305.393489 72.377282 
L 306.333677 72.587988 
L 308.214054 73.354022 
L 310.094432 74.434519 
L 311.974809 75.925696 
L 313.855186 77.781353 
L 315.735563 79.936779 
L 317.61594 82.345285 
L 320.436506 86.476515 
L 323.257072 90.994321 
L 327.958015 99.173815 
L 333.599146 109.671294 
L 337.3599 117.189203 
L 340.180466 123.270855 
L 343.001032 129.846029 
L 345.821598 136.922426 
L 348.642163 144.537261 
L 352.402918 155.66621 
L 357.103861 170.842103 
L 361.804803 186.714934 
L 367.445935 205.69016 
L 372.146878 220.639982 
L 375.907632 231.796418 
L 378.728198 239.615788 
L 381.548764 247.007809 
L 384.369329 253.898753 
L 387.189895 260.341358 
L 390.010461 266.321554 
L 392.831027 271.853792 
L 395.651592 276.887656 
L 398.472158 281.489537 
L 402.232912 287.058392 
L 405.993667 292.073574 
L 409.754421 296.685266 
L 421.976872 311.120467 
L 424.797438 314.761466 
L 428.558192 319.921357 
L 433.259135 326.6683 
L 437.960078 333.361772 
L 441.720833 338.382827 
L 444.541398 341.816871 
L 447.361964 344.896146 
L 450.18253 347.609971 
L 453.003096 349.952476 
L 455.823661 351.987475 
L 458.644227 353.725683 
L 461.464793 355.179087 
L 464.285358 356.442357 
L 468.046113 357.813771 
L 473.687244 359.484726 
L 481.208753 361.35602 
L 488.730262 362.958889 
L 493.431204 363.721185 
L 498.132147 364.262124 
L 502.83309 364.592244 
L 508.474222 364.799133 
L 518.816296 364.897913 
L 528.218182 364.889115 
L 528.218182 364.889115 
" clip-path="url(#p6a872b446f)" style="fill: none; stroke: #7570b3; stroke-width: 2; stroke-linecap: round"/>
   </g>
   <g id="line2d_16">
    <path d="M 178.833795 359.964709 
L 396.097035 359.964709 
" clip-path="url(#p6a872b446f)" style="fill: none; stroke: #000000; stroke-width: 3.5"/>
   </g>
   <g id="patch_3">
    <path d="M 23.76 380.84 
L 552.24 380.84 
" style="fill: none; stroke: #333333; stroke-width: 1.5; stroke-linejoin: miter; stroke-linecap: square"/>
   </g>
   <g id="text_8">
    <text style="font-size: 22px; font-family: 'DejaVu Serif', 'Times New Roman', serif; text-anchor: end; fill: #262626" x="178.833795" y="344.528755" transform="rotate(-0 178.833795 344.528755)">-0.24 </text>
   </g>
   <g id="text_9">
    <text style="font-size: 22px; font-family: 'DejaVu Serif', 'Times New Roman', serif; text-anchor: start; fill: #262626" x="396.097035" y="344.528755" transform="rotate(-0 396.097035 344.528755)"> 0.074</text>
   </g>
   <g id="text_10">
    <text style="font-size: 22px; font-family: 'DejaVu Serif', 'Times New Roman', serif; text-anchor: middle; fill: #262626" x="287.465415" y="273.523364" transform="rotate(-0 287.465415 273.523364)">90% HDI</text>
   </g>
   <g id="text_11">
    <text style="font-size: 22px; font-family: 'DejaVu Serif', 'Times New Roman', serif; text-anchor: middle; fill: #262626" x="297.057557" y="119.163818" transform="rotate(-0 297.057557 119.163818)">mean=-0.069</text>
   </g>
   <g id="text_12">
    <!-- $x_1^2x_2^2x_3$ -->
    <g style="fill: #262626" transform="translate(241.94 49.58)">
     <text>
      <tspan x="0" y="-0.734375" style="font-style: oblique; font-size: 28px; font-family: 'DejaVu Sans'; fill: #262626">x</tspan>
      <tspan x="31.056576" y="-0.734375" style="font-style: oblique; font-size: 28px; font-family: 'DejaVu Sans'; fill: #262626">x</tspan>
      <tspan x="62.113151" y="-0.734375" style="font-style: oblique; font-size: 28px; font-family: 'DejaVu Sans'; fill: #262626">x</tspan>
      <tspan x="16.570312" y="6.921875" style="font-size: 19.6px; font-family: 'DejaVu Sans'; fill: #262626">1</tspan>
      <tspan x="17.820833" y="-11.453125" style="font-size: 19.6px; font-family: 'DejaVu Sans'; fill: #262626">2</tspan>
      <tspan x="47.626888" y="6.921875" style="font-size: 19.6px; font-family: 'DejaVu Sans'; fill: #262626">2</tspan>
      <tspan x="48.877409" y="-11.453125" style="font-size: 19.6px; font-family: 'DejaVu Sans'; fill: #262626">2</tspan>
      <tspan x="78.683464" y="3.859375" style="font-size: 19.6px; font-family: 'DejaVu Sans'; fill: #262626">3</tspan>
     </text>
    </g>
   </g>
  </g>
 </g>
 <defs>
  <clipPath id="p6a872b446f">
   <rect x="23.76" y="57.42" width="528.48" height="323.42"/>
  </clipPath>
 </defs>
</svg>
