<?xml version="1.0" encoding="utf-8" standalone="no"?>
<!DOCTYPE svg PUBLIC "-//W3C//DTD SVG 1.1//EN"
  "http://www.w3.org/Graphics/SVG/1.1/DTD/svg11.dtd">
<svg xmlns:xlink="http://www.w3.org/1999/xlink" width="576pt" height="432pt" viewBox="0 0 576 432" xmlns="http://www.w3.org/2000/svg" version="1.1">
 <metadata>
  <rdf:RDF xmlns:dc="http://purl.org/dc/elements/1.1/" xmlns:cc="http://creativecommons.org/ns#" xmlns:rdf="http://www.w3.org/1999/02/22-rdf-syntax-ns#">
   <cc:Work>
    <dc:type rdf:resource="http://purl.org/dc/dcmitype/StillImage"/>
    <dc:date>2025-09-22T22:41:52.562302</dc:date>
    <dc:format>image/svg+xml</dc:format>
    <dc:creator>
     <cc:Agent>
      <dc:title>Matplotlib v3.10.0, https://matplotlib.org/</dc:title>
     </cc:Agent>
    </dc:creator>
   </cc:Work>
  </rdf:RDF>
 </metadata>
 <defs>
  <style type="text/css">*{stroke-linejoin: round; stroke-linecap: butt}</style>
 </defs>
 <g id="figure_1">
  <g id="patch_1">
   <path d="M 0 432 
L 576 432 
L 576 0 
L 0 0 
L 0 432 
z
" style="fill: none; opacity: 0"/>
  </g>
  <g id="axes_1">
   <g id="patch_2">
    <path d="M 44.786374 380.84 
L 552.24 380.84 
L 552.24 57.42 
L 44.786374 57.42 
L 44.786374 380.84 
z
" style="fill: none"/>
   </g>
   <g id="matplotlib.axis_1">
    <g id="xtick_1">
     <g id="line2d_1">
      <path d="M 52.224964 380.84 
L 52.224964 57.42 
" clip-path="url(#p84043eb0ba)" style="fill: none; stroke: #ffffff; stroke-opacity: 0.4; stroke-linecap: round"/>
     </g>
     <g id="line2d_2">
      <defs>
       <path id="mdf21b236d6" d="M 0 0 
L 0 3 
" style="stroke: #808080"/>
      </defs>
      <g>
       <use xlink:href="#mdf21b236d6" x="52.224964" y="380.84" style="fill: #808080; stroke: #808080"/>
      </g>
     </g>
     <g id="text_1">
      <text style="font-size: 18px; font-family: 'DejaVu Serif', 'Times New Roman', serif; text-anchor: middle; fill: #262626" x="52.224964" y="404.517187" transform="rotate(-0 52.224964 404.517187)">−1.100</text>
     </g>
    </g>
    <g id="xtick_2">
     <g id="line2d_3">
      <path d="M 110.096303 380.84 
L 110.096303 57.42 
" clip-path="url(#p84043eb0ba)" style="fill: none; stroke: #ffffff; stroke-opacity: 0.4; stroke-linecap: round"/>
     </g>
     <g id="line2d_4">
      <g>
       <use xlink:href="#mdf21b236d6" x="110.096303" y="380.84" style="fill: #808080; stroke: #808080"/>
      </g>
     </g>
     <g id="text_2">
      <text style="font-size: 18px; font-family: 'DejaVu Serif', 'Times New Roman', serif; text-anchor: middle; fill: #262626" x="110.096303" y="404.517187" transform="rotate(-0 110.096303 404.517187)">−1.075</text>
     </g>
    </g>
    <g id="xtick_3">
     <g id="line2d_5">
      <path d="M 167.967641 380.84 
L 167.967641 57.42 
" clip-path="url(#p84043eb0ba)" style="fill: none; stroke: #ffffff; stroke-opacity: 0.4; stroke-linecap: round"/>
     </g>
     <g id="line2d_6">
      <g>
       <use xlink:href="#mdf21b236d6" x="167.967641" y="380.84" style="fill: #808080; stroke: #808080"/>
      </g>
     </g>
     <g id="text_3">
      <text style="font-size: 18px; font-family: 'DejaVu Serif', 'Times New Roman', serif; text-anchor: middle; fill: #262626" x="167.967641" y="404.517187" transform="rotate(-0 167.967641 404.517187)">−1.050</text>
     </g>
    </g>
    <g id="xtick_4">
     <g id="line2d_7">
      <path d="M 225.83898 380.84 
L 225.83898 57.42 
" clip-path="url(#p84043eb0ba)" style="fill: none; stroke: #ffffff; stroke-opacity: 0.4; stroke-linecap: round"/>
     </g>
     <g id="line2d_8">
      <g>
       <use xlink:href="#mdf21b236d6" x="225.83898" y="380.84" style="fill: #808080; stroke: #808080"/>
      </g>
     </g>
     <g id="text_4">
      <text style="font-size: 18px; font-family: 'DejaVu Serif', 'Times New Roman', serif; text-anchor: middle; fill: #262626" x="225.83898" y="404.517187" transform="rotate(-0 225.83898 404.517187)">−1.025</text>
     </g>
    </g>
    <g id="xtick_5">
     <g id="line2d_9">
      <path d="M 283.710318 380.84 
L 283.710318 57.42 
" clip-path="url(#p84043eb0ba)" style="fill: none; stroke: #ffffff; stroke-opacity: 0.4; stroke-linecap: round"/>
     </g>
     <g id="line2d_10">
      <g>
       <use xlink:href="#mdf21b236d6" x="283.710318" y="380.84" style="fill: #808080; stroke: #808080"/>
      </g>
     </g>
     <g id="text_5">
      <text style="font-size: 18px; font-family: 'DejaVu Serif', 'Times New Roman', serif; text-anchor: middle; fill: #262626" x="283.710318" y="404.517187" transform="rotate(-0 283.710318 404.517187)">−1.000</text>
     </g>
    </g>
    <g id="xtick_6">
     <g id="line2d_11">
      <path d="M 341.581657 380.84 
L 341.581657 57.42 
" clip-path="url(#p84043eb0ba)" style="fill: none; stroke: #ffffff; stroke-opacity: 0.4; stroke-linecap: round"/>
     </g>
     <g id="line2d_12">
      <g>
       <use xlink:href="#mdf21b236d6" x="341.581657" y="380.84" style="fill: #808080; stroke: #808080"/>
      </g>
     </g>
     <g id="text_6">
      <text style="font-size: 18px; font-family: 'DejaVu Serif', 'Times New Roman', serif; text-anchor: middle; fill: #262626" x="341.581657" y="404.517187" transform="rotate(-0 341.581657 404.517187)">−0.975</text>
     </g>
    </g>
    <g id="xtick_7">
     <g id="line2d_13">
      <path d="M 399.452995 380.84 
L 399.452995 57.42 
" clip-path="url(#p84043eb0ba)" style="fill: none; stroke: #ffffff; stroke-opacity: 0.4; stroke-linecap: round"/>
     </g>
     <g id="line2d_14">
      <g>
       <use xlink:href="#mdf21b236d6" x="399.452995" y="380.84" style="fill: #808080; stroke: #808080"/>
      </g>
     </g>
     <g id="text_7">
      <text style="font-size: 18px; font-family: 'DejaVu Serif', 'Times New Roman', serif; text-anchor: middle; fill: #262626" x="399.452995" y="404.517187" transform="rotate(-0 399.452995 404.517187)">−0.950</text>
     </g>
    </g>
    <g id="xtick_8">
     <g id="line2d_15">
      <path d="M 457.324334 380.84 
L 457.324334 57.42 
" clip-path="url(#p84043eb0ba)" style="fill: none; stroke: #ffffff; stroke-opacity: 0.4; stroke-linecap: round"/>
     </g>
     <g id="line2d_16">
      <g>
       <use xlink:href="#mdf21b236d6" x="457.324334" y="380.84" style="fill: #808080; stroke: #808080"/>
      </g>
     </g>
     <g id="text_8">
      <text style="font-size: 18px; font-family: 'DejaVu Serif', 'Times New Roman', serif; text-anchor: middle; fill: #262626" x="457.324334" y="404.517187" transform="rotate(-0 457.324334 404.517187)">−0.925</text>
     </g>
    </g>
    <g id="xtick_9">
     <g id="line2d_17">
      <path d="M 515.195672 380.84 
L 515.195672 57.42 
" clip-path="url(#p84043eb0ba)" style="fill: none; stroke: #ffffff; stroke-opacity: 0.4; stroke-linecap: round"/>
     </g>
     <g id="line2d_18">
      <g>
       <use xlink:href="#mdf21b236d6" x="515.195672" y="380.84" style="fill: #808080; stroke: #808080"/>
      </g>
     </g>
     <g id="text_9">
      <text style="font-size: 18px; font-family: 'DejaVu Serif', 'Times New Roman', serif; text-anchor: middle; fill: #262626" x="515.195672" y="404.517187" transform="rotate(-0 515.195672 404.517187)">−0.900</text>
     </g>
    </g>
   </g>
   <g id="matplotlib.axis_2"/>
   <g id="FillBetweenPolyCollection_1">
    <defs>
     <path id="md2c1093eb8" d="M 67.852448 -65.860909 
L 67.852448 -70.225775 
L 68.755229 -70.223012 
L 69.658011 -70.220808 
L 70.560793 -70.216077 
L 71.463575 -70.209057 
L 72.366356 -70.203309 
L 73.269138 -70.190033 
L 74.17192 -70.17483 
L 75.074702 -70.161261 
L 75.977483 -70.141729 
L 76.880265 -70.131678 
L 77.783047 -70.115945 
L 78.685829 -70.100325 
L 79.588611 -70.088561 
L 80.491392 -70.075287 
L 81.394174 -70.066947 
L 82.296956 -70.058196 
L 83.199738 -70.05221 
L 84.102519 -70.049483 
L 85.005301 -70.047823 
L 85.908083 -70.060109 
L 86.810865 -70.072449 
L 87.713646 -70.097224 
L 88.616428 -70.125885 
L 89.51921 -70.158381 
L 90.421992 -70.19779 
L 91.324773 -70.248357 
L 92.227555 -70.311727 
L 93.130337 -70.378577 
L 94.033119 -70.45718 
L 94.9359 -70.548449 
L 95.838682 -70.640821 
L 96.741464 -70.745546 
L 97.644246 -70.862596 
L 98.547027 -70.992579 
L 99.449809 -71.126288 
L 100.352591 -71.27208 
L 101.255373 -71.436881 
L 102.158154 -71.602866 
L 103.060936 -71.781607 
L 103.963718 -71.964219 
L 104.8665 -72.161505 
L 105.769282 -72.367214 
L 106.672063 -72.577755 
L 107.574845 -72.795982 
L 108.477627 -73.021475 
L 109.380409 -73.253222 
L 110.28319 -73.501294 
L 111.185972 -73.745168 
L 112.088754 -73.994566 
L 112.991536 -74.255125 
L 113.894317 -74.522057 
L 114.797099 -74.788814 
L 115.699881 -75.05998 
L 116.602663 -75.345275 
L 117.505444 -75.630969 
L 118.408226 -75.923095 
L 119.311008 -76.24415 
L 120.21379 -76.549549 
L 121.116571 -76.873955 
L 122.019353 -77.200723 
L 122.922135 -77.535599 
L 123.824917 -77.888819 
L 124.727698 -78.249813 
L 125.63048 -78.612643 
L 126.533262 -78.988884 
L 127.436044 -79.375603 
L 128.338825 -79.782939 
L 129.241607 -80.197509 
L 130.144389 -80.622332 
L 131.047171 -81.059676 
L 131.949952 -81.532067 
L 132.852734 -81.998746 
L 133.755516 -82.498256 
L 134.658298 -83.002851 
L 135.56108 -83.530183 
L 136.463861 -84.062425 
L 137.366643 -84.610483 
L 138.269425 -85.183797 
L 139.172207 -85.771601 
L 140.074988 -86.380287 
L 140.97777 -87.007742 
L 141.880552 -87.654552 
L 142.783334 -88.324605 
L 143.686115 -89.009405 
L 144.588897 -89.71154 
L 145.491679 -90.42544 
L 146.394461 -91.17554 
L 147.297242 -91.964193 
L 148.200024 -92.759405 
L 149.102806 -93.593984 
L 150.005588 -94.442301 
L 150.908369 -95.312114 
L 151.811151 -96.206207 
L 152.713933 -97.125153 
L 153.616715 -98.062188 
L 154.519496 -99.051593 
L 155.422278 -100.053769 
L 156.32506 -101.091521 
L 157.227842 -102.143513 
L 158.130623 -103.210433 
L 159.033405 -104.314832 
L 159.936187 -105.447819 
L 160.838969 -106.597308 
L 161.741751 -107.764862 
L 162.644532 -108.932749 
L 163.547314 -110.143829 
L 164.450096 -111.371636 
L 165.352878 -112.60899 
L 166.255659 -113.869634 
L 167.158441 -115.157605 
L 168.061223 -116.442014 
L 168.964005 -117.75038 
L 169.866786 -119.065005 
L 170.769568 -120.380891 
L 171.67235 -121.713177 
L 172.575132 -123.063454 
L 173.477913 -124.416772 
L 174.380695 -125.787886 
L 175.283477 -127.177444 
L 176.186259 -128.580619 
L 177.08904 -129.990154 
L 177.991822 -131.404041 
L 178.894604 -132.855763 
L 179.797386 -134.327383 
L 180.700167 -135.825563 
L 181.602949 -137.336333 
L 182.505731 -138.867964 
L 183.408513 -140.438824 
L 184.311294 -142.028682 
L 185.214076 -143.688891 
L 186.116858 -145.38011 
L 187.01964 -147.06967 
L 187.922421 -148.822379 
L 188.825203 -150.614757 
L 189.727985 -152.434501 
L 190.630767 -154.301469 
L 191.533549 -156.211264 
L 192.43633 -158.179592 
L 193.339112 -160.206244 
L 194.241894 -162.290468 
L 195.144676 -164.397455 
L 196.047457 -166.53669 
L 196.950239 -168.706921 
L 197.853021 -170.959435 
L 198.755803 -173.223499 
L 199.658584 -175.528447 
L 200.561366 -177.884157 
L 201.464148 -180.256739 
L 202.36693 -182.635382 
L 203.269711 -185.042596 
L 204.172493 -187.455404 
L 205.075275 -189.890293 
L 205.978057 -192.326687 
L 206.880838 -194.762446 
L 207.78362 -197.206813 
L 208.686402 -199.639966 
L 209.589184 -202.055191 
L 210.491965 -204.480607 
L 211.394747 -206.87307 
L 212.297529 -209.240965 
L 213.200311 -211.593964 
L 214.103092 -213.881169 
L 215.005874 -216.138818 
L 215.908656 -218.373717 
L 216.811438 -220.592159 
L 217.71422 -222.732282 
L 218.617001 -224.849265 
L 219.519783 -226.919067 
L 220.422565 -228.967938 
L 221.325347 -230.943043 
L 222.228128 -232.931337 
L 223.13091 -234.844967 
L 224.033692 -236.718296 
L 224.936474 -238.56041 
L 225.839255 -240.384143 
L 226.742037 -242.156339 
L 227.644819 -243.894421 
L 228.547601 -245.623359 
L 229.450382 -247.329284 
L 230.353164 -249.019806 
L 231.255946 -250.68165 
L 232.158728 -252.343233 
L 233.061509 -253.999399 
L 233.964291 -255.646434 
L 234.867073 -257.275994 
L 235.769855 -258.901548 
L 236.672636 -260.548317 
L 237.575418 -262.187158 
L 238.4782 -263.818991 
L 239.380982 -265.504674 
L 240.283763 -267.143169 
L 241.186545 -268.814653 
L 242.089327 -270.474197 
L 242.992109 -272.201728 
L 243.894891 -273.960425 
L 244.797672 -275.715989 
L 245.700454 -277.510163 
L 246.603236 -279.34128 
L 247.506018 -281.168674 
L 248.408799 -283.038366 
L 249.311581 -284.920042 
L 250.214363 -286.844481 
L 251.117145 -288.797294 
L 252.019926 -290.768427 
L 252.922708 -292.765285 
L 253.82549 -294.810155 
L 254.728272 -296.883968 
L 255.631053 -298.983086 
L 256.533835 -301.128055 
L 257.436617 -303.276117 
L 258.339399 -305.44617 
L 259.24218 -307.63109 
L 260.144962 -309.806223 
L 261.047744 -311.989799 
L 261.950526 -314.194117 
L 262.853307 -316.387651 
L 263.756089 -318.58341 
L 264.658871 -320.74603 
L 265.561653 -322.888049 
L 266.464434 -325.024259 
L 267.367216 -327.130082 
L 268.269998 -329.208308 
L 269.17278 -331.218832 
L 270.075561 -333.197602 
L 270.978343 -335.107735 
L 271.881125 -336.964493 
L 272.783907 -338.790998 
L 273.686689 -340.511524 
L 274.58947 -342.160982 
L 275.492252 -343.759156 
L 276.395034 -345.261324 
L 277.297816 -346.700613 
L 278.200597 -348.023646 
L 279.103379 -349.240723 
L 280.006161 -350.376313 
L 280.908943 -351.465698 
L 281.811724 -352.450527 
L 282.714506 -353.41553 
L 283.617288 -354.237573 
L 284.52007 -354.984581 
L 285.422851 -355.682981 
L 286.325633 -356.299196 
L 287.228415 -356.855464 
L 288.131197 -357.365117 
L 289.033978 -357.792412 
L 289.93676 -358.181345 
L 290.839542 -358.507153 
L 291.742324 -358.815433 
L 292.645105 -359.062866 
L 293.547887 -359.259076 
L 294.450669 -359.463534 
L 295.353451 -359.61599 
L 296.256232 -359.715354 
L 297.159014 -359.783201 
L 298.061796 -359.847687 
L 298.964578 -359.878029 
L 299.86736 -359.879091 
L 300.770141 -359.858495 
L 301.672923 -359.801277 
L 302.575705 -359.684622 
L 303.478487 -359.581008 
L 304.381268 -359.450603 
L 305.28405 -359.255719 
L 306.186832 -359.060939 
L 307.089614 -358.834738 
L 307.992395 -358.50778 
L 308.895177 -358.187067 
L 309.797959 -357.806591 
L 310.700741 -357.361523 
L 311.603522 -356.847984 
L 312.506304 -356.338359 
L 313.409086 -355.773449 
L 314.311868 -355.120203 
L 315.214649 -354.425894 
L 316.117431 -353.708567 
L 317.020213 -352.940228 
L 317.922995 -352.124079 
L 318.825776 -351.278834 
L 319.728558 -350.396179 
L 320.63134 -349.489294 
L 321.534122 -348.576674 
L 322.436903 -347.631871 
L 323.339685 -346.684277 
L 324.242467 -345.723664 
L 325.145249 -344.72062 
L 326.04803 -343.733633 
L 326.950812 -342.760755 
L 327.853594 -341.782858 
L 328.756376 -340.789603 
L 329.659158 -339.786894 
L 330.561939 -338.813683 
L 331.464721 -337.845178 
L 332.367503 -336.867698 
L 333.270285 -335.934291 
L 334.173066 -334.979764 
L 335.075848 -334.006039 
L 335.97863 -333.026768 
L 336.881412 -332.052481 
L 337.784193 -331.036867 
L 338.686975 -330.012848 
L 339.589757 -328.953291 
L 340.492539 -327.85267 
L 341.39532 -326.720406 
L 342.298102 -325.533306 
L 343.200884 -324.31694 
L 344.103666 -323.039938 
L 345.006447 -321.734634 
L 345.909229 -320.372463 
L 346.812011 -318.936995 
L 347.714793 -317.430194 
L 348.617574 -315.854152 
L 349.520356 -314.225572 
L 350.423138 -312.537785 
L 351.32592 -310.776687 
L 352.228701 -308.931555 
L 353.131483 -307.05304 
L 354.034265 -305.114643 
L 354.937047 -303.138384 
L 355.839829 -301.104824 
L 356.74261 -299.033131 
L 357.645392 -296.932237 
L 358.548174 -294.809482 
L 359.450956 -292.689677 
L 360.353737 -290.544885 
L 361.256519 -288.381539 
L 362.159301 -286.216166 
L 363.062083 -284.023977 
L 363.964864 -281.874032 
L 364.867646 -279.719545 
L 365.770428 -277.564903 
L 366.67321 -275.408576 
L 367.575991 -273.290417 
L 368.478773 -271.159562 
L 369.381555 -269.068793 
L 370.284337 -267.009607 
L 371.187118 -264.919463 
L 372.0899 -262.874147 
L 372.992682 -260.845172 
L 373.895464 -258.817687 
L 374.798245 -256.814498 
L 375.701027 -254.80571 
L 376.603809 -252.790917 
L 377.506591 -250.796301 
L 378.409372 -248.788146 
L 379.312154 -246.784693 
L 380.214936 -244.723524 
L 381.117718 -242.678938 
L 382.020499 -240.618362 
L 382.923281 -238.572359 
L 383.826063 -236.468997 
L 384.728845 -234.33785 
L 385.631627 -232.197302 
L 386.534408 -230.034793 
L 387.43719 -227.829613 
L 388.339972 -225.606405 
L 389.242754 -223.337498 
L 390.145535 -221.044514 
L 391.048317 -218.748028 
L 391.951099 -216.386904 
L 392.853881 -214.044426 
L 393.756662 -211.711492 
L 394.659444 -209.356291 
L 395.562226 -206.991286 
L 396.465008 -204.635886 
L 397.367789 -202.284891 
L 398.270571 -199.914378 
L 399.173353 -197.582785 
L 400.076135 -195.27394 
L 400.978916 -192.980351 
L 401.881698 -190.684966 
L 402.78448 -188.44554 
L 403.687262 -186.22779 
L 404.590043 -184.022157 
L 405.492825 -181.896694 
L 406.395607 -179.794775 
L 407.298389 -177.740234 
L 408.20117 -175.721365 
L 409.103952 -173.747538 
L 410.006734 -171.826358 
L 410.909516 -169.950639 
L 411.812298 -168.114251 
L 412.715079 -166.301087 
L 413.617861 -164.548256 
L 414.520643 -162.809447 
L 415.423425 -161.111463 
L 416.326206 -159.431807 
L 417.228988 -157.772949 
L 418.13177 -156.153193 
L 419.034552 -154.541448 
L 419.937333 -152.959925 
L 420.840115 -151.391946 
L 421.742897 -149.818204 
L 422.645679 -148.247996 
L 423.54846 -146.716234 
L 424.451242 -145.158752 
L 425.354024 -143.616316 
L 426.256806 -142.072369 
L 427.159587 -140.535579 
L 428.062369 -138.996653 
L 428.965151 -137.453624 
L 429.867933 -135.915857 
L 430.770714 -134.363895 
L 431.673496 -132.834093 
L 432.576278 -131.310911 
L 433.47906 -129.790707 
L 434.381841 -128.288534 
L 435.284623 -126.774966 
L 436.187405 -125.282497 
L 437.090187 -123.805898 
L 437.992969 -122.338916 
L 438.89575 -120.879715 
L 439.798532 -119.429528 
L 440.701314 -117.992046 
L 441.604096 -116.573526 
L 442.506877 -115.163687 
L 443.409659 -113.775758 
L 444.312441 -112.401379 
L 445.215223 -111.041877 
L 446.118004 -109.703802 
L 447.020786 -108.387254 
L 447.923568 -107.092454 
L 448.82635 -105.825084 
L 449.729131 -104.559929 
L 450.631913 -103.332731 
L 451.534695 -102.125095 
L 452.437477 -100.94158 
L 453.340258 -99.77226 
L 454.24304 -98.61673 
L 455.145822 -97.49411 
L 456.048604 -96.401423 
L 456.951385 -95.347111 
L 457.854167 -94.30077 
L 458.756949 -93.291324 
L 459.659731 -92.315674 
L 460.562512 -91.37136 
L 461.465294 -90.45909 
L 462.368076 -89.576761 
L 463.270858 -88.714593 
L 464.173639 -87.904646 
L 465.076421 -87.125281 
L 465.979203 -86.387607 
L 466.881985 -85.675737 
L 467.784767 -85.004302 
L 468.687548 -84.34962 
L 469.59033 -83.734266 
L 470.493112 -83.153229 
L 471.395894 -82.604189 
L 472.298675 -82.06017 
L 473.201457 -81.552805 
L 474.104239 -81.069941 
L 475.007021 -80.603929 
L 475.909802 -80.156176 
L 476.812584 -79.728059 
L 477.715366 -79.317194 
L 478.618148 -78.912721 
L 479.520929 -78.517368 
L 480.423711 -78.132673 
L 481.326493 -77.767754 
L 482.229275 -77.405854 
L 483.132056 -77.046071 
L 484.034838 -76.688178 
L 484.93762 -76.324027 
L 485.840402 -75.979169 
L 486.743183 -75.642998 
L 487.645965 -75.312495 
L 488.548747 -74.976294 
L 489.451529 -74.641326 
L 490.35431 -74.321971 
L 491.257092 -73.998046 
L 492.159874 -73.688125 
L 493.062656 -73.376054 
L 493.965438 -73.072491 
L 494.868219 -72.780965 
L 495.771001 -72.496504 
L 496.673783 -72.219963 
L 497.576565 -71.969303 
L 498.479346 -71.72128 
L 499.382128 -71.483205 
L 500.28491 -71.258885 
L 501.187692 -71.054075 
L 502.090473 -70.86538 
L 502.993255 -70.681944 
L 503.896037 -70.516854 
L 504.798819 -70.36945 
L 505.7016 -70.235771 
L 506.604382 -70.121559 
L 507.507164 -70.017449 
L 508.409946 -69.923071 
L 509.312727 -69.841719 
L 510.215509 -69.775392 
L 511.118291 -69.719562 
L 512.021073 -69.673521 
L 512.923854 -69.633822 
L 513.826636 -69.605497 
L 514.729418 -69.581753 
L 515.6322 -69.567588 
L 516.534981 -69.558871 
L 517.437763 -69.552086 
L 518.340545 -69.549582 
L 519.243327 -69.545118 
L 520.146108 -69.549542 
L 521.04889 -69.558185 
L 521.951672 -69.562405 
L 522.854454 -69.567987 
L 523.757236 -69.576292 
L 524.660017 -69.58351 
L 525.562799 -69.595117 
L 526.465581 -69.604952 
L 527.368363 -69.612859 
L 528.271144 -69.616066 
L 529.173926 -69.617706 
L 529.173926 -65.860909 
L 529.173926 -65.860909 
L 528.271144 -65.860909 
L 527.368363 -65.860909 
L 526.465581 -65.860909 
L 525.562799 -65.860909 
L 524.660017 -65.860909 
L 523.757236 -65.860909 
L 522.854454 -65.860909 
L 521.951672 -65.860909 
L 521.04889 -65.860909 
L 520.146108 -65.860909 
L 519.243327 -65.860909 
L 518.340545 -65.860909 
L 517.437763 -65.860909 
L 516.534981 -65.860909 
L 515.6322 -65.860909 
L 514.729418 -65.860909 
L 513.826636 -65.860909 
L 512.923854 -65.860909 
L 512.021073 -65.860909 
L 511.118291 -65.860909 
L 510.215509 -65.860909 
L 509.312727 -65.860909 
L 508.409946 -65.860909 
L 507.507164 -65.860909 
L 506.604382 -65.860909 
L 505.7016 -65.860909 
L 504.798819 -65.860909 
L 503.896037 -65.860909 
L 502.993255 -65.860909 
L 502.090473 -65.860909 
L 501.187692 -65.860909 
L 500.28491 -65.860909 
L 499.382128 -65.860909 
L 498.479346 -65.860909 
L 497.576565 -65.860909 
L 496.673783 -65.860909 
L 495.771001 -65.860909 
L 494.868219 -65.860909 
L 493.965438 -65.860909 
L 493.062656 -65.860909 
L 492.159874 -65.860909 
L 491.257092 -65.860909 
L 490.35431 -65.860909 
L 489.451529 -65.860909 
L 488.548747 -65.860909 
L 487.645965 -65.860909 
L 486.743183 -65.860909 
L 485.840402 -65.860909 
L 484.93762 -65.860909 
L 484.034838 -65.860909 
L 483.132056 -65.860909 
L 482.229275 -65.860909 
L 481.326493 -65.860909 
L 480.423711 -65.860909 
L 479.520929 -65.860909 
L 478.618148 -65.860909 
L 477.715366 -65.860909 
L 476.812584 -65.860909 
L 475.909802 -65.860909 
L 475.007021 -65.860909 
L 474.104239 -65.860909 
L 473.201457 -65.860909 
L 472.298675 -65.860909 
L 471.395894 -65.860909 
L 470.493112 -65.860909 
L 469.59033 -65.860909 
L 468.687548 -65.860909 
L 467.784767 -65.860909 
L 466.881985 -65.860909 
L 465.979203 -65.860909 
L 465.076421 -65.860909 
L 464.173639 -65.860909 
L 463.270858 -65.860909 
L 462.368076 -65.860909 
L 461.465294 -65.860909 
L 460.562512 -65.860909 
L 459.659731 -65.860909 
L 458.756949 -65.860909 
L 457.854167 -65.860909 
L 456.951385 -65.860909 
L 456.048604 -65.860909 
L 455.145822 -65.860909 
L 454.24304 -65.860909 
L 453.340258 -65.860909 
L 452.437477 -65.860909 
L 451.534695 -65.860909 
L 450.631913 -65.860909 
L 449.729131 -65.860909 
L 448.82635 -65.860909 
L 447.923568 -65.860909 
L 447.020786 -65.860909 
L 446.118004 -65.860909 
L 445.215223 -65.860909 
L 444.312441 -65.860909 
L 443.409659 -65.860909 
L 442.506877 -65.860909 
L 441.604096 -65.860909 
L 440.701314 -65.860909 
L 439.798532 -65.860909 
L 438.89575 -65.860909 
L 437.992969 -65.860909 
L 437.090187 -65.860909 
L 436.187405 -65.860909 
L 435.284623 -65.860909 
L 434.381841 -65.860909 
L 433.47906 -65.860909 
L 432.576278 -65.860909 
L 431.673496 -65.860909 
L 430.770714 -65.860909 
L 429.867933 -65.860909 
L 428.965151 -65.860909 
L 428.062369 -65.860909 
L 427.159587 -65.860909 
L 426.256806 -65.860909 
L 425.354024 -65.860909 
L 424.451242 -65.860909 
L 423.54846 -65.860909 
L 422.645679 -65.860909 
L 421.742897 -65.860909 
L 420.840115 -65.860909 
L 419.937333 -65.860909 
L 419.034552 -65.860909 
L 418.13177 -65.860909 
L 417.228988 -65.860909 
L 416.326206 -65.860909 
L 415.423425 -65.860909 
L 414.520643 -65.860909 
L 413.617861 -65.860909 
L 412.715079 -65.860909 
L 411.812298 -65.860909 
L 410.909516 -65.860909 
L 410.006734 -65.860909 
L 409.103952 -65.860909 
L 408.20117 -65.860909 
L 407.298389 -65.860909 
L 406.395607 -65.860909 
L 405.492825 -65.860909 
L 404.590043 -65.860909 
L 403.687262 -65.860909 
L 402.78448 -65.860909 
L 401.881698 -65.860909 
L 400.978916 -65.860909 
L 400.076135 -65.860909 
L 399.173353 -65.860909 
L 398.270571 -65.860909 
L 397.367789 -65.860909 
L 396.465008 -65.860909 
L 395.562226 -65.860909 
L 394.659444 -65.860909 
L 393.756662 -65.860909 
L 392.853881 -65.860909 
L 391.951099 -65.860909 
L 391.048317 -65.860909 
L 390.145535 -65.860909 
L 389.242754 -65.860909 
L 388.339972 -65.860909 
L 387.43719 -65.860909 
L 386.534408 -65.860909 
L 385.631627 -65.860909 
L 384.728845 -65.860909 
L 383.826063 -65.860909 
L 382.923281 -65.860909 
L 382.020499 -65.860909 
L 381.117718 -65.860909 
L 380.214936 -65.860909 
L 379.312154 -65.860909 
L 378.409372 -65.860909 
L 377.506591 -65.860909 
L 376.603809 -65.860909 
L 375.701027 -65.860909 
L 374.798245 -65.860909 
L 373.895464 -65.860909 
L 372.992682 -65.860909 
L 372.0899 -65.860909 
L 371.187118 -65.860909 
L 370.284337 -65.860909 
L 369.381555 -65.860909 
L 368.478773 -65.860909 
L 367.575991 -65.860909 
L 366.67321 -65.860909 
L 365.770428 -65.860909 
L 364.867646 -65.860909 
L 363.964864 -65.860909 
L 363.062083 -65.860909 
L 362.159301 -65.860909 
L 361.256519 -65.860909 
L 360.353737 -65.860909 
L 359.450956 -65.860909 
L 358.548174 -65.860909 
L 357.645392 -65.860909 
L 356.74261 -65.860909 
L 355.839829 -65.860909 
L 354.937047 -65.860909 
L 354.034265 -65.860909 
L 353.131483 -65.860909 
L 352.228701 -65.860909 
L 351.32592 -65.860909 
L 350.423138 -65.860909 
L 349.520356 -65.860909 
L 348.617574 -65.860909 
L 347.714793 -65.860909 
L 346.812011 -65.860909 
L 345.909229 -65.860909 
L 345.006447 -65.860909 
L 344.103666 -65.860909 
L 343.200884 -65.860909 
L 342.298102 -65.860909 
L 341.39532 -65.860909 
L 340.492539 -65.860909 
L 339.589757 -65.860909 
L 338.686975 -65.860909 
L 337.784193 -65.860909 
L 336.881412 -65.860909 
L 335.97863 -65.860909 
L 335.075848 -65.860909 
L 334.173066 -65.860909 
L 333.270285 -65.860909 
L 332.367503 -65.860909 
L 331.464721 -65.860909 
L 330.561939 -65.860909 
L 329.659158 -65.860909 
L 328.756376 -65.860909 
L 327.853594 -65.860909 
L 326.950812 -65.860909 
L 326.04803 -65.860909 
L 325.145249 -65.860909 
L 324.242467 -65.860909 
L 323.339685 -65.860909 
L 322.436903 -65.860909 
L 321.534122 -65.860909 
L 320.63134 -65.860909 
L 319.728558 -65.860909 
L 318.825776 -65.860909 
L 317.922995 -65.860909 
L 317.020213 -65.860909 
L 316.117431 -65.860909 
L 315.214649 -65.860909 
L 314.311868 -65.860909 
L 313.409086 -65.860909 
L 312.506304 -65.860909 
L 311.603522 -65.860909 
L 310.700741 -65.860909 
L 309.797959 -65.860909 
L 308.895177 -65.860909 
L 307.992395 -65.860909 
L 307.089614 -65.860909 
L 306.186832 -65.860909 
L 305.28405 -65.860909 
L 304.381268 -65.860909 
L 303.478487 -65.860909 
L 302.575705 -65.860909 
L 301.672923 -65.860909 
L 300.770141 -65.860909 
L 299.86736 -65.860909 
L 298.964578 -65.860909 
L 298.061796 -65.860909 
L 297.159014 -65.860909 
L 296.256232 -65.860909 
L 295.353451 -65.860909 
L 294.450669 -65.860909 
L 293.547887 -65.860909 
L 292.645105 -65.860909 
L 291.742324 -65.860909 
L 290.839542 -65.860909 
L 289.93676 -65.860909 
L 289.033978 -65.860909 
L 288.131197 -65.860909 
L 287.228415 -65.860909 
L 286.325633 -65.860909 
L 285.422851 -65.860909 
L 284.52007 -65.860909 
L 283.617288 -65.860909 
L 282.714506 -65.860909 
L 281.811724 -65.860909 
L 280.908943 -65.860909 
L 280.006161 -65.860909 
L 279.103379 -65.860909 
L 278.200597 -65.860909 
L 277.297816 -65.860909 
L 276.395034 -65.860909 
L 275.492252 -65.860909 
L 274.58947 -65.860909 
L 273.686689 -65.860909 
L 272.783907 -65.860909 
L 271.881125 -65.860909 
L 270.978343 -65.860909 
L 270.075561 -65.860909 
L 269.17278 -65.860909 
L 268.269998 -65.860909 
L 267.367216 -65.860909 
L 266.464434 -65.860909 
L 265.561653 -65.860909 
L 264.658871 -65.860909 
L 263.756089 -65.860909 
L 262.853307 -65.860909 
L 261.950526 -65.860909 
L 261.047744 -65.860909 
L 260.144962 -65.860909 
L 259.24218 -65.860909 
L 258.339399 -65.860909 
L 257.436617 -65.860909 
L 256.533835 -65.860909 
L 255.631053 -65.860909 
L 254.728272 -65.860909 
L 253.82549 -65.860909 
L 252.922708 -65.860909 
L 252.019926 -65.860909 
L 251.117145 -65.860909 
L 250.214363 -65.860909 
L 249.311581 -65.860909 
L 248.408799 -65.860909 
L 247.506018 -65.860909 
L 246.603236 -65.860909 
L 245.700454 -65.860909 
L 244.797672 -65.860909 
L 243.894891 -65.860909 
L 242.992109 -65.860909 
L 242.089327 -65.860909 
L 241.186545 -65.860909 
L 240.283763 -65.860909 
L 239.380982 -65.860909 
L 238.4782 -65.860909 
L 237.575418 -65.860909 
L 236.672636 -65.860909 
L 235.769855 -65.860909 
L 234.867073 -65.860909 
L 233.964291 -65.860909 
L 233.061509 -65.860909 
L 232.158728 -65.860909 
L 231.255946 -65.860909 
L 230.353164 -65.860909 
L 229.450382 -65.860909 
L 228.547601 -65.860909 
L 227.644819 -65.860909 
L 226.742037 -65.860909 
L 225.839255 -65.860909 
L 224.936474 -65.860909 
L 224.033692 -65.860909 
L 223.13091 -65.860909 
L 222.228128 -65.860909 
L 221.325347 -65.860909 
L 220.422565 -65.860909 
L 219.519783 -65.860909 
L 218.617001 -65.860909 
L 217.71422 -65.860909 
L 216.811438 -65.860909 
L 215.908656 -65.860909 
L 215.005874 -65.860909 
L 214.103092 -65.860909 
L 213.200311 -65.860909 
L 212.297529 -65.860909 
L 211.394747 -65.860909 
L 210.491965 -65.860909 
L 209.589184 -65.860909 
L 208.686402 -65.860909 
L 207.78362 -65.860909 
L 206.880838 -65.860909 
L 205.978057 -65.860909 
L 205.075275 -65.860909 
L 204.172493 -65.860909 
L 203.269711 -65.860909 
L 202.36693 -65.860909 
L 201.464148 -65.860909 
L 200.561366 -65.860909 
L 199.658584 -65.860909 
L 198.755803 -65.860909 
L 197.853021 -65.860909 
L 196.950239 -65.860909 
L 196.047457 -65.860909 
L 195.144676 -65.860909 
L 194.241894 -65.860909 
L 193.339112 -65.860909 
L 192.43633 -65.860909 
L 191.533549 -65.860909 
L 190.630767 -65.860909 
L 189.727985 -65.860909 
L 188.825203 -65.860909 
L 187.922421 -65.860909 
L 187.01964 -65.860909 
L 186.116858 -65.860909 
L 185.214076 -65.860909 
L 184.311294 -65.860909 
L 183.408513 -65.860909 
L 182.505731 -65.860909 
L 181.602949 -65.860909 
L 180.700167 -65.860909 
L 179.797386 -65.860909 
L 178.894604 -65.860909 
L 177.991822 -65.860909 
L 177.08904 -65.860909 
L 176.186259 -65.860909 
L 175.283477 -65.860909 
L 174.380695 -65.860909 
L 173.477913 -65.860909 
L 172.575132 -65.860909 
L 171.67235 -65.860909 
L 170.769568 -65.860909 
L 169.866786 -65.860909 
L 168.964005 -65.860909 
L 168.061223 -65.860909 
L 167.158441 -65.860909 
L 166.255659 -65.860909 
L 165.352878 -65.860909 
L 164.450096 -65.860909 
L 163.547314 -65.860909 
L 162.644532 -65.860909 
L 161.741751 -65.860909 
L 160.838969 -65.860909 
L 159.936187 -65.860909 
L 159.033405 -65.860909 
L 158.130623 -65.860909 
L 157.227842 -65.860909 
L 156.32506 -65.860909 
L 155.422278 -65.860909 
L 154.519496 -65.860909 
L 153.616715 -65.860909 
L 152.713933 -65.860909 
L 151.811151 -65.860909 
L 150.908369 -65.860909 
L 150.005588 -65.860909 
L 149.102806 -65.860909 
L 148.200024 -65.860909 
L 147.297242 -65.860909 
L 146.394461 -65.860909 
L 145.491679 -65.860909 
L 144.588897 -65.860909 
L 143.686115 -65.860909 
L 142.783334 -65.860909 
L 141.880552 -65.860909 
L 140.97777 -65.860909 
L 140.074988 -65.860909 
L 139.172207 -65.860909 
L 138.269425 -65.860909 
L 137.366643 -65.860909 
L 136.463861 -65.860909 
L 135.56108 -65.860909 
L 134.658298 -65.860909 
L 133.755516 -65.860909 
L 132.852734 -65.860909 
L 131.949952 -65.860909 
L 131.047171 -65.860909 
L 130.144389 -65.860909 
L 129.241607 -65.860909 
L 128.338825 -65.860909 
L 127.436044 -65.860909 
L 126.533262 -65.860909 
L 125.63048 -65.860909 
L 124.727698 -65.860909 
L 123.824917 -65.860909 
L 122.922135 -65.860909 
L 122.019353 -65.860909 
L 121.116571 -65.860909 
L 120.21379 -65.860909 
L 119.311008 -65.860909 
L 118.408226 -65.860909 
L 117.505444 -65.860909 
L 116.602663 -65.860909 
L 115.699881 -65.860909 
L 114.797099 -65.860909 
L 113.894317 -65.860909 
L 112.991536 -65.860909 
L 112.088754 -65.860909 
L 111.185972 -65.860909 
L 110.28319 -65.860909 
L 109.380409 -65.860909 
L 108.477627 -65.860909 
L 107.574845 -65.860909 
L 106.672063 -65.860909 
L 105.769282 -65.860909 
L 104.8665 -65.860909 
L 103.963718 -65.860909 
L 103.060936 -65.860909 
L 102.158154 -65.860909 
L 101.255373 -65.860909 
L 100.352591 -65.860909 
L 99.449809 -65.860909 
L 98.547027 -65.860909 
L 97.644246 -65.860909 
L 96.741464 -65.860909 
L 95.838682 -65.860909 
L 94.9359 -65.860909 
L 94.033119 -65.860909 
L 93.130337 -65.860909 
L 92.227555 -65.860909 
L 91.324773 -65.860909 
L 90.421992 -65.860909 
L 89.51921 -65.860909 
L 88.616428 -65.860909 
L 87.713646 -65.860909 
L 86.810865 -65.860909 
L 85.908083 -65.860909 
L 85.005301 -65.860909 
L 84.102519 -65.860909 
L 83.199738 -65.860909 
L 82.296956 -65.860909 
L 81.394174 -65.860909 
L 80.491392 -65.860909 
L 79.588611 -65.860909 
L 78.685829 -65.860909 
L 77.783047 -65.860909 
L 76.880265 -65.860909 
L 75.977483 -65.860909 
L 75.074702 -65.860909 
L 74.17192 -65.860909 
L 73.269138 -65.860909 
L 72.366356 -65.860909 
L 71.463575 -65.860909 
L 70.560793 -65.860909 
L 69.658011 -65.860909 
L 68.755229 -65.860909 
L 67.852448 -65.860909 
z
" style="stroke: #7570b3; stroke-opacity: 0.6; stroke-width: 0.3"/>
    </defs>
    <g clip-path="url(#p84043eb0ba)">
     <use xlink:href="#md2c1093eb8" x="0" y="432" style="fill: #7570b3; fill-opacity: 0.6; stroke: #7570b3; stroke-opacity: 0.6; stroke-width: 0.3"/>
    </g>
   </g>
   <g id="line2d_19">
    <path d="M 67.852448 361.774225 
L 79.588611 361.911439 
L 86.810865 361.927551 
L 92.227555 361.688273 
L 96.741464 361.254454 
L 101.255373 360.563119 
L 105.769282 359.632786 
L 110.28319 358.498706 
L 115.699881 356.94002 
L 121.116571 355.126045 
L 125.63048 353.387357 
L 129.241607 351.802491 
L 132.852734 350.001254 
L 137.366643 347.389517 
L 140.97777 344.992258 
L 144.588897 342.28846 
L 147.297242 340.035807 
L 150.005588 337.557699 
L 153.616715 333.937812 
L 157.227842 329.856487 
L 159.936187 326.552181 
L 164.450096 320.628364 
L 168.061223 315.557986 
L 174.380695 306.212114 
L 179.797386 297.672617 
L 184.311294 289.971318 
L 187.922421 283.177621 
L 191.533549 275.788736 
L 194.241894 269.709532 
L 197.853021 261.040565 
L 201.464148 251.743261 
L 207.78362 234.793187 
L 213.200311 220.406036 
L 217.71422 209.267718 
L 221.325347 201.056957 
L 224.033692 195.281704 
L 227.644819 188.105579 
L 232.158728 179.656767 
L 244.797672 156.284011 
L 249.311581 147.079958 
L 252.922708 139.234715 
L 256.533835 130.871945 
L 270.075561 98.802398 
L 272.783907 93.209002 
L 275.492252 88.240844 
L 277.297816 85.299387 
L 279.103379 82.759277 
L 280.908943 80.534302 
L 282.714506 78.58447 
L 284.52007 77.015419 
L 286.325633 75.700804 
L 288.131197 74.634883 
L 289.93676 73.818655 
L 292.645105 72.937134 
L 295.353451 72.38401 
L 298.061796 72.152313 
L 300.770141 72.141505 
L 303.478487 72.418992 
L 305.28405 72.744281 
L 307.089614 73.165262 
L 309.797959 74.193409 
L 311.603522 75.152016 
L 313.409086 76.226551 
L 316.117431 78.291433 
L 318.825776 80.721166 
L 322.436903 84.368129 
L 326.950812 89.239245 
L 339.589757 103.046709 
L 342.298102 106.466694 
L 345.006447 110.265366 
L 346.812011 113.063005 
L 349.520356 117.774428 
L 352.228701 123.068445 
L 354.937047 128.861616 
L 358.548174 137.190518 
L 364.867646 152.280455 
L 371.187118 167.080537 
L 387.43719 204.170387 
L 391.048317 213.251972 
L 401.881698 241.315034 
L 405.492825 250.103306 
L 409.103952 258.252462 
L 412.715079 265.698913 
L 417.228988 274.227051 
L 422.645679 283.752004 
L 438.89575 311.120285 
L 443.409659 318.224242 
L 447.923568 324.907546 
L 452.437477 331.05842 
L 456.048604 335.598577 
L 459.659731 339.684326 
L 462.368076 342.423239 
L 465.076421 344.874719 
L 467.784767 346.995698 
L 470.493112 348.846771 
L 474.104239 350.930059 
L 477.715366 352.682806 
L 482.229275 354.594146 
L 489.451529 357.358674 
L 495.771001 359.503496 
L 499.382128 360.516795 
L 502.993255 361.318056 
L 506.604382 361.878441 
L 510.215509 362.224608 
L 514.729418 362.418247 
L 521.951672 362.437595 
L 529.173926 362.382294 
L 529.173926 362.382294 
" clip-path="url(#p84043eb0ba)" style="fill: none; stroke: #7570b3; stroke-width: 2; stroke-linecap: round"/>
   </g>
   <g id="line2d_20">
    <path d="M 196.677103 359.964709 
L 426.22521 359.964709 
" clip-path="url(#p84043eb0ba)" style="fill: none; stroke: #000000; stroke-width: 3.5"/>
   </g>
   <g id="patch_3">
    <path d="M 44.786374 380.84 
L 552.24 380.84 
" style="fill: none; stroke: #333333; stroke-width: 1.5; stroke-linejoin: miter; stroke-linecap: square"/>
   </g>
   <g id="text_10">
    <text style="font-size: 22px; font-family: 'DejaVu Serif', 'Times New Roman', serif; text-anchor: end; fill: #262626" x="196.677103" y="344.528755" transform="rotate(-0 196.677103 344.528755)">-1 </text>
   </g>
   <g id="text_11">
    <text style="font-size: 22px; font-family: 'DejaVu Serif', 'Times New Roman', serif; text-anchor: start; fill: #262626" x="426.22521" y="344.528755" transform="rotate(-0 426.22521 344.528755)"> -0.94</text>
   </g>
   <g id="text_12">
    <text style="font-size: 22px; font-family: 'DejaVu Serif', 'Times New Roman', serif; text-anchor: middle; fill: #262626" x="311.451157" y="273.523364" transform="rotate(-0 311.451157 273.523364)">90% HDI</text>
   </g>
   <g id="text_13">
    <text style="font-size: 22px; font-family: 'DejaVu Serif', 'Times New Roman', serif; text-anchor: middle; fill: #262626" x="303.900515" y="119.163818" transform="rotate(-0 303.900515 119.163818)">mean=-0.99</text>
   </g>
   <g id="text_14">
    <!-- $x_1^2$ -->
    <g style="fill: #262626" transform="translate(282.973187 49.58)">
     <text>
      <tspan x="0" y="-0.734375" style="font-style: oblique; font-size: 28px; font-family: 'DejaVu Sans'; fill: #262626">x</tspan>
      <tspan x="16.570312" y="6.921875" style="font-size: 19.6px; font-family: 'DejaVu Sans'; fill: #262626">1</tspan>
      <tspan x="17.820833" y="-11.453125" style="font-size: 19.6px; font-family: 'DejaVu Sans'; fill: #262626">2</tspan>
     </text>
    </g>
   </g>
  </g>
 </g>
 <defs>
  <clipPath id="p84043eb0ba">
   <rect x="44.786374" y="57.42" width="507.453626" height="323.42"/>
  </clipPath>
 </defs>
</svg>
