<?xml version="1.0" encoding="utf-8" standalone="no"?>
<!DOCTYPE svg PUBLIC "-//W3C//DTD SVG 1.1//EN"
  "http://www.w3.org/Graphics/SVG/1.1/DTD/svg11.dtd">
<svg xmlns:xlink="http://www.w3.org/1999/xlink" width="576pt" height="432pt" viewBox="0 0 576 432" xmlns="http://www.w3.org/2000/svg" version="1.1">
 <metadata>
  <rdf:RDF xmlns:dc="http://purl.org/dc/elements/1.1/" xmlns:cc="http://creativecommons.org/ns#" xmlns:rdf="http://www.w3.org/1999/02/22-rdf-syntax-ns#">
   <cc:Work>
    <dc:type rdf:resource="http://purl.org/dc/dcmitype/StillImage"/>
    <dc:date>2025-09-22T22:41:52.527988</dc:date>
    <dc:format>image/svg+xml</dc:format>
    <dc:creator>
     <cc:Agent>
      <dc:title>Matplotlib v3.10.0, https://matplotlib.org/</dc:title>
     </cc:Agent>
    </dc:creator>
   </cc:Work>
  </rdf:RDF>
 </metadata>
 <defs>
  <style type="text/css">*{stroke-linejoin: round; stroke-linecap: butt}</style>
 </defs>
 <g id="figure_1">
  <g id="patch_1">
   <path d="M 0 432 
L 576 432 
L 576 0 
L 0 0 
L 0 432 
z
" style="fill: none; opacity: 0"/>
  </g>
  <g id="axes_1">
   <g id="patch_2">
    <path d="M 42.923361 380.84 
L 552.24 380.84 
L 552.24 57.42 
L 42.923361 57.42 
L 42.923361 380.84 
z
" style="fill: none"/>
   </g>
   <g id="matplotlib.axis_1">
    <g id="xtick_1">
     <g id="line2d_1">
      <path d="M 52.514851 380.84 
L 52.514851 57.42 
" clip-path="url(#pd1640868f4)" style="fill: none; stroke: #ffffff; stroke-opacity: 0.4; stroke-linecap: round"/>
     </g>
     <g id="line2d_2">
      <defs>
       <path id="mb96a6f5051" d="M 0 0 
L 0 3 
" style="stroke: #808080"/>
      </defs>
      <g>
       <use xlink:href="#mb96a6f5051" x="52.514851" y="380.84" style="fill: #808080; stroke: #808080"/>
      </g>
     </g>
     <g id="text_1">
      <text style="font-size: 18px; font-family: 'DejaVu Serif', 'Times New Roman', serif; text-anchor: middle; fill: #262626" x="52.514851" y="404.517187" transform="rotate(-0 52.514851 404.517187)">−0.35</text>
     </g>
    </g>
    <g id="xtick_2">
     <g id="line2d_3">
      <path d="M 157.307883 380.84 
L 157.307883 57.42 
" clip-path="url(#pd1640868f4)" style="fill: none; stroke: #ffffff; stroke-opacity: 0.4; stroke-linecap: round"/>
     </g>
     <g id="line2d_4">
      <g>
       <use xlink:href="#mb96a6f5051" x="157.307883" y="380.84" style="fill: #808080; stroke: #808080"/>
      </g>
     </g>
     <g id="text_2">
      <text style="font-size: 18px; font-family: 'DejaVu Serif', 'Times New Roman', serif; text-anchor: middle; fill: #262626" x="157.307883" y="404.517187" transform="rotate(-0 157.307883 404.517187)">−0.30</text>
     </g>
    </g>
    <g id="xtick_3">
     <g id="line2d_5">
      <path d="M 262.100915 380.84 
L 262.100915 57.42 
" clip-path="url(#pd1640868f4)" style="fill: none; stroke: #ffffff; stroke-opacity: 0.4; stroke-linecap: round"/>
     </g>
     <g id="line2d_6">
      <g>
       <use xlink:href="#mb96a6f5051" x="262.100915" y="380.84" style="fill: #808080; stroke: #808080"/>
      </g>
     </g>
     <g id="text_3">
      <text style="font-size: 18px; font-family: 'DejaVu Serif', 'Times New Roman', serif; text-anchor: middle; fill: #262626" x="262.100915" y="404.517187" transform="rotate(-0 262.100915 404.517187)">−0.25</text>
     </g>
    </g>
    <g id="xtick_4">
     <g id="line2d_7">
      <path d="M 366.893947 380.84 
L 366.893947 57.42 
" clip-path="url(#pd1640868f4)" style="fill: none; stroke: #ffffff; stroke-opacity: 0.4; stroke-linecap: round"/>
     </g>
     <g id="line2d_8">
      <g>
       <use xlink:href="#mb96a6f5051" x="366.893947" y="380.84" style="fill: #808080; stroke: #808080"/>
      </g>
     </g>
     <g id="text_4">
      <text style="font-size: 18px; font-family: 'DejaVu Serif', 'Times New Roman', serif; text-anchor: middle; fill: #262626" x="366.893947" y="404.517187" transform="rotate(-0 366.893947 404.517187)">−0.20</text>
     </g>
    </g>
    <g id="xtick_5">
     <g id="line2d_9">
      <path d="M 471.686979 380.84 
L 471.686979 57.42 
" clip-path="url(#pd1640868f4)" style="fill: none; stroke: #ffffff; stroke-opacity: 0.4; stroke-linecap: round"/>
     </g>
     <g id="line2d_10">
      <g>
       <use xlink:href="#mb96a6f5051" x="471.686979" y="380.84" style="fill: #808080; stroke: #808080"/>
      </g>
     </g>
     <g id="text_5">
      <text style="font-size: 18px; font-family: 'DejaVu Serif', 'Times New Roman', serif; text-anchor: middle; fill: #262626" x="471.686979" y="404.517187" transform="rotate(-0 471.686979 404.517187)">−0.15</text>
     </g>
    </g>
   </g>
   <g id="matplotlib.axis_2"/>
   <g id="FillBetweenPolyCollection_1">
    <defs>
     <path id="mf636266c86" d="M 66.074117 -65.860909 
L 66.074117 -68.723402 
L 66.980213 -68.730301 
L 67.886309 -68.74678 
L 68.792405 -68.770105 
L 69.698501 -68.797493 
L 70.604598 -68.828747 
L 71.510694 -68.868984 
L 72.41679 -68.914567 
L 73.322886 -68.968517 
L 74.228982 -69.027841 
L 75.135078 -69.086167 
L 76.041174 -69.152409 
L 76.947271 -69.222793 
L 77.853367 -69.296271 
L 78.759463 -69.3724 
L 79.665559 -69.457434 
L 80.571655 -69.538982 
L 81.477751 -69.622706 
L 82.383847 -69.718273 
L 83.289944 -69.810776 
L 84.19604 -69.902172 
L 85.102136 -70.001069 
L 86.008232 -70.092621 
L 86.914328 -70.19214 
L 87.820424 -70.300329 
L 88.72652 -70.404786 
L 89.632616 -70.507864 
L 90.538713 -70.615825 
L 91.444809 -70.723536 
L 92.350905 -70.840714 
L 93.257001 -70.959103 
L 94.163097 -71.078593 
L 95.069193 -71.2118 
L 95.975289 -71.347985 
L 96.881386 -71.491249 
L 97.787482 -71.639028 
L 98.693578 -71.800851 
L 99.599674 -71.968847 
L 100.50577 -72.139886 
L 101.411866 -72.330099 
L 102.317962 -72.528851 
L 103.224059 -72.739663 
L 104.130155 -72.959935 
L 105.036251 -73.1997 
L 105.942347 -73.450902 
L 106.848443 -73.716871 
L 107.754539 -73.998136 
L 108.660635 -74.2857 
L 109.566732 -74.598459 
L 110.472828 -74.927852 
L 111.378924 -75.280137 
L 112.28502 -75.646797 
L 113.191116 -76.03738 
L 114.097212 -76.45674 
L 115.003308 -76.883829 
L 115.909404 -77.319598 
L 116.815501 -77.778617 
L 117.721597 -78.24851 
L 118.627693 -78.740939 
L 119.533789 -79.26014 
L 120.439885 -79.791151 
L 121.345981 -80.333062 
L 122.252077 -80.894161 
L 123.158174 -81.470657 
L 124.06427 -82.05874 
L 124.970366 -82.66453 
L 125.876462 -83.301598 
L 126.782558 -83.949729 
L 127.688654 -84.624487 
L 128.59475 -85.304128 
L 129.500847 -86.006438 
L 130.406943 -86.72642 
L 131.313039 -87.448503 
L 132.219135 -88.197144 
L 133.125231 -88.970763 
L 134.031327 -89.764133 
L 134.937423 -90.568774 
L 135.84352 -91.400293 
L 136.749616 -92.26092 
L 137.655712 -93.129707 
L 138.561808 -94.020451 
L 139.467904 -94.947283 
L 140.374 -95.890333 
L 141.280096 -96.871954 
L 142.186193 -97.869536 
L 143.092289 -98.895223 
L 143.998385 -99.955574 
L 144.904481 -101.041697 
L 145.810577 -102.183429 
L 146.716673 -103.336457 
L 147.622769 -104.52398 
L 148.528865 -105.727128 
L 149.434962 -106.981646 
L 150.341058 -108.264196 
L 151.247154 -109.580307 
L 152.15325 -110.933915 
L 153.059346 -112.305524 
L 153.965442 -113.70146 
L 154.871538 -115.136917 
L 155.777635 -116.586251 
L 156.683731 -118.067937 
L 157.589827 -119.591573 
L 158.495923 -121.116176 
L 159.402019 -122.66962 
L 160.308115 -124.235988 
L 161.214211 -125.825003 
L 162.120308 -127.409513 
L 163.026404 -129.017137 
L 163.9325 -130.63128 
L 164.838596 -132.239541 
L 165.744692 -133.865414 
L 166.650788 -135.493085 
L 167.556884 -137.113113 
L 168.462981 -138.743913 
L 169.369077 -140.376697 
L 170.275173 -142.035428 
L 171.181269 -143.681583 
L 172.087365 -145.331957 
L 172.993461 -146.960401 
L 173.899557 -148.594005 
L 174.805653 -150.246498 
L 175.71175 -151.900084 
L 176.617846 -153.541871 
L 177.523942 -155.200255 
L 178.430038 -156.846036 
L 179.336134 -158.496865 
L 180.24223 -160.152158 
L 181.148326 -161.816527 
L 182.054423 -163.509365 
L 182.960519 -165.195673 
L 183.866615 -166.898901 
L 184.772711 -168.577956 
L 185.678807 -170.270301 
L 186.584903 -171.978969 
L 187.490999 -173.670221 
L 188.397096 -175.39382 
L 189.303192 -177.111368 
L 190.209288 -178.856524 
L 191.115384 -180.58138 
L 192.02148 -182.3413 
L 192.927576 -184.07536 
L 193.833672 -185.823869 
L 194.739769 -187.59151 
L 195.645865 -189.359292 
L 196.551961 -191.154736 
L 197.458057 -192.93007 
L 198.364153 -194.744003 
L 199.270249 -196.574255 
L 200.176345 -198.419066 
L 201.082442 -200.291749 
L 201.988538 -202.214714 
L 202.894634 -204.135548 
L 203.80073 -206.114203 
L 204.706826 -208.105911 
L 205.612922 -210.141937 
L 206.519018 -212.196244 
L 207.425114 -214.310724 
L 208.331211 -216.450294 
L 209.237307 -218.679259 
L 210.143403 -220.923928 
L 211.049499 -223.218744 
L 211.955595 -225.534502 
L 212.861691 -227.943107 
L 213.767787 -230.366336 
L 214.673884 -232.843791 
L 215.57998 -235.363968 
L 216.486076 -237.885448 
L 217.392172 -240.451199 
L 218.298268 -243.05306 
L 219.204364 -245.65798 
L 220.11046 -248.287637 
L 221.016557 -250.910582 
L 221.922653 -253.554045 
L 222.828749 -256.175311 
L 223.734845 -258.812435 
L 224.640941 -261.471698 
L 225.547037 -264.07838 
L 226.453133 -266.667344 
L 227.35923 -269.215519 
L 228.265326 -271.75965 
L 229.171422 -274.289755 
L 230.077518 -276.774083 
L 230.983614 -279.217648 
L 231.88971 -281.591701 
L 232.795806 -283.941271 
L 233.701903 -286.251498 
L 234.607999 -288.550344 
L 235.514095 -290.771321 
L 236.420191 -292.956441 
L 237.326287 -295.113507 
L 238.232383 -297.248022 
L 239.138479 -299.328965 
L 240.044575 -301.356998 
L 240.950672 -303.329085 
L 241.856768 -305.29881 
L 242.762864 -307.229722 
L 243.66896 -309.079977 
L 244.575056 -310.939241 
L 245.481152 -312.751779 
L 246.387248 -314.533095 
L 247.293345 -316.276456 
L 248.199441 -317.985194 
L 249.105537 -319.644917 
L 250.011633 -321.30441 
L 250.917729 -322.941534 
L 251.823825 -324.497067 
L 252.729921 -326.019629 
L 253.636018 -327.516638 
L 254.542114 -328.952543 
L 255.44821 -330.357971 
L 256.354306 -331.703708 
L 257.260402 -333.006093 
L 258.166498 -334.27416 
L 259.072594 -335.535395 
L 259.978691 -336.729572 
L 260.884787 -337.862663 
L 261.790883 -338.985842 
L 262.696979 -340.043185 
L 263.603075 -341.077951 
L 264.509171 -342.098765 
L 265.415267 -343.056483 
L 266.321363 -343.953513 
L 267.22746 -344.825522 
L 268.133556 -345.632753 
L 269.039652 -346.416814 
L 269.945748 -347.171757 
L 270.851844 -347.901562 
L 271.75794 -348.61578 
L 272.664036 -349.295776 
L 273.570133 -349.964328 
L 274.476229 -350.599193 
L 275.382325 -351.188908 
L 276.288421 -351.727424 
L 277.194517 -352.29898 
L 278.100613 -352.846739 
L 279.006709 -353.408687 
L 279.912806 -353.937591 
L 280.818902 -354.414354 
L 281.724998 -354.896586 
L 282.631094 -355.341452 
L 283.53719 -355.787382 
L 284.443286 -356.196525 
L 285.349382 -356.599211 
L 286.255479 -356.973417 
L 287.161575 -357.353318 
L 288.067671 -357.703789 
L 288.973767 -358.069068 
L 289.879863 -358.374208 
L 290.785959 -358.660382 
L 291.692055 -358.916471 
L 292.598152 -359.170311 
L 293.504248 -359.393699 
L 294.410344 -359.571998 
L 295.31644 -359.679731 
L 296.222536 -359.778641 
L 297.128632 -359.850552 
L 298.034728 -359.879091 
L 298.940824 -359.824203 
L 299.846921 -359.750715 
L 300.753017 -359.632355 
L 301.659113 -359.456403 
L 302.565209 -359.251122 
L 303.471305 -358.985065 
L 304.377401 -358.642548 
L 305.283497 -358.222801 
L 306.189594 -357.759674 
L 307.09569 -357.263961 
L 308.001786 -356.705175 
L 308.907882 -356.108399 
L 309.813978 -355.413772 
L 310.720074 -354.634886 
L 311.62617 -353.860735 
L 312.532267 -353.021029 
L 313.438363 -352.133217 
L 314.344459 -351.176207 
L 315.250555 -350.163975 
L 316.156651 -349.143451 
L 317.062747 -348.079447 
L 317.968843 -347.010375 
L 318.87494 -345.869854 
L 319.781036 -344.717654 
L 320.687132 -343.519633 
L 321.593228 -342.306988 
L 322.499324 -341.064482 
L 323.40542 -339.800217 
L 324.311516 -338.496074 
L 325.217612 -337.21844 
L 326.123709 -335.917625 
L 327.029805 -334.61733 
L 327.935901 -333.290135 
L 328.841997 -331.955773 
L 329.748093 -330.6095 
L 330.654189 -329.223743 
L 331.560285 -327.827279 
L 332.466382 -326.411792 
L 333.372478 -324.987468 
L 334.278574 -323.551796 
L 335.18467 -322.102412 
L 336.090766 -320.592783 
L 336.996862 -319.065602 
L 337.902958 -317.539951 
L 338.809055 -316.00016 
L 339.715151 -314.416108 
L 340.621247 -312.777324 
L 341.527343 -311.137963 
L 342.433439 -309.441388 
L 343.339535 -307.708778 
L 344.245631 -305.945638 
L 345.151728 -304.122536 
L 346.057824 -302.282176 
L 346.96392 -300.407698 
L 347.870016 -298.474864 
L 348.776112 -296.545003 
L 349.682208 -294.533809 
L 350.588304 -292.474249 
L 351.494401 -290.420162 
L 352.400497 -288.347469 
L 353.306593 -286.225537 
L 354.212689 -284.085219 
L 355.118785 -281.923589 
L 356.024881 -279.734944 
L 356.930977 -277.542621 
L 357.837073 -275.308212 
L 358.74317 -273.057202 
L 359.649266 -270.778042 
L 360.555362 -268.485383 
L 361.461458 -266.208223 
L 362.367554 -263.938025 
L 363.27365 -261.629502 
L 364.179746 -259.307608 
L 365.085843 -256.975685 
L 365.991939 -254.66588 
L 366.898035 -252.369413 
L 367.804131 -250.05278 
L 368.710227 -247.742335 
L 369.616323 -245.439887 
L 370.522419 -243.110992 
L 371.428516 -240.791528 
L 372.334612 -238.481196 
L 373.240708 -236.146481 
L 374.146804 -233.816344 
L 375.0529 -231.467272 
L 375.958996 -229.13958 
L 376.865092 -226.822448 
L 377.771189 -224.479761 
L 378.677285 -222.139459 
L 379.583381 -219.782895 
L 380.489477 -217.461518 
L 381.395573 -215.132939 
L 382.301669 -212.814 
L 383.207765 -210.474501 
L 384.113861 -208.151895 
L 385.019958 -205.836338 
L 385.926054 -203.545559 
L 386.83215 -201.254718 
L 387.738246 -198.980585 
L 388.644342 -196.737333 
L 389.550438 -194.495818 
L 390.456534 -192.272197 
L 391.362631 -190.121716 
L 392.268727 -187.953829 
L 393.174823 -185.792539 
L 394.080919 -183.656063 
L 394.987015 -181.541277 
L 395.893111 -179.493091 
L 396.799207 -177.456819 
L 397.705304 -175.422995 
L 398.6114 -173.443879 
L 399.517496 -171.48685 
L 400.423592 -169.559354 
L 401.329688 -167.647766 
L 402.235784 -165.737085 
L 403.14188 -163.864882 
L 404.047977 -161.990767 
L 404.954073 -160.177251 
L 405.860169 -158.346386 
L 406.766265 -156.531785 
L 407.672361 -154.739213 
L 408.578457 -152.957388 
L 409.484553 -151.177802 
L 410.39065 -149.409618 
L 411.296746 -147.642931 
L 412.202842 -145.907221 
L 413.108938 -144.164157 
L 414.015034 -142.409638 
L 414.92113 -140.665647 
L 415.827226 -138.954824 
L 416.733322 -137.251716 
L 417.639419 -135.559164 
L 418.545515 -133.88232 
L 419.451611 -132.21505 
L 420.357707 -130.570012 
L 421.263803 -128.93176 
L 422.169899 -127.326965 
L 423.075995 -125.742777 
L 423.982092 -124.194411 
L 424.888188 -122.661339 
L 425.794284 -121.173084 
L 426.70038 -119.743489 
L 427.606476 -118.315629 
L 428.512572 -116.959442 
L 429.418668 -115.645509 
L 430.324765 -114.357358 
L 431.230861 -113.115358 
L 432.136957 -111.914065 
L 433.043053 -110.759753 
L 433.949149 -109.64629 
L 434.855245 -108.577152 
L 435.761341 -107.565809 
L 436.667438 -106.603101 
L 437.573534 -105.670766 
L 438.47963 -104.779671 
L 439.385726 -103.915509 
L 440.291822 -103.095016 
L 441.197918 -102.30395 
L 442.104014 -101.540534 
L 443.010111 -100.799356 
L 443.916207 -100.086835 
L 444.822303 -99.396633 
L 445.728399 -98.739389 
L 446.634495 -98.084903 
L 447.540591 -97.451223 
L 448.446687 -96.814786 
L 449.352783 -96.183354 
L 450.25888 -95.554695 
L 451.164976 -94.943097 
L 452.071072 -94.316198 
L 452.977168 -93.699484 
L 453.883264 -93.07261 
L 454.78936 -92.443641 
L 455.695456 -91.80556 
L 456.601553 -91.18077 
L 457.507649 -90.521595 
L 458.413745 -89.860046 
L 459.319841 -89.211213 
L 460.225937 -88.542497 
L 461.132033 -87.884022 
L 462.038129 -87.218634 
L 462.944226 -86.545409 
L 463.850322 -85.883103 
L 464.756418 -85.217843 
L 465.662514 -84.558533 
L 466.56861 -83.89593 
L 467.474706 -83.241434 
L 468.380802 -82.596958 
L 469.286899 -81.967074 
L 470.192995 -81.355725 
L 471.099091 -80.761448 
L 472.005187 -80.169035 
L 472.911283 -79.603902 
L 473.817379 -79.057827 
L 474.723475 -78.526989 
L 475.629571 -78.0263 
L 476.535668 -77.545852 
L 477.441764 -77.067071 
L 478.34786 -76.627337 
L 479.253956 -76.218137 
L 480.160052 -75.818093 
L 481.066148 -75.445722 
L 481.972244 -75.091312 
L 482.878341 -74.765921 
L 483.784437 -74.456478 
L 484.690533 -74.160368 
L 485.596629 -73.88623 
L 486.502725 -73.633316 
L 487.408821 -73.400951 
L 488.314917 -73.184563 
L 489.221014 -72.980157 
L 490.12711 -72.790286 
L 491.033206 -72.611382 
L 491.939302 -72.445839 
L 492.845398 -72.295418 
L 493.751494 -72.153168 
L 494.65759 -72.021457 
L 495.563687 -71.897194 
L 496.469783 -71.782673 
L 497.375879 -71.676255 
L 498.281975 -71.571486 
L 499.188071 -71.477263 
L 500.094167 -71.400808 
L 501.000263 -71.322142 
L 501.90636 -71.249416 
L 502.812456 -71.182096 
L 503.718552 -71.110976 
L 504.624648 -71.044315 
L 505.530744 -70.975625 
L 506.43684 -70.9078 
L 507.342936 -70.845914 
L 508.249032 -70.783766 
L 509.155129 -70.721298 
L 510.061225 -70.652423 
L 510.967321 -70.589146 
L 511.873417 -70.525495 
L 512.779513 -70.464992 
L 513.685609 -70.398537 
L 514.591705 -70.339714 
L 515.497802 -70.279547 
L 516.403898 -70.219942 
L 517.309994 -70.164687 
L 518.21609 -70.108259 
L 519.122186 -70.05385 
L 520.028282 -70.001915 
L 520.934378 -69.950164 
L 521.840475 -69.902269 
L 522.746571 -69.858537 
L 523.652667 -69.816519 
L 524.558763 -69.785188 
L 525.464859 -69.758176 
L 526.370955 -69.733029 
L 527.277051 -69.713212 
L 528.183148 -69.702137 
L 529.089244 -69.696569 
L 529.089244 -65.860909 
L 529.089244 -65.860909 
L 528.183148 -65.860909 
L 527.277051 -65.860909 
L 526.370955 -65.860909 
L 525.464859 -65.860909 
L 524.558763 -65.860909 
L 523.652667 -65.860909 
L 522.746571 -65.860909 
L 521.840475 -65.860909 
L 520.934378 -65.860909 
L 520.028282 -65.860909 
L 519.122186 -65.860909 
L 518.21609 -65.860909 
L 517.309994 -65.860909 
L 516.403898 -65.860909 
L 515.497802 -65.860909 
L 514.591705 -65.860909 
L 513.685609 -65.860909 
L 512.779513 -65.860909 
L 511.873417 -65.860909 
L 510.967321 -65.860909 
L 510.061225 -65.860909 
L 509.155129 -65.860909 
L 508.249032 -65.860909 
L 507.342936 -65.860909 
L 506.43684 -65.860909 
L 505.530744 -65.860909 
L 504.624648 -65.860909 
L 503.718552 -65.860909 
L 502.812456 -65.860909 
L 501.90636 -65.860909 
L 501.000263 -65.860909 
L 500.094167 -65.860909 
L 499.188071 -65.860909 
L 498.281975 -65.860909 
L 497.375879 -65.860909 
L 496.469783 -65.860909 
L 495.563687 -65.860909 
L 494.65759 -65.860909 
L 493.751494 -65.860909 
L 492.845398 -65.860909 
L 491.939302 -65.860909 
L 491.033206 -65.860909 
L 490.12711 -65.860909 
L 489.221014 -65.860909 
L 488.314917 -65.860909 
L 487.408821 -65.860909 
L 486.502725 -65.860909 
L 485.596629 -65.860909 
L 484.690533 -65.860909 
L 483.784437 -65.860909 
L 482.878341 -65.860909 
L 481.972244 -65.860909 
L 481.066148 -65.860909 
L 480.160052 -65.860909 
L 479.253956 -65.860909 
L 478.34786 -65.860909 
L 477.441764 -65.860909 
L 476.535668 -65.860909 
L 475.629571 -65.860909 
L 474.723475 -65.860909 
L 473.817379 -65.860909 
L 472.911283 -65.860909 
L 472.005187 -65.860909 
L 471.099091 -65.860909 
L 470.192995 -65.860909 
L 469.286899 -65.860909 
L 468.380802 -65.860909 
L 467.474706 -65.860909 
L 466.56861 -65.860909 
L 465.662514 -65.860909 
L 464.756418 -65.860909 
L 463.850322 -65.860909 
L 462.944226 -65.860909 
L 462.038129 -65.860909 
L 461.132033 -65.860909 
L 460.225937 -65.860909 
L 459.319841 -65.860909 
L 458.413745 -65.860909 
L 457.507649 -65.860909 
L 456.601553 -65.860909 
L 455.695456 -65.860909 
L 454.78936 -65.860909 
L 453.883264 -65.860909 
L 452.977168 -65.860909 
L 452.071072 -65.860909 
L 451.164976 -65.860909 
L 450.25888 -65.860909 
L 449.352783 -65.860909 
L 448.446687 -65.860909 
L 447.540591 -65.860909 
L 446.634495 -65.860909 
L 445.728399 -65.860909 
L 444.822303 -65.860909 
L 443.916207 -65.860909 
L 443.010111 -65.860909 
L 442.104014 -65.860909 
L 441.197918 -65.860909 
L 440.291822 -65.860909 
L 439.385726 -65.860909 
L 438.47963 -65.860909 
L 437.573534 -65.860909 
L 436.667438 -65.860909 
L 435.761341 -65.860909 
L 434.855245 -65.860909 
L 433.949149 -65.860909 
L 433.043053 -65.860909 
L 432.136957 -65.860909 
L 431.230861 -65.860909 
L 430.324765 -65.860909 
L 429.418668 -65.860909 
L 428.512572 -65.860909 
L 427.606476 -65.860909 
L 426.70038 -65.860909 
L 425.794284 -65.860909 
L 424.888188 -65.860909 
L 423.982092 -65.860909 
L 423.075995 -65.860909 
L 422.169899 -65.860909 
L 421.263803 -65.860909 
L 420.357707 -65.860909 
L 419.451611 -65.860909 
L 418.545515 -65.860909 
L 417.639419 -65.860909 
L 416.733322 -65.860909 
L 415.827226 -65.860909 
L 414.92113 -65.860909 
L 414.015034 -65.860909 
L 413.108938 -65.860909 
L 412.202842 -65.860909 
L 411.296746 -65.860909 
L 410.39065 -65.860909 
L 409.484553 -65.860909 
L 408.578457 -65.860909 
L 407.672361 -65.860909 
L 406.766265 -65.860909 
L 405.860169 -65.860909 
L 404.954073 -65.860909 
L 404.047977 -65.860909 
L 403.14188 -65.860909 
L 402.235784 -65.860909 
L 401.329688 -65.860909 
L 400.423592 -65.860909 
L 399.517496 -65.860909 
L 398.6114 -65.860909 
L 397.705304 -65.860909 
L 396.799207 -65.860909 
L 395.893111 -65.860909 
L 394.987015 -65.860909 
L 394.080919 -65.860909 
L 393.174823 -65.860909 
L 392.268727 -65.860909 
L 391.362631 -65.860909 
L 390.456534 -65.860909 
L 389.550438 -65.860909 
L 388.644342 -65.860909 
L 387.738246 -65.860909 
L 386.83215 -65.860909 
L 385.926054 -65.860909 
L 385.019958 -65.860909 
L 384.113861 -65.860909 
L 383.207765 -65.860909 
L 382.301669 -65.860909 
L 381.395573 -65.860909 
L 380.489477 -65.860909 
L 379.583381 -65.860909 
L 378.677285 -65.860909 
L 377.771189 -65.860909 
L 376.865092 -65.860909 
L 375.958996 -65.860909 
L 375.0529 -65.860909 
L 374.146804 -65.860909 
L 373.240708 -65.860909 
L 372.334612 -65.860909 
L 371.428516 -65.860909 
L 370.522419 -65.860909 
L 369.616323 -65.860909 
L 368.710227 -65.860909 
L 367.804131 -65.860909 
L 366.898035 -65.860909 
L 365.991939 -65.860909 
L 365.085843 -65.860909 
L 364.179746 -65.860909 
L 363.27365 -65.860909 
L 362.367554 -65.860909 
L 361.461458 -65.860909 
L 360.555362 -65.860909 
L 359.649266 -65.860909 
L 358.74317 -65.860909 
L 357.837073 -65.860909 
L 356.930977 -65.860909 
L 356.024881 -65.860909 
L 355.118785 -65.860909 
L 354.212689 -65.860909 
L 353.306593 -65.860909 
L 352.400497 -65.860909 
L 351.494401 -65.860909 
L 350.588304 -65.860909 
L 349.682208 -65.860909 
L 348.776112 -65.860909 
L 347.870016 -65.860909 
L 346.96392 -65.860909 
L 346.057824 -65.860909 
L 345.151728 -65.860909 
L 344.245631 -65.860909 
L 343.339535 -65.860909 
L 342.433439 -65.860909 
L 341.527343 -65.860909 
L 340.621247 -65.860909 
L 339.715151 -65.860909 
L 338.809055 -65.860909 
L 337.902958 -65.860909 
L 336.996862 -65.860909 
L 336.090766 -65.860909 
L 335.18467 -65.860909 
L 334.278574 -65.860909 
L 333.372478 -65.860909 
L 332.466382 -65.860909 
L 331.560285 -65.860909 
L 330.654189 -65.860909 
L 329.748093 -65.860909 
L 328.841997 -65.860909 
L 327.935901 -65.860909 
L 327.029805 -65.860909 
L 326.123709 -65.860909 
L 325.217612 -65.860909 
L 324.311516 -65.860909 
L 323.40542 -65.860909 
L 322.499324 -65.860909 
L 321.593228 -65.860909 
L 320.687132 -65.860909 
L 319.781036 -65.860909 
L 318.87494 -65.860909 
L 317.968843 -65.860909 
L 317.062747 -65.860909 
L 316.156651 -65.860909 
L 315.250555 -65.860909 
L 314.344459 -65.860909 
L 313.438363 -65.860909 
L 312.532267 -65.860909 
L 311.62617 -65.860909 
L 310.720074 -65.860909 
L 309.813978 -65.860909 
L 308.907882 -65.860909 
L 308.001786 -65.860909 
L 307.09569 -65.860909 
L 306.189594 -65.860909 
L 305.283497 -65.860909 
L 304.377401 -65.860909 
L 303.471305 -65.860909 
L 302.565209 -65.860909 
L 301.659113 -65.860909 
L 300.753017 -65.860909 
L 299.846921 -65.860909 
L 298.940824 -65.860909 
L 298.034728 -65.860909 
L 297.128632 -65.860909 
L 296.222536 -65.860909 
L 295.31644 -65.860909 
L 294.410344 -65.860909 
L 293.504248 -65.860909 
L 292.598152 -65.860909 
L 291.692055 -65.860909 
L 290.785959 -65.860909 
L 289.879863 -65.860909 
L 288.973767 -65.860909 
L 288.067671 -65.860909 
L 287.161575 -65.860909 
L 286.255479 -65.860909 
L 285.349382 -65.860909 
L 284.443286 -65.860909 
L 283.53719 -65.860909 
L 282.631094 -65.860909 
L 281.724998 -65.860909 
L 280.818902 -65.860909 
L 279.912806 -65.860909 
L 279.006709 -65.860909 
L 278.100613 -65.860909 
L 277.194517 -65.860909 
L 276.288421 -65.860909 
L 275.382325 -65.860909 
L 274.476229 -65.860909 
L 273.570133 -65.860909 
L 272.664036 -65.860909 
L 271.75794 -65.860909 
L 270.851844 -65.860909 
L 269.945748 -65.860909 
L 269.039652 -65.860909 
L 268.133556 -65.860909 
L 267.22746 -65.860909 
L 266.321363 -65.860909 
L 265.415267 -65.860909 
L 264.509171 -65.860909 
L 263.603075 -65.860909 
L 262.696979 -65.860909 
L 261.790883 -65.860909 
L 260.884787 -65.860909 
L 259.978691 -65.860909 
L 259.072594 -65.860909 
L 258.166498 -65.860909 
L 257.260402 -65.860909 
L 256.354306 -65.860909 
L 255.44821 -65.860909 
L 254.542114 -65.860909 
L 253.636018 -65.860909 
L 252.729921 -65.860909 
L 251.823825 -65.860909 
L 250.917729 -65.860909 
L 250.011633 -65.860909 
L 249.105537 -65.860909 
L 248.199441 -65.860909 
L 247.293345 -65.860909 
L 246.387248 -65.860909 
L 245.481152 -65.860909 
L 244.575056 -65.860909 
L 243.66896 -65.860909 
L 242.762864 -65.860909 
L 241.856768 -65.860909 
L 240.950672 -65.860909 
L 240.044575 -65.860909 
L 239.138479 -65.860909 
L 238.232383 -65.860909 
L 237.326287 -65.860909 
L 236.420191 -65.860909 
L 235.514095 -65.860909 
L 234.607999 -65.860909 
L 233.701903 -65.860909 
L 232.795806 -65.860909 
L 231.88971 -65.860909 
L 230.983614 -65.860909 
L 230.077518 -65.860909 
L 229.171422 -65.860909 
L 228.265326 -65.860909 
L 227.35923 -65.860909 
L 226.453133 -65.860909 
L 225.547037 -65.860909 
L 224.640941 -65.860909 
L 223.734845 -65.860909 
L 222.828749 -65.860909 
L 221.922653 -65.860909 
L 221.016557 -65.860909 
L 220.11046 -65.860909 
L 219.204364 -65.860909 
L 218.298268 -65.860909 
L 217.392172 -65.860909 
L 216.486076 -65.860909 
L 215.57998 -65.860909 
L 214.673884 -65.860909 
L 213.767787 -65.860909 
L 212.861691 -65.860909 
L 211.955595 -65.860909 
L 211.049499 -65.860909 
L 210.143403 -65.860909 
L 209.237307 -65.860909 
L 208.331211 -65.860909 
L 207.425114 -65.860909 
L 206.519018 -65.860909 
L 205.612922 -65.860909 
L 204.706826 -65.860909 
L 203.80073 -65.860909 
L 202.894634 -65.860909 
L 201.988538 -65.860909 
L 201.082442 -65.860909 
L 200.176345 -65.860909 
L 199.270249 -65.860909 
L 198.364153 -65.860909 
L 197.458057 -65.860909 
L 196.551961 -65.860909 
L 195.645865 -65.860909 
L 194.739769 -65.860909 
L 193.833672 -65.860909 
L 192.927576 -65.860909 
L 192.02148 -65.860909 
L 191.115384 -65.860909 
L 190.209288 -65.860909 
L 189.303192 -65.860909 
L 188.397096 -65.860909 
L 187.490999 -65.860909 
L 186.584903 -65.860909 
L 185.678807 -65.860909 
L 184.772711 -65.860909 
L 183.866615 -65.860909 
L 182.960519 -65.860909 
L 182.054423 -65.860909 
L 181.148326 -65.860909 
L 180.24223 -65.860909 
L 179.336134 -65.860909 
L 178.430038 -65.860909 
L 177.523942 -65.860909 
L 176.617846 -65.860909 
L 175.71175 -65.860909 
L 174.805653 -65.860909 
L 173.899557 -65.860909 
L 172.993461 -65.860909 
L 172.087365 -65.860909 
L 171.181269 -65.860909 
L 170.275173 -65.860909 
L 169.369077 -65.860909 
L 168.462981 -65.860909 
L 167.556884 -65.860909 
L 166.650788 -65.860909 
L 165.744692 -65.860909 
L 164.838596 -65.860909 
L 163.9325 -65.860909 
L 163.026404 -65.860909 
L 162.120308 -65.860909 
L 161.214211 -65.860909 
L 160.308115 -65.860909 
L 159.402019 -65.860909 
L 158.495923 -65.860909 
L 157.589827 -65.860909 
L 156.683731 -65.860909 
L 155.777635 -65.860909 
L 154.871538 -65.860909 
L 153.965442 -65.860909 
L 153.059346 -65.860909 
L 152.15325 -65.860909 
L 151.247154 -65.860909 
L 150.341058 -65.860909 
L 149.434962 -65.860909 
L 148.528865 -65.860909 
L 147.622769 -65.860909 
L 146.716673 -65.860909 
L 145.810577 -65.860909 
L 144.904481 -65.860909 
L 143.998385 -65.860909 
L 143.092289 -65.860909 
L 142.186193 -65.860909 
L 141.280096 -65.860909 
L 140.374 -65.860909 
L 139.467904 -65.860909 
L 138.561808 -65.860909 
L 137.655712 -65.860909 
L 136.749616 -65.860909 
L 135.84352 -65.860909 
L 134.937423 -65.860909 
L 134.031327 -65.860909 
L 133.125231 -65.860909 
L 132.219135 -65.860909 
L 131.313039 -65.860909 
L 130.406943 -65.860909 
L 129.500847 -65.860909 
L 128.59475 -65.860909 
L 127.688654 -65.860909 
L 126.782558 -65.860909 
L 125.876462 -65.860909 
L 124.970366 -65.860909 
L 124.06427 -65.860909 
L 123.158174 -65.860909 
L 122.252077 -65.860909 
L 121.345981 -65.860909 
L 120.439885 -65.860909 
L 119.533789 -65.860909 
L 118.627693 -65.860909 
L 117.721597 -65.860909 
L 116.815501 -65.860909 
L 115.909404 -65.860909 
L 115.003308 -65.860909 
L 114.097212 -65.860909 
L 113.191116 -65.860909 
L 112.28502 -65.860909 
L 111.378924 -65.860909 
L 110.472828 -65.860909 
L 109.566732 -65.860909 
L 108.660635 -65.860909 
L 107.754539 -65.860909 
L 106.848443 -65.860909 
L 105.942347 -65.860909 
L 105.036251 -65.860909 
L 104.130155 -65.860909 
L 103.224059 -65.860909 
L 102.317962 -65.860909 
L 101.411866 -65.860909 
L 100.50577 -65.860909 
L 99.599674 -65.860909 
L 98.693578 -65.860909 
L 97.787482 -65.860909 
L 96.881386 -65.860909 
L 95.975289 -65.860909 
L 95.069193 -65.860909 
L 94.163097 -65.860909 
L 93.257001 -65.860909 
L 92.350905 -65.860909 
L 91.444809 -65.860909 
L 90.538713 -65.860909 
L 89.632616 -65.860909 
L 88.72652 -65.860909 
L 87.820424 -65.860909 
L 86.914328 -65.860909 
L 86.008232 -65.860909 
L 85.102136 -65.860909 
L 84.19604 -65.860909 
L 83.289944 -65.860909 
L 82.383847 -65.860909 
L 81.477751 -65.860909 
L 80.571655 -65.860909 
L 79.665559 -65.860909 
L 78.759463 -65.860909 
L 77.853367 -65.860909 
L 76.947271 -65.860909 
L 76.041174 -65.860909 
L 75.135078 -65.860909 
L 74.228982 -65.860909 
L 73.322886 -65.860909 
L 72.41679 -65.860909 
L 71.510694 -65.860909 
L 70.604598 -65.860909 
L 69.698501 -65.860909 
L 68.792405 -65.860909 
L 67.886309 -65.860909 
L 66.980213 -65.860909 
L 66.074117 -65.860909 
z
" style="stroke: #7570b3; stroke-opacity: 0.6; stroke-width: 0.3"/>
    </defs>
    <g clip-path="url(#pd1640868f4)">
     <use xlink:href="#mf636266c86" x="0" y="432" style="fill: #7570b3; fill-opacity: 0.6; stroke: #7570b3; stroke-opacity: 0.6; stroke-width: 0.3"/>
    </g>
   </g>
   <g id="line2d_11">
    <path d="M 66.074117 363.276598 
L 71.510694 363.131016 
L 77.853367 362.703729 
L 86.008232 361.907379 
L 94.163097 360.921407 
L 99.599674 360.031153 
L 103.224059 359.260337 
L 106.848443 358.283129 
L 110.472828 357.072148 
L 113.191116 355.96262 
L 117.721597 353.75149 
L 121.345981 351.666938 
L 124.970366 349.33547 
L 128.59475 346.695872 
L 132.219135 343.802856 
L 135.84352 340.599707 
L 139.467904 337.052717 
L 142.186193 334.130464 
L 144.904481 330.958303 
L 148.528865 326.272872 
L 152.15325 321.066085 
L 155.777635 315.413749 
L 159.402019 309.33038 
L 164.838596 299.760459 
L 178.430038 275.153964 
L 185.678807 261.729699 
L 194.739769 244.40849 
L 200.176345 233.580934 
L 203.80073 225.885797 
L 207.425114 217.689276 
L 210.143403 211.076072 
L 213.767787 201.633664 
L 218.298268 188.94694 
L 230.983614 152.782352 
L 234.607999 143.449656 
L 238.232383 134.751978 
L 241.856768 126.70119 
L 244.575056 121.060759 
L 248.199441 114.014806 
L 251.823825 107.502933 
L 254.542114 103.047457 
L 257.260402 98.993907 
L 259.978691 95.270428 
L 262.696979 91.956815 
L 265.415267 88.943517 
L 268.133556 86.367247 
L 270.851844 84.098438 
L 273.570133 82.035672 
L 275.382325 80.811092 
L 281.724998 77.103414 
L 285.349382 75.400789 
L 289.879863 73.625792 
L 292.598152 72.829689 
L 294.410344 72.428002 
L 297.128632 72.149448 
L 298.940824 72.175797 
L 300.753017 72.367645 
L 302.565209 72.748878 
L 304.377401 73.357452 
L 307.09569 74.736039 
L 308.907882 75.891601 
L 310.720074 77.365114 
L 312.532267 78.978971 
L 314.344459 80.823793 
L 317.968843 84.989625 
L 321.593228 89.693012 
L 326.123709 96.082375 
L 330.654189 102.776257 
L 335.18467 109.897588 
L 339.715151 117.583892 
L 343.339535 124.291222 
L 346.057824 129.717824 
L 349.682208 137.466191 
L 355.118785 150.076411 
L 359.649266 161.221958 
L 374.146804 198.183656 
L 385.926054 228.454441 
L 390.456534 239.727803 
L 396.799207 254.543181 
L 400.423592 262.440646 
L 405.860169 273.653614 
L 411.296746 284.357069 
L 419.451611 299.78495 
L 423.982092 307.805589 
L 426.70038 312.256511 
L 429.418668 316.354491 
L 432.136957 320.085935 
L 434.855245 323.422848 
L 437.573534 326.329234 
L 440.291822 328.904984 
L 443.010111 331.200644 
L 446.634495 333.915097 
L 462.944226 345.454591 
L 470.192995 350.644275 
L 473.817379 352.942173 
L 476.535668 354.454148 
L 479.253956 355.781863 
L 481.972244 356.908688 
L 485.596629 358.11377 
L 489.221014 359.019843 
L 492.845398 359.704582 
L 497.375879 360.323745 
L 501.90636 360.750584 
L 520.028282 361.998085 
L 526.370955 362.266971 
L 529.089244 362.303431 
L 529.089244 362.303431 
" clip-path="url(#pd1640868f4)" style="fill: none; stroke: #7570b3; stroke-width: 2; stroke-linecap: round"/>
   </g>
   <g id="line2d_12">
    <path d="M 183.327275 359.964709 
L 415.321251 359.964709 
" clip-path="url(#pd1640868f4)" style="fill: none; stroke: #000000; stroke-width: 3.5"/>
   </g>
   <g id="patch_3">
    <path d="M 42.923361 380.84 
L 552.24 380.84 
" style="fill: none; stroke: #333333; stroke-width: 1.5; stroke-linejoin: miter; stroke-linecap: square"/>
   </g>
   <g id="text_6">
    <text style="font-size: 22px; font-family: 'DejaVu Serif', 'Times New Roman', serif; text-anchor: end; fill: #262626" x="183.327275" y="344.528755" transform="rotate(-0 183.327275 344.528755)">-0.29 </text>
   </g>
   <g id="text_7">
    <text style="font-size: 22px; font-family: 'DejaVu Serif', 'Times New Roman', serif; text-anchor: start; fill: #262626" x="415.321251" y="344.528755" transform="rotate(-0 415.321251 344.528755)"> -0.18</text>
   </g>
   <g id="text_8">
    <text style="font-size: 22px; font-family: 'DejaVu Serif', 'Times New Roman', serif; text-anchor: middle; fill: #262626" x="299.324263" y="273.523364" transform="rotate(-0 299.324263 273.523364)">90% HDI</text>
   </g>
   <g id="text_9">
    <text style="font-size: 22px; font-family: 'DejaVu Serif', 'Times New Roman', serif; text-anchor: middle; fill: #262626" x="294.071051" y="119.163818" transform="rotate(-0 294.071051 119.163818)">mean=-0.23</text>
   </g>
   <g id="text_10">
    <!-- $x_1^2x_3$ -->
    <g style="fill: #262626" transform="translate(267.06168 49.58)">
     <text>
      <tspan x="0" y="-0.734375" style="font-style: oblique; font-size: 28px; font-family: 'DejaVu Sans'; fill: #262626">x</tspan>
      <tspan x="31.056576" y="-0.734375" style="font-style: oblique; font-size: 28px; font-family: 'DejaVu Sans'; fill: #262626">x</tspan>
      <tspan x="16.570312" y="6.921875" style="font-size: 19.6px; font-family: 'DejaVu Sans'; fill: #262626">1</tspan>
      <tspan x="17.820833" y="-11.453125" style="font-size: 19.6px; font-family: 'DejaVu Sans'; fill: #262626">2</tspan>
      <tspan x="47.626888" y="3.859375" style="font-size: 19.6px; font-family: 'DejaVu Sans'; fill: #262626">3</tspan>
     </text>
    </g>
   </g>
  </g>
 </g>
 <defs>
  <clipPath id="pd1640868f4">
   <rect x="42.923361" y="57.42" width="509.316639" height="323.42"/>
  </clipPath>
 </defs>
</svg>
