<?xml version="1.0" encoding="utf-8" standalone="no"?>
<!DOCTYPE svg PUBLIC "-//W3C//DTD SVG 1.1//EN"
  "http://www.w3.org/Graphics/SVG/1.1/DTD/svg11.dtd">
<svg xmlns:xlink="http://www.w3.org/1999/xlink" width="576pt" height="432pt" viewBox="0 0 576 432" xmlns="http://www.w3.org/2000/svg" version="1.1">
 <metadata>
  <rdf:RDF xmlns:dc="http://purl.org/dc/elements/1.1/" xmlns:cc="http://creativecommons.org/ns#" xmlns:rdf="http://www.w3.org/1999/02/22-rdf-syntax-ns#">
   <cc:Work>
    <dc:type rdf:resource="http://purl.org/dc/dcmitype/StillImage"/>
    <dc:date>2025-09-22T22:41:52.453218</dc:date>
    <dc:format>image/svg+xml</dc:format>
    <dc:creator>
     <cc:Agent>
      <dc:title>Matplotlib v3.10.0, https://matplotlib.org/</dc:title>
     </cc:Agent>
    </dc:creator>
   </cc:Work>
  </rdf:RDF>
 </metadata>
 <defs>
  <style type="text/css">*{stroke-linejoin: round; stroke-linecap: butt}</style>
 </defs>
 <g id="figure_1">
  <g id="patch_1">
   <path d="M 0 432 
L 576 432 
L 576 0 
L 0 0 
L 0 432 
z
" style="fill: none; opacity: 0"/>
  </g>
  <g id="axes_1">
   <g id="patch_2">
    <path d="M 30.71353 380.84 
L 540.312343 380.84 
L 540.312343 57.336 
L 30.71353 57.336 
L 30.71353 380.84 
z
" style="fill: none"/>
   </g>
   <g id="matplotlib.axis_1">
    <g id="xtick_1">
     <g id="line2d_1">
      <path d="M 45.644147 380.84 
L 45.644147 57.336 
" clip-path="url(#pd10a9bec9c)" style="fill: none; stroke: #ffffff; stroke-opacity: 0.4; stroke-linecap: round"/>
     </g>
     <g id="line2d_2">
      <defs>
       <path id="m05c14a60ca" d="M 0 0 
L 0 3 
" style="stroke: #808080"/>
      </defs>
      <g>
       <use xlink:href="#m05c14a60ca" x="45.644147" y="380.84" style="fill: #808080; stroke: #808080"/>
      </g>
     </g>
     <g id="text_1">
      <text style="font-size: 18px; font-family: 'DejaVu Serif', 'Times New Roman', serif; text-anchor: middle; fill: #262626" x="45.644147" y="404.517187" transform="rotate(-0 45.644147 404.517187)">0.000</text>
     </g>
    </g>
    <g id="xtick_2">
     <g id="line2d_3">
      <path d="M 106.321137 380.84 
L 106.321137 57.336 
" clip-path="url(#pd10a9bec9c)" style="fill: none; stroke: #ffffff; stroke-opacity: 0.4; stroke-linecap: round"/>
     </g>
     <g id="line2d_4">
      <g>
       <use xlink:href="#m05c14a60ca" x="106.321137" y="380.84" style="fill: #808080; stroke: #808080"/>
      </g>
     </g>
     <g id="text_2">
      <text style="font-size: 18px; font-family: 'DejaVu Serif', 'Times New Roman', serif; text-anchor: middle; fill: #262626" x="106.321137" y="404.517187" transform="rotate(-0 106.321137 404.517187)">0.025</text>
     </g>
    </g>
    <g id="xtick_3">
     <g id="line2d_5">
      <path d="M 166.998126 380.84 
L 166.998126 57.336 
" clip-path="url(#pd10a9bec9c)" style="fill: none; stroke: #ffffff; stroke-opacity: 0.4; stroke-linecap: round"/>
     </g>
     <g id="line2d_6">
      <g>
       <use xlink:href="#m05c14a60ca" x="166.998126" y="380.84" style="fill: #808080; stroke: #808080"/>
      </g>
     </g>
     <g id="text_3">
      <text style="font-size: 18px; font-family: 'DejaVu Serif', 'Times New Roman', serif; text-anchor: middle; fill: #262626" x="166.998126" y="404.517187" transform="rotate(-0 166.998126 404.517187)">0.050</text>
     </g>
    </g>
    <g id="xtick_4">
     <g id="line2d_7">
      <path d="M 227.675115 380.84 
L 227.675115 57.336 
" clip-path="url(#pd10a9bec9c)" style="fill: none; stroke: #ffffff; stroke-opacity: 0.4; stroke-linecap: round"/>
     </g>
     <g id="line2d_8">
      <g>
       <use xlink:href="#m05c14a60ca" x="227.675115" y="380.84" style="fill: #808080; stroke: #808080"/>
      </g>
     </g>
     <g id="text_4">
      <text style="font-size: 18px; font-family: 'DejaVu Serif', 'Times New Roman', serif; text-anchor: middle; fill: #262626" x="227.675115" y="404.517187" transform="rotate(-0 227.675115 404.517187)">0.075</text>
     </g>
    </g>
    <g id="xtick_5">
     <g id="line2d_9">
      <path d="M 288.352105 380.84 
L 288.352105 57.336 
" clip-path="url(#pd10a9bec9c)" style="fill: none; stroke: #ffffff; stroke-opacity: 0.4; stroke-linecap: round"/>
     </g>
     <g id="line2d_10">
      <g>
       <use xlink:href="#m05c14a60ca" x="288.352105" y="380.84" style="fill: #808080; stroke: #808080"/>
      </g>
     </g>
     <g id="text_5">
      <text style="font-size: 18px; font-family: 'DejaVu Serif', 'Times New Roman', serif; text-anchor: middle; fill: #262626" x="288.352105" y="404.517187" transform="rotate(-0 288.352105 404.517187)">0.100</text>
     </g>
    </g>
    <g id="xtick_6">
     <g id="line2d_11">
      <path d="M 349.029094 380.84 
L 349.029094 57.336 
" clip-path="url(#pd10a9bec9c)" style="fill: none; stroke: #ffffff; stroke-opacity: 0.4; stroke-linecap: round"/>
     </g>
     <g id="line2d_12">
      <g>
       <use xlink:href="#m05c14a60ca" x="349.029094" y="380.84" style="fill: #808080; stroke: #808080"/>
      </g>
     </g>
     <g id="text_6">
      <text style="font-size: 18px; font-family: 'DejaVu Serif', 'Times New Roman', serif; text-anchor: middle; fill: #262626" x="349.029094" y="404.517187" transform="rotate(-0 349.029094 404.517187)">0.125</text>
     </g>
    </g>
    <g id="xtick_7">
     <g id="line2d_13">
      <path d="M 409.706083 380.84 
L 409.706083 57.336 
" clip-path="url(#pd10a9bec9c)" style="fill: none; stroke: #ffffff; stroke-opacity: 0.4; stroke-linecap: round"/>
     </g>
     <g id="line2d_14">
      <g>
       <use xlink:href="#m05c14a60ca" x="409.706083" y="380.84" style="fill: #808080; stroke: #808080"/>
      </g>
     </g>
     <g id="text_7">
      <text style="font-size: 18px; font-family: 'DejaVu Serif', 'Times New Roman', serif; text-anchor: middle; fill: #262626" x="409.706083" y="404.517187" transform="rotate(-0 409.706083 404.517187)">0.150</text>
     </g>
    </g>
    <g id="xtick_8">
     <g id="line2d_15">
      <path d="M 470.383072 380.84 
L 470.383072 57.336 
" clip-path="url(#pd10a9bec9c)" style="fill: none; stroke: #ffffff; stroke-opacity: 0.4; stroke-linecap: round"/>
     </g>
     <g id="line2d_16">
      <g>
       <use xlink:href="#m05c14a60ca" x="470.383072" y="380.84" style="fill: #808080; stroke: #808080"/>
      </g>
     </g>
     <g id="text_8">
      <text style="font-size: 18px; font-family: 'DejaVu Serif', 'Times New Roman', serif; text-anchor: middle; fill: #262626" x="470.383072" y="404.517187" transform="rotate(-0 470.383072 404.517187)">0.175</text>
     </g>
    </g>
    <g id="xtick_9">
     <g id="line2d_17">
      <path d="M 531.060062 380.84 
L 531.060062 57.336 
" clip-path="url(#pd10a9bec9c)" style="fill: none; stroke: #ffffff; stroke-opacity: 0.4; stroke-linecap: round"/>
     </g>
     <g id="line2d_18">
      <g>
       <use xlink:href="#m05c14a60ca" x="531.060062" y="380.84" style="fill: #808080; stroke: #808080"/>
      </g>
     </g>
     <g id="text_9">
      <text style="font-size: 18px; font-family: 'DejaVu Serif', 'Times New Roman', serif; text-anchor: middle; fill: #262626" x="531.060062" y="404.517187" transform="rotate(-0 531.060062 404.517187)">0.200</text>
     </g>
    </g>
   </g>
   <g id="matplotlib.axis_2"/>
   <g id="FillBetweenPolyCollection_1">
    <defs>
     <path id="m8031ee049b" d="M 53.877112 -65.864727 
L 53.877112 -67.726045 
L 54.78371 -67.730007 
L 55.690308 -67.73192 
L 56.596907 -67.734671 
L 57.503505 -67.73537 
L 58.410103 -67.74036 
L 59.316701 -67.746004 
L 60.223299 -67.752272 
L 61.129897 -67.759117 
L 62.036495 -67.766474 
L 62.943094 -67.771383 
L 63.849692 -67.780107 
L 64.75629 -67.788932 
L 65.662888 -67.797745 
L 66.569486 -67.806417 
L 67.476084 -67.818429 
L 68.382682 -67.834531 
L 69.28928 -67.844787 
L 70.195879 -67.854868 
L 71.102477 -67.864686 
L 72.009075 -67.87128 
L 72.915673 -67.88094 
L 73.822271 -67.88712 
L 74.728869 -67.899772 
L 75.635467 -67.912557 
L 76.542066 -67.922051 
L 77.448664 -67.931207 
L 78.355262 -67.94374 
L 79.26186 -67.95704 
L 80.168458 -67.967797 
L 81.075056 -67.976204 
L 81.981654 -67.992461 
L 82.888253 -68.010475 
L 83.794851 -68.027075 
L 84.701449 -68.049084 
L 85.608047 -68.070489 
L 86.514645 -68.094519 
L 87.421243 -68.128771 
L 88.327841 -68.171774 
L 89.23444 -68.214271 
L 90.141038 -68.2735 
L 91.047636 -68.334686 
L 91.954234 -68.394333 
L 92.860832 -68.473134 
L 93.76743 -68.566266 
L 94.674028 -68.660381 
L 95.580626 -68.775695 
L 96.487225 -68.893854 
L 97.393823 -69.024197 
L 98.300421 -69.174621 
L 99.207019 -69.33666 
L 100.113617 -69.517552 
L 101.020215 -69.715263 
L 101.926813 -69.934227 
L 102.833412 -70.172499 
L 103.74001 -70.424479 
L 104.646608 -70.696493 
L 105.553206 -70.988284 
L 106.459804 -71.300219 
L 107.366402 -71.643405 
L 108.273 -72.002524 
L 109.179599 -72.383492 
L 110.086197 -72.786307 
L 110.992795 -73.207923 
L 111.899393 -73.657981 
L 112.805991 -74.119498 
L 113.712589 -74.607371 
L 114.619187 -75.12145 
L 115.525786 -75.644335 
L 116.432384 -76.186875 
L 117.338982 -76.755602 
L 118.24558 -77.326237 
L 119.152178 -77.908421 
L 120.058776 -78.503741 
L 120.965374 -79.114558 
L 121.871972 -79.719605 
L 122.778571 -80.335259 
L 123.685169 -80.956534 
L 124.591767 -81.571371 
L 125.498365 -82.186955 
L 126.404963 -82.798415 
L 127.311561 -83.408215 
L 128.218159 -84.015504 
L 129.124758 -84.615411 
L 130.031356 -85.206895 
L 130.937954 -85.782633 
L 131.844552 -86.35474 
L 132.75115 -86.909106 
L 133.657748 -87.458286 
L 134.564346 -88.007446 
L 135.470945 -88.534222 
L 136.377543 -89.068665 
L 137.284141 -89.590554 
L 138.190739 -90.099808 
L 139.097337 -90.610772 
L 140.003935 -91.108668 
L 140.910533 -91.600099 
L 141.817131 -92.103992 
L 142.72373 -92.603875 
L 143.630328 -93.115625 
L 144.536926 -93.633922 
L 145.443524 -94.156255 
L 146.350122 -94.71828 
L 147.25672 -95.278912 
L 148.163318 -95.872805 
L 149.069917 -96.481089 
L 149.976515 -97.122735 
L 150.883113 -97.77434 
L 151.789711 -98.467139 
L 152.696309 -99.201631 
L 153.602907 -99.974071 
L 154.509505 -100.784115 
L 155.416104 -101.637513 
L 156.322702 -102.535351 
L 157.2293 -103.481981 
L 158.135898 -104.461979 
L 159.042496 -105.494989 
L 159.949094 -106.578066 
L 160.855692 -107.722407 
L 161.762291 -108.905347 
L 162.668889 -110.137227 
L 163.575487 -111.404273 
L 164.482085 -112.700442 
L 165.388683 -114.051156 
L 166.295281 -115.43599 
L 167.201879 -116.869437 
L 168.108477 -118.333762 
L 169.015076 -119.819011 
L 169.921674 -121.322018 
L 170.828272 -122.856531 
L 171.73487 -124.414557 
L 172.641468 -125.965269 
L 173.548066 -127.530454 
L 174.454664 -129.088469 
L 175.361263 -130.662902 
L 176.267861 -132.229208 
L 177.174459 -133.830913 
L 178.081057 -135.389341 
L 178.987655 -136.951533 
L 179.894253 -138.539692 
L 180.800851 -140.094807 
L 181.70745 -141.649587 
L 182.614048 -143.199398 
L 183.520646 -144.737272 
L 184.427244 -146.288868 
L 185.333842 -147.826001 
L 186.24044 -149.401948 
L 187.147038 -150.978026 
L 188.053637 -152.563716 
L 188.960235 -154.179417 
L 189.866833 -155.810082 
L 190.773431 -157.464218 
L 191.680029 -159.165947 
L 192.586627 -160.925532 
L 193.493225 -162.701107 
L 194.399823 -164.553818 
L 195.306422 -166.455382 
L 196.21302 -168.434655 
L 197.119618 -170.447737 
L 198.026216 -172.561374 
L 198.932814 -174.705114 
L 199.839412 -176.937467 
L 200.74601 -179.252045 
L 201.652609 -181.621738 
L 202.559207 -184.074927 
L 203.465805 -186.600035 
L 204.372403 -189.156343 
L 205.279001 -191.799642 
L 206.185599 -194.520466 
L 207.092197 -197.277452 
L 207.998796 -200.092704 
L 208.905394 -202.975987 
L 209.811992 -205.897923 
L 210.71859 -208.819244 
L 211.625188 -211.788396 
L 212.531786 -214.771777 
L 213.438384 -217.755683 
L 214.344983 -220.769983 
L 215.251581 -223.76364 
L 216.158179 -226.757211 
L 217.064777 -229.729401 
L 217.971375 -232.686716 
L 218.877973 -235.637972 
L 219.784571 -238.533343 
L 220.691169 -241.371442 
L 221.597768 -244.190227 
L 222.504366 -246.955035 
L 223.410964 -249.752067 
L 224.317562 -252.458945 
L 225.22416 -255.143017 
L 226.130758 -257.7648 
L 227.037356 -260.386313 
L 227.943955 -262.92012 
L 228.850553 -265.435211 
L 229.757151 -267.960797 
L 230.663749 -270.434213 
L 231.570347 -272.884897 
L 232.476945 -275.323049 
L 233.383543 -277.721608 
L 234.290142 -280.134772 
L 235.19674 -282.514575 
L 236.103338 -284.888983 
L 237.009936 -287.250402 
L 237.916534 -289.613432 
L 238.823132 -291.974247 
L 239.72973 -294.329934 
L 240.636329 -296.716563 
L 241.542927 -299.091646 
L 242.449525 -301.484564 
L 243.356123 -303.846752 
L 244.262721 -306.196813 
L 245.169319 -308.55396 
L 246.075917 -310.906465 
L 246.982515 -313.254574 
L 247.889114 -315.568162 
L 248.795712 -317.917625 
L 249.70231 -320.217291 
L 250.608908 -322.494137 
L 251.515506 -324.703589 
L 252.422104 -326.906288 
L 253.328702 -329.028447 
L 254.235301 -331.150217 
L 255.141899 -333.183198 
L 256.048497 -335.182922 
L 256.955095 -337.161934 
L 257.861693 -339.046248 
L 258.768291 -340.840156 
L 259.674889 -342.574035 
L 260.581488 -344.25623 
L 261.488086 -345.843557 
L 262.394684 -347.322073 
L 263.301282 -348.737088 
L 264.20788 -350.072306 
L 265.114478 -351.316578 
L 266.021076 -352.456116 
L 266.927675 -353.528322 
L 267.834273 -354.514537 
L 268.740871 -355.392457 
L 269.647469 -356.218083 
L 270.554067 -356.926708 
L 271.460665 -357.561158 
L 272.367263 -358.107604 
L 273.273861 -358.579729 
L 274.18046 -358.970298 
L 275.087058 -359.293177 
L 275.993656 -359.500642 
L 276.900254 -359.668599 
L 277.806852 -359.849365 
L 278.71345 -359.910772 
L 279.620048 -359.929408 
L 280.526647 -359.959273 
L 281.433245 -359.902329 
L 282.339843 -359.831148 
L 283.246441 -359.74947 
L 284.153039 -359.649148 
L 285.059637 -359.520453 
L 285.966235 -359.371139 
L 286.872834 -359.231443 
L 287.779432 -359.122389 
L 288.68603 -358.994163 
L 289.592628 -358.883446 
L 290.499226 -358.819368 
L 291.405824 -358.787519 
L 292.312422 -358.777845 
L 293.219021 -358.800236 
L 294.125619 -358.794487 
L 295.032217 -358.821281 
L 295.938815 -358.891556 
L 296.845413 -358.997351 
L 297.752011 -359.079372 
L 298.658609 -359.148174 
L 299.565207 -359.203558 
L 300.471806 -359.288575 
L 301.378404 -359.336594 
L 302.285002 -359.396933 
L 303.1916 -359.378145 
L 304.098198 -359.365018 
L 305.004796 -359.264221 
L 305.911394 -359.081133 
L 306.817993 -358.84279 
L 307.724591 -358.529701 
L 308.631189 -358.154719 
L 309.537787 -357.688493 
L 310.444385 -357.104851 
L 311.350983 -356.446523 
L 312.257581 -355.681951 
L 313.16418 -354.786344 
L 314.070778 -353.813594 
L 314.977376 -352.737678 
L 315.883974 -351.542122 
L 316.790572 -350.269229 
L 317.69717 -348.906703 
L 318.603768 -347.429724 
L 319.510367 -345.897764 
L 320.416965 -344.319011 
L 321.323563 -342.642522 
L 322.230161 -340.932273 
L 323.136759 -339.159288 
L 324.043357 -337.349229 
L 324.949955 -335.477045 
L 325.856553 -333.577958 
L 326.763152 -331.641858 
L 327.66975 -329.716123 
L 328.576348 -327.720437 
L 329.482946 -325.703652 
L 330.389544 -323.672707 
L 331.296142 -321.650058 
L 332.20274 -319.550652 
L 333.109339 -317.420826 
L 334.015937 -315.274959 
L 334.922535 -313.124988 
L 335.829133 -310.900546 
L 336.735731 -308.615817 
L 337.642329 -306.319688 
L 338.548927 -303.953833 
L 339.455526 -301.52186 
L 340.362124 -299.039112 
L 341.268722 -296.498849 
L 342.17532 -293.935623 
L 343.081918 -291.295616 
L 343.988516 -288.615387 
L 344.895114 -285.88588 
L 345.801713 -283.096652 
L 346.708311 -280.295863 
L 347.614909 -277.470104 
L 348.521507 -274.623585 
L 349.428105 -271.760819 
L 350.334703 -268.891609 
L 351.241301 -266.068567 
L 352.147899 -263.250575 
L 353.054498 -260.417741 
L 353.961096 -257.564921 
L 354.867694 -254.810052 
L 355.774292 -252.07131 
L 356.68089 -249.364724 
L 357.587488 -246.753002 
L 358.494086 -244.174118 
L 359.400685 -241.659225 
L 360.307283 -239.18658 
L 361.213881 -236.773216 
L 362.120479 -234.441117 
L 363.027077 -232.148309 
L 363.933675 -229.866898 
L 364.840273 -227.642607 
L 365.746872 -225.485144 
L 366.65347 -223.284082 
L 367.560068 -221.129752 
L 368.466666 -218.992637 
L 369.373264 -216.868516 
L 370.279862 -214.772857 
L 371.18646 -212.653287 
L 372.093059 -210.527067 
L 372.999657 -208.390207 
L 373.906255 -206.248606 
L 374.812853 -204.086937 
L 375.719451 -201.874849 
L 376.626049 -199.644114 
L 377.532647 -197.402694 
L 378.439245 -195.112382 
L 379.345844 -192.828495 
L 380.252442 -190.510212 
L 381.15904 -188.160911 
L 382.065638 -185.781311 
L 382.972236 -183.388156 
L 383.878834 -180.97148 
L 384.785432 -178.521707 
L 385.692031 -176.080711 
L 386.598629 -173.636669 
L 387.505227 -171.167574 
L 388.411825 -168.702796 
L 389.318423 -166.246124 
L 390.225021 -163.7745 
L 391.131619 -161.303278 
L 392.038218 -158.858285 
L 392.944816 -156.383282 
L 393.851414 -153.947381 
L 394.758012 -151.535299 
L 395.66461 -149.143537 
L 396.571208 -146.767277 
L 397.477806 -144.426536 
L 398.384405 -142.096891 
L 399.291003 -139.806459 
L 400.197601 -137.547273 
L 401.104199 -135.330522 
L 402.010797 -133.16669 
L 402.917395 -131.058018 
L 403.823993 -128.971055 
L 404.730591 -126.945998 
L 405.63719 -124.980003 
L 406.543788 -123.055294 
L 407.450386 -121.169093 
L 408.356984 -119.347027 
L 409.263582 -117.58798 
L 410.17018 -115.900907 
L 411.076778 -114.248196 
L 411.983377 -112.678218 
L 412.889975 -111.144776 
L 413.796573 -109.666184 
L 414.703171 -108.25243 
L 415.609769 -106.904382 
L 416.516367 -105.588681 
L 417.422965 -104.333101 
L 418.329564 -103.108794 
L 419.236162 -101.930887 
L 420.14276 -100.784918 
L 421.049358 -99.69349 
L 421.955956 -98.648092 
L 422.862554 -97.636488 
L 423.769152 -96.648766 
L 424.67575 -95.687729 
L 425.582349 -94.78202 
L 426.488947 -93.887977 
L 427.395545 -93.011303 
L 428.302143 -92.182494 
L 429.208741 -91.379626 
L 430.115339 -90.602603 
L 431.021937 -89.855006 
L 431.928536 -89.141995 
L 432.835134 -88.456873 
L 433.741732 -87.773583 
L 434.64833 -87.116096 
L 435.554928 -86.499477 
L 436.461526 -85.911831 
L 437.368124 -85.355006 
L 438.274723 -84.807154 
L 439.181321 -84.30178 
L 440.087919 -83.810909 
L 440.994517 -83.343625 
L 441.901115 -82.87501 
L 442.807713 -82.454754 
L 443.714311 -82.034749 
L 444.62091 -81.636145 
L 445.527508 -81.249928 
L 446.434106 -80.880027 
L 447.340704 -80.517619 
L 448.247302 -80.158233 
L 449.1539 -79.80741 
L 450.060498 -79.462966 
L 450.967096 -79.120122 
L 451.873695 -78.772119 
L 452.780293 -78.430132 
L 453.686891 -78.083463 
L 454.593489 -77.735232 
L 455.500087 -77.376528 
L 456.406685 -77.014892 
L 457.313283 -76.668048 
L 458.219882 -76.312812 
L 459.12648 -75.965632 
L 460.033078 -75.613905 
L 460.939676 -75.256571 
L 461.846274 -74.901736 
L 462.752872 -74.544575 
L 463.65947 -74.20167 
L 464.566069 -73.857557 
L 465.472667 -73.528954 
L 466.379265 -73.203321 
L 467.285863 -72.8881 
L 468.192461 -72.583495 
L 469.099059 -72.286813 
L 470.005657 -71.990898 
L 470.912256 -71.712543 
L 471.818854 -71.446993 
L 472.725452 -71.185212 
L 473.63205 -70.937233 
L 474.538648 -70.696501 
L 475.445246 -70.466339 
L 476.351844 -70.252141 
L 477.258442 -70.046523 
L 478.165041 -69.84927 
L 479.071639 -69.651469 
L 479.978237 -69.472642 
L 480.884835 -69.305304 
L 481.791433 -69.136389 
L 482.698031 -68.972673 
L 483.604629 -68.825867 
L 484.511228 -68.685056 
L 485.417826 -68.550214 
L 486.324424 -68.415578 
L 487.231022 -68.293894 
L 488.13762 -68.16936 
L 489.044218 -68.061169 
L 489.950816 -67.95863 
L 490.857415 -67.865544 
L 491.764013 -67.767102 
L 492.670611 -67.685454 
L 493.577209 -67.601315 
L 494.483807 -67.528209 
L 495.390405 -67.462445 
L 496.297003 -67.406823 
L 497.203602 -67.357755 
L 498.1102 -67.318098 
L 499.016798 -67.281402 
L 499.923396 -67.253996 
L 500.829994 -67.232153 
L 501.736592 -67.215682 
L 502.64319 -67.204309 
L 503.549788 -67.197679 
L 504.456387 -67.195367 
L 505.362985 -67.196885 
L 506.269583 -67.201689 
L 507.176181 -67.206316 
L 508.082779 -67.216511 
L 508.989377 -67.222274 
L 509.895975 -67.239332 
L 510.802574 -67.253516 
L 511.709172 -67.267905 
L 512.61577 -67.282002 
L 513.522368 -67.291743 
L 514.428966 -67.303094 
L 515.335564 -67.312108 
L 516.242162 -67.318522 
L 517.148761 -67.322132 
L 517.148761 -65.864727 
L 517.148761 -65.864727 
L 516.242162 -65.864727 
L 515.335564 -65.864727 
L 514.428966 -65.864727 
L 513.522368 -65.864727 
L 512.61577 -65.864727 
L 511.709172 -65.864727 
L 510.802574 -65.864727 
L 509.895975 -65.864727 
L 508.989377 -65.864727 
L 508.082779 -65.864727 
L 507.176181 -65.864727 
L 506.269583 -65.864727 
L 505.362985 -65.864727 
L 504.456387 -65.864727 
L 503.549788 -65.864727 
L 502.64319 -65.864727 
L 501.736592 -65.864727 
L 500.829994 -65.864727 
L 499.923396 -65.864727 
L 499.016798 -65.864727 
L 498.1102 -65.864727 
L 497.203602 -65.864727 
L 496.297003 -65.864727 
L 495.390405 -65.864727 
L 494.483807 -65.864727 
L 493.577209 -65.864727 
L 492.670611 -65.864727 
L 491.764013 -65.864727 
L 490.857415 -65.864727 
L 489.950816 -65.864727 
L 489.044218 -65.864727 
L 488.13762 -65.864727 
L 487.231022 -65.864727 
L 486.324424 -65.864727 
L 485.417826 -65.864727 
L 484.511228 -65.864727 
L 483.604629 -65.864727 
L 482.698031 -65.864727 
L 481.791433 -65.864727 
L 480.884835 -65.864727 
L 479.978237 -65.864727 
L 479.071639 -65.864727 
L 478.165041 -65.864727 
L 477.258442 -65.864727 
L 476.351844 -65.864727 
L 475.445246 -65.864727 
L 474.538648 -65.864727 
L 473.63205 -65.864727 
L 472.725452 -65.864727 
L 471.818854 -65.864727 
L 470.912256 -65.864727 
L 470.005657 -65.864727 
L 469.099059 -65.864727 
L 468.192461 -65.864727 
L 467.285863 -65.864727 
L 466.379265 -65.864727 
L 465.472667 -65.864727 
L 464.566069 -65.864727 
L 463.65947 -65.864727 
L 462.752872 -65.864727 
L 461.846274 -65.864727 
L 460.939676 -65.864727 
L 460.033078 -65.864727 
L 459.12648 -65.864727 
L 458.219882 -65.864727 
L 457.313283 -65.864727 
L 456.406685 -65.864727 
L 455.500087 -65.864727 
L 454.593489 -65.864727 
L 453.686891 -65.864727 
L 452.780293 -65.864727 
L 451.873695 -65.864727 
L 450.967096 -65.864727 
L 450.060498 -65.864727 
L 449.1539 -65.864727 
L 448.247302 -65.864727 
L 447.340704 -65.864727 
L 446.434106 -65.864727 
L 445.527508 -65.864727 
L 444.62091 -65.864727 
L 443.714311 -65.864727 
L 442.807713 -65.864727 
L 441.901115 -65.864727 
L 440.994517 -65.864727 
L 440.087919 -65.864727 
L 439.181321 -65.864727 
L 438.274723 -65.864727 
L 437.368124 -65.864727 
L 436.461526 -65.864727 
L 435.554928 -65.864727 
L 434.64833 -65.864727 
L 433.741732 -65.864727 
L 432.835134 -65.864727 
L 431.928536 -65.864727 
L 431.021937 -65.864727 
L 430.115339 -65.864727 
L 429.208741 -65.864727 
L 428.302143 -65.864727 
L 427.395545 -65.864727 
L 426.488947 -65.864727 
L 425.582349 -65.864727 
L 424.67575 -65.864727 
L 423.769152 -65.864727 
L 422.862554 -65.864727 
L 421.955956 -65.864727 
L 421.049358 -65.864727 
L 420.14276 -65.864727 
L 419.236162 -65.864727 
L 418.329564 -65.864727 
L 417.422965 -65.864727 
L 416.516367 -65.864727 
L 415.609769 -65.864727 
L 414.703171 -65.864727 
L 413.796573 -65.864727 
L 412.889975 -65.864727 
L 411.983377 -65.864727 
L 411.076778 -65.864727 
L 410.17018 -65.864727 
L 409.263582 -65.864727 
L 408.356984 -65.864727 
L 407.450386 -65.864727 
L 406.543788 -65.864727 
L 405.63719 -65.864727 
L 404.730591 -65.864727 
L 403.823993 -65.864727 
L 402.917395 -65.864727 
L 402.010797 -65.864727 
L 401.104199 -65.864727 
L 400.197601 -65.864727 
L 399.291003 -65.864727 
L 398.384405 -65.864727 
L 397.477806 -65.864727 
L 396.571208 -65.864727 
L 395.66461 -65.864727 
L 394.758012 -65.864727 
L 393.851414 -65.864727 
L 392.944816 -65.864727 
L 392.038218 -65.864727 
L 391.131619 -65.864727 
L 390.225021 -65.864727 
L 389.318423 -65.864727 
L 388.411825 -65.864727 
L 387.505227 -65.864727 
L 386.598629 -65.864727 
L 385.692031 -65.864727 
L 384.785432 -65.864727 
L 383.878834 -65.864727 
L 382.972236 -65.864727 
L 382.065638 -65.864727 
L 381.15904 -65.864727 
L 380.252442 -65.864727 
L 379.345844 -65.864727 
L 378.439245 -65.864727 
L 377.532647 -65.864727 
L 376.626049 -65.864727 
L 375.719451 -65.864727 
L 374.812853 -65.864727 
L 373.906255 -65.864727 
L 372.999657 -65.864727 
L 372.093059 -65.864727 
L 371.18646 -65.864727 
L 370.279862 -65.864727 
L 369.373264 -65.864727 
L 368.466666 -65.864727 
L 367.560068 -65.864727 
L 366.65347 -65.864727 
L 365.746872 -65.864727 
L 364.840273 -65.864727 
L 363.933675 -65.864727 
L 363.027077 -65.864727 
L 362.120479 -65.864727 
L 361.213881 -65.864727 
L 360.307283 -65.864727 
L 359.400685 -65.864727 
L 358.494086 -65.864727 
L 357.587488 -65.864727 
L 356.68089 -65.864727 
L 355.774292 -65.864727 
L 354.867694 -65.864727 
L 353.961096 -65.864727 
L 353.054498 -65.864727 
L 352.147899 -65.864727 
L 351.241301 -65.864727 
L 350.334703 -65.864727 
L 349.428105 -65.864727 
L 348.521507 -65.864727 
L 347.614909 -65.864727 
L 346.708311 -65.864727 
L 345.801713 -65.864727 
L 344.895114 -65.864727 
L 343.988516 -65.864727 
L 343.081918 -65.864727 
L 342.17532 -65.864727 
L 341.268722 -65.864727 
L 340.362124 -65.864727 
L 339.455526 -65.864727 
L 338.548927 -65.864727 
L 337.642329 -65.864727 
L 336.735731 -65.864727 
L 335.829133 -65.864727 
L 334.922535 -65.864727 
L 334.015937 -65.864727 
L 333.109339 -65.864727 
L 332.20274 -65.864727 
L 331.296142 -65.864727 
L 330.389544 -65.864727 
L 329.482946 -65.864727 
L 328.576348 -65.864727 
L 327.66975 -65.864727 
L 326.763152 -65.864727 
L 325.856553 -65.864727 
L 324.949955 -65.864727 
L 324.043357 -65.864727 
L 323.136759 -65.864727 
L 322.230161 -65.864727 
L 321.323563 -65.864727 
L 320.416965 -65.864727 
L 319.510367 -65.864727 
L 318.603768 -65.864727 
L 317.69717 -65.864727 
L 316.790572 -65.864727 
L 315.883974 -65.864727 
L 314.977376 -65.864727 
L 314.070778 -65.864727 
L 313.16418 -65.864727 
L 312.257581 -65.864727 
L 311.350983 -65.864727 
L 310.444385 -65.864727 
L 309.537787 -65.864727 
L 308.631189 -65.864727 
L 307.724591 -65.864727 
L 306.817993 -65.864727 
L 305.911394 -65.864727 
L 305.004796 -65.864727 
L 304.098198 -65.864727 
L 303.1916 -65.864727 
L 302.285002 -65.864727 
L 301.378404 -65.864727 
L 300.471806 -65.864727 
L 299.565207 -65.864727 
L 298.658609 -65.864727 
L 297.752011 -65.864727 
L 296.845413 -65.864727 
L 295.938815 -65.864727 
L 295.032217 -65.864727 
L 294.125619 -65.864727 
L 293.219021 -65.864727 
L 292.312422 -65.864727 
L 291.405824 -65.864727 
L 290.499226 -65.864727 
L 289.592628 -65.864727 
L 288.68603 -65.864727 
L 287.779432 -65.864727 
L 286.872834 -65.864727 
L 285.966235 -65.864727 
L 285.059637 -65.864727 
L 284.153039 -65.864727 
L 283.246441 -65.864727 
L 282.339843 -65.864727 
L 281.433245 -65.864727 
L 280.526647 -65.864727 
L 279.620048 -65.864727 
L 278.71345 -65.864727 
L 277.806852 -65.864727 
L 276.900254 -65.864727 
L 275.993656 -65.864727 
L 275.087058 -65.864727 
L 274.18046 -65.864727 
L 273.273861 -65.864727 
L 272.367263 -65.864727 
L 271.460665 -65.864727 
L 270.554067 -65.864727 
L 269.647469 -65.864727 
L 268.740871 -65.864727 
L 267.834273 -65.864727 
L 266.927675 -65.864727 
L 266.021076 -65.864727 
L 265.114478 -65.864727 
L 264.20788 -65.864727 
L 263.301282 -65.864727 
L 262.394684 -65.864727 
L 261.488086 -65.864727 
L 260.581488 -65.864727 
L 259.674889 -65.864727 
L 258.768291 -65.864727 
L 257.861693 -65.864727 
L 256.955095 -65.864727 
L 256.048497 -65.864727 
L 255.141899 -65.864727 
L 254.235301 -65.864727 
L 253.328702 -65.864727 
L 252.422104 -65.864727 
L 251.515506 -65.864727 
L 250.608908 -65.864727 
L 249.70231 -65.864727 
L 248.795712 -65.864727 
L 247.889114 -65.864727 
L 246.982515 -65.864727 
L 246.075917 -65.864727 
L 245.169319 -65.864727 
L 244.262721 -65.864727 
L 243.356123 -65.864727 
L 242.449525 -65.864727 
L 241.542927 -65.864727 
L 240.636329 -65.864727 
L 239.72973 -65.864727 
L 238.823132 -65.864727 
L 237.916534 -65.864727 
L 237.009936 -65.864727 
L 236.103338 -65.864727 
L 235.19674 -65.864727 
L 234.290142 -65.864727 
L 233.383543 -65.864727 
L 232.476945 -65.864727 
L 231.570347 -65.864727 
L 230.663749 -65.864727 
L 229.757151 -65.864727 
L 228.850553 -65.864727 
L 227.943955 -65.864727 
L 227.037356 -65.864727 
L 226.130758 -65.864727 
L 225.22416 -65.864727 
L 224.317562 -65.864727 
L 223.410964 -65.864727 
L 222.504366 -65.864727 
L 221.597768 -65.864727 
L 220.691169 -65.864727 
L 219.784571 -65.864727 
L 218.877973 -65.864727 
L 217.971375 -65.864727 
L 217.064777 -65.864727 
L 216.158179 -65.864727 
L 215.251581 -65.864727 
L 214.344983 -65.864727 
L 213.438384 -65.864727 
L 212.531786 -65.864727 
L 211.625188 -65.864727 
L 210.71859 -65.864727 
L 209.811992 -65.864727 
L 208.905394 -65.864727 
L 207.998796 -65.864727 
L 207.092197 -65.864727 
L 206.185599 -65.864727 
L 205.279001 -65.864727 
L 204.372403 -65.864727 
L 203.465805 -65.864727 
L 202.559207 -65.864727 
L 201.652609 -65.864727 
L 200.74601 -65.864727 
L 199.839412 -65.864727 
L 198.932814 -65.864727 
L 198.026216 -65.864727 
L 197.119618 -65.864727 
L 196.21302 -65.864727 
L 195.306422 -65.864727 
L 194.399823 -65.864727 
L 193.493225 -65.864727 
L 192.586627 -65.864727 
L 191.680029 -65.864727 
L 190.773431 -65.864727 
L 189.866833 -65.864727 
L 188.960235 -65.864727 
L 188.053637 -65.864727 
L 187.147038 -65.864727 
L 186.24044 -65.864727 
L 185.333842 -65.864727 
L 184.427244 -65.864727 
L 183.520646 -65.864727 
L 182.614048 -65.864727 
L 181.70745 -65.864727 
L 180.800851 -65.864727 
L 179.894253 -65.864727 
L 178.987655 -65.864727 
L 178.081057 -65.864727 
L 177.174459 -65.864727 
L 176.267861 -65.864727 
L 175.361263 -65.864727 
L 174.454664 -65.864727 
L 173.548066 -65.864727 
L 172.641468 -65.864727 
L 171.73487 -65.864727 
L 170.828272 -65.864727 
L 169.921674 -65.864727 
L 169.015076 -65.864727 
L 168.108477 -65.864727 
L 167.201879 -65.864727 
L 166.295281 -65.864727 
L 165.388683 -65.864727 
L 164.482085 -65.864727 
L 163.575487 -65.864727 
L 162.668889 -65.864727 
L 161.762291 -65.864727 
L 160.855692 -65.864727 
L 159.949094 -65.864727 
L 159.042496 -65.864727 
L 158.135898 -65.864727 
L 157.2293 -65.864727 
L 156.322702 -65.864727 
L 155.416104 -65.864727 
L 154.509505 -65.864727 
L 153.602907 -65.864727 
L 152.696309 -65.864727 
L 151.789711 -65.864727 
L 150.883113 -65.864727 
L 149.976515 -65.864727 
L 149.069917 -65.864727 
L 148.163318 -65.864727 
L 147.25672 -65.864727 
L 146.350122 -65.864727 
L 145.443524 -65.864727 
L 144.536926 -65.864727 
L 143.630328 -65.864727 
L 142.72373 -65.864727 
L 141.817131 -65.864727 
L 140.910533 -65.864727 
L 140.003935 -65.864727 
L 139.097337 -65.864727 
L 138.190739 -65.864727 
L 137.284141 -65.864727 
L 136.377543 -65.864727 
L 135.470945 -65.864727 
L 134.564346 -65.864727 
L 133.657748 -65.864727 
L 132.75115 -65.864727 
L 131.844552 -65.864727 
L 130.937954 -65.864727 
L 130.031356 -65.864727 
L 129.124758 -65.864727 
L 128.218159 -65.864727 
L 127.311561 -65.864727 
L 126.404963 -65.864727 
L 125.498365 -65.864727 
L 124.591767 -65.864727 
L 123.685169 -65.864727 
L 122.778571 -65.864727 
L 121.871972 -65.864727 
L 120.965374 -65.864727 
L 120.058776 -65.864727 
L 119.152178 -65.864727 
L 118.24558 -65.864727 
L 117.338982 -65.864727 
L 116.432384 -65.864727 
L 115.525786 -65.864727 
L 114.619187 -65.864727 
L 113.712589 -65.864727 
L 112.805991 -65.864727 
L 111.899393 -65.864727 
L 110.992795 -65.864727 
L 110.086197 -65.864727 
L 109.179599 -65.864727 
L 108.273 -65.864727 
L 107.366402 -65.864727 
L 106.459804 -65.864727 
L 105.553206 -65.864727 
L 104.646608 -65.864727 
L 103.74001 -65.864727 
L 102.833412 -65.864727 
L 101.926813 -65.864727 
L 101.020215 -65.864727 
L 100.113617 -65.864727 
L 99.207019 -65.864727 
L 98.300421 -65.864727 
L 97.393823 -65.864727 
L 96.487225 -65.864727 
L 95.580626 -65.864727 
L 94.674028 -65.864727 
L 93.76743 -65.864727 
L 92.860832 -65.864727 
L 91.954234 -65.864727 
L 91.047636 -65.864727 
L 90.141038 -65.864727 
L 89.23444 -65.864727 
L 88.327841 -65.864727 
L 87.421243 -65.864727 
L 86.514645 -65.864727 
L 85.608047 -65.864727 
L 84.701449 -65.864727 
L 83.794851 -65.864727 
L 82.888253 -65.864727 
L 81.981654 -65.864727 
L 81.075056 -65.864727 
L 80.168458 -65.864727 
L 79.26186 -65.864727 
L 78.355262 -65.864727 
L 77.448664 -65.864727 
L 76.542066 -65.864727 
L 75.635467 -65.864727 
L 74.728869 -65.864727 
L 73.822271 -65.864727 
L 72.915673 -65.864727 
L 72.009075 -65.864727 
L 71.102477 -65.864727 
L 70.195879 -65.864727 
L 69.28928 -65.864727 
L 68.382682 -65.864727 
L 67.476084 -65.864727 
L 66.569486 -65.864727 
L 65.662888 -65.864727 
L 64.75629 -65.864727 
L 63.849692 -65.864727 
L 62.943094 -65.864727 
L 62.036495 -65.864727 
L 61.129897 -65.864727 
L 60.223299 -65.864727 
L 59.316701 -65.864727 
L 58.410103 -65.864727 
L 57.503505 -65.864727 
L 56.596907 -65.864727 
L 55.690308 -65.864727 
L 54.78371 -65.864727 
L 53.877112 -65.864727 
z
" style="stroke: #7570b3; stroke-opacity: 0.6; stroke-width: 0.3"/>
    </defs>
    <g clip-path="url(#pd10a9bec9c)">
     <use xlink:href="#m8031ee049b" x="0" y="432" style="fill: #7570b3; fill-opacity: 0.6; stroke: #7570b3; stroke-opacity: 0.6; stroke-width: 0.3"/>
    </g>
   </g>
   <g id="line2d_19">
    <path d="M 53.877112 364.273955 
L 78.355262 364.05626 
L 89.23444 363.785729 
L 94.674028 363.339619 
L 99.207019 362.66334 
L 102.833412 361.827501 
L 105.553206 361.011716 
L 108.273 359.997476 
L 110.992795 358.792077 
L 114.619187 356.87855 
L 118.24558 354.673763 
L 122.778571 351.664741 
L 130.031356 346.793105 
L 135.470945 343.465778 
L 140.003935 340.891332 
L 145.443524 337.843745 
L 149.069917 335.518911 
L 151.789711 333.532861 
L 154.509505 331.215885 
L 157.2293 328.518019 
L 159.949094 325.421934 
L 162.668889 321.862773 
L 165.388683 317.948844 
L 168.108477 313.666238 
L 172.641468 306.034731 
L 190.773431 274.535782 
L 193.493225 269.298893 
L 196.21302 263.565345 
L 198.932814 257.294886 
L 201.652609 250.378262 
L 204.372403 242.843657 
L 207.092197 234.722548 
L 210.71859 223.180756 
L 221.597768 187.809773 
L 226.130758 174.2352 
L 229.757151 164.039203 
L 235.19674 149.485425 
L 249.70231 111.782709 
L 253.328702 102.971553 
L 256.048497 96.817078 
L 257.861693 92.953752 
L 260.581488 87.74377 
L 262.394684 84.677927 
L 264.20788 81.927694 
L 266.021076 79.543884 
L 267.834273 77.485463 
L 269.647469 75.781917 
L 271.460665 74.438842 
L 273.273861 73.420271 
L 275.087058 72.706823 
L 277.806852 72.150635 
L 280.526647 72.040727 
L 284.153039 72.350852 
L 290.499226 73.180632 
L 294.125619 73.205513 
L 295.938815 73.108444 
L 299.565207 72.796442 
L 302.285002 72.603067 
L 305.004796 72.735779 
L 306.817993 73.15721 
L 308.631189 73.845281 
L 310.444385 74.895149 
L 312.257581 76.318049 
L 314.070778 78.186406 
L 315.883974 80.457878 
L 317.69717 83.093297 
L 320.416965 87.680989 
L 323.136759 92.840712 
L 325.856553 98.422042 
L 330.389544 108.327293 
L 333.109339 114.579174 
L 336.735731 123.384183 
L 339.455526 130.47814 
L 343.081918 140.704384 
L 346.708311 151.704137 
L 356.68089 182.635276 
L 360.307283 192.81342 
L 363.027077 199.851691 
L 366.65347 208.715918 
L 378.439245 236.887618 
L 382.065638 246.218689 
L 387.505227 260.832426 
L 396.571208 285.232723 
L 401.104199 296.669478 
L 404.730591 305.054002 
L 408.356984 312.652973 
L 411.076778 317.751804 
L 413.796573 322.333816 
L 416.516367 326.411319 
L 419.236162 330.069113 
L 421.955956 333.351908 
L 424.67575 336.312271 
L 428.302143 339.817506 
L 431.021937 342.144994 
L 434.64833 344.883904 
L 437.368124 346.644994 
L 440.087919 348.189091 
L 443.714311 349.965251 
L 448.247302 351.841767 
L 467.285863 359.1119 
L 471.818854 360.553007 
L 476.351844 361.747859 
L 480.884835 362.694696 
L 485.417826 363.449786 
L 489.950816 364.04137 
L 496.297003 364.593177 
L 501.736592 364.784318 
L 508.989377 364.777726 
L 517.148761 364.677868 
L 517.148761 364.677868 
" clip-path="url(#pd10a9bec9c)" style="fill: none; stroke: #7570b3; stroke-width: 2; stroke-linecap: round"/>
   </g>
   <g id="line2d_20">
    <path d="M 183.200976 359.959287 
L 390.886127 359.959287 
" clip-path="url(#pd10a9bec9c)" style="fill: none; stroke: #000000; stroke-width: 3.5"/>
   </g>
   <g id="patch_3">
    <path d="M 30.71353 380.84 
L 540.312343 380.84 
" style="fill: none; stroke: #333333; stroke-width: 1.5; stroke-linejoin: miter; stroke-linecap: square"/>
   </g>
   <g id="text_10">
    <text style="font-size: 22px; font-family: 'DejaVu Serif', 'Times New Roman', serif; text-anchor: end; fill: #262626" x="183.200976" y="344.519324" transform="rotate(-0 183.200976 344.519324)">0.057 </text>
   </g>
   <g id="text_11">
    <text style="font-size: 22px; font-family: 'DejaVu Serif', 'Times New Roman', serif; text-anchor: start; fill: #262626" x="390.886127" y="344.519324" transform="rotate(-0 390.886127 344.519324)"> 0.14</text>
   </g>
   <g id="text_12">
    <text style="font-size: 22px; font-family: 'DejaVu Serif', 'Times New Roman', serif; text-anchor: middle; fill: #262626" x="287.043551" y="273.495491" transform="rotate(-0 287.043551 273.495491)">90% HDI</text>
   </g>
   <g id="text_13">
    <text style="font-size: 22px; font-family: 'DejaVu Serif', 'Times New Roman', serif; text-anchor: middle; fill: #262626" x="289.086628" y="119.095855" transform="rotate(-0 289.086628 119.095855)">mean=0.1</text>
   </g>
   <g id="text_14">
    <!-- $x_1^3x_3$ -->
    <g style="fill: #262626" transform="translate(254.992936 49.496)">
     <text>
      <tspan x="0" y="-0.734375" style="font-style: oblique; font-size: 28px; font-family: 'DejaVu Sans'; fill: #262626">x</tspan>
      <tspan x="31.056576" y="-0.734375" style="font-style: oblique; font-size: 28px; font-family: 'DejaVu Sans'; fill: #262626">x</tspan>
      <tspan x="16.570312" y="6.921875" style="font-size: 19.6px; font-family: 'DejaVu Sans'; fill: #262626">1</tspan>
      <tspan x="17.820833" y="-11.453125" style="font-size: 19.6px; font-family: 'DejaVu Sans'; fill: #262626">3</tspan>
      <tspan x="47.626888" y="3.859375" style="font-size: 19.6px; font-family: 'DejaVu Sans'; fill: #262626">3</tspan>
     </text>
    </g>
   </g>
  </g>
 </g>
 <defs>
  <clipPath id="pd10a9bec9c">
   <rect x="30.71353" y="57.336" width="509.598813" height="323.504"/>
  </clipPath>
 </defs>
</svg>
