<?xml version="1.0" encoding="utf-8" standalone="no"?>
<!DOCTYPE svg PUBLIC "-//W3C//DTD SVG 1.1//EN"
  "http://www.w3.org/Graphics/SVG/1.1/DTD/svg11.dtd">
<svg xmlns:xlink="http://www.w3.org/1999/xlink" width="576pt" height="432pt" viewBox="0 0 576 432" xmlns="http://www.w3.org/2000/svg" version="1.1">
 <metadata>
  <rdf:RDF xmlns:dc="http://purl.org/dc/elements/1.1/" xmlns:cc="http://creativecommons.org/ns#" xmlns:rdf="http://www.w3.org/1999/02/22-rdf-syntax-ns#">
   <cc:Work>
    <dc:type rdf:resource="http://purl.org/dc/dcmitype/StillImage"/>
    <dc:date>2025-09-22T22:41:52.842075</dc:date>
    <dc:format>image/svg+xml</dc:format>
    <dc:creator>
     <cc:Agent>
      <dc:title>Matplotlib v3.10.0, https://matplotlib.org/</dc:title>
     </cc:Agent>
    </dc:creator>
   </cc:Work>
  </rdf:RDF>
 </metadata>
 <defs>
  <style type="text/css">*{stroke-linejoin: round; stroke-linecap: butt}</style>
 </defs>
 <g id="figure_1">
  <g id="patch_1">
   <path d="M 0 432 
L 576 432 
L 576 0 
L 0 0 
L 0 432 
z
" style="fill: none; opacity: 0"/>
  </g>
  <g id="axes_1">
   <g id="patch_2">
    <path d="M 23.76 380.84 
L 539.33926 380.84 
L 539.33926 57.648 
L 23.76 57.648 
L 23.76 380.84 
z
" style="fill: none"/>
   </g>
   <g id="matplotlib.axis_1">
    <g id="xtick_1">
     <g id="line2d_1">
      <path d="M 88.462816 380.84 
L 88.462816 57.648 
" clip-path="url(#p951b2e8880)" style="fill: none; stroke: #ffffff; stroke-opacity: 0.4; stroke-linecap: round"/>
     </g>
     <g id="line2d_2">
      <defs>
       <path id="m4b7b079eb9" d="M 0 0 
L 0 3 
" style="stroke: #808080"/>
      </defs>
      <g>
       <use xlink:href="#m4b7b079eb9" x="88.462816" y="380.84" style="fill: #808080; stroke: #808080"/>
      </g>
     </g>
     <g id="text_1">
      <text style="font-size: 18px; font-family: 'DejaVu Serif', 'Times New Roman', serif; text-anchor: middle; fill: #262626" x="88.462816" y="404.517187" transform="rotate(-0 88.462816 404.517187)">−0.03</text>
     </g>
    </g>
    <g id="xtick_2">
     <g id="line2d_3">
      <path d="M 162.23606 380.84 
L 162.23606 57.648 
" clip-path="url(#p951b2e8880)" style="fill: none; stroke: #ffffff; stroke-opacity: 0.4; stroke-linecap: round"/>
     </g>
     <g id="line2d_4">
      <g>
       <use xlink:href="#m4b7b079eb9" x="162.23606" y="380.84" style="fill: #808080; stroke: #808080"/>
      </g>
     </g>
     <g id="text_2">
      <text style="font-size: 18px; font-family: 'DejaVu Serif', 'Times New Roman', serif; text-anchor: middle; fill: #262626" x="162.23606" y="404.517187" transform="rotate(-0 162.23606 404.517187)">−0.02</text>
     </g>
    </g>
    <g id="xtick_3">
     <g id="line2d_5">
      <path d="M 236.009304 380.84 
L 236.009304 57.648 
" clip-path="url(#p951b2e8880)" style="fill: none; stroke: #ffffff; stroke-opacity: 0.4; stroke-linecap: round"/>
     </g>
     <g id="line2d_6">
      <g>
       <use xlink:href="#m4b7b079eb9" x="236.009304" y="380.84" style="fill: #808080; stroke: #808080"/>
      </g>
     </g>
     <g id="text_3">
      <text style="font-size: 18px; font-family: 'DejaVu Serif', 'Times New Roman', serif; text-anchor: middle; fill: #262626" x="236.009304" y="404.517187" transform="rotate(-0 236.009304 404.517187)">−0.01</text>
     </g>
    </g>
    <g id="xtick_4">
     <g id="line2d_7">
      <path d="M 309.782549 380.84 
L 309.782549 57.648 
" clip-path="url(#p951b2e8880)" style="fill: none; stroke: #ffffff; stroke-opacity: 0.4; stroke-linecap: round"/>
     </g>
     <g id="line2d_8">
      <g>
       <use xlink:href="#m4b7b079eb9" x="309.782549" y="380.84" style="fill: #808080; stroke: #808080"/>
      </g>
     </g>
     <g id="text_4">
      <text style="font-size: 18px; font-family: 'DejaVu Serif', 'Times New Roman', serif; text-anchor: middle; fill: #262626" x="309.782549" y="404.517187" transform="rotate(-0 309.782549 404.517187)">0.00</text>
     </g>
    </g>
    <g id="xtick_5">
     <g id="line2d_9">
      <path d="M 383.555793 380.84 
L 383.555793 57.648 
" clip-path="url(#p951b2e8880)" style="fill: none; stroke: #ffffff; stroke-opacity: 0.4; stroke-linecap: round"/>
     </g>
     <g id="line2d_10">
      <g>
       <use xlink:href="#m4b7b079eb9" x="383.555793" y="380.84" style="fill: #808080; stroke: #808080"/>
      </g>
     </g>
     <g id="text_5">
      <text style="font-size: 18px; font-family: 'DejaVu Serif', 'Times New Roman', serif; text-anchor: middle; fill: #262626" x="383.555793" y="404.517187" transform="rotate(-0 383.555793 404.517187)">0.01</text>
     </g>
    </g>
    <g id="xtick_6">
     <g id="line2d_11">
      <path d="M 457.329037 380.84 
L 457.329037 57.648 
" clip-path="url(#p951b2e8880)" style="fill: none; stroke: #ffffff; stroke-opacity: 0.4; stroke-linecap: round"/>
     </g>
     <g id="line2d_12">
      <g>
       <use xlink:href="#m4b7b079eb9" x="457.329037" y="380.84" style="fill: #808080; stroke: #808080"/>
      </g>
     </g>
     <g id="text_6">
      <text style="font-size: 18px; font-family: 'DejaVu Serif', 'Times New Roman', serif; text-anchor: middle; fill: #262626" x="457.329037" y="404.517187" transform="rotate(-0 457.329037 404.517187)">0.02</text>
     </g>
    </g>
    <g id="xtick_7">
     <g id="line2d_13">
      <path d="M 531.102281 380.84 
L 531.102281 57.648 
" clip-path="url(#p951b2e8880)" style="fill: none; stroke: #ffffff; stroke-opacity: 0.4; stroke-linecap: round"/>
     </g>
     <g id="line2d_14">
      <g>
       <use xlink:href="#m4b7b079eb9" x="531.102281" y="380.84" style="fill: #808080; stroke: #808080"/>
      </g>
     </g>
     <g id="text_7">
      <text style="font-size: 18px; font-family: 'DejaVu Serif', 'Times New Roman', serif; text-anchor: middle; fill: #262626" x="531.102281" y="404.517187" transform="rotate(-0 531.102281 404.517187)">0.03</text>
     </g>
    </g>
   </g>
   <g id="matplotlib.axis_2"/>
   <g id="FillBetweenPolyCollection_1">
    <defs>
     <path id="mdedaef0b22" d="M 47.195421 -65.850545 
L 47.195421 -67.990735 
L 48.112659 -67.99401 
L 49.029896 -67.997986 
L 49.947134 -68.008189 
L 50.864371 -68.021363 
L 51.781609 -68.034848 
L 52.698847 -68.054081 
L 53.616084 -68.075718 
L 54.533322 -68.102721 
L 55.450559 -68.132441 
L 56.367797 -68.162223 
L 57.285035 -68.19437 
L 58.202272 -68.225479 
L 59.11951 -68.264058 
L 60.036747 -68.307455 
L 60.953985 -68.346819 
L 61.871223 -68.390201 
L 62.78846 -68.429287 
L 63.705698 -68.478384 
L 64.622935 -68.523036 
L 65.540173 -68.584097 
L 66.457411 -68.639986 
L 67.374648 -68.692347 
L 68.291886 -68.752783 
L 69.209124 -68.807835 
L 70.126361 -68.868506 
L 71.043599 -68.935823 
L 71.960836 -69.007847 
L 72.878074 -69.081463 
L 73.795312 -69.159824 
L 74.712549 -69.246738 
L 75.629787 -69.334747 
L 76.547024 -69.43267 
L 77.464262 -69.541195 
L 78.3815 -69.655406 
L 79.298737 -69.778468 
L 80.215975 -69.914104 
L 81.133212 -70.057197 
L 82.05045 -70.216988 
L 82.967688 -70.382549 
L 83.884925 -70.562233 
L 84.802163 -70.750392 
L 85.719401 -70.955657 
L 86.636638 -71.16959 
L 87.553876 -71.391695 
L 88.471113 -71.624329 
L 89.388351 -71.872206 
L 90.305589 -72.131866 
L 91.222826 -72.393481 
L 92.140064 -72.667129 
L 93.057301 -72.949696 
L 93.974539 -73.237511 
L 94.891777 -73.519933 
L 95.809014 -73.806262 
L 96.726252 -74.098964 
L 97.643489 -74.404668 
L 98.560727 -74.697117 
L 99.477965 -74.98207 
L 100.395202 -75.26145 
L 101.31244 -75.550001 
L 102.229677 -75.827762 
L 103.146915 -76.102646 
L 104.064153 -76.384767 
L 104.98139 -76.66528 
L 105.898628 -76.941954 
L 106.815866 -77.231021 
L 107.733103 -77.530354 
L 108.650341 -77.845881 
L 109.567578 -78.172638 
L 110.484816 -78.507054 
L 111.402054 -78.853578 
L 112.319291 -79.223392 
L 113.236529 -79.636594 
L 114.153766 -80.06261 
L 115.071004 -80.528372 
L 115.988242 -81.026029 
L 116.905479 -81.563814 
L 117.822717 -82.142107 
L 118.739954 -82.756489 
L 119.657192 -83.42278 
L 120.57443 -84.131338 
L 121.491667 -84.887807 
L 122.408905 -85.686682 
L 123.326142 -86.526931 
L 124.24338 -87.410713 
L 125.160618 -88.349243 
L 126.077855 -89.311372 
L 126.995093 -90.316845 
L 127.912331 -91.370698 
L 128.829568 -92.459844 
L 129.746806 -93.585 
L 130.664043 -94.728544 
L 131.581281 -95.897688 
L 132.498519 -97.089452 
L 133.415756 -98.29453 
L 134.332994 -99.514822 
L 135.250231 -100.766208 
L 136.167469 -102.038163 
L 137.084707 -103.305474 
L 138.001944 -104.571644 
L 138.919182 -105.847578 
L 139.836419 -107.122351 
L 140.753657 -108.400242 
L 141.670895 -109.700333 
L 142.588132 -110.984455 
L 143.50537 -112.269082 
L 144.422607 -113.553757 
L 145.339845 -114.82618 
L 146.257083 -116.102293 
L 147.17432 -117.369248 
L 148.091558 -118.629279 
L 149.008796 -119.909328 
L 149.926033 -121.155034 
L 150.843271 -122.400292 
L 151.760508 -123.657732 
L 152.677746 -124.898378 
L 153.594984 -126.120179 
L 154.512221 -127.356802 
L 155.429459 -128.565597 
L 156.346696 -129.780536 
L 157.263934 -130.983025 
L 158.181172 -132.165199 
L 159.098409 -133.36634 
L 160.015647 -134.558522 
L 160.932884 -135.757006 
L 161.850122 -136.934577 
L 162.76736 -138.116724 
L 163.684597 -139.294502 
L 164.601835 -140.477993 
L 165.519073 -141.675701 
L 166.43631 -142.8669 
L 167.353548 -144.067188 
L 168.270785 -145.289051 
L 169.188023 -146.533374 
L 170.105261 -147.791838 
L 171.022498 -149.063491 
L 171.939736 -150.369103 
L 172.856973 -151.715737 
L 173.774211 -153.096232 
L 174.691449 -154.474122 
L 175.608686 -155.912535 
L 176.525924 -157.375747 
L 177.443161 -158.879765 
L 178.360399 -160.418688 
L 179.277637 -161.995482 
L 180.194874 -163.627141 
L 181.112112 -165.314983 
L 182.029349 -167.042186 
L 182.946587 -168.781349 
L 183.863825 -170.559354 
L 184.781062 -172.366692 
L 185.6983 -174.205414 
L 186.615538 -176.074807 
L 187.532775 -177.960797 
L 188.450013 -179.862166 
L 189.36725 -181.779942 
L 190.284488 -183.705012 
L 191.201726 -185.654736 
L 192.118963 -187.616856 
L 193.036201 -189.615148 
L 193.953438 -191.597727 
L 194.870676 -193.541501 
L 195.787914 -195.514096 
L 196.705151 -197.465075 
L 197.622389 -199.422376 
L 198.539626 -201.372423 
L 199.456864 -203.296973 
L 200.374102 -205.253491 
L 201.291339 -207.19554 
L 202.208577 -209.151448 
L 203.125814 -211.094095 
L 204.043052 -213.050569 
L 204.96029 -215.011836 
L 205.877527 -216.974015 
L 206.794765 -218.959552 
L 207.712003 -220.946325 
L 208.62924 -222.957161 
L 209.546478 -224.993984 
L 210.463715 -227.039631 
L 211.380953 -229.139967 
L 212.298191 -231.266165 
L 213.215428 -233.422415 
L 214.132666 -235.612968 
L 215.049903 -237.825133 
L 215.967141 -240.087015 
L 216.884379 -242.368483 
L 217.801616 -244.664237 
L 218.718854 -246.999982 
L 219.636091 -249.366427 
L 220.553329 -251.770411 
L 221.470567 -254.206215 
L 222.387804 -256.613657 
L 223.305042 -259.012683 
L 224.222279 -261.427789 
L 225.139517 -263.864694 
L 226.056755 -266.270957 
L 226.973992 -268.662825 
L 227.89123 -271.06599 
L 228.808468 -273.414968 
L 229.725705 -275.743427 
L 230.642943 -278.015327 
L 231.56018 -280.25122 
L 232.477418 -282.446373 
L 233.394656 -284.572099 
L 234.311893 -286.651537 
L 235.229131 -288.6816 
L 236.146368 -290.628568 
L 237.063606 -292.548567 
L 237.980844 -294.375726 
L 238.898081 -296.126793 
L 239.815319 -297.820075 
L 240.732556 -299.418499 
L 241.649794 -300.980839 
L 242.567032 -302.483409 
L 243.484269 -303.926763 
L 244.401507 -305.304472 
L 245.318745 -306.644525 
L 246.235982 -307.926016 
L 247.15322 -309.137623 
L 248.070457 -310.299093 
L 248.987695 -311.430155 
L 249.904933 -312.537806 
L 250.82217 -313.610032 
L 251.739408 -314.640369 
L 252.656645 -315.683793 
L 253.573883 -316.707234 
L 254.491121 -317.679868 
L 255.408358 -318.667875 
L 256.325596 -319.682971 
L 257.242833 -320.658589 
L 258.160071 -321.685221 
L 259.077309 -322.698906 
L 259.994546 -323.728771 
L 260.911784 -324.761723 
L 261.829021 -325.823538 
L 262.746259 -326.869476 
L 263.663497 -327.953496 
L 264.580734 -329.056137 
L 265.497972 -330.203547 
L 266.41521 -331.391235 
L 267.332447 -332.590886 
L 268.249685 -333.798646 
L 269.166922 -335.025535 
L 270.08416 -336.23973 
L 271.001398 -337.481442 
L 271.918635 -338.741856 
L 272.835873 -339.962355 
L 273.75311 -341.177481 
L 274.670348 -342.377153 
L 275.587586 -343.571278 
L 276.504823 -344.769599 
L 277.422061 -345.939897 
L 278.339298 -347.096972 
L 279.256536 -348.202701 
L 280.173774 -349.257224 
L 281.091011 -350.290939 
L 282.008249 -351.270863 
L 282.925486 -352.185001 
L 283.842724 -353.051448 
L 284.759962 -353.88818 
L 285.677199 -354.671414 
L 286.594437 -355.396745 
L 287.511675 -356.082105 
L 288.428912 -356.67017 
L 289.34615 -357.25481 
L 290.263387 -357.738128 
L 291.180625 -358.192094 
L 292.097863 -358.589488 
L 293.0151 -358.890792 
L 293.932338 -359.150865 
L 294.849575 -359.358319 
L 295.766813 -359.526363 
L 296.684051 -359.630005 
L 297.601288 -359.661455 
L 298.518526 -359.630496 
L 299.435763 -359.509921 
L 300.353001 -359.325234 
L 301.270239 -359.083692 
L 302.187476 -358.7026 
L 303.104714 -358.255258 
L 304.021952 -357.728393 
L 304.939189 -357.104404 
L 305.856427 -356.41165 
L 306.773664 -355.546509 
L 307.690902 -354.592658 
L 308.60814 -353.524967 
L 309.525377 -352.327258 
L 310.442615 -351.03749 
L 311.359852 -349.616996 
L 312.27709 -348.10425 
L 313.194328 -346.471972 
L 314.111565 -344.731793 
L 315.028803 -342.873711 
L 315.94604 -340.891472 
L 316.863278 -338.820066 
L 317.780516 -336.670326 
L 318.697753 -334.411879 
L 319.614991 -332.11346 
L 320.532228 -329.759561 
L 321.449466 -327.343108 
L 322.366704 -324.870914 
L 323.283941 -322.358942 
L 324.201179 -319.818454 
L 325.118417 -317.289558 
L 326.035654 -314.738369 
L 326.952892 -312.169789 
L 327.870129 -309.629148 
L 328.787367 -307.109887 
L 329.704605 -304.638518 
L 330.621842 -302.177734 
L 331.53908 -299.731023 
L 332.456317 -297.325461 
L 333.373555 -294.977206 
L 334.290793 -292.646403 
L 335.20803 -290.354003 
L 336.125268 -288.159885 
L 337.042505 -285.99547 
L 337.959743 -283.861264 
L 338.876981 -281.785758 
L 339.794218 -279.713869 
L 340.711456 -277.696939 
L 341.628693 -275.705494 
L 342.545931 -273.756308 
L 343.463169 -271.836574 
L 344.380406 -269.951798 
L 345.297644 -268.080551 
L 346.214882 -266.237176 
L 347.132119 -264.388244 
L 348.049357 -262.519751 
L 348.966594 -260.658274 
L 349.883832 -258.814607 
L 350.80107 -256.969858 
L 351.718307 -255.156021 
L 352.635545 -253.288808 
L 353.552782 -251.402635 
L 354.47002 -249.531786 
L 355.387258 -247.63535 
L 356.304495 -245.704052 
L 357.221733 -243.77207 
L 358.13897 -241.791195 
L 359.056208 -239.757631 
L 359.973446 -237.701817 
L 360.890683 -235.606852 
L 361.807921 -233.483409 
L 362.725158 -231.303087 
L 363.642396 -229.073414 
L 364.559634 -226.818638 
L 365.476871 -224.50095 
L 366.394109 -222.129244 
L 367.311347 -219.71705 
L 368.228584 -217.26475 
L 369.145822 -214.768436 
L 370.063059 -212.255211 
L 370.980297 -209.673887 
L 371.897535 -207.084182 
L 372.814772 -204.426962 
L 373.73201 -201.761867 
L 374.649247 -199.093978 
L 375.566485 -196.396597 
L 376.483723 -193.681456 
L 377.40096 -190.947493 
L 378.318198 -188.238842 
L 379.235435 -185.517637 
L 380.152673 -182.806606 
L 381.069911 -180.157403 
L 381.987148 -177.51804 
L 382.904386 -174.895181 
L 383.821624 -172.337638 
L 384.738861 -169.804974 
L 385.656099 -167.331025 
L 386.573336 -164.901447 
L 387.490574 -162.504838 
L 388.407812 -160.192382 
L 389.325049 -157.945455 
L 390.242287 -155.75336 
L 391.159524 -153.608345 
L 392.076762 -151.532493 
L 392.994 -149.541895 
L 393.911237 -147.586454 
L 394.828475 -145.722194 
L 395.745712 -143.906328 
L 396.66295 -142.163569 
L 397.580188 -140.506759 
L 398.497425 -138.893751 
L 399.414663 -137.333485 
L 400.3319 -135.832574 
L 401.249138 -134.369675 
L 402.166376 -132.975846 
L 403.083613 -131.6339 
L 404.000851 -130.339922 
L 404.918089 -129.080982 
L 405.835326 -127.867665 
L 406.752564 -126.692142 
L 407.669801 -125.572349 
L 408.587039 -124.492001 
L 409.504277 -123.434883 
L 410.421514 -122.412182 
L 411.338752 -121.407276 
L 412.255989 -120.423988 
L 413.173227 -119.470407 
L 414.090465 -118.540371 
L 415.007702 -117.624142 
L 415.92494 -116.715125 
L 416.842177 -115.821794 
L 417.759415 -114.914302 
L 418.676653 -114.003256 
L 419.59389 -113.11499 
L 420.511128 -112.219295 
L 421.428365 -111.330381 
L 422.345603 -110.428984 
L 423.262841 -109.516197 
L 424.180078 -108.588239 
L 425.097316 -107.637008 
L 426.014554 -106.689132 
L 426.931791 -105.712672 
L 427.849029 -104.727403 
L 428.766266 -103.721965 
L 429.683504 -102.718711 
L 430.600742 -101.702991 
L 431.517979 -100.673845 
L 432.435217 -99.638197 
L 433.352454 -98.565377 
L 434.269692 -97.508131 
L 435.18693 -96.438618 
L 436.104167 -95.369494 
L 437.021405 -94.301048 
L 437.938642 -93.224867 
L 438.85588 -92.146124 
L 439.773118 -91.093171 
L 440.690355 -90.060267 
L 441.607593 -89.025533 
L 442.52483 -88.023415 
L 443.442068 -87.04136 
L 444.359306 -86.087601 
L 445.276543 -85.152007 
L 446.193781 -84.249255 
L 447.111019 -83.385703 
L 448.028256 -82.554453 
L 448.945494 -81.750139 
L 449.862731 -80.988889 
L 450.779969 -80.258183 
L 451.697207 -79.568242 
L 452.614444 -78.924528 
L 453.531682 -78.318428 
L 454.448919 -77.752885 
L 455.366157 -77.229855 
L 456.283395 -76.737733 
L 457.200632 -76.297854 
L 458.11787 -75.888109 
L 459.035107 -75.510569 
L 459.952345 -75.16124 
L 460.869583 -74.853487 
L 461.78682 -74.574992 
L 462.704058 -74.310188 
L 463.621296 -74.073992 
L 464.538533 -73.852347 
L 465.455771 -73.656328 
L 466.373008 -73.463782 
L 467.290246 -73.294649 
L 468.207484 -73.128881 
L 469.124721 -72.970414 
L 470.041959 -72.827182 
L 470.959196 -72.677326 
L 471.876434 -72.531142 
L 472.793672 -72.384055 
L 473.710909 -72.234885 
L 474.628147 -72.077604 
L 475.545384 -71.928401 
L 476.462622 -71.769955 
L 477.37986 -71.605244 
L 478.297097 -71.439272 
L 479.214335 -71.264045 
L 480.131572 -71.093723 
L 481.04881 -70.914449 
L 481.966048 -70.740791 
L 482.883285 -70.561767 
L 483.800523 -70.376454 
L 484.717761 -70.194515 
L 485.634998 -70.018801 
L 486.552236 -69.841602 
L 487.469473 -69.667076 
L 488.386711 -69.496151 
L 489.303949 -69.332219 
L 490.221186 -69.170447 
L 491.138424 -69.017189 
L 492.055661 -68.86993 
L 492.972899 -68.732367 
L 493.890137 -68.599328 
L 494.807374 -68.474285 
L 495.724612 -68.352369 
L 496.641849 -68.24426 
L 497.559087 -68.143681 
L 498.476325 -68.048059 
L 499.393562 -67.962871 
L 500.3108 -67.884777 
L 501.228037 -67.813545 
L 502.145275 -67.748885 
L 503.062513 -67.68793 
L 503.97975 -67.633371 
L 504.896988 -67.587267 
L 505.814226 -67.543542 
L 506.731463 -67.51058 
L 507.648701 -67.47673 
L 508.565938 -67.449781 
L 509.483176 -67.426238 
L 510.400414 -67.405784 
L 511.317651 -67.38557 
L 512.234889 -67.371528 
L 513.152126 -67.358335 
L 514.069364 -67.348233 
L 514.986602 -67.346056 
L 515.903839 -67.349302 
L 515.903839 -65.850545 
L 515.903839 -65.850545 
L 514.986602 -65.850545 
L 514.069364 -65.850545 
L 513.152126 -65.850545 
L 512.234889 -65.850545 
L 511.317651 -65.850545 
L 510.400414 -65.850545 
L 509.483176 -65.850545 
L 508.565938 -65.850545 
L 507.648701 -65.850545 
L 506.731463 -65.850545 
L 505.814226 -65.850545 
L 504.896988 -65.850545 
L 503.97975 -65.850545 
L 503.062513 -65.850545 
L 502.145275 -65.850545 
L 501.228037 -65.850545 
L 500.3108 -65.850545 
L 499.393562 -65.850545 
L 498.476325 -65.850545 
L 497.559087 -65.850545 
L 496.641849 -65.850545 
L 495.724612 -65.850545 
L 494.807374 -65.850545 
L 493.890137 -65.850545 
L 492.972899 -65.850545 
L 492.055661 -65.850545 
L 491.138424 -65.850545 
L 490.221186 -65.850545 
L 489.303949 -65.850545 
L 488.386711 -65.850545 
L 487.469473 -65.850545 
L 486.552236 -65.850545 
L 485.634998 -65.850545 
L 484.717761 -65.850545 
L 483.800523 -65.850545 
L 482.883285 -65.850545 
L 481.966048 -65.850545 
L 481.04881 -65.850545 
L 480.131572 -65.850545 
L 479.214335 -65.850545 
L 478.297097 -65.850545 
L 477.37986 -65.850545 
L 476.462622 -65.850545 
L 475.545384 -65.850545 
L 474.628147 -65.850545 
L 473.710909 -65.850545 
L 472.793672 -65.850545 
L 471.876434 -65.850545 
L 470.959196 -65.850545 
L 470.041959 -65.850545 
L 469.124721 -65.850545 
L 468.207484 -65.850545 
L 467.290246 -65.850545 
L 466.373008 -65.850545 
L 465.455771 -65.850545 
L 464.538533 -65.850545 
L 463.621296 -65.850545 
L 462.704058 -65.850545 
L 461.78682 -65.850545 
L 460.869583 -65.850545 
L 459.952345 -65.850545 
L 459.035107 -65.850545 
L 458.11787 -65.850545 
L 457.200632 -65.850545 
L 456.283395 -65.850545 
L 455.366157 -65.850545 
L 454.448919 -65.850545 
L 453.531682 -65.850545 
L 452.614444 -65.850545 
L 451.697207 -65.850545 
L 450.779969 -65.850545 
L 449.862731 -65.850545 
L 448.945494 -65.850545 
L 448.028256 -65.850545 
L 447.111019 -65.850545 
L 446.193781 -65.850545 
L 445.276543 -65.850545 
L 444.359306 -65.850545 
L 443.442068 -65.850545 
L 442.52483 -65.850545 
L 441.607593 -65.850545 
L 440.690355 -65.850545 
L 439.773118 -65.850545 
L 438.85588 -65.850545 
L 437.938642 -65.850545 
L 437.021405 -65.850545 
L 436.104167 -65.850545 
L 435.18693 -65.850545 
L 434.269692 -65.850545 
L 433.352454 -65.850545 
L 432.435217 -65.850545 
L 431.517979 -65.850545 
L 430.600742 -65.850545 
L 429.683504 -65.850545 
L 428.766266 -65.850545 
L 427.849029 -65.850545 
L 426.931791 -65.850545 
L 426.014554 -65.850545 
L 425.097316 -65.850545 
L 424.180078 -65.850545 
L 423.262841 -65.850545 
L 422.345603 -65.850545 
L 421.428365 -65.850545 
L 420.511128 -65.850545 
L 419.59389 -65.850545 
L 418.676653 -65.850545 
L 417.759415 -65.850545 
L 416.842177 -65.850545 
L 415.92494 -65.850545 
L 415.007702 -65.850545 
L 414.090465 -65.850545 
L 413.173227 -65.850545 
L 412.255989 -65.850545 
L 411.338752 -65.850545 
L 410.421514 -65.850545 
L 409.504277 -65.850545 
L 408.587039 -65.850545 
L 407.669801 -65.850545 
L 406.752564 -65.850545 
L 405.835326 -65.850545 
L 404.918089 -65.850545 
L 404.000851 -65.850545 
L 403.083613 -65.850545 
L 402.166376 -65.850545 
L 401.249138 -65.850545 
L 400.3319 -65.850545 
L 399.414663 -65.850545 
L 398.497425 -65.850545 
L 397.580188 -65.850545 
L 396.66295 -65.850545 
L 395.745712 -65.850545 
L 394.828475 -65.850545 
L 393.911237 -65.850545 
L 392.994 -65.850545 
L 392.076762 -65.850545 
L 391.159524 -65.850545 
L 390.242287 -65.850545 
L 389.325049 -65.850545 
L 388.407812 -65.850545 
L 387.490574 -65.850545 
L 386.573336 -65.850545 
L 385.656099 -65.850545 
L 384.738861 -65.850545 
L 383.821624 -65.850545 
L 382.904386 -65.850545 
L 381.987148 -65.850545 
L 381.069911 -65.850545 
L 380.152673 -65.850545 
L 379.235435 -65.850545 
L 378.318198 -65.850545 
L 377.40096 -65.850545 
L 376.483723 -65.850545 
L 375.566485 -65.850545 
L 374.649247 -65.850545 
L 373.73201 -65.850545 
L 372.814772 -65.850545 
L 371.897535 -65.850545 
L 370.980297 -65.850545 
L 370.063059 -65.850545 
L 369.145822 -65.850545 
L 368.228584 -65.850545 
L 367.311347 -65.850545 
L 366.394109 -65.850545 
L 365.476871 -65.850545 
L 364.559634 -65.850545 
L 363.642396 -65.850545 
L 362.725158 -65.850545 
L 361.807921 -65.850545 
L 360.890683 -65.850545 
L 359.973446 -65.850545 
L 359.056208 -65.850545 
L 358.13897 -65.850545 
L 357.221733 -65.850545 
L 356.304495 -65.850545 
L 355.387258 -65.850545 
L 354.47002 -65.850545 
L 353.552782 -65.850545 
L 352.635545 -65.850545 
L 351.718307 -65.850545 
L 350.80107 -65.850545 
L 349.883832 -65.850545 
L 348.966594 -65.850545 
L 348.049357 -65.850545 
L 347.132119 -65.850545 
L 346.214882 -65.850545 
L 345.297644 -65.850545 
L 344.380406 -65.850545 
L 343.463169 -65.850545 
L 342.545931 -65.850545 
L 341.628693 -65.850545 
L 340.711456 -65.850545 
L 339.794218 -65.850545 
L 338.876981 -65.850545 
L 337.959743 -65.850545 
L 337.042505 -65.850545 
L 336.125268 -65.850545 
L 335.20803 -65.850545 
L 334.290793 -65.850545 
L 333.373555 -65.850545 
L 332.456317 -65.850545 
L 331.53908 -65.850545 
L 330.621842 -65.850545 
L 329.704605 -65.850545 
L 328.787367 -65.850545 
L 327.870129 -65.850545 
L 326.952892 -65.850545 
L 326.035654 -65.850545 
L 325.118417 -65.850545 
L 324.201179 -65.850545 
L 323.283941 -65.850545 
L 322.366704 -65.850545 
L 321.449466 -65.850545 
L 320.532228 -65.850545 
L 319.614991 -65.850545 
L 318.697753 -65.850545 
L 317.780516 -65.850545 
L 316.863278 -65.850545 
L 315.94604 -65.850545 
L 315.028803 -65.850545 
L 314.111565 -65.850545 
L 313.194328 -65.850545 
L 312.27709 -65.850545 
L 311.359852 -65.850545 
L 310.442615 -65.850545 
L 309.525377 -65.850545 
L 308.60814 -65.850545 
L 307.690902 -65.850545 
L 306.773664 -65.850545 
L 305.856427 -65.850545 
L 304.939189 -65.850545 
L 304.021952 -65.850545 
L 303.104714 -65.850545 
L 302.187476 -65.850545 
L 301.270239 -65.850545 
L 300.353001 -65.850545 
L 299.435763 -65.850545 
L 298.518526 -65.850545 
L 297.601288 -65.850545 
L 296.684051 -65.850545 
L 295.766813 -65.850545 
L 294.849575 -65.850545 
L 293.932338 -65.850545 
L 293.0151 -65.850545 
L 292.097863 -65.850545 
L 291.180625 -65.850545 
L 290.263387 -65.850545 
L 289.34615 -65.850545 
L 288.428912 -65.850545 
L 287.511675 -65.850545 
L 286.594437 -65.850545 
L 285.677199 -65.850545 
L 284.759962 -65.850545 
L 283.842724 -65.850545 
L 282.925486 -65.850545 
L 282.008249 -65.850545 
L 281.091011 -65.850545 
L 280.173774 -65.850545 
L 279.256536 -65.850545 
L 278.339298 -65.850545 
L 277.422061 -65.850545 
L 276.504823 -65.850545 
L 275.587586 -65.850545 
L 274.670348 -65.850545 
L 273.75311 -65.850545 
L 272.835873 -65.850545 
L 271.918635 -65.850545 
L 271.001398 -65.850545 
L 270.08416 -65.850545 
L 269.166922 -65.850545 
L 268.249685 -65.850545 
L 267.332447 -65.850545 
L 266.41521 -65.850545 
L 265.497972 -65.850545 
L 264.580734 -65.850545 
L 263.663497 -65.850545 
L 262.746259 -65.850545 
L 261.829021 -65.850545 
L 260.911784 -65.850545 
L 259.994546 -65.850545 
L 259.077309 -65.850545 
L 258.160071 -65.850545 
L 257.242833 -65.850545 
L 256.325596 -65.850545 
L 255.408358 -65.850545 
L 254.491121 -65.850545 
L 253.573883 -65.850545 
L 252.656645 -65.850545 
L 251.739408 -65.850545 
L 250.82217 -65.850545 
L 249.904933 -65.850545 
L 248.987695 -65.850545 
L 248.070457 -65.850545 
L 247.15322 -65.850545 
L 246.235982 -65.850545 
L 245.318745 -65.850545 
L 244.401507 -65.850545 
L 243.484269 -65.850545 
L 242.567032 -65.850545 
L 241.649794 -65.850545 
L 240.732556 -65.850545 
L 239.815319 -65.850545 
L 238.898081 -65.850545 
L 237.980844 -65.850545 
L 237.063606 -65.850545 
L 236.146368 -65.850545 
L 235.229131 -65.850545 
L 234.311893 -65.850545 
L 233.394656 -65.850545 
L 232.477418 -65.850545 
L 231.56018 -65.850545 
L 230.642943 -65.850545 
L 229.725705 -65.850545 
L 228.808468 -65.850545 
L 227.89123 -65.850545 
L 226.973992 -65.850545 
L 226.056755 -65.850545 
L 225.139517 -65.850545 
L 224.222279 -65.850545 
L 223.305042 -65.850545 
L 222.387804 -65.850545 
L 221.470567 -65.850545 
L 220.553329 -65.850545 
L 219.636091 -65.850545 
L 218.718854 -65.850545 
L 217.801616 -65.850545 
L 216.884379 -65.850545 
L 215.967141 -65.850545 
L 215.049903 -65.850545 
L 214.132666 -65.850545 
L 213.215428 -65.850545 
L 212.298191 -65.850545 
L 211.380953 -65.850545 
L 210.463715 -65.850545 
L 209.546478 -65.850545 
L 208.62924 -65.850545 
L 207.712003 -65.850545 
L 206.794765 -65.850545 
L 205.877527 -65.850545 
L 204.96029 -65.850545 
L 204.043052 -65.850545 
L 203.125814 -65.850545 
L 202.208577 -65.850545 
L 201.291339 -65.850545 
L 200.374102 -65.850545 
L 199.456864 -65.850545 
L 198.539626 -65.850545 
L 197.622389 -65.850545 
L 196.705151 -65.850545 
L 195.787914 -65.850545 
L 194.870676 -65.850545 
L 193.953438 -65.850545 
L 193.036201 -65.850545 
L 192.118963 -65.850545 
L 191.201726 -65.850545 
L 190.284488 -65.850545 
L 189.36725 -65.850545 
L 188.450013 -65.850545 
L 187.532775 -65.850545 
L 186.615538 -65.850545 
L 185.6983 -65.850545 
L 184.781062 -65.850545 
L 183.863825 -65.850545 
L 182.946587 -65.850545 
L 182.029349 -65.850545 
L 181.112112 -65.850545 
L 180.194874 -65.850545 
L 179.277637 -65.850545 
L 178.360399 -65.850545 
L 177.443161 -65.850545 
L 176.525924 -65.850545 
L 175.608686 -65.850545 
L 174.691449 -65.850545 
L 173.774211 -65.850545 
L 172.856973 -65.850545 
L 171.939736 -65.850545 
L 171.022498 -65.850545 
L 170.105261 -65.850545 
L 169.188023 -65.850545 
L 168.270785 -65.850545 
L 167.353548 -65.850545 
L 166.43631 -65.850545 
L 165.519073 -65.850545 
L 164.601835 -65.850545 
L 163.684597 -65.850545 
L 162.76736 -65.850545 
L 161.850122 -65.850545 
L 160.932884 -65.850545 
L 160.015647 -65.850545 
L 159.098409 -65.850545 
L 158.181172 -65.850545 
L 157.263934 -65.850545 
L 156.346696 -65.850545 
L 155.429459 -65.850545 
L 154.512221 -65.850545 
L 153.594984 -65.850545 
L 152.677746 -65.850545 
L 151.760508 -65.850545 
L 150.843271 -65.850545 
L 149.926033 -65.850545 
L 149.008796 -65.850545 
L 148.091558 -65.850545 
L 147.17432 -65.850545 
L 146.257083 -65.850545 
L 145.339845 -65.850545 
L 144.422607 -65.850545 
L 143.50537 -65.850545 
L 142.588132 -65.850545 
L 141.670895 -65.850545 
L 140.753657 -65.850545 
L 139.836419 -65.850545 
L 138.919182 -65.850545 
L 138.001944 -65.850545 
L 137.084707 -65.850545 
L 136.167469 -65.850545 
L 135.250231 -65.850545 
L 134.332994 -65.850545 
L 133.415756 -65.850545 
L 132.498519 -65.850545 
L 131.581281 -65.850545 
L 130.664043 -65.850545 
L 129.746806 -65.850545 
L 128.829568 -65.850545 
L 127.912331 -65.850545 
L 126.995093 -65.850545 
L 126.077855 -65.850545 
L 125.160618 -65.850545 
L 124.24338 -65.850545 
L 123.326142 -65.850545 
L 122.408905 -65.850545 
L 121.491667 -65.850545 
L 120.57443 -65.850545 
L 119.657192 -65.850545 
L 118.739954 -65.850545 
L 117.822717 -65.850545 
L 116.905479 -65.850545 
L 115.988242 -65.850545 
L 115.071004 -65.850545 
L 114.153766 -65.850545 
L 113.236529 -65.850545 
L 112.319291 -65.850545 
L 111.402054 -65.850545 
L 110.484816 -65.850545 
L 109.567578 -65.850545 
L 108.650341 -65.850545 
L 107.733103 -65.850545 
L 106.815866 -65.850545 
L 105.898628 -65.850545 
L 104.98139 -65.850545 
L 104.064153 -65.850545 
L 103.146915 -65.850545 
L 102.229677 -65.850545 
L 101.31244 -65.850545 
L 100.395202 -65.850545 
L 99.477965 -65.850545 
L 98.560727 -65.850545 
L 97.643489 -65.850545 
L 96.726252 -65.850545 
L 95.809014 -65.850545 
L 94.891777 -65.850545 
L 93.974539 -65.850545 
L 93.057301 -65.850545 
L 92.140064 -65.850545 
L 91.222826 -65.850545 
L 90.305589 -65.850545 
L 89.388351 -65.850545 
L 88.471113 -65.850545 
L 87.553876 -65.850545 
L 86.636638 -65.850545 
L 85.719401 -65.850545 
L 84.802163 -65.850545 
L 83.884925 -65.850545 
L 82.967688 -65.850545 
L 82.05045 -65.850545 
L 81.133212 -65.850545 
L 80.215975 -65.850545 
L 79.298737 -65.850545 
L 78.3815 -65.850545 
L 77.464262 -65.850545 
L 76.547024 -65.850545 
L 75.629787 -65.850545 
L 74.712549 -65.850545 
L 73.795312 -65.850545 
L 72.878074 -65.850545 
L 71.960836 -65.850545 
L 71.043599 -65.850545 
L 70.126361 -65.850545 
L 69.209124 -65.850545 
L 68.291886 -65.850545 
L 67.374648 -65.850545 
L 66.457411 -65.850545 
L 65.540173 -65.850545 
L 64.622935 -65.850545 
L 63.705698 -65.850545 
L 62.78846 -65.850545 
L 61.871223 -65.850545 
L 60.953985 -65.850545 
L 60.036747 -65.850545 
L 59.11951 -65.850545 
L 58.202272 -65.850545 
L 57.285035 -65.850545 
L 56.367797 -65.850545 
L 55.450559 -65.850545 
L 54.533322 -65.850545 
L 53.616084 -65.850545 
L 52.698847 -65.850545 
L 51.781609 -65.850545 
L 50.864371 -65.850545 
L 49.947134 -65.850545 
L 49.029896 -65.850545 
L 48.112659 -65.850545 
L 47.195421 -65.850545 
z
" style="stroke: #7570b3; stroke-opacity: 0.6; stroke-width: 0.3"/>
    </defs>
    <g clip-path="url(#p951b2e8880)">
     <use xlink:href="#mdedaef0b22" x="0" y="432" style="fill: #7570b3; fill-opacity: 0.6; stroke: #7570b3; stroke-opacity: 0.6; stroke-width: 0.3"/>
    </g>
   </g>
   <g id="line2d_15">
    <path d="M 47.195421 364.009265 
L 54.533322 363.897279 
L 64.622935 363.476964 
L 75.629787 362.665253 
L 80.215975 362.085896 
L 83.884925 361.437767 
L 87.553876 360.608305 
L 92.140064 359.332871 
L 108.650341 354.154119 
L 112.319291 352.776608 
L 115.071004 351.471628 
L 117.822717 349.857893 
L 119.657192 348.57722 
L 122.408905 346.313318 
L 125.160618 343.650757 
L 127.912331 340.629302 
L 131.581281 336.102312 
L 136.167469 329.961837 
L 156.346696 302.219464 
L 171.939736 281.630897 
L 175.608686 276.087465 
L 178.360399 271.581312 
L 181.112112 266.685017 
L 184.781062 259.633308 
L 189.36725 250.220058 
L 194.870676 238.458499 
L 212.298191 200.733835 
L 215.967141 191.912985 
L 220.553329 180.229589 
L 228.808468 158.585032 
L 232.477418 149.553627 
L 235.229131 143.3184 
L 237.980844 137.624274 
L 240.732556 132.581501 
L 243.484269 128.073237 
L 246.235982 124.073984 
L 248.987695 120.569845 
L 251.739408 117.359631 
L 255.408358 113.332125 
L 263.663497 104.046504 
L 266.41521 100.608765 
L 272.835873 92.037645 
L 278.339298 84.903028 
L 281.091011 81.709061 
L 282.925486 79.814999 
L 285.677199 77.328586 
L 287.511675 75.917895 
L 290.263387 74.261872 
L 292.097863 73.410512 
L 293.932338 72.849135 
L 295.766813 72.473637 
L 297.601288 72.338545 
L 299.435763 72.490079 
L 301.270239 72.916308 
L 303.104714 73.744742 
L 304.939189 74.895596 
L 305.856427 75.58835 
L 307.690902 77.407342 
L 309.525377 79.672742 
L 311.359852 82.383004 
L 313.194328 85.528028 
L 315.028803 89.126289 
L 317.780516 95.329674 
L 321.449466 104.656892 
L 326.035654 117.261631 
L 330.621842 129.822266 
L 334.290793 139.353597 
L 337.042505 146.00453 
L 340.711456 154.303061 
L 344.380406 162.048202 
L 358.13897 190.208805 
L 361.807921 198.516591 
L 365.476871 207.49905 
L 369.145822 217.231564 
L 372.814772 227.573038 
L 385.656099 264.668975 
L 388.407812 271.807618 
L 391.159524 278.391655 
L 393.911237 284.413546 
L 396.66295 289.836431 
L 399.414663 294.666515 
L 402.166376 299.024154 
L 404.918089 302.919018 
L 407.669801 306.427651 
L 411.338752 310.592724 
L 415.007702 314.375858 
L 426.931791 326.287328 
L 432.435217 332.361803 
L 441.607593 342.974467 
L 445.276543 346.847993 
L 448.028256 349.445547 
L 450.779969 351.741817 
L 453.531682 353.681572 
L 456.283395 355.262267 
L 459.035107 356.489431 
L 461.78682 357.425008 
L 464.538533 358.147653 
L 469.124721 359.029586 
L 478.297097 360.560728 
L 492.972899 363.267633 
L 497.559087 363.856319 
L 502.145275 364.251115 
L 507.648701 364.52327 
L 514.986602 364.653944 
L 515.903839 364.650698 
L 515.903839 364.650698 
" clip-path="url(#p951b2e8880)" style="fill: none; stroke: #7570b3; stroke-width: 2; stroke-linecap: round"/>
   </g>
   <g id="line2d_16">
    <path d="M 159.747128 359.979425 
L 388.14349 359.979425 
" clip-path="url(#p951b2e8880)" style="fill: none; stroke: #000000; stroke-width: 3.5"/>
   </g>
   <g id="patch_3">
    <path d="M 23.76 380.84 
L 539.33926 380.84 
" style="fill: none; stroke: #333333; stroke-width: 1.5; stroke-linejoin: miter; stroke-linecap: square"/>
   </g>
   <g id="text_8">
    <text style="font-size: 22px; font-family: 'DejaVu Serif', 'Times New Roman', serif; text-anchor: end; fill: #262626" x="159.747128" y="344.554353" transform="rotate(-0 159.747128 344.554353)">-0.02 </text>
   </g>
   <g id="text_9">
    <text style="font-size: 22px; font-family: 'DejaVu Serif', 'Times New Roman', serif; text-anchor: start; fill: #262626" x="388.14349" y="344.554353" transform="rotate(-0 388.14349 344.554353)"> 0.011</text>
   </g>
   <g id="text_10">
    <text style="font-size: 22px; font-family: 'DejaVu Serif', 'Times New Roman', serif; text-anchor: middle; fill: #262626" x="273.945309" y="273.599018" transform="rotate(-0 273.945309 273.599018)">90% HDI</text>
   </g>
   <g id="text_11">
    <text style="font-size: 22px; font-family: 'DejaVu Serif', 'Times New Roman', serif; text-anchor: middle; fill: #262626" x="284.195731" y="119.348291" transform="rotate(-0 284.195731 119.348291)">mean=-0.0035</text>
   </g>
   <g id="text_12">
    <!-- $x_2x_3^2$ -->
    <g style="fill: #262626" transform="translate(251.02963 49.528)">
     <text>
      <tspan x="0" y="-0.734375" style="font-style: oblique; font-size: 28px; font-family: 'DejaVu Sans'; fill: #262626">x</tspan>
      <tspan x="29.806055" y="-0.734375" style="font-style: oblique; font-size: 28px; font-family: 'DejaVu Sans'; fill: #262626">x</tspan>
      <tspan x="16.570312" y="3.859375" style="font-size: 19.6px; font-family: 'DejaVu Sans'; fill: #262626">2</tspan>
      <tspan x="46.376367" y="6.921875" style="font-size: 19.6px; font-family: 'DejaVu Sans'; fill: #262626">3</tspan>
      <tspan x="47.626888" y="-11.453125" style="font-size: 19.6px; font-family: 'DejaVu Sans'; fill: #262626">2</tspan>
     </text>
    </g>
   </g>
  </g>
 </g>
 <defs>
  <clipPath id="p951b2e8880">
   <rect x="23.76" y="57.648" width="515.57926" height="323.192"/>
  </clipPath>
 </defs>
</svg>
