<?xml version="1.0" encoding="utf-8" standalone="no"?>
<!DOCTYPE svg PUBLIC "-//W3C//DTD SVG 1.1//EN"
  "http://www.w3.org/Graphics/SVG/1.1/DTD/svg11.dtd">
<svg xmlns:xlink="http://www.w3.org/1999/xlink" width="576pt" height="432pt" viewBox="0 0 576 432" xmlns="http://www.w3.org/2000/svg" version="1.1">
 <metadata>
  <rdf:RDF xmlns:dc="http://purl.org/dc/elements/1.1/" xmlns:cc="http://creativecommons.org/ns#" xmlns:rdf="http://www.w3.org/1999/02/22-rdf-syntax-ns#">
   <cc:Work>
    <dc:type rdf:resource="http://purl.org/dc/dcmitype/StillImage"/>
    <dc:date>2025-09-22T22:41:52.612898</dc:date>
    <dc:format>image/svg+xml</dc:format>
    <dc:creator>
     <cc:Agent>
      <dc:title>Matplotlib v3.10.0, https://matplotlib.org/</dc:title>
     </cc:Agent>
    </dc:creator>
   </cc:Work>
  </rdf:RDF>
 </metadata>
 <defs>
  <style type="text/css">*{stroke-linejoin: round; stroke-linecap: butt}</style>
 </defs>
 <g id="figure_1">
  <g id="patch_1">
   <path d="M 0 432 
L 576 432 
L 576 0 
L 0 0 
L 0 432 
z
" style="fill: none; opacity: 0"/>
  </g>
  <g id="axes_1">
   <g id="patch_2">
    <path d="M 23.76 380.84 
L 545.951168 380.84 
L 545.951168 57.42 
L 23.76 57.42 
L 23.76 380.84 
z
" style="fill: none"/>
   </g>
   <g id="matplotlib.axis_1">
    <g id="xtick_1">
     <g id="line2d_1">
      <path d="M 72.616142 380.84 
L 72.616142 57.42 
" clip-path="url(#pd92a5be96e)" style="fill: none; stroke: #ffffff; stroke-opacity: 0.4; stroke-linecap: round"/>
     </g>
     <g id="line2d_2">
      <defs>
       <path id="m64a276cfea" d="M 0 0 
L 0 3 
" style="stroke: #808080"/>
      </defs>
      <g>
       <use xlink:href="#m64a276cfea" x="72.616142" y="380.84" style="fill: #808080; stroke: #808080"/>
      </g>
     </g>
     <g id="text_1">
      <text style="font-size: 18px; font-family: 'DejaVu Serif', 'Times New Roman', serif; text-anchor: middle; fill: #262626" x="72.616142" y="404.517187" transform="rotate(-0 72.616142 404.517187)">−0.30</text>
     </g>
    </g>
    <g id="xtick_2">
     <g id="line2d_3">
      <path d="M 131.515688 380.84 
L 131.515688 57.42 
" clip-path="url(#pd92a5be96e)" style="fill: none; stroke: #ffffff; stroke-opacity: 0.4; stroke-linecap: round"/>
     </g>
     <g id="line2d_4">
      <g>
       <use xlink:href="#m64a276cfea" x="131.515688" y="380.84" style="fill: #808080; stroke: #808080"/>
      </g>
     </g>
     <g id="text_2">
      <text style="font-size: 18px; font-family: 'DejaVu Serif', 'Times New Roman', serif; text-anchor: middle; fill: #262626" x="131.515688" y="404.517187" transform="rotate(-0 131.515688 404.517187)">−0.28</text>
     </g>
    </g>
    <g id="xtick_3">
     <g id="line2d_5">
      <path d="M 190.415233 380.84 
L 190.415233 57.42 
" clip-path="url(#pd92a5be96e)" style="fill: none; stroke: #ffffff; stroke-opacity: 0.4; stroke-linecap: round"/>
     </g>
     <g id="line2d_6">
      <g>
       <use xlink:href="#m64a276cfea" x="190.415233" y="380.84" style="fill: #808080; stroke: #808080"/>
      </g>
     </g>
     <g id="text_3">
      <text style="font-size: 18px; font-family: 'DejaVu Serif', 'Times New Roman', serif; text-anchor: middle; fill: #262626" x="190.415233" y="404.517187" transform="rotate(-0 190.415233 404.517187)">−0.26</text>
     </g>
    </g>
    <g id="xtick_4">
     <g id="line2d_7">
      <path d="M 249.314779 380.84 
L 249.314779 57.42 
" clip-path="url(#pd92a5be96e)" style="fill: none; stroke: #ffffff; stroke-opacity: 0.4; stroke-linecap: round"/>
     </g>
     <g id="line2d_8">
      <g>
       <use xlink:href="#m64a276cfea" x="249.314779" y="380.84" style="fill: #808080; stroke: #808080"/>
      </g>
     </g>
     <g id="text_4">
      <text style="font-size: 18px; font-family: 'DejaVu Serif', 'Times New Roman', serif; text-anchor: middle; fill: #262626" x="249.314779" y="404.517187" transform="rotate(-0 249.314779 404.517187)">−0.24</text>
     </g>
    </g>
    <g id="xtick_5">
     <g id="line2d_9">
      <path d="M 308.214324 380.84 
L 308.214324 57.42 
" clip-path="url(#pd92a5be96e)" style="fill: none; stroke: #ffffff; stroke-opacity: 0.4; stroke-linecap: round"/>
     </g>
     <g id="line2d_10">
      <g>
       <use xlink:href="#m64a276cfea" x="308.214324" y="380.84" style="fill: #808080; stroke: #808080"/>
      </g>
     </g>
     <g id="text_5">
      <text style="font-size: 18px; font-family: 'DejaVu Serif', 'Times New Roman', serif; text-anchor: middle; fill: #262626" x="308.214324" y="404.517187" transform="rotate(-0 308.214324 404.517187)">−0.22</text>
     </g>
    </g>
    <g id="xtick_6">
     <g id="line2d_11">
      <path d="M 367.11387 380.84 
L 367.11387 57.42 
" clip-path="url(#pd92a5be96e)" style="fill: none; stroke: #ffffff; stroke-opacity: 0.4; stroke-linecap: round"/>
     </g>
     <g id="line2d_12">
      <g>
       <use xlink:href="#m64a276cfea" x="367.11387" y="380.84" style="fill: #808080; stroke: #808080"/>
      </g>
     </g>
     <g id="text_6">
      <text style="font-size: 18px; font-family: 'DejaVu Serif', 'Times New Roman', serif; text-anchor: middle; fill: #262626" x="367.11387" y="404.517187" transform="rotate(-0 367.11387 404.517187)">−0.20</text>
     </g>
    </g>
    <g id="xtick_7">
     <g id="line2d_13">
      <path d="M 426.013416 380.84 
L 426.013416 57.42 
" clip-path="url(#pd92a5be96e)" style="fill: none; stroke: #ffffff; stroke-opacity: 0.4; stroke-linecap: round"/>
     </g>
     <g id="line2d_14">
      <g>
       <use xlink:href="#m64a276cfea" x="426.013416" y="380.84" style="fill: #808080; stroke: #808080"/>
      </g>
     </g>
     <g id="text_7">
      <text style="font-size: 18px; font-family: 'DejaVu Serif', 'Times New Roman', serif; text-anchor: middle; fill: #262626" x="426.013416" y="404.517187" transform="rotate(-0 426.013416 404.517187)">−0.18</text>
     </g>
    </g>
    <g id="xtick_8">
     <g id="line2d_15">
      <path d="M 484.912961 380.84 
L 484.912961 57.42 
" clip-path="url(#pd92a5be96e)" style="fill: none; stroke: #ffffff; stroke-opacity: 0.4; stroke-linecap: round"/>
     </g>
     <g id="line2d_16">
      <g>
       <use xlink:href="#m64a276cfea" x="484.912961" y="380.84" style="fill: #808080; stroke: #808080"/>
      </g>
     </g>
     <g id="text_8">
      <text style="font-size: 18px; font-family: 'DejaVu Serif', 'Times New Roman', serif; text-anchor: middle; fill: #262626" x="484.912961" y="404.517187" transform="rotate(-0 484.912961 404.517187)">−0.16</text>
     </g>
    </g>
    <g id="xtick_9">
     <g id="line2d_17">
      <path d="M 543.812507 380.84 
L 543.812507 57.42 
" clip-path="url(#pd92a5be96e)" style="fill: none; stroke: #ffffff; stroke-opacity: 0.4; stroke-linecap: round"/>
     </g>
     <g id="line2d_18">
      <g>
       <use xlink:href="#m64a276cfea" x="543.812507" y="380.84" style="fill: #808080; stroke: #808080"/>
      </g>
     </g>
     <g id="text_9">
      <text style="font-size: 18px; font-family: 'DejaVu Serif', 'Times New Roman', serif; text-anchor: middle; fill: #262626" x="543.812507" y="404.517187" transform="rotate(-0 543.812507 404.517187)">−0.14</text>
     </g>
    </g>
   </g>
   <g id="matplotlib.axis_2"/>
   <g id="FillBetweenPolyCollection_1">
    <defs>
     <path id="m7f84db9f6c" d="M 47.495962 -65.860909 
L 47.495962 -67.794768 
L 48.424963 -67.786312 
L 49.353963 -67.767042 
L 50.282964 -67.742832 
L 51.211964 -67.710901 
L 52.140965 -67.671819 
L 53.069965 -67.62626 
L 53.998966 -67.574984 
L 54.927966 -67.51882 
L 55.856966 -67.458645 
L 56.785967 -67.395363 
L 57.714967 -67.329883 
L 58.643968 -67.263102 
L 59.572968 -67.195884 
L 60.501969 -67.129043 
L 61.430969 -67.066562 
L 62.35997 -67.003561 
L 63.28897 -66.94317 
L 64.217971 -66.885922 
L 65.146971 -66.832261 
L 66.075972 -66.782532 
L 67.004972 -66.740218 
L 67.933973 -66.699925 
L 68.862973 -66.664262 
L 69.791974 -66.630755 
L 70.720974 -66.604945 
L 71.649975 -66.583525 
L 72.578975 -66.569591 
L 73.507976 -66.560642 
L 74.436976 -66.559913 
L 75.365976 -66.558635 
L 76.294977 -66.564947 
L 77.223977 -66.576441 
L 78.152978 -66.590031 
L 79.081978 -66.608251 
L 80.010979 -66.631167 
L 80.939979 -66.656375 
L 81.86898 -66.689592 
L 82.79798 -66.731734 
L 83.726981 -66.774976 
L 84.655981 -66.826984 
L 85.584982 -66.882347 
L 86.513982 -66.950181 
L 87.442983 -67.025218 
L 88.371983 -67.104665 
L 89.300984 -67.194472 
L 90.229984 -67.289211 
L 91.158985 -67.391435 
L 92.087985 -67.501076 
L 93.016986 -67.617928 
L 93.945986 -67.741643 
L 94.874986 -67.894343 
L 95.803987 -68.039734 
L 96.732987 -68.189963 
L 97.661988 -68.353398 
L 98.590988 -68.523999 
L 99.519989 -68.698219 
L 100.448989 -68.87808 
L 101.37799 -69.072803 
L 102.30699 -69.271753 
L 103.235991 -69.471069 
L 104.164991 -69.675661 
L 105.093992 -69.882328 
L 106.022992 -70.100032 
L 106.951993 -70.317778 
L 107.880993 -70.547336 
L 108.809994 -70.781242 
L 109.738994 -71.035682 
L 110.667995 -71.292541 
L 111.596995 -71.554128 
L 112.525996 -71.829662 
L 113.454996 -72.127459 
L 114.383997 -72.438389 
L 115.312997 -72.772839 
L 116.241997 -73.121029 
L 117.170998 -73.480251 
L 118.099998 -73.874729 
L 119.028999 -74.282687 
L 119.957999 -74.721752 
L 120.887 -75.178599 
L 121.816 -75.661526 
L 122.745001 -76.161515 
L 123.674001 -76.68938 
L 124.603002 -77.236302 
L 125.532002 -77.807069 
L 126.461003 -78.395 
L 127.390003 -79.017536 
L 128.319004 -79.655306 
L 129.248004 -80.303021 
L 130.177005 -80.967189 
L 131.106005 -81.650125 
L 132.035006 -82.342244 
L 132.964006 -83.054932 
L 133.893007 -83.776404 
L 134.822007 -84.52661 
L 135.751007 -85.290296 
L 136.680008 -86.067253 
L 137.609008 -86.853999 
L 138.538009 -87.656441 
L 139.467009 -88.474712 
L 140.39601 -89.311345 
L 141.32501 -90.17354 
L 142.254011 -91.050876 
L 143.183011 -91.952288 
L 144.112012 -92.854191 
L 145.041012 -93.787329 
L 145.970013 -94.729616 
L 146.899013 -95.709167 
L 147.828014 -96.688066 
L 148.757014 -97.674216 
L 149.686015 -98.676477 
L 150.615015 -99.693868 
L 151.544016 -100.719934 
L 152.473016 -101.750015 
L 153.402017 -102.788326 
L 154.331017 -103.816429 
L 155.260017 -104.874046 
L 156.189018 -105.927369 
L 157.118018 -106.986866 
L 158.047019 -108.044524 
L 158.976019 -109.099869 
L 159.90502 -110.157416 
L 160.83402 -111.211155 
L 161.763021 -112.272802 
L 162.692021 -113.359883 
L 163.621022 -114.45677 
L 164.550022 -115.555824 
L 165.479023 -116.669397 
L 166.408023 -117.759795 
L 167.337024 -118.917958 
L 168.266024 -120.071015 
L 169.195025 -121.230987 
L 170.124025 -122.422415 
L 171.053026 -123.658586 
L 171.982026 -124.904469 
L 172.911027 -126.169285 
L 173.840027 -127.450397 
L 174.769027 -128.779054 
L 175.698028 -130.118996 
L 176.627028 -131.49554 
L 177.556029 -132.887787 
L 178.485029 -134.300087 
L 179.41403 -135.744471 
L 180.34303 -137.217666 
L 181.272031 -138.693969 
L 182.201031 -140.241722 
L 183.130032 -141.837513 
L 184.059032 -143.457753 
L 184.988033 -145.120566 
L 185.917033 -146.804443 
L 186.846034 -148.538211 
L 187.775034 -150.325114 
L 188.704035 -152.172062 
L 189.633035 -154.059757 
L 190.562036 -155.980635 
L 191.491036 -157.965272 
L 192.420037 -160.020655 
L 193.349037 -162.127453 
L 194.278038 -164.286188 
L 195.207038 -166.478629 
L 196.136038 -168.743314 
L 197.065039 -171.025536 
L 197.994039 -173.332837 
L 198.92304 -175.675467 
L 199.85204 -178.027496 
L 200.781041 -180.43154 
L 201.710041 -182.823715 
L 202.639042 -185.217558 
L 203.568042 -187.634207 
L 204.497043 -190.014109 
L 205.426043 -192.401592 
L 206.355044 -194.747665 
L 207.284044 -197.08323 
L 208.213045 -199.383955 
L 209.142045 -201.633342 
L 210.071046 -203.87244 
L 211.000046 -206.049972 
L 211.929047 -208.198264 
L 212.858047 -210.317721 
L 213.787048 -212.391217 
L 214.716048 -214.399381 
L 215.645048 -216.427713 
L 216.574049 -218.427164 
L 217.503049 -220.416767 
L 218.43205 -222.367763 
L 219.36105 -224.320083 
L 220.290051 -226.31222 
L 221.219051 -228.281023 
L 222.148052 -230.275327 
L 223.077052 -232.312413 
L 224.006053 -234.386818 
L 224.935053 -236.518922 
L 225.864054 -238.66616 
L 226.793054 -240.89874 
L 227.722055 -243.210008 
L 228.651055 -245.554644 
L 229.580056 -247.964538 
L 230.509056 -250.473467 
L 231.438057 -253.042773 
L 232.367057 -255.703108 
L 233.296058 -258.40065 
L 234.225058 -261.197097 
L 235.154058 -264.027036 
L 236.083059 -266.907866 
L 237.012059 -269.886879 
L 237.94106 -272.914183 
L 238.87006 -275.964707 
L 239.799061 -279.037628 
L 240.728061 -282.126435 
L 241.657062 -285.242997 
L 242.586062 -288.333407 
L 243.515063 -291.457424 
L 244.444063 -294.548191 
L 245.373064 -297.611483 
L 246.302064 -300.623231 
L 247.231065 -303.615764 
L 248.160065 -306.595635 
L 249.089066 -309.52134 
L 250.018066 -312.378481 
L 250.947067 -315.175622 
L 251.876067 -317.895539 
L 252.805068 -320.572124 
L 253.734068 -323.108404 
L 254.663068 -325.588666 
L 255.592069 -328.01605 
L 256.521069 -330.329208 
L 257.45007 -332.598966 
L 258.37907 -334.796494 
L 259.308071 -336.886126 
L 260.237071 -338.862277 
L 261.166072 -340.750437 
L 262.095072 -342.58215 
L 263.024073 -344.305545 
L 263.953073 -345.928152 
L 264.882074 -347.480983 
L 265.811074 -348.915174 
L 266.740075 -350.282768 
L 267.669075 -351.526601 
L 268.598076 -352.756064 
L 269.527076 -353.857455 
L 270.456077 -354.816812 
L 271.385077 -355.739455 
L 272.314078 -356.530176 
L 273.243078 -357.282225 
L 274.172079 -357.960528 
L 275.101079 -358.492724 
L 276.030079 -358.965686 
L 276.95908 -359.328299 
L 277.88808 -359.621522 
L 278.817081 -359.796192 
L 279.746081 -359.879091 
L 280.675082 -359.871436 
L 281.604082 -359.774475 
L 282.533083 -359.597651 
L 283.462083 -359.280878 
L 284.391084 -358.855248 
L 285.320084 -358.370966 
L 286.249085 -357.808731 
L 287.178085 -357.10203 
L 288.107086 -356.324261 
L 289.036086 -355.466434 
L 289.965087 -354.546444 
L 290.894087 -353.567336 
L 291.823088 -352.462012 
L 292.752088 -351.332958 
L 293.681089 -350.103029 
L 294.610089 -348.794232 
L 295.539089 -347.443664 
L 296.46809 -346.035782 
L 297.39709 -344.632254 
L 298.326091 -343.108322 
L 299.255091 -341.567996 
L 300.184092 -340.006942 
L 301.113092 -338.416201 
L 302.042093 -336.754898 
L 302.971093 -335.098539 
L 303.900094 -333.38307 
L 304.829094 -331.686393 
L 305.758095 -329.910026 
L 306.687095 -328.168899 
L 307.616096 -326.387027 
L 308.545096 -324.55902 
L 309.474097 -322.735819 
L 310.403097 -320.907188 
L 311.332098 -319.107013 
L 312.261098 -317.303077 
L 313.190099 -315.465312 
L 314.119099 -313.656296 
L 315.048099 -311.844454 
L 315.9771 -310.092492 
L 316.9061 -308.344655 
L 317.835101 -306.631563 
L 318.764101 -304.945606 
L 319.693102 -303.219941 
L 320.622102 -301.558806 
L 321.551103 -299.939215 
L 322.480103 -298.340723 
L 323.409104 -296.787821 
L 324.338104 -295.198787 
L 325.267105 -293.664292 
L 326.196105 -292.079887 
L 327.125106 -290.466752 
L 328.054106 -288.871074 
L 328.983107 -287.208466 
L 329.912107 -285.486177 
L 330.841108 -283.735763 
L 331.770108 -281.935856 
L 332.699109 -280.04352 
L 333.628109 -278.064281 
L 334.557109 -275.998597 
L 335.48611 -273.842354 
L 336.41511 -271.559884 
L 337.344111 -269.205539 
L 338.273111 -266.728 
L 339.202112 -264.14845 
L 340.131112 -261.415878 
L 341.060113 -258.647204 
L 341.989113 -255.793912 
L 342.918114 -252.795481 
L 343.847114 -249.75663 
L 344.776115 -246.609548 
L 345.705115 -243.381198 
L 346.634116 -240.148081 
L 347.563116 -236.86118 
L 348.492117 -233.568509 
L 349.421117 -230.234371 
L 350.350118 -226.921629 
L 351.279118 -223.635061 
L 352.208119 -220.361231 
L 353.137119 -217.075211 
L 354.06612 -213.838672 
L 354.99512 -210.67364 
L 355.92412 -207.563507 
L 356.853121 -204.477782 
L 357.782121 -201.464095 
L 358.711122 -198.517385 
L 359.640122 -195.608309 
L 360.569123 -192.774014 
L 361.498123 -190.00956 
L 362.427124 -187.307637 
L 363.356124 -184.686957 
L 364.285125 -182.102326 
L 365.214125 -179.591185 
L 366.143126 -177.13386 
L 367.072126 -174.7088 
L 368.001127 -172.326384 
L 368.930127 -169.992929 
L 369.859128 -167.708313 
L 370.788128 -165.452055 
L 371.717129 -163.241134 
L 372.646129 -161.062155 
L 373.57513 -158.92015 
L 374.50413 -156.800881 
L 375.43313 -154.73652 
L 376.362131 -152.701909 
L 377.291131 -150.716805 
L 378.220132 -148.776151 
L 379.149132 -146.915366 
L 380.078133 -145.090589 
L 381.007133 -143.320284 
L 381.936134 -141.598756 
L 382.865134 -139.94929 
L 383.794135 -138.372436 
L 384.723135 -136.864476 
L 385.652136 -135.426405 
L 386.581136 -134.050941 
L 387.510137 -132.721297 
L 388.439137 -131.493363 
L 389.368138 -130.296628 
L 390.297138 -129.148363 
L 391.226139 -128.077377 
L 392.155139 -127.025536 
L 393.08414 -126.013384 
L 394.01314 -125.011349 
L 394.94214 -124.032271 
L 395.871141 -123.090677 
L 396.800141 -122.130627 
L 397.729142 -121.178412 
L 398.658142 -120.212754 
L 399.587143 -119.215606 
L 400.516143 -118.201257 
L 401.445144 -117.152079 
L 402.374144 -116.071409 
L 403.303145 -114.950998 
L 404.232145 -113.802655 
L 405.161146 -112.601379 
L 406.090146 -111.35594 
L 407.019147 -110.080896 
L 407.948147 -108.782847 
L 408.877148 -107.457729 
L 409.806148 -106.108561 
L 410.735149 -104.750481 
L 411.664149 -103.384198 
L 412.59315 -101.997658 
L 413.52215 -100.626376 
L 414.451151 -99.272442 
L 415.380151 -97.908141 
L 416.309151 -96.581572 
L 417.238152 -95.295882 
L 418.167152 -94.041741 
L 419.096153 -92.830062 
L 420.025153 -91.656073 
L 420.954154 -90.54273 
L 421.883154 -89.473732 
L 422.812155 -88.447375 
L 423.741155 -87.49272 
L 424.670156 -86.594214 
L 425.599156 -85.747868 
L 426.528157 -84.952888 
L 427.457157 -84.195276 
L 428.386158 -83.497662 
L 429.315158 -82.83952 
L 430.244159 -82.22902 
L 431.173159 -81.65895 
L 432.10216 -81.115246 
L 433.03116 -80.598665 
L 433.960161 -80.106454 
L 434.889161 -79.645721 
L 435.818161 -79.213712 
L 436.747162 -78.800864 
L 437.676162 -78.40269 
L 438.605163 -78.013566 
L 439.534163 -77.630555 
L 440.463164 -77.244834 
L 441.392164 -76.884586 
L 442.321165 -76.516439 
L 443.250165 -76.159762 
L 444.179166 -75.802105 
L 445.108166 -75.454073 
L 446.037167 -75.102272 
L 446.966167 -74.751123 
L 447.895168 -74.401147 
L 448.824168 -74.063631 
L 449.753169 -73.72252 
L 450.682169 -73.393241 
L 451.61117 -73.070427 
L 452.54017 -72.762659 
L 453.469171 -72.461701 
L 454.398171 -72.166338 
L 455.327171 -71.880749 
L 456.256172 -71.608219 
L 457.185172 -71.338764 
L 458.114173 -71.084678 
L 459.043173 -70.84536 
L 459.972174 -70.610193 
L 460.901174 -70.398383 
L 461.830175 -70.194519 
L 462.759175 -70.001511 
L 463.688176 -69.818898 
L 464.617176 -69.646105 
L 465.546177 -69.48496 
L 466.475177 -69.321622 
L 467.404178 -69.181719 
L 468.333178 -69.043689 
L 469.262179 -68.914347 
L 470.191179 -68.789936 
L 471.12018 -68.664936 
L 472.04918 -68.550042 
L 472.978181 -68.435923 
L 473.907181 -68.322859 
L 474.836181 -68.21609 
L 475.765182 -68.109673 
L 476.694182 -68.009092 
L 477.623183 -67.911144 
L 478.552183 -67.813443 
L 479.481184 -67.724277 
L 480.410184 -67.637628 
L 481.339185 -67.551455 
L 482.268185 -67.466801 
L 483.197186 -67.387078 
L 484.126186 -67.317496 
L 485.055187 -67.24959 
L 485.984187 -67.189361 
L 486.913188 -67.137162 
L 487.842188 -67.090911 
L 488.771189 -67.047718 
L 489.700189 -67.010165 
L 490.62919 -66.978218 
L 491.55819 -66.946726 
L 492.487191 -66.926612 
L 493.416191 -66.911133 
L 494.345192 -66.899922 
L 495.274192 -66.890041 
L 496.203192 -66.884085 
L 497.132193 -66.883919 
L 498.061193 -66.883333 
L 498.990194 -66.887435 
L 499.919194 -66.892562 
L 500.848195 -66.898314 
L 501.777195 -66.904329 
L 502.706196 -66.910296 
L 503.635196 -66.915957 
L 504.564197 -66.921113 
L 505.493197 -66.925616 
L 506.422198 -66.929365 
L 507.351198 -66.938764 
L 508.280199 -66.940173 
L 509.209199 -66.939233 
L 510.1382 -66.943985 
L 511.0672 -66.948122 
L 511.996201 -66.951783 
L 512.925201 -66.955083 
L 513.854202 -66.958108 
L 514.783202 -66.960913 
L 515.712202 -66.963521 
L 516.641203 -66.96593 
L 517.570203 -66.96561 
L 518.499204 -66.968102 
L 519.428204 -66.97015 
L 520.357205 -66.971724 
L 521.286205 -66.972793 
L 522.215206 -66.973335 
L 522.215206 -65.860909 
L 522.215206 -65.860909 
L 521.286205 -65.860909 
L 520.357205 -65.860909 
L 519.428204 -65.860909 
L 518.499204 -65.860909 
L 517.570203 -65.860909 
L 516.641203 -65.860909 
L 515.712202 -65.860909 
L 514.783202 -65.860909 
L 513.854202 -65.860909 
L 512.925201 -65.860909 
L 511.996201 -65.860909 
L 511.0672 -65.860909 
L 510.1382 -65.860909 
L 509.209199 -65.860909 
L 508.280199 -65.860909 
L 507.351198 -65.860909 
L 506.422198 -65.860909 
L 505.493197 -65.860909 
L 504.564197 -65.860909 
L 503.635196 -65.860909 
L 502.706196 -65.860909 
L 501.777195 -65.860909 
L 500.848195 -65.860909 
L 499.919194 -65.860909 
L 498.990194 -65.860909 
L 498.061193 -65.860909 
L 497.132193 -65.860909 
L 496.203192 -65.860909 
L 495.274192 -65.860909 
L 494.345192 -65.860909 
L 493.416191 -65.860909 
L 492.487191 -65.860909 
L 491.55819 -65.860909 
L 490.62919 -65.860909 
L 489.700189 -65.860909 
L 488.771189 -65.860909 
L 487.842188 -65.860909 
L 486.913188 -65.860909 
L 485.984187 -65.860909 
L 485.055187 -65.860909 
L 484.126186 -65.860909 
L 483.197186 -65.860909 
L 482.268185 -65.860909 
L 481.339185 -65.860909 
L 480.410184 -65.860909 
L 479.481184 -65.860909 
L 478.552183 -65.860909 
L 477.623183 -65.860909 
L 476.694182 -65.860909 
L 475.765182 -65.860909 
L 474.836181 -65.860909 
L 473.907181 -65.860909 
L 472.978181 -65.860909 
L 472.04918 -65.860909 
L 471.12018 -65.860909 
L 470.191179 -65.860909 
L 469.262179 -65.860909 
L 468.333178 -65.860909 
L 467.404178 -65.860909 
L 466.475177 -65.860909 
L 465.546177 -65.860909 
L 464.617176 -65.860909 
L 463.688176 -65.860909 
L 462.759175 -65.860909 
L 461.830175 -65.860909 
L 460.901174 -65.860909 
L 459.972174 -65.860909 
L 459.043173 -65.860909 
L 458.114173 -65.860909 
L 457.185172 -65.860909 
L 456.256172 -65.860909 
L 455.327171 -65.860909 
L 454.398171 -65.860909 
L 453.469171 -65.860909 
L 452.54017 -65.860909 
L 451.61117 -65.860909 
L 450.682169 -65.860909 
L 449.753169 -65.860909 
L 448.824168 -65.860909 
L 447.895168 -65.860909 
L 446.966167 -65.860909 
L 446.037167 -65.860909 
L 445.108166 -65.860909 
L 444.179166 -65.860909 
L 443.250165 -65.860909 
L 442.321165 -65.860909 
L 441.392164 -65.860909 
L 440.463164 -65.860909 
L 439.534163 -65.860909 
L 438.605163 -65.860909 
L 437.676162 -65.860909 
L 436.747162 -65.860909 
L 435.818161 -65.860909 
L 434.889161 -65.860909 
L 433.960161 -65.860909 
L 433.03116 -65.860909 
L 432.10216 -65.860909 
L 431.173159 -65.860909 
L 430.244159 -65.860909 
L 429.315158 -65.860909 
L 428.386158 -65.860909 
L 427.457157 -65.860909 
L 426.528157 -65.860909 
L 425.599156 -65.860909 
L 424.670156 -65.860909 
L 423.741155 -65.860909 
L 422.812155 -65.860909 
L 421.883154 -65.860909 
L 420.954154 -65.860909 
L 420.025153 -65.860909 
L 419.096153 -65.860909 
L 418.167152 -65.860909 
L 417.238152 -65.860909 
L 416.309151 -65.860909 
L 415.380151 -65.860909 
L 414.451151 -65.860909 
L 413.52215 -65.860909 
L 412.59315 -65.860909 
L 411.664149 -65.860909 
L 410.735149 -65.860909 
L 409.806148 -65.860909 
L 408.877148 -65.860909 
L 407.948147 -65.860909 
L 407.019147 -65.860909 
L 406.090146 -65.860909 
L 405.161146 -65.860909 
L 404.232145 -65.860909 
L 403.303145 -65.860909 
L 402.374144 -65.860909 
L 401.445144 -65.860909 
L 400.516143 -65.860909 
L 399.587143 -65.860909 
L 398.658142 -65.860909 
L 397.729142 -65.860909 
L 396.800141 -65.860909 
L 395.871141 -65.860909 
L 394.94214 -65.860909 
L 394.01314 -65.860909 
L 393.08414 -65.860909 
L 392.155139 -65.860909 
L 391.226139 -65.860909 
L 390.297138 -65.860909 
L 389.368138 -65.860909 
L 388.439137 -65.860909 
L 387.510137 -65.860909 
L 386.581136 -65.860909 
L 385.652136 -65.860909 
L 384.723135 -65.860909 
L 383.794135 -65.860909 
L 382.865134 -65.860909 
L 381.936134 -65.860909 
L 381.007133 -65.860909 
L 380.078133 -65.860909 
L 379.149132 -65.860909 
L 378.220132 -65.860909 
L 377.291131 -65.860909 
L 376.362131 -65.860909 
L 375.43313 -65.860909 
L 374.50413 -65.860909 
L 373.57513 -65.860909 
L 372.646129 -65.860909 
L 371.717129 -65.860909 
L 370.788128 -65.860909 
L 369.859128 -65.860909 
L 368.930127 -65.860909 
L 368.001127 -65.860909 
L 367.072126 -65.860909 
L 366.143126 -65.860909 
L 365.214125 -65.860909 
L 364.285125 -65.860909 
L 363.356124 -65.860909 
L 362.427124 -65.860909 
L 361.498123 -65.860909 
L 360.569123 -65.860909 
L 359.640122 -65.860909 
L 358.711122 -65.860909 
L 357.782121 -65.860909 
L 356.853121 -65.860909 
L 355.92412 -65.860909 
L 354.99512 -65.860909 
L 354.06612 -65.860909 
L 353.137119 -65.860909 
L 352.208119 -65.860909 
L 351.279118 -65.860909 
L 350.350118 -65.860909 
L 349.421117 -65.860909 
L 348.492117 -65.860909 
L 347.563116 -65.860909 
L 346.634116 -65.860909 
L 345.705115 -65.860909 
L 344.776115 -65.860909 
L 343.847114 -65.860909 
L 342.918114 -65.860909 
L 341.989113 -65.860909 
L 341.060113 -65.860909 
L 340.131112 -65.860909 
L 339.202112 -65.860909 
L 338.273111 -65.860909 
L 337.344111 -65.860909 
L 336.41511 -65.860909 
L 335.48611 -65.860909 
L 334.557109 -65.860909 
L 333.628109 -65.860909 
L 332.699109 -65.860909 
L 331.770108 -65.860909 
L 330.841108 -65.860909 
L 329.912107 -65.860909 
L 328.983107 -65.860909 
L 328.054106 -65.860909 
L 327.125106 -65.860909 
L 326.196105 -65.860909 
L 325.267105 -65.860909 
L 324.338104 -65.860909 
L 323.409104 -65.860909 
L 322.480103 -65.860909 
L 321.551103 -65.860909 
L 320.622102 -65.860909 
L 319.693102 -65.860909 
L 318.764101 -65.860909 
L 317.835101 -65.860909 
L 316.9061 -65.860909 
L 315.9771 -65.860909 
L 315.048099 -65.860909 
L 314.119099 -65.860909 
L 313.190099 -65.860909 
L 312.261098 -65.860909 
L 311.332098 -65.860909 
L 310.403097 -65.860909 
L 309.474097 -65.860909 
L 308.545096 -65.860909 
L 307.616096 -65.860909 
L 306.687095 -65.860909 
L 305.758095 -65.860909 
L 304.829094 -65.860909 
L 303.900094 -65.860909 
L 302.971093 -65.860909 
L 302.042093 -65.860909 
L 301.113092 -65.860909 
L 300.184092 -65.860909 
L 299.255091 -65.860909 
L 298.326091 -65.860909 
L 297.39709 -65.860909 
L 296.46809 -65.860909 
L 295.539089 -65.860909 
L 294.610089 -65.860909 
L 293.681089 -65.860909 
L 292.752088 -65.860909 
L 291.823088 -65.860909 
L 290.894087 -65.860909 
L 289.965087 -65.860909 
L 289.036086 -65.860909 
L 288.107086 -65.860909 
L 287.178085 -65.860909 
L 286.249085 -65.860909 
L 285.320084 -65.860909 
L 284.391084 -65.860909 
L 283.462083 -65.860909 
L 282.533083 -65.860909 
L 281.604082 -65.860909 
L 280.675082 -65.860909 
L 279.746081 -65.860909 
L 278.817081 -65.860909 
L 277.88808 -65.860909 
L 276.95908 -65.860909 
L 276.030079 -65.860909 
L 275.101079 -65.860909 
L 274.172079 -65.860909 
L 273.243078 -65.860909 
L 272.314078 -65.860909 
L 271.385077 -65.860909 
L 270.456077 -65.860909 
L 269.527076 -65.860909 
L 268.598076 -65.860909 
L 267.669075 -65.860909 
L 266.740075 -65.860909 
L 265.811074 -65.860909 
L 264.882074 -65.860909 
L 263.953073 -65.860909 
L 263.024073 -65.860909 
L 262.095072 -65.860909 
L 261.166072 -65.860909 
L 260.237071 -65.860909 
L 259.308071 -65.860909 
L 258.37907 -65.860909 
L 257.45007 -65.860909 
L 256.521069 -65.860909 
L 255.592069 -65.860909 
L 254.663068 -65.860909 
L 253.734068 -65.860909 
L 252.805068 -65.860909 
L 251.876067 -65.860909 
L 250.947067 -65.860909 
L 250.018066 -65.860909 
L 249.089066 -65.860909 
L 248.160065 -65.860909 
L 247.231065 -65.860909 
L 246.302064 -65.860909 
L 245.373064 -65.860909 
L 244.444063 -65.860909 
L 243.515063 -65.860909 
L 242.586062 -65.860909 
L 241.657062 -65.860909 
L 240.728061 -65.860909 
L 239.799061 -65.860909 
L 238.87006 -65.860909 
L 237.94106 -65.860909 
L 237.012059 -65.860909 
L 236.083059 -65.860909 
L 235.154058 -65.860909 
L 234.225058 -65.860909 
L 233.296058 -65.860909 
L 232.367057 -65.860909 
L 231.438057 -65.860909 
L 230.509056 -65.860909 
L 229.580056 -65.860909 
L 228.651055 -65.860909 
L 227.722055 -65.860909 
L 226.793054 -65.860909 
L 225.864054 -65.860909 
L 224.935053 -65.860909 
L 224.006053 -65.860909 
L 223.077052 -65.860909 
L 222.148052 -65.860909 
L 221.219051 -65.860909 
L 220.290051 -65.860909 
L 219.36105 -65.860909 
L 218.43205 -65.860909 
L 217.503049 -65.860909 
L 216.574049 -65.860909 
L 215.645048 -65.860909 
L 214.716048 -65.860909 
L 213.787048 -65.860909 
L 212.858047 -65.860909 
L 211.929047 -65.860909 
L 211.000046 -65.860909 
L 210.071046 -65.860909 
L 209.142045 -65.860909 
L 208.213045 -65.860909 
L 207.284044 -65.860909 
L 206.355044 -65.860909 
L 205.426043 -65.860909 
L 204.497043 -65.860909 
L 203.568042 -65.860909 
L 202.639042 -65.860909 
L 201.710041 -65.860909 
L 200.781041 -65.860909 
L 199.85204 -65.860909 
L 198.92304 -65.860909 
L 197.994039 -65.860909 
L 197.065039 -65.860909 
L 196.136038 -65.860909 
L 195.207038 -65.860909 
L 194.278038 -65.860909 
L 193.349037 -65.860909 
L 192.420037 -65.860909 
L 191.491036 -65.860909 
L 190.562036 -65.860909 
L 189.633035 -65.860909 
L 188.704035 -65.860909 
L 187.775034 -65.860909 
L 186.846034 -65.860909 
L 185.917033 -65.860909 
L 184.988033 -65.860909 
L 184.059032 -65.860909 
L 183.130032 -65.860909 
L 182.201031 -65.860909 
L 181.272031 -65.860909 
L 180.34303 -65.860909 
L 179.41403 -65.860909 
L 178.485029 -65.860909 
L 177.556029 -65.860909 
L 176.627028 -65.860909 
L 175.698028 -65.860909 
L 174.769027 -65.860909 
L 173.840027 -65.860909 
L 172.911027 -65.860909 
L 171.982026 -65.860909 
L 171.053026 -65.860909 
L 170.124025 -65.860909 
L 169.195025 -65.860909 
L 168.266024 -65.860909 
L 167.337024 -65.860909 
L 166.408023 -65.860909 
L 165.479023 -65.860909 
L 164.550022 -65.860909 
L 163.621022 -65.860909 
L 162.692021 -65.860909 
L 161.763021 -65.860909 
L 160.83402 -65.860909 
L 159.90502 -65.860909 
L 158.976019 -65.860909 
L 158.047019 -65.860909 
L 157.118018 -65.860909 
L 156.189018 -65.860909 
L 155.260017 -65.860909 
L 154.331017 -65.860909 
L 153.402017 -65.860909 
L 152.473016 -65.860909 
L 151.544016 -65.860909 
L 150.615015 -65.860909 
L 149.686015 -65.860909 
L 148.757014 -65.860909 
L 147.828014 -65.860909 
L 146.899013 -65.860909 
L 145.970013 -65.860909 
L 145.041012 -65.860909 
L 144.112012 -65.860909 
L 143.183011 -65.860909 
L 142.254011 -65.860909 
L 141.32501 -65.860909 
L 140.39601 -65.860909 
L 139.467009 -65.860909 
L 138.538009 -65.860909 
L 137.609008 -65.860909 
L 136.680008 -65.860909 
L 135.751007 -65.860909 
L 134.822007 -65.860909 
L 133.893007 -65.860909 
L 132.964006 -65.860909 
L 132.035006 -65.860909 
L 131.106005 -65.860909 
L 130.177005 -65.860909 
L 129.248004 -65.860909 
L 128.319004 -65.860909 
L 127.390003 -65.860909 
L 126.461003 -65.860909 
L 125.532002 -65.860909 
L 124.603002 -65.860909 
L 123.674001 -65.860909 
L 122.745001 -65.860909 
L 121.816 -65.860909 
L 120.887 -65.860909 
L 119.957999 -65.860909 
L 119.028999 -65.860909 
L 118.099998 -65.860909 
L 117.170998 -65.860909 
L 116.241997 -65.860909 
L 115.312997 -65.860909 
L 114.383997 -65.860909 
L 113.454996 -65.860909 
L 112.525996 -65.860909 
L 111.596995 -65.860909 
L 110.667995 -65.860909 
L 109.738994 -65.860909 
L 108.809994 -65.860909 
L 107.880993 -65.860909 
L 106.951993 -65.860909 
L 106.022992 -65.860909 
L 105.093992 -65.860909 
L 104.164991 -65.860909 
L 103.235991 -65.860909 
L 102.30699 -65.860909 
L 101.37799 -65.860909 
L 100.448989 -65.860909 
L 99.519989 -65.860909 
L 98.590988 -65.860909 
L 97.661988 -65.860909 
L 96.732987 -65.860909 
L 95.803987 -65.860909 
L 94.874986 -65.860909 
L 93.945986 -65.860909 
L 93.016986 -65.860909 
L 92.087985 -65.860909 
L 91.158985 -65.860909 
L 90.229984 -65.860909 
L 89.300984 -65.860909 
L 88.371983 -65.860909 
L 87.442983 -65.860909 
L 86.513982 -65.860909 
L 85.584982 -65.860909 
L 84.655981 -65.860909 
L 83.726981 -65.860909 
L 82.79798 -65.860909 
L 81.86898 -65.860909 
L 80.939979 -65.860909 
L 80.010979 -65.860909 
L 79.081978 -65.860909 
L 78.152978 -65.860909 
L 77.223977 -65.860909 
L 76.294977 -65.860909 
L 75.365976 -65.860909 
L 74.436976 -65.860909 
L 73.507976 -65.860909 
L 72.578975 -65.860909 
L 71.649975 -65.860909 
L 70.720974 -65.860909 
L 69.791974 -65.860909 
L 68.862973 -65.860909 
L 67.933973 -65.860909 
L 67.004972 -65.860909 
L 66.075972 -65.860909 
L 65.146971 -65.860909 
L 64.217971 -65.860909 
L 63.28897 -65.860909 
L 62.35997 -65.860909 
L 61.430969 -65.860909 
L 60.501969 -65.860909 
L 59.572968 -65.860909 
L 58.643968 -65.860909 
L 57.714967 -65.860909 
L 56.785967 -65.860909 
L 55.856966 -65.860909 
L 54.927966 -65.860909 
L 53.998966 -65.860909 
L 53.069965 -65.860909 
L 52.140965 -65.860909 
L 51.211964 -65.860909 
L 50.282964 -65.860909 
L 49.353963 -65.860909 
L 48.424963 -65.860909 
L 47.495962 -65.860909 
z
" style="stroke: #7570b3; stroke-opacity: 0.6; stroke-width: 0.3"/>
    </defs>
    <g clip-path="url(#pd92a5be96e)">
     <use xlink:href="#m7f84db9f6c" x="0" y="432" style="fill: #7570b3; fill-opacity: 0.6; stroke: #7570b3; stroke-opacity: 0.6; stroke-width: 0.3"/>
    </g>
   </g>
   <g id="line2d_19">
    <path d="M 47.495962 364.205232 
L 52.140965 364.328181 
L 58.643968 364.736898 
L 67.933973 365.300075 
L 74.436976 365.440087 
L 80.939979 365.343625 
L 86.513982 365.049819 
L 92.087985 364.498924 
L 96.732987 363.810037 
L 102.30699 362.728247 
L 107.880993 361.452664 
L 112.525996 360.170338 
L 116.241997 358.878971 
L 119.028999 357.717313 
L 122.745001 355.838485 
L 126.461003 353.605 
L 130.177005 351.032811 
L 133.893007 348.223596 
L 138.538009 344.343559 
L 142.254011 340.949124 
L 146.899013 336.290833 
L 151.544016 331.280066 
L 158.976019 322.900131 
L 165.479023 315.330603 
L 168.266024 311.928985 
L 171.053026 308.341414 
L 174.769027 303.220946 
L 178.485029 297.699913 
L 182.201031 291.758278 
L 185.917033 285.195557 
L 188.704035 279.827938 
L 191.491036 274.034728 
L 194.278038 267.713812 
L 197.994039 258.667163 
L 204.497043 241.985891 
L 208.213045 232.616045 
L 211.929047 223.801736 
L 215.645048 215.572287 
L 225.864054 193.33384 
L 228.651055 186.445356 
L 231.438057 178.957227 
L 234.225058 170.802903 
L 237.012059 162.113121 
L 242.586062 143.666593 
L 247.231065 128.384236 
L 250.947067 116.824378 
L 253.734068 108.891596 
L 256.521069 101.670792 
L 259.308071 95.113874 
L 262.095072 89.41785 
L 263.953073 86.071848 
L 265.811074 83.084826 
L 267.669075 80.473399 
L 269.527076 78.142545 
L 271.385077 76.260545 
L 273.243078 74.717775 
L 274.172079 74.039472 
L 276.030079 73.034314 
L 277.88808 72.378478 
L 279.746081 72.120909 
L 281.604082 72.225525 
L 282.533083 72.402349 
L 284.391084 73.144752 
L 286.249085 74.191269 
L 288.107086 75.675739 
L 289.965087 77.453556 
L 291.823088 79.537988 
L 293.681089 81.896971 
L 296.46809 85.964218 
L 298.326091 88.891678 
L 302.042093 95.245102 
L 305.758095 102.089974 
L 309.474097 109.264181 
L 316.9061 123.655345 
L 321.551103 132.060785 
L 330.841108 148.264237 
L 332.699109 151.95648 
L 334.557109 156.001403 
L 336.41511 160.440116 
L 338.273111 165.272 
L 340.131112 170.584122 
L 342.918114 179.204519 
L 345.705115 188.618802 
L 352.208119 211.638769 
L 355.92412 224.436493 
L 358.711122 233.482615 
L 361.498123 241.99044 
L 364.285125 249.897674 
L 368.001127 259.673616 
L 371.717129 268.758866 
L 375.43313 277.26348 
L 378.220132 283.223849 
L 381.007133 288.679716 
L 383.794135 293.627564 
L 386.581136 297.949059 
L 388.439137 300.506637 
L 391.226139 303.922623 
L 394.94214 307.967729 
L 399.587143 312.784394 
L 402.374144 315.928591 
L 405.161146 319.398621 
L 408.877148 324.542271 
L 418.167152 337.958259 
L 420.954154 341.45727 
L 423.741155 344.50728 
L 425.599156 346.252132 
L 428.386158 348.502338 
L 431.173159 350.34105 
L 433.960161 351.893546 
L 436.747162 353.199136 
L 442.321165 355.483561 
L 450.682169 358.606759 
L 455.327171 360.119251 
L 459.972174 361.389807 
L 464.617176 362.353895 
L 470.191179 363.210064 
L 476.694182 363.990908 
L 484.126186 364.682504 
L 489.700189 364.989835 
L 496.203192 365.115915 
L 522.215206 365.026665 
L 522.215206 365.026665 
" clip-path="url(#pd92a5be96e)" style="fill: none; stroke: #7570b3; stroke-width: 2; stroke-linecap: round"/>
   </g>
   <g id="line2d_20">
    <path d="M 177.536038 359.964709 
L 380.752494 359.964709 
" clip-path="url(#pd92a5be96e)" style="fill: none; stroke: #000000; stroke-width: 3.5"/>
   </g>
   <g id="patch_3">
    <path d="M 23.76 380.84 
L 545.951168 380.84 
" style="fill: none; stroke: #333333; stroke-width: 1.5; stroke-linejoin: miter; stroke-linecap: square"/>
   </g>
   <g id="text_10">
    <text style="font-size: 22px; font-family: 'DejaVu Serif', 'Times New Roman', serif; text-anchor: end; fill: #262626" x="177.536038" y="344.528755" transform="rotate(-0 177.536038 344.528755)">-0.26 </text>
   </g>
   <g id="text_11">
    <text style="font-size: 22px; font-family: 'DejaVu Serif', 'Times New Roman', serif; text-anchor: start; fill: #262626" x="380.752494" y="344.528755" transform="rotate(-0 380.752494 344.528755)"> -0.2</text>
   </g>
   <g id="text_12">
    <text style="font-size: 22px; font-family: 'DejaVu Serif', 'Times New Roman', serif; text-anchor: middle; fill: #262626" x="279.144266" y="273.523364" transform="rotate(-0 279.144266 273.523364)">90% HDI</text>
   </g>
   <g id="text_13">
    <text style="font-size: 22px; font-family: 'DejaVu Serif', 'Times New Roman', serif; text-anchor: middle; fill: #262626" x="283.45239" y="119.163818" transform="rotate(-0 283.45239 119.163818)">mean=-0.23</text>
   </g>
   <g id="text_14">
    <!-- $x_2^2x_3$ -->
    <g style="fill: #262626" transform="translate(254.335584 49.58)">
     <text>
      <tspan x="0" y="-0.734375" style="font-style: oblique; font-size: 28px; font-family: 'DejaVu Sans'; fill: #262626">x</tspan>
      <tspan x="31.056576" y="-0.734375" style="font-style: oblique; font-size: 28px; font-family: 'DejaVu Sans'; fill: #262626">x</tspan>
      <tspan x="16.570312" y="6.921875" style="font-size: 19.6px; font-family: 'DejaVu Sans'; fill: #262626">2</tspan>
      <tspan x="17.820833" y="-11.453125" style="font-size: 19.6px; font-family: 'DejaVu Sans'; fill: #262626">2</tspan>
      <tspan x="47.626888" y="3.859375" style="font-size: 19.6px; font-family: 'DejaVu Sans'; fill: #262626">3</tspan>
     </text>
    </g>
   </g>
  </g>
 </g>
 <defs>
  <clipPath id="pd92a5be96e">
   <rect x="23.76" y="57.42" width="522.191168" height="323.42"/>
  </clipPath>
 </defs>
</svg>
