<?xml version="1.0" encoding="utf-8" standalone="no"?>
<!DOCTYPE svg PUBLIC "-//W3C//DTD SVG 1.1//EN"
  "http://www.w3.org/Graphics/SVG/1.1/DTD/svg11.dtd">
<svg xmlns:xlink="http://www.w3.org/1999/xlink" width="576pt" height="432pt" viewBox="0 0 576 432" xmlns="http://www.w3.org/2000/svg" version="1.1">
 <metadata>
  <rdf:RDF xmlns:dc="http://purl.org/dc/elements/1.1/" xmlns:cc="http://creativecommons.org/ns#" xmlns:rdf="http://www.w3.org/1999/02/22-rdf-syntax-ns#">
   <cc:Work>
    <dc:type rdf:resource="http://purl.org/dc/dcmitype/StillImage"/>
    <dc:date>2025-09-22T22:41:52.655313</dc:date>
    <dc:format>image/svg+xml</dc:format>
    <dc:creator>
     <cc:Agent>
      <dc:title>Matplotlib v3.10.0, https://matplotlib.org/</dc:title>
     </cc:Agent>
    </dc:creator>
   </cc:Work>
  </rdf:RDF>
 </metadata>
 <defs>
  <style type="text/css">*{stroke-linejoin: round; stroke-linecap: butt}</style>
 </defs>
 <g id="figure_1">
  <g id="patch_1">
   <path d="M 0 432 
L 576 432 
L 576 0 
L 0 0 
L 0 432 
z
" style="fill: none; opacity: 0"/>
  </g>
  <g id="axes_1">
   <g id="patch_2">
    <path d="M 23.76 380.84 
L 534.813223 380.84 
L 534.813223 57.42 
L 23.76 57.42 
L 23.76 380.84 
z
" style="fill: none"/>
   </g>
   <g id="matplotlib.axis_1">
    <g id="xtick_1">
     <g id="line2d_1">
      <path d="M 70.730742 380.84 
L 70.730742 57.42 
" clip-path="url(#p3d7680577d)" style="fill: none; stroke: #ffffff; stroke-opacity: 0.4; stroke-linecap: round"/>
     </g>
     <g id="line2d_2">
      <defs>
       <path id="m2a0b9b5717" d="M 0 0 
L 0 3 
" style="stroke: #808080"/>
      </defs>
      <g>
       <use xlink:href="#m2a0b9b5717" x="70.730742" y="380.84" style="fill: #808080; stroke: #808080"/>
      </g>
     </g>
     <g id="text_1">
      <text style="font-size: 18px; font-family: 'DejaVu Serif', 'Times New Roman', serif; text-anchor: middle; fill: #262626" x="70.730742" y="404.517187" transform="rotate(-0 70.730742 404.517187)">−1.06</text>
     </g>
    </g>
    <g id="xtick_2">
     <g id="line2d_3">
      <path d="M 146.14244 380.84 
L 146.14244 57.42 
" clip-path="url(#p3d7680577d)" style="fill: none; stroke: #ffffff; stroke-opacity: 0.4; stroke-linecap: round"/>
     </g>
     <g id="line2d_4">
      <g>
       <use xlink:href="#m2a0b9b5717" x="146.14244" y="380.84" style="fill: #808080; stroke: #808080"/>
      </g>
     </g>
     <g id="text_2">
      <text style="font-size: 18px; font-family: 'DejaVu Serif', 'Times New Roman', serif; text-anchor: middle; fill: #262626" x="146.14244" y="404.517187" transform="rotate(-0 146.14244 404.517187)">−1.04</text>
     </g>
    </g>
    <g id="xtick_3">
     <g id="line2d_5">
      <path d="M 221.554138 380.84 
L 221.554138 57.42 
" clip-path="url(#p3d7680577d)" style="fill: none; stroke: #ffffff; stroke-opacity: 0.4; stroke-linecap: round"/>
     </g>
     <g id="line2d_6">
      <g>
       <use xlink:href="#m2a0b9b5717" x="221.554138" y="380.84" style="fill: #808080; stroke: #808080"/>
      </g>
     </g>
     <g id="text_3">
      <text style="font-size: 18px; font-family: 'DejaVu Serif', 'Times New Roman', serif; text-anchor: middle; fill: #262626" x="221.554138" y="404.517187" transform="rotate(-0 221.554138 404.517187)">−1.02</text>
     </g>
    </g>
    <g id="xtick_4">
     <g id="line2d_7">
      <path d="M 296.965837 380.84 
L 296.965837 57.42 
" clip-path="url(#p3d7680577d)" style="fill: none; stroke: #ffffff; stroke-opacity: 0.4; stroke-linecap: round"/>
     </g>
     <g id="line2d_8">
      <g>
       <use xlink:href="#m2a0b9b5717" x="296.965837" y="380.84" style="fill: #808080; stroke: #808080"/>
      </g>
     </g>
     <g id="text_4">
      <text style="font-size: 18px; font-family: 'DejaVu Serif', 'Times New Roman', serif; text-anchor: middle; fill: #262626" x="296.965837" y="404.517187" transform="rotate(-0 296.965837 404.517187)">−1.00</text>
     </g>
    </g>
    <g id="xtick_5">
     <g id="line2d_9">
      <path d="M 372.377535 380.84 
L 372.377535 57.42 
" clip-path="url(#p3d7680577d)" style="fill: none; stroke: #ffffff; stroke-opacity: 0.4; stroke-linecap: round"/>
     </g>
     <g id="line2d_10">
      <g>
       <use xlink:href="#m2a0b9b5717" x="372.377535" y="380.84" style="fill: #808080; stroke: #808080"/>
      </g>
     </g>
     <g id="text_5">
      <text style="font-size: 18px; font-family: 'DejaVu Serif', 'Times New Roman', serif; text-anchor: middle; fill: #262626" x="372.377535" y="404.517187" transform="rotate(-0 372.377535 404.517187)">−0.98</text>
     </g>
    </g>
    <g id="xtick_6">
     <g id="line2d_11">
      <path d="M 447.789233 380.84 
L 447.789233 57.42 
" clip-path="url(#p3d7680577d)" style="fill: none; stroke: #ffffff; stroke-opacity: 0.4; stroke-linecap: round"/>
     </g>
     <g id="line2d_12">
      <g>
       <use xlink:href="#m2a0b9b5717" x="447.789233" y="380.84" style="fill: #808080; stroke: #808080"/>
      </g>
     </g>
     <g id="text_6">
      <text style="font-size: 18px; font-family: 'DejaVu Serif', 'Times New Roman', serif; text-anchor: middle; fill: #262626" x="447.789233" y="404.517187" transform="rotate(-0 447.789233 404.517187)">−0.96</text>
     </g>
    </g>
    <g id="xtick_7">
     <g id="line2d_13">
      <path d="M 523.200932 380.84 
L 523.200932 57.42 
" clip-path="url(#p3d7680577d)" style="fill: none; stroke: #ffffff; stroke-opacity: 0.4; stroke-linecap: round"/>
     </g>
     <g id="line2d_14">
      <g>
       <use xlink:href="#m2a0b9b5717" x="523.200932" y="380.84" style="fill: #808080; stroke: #808080"/>
      </g>
     </g>
     <g id="text_7">
      <text style="font-size: 18px; font-family: 'DejaVu Serif', 'Times New Roman', serif; text-anchor: middle; fill: #262626" x="523.200932" y="404.517187" transform="rotate(-0 523.200932 404.517187)">−0.94</text>
     </g>
    </g>
   </g>
   <g id="matplotlib.axis_2"/>
   <g id="FillBetweenPolyCollection_1">
    <defs>
     <path id="mde658e3f26" d="M 46.989692 -65.860909 
L 46.989692 -68.073738 
L 47.898878 -68.070504 
L 48.808063 -68.067315 
L 49.717249 -68.058451 
L 50.626434 -68.049913 
L 51.53562 -68.036053 
L 52.444806 -68.019692 
L 53.353991 -68.001027 
L 54.263177 -67.980272 
L 55.172362 -67.960909 
L 56.081548 -67.940652 
L 56.990734 -67.919888 
L 57.899919 -67.895776 
L 58.809105 -67.871276 
L 59.71829 -67.849952 
L 60.627476 -67.829587 
L 61.536661 -67.807374 
L 62.445847 -67.792798 
L 63.355033 -67.769335 
L 64.264218 -67.760735 
L 65.173404 -67.752572 
L 66.082589 -67.748024 
L 66.991775 -67.747631 
L 67.900961 -67.751945 
L 68.810146 -67.758277 
L 69.719332 -67.769732 
L 70.628517 -67.786755 
L 71.537703 -67.813036 
L 72.446889 -67.846466 
L 73.356074 -67.887585 
L 74.26526 -67.933676 
L 75.174445 -67.991043 
L 76.083631 -68.057527 
L 76.992817 -68.14335 
L 77.902002 -68.225708 
L 78.811188 -68.321323 
L 79.720373 -68.427232 
L 80.629559 -68.543652 
L 81.538745 -68.67722 
L 82.44793 -68.816421 
L 83.357116 -68.967135 
L 84.266301 -69.132504 
L 85.175487 -69.309194 
L 86.084673 -69.503527 
L 86.993858 -69.706913 
L 87.903044 -69.918522 
L 88.812229 -70.14058 
L 89.721415 -70.366677 
L 90.630601 -70.624654 
L 91.539786 -70.88881 
L 92.448972 -71.157078 
L 93.358157 -71.431011 
L 94.267343 -71.712633 
L 95.176529 -72.004557 
L 96.085714 -72.300357 
L 96.9949 -72.602668 
L 97.904085 -72.917418 
L 98.813271 -73.231918 
L 99.722457 -73.554276 
L 100.631642 -73.881581 
L 101.540828 -74.216905 
L 102.450013 -74.558231 
L 103.359199 -74.915474 
L 104.268384 -75.27098 
L 105.17757 -75.626651 
L 106.086756 -76.010881 
L 106.995941 -76.380371 
L 107.905127 -76.763285 
L 108.814312 -77.158334 
L 109.723498 -77.563795 
L 110.632684 -77.974142 
L 111.541869 -78.411691 
L 112.451055 -78.84503 
L 113.36024 -79.303704 
L 114.269426 -79.771656 
L 115.178612 -80.254928 
L 116.087797 -80.760665 
L 116.996983 -81.275768 
L 117.906168 -81.811737 
L 118.815354 -82.381239 
L 119.72454 -82.97171 
L 120.633725 -83.573957 
L 121.542911 -84.186259 
L 122.452096 -84.82913 
L 123.361282 -85.482038 
L 124.270468 -86.165238 
L 125.179653 -86.861216 
L 126.088839 -87.577742 
L 126.998024 -88.314619 
L 127.90721 -89.06516 
L 128.816396 -89.847294 
L 129.725581 -90.631084 
L 130.634767 -91.435285 
L 131.543952 -92.237586 
L 132.453138 -93.075933 
L 133.362324 -93.909275 
L 134.271509 -94.759071 
L 135.180695 -95.620003 
L 136.08988 -96.511094 
L 136.999066 -97.400583 
L 137.908252 -98.308279 
L 138.817437 -99.219041 
L 139.726623 -100.14445 
L 140.635808 -101.072792 
L 141.544994 -102.019642 
L 142.454179 -102.98447 
L 143.363365 -103.96259 
L 144.272551 -104.967075 
L 145.181736 -105.984628 
L 146.090922 -107.022791 
L 147.000107 -108.080639 
L 147.909293 -109.174879 
L 148.818479 -110.284642 
L 149.727664 -111.431946 
L 150.63685 -112.610798 
L 151.546035 -113.813926 
L 152.455221 -115.072853 
L 153.364407 -116.351589 
L 154.273592 -117.667237 
L 155.182778 -119.020149 
L 156.091963 -120.416867 
L 157.001149 -121.833111 
L 157.910335 -123.284825 
L 158.81952 -124.771604 
L 159.728706 -126.311476 
L 160.637891 -127.8867 
L 161.547077 -129.489123 
L 162.456263 -131.128862 
L 163.365448 -132.793486 
L 164.274634 -134.494461 
L 165.183819 -136.205482 
L 166.093005 -137.94317 
L 167.002191 -139.712136 
L 167.911376 -141.493746 
L 168.820562 -143.257846 
L 169.729747 -145.029522 
L 170.638933 -146.822281 
L 171.548119 -148.6008 
L 172.457304 -150.379246 
L 173.36649 -152.129661 
L 174.275675 -153.865747 
L 175.184861 -155.590048 
L 176.094047 -157.303614 
L 177.003232 -158.97405 
L 177.912418 -160.63229 
L 178.821603 -162.256137 
L 179.730789 -163.860221 
L 180.639975 -165.442127 
L 181.54916 -166.97161 
L 182.458346 -168.473284 
L 183.367531 -169.955112 
L 184.276717 -171.399161 
L 185.185902 -172.83369 
L 186.095088 -174.22531 
L 187.004274 -175.625474 
L 187.913459 -176.98313 
L 188.822645 -178.33343 
L 189.73183 -179.677189 
L 190.641016 -181.021843 
L 191.550202 -182.376808 
L 192.459387 -183.707381 
L 193.368573 -185.066646 
L 194.277758 -186.42796 
L 195.186944 -187.809148 
L 196.09613 -189.206414 
L 197.005315 -190.663865 
L 197.914501 -192.136568 
L 198.823686 -193.669235 
L 199.732872 -195.239959 
L 200.642058 -196.862065 
L 201.551243 -198.567285 
L 202.460429 -200.307879 
L 203.369614 -202.12389 
L 204.2788 -204.012438 
L 205.187986 -205.949868 
L 206.097171 -207.942011 
L 207.006357 -210.02882 
L 207.915542 -212.205088 
L 208.824728 -214.42964 
L 209.733914 -216.739139 
L 210.643099 -219.070763 
L 211.552285 -221.491017 
L 212.46147 -223.929927 
L 213.370656 -226.450349 
L 214.279842 -229.004865 
L 215.189027 -231.597005 
L 216.098213 -234.229188 
L 217.007398 -236.900489 
L 217.916584 -239.595154 
L 218.82577 -242.273206 
L 219.734955 -244.983802 
L 220.644141 -247.697221 
L 221.553326 -250.376931 
L 222.462512 -253.026968 
L 223.371697 -255.67656 
L 224.280883 -258.276443 
L 225.190069 -260.869985 
L 226.099254 -263.408377 
L 227.00844 -265.928052 
L 227.917625 -268.382401 
L 228.826811 -270.783187 
L 229.735997 -273.153086 
L 230.645182 -275.450162 
L 231.554368 -277.704648 
L 232.463553 -279.914895 
L 233.372739 -282.073738 
L 234.281925 -284.141528 
L 235.19111 -286.163512 
L 236.100296 -288.145291 
L 237.009481 -290.06697 
L 237.918667 -291.955902 
L 238.827853 -293.809593 
L 239.737038 -295.622944 
L 240.646224 -297.404375 
L 241.555409 -299.128334 
L 242.464595 -300.809678 
L 243.373781 -302.488826 
L 244.282966 -304.165633 
L 245.192152 -305.758635 
L 246.101337 -307.326188 
L 247.010523 -308.872878 
L 247.919709 -310.395694 
L 248.828894 -311.889331 
L 249.73808 -313.383778 
L 250.647265 -314.851502 
L 251.556451 -316.314019 
L 252.465637 -317.758241 
L 253.374822 -319.166913 
L 254.284008 -320.575124 
L 255.193193 -321.982999 
L 256.102379 -323.331299 
L 257.011565 -324.653503 
L 257.92075 -325.981939 
L 258.829936 -327.285777 
L 259.739121 -328.593729 
L 260.648307 -329.909677 
L 261.557493 -331.176792 
L 262.466678 -332.391752 
L 263.375864 -333.609831 
L 264.285049 -334.806252 
L 265.194235 -336.032692 
L 266.10342 -337.214182 
L 267.012606 -338.367165 
L 267.921792 -339.525235 
L 268.830977 -340.660484 
L 269.740163 -341.758913 
L 270.649348 -342.849625 
L 271.558534 -343.925162 
L 272.46772 -344.984193 
L 273.376905 -345.980202 
L 274.286091 -347.00688 
L 275.195276 -347.999254 
L 276.104462 -348.959284 
L 277.013648 -349.895774 
L 277.922833 -350.799723 
L 278.832019 -351.695101 
L 279.741204 -352.564569 
L 280.65039 -353.39223 
L 281.559576 -354.193583 
L 282.468761 -354.967788 
L 283.377947 -355.672903 
L 284.287132 -356.322248 
L 285.196318 -356.972783 
L 286.105504 -357.534986 
L 287.014689 -358.044664 
L 287.923875 -358.499384 
L 288.83306 -358.912534 
L 289.742246 -359.248731 
L 290.651432 -359.509879 
L 291.560617 -359.715324 
L 292.469803 -359.853792 
L 293.378988 -359.879091 
L 294.288174 -359.825488 
L 295.19736 -359.713227 
L 296.106545 -359.48949 
L 297.015731 -359.210055 
L 297.924916 -358.811661 
L 298.834102 -358.353881 
L 299.743288 -357.747469 
L 300.652473 -357.075886 
L 301.561659 -356.290142 
L 302.470844 -355.432933 
L 303.38003 -354.460582 
L 304.289216 -353.406717 
L 305.198401 -352.284957 
L 306.107587 -351.081116 
L 307.016772 -349.780355 
L 307.925958 -348.428259 
L 308.835143 -347.01387 
L 309.744329 -345.543419 
L 310.653515 -344.038861 
L 311.5627 -342.46348 
L 312.471886 -340.856422 
L 313.381071 -339.201385 
L 314.290257 -337.512914 
L 315.199443 -335.822772 
L 316.108628 -334.092689 
L 317.017814 -332.384115 
L 317.926999 -330.641368 
L 318.836185 -328.930445 
L 319.745371 -327.220802 
L 320.654556 -325.555732 
L 321.563742 -323.895096 
L 322.472927 -322.237325 
L 323.382113 -320.618864 
L 324.291299 -319.015408 
L 325.200484 -317.396453 
L 326.10967 -315.818751 
L 327.018855 -314.262503 
L 327.928041 -312.774702 
L 328.837227 -311.275569 
L 329.746412 -309.779973 
L 330.655598 -308.288831 
L 331.564783 -306.858781 
L 332.473969 -305.409373 
L 333.383155 -303.965853 
L 334.29234 -302.531189 
L 335.201526 -301.099962 
L 336.110711 -299.632686 
L 337.019897 -298.192183 
L 337.929083 -296.731329 
L 338.838268 -295.246606 
L 339.747454 -293.768125 
L 340.656639 -292.259996 
L 341.565825 -290.76088 
L 342.475011 -289.26454 
L 343.384196 -287.723716 
L 344.293382 -286.167962 
L 345.202567 -284.575081 
L 346.111753 -282.944572 
L 347.020938 -281.273959 
L 347.930124 -279.616127 
L 348.83931 -277.957899 
L 349.748495 -276.252829 
L 350.657681 -274.517272 
L 351.566866 -272.730677 
L 352.476052 -270.937315 
L 353.385238 -269.137878 
L 354.294423 -267.320339 
L 355.203609 -265.470473 
L 356.112794 -263.61113 
L 357.02198 -261.726126 
L 357.931166 -259.821815 
L 358.840351 -257.901467 
L 359.749537 -255.979791 
L 360.658722 -254.019085 
L 361.567908 -252.061834 
L 362.477094 -250.09052 
L 363.386279 -248.100123 
L 364.295465 -246.111288 
L 365.20465 -244.093779 
L 366.113836 -242.07556 
L 367.023022 -240.06978 
L 367.932207 -238.033941 
L 368.841393 -235.983595 
L 369.750578 -233.935971 
L 370.659764 -231.90412 
L 371.56895 -229.821475 
L 372.478135 -227.764166 
L 373.387321 -225.70433 
L 374.296506 -223.616172 
L 375.205692 -221.524896 
L 376.114878 -219.434453 
L 377.024063 -217.353502 
L 377.933249 -215.253848 
L 378.842434 -213.162559 
L 379.75162 -211.068823 
L 380.660806 -208.964397 
L 381.569991 -206.84509 
L 382.479177 -204.743398 
L 383.388362 -202.619449 
L 384.297548 -200.50265 
L 385.206734 -198.385984 
L 386.115919 -196.283715 
L 387.025105 -194.177134 
L 387.93429 -192.077465 
L 388.843476 -189.971319 
L 389.752661 -187.884174 
L 390.661847 -185.804204 
L 391.571033 -183.718139 
L 392.480218 -181.653795 
L 393.389404 -179.606238 
L 394.298589 -177.570883 
L 395.207775 -175.543402 
L 396.116961 -173.520936 
L 397.026146 -171.523683 
L 397.935332 -169.542742 
L 398.844517 -167.608246 
L 399.753703 -165.693428 
L 400.662889 -163.801896 
L 401.572074 -161.919268 
L 402.48126 -160.07099 
L 403.390445 -158.237662 
L 404.299631 -156.444216 
L 405.208817 -154.632668 
L 406.118002 -152.867003 
L 407.027188 -151.129577 
L 407.936373 -149.410777 
L 408.845559 -147.717824 
L 409.754745 -146.043915 
L 410.66393 -144.398534 
L 411.573116 -142.79096 
L 412.482301 -141.204784 
L 413.391487 -139.637772 
L 414.300673 -138.072888 
L 415.209858 -136.558864 
L 416.119044 -135.063746 
L 417.028229 -133.581236 
L 417.937415 -132.136178 
L 418.846601 -130.715528 
L 419.755786 -129.318664 
L 420.664972 -127.940255 
L 421.574157 -126.590376 
L 422.483343 -125.274741 
L 423.392529 -123.967813 
L 424.301714 -122.696438 
L 425.2109 -121.465582 
L 426.120085 -120.250938 
L 427.029271 -119.065129 
L 427.938456 -117.908924 
L 428.847642 -116.775941 
L 429.756828 -115.678647 
L 430.666013 -114.59529 
L 431.575199 -113.548867 
L 432.484384 -112.541306 
L 433.39357 -111.554333 
L 434.302756 -110.583597 
L 435.211941 -109.634891 
L 436.121127 -108.709964 
L 437.030312 -107.815781 
L 437.939498 -106.94246 
L 438.848684 -106.094487 
L 439.757869 -105.253504 
L 440.667055 -104.432565 
L 441.57624 -103.638484 
L 442.485426 -102.857479 
L 443.394612 -102.091912 
L 444.303797 -101.332368 
L 445.212983 -100.600678 
L 446.122168 -99.883854 
L 447.031354 -99.170248 
L 447.94054 -98.469467 
L 448.849725 -97.78085 
L 449.758911 -97.112599 
L 450.668096 -96.440983 
L 451.577282 -95.786371 
L 452.486468 -95.134078 
L 453.395653 -94.486072 
L 454.304839 -93.850313 
L 455.214024 -93.22723 
L 456.12321 -92.607491 
L 457.032396 -91.991404 
L 457.941581 -91.381829 
L 458.850767 -90.786341 
L 459.759952 -90.192505 
L 460.669138 -89.600769 
L 461.578324 -89.01943 
L 462.487509 -88.441967 
L 463.396695 -87.863678 
L 464.30588 -87.29678 
L 465.215066 -86.726329 
L 466.124252 -86.171914 
L 467.033437 -85.61292 
L 467.942623 -85.059148 
L 468.851808 -84.513964 
L 469.760994 -83.988264 
L 470.670179 -83.45814 
L 471.579365 -82.930673 
L 472.488551 -82.412251 
L 473.397736 -81.892297 
L 474.306922 -81.389428 
L 475.216107 -80.895176 
L 476.125293 -80.404342 
L 477.034479 -79.928603 
L 477.943664 -79.46479 
L 478.85285 -78.997149 
L 479.762035 -78.552683 
L 480.671221 -78.121595 
L 481.580407 -77.701225 
L 482.489592 -77.292067 
L 483.398778 -76.889226 
L 484.307963 -76.507246 
L 485.217149 -76.124687 
L 486.126335 -75.758169 
L 487.03552 -75.416862 
L 487.944706 -75.08205 
L 488.853891 -74.760136 
L 489.763077 -74.448323 
L 490.672263 -74.167271 
L 491.581448 -73.892532 
L 492.490634 -73.630102 
L 493.399819 -73.369461 
L 494.309005 -73.132641 
L 495.218191 -72.904061 
L 496.127376 -72.684861 
L 497.036562 -72.478119 
L 497.945747 -72.289579 
L 498.854933 -72.110179 
L 499.764119 -71.939306 
L 500.673304 -71.78334 
L 501.58249 -71.639029 
L 502.491675 -71.505773 
L 503.400861 -71.380909 
L 504.310047 -71.268153 
L 505.219232 -71.173277 
L 506.128418 -71.086622 
L 507.037603 -71.013445 
L 507.946789 -70.951728 
L 508.855974 -70.902078 
L 509.76516 -70.860638 
L 510.674346 -70.84556 
L 511.583531 -70.828944 
L 511.583531 -65.860909 
L 511.583531 -65.860909 
L 510.674346 -65.860909 
L 509.76516 -65.860909 
L 508.855974 -65.860909 
L 507.946789 -65.860909 
L 507.037603 -65.860909 
L 506.128418 -65.860909 
L 505.219232 -65.860909 
L 504.310047 -65.860909 
L 503.400861 -65.860909 
L 502.491675 -65.860909 
L 501.58249 -65.860909 
L 500.673304 -65.860909 
L 499.764119 -65.860909 
L 498.854933 -65.860909 
L 497.945747 -65.860909 
L 497.036562 -65.860909 
L 496.127376 -65.860909 
L 495.218191 -65.860909 
L 494.309005 -65.860909 
L 493.399819 -65.860909 
L 492.490634 -65.860909 
L 491.581448 -65.860909 
L 490.672263 -65.860909 
L 489.763077 -65.860909 
L 488.853891 -65.860909 
L 487.944706 -65.860909 
L 487.03552 -65.860909 
L 486.126335 -65.860909 
L 485.217149 -65.860909 
L 484.307963 -65.860909 
L 483.398778 -65.860909 
L 482.489592 -65.860909 
L 481.580407 -65.860909 
L 480.671221 -65.860909 
L 479.762035 -65.860909 
L 478.85285 -65.860909 
L 477.943664 -65.860909 
L 477.034479 -65.860909 
L 476.125293 -65.860909 
L 475.216107 -65.860909 
L 474.306922 -65.860909 
L 473.397736 -65.860909 
L 472.488551 -65.860909 
L 471.579365 -65.860909 
L 470.670179 -65.860909 
L 469.760994 -65.860909 
L 468.851808 -65.860909 
L 467.942623 -65.860909 
L 467.033437 -65.860909 
L 466.124252 -65.860909 
L 465.215066 -65.860909 
L 464.30588 -65.860909 
L 463.396695 -65.860909 
L 462.487509 -65.860909 
L 461.578324 -65.860909 
L 460.669138 -65.860909 
L 459.759952 -65.860909 
L 458.850767 -65.860909 
L 457.941581 -65.860909 
L 457.032396 -65.860909 
L 456.12321 -65.860909 
L 455.214024 -65.860909 
L 454.304839 -65.860909 
L 453.395653 -65.860909 
L 452.486468 -65.860909 
L 451.577282 -65.860909 
L 450.668096 -65.860909 
L 449.758911 -65.860909 
L 448.849725 -65.860909 
L 447.94054 -65.860909 
L 447.031354 -65.860909 
L 446.122168 -65.860909 
L 445.212983 -65.860909 
L 444.303797 -65.860909 
L 443.394612 -65.860909 
L 442.485426 -65.860909 
L 441.57624 -65.860909 
L 440.667055 -65.860909 
L 439.757869 -65.860909 
L 438.848684 -65.860909 
L 437.939498 -65.860909 
L 437.030312 -65.860909 
L 436.121127 -65.860909 
L 435.211941 -65.860909 
L 434.302756 -65.860909 
L 433.39357 -65.860909 
L 432.484384 -65.860909 
L 431.575199 -65.860909 
L 430.666013 -65.860909 
L 429.756828 -65.860909 
L 428.847642 -65.860909 
L 427.938456 -65.860909 
L 427.029271 -65.860909 
L 426.120085 -65.860909 
L 425.2109 -65.860909 
L 424.301714 -65.860909 
L 423.392529 -65.860909 
L 422.483343 -65.860909 
L 421.574157 -65.860909 
L 420.664972 -65.860909 
L 419.755786 -65.860909 
L 418.846601 -65.860909 
L 417.937415 -65.860909 
L 417.028229 -65.860909 
L 416.119044 -65.860909 
L 415.209858 -65.860909 
L 414.300673 -65.860909 
L 413.391487 -65.860909 
L 412.482301 -65.860909 
L 411.573116 -65.860909 
L 410.66393 -65.860909 
L 409.754745 -65.860909 
L 408.845559 -65.860909 
L 407.936373 -65.860909 
L 407.027188 -65.860909 
L 406.118002 -65.860909 
L 405.208817 -65.860909 
L 404.299631 -65.860909 
L 403.390445 -65.860909 
L 402.48126 -65.860909 
L 401.572074 -65.860909 
L 400.662889 -65.860909 
L 399.753703 -65.860909 
L 398.844517 -65.860909 
L 397.935332 -65.860909 
L 397.026146 -65.860909 
L 396.116961 -65.860909 
L 395.207775 -65.860909 
L 394.298589 -65.860909 
L 393.389404 -65.860909 
L 392.480218 -65.860909 
L 391.571033 -65.860909 
L 390.661847 -65.860909 
L 389.752661 -65.860909 
L 388.843476 -65.860909 
L 387.93429 -65.860909 
L 387.025105 -65.860909 
L 386.115919 -65.860909 
L 385.206734 -65.860909 
L 384.297548 -65.860909 
L 383.388362 -65.860909 
L 382.479177 -65.860909 
L 381.569991 -65.860909 
L 380.660806 -65.860909 
L 379.75162 -65.860909 
L 378.842434 -65.860909 
L 377.933249 -65.860909 
L 377.024063 -65.860909 
L 376.114878 -65.860909 
L 375.205692 -65.860909 
L 374.296506 -65.860909 
L 373.387321 -65.860909 
L 372.478135 -65.860909 
L 371.56895 -65.860909 
L 370.659764 -65.860909 
L 369.750578 -65.860909 
L 368.841393 -65.860909 
L 367.932207 -65.860909 
L 367.023022 -65.860909 
L 366.113836 -65.860909 
L 365.20465 -65.860909 
L 364.295465 -65.860909 
L 363.386279 -65.860909 
L 362.477094 -65.860909 
L 361.567908 -65.860909 
L 360.658722 -65.860909 
L 359.749537 -65.860909 
L 358.840351 -65.860909 
L 357.931166 -65.860909 
L 357.02198 -65.860909 
L 356.112794 -65.860909 
L 355.203609 -65.860909 
L 354.294423 -65.860909 
L 353.385238 -65.860909 
L 352.476052 -65.860909 
L 351.566866 -65.860909 
L 350.657681 -65.860909 
L 349.748495 -65.860909 
L 348.83931 -65.860909 
L 347.930124 -65.860909 
L 347.020938 -65.860909 
L 346.111753 -65.860909 
L 345.202567 -65.860909 
L 344.293382 -65.860909 
L 343.384196 -65.860909 
L 342.475011 -65.860909 
L 341.565825 -65.860909 
L 340.656639 -65.860909 
L 339.747454 -65.860909 
L 338.838268 -65.860909 
L 337.929083 -65.860909 
L 337.019897 -65.860909 
L 336.110711 -65.860909 
L 335.201526 -65.860909 
L 334.29234 -65.860909 
L 333.383155 -65.860909 
L 332.473969 -65.860909 
L 331.564783 -65.860909 
L 330.655598 -65.860909 
L 329.746412 -65.860909 
L 328.837227 -65.860909 
L 327.928041 -65.860909 
L 327.018855 -65.860909 
L 326.10967 -65.860909 
L 325.200484 -65.860909 
L 324.291299 -65.860909 
L 323.382113 -65.860909 
L 322.472927 -65.860909 
L 321.563742 -65.860909 
L 320.654556 -65.860909 
L 319.745371 -65.860909 
L 318.836185 -65.860909 
L 317.926999 -65.860909 
L 317.017814 -65.860909 
L 316.108628 -65.860909 
L 315.199443 -65.860909 
L 314.290257 -65.860909 
L 313.381071 -65.860909 
L 312.471886 -65.860909 
L 311.5627 -65.860909 
L 310.653515 -65.860909 
L 309.744329 -65.860909 
L 308.835143 -65.860909 
L 307.925958 -65.860909 
L 307.016772 -65.860909 
L 306.107587 -65.860909 
L 305.198401 -65.860909 
L 304.289216 -65.860909 
L 303.38003 -65.860909 
L 302.470844 -65.860909 
L 301.561659 -65.860909 
L 300.652473 -65.860909 
L 299.743288 -65.860909 
L 298.834102 -65.860909 
L 297.924916 -65.860909 
L 297.015731 -65.860909 
L 296.106545 -65.860909 
L 295.19736 -65.860909 
L 294.288174 -65.860909 
L 293.378988 -65.860909 
L 292.469803 -65.860909 
L 291.560617 -65.860909 
L 290.651432 -65.860909 
L 289.742246 -65.860909 
L 288.83306 -65.860909 
L 287.923875 -65.860909 
L 287.014689 -65.860909 
L 286.105504 -65.860909 
L 285.196318 -65.860909 
L 284.287132 -65.860909 
L 283.377947 -65.860909 
L 282.468761 -65.860909 
L 281.559576 -65.860909 
L 280.65039 -65.860909 
L 279.741204 -65.860909 
L 278.832019 -65.860909 
L 277.922833 -65.860909 
L 277.013648 -65.860909 
L 276.104462 -65.860909 
L 275.195276 -65.860909 
L 274.286091 -65.860909 
L 273.376905 -65.860909 
L 272.46772 -65.860909 
L 271.558534 -65.860909 
L 270.649348 -65.860909 
L 269.740163 -65.860909 
L 268.830977 -65.860909 
L 267.921792 -65.860909 
L 267.012606 -65.860909 
L 266.10342 -65.860909 
L 265.194235 -65.860909 
L 264.285049 -65.860909 
L 263.375864 -65.860909 
L 262.466678 -65.860909 
L 261.557493 -65.860909 
L 260.648307 -65.860909 
L 259.739121 -65.860909 
L 258.829936 -65.860909 
L 257.92075 -65.860909 
L 257.011565 -65.860909 
L 256.102379 -65.860909 
L 255.193193 -65.860909 
L 254.284008 -65.860909 
L 253.374822 -65.860909 
L 252.465637 -65.860909 
L 251.556451 -65.860909 
L 250.647265 -65.860909 
L 249.73808 -65.860909 
L 248.828894 -65.860909 
L 247.919709 -65.860909 
L 247.010523 -65.860909 
L 246.101337 -65.860909 
L 245.192152 -65.860909 
L 244.282966 -65.860909 
L 243.373781 -65.860909 
L 242.464595 -65.860909 
L 241.555409 -65.860909 
L 240.646224 -65.860909 
L 239.737038 -65.860909 
L 238.827853 -65.860909 
L 237.918667 -65.860909 
L 237.009481 -65.860909 
L 236.100296 -65.860909 
L 235.19111 -65.860909 
L 234.281925 -65.860909 
L 233.372739 -65.860909 
L 232.463553 -65.860909 
L 231.554368 -65.860909 
L 230.645182 -65.860909 
L 229.735997 -65.860909 
L 228.826811 -65.860909 
L 227.917625 -65.860909 
L 227.00844 -65.860909 
L 226.099254 -65.860909 
L 225.190069 -65.860909 
L 224.280883 -65.860909 
L 223.371697 -65.860909 
L 222.462512 -65.860909 
L 221.553326 -65.860909 
L 220.644141 -65.860909 
L 219.734955 -65.860909 
L 218.82577 -65.860909 
L 217.916584 -65.860909 
L 217.007398 -65.860909 
L 216.098213 -65.860909 
L 215.189027 -65.860909 
L 214.279842 -65.860909 
L 213.370656 -65.860909 
L 212.46147 -65.860909 
L 211.552285 -65.860909 
L 210.643099 -65.860909 
L 209.733914 -65.860909 
L 208.824728 -65.860909 
L 207.915542 -65.860909 
L 207.006357 -65.860909 
L 206.097171 -65.860909 
L 205.187986 -65.860909 
L 204.2788 -65.860909 
L 203.369614 -65.860909 
L 202.460429 -65.860909 
L 201.551243 -65.860909 
L 200.642058 -65.860909 
L 199.732872 -65.860909 
L 198.823686 -65.860909 
L 197.914501 -65.860909 
L 197.005315 -65.860909 
L 196.09613 -65.860909 
L 195.186944 -65.860909 
L 194.277758 -65.860909 
L 193.368573 -65.860909 
L 192.459387 -65.860909 
L 191.550202 -65.860909 
L 190.641016 -65.860909 
L 189.73183 -65.860909 
L 188.822645 -65.860909 
L 187.913459 -65.860909 
L 187.004274 -65.860909 
L 186.095088 -65.860909 
L 185.185902 -65.860909 
L 184.276717 -65.860909 
L 183.367531 -65.860909 
L 182.458346 -65.860909 
L 181.54916 -65.860909 
L 180.639975 -65.860909 
L 179.730789 -65.860909 
L 178.821603 -65.860909 
L 177.912418 -65.860909 
L 177.003232 -65.860909 
L 176.094047 -65.860909 
L 175.184861 -65.860909 
L 174.275675 -65.860909 
L 173.36649 -65.860909 
L 172.457304 -65.860909 
L 171.548119 -65.860909 
L 170.638933 -65.860909 
L 169.729747 -65.860909 
L 168.820562 -65.860909 
L 167.911376 -65.860909 
L 167.002191 -65.860909 
L 166.093005 -65.860909 
L 165.183819 -65.860909 
L 164.274634 -65.860909 
L 163.365448 -65.860909 
L 162.456263 -65.860909 
L 161.547077 -65.860909 
L 160.637891 -65.860909 
L 159.728706 -65.860909 
L 158.81952 -65.860909 
L 157.910335 -65.860909 
L 157.001149 -65.860909 
L 156.091963 -65.860909 
L 155.182778 -65.860909 
L 154.273592 -65.860909 
L 153.364407 -65.860909 
L 152.455221 -65.860909 
L 151.546035 -65.860909 
L 150.63685 -65.860909 
L 149.727664 -65.860909 
L 148.818479 -65.860909 
L 147.909293 -65.860909 
L 147.000107 -65.860909 
L 146.090922 -65.860909 
L 145.181736 -65.860909 
L 144.272551 -65.860909 
L 143.363365 -65.860909 
L 142.454179 -65.860909 
L 141.544994 -65.860909 
L 140.635808 -65.860909 
L 139.726623 -65.860909 
L 138.817437 -65.860909 
L 137.908252 -65.860909 
L 136.999066 -65.860909 
L 136.08988 -65.860909 
L 135.180695 -65.860909 
L 134.271509 -65.860909 
L 133.362324 -65.860909 
L 132.453138 -65.860909 
L 131.543952 -65.860909 
L 130.634767 -65.860909 
L 129.725581 -65.860909 
L 128.816396 -65.860909 
L 127.90721 -65.860909 
L 126.998024 -65.860909 
L 126.088839 -65.860909 
L 125.179653 -65.860909 
L 124.270468 -65.860909 
L 123.361282 -65.860909 
L 122.452096 -65.860909 
L 121.542911 -65.860909 
L 120.633725 -65.860909 
L 119.72454 -65.860909 
L 118.815354 -65.860909 
L 117.906168 -65.860909 
L 116.996983 -65.860909 
L 116.087797 -65.860909 
L 115.178612 -65.860909 
L 114.269426 -65.860909 
L 113.36024 -65.860909 
L 112.451055 -65.860909 
L 111.541869 -65.860909 
L 110.632684 -65.860909 
L 109.723498 -65.860909 
L 108.814312 -65.860909 
L 107.905127 -65.860909 
L 106.995941 -65.860909 
L 106.086756 -65.860909 
L 105.17757 -65.860909 
L 104.268384 -65.860909 
L 103.359199 -65.860909 
L 102.450013 -65.860909 
L 101.540828 -65.860909 
L 100.631642 -65.860909 
L 99.722457 -65.860909 
L 98.813271 -65.860909 
L 97.904085 -65.860909 
L 96.9949 -65.860909 
L 96.085714 -65.860909 
L 95.176529 -65.860909 
L 94.267343 -65.860909 
L 93.358157 -65.860909 
L 92.448972 -65.860909 
L 91.539786 -65.860909 
L 90.630601 -65.860909 
L 89.721415 -65.860909 
L 88.812229 -65.860909 
L 87.903044 -65.860909 
L 86.993858 -65.860909 
L 86.084673 -65.860909 
L 85.175487 -65.860909 
L 84.266301 -65.860909 
L 83.357116 -65.860909 
L 82.44793 -65.860909 
L 81.538745 -65.860909 
L 80.629559 -65.860909 
L 79.720373 -65.860909 
L 78.811188 -65.860909 
L 77.902002 -65.860909 
L 76.992817 -65.860909 
L 76.083631 -65.860909 
L 75.174445 -65.860909 
L 74.26526 -65.860909 
L 73.356074 -65.860909 
L 72.446889 -65.860909 
L 71.537703 -65.860909 
L 70.628517 -65.860909 
L 69.719332 -65.860909 
L 68.810146 -65.860909 
L 67.900961 -65.860909 
L 66.991775 -65.860909 
L 66.082589 -65.860909 
L 65.173404 -65.860909 
L 64.264218 -65.860909 
L 63.355033 -65.860909 
L 62.445847 -65.860909 
L 61.536661 -65.860909 
L 60.627476 -65.860909 
L 59.71829 -65.860909 
L 58.809105 -65.860909 
L 57.899919 -65.860909 
L 56.990734 -65.860909 
L 56.081548 -65.860909 
L 55.172362 -65.860909 
L 54.263177 -65.860909 
L 53.353991 -65.860909 
L 52.444806 -65.860909 
L 51.53562 -65.860909 
L 50.626434 -65.860909 
L 49.717249 -65.860909 
L 48.808063 -65.860909 
L 47.898878 -65.860909 
L 46.989692 -65.860909 
z
" style="stroke: #7570b3; stroke-opacity: 0.6; stroke-width: 0.3"/>
    </defs>
    <g clip-path="url(#p3d7680577d)">
     <use xlink:href="#mde658e3f26" x="0" y="432" style="fill: #7570b3; fill-opacity: 0.6; stroke: #7570b3; stroke-opacity: 0.6; stroke-width: 0.3"/>
    </g>
   </g>
   <g id="line2d_15">
    <path d="M 46.989692 363.926262 
L 56.081548 364.059348 
L 68.810146 364.241723 
L 74.26526 364.066324 
L 78.811188 363.678677 
L 82.44793 363.183579 
L 86.084673 362.496473 
L 90.630601 361.375346 
L 96.085714 359.699643 
L 101.540828 357.783095 
L 106.995941 355.619629 
L 111.541869 353.588309 
L 115.178612 351.745072 
L 118.815354 349.618761 
L 122.452096 347.17087 
L 125.179653 345.138784 
L 128.816396 342.152706 
L 133.362324 338.090725 
L 137.908252 333.691721 
L 142.454179 329.01553 
L 146.090922 324.977209 
L 148.818479 321.715358 
L 151.546035 318.186074 
L 155.182778 312.979851 
L 158.81952 307.228396 
L 162.456263 300.871138 
L 166.093005 294.05683 
L 177.003232 273.02595 
L 180.639975 266.557873 
L 184.276717 260.600839 
L 187.913459 255.01687 
L 197.005315 241.336135 
L 199.732872 236.760041 
L 202.460429 231.692121 
L 205.187986 226.050132 
L 207.006357 221.97118 
L 209.733914 215.260861 
L 212.46147 208.070073 
L 216.098213 197.770812 
L 226.099254 168.591623 
L 228.826811 161.216813 
L 231.554368 154.295352 
L 234.281925 147.858472 
L 237.009481 141.93303 
L 240.646224 134.595625 
L 244.282966 127.834367 
L 247.919709 121.604306 
L 253.374822 112.833087 
L 257.011565 107.346497 
L 261.557493 100.823208 
L 267.921792 92.474765 
L 271.558534 88.074838 
L 275.195276 84.000746 
L 278.832019 80.304899 
L 281.559576 77.806417 
L 283.377947 76.327097 
L 286.105504 74.465014 
L 287.923875 73.500616 
L 289.742246 72.751269 
L 291.560617 72.284676 
L 292.469803 72.146208 
L 294.288174 72.174512 
L 296.106545 72.51051 
L 297.015731 72.789945 
L 298.834102 73.646119 
L 300.652473 74.924114 
L 302.470844 76.567067 
L 304.289216 78.593283 
L 306.107587 80.918884 
L 308.835143 84.98613 
L 311.5627 89.53652 
L 315.199443 96.177228 
L 321.563742 108.104904 
L 326.10967 116.181249 
L 329.746412 122.220027 
L 334.29234 129.468811 
L 339.747454 138.231875 
L 345.202567 147.424919 
L 349.748495 155.747171 
L 353.385238 162.862122 
L 357.931166 172.178185 
L 363.386279 183.899877 
L 369.750578 198.064029 
L 375.205692 210.475104 
L 397.026146 260.476317 
L 400.662889 268.198104 
L 405.208817 277.367332 
L 409.754745 285.956085 
L 413.391487 292.362228 
L 417.028229 298.418764 
L 420.664972 304.059745 
L 424.301714 309.303562 
L 427.938456 314.091076 
L 431.575199 318.451133 
L 435.211941 322.365109 
L 437.939498 325.05754 
L 441.57624 328.361516 
L 445.212983 331.399322 
L 450.668096 335.559017 
L 457.032396 340.008596 
L 462.487509 343.558033 
L 468.851808 347.486036 
L 476.125293 351.595658 
L 480.671221 353.878405 
L 485.217149 355.875313 
L 488.853891 357.239864 
L 492.490634 358.369898 
L 496.127376 359.315139 
L 499.764119 360.060694 
L 504.310047 360.731847 
L 508.855974 361.097922 
L 511.583531 361.171056 
L 511.583531 361.171056 
" clip-path="url(#p3d7680577d)" style="fill: none; stroke: #7570b3; stroke-width: 2; stroke-linecap: round"/>
   </g>
   <g id="line2d_16">
    <path d="M 168.79553 359.964709 
L 404.835311 359.964709 
" clip-path="url(#p3d7680577d)" style="fill: none; stroke: #000000; stroke-width: 3.5"/>
   </g>
   <g id="patch_3">
    <path d="M 23.76 380.84 
L 534.813223 380.84 
" style="fill: none; stroke: #333333; stroke-width: 1.5; stroke-linejoin: miter; stroke-linecap: square"/>
   </g>
   <g id="text_8">
    <text style="font-size: 22px; font-family: 'DejaVu Serif', 'Times New Roman', serif; text-anchor: end; fill: #262626" x="168.79553" y="344.528755" transform="rotate(-0 168.79553 344.528755)">-1 </text>
   </g>
   <g id="text_9">
    <text style="font-size: 22px; font-family: 'DejaVu Serif', 'Times New Roman', serif; text-anchor: start; fill: #262626" x="404.835311" y="344.528755" transform="rotate(-0 404.835311 344.528755)"> -0.97</text>
   </g>
   <g id="text_10">
    <text style="font-size: 22px; font-family: 'DejaVu Serif', 'Times New Roman', serif; text-anchor: middle; fill: #262626" x="286.81542" y="273.523364" transform="rotate(-0 286.81542 273.523364)">90% HDI</text>
   </g>
   <g id="text_11">
    <text style="font-size: 22px; font-family: 'DejaVu Serif', 'Times New Roman', serif; text-anchor: middle; fill: #262626" x="291.970554" y="119.163818" transform="rotate(-0 291.970554 119.163818)">mean=-1</text>
   </g>
   <g id="text_12">
    <!-- $x_2^2$ -->
    <g style="fill: #262626" transform="translate(263.746612 49.58)">
     <text>
      <tspan x="0" y="-0.734375" style="font-style: oblique; font-size: 28px; font-family: 'DejaVu Sans'; fill: #262626">x</tspan>
      <tspan x="16.570312" y="6.921875" style="font-size: 19.6px; font-family: 'DejaVu Sans'; fill: #262626">2</tspan>
      <tspan x="17.820833" y="-11.453125" style="font-size: 19.6px; font-family: 'DejaVu Sans'; fill: #262626">2</tspan>
     </text>
    </g>
   </g>
  </g>
 </g>
 <defs>
  <clipPath id="p3d7680577d">
   <rect x="23.76" y="57.42" width="511.053223" height="323.42"/>
  </clipPath>
 </defs>
</svg>
