<?xml version="1.0" encoding="utf-8" standalone="no"?>
<!DOCTYPE svg PUBLIC "-//W3C//DTD SVG 1.1//EN"
  "http://www.w3.org/Graphics/SVG/1.1/DTD/svg11.dtd">
<svg xmlns:xlink="http://www.w3.org/1999/xlink" width="576pt" height="432pt" viewBox="0 0 576 432" xmlns="http://www.w3.org/2000/svg" version="1.1">
 <metadata>
  <rdf:RDF xmlns:dc="http://purl.org/dc/elements/1.1/" xmlns:cc="http://creativecommons.org/ns#" xmlns:rdf="http://www.w3.org/1999/02/22-rdf-syntax-ns#">
   <cc:Work>
    <dc:type rdf:resource="http://purl.org/dc/dcmitype/StillImage"/>
    <dc:date>2025-09-22T22:41:52.377224</dc:date>
    <dc:format>image/svg+xml</dc:format>
    <dc:creator>
     <cc:Agent>
      <dc:title>Matplotlib v3.10.0, https://matplotlib.org/</dc:title>
     </cc:Agent>
    </dc:creator>
   </cc:Work>
  </rdf:RDF>
 </metadata>
 <defs>
  <style type="text/css">*{stroke-linejoin: round; stroke-linecap: butt}</style>
 </defs>
 <g id="figure_1">
  <g id="patch_1">
   <path d="M 0 432 
L 576 432 
L 576 0 
L 0 0 
L 0 432 
z
" style="fill: none; opacity: 0"/>
  </g>
  <g id="axes_1">
   <g id="patch_2">
    <path d="M 23.76 380.84 
L 552.24 380.84 
L 552.24 51.12 
L 23.76 51.12 
L 23.76 380.84 
z
" style="fill: none"/>
   </g>
   <g id="matplotlib.axis_1">
    <g id="xtick_1">
     <g id="line2d_1">
      <path d="M 86.164656 380.84 
L 86.164656 51.12 
" clip-path="url(#pa2c15856ec)" style="fill: none; stroke: #ffffff; stroke-opacity: 0.4; stroke-linecap: round"/>
     </g>
     <g id="line2d_2">
      <defs>
       <path id="md577898cf5" d="M 0 0 
L 0 3 
" style="stroke: #808080"/>
      </defs>
      <g>
       <use xlink:href="#md577898cf5" x="86.164656" y="380.84" style="fill: #808080; stroke: #808080"/>
      </g>
     </g>
     <g id="text_1">
      <text style="font-size: 18px; font-family: 'DejaVu Serif', 'Times New Roman', serif; text-anchor: middle; fill: #262626" x="86.164656" y="404.517187" transform="rotate(-0 86.164656 404.517187)">0.88</text>
     </g>
    </g>
    <g id="xtick_2">
     <g id="line2d_3">
      <path d="M 151.83066 380.84 
L 151.83066 51.12 
" clip-path="url(#pa2c15856ec)" style="fill: none; stroke: #ffffff; stroke-opacity: 0.4; stroke-linecap: round"/>
     </g>
     <g id="line2d_4">
      <g>
       <use xlink:href="#md577898cf5" x="151.83066" y="380.84" style="fill: #808080; stroke: #808080"/>
      </g>
     </g>
     <g id="text_2">
      <text style="font-size: 18px; font-family: 'DejaVu Serif', 'Times New Roman', serif; text-anchor: middle; fill: #262626" x="151.83066" y="404.517187" transform="rotate(-0 151.83066 404.517187)">0.90</text>
     </g>
    </g>
    <g id="xtick_3">
     <g id="line2d_5">
      <path d="M 217.496665 380.84 
L 217.496665 51.12 
" clip-path="url(#pa2c15856ec)" style="fill: none; stroke: #ffffff; stroke-opacity: 0.4; stroke-linecap: round"/>
     </g>
     <g id="line2d_6">
      <g>
       <use xlink:href="#md577898cf5" x="217.496665" y="380.84" style="fill: #808080; stroke: #808080"/>
      </g>
     </g>
     <g id="text_3">
      <text style="font-size: 18px; font-family: 'DejaVu Serif', 'Times New Roman', serif; text-anchor: middle; fill: #262626" x="217.496665" y="404.517187" transform="rotate(-0 217.496665 404.517187)">0.92</text>
     </g>
    </g>
    <g id="xtick_4">
     <g id="line2d_7">
      <path d="M 283.162669 380.84 
L 283.162669 51.12 
" clip-path="url(#pa2c15856ec)" style="fill: none; stroke: #ffffff; stroke-opacity: 0.4; stroke-linecap: round"/>
     </g>
     <g id="line2d_8">
      <g>
       <use xlink:href="#md577898cf5" x="283.162669" y="380.84" style="fill: #808080; stroke: #808080"/>
      </g>
     </g>
     <g id="text_4">
      <text style="font-size: 18px; font-family: 'DejaVu Serif', 'Times New Roman', serif; text-anchor: middle; fill: #262626" x="283.162669" y="404.517187" transform="rotate(-0 283.162669 404.517187)">0.94</text>
     </g>
    </g>
    <g id="xtick_5">
     <g id="line2d_9">
      <path d="M 348.828673 380.84 
L 348.828673 51.12 
" clip-path="url(#pa2c15856ec)" style="fill: none; stroke: #ffffff; stroke-opacity: 0.4; stroke-linecap: round"/>
     </g>
     <g id="line2d_10">
      <g>
       <use xlink:href="#md577898cf5" x="348.828673" y="380.84" style="fill: #808080; stroke: #808080"/>
      </g>
     </g>
     <g id="text_5">
      <text style="font-size: 18px; font-family: 'DejaVu Serif', 'Times New Roman', serif; text-anchor: middle; fill: #262626" x="348.828673" y="404.517187" transform="rotate(-0 348.828673 404.517187)">0.96</text>
     </g>
    </g>
    <g id="xtick_6">
     <g id="line2d_11">
      <path d="M 414.494678 380.84 
L 414.494678 51.12 
" clip-path="url(#pa2c15856ec)" style="fill: none; stroke: #ffffff; stroke-opacity: 0.4; stroke-linecap: round"/>
     </g>
     <g id="line2d_12">
      <g>
       <use xlink:href="#md577898cf5" x="414.494678" y="380.84" style="fill: #808080; stroke: #808080"/>
      </g>
     </g>
     <g id="text_6">
      <text style="font-size: 18px; font-family: 'DejaVu Serif', 'Times New Roman', serif; text-anchor: middle; fill: #262626" x="414.494678" y="404.517187" transform="rotate(-0 414.494678 404.517187)">0.98</text>
     </g>
    </g>
    <g id="xtick_7">
     <g id="line2d_13">
      <path d="M 480.160682 380.84 
L 480.160682 51.12 
" clip-path="url(#pa2c15856ec)" style="fill: none; stroke: #ffffff; stroke-opacity: 0.4; stroke-linecap: round"/>
     </g>
     <g id="line2d_14">
      <g>
       <use xlink:href="#md577898cf5" x="480.160682" y="380.84" style="fill: #808080; stroke: #808080"/>
      </g>
     </g>
     <g id="text_7">
      <text style="font-size: 18px; font-family: 'DejaVu Serif', 'Times New Roman', serif; text-anchor: middle; fill: #262626" x="480.160682" y="404.517187" transform="rotate(-0 480.160682 404.517187)">1.00</text>
     </g>
    </g>
    <g id="xtick_8">
     <g id="line2d_15">
      <path d="M 545.826687 380.84 
L 545.826687 51.12 
" clip-path="url(#pa2c15856ec)" style="fill: none; stroke: #ffffff; stroke-opacity: 0.4; stroke-linecap: round"/>
     </g>
     <g id="line2d_16">
      <g>
       <use xlink:href="#md577898cf5" x="545.826687" y="380.84" style="fill: #808080; stroke: #808080"/>
      </g>
     </g>
     <g id="text_8">
      <text style="font-size: 18px; font-family: 'DejaVu Serif', 'Times New Roman', serif; text-anchor: middle; fill: #262626" x="545.826687" y="404.517187" transform="rotate(-0 545.826687 404.517187)">1.02</text>
     </g>
    </g>
   </g>
   <g id="matplotlib.axis_2"/>
   <g id="FillBetweenPolyCollection_1">
    <defs>
     <path id="m22a58e4d86" d="M 47.781818 -66.147273 
L 47.781818 -69.084913 
L 48.722007 -69.085032 
L 49.662195 -69.079261 
L 50.602384 -69.07413 
L 51.542572 -69.064572 
L 52.482761 -69.053882 
L 53.42295 -69.039184 
L 54.363138 -69.027301 
L 55.303327 -69.012695 
L 56.243515 -68.999478 
L 57.183704 -68.994568 
L 58.123893 -68.989114 
L 59.064081 -68.993607 
L 60.00427 -68.997148 
L 60.944458 -69.01293 
L 61.884647 -69.028568 
L 62.824835 -69.050143 
L 63.765024 -69.078036 
L 64.705213 -69.119478 
L 65.645401 -69.159559 
L 66.58559 -69.213549 
L 67.525778 -69.271793 
L 68.465967 -69.340436 
L 69.406155 -69.41381 
L 70.346344 -69.494419 
L 71.286533 -69.581224 
L 72.226721 -69.673806 
L 73.16691 -69.77866 
L 74.107098 -69.88301 
L 75.047287 -69.998893 
L 75.987476 -70.117009 
L 76.927664 -70.236311 
L 77.867853 -70.362595 
L 78.808041 -70.499716 
L 79.74823 -70.631646 
L 80.688418 -70.773368 
L 81.628607 -70.915777 
L 82.568796 -71.068511 
L 83.508984 -71.219931 
L 84.449173 -71.379135 
L 85.389361 -71.542884 
L 86.32955 -71.708 
L 87.269738 -71.880978 
L 88.209927 -72.046878 
L 89.150116 -72.23209 
L 90.090304 -72.417628 
L 91.030493 -72.607995 
L 91.970681 -72.813939 
L 92.91087 -73.024318 
L 93.851059 -73.239729 
L 94.791247 -73.470411 
L 95.731436 -73.707384 
L 96.671624 -73.964548 
L 97.611813 -74.224174 
L 98.552001 -74.49534 
L 99.49219 -74.782227 
L 100.432379 -75.075895 
L 101.372567 -75.385923 
L 102.312756 -75.706628 
L 103.252944 -76.044668 
L 104.193133 -76.397685 
L 105.133321 -76.759049 
L 106.07351 -77.137755 
L 107.013699 -77.541378 
L 107.953887 -77.951977 
L 108.894076 -78.377577 
L 109.834264 -78.823942 
L 110.774453 -79.288569 
L 111.714642 -79.76895 
L 112.65483 -80.268051 
L 113.595019 -80.781925 
L 114.535207 -81.30654 
L 115.475396 -81.840445 
L 116.415584 -82.402885 
L 117.355773 -82.962894 
L 118.295962 -83.536976 
L 119.23615 -84.117396 
L 120.176339 -84.713047 
L 121.116527 -85.308066 
L 122.056716 -85.907205 
L 122.996904 -86.532613 
L 123.937093 -87.171165 
L 124.877282 -87.796205 
L 125.81747 -88.437494 
L 126.757659 -89.093998 
L 127.697847 -89.753341 
L 128.638036 -90.435844 
L 129.578225 -91.124949 
L 130.518413 -91.814513 
L 131.458602 -92.523795 
L 132.39879 -93.245234 
L 133.338979 -93.990715 
L 134.279167 -94.762691 
L 135.219356 -95.553459 
L 136.159545 -96.360717 
L 137.099733 -97.201979 
L 138.039922 -98.056655 
L 138.98011 -98.951476 
L 139.920299 -99.886963 
L 140.860487 -100.839427 
L 141.800676 -101.834437 
L 142.740865 -102.864224 
L 143.681053 -103.917971 
L 144.621242 -105.019678 
L 145.56143 -106.158817 
L 146.501619 -107.309404 
L 147.441808 -108.510472 
L 148.381996 -109.715883 
L 149.322185 -110.949267 
L 150.262373 -112.208991 
L 151.202562 -113.490528 
L 152.14275 -114.81847 
L 153.082939 -116.150832 
L 154.023128 -117.52374 
L 154.963316 -118.896973 
L 155.903505 -120.281976 
L 156.843693 -121.67974 
L 157.783882 -123.11372 
L 158.72407 -124.527748 
L 159.664259 -125.941189 
L 160.604448 -127.366905 
L 161.544636 -128.821625 
L 162.484825 -130.277885 
L 163.425013 -131.75204 
L 164.365202 -133.22966 
L 165.30539 -134.731083 
L 166.245579 -136.234877 
L 167.185768 -137.746557 
L 168.125956 -139.268808 
L 169.066145 -140.791797 
L 170.006333 -142.319899 
L 170.946522 -143.857221 
L 171.886711 -145.427978 
L 172.826899 -146.993169 
L 173.767088 -148.568755 
L 174.707276 -150.159427 
L 175.647465 -151.768564 
L 176.587653 -153.384442 
L 177.527842 -155.019451 
L 178.468031 -156.648599 
L 179.408219 -158.319271 
L 180.348408 -160.008311 
L 181.288596 -161.72486 
L 182.228785 -163.457732 
L 183.168973 -165.175577 
L 184.109162 -166.937732 
L 185.049351 -168.692531 
L 185.989539 -170.459735 
L 186.929728 -172.27211 
L 187.869916 -174.080613 
L 188.810105 -175.925064 
L 189.750294 -177.775486 
L 190.690482 -179.67156 
L 191.630671 -181.547246 
L 192.570859 -183.474649 
L 193.511048 -185.41339 
L 194.451236 -187.381703 
L 195.391425 -189.377045 
L 196.331614 -191.392027 
L 197.271802 -193.441297 
L 198.211991 -195.484825 
L 199.152179 -197.578151 
L 200.092368 -199.661551 
L 201.032556 -201.809855 
L 201.972745 -203.950656 
L 202.912934 -206.118411 
L 203.853122 -208.308927 
L 204.793311 -210.473659 
L 205.733499 -212.654977 
L 206.673688 -214.871689 
L 207.613877 -217.083711 
L 208.554065 -219.297035 
L 209.494254 -221.545928 
L 210.434442 -223.785032 
L 211.374631 -226.048446 
L 212.314819 -228.314624 
L 213.255008 -230.598195 
L 214.195197 -232.853737 
L 215.135385 -235.105573 
L 216.075574 -237.363838 
L 217.015762 -239.624962 
L 217.955951 -241.88619 
L 218.896139 -244.178962 
L 219.836328 -246.436446 
L 220.776517 -248.706036 
L 221.716705 -250.998787 
L 222.656894 -253.255717 
L 223.597082 -255.50837 
L 224.537271 -257.764531 
L 225.47746 -260.007917 
L 226.417648 -262.218418 
L 227.357837 -264.44519 
L 228.298025 -266.658273 
L 229.238214 -268.865159 
L 230.178402 -271.07424 
L 231.118591 -273.300827 
L 232.05878 -275.494667 
L 232.998968 -277.655574 
L 233.939157 -279.797223 
L 234.879345 -281.925499 
L 235.819534 -284.040903 
L 236.759722 -286.169288 
L 237.699911 -288.259124 
L 238.6401 -290.324972 
L 239.580288 -292.367276 
L 240.520477 -294.463696 
L 241.460665 -296.518715 
L 242.400854 -298.585646 
L 243.341043 -300.611605 
L 244.281231 -302.637914 
L 245.22142 -304.647729 
L 246.161608 -306.62304 
L 247.101797 -308.611396 
L 248.041985 -310.617042 
L 248.982174 -312.645585 
L 249.922363 -314.660164 
L 250.862551 -316.669625 
L 251.80274 -318.718377 
L 252.742928 -320.73347 
L 253.683117 -322.777151 
L 254.623305 -324.818067 
L 255.563494 -326.841404 
L 256.503683 -328.874063 
L 257.443871 -330.888997 
L 258.38406 -332.942151 
L 259.324248 -334.987497 
L 260.264437 -337.011779 
L 261.204626 -338.988812 
L 262.144814 -340.969221 
L 263.085003 -342.899582 
L 264.025191 -344.801642 
L 264.96538 -346.701851 
L 265.905568 -348.539527 
L 266.845757 -350.346518 
L 267.785946 -352.046141 
L 268.726134 -353.691488 
L 269.666323 -355.266035 
L 270.606511 -356.713324 
L 271.5467 -358.100161 
L 272.486888 -359.382277 
L 273.427077 -360.570102 
L 274.367266 -361.626436 
L 275.307454 -362.561357 
L 276.247643 -363.413444 
L 277.187831 -364.141557 
L 278.12802 -364.727748 
L 279.068209 -365.184263 
L 280.008397 -365.540228 
L 280.948586 -365.747408 
L 281.888774 -365.892727 
L 282.828963 -365.851258 
L 283.769151 -365.746876 
L 284.70934 -365.528672 
L 285.649529 -365.198438 
L 286.589717 -364.824305 
L 287.529906 -364.339049 
L 288.470094 -363.768101 
L 289.410283 -363.145811 
L 290.350471 -362.452997 
L 291.29066 -361.713861 
L 292.230849 -360.940733 
L 293.171037 -360.150095 
L 294.111226 -359.348141 
L 295.051414 -358.503354 
L 295.991603 -357.691768 
L 296.931791 -356.87124 
L 297.87198 -356.056292 
L 298.812169 -355.240286 
L 299.752357 -354.447806 
L 300.692546 -353.660884 
L 301.632734 -352.94835 
L 302.572923 -352.239334 
L 303.513112 -351.530563 
L 304.4533 -350.887548 
L 305.393489 -350.266267 
L 306.333677 -349.670984 
L 307.273866 -349.113408 
L 308.214054 -348.577139 
L 309.154243 -348.012291 
L 310.094432 -347.482065 
L 311.03462 -346.958795 
L 311.974809 -346.404651 
L 312.914997 -345.828228 
L 313.855186 -345.231679 
L 314.795374 -344.65314 
L 315.735563 -344.014849 
L 316.675752 -343.351657 
L 317.61594 -342.609478 
L 318.556129 -341.812095 
L 319.496317 -340.974133 
L 320.436506 -340.049193 
L 321.376695 -339.02795 
L 322.316883 -337.893493 
L 323.257072 -336.692712 
L 324.19726 -335.368555 
L 325.137449 -333.964826 
L 326.077637 -332.457497 
L 327.017826 -330.868139 
L 327.958015 -329.196614 
L 328.898203 -327.407831 
L 329.838392 -325.508874 
L 330.77858 -323.480817 
L 331.718769 -321.376705 
L 332.658957 -319.190543 
L 333.599146 -316.895828 
L 334.539335 -314.549317 
L 335.479523 -312.095867 
L 336.419712 -309.594283 
L 337.3599 -307.044544 
L 338.300089 -304.422965 
L 339.240278 -301.753934 
L 340.180466 -299.026913 
L 341.120655 -296.268736 
L 342.060843 -293.499775 
L 343.001032 -290.72545 
L 343.94122 -287.903386 
L 344.881409 -285.085545 
L 345.821598 -282.257807 
L 346.761786 -279.436059 
L 347.701975 -276.596263 
L 348.642163 -273.758984 
L 349.582352 -270.950471 
L 350.52254 -268.126416 
L 351.462729 -265.317774 
L 352.402918 -262.520562 
L 353.343106 -259.732696 
L 354.283295 -256.933731 
L 355.223483 -254.155126 
L 356.163672 -251.363218 
L 357.103861 -248.622391 
L 358.044049 -245.823306 
L 358.984238 -243.064371 
L 359.924426 -240.340338 
L 360.864615 -237.596541 
L 361.804803 -234.861792 
L 362.744992 -232.147184 
L 363.685181 -229.404734 
L 364.625369 -226.705789 
L 365.565558 -223.995231 
L 366.505746 -221.303704 
L 367.445935 -218.636606 
L 368.386123 -215.959576 
L 369.326312 -213.32511 
L 370.266501 -210.707408 
L 371.206689 -208.114034 
L 372.146878 -205.548417 
L 373.087066 -203.008431 
L 374.027255 -200.495883 
L 374.967444 -197.996196 
L 375.907632 -195.552241 
L 376.847821 -193.149686 
L 377.788009 -190.788804 
L 378.728198 -188.458615 
L 379.668386 -186.165619 
L 380.608575 -183.922209 
L 381.548764 -181.71166 
L 382.488952 -179.520869 
L 383.429141 -177.3656 
L 384.369329 -175.250801 
L 385.309518 -173.191133 
L 386.249706 -171.16362 
L 387.189895 -169.168807 
L 388.130084 -167.202303 
L 389.070272 -165.263051 
L 390.010461 -163.347805 
L 390.950649 -161.476207 
L 391.890838 -159.612976 
L 392.831027 -157.753578 
L 393.771215 -155.961726 
L 394.711404 -154.167297 
L 395.651592 -152.409386 
L 396.591781 -150.648414 
L 397.531969 -148.913584 
L 398.472158 -147.214217 
L 399.412347 -145.535273 
L 400.352535 -143.877081 
L 401.292724 -142.249734 
L 402.232912 -140.658153 
L 403.173101 -139.082733 
L 404.113289 -137.530026 
L 405.053478 -136.003692 
L 405.993667 -134.491365 
L 406.933855 -133.015659 
L 407.874044 -131.558449 
L 408.814232 -130.118602 
L 409.754421 -128.709121 
L 410.69461 -127.314489 
L 411.634798 -125.95693 
L 412.574987 -124.639556 
L 413.515175 -123.350735 
L 414.455364 -122.081051 
L 415.395552 -120.824313 
L 416.335741 -119.590547 
L 417.27593 -118.386259 
L 418.216118 -117.203603 
L 419.156307 -116.042372 
L 420.096495 -114.902359 
L 421.036684 -113.787544 
L 421.976872 -112.677714 
L 422.917061 -111.599381 
L 423.85725 -110.544678 
L 424.797438 -109.500311 
L 425.737627 -108.481136 
L 426.677815 -107.483419 
L 427.618004 -106.506284 
L 428.558192 -105.543319 
L 429.498381 -104.601787 
L 430.43857 -103.681347 
L 431.378758 -102.788716 
L 432.318947 -101.889893 
L 433.259135 -101.017443 
L 434.199324 -100.176442 
L 435.139513 -99.333587 
L 436.079701 -98.510563 
L 437.01989 -97.70766 
L 437.960078 -96.919877 
L 438.900267 -96.118615 
L 439.840455 -95.359195 
L 440.780644 -94.590914 
L 441.720833 -93.840281 
L 442.661021 -93.122959 
L 443.60121 -92.404054 
L 444.541398 -91.701141 
L 445.481587 -91.02018 
L 446.421775 -90.345296 
L 447.361964 -89.683367 
L 448.302153 -89.037792 
L 449.242341 -88.405804 
L 450.18253 -87.79086 
L 451.122718 -87.188093 
L 452.062907 -86.610544 
L 453.003096 -86.031816 
L 453.943284 -85.480377 
L 454.883473 -84.928536 
L 455.823661 -84.407633 
L 456.76385 -83.909024 
L 457.704038 -83.417188 
L 458.644227 -82.952976 
L 459.584416 -82.49439 
L 460.524604 -82.059311 
L 461.464793 -81.630349 
L 462.404981 -81.216193 
L 463.34517 -80.81233 
L 464.285358 -80.417656 
L 465.225547 -80.036605 
L 466.165736 -79.655732 
L 467.105924 -79.275264 
L 468.046113 -78.911983 
L 468.986301 -78.545659 
L 469.92649 -78.176799 
L 470.866679 -77.819743 
L 471.806867 -77.466405 
L 472.747056 -77.107567 
L 473.687244 -76.755495 
L 474.627433 -76.403362 
L 475.567621 -76.043063 
L 476.50781 -75.69063 
L 477.447999 -75.342297 
L 478.388187 -74.992431 
L 479.328376 -74.650672 
L 480.268564 -74.296987 
L 481.208753 -73.957421 
L 482.148941 -73.616645 
L 483.08913 -73.284866 
L 484.029319 -72.95639 
L 484.969507 -72.643496 
L 485.909696 -72.333717 
L 486.849884 -72.033876 
L 487.790073 -71.747352 
L 488.730262 -71.463052 
L 489.67045 -71.187657 
L 490.610639 -70.918021 
L 491.550827 -70.660552 
L 492.491016 -70.411969 
L 493.431204 -70.169628 
L 494.371393 -69.939772 
L 495.311582 -69.7162 
L 496.25177 -69.505108 
L 497.191959 -69.305847 
L 498.132147 -69.112302 
L 499.072336 -68.925172 
L 500.012524 -68.753401 
L 500.952713 -68.58459 
L 501.892902 -68.43117 
L 502.83309 -68.286322 
L 503.773279 -68.147381 
L 504.713467 -68.015014 
L 505.653656 -67.895325 
L 506.593845 -67.787574 
L 507.534033 -67.68833 
L 508.474222 -67.594798 
L 509.41441 -67.51306 
L 510.354599 -67.425566 
L 511.294787 -67.360083 
L 512.234976 -67.302387 
L 513.175165 -67.25492 
L 514.115353 -67.213916 
L 515.055542 -67.176217 
L 515.99573 -67.139161 
L 516.935919 -67.115126 
L 517.876107 -67.096552 
L 518.816296 -67.084934 
L 519.756485 -67.076292 
L 520.696673 -67.070099 
L 521.636862 -67.06581 
L 522.57705 -67.062879 
L 523.517239 -67.064258 
L 524.457428 -67.0668 
L 525.397616 -67.070215 
L 526.337805 -67.068015 
L 527.277993 -67.066077 
L 528.218182 -67.06689 
L 528.218182 -66.147273 
L 528.218182 -66.147273 
L 527.277993 -66.147273 
L 526.337805 -66.147273 
L 525.397616 -66.147273 
L 524.457428 -66.147273 
L 523.517239 -66.147273 
L 522.57705 -66.147273 
L 521.636862 -66.147273 
L 520.696673 -66.147273 
L 519.756485 -66.147273 
L 518.816296 -66.147273 
L 517.876107 -66.147273 
L 516.935919 -66.147273 
L 515.99573 -66.147273 
L 515.055542 -66.147273 
L 514.115353 -66.147273 
L 513.175165 -66.147273 
L 512.234976 -66.147273 
L 511.294787 -66.147273 
L 510.354599 -66.147273 
L 509.41441 -66.147273 
L 508.474222 -66.147273 
L 507.534033 -66.147273 
L 506.593845 -66.147273 
L 505.653656 -66.147273 
L 504.713467 -66.147273 
L 503.773279 -66.147273 
L 502.83309 -66.147273 
L 501.892902 -66.147273 
L 500.952713 -66.147273 
L 500.012524 -66.147273 
L 499.072336 -66.147273 
L 498.132147 -66.147273 
L 497.191959 -66.147273 
L 496.25177 -66.147273 
L 495.311582 -66.147273 
L 494.371393 -66.147273 
L 493.431204 -66.147273 
L 492.491016 -66.147273 
L 491.550827 -66.147273 
L 490.610639 -66.147273 
L 489.67045 -66.147273 
L 488.730262 -66.147273 
L 487.790073 -66.147273 
L 486.849884 -66.147273 
L 485.909696 -66.147273 
L 484.969507 -66.147273 
L 484.029319 -66.147273 
L 483.08913 -66.147273 
L 482.148941 -66.147273 
L 481.208753 -66.147273 
L 480.268564 -66.147273 
L 479.328376 -66.147273 
L 478.388187 -66.147273 
L 477.447999 -66.147273 
L 476.50781 -66.147273 
L 475.567621 -66.147273 
L 474.627433 -66.147273 
L 473.687244 -66.147273 
L 472.747056 -66.147273 
L 471.806867 -66.147273 
L 470.866679 -66.147273 
L 469.92649 -66.147273 
L 468.986301 -66.147273 
L 468.046113 -66.147273 
L 467.105924 -66.147273 
L 466.165736 -66.147273 
L 465.225547 -66.147273 
L 464.285358 -66.147273 
L 463.34517 -66.147273 
L 462.404981 -66.147273 
L 461.464793 -66.147273 
L 460.524604 -66.147273 
L 459.584416 -66.147273 
L 458.644227 -66.147273 
L 457.704038 -66.147273 
L 456.76385 -66.147273 
L 455.823661 -66.147273 
L 454.883473 -66.147273 
L 453.943284 -66.147273 
L 453.003096 -66.147273 
L 452.062907 -66.147273 
L 451.122718 -66.147273 
L 450.18253 -66.147273 
L 449.242341 -66.147273 
L 448.302153 -66.147273 
L 447.361964 -66.147273 
L 446.421775 -66.147273 
L 445.481587 -66.147273 
L 444.541398 -66.147273 
L 443.60121 -66.147273 
L 442.661021 -66.147273 
L 441.720833 -66.147273 
L 440.780644 -66.147273 
L 439.840455 -66.147273 
L 438.900267 -66.147273 
L 437.960078 -66.147273 
L 437.01989 -66.147273 
L 436.079701 -66.147273 
L 435.139513 -66.147273 
L 434.199324 -66.147273 
L 433.259135 -66.147273 
L 432.318947 -66.147273 
L 431.378758 -66.147273 
L 430.43857 -66.147273 
L 429.498381 -66.147273 
L 428.558192 -66.147273 
L 427.618004 -66.147273 
L 426.677815 -66.147273 
L 425.737627 -66.147273 
L 424.797438 -66.147273 
L 423.85725 -66.147273 
L 422.917061 -66.147273 
L 421.976872 -66.147273 
L 421.036684 -66.147273 
L 420.096495 -66.147273 
L 419.156307 -66.147273 
L 418.216118 -66.147273 
L 417.27593 -66.147273 
L 416.335741 -66.147273 
L 415.395552 -66.147273 
L 414.455364 -66.147273 
L 413.515175 -66.147273 
L 412.574987 -66.147273 
L 411.634798 -66.147273 
L 410.69461 -66.147273 
L 409.754421 -66.147273 
L 408.814232 -66.147273 
L 407.874044 -66.147273 
L 406.933855 -66.147273 
L 405.993667 -66.147273 
L 405.053478 -66.147273 
L 404.113289 -66.147273 
L 403.173101 -66.147273 
L 402.232912 -66.147273 
L 401.292724 -66.147273 
L 400.352535 -66.147273 
L 399.412347 -66.147273 
L 398.472158 -66.147273 
L 397.531969 -66.147273 
L 396.591781 -66.147273 
L 395.651592 -66.147273 
L 394.711404 -66.147273 
L 393.771215 -66.147273 
L 392.831027 -66.147273 
L 391.890838 -66.147273 
L 390.950649 -66.147273 
L 390.010461 -66.147273 
L 389.070272 -66.147273 
L 388.130084 -66.147273 
L 387.189895 -66.147273 
L 386.249706 -66.147273 
L 385.309518 -66.147273 
L 384.369329 -66.147273 
L 383.429141 -66.147273 
L 382.488952 -66.147273 
L 381.548764 -66.147273 
L 380.608575 -66.147273 
L 379.668386 -66.147273 
L 378.728198 -66.147273 
L 377.788009 -66.147273 
L 376.847821 -66.147273 
L 375.907632 -66.147273 
L 374.967444 -66.147273 
L 374.027255 -66.147273 
L 373.087066 -66.147273 
L 372.146878 -66.147273 
L 371.206689 -66.147273 
L 370.266501 -66.147273 
L 369.326312 -66.147273 
L 368.386123 -66.147273 
L 367.445935 -66.147273 
L 366.505746 -66.147273 
L 365.565558 -66.147273 
L 364.625369 -66.147273 
L 363.685181 -66.147273 
L 362.744992 -66.147273 
L 361.804803 -66.147273 
L 360.864615 -66.147273 
L 359.924426 -66.147273 
L 358.984238 -66.147273 
L 358.044049 -66.147273 
L 357.103861 -66.147273 
L 356.163672 -66.147273 
L 355.223483 -66.147273 
L 354.283295 -66.147273 
L 353.343106 -66.147273 
L 352.402918 -66.147273 
L 351.462729 -66.147273 
L 350.52254 -66.147273 
L 349.582352 -66.147273 
L 348.642163 -66.147273 
L 347.701975 -66.147273 
L 346.761786 -66.147273 
L 345.821598 -66.147273 
L 344.881409 -66.147273 
L 343.94122 -66.147273 
L 343.001032 -66.147273 
L 342.060843 -66.147273 
L 341.120655 -66.147273 
L 340.180466 -66.147273 
L 339.240278 -66.147273 
L 338.300089 -66.147273 
L 337.3599 -66.147273 
L 336.419712 -66.147273 
L 335.479523 -66.147273 
L 334.539335 -66.147273 
L 333.599146 -66.147273 
L 332.658957 -66.147273 
L 331.718769 -66.147273 
L 330.77858 -66.147273 
L 329.838392 -66.147273 
L 328.898203 -66.147273 
L 327.958015 -66.147273 
L 327.017826 -66.147273 
L 326.077637 -66.147273 
L 325.137449 -66.147273 
L 324.19726 -66.147273 
L 323.257072 -66.147273 
L 322.316883 -66.147273 
L 321.376695 -66.147273 
L 320.436506 -66.147273 
L 319.496317 -66.147273 
L 318.556129 -66.147273 
L 317.61594 -66.147273 
L 316.675752 -66.147273 
L 315.735563 -66.147273 
L 314.795374 -66.147273 
L 313.855186 -66.147273 
L 312.914997 -66.147273 
L 311.974809 -66.147273 
L 311.03462 -66.147273 
L 310.094432 -66.147273 
L 309.154243 -66.147273 
L 308.214054 -66.147273 
L 307.273866 -66.147273 
L 306.333677 -66.147273 
L 305.393489 -66.147273 
L 304.4533 -66.147273 
L 303.513112 -66.147273 
L 302.572923 -66.147273 
L 301.632734 -66.147273 
L 300.692546 -66.147273 
L 299.752357 -66.147273 
L 298.812169 -66.147273 
L 297.87198 -66.147273 
L 296.931791 -66.147273 
L 295.991603 -66.147273 
L 295.051414 -66.147273 
L 294.111226 -66.147273 
L 293.171037 -66.147273 
L 292.230849 -66.147273 
L 291.29066 -66.147273 
L 290.350471 -66.147273 
L 289.410283 -66.147273 
L 288.470094 -66.147273 
L 287.529906 -66.147273 
L 286.589717 -66.147273 
L 285.649529 -66.147273 
L 284.70934 -66.147273 
L 283.769151 -66.147273 
L 282.828963 -66.147273 
L 281.888774 -66.147273 
L 280.948586 -66.147273 
L 280.008397 -66.147273 
L 279.068209 -66.147273 
L 278.12802 -66.147273 
L 277.187831 -66.147273 
L 276.247643 -66.147273 
L 275.307454 -66.147273 
L 274.367266 -66.147273 
L 273.427077 -66.147273 
L 272.486888 -66.147273 
L 271.5467 -66.147273 
L 270.606511 -66.147273 
L 269.666323 -66.147273 
L 268.726134 -66.147273 
L 267.785946 -66.147273 
L 266.845757 -66.147273 
L 265.905568 -66.147273 
L 264.96538 -66.147273 
L 264.025191 -66.147273 
L 263.085003 -66.147273 
L 262.144814 -66.147273 
L 261.204626 -66.147273 
L 260.264437 -66.147273 
L 259.324248 -66.147273 
L 258.38406 -66.147273 
L 257.443871 -66.147273 
L 256.503683 -66.147273 
L 255.563494 -66.147273 
L 254.623305 -66.147273 
L 253.683117 -66.147273 
L 252.742928 -66.147273 
L 251.80274 -66.147273 
L 250.862551 -66.147273 
L 249.922363 -66.147273 
L 248.982174 -66.147273 
L 248.041985 -66.147273 
L 247.101797 -66.147273 
L 246.161608 -66.147273 
L 245.22142 -66.147273 
L 244.281231 -66.147273 
L 243.341043 -66.147273 
L 242.400854 -66.147273 
L 241.460665 -66.147273 
L 240.520477 -66.147273 
L 239.580288 -66.147273 
L 238.6401 -66.147273 
L 237.699911 -66.147273 
L 236.759722 -66.147273 
L 235.819534 -66.147273 
L 234.879345 -66.147273 
L 233.939157 -66.147273 
L 232.998968 -66.147273 
L 232.05878 -66.147273 
L 231.118591 -66.147273 
L 230.178402 -66.147273 
L 229.238214 -66.147273 
L 228.298025 -66.147273 
L 227.357837 -66.147273 
L 226.417648 -66.147273 
L 225.47746 -66.147273 
L 224.537271 -66.147273 
L 223.597082 -66.147273 
L 222.656894 -66.147273 
L 221.716705 -66.147273 
L 220.776517 -66.147273 
L 219.836328 -66.147273 
L 218.896139 -66.147273 
L 217.955951 -66.147273 
L 217.015762 -66.147273 
L 216.075574 -66.147273 
L 215.135385 -66.147273 
L 214.195197 -66.147273 
L 213.255008 -66.147273 
L 212.314819 -66.147273 
L 211.374631 -66.147273 
L 210.434442 -66.147273 
L 209.494254 -66.147273 
L 208.554065 -66.147273 
L 207.613877 -66.147273 
L 206.673688 -66.147273 
L 205.733499 -66.147273 
L 204.793311 -66.147273 
L 203.853122 -66.147273 
L 202.912934 -66.147273 
L 201.972745 -66.147273 
L 201.032556 -66.147273 
L 200.092368 -66.147273 
L 199.152179 -66.147273 
L 198.211991 -66.147273 
L 197.271802 -66.147273 
L 196.331614 -66.147273 
L 195.391425 -66.147273 
L 194.451236 -66.147273 
L 193.511048 -66.147273 
L 192.570859 -66.147273 
L 191.630671 -66.147273 
L 190.690482 -66.147273 
L 189.750294 -66.147273 
L 188.810105 -66.147273 
L 187.869916 -66.147273 
L 186.929728 -66.147273 
L 185.989539 -66.147273 
L 185.049351 -66.147273 
L 184.109162 -66.147273 
L 183.168973 -66.147273 
L 182.228785 -66.147273 
L 181.288596 -66.147273 
L 180.348408 -66.147273 
L 179.408219 -66.147273 
L 178.468031 -66.147273 
L 177.527842 -66.147273 
L 176.587653 -66.147273 
L 175.647465 -66.147273 
L 174.707276 -66.147273 
L 173.767088 -66.147273 
L 172.826899 -66.147273 
L 171.886711 -66.147273 
L 170.946522 -66.147273 
L 170.006333 -66.147273 
L 169.066145 -66.147273 
L 168.125956 -66.147273 
L 167.185768 -66.147273 
L 166.245579 -66.147273 
L 165.30539 -66.147273 
L 164.365202 -66.147273 
L 163.425013 -66.147273 
L 162.484825 -66.147273 
L 161.544636 -66.147273 
L 160.604448 -66.147273 
L 159.664259 -66.147273 
L 158.72407 -66.147273 
L 157.783882 -66.147273 
L 156.843693 -66.147273 
L 155.903505 -66.147273 
L 154.963316 -66.147273 
L 154.023128 -66.147273 
L 153.082939 -66.147273 
L 152.14275 -66.147273 
L 151.202562 -66.147273 
L 150.262373 -66.147273 
L 149.322185 -66.147273 
L 148.381996 -66.147273 
L 147.441808 -66.147273 
L 146.501619 -66.147273 
L 145.56143 -66.147273 
L 144.621242 -66.147273 
L 143.681053 -66.147273 
L 142.740865 -66.147273 
L 141.800676 -66.147273 
L 140.860487 -66.147273 
L 139.920299 -66.147273 
L 138.98011 -66.147273 
L 138.039922 -66.147273 
L 137.099733 -66.147273 
L 136.159545 -66.147273 
L 135.219356 -66.147273 
L 134.279167 -66.147273 
L 133.338979 -66.147273 
L 132.39879 -66.147273 
L 131.458602 -66.147273 
L 130.518413 -66.147273 
L 129.578225 -66.147273 
L 128.638036 -66.147273 
L 127.697847 -66.147273 
L 126.757659 -66.147273 
L 125.81747 -66.147273 
L 124.877282 -66.147273 
L 123.937093 -66.147273 
L 122.996904 -66.147273 
L 122.056716 -66.147273 
L 121.116527 -66.147273 
L 120.176339 -66.147273 
L 119.23615 -66.147273 
L 118.295962 -66.147273 
L 117.355773 -66.147273 
L 116.415584 -66.147273 
L 115.475396 -66.147273 
L 114.535207 -66.147273 
L 113.595019 -66.147273 
L 112.65483 -66.147273 
L 111.714642 -66.147273 
L 110.774453 -66.147273 
L 109.834264 -66.147273 
L 108.894076 -66.147273 
L 107.953887 -66.147273 
L 107.013699 -66.147273 
L 106.07351 -66.147273 
L 105.133321 -66.147273 
L 104.193133 -66.147273 
L 103.252944 -66.147273 
L 102.312756 -66.147273 
L 101.372567 -66.147273 
L 100.432379 -66.147273 
L 99.49219 -66.147273 
L 98.552001 -66.147273 
L 97.611813 -66.147273 
L 96.671624 -66.147273 
L 95.731436 -66.147273 
L 94.791247 -66.147273 
L 93.851059 -66.147273 
L 92.91087 -66.147273 
L 91.970681 -66.147273 
L 91.030493 -66.147273 
L 90.090304 -66.147273 
L 89.150116 -66.147273 
L 88.209927 -66.147273 
L 87.269738 -66.147273 
L 86.32955 -66.147273 
L 85.389361 -66.147273 
L 84.449173 -66.147273 
L 83.508984 -66.147273 
L 82.568796 -66.147273 
L 81.628607 -66.147273 
L 80.688418 -66.147273 
L 79.74823 -66.147273 
L 78.808041 -66.147273 
L 77.867853 -66.147273 
L 76.927664 -66.147273 
L 75.987476 -66.147273 
L 75.047287 -66.147273 
L 74.107098 -66.147273 
L 73.16691 -66.147273 
L 72.226721 -66.147273 
L 71.286533 -66.147273 
L 70.346344 -66.147273 
L 69.406155 -66.147273 
L 68.465967 -66.147273 
L 67.525778 -66.147273 
L 66.58559 -66.147273 
L 65.645401 -66.147273 
L 64.705213 -66.147273 
L 63.765024 -66.147273 
L 62.824835 -66.147273 
L 61.884647 -66.147273 
L 60.944458 -66.147273 
L 60.00427 -66.147273 
L 59.064081 -66.147273 
L 58.123893 -66.147273 
L 57.183704 -66.147273 
L 56.243515 -66.147273 
L 55.303327 -66.147273 
L 54.363138 -66.147273 
L 53.42295 -66.147273 
L 52.482761 -66.147273 
L 51.542572 -66.147273 
L 50.602384 -66.147273 
L 49.662195 -66.147273 
L 48.722007 -66.147273 
L 47.781818 -66.147273 
z
" style="stroke: #7570b3; stroke-opacity: 0.6; stroke-width: 0.3"/>
    </defs>
    <g clip-path="url(#pa2c15856ec)">
     <use xlink:href="#m22a58e4d86" x="0" y="432" style="fill: #7570b3; fill-opacity: 0.6; stroke: #7570b3; stroke-opacity: 0.6; stroke-width: 0.3"/>
    </g>
   </g>
   <g id="line2d_17">
    <path d="M 47.781818 362.915087 
L 65.645401 362.840441 
L 71.286533 362.418776 
L 76.927664 361.763689 
L 83.508984 360.780069 
L 90.090304 359.582372 
L 94.791247 358.529589 
L 98.552001 357.50466 
L 103.252944 355.955332 
L 107.013699 354.458622 
L 110.774453 352.711431 
L 114.535207 350.69346 
L 118.295962 348.463024 
L 122.996904 345.467387 
L 129.578225 340.875051 
L 133.338979 338.009285 
L 137.099733 334.798021 
L 139.920299 332.113037 
L 142.740865 329.135776 
L 145.56143 325.841183 
L 148.381996 322.284117 
L 152.14275 317.18153 
L 155.903505 311.718024 
L 161.544636 303.178375 
L 167.185768 294.253443 
L 173.767088 283.431245 
L 179.408219 273.680729 
L 184.109162 265.062268 
L 188.810105 256.074936 
L 193.511048 246.58661 
L 198.211991 236.515175 
L 203.853122 223.691073 
L 209.494254 210.454072 
L 219.836328 185.563554 
L 229.238214 163.134841 
L 234.879345 150.074501 
L 242.400854 133.414354 
L 263.085003 89.100418 
L 266.845757 81.653482 
L 269.666323 76.733965 
L 271.5467 73.899839 
L 273.427077 71.429898 
L 275.307454 69.438643 
L 277.187831 67.858443 
L 279.068209 66.815737 
L 280.008397 66.459772 
L 281.888774 66.107273 
L 283.769151 66.253124 
L 285.649529 66.801562 
L 287.529906 67.660951 
L 289.410283 68.854189 
L 292.230849 71.059267 
L 297.87198 75.943708 
L 300.692546 78.339116 
L 304.4533 81.112452 
L 307.273866 82.886592 
L 313.855186 86.768321 
L 315.735563 87.985151 
L 317.61594 89.390522 
L 319.496317 91.025867 
L 321.376695 92.97205 
L 323.257072 95.307288 
L 325.137449 98.035174 
L 327.017826 101.131861 
L 328.898203 104.592169 
L 330.77858 108.519183 
L 332.658957 112.809457 
L 335.479523 119.904133 
L 338.300089 127.577035 
L 342.060843 138.500225 
L 348.642163 158.241016 
L 360.864615 194.403459 
L 369.326312 218.67489 
L 374.027255 231.504117 
L 377.788009 241.211196 
L 381.548764 250.28834 
L 385.309518 258.808867 
L 389.070272 266.736949 
L 392.831027 274.246422 
L 398.472158 284.785783 
L 402.232912 291.341847 
L 405.993667 297.508635 
L 410.69461 304.685511 
L 413.515175 308.649265 
L 417.27593 313.613741 
L 421.036684 318.212456 
L 424.797438 322.499689 
L 428.558192 326.456681 
L 432.318947 330.110107 
L 436.079701 333.489437 
L 440.780644 337.409086 
L 444.541398 340.298859 
L 449.242341 343.594196 
L 453.003096 345.968184 
L 456.76385 348.090976 
L 460.524604 349.940689 
L 465.225547 351.963395 
L 472.747056 354.892433 
L 484.969507 359.356504 
L 489.67045 360.812343 
L 494.371393 362.060228 
L 499.072336 363.074828 
L 503.773279 363.852619 
L 508.474222 364.405202 
L 514.115353 364.786084 
L 519.756485 364.923708 
L 528.218182 364.93311 
L 528.218182 364.93311 
" clip-path="url(#pa2c15856ec)" style="fill: none; stroke: #7570b3; stroke-width: 2; stroke-linecap: round"/>
   </g>
   <g id="line2d_18">
    <path d="M 173.291003 359.558073 
L 401.508342 359.558073 
" clip-path="url(#pa2c15856ec)" style="fill: none; stroke: #000000; stroke-width: 3.5"/>
   </g>
   <g id="patch_3">
    <path d="M 23.76 380.84 
L 552.24 380.84 
" style="fill: none; stroke: #333333; stroke-width: 1.5; stroke-linejoin: miter; stroke-linecap: square"/>
   </g>
   <g id="text_9">
    <text style="font-size: 22px; font-family: 'DejaVu Serif', 'Times New Roman', serif; text-anchor: end; fill: #262626" x="173.291003" y="343.821436" transform="rotate(-0 173.291003 343.821436)">0.91 </text>
   </g>
   <g id="text_10">
    <text style="font-size: 22px; font-family: 'DejaVu Serif', 'Times New Roman', serif; text-anchor: start; fill: #262626" x="401.508342" y="343.821436" transform="rotate(-0 401.508342 343.821436)"> 0.98</text>
   </g>
   <g id="text_11">
    <text style="font-size: 22px; font-family: 'DejaVu Serif', 'Times New Roman', serif; text-anchor: middle; fill: #262626" x="287.399673" y="271.432909" transform="rotate(-0 287.399673 271.432909)">90% HDI</text>
   </g>
   <g id="text_12">
    <text style="font-size: 22px; font-family: 'DejaVu Serif', 'Times New Roman', serif; text-anchor: middle; fill: #262626" x="287.417347" y="114.066545" transform="rotate(-0 287.417347 114.066545)">mean=0.94</text>
   </g>
   <g id="text_13">
    <!-- $x_3$ -->
    <g style="fill: #262626" transform="translate(273.02 45.12)">
     <text>
      <tspan x="0" y="-0.6875" style="font-style: oblique; font-size: 28px; font-family: 'DejaVu Sans'; fill: #262626">x</tspan>
      <tspan x="16.570312" y="3.90625" style="font-size: 19.6px; font-family: 'DejaVu Sans'; fill: #262626">3</tspan>
     </text>
    </g>
   </g>
  </g>
 </g>
 <defs>
  <clipPath id="pa2c15856ec">
   <rect x="23.76" y="51.12" width="528.48" height="329.72"/>
  </clipPath>
 </defs>
</svg>
