<?xml version="1.0" encoding="utf-8" standalone="no"?>
<!DOCTYPE svg PUBLIC "-//W3C//DTD SVG 1.1//EN"
  "http://www.w3.org/Graphics/SVG/1.1/DTD/svg11.dtd">
<svg xmlns:xlink="http://www.w3.org/1999/xlink" width="576pt" height="432pt" viewBox="0 0 576 432" xmlns="http://www.w3.org/2000/svg" version="1.1">
 <metadata>
  <rdf:RDF xmlns:dc="http://purl.org/dc/elements/1.1/" xmlns:cc="http://creativecommons.org/ns#" xmlns:rdf="http://www.w3.org/1999/02/22-rdf-syntax-ns#">
   <cc:Work>
    <dc:type rdf:resource="http://purl.org/dc/dcmitype/StillImage"/>
    <dc:date>2025-09-22T22:41:52.490931</dc:date>
    <dc:format>image/svg+xml</dc:format>
    <dc:creator>
     <cc:Agent>
      <dc:title>Matplotlib v3.10.0, https://matplotlib.org/</dc:title>
     </cc:Agent>
    </dc:creator>
   </cc:Work>
  </rdf:RDF>
 </metadata>
 <defs>
  <style type="text/css">*{stroke-linejoin: round; stroke-linecap: butt}</style>
 </defs>
 <g id="figure_1">
  <g id="patch_1">
   <path d="M 0 432 
L 576 432 
L 576 0 
L 0 0 
L 0 432 
z
" style="fill: none; opacity: 0"/>
  </g>
  <g id="axes_1">
   <g id="patch_2">
    <path d="M 23.76 380.84 
L 552.24 380.84 
L 552.24 57.564 
L 23.76 57.564 
L 23.76 380.84 
z
" style="fill: none"/>
   </g>
   <g id="matplotlib.axis_1">
    <g id="xtick_1">
     <g id="line2d_1">
      <path d="M 94.961302 380.84 
L 94.961302 57.564 
" clip-path="url(#pf4299f861f)" style="fill: none; stroke: #ffffff; stroke-opacity: 0.4; stroke-linecap: round"/>
     </g>
     <g id="line2d_2">
      <defs>
       <path id="mf120c8fb81" d="M 0 0 
L 0 3 
" style="stroke: #808080"/>
      </defs>
      <g>
       <use xlink:href="#mf120c8fb81" x="94.961302" y="380.84" style="fill: #808080; stroke: #808080"/>
      </g>
     </g>
     <g id="text_1">
      <text style="font-size: 18px; font-family: 'DejaVu Serif', 'Times New Roman', serif; text-anchor: middle; fill: #262626" x="94.961302" y="404.517187" transform="rotate(-0 94.961302 404.517187)">−0.38</text>
     </g>
    </g>
    <g id="xtick_2">
     <g id="line2d_3">
      <path d="M 173.728348 380.84 
L 173.728348 57.564 
" clip-path="url(#pf4299f861f)" style="fill: none; stroke: #ffffff; stroke-opacity: 0.4; stroke-linecap: round"/>
     </g>
     <g id="line2d_4">
      <g>
       <use xlink:href="#mf120c8fb81" x="173.728348" y="380.84" style="fill: #808080; stroke: #808080"/>
      </g>
     </g>
     <g id="text_2">
      <text style="font-size: 18px; font-family: 'DejaVu Serif', 'Times New Roman', serif; text-anchor: middle; fill: #262626" x="173.728348" y="404.517187" transform="rotate(-0 173.728348 404.517187)">−0.36</text>
     </g>
    </g>
    <g id="xtick_3">
     <g id="line2d_5">
      <path d="M 252.495394 380.84 
L 252.495394 57.564 
" clip-path="url(#pf4299f861f)" style="fill: none; stroke: #ffffff; stroke-opacity: 0.4; stroke-linecap: round"/>
     </g>
     <g id="line2d_6">
      <g>
       <use xlink:href="#mf120c8fb81" x="252.495394" y="380.84" style="fill: #808080; stroke: #808080"/>
      </g>
     </g>
     <g id="text_3">
      <text style="font-size: 18px; font-family: 'DejaVu Serif', 'Times New Roman', serif; text-anchor: middle; fill: #262626" x="252.495394" y="404.517187" transform="rotate(-0 252.495394 404.517187)">−0.34</text>
     </g>
    </g>
    <g id="xtick_4">
     <g id="line2d_7">
      <path d="M 331.262441 380.84 
L 331.262441 57.564 
" clip-path="url(#pf4299f861f)" style="fill: none; stroke: #ffffff; stroke-opacity: 0.4; stroke-linecap: round"/>
     </g>
     <g id="line2d_8">
      <g>
       <use xlink:href="#mf120c8fb81" x="331.262441" y="380.84" style="fill: #808080; stroke: #808080"/>
      </g>
     </g>
     <g id="text_4">
      <text style="font-size: 18px; font-family: 'DejaVu Serif', 'Times New Roman', serif; text-anchor: middle; fill: #262626" x="331.262441" y="404.517187" transform="rotate(-0 331.262441 404.517187)">−0.32</text>
     </g>
    </g>
    <g id="xtick_5">
     <g id="line2d_9">
      <path d="M 410.029487 380.84 
L 410.029487 57.564 
" clip-path="url(#pf4299f861f)" style="fill: none; stroke: #ffffff; stroke-opacity: 0.4; stroke-linecap: round"/>
     </g>
     <g id="line2d_10">
      <g>
       <use xlink:href="#mf120c8fb81" x="410.029487" y="380.84" style="fill: #808080; stroke: #808080"/>
      </g>
     </g>
     <g id="text_5">
      <text style="font-size: 18px; font-family: 'DejaVu Serif', 'Times New Roman', serif; text-anchor: middle; fill: #262626" x="410.029487" y="404.517187" transform="rotate(-0 410.029487 404.517187)">−0.30</text>
     </g>
    </g>
    <g id="xtick_6">
     <g id="line2d_11">
      <path d="M 488.796533 380.84 
L 488.796533 57.564 
" clip-path="url(#pf4299f861f)" style="fill: none; stroke: #ffffff; stroke-opacity: 0.4; stroke-linecap: round"/>
     </g>
     <g id="line2d_12">
      <g>
       <use xlink:href="#mf120c8fb81" x="488.796533" y="380.84" style="fill: #808080; stroke: #808080"/>
      </g>
     </g>
     <g id="text_6">
      <text style="font-size: 18px; font-family: 'DejaVu Serif', 'Times New Roman', serif; text-anchor: middle; fill: #262626" x="488.796533" y="404.517187" transform="rotate(-0 488.796533 404.517187)">−0.28</text>
     </g>
    </g>
   </g>
   <g id="matplotlib.axis_2"/>
   <g id="FillBetweenPolyCollection_1">
    <defs>
     <path id="mb66e646106" d="M 47.781818 -65.854364 
L 47.781818 -66.778009 
L 48.722007 -66.771808 
L 49.662195 -66.771659 
L 50.602384 -66.770571 
L 51.542572 -66.766011 
L 52.482761 -66.759013 
L 53.42295 -66.762784 
L 54.363138 -66.764462 
L 55.303327 -66.767648 
L 56.243515 -66.773859 
L 57.183704 -66.783909 
L 58.123893 -66.797886 
L 59.064081 -66.816599 
L 60.00427 -66.840804 
L 60.944458 -66.87119 
L 61.884647 -66.908353 
L 62.824835 -66.952778 
L 63.765024 -67.008432 
L 64.705213 -67.069223 
L 65.645401 -67.138101 
L 66.58559 -67.214989 
L 67.525778 -67.303249 
L 68.465967 -67.399767 
L 69.406155 -67.500541 
L 70.346344 -67.607744 
L 71.286533 -67.724147 
L 72.226721 -67.842469 
L 73.16691 -67.96451 
L 74.107098 -68.092721 
L 75.047287 -68.223175 
L 75.987476 -68.351182 
L 76.927664 -68.481984 
L 77.867853 -68.608052 
L 78.808041 -68.73471 
L 79.74823 -68.861788 
L 80.688418 -68.985802 
L 81.628607 -69.106309 
L 82.568796 -69.223071 
L 83.508984 -69.336077 
L 84.449173 -69.44195 
L 85.389361 -69.543868 
L 86.32955 -69.638767 
L 87.269738 -69.730852 
L 88.209927 -69.828893 
L 89.150116 -69.924164 
L 90.090304 -70.023807 
L 91.030493 -70.126683 
L 91.970681 -70.227438 
L 92.91087 -70.33344 
L 93.851059 -70.44995 
L 94.791247 -70.5795 
L 95.731436 -70.713919 
L 96.671624 -70.860447 
L 97.611813 -71.027656 
L 98.552001 -71.207695 
L 99.49219 -71.411778 
L 100.432379 -71.631793 
L 101.372567 -71.871443 
L 102.312756 -72.131311 
L 103.252944 -72.408089 
L 104.193133 -72.722537 
L 105.133321 -73.042663 
L 106.07351 -73.396599 
L 107.013699 -73.75821 
L 107.953887 -74.145109 
L 108.894076 -74.550606 
L 109.834264 -74.977203 
L 110.774453 -75.410162 
L 111.714642 -75.870927 
L 112.65483 -76.33983 
L 113.595019 -76.817746 
L 114.535207 -77.302585 
L 115.475396 -77.803002 
L 116.415584 -78.319476 
L 117.355773 -78.845775 
L 118.295962 -79.381656 
L 119.23615 -79.913463 
L 120.176339 -80.470387 
L 121.116527 -81.038097 
L 122.056716 -81.614039 
L 122.996904 -82.189323 
L 123.937093 -82.791422 
L 124.877282 -83.416299 
L 125.81747 -84.045274 
L 126.757659 -84.682218 
L 127.697847 -85.355089 
L 128.638036 -86.039338 
L 129.578225 -86.755919 
L 130.518413 -87.490858 
L 131.458602 -88.258429 
L 132.39879 -89.055025 
L 133.338979 -89.881773 
L 134.279167 -90.742368 
L 135.219356 -91.624514 
L 136.159545 -92.551068 
L 137.099733 -93.495472 
L 138.039922 -94.493513 
L 138.98011 -95.510505 
L 139.920299 -96.567625 
L 140.860487 -97.622888 
L 141.800676 -98.721108 
L 142.740865 -99.836594 
L 143.681053 -100.965299 
L 144.621242 -102.109101 
L 145.56143 -103.275455 
L 146.501619 -104.478677 
L 147.441808 -105.675799 
L 148.381996 -106.866008 
L 149.322185 -108.067401 
L 150.262373 -109.265519 
L 151.202562 -110.474572 
L 152.14275 -111.680014 
L 153.082939 -112.873224 
L 154.023128 -114.065657 
L 154.963316 -115.241968 
L 155.903505 -116.398974 
L 156.843693 -117.555059 
L 157.783882 -118.687026 
L 158.72407 -119.796641 
L 159.664259 -120.892828 
L 160.604448 -121.993624 
L 161.544636 -123.0643 
L 162.484825 -124.133687 
L 163.425013 -125.186972 
L 164.365202 -126.227433 
L 165.30539 -127.255748 
L 166.245579 -128.273555 
L 167.185768 -129.292146 
L 168.125956 -130.30823 
L 169.066145 -131.327413 
L 170.006333 -132.372398 
L 170.946522 -133.396507 
L 171.886711 -134.416582 
L 172.826899 -135.452136 
L 173.767088 -136.520253 
L 174.707276 -137.617251 
L 175.647465 -138.736937 
L 176.587653 -139.866575 
L 177.527842 -141.024136 
L 178.468031 -142.238252 
L 179.408219 -143.51112 
L 180.348408 -144.810105 
L 181.288596 -146.173347 
L 182.228785 -147.599922 
L 183.168973 -149.073196 
L 184.109162 -150.617903 
L 185.049351 -152.212734 
L 185.989539 -153.91372 
L 186.929728 -155.66951 
L 187.869916 -157.500729 
L 188.810105 -159.402356 
L 189.750294 -161.393681 
L 190.690482 -163.486287 
L 191.630671 -165.625905 
L 192.570859 -167.848019 
L 193.511048 -170.147665 
L 194.451236 -172.506422 
L 195.391425 -174.921134 
L 196.331614 -177.425575 
L 197.271802 -180.013802 
L 198.211991 -182.669323 
L 199.152179 -185.371845 
L 200.092368 -188.116718 
L 201.032556 -190.887476 
L 201.972745 -193.728326 
L 202.912934 -196.616502 
L 203.853122 -199.512137 
L 204.793311 -202.465328 
L 205.733499 -205.445721 
L 206.673688 -208.444184 
L 207.613877 -211.466819 
L 208.554065 -214.472167 
L 209.494254 -217.439244 
L 210.434442 -220.421885 
L 211.374631 -223.397773 
L 212.314819 -226.388128 
L 213.255008 -229.33085 
L 214.195197 -232.271342 
L 215.135385 -235.168711 
L 216.075574 -238.054211 
L 217.015762 -240.906538 
L 217.955951 -243.746388 
L 218.896139 -246.543152 
L 219.836328 -249.34955 
L 220.776517 -252.123778 
L 221.716705 -254.863245 
L 222.656894 -257.568106 
L 223.597082 -260.268905 
L 224.537271 -262.943712 
L 225.47746 -265.5518 
L 226.417648 -268.195498 
L 227.357837 -270.848608 
L 228.298025 -273.500248 
L 229.238214 -276.150382 
L 230.178402 -278.804355 
L 231.118591 -281.459856 
L 232.05878 -284.130892 
L 232.998968 -286.821036 
L 233.939157 -289.524591 
L 234.879345 -292.274406 
L 235.819534 -295.014566 
L 236.759722 -297.795273 
L 237.699911 -300.592585 
L 238.6401 -303.396418 
L 239.580288 -306.216867 
L 240.520477 -309.046368 
L 241.460665 -311.902879 
L 242.400854 -314.746874 
L 243.341043 -317.583872 
L 244.281231 -320.39779 
L 245.22142 -323.192372 
L 246.161608 -325.930779 
L 247.101797 -328.673932 
L 248.041985 -331.340037 
L 248.982174 -333.878044 
L 249.922363 -336.403573 
L 250.862551 -338.86796 
L 251.80274 -341.214698 
L 252.742928 -343.414701 
L 253.683117 -345.546312 
L 254.623305 -347.528163 
L 255.563494 -349.388329 
L 256.503683 -351.10764 
L 257.443871 -352.66392 
L 258.38406 -354.052721 
L 259.324248 -355.294265 
L 260.264437 -356.371084 
L 261.204626 -357.331168 
L 262.144814 -358.073845 
L 263.085003 -358.687507 
L 264.025191 -359.165094 
L 264.96538 -359.488194 
L 265.905568 -359.677357 
L 266.845757 -359.741636 
L 267.785946 -359.669342 
L 268.726134 -359.459947 
L 269.666323 -359.126705 
L 270.606511 -358.748061 
L 271.5467 -358.273558 
L 272.486888 -357.764323 
L 273.427077 -357.154497 
L 274.367266 -356.504884 
L 275.307454 -355.784065 
L 276.247643 -355.047299 
L 277.187831 -354.308738 
L 278.12802 -353.549908 
L 279.068209 -352.797523 
L 280.008397 -352.110066 
L 280.948586 -351.391623 
L 281.888774 -350.715563 
L 282.828963 -350.063978 
L 283.769151 -349.473507 
L 284.70934 -348.918307 
L 285.649529 -348.414642 
L 286.589717 -347.947557 
L 287.529906 -347.562837 
L 288.470094 -347.268508 
L 289.410283 -346.993825 
L 290.350471 -346.768685 
L 291.29066 -346.553614 
L 292.230849 -346.419303 
L 293.171037 -346.312378 
L 294.111226 -346.236508 
L 295.051414 -346.209104 
L 295.991603 -346.19428 
L 296.931791 -346.18241 
L 297.87198 -346.185835 
L 298.812169 -346.199191 
L 299.752357 -346.17132 
L 300.692546 -346.16284 
L 301.632734 -346.151072 
L 302.572923 -346.090627 
L 303.513112 -345.984926 
L 304.4533 -345.87864 
L 305.393489 -345.73257 
L 306.333677 -345.523846 
L 307.273866 -345.288844 
L 308.214054 -344.982695 
L 309.154243 -344.63912 
L 310.094432 -344.221185 
L 311.03462 -343.762055 
L 311.974809 -343.22302 
L 312.914997 -342.614315 
L 313.855186 -341.932061 
L 314.795374 -341.191741 
L 315.735563 -340.364139 
L 316.675752 -339.453312 
L 317.61594 -338.528599 
L 318.556129 -337.467474 
L 319.496317 -336.350824 
L 320.436506 -335.139534 
L 321.376695 -333.870149 
L 322.316883 -332.516305 
L 323.257072 -331.092875 
L 324.19726 -329.589165 
L 325.137449 -328.01361 
L 326.077637 -326.336761 
L 327.017826 -324.596724 
L 327.958015 -322.828703 
L 328.898203 -320.97743 
L 329.838392 -319.03867 
L 330.77858 -317.066147 
L 331.718769 -315.052276 
L 332.658957 -312.960886 
L 333.599146 -310.874419 
L 334.539335 -308.746823 
L 335.479523 -306.588224 
L 336.419712 -304.415389 
L 337.3599 -302.245455 
L 338.300089 -300.103395 
L 339.240278 -297.930047 
L 340.180466 -295.733752 
L 341.120655 -293.601537 
L 342.060843 -291.435591 
L 343.001032 -289.264796 
L 343.94122 -287.130799 
L 344.881409 -284.983866 
L 345.821598 -282.838986 
L 346.761786 -280.724704 
L 347.701975 -278.629175 
L 348.642163 -276.499345 
L 349.582352 -274.339519 
L 350.52254 -272.201297 
L 351.462729 -269.969901 
L 352.402918 -267.765936 
L 353.343106 -265.516843 
L 354.283295 -263.263328 
L 355.223483 -260.921159 
L 356.163672 -258.546403 
L 357.103861 -256.164312 
L 358.044049 -253.723756 
L 358.984238 -251.210971 
L 359.924426 -248.6623 
L 360.864615 -246.061631 
L 361.804803 -243.458801 
L 362.744992 -240.788945 
L 363.685181 -238.105026 
L 364.625369 -235.413613 
L 365.565558 -232.727993 
L 366.505746 -230.033033 
L 367.445935 -227.337902 
L 368.386123 -224.652767 
L 369.326312 -222.014081 
L 370.266501 -219.401972 
L 371.206689 -216.82303 
L 372.146878 -214.298917 
L 373.087066 -211.820529 
L 374.027255 -209.379779 
L 374.967444 -207.002749 
L 375.907632 -204.698551 
L 376.847821 -202.466352 
L 377.788009 -200.301251 
L 378.728198 -198.207253 
L 379.668386 -196.153113 
L 380.608575 -194.174229 
L 381.548764 -192.245491 
L 382.488952 -190.362296 
L 383.429141 -188.509335 
L 384.369329 -186.659633 
L 385.309518 -184.864688 
L 386.249706 -183.06769 
L 387.189895 -181.319121 
L 388.130084 -179.566788 
L 389.070272 -177.845114 
L 390.010461 -176.106055 
L 390.950649 -174.382735 
L 391.890838 -172.659404 
L 392.831027 -170.900704 
L 393.771215 -169.133588 
L 394.711404 -167.348674 
L 395.651592 -165.560394 
L 396.591781 -163.700017 
L 397.531969 -161.870849 
L 398.472158 -160.01787 
L 399.412347 -158.149169 
L 400.352535 -156.278993 
L 401.292724 -154.398568 
L 402.232912 -152.520234 
L 403.173101 -150.625986 
L 404.113289 -148.748218 
L 405.053478 -146.872521 
L 405.993667 -145.023595 
L 406.933855 -143.190723 
L 407.874044 -141.357374 
L 408.814232 -139.558919 
L 409.754421 -137.782042 
L 410.69461 -136.037993 
L 411.634798 -134.314819 
L 412.574987 -132.62934 
L 413.515175 -130.978706 
L 414.455364 -129.374079 
L 415.395552 -127.781664 
L 416.335741 -126.222416 
L 417.27593 -124.679579 
L 418.216118 -123.197017 
L 419.156307 -121.734009 
L 420.096495 -120.305177 
L 421.036684 -118.922914 
L 421.976872 -117.566595 
L 422.917061 -116.204827 
L 423.85725 -114.899333 
L 424.797438 -113.619678 
L 425.737627 -112.351581 
L 426.677815 -111.095304 
L 427.618004 -109.877193 
L 428.558192 -108.684183 
L 429.498381 -107.486513 
L 430.43857 -106.343899 
L 431.378758 -105.207784 
L 432.318947 -104.085475 
L 433.259135 -102.964189 
L 434.199324 -101.889357 
L 435.139513 -100.817159 
L 436.079701 -99.753695 
L 437.01989 -98.730472 
L 437.960078 -97.723223 
L 438.900267 -96.75366 
L 439.840455 -95.787632 
L 440.780644 -94.850669 
L 441.720833 -93.937621 
L 442.661021 -93.059123 
L 443.60121 -92.191725 
L 444.541398 -91.355719 
L 445.481587 -90.548433 
L 446.421775 -89.776398 
L 447.361964 -89.035441 
L 448.302153 -88.302704 
L 449.242341 -87.629489 
L 450.18253 -86.978259 
L 451.122718 -86.346933 
L 452.062907 -85.759959 
L 453.003096 -85.193328 
L 453.943284 -84.65053 
L 454.883473 -84.139629 
L 455.823661 -83.643598 
L 456.76385 -83.160673 
L 457.704038 -82.720676 
L 458.644227 -82.310388 
L 459.584416 -81.894079 
L 460.524604 -81.501674 
L 461.464793 -81.135342 
L 462.404981 -80.776341 
L 463.34517 -80.439648 
L 464.285358 -80.101342 
L 465.225547 -79.769501 
L 466.165736 -79.442984 
L 467.105924 -79.121536 
L 468.046113 -78.804347 
L 468.986301 -78.487193 
L 469.92649 -78.164515 
L 470.866679 -77.852071 
L 471.806867 -77.545254 
L 472.747056 -77.243401 
L 473.687244 -76.943269 
L 474.627433 -76.642464 
L 475.567621 -76.347868 
L 476.50781 -76.056506 
L 477.447999 -75.771906 
L 478.388187 -75.482673 
L 479.328376 -75.199978 
L 480.268564 -74.932764 
L 481.208753 -74.665224 
L 482.148941 -74.413514 
L 483.08913 -74.161761 
L 484.029319 -73.917405 
L 484.969507 -73.683402 
L 485.909696 -73.453376 
L 486.849884 -73.233593 
L 487.790073 -73.020244 
L 488.730262 -72.810119 
L 489.67045 -72.615542 
L 490.610639 -72.426171 
L 491.550827 -72.229454 
L 492.491016 -72.046676 
L 493.431204 -71.860728 
L 494.371393 -71.683686 
L 495.311582 -71.504927 
L 496.25177 -71.327401 
L 497.191959 -71.147661 
L 498.132147 -70.971555 
L 499.072336 -70.797995 
L 500.012524 -70.620434 
L 500.952713 -70.439515 
L 501.892902 -70.258754 
L 502.83309 -70.083952 
L 503.773279 -69.902681 
L 504.713467 -69.722493 
L 505.653656 -69.549582 
L 506.593845 -69.374726 
L 507.534033 -69.205156 
L 508.474222 -69.032472 
L 509.41441 -68.8674 
L 510.354599 -68.707131 
L 511.294787 -68.555289 
L 512.234976 -68.403372 
L 513.175165 -68.262652 
L 514.115353 -68.132918 
L 515.055542 -68.007533 
L 515.99573 -67.893257 
L 516.935919 -67.793994 
L 517.876107 -67.697271 
L 518.816296 -67.608868 
L 519.756485 -67.525836 
L 520.696673 -67.451444 
L 521.636862 -67.393236 
L 522.57705 -67.34176 
L 523.517239 -67.301764 
L 524.457428 -67.263084 
L 525.397616 -67.234681 
L 526.337805 -67.212737 
L 527.277993 -67.197066 
L 528.218182 -67.184654 
L 528.218182 -65.854364 
L 528.218182 -65.854364 
L 527.277993 -65.854364 
L 526.337805 -65.854364 
L 525.397616 -65.854364 
L 524.457428 -65.854364 
L 523.517239 -65.854364 
L 522.57705 -65.854364 
L 521.636862 -65.854364 
L 520.696673 -65.854364 
L 519.756485 -65.854364 
L 518.816296 -65.854364 
L 517.876107 -65.854364 
L 516.935919 -65.854364 
L 515.99573 -65.854364 
L 515.055542 -65.854364 
L 514.115353 -65.854364 
L 513.175165 -65.854364 
L 512.234976 -65.854364 
L 511.294787 -65.854364 
L 510.354599 -65.854364 
L 509.41441 -65.854364 
L 508.474222 -65.854364 
L 507.534033 -65.854364 
L 506.593845 -65.854364 
L 505.653656 -65.854364 
L 504.713467 -65.854364 
L 503.773279 -65.854364 
L 502.83309 -65.854364 
L 501.892902 -65.854364 
L 500.952713 -65.854364 
L 500.012524 -65.854364 
L 499.072336 -65.854364 
L 498.132147 -65.854364 
L 497.191959 -65.854364 
L 496.25177 -65.854364 
L 495.311582 -65.854364 
L 494.371393 -65.854364 
L 493.431204 -65.854364 
L 492.491016 -65.854364 
L 491.550827 -65.854364 
L 490.610639 -65.854364 
L 489.67045 -65.854364 
L 488.730262 -65.854364 
L 487.790073 -65.854364 
L 486.849884 -65.854364 
L 485.909696 -65.854364 
L 484.969507 -65.854364 
L 484.029319 -65.854364 
L 483.08913 -65.854364 
L 482.148941 -65.854364 
L 481.208753 -65.854364 
L 480.268564 -65.854364 
L 479.328376 -65.854364 
L 478.388187 -65.854364 
L 477.447999 -65.854364 
L 476.50781 -65.854364 
L 475.567621 -65.854364 
L 474.627433 -65.854364 
L 473.687244 -65.854364 
L 472.747056 -65.854364 
L 471.806867 -65.854364 
L 470.866679 -65.854364 
L 469.92649 -65.854364 
L 468.986301 -65.854364 
L 468.046113 -65.854364 
L 467.105924 -65.854364 
L 466.165736 -65.854364 
L 465.225547 -65.854364 
L 464.285358 -65.854364 
L 463.34517 -65.854364 
L 462.404981 -65.854364 
L 461.464793 -65.854364 
L 460.524604 -65.854364 
L 459.584416 -65.854364 
L 458.644227 -65.854364 
L 457.704038 -65.854364 
L 456.76385 -65.854364 
L 455.823661 -65.854364 
L 454.883473 -65.854364 
L 453.943284 -65.854364 
L 453.003096 -65.854364 
L 452.062907 -65.854364 
L 451.122718 -65.854364 
L 450.18253 -65.854364 
L 449.242341 -65.854364 
L 448.302153 -65.854364 
L 447.361964 -65.854364 
L 446.421775 -65.854364 
L 445.481587 -65.854364 
L 444.541398 -65.854364 
L 443.60121 -65.854364 
L 442.661021 -65.854364 
L 441.720833 -65.854364 
L 440.780644 -65.854364 
L 439.840455 -65.854364 
L 438.900267 -65.854364 
L 437.960078 -65.854364 
L 437.01989 -65.854364 
L 436.079701 -65.854364 
L 435.139513 -65.854364 
L 434.199324 -65.854364 
L 433.259135 -65.854364 
L 432.318947 -65.854364 
L 431.378758 -65.854364 
L 430.43857 -65.854364 
L 429.498381 -65.854364 
L 428.558192 -65.854364 
L 427.618004 -65.854364 
L 426.677815 -65.854364 
L 425.737627 -65.854364 
L 424.797438 -65.854364 
L 423.85725 -65.854364 
L 422.917061 -65.854364 
L 421.976872 -65.854364 
L 421.036684 -65.854364 
L 420.096495 -65.854364 
L 419.156307 -65.854364 
L 418.216118 -65.854364 
L 417.27593 -65.854364 
L 416.335741 -65.854364 
L 415.395552 -65.854364 
L 414.455364 -65.854364 
L 413.515175 -65.854364 
L 412.574987 -65.854364 
L 411.634798 -65.854364 
L 410.69461 -65.854364 
L 409.754421 -65.854364 
L 408.814232 -65.854364 
L 407.874044 -65.854364 
L 406.933855 -65.854364 
L 405.993667 -65.854364 
L 405.053478 -65.854364 
L 404.113289 -65.854364 
L 403.173101 -65.854364 
L 402.232912 -65.854364 
L 401.292724 -65.854364 
L 400.352535 -65.854364 
L 399.412347 -65.854364 
L 398.472158 -65.854364 
L 397.531969 -65.854364 
L 396.591781 -65.854364 
L 395.651592 -65.854364 
L 394.711404 -65.854364 
L 393.771215 -65.854364 
L 392.831027 -65.854364 
L 391.890838 -65.854364 
L 390.950649 -65.854364 
L 390.010461 -65.854364 
L 389.070272 -65.854364 
L 388.130084 -65.854364 
L 387.189895 -65.854364 
L 386.249706 -65.854364 
L 385.309518 -65.854364 
L 384.369329 -65.854364 
L 383.429141 -65.854364 
L 382.488952 -65.854364 
L 381.548764 -65.854364 
L 380.608575 -65.854364 
L 379.668386 -65.854364 
L 378.728198 -65.854364 
L 377.788009 -65.854364 
L 376.847821 -65.854364 
L 375.907632 -65.854364 
L 374.967444 -65.854364 
L 374.027255 -65.854364 
L 373.087066 -65.854364 
L 372.146878 -65.854364 
L 371.206689 -65.854364 
L 370.266501 -65.854364 
L 369.326312 -65.854364 
L 368.386123 -65.854364 
L 367.445935 -65.854364 
L 366.505746 -65.854364 
L 365.565558 -65.854364 
L 364.625369 -65.854364 
L 363.685181 -65.854364 
L 362.744992 -65.854364 
L 361.804803 -65.854364 
L 360.864615 -65.854364 
L 359.924426 -65.854364 
L 358.984238 -65.854364 
L 358.044049 -65.854364 
L 357.103861 -65.854364 
L 356.163672 -65.854364 
L 355.223483 -65.854364 
L 354.283295 -65.854364 
L 353.343106 -65.854364 
L 352.402918 -65.854364 
L 351.462729 -65.854364 
L 350.52254 -65.854364 
L 349.582352 -65.854364 
L 348.642163 -65.854364 
L 347.701975 -65.854364 
L 346.761786 -65.854364 
L 345.821598 -65.854364 
L 344.881409 -65.854364 
L 343.94122 -65.854364 
L 343.001032 -65.854364 
L 342.060843 -65.854364 
L 341.120655 -65.854364 
L 340.180466 -65.854364 
L 339.240278 -65.854364 
L 338.300089 -65.854364 
L 337.3599 -65.854364 
L 336.419712 -65.854364 
L 335.479523 -65.854364 
L 334.539335 -65.854364 
L 333.599146 -65.854364 
L 332.658957 -65.854364 
L 331.718769 -65.854364 
L 330.77858 -65.854364 
L 329.838392 -65.854364 
L 328.898203 -65.854364 
L 327.958015 -65.854364 
L 327.017826 -65.854364 
L 326.077637 -65.854364 
L 325.137449 -65.854364 
L 324.19726 -65.854364 
L 323.257072 -65.854364 
L 322.316883 -65.854364 
L 321.376695 -65.854364 
L 320.436506 -65.854364 
L 319.496317 -65.854364 
L 318.556129 -65.854364 
L 317.61594 -65.854364 
L 316.675752 -65.854364 
L 315.735563 -65.854364 
L 314.795374 -65.854364 
L 313.855186 -65.854364 
L 312.914997 -65.854364 
L 311.974809 -65.854364 
L 311.03462 -65.854364 
L 310.094432 -65.854364 
L 309.154243 -65.854364 
L 308.214054 -65.854364 
L 307.273866 -65.854364 
L 306.333677 -65.854364 
L 305.393489 -65.854364 
L 304.4533 -65.854364 
L 303.513112 -65.854364 
L 302.572923 -65.854364 
L 301.632734 -65.854364 
L 300.692546 -65.854364 
L 299.752357 -65.854364 
L 298.812169 -65.854364 
L 297.87198 -65.854364 
L 296.931791 -65.854364 
L 295.991603 -65.854364 
L 295.051414 -65.854364 
L 294.111226 -65.854364 
L 293.171037 -65.854364 
L 292.230849 -65.854364 
L 291.29066 -65.854364 
L 290.350471 -65.854364 
L 289.410283 -65.854364 
L 288.470094 -65.854364 
L 287.529906 -65.854364 
L 286.589717 -65.854364 
L 285.649529 -65.854364 
L 284.70934 -65.854364 
L 283.769151 -65.854364 
L 282.828963 -65.854364 
L 281.888774 -65.854364 
L 280.948586 -65.854364 
L 280.008397 -65.854364 
L 279.068209 -65.854364 
L 278.12802 -65.854364 
L 277.187831 -65.854364 
L 276.247643 -65.854364 
L 275.307454 -65.854364 
L 274.367266 -65.854364 
L 273.427077 -65.854364 
L 272.486888 -65.854364 
L 271.5467 -65.854364 
L 270.606511 -65.854364 
L 269.666323 -65.854364 
L 268.726134 -65.854364 
L 267.785946 -65.854364 
L 266.845757 -65.854364 
L 265.905568 -65.854364 
L 264.96538 -65.854364 
L 264.025191 -65.854364 
L 263.085003 -65.854364 
L 262.144814 -65.854364 
L 261.204626 -65.854364 
L 260.264437 -65.854364 
L 259.324248 -65.854364 
L 258.38406 -65.854364 
L 257.443871 -65.854364 
L 256.503683 -65.854364 
L 255.563494 -65.854364 
L 254.623305 -65.854364 
L 253.683117 -65.854364 
L 252.742928 -65.854364 
L 251.80274 -65.854364 
L 250.862551 -65.854364 
L 249.922363 -65.854364 
L 248.982174 -65.854364 
L 248.041985 -65.854364 
L 247.101797 -65.854364 
L 246.161608 -65.854364 
L 245.22142 -65.854364 
L 244.281231 -65.854364 
L 243.341043 -65.854364 
L 242.400854 -65.854364 
L 241.460665 -65.854364 
L 240.520477 -65.854364 
L 239.580288 -65.854364 
L 238.6401 -65.854364 
L 237.699911 -65.854364 
L 236.759722 -65.854364 
L 235.819534 -65.854364 
L 234.879345 -65.854364 
L 233.939157 -65.854364 
L 232.998968 -65.854364 
L 232.05878 -65.854364 
L 231.118591 -65.854364 
L 230.178402 -65.854364 
L 229.238214 -65.854364 
L 228.298025 -65.854364 
L 227.357837 -65.854364 
L 226.417648 -65.854364 
L 225.47746 -65.854364 
L 224.537271 -65.854364 
L 223.597082 -65.854364 
L 222.656894 -65.854364 
L 221.716705 -65.854364 
L 220.776517 -65.854364 
L 219.836328 -65.854364 
L 218.896139 -65.854364 
L 217.955951 -65.854364 
L 217.015762 -65.854364 
L 216.075574 -65.854364 
L 215.135385 -65.854364 
L 214.195197 -65.854364 
L 213.255008 -65.854364 
L 212.314819 -65.854364 
L 211.374631 -65.854364 
L 210.434442 -65.854364 
L 209.494254 -65.854364 
L 208.554065 -65.854364 
L 207.613877 -65.854364 
L 206.673688 -65.854364 
L 205.733499 -65.854364 
L 204.793311 -65.854364 
L 203.853122 -65.854364 
L 202.912934 -65.854364 
L 201.972745 -65.854364 
L 201.032556 -65.854364 
L 200.092368 -65.854364 
L 199.152179 -65.854364 
L 198.211991 -65.854364 
L 197.271802 -65.854364 
L 196.331614 -65.854364 
L 195.391425 -65.854364 
L 194.451236 -65.854364 
L 193.511048 -65.854364 
L 192.570859 -65.854364 
L 191.630671 -65.854364 
L 190.690482 -65.854364 
L 189.750294 -65.854364 
L 188.810105 -65.854364 
L 187.869916 -65.854364 
L 186.929728 -65.854364 
L 185.989539 -65.854364 
L 185.049351 -65.854364 
L 184.109162 -65.854364 
L 183.168973 -65.854364 
L 182.228785 -65.854364 
L 181.288596 -65.854364 
L 180.348408 -65.854364 
L 179.408219 -65.854364 
L 178.468031 -65.854364 
L 177.527842 -65.854364 
L 176.587653 -65.854364 
L 175.647465 -65.854364 
L 174.707276 -65.854364 
L 173.767088 -65.854364 
L 172.826899 -65.854364 
L 171.886711 -65.854364 
L 170.946522 -65.854364 
L 170.006333 -65.854364 
L 169.066145 -65.854364 
L 168.125956 -65.854364 
L 167.185768 -65.854364 
L 166.245579 -65.854364 
L 165.30539 -65.854364 
L 164.365202 -65.854364 
L 163.425013 -65.854364 
L 162.484825 -65.854364 
L 161.544636 -65.854364 
L 160.604448 -65.854364 
L 159.664259 -65.854364 
L 158.72407 -65.854364 
L 157.783882 -65.854364 
L 156.843693 -65.854364 
L 155.903505 -65.854364 
L 154.963316 -65.854364 
L 154.023128 -65.854364 
L 153.082939 -65.854364 
L 152.14275 -65.854364 
L 151.202562 -65.854364 
L 150.262373 -65.854364 
L 149.322185 -65.854364 
L 148.381996 -65.854364 
L 147.441808 -65.854364 
L 146.501619 -65.854364 
L 145.56143 -65.854364 
L 144.621242 -65.854364 
L 143.681053 -65.854364 
L 142.740865 -65.854364 
L 141.800676 -65.854364 
L 140.860487 -65.854364 
L 139.920299 -65.854364 
L 138.98011 -65.854364 
L 138.039922 -65.854364 
L 137.099733 -65.854364 
L 136.159545 -65.854364 
L 135.219356 -65.854364 
L 134.279167 -65.854364 
L 133.338979 -65.854364 
L 132.39879 -65.854364 
L 131.458602 -65.854364 
L 130.518413 -65.854364 
L 129.578225 -65.854364 
L 128.638036 -65.854364 
L 127.697847 -65.854364 
L 126.757659 -65.854364 
L 125.81747 -65.854364 
L 124.877282 -65.854364 
L 123.937093 -65.854364 
L 122.996904 -65.854364 
L 122.056716 -65.854364 
L 121.116527 -65.854364 
L 120.176339 -65.854364 
L 119.23615 -65.854364 
L 118.295962 -65.854364 
L 117.355773 -65.854364 
L 116.415584 -65.854364 
L 115.475396 -65.854364 
L 114.535207 -65.854364 
L 113.595019 -65.854364 
L 112.65483 -65.854364 
L 111.714642 -65.854364 
L 110.774453 -65.854364 
L 109.834264 -65.854364 
L 108.894076 -65.854364 
L 107.953887 -65.854364 
L 107.013699 -65.854364 
L 106.07351 -65.854364 
L 105.133321 -65.854364 
L 104.193133 -65.854364 
L 103.252944 -65.854364 
L 102.312756 -65.854364 
L 101.372567 -65.854364 
L 100.432379 -65.854364 
L 99.49219 -65.854364 
L 98.552001 -65.854364 
L 97.611813 -65.854364 
L 96.671624 -65.854364 
L 95.731436 -65.854364 
L 94.791247 -65.854364 
L 93.851059 -65.854364 
L 92.91087 -65.854364 
L 91.970681 -65.854364 
L 91.030493 -65.854364 
L 90.090304 -65.854364 
L 89.150116 -65.854364 
L 88.209927 -65.854364 
L 87.269738 -65.854364 
L 86.32955 -65.854364 
L 85.389361 -65.854364 
L 84.449173 -65.854364 
L 83.508984 -65.854364 
L 82.568796 -65.854364 
L 81.628607 -65.854364 
L 80.688418 -65.854364 
L 79.74823 -65.854364 
L 78.808041 -65.854364 
L 77.867853 -65.854364 
L 76.927664 -65.854364 
L 75.987476 -65.854364 
L 75.047287 -65.854364 
L 74.107098 -65.854364 
L 73.16691 -65.854364 
L 72.226721 -65.854364 
L 71.286533 -65.854364 
L 70.346344 -65.854364 
L 69.406155 -65.854364 
L 68.465967 -65.854364 
L 67.525778 -65.854364 
L 66.58559 -65.854364 
L 65.645401 -65.854364 
L 64.705213 -65.854364 
L 63.765024 -65.854364 
L 62.824835 -65.854364 
L 61.884647 -65.854364 
L 60.944458 -65.854364 
L 60.00427 -65.854364 
L 59.064081 -65.854364 
L 58.123893 -65.854364 
L 57.183704 -65.854364 
L 56.243515 -65.854364 
L 55.303327 -65.854364 
L 54.363138 -65.854364 
L 53.42295 -65.854364 
L 52.482761 -65.854364 
L 51.542572 -65.854364 
L 50.602384 -65.854364 
L 49.662195 -65.854364 
L 48.722007 -65.854364 
L 47.781818 -65.854364 
z
" style="stroke: #7570b3; stroke-opacity: 0.6; stroke-width: 0.3"/>
    </defs>
    <g clip-path="url(#pf4299f861f)">
     <use xlink:href="#mb66e646106" x="0" y="432" style="fill: #7570b3; fill-opacity: 0.6; stroke: #7570b3; stroke-opacity: 0.6; stroke-width: 0.3"/>
    </g>
   </g>
   <g id="line2d_13">
    <path d="M 47.781818 365.221991 
L 58.123893 365.202114 
L 63.765024 364.991568 
L 68.465967 364.600233 
L 74.107098 363.907279 
L 84.449173 362.55805 
L 96.671624 361.139553 
L 100.432379 360.368207 
L 103.252944 359.591911 
L 107.013699 358.24179 
L 110.774453 356.589838 
L 115.475396 354.196998 
L 120.176339 351.529613 
L 124.877282 348.583701 
L 128.638036 345.960662 
L 131.458602 343.741571 
L 134.279167 341.257632 
L 137.099733 338.504528 
L 140.860487 334.377112 
L 145.56143 328.724545 
L 156.843693 314.444941 
L 161.544636 308.9357 
L 166.245579 303.726445 
L 173.767088 295.479747 
L 177.527842 290.975864 
L 180.348408 287.189895 
L 183.168973 282.926804 
L 185.989539 278.08628 
L 188.810105 272.597644 
L 191.630671 266.374095 
L 194.451236 259.493578 
L 197.271802 251.986198 
L 201.032556 241.112524 
L 204.793311 229.534672 
L 217.015762 191.093462 
L 221.716705 177.136755 
L 228.298025 158.499752 
L 235.819534 136.985434 
L 243.341043 114.416128 
L 248.041985 100.659963 
L 251.80274 90.785302 
L 253.683117 86.453688 
L 255.563494 82.611671 
L 257.443871 79.33608 
L 259.324248 76.705735 
L 261.204626 74.668832 
L 263.085003 73.312493 
L 264.025191 72.834906 
L 264.96538 72.511806 
L 265.905568 72.322643 
L 266.845757 72.258364 
L 267.785946 72.330658 
L 268.726134 72.540053 
L 270.606511 73.251939 
L 272.486888 74.235677 
L 274.367266 75.495116 
L 282.828963 81.936022 
L 285.649529 83.585358 
L 287.529906 84.437163 
L 290.350471 85.231315 
L 292.230849 85.580697 
L 295.051414 85.790896 
L 303.513112 86.015074 
L 305.393489 86.26743 
L 307.273866 86.711156 
L 309.154243 87.36088 
L 311.03462 88.237945 
L 312.914997 89.385685 
L 314.795374 90.808259 
L 316.675752 92.546688 
L 318.556129 94.532526 
L 320.436506 96.860466 
L 322.316883 99.483695 
L 324.19726 102.410835 
L 326.077637 105.663239 
L 328.898203 111.02257 
L 331.718769 116.947724 
L 337.3599 129.754545 
L 352.402918 164.234064 
L 356.163672 173.453597 
L 358.984238 180.789029 
L 362.744992 191.211055 
L 371.206689 215.17697 
L 374.967444 224.997251 
L 377.788009 231.698749 
L 380.608575 237.825771 
L 384.369329 245.340367 
L 390.010461 255.893945 
L 395.651592 266.439606 
L 410.69461 295.962007 
L 414.455364 302.625921 
L 418.216118 308.802983 
L 421.036684 313.077086 
L 424.797438 318.380322 
L 428.558192 323.315817 
L 431.378758 326.792216 
L 436.079701 332.246305 
L 439.840455 336.212368 
L 443.60121 339.808275 
L 446.421775 342.223602 
L 449.242341 344.370511 
L 452.062907 346.240041 
L 454.883473 347.860371 
L 457.704038 349.279324 
L 462.404981 351.223659 
L 470.866679 354.147929 
L 479.328376 356.800022 
L 484.969507 358.316598 
L 489.67045 359.384458 
L 501.892902 361.741246 
L 513.175165 363.737348 
L 517.876107 364.302729 
L 522.57705 364.65824 
L 528.218182 364.815346 
L 528.218182 364.815346 
" clip-path="url(#pf4299f861f)" style="fill: none; stroke: #7570b3; stroke-width: 2; stroke-linecap: round"/>
   </g>
   <g id="line2d_14">
    <path d="M 183.935063 359.974004 
L 410.584527 359.974004 
" clip-path="url(#pf4299f861f)" style="fill: none; stroke: #000000; stroke-width: 3.5"/>
   </g>
   <g id="patch_3">
    <path d="M 23.76 380.84 
L 552.24 380.84 
" style="fill: none; stroke: #333333; stroke-width: 1.5; stroke-linejoin: miter; stroke-linecap: square"/>
   </g>
   <g id="text_7">
    <text style="font-size: 22px; font-family: 'DejaVu Serif', 'Times New Roman', serif; text-anchor: end; fill: #262626" x="183.935063" y="344.544922" transform="rotate(-0 183.935063 344.544922)">-0.36 </text>
   </g>
   <g id="text_8">
    <text style="font-size: 22px; font-family: 'DejaVu Serif', 'Times New Roman', serif; text-anchor: start; fill: #262626" x="410.584527" y="344.544922" transform="rotate(-0 410.584527 344.544922)"> -0.3</text>
   </g>
   <g id="text_9">
    <text style="font-size: 22px; font-family: 'DejaVu Serif', 'Times New Roman', serif; text-anchor: middle; fill: #262626" x="297.259795" y="273.571145" transform="rotate(-0 297.259795 273.571145)">90% HDI</text>
   </g>
   <g id="text_10">
    <text style="font-size: 22px; font-family: 'DejaVu Serif', 'Times New Roman', serif; text-anchor: middle; fill: #262626" x="290.239847" y="119.280327" transform="rotate(-0 290.239847 119.280327)">mean=-0.33</text>
   </g>
   <g id="text_11">
    <!-- $x_3^3$ -->
    <g style="fill: #262626" transform="translate(272.46 49.444)">
     <text>
      <tspan x="0" y="-0.734375" style="font-style: oblique; font-size: 28px; font-family: 'DejaVu Sans'; fill: #262626">x</tspan>
      <tspan x="16.570312" y="6.921875" style="font-size: 19.6px; font-family: 'DejaVu Sans'; fill: #262626">3</tspan>
      <tspan x="17.820833" y="-11.453125" style="font-size: 19.6px; font-family: 'DejaVu Sans'; fill: #262626">3</tspan>
     </text>
    </g>
   </g>
  </g>
 </g>
 <defs>
  <clipPath id="pf4299f861f">
   <rect x="23.76" y="57.564" width="528.48" height="323.276"/>
  </clipPath>
 </defs>
</svg>
