<?xml version="1.0" encoding="utf-8" standalone="no"?>
<!DOCTYPE svg PUBLIC "-//W3C//DTD SVG 1.1//EN"
  "http://www.w3.org/Graphics/SVG/1.1/DTD/svg11.dtd">
<svg xmlns:xlink="http://www.w3.org/1999/xlink" width="576pt" height="432pt" viewBox="0 0 576 432" xmlns="http://www.w3.org/2000/svg" version="1.1">
 <metadata>
  <rdf:RDF xmlns:dc="http://purl.org/dc/elements/1.1/" xmlns:cc="http://creativecommons.org/ns#" xmlns:rdf="http://www.w3.org/1999/02/22-rdf-syntax-ns#">
   <cc:Work>
    <dc:type rdf:resource="http://purl.org/dc/dcmitype/StillImage"/>
    <dc:date>2025-09-22T22:41:52.878985</dc:date>
    <dc:format>image/svg+xml</dc:format>
    <dc:creator>
     <cc:Agent>
      <dc:title>Matplotlib v3.10.0, https://matplotlib.org/</dc:title>
     </cc:Agent>
    </dc:creator>
   </cc:Work>
  </rdf:RDF>
 </metadata>
 <defs>
  <style type="text/css">*{stroke-linejoin: round; stroke-linecap: butt}</style>
 </defs>
 <g id="figure_1">
  <g id="patch_1">
   <path d="M 0 432 
L 576 432 
L 576 0 
L 0 0 
L 0 432 
z
" style="fill: none; opacity: 0"/>
  </g>
  <g id="axes_1">
   <g id="patch_2">
    <path d="M 23.76 380.84 
L 552.24 380.84 
L 552.24 57.264 
L 23.76 57.264 
L 23.76 380.84 
z
" style="fill: none"/>
   </g>
   <g id="matplotlib.axis_1">
    <g id="xtick_1">
     <g id="line2d_1">
      <path d="M 77.217331 380.84 
L 77.217331 57.264 
" clip-path="url(#pbae314952d)" style="fill: none; stroke: #ffffff; stroke-opacity: 0.4; stroke-linecap: round"/>
     </g>
     <g id="line2d_2">
      <defs>
       <path id="m71777e7912" d="M 0 0 
L 0 3 
" style="stroke: #808080"/>
      </defs>
      <g>
       <use xlink:href="#m71777e7912" x="77.217331" y="380.84" style="fill: #808080; stroke: #808080"/>
      </g>
     </g>
     <g id="text_1">
      <text style="font-size: 18px; font-family: 'DejaVu Serif', 'Times New Roman', serif; text-anchor: middle; fill: #262626" x="77.217331" y="404.517187" transform="rotate(-0 77.217331 404.517187)">−0.02</text>
     </g>
    </g>
    <g id="xtick_2">
     <g id="line2d_3">
      <path d="M 180.361771 380.84 
L 180.361771 57.264 
" clip-path="url(#pbae314952d)" style="fill: none; stroke: #ffffff; stroke-opacity: 0.4; stroke-linecap: round"/>
     </g>
     <g id="line2d_4">
      <g>
       <use xlink:href="#m71777e7912" x="180.361771" y="380.84" style="fill: #808080; stroke: #808080"/>
      </g>
     </g>
     <g id="text_2">
      <text style="font-size: 18px; font-family: 'DejaVu Serif', 'Times New Roman', serif; text-anchor: middle; fill: #262626" x="180.361771" y="404.517187" transform="rotate(-0 180.361771 404.517187)">−0.01</text>
     </g>
    </g>
    <g id="xtick_3">
     <g id="line2d_5">
      <path d="M 283.506211 380.84 
L 283.506211 57.264 
" clip-path="url(#pbae314952d)" style="fill: none; stroke: #ffffff; stroke-opacity: 0.4; stroke-linecap: round"/>
     </g>
     <g id="line2d_6">
      <g>
       <use xlink:href="#m71777e7912" x="283.506211" y="380.84" style="fill: #808080; stroke: #808080"/>
      </g>
     </g>
     <g id="text_3">
      <text style="font-size: 18px; font-family: 'DejaVu Serif', 'Times New Roman', serif; text-anchor: middle; fill: #262626" x="283.506211" y="404.517187" transform="rotate(-0 283.506211 404.517187)">0.00</text>
     </g>
    </g>
    <g id="xtick_4">
     <g id="line2d_7">
      <path d="M 386.65065 380.84 
L 386.65065 57.264 
" clip-path="url(#pbae314952d)" style="fill: none; stroke: #ffffff; stroke-opacity: 0.4; stroke-linecap: round"/>
     </g>
     <g id="line2d_8">
      <g>
       <use xlink:href="#m71777e7912" x="386.65065" y="380.84" style="fill: #808080; stroke: #808080"/>
      </g>
     </g>
     <g id="text_4">
      <text style="font-size: 18px; font-family: 'DejaVu Serif', 'Times New Roman', serif; text-anchor: middle; fill: #262626" x="386.65065" y="404.517187" transform="rotate(-0 386.65065 404.517187)">0.01</text>
     </g>
    </g>
    <g id="xtick_5">
     <g id="line2d_9">
      <path d="M 489.79509 380.84 
L 489.79509 57.264 
" clip-path="url(#pbae314952d)" style="fill: none; stroke: #ffffff; stroke-opacity: 0.4; stroke-linecap: round"/>
     </g>
     <g id="line2d_10">
      <g>
       <use xlink:href="#m71777e7912" x="489.79509" y="380.84" style="fill: #808080; stroke: #808080"/>
      </g>
     </g>
     <g id="text_5">
      <text style="font-size: 18px; font-family: 'DejaVu Serif', 'Times New Roman', serif; text-anchor: middle; fill: #262626" x="489.79509" y="404.517187" transform="rotate(-0 489.79509 404.517187)">0.02</text>
     </g>
    </g>
   </g>
   <g id="matplotlib.axis_2"/>
   <g id="FillBetweenPolyCollection_1">
    <defs>
     <path id="m7a4aa2817f" d="M 47.781818 -65.868 
L 47.781818 -68.033441 
L 48.722007 -68.033133 
L 49.662195 -68.029287 
L 50.602384 -68.031955 
L 51.542572 -68.038361 
L 52.482761 -68.038589 
L 53.42295 -68.042131 
L 54.363138 -68.046255 
L 55.303327 -68.047506 
L 56.243515 -68.05618 
L 57.183704 -68.063219 
L 58.123893 -68.071856 
L 59.064081 -68.086134 
L 60.00427 -68.103756 
L 60.944458 -68.118118 
L 61.884647 -68.139175 
L 62.824835 -68.164722 
L 63.765024 -68.192633 
L 64.705213 -68.226529 
L 65.645401 -68.263536 
L 66.58559 -68.310892 
L 67.525778 -68.365788 
L 68.465967 -68.440045 
L 69.406155 -68.515283 
L 70.346344 -68.604742 
L 71.286533 -68.702814 
L 72.226721 -68.813135 
L 73.16691 -68.947291 
L 74.107098 -69.083641 
L 75.047287 -69.24503 
L 75.987476 -69.415213 
L 76.927664 -69.597148 
L 77.867853 -69.797076 
L 78.808041 -70.010927 
L 79.74823 -70.238022 
L 80.688418 -70.484727 
L 81.628607 -70.737015 
L 82.568796 -70.999266 
L 83.508984 -71.277112 
L 84.449173 -71.559498 
L 85.389361 -71.847437 
L 86.32955 -72.146218 
L 87.269738 -72.441666 
L 88.209927 -72.738252 
L 89.150116 -73.055139 
L 90.090304 -73.351218 
L 91.030493 -73.645911 
L 91.970681 -73.931297 
L 92.91087 -74.219982 
L 93.851059 -74.499059 
L 94.791247 -74.774779 
L 95.731436 -75.033491 
L 96.671624 -75.284081 
L 97.611813 -75.530729 
L 98.552001 -75.761344 
L 99.49219 -75.992902 
L 100.432379 -76.224042 
L 101.372567 -76.450936 
L 102.312756 -76.693217 
L 103.252944 -76.934146 
L 104.193133 -77.189701 
L 105.133321 -77.450033 
L 106.07351 -77.713031 
L 107.013699 -77.993593 
L 107.953887 -78.294964 
L 108.894076 -78.620318 
L 109.834264 -78.966145 
L 110.774453 -79.344515 
L 111.714642 -79.755073 
L 112.65483 -80.181879 
L 113.595019 -80.65101 
L 114.535207 -81.151538 
L 115.475396 -81.687397 
L 116.415584 -82.248387 
L 117.355773 -82.843306 
L 118.295962 -83.475672 
L 119.23615 -84.124163 
L 120.176339 -84.805988 
L 121.116527 -85.510021 
L 122.056716 -86.240886 
L 122.996904 -86.993813 
L 123.937093 -87.763298 
L 124.877282 -88.557634 
L 125.81747 -89.348322 
L 126.757659 -90.179846 
L 127.697847 -91.016443 
L 128.638036 -91.869574 
L 129.578225 -92.751255 
L 130.518413 -93.622646 
L 131.458602 -94.502342 
L 132.39879 -95.406954 
L 133.338979 -96.337219 
L 134.279167 -97.266739 
L 135.219356 -98.215232 
L 136.159545 -99.192509 
L 137.099733 -100.175988 
L 138.039922 -101.204543 
L 138.98011 -102.227553 
L 139.920299 -103.292067 
L 140.860487 -104.384629 
L 141.800676 -105.504073 
L 142.740865 -106.62919 
L 143.681053 -107.79078 
L 144.621242 -108.968794 
L 145.56143 -110.189901 
L 146.501619 -111.410481 
L 147.441808 -112.662098 
L 148.381996 -113.952437 
L 149.322185 -115.249518 
L 150.262373 -116.577519 
L 151.202562 -117.937104 
L 152.14275 -119.270394 
L 153.082939 -120.652564 
L 154.023128 -122.035157 
L 154.963316 -123.435646 
L 155.903505 -124.83482 
L 156.843693 -126.236598 
L 157.783882 -127.64646 
L 158.72407 -129.075434 
L 159.664259 -130.484346 
L 160.604448 -131.936013 
L 161.544636 -133.369017 
L 162.484825 -134.804882 
L 163.425013 -136.280671 
L 164.365202 -137.753327 
L 165.30539 -139.222268 
L 166.245579 -140.707495 
L 167.185768 -142.221238 
L 168.125956 -143.717253 
L 169.066145 -145.259866 
L 170.006333 -146.813205 
L 170.946522 -148.383854 
L 171.886711 -149.984662 
L 172.826899 -151.60886 
L 173.767088 -153.252903 
L 174.707276 -154.932391 
L 175.647465 -156.611212 
L 176.587653 -158.331402 
L 177.527842 -160.063296 
L 178.468031 -161.831872 
L 179.408219 -163.579385 
L 180.348408 -165.400797 
L 181.288596 -167.182736 
L 182.228785 -169.019228 
L 183.168973 -170.819556 
L 184.109162 -172.686574 
L 185.049351 -174.526941 
L 185.989539 -176.359107 
L 186.929728 -178.199546 
L 187.869916 -180.043802 
L 188.810105 -181.860375 
L 189.750294 -183.687298 
L 190.690482 -185.501261 
L 191.630671 -187.360111 
L 192.570859 -189.221745 
L 193.511048 -191.070149 
L 194.451236 -192.926143 
L 195.391425 -194.803004 
L 196.331614 -196.69869 
L 197.271802 -198.620229 
L 198.211991 -200.589304 
L 199.152179 -202.58813 
L 200.092368 -204.672105 
L 201.032556 -206.79805 
L 201.972745 -208.987203 
L 202.912934 -211.247786 
L 203.853122 -213.556664 
L 204.793311 -215.945403 
L 205.733499 -218.41202 
L 206.673688 -220.953289 
L 207.613877 -223.558432 
L 208.554065 -226.252091 
L 209.494254 -229.04273 
L 210.434442 -231.890954 
L 211.374631 -234.74328 
L 212.314819 -237.698211 
L 213.255008 -240.687709 
L 214.195197 -243.67212 
L 215.135385 -246.708957 
L 216.075574 -249.756793 
L 217.015762 -252.796653 
L 217.955951 -255.832532 
L 218.896139 -258.836922 
L 219.836328 -261.78042 
L 220.776517 -264.695099 
L 221.716705 -267.57819 
L 222.656894 -270.366918 
L 223.597082 -273.124521 
L 224.537271 -275.792588 
L 225.47746 -278.391048 
L 226.417648 -280.896258 
L 227.357837 -283.287464 
L 228.298025 -285.623767 
L 229.238214 -287.879258 
L 230.178402 -290.053143 
L 231.118591 -292.185295 
L 232.05878 -294.194565 
L 232.998968 -296.157216 
L 233.939157 -298.062718 
L 234.879345 -299.896649 
L 235.819534 -301.654323 
L 236.759722 -303.365353 
L 237.699911 -305.043731 
L 238.6401 -306.662886 
L 239.580288 -308.21059 
L 240.520477 -309.723287 
L 241.460665 -311.221289 
L 242.400854 -312.647086 
L 243.341043 -314.067927 
L 244.281231 -315.463781 
L 245.22142 -316.824995 
L 246.161608 -318.119038 
L 247.101797 -319.409356 
L 248.041985 -320.665226 
L 248.982174 -321.89233 
L 249.922363 -323.076026 
L 250.862551 -324.185229 
L 251.80274 -325.282755 
L 252.742928 -326.358253 
L 253.683117 -327.375008 
L 254.623305 -328.385016 
L 255.563494 -329.33543 
L 256.503683 -330.248934 
L 257.443871 -331.127132 
L 258.38406 -332.018396 
L 259.324248 -332.790877 
L 260.264437 -333.604139 
L 261.204626 -334.389245 
L 262.144814 -335.182208 
L 263.085003 -335.874505 
L 264.025191 -336.584493 
L 264.96538 -337.301015 
L 265.905568 -337.973419 
L 266.845757 -338.634323 
L 267.785946 -339.295869 
L 268.726134 -339.921147 
L 269.666323 -340.570711 
L 270.606511 -341.182623 
L 271.5467 -341.790412 
L 272.486888 -342.378419 
L 273.427077 -343.013581 
L 274.367266 -343.628999 
L 275.307454 -344.229042 
L 276.247643 -344.813225 
L 277.187831 -345.39514 
L 278.12802 -345.979007 
L 279.068209 -346.533707 
L 280.008397 -347.107876 
L 280.948586 -347.67739 
L 281.888774 -348.248752 
L 282.828963 -348.822783 
L 283.769151 -349.414449 
L 284.70934 -349.969006 
L 285.649529 -350.506375 
L 286.589717 -351.061623 
L 287.529906 -351.594205 
L 288.470094 -352.148371 
L 289.410283 -352.71993 
L 290.350471 -353.344361 
L 291.29066 -353.851998 
L 292.230849 -354.460507 
L 293.171037 -355.044864 
L 294.111226 -355.605328 
L 295.051414 -356.147151 
L 295.991603 -356.685151 
L 296.931791 -357.239645 
L 297.87198 -357.743253 
L 298.812169 -358.227175 
L 299.752357 -358.66494 
L 300.692546 -359.040815 
L 301.632734 -359.396821 
L 302.572923 -359.648709 
L 303.513112 -359.839289 
L 304.4533 -359.997222 
L 305.393489 -360.028 
L 306.333677 -359.978561 
L 307.273866 -359.81212 
L 308.214054 -359.508264 
L 309.154243 -359.083457 
L 310.094432 -358.554447 
L 311.03462 -357.912173 
L 311.974809 -357.130532 
L 312.914997 -356.200384 
L 313.855186 -355.175687 
L 314.795374 -354.011108 
L 315.735563 -352.682494 
L 316.675752 -351.214262 
L 317.61594 -349.671121 
L 318.556129 -348.000171 
L 319.496317 -346.227388 
L 320.436506 -344.311164 
L 321.376695 -342.319336 
L 322.316883 -340.22751 
L 323.257072 -338.053199 
L 324.19726 -335.780239 
L 325.137449 -333.444542 
L 326.077637 -331.031418 
L 327.017826 -328.538758 
L 327.958015 -325.991128 
L 328.898203 -323.401356 
L 329.838392 -320.773175 
L 330.77858 -318.042344 
L 331.718769 -315.247309 
L 332.658957 -312.417018 
L 333.599146 -309.533041 
L 334.539335 -306.617841 
L 335.479523 -303.644987 
L 336.419712 -300.652096 
L 337.3599 -297.574626 
L 338.300089 -294.493347 
L 339.240278 -291.363579 
L 340.180466 -288.16901 
L 341.120655 -284.972915 
L 342.060843 -281.785184 
L 343.001032 -278.589027 
L 343.94122 -275.350957 
L 344.881409 -272.111963 
L 345.821598 -268.881209 
L 346.761786 -265.651395 
L 347.701975 -262.434433 
L 348.642163 -259.220419 
L 349.582352 -256.037092 
L 350.52254 -252.870403 
L 351.462729 -249.774582 
L 352.402918 -246.65004 
L 353.343106 -243.597365 
L 354.283295 -240.601347 
L 355.223483 -237.635336 
L 356.163672 -234.712576 
L 357.103861 -231.832871 
L 358.044049 -229.002175 
L 358.984238 -226.197798 
L 359.924426 -223.44329 
L 360.864615 -220.730958 
L 361.804803 -218.086516 
L 362.744992 -215.465328 
L 363.685181 -212.891813 
L 364.625369 -210.37597 
L 365.565558 -207.888 
L 366.505746 -205.450367 
L 367.445935 -203.009343 
L 368.386123 -200.625889 
L 369.326312 -198.256136 
L 370.266501 -195.986148 
L 371.206689 -193.699353 
L 372.146878 -191.496089 
L 373.087066 -189.306999 
L 374.027255 -187.189962 
L 374.967444 -185.086829 
L 375.907632 -183.016228 
L 376.847821 -181.000477 
L 377.788009 -179.047173 
L 378.728198 -177.119757 
L 379.668386 -175.243548 
L 380.608575 -173.382303 
L 381.548764 -171.564221 
L 382.488952 -169.778279 
L 383.429141 -167.993585 
L 384.369329 -166.288362 
L 385.309518 -164.604237 
L 386.249706 -162.95039 
L 387.189895 -161.336053 
L 388.130084 -159.735184 
L 389.070272 -158.149041 
L 390.010461 -156.590063 
L 390.950649 -155.049693 
L 391.890838 -153.542618 
L 392.831027 -152.038959 
L 393.771215 -150.575943 
L 394.711404 -149.135607 
L 395.651592 -147.691692 
L 396.591781 -146.253641 
L 397.531969 -144.834003 
L 398.472158 -143.43744 
L 399.412347 -142.053021 
L 400.352535 -140.674949 
L 401.292724 -139.293481 
L 402.232912 -137.929498 
L 403.173101 -136.589592 
L 404.113289 -135.264303 
L 405.053478 -133.924189 
L 405.993667 -132.590619 
L 406.933855 -131.252996 
L 407.874044 -129.925278 
L 408.814232 -128.597734 
L 409.754421 -127.295553 
L 410.69461 -125.982496 
L 411.634798 -124.674663 
L 412.574987 -123.354435 
L 413.515175 -122.014866 
L 414.455364 -120.700069 
L 415.395552 -119.340455 
L 416.335741 -118.028025 
L 417.27593 -116.708319 
L 418.216118 -115.377264 
L 419.156307 -114.069817 
L 420.096495 -112.755695 
L 421.036684 -111.450198 
L 421.976872 -110.153539 
L 422.917061 -108.871039 
L 423.85725 -107.612464 
L 424.797438 -106.355292 
L 425.737627 -105.134543 
L 426.677815 -103.934774 
L 427.618004 -102.746995 
L 428.558192 -101.59422 
L 429.498381 -100.476861 
L 430.43857 -99.389525 
L 431.378758 -98.343257 
L 432.318947 -97.313441 
L 433.259135 -96.312295 
L 434.199324 -95.361534 
L 435.139513 -94.437305 
L 436.079701 -93.543577 
L 437.01989 -92.68092 
L 437.960078 -91.863285 
L 438.900267 -91.074294 
L 439.840455 -90.312655 
L 440.780644 -89.565186 
L 441.720833 -88.850017 
L 442.661021 -88.16355 
L 443.60121 -87.502403 
L 444.541398 -86.856184 
L 445.481587 -86.206375 
L 446.421775 -85.604167 
L 447.361964 -84.997346 
L 448.302153 -84.410415 
L 449.242341 -83.825413 
L 450.18253 -83.239608 
L 451.122718 -82.668242 
L 452.062907 -82.108836 
L 453.003096 -81.551463 
L 453.943284 -80.999415 
L 454.883473 -80.454732 
L 455.823661 -79.919817 
L 456.76385 -79.370618 
L 457.704038 -78.831986 
L 458.644227 -78.300648 
L 459.584416 -77.783004 
L 460.524604 -77.275671 
L 461.464793 -76.77333 
L 462.404981 -76.289494 
L 463.34517 -75.806032 
L 464.285358 -75.346619 
L 465.225547 -74.886578 
L 466.165736 -74.444322 
L 467.105924 -74.022936 
L 468.046113 -73.610369 
L 468.986301 -73.220355 
L 469.92649 -72.8434 
L 470.866679 -72.483535 
L 471.806867 -72.140943 
L 472.747056 -71.815619 
L 473.687244 -71.510281 
L 474.627433 -71.221053 
L 475.567621 -70.944624 
L 476.50781 -70.686859 
L 477.447999 -70.437607 
L 478.388187 -70.206022 
L 479.328376 -69.981654 
L 480.268564 -69.782153 
L 481.208753 -69.586361 
L 482.148941 -69.403466 
L 483.08913 -69.223121 
L 484.029319 -69.060238 
L 484.969507 -68.903226 
L 485.909696 -68.751505 
L 486.849884 -68.595819 
L 487.790073 -68.449163 
L 488.730262 -68.307273 
L 489.67045 -68.17914 
L 490.610639 -68.048804 
L 491.550827 -67.919815 
L 492.491016 -67.797856 
L 493.431204 -67.679376 
L 494.371393 -67.567463 
L 495.311582 -67.45302 
L 496.25177 -67.346387 
L 497.191959 -67.247131 
L 498.132147 -67.143347 
L 499.072336 -67.051866 
L 500.012524 -66.965733 
L 500.952713 -66.882386 
L 501.892902 -66.811472 
L 502.83309 -66.746111 
L 503.773279 -66.686667 
L 504.713467 -66.633425 
L 505.653656 -66.586588 
L 506.593845 -66.546276 
L 507.534033 -66.50962 
L 508.474222 -66.483 
L 509.41441 -66.459748 
L 510.354599 -66.443197 
L 511.294787 -66.435874 
L 512.234976 -66.433826 
L 513.175165 -66.436684 
L 514.115353 -66.444011 
L 515.055542 -66.455309 
L 515.99573 -66.467117 
L 516.935919 -66.485266 
L 517.876107 -66.505494 
L 518.816296 -66.527169 
L 519.756485 -66.549648 
L 520.696673 -66.572282 
L 521.636862 -66.594436 
L 522.57705 -66.615492 
L 523.517239 -66.629052 
L 524.457428 -66.647429 
L 525.397616 -66.659958 
L 526.337805 -66.672684 
L 527.277993 -66.685316 
L 528.218182 -66.69123 
L 528.218182 -65.868 
L 528.218182 -65.868 
L 527.277993 -65.868 
L 526.337805 -65.868 
L 525.397616 -65.868 
L 524.457428 -65.868 
L 523.517239 -65.868 
L 522.57705 -65.868 
L 521.636862 -65.868 
L 520.696673 -65.868 
L 519.756485 -65.868 
L 518.816296 -65.868 
L 517.876107 -65.868 
L 516.935919 -65.868 
L 515.99573 -65.868 
L 515.055542 -65.868 
L 514.115353 -65.868 
L 513.175165 -65.868 
L 512.234976 -65.868 
L 511.294787 -65.868 
L 510.354599 -65.868 
L 509.41441 -65.868 
L 508.474222 -65.868 
L 507.534033 -65.868 
L 506.593845 -65.868 
L 505.653656 -65.868 
L 504.713467 -65.868 
L 503.773279 -65.868 
L 502.83309 -65.868 
L 501.892902 -65.868 
L 500.952713 -65.868 
L 500.012524 -65.868 
L 499.072336 -65.868 
L 498.132147 -65.868 
L 497.191959 -65.868 
L 496.25177 -65.868 
L 495.311582 -65.868 
L 494.371393 -65.868 
L 493.431204 -65.868 
L 492.491016 -65.868 
L 491.550827 -65.868 
L 490.610639 -65.868 
L 489.67045 -65.868 
L 488.730262 -65.868 
L 487.790073 -65.868 
L 486.849884 -65.868 
L 485.909696 -65.868 
L 484.969507 -65.868 
L 484.029319 -65.868 
L 483.08913 -65.868 
L 482.148941 -65.868 
L 481.208753 -65.868 
L 480.268564 -65.868 
L 479.328376 -65.868 
L 478.388187 -65.868 
L 477.447999 -65.868 
L 476.50781 -65.868 
L 475.567621 -65.868 
L 474.627433 -65.868 
L 473.687244 -65.868 
L 472.747056 -65.868 
L 471.806867 -65.868 
L 470.866679 -65.868 
L 469.92649 -65.868 
L 468.986301 -65.868 
L 468.046113 -65.868 
L 467.105924 -65.868 
L 466.165736 -65.868 
L 465.225547 -65.868 
L 464.285358 -65.868 
L 463.34517 -65.868 
L 462.404981 -65.868 
L 461.464793 -65.868 
L 460.524604 -65.868 
L 459.584416 -65.868 
L 458.644227 -65.868 
L 457.704038 -65.868 
L 456.76385 -65.868 
L 455.823661 -65.868 
L 454.883473 -65.868 
L 453.943284 -65.868 
L 453.003096 -65.868 
L 452.062907 -65.868 
L 451.122718 -65.868 
L 450.18253 -65.868 
L 449.242341 -65.868 
L 448.302153 -65.868 
L 447.361964 -65.868 
L 446.421775 -65.868 
L 445.481587 -65.868 
L 444.541398 -65.868 
L 443.60121 -65.868 
L 442.661021 -65.868 
L 441.720833 -65.868 
L 440.780644 -65.868 
L 439.840455 -65.868 
L 438.900267 -65.868 
L 437.960078 -65.868 
L 437.01989 -65.868 
L 436.079701 -65.868 
L 435.139513 -65.868 
L 434.199324 -65.868 
L 433.259135 -65.868 
L 432.318947 -65.868 
L 431.378758 -65.868 
L 430.43857 -65.868 
L 429.498381 -65.868 
L 428.558192 -65.868 
L 427.618004 -65.868 
L 426.677815 -65.868 
L 425.737627 -65.868 
L 424.797438 -65.868 
L 423.85725 -65.868 
L 422.917061 -65.868 
L 421.976872 -65.868 
L 421.036684 -65.868 
L 420.096495 -65.868 
L 419.156307 -65.868 
L 418.216118 -65.868 
L 417.27593 -65.868 
L 416.335741 -65.868 
L 415.395552 -65.868 
L 414.455364 -65.868 
L 413.515175 -65.868 
L 412.574987 -65.868 
L 411.634798 -65.868 
L 410.69461 -65.868 
L 409.754421 -65.868 
L 408.814232 -65.868 
L 407.874044 -65.868 
L 406.933855 -65.868 
L 405.993667 -65.868 
L 405.053478 -65.868 
L 404.113289 -65.868 
L 403.173101 -65.868 
L 402.232912 -65.868 
L 401.292724 -65.868 
L 400.352535 -65.868 
L 399.412347 -65.868 
L 398.472158 -65.868 
L 397.531969 -65.868 
L 396.591781 -65.868 
L 395.651592 -65.868 
L 394.711404 -65.868 
L 393.771215 -65.868 
L 392.831027 -65.868 
L 391.890838 -65.868 
L 390.950649 -65.868 
L 390.010461 -65.868 
L 389.070272 -65.868 
L 388.130084 -65.868 
L 387.189895 -65.868 
L 386.249706 -65.868 
L 385.309518 -65.868 
L 384.369329 -65.868 
L 383.429141 -65.868 
L 382.488952 -65.868 
L 381.548764 -65.868 
L 380.608575 -65.868 
L 379.668386 -65.868 
L 378.728198 -65.868 
L 377.788009 -65.868 
L 376.847821 -65.868 
L 375.907632 -65.868 
L 374.967444 -65.868 
L 374.027255 -65.868 
L 373.087066 -65.868 
L 372.146878 -65.868 
L 371.206689 -65.868 
L 370.266501 -65.868 
L 369.326312 -65.868 
L 368.386123 -65.868 
L 367.445935 -65.868 
L 366.505746 -65.868 
L 365.565558 -65.868 
L 364.625369 -65.868 
L 363.685181 -65.868 
L 362.744992 -65.868 
L 361.804803 -65.868 
L 360.864615 -65.868 
L 359.924426 -65.868 
L 358.984238 -65.868 
L 358.044049 -65.868 
L 357.103861 -65.868 
L 356.163672 -65.868 
L 355.223483 -65.868 
L 354.283295 -65.868 
L 353.343106 -65.868 
L 352.402918 -65.868 
L 351.462729 -65.868 
L 350.52254 -65.868 
L 349.582352 -65.868 
L 348.642163 -65.868 
L 347.701975 -65.868 
L 346.761786 -65.868 
L 345.821598 -65.868 
L 344.881409 -65.868 
L 343.94122 -65.868 
L 343.001032 -65.868 
L 342.060843 -65.868 
L 341.120655 -65.868 
L 340.180466 -65.868 
L 339.240278 -65.868 
L 338.300089 -65.868 
L 337.3599 -65.868 
L 336.419712 -65.868 
L 335.479523 -65.868 
L 334.539335 -65.868 
L 333.599146 -65.868 
L 332.658957 -65.868 
L 331.718769 -65.868 
L 330.77858 -65.868 
L 329.838392 -65.868 
L 328.898203 -65.868 
L 327.958015 -65.868 
L 327.017826 -65.868 
L 326.077637 -65.868 
L 325.137449 -65.868 
L 324.19726 -65.868 
L 323.257072 -65.868 
L 322.316883 -65.868 
L 321.376695 -65.868 
L 320.436506 -65.868 
L 319.496317 -65.868 
L 318.556129 -65.868 
L 317.61594 -65.868 
L 316.675752 -65.868 
L 315.735563 -65.868 
L 314.795374 -65.868 
L 313.855186 -65.868 
L 312.914997 -65.868 
L 311.974809 -65.868 
L 311.03462 -65.868 
L 310.094432 -65.868 
L 309.154243 -65.868 
L 308.214054 -65.868 
L 307.273866 -65.868 
L 306.333677 -65.868 
L 305.393489 -65.868 
L 304.4533 -65.868 
L 303.513112 -65.868 
L 302.572923 -65.868 
L 301.632734 -65.868 
L 300.692546 -65.868 
L 299.752357 -65.868 
L 298.812169 -65.868 
L 297.87198 -65.868 
L 296.931791 -65.868 
L 295.991603 -65.868 
L 295.051414 -65.868 
L 294.111226 -65.868 
L 293.171037 -65.868 
L 292.230849 -65.868 
L 291.29066 -65.868 
L 290.350471 -65.868 
L 289.410283 -65.868 
L 288.470094 -65.868 
L 287.529906 -65.868 
L 286.589717 -65.868 
L 285.649529 -65.868 
L 284.70934 -65.868 
L 283.769151 -65.868 
L 282.828963 -65.868 
L 281.888774 -65.868 
L 280.948586 -65.868 
L 280.008397 -65.868 
L 279.068209 -65.868 
L 278.12802 -65.868 
L 277.187831 -65.868 
L 276.247643 -65.868 
L 275.307454 -65.868 
L 274.367266 -65.868 
L 273.427077 -65.868 
L 272.486888 -65.868 
L 271.5467 -65.868 
L 270.606511 -65.868 
L 269.666323 -65.868 
L 268.726134 -65.868 
L 267.785946 -65.868 
L 266.845757 -65.868 
L 265.905568 -65.868 
L 264.96538 -65.868 
L 264.025191 -65.868 
L 263.085003 -65.868 
L 262.144814 -65.868 
L 261.204626 -65.868 
L 260.264437 -65.868 
L 259.324248 -65.868 
L 258.38406 -65.868 
L 257.443871 -65.868 
L 256.503683 -65.868 
L 255.563494 -65.868 
L 254.623305 -65.868 
L 253.683117 -65.868 
L 252.742928 -65.868 
L 251.80274 -65.868 
L 250.862551 -65.868 
L 249.922363 -65.868 
L 248.982174 -65.868 
L 248.041985 -65.868 
L 247.101797 -65.868 
L 246.161608 -65.868 
L 245.22142 -65.868 
L 244.281231 -65.868 
L 243.341043 -65.868 
L 242.400854 -65.868 
L 241.460665 -65.868 
L 240.520477 -65.868 
L 239.580288 -65.868 
L 238.6401 -65.868 
L 237.699911 -65.868 
L 236.759722 -65.868 
L 235.819534 -65.868 
L 234.879345 -65.868 
L 233.939157 -65.868 
L 232.998968 -65.868 
L 232.05878 -65.868 
L 231.118591 -65.868 
L 230.178402 -65.868 
L 229.238214 -65.868 
L 228.298025 -65.868 
L 227.357837 -65.868 
L 226.417648 -65.868 
L 225.47746 -65.868 
L 224.537271 -65.868 
L 223.597082 -65.868 
L 222.656894 -65.868 
L 221.716705 -65.868 
L 220.776517 -65.868 
L 219.836328 -65.868 
L 218.896139 -65.868 
L 217.955951 -65.868 
L 217.015762 -65.868 
L 216.075574 -65.868 
L 215.135385 -65.868 
L 214.195197 -65.868 
L 213.255008 -65.868 
L 212.314819 -65.868 
L 211.374631 -65.868 
L 210.434442 -65.868 
L 209.494254 -65.868 
L 208.554065 -65.868 
L 207.613877 -65.868 
L 206.673688 -65.868 
L 205.733499 -65.868 
L 204.793311 -65.868 
L 203.853122 -65.868 
L 202.912934 -65.868 
L 201.972745 -65.868 
L 201.032556 -65.868 
L 200.092368 -65.868 
L 199.152179 -65.868 
L 198.211991 -65.868 
L 197.271802 -65.868 
L 196.331614 -65.868 
L 195.391425 -65.868 
L 194.451236 -65.868 
L 193.511048 -65.868 
L 192.570859 -65.868 
L 191.630671 -65.868 
L 190.690482 -65.868 
L 189.750294 -65.868 
L 188.810105 -65.868 
L 187.869916 -65.868 
L 186.929728 -65.868 
L 185.989539 -65.868 
L 185.049351 -65.868 
L 184.109162 -65.868 
L 183.168973 -65.868 
L 182.228785 -65.868 
L 181.288596 -65.868 
L 180.348408 -65.868 
L 179.408219 -65.868 
L 178.468031 -65.868 
L 177.527842 -65.868 
L 176.587653 -65.868 
L 175.647465 -65.868 
L 174.707276 -65.868 
L 173.767088 -65.868 
L 172.826899 -65.868 
L 171.886711 -65.868 
L 170.946522 -65.868 
L 170.006333 -65.868 
L 169.066145 -65.868 
L 168.125956 -65.868 
L 167.185768 -65.868 
L 166.245579 -65.868 
L 165.30539 -65.868 
L 164.365202 -65.868 
L 163.425013 -65.868 
L 162.484825 -65.868 
L 161.544636 -65.868 
L 160.604448 -65.868 
L 159.664259 -65.868 
L 158.72407 -65.868 
L 157.783882 -65.868 
L 156.843693 -65.868 
L 155.903505 -65.868 
L 154.963316 -65.868 
L 154.023128 -65.868 
L 153.082939 -65.868 
L 152.14275 -65.868 
L 151.202562 -65.868 
L 150.262373 -65.868 
L 149.322185 -65.868 
L 148.381996 -65.868 
L 147.441808 -65.868 
L 146.501619 -65.868 
L 145.56143 -65.868 
L 144.621242 -65.868 
L 143.681053 -65.868 
L 142.740865 -65.868 
L 141.800676 -65.868 
L 140.860487 -65.868 
L 139.920299 -65.868 
L 138.98011 -65.868 
L 138.039922 -65.868 
L 137.099733 -65.868 
L 136.159545 -65.868 
L 135.219356 -65.868 
L 134.279167 -65.868 
L 133.338979 -65.868 
L 132.39879 -65.868 
L 131.458602 -65.868 
L 130.518413 -65.868 
L 129.578225 -65.868 
L 128.638036 -65.868 
L 127.697847 -65.868 
L 126.757659 -65.868 
L 125.81747 -65.868 
L 124.877282 -65.868 
L 123.937093 -65.868 
L 122.996904 -65.868 
L 122.056716 -65.868 
L 121.116527 -65.868 
L 120.176339 -65.868 
L 119.23615 -65.868 
L 118.295962 -65.868 
L 117.355773 -65.868 
L 116.415584 -65.868 
L 115.475396 -65.868 
L 114.535207 -65.868 
L 113.595019 -65.868 
L 112.65483 -65.868 
L 111.714642 -65.868 
L 110.774453 -65.868 
L 109.834264 -65.868 
L 108.894076 -65.868 
L 107.953887 -65.868 
L 107.013699 -65.868 
L 106.07351 -65.868 
L 105.133321 -65.868 
L 104.193133 -65.868 
L 103.252944 -65.868 
L 102.312756 -65.868 
L 101.372567 -65.868 
L 100.432379 -65.868 
L 99.49219 -65.868 
L 98.552001 -65.868 
L 97.611813 -65.868 
L 96.671624 -65.868 
L 95.731436 -65.868 
L 94.791247 -65.868 
L 93.851059 -65.868 
L 92.91087 -65.868 
L 91.970681 -65.868 
L 91.030493 -65.868 
L 90.090304 -65.868 
L 89.150116 -65.868 
L 88.209927 -65.868 
L 87.269738 -65.868 
L 86.32955 -65.868 
L 85.389361 -65.868 
L 84.449173 -65.868 
L 83.508984 -65.868 
L 82.568796 -65.868 
L 81.628607 -65.868 
L 80.688418 -65.868 
L 79.74823 -65.868 
L 78.808041 -65.868 
L 77.867853 -65.868 
L 76.927664 -65.868 
L 75.987476 -65.868 
L 75.047287 -65.868 
L 74.107098 -65.868 
L 73.16691 -65.868 
L 72.226721 -65.868 
L 71.286533 -65.868 
L 70.346344 -65.868 
L 69.406155 -65.868 
L 68.465967 -65.868 
L 67.525778 -65.868 
L 66.58559 -65.868 
L 65.645401 -65.868 
L 64.705213 -65.868 
L 63.765024 -65.868 
L 62.824835 -65.868 
L 61.884647 -65.868 
L 60.944458 -65.868 
L 60.00427 -65.868 
L 59.064081 -65.868 
L 58.123893 -65.868 
L 57.183704 -65.868 
L 56.243515 -65.868 
L 55.303327 -65.868 
L 54.363138 -65.868 
L 53.42295 -65.868 
L 52.482761 -65.868 
L 51.542572 -65.868 
L 50.602384 -65.868 
L 49.662195 -65.868 
L 48.722007 -65.868 
L 47.781818 -65.868 
z
" style="stroke: #7570b3; stroke-opacity: 0.6; stroke-width: 0.3"/>
    </defs>
    <g clip-path="url(#pbae314952d)">
     <use xlink:href="#m7a4aa2817f" x="0" y="432" style="fill: #7570b3; fill-opacity: 0.6; stroke: #7570b3; stroke-opacity: 0.6; stroke-width: 0.3"/>
    </g>
   </g>
   <g id="line2d_11">
    <path d="M 47.781818 363.966559 
L 61.884647 363.860825 
L 67.525778 363.634212 
L 72.226721 363.186865 
L 75.987476 362.584787 
L 79.74823 361.761978 
L 84.449173 360.440502 
L 97.611813 356.469271 
L 106.07351 354.286969 
L 108.894076 353.379682 
L 111.714642 352.244927 
L 114.535207 350.848462 
L 117.355773 349.156694 
L 120.176339 347.194012 
L 122.996904 345.006187 
L 126.757659 341.820154 
L 131.458602 337.497658 
L 135.219356 333.784768 
L 138.98011 329.772447 
L 142.740865 325.37081 
L 146.501619 320.589519 
L 150.262373 315.422481 
L 157.783882 304.35354 
L 166.245579 291.292505 
L 171.886711 282.015338 
L 175.647465 275.388788 
L 180.348408 266.599203 
L 185.049351 257.473059 
L 196.331614 235.30131 
L 199.152179 229.41187 
L 201.972745 223.012797 
L 204.793311 216.054597 
L 207.613877 208.441568 
L 210.434442 200.109046 
L 213.255008 191.312291 
L 222.656894 161.633082 
L 225.47746 153.608952 
L 228.298025 146.376233 
L 231.118591 139.814705 
L 233.939157 133.937282 
L 236.759722 128.634647 
L 239.580288 123.78941 
L 243.341043 117.932073 
L 246.161608 113.880962 
L 248.982174 110.10767 
L 251.80274 106.717245 
L 254.623305 103.614984 
L 257.443871 100.872868 
L 259.324248 99.209123 
L 262.144814 96.817792 
L 268.726134 92.078853 
L 271.5467 90.209588 
L 285.649529 81.493625 
L 298.812169 73.772825 
L 300.692546 72.959185 
L 302.572923 72.351291 
L 304.4533 72.002778 
L 306.333677 72.021439 
L 307.273866 72.18788 
L 308.214054 72.491736 
L 310.094432 73.445553 
L 311.03462 74.087827 
L 311.974809 74.869468 
L 313.855186 76.824313 
L 315.735563 79.317506 
L 317.61594 82.328879 
L 319.496317 85.772612 
L 322.316883 91.77249 
L 325.137449 98.555458 
L 327.958015 106.008872 
L 330.77858 113.957656 
L 334.539335 125.382159 
L 338.300089 137.506653 
L 343.94122 156.649043 
L 351.462729 182.225418 
L 355.223483 194.364664 
L 358.984238 205.802202 
L 362.744992 216.534672 
L 366.505746 226.549633 
L 370.266501 236.013852 
L 373.087066 242.693001 
L 376.847821 250.999523 
L 380.608575 258.617697 
L 384.369329 265.711638 
L 388.130084 272.264816 
L 391.890838 278.457382 
L 395.651592 284.308308 
L 400.352535 291.325051 
L 405.053478 298.075811 
L 420.096495 319.244305 
L 424.797438 325.644708 
L 428.558192 330.40578 
L 431.378758 333.656743 
L 434.199324 336.638466 
L 437.01989 339.31908 
L 439.840455 341.687345 
L 442.661021 343.83645 
L 446.421775 346.395833 
L 451.122718 349.331758 
L 458.644227 353.699352 
L 463.34517 356.193968 
L 468.046113 358.389631 
L 471.806867 359.859057 
L 475.567621 361.055376 
L 479.328376 362.018346 
L 484.029319 362.939762 
L 490.610639 363.951196 
L 497.191959 364.752869 
L 501.892902 365.188528 
L 507.534033 365.49038 
L 513.175165 365.563316 
L 522.57705 365.384508 
L 528.218182 365.30877 
L 528.218182 365.30877 
" clip-path="url(#pbae314952d)" style="fill: none; stroke: #7570b3; stroke-width: 2; stroke-linecap: round"/>
   </g>
   <g id="line2d_12">
    <path d="M 171.326059 359.95464 
L 398.936303 359.95464 
" clip-path="url(#pbae314952d)" style="fill: none; stroke: #000000; stroke-width: 3.5"/>
   </g>
   <g id="patch_3">
    <path d="M 23.76 380.84 
L 552.24 380.84 
" style="fill: none; stroke: #333333; stroke-width: 1.5; stroke-linejoin: miter; stroke-linecap: square"/>
   </g>
   <g id="text_6">
    <text style="font-size: 22px; font-family: 'DejaVu Serif', 'Times New Roman', serif; text-anchor: end; fill: #262626" x="171.326059" y="344.51124" transform="rotate(-0 171.326059 344.51124)">-0.011 </text>
   </g>
   <g id="text_7">
    <text style="font-size: 22px; font-family: 'DejaVu Serif', 'Times New Roman', serif; text-anchor: start; fill: #262626" x="398.936303" y="344.51124" transform="rotate(-0 398.936303 344.51124)"> 0.011</text>
   </g>
   <g id="text_8">
    <text style="font-size: 22px; font-family: 'DejaVu Serif', 'Times New Roman', serif; text-anchor: middle; fill: #262626" x="285.131181" y="273.4716" transform="rotate(-0 285.131181 273.4716)">90% HDI</text>
   </g>
   <g id="text_9">
    <text style="font-size: 22px; font-family: 'DejaVu Serif', 'Times New Roman', serif; text-anchor: middle; fill: #262626" x="283.185431" y="119.0376" transform="rotate(-0 283.185431 119.0376)">mean=-3.1e-05</text>
   </g>
   <g id="text_10">
    <!-- $x_3^4$ -->
    <g style="fill: #262626" transform="translate(272.46 49.144)">
     <text>
      <tspan x="0" y="-0.996875" style="font-style: oblique; font-size: 28px; font-family: 'DejaVu Sans'; fill: #262626">x</tspan>
      <tspan x="16.570312" y="6.659375" style="font-size: 19.6px; font-family: 'DejaVu Sans'; fill: #262626">3</tspan>
      <tspan x="17.820833" y="-11.715625" style="font-size: 19.6px; font-family: 'DejaVu Sans'; fill: #262626">4</tspan>
     </text>
    </g>
   </g>
  </g>
 </g>
 <defs>
  <clipPath id="pbae314952d">
   <rect x="23.76" y="57.264" width="528.48" height="323.576"/>
  </clipPath>
 </defs>
</svg>
