<?xml version="1.0" encoding="utf-8" standalone="no"?>
<!DOCTYPE svg PUBLIC "-//W3C//DTD SVG 1.1//EN"
  "http://www.w3.org/Graphics/SVG/1.1/DTD/svg11.dtd">
<svg xmlns:xlink="http://www.w3.org/1999/xlink" width="1288.791875pt" height="716.248438pt" viewBox="0 0 1288.791875 716.248438" xmlns="http://www.w3.org/2000/svg" version="1.1">
 <metadata>
  <rdf:RDF xmlns:dc="http://purl.org/dc/elements/1.1/" xmlns:cc="http://creativecommons.org/ns#" xmlns:rdf="http://www.w3.org/1999/02/22-rdf-syntax-ns#">
   <cc:Work>
    <dc:type rdf:resource="http://purl.org/dc/dcmitype/StillImage"/>
    <dc:date>2026-02-24T17:00:41.195226</dc:date>
    <dc:format>image/svg+xml</dc:format>
    <dc:creator>
     <cc:Agent>
      <dc:title>Matplotlib v3.10.6, https://matplotlib.org/</dc:title>
     </cc:Agent>
    </dc:creator>
   </cc:Work>
  </rdf:RDF>
 </metadata>
 <defs>
  <style type="text/css">*{stroke-linejoin: round; stroke-linecap: butt}</style>
 </defs>
 <g id="figure_1">
  <g id="patch_1">
   <path d="M 0 716.248438 
L 1288.791875 716.248438 
L 1288.791875 0 
L 0 0 
z
" style="fill: #ffffff"/>
  </g>
  <g id="axes_1">
   <g id="patch_2">
    <path d="M 100.006875 188.741979 
L 1281.591875 188.741979 
L 1281.591875 39.995312 
L 100.006875 39.995312 
z
" style="fill: #ffffff"/>
   </g>
   <g id="matplotlib.axis_1">
    <g id="xtick_1">
     <g id="line2d_1">
      <path d="M 153.715284 188.741979 
L 153.715284 39.995312 
" clip-path="url(#padacb7bb4b)" style="fill: none; stroke-dasharray: 2.96,1.28; stroke-dashoffset: 0; stroke: #b0b0b0; stroke-opacity: 0.3; stroke-width: 0.8"/>
     </g>
     <g id="line2d_2">
      <defs>
       <path id="m081091ff2a" d="M 0 0 
L 0 3.5 
" style="stroke: #000000; stroke-width: 0.8"/>
      </defs>
      <g>
       <use xlink:href="#m081091ff2a" x="153.715284" y="188.741979" style="stroke: #000000; stroke-width: 0.8"/>
      </g>
     </g>
     <g id="text_1">
      <!-- 0 -->
      <g transform="translate(144.807784 217.017604) scale(0.28 -0.28)">
       <defs>
        <path id="DejaVuSans-30" d="M 2034 4250 
Q 1547 4250 1301 3770 
Q 1056 3291 1056 2328 
Q 1056 1369 1301 889 
Q 1547 409 2034 409 
Q 2525 409 2770 889 
Q 3016 1369 3016 2328 
Q 3016 3291 2770 3770 
Q 2525 4250 2034 4250 
z
M 2034 4750 
Q 2819 4750 3233 4129 
Q 3647 3509 3647 2328 
Q 3647 1150 3233 529 
Q 2819 -91 2034 -91 
Q 1250 -91 836 529 
Q 422 1150 422 2328 
Q 422 3509 836 4129 
Q 1250 4750 2034 4750 
z
" transform="scale(0.015625)"/>
       </defs>
       <use xlink:href="#DejaVuSans-30"/>
      </g>
     </g>
    </g>
    <g id="xtick_2">
     <g id="line2d_3">
      <path d="M 324.21817 188.741979 
L 324.21817 39.995312 
" clip-path="url(#padacb7bb4b)" style="fill: none; stroke-dasharray: 2.96,1.28; stroke-dashoffset: 0; stroke: #b0b0b0; stroke-opacity: 0.3; stroke-width: 0.8"/>
     </g>
     <g id="line2d_4">
      <g>
       <use xlink:href="#m081091ff2a" x="324.21817" y="188.741979" style="stroke: #000000; stroke-width: 0.8"/>
      </g>
     </g>
     <g id="text_2">
      <!-- 50 -->
      <g transform="translate(306.40317 217.017604) scale(0.28 -0.28)">
       <defs>
        <path id="DejaVuSans-35" d="M 691 4666 
L 3169 4666 
L 3169 4134 
L 1269 4134 
L 1269 2991 
Q 1406 3038 1543 3061 
Q 1681 3084 1819 3084 
Q 2600 3084 3056 2656 
Q 3513 2228 3513 1497 
Q 3513 744 3044 326 
Q 2575 -91 1722 -91 
Q 1428 -91 1123 -41 
Q 819 9 494 109 
L 494 744 
Q 775 591 1075 516 
Q 1375 441 1709 441 
Q 2250 441 2565 725 
Q 2881 1009 2881 1497 
Q 2881 1984 2565 2268 
Q 2250 2553 1709 2553 
Q 1456 2553 1204 2497 
Q 953 2441 691 2322 
L 691 4666 
z
" transform="scale(0.015625)"/>
       </defs>
       <use xlink:href="#DejaVuSans-35"/>
       <use xlink:href="#DejaVuSans-30" transform="translate(63.623047 0)"/>
      </g>
     </g>
    </g>
    <g id="xtick_3">
     <g id="line2d_5">
      <path d="M 494.721056 188.741979 
L 494.721056 39.995312 
" clip-path="url(#padacb7bb4b)" style="fill: none; stroke-dasharray: 2.96,1.28; stroke-dashoffset: 0; stroke: #b0b0b0; stroke-opacity: 0.3; stroke-width: 0.8"/>
     </g>
     <g id="line2d_6">
      <g>
       <use xlink:href="#m081091ff2a" x="494.721056" y="188.741979" style="stroke: #000000; stroke-width: 0.8"/>
      </g>
     </g>
     <g id="text_3">
      <!-- 100 -->
      <g transform="translate(467.998556 217.017604) scale(0.28 -0.28)">
       <defs>
        <path id="DejaVuSans-31" d="M 794 531 
L 1825 531 
L 1825 4091 
L 703 3866 
L 703 4441 
L 1819 4666 
L 2450 4666 
L 2450 531 
L 3481 531 
L 3481 0 
L 794 0 
L 794 531 
z
" transform="scale(0.015625)"/>
       </defs>
       <use xlink:href="#DejaVuSans-31"/>
       <use xlink:href="#DejaVuSans-30" transform="translate(63.623047 0)"/>
       <use xlink:href="#DejaVuSans-30" transform="translate(127.246094 0)"/>
      </g>
     </g>
    </g>
    <g id="xtick_4">
     <g id="line2d_7">
      <path d="M 665.223942 188.741979 
L 665.223942 39.995312 
" clip-path="url(#padacb7bb4b)" style="fill: none; stroke-dasharray: 2.96,1.28; stroke-dashoffset: 0; stroke: #b0b0b0; stroke-opacity: 0.3; stroke-width: 0.8"/>
     </g>
     <g id="line2d_8">
      <g>
       <use xlink:href="#m081091ff2a" x="665.223942" y="188.741979" style="stroke: #000000; stroke-width: 0.8"/>
      </g>
     </g>
     <g id="text_4">
      <!-- 150 -->
      <g transform="translate(638.501442 217.017604) scale(0.28 -0.28)">
       <use xlink:href="#DejaVuSans-31"/>
       <use xlink:href="#DejaVuSans-35" transform="translate(63.623047 0)"/>
       <use xlink:href="#DejaVuSans-30" transform="translate(127.246094 0)"/>
      </g>
     </g>
    </g>
    <g id="xtick_5">
     <g id="line2d_9">
      <path d="M 835.726828 188.741979 
L 835.726828 39.995312 
" clip-path="url(#padacb7bb4b)" style="fill: none; stroke-dasharray: 2.96,1.28; stroke-dashoffset: 0; stroke: #b0b0b0; stroke-opacity: 0.3; stroke-width: 0.8"/>
     </g>
     <g id="line2d_10">
      <g>
       <use xlink:href="#m081091ff2a" x="835.726828" y="188.741979" style="stroke: #000000; stroke-width: 0.8"/>
      </g>
     </g>
     <g id="text_5">
      <!-- 200 -->
      <g transform="translate(809.004328 217.017604) scale(0.28 -0.28)">
       <defs>
        <path id="DejaVuSans-32" d="M 1228 531 
L 3431 531 
L 3431 0 
L 469 0 
L 469 531 
Q 828 903 1448 1529 
Q 2069 2156 2228 2338 
Q 2531 2678 2651 2914 
Q 2772 3150 2772 3378 
Q 2772 3750 2511 3984 
Q 2250 4219 1831 4219 
Q 1534 4219 1204 4116 
Q 875 4013 500 3803 
L 500 4441 
Q 881 4594 1212 4672 
Q 1544 4750 1819 4750 
Q 2544 4750 2975 4387 
Q 3406 4025 3406 3419 
Q 3406 3131 3298 2873 
Q 3191 2616 2906 2266 
Q 2828 2175 2409 1742 
Q 1991 1309 1228 531 
z
" transform="scale(0.015625)"/>
       </defs>
       <use xlink:href="#DejaVuSans-32"/>
       <use xlink:href="#DejaVuSans-30" transform="translate(63.623047 0)"/>
       <use xlink:href="#DejaVuSans-30" transform="translate(127.246094 0)"/>
      </g>
     </g>
    </g>
    <g id="xtick_6">
     <g id="line2d_11">
      <path d="M 1006.229714 188.741979 
L 1006.229714 39.995312 
" clip-path="url(#padacb7bb4b)" style="fill: none; stroke-dasharray: 2.96,1.28; stroke-dashoffset: 0; stroke: #b0b0b0; stroke-opacity: 0.3; stroke-width: 0.8"/>
     </g>
     <g id="line2d_12">
      <g>
       <use xlink:href="#m081091ff2a" x="1006.229714" y="188.741979" style="stroke: #000000; stroke-width: 0.8"/>
      </g>
     </g>
     <g id="text_6">
      <!-- 250 -->
      <g transform="translate(979.507214 217.017604) scale(0.28 -0.28)">
       <use xlink:href="#DejaVuSans-32"/>
       <use xlink:href="#DejaVuSans-35" transform="translate(63.623047 0)"/>
       <use xlink:href="#DejaVuSans-30" transform="translate(127.246094 0)"/>
      </g>
     </g>
    </g>
    <g id="xtick_7">
     <g id="line2d_13">
      <path d="M 1176.7326 188.741979 
L 1176.7326 39.995312 
" clip-path="url(#padacb7bb4b)" style="fill: none; stroke-dasharray: 2.96,1.28; stroke-dashoffset: 0; stroke: #b0b0b0; stroke-opacity: 0.3; stroke-width: 0.8"/>
     </g>
     <g id="line2d_14">
      <g>
       <use xlink:href="#m081091ff2a" x="1176.7326" y="188.741979" style="stroke: #000000; stroke-width: 0.8"/>
      </g>
     </g>
     <g id="text_7">
      <!-- 300 -->
      <g transform="translate(1150.0101 217.017604) scale(0.28 -0.28)">
       <defs>
        <path id="DejaVuSans-33" d="M 2597 2516 
Q 3050 2419 3304 2112 
Q 3559 1806 3559 1356 
Q 3559 666 3084 287 
Q 2609 -91 1734 -91 
Q 1441 -91 1130 -33 
Q 819 25 488 141 
L 488 750 
Q 750 597 1062 519 
Q 1375 441 1716 441 
Q 2309 441 2620 675 
Q 2931 909 2931 1356 
Q 2931 1769 2642 2001 
Q 2353 2234 1838 2234 
L 1294 2234 
L 1294 2753 
L 1863 2753 
Q 2328 2753 2575 2939 
Q 2822 3125 2822 3475 
Q 2822 3834 2567 4026 
Q 2313 4219 1838 4219 
Q 1578 4219 1281 4162 
Q 984 4106 628 3988 
L 628 4550 
Q 988 4650 1302 4700 
Q 1616 4750 1894 4750 
Q 2613 4750 3031 4423 
Q 3450 4097 3450 3541 
Q 3450 3153 3228 2886 
Q 3006 2619 2597 2516 
z
" transform="scale(0.015625)"/>
       </defs>
       <use xlink:href="#DejaVuSans-33"/>
       <use xlink:href="#DejaVuSans-30" transform="translate(63.623047 0)"/>
       <use xlink:href="#DejaVuSans-30" transform="translate(127.246094 0)"/>
      </g>
     </g>
    </g>
   </g>
   <g id="matplotlib.axis_2">
    <g id="ytick_1">
     <g id="line2d_15">
      <path d="M 100.006875 173.83921 
L 1281.591875 173.83921 
" clip-path="url(#padacb7bb4b)" style="fill: none; stroke-dasharray: 2.96,1.28; stroke-dashoffset: 0; stroke: #b0b0b0; stroke-opacity: 0.3; stroke-width: 0.8"/>
     </g>
     <g id="line2d_16">
      <defs>
       <path id="m1ba4f321a8" d="M 0 0 
L -3.5 0 
" style="stroke: #000000; stroke-width: 0.8"/>
      </defs>
      <g>
       <use xlink:href="#m1ba4f321a8" x="100.006875" y="173.83921" style="stroke: #000000; stroke-width: 0.8"/>
      </g>
     </g>
     <g id="text_8">
      <!-- −0.05 -->
      <g transform="translate(7.2 184.477023) scale(0.28 -0.28)">
       <defs>
        <path id="DejaVuSans-2212" d="M 678 2272 
L 4684 2272 
L 4684 1741 
L 678 1741 
L 678 2272 
z
" transform="scale(0.015625)"/>
        <path id="DejaVuSans-2e" d="M 684 794 
L 1344 794 
L 1344 0 
L 684 0 
L 684 794 
z
" transform="scale(0.015625)"/>
       </defs>
       <use xlink:href="#DejaVuSans-2212"/>
       <use xlink:href="#DejaVuSans-30" transform="translate(83.789062 0)"/>
       <use xlink:href="#DejaVuSans-2e" transform="translate(147.412109 0)"/>
       <use xlink:href="#DejaVuSans-30" transform="translate(179.199219 0)"/>
       <use xlink:href="#DejaVuSans-35" transform="translate(242.822266 0)"/>
      </g>
     </g>
    </g>
    <g id="ytick_2">
     <g id="line2d_17">
      <path d="M 100.006875 104.954484 
L 1281.591875 104.954484 
" clip-path="url(#padacb7bb4b)" style="fill: none; stroke-dasharray: 2.96,1.28; stroke-dashoffset: 0; stroke: #b0b0b0; stroke-opacity: 0.3; stroke-width: 0.8"/>
     </g>
     <g id="line2d_18">
      <g>
       <use xlink:href="#m1ba4f321a8" x="100.006875" y="104.954484" style="stroke: #000000; stroke-width: 0.8"/>
      </g>
     </g>
     <g id="text_9">
      <!-- 0.00 -->
      <g transform="translate(30.663125 115.592297) scale(0.28 -0.28)">
       <use xlink:href="#DejaVuSans-30"/>
       <use xlink:href="#DejaVuSans-2e" transform="translate(63.623047 0)"/>
       <use xlink:href="#DejaVuSans-30" transform="translate(95.410156 0)"/>
       <use xlink:href="#DejaVuSans-30" transform="translate(159.033203 0)"/>
      </g>
     </g>
    </g>
   </g>
   <g id="line2d_19">
    <path d="M 153.715284 172.866402 
L 157.125342 161.436461 
L 160.5354 151.503533 
L 163.945457 139.077366 
L 167.355515 129.467641 
L 170.765573 121.470243 
L 174.17563 112.639942 
L 177.585688 104.681658 
L 180.995746 95.954093 
L 184.405804 87.65129 
L 191.225919 74.038153 
L 194.635977 68.059389 
L 198.046034 60.706544 
L 201.456092 54.442223 
L 204.86615 50.657195 
L 208.276208 48.289115 
L 211.686265 47.184554 
L 215.096323 46.756525 
L 221.916438 47.056729 
L 225.326496 48.609695 
L 228.736554 50.461761 
L 232.146612 53.141588 
L 235.556669 58.617447 
L 238.966727 62.215528 
L 242.376785 66.589785 
L 245.786843 71.805297 
L 249.1969 81.97952 
L 252.606958 88.518061 
L 256.017016 96.471485 
L 259.427073 103.682141 
L 262.837131 108.387651 
L 266.247189 115.235624 
L 269.657247 123.329432 
L 276.477362 141.814613 
L 279.88742 149.430115 
L 283.297477 156.191772 
L 290.117593 165.612336 
L 293.527651 170.682234 
L 296.937708 175.300847 
L 300.347766 177.844047 
L 303.757824 179.063628 
L 307.167881 179.939375 
L 313.987997 180.628634 
L 317.398055 180.387928 
L 324.21817 177.358299 
L 327.628228 173.981448 
L 331.038286 163.946972 
L 337.858401 137.918506 
L 341.268459 122.490481 
L 344.678516 111.726074 
L 348.088574 105.667903 
L 351.498632 98.889684 
L 354.90869 93.646324 
L 358.318747 88.697129 
L 361.728805 81.797703 
L 365.138863 76.592774 
L 368.54892 67.829505 
L 371.958978 60.401664 
L 375.369036 57.044147 
L 378.779094 55.962943 
L 382.189151 54.594689 
L 385.599209 52.231393 
L 389.009267 50.316137 
L 392.419324 50.096135 
L 395.829382 49.393034 
L 399.23944 48.257834 
L 402.649498 49.272322 
L 406.059555 55.285144 
L 409.469613 58.26304 
L 412.879671 63.657208 
L 416.289729 68.710703 
L 419.699786 79.660257 
L 423.109844 86.339623 
L 426.519902 89.901489 
L 429.929959 91.008942 
L 433.340017 95.763147 
L 436.750075 99.763552 
L 440.160133 104.939178 
L 446.980248 116.199045 
L 450.390306 126.085151 
L 457.210421 150.072485 
L 460.620479 160.148415 
L 464.030537 169.832928 
L 467.440594 175.694942 
L 470.850652 178.865151 
L 474.26071 180.862087 
L 477.670767 181.603583 
L 481.080825 181.910921 
L 484.490883 181.980767 
L 487.900941 181.765851 
L 491.310998 180.998011 
L 494.721056 178.388903 
L 498.131114 176.72822 
L 501.541172 174.759696 
L 508.361287 173.167535 
L 511.771345 169.069748 
L 515.181402 161.216859 
L 518.59146 150.908416 
L 522.001518 139.461607 
L 525.411576 131.717531 
L 528.821633 121.684254 
L 532.231691 112.369597 
L 535.641749 107.082615 
L 539.051806 102.297129 
L 542.461864 95.974623 
L 545.871922 88.113737 
L 549.28198 79.177861 
L 552.692037 72.250869 
L 556.102095 65.678227 
L 559.512153 58.716772 
L 562.92221 53.124395 
L 566.332268 49.964984 
L 569.742326 48.220778 
L 573.152384 47.132549 
L 576.562441 47.220116 
L 579.972499 48.789644 
L 583.382557 49.282371 
L 586.792615 50.80772 
L 590.202672 56.782065 
L 593.61273 68.964511 
L 597.022788 79.885237 
L 603.842903 95.014638 
L 607.252961 103.854458 
L 610.663019 113.173169 
L 614.073076 121.725319 
L 617.483134 128.233235 
L 620.893192 130.797287 
L 624.303249 135.033738 
L 627.713307 140.169807 
L 631.123365 145.877477 
L 637.94348 160.369936 
L 641.353538 165.82913 
L 644.763596 170.582077 
L 648.173653 174.364914 
L 651.583711 177.547378 
L 654.993769 179.497 
L 658.403827 179.547261 
L 665.223942 178.701774 
L 668.634 172.272214 
L 672.044058 167.75292 
L 675.454115 139.393327 
L 678.864173 129.824439 
L 682.274231 131.810762 
L 685.684288 137.437482 
L 689.094346 141.773799 
L 692.504404 140.090097 
L 695.914462 134.549849 
L 699.324519 126.407533 
L 702.734577 121.933425 
L 706.144635 118.278048 
L 712.96475 101.507507 
L 716.374808 94.163333 
L 719.784866 88.252715 
L 723.194923 83.86789 
L 726.604981 78.931669 
L 733.425097 67.528913 
L 736.835154 61.077338 
L 740.245212 55.119458 
L 743.65527 51.269459 
L 747.065327 49.328193 
L 750.475385 48.470902 
L 753.885443 48.374039 
L 757.295501 48.857898 
L 760.705558 51.125277 
L 764.115616 56.417127 
L 767.525674 66.28023 
L 770.935731 70.958512 
L 777.755847 78.93385 
L 781.165905 87.648155 
L 784.575962 98.354976 
L 787.98602 105.033829 
L 791.396078 110.784822 
L 798.216193 125.641706 
L 801.626251 132.235417 
L 805.036309 139.685168 
L 808.446366 147.706772 
L 811.856424 155.274453 
L 815.266482 162.006604 
L 818.67654 167.658424 
L 822.086597 172.433779 
L 825.496655 176.243166 
L 828.906713 178.588257 
L 832.31677 179.857642 
L 835.726828 180.379665 
L 842.546944 180.446242 
L 845.957001 180.455562 
L 849.367059 180.199557 
L 856.187174 180.218793 
L 859.597232 179.997472 
L 863.00729 178.212331 
L 866.417348 175.34399 
L 869.827405 169.99919 
L 873.237463 161.748162 
L 876.647521 152.14014 
L 880.057578 132.714406 
L 883.467636 118.138868 
L 886.877694 106.820902 
L 890.287752 98.256661 
L 893.697809 90.702457 
L 897.107867 83.442415 
L 903.927983 70.909377 
L 907.33804 64.492273 
L 910.748098 59.137576 
L 914.158156 55.886199 
L 917.568213 52.85268 
L 920.978271 50.997061 
L 924.388329 49.796039 
L 927.798387 49.274909 
L 931.208444 49.649019 
L 934.618502 51.572399 
L 941.438617 57.725907 
L 944.848675 65.623047 
L 948.258733 71.01838 
L 951.668791 81.391191 
L 955.078848 87.38988 
L 958.488906 94.398739 
L 961.898964 102.530659 
L 965.309021 106.863772 
L 968.719079 117.27667 
L 972.129137 128.902104 
L 975.539195 137.733825 
L 978.949252 145.357489 
L 989.179426 165.655637 
L 992.589483 171.800221 
L 995.999541 175.862435 
L 999.409599 178.194435 
L 1002.819656 179.847845 
L 1006.229714 180.798996 
L 1009.639772 181.380697 
L 1016.459887 181.645104 
L 1019.869945 181.541159 
L 1026.69006 181.026983 
L 1033.510176 180.144672 
L 1036.920234 179.744244 
L 1040.330291 178.378685 
L 1043.740349 175.046788 
L 1047.150407 166.712164 
L 1050.560464 155.686413 
L 1053.970522 144.054701 
L 1057.38058 135.107169 
L 1060.790638 122.527631 
L 1064.200695 123.425493 
L 1067.610753 120.869389 
L 1071.020811 112.975155 
L 1074.430869 109.433007 
L 1077.840926 98.333094 
L 1081.250984 90.220987 
L 1084.661042 85.822263 
L 1088.071099 75.84758 
L 1091.481157 67.718622 
L 1094.891215 63.976748 
L 1098.301273 63.028738 
L 1101.71133 62.952192 
L 1105.121388 64.955498 
L 1108.531446 65.337978 
L 1111.941503 62.089035 
L 1115.351561 62.034111 
L 1118.761619 67.346108 
L 1122.171677 70.47709 
L 1125.581734 78.605641 
L 1132.40185 100.449162 
L 1135.811907 113.950736 
L 1139.221965 122.194304 
L 1142.632023 127.010459 
L 1146.042081 131.401845 
L 1149.452138 135.346232 
L 1152.862196 139.994513 
L 1163.092369 153.167757 
L 1169.912485 163.711743 
L 1173.322542 168.49241 
L 1176.7326 172.612496 
L 1180.142658 176.396904 
L 1183.552716 179.140381 
L 1186.962773 180.669389 
L 1190.372831 181.117846 
L 1193.782889 181.025977 
L 1197.192946 180.709529 
L 1200.603004 179.798385 
L 1204.013062 175.225823 
L 1207.42312 172.469746 
L 1210.833177 173.598762 
L 1214.243235 173.221753 
L 1217.653293 171.541136 
L 1221.06335 163.186297 
L 1224.473408 156.553456 
L 1227.883466 149.125081 
L 1227.883466 149.125081 
" clip-path="url(#padacb7bb4b)" style="fill: none; stroke: #0000ff; stroke-opacity: 0.8; stroke-width: 1.5; stroke-linecap: square"/>
   </g>
   <g id="patch_3">
    <path d="M 100.006875 188.741979 
L 100.006875 39.995312 
" style="fill: none; stroke: #000000; stroke-width: 0.8; stroke-linejoin: miter; stroke-linecap: square"/>
   </g>
   <g id="patch_4">
    <path d="M 1281.591875 188.741979 
L 1281.591875 39.995312 
" style="fill: none; stroke: #000000; stroke-width: 0.8; stroke-linejoin: miter; stroke-linecap: square"/>
   </g>
   <g id="patch_5">
    <path d="M 100.006875 188.741979 
L 1281.591875 188.741979 
" style="fill: none; stroke: #000000; stroke-width: 0.8; stroke-linejoin: miter; stroke-linecap: square"/>
   </g>
   <g id="patch_6">
    <path d="M 100.006875 39.995312 
L 1281.591875 39.995312 
" style="fill: none; stroke: #000000; stroke-width: 0.8; stroke-linejoin: miter; stroke-linecap: square"/>
   </g>
   <g id="text_10">
    <!-- Latent Dimension 1 -->
    <g transform="translate(543.944688 29.995312) scale(0.3 -0.3)">
     <defs>
      <path id="DejaVuSans-4c" d="M 628 4666 
L 1259 4666 
L 1259 531 
L 3531 531 
L 3531 0 
L 628 0 
L 628 4666 
z
" transform="scale(0.015625)"/>
      <path id="DejaVuSans-61" d="M 2194 1759 
Q 1497 1759 1228 1600 
Q 959 1441 959 1056 
Q 959 750 1161 570 
Q 1363 391 1709 391 
Q 2188 391 2477 730 
Q 2766 1069 2766 1631 
L 2766 1759 
L 2194 1759 
z
M 3341 1997 
L 3341 0 
L 2766 0 
L 2766 531 
Q 2569 213 2275 61 
Q 1981 -91 1556 -91 
Q 1019 -91 701 211 
Q 384 513 384 1019 
Q 384 1609 779 1909 
Q 1175 2209 1959 2209 
L 2766 2209 
L 2766 2266 
Q 2766 2663 2505 2880 
Q 2244 3097 1772 3097 
Q 1472 3097 1187 3025 
Q 903 2953 641 2809 
L 641 3341 
Q 956 3463 1253 3523 
Q 1550 3584 1831 3584 
Q 2591 3584 2966 3190 
Q 3341 2797 3341 1997 
z
" transform="scale(0.015625)"/>
      <path id="DejaVuSans-74" d="M 1172 4494 
L 1172 3500 
L 2356 3500 
L 2356 3053 
L 1172 3053 
L 1172 1153 
Q 1172 725 1289 603 
Q 1406 481 1766 481 
L 2356 481 
L 2356 0 
L 1766 0 
Q 1100 0 847 248 
Q 594 497 594 1153 
L 594 3053 
L 172 3053 
L 172 3500 
L 594 3500 
L 594 4494 
L 1172 4494 
z
" transform="scale(0.015625)"/>
      <path id="DejaVuSans-65" d="M 3597 1894 
L 3597 1613 
L 953 1613 
Q 991 1019 1311 708 
Q 1631 397 2203 397 
Q 2534 397 2845 478 
Q 3156 559 3463 722 
L 3463 178 
Q 3153 47 2828 -22 
Q 2503 -91 2169 -91 
Q 1331 -91 842 396 
Q 353 884 353 1716 
Q 353 2575 817 3079 
Q 1281 3584 2069 3584 
Q 2775 3584 3186 3129 
Q 3597 2675 3597 1894 
z
M 3022 2063 
Q 3016 2534 2758 2815 
Q 2500 3097 2075 3097 
Q 1594 3097 1305 2825 
Q 1016 2553 972 2059 
L 3022 2063 
z
" transform="scale(0.015625)"/>
      <path id="DejaVuSans-6e" d="M 3513 2113 
L 3513 0 
L 2938 0 
L 2938 2094 
Q 2938 2591 2744 2837 
Q 2550 3084 2163 3084 
Q 1697 3084 1428 2787 
Q 1159 2491 1159 1978 
L 1159 0 
L 581 0 
L 581 3500 
L 1159 3500 
L 1159 2956 
Q 1366 3272 1645 3428 
Q 1925 3584 2291 3584 
Q 2894 3584 3203 3211 
Q 3513 2838 3513 2113 
z
" transform="scale(0.015625)"/>
      <path id="DejaVuSans-20" transform="scale(0.015625)"/>
      <path id="DejaVuSans-44" d="M 1259 4147 
L 1259 519 
L 2022 519 
Q 2988 519 3436 956 
Q 3884 1394 3884 2338 
Q 3884 3275 3436 3711 
Q 2988 4147 2022 4147 
L 1259 4147 
z
M 628 4666 
L 1925 4666 
Q 3281 4666 3915 4102 
Q 4550 3538 4550 2338 
Q 4550 1131 3912 565 
Q 3275 0 1925 0 
L 628 0 
L 628 4666 
z
" transform="scale(0.015625)"/>
      <path id="DejaVuSans-69" d="M 603 3500 
L 1178 3500 
L 1178 0 
L 603 0 
L 603 3500 
z
M 603 4863 
L 1178 4863 
L 1178 4134 
L 603 4134 
L 603 4863 
z
" transform="scale(0.015625)"/>
      <path id="DejaVuSans-6d" d="M 3328 2828 
Q 3544 3216 3844 3400 
Q 4144 3584 4550 3584 
Q 5097 3584 5394 3201 
Q 5691 2819 5691 2113 
L 5691 0 
L 5113 0 
L 5113 2094 
Q 5113 2597 4934 2840 
Q 4756 3084 4391 3084 
Q 3944 3084 3684 2787 
Q 3425 2491 3425 1978 
L 3425 0 
L 2847 0 
L 2847 2094 
Q 2847 2600 2669 2842 
Q 2491 3084 2119 3084 
Q 1678 3084 1418 2786 
Q 1159 2488 1159 1978 
L 1159 0 
L 581 0 
L 581 3500 
L 1159 3500 
L 1159 2956 
Q 1356 3278 1631 3431 
Q 1906 3584 2284 3584 
Q 2666 3584 2933 3390 
Q 3200 3197 3328 2828 
z
" transform="scale(0.015625)"/>
      <path id="DejaVuSans-73" d="M 2834 3397 
L 2834 2853 
Q 2591 2978 2328 3040 
Q 2066 3103 1784 3103 
Q 1356 3103 1142 2972 
Q 928 2841 928 2578 
Q 928 2378 1081 2264 
Q 1234 2150 1697 2047 
L 1894 2003 
Q 2506 1872 2764 1633 
Q 3022 1394 3022 966 
Q 3022 478 2636 193 
Q 2250 -91 1575 -91 
Q 1294 -91 989 -36 
Q 684 19 347 128 
L 347 722 
Q 666 556 975 473 
Q 1284 391 1588 391 
Q 1994 391 2212 530 
Q 2431 669 2431 922 
Q 2431 1156 2273 1281 
Q 2116 1406 1581 1522 
L 1381 1569 
Q 847 1681 609 1914 
Q 372 2147 372 2553 
Q 372 3047 722 3315 
Q 1072 3584 1716 3584 
Q 2034 3584 2315 3537 
Q 2597 3491 2834 3397 
z
" transform="scale(0.015625)"/>
      <path id="DejaVuSans-6f" d="M 1959 3097 
Q 1497 3097 1228 2736 
Q 959 2375 959 1747 
Q 959 1119 1226 758 
Q 1494 397 1959 397 
Q 2419 397 2687 759 
Q 2956 1122 2956 1747 
Q 2956 2369 2687 2733 
Q 2419 3097 1959 3097 
z
M 1959 3584 
Q 2709 3584 3137 3096 
Q 3566 2609 3566 1747 
Q 3566 888 3137 398 
Q 2709 -91 1959 -91 
Q 1206 -91 779 398 
Q 353 888 353 1747 
Q 353 2609 779 3096 
Q 1206 3584 1959 3584 
z
" transform="scale(0.015625)"/>
     </defs>
     <use xlink:href="#DejaVuSans-4c"/>
     <use xlink:href="#DejaVuSans-61" transform="translate(55.712891 0)"/>
     <use xlink:href="#DejaVuSans-74" transform="translate(116.992188 0)"/>
     <use xlink:href="#DejaVuSans-65" transform="translate(156.201172 0)"/>
     <use xlink:href="#DejaVuSans-6e" transform="translate(217.724609 0)"/>
     <use xlink:href="#DejaVuSans-74" transform="translate(281.103516 0)"/>
     <use xlink:href="#DejaVuSans-20" transform="translate(320.3125 0)"/>
     <use xlink:href="#DejaVuSans-44" transform="translate(352.099609 0)"/>
     <use xlink:href="#DejaVuSans-69" transform="translate(429.101562 0)"/>
     <use xlink:href="#DejaVuSans-6d" transform="translate(456.884766 0)"/>
     <use xlink:href="#DejaVuSans-65" transform="translate(554.296875 0)"/>
     <use xlink:href="#DejaVuSans-6e" transform="translate(615.820312 0)"/>
     <use xlink:href="#DejaVuSans-73" transform="translate(679.199219 0)"/>
     <use xlink:href="#DejaVuSans-69" transform="translate(731.298828 0)"/>
     <use xlink:href="#DejaVuSans-6f" transform="translate(759.082031 0)"/>
     <use xlink:href="#DejaVuSans-6e" transform="translate(820.263672 0)"/>
     <use xlink:href="#DejaVuSans-20" transform="translate(883.642578 0)"/>
     <use xlink:href="#DejaVuSans-31" transform="translate(915.429688 0)"/>
    </g>
   </g>
  </g>
  <g id="axes_2">
   <g id="patch_7">
    <path d="M 100.006875 415.328646 
L 1281.591875 415.328646 
L 1281.591875 266.581979 
L 100.006875 266.581979 
z
" style="fill: #ffffff"/>
   </g>
   <g id="matplotlib.axis_3">
    <g id="xtick_8">
     <g id="line2d_20">
      <path d="M 153.715284 415.328646 
L 153.715284 266.581979 
" clip-path="url(#pf44f4511a0)" style="fill: none; stroke-dasharray: 2.96,1.28; stroke-dashoffset: 0; stroke: #b0b0b0; stroke-opacity: 0.3; stroke-width: 0.8"/>
     </g>
     <g id="line2d_21">
      <g>
       <use xlink:href="#m081091ff2a" x="153.715284" y="415.328646" style="stroke: #000000; stroke-width: 0.8"/>
      </g>
     </g>
     <g id="text_11">
      <!-- 0 -->
      <g transform="translate(144.807784 443.604271) scale(0.28 -0.28)">
       <use xlink:href="#DejaVuSans-30"/>
      </g>
     </g>
    </g>
    <g id="xtick_9">
     <g id="line2d_22">
      <path d="M 324.21817 415.328646 
L 324.21817 266.581979 
" clip-path="url(#pf44f4511a0)" style="fill: none; stroke-dasharray: 2.96,1.28; stroke-dashoffset: 0; stroke: #b0b0b0; stroke-opacity: 0.3; stroke-width: 0.8"/>
     </g>
     <g id="line2d_23">
      <g>
       <use xlink:href="#m081091ff2a" x="324.21817" y="415.328646" style="stroke: #000000; stroke-width: 0.8"/>
      </g>
     </g>
     <g id="text_12">
      <!-- 50 -->
      <g transform="translate(306.40317 443.604271) scale(0.28 -0.28)">
       <use xlink:href="#DejaVuSans-35"/>
       <use xlink:href="#DejaVuSans-30" transform="translate(63.623047 0)"/>
      </g>
     </g>
    </g>
    <g id="xtick_10">
     <g id="line2d_24">
      <path d="M 494.721056 415.328646 
L 494.721056 266.581979 
" clip-path="url(#pf44f4511a0)" style="fill: none; stroke-dasharray: 2.96,1.28; stroke-dashoffset: 0; stroke: #b0b0b0; stroke-opacity: 0.3; stroke-width: 0.8"/>
     </g>
     <g id="line2d_25">
      <g>
       <use xlink:href="#m081091ff2a" x="494.721056" y="415.328646" style="stroke: #000000; stroke-width: 0.8"/>
      </g>
     </g>
     <g id="text_13">
      <!-- 100 -->
      <g transform="translate(467.998556 443.604271) scale(0.28 -0.28)">
       <use xlink:href="#DejaVuSans-31"/>
       <use xlink:href="#DejaVuSans-30" transform="translate(63.623047 0)"/>
       <use xlink:href="#DejaVuSans-30" transform="translate(127.246094 0)"/>
      </g>
     </g>
    </g>
    <g id="xtick_11">
     <g id="line2d_26">
      <path d="M 665.223942 415.328646 
L 665.223942 266.581979 
" clip-path="url(#pf44f4511a0)" style="fill: none; stroke-dasharray: 2.96,1.28; stroke-dashoffset: 0; stroke: #b0b0b0; stroke-opacity: 0.3; stroke-width: 0.8"/>
     </g>
     <g id="line2d_27">
      <g>
       <use xlink:href="#m081091ff2a" x="665.223942" y="415.328646" style="stroke: #000000; stroke-width: 0.8"/>
      </g>
     </g>
     <g id="text_14">
      <!-- 150 -->
      <g transform="translate(638.501442 443.604271) scale(0.28 -0.28)">
       <use xlink:href="#DejaVuSans-31"/>
       <use xlink:href="#DejaVuSans-35" transform="translate(63.623047 0)"/>
       <use xlink:href="#DejaVuSans-30" transform="translate(127.246094 0)"/>
      </g>
     </g>
    </g>
    <g id="xtick_12">
     <g id="line2d_28">
      <path d="M 835.726828 415.328646 
L 835.726828 266.581979 
" clip-path="url(#pf44f4511a0)" style="fill: none; stroke-dasharray: 2.96,1.28; stroke-dashoffset: 0; stroke: #b0b0b0; stroke-opacity: 0.3; stroke-width: 0.8"/>
     </g>
     <g id="line2d_29">
      <g>
       <use xlink:href="#m081091ff2a" x="835.726828" y="415.328646" style="stroke: #000000; stroke-width: 0.8"/>
      </g>
     </g>
     <g id="text_15">
      <!-- 200 -->
      <g transform="translate(809.004328 443.604271) scale(0.28 -0.28)">
       <use xlink:href="#DejaVuSans-32"/>
       <use xlink:href="#DejaVuSans-30" transform="translate(63.623047 0)"/>
       <use xlink:href="#DejaVuSans-30" transform="translate(127.246094 0)"/>
      </g>
     </g>
    </g>
    <g id="xtick_13">
     <g id="line2d_30">
      <path d="M 1006.229714 415.328646 
L 1006.229714 266.581979 
" clip-path="url(#pf44f4511a0)" style="fill: none; stroke-dasharray: 2.96,1.28; stroke-dashoffset: 0; stroke: #b0b0b0; stroke-opacity: 0.3; stroke-width: 0.8"/>
     </g>
     <g id="line2d_31">
      <g>
       <use xlink:href="#m081091ff2a" x="1006.229714" y="415.328646" style="stroke: #000000; stroke-width: 0.8"/>
      </g>
     </g>
     <g id="text_16">
      <!-- 250 -->
      <g transform="translate(979.507214 443.604271) scale(0.28 -0.28)">
       <use xlink:href="#DejaVuSans-32"/>
       <use xlink:href="#DejaVuSans-35" transform="translate(63.623047 0)"/>
       <use xlink:href="#DejaVuSans-30" transform="translate(127.246094 0)"/>
      </g>
     </g>
    </g>
    <g id="xtick_14">
     <g id="line2d_32">
      <path d="M 1176.7326 415.328646 
L 1176.7326 266.581979 
" clip-path="url(#pf44f4511a0)" style="fill: none; stroke-dasharray: 2.96,1.28; stroke-dashoffset: 0; stroke: #b0b0b0; stroke-opacity: 0.3; stroke-width: 0.8"/>
     </g>
     <g id="line2d_33">
      <g>
       <use xlink:href="#m081091ff2a" x="1176.7326" y="415.328646" style="stroke: #000000; stroke-width: 0.8"/>
      </g>
     </g>
     <g id="text_17">
      <!-- 300 -->
      <g transform="translate(1150.0101 443.604271) scale(0.28 -0.28)">
       <use xlink:href="#DejaVuSans-33"/>
       <use xlink:href="#DejaVuSans-30" transform="translate(63.623047 0)"/>
       <use xlink:href="#DejaVuSans-30" transform="translate(127.246094 0)"/>
      </g>
     </g>
    </g>
   </g>
   <g id="matplotlib.axis_4">
    <g id="ytick_3">
     <g id="line2d_34">
      <path d="M 100.006875 363.181894 
L 1281.591875 363.181894 
" clip-path="url(#pf44f4511a0)" style="fill: none; stroke-dasharray: 2.96,1.28; stroke-dashoffset: 0; stroke: #b0b0b0; stroke-opacity: 0.3; stroke-width: 0.8"/>
     </g>
     <g id="line2d_35">
      <g>
       <use xlink:href="#m1ba4f321a8" x="100.006875" y="363.181894" style="stroke: #000000; stroke-width: 0.8"/>
      </g>
     </g>
     <g id="text_18">
      <!-- 0.450 -->
      <g transform="translate(12.848125 373.819706) scale(0.28 -0.28)">
       <defs>
        <path id="DejaVuSans-34" d="M 2419 4116 
L 825 1625 
L 2419 1625 
L 2419 4116 
z
M 2253 4666 
L 3047 4666 
L 3047 1625 
L 3713 1625 
L 3713 1100 
L 3047 1100 
L 3047 0 
L 2419 0 
L 2419 1100 
L 313 1100 
L 313 1709 
L 2253 4666 
z
" transform="scale(0.015625)"/>
       </defs>
       <use xlink:href="#DejaVuSans-30"/>
       <use xlink:href="#DejaVuSans-2e" transform="translate(63.623047 0)"/>
       <use xlink:href="#DejaVuSans-34" transform="translate(95.410156 0)"/>
       <use xlink:href="#DejaVuSans-35" transform="translate(159.033203 0)"/>
       <use xlink:href="#DejaVuSans-30" transform="translate(222.65625 0)"/>
      </g>
     </g>
    </g>
    <g id="ytick_4">
     <g id="line2d_36">
      <path d="M 100.006875 277.348051 
L 1281.591875 277.348051 
" clip-path="url(#pf44f4511a0)" style="fill: none; stroke-dasharray: 2.96,1.28; stroke-dashoffset: 0; stroke: #b0b0b0; stroke-opacity: 0.3; stroke-width: 0.8"/>
     </g>
     <g id="line2d_37">
      <g>
       <use xlink:href="#m1ba4f321a8" x="100.006875" y="277.348051" style="stroke: #000000; stroke-width: 0.8"/>
      </g>
     </g>
     <g id="text_19">
      <!-- 0.475 -->
      <g transform="translate(12.848125 287.985863) scale(0.28 -0.28)">
       <defs>
        <path id="DejaVuSans-37" d="M 525 4666 
L 3525 4666 
L 3525 4397 
L 1831 0 
L 1172 0 
L 2766 4134 
L 525 4134 
L 525 4666 
z
" transform="scale(0.015625)"/>
       </defs>
       <use xlink:href="#DejaVuSans-30"/>
       <use xlink:href="#DejaVuSans-2e" transform="translate(63.623047 0)"/>
       <use xlink:href="#DejaVuSans-34" transform="translate(95.410156 0)"/>
       <use xlink:href="#DejaVuSans-37" transform="translate(159.033203 0)"/>
       <use xlink:href="#DejaVuSans-35" transform="translate(222.65625 0)"/>
      </g>
     </g>
    </g>
   </g>
   <g id="line2d_38">
    <path d="M 153.715284 303.091242 
L 157.125342 310.05875 
L 160.5354 312.728022 
L 163.945457 320.082102 
L 170.765573 326.880984 
L 174.17563 333.247249 
L 177.585688 339.331822 
L 180.995746 346.812168 
L 184.405804 353.861329 
L 187.815861 359.686004 
L 194.635977 372.016306 
L 198.046034 380.175967 
L 201.456092 387.015676 
L 204.86615 391.661705 
L 208.276208 395.078336 
L 211.686265 397.768072 
L 215.096323 400.146033 
L 221.916438 403.990677 
L 225.326496 404.241059 
L 228.736554 404.258556 
L 232.146612 403.699059 
L 235.556669 400.071441 
L 238.966727 398.903947 
L 242.376785 397.47625 
L 245.786843 394.190795 
L 249.1969 386.007805 
L 252.606958 383.489253 
L 256.017016 378.642571 
L 259.427073 374.475409 
L 262.837131 372.26853 
L 266.247189 366.856519 
L 269.657247 359.932702 
L 273.067304 352.084816 
L 276.477362 344.952979 
L 279.88742 339.861133 
L 283.297477 334.447178 
L 286.707535 330.800221 
L 290.117593 324.944542 
L 293.527651 318.379261 
L 296.937708 312.384527 
L 300.347766 308.580608 
L 303.757824 304.582174 
L 307.167881 300.379915 
L 310.577939 296.876618 
L 313.987997 293.024607 
L 317.398055 290.211368 
L 320.808112 288.120625 
L 324.21817 285.898397 
L 327.628228 286.660491 
L 334.448343 303.892627 
L 337.858401 311.69631 
L 341.268459 322.261968 
L 344.678516 327.933877 
L 348.088574 330.853326 
L 354.90869 345.257489 
L 358.318747 352.439975 
L 361.728805 361.316299 
L 365.138863 367.488869 
L 368.54892 376.902792 
L 371.958978 383.693795 
L 375.369036 385.882768 
L 378.779094 387.508458 
L 382.189151 389.956612 
L 385.599209 393.514448 
L 389.009267 396.62309 
L 392.419324 398.196187 
L 395.829382 400.750449 
L 399.23944 403.755029 
L 402.649498 404.170968 
L 406.059555 400.326324 
L 409.469613 400.775722 
L 412.879671 397.978343 
L 416.289729 395.512181 
L 419.699786 387.596455 
L 423.109844 384.777998 
L 426.519902 383.457124 
L 429.929959 383.388773 
L 433.340017 378.527868 
L 436.750075 375.064885 
L 440.160133 370.2489 
L 443.57019 365.938078 
L 446.980248 362.443273 
L 450.390306 354.150388 
L 453.800363 345.311924 
L 457.210421 337.646171 
L 460.620479 331.055002 
L 464.030537 323.372264 
L 467.440594 319.193846 
L 470.850652 315.700166 
L 477.670767 306.706479 
L 484.490883 298.138349 
L 487.900941 294.189644 
L 491.310998 291.106992 
L 494.721056 291.019404 
L 498.131114 289.771793 
L 501.541172 289.901333 
L 508.361287 285.76896 
L 511.771345 288.988724 
L 515.181402 294.969644 
L 518.59146 301.696389 
L 522.001518 309.035838 
L 525.411576 311.459435 
L 528.821633 320.608037 
L 532.231691 328.631201 
L 535.641749 335.336151 
L 539.051806 340.778756 
L 542.461864 347.753427 
L 545.871922 355.852207 
L 549.28198 364.873725 
L 552.692037 371.011403 
L 559.512153 384.124263 
L 562.92221 389.850197 
L 566.332268 393.092779 
L 569.742326 395.643664 
L 573.152384 398.009961 
L 576.562441 399.631661 
L 579.972499 400.284782 
L 583.382557 402.257241 
L 586.792615 402.627237 
L 590.202672 398.312424 
L 593.61273 388.251111 
L 597.022788 382.505633 
L 600.432845 380.066381 
L 603.842903 375.773362 
L 607.252961 369.609797 
L 610.663019 363.835874 
L 614.073076 358.661148 
L 617.483134 354.725131 
L 620.893192 353.509751 
L 624.303249 348.034301 
L 631.123365 335.655702 
L 634.533423 328.672232 
L 637.94348 322.143582 
L 651.583711 303.318396 
L 654.993769 300.003882 
L 658.403827 298.36315 
L 661.813884 297.187676 
L 665.223942 296.298704 
L 668.634 303.832871 
L 672.044058 307.211233 
L 675.454115 342.327194 
L 678.864173 362.611081 
L 682.274231 376.664996 
L 685.684288 374.794756 
L 689.094346 371.066043 
L 692.504404 372.047617 
L 699.324519 377.045735 
L 702.734577 374.387003 
L 706.144635 372.181147 
L 709.554692 375.108884 
L 712.96475 376.575566 
L 716.374808 377.545373 
L 719.784866 379.026892 
L 723.194923 381.245641 
L 726.604981 384.666876 
L 733.425097 392.184263 
L 740.245212 400.048725 
L 743.65527 402.414919 
L 750.475385 405.762278 
L 757.295501 408.567434 
L 760.705558 407.735966 
L 764.115616 404.130142 
L 767.525674 397.244184 
L 770.935731 396.915321 
L 774.345789 395.890362 
L 777.755847 394.209827 
L 781.165905 386.926758 
L 784.575962 379.084397 
L 787.98602 377.09352 
L 791.396078 373.47378 
L 794.806135 366.626295 
L 798.216193 359.293906 
L 801.626251 353.734859 
L 805.036309 347.30229 
L 808.446366 340.024746 
L 815.266482 327.199922 
L 825.496655 311.044008 
L 828.906713 306.623803 
L 832.31677 302.432698 
L 835.726828 298.638089 
L 842.546944 290.729526 
L 849.367059 284.231369 
L 852.777117 281.510527 
L 856.187174 279.235296 
L 859.597232 277.269999 
L 863.00729 277.418878 
L 866.417348 278.458264 
L 869.827405 282.58992 
L 873.237463 288.830125 
L 876.647521 295.592682 
L 880.057578 313.975428 
L 883.467636 322.770508 
L 886.877694 329.589855 
L 890.287752 335.632475 
L 893.697809 342.625871 
L 897.107867 350.741534 
L 900.517925 358.407389 
L 903.927983 367.443642 
L 907.33804 377.049419 
L 910.748098 384.564657 
L 914.158156 391.359753 
L 917.568213 396.128875 
L 920.978271 399.144711 
L 924.388329 400.35743 
L 927.798387 401.075116 
L 931.208444 401.621413 
L 934.618502 401.496273 
L 938.02856 400.575171 
L 941.438617 399.442365 
L 944.848675 392.80065 
L 948.258733 390.205459 
L 951.668791 382.339769 
L 955.078848 380.892732 
L 958.488906 377.107436 
L 961.898964 371.952457 
L 965.309021 370.301493 
L 968.719079 359.555339 
L 972.129137 349.497709 
L 975.539195 344.064006 
L 978.949252 339.117764 
L 982.35931 333.853609 
L 985.769368 328.149981 
L 989.179426 321.446054 
L 992.589483 315.466565 
L 995.999541 311.065393 
L 999.409599 307.464378 
L 1006.229714 299.571163 
L 1009.639772 295.668094 
L 1016.459887 288.650345 
L 1019.869945 285.609849 
L 1023.280003 282.88338 
L 1026.69006 280.401766 
L 1030.100118 277.729834 
L 1033.510176 275.523057 
L 1036.920234 273.946891 
L 1040.330291 273.343191 
L 1043.740349 275.418484 
L 1047.150407 283.592982 
L 1050.560464 292.120286 
L 1053.970522 300.299695 
L 1057.38058 304.954728 
L 1060.790638 315.699041 
L 1064.200695 309.09365 
L 1067.610753 313.559285 
L 1071.020811 324.502921 
L 1074.430869 327.825006 
L 1077.840926 341.667524 
L 1081.250984 350.060786 
L 1084.661042 356.702195 
L 1088.071099 368.251781 
L 1091.481157 376.401414 
L 1094.891215 379.035897 
L 1101.71133 381.841973 
L 1105.121388 381.256794 
L 1108.531446 383.427451 
L 1111.941503 389.442138 
L 1115.351561 390.9388 
L 1118.761619 387.210087 
L 1122.171677 387.143374 
L 1125.581734 381.687262 
L 1128.991792 375.352615 
L 1132.40185 370.739636 
L 1135.811907 361.595945 
L 1139.221965 359.841738 
L 1142.632023 358.489554 
L 1146.042081 355.405264 
L 1149.452138 351.447555 
L 1152.862196 346.200794 
L 1156.272254 341.710602 
L 1163.092369 332.013452 
L 1166.502427 326.408973 
L 1169.912485 320.47246 
L 1173.322542 315.009084 
L 1176.7326 310.125975 
L 1180.142658 304.919836 
L 1183.552716 300.49779 
L 1186.962773 297.056704 
L 1190.372831 294.137358 
L 1197.192946 287.788385 
L 1200.603004 285.749212 
L 1204.013062 289.221608 
L 1207.42312 287.729243 
L 1210.833177 281.846552 
L 1214.243235 281.309157 
L 1217.653293 282.047921 
L 1221.06335 290.949109 
L 1224.473408 293.725717 
L 1227.883466 297.905976 
L 1227.883466 297.905976 
" clip-path="url(#pf44f4511a0)" style="fill: none; stroke: #004cd9; stroke-opacity: 0.8; stroke-width: 1.5; stroke-linecap: square"/>
   </g>
   <g id="patch_8">
    <path d="M 100.006875 415.328646 
L 100.006875 266.581979 
" style="fill: none; stroke: #000000; stroke-width: 0.8; stroke-linejoin: miter; stroke-linecap: square"/>
   </g>
   <g id="patch_9">
    <path d="M 1281.591875 415.328646 
L 1281.591875 266.581979 
" style="fill: none; stroke: #000000; stroke-width: 0.8; stroke-linejoin: miter; stroke-linecap: square"/>
   </g>
   <g id="patch_10">
    <path d="M 100.006875 415.328646 
L 1281.591875 415.328646 
" style="fill: none; stroke: #000000; stroke-width: 0.8; stroke-linejoin: miter; stroke-linecap: square"/>
   </g>
   <g id="patch_11">
    <path d="M 100.006875 266.581979 
L 1281.591875 266.581979 
" style="fill: none; stroke: #000000; stroke-width: 0.8; stroke-linejoin: miter; stroke-linecap: square"/>
   </g>
   <g id="text_20">
    <!-- Latent Dimension 2 -->
    <g transform="translate(543.944688 256.581979) scale(0.3 -0.3)">
     <use xlink:href="#DejaVuSans-4c"/>
     <use xlink:href="#DejaVuSans-61" transform="translate(55.712891 0)"/>
     <use xlink:href="#DejaVuSans-74" transform="translate(116.992188 0)"/>
     <use xlink:href="#DejaVuSans-65" transform="translate(156.201172 0)"/>
     <use xlink:href="#DejaVuSans-6e" transform="translate(217.724609 0)"/>
     <use xlink:href="#DejaVuSans-74" transform="translate(281.103516 0)"/>
     <use xlink:href="#DejaVuSans-20" transform="translate(320.3125 0)"/>
     <use xlink:href="#DejaVuSans-44" transform="translate(352.099609 0)"/>
     <use xlink:href="#DejaVuSans-69" transform="translate(429.101562 0)"/>
     <use xlink:href="#DejaVuSans-6d" transform="translate(456.884766 0)"/>
     <use xlink:href="#DejaVuSans-65" transform="translate(554.296875 0)"/>
     <use xlink:href="#DejaVuSans-6e" transform="translate(615.820312 0)"/>
     <use xlink:href="#DejaVuSans-73" transform="translate(679.199219 0)"/>
     <use xlink:href="#DejaVuSans-69" transform="translate(731.298828 0)"/>
     <use xlink:href="#DejaVuSans-6f" transform="translate(759.082031 0)"/>
     <use xlink:href="#DejaVuSans-6e" transform="translate(820.263672 0)"/>
     <use xlink:href="#DejaVuSans-20" transform="translate(883.642578 0)"/>
     <use xlink:href="#DejaVuSans-32" transform="translate(915.429688 0)"/>
    </g>
   </g>
  </g>
  <g id="axes_3">
   <g id="patch_12">
    <path d="M 100.006875 641.915313 
L 1281.591875 641.915313 
L 1281.591875 493.168646 
L 100.006875 493.168646 
z
" style="fill: #ffffff"/>
   </g>
   <g id="matplotlib.axis_5">
    <g id="xtick_15">
     <g id="line2d_39">
      <path d="M 153.715284 641.915313 
L 153.715284 493.168646 
" clip-path="url(#p241d86daa7)" style="fill: none; stroke-dasharray: 2.96,1.28; stroke-dashoffset: 0; stroke: #b0b0b0; stroke-opacity: 0.3; stroke-width: 0.8"/>
     </g>
     <g id="line2d_40">
      <g>
       <use xlink:href="#m081091ff2a" x="153.715284" y="641.915313" style="stroke: #000000; stroke-width: 0.8"/>
      </g>
     </g>
     <g id="text_21">
      <!-- 0 -->
      <g transform="translate(144.807784 670.190938) scale(0.28 -0.28)">
       <use xlink:href="#DejaVuSans-30"/>
      </g>
     </g>
    </g>
    <g id="xtick_16">
     <g id="line2d_41">
      <path d="M 324.21817 641.915313 
L 324.21817 493.168646 
" clip-path="url(#p241d86daa7)" style="fill: none; stroke-dasharray: 2.96,1.28; stroke-dashoffset: 0; stroke: #b0b0b0; stroke-opacity: 0.3; stroke-width: 0.8"/>
     </g>
     <g id="line2d_42">
      <g>
       <use xlink:href="#m081091ff2a" x="324.21817" y="641.915313" style="stroke: #000000; stroke-width: 0.8"/>
      </g>
     </g>
     <g id="text_22">
      <!-- 50 -->
      <g transform="translate(306.40317 670.190938) scale(0.28 -0.28)">
       <use xlink:href="#DejaVuSans-35"/>
       <use xlink:href="#DejaVuSans-30" transform="translate(63.623047 0)"/>
      </g>
     </g>
    </g>
    <g id="xtick_17">
     <g id="line2d_43">
      <path d="M 494.721056 641.915313 
L 494.721056 493.168646 
" clip-path="url(#p241d86daa7)" style="fill: none; stroke-dasharray: 2.96,1.28; stroke-dashoffset: 0; stroke: #b0b0b0; stroke-opacity: 0.3; stroke-width: 0.8"/>
     </g>
     <g id="line2d_44">
      <g>
       <use xlink:href="#m081091ff2a" x="494.721056" y="641.915313" style="stroke: #000000; stroke-width: 0.8"/>
      </g>
     </g>
     <g id="text_23">
      <!-- 100 -->
      <g transform="translate(467.998556 670.190938) scale(0.28 -0.28)">
       <use xlink:href="#DejaVuSans-31"/>
       <use xlink:href="#DejaVuSans-30" transform="translate(63.623047 0)"/>
       <use xlink:href="#DejaVuSans-30" transform="translate(127.246094 0)"/>
      </g>
     </g>
    </g>
    <g id="xtick_18">
     <g id="line2d_45">
      <path d="M 665.223942 641.915313 
L 665.223942 493.168646 
" clip-path="url(#p241d86daa7)" style="fill: none; stroke-dasharray: 2.96,1.28; stroke-dashoffset: 0; stroke: #b0b0b0; stroke-opacity: 0.3; stroke-width: 0.8"/>
     </g>
     <g id="line2d_46">
      <g>
       <use xlink:href="#m081091ff2a" x="665.223942" y="641.915313" style="stroke: #000000; stroke-width: 0.8"/>
      </g>
     </g>
     <g id="text_24">
      <!-- 150 -->
      <g transform="translate(638.501442 670.190938) scale(0.28 -0.28)">
       <use xlink:href="#DejaVuSans-31"/>
       <use xlink:href="#DejaVuSans-35" transform="translate(63.623047 0)"/>
       <use xlink:href="#DejaVuSans-30" transform="translate(127.246094 0)"/>
      </g>
     </g>
    </g>
    <g id="xtick_19">
     <g id="line2d_47">
      <path d="M 835.726828 641.915313 
L 835.726828 493.168646 
" clip-path="url(#p241d86daa7)" style="fill: none; stroke-dasharray: 2.96,1.28; stroke-dashoffset: 0; stroke: #b0b0b0; stroke-opacity: 0.3; stroke-width: 0.8"/>
     </g>
     <g id="line2d_48">
      <g>
       <use xlink:href="#m081091ff2a" x="835.726828" y="641.915313" style="stroke: #000000; stroke-width: 0.8"/>
      </g>
     </g>
     <g id="text_25">
      <!-- 200 -->
      <g transform="translate(809.004328 670.190938) scale(0.28 -0.28)">
       <use xlink:href="#DejaVuSans-32"/>
       <use xlink:href="#DejaVuSans-30" transform="translate(63.623047 0)"/>
       <use xlink:href="#DejaVuSans-30" transform="translate(127.246094 0)"/>
      </g>
     </g>
    </g>
    <g id="xtick_20">
     <g id="line2d_49">
      <path d="M 1006.229714 641.915313 
L 1006.229714 493.168646 
" clip-path="url(#p241d86daa7)" style="fill: none; stroke-dasharray: 2.96,1.28; stroke-dashoffset: 0; stroke: #b0b0b0; stroke-opacity: 0.3; stroke-width: 0.8"/>
     </g>
     <g id="line2d_50">
      <g>
       <use xlink:href="#m081091ff2a" x="1006.229714" y="641.915313" style="stroke: #000000; stroke-width: 0.8"/>
      </g>
     </g>
     <g id="text_26">
      <!-- 250 -->
      <g transform="translate(979.507214 670.190938) scale(0.28 -0.28)">
       <use xlink:href="#DejaVuSans-32"/>
       <use xlink:href="#DejaVuSans-35" transform="translate(63.623047 0)"/>
       <use xlink:href="#DejaVuSans-30" transform="translate(127.246094 0)"/>
      </g>
     </g>
    </g>
    <g id="xtick_21">
     <g id="line2d_51">
      <path d="M 1176.7326 641.915313 
L 1176.7326 493.168646 
" clip-path="url(#p241d86daa7)" style="fill: none; stroke-dasharray: 2.96,1.28; stroke-dashoffset: 0; stroke: #b0b0b0; stroke-opacity: 0.3; stroke-width: 0.8"/>
     </g>
     <g id="line2d_52">
      <g>
       <use xlink:href="#m081091ff2a" x="1176.7326" y="641.915313" style="stroke: #000000; stroke-width: 0.8"/>
      </g>
     </g>
     <g id="text_27">
      <!-- 300 -->
      <g transform="translate(1150.0101 670.190938) scale(0.28 -0.28)">
       <use xlink:href="#DejaVuSans-33"/>
       <use xlink:href="#DejaVuSans-30" transform="translate(63.623047 0)"/>
       <use xlink:href="#DejaVuSans-30" transform="translate(127.246094 0)"/>
      </g>
     </g>
    </g>
    <g id="text_28">
     <!-- Time Index -->
     <g transform="translate(597.553281 702.809375) scale(0.3 -0.3)">
      <defs>
       <path id="DejaVuSans-Bold-54" d="M 31 4666 
L 4331 4666 
L 4331 3756 
L 2784 3756 
L 2784 0 
L 1581 0 
L 1581 3756 
L 31 3756 
L 31 4666 
z
" transform="scale(0.015625)"/>
       <path id="DejaVuSans-Bold-69" d="M 538 3500 
L 1656 3500 
L 1656 0 
L 538 0 
L 538 3500 
z
M 538 4863 
L 1656 4863 
L 1656 3950 
L 538 3950 
L 538 4863 
z
" transform="scale(0.015625)"/>
       <path id="DejaVuSans-Bold-6d" d="M 3781 2919 
Q 3994 3244 4286 3414 
Q 4578 3584 4928 3584 
Q 5531 3584 5847 3212 
Q 6163 2841 6163 2131 
L 6163 0 
L 5038 0 
L 5038 1825 
Q 5041 1866 5042 1909 
Q 5044 1953 5044 2034 
Q 5044 2406 4934 2573 
Q 4825 2741 4581 2741 
Q 4263 2741 4089 2478 
Q 3916 2216 3909 1719 
L 3909 0 
L 2784 0 
L 2784 1825 
Q 2784 2406 2684 2573 
Q 2584 2741 2328 2741 
Q 2006 2741 1831 2477 
Q 1656 2213 1656 1722 
L 1656 0 
L 531 0 
L 531 3500 
L 1656 3500 
L 1656 2988 
Q 1863 3284 2130 3434 
Q 2397 3584 2719 3584 
Q 3081 3584 3359 3409 
Q 3638 3234 3781 2919 
z
" transform="scale(0.015625)"/>
       <path id="DejaVuSans-Bold-65" d="M 4031 1759 
L 4031 1441 
L 1416 1441 
Q 1456 1047 1700 850 
Q 1944 653 2381 653 
Q 2734 653 3104 758 
Q 3475 863 3866 1075 
L 3866 213 
Q 3469 63 3072 -14 
Q 2675 -91 2278 -91 
Q 1328 -91 801 392 
Q 275 875 275 1747 
Q 275 2603 792 3093 
Q 1309 3584 2216 3584 
Q 3041 3584 3536 3087 
Q 4031 2591 4031 1759 
z
M 2881 2131 
Q 2881 2450 2695 2645 
Q 2509 2841 2209 2841 
Q 1884 2841 1681 2658 
Q 1478 2475 1428 2131 
L 2881 2131 
z
" transform="scale(0.015625)"/>
       <path id="DejaVuSans-Bold-20" transform="scale(0.015625)"/>
       <path id="DejaVuSans-Bold-49" d="M 588 4666 
L 1791 4666 
L 1791 0 
L 588 0 
L 588 4666 
z
" transform="scale(0.015625)"/>
       <path id="DejaVuSans-Bold-6e" d="M 4056 2131 
L 4056 0 
L 2931 0 
L 2931 347 
L 2931 1631 
Q 2931 2084 2911 2256 
Q 2891 2428 2841 2509 
Q 2775 2619 2662 2680 
Q 2550 2741 2406 2741 
Q 2056 2741 1856 2470 
Q 1656 2200 1656 1722 
L 1656 0 
L 538 0 
L 538 3500 
L 1656 3500 
L 1656 2988 
Q 1909 3294 2193 3439 
Q 2478 3584 2822 3584 
Q 3428 3584 3742 3212 
Q 4056 2841 4056 2131 
z
" transform="scale(0.015625)"/>
       <path id="DejaVuSans-Bold-64" d="M 2919 2988 
L 2919 4863 
L 4044 4863 
L 4044 0 
L 2919 0 
L 2919 506 
Q 2688 197 2409 53 
Q 2131 -91 1766 -91 
Q 1119 -91 703 423 
Q 288 938 288 1747 
Q 288 2556 703 3070 
Q 1119 3584 1766 3584 
Q 2128 3584 2408 3439 
Q 2688 3294 2919 2988 
z
M 2181 722 
Q 2541 722 2730 984 
Q 2919 1247 2919 1747 
Q 2919 2247 2730 2509 
Q 2541 2772 2181 2772 
Q 1825 2772 1636 2509 
Q 1447 2247 1447 1747 
Q 1447 1247 1636 984 
Q 1825 722 2181 722 
z
" transform="scale(0.015625)"/>
       <path id="DejaVuSans-Bold-78" d="M 1422 1791 
L 159 3500 
L 1344 3500 
L 2059 2463 
L 2784 3500 
L 3969 3500 
L 2706 1797 
L 4031 0 
L 2847 0 
L 2059 1106 
L 1281 0 
L 97 0 
L 1422 1791 
z
" transform="scale(0.015625)"/>
      </defs>
      <use xlink:href="#DejaVuSans-Bold-54"/>
      <use xlink:href="#DejaVuSans-Bold-69" transform="translate(68.212891 0)"/>
      <use xlink:href="#DejaVuSans-Bold-6d" transform="translate(102.490234 0)"/>
      <use xlink:href="#DejaVuSans-Bold-65" transform="translate(206.689453 0)"/>
      <use xlink:href="#DejaVuSans-Bold-20" transform="translate(274.511719 0)"/>
      <use xlink:href="#DejaVuSans-Bold-49" transform="translate(309.326172 0)"/>
      <use xlink:href="#DejaVuSans-Bold-6e" transform="translate(346.533203 0)"/>
      <use xlink:href="#DejaVuSans-Bold-64" transform="translate(417.724609 0)"/>
      <use xlink:href="#DejaVuSans-Bold-65" transform="translate(489.306641 0)"/>
      <use xlink:href="#DejaVuSans-Bold-78" transform="translate(557.128906 0)"/>
     </g>
    </g>
   </g>
   <g id="matplotlib.axis_6">
    <g id="ytick_5">
     <g id="line2d_53">
      <path d="M 100.006875 636.498006 
L 1281.591875 636.498006 
" clip-path="url(#p241d86daa7)" style="fill: none; stroke-dasharray: 2.96,1.28; stroke-dashoffset: 0; stroke: #b0b0b0; stroke-opacity: 0.3; stroke-width: 0.8"/>
     </g>
     <g id="line2d_54">
      <g>
       <use xlink:href="#m1ba4f321a8" x="100.006875" y="636.498006" style="stroke: #000000; stroke-width: 0.8"/>
      </g>
     </g>
     <g id="text_29">
      <!-- −0.5 -->
      <g transform="translate(25.015 647.135818) scale(0.28 -0.28)">
       <use xlink:href="#DejaVuSans-2212"/>
       <use xlink:href="#DejaVuSans-30" transform="translate(83.789062 0)"/>
       <use xlink:href="#DejaVuSans-2e" transform="translate(147.412109 0)"/>
       <use xlink:href="#DejaVuSans-35" transform="translate(179.199219 0)"/>
      </g>
     </g>
    </g>
    <g id="ytick_6">
     <g id="line2d_55">
      <path d="M 100.006875 518.832893 
L 1281.591875 518.832893 
" clip-path="url(#p241d86daa7)" style="fill: none; stroke-dasharray: 2.96,1.28; stroke-dashoffset: 0; stroke: #b0b0b0; stroke-opacity: 0.3; stroke-width: 0.8"/>
     </g>
     <g id="line2d_56">
      <g>
       <use xlink:href="#m1ba4f321a8" x="100.006875" y="518.832893" style="stroke: #000000; stroke-width: 0.8"/>
      </g>
     </g>
     <g id="text_30">
      <!-- −0.4 -->
      <g transform="translate(25.015 529.470706) scale(0.28 -0.28)">
       <use xlink:href="#DejaVuSans-2212"/>
       <use xlink:href="#DejaVuSans-30" transform="translate(83.789062 0)"/>
       <use xlink:href="#DejaVuSans-2e" transform="translate(147.412109 0)"/>
       <use xlink:href="#DejaVuSans-34" transform="translate(179.199219 0)"/>
      </g>
     </g>
    </g>
   </g>
   <g id="line2d_57">
    <path d="M 153.715284 511.793634 
L 157.125342 513.293096 
L 160.5354 515.953274 
L 163.945457 520.214222 
L 167.355515 525.128713 
L 170.765573 530.352739 
L 174.17563 536.192892 
L 177.585688 542.269922 
L 184.405804 555.442291 
L 198.046034 582.326322 
L 201.456092 588.995142 
L 204.86615 595.345869 
L 208.276208 601.337721 
L 211.686265 606.939314 
L 215.096323 612.193989 
L 218.506381 617.012817 
L 221.916438 621.397797 
L 225.326496 625.206242 
L 228.736554 628.420477 
L 232.146612 631.046044 
L 235.556669 632.488242 
L 238.966727 633.478076 
L 242.376785 633.849365 
L 245.786843 632.453561 
L 249.1969 629.448675 
L 256.017016 622.940357 
L 259.427073 618.766234 
L 262.837131 614.398472 
L 266.247189 609.766515 
L 269.657247 604.660419 
L 276.477362 593.043549 
L 279.88742 586.727959 
L 293.527651 559.931805 
L 296.937708 552.836256 
L 300.347766 546.041862 
L 303.757824 539.844868 
L 307.167881 534.128572 
L 310.577939 528.959986 
L 313.987997 524.16844 
L 317.398055 520.052739 
L 320.808112 516.786639 
L 324.21817 514.048438 
L 327.628228 512.342151 
L 331.038286 513.126528 
L 334.448343 515.964986 
L 337.858401 520.348143 
L 341.268459 526.292584 
L 348.088574 538.74282 
L 358.318747 557.50882 
L 368.54892 576.790761 
L 371.958978 583.436752 
L 375.369036 589.655277 
L 378.779094 595.422034 
L 382.189151 600.894896 
L 385.599209 606.155638 
L 389.009267 611.195388 
L 392.419324 615.808829 
L 395.829382 620.181395 
L 399.23944 624.35152 
L 402.649498 628.053467 
L 406.059555 630.792931 
L 409.469613 633.101317 
L 412.879671 634.509605 
L 416.289729 635.1541 
L 419.699786 634.000924 
L 423.109844 631.962518 
L 426.519902 628.94301 
L 433.340017 624.102896 
L 436.750075 620.795032 
L 443.57019 612.366132 
L 446.980248 608.602538 
L 450.390306 603.020233 
L 453.800363 596.464925 
L 457.210421 589.082423 
L 460.620479 580.994059 
L 467.440594 563.38667 
L 470.850652 555.003744 
L 474.26071 547.358941 
L 477.670767 540.414285 
L 481.080825 534.155889 
L 484.490883 528.501942 
L 487.900941 523.543617 
L 491.310998 519.297993 
L 494.721056 516.130502 
L 498.131114 513.490067 
L 501.541172 511.540801 
L 504.951229 509.776373 
L 508.361287 508.262253 
L 511.771345 507.947106 
L 515.181402 509.169435 
L 518.59146 511.903568 
L 522.001518 516.265439 
L 525.411576 520.974999 
L 528.821633 526.661559 
L 545.871922 557.420452 
L 562.92221 590.856249 
L 566.332268 597.083155 
L 569.742326 602.932495 
L 573.152384 608.429799 
L 576.562441 613.486205 
L 579.972499 618.008017 
L 583.382557 622.146441 
L 586.792615 625.546707 
L 590.202672 627.912848 
L 593.61273 628.337719 
L 597.022788 627.524061 
L 600.432845 625.835553 
L 603.842903 622.987031 
L 607.252961 619.162981 
L 610.663019 614.404188 
L 614.073076 609.181283 
L 620.893192 598.147402 
L 624.303249 592.81856 
L 627.713307 587.15795 
L 634.533423 575.025561 
L 644.763596 554.822202 
L 651.583711 541.669261 
L 654.993769 535.601383 
L 658.403827 530.323143 
L 661.813884 525.684489 
L 665.223942 521.683176 
L 668.634 519.999928 
L 672.044058 519.072407 
L 675.454115 524.474083 
L 678.864173 529.599572 
L 682.274231 533.660042 
L 685.684288 536.256328 
L 689.094346 537.986917 
L 692.504404 540.11832 
L 695.914462 542.89755 
L 702.734577 550.060077 
L 706.144635 553.518834 
L 709.554692 557.821793 
L 712.96475 562.677967 
L 730.015039 588.327432 
L 743.65527 609.661209 
L 747.065327 614.586115 
L 750.475385 619.135278 
L 753.885443 623.308209 
L 757.295501 627.006613 
L 760.705558 629.870355 
L 764.115616 631.888948 
L 770.935731 633.009933 
L 774.345789 633.019436 
L 777.755847 632.193259 
L 781.165905 629.82859 
L 784.575962 626.485484 
L 787.98602 622.456713 
L 791.396078 617.69806 
L 794.806135 612.147665 
L 798.216193 605.857709 
L 801.626251 599.936797 
L 805.036309 594.3641 
L 808.446366 588.135265 
L 811.856424 581.339644 
L 828.906713 545.168099 
L 832.31677 538.752112 
L 835.726828 532.867635 
L 839.136886 527.547174 
L 842.546944 522.716002 
L 845.957001 518.375066 
L 849.367059 514.536429 
L 852.777117 510.890134 
L 856.187174 507.627296 
L 859.597232 504.893057 
L 863.00729 503.107554 
L 866.417348 502.192833 
L 869.827405 502.533858 
L 873.237463 504.483405 
L 876.647521 507.774437 
L 880.057578 514.15967 
L 886.877694 528.599007 
L 907.33804 572.846257 
L 910.748098 579.96004 
L 914.158156 586.669853 
L 917.568213 593.089943 
L 920.978271 599.096558 
L 924.388329 604.672236 
L 927.798387 609.786223 
L 931.208444 614.394579 
L 934.618502 618.356372 
L 938.02856 621.536101 
L 941.438617 624.121025 
L 944.848675 625.27073 
L 948.258733 625.576584 
L 951.668791 625.02989 
L 955.078848 623.796025 
L 958.488906 621.532945 
L 961.898964 618.315659 
L 965.309021 614.483334 
L 968.719079 608.026073 
L 972.129137 600.314889 
L 978.949252 586.629246 
L 985.769368 573.501272 
L 989.179426 566.34383 
L 992.589483 558.856337 
L 995.999541 551.715587 
L 999.409599 545.100981 
L 1002.819656 538.894975 
L 1006.229714 533.196773 
L 1009.639772 527.96426 
L 1013.04983 523.193754 
L 1016.459887 518.938837 
L 1019.869945 515.087927 
L 1023.280003 511.733389 
L 1026.69006 508.723594 
L 1030.100118 506.111843 
L 1033.510176 503.853392 
L 1036.920234 501.921695 
L 1040.330291 500.459299 
L 1043.740349 499.929858 
L 1047.150407 501.340987 
L 1050.560464 504.484352 
L 1053.970522 509.064444 
L 1057.38058 514.089711 
L 1060.790638 520.455658 
L 1064.200695 525.253095 
L 1067.610753 530.242945 
L 1071.020811 536.112133 
L 1074.430869 541.519174 
L 1081.250984 554.720333 
L 1084.661042 561.032872 
L 1091.481157 574.910717 
L 1094.891215 581.408515 
L 1098.301273 587.345137 
L 1101.71133 592.77648 
L 1105.121388 597.477132 
L 1111.941503 606.117204 
L 1115.351561 609.626984 
L 1118.761619 612.201388 
L 1122.171677 614.063337 
L 1125.581734 614.380272 
L 1128.991792 612.691413 
L 1132.40185 609.49394 
L 1139.221965 600.162418 
L 1142.632023 594.875867 
L 1149.452138 585.989099 
L 1152.862196 581.200814 
L 1156.272254 576.737214 
L 1166.502427 562.393083 
L 1169.912485 557.194866 
L 1176.7326 545.829427 
L 1183.552716 534.311306 
L 1186.962773 529.041166 
L 1190.372831 524.269257 
L 1193.782889 520.051056 
L 1197.192946 516.267579 
L 1200.603004 513.056149 
L 1204.013062 511.415332 
L 1207.42312 510.194125 
L 1210.833177 508.408938 
L 1214.243235 507.06889 
L 1217.653293 506.249271 
L 1221.06335 507.546432 
L 1224.473408 509.58077 
L 1227.883466 512.50139 
L 1227.883466 512.50139 
" clip-path="url(#p241d86daa7)" style="fill: none; stroke: #0099b2; stroke-opacity: 0.8; stroke-width: 1.5; stroke-linecap: square"/>
   </g>
   <g id="patch_13">
    <path d="M 100.006875 641.915312 
L 100.006875 493.168646 
" style="fill: none; stroke: #000000; stroke-width: 0.8; stroke-linejoin: miter; stroke-linecap: square"/>
   </g>
   <g id="patch_14">
    <path d="M 1281.591875 641.915312 
L 1281.591875 493.168646 
" style="fill: none; stroke: #000000; stroke-width: 0.8; stroke-linejoin: miter; stroke-linecap: square"/>
   </g>
   <g id="patch_15">
    <path d="M 100.006875 641.915313 
L 1281.591875 641.915313 
" style="fill: none; stroke: #000000; stroke-width: 0.8; stroke-linejoin: miter; stroke-linecap: square"/>
   </g>
   <g id="patch_16">
    <path d="M 100.006875 493.168646 
L 1281.591875 493.168646 
" style="fill: none; stroke: #000000; stroke-width: 0.8; stroke-linejoin: miter; stroke-linecap: square"/>
   </g>
   <g id="text_31">
    <!-- Latent Dimension 3 -->
    <g transform="translate(543.944688 483.168646) scale(0.3 -0.3)">
     <use xlink:href="#DejaVuSans-4c"/>
     <use xlink:href="#DejaVuSans-61" transform="translate(55.712891 0)"/>
     <use xlink:href="#DejaVuSans-74" transform="translate(116.992188 0)"/>
     <use xlink:href="#DejaVuSans-65" transform="translate(156.201172 0)"/>
     <use xlink:href="#DejaVuSans-6e" transform="translate(217.724609 0)"/>
     <use xlink:href="#DejaVuSans-74" transform="translate(281.103516 0)"/>
     <use xlink:href="#DejaVuSans-20" transform="translate(320.3125 0)"/>
     <use xlink:href="#DejaVuSans-44" transform="translate(352.099609 0)"/>
     <use xlink:href="#DejaVuSans-69" transform="translate(429.101562 0)"/>
     <use xlink:href="#DejaVuSans-6d" transform="translate(456.884766 0)"/>
     <use xlink:href="#DejaVuSans-65" transform="translate(554.296875 0)"/>
     <use xlink:href="#DejaVuSans-6e" transform="translate(615.820312 0)"/>
     <use xlink:href="#DejaVuSans-73" transform="translate(679.199219 0)"/>
     <use xlink:href="#DejaVuSans-69" transform="translate(731.298828 0)"/>
     <use xlink:href="#DejaVuSans-6f" transform="translate(759.082031 0)"/>
     <use xlink:href="#DejaVuSans-6e" transform="translate(820.263672 0)"/>
     <use xlink:href="#DejaVuSans-20" transform="translate(883.642578 0)"/>
     <use xlink:href="#DejaVuSans-33" transform="translate(915.429688 0)"/>
    </g>
   </g>
  </g>
 </g>
 <defs>
  <clipPath id="padacb7bb4b">
   <rect x="100.006875" y="39.995312" width="1181.585" height="148.746667"/>
  </clipPath>
  <clipPath id="pf44f4511a0">
   <rect x="100.006875" y="266.581979" width="1181.585" height="148.746667"/>
  </clipPath>
  <clipPath id="p241d86daa7">
   <rect x="100.006875" y="493.168646" width="1181.585" height="148.746667"/>
  </clipPath>
 </defs>
</svg>
